<?xml version="1.0" encoding="utf-8"?>
<svg xmlns="http://www.w3.org/2000/svg" xmlns:xlink="http://www.w3.org/1999/xlink" width="600" height="400" viewBox="0 0 2400 1600">
<defs>
  <clipPath id="clip380">
    <rect x="0" y="0" width="2400" height="1600"/>
  </clipPath>
</defs>
<path clip-path="url(#clip380)" d="M0 1600 L2400 1600 L2400 0 L0 0  Z" fill="#ffffff" fill-rule="evenodd" fill-opacity="1"/>
<defs>
  <clipPath id="clip381">
    <rect x="480" y="0" width="1681" height="1600"/>
  </clipPath>
</defs>
<path clip-path="url(#clip380)" d="M184.191 1486.45 L2352.76 1486.45 L2352.76 47.2441 L184.191 47.2441  Z" fill="#ffffff" fill-rule="evenodd" fill-opacity="1"/>
<defs>
  <clipPath id="clip382">
    <rect x="184" y="47" width="2170" height="1440"/>
  </clipPath>
</defs>
<polyline clip-path="url(#clip382)" style="stroke:#000000; stroke-linecap:round; stroke-linejoin:round; stroke-width:2; stroke-opacity:0.1; fill:none" points="245.565,1486.45 245.565,47.2441 "/>
<polyline clip-path="url(#clip382)" style="stroke:#000000; stroke-linecap:round; stroke-linejoin:round; stroke-width:2; stroke-opacity:0.1; fill:none" points="757.019,1486.45 757.019,47.2441 "/>
<polyline clip-path="url(#clip382)" style="stroke:#000000; stroke-linecap:round; stroke-linejoin:round; stroke-width:2; stroke-opacity:0.1; fill:none" points="1268.47,1486.45 1268.47,47.2441 "/>
<polyline clip-path="url(#clip382)" style="stroke:#000000; stroke-linecap:round; stroke-linejoin:round; stroke-width:2; stroke-opacity:0.1; fill:none" points="1779.93,1486.45 1779.93,47.2441 "/>
<polyline clip-path="url(#clip382)" style="stroke:#000000; stroke-linecap:round; stroke-linejoin:round; stroke-width:2; stroke-opacity:0.1; fill:none" points="2291.38,1486.45 2291.38,47.2441 "/>
<polyline clip-path="url(#clip382)" style="stroke:#000000; stroke-linecap:round; stroke-linejoin:round; stroke-width:2; stroke-opacity:0.1; fill:none" points="184.191,1452.08 2352.76,1452.08 "/>
<polyline clip-path="url(#clip382)" style="stroke:#000000; stroke-linecap:round; stroke-linejoin:round; stroke-width:2; stroke-opacity:0.1; fill:none" points="184.191,1164.47 2352.76,1164.47 "/>
<polyline clip-path="url(#clip382)" style="stroke:#000000; stroke-linecap:round; stroke-linejoin:round; stroke-width:2; stroke-opacity:0.1; fill:none" points="184.191,876.869 2352.76,876.869 "/>
<polyline clip-path="url(#clip382)" style="stroke:#000000; stroke-linecap:round; stroke-linejoin:round; stroke-width:2; stroke-opacity:0.1; fill:none" points="184.191,589.265 2352.76,589.265 "/>
<polyline clip-path="url(#clip382)" style="stroke:#000000; stroke-linecap:round; stroke-linejoin:round; stroke-width:2; stroke-opacity:0.1; fill:none" points="184.191,301.66 2352.76,301.66 "/>
<polyline clip-path="url(#clip380)" style="stroke:#000000; stroke-linecap:round; stroke-linejoin:round; stroke-width:4; stroke-opacity:1; fill:none" points="184.191,1486.45 2352.76,1486.45 "/>
<polyline clip-path="url(#clip380)" style="stroke:#000000; stroke-linecap:round; stroke-linejoin:round; stroke-width:4; stroke-opacity:1; fill:none" points="245.565,1486.45 245.565,1467.55 "/>
<polyline clip-path="url(#clip380)" style="stroke:#000000; stroke-linecap:round; stroke-linejoin:round; stroke-width:4; stroke-opacity:1; fill:none" points="757.019,1486.45 757.019,1467.55 "/>
<polyline clip-path="url(#clip380)" style="stroke:#000000; stroke-linecap:round; stroke-linejoin:round; stroke-width:4; stroke-opacity:1; fill:none" points="1268.47,1486.45 1268.47,1467.55 "/>
<polyline clip-path="url(#clip380)" style="stroke:#000000; stroke-linecap:round; stroke-linejoin:round; stroke-width:4; stroke-opacity:1; fill:none" points="1779.93,1486.45 1779.93,1467.55 "/>
<polyline clip-path="url(#clip380)" style="stroke:#000000; stroke-linecap:round; stroke-linejoin:round; stroke-width:4; stroke-opacity:1; fill:none" points="2291.38,1486.45 2291.38,1467.55 "/>
<path clip-path="url(#clip380)" d="M222.95 1517.37 Q219.338 1517.37 217.51 1520.93 Q215.704 1524.47 215.704 1531.6 Q215.704 1538.71 217.51 1542.27 Q219.338 1545.82 222.95 1545.82 Q226.584 1545.82 228.389 1542.27 Q230.218 1538.71 230.218 1531.6 Q230.218 1524.47 228.389 1520.93 Q226.584 1517.37 222.95 1517.37 M222.95 1513.66 Q228.76 1513.66 231.815 1518.27 Q234.894 1522.85 234.894 1531.6 Q234.894 1540.33 231.815 1544.94 Q228.76 1549.52 222.95 1549.52 Q217.139 1549.52 214.061 1544.94 Q211.005 1540.33 211.005 1531.6 Q211.005 1522.85 214.061 1518.27 Q217.139 1513.66 222.95 1513.66 Z" fill="#000000" fill-rule="nonzero" fill-opacity="1" /><path clip-path="url(#clip380)" d="M243.111 1542.97 L247.996 1542.97 L247.996 1548.85 L243.111 1548.85 L243.111 1542.97 Z" fill="#000000" fill-rule="nonzero" fill-opacity="1" /><path clip-path="url(#clip380)" d="M268.181 1517.37 Q264.57 1517.37 262.741 1520.93 Q260.935 1524.47 260.935 1531.6 Q260.935 1538.71 262.741 1542.27 Q264.57 1545.82 268.181 1545.82 Q271.815 1545.82 273.621 1542.27 Q275.449 1538.71 275.449 1531.6 Q275.449 1524.47 273.621 1520.93 Q271.815 1517.37 268.181 1517.37 M268.181 1513.66 Q273.991 1513.66 277.046 1518.27 Q280.125 1522.85 280.125 1531.6 Q280.125 1540.33 277.046 1544.94 Q273.991 1549.52 268.181 1549.52 Q262.371 1549.52 259.292 1544.94 Q256.236 1540.33 256.236 1531.6 Q256.236 1522.85 259.292 1518.27 Q262.371 1513.66 268.181 1513.66 Z" fill="#000000" fill-rule="nonzero" fill-opacity="1" /><path clip-path="url(#clip380)" d="M728.755 1544.91 L745.075 1544.91 L745.075 1548.85 L723.131 1548.85 L723.131 1544.91 Q725.793 1542.16 730.376 1537.53 Q734.982 1532.88 736.163 1531.53 Q738.408 1529.01 739.288 1527.27 Q740.191 1525.51 740.191 1523.82 Q740.191 1521.07 738.246 1519.33 Q736.325 1517.6 733.223 1517.6 Q731.024 1517.6 728.57 1518.36 Q726.14 1519.13 723.362 1520.68 L723.362 1515.95 Q726.186 1514.82 728.64 1514.24 Q731.093 1513.66 733.13 1513.66 Q738.501 1513.66 741.695 1516.35 Q744.89 1519.03 744.89 1523.52 Q744.89 1525.65 744.079 1527.57 Q743.292 1529.47 741.186 1532.07 Q740.607 1532.74 737.505 1535.95 Q734.404 1539.15 728.755 1544.91 Z" fill="#000000" fill-rule="nonzero" fill-opacity="1" /><path clip-path="url(#clip380)" d="M754.89 1542.97 L759.774 1542.97 L759.774 1548.85 L754.89 1548.85 L754.89 1542.97 Z" fill="#000000" fill-rule="nonzero" fill-opacity="1" /><path clip-path="url(#clip380)" d="M770.005 1514.29 L788.362 1514.29 L788.362 1518.22 L774.288 1518.22 L774.288 1526.7 Q775.306 1526.35 776.325 1526.19 Q777.343 1526 778.362 1526 Q784.149 1526 787.528 1529.17 Q790.908 1532.34 790.908 1537.76 Q790.908 1543.34 787.436 1546.44 Q783.964 1549.52 777.644 1549.52 Q775.468 1549.52 773.2 1549.15 Q770.954 1548.78 768.547 1548.04 L768.547 1543.34 Q770.63 1544.47 772.852 1545.03 Q775.075 1545.58 777.552 1545.58 Q781.556 1545.58 783.894 1543.48 Q786.232 1541.37 786.232 1537.76 Q786.232 1534.15 783.894 1532.04 Q781.556 1529.94 777.552 1529.94 Q775.677 1529.94 773.802 1530.35 Q771.95 1530.77 770.005 1531.65 L770.005 1514.29 Z" fill="#000000" fill-rule="nonzero" fill-opacity="1" /><path clip-path="url(#clip380)" d="M1235.64 1514.29 L1253.99 1514.29 L1253.99 1518.22 L1239.92 1518.22 L1239.92 1526.7 Q1240.94 1526.35 1241.96 1526.19 Q1242.98 1526 1243.99 1526 Q1249.78 1526 1253.16 1529.17 Q1256.54 1532.34 1256.54 1537.76 Q1256.54 1543.34 1253.07 1546.44 Q1249.6 1549.52 1243.28 1549.52 Q1241.1 1549.52 1238.83 1549.15 Q1236.59 1548.78 1234.18 1548.04 L1234.18 1543.34 Q1236.26 1544.47 1238.49 1545.03 Q1240.71 1545.58 1243.18 1545.58 Q1247.19 1545.58 1249.53 1543.48 Q1251.86 1541.37 1251.86 1537.76 Q1251.86 1534.15 1249.53 1532.04 Q1247.19 1529.94 1243.18 1529.94 Q1241.31 1529.94 1239.43 1530.35 Q1237.58 1530.77 1235.64 1531.65 L1235.64 1514.29 Z" fill="#000000" fill-rule="nonzero" fill-opacity="1" /><path clip-path="url(#clip380)" d="M1265.75 1542.97 L1270.64 1542.97 L1270.64 1548.85 L1265.75 1548.85 L1265.75 1542.97 Z" fill="#000000" fill-rule="nonzero" fill-opacity="1" /><path clip-path="url(#clip380)" d="M1290.82 1517.37 Q1287.21 1517.37 1285.38 1520.93 Q1283.58 1524.47 1283.58 1531.6 Q1283.58 1538.71 1285.38 1542.27 Q1287.21 1545.82 1290.82 1545.82 Q1294.46 1545.82 1296.26 1542.27 Q1298.09 1538.71 1298.09 1531.6 Q1298.09 1524.47 1296.26 1520.93 Q1294.46 1517.37 1290.82 1517.37 M1290.82 1513.66 Q1296.63 1513.66 1299.69 1518.27 Q1302.77 1522.85 1302.77 1531.6 Q1302.77 1540.33 1299.69 1544.94 Q1296.63 1549.52 1290.82 1549.52 Q1285.01 1549.52 1281.93 1544.94 Q1278.88 1540.33 1278.88 1531.6 Q1278.88 1522.85 1281.93 1518.27 Q1285.01 1513.66 1290.82 1513.66 Z" fill="#000000" fill-rule="nonzero" fill-opacity="1" /><path clip-path="url(#clip380)" d="M1746.25 1514.29 L1768.47 1514.29 L1768.47 1516.28 L1755.92 1548.85 L1751.04 1548.85 L1762.84 1518.22 L1746.25 1518.22 L1746.25 1514.29 Z" fill="#000000" fill-rule="nonzero" fill-opacity="1" /><path clip-path="url(#clip380)" d="M1777.59 1542.97 L1782.47 1542.97 L1782.47 1548.85 L1777.59 1548.85 L1777.59 1542.97 Z" fill="#000000" fill-rule="nonzero" fill-opacity="1" /><path clip-path="url(#clip380)" d="M1792.71 1514.29 L1811.06 1514.29 L1811.06 1518.22 L1796.99 1518.22 L1796.99 1526.7 Q1798.01 1526.35 1799.02 1526.19 Q1800.04 1526 1801.06 1526 Q1806.85 1526 1810.23 1529.17 Q1813.61 1532.34 1813.61 1537.76 Q1813.61 1543.34 1810.14 1546.44 Q1806.66 1549.52 1800.34 1549.52 Q1798.17 1549.52 1795.9 1549.15 Q1793.65 1548.78 1791.25 1548.04 L1791.25 1543.34 Q1793.33 1544.47 1795.55 1545.03 Q1797.77 1545.58 1800.25 1545.58 Q1804.26 1545.58 1806.59 1543.48 Q1808.93 1541.37 1808.93 1537.76 Q1808.93 1534.15 1806.59 1532.04 Q1804.26 1529.94 1800.25 1529.94 Q1798.38 1529.94 1796.5 1530.35 Q1794.65 1530.77 1792.71 1531.65 L1792.71 1514.29 Z" fill="#000000" fill-rule="nonzero" fill-opacity="1" /><path clip-path="url(#clip380)" d="M2243.45 1544.91 L2251.09 1544.91 L2251.09 1518.55 L2242.78 1520.21 L2242.78 1515.95 L2251.05 1514.29 L2255.72 1514.29 L2255.72 1544.91 L2263.36 1544.91 L2263.36 1548.85 L2243.45 1548.85 L2243.45 1544.91 Z" fill="#000000" fill-rule="nonzero" fill-opacity="1" /><path clip-path="url(#clip380)" d="M2282.81 1517.37 Q2279.19 1517.37 2277.37 1520.93 Q2275.56 1524.47 2275.56 1531.6 Q2275.56 1538.71 2277.37 1542.27 Q2279.19 1545.82 2282.81 1545.82 Q2286.44 1545.82 2288.24 1542.27 Q2290.07 1538.71 2290.07 1531.6 Q2290.07 1524.47 2288.24 1520.93 Q2286.44 1517.37 2282.81 1517.37 M2282.81 1513.66 Q2288.62 1513.66 2291.67 1518.27 Q2294.75 1522.85 2294.75 1531.6 Q2294.75 1540.33 2291.67 1544.94 Q2288.62 1549.52 2282.81 1549.52 Q2276.99 1549.52 2273.92 1544.94 Q2270.86 1540.33 2270.86 1531.6 Q2270.86 1522.85 2273.92 1518.27 Q2276.99 1513.66 2282.81 1513.66 Z" fill="#000000" fill-rule="nonzero" fill-opacity="1" /><path clip-path="url(#clip380)" d="M2302.97 1542.97 L2307.85 1542.97 L2307.85 1548.85 L2302.97 1548.85 L2302.97 1542.97 Z" fill="#000000" fill-rule="nonzero" fill-opacity="1" /><path clip-path="url(#clip380)" d="M2328.04 1517.37 Q2324.43 1517.37 2322.6 1520.93 Q2320.79 1524.47 2320.79 1531.6 Q2320.79 1538.71 2322.6 1542.27 Q2324.43 1545.82 2328.04 1545.82 Q2331.67 1545.82 2333.48 1542.27 Q2335.3 1538.71 2335.3 1531.6 Q2335.3 1524.47 2333.48 1520.93 Q2331.67 1517.37 2328.04 1517.37 M2328.04 1513.66 Q2333.85 1513.66 2336.9 1518.27 Q2339.98 1522.85 2339.98 1531.6 Q2339.98 1540.33 2336.9 1544.94 Q2333.85 1549.52 2328.04 1549.52 Q2322.23 1549.52 2319.15 1544.94 Q2316.09 1540.33 2316.09 1531.6 Q2316.09 1522.85 2319.15 1518.27 Q2322.23 1513.66 2328.04 1513.66 Z" fill="#000000" fill-rule="nonzero" fill-opacity="1" /><polyline clip-path="url(#clip380)" style="stroke:#000000; stroke-linecap:round; stroke-linejoin:round; stroke-width:4; stroke-opacity:1; fill:none" points="184.191,1486.45 184.191,47.2441 "/>
<polyline clip-path="url(#clip380)" style="stroke:#000000; stroke-linecap:round; stroke-linejoin:round; stroke-width:4; stroke-opacity:1; fill:none" points="184.191,1452.08 203.088,1452.08 "/>
<polyline clip-path="url(#clip380)" style="stroke:#000000; stroke-linecap:round; stroke-linejoin:round; stroke-width:4; stroke-opacity:1; fill:none" points="184.191,1164.47 203.088,1164.47 "/>
<polyline clip-path="url(#clip380)" style="stroke:#000000; stroke-linecap:round; stroke-linejoin:round; stroke-width:4; stroke-opacity:1; fill:none" points="184.191,876.869 203.088,876.869 "/>
<polyline clip-path="url(#clip380)" style="stroke:#000000; stroke-linecap:round; stroke-linejoin:round; stroke-width:4; stroke-opacity:1; fill:none" points="184.191,589.265 203.088,589.265 "/>
<polyline clip-path="url(#clip380)" style="stroke:#000000; stroke-linecap:round; stroke-linejoin:round; stroke-width:4; stroke-opacity:1; fill:none" points="184.191,301.66 203.088,301.66 "/>
<path clip-path="url(#clip380)" d="M91.0151 1437.88 Q87.404 1437.88 85.5753 1441.44 Q83.7697 1444.98 83.7697 1452.11 Q83.7697 1459.22 85.5753 1462.78 Q87.404 1466.33 91.0151 1466.33 Q94.6493 1466.33 96.4548 1462.78 Q98.2835 1459.22 98.2835 1452.11 Q98.2835 1444.98 96.4548 1441.44 Q94.6493 1437.88 91.0151 1437.88 M91.0151 1434.17 Q96.8252 1434.17 99.8808 1438.78 Q102.959 1443.36 102.959 1452.11 Q102.959 1460.84 99.8808 1465.45 Q96.8252 1470.03 91.0151 1470.03 Q85.2049 1470.03 82.1262 1465.45 Q79.0707 1460.84 79.0707 1452.11 Q79.0707 1443.36 82.1262 1438.78 Q85.2049 1434.17 91.0151 1434.17 Z" fill="#000000" fill-rule="nonzero" fill-opacity="1" /><path clip-path="url(#clip380)" d="M111.177 1463.48 L116.061 1463.48 L116.061 1469.36 L111.177 1469.36 L111.177 1463.48 Z" fill="#000000" fill-rule="nonzero" fill-opacity="1" /><path clip-path="url(#clip380)" d="M136.246 1437.88 Q132.635 1437.88 130.807 1441.44 Q129.001 1444.98 129.001 1452.11 Q129.001 1459.22 130.807 1462.78 Q132.635 1466.33 136.246 1466.33 Q139.881 1466.33 141.686 1462.78 Q143.515 1459.22 143.515 1452.11 Q143.515 1444.98 141.686 1441.44 Q139.881 1437.88 136.246 1437.88 M136.246 1434.17 Q142.056 1434.17 145.112 1438.78 Q148.191 1443.36 148.191 1452.11 Q148.191 1460.84 145.112 1465.45 Q142.056 1470.03 136.246 1470.03 Q130.436 1470.03 127.357 1465.45 Q124.302 1460.84 124.302 1452.11 Q124.302 1443.36 127.357 1438.78 Q130.436 1434.17 136.246 1434.17 Z" fill="#000000" fill-rule="nonzero" fill-opacity="1" /><path clip-path="url(#clip380)" d="M86.0382 1177.82 L102.358 1177.82 L102.358 1181.75 L80.4133 1181.75 L80.4133 1177.82 Q83.0753 1175.06 87.6586 1170.43 Q92.2651 1165.78 93.4456 1164.44 Q95.691 1161.92 96.5706 1160.18 Q97.4734 1158.42 97.4734 1156.73 Q97.4734 1153.98 95.5289 1152.24 Q93.6076 1150.5 90.5058 1150.5 Q88.3067 1150.5 85.8531 1151.27 Q83.4225 1152.03 80.6447 1153.58 L80.6447 1148.86 Q83.4688 1147.73 85.9225 1147.15 Q88.3762 1146.57 90.4132 1146.57 Q95.7836 1146.57 98.978 1149.25 Q102.172 1151.94 102.172 1156.43 Q102.172 1158.56 101.362 1160.48 Q100.575 1162.38 98.4687 1164.97 Q97.89 1165.64 94.7882 1168.86 Q91.6864 1172.06 86.0382 1177.82 Z" fill="#000000" fill-rule="nonzero" fill-opacity="1" /><path clip-path="url(#clip380)" d="M112.172 1175.87 L117.057 1175.87 L117.057 1181.75 L112.172 1181.75 L112.172 1175.87 Z" fill="#000000" fill-rule="nonzero" fill-opacity="1" /><path clip-path="url(#clip380)" d="M127.288 1147.19 L145.644 1147.19 L145.644 1151.13 L131.57 1151.13 L131.57 1159.6 Q132.589 1159.25 133.607 1159.09 Q134.626 1158.91 135.644 1158.91 Q141.431 1158.91 144.811 1162.08 Q148.191 1165.25 148.191 1170.67 Q148.191 1176.24 144.718 1179.35 Q141.246 1182.43 134.927 1182.43 Q132.751 1182.43 130.482 1182.06 Q128.237 1181.68 125.83 1180.94 L125.83 1176.24 Q127.913 1177.38 130.135 1177.93 Q132.357 1178.49 134.834 1178.49 Q138.839 1178.49 141.177 1176.38 Q143.515 1174.28 143.515 1170.67 Q143.515 1167.06 141.177 1164.95 Q138.839 1162.84 134.834 1162.84 Q132.959 1162.84 131.084 1163.26 Q129.232 1163.68 127.288 1164.56 L127.288 1147.19 Z" fill="#000000" fill-rule="nonzero" fill-opacity="1" /><path clip-path="url(#clip380)" d="M81.0614 859.589 L99.4178 859.589 L99.4178 863.525 L85.3438 863.525 L85.3438 871.997 Q86.3623 871.65 87.3808 871.488 Q88.3993 871.302 89.4178 871.302 Q95.2049 871.302 98.5845 874.474 Q101.964 877.645 101.964 883.062 Q101.964 888.64 98.4919 891.742 Q95.0197 894.821 88.7003 894.821 Q86.5243 894.821 84.2558 894.45 Q82.0105 894.08 79.6031 893.339 L79.6031 888.64 Q81.6864 889.774 83.9086 890.33 Q86.1308 890.886 88.6077 890.886 Q92.6123 890.886 94.9502 888.779 Q97.2882 886.673 97.2882 883.062 Q97.2882 879.45 94.9502 877.344 Q92.6123 875.237 88.6077 875.237 Q86.7327 875.237 84.8577 875.654 Q83.0058 876.071 81.0614 876.95 L81.0614 859.589 Z" fill="#000000" fill-rule="nonzero" fill-opacity="1" /><path clip-path="url(#clip380)" d="M111.177 888.27 L116.061 888.27 L116.061 894.149 L111.177 894.149 L111.177 888.27 Z" fill="#000000" fill-rule="nonzero" fill-opacity="1" /><path clip-path="url(#clip380)" d="M136.246 862.668 Q132.635 862.668 130.807 866.233 Q129.001 869.775 129.001 876.904 Q129.001 884.011 130.807 887.575 Q132.635 891.117 136.246 891.117 Q139.881 891.117 141.686 887.575 Q143.515 884.011 143.515 876.904 Q143.515 869.775 141.686 866.233 Q139.881 862.668 136.246 862.668 M136.246 858.964 Q142.056 858.964 145.112 863.571 Q148.191 868.154 148.191 876.904 Q148.191 885.631 145.112 890.237 Q142.056 894.821 136.246 894.821 Q130.436 894.821 127.357 890.237 Q124.302 885.631 124.302 876.904 Q124.302 868.154 127.357 863.571 Q130.436 858.964 136.246 858.964 Z" fill="#000000" fill-rule="nonzero" fill-opacity="1" /><path clip-path="url(#clip380)" d="M80.8299 571.985 L103.052 571.985 L103.052 573.975 L90.5058 606.545 L85.6216 606.545 L97.4271 575.92 L80.8299 575.92 L80.8299 571.985 Z" fill="#000000" fill-rule="nonzero" fill-opacity="1" /><path clip-path="url(#clip380)" d="M112.172 600.665 L117.057 600.665 L117.057 606.545 L112.172 606.545 L112.172 600.665 Z" fill="#000000" fill-rule="nonzero" fill-opacity="1" /><path clip-path="url(#clip380)" d="M127.288 571.985 L145.644 571.985 L145.644 575.92 L131.57 575.92 L131.57 584.392 Q132.589 584.045 133.607 583.883 Q134.626 583.698 135.644 583.698 Q141.431 583.698 144.811 586.869 Q148.191 590.04 148.191 595.457 Q148.191 601.035 144.718 604.137 Q141.246 607.216 134.927 607.216 Q132.751 607.216 130.482 606.846 Q128.237 606.475 125.83 605.734 L125.83 601.035 Q127.913 602.17 130.135 602.725 Q132.357 603.281 134.834 603.281 Q138.839 603.281 141.177 601.174 Q143.515 599.068 143.515 595.457 Q143.515 591.846 141.177 589.739 Q138.839 587.633 134.834 587.633 Q132.959 587.633 131.084 588.049 Q129.232 588.466 127.288 589.346 L127.288 571.985 Z" fill="#000000" fill-rule="nonzero" fill-opacity="1" /><path clip-path="url(#clip380)" d="M51.6634 315.005 L59.3023 315.005 L59.3023 288.639 L50.9921 290.306 L50.9921 286.047 L59.256 284.38 L63.9319 284.38 L63.9319 315.005 L71.5707 315.005 L71.5707 318.94 L51.6634 318.94 L51.6634 315.005 Z" fill="#000000" fill-rule="nonzero" fill-opacity="1" /><path clip-path="url(#clip380)" d="M91.0151 287.459 Q87.404 287.459 85.5753 291.023 Q83.7697 294.565 83.7697 301.695 Q83.7697 308.801 85.5753 312.366 Q87.404 315.907 91.0151 315.907 Q94.6493 315.907 96.4548 312.366 Q98.2835 308.801 98.2835 301.695 Q98.2835 294.565 96.4548 291.023 Q94.6493 287.459 91.0151 287.459 M91.0151 283.755 Q96.8252 283.755 99.8808 288.361 Q102.959 292.945 102.959 301.695 Q102.959 310.421 99.8808 315.028 Q96.8252 319.611 91.0151 319.611 Q85.2049 319.611 82.1262 315.028 Q79.0707 310.421 79.0707 301.695 Q79.0707 292.945 82.1262 288.361 Q85.2049 283.755 91.0151 283.755 Z" fill="#000000" fill-rule="nonzero" fill-opacity="1" /><path clip-path="url(#clip380)" d="M111.177 313.06 L116.061 313.06 L116.061 318.94 L111.177 318.94 L111.177 313.06 Z" fill="#000000" fill-rule="nonzero" fill-opacity="1" /><path clip-path="url(#clip380)" d="M136.246 287.459 Q132.635 287.459 130.807 291.023 Q129.001 294.565 129.001 301.695 Q129.001 308.801 130.807 312.366 Q132.635 315.907 136.246 315.907 Q139.881 315.907 141.686 312.366 Q143.515 308.801 143.515 301.695 Q143.515 294.565 141.686 291.023 Q139.881 287.459 136.246 287.459 M136.246 283.755 Q142.056 283.755 145.112 288.361 Q148.191 292.945 148.191 301.695 Q148.191 310.421 145.112 315.028 Q142.056 319.611 136.246 319.611 Q130.436 319.611 127.357 315.028 Q124.302 310.421 124.302 301.695 Q124.302 292.945 127.357 288.361 Q130.436 283.755 136.246 283.755 Z" fill="#000000" fill-rule="nonzero" fill-opacity="1" /><path clip-path="url(#clip382)" d="M245.565 1337.04 L266.023 1338.6 L286.481 1333.89 L306.94 1334.65 L327.398 1327.38 L347.856 1320.21 L368.314 1309.79 L388.772 1290.37 L409.23 1268.28 L429.689 1240.95 L450.147 1200.14 L470.605 1168.46 L491.063 1150.52 L511.521 1098.53 L531.979 1049.94 L552.438 1006.77 L572.896 976.803 L593.354 908.72 L613.812 811.992 L634.27 797.019 L654.728 820.487 L675.187 999.539 L695.645 1161.58 L716.103 1242.12 L736.561 1309.73 L757.019 1354.08 L777.477 1378.95 L797.936 1391.91 L818.394 1400 L838.852 1405.39 L859.31 1408.64 L879.768 1409.61 L900.226 1416.67 L920.685 1419.45 L941.143 1417.2 L961.601 1420.08 L982.059 1418.85 L1002.52 1412.05 L1022.98 1406.04 L1043.43 1402.96 L1063.89 1397.65 L1084.35 1388.17 L1104.81 1377.81 L1125.27 1366.36 L1145.72 1351.66 L1166.18 1342.86 L1186.64 1312.3 L1207.1 1281.64 L1227.56 1269.43 L1248.02 1222.21 L1268.47 1196.62 L1288.93 1184.64 L1309.39 1181.65 L1329.85 1187.47 L1350.31 1190.12 L1370.76 1197.15 L1391.22 1185.29 L1411.68 1186.39 L1432.14 1221.53 L1452.6 1268.71 L1473.05 1305.95 L1493.51 1333.9 L1513.97 1359.58 L1534.43 1371.64 L1554.89 1381.75 L1575.35 1386.12 L1595.8 1388.84 L1616.26 1387.63 L1636.72 1387.57 L1657.18 1385.65 L1677.64 1382.78 L1698.09 1381.01 L1718.55 1374.45 L1739.01 1391.25 L1759.47 1399.5 L1779.93 1399.47 L1800.39 1395.81 L1820.84 1387.21 L1841.3 1382 L1861.76 1383.16 L1882.22 1371.75 L1902.68 1365.23 L1923.13 1359.47 L1943.59 1351.32 L1964.05 1334.13 L1984.51 1325.86 L2004.97 1333.69 L2025.43 1330.28 L2045.88 1328.83 L2066.34 1346.02 L2086.8 1361.85 L2107.26 1374.22 L2127.72 1390.5 L2148.17 1393.84 L2168.63 1403.62 L2189.09 1415.25 L2209.55 1423.74 L2230.01 1427.2 L2250.47 1427.14 L2270.92 1426.64 L2291.38 1425.52 L2291.38 783.142 L2270.92 720.286 L2250.47 700.635 L2230.01 725.769 L2209.55 776.778 L2189.09 734.901 L2168.63 679.635 L2148.17 644.429 L2127.72 666.65 L2107.26 720.776 L2086.8 646.916 L2066.34 485.506 L2045.88 449.871 L2025.43 520.963 L2004.97 574.955 L1984.51 656.665 L1964.05 711.169 L1943.59 752.008 L1923.13 796.485 L1902.68 807.931 L1882.22 838.702 L1861.76 871.708 L1841.3 924.158 L1820.84 966.932 L1800.39 971.947 L1779.93 999.879 L1759.47 1013.2 L1739.01 1043.91 L1718.55 1067.72 L1698.09 932.6 L1677.64 443.134 L1657.18 87.9763 L1636.72 239.46 L1616.26 396.43 L1595.8 514.578 L1575.35 647.272 L1554.89 749.196 L1534.43 878.565 L1513.97 1012.09 L1493.51 1027.45 L1473.05 1021.34 L1452.6 977.44 L1432.14 767.713 L1411.68 525.997 L1391.22 386.014 L1370.76 385.507 L1350.31 472.817 L1329.85 572.882 L1309.39 648.976 L1288.93 729.751 L1268.47 754.563 L1248.02 805.222 L1227.56 842.323 L1207.1 905.772 L1186.64 963.901 L1166.18 1010.83 L1145.72 1048.1 L1125.27 1068.55 L1104.81 1106.27 L1084.35 1140.33 L1063.89 1174.79 L1043.43 1186.3 L1022.98 1213.18 L1002.52 1230.64 L982.059 1240.1 L961.601 1238.57 L941.143 1235.91 L920.685 1234.96 L900.226 1231.87 L879.768 1229.38 L859.31 1225.5 L838.852 1209.23 L818.394 1142.28 L797.936 1041.35 L777.477 937.236 L757.019 837.012 L736.561 802.629 L716.103 764.062 L695.645 669.306 L675.187 673.445 L654.728 619.17 L634.27 376.614 L613.812 373.515 L593.354 519.147 L572.896 684.305 L552.438 724.873 L531.979 816.964 L511.521 911.403 L491.063 1011.25 L470.605 1038.73 L450.147 1098.38 L429.689 1144.4 L409.23 1160.94 L388.772 1200.07 L368.314 1238.27 L347.856 1263.67 L327.398 1289.74 L306.94 1305.66 L286.481 1317.65 L266.023 1325.16 L245.565 1337.04  Z" fill="#009af9" fill-rule="evenodd" fill-opacity="0.5"/>
<polyline clip-path="url(#clip382)" style="stroke:#009af9; stroke-linecap:round; stroke-linejoin:round; stroke-width:12; stroke-opacity:1; fill:none" points="245.565,1337.04 266.023,1331.68 286.481,1323.13 306.94,1310.69 327.398,1297.01 347.856,1276.9 368.314,1255.48 388.772,1230.18 409.23,1200.04 429.689,1166.39 450.147,1132.61 470.605,1077.66 491.063,1037.55 511.521,990.86 531.979,933.626 552.438,868.005 572.896,800.82 593.354,717.974 613.812,708.076 634.27,692.286 654.728,725.089 675.187,765.673 695.645,882.796 716.103,1007.59 736.561,1110 757.019,1200.3 777.477,1251.65 797.936,1278.28 818.394,1294.68 838.852,1304.58 859.31,1330.81 879.768,1342.84 900.226,1339.35 920.685,1336.99 941.143,1326.46 961.601,1311.15 982.059,1298 1002.52,1285.42 1022.98,1272.54 1043.43,1261.04 1063.89,1238.23 1084.35,1218.51 1104.81,1189.36 1125.27,1153.56 1145.72,1117.06 1166.18,1075.05 1186.64,1038.6 1207.1,984.945 1227.56,956.199 1248.02,900.001 1268.47,841.85 1288.93,793.173 1309.39,767.591 1329.85,744.788 1350.31,793.453 1370.76,913.519 1391.22,988.797 1411.68,1092.81 1432.14,1154.1 1452.6,1203.65 1473.05,1231.05 1493.51,1275.21 1513.97,1289.13 1534.43,1293.73 1554.89,1305.91 1575.35,1314.99 1595.8,1307.74 1616.26,1299.71 1636.72,1294.51 1657.18,1280.23 1677.64,1266.93 1698.09,1254.56 1718.55,1285.03 1739.01,1261.15 1759.47,1239.96 1779.93,1215.06 1800.39,1198.67 1820.84,1161.49 1841.3,1130.5 1861.76,1081.9 1882.22,1036.45 1902.68,992.855 1923.13,917.622 1943.59,863.896 1964.05,905.097 1984.51,976.846 2004.97,994.525 2025.43,983.118 2045.88,1016.65 2066.34,1045.3 2086.8,1063.73 2107.26,1117.36 2127.72,1168.55 2148.17,1265.68 2168.63,1301.03 2189.09,1310.21 2209.55,1313.72 2230.01,1313.77 2250.47,1309.47 2270.92,1321.12 2291.38,1313.25 "/>
<path clip-path="url(#clip382)" d="M245.565 1337.04 L266.023 1365.41 L286.481 1382.88 L306.94 1394.95 L327.398 1403.54 L347.856 1414.31 L368.314 1421.74 L388.772 1423.17 L409.23 1425.84 L429.689 1428.94 L450.147 1430.41 L470.605 1431.24 L491.063 1432.1 L511.521 1432.28 L531.979 1431.34 L552.438 1428.72 L572.896 1425.5 L593.354 1419.42 L613.812 1410.38 L634.27 1397.62 L654.728 1380.71 L675.187 1353.67 L695.645 1309.51 L716.103 1262.21 L736.561 1203.16 L757.019 1156.88 L777.477 1130.52 L797.936 1143.28 L818.394 1192.81 L838.852 1242.67 L859.31 1286.5 L879.768 1318.27 L900.226 1351.9 L920.685 1373.87 L941.143 1389.76 L961.601 1403.85 L982.059 1413.69 L1002.52 1421.94 L1022.98 1428.91 L1043.43 1432.16 L1063.89 1436.31 L1084.35 1439.28 L1104.81 1442.02 L1125.27 1443.52 L1145.72 1444.99 L1166.18 1445.5 L1186.64 1445.5 L1207.1 1445.72 L1227.56 1445.27 L1248.02 1444.71 L1268.47 1443.03 L1288.93 1441.76 L1309.39 1438.42 L1329.85 1434.74 L1350.31 1423.88 L1370.76 1401.01 L1391.22 1361.38 L1411.68 1348.29 L1432.14 1357.09 L1452.6 1365.71 L1473.05 1374.08 L1493.51 1381.87 L1513.97 1388.95 L1534.43 1394.89 L1554.89 1400.26 L1575.35 1403.98 L1595.8 1406.47 L1616.26 1404.06 L1636.72 1390.49 L1657.18 1386.32 L1677.64 1396.5 L1698.09 1406.42 L1718.55 1415.27 L1739.01 1421.88 L1759.47 1426.38 L1779.93 1431.09 L1800.39 1433.49 L1820.84 1435.07 L1841.3 1436.3 L1861.76 1438 L1882.22 1438.15 L1902.68 1438.97 L1923.13 1440.71 L1943.59 1441.75 L1964.05 1442.43 L1984.51 1441.23 L2004.97 1441.01 L2025.43 1438.84 L2045.88 1440.32 L2066.34 1441.36 L2086.8 1442.19 L2107.26 1442.41 L2127.72 1442.25 L2148.17 1440.95 L2168.63 1439.79 L2189.09 1433.2 L2209.55 1426.51 L2230.01 1413.16 L2250.47 1418.78 L2270.92 1424.35 L2291.38 1428.18 L2291.38 995.418 L2270.92 1047.39 L2250.47 995.999 L2230.01 888.834 L2209.55 833.226 L2189.09 869.859 L2168.63 828.025 L2148.17 698.259 L2127.72 667.469 L2107.26 693.232 L2086.8 879.786 L2066.34 980.718 L2045.88 956.417 L2025.43 994.463 L2004.97 1062.12 L1984.51 1091.87 L1964.05 1148.95 L1943.59 1170.76 L1923.13 1197.38 L1902.68 1222.86 L1882.22 1223.92 L1861.76 1207.81 L1841.3 1176.36 L1820.84 1114.76 L1800.39 1033.53 L1779.93 939.289 L1759.47 844.106 L1739.01 688.639 L1718.55 447.994 L1698.09 403.248 L1677.64 904.946 L1657.18 1261.25 L1636.72 1281.17 L1616.26 1243.61 L1595.8 1187.95 L1575.35 1103.66 L1554.89 1072.74 L1534.43 1010.72 L1513.97 946.485 L1493.51 858.126 L1473.05 757.183 L1452.6 738.075 L1432.14 844.08 L1411.68 901.76 L1391.22 994.352 L1370.76 1052.18 L1350.31 1110.25 L1329.85 1168.88 L1309.39 1209.26 L1288.93 1242.99 L1268.47 1270.32 L1248.02 1294.8 L1227.56 1314.05 L1207.1 1329.45 L1186.64 1339.28 L1166.18 1346.74 L1145.72 1354.45 L1125.27 1360.43 L1104.81 1359.7 L1084.35 1353.4 L1063.89 1343 L1043.43 1335.85 L1022.98 1328.4 L1002.52 1309.4 L982.059 1291.81 L961.601 1276.43 L941.143 1257.63 L920.685 1214.38 L900.226 1158.15 L879.768 1077.86 L859.31 1025.52 L838.852 977.271 L818.394 916.475 L797.936 911.245 L777.477 954.712 L757.019 891.736 L736.561 787.557 L716.103 668.809 L695.645 603.975 L675.187 623.756 L654.728 741.345 L634.27 1048.31 L613.812 1232.49 L593.354 1332.02 L572.896 1373.04 L552.438 1393.34 L531.979 1405.83 L511.521 1411.14 L491.063 1416.8 L470.605 1417.55 L450.147 1416.39 L429.689 1416.38 L409.23 1412.3 L388.772 1409.35 L368.314 1405.01 L347.856 1402.13 L327.398 1393.65 L306.94 1385.13 L286.481 1371.68 L266.023 1354.42 L245.565 1337.04  Z" fill="#e26f46" fill-rule="evenodd" fill-opacity="0.5"/>
<polyline clip-path="url(#clip382)" style="stroke:#e26f46; stroke-linecap:round; stroke-linejoin:round; stroke-width:12; stroke-opacity:1; fill:none" points="245.565,1337.04 266.023,1357.92 286.481,1375.02 306.94,1388.19 327.398,1399.15 347.856,1406.63 368.314,1412.49 388.772,1418.07 409.23,1420.85 429.689,1424.12 450.147,1424.57 470.605,1424.56 491.063,1421.78 511.521,1419.76 531.979,1414.92 552.438,1406.53 572.896,1393.49 593.354,1370.64 613.812,1339.96 634.27,1291.61 654.728,1212.72 675.187,1120.4 695.645,1038.6 716.103,1017.1 736.561,996.169 757.019,1001.9 777.477,1017.42 797.936,1086.76 818.394,1124.68 838.852,1171.7 859.31,1216.84 879.768,1255.24 900.226,1297.17 920.685,1319.89 941.143,1348.41 961.601,1357.8 982.059,1366.44 1002.52,1374.88 1022.98,1384.02 1043.43,1397.76 1063.89,1406.54 1084.35,1409.87 1104.81,1413.55 1125.27,1414.7 1145.72,1414.25 1166.18,1412.74 1186.64,1412.32 1207.1,1406.03 1227.56,1397.58 1248.02,1385.3 1268.47,1369.42 1288.93,1339.15 1309.39,1293.1 1329.85,1228.45 1350.31,1179.32 1370.76,1122.78 1391.22,1070.63 1411.68,1045.09 1432.14,1051.5 1452.6,1058.95 1473.05,1098.1 1493.51,1138.3 1513.97,1186.77 1534.43,1224.94 1554.89,1260.16 1575.35,1292.75 1595.8,1315.11 1616.26,1340.94 1636.72,1361.69 1657.18,1362.02 1677.64,1373.06 1698.09,1382.94 1718.55,1394.26 1739.01,1397.59 1759.47,1400.39 1779.93,1405.88 1800.39,1413.72 1820.84,1418.41 1841.3,1416.9 1861.76,1412.64 1882.22,1405.77 1902.68,1401.5 1923.13,1383.72 1943.59,1390.56 1964.05,1394.58 1984.51,1380.81 2004.97,1346.06 2025.43,1290.61 2045.88,1234.78 2066.34,1105.97 2086.8,1116.52 2107.26,1153.07 2127.72,1204.75 2148.17,1213.49 2168.63,1251.44 2189.09,1295.66 2209.55,1309.51 2230.01,1318.6 2250.47,1300.01 2270.92,1298.31 2291.38,1316.8 "/>
</svg>
