<?xml version="1.0" encoding="utf-8"?>
<svg xmlns="http://www.w3.org/2000/svg" xmlns:xlink="http://www.w3.org/1999/xlink" width="600" height="400" viewBox="0 0 2400 1600">
<defs>
  <clipPath id="clip730">
    <rect x="0" y="0" width="2400" height="1600"/>
  </clipPath>
</defs>
<path clip-path="url(#clip730)" d="M0 1600 L2400 1600 L2400 0 L0 0  Z" fill="#ffffff" fill-rule="evenodd" fill-opacity="1"/>
<defs>
  <clipPath id="clip731">
    <rect x="155" y="47" width="2198" height="1440"/>
  </clipPath>
</defs>
<path clip-path="url(#clip730)" d="M155.765 1486.45 L2352.76 1486.45 L2352.76 47.2441 L155.765 47.2441  Z" fill="#ffffff" fill-rule="evenodd" fill-opacity="1"/>
<polyline clip-path="url(#clip731)" style="stroke:#000000; stroke-linecap:round; stroke-linejoin:round; stroke-width:2; stroke-opacity:0.1; fill:none" points="217.944,1486.45 217.944,47.2441 "/>
<polyline clip-path="url(#clip731)" style="stroke:#000000; stroke-linecap:round; stroke-linejoin:round; stroke-width:2; stroke-opacity:0.1; fill:none" points="736.102,1486.45 736.102,47.2441 "/>
<polyline clip-path="url(#clip731)" style="stroke:#000000; stroke-linecap:round; stroke-linejoin:round; stroke-width:2; stroke-opacity:0.1; fill:none" points="1254.26,1486.45 1254.26,47.2441 "/>
<polyline clip-path="url(#clip731)" style="stroke:#000000; stroke-linecap:round; stroke-linejoin:round; stroke-width:2; stroke-opacity:0.1; fill:none" points="1772.42,1486.45 1772.42,47.2441 "/>
<polyline clip-path="url(#clip731)" style="stroke:#000000; stroke-linecap:round; stroke-linejoin:round; stroke-width:2; stroke-opacity:0.1; fill:none" points="2290.58,1486.45 2290.58,47.2441 "/>
<polyline clip-path="url(#clip731)" style="stroke:#000000; stroke-linecap:round; stroke-linejoin:round; stroke-width:2; stroke-opacity:0.1; fill:none" points="155.765,1344.23 2352.76,1344.23 "/>
<polyline clip-path="url(#clip731)" style="stroke:#000000; stroke-linecap:round; stroke-linejoin:round; stroke-width:2; stroke-opacity:0.1; fill:none" points="155.765,1094.08 2352.76,1094.08 "/>
<polyline clip-path="url(#clip731)" style="stroke:#000000; stroke-linecap:round; stroke-linejoin:round; stroke-width:2; stroke-opacity:0.1; fill:none" points="155.765,843.934 2352.76,843.934 "/>
<polyline clip-path="url(#clip731)" style="stroke:#000000; stroke-linecap:round; stroke-linejoin:round; stroke-width:2; stroke-opacity:0.1; fill:none" points="155.765,593.786 2352.76,593.786 "/>
<polyline clip-path="url(#clip731)" style="stroke:#000000; stroke-linecap:round; stroke-linejoin:round; stroke-width:2; stroke-opacity:0.1; fill:none" points="155.765,343.639 2352.76,343.639 "/>
<polyline clip-path="url(#clip731)" style="stroke:#000000; stroke-linecap:round; stroke-linejoin:round; stroke-width:2; stroke-opacity:0.1; fill:none" points="155.765,93.4911 2352.76,93.4911 "/>
<polyline clip-path="url(#clip730)" style="stroke:#000000; stroke-linecap:round; stroke-linejoin:round; stroke-width:4; stroke-opacity:1; fill:none" points="155.765,1486.45 2352.76,1486.45 "/>
<polyline clip-path="url(#clip730)" style="stroke:#000000; stroke-linecap:round; stroke-linejoin:round; stroke-width:4; stroke-opacity:1; fill:none" points="217.944,1486.45 217.944,1467.55 "/>
<polyline clip-path="url(#clip730)" style="stroke:#000000; stroke-linecap:round; stroke-linejoin:round; stroke-width:4; stroke-opacity:1; fill:none" points="736.102,1486.45 736.102,1467.55 "/>
<polyline clip-path="url(#clip730)" style="stroke:#000000; stroke-linecap:round; stroke-linejoin:round; stroke-width:4; stroke-opacity:1; fill:none" points="1254.26,1486.45 1254.26,1467.55 "/>
<polyline clip-path="url(#clip730)" style="stroke:#000000; stroke-linecap:round; stroke-linejoin:round; stroke-width:4; stroke-opacity:1; fill:none" points="1772.42,1486.45 1772.42,1467.55 "/>
<polyline clip-path="url(#clip730)" style="stroke:#000000; stroke-linecap:round; stroke-linejoin:round; stroke-width:4; stroke-opacity:1; fill:none" points="2290.58,1486.45 2290.58,1467.55 "/>
<path clip-path="url(#clip730)" d="M180.247 1517.37 Q176.636 1517.37 174.808 1520.93 Q173.002 1524.47 173.002 1531.6 Q173.002 1538.71 174.808 1542.27 Q176.636 1545.82 180.247 1545.82 Q183.882 1545.82 185.687 1542.27 Q187.516 1538.71 187.516 1531.6 Q187.516 1524.47 185.687 1520.93 Q183.882 1517.37 180.247 1517.37 M180.247 1513.66 Q186.057 1513.66 189.113 1518.27 Q192.192 1522.85 192.192 1531.6 Q192.192 1540.33 189.113 1544.94 Q186.057 1549.52 180.247 1549.52 Q174.437 1549.52 171.358 1544.94 Q168.303 1540.33 168.303 1531.6 Q168.303 1522.85 171.358 1518.27 Q174.437 1513.66 180.247 1513.66 Z" fill="#000000" fill-rule="nonzero" fill-opacity="1" /><path clip-path="url(#clip730)" d="M200.409 1542.97 L205.294 1542.97 L205.294 1548.85 L200.409 1548.85 L200.409 1542.97 Z" fill="#000000" fill-rule="nonzero" fill-opacity="1" /><path clip-path="url(#clip730)" d="M225.479 1517.37 Q221.867 1517.37 220.039 1520.93 Q218.233 1524.47 218.233 1531.6 Q218.233 1538.71 220.039 1542.27 Q221.867 1545.82 225.479 1545.82 Q229.113 1545.82 230.918 1542.27 Q232.747 1538.71 232.747 1531.6 Q232.747 1524.47 230.918 1520.93 Q229.113 1517.37 225.479 1517.37 M225.479 1513.66 Q231.289 1513.66 234.344 1518.27 Q237.423 1522.85 237.423 1531.6 Q237.423 1540.33 234.344 1544.94 Q231.289 1549.52 225.479 1549.52 Q219.668 1549.52 216.59 1544.94 Q213.534 1540.33 213.534 1531.6 Q213.534 1522.85 216.59 1518.27 Q219.668 1513.66 225.479 1513.66 Z" fill="#000000" fill-rule="nonzero" fill-opacity="1" /><path clip-path="url(#clip730)" d="M255.64 1517.37 Q252.029 1517.37 250.201 1520.93 Q248.395 1524.47 248.395 1531.6 Q248.395 1538.71 250.201 1542.27 Q252.029 1545.82 255.64 1545.82 Q259.275 1545.82 261.08 1542.27 Q262.909 1538.71 262.909 1531.6 Q262.909 1524.47 261.08 1520.93 Q259.275 1517.37 255.64 1517.37 M255.64 1513.66 Q261.451 1513.66 264.506 1518.27 Q267.585 1522.85 267.585 1531.6 Q267.585 1540.33 264.506 1544.94 Q261.451 1549.52 255.64 1549.52 Q249.83 1549.52 246.752 1544.94 Q243.696 1540.33 243.696 1531.6 Q243.696 1522.85 246.752 1518.27 Q249.83 1513.66 255.64 1513.66 Z" fill="#000000" fill-rule="nonzero" fill-opacity="1" /><path clip-path="url(#clip730)" d="M698.903 1517.37 Q695.292 1517.37 693.463 1520.93 Q691.658 1524.47 691.658 1531.6 Q691.658 1538.71 693.463 1542.27 Q695.292 1545.82 698.903 1545.82 Q702.538 1545.82 704.343 1542.27 Q706.172 1538.71 706.172 1531.6 Q706.172 1524.47 704.343 1520.93 Q702.538 1517.37 698.903 1517.37 M698.903 1513.66 Q704.713 1513.66 707.769 1518.27 Q710.848 1522.85 710.848 1531.6 Q710.848 1540.33 707.769 1544.94 Q704.713 1549.52 698.903 1549.52 Q693.093 1549.52 690.014 1544.94 Q686.959 1540.33 686.959 1531.6 Q686.959 1522.85 690.014 1518.27 Q693.093 1513.66 698.903 1513.66 Z" fill="#000000" fill-rule="nonzero" fill-opacity="1" /><path clip-path="url(#clip730)" d="M719.065 1542.97 L723.949 1542.97 L723.949 1548.85 L719.065 1548.85 L719.065 1542.97 Z" fill="#000000" fill-rule="nonzero" fill-opacity="1" /><path clip-path="url(#clip730)" d="M738.162 1544.91 L754.482 1544.91 L754.482 1548.85 L732.537 1548.85 L732.537 1544.91 Q735.199 1542.16 739.783 1537.53 Q744.389 1532.88 745.57 1531.53 Q747.815 1529.01 748.695 1527.27 Q749.597 1525.51 749.597 1523.82 Q749.597 1521.07 747.653 1519.33 Q745.732 1517.6 742.63 1517.6 Q740.431 1517.6 737.977 1518.36 Q735.547 1519.13 732.769 1520.68 L732.769 1515.95 Q735.593 1514.82 738.047 1514.24 Q740.5 1513.66 742.537 1513.66 Q747.908 1513.66 751.102 1516.35 Q754.296 1519.03 754.296 1523.52 Q754.296 1525.65 753.486 1527.57 Q752.699 1529.47 750.593 1532.07 Q750.014 1532.74 746.912 1535.95 Q743.81 1539.15 738.162 1544.91 Z" fill="#000000" fill-rule="nonzero" fill-opacity="1" /><path clip-path="url(#clip730)" d="M764.343 1514.29 L782.699 1514.29 L782.699 1518.22 L768.625 1518.22 L768.625 1526.7 Q769.644 1526.35 770.662 1526.19 Q771.681 1526 772.699 1526 Q778.486 1526 781.866 1529.17 Q785.245 1532.34 785.245 1537.76 Q785.245 1543.34 781.773 1546.44 Q778.301 1549.52 771.982 1549.52 Q769.806 1549.52 767.537 1549.15 Q765.292 1548.78 762.884 1548.04 L762.884 1543.34 Q764.968 1544.47 767.19 1545.03 Q769.412 1545.58 771.889 1545.58 Q775.894 1545.58 778.232 1543.48 Q780.57 1541.37 780.57 1537.76 Q780.57 1534.15 778.232 1532.04 Q775.894 1529.94 771.889 1529.94 Q770.014 1529.94 768.139 1530.35 Q766.287 1530.77 764.343 1531.65 L764.343 1514.29 Z" fill="#000000" fill-rule="nonzero" fill-opacity="1" /><path clip-path="url(#clip730)" d="M1216.56 1517.37 Q1212.95 1517.37 1211.12 1520.93 Q1209.32 1524.47 1209.32 1531.6 Q1209.32 1538.71 1211.12 1542.27 Q1212.95 1545.82 1216.56 1545.82 Q1220.2 1545.82 1222 1542.27 Q1223.83 1538.71 1223.83 1531.6 Q1223.83 1524.47 1222 1520.93 Q1220.2 1517.37 1216.56 1517.37 M1216.56 1513.66 Q1222.37 1513.66 1225.43 1518.27 Q1228.51 1522.85 1228.51 1531.6 Q1228.51 1540.33 1225.43 1544.94 Q1222.37 1549.52 1216.56 1549.52 Q1210.75 1549.52 1207.68 1544.94 Q1204.62 1540.33 1204.62 1531.6 Q1204.62 1522.85 1207.68 1518.27 Q1210.75 1513.66 1216.56 1513.66 Z" fill="#000000" fill-rule="nonzero" fill-opacity="1" /><path clip-path="url(#clip730)" d="M1236.73 1542.97 L1241.61 1542.97 L1241.61 1548.85 L1236.73 1548.85 L1236.73 1542.97 Z" fill="#000000" fill-rule="nonzero" fill-opacity="1" /><path clip-path="url(#clip730)" d="M1251.84 1514.29 L1270.2 1514.29 L1270.2 1518.22 L1256.12 1518.22 L1256.12 1526.7 Q1257.14 1526.35 1258.16 1526.19 Q1259.18 1526 1260.2 1526 Q1265.98 1526 1269.36 1529.17 Q1272.74 1532.34 1272.74 1537.76 Q1272.74 1543.34 1269.27 1546.44 Q1265.8 1549.52 1259.48 1549.52 Q1257.3 1549.52 1255.04 1549.15 Q1252.79 1548.78 1250.38 1548.04 L1250.38 1543.34 Q1252.47 1544.47 1254.69 1545.03 Q1256.91 1545.58 1259.39 1545.58 Q1263.39 1545.58 1265.73 1543.48 Q1268.07 1541.37 1268.07 1537.76 Q1268.07 1534.15 1265.73 1532.04 Q1263.39 1529.94 1259.39 1529.94 Q1257.51 1529.94 1255.64 1530.35 Q1253.79 1530.77 1251.84 1531.65 L1251.84 1514.29 Z" fill="#000000" fill-rule="nonzero" fill-opacity="1" /><path clip-path="url(#clip730)" d="M1291.96 1517.37 Q1288.35 1517.37 1286.52 1520.93 Q1284.71 1524.47 1284.71 1531.6 Q1284.71 1538.71 1286.52 1542.27 Q1288.35 1545.82 1291.96 1545.82 Q1295.59 1545.82 1297.4 1542.27 Q1299.23 1538.71 1299.23 1531.6 Q1299.23 1524.47 1297.4 1520.93 Q1295.59 1517.37 1291.96 1517.37 M1291.96 1513.66 Q1297.77 1513.66 1300.82 1518.27 Q1303.9 1522.85 1303.9 1531.6 Q1303.9 1540.33 1300.82 1544.94 Q1297.77 1549.52 1291.96 1549.52 Q1286.15 1549.52 1283.07 1544.94 Q1280.01 1540.33 1280.01 1531.6 Q1280.01 1522.85 1283.07 1518.27 Q1286.15 1513.66 1291.96 1513.66 Z" fill="#000000" fill-rule="nonzero" fill-opacity="1" /><path clip-path="url(#clip730)" d="M1735.22 1517.37 Q1731.61 1517.37 1729.78 1520.93 Q1727.97 1524.47 1727.97 1531.6 Q1727.97 1538.71 1729.78 1542.27 Q1731.61 1545.82 1735.22 1545.82 Q1738.85 1545.82 1740.66 1542.27 Q1742.49 1538.71 1742.49 1531.6 Q1742.49 1524.47 1740.66 1520.93 Q1738.85 1517.37 1735.22 1517.37 M1735.22 1513.66 Q1741.03 1513.66 1744.09 1518.27 Q1747.16 1522.85 1747.16 1531.6 Q1747.16 1540.33 1744.09 1544.94 Q1741.03 1549.52 1735.22 1549.52 Q1729.41 1549.52 1726.33 1544.94 Q1723.28 1540.33 1723.28 1531.6 Q1723.28 1522.85 1726.33 1518.27 Q1729.41 1513.66 1735.22 1513.66 Z" fill="#000000" fill-rule="nonzero" fill-opacity="1" /><path clip-path="url(#clip730)" d="M1755.38 1542.97 L1760.27 1542.97 L1760.27 1548.85 L1755.38 1548.85 L1755.38 1542.97 Z" fill="#000000" fill-rule="nonzero" fill-opacity="1" /><path clip-path="url(#clip730)" d="M1769.27 1514.29 L1791.49 1514.29 L1791.49 1516.28 L1778.95 1548.85 L1774.06 1548.85 L1785.87 1518.22 L1769.27 1518.22 L1769.27 1514.29 Z" fill="#000000" fill-rule="nonzero" fill-opacity="1" /><path clip-path="url(#clip730)" d="M1800.66 1514.29 L1819.02 1514.29 L1819.02 1518.22 L1804.94 1518.22 L1804.94 1526.7 Q1805.96 1526.35 1806.98 1526.19 Q1808 1526 1809.02 1526 Q1814.8 1526 1818.18 1529.17 Q1821.56 1532.34 1821.56 1537.76 Q1821.56 1543.34 1818.09 1546.44 Q1814.62 1549.52 1808.3 1549.52 Q1806.12 1549.52 1803.85 1549.15 Q1801.61 1548.78 1799.2 1548.04 L1799.2 1543.34 Q1801.28 1544.47 1803.51 1545.03 Q1805.73 1545.58 1808.21 1545.58 Q1812.21 1545.58 1814.55 1543.48 Q1816.89 1541.37 1816.89 1537.76 Q1816.89 1534.15 1814.55 1532.04 Q1812.21 1529.94 1808.21 1529.94 Q1806.33 1529.94 1804.46 1530.35 Q1802.6 1530.77 1800.66 1531.65 L1800.66 1514.29 Z" fill="#000000" fill-rule="nonzero" fill-opacity="1" /><path clip-path="url(#clip730)" d="M2242.65 1544.91 L2250.29 1544.91 L2250.29 1518.55 L2241.98 1520.21 L2241.98 1515.95 L2250.24 1514.29 L2254.92 1514.29 L2254.92 1544.91 L2262.56 1544.91 L2262.56 1548.85 L2242.65 1548.85 L2242.65 1544.91 Z" fill="#000000" fill-rule="nonzero" fill-opacity="1" /><path clip-path="url(#clip730)" d="M2272 1542.97 L2276.88 1542.97 L2276.88 1548.85 L2272 1548.85 L2272 1542.97 Z" fill="#000000" fill-rule="nonzero" fill-opacity="1" /><path clip-path="url(#clip730)" d="M2297.07 1517.37 Q2293.46 1517.37 2291.63 1520.93 Q2289.82 1524.47 2289.82 1531.6 Q2289.82 1538.71 2291.63 1542.27 Q2293.46 1545.82 2297.07 1545.82 Q2300.7 1545.82 2302.51 1542.27 Q2304.34 1538.71 2304.34 1531.6 Q2304.34 1524.47 2302.51 1520.93 Q2300.7 1517.37 2297.07 1517.37 M2297.07 1513.66 Q2302.88 1513.66 2305.94 1518.27 Q2309.01 1522.85 2309.01 1531.6 Q2309.01 1540.33 2305.94 1544.94 Q2302.88 1549.52 2297.07 1549.52 Q2291.26 1549.52 2288.18 1544.94 Q2285.13 1540.33 2285.13 1531.6 Q2285.13 1522.85 2288.18 1518.27 Q2291.26 1513.66 2297.07 1513.66 Z" fill="#000000" fill-rule="nonzero" fill-opacity="1" /><path clip-path="url(#clip730)" d="M2327.23 1517.37 Q2323.62 1517.37 2321.79 1520.93 Q2319.99 1524.47 2319.99 1531.6 Q2319.99 1538.71 2321.79 1542.27 Q2323.62 1545.82 2327.23 1545.82 Q2330.87 1545.82 2332.67 1542.27 Q2334.5 1538.71 2334.5 1531.6 Q2334.5 1524.47 2332.67 1520.93 Q2330.87 1517.37 2327.23 1517.37 M2327.23 1513.66 Q2333.04 1513.66 2336.1 1518.27 Q2339.18 1522.85 2339.18 1531.6 Q2339.18 1540.33 2336.1 1544.94 Q2333.04 1549.52 2327.23 1549.52 Q2321.42 1549.52 2318.34 1544.94 Q2315.29 1540.33 2315.29 1531.6 Q2315.29 1522.85 2318.34 1518.27 Q2321.42 1513.66 2327.23 1513.66 Z" fill="#000000" fill-rule="nonzero" fill-opacity="1" /><polyline clip-path="url(#clip730)" style="stroke:#000000; stroke-linecap:round; stroke-linejoin:round; stroke-width:4; stroke-opacity:1; fill:none" points="155.765,1486.45 155.765,47.2441 "/>
<polyline clip-path="url(#clip730)" style="stroke:#000000; stroke-linecap:round; stroke-linejoin:round; stroke-width:4; stroke-opacity:1; fill:none" points="155.765,1344.23 174.663,1344.23 "/>
<polyline clip-path="url(#clip730)" style="stroke:#000000; stroke-linecap:round; stroke-linejoin:round; stroke-width:4; stroke-opacity:1; fill:none" points="155.765,1094.08 174.663,1094.08 "/>
<polyline clip-path="url(#clip730)" style="stroke:#000000; stroke-linecap:round; stroke-linejoin:round; stroke-width:4; stroke-opacity:1; fill:none" points="155.765,843.934 174.663,843.934 "/>
<polyline clip-path="url(#clip730)" style="stroke:#000000; stroke-linecap:round; stroke-linejoin:round; stroke-width:4; stroke-opacity:1; fill:none" points="155.765,593.786 174.663,593.786 "/>
<polyline clip-path="url(#clip730)" style="stroke:#000000; stroke-linecap:round; stroke-linejoin:round; stroke-width:4; stroke-opacity:1; fill:none" points="155.765,343.639 174.663,343.639 "/>
<polyline clip-path="url(#clip730)" style="stroke:#000000; stroke-linecap:round; stroke-linejoin:round; stroke-width:4; stroke-opacity:1; fill:none" points="155.765,93.4911 174.663,93.4911 "/>
<path clip-path="url(#clip730)" d="M63.5847 1330.03 Q59.9736 1330.03 58.1449 1333.59 Q56.3393 1337.13 56.3393 1344.26 Q56.3393 1351.37 58.1449 1354.94 Q59.9736 1358.48 63.5847 1358.48 Q67.2189 1358.48 69.0244 1354.94 Q70.8531 1351.37 70.8531 1344.26 Q70.8531 1337.13 69.0244 1333.59 Q67.2189 1330.03 63.5847 1330.03 M63.5847 1326.32 Q69.3948 1326.32 72.4503 1330.93 Q75.529 1335.51 75.529 1344.26 Q75.529 1352.99 72.4503 1357.6 Q69.3948 1362.18 63.5847 1362.18 Q57.7745 1362.18 54.6958 1357.6 Q51.6403 1352.99 51.6403 1344.26 Q51.6403 1335.51 54.6958 1330.93 Q57.7745 1326.32 63.5847 1326.32 Z" fill="#000000" fill-rule="nonzero" fill-opacity="1" /><path clip-path="url(#clip730)" d="M83.7466 1355.63 L88.6308 1355.63 L88.6308 1361.51 L83.7466 1361.51 L83.7466 1355.63 Z" fill="#000000" fill-rule="nonzero" fill-opacity="1" /><path clip-path="url(#clip730)" d="M98.8622 1326.95 L117.219 1326.95 L117.219 1330.88 L103.145 1330.88 L103.145 1339.36 Q104.163 1339.01 105.182 1338.85 Q106.2 1338.66 107.219 1338.66 Q113.006 1338.66 116.385 1341.83 Q119.765 1345.01 119.765 1350.42 Q119.765 1356 116.293 1359.1 Q112.82 1362.18 106.501 1362.18 Q104.325 1362.18 102.057 1361.81 Q99.8113 1361.44 97.4039 1360.7 L97.4039 1356 Q99.4872 1357.13 101.709 1357.69 Q103.932 1358.25 106.408 1358.25 Q110.413 1358.25 112.751 1356.14 Q115.089 1354.03 115.089 1350.42 Q115.089 1346.81 112.751 1344.7 Q110.413 1342.6 106.408 1342.6 Q104.534 1342.6 102.659 1343.01 Q100.807 1343.43 98.8622 1344.31 L98.8622 1326.95 Z" fill="#000000" fill-rule="nonzero" fill-opacity="1" /><path clip-path="url(#clip730)" d="M53.3995 1107.43 L61.0384 1107.43 L61.0384 1081.06 L52.7282 1082.73 L52.7282 1078.47 L60.9921 1076.8 L65.668 1076.8 L65.668 1107.43 L73.3068 1107.43 L73.3068 1111.36 L53.3995 1111.36 L53.3995 1107.43 Z" fill="#000000" fill-rule="nonzero" fill-opacity="1" /><path clip-path="url(#clip730)" d="M82.7512 1105.48 L87.6354 1105.48 L87.6354 1111.36 L82.7512 1111.36 L82.7512 1105.48 Z" fill="#000000" fill-rule="nonzero" fill-opacity="1" /><path clip-path="url(#clip730)" d="M107.821 1079.88 Q104.209 1079.88 102.381 1083.45 Q100.575 1086.99 100.575 1094.12 Q100.575 1101.22 102.381 1104.79 Q104.209 1108.33 107.821 1108.33 Q111.455 1108.33 113.26 1104.79 Q115.089 1101.22 115.089 1094.12 Q115.089 1086.99 113.26 1083.45 Q111.455 1079.88 107.821 1079.88 M107.821 1076.18 Q113.631 1076.18 116.686 1080.78 Q119.765 1085.37 119.765 1094.12 Q119.765 1102.84 116.686 1107.45 Q113.631 1112.03 107.821 1112.03 Q102.01 1112.03 98.9317 1107.45 Q95.8761 1102.84 95.8761 1094.12 Q95.8761 1085.37 98.9317 1080.78 Q102.01 1076.18 107.821 1076.18 Z" fill="#000000" fill-rule="nonzero" fill-opacity="1" /><path clip-path="url(#clip730)" d="M54.3949 857.279 L62.0337 857.279 L62.0337 830.913 L53.7236 832.58 L53.7236 828.321 L61.9874 826.654 L66.6633 826.654 L66.6633 857.279 L74.3022 857.279 L74.3022 861.214 L54.3949 861.214 L54.3949 857.279 Z" fill="#000000" fill-rule="nonzero" fill-opacity="1" /><path clip-path="url(#clip730)" d="M83.7466 855.335 L88.6308 855.335 L88.6308 861.214 L83.7466 861.214 L83.7466 855.335 Z" fill="#000000" fill-rule="nonzero" fill-opacity="1" /><path clip-path="url(#clip730)" d="M98.8622 826.654 L117.219 826.654 L117.219 830.589 L103.145 830.589 L103.145 839.062 Q104.163 838.714 105.182 838.552 Q106.2 838.367 107.219 838.367 Q113.006 838.367 116.385 841.538 Q119.765 844.71 119.765 850.126 Q119.765 855.705 116.293 858.807 Q112.82 861.885 106.501 861.885 Q104.325 861.885 102.057 861.515 Q99.8113 861.145 97.4039 860.404 L97.4039 855.705 Q99.4872 856.839 101.709 857.395 Q103.932 857.95 106.408 857.95 Q110.413 857.95 112.751 855.844 Q115.089 853.737 115.089 850.126 Q115.089 846.515 112.751 844.409 Q110.413 842.302 106.408 842.302 Q104.534 842.302 102.659 842.719 Q100.807 843.136 98.8622 844.015 L98.8622 826.654 Z" fill="#000000" fill-rule="nonzero" fill-opacity="1" /><path clip-path="url(#clip730)" d="M56.6171 607.131 L72.9365 607.131 L72.9365 611.066 L50.9921 611.066 L50.9921 607.131 Q53.6541 604.377 58.2375 599.747 Q62.8439 595.094 64.0245 593.752 Q66.2698 591.229 67.1494 589.493 Q68.0522 587.733 68.0522 586.043 Q68.0522 583.289 66.1078 581.553 Q64.1865 579.817 61.0847 579.817 Q58.8856 579.817 56.4319 580.581 Q54.0014 581.344 51.2236 582.895 L51.2236 578.173 Q54.0477 577.039 56.5014 576.46 Q58.955 575.881 60.9921 575.881 Q66.3624 575.881 69.5568 578.567 Q72.7513 581.252 72.7513 585.743 Q72.7513 587.872 71.9411 589.793 Q71.1541 591.692 69.0476 594.284 Q68.4689 594.955 65.367 598.173 Q62.2652 601.367 56.6171 607.131 Z" fill="#000000" fill-rule="nonzero" fill-opacity="1" /><path clip-path="url(#clip730)" d="M82.7512 605.187 L87.6354 605.187 L87.6354 611.066 L82.7512 611.066 L82.7512 605.187 Z" fill="#000000" fill-rule="nonzero" fill-opacity="1" /><path clip-path="url(#clip730)" d="M107.821 579.585 Q104.209 579.585 102.381 583.15 Q100.575 586.692 100.575 593.821 Q100.575 600.928 102.381 604.492 Q104.209 608.034 107.821 608.034 Q111.455 608.034 113.26 604.492 Q115.089 600.928 115.089 593.821 Q115.089 586.692 113.26 583.15 Q111.455 579.585 107.821 579.585 M107.821 575.881 Q113.631 575.881 116.686 580.488 Q119.765 585.071 119.765 593.821 Q119.765 602.548 116.686 607.154 Q113.631 611.738 107.821 611.738 Q102.01 611.738 98.9317 607.154 Q95.8761 602.548 95.8761 593.821 Q95.8761 585.071 98.9317 580.488 Q102.01 575.881 107.821 575.881 Z" fill="#000000" fill-rule="nonzero" fill-opacity="1" /><path clip-path="url(#clip730)" d="M57.6125 356.984 L73.9318 356.984 L73.9318 360.919 L51.9875 360.919 L51.9875 356.984 Q54.6495 354.229 59.2328 349.599 Q63.8393 344.947 65.0198 343.604 Q67.2652 341.081 68.1448 339.345 Q69.0476 337.586 69.0476 335.896 Q69.0476 333.141 67.1032 331.405 Q65.1819 329.669 62.08 329.669 Q59.881 329.669 57.4273 330.433 Q54.9967 331.197 52.219 332.748 L52.219 328.025 Q55.043 326.891 57.4967 326.312 Q59.9504 325.734 61.9874 325.734 Q67.3578 325.734 70.5522 328.419 Q73.7466 331.104 73.7466 335.595 Q73.7466 337.724 72.9365 339.646 Q72.1494 341.544 70.0429 344.136 Q69.4642 344.808 66.3624 348.025 Q63.2606 351.22 57.6125 356.984 Z" fill="#000000" fill-rule="nonzero" fill-opacity="1" /><path clip-path="url(#clip730)" d="M83.7466 355.039 L88.6308 355.039 L88.6308 360.919 L83.7466 360.919 L83.7466 355.039 Z" fill="#000000" fill-rule="nonzero" fill-opacity="1" /><path clip-path="url(#clip730)" d="M98.8622 326.359 L117.219 326.359 L117.219 330.294 L103.145 330.294 L103.145 338.766 Q104.163 338.419 105.182 338.257 Q106.2 338.072 107.219 338.072 Q113.006 338.072 116.385 341.243 Q119.765 344.414 119.765 349.831 Q119.765 355.41 116.293 358.511 Q112.82 361.59 106.501 361.59 Q104.325 361.59 102.057 361.22 Q99.8113 360.849 97.4039 360.109 L97.4039 355.41 Q99.4872 356.544 101.709 357.099 Q103.932 357.655 106.408 357.655 Q110.413 357.655 112.751 355.548 Q115.089 353.442 115.089 349.831 Q115.089 346.22 112.751 344.113 Q110.413 342.007 106.408 342.007 Q104.534 342.007 102.659 342.424 Q100.807 342.84 98.8622 343.72 L98.8622 326.359 Z" fill="#000000" fill-rule="nonzero" fill-opacity="1" /><path clip-path="url(#clip730)" d="M66.7559 92.1369 Q70.1124 92.8545 71.9874 95.123 Q73.8855 97.3915 73.8855 100.725 Q73.8855 105.841 70.367 108.641 Q66.8485 111.442 60.3671 111.442 Q58.1912 111.442 55.8764 111.003 Q53.5847 110.586 51.131 109.729 L51.131 105.216 Q53.0754 106.35 55.3903 106.929 Q57.7051 107.507 60.2282 107.507 Q64.6263 107.507 66.918 105.771 Q69.2328 104.035 69.2328 100.725 Q69.2328 97.6693 67.08 95.9563 Q64.9504 94.2202 61.131 94.2202 L57.1032 94.2202 L57.1032 90.3777 L61.3161 90.3777 Q64.7652 90.3777 66.5939 89.0119 Q68.4226 87.6231 68.4226 85.0305 Q68.4226 82.3685 66.5245 80.9564 Q64.6495 79.5213 61.131 79.5213 Q59.2097 79.5213 57.0106 79.9379 Q54.8115 80.3546 52.1727 81.2342 L52.1727 77.0676 Q54.8347 76.3268 57.1495 75.9565 Q59.4875 75.5861 61.5476 75.5861 Q66.8717 75.5861 69.9735 78.0166 Q73.0753 80.424 73.0753 84.5444 Q73.0753 87.4147 71.4318 89.4055 Q69.7883 91.373 66.7559 92.1369 Z" fill="#000000" fill-rule="nonzero" fill-opacity="1" /><path clip-path="url(#clip730)" d="M82.7512 104.891 L87.6354 104.891 L87.6354 110.771 L82.7512 110.771 L82.7512 104.891 Z" fill="#000000" fill-rule="nonzero" fill-opacity="1" /><path clip-path="url(#clip730)" d="M107.821 79.2898 Q104.209 79.2898 102.381 82.8546 Q100.575 86.3962 100.575 93.5258 Q100.575 100.632 102.381 104.197 Q104.209 107.739 107.821 107.739 Q111.455 107.739 113.26 104.197 Q115.089 100.632 115.089 93.5258 Q115.089 86.3962 113.26 82.8546 Q111.455 79.2898 107.821 79.2898 M107.821 75.5861 Q113.631 75.5861 116.686 80.1925 Q119.765 84.7759 119.765 93.5258 Q119.765 102.253 116.686 106.859 Q113.631 111.442 107.821 111.442 Q102.01 111.442 98.9317 106.859 Q95.8761 102.253 95.8761 93.5258 Q95.8761 84.7759 98.9317 80.1925 Q102.01 75.5861 107.821 75.5861 Z" fill="#000000" fill-rule="nonzero" fill-opacity="1" /><path clip-path="url(#clip731)" d="M217.944 1344.23 L425.207 1422.26 L632.47 1445.72 L839.734 1418.08 L1047 1365.74 L1254.26 1355.17 L1461.52 1374.84 L1668.79 1323.86 L1876.05 1331.54 L2083.31 1373.97 L2290.58 1379.37 L2290.58 87.9763 L2083.31 364.417 L1876.05 514.307 L1668.79 704.469 L1461.52 838.994 L1254.26 897.183 L1047 959.552 L839.734 1056.14 L632.47 1151.05 L425.207 1275.48 L217.944 1344.23  Z" fill="#009af9" fill-rule="evenodd" fill-opacity="0.2"/>
<polyline clip-path="url(#clip731)" style="stroke:#009af9; stroke-linecap:round; stroke-linejoin:round; stroke-width:12; stroke-opacity:1; fill:none" points="217.944,1344.23 425.207,1380.71 632.47,1322.41 839.734,1283.67 1047,1209.5 1254.26,1244.41 1461.52,1184.31 1668.79,1177.74 1876.05,1182.78 2083.31,1150.9 2290.58,1027.73 "/>
</svg>
