<?xml version="1.0" encoding="utf-8"?>
<svg xmlns="http://www.w3.org/2000/svg" xmlns:xlink="http://www.w3.org/1999/xlink" width="600" height="400" viewBox="0 0 2400 1600">
<defs>
  <clipPath id="clip790">
    <rect x="0" y="0" width="2400" height="1600"/>
  </clipPath>
</defs>
<path clip-path="url(#clip790)" d="M0 1600 L2400 1600 L2400 0 L0 0  Z" fill="#ffffff" fill-rule="evenodd" fill-opacity="1"/>
<defs>
  <clipPath id="clip791">
    <rect x="155" y="47" width="2198" height="1440"/>
  </clipPath>
</defs>
<path clip-path="url(#clip790)" d="M155.765 1486.45 L2352.76 1486.45 L2352.76 47.2441 L155.765 47.2441  Z" fill="#ffffff" fill-rule="evenodd" fill-opacity="1"/>
<polyline clip-path="url(#clip791)" style="stroke:#000000; stroke-linecap:round; stroke-linejoin:round; stroke-width:2; stroke-opacity:0.1; fill:none" points="217.944,1486.45 217.944,47.2441 "/>
<polyline clip-path="url(#clip791)" style="stroke:#000000; stroke-linecap:round; stroke-linejoin:round; stroke-width:2; stroke-opacity:0.1; fill:none" points="736.102,1486.45 736.102,47.2441 "/>
<polyline clip-path="url(#clip791)" style="stroke:#000000; stroke-linecap:round; stroke-linejoin:round; stroke-width:2; stroke-opacity:0.1; fill:none" points="1254.26,1486.45 1254.26,47.2441 "/>
<polyline clip-path="url(#clip791)" style="stroke:#000000; stroke-linecap:round; stroke-linejoin:round; stroke-width:2; stroke-opacity:0.1; fill:none" points="1772.42,1486.45 1772.42,47.2441 "/>
<polyline clip-path="url(#clip791)" style="stroke:#000000; stroke-linecap:round; stroke-linejoin:round; stroke-width:2; stroke-opacity:0.1; fill:none" points="2290.58,1486.45 2290.58,47.2441 "/>
<polyline clip-path="url(#clip791)" style="stroke:#000000; stroke-linecap:round; stroke-linejoin:round; stroke-width:2; stroke-opacity:0.1; fill:none" points="155.765,1357.3 2352.76,1357.3 "/>
<polyline clip-path="url(#clip791)" style="stroke:#000000; stroke-linecap:round; stroke-linejoin:round; stroke-width:2; stroke-opacity:0.1; fill:none" points="155.765,1047.66 2352.76,1047.66 "/>
<polyline clip-path="url(#clip791)" style="stroke:#000000; stroke-linecap:round; stroke-linejoin:round; stroke-width:2; stroke-opacity:0.1; fill:none" points="155.765,738.021 2352.76,738.021 "/>
<polyline clip-path="url(#clip791)" style="stroke:#000000; stroke-linecap:round; stroke-linejoin:round; stroke-width:2; stroke-opacity:0.1; fill:none" points="155.765,428.383 2352.76,428.383 "/>
<polyline clip-path="url(#clip791)" style="stroke:#000000; stroke-linecap:round; stroke-linejoin:round; stroke-width:2; stroke-opacity:0.1; fill:none" points="155.765,118.745 2352.76,118.745 "/>
<polyline clip-path="url(#clip790)" style="stroke:#000000; stroke-linecap:round; stroke-linejoin:round; stroke-width:4; stroke-opacity:1; fill:none" points="155.765,1486.45 2352.76,1486.45 "/>
<polyline clip-path="url(#clip790)" style="stroke:#000000; stroke-linecap:round; stroke-linejoin:round; stroke-width:4; stroke-opacity:1; fill:none" points="217.944,1486.45 217.944,1467.55 "/>
<polyline clip-path="url(#clip790)" style="stroke:#000000; stroke-linecap:round; stroke-linejoin:round; stroke-width:4; stroke-opacity:1; fill:none" points="736.102,1486.45 736.102,1467.55 "/>
<polyline clip-path="url(#clip790)" style="stroke:#000000; stroke-linecap:round; stroke-linejoin:round; stroke-width:4; stroke-opacity:1; fill:none" points="1254.26,1486.45 1254.26,1467.55 "/>
<polyline clip-path="url(#clip790)" style="stroke:#000000; stroke-linecap:round; stroke-linejoin:round; stroke-width:4; stroke-opacity:1; fill:none" points="1772.42,1486.45 1772.42,1467.55 "/>
<polyline clip-path="url(#clip790)" style="stroke:#000000; stroke-linecap:round; stroke-linejoin:round; stroke-width:4; stroke-opacity:1; fill:none" points="2290.58,1486.45 2290.58,1467.55 "/>
<path clip-path="url(#clip790)" d="M180.247 1517.37 Q176.636 1517.37 174.808 1520.93 Q173.002 1524.47 173.002 1531.6 Q173.002 1538.71 174.808 1542.27 Q176.636 1545.82 180.247 1545.82 Q183.882 1545.82 185.687 1542.27 Q187.516 1538.71 187.516 1531.6 Q187.516 1524.47 185.687 1520.93 Q183.882 1517.37 180.247 1517.37 M180.247 1513.66 Q186.057 1513.66 189.113 1518.27 Q192.192 1522.85 192.192 1531.6 Q192.192 1540.33 189.113 1544.94 Q186.057 1549.52 180.247 1549.52 Q174.437 1549.52 171.358 1544.94 Q168.303 1540.33 168.303 1531.6 Q168.303 1522.85 171.358 1518.27 Q174.437 1513.66 180.247 1513.66 Z" fill="#000000" fill-rule="nonzero" fill-opacity="1" /><path clip-path="url(#clip790)" d="M200.409 1542.97 L205.294 1542.97 L205.294 1548.85 L200.409 1548.85 L200.409 1542.97 Z" fill="#000000" fill-rule="nonzero" fill-opacity="1" /><path clip-path="url(#clip790)" d="M225.479 1517.37 Q221.867 1517.37 220.039 1520.93 Q218.233 1524.47 218.233 1531.6 Q218.233 1538.71 220.039 1542.27 Q221.867 1545.82 225.479 1545.82 Q229.113 1545.82 230.918 1542.27 Q232.747 1538.71 232.747 1531.6 Q232.747 1524.47 230.918 1520.93 Q229.113 1517.37 225.479 1517.37 M225.479 1513.66 Q231.289 1513.66 234.344 1518.27 Q237.423 1522.85 237.423 1531.6 Q237.423 1540.33 234.344 1544.94 Q231.289 1549.52 225.479 1549.52 Q219.668 1549.52 216.59 1544.94 Q213.534 1540.33 213.534 1531.6 Q213.534 1522.85 216.59 1518.27 Q219.668 1513.66 225.479 1513.66 Z" fill="#000000" fill-rule="nonzero" fill-opacity="1" /><path clip-path="url(#clip790)" d="M255.64 1517.37 Q252.029 1517.37 250.201 1520.93 Q248.395 1524.47 248.395 1531.6 Q248.395 1538.71 250.201 1542.27 Q252.029 1545.82 255.64 1545.82 Q259.275 1545.82 261.08 1542.27 Q262.909 1538.71 262.909 1531.6 Q262.909 1524.47 261.08 1520.93 Q259.275 1517.37 255.64 1517.37 M255.64 1513.66 Q261.451 1513.66 264.506 1518.27 Q267.585 1522.85 267.585 1531.6 Q267.585 1540.33 264.506 1544.94 Q261.451 1549.52 255.64 1549.52 Q249.83 1549.52 246.752 1544.94 Q243.696 1540.33 243.696 1531.6 Q243.696 1522.85 246.752 1518.27 Q249.83 1513.66 255.64 1513.66 Z" fill="#000000" fill-rule="nonzero" fill-opacity="1" /><path clip-path="url(#clip790)" d="M698.903 1517.37 Q695.292 1517.37 693.463 1520.93 Q691.658 1524.47 691.658 1531.6 Q691.658 1538.71 693.463 1542.27 Q695.292 1545.82 698.903 1545.82 Q702.538 1545.82 704.343 1542.27 Q706.172 1538.71 706.172 1531.6 Q706.172 1524.47 704.343 1520.93 Q702.538 1517.37 698.903 1517.37 M698.903 1513.66 Q704.713 1513.66 707.769 1518.27 Q710.848 1522.85 710.848 1531.6 Q710.848 1540.33 707.769 1544.94 Q704.713 1549.52 698.903 1549.52 Q693.093 1549.52 690.014 1544.94 Q686.959 1540.33 686.959 1531.6 Q686.959 1522.85 690.014 1518.27 Q693.093 1513.66 698.903 1513.66 Z" fill="#000000" fill-rule="nonzero" fill-opacity="1" /><path clip-path="url(#clip790)" d="M719.065 1542.97 L723.949 1542.97 L723.949 1548.85 L719.065 1548.85 L719.065 1542.97 Z" fill="#000000" fill-rule="nonzero" fill-opacity="1" /><path clip-path="url(#clip790)" d="M738.162 1544.91 L754.482 1544.91 L754.482 1548.85 L732.537 1548.85 L732.537 1544.91 Q735.199 1542.16 739.783 1537.53 Q744.389 1532.88 745.57 1531.53 Q747.815 1529.01 748.695 1527.27 Q749.597 1525.51 749.597 1523.82 Q749.597 1521.07 747.653 1519.33 Q745.732 1517.6 742.63 1517.6 Q740.431 1517.6 737.977 1518.36 Q735.547 1519.13 732.769 1520.68 L732.769 1515.95 Q735.593 1514.82 738.047 1514.24 Q740.5 1513.66 742.537 1513.66 Q747.908 1513.66 751.102 1516.35 Q754.296 1519.03 754.296 1523.52 Q754.296 1525.65 753.486 1527.57 Q752.699 1529.47 750.593 1532.07 Q750.014 1532.74 746.912 1535.95 Q743.81 1539.15 738.162 1544.91 Z" fill="#000000" fill-rule="nonzero" fill-opacity="1" /><path clip-path="url(#clip790)" d="M764.343 1514.29 L782.699 1514.29 L782.699 1518.22 L768.625 1518.22 L768.625 1526.7 Q769.644 1526.35 770.662 1526.19 Q771.681 1526 772.699 1526 Q778.486 1526 781.866 1529.17 Q785.245 1532.34 785.245 1537.76 Q785.245 1543.34 781.773 1546.44 Q778.301 1549.52 771.982 1549.52 Q769.806 1549.52 767.537 1549.15 Q765.292 1548.78 762.884 1548.04 L762.884 1543.34 Q764.968 1544.47 767.19 1545.03 Q769.412 1545.58 771.889 1545.58 Q775.894 1545.58 778.232 1543.48 Q780.57 1541.37 780.57 1537.76 Q780.57 1534.15 778.232 1532.04 Q775.894 1529.94 771.889 1529.94 Q770.014 1529.94 768.139 1530.35 Q766.287 1530.77 764.343 1531.65 L764.343 1514.29 Z" fill="#000000" fill-rule="nonzero" fill-opacity="1" /><path clip-path="url(#clip790)" d="M1216.56 1517.37 Q1212.95 1517.37 1211.12 1520.93 Q1209.32 1524.47 1209.32 1531.6 Q1209.32 1538.71 1211.12 1542.27 Q1212.95 1545.82 1216.56 1545.82 Q1220.2 1545.82 1222 1542.27 Q1223.83 1538.71 1223.83 1531.6 Q1223.83 1524.47 1222 1520.93 Q1220.2 1517.37 1216.56 1517.37 M1216.56 1513.66 Q1222.37 1513.66 1225.43 1518.27 Q1228.51 1522.85 1228.51 1531.6 Q1228.51 1540.33 1225.43 1544.94 Q1222.37 1549.52 1216.56 1549.52 Q1210.75 1549.52 1207.68 1544.94 Q1204.62 1540.33 1204.62 1531.6 Q1204.62 1522.85 1207.68 1518.27 Q1210.75 1513.66 1216.56 1513.66 Z" fill="#000000" fill-rule="nonzero" fill-opacity="1" /><path clip-path="url(#clip790)" d="M1236.73 1542.97 L1241.61 1542.97 L1241.61 1548.85 L1236.73 1548.85 L1236.73 1542.97 Z" fill="#000000" fill-rule="nonzero" fill-opacity="1" /><path clip-path="url(#clip790)" d="M1251.84 1514.29 L1270.2 1514.29 L1270.2 1518.22 L1256.12 1518.22 L1256.12 1526.7 Q1257.14 1526.35 1258.16 1526.19 Q1259.18 1526 1260.2 1526 Q1265.98 1526 1269.36 1529.17 Q1272.74 1532.34 1272.74 1537.76 Q1272.74 1543.34 1269.27 1546.44 Q1265.8 1549.52 1259.48 1549.52 Q1257.3 1549.52 1255.04 1549.15 Q1252.79 1548.78 1250.38 1548.04 L1250.38 1543.34 Q1252.47 1544.47 1254.69 1545.03 Q1256.91 1545.58 1259.39 1545.58 Q1263.39 1545.58 1265.73 1543.48 Q1268.07 1541.37 1268.07 1537.76 Q1268.07 1534.15 1265.73 1532.04 Q1263.39 1529.94 1259.39 1529.94 Q1257.51 1529.94 1255.64 1530.35 Q1253.79 1530.77 1251.84 1531.65 L1251.84 1514.29 Z" fill="#000000" fill-rule="nonzero" fill-opacity="1" /><path clip-path="url(#clip790)" d="M1291.96 1517.37 Q1288.35 1517.37 1286.52 1520.93 Q1284.71 1524.47 1284.71 1531.6 Q1284.71 1538.71 1286.52 1542.27 Q1288.35 1545.82 1291.96 1545.82 Q1295.59 1545.82 1297.4 1542.27 Q1299.23 1538.71 1299.23 1531.6 Q1299.23 1524.47 1297.4 1520.93 Q1295.59 1517.37 1291.96 1517.37 M1291.96 1513.66 Q1297.77 1513.66 1300.82 1518.27 Q1303.9 1522.85 1303.9 1531.6 Q1303.9 1540.33 1300.82 1544.94 Q1297.77 1549.52 1291.96 1549.52 Q1286.15 1549.52 1283.07 1544.94 Q1280.01 1540.33 1280.01 1531.6 Q1280.01 1522.85 1283.07 1518.27 Q1286.15 1513.66 1291.96 1513.66 Z" fill="#000000" fill-rule="nonzero" fill-opacity="1" /><path clip-path="url(#clip790)" d="M1735.22 1517.37 Q1731.61 1517.37 1729.78 1520.93 Q1727.97 1524.47 1727.97 1531.6 Q1727.97 1538.71 1729.78 1542.27 Q1731.61 1545.82 1735.22 1545.82 Q1738.85 1545.82 1740.66 1542.27 Q1742.49 1538.71 1742.49 1531.6 Q1742.49 1524.47 1740.66 1520.93 Q1738.85 1517.37 1735.22 1517.37 M1735.22 1513.66 Q1741.03 1513.66 1744.09 1518.27 Q1747.16 1522.85 1747.16 1531.6 Q1747.16 1540.33 1744.09 1544.94 Q1741.03 1549.52 1735.22 1549.52 Q1729.41 1549.52 1726.33 1544.94 Q1723.28 1540.33 1723.28 1531.6 Q1723.28 1522.85 1726.33 1518.27 Q1729.41 1513.66 1735.22 1513.66 Z" fill="#000000" fill-rule="nonzero" fill-opacity="1" /><path clip-path="url(#clip790)" d="M1755.38 1542.97 L1760.27 1542.97 L1760.27 1548.85 L1755.38 1548.85 L1755.38 1542.97 Z" fill="#000000" fill-rule="nonzero" fill-opacity="1" /><path clip-path="url(#clip790)" d="M1769.27 1514.29 L1791.49 1514.29 L1791.49 1516.28 L1778.95 1548.85 L1774.06 1548.85 L1785.87 1518.22 L1769.27 1518.22 L1769.27 1514.29 Z" fill="#000000" fill-rule="nonzero" fill-opacity="1" /><path clip-path="url(#clip790)" d="M1800.66 1514.29 L1819.02 1514.29 L1819.02 1518.22 L1804.94 1518.22 L1804.94 1526.7 Q1805.96 1526.35 1806.98 1526.19 Q1808 1526 1809.02 1526 Q1814.8 1526 1818.18 1529.17 Q1821.56 1532.34 1821.56 1537.76 Q1821.56 1543.34 1818.09 1546.44 Q1814.62 1549.52 1808.3 1549.52 Q1806.12 1549.52 1803.85 1549.15 Q1801.61 1548.78 1799.2 1548.04 L1799.2 1543.34 Q1801.28 1544.47 1803.51 1545.03 Q1805.73 1545.58 1808.21 1545.58 Q1812.21 1545.58 1814.55 1543.48 Q1816.89 1541.37 1816.89 1537.76 Q1816.89 1534.15 1814.55 1532.04 Q1812.21 1529.94 1808.21 1529.94 Q1806.33 1529.94 1804.46 1530.35 Q1802.6 1530.77 1800.66 1531.65 L1800.66 1514.29 Z" fill="#000000" fill-rule="nonzero" fill-opacity="1" /><path clip-path="url(#clip790)" d="M2242.65 1544.91 L2250.29 1544.91 L2250.29 1518.55 L2241.98 1520.21 L2241.98 1515.95 L2250.24 1514.29 L2254.92 1514.29 L2254.92 1544.91 L2262.56 1544.91 L2262.56 1548.85 L2242.65 1548.85 L2242.65 1544.91 Z" fill="#000000" fill-rule="nonzero" fill-opacity="1" /><path clip-path="url(#clip790)" d="M2272 1542.97 L2276.88 1542.97 L2276.88 1548.85 L2272 1548.85 L2272 1542.97 Z" fill="#000000" fill-rule="nonzero" fill-opacity="1" /><path clip-path="url(#clip790)" d="M2297.07 1517.37 Q2293.46 1517.37 2291.63 1520.93 Q2289.82 1524.47 2289.82 1531.6 Q2289.82 1538.71 2291.63 1542.27 Q2293.46 1545.82 2297.07 1545.82 Q2300.7 1545.82 2302.51 1542.27 Q2304.34 1538.71 2304.34 1531.6 Q2304.34 1524.47 2302.51 1520.93 Q2300.7 1517.37 2297.07 1517.37 M2297.07 1513.66 Q2302.88 1513.66 2305.94 1518.27 Q2309.01 1522.85 2309.01 1531.6 Q2309.01 1540.33 2305.94 1544.94 Q2302.88 1549.52 2297.07 1549.52 Q2291.26 1549.52 2288.18 1544.94 Q2285.13 1540.33 2285.13 1531.6 Q2285.13 1522.85 2288.18 1518.27 Q2291.26 1513.66 2297.07 1513.66 Z" fill="#000000" fill-rule="nonzero" fill-opacity="1" /><path clip-path="url(#clip790)" d="M2327.23 1517.37 Q2323.62 1517.37 2321.79 1520.93 Q2319.99 1524.47 2319.99 1531.6 Q2319.99 1538.71 2321.79 1542.27 Q2323.62 1545.82 2327.23 1545.82 Q2330.87 1545.82 2332.67 1542.27 Q2334.5 1538.71 2334.5 1531.6 Q2334.5 1524.47 2332.67 1520.93 Q2330.87 1517.37 2327.23 1517.37 M2327.23 1513.66 Q2333.04 1513.66 2336.1 1518.27 Q2339.18 1522.85 2339.18 1531.6 Q2339.18 1540.33 2336.1 1544.94 Q2333.04 1549.52 2327.23 1549.52 Q2321.42 1549.52 2318.34 1544.94 Q2315.29 1540.33 2315.29 1531.6 Q2315.29 1522.85 2318.34 1518.27 Q2321.42 1513.66 2327.23 1513.66 Z" fill="#000000" fill-rule="nonzero" fill-opacity="1" /><polyline clip-path="url(#clip790)" style="stroke:#000000; stroke-linecap:round; stroke-linejoin:round; stroke-width:4; stroke-opacity:1; fill:none" points="155.765,1486.45 155.765,47.2441 "/>
<polyline clip-path="url(#clip790)" style="stroke:#000000; stroke-linecap:round; stroke-linejoin:round; stroke-width:4; stroke-opacity:1; fill:none" points="155.765,1357.3 174.663,1357.3 "/>
<polyline clip-path="url(#clip790)" style="stroke:#000000; stroke-linecap:round; stroke-linejoin:round; stroke-width:4; stroke-opacity:1; fill:none" points="155.765,1047.66 174.663,1047.66 "/>
<polyline clip-path="url(#clip790)" style="stroke:#000000; stroke-linecap:round; stroke-linejoin:round; stroke-width:4; stroke-opacity:1; fill:none" points="155.765,738.021 174.663,738.021 "/>
<polyline clip-path="url(#clip790)" style="stroke:#000000; stroke-linecap:round; stroke-linejoin:round; stroke-width:4; stroke-opacity:1; fill:none" points="155.765,428.383 174.663,428.383 "/>
<polyline clip-path="url(#clip790)" style="stroke:#000000; stroke-linecap:round; stroke-linejoin:round; stroke-width:4; stroke-opacity:1; fill:none" points="155.765,118.745 174.663,118.745 "/>
<path clip-path="url(#clip790)" d="M63.5847 1343.1 Q59.9736 1343.1 58.1449 1346.66 Q56.3393 1350.2 56.3393 1357.33 Q56.3393 1364.44 58.1449 1368 Q59.9736 1371.55 63.5847 1371.55 Q67.2189 1371.55 69.0244 1368 Q70.8531 1364.44 70.8531 1357.33 Q70.8531 1350.2 69.0244 1346.66 Q67.2189 1343.1 63.5847 1343.1 M63.5847 1339.39 Q69.3948 1339.39 72.4503 1344 Q75.529 1348.58 75.529 1357.33 Q75.529 1366.06 72.4503 1370.67 Q69.3948 1375.25 63.5847 1375.25 Q57.7745 1375.25 54.6958 1370.67 Q51.6403 1366.06 51.6403 1357.33 Q51.6403 1348.58 54.6958 1344 Q57.7745 1339.39 63.5847 1339.39 Z" fill="#000000" fill-rule="nonzero" fill-opacity="1" /><path clip-path="url(#clip790)" d="M83.7466 1368.7 L88.6308 1368.7 L88.6308 1374.58 L83.7466 1374.58 L83.7466 1368.7 Z" fill="#000000" fill-rule="nonzero" fill-opacity="1" /><path clip-path="url(#clip790)" d="M98.8622 1340.02 L117.219 1340.02 L117.219 1343.95 L103.145 1343.95 L103.145 1352.42 Q104.163 1352.08 105.182 1351.92 Q106.2 1351.73 107.219 1351.73 Q113.006 1351.73 116.385 1354.9 Q119.765 1358.07 119.765 1363.49 Q119.765 1369.07 116.293 1372.17 Q112.82 1375.25 106.501 1375.25 Q104.325 1375.25 102.057 1374.88 Q99.8113 1374.51 97.4039 1373.77 L97.4039 1369.07 Q99.4872 1370.2 101.709 1370.76 Q103.932 1371.31 106.408 1371.31 Q110.413 1371.31 112.751 1369.21 Q115.089 1367.1 115.089 1363.49 Q115.089 1359.88 112.751 1357.77 Q110.413 1355.67 106.408 1355.67 Q104.534 1355.67 102.659 1356.08 Q100.807 1356.5 98.8622 1357.38 L98.8622 1340.02 Z" fill="#000000" fill-rule="nonzero" fill-opacity="1" /><path clip-path="url(#clip790)" d="M53.3995 1061 L61.0384 1061 L61.0384 1034.64 L52.7282 1036.31 L52.7282 1032.05 L60.9921 1030.38 L65.668 1030.38 L65.668 1061 L73.3068 1061 L73.3068 1064.94 L53.3995 1064.94 L53.3995 1061 Z" fill="#000000" fill-rule="nonzero" fill-opacity="1" /><path clip-path="url(#clip790)" d="M82.7512 1059.06 L87.6354 1059.06 L87.6354 1064.94 L82.7512 1064.94 L82.7512 1059.06 Z" fill="#000000" fill-rule="nonzero" fill-opacity="1" /><path clip-path="url(#clip790)" d="M107.821 1033.46 Q104.209 1033.46 102.381 1037.02 Q100.575 1040.56 100.575 1047.69 Q100.575 1054.8 102.381 1058.37 Q104.209 1061.91 107.821 1061.91 Q111.455 1061.91 113.26 1058.37 Q115.089 1054.8 115.089 1047.69 Q115.089 1040.56 113.26 1037.02 Q111.455 1033.46 107.821 1033.46 M107.821 1029.75 Q113.631 1029.75 116.686 1034.36 Q119.765 1038.94 119.765 1047.69 Q119.765 1056.42 116.686 1061.03 Q113.631 1065.61 107.821 1065.61 Q102.01 1065.61 98.9317 1061.03 Q95.8761 1056.42 95.8761 1047.69 Q95.8761 1038.94 98.9317 1034.36 Q102.01 1029.75 107.821 1029.75 Z" fill="#000000" fill-rule="nonzero" fill-opacity="1" /><path clip-path="url(#clip790)" d="M54.3949 751.366 L62.0337 751.366 L62.0337 725 L53.7236 726.667 L53.7236 722.408 L61.9874 720.741 L66.6633 720.741 L66.6633 751.366 L74.3022 751.366 L74.3022 755.301 L54.3949 755.301 L54.3949 751.366 Z" fill="#000000" fill-rule="nonzero" fill-opacity="1" /><path clip-path="url(#clip790)" d="M83.7466 749.422 L88.6308 749.422 L88.6308 755.301 L83.7466 755.301 L83.7466 749.422 Z" fill="#000000" fill-rule="nonzero" fill-opacity="1" /><path clip-path="url(#clip790)" d="M98.8622 720.741 L117.219 720.741 L117.219 724.676 L103.145 724.676 L103.145 733.149 Q104.163 732.801 105.182 732.639 Q106.2 732.454 107.219 732.454 Q113.006 732.454 116.385 735.625 Q119.765 738.797 119.765 744.213 Q119.765 749.792 116.293 752.894 Q112.82 755.972 106.501 755.972 Q104.325 755.972 102.057 755.602 Q99.8113 755.232 97.4039 754.491 L97.4039 749.792 Q99.4872 750.926 101.709 751.482 Q103.932 752.037 106.408 752.037 Q110.413 752.037 112.751 749.931 Q115.089 747.824 115.089 744.213 Q115.089 740.602 112.751 738.496 Q110.413 736.389 106.408 736.389 Q104.534 736.389 102.659 736.806 Q100.807 737.223 98.8622 738.102 L98.8622 720.741 Z" fill="#000000" fill-rule="nonzero" fill-opacity="1" /><path clip-path="url(#clip790)" d="M56.6171 441.728 L72.9365 441.728 L72.9365 445.663 L50.9921 445.663 L50.9921 441.728 Q53.6541 438.973 58.2375 434.344 Q62.8439 429.691 64.0245 428.348 Q66.2698 425.825 67.1494 424.089 Q68.0522 422.33 68.0522 420.64 Q68.0522 417.885 66.1078 416.149 Q64.1865 414.413 61.0847 414.413 Q58.8856 414.413 56.4319 415.177 Q54.0014 415.941 51.2236 417.492 L51.2236 412.77 Q54.0477 411.635 56.5014 411.057 Q58.955 410.478 60.9921 410.478 Q66.3624 410.478 69.5568 413.163 Q72.7513 415.848 72.7513 420.339 Q72.7513 422.469 71.9411 424.39 Q71.1541 426.288 69.0476 428.881 Q68.4689 429.552 65.367 432.77 Q62.2652 435.964 56.6171 441.728 Z" fill="#000000" fill-rule="nonzero" fill-opacity="1" /><path clip-path="url(#clip790)" d="M82.7512 439.783 L87.6354 439.783 L87.6354 445.663 L82.7512 445.663 L82.7512 439.783 Z" fill="#000000" fill-rule="nonzero" fill-opacity="1" /><path clip-path="url(#clip790)" d="M107.821 414.182 Q104.209 414.182 102.381 417.747 Q100.575 421.288 100.575 428.418 Q100.575 435.524 102.381 439.089 Q104.209 442.631 107.821 442.631 Q111.455 442.631 113.26 439.089 Q115.089 435.524 115.089 428.418 Q115.089 421.288 113.26 417.747 Q111.455 414.182 107.821 414.182 M107.821 410.478 Q113.631 410.478 116.686 415.084 Q119.765 419.668 119.765 428.418 Q119.765 437.145 116.686 441.751 Q113.631 446.334 107.821 446.334 Q102.01 446.334 98.9317 441.751 Q95.8761 437.145 95.8761 428.418 Q95.8761 419.668 98.9317 415.084 Q102.01 410.478 107.821 410.478 Z" fill="#000000" fill-rule="nonzero" fill-opacity="1" /><path clip-path="url(#clip790)" d="M57.6125 132.09 L73.9318 132.09 L73.9318 136.025 L51.9875 136.025 L51.9875 132.09 Q54.6495 129.335 59.2328 124.705 Q63.8393 120.053 65.0198 118.71 Q67.2652 116.187 68.1448 114.451 Q69.0476 112.692 69.0476 111.002 Q69.0476 108.247 67.1032 106.511 Q65.1819 104.775 62.08 104.775 Q59.881 104.775 57.4273 105.539 Q54.9967 106.303 52.219 107.854 L52.219 103.132 Q55.043 101.997 57.4967 101.419 Q59.9504 100.84 61.9874 100.84 Q67.3578 100.84 70.5522 103.525 Q73.7466 106.21 73.7466 110.701 Q73.7466 112.831 72.9365 114.752 Q72.1494 116.65 70.0429 119.243 Q69.4642 119.914 66.3624 123.131 Q63.2606 126.326 57.6125 132.09 Z" fill="#000000" fill-rule="nonzero" fill-opacity="1" /><path clip-path="url(#clip790)" d="M83.7466 130.145 L88.6308 130.145 L88.6308 136.025 L83.7466 136.025 L83.7466 130.145 Z" fill="#000000" fill-rule="nonzero" fill-opacity="1" /><path clip-path="url(#clip790)" d="M98.8622 101.465 L117.219 101.465 L117.219 105.4 L103.145 105.4 L103.145 113.872 Q104.163 113.525 105.182 113.363 Q106.2 113.178 107.219 113.178 Q113.006 113.178 116.385 116.349 Q119.765 119.52 119.765 124.937 Q119.765 130.516 116.293 133.617 Q112.82 136.696 106.501 136.696 Q104.325 136.696 102.057 136.326 Q99.8113 135.955 97.4039 135.215 L97.4039 130.516 Q99.4872 131.65 101.709 132.205 Q103.932 132.761 106.408 132.761 Q110.413 132.761 112.751 130.655 Q115.089 128.548 115.089 124.937 Q115.089 121.326 112.751 119.219 Q110.413 117.113 106.408 117.113 Q104.534 117.113 102.659 117.53 Q100.807 117.946 98.8622 118.826 L98.8622 101.465 Z" fill="#000000" fill-rule="nonzero" fill-opacity="1" /><polyline clip-path="url(#clip791)" style="stroke:#009af9; stroke-linecap:round; stroke-linejoin:round; stroke-width:12; stroke-opacity:1; fill:none" points="217.944,1357.3 425.207,1346.85 632.47,1355.54 839.734,1312.77 1047,1216.87 1254.26,1209.48 1461.52,1252.31 1668.79,1231.54 1876.05,1150.91 2083.31,1047.33 2290.58,1011.4 "/>
<polyline clip-path="url(#clip791)" style="stroke:#e26f46; stroke-linecap:round; stroke-linejoin:round; stroke-width:12; stroke-opacity:1; fill:none" points="217.944,1357.3 425.207,1379.15 632.47,1360.52 839.734,1308.86 1047,1250.96 1254.26,1217.08 1461.52,1152.88 1668.79,1167.1 1876.05,1172.71 2083.31,1134.39 2290.58,1044.47 "/>
<polyline clip-path="url(#clip791)" style="stroke:#3da44d; stroke-linecap:round; stroke-linejoin:round; stroke-width:12; stroke-opacity:1; fill:none" points="217.944,1357.3 425.207,1402.45 632.47,1330.29 839.734,1282.34 1047,1190.53 1254.26,1233.74 1461.52,1159.35 1668.79,1151.22 1876.05,1157.45 2083.31,1117.99 2290.58,965.522 "/>
<polyline clip-path="url(#clip791)" style="stroke:#c271d2; stroke-linecap:round; stroke-linejoin:round; stroke-width:12; stroke-opacity:1; fill:none" points="217.944,1357.3 425.207,1377.1 632.47,1334.82 839.734,1302.18 1047,1299.44 1254.26,1320.7 1461.52,1205.82 1668.79,1136.11 1876.05,1086.73 2083.31,998.948 2290.58,919.406 "/>
<polyline clip-path="url(#clip791)" style="stroke:#ac8d18; stroke-linecap:round; stroke-linejoin:round; stroke-width:12; stroke-opacity:1; fill:none" points="217.944,1357.3 425.207,1291.68 632.47,1274.31 839.734,1253.96 1047,1225.38 1254.26,1207.93 1461.52,1171.38 1668.79,1055.13 1876.05,992.369 2083.31,925.855 2290.58,948.576 "/>
<polyline clip-path="url(#clip791)" style="stroke:#00a9ad; stroke-linecap:round; stroke-linejoin:round; stroke-width:12; stroke-opacity:1; fill:none" points="217.944,1357.3 425.207,1357.76 632.47,1311.79 839.734,1278.37 1047,1301.91 1254.26,1225.99 1461.52,1190.7 1668.79,1144.25 1876.05,1160.19 2083.31,991.96 2290.58,867.987 "/>
<polyline clip-path="url(#clip791)" style="stroke:#ed5d92; stroke-linecap:round; stroke-linejoin:round; stroke-width:12; stroke-opacity:1; fill:none" points="217.944,1357.3 425.207,1315.57 632.47,1287.92 839.734,1166.67 1047,1016.97 1254.26,939.652 1461.52,863.254 1668.79,705.472 1876.05,439.436 2083.31,380.501 2290.58,87.9763 "/>
<polyline clip-path="url(#clip791)" style="stroke:#c68125; stroke-linecap:round; stroke-linejoin:round; stroke-width:12; stroke-opacity:1; fill:none" points="217.944,1357.3 425.207,1332.04 632.47,1353.28 839.734,1336.26 1047,1282.62 1254.26,1350.48 1461.52,1370.1 1668.79,1420.35 1876.05,1415.47 2083.31,1393.39 2290.58,1445.72 "/>
</svg>
