<?xml version="1.0" encoding="utf-8"?>
<svg xmlns="http://www.w3.org/2000/svg" xmlns:xlink="http://www.w3.org/1999/xlink" width="600" height="400" viewBox="0 0 2400 1600">
<defs>
  <clipPath id="clip760">
    <rect x="0" y="0" width="2400" height="1600"/>
  </clipPath>
</defs>
<path clip-path="url(#clip760)" d="M0 1600 L2400 1600 L2400 0 L0 0  Z" fill="#ffffff" fill-rule="evenodd" fill-opacity="1"/>
<defs>
  <clipPath id="clip761">
    <rect x="155" y="47" width="2198" height="1440"/>
  </clipPath>
</defs>
<path clip-path="url(#clip760)" d="M155.765 1486.45 L2352.76 1486.45 L2352.76 47.2441 L155.765 47.2441  Z" fill="#ffffff" fill-rule="evenodd" fill-opacity="1"/>
<polyline clip-path="url(#clip761)" style="stroke:#000000; stroke-linecap:round; stroke-linejoin:round; stroke-width:2; stroke-opacity:0.1; fill:none" points="217.944,1486.45 217.944,47.2441 "/>
<polyline clip-path="url(#clip761)" style="stroke:#000000; stroke-linecap:round; stroke-linejoin:round; stroke-width:2; stroke-opacity:0.1; fill:none" points="736.102,1486.45 736.102,47.2441 "/>
<polyline clip-path="url(#clip761)" style="stroke:#000000; stroke-linecap:round; stroke-linejoin:round; stroke-width:2; stroke-opacity:0.1; fill:none" points="1254.26,1486.45 1254.26,47.2441 "/>
<polyline clip-path="url(#clip761)" style="stroke:#000000; stroke-linecap:round; stroke-linejoin:round; stroke-width:2; stroke-opacity:0.1; fill:none" points="1772.42,1486.45 1772.42,47.2441 "/>
<polyline clip-path="url(#clip761)" style="stroke:#000000; stroke-linecap:round; stroke-linejoin:round; stroke-width:2; stroke-opacity:0.1; fill:none" points="2290.58,1486.45 2290.58,47.2441 "/>
<polyline clip-path="url(#clip761)" style="stroke:#000000; stroke-linecap:round; stroke-linejoin:round; stroke-width:2; stroke-opacity:0.1; fill:none" points="155.765,1358.94 2352.76,1358.94 "/>
<polyline clip-path="url(#clip761)" style="stroke:#000000; stroke-linecap:round; stroke-linejoin:round; stroke-width:2; stroke-opacity:0.1; fill:none" points="155.765,1145.05 2352.76,1145.05 "/>
<polyline clip-path="url(#clip761)" style="stroke:#000000; stroke-linecap:round; stroke-linejoin:round; stroke-width:2; stroke-opacity:0.1; fill:none" points="155.765,931.157 2352.76,931.157 "/>
<polyline clip-path="url(#clip761)" style="stroke:#000000; stroke-linecap:round; stroke-linejoin:round; stroke-width:2; stroke-opacity:0.1; fill:none" points="155.765,717.266 2352.76,717.266 "/>
<polyline clip-path="url(#clip761)" style="stroke:#000000; stroke-linecap:round; stroke-linejoin:round; stroke-width:2; stroke-opacity:0.1; fill:none" points="155.765,503.375 2352.76,503.375 "/>
<polyline clip-path="url(#clip761)" style="stroke:#000000; stroke-linecap:round; stroke-linejoin:round; stroke-width:2; stroke-opacity:0.1; fill:none" points="155.765,289.484 2352.76,289.484 "/>
<polyline clip-path="url(#clip761)" style="stroke:#000000; stroke-linecap:round; stroke-linejoin:round; stroke-width:2; stroke-opacity:0.1; fill:none" points="155.765,75.5932 2352.76,75.5932 "/>
<polyline clip-path="url(#clip760)" style="stroke:#000000; stroke-linecap:round; stroke-linejoin:round; stroke-width:4; stroke-opacity:1; fill:none" points="155.765,1486.45 2352.76,1486.45 "/>
<polyline clip-path="url(#clip760)" style="stroke:#000000; stroke-linecap:round; stroke-linejoin:round; stroke-width:4; stroke-opacity:1; fill:none" points="217.944,1486.45 217.944,1467.55 "/>
<polyline clip-path="url(#clip760)" style="stroke:#000000; stroke-linecap:round; stroke-linejoin:round; stroke-width:4; stroke-opacity:1; fill:none" points="736.102,1486.45 736.102,1467.55 "/>
<polyline clip-path="url(#clip760)" style="stroke:#000000; stroke-linecap:round; stroke-linejoin:round; stroke-width:4; stroke-opacity:1; fill:none" points="1254.26,1486.45 1254.26,1467.55 "/>
<polyline clip-path="url(#clip760)" style="stroke:#000000; stroke-linecap:round; stroke-linejoin:round; stroke-width:4; stroke-opacity:1; fill:none" points="1772.42,1486.45 1772.42,1467.55 "/>
<polyline clip-path="url(#clip760)" style="stroke:#000000; stroke-linecap:round; stroke-linejoin:round; stroke-width:4; stroke-opacity:1; fill:none" points="2290.58,1486.45 2290.58,1467.55 "/>
<path clip-path="url(#clip760)" d="M180.247 1517.37 Q176.636 1517.37 174.808 1520.93 Q173.002 1524.47 173.002 1531.6 Q173.002 1538.71 174.808 1542.27 Q176.636 1545.82 180.247 1545.82 Q183.882 1545.82 185.687 1542.27 Q187.516 1538.71 187.516 1531.6 Q187.516 1524.47 185.687 1520.93 Q183.882 1517.37 180.247 1517.37 M180.247 1513.66 Q186.057 1513.66 189.113 1518.27 Q192.192 1522.85 192.192 1531.6 Q192.192 1540.33 189.113 1544.94 Q186.057 1549.52 180.247 1549.52 Q174.437 1549.52 171.358 1544.94 Q168.303 1540.33 168.303 1531.6 Q168.303 1522.85 171.358 1518.27 Q174.437 1513.66 180.247 1513.66 Z" fill="#000000" fill-rule="nonzero" fill-opacity="1" /><path clip-path="url(#clip760)" d="M200.409 1542.97 L205.294 1542.97 L205.294 1548.85 L200.409 1548.85 L200.409 1542.97 Z" fill="#000000" fill-rule="nonzero" fill-opacity="1" /><path clip-path="url(#clip760)" d="M225.479 1517.37 Q221.867 1517.37 220.039 1520.93 Q218.233 1524.47 218.233 1531.6 Q218.233 1538.71 220.039 1542.27 Q221.867 1545.82 225.479 1545.82 Q229.113 1545.82 230.918 1542.27 Q232.747 1538.71 232.747 1531.6 Q232.747 1524.47 230.918 1520.93 Q229.113 1517.37 225.479 1517.37 M225.479 1513.66 Q231.289 1513.66 234.344 1518.27 Q237.423 1522.85 237.423 1531.6 Q237.423 1540.33 234.344 1544.94 Q231.289 1549.52 225.479 1549.52 Q219.668 1549.52 216.59 1544.94 Q213.534 1540.33 213.534 1531.6 Q213.534 1522.85 216.59 1518.27 Q219.668 1513.66 225.479 1513.66 Z" fill="#000000" fill-rule="nonzero" fill-opacity="1" /><path clip-path="url(#clip760)" d="M255.64 1517.37 Q252.029 1517.37 250.201 1520.93 Q248.395 1524.47 248.395 1531.6 Q248.395 1538.71 250.201 1542.27 Q252.029 1545.82 255.64 1545.82 Q259.275 1545.82 261.08 1542.27 Q262.909 1538.71 262.909 1531.6 Q262.909 1524.47 261.08 1520.93 Q259.275 1517.37 255.64 1517.37 M255.64 1513.66 Q261.451 1513.66 264.506 1518.27 Q267.585 1522.85 267.585 1531.6 Q267.585 1540.33 264.506 1544.94 Q261.451 1549.52 255.64 1549.52 Q249.83 1549.52 246.752 1544.94 Q243.696 1540.33 243.696 1531.6 Q243.696 1522.85 246.752 1518.27 Q249.83 1513.66 255.64 1513.66 Z" fill="#000000" fill-rule="nonzero" fill-opacity="1" /><path clip-path="url(#clip760)" d="M698.903 1517.37 Q695.292 1517.37 693.463 1520.93 Q691.658 1524.47 691.658 1531.6 Q691.658 1538.71 693.463 1542.27 Q695.292 1545.82 698.903 1545.82 Q702.538 1545.82 704.343 1542.27 Q706.172 1538.71 706.172 1531.6 Q706.172 1524.47 704.343 1520.93 Q702.538 1517.37 698.903 1517.37 M698.903 1513.66 Q704.713 1513.66 707.769 1518.27 Q710.848 1522.85 710.848 1531.6 Q710.848 1540.33 707.769 1544.94 Q704.713 1549.52 698.903 1549.52 Q693.093 1549.52 690.014 1544.94 Q686.959 1540.33 686.959 1531.6 Q686.959 1522.85 690.014 1518.27 Q693.093 1513.66 698.903 1513.66 Z" fill="#000000" fill-rule="nonzero" fill-opacity="1" /><path clip-path="url(#clip760)" d="M719.065 1542.97 L723.949 1542.97 L723.949 1548.85 L719.065 1548.85 L719.065 1542.97 Z" fill="#000000" fill-rule="nonzero" fill-opacity="1" /><path clip-path="url(#clip760)" d="M738.162 1544.91 L754.482 1544.91 L754.482 1548.85 L732.537 1548.85 L732.537 1544.91 Q735.199 1542.16 739.783 1537.53 Q744.389 1532.88 745.57 1531.53 Q747.815 1529.01 748.695 1527.27 Q749.597 1525.51 749.597 1523.82 Q749.597 1521.07 747.653 1519.33 Q745.732 1517.6 742.63 1517.6 Q740.431 1517.6 737.977 1518.36 Q735.547 1519.13 732.769 1520.68 L732.769 1515.95 Q735.593 1514.82 738.047 1514.24 Q740.5 1513.66 742.537 1513.66 Q747.908 1513.66 751.102 1516.35 Q754.296 1519.03 754.296 1523.52 Q754.296 1525.65 753.486 1527.57 Q752.699 1529.47 750.593 1532.07 Q750.014 1532.74 746.912 1535.95 Q743.81 1539.15 738.162 1544.91 Z" fill="#000000" fill-rule="nonzero" fill-opacity="1" /><path clip-path="url(#clip760)" d="M764.343 1514.29 L782.699 1514.29 L782.699 1518.22 L768.625 1518.22 L768.625 1526.7 Q769.644 1526.35 770.662 1526.19 Q771.681 1526 772.699 1526 Q778.486 1526 781.866 1529.17 Q785.245 1532.34 785.245 1537.76 Q785.245 1543.34 781.773 1546.44 Q778.301 1549.52 771.982 1549.52 Q769.806 1549.52 767.537 1549.15 Q765.292 1548.78 762.884 1548.04 L762.884 1543.34 Q764.968 1544.47 767.19 1545.03 Q769.412 1545.58 771.889 1545.58 Q775.894 1545.58 778.232 1543.48 Q780.57 1541.37 780.57 1537.76 Q780.57 1534.15 778.232 1532.04 Q775.894 1529.94 771.889 1529.94 Q770.014 1529.94 768.139 1530.35 Q766.287 1530.77 764.343 1531.65 L764.343 1514.29 Z" fill="#000000" fill-rule="nonzero" fill-opacity="1" /><path clip-path="url(#clip760)" d="M1216.56 1517.37 Q1212.95 1517.37 1211.12 1520.93 Q1209.32 1524.47 1209.32 1531.6 Q1209.32 1538.71 1211.12 1542.27 Q1212.95 1545.82 1216.56 1545.82 Q1220.2 1545.82 1222 1542.27 Q1223.83 1538.71 1223.83 1531.6 Q1223.83 1524.47 1222 1520.93 Q1220.2 1517.37 1216.56 1517.37 M1216.56 1513.66 Q1222.37 1513.66 1225.43 1518.27 Q1228.51 1522.85 1228.51 1531.6 Q1228.51 1540.33 1225.43 1544.94 Q1222.37 1549.52 1216.56 1549.52 Q1210.75 1549.52 1207.68 1544.94 Q1204.62 1540.33 1204.62 1531.6 Q1204.62 1522.85 1207.68 1518.27 Q1210.75 1513.66 1216.56 1513.66 Z" fill="#000000" fill-rule="nonzero" fill-opacity="1" /><path clip-path="url(#clip760)" d="M1236.73 1542.97 L1241.61 1542.97 L1241.61 1548.85 L1236.73 1548.85 L1236.73 1542.97 Z" fill="#000000" fill-rule="nonzero" fill-opacity="1" /><path clip-path="url(#clip760)" d="M1251.84 1514.29 L1270.2 1514.29 L1270.2 1518.22 L1256.12 1518.22 L1256.12 1526.7 Q1257.14 1526.35 1258.16 1526.19 Q1259.18 1526 1260.2 1526 Q1265.98 1526 1269.36 1529.17 Q1272.74 1532.34 1272.74 1537.76 Q1272.74 1543.34 1269.27 1546.44 Q1265.8 1549.52 1259.48 1549.52 Q1257.3 1549.52 1255.04 1549.15 Q1252.79 1548.78 1250.38 1548.04 L1250.38 1543.34 Q1252.47 1544.47 1254.69 1545.03 Q1256.91 1545.58 1259.39 1545.58 Q1263.39 1545.58 1265.73 1543.48 Q1268.07 1541.37 1268.07 1537.76 Q1268.07 1534.15 1265.73 1532.04 Q1263.39 1529.94 1259.39 1529.94 Q1257.51 1529.94 1255.64 1530.35 Q1253.79 1530.77 1251.84 1531.65 L1251.84 1514.29 Z" fill="#000000" fill-rule="nonzero" fill-opacity="1" /><path clip-path="url(#clip760)" d="M1291.96 1517.37 Q1288.35 1517.37 1286.52 1520.93 Q1284.71 1524.47 1284.71 1531.6 Q1284.71 1538.71 1286.52 1542.27 Q1288.35 1545.82 1291.96 1545.82 Q1295.59 1545.82 1297.4 1542.27 Q1299.23 1538.71 1299.23 1531.6 Q1299.23 1524.47 1297.4 1520.93 Q1295.59 1517.37 1291.96 1517.37 M1291.96 1513.66 Q1297.77 1513.66 1300.82 1518.27 Q1303.9 1522.85 1303.9 1531.6 Q1303.9 1540.33 1300.82 1544.94 Q1297.77 1549.52 1291.96 1549.52 Q1286.15 1549.52 1283.07 1544.94 Q1280.01 1540.33 1280.01 1531.6 Q1280.01 1522.85 1283.07 1518.27 Q1286.15 1513.66 1291.96 1513.66 Z" fill="#000000" fill-rule="nonzero" fill-opacity="1" /><path clip-path="url(#clip760)" d="M1735.22 1517.37 Q1731.61 1517.37 1729.78 1520.93 Q1727.97 1524.47 1727.97 1531.6 Q1727.97 1538.71 1729.78 1542.27 Q1731.61 1545.82 1735.22 1545.82 Q1738.85 1545.82 1740.66 1542.27 Q1742.49 1538.71 1742.49 1531.6 Q1742.49 1524.47 1740.66 1520.93 Q1738.85 1517.37 1735.22 1517.37 M1735.22 1513.66 Q1741.03 1513.66 1744.09 1518.27 Q1747.16 1522.85 1747.16 1531.6 Q1747.16 1540.33 1744.09 1544.94 Q1741.03 1549.52 1735.22 1549.52 Q1729.41 1549.52 1726.33 1544.94 Q1723.28 1540.33 1723.28 1531.6 Q1723.28 1522.85 1726.33 1518.27 Q1729.41 1513.66 1735.22 1513.66 Z" fill="#000000" fill-rule="nonzero" fill-opacity="1" /><path clip-path="url(#clip760)" d="M1755.38 1542.97 L1760.27 1542.97 L1760.27 1548.85 L1755.38 1548.85 L1755.38 1542.97 Z" fill="#000000" fill-rule="nonzero" fill-opacity="1" /><path clip-path="url(#clip760)" d="M1769.27 1514.29 L1791.49 1514.29 L1791.49 1516.28 L1778.95 1548.85 L1774.06 1548.85 L1785.87 1518.22 L1769.27 1518.22 L1769.27 1514.29 Z" fill="#000000" fill-rule="nonzero" fill-opacity="1" /><path clip-path="url(#clip760)" d="M1800.66 1514.29 L1819.02 1514.29 L1819.02 1518.22 L1804.94 1518.22 L1804.94 1526.7 Q1805.96 1526.35 1806.98 1526.19 Q1808 1526 1809.02 1526 Q1814.8 1526 1818.18 1529.17 Q1821.56 1532.34 1821.56 1537.76 Q1821.56 1543.34 1818.09 1546.44 Q1814.62 1549.52 1808.3 1549.52 Q1806.12 1549.52 1803.85 1549.15 Q1801.61 1548.78 1799.2 1548.04 L1799.2 1543.34 Q1801.28 1544.47 1803.51 1545.03 Q1805.73 1545.58 1808.21 1545.58 Q1812.21 1545.58 1814.55 1543.48 Q1816.89 1541.37 1816.89 1537.76 Q1816.89 1534.15 1814.55 1532.04 Q1812.21 1529.94 1808.21 1529.94 Q1806.33 1529.94 1804.46 1530.35 Q1802.6 1530.77 1800.66 1531.65 L1800.66 1514.29 Z" fill="#000000" fill-rule="nonzero" fill-opacity="1" /><path clip-path="url(#clip760)" d="M2242.65 1544.91 L2250.29 1544.91 L2250.29 1518.55 L2241.98 1520.21 L2241.98 1515.95 L2250.24 1514.29 L2254.92 1514.29 L2254.92 1544.91 L2262.56 1544.91 L2262.56 1548.85 L2242.65 1548.85 L2242.65 1544.91 Z" fill="#000000" fill-rule="nonzero" fill-opacity="1" /><path clip-path="url(#clip760)" d="M2272 1542.97 L2276.88 1542.97 L2276.88 1548.85 L2272 1548.85 L2272 1542.97 Z" fill="#000000" fill-rule="nonzero" fill-opacity="1" /><path clip-path="url(#clip760)" d="M2297.07 1517.37 Q2293.46 1517.37 2291.63 1520.93 Q2289.82 1524.47 2289.82 1531.6 Q2289.82 1538.71 2291.63 1542.27 Q2293.46 1545.82 2297.07 1545.82 Q2300.7 1545.82 2302.51 1542.27 Q2304.34 1538.71 2304.34 1531.6 Q2304.34 1524.47 2302.51 1520.93 Q2300.7 1517.37 2297.07 1517.37 M2297.07 1513.66 Q2302.88 1513.66 2305.94 1518.27 Q2309.01 1522.85 2309.01 1531.6 Q2309.01 1540.33 2305.94 1544.94 Q2302.88 1549.52 2297.07 1549.52 Q2291.26 1549.52 2288.18 1544.94 Q2285.13 1540.33 2285.13 1531.6 Q2285.13 1522.85 2288.18 1518.27 Q2291.26 1513.66 2297.07 1513.66 Z" fill="#000000" fill-rule="nonzero" fill-opacity="1" /><path clip-path="url(#clip760)" d="M2327.23 1517.37 Q2323.62 1517.37 2321.79 1520.93 Q2319.99 1524.47 2319.99 1531.6 Q2319.99 1538.71 2321.79 1542.27 Q2323.62 1545.82 2327.23 1545.82 Q2330.87 1545.82 2332.67 1542.27 Q2334.5 1538.71 2334.5 1531.6 Q2334.5 1524.47 2332.67 1520.93 Q2330.87 1517.37 2327.23 1517.37 M2327.23 1513.66 Q2333.04 1513.66 2336.1 1518.27 Q2339.18 1522.85 2339.18 1531.6 Q2339.18 1540.33 2336.1 1544.94 Q2333.04 1549.52 2327.23 1549.52 Q2321.42 1549.52 2318.34 1544.94 Q2315.29 1540.33 2315.29 1531.6 Q2315.29 1522.85 2318.34 1518.27 Q2321.42 1513.66 2327.23 1513.66 Z" fill="#000000" fill-rule="nonzero" fill-opacity="1" /><polyline clip-path="url(#clip760)" style="stroke:#000000; stroke-linecap:round; stroke-linejoin:round; stroke-width:4; stroke-opacity:1; fill:none" points="155.765,1486.45 155.765,47.2441 "/>
<polyline clip-path="url(#clip760)" style="stroke:#000000; stroke-linecap:round; stroke-linejoin:round; stroke-width:4; stroke-opacity:1; fill:none" points="155.765,1358.94 174.663,1358.94 "/>
<polyline clip-path="url(#clip760)" style="stroke:#000000; stroke-linecap:round; stroke-linejoin:round; stroke-width:4; stroke-opacity:1; fill:none" points="155.765,1145.05 174.663,1145.05 "/>
<polyline clip-path="url(#clip760)" style="stroke:#000000; stroke-linecap:round; stroke-linejoin:round; stroke-width:4; stroke-opacity:1; fill:none" points="155.765,931.157 174.663,931.157 "/>
<polyline clip-path="url(#clip760)" style="stroke:#000000; stroke-linecap:round; stroke-linejoin:round; stroke-width:4; stroke-opacity:1; fill:none" points="155.765,717.266 174.663,717.266 "/>
<polyline clip-path="url(#clip760)" style="stroke:#000000; stroke-linecap:round; stroke-linejoin:round; stroke-width:4; stroke-opacity:1; fill:none" points="155.765,503.375 174.663,503.375 "/>
<polyline clip-path="url(#clip760)" style="stroke:#000000; stroke-linecap:round; stroke-linejoin:round; stroke-width:4; stroke-opacity:1; fill:none" points="155.765,289.484 174.663,289.484 "/>
<polyline clip-path="url(#clip760)" style="stroke:#000000; stroke-linecap:round; stroke-linejoin:round; stroke-width:4; stroke-opacity:1; fill:none" points="155.765,75.5932 174.663,75.5932 "/>
<path clip-path="url(#clip760)" d="M63.5847 1344.74 Q59.9736 1344.74 58.1449 1348.3 Q56.3393 1351.84 56.3393 1358.97 Q56.3393 1366.08 58.1449 1369.65 Q59.9736 1373.19 63.5847 1373.19 Q67.2189 1373.19 69.0244 1369.65 Q70.8531 1366.08 70.8531 1358.97 Q70.8531 1351.84 69.0244 1348.3 Q67.2189 1344.74 63.5847 1344.74 M63.5847 1341.03 Q69.3948 1341.03 72.4503 1345.64 Q75.529 1350.22 75.529 1358.97 Q75.529 1367.7 72.4503 1372.31 Q69.3948 1376.89 63.5847 1376.89 Q57.7745 1376.89 54.6958 1372.31 Q51.6403 1367.7 51.6403 1358.97 Q51.6403 1350.22 54.6958 1345.64 Q57.7745 1341.03 63.5847 1341.03 Z" fill="#000000" fill-rule="nonzero" fill-opacity="1" /><path clip-path="url(#clip760)" d="M83.7466 1370.34 L88.6308 1370.34 L88.6308 1376.22 L83.7466 1376.22 L83.7466 1370.34 Z" fill="#000000" fill-rule="nonzero" fill-opacity="1" /><path clip-path="url(#clip760)" d="M98.8622 1341.66 L117.219 1341.66 L117.219 1345.59 L103.145 1345.59 L103.145 1354.07 Q104.163 1353.72 105.182 1353.56 Q106.2 1353.37 107.219 1353.37 Q113.006 1353.37 116.385 1356.54 Q119.765 1359.71 119.765 1365.13 Q119.765 1370.71 116.293 1373.81 Q112.82 1376.89 106.501 1376.89 Q104.325 1376.89 102.057 1376.52 Q99.8113 1376.15 97.4039 1375.41 L97.4039 1370.71 Q99.4872 1371.84 101.709 1372.4 Q103.932 1372.96 106.408 1372.96 Q110.413 1372.96 112.751 1370.85 Q115.089 1368.74 115.089 1365.13 Q115.089 1361.52 112.751 1359.41 Q110.413 1357.31 106.408 1357.31 Q104.534 1357.31 102.659 1357.72 Q100.807 1358.14 98.8622 1359.02 L98.8622 1341.66 Z" fill="#000000" fill-rule="nonzero" fill-opacity="1" /><path clip-path="url(#clip760)" d="M53.3995 1158.39 L61.0384 1158.39 L61.0384 1132.03 L52.7282 1133.69 L52.7282 1129.43 L60.9921 1127.77 L65.668 1127.77 L65.668 1158.39 L73.3068 1158.39 L73.3068 1162.33 L53.3995 1162.33 L53.3995 1158.39 Z" fill="#000000" fill-rule="nonzero" fill-opacity="1" /><path clip-path="url(#clip760)" d="M82.7512 1156.45 L87.6354 1156.45 L87.6354 1162.33 L82.7512 1162.33 L82.7512 1156.45 Z" fill="#000000" fill-rule="nonzero" fill-opacity="1" /><path clip-path="url(#clip760)" d="M107.821 1130.85 Q104.209 1130.85 102.381 1134.41 Q100.575 1137.95 100.575 1145.08 Q100.575 1152.19 102.381 1155.75 Q104.209 1159.3 107.821 1159.3 Q111.455 1159.3 113.26 1155.75 Q115.089 1152.19 115.089 1145.08 Q115.089 1137.95 113.26 1134.41 Q111.455 1130.85 107.821 1130.85 M107.821 1127.14 Q113.631 1127.14 116.686 1131.75 Q119.765 1136.33 119.765 1145.08 Q119.765 1153.81 116.686 1158.42 Q113.631 1163 107.821 1163 Q102.01 1163 98.9317 1158.42 Q95.8761 1153.81 95.8761 1145.08 Q95.8761 1136.33 98.9317 1131.75 Q102.01 1127.14 107.821 1127.14 Z" fill="#000000" fill-rule="nonzero" fill-opacity="1" /><path clip-path="url(#clip760)" d="M54.3949 944.502 L62.0337 944.502 L62.0337 918.136 L53.7236 919.803 L53.7236 915.544 L61.9874 913.877 L66.6633 913.877 L66.6633 944.502 L74.3022 944.502 L74.3022 948.437 L54.3949 948.437 L54.3949 944.502 Z" fill="#000000" fill-rule="nonzero" fill-opacity="1" /><path clip-path="url(#clip760)" d="M83.7466 942.558 L88.6308 942.558 L88.6308 948.437 L83.7466 948.437 L83.7466 942.558 Z" fill="#000000" fill-rule="nonzero" fill-opacity="1" /><path clip-path="url(#clip760)" d="M98.8622 913.877 L117.219 913.877 L117.219 917.812 L103.145 917.812 L103.145 926.284 Q104.163 925.937 105.182 925.775 Q106.2 925.59 107.219 925.59 Q113.006 925.59 116.385 928.761 Q119.765 931.933 119.765 937.349 Q119.765 942.928 116.293 946.03 Q112.82 949.108 106.501 949.108 Q104.325 949.108 102.057 948.738 Q99.8113 948.368 97.4039 947.627 L97.4039 942.928 Q99.4872 944.062 101.709 944.618 Q103.932 945.173 106.408 945.173 Q110.413 945.173 112.751 943.067 Q115.089 940.96 115.089 937.349 Q115.089 933.738 112.751 931.632 Q110.413 929.525 106.408 929.525 Q104.534 929.525 102.659 929.942 Q100.807 930.359 98.8622 931.238 L98.8622 913.877 Z" fill="#000000" fill-rule="nonzero" fill-opacity="1" /><path clip-path="url(#clip760)" d="M56.6171 730.611 L72.9365 730.611 L72.9365 734.546 L50.9921 734.546 L50.9921 730.611 Q53.6541 727.856 58.2375 723.227 Q62.8439 718.574 64.0245 717.231 Q66.2698 714.708 67.1494 712.972 Q68.0522 711.213 68.0522 709.523 Q68.0522 706.769 66.1078 705.032 Q64.1865 703.296 61.0847 703.296 Q58.8856 703.296 56.4319 704.06 Q54.0014 704.824 51.2236 706.375 L51.2236 701.653 Q54.0477 700.519 56.5014 699.94 Q58.955 699.361 60.9921 699.361 Q66.3624 699.361 69.5568 702.046 Q72.7513 704.731 72.7513 709.222 Q72.7513 711.352 71.9411 713.273 Q71.1541 715.171 69.0476 717.764 Q68.4689 718.435 65.367 721.653 Q62.2652 724.847 56.6171 730.611 Z" fill="#000000" fill-rule="nonzero" fill-opacity="1" /><path clip-path="url(#clip760)" d="M82.7512 728.667 L87.6354 728.667 L87.6354 734.546 L82.7512 734.546 L82.7512 728.667 Z" fill="#000000" fill-rule="nonzero" fill-opacity="1" /><path clip-path="url(#clip760)" d="M107.821 703.065 Q104.209 703.065 102.381 706.63 Q100.575 710.171 100.575 717.301 Q100.575 724.407 102.381 727.972 Q104.209 731.514 107.821 731.514 Q111.455 731.514 113.26 727.972 Q115.089 724.407 115.089 717.301 Q115.089 710.171 113.26 706.63 Q111.455 703.065 107.821 703.065 M107.821 699.361 Q113.631 699.361 116.686 703.968 Q119.765 708.551 119.765 717.301 Q119.765 726.028 116.686 730.634 Q113.631 735.217 107.821 735.217 Q102.01 735.217 98.9317 730.634 Q95.8761 726.028 95.8761 717.301 Q95.8761 708.551 98.9317 703.968 Q102.01 699.361 107.821 699.361 Z" fill="#000000" fill-rule="nonzero" fill-opacity="1" /><path clip-path="url(#clip760)" d="M57.6125 516.72 L73.9318 516.72 L73.9318 520.655 L51.9875 520.655 L51.9875 516.72 Q54.6495 513.965 59.2328 509.336 Q63.8393 504.683 65.0198 503.34 Q67.2652 500.817 68.1448 499.081 Q69.0476 497.322 69.0476 495.632 Q69.0476 492.878 67.1032 491.141 Q65.1819 489.405 62.08 489.405 Q59.881 489.405 57.4273 490.169 Q54.9967 490.933 52.219 492.484 L52.219 487.762 Q55.043 486.628 57.4967 486.049 Q59.9504 485.47 61.9874 485.47 Q67.3578 485.47 70.5522 488.155 Q73.7466 490.84 73.7466 495.331 Q73.7466 497.461 72.9365 499.382 Q72.1494 501.28 70.0429 503.873 Q69.4642 504.544 66.3624 507.762 Q63.2606 510.956 57.6125 516.72 Z" fill="#000000" fill-rule="nonzero" fill-opacity="1" /><path clip-path="url(#clip760)" d="M83.7466 514.776 L88.6308 514.776 L88.6308 520.655 L83.7466 520.655 L83.7466 514.776 Z" fill="#000000" fill-rule="nonzero" fill-opacity="1" /><path clip-path="url(#clip760)" d="M98.8622 486.095 L117.219 486.095 L117.219 490.03 L103.145 490.03 L103.145 498.502 Q104.163 498.155 105.182 497.993 Q106.2 497.808 107.219 497.808 Q113.006 497.808 116.385 500.979 Q119.765 504.151 119.765 509.567 Q119.765 515.146 116.293 518.248 Q112.82 521.326 106.501 521.326 Q104.325 521.326 102.057 520.956 Q99.8113 520.586 97.4039 519.845 L97.4039 515.146 Q99.4872 516.28 101.709 516.836 Q103.932 517.391 106.408 517.391 Q110.413 517.391 112.751 515.285 Q115.089 513.178 115.089 509.567 Q115.089 505.956 112.751 503.85 Q110.413 501.743 106.408 501.743 Q104.534 501.743 102.659 502.16 Q100.807 502.577 98.8622 503.456 L98.8622 486.095 Z" fill="#000000" fill-rule="nonzero" fill-opacity="1" /><path clip-path="url(#clip760)" d="M66.7559 288.13 Q70.1124 288.848 71.9874 291.116 Q73.8855 293.385 73.8855 296.718 Q73.8855 301.834 70.367 304.635 Q66.8485 307.435 60.3671 307.435 Q58.1912 307.435 55.8764 306.996 Q53.5847 306.579 51.131 305.722 L51.131 301.209 Q53.0754 302.343 55.3903 302.922 Q57.7051 303.5 60.2282 303.5 Q64.6263 303.5 66.918 301.764 Q69.2328 300.028 69.2328 296.718 Q69.2328 293.662 67.08 291.949 Q64.9504 290.213 61.131 290.213 L57.1032 290.213 L57.1032 286.371 L61.3161 286.371 Q64.7652 286.371 66.5939 285.005 Q68.4226 283.616 68.4226 281.024 Q68.4226 278.362 66.5245 276.95 Q64.6495 275.514 61.131 275.514 Q59.2097 275.514 57.0106 275.931 Q54.8115 276.348 52.1727 277.227 L52.1727 273.061 Q54.8347 272.32 57.1495 271.95 Q59.4875 271.579 61.5476 271.579 Q66.8717 271.579 69.9735 274.01 Q73.0753 276.417 73.0753 280.537 Q73.0753 283.408 71.4318 285.399 Q69.7883 287.366 66.7559 288.13 Z" fill="#000000" fill-rule="nonzero" fill-opacity="1" /><path clip-path="url(#clip760)" d="M82.7512 300.885 L87.6354 300.885 L87.6354 306.764 L82.7512 306.764 L82.7512 300.885 Z" fill="#000000" fill-rule="nonzero" fill-opacity="1" /><path clip-path="url(#clip760)" d="M107.821 275.283 Q104.209 275.283 102.381 278.848 Q100.575 282.389 100.575 289.519 Q100.575 296.625 102.381 300.19 Q104.209 303.732 107.821 303.732 Q111.455 303.732 113.26 300.19 Q115.089 296.625 115.089 289.519 Q115.089 282.389 113.26 278.848 Q111.455 275.283 107.821 275.283 M107.821 271.579 Q113.631 271.579 116.686 276.186 Q119.765 280.769 119.765 289.519 Q119.765 298.246 116.686 302.852 Q113.631 307.435 107.821 307.435 Q102.01 307.435 98.9317 302.852 Q95.8761 298.246 95.8761 289.519 Q95.8761 280.769 98.9317 276.186 Q102.01 271.579 107.821 271.579 Z" fill="#000000" fill-rule="nonzero" fill-opacity="1" /><path clip-path="url(#clip760)" d="M67.7513 74.239 Q71.1078 74.9566 72.9827 77.2251 Q74.8809 79.4936 74.8809 82.8269 Q74.8809 87.9426 71.3624 90.7436 Q67.8439 93.5445 61.3624 93.5445 Q59.1865 93.5445 56.8717 93.1047 Q54.5801 92.688 52.1264 91.8315 L52.1264 87.3176 Q54.0708 88.4519 56.3856 89.0306 Q58.7004 89.6093 61.2236 89.6093 Q65.6217 89.6093 67.9133 87.8732 Q70.2281 86.1371 70.2281 82.8269 Q70.2281 79.7714 68.0754 78.0584 Q65.9457 76.3223 62.1263 76.3223 L58.0986 76.3223 L58.0986 72.4798 L62.3115 72.4798 Q65.7606 72.4798 67.5893 71.114 Q69.418 69.7251 69.418 67.1326 Q69.418 64.4705 67.5198 63.0585 Q65.6448 61.6233 62.1263 61.6233 Q60.205 61.6233 58.006 62.04 Q55.8069 62.4567 53.168 63.3363 L53.168 59.1696 Q55.8301 58.4289 58.1449 58.0585 Q60.4828 57.6882 62.543 57.6882 Q67.867 57.6882 70.9689 60.1187 Q74.0707 62.5261 74.0707 66.6465 Q74.0707 69.5168 72.4272 71.5075 Q70.7837 73.4751 67.7513 74.239 Z" fill="#000000" fill-rule="nonzero" fill-opacity="1" /><path clip-path="url(#clip760)" d="M83.7466 86.9936 L88.6308 86.9936 L88.6308 92.8732 L83.7466 92.8732 L83.7466 86.9936 Z" fill="#000000" fill-rule="nonzero" fill-opacity="1" /><path clip-path="url(#clip760)" d="M98.8622 58.3132 L117.219 58.3132 L117.219 62.2483 L103.145 62.2483 L103.145 70.7205 Q104.163 70.3733 105.182 70.2113 Q106.2 70.0261 107.219 70.0261 Q113.006 70.0261 116.385 73.1973 Q119.765 76.3686 119.765 81.7853 Q119.765 87.3639 116.293 90.4658 Q112.82 93.5445 106.501 93.5445 Q104.325 93.5445 102.057 93.1741 Q99.8113 92.8037 97.4039 92.063 L97.4039 87.3639 Q99.4872 88.4982 101.709 89.0537 Q103.932 89.6093 106.408 89.6093 Q110.413 89.6093 112.751 87.5028 Q115.089 85.3964 115.089 81.7853 Q115.089 78.1742 112.751 76.0677 Q110.413 73.9612 106.408 73.9612 Q104.534 73.9612 102.659 74.3779 Q100.807 74.7946 98.8622 75.6742 L98.8622 58.3132 Z" fill="#000000" fill-rule="nonzero" fill-opacity="1" /><polyline clip-path="url(#clip761)" style="stroke:#009af9; stroke-linecap:round; stroke-linejoin:round; stroke-width:12; stroke-opacity:1; fill:none" points="217.944,1358.94 425.207,1390.13 632.47,1340.29 839.734,1307.16 1047,1243.74 1254.26,1273.59 1461.52,1222.2 1668.79,1216.58 1876.05,1220.89 2083.31,1193.63 2290.58,1088.31 "/>
<polyline clip-path="url(#clip761)" style="stroke:#000000; stroke-linecap:round; stroke-linejoin:round; stroke-width:12; stroke-opacity:1; fill:none" points="217.944,1358.94 217.944,1358.94 "/>
<polyline clip-path="url(#clip761)" style="stroke:#000000; stroke-linecap:round; stroke-linejoin:round; stroke-width:12; stroke-opacity:1; fill:none" points="425.207,1425.66 425.207,1300.16 "/>
<polyline clip-path="url(#clip761)" style="stroke:#000000; stroke-linecap:round; stroke-linejoin:round; stroke-width:12; stroke-opacity:1; fill:none" points="632.47,1445.72 632.47,1193.76 "/>
<polyline clip-path="url(#clip761)" style="stroke:#000000; stroke-linecap:round; stroke-linejoin:round; stroke-width:12; stroke-opacity:1; fill:none" points="839.734,1422.09 839.734,1112.6 "/>
<polyline clip-path="url(#clip761)" style="stroke:#000000; stroke-linecap:round; stroke-linejoin:round; stroke-width:12; stroke-opacity:1; fill:none" points="1047,1377.33 1047,1030.02 "/>
<polyline clip-path="url(#clip761)" style="stroke:#000000; stroke-linecap:round; stroke-linejoin:round; stroke-width:12; stroke-opacity:1; fill:none" points="1254.26,1368.29 1254.26,976.688 "/>
<polyline clip-path="url(#clip761)" style="stroke:#000000; stroke-linecap:round; stroke-linejoin:round; stroke-width:12; stroke-opacity:1; fill:none" points="1461.52,1385.12 1461.52,926.933 "/>
<polyline clip-path="url(#clip761)" style="stroke:#000000; stroke-linecap:round; stroke-linejoin:round; stroke-width:12; stroke-opacity:1; fill:none" points="1668.79,1341.52 1668.79,811.907 "/>
<polyline clip-path="url(#clip761)" style="stroke:#000000; stroke-linecap:round; stroke-linejoin:round; stroke-width:12; stroke-opacity:1; fill:none" points="1876.05,1348.09 1876.05,649.306 "/>
<polyline clip-path="url(#clip761)" style="stroke:#000000; stroke-linecap:round; stroke-linejoin:round; stroke-width:12; stroke-opacity:1; fill:none" points="2083.31,1384.37 2083.31,521.142 "/>
<polyline clip-path="url(#clip761)" style="stroke:#000000; stroke-linecap:round; stroke-linejoin:round; stroke-width:12; stroke-opacity:1; fill:none" points="2290.58,1388.98 2290.58,284.769 "/>
<line clip-path="url(#clip761)" x1="233.944" y1="1358.94" x2="201.944" y2="1358.94" style="stroke:#000000; stroke-width:12; stroke-opacity:1"/>
<line clip-path="url(#clip761)" x1="233.944" y1="1358.94" x2="201.944" y2="1358.94" style="stroke:#000000; stroke-width:12; stroke-opacity:1"/>
<line clip-path="url(#clip761)" x1="441.207" y1="1425.66" x2="409.207" y2="1425.66" style="stroke:#000000; stroke-width:12; stroke-opacity:1"/>
<line clip-path="url(#clip761)" x1="441.207" y1="1300.16" x2="409.207" y2="1300.16" style="stroke:#000000; stroke-width:12; stroke-opacity:1"/>
<line clip-path="url(#clip761)" x1="648.47" y1="1445.72" x2="616.47" y2="1445.72" style="stroke:#000000; stroke-width:12; stroke-opacity:1"/>
<line clip-path="url(#clip761)" x1="648.47" y1="1193.76" x2="616.47" y2="1193.76" style="stroke:#000000; stroke-width:12; stroke-opacity:1"/>
<line clip-path="url(#clip761)" x1="855.734" y1="1422.09" x2="823.734" y2="1422.09" style="stroke:#000000; stroke-width:12; stroke-opacity:1"/>
<line clip-path="url(#clip761)" x1="855.734" y1="1112.6" x2="823.734" y2="1112.6" style="stroke:#000000; stroke-width:12; stroke-opacity:1"/>
<line clip-path="url(#clip761)" x1="1063" y1="1377.33" x2="1031" y2="1377.33" style="stroke:#000000; stroke-width:12; stroke-opacity:1"/>
<line clip-path="url(#clip761)" x1="1063" y1="1030.02" x2="1031" y2="1030.02" style="stroke:#000000; stroke-width:12; stroke-opacity:1"/>
<line clip-path="url(#clip761)" x1="1270.26" y1="1368.29" x2="1238.26" y2="1368.29" style="stroke:#000000; stroke-width:12; stroke-opacity:1"/>
<line clip-path="url(#clip761)" x1="1270.26" y1="976.688" x2="1238.26" y2="976.688" style="stroke:#000000; stroke-width:12; stroke-opacity:1"/>
<line clip-path="url(#clip761)" x1="1477.52" y1="1385.12" x2="1445.52" y2="1385.12" style="stroke:#000000; stroke-width:12; stroke-opacity:1"/>
<line clip-path="url(#clip761)" x1="1477.52" y1="926.933" x2="1445.52" y2="926.933" style="stroke:#000000; stroke-width:12; stroke-opacity:1"/>
<line clip-path="url(#clip761)" x1="1684.79" y1="1341.52" x2="1652.79" y2="1341.52" style="stroke:#000000; stroke-width:12; stroke-opacity:1"/>
<line clip-path="url(#clip761)" x1="1684.79" y1="811.907" x2="1652.79" y2="811.907" style="stroke:#000000; stroke-width:12; stroke-opacity:1"/>
<line clip-path="url(#clip761)" x1="1892.05" y1="1348.09" x2="1860.05" y2="1348.09" style="stroke:#000000; stroke-width:12; stroke-opacity:1"/>
<line clip-path="url(#clip761)" x1="1892.05" y1="649.306" x2="1860.05" y2="649.306" style="stroke:#000000; stroke-width:12; stroke-opacity:1"/>
<line clip-path="url(#clip761)" x1="2099.31" y1="1384.37" x2="2067.31" y2="1384.37" style="stroke:#000000; stroke-width:12; stroke-opacity:1"/>
<line clip-path="url(#clip761)" x1="2099.31" y1="521.142" x2="2067.31" y2="521.142" style="stroke:#000000; stroke-width:12; stroke-opacity:1"/>
<line clip-path="url(#clip761)" x1="2306.58" y1="1388.98" x2="2274.58" y2="1388.98" style="stroke:#000000; stroke-width:12; stroke-opacity:1"/>
<line clip-path="url(#clip761)" x1="2306.58" y1="284.769" x2="2274.58" y2="284.769" style="stroke:#000000; stroke-width:12; stroke-opacity:1"/>
<polyline clip-path="url(#clip761)" style="stroke:#e26f46; stroke-linecap:round; stroke-linejoin:round; stroke-width:12; stroke-opacity:1; fill:none" points="217.944,1358.94 425.207,1313.61 632.47,1301.61 839.734,1287.55 1047,1267.81 1254.26,1255.76 1461.52,1230.51 1668.79,1150.21 1876.05,1106.86 2083.31,1060.91 2290.58,1076.6 "/>
<polyline clip-path="url(#clip761)" style="stroke:#000000; stroke-linecap:round; stroke-linejoin:round; stroke-width:12; stroke-opacity:1; fill:none" points="217.944,1358.94 217.944,1358.94 "/>
<polyline clip-path="url(#clip761)" style="stroke:#000000; stroke-linecap:round; stroke-linejoin:round; stroke-width:12; stroke-opacity:1; fill:none" points="425.207,1407.59 425.207,1249.32 "/>
<polyline clip-path="url(#clip761)" style="stroke:#000000; stroke-linecap:round; stroke-linejoin:round; stroke-width:12; stroke-opacity:1; fill:none" points="632.47,1387.93 632.47,1107.15 "/>
<polyline clip-path="url(#clip761)" style="stroke:#000000; stroke-linecap:round; stroke-linejoin:round; stroke-width:12; stroke-opacity:1; fill:none" points="839.734,1376.93 839.734,896.285 "/>
<polyline clip-path="url(#clip761)" style="stroke:#000000; stroke-linecap:round; stroke-linejoin:round; stroke-width:12; stroke-opacity:1; fill:none" points="1047,1369.58 1047,757.781 "/>
<polyline clip-path="url(#clip761)" style="stroke:#000000; stroke-linecap:round; stroke-linejoin:round; stroke-width:12; stroke-opacity:1; fill:none" points="1254.26,1403.1 1254.26,667.79 "/>
<polyline clip-path="url(#clip761)" style="stroke:#000000; stroke-linecap:round; stroke-linejoin:round; stroke-width:12; stroke-opacity:1; fill:none" points="1461.52,1410.15 1461.52,155.214 "/>
<polyline clip-path="url(#clip761)" style="stroke:#000000; stroke-linecap:round; stroke-linejoin:round; stroke-width:12; stroke-opacity:1; fill:none" points="1668.79,1402.23 1668.79,87.9763 "/>
<polyline clip-path="url(#clip761)" style="stroke:#000000; stroke-linecap:round; stroke-linejoin:round; stroke-width:12; stroke-opacity:1; fill:none" points="1876.05,1380 1876.05,145.478 "/>
<polyline clip-path="url(#clip761)" style="stroke:#000000; stroke-linecap:round; stroke-linejoin:round; stroke-width:12; stroke-opacity:1; fill:none" points="2083.31,1359.08 2083.31,242.912 "/>
<polyline clip-path="url(#clip761)" style="stroke:#000000; stroke-linecap:round; stroke-linejoin:round; stroke-width:12; stroke-opacity:1; fill:none" points="2290.58,1342.35 2290.58,531.263 "/>
<line clip-path="url(#clip761)" x1="233.944" y1="1358.94" x2="201.944" y2="1358.94" style="stroke:#000000; stroke-width:12; stroke-opacity:1"/>
<line clip-path="url(#clip761)" x1="233.944" y1="1358.94" x2="201.944" y2="1358.94" style="stroke:#000000; stroke-width:12; stroke-opacity:1"/>
<line clip-path="url(#clip761)" x1="441.207" y1="1407.59" x2="409.207" y2="1407.59" style="stroke:#000000; stroke-width:12; stroke-opacity:1"/>
<line clip-path="url(#clip761)" x1="441.207" y1="1249.32" x2="409.207" y2="1249.32" style="stroke:#000000; stroke-width:12; stroke-opacity:1"/>
<line clip-path="url(#clip761)" x1="648.47" y1="1387.93" x2="616.47" y2="1387.93" style="stroke:#000000; stroke-width:12; stroke-opacity:1"/>
<line clip-path="url(#clip761)" x1="648.47" y1="1107.15" x2="616.47" y2="1107.15" style="stroke:#000000; stroke-width:12; stroke-opacity:1"/>
<line clip-path="url(#clip761)" x1="855.734" y1="1376.93" x2="823.734" y2="1376.93" style="stroke:#000000; stroke-width:12; stroke-opacity:1"/>
<line clip-path="url(#clip761)" x1="855.734" y1="896.285" x2="823.734" y2="896.285" style="stroke:#000000; stroke-width:12; stroke-opacity:1"/>
<line clip-path="url(#clip761)" x1="1063" y1="1369.58" x2="1031" y2="1369.58" style="stroke:#000000; stroke-width:12; stroke-opacity:1"/>
<line clip-path="url(#clip761)" x1="1063" y1="757.781" x2="1031" y2="757.781" style="stroke:#000000; stroke-width:12; stroke-opacity:1"/>
<line clip-path="url(#clip761)" x1="1270.26" y1="1403.1" x2="1238.26" y2="1403.1" style="stroke:#000000; stroke-width:12; stroke-opacity:1"/>
<line clip-path="url(#clip761)" x1="1270.26" y1="667.79" x2="1238.26" y2="667.79" style="stroke:#000000; stroke-width:12; stroke-opacity:1"/>
<line clip-path="url(#clip761)" x1="1477.52" y1="1410.15" x2="1445.52" y2="1410.15" style="stroke:#000000; stroke-width:12; stroke-opacity:1"/>
<line clip-path="url(#clip761)" x1="1477.52" y1="155.214" x2="1445.52" y2="155.214" style="stroke:#000000; stroke-width:12; stroke-opacity:1"/>
<line clip-path="url(#clip761)" x1="1684.79" y1="1402.23" x2="1652.79" y2="1402.23" style="stroke:#000000; stroke-width:12; stroke-opacity:1"/>
<line clip-path="url(#clip761)" x1="1684.79" y1="87.9763" x2="1652.79" y2="87.9763" style="stroke:#000000; stroke-width:12; stroke-opacity:1"/>
<line clip-path="url(#clip761)" x1="1892.05" y1="1380" x2="1860.05" y2="1380" style="stroke:#000000; stroke-width:12; stroke-opacity:1"/>
<line clip-path="url(#clip761)" x1="1892.05" y1="145.478" x2="1860.05" y2="145.478" style="stroke:#000000; stroke-width:12; stroke-opacity:1"/>
<line clip-path="url(#clip761)" x1="2099.31" y1="1359.08" x2="2067.31" y2="1359.08" style="stroke:#000000; stroke-width:12; stroke-opacity:1"/>
<line clip-path="url(#clip761)" x1="2099.31" y1="242.912" x2="2067.31" y2="242.912" style="stroke:#000000; stroke-width:12; stroke-opacity:1"/>
<line clip-path="url(#clip761)" x1="2306.58" y1="1342.35" x2="2274.58" y2="1342.35" style="stroke:#000000; stroke-width:12; stroke-opacity:1"/>
<line clip-path="url(#clip761)" x1="2306.58" y1="531.263" x2="2274.58" y2="531.263" style="stroke:#000000; stroke-width:12; stroke-opacity:1"/>
</svg>
