<?xml version="1.0" encoding="utf-8"?>
<svg xmlns="http://www.w3.org/2000/svg" xmlns:xlink="http://www.w3.org/1999/xlink" width="600" height="400" viewBox="0 0 2400 1600">
<defs>
  <clipPath id="clip180">
    <rect x="0" y="0" width="2400" height="1600"/>
  </clipPath>
</defs>
<path clip-path="url(#clip180)" d="M0 1600 L2400 1600 L2400 0 L0 0  Z" fill="#ffffff" fill-rule="evenodd" fill-opacity="1"/>
<defs>
  <clipPath id="clip181">
    <rect x="156" y="47" width="2197" height="1440"/>
  </clipPath>
</defs>
<path clip-path="url(#clip180)" d="M156.274 1486.45 L2352.76 1486.45 L2352.76 47.2441 L156.274 47.2441  Z" fill="#ffffff" fill-rule="evenodd" fill-opacity="1"/>
<polyline clip-path="url(#clip181)" style="stroke:#000000; stroke-linecap:round; stroke-linejoin:round; stroke-width:2; stroke-opacity:0.1; fill:none" points="218.439,1486.45 218.439,47.2441 "/>
<polyline clip-path="url(#clip181)" style="stroke:#000000; stroke-linecap:round; stroke-linejoin:round; stroke-width:2; stroke-opacity:0.1; fill:none" points="736.477,1486.45 736.477,47.2441 "/>
<polyline clip-path="url(#clip181)" style="stroke:#000000; stroke-linecap:round; stroke-linejoin:round; stroke-width:2; stroke-opacity:0.1; fill:none" points="1254.52,1486.45 1254.52,47.2441 "/>
<polyline clip-path="url(#clip181)" style="stroke:#000000; stroke-linecap:round; stroke-linejoin:round; stroke-width:2; stroke-opacity:0.1; fill:none" points="1772.55,1486.45 1772.55,47.2441 "/>
<polyline clip-path="url(#clip181)" style="stroke:#000000; stroke-linecap:round; stroke-linejoin:round; stroke-width:2; stroke-opacity:0.1; fill:none" points="2290.59,1486.45 2290.59,47.2441 "/>
<polyline clip-path="url(#clip181)" style="stroke:#000000; stroke-linecap:round; stroke-linejoin:round; stroke-width:2; stroke-opacity:0.1; fill:none" points="156.274,1331.57 2352.76,1331.57 "/>
<polyline clip-path="url(#clip181)" style="stroke:#000000; stroke-linecap:round; stroke-linejoin:round; stroke-width:2; stroke-opacity:0.1; fill:none" points="156.274,1115.38 2352.76,1115.38 "/>
<polyline clip-path="url(#clip181)" style="stroke:#000000; stroke-linecap:round; stroke-linejoin:round; stroke-width:2; stroke-opacity:0.1; fill:none" points="156.274,899.191 2352.76,899.191 "/>
<polyline clip-path="url(#clip181)" style="stroke:#000000; stroke-linecap:round; stroke-linejoin:round; stroke-width:2; stroke-opacity:0.1; fill:none" points="156.274,683.004 2352.76,683.004 "/>
<polyline clip-path="url(#clip181)" style="stroke:#000000; stroke-linecap:round; stroke-linejoin:round; stroke-width:2; stroke-opacity:0.1; fill:none" points="156.274,466.816 2352.76,466.816 "/>
<polyline clip-path="url(#clip181)" style="stroke:#000000; stroke-linecap:round; stroke-linejoin:round; stroke-width:2; stroke-opacity:0.1; fill:none" points="156.274,250.628 2352.76,250.628 "/>
<polyline clip-path="url(#clip180)" style="stroke:#000000; stroke-linecap:round; stroke-linejoin:round; stroke-width:4; stroke-opacity:1; fill:none" points="156.274,1486.45 2352.76,1486.45 "/>
<polyline clip-path="url(#clip180)" style="stroke:#000000; stroke-linecap:round; stroke-linejoin:round; stroke-width:4; stroke-opacity:1; fill:none" points="218.439,1486.45 218.439,1467.55 "/>
<polyline clip-path="url(#clip180)" style="stroke:#000000; stroke-linecap:round; stroke-linejoin:round; stroke-width:4; stroke-opacity:1; fill:none" points="736.477,1486.45 736.477,1467.55 "/>
<polyline clip-path="url(#clip180)" style="stroke:#000000; stroke-linecap:round; stroke-linejoin:round; stroke-width:4; stroke-opacity:1; fill:none" points="1254.52,1486.45 1254.52,1467.55 "/>
<polyline clip-path="url(#clip180)" style="stroke:#000000; stroke-linecap:round; stroke-linejoin:round; stroke-width:4; stroke-opacity:1; fill:none" points="1772.55,1486.45 1772.55,1467.55 "/>
<polyline clip-path="url(#clip180)" style="stroke:#000000; stroke-linecap:round; stroke-linejoin:round; stroke-width:4; stroke-opacity:1; fill:none" points="2290.59,1486.45 2290.59,1467.55 "/>
<path clip-path="url(#clip180)" d="M180.742 1517.37 Q177.131 1517.37 175.302 1520.93 Q173.497 1524.47 173.497 1531.6 Q173.497 1538.71 175.302 1542.27 Q177.131 1545.82 180.742 1545.82 Q184.376 1545.82 186.182 1542.27 Q188.011 1538.71 188.011 1531.6 Q188.011 1524.47 186.182 1520.93 Q184.376 1517.37 180.742 1517.37 M180.742 1513.66 Q186.552 1513.66 189.608 1518.27 Q192.687 1522.85 192.687 1531.6 Q192.687 1540.33 189.608 1544.94 Q186.552 1549.52 180.742 1549.52 Q174.932 1549.52 171.853 1544.94 Q168.798 1540.33 168.798 1531.6 Q168.798 1522.85 171.853 1518.27 Q174.932 1513.66 180.742 1513.66 Z" fill="#000000" fill-rule="nonzero" fill-opacity="1" /><path clip-path="url(#clip180)" d="M200.904 1542.97 L205.788 1542.97 L205.788 1548.85 L200.904 1548.85 L200.904 1542.97 Z" fill="#000000" fill-rule="nonzero" fill-opacity="1" /><path clip-path="url(#clip180)" d="M225.973 1517.37 Q222.362 1517.37 220.534 1520.93 Q218.728 1524.47 218.728 1531.6 Q218.728 1538.71 220.534 1542.27 Q222.362 1545.82 225.973 1545.82 Q229.608 1545.82 231.413 1542.27 Q233.242 1538.71 233.242 1531.6 Q233.242 1524.47 231.413 1520.93 Q229.608 1517.37 225.973 1517.37 M225.973 1513.66 Q231.784 1513.66 234.839 1518.27 Q237.918 1522.85 237.918 1531.6 Q237.918 1540.33 234.839 1544.94 Q231.784 1549.52 225.973 1549.52 Q220.163 1549.52 217.085 1544.94 Q214.029 1540.33 214.029 1531.6 Q214.029 1522.85 217.085 1518.27 Q220.163 1513.66 225.973 1513.66 Z" fill="#000000" fill-rule="nonzero" fill-opacity="1" /><path clip-path="url(#clip180)" d="M256.135 1517.37 Q252.524 1517.37 250.696 1520.93 Q248.89 1524.47 248.89 1531.6 Q248.89 1538.71 250.696 1542.27 Q252.524 1545.82 256.135 1545.82 Q259.77 1545.82 261.575 1542.27 Q263.404 1538.71 263.404 1531.6 Q263.404 1524.47 261.575 1520.93 Q259.77 1517.37 256.135 1517.37 M256.135 1513.66 Q261.945 1513.66 265.001 1518.27 Q268.08 1522.85 268.08 1531.6 Q268.08 1540.33 265.001 1544.94 Q261.945 1549.52 256.135 1549.52 Q250.325 1549.52 247.246 1544.94 Q244.191 1540.33 244.191 1531.6 Q244.191 1522.85 247.246 1518.27 Q250.325 1513.66 256.135 1513.66 Z" fill="#000000" fill-rule="nonzero" fill-opacity="1" /><path clip-path="url(#clip180)" d="M699.278 1517.37 Q695.667 1517.37 693.838 1520.93 Q692.033 1524.47 692.033 1531.6 Q692.033 1538.71 693.838 1542.27 Q695.667 1545.82 699.278 1545.82 Q702.912 1545.82 704.718 1542.27 Q706.546 1538.71 706.546 1531.6 Q706.546 1524.47 704.718 1520.93 Q702.912 1517.37 699.278 1517.37 M699.278 1513.66 Q705.088 1513.66 708.144 1518.27 Q711.222 1522.85 711.222 1531.6 Q711.222 1540.33 708.144 1544.94 Q705.088 1549.52 699.278 1549.52 Q693.468 1549.52 690.389 1544.94 Q687.334 1540.33 687.334 1531.6 Q687.334 1522.85 690.389 1518.27 Q693.468 1513.66 699.278 1513.66 Z" fill="#000000" fill-rule="nonzero" fill-opacity="1" /><path clip-path="url(#clip180)" d="M719.44 1542.97 L724.324 1542.97 L724.324 1548.85 L719.44 1548.85 L719.44 1542.97 Z" fill="#000000" fill-rule="nonzero" fill-opacity="1" /><path clip-path="url(#clip180)" d="M738.537 1544.91 L754.856 1544.91 L754.856 1548.85 L732.912 1548.85 L732.912 1544.91 Q735.574 1542.16 740.157 1537.53 Q744.764 1532.88 745.944 1531.53 Q748.19 1529.01 749.069 1527.27 Q749.972 1525.51 749.972 1523.82 Q749.972 1521.07 748.028 1519.33 Q746.106 1517.6 743.005 1517.6 Q740.806 1517.6 738.352 1518.36 Q735.921 1519.13 733.144 1520.68 L733.144 1515.95 Q735.968 1514.82 738.421 1514.24 Q740.875 1513.66 742.912 1513.66 Q748.282 1513.66 751.477 1516.35 Q754.671 1519.03 754.671 1523.52 Q754.671 1525.65 753.861 1527.57 Q753.074 1529.47 750.968 1532.07 Q750.389 1532.74 747.287 1535.95 Q744.185 1539.15 738.537 1544.91 Z" fill="#000000" fill-rule="nonzero" fill-opacity="1" /><path clip-path="url(#clip180)" d="M764.717 1514.29 L783.074 1514.29 L783.074 1518.22 L769 1518.22 L769 1526.7 Q770.018 1526.35 771.037 1526.19 Q772.055 1526 773.074 1526 Q778.861 1526 782.241 1529.17 Q785.62 1532.34 785.62 1537.76 Q785.62 1543.34 782.148 1546.44 Q778.676 1549.52 772.356 1549.52 Q770.18 1549.52 767.912 1549.15 Q765.667 1548.78 763.259 1548.04 L763.259 1543.34 Q765.342 1544.47 767.565 1545.03 Q769.787 1545.58 772.264 1545.58 Q776.268 1545.58 778.606 1543.48 Q780.944 1541.37 780.944 1537.76 Q780.944 1534.15 778.606 1532.04 Q776.268 1529.94 772.264 1529.94 Q770.389 1529.94 768.514 1530.35 Q766.662 1530.77 764.717 1531.65 L764.717 1514.29 Z" fill="#000000" fill-rule="nonzero" fill-opacity="1" /><path clip-path="url(#clip180)" d="M1216.82 1517.37 Q1213.21 1517.37 1211.38 1520.93 Q1209.57 1524.47 1209.57 1531.6 Q1209.57 1538.71 1211.38 1542.27 Q1213.21 1545.82 1216.82 1545.82 Q1220.45 1545.82 1222.26 1542.27 Q1224.09 1538.71 1224.09 1531.6 Q1224.09 1524.47 1222.26 1520.93 Q1220.45 1517.37 1216.82 1517.37 M1216.82 1513.66 Q1222.63 1513.66 1225.68 1518.27 Q1228.76 1522.85 1228.76 1531.6 Q1228.76 1540.33 1225.68 1544.94 Q1222.63 1549.52 1216.82 1549.52 Q1211.01 1549.52 1207.93 1544.94 Q1204.87 1540.33 1204.87 1531.6 Q1204.87 1522.85 1207.93 1518.27 Q1211.01 1513.66 1216.82 1513.66 Z" fill="#000000" fill-rule="nonzero" fill-opacity="1" /><path clip-path="url(#clip180)" d="M1236.98 1542.97 L1241.86 1542.97 L1241.86 1548.85 L1236.98 1548.85 L1236.98 1542.97 Z" fill="#000000" fill-rule="nonzero" fill-opacity="1" /><path clip-path="url(#clip180)" d="M1252.1 1514.29 L1270.45 1514.29 L1270.45 1518.22 L1256.38 1518.22 L1256.38 1526.7 Q1257.4 1526.35 1258.42 1526.19 Q1259.43 1526 1260.45 1526 Q1266.24 1526 1269.62 1529.17 Q1273 1532.34 1273 1537.76 Q1273 1543.34 1269.53 1546.44 Q1266.05 1549.52 1259.73 1549.52 Q1257.56 1549.52 1255.29 1549.15 Q1253.05 1548.78 1250.64 1548.04 L1250.64 1543.34 Q1252.72 1544.47 1254.94 1545.03 Q1257.17 1545.58 1259.64 1545.58 Q1263.65 1545.58 1265.98 1543.48 Q1268.32 1541.37 1268.32 1537.76 Q1268.32 1534.15 1265.98 1532.04 Q1263.65 1529.94 1259.64 1529.94 Q1257.77 1529.94 1255.89 1530.35 Q1254.04 1530.77 1252.1 1531.65 L1252.1 1514.29 Z" fill="#000000" fill-rule="nonzero" fill-opacity="1" /><path clip-path="url(#clip180)" d="M1292.21 1517.37 Q1288.6 1517.37 1286.77 1520.93 Q1284.97 1524.47 1284.97 1531.6 Q1284.97 1538.71 1286.77 1542.27 Q1288.6 1545.82 1292.21 1545.82 Q1295.85 1545.82 1297.65 1542.27 Q1299.48 1538.71 1299.48 1531.6 Q1299.48 1524.47 1297.65 1520.93 Q1295.85 1517.37 1292.21 1517.37 M1292.21 1513.66 Q1298.02 1513.66 1301.08 1518.27 Q1304.16 1522.85 1304.16 1531.6 Q1304.16 1540.33 1301.08 1544.94 Q1298.02 1549.52 1292.21 1549.52 Q1286.4 1549.52 1283.32 1544.94 Q1280.27 1540.33 1280.27 1531.6 Q1280.27 1522.85 1283.32 1518.27 Q1286.4 1513.66 1292.21 1513.66 Z" fill="#000000" fill-rule="nonzero" fill-opacity="1" /><path clip-path="url(#clip180)" d="M1735.35 1517.37 Q1731.74 1517.37 1729.91 1520.93 Q1728.11 1524.47 1728.11 1531.6 Q1728.11 1538.71 1729.91 1542.27 Q1731.74 1545.82 1735.35 1545.82 Q1738.99 1545.82 1740.79 1542.27 Q1742.62 1538.71 1742.62 1531.6 Q1742.62 1524.47 1740.79 1520.93 Q1738.99 1517.37 1735.35 1517.37 M1735.35 1513.66 Q1741.16 1513.66 1744.22 1518.27 Q1747.3 1522.85 1747.3 1531.6 Q1747.3 1540.33 1744.22 1544.94 Q1741.16 1549.52 1735.35 1549.52 Q1729.54 1549.52 1726.47 1544.94 Q1723.41 1540.33 1723.41 1531.6 Q1723.41 1522.85 1726.47 1518.27 Q1729.54 1513.66 1735.35 1513.66 Z" fill="#000000" fill-rule="nonzero" fill-opacity="1" /><path clip-path="url(#clip180)" d="M1755.52 1542.97 L1760.4 1542.97 L1760.4 1548.85 L1755.52 1548.85 L1755.52 1542.97 Z" fill="#000000" fill-rule="nonzero" fill-opacity="1" /><path clip-path="url(#clip180)" d="M1769.41 1514.29 L1791.63 1514.29 L1791.63 1516.28 L1779.08 1548.85 L1774.2 1548.85 L1786 1518.22 L1769.41 1518.22 L1769.41 1514.29 Z" fill="#000000" fill-rule="nonzero" fill-opacity="1" /><path clip-path="url(#clip180)" d="M1800.79 1514.29 L1819.15 1514.29 L1819.15 1518.22 L1805.08 1518.22 L1805.08 1526.7 Q1806.09 1526.35 1807.11 1526.19 Q1808.13 1526 1809.15 1526 Q1814.94 1526 1818.32 1529.17 Q1821.7 1532.34 1821.7 1537.76 Q1821.7 1543.34 1818.22 1546.44 Q1814.75 1549.52 1808.43 1549.52 Q1806.26 1549.52 1803.99 1549.15 Q1801.74 1548.78 1799.34 1548.04 L1799.34 1543.34 Q1801.42 1544.47 1803.64 1545.03 Q1805.86 1545.58 1808.34 1545.58 Q1812.34 1545.58 1814.68 1543.48 Q1817.02 1541.37 1817.02 1537.76 Q1817.02 1534.15 1814.68 1532.04 Q1812.34 1529.94 1808.34 1529.94 Q1806.47 1529.94 1804.59 1530.35 Q1802.74 1530.77 1800.79 1531.65 L1800.79 1514.29 Z" fill="#000000" fill-rule="nonzero" fill-opacity="1" /><path clip-path="url(#clip180)" d="M2242.66 1544.91 L2250.3 1544.91 L2250.3 1518.55 L2241.99 1520.21 L2241.99 1515.95 L2250.26 1514.29 L2254.93 1514.29 L2254.93 1544.91 L2262.57 1544.91 L2262.57 1548.85 L2242.66 1548.85 L2242.66 1544.91 Z" fill="#000000" fill-rule="nonzero" fill-opacity="1" /><path clip-path="url(#clip180)" d="M2272.02 1542.97 L2276.9 1542.97 L2276.9 1548.85 L2272.02 1548.85 L2272.02 1542.97 Z" fill="#000000" fill-rule="nonzero" fill-opacity="1" /><path clip-path="url(#clip180)" d="M2297.08 1517.37 Q2293.47 1517.37 2291.64 1520.93 Q2289.84 1524.47 2289.84 1531.6 Q2289.84 1538.71 2291.64 1542.27 Q2293.47 1545.82 2297.08 1545.82 Q2300.72 1545.82 2302.52 1542.27 Q2304.35 1538.71 2304.35 1531.6 Q2304.35 1524.47 2302.52 1520.93 Q2300.72 1517.37 2297.08 1517.37 M2297.08 1513.66 Q2302.89 1513.66 2305.95 1518.27 Q2309.03 1522.85 2309.03 1531.6 Q2309.03 1540.33 2305.95 1544.94 Q2302.89 1549.52 2297.08 1549.52 Q2291.27 1549.52 2288.2 1544.94 Q2285.14 1540.33 2285.14 1531.6 Q2285.14 1522.85 2288.2 1518.27 Q2291.27 1513.66 2297.08 1513.66 Z" fill="#000000" fill-rule="nonzero" fill-opacity="1" /><path clip-path="url(#clip180)" d="M2327.25 1517.37 Q2323.64 1517.37 2321.81 1520.93 Q2320 1524.47 2320 1531.6 Q2320 1538.71 2321.81 1542.27 Q2323.64 1545.82 2327.25 1545.82 Q2330.88 1545.82 2332.69 1542.27 Q2334.51 1538.71 2334.51 1531.6 Q2334.51 1524.47 2332.69 1520.93 Q2330.88 1517.37 2327.25 1517.37 M2327.25 1513.66 Q2333.06 1513.66 2336.11 1518.27 Q2339.19 1522.85 2339.19 1531.6 Q2339.19 1540.33 2336.11 1544.94 Q2333.06 1549.52 2327.25 1549.52 Q2321.44 1549.52 2318.36 1544.94 Q2315.3 1540.33 2315.3 1531.6 Q2315.3 1522.85 2318.36 1518.27 Q2321.44 1513.66 2327.25 1513.66 Z" fill="#000000" fill-rule="nonzero" fill-opacity="1" /><polyline clip-path="url(#clip180)" style="stroke:#000000; stroke-linecap:round; stroke-linejoin:round; stroke-width:4; stroke-opacity:1; fill:none" points="156.274,1486.45 156.274,47.2441 "/>
<polyline clip-path="url(#clip180)" style="stroke:#000000; stroke-linecap:round; stroke-linejoin:round; stroke-width:4; stroke-opacity:1; fill:none" points="156.274,1331.57 175.172,1331.57 "/>
<polyline clip-path="url(#clip180)" style="stroke:#000000; stroke-linecap:round; stroke-linejoin:round; stroke-width:4; stroke-opacity:1; fill:none" points="156.274,1115.38 175.172,1115.38 "/>
<polyline clip-path="url(#clip180)" style="stroke:#000000; stroke-linecap:round; stroke-linejoin:round; stroke-width:4; stroke-opacity:1; fill:none" points="156.274,899.191 175.172,899.191 "/>
<polyline clip-path="url(#clip180)" style="stroke:#000000; stroke-linecap:round; stroke-linejoin:round; stroke-width:4; stroke-opacity:1; fill:none" points="156.274,683.004 175.172,683.004 "/>
<polyline clip-path="url(#clip180)" style="stroke:#000000; stroke-linecap:round; stroke-linejoin:round; stroke-width:4; stroke-opacity:1; fill:none" points="156.274,466.816 175.172,466.816 "/>
<polyline clip-path="url(#clip180)" style="stroke:#000000; stroke-linecap:round; stroke-linejoin:round; stroke-width:4; stroke-opacity:1; fill:none" points="156.274,250.628 175.172,250.628 "/>
<path clip-path="url(#clip180)" d="M62.9365 1317.37 Q59.3254 1317.37 57.4967 1320.93 Q55.6912 1324.47 55.6912 1331.6 Q55.6912 1338.71 57.4967 1342.27 Q59.3254 1345.81 62.9365 1345.81 Q66.5707 1345.81 68.3763 1342.27 Q70.205 1338.71 70.205 1331.6 Q70.205 1324.47 68.3763 1320.93 Q66.5707 1317.37 62.9365 1317.37 M62.9365 1313.66 Q68.7467 1313.66 71.8022 1318.27 Q74.8809 1322.85 74.8809 1331.6 Q74.8809 1340.33 71.8022 1344.93 Q68.7467 1349.52 62.9365 1349.52 Q57.1264 1349.52 54.0477 1344.93 Q50.9921 1340.33 50.9921 1331.6 Q50.9921 1322.85 54.0477 1318.27 Q57.1264 1313.66 62.9365 1313.66 Z" fill="#000000" fill-rule="nonzero" fill-opacity="1" /><path clip-path="url(#clip180)" d="M83.0984 1342.97 L87.9827 1342.97 L87.9827 1348.85 L83.0984 1348.85 L83.0984 1342.97 Z" fill="#000000" fill-rule="nonzero" fill-opacity="1" /><path clip-path="url(#clip180)" d="M108.746 1329.7 Q105.598 1329.7 103.746 1331.86 Q101.918 1334.01 101.918 1337.76 Q101.918 1341.49 103.746 1343.66 Q105.598 1345.81 108.746 1345.81 Q111.895 1345.81 113.723 1343.66 Q115.575 1341.49 115.575 1337.76 Q115.575 1334.01 113.723 1331.86 Q111.895 1329.7 108.746 1329.7 M118.029 1315.05 L118.029 1319.31 Q116.27 1318.48 114.464 1318.04 Q112.682 1317.6 110.922 1317.6 Q106.293 1317.6 103.839 1320.72 Q101.409 1323.85 101.061 1330.17 Q102.427 1328.15 104.487 1327.09 Q106.547 1326 109.024 1326 Q114.233 1326 117.242 1329.17 Q120.274 1332.32 120.274 1337.76 Q120.274 1343.08 117.126 1346.3 Q113.978 1349.52 108.746 1349.52 Q102.751 1349.52 99.5798 1344.93 Q96.4085 1340.33 96.4085 1331.6 Q96.4085 1323.41 100.297 1318.55 Q104.186 1313.66 110.737 1313.66 Q112.496 1313.66 114.279 1314.01 Q116.084 1314.36 118.029 1315.05 Z" fill="#000000" fill-rule="nonzero" fill-opacity="1" /><path clip-path="url(#clip180)" d="M63.1911 1101.18 Q59.58 1101.18 57.7513 1104.74 Q55.9458 1108.28 55.9458 1115.41 Q55.9458 1122.52 57.7513 1126.09 Q59.58 1129.63 63.1911 1129.63 Q66.8254 1129.63 68.6309 1126.09 Q70.4596 1122.52 70.4596 1115.41 Q70.4596 1108.28 68.6309 1104.74 Q66.8254 1101.18 63.1911 1101.18 M63.1911 1097.47 Q69.0013 1097.47 72.0568 1102.08 Q75.1355 1106.66 75.1355 1115.41 Q75.1355 1124.14 72.0568 1128.75 Q69.0013 1133.33 63.1911 1133.33 Q57.381 1133.33 54.3023 1128.75 Q51.2468 1124.14 51.2468 1115.41 Q51.2468 1106.66 54.3023 1102.08 Q57.381 1097.47 63.1911 1097.47 Z" fill="#000000" fill-rule="nonzero" fill-opacity="1" /><path clip-path="url(#clip180)" d="M83.3531 1126.78 L88.2373 1126.78 L88.2373 1132.66 L83.3531 1132.66 L83.3531 1126.78 Z" fill="#000000" fill-rule="nonzero" fill-opacity="1" /><path clip-path="url(#clip180)" d="M108.422 1116.25 Q105.089 1116.25 103.168 1118.03 Q101.27 1119.81 101.27 1122.94 Q101.27 1126.06 103.168 1127.84 Q105.089 1129.63 108.422 1129.63 Q111.756 1129.63 113.677 1127.84 Q115.598 1126.04 115.598 1122.94 Q115.598 1119.81 113.677 1118.03 Q111.779 1116.25 108.422 1116.25 M103.746 1114.26 Q100.737 1113.52 99.0474 1111.46 Q97.3808 1109.4 97.3808 1106.43 Q97.3808 1102.29 100.321 1099.88 Q103.284 1097.47 108.422 1097.47 Q113.584 1097.47 116.524 1099.88 Q119.464 1102.29 119.464 1106.43 Q119.464 1109.4 117.774 1111.46 Q116.108 1113.52 113.121 1114.26 Q116.501 1115.04 118.376 1117.34 Q120.274 1119.63 120.274 1122.94 Q120.274 1127.96 117.195 1130.65 Q114.14 1133.33 108.422 1133.33 Q102.705 1133.33 99.6261 1130.65 Q96.5706 1127.96 96.5706 1122.94 Q96.5706 1119.63 98.4687 1117.34 Q100.367 1115.04 103.746 1114.26 M102.034 1106.87 Q102.034 1109.56 103.7 1111.06 Q105.39 1112.57 108.422 1112.57 Q111.432 1112.57 113.121 1111.06 Q114.834 1109.56 114.834 1106.87 Q114.834 1104.19 113.121 1102.68 Q111.432 1101.18 108.422 1101.18 Q105.39 1101.18 103.7 1102.68 Q102.034 1104.19 102.034 1106.87 Z" fill="#000000" fill-rule="nonzero" fill-opacity="1" /><path clip-path="url(#clip180)" d="M53.9088 912.536 L61.5476 912.536 L61.5476 886.171 L53.2375 887.837 L53.2375 883.578 L61.5013 881.911 L66.1772 881.911 L66.1772 912.536 L73.8161 912.536 L73.8161 916.471 L53.9088 916.471 L53.9088 912.536 Z" fill="#000000" fill-rule="nonzero" fill-opacity="1" /><path clip-path="url(#clip180)" d="M83.2605 910.592 L88.1447 910.592 L88.1447 916.471 L83.2605 916.471 L83.2605 910.592 Z" fill="#000000" fill-rule="nonzero" fill-opacity="1" /><path clip-path="url(#clip180)" d="M108.33 884.99 Q104.719 884.99 102.89 888.555 Q101.084 892.096 101.084 899.226 Q101.084 906.332 102.89 909.897 Q104.719 913.439 108.33 913.439 Q111.964 913.439 113.77 909.897 Q115.598 906.332 115.598 899.226 Q115.598 892.096 113.77 888.555 Q111.964 884.99 108.33 884.99 M108.33 881.286 Q114.14 881.286 117.195 885.893 Q120.274 890.476 120.274 899.226 Q120.274 907.953 117.195 912.559 Q114.14 917.143 108.33 917.143 Q102.52 917.143 99.4409 912.559 Q96.3854 907.953 96.3854 899.226 Q96.3854 890.476 99.4409 885.893 Q102.52 881.286 108.33 881.286 Z" fill="#000000" fill-rule="nonzero" fill-opacity="1" /><path clip-path="url(#clip180)" d="M55.506 696.348 L63.1448 696.348 L63.1448 669.983 L54.8347 671.649 L54.8347 667.39 L63.0985 665.724 L67.7744 665.724 L67.7744 696.348 L75.4133 696.348 L75.4133 700.284 L55.506 700.284 L55.506 696.348 Z" fill="#000000" fill-rule="nonzero" fill-opacity="1" /><path clip-path="url(#clip180)" d="M84.8577 694.404 L89.7419 694.404 L89.7419 700.284 L84.8577 700.284 L84.8577 694.404 Z" fill="#000000" fill-rule="nonzero" fill-opacity="1" /><path clip-path="url(#clip180)" d="M103.955 696.348 L120.274 696.348 L120.274 700.284 L98.3298 700.284 L98.3298 696.348 Q100.992 693.594 105.575 688.964 Q110.182 684.311 111.362 682.969 Q113.608 680.446 114.487 678.71 Q115.39 676.95 115.39 675.261 Q115.39 672.506 113.445 670.77 Q111.524 669.034 108.422 669.034 Q106.223 669.034 103.77 669.798 Q101.339 670.561 98.5613 672.112 L98.5613 667.39 Q101.385 666.256 103.839 665.677 Q106.293 665.099 108.33 665.099 Q113.7 665.099 116.895 667.784 Q120.089 670.469 120.089 674.96 Q120.089 677.089 119.279 679.011 Q118.492 680.909 116.385 683.501 Q115.807 684.173 112.705 687.39 Q109.603 690.585 103.955 696.348 Z" fill="#000000" fill-rule="nonzero" fill-opacity="1" /><path clip-path="url(#clip180)" d="M53.4227 480.161 L61.0615 480.161 L61.0615 453.795 L52.7514 455.462 L52.7514 451.202 L61.0152 449.536 L65.6911 449.536 L65.6911 480.161 L73.33 480.161 L73.33 484.096 L53.4227 484.096 L53.4227 480.161 Z" fill="#000000" fill-rule="nonzero" fill-opacity="1" /><path clip-path="url(#clip180)" d="M82.7744 478.216 L87.6586 478.216 L87.6586 484.096 L82.7744 484.096 L82.7744 478.216 Z" fill="#000000" fill-rule="nonzero" fill-opacity="1" /><path clip-path="url(#clip180)" d="M110.691 453.61 L98.8854 472.059 L110.691 472.059 L110.691 453.61 M109.464 449.536 L115.344 449.536 L115.344 472.059 L120.274 472.059 L120.274 475.948 L115.344 475.948 L115.344 484.096 L110.691 484.096 L110.691 475.948 L95.0891 475.948 L95.0891 471.434 L109.464 449.536 Z" fill="#000000" fill-rule="nonzero" fill-opacity="1" /><path clip-path="url(#clip180)" d="M53.7467 263.973 L61.3856 263.973 L61.3856 237.607 L53.0754 239.274 L53.0754 235.015 L61.3393 233.348 L66.0152 233.348 L66.0152 263.973 L73.654 263.973 L73.654 267.908 L53.7467 267.908 L53.7467 263.973 Z" fill="#000000" fill-rule="nonzero" fill-opacity="1" /><path clip-path="url(#clip180)" d="M83.0984 262.028 L87.9827 262.028 L87.9827 267.908 L83.0984 267.908 L83.0984 262.028 Z" fill="#000000" fill-rule="nonzero" fill-opacity="1" /><path clip-path="url(#clip180)" d="M108.746 248.765 Q105.598 248.765 103.746 250.917 Q101.918 253.07 101.918 256.82 Q101.918 260.547 103.746 262.723 Q105.598 264.876 108.746 264.876 Q111.895 264.876 113.723 262.723 Q115.575 260.547 115.575 256.82 Q115.575 253.07 113.723 250.917 Q111.895 248.765 108.746 248.765 M118.029 234.112 L118.029 238.371 Q116.27 237.538 114.464 237.098 Q112.682 236.658 110.922 236.658 Q106.293 236.658 103.839 239.783 Q101.409 242.908 101.061 249.228 Q102.427 247.214 104.487 246.149 Q106.547 245.061 109.024 245.061 Q114.233 245.061 117.242 248.232 Q120.274 251.38 120.274 256.82 Q120.274 262.144 117.126 265.362 Q113.978 268.579 108.746 268.579 Q102.751 268.579 99.5798 263.996 Q96.4085 259.39 96.4085 250.663 Q96.4085 242.468 100.297 237.607 Q104.186 232.723 110.737 232.723 Q112.496 232.723 114.279 233.07 Q116.084 233.417 118.029 234.112 Z" fill="#000000" fill-rule="nonzero" fill-opacity="1" /><polyline clip-path="url(#clip181)" style="stroke:#009af9; stroke-linecap:round; stroke-linejoin:round; stroke-width:12; stroke-opacity:1; fill:none" points="218.439,1439.66 425.654,1396.26 632.869,1334.11 840.085,1298.02 1047.3,1275.78 1254.52,1263.58 1461.73,1172.38 1668.95,1143.89 1876.16,1134.59 2083.38,1061.42 2290.59,973.906 "/>
<polyline clip-path="url(#clip181)" style="stroke:#e26f46; stroke-linecap:round; stroke-linejoin:round; stroke-width:12; stroke-opacity:1; fill:none" points="218.439,1439.66 425.654,1339.16 632.869,1360.45 840.085,1377.66 1047.3,1339.29 1254.52,1318.35 1461.73,1008.85 1668.95,806.706 1876.16,343.11 2083.38,87.9763 2290.59,210.754 "/>
<polyline clip-path="url(#clip181)" style="stroke:#3da44d; stroke-linecap:round; stroke-linejoin:round; stroke-width:12; stroke-opacity:1; fill:none" points="218.439,1439.66 425.654,1416.06 632.869,1420.53 840.085,1419.13 1047.3,1392.81 1254.52,1349.15 1461.73,1330.88 1668.95,1378.38 1876.16,1382.08 2083.38,1267.93 2290.59,1170.33 "/>
<polyline clip-path="url(#clip181)" style="stroke:#c271d2; stroke-linecap:round; stroke-linejoin:round; stroke-width:12; stroke-opacity:1; fill:none" points="218.439,1439.66 425.654,1439.86 632.869,1434.38 840.085,1405.47 1047.3,1428.59 1254.52,1445.72 1461.73,1394.95 1668.95,1374.37 1876.16,1268.95 2083.38,1234.47 2290.59,1215.48 "/>
<polyline clip-path="url(#clip181)" style="stroke:#ac8d18; stroke-linecap:round; stroke-linejoin:round; stroke-width:12; stroke-opacity:1; fill:none" points="218.439,1439.66 425.654,1382.69 632.869,1302.95 840.085,1324.98 1047.3,1306.7 1254.52,1379.02 1461.73,1222.95 1668.95,1091.21 1876.16,935.666 2083.38,1170.26 2290.59,1100.01 "/>
<polyline clip-path="url(#clip181)" style="stroke:#00a9ad; stroke-linecap:round; stroke-linejoin:round; stroke-width:12; stroke-opacity:1; fill:none" points="218.439,1439.66 425.654,1376.47 632.869,1321.74 840.085,1312.83 1047.3,1292.14 1254.52,1425.26 1461.73,1418.21 1668.95,1325.46 1876.16,1200.92 2083.38,1241.47 2290.59,1140.27 "/>
<polyline clip-path="url(#clip181)" style="stroke:#ed5d92; stroke-linecap:round; stroke-linejoin:round; stroke-width:12; stroke-opacity:1; fill:none" points="218.439,1439.66 425.654,1305.72 632.869,1341.88 840.085,1406.74 1047.3,1394.1 1254.52,1122.65 1461.73,1146.27 1668.95,1066.88 1876.16,1016.85 2083.38,1219.23 2290.59,1117.66 "/>
<polyline clip-path="url(#clip181)" style="stroke:#c68125; stroke-linecap:round; stroke-linejoin:round; stroke-width:12; stroke-opacity:1; fill:none" points="218.439,1439.66 425.654,1436.29 632.869,1364.89 840.085,1296.51 1047.3,1345.85 1254.52,1406.66 1461.73,1227.9 1668.95,1153.17 1876.16,1100.4 2083.38,1020.55 2290.59,918.843 "/>
</svg>
