<?xml version="1.0" encoding="utf-8"?>
<svg xmlns="http://www.w3.org/2000/svg" xmlns:xlink="http://www.w3.org/1999/xlink" width="600" height="400" viewBox="0 0 2400 1600">
<defs>
  <clipPath id="clip090">
    <rect x="0" y="0" width="2400" height="1600"/>
  </clipPath>
</defs>
<path clip-path="url(#clip090)" d="M0 1600 L2400 1600 L2400 0 L0 0  Z" fill="#ffffff" fill-rule="evenodd" fill-opacity="1"/>
<defs>
  <clipPath id="clip091">
    <rect x="112" y="47" width="2242" height="1440"/>
  </clipPath>
</defs>
<path clip-path="url(#clip090)" d="M112.177 1486.45 L2352.76 1486.45 L2352.76 47.2441 L112.177 47.2441  Z" fill="#ffffff" fill-rule="evenodd" fill-opacity="1"/>
<polyline clip-path="url(#clip091)" style="stroke:#000000; stroke-linecap:round; stroke-linejoin:round; stroke-width:2; stroke-opacity:0.1; fill:none" points="175.59,1486.45 175.59,47.2441 "/>
<polyline clip-path="url(#clip091)" style="stroke:#000000; stroke-linecap:round; stroke-linejoin:round; stroke-width:2; stroke-opacity:0.1; fill:none" points="704.028,1486.45 704.028,47.2441 "/>
<polyline clip-path="url(#clip091)" style="stroke:#000000; stroke-linecap:round; stroke-linejoin:round; stroke-width:2; stroke-opacity:0.1; fill:none" points="1232.47,1486.45 1232.47,47.2441 "/>
<polyline clip-path="url(#clip091)" style="stroke:#000000; stroke-linecap:round; stroke-linejoin:round; stroke-width:2; stroke-opacity:0.1; fill:none" points="1760.9,1486.45 1760.9,47.2441 "/>
<polyline clip-path="url(#clip091)" style="stroke:#000000; stroke-linecap:round; stroke-linejoin:round; stroke-width:2; stroke-opacity:0.1; fill:none" points="2289.34,1486.45 2289.34,47.2441 "/>
<polyline clip-path="url(#clip091)" style="stroke:#000000; stroke-linecap:round; stroke-linejoin:round; stroke-width:2; stroke-opacity:0.1; fill:none" points="112.177,1459.3 2352.76,1459.3 "/>
<polyline clip-path="url(#clip091)" style="stroke:#000000; stroke-linecap:round; stroke-linejoin:round; stroke-width:2; stroke-opacity:0.1; fill:none" points="112.177,1142.45 2352.76,1142.45 "/>
<polyline clip-path="url(#clip091)" style="stroke:#000000; stroke-linecap:round; stroke-linejoin:round; stroke-width:2; stroke-opacity:0.1; fill:none" points="112.177,825.595 2352.76,825.595 "/>
<polyline clip-path="url(#clip091)" style="stroke:#000000; stroke-linecap:round; stroke-linejoin:round; stroke-width:2; stroke-opacity:0.1; fill:none" points="112.177,508.745 2352.76,508.745 "/>
<polyline clip-path="url(#clip091)" style="stroke:#000000; stroke-linecap:round; stroke-linejoin:round; stroke-width:2; stroke-opacity:0.1; fill:none" points="112.177,191.894 2352.76,191.894 "/>
<polyline clip-path="url(#clip090)" style="stroke:#000000; stroke-linecap:round; stroke-linejoin:round; stroke-width:4; stroke-opacity:1; fill:none" points="112.177,1486.45 2352.76,1486.45 "/>
<polyline clip-path="url(#clip090)" style="stroke:#000000; stroke-linecap:round; stroke-linejoin:round; stroke-width:4; stroke-opacity:1; fill:none" points="175.59,1486.45 175.59,1467.55 "/>
<polyline clip-path="url(#clip090)" style="stroke:#000000; stroke-linecap:round; stroke-linejoin:round; stroke-width:4; stroke-opacity:1; fill:none" points="704.028,1486.45 704.028,1467.55 "/>
<polyline clip-path="url(#clip090)" style="stroke:#000000; stroke-linecap:round; stroke-linejoin:round; stroke-width:4; stroke-opacity:1; fill:none" points="1232.47,1486.45 1232.47,1467.55 "/>
<polyline clip-path="url(#clip090)" style="stroke:#000000; stroke-linecap:round; stroke-linejoin:round; stroke-width:4; stroke-opacity:1; fill:none" points="1760.9,1486.45 1760.9,1467.55 "/>
<polyline clip-path="url(#clip090)" style="stroke:#000000; stroke-linecap:round; stroke-linejoin:round; stroke-width:4; stroke-opacity:1; fill:none" points="2289.34,1486.45 2289.34,1467.55 "/>
<path clip-path="url(#clip090)" d="M152.974 1517.37 Q149.363 1517.37 147.534 1520.93 Q145.729 1524.47 145.729 1531.6 Q145.729 1538.71 147.534 1542.27 Q149.363 1545.82 152.974 1545.82 Q156.608 1545.82 158.414 1542.27 Q160.243 1538.71 160.243 1531.6 Q160.243 1524.47 158.414 1520.93 Q156.608 1517.37 152.974 1517.37 M152.974 1513.66 Q158.784 1513.66 161.84 1518.27 Q164.919 1522.85 164.919 1531.6 Q164.919 1540.33 161.84 1544.94 Q158.784 1549.52 152.974 1549.52 Q147.164 1549.52 144.085 1544.94 Q141.03 1540.33 141.03 1531.6 Q141.03 1522.85 144.085 1518.27 Q147.164 1513.66 152.974 1513.66 Z" fill="#000000" fill-rule="nonzero" fill-opacity="1" /><path clip-path="url(#clip090)" d="M173.136 1542.97 L178.02 1542.97 L178.02 1548.85 L173.136 1548.85 L173.136 1542.97 Z" fill="#000000" fill-rule="nonzero" fill-opacity="1" /><path clip-path="url(#clip090)" d="M198.205 1517.37 Q194.594 1517.37 192.766 1520.93 Q190.96 1524.47 190.96 1531.6 Q190.96 1538.71 192.766 1542.27 Q194.594 1545.82 198.205 1545.82 Q201.84 1545.82 203.645 1542.27 Q205.474 1538.71 205.474 1531.6 Q205.474 1524.47 203.645 1520.93 Q201.84 1517.37 198.205 1517.37 M198.205 1513.66 Q204.016 1513.66 207.071 1518.27 Q210.15 1522.85 210.15 1531.6 Q210.15 1540.33 207.071 1544.94 Q204.016 1549.52 198.205 1549.52 Q192.395 1549.52 189.317 1544.94 Q186.261 1540.33 186.261 1531.6 Q186.261 1522.85 189.317 1518.27 Q192.395 1513.66 198.205 1513.66 Z" fill="#000000" fill-rule="nonzero" fill-opacity="1" /><path clip-path="url(#clip090)" d="M675.764 1544.91 L692.084 1544.91 L692.084 1548.85 L670.139 1548.85 L670.139 1544.91 Q672.801 1542.16 677.385 1537.53 Q681.991 1532.88 683.172 1531.53 Q685.417 1529.01 686.297 1527.27 Q687.2 1525.51 687.2 1523.82 Q687.2 1521.07 685.255 1519.33 Q683.334 1517.6 680.232 1517.6 Q678.033 1517.6 675.579 1518.36 Q673.149 1519.13 670.371 1520.68 L670.371 1515.95 Q673.195 1514.82 675.649 1514.24 Q678.102 1513.66 680.139 1513.66 Q685.51 1513.66 688.704 1516.35 Q691.899 1519.03 691.899 1523.52 Q691.899 1525.65 691.088 1527.57 Q690.301 1529.47 688.195 1532.07 Q687.616 1532.74 684.514 1535.95 Q681.413 1539.15 675.764 1544.91 Z" fill="#000000" fill-rule="nonzero" fill-opacity="1" /><path clip-path="url(#clip090)" d="M701.899 1542.97 L706.783 1542.97 L706.783 1548.85 L701.899 1548.85 L701.899 1542.97 Z" fill="#000000" fill-rule="nonzero" fill-opacity="1" /><path clip-path="url(#clip090)" d="M717.014 1514.29 L735.371 1514.29 L735.371 1518.22 L721.297 1518.22 L721.297 1526.7 Q722.315 1526.35 723.334 1526.19 Q724.352 1526 725.371 1526 Q731.158 1526 734.537 1529.17 Q737.917 1532.34 737.917 1537.76 Q737.917 1543.34 734.445 1546.44 Q730.972 1549.52 724.653 1549.52 Q722.477 1549.52 720.209 1549.15 Q717.963 1548.78 715.556 1548.04 L715.556 1543.34 Q717.639 1544.47 719.861 1545.03 Q722.084 1545.58 724.56 1545.58 Q728.565 1545.58 730.903 1543.48 Q733.241 1541.37 733.241 1537.76 Q733.241 1534.15 730.903 1532.04 Q728.565 1529.94 724.56 1529.94 Q722.685 1529.94 720.81 1530.35 Q718.959 1530.77 717.014 1531.65 L717.014 1514.29 Z" fill="#000000" fill-rule="nonzero" fill-opacity="1" /><path clip-path="url(#clip090)" d="M1199.63 1514.29 L1217.99 1514.29 L1217.99 1518.22 L1203.91 1518.22 L1203.91 1526.7 Q1204.93 1526.35 1205.95 1526.19 Q1206.97 1526 1207.99 1526 Q1213.77 1526 1217.15 1529.17 Q1220.53 1532.34 1220.53 1537.76 Q1220.53 1543.34 1217.06 1546.44 Q1213.59 1549.52 1207.27 1549.52 Q1205.09 1549.52 1202.83 1549.15 Q1200.58 1548.78 1198.17 1548.04 L1198.17 1543.34 Q1200.26 1544.47 1202.48 1545.03 Q1204.7 1545.58 1207.18 1545.58 Q1211.18 1545.58 1213.52 1543.48 Q1215.86 1541.37 1215.86 1537.76 Q1215.86 1534.15 1213.52 1532.04 Q1211.18 1529.94 1207.18 1529.94 Q1205.3 1529.94 1203.43 1530.35 Q1201.58 1530.77 1199.63 1531.65 L1199.63 1514.29 Z" fill="#000000" fill-rule="nonzero" fill-opacity="1" /><path clip-path="url(#clip090)" d="M1229.75 1542.97 L1234.63 1542.97 L1234.63 1548.85 L1229.75 1548.85 L1229.75 1542.97 Z" fill="#000000" fill-rule="nonzero" fill-opacity="1" /><path clip-path="url(#clip090)" d="M1254.82 1517.37 Q1251.2 1517.37 1249.38 1520.93 Q1247.57 1524.47 1247.57 1531.6 Q1247.57 1538.71 1249.38 1542.27 Q1251.2 1545.82 1254.82 1545.82 Q1258.45 1545.82 1260.26 1542.27 Q1262.08 1538.71 1262.08 1531.6 Q1262.08 1524.47 1260.26 1520.93 Q1258.45 1517.37 1254.82 1517.37 M1254.82 1513.66 Q1260.63 1513.66 1263.68 1518.27 Q1266.76 1522.85 1266.76 1531.6 Q1266.76 1540.33 1263.68 1544.94 Q1260.63 1549.52 1254.82 1549.52 Q1249.01 1549.52 1245.93 1544.94 Q1242.87 1540.33 1242.87 1531.6 Q1242.87 1522.85 1245.93 1518.27 Q1249.01 1513.66 1254.82 1513.66 Z" fill="#000000" fill-rule="nonzero" fill-opacity="1" /><path clip-path="url(#clip090)" d="M1727.22 1514.29 L1749.45 1514.29 L1749.45 1516.28 L1736.9 1548.85 L1732.02 1548.85 L1743.82 1518.22 L1727.22 1518.22 L1727.22 1514.29 Z" fill="#000000" fill-rule="nonzero" fill-opacity="1" /><path clip-path="url(#clip090)" d="M1758.57 1542.97 L1763.45 1542.97 L1763.45 1548.85 L1758.57 1548.85 L1758.57 1542.97 Z" fill="#000000" fill-rule="nonzero" fill-opacity="1" /><path clip-path="url(#clip090)" d="M1773.68 1514.29 L1792.04 1514.29 L1792.04 1518.22 L1777.97 1518.22 L1777.97 1526.7 Q1778.98 1526.35 1780 1526.19 Q1781.02 1526 1782.04 1526 Q1787.83 1526 1791.21 1529.17 Q1794.59 1532.34 1794.59 1537.76 Q1794.59 1543.34 1791.11 1546.44 Q1787.64 1549.52 1781.32 1549.52 Q1779.15 1549.52 1776.88 1549.15 Q1774.63 1548.78 1772.22 1548.04 L1772.22 1543.34 Q1774.31 1544.47 1776.53 1545.03 Q1778.75 1545.58 1781.23 1545.58 Q1785.23 1545.58 1787.57 1543.48 Q1789.91 1541.37 1789.91 1537.76 Q1789.91 1534.15 1787.57 1532.04 Q1785.23 1529.94 1781.23 1529.94 Q1779.35 1529.94 1777.48 1530.35 Q1775.63 1530.77 1773.68 1531.65 L1773.68 1514.29 Z" fill="#000000" fill-rule="nonzero" fill-opacity="1" /><path clip-path="url(#clip090)" d="M2241.42 1544.91 L2249.05 1544.91 L2249.05 1518.55 L2240.74 1520.21 L2240.74 1515.95 L2249.01 1514.29 L2253.68 1514.29 L2253.68 1544.91 L2261.32 1544.91 L2261.32 1548.85 L2241.42 1548.85 L2241.42 1544.91 Z" fill="#000000" fill-rule="nonzero" fill-opacity="1" /><path clip-path="url(#clip090)" d="M2280.77 1517.37 Q2277.16 1517.37 2275.33 1520.93 Q2273.52 1524.47 2273.52 1531.6 Q2273.52 1538.71 2275.33 1542.27 Q2277.16 1545.82 2280.77 1545.82 Q2284.4 1545.82 2286.21 1542.27 Q2288.04 1538.71 2288.04 1531.6 Q2288.04 1524.47 2286.21 1520.93 Q2284.4 1517.37 2280.77 1517.37 M2280.77 1513.66 Q2286.58 1513.66 2289.63 1518.27 Q2292.71 1522.85 2292.71 1531.6 Q2292.71 1540.33 2289.63 1544.94 Q2286.58 1549.52 2280.77 1549.52 Q2274.96 1549.52 2271.88 1544.94 Q2268.82 1540.33 2268.82 1531.6 Q2268.82 1522.85 2271.88 1518.27 Q2274.96 1513.66 2280.77 1513.66 Z" fill="#000000" fill-rule="nonzero" fill-opacity="1" /><path clip-path="url(#clip090)" d="M2300.93 1542.97 L2305.81 1542.97 L2305.81 1548.85 L2300.93 1548.85 L2300.93 1542.97 Z" fill="#000000" fill-rule="nonzero" fill-opacity="1" /><path clip-path="url(#clip090)" d="M2326 1517.37 Q2322.39 1517.37 2320.56 1520.93 Q2318.75 1524.47 2318.75 1531.6 Q2318.75 1538.71 2320.56 1542.27 Q2322.39 1545.82 2326 1545.82 Q2329.63 1545.82 2331.44 1542.27 Q2333.27 1538.71 2333.27 1531.6 Q2333.27 1524.47 2331.44 1520.93 Q2329.63 1517.37 2326 1517.37 M2326 1513.66 Q2331.81 1513.66 2334.86 1518.27 Q2337.94 1522.85 2337.94 1531.6 Q2337.94 1540.33 2334.86 1544.94 Q2331.81 1549.52 2326 1549.52 Q2320.19 1549.52 2317.11 1544.94 Q2314.05 1540.33 2314.05 1531.6 Q2314.05 1522.85 2317.11 1518.27 Q2320.19 1513.66 2326 1513.66 Z" fill="#000000" fill-rule="nonzero" fill-opacity="1" /><polyline clip-path="url(#clip090)" style="stroke:#000000; stroke-linecap:round; stroke-linejoin:round; stroke-width:4; stroke-opacity:1; fill:none" points="112.177,1486.45 112.177,47.2441 "/>
<polyline clip-path="url(#clip090)" style="stroke:#000000; stroke-linecap:round; stroke-linejoin:round; stroke-width:4; stroke-opacity:1; fill:none" points="112.177,1459.3 131.075,1459.3 "/>
<polyline clip-path="url(#clip090)" style="stroke:#000000; stroke-linecap:round; stroke-linejoin:round; stroke-width:4; stroke-opacity:1; fill:none" points="112.177,1142.45 131.075,1142.45 "/>
<polyline clip-path="url(#clip090)" style="stroke:#000000; stroke-linecap:round; stroke-linejoin:round; stroke-width:4; stroke-opacity:1; fill:none" points="112.177,825.595 131.075,825.595 "/>
<polyline clip-path="url(#clip090)" style="stroke:#000000; stroke-linecap:round; stroke-linejoin:round; stroke-width:4; stroke-opacity:1; fill:none" points="112.177,508.745 131.075,508.745 "/>
<polyline clip-path="url(#clip090)" style="stroke:#000000; stroke-linecap:round; stroke-linejoin:round; stroke-width:4; stroke-opacity:1; fill:none" points="112.177,191.894 131.075,191.894 "/>
<path clip-path="url(#clip090)" d="M64.2328 1445.09 Q60.6217 1445.09 58.793 1448.66 Q56.9875 1452.2 56.9875 1459.33 Q56.9875 1466.44 58.793 1470 Q60.6217 1473.54 64.2328 1473.54 Q67.867 1473.54 69.6726 1470 Q71.5013 1466.44 71.5013 1459.33 Q71.5013 1452.2 69.6726 1448.66 Q67.867 1445.09 64.2328 1445.09 M64.2328 1441.39 Q70.0429 1441.39 73.0985 1446 Q76.1772 1450.58 76.1772 1459.33 Q76.1772 1468.06 73.0985 1472.66 Q70.0429 1477.25 64.2328 1477.25 Q58.4226 1477.25 55.344 1472.66 Q52.2884 1468.06 52.2884 1459.33 Q52.2884 1450.58 55.344 1446 Q58.4226 1441.39 64.2328 1441.39 Z" fill="#000000" fill-rule="nonzero" fill-opacity="1" /><path clip-path="url(#clip090)" d="M59.8578 1155.79 L76.1772 1155.79 L76.1772 1159.73 L54.2328 1159.73 L54.2328 1155.79 Q56.8949 1153.04 61.4782 1148.41 Q66.0846 1143.75 67.2652 1142.41 Q69.5105 1139.89 70.3902 1138.15 Q71.2929 1136.39 71.2929 1134.7 Q71.2929 1131.95 69.3485 1130.21 Q67.4272 1128.48 64.3254 1128.48 Q62.1263 1128.48 59.6726 1129.24 Q57.2421 1130 54.4643 1131.55 L54.4643 1126.83 Q57.2884 1125.7 59.7421 1125.12 Q62.1958 1124.54 64.2328 1124.54 Q69.6031 1124.54 72.7976 1127.23 Q75.992 1129.91 75.992 1134.4 Q75.992 1136.53 75.1818 1138.45 Q74.3948 1140.35 72.2883 1142.94 Q71.7096 1143.61 68.6078 1146.83 Q65.5059 1150.03 59.8578 1155.79 Z" fill="#000000" fill-rule="nonzero" fill-opacity="1" /><path clip-path="url(#clip090)" d="M66.5939 812.389 L54.7884 830.838 L66.5939 830.838 L66.5939 812.389 M65.367 808.315 L71.2466 808.315 L71.2466 830.838 L76.1772 830.838 L76.1772 834.727 L71.2466 834.727 L71.2466 842.875 L66.5939 842.875 L66.5939 834.727 L50.9921 834.727 L50.9921 830.213 L65.367 808.315 Z" fill="#000000" fill-rule="nonzero" fill-opacity="1" /><path clip-path="url(#clip090)" d="M64.6495 506.881 Q61.5013 506.881 59.6495 509.034 Q57.8208 511.187 57.8208 514.937 Q57.8208 518.664 59.6495 520.839 Q61.5013 522.992 64.6495 522.992 Q67.7976 522.992 69.6263 520.839 Q71.4781 518.664 71.4781 514.937 Q71.4781 511.187 69.6263 509.034 Q67.7976 506.881 64.6495 506.881 M73.9318 492.228 L73.9318 496.488 Q72.1726 495.654 70.367 495.215 Q68.5846 494.775 66.8254 494.775 Q62.1958 494.775 59.7421 497.9 Q57.3115 501.025 56.9643 507.344 Q58.33 505.33 60.3902 504.265 Q62.4504 503.177 64.9272 503.177 Q70.1355 503.177 73.1448 506.349 Q76.1772 509.497 76.1772 514.937 Q76.1772 520.261 73.029 523.478 Q69.8809 526.696 64.6495 526.696 Q58.6541 526.696 55.4828 522.113 Q52.3116 517.506 52.3116 508.779 Q52.3116 500.585 56.2004 495.724 Q60.0893 490.84 66.6402 490.84 Q68.3994 490.84 70.1818 491.187 Q71.9874 491.534 73.9318 492.228 Z" fill="#000000" fill-rule="nonzero" fill-opacity="1" /><path clip-path="url(#clip090)" d="M64.3254 192.762 Q60.9921 192.762 59.0708 194.545 Q57.1726 196.327 57.1726 199.452 Q57.1726 202.577 59.0708 204.36 Q60.9921 206.142 64.3254 206.142 Q67.6587 206.142 69.58 204.36 Q71.5013 202.554 71.5013 199.452 Q71.5013 196.327 69.58 194.545 Q67.6819 192.762 64.3254 192.762 M59.6495 190.772 Q56.6402 190.031 54.9504 187.971 Q53.2838 185.911 53.2838 182.948 Q53.2838 178.804 56.2236 176.397 Q59.1865 173.989 64.3254 173.989 Q69.4874 173.989 72.4272 176.397 Q75.367 178.804 75.367 182.948 Q75.367 185.911 73.6772 187.971 Q72.0105 190.031 69.0244 190.772 Q72.404 191.559 74.279 193.85 Q76.1772 196.142 76.1772 199.452 Q76.1772 204.475 73.0985 207.16 Q70.0429 209.846 64.3254 209.846 Q58.6078 209.846 55.5291 207.16 Q52.4736 204.475 52.4736 199.452 Q52.4736 196.142 54.3717 193.85 Q56.2699 191.559 59.6495 190.772 M57.9365 183.387 Q57.9365 186.073 59.6032 187.577 Q61.293 189.082 64.3254 189.082 Q67.3346 189.082 69.0244 187.577 Q70.7374 186.073 70.7374 183.387 Q70.7374 180.702 69.0244 179.198 Q67.3346 177.693 64.3254 177.693 Q61.293 177.693 59.6032 179.198 Q57.9365 180.702 57.9365 183.387 Z" fill="#000000" fill-rule="nonzero" fill-opacity="1" /><path clip-path="url(#clip091)" d="M175.59 1300.87 L196.727 1296.63 L217.865 1287.03 L239.002 1280.57 L260.14 1263.13 L281.277 1244.36 L302.415 1228.46 L323.553 1202.5 L344.69 1181.43 L365.828 1140.48 L386.965 1090.42 L408.103 1042.35 L429.24 973.061 L450.378 942.321 L471.515 895.012 L492.653 818.024 L513.79 719.108 L534.928 630.931 L556.065 595.411 L577.203 563.107 L598.34 576.217 L619.478 749.188 L640.616 886.452 L661.753 1001.76 L682.891 1128.78 L704.028 1224.8 L725.166 1273.13 L746.303 1300.18 L767.441 1303.97 L788.578 1326.53 L809.716 1346.97 L830.853 1355.29 L851.991 1359.48 L873.128 1357.43 L894.266 1352.31 L915.404 1344.71 L936.541 1322.44 L957.679 1303.67 L978.816 1286.46 L999.954 1267.79 L1021.09 1243.58 L1042.23 1226.67 L1063.37 1191.1 L1084.5 1162.21 L1105.64 1100.35 L1126.78 1052.65 L1147.92 968.302 L1169.05 894.482 L1190.19 854.234 L1211.33 771.796 L1232.47 753.912 L1253.6 824.67 L1274.74 865.336 L1295.88 963.714 L1317.02 1048.46 L1338.15 1096.6 L1359.29 1180.07 L1380.43 1215.31 L1401.57 1256.59 L1422.7 1264.26 L1443.84 1278.34 L1464.98 1291.22 L1486.12 1292.17 L1507.25 1304.07 L1528.39 1315.16 L1549.53 1335.32 L1570.67 1351.53 L1591.8 1354.28 L1612.94 1354.24 L1634.08 1348.9 L1655.22 1338.12 L1676.35 1324.43 L1697.49 1305.63 L1718.63 1293.36 L1739.77 1273.01 L1760.9 1252.55 L1782.04 1221.82 L1803.18 1197.82 L1824.32 1161.18 L1845.46 1127.78 L1866.59 1115.97 L1887.73 1082.44 L1908.87 1031.25 L1930.01 991.745 L1951.14 933.365 L1972.28 1025.58 L1993.42 1155.61 L2014.56 1219.91 L2035.69 1265.27 L2056.83 1297.31 L2077.97 1317.56 L2099.11 1315.64 L2120.24 1320.45 L2141.38 1317.16 L2162.52 1313.06 L2183.66 1305.84 L2204.79 1296.13 L2225.93 1305.76 L2247.07 1309.01 L2268.21 1337.94 L2289.34 1358.79 L2289.34 1090.07 L2268.21 1132.21 L2247.07 1117.62 L2225.93 1083.36 L2204.79 1020.48 L2183.66 812.109 L2162.52 414.855 L2141.38 127.161 L2120.24 117.794 L2099.11 87.9763 L2077.97 208.887 L2056.83 264.098 L2035.69 314.104 L2014.56 400.88 L1993.42 508.275 L1972.28 584.472 L1951.14 638.195 L1930.01 558.448 L1908.87 379.018 L1887.73 347.408 L1866.59 343.179 L1845.46 360.853 L1824.32 459.585 L1803.18 604.109 L1782.04 679.624 L1760.9 767.05 L1739.77 830.703 L1718.63 884.719 L1697.49 962.629 L1676.35 1019.18 L1655.22 1044.8 L1634.08 1108 L1612.94 1138.42 L1591.8 1158.71 L1570.67 1181.05 L1549.53 1181.76 L1528.39 1165.75 L1507.25 1123.14 L1486.12 1095.51 L1464.98 1064.09 L1443.84 940.987 L1422.7 744.937 L1401.57 485.323 L1380.43 262.133 L1359.29 198.839 L1338.15 220.422 L1317.02 263.215 L1295.88 311.689 L1274.74 438.599 L1253.6 412.028 L1232.47 443.665 L1211.33 458.628 L1190.19 502.102 L1169.05 404.405 L1147.92 448.521 L1126.78 522.349 L1105.64 682.979 L1084.5 760.486 L1063.37 854.595 L1042.23 926.478 L1021.09 976.628 L999.954 1053.46 L978.816 1109.04 L957.679 1145.56 L936.541 1187.73 L915.404 1214.79 L894.266 1221.71 L873.128 1230.58 L851.991 1257.41 L830.853 1258.98 L809.716 1250.81 L788.578 1239.05 L767.441 1209.46 L746.303 1131.8 L725.166 984.012 L704.028 855.949 L682.891 673.225 L661.753 523.112 L640.616 364.604 L619.478 335.557 L598.34 306.526 L577.203 371.1 L556.065 368.606 L534.928 469.905 L513.79 536.599 L492.653 548.975 L471.515 657.827 L450.378 707.621 L429.24 774.177 L408.103 813.517 L386.965 883.579 L365.828 963.056 L344.69 1046.43 L323.553 1104.95 L302.415 1149.37 L281.277 1179.24 L260.14 1212.6 L239.002 1244.87 L217.865 1258.98 L196.727 1282.06 L175.59 1300.87  Z" fill="#009af9" fill-rule="evenodd" fill-opacity="0.5"/>
<polyline clip-path="url(#clip091)" style="stroke:#009af9; stroke-linecap:round; stroke-linejoin:round; stroke-width:12; stroke-opacity:1; fill:none" points="175.59,1300.87 196.727,1290.12 217.865,1277.63 239.002,1257.14 260.14,1234.65 281.277,1209.99 302.415,1196.39 323.553,1165.88 344.69,1140.41 365.828,1101.5 386.965,1050.28 408.103,1014.03 429.24,944.74 450.378,863.281 471.515,790.849 492.653,709.879 513.79,623.978 534.928,575.366 556.065,464.588 577.203,442.278 598.34,471.414 619.478,513.921 640.616,564.874 661.753,667.773 682.891,831.765 704.028,1019.4 725.166,1139.09 746.303,1230.21 767.441,1281.95 788.578,1292.47 809.716,1302.22 830.853,1307.72 851.991,1306.36 873.128,1304.43 894.266,1298.01 915.404,1294.32 936.541,1278.37 957.679,1248.93 978.816,1232.21 999.954,1202.54 1021.09,1174.91 1042.23,1138.81 1063.37,1095.43 1084.5,1024.37 1105.64,972.046 1126.78,913.564 1147.92,814.62 1169.05,723.359 1190.19,707.648 1211.33,663.945 1232.47,612.858 1253.6,566.918 1274.74,533.141 1295.88,556.249 1317.02,621.846 1338.15,753.23 1359.29,876.195 1380.43,965.258 1401.57,1053.8 1422.7,1128.15 1443.84,1159.16 1464.98,1190.26 1486.12,1226.19 1507.25,1235.22 1528.39,1235.95 1549.53,1241.27 1570.67,1228.68 1591.8,1211.86 1612.94,1200.38 1634.08,1180.8 1655.22,1172.88 1676.35,1167.84 1697.49,1134.82 1718.63,1112.78 1739.77,1076.68 1760.9,1001.25 1782.04,935.46 1803.18,882.569 1824.32,850.188 1845.46,769.331 1866.59,709.052 1887.73,647.95 1908.87,673.966 1930.01,714.914 1951.14,751.295 1972.28,801.122 1993.42,792.065 2014.56,846.991 2035.69,879.138 2056.83,906.382 2077.97,927.847 2099.11,956.067 2120.24,975.036 2141.38,1022.17 2162.52,1068.81 2183.66,1137.94 2204.79,1163.8 2225.93,1207.46 2247.07,1212.85 2268.21,1203.62 2289.34,1193.59 "/>
<path clip-path="url(#clip091)" d="M175.59 1300.87 L196.727 1333.52 L217.865 1350.9 L239.002 1373.07 L260.14 1386.71 L281.277 1398.83 L302.415 1406.66 L323.553 1416.1 L344.69 1420.91 L365.828 1424.35 L386.965 1425.98 L408.103 1425.74 L429.24 1424.89 L450.378 1424.38 L471.515 1422.44 L492.653 1418.34 L513.79 1409.05 L534.928 1394.09 L556.065 1371.59 L577.203 1336.02 L598.34 1283.09 L619.478 1212.32 L640.616 1104.64 L661.753 1008.73 L682.891 929.756 L704.028 965.201 L725.166 1047.63 L746.303 1104.79 L767.441 1163.82 L788.578 1207.71 L809.716 1255.07 L830.853 1293.95 L851.991 1310.94 L873.128 1347.06 L894.266 1369.62 L915.404 1389.45 L936.541 1401.87 L957.679 1408.1 L978.816 1415.42 L999.954 1416.97 L1021.09 1422.79 L1042.23 1428.13 L1063.37 1432.15 L1084.5 1436.7 L1105.64 1438.49 L1126.78 1439.39 L1147.92 1439.56 L1169.05 1438.12 L1190.19 1436.08 L1211.33 1433.65 L1232.47 1428.98 L1253.6 1419.92 L1274.74 1408.97 L1295.88 1381.32 L1317.02 1348.16 L1338.15 1283.53 L1359.29 1211.13 L1380.43 1109.03 L1401.57 1104.8 L1422.7 1152.71 L1443.84 1192.49 L1464.98 1234.36 L1486.12 1268.59 L1507.25 1306.42 L1528.39 1323.14 L1549.53 1338.89 L1570.67 1353.8 L1591.8 1374.58 L1612.94 1387.55 L1634.08 1391.06 L1655.22 1397.87 L1676.35 1405.12 L1697.49 1412.08 L1718.63 1418.3 L1739.77 1426.91 L1760.9 1432.48 L1782.04 1438.02 L1803.18 1440.45 L1824.32 1442.39 L1845.46 1445.17 L1866.59 1445.72 L1887.73 1445.28 L1908.87 1444.35 L1930.01 1443.31 L1951.14 1442.17 L1972.28 1439.21 L1993.42 1434.32 L2014.56 1426.8 L2035.69 1414.71 L2056.83 1391.17 L2077.97 1358.65 L2099.11 1305.85 L2120.24 1253.2 L2141.38 1280.67 L2162.52 1321.32 L2183.66 1343.33 L2204.79 1366.88 L2225.93 1378.28 L2247.07 1390.58 L2268.21 1394.7 L2289.34 1403.27 L2289.34 915.632 L2268.21 801.51 L2247.07 582.083 L2225.93 560.125 L2204.79 551.014 L2183.66 581.751 L2162.52 700.657 L2141.38 831.896 L2120.24 895.945 L2099.11 985.366 L2077.97 1058.95 L2056.83 1006.06 L2035.69 930.543 L2014.56 827.262 L1993.42 722.621 L1972.28 605.639 L1951.14 672.531 L1930.01 841.461 L1908.87 984.153 L1887.73 1114.96 L1866.59 1209.14 L1845.46 1275.9 L1824.32 1326.8 L1803.18 1354.08 L1782.04 1359.63 L1760.9 1354.68 L1739.77 1349.79 L1718.63 1342.56 L1697.49 1329.21 L1676.35 1310.34 L1655.22 1286.45 L1634.08 1255.72 L1612.94 1220.88 L1591.8 1177.53 L1570.67 1109.5 L1549.53 1037.01 L1528.39 968.567 L1507.25 854.579 L1486.12 710.848 L1464.98 605.043 L1443.84 567.804 L1422.7 645.825 L1401.57 832.52 L1380.43 828.414 L1359.29 816.765 L1338.15 816.691 L1317.02 887.575 L1295.88 890.979 L1274.74 892.348 L1253.6 959.649 L1232.47 1041.58 L1211.33 1109.92 L1190.19 1191.64 L1169.05 1262.28 L1147.92 1318.8 L1126.78 1353.51 L1105.64 1374.72 L1084.5 1385.46 L1063.37 1387.8 L1042.23 1384.5 L1021.09 1382.68 L999.954 1381.53 L978.816 1370.59 L957.679 1356.59 L936.541 1341.33 L915.404 1320.27 L894.266 1280.65 L873.128 1235.38 L851.991 1183.51 L830.853 1105.87 L809.716 970.86 L788.578 904.844 L767.441 790.769 L746.303 694.259 L725.166 670.097 L704.028 681.353 L682.891 743.579 L661.753 781.729 L640.616 851.362 L619.478 921.8 L598.34 1053.19 L577.203 1124.41 L556.065 1203.19 L534.928 1254.01 L513.79 1293.56 L492.653 1330.68 L471.515 1361.43 L450.378 1377.59 L429.24 1391.26 L408.103 1397.7 L386.965 1402.92 L365.828 1398.7 L344.69 1397.19 L323.553 1388.01 L302.415 1385.81 L281.277 1377.99 L260.14 1370.47 L239.002 1360.7 L217.865 1341.52 L196.727 1325.72 L175.59 1300.87  Z" fill="#e26f46" fill-rule="evenodd" fill-opacity="0.5"/>
<polyline clip-path="url(#clip091)" style="stroke:#e26f46; stroke-linecap:round; stroke-linejoin:round; stroke-width:12; stroke-opacity:1; fill:none" points="175.59,1300.87 196.727,1328.43 217.865,1348.44 239.002,1367.47 260.14,1380.1 281.277,1391.71 302.415,1399.05 323.553,1402.51 344.69,1410.85 365.828,1414.16 386.965,1416.97 408.103,1415.97 429.24,1417.23 450.378,1414.03 471.515,1407.07 492.653,1398.81 513.79,1384.77 534.928,1364.48 556.065,1331.69 577.203,1290.54 598.34,1231.73 619.478,1127.26 640.616,1038.26 661.753,905.769 682.891,803.35 704.028,788.753 725.166,820.595 746.303,900.433 767.441,976.947 788.578,1051.5 809.716,1136.6 830.853,1203.05 851.991,1252.36 873.128,1288.58 894.266,1323.7 915.404,1352.08 936.541,1366.24 957.679,1378.78 978.816,1392.42 999.954,1399.48 1021.09,1407.86 1042.23,1410.42 1063.37,1415.38 1084.5,1420.58 1105.64,1420.68 1126.78,1420.29 1147.92,1413.69 1169.05,1404.45 1190.19,1384.16 1211.33,1355.15 1232.47,1311.63 1253.6,1272.12 1274.74,1225.85 1295.88,1152.07 1317.02,1061.4 1338.15,1023.29 1359.29,994.442 1380.43,971.224 1401.57,944.97 1422.7,1003.07 1443.84,1029.19 1464.98,1051.6 1486.12,1112.86 1507.25,1162.91 1528.39,1215.91 1549.53,1253.43 1570.67,1285.51 1591.8,1310.54 1612.94,1335.71 1634.08,1352.19 1655.22,1359.63 1676.35,1368.66 1697.49,1386.83 1718.63,1396.75 1739.77,1397.41 1760.9,1399.09 1782.04,1395.72 1803.18,1394.55 1824.32,1381.2 1845.46,1374.78 1866.59,1362.82 1887.73,1334.84 1908.87,1291.55 1930.01,1241.18 1951.14,1191.36 1972.28,1169.36 1993.42,1137.63 2014.56,1105.35 2035.69,1101.3 2056.83,1139.23 2077.97,1129.63 2099.11,1161.87 2120.24,1173.85 2141.38,1112.31 2162.52,1115.46 2183.66,1133.76 2204.79,1139.98 2225.93,1144.66 2247.07,1192.95 2268.21,1238.55 2289.34,1280.65 "/>
</svg>
