<?xml version="1.0" encoding="utf-8"?>
<svg xmlns="http://www.w3.org/2000/svg" xmlns:xlink="http://www.w3.org/1999/xlink" width="600" height="400" viewBox="0 0 2400 1600">
<defs>
  <clipPath id="clip300">
    <rect x="0" y="0" width="2400" height="1600"/>
  </clipPath>
</defs>
<path clip-path="url(#clip300)" d="M0 1600 L2400 1600 L2400 0 L0 0  Z" fill="#ffffff" fill-rule="evenodd" fill-opacity="1"/>
<defs>
  <clipPath id="clip301">
    <rect x="184" y="47" width="2170" height="1440"/>
  </clipPath>
</defs>
<path clip-path="url(#clip300)" d="M184.191 1486.45 L2352.76 1486.45 L2352.76 47.2441 L184.191 47.2441  Z" fill="#ffffff" fill-rule="evenodd" fill-opacity="1"/>
<polyline clip-path="url(#clip301)" style="stroke:#000000; stroke-linecap:round; stroke-linejoin:round; stroke-width:2; stroke-opacity:0.1; fill:none" points="245.565,1486.45 245.565,47.2441 "/>
<polyline clip-path="url(#clip301)" style="stroke:#000000; stroke-linecap:round; stroke-linejoin:round; stroke-width:2; stroke-opacity:0.1; fill:none" points="757.019,1486.45 757.019,47.2441 "/>
<polyline clip-path="url(#clip301)" style="stroke:#000000; stroke-linecap:round; stroke-linejoin:round; stroke-width:2; stroke-opacity:0.1; fill:none" points="1268.47,1486.45 1268.47,47.2441 "/>
<polyline clip-path="url(#clip301)" style="stroke:#000000; stroke-linecap:round; stroke-linejoin:round; stroke-width:2; stroke-opacity:0.1; fill:none" points="1779.93,1486.45 1779.93,47.2441 "/>
<polyline clip-path="url(#clip301)" style="stroke:#000000; stroke-linecap:round; stroke-linejoin:round; stroke-width:2; stroke-opacity:0.1; fill:none" points="2291.38,1486.45 2291.38,47.2441 "/>
<polyline clip-path="url(#clip301)" style="stroke:#000000; stroke-linecap:round; stroke-linejoin:round; stroke-width:2; stroke-opacity:0.1; fill:none" points="184.191,1453.34 2352.76,1453.34 "/>
<polyline clip-path="url(#clip301)" style="stroke:#000000; stroke-linecap:round; stroke-linejoin:round; stroke-width:2; stroke-opacity:0.1; fill:none" points="184.191,1109.51 2352.76,1109.51 "/>
<polyline clip-path="url(#clip301)" style="stroke:#000000; stroke-linecap:round; stroke-linejoin:round; stroke-width:2; stroke-opacity:0.1; fill:none" points="184.191,765.672 2352.76,765.672 "/>
<polyline clip-path="url(#clip301)" style="stroke:#000000; stroke-linecap:round; stroke-linejoin:round; stroke-width:2; stroke-opacity:0.1; fill:none" points="184.191,421.838 2352.76,421.838 "/>
<polyline clip-path="url(#clip301)" style="stroke:#000000; stroke-linecap:round; stroke-linejoin:round; stroke-width:2; stroke-opacity:0.1; fill:none" points="184.191,78.004 2352.76,78.004 "/>
<polyline clip-path="url(#clip300)" style="stroke:#000000; stroke-linecap:round; stroke-linejoin:round; stroke-width:4; stroke-opacity:1; fill:none" points="184.191,1486.45 2352.76,1486.45 "/>
<polyline clip-path="url(#clip300)" style="stroke:#000000; stroke-linecap:round; stroke-linejoin:round; stroke-width:4; stroke-opacity:1; fill:none" points="245.565,1486.45 245.565,1467.55 "/>
<polyline clip-path="url(#clip300)" style="stroke:#000000; stroke-linecap:round; stroke-linejoin:round; stroke-width:4; stroke-opacity:1; fill:none" points="757.019,1486.45 757.019,1467.55 "/>
<polyline clip-path="url(#clip300)" style="stroke:#000000; stroke-linecap:round; stroke-linejoin:round; stroke-width:4; stroke-opacity:1; fill:none" points="1268.47,1486.45 1268.47,1467.55 "/>
<polyline clip-path="url(#clip300)" style="stroke:#000000; stroke-linecap:round; stroke-linejoin:round; stroke-width:4; stroke-opacity:1; fill:none" points="1779.93,1486.45 1779.93,1467.55 "/>
<polyline clip-path="url(#clip300)" style="stroke:#000000; stroke-linecap:round; stroke-linejoin:round; stroke-width:4; stroke-opacity:1; fill:none" points="2291.38,1486.45 2291.38,1467.55 "/>
<path clip-path="url(#clip300)" d="M222.95 1517.37 Q219.338 1517.37 217.51 1520.93 Q215.704 1524.47 215.704 1531.6 Q215.704 1538.71 217.51 1542.27 Q219.338 1545.82 222.95 1545.82 Q226.584 1545.82 228.389 1542.27 Q230.218 1538.71 230.218 1531.6 Q230.218 1524.47 228.389 1520.93 Q226.584 1517.37 222.95 1517.37 M222.95 1513.66 Q228.76 1513.66 231.815 1518.27 Q234.894 1522.85 234.894 1531.6 Q234.894 1540.33 231.815 1544.94 Q228.76 1549.52 222.95 1549.52 Q217.139 1549.52 214.061 1544.94 Q211.005 1540.33 211.005 1531.6 Q211.005 1522.85 214.061 1518.27 Q217.139 1513.66 222.95 1513.66 Z" fill="#000000" fill-rule="nonzero" fill-opacity="1" /><path clip-path="url(#clip300)" d="M243.111 1542.97 L247.996 1542.97 L247.996 1548.85 L243.111 1548.85 L243.111 1542.97 Z" fill="#000000" fill-rule="nonzero" fill-opacity="1" /><path clip-path="url(#clip300)" d="M268.181 1517.37 Q264.57 1517.37 262.741 1520.93 Q260.935 1524.47 260.935 1531.6 Q260.935 1538.71 262.741 1542.27 Q264.57 1545.82 268.181 1545.82 Q271.815 1545.82 273.621 1542.27 Q275.449 1538.71 275.449 1531.6 Q275.449 1524.47 273.621 1520.93 Q271.815 1517.37 268.181 1517.37 M268.181 1513.66 Q273.991 1513.66 277.046 1518.27 Q280.125 1522.85 280.125 1531.6 Q280.125 1540.33 277.046 1544.94 Q273.991 1549.52 268.181 1549.52 Q262.371 1549.52 259.292 1544.94 Q256.236 1540.33 256.236 1531.6 Q256.236 1522.85 259.292 1518.27 Q262.371 1513.66 268.181 1513.66 Z" fill="#000000" fill-rule="nonzero" fill-opacity="1" /><path clip-path="url(#clip300)" d="M728.755 1544.91 L745.075 1544.91 L745.075 1548.85 L723.131 1548.85 L723.131 1544.91 Q725.793 1542.16 730.376 1537.53 Q734.982 1532.88 736.163 1531.53 Q738.408 1529.01 739.288 1527.27 Q740.191 1525.51 740.191 1523.82 Q740.191 1521.07 738.246 1519.33 Q736.325 1517.6 733.223 1517.6 Q731.024 1517.6 728.57 1518.36 Q726.14 1519.13 723.362 1520.68 L723.362 1515.95 Q726.186 1514.82 728.64 1514.24 Q731.093 1513.66 733.13 1513.66 Q738.501 1513.66 741.695 1516.35 Q744.89 1519.03 744.89 1523.52 Q744.89 1525.65 744.079 1527.57 Q743.292 1529.47 741.186 1532.07 Q740.607 1532.74 737.505 1535.95 Q734.404 1539.15 728.755 1544.91 Z" fill="#000000" fill-rule="nonzero" fill-opacity="1" /><path clip-path="url(#clip300)" d="M754.89 1542.97 L759.774 1542.97 L759.774 1548.85 L754.89 1548.85 L754.89 1542.97 Z" fill="#000000" fill-rule="nonzero" fill-opacity="1" /><path clip-path="url(#clip300)" d="M770.005 1514.29 L788.362 1514.29 L788.362 1518.22 L774.288 1518.22 L774.288 1526.7 Q775.306 1526.35 776.325 1526.19 Q777.343 1526 778.362 1526 Q784.149 1526 787.528 1529.17 Q790.908 1532.34 790.908 1537.76 Q790.908 1543.34 787.436 1546.44 Q783.964 1549.52 777.644 1549.52 Q775.468 1549.52 773.2 1549.15 Q770.954 1548.78 768.547 1548.04 L768.547 1543.34 Q770.63 1544.47 772.852 1545.03 Q775.075 1545.58 777.552 1545.58 Q781.556 1545.58 783.894 1543.48 Q786.232 1541.37 786.232 1537.76 Q786.232 1534.15 783.894 1532.04 Q781.556 1529.94 777.552 1529.94 Q775.677 1529.94 773.802 1530.35 Q771.95 1530.77 770.005 1531.65 L770.005 1514.29 Z" fill="#000000" fill-rule="nonzero" fill-opacity="1" /><path clip-path="url(#clip300)" d="M1235.64 1514.29 L1253.99 1514.29 L1253.99 1518.22 L1239.92 1518.22 L1239.92 1526.7 Q1240.94 1526.35 1241.96 1526.19 Q1242.98 1526 1243.99 1526 Q1249.78 1526 1253.16 1529.17 Q1256.54 1532.34 1256.54 1537.76 Q1256.54 1543.34 1253.07 1546.44 Q1249.6 1549.52 1243.28 1549.52 Q1241.1 1549.52 1238.83 1549.15 Q1236.59 1548.78 1234.18 1548.04 L1234.18 1543.34 Q1236.26 1544.47 1238.49 1545.03 Q1240.71 1545.58 1243.18 1545.58 Q1247.19 1545.58 1249.53 1543.48 Q1251.86 1541.37 1251.86 1537.76 Q1251.86 1534.15 1249.53 1532.04 Q1247.19 1529.94 1243.18 1529.94 Q1241.31 1529.94 1239.43 1530.35 Q1237.58 1530.77 1235.64 1531.65 L1235.64 1514.29 Z" fill="#000000" fill-rule="nonzero" fill-opacity="1" /><path clip-path="url(#clip300)" d="M1265.75 1542.97 L1270.64 1542.97 L1270.64 1548.85 L1265.75 1548.85 L1265.75 1542.97 Z" fill="#000000" fill-rule="nonzero" fill-opacity="1" /><path clip-path="url(#clip300)" d="M1290.82 1517.37 Q1287.21 1517.37 1285.38 1520.93 Q1283.58 1524.47 1283.58 1531.6 Q1283.58 1538.71 1285.38 1542.27 Q1287.21 1545.82 1290.82 1545.82 Q1294.46 1545.82 1296.26 1542.27 Q1298.09 1538.71 1298.09 1531.6 Q1298.09 1524.47 1296.26 1520.93 Q1294.46 1517.37 1290.82 1517.37 M1290.82 1513.66 Q1296.63 1513.66 1299.69 1518.27 Q1302.77 1522.85 1302.77 1531.6 Q1302.77 1540.33 1299.69 1544.94 Q1296.63 1549.52 1290.82 1549.52 Q1285.01 1549.52 1281.93 1544.94 Q1278.88 1540.33 1278.88 1531.6 Q1278.88 1522.85 1281.93 1518.27 Q1285.01 1513.66 1290.82 1513.66 Z" fill="#000000" fill-rule="nonzero" fill-opacity="1" /><path clip-path="url(#clip300)" d="M1746.25 1514.29 L1768.47 1514.29 L1768.47 1516.28 L1755.92 1548.85 L1751.04 1548.85 L1762.84 1518.22 L1746.25 1518.22 L1746.25 1514.29 Z" fill="#000000" fill-rule="nonzero" fill-opacity="1" /><path clip-path="url(#clip300)" d="M1777.59 1542.97 L1782.47 1542.97 L1782.47 1548.85 L1777.59 1548.85 L1777.59 1542.97 Z" fill="#000000" fill-rule="nonzero" fill-opacity="1" /><path clip-path="url(#clip300)" d="M1792.71 1514.29 L1811.06 1514.29 L1811.06 1518.22 L1796.99 1518.22 L1796.99 1526.7 Q1798.01 1526.35 1799.02 1526.19 Q1800.04 1526 1801.06 1526 Q1806.85 1526 1810.23 1529.17 Q1813.61 1532.34 1813.61 1537.76 Q1813.61 1543.34 1810.14 1546.44 Q1806.66 1549.52 1800.34 1549.52 Q1798.17 1549.52 1795.9 1549.15 Q1793.65 1548.78 1791.25 1548.04 L1791.25 1543.34 Q1793.33 1544.47 1795.55 1545.03 Q1797.77 1545.58 1800.25 1545.58 Q1804.26 1545.58 1806.59 1543.48 Q1808.93 1541.37 1808.93 1537.76 Q1808.93 1534.15 1806.59 1532.04 Q1804.26 1529.94 1800.25 1529.94 Q1798.38 1529.94 1796.5 1530.35 Q1794.65 1530.77 1792.71 1531.65 L1792.71 1514.29 Z" fill="#000000" fill-rule="nonzero" fill-opacity="1" /><path clip-path="url(#clip300)" d="M2243.45 1544.91 L2251.09 1544.91 L2251.09 1518.55 L2242.78 1520.21 L2242.78 1515.95 L2251.05 1514.29 L2255.72 1514.29 L2255.72 1544.91 L2263.36 1544.91 L2263.36 1548.85 L2243.45 1548.85 L2243.45 1544.91 Z" fill="#000000" fill-rule="nonzero" fill-opacity="1" /><path clip-path="url(#clip300)" d="M2282.81 1517.37 Q2279.19 1517.37 2277.37 1520.93 Q2275.56 1524.47 2275.56 1531.6 Q2275.56 1538.71 2277.37 1542.27 Q2279.19 1545.82 2282.81 1545.82 Q2286.44 1545.82 2288.24 1542.27 Q2290.07 1538.71 2290.07 1531.6 Q2290.07 1524.47 2288.24 1520.93 Q2286.44 1517.37 2282.81 1517.37 M2282.81 1513.66 Q2288.62 1513.66 2291.67 1518.27 Q2294.75 1522.85 2294.75 1531.6 Q2294.75 1540.33 2291.67 1544.94 Q2288.62 1549.52 2282.81 1549.52 Q2276.99 1549.52 2273.92 1544.94 Q2270.86 1540.33 2270.86 1531.6 Q2270.86 1522.85 2273.92 1518.27 Q2276.99 1513.66 2282.81 1513.66 Z" fill="#000000" fill-rule="nonzero" fill-opacity="1" /><path clip-path="url(#clip300)" d="M2302.97 1542.97 L2307.85 1542.97 L2307.85 1548.85 L2302.97 1548.85 L2302.97 1542.97 Z" fill="#000000" fill-rule="nonzero" fill-opacity="1" /><path clip-path="url(#clip300)" d="M2328.04 1517.37 Q2324.43 1517.37 2322.6 1520.93 Q2320.79 1524.47 2320.79 1531.6 Q2320.79 1538.71 2322.6 1542.27 Q2324.43 1545.82 2328.04 1545.82 Q2331.67 1545.82 2333.48 1542.27 Q2335.3 1538.71 2335.3 1531.6 Q2335.3 1524.47 2333.48 1520.93 Q2331.67 1517.37 2328.04 1517.37 M2328.04 1513.66 Q2333.85 1513.66 2336.9 1518.27 Q2339.98 1522.85 2339.98 1531.6 Q2339.98 1540.33 2336.9 1544.94 Q2333.85 1549.52 2328.04 1549.52 Q2322.23 1549.52 2319.15 1544.94 Q2316.09 1540.33 2316.09 1531.6 Q2316.09 1522.85 2319.15 1518.27 Q2322.23 1513.66 2328.04 1513.66 Z" fill="#000000" fill-rule="nonzero" fill-opacity="1" /><polyline clip-path="url(#clip300)" style="stroke:#000000; stroke-linecap:round; stroke-linejoin:round; stroke-width:4; stroke-opacity:1; fill:none" points="184.191,1486.45 184.191,47.2441 "/>
<polyline clip-path="url(#clip300)" style="stroke:#000000; stroke-linecap:round; stroke-linejoin:round; stroke-width:4; stroke-opacity:1; fill:none" points="184.191,1453.34 203.088,1453.34 "/>
<polyline clip-path="url(#clip300)" style="stroke:#000000; stroke-linecap:round; stroke-linejoin:round; stroke-width:4; stroke-opacity:1; fill:none" points="184.191,1109.51 203.088,1109.51 "/>
<polyline clip-path="url(#clip300)" style="stroke:#000000; stroke-linecap:round; stroke-linejoin:round; stroke-width:4; stroke-opacity:1; fill:none" points="184.191,765.672 203.088,765.672 "/>
<polyline clip-path="url(#clip300)" style="stroke:#000000; stroke-linecap:round; stroke-linejoin:round; stroke-width:4; stroke-opacity:1; fill:none" points="184.191,421.838 203.088,421.838 "/>
<polyline clip-path="url(#clip300)" style="stroke:#000000; stroke-linecap:round; stroke-linejoin:round; stroke-width:4; stroke-opacity:1; fill:none" points="184.191,78.004 203.088,78.004 "/>
<path clip-path="url(#clip300)" d="M91.0151 1439.14 Q87.404 1439.14 85.5753 1442.7 Q83.7697 1446.25 83.7697 1453.38 Q83.7697 1460.48 85.5753 1464.05 Q87.404 1467.59 91.0151 1467.59 Q94.6493 1467.59 96.4548 1464.05 Q98.2835 1460.48 98.2835 1453.38 Q98.2835 1446.25 96.4548 1442.7 Q94.6493 1439.14 91.0151 1439.14 M91.0151 1435.44 Q96.8252 1435.44 99.8808 1440.04 Q102.959 1444.63 102.959 1453.38 Q102.959 1462.1 99.8808 1466.71 Q96.8252 1471.29 91.0151 1471.29 Q85.2049 1471.29 82.1262 1466.71 Q79.0707 1462.1 79.0707 1453.38 Q79.0707 1444.63 82.1262 1440.04 Q85.2049 1435.44 91.0151 1435.44 Z" fill="#000000" fill-rule="nonzero" fill-opacity="1" /><path clip-path="url(#clip300)" d="M111.177 1464.74 L116.061 1464.74 L116.061 1470.62 L111.177 1470.62 L111.177 1464.74 Z" fill="#000000" fill-rule="nonzero" fill-opacity="1" /><path clip-path="url(#clip300)" d="M136.246 1439.14 Q132.635 1439.14 130.807 1442.7 Q129.001 1446.25 129.001 1453.38 Q129.001 1460.48 130.807 1464.05 Q132.635 1467.59 136.246 1467.59 Q139.881 1467.59 141.686 1464.05 Q143.515 1460.48 143.515 1453.38 Q143.515 1446.25 141.686 1442.7 Q139.881 1439.14 136.246 1439.14 M136.246 1435.44 Q142.056 1435.44 145.112 1440.04 Q148.191 1444.63 148.191 1453.38 Q148.191 1462.1 145.112 1466.71 Q142.056 1471.29 136.246 1471.29 Q130.436 1471.29 127.357 1466.71 Q124.302 1462.1 124.302 1453.38 Q124.302 1444.63 127.357 1440.04 Q130.436 1435.44 136.246 1435.44 Z" fill="#000000" fill-rule="nonzero" fill-opacity="1" /><path clip-path="url(#clip300)" d="M86.0382 1122.85 L102.358 1122.85 L102.358 1126.79 L80.4133 1126.79 L80.4133 1122.85 Q83.0753 1120.1 87.6586 1115.47 Q92.2651 1110.81 93.4456 1109.47 Q95.691 1106.95 96.5706 1105.21 Q97.4734 1103.45 97.4734 1101.76 Q97.4734 1099.01 95.5289 1097.27 Q93.6076 1095.54 90.5058 1095.54 Q88.3067 1095.54 85.8531 1096.3 Q83.4225 1097.06 80.6447 1098.62 L80.6447 1093.89 Q83.4688 1092.76 85.9225 1092.18 Q88.3762 1091.6 90.4132 1091.6 Q95.7836 1091.6 98.978 1094.29 Q102.172 1096.97 102.172 1101.46 Q102.172 1103.59 101.362 1105.51 Q100.575 1107.41 98.4687 1110 Q97.89 1110.68 94.7882 1113.89 Q91.6864 1117.09 86.0382 1122.85 Z" fill="#000000" fill-rule="nonzero" fill-opacity="1" /><path clip-path="url(#clip300)" d="M112.172 1120.91 L117.057 1120.91 L117.057 1126.79 L112.172 1126.79 L112.172 1120.91 Z" fill="#000000" fill-rule="nonzero" fill-opacity="1" /><path clip-path="url(#clip300)" d="M127.288 1092.23 L145.644 1092.23 L145.644 1096.16 L131.57 1096.16 L131.57 1104.63 Q132.589 1104.29 133.607 1104.12 Q134.626 1103.94 135.644 1103.94 Q141.431 1103.94 144.811 1107.11 Q148.191 1110.28 148.191 1115.7 Q148.191 1121.28 144.718 1124.38 Q141.246 1127.46 134.927 1127.46 Q132.751 1127.46 130.482 1127.09 Q128.237 1126.72 125.83 1125.98 L125.83 1121.28 Q127.913 1122.41 130.135 1122.97 Q132.357 1123.52 134.834 1123.52 Q138.839 1123.52 141.177 1121.42 Q143.515 1119.31 143.515 1115.7 Q143.515 1112.09 141.177 1109.98 Q138.839 1107.87 134.834 1107.87 Q132.959 1107.87 131.084 1108.29 Q129.232 1108.71 127.288 1109.59 L127.288 1092.23 Z" fill="#000000" fill-rule="nonzero" fill-opacity="1" /><path clip-path="url(#clip300)" d="M81.0614 748.392 L99.4178 748.392 L99.4178 752.328 L85.3438 752.328 L85.3438 760.8 Q86.3623 760.452 87.3808 760.29 Q88.3993 760.105 89.4178 760.105 Q95.2049 760.105 98.5845 763.277 Q101.964 766.448 101.964 771.864 Q101.964 777.443 98.4919 780.545 Q95.0197 783.624 88.7003 783.624 Q86.5243 783.624 84.2558 783.253 Q82.0105 782.883 79.6031 782.142 L79.6031 777.443 Q81.6864 778.577 83.9086 779.133 Q86.1308 779.688 88.6077 779.688 Q92.6123 779.688 94.9502 777.582 Q97.2882 775.476 97.2882 771.864 Q97.2882 768.253 94.9502 766.147 Q92.6123 764.04 88.6077 764.04 Q86.7327 764.04 84.8577 764.457 Q83.0058 764.874 81.0614 765.753 L81.0614 748.392 Z" fill="#000000" fill-rule="nonzero" fill-opacity="1" /><path clip-path="url(#clip300)" d="M111.177 777.073 L116.061 777.073 L116.061 782.952 L111.177 782.952 L111.177 777.073 Z" fill="#000000" fill-rule="nonzero" fill-opacity="1" /><path clip-path="url(#clip300)" d="M136.246 751.471 Q132.635 751.471 130.807 755.036 Q129.001 758.577 129.001 765.707 Q129.001 772.814 130.807 776.378 Q132.635 779.92 136.246 779.92 Q139.881 779.92 141.686 776.378 Q143.515 772.814 143.515 765.707 Q143.515 758.577 141.686 755.036 Q139.881 751.471 136.246 751.471 M136.246 747.767 Q142.056 747.767 145.112 752.374 Q148.191 756.957 148.191 765.707 Q148.191 774.434 145.112 779.04 Q142.056 783.624 136.246 783.624 Q130.436 783.624 127.357 779.04 Q124.302 774.434 124.302 765.707 Q124.302 756.957 127.357 752.374 Q130.436 747.767 136.246 747.767 Z" fill="#000000" fill-rule="nonzero" fill-opacity="1" /><path clip-path="url(#clip300)" d="M80.8299 404.558 L103.052 404.558 L103.052 406.549 L90.5058 439.118 L85.6216 439.118 L97.4271 408.493 L80.8299 408.493 L80.8299 404.558 Z" fill="#000000" fill-rule="nonzero" fill-opacity="1" /><path clip-path="url(#clip300)" d="M112.172 433.239 L117.057 433.239 L117.057 439.118 L112.172 439.118 L112.172 433.239 Z" fill="#000000" fill-rule="nonzero" fill-opacity="1" /><path clip-path="url(#clip300)" d="M127.288 404.558 L145.644 404.558 L145.644 408.493 L131.57 408.493 L131.57 416.966 Q132.589 416.618 133.607 416.456 Q134.626 416.271 135.644 416.271 Q141.431 416.271 144.811 419.442 Q148.191 422.614 148.191 428.03 Q148.191 433.609 144.718 436.711 Q141.246 439.789 134.927 439.789 Q132.751 439.789 130.482 439.419 Q128.237 439.049 125.83 438.308 L125.83 433.609 Q127.913 434.743 130.135 435.299 Q132.357 435.854 134.834 435.854 Q138.839 435.854 141.177 433.748 Q143.515 431.641 143.515 428.03 Q143.515 424.419 141.177 422.313 Q138.839 420.206 134.834 420.206 Q132.959 420.206 131.084 420.623 Q129.232 421.04 127.288 421.919 L127.288 404.558 Z" fill="#000000" fill-rule="nonzero" fill-opacity="1" /><path clip-path="url(#clip300)" d="M51.6634 91.3488 L59.3023 91.3488 L59.3023 64.9832 L50.9921 66.6499 L50.9921 62.3906 L59.256 60.724 L63.9319 60.724 L63.9319 91.3488 L71.5707 91.3488 L71.5707 95.284 L51.6634 95.284 L51.6634 91.3488 Z" fill="#000000" fill-rule="nonzero" fill-opacity="1" /><path clip-path="url(#clip300)" d="M91.0151 63.8026 Q87.404 63.8026 85.5753 67.3674 Q83.7697 70.9091 83.7697 78.0387 Q83.7697 85.1451 85.5753 88.7099 Q87.404 92.2516 91.0151 92.2516 Q94.6493 92.2516 96.4548 88.7099 Q98.2835 85.1451 98.2835 78.0387 Q98.2835 70.9091 96.4548 67.3674 Q94.6493 63.8026 91.0151 63.8026 M91.0151 60.099 Q96.8252 60.099 99.8808 64.7054 Q102.959 69.2887 102.959 78.0387 Q102.959 86.7655 99.8808 91.3719 Q96.8252 95.9553 91.0151 95.9553 Q85.2049 95.9553 82.1262 91.3719 Q79.0707 86.7655 79.0707 78.0387 Q79.0707 69.2887 82.1262 64.7054 Q85.2049 60.099 91.0151 60.099 Z" fill="#000000" fill-rule="nonzero" fill-opacity="1" /><path clip-path="url(#clip300)" d="M111.177 89.4044 L116.061 89.4044 L116.061 95.284 L111.177 95.284 L111.177 89.4044 Z" fill="#000000" fill-rule="nonzero" fill-opacity="1" /><path clip-path="url(#clip300)" d="M136.246 63.8026 Q132.635 63.8026 130.807 67.3674 Q129.001 70.9091 129.001 78.0387 Q129.001 85.1451 130.807 88.7099 Q132.635 92.2516 136.246 92.2516 Q139.881 92.2516 141.686 88.7099 Q143.515 85.1451 143.515 78.0387 Q143.515 70.9091 141.686 67.3674 Q139.881 63.8026 136.246 63.8026 M136.246 60.099 Q142.056 60.099 145.112 64.7054 Q148.191 69.2887 148.191 78.0387 Q148.191 86.7655 145.112 91.3719 Q142.056 95.9553 136.246 95.9553 Q130.436 95.9553 127.357 91.3719 Q124.302 86.7655 124.302 78.0387 Q124.302 69.2887 127.357 64.7054 Q130.436 60.099 136.246 60.099 Z" fill="#000000" fill-rule="nonzero" fill-opacity="1" /><path clip-path="url(#clip301)" d="M245.565 1315.81 L266.023 1327.19 L286.481 1307.78 L306.94 1306.36 L327.398 1292.61 L347.856 1264.03 L368.314 1248.45 L388.772 1216.53 L409.23 1186.56 L429.689 1159.59 L450.147 1123.9 L470.605 1089.85 L491.063 1052.3 L511.521 993.973 L531.979 952.017 L552.438 905.965 L572.896 856.964 L593.354 799.735 L613.812 863.397 L634.27 969.936 L654.728 1105.52 L675.187 1192.08 L695.645 1246.08 L716.103 1267.8 L736.561 1304.19 L757.019 1333.06 L777.477 1342.71 L797.936 1355.81 L818.394 1365.28 L838.852 1371.64 L859.31 1371.45 L879.768 1365.15 L900.226 1359.53 L920.685 1354.52 L941.143 1345.51 L961.601 1338.58 L982.059 1328.07 L1002.52 1314.7 L1022.98 1290.54 L1043.43 1269.93 L1063.89 1253.75 L1084.35 1231.03 L1104.81 1191.28 L1125.27 1163.54 L1145.72 1130.76 L1166.18 1085 L1186.64 1036.61 L1207.1 978.339 L1227.56 912.724 L1248.02 844.874 L1268.47 780.824 L1288.93 699.638 L1309.39 722.25 L1329.85 832.669 L1350.31 919.967 L1370.76 1106.28 L1391.22 1218.01 L1411.68 1294.34 L1432.14 1334.19 L1452.6 1357.61 L1473.05 1370.06 L1493.51 1368.03 L1513.97 1372.11 L1534.43 1372.32 L1554.89 1375.79 L1575.35 1373.87 L1595.8 1374.89 L1616.26 1374.95 L1636.72 1368.89 L1657.18 1365.33 L1677.64 1357.14 L1698.09 1353.6 L1718.55 1345.18 L1739.01 1327.79 L1759.47 1314.92 L1779.93 1297.79 L1800.39 1281.57 L1820.84 1260.88 L1841.3 1240.75 L1861.76 1213.4 L1882.22 1174.62 L1902.68 1117.97 L1923.13 1057.74 L1943.59 1016.11 L1964.05 1035.28 L1984.51 1103.55 L2004.97 1154.61 L2025.43 1202.16 L2045.88 1240.8 L2066.34 1279.33 L2086.8 1303.87 L2107.26 1324.58 L2127.72 1339.42 L2148.17 1354.32 L2168.63 1360.47 L2189.09 1362.89 L2209.55 1373.94 L2230.01 1374.45 L2250.47 1375.98 L2270.92 1382.5 L2291.38 1380.17 L2291.38 1127.2 L2270.92 1158.72 L2250.47 1134.84 L2230.01 1060.76 L2209.55 876.706 L2189.09 608.605 L2168.63 331.1 L2148.17 141.174 L2127.72 87.9763 L2107.26 165.435 L2086.8 242.043 L2066.34 361.323 L2045.88 331.476 L2025.43 344.309 L2004.97 399.088 L1984.51 382.012 L1964.05 364.661 L1943.59 433.895 L1923.13 514.189 L1902.68 532.232 L1882.22 654.219 L1861.76 747.517 L1841.3 811.028 L1820.84 813.229 L1800.39 844.757 L1779.93 864.456 L1759.47 916.847 L1739.01 960.668 L1718.55 1014.59 L1698.09 1062.47 L1677.64 1096.02 L1657.18 1131.78 L1636.72 1174.41 L1616.26 1203.68 L1595.8 1226.54 L1575.35 1241.14 L1554.89 1241.59 L1534.43 1232.09 L1513.97 1202.92 L1493.51 1167.45 L1473.05 1081 L1452.6 938.136 L1432.14 712.518 L1411.68 452.827 L1391.22 296.898 L1370.76 314.169 L1350.31 383.549 L1329.85 384.855 L1309.39 316.483 L1288.93 280.59 L1268.47 306.998 L1248.02 424.796 L1227.56 529.348 L1207.1 684.199 L1186.64 810.673 L1166.18 892.241 L1145.72 941.44 L1125.27 971.59 L1104.81 1022.73 L1084.35 1045.83 L1063.89 1059.72 L1043.43 1090.15 L1022.98 1109.1 L1002.52 1136.9 L982.059 1157.71 L961.601 1169.7 L941.143 1192.81 L920.685 1187.08 L900.226 1194.39 L879.768 1204.43 L859.31 1233.47 L838.852 1237.81 L818.394 1218.46 L797.936 1175.98 L777.477 1067.9 L757.019 903.883 L736.561 676.927 L716.103 508.169 L695.645 486.214 L675.187 477.643 L654.728 473.106 L634.27 434.306 L613.812 476.301 L593.354 482.716 L572.896 581.403 L552.438 535.771 L531.979 597.997 L511.521 687.647 L491.063 731.966 L470.605 774.222 L450.147 823.444 L429.689 908.452 L409.23 986.783 L388.772 1033.29 L368.314 1108.1 L347.856 1136.84 L327.398 1185.45 L306.94 1237.88 L286.481 1264.19 L266.023 1294.98 L245.565 1315.81  Z" fill="#009af9" fill-rule="evenodd" fill-opacity="0.5"/>
<polyline clip-path="url(#clip301)" style="stroke:#009af9; stroke-linecap:round; stroke-linejoin:round; stroke-width:12; stroke-opacity:1; fill:none" points="245.565,1315.81 266.023,1307.95 286.481,1297.85 306.94,1284.83 327.398,1265.19 347.856,1232.46 368.314,1217.31 388.772,1189.84 409.23,1163.77 429.689,1127.23 450.147,1083.16 470.605,1021.79 491.063,961.106 511.521,887.462 531.979,845.495 552.438,776.841 572.896,741.586 593.354,704.777 613.812,683.271 634.27,634.107 654.728,586.626 675.187,680.401 695.645,802.398 716.103,929.889 736.561,1057.66 757.019,1161.81 777.477,1200.92 797.936,1249.05 818.394,1284.39 838.852,1309.44 859.31,1322.78 879.768,1331.75 900.226,1330.27 920.685,1322.41 941.143,1307.68 961.601,1308.6 982.059,1287.23 1002.52,1264.65 1022.98,1254.48 1043.43,1229.31 1063.89,1199.38 1084.35,1176.01 1104.81,1138.02 1125.27,1084.74 1145.72,1055.02 1166.18,949.945 1186.64,856.26 1207.1,770.598 1227.56,717.341 1248.02,672.308 1268.47,639.69 1288.93,603.188 1309.39,527.339 1329.85,530.429 1350.31,707.748 1370.76,832.447 1391.22,965.613 1411.68,1085.62 1432.14,1173.97 1452.6,1267.86 1473.05,1291.33 1493.51,1300.58 1513.97,1330.04 1534.43,1334.35 1554.89,1339.05 1575.35,1345.05 1595.8,1336.33 1616.26,1335.55 1636.72,1319.17 1657.18,1302.35 1677.64,1289.47 1698.09,1263.2 1718.55,1239.84 1739.01,1215.95 1759.47,1191.48 1779.93,1153.87 1800.39,1112.47 1820.84,1069.97 1841.3,1015.46 1861.76,971.501 1882.22,894.592 1902.68,882.907 1923.13,865.262 1943.59,833.668 1964.05,756.427 1984.51,704.074 2004.97,817.893 2025.43,810.664 2045.88,791.085 2066.34,764.614 2086.8,823.098 2107.26,980.208 2127.72,1115.41 2148.17,1182.26 2168.63,1210.8 2189.09,1263.24 2209.55,1297.13 2230.01,1300.36 2250.47,1290.25 2270.92,1301.39 2291.38,1299.11 "/>
<path clip-path="url(#clip301)" d="M245.565 1315.81 L266.023 1346.84 L286.481 1368.78 L306.94 1381.75 L327.398 1392.01 L347.856 1401.28 L368.314 1407.88 L388.772 1414.59 L409.23 1418.3 L429.689 1420.12 L450.147 1422.03 L470.605 1423.34 L491.063 1423.97 L511.521 1421.83 L531.979 1421.22 L552.438 1418.21 L572.896 1410.95 L593.354 1403.53 L613.812 1395.11 L634.27 1379.76 L654.728 1345.79 L675.187 1298.23 L695.645 1218.13 L716.103 1123.7 L736.561 1132.11 L757.019 1190.06 L777.477 1222.04 L797.936 1255.69 L818.394 1289.36 L838.852 1324.33 L859.31 1348.4 L879.768 1364.36 L900.226 1373.32 L920.685 1385.55 L941.143 1399.98 L961.601 1407.58 L982.059 1414.69 L1002.52 1419.82 L1022.98 1425.72 L1043.43 1429.06 L1063.89 1432.02 L1084.35 1433.66 L1104.81 1435.2 L1125.27 1435.6 L1145.72 1435.19 L1166.18 1434.93 L1186.64 1432.46 L1207.1 1431.54 L1227.56 1430.33 L1248.02 1426.62 L1268.47 1421.44 L1288.93 1415.56 L1309.39 1403.43 L1329.85 1382.98 L1350.31 1348.75 L1370.76 1283.57 L1391.22 1161.03 L1411.68 1025.54 L1432.14 1015.27 L1452.6 1083.73 L1473.05 1164.96 L1493.51 1212.67 L1513.97 1258.52 L1534.43 1292.82 L1554.89 1330.22 L1575.35 1350.62 L1595.8 1369.05 L1616.26 1382.46 L1636.72 1399.98 L1657.18 1406.24 L1677.64 1417.11 L1698.09 1421.67 L1718.55 1426.87 L1739.01 1431.03 L1759.47 1434.54 L1779.93 1436.85 L1800.39 1440.56 L1820.84 1442.23 L1841.3 1443.12 L1861.76 1443.71 L1882.22 1444.88 L1902.68 1445.61 L1923.13 1445.72 L1943.59 1445.54 L1964.05 1445.21 L1984.51 1444.23 L2004.97 1442.93 L2025.43 1440.9 L2045.88 1437.62 L2066.34 1432.28 L2086.8 1417.62 L2107.26 1389.02 L2127.72 1334.03 L2148.17 1307.48 L2168.63 1322.19 L2189.09 1332.18 L2209.55 1351.14 L2230.01 1365.15 L2250.47 1373.3 L2270.92 1382.17 L2291.38 1393.83 L2291.38 914.238 L2270.92 815.573 L2250.47 724.193 L2230.01 648.482 L2209.55 641.389 L2189.09 650.249 L2168.63 732.777 L2148.17 674.381 L2127.72 707.021 L2107.26 690.569 L2086.8 708.327 L2066.34 674.086 L2045.88 643.638 L2025.43 686.667 L2004.97 790.362 L1984.51 906.523 L1964.05 969.592 L1943.59 1022.28 L1923.13 1076.61 L1902.68 1121.87 L1882.22 1175.89 L1861.76 1235.09 L1841.3 1271.13 L1820.84 1304.14 L1800.39 1328.98 L1779.93 1345.32 L1759.47 1358.16 L1739.01 1359.84 L1718.55 1355.93 L1698.09 1349.53 L1677.64 1343.38 L1657.18 1323.35 L1636.72 1299.59 L1616.26 1274.27 L1595.8 1230.96 L1575.35 1168.25 L1554.89 1095.17 L1534.43 1013.37 L1513.97 912.819 L1493.51 802.977 L1473.05 704.164 L1452.6 667.488 L1432.14 681.001 L1411.68 693.28 L1391.22 613.037 L1370.76 579.57 L1350.31 650.094 L1329.85 857.511 L1309.39 1013.2 L1288.93 1147.13 L1268.47 1233.91 L1248.02 1285.02 L1227.56 1323.07 L1207.1 1347.88 L1186.64 1365.18 L1166.18 1374.2 L1145.72 1379.15 L1125.27 1384.32 L1104.81 1387.8 L1084.35 1385.68 L1063.89 1382.28 L1043.43 1376.76 L1022.98 1368.91 L1002.52 1355.47 L982.059 1341.47 L961.601 1316.75 L941.143 1289.91 L920.685 1256.06 L900.226 1226.88 L879.768 1169.31 L859.31 1099.37 L838.852 1035.88 L818.394 947.542 L797.936 841.726 L777.477 783.924 L757.019 806.008 L736.561 769.516 L716.103 742.681 L695.645 789.106 L675.187 878.968 L654.728 937.07 L634.27 979.152 L613.812 1024.42 L593.354 1053.67 L572.896 1140.15 L552.438 1199.28 L531.979 1278.17 L511.521 1329.98 L491.063 1359.62 L470.605 1378.39 L450.147 1388.14 L429.689 1392.65 L409.23 1392.62 L388.772 1387.57 L368.314 1383.11 L347.856 1378.37 L327.398 1369.56 L306.94 1359.45 L286.481 1347.98 L266.023 1337.67 L245.565 1315.81  Z" fill="#e26f46" fill-rule="evenodd" fill-opacity="0.5"/>
<polyline clip-path="url(#clip301)" style="stroke:#e26f46; stroke-linecap:round; stroke-linejoin:round; stroke-width:12; stroke-opacity:1; fill:none" points="245.565,1315.81 266.023,1341.28 286.481,1359.78 306.94,1375.74 327.398,1387.87 347.856,1397.04 368.314,1404.45 388.772,1409.95 409.23,1414.38 429.689,1416.71 450.147,1417.94 470.605,1417.75 491.063,1416.05 511.521,1411.47 531.979,1402.72 552.438,1391.6 572.896,1372.19 593.354,1346.05 613.812,1311.44 634.27,1252.16 654.728,1170.32 675.187,1107.5 695.645,1016.97 716.103,971.332 736.561,901.315 757.019,884.659 777.477,945.444 797.936,999.094 818.394,1075.89 838.852,1136.76 859.31,1208.45 879.768,1243.28 900.226,1285.85 920.685,1316.31 941.143,1330.92 961.601,1360.65 982.059,1378.52 1002.52,1387.99 1022.98,1398.92 1043.43,1407.31 1063.89,1414.22 1084.35,1419.04 1104.81,1422.28 1125.27,1424.5 1145.72,1424.66 1166.18,1423.77 1186.64,1421.62 1207.1,1415.12 1227.56,1404.65 1248.02,1390.42 1268.47,1356.75 1288.93,1286.28 1309.39,1203.07 1329.85,1109.03 1350.31,1017.18 1370.76,911.65 1391.22,871.506 1411.68,887.397 1432.14,866.888 1452.6,926.674 1473.05,1033.84 1493.51,1116.78 1513.97,1169.54 1534.43,1237.09 1554.89,1277.08 1575.35,1316.6 1595.8,1337.85 1616.26,1353.6 1636.72,1365.83 1657.18,1379.8 1677.64,1387.67 1698.09,1392.06 1718.55,1403.13 1739.01,1412.36 1759.47,1418.23 1779.93,1420.65 1800.39,1420.34 1820.84,1419.85 1841.3,1417.97 1861.76,1414.13 1882.22,1408.28 1902.68,1399.95 1923.13,1386.05 1943.59,1362.23 1964.05,1345.68 1984.51,1322.66 2004.97,1291.41 2025.43,1237.3 2045.88,1150.54 2066.34,1107.34 2086.8,1023.42 2107.26,992.033 2127.72,1048.45 2148.17,1090.19 2168.63,1093.5 2189.09,1060.53 2209.55,1130.67 2230.01,1188.05 2250.47,1232.64 2270.92,1264.28 2291.38,1296.02 "/>
</svg>
