<?xml version="1.0" encoding="utf-8"?>
<svg xmlns="http://www.w3.org/2000/svg" xmlns:xlink="http://www.w3.org/1999/xlink" width="600" height="400" viewBox="0 0 2400 1600">
<defs>
  <clipPath id="clip570">
    <rect x="0" y="0" width="2400" height="1600"/>
  </clipPath>
</defs>
<path clip-path="url(#clip570)" d="M0 1600 L2400 1600 L2400 0 L0 0  Z" fill="#ffffff" fill-rule="evenodd" fill-opacity="1"/>
<defs>
  <clipPath id="clip571">
    <rect x="155" y="47" width="2198" height="1440"/>
  </clipPath>
</defs>
<path clip-path="url(#clip570)" d="M155.765 1486.45 L2352.76 1486.45 L2352.76 47.2441 L155.765 47.2441  Z" fill="#ffffff" fill-rule="evenodd" fill-opacity="1"/>
<polyline clip-path="url(#clip571)" style="stroke:#000000; stroke-linecap:round; stroke-linejoin:round; stroke-width:2; stroke-opacity:0.1; fill:none" points="217.944,1486.45 217.944,47.2441 "/>
<polyline clip-path="url(#clip571)" style="stroke:#000000; stroke-linecap:round; stroke-linejoin:round; stroke-width:2; stroke-opacity:0.1; fill:none" points="736.102,1486.45 736.102,47.2441 "/>
<polyline clip-path="url(#clip571)" style="stroke:#000000; stroke-linecap:round; stroke-linejoin:round; stroke-width:2; stroke-opacity:0.1; fill:none" points="1254.26,1486.45 1254.26,47.2441 "/>
<polyline clip-path="url(#clip571)" style="stroke:#000000; stroke-linecap:round; stroke-linejoin:round; stroke-width:2; stroke-opacity:0.1; fill:none" points="1772.42,1486.45 1772.42,47.2441 "/>
<polyline clip-path="url(#clip571)" style="stroke:#000000; stroke-linecap:round; stroke-linejoin:round; stroke-width:2; stroke-opacity:0.1; fill:none" points="2290.58,1486.45 2290.58,47.2441 "/>
<polyline clip-path="url(#clip571)" style="stroke:#000000; stroke-linecap:round; stroke-linejoin:round; stroke-width:2; stroke-opacity:0.1; fill:none" points="155.765,1315.24 2352.76,1315.24 "/>
<polyline clip-path="url(#clip571)" style="stroke:#000000; stroke-linecap:round; stroke-linejoin:round; stroke-width:2; stroke-opacity:0.1; fill:none" points="155.765,1048.16 2352.76,1048.16 "/>
<polyline clip-path="url(#clip571)" style="stroke:#000000; stroke-linecap:round; stroke-linejoin:round; stroke-width:2; stroke-opacity:0.1; fill:none" points="155.765,781.076 2352.76,781.076 "/>
<polyline clip-path="url(#clip571)" style="stroke:#000000; stroke-linecap:round; stroke-linejoin:round; stroke-width:2; stroke-opacity:0.1; fill:none" points="155.765,513.992 2352.76,513.992 "/>
<polyline clip-path="url(#clip571)" style="stroke:#000000; stroke-linecap:round; stroke-linejoin:round; stroke-width:2; stroke-opacity:0.1; fill:none" points="155.765,246.908 2352.76,246.908 "/>
<polyline clip-path="url(#clip570)" style="stroke:#000000; stroke-linecap:round; stroke-linejoin:round; stroke-width:4; stroke-opacity:1; fill:none" points="155.765,1486.45 2352.76,1486.45 "/>
<polyline clip-path="url(#clip570)" style="stroke:#000000; stroke-linecap:round; stroke-linejoin:round; stroke-width:4; stroke-opacity:1; fill:none" points="217.944,1486.45 217.944,1467.55 "/>
<polyline clip-path="url(#clip570)" style="stroke:#000000; stroke-linecap:round; stroke-linejoin:round; stroke-width:4; stroke-opacity:1; fill:none" points="736.102,1486.45 736.102,1467.55 "/>
<polyline clip-path="url(#clip570)" style="stroke:#000000; stroke-linecap:round; stroke-linejoin:round; stroke-width:4; stroke-opacity:1; fill:none" points="1254.26,1486.45 1254.26,1467.55 "/>
<polyline clip-path="url(#clip570)" style="stroke:#000000; stroke-linecap:round; stroke-linejoin:round; stroke-width:4; stroke-opacity:1; fill:none" points="1772.42,1486.45 1772.42,1467.55 "/>
<polyline clip-path="url(#clip570)" style="stroke:#000000; stroke-linecap:round; stroke-linejoin:round; stroke-width:4; stroke-opacity:1; fill:none" points="2290.58,1486.45 2290.58,1467.55 "/>
<path clip-path="url(#clip570)" d="M180.247 1517.37 Q176.636 1517.37 174.808 1520.93 Q173.002 1524.47 173.002 1531.6 Q173.002 1538.71 174.808 1542.27 Q176.636 1545.82 180.247 1545.82 Q183.882 1545.82 185.687 1542.27 Q187.516 1538.71 187.516 1531.6 Q187.516 1524.47 185.687 1520.93 Q183.882 1517.37 180.247 1517.37 M180.247 1513.66 Q186.057 1513.66 189.113 1518.27 Q192.192 1522.85 192.192 1531.6 Q192.192 1540.33 189.113 1544.94 Q186.057 1549.52 180.247 1549.52 Q174.437 1549.52 171.358 1544.94 Q168.303 1540.33 168.303 1531.6 Q168.303 1522.85 171.358 1518.27 Q174.437 1513.66 180.247 1513.66 Z" fill="#000000" fill-rule="nonzero" fill-opacity="1" /><path clip-path="url(#clip570)" d="M200.409 1542.97 L205.294 1542.97 L205.294 1548.85 L200.409 1548.85 L200.409 1542.97 Z" fill="#000000" fill-rule="nonzero" fill-opacity="1" /><path clip-path="url(#clip570)" d="M225.479 1517.37 Q221.867 1517.37 220.039 1520.93 Q218.233 1524.47 218.233 1531.6 Q218.233 1538.71 220.039 1542.27 Q221.867 1545.82 225.479 1545.82 Q229.113 1545.82 230.918 1542.27 Q232.747 1538.71 232.747 1531.6 Q232.747 1524.47 230.918 1520.93 Q229.113 1517.37 225.479 1517.37 M225.479 1513.66 Q231.289 1513.66 234.344 1518.27 Q237.423 1522.85 237.423 1531.6 Q237.423 1540.33 234.344 1544.94 Q231.289 1549.52 225.479 1549.52 Q219.668 1549.52 216.59 1544.94 Q213.534 1540.33 213.534 1531.6 Q213.534 1522.85 216.59 1518.27 Q219.668 1513.66 225.479 1513.66 Z" fill="#000000" fill-rule="nonzero" fill-opacity="1" /><path clip-path="url(#clip570)" d="M255.64 1517.37 Q252.029 1517.37 250.201 1520.93 Q248.395 1524.47 248.395 1531.6 Q248.395 1538.71 250.201 1542.27 Q252.029 1545.82 255.64 1545.82 Q259.275 1545.82 261.08 1542.27 Q262.909 1538.71 262.909 1531.6 Q262.909 1524.47 261.08 1520.93 Q259.275 1517.37 255.64 1517.37 M255.64 1513.66 Q261.451 1513.66 264.506 1518.27 Q267.585 1522.85 267.585 1531.6 Q267.585 1540.33 264.506 1544.94 Q261.451 1549.52 255.64 1549.52 Q249.83 1549.52 246.752 1544.94 Q243.696 1540.33 243.696 1531.6 Q243.696 1522.85 246.752 1518.27 Q249.83 1513.66 255.64 1513.66 Z" fill="#000000" fill-rule="nonzero" fill-opacity="1" /><path clip-path="url(#clip570)" d="M698.903 1517.37 Q695.292 1517.37 693.463 1520.93 Q691.658 1524.47 691.658 1531.6 Q691.658 1538.71 693.463 1542.27 Q695.292 1545.82 698.903 1545.82 Q702.538 1545.82 704.343 1542.27 Q706.172 1538.71 706.172 1531.6 Q706.172 1524.47 704.343 1520.93 Q702.538 1517.37 698.903 1517.37 M698.903 1513.66 Q704.713 1513.66 707.769 1518.27 Q710.848 1522.85 710.848 1531.6 Q710.848 1540.33 707.769 1544.94 Q704.713 1549.52 698.903 1549.52 Q693.093 1549.52 690.014 1544.94 Q686.959 1540.33 686.959 1531.6 Q686.959 1522.85 690.014 1518.27 Q693.093 1513.66 698.903 1513.66 Z" fill="#000000" fill-rule="nonzero" fill-opacity="1" /><path clip-path="url(#clip570)" d="M719.065 1542.97 L723.949 1542.97 L723.949 1548.85 L719.065 1548.85 L719.065 1542.97 Z" fill="#000000" fill-rule="nonzero" fill-opacity="1" /><path clip-path="url(#clip570)" d="M738.162 1544.91 L754.482 1544.91 L754.482 1548.85 L732.537 1548.85 L732.537 1544.91 Q735.199 1542.16 739.783 1537.53 Q744.389 1532.88 745.57 1531.53 Q747.815 1529.01 748.695 1527.27 Q749.597 1525.51 749.597 1523.82 Q749.597 1521.07 747.653 1519.33 Q745.732 1517.6 742.63 1517.6 Q740.431 1517.6 737.977 1518.36 Q735.547 1519.13 732.769 1520.68 L732.769 1515.95 Q735.593 1514.82 738.047 1514.24 Q740.5 1513.66 742.537 1513.66 Q747.908 1513.66 751.102 1516.35 Q754.296 1519.03 754.296 1523.52 Q754.296 1525.65 753.486 1527.57 Q752.699 1529.47 750.593 1532.07 Q750.014 1532.74 746.912 1535.95 Q743.81 1539.15 738.162 1544.91 Z" fill="#000000" fill-rule="nonzero" fill-opacity="1" /><path clip-path="url(#clip570)" d="M764.343 1514.29 L782.699 1514.29 L782.699 1518.22 L768.625 1518.22 L768.625 1526.7 Q769.644 1526.35 770.662 1526.19 Q771.681 1526 772.699 1526 Q778.486 1526 781.866 1529.17 Q785.245 1532.34 785.245 1537.76 Q785.245 1543.34 781.773 1546.44 Q778.301 1549.52 771.982 1549.52 Q769.806 1549.52 767.537 1549.15 Q765.292 1548.78 762.884 1548.04 L762.884 1543.34 Q764.968 1544.47 767.19 1545.03 Q769.412 1545.58 771.889 1545.58 Q775.894 1545.58 778.232 1543.48 Q780.57 1541.37 780.57 1537.76 Q780.57 1534.15 778.232 1532.04 Q775.894 1529.94 771.889 1529.94 Q770.014 1529.94 768.139 1530.35 Q766.287 1530.77 764.343 1531.65 L764.343 1514.29 Z" fill="#000000" fill-rule="nonzero" fill-opacity="1" /><path clip-path="url(#clip570)" d="M1216.56 1517.37 Q1212.95 1517.37 1211.12 1520.93 Q1209.32 1524.47 1209.32 1531.6 Q1209.32 1538.71 1211.12 1542.27 Q1212.95 1545.82 1216.56 1545.82 Q1220.2 1545.82 1222 1542.27 Q1223.83 1538.71 1223.83 1531.6 Q1223.83 1524.47 1222 1520.93 Q1220.2 1517.37 1216.56 1517.37 M1216.56 1513.66 Q1222.37 1513.66 1225.43 1518.27 Q1228.51 1522.85 1228.51 1531.6 Q1228.51 1540.33 1225.43 1544.94 Q1222.37 1549.52 1216.56 1549.52 Q1210.75 1549.52 1207.68 1544.94 Q1204.62 1540.33 1204.62 1531.6 Q1204.62 1522.85 1207.68 1518.27 Q1210.75 1513.66 1216.56 1513.66 Z" fill="#000000" fill-rule="nonzero" fill-opacity="1" /><path clip-path="url(#clip570)" d="M1236.73 1542.97 L1241.61 1542.97 L1241.61 1548.85 L1236.73 1548.85 L1236.73 1542.97 Z" fill="#000000" fill-rule="nonzero" fill-opacity="1" /><path clip-path="url(#clip570)" d="M1251.84 1514.29 L1270.2 1514.29 L1270.2 1518.22 L1256.12 1518.22 L1256.12 1526.7 Q1257.14 1526.35 1258.16 1526.19 Q1259.18 1526 1260.2 1526 Q1265.98 1526 1269.36 1529.17 Q1272.74 1532.34 1272.74 1537.76 Q1272.74 1543.34 1269.27 1546.44 Q1265.8 1549.52 1259.48 1549.52 Q1257.3 1549.52 1255.04 1549.15 Q1252.79 1548.78 1250.38 1548.04 L1250.38 1543.34 Q1252.47 1544.47 1254.69 1545.03 Q1256.91 1545.58 1259.39 1545.58 Q1263.39 1545.58 1265.73 1543.48 Q1268.07 1541.37 1268.07 1537.76 Q1268.07 1534.15 1265.73 1532.04 Q1263.39 1529.94 1259.39 1529.94 Q1257.51 1529.94 1255.64 1530.35 Q1253.79 1530.77 1251.84 1531.65 L1251.84 1514.29 Z" fill="#000000" fill-rule="nonzero" fill-opacity="1" /><path clip-path="url(#clip570)" d="M1291.96 1517.37 Q1288.35 1517.37 1286.52 1520.93 Q1284.71 1524.47 1284.71 1531.6 Q1284.71 1538.71 1286.52 1542.27 Q1288.35 1545.82 1291.96 1545.82 Q1295.59 1545.82 1297.4 1542.27 Q1299.23 1538.71 1299.23 1531.6 Q1299.23 1524.47 1297.4 1520.93 Q1295.59 1517.37 1291.96 1517.37 M1291.96 1513.66 Q1297.77 1513.66 1300.82 1518.27 Q1303.9 1522.85 1303.9 1531.6 Q1303.9 1540.33 1300.82 1544.94 Q1297.77 1549.52 1291.96 1549.52 Q1286.15 1549.52 1283.07 1544.94 Q1280.01 1540.33 1280.01 1531.6 Q1280.01 1522.85 1283.07 1518.27 Q1286.15 1513.66 1291.96 1513.66 Z" fill="#000000" fill-rule="nonzero" fill-opacity="1" /><path clip-path="url(#clip570)" d="M1735.22 1517.37 Q1731.61 1517.37 1729.78 1520.93 Q1727.97 1524.47 1727.97 1531.6 Q1727.97 1538.71 1729.78 1542.27 Q1731.61 1545.82 1735.22 1545.82 Q1738.85 1545.82 1740.66 1542.27 Q1742.49 1538.71 1742.49 1531.6 Q1742.49 1524.47 1740.66 1520.93 Q1738.85 1517.37 1735.22 1517.37 M1735.22 1513.66 Q1741.03 1513.66 1744.09 1518.27 Q1747.16 1522.85 1747.16 1531.6 Q1747.16 1540.33 1744.09 1544.94 Q1741.03 1549.52 1735.22 1549.52 Q1729.41 1549.52 1726.33 1544.94 Q1723.28 1540.33 1723.28 1531.6 Q1723.28 1522.85 1726.33 1518.27 Q1729.41 1513.66 1735.22 1513.66 Z" fill="#000000" fill-rule="nonzero" fill-opacity="1" /><path clip-path="url(#clip570)" d="M1755.38 1542.97 L1760.27 1542.97 L1760.27 1548.85 L1755.38 1548.85 L1755.38 1542.97 Z" fill="#000000" fill-rule="nonzero" fill-opacity="1" /><path clip-path="url(#clip570)" d="M1769.27 1514.29 L1791.49 1514.29 L1791.49 1516.28 L1778.95 1548.85 L1774.06 1548.85 L1785.87 1518.22 L1769.27 1518.22 L1769.27 1514.29 Z" fill="#000000" fill-rule="nonzero" fill-opacity="1" /><path clip-path="url(#clip570)" d="M1800.66 1514.29 L1819.02 1514.29 L1819.02 1518.22 L1804.94 1518.22 L1804.94 1526.7 Q1805.96 1526.35 1806.98 1526.19 Q1808 1526 1809.02 1526 Q1814.8 1526 1818.18 1529.17 Q1821.56 1532.34 1821.56 1537.76 Q1821.56 1543.34 1818.09 1546.44 Q1814.62 1549.52 1808.3 1549.52 Q1806.12 1549.52 1803.85 1549.15 Q1801.61 1548.78 1799.2 1548.04 L1799.2 1543.34 Q1801.28 1544.47 1803.51 1545.03 Q1805.73 1545.58 1808.21 1545.58 Q1812.21 1545.58 1814.55 1543.48 Q1816.89 1541.37 1816.89 1537.76 Q1816.89 1534.15 1814.55 1532.04 Q1812.21 1529.94 1808.21 1529.94 Q1806.33 1529.94 1804.46 1530.35 Q1802.6 1530.77 1800.66 1531.65 L1800.66 1514.29 Z" fill="#000000" fill-rule="nonzero" fill-opacity="1" /><path clip-path="url(#clip570)" d="M2242.65 1544.91 L2250.29 1544.91 L2250.29 1518.55 L2241.98 1520.21 L2241.98 1515.95 L2250.24 1514.29 L2254.92 1514.29 L2254.92 1544.91 L2262.56 1544.91 L2262.56 1548.85 L2242.65 1548.85 L2242.65 1544.91 Z" fill="#000000" fill-rule="nonzero" fill-opacity="1" /><path clip-path="url(#clip570)" d="M2272 1542.97 L2276.88 1542.97 L2276.88 1548.85 L2272 1548.85 L2272 1542.97 Z" fill="#000000" fill-rule="nonzero" fill-opacity="1" /><path clip-path="url(#clip570)" d="M2297.07 1517.37 Q2293.46 1517.37 2291.63 1520.93 Q2289.82 1524.47 2289.82 1531.6 Q2289.82 1538.71 2291.63 1542.27 Q2293.46 1545.82 2297.07 1545.82 Q2300.7 1545.82 2302.51 1542.27 Q2304.34 1538.71 2304.34 1531.6 Q2304.34 1524.47 2302.51 1520.93 Q2300.7 1517.37 2297.07 1517.37 M2297.07 1513.66 Q2302.88 1513.66 2305.94 1518.27 Q2309.01 1522.85 2309.01 1531.6 Q2309.01 1540.33 2305.94 1544.94 Q2302.88 1549.52 2297.07 1549.52 Q2291.26 1549.52 2288.18 1544.94 Q2285.13 1540.33 2285.13 1531.6 Q2285.13 1522.85 2288.18 1518.27 Q2291.26 1513.66 2297.07 1513.66 Z" fill="#000000" fill-rule="nonzero" fill-opacity="1" /><path clip-path="url(#clip570)" d="M2327.23 1517.37 Q2323.62 1517.37 2321.79 1520.93 Q2319.99 1524.47 2319.99 1531.6 Q2319.99 1538.71 2321.79 1542.27 Q2323.62 1545.82 2327.23 1545.82 Q2330.87 1545.82 2332.67 1542.27 Q2334.5 1538.71 2334.5 1531.6 Q2334.5 1524.47 2332.67 1520.93 Q2330.87 1517.37 2327.23 1517.37 M2327.23 1513.66 Q2333.04 1513.66 2336.1 1518.27 Q2339.18 1522.85 2339.18 1531.6 Q2339.18 1540.33 2336.1 1544.94 Q2333.04 1549.52 2327.23 1549.52 Q2321.42 1549.52 2318.34 1544.94 Q2315.29 1540.33 2315.29 1531.6 Q2315.29 1522.85 2318.34 1518.27 Q2321.42 1513.66 2327.23 1513.66 Z" fill="#000000" fill-rule="nonzero" fill-opacity="1" /><polyline clip-path="url(#clip570)" style="stroke:#000000; stroke-linecap:round; stroke-linejoin:round; stroke-width:4; stroke-opacity:1; fill:none" points="155.765,1486.45 155.765,47.2441 "/>
<polyline clip-path="url(#clip570)" style="stroke:#000000; stroke-linecap:round; stroke-linejoin:round; stroke-width:4; stroke-opacity:1; fill:none" points="155.765,1315.24 174.663,1315.24 "/>
<polyline clip-path="url(#clip570)" style="stroke:#000000; stroke-linecap:round; stroke-linejoin:round; stroke-width:4; stroke-opacity:1; fill:none" points="155.765,1048.16 174.663,1048.16 "/>
<polyline clip-path="url(#clip570)" style="stroke:#000000; stroke-linecap:round; stroke-linejoin:round; stroke-width:4; stroke-opacity:1; fill:none" points="155.765,781.076 174.663,781.076 "/>
<polyline clip-path="url(#clip570)" style="stroke:#000000; stroke-linecap:round; stroke-linejoin:round; stroke-width:4; stroke-opacity:1; fill:none" points="155.765,513.992 174.663,513.992 "/>
<polyline clip-path="url(#clip570)" style="stroke:#000000; stroke-linecap:round; stroke-linejoin:round; stroke-width:4; stroke-opacity:1; fill:none" points="155.765,246.908 174.663,246.908 "/>
<path clip-path="url(#clip570)" d="M63.5847 1301.04 Q59.9736 1301.04 58.1449 1304.61 Q56.3393 1308.15 56.3393 1315.28 Q56.3393 1322.38 58.1449 1325.95 Q59.9736 1329.49 63.5847 1329.49 Q67.2189 1329.49 69.0244 1325.95 Q70.8531 1322.38 70.8531 1315.28 Q70.8531 1308.15 69.0244 1304.61 Q67.2189 1301.04 63.5847 1301.04 M63.5847 1297.34 Q69.3948 1297.34 72.4503 1301.95 Q75.529 1306.53 75.529 1315.28 Q75.529 1324.01 72.4503 1328.61 Q69.3948 1333.2 63.5847 1333.2 Q57.7745 1333.2 54.6958 1328.61 Q51.6403 1324.01 51.6403 1315.28 Q51.6403 1306.53 54.6958 1301.95 Q57.7745 1297.34 63.5847 1297.34 Z" fill="#000000" fill-rule="nonzero" fill-opacity="1" /><path clip-path="url(#clip570)" d="M83.7466 1326.64 L88.6308 1326.64 L88.6308 1332.52 L83.7466 1332.52 L83.7466 1326.64 Z" fill="#000000" fill-rule="nonzero" fill-opacity="1" /><path clip-path="url(#clip570)" d="M98.8622 1297.96 L117.219 1297.96 L117.219 1301.9 L103.145 1301.9 L103.145 1310.37 Q104.163 1310.02 105.182 1309.86 Q106.2 1309.68 107.219 1309.68 Q113.006 1309.68 116.385 1312.85 Q119.765 1316.02 119.765 1321.44 Q119.765 1327.01 116.293 1330.12 Q112.82 1333.2 106.501 1333.2 Q104.325 1333.2 102.057 1332.82 Q99.8113 1332.45 97.4039 1331.71 L97.4039 1327.01 Q99.4872 1328.15 101.709 1328.7 Q103.932 1329.26 106.408 1329.26 Q110.413 1329.26 112.751 1327.15 Q115.089 1325.05 115.089 1321.44 Q115.089 1317.82 112.751 1315.72 Q110.413 1313.61 106.408 1313.61 Q104.534 1313.61 102.659 1314.03 Q100.807 1314.45 98.8622 1315.32 L98.8622 1297.96 Z" fill="#000000" fill-rule="nonzero" fill-opacity="1" /><path clip-path="url(#clip570)" d="M53.3995 1061.5 L61.0384 1061.5 L61.0384 1035.14 L52.7282 1036.81 L52.7282 1032.55 L60.9921 1030.88 L65.668 1030.88 L65.668 1061.5 L73.3068 1061.5 L73.3068 1065.44 L53.3995 1065.44 L53.3995 1061.5 Z" fill="#000000" fill-rule="nonzero" fill-opacity="1" /><path clip-path="url(#clip570)" d="M82.7512 1059.56 L87.6354 1059.56 L87.6354 1065.44 L82.7512 1065.44 L82.7512 1059.56 Z" fill="#000000" fill-rule="nonzero" fill-opacity="1" /><path clip-path="url(#clip570)" d="M107.821 1033.96 Q104.209 1033.96 102.381 1037.52 Q100.575 1041.06 100.575 1048.19 Q100.575 1055.3 102.381 1058.87 Q104.209 1062.41 107.821 1062.41 Q111.455 1062.41 113.26 1058.87 Q115.089 1055.3 115.089 1048.19 Q115.089 1041.06 113.26 1037.52 Q111.455 1033.96 107.821 1033.96 M107.821 1030.25 Q113.631 1030.25 116.686 1034.86 Q119.765 1039.44 119.765 1048.19 Q119.765 1056.92 116.686 1061.53 Q113.631 1066.11 107.821 1066.11 Q102.01 1066.11 98.9317 1061.53 Q95.8761 1056.92 95.8761 1048.19 Q95.8761 1039.44 98.9317 1034.86 Q102.01 1030.25 107.821 1030.25 Z" fill="#000000" fill-rule="nonzero" fill-opacity="1" /><path clip-path="url(#clip570)" d="M54.3949 794.421 L62.0337 794.421 L62.0337 768.055 L53.7236 769.722 L53.7236 765.463 L61.9874 763.796 L66.6633 763.796 L66.6633 794.421 L74.3022 794.421 L74.3022 798.356 L54.3949 798.356 L54.3949 794.421 Z" fill="#000000" fill-rule="nonzero" fill-opacity="1" /><path clip-path="url(#clip570)" d="M83.7466 792.476 L88.6308 792.476 L88.6308 798.356 L83.7466 798.356 L83.7466 792.476 Z" fill="#000000" fill-rule="nonzero" fill-opacity="1" /><path clip-path="url(#clip570)" d="M98.8622 763.796 L117.219 763.796 L117.219 767.731 L103.145 767.731 L103.145 776.203 Q104.163 775.856 105.182 775.694 Q106.2 775.509 107.219 775.509 Q113.006 775.509 116.385 778.68 Q119.765 781.851 119.765 787.268 Q119.765 792.847 116.293 795.949 Q112.82 799.027 106.501 799.027 Q104.325 799.027 102.057 798.657 Q99.8113 798.287 97.4039 797.546 L97.4039 792.847 Q99.4872 793.981 101.709 794.537 Q103.932 795.092 106.408 795.092 Q110.413 795.092 112.751 792.986 Q115.089 790.879 115.089 787.268 Q115.089 783.657 112.751 781.55 Q110.413 779.444 106.408 779.444 Q104.534 779.444 102.659 779.861 Q100.807 780.277 98.8622 781.157 L98.8622 763.796 Z" fill="#000000" fill-rule="nonzero" fill-opacity="1" /><path clip-path="url(#clip570)" d="M56.6171 527.337 L72.9365 527.337 L72.9365 531.272 L50.9921 531.272 L50.9921 527.337 Q53.6541 524.582 58.2375 519.953 Q62.8439 515.3 64.0245 513.957 Q66.2698 511.434 67.1494 509.698 Q68.0522 507.939 68.0522 506.249 Q68.0522 503.494 66.1078 501.758 Q64.1865 500.022 61.0847 500.022 Q58.8856 500.022 56.4319 500.786 Q54.0014 501.55 51.2236 503.101 L51.2236 498.379 Q54.0477 497.244 56.5014 496.666 Q58.955 496.087 60.9921 496.087 Q66.3624 496.087 69.5568 498.772 Q72.7513 501.457 72.7513 505.948 Q72.7513 508.078 71.9411 509.999 Q71.1541 511.897 69.0476 514.49 Q68.4689 515.161 65.367 518.379 Q62.2652 521.573 56.6171 527.337 Z" fill="#000000" fill-rule="nonzero" fill-opacity="1" /><path clip-path="url(#clip570)" d="M82.7512 525.392 L87.6354 525.392 L87.6354 531.272 L82.7512 531.272 L82.7512 525.392 Z" fill="#000000" fill-rule="nonzero" fill-opacity="1" /><path clip-path="url(#clip570)" d="M107.821 499.791 Q104.209 499.791 102.381 503.356 Q100.575 506.897 100.575 514.027 Q100.575 521.133 102.381 524.698 Q104.209 528.24 107.821 528.24 Q111.455 528.24 113.26 524.698 Q115.089 521.133 115.089 514.027 Q115.089 506.897 113.26 503.356 Q111.455 499.791 107.821 499.791 M107.821 496.087 Q113.631 496.087 116.686 500.693 Q119.765 505.277 119.765 514.027 Q119.765 522.754 116.686 527.36 Q113.631 531.943 107.821 531.943 Q102.01 531.943 98.9317 527.36 Q95.8761 522.754 95.8761 514.027 Q95.8761 505.277 98.9317 500.693 Q102.01 496.087 107.821 496.087 Z" fill="#000000" fill-rule="nonzero" fill-opacity="1" /><path clip-path="url(#clip570)" d="M57.6125 260.253 L73.9318 260.253 L73.9318 264.188 L51.9875 264.188 L51.9875 260.253 Q54.6495 257.498 59.2328 252.869 Q63.8393 248.216 65.0198 246.873 Q67.2652 244.35 68.1448 242.614 Q69.0476 240.855 69.0476 239.165 Q69.0476 236.411 67.1032 234.674 Q65.1819 232.938 62.08 232.938 Q59.881 232.938 57.4273 233.702 Q54.9967 234.466 52.219 236.017 L52.219 231.295 Q55.043 230.161 57.4967 229.582 Q59.9504 229.003 61.9874 229.003 Q67.3578 229.003 70.5522 231.688 Q73.7466 234.373 73.7466 238.864 Q73.7466 240.994 72.9365 242.915 Q72.1494 244.813 70.0429 247.406 Q69.4642 248.077 66.3624 251.295 Q63.2606 254.489 57.6125 260.253 Z" fill="#000000" fill-rule="nonzero" fill-opacity="1" /><path clip-path="url(#clip570)" d="M83.7466 258.309 L88.6308 258.309 L88.6308 264.188 L83.7466 264.188 L83.7466 258.309 Z" fill="#000000" fill-rule="nonzero" fill-opacity="1" /><path clip-path="url(#clip570)" d="M98.8622 229.628 L117.219 229.628 L117.219 233.563 L103.145 233.563 L103.145 242.035 Q104.163 241.688 105.182 241.526 Q106.2 241.341 107.219 241.341 Q113.006 241.341 116.385 244.512 Q119.765 247.684 119.765 253.1 Q119.765 258.679 116.293 261.781 Q112.82 264.859 106.501 264.859 Q104.325 264.859 102.057 264.489 Q99.8113 264.119 97.4039 263.378 L97.4039 258.679 Q99.4872 259.813 101.709 260.369 Q103.932 260.924 106.408 260.924 Q110.413 260.924 112.751 258.818 Q115.089 256.711 115.089 253.1 Q115.089 249.489 112.751 247.383 Q110.413 245.276 106.408 245.276 Q104.534 245.276 102.659 245.693 Q100.807 246.11 98.8622 246.989 L98.8622 229.628 Z" fill="#000000" fill-rule="nonzero" fill-opacity="1" /><polyline clip-path="url(#clip571)" style="stroke:#009af9; stroke-linecap:round; stroke-linejoin:round; stroke-width:12; stroke-opacity:1; fill:none" points="217.944,1315.24 425.207,1287.44 632.47,1268.06 839.734,1235.23 1047,1219.44 1254.26,1232.8 1461.52,1250.9 1668.79,1205 1876.05,1222.45 2083.31,1213.06 2290.58,1159.58 "/>
<polyline clip-path="url(#clip571)" style="stroke:#000000; stroke-linecap:round; stroke-linejoin:round; stroke-width:12; stroke-opacity:1; fill:none" points="217.944,1315.24 217.944,1315.24 "/>
<polyline clip-path="url(#clip571)" style="stroke:#000000; stroke-linecap:round; stroke-linejoin:round; stroke-width:12; stroke-opacity:1; fill:none" points="425.207,1346.75 425.207,1219.26 "/>
<polyline clip-path="url(#clip571)" style="stroke:#000000; stroke-linecap:round; stroke-linejoin:round; stroke-width:12; stroke-opacity:1; fill:none" points="632.47,1356.25 632.47,1172.03 "/>
<polyline clip-path="url(#clip571)" style="stroke:#000000; stroke-linecap:round; stroke-linejoin:round; stroke-width:12; stroke-opacity:1; fill:none" points="839.734,1405.04 839.734,1053.39 "/>
<polyline clip-path="url(#clip571)" style="stroke:#000000; stroke-linecap:round; stroke-linejoin:round; stroke-width:12; stroke-opacity:1; fill:none" points="1047,1394.82 1047,930.942 "/>
<polyline clip-path="url(#clip571)" style="stroke:#000000; stroke-linecap:round; stroke-linejoin:round; stroke-width:12; stroke-opacity:1; fill:none" points="1254.26,1339.12 1254.26,890.348 "/>
<polyline clip-path="url(#clip571)" style="stroke:#000000; stroke-linecap:round; stroke-linejoin:round; stroke-width:12; stroke-opacity:1; fill:none" points="1461.52,1403.5 1461.52,988.872 "/>
<polyline clip-path="url(#clip571)" style="stroke:#000000; stroke-linecap:round; stroke-linejoin:round; stroke-width:12; stroke-opacity:1; fill:none" points="1668.79,1433.96 1668.79,987.297 "/>
<polyline clip-path="url(#clip571)" style="stroke:#000000; stroke-linecap:round; stroke-linejoin:round; stroke-width:12; stroke-opacity:1; fill:none" points="1876.05,1403.21 1876.05,785.408 "/>
<polyline clip-path="url(#clip571)" style="stroke:#000000; stroke-linecap:round; stroke-linejoin:round; stroke-width:12; stroke-opacity:1; fill:none" points="2083.31,1375.43 2083.31,531.171 "/>
<polyline clip-path="url(#clip571)" style="stroke:#000000; stroke-linecap:round; stroke-linejoin:round; stroke-width:12; stroke-opacity:1; fill:none" points="2290.58,1406.88 2290.58,510.538 "/>
<line clip-path="url(#clip571)" x1="233.944" y1="1315.24" x2="201.944" y2="1315.24" style="stroke:#000000; stroke-width:12; stroke-opacity:1"/>
<line clip-path="url(#clip571)" x1="233.944" y1="1315.24" x2="201.944" y2="1315.24" style="stroke:#000000; stroke-width:12; stroke-opacity:1"/>
<line clip-path="url(#clip571)" x1="441.207" y1="1346.75" x2="409.207" y2="1346.75" style="stroke:#000000; stroke-width:12; stroke-opacity:1"/>
<line clip-path="url(#clip571)" x1="441.207" y1="1219.26" x2="409.207" y2="1219.26" style="stroke:#000000; stroke-width:12; stroke-opacity:1"/>
<line clip-path="url(#clip571)" x1="648.47" y1="1356.25" x2="616.47" y2="1356.25" style="stroke:#000000; stroke-width:12; stroke-opacity:1"/>
<line clip-path="url(#clip571)" x1="648.47" y1="1172.03" x2="616.47" y2="1172.03" style="stroke:#000000; stroke-width:12; stroke-opacity:1"/>
<line clip-path="url(#clip571)" x1="855.734" y1="1405.04" x2="823.734" y2="1405.04" style="stroke:#000000; stroke-width:12; stroke-opacity:1"/>
<line clip-path="url(#clip571)" x1="855.734" y1="1053.39" x2="823.734" y2="1053.39" style="stroke:#000000; stroke-width:12; stroke-opacity:1"/>
<line clip-path="url(#clip571)" x1="1063" y1="1394.82" x2="1031" y2="1394.82" style="stroke:#000000; stroke-width:12; stroke-opacity:1"/>
<line clip-path="url(#clip571)" x1="1063" y1="930.942" x2="1031" y2="930.942" style="stroke:#000000; stroke-width:12; stroke-opacity:1"/>
<line clip-path="url(#clip571)" x1="1270.26" y1="1339.12" x2="1238.26" y2="1339.12" style="stroke:#000000; stroke-width:12; stroke-opacity:1"/>
<line clip-path="url(#clip571)" x1="1270.26" y1="890.348" x2="1238.26" y2="890.348" style="stroke:#000000; stroke-width:12; stroke-opacity:1"/>
<line clip-path="url(#clip571)" x1="1477.52" y1="1403.5" x2="1445.52" y2="1403.5" style="stroke:#000000; stroke-width:12; stroke-opacity:1"/>
<line clip-path="url(#clip571)" x1="1477.52" y1="988.872" x2="1445.52" y2="988.872" style="stroke:#000000; stroke-width:12; stroke-opacity:1"/>
<line clip-path="url(#clip571)" x1="1684.79" y1="1433.96" x2="1652.79" y2="1433.96" style="stroke:#000000; stroke-width:12; stroke-opacity:1"/>
<line clip-path="url(#clip571)" x1="1684.79" y1="987.297" x2="1652.79" y2="987.297" style="stroke:#000000; stroke-width:12; stroke-opacity:1"/>
<line clip-path="url(#clip571)" x1="1892.05" y1="1403.21" x2="1860.05" y2="1403.21" style="stroke:#000000; stroke-width:12; stroke-opacity:1"/>
<line clip-path="url(#clip571)" x1="1892.05" y1="785.408" x2="1860.05" y2="785.408" style="stroke:#000000; stroke-width:12; stroke-opacity:1"/>
<line clip-path="url(#clip571)" x1="2099.31" y1="1375.43" x2="2067.31" y2="1375.43" style="stroke:#000000; stroke-width:12; stroke-opacity:1"/>
<line clip-path="url(#clip571)" x1="2099.31" y1="531.171" x2="2067.31" y2="531.171" style="stroke:#000000; stroke-width:12; stroke-opacity:1"/>
<line clip-path="url(#clip571)" x1="2306.58" y1="1406.88" x2="2274.58" y2="1406.88" style="stroke:#000000; stroke-width:12; stroke-opacity:1"/>
<line clip-path="url(#clip571)" x1="2306.58" y1="510.538" x2="2274.58" y2="510.538" style="stroke:#000000; stroke-width:12; stroke-opacity:1"/>
<polyline clip-path="url(#clip571)" style="stroke:#e26f46; stroke-linecap:round; stroke-linejoin:round; stroke-width:12; stroke-opacity:1; fill:none" points="217.944,1315.24 425.207,1285.41 632.47,1235.97 839.734,1223.61 1047,1217.53 1254.26,1195.15 1461.52,1170.46 1668.79,1118.34 1876.05,1137.55 2083.31,1214.35 2290.58,1148.62 "/>
<polyline clip-path="url(#clip571)" style="stroke:#000000; stroke-linecap:round; stroke-linejoin:round; stroke-width:12; stroke-opacity:1; fill:none" points="217.944,1315.24 217.944,1315.24 "/>
<polyline clip-path="url(#clip571)" style="stroke:#000000; stroke-linecap:round; stroke-linejoin:round; stroke-width:12; stroke-opacity:1; fill:none" points="425.207,1375.32 425.207,1119.05 "/>
<polyline clip-path="url(#clip571)" style="stroke:#000000; stroke-linecap:round; stroke-linejoin:round; stroke-width:12; stroke-opacity:1; fill:none" points="632.47,1408.32 632.47,1027.3 "/>
<polyline clip-path="url(#clip571)" style="stroke:#000000; stroke-linecap:round; stroke-linejoin:round; stroke-width:12; stroke-opacity:1; fill:none" points="839.734,1377.21 839.734,871.85 "/>
<polyline clip-path="url(#clip571)" style="stroke:#000000; stroke-linecap:round; stroke-linejoin:round; stroke-width:12; stroke-opacity:1; fill:none" points="1047,1359.39 1047,736.303 "/>
<polyline clip-path="url(#clip571)" style="stroke:#000000; stroke-linecap:round; stroke-linejoin:round; stroke-width:12; stroke-opacity:1; fill:none" points="1254.26,1348.82 1254.26,731.674 "/>
<polyline clip-path="url(#clip571)" style="stroke:#000000; stroke-linecap:round; stroke-linejoin:round; stroke-width:12; stroke-opacity:1; fill:none" points="1461.52,1375.57 1461.52,683.109 "/>
<polyline clip-path="url(#clip571)" style="stroke:#000000; stroke-linecap:round; stroke-linejoin:round; stroke-width:12; stroke-opacity:1; fill:none" points="1668.79,1421.94 1668.79,603.09 "/>
<polyline clip-path="url(#clip571)" style="stroke:#000000; stroke-linecap:round; stroke-linejoin:round; stroke-width:12; stroke-opacity:1; fill:none" points="1876.05,1437.58 1876.05,318.123 "/>
<polyline clip-path="url(#clip571)" style="stroke:#000000; stroke-linecap:round; stroke-linejoin:round; stroke-width:12; stroke-opacity:1; fill:none" points="2083.31,1435.56 2083.31,113.681 "/>
<polyline clip-path="url(#clip571)" style="stroke:#000000; stroke-linecap:round; stroke-linejoin:round; stroke-width:12; stroke-opacity:1; fill:none" points="2290.58,1445.72 2290.58,87.9763 "/>
<line clip-path="url(#clip571)" x1="233.944" y1="1315.24" x2="201.944" y2="1315.24" style="stroke:#000000; stroke-width:12; stroke-opacity:1"/>
<line clip-path="url(#clip571)" x1="233.944" y1="1315.24" x2="201.944" y2="1315.24" style="stroke:#000000; stroke-width:12; stroke-opacity:1"/>
<line clip-path="url(#clip571)" x1="441.207" y1="1375.32" x2="409.207" y2="1375.32" style="stroke:#000000; stroke-width:12; stroke-opacity:1"/>
<line clip-path="url(#clip571)" x1="441.207" y1="1119.05" x2="409.207" y2="1119.05" style="stroke:#000000; stroke-width:12; stroke-opacity:1"/>
<line clip-path="url(#clip571)" x1="648.47" y1="1408.32" x2="616.47" y2="1408.32" style="stroke:#000000; stroke-width:12; stroke-opacity:1"/>
<line clip-path="url(#clip571)" x1="648.47" y1="1027.3" x2="616.47" y2="1027.3" style="stroke:#000000; stroke-width:12; stroke-opacity:1"/>
<line clip-path="url(#clip571)" x1="855.734" y1="1377.21" x2="823.734" y2="1377.21" style="stroke:#000000; stroke-width:12; stroke-opacity:1"/>
<line clip-path="url(#clip571)" x1="855.734" y1="871.85" x2="823.734" y2="871.85" style="stroke:#000000; stroke-width:12; stroke-opacity:1"/>
<line clip-path="url(#clip571)" x1="1063" y1="1359.39" x2="1031" y2="1359.39" style="stroke:#000000; stroke-width:12; stroke-opacity:1"/>
<line clip-path="url(#clip571)" x1="1063" y1="736.303" x2="1031" y2="736.303" style="stroke:#000000; stroke-width:12; stroke-opacity:1"/>
<line clip-path="url(#clip571)" x1="1270.26" y1="1348.82" x2="1238.26" y2="1348.82" style="stroke:#000000; stroke-width:12; stroke-opacity:1"/>
<line clip-path="url(#clip571)" x1="1270.26" y1="731.674" x2="1238.26" y2="731.674" style="stroke:#000000; stroke-width:12; stroke-opacity:1"/>
<line clip-path="url(#clip571)" x1="1477.52" y1="1375.57" x2="1445.52" y2="1375.57" style="stroke:#000000; stroke-width:12; stroke-opacity:1"/>
<line clip-path="url(#clip571)" x1="1477.52" y1="683.109" x2="1445.52" y2="683.109" style="stroke:#000000; stroke-width:12; stroke-opacity:1"/>
<line clip-path="url(#clip571)" x1="1684.79" y1="1421.94" x2="1652.79" y2="1421.94" style="stroke:#000000; stroke-width:12; stroke-opacity:1"/>
<line clip-path="url(#clip571)" x1="1684.79" y1="603.09" x2="1652.79" y2="603.09" style="stroke:#000000; stroke-width:12; stroke-opacity:1"/>
<line clip-path="url(#clip571)" x1="1892.05" y1="1437.58" x2="1860.05" y2="1437.58" style="stroke:#000000; stroke-width:12; stroke-opacity:1"/>
<line clip-path="url(#clip571)" x1="1892.05" y1="318.123" x2="1860.05" y2="318.123" style="stroke:#000000; stroke-width:12; stroke-opacity:1"/>
<line clip-path="url(#clip571)" x1="2099.31" y1="1435.56" x2="2067.31" y2="1435.56" style="stroke:#000000; stroke-width:12; stroke-opacity:1"/>
<line clip-path="url(#clip571)" x1="2099.31" y1="113.681" x2="2067.31" y2="113.681" style="stroke:#000000; stroke-width:12; stroke-opacity:1"/>
<line clip-path="url(#clip571)" x1="2306.58" y1="1445.72" x2="2274.58" y2="1445.72" style="stroke:#000000; stroke-width:12; stroke-opacity:1"/>
<line clip-path="url(#clip571)" x1="2306.58" y1="87.9763" x2="2274.58" y2="87.9763" style="stroke:#000000; stroke-width:12; stroke-opacity:1"/>
</svg>
