<?xml version="1.0" encoding="utf-8"?>
<svg xmlns="http://www.w3.org/2000/svg" xmlns:xlink="http://www.w3.org/1999/xlink" width="600" height="400" viewBox="0 0 2400 1600">
<defs>
  <clipPath id="clip630">
    <rect x="0" y="0" width="2400" height="1600"/>
  </clipPath>
</defs>
<path clip-path="url(#clip630)" d="M0 1600 L2400 1600 L2400 0 L0 0  Z" fill="#ffffff" fill-rule="evenodd" fill-opacity="1"/>
<defs>
  <clipPath id="clip631">
    <rect x="112" y="47" width="2242" height="1440"/>
  </clipPath>
</defs>
<path clip-path="url(#clip630)" d="M112.177 1486.45 L2352.76 1486.45 L2352.76 47.2441 L112.177 47.2441  Z" fill="#ffffff" fill-rule="evenodd" fill-opacity="1"/>
<polyline clip-path="url(#clip631)" style="stroke:#000000; stroke-linecap:round; stroke-linejoin:round; stroke-width:2; stroke-opacity:0.1; fill:none" points="175.59,1486.45 175.59,47.2441 "/>
<polyline clip-path="url(#clip631)" style="stroke:#000000; stroke-linecap:round; stroke-linejoin:round; stroke-width:2; stroke-opacity:0.1; fill:none" points="704.028,1486.45 704.028,47.2441 "/>
<polyline clip-path="url(#clip631)" style="stroke:#000000; stroke-linecap:round; stroke-linejoin:round; stroke-width:2; stroke-opacity:0.1; fill:none" points="1232.47,1486.45 1232.47,47.2441 "/>
<polyline clip-path="url(#clip631)" style="stroke:#000000; stroke-linecap:round; stroke-linejoin:round; stroke-width:2; stroke-opacity:0.1; fill:none" points="1760.9,1486.45 1760.9,47.2441 "/>
<polyline clip-path="url(#clip631)" style="stroke:#000000; stroke-linecap:round; stroke-linejoin:round; stroke-width:2; stroke-opacity:0.1; fill:none" points="2289.34,1486.45 2289.34,47.2441 "/>
<polyline clip-path="url(#clip631)" style="stroke:#000000; stroke-linecap:round; stroke-linejoin:round; stroke-width:2; stroke-opacity:0.1; fill:none" points="112.177,1452.23 2352.76,1452.23 "/>
<polyline clip-path="url(#clip631)" style="stroke:#000000; stroke-linecap:round; stroke-linejoin:round; stroke-width:2; stroke-opacity:0.1; fill:none" points="112.177,1138.56 2352.76,1138.56 "/>
<polyline clip-path="url(#clip631)" style="stroke:#000000; stroke-linecap:round; stroke-linejoin:round; stroke-width:2; stroke-opacity:0.1; fill:none" points="112.177,824.888 2352.76,824.888 "/>
<polyline clip-path="url(#clip631)" style="stroke:#000000; stroke-linecap:round; stroke-linejoin:round; stroke-width:2; stroke-opacity:0.1; fill:none" points="112.177,511.216 2352.76,511.216 "/>
<polyline clip-path="url(#clip631)" style="stroke:#000000; stroke-linecap:round; stroke-linejoin:round; stroke-width:2; stroke-opacity:0.1; fill:none" points="112.177,197.544 2352.76,197.544 "/>
<polyline clip-path="url(#clip630)" style="stroke:#000000; stroke-linecap:round; stroke-linejoin:round; stroke-width:4; stroke-opacity:1; fill:none" points="112.177,1486.45 2352.76,1486.45 "/>
<polyline clip-path="url(#clip630)" style="stroke:#000000; stroke-linecap:round; stroke-linejoin:round; stroke-width:4; stroke-opacity:1; fill:none" points="175.59,1486.45 175.59,1467.55 "/>
<polyline clip-path="url(#clip630)" style="stroke:#000000; stroke-linecap:round; stroke-linejoin:round; stroke-width:4; stroke-opacity:1; fill:none" points="704.028,1486.45 704.028,1467.55 "/>
<polyline clip-path="url(#clip630)" style="stroke:#000000; stroke-linecap:round; stroke-linejoin:round; stroke-width:4; stroke-opacity:1; fill:none" points="1232.47,1486.45 1232.47,1467.55 "/>
<polyline clip-path="url(#clip630)" style="stroke:#000000; stroke-linecap:round; stroke-linejoin:round; stroke-width:4; stroke-opacity:1; fill:none" points="1760.9,1486.45 1760.9,1467.55 "/>
<polyline clip-path="url(#clip630)" style="stroke:#000000; stroke-linecap:round; stroke-linejoin:round; stroke-width:4; stroke-opacity:1; fill:none" points="2289.34,1486.45 2289.34,1467.55 "/>
<path clip-path="url(#clip630)" d="M152.974 1517.37 Q149.363 1517.37 147.534 1520.93 Q145.729 1524.47 145.729 1531.6 Q145.729 1538.71 147.534 1542.27 Q149.363 1545.82 152.974 1545.82 Q156.608 1545.82 158.414 1542.27 Q160.243 1538.71 160.243 1531.6 Q160.243 1524.47 158.414 1520.93 Q156.608 1517.37 152.974 1517.37 M152.974 1513.66 Q158.784 1513.66 161.84 1518.27 Q164.919 1522.85 164.919 1531.6 Q164.919 1540.33 161.84 1544.94 Q158.784 1549.52 152.974 1549.52 Q147.164 1549.52 144.085 1544.94 Q141.03 1540.33 141.03 1531.6 Q141.03 1522.85 144.085 1518.27 Q147.164 1513.66 152.974 1513.66 Z" fill="#000000" fill-rule="nonzero" fill-opacity="1" /><path clip-path="url(#clip630)" d="M173.136 1542.97 L178.02 1542.97 L178.02 1548.85 L173.136 1548.85 L173.136 1542.97 Z" fill="#000000" fill-rule="nonzero" fill-opacity="1" /><path clip-path="url(#clip630)" d="M198.205 1517.37 Q194.594 1517.37 192.766 1520.93 Q190.96 1524.47 190.96 1531.6 Q190.96 1538.71 192.766 1542.27 Q194.594 1545.82 198.205 1545.82 Q201.84 1545.82 203.645 1542.27 Q205.474 1538.71 205.474 1531.6 Q205.474 1524.47 203.645 1520.93 Q201.84 1517.37 198.205 1517.37 M198.205 1513.66 Q204.016 1513.66 207.071 1518.27 Q210.15 1522.85 210.15 1531.6 Q210.15 1540.33 207.071 1544.94 Q204.016 1549.52 198.205 1549.52 Q192.395 1549.52 189.317 1544.94 Q186.261 1540.33 186.261 1531.6 Q186.261 1522.85 189.317 1518.27 Q192.395 1513.66 198.205 1513.66 Z" fill="#000000" fill-rule="nonzero" fill-opacity="1" /><path clip-path="url(#clip630)" d="M675.764 1544.91 L692.084 1544.91 L692.084 1548.85 L670.139 1548.85 L670.139 1544.91 Q672.801 1542.16 677.385 1537.53 Q681.991 1532.88 683.172 1531.53 Q685.417 1529.01 686.297 1527.27 Q687.2 1525.51 687.2 1523.82 Q687.2 1521.07 685.255 1519.33 Q683.334 1517.6 680.232 1517.6 Q678.033 1517.6 675.579 1518.36 Q673.149 1519.13 670.371 1520.68 L670.371 1515.95 Q673.195 1514.82 675.649 1514.24 Q678.102 1513.66 680.139 1513.66 Q685.51 1513.66 688.704 1516.35 Q691.899 1519.03 691.899 1523.52 Q691.899 1525.65 691.088 1527.57 Q690.301 1529.47 688.195 1532.07 Q687.616 1532.74 684.514 1535.95 Q681.413 1539.15 675.764 1544.91 Z" fill="#000000" fill-rule="nonzero" fill-opacity="1" /><path clip-path="url(#clip630)" d="M701.899 1542.97 L706.783 1542.97 L706.783 1548.85 L701.899 1548.85 L701.899 1542.97 Z" fill="#000000" fill-rule="nonzero" fill-opacity="1" /><path clip-path="url(#clip630)" d="M717.014 1514.29 L735.371 1514.29 L735.371 1518.22 L721.297 1518.22 L721.297 1526.7 Q722.315 1526.35 723.334 1526.19 Q724.352 1526 725.371 1526 Q731.158 1526 734.537 1529.17 Q737.917 1532.34 737.917 1537.76 Q737.917 1543.34 734.445 1546.44 Q730.972 1549.52 724.653 1549.52 Q722.477 1549.52 720.209 1549.15 Q717.963 1548.78 715.556 1548.04 L715.556 1543.34 Q717.639 1544.47 719.861 1545.03 Q722.084 1545.58 724.56 1545.58 Q728.565 1545.58 730.903 1543.48 Q733.241 1541.37 733.241 1537.76 Q733.241 1534.15 730.903 1532.04 Q728.565 1529.94 724.56 1529.94 Q722.685 1529.94 720.81 1530.35 Q718.959 1530.77 717.014 1531.65 L717.014 1514.29 Z" fill="#000000" fill-rule="nonzero" fill-opacity="1" /><path clip-path="url(#clip630)" d="M1199.63 1514.29 L1217.99 1514.29 L1217.99 1518.22 L1203.91 1518.22 L1203.91 1526.7 Q1204.93 1526.35 1205.95 1526.19 Q1206.97 1526 1207.99 1526 Q1213.77 1526 1217.15 1529.17 Q1220.53 1532.34 1220.53 1537.76 Q1220.53 1543.34 1217.06 1546.44 Q1213.59 1549.52 1207.27 1549.52 Q1205.09 1549.52 1202.83 1549.15 Q1200.58 1548.78 1198.17 1548.04 L1198.17 1543.34 Q1200.26 1544.47 1202.48 1545.03 Q1204.7 1545.58 1207.18 1545.58 Q1211.18 1545.58 1213.52 1543.48 Q1215.86 1541.37 1215.86 1537.76 Q1215.86 1534.15 1213.52 1532.04 Q1211.18 1529.94 1207.18 1529.94 Q1205.3 1529.94 1203.43 1530.35 Q1201.58 1530.77 1199.63 1531.65 L1199.63 1514.29 Z" fill="#000000" fill-rule="nonzero" fill-opacity="1" /><path clip-path="url(#clip630)" d="M1229.75 1542.97 L1234.63 1542.97 L1234.63 1548.85 L1229.75 1548.85 L1229.75 1542.97 Z" fill="#000000" fill-rule="nonzero" fill-opacity="1" /><path clip-path="url(#clip630)" d="M1254.82 1517.37 Q1251.2 1517.37 1249.38 1520.93 Q1247.57 1524.47 1247.57 1531.6 Q1247.57 1538.71 1249.38 1542.27 Q1251.2 1545.82 1254.82 1545.82 Q1258.45 1545.82 1260.26 1542.27 Q1262.08 1538.71 1262.08 1531.6 Q1262.08 1524.47 1260.26 1520.93 Q1258.45 1517.37 1254.82 1517.37 M1254.82 1513.66 Q1260.63 1513.66 1263.68 1518.27 Q1266.76 1522.85 1266.76 1531.6 Q1266.76 1540.33 1263.68 1544.94 Q1260.63 1549.52 1254.82 1549.52 Q1249.01 1549.52 1245.93 1544.94 Q1242.87 1540.33 1242.87 1531.6 Q1242.87 1522.85 1245.93 1518.27 Q1249.01 1513.66 1254.82 1513.66 Z" fill="#000000" fill-rule="nonzero" fill-opacity="1" /><path clip-path="url(#clip630)" d="M1727.22 1514.29 L1749.45 1514.29 L1749.45 1516.28 L1736.9 1548.85 L1732.02 1548.85 L1743.82 1518.22 L1727.22 1518.22 L1727.22 1514.29 Z" fill="#000000" fill-rule="nonzero" fill-opacity="1" /><path clip-path="url(#clip630)" d="M1758.57 1542.97 L1763.45 1542.97 L1763.45 1548.85 L1758.57 1548.85 L1758.57 1542.97 Z" fill="#000000" fill-rule="nonzero" fill-opacity="1" /><path clip-path="url(#clip630)" d="M1773.68 1514.29 L1792.04 1514.29 L1792.04 1518.22 L1777.97 1518.22 L1777.97 1526.7 Q1778.98 1526.35 1780 1526.19 Q1781.02 1526 1782.04 1526 Q1787.83 1526 1791.21 1529.17 Q1794.59 1532.34 1794.59 1537.76 Q1794.59 1543.34 1791.11 1546.44 Q1787.64 1549.52 1781.32 1549.52 Q1779.15 1549.52 1776.88 1549.15 Q1774.63 1548.78 1772.22 1548.04 L1772.22 1543.34 Q1774.31 1544.47 1776.53 1545.03 Q1778.75 1545.58 1781.23 1545.58 Q1785.23 1545.58 1787.57 1543.48 Q1789.91 1541.37 1789.91 1537.76 Q1789.91 1534.15 1787.57 1532.04 Q1785.23 1529.94 1781.23 1529.94 Q1779.35 1529.94 1777.48 1530.35 Q1775.63 1530.77 1773.68 1531.65 L1773.68 1514.29 Z" fill="#000000" fill-rule="nonzero" fill-opacity="1" /><path clip-path="url(#clip630)" d="M2241.42 1544.91 L2249.05 1544.91 L2249.05 1518.55 L2240.74 1520.21 L2240.74 1515.95 L2249.01 1514.29 L2253.68 1514.29 L2253.68 1544.91 L2261.32 1544.91 L2261.32 1548.85 L2241.42 1548.85 L2241.42 1544.91 Z" fill="#000000" fill-rule="nonzero" fill-opacity="1" /><path clip-path="url(#clip630)" d="M2280.77 1517.37 Q2277.16 1517.37 2275.33 1520.93 Q2273.52 1524.47 2273.52 1531.6 Q2273.52 1538.71 2275.33 1542.27 Q2277.16 1545.82 2280.77 1545.82 Q2284.4 1545.82 2286.21 1542.27 Q2288.04 1538.71 2288.04 1531.6 Q2288.04 1524.47 2286.21 1520.93 Q2284.4 1517.37 2280.77 1517.37 M2280.77 1513.66 Q2286.58 1513.66 2289.63 1518.27 Q2292.71 1522.85 2292.71 1531.6 Q2292.71 1540.33 2289.63 1544.94 Q2286.58 1549.52 2280.77 1549.52 Q2274.96 1549.52 2271.88 1544.94 Q2268.82 1540.33 2268.82 1531.6 Q2268.82 1522.85 2271.88 1518.27 Q2274.96 1513.66 2280.77 1513.66 Z" fill="#000000" fill-rule="nonzero" fill-opacity="1" /><path clip-path="url(#clip630)" d="M2300.93 1542.97 L2305.81 1542.97 L2305.81 1548.85 L2300.93 1548.85 L2300.93 1542.97 Z" fill="#000000" fill-rule="nonzero" fill-opacity="1" /><path clip-path="url(#clip630)" d="M2326 1517.37 Q2322.39 1517.37 2320.56 1520.93 Q2318.75 1524.47 2318.75 1531.6 Q2318.75 1538.71 2320.56 1542.27 Q2322.39 1545.82 2326 1545.82 Q2329.63 1545.82 2331.44 1542.27 Q2333.27 1538.71 2333.27 1531.6 Q2333.27 1524.47 2331.44 1520.93 Q2329.63 1517.37 2326 1517.37 M2326 1513.66 Q2331.81 1513.66 2334.86 1518.27 Q2337.94 1522.85 2337.94 1531.6 Q2337.94 1540.33 2334.86 1544.94 Q2331.81 1549.52 2326 1549.52 Q2320.19 1549.52 2317.11 1544.94 Q2314.05 1540.33 2314.05 1531.6 Q2314.05 1522.85 2317.11 1518.27 Q2320.19 1513.66 2326 1513.66 Z" fill="#000000" fill-rule="nonzero" fill-opacity="1" /><polyline clip-path="url(#clip630)" style="stroke:#000000; stroke-linecap:round; stroke-linejoin:round; stroke-width:4; stroke-opacity:1; fill:none" points="112.177,1486.45 112.177,47.2441 "/>
<polyline clip-path="url(#clip630)" style="stroke:#000000; stroke-linecap:round; stroke-linejoin:round; stroke-width:4; stroke-opacity:1; fill:none" points="112.177,1452.23 131.075,1452.23 "/>
<polyline clip-path="url(#clip630)" style="stroke:#000000; stroke-linecap:round; stroke-linejoin:round; stroke-width:4; stroke-opacity:1; fill:none" points="112.177,1138.56 131.075,1138.56 "/>
<polyline clip-path="url(#clip630)" style="stroke:#000000; stroke-linecap:round; stroke-linejoin:round; stroke-width:4; stroke-opacity:1; fill:none" points="112.177,824.888 131.075,824.888 "/>
<polyline clip-path="url(#clip630)" style="stroke:#000000; stroke-linecap:round; stroke-linejoin:round; stroke-width:4; stroke-opacity:1; fill:none" points="112.177,511.216 131.075,511.216 "/>
<polyline clip-path="url(#clip630)" style="stroke:#000000; stroke-linecap:round; stroke-linejoin:round; stroke-width:4; stroke-opacity:1; fill:none" points="112.177,197.544 131.075,197.544 "/>
<path clip-path="url(#clip630)" d="M64.2328 1438.03 Q60.6217 1438.03 58.793 1441.6 Q56.9875 1445.14 56.9875 1452.27 Q56.9875 1459.37 58.793 1462.94 Q60.6217 1466.48 64.2328 1466.48 Q67.867 1466.48 69.6726 1462.94 Q71.5013 1459.37 71.5013 1452.27 Q71.5013 1445.14 69.6726 1441.6 Q67.867 1438.03 64.2328 1438.03 M64.2328 1434.33 Q70.0429 1434.33 73.0985 1438.93 Q76.1772 1443.52 76.1772 1452.27 Q76.1772 1460.99 73.0985 1465.6 Q70.0429 1470.18 64.2328 1470.18 Q58.4226 1470.18 55.344 1465.6 Q52.2884 1460.99 52.2884 1452.27 Q52.2884 1443.52 55.344 1438.93 Q58.4226 1434.33 64.2328 1434.33 Z" fill="#000000" fill-rule="nonzero" fill-opacity="1" /><path clip-path="url(#clip630)" d="M59.8578 1151.9 L76.1772 1151.9 L76.1772 1155.84 L54.2328 1155.84 L54.2328 1151.9 Q56.8949 1149.15 61.4782 1144.52 Q66.0846 1139.87 67.2652 1138.53 Q69.5105 1136 70.3902 1134.27 Q71.2929 1132.51 71.2929 1130.82 Q71.2929 1128.06 69.3485 1126.33 Q67.4272 1124.59 64.3254 1124.59 Q62.1263 1124.59 59.6726 1125.35 Q57.2421 1126.12 54.4643 1127.67 L54.4643 1122.95 Q57.2884 1121.81 59.7421 1121.23 Q62.1958 1120.66 64.2328 1120.66 Q69.6031 1120.66 72.7976 1123.34 Q75.992 1126.03 75.992 1130.52 Q75.992 1132.65 75.1818 1134.57 Q74.3948 1136.47 72.2883 1139.06 Q71.7096 1139.73 68.6078 1142.95 Q65.5059 1146.14 59.8578 1151.9 Z" fill="#000000" fill-rule="nonzero" fill-opacity="1" /><path clip-path="url(#clip630)" d="M66.5939 811.682 L54.7884 830.131 L66.5939 830.131 L66.5939 811.682 M65.367 807.608 L71.2466 807.608 L71.2466 830.131 L76.1772 830.131 L76.1772 834.02 L71.2466 834.02 L71.2466 842.168 L66.5939 842.168 L66.5939 834.02 L50.9921 834.02 L50.9921 829.506 L65.367 807.608 Z" fill="#000000" fill-rule="nonzero" fill-opacity="1" /><path clip-path="url(#clip630)" d="M64.6495 509.353 Q61.5013 509.353 59.6495 511.505 Q57.8208 513.658 57.8208 517.408 Q57.8208 521.135 59.6495 523.311 Q61.5013 525.464 64.6495 525.464 Q67.7976 525.464 69.6263 523.311 Q71.4781 521.135 71.4781 517.408 Q71.4781 513.658 69.6263 511.505 Q67.7976 509.353 64.6495 509.353 M73.9318 494.7 L73.9318 498.959 Q72.1726 498.126 70.367 497.686 Q68.5846 497.246 66.8254 497.246 Q62.1958 497.246 59.7421 500.371 Q57.3115 503.496 56.9643 509.816 Q58.33 507.802 60.3902 506.737 Q62.4504 505.649 64.9272 505.649 Q70.1355 505.649 73.1448 508.82 Q76.1772 511.968 76.1772 517.408 Q76.1772 522.732 73.029 525.95 Q69.8809 529.167 64.6495 529.167 Q58.6541 529.167 55.4828 524.584 Q52.3116 519.978 52.3116 511.251 Q52.3116 503.056 56.2004 498.195 Q60.0893 493.311 66.6402 493.311 Q68.3994 493.311 70.1818 493.658 Q71.9874 494.006 73.9318 494.7 Z" fill="#000000" fill-rule="nonzero" fill-opacity="1" /><path clip-path="url(#clip630)" d="M64.3254 198.412 Q60.9921 198.412 59.0708 200.194 Q57.1726 201.977 57.1726 205.102 Q57.1726 208.227 59.0708 210.009 Q60.9921 211.792 64.3254 211.792 Q67.6587 211.792 69.58 210.009 Q71.5013 208.204 71.5013 205.102 Q71.5013 201.977 69.58 200.194 Q67.6819 198.412 64.3254 198.412 M59.6495 196.421 Q56.6402 195.681 54.9504 193.62 Q53.2838 191.56 53.2838 188.597 Q53.2838 184.454 56.2236 182.046 Q59.1865 179.639 64.3254 179.639 Q69.4874 179.639 72.4272 182.046 Q75.367 184.454 75.367 188.597 Q75.367 191.56 73.6772 193.62 Q72.0105 195.681 69.0244 196.421 Q72.404 197.208 74.279 199.5 Q76.1772 201.792 76.1772 205.102 Q76.1772 210.125 73.0985 212.81 Q70.0429 215.495 64.3254 215.495 Q58.6078 215.495 55.5291 212.81 Q52.4736 210.125 52.4736 205.102 Q52.4736 201.792 54.3717 199.5 Q56.2699 197.208 59.6495 196.421 M57.9365 189.037 Q57.9365 191.722 59.6032 193.227 Q61.293 194.732 64.3254 194.732 Q67.3346 194.732 69.0244 193.227 Q70.7374 191.722 70.7374 189.037 Q70.7374 186.352 69.0244 184.847 Q67.3346 183.343 64.3254 183.343 Q61.293 183.343 59.6032 184.847 Q57.9365 186.352 57.9365 189.037 Z" fill="#000000" fill-rule="nonzero" fill-opacity="1" /><path clip-path="url(#clip631)" d="M175.59 1295.4 L196.727 1305.28 L217.865 1301.49 L239.002 1295.9 L260.14 1302.16 L281.277 1300.95 L302.415 1300.22 L323.553 1283.46 L344.69 1247.23 L365.828 1212.38 L386.965 1185.15 L408.103 1154.89 L429.24 1136.46 L450.378 1073.4 L471.515 1029.66 L492.653 976.075 L513.79 922.272 L534.928 872.789 L556.065 816.505 L577.203 734.614 L598.34 750.611 L619.478 849.51 L640.616 904.22 L661.753 1077.36 L682.891 1182.97 L704.028 1250.78 L725.166 1288.91 L746.303 1308.42 L767.441 1321.39 L788.578 1332.72 L809.716 1336.77 L830.853 1342.33 L851.991 1345.36 L873.128 1341.14 L894.266 1337.75 L915.404 1333.08 L936.541 1326.65 L957.679 1335.46 L978.816 1345.18 L999.954 1351.87 L1021.09 1344.66 L1042.23 1331.68 L1063.37 1316.22 L1084.5 1297.36 L1105.64 1282.54 L1126.78 1280.41 L1147.92 1279.86 L1169.05 1239.88 L1190.19 1208.66 L1211.33 1203.27 L1232.47 1169.85 L1253.6 1122.38 L1274.74 1060.91 L1295.88 979.479 L1317.02 1040.07 L1338.15 1112.64 L1359.29 1180.84 L1380.43 1209.96 L1401.57 1221.09 L1422.7 1237.42 L1443.84 1272.73 L1464.98 1293.64 L1486.12 1296.83 L1507.25 1334.39 L1528.39 1355.39 L1549.53 1369.5 L1570.67 1384.42 L1591.8 1391.78 L1612.94 1393.36 L1634.08 1395.95 L1655.22 1394.19 L1676.35 1387.14 L1697.49 1383.54 L1718.63 1377.41 L1739.77 1368.45 L1760.9 1382.89 L1782.04 1393.61 L1803.18 1394.91 L1824.32 1390.33 L1845.46 1384.96 L1866.59 1380.92 L1887.73 1372.34 L1908.87 1363.17 L1930.01 1350.4 L1951.14 1338.09 L1972.28 1326.27 L1993.42 1316.61 L2014.56 1304.69 L2035.69 1287.37 L2056.83 1262.72 L2077.97 1280.4 L2099.11 1314.17 L2120.24 1327.93 L2141.38 1337.93 L2162.52 1329.5 L2183.66 1324.6 L2204.79 1322.13 L2225.93 1322.39 L2247.07 1325.75 L2268.21 1319.94 L2289.34 1322.84 L2289.34 321.278 L2268.21 418.379 L2247.07 484.981 L2225.93 468.199 L2204.79 443.045 L2183.66 411.009 L2162.52 340.252 L2141.38 189.029 L2120.24 98.0826 L2099.11 102.677 L2077.97 189.661 L2056.83 292.484 L2035.69 357.97 L2014.56 377.855 L1993.42 427.942 L1972.28 424.724 L1951.14 425.098 L1930.01 481.146 L1908.87 517.63 L1887.73 575.667 L1866.59 576.174 L1845.46 627.641 L1824.32 723.876 L1803.18 822.177 L1782.04 911.44 L1760.9 967.93 L1739.77 1016.11 L1718.63 1072.94 L1697.49 862.972 L1676.35 559.652 L1655.22 292.809 L1634.08 87.9763 L1612.94 262.623 L1591.8 480.107 L1570.67 694.797 L1549.53 752.847 L1528.39 861.91 L1507.25 850.019 L1486.12 786.444 L1464.98 661.495 L1443.84 573.815 L1422.7 357.683 L1401.57 247.233 L1380.43 188.67 L1359.29 170.761 L1338.15 154.293 L1317.02 271.783 L1295.88 295.273 L1274.74 398.16 L1253.6 467.607 L1232.47 516.294 L1211.33 626.701 L1190.19 647.804 L1169.05 694.217 L1147.92 747.25 L1126.78 850.148 L1105.64 877.883 L1084.5 929.296 L1063.37 983.776 L1042.23 1038.44 L1021.09 1069.15 L999.954 1129.53 L978.816 1166.27 L957.679 1183.45 L936.541 1204.53 L915.404 1215.57 L894.266 1133.27 L873.128 986.193 L851.991 736.114 L830.853 579.38 L809.716 495.793 L788.578 519.608 L767.441 591.454 L746.303 617.928 L725.166 614.198 L704.028 541.557 L682.891 527.888 L661.753 417.48 L640.616 372.573 L619.478 306.232 L598.34 231.699 L577.203 204.061 L556.065 231.105 L534.928 341.4 L513.79 423.355 L492.653 508.749 L471.515 581.57 L450.378 685.065 L429.24 812.971 L408.103 915.572 L386.965 956.27 L365.828 990.074 L344.69 1055.91 L323.553 1104.01 L302.415 1141.3 L281.277 1186.84 L260.14 1214.29 L239.002 1245.42 L217.865 1265.3 L196.727 1276.88 L175.59 1295.4  Z" fill="#009af9" fill-rule="evenodd" fill-opacity="0.5"/>
<polyline clip-path="url(#clip631)" style="stroke:#009af9; stroke-linecap:round; stroke-linejoin:round; stroke-width:12; stroke-opacity:1; fill:none" points="175.59,1295.4 196.727,1284.92 217.865,1284.08 239.002,1264.99 260.14,1249.84 281.277,1222.9 302.415,1190.03 323.553,1154.15 344.69,1111.58 365.828,1071.04 386.965,1007.54 408.103,958.565 429.24,871.729 450.378,812.709 471.515,758.223 492.653,686.186 513.79,580.546 534.928,446.159 556.065,410.889 577.203,432.762 598.34,429.817 619.478,469.882 640.616,637.883 661.753,790.801 682.891,910.902 704.028,1056.43 725.166,1150.69 746.303,1186.93 767.441,1240.09 788.578,1269.79 809.716,1283.47 830.853,1292.87 851.991,1293.02 873.128,1293.04 894.266,1279.5 915.404,1272.21 936.541,1271.39 957.679,1259.12 978.816,1241.06 999.954,1227.43 1021.09,1209.91 1042.23,1178.64 1063.37,1136.24 1084.5,1099.45 1105.64,1053.85 1126.78,1005.13 1147.92,958.679 1169.05,894.607 1190.19,808.572 1211.33,756.211 1232.47,649.172 1253.6,574.788 1274.74,547.956 1295.88,485.69 1317.02,388.436 1338.15,456.755 1359.29,592.227 1380.43,744.574 1401.57,950.48 1422.7,1088.1 1443.84,1095.8 1464.98,1194.17 1486.12,1280.59 1507.25,1292.66 1528.39,1294.59 1549.53,1296.71 1570.67,1308.53 1591.8,1310.23 1612.94,1303.42 1634.08,1295.74 1655.22,1282.73 1676.35,1270.82 1697.49,1250.97 1718.63,1229.44 1739.77,1239.57 1760.9,1218.29 1782.04,1189.74 1803.18,1142.53 1824.32,1107.23 1845.46,1074.01 1866.59,1037.01 1887.73,963.472 1908.87,881.466 1930.01,858.649 1951.14,788.356 1972.28,726.615 1993.42,624.483 2014.56,627.685 2035.69,551.311 2056.83,534.522 2077.97,645.259 2099.11,783.988 2120.24,835.93 2141.38,904.697 2162.52,1054.84 2183.66,1128.82 2204.79,1178.45 2225.93,1208.79 2247.07,1247.82 2268.21,1255.83 2289.34,1273.86 "/>
<path clip-path="url(#clip631)" d="M175.59 1295.4 L196.727 1328.99 L217.865 1353.44 L239.002 1376.83 L260.14 1387.79 L281.277 1397.59 L302.415 1405.96 L323.553 1414.91 L344.69 1421.16 L365.828 1426.09 L386.965 1429.26 L408.103 1431.01 L429.24 1431.69 L450.378 1433.39 L471.515 1435 L492.653 1433.97 L513.79 1432.53 L534.928 1430.88 L556.065 1426.59 L577.203 1421.03 L598.34 1410.87 L619.478 1394.7 L640.616 1364.6 L661.753 1322.83 L682.891 1253.81 L704.028 1203.42 L725.166 1239.9 L746.303 1267.39 L767.441 1284.12 L788.578 1275.82 L809.716 1245.61 L830.853 1272.27 L851.991 1311.48 L873.128 1337.58 L894.266 1354.27 L915.404 1372.66 L936.541 1384.16 L957.679 1392.33 L978.816 1399.11 L999.954 1410.81 L1021.09 1417.94 L1042.23 1423.03 L1063.37 1424.48 L1084.5 1428.61 L1105.64 1428.71 L1126.78 1429.3 L1147.92 1428.67 L1169.05 1428.75 L1190.19 1427.6 L1211.33 1430.22 L1232.47 1429.56 L1253.6 1430.16 L1274.74 1429.53 L1295.88 1426.88 L1317.02 1420.79 L1338.15 1415.67 L1359.29 1407.84 L1380.43 1394.86 L1401.57 1368.22 L1422.7 1318.91 L1443.84 1286.89 L1464.98 1317.21 L1486.12 1340.57 L1507.25 1359.44 L1528.39 1375.87 L1549.53 1389.83 L1570.67 1391.42 L1591.8 1396.4 L1612.94 1377.82 L1634.08 1378.83 L1655.22 1388.66 L1676.35 1402.27 L1697.49 1407.13 L1718.63 1411.35 L1739.77 1415.99 L1760.9 1418.52 L1782.04 1422.96 L1803.18 1429.56 L1824.32 1435.41 L1845.46 1437.7 L1866.59 1438.82 L1887.73 1441.37 L1908.87 1442.91 L1930.01 1443.8 L1951.14 1445.15 L1972.28 1445.71 L1993.42 1445.72 L2014.56 1445.6 L2035.69 1444.72 L2056.83 1443.58 L2077.97 1442.57 L2099.11 1443.95 L2120.24 1444.62 L2141.38 1445.22 L2162.52 1445.42 L2183.66 1444.77 L2204.79 1442.73 L2225.93 1440.24 L2247.07 1433.56 L2268.21 1416.02 L2289.34 1402.25 L2289.34 855.569 L2268.21 732.782 L2247.07 619.24 L2225.93 646.172 L2204.79 718.941 L2183.66 740.694 L2162.52 736.464 L2141.38 748.273 L2120.24 757.933 L2099.11 766.52 L2077.97 752.736 L2056.83 771.817 L2035.69 850.107 L2014.56 908.641 L1993.42 985.432 L1972.28 1077.54 L1951.14 1170.34 L1930.01 1248.37 L1908.87 1276.77 L1887.73 1268.24 L1866.59 1259.83 L1845.46 1239.27 L1824.32 1158.3 L1803.18 1054.04 L1782.04 900.416 L1760.9 680.229 L1739.77 555.85 L1718.63 521.191 L1697.49 625.703 L1676.35 756.023 L1655.22 1007.94 L1634.08 1133.98 L1612.94 1096.35 L1591.8 989.863 L1570.67 868.195 L1549.53 742.624 L1528.39 599.138 L1507.25 516.323 L1486.12 450.56 L1464.98 464.371 L1443.84 464.138 L1422.7 640.549 L1401.57 666.561 L1380.43 712.968 L1359.29 783.998 L1338.15 859.405 L1317.02 955.969 L1295.88 1051.06 L1274.74 1155.61 L1253.6 1231.01 L1232.47 1284.87 L1211.33 1322.57 L1190.19 1346.63 L1169.05 1367.43 L1147.92 1379.47 L1126.78 1376.89 L1105.64 1362.4 L1084.5 1349.56 L1063.37 1328.69 L1042.23 1292.14 L1021.09 1255.16 L999.954 1182 L978.816 1123.15 L957.679 1048.25 L936.541 871.103 L915.404 780.138 L894.266 703.559 L873.128 615.585 L851.991 832.655 L830.853 1006.16 L809.716 933.238 L788.578 857.576 L767.441 765.293 L746.303 719.143 L725.166 705.126 L704.028 710.042 L682.891 639.058 L661.753 632.195 L640.616 608.433 L619.478 752.824 L598.34 941.807 L577.203 1073.74 L556.065 1190.34 L534.928 1270.87 L513.79 1322.69 L492.653 1354.71 L471.515 1376.39 L450.378 1390.48 L429.24 1398.53 L408.103 1401.86 L386.965 1403.06 L365.828 1402.93 L344.69 1401.53 L323.553 1398.39 L302.415 1392.54 L281.277 1380.24 L260.14 1369.25 L239.002 1354.27 L217.865 1333.78 L196.727 1317.38 L175.59 1295.4  Z" fill="#e26f46" fill-rule="evenodd" fill-opacity="0.5"/>
<polyline clip-path="url(#clip631)" style="stroke:#e26f46; stroke-linecap:round; stroke-linejoin:round; stroke-width:12; stroke-opacity:1; fill:none" points="175.59,1295.4 196.727,1324.38 217.865,1347.01 239.002,1365.9 260.14,1379.79 281.277,1391.04 302.415,1401.71 323.553,1408.68 344.69,1412.19 365.828,1417.01 386.965,1418.92 408.103,1418.69 429.24,1417.11 450.378,1413.45 471.515,1408.01 492.653,1399.17 513.79,1386.62 534.928,1366.03 556.065,1334.79 577.203,1265.76 598.34,1185.77 619.478,1080.4 640.616,954.417 661.753,859.391 682.891,829.218 704.028,851.597 725.166,825.459 746.303,927.074 767.441,1014.22 788.578,1092.56 809.716,1162.64 830.853,1196.51 851.991,1245.5 873.128,1281.49 894.266,1310.54 915.404,1338.78 936.541,1357.05 957.679,1372.06 978.816,1381.53 999.954,1388.72 1021.09,1395.14 1042.23,1399.06 1063.37,1401.95 1084.5,1404.18 1105.64,1405.52 1126.78,1405.98 1147.92,1407.67 1169.05,1411.43 1190.19,1410.65 1211.33,1407.15 1232.47,1400.9 1253.6,1388.27 1274.74,1369.51 1295.88,1338.85 1317.02,1279.82 1338.15,1163.5 1359.29,1000.54 1380.43,866.707 1401.57,796.101 1422.7,759.66 1443.84,833.984 1464.98,881.384 1486.12,984.517 1507.25,1062.58 1528.39,1126.43 1549.53,1188.84 1570.67,1237.44 1591.8,1280.54 1612.94,1313.31 1634.08,1319.49 1655.22,1348.66 1676.35,1368.95 1697.49,1382.88 1718.63,1397.16 1739.77,1401.33 1760.9,1406.98 1782.04,1412.32 1803.18,1413.17 1824.32,1415.57 1845.46,1416.1 1866.59,1416.46 1887.73,1416.89 1908.87,1414.67 1930.01,1410.92 1951.14,1404.07 1972.28,1392.9 1993.42,1387.05 2014.56,1366.73 2035.69,1341.94 2056.83,1300.48 2077.97,1231.32 2099.11,1154.53 2120.24,1033.79 2141.38,1017.62 2162.52,1034.8 2183.66,989.906 2204.79,1024.64 2225.93,1103.66 2247.07,1160.92 2268.21,1217.25 2289.34,1241.8 "/>
</svg>
