<?xml version="1.0" encoding="utf-8"?>
<svg xmlns="http://www.w3.org/2000/svg" xmlns:xlink="http://www.w3.org/1999/xlink" width="600" height="400" viewBox="0 0 2400 1600">
<defs>
  <clipPath id="clip510">
    <rect x="0" y="0" width="2400" height="1600"/>
  </clipPath>
</defs>
<path clip-path="url(#clip510)" d="M0 1600 L2400 1600 L2400 0 L0 0  Z" fill="#ffffff" fill-rule="evenodd" fill-opacity="1"/>
<defs>
  <clipPath id="clip511">
    <rect x="184" y="47" width="2170" height="1440"/>
  </clipPath>
</defs>
<path clip-path="url(#clip510)" d="M184.191 1486.45 L2352.76 1486.45 L2352.76 47.2441 L184.191 47.2441  Z" fill="#ffffff" fill-rule="evenodd" fill-opacity="1"/>
<polyline clip-path="url(#clip511)" style="stroke:#000000; stroke-linecap:round; stroke-linejoin:round; stroke-width:2; stroke-opacity:0.1; fill:none" points="245.565,1486.45 245.565,47.2441 "/>
<polyline clip-path="url(#clip511)" style="stroke:#000000; stroke-linecap:round; stroke-linejoin:round; stroke-width:2; stroke-opacity:0.1; fill:none" points="757.019,1486.45 757.019,47.2441 "/>
<polyline clip-path="url(#clip511)" style="stroke:#000000; stroke-linecap:round; stroke-linejoin:round; stroke-width:2; stroke-opacity:0.1; fill:none" points="1268.47,1486.45 1268.47,47.2441 "/>
<polyline clip-path="url(#clip511)" style="stroke:#000000; stroke-linecap:round; stroke-linejoin:round; stroke-width:2; stroke-opacity:0.1; fill:none" points="1779.93,1486.45 1779.93,47.2441 "/>
<polyline clip-path="url(#clip511)" style="stroke:#000000; stroke-linecap:round; stroke-linejoin:round; stroke-width:2; stroke-opacity:0.1; fill:none" points="2291.38,1486.45 2291.38,47.2441 "/>
<polyline clip-path="url(#clip511)" style="stroke:#000000; stroke-linecap:round; stroke-linejoin:round; stroke-width:2; stroke-opacity:0.1; fill:none" points="184.191,1447.87 2352.76,1447.87 "/>
<polyline clip-path="url(#clip511)" style="stroke:#000000; stroke-linecap:round; stroke-linejoin:round; stroke-width:2; stroke-opacity:0.1; fill:none" points="184.191,1134.52 2352.76,1134.52 "/>
<polyline clip-path="url(#clip511)" style="stroke:#000000; stroke-linecap:round; stroke-linejoin:round; stroke-width:2; stroke-opacity:0.1; fill:none" points="184.191,821.171 2352.76,821.171 "/>
<polyline clip-path="url(#clip511)" style="stroke:#000000; stroke-linecap:round; stroke-linejoin:round; stroke-width:2; stroke-opacity:0.1; fill:none" points="184.191,507.821 2352.76,507.821 "/>
<polyline clip-path="url(#clip511)" style="stroke:#000000; stroke-linecap:round; stroke-linejoin:round; stroke-width:2; stroke-opacity:0.1; fill:none" points="184.191,194.471 2352.76,194.471 "/>
<polyline clip-path="url(#clip510)" style="stroke:#000000; stroke-linecap:round; stroke-linejoin:round; stroke-width:4; stroke-opacity:1; fill:none" points="184.191,1486.45 2352.76,1486.45 "/>
<polyline clip-path="url(#clip510)" style="stroke:#000000; stroke-linecap:round; stroke-linejoin:round; stroke-width:4; stroke-opacity:1; fill:none" points="245.565,1486.45 245.565,1467.55 "/>
<polyline clip-path="url(#clip510)" style="stroke:#000000; stroke-linecap:round; stroke-linejoin:round; stroke-width:4; stroke-opacity:1; fill:none" points="757.019,1486.45 757.019,1467.55 "/>
<polyline clip-path="url(#clip510)" style="stroke:#000000; stroke-linecap:round; stroke-linejoin:round; stroke-width:4; stroke-opacity:1; fill:none" points="1268.47,1486.45 1268.47,1467.55 "/>
<polyline clip-path="url(#clip510)" style="stroke:#000000; stroke-linecap:round; stroke-linejoin:round; stroke-width:4; stroke-opacity:1; fill:none" points="1779.93,1486.45 1779.93,1467.55 "/>
<polyline clip-path="url(#clip510)" style="stroke:#000000; stroke-linecap:round; stroke-linejoin:round; stroke-width:4; stroke-opacity:1; fill:none" points="2291.38,1486.45 2291.38,1467.55 "/>
<path clip-path="url(#clip510)" d="M222.95 1517.37 Q219.338 1517.37 217.51 1520.93 Q215.704 1524.47 215.704 1531.6 Q215.704 1538.71 217.51 1542.27 Q219.338 1545.82 222.95 1545.82 Q226.584 1545.82 228.389 1542.27 Q230.218 1538.71 230.218 1531.6 Q230.218 1524.47 228.389 1520.93 Q226.584 1517.37 222.95 1517.37 M222.95 1513.66 Q228.76 1513.66 231.815 1518.27 Q234.894 1522.85 234.894 1531.6 Q234.894 1540.33 231.815 1544.94 Q228.76 1549.52 222.95 1549.52 Q217.139 1549.52 214.061 1544.94 Q211.005 1540.33 211.005 1531.6 Q211.005 1522.85 214.061 1518.27 Q217.139 1513.66 222.95 1513.66 Z" fill="#000000" fill-rule="nonzero" fill-opacity="1" /><path clip-path="url(#clip510)" d="M243.111 1542.97 L247.996 1542.97 L247.996 1548.85 L243.111 1548.85 L243.111 1542.97 Z" fill="#000000" fill-rule="nonzero" fill-opacity="1" /><path clip-path="url(#clip510)" d="M268.181 1517.37 Q264.57 1517.37 262.741 1520.93 Q260.935 1524.47 260.935 1531.6 Q260.935 1538.71 262.741 1542.27 Q264.57 1545.82 268.181 1545.82 Q271.815 1545.82 273.621 1542.27 Q275.449 1538.71 275.449 1531.6 Q275.449 1524.47 273.621 1520.93 Q271.815 1517.37 268.181 1517.37 M268.181 1513.66 Q273.991 1513.66 277.046 1518.27 Q280.125 1522.85 280.125 1531.6 Q280.125 1540.33 277.046 1544.94 Q273.991 1549.52 268.181 1549.52 Q262.371 1549.52 259.292 1544.94 Q256.236 1540.33 256.236 1531.6 Q256.236 1522.85 259.292 1518.27 Q262.371 1513.66 268.181 1513.66 Z" fill="#000000" fill-rule="nonzero" fill-opacity="1" /><path clip-path="url(#clip510)" d="M728.755 1544.91 L745.075 1544.91 L745.075 1548.85 L723.131 1548.85 L723.131 1544.91 Q725.793 1542.16 730.376 1537.53 Q734.982 1532.88 736.163 1531.53 Q738.408 1529.01 739.288 1527.27 Q740.191 1525.51 740.191 1523.82 Q740.191 1521.07 738.246 1519.33 Q736.325 1517.6 733.223 1517.6 Q731.024 1517.6 728.57 1518.36 Q726.14 1519.13 723.362 1520.68 L723.362 1515.95 Q726.186 1514.82 728.64 1514.24 Q731.093 1513.66 733.13 1513.66 Q738.501 1513.66 741.695 1516.35 Q744.89 1519.03 744.89 1523.52 Q744.89 1525.65 744.079 1527.57 Q743.292 1529.47 741.186 1532.07 Q740.607 1532.74 737.505 1535.95 Q734.404 1539.15 728.755 1544.91 Z" fill="#000000" fill-rule="nonzero" fill-opacity="1" /><path clip-path="url(#clip510)" d="M754.89 1542.97 L759.774 1542.97 L759.774 1548.85 L754.89 1548.85 L754.89 1542.97 Z" fill="#000000" fill-rule="nonzero" fill-opacity="1" /><path clip-path="url(#clip510)" d="M770.005 1514.29 L788.362 1514.29 L788.362 1518.22 L774.288 1518.22 L774.288 1526.7 Q775.306 1526.35 776.325 1526.19 Q777.343 1526 778.362 1526 Q784.149 1526 787.528 1529.17 Q790.908 1532.34 790.908 1537.76 Q790.908 1543.34 787.436 1546.44 Q783.964 1549.52 777.644 1549.52 Q775.468 1549.52 773.2 1549.15 Q770.954 1548.78 768.547 1548.04 L768.547 1543.34 Q770.63 1544.47 772.852 1545.03 Q775.075 1545.58 777.552 1545.58 Q781.556 1545.58 783.894 1543.48 Q786.232 1541.37 786.232 1537.76 Q786.232 1534.15 783.894 1532.04 Q781.556 1529.94 777.552 1529.94 Q775.677 1529.94 773.802 1530.35 Q771.95 1530.77 770.005 1531.65 L770.005 1514.29 Z" fill="#000000" fill-rule="nonzero" fill-opacity="1" /><path clip-path="url(#clip510)" d="M1235.64 1514.29 L1253.99 1514.29 L1253.99 1518.22 L1239.92 1518.22 L1239.92 1526.7 Q1240.94 1526.35 1241.96 1526.19 Q1242.98 1526 1243.99 1526 Q1249.78 1526 1253.16 1529.17 Q1256.54 1532.34 1256.54 1537.76 Q1256.54 1543.34 1253.07 1546.44 Q1249.6 1549.52 1243.28 1549.52 Q1241.1 1549.52 1238.83 1549.15 Q1236.59 1548.78 1234.18 1548.04 L1234.18 1543.34 Q1236.26 1544.47 1238.49 1545.03 Q1240.71 1545.58 1243.18 1545.58 Q1247.19 1545.58 1249.53 1543.48 Q1251.86 1541.37 1251.86 1537.76 Q1251.86 1534.15 1249.53 1532.04 Q1247.19 1529.94 1243.18 1529.94 Q1241.31 1529.94 1239.43 1530.35 Q1237.58 1530.77 1235.64 1531.65 L1235.64 1514.29 Z" fill="#000000" fill-rule="nonzero" fill-opacity="1" /><path clip-path="url(#clip510)" d="M1265.75 1542.97 L1270.64 1542.97 L1270.64 1548.85 L1265.75 1548.85 L1265.75 1542.97 Z" fill="#000000" fill-rule="nonzero" fill-opacity="1" /><path clip-path="url(#clip510)" d="M1290.82 1517.37 Q1287.21 1517.37 1285.38 1520.93 Q1283.58 1524.47 1283.58 1531.6 Q1283.58 1538.71 1285.38 1542.27 Q1287.21 1545.82 1290.82 1545.82 Q1294.46 1545.82 1296.26 1542.27 Q1298.09 1538.71 1298.09 1531.6 Q1298.09 1524.47 1296.26 1520.93 Q1294.46 1517.37 1290.82 1517.37 M1290.82 1513.66 Q1296.63 1513.66 1299.69 1518.27 Q1302.77 1522.85 1302.77 1531.6 Q1302.77 1540.33 1299.69 1544.94 Q1296.63 1549.52 1290.82 1549.52 Q1285.01 1549.52 1281.93 1544.94 Q1278.88 1540.33 1278.88 1531.6 Q1278.88 1522.85 1281.93 1518.27 Q1285.01 1513.66 1290.82 1513.66 Z" fill="#000000" fill-rule="nonzero" fill-opacity="1" /><path clip-path="url(#clip510)" d="M1746.25 1514.29 L1768.47 1514.29 L1768.47 1516.28 L1755.92 1548.85 L1751.04 1548.85 L1762.84 1518.22 L1746.25 1518.22 L1746.25 1514.29 Z" fill="#000000" fill-rule="nonzero" fill-opacity="1" /><path clip-path="url(#clip510)" d="M1777.59 1542.97 L1782.47 1542.97 L1782.47 1548.85 L1777.59 1548.85 L1777.59 1542.97 Z" fill="#000000" fill-rule="nonzero" fill-opacity="1" /><path clip-path="url(#clip510)" d="M1792.71 1514.29 L1811.06 1514.29 L1811.06 1518.22 L1796.99 1518.22 L1796.99 1526.7 Q1798.01 1526.35 1799.02 1526.19 Q1800.04 1526 1801.06 1526 Q1806.85 1526 1810.23 1529.17 Q1813.61 1532.34 1813.61 1537.76 Q1813.61 1543.34 1810.14 1546.44 Q1806.66 1549.52 1800.34 1549.52 Q1798.17 1549.52 1795.9 1549.15 Q1793.65 1548.78 1791.25 1548.04 L1791.25 1543.34 Q1793.33 1544.47 1795.55 1545.03 Q1797.77 1545.58 1800.25 1545.58 Q1804.26 1545.58 1806.59 1543.48 Q1808.93 1541.37 1808.93 1537.76 Q1808.93 1534.15 1806.59 1532.04 Q1804.26 1529.94 1800.25 1529.94 Q1798.38 1529.94 1796.5 1530.35 Q1794.65 1530.77 1792.71 1531.65 L1792.71 1514.29 Z" fill="#000000" fill-rule="nonzero" fill-opacity="1" /><path clip-path="url(#clip510)" d="M2243.45 1544.91 L2251.09 1544.91 L2251.09 1518.55 L2242.78 1520.21 L2242.78 1515.95 L2251.05 1514.29 L2255.72 1514.29 L2255.72 1544.91 L2263.36 1544.91 L2263.36 1548.85 L2243.45 1548.85 L2243.45 1544.91 Z" fill="#000000" fill-rule="nonzero" fill-opacity="1" /><path clip-path="url(#clip510)" d="M2282.81 1517.37 Q2279.19 1517.37 2277.37 1520.93 Q2275.56 1524.47 2275.56 1531.6 Q2275.56 1538.71 2277.37 1542.27 Q2279.19 1545.82 2282.81 1545.82 Q2286.44 1545.82 2288.24 1542.27 Q2290.07 1538.71 2290.07 1531.6 Q2290.07 1524.47 2288.24 1520.93 Q2286.44 1517.37 2282.81 1517.37 M2282.81 1513.66 Q2288.62 1513.66 2291.67 1518.27 Q2294.75 1522.85 2294.75 1531.6 Q2294.75 1540.33 2291.67 1544.94 Q2288.62 1549.52 2282.81 1549.52 Q2276.99 1549.52 2273.92 1544.94 Q2270.86 1540.33 2270.86 1531.6 Q2270.86 1522.85 2273.92 1518.27 Q2276.99 1513.66 2282.81 1513.66 Z" fill="#000000" fill-rule="nonzero" fill-opacity="1" /><path clip-path="url(#clip510)" d="M2302.97 1542.97 L2307.85 1542.97 L2307.85 1548.85 L2302.97 1548.85 L2302.97 1542.97 Z" fill="#000000" fill-rule="nonzero" fill-opacity="1" /><path clip-path="url(#clip510)" d="M2328.04 1517.37 Q2324.43 1517.37 2322.6 1520.93 Q2320.79 1524.47 2320.79 1531.6 Q2320.79 1538.71 2322.6 1542.27 Q2324.43 1545.82 2328.04 1545.82 Q2331.67 1545.82 2333.48 1542.27 Q2335.3 1538.71 2335.3 1531.6 Q2335.3 1524.47 2333.48 1520.93 Q2331.67 1517.37 2328.04 1517.37 M2328.04 1513.66 Q2333.85 1513.66 2336.9 1518.27 Q2339.98 1522.85 2339.98 1531.6 Q2339.98 1540.33 2336.9 1544.94 Q2333.85 1549.52 2328.04 1549.52 Q2322.23 1549.52 2319.15 1544.94 Q2316.09 1540.33 2316.09 1531.6 Q2316.09 1522.85 2319.15 1518.27 Q2322.23 1513.66 2328.04 1513.66 Z" fill="#000000" fill-rule="nonzero" fill-opacity="1" /><polyline clip-path="url(#clip510)" style="stroke:#000000; stroke-linecap:round; stroke-linejoin:round; stroke-width:4; stroke-opacity:1; fill:none" points="184.191,1486.45 184.191,47.2441 "/>
<polyline clip-path="url(#clip510)" style="stroke:#000000; stroke-linecap:round; stroke-linejoin:round; stroke-width:4; stroke-opacity:1; fill:none" points="184.191,1447.87 203.088,1447.87 "/>
<polyline clip-path="url(#clip510)" style="stroke:#000000; stroke-linecap:round; stroke-linejoin:round; stroke-width:4; stroke-opacity:1; fill:none" points="184.191,1134.52 203.088,1134.52 "/>
<polyline clip-path="url(#clip510)" style="stroke:#000000; stroke-linecap:round; stroke-linejoin:round; stroke-width:4; stroke-opacity:1; fill:none" points="184.191,821.171 203.088,821.171 "/>
<polyline clip-path="url(#clip510)" style="stroke:#000000; stroke-linecap:round; stroke-linejoin:round; stroke-width:4; stroke-opacity:1; fill:none" points="184.191,507.821 203.088,507.821 "/>
<polyline clip-path="url(#clip510)" style="stroke:#000000; stroke-linecap:round; stroke-linejoin:round; stroke-width:4; stroke-opacity:1; fill:none" points="184.191,194.471 203.088,194.471 "/>
<path clip-path="url(#clip510)" d="M91.0151 1433.67 Q87.404 1433.67 85.5753 1437.23 Q83.7697 1440.78 83.7697 1447.9 Q83.7697 1455.01 85.5753 1458.58 Q87.404 1462.12 91.0151 1462.12 Q94.6493 1462.12 96.4548 1458.58 Q98.2835 1455.01 98.2835 1447.9 Q98.2835 1440.78 96.4548 1437.23 Q94.6493 1433.67 91.0151 1433.67 M91.0151 1429.97 Q96.8252 1429.97 99.8808 1434.57 Q102.959 1439.15 102.959 1447.9 Q102.959 1456.63 99.8808 1461.24 Q96.8252 1465.82 91.0151 1465.82 Q85.2049 1465.82 82.1262 1461.24 Q79.0707 1456.63 79.0707 1447.9 Q79.0707 1439.15 82.1262 1434.57 Q85.2049 1429.97 91.0151 1429.97 Z" fill="#000000" fill-rule="nonzero" fill-opacity="1" /><path clip-path="url(#clip510)" d="M111.177 1459.27 L116.061 1459.27 L116.061 1465.15 L111.177 1465.15 L111.177 1459.27 Z" fill="#000000" fill-rule="nonzero" fill-opacity="1" /><path clip-path="url(#clip510)" d="M136.246 1433.67 Q132.635 1433.67 130.807 1437.23 Q129.001 1440.78 129.001 1447.9 Q129.001 1455.01 130.807 1458.58 Q132.635 1462.12 136.246 1462.12 Q139.881 1462.12 141.686 1458.58 Q143.515 1455.01 143.515 1447.9 Q143.515 1440.78 141.686 1437.23 Q139.881 1433.67 136.246 1433.67 M136.246 1429.97 Q142.056 1429.97 145.112 1434.57 Q148.191 1439.15 148.191 1447.9 Q148.191 1456.63 145.112 1461.24 Q142.056 1465.82 136.246 1465.82 Q130.436 1465.82 127.357 1461.24 Q124.302 1456.63 124.302 1447.9 Q124.302 1439.15 127.357 1434.57 Q130.436 1429.97 136.246 1429.97 Z" fill="#000000" fill-rule="nonzero" fill-opacity="1" /><path clip-path="url(#clip510)" d="M86.0382 1147.87 L102.358 1147.87 L102.358 1151.8 L80.4133 1151.8 L80.4133 1147.87 Q83.0753 1145.11 87.6586 1140.48 Q92.2651 1135.83 93.4456 1134.49 Q95.691 1131.96 96.5706 1130.23 Q97.4734 1128.47 97.4734 1126.78 Q97.4734 1124.02 95.5289 1122.29 Q93.6076 1120.55 90.5058 1120.55 Q88.3067 1120.55 85.8531 1121.31 Q83.4225 1122.08 80.6447 1123.63 L80.6447 1118.91 Q83.4688 1117.77 85.9225 1117.19 Q88.3762 1116.62 90.4132 1116.62 Q95.7836 1116.62 98.978 1119.3 Q102.172 1121.99 102.172 1126.48 Q102.172 1128.61 101.362 1130.53 Q100.575 1132.43 98.4687 1135.02 Q97.89 1135.69 94.7882 1138.91 Q91.6864 1142.1 86.0382 1147.87 Z" fill="#000000" fill-rule="nonzero" fill-opacity="1" /><path clip-path="url(#clip510)" d="M112.172 1145.92 L117.057 1145.92 L117.057 1151.8 L112.172 1151.8 L112.172 1145.92 Z" fill="#000000" fill-rule="nonzero" fill-opacity="1" /><path clip-path="url(#clip510)" d="M127.288 1117.24 L145.644 1117.24 L145.644 1121.18 L131.57 1121.18 L131.57 1129.65 Q132.589 1129.3 133.607 1129.14 Q134.626 1128.95 135.644 1128.95 Q141.431 1128.95 144.811 1132.12 Q148.191 1135.3 148.191 1140.71 Q148.191 1146.29 144.718 1149.39 Q141.246 1152.47 134.927 1152.47 Q132.751 1152.47 130.482 1152.1 Q128.237 1151.73 125.83 1150.99 L125.83 1146.29 Q127.913 1147.43 130.135 1147.98 Q132.357 1148.54 134.834 1148.54 Q138.839 1148.54 141.177 1146.43 Q143.515 1144.32 143.515 1140.71 Q143.515 1137.1 141.177 1134.99 Q138.839 1132.89 134.834 1132.89 Q132.959 1132.89 131.084 1133.31 Q129.232 1133.72 127.288 1134.6 L127.288 1117.24 Z" fill="#000000" fill-rule="nonzero" fill-opacity="1" /><path clip-path="url(#clip510)" d="M81.0614 803.891 L99.4178 803.891 L99.4178 807.826 L85.3438 807.826 L85.3438 816.298 Q86.3623 815.951 87.3808 815.789 Q88.3993 815.603 89.4178 815.603 Q95.2049 815.603 98.5845 818.775 Q101.964 821.946 101.964 827.363 Q101.964 832.941 98.4919 836.043 Q95.0197 839.122 88.7003 839.122 Q86.5243 839.122 84.2558 838.752 Q82.0105 838.381 79.6031 837.64 L79.6031 832.941 Q81.6864 834.076 83.9086 834.631 Q86.1308 835.187 88.6077 835.187 Q92.6123 835.187 94.9502 833.08 Q97.2882 830.974 97.2882 827.363 Q97.2882 823.752 94.9502 821.645 Q92.6123 819.539 88.6077 819.539 Q86.7327 819.539 84.8577 819.955 Q83.0058 820.372 81.0614 821.252 L81.0614 803.891 Z" fill="#000000" fill-rule="nonzero" fill-opacity="1" /><path clip-path="url(#clip510)" d="M111.177 832.571 L116.061 832.571 L116.061 838.451 L111.177 838.451 L111.177 832.571 Z" fill="#000000" fill-rule="nonzero" fill-opacity="1" /><path clip-path="url(#clip510)" d="M136.246 806.969 Q132.635 806.969 130.807 810.534 Q129.001 814.076 129.001 821.205 Q129.001 828.312 130.807 831.877 Q132.635 835.418 136.246 835.418 Q139.881 835.418 141.686 831.877 Q143.515 828.312 143.515 821.205 Q143.515 814.076 141.686 810.534 Q139.881 806.969 136.246 806.969 M136.246 803.266 Q142.056 803.266 145.112 807.872 Q148.191 812.455 148.191 821.205 Q148.191 829.932 145.112 834.539 Q142.056 839.122 136.246 839.122 Q130.436 839.122 127.357 834.539 Q124.302 829.932 124.302 821.205 Q124.302 812.455 127.357 807.872 Q130.436 803.266 136.246 803.266 Z" fill="#000000" fill-rule="nonzero" fill-opacity="1" /><path clip-path="url(#clip510)" d="M80.8299 490.541 L103.052 490.541 L103.052 492.532 L90.5058 525.101 L85.6216 525.101 L97.4271 494.476 L80.8299 494.476 L80.8299 490.541 Z" fill="#000000" fill-rule="nonzero" fill-opacity="1" /><path clip-path="url(#clip510)" d="M112.172 519.221 L117.057 519.221 L117.057 525.101 L112.172 525.101 L112.172 519.221 Z" fill="#000000" fill-rule="nonzero" fill-opacity="1" /><path clip-path="url(#clip510)" d="M127.288 490.541 L145.644 490.541 L145.644 494.476 L131.57 494.476 L131.57 502.948 Q132.589 502.601 133.607 502.439 Q134.626 502.254 135.644 502.254 Q141.431 502.254 144.811 505.425 Q148.191 508.596 148.191 514.013 Q148.191 519.592 144.718 522.693 Q141.246 525.772 134.927 525.772 Q132.751 525.772 130.482 525.402 Q128.237 525.031 125.83 524.291 L125.83 519.592 Q127.913 520.726 130.135 521.281 Q132.357 521.837 134.834 521.837 Q138.839 521.837 141.177 519.73 Q143.515 517.624 143.515 514.013 Q143.515 510.402 141.177 508.295 Q138.839 506.189 134.834 506.189 Q132.959 506.189 131.084 506.606 Q129.232 507.022 127.288 507.902 L127.288 490.541 Z" fill="#000000" fill-rule="nonzero" fill-opacity="1" /><path clip-path="url(#clip510)" d="M51.6634 207.816 L59.3023 207.816 L59.3023 181.45 L50.9921 183.117 L50.9921 178.858 L59.256 177.191 L63.9319 177.191 L63.9319 207.816 L71.5707 207.816 L71.5707 211.751 L51.6634 211.751 L51.6634 207.816 Z" fill="#000000" fill-rule="nonzero" fill-opacity="1" /><path clip-path="url(#clip510)" d="M91.0151 180.27 Q87.404 180.27 85.5753 183.835 Q83.7697 187.376 83.7697 194.506 Q83.7697 201.612 85.5753 205.177 Q87.404 208.719 91.0151 208.719 Q94.6493 208.719 96.4548 205.177 Q98.2835 201.612 98.2835 194.506 Q98.2835 187.376 96.4548 183.835 Q94.6493 180.27 91.0151 180.27 M91.0151 176.566 Q96.8252 176.566 99.8808 181.172 Q102.959 185.756 102.959 194.506 Q102.959 203.233 99.8808 207.839 Q96.8252 212.422 91.0151 212.422 Q85.2049 212.422 82.1262 207.839 Q79.0707 203.233 79.0707 194.506 Q79.0707 185.756 82.1262 181.172 Q85.2049 176.566 91.0151 176.566 Z" fill="#000000" fill-rule="nonzero" fill-opacity="1" /><path clip-path="url(#clip510)" d="M111.177 205.871 L116.061 205.871 L116.061 211.751 L111.177 211.751 L111.177 205.871 Z" fill="#000000" fill-rule="nonzero" fill-opacity="1" /><path clip-path="url(#clip510)" d="M136.246 180.27 Q132.635 180.27 130.807 183.835 Q129.001 187.376 129.001 194.506 Q129.001 201.612 130.807 205.177 Q132.635 208.719 136.246 208.719 Q139.881 208.719 141.686 205.177 Q143.515 201.612 143.515 194.506 Q143.515 187.376 141.686 183.835 Q139.881 180.27 136.246 180.27 M136.246 176.566 Q142.056 176.566 145.112 181.172 Q148.191 185.756 148.191 194.506 Q148.191 203.233 145.112 207.839 Q142.056 212.422 136.246 212.422 Q130.436 212.422 127.357 207.839 Q124.302 203.233 124.302 194.506 Q124.302 185.756 127.357 181.172 Q130.436 176.566 136.246 176.566 Z" fill="#000000" fill-rule="nonzero" fill-opacity="1" /><path clip-path="url(#clip511)" d="M245.565 1322.53 L266.023 1323.6 L286.481 1319.71 L306.94 1302.78 L327.398 1296.76 L347.856 1277.66 L368.314 1267.01 L388.772 1252.97 L409.23 1226.29 L429.689 1196.7 L450.147 1176.06 L470.605 1140.5 L491.063 1101.94 L511.521 1054.04 L531.979 1064.98 L552.438 1002.63 L572.896 947.401 L593.354 909.392 L613.812 843.375 L634.27 801.983 L654.728 780.632 L675.187 852.284 L695.645 939.953 L716.103 1061.5 L736.561 1184.86 L757.019 1273.94 L777.477 1336.8 L797.936 1368.47 L818.394 1383.65 L838.852 1394.74 L859.31 1399.55 L879.768 1401.96 L900.226 1400.9 L920.685 1397.75 L941.143 1397.09 L961.601 1395.09 L982.059 1392.88 L1002.52 1387.37 L1022.98 1383.16 L1043.43 1376.57 L1063.89 1369.82 L1084.35 1357.59 L1104.81 1353.29 L1125.27 1338.4 L1145.72 1325.72 L1166.18 1304.14 L1186.64 1271.29 L1207.1 1241.46 L1227.56 1219.92 L1248.02 1166.96 L1268.47 1114.77 L1288.93 1090.82 L1309.39 1088.4 L1329.85 1102.39 L1350.31 1099.02 L1370.76 1147.43 L1391.22 1197.23 L1411.68 1224.71 L1432.14 1258.97 L1452.6 1299.43 L1473.05 1317.48 L1493.51 1325.75 L1513.97 1339.77 L1534.43 1359.77 L1554.89 1372.72 L1575.35 1387.12 L1595.8 1395.04 L1616.26 1404.11 L1636.72 1407.02 L1657.18 1411.96 L1677.64 1415.84 L1698.09 1418.69 L1718.55 1418.49 L1739.01 1416.43 L1759.47 1415.62 L1779.93 1416.19 L1800.39 1414.77 L1820.84 1410.19 L1841.3 1403.06 L1861.76 1399.12 L1882.22 1393.9 L1902.68 1388.47 L1923.13 1386.21 L1943.59 1378.02 L1964.05 1366.68 L1984.51 1347.08 L2004.97 1329.22 L2025.43 1311.96 L2045.88 1293.59 L2066.34 1278.24 L2086.8 1271.63 L2107.26 1279.63 L2127.72 1280.62 L2148.17 1296.97 L2168.63 1314.53 L2189.09 1329.56 L2209.55 1342.64 L2230.01 1345.71 L2250.47 1345.72 L2270.92 1358.76 L2291.38 1373.53 L2291.38 179.849 L2270.92 242.022 L2250.47 300.156 L2230.01 422.8 L2209.55 524.158 L2189.09 553.54 L2168.63 561.917 L2148.17 472.985 L2127.72 526.06 L2107.26 587.063 L2086.8 628.75 L2066.34 540.783 L2045.88 489.125 L2025.43 418.878 L2004.97 472.822 L1984.51 559.812 L1964.05 648.369 L1943.59 647.568 L1923.13 734.378 L1902.68 787.726 L1882.22 819.679 L1861.76 833.526 L1841.3 812.134 L1820.84 842.28 L1800.39 874.73 L1779.93 922.705 L1759.47 982.017 L1739.01 1010.48 L1718.55 1040.81 L1698.09 1105.77 L1677.64 1140.08 L1657.18 1159.52 L1636.72 1175.17 L1616.26 1103.09 L1595.8 924.258 L1575.35 632.482 L1554.89 429.578 L1534.43 292.298 L1513.97 254.661 L1493.51 190.52 L1473.05 168.999 L1452.6 87.9763 L1432.14 176.62 L1411.68 270.594 L1391.22 327.519 L1370.76 402.381 L1350.31 458.743 L1329.85 480.638 L1309.39 579.501 L1288.93 637.732 L1268.47 723.3 L1248.02 747.131 L1227.56 728.045 L1207.1 763.27 L1186.64 805.809 L1166.18 870.008 L1145.72 942.834 L1125.27 982.377 L1104.81 985.721 L1084.35 1085.91 L1063.89 1103.92 L1043.43 1140.76 L1022.98 1185.21 L1002.52 1215.15 L982.059 1232.22 L961.601 1253.41 L941.143 1255.56 L920.685 1268.27 L900.226 1280.72 L879.768 1282.64 L859.31 1284.1 L838.852 1276.95 L818.394 1244.23 L797.936 1162.88 L777.477 996.788 L757.019 780.624 L736.561 610.632 L716.103 448.169 L695.645 373.465 L675.187 411.37 L654.728 277.518 L634.27 314.822 L613.812 466.505 L593.354 524.963 L572.896 656.174 L552.438 747.701 L531.979 750.213 L511.521 817.466 L491.063 889.946 L470.605 964.94 L450.147 1005.65 L429.689 1073.03 L409.23 1128.52 L388.772 1169.31 L368.314 1192.78 L347.856 1222.92 L327.398 1245.67 L306.94 1267.02 L286.481 1287.64 L266.023 1309.21 L245.565 1322.53  Z" fill="#009af9" fill-rule="evenodd" fill-opacity="0.5"/>
<polyline clip-path="url(#clip511)" style="stroke:#009af9; stroke-linecap:round; stroke-linejoin:round; stroke-width:12; stroke-opacity:1; fill:none" points="245.565,1322.53 266.023,1311.85 286.481,1304.85 306.94,1296.52 327.398,1272.52 347.856,1258.38 368.314,1250.33 388.772,1222.81 409.23,1198.86 429.689,1157.99 450.147,1118.97 470.605,1055.47 491.063,997.406 511.521,953.796 531.979,888.503 552.438,828.856 572.896,753.053 593.354,696.282 613.812,628.316 634.27,626.723 654.728,575.249 675.187,507.535 695.645,629.553 716.103,818.515 736.561,1008.91 757.019,1153.07 777.477,1222.47 797.936,1251.15 818.394,1286.26 838.852,1307.73 859.31,1330.26 879.768,1347.22 900.226,1354.91 920.685,1358.84 941.143,1354.37 961.601,1341.04 982.059,1333.3 1002.52,1332.12 1022.98,1328.74 1043.43,1319.91 1063.89,1312.99 1084.35,1297.23 1104.81,1272.36 1125.27,1250.32 1145.72,1205.88 1166.18,1153.32 1186.64,1103.83 1207.1,1058.7 1227.56,1027.4 1248.02,972.452 1268.47,937.687 1288.93,885.648 1309.39,814.846 1329.85,808.046 1350.31,732.38 1370.76,644.28 1391.22,670.305 1411.68,747.624 1432.14,742.855 1452.6,873.991 1473.05,1059.2 1493.51,1192.67 1513.97,1241.08 1534.43,1250.11 1554.89,1292.22 1575.35,1285.27 1595.8,1298.79 1616.26,1319.25 1636.72,1320.5 1657.18,1333.65 1677.64,1347.32 1698.09,1345.57 1718.55,1343.96 1739.01,1339.29 1759.47,1334.95 1779.93,1330.56 1800.39,1316.6 1820.84,1287.94 1841.3,1269.47 1861.76,1242.41 1882.22,1230.74 1902.68,1233.02 1923.13,1198.89 1943.59,1185.55 1964.05,1182.56 1984.51,1168.99 2004.97,1121 2025.43,1094.9 2045.88,1060.95 2066.34,1082.68 2086.8,1059.65 2107.26,1100.63 2127.72,1161.4 2148.17,1156.7 2168.63,1109.2 2189.09,1032.11 2209.55,1032.7 2230.01,1076.12 2250.47,1075.18 2270.92,1028.72 2291.38,989.051 "/>
<path clip-path="url(#clip511)" d="M245.565 1322.53 L266.023 1351.46 L286.481 1374.3 L306.94 1385.12 L327.398 1394.14 L347.856 1405.83 L368.314 1414.14 L388.772 1420.49 L409.23 1424.52 L429.689 1426.67 L450.147 1429.42 L470.605 1429.42 L491.063 1429.36 L511.521 1429.53 L531.979 1428.02 L552.438 1426.14 L572.896 1421.54 L593.354 1414.67 L613.812 1407.98 L634.27 1398.34 L654.728 1377.51 L675.187 1343.03 L695.645 1276.38 L716.103 1166.08 L736.561 1047.86 L757.019 1020.26 L777.477 1063.32 L797.936 1117.42 L818.394 1157.41 L838.852 1197.27 L859.31 1223.55 L879.768 1263.16 L900.226 1296.28 L920.685 1332.47 L941.143 1347.64 L961.601 1363.14 L982.059 1378.39 L1002.52 1397.23 L1022.98 1405.92 L1043.43 1418.64 L1063.89 1424.47 L1084.35 1428.15 L1104.81 1431.24 L1125.27 1434.75 L1145.72 1438.13 L1166.18 1440.19 L1186.64 1441.38 L1207.1 1442.04 L1227.56 1442.65 L1248.02 1443.03 L1268.47 1443.01 L1288.93 1443.28 L1309.39 1443.14 L1329.85 1442.47 L1350.31 1441.92 L1370.76 1440.93 L1391.22 1437.72 L1411.68 1434.2 L1432.14 1429.14 L1452.6 1420.3 L1473.05 1403.13 L1493.51 1372.95 L1513.97 1359.4 L1534.43 1330.37 L1554.89 1329.76 L1575.35 1349.88 L1595.8 1363.24 L1616.26 1373.58 L1636.72 1377.55 L1657.18 1385.91 L1677.64 1393.1 L1698.09 1403.51 L1718.55 1407.63 L1739.01 1415.46 L1759.47 1419.67 L1779.93 1423.78 L1800.39 1426.61 L1820.84 1427.89 L1841.3 1430.46 L1861.76 1433.72 L1882.22 1436.4 L1902.68 1438.68 L1923.13 1440.29 L1943.59 1441.33 L1964.05 1442.39 L1984.51 1443.23 L2004.97 1443.65 L2025.43 1443.87 L2045.88 1443.85 L2066.34 1444.42 L2086.8 1444.6 L2107.26 1445.13 L2127.72 1445.4 L2148.17 1445.5 L2168.63 1445.72 L2189.09 1445.61 L2209.55 1445.46 L2230.01 1445.39 L2250.47 1444.87 L2270.92 1444.7 L2291.38 1443.88 L2291.38 966.202 L2270.92 979.152 L2250.47 925.158 L2230.01 870.259 L2209.55 806.23 L2189.09 837.906 L2168.63 897.149 L2148.17 907.745 L2127.72 812.371 L2107.26 784.581 L2086.8 822.906 L2066.34 903.511 L2045.88 979.447 L2025.43 1062.88 L2004.97 1084.32 L1984.51 1076.79 L1964.05 1074.57 L1943.59 1091.62 L1923.13 1104.55 L1902.68 1129.67 L1882.22 1177.03 L1861.76 1236.97 L1841.3 1264.65 L1820.84 1289.05 L1800.39 1301.01 L1779.93 1298.15 L1759.47 1256.51 L1739.01 1201.84 L1718.55 1121.68 L1698.09 1046.41 L1677.64 950.286 L1657.18 829.509 L1636.72 670.52 L1616.26 564.37 L1595.8 634.214 L1575.35 641.263 L1554.89 461.257 L1534.43 399.342 L1513.97 541.41 L1493.51 693.119 L1473.05 685.148 L1452.6 719.193 L1432.14 792.452 L1411.68 824.673 L1391.22 941.771 L1370.76 1000.04 L1350.31 1022.5 L1329.85 1027.68 L1309.39 1051.66 L1288.93 1089.95 L1268.47 1152.38 L1248.02 1214.74 L1227.56 1271.38 L1207.1 1308.04 L1186.64 1339.4 L1166.18 1357.77 L1145.72 1369.95 L1125.27 1376.34 L1104.81 1378.8 L1084.35 1377.77 L1063.89 1371.86 L1043.43 1364.79 L1022.98 1357.49 L1002.52 1340.84 L982.059 1318.3 L961.601 1303.79 L941.143 1268.57 L920.685 1237.69 L900.226 1202 L879.768 1140.5 L859.31 1059.97 L838.852 998.027 L818.394 809.88 L797.936 736.691 L777.477 694.472 L757.019 674.77 L736.561 634.001 L716.103 661.447 L695.645 783.86 L675.187 974.013 L654.728 1141.64 L634.27 1214.41 L613.812 1266.65 L593.354 1313.42 L572.896 1345.66 L552.438 1364.5 L531.979 1375.39 L511.521 1385.29 L491.063 1395.09 L470.605 1400.87 L450.147 1403.09 L429.689 1404.01 L409.23 1404.1 L388.772 1397.14 L368.314 1389.75 L347.856 1380.58 L327.398 1373.86 L306.94 1361.15 L286.481 1349.44 L266.023 1337 L245.565 1322.53  Z" fill="#e26f46" fill-rule="evenodd" fill-opacity="0.5"/>
<polyline clip-path="url(#clip511)" style="stroke:#e26f46; stroke-linecap:round; stroke-linejoin:round; stroke-width:12; stroke-opacity:1; fill:none" points="245.565,1322.53 266.023,1344.59 286.481,1364.45 306.94,1378.42 327.398,1387.26 347.856,1396.68 368.314,1404.13 388.772,1411.35 409.23,1415.86 429.689,1418.85 450.147,1419.53 470.605,1421.8 491.063,1419.46 511.521,1420.35 531.979,1417.17 552.438,1411.61 572.896,1404.55 593.354,1387.83 613.812,1364.14 634.27,1319.87 654.728,1272.89 675.187,1179.56 695.645,1051.94 716.103,954.898 736.561,885.332 757.019,804.225 777.477,826.16 797.936,928.351 818.394,997.235 838.852,1088.56 859.31,1140.51 879.768,1192.25 900.226,1246.84 920.685,1293.54 941.143,1325.38 961.601,1344.83 982.059,1366.43 1002.52,1381.76 1022.98,1393.41 1043.43,1401.44 1063.89,1409.74 1084.35,1413.59 1104.81,1418.98 1125.27,1420.88 1145.72,1421.6 1166.18,1424.65 1186.64,1425.71 1207.1,1423.91 1227.56,1423.95 1248.02,1423.95 1268.47,1422.04 1288.93,1417.41 1309.39,1412.61 1329.85,1395.17 1350.31,1369.14 1370.76,1319.37 1391.22,1230.89 1411.68,1127.7 1432.14,1148.24 1452.6,1184.84 1473.05,1094.73 1493.51,1060.32 1513.97,1080.59 1534.43,1051.92 1554.89,1102.94 1575.35,1107.43 1595.8,1174.41 1616.26,1229.64 1636.72,1262.66 1657.18,1294.54 1677.64,1328.72 1698.09,1349.11 1718.55,1368.41 1739.01,1372.58 1759.47,1381.33 1779.93,1392.79 1800.39,1401.34 1820.84,1408.83 1841.3,1413.08 1861.76,1421.09 1882.22,1425.98 1902.68,1426.31 1923.13,1421.63 1943.59,1425.01 1964.05,1428.6 1984.51,1429.8 2004.97,1430.11 2025.43,1427.8 2045.88,1426.02 2066.34,1419.56 2086.8,1412.19 2107.26,1389.4 2127.72,1371.2 2148.17,1381.49 2168.63,1388.82 2189.09,1389.95 2209.55,1381.72 2230.01,1356.07 2250.47,1330.06 2270.92,1350.35 2291.38,1326.53 "/>
</svg>
