<?xml version="1.0" encoding="utf-8"?>
<svg xmlns="http://www.w3.org/2000/svg" xmlns:xlink="http://www.w3.org/1999/xlink" width="600" height="400" viewBox="0 0 2400 1600">
<defs>
  <clipPath id="clip660">
    <rect x="0" y="0" width="2400" height="1600"/>
  </clipPath>
</defs>
<path clip-path="url(#clip660)" d="M0 1600 L2400 1600 L2400 0 L0 0  Z" fill="#ffffff" fill-rule="evenodd" fill-opacity="1"/>
<defs>
  <clipPath id="clip661">
    <rect x="155" y="47" width="2198" height="1440"/>
  </clipPath>
</defs>
<path clip-path="url(#clip660)" d="M155.765 1486.45 L2352.76 1486.45 L2352.76 47.2441 L155.765 47.2441  Z" fill="#ffffff" fill-rule="evenodd" fill-opacity="1"/>
<polyline clip-path="url(#clip661)" style="stroke:#000000; stroke-linecap:round; stroke-linejoin:round; stroke-width:2; stroke-opacity:0.1; fill:none" points="217.944,1486.45 217.944,47.2441 "/>
<polyline clip-path="url(#clip661)" style="stroke:#000000; stroke-linecap:round; stroke-linejoin:round; stroke-width:2; stroke-opacity:0.1; fill:none" points="736.102,1486.45 736.102,47.2441 "/>
<polyline clip-path="url(#clip661)" style="stroke:#000000; stroke-linecap:round; stroke-linejoin:round; stroke-width:2; stroke-opacity:0.1; fill:none" points="1254.26,1486.45 1254.26,47.2441 "/>
<polyline clip-path="url(#clip661)" style="stroke:#000000; stroke-linecap:round; stroke-linejoin:round; stroke-width:2; stroke-opacity:0.1; fill:none" points="1772.42,1486.45 1772.42,47.2441 "/>
<polyline clip-path="url(#clip661)" style="stroke:#000000; stroke-linecap:round; stroke-linejoin:round; stroke-width:2; stroke-opacity:0.1; fill:none" points="2290.58,1486.45 2290.58,47.2441 "/>
<polyline clip-path="url(#clip661)" style="stroke:#000000; stroke-linecap:round; stroke-linejoin:round; stroke-width:2; stroke-opacity:0.1; fill:none" points="155.765,1383.25 2352.76,1383.25 "/>
<polyline clip-path="url(#clip661)" style="stroke:#000000; stroke-linecap:round; stroke-linejoin:round; stroke-width:2; stroke-opacity:0.1; fill:none" points="155.765,1136.77 2352.76,1136.77 "/>
<polyline clip-path="url(#clip661)" style="stroke:#000000; stroke-linecap:round; stroke-linejoin:round; stroke-width:2; stroke-opacity:0.1; fill:none" points="155.765,890.285 2352.76,890.285 "/>
<polyline clip-path="url(#clip661)" style="stroke:#000000; stroke-linecap:round; stroke-linejoin:round; stroke-width:2; stroke-opacity:0.1; fill:none" points="155.765,643.805 2352.76,643.805 "/>
<polyline clip-path="url(#clip661)" style="stroke:#000000; stroke-linecap:round; stroke-linejoin:round; stroke-width:2; stroke-opacity:0.1; fill:none" points="155.765,397.324 2352.76,397.324 "/>
<polyline clip-path="url(#clip661)" style="stroke:#000000; stroke-linecap:round; stroke-linejoin:round; stroke-width:2; stroke-opacity:0.1; fill:none" points="155.765,150.844 2352.76,150.844 "/>
<polyline clip-path="url(#clip660)" style="stroke:#000000; stroke-linecap:round; stroke-linejoin:round; stroke-width:4; stroke-opacity:1; fill:none" points="155.765,1486.45 2352.76,1486.45 "/>
<polyline clip-path="url(#clip660)" style="stroke:#000000; stroke-linecap:round; stroke-linejoin:round; stroke-width:4; stroke-opacity:1; fill:none" points="217.944,1486.45 217.944,1467.55 "/>
<polyline clip-path="url(#clip660)" style="stroke:#000000; stroke-linecap:round; stroke-linejoin:round; stroke-width:4; stroke-opacity:1; fill:none" points="736.102,1486.45 736.102,1467.55 "/>
<polyline clip-path="url(#clip660)" style="stroke:#000000; stroke-linecap:round; stroke-linejoin:round; stroke-width:4; stroke-opacity:1; fill:none" points="1254.26,1486.45 1254.26,1467.55 "/>
<polyline clip-path="url(#clip660)" style="stroke:#000000; stroke-linecap:round; stroke-linejoin:round; stroke-width:4; stroke-opacity:1; fill:none" points="1772.42,1486.45 1772.42,1467.55 "/>
<polyline clip-path="url(#clip660)" style="stroke:#000000; stroke-linecap:round; stroke-linejoin:round; stroke-width:4; stroke-opacity:1; fill:none" points="2290.58,1486.45 2290.58,1467.55 "/>
<path clip-path="url(#clip660)" d="M180.247 1517.37 Q176.636 1517.37 174.808 1520.93 Q173.002 1524.47 173.002 1531.6 Q173.002 1538.71 174.808 1542.27 Q176.636 1545.82 180.247 1545.82 Q183.882 1545.82 185.687 1542.27 Q187.516 1538.71 187.516 1531.6 Q187.516 1524.47 185.687 1520.93 Q183.882 1517.37 180.247 1517.37 M180.247 1513.66 Q186.057 1513.66 189.113 1518.27 Q192.192 1522.85 192.192 1531.6 Q192.192 1540.33 189.113 1544.94 Q186.057 1549.52 180.247 1549.52 Q174.437 1549.52 171.358 1544.94 Q168.303 1540.33 168.303 1531.6 Q168.303 1522.85 171.358 1518.27 Q174.437 1513.66 180.247 1513.66 Z" fill="#000000" fill-rule="nonzero" fill-opacity="1" /><path clip-path="url(#clip660)" d="M200.409 1542.97 L205.294 1542.97 L205.294 1548.85 L200.409 1548.85 L200.409 1542.97 Z" fill="#000000" fill-rule="nonzero" fill-opacity="1" /><path clip-path="url(#clip660)" d="M225.479 1517.37 Q221.867 1517.37 220.039 1520.93 Q218.233 1524.47 218.233 1531.6 Q218.233 1538.71 220.039 1542.27 Q221.867 1545.82 225.479 1545.82 Q229.113 1545.82 230.918 1542.27 Q232.747 1538.71 232.747 1531.6 Q232.747 1524.47 230.918 1520.93 Q229.113 1517.37 225.479 1517.37 M225.479 1513.66 Q231.289 1513.66 234.344 1518.27 Q237.423 1522.85 237.423 1531.6 Q237.423 1540.33 234.344 1544.94 Q231.289 1549.52 225.479 1549.52 Q219.668 1549.52 216.59 1544.94 Q213.534 1540.33 213.534 1531.6 Q213.534 1522.85 216.59 1518.27 Q219.668 1513.66 225.479 1513.66 Z" fill="#000000" fill-rule="nonzero" fill-opacity="1" /><path clip-path="url(#clip660)" d="M255.64 1517.37 Q252.029 1517.37 250.201 1520.93 Q248.395 1524.47 248.395 1531.6 Q248.395 1538.71 250.201 1542.27 Q252.029 1545.82 255.64 1545.82 Q259.275 1545.82 261.08 1542.27 Q262.909 1538.71 262.909 1531.6 Q262.909 1524.47 261.08 1520.93 Q259.275 1517.37 255.64 1517.37 M255.64 1513.66 Q261.451 1513.66 264.506 1518.27 Q267.585 1522.85 267.585 1531.6 Q267.585 1540.33 264.506 1544.94 Q261.451 1549.52 255.64 1549.52 Q249.83 1549.52 246.752 1544.94 Q243.696 1540.33 243.696 1531.6 Q243.696 1522.85 246.752 1518.27 Q249.83 1513.66 255.64 1513.66 Z" fill="#000000" fill-rule="nonzero" fill-opacity="1" /><path clip-path="url(#clip660)" d="M698.903 1517.37 Q695.292 1517.37 693.463 1520.93 Q691.658 1524.47 691.658 1531.6 Q691.658 1538.71 693.463 1542.27 Q695.292 1545.82 698.903 1545.82 Q702.538 1545.82 704.343 1542.27 Q706.172 1538.71 706.172 1531.6 Q706.172 1524.47 704.343 1520.93 Q702.538 1517.37 698.903 1517.37 M698.903 1513.66 Q704.713 1513.66 707.769 1518.27 Q710.848 1522.85 710.848 1531.6 Q710.848 1540.33 707.769 1544.94 Q704.713 1549.52 698.903 1549.52 Q693.093 1549.52 690.014 1544.94 Q686.959 1540.33 686.959 1531.6 Q686.959 1522.85 690.014 1518.27 Q693.093 1513.66 698.903 1513.66 Z" fill="#000000" fill-rule="nonzero" fill-opacity="1" /><path clip-path="url(#clip660)" d="M719.065 1542.97 L723.949 1542.97 L723.949 1548.85 L719.065 1548.85 L719.065 1542.97 Z" fill="#000000" fill-rule="nonzero" fill-opacity="1" /><path clip-path="url(#clip660)" d="M738.162 1544.91 L754.482 1544.91 L754.482 1548.85 L732.537 1548.85 L732.537 1544.91 Q735.199 1542.16 739.783 1537.53 Q744.389 1532.88 745.57 1531.53 Q747.815 1529.01 748.695 1527.27 Q749.597 1525.51 749.597 1523.82 Q749.597 1521.07 747.653 1519.33 Q745.732 1517.6 742.63 1517.6 Q740.431 1517.6 737.977 1518.36 Q735.547 1519.13 732.769 1520.68 L732.769 1515.95 Q735.593 1514.82 738.047 1514.24 Q740.5 1513.66 742.537 1513.66 Q747.908 1513.66 751.102 1516.35 Q754.296 1519.03 754.296 1523.52 Q754.296 1525.65 753.486 1527.57 Q752.699 1529.47 750.593 1532.07 Q750.014 1532.74 746.912 1535.95 Q743.81 1539.15 738.162 1544.91 Z" fill="#000000" fill-rule="nonzero" fill-opacity="1" /><path clip-path="url(#clip660)" d="M764.343 1514.29 L782.699 1514.29 L782.699 1518.22 L768.625 1518.22 L768.625 1526.7 Q769.644 1526.35 770.662 1526.19 Q771.681 1526 772.699 1526 Q778.486 1526 781.866 1529.17 Q785.245 1532.34 785.245 1537.76 Q785.245 1543.34 781.773 1546.44 Q778.301 1549.52 771.982 1549.52 Q769.806 1549.52 767.537 1549.15 Q765.292 1548.78 762.884 1548.04 L762.884 1543.34 Q764.968 1544.47 767.19 1545.03 Q769.412 1545.58 771.889 1545.58 Q775.894 1545.58 778.232 1543.48 Q780.57 1541.37 780.57 1537.76 Q780.57 1534.15 778.232 1532.04 Q775.894 1529.94 771.889 1529.94 Q770.014 1529.94 768.139 1530.35 Q766.287 1530.77 764.343 1531.65 L764.343 1514.29 Z" fill="#000000" fill-rule="nonzero" fill-opacity="1" /><path clip-path="url(#clip660)" d="M1216.56 1517.37 Q1212.95 1517.37 1211.12 1520.93 Q1209.32 1524.47 1209.32 1531.6 Q1209.32 1538.71 1211.12 1542.27 Q1212.95 1545.82 1216.56 1545.82 Q1220.2 1545.82 1222 1542.27 Q1223.83 1538.71 1223.83 1531.6 Q1223.83 1524.47 1222 1520.93 Q1220.2 1517.37 1216.56 1517.37 M1216.56 1513.66 Q1222.37 1513.66 1225.43 1518.27 Q1228.51 1522.85 1228.51 1531.6 Q1228.51 1540.33 1225.43 1544.94 Q1222.37 1549.52 1216.56 1549.52 Q1210.75 1549.52 1207.68 1544.94 Q1204.62 1540.33 1204.62 1531.6 Q1204.62 1522.85 1207.68 1518.27 Q1210.75 1513.66 1216.56 1513.66 Z" fill="#000000" fill-rule="nonzero" fill-opacity="1" /><path clip-path="url(#clip660)" d="M1236.73 1542.97 L1241.61 1542.97 L1241.61 1548.85 L1236.73 1548.85 L1236.73 1542.97 Z" fill="#000000" fill-rule="nonzero" fill-opacity="1" /><path clip-path="url(#clip660)" d="M1251.84 1514.29 L1270.2 1514.29 L1270.2 1518.22 L1256.12 1518.22 L1256.12 1526.7 Q1257.14 1526.35 1258.16 1526.19 Q1259.18 1526 1260.2 1526 Q1265.98 1526 1269.36 1529.17 Q1272.74 1532.34 1272.74 1537.76 Q1272.74 1543.34 1269.27 1546.44 Q1265.8 1549.52 1259.48 1549.52 Q1257.3 1549.52 1255.04 1549.15 Q1252.79 1548.78 1250.38 1548.04 L1250.38 1543.34 Q1252.47 1544.47 1254.69 1545.03 Q1256.91 1545.58 1259.39 1545.58 Q1263.39 1545.58 1265.73 1543.48 Q1268.07 1541.37 1268.07 1537.76 Q1268.07 1534.15 1265.73 1532.04 Q1263.39 1529.94 1259.39 1529.94 Q1257.51 1529.94 1255.64 1530.35 Q1253.79 1530.77 1251.84 1531.65 L1251.84 1514.29 Z" fill="#000000" fill-rule="nonzero" fill-opacity="1" /><path clip-path="url(#clip660)" d="M1291.96 1517.37 Q1288.35 1517.37 1286.52 1520.93 Q1284.71 1524.47 1284.71 1531.6 Q1284.71 1538.71 1286.52 1542.27 Q1288.35 1545.82 1291.96 1545.82 Q1295.59 1545.82 1297.4 1542.27 Q1299.23 1538.71 1299.23 1531.6 Q1299.23 1524.47 1297.4 1520.93 Q1295.59 1517.37 1291.96 1517.37 M1291.96 1513.66 Q1297.77 1513.66 1300.82 1518.27 Q1303.9 1522.85 1303.9 1531.6 Q1303.9 1540.33 1300.82 1544.94 Q1297.77 1549.52 1291.96 1549.52 Q1286.15 1549.52 1283.07 1544.94 Q1280.01 1540.33 1280.01 1531.6 Q1280.01 1522.85 1283.07 1518.27 Q1286.15 1513.66 1291.96 1513.66 Z" fill="#000000" fill-rule="nonzero" fill-opacity="1" /><path clip-path="url(#clip660)" d="M1735.22 1517.37 Q1731.61 1517.37 1729.78 1520.93 Q1727.97 1524.47 1727.97 1531.6 Q1727.97 1538.71 1729.78 1542.27 Q1731.61 1545.82 1735.22 1545.82 Q1738.85 1545.82 1740.66 1542.27 Q1742.49 1538.71 1742.49 1531.6 Q1742.49 1524.47 1740.66 1520.93 Q1738.85 1517.37 1735.22 1517.37 M1735.22 1513.66 Q1741.03 1513.66 1744.09 1518.27 Q1747.16 1522.85 1747.16 1531.6 Q1747.16 1540.33 1744.09 1544.94 Q1741.03 1549.52 1735.22 1549.52 Q1729.41 1549.52 1726.33 1544.94 Q1723.28 1540.33 1723.28 1531.6 Q1723.28 1522.85 1726.33 1518.27 Q1729.41 1513.66 1735.22 1513.66 Z" fill="#000000" fill-rule="nonzero" fill-opacity="1" /><path clip-path="url(#clip660)" d="M1755.38 1542.97 L1760.27 1542.97 L1760.27 1548.85 L1755.38 1548.85 L1755.38 1542.97 Z" fill="#000000" fill-rule="nonzero" fill-opacity="1" /><path clip-path="url(#clip660)" d="M1769.27 1514.29 L1791.49 1514.29 L1791.49 1516.28 L1778.95 1548.85 L1774.06 1548.85 L1785.87 1518.22 L1769.27 1518.22 L1769.27 1514.29 Z" fill="#000000" fill-rule="nonzero" fill-opacity="1" /><path clip-path="url(#clip660)" d="M1800.66 1514.29 L1819.02 1514.29 L1819.02 1518.22 L1804.94 1518.22 L1804.94 1526.7 Q1805.96 1526.35 1806.98 1526.19 Q1808 1526 1809.02 1526 Q1814.8 1526 1818.18 1529.17 Q1821.56 1532.34 1821.56 1537.76 Q1821.56 1543.34 1818.09 1546.44 Q1814.62 1549.52 1808.3 1549.52 Q1806.12 1549.52 1803.85 1549.15 Q1801.61 1548.78 1799.2 1548.04 L1799.2 1543.34 Q1801.28 1544.47 1803.51 1545.03 Q1805.73 1545.58 1808.21 1545.58 Q1812.21 1545.58 1814.55 1543.48 Q1816.89 1541.37 1816.89 1537.76 Q1816.89 1534.15 1814.55 1532.04 Q1812.21 1529.94 1808.21 1529.94 Q1806.33 1529.94 1804.46 1530.35 Q1802.6 1530.77 1800.66 1531.65 L1800.66 1514.29 Z" fill="#000000" fill-rule="nonzero" fill-opacity="1" /><path clip-path="url(#clip660)" d="M2242.65 1544.91 L2250.29 1544.91 L2250.29 1518.55 L2241.98 1520.21 L2241.98 1515.95 L2250.24 1514.29 L2254.92 1514.29 L2254.92 1544.91 L2262.56 1544.91 L2262.56 1548.85 L2242.65 1548.85 L2242.65 1544.91 Z" fill="#000000" fill-rule="nonzero" fill-opacity="1" /><path clip-path="url(#clip660)" d="M2272 1542.97 L2276.88 1542.97 L2276.88 1548.85 L2272 1548.85 L2272 1542.97 Z" fill="#000000" fill-rule="nonzero" fill-opacity="1" /><path clip-path="url(#clip660)" d="M2297.07 1517.37 Q2293.46 1517.37 2291.63 1520.93 Q2289.82 1524.47 2289.82 1531.6 Q2289.82 1538.71 2291.63 1542.27 Q2293.46 1545.82 2297.07 1545.82 Q2300.7 1545.82 2302.51 1542.27 Q2304.34 1538.71 2304.34 1531.6 Q2304.34 1524.47 2302.51 1520.93 Q2300.7 1517.37 2297.07 1517.37 M2297.07 1513.66 Q2302.88 1513.66 2305.94 1518.27 Q2309.01 1522.85 2309.01 1531.6 Q2309.01 1540.33 2305.94 1544.94 Q2302.88 1549.52 2297.07 1549.52 Q2291.26 1549.52 2288.18 1544.94 Q2285.13 1540.33 2285.13 1531.6 Q2285.13 1522.85 2288.18 1518.27 Q2291.26 1513.66 2297.07 1513.66 Z" fill="#000000" fill-rule="nonzero" fill-opacity="1" /><path clip-path="url(#clip660)" d="M2327.23 1517.37 Q2323.62 1517.37 2321.79 1520.93 Q2319.99 1524.47 2319.99 1531.6 Q2319.99 1538.71 2321.79 1542.27 Q2323.62 1545.82 2327.23 1545.82 Q2330.87 1545.82 2332.67 1542.27 Q2334.5 1538.71 2334.5 1531.6 Q2334.5 1524.47 2332.67 1520.93 Q2330.87 1517.37 2327.23 1517.37 M2327.23 1513.66 Q2333.04 1513.66 2336.1 1518.27 Q2339.18 1522.85 2339.18 1531.6 Q2339.18 1540.33 2336.1 1544.94 Q2333.04 1549.52 2327.23 1549.52 Q2321.42 1549.52 2318.34 1544.94 Q2315.29 1540.33 2315.29 1531.6 Q2315.29 1522.85 2318.34 1518.27 Q2321.42 1513.66 2327.23 1513.66 Z" fill="#000000" fill-rule="nonzero" fill-opacity="1" /><polyline clip-path="url(#clip660)" style="stroke:#000000; stroke-linecap:round; stroke-linejoin:round; stroke-width:4; stroke-opacity:1; fill:none" points="155.765,1486.45 155.765,47.2441 "/>
<polyline clip-path="url(#clip660)" style="stroke:#000000; stroke-linecap:round; stroke-linejoin:round; stroke-width:4; stroke-opacity:1; fill:none" points="155.765,1383.25 174.663,1383.25 "/>
<polyline clip-path="url(#clip660)" style="stroke:#000000; stroke-linecap:round; stroke-linejoin:round; stroke-width:4; stroke-opacity:1; fill:none" points="155.765,1136.77 174.663,1136.77 "/>
<polyline clip-path="url(#clip660)" style="stroke:#000000; stroke-linecap:round; stroke-linejoin:round; stroke-width:4; stroke-opacity:1; fill:none" points="155.765,890.285 174.663,890.285 "/>
<polyline clip-path="url(#clip660)" style="stroke:#000000; stroke-linecap:round; stroke-linejoin:round; stroke-width:4; stroke-opacity:1; fill:none" points="155.765,643.805 174.663,643.805 "/>
<polyline clip-path="url(#clip660)" style="stroke:#000000; stroke-linecap:round; stroke-linejoin:round; stroke-width:4; stroke-opacity:1; fill:none" points="155.765,397.324 174.663,397.324 "/>
<polyline clip-path="url(#clip660)" style="stroke:#000000; stroke-linecap:round; stroke-linejoin:round; stroke-width:4; stroke-opacity:1; fill:none" points="155.765,150.844 174.663,150.844 "/>
<path clip-path="url(#clip660)" d="M63.5847 1369.04 Q59.9736 1369.04 58.1449 1372.61 Q56.3393 1376.15 56.3393 1383.28 Q56.3393 1390.39 58.1449 1393.95 Q59.9736 1397.49 63.5847 1397.49 Q67.2189 1397.49 69.0244 1393.95 Q70.8531 1390.39 70.8531 1383.28 Q70.8531 1376.15 69.0244 1372.61 Q67.2189 1369.04 63.5847 1369.04 M63.5847 1365.34 Q69.3948 1365.34 72.4503 1369.95 Q75.529 1374.53 75.529 1383.28 Q75.529 1392.01 72.4503 1396.61 Q69.3948 1401.2 63.5847 1401.2 Q57.7745 1401.2 54.6958 1396.61 Q51.6403 1392.01 51.6403 1383.28 Q51.6403 1374.53 54.6958 1369.95 Q57.7745 1365.34 63.5847 1365.34 Z" fill="#000000" fill-rule="nonzero" fill-opacity="1" /><path clip-path="url(#clip660)" d="M83.7466 1394.65 L88.6308 1394.65 L88.6308 1400.53 L83.7466 1400.53 L83.7466 1394.65 Z" fill="#000000" fill-rule="nonzero" fill-opacity="1" /><path clip-path="url(#clip660)" d="M98.8622 1365.97 L117.219 1365.97 L117.219 1369.9 L103.145 1369.9 L103.145 1378.37 Q104.163 1378.03 105.182 1377.86 Q106.2 1377.68 107.219 1377.68 Q113.006 1377.68 116.385 1380.85 Q119.765 1384.02 119.765 1389.44 Q119.765 1395.02 116.293 1398.12 Q112.82 1401.2 106.501 1401.2 Q104.325 1401.2 102.057 1400.83 Q99.8113 1400.46 97.4039 1399.72 L97.4039 1395.02 Q99.4872 1396.15 101.709 1396.71 Q103.932 1397.26 106.408 1397.26 Q110.413 1397.26 112.751 1395.16 Q115.089 1393.05 115.089 1389.44 Q115.089 1385.83 112.751 1383.72 Q110.413 1381.61 106.408 1381.61 Q104.534 1381.61 102.659 1382.03 Q100.807 1382.45 98.8622 1383.33 L98.8622 1365.97 Z" fill="#000000" fill-rule="nonzero" fill-opacity="1" /><path clip-path="url(#clip660)" d="M53.3995 1150.11 L61.0384 1150.11 L61.0384 1123.74 L52.7282 1125.41 L52.7282 1121.15 L60.9921 1119.49 L65.668 1119.49 L65.668 1150.11 L73.3068 1150.11 L73.3068 1154.05 L53.3995 1154.05 L53.3995 1150.11 Z" fill="#000000" fill-rule="nonzero" fill-opacity="1" /><path clip-path="url(#clip660)" d="M82.7512 1148.17 L87.6354 1148.17 L87.6354 1154.05 L82.7512 1154.05 L82.7512 1148.17 Z" fill="#000000" fill-rule="nonzero" fill-opacity="1" /><path clip-path="url(#clip660)" d="M107.821 1122.56 Q104.209 1122.56 102.381 1126.13 Q100.575 1129.67 100.575 1136.8 Q100.575 1143.91 102.381 1147.47 Q104.209 1151.01 107.821 1151.01 Q111.455 1151.01 113.26 1147.47 Q115.089 1143.91 115.089 1136.8 Q115.089 1129.67 113.26 1126.13 Q111.455 1122.56 107.821 1122.56 M107.821 1118.86 Q113.631 1118.86 116.686 1123.47 Q119.765 1128.05 119.765 1136.8 Q119.765 1145.53 116.686 1150.13 Q113.631 1154.72 107.821 1154.72 Q102.01 1154.72 98.9317 1150.13 Q95.8761 1145.53 95.8761 1136.8 Q95.8761 1128.05 98.9317 1123.47 Q102.01 1118.86 107.821 1118.86 Z" fill="#000000" fill-rule="nonzero" fill-opacity="1" /><path clip-path="url(#clip660)" d="M54.3949 903.63 L62.0337 903.63 L62.0337 877.264 L53.7236 878.931 L53.7236 874.672 L61.9874 873.005 L66.6633 873.005 L66.6633 903.63 L74.3022 903.63 L74.3022 907.565 L54.3949 907.565 L54.3949 903.63 Z" fill="#000000" fill-rule="nonzero" fill-opacity="1" /><path clip-path="url(#clip660)" d="M83.7466 901.686 L88.6308 901.686 L88.6308 907.565 L83.7466 907.565 L83.7466 901.686 Z" fill="#000000" fill-rule="nonzero" fill-opacity="1" /><path clip-path="url(#clip660)" d="M98.8622 873.005 L117.219 873.005 L117.219 876.94 L103.145 876.94 L103.145 885.412 Q104.163 885.065 105.182 884.903 Q106.2 884.718 107.219 884.718 Q113.006 884.718 116.385 887.889 Q119.765 891.061 119.765 896.477 Q119.765 902.056 116.293 905.158 Q112.82 908.236 106.501 908.236 Q104.325 908.236 102.057 907.866 Q99.8113 907.496 97.4039 906.755 L97.4039 902.056 Q99.4872 903.19 101.709 903.746 Q103.932 904.301 106.408 904.301 Q110.413 904.301 112.751 902.195 Q115.089 900.088 115.089 896.477 Q115.089 892.866 112.751 890.76 Q110.413 888.653 106.408 888.653 Q104.534 888.653 102.659 889.07 Q100.807 889.487 98.8622 890.366 L98.8622 873.005 Z" fill="#000000" fill-rule="nonzero" fill-opacity="1" /><path clip-path="url(#clip660)" d="M56.6171 657.15 L72.9365 657.15 L72.9365 661.085 L50.9921 661.085 L50.9921 657.15 Q53.6541 654.395 58.2375 649.765 Q62.8439 645.113 64.0245 643.77 Q66.2698 641.247 67.1494 639.511 Q68.0522 637.752 68.0522 636.062 Q68.0522 633.307 66.1078 631.571 Q64.1865 629.835 61.0847 629.835 Q58.8856 629.835 56.4319 630.599 Q54.0014 631.363 51.2236 632.914 L51.2236 628.191 Q54.0477 627.057 56.5014 626.478 Q58.955 625.9 60.9921 625.9 Q66.3624 625.9 69.5568 628.585 Q72.7513 631.27 72.7513 635.761 Q72.7513 637.89 71.9411 639.812 Q71.1541 641.71 69.0476 644.302 Q68.4689 644.974 65.367 648.191 Q62.2652 651.386 56.6171 657.15 Z" fill="#000000" fill-rule="nonzero" fill-opacity="1" /><path clip-path="url(#clip660)" d="M82.7512 655.205 L87.6354 655.205 L87.6354 661.085 L82.7512 661.085 L82.7512 655.205 Z" fill="#000000" fill-rule="nonzero" fill-opacity="1" /><path clip-path="url(#clip660)" d="M107.821 629.603 Q104.209 629.603 102.381 633.168 Q100.575 636.71 100.575 643.839 Q100.575 650.946 102.381 654.511 Q104.209 658.052 107.821 658.052 Q111.455 658.052 113.26 654.511 Q115.089 650.946 115.089 643.839 Q115.089 636.71 113.26 633.168 Q111.455 629.603 107.821 629.603 M107.821 625.9 Q113.631 625.9 116.686 630.506 Q119.765 635.09 119.765 643.839 Q119.765 652.566 116.686 657.173 Q113.631 661.756 107.821 661.756 Q102.01 661.756 98.9317 657.173 Q95.8761 652.566 95.8761 643.839 Q95.8761 635.09 98.9317 630.506 Q102.01 625.9 107.821 625.9 Z" fill="#000000" fill-rule="nonzero" fill-opacity="1" /><path clip-path="url(#clip660)" d="M57.6125 410.669 L73.9318 410.669 L73.9318 414.604 L51.9875 414.604 L51.9875 410.669 Q54.6495 407.915 59.2328 403.285 Q63.8393 398.632 65.0198 397.29 Q67.2652 394.767 68.1448 393.03 Q69.0476 391.271 69.0476 389.581 Q69.0476 386.827 67.1032 385.091 Q65.1819 383.355 62.08 383.355 Q59.881 383.355 57.4273 384.118 Q54.9967 384.882 52.219 386.433 L52.219 381.711 Q55.043 380.577 57.4967 379.998 Q59.9504 379.419 61.9874 379.419 Q67.3578 379.419 70.5522 382.105 Q73.7466 384.79 73.7466 389.28 Q73.7466 391.41 72.9365 393.331 Q72.1494 395.229 70.0429 397.822 Q69.4642 398.493 66.3624 401.711 Q63.2606 404.905 57.6125 410.669 Z" fill="#000000" fill-rule="nonzero" fill-opacity="1" /><path clip-path="url(#clip660)" d="M83.7466 408.725 L88.6308 408.725 L88.6308 414.604 L83.7466 414.604 L83.7466 408.725 Z" fill="#000000" fill-rule="nonzero" fill-opacity="1" /><path clip-path="url(#clip660)" d="M98.8622 380.044 L117.219 380.044 L117.219 383.98 L103.145 383.98 L103.145 392.452 Q104.163 392.105 105.182 391.942 Q106.2 391.757 107.219 391.757 Q113.006 391.757 116.385 394.929 Q119.765 398.1 119.765 403.516 Q119.765 409.095 116.293 412.197 Q112.82 415.276 106.501 415.276 Q104.325 415.276 102.057 414.905 Q99.8113 414.535 97.4039 413.794 L97.4039 409.095 Q99.4872 410.229 101.709 410.785 Q103.932 411.341 106.408 411.341 Q110.413 411.341 112.751 409.234 Q115.089 407.128 115.089 403.516 Q115.089 399.905 112.751 397.799 Q110.413 395.692 106.408 395.692 Q104.534 395.692 102.659 396.109 Q100.807 396.526 98.8622 397.405 L98.8622 380.044 Z" fill="#000000" fill-rule="nonzero" fill-opacity="1" /><path clip-path="url(#clip660)" d="M66.7559 149.49 Q70.1124 150.207 71.9874 152.476 Q73.8855 154.744 73.8855 158.078 Q73.8855 163.193 70.367 165.994 Q66.8485 168.795 60.3671 168.795 Q58.1912 168.795 55.8764 168.355 Q53.5847 167.939 51.131 167.082 L51.131 162.568 Q53.0754 163.703 55.3903 164.281 Q57.7051 164.86 60.2282 164.86 Q64.6263 164.86 66.918 163.124 Q69.2328 161.388 69.2328 158.078 Q69.2328 155.022 67.08 153.309 Q64.9504 151.573 61.131 151.573 L57.1032 151.573 L57.1032 147.731 L61.3161 147.731 Q64.7652 147.731 66.5939 146.365 Q68.4226 144.976 68.4226 142.383 Q68.4226 139.721 66.5245 138.309 Q64.6495 136.874 61.131 136.874 Q59.2097 136.874 57.0106 137.291 Q54.8115 137.708 52.1727 138.587 L52.1727 134.42 Q54.8347 133.68 57.1495 133.309 Q59.4875 132.939 61.5476 132.939 Q66.8717 132.939 69.9735 135.37 Q73.0753 137.777 73.0753 141.897 Q73.0753 144.768 71.4318 146.758 Q69.7883 148.726 66.7559 149.49 Z" fill="#000000" fill-rule="nonzero" fill-opacity="1" /><path clip-path="url(#clip660)" d="M82.7512 162.244 L87.6354 162.244 L87.6354 168.124 L82.7512 168.124 L82.7512 162.244 Z" fill="#000000" fill-rule="nonzero" fill-opacity="1" /><path clip-path="url(#clip660)" d="M107.821 136.643 Q104.209 136.643 102.381 140.207 Q100.575 143.749 100.575 150.879 Q100.575 157.985 102.381 161.55 Q104.209 165.092 107.821 165.092 Q111.455 165.092 113.26 161.55 Q115.089 157.985 115.089 150.879 Q115.089 143.749 113.26 140.207 Q111.455 136.643 107.821 136.643 M107.821 132.939 Q113.631 132.939 116.686 137.545 Q119.765 142.129 119.765 150.879 Q119.765 159.606 116.686 164.212 Q113.631 168.795 107.821 168.795 Q102.01 168.795 98.9317 164.212 Q95.8761 159.606 95.8761 150.879 Q95.8761 142.129 98.9317 137.545 Q102.01 132.939 107.821 132.939 Z" fill="#000000" fill-rule="nonzero" fill-opacity="1" /><path clip-path="url(#clip661)" d="M217.944 1383.25 L425.207 1408.49 L632.47 1403.17 L839.734 1412.78 L1047 1424.79 L1254.26 1443.24 L1461.52 1425.76 L1668.79 1445.72 L1876.05 1420.74 L2083.31 1379.21 L2290.58 1403.34 L2290.58 87.9763 L2083.31 206.111 L1876.05 421.516 L1668.79 663.05 L1461.52 971.445 L1254.26 1024.07 L1047 1134.58 L839.734 1195.13 L632.47 1226.39 L425.207 1282.24 L217.944 1383.25  Z" fill="#009af9" fill-rule="evenodd" fill-opacity="0.2"/>
<polyline clip-path="url(#clip661)" style="stroke:#009af9; stroke-linecap:round; stroke-linejoin:round; stroke-width:12; stroke-opacity:1; fill:none" points="217.944,1383.25 425.207,1359.8 632.47,1322.61 839.734,1303.22 1047,1314.54 1254.26,1262.13 1461.52,1218.5 1668.79,1128.23 1876.05,1051.69 2083.31,975.09 2290.58,1024.66 "/>
</svg>
