<?xml version="1.0" encoding="utf-8"?>
<svg xmlns="http://www.w3.org/2000/svg" xmlns:xlink="http://www.w3.org/1999/xlink" width="600" height="400" viewBox="0 0 2400 1600">
<defs>
  <clipPath id="clip330">
    <rect x="0" y="0" width="2400" height="1600"/>
  </clipPath>
</defs>
<path clip-path="url(#clip330)" d="M0 1600 L2400 1600 L2400 0 L0 0  Z" fill="#ffffff" fill-rule="evenodd" fill-opacity="1"/>
<defs>
  <clipPath id="clip331">
    <rect x="155" y="47" width="2198" height="1440"/>
  </clipPath>
</defs>
<path clip-path="url(#clip330)" d="M155.765 1486.45 L2352.76 1486.45 L2352.76 47.2441 L155.765 47.2441  Z" fill="#ffffff" fill-rule="evenodd" fill-opacity="1"/>
<polyline clip-path="url(#clip331)" style="stroke:#000000; stroke-linecap:round; stroke-linejoin:round; stroke-width:2; stroke-opacity:0.1; fill:none" points="217.944,1486.45 217.944,47.2441 "/>
<polyline clip-path="url(#clip331)" style="stroke:#000000; stroke-linecap:round; stroke-linejoin:round; stroke-width:2; stroke-opacity:0.1; fill:none" points="736.102,1486.45 736.102,47.2441 "/>
<polyline clip-path="url(#clip331)" style="stroke:#000000; stroke-linecap:round; stroke-linejoin:round; stroke-width:2; stroke-opacity:0.1; fill:none" points="1254.26,1486.45 1254.26,47.2441 "/>
<polyline clip-path="url(#clip331)" style="stroke:#000000; stroke-linecap:round; stroke-linejoin:round; stroke-width:2; stroke-opacity:0.1; fill:none" points="1772.42,1486.45 1772.42,47.2441 "/>
<polyline clip-path="url(#clip331)" style="stroke:#000000; stroke-linecap:round; stroke-linejoin:round; stroke-width:2; stroke-opacity:0.1; fill:none" points="2290.58,1486.45 2290.58,47.2441 "/>
<polyline clip-path="url(#clip331)" style="stroke:#000000; stroke-linecap:round; stroke-linejoin:round; stroke-width:2; stroke-opacity:0.1; fill:none" points="155.765,1363.35 2352.76,1363.35 "/>
<polyline clip-path="url(#clip331)" style="stroke:#000000; stroke-linecap:round; stroke-linejoin:round; stroke-width:2; stroke-opacity:0.1; fill:none" points="155.765,1152.86 2352.76,1152.86 "/>
<polyline clip-path="url(#clip331)" style="stroke:#000000; stroke-linecap:round; stroke-linejoin:round; stroke-width:2; stroke-opacity:0.1; fill:none" points="155.765,942.374 2352.76,942.374 "/>
<polyline clip-path="url(#clip331)" style="stroke:#000000; stroke-linecap:round; stroke-linejoin:round; stroke-width:2; stroke-opacity:0.1; fill:none" points="155.765,731.883 2352.76,731.883 "/>
<polyline clip-path="url(#clip331)" style="stroke:#000000; stroke-linecap:round; stroke-linejoin:round; stroke-width:2; stroke-opacity:0.1; fill:none" points="155.765,521.392 2352.76,521.392 "/>
<polyline clip-path="url(#clip331)" style="stroke:#000000; stroke-linecap:round; stroke-linejoin:round; stroke-width:2; stroke-opacity:0.1; fill:none" points="155.765,310.902 2352.76,310.902 "/>
<polyline clip-path="url(#clip331)" style="stroke:#000000; stroke-linecap:round; stroke-linejoin:round; stroke-width:2; stroke-opacity:0.1; fill:none" points="155.765,100.411 2352.76,100.411 "/>
<polyline clip-path="url(#clip330)" style="stroke:#000000; stroke-linecap:round; stroke-linejoin:round; stroke-width:4; stroke-opacity:1; fill:none" points="155.765,1486.45 2352.76,1486.45 "/>
<polyline clip-path="url(#clip330)" style="stroke:#000000; stroke-linecap:round; stroke-linejoin:round; stroke-width:4; stroke-opacity:1; fill:none" points="217.944,1486.45 217.944,1467.55 "/>
<polyline clip-path="url(#clip330)" style="stroke:#000000; stroke-linecap:round; stroke-linejoin:round; stroke-width:4; stroke-opacity:1; fill:none" points="736.102,1486.45 736.102,1467.55 "/>
<polyline clip-path="url(#clip330)" style="stroke:#000000; stroke-linecap:round; stroke-linejoin:round; stroke-width:4; stroke-opacity:1; fill:none" points="1254.26,1486.45 1254.26,1467.55 "/>
<polyline clip-path="url(#clip330)" style="stroke:#000000; stroke-linecap:round; stroke-linejoin:round; stroke-width:4; stroke-opacity:1; fill:none" points="1772.42,1486.45 1772.42,1467.55 "/>
<polyline clip-path="url(#clip330)" style="stroke:#000000; stroke-linecap:round; stroke-linejoin:round; stroke-width:4; stroke-opacity:1; fill:none" points="2290.58,1486.45 2290.58,1467.55 "/>
<path clip-path="url(#clip330)" d="M180.247 1517.37 Q176.636 1517.37 174.808 1520.93 Q173.002 1524.47 173.002 1531.6 Q173.002 1538.71 174.808 1542.27 Q176.636 1545.82 180.247 1545.82 Q183.882 1545.82 185.687 1542.27 Q187.516 1538.71 187.516 1531.6 Q187.516 1524.47 185.687 1520.93 Q183.882 1517.37 180.247 1517.37 M180.247 1513.66 Q186.057 1513.66 189.113 1518.27 Q192.192 1522.85 192.192 1531.6 Q192.192 1540.33 189.113 1544.94 Q186.057 1549.52 180.247 1549.52 Q174.437 1549.52 171.358 1544.94 Q168.303 1540.33 168.303 1531.6 Q168.303 1522.85 171.358 1518.27 Q174.437 1513.66 180.247 1513.66 Z" fill="#000000" fill-rule="nonzero" fill-opacity="1" /><path clip-path="url(#clip330)" d="M200.409 1542.97 L205.294 1542.97 L205.294 1548.85 L200.409 1548.85 L200.409 1542.97 Z" fill="#000000" fill-rule="nonzero" fill-opacity="1" /><path clip-path="url(#clip330)" d="M225.479 1517.37 Q221.867 1517.37 220.039 1520.93 Q218.233 1524.47 218.233 1531.6 Q218.233 1538.71 220.039 1542.27 Q221.867 1545.82 225.479 1545.82 Q229.113 1545.82 230.918 1542.27 Q232.747 1538.71 232.747 1531.6 Q232.747 1524.47 230.918 1520.93 Q229.113 1517.37 225.479 1517.37 M225.479 1513.66 Q231.289 1513.66 234.344 1518.27 Q237.423 1522.85 237.423 1531.6 Q237.423 1540.33 234.344 1544.94 Q231.289 1549.52 225.479 1549.52 Q219.668 1549.52 216.59 1544.94 Q213.534 1540.33 213.534 1531.6 Q213.534 1522.85 216.59 1518.27 Q219.668 1513.66 225.479 1513.66 Z" fill="#000000" fill-rule="nonzero" fill-opacity="1" /><path clip-path="url(#clip330)" d="M255.64 1517.37 Q252.029 1517.37 250.201 1520.93 Q248.395 1524.47 248.395 1531.6 Q248.395 1538.71 250.201 1542.27 Q252.029 1545.82 255.64 1545.82 Q259.275 1545.82 261.08 1542.27 Q262.909 1538.71 262.909 1531.6 Q262.909 1524.47 261.08 1520.93 Q259.275 1517.37 255.64 1517.37 M255.64 1513.66 Q261.451 1513.66 264.506 1518.27 Q267.585 1522.85 267.585 1531.6 Q267.585 1540.33 264.506 1544.94 Q261.451 1549.52 255.64 1549.52 Q249.83 1549.52 246.752 1544.94 Q243.696 1540.33 243.696 1531.6 Q243.696 1522.85 246.752 1518.27 Q249.83 1513.66 255.64 1513.66 Z" fill="#000000" fill-rule="nonzero" fill-opacity="1" /><path clip-path="url(#clip330)" d="M698.903 1517.37 Q695.292 1517.37 693.463 1520.93 Q691.658 1524.47 691.658 1531.6 Q691.658 1538.71 693.463 1542.27 Q695.292 1545.82 698.903 1545.82 Q702.538 1545.82 704.343 1542.27 Q706.172 1538.71 706.172 1531.6 Q706.172 1524.47 704.343 1520.93 Q702.538 1517.37 698.903 1517.37 M698.903 1513.66 Q704.713 1513.66 707.769 1518.27 Q710.848 1522.85 710.848 1531.6 Q710.848 1540.33 707.769 1544.94 Q704.713 1549.52 698.903 1549.52 Q693.093 1549.52 690.014 1544.94 Q686.959 1540.33 686.959 1531.6 Q686.959 1522.85 690.014 1518.27 Q693.093 1513.66 698.903 1513.66 Z" fill="#000000" fill-rule="nonzero" fill-opacity="1" /><path clip-path="url(#clip330)" d="M719.065 1542.97 L723.949 1542.97 L723.949 1548.85 L719.065 1548.85 L719.065 1542.97 Z" fill="#000000" fill-rule="nonzero" fill-opacity="1" /><path clip-path="url(#clip330)" d="M738.162 1544.91 L754.482 1544.91 L754.482 1548.85 L732.537 1548.85 L732.537 1544.91 Q735.199 1542.16 739.783 1537.53 Q744.389 1532.88 745.57 1531.53 Q747.815 1529.01 748.695 1527.27 Q749.597 1525.51 749.597 1523.82 Q749.597 1521.07 747.653 1519.33 Q745.732 1517.6 742.63 1517.6 Q740.431 1517.6 737.977 1518.36 Q735.547 1519.13 732.769 1520.68 L732.769 1515.95 Q735.593 1514.82 738.047 1514.24 Q740.5 1513.66 742.537 1513.66 Q747.908 1513.66 751.102 1516.35 Q754.296 1519.03 754.296 1523.52 Q754.296 1525.65 753.486 1527.57 Q752.699 1529.47 750.593 1532.07 Q750.014 1532.74 746.912 1535.95 Q743.81 1539.15 738.162 1544.91 Z" fill="#000000" fill-rule="nonzero" fill-opacity="1" /><path clip-path="url(#clip330)" d="M764.343 1514.29 L782.699 1514.29 L782.699 1518.22 L768.625 1518.22 L768.625 1526.7 Q769.644 1526.35 770.662 1526.19 Q771.681 1526 772.699 1526 Q778.486 1526 781.866 1529.17 Q785.245 1532.34 785.245 1537.76 Q785.245 1543.34 781.773 1546.44 Q778.301 1549.52 771.982 1549.52 Q769.806 1549.52 767.537 1549.15 Q765.292 1548.78 762.884 1548.04 L762.884 1543.34 Q764.968 1544.47 767.19 1545.03 Q769.412 1545.58 771.889 1545.58 Q775.894 1545.58 778.232 1543.48 Q780.57 1541.37 780.57 1537.76 Q780.57 1534.15 778.232 1532.04 Q775.894 1529.94 771.889 1529.94 Q770.014 1529.94 768.139 1530.35 Q766.287 1530.77 764.343 1531.65 L764.343 1514.29 Z" fill="#000000" fill-rule="nonzero" fill-opacity="1" /><path clip-path="url(#clip330)" d="M1216.56 1517.37 Q1212.95 1517.37 1211.12 1520.93 Q1209.32 1524.47 1209.32 1531.6 Q1209.32 1538.71 1211.12 1542.27 Q1212.95 1545.82 1216.56 1545.82 Q1220.2 1545.82 1222 1542.27 Q1223.83 1538.71 1223.83 1531.6 Q1223.83 1524.47 1222 1520.93 Q1220.2 1517.37 1216.56 1517.37 M1216.56 1513.66 Q1222.37 1513.66 1225.43 1518.27 Q1228.51 1522.85 1228.51 1531.6 Q1228.51 1540.33 1225.43 1544.94 Q1222.37 1549.52 1216.56 1549.52 Q1210.75 1549.52 1207.68 1544.94 Q1204.62 1540.33 1204.62 1531.6 Q1204.62 1522.85 1207.68 1518.27 Q1210.75 1513.66 1216.56 1513.66 Z" fill="#000000" fill-rule="nonzero" fill-opacity="1" /><path clip-path="url(#clip330)" d="M1236.73 1542.97 L1241.61 1542.97 L1241.61 1548.85 L1236.73 1548.85 L1236.73 1542.97 Z" fill="#000000" fill-rule="nonzero" fill-opacity="1" /><path clip-path="url(#clip330)" d="M1251.84 1514.29 L1270.2 1514.29 L1270.2 1518.22 L1256.12 1518.22 L1256.12 1526.7 Q1257.14 1526.35 1258.16 1526.19 Q1259.18 1526 1260.2 1526 Q1265.98 1526 1269.36 1529.17 Q1272.74 1532.34 1272.74 1537.76 Q1272.74 1543.34 1269.27 1546.44 Q1265.8 1549.52 1259.48 1549.52 Q1257.3 1549.52 1255.04 1549.15 Q1252.79 1548.78 1250.38 1548.04 L1250.38 1543.34 Q1252.47 1544.47 1254.69 1545.03 Q1256.91 1545.58 1259.39 1545.58 Q1263.39 1545.58 1265.73 1543.48 Q1268.07 1541.37 1268.07 1537.76 Q1268.07 1534.15 1265.73 1532.04 Q1263.39 1529.94 1259.39 1529.94 Q1257.51 1529.94 1255.64 1530.35 Q1253.79 1530.77 1251.84 1531.65 L1251.84 1514.29 Z" fill="#000000" fill-rule="nonzero" fill-opacity="1" /><path clip-path="url(#clip330)" d="M1291.96 1517.37 Q1288.35 1517.37 1286.52 1520.93 Q1284.71 1524.47 1284.71 1531.6 Q1284.71 1538.71 1286.52 1542.27 Q1288.35 1545.82 1291.96 1545.82 Q1295.59 1545.82 1297.4 1542.27 Q1299.23 1538.71 1299.23 1531.6 Q1299.23 1524.47 1297.4 1520.93 Q1295.59 1517.37 1291.96 1517.37 M1291.96 1513.66 Q1297.77 1513.66 1300.82 1518.27 Q1303.9 1522.85 1303.9 1531.6 Q1303.9 1540.33 1300.82 1544.94 Q1297.77 1549.52 1291.96 1549.52 Q1286.15 1549.52 1283.07 1544.94 Q1280.01 1540.33 1280.01 1531.6 Q1280.01 1522.85 1283.07 1518.27 Q1286.15 1513.66 1291.96 1513.66 Z" fill="#000000" fill-rule="nonzero" fill-opacity="1" /><path clip-path="url(#clip330)" d="M1735.22 1517.37 Q1731.61 1517.37 1729.78 1520.93 Q1727.97 1524.47 1727.97 1531.6 Q1727.97 1538.71 1729.78 1542.27 Q1731.61 1545.82 1735.22 1545.82 Q1738.85 1545.82 1740.66 1542.27 Q1742.49 1538.71 1742.49 1531.6 Q1742.49 1524.47 1740.66 1520.93 Q1738.85 1517.37 1735.22 1517.37 M1735.22 1513.66 Q1741.03 1513.66 1744.09 1518.27 Q1747.16 1522.85 1747.16 1531.6 Q1747.16 1540.33 1744.09 1544.94 Q1741.03 1549.52 1735.22 1549.52 Q1729.41 1549.52 1726.33 1544.94 Q1723.28 1540.33 1723.28 1531.6 Q1723.28 1522.85 1726.33 1518.27 Q1729.41 1513.66 1735.22 1513.66 Z" fill="#000000" fill-rule="nonzero" fill-opacity="1" /><path clip-path="url(#clip330)" d="M1755.38 1542.97 L1760.27 1542.97 L1760.27 1548.85 L1755.38 1548.85 L1755.38 1542.97 Z" fill="#000000" fill-rule="nonzero" fill-opacity="1" /><path clip-path="url(#clip330)" d="M1769.27 1514.29 L1791.49 1514.29 L1791.49 1516.28 L1778.95 1548.85 L1774.06 1548.85 L1785.87 1518.22 L1769.27 1518.22 L1769.27 1514.29 Z" fill="#000000" fill-rule="nonzero" fill-opacity="1" /><path clip-path="url(#clip330)" d="M1800.66 1514.29 L1819.02 1514.29 L1819.02 1518.22 L1804.94 1518.22 L1804.94 1526.7 Q1805.96 1526.35 1806.98 1526.19 Q1808 1526 1809.02 1526 Q1814.8 1526 1818.18 1529.17 Q1821.56 1532.34 1821.56 1537.76 Q1821.56 1543.34 1818.09 1546.44 Q1814.62 1549.52 1808.3 1549.52 Q1806.12 1549.52 1803.85 1549.15 Q1801.61 1548.78 1799.2 1548.04 L1799.2 1543.34 Q1801.28 1544.47 1803.51 1545.03 Q1805.73 1545.58 1808.21 1545.58 Q1812.21 1545.58 1814.55 1543.48 Q1816.89 1541.37 1816.89 1537.76 Q1816.89 1534.15 1814.55 1532.04 Q1812.21 1529.94 1808.21 1529.94 Q1806.33 1529.94 1804.46 1530.35 Q1802.6 1530.77 1800.66 1531.65 L1800.66 1514.29 Z" fill="#000000" fill-rule="nonzero" fill-opacity="1" /><path clip-path="url(#clip330)" d="M2242.65 1544.91 L2250.29 1544.91 L2250.29 1518.55 L2241.98 1520.21 L2241.98 1515.95 L2250.24 1514.29 L2254.92 1514.29 L2254.92 1544.91 L2262.56 1544.91 L2262.56 1548.85 L2242.65 1548.85 L2242.65 1544.91 Z" fill="#000000" fill-rule="nonzero" fill-opacity="1" /><path clip-path="url(#clip330)" d="M2272 1542.97 L2276.88 1542.97 L2276.88 1548.85 L2272 1548.85 L2272 1542.97 Z" fill="#000000" fill-rule="nonzero" fill-opacity="1" /><path clip-path="url(#clip330)" d="M2297.07 1517.37 Q2293.46 1517.37 2291.63 1520.93 Q2289.82 1524.47 2289.82 1531.6 Q2289.82 1538.71 2291.63 1542.27 Q2293.46 1545.82 2297.07 1545.82 Q2300.7 1545.82 2302.51 1542.27 Q2304.34 1538.71 2304.34 1531.6 Q2304.34 1524.47 2302.51 1520.93 Q2300.7 1517.37 2297.07 1517.37 M2297.07 1513.66 Q2302.88 1513.66 2305.94 1518.27 Q2309.01 1522.85 2309.01 1531.6 Q2309.01 1540.33 2305.94 1544.94 Q2302.88 1549.52 2297.07 1549.52 Q2291.26 1549.52 2288.18 1544.94 Q2285.13 1540.33 2285.13 1531.6 Q2285.13 1522.85 2288.18 1518.27 Q2291.26 1513.66 2297.07 1513.66 Z" fill="#000000" fill-rule="nonzero" fill-opacity="1" /><path clip-path="url(#clip330)" d="M2327.23 1517.37 Q2323.62 1517.37 2321.79 1520.93 Q2319.99 1524.47 2319.99 1531.6 Q2319.99 1538.71 2321.79 1542.27 Q2323.62 1545.82 2327.23 1545.82 Q2330.87 1545.82 2332.67 1542.27 Q2334.5 1538.71 2334.5 1531.6 Q2334.5 1524.47 2332.67 1520.93 Q2330.87 1517.37 2327.23 1517.37 M2327.23 1513.66 Q2333.04 1513.66 2336.1 1518.27 Q2339.18 1522.85 2339.18 1531.6 Q2339.18 1540.33 2336.1 1544.94 Q2333.04 1549.52 2327.23 1549.52 Q2321.42 1549.52 2318.34 1544.94 Q2315.29 1540.33 2315.29 1531.6 Q2315.29 1522.85 2318.34 1518.27 Q2321.42 1513.66 2327.23 1513.66 Z" fill="#000000" fill-rule="nonzero" fill-opacity="1" /><polyline clip-path="url(#clip330)" style="stroke:#000000; stroke-linecap:round; stroke-linejoin:round; stroke-width:4; stroke-opacity:1; fill:none" points="155.765,1486.45 155.765,47.2441 "/>
<polyline clip-path="url(#clip330)" style="stroke:#000000; stroke-linecap:round; stroke-linejoin:round; stroke-width:4; stroke-opacity:1; fill:none" points="155.765,1363.35 174.663,1363.35 "/>
<polyline clip-path="url(#clip330)" style="stroke:#000000; stroke-linecap:round; stroke-linejoin:round; stroke-width:4; stroke-opacity:1; fill:none" points="155.765,1152.86 174.663,1152.86 "/>
<polyline clip-path="url(#clip330)" style="stroke:#000000; stroke-linecap:round; stroke-linejoin:round; stroke-width:4; stroke-opacity:1; fill:none" points="155.765,942.374 174.663,942.374 "/>
<polyline clip-path="url(#clip330)" style="stroke:#000000; stroke-linecap:round; stroke-linejoin:round; stroke-width:4; stroke-opacity:1; fill:none" points="155.765,731.883 174.663,731.883 "/>
<polyline clip-path="url(#clip330)" style="stroke:#000000; stroke-linecap:round; stroke-linejoin:round; stroke-width:4; stroke-opacity:1; fill:none" points="155.765,521.392 174.663,521.392 "/>
<polyline clip-path="url(#clip330)" style="stroke:#000000; stroke-linecap:round; stroke-linejoin:round; stroke-width:4; stroke-opacity:1; fill:none" points="155.765,310.902 174.663,310.902 "/>
<polyline clip-path="url(#clip330)" style="stroke:#000000; stroke-linecap:round; stroke-linejoin:round; stroke-width:4; stroke-opacity:1; fill:none" points="155.765,100.411 174.663,100.411 "/>
<path clip-path="url(#clip330)" d="M63.5847 1349.15 Q59.9736 1349.15 58.1449 1352.72 Q56.3393 1356.26 56.3393 1363.39 Q56.3393 1370.5 58.1449 1374.06 Q59.9736 1377.6 63.5847 1377.6 Q67.2189 1377.6 69.0244 1374.06 Q70.8531 1370.5 70.8531 1363.39 Q70.8531 1356.26 69.0244 1352.72 Q67.2189 1349.15 63.5847 1349.15 M63.5847 1345.45 Q69.3948 1345.45 72.4503 1350.06 Q75.529 1354.64 75.529 1363.39 Q75.529 1372.12 72.4503 1376.72 Q69.3948 1381.31 63.5847 1381.31 Q57.7745 1381.31 54.6958 1376.72 Q51.6403 1372.12 51.6403 1363.39 Q51.6403 1354.64 54.6958 1350.06 Q57.7745 1345.45 63.5847 1345.45 Z" fill="#000000" fill-rule="nonzero" fill-opacity="1" /><path clip-path="url(#clip330)" d="M83.7466 1374.76 L88.6308 1374.76 L88.6308 1380.63 L83.7466 1380.63 L83.7466 1374.76 Z" fill="#000000" fill-rule="nonzero" fill-opacity="1" /><path clip-path="url(#clip330)" d="M98.8622 1346.07 L117.219 1346.07 L117.219 1350.01 L103.145 1350.01 L103.145 1358.48 Q104.163 1358.13 105.182 1357.97 Q106.2 1357.79 107.219 1357.79 Q113.006 1357.79 116.385 1360.96 Q119.765 1364.13 119.765 1369.55 Q119.765 1375.13 116.293 1378.23 Q112.82 1381.31 106.501 1381.31 Q104.325 1381.31 102.057 1380.94 Q99.8113 1380.57 97.4039 1379.82 L97.4039 1375.13 Q99.4872 1376.26 101.709 1376.82 Q103.932 1377.37 106.408 1377.37 Q110.413 1377.37 112.751 1375.26 Q115.089 1373.16 115.089 1369.55 Q115.089 1365.94 112.751 1363.83 Q110.413 1361.72 106.408 1361.72 Q104.534 1361.72 102.659 1362.14 Q100.807 1362.56 98.8622 1363.44 L98.8622 1346.07 Z" fill="#000000" fill-rule="nonzero" fill-opacity="1" /><path clip-path="url(#clip330)" d="M53.3995 1166.21 L61.0384 1166.21 L61.0384 1139.84 L52.7282 1141.51 L52.7282 1137.25 L60.9921 1135.58 L65.668 1135.58 L65.668 1166.21 L73.3068 1166.21 L73.3068 1170.14 L53.3995 1170.14 L53.3995 1166.21 Z" fill="#000000" fill-rule="nonzero" fill-opacity="1" /><path clip-path="url(#clip330)" d="M82.7512 1164.26 L87.6354 1164.26 L87.6354 1170.14 L82.7512 1170.14 L82.7512 1164.26 Z" fill="#000000" fill-rule="nonzero" fill-opacity="1" /><path clip-path="url(#clip330)" d="M107.821 1138.66 Q104.209 1138.66 102.381 1142.23 Q100.575 1145.77 100.575 1152.9 Q100.575 1160.01 102.381 1163.57 Q104.209 1167.11 107.821 1167.11 Q111.455 1167.11 113.26 1163.57 Q115.089 1160.01 115.089 1152.9 Q115.089 1145.77 113.26 1142.23 Q111.455 1138.66 107.821 1138.66 M107.821 1134.96 Q113.631 1134.96 116.686 1139.57 Q119.765 1144.15 119.765 1152.9 Q119.765 1161.63 116.686 1166.23 Q113.631 1170.82 107.821 1170.82 Q102.01 1170.82 98.9317 1166.23 Q95.8761 1161.63 95.8761 1152.9 Q95.8761 1144.15 98.9317 1139.57 Q102.01 1134.96 107.821 1134.96 Z" fill="#000000" fill-rule="nonzero" fill-opacity="1" /><path clip-path="url(#clip330)" d="M54.3949 955.718 L62.0337 955.718 L62.0337 929.353 L53.7236 931.02 L53.7236 926.76 L61.9874 925.094 L66.6633 925.094 L66.6633 955.718 L74.3022 955.718 L74.3022 959.654 L54.3949 959.654 L54.3949 955.718 Z" fill="#000000" fill-rule="nonzero" fill-opacity="1" /><path clip-path="url(#clip330)" d="M83.7466 953.774 L88.6308 953.774 L88.6308 959.654 L83.7466 959.654 L83.7466 953.774 Z" fill="#000000" fill-rule="nonzero" fill-opacity="1" /><path clip-path="url(#clip330)" d="M98.8622 925.094 L117.219 925.094 L117.219 929.029 L103.145 929.029 L103.145 937.501 Q104.163 937.154 105.182 936.992 Q106.2 936.807 107.219 936.807 Q113.006 936.807 116.385 939.978 Q119.765 943.149 119.765 948.566 Q119.765 954.144 116.293 957.246 Q112.82 960.325 106.501 960.325 Q104.325 960.325 102.057 959.955 Q99.8113 959.584 97.4039 958.843 L97.4039 954.144 Q99.4872 955.279 101.709 955.834 Q103.932 956.39 106.408 956.39 Q110.413 956.39 112.751 954.283 Q115.089 952.177 115.089 948.566 Q115.089 944.955 112.751 942.848 Q110.413 940.742 106.408 940.742 Q104.534 940.742 102.659 941.158 Q100.807 941.575 98.8622 942.455 L98.8622 925.094 Z" fill="#000000" fill-rule="nonzero" fill-opacity="1" /><path clip-path="url(#clip330)" d="M56.6171 745.228 L72.9365 745.228 L72.9365 749.163 L50.9921 749.163 L50.9921 745.228 Q53.6541 742.473 58.2375 737.844 Q62.8439 733.191 64.0245 731.848 Q66.2698 729.325 67.1494 727.589 Q68.0522 725.83 68.0522 724.14 Q68.0522 721.385 66.1078 719.649 Q64.1865 717.913 61.0847 717.913 Q58.8856 717.913 56.4319 718.677 Q54.0014 719.441 51.2236 720.992 L51.2236 716.27 Q54.0477 715.135 56.5014 714.557 Q58.955 713.978 60.9921 713.978 Q66.3624 713.978 69.5568 716.663 Q72.7513 719.348 72.7513 723.839 Q72.7513 725.969 71.9411 727.89 Q71.1541 729.788 69.0476 732.381 Q68.4689 733.052 65.367 736.27 Q62.2652 739.464 56.6171 745.228 Z" fill="#000000" fill-rule="nonzero" fill-opacity="1" /><path clip-path="url(#clip330)" d="M82.7512 743.283 L87.6354 743.283 L87.6354 749.163 L82.7512 749.163 L82.7512 743.283 Z" fill="#000000" fill-rule="nonzero" fill-opacity="1" /><path clip-path="url(#clip330)" d="M107.821 717.682 Q104.209 717.682 102.381 721.247 Q100.575 724.788 100.575 731.918 Q100.575 739.024 102.381 742.589 Q104.209 746.131 107.821 746.131 Q111.455 746.131 113.26 742.589 Q115.089 739.024 115.089 731.918 Q115.089 724.788 113.26 721.247 Q111.455 717.682 107.821 717.682 M107.821 713.978 Q113.631 713.978 116.686 718.585 Q119.765 723.168 119.765 731.918 Q119.765 740.645 116.686 745.251 Q113.631 749.834 107.821 749.834 Q102.01 749.834 98.9317 745.251 Q95.8761 740.645 95.8761 731.918 Q95.8761 723.168 98.9317 718.585 Q102.01 713.978 107.821 713.978 Z" fill="#000000" fill-rule="nonzero" fill-opacity="1" /><path clip-path="url(#clip330)" d="M57.6125 534.737 L73.9318 534.737 L73.9318 538.672 L51.9875 538.672 L51.9875 534.737 Q54.6495 531.983 59.2328 527.353 Q63.8393 522.7 65.0198 521.358 Q67.2652 518.835 68.1448 517.099 Q69.0476 515.339 69.0476 513.649 Q69.0476 510.895 67.1032 509.159 Q65.1819 507.423 62.08 507.423 Q59.881 507.423 57.4273 508.187 Q54.9967 508.95 52.219 510.501 L52.219 505.779 Q55.043 504.645 57.4967 504.066 Q59.9504 503.487 61.9874 503.487 Q67.3578 503.487 70.5522 506.173 Q73.7466 508.858 73.7466 513.349 Q73.7466 515.478 72.9365 517.399 Q72.1494 519.298 70.0429 521.89 Q69.4642 522.561 66.3624 525.779 Q63.2606 528.973 57.6125 534.737 Z" fill="#000000" fill-rule="nonzero" fill-opacity="1" /><path clip-path="url(#clip330)" d="M83.7466 532.793 L88.6308 532.793 L88.6308 538.672 L83.7466 538.672 L83.7466 532.793 Z" fill="#000000" fill-rule="nonzero" fill-opacity="1" /><path clip-path="url(#clip330)" d="M98.8622 504.112 L117.219 504.112 L117.219 508.048 L103.145 508.048 L103.145 516.52 Q104.163 516.173 105.182 516.011 Q106.2 515.825 107.219 515.825 Q113.006 515.825 116.385 518.997 Q119.765 522.168 119.765 527.585 Q119.765 533.163 116.293 536.265 Q112.82 539.344 106.501 539.344 Q104.325 539.344 102.057 538.973 Q99.8113 538.603 97.4039 537.862 L97.4039 533.163 Q99.4872 534.298 101.709 534.853 Q103.932 535.409 106.408 535.409 Q110.413 535.409 112.751 533.302 Q115.089 531.196 115.089 527.585 Q115.089 523.973 112.751 521.867 Q110.413 519.761 106.408 519.761 Q104.534 519.761 102.659 520.177 Q100.807 520.594 98.8622 521.474 L98.8622 504.112 Z" fill="#000000" fill-rule="nonzero" fill-opacity="1" /><path clip-path="url(#clip330)" d="M66.7559 309.548 Q70.1124 310.265 71.9874 312.534 Q73.8855 314.802 73.8855 318.136 Q73.8855 323.251 70.367 326.052 Q66.8485 328.853 60.3671 328.853 Q58.1912 328.853 55.8764 328.413 Q53.5847 327.997 51.131 327.14 L51.131 322.626 Q53.0754 323.761 55.3903 324.339 Q57.7051 324.918 60.2282 324.918 Q64.6263 324.918 66.918 323.182 Q69.2328 321.446 69.2328 318.136 Q69.2328 315.08 67.08 313.367 Q64.9504 311.631 61.131 311.631 L57.1032 311.631 L57.1032 307.789 L61.3161 307.789 Q64.7652 307.789 66.5939 306.423 Q68.4226 305.034 68.4226 302.441 Q68.4226 299.779 66.5245 298.367 Q64.6495 296.932 61.131 296.932 Q59.2097 296.932 57.0106 297.349 Q54.8115 297.765 52.1727 298.645 L52.1727 294.478 Q54.8347 293.738 57.1495 293.367 Q59.4875 292.997 61.5476 292.997 Q66.8717 292.997 69.9735 295.427 Q73.0753 297.835 73.0753 301.955 Q73.0753 304.826 71.4318 306.816 Q69.7883 308.784 66.7559 309.548 Z" fill="#000000" fill-rule="nonzero" fill-opacity="1" /><path clip-path="url(#clip330)" d="M82.7512 322.302 L87.6354 322.302 L87.6354 328.182 L82.7512 328.182 L82.7512 322.302 Z" fill="#000000" fill-rule="nonzero" fill-opacity="1" /><path clip-path="url(#clip330)" d="M107.821 296.701 Q104.209 296.701 102.381 300.265 Q100.575 303.807 100.575 310.937 Q100.575 318.043 102.381 321.608 Q104.209 325.15 107.821 325.15 Q111.455 325.15 113.26 321.608 Q115.089 318.043 115.089 310.937 Q115.089 303.807 113.26 300.265 Q111.455 296.701 107.821 296.701 M107.821 292.997 Q113.631 292.997 116.686 297.603 Q119.765 302.187 119.765 310.937 Q119.765 319.663 116.686 324.27 Q113.631 328.853 107.821 328.853 Q102.01 328.853 98.9317 324.27 Q95.8761 319.663 95.8761 310.937 Q95.8761 302.187 98.9317 297.603 Q102.01 292.997 107.821 292.997 Z" fill="#000000" fill-rule="nonzero" fill-opacity="1" /><path clip-path="url(#clip330)" d="M67.7513 99.0572 Q71.1078 99.7748 72.9827 102.043 Q74.8809 104.312 74.8809 107.645 Q74.8809 112.761 71.3624 115.562 Q67.8439 118.363 61.3624 118.363 Q59.1865 118.363 56.8717 117.923 Q54.5801 117.506 52.1264 116.65 L52.1264 112.136 Q54.0708 113.27 56.3856 113.849 Q58.7004 114.427 61.2236 114.427 Q65.6217 114.427 67.9133 112.691 Q70.2281 110.955 70.2281 107.645 Q70.2281 104.59 68.0754 102.877 Q65.9457 101.141 62.1263 101.141 L58.0986 101.141 L58.0986 97.298 L62.3115 97.298 Q65.7606 97.298 67.5893 95.9322 Q69.418 94.5433 69.418 91.9508 Q69.418 89.2887 67.5198 87.8767 Q65.6448 86.4415 62.1263 86.4415 Q60.205 86.4415 58.006 86.8582 Q55.8069 87.2749 53.168 88.1545 L53.168 83.9878 Q55.8301 83.2471 58.1449 82.8767 Q60.4828 82.5064 62.543 82.5064 Q67.867 82.5064 70.9689 84.9369 Q74.0707 87.3443 74.0707 91.4647 Q74.0707 94.335 72.4272 96.3257 Q70.7837 98.2933 67.7513 99.0572 Z" fill="#000000" fill-rule="nonzero" fill-opacity="1" /><path clip-path="url(#clip330)" d="M83.7466 111.812 L88.6308 111.812 L88.6308 117.691 L83.7466 117.691 L83.7466 111.812 Z" fill="#000000" fill-rule="nonzero" fill-opacity="1" /><path clip-path="url(#clip330)" d="M98.8622 83.1314 L117.219 83.1314 L117.219 87.0665 L103.145 87.0665 L103.145 95.5387 Q104.163 95.1915 105.182 95.0294 Q106.2 94.8443 107.219 94.8443 Q113.006 94.8443 116.385 98.0155 Q119.765 101.187 119.765 106.603 Q119.765 112.182 116.293 115.284 Q112.82 118.363 106.501 118.363 Q104.325 118.363 102.057 117.992 Q99.8113 117.622 97.4039 116.881 L97.4039 112.182 Q99.4872 113.316 101.709 113.872 Q103.932 114.427 106.408 114.427 Q110.413 114.427 112.751 112.321 Q115.089 110.215 115.089 106.603 Q115.089 102.992 112.751 100.886 Q110.413 98.7794 106.408 98.7794 Q104.534 98.7794 102.659 99.1961 Q100.807 99.6128 98.8622 100.492 L98.8622 83.1314 Z" fill="#000000" fill-rule="nonzero" fill-opacity="1" /><path clip-path="url(#clip331)" d="M217.944 1363.35 L425.207 1414.97 L632.47 1428.46 L839.734 1431.74 L1047 1428.08 L1254.26 1422.33 L1461.52 1445.72 L1668.79 1410.15 L1876.05 1366.72 L2083.31 1374.77 L2290.58 1423.63 L2290.58 183.336 L2083.31 341.542 L1876.05 87.9763 L1668.79 206.098 L1461.52 663.566 L1254.26 785.684 L1047 991.449 L839.734 1096.68 L632.47 1129.24 L425.207 1201.5 L217.944 1363.35  Z" fill="#009af9" fill-rule="evenodd" fill-opacity="0.2"/>
<polyline clip-path="url(#clip331)" style="stroke:#009af9; stroke-linecap:round; stroke-linejoin:round; stroke-width:12; stroke-opacity:1; fill:none" points="217.944,1363.35 425.207,1313.96 632.47,1301.57 839.734,1282.89 1047,1352.12 1254.26,1329.63 1461.52,1292.03 1668.79,1251.56 1876.05,1280.37 2083.31,1218.38 2290.58,1150.76 "/>
</svg>
