<?xml version="1.0" encoding="utf-8"?>
<svg xmlns="http://www.w3.org/2000/svg" xmlns:xlink="http://www.w3.org/1999/xlink" width="600" height="400" viewBox="0 0 2400 1600">
<defs>
  <clipPath id="clip720">
    <rect x="0" y="0" width="2400" height="1600"/>
  </clipPath>
</defs>
<path clip-path="url(#clip720)" d="M0 1600 L2400 1600 L2400 0 L0 0  Z" fill="#ffffff" fill-rule="evenodd" fill-opacity="1"/>
<defs>
  <clipPath id="clip721">
    <rect x="186" y="47" width="2167" height="1440"/>
  </clipPath>
</defs>
<path clip-path="url(#clip720)" d="M186.274 1486.45 L2352.76 1486.45 L2352.76 47.2441 L186.274 47.2441  Z" fill="#ffffff" fill-rule="evenodd" fill-opacity="1"/>
<polyline clip-path="url(#clip721)" style="stroke:#000000; stroke-linecap:round; stroke-linejoin:round; stroke-width:2; stroke-opacity:0.1; fill:none" points="247.59,1486.45 247.59,47.2441 "/>
<polyline clip-path="url(#clip721)" style="stroke:#000000; stroke-linecap:round; stroke-linejoin:round; stroke-width:2; stroke-opacity:0.1; fill:none" points="758.552,1486.45 758.552,47.2441 "/>
<polyline clip-path="url(#clip721)" style="stroke:#000000; stroke-linecap:round; stroke-linejoin:round; stroke-width:2; stroke-opacity:0.1; fill:none" points="1269.51,1486.45 1269.51,47.2441 "/>
<polyline clip-path="url(#clip721)" style="stroke:#000000; stroke-linecap:round; stroke-linejoin:round; stroke-width:2; stroke-opacity:0.1; fill:none" points="1780.48,1486.45 1780.48,47.2441 "/>
<polyline clip-path="url(#clip721)" style="stroke:#000000; stroke-linecap:round; stroke-linejoin:round; stroke-width:2; stroke-opacity:0.1; fill:none" points="2291.44,1486.45 2291.44,47.2441 "/>
<polyline clip-path="url(#clip721)" style="stroke:#000000; stroke-linecap:round; stroke-linejoin:round; stroke-width:2; stroke-opacity:0.1; fill:none" points="186.274,1357.7 2352.76,1357.7 "/>
<polyline clip-path="url(#clip721)" style="stroke:#000000; stroke-linecap:round; stroke-linejoin:round; stroke-width:2; stroke-opacity:0.1; fill:none" points="186.274,1045.52 2352.76,1045.52 "/>
<polyline clip-path="url(#clip721)" style="stroke:#000000; stroke-linecap:round; stroke-linejoin:round; stroke-width:2; stroke-opacity:0.1; fill:none" points="186.274,733.338 2352.76,733.338 "/>
<polyline clip-path="url(#clip721)" style="stroke:#000000; stroke-linecap:round; stroke-linejoin:round; stroke-width:2; stroke-opacity:0.1; fill:none" points="186.274,421.16 2352.76,421.16 "/>
<polyline clip-path="url(#clip721)" style="stroke:#000000; stroke-linecap:round; stroke-linejoin:round; stroke-width:2; stroke-opacity:0.1; fill:none" points="186.274,108.981 2352.76,108.981 "/>
<polyline clip-path="url(#clip720)" style="stroke:#000000; stroke-linecap:round; stroke-linejoin:round; stroke-width:4; stroke-opacity:1; fill:none" points="186.274,1486.45 2352.76,1486.45 "/>
<polyline clip-path="url(#clip720)" style="stroke:#000000; stroke-linecap:round; stroke-linejoin:round; stroke-width:4; stroke-opacity:1; fill:none" points="247.59,1486.45 247.59,1467.55 "/>
<polyline clip-path="url(#clip720)" style="stroke:#000000; stroke-linecap:round; stroke-linejoin:round; stroke-width:4; stroke-opacity:1; fill:none" points="758.552,1486.45 758.552,1467.55 "/>
<polyline clip-path="url(#clip720)" style="stroke:#000000; stroke-linecap:round; stroke-linejoin:round; stroke-width:4; stroke-opacity:1; fill:none" points="1269.51,1486.45 1269.51,1467.55 "/>
<polyline clip-path="url(#clip720)" style="stroke:#000000; stroke-linecap:round; stroke-linejoin:round; stroke-width:4; stroke-opacity:1; fill:none" points="1780.48,1486.45 1780.48,1467.55 "/>
<polyline clip-path="url(#clip720)" style="stroke:#000000; stroke-linecap:round; stroke-linejoin:round; stroke-width:4; stroke-opacity:1; fill:none" points="2291.44,1486.45 2291.44,1467.55 "/>
<path clip-path="url(#clip720)" d="M209.893 1517.37 Q206.282 1517.37 204.453 1520.93 Q202.648 1524.47 202.648 1531.6 Q202.648 1538.71 204.453 1542.27 Q206.282 1545.82 209.893 1545.82 Q213.527 1545.82 215.333 1542.27 Q217.161 1538.71 217.161 1531.6 Q217.161 1524.47 215.333 1520.93 Q213.527 1517.37 209.893 1517.37 M209.893 1513.66 Q215.703 1513.66 218.759 1518.27 Q221.837 1522.85 221.837 1531.6 Q221.837 1540.33 218.759 1544.94 Q215.703 1549.52 209.893 1549.52 Q204.083 1549.52 201.004 1544.94 Q197.949 1540.33 197.949 1531.6 Q197.949 1522.85 201.004 1518.27 Q204.083 1513.66 209.893 1513.66 Z" fill="#000000" fill-rule="nonzero" fill-opacity="1" /><path clip-path="url(#clip720)" d="M230.055 1542.97 L234.939 1542.97 L234.939 1548.85 L230.055 1548.85 L230.055 1542.97 Z" fill="#000000" fill-rule="nonzero" fill-opacity="1" /><path clip-path="url(#clip720)" d="M255.124 1517.37 Q251.513 1517.37 249.684 1520.93 Q247.879 1524.47 247.879 1531.6 Q247.879 1538.71 249.684 1542.27 Q251.513 1545.82 255.124 1545.82 Q258.758 1545.82 260.564 1542.27 Q262.393 1538.71 262.393 1531.6 Q262.393 1524.47 260.564 1520.93 Q258.758 1517.37 255.124 1517.37 M255.124 1513.66 Q260.934 1513.66 263.99 1518.27 Q267.069 1522.85 267.069 1531.6 Q267.069 1540.33 263.99 1544.94 Q260.934 1549.52 255.124 1549.52 Q249.314 1549.52 246.235 1544.94 Q243.18 1540.33 243.18 1531.6 Q243.18 1522.85 246.235 1518.27 Q249.314 1513.66 255.124 1513.66 Z" fill="#000000" fill-rule="nonzero" fill-opacity="1" /><path clip-path="url(#clip720)" d="M285.286 1517.37 Q281.675 1517.37 279.846 1520.93 Q278.041 1524.47 278.041 1531.6 Q278.041 1538.71 279.846 1542.27 Q281.675 1545.82 285.286 1545.82 Q288.92 1545.82 290.726 1542.27 Q292.555 1538.71 292.555 1531.6 Q292.555 1524.47 290.726 1520.93 Q288.92 1517.37 285.286 1517.37 M285.286 1513.66 Q291.096 1513.66 294.152 1518.27 Q297.23 1522.85 297.23 1531.6 Q297.23 1540.33 294.152 1544.94 Q291.096 1549.52 285.286 1549.52 Q279.476 1549.52 276.397 1544.94 Q273.342 1540.33 273.342 1531.6 Q273.342 1522.85 276.397 1518.27 Q279.476 1513.66 285.286 1513.66 Z" fill="#000000" fill-rule="nonzero" fill-opacity="1" /><path clip-path="url(#clip720)" d="M721.353 1517.37 Q717.742 1517.37 715.914 1520.93 Q714.108 1524.47 714.108 1531.6 Q714.108 1538.71 715.914 1542.27 Q717.742 1545.82 721.353 1545.82 Q724.988 1545.82 726.793 1542.27 Q728.622 1538.71 728.622 1531.6 Q728.622 1524.47 726.793 1520.93 Q724.988 1517.37 721.353 1517.37 M721.353 1513.66 Q727.164 1513.66 730.219 1518.27 Q733.298 1522.85 733.298 1531.6 Q733.298 1540.33 730.219 1544.94 Q727.164 1549.52 721.353 1549.52 Q715.543 1549.52 712.465 1544.94 Q709.409 1540.33 709.409 1531.6 Q709.409 1522.85 712.465 1518.27 Q715.543 1513.66 721.353 1513.66 Z" fill="#000000" fill-rule="nonzero" fill-opacity="1" /><path clip-path="url(#clip720)" d="M741.515 1542.97 L746.4 1542.97 L746.4 1548.85 L741.515 1548.85 L741.515 1542.97 Z" fill="#000000" fill-rule="nonzero" fill-opacity="1" /><path clip-path="url(#clip720)" d="M760.612 1544.91 L776.932 1544.91 L776.932 1548.85 L754.987 1548.85 L754.987 1544.91 Q757.649 1542.16 762.233 1537.53 Q766.839 1532.88 768.02 1531.53 Q770.265 1529.01 771.145 1527.27 Q772.048 1525.51 772.048 1523.82 Q772.048 1521.07 770.103 1519.33 Q768.182 1517.6 765.08 1517.6 Q762.881 1517.6 760.427 1518.36 Q757.997 1519.13 755.219 1520.68 L755.219 1515.95 Q758.043 1514.82 760.497 1514.24 Q762.95 1513.66 764.987 1513.66 Q770.358 1513.66 773.552 1516.35 Q776.747 1519.03 776.747 1523.52 Q776.747 1525.65 775.936 1527.57 Q775.149 1529.47 773.043 1532.07 Q772.464 1532.74 769.362 1535.95 Q766.261 1539.15 760.612 1544.91 Z" fill="#000000" fill-rule="nonzero" fill-opacity="1" /><path clip-path="url(#clip720)" d="M786.793 1514.29 L805.149 1514.29 L805.149 1518.22 L791.075 1518.22 L791.075 1526.7 Q792.094 1526.35 793.112 1526.19 Q794.131 1526 795.149 1526 Q800.936 1526 804.316 1529.17 Q807.695 1532.34 807.695 1537.76 Q807.695 1543.34 804.223 1546.44 Q800.751 1549.52 794.432 1549.52 Q792.256 1549.52 789.987 1549.15 Q787.742 1548.78 785.335 1548.04 L785.335 1543.34 Q787.418 1544.47 789.64 1545.03 Q791.862 1545.58 794.339 1545.58 Q798.344 1545.58 800.682 1543.48 Q803.02 1541.37 803.02 1537.76 Q803.02 1534.15 800.682 1532.04 Q798.344 1529.94 794.339 1529.94 Q792.464 1529.94 790.589 1530.35 Q788.737 1530.77 786.793 1531.65 L786.793 1514.29 Z" fill="#000000" fill-rule="nonzero" fill-opacity="1" /><path clip-path="url(#clip720)" d="M1231.82 1517.37 Q1228.21 1517.37 1226.38 1520.93 Q1224.57 1524.47 1224.57 1531.6 Q1224.57 1538.71 1226.38 1542.27 Q1228.21 1545.82 1231.82 1545.82 Q1235.45 1545.82 1237.26 1542.27 Q1239.09 1538.71 1239.09 1531.6 Q1239.09 1524.47 1237.26 1520.93 Q1235.45 1517.37 1231.82 1517.37 M1231.82 1513.66 Q1237.63 1513.66 1240.68 1518.27 Q1243.76 1522.85 1243.76 1531.6 Q1243.76 1540.33 1240.68 1544.94 Q1237.63 1549.52 1231.82 1549.52 Q1226.01 1549.52 1222.93 1544.94 Q1219.87 1540.33 1219.87 1531.6 Q1219.87 1522.85 1222.93 1518.27 Q1226.01 1513.66 1231.82 1513.66 Z" fill="#000000" fill-rule="nonzero" fill-opacity="1" /><path clip-path="url(#clip720)" d="M1251.98 1542.97 L1256.86 1542.97 L1256.86 1548.85 L1251.98 1548.85 L1251.98 1542.97 Z" fill="#000000" fill-rule="nonzero" fill-opacity="1" /><path clip-path="url(#clip720)" d="M1267.1 1514.29 L1285.45 1514.29 L1285.45 1518.22 L1271.38 1518.22 L1271.38 1526.7 Q1272.4 1526.35 1273.42 1526.19 Q1274.43 1526 1275.45 1526 Q1281.24 1526 1284.62 1529.17 Q1288 1532.34 1288 1537.76 Q1288 1543.34 1284.53 1546.44 Q1281.05 1549.52 1274.73 1549.52 Q1272.56 1549.52 1270.29 1549.15 Q1268.05 1548.78 1265.64 1548.04 L1265.64 1543.34 Q1267.72 1544.47 1269.94 1545.03 Q1272.17 1545.58 1274.64 1545.58 Q1278.65 1545.58 1280.98 1543.48 Q1283.32 1541.37 1283.32 1537.76 Q1283.32 1534.15 1280.98 1532.04 Q1278.65 1529.94 1274.64 1529.94 Q1272.77 1529.94 1270.89 1530.35 Q1269.04 1530.77 1267.1 1531.65 L1267.1 1514.29 Z" fill="#000000" fill-rule="nonzero" fill-opacity="1" /><path clip-path="url(#clip720)" d="M1307.21 1517.37 Q1303.6 1517.37 1301.77 1520.93 Q1299.97 1524.47 1299.97 1531.6 Q1299.97 1538.71 1301.77 1542.27 Q1303.6 1545.82 1307.21 1545.82 Q1310.85 1545.82 1312.65 1542.27 Q1314.48 1538.71 1314.48 1531.6 Q1314.48 1524.47 1312.65 1520.93 Q1310.85 1517.37 1307.21 1517.37 M1307.21 1513.66 Q1313.02 1513.66 1316.08 1518.27 Q1319.16 1522.85 1319.16 1531.6 Q1319.16 1540.33 1316.08 1544.94 Q1313.02 1549.52 1307.21 1549.52 Q1301.4 1549.52 1298.32 1544.94 Q1295.27 1540.33 1295.27 1531.6 Q1295.27 1522.85 1298.32 1518.27 Q1301.4 1513.66 1307.21 1513.66 Z" fill="#000000" fill-rule="nonzero" fill-opacity="1" /><path clip-path="url(#clip720)" d="M1743.28 1517.37 Q1739.67 1517.37 1737.84 1520.93 Q1736.03 1524.47 1736.03 1531.6 Q1736.03 1538.71 1737.84 1542.27 Q1739.67 1545.82 1743.28 1545.82 Q1746.91 1545.82 1748.72 1542.27 Q1750.55 1538.71 1750.55 1531.6 Q1750.55 1524.47 1748.72 1520.93 Q1746.91 1517.37 1743.28 1517.37 M1743.28 1513.66 Q1749.09 1513.66 1752.14 1518.27 Q1755.22 1522.85 1755.22 1531.6 Q1755.22 1540.33 1752.14 1544.94 Q1749.09 1549.52 1743.28 1549.52 Q1737.47 1549.52 1734.39 1544.94 Q1731.33 1540.33 1731.33 1531.6 Q1731.33 1522.85 1734.39 1518.27 Q1737.47 1513.66 1743.28 1513.66 Z" fill="#000000" fill-rule="nonzero" fill-opacity="1" /><path clip-path="url(#clip720)" d="M1763.44 1542.97 L1768.32 1542.97 L1768.32 1548.85 L1763.44 1548.85 L1763.44 1542.97 Z" fill="#000000" fill-rule="nonzero" fill-opacity="1" /><path clip-path="url(#clip720)" d="M1777.33 1514.29 L1799.55 1514.29 L1799.55 1516.28 L1787.01 1548.85 L1782.12 1548.85 L1793.93 1518.22 L1777.33 1518.22 L1777.33 1514.29 Z" fill="#000000" fill-rule="nonzero" fill-opacity="1" /><path clip-path="url(#clip720)" d="M1808.72 1514.29 L1827.07 1514.29 L1827.07 1518.22 L1813 1518.22 L1813 1526.7 Q1814.02 1526.35 1815.04 1526.19 Q1816.06 1526 1817.07 1526 Q1822.86 1526 1826.24 1529.17 Q1829.62 1532.34 1829.62 1537.76 Q1829.62 1543.34 1826.15 1546.44 Q1822.68 1549.52 1816.36 1549.52 Q1814.18 1549.52 1811.91 1549.15 Q1809.67 1548.78 1807.26 1548.04 L1807.26 1543.34 Q1809.34 1544.47 1811.57 1545.03 Q1813.79 1545.58 1816.26 1545.58 Q1820.27 1545.58 1822.61 1543.48 Q1824.95 1541.37 1824.95 1537.76 Q1824.95 1534.15 1822.61 1532.04 Q1820.27 1529.94 1816.26 1529.94 Q1814.39 1529.94 1812.51 1530.35 Q1810.66 1530.77 1808.72 1531.65 L1808.72 1514.29 Z" fill="#000000" fill-rule="nonzero" fill-opacity="1" /><path clip-path="url(#clip720)" d="M2243.51 1544.91 L2251.15 1544.91 L2251.15 1518.55 L2242.84 1520.21 L2242.84 1515.95 L2251.1 1514.29 L2255.78 1514.29 L2255.78 1544.91 L2263.42 1544.91 L2263.42 1548.85 L2243.51 1548.85 L2243.51 1544.91 Z" fill="#000000" fill-rule="nonzero" fill-opacity="1" /><path clip-path="url(#clip720)" d="M2272.86 1542.97 L2277.75 1542.97 L2277.75 1548.85 L2272.86 1548.85 L2272.86 1542.97 Z" fill="#000000" fill-rule="nonzero" fill-opacity="1" /><path clip-path="url(#clip720)" d="M2297.93 1517.37 Q2294.32 1517.37 2292.49 1520.93 Q2290.69 1524.47 2290.69 1531.6 Q2290.69 1538.71 2292.49 1542.27 Q2294.32 1545.82 2297.93 1545.82 Q2301.57 1545.82 2303.37 1542.27 Q2305.2 1538.71 2305.2 1531.6 Q2305.2 1524.47 2303.37 1520.93 Q2301.57 1517.37 2297.93 1517.37 M2297.93 1513.66 Q2303.74 1513.66 2306.8 1518.27 Q2309.88 1522.85 2309.88 1531.6 Q2309.88 1540.33 2306.8 1544.94 Q2303.74 1549.52 2297.93 1549.52 Q2292.12 1549.52 2289.04 1544.94 Q2285.99 1540.33 2285.99 1531.6 Q2285.99 1522.85 2289.04 1518.27 Q2292.12 1513.66 2297.93 1513.66 Z" fill="#000000" fill-rule="nonzero" fill-opacity="1" /><path clip-path="url(#clip720)" d="M2328.1 1517.37 Q2324.48 1517.37 2322.66 1520.93 Q2320.85 1524.47 2320.85 1531.6 Q2320.85 1538.71 2322.66 1542.27 Q2324.48 1545.82 2328.1 1545.82 Q2331.73 1545.82 2333.54 1542.27 Q2335.36 1538.71 2335.36 1531.6 Q2335.36 1524.47 2333.54 1520.93 Q2331.73 1517.37 2328.1 1517.37 M2328.1 1513.66 Q2333.91 1513.66 2336.96 1518.27 Q2340.04 1522.85 2340.04 1531.6 Q2340.04 1540.33 2336.96 1544.94 Q2333.91 1549.52 2328.1 1549.52 Q2322.29 1549.52 2319.21 1544.94 Q2316.15 1540.33 2316.15 1531.6 Q2316.15 1522.85 2319.21 1518.27 Q2322.29 1513.66 2328.1 1513.66 Z" fill="#000000" fill-rule="nonzero" fill-opacity="1" /><polyline clip-path="url(#clip720)" style="stroke:#000000; stroke-linecap:round; stroke-linejoin:round; stroke-width:4; stroke-opacity:1; fill:none" points="186.274,1486.45 186.274,47.2441 "/>
<polyline clip-path="url(#clip720)" style="stroke:#000000; stroke-linecap:round; stroke-linejoin:round; stroke-width:4; stroke-opacity:1; fill:none" points="186.274,1357.7 205.172,1357.7 "/>
<polyline clip-path="url(#clip720)" style="stroke:#000000; stroke-linecap:round; stroke-linejoin:round; stroke-width:4; stroke-opacity:1; fill:none" points="186.274,1045.52 205.172,1045.52 "/>
<polyline clip-path="url(#clip720)" style="stroke:#000000; stroke-linecap:round; stroke-linejoin:round; stroke-width:4; stroke-opacity:1; fill:none" points="186.274,733.338 205.172,733.338 "/>
<polyline clip-path="url(#clip720)" style="stroke:#000000; stroke-linecap:round; stroke-linejoin:round; stroke-width:4; stroke-opacity:1; fill:none" points="186.274,421.16 205.172,421.16 "/>
<polyline clip-path="url(#clip720)" style="stroke:#000000; stroke-linecap:round; stroke-linejoin:round; stroke-width:4; stroke-opacity:1; fill:none" points="186.274,108.981 205.172,108.981 "/>
<path clip-path="url(#clip720)" d="M62.9365 1343.49 Q59.3254 1343.49 57.4967 1347.06 Q55.6912 1350.6 55.6912 1357.73 Q55.6912 1364.84 57.4967 1368.4 Q59.3254 1371.94 62.9365 1371.94 Q66.5707 1371.94 68.3763 1368.4 Q70.205 1364.84 70.205 1357.73 Q70.205 1350.6 68.3763 1347.06 Q66.5707 1343.49 62.9365 1343.49 M62.9365 1339.79 Q68.7467 1339.79 71.8022 1344.4 Q74.8809 1348.98 74.8809 1357.73 Q74.8809 1366.46 71.8022 1371.06 Q68.7467 1375.65 62.9365 1375.65 Q57.1264 1375.65 54.0477 1371.06 Q50.9921 1366.46 50.9921 1357.73 Q50.9921 1348.98 54.0477 1344.4 Q57.1264 1339.79 62.9365 1339.79 Z" fill="#000000" fill-rule="nonzero" fill-opacity="1" /><path clip-path="url(#clip720)" d="M83.0984 1369.1 L87.9827 1369.1 L87.9827 1374.98 L83.0984 1374.98 L83.0984 1369.1 Z" fill="#000000" fill-rule="nonzero" fill-opacity="1" /><path clip-path="url(#clip720)" d="M98.2141 1340.42 L116.57 1340.42 L116.57 1344.35 L102.496 1344.35 L102.496 1352.82 Q103.515 1352.48 104.534 1352.31 Q105.552 1352.13 106.571 1352.13 Q112.358 1352.13 115.737 1355.3 Q119.117 1358.47 119.117 1363.89 Q119.117 1369.47 115.645 1372.57 Q112.172 1375.65 105.853 1375.65 Q103.677 1375.65 101.409 1375.28 Q99.1632 1374.91 96.7558 1374.17 L96.7558 1369.47 Q98.8391 1370.6 101.061 1371.16 Q103.284 1371.71 105.76 1371.71 Q109.765 1371.71 112.103 1369.61 Q114.441 1367.5 114.441 1363.89 Q114.441 1360.28 112.103 1358.17 Q109.765 1356.06 105.76 1356.06 Q103.885 1356.06 102.01 1356.48 Q100.159 1356.9 98.2141 1357.78 L98.2141 1340.42 Z" fill="#000000" fill-rule="nonzero" fill-opacity="1" /><path clip-path="url(#clip720)" d="M138.33 1343.49 Q134.719 1343.49 132.89 1347.06 Q131.084 1350.6 131.084 1357.73 Q131.084 1364.84 132.89 1368.4 Q134.719 1371.94 138.33 1371.94 Q141.964 1371.94 143.769 1368.4 Q145.598 1364.84 145.598 1357.73 Q145.598 1350.6 143.769 1347.06 Q141.964 1343.49 138.33 1343.49 M138.33 1339.79 Q144.14 1339.79 147.195 1344.4 Q150.274 1348.98 150.274 1357.73 Q150.274 1366.46 147.195 1371.06 Q144.14 1375.65 138.33 1375.65 Q132.519 1375.65 129.441 1371.06 Q126.385 1366.46 126.385 1357.73 Q126.385 1348.98 129.441 1344.4 Q132.519 1339.79 138.33 1339.79 Z" fill="#000000" fill-rule="nonzero" fill-opacity="1" /><path clip-path="url(#clip720)" d="M63.9319 1031.32 Q60.3208 1031.32 58.4921 1034.88 Q56.6865 1038.42 56.6865 1045.55 Q56.6865 1052.66 58.4921 1056.22 Q60.3208 1059.76 63.9319 1059.76 Q67.5661 1059.76 69.3717 1056.22 Q71.2004 1052.66 71.2004 1045.55 Q71.2004 1038.42 69.3717 1034.88 Q67.5661 1031.32 63.9319 1031.32 M63.9319 1027.61 Q69.742 1027.61 72.7976 1032.22 Q75.8763 1036.8 75.8763 1045.55 Q75.8763 1054.28 72.7976 1058.89 Q69.742 1063.47 63.9319 1063.47 Q58.1217 1063.47 55.043 1058.89 Q51.9875 1054.28 51.9875 1045.55 Q51.9875 1036.8 55.043 1032.22 Q58.1217 1027.61 63.9319 1027.61 Z" fill="#000000" fill-rule="nonzero" fill-opacity="1" /><path clip-path="url(#clip720)" d="M84.0938 1056.92 L88.978 1056.92 L88.978 1062.8 L84.0938 1062.8 L84.0938 1056.92 Z" fill="#000000" fill-rule="nonzero" fill-opacity="1" /><path clip-path="url(#clip720)" d="M97.9826 1028.24 L120.205 1028.24 L120.205 1030.23 L107.658 1062.8 L102.774 1062.8 L114.58 1032.17 L97.9826 1032.17 L97.9826 1028.24 Z" fill="#000000" fill-rule="nonzero" fill-opacity="1" /><path clip-path="url(#clip720)" d="M129.371 1028.24 L147.728 1028.24 L147.728 1032.17 L133.654 1032.17 L133.654 1040.64 Q134.672 1040.3 135.691 1040.14 Q136.709 1039.95 137.728 1039.95 Q143.515 1039.95 146.894 1043.12 Q150.274 1046.29 150.274 1051.71 Q150.274 1057.29 146.802 1060.39 Q143.33 1063.47 137.01 1063.47 Q134.834 1063.47 132.566 1063.1 Q130.32 1062.73 127.913 1061.99 L127.913 1057.29 Q129.996 1058.42 132.219 1058.98 Q134.441 1059.53 136.918 1059.53 Q140.922 1059.53 143.26 1057.43 Q145.598 1055.32 145.598 1051.71 Q145.598 1048.1 143.26 1045.99 Q140.922 1043.89 136.918 1043.89 Q135.043 1043.89 133.168 1044.3 Q131.316 1044.72 129.371 1045.6 L129.371 1028.24 Z" fill="#000000" fill-rule="nonzero" fill-opacity="1" /><path clip-path="url(#clip720)" d="M53.7467 746.683 L61.3856 746.683 L61.3856 720.318 L53.0754 721.984 L53.0754 717.725 L61.3393 716.058 L66.0152 716.058 L66.0152 746.683 L73.654 746.683 L73.654 750.618 L53.7467 750.618 L53.7467 746.683 Z" fill="#000000" fill-rule="nonzero" fill-opacity="1" /><path clip-path="url(#clip720)" d="M83.0984 744.739 L87.9827 744.739 L87.9827 750.618 L83.0984 750.618 L83.0984 744.739 Z" fill="#000000" fill-rule="nonzero" fill-opacity="1" /><path clip-path="url(#clip720)" d="M108.168 719.137 Q104.557 719.137 102.728 722.702 Q100.922 726.244 100.922 733.373 Q100.922 740.48 102.728 744.044 Q104.557 747.586 108.168 747.586 Q111.802 747.586 113.608 744.044 Q115.436 740.48 115.436 733.373 Q115.436 726.244 113.608 722.702 Q111.802 719.137 108.168 719.137 M108.168 715.433 Q113.978 715.433 117.033 720.04 Q120.112 724.623 120.112 733.373 Q120.112 742.1 117.033 746.706 Q113.978 751.29 108.168 751.29 Q102.358 751.29 99.2789 746.706 Q96.2234 742.1 96.2234 733.373 Q96.2234 724.623 99.2789 720.04 Q102.358 715.433 108.168 715.433 Z" fill="#000000" fill-rule="nonzero" fill-opacity="1" /><path clip-path="url(#clip720)" d="M138.33 719.137 Q134.719 719.137 132.89 722.702 Q131.084 726.244 131.084 733.373 Q131.084 740.48 132.89 744.044 Q134.719 747.586 138.33 747.586 Q141.964 747.586 143.769 744.044 Q145.598 740.48 145.598 733.373 Q145.598 726.244 143.769 722.702 Q141.964 719.137 138.33 719.137 M138.33 715.433 Q144.14 715.433 147.195 720.04 Q150.274 724.623 150.274 733.373 Q150.274 742.1 147.195 746.706 Q144.14 751.29 138.33 751.29 Q132.519 751.29 129.441 746.706 Q126.385 742.1 126.385 733.373 Q126.385 724.623 129.441 720.04 Q132.519 715.433 138.33 715.433 Z" fill="#000000" fill-rule="nonzero" fill-opacity="1" /><path clip-path="url(#clip720)" d="M54.7421 434.505 L62.381 434.505 L62.381 408.139 L54.0708 409.806 L54.0708 405.546 L62.3347 403.88 L67.0106 403.88 L67.0106 434.505 L74.6494 434.505 L74.6494 438.44 L54.7421 438.44 L54.7421 434.505 Z" fill="#000000" fill-rule="nonzero" fill-opacity="1" /><path clip-path="url(#clip720)" d="M84.0938 432.56 L88.978 432.56 L88.978 438.44 L84.0938 438.44 L84.0938 432.56 Z" fill="#000000" fill-rule="nonzero" fill-opacity="1" /><path clip-path="url(#clip720)" d="M103.191 434.505 L119.51 434.505 L119.51 438.44 L97.566 438.44 L97.566 434.505 Q100.228 431.75 104.811 427.12 Q109.418 422.468 110.598 421.125 Q112.844 418.602 113.723 416.866 Q114.626 415.107 114.626 413.417 Q114.626 410.662 112.682 408.926 Q110.76 407.19 107.658 407.19 Q105.459 407.19 103.006 407.954 Q100.575 408.718 97.7974 410.269 L97.7974 405.546 Q100.621 404.412 103.075 403.833 Q105.529 403.255 107.566 403.255 Q112.936 403.255 116.131 405.94 Q119.325 408.625 119.325 413.116 Q119.325 415.245 118.515 417.167 Q117.728 419.065 115.621 421.657 Q115.043 422.329 111.941 425.546 Q108.839 428.741 103.191 434.505 Z" fill="#000000" fill-rule="nonzero" fill-opacity="1" /><path clip-path="url(#clip720)" d="M129.371 403.88 L147.728 403.88 L147.728 407.815 L133.654 407.815 L133.654 416.287 Q134.672 415.94 135.691 415.778 Q136.709 415.593 137.728 415.593 Q143.515 415.593 146.894 418.764 Q150.274 421.935 150.274 427.352 Q150.274 432.931 146.802 436.032 Q143.33 439.111 137.01 439.111 Q134.834 439.111 132.566 438.741 Q130.32 438.37 127.913 437.63 L127.913 432.931 Q129.996 434.065 132.219 434.62 Q134.441 435.176 136.918 435.176 Q140.922 435.176 143.26 433.069 Q145.598 430.963 145.598 427.352 Q145.598 423.741 143.26 421.634 Q140.922 419.528 136.918 419.528 Q135.043 419.528 133.168 419.944 Q131.316 420.361 129.371 421.241 L129.371 403.88 Z" fill="#000000" fill-rule="nonzero" fill-opacity="1" /><path clip-path="url(#clip720)" d="M53.7467 122.326 L61.3856 122.326 L61.3856 95.9604 L53.0754 97.627 L53.0754 93.3678 L61.3393 91.7011 L66.0152 91.7011 L66.0152 122.326 L73.654 122.326 L73.654 126.261 L53.7467 126.261 L53.7467 122.326 Z" fill="#000000" fill-rule="nonzero" fill-opacity="1" /><path clip-path="url(#clip720)" d="M83.0984 120.382 L87.9827 120.382 L87.9827 126.261 L83.0984 126.261 L83.0984 120.382 Z" fill="#000000" fill-rule="nonzero" fill-opacity="1" /><path clip-path="url(#clip720)" d="M98.2141 91.7011 L116.57 91.7011 L116.57 95.6363 L102.496 95.6363 L102.496 104.108 Q103.515 103.761 104.534 103.599 Q105.552 103.414 106.571 103.414 Q112.358 103.414 115.737 106.585 Q119.117 109.757 119.117 115.173 Q119.117 120.752 115.645 123.854 Q112.172 126.932 105.853 126.932 Q103.677 126.932 101.409 126.562 Q99.1632 126.192 96.7558 125.451 L96.7558 120.752 Q98.8391 121.886 101.061 122.442 Q103.284 122.997 105.76 122.997 Q109.765 122.997 112.103 120.891 Q114.441 118.784 114.441 115.173 Q114.441 111.562 112.103 109.456 Q109.765 107.349 105.76 107.349 Q103.885 107.349 102.01 107.766 Q100.159 108.183 98.2141 109.062 L98.2141 91.7011 Z" fill="#000000" fill-rule="nonzero" fill-opacity="1" /><path clip-path="url(#clip720)" d="M138.33 94.7798 Q134.719 94.7798 132.89 98.3446 Q131.084 101.886 131.084 109.016 Q131.084 116.122 132.89 119.687 Q134.719 123.229 138.33 123.229 Q141.964 123.229 143.769 119.687 Q145.598 116.122 145.598 109.016 Q145.598 101.886 143.769 98.3446 Q141.964 94.7798 138.33 94.7798 M138.33 91.0761 Q144.14 91.0761 147.195 95.6826 Q150.274 100.266 150.274 109.016 Q150.274 117.743 147.195 122.349 Q144.14 126.932 138.33 126.932 Q132.519 126.932 129.441 122.349 Q126.385 117.743 126.385 109.016 Q126.385 100.266 129.441 95.6826 Q132.519 91.0761 138.33 91.0761 Z" fill="#000000" fill-rule="nonzero" fill-opacity="1" /><polyline clip-path="url(#clip721)" style="stroke:#009af9; stroke-linecap:round; stroke-linejoin:round; stroke-width:12; stroke-opacity:1; fill:none" points="247.59,1357.7 451.975,1265.17 656.36,1206.05 860.745,1118.13 1065.13,956.164 1269.51,772.922 1473.9,642.556 1678.29,460.258 1882.67,257.723 2087.06,370.346 2291.44,397.606 "/>
<polyline clip-path="url(#clip721)" style="stroke:#e26f46; stroke-linecap:round; stroke-linejoin:round; stroke-width:12; stroke-opacity:1; fill:none" points="247.59,1357.7 451.975,1314.62 656.36,1253.28 860.745,1182.23 1065.13,979.616 1269.51,906.492 1473.9,626.728 1678.29,500.759 1882.67,540.185 2087.06,176.22 2291.44,87.9763 "/>
<polyline clip-path="url(#clip721)" style="stroke:#3da44d; stroke-linecap:round; stroke-linejoin:round; stroke-width:12; stroke-opacity:1; fill:none" points="247.59,1357.7 451.975,1298.3 656.36,1204.09 860.745,1154.99 1065.13,1183.66 1269.51,1050.9 1473.9,940.381 1678.29,711.706 1882.67,517.843 2087.06,323.8 2291.44,449.362 "/>
<polyline clip-path="url(#clip721)" style="stroke:#c271d2; stroke-linecap:round; stroke-linejoin:round; stroke-width:12; stroke-opacity:1; fill:none" points="247.59,1357.7 451.975,1380.19 656.36,1378.07 860.745,1383.13 1065.13,1344.07 1269.51,1338.56 1473.9,1202.81 1678.29,1179.23 1882.67,1215.42 2087.06,1227.16 2291.44,1205.93 "/>
<polyline clip-path="url(#clip721)" style="stroke:#ac8d18; stroke-linecap:round; stroke-linejoin:round; stroke-width:12; stroke-opacity:1; fill:none" points="247.59,1357.7 451.975,1304.06 656.36,1284.02 860.745,1102.03 1065.13,991.71 1269.51,917.007 1473.9,842.378 1678.29,744.683 1882.67,700.381 2087.06,840.49 2291.44,709.009 "/>
<polyline clip-path="url(#clip721)" style="stroke:#00a9ad; stroke-linecap:round; stroke-linejoin:round; stroke-width:12; stroke-opacity:1; fill:none" points="247.59,1357.7 451.975,1257.35 656.36,1138.45 860.745,1038.46 1065.13,997.41 1269.51,1117.17 1473.9,1073.7 1678.29,961.929 1882.67,903.874 2087.06,657.536 2291.44,746.773 "/>
<polyline clip-path="url(#clip721)" style="stroke:#ed5d92; stroke-linecap:round; stroke-linejoin:round; stroke-width:12; stroke-opacity:1; fill:none" points="247.59,1357.7 451.975,1399.67 656.36,1350.68 860.745,1431.13 1065.13,1445.72 1269.51,1371.61 1473.9,1329.31 1678.29,1377.02 1882.67,1397.56 2087.06,1319.25 2291.44,1230.65 "/>
<polyline clip-path="url(#clip721)" style="stroke:#c68125; stroke-linecap:round; stroke-linejoin:round; stroke-width:12; stroke-opacity:1; fill:none" points="247.59,1357.7 451.975,1210.52 656.36,1316.58 860.745,1208.96 1065.13,1037.3 1269.51,883.206 1473.9,947.754 1678.29,721.056 1882.67,341.554 2087.06,449.213 2291.44,599.817 "/>
</svg>
