<?xml version="1.0" encoding="utf-8"?>
<svg xmlns="http://www.w3.org/2000/svg" xmlns:xlink="http://www.w3.org/1999/xlink" width="600" height="400" viewBox="0 0 2400 1600">
<defs>
  <clipPath id="clip690">
    <rect x="0" y="0" width="2400" height="1600"/>
  </clipPath>
</defs>
<path clip-path="url(#clip690)" d="M0 1600 L2400 1600 L2400 0 L0 0  Z" fill="#ffffff" fill-rule="evenodd" fill-opacity="1"/>
<defs>
  <clipPath id="clip691">
    <rect x="112" y="47" width="2242" height="1440"/>
  </clipPath>
</defs>
<path clip-path="url(#clip690)" d="M112.177 1486.45 L2352.76 1486.45 L2352.76 47.2441 L112.177 47.2441  Z" fill="#ffffff" fill-rule="evenodd" fill-opacity="1"/>
<polyline clip-path="url(#clip691)" style="stroke:#000000; stroke-linecap:round; stroke-linejoin:round; stroke-width:2; stroke-opacity:0.1; fill:none" points="175.59,1486.45 175.59,47.2441 "/>
<polyline clip-path="url(#clip691)" style="stroke:#000000; stroke-linecap:round; stroke-linejoin:round; stroke-width:2; stroke-opacity:0.1; fill:none" points="704.028,1486.45 704.028,47.2441 "/>
<polyline clip-path="url(#clip691)" style="stroke:#000000; stroke-linecap:round; stroke-linejoin:round; stroke-width:2; stroke-opacity:0.1; fill:none" points="1232.47,1486.45 1232.47,47.2441 "/>
<polyline clip-path="url(#clip691)" style="stroke:#000000; stroke-linecap:round; stroke-linejoin:round; stroke-width:2; stroke-opacity:0.1; fill:none" points="1760.9,1486.45 1760.9,47.2441 "/>
<polyline clip-path="url(#clip691)" style="stroke:#000000; stroke-linecap:round; stroke-linejoin:round; stroke-width:2; stroke-opacity:0.1; fill:none" points="2289.34,1486.45 2289.34,47.2441 "/>
<polyline clip-path="url(#clip691)" style="stroke:#000000; stroke-linecap:round; stroke-linejoin:round; stroke-width:2; stroke-opacity:0.1; fill:none" points="112.177,1216.61 2352.76,1216.61 "/>
<polyline clip-path="url(#clip691)" style="stroke:#000000; stroke-linecap:round; stroke-linejoin:round; stroke-width:2; stroke-opacity:0.1; fill:none" points="112.177,928.884 2352.76,928.884 "/>
<polyline clip-path="url(#clip691)" style="stroke:#000000; stroke-linecap:round; stroke-linejoin:round; stroke-width:2; stroke-opacity:0.1; fill:none" points="112.177,641.161 2352.76,641.161 "/>
<polyline clip-path="url(#clip691)" style="stroke:#000000; stroke-linecap:round; stroke-linejoin:round; stroke-width:2; stroke-opacity:0.1; fill:none" points="112.177,353.438 2352.76,353.438 "/>
<polyline clip-path="url(#clip691)" style="stroke:#000000; stroke-linecap:round; stroke-linejoin:round; stroke-width:2; stroke-opacity:0.1; fill:none" points="112.177,65.7143 2352.76,65.7143 "/>
<polyline clip-path="url(#clip690)" style="stroke:#000000; stroke-linecap:round; stroke-linejoin:round; stroke-width:4; stroke-opacity:1; fill:none" points="112.177,1486.45 2352.76,1486.45 "/>
<polyline clip-path="url(#clip690)" style="stroke:#000000; stroke-linecap:round; stroke-linejoin:round; stroke-width:4; stroke-opacity:1; fill:none" points="175.59,1486.45 175.59,1467.55 "/>
<polyline clip-path="url(#clip690)" style="stroke:#000000; stroke-linecap:round; stroke-linejoin:round; stroke-width:4; stroke-opacity:1; fill:none" points="704.028,1486.45 704.028,1467.55 "/>
<polyline clip-path="url(#clip690)" style="stroke:#000000; stroke-linecap:round; stroke-linejoin:round; stroke-width:4; stroke-opacity:1; fill:none" points="1232.47,1486.45 1232.47,1467.55 "/>
<polyline clip-path="url(#clip690)" style="stroke:#000000; stroke-linecap:round; stroke-linejoin:round; stroke-width:4; stroke-opacity:1; fill:none" points="1760.9,1486.45 1760.9,1467.55 "/>
<polyline clip-path="url(#clip690)" style="stroke:#000000; stroke-linecap:round; stroke-linejoin:round; stroke-width:4; stroke-opacity:1; fill:none" points="2289.34,1486.45 2289.34,1467.55 "/>
<path clip-path="url(#clip690)" d="M137.893 1517.37 Q134.282 1517.37 132.453 1520.93 Q130.648 1524.47 130.648 1531.6 Q130.648 1538.71 132.453 1542.27 Q134.282 1545.82 137.893 1545.82 Q141.527 1545.82 143.333 1542.27 Q145.162 1538.71 145.162 1531.6 Q145.162 1524.47 143.333 1520.93 Q141.527 1517.37 137.893 1517.37 M137.893 1513.66 Q143.703 1513.66 146.759 1518.27 Q149.838 1522.85 149.838 1531.6 Q149.838 1540.33 146.759 1544.94 Q143.703 1549.52 137.893 1549.52 Q132.083 1549.52 129.004 1544.94 Q125.949 1540.33 125.949 1531.6 Q125.949 1522.85 129.004 1518.27 Q132.083 1513.66 137.893 1513.66 Z" fill="#000000" fill-rule="nonzero" fill-opacity="1" /><path clip-path="url(#clip690)" d="M158.055 1542.97 L162.939 1542.97 L162.939 1548.85 L158.055 1548.85 L158.055 1542.97 Z" fill="#000000" fill-rule="nonzero" fill-opacity="1" /><path clip-path="url(#clip690)" d="M183.124 1517.37 Q179.513 1517.37 177.685 1520.93 Q175.879 1524.47 175.879 1531.6 Q175.879 1538.71 177.685 1542.27 Q179.513 1545.82 183.124 1545.82 Q186.759 1545.82 188.564 1542.27 Q190.393 1538.71 190.393 1531.6 Q190.393 1524.47 188.564 1520.93 Q186.759 1517.37 183.124 1517.37 M183.124 1513.66 Q188.935 1513.66 191.99 1518.27 Q195.069 1522.85 195.069 1531.6 Q195.069 1540.33 191.99 1544.94 Q188.935 1549.52 183.124 1549.52 Q177.314 1549.52 174.236 1544.94 Q171.18 1540.33 171.18 1531.6 Q171.18 1522.85 174.236 1518.27 Q177.314 1513.66 183.124 1513.66 Z" fill="#000000" fill-rule="nonzero" fill-opacity="1" /><path clip-path="url(#clip690)" d="M213.286 1517.37 Q209.675 1517.37 207.847 1520.93 Q206.041 1524.47 206.041 1531.6 Q206.041 1538.71 207.847 1542.27 Q209.675 1545.82 213.286 1545.82 Q216.921 1545.82 218.726 1542.27 Q220.555 1538.71 220.555 1531.6 Q220.555 1524.47 218.726 1520.93 Q216.921 1517.37 213.286 1517.37 M213.286 1513.66 Q219.096 1513.66 222.152 1518.27 Q225.231 1522.85 225.231 1531.6 Q225.231 1540.33 222.152 1544.94 Q219.096 1549.52 213.286 1549.52 Q207.476 1549.52 204.397 1544.94 Q201.342 1540.33 201.342 1531.6 Q201.342 1522.85 204.397 1518.27 Q207.476 1513.66 213.286 1513.66 Z" fill="#000000" fill-rule="nonzero" fill-opacity="1" /><path clip-path="url(#clip690)" d="M666.829 1517.37 Q663.218 1517.37 661.39 1520.93 Q659.584 1524.47 659.584 1531.6 Q659.584 1538.71 661.39 1542.27 Q663.218 1545.82 666.829 1545.82 Q670.464 1545.82 672.269 1542.27 Q674.098 1538.71 674.098 1531.6 Q674.098 1524.47 672.269 1520.93 Q670.464 1517.37 666.829 1517.37 M666.829 1513.66 Q672.639 1513.66 675.695 1518.27 Q678.774 1522.85 678.774 1531.6 Q678.774 1540.33 675.695 1544.94 Q672.639 1549.52 666.829 1549.52 Q661.019 1549.52 657.94 1544.94 Q654.885 1540.33 654.885 1531.6 Q654.885 1522.85 657.94 1518.27 Q661.019 1513.66 666.829 1513.66 Z" fill="#000000" fill-rule="nonzero" fill-opacity="1" /><path clip-path="url(#clip690)" d="M686.991 1542.97 L691.875 1542.97 L691.875 1548.85 L686.991 1548.85 L686.991 1542.97 Z" fill="#000000" fill-rule="nonzero" fill-opacity="1" /><path clip-path="url(#clip690)" d="M706.088 1544.91 L722.408 1544.91 L722.408 1548.85 L700.463 1548.85 L700.463 1544.91 Q703.125 1542.16 707.709 1537.53 Q712.315 1532.88 713.496 1531.53 Q715.741 1529.01 716.621 1527.27 Q717.523 1525.51 717.523 1523.82 Q717.523 1521.07 715.579 1519.33 Q713.658 1517.6 710.556 1517.6 Q708.357 1517.6 705.903 1518.36 Q703.473 1519.13 700.695 1520.68 L700.695 1515.95 Q703.519 1514.82 705.973 1514.24 Q708.426 1513.66 710.463 1513.66 Q715.834 1513.66 719.028 1516.35 Q722.223 1519.03 722.223 1523.52 Q722.223 1525.65 721.412 1527.57 Q720.625 1529.47 718.519 1532.07 Q717.94 1532.74 714.838 1535.95 Q711.736 1539.15 706.088 1544.91 Z" fill="#000000" fill-rule="nonzero" fill-opacity="1" /><path clip-path="url(#clip690)" d="M732.269 1514.29 L750.625 1514.29 L750.625 1518.22 L736.551 1518.22 L736.551 1526.7 Q737.57 1526.35 738.588 1526.19 Q739.607 1526 740.625 1526 Q746.412 1526 749.792 1529.17 Q753.171 1532.34 753.171 1537.76 Q753.171 1543.34 749.699 1546.44 Q746.227 1549.52 739.908 1549.52 Q737.732 1549.52 735.463 1549.15 Q733.218 1548.78 730.81 1548.04 L730.81 1543.34 Q732.894 1544.47 735.116 1545.03 Q737.338 1545.58 739.815 1545.58 Q743.82 1545.58 746.158 1543.48 Q748.496 1541.37 748.496 1537.76 Q748.496 1534.15 746.158 1532.04 Q743.82 1529.94 739.815 1529.94 Q737.94 1529.94 736.065 1530.35 Q734.213 1530.77 732.269 1531.65 L732.269 1514.29 Z" fill="#000000" fill-rule="nonzero" fill-opacity="1" /><path clip-path="url(#clip690)" d="M1194.77 1517.37 Q1191.16 1517.37 1189.33 1520.93 Q1187.52 1524.47 1187.52 1531.6 Q1187.52 1538.71 1189.33 1542.27 Q1191.16 1545.82 1194.77 1545.82 Q1198.4 1545.82 1200.21 1542.27 Q1202.04 1538.71 1202.04 1531.6 Q1202.04 1524.47 1200.21 1520.93 Q1198.4 1517.37 1194.77 1517.37 M1194.77 1513.66 Q1200.58 1513.66 1203.64 1518.27 Q1206.71 1522.85 1206.71 1531.6 Q1206.71 1540.33 1203.64 1544.94 Q1200.58 1549.52 1194.77 1549.52 Q1188.96 1549.52 1185.88 1544.94 Q1182.83 1540.33 1182.83 1531.6 Q1182.83 1522.85 1185.88 1518.27 Q1188.96 1513.66 1194.77 1513.66 Z" fill="#000000" fill-rule="nonzero" fill-opacity="1" /><path clip-path="url(#clip690)" d="M1214.93 1542.97 L1219.82 1542.97 L1219.82 1548.85 L1214.93 1548.85 L1214.93 1542.97 Z" fill="#000000" fill-rule="nonzero" fill-opacity="1" /><path clip-path="url(#clip690)" d="M1230.05 1514.29 L1248.4 1514.29 L1248.4 1518.22 L1234.33 1518.22 L1234.33 1526.7 Q1235.35 1526.35 1236.37 1526.19 Q1237.39 1526 1238.4 1526 Q1244.19 1526 1247.57 1529.17 Q1250.95 1532.34 1250.95 1537.76 Q1250.95 1543.34 1247.48 1546.44 Q1244.01 1549.52 1237.69 1549.52 Q1235.51 1549.52 1233.24 1549.15 Q1231 1548.78 1228.59 1548.04 L1228.59 1543.34 Q1230.67 1544.47 1232.89 1545.03 Q1235.12 1545.58 1237.59 1545.58 Q1241.6 1545.58 1243.94 1543.48 Q1246.27 1541.37 1246.27 1537.76 Q1246.27 1534.15 1243.94 1532.04 Q1241.6 1529.94 1237.59 1529.94 Q1235.72 1529.94 1233.84 1530.35 Q1231.99 1530.77 1230.05 1531.65 L1230.05 1514.29 Z" fill="#000000" fill-rule="nonzero" fill-opacity="1" /><path clip-path="url(#clip690)" d="M1270.16 1517.37 Q1266.55 1517.37 1264.72 1520.93 Q1262.92 1524.47 1262.92 1531.6 Q1262.92 1538.71 1264.72 1542.27 Q1266.55 1545.82 1270.16 1545.82 Q1273.8 1545.82 1275.6 1542.27 Q1277.43 1538.71 1277.43 1531.6 Q1277.43 1524.47 1275.6 1520.93 Q1273.8 1517.37 1270.16 1517.37 M1270.16 1513.66 Q1275.97 1513.66 1279.03 1518.27 Q1282.11 1522.85 1282.11 1531.6 Q1282.11 1540.33 1279.03 1544.94 Q1275.97 1549.52 1270.16 1549.52 Q1264.35 1549.52 1261.27 1544.94 Q1258.22 1540.33 1258.22 1531.6 Q1258.22 1522.85 1261.27 1518.27 Q1264.35 1513.66 1270.16 1513.66 Z" fill="#000000" fill-rule="nonzero" fill-opacity="1" /><path clip-path="url(#clip690)" d="M1723.71 1517.37 Q1720.09 1517.37 1718.27 1520.93 Q1716.46 1524.47 1716.46 1531.6 Q1716.46 1538.71 1718.27 1542.27 Q1720.09 1545.82 1723.71 1545.82 Q1727.34 1545.82 1729.15 1542.27 Q1730.97 1538.71 1730.97 1531.6 Q1730.97 1524.47 1729.15 1520.93 Q1727.34 1517.37 1723.71 1517.37 M1723.71 1513.66 Q1729.52 1513.66 1732.57 1518.27 Q1735.65 1522.85 1735.65 1531.6 Q1735.65 1540.33 1732.57 1544.94 Q1729.52 1549.52 1723.71 1549.52 Q1717.9 1549.52 1714.82 1544.94 Q1711.76 1540.33 1711.76 1531.6 Q1711.76 1522.85 1714.82 1518.27 Q1717.9 1513.66 1723.71 1513.66 Z" fill="#000000" fill-rule="nonzero" fill-opacity="1" /><path clip-path="url(#clip690)" d="M1743.87 1542.97 L1748.75 1542.97 L1748.75 1548.85 L1743.87 1548.85 L1743.87 1542.97 Z" fill="#000000" fill-rule="nonzero" fill-opacity="1" /><path clip-path="url(#clip690)" d="M1757.76 1514.29 L1779.98 1514.29 L1779.98 1516.28 L1767.43 1548.85 L1762.55 1548.85 L1774.35 1518.22 L1757.76 1518.22 L1757.76 1514.29 Z" fill="#000000" fill-rule="nonzero" fill-opacity="1" /><path clip-path="url(#clip690)" d="M1789.15 1514.29 L1807.5 1514.29 L1807.5 1518.22 L1793.43 1518.22 L1793.43 1526.7 Q1794.45 1526.35 1795.46 1526.19 Q1796.48 1526 1797.5 1526 Q1803.29 1526 1806.67 1529.17 Q1810.05 1532.34 1810.05 1537.76 Q1810.05 1543.34 1806.58 1546.44 Q1803.1 1549.52 1796.78 1549.52 Q1794.61 1549.52 1792.34 1549.15 Q1790.09 1548.78 1787.69 1548.04 L1787.69 1543.34 Q1789.77 1544.47 1791.99 1545.03 Q1794.21 1545.58 1796.69 1545.58 Q1800.7 1545.58 1803.03 1543.48 Q1805.37 1541.37 1805.37 1537.76 Q1805.37 1534.15 1803.03 1532.04 Q1800.7 1529.94 1796.69 1529.94 Q1794.82 1529.94 1792.94 1530.35 Q1791.09 1530.77 1789.15 1531.65 L1789.15 1514.29 Z" fill="#000000" fill-rule="nonzero" fill-opacity="1" /><path clip-path="url(#clip690)" d="M2241.42 1544.91 L2249.05 1544.91 L2249.05 1518.55 L2240.74 1520.21 L2240.74 1515.95 L2249.01 1514.29 L2253.68 1514.29 L2253.68 1544.91 L2261.32 1544.91 L2261.32 1548.85 L2241.42 1548.85 L2241.42 1544.91 Z" fill="#000000" fill-rule="nonzero" fill-opacity="1" /><path clip-path="url(#clip690)" d="M2270.77 1542.97 L2275.65 1542.97 L2275.65 1548.85 L2270.77 1548.85 L2270.77 1542.97 Z" fill="#000000" fill-rule="nonzero" fill-opacity="1" /><path clip-path="url(#clip690)" d="M2295.84 1517.37 Q2292.23 1517.37 2290.4 1520.93 Q2288.59 1524.47 2288.59 1531.6 Q2288.59 1538.71 2290.4 1542.27 Q2292.23 1545.82 2295.84 1545.82 Q2299.47 1545.82 2301.28 1542.27 Q2303.1 1538.71 2303.1 1531.6 Q2303.1 1524.47 2301.28 1520.93 Q2299.47 1517.37 2295.84 1517.37 M2295.84 1513.66 Q2301.65 1513.66 2304.7 1518.27 Q2307.78 1522.85 2307.78 1531.6 Q2307.78 1540.33 2304.7 1544.94 Q2301.65 1549.52 2295.84 1549.52 Q2290.03 1549.52 2286.95 1544.94 Q2283.89 1540.33 2283.89 1531.6 Q2283.89 1522.85 2286.95 1518.27 Q2290.03 1513.66 2295.84 1513.66 Z" fill="#000000" fill-rule="nonzero" fill-opacity="1" /><path clip-path="url(#clip690)" d="M2326 1517.37 Q2322.39 1517.37 2320.56 1520.93 Q2318.75 1524.47 2318.75 1531.6 Q2318.75 1538.71 2320.56 1542.27 Q2322.39 1545.82 2326 1545.82 Q2329.63 1545.82 2331.44 1542.27 Q2333.27 1538.71 2333.27 1531.6 Q2333.27 1524.47 2331.44 1520.93 Q2329.63 1517.37 2326 1517.37 M2326 1513.66 Q2331.81 1513.66 2334.86 1518.27 Q2337.94 1522.85 2337.94 1531.6 Q2337.94 1540.33 2334.86 1544.94 Q2331.81 1549.52 2326 1549.52 Q2320.19 1549.52 2317.11 1544.94 Q2314.05 1540.33 2314.05 1531.6 Q2314.05 1522.85 2317.11 1518.27 Q2320.19 1513.66 2326 1513.66 Z" fill="#000000" fill-rule="nonzero" fill-opacity="1" /><polyline clip-path="url(#clip690)" style="stroke:#000000; stroke-linecap:round; stroke-linejoin:round; stroke-width:4; stroke-opacity:1; fill:none" points="112.177,1486.45 112.177,47.2441 "/>
<polyline clip-path="url(#clip690)" style="stroke:#000000; stroke-linecap:round; stroke-linejoin:round; stroke-width:4; stroke-opacity:1; fill:none" points="112.177,1216.61 131.075,1216.61 "/>
<polyline clip-path="url(#clip690)" style="stroke:#000000; stroke-linecap:round; stroke-linejoin:round; stroke-width:4; stroke-opacity:1; fill:none" points="112.177,928.884 131.075,928.884 "/>
<polyline clip-path="url(#clip690)" style="stroke:#000000; stroke-linecap:round; stroke-linejoin:round; stroke-width:4; stroke-opacity:1; fill:none" points="112.177,641.161 131.075,641.161 "/>
<polyline clip-path="url(#clip690)" style="stroke:#000000; stroke-linecap:round; stroke-linejoin:round; stroke-width:4; stroke-opacity:1; fill:none" points="112.177,353.438 131.075,353.438 "/>
<polyline clip-path="url(#clip690)" style="stroke:#000000; stroke-linecap:round; stroke-linejoin:round; stroke-width:4; stroke-opacity:1; fill:none" points="112.177,65.7143 131.075,65.7143 "/>
<path clip-path="url(#clip690)" d="M56.2699 1229.95 L63.9087 1229.95 L63.9087 1203.59 L55.5986 1205.25 L55.5986 1200.99 L63.8624 1199.33 L68.5383 1199.33 L68.5383 1229.95 L76.1772 1229.95 L76.1772 1233.89 L56.2699 1233.89 L56.2699 1229.95 Z" fill="#000000" fill-rule="nonzero" fill-opacity="1" /><path clip-path="url(#clip690)" d="M59.8578 942.229 L76.1772 942.229 L76.1772 946.164 L54.2328 946.164 L54.2328 942.229 Q56.8949 939.474 61.4782 934.844 Q66.0846 930.192 67.2652 928.849 Q69.5105 926.326 70.3902 924.59 Q71.2929 922.831 71.2929 921.141 Q71.2929 918.386 69.3485 916.65 Q67.4272 914.914 64.3254 914.914 Q62.1263 914.914 59.6726 915.678 Q57.2421 916.442 54.4643 917.993 L54.4643 913.27 Q57.2884 912.136 59.7421 911.558 Q62.1958 910.979 64.2328 910.979 Q69.6031 910.979 72.7976 913.664 Q75.992 916.349 75.992 920.84 Q75.992 922.97 75.1818 924.891 Q74.3948 926.789 72.2883 929.382 Q71.7096 930.053 68.6078 933.27 Q65.5059 936.465 59.8578 942.229 Z" fill="#000000" fill-rule="nonzero" fill-opacity="1" /><path clip-path="url(#clip690)" d="M69.0476 639.807 Q72.404 640.524 74.279 642.793 Q76.1772 645.061 76.1772 648.394 Q76.1772 653.51 72.6587 656.311 Q69.1402 659.112 62.6587 659.112 Q60.4828 659.112 58.168 658.672 Q55.8764 658.255 53.4227 657.399 L53.4227 652.885 Q55.3671 654.019 57.6819 654.598 Q59.9967 655.177 62.5198 655.177 Q66.918 655.177 69.2096 653.441 Q71.5244 651.705 71.5244 648.394 Q71.5244 645.339 69.3717 643.626 Q67.242 641.89 63.4226 641.89 L59.3949 641.89 L59.3949 638.047 L63.6078 638.047 Q67.0569 638.047 68.8855 636.682 Q70.7142 635.293 70.7142 632.7 Q70.7142 630.038 68.8161 628.626 Q66.9411 627.191 63.4226 627.191 Q61.5013 627.191 59.3023 627.607 Q57.1032 628.024 54.4643 628.904 L54.4643 624.737 Q57.1264 623.996 59.4412 623.626 Q61.7791 623.256 63.8393 623.256 Q69.1633 623.256 72.2652 625.686 Q75.367 628.094 75.367 632.214 Q75.367 635.084 73.7235 637.075 Q72.08 639.043 69.0476 639.807 Z" fill="#000000" fill-rule="nonzero" fill-opacity="1" /><path clip-path="url(#clip690)" d="M66.5939 340.232 L54.7884 358.681 L66.5939 358.681 L66.5939 340.232 M65.367 336.158 L71.2466 336.158 L71.2466 358.681 L76.1772 358.681 L76.1772 362.569 L71.2466 362.569 L71.2466 370.718 L66.5939 370.718 L66.5939 362.569 L50.9921 362.569 L50.9921 358.056 L65.367 336.158 Z" fill="#000000" fill-rule="nonzero" fill-opacity="1" /><path clip-path="url(#clip690)" d="M55.2745 48.4343 L73.6309 48.4343 L73.6309 52.3695 L59.5569 52.3695 L59.5569 60.8417 Q60.5754 60.4945 61.5939 60.3324 Q62.6124 60.1472 63.6309 60.1472 Q69.418 60.1472 72.7976 63.3185 Q76.1772 66.4898 76.1772 71.9064 Q76.1772 77.4851 72.705 80.587 Q69.2328 83.6656 62.9134 83.6656 Q60.7374 83.6656 58.4689 83.2953 Q56.2236 82.9249 53.8162 82.1842 L53.8162 77.4851 Q55.8995 78.6194 58.1217 79.1749 Q60.3439 79.7305 62.8208 79.7305 Q66.8254 79.7305 69.1633 77.624 Q71.5013 75.5175 71.5013 71.9064 Q71.5013 68.2954 69.1633 66.1889 Q66.8254 64.0824 62.8208 64.0824 Q60.9458 64.0824 59.0708 64.4991 Q57.2189 64.9157 55.2745 65.7954 L55.2745 48.4343 Z" fill="#000000" fill-rule="nonzero" fill-opacity="1" /><polyline clip-path="url(#clip691)" style="stroke:#009af9; stroke-linecap:round; stroke-linejoin:round; stroke-width:12; stroke-opacity:1; fill:none" points="175.59,1360.47 386.965,1346.78 598.34,1325.08 809.716,1313.76 1021.09,1320.37 1232.47,1289.78 1443.84,1264.31 1655.22,1211.62 1866.59,1166.95 2077.97,1122.24 2289.34,1151.17 "/>
<polyline clip-path="url(#clip691)" style="stroke:#000000; stroke-linecap:round; stroke-linejoin:round; stroke-width:12; stroke-opacity:1; fill:none" points="175.59,1360.47 175.59,1360.47 "/>
<polyline clip-path="url(#clip691)" style="stroke:#000000; stroke-linecap:round; stroke-linejoin:round; stroke-width:12; stroke-opacity:1; fill:none" points="386.965,1375.2 386.965,1301.51 "/>
<polyline clip-path="url(#clip691)" style="stroke:#000000; stroke-linecap:round; stroke-linejoin:round; stroke-width:12; stroke-opacity:1; fill:none" points="598.34,1372.1 598.34,1268.92 "/>
<polyline clip-path="url(#clip691)" style="stroke:#000000; stroke-linecap:round; stroke-linejoin:round; stroke-width:12; stroke-opacity:1; fill:none" points="809.716,1377.7 809.716,1250.67 "/>
<polyline clip-path="url(#clip691)" style="stroke:#000000; stroke-linecap:round; stroke-linejoin:round; stroke-width:12; stroke-opacity:1; fill:none" points="1021.09,1384.72 1021.09,1215.33 "/>
<polyline clip-path="url(#clip691)" style="stroke:#000000; stroke-linecap:round; stroke-linejoin:round; stroke-width:12; stroke-opacity:1; fill:none" points="1232.47,1395.48 1232.47,1150.83 "/>
<polyline clip-path="url(#clip691)" style="stroke:#000000; stroke-linecap:round; stroke-linejoin:round; stroke-width:12; stroke-opacity:1; fill:none" points="1443.84,1385.28 1443.84,1120.12 "/>
<polyline clip-path="url(#clip691)" style="stroke:#000000; stroke-linecap:round; stroke-linejoin:round; stroke-width:12; stroke-opacity:1; fill:none" points="1655.22,1396.93 1655.22,940.117 "/>
<polyline clip-path="url(#clip691)" style="stroke:#000000; stroke-linecap:round; stroke-linejoin:round; stroke-width:12; stroke-opacity:1; fill:none" points="1866.59,1382.35 1866.59,799.142 "/>
<polyline clip-path="url(#clip691)" style="stroke:#000000; stroke-linecap:round; stroke-linejoin:round; stroke-width:12; stroke-opacity:1; fill:none" points="2077.97,1358.11 2077.97,673.418 "/>
<polyline clip-path="url(#clip691)" style="stroke:#000000; stroke-linecap:round; stroke-linejoin:round; stroke-width:12; stroke-opacity:1; fill:none" points="2289.34,1372.2 2289.34,604.467 "/>
<line clip-path="url(#clip691)" x1="191.59" y1="1360.47" x2="159.59" y2="1360.47" style="stroke:#000000; stroke-width:12; stroke-opacity:1"/>
<line clip-path="url(#clip691)" x1="191.59" y1="1360.47" x2="159.59" y2="1360.47" style="stroke:#000000; stroke-width:12; stroke-opacity:1"/>
<line clip-path="url(#clip691)" x1="402.965" y1="1375.2" x2="370.965" y2="1375.2" style="stroke:#000000; stroke-width:12; stroke-opacity:1"/>
<line clip-path="url(#clip691)" x1="402.965" y1="1301.51" x2="370.965" y2="1301.51" style="stroke:#000000; stroke-width:12; stroke-opacity:1"/>
<line clip-path="url(#clip691)" x1="614.34" y1="1372.1" x2="582.34" y2="1372.1" style="stroke:#000000; stroke-width:12; stroke-opacity:1"/>
<line clip-path="url(#clip691)" x1="614.34" y1="1268.92" x2="582.34" y2="1268.92" style="stroke:#000000; stroke-width:12; stroke-opacity:1"/>
<line clip-path="url(#clip691)" x1="825.716" y1="1377.7" x2="793.716" y2="1377.7" style="stroke:#000000; stroke-width:12; stroke-opacity:1"/>
<line clip-path="url(#clip691)" x1="825.716" y1="1250.67" x2="793.716" y2="1250.67" style="stroke:#000000; stroke-width:12; stroke-opacity:1"/>
<line clip-path="url(#clip691)" x1="1037.09" y1="1384.72" x2="1005.09" y2="1384.72" style="stroke:#000000; stroke-width:12; stroke-opacity:1"/>
<line clip-path="url(#clip691)" x1="1037.09" y1="1215.33" x2="1005.09" y2="1215.33" style="stroke:#000000; stroke-width:12; stroke-opacity:1"/>
<line clip-path="url(#clip691)" x1="1248.47" y1="1395.48" x2="1216.47" y2="1395.48" style="stroke:#000000; stroke-width:12; stroke-opacity:1"/>
<line clip-path="url(#clip691)" x1="1248.47" y1="1150.83" x2="1216.47" y2="1150.83" style="stroke:#000000; stroke-width:12; stroke-opacity:1"/>
<line clip-path="url(#clip691)" x1="1459.84" y1="1385.28" x2="1427.84" y2="1385.28" style="stroke:#000000; stroke-width:12; stroke-opacity:1"/>
<line clip-path="url(#clip691)" x1="1459.84" y1="1120.12" x2="1427.84" y2="1120.12" style="stroke:#000000; stroke-width:12; stroke-opacity:1"/>
<line clip-path="url(#clip691)" x1="1671.22" y1="1396.93" x2="1639.22" y2="1396.93" style="stroke:#000000; stroke-width:12; stroke-opacity:1"/>
<line clip-path="url(#clip691)" x1="1671.22" y1="940.117" x2="1639.22" y2="940.117" style="stroke:#000000; stroke-width:12; stroke-opacity:1"/>
<line clip-path="url(#clip691)" x1="1882.59" y1="1382.35" x2="1850.59" y2="1382.35" style="stroke:#000000; stroke-width:12; stroke-opacity:1"/>
<line clip-path="url(#clip691)" x1="1882.59" y1="799.142" x2="1850.59" y2="799.142" style="stroke:#000000; stroke-width:12; stroke-opacity:1"/>
<line clip-path="url(#clip691)" x1="2093.97" y1="1358.11" x2="2061.97" y2="1358.11" style="stroke:#000000; stroke-width:12; stroke-opacity:1"/>
<line clip-path="url(#clip691)" x1="2093.97" y1="673.418" x2="2061.97" y2="673.418" style="stroke:#000000; stroke-width:12; stroke-opacity:1"/>
<line clip-path="url(#clip691)" x1="2305.34" y1="1372.2" x2="2273.34" y2="1372.2" style="stroke:#000000; stroke-width:12; stroke-opacity:1"/>
<line clip-path="url(#clip691)" x1="2305.34" y1="604.467" x2="2273.34" y2="604.467" style="stroke:#000000; stroke-width:12; stroke-opacity:1"/>
<polyline clip-path="url(#clip691)" style="stroke:#e26f46; stroke-linecap:round; stroke-linejoin:round; stroke-width:12; stroke-opacity:1; fill:none" points="175.59,1360.47 386.965,1348.11 598.34,1343.49 809.716,1301.56 1021.09,1276.14 1232.47,1258.93 1443.84,1241.73 1655.22,1219.22 1866.59,1209.01 2077.97,1241.3 2289.34,1211 "/>
<polyline clip-path="url(#clip691)" style="stroke:#000000; stroke-linecap:round; stroke-linejoin:round; stroke-width:12; stroke-opacity:1; fill:none" points="175.59,1360.47 175.59,1360.47 "/>
<polyline clip-path="url(#clip691)" style="stroke:#000000; stroke-linecap:round; stroke-linejoin:round; stroke-width:12; stroke-opacity:1; fill:none" points="386.965,1375.19 386.965,1287.87 "/>
<polyline clip-path="url(#clip691)" style="stroke:#000000; stroke-linecap:round; stroke-linejoin:round; stroke-width:12; stroke-opacity:1; fill:none" points="598.34,1397.79 598.34,1215.26 "/>
<polyline clip-path="url(#clip691)" style="stroke:#000000; stroke-linecap:round; stroke-linejoin:round; stroke-width:12; stroke-opacity:1; fill:none" points="809.716,1419.56 809.716,1182.34 "/>
<polyline clip-path="url(#clip691)" style="stroke:#000000; stroke-linecap:round; stroke-linejoin:round; stroke-width:12; stroke-opacity:1; fill:none" points="1021.09,1429.43 1021.09,1132.13 "/>
<polyline clip-path="url(#clip691)" style="stroke:#000000; stroke-linecap:round; stroke-linejoin:round; stroke-width:12; stroke-opacity:1; fill:none" points="1232.47,1428.17 1232.47,955.994 "/>
<polyline clip-path="url(#clip691)" style="stroke:#000000; stroke-linecap:round; stroke-linejoin:round; stroke-width:12; stroke-opacity:1; fill:none" points="1443.84,1436.54 1443.84,821.084 "/>
<polyline clip-path="url(#clip691)" style="stroke:#000000; stroke-linecap:round; stroke-linejoin:round; stroke-width:12; stroke-opacity:1; fill:none" points="1655.22,1444.35 1655.22,691.854 "/>
<polyline clip-path="url(#clip691)" style="stroke:#000000; stroke-linecap:round; stroke-linejoin:round; stroke-width:12; stroke-opacity:1; fill:none" points="1866.59,1445.43 1866.59,633.774 "/>
<polyline clip-path="url(#clip691)" style="stroke:#000000; stroke-linecap:round; stroke-linejoin:round; stroke-width:12; stroke-opacity:1; fill:none" points="2077.97,1441.57 2077.97,404.795 "/>
<polyline clip-path="url(#clip691)" style="stroke:#000000; stroke-linecap:round; stroke-linejoin:round; stroke-width:12; stroke-opacity:1; fill:none" points="2289.34,1445.72 2289.34,87.9763 "/>
<line clip-path="url(#clip691)" x1="191.59" y1="1360.47" x2="159.59" y2="1360.47" style="stroke:#000000; stroke-width:12; stroke-opacity:1"/>
<line clip-path="url(#clip691)" x1="191.59" y1="1360.47" x2="159.59" y2="1360.47" style="stroke:#000000; stroke-width:12; stroke-opacity:1"/>
<line clip-path="url(#clip691)" x1="402.965" y1="1375.19" x2="370.965" y2="1375.19" style="stroke:#000000; stroke-width:12; stroke-opacity:1"/>
<line clip-path="url(#clip691)" x1="402.965" y1="1287.87" x2="370.965" y2="1287.87" style="stroke:#000000; stroke-width:12; stroke-opacity:1"/>
<line clip-path="url(#clip691)" x1="614.34" y1="1397.79" x2="582.34" y2="1397.79" style="stroke:#000000; stroke-width:12; stroke-opacity:1"/>
<line clip-path="url(#clip691)" x1="614.34" y1="1215.26" x2="582.34" y2="1215.26" style="stroke:#000000; stroke-width:12; stroke-opacity:1"/>
<line clip-path="url(#clip691)" x1="825.716" y1="1419.56" x2="793.716" y2="1419.56" style="stroke:#000000; stroke-width:12; stroke-opacity:1"/>
<line clip-path="url(#clip691)" x1="825.716" y1="1182.34" x2="793.716" y2="1182.34" style="stroke:#000000; stroke-width:12; stroke-opacity:1"/>
<line clip-path="url(#clip691)" x1="1037.09" y1="1429.43" x2="1005.09" y2="1429.43" style="stroke:#000000; stroke-width:12; stroke-opacity:1"/>
<line clip-path="url(#clip691)" x1="1037.09" y1="1132.13" x2="1005.09" y2="1132.13" style="stroke:#000000; stroke-width:12; stroke-opacity:1"/>
<line clip-path="url(#clip691)" x1="1248.47" y1="1428.17" x2="1216.47" y2="1428.17" style="stroke:#000000; stroke-width:12; stroke-opacity:1"/>
<line clip-path="url(#clip691)" x1="1248.47" y1="955.994" x2="1216.47" y2="955.994" style="stroke:#000000; stroke-width:12; stroke-opacity:1"/>
<line clip-path="url(#clip691)" x1="1459.84" y1="1436.54" x2="1427.84" y2="1436.54" style="stroke:#000000; stroke-width:12; stroke-opacity:1"/>
<line clip-path="url(#clip691)" x1="1459.84" y1="821.084" x2="1427.84" y2="821.084" style="stroke:#000000; stroke-width:12; stroke-opacity:1"/>
<line clip-path="url(#clip691)" x1="1671.22" y1="1444.35" x2="1639.22" y2="1444.35" style="stroke:#000000; stroke-width:12; stroke-opacity:1"/>
<line clip-path="url(#clip691)" x1="1671.22" y1="691.854" x2="1639.22" y2="691.854" style="stroke:#000000; stroke-width:12; stroke-opacity:1"/>
<line clip-path="url(#clip691)" x1="1882.59" y1="1445.43" x2="1850.59" y2="1445.43" style="stroke:#000000; stroke-width:12; stroke-opacity:1"/>
<line clip-path="url(#clip691)" x1="1882.59" y1="633.774" x2="1850.59" y2="633.774" style="stroke:#000000; stroke-width:12; stroke-opacity:1"/>
<line clip-path="url(#clip691)" x1="2093.97" y1="1441.57" x2="2061.97" y2="1441.57" style="stroke:#000000; stroke-width:12; stroke-opacity:1"/>
<line clip-path="url(#clip691)" x1="2093.97" y1="404.795" x2="2061.97" y2="404.795" style="stroke:#000000; stroke-width:12; stroke-opacity:1"/>
<line clip-path="url(#clip691)" x1="2305.34" y1="1445.72" x2="2273.34" y2="1445.72" style="stroke:#000000; stroke-width:12; stroke-opacity:1"/>
<line clip-path="url(#clip691)" x1="2305.34" y1="87.9763" x2="2273.34" y2="87.9763" style="stroke:#000000; stroke-width:12; stroke-opacity:1"/>
</svg>
