<?xml version="1.0" encoding="utf-8"?>
<svg xmlns="http://www.w3.org/2000/svg" xmlns:xlink="http://www.w3.org/1999/xlink" width="600" height="400" viewBox="0 0 2400 1600">
<defs>
  <clipPath id="clip710">
    <rect x="0" y="0" width="2400" height="1600"/>
  </clipPath>
</defs>
<path clip-path="url(#clip710)" d="M0 1600 L2400 1600 L2400 0 L0 0  Z" fill="#ffffff" fill-rule="evenodd" fill-opacity="1"/>
<defs>
  <clipPath id="clip711">
    <rect x="155" y="47" width="2198" height="1440"/>
  </clipPath>
</defs>
<path clip-path="url(#clip710)" d="M155.765 1486.45 L2352.76 1486.45 L2352.76 47.2441 L155.765 47.2441  Z" fill="#ffffff" fill-rule="evenodd" fill-opacity="1"/>
<polyline clip-path="url(#clip711)" style="stroke:#000000; stroke-linecap:round; stroke-linejoin:round; stroke-width:2; stroke-opacity:0.1; fill:none" points="217.944,1486.45 217.944,47.2441 "/>
<polyline clip-path="url(#clip711)" style="stroke:#000000; stroke-linecap:round; stroke-linejoin:round; stroke-width:2; stroke-opacity:0.1; fill:none" points="736.102,1486.45 736.102,47.2441 "/>
<polyline clip-path="url(#clip711)" style="stroke:#000000; stroke-linecap:round; stroke-linejoin:round; stroke-width:2; stroke-opacity:0.1; fill:none" points="1254.26,1486.45 1254.26,47.2441 "/>
<polyline clip-path="url(#clip711)" style="stroke:#000000; stroke-linecap:round; stroke-linejoin:round; stroke-width:2; stroke-opacity:0.1; fill:none" points="1772.42,1486.45 1772.42,47.2441 "/>
<polyline clip-path="url(#clip711)" style="stroke:#000000; stroke-linecap:round; stroke-linejoin:round; stroke-width:2; stroke-opacity:0.1; fill:none" points="2290.58,1486.45 2290.58,47.2441 "/>
<polyline clip-path="url(#clip711)" style="stroke:#000000; stroke-linecap:round; stroke-linejoin:round; stroke-width:2; stroke-opacity:0.1; fill:none" points="155.765,1273.35 2352.76,1273.35 "/>
<polyline clip-path="url(#clip711)" style="stroke:#000000; stroke-linecap:round; stroke-linejoin:round; stroke-width:2; stroke-opacity:0.1; fill:none" points="155.765,1016.15 2352.76,1016.15 "/>
<polyline clip-path="url(#clip711)" style="stroke:#000000; stroke-linecap:round; stroke-linejoin:round; stroke-width:2; stroke-opacity:0.1; fill:none" points="155.765,758.954 2352.76,758.954 "/>
<polyline clip-path="url(#clip711)" style="stroke:#000000; stroke-linecap:round; stroke-linejoin:round; stroke-width:2; stroke-opacity:0.1; fill:none" points="155.765,501.753 2352.76,501.753 "/>
<polyline clip-path="url(#clip711)" style="stroke:#000000; stroke-linecap:round; stroke-linejoin:round; stroke-width:2; stroke-opacity:0.1; fill:none" points="155.765,244.553 2352.76,244.553 "/>
<polyline clip-path="url(#clip710)" style="stroke:#000000; stroke-linecap:round; stroke-linejoin:round; stroke-width:4; stroke-opacity:1; fill:none" points="155.765,1486.45 2352.76,1486.45 "/>
<polyline clip-path="url(#clip710)" style="stroke:#000000; stroke-linecap:round; stroke-linejoin:round; stroke-width:4; stroke-opacity:1; fill:none" points="217.944,1486.45 217.944,1467.55 "/>
<polyline clip-path="url(#clip710)" style="stroke:#000000; stroke-linecap:round; stroke-linejoin:round; stroke-width:4; stroke-opacity:1; fill:none" points="736.102,1486.45 736.102,1467.55 "/>
<polyline clip-path="url(#clip710)" style="stroke:#000000; stroke-linecap:round; stroke-linejoin:round; stroke-width:4; stroke-opacity:1; fill:none" points="1254.26,1486.45 1254.26,1467.55 "/>
<polyline clip-path="url(#clip710)" style="stroke:#000000; stroke-linecap:round; stroke-linejoin:round; stroke-width:4; stroke-opacity:1; fill:none" points="1772.42,1486.45 1772.42,1467.55 "/>
<polyline clip-path="url(#clip710)" style="stroke:#000000; stroke-linecap:round; stroke-linejoin:round; stroke-width:4; stroke-opacity:1; fill:none" points="2290.58,1486.45 2290.58,1467.55 "/>
<path clip-path="url(#clip710)" d="M180.247 1517.37 Q176.636 1517.37 174.808 1520.93 Q173.002 1524.47 173.002 1531.6 Q173.002 1538.71 174.808 1542.27 Q176.636 1545.82 180.247 1545.82 Q183.882 1545.82 185.687 1542.27 Q187.516 1538.71 187.516 1531.6 Q187.516 1524.47 185.687 1520.93 Q183.882 1517.37 180.247 1517.37 M180.247 1513.66 Q186.057 1513.66 189.113 1518.27 Q192.192 1522.85 192.192 1531.6 Q192.192 1540.33 189.113 1544.94 Q186.057 1549.52 180.247 1549.52 Q174.437 1549.52 171.358 1544.94 Q168.303 1540.33 168.303 1531.6 Q168.303 1522.85 171.358 1518.27 Q174.437 1513.66 180.247 1513.66 Z" fill="#000000" fill-rule="nonzero" fill-opacity="1" /><path clip-path="url(#clip710)" d="M200.409 1542.97 L205.294 1542.97 L205.294 1548.85 L200.409 1548.85 L200.409 1542.97 Z" fill="#000000" fill-rule="nonzero" fill-opacity="1" /><path clip-path="url(#clip710)" d="M225.479 1517.37 Q221.867 1517.37 220.039 1520.93 Q218.233 1524.47 218.233 1531.6 Q218.233 1538.71 220.039 1542.27 Q221.867 1545.82 225.479 1545.82 Q229.113 1545.82 230.918 1542.27 Q232.747 1538.71 232.747 1531.6 Q232.747 1524.47 230.918 1520.93 Q229.113 1517.37 225.479 1517.37 M225.479 1513.66 Q231.289 1513.66 234.344 1518.27 Q237.423 1522.85 237.423 1531.6 Q237.423 1540.33 234.344 1544.94 Q231.289 1549.52 225.479 1549.52 Q219.668 1549.52 216.59 1544.94 Q213.534 1540.33 213.534 1531.6 Q213.534 1522.85 216.59 1518.27 Q219.668 1513.66 225.479 1513.66 Z" fill="#000000" fill-rule="nonzero" fill-opacity="1" /><path clip-path="url(#clip710)" d="M255.64 1517.37 Q252.029 1517.37 250.201 1520.93 Q248.395 1524.47 248.395 1531.6 Q248.395 1538.71 250.201 1542.27 Q252.029 1545.82 255.64 1545.82 Q259.275 1545.82 261.08 1542.27 Q262.909 1538.71 262.909 1531.6 Q262.909 1524.47 261.08 1520.93 Q259.275 1517.37 255.64 1517.37 M255.64 1513.66 Q261.451 1513.66 264.506 1518.27 Q267.585 1522.85 267.585 1531.6 Q267.585 1540.33 264.506 1544.94 Q261.451 1549.52 255.64 1549.52 Q249.83 1549.52 246.752 1544.94 Q243.696 1540.33 243.696 1531.6 Q243.696 1522.85 246.752 1518.27 Q249.83 1513.66 255.64 1513.66 Z" fill="#000000" fill-rule="nonzero" fill-opacity="1" /><path clip-path="url(#clip710)" d="M698.903 1517.37 Q695.292 1517.37 693.463 1520.93 Q691.658 1524.47 691.658 1531.6 Q691.658 1538.71 693.463 1542.27 Q695.292 1545.82 698.903 1545.82 Q702.538 1545.82 704.343 1542.27 Q706.172 1538.71 706.172 1531.6 Q706.172 1524.47 704.343 1520.93 Q702.538 1517.37 698.903 1517.37 M698.903 1513.66 Q704.713 1513.66 707.769 1518.27 Q710.848 1522.85 710.848 1531.6 Q710.848 1540.33 707.769 1544.94 Q704.713 1549.52 698.903 1549.52 Q693.093 1549.52 690.014 1544.94 Q686.959 1540.33 686.959 1531.6 Q686.959 1522.85 690.014 1518.27 Q693.093 1513.66 698.903 1513.66 Z" fill="#000000" fill-rule="nonzero" fill-opacity="1" /><path clip-path="url(#clip710)" d="M719.065 1542.97 L723.949 1542.97 L723.949 1548.85 L719.065 1548.85 L719.065 1542.97 Z" fill="#000000" fill-rule="nonzero" fill-opacity="1" /><path clip-path="url(#clip710)" d="M738.162 1544.91 L754.482 1544.91 L754.482 1548.85 L732.537 1548.85 L732.537 1544.91 Q735.199 1542.16 739.783 1537.53 Q744.389 1532.88 745.57 1531.53 Q747.815 1529.01 748.695 1527.27 Q749.597 1525.51 749.597 1523.82 Q749.597 1521.07 747.653 1519.33 Q745.732 1517.6 742.63 1517.6 Q740.431 1517.6 737.977 1518.36 Q735.547 1519.13 732.769 1520.68 L732.769 1515.95 Q735.593 1514.82 738.047 1514.24 Q740.5 1513.66 742.537 1513.66 Q747.908 1513.66 751.102 1516.35 Q754.296 1519.03 754.296 1523.52 Q754.296 1525.65 753.486 1527.57 Q752.699 1529.47 750.593 1532.07 Q750.014 1532.74 746.912 1535.95 Q743.81 1539.15 738.162 1544.91 Z" fill="#000000" fill-rule="nonzero" fill-opacity="1" /><path clip-path="url(#clip710)" d="M764.343 1514.29 L782.699 1514.29 L782.699 1518.22 L768.625 1518.22 L768.625 1526.7 Q769.644 1526.35 770.662 1526.19 Q771.681 1526 772.699 1526 Q778.486 1526 781.866 1529.17 Q785.245 1532.34 785.245 1537.76 Q785.245 1543.34 781.773 1546.44 Q778.301 1549.52 771.982 1549.52 Q769.806 1549.52 767.537 1549.15 Q765.292 1548.78 762.884 1548.04 L762.884 1543.34 Q764.968 1544.47 767.19 1545.03 Q769.412 1545.58 771.889 1545.58 Q775.894 1545.58 778.232 1543.48 Q780.57 1541.37 780.57 1537.76 Q780.57 1534.15 778.232 1532.04 Q775.894 1529.94 771.889 1529.94 Q770.014 1529.94 768.139 1530.35 Q766.287 1530.77 764.343 1531.65 L764.343 1514.29 Z" fill="#000000" fill-rule="nonzero" fill-opacity="1" /><path clip-path="url(#clip710)" d="M1216.56 1517.37 Q1212.95 1517.37 1211.12 1520.93 Q1209.32 1524.47 1209.32 1531.6 Q1209.32 1538.71 1211.12 1542.27 Q1212.95 1545.82 1216.56 1545.82 Q1220.2 1545.82 1222 1542.27 Q1223.83 1538.71 1223.83 1531.6 Q1223.83 1524.47 1222 1520.93 Q1220.2 1517.37 1216.56 1517.37 M1216.56 1513.66 Q1222.37 1513.66 1225.43 1518.27 Q1228.51 1522.85 1228.51 1531.6 Q1228.51 1540.33 1225.43 1544.94 Q1222.37 1549.52 1216.56 1549.52 Q1210.75 1549.52 1207.68 1544.94 Q1204.62 1540.33 1204.62 1531.6 Q1204.62 1522.85 1207.68 1518.27 Q1210.75 1513.66 1216.56 1513.66 Z" fill="#000000" fill-rule="nonzero" fill-opacity="1" /><path clip-path="url(#clip710)" d="M1236.73 1542.97 L1241.61 1542.97 L1241.61 1548.85 L1236.73 1548.85 L1236.73 1542.97 Z" fill="#000000" fill-rule="nonzero" fill-opacity="1" /><path clip-path="url(#clip710)" d="M1251.84 1514.29 L1270.2 1514.29 L1270.2 1518.22 L1256.12 1518.22 L1256.12 1526.7 Q1257.14 1526.35 1258.16 1526.19 Q1259.18 1526 1260.2 1526 Q1265.98 1526 1269.36 1529.17 Q1272.74 1532.34 1272.74 1537.76 Q1272.74 1543.34 1269.27 1546.44 Q1265.8 1549.52 1259.48 1549.52 Q1257.3 1549.52 1255.04 1549.15 Q1252.79 1548.78 1250.38 1548.04 L1250.38 1543.34 Q1252.47 1544.47 1254.69 1545.03 Q1256.91 1545.58 1259.39 1545.58 Q1263.39 1545.58 1265.73 1543.48 Q1268.07 1541.37 1268.07 1537.76 Q1268.07 1534.15 1265.73 1532.04 Q1263.39 1529.94 1259.39 1529.94 Q1257.51 1529.94 1255.64 1530.35 Q1253.79 1530.77 1251.84 1531.65 L1251.84 1514.29 Z" fill="#000000" fill-rule="nonzero" fill-opacity="1" /><path clip-path="url(#clip710)" d="M1291.96 1517.37 Q1288.35 1517.37 1286.52 1520.93 Q1284.71 1524.47 1284.71 1531.6 Q1284.71 1538.71 1286.52 1542.27 Q1288.35 1545.82 1291.96 1545.82 Q1295.59 1545.82 1297.4 1542.27 Q1299.23 1538.71 1299.23 1531.6 Q1299.23 1524.47 1297.4 1520.93 Q1295.59 1517.37 1291.96 1517.37 M1291.96 1513.66 Q1297.77 1513.66 1300.82 1518.27 Q1303.9 1522.85 1303.9 1531.6 Q1303.9 1540.33 1300.82 1544.94 Q1297.77 1549.52 1291.96 1549.52 Q1286.15 1549.52 1283.07 1544.94 Q1280.01 1540.33 1280.01 1531.6 Q1280.01 1522.85 1283.07 1518.27 Q1286.15 1513.66 1291.96 1513.66 Z" fill="#000000" fill-rule="nonzero" fill-opacity="1" /><path clip-path="url(#clip710)" d="M1735.22 1517.37 Q1731.61 1517.37 1729.78 1520.93 Q1727.97 1524.47 1727.97 1531.6 Q1727.97 1538.71 1729.78 1542.27 Q1731.61 1545.82 1735.22 1545.82 Q1738.85 1545.82 1740.66 1542.27 Q1742.49 1538.71 1742.49 1531.6 Q1742.49 1524.47 1740.66 1520.93 Q1738.85 1517.37 1735.22 1517.37 M1735.22 1513.66 Q1741.03 1513.66 1744.09 1518.27 Q1747.16 1522.85 1747.16 1531.6 Q1747.16 1540.33 1744.09 1544.94 Q1741.03 1549.52 1735.22 1549.52 Q1729.41 1549.52 1726.33 1544.94 Q1723.28 1540.33 1723.28 1531.6 Q1723.28 1522.85 1726.33 1518.27 Q1729.41 1513.66 1735.22 1513.66 Z" fill="#000000" fill-rule="nonzero" fill-opacity="1" /><path clip-path="url(#clip710)" d="M1755.38 1542.97 L1760.27 1542.97 L1760.27 1548.85 L1755.38 1548.85 L1755.38 1542.97 Z" fill="#000000" fill-rule="nonzero" fill-opacity="1" /><path clip-path="url(#clip710)" d="M1769.27 1514.29 L1791.49 1514.29 L1791.49 1516.28 L1778.95 1548.85 L1774.06 1548.85 L1785.87 1518.22 L1769.27 1518.22 L1769.27 1514.29 Z" fill="#000000" fill-rule="nonzero" fill-opacity="1" /><path clip-path="url(#clip710)" d="M1800.66 1514.29 L1819.02 1514.29 L1819.02 1518.22 L1804.94 1518.22 L1804.94 1526.7 Q1805.96 1526.35 1806.98 1526.19 Q1808 1526 1809.02 1526 Q1814.8 1526 1818.18 1529.17 Q1821.56 1532.34 1821.56 1537.76 Q1821.56 1543.34 1818.09 1546.44 Q1814.62 1549.52 1808.3 1549.52 Q1806.12 1549.52 1803.85 1549.15 Q1801.61 1548.78 1799.2 1548.04 L1799.2 1543.34 Q1801.28 1544.47 1803.51 1545.03 Q1805.73 1545.58 1808.21 1545.58 Q1812.21 1545.58 1814.55 1543.48 Q1816.89 1541.37 1816.89 1537.76 Q1816.89 1534.15 1814.55 1532.04 Q1812.21 1529.94 1808.21 1529.94 Q1806.33 1529.94 1804.46 1530.35 Q1802.6 1530.77 1800.66 1531.65 L1800.66 1514.29 Z" fill="#000000" fill-rule="nonzero" fill-opacity="1" /><path clip-path="url(#clip710)" d="M2242.65 1544.91 L2250.29 1544.91 L2250.29 1518.55 L2241.98 1520.21 L2241.98 1515.95 L2250.24 1514.29 L2254.92 1514.29 L2254.92 1544.91 L2262.56 1544.91 L2262.56 1548.85 L2242.65 1548.85 L2242.65 1544.91 Z" fill="#000000" fill-rule="nonzero" fill-opacity="1" /><path clip-path="url(#clip710)" d="M2272 1542.97 L2276.88 1542.97 L2276.88 1548.85 L2272 1548.85 L2272 1542.97 Z" fill="#000000" fill-rule="nonzero" fill-opacity="1" /><path clip-path="url(#clip710)" d="M2297.07 1517.37 Q2293.46 1517.37 2291.63 1520.93 Q2289.82 1524.47 2289.82 1531.6 Q2289.82 1538.71 2291.63 1542.27 Q2293.46 1545.82 2297.07 1545.82 Q2300.7 1545.82 2302.51 1542.27 Q2304.34 1538.71 2304.34 1531.6 Q2304.34 1524.47 2302.51 1520.93 Q2300.7 1517.37 2297.07 1517.37 M2297.07 1513.66 Q2302.88 1513.66 2305.94 1518.27 Q2309.01 1522.85 2309.01 1531.6 Q2309.01 1540.33 2305.94 1544.94 Q2302.88 1549.52 2297.07 1549.52 Q2291.26 1549.52 2288.18 1544.94 Q2285.13 1540.33 2285.13 1531.6 Q2285.13 1522.85 2288.18 1518.27 Q2291.26 1513.66 2297.07 1513.66 Z" fill="#000000" fill-rule="nonzero" fill-opacity="1" /><path clip-path="url(#clip710)" d="M2327.23 1517.37 Q2323.62 1517.37 2321.79 1520.93 Q2319.99 1524.47 2319.99 1531.6 Q2319.99 1538.71 2321.79 1542.27 Q2323.62 1545.82 2327.23 1545.82 Q2330.87 1545.82 2332.67 1542.27 Q2334.5 1538.71 2334.5 1531.6 Q2334.5 1524.47 2332.67 1520.93 Q2330.87 1517.37 2327.23 1517.37 M2327.23 1513.66 Q2333.04 1513.66 2336.1 1518.27 Q2339.18 1522.85 2339.18 1531.6 Q2339.18 1540.33 2336.1 1544.94 Q2333.04 1549.52 2327.23 1549.52 Q2321.42 1549.52 2318.34 1544.94 Q2315.29 1540.33 2315.29 1531.6 Q2315.29 1522.85 2318.34 1518.27 Q2321.42 1513.66 2327.23 1513.66 Z" fill="#000000" fill-rule="nonzero" fill-opacity="1" /><polyline clip-path="url(#clip710)" style="stroke:#000000; stroke-linecap:round; stroke-linejoin:round; stroke-width:4; stroke-opacity:1; fill:none" points="155.765,1486.45 155.765,47.2441 "/>
<polyline clip-path="url(#clip710)" style="stroke:#000000; stroke-linecap:round; stroke-linejoin:round; stroke-width:4; stroke-opacity:1; fill:none" points="155.765,1273.35 174.663,1273.35 "/>
<polyline clip-path="url(#clip710)" style="stroke:#000000; stroke-linecap:round; stroke-linejoin:round; stroke-width:4; stroke-opacity:1; fill:none" points="155.765,1016.15 174.663,1016.15 "/>
<polyline clip-path="url(#clip710)" style="stroke:#000000; stroke-linecap:round; stroke-linejoin:round; stroke-width:4; stroke-opacity:1; fill:none" points="155.765,758.954 174.663,758.954 "/>
<polyline clip-path="url(#clip710)" style="stroke:#000000; stroke-linecap:round; stroke-linejoin:round; stroke-width:4; stroke-opacity:1; fill:none" points="155.765,501.753 174.663,501.753 "/>
<polyline clip-path="url(#clip710)" style="stroke:#000000; stroke-linecap:round; stroke-linejoin:round; stroke-width:4; stroke-opacity:1; fill:none" points="155.765,244.553 174.663,244.553 "/>
<path clip-path="url(#clip710)" d="M63.5847 1259.15 Q59.9736 1259.15 58.1449 1262.72 Q56.3393 1266.26 56.3393 1273.39 Q56.3393 1280.5 58.1449 1284.06 Q59.9736 1287.6 63.5847 1287.6 Q67.2189 1287.6 69.0244 1284.06 Q70.8531 1280.5 70.8531 1273.39 Q70.8531 1266.26 69.0244 1262.72 Q67.2189 1259.15 63.5847 1259.15 M63.5847 1255.45 Q69.3948 1255.45 72.4503 1260.06 Q75.529 1264.64 75.529 1273.39 Q75.529 1282.12 72.4503 1286.72 Q69.3948 1291.31 63.5847 1291.31 Q57.7745 1291.31 54.6958 1286.72 Q51.6403 1282.12 51.6403 1273.39 Q51.6403 1264.64 54.6958 1260.06 Q57.7745 1255.45 63.5847 1255.45 Z" fill="#000000" fill-rule="nonzero" fill-opacity="1" /><path clip-path="url(#clip710)" d="M83.7466 1284.75 L88.6308 1284.75 L88.6308 1290.63 L83.7466 1290.63 L83.7466 1284.75 Z" fill="#000000" fill-rule="nonzero" fill-opacity="1" /><path clip-path="url(#clip710)" d="M98.8622 1256.07 L117.219 1256.07 L117.219 1260.01 L103.145 1260.01 L103.145 1268.48 Q104.163 1268.13 105.182 1267.97 Q106.2 1267.79 107.219 1267.79 Q113.006 1267.79 116.385 1270.96 Q119.765 1274.13 119.765 1279.55 Q119.765 1285.13 116.293 1288.23 Q112.82 1291.31 106.501 1291.31 Q104.325 1291.31 102.057 1290.94 Q99.8113 1290.57 97.4039 1289.82 L97.4039 1285.13 Q99.4872 1286.26 101.709 1286.82 Q103.932 1287.37 106.408 1287.37 Q110.413 1287.37 112.751 1285.26 Q115.089 1283.16 115.089 1279.55 Q115.089 1275.94 112.751 1273.83 Q110.413 1271.72 106.408 1271.72 Q104.534 1271.72 102.659 1272.14 Q100.807 1272.56 98.8622 1273.44 L98.8622 1256.07 Z" fill="#000000" fill-rule="nonzero" fill-opacity="1" /><path clip-path="url(#clip710)" d="M53.3995 1029.5 L61.0384 1029.5 L61.0384 1003.13 L52.7282 1004.8 L52.7282 1000.54 L60.9921 998.874 L65.668 998.874 L65.668 1029.5 L73.3068 1029.5 L73.3068 1033.43 L53.3995 1033.43 L53.3995 1029.5 Z" fill="#000000" fill-rule="nonzero" fill-opacity="1" /><path clip-path="url(#clip710)" d="M82.7512 1027.55 L87.6354 1027.55 L87.6354 1033.43 L82.7512 1033.43 L82.7512 1027.55 Z" fill="#000000" fill-rule="nonzero" fill-opacity="1" /><path clip-path="url(#clip710)" d="M107.821 1001.95 Q104.209 1001.95 102.381 1005.52 Q100.575 1009.06 100.575 1016.19 Q100.575 1023.3 102.381 1026.86 Q104.209 1030.4 107.821 1030.4 Q111.455 1030.4 113.26 1026.86 Q115.089 1023.3 115.089 1016.19 Q115.089 1009.06 113.26 1005.52 Q111.455 1001.95 107.821 1001.95 M107.821 998.249 Q113.631 998.249 116.686 1002.86 Q119.765 1007.44 119.765 1016.19 Q119.765 1024.92 116.686 1029.52 Q113.631 1034.11 107.821 1034.11 Q102.01 1034.11 98.9317 1029.52 Q95.8761 1024.92 95.8761 1016.19 Q95.8761 1007.44 98.9317 1002.86 Q102.01 998.249 107.821 998.249 Z" fill="#000000" fill-rule="nonzero" fill-opacity="1" /><path clip-path="url(#clip710)" d="M54.3949 772.298 L62.0337 772.298 L62.0337 745.933 L53.7236 747.599 L53.7236 743.34 L61.9874 741.674 L66.6633 741.674 L66.6633 772.298 L74.3022 772.298 L74.3022 776.234 L54.3949 776.234 L54.3949 772.298 Z" fill="#000000" fill-rule="nonzero" fill-opacity="1" /><path clip-path="url(#clip710)" d="M83.7466 770.354 L88.6308 770.354 L88.6308 776.234 L83.7466 776.234 L83.7466 770.354 Z" fill="#000000" fill-rule="nonzero" fill-opacity="1" /><path clip-path="url(#clip710)" d="M98.8622 741.674 L117.219 741.674 L117.219 745.609 L103.145 745.609 L103.145 754.081 Q104.163 753.734 105.182 753.572 Q106.2 753.386 107.219 753.386 Q113.006 753.386 116.385 756.558 Q119.765 759.729 119.765 765.146 Q119.765 770.724 116.293 773.826 Q112.82 776.905 106.501 776.905 Q104.325 776.905 102.057 776.534 Q99.8113 776.164 97.4039 775.423 L97.4039 770.724 Q99.4872 771.859 101.709 772.414 Q103.932 772.97 106.408 772.97 Q110.413 772.97 112.751 770.863 Q115.089 768.757 115.089 765.146 Q115.089 761.535 112.751 759.428 Q110.413 757.322 106.408 757.322 Q104.534 757.322 102.659 757.738 Q100.807 758.155 98.8622 759.035 L98.8622 741.674 Z" fill="#000000" fill-rule="nonzero" fill-opacity="1" /><path clip-path="url(#clip710)" d="M56.6171 515.098 L72.9365 515.098 L72.9365 519.033 L50.9921 519.033 L50.9921 515.098 Q53.6541 512.343 58.2375 507.714 Q62.8439 503.061 64.0245 501.718 Q66.2698 499.195 67.1494 497.459 Q68.0522 495.7 68.0522 494.01 Q68.0522 491.255 66.1078 489.519 Q64.1865 487.783 61.0847 487.783 Q58.8856 487.783 56.4319 488.547 Q54.0014 489.311 51.2236 490.862 L51.2236 486.14 Q54.0477 485.005 56.5014 484.427 Q58.955 483.848 60.9921 483.848 Q66.3624 483.848 69.5568 486.533 Q72.7513 489.218 72.7513 493.709 Q72.7513 495.839 71.9411 497.76 Q71.1541 499.658 69.0476 502.251 Q68.4689 502.922 65.367 506.14 Q62.2652 509.334 56.6171 515.098 Z" fill="#000000" fill-rule="nonzero" fill-opacity="1" /><path clip-path="url(#clip710)" d="M82.7512 513.153 L87.6354 513.153 L87.6354 519.033 L82.7512 519.033 L82.7512 513.153 Z" fill="#000000" fill-rule="nonzero" fill-opacity="1" /><path clip-path="url(#clip710)" d="M107.821 487.552 Q104.209 487.552 102.381 491.117 Q100.575 494.658 100.575 501.788 Q100.575 508.894 102.381 512.459 Q104.209 516.001 107.821 516.001 Q111.455 516.001 113.26 512.459 Q115.089 508.894 115.089 501.788 Q115.089 494.658 113.26 491.117 Q111.455 487.552 107.821 487.552 M107.821 483.848 Q113.631 483.848 116.686 488.455 Q119.765 493.038 119.765 501.788 Q119.765 510.515 116.686 515.121 Q113.631 519.704 107.821 519.704 Q102.01 519.704 98.9317 515.121 Q95.8761 510.515 95.8761 501.788 Q95.8761 493.038 98.9317 488.455 Q102.01 483.848 107.821 483.848 Z" fill="#000000" fill-rule="nonzero" fill-opacity="1" /><path clip-path="url(#clip710)" d="M57.6125 257.897 L73.9318 257.897 L73.9318 261.833 L51.9875 261.833 L51.9875 257.897 Q54.6495 255.143 59.2328 250.513 Q63.8393 245.86 65.0198 244.518 Q67.2652 241.995 68.1448 240.259 Q69.0476 238.499 69.0476 236.81 Q69.0476 234.055 67.1032 232.319 Q65.1819 230.583 62.08 230.583 Q59.881 230.583 57.4273 231.347 Q54.9967 232.111 52.219 233.661 L52.219 228.939 Q55.043 227.805 57.4967 227.226 Q59.9504 226.648 61.9874 226.648 Q67.3578 226.648 70.5522 229.333 Q73.7466 232.018 73.7466 236.509 Q73.7466 238.638 72.9365 240.56 Q72.1494 242.458 70.0429 245.05 Q69.4642 245.722 66.3624 248.939 Q63.2606 252.134 57.6125 257.897 Z" fill="#000000" fill-rule="nonzero" fill-opacity="1" /><path clip-path="url(#clip710)" d="M83.7466 255.953 L88.6308 255.953 L88.6308 261.833 L83.7466 261.833 L83.7466 255.953 Z" fill="#000000" fill-rule="nonzero" fill-opacity="1" /><path clip-path="url(#clip710)" d="M98.8622 227.273 L117.219 227.273 L117.219 231.208 L103.145 231.208 L103.145 239.68 Q104.163 239.333 105.182 239.171 Q106.2 238.985 107.219 238.985 Q113.006 238.985 116.385 242.157 Q119.765 245.328 119.765 250.745 Q119.765 256.323 116.293 259.425 Q112.82 262.504 106.501 262.504 Q104.325 262.504 102.057 262.133 Q99.8113 261.763 97.4039 261.022 L97.4039 256.323 Q99.4872 257.458 101.709 258.013 Q103.932 258.569 106.408 258.569 Q110.413 258.569 112.751 256.462 Q115.089 254.356 115.089 250.745 Q115.089 247.134 112.751 245.027 Q110.413 242.921 106.408 242.921 Q104.534 242.921 102.659 243.337 Q100.807 243.754 98.8622 244.634 L98.8622 227.273 Z" fill="#000000" fill-rule="nonzero" fill-opacity="1" /><path clip-path="url(#clip711)" d="M217.944 1273.35 L425.207 1350.59 L632.47 1399.69 L839.734 1413.41 L1047 1393.04 L1254.26 1424.24 L1461.52 1445.72 L1668.79 1423.02 L1876.05 1398.35 L2083.31 1383.54 L2290.58 1357.85 L2290.58 87.9763 L2083.31 164.09 L1876.05 360.748 L1668.79 603.988 L1461.52 833.148 L1254.26 947.509 L1047 1001.13 L839.734 1100.84 L632.47 1118.78 L425.207 1131.84 L217.944 1273.35  Z" fill="#009af9" fill-rule="evenodd" fill-opacity="0.2"/>
<polyline clip-path="url(#clip711)" style="stroke:#009af9; stroke-linecap:round; stroke-linejoin:round; stroke-width:12; stroke-opacity:1; fill:none" points="217.944,1273.35 425.207,1299.94 632.47,1243.17 839.734,1231.32 1047,1219.35 1254.26,1242.06 1461.52,1150.81 1668.79,1089.48 1876.05,1037.42 2083.31,1010.29 2290.58,1034.72 "/>
</svg>
