<?xml version="1.0" encoding="utf-8"?>
<svg xmlns="http://www.w3.org/2000/svg" xmlns:xlink="http://www.w3.org/1999/xlink" width="600" height="400" viewBox="0 0 2400 1600">
<defs>
  <clipPath id="clip680">
    <rect x="0" y="0" width="2400" height="1600"/>
  </clipPath>
</defs>
<path clip-path="url(#clip680)" d="M0 1600 L2400 1600 L2400 0 L0 0  Z" fill="#ffffff" fill-rule="evenodd" fill-opacity="1"/>
<defs>
  <clipPath id="clip681">
    <rect x="186" y="47" width="2167" height="1440"/>
  </clipPath>
</defs>
<path clip-path="url(#clip680)" d="M186.274 1486.45 L2352.76 1486.45 L2352.76 47.2441 L186.274 47.2441  Z" fill="#ffffff" fill-rule="evenodd" fill-opacity="1"/>
<polyline clip-path="url(#clip681)" style="stroke:#000000; stroke-linecap:round; stroke-linejoin:round; stroke-width:2; stroke-opacity:0.1; fill:none" points="247.59,1486.45 247.59,47.2441 "/>
<polyline clip-path="url(#clip681)" style="stroke:#000000; stroke-linecap:round; stroke-linejoin:round; stroke-width:2; stroke-opacity:0.1; fill:none" points="758.552,1486.45 758.552,47.2441 "/>
<polyline clip-path="url(#clip681)" style="stroke:#000000; stroke-linecap:round; stroke-linejoin:round; stroke-width:2; stroke-opacity:0.1; fill:none" points="1269.51,1486.45 1269.51,47.2441 "/>
<polyline clip-path="url(#clip681)" style="stroke:#000000; stroke-linecap:round; stroke-linejoin:round; stroke-width:2; stroke-opacity:0.1; fill:none" points="1780.48,1486.45 1780.48,47.2441 "/>
<polyline clip-path="url(#clip681)" style="stroke:#000000; stroke-linecap:round; stroke-linejoin:round; stroke-width:2; stroke-opacity:0.1; fill:none" points="2291.44,1486.45 2291.44,47.2441 "/>
<polyline clip-path="url(#clip681)" style="stroke:#000000; stroke-linecap:round; stroke-linejoin:round; stroke-width:2; stroke-opacity:0.1; fill:none" points="186.274,1293.65 2352.76,1293.65 "/>
<polyline clip-path="url(#clip681)" style="stroke:#000000; stroke-linecap:round; stroke-linejoin:round; stroke-width:2; stroke-opacity:0.1; fill:none" points="186.274,995.338 2352.76,995.338 "/>
<polyline clip-path="url(#clip681)" style="stroke:#000000; stroke-linecap:round; stroke-linejoin:round; stroke-width:2; stroke-opacity:0.1; fill:none" points="186.274,697.027 2352.76,697.027 "/>
<polyline clip-path="url(#clip681)" style="stroke:#000000; stroke-linecap:round; stroke-linejoin:round; stroke-width:2; stroke-opacity:0.1; fill:none" points="186.274,398.715 2352.76,398.715 "/>
<polyline clip-path="url(#clip681)" style="stroke:#000000; stroke-linecap:round; stroke-linejoin:round; stroke-width:2; stroke-opacity:0.1; fill:none" points="186.274,100.403 2352.76,100.403 "/>
<polyline clip-path="url(#clip680)" style="stroke:#000000; stroke-linecap:round; stroke-linejoin:round; stroke-width:4; stroke-opacity:1; fill:none" points="186.274,1486.45 2352.76,1486.45 "/>
<polyline clip-path="url(#clip680)" style="stroke:#000000; stroke-linecap:round; stroke-linejoin:round; stroke-width:4; stroke-opacity:1; fill:none" points="247.59,1486.45 247.59,1467.55 "/>
<polyline clip-path="url(#clip680)" style="stroke:#000000; stroke-linecap:round; stroke-linejoin:round; stroke-width:4; stroke-opacity:1; fill:none" points="758.552,1486.45 758.552,1467.55 "/>
<polyline clip-path="url(#clip680)" style="stroke:#000000; stroke-linecap:round; stroke-linejoin:round; stroke-width:4; stroke-opacity:1; fill:none" points="1269.51,1486.45 1269.51,1467.55 "/>
<polyline clip-path="url(#clip680)" style="stroke:#000000; stroke-linecap:round; stroke-linejoin:round; stroke-width:4; stroke-opacity:1; fill:none" points="1780.48,1486.45 1780.48,1467.55 "/>
<polyline clip-path="url(#clip680)" style="stroke:#000000; stroke-linecap:round; stroke-linejoin:round; stroke-width:4; stroke-opacity:1; fill:none" points="2291.44,1486.45 2291.44,1467.55 "/>
<path clip-path="url(#clip680)" d="M209.893 1517.37 Q206.282 1517.37 204.453 1520.93 Q202.648 1524.47 202.648 1531.6 Q202.648 1538.71 204.453 1542.27 Q206.282 1545.82 209.893 1545.82 Q213.527 1545.82 215.333 1542.27 Q217.161 1538.71 217.161 1531.6 Q217.161 1524.47 215.333 1520.93 Q213.527 1517.37 209.893 1517.37 M209.893 1513.66 Q215.703 1513.66 218.759 1518.27 Q221.837 1522.85 221.837 1531.6 Q221.837 1540.33 218.759 1544.94 Q215.703 1549.52 209.893 1549.52 Q204.083 1549.52 201.004 1544.94 Q197.949 1540.33 197.949 1531.6 Q197.949 1522.85 201.004 1518.27 Q204.083 1513.66 209.893 1513.66 Z" fill="#000000" fill-rule="nonzero" fill-opacity="1" /><path clip-path="url(#clip680)" d="M230.055 1542.97 L234.939 1542.97 L234.939 1548.85 L230.055 1548.85 L230.055 1542.97 Z" fill="#000000" fill-rule="nonzero" fill-opacity="1" /><path clip-path="url(#clip680)" d="M255.124 1517.37 Q251.513 1517.37 249.684 1520.93 Q247.879 1524.47 247.879 1531.6 Q247.879 1538.71 249.684 1542.27 Q251.513 1545.82 255.124 1545.82 Q258.758 1545.82 260.564 1542.27 Q262.393 1538.71 262.393 1531.6 Q262.393 1524.47 260.564 1520.93 Q258.758 1517.37 255.124 1517.37 M255.124 1513.66 Q260.934 1513.66 263.99 1518.27 Q267.069 1522.85 267.069 1531.6 Q267.069 1540.33 263.99 1544.94 Q260.934 1549.52 255.124 1549.52 Q249.314 1549.52 246.235 1544.94 Q243.18 1540.33 243.18 1531.6 Q243.18 1522.85 246.235 1518.27 Q249.314 1513.66 255.124 1513.66 Z" fill="#000000" fill-rule="nonzero" fill-opacity="1" /><path clip-path="url(#clip680)" d="M285.286 1517.37 Q281.675 1517.37 279.846 1520.93 Q278.041 1524.47 278.041 1531.6 Q278.041 1538.71 279.846 1542.27 Q281.675 1545.82 285.286 1545.82 Q288.92 1545.82 290.726 1542.27 Q292.555 1538.71 292.555 1531.6 Q292.555 1524.47 290.726 1520.93 Q288.92 1517.37 285.286 1517.37 M285.286 1513.66 Q291.096 1513.66 294.152 1518.27 Q297.23 1522.85 297.23 1531.6 Q297.23 1540.33 294.152 1544.94 Q291.096 1549.52 285.286 1549.52 Q279.476 1549.52 276.397 1544.94 Q273.342 1540.33 273.342 1531.6 Q273.342 1522.85 276.397 1518.27 Q279.476 1513.66 285.286 1513.66 Z" fill="#000000" fill-rule="nonzero" fill-opacity="1" /><path clip-path="url(#clip680)" d="M721.353 1517.37 Q717.742 1517.37 715.914 1520.93 Q714.108 1524.47 714.108 1531.6 Q714.108 1538.71 715.914 1542.27 Q717.742 1545.82 721.353 1545.82 Q724.988 1545.82 726.793 1542.27 Q728.622 1538.71 728.622 1531.6 Q728.622 1524.47 726.793 1520.93 Q724.988 1517.37 721.353 1517.37 M721.353 1513.66 Q727.164 1513.66 730.219 1518.27 Q733.298 1522.85 733.298 1531.6 Q733.298 1540.33 730.219 1544.94 Q727.164 1549.52 721.353 1549.52 Q715.543 1549.52 712.465 1544.94 Q709.409 1540.33 709.409 1531.6 Q709.409 1522.85 712.465 1518.27 Q715.543 1513.66 721.353 1513.66 Z" fill="#000000" fill-rule="nonzero" fill-opacity="1" /><path clip-path="url(#clip680)" d="M741.515 1542.97 L746.4 1542.97 L746.4 1548.85 L741.515 1548.85 L741.515 1542.97 Z" fill="#000000" fill-rule="nonzero" fill-opacity="1" /><path clip-path="url(#clip680)" d="M760.612 1544.91 L776.932 1544.91 L776.932 1548.85 L754.987 1548.85 L754.987 1544.91 Q757.649 1542.16 762.233 1537.53 Q766.839 1532.88 768.02 1531.53 Q770.265 1529.01 771.145 1527.27 Q772.048 1525.51 772.048 1523.82 Q772.048 1521.07 770.103 1519.33 Q768.182 1517.6 765.08 1517.6 Q762.881 1517.6 760.427 1518.36 Q757.997 1519.13 755.219 1520.68 L755.219 1515.95 Q758.043 1514.82 760.497 1514.24 Q762.95 1513.66 764.987 1513.66 Q770.358 1513.66 773.552 1516.35 Q776.747 1519.03 776.747 1523.52 Q776.747 1525.65 775.936 1527.57 Q775.149 1529.47 773.043 1532.07 Q772.464 1532.74 769.362 1535.95 Q766.261 1539.15 760.612 1544.91 Z" fill="#000000" fill-rule="nonzero" fill-opacity="1" /><path clip-path="url(#clip680)" d="M786.793 1514.29 L805.149 1514.29 L805.149 1518.22 L791.075 1518.22 L791.075 1526.7 Q792.094 1526.35 793.112 1526.19 Q794.131 1526 795.149 1526 Q800.936 1526 804.316 1529.17 Q807.695 1532.34 807.695 1537.76 Q807.695 1543.34 804.223 1546.44 Q800.751 1549.52 794.432 1549.52 Q792.256 1549.52 789.987 1549.15 Q787.742 1548.78 785.335 1548.04 L785.335 1543.34 Q787.418 1544.47 789.64 1545.03 Q791.862 1545.58 794.339 1545.58 Q798.344 1545.58 800.682 1543.48 Q803.02 1541.37 803.02 1537.76 Q803.02 1534.15 800.682 1532.04 Q798.344 1529.94 794.339 1529.94 Q792.464 1529.94 790.589 1530.35 Q788.737 1530.77 786.793 1531.65 L786.793 1514.29 Z" fill="#000000" fill-rule="nonzero" fill-opacity="1" /><path clip-path="url(#clip680)" d="M1231.82 1517.37 Q1228.21 1517.37 1226.38 1520.93 Q1224.57 1524.47 1224.57 1531.6 Q1224.57 1538.71 1226.38 1542.27 Q1228.21 1545.82 1231.82 1545.82 Q1235.45 1545.82 1237.26 1542.27 Q1239.09 1538.71 1239.09 1531.6 Q1239.09 1524.47 1237.26 1520.93 Q1235.45 1517.37 1231.82 1517.37 M1231.82 1513.66 Q1237.63 1513.66 1240.68 1518.27 Q1243.76 1522.85 1243.76 1531.6 Q1243.76 1540.33 1240.68 1544.94 Q1237.63 1549.52 1231.82 1549.52 Q1226.01 1549.52 1222.93 1544.94 Q1219.87 1540.33 1219.87 1531.6 Q1219.87 1522.85 1222.93 1518.27 Q1226.01 1513.66 1231.82 1513.66 Z" fill="#000000" fill-rule="nonzero" fill-opacity="1" /><path clip-path="url(#clip680)" d="M1251.98 1542.97 L1256.86 1542.97 L1256.86 1548.85 L1251.98 1548.85 L1251.98 1542.97 Z" fill="#000000" fill-rule="nonzero" fill-opacity="1" /><path clip-path="url(#clip680)" d="M1267.1 1514.29 L1285.45 1514.29 L1285.45 1518.22 L1271.38 1518.22 L1271.38 1526.7 Q1272.4 1526.35 1273.42 1526.19 Q1274.43 1526 1275.45 1526 Q1281.24 1526 1284.62 1529.17 Q1288 1532.34 1288 1537.76 Q1288 1543.34 1284.53 1546.44 Q1281.05 1549.52 1274.73 1549.52 Q1272.56 1549.52 1270.29 1549.15 Q1268.05 1548.78 1265.64 1548.04 L1265.64 1543.34 Q1267.72 1544.47 1269.94 1545.03 Q1272.17 1545.58 1274.64 1545.58 Q1278.65 1545.58 1280.98 1543.48 Q1283.32 1541.37 1283.32 1537.76 Q1283.32 1534.15 1280.98 1532.04 Q1278.65 1529.94 1274.64 1529.94 Q1272.77 1529.94 1270.89 1530.35 Q1269.04 1530.77 1267.1 1531.65 L1267.1 1514.29 Z" fill="#000000" fill-rule="nonzero" fill-opacity="1" /><path clip-path="url(#clip680)" d="M1307.21 1517.37 Q1303.6 1517.37 1301.77 1520.93 Q1299.97 1524.47 1299.97 1531.6 Q1299.97 1538.71 1301.77 1542.27 Q1303.6 1545.82 1307.21 1545.82 Q1310.85 1545.82 1312.65 1542.27 Q1314.48 1538.71 1314.48 1531.6 Q1314.48 1524.47 1312.65 1520.93 Q1310.85 1517.37 1307.21 1517.37 M1307.21 1513.66 Q1313.02 1513.66 1316.08 1518.27 Q1319.16 1522.85 1319.16 1531.6 Q1319.16 1540.33 1316.08 1544.94 Q1313.02 1549.52 1307.21 1549.52 Q1301.4 1549.52 1298.32 1544.94 Q1295.27 1540.33 1295.27 1531.6 Q1295.27 1522.85 1298.32 1518.27 Q1301.4 1513.66 1307.21 1513.66 Z" fill="#000000" fill-rule="nonzero" fill-opacity="1" /><path clip-path="url(#clip680)" d="M1743.28 1517.37 Q1739.67 1517.37 1737.84 1520.93 Q1736.03 1524.47 1736.03 1531.6 Q1736.03 1538.71 1737.84 1542.27 Q1739.67 1545.82 1743.28 1545.82 Q1746.91 1545.82 1748.72 1542.27 Q1750.55 1538.71 1750.55 1531.6 Q1750.55 1524.47 1748.72 1520.93 Q1746.91 1517.37 1743.28 1517.37 M1743.28 1513.66 Q1749.09 1513.66 1752.14 1518.27 Q1755.22 1522.85 1755.22 1531.6 Q1755.22 1540.33 1752.14 1544.94 Q1749.09 1549.52 1743.28 1549.52 Q1737.47 1549.52 1734.39 1544.94 Q1731.33 1540.33 1731.33 1531.6 Q1731.33 1522.85 1734.39 1518.27 Q1737.47 1513.66 1743.28 1513.66 Z" fill="#000000" fill-rule="nonzero" fill-opacity="1" /><path clip-path="url(#clip680)" d="M1763.44 1542.97 L1768.32 1542.97 L1768.32 1548.85 L1763.44 1548.85 L1763.44 1542.97 Z" fill="#000000" fill-rule="nonzero" fill-opacity="1" /><path clip-path="url(#clip680)" d="M1777.33 1514.29 L1799.55 1514.29 L1799.55 1516.28 L1787.01 1548.85 L1782.12 1548.85 L1793.93 1518.22 L1777.33 1518.22 L1777.33 1514.29 Z" fill="#000000" fill-rule="nonzero" fill-opacity="1" /><path clip-path="url(#clip680)" d="M1808.72 1514.29 L1827.07 1514.29 L1827.07 1518.22 L1813 1518.22 L1813 1526.7 Q1814.02 1526.35 1815.04 1526.19 Q1816.06 1526 1817.07 1526 Q1822.86 1526 1826.24 1529.17 Q1829.62 1532.34 1829.62 1537.76 Q1829.62 1543.34 1826.15 1546.44 Q1822.68 1549.52 1816.36 1549.52 Q1814.18 1549.52 1811.91 1549.15 Q1809.67 1548.78 1807.26 1548.04 L1807.26 1543.34 Q1809.34 1544.47 1811.57 1545.03 Q1813.79 1545.58 1816.26 1545.58 Q1820.27 1545.58 1822.61 1543.48 Q1824.95 1541.37 1824.95 1537.76 Q1824.95 1534.15 1822.61 1532.04 Q1820.27 1529.94 1816.26 1529.94 Q1814.39 1529.94 1812.51 1530.35 Q1810.66 1530.77 1808.72 1531.65 L1808.72 1514.29 Z" fill="#000000" fill-rule="nonzero" fill-opacity="1" /><path clip-path="url(#clip680)" d="M2243.51 1544.91 L2251.15 1544.91 L2251.15 1518.55 L2242.84 1520.21 L2242.84 1515.95 L2251.1 1514.29 L2255.78 1514.29 L2255.78 1544.91 L2263.42 1544.91 L2263.42 1548.85 L2243.51 1548.85 L2243.51 1544.91 Z" fill="#000000" fill-rule="nonzero" fill-opacity="1" /><path clip-path="url(#clip680)" d="M2272.86 1542.97 L2277.75 1542.97 L2277.75 1548.85 L2272.86 1548.85 L2272.86 1542.97 Z" fill="#000000" fill-rule="nonzero" fill-opacity="1" /><path clip-path="url(#clip680)" d="M2297.93 1517.37 Q2294.32 1517.37 2292.49 1520.93 Q2290.69 1524.47 2290.69 1531.6 Q2290.69 1538.71 2292.49 1542.27 Q2294.32 1545.82 2297.93 1545.82 Q2301.57 1545.82 2303.37 1542.27 Q2305.2 1538.71 2305.2 1531.6 Q2305.2 1524.47 2303.37 1520.93 Q2301.57 1517.37 2297.93 1517.37 M2297.93 1513.66 Q2303.74 1513.66 2306.8 1518.27 Q2309.88 1522.85 2309.88 1531.6 Q2309.88 1540.33 2306.8 1544.94 Q2303.74 1549.52 2297.93 1549.52 Q2292.12 1549.52 2289.04 1544.94 Q2285.99 1540.33 2285.99 1531.6 Q2285.99 1522.85 2289.04 1518.27 Q2292.12 1513.66 2297.93 1513.66 Z" fill="#000000" fill-rule="nonzero" fill-opacity="1" /><path clip-path="url(#clip680)" d="M2328.1 1517.37 Q2324.48 1517.37 2322.66 1520.93 Q2320.85 1524.47 2320.85 1531.6 Q2320.85 1538.71 2322.66 1542.27 Q2324.48 1545.82 2328.1 1545.82 Q2331.73 1545.82 2333.54 1542.27 Q2335.36 1538.71 2335.36 1531.6 Q2335.36 1524.47 2333.54 1520.93 Q2331.73 1517.37 2328.1 1517.37 M2328.1 1513.66 Q2333.91 1513.66 2336.96 1518.27 Q2340.04 1522.85 2340.04 1531.6 Q2340.04 1540.33 2336.96 1544.94 Q2333.91 1549.52 2328.1 1549.52 Q2322.29 1549.52 2319.21 1544.94 Q2316.15 1540.33 2316.15 1531.6 Q2316.15 1522.85 2319.21 1518.27 Q2322.29 1513.66 2328.1 1513.66 Z" fill="#000000" fill-rule="nonzero" fill-opacity="1" /><polyline clip-path="url(#clip680)" style="stroke:#000000; stroke-linecap:round; stroke-linejoin:round; stroke-width:4; stroke-opacity:1; fill:none" points="186.274,1486.45 186.274,47.2441 "/>
<polyline clip-path="url(#clip680)" style="stroke:#000000; stroke-linecap:round; stroke-linejoin:round; stroke-width:4; stroke-opacity:1; fill:none" points="186.274,1293.65 205.172,1293.65 "/>
<polyline clip-path="url(#clip680)" style="stroke:#000000; stroke-linecap:round; stroke-linejoin:round; stroke-width:4; stroke-opacity:1; fill:none" points="186.274,995.338 205.172,995.338 "/>
<polyline clip-path="url(#clip680)" style="stroke:#000000; stroke-linecap:round; stroke-linejoin:round; stroke-width:4; stroke-opacity:1; fill:none" points="186.274,697.027 205.172,697.027 "/>
<polyline clip-path="url(#clip680)" style="stroke:#000000; stroke-linecap:round; stroke-linejoin:round; stroke-width:4; stroke-opacity:1; fill:none" points="186.274,398.715 205.172,398.715 "/>
<polyline clip-path="url(#clip680)" style="stroke:#000000; stroke-linecap:round; stroke-linejoin:round; stroke-width:4; stroke-opacity:1; fill:none" points="186.274,100.403 205.172,100.403 "/>
<path clip-path="url(#clip680)" d="M62.9365 1279.45 Q59.3254 1279.45 57.4967 1283.01 Q55.6912 1286.56 55.6912 1293.68 Q55.6912 1300.79 57.4967 1304.36 Q59.3254 1307.9 62.9365 1307.9 Q66.5707 1307.9 68.3763 1304.36 Q70.205 1300.79 70.205 1293.68 Q70.205 1286.56 68.3763 1283.01 Q66.5707 1279.45 62.9365 1279.45 M62.9365 1275.75 Q68.7467 1275.75 71.8022 1280.35 Q74.8809 1284.93 74.8809 1293.68 Q74.8809 1302.41 71.8022 1307.02 Q68.7467 1311.6 62.9365 1311.6 Q57.1264 1311.6 54.0477 1307.02 Q50.9921 1302.41 50.9921 1293.68 Q50.9921 1284.93 54.0477 1280.35 Q57.1264 1275.75 62.9365 1275.75 Z" fill="#000000" fill-rule="nonzero" fill-opacity="1" /><path clip-path="url(#clip680)" d="M83.0984 1305.05 L87.9827 1305.05 L87.9827 1310.93 L83.0984 1310.93 L83.0984 1305.05 Z" fill="#000000" fill-rule="nonzero" fill-opacity="1" /><path clip-path="url(#clip680)" d="M98.2141 1276.37 L116.57 1276.37 L116.57 1280.31 L102.496 1280.31 L102.496 1288.78 Q103.515 1288.43 104.534 1288.27 Q105.552 1288.08 106.571 1288.08 Q112.358 1288.08 115.737 1291.25 Q119.117 1294.43 119.117 1299.84 Q119.117 1305.42 115.645 1308.52 Q112.172 1311.6 105.853 1311.6 Q103.677 1311.6 101.409 1311.23 Q99.1632 1310.86 96.7558 1310.12 L96.7558 1305.42 Q98.8391 1306.56 101.061 1307.11 Q103.284 1307.67 105.76 1307.67 Q109.765 1307.67 112.103 1305.56 Q114.441 1303.45 114.441 1299.84 Q114.441 1296.23 112.103 1294.12 Q109.765 1292.02 105.76 1292.02 Q103.885 1292.02 102.01 1292.43 Q100.159 1292.85 98.2141 1293.73 L98.2141 1276.37 Z" fill="#000000" fill-rule="nonzero" fill-opacity="1" /><path clip-path="url(#clip680)" d="M138.33 1279.45 Q134.719 1279.45 132.89 1283.01 Q131.084 1286.56 131.084 1293.68 Q131.084 1300.79 132.89 1304.36 Q134.719 1307.9 138.33 1307.9 Q141.964 1307.9 143.769 1304.36 Q145.598 1300.79 145.598 1293.68 Q145.598 1286.56 143.769 1283.01 Q141.964 1279.45 138.33 1279.45 M138.33 1275.75 Q144.14 1275.75 147.195 1280.35 Q150.274 1284.93 150.274 1293.68 Q150.274 1302.41 147.195 1307.02 Q144.14 1311.6 138.33 1311.6 Q132.519 1311.6 129.441 1307.02 Q126.385 1302.41 126.385 1293.68 Q126.385 1284.93 129.441 1280.35 Q132.519 1275.75 138.33 1275.75 Z" fill="#000000" fill-rule="nonzero" fill-opacity="1" /><path clip-path="url(#clip680)" d="M63.9319 981.137 Q60.3208 981.137 58.4921 984.702 Q56.6865 988.244 56.6865 995.373 Q56.6865 1002.48 58.4921 1006.04 Q60.3208 1009.59 63.9319 1009.59 Q67.5661 1009.59 69.3717 1006.04 Q71.2004 1002.48 71.2004 995.373 Q71.2004 988.244 69.3717 984.702 Q67.5661 981.137 63.9319 981.137 M63.9319 977.433 Q69.742 977.433 72.7976 982.04 Q75.8763 986.623 75.8763 995.373 Q75.8763 1004.1 72.7976 1008.71 Q69.742 1013.29 63.9319 1013.29 Q58.1217 1013.29 55.043 1008.71 Q51.9875 1004.1 51.9875 995.373 Q51.9875 986.623 55.043 982.04 Q58.1217 977.433 63.9319 977.433 Z" fill="#000000" fill-rule="nonzero" fill-opacity="1" /><path clip-path="url(#clip680)" d="M84.0938 1006.74 L88.978 1006.74 L88.978 1012.62 L84.0938 1012.62 L84.0938 1006.74 Z" fill="#000000" fill-rule="nonzero" fill-opacity="1" /><path clip-path="url(#clip680)" d="M97.9826 978.058 L120.205 978.058 L120.205 980.049 L107.658 1012.62 L102.774 1012.62 L114.58 981.994 L97.9826 981.994 L97.9826 978.058 Z" fill="#000000" fill-rule="nonzero" fill-opacity="1" /><path clip-path="url(#clip680)" d="M129.371 978.058 L147.728 978.058 L147.728 981.994 L133.654 981.994 L133.654 990.466 Q134.672 990.119 135.691 989.957 Q136.709 989.771 137.728 989.771 Q143.515 989.771 146.894 992.943 Q150.274 996.114 150.274 1001.53 Q150.274 1007.11 146.802 1010.21 Q143.33 1013.29 137.01 1013.29 Q134.834 1013.29 132.566 1012.92 Q130.32 1012.55 127.913 1011.81 L127.913 1007.11 Q129.996 1008.24 132.219 1008.8 Q134.441 1009.35 136.918 1009.35 Q140.922 1009.35 143.26 1007.25 Q145.598 1005.14 145.598 1001.53 Q145.598 997.919 143.26 995.813 Q140.922 993.706 136.918 993.706 Q135.043 993.706 133.168 994.123 Q131.316 994.54 129.371 995.419 L129.371 978.058 Z" fill="#000000" fill-rule="nonzero" fill-opacity="1" /><path clip-path="url(#clip680)" d="M53.7467 710.372 L61.3856 710.372 L61.3856 684.006 L53.0754 685.673 L53.0754 681.413 L61.3393 679.747 L66.0152 679.747 L66.0152 710.372 L73.654 710.372 L73.654 714.307 L53.7467 714.307 L53.7467 710.372 Z" fill="#000000" fill-rule="nonzero" fill-opacity="1" /><path clip-path="url(#clip680)" d="M83.0984 708.427 L87.9827 708.427 L87.9827 714.307 L83.0984 714.307 L83.0984 708.427 Z" fill="#000000" fill-rule="nonzero" fill-opacity="1" /><path clip-path="url(#clip680)" d="M108.168 682.825 Q104.557 682.825 102.728 686.39 Q100.922 689.932 100.922 697.061 Q100.922 704.168 102.728 707.733 Q104.557 711.274 108.168 711.274 Q111.802 711.274 113.608 707.733 Q115.436 704.168 115.436 697.061 Q115.436 689.932 113.608 686.39 Q111.802 682.825 108.168 682.825 M108.168 679.122 Q113.978 679.122 117.033 683.728 Q120.112 688.311 120.112 697.061 Q120.112 705.788 117.033 710.395 Q113.978 714.978 108.168 714.978 Q102.358 714.978 99.2789 710.395 Q96.2234 705.788 96.2234 697.061 Q96.2234 688.311 99.2789 683.728 Q102.358 679.122 108.168 679.122 Z" fill="#000000" fill-rule="nonzero" fill-opacity="1" /><path clip-path="url(#clip680)" d="M138.33 682.825 Q134.719 682.825 132.89 686.39 Q131.084 689.932 131.084 697.061 Q131.084 704.168 132.89 707.733 Q134.719 711.274 138.33 711.274 Q141.964 711.274 143.769 707.733 Q145.598 704.168 145.598 697.061 Q145.598 689.932 143.769 686.39 Q141.964 682.825 138.33 682.825 M138.33 679.122 Q144.14 679.122 147.195 683.728 Q150.274 688.311 150.274 697.061 Q150.274 705.788 147.195 710.395 Q144.14 714.978 138.33 714.978 Q132.519 714.978 129.441 710.395 Q126.385 705.788 126.385 697.061 Q126.385 688.311 129.441 683.728 Q132.519 679.122 138.33 679.122 Z" fill="#000000" fill-rule="nonzero" fill-opacity="1" /><path clip-path="url(#clip680)" d="M54.7421 412.06 L62.381 412.06 L62.381 385.694 L54.0708 387.361 L54.0708 383.102 L62.3347 381.435 L67.0106 381.435 L67.0106 412.06 L74.6494 412.06 L74.6494 415.995 L54.7421 415.995 L54.7421 412.06 Z" fill="#000000" fill-rule="nonzero" fill-opacity="1" /><path clip-path="url(#clip680)" d="M84.0938 410.115 L88.978 410.115 L88.978 415.995 L84.0938 415.995 L84.0938 410.115 Z" fill="#000000" fill-rule="nonzero" fill-opacity="1" /><path clip-path="url(#clip680)" d="M103.191 412.06 L119.51 412.06 L119.51 415.995 L97.566 415.995 L97.566 412.06 Q100.228 409.305 104.811 404.676 Q109.418 400.023 110.598 398.68 Q112.844 396.157 113.723 394.421 Q114.626 392.662 114.626 390.972 Q114.626 388.217 112.682 386.481 Q110.76 384.745 107.658 384.745 Q105.459 384.745 103.006 385.509 Q100.575 386.273 97.7974 387.824 L97.7974 383.102 Q100.621 381.967 103.075 381.389 Q105.529 380.81 107.566 380.81 Q112.936 380.81 116.131 383.495 Q119.325 386.18 119.325 390.671 Q119.325 392.801 118.515 394.722 Q117.728 396.62 115.621 399.213 Q115.043 399.884 111.941 403.102 Q108.839 406.296 103.191 412.06 Z" fill="#000000" fill-rule="nonzero" fill-opacity="1" /><path clip-path="url(#clip680)" d="M129.371 381.435 L147.728 381.435 L147.728 385.37 L133.654 385.37 L133.654 393.842 Q134.672 393.495 135.691 393.333 Q136.709 393.148 137.728 393.148 Q143.515 393.148 146.894 396.319 Q150.274 399.49 150.274 404.907 Q150.274 410.486 146.802 413.588 Q143.33 416.666 137.01 416.666 Q134.834 416.666 132.566 416.296 Q130.32 415.926 127.913 415.185 L127.913 410.486 Q129.996 411.62 132.219 412.176 Q134.441 412.731 136.918 412.731 Q140.922 412.731 143.26 410.625 Q145.598 408.518 145.598 404.907 Q145.598 401.296 143.26 399.189 Q140.922 397.083 136.918 397.083 Q135.043 397.083 133.168 397.5 Q131.316 397.916 129.371 398.796 L129.371 381.435 Z" fill="#000000" fill-rule="nonzero" fill-opacity="1" /><path clip-path="url(#clip680)" d="M53.7467 113.748 L61.3856 113.748 L61.3856 87.3825 L53.0754 89.0491 L53.0754 84.7899 L61.3393 83.1232 L66.0152 83.1232 L66.0152 113.748 L73.654 113.748 L73.654 117.683 L53.7467 117.683 L53.7467 113.748 Z" fill="#000000" fill-rule="nonzero" fill-opacity="1" /><path clip-path="url(#clip680)" d="M83.0984 111.804 L87.9827 111.804 L87.9827 117.683 L83.0984 117.683 L83.0984 111.804 Z" fill="#000000" fill-rule="nonzero" fill-opacity="1" /><path clip-path="url(#clip680)" d="M98.2141 83.1232 L116.57 83.1232 L116.57 87.0584 L102.496 87.0584 L102.496 95.5306 Q103.515 95.1833 104.534 95.0213 Q105.552 94.8361 106.571 94.8361 Q112.358 94.8361 115.737 98.0074 Q119.117 101.179 119.117 106.595 Q119.117 112.174 115.645 115.276 Q112.172 118.355 105.853 118.355 Q103.677 118.355 101.409 117.984 Q99.1632 117.614 96.7558 116.873 L96.7558 112.174 Q98.8391 113.308 101.061 113.864 Q103.284 114.419 105.76 114.419 Q109.765 114.419 112.103 112.313 Q114.441 110.206 114.441 106.595 Q114.441 102.984 112.103 100.878 Q109.765 98.7713 105.76 98.7713 Q103.885 98.7713 102.01 99.188 Q100.159 99.6046 98.2141 100.484 L98.2141 83.1232 Z" fill="#000000" fill-rule="nonzero" fill-opacity="1" /><path clip-path="url(#clip680)" d="M138.33 86.2019 Q134.719 86.2019 132.89 89.7667 Q131.084 93.3084 131.084 100.438 Q131.084 107.544 132.89 111.109 Q134.719 114.651 138.33 114.651 Q141.964 114.651 143.769 111.109 Q145.598 107.544 145.598 100.438 Q145.598 93.3084 143.769 89.7667 Q141.964 86.2019 138.33 86.2019 M138.33 82.4982 Q144.14 82.4982 147.195 87.1047 Q150.274 91.688 150.274 100.438 Q150.274 109.165 147.195 113.771 Q144.14 118.355 138.33 118.355 Q132.519 118.355 129.441 113.771 Q126.385 109.165 126.385 100.438 Q126.385 91.688 129.441 87.1047 Q132.519 82.4982 138.33 82.4982 Z" fill="#000000" fill-rule="nonzero" fill-opacity="1" /><polyline clip-path="url(#clip681)" style="stroke:#009af9; stroke-linecap:round; stroke-linejoin:round; stroke-width:12; stroke-opacity:1; fill:none" points="247.59,1293.65 451.975,1183.72 656.36,1239.72 860.745,1296.35 1065.13,1310.09 1269.51,1329.67 1473.9,1241.99 1678.29,1167.29 1882.67,1179.5 2087.06,1222.5 2291.44,1069.36 "/>
<polyline clip-path="url(#clip681)" style="stroke:#e26f46; stroke-linecap:round; stroke-linejoin:round; stroke-width:12; stroke-opacity:1; fill:none" points="247.59,1293.65 451.975,1195.97 656.36,1065.58 860.745,893.677 1065.13,750.913 1269.51,805.472 1473.9,655.941 1678.29,503.008 1882.67,453.063 2087.06,87.9763 2291.44,129.386 "/>
<polyline clip-path="url(#clip681)" style="stroke:#3da44d; stroke-linecap:round; stroke-linejoin:round; stroke-width:12; stroke-opacity:1; fill:none" points="247.59,1293.65 451.975,1241.4 656.36,1164.41 860.745,1096.92 1065.13,1048.93 1269.51,1111.09 1473.9,1110.95 1678.29,1054.84 1882.67,908.912 2087.06,786.5 2291.44,468.867 "/>
<polyline clip-path="url(#clip681)" style="stroke:#c271d2; stroke-linecap:round; stroke-linejoin:round; stroke-width:12; stroke-opacity:1; fill:none" points="247.59,1293.65 451.975,1185.11 656.36,1107 860.745,1091.42 1065.13,1021.02 1269.51,1073.72 1473.9,1170.73 1678.29,1069.93 1882.67,920.367 2087.06,830.249 2291.44,1040.85 "/>
<polyline clip-path="url(#clip681)" style="stroke:#ac8d18; stroke-linecap:round; stroke-linejoin:round; stroke-width:12; stroke-opacity:1; fill:none" points="247.59,1293.65 451.975,1281.59 656.36,1181.66 860.745,1126.77 1065.13,1093.49 1269.51,1086.71 1473.9,986.151 1678.29,988.834 1882.67,987.48 2087.06,875.054 2291.44,621.406 "/>
<polyline clip-path="url(#clip681)" style="stroke:#00a9ad; stroke-linecap:round; stroke-linejoin:round; stroke-width:12; stroke-opacity:1; fill:none" points="247.59,1293.65 451.975,1327.06 656.36,1320.64 860.745,1320.42 1065.13,1394.03 1269.51,1445.72 1473.9,1219.8 1678.29,1027.99 1882.67,679.68 2087.06,362.852 2291.44,399.298 "/>
<polyline clip-path="url(#clip681)" style="stroke:#ed5d92; stroke-linecap:round; stroke-linejoin:round; stroke-width:12; stroke-opacity:1; fill:none" points="247.59,1293.65 451.975,1311.53 656.36,1224.78 860.745,1157.55 1065.13,1167.71 1269.51,1099.86 1473.9,1178.34 1678.29,1180.29 1882.67,1050.17 2087.06,998.978 2291.44,1252.48 "/>
<polyline clip-path="url(#clip681)" style="stroke:#c68125; stroke-linecap:round; stroke-linejoin:round; stroke-width:12; stroke-opacity:1; fill:none" points="247.59,1293.65 451.975,1360.92 656.36,1224.55 860.745,1243.28 1065.13,1296.39 1269.51,1346.75 1473.9,1286.94 1678.29,1363.82 1882.67,1287.07 2087.06,1239.91 2291.44,1310.18 "/>
</svg>
