<?xml version="1.0" encoding="utf-8"?>
<svg xmlns="http://www.w3.org/2000/svg" xmlns:xlink="http://www.w3.org/1999/xlink" width="600" height="400" viewBox="0 0 2400 1600">
<defs>
  <clipPath id="clip590">
    <rect x="0" y="0" width="2400" height="1600"/>
  </clipPath>
</defs>
<path clip-path="url(#clip590)" d="M0 1600 L2400 1600 L2400 0 L0 0  Z" fill="#ffffff" fill-rule="evenodd" fill-opacity="1"/>
<defs>
  <clipPath id="clip591">
    <rect x="184" y="47" width="2170" height="1440"/>
  </clipPath>
</defs>
<path clip-path="url(#clip590)" d="M184.191 1486.45 L2352.76 1486.45 L2352.76 47.2441 L184.191 47.2441  Z" fill="#ffffff" fill-rule="evenodd" fill-opacity="1"/>
<polyline clip-path="url(#clip591)" style="stroke:#000000; stroke-linecap:round; stroke-linejoin:round; stroke-width:2; stroke-opacity:0.1; fill:none" points="245.565,1486.45 245.565,47.2441 "/>
<polyline clip-path="url(#clip591)" style="stroke:#000000; stroke-linecap:round; stroke-linejoin:round; stroke-width:2; stroke-opacity:0.1; fill:none" points="757.019,1486.45 757.019,47.2441 "/>
<polyline clip-path="url(#clip591)" style="stroke:#000000; stroke-linecap:round; stroke-linejoin:round; stroke-width:2; stroke-opacity:0.1; fill:none" points="1268.47,1486.45 1268.47,47.2441 "/>
<polyline clip-path="url(#clip591)" style="stroke:#000000; stroke-linecap:round; stroke-linejoin:round; stroke-width:2; stroke-opacity:0.1; fill:none" points="1779.93,1486.45 1779.93,47.2441 "/>
<polyline clip-path="url(#clip591)" style="stroke:#000000; stroke-linecap:round; stroke-linejoin:round; stroke-width:2; stroke-opacity:0.1; fill:none" points="2291.38,1486.45 2291.38,47.2441 "/>
<polyline clip-path="url(#clip591)" style="stroke:#000000; stroke-linecap:round; stroke-linejoin:round; stroke-width:2; stroke-opacity:0.1; fill:none" points="184.191,1455.73 2352.76,1455.73 "/>
<polyline clip-path="url(#clip591)" style="stroke:#000000; stroke-linecap:round; stroke-linejoin:round; stroke-width:2; stroke-opacity:0.1; fill:none" points="184.191,1145.78 2352.76,1145.78 "/>
<polyline clip-path="url(#clip591)" style="stroke:#000000; stroke-linecap:round; stroke-linejoin:round; stroke-width:2; stroke-opacity:0.1; fill:none" points="184.191,835.836 2352.76,835.836 "/>
<polyline clip-path="url(#clip591)" style="stroke:#000000; stroke-linecap:round; stroke-linejoin:round; stroke-width:2; stroke-opacity:0.1; fill:none" points="184.191,525.891 2352.76,525.891 "/>
<polyline clip-path="url(#clip591)" style="stroke:#000000; stroke-linecap:round; stroke-linejoin:round; stroke-width:2; stroke-opacity:0.1; fill:none" points="184.191,215.946 2352.76,215.946 "/>
<polyline clip-path="url(#clip590)" style="stroke:#000000; stroke-linecap:round; stroke-linejoin:round; stroke-width:4; stroke-opacity:1; fill:none" points="184.191,1486.45 2352.76,1486.45 "/>
<polyline clip-path="url(#clip590)" style="stroke:#000000; stroke-linecap:round; stroke-linejoin:round; stroke-width:4; stroke-opacity:1; fill:none" points="245.565,1486.45 245.565,1467.55 "/>
<polyline clip-path="url(#clip590)" style="stroke:#000000; stroke-linecap:round; stroke-linejoin:round; stroke-width:4; stroke-opacity:1; fill:none" points="757.019,1486.45 757.019,1467.55 "/>
<polyline clip-path="url(#clip590)" style="stroke:#000000; stroke-linecap:round; stroke-linejoin:round; stroke-width:4; stroke-opacity:1; fill:none" points="1268.47,1486.45 1268.47,1467.55 "/>
<polyline clip-path="url(#clip590)" style="stroke:#000000; stroke-linecap:round; stroke-linejoin:round; stroke-width:4; stroke-opacity:1; fill:none" points="1779.93,1486.45 1779.93,1467.55 "/>
<polyline clip-path="url(#clip590)" style="stroke:#000000; stroke-linecap:round; stroke-linejoin:round; stroke-width:4; stroke-opacity:1; fill:none" points="2291.38,1486.45 2291.38,1467.55 "/>
<path clip-path="url(#clip590)" d="M222.95 1517.37 Q219.338 1517.37 217.51 1520.93 Q215.704 1524.47 215.704 1531.6 Q215.704 1538.71 217.51 1542.27 Q219.338 1545.82 222.95 1545.82 Q226.584 1545.82 228.389 1542.27 Q230.218 1538.71 230.218 1531.6 Q230.218 1524.47 228.389 1520.93 Q226.584 1517.37 222.95 1517.37 M222.95 1513.66 Q228.76 1513.66 231.815 1518.27 Q234.894 1522.85 234.894 1531.6 Q234.894 1540.33 231.815 1544.94 Q228.76 1549.52 222.95 1549.52 Q217.139 1549.52 214.061 1544.94 Q211.005 1540.33 211.005 1531.6 Q211.005 1522.85 214.061 1518.27 Q217.139 1513.66 222.95 1513.66 Z" fill="#000000" fill-rule="nonzero" fill-opacity="1" /><path clip-path="url(#clip590)" d="M243.111 1542.97 L247.996 1542.97 L247.996 1548.85 L243.111 1548.85 L243.111 1542.97 Z" fill="#000000" fill-rule="nonzero" fill-opacity="1" /><path clip-path="url(#clip590)" d="M268.181 1517.37 Q264.57 1517.37 262.741 1520.93 Q260.935 1524.47 260.935 1531.6 Q260.935 1538.71 262.741 1542.27 Q264.57 1545.82 268.181 1545.82 Q271.815 1545.82 273.621 1542.27 Q275.449 1538.71 275.449 1531.6 Q275.449 1524.47 273.621 1520.93 Q271.815 1517.37 268.181 1517.37 M268.181 1513.66 Q273.991 1513.66 277.046 1518.27 Q280.125 1522.85 280.125 1531.6 Q280.125 1540.33 277.046 1544.94 Q273.991 1549.52 268.181 1549.52 Q262.371 1549.52 259.292 1544.94 Q256.236 1540.33 256.236 1531.6 Q256.236 1522.85 259.292 1518.27 Q262.371 1513.66 268.181 1513.66 Z" fill="#000000" fill-rule="nonzero" fill-opacity="1" /><path clip-path="url(#clip590)" d="M728.755 1544.91 L745.075 1544.91 L745.075 1548.85 L723.131 1548.85 L723.131 1544.91 Q725.793 1542.16 730.376 1537.53 Q734.982 1532.88 736.163 1531.53 Q738.408 1529.01 739.288 1527.27 Q740.191 1525.51 740.191 1523.82 Q740.191 1521.07 738.246 1519.33 Q736.325 1517.6 733.223 1517.6 Q731.024 1517.6 728.57 1518.36 Q726.14 1519.13 723.362 1520.68 L723.362 1515.95 Q726.186 1514.82 728.64 1514.24 Q731.093 1513.66 733.13 1513.66 Q738.501 1513.66 741.695 1516.35 Q744.89 1519.03 744.89 1523.52 Q744.89 1525.65 744.079 1527.57 Q743.292 1529.47 741.186 1532.07 Q740.607 1532.74 737.505 1535.95 Q734.404 1539.15 728.755 1544.91 Z" fill="#000000" fill-rule="nonzero" fill-opacity="1" /><path clip-path="url(#clip590)" d="M754.89 1542.97 L759.774 1542.97 L759.774 1548.85 L754.89 1548.85 L754.89 1542.97 Z" fill="#000000" fill-rule="nonzero" fill-opacity="1" /><path clip-path="url(#clip590)" d="M770.005 1514.29 L788.362 1514.29 L788.362 1518.22 L774.288 1518.22 L774.288 1526.7 Q775.306 1526.35 776.325 1526.19 Q777.343 1526 778.362 1526 Q784.149 1526 787.528 1529.17 Q790.908 1532.34 790.908 1537.76 Q790.908 1543.34 787.436 1546.44 Q783.964 1549.52 777.644 1549.52 Q775.468 1549.52 773.2 1549.15 Q770.954 1548.78 768.547 1548.04 L768.547 1543.34 Q770.63 1544.47 772.852 1545.03 Q775.075 1545.58 777.552 1545.58 Q781.556 1545.58 783.894 1543.48 Q786.232 1541.37 786.232 1537.76 Q786.232 1534.15 783.894 1532.04 Q781.556 1529.94 777.552 1529.94 Q775.677 1529.94 773.802 1530.35 Q771.95 1530.77 770.005 1531.65 L770.005 1514.29 Z" fill="#000000" fill-rule="nonzero" fill-opacity="1" /><path clip-path="url(#clip590)" d="M1235.64 1514.29 L1253.99 1514.29 L1253.99 1518.22 L1239.92 1518.22 L1239.92 1526.7 Q1240.94 1526.35 1241.96 1526.19 Q1242.98 1526 1243.99 1526 Q1249.78 1526 1253.16 1529.17 Q1256.54 1532.34 1256.54 1537.76 Q1256.54 1543.34 1253.07 1546.44 Q1249.6 1549.52 1243.28 1549.52 Q1241.1 1549.52 1238.83 1549.15 Q1236.59 1548.78 1234.18 1548.04 L1234.18 1543.34 Q1236.26 1544.47 1238.49 1545.03 Q1240.71 1545.58 1243.18 1545.58 Q1247.19 1545.58 1249.53 1543.48 Q1251.86 1541.37 1251.86 1537.76 Q1251.86 1534.15 1249.53 1532.04 Q1247.19 1529.94 1243.18 1529.94 Q1241.31 1529.94 1239.43 1530.35 Q1237.58 1530.77 1235.64 1531.65 L1235.64 1514.29 Z" fill="#000000" fill-rule="nonzero" fill-opacity="1" /><path clip-path="url(#clip590)" d="M1265.75 1542.97 L1270.64 1542.97 L1270.64 1548.85 L1265.75 1548.85 L1265.75 1542.97 Z" fill="#000000" fill-rule="nonzero" fill-opacity="1" /><path clip-path="url(#clip590)" d="M1290.82 1517.37 Q1287.21 1517.37 1285.38 1520.93 Q1283.58 1524.47 1283.58 1531.6 Q1283.58 1538.71 1285.38 1542.27 Q1287.21 1545.82 1290.82 1545.82 Q1294.46 1545.82 1296.26 1542.27 Q1298.09 1538.71 1298.09 1531.6 Q1298.09 1524.47 1296.26 1520.93 Q1294.46 1517.37 1290.82 1517.37 M1290.82 1513.66 Q1296.63 1513.66 1299.69 1518.27 Q1302.77 1522.85 1302.77 1531.6 Q1302.77 1540.33 1299.69 1544.94 Q1296.63 1549.52 1290.82 1549.52 Q1285.01 1549.52 1281.93 1544.94 Q1278.88 1540.33 1278.88 1531.6 Q1278.88 1522.85 1281.93 1518.27 Q1285.01 1513.66 1290.82 1513.66 Z" fill="#000000" fill-rule="nonzero" fill-opacity="1" /><path clip-path="url(#clip590)" d="M1746.25 1514.29 L1768.47 1514.29 L1768.47 1516.28 L1755.92 1548.85 L1751.04 1548.85 L1762.84 1518.22 L1746.25 1518.22 L1746.25 1514.29 Z" fill="#000000" fill-rule="nonzero" fill-opacity="1" /><path clip-path="url(#clip590)" d="M1777.59 1542.97 L1782.47 1542.97 L1782.47 1548.85 L1777.59 1548.85 L1777.59 1542.97 Z" fill="#000000" fill-rule="nonzero" fill-opacity="1" /><path clip-path="url(#clip590)" d="M1792.71 1514.29 L1811.06 1514.29 L1811.06 1518.22 L1796.99 1518.22 L1796.99 1526.7 Q1798.01 1526.35 1799.02 1526.19 Q1800.04 1526 1801.06 1526 Q1806.85 1526 1810.23 1529.17 Q1813.61 1532.34 1813.61 1537.76 Q1813.61 1543.34 1810.14 1546.44 Q1806.66 1549.52 1800.34 1549.52 Q1798.17 1549.52 1795.9 1549.15 Q1793.65 1548.78 1791.25 1548.04 L1791.25 1543.34 Q1793.33 1544.47 1795.55 1545.03 Q1797.77 1545.58 1800.25 1545.58 Q1804.26 1545.58 1806.59 1543.48 Q1808.93 1541.37 1808.93 1537.76 Q1808.93 1534.15 1806.59 1532.04 Q1804.26 1529.94 1800.25 1529.94 Q1798.38 1529.94 1796.5 1530.35 Q1794.65 1530.77 1792.71 1531.65 L1792.71 1514.29 Z" fill="#000000" fill-rule="nonzero" fill-opacity="1" /><path clip-path="url(#clip590)" d="M2243.45 1544.91 L2251.09 1544.91 L2251.09 1518.55 L2242.78 1520.21 L2242.78 1515.95 L2251.05 1514.29 L2255.72 1514.29 L2255.72 1544.91 L2263.36 1544.91 L2263.36 1548.85 L2243.45 1548.85 L2243.45 1544.91 Z" fill="#000000" fill-rule="nonzero" fill-opacity="1" /><path clip-path="url(#clip590)" d="M2282.81 1517.37 Q2279.19 1517.37 2277.37 1520.93 Q2275.56 1524.47 2275.56 1531.6 Q2275.56 1538.71 2277.37 1542.27 Q2279.19 1545.82 2282.81 1545.82 Q2286.44 1545.82 2288.24 1542.27 Q2290.07 1538.71 2290.07 1531.6 Q2290.07 1524.47 2288.24 1520.93 Q2286.44 1517.37 2282.81 1517.37 M2282.81 1513.66 Q2288.62 1513.66 2291.67 1518.27 Q2294.75 1522.85 2294.75 1531.6 Q2294.75 1540.33 2291.67 1544.94 Q2288.62 1549.52 2282.81 1549.52 Q2276.99 1549.52 2273.92 1544.94 Q2270.86 1540.33 2270.86 1531.6 Q2270.86 1522.85 2273.92 1518.27 Q2276.99 1513.66 2282.81 1513.66 Z" fill="#000000" fill-rule="nonzero" fill-opacity="1" /><path clip-path="url(#clip590)" d="M2302.97 1542.97 L2307.85 1542.97 L2307.85 1548.85 L2302.97 1548.85 L2302.97 1542.97 Z" fill="#000000" fill-rule="nonzero" fill-opacity="1" /><path clip-path="url(#clip590)" d="M2328.04 1517.37 Q2324.43 1517.37 2322.6 1520.93 Q2320.79 1524.47 2320.79 1531.6 Q2320.79 1538.71 2322.6 1542.27 Q2324.43 1545.82 2328.04 1545.82 Q2331.67 1545.82 2333.48 1542.27 Q2335.3 1538.71 2335.3 1531.6 Q2335.3 1524.47 2333.48 1520.93 Q2331.67 1517.37 2328.04 1517.37 M2328.04 1513.66 Q2333.85 1513.66 2336.9 1518.27 Q2339.98 1522.85 2339.98 1531.6 Q2339.98 1540.33 2336.9 1544.94 Q2333.85 1549.52 2328.04 1549.52 Q2322.23 1549.52 2319.15 1544.94 Q2316.09 1540.33 2316.09 1531.6 Q2316.09 1522.85 2319.15 1518.27 Q2322.23 1513.66 2328.04 1513.66 Z" fill="#000000" fill-rule="nonzero" fill-opacity="1" /><polyline clip-path="url(#clip590)" style="stroke:#000000; stroke-linecap:round; stroke-linejoin:round; stroke-width:4; stroke-opacity:1; fill:none" points="184.191,1486.45 184.191,47.2441 "/>
<polyline clip-path="url(#clip590)" style="stroke:#000000; stroke-linecap:round; stroke-linejoin:round; stroke-width:4; stroke-opacity:1; fill:none" points="184.191,1455.73 203.088,1455.73 "/>
<polyline clip-path="url(#clip590)" style="stroke:#000000; stroke-linecap:round; stroke-linejoin:round; stroke-width:4; stroke-opacity:1; fill:none" points="184.191,1145.78 203.088,1145.78 "/>
<polyline clip-path="url(#clip590)" style="stroke:#000000; stroke-linecap:round; stroke-linejoin:round; stroke-width:4; stroke-opacity:1; fill:none" points="184.191,835.836 203.088,835.836 "/>
<polyline clip-path="url(#clip590)" style="stroke:#000000; stroke-linecap:round; stroke-linejoin:round; stroke-width:4; stroke-opacity:1; fill:none" points="184.191,525.891 203.088,525.891 "/>
<polyline clip-path="url(#clip590)" style="stroke:#000000; stroke-linecap:round; stroke-linejoin:round; stroke-width:4; stroke-opacity:1; fill:none" points="184.191,215.946 203.088,215.946 "/>
<path clip-path="url(#clip590)" d="M91.0151 1441.53 Q87.404 1441.53 85.5753 1445.09 Q83.7697 1448.63 83.7697 1455.76 Q83.7697 1462.87 85.5753 1466.43 Q87.404 1469.97 91.0151 1469.97 Q94.6493 1469.97 96.4548 1466.43 Q98.2835 1462.87 98.2835 1455.76 Q98.2835 1448.63 96.4548 1445.09 Q94.6493 1441.53 91.0151 1441.53 M91.0151 1437.82 Q96.8252 1437.82 99.8808 1442.43 Q102.959 1447.01 102.959 1455.76 Q102.959 1464.49 99.8808 1469.09 Q96.8252 1473.68 91.0151 1473.68 Q85.2049 1473.68 82.1262 1469.09 Q79.0707 1464.49 79.0707 1455.76 Q79.0707 1447.01 82.1262 1442.43 Q85.2049 1437.82 91.0151 1437.82 Z" fill="#000000" fill-rule="nonzero" fill-opacity="1" /><path clip-path="url(#clip590)" d="M111.177 1467.13 L116.061 1467.13 L116.061 1473.01 L111.177 1473.01 L111.177 1467.13 Z" fill="#000000" fill-rule="nonzero" fill-opacity="1" /><path clip-path="url(#clip590)" d="M136.246 1441.53 Q132.635 1441.53 130.807 1445.09 Q129.001 1448.63 129.001 1455.76 Q129.001 1462.87 130.807 1466.43 Q132.635 1469.97 136.246 1469.97 Q139.881 1469.97 141.686 1466.43 Q143.515 1462.87 143.515 1455.76 Q143.515 1448.63 141.686 1445.09 Q139.881 1441.53 136.246 1441.53 M136.246 1437.82 Q142.056 1437.82 145.112 1442.43 Q148.191 1447.01 148.191 1455.76 Q148.191 1464.49 145.112 1469.09 Q142.056 1473.68 136.246 1473.68 Q130.436 1473.68 127.357 1469.09 Q124.302 1464.49 124.302 1455.76 Q124.302 1447.01 127.357 1442.43 Q130.436 1437.82 136.246 1437.82 Z" fill="#000000" fill-rule="nonzero" fill-opacity="1" /><path clip-path="url(#clip590)" d="M86.0382 1159.13 L102.358 1159.13 L102.358 1163.06 L80.4133 1163.06 L80.4133 1159.13 Q83.0753 1156.37 87.6586 1151.74 Q92.2651 1147.09 93.4456 1145.75 Q95.691 1143.22 96.5706 1141.49 Q97.4734 1139.73 97.4734 1138.04 Q97.4734 1135.28 95.5289 1133.55 Q93.6076 1131.81 90.5058 1131.81 Q88.3067 1131.81 85.8531 1132.58 Q83.4225 1133.34 80.6447 1134.89 L80.6447 1130.17 Q83.4688 1129.03 85.9225 1128.46 Q88.3762 1127.88 90.4132 1127.88 Q95.7836 1127.88 98.978 1130.56 Q102.172 1133.25 102.172 1137.74 Q102.172 1139.87 101.362 1141.79 Q100.575 1143.69 98.4687 1146.28 Q97.89 1146.95 94.7882 1150.17 Q91.6864 1153.36 86.0382 1159.13 Z" fill="#000000" fill-rule="nonzero" fill-opacity="1" /><path clip-path="url(#clip590)" d="M112.172 1157.18 L117.057 1157.18 L117.057 1163.06 L112.172 1163.06 L112.172 1157.18 Z" fill="#000000" fill-rule="nonzero" fill-opacity="1" /><path clip-path="url(#clip590)" d="M127.288 1128.5 L145.644 1128.5 L145.644 1132.44 L131.57 1132.44 L131.57 1140.91 Q132.589 1140.56 133.607 1140.4 Q134.626 1140.21 135.644 1140.21 Q141.431 1140.21 144.811 1143.39 Q148.191 1146.56 148.191 1151.97 Q148.191 1157.55 144.718 1160.65 Q141.246 1163.73 134.927 1163.73 Q132.751 1163.73 130.482 1163.36 Q128.237 1162.99 125.83 1162.25 L125.83 1157.55 Q127.913 1158.69 130.135 1159.24 Q132.357 1159.8 134.834 1159.8 Q138.839 1159.8 141.177 1157.69 Q143.515 1155.58 143.515 1151.97 Q143.515 1148.36 141.177 1146.26 Q138.839 1144.15 134.834 1144.15 Q132.959 1144.15 131.084 1144.57 Q129.232 1144.98 127.288 1145.86 L127.288 1128.5 Z" fill="#000000" fill-rule="nonzero" fill-opacity="1" /><path clip-path="url(#clip590)" d="M81.0614 818.556 L99.4178 818.556 L99.4178 822.492 L85.3438 822.492 L85.3438 830.964 Q86.3623 830.617 87.3808 830.454 Q88.3993 830.269 89.4178 830.269 Q95.2049 830.269 98.5845 833.441 Q101.964 836.612 101.964 842.029 Q101.964 847.607 98.4919 850.709 Q95.0197 853.788 88.7003 853.788 Q86.5243 853.788 84.2558 853.417 Q82.0105 853.047 79.6031 852.306 L79.6031 847.607 Q81.6864 848.741 83.9086 849.297 Q86.1308 849.853 88.6077 849.853 Q92.6123 849.853 94.9502 847.746 Q97.2882 845.64 97.2882 842.029 Q97.2882 838.417 94.9502 836.311 Q92.6123 834.204 88.6077 834.204 Q86.7327 834.204 84.8577 834.621 Q83.0058 835.038 81.0614 835.917 L81.0614 818.556 Z" fill="#000000" fill-rule="nonzero" fill-opacity="1" /><path clip-path="url(#clip590)" d="M111.177 847.237 L116.061 847.237 L116.061 853.116 L111.177 853.116 L111.177 847.237 Z" fill="#000000" fill-rule="nonzero" fill-opacity="1" /><path clip-path="url(#clip590)" d="M136.246 821.635 Q132.635 821.635 130.807 825.2 Q129.001 828.742 129.001 835.871 Q129.001 842.978 130.807 846.542 Q132.635 850.084 136.246 850.084 Q139.881 850.084 141.686 846.542 Q143.515 842.978 143.515 835.871 Q143.515 828.742 141.686 825.2 Q139.881 821.635 136.246 821.635 M136.246 817.931 Q142.056 817.931 145.112 822.538 Q148.191 827.121 148.191 835.871 Q148.191 844.598 145.112 849.204 Q142.056 853.788 136.246 853.788 Q130.436 853.788 127.357 849.204 Q124.302 844.598 124.302 835.871 Q124.302 827.121 127.357 822.538 Q130.436 817.931 136.246 817.931 Z" fill="#000000" fill-rule="nonzero" fill-opacity="1" /><path clip-path="url(#clip590)" d="M80.8299 508.611 L103.052 508.611 L103.052 510.602 L90.5058 543.171 L85.6216 543.171 L97.4271 512.546 L80.8299 512.546 L80.8299 508.611 Z" fill="#000000" fill-rule="nonzero" fill-opacity="1" /><path clip-path="url(#clip590)" d="M112.172 537.292 L117.057 537.292 L117.057 543.171 L112.172 543.171 L112.172 537.292 Z" fill="#000000" fill-rule="nonzero" fill-opacity="1" /><path clip-path="url(#clip590)" d="M127.288 508.611 L145.644 508.611 L145.644 512.546 L131.57 512.546 L131.57 521.019 Q132.589 520.671 133.607 520.509 Q134.626 520.324 135.644 520.324 Q141.431 520.324 144.811 523.495 Q148.191 526.667 148.191 532.083 Q148.191 537.662 144.718 540.764 Q141.246 543.843 134.927 543.843 Q132.751 543.843 130.482 543.472 Q128.237 543.102 125.83 542.361 L125.83 537.662 Q127.913 538.796 130.135 539.352 Q132.357 539.907 134.834 539.907 Q138.839 539.907 141.177 537.801 Q143.515 535.694 143.515 532.083 Q143.515 528.472 141.177 526.366 Q138.839 524.259 134.834 524.259 Q132.959 524.259 131.084 524.676 Q129.232 525.093 127.288 525.972 L127.288 508.611 Z" fill="#000000" fill-rule="nonzero" fill-opacity="1" /><path clip-path="url(#clip590)" d="M51.6634 229.291 L59.3023 229.291 L59.3023 202.925 L50.9921 204.592 L50.9921 200.333 L59.256 198.666 L63.9319 198.666 L63.9319 229.291 L71.5707 229.291 L71.5707 233.226 L51.6634 233.226 L51.6634 229.291 Z" fill="#000000" fill-rule="nonzero" fill-opacity="1" /><path clip-path="url(#clip590)" d="M91.0151 201.745 Q87.404 201.745 85.5753 205.31 Q83.7697 208.851 83.7697 215.981 Q83.7697 223.087 85.5753 226.652 Q87.404 230.194 91.0151 230.194 Q94.6493 230.194 96.4548 226.652 Q98.2835 223.087 98.2835 215.981 Q98.2835 208.851 96.4548 205.31 Q94.6493 201.745 91.0151 201.745 M91.0151 198.041 Q96.8252 198.041 99.8808 202.648 Q102.959 207.231 102.959 215.981 Q102.959 224.708 99.8808 229.314 Q96.8252 233.897 91.0151 233.897 Q85.2049 233.897 82.1262 229.314 Q79.0707 224.708 79.0707 215.981 Q79.0707 207.231 82.1262 202.648 Q85.2049 198.041 91.0151 198.041 Z" fill="#000000" fill-rule="nonzero" fill-opacity="1" /><path clip-path="url(#clip590)" d="M111.177 227.347 L116.061 227.347 L116.061 233.226 L111.177 233.226 L111.177 227.347 Z" fill="#000000" fill-rule="nonzero" fill-opacity="1" /><path clip-path="url(#clip590)" d="M136.246 201.745 Q132.635 201.745 130.807 205.31 Q129.001 208.851 129.001 215.981 Q129.001 223.087 130.807 226.652 Q132.635 230.194 136.246 230.194 Q139.881 230.194 141.686 226.652 Q143.515 223.087 143.515 215.981 Q143.515 208.851 141.686 205.31 Q139.881 201.745 136.246 201.745 M136.246 198.041 Q142.056 198.041 145.112 202.648 Q148.191 207.231 148.191 215.981 Q148.191 224.708 145.112 229.314 Q142.056 233.897 136.246 233.897 Q130.436 233.897 127.357 229.314 Q124.302 224.708 124.302 215.981 Q124.302 207.231 127.357 202.648 Q130.436 198.041 136.246 198.041 Z" fill="#000000" fill-rule="nonzero" fill-opacity="1" /><path clip-path="url(#clip591)" d="M245.565 1331.75 L266.023 1328.59 L286.481 1318.27 L306.94 1312.28 L327.398 1307.25 L347.856 1281.66 L368.314 1269.92 L388.772 1251.4 L409.23 1207.08 L429.689 1176.57 L450.147 1132.63 L470.605 1098.47 L491.063 1061.95 L511.521 1012.56 L531.979 995.487 L552.438 956.125 L572.896 876.988 L593.354 896.684 L613.812 878.657 L634.27 833.133 L654.728 795.319 L675.187 793.681 L695.645 908.501 L716.103 1052.11 L736.561 1164.95 L757.019 1248.29 L777.477 1289.21 L797.936 1319.79 L818.394 1331.7 L838.852 1340.77 L859.31 1349.13 L879.768 1354.47 L900.226 1354.7 L920.685 1351.81 L941.143 1350.23 L961.601 1352.61 L982.059 1343.53 L1002.52 1338.46 L1022.98 1325.99 L1043.43 1321.46 L1063.89 1312.76 L1084.35 1298.57 L1104.81 1271.72 L1125.27 1224.67 L1145.72 1205.5 L1166.18 1178.16 L1186.64 1123.62 L1207.1 1079.94 L1227.56 1048.64 L1248.02 1026.66 L1268.47 1025.89 L1288.93 1037.18 L1309.39 1076.81 L1329.85 1145.37 L1350.31 1181.34 L1370.76 1209.49 L1391.22 1237 L1411.68 1278.25 L1432.14 1301.21 L1452.6 1328.64 L1473.05 1352.91 L1493.51 1366.77 L1513.97 1371.38 L1534.43 1383.05 L1554.89 1390.28 L1575.35 1396.42 L1595.8 1393.8 L1616.26 1397.32 L1636.72 1393.69 L1657.18 1391.74 L1677.64 1381.98 L1698.09 1373.21 L1718.55 1366.12 L1739.01 1352.62 L1759.47 1344.8 L1779.93 1333 L1800.39 1318.1 L1820.84 1289.89 L1841.3 1267.05 L1861.76 1219.83 L1882.22 1183.81 L1902.68 1158.53 L1923.13 1151.3 L1943.59 1149.88 L1964.05 1168.42 L1984.51 1214.43 L2004.97 1239.11 L2025.43 1253.79 L2045.88 1269.91 L2066.34 1262.16 L2086.8 1272.04 L2107.26 1270.47 L2127.72 1300.77 L2148.17 1326.02 L2168.63 1346.94 L2189.09 1361.72 L2209.55 1375.26 L2230.01 1388.82 L2250.47 1394.8 L2270.92 1396.65 L2291.38 1407.34 L2291.38 1106.89 L2270.92 1140.54 L2250.47 1175.6 L2230.01 1184.26 L2209.55 1094.46 L2189.09 832.791 L2168.63 422.498 L2148.17 87.9763 L2127.72 109.569 L2107.26 270.618 L2086.8 412.991 L2066.34 469.843 L2045.88 500.019 L2025.43 520.068 L2004.97 540.888 L1984.51 551.334 L1964.05 582.735 L1943.59 668.574 L1923.13 728.751 L1902.68 781.309 L1882.22 859.069 L1861.76 846.601 L1841.3 822.579 L1820.84 806.88 L1800.39 807.378 L1779.93 834.216 L1759.47 859.474 L1739.01 859.022 L1718.55 934.359 L1698.09 985.868 L1677.64 1021.48 L1657.18 1069.92 L1636.72 1107.4 L1616.26 1130.79 L1595.8 1173.38 L1575.35 1205.24 L1554.89 1222.31 L1534.43 1235.82 L1513.97 1239.22 L1493.51 1238.77 L1473.05 1160.88 L1452.6 937.304 L1432.14 695.399 L1411.68 541.895 L1391.22 417.377 L1370.76 399.718 L1350.31 481.262 L1329.85 470.616 L1309.39 487.032 L1288.93 517.442 L1268.47 565.789 L1248.02 650.473 L1227.56 720.876 L1207.1 786.757 L1186.64 806.022 L1166.18 801.333 L1145.72 876.032 L1125.27 914.094 L1104.81 934.666 L1084.35 1008.67 L1063.89 1060.77 L1043.43 1114.83 L1022.98 1148.37 L1002.52 1206.91 L982.059 1253.34 L961.601 1283.23 L941.143 1288.24 L920.685 1293.85 L900.226 1283.63 L879.768 1286.62 L859.31 1256.33 L838.852 1195.94 L818.394 1113.51 L797.936 1001.01 L777.477 907.652 L757.019 734.892 L736.561 710.068 L716.103 735.11 L695.645 677.401 L675.187 675.432 L654.728 611.654 L634.27 584.415 L613.812 617.234 L593.354 664.839 L572.896 731.412 L552.438 798.269 L531.979 843.196 L511.521 919.521 L491.063 979.769 L470.605 1046.39 L450.147 1091.68 L429.689 1131.1 L409.23 1170.95 L388.772 1206.34 L368.314 1234.19 L347.856 1256.28 L327.398 1277.53 L306.94 1292.5 L286.481 1306.79 L266.023 1320.02 L245.565 1331.75  Z" fill="#009af9" fill-rule="evenodd" fill-opacity="0.5"/>
<polyline clip-path="url(#clip591)" style="stroke:#009af9; stroke-linecap:round; stroke-linejoin:round; stroke-width:12; stroke-opacity:1; fill:none" points="245.565,1331.75 266.023,1324.6 286.481,1315.16 306.94,1301.39 327.398,1285.1 347.856,1265.2 368.314,1243.93 388.772,1217.7 409.23,1186.65 429.689,1150.12 450.147,1112.1 470.605,1063.18 491.063,1013.74 511.521,955.765 531.979,892.041 552.438,827.642 572.896,773.315 593.354,713.25 613.812,667.776 634.27,635.999 654.728,642.604 675.187,695.91 695.645,816.348 716.103,954.934 736.561,1071.52 757.019,1158.86 777.477,1234.95 797.936,1283.8 818.394,1311.41 838.852,1320.73 859.31,1328.36 879.768,1329.72 900.226,1326.02 920.685,1319.36 941.143,1323.03 961.601,1313.51 982.059,1301.05 1002.52,1285.52 1022.98,1266.28 1043.43,1243.38 1063.89,1214.27 1084.35,1184.53 1104.81,1144.9 1125.27,1108.13 1145.72,1065.59 1166.18,1011.11 1186.64,946.659 1207.1,875.443 1227.56,841.742 1248.02,789.787 1268.47,760.197 1288.93,684.67 1309.39,616.837 1329.85,619.027 1350.31,668.144 1370.76,786.821 1391.22,940.16 1411.68,1097.99 1432.14,1200.44 1452.6,1239.16 1473.05,1269 1493.51,1310.16 1513.97,1337.16 1534.43,1348.84 1554.89,1352.81 1575.35,1347.62 1595.8,1340.5 1616.26,1334.48 1636.72,1322.86 1657.18,1308.16 1677.64,1292.68 1698.09,1273.99 1718.55,1251.19 1739.01,1225.89 1759.47,1196.61 1779.93,1162.91 1800.39,1128.77 1820.84,1086.78 1841.3,1037.91 1861.76,998.82 1882.22,988.258 1902.68,959.806 1923.13,943.085 1943.59,887.378 1964.05,802.552 1984.51,712.061 2004.97,692.519 2025.43,683.466 2045.88,735.834 2066.34,869.147 2086.8,993.813 2107.26,1112.81 2127.72,1169.28 2148.17,1186.26 2168.63,1254.72 2189.09,1295.32 2209.55,1304.49 2230.01,1295.42 2250.47,1323.54 2270.92,1339.67 2291.38,1340.51 "/>
<path clip-path="url(#clip591)" d="M245.565 1331.75 L266.023 1359.89 L286.481 1378.58 L306.94 1391.12 L327.398 1399.12 L347.856 1409.39 L368.314 1417.32 L388.772 1423.15 L409.23 1427 L429.689 1429.35 L450.147 1429.16 L470.605 1429.79 L491.063 1428.28 L511.521 1427.16 L531.979 1424.9 L552.438 1421.29 L572.896 1414.53 L593.354 1407.29 L613.812 1399.51 L634.27 1387.72 L654.728 1369.12 L675.187 1340.77 L695.645 1299.88 L716.103 1242.87 L736.561 1176.9 L757.019 1099.18 L777.477 1070.71 L797.936 1108.27 L818.394 1179.1 L838.852 1237.81 L859.31 1277.24 L879.768 1313.85 L900.226 1337.16 L920.685 1357.18 L941.143 1368.99 L961.601 1382.9 L982.059 1398.27 L1002.52 1409.68 L1022.98 1416.02 L1043.43 1422.23 L1063.89 1424.52 L1084.35 1428.84 L1104.81 1431.88 L1125.27 1433.37 L1145.72 1435.7 L1166.18 1436.17 L1186.64 1435.96 L1207.1 1434.42 L1227.56 1433.29 L1248.02 1433.1 L1268.47 1428.98 L1288.93 1422.72 L1309.39 1412.65 L1329.85 1394.18 L1350.31 1362.63 L1370.76 1301.26 L1391.22 1236.27 L1411.68 1231.25 L1432.14 1260.25 L1452.6 1281.69 L1473.05 1297.27 L1493.51 1310.92 L1513.97 1333.22 L1534.43 1348.31 L1554.89 1367.97 L1575.35 1380.98 L1595.8 1389.3 L1616.26 1398.75 L1636.72 1405.5 L1657.18 1410.78 L1677.64 1417.02 L1698.09 1424.04 L1718.55 1430.91 L1739.01 1433.83 L1759.47 1437.19 L1779.93 1438.57 L1800.39 1439.93 L1820.84 1441.7 L1841.3 1443.8 L1861.76 1444.19 L1882.22 1444.75 L1902.68 1444.62 L1923.13 1445.14 L1943.59 1445.72 L1964.05 1445.43 L1984.51 1444.37 L2004.97 1443.2 L2025.43 1439.12 L2045.88 1433.76 L2066.34 1424.98 L2086.8 1412.25 L2107.26 1370.53 L2127.72 1359.66 L2148.17 1333.89 L2168.63 1347.44 L2189.09 1360.3 L2209.55 1367.88 L2230.01 1375.94 L2250.47 1378.59 L2270.92 1386.11 L2291.38 1390.52 L2291.38 1021.58 L2270.92 889.869 L2250.47 724.104 L2230.01 637.018 L2209.55 512.937 L2189.09 584.554 L2168.63 767.481 L2148.17 727.674 L2127.72 753.3 L2107.26 817.396 L2086.8 884.826 L2066.34 930.005 L2045.88 1006.64 L2025.43 1098.88 L2004.97 1101.15 L1984.51 1055.02 L1964.05 1044.27 L1943.59 1017.93 L1923.13 1018.59 L1902.68 1059.95 L1882.22 1074.29 L1861.76 1134.69 L1841.3 1182.52 L1820.84 1224.89 L1800.39 1276.61 L1779.93 1315.55 L1759.47 1328.96 L1739.01 1347.4 L1718.55 1358.56 L1698.09 1366.02 L1677.64 1358.18 L1657.18 1353.4 L1636.72 1329.47 L1616.26 1297.7 L1595.8 1243.52 L1575.35 1182.06 L1554.89 1087.43 L1534.43 988.057 L1513.97 871.58 L1493.51 785.57 L1473.05 711.303 L1452.6 704.693 L1432.14 751.084 L1411.68 794.734 L1391.22 746.951 L1370.76 748.221 L1350.31 875.294 L1329.85 1003.07 L1309.39 1105.19 L1288.93 1127.68 L1268.47 1121.69 L1248.02 1166.75 L1227.56 1211.96 L1207.1 1266.79 L1186.64 1306.67 L1166.18 1341.84 L1145.72 1363.8 L1125.27 1378.29 L1104.81 1385.65 L1084.35 1391.04 L1063.89 1387.18 L1043.43 1376.74 L1022.98 1359.01 L1002.52 1331.9 L982.059 1302.61 L961.601 1268.42 L941.143 1224.32 L920.685 1177.65 L900.226 1112.39 L879.768 1057.44 L859.31 1004.45 L838.852 946.574 L818.394 913.651 L797.936 936.895 L777.477 904.753 L757.019 898.011 L736.561 805.216 L716.103 807.087 L695.645 923.854 L675.187 1049.66 L654.728 1156.87 L634.27 1251.12 L613.812 1307.47 L593.354 1345.77 L572.896 1373.25 L552.438 1388.43 L531.979 1402 L511.521 1410.68 L491.063 1417.19 L470.605 1417.34 L450.147 1418.88 L429.689 1418.2 L409.23 1417.05 L388.772 1414.46 L368.314 1407.23 L347.856 1400.25 L327.398 1391.01 L306.94 1381.43 L286.481 1370.27 L266.023 1349.61 L245.565 1331.75  Z" fill="#e26f46" fill-rule="evenodd" fill-opacity="0.5"/>
<polyline clip-path="url(#clip591)" style="stroke:#e26f46; stroke-linecap:round; stroke-linejoin:round; stroke-width:12; stroke-opacity:1; fill:none" points="245.565,1331.75 266.023,1354.83 286.481,1371.81 306.94,1385.88 327.398,1396.47 347.856,1405.02 368.314,1411.9 388.772,1416.71 409.23,1419.96 429.689,1422.53 450.147,1422.82 470.605,1423.03 491.063,1422.32 511.521,1418.97 531.979,1414.49 552.438,1405.63 572.896,1392.37 593.354,1372.19 613.812,1338.4 634.27,1285.64 654.728,1210.23 675.187,1113.02 695.645,1018.01 716.103,953.146 736.561,924.426 757.019,933.77 777.477,966.554 797.936,1021.4 818.394,1090.96 838.852,1162.51 859.31,1220.18 879.768,1266.05 900.226,1297.33 920.685,1328.24 941.143,1356.28 961.601,1376.31 982.059,1389.09 1002.52,1396.76 1022.98,1404.04 1043.43,1409.86 1063.89,1415.05 1084.35,1418.87 1104.81,1421.48 1125.27,1422.17 1145.72,1422.92 1166.18,1422.35 1186.64,1420.19 1207.1,1415.44 1227.56,1408.21 1248.02,1396.82 1268.47,1378.59 1288.93,1348.2 1309.39,1299.5 1329.85,1204.95 1350.31,1123.85 1370.76,1069.98 1391.22,985.856 1411.68,890.559 1432.14,902.301 1452.6,956.878 1473.05,1022.55 1493.51,1091.92 1513.97,1153.45 1534.43,1210.28 1554.89,1258.94 1575.35,1303.15 1595.8,1336.05 1616.26,1350.96 1636.72,1367.66 1657.18,1382.53 1677.64,1393.91 1698.09,1400.97 1718.55,1411.1 1739.01,1416.64 1759.47,1422.36 1779.93,1425.83 1800.39,1428.21 1820.84,1429.69 1841.3,1429.26 1861.76,1425.33 1882.22,1420.06 1902.68,1415.74 1923.13,1403.71 1943.59,1385.31 1964.05,1364.6 1984.51,1310.69 2004.97,1244.68 2025.43,1193.82 2045.88,1194.83 2066.34,1193.78 2086.8,1130.97 2107.26,1140.05 2127.72,1099.64 2148.17,1013.62 2168.63,999.486 2189.09,1064.88 2209.55,1129.14 2230.01,1181.7 2250.47,1261.09 2270.92,1300.51 2291.38,1325.37 "/>
</svg>
