<?xml version="1.0" encoding="utf-8"?>
<svg xmlns="http://www.w3.org/2000/svg" xmlns:xlink="http://www.w3.org/1999/xlink" width="600" height="400" viewBox="0 0 2400 1600">
<defs>
  <clipPath id="clip610">
    <rect x="0" y="0" width="2400" height="1600"/>
  </clipPath>
</defs>
<path clip-path="url(#clip610)" d="M0 1600 L2400 1600 L2400 0 L0 0  Z" fill="#ffffff" fill-rule="evenodd" fill-opacity="1"/>
<defs>
  <clipPath id="clip611">
    <rect x="480" y="0" width="1681" height="1600"/>
  </clipPath>
</defs>
<path clip-path="url(#clip610)" d="M155.765 1486.45 L2352.76 1486.45 L2352.76 47.2441 L155.765 47.2441  Z" fill="#ffffff" fill-rule="evenodd" fill-opacity="1"/>
<defs>
  <clipPath id="clip612">
    <rect x="155" y="47" width="2198" height="1440"/>
  </clipPath>
</defs>
<polyline clip-path="url(#clip612)" style="stroke:#000000; stroke-linecap:round; stroke-linejoin:round; stroke-width:2; stroke-opacity:0.1; fill:none" points="217.944,1486.45 217.944,47.2441 "/>
<polyline clip-path="url(#clip612)" style="stroke:#000000; stroke-linecap:round; stroke-linejoin:round; stroke-width:2; stroke-opacity:0.1; fill:none" points="736.102,1486.45 736.102,47.2441 "/>
<polyline clip-path="url(#clip612)" style="stroke:#000000; stroke-linecap:round; stroke-linejoin:round; stroke-width:2; stroke-opacity:0.1; fill:none" points="1254.26,1486.45 1254.26,47.2441 "/>
<polyline clip-path="url(#clip612)" style="stroke:#000000; stroke-linecap:round; stroke-linejoin:round; stroke-width:2; stroke-opacity:0.1; fill:none" points="1772.42,1486.45 1772.42,47.2441 "/>
<polyline clip-path="url(#clip612)" style="stroke:#000000; stroke-linecap:round; stroke-linejoin:round; stroke-width:2; stroke-opacity:0.1; fill:none" points="2290.58,1486.45 2290.58,47.2441 "/>
<polyline clip-path="url(#clip612)" style="stroke:#000000; stroke-linecap:round; stroke-linejoin:round; stroke-width:2; stroke-opacity:0.1; fill:none" points="155.765,1368.84 2352.76,1368.84 "/>
<polyline clip-path="url(#clip612)" style="stroke:#000000; stroke-linecap:round; stroke-linejoin:round; stroke-width:2; stroke-opacity:0.1; fill:none" points="155.765,1128.38 2352.76,1128.38 "/>
<polyline clip-path="url(#clip612)" style="stroke:#000000; stroke-linecap:round; stroke-linejoin:round; stroke-width:2; stroke-opacity:0.1; fill:none" points="155.765,887.917 2352.76,887.917 "/>
<polyline clip-path="url(#clip612)" style="stroke:#000000; stroke-linecap:round; stroke-linejoin:round; stroke-width:2; stroke-opacity:0.1; fill:none" points="155.765,647.457 2352.76,647.457 "/>
<polyline clip-path="url(#clip612)" style="stroke:#000000; stroke-linecap:round; stroke-linejoin:round; stroke-width:2; stroke-opacity:0.1; fill:none" points="155.765,406.997 2352.76,406.997 "/>
<polyline clip-path="url(#clip612)" style="stroke:#000000; stroke-linecap:round; stroke-linejoin:round; stroke-width:2; stroke-opacity:0.1; fill:none" points="155.765,166.537 2352.76,166.537 "/>
<polyline clip-path="url(#clip610)" style="stroke:#000000; stroke-linecap:round; stroke-linejoin:round; stroke-width:4; stroke-opacity:1; fill:none" points="155.765,1486.45 2352.76,1486.45 "/>
<polyline clip-path="url(#clip610)" style="stroke:#000000; stroke-linecap:round; stroke-linejoin:round; stroke-width:4; stroke-opacity:1; fill:none" points="217.944,1486.45 217.944,1467.55 "/>
<polyline clip-path="url(#clip610)" style="stroke:#000000; stroke-linecap:round; stroke-linejoin:round; stroke-width:4; stroke-opacity:1; fill:none" points="736.102,1486.45 736.102,1467.55 "/>
<polyline clip-path="url(#clip610)" style="stroke:#000000; stroke-linecap:round; stroke-linejoin:round; stroke-width:4; stroke-opacity:1; fill:none" points="1254.26,1486.45 1254.26,1467.55 "/>
<polyline clip-path="url(#clip610)" style="stroke:#000000; stroke-linecap:round; stroke-linejoin:round; stroke-width:4; stroke-opacity:1; fill:none" points="1772.42,1486.45 1772.42,1467.55 "/>
<polyline clip-path="url(#clip610)" style="stroke:#000000; stroke-linecap:round; stroke-linejoin:round; stroke-width:4; stroke-opacity:1; fill:none" points="2290.58,1486.45 2290.58,1467.55 "/>
<path clip-path="url(#clip610)" d="M180.247 1517.37 Q176.636 1517.37 174.808 1520.93 Q173.002 1524.47 173.002 1531.6 Q173.002 1538.71 174.808 1542.27 Q176.636 1545.82 180.247 1545.82 Q183.882 1545.82 185.687 1542.27 Q187.516 1538.71 187.516 1531.6 Q187.516 1524.47 185.687 1520.93 Q183.882 1517.37 180.247 1517.37 M180.247 1513.66 Q186.057 1513.66 189.113 1518.27 Q192.192 1522.85 192.192 1531.6 Q192.192 1540.33 189.113 1544.94 Q186.057 1549.52 180.247 1549.52 Q174.437 1549.52 171.358 1544.94 Q168.303 1540.33 168.303 1531.6 Q168.303 1522.85 171.358 1518.27 Q174.437 1513.66 180.247 1513.66 Z" fill="#000000" fill-rule="nonzero" fill-opacity="1" /><path clip-path="url(#clip610)" d="M200.409 1542.97 L205.294 1542.97 L205.294 1548.85 L200.409 1548.85 L200.409 1542.97 Z" fill="#000000" fill-rule="nonzero" fill-opacity="1" /><path clip-path="url(#clip610)" d="M225.479 1517.37 Q221.867 1517.37 220.039 1520.93 Q218.233 1524.47 218.233 1531.6 Q218.233 1538.71 220.039 1542.27 Q221.867 1545.82 225.479 1545.82 Q229.113 1545.82 230.918 1542.27 Q232.747 1538.71 232.747 1531.6 Q232.747 1524.47 230.918 1520.93 Q229.113 1517.37 225.479 1517.37 M225.479 1513.66 Q231.289 1513.66 234.344 1518.27 Q237.423 1522.85 237.423 1531.6 Q237.423 1540.33 234.344 1544.94 Q231.289 1549.52 225.479 1549.52 Q219.668 1549.52 216.59 1544.94 Q213.534 1540.33 213.534 1531.6 Q213.534 1522.85 216.59 1518.27 Q219.668 1513.66 225.479 1513.66 Z" fill="#000000" fill-rule="nonzero" fill-opacity="1" /><path clip-path="url(#clip610)" d="M255.64 1517.37 Q252.029 1517.37 250.201 1520.93 Q248.395 1524.47 248.395 1531.6 Q248.395 1538.71 250.201 1542.27 Q252.029 1545.82 255.64 1545.82 Q259.275 1545.82 261.08 1542.27 Q262.909 1538.71 262.909 1531.6 Q262.909 1524.47 261.08 1520.93 Q259.275 1517.37 255.64 1517.37 M255.64 1513.66 Q261.451 1513.66 264.506 1518.27 Q267.585 1522.85 267.585 1531.6 Q267.585 1540.33 264.506 1544.94 Q261.451 1549.52 255.64 1549.52 Q249.83 1549.52 246.752 1544.94 Q243.696 1540.33 243.696 1531.6 Q243.696 1522.85 246.752 1518.27 Q249.83 1513.66 255.64 1513.66 Z" fill="#000000" fill-rule="nonzero" fill-opacity="1" /><path clip-path="url(#clip610)" d="M698.903 1517.37 Q695.292 1517.37 693.463 1520.93 Q691.658 1524.47 691.658 1531.6 Q691.658 1538.71 693.463 1542.27 Q695.292 1545.82 698.903 1545.82 Q702.538 1545.82 704.343 1542.27 Q706.172 1538.71 706.172 1531.6 Q706.172 1524.47 704.343 1520.93 Q702.538 1517.37 698.903 1517.37 M698.903 1513.66 Q704.713 1513.66 707.769 1518.27 Q710.848 1522.85 710.848 1531.6 Q710.848 1540.33 707.769 1544.94 Q704.713 1549.52 698.903 1549.52 Q693.093 1549.52 690.014 1544.94 Q686.959 1540.33 686.959 1531.6 Q686.959 1522.85 690.014 1518.27 Q693.093 1513.66 698.903 1513.66 Z" fill="#000000" fill-rule="nonzero" fill-opacity="1" /><path clip-path="url(#clip610)" d="M719.065 1542.97 L723.949 1542.97 L723.949 1548.85 L719.065 1548.85 L719.065 1542.97 Z" fill="#000000" fill-rule="nonzero" fill-opacity="1" /><path clip-path="url(#clip610)" d="M738.162 1544.91 L754.482 1544.91 L754.482 1548.85 L732.537 1548.85 L732.537 1544.91 Q735.199 1542.16 739.783 1537.53 Q744.389 1532.88 745.57 1531.53 Q747.815 1529.01 748.695 1527.27 Q749.597 1525.51 749.597 1523.82 Q749.597 1521.07 747.653 1519.33 Q745.732 1517.6 742.63 1517.6 Q740.431 1517.6 737.977 1518.36 Q735.547 1519.13 732.769 1520.68 L732.769 1515.95 Q735.593 1514.82 738.047 1514.24 Q740.5 1513.66 742.537 1513.66 Q747.908 1513.66 751.102 1516.35 Q754.296 1519.03 754.296 1523.52 Q754.296 1525.65 753.486 1527.57 Q752.699 1529.47 750.593 1532.07 Q750.014 1532.74 746.912 1535.95 Q743.81 1539.15 738.162 1544.91 Z" fill="#000000" fill-rule="nonzero" fill-opacity="1" /><path clip-path="url(#clip610)" d="M764.343 1514.29 L782.699 1514.29 L782.699 1518.22 L768.625 1518.22 L768.625 1526.7 Q769.644 1526.35 770.662 1526.19 Q771.681 1526 772.699 1526 Q778.486 1526 781.866 1529.17 Q785.245 1532.34 785.245 1537.76 Q785.245 1543.34 781.773 1546.44 Q778.301 1549.52 771.982 1549.52 Q769.806 1549.52 767.537 1549.15 Q765.292 1548.78 762.884 1548.04 L762.884 1543.34 Q764.968 1544.47 767.19 1545.03 Q769.412 1545.58 771.889 1545.58 Q775.894 1545.58 778.232 1543.48 Q780.57 1541.37 780.57 1537.76 Q780.57 1534.15 778.232 1532.04 Q775.894 1529.94 771.889 1529.94 Q770.014 1529.94 768.139 1530.35 Q766.287 1530.77 764.343 1531.65 L764.343 1514.29 Z" fill="#000000" fill-rule="nonzero" fill-opacity="1" /><path clip-path="url(#clip610)" d="M1216.56 1517.37 Q1212.95 1517.37 1211.12 1520.93 Q1209.32 1524.47 1209.32 1531.6 Q1209.32 1538.71 1211.12 1542.27 Q1212.95 1545.82 1216.56 1545.82 Q1220.2 1545.82 1222 1542.27 Q1223.83 1538.71 1223.83 1531.6 Q1223.83 1524.47 1222 1520.93 Q1220.2 1517.37 1216.56 1517.37 M1216.56 1513.66 Q1222.37 1513.66 1225.43 1518.27 Q1228.51 1522.85 1228.51 1531.6 Q1228.51 1540.33 1225.43 1544.94 Q1222.37 1549.52 1216.56 1549.52 Q1210.75 1549.52 1207.68 1544.94 Q1204.62 1540.33 1204.62 1531.6 Q1204.62 1522.85 1207.68 1518.27 Q1210.75 1513.66 1216.56 1513.66 Z" fill="#000000" fill-rule="nonzero" fill-opacity="1" /><path clip-path="url(#clip610)" d="M1236.73 1542.97 L1241.61 1542.97 L1241.61 1548.85 L1236.73 1548.85 L1236.73 1542.97 Z" fill="#000000" fill-rule="nonzero" fill-opacity="1" /><path clip-path="url(#clip610)" d="M1251.84 1514.29 L1270.2 1514.29 L1270.2 1518.22 L1256.12 1518.22 L1256.12 1526.7 Q1257.14 1526.35 1258.16 1526.19 Q1259.18 1526 1260.2 1526 Q1265.98 1526 1269.36 1529.17 Q1272.74 1532.34 1272.74 1537.76 Q1272.74 1543.34 1269.27 1546.44 Q1265.8 1549.52 1259.48 1549.52 Q1257.3 1549.52 1255.04 1549.15 Q1252.79 1548.78 1250.38 1548.04 L1250.38 1543.34 Q1252.47 1544.47 1254.69 1545.03 Q1256.91 1545.58 1259.39 1545.58 Q1263.39 1545.58 1265.73 1543.48 Q1268.07 1541.37 1268.07 1537.76 Q1268.07 1534.15 1265.73 1532.04 Q1263.39 1529.94 1259.39 1529.94 Q1257.51 1529.94 1255.64 1530.35 Q1253.79 1530.77 1251.84 1531.65 L1251.84 1514.29 Z" fill="#000000" fill-rule="nonzero" fill-opacity="1" /><path clip-path="url(#clip610)" d="M1291.96 1517.37 Q1288.35 1517.37 1286.52 1520.93 Q1284.71 1524.47 1284.71 1531.6 Q1284.71 1538.71 1286.52 1542.27 Q1288.35 1545.82 1291.96 1545.82 Q1295.59 1545.82 1297.4 1542.27 Q1299.23 1538.71 1299.23 1531.6 Q1299.23 1524.47 1297.4 1520.93 Q1295.59 1517.37 1291.96 1517.37 M1291.96 1513.66 Q1297.77 1513.66 1300.82 1518.27 Q1303.9 1522.85 1303.9 1531.6 Q1303.9 1540.33 1300.82 1544.94 Q1297.77 1549.52 1291.96 1549.52 Q1286.15 1549.52 1283.07 1544.94 Q1280.01 1540.33 1280.01 1531.6 Q1280.01 1522.85 1283.07 1518.27 Q1286.15 1513.66 1291.96 1513.66 Z" fill="#000000" fill-rule="nonzero" fill-opacity="1" /><path clip-path="url(#clip610)" d="M1735.22 1517.37 Q1731.61 1517.37 1729.78 1520.93 Q1727.97 1524.47 1727.97 1531.6 Q1727.97 1538.71 1729.78 1542.27 Q1731.61 1545.82 1735.22 1545.82 Q1738.85 1545.82 1740.66 1542.27 Q1742.49 1538.71 1742.49 1531.6 Q1742.49 1524.47 1740.66 1520.93 Q1738.85 1517.37 1735.22 1517.37 M1735.22 1513.66 Q1741.03 1513.66 1744.09 1518.27 Q1747.16 1522.85 1747.16 1531.6 Q1747.16 1540.33 1744.09 1544.94 Q1741.03 1549.52 1735.22 1549.52 Q1729.41 1549.52 1726.33 1544.94 Q1723.28 1540.33 1723.28 1531.6 Q1723.28 1522.85 1726.33 1518.27 Q1729.41 1513.66 1735.22 1513.66 Z" fill="#000000" fill-rule="nonzero" fill-opacity="1" /><path clip-path="url(#clip610)" d="M1755.38 1542.97 L1760.27 1542.97 L1760.27 1548.85 L1755.38 1548.85 L1755.38 1542.97 Z" fill="#000000" fill-rule="nonzero" fill-opacity="1" /><path clip-path="url(#clip610)" d="M1769.27 1514.29 L1791.49 1514.29 L1791.49 1516.28 L1778.95 1548.85 L1774.06 1548.85 L1785.87 1518.22 L1769.27 1518.22 L1769.27 1514.29 Z" fill="#000000" fill-rule="nonzero" fill-opacity="1" /><path clip-path="url(#clip610)" d="M1800.66 1514.29 L1819.02 1514.29 L1819.02 1518.22 L1804.94 1518.22 L1804.94 1526.7 Q1805.96 1526.35 1806.98 1526.19 Q1808 1526 1809.02 1526 Q1814.8 1526 1818.18 1529.17 Q1821.56 1532.34 1821.56 1537.76 Q1821.56 1543.34 1818.09 1546.44 Q1814.62 1549.52 1808.3 1549.52 Q1806.12 1549.52 1803.85 1549.15 Q1801.61 1548.78 1799.2 1548.04 L1799.2 1543.34 Q1801.28 1544.47 1803.51 1545.03 Q1805.73 1545.58 1808.21 1545.58 Q1812.21 1545.58 1814.55 1543.48 Q1816.89 1541.37 1816.89 1537.76 Q1816.89 1534.15 1814.55 1532.04 Q1812.21 1529.94 1808.21 1529.94 Q1806.33 1529.94 1804.46 1530.35 Q1802.6 1530.77 1800.66 1531.65 L1800.66 1514.29 Z" fill="#000000" fill-rule="nonzero" fill-opacity="1" /><path clip-path="url(#clip610)" d="M2242.65 1544.91 L2250.29 1544.91 L2250.29 1518.55 L2241.98 1520.21 L2241.98 1515.95 L2250.24 1514.29 L2254.92 1514.29 L2254.92 1544.91 L2262.56 1544.91 L2262.56 1548.85 L2242.65 1548.85 L2242.65 1544.91 Z" fill="#000000" fill-rule="nonzero" fill-opacity="1" /><path clip-path="url(#clip610)" d="M2272 1542.97 L2276.88 1542.97 L2276.88 1548.85 L2272 1548.85 L2272 1542.97 Z" fill="#000000" fill-rule="nonzero" fill-opacity="1" /><path clip-path="url(#clip610)" d="M2297.07 1517.37 Q2293.46 1517.37 2291.63 1520.93 Q2289.82 1524.47 2289.82 1531.6 Q2289.82 1538.71 2291.63 1542.27 Q2293.46 1545.82 2297.07 1545.82 Q2300.7 1545.82 2302.51 1542.27 Q2304.34 1538.71 2304.34 1531.6 Q2304.34 1524.47 2302.51 1520.93 Q2300.7 1517.37 2297.07 1517.37 M2297.07 1513.66 Q2302.88 1513.66 2305.94 1518.27 Q2309.01 1522.85 2309.01 1531.6 Q2309.01 1540.33 2305.94 1544.94 Q2302.88 1549.52 2297.07 1549.52 Q2291.26 1549.52 2288.18 1544.94 Q2285.13 1540.33 2285.13 1531.6 Q2285.13 1522.85 2288.18 1518.27 Q2291.26 1513.66 2297.07 1513.66 Z" fill="#000000" fill-rule="nonzero" fill-opacity="1" /><path clip-path="url(#clip610)" d="M2327.23 1517.37 Q2323.62 1517.37 2321.79 1520.93 Q2319.99 1524.47 2319.99 1531.6 Q2319.99 1538.71 2321.79 1542.27 Q2323.62 1545.82 2327.23 1545.82 Q2330.87 1545.82 2332.67 1542.27 Q2334.5 1538.71 2334.5 1531.6 Q2334.5 1524.47 2332.67 1520.93 Q2330.87 1517.37 2327.23 1517.37 M2327.23 1513.66 Q2333.04 1513.66 2336.1 1518.27 Q2339.18 1522.85 2339.18 1531.6 Q2339.18 1540.33 2336.1 1544.94 Q2333.04 1549.52 2327.23 1549.52 Q2321.42 1549.52 2318.34 1544.94 Q2315.29 1540.33 2315.29 1531.6 Q2315.29 1522.85 2318.34 1518.27 Q2321.42 1513.66 2327.23 1513.66 Z" fill="#000000" fill-rule="nonzero" fill-opacity="1" /><polyline clip-path="url(#clip610)" style="stroke:#000000; stroke-linecap:round; stroke-linejoin:round; stroke-width:4; stroke-opacity:1; fill:none" points="155.765,1486.45 155.765,47.2441 "/>
<polyline clip-path="url(#clip610)" style="stroke:#000000; stroke-linecap:round; stroke-linejoin:round; stroke-width:4; stroke-opacity:1; fill:none" points="155.765,1368.84 174.663,1368.84 "/>
<polyline clip-path="url(#clip610)" style="stroke:#000000; stroke-linecap:round; stroke-linejoin:round; stroke-width:4; stroke-opacity:1; fill:none" points="155.765,1128.38 174.663,1128.38 "/>
<polyline clip-path="url(#clip610)" style="stroke:#000000; stroke-linecap:round; stroke-linejoin:round; stroke-width:4; stroke-opacity:1; fill:none" points="155.765,887.917 174.663,887.917 "/>
<polyline clip-path="url(#clip610)" style="stroke:#000000; stroke-linecap:round; stroke-linejoin:round; stroke-width:4; stroke-opacity:1; fill:none" points="155.765,647.457 174.663,647.457 "/>
<polyline clip-path="url(#clip610)" style="stroke:#000000; stroke-linecap:round; stroke-linejoin:round; stroke-width:4; stroke-opacity:1; fill:none" points="155.765,406.997 174.663,406.997 "/>
<polyline clip-path="url(#clip610)" style="stroke:#000000; stroke-linecap:round; stroke-linejoin:round; stroke-width:4; stroke-opacity:1; fill:none" points="155.765,166.537 174.663,166.537 "/>
<path clip-path="url(#clip610)" d="M63.5847 1354.64 Q59.9736 1354.64 58.1449 1358.2 Q56.3393 1361.74 56.3393 1368.87 Q56.3393 1375.98 58.1449 1379.54 Q59.9736 1383.09 63.5847 1383.09 Q67.2189 1383.09 69.0244 1379.54 Q70.8531 1375.98 70.8531 1368.87 Q70.8531 1361.74 69.0244 1358.2 Q67.2189 1354.64 63.5847 1354.64 M63.5847 1350.93 Q69.3948 1350.93 72.4503 1355.54 Q75.529 1360.12 75.529 1368.87 Q75.529 1377.6 72.4503 1382.21 Q69.3948 1386.79 63.5847 1386.79 Q57.7745 1386.79 54.6958 1382.21 Q51.6403 1377.6 51.6403 1368.87 Q51.6403 1360.12 54.6958 1355.54 Q57.7745 1350.93 63.5847 1350.93 Z" fill="#000000" fill-rule="nonzero" fill-opacity="1" /><path clip-path="url(#clip610)" d="M83.7466 1380.24 L88.6308 1380.24 L88.6308 1386.12 L83.7466 1386.12 L83.7466 1380.24 Z" fill="#000000" fill-rule="nonzero" fill-opacity="1" /><path clip-path="url(#clip610)" d="M98.8622 1351.56 L117.219 1351.56 L117.219 1355.49 L103.145 1355.49 L103.145 1363.96 Q104.163 1363.62 105.182 1363.46 Q106.2 1363.27 107.219 1363.27 Q113.006 1363.27 116.385 1366.44 Q119.765 1369.61 119.765 1375.03 Q119.765 1380.61 116.293 1383.71 Q112.82 1386.79 106.501 1386.79 Q104.325 1386.79 102.057 1386.42 Q99.8113 1386.05 97.4039 1385.31 L97.4039 1380.61 Q99.4872 1381.74 101.709 1382.3 Q103.932 1382.85 106.408 1382.85 Q110.413 1382.85 112.751 1380.75 Q115.089 1378.64 115.089 1375.03 Q115.089 1371.42 112.751 1369.31 Q110.413 1367.21 106.408 1367.21 Q104.534 1367.21 102.659 1367.62 Q100.807 1368.04 98.8622 1368.92 L98.8622 1351.56 Z" fill="#000000" fill-rule="nonzero" fill-opacity="1" /><path clip-path="url(#clip610)" d="M53.3995 1141.72 L61.0384 1141.72 L61.0384 1115.36 L52.7282 1117.02 L52.7282 1112.76 L60.9921 1111.1 L65.668 1111.1 L65.668 1141.72 L73.3068 1141.72 L73.3068 1145.66 L53.3995 1145.66 L53.3995 1141.72 Z" fill="#000000" fill-rule="nonzero" fill-opacity="1" /><path clip-path="url(#clip610)" d="M82.7512 1139.78 L87.6354 1139.78 L87.6354 1145.66 L82.7512 1145.66 L82.7512 1139.78 Z" fill="#000000" fill-rule="nonzero" fill-opacity="1" /><path clip-path="url(#clip610)" d="M107.821 1114.18 Q104.209 1114.18 102.381 1117.74 Q100.575 1121.28 100.575 1128.41 Q100.575 1135.52 102.381 1139.08 Q104.209 1142.63 107.821 1142.63 Q111.455 1142.63 113.26 1139.08 Q115.089 1135.52 115.089 1128.41 Q115.089 1121.28 113.26 1117.74 Q111.455 1114.18 107.821 1114.18 M107.821 1110.47 Q113.631 1110.47 116.686 1115.08 Q119.765 1119.66 119.765 1128.41 Q119.765 1137.14 116.686 1141.75 Q113.631 1146.33 107.821 1146.33 Q102.01 1146.33 98.9317 1141.75 Q95.8761 1137.14 95.8761 1128.41 Q95.8761 1119.66 98.9317 1115.08 Q102.01 1110.47 107.821 1110.47 Z" fill="#000000" fill-rule="nonzero" fill-opacity="1" /><path clip-path="url(#clip610)" d="M54.3949 901.262 L62.0337 901.262 L62.0337 874.897 L53.7236 876.563 L53.7236 872.304 L61.9874 870.637 L66.6633 870.637 L66.6633 901.262 L74.3022 901.262 L74.3022 905.197 L54.3949 905.197 L54.3949 901.262 Z" fill="#000000" fill-rule="nonzero" fill-opacity="1" /><path clip-path="url(#clip610)" d="M83.7466 899.318 L88.6308 899.318 L88.6308 905.197 L83.7466 905.197 L83.7466 899.318 Z" fill="#000000" fill-rule="nonzero" fill-opacity="1" /><path clip-path="url(#clip610)" d="M98.8622 870.637 L117.219 870.637 L117.219 874.572 L103.145 874.572 L103.145 883.045 Q104.163 882.697 105.182 882.535 Q106.2 882.35 107.219 882.35 Q113.006 882.35 116.385 885.521 Q119.765 888.693 119.765 894.109 Q119.765 899.688 116.293 902.79 Q112.82 905.869 106.501 905.869 Q104.325 905.869 102.057 905.498 Q99.8113 905.128 97.4039 904.387 L97.4039 899.688 Q99.4872 900.822 101.709 901.378 Q103.932 901.933 106.408 901.933 Q110.413 901.933 112.751 899.827 Q115.089 897.72 115.089 894.109 Q115.089 890.498 112.751 888.392 Q110.413 886.285 106.408 886.285 Q104.534 886.285 102.659 886.702 Q100.807 887.119 98.8622 887.998 L98.8622 870.637 Z" fill="#000000" fill-rule="nonzero" fill-opacity="1" /><path clip-path="url(#clip610)" d="M56.6171 660.802 L72.9365 660.802 L72.9365 664.737 L50.9921 664.737 L50.9921 660.802 Q53.6541 658.047 58.2375 653.418 Q62.8439 648.765 64.0245 647.422 Q66.2698 644.899 67.1494 643.163 Q68.0522 641.404 68.0522 639.714 Q68.0522 636.96 66.1078 635.223 Q64.1865 633.487 61.0847 633.487 Q58.8856 633.487 56.4319 634.251 Q54.0014 635.015 51.2236 636.566 L51.2236 631.844 Q54.0477 630.71 56.5014 630.131 Q58.955 629.552 60.9921 629.552 Q66.3624 629.552 69.5568 632.237 Q72.7513 634.922 72.7513 639.413 Q72.7513 641.543 71.9411 643.464 Q71.1541 645.362 69.0476 647.955 Q68.4689 648.626 65.367 651.844 Q62.2652 655.038 56.6171 660.802 Z" fill="#000000" fill-rule="nonzero" fill-opacity="1" /><path clip-path="url(#clip610)" d="M82.7512 658.858 L87.6354 658.858 L87.6354 664.737 L82.7512 664.737 L82.7512 658.858 Z" fill="#000000" fill-rule="nonzero" fill-opacity="1" /><path clip-path="url(#clip610)" d="M107.821 633.256 Q104.209 633.256 102.381 636.821 Q100.575 640.362 100.575 647.492 Q100.575 654.598 102.381 658.163 Q104.209 661.705 107.821 661.705 Q111.455 661.705 113.26 658.163 Q115.089 654.598 115.089 647.492 Q115.089 640.362 113.26 636.821 Q111.455 633.256 107.821 633.256 M107.821 629.552 Q113.631 629.552 116.686 634.159 Q119.765 638.742 119.765 647.492 Q119.765 656.219 116.686 660.825 Q113.631 665.408 107.821 665.408 Q102.01 665.408 98.9317 660.825 Q95.8761 656.219 95.8761 647.492 Q95.8761 638.742 98.9317 634.159 Q102.01 629.552 107.821 629.552 Z" fill="#000000" fill-rule="nonzero" fill-opacity="1" /><path clip-path="url(#clip610)" d="M57.6125 420.342 L73.9318 420.342 L73.9318 424.277 L51.9875 424.277 L51.9875 420.342 Q54.6495 417.587 59.2328 412.958 Q63.8393 408.305 65.0198 406.962 Q67.2652 404.439 68.1448 402.703 Q69.0476 400.944 69.0476 399.254 Q69.0476 396.499 67.1032 394.763 Q65.1819 393.027 62.08 393.027 Q59.881 393.027 57.4273 393.791 Q54.9967 394.555 52.219 396.106 L52.219 391.384 Q55.043 390.249 57.4967 389.671 Q59.9504 389.092 61.9874 389.092 Q67.3578 389.092 70.5522 391.777 Q73.7466 394.462 73.7466 398.953 Q73.7466 401.083 72.9365 403.004 Q72.1494 404.902 70.0429 407.495 Q69.4642 408.166 66.3624 411.384 Q63.2606 414.578 57.6125 420.342 Z" fill="#000000" fill-rule="nonzero" fill-opacity="1" /><path clip-path="url(#clip610)" d="M83.7466 418.397 L88.6308 418.397 L88.6308 424.277 L83.7466 424.277 L83.7466 418.397 Z" fill="#000000" fill-rule="nonzero" fill-opacity="1" /><path clip-path="url(#clip610)" d="M98.8622 389.717 L117.219 389.717 L117.219 393.652 L103.145 393.652 L103.145 402.124 Q104.163 401.777 105.182 401.615 Q106.2 401.43 107.219 401.43 Q113.006 401.43 116.385 404.601 Q119.765 407.772 119.765 413.189 Q119.765 418.768 116.293 421.87 Q112.82 424.948 106.501 424.948 Q104.325 424.948 102.057 424.578 Q99.8113 424.208 97.4039 423.467 L97.4039 418.768 Q99.4872 419.902 101.709 420.458 Q103.932 421.013 106.408 421.013 Q110.413 421.013 112.751 418.907 Q115.089 416.8 115.089 413.189 Q115.089 409.578 112.751 407.472 Q110.413 405.365 106.408 405.365 Q104.534 405.365 102.659 405.782 Q100.807 406.198 98.8622 407.078 L98.8622 389.717 Z" fill="#000000" fill-rule="nonzero" fill-opacity="1" /><path clip-path="url(#clip610)" d="M66.7559 165.183 Q70.1124 165.9 71.9874 168.169 Q73.8855 170.437 73.8855 173.771 Q73.8855 178.886 70.367 181.687 Q66.8485 184.488 60.3671 184.488 Q58.1912 184.488 55.8764 184.048 Q53.5847 183.632 51.131 182.775 L51.131 178.261 Q53.0754 179.396 55.3903 179.974 Q57.7051 180.553 60.2282 180.553 Q64.6263 180.553 66.918 178.817 Q69.2328 177.081 69.2328 173.771 Q69.2328 170.715 67.08 169.002 Q64.9504 167.266 61.131 167.266 L57.1032 167.266 L57.1032 163.423 L61.3161 163.423 Q64.7652 163.423 66.5939 162.058 Q68.4226 160.669 68.4226 158.076 Q68.4226 155.414 66.5245 154.002 Q64.6495 152.567 61.131 152.567 Q59.2097 152.567 57.0106 152.984 Q54.8115 153.4 52.1727 154.28 L52.1727 150.113 Q54.8347 149.373 57.1495 149.002 Q59.4875 148.632 61.5476 148.632 Q66.8717 148.632 69.9735 151.062 Q73.0753 153.47 73.0753 157.59 Q73.0753 160.461 71.4318 162.451 Q69.7883 164.419 66.7559 165.183 Z" fill="#000000" fill-rule="nonzero" fill-opacity="1" /><path clip-path="url(#clip610)" d="M82.7512 177.937 L87.6354 177.937 L87.6354 183.817 L82.7512 183.817 L82.7512 177.937 Z" fill="#000000" fill-rule="nonzero" fill-opacity="1" /><path clip-path="url(#clip610)" d="M107.821 152.336 Q104.209 152.336 102.381 155.9 Q100.575 159.442 100.575 166.572 Q100.575 173.678 102.381 177.243 Q104.209 180.784 107.821 180.784 Q111.455 180.784 113.26 177.243 Q115.089 173.678 115.089 166.572 Q115.089 159.442 113.26 155.9 Q111.455 152.336 107.821 152.336 M107.821 148.632 Q113.631 148.632 116.686 153.238 Q119.765 157.822 119.765 166.572 Q119.765 175.298 116.686 179.905 Q113.631 184.488 107.821 184.488 Q102.01 184.488 98.9317 179.905 Q95.8761 175.298 95.8761 166.572 Q95.8761 157.822 98.9317 153.238 Q102.01 148.632 107.821 148.632 Z" fill="#000000" fill-rule="nonzero" fill-opacity="1" /><path clip-path="url(#clip612)" d="M217.944 1368.84 L425.207 1430.69 L632.47 1433.14 L839.734 1441.22 L1047 1445.72 L1254.26 1395.12 L1461.52 1412.72 L1668.79 1401.41 L1876.05 1391.76 L2083.31 1392.95 L2290.58 1391.03 L2290.58 87.9763 L2083.31 212.068 L1876.05 628.562 L1668.79 885.26 L1461.52 903.945 L1254.26 956.439 L1047 1005.8 L839.734 1139.18 L632.47 1223.44 L425.207 1297.9 L217.944 1368.84  Z" fill="#009af9" fill-rule="evenodd" fill-opacity="0.2"/>
<polyline clip-path="url(#clip612)" style="stroke:#009af9; stroke-linecap:round; stroke-linejoin:round; stroke-width:12; stroke-opacity:1; fill:none" points="217.944,1368.84 425.207,1373.1 632.47,1336.87 839.734,1319.77 1047,1300.41 1254.26,1134.84 1461.52,1130.75 1668.79,1076.36 1876.05,1033.92 2083.31,978.076 2290.58,963.714 "/>
</svg>
