<?xml version="1.0" encoding="utf-8"?>
<svg xmlns="http://www.w3.org/2000/svg" xmlns:xlink="http://www.w3.org/1999/xlink" width="600" height="400" viewBox="0 0 2400 1600">
<defs>
  <clipPath id="clip640">
    <rect x="0" y="0" width="2400" height="1600"/>
  </clipPath>
</defs>
<path clip-path="url(#clip640)" d="M0 1600 L2400 1600 L2400 0 L0 0  Z" fill="#ffffff" fill-rule="evenodd" fill-opacity="1"/>
<defs>
  <clipPath id="clip641">
    <rect x="480" y="0" width="1681" height="1600"/>
  </clipPath>
</defs>
<path clip-path="url(#clip640)" d="M155.765 1486.45 L2352.76 1486.45 L2352.76 47.2441 L155.765 47.2441  Z" fill="#ffffff" fill-rule="evenodd" fill-opacity="1"/>
<defs>
  <clipPath id="clip642">
    <rect x="155" y="47" width="2198" height="1440"/>
  </clipPath>
</defs>
<polyline clip-path="url(#clip642)" style="stroke:#000000; stroke-linecap:round; stroke-linejoin:round; stroke-width:2; stroke-opacity:0.1; fill:none" points="217.944,1486.45 217.944,47.2441 "/>
<polyline clip-path="url(#clip642)" style="stroke:#000000; stroke-linecap:round; stroke-linejoin:round; stroke-width:2; stroke-opacity:0.1; fill:none" points="736.102,1486.45 736.102,47.2441 "/>
<polyline clip-path="url(#clip642)" style="stroke:#000000; stroke-linecap:round; stroke-linejoin:round; stroke-width:2; stroke-opacity:0.1; fill:none" points="1254.26,1486.45 1254.26,47.2441 "/>
<polyline clip-path="url(#clip642)" style="stroke:#000000; stroke-linecap:round; stroke-linejoin:round; stroke-width:2; stroke-opacity:0.1; fill:none" points="1772.42,1486.45 1772.42,47.2441 "/>
<polyline clip-path="url(#clip642)" style="stroke:#000000; stroke-linecap:round; stroke-linejoin:round; stroke-width:2; stroke-opacity:0.1; fill:none" points="2290.58,1486.45 2290.58,47.2441 "/>
<polyline clip-path="url(#clip642)" style="stroke:#000000; stroke-linecap:round; stroke-linejoin:round; stroke-width:2; stroke-opacity:0.1; fill:none" points="155.765,1285.72 2352.76,1285.72 "/>
<polyline clip-path="url(#clip642)" style="stroke:#000000; stroke-linecap:round; stroke-linejoin:round; stroke-width:2; stroke-opacity:0.1; fill:none" points="155.765,1060.86 2352.76,1060.86 "/>
<polyline clip-path="url(#clip642)" style="stroke:#000000; stroke-linecap:round; stroke-linejoin:round; stroke-width:2; stroke-opacity:0.1; fill:none" points="155.765,836.005 2352.76,836.005 "/>
<polyline clip-path="url(#clip642)" style="stroke:#000000; stroke-linecap:round; stroke-linejoin:round; stroke-width:2; stroke-opacity:0.1; fill:none" points="155.765,611.149 2352.76,611.149 "/>
<polyline clip-path="url(#clip642)" style="stroke:#000000; stroke-linecap:round; stroke-linejoin:round; stroke-width:2; stroke-opacity:0.1; fill:none" points="155.765,386.294 2352.76,386.294 "/>
<polyline clip-path="url(#clip642)" style="stroke:#000000; stroke-linecap:round; stroke-linejoin:round; stroke-width:2; stroke-opacity:0.1; fill:none" points="155.765,161.439 2352.76,161.439 "/>
<polyline clip-path="url(#clip640)" style="stroke:#000000; stroke-linecap:round; stroke-linejoin:round; stroke-width:4; stroke-opacity:1; fill:none" points="155.765,1486.45 2352.76,1486.45 "/>
<polyline clip-path="url(#clip640)" style="stroke:#000000; stroke-linecap:round; stroke-linejoin:round; stroke-width:4; stroke-opacity:1; fill:none" points="217.944,1486.45 217.944,1467.55 "/>
<polyline clip-path="url(#clip640)" style="stroke:#000000; stroke-linecap:round; stroke-linejoin:round; stroke-width:4; stroke-opacity:1; fill:none" points="736.102,1486.45 736.102,1467.55 "/>
<polyline clip-path="url(#clip640)" style="stroke:#000000; stroke-linecap:round; stroke-linejoin:round; stroke-width:4; stroke-opacity:1; fill:none" points="1254.26,1486.45 1254.26,1467.55 "/>
<polyline clip-path="url(#clip640)" style="stroke:#000000; stroke-linecap:round; stroke-linejoin:round; stroke-width:4; stroke-opacity:1; fill:none" points="1772.42,1486.45 1772.42,1467.55 "/>
<polyline clip-path="url(#clip640)" style="stroke:#000000; stroke-linecap:round; stroke-linejoin:round; stroke-width:4; stroke-opacity:1; fill:none" points="2290.58,1486.45 2290.58,1467.55 "/>
<path clip-path="url(#clip640)" d="M180.247 1517.37 Q176.636 1517.37 174.808 1520.93 Q173.002 1524.47 173.002 1531.6 Q173.002 1538.71 174.808 1542.27 Q176.636 1545.82 180.247 1545.82 Q183.882 1545.82 185.687 1542.27 Q187.516 1538.71 187.516 1531.6 Q187.516 1524.47 185.687 1520.93 Q183.882 1517.37 180.247 1517.37 M180.247 1513.66 Q186.057 1513.66 189.113 1518.27 Q192.192 1522.85 192.192 1531.6 Q192.192 1540.33 189.113 1544.94 Q186.057 1549.52 180.247 1549.52 Q174.437 1549.52 171.358 1544.94 Q168.303 1540.33 168.303 1531.6 Q168.303 1522.85 171.358 1518.27 Q174.437 1513.66 180.247 1513.66 Z" fill="#000000" fill-rule="nonzero" fill-opacity="1" /><path clip-path="url(#clip640)" d="M200.409 1542.97 L205.294 1542.97 L205.294 1548.85 L200.409 1548.85 L200.409 1542.97 Z" fill="#000000" fill-rule="nonzero" fill-opacity="1" /><path clip-path="url(#clip640)" d="M225.479 1517.37 Q221.867 1517.37 220.039 1520.93 Q218.233 1524.47 218.233 1531.6 Q218.233 1538.71 220.039 1542.27 Q221.867 1545.82 225.479 1545.82 Q229.113 1545.82 230.918 1542.27 Q232.747 1538.71 232.747 1531.6 Q232.747 1524.47 230.918 1520.93 Q229.113 1517.37 225.479 1517.37 M225.479 1513.66 Q231.289 1513.66 234.344 1518.27 Q237.423 1522.85 237.423 1531.6 Q237.423 1540.33 234.344 1544.94 Q231.289 1549.52 225.479 1549.52 Q219.668 1549.52 216.59 1544.94 Q213.534 1540.33 213.534 1531.6 Q213.534 1522.85 216.59 1518.27 Q219.668 1513.66 225.479 1513.66 Z" fill="#000000" fill-rule="nonzero" fill-opacity="1" /><path clip-path="url(#clip640)" d="M255.64 1517.37 Q252.029 1517.37 250.201 1520.93 Q248.395 1524.47 248.395 1531.6 Q248.395 1538.71 250.201 1542.27 Q252.029 1545.82 255.64 1545.82 Q259.275 1545.82 261.08 1542.27 Q262.909 1538.71 262.909 1531.6 Q262.909 1524.47 261.08 1520.93 Q259.275 1517.37 255.64 1517.37 M255.64 1513.66 Q261.451 1513.66 264.506 1518.27 Q267.585 1522.85 267.585 1531.6 Q267.585 1540.33 264.506 1544.94 Q261.451 1549.52 255.64 1549.52 Q249.83 1549.52 246.752 1544.94 Q243.696 1540.33 243.696 1531.6 Q243.696 1522.85 246.752 1518.27 Q249.83 1513.66 255.64 1513.66 Z" fill="#000000" fill-rule="nonzero" fill-opacity="1" /><path clip-path="url(#clip640)" d="M698.903 1517.37 Q695.292 1517.37 693.463 1520.93 Q691.658 1524.47 691.658 1531.6 Q691.658 1538.71 693.463 1542.27 Q695.292 1545.82 698.903 1545.82 Q702.538 1545.82 704.343 1542.27 Q706.172 1538.71 706.172 1531.6 Q706.172 1524.47 704.343 1520.93 Q702.538 1517.37 698.903 1517.37 M698.903 1513.66 Q704.713 1513.66 707.769 1518.27 Q710.848 1522.85 710.848 1531.6 Q710.848 1540.33 707.769 1544.94 Q704.713 1549.52 698.903 1549.52 Q693.093 1549.52 690.014 1544.94 Q686.959 1540.33 686.959 1531.6 Q686.959 1522.85 690.014 1518.27 Q693.093 1513.66 698.903 1513.66 Z" fill="#000000" fill-rule="nonzero" fill-opacity="1" /><path clip-path="url(#clip640)" d="M719.065 1542.97 L723.949 1542.97 L723.949 1548.85 L719.065 1548.85 L719.065 1542.97 Z" fill="#000000" fill-rule="nonzero" fill-opacity="1" /><path clip-path="url(#clip640)" d="M738.162 1544.91 L754.482 1544.91 L754.482 1548.85 L732.537 1548.85 L732.537 1544.91 Q735.199 1542.16 739.783 1537.53 Q744.389 1532.88 745.57 1531.53 Q747.815 1529.01 748.695 1527.27 Q749.597 1525.51 749.597 1523.82 Q749.597 1521.07 747.653 1519.33 Q745.732 1517.6 742.63 1517.6 Q740.431 1517.6 737.977 1518.36 Q735.547 1519.13 732.769 1520.68 L732.769 1515.95 Q735.593 1514.82 738.047 1514.24 Q740.5 1513.66 742.537 1513.66 Q747.908 1513.66 751.102 1516.35 Q754.296 1519.03 754.296 1523.52 Q754.296 1525.65 753.486 1527.57 Q752.699 1529.47 750.593 1532.07 Q750.014 1532.74 746.912 1535.95 Q743.81 1539.15 738.162 1544.91 Z" fill="#000000" fill-rule="nonzero" fill-opacity="1" /><path clip-path="url(#clip640)" d="M764.343 1514.29 L782.699 1514.29 L782.699 1518.22 L768.625 1518.22 L768.625 1526.7 Q769.644 1526.35 770.662 1526.19 Q771.681 1526 772.699 1526 Q778.486 1526 781.866 1529.17 Q785.245 1532.34 785.245 1537.76 Q785.245 1543.34 781.773 1546.44 Q778.301 1549.52 771.982 1549.52 Q769.806 1549.52 767.537 1549.15 Q765.292 1548.78 762.884 1548.04 L762.884 1543.34 Q764.968 1544.47 767.19 1545.03 Q769.412 1545.58 771.889 1545.58 Q775.894 1545.58 778.232 1543.48 Q780.57 1541.37 780.57 1537.76 Q780.57 1534.15 778.232 1532.04 Q775.894 1529.94 771.889 1529.94 Q770.014 1529.94 768.139 1530.35 Q766.287 1530.77 764.343 1531.65 L764.343 1514.29 Z" fill="#000000" fill-rule="nonzero" fill-opacity="1" /><path clip-path="url(#clip640)" d="M1216.56 1517.37 Q1212.95 1517.37 1211.12 1520.93 Q1209.32 1524.47 1209.32 1531.6 Q1209.32 1538.71 1211.12 1542.27 Q1212.95 1545.82 1216.56 1545.82 Q1220.2 1545.82 1222 1542.27 Q1223.83 1538.71 1223.83 1531.6 Q1223.83 1524.47 1222 1520.93 Q1220.2 1517.37 1216.56 1517.37 M1216.56 1513.66 Q1222.37 1513.66 1225.43 1518.27 Q1228.51 1522.85 1228.51 1531.6 Q1228.51 1540.33 1225.43 1544.94 Q1222.37 1549.52 1216.56 1549.52 Q1210.75 1549.52 1207.68 1544.94 Q1204.62 1540.33 1204.62 1531.6 Q1204.62 1522.85 1207.68 1518.27 Q1210.75 1513.66 1216.56 1513.66 Z" fill="#000000" fill-rule="nonzero" fill-opacity="1" /><path clip-path="url(#clip640)" d="M1236.73 1542.97 L1241.61 1542.97 L1241.61 1548.85 L1236.73 1548.85 L1236.73 1542.97 Z" fill="#000000" fill-rule="nonzero" fill-opacity="1" /><path clip-path="url(#clip640)" d="M1251.84 1514.29 L1270.2 1514.29 L1270.2 1518.22 L1256.12 1518.22 L1256.12 1526.7 Q1257.14 1526.35 1258.16 1526.19 Q1259.18 1526 1260.2 1526 Q1265.98 1526 1269.36 1529.17 Q1272.74 1532.34 1272.74 1537.76 Q1272.74 1543.34 1269.27 1546.44 Q1265.8 1549.52 1259.48 1549.52 Q1257.3 1549.52 1255.04 1549.15 Q1252.79 1548.78 1250.38 1548.04 L1250.38 1543.34 Q1252.47 1544.47 1254.69 1545.03 Q1256.91 1545.58 1259.39 1545.58 Q1263.39 1545.58 1265.73 1543.48 Q1268.07 1541.37 1268.07 1537.76 Q1268.07 1534.15 1265.73 1532.04 Q1263.39 1529.94 1259.39 1529.94 Q1257.51 1529.94 1255.64 1530.35 Q1253.79 1530.77 1251.84 1531.65 L1251.84 1514.29 Z" fill="#000000" fill-rule="nonzero" fill-opacity="1" /><path clip-path="url(#clip640)" d="M1291.96 1517.37 Q1288.35 1517.37 1286.52 1520.93 Q1284.71 1524.47 1284.71 1531.6 Q1284.71 1538.71 1286.52 1542.27 Q1288.35 1545.82 1291.96 1545.82 Q1295.59 1545.82 1297.4 1542.27 Q1299.23 1538.71 1299.23 1531.6 Q1299.23 1524.47 1297.4 1520.93 Q1295.59 1517.37 1291.96 1517.37 M1291.96 1513.66 Q1297.77 1513.66 1300.82 1518.27 Q1303.9 1522.85 1303.9 1531.6 Q1303.9 1540.33 1300.82 1544.94 Q1297.77 1549.52 1291.96 1549.52 Q1286.15 1549.52 1283.07 1544.94 Q1280.01 1540.33 1280.01 1531.6 Q1280.01 1522.85 1283.07 1518.27 Q1286.15 1513.66 1291.96 1513.66 Z" fill="#000000" fill-rule="nonzero" fill-opacity="1" /><path clip-path="url(#clip640)" d="M1735.22 1517.37 Q1731.61 1517.37 1729.78 1520.93 Q1727.97 1524.47 1727.97 1531.6 Q1727.97 1538.71 1729.78 1542.27 Q1731.61 1545.82 1735.22 1545.82 Q1738.85 1545.82 1740.66 1542.27 Q1742.49 1538.71 1742.49 1531.6 Q1742.49 1524.47 1740.66 1520.93 Q1738.85 1517.37 1735.22 1517.37 M1735.22 1513.66 Q1741.03 1513.66 1744.09 1518.27 Q1747.16 1522.85 1747.16 1531.6 Q1747.16 1540.33 1744.09 1544.94 Q1741.03 1549.52 1735.22 1549.52 Q1729.41 1549.52 1726.33 1544.94 Q1723.28 1540.33 1723.28 1531.6 Q1723.28 1522.85 1726.33 1518.27 Q1729.41 1513.66 1735.22 1513.66 Z" fill="#000000" fill-rule="nonzero" fill-opacity="1" /><path clip-path="url(#clip640)" d="M1755.38 1542.97 L1760.27 1542.97 L1760.27 1548.85 L1755.38 1548.85 L1755.38 1542.97 Z" fill="#000000" fill-rule="nonzero" fill-opacity="1" /><path clip-path="url(#clip640)" d="M1769.27 1514.29 L1791.49 1514.29 L1791.49 1516.28 L1778.95 1548.85 L1774.06 1548.85 L1785.87 1518.22 L1769.27 1518.22 L1769.27 1514.29 Z" fill="#000000" fill-rule="nonzero" fill-opacity="1" /><path clip-path="url(#clip640)" d="M1800.66 1514.29 L1819.02 1514.29 L1819.02 1518.22 L1804.94 1518.22 L1804.94 1526.7 Q1805.96 1526.35 1806.98 1526.19 Q1808 1526 1809.02 1526 Q1814.8 1526 1818.18 1529.17 Q1821.56 1532.34 1821.56 1537.76 Q1821.56 1543.34 1818.09 1546.44 Q1814.62 1549.52 1808.3 1549.52 Q1806.12 1549.52 1803.85 1549.15 Q1801.61 1548.78 1799.2 1548.04 L1799.2 1543.34 Q1801.28 1544.47 1803.51 1545.03 Q1805.73 1545.58 1808.21 1545.58 Q1812.21 1545.58 1814.55 1543.48 Q1816.89 1541.37 1816.89 1537.76 Q1816.89 1534.15 1814.55 1532.04 Q1812.21 1529.94 1808.21 1529.94 Q1806.33 1529.94 1804.46 1530.35 Q1802.6 1530.77 1800.66 1531.65 L1800.66 1514.29 Z" fill="#000000" fill-rule="nonzero" fill-opacity="1" /><path clip-path="url(#clip640)" d="M2242.65 1544.91 L2250.29 1544.91 L2250.29 1518.55 L2241.98 1520.21 L2241.98 1515.95 L2250.24 1514.29 L2254.92 1514.29 L2254.92 1544.91 L2262.56 1544.91 L2262.56 1548.85 L2242.65 1548.85 L2242.65 1544.91 Z" fill="#000000" fill-rule="nonzero" fill-opacity="1" /><path clip-path="url(#clip640)" d="M2272 1542.97 L2276.88 1542.97 L2276.88 1548.85 L2272 1548.85 L2272 1542.97 Z" fill="#000000" fill-rule="nonzero" fill-opacity="1" /><path clip-path="url(#clip640)" d="M2297.07 1517.37 Q2293.46 1517.37 2291.63 1520.93 Q2289.82 1524.47 2289.82 1531.6 Q2289.82 1538.71 2291.63 1542.27 Q2293.46 1545.82 2297.07 1545.82 Q2300.7 1545.82 2302.51 1542.27 Q2304.34 1538.71 2304.34 1531.6 Q2304.34 1524.47 2302.51 1520.93 Q2300.7 1517.37 2297.07 1517.37 M2297.07 1513.66 Q2302.88 1513.66 2305.94 1518.27 Q2309.01 1522.85 2309.01 1531.6 Q2309.01 1540.33 2305.94 1544.94 Q2302.88 1549.52 2297.07 1549.52 Q2291.26 1549.52 2288.18 1544.94 Q2285.13 1540.33 2285.13 1531.6 Q2285.13 1522.85 2288.18 1518.27 Q2291.26 1513.66 2297.07 1513.66 Z" fill="#000000" fill-rule="nonzero" fill-opacity="1" /><path clip-path="url(#clip640)" d="M2327.23 1517.37 Q2323.62 1517.37 2321.79 1520.93 Q2319.99 1524.47 2319.99 1531.6 Q2319.99 1538.71 2321.79 1542.27 Q2323.62 1545.82 2327.23 1545.82 Q2330.87 1545.82 2332.67 1542.27 Q2334.5 1538.71 2334.5 1531.6 Q2334.5 1524.47 2332.67 1520.93 Q2330.87 1517.37 2327.23 1517.37 M2327.23 1513.66 Q2333.04 1513.66 2336.1 1518.27 Q2339.18 1522.85 2339.18 1531.6 Q2339.18 1540.33 2336.1 1544.94 Q2333.04 1549.52 2327.23 1549.52 Q2321.42 1549.52 2318.34 1544.94 Q2315.29 1540.33 2315.29 1531.6 Q2315.29 1522.85 2318.34 1518.27 Q2321.42 1513.66 2327.23 1513.66 Z" fill="#000000" fill-rule="nonzero" fill-opacity="1" /><polyline clip-path="url(#clip640)" style="stroke:#000000; stroke-linecap:round; stroke-linejoin:round; stroke-width:4; stroke-opacity:1; fill:none" points="155.765,1486.45 155.765,47.2441 "/>
<polyline clip-path="url(#clip640)" style="stroke:#000000; stroke-linecap:round; stroke-linejoin:round; stroke-width:4; stroke-opacity:1; fill:none" points="155.765,1285.72 174.663,1285.72 "/>
<polyline clip-path="url(#clip640)" style="stroke:#000000; stroke-linecap:round; stroke-linejoin:round; stroke-width:4; stroke-opacity:1; fill:none" points="155.765,1060.86 174.663,1060.86 "/>
<polyline clip-path="url(#clip640)" style="stroke:#000000; stroke-linecap:round; stroke-linejoin:round; stroke-width:4; stroke-opacity:1; fill:none" points="155.765,836.005 174.663,836.005 "/>
<polyline clip-path="url(#clip640)" style="stroke:#000000; stroke-linecap:round; stroke-linejoin:round; stroke-width:4; stroke-opacity:1; fill:none" points="155.765,611.149 174.663,611.149 "/>
<polyline clip-path="url(#clip640)" style="stroke:#000000; stroke-linecap:round; stroke-linejoin:round; stroke-width:4; stroke-opacity:1; fill:none" points="155.765,386.294 174.663,386.294 "/>
<polyline clip-path="url(#clip640)" style="stroke:#000000; stroke-linecap:round; stroke-linejoin:round; stroke-width:4; stroke-opacity:1; fill:none" points="155.765,161.439 174.663,161.439 "/>
<path clip-path="url(#clip640)" d="M63.5847 1271.51 Q59.9736 1271.51 58.1449 1275.08 Q56.3393 1278.62 56.3393 1285.75 Q56.3393 1292.86 58.1449 1296.42 Q59.9736 1299.96 63.5847 1299.96 Q67.2189 1299.96 69.0244 1296.42 Q70.8531 1292.86 70.8531 1285.75 Q70.8531 1278.62 69.0244 1275.08 Q67.2189 1271.51 63.5847 1271.51 M63.5847 1267.81 Q69.3948 1267.81 72.4503 1272.42 Q75.529 1277 75.529 1285.75 Q75.529 1294.48 72.4503 1299.08 Q69.3948 1303.67 63.5847 1303.67 Q57.7745 1303.67 54.6958 1299.08 Q51.6403 1294.48 51.6403 1285.75 Q51.6403 1277 54.6958 1272.42 Q57.7745 1267.81 63.5847 1267.81 Z" fill="#000000" fill-rule="nonzero" fill-opacity="1" /><path clip-path="url(#clip640)" d="M83.7466 1297.12 L88.6308 1297.12 L88.6308 1303 L83.7466 1303 L83.7466 1297.12 Z" fill="#000000" fill-rule="nonzero" fill-opacity="1" /><path clip-path="url(#clip640)" d="M98.8622 1268.44 L117.219 1268.44 L117.219 1272.37 L103.145 1272.37 L103.145 1280.84 Q104.163 1280.5 105.182 1280.33 Q106.2 1280.15 107.219 1280.15 Q113.006 1280.15 116.385 1283.32 Q119.765 1286.49 119.765 1291.91 Q119.765 1297.49 116.293 1300.59 Q112.82 1303.67 106.501 1303.67 Q104.325 1303.67 102.057 1303.3 Q99.8113 1302.93 97.4039 1302.19 L97.4039 1297.49 Q99.4872 1298.62 101.709 1299.18 Q103.932 1299.73 106.408 1299.73 Q110.413 1299.73 112.751 1297.62 Q115.089 1295.52 115.089 1291.91 Q115.089 1288.3 112.751 1286.19 Q110.413 1284.08 106.408 1284.08 Q104.534 1284.08 102.659 1284.5 Q100.807 1284.92 98.8622 1285.8 L98.8622 1268.44 Z" fill="#000000" fill-rule="nonzero" fill-opacity="1" /><path clip-path="url(#clip640)" d="M53.3995 1074.2 L61.0384 1074.2 L61.0384 1047.84 L52.7282 1049.51 L52.7282 1045.25 L60.9921 1043.58 L65.668 1043.58 L65.668 1074.2 L73.3068 1074.2 L73.3068 1078.14 L53.3995 1078.14 L53.3995 1074.2 Z" fill="#000000" fill-rule="nonzero" fill-opacity="1" /><path clip-path="url(#clip640)" d="M82.7512 1072.26 L87.6354 1072.26 L87.6354 1078.14 L82.7512 1078.14 L82.7512 1072.26 Z" fill="#000000" fill-rule="nonzero" fill-opacity="1" /><path clip-path="url(#clip640)" d="M107.821 1046.66 Q104.209 1046.66 102.381 1050.22 Q100.575 1053.77 100.575 1060.89 Q100.575 1068 102.381 1071.57 Q104.209 1075.11 107.821 1075.11 Q111.455 1075.11 113.26 1071.57 Q115.089 1068 115.089 1060.89 Q115.089 1053.77 113.26 1050.22 Q111.455 1046.66 107.821 1046.66 M107.821 1042.95 Q113.631 1042.95 116.686 1047.56 Q119.765 1052.14 119.765 1060.89 Q119.765 1069.62 116.686 1074.23 Q113.631 1078.81 107.821 1078.81 Q102.01 1078.81 98.9317 1074.23 Q95.8761 1069.62 95.8761 1060.89 Q95.8761 1052.14 98.9317 1047.56 Q102.01 1042.95 107.821 1042.95 Z" fill="#000000" fill-rule="nonzero" fill-opacity="1" /><path clip-path="url(#clip640)" d="M54.3949 849.349 L62.0337 849.349 L62.0337 822.984 L53.7236 824.65 L53.7236 820.391 L61.9874 818.725 L66.6633 818.725 L66.6633 849.349 L74.3022 849.349 L74.3022 853.285 L54.3949 853.285 L54.3949 849.349 Z" fill="#000000" fill-rule="nonzero" fill-opacity="1" /><path clip-path="url(#clip640)" d="M83.7466 847.405 L88.6308 847.405 L88.6308 853.285 L83.7466 853.285 L83.7466 847.405 Z" fill="#000000" fill-rule="nonzero" fill-opacity="1" /><path clip-path="url(#clip640)" d="M98.8622 818.725 L117.219 818.725 L117.219 822.66 L103.145 822.66 L103.145 831.132 Q104.163 830.785 105.182 830.623 Q106.2 830.437 107.219 830.437 Q113.006 830.437 116.385 833.609 Q119.765 836.78 119.765 842.197 Q119.765 847.775 116.293 850.877 Q112.82 853.956 106.501 853.956 Q104.325 853.956 102.057 853.585 Q99.8113 853.215 97.4039 852.474 L97.4039 847.775 Q99.4872 848.91 101.709 849.465 Q103.932 850.021 106.408 850.021 Q110.413 850.021 112.751 847.914 Q115.089 845.808 115.089 842.197 Q115.089 838.586 112.751 836.479 Q110.413 834.373 106.408 834.373 Q104.534 834.373 102.659 834.789 Q100.807 835.206 98.8622 836.086 L98.8622 818.725 Z" fill="#000000" fill-rule="nonzero" fill-opacity="1" /><path clip-path="url(#clip640)" d="M56.6171 624.494 L72.9365 624.494 L72.9365 628.429 L50.9921 628.429 L50.9921 624.494 Q53.6541 621.739 58.2375 617.11 Q62.8439 612.457 64.0245 611.115 Q66.2698 608.591 67.1494 606.855 Q68.0522 605.096 68.0522 603.406 Q68.0522 600.652 66.1078 598.916 Q64.1865 597.179 61.0847 597.179 Q58.8856 597.179 56.4319 597.943 Q54.0014 598.707 51.2236 600.258 L51.2236 595.536 Q54.0477 594.402 56.5014 593.823 Q58.955 593.244 60.9921 593.244 Q66.3624 593.244 69.5568 595.929 Q72.7513 598.615 72.7513 603.105 Q72.7513 605.235 71.9411 607.156 Q71.1541 609.054 69.0476 611.647 Q68.4689 612.318 65.367 615.536 Q62.2652 618.73 56.6171 624.494 Z" fill="#000000" fill-rule="nonzero" fill-opacity="1" /><path clip-path="url(#clip640)" d="M82.7512 622.55 L87.6354 622.55 L87.6354 628.429 L82.7512 628.429 L82.7512 622.55 Z" fill="#000000" fill-rule="nonzero" fill-opacity="1" /><path clip-path="url(#clip640)" d="M107.821 596.948 Q104.209 596.948 102.381 600.513 Q100.575 604.054 100.575 611.184 Q100.575 618.29 102.381 621.855 Q104.209 625.397 107.821 625.397 Q111.455 625.397 113.26 621.855 Q115.089 618.29 115.089 611.184 Q115.089 604.054 113.26 600.513 Q111.455 596.948 107.821 596.948 M107.821 593.244 Q113.631 593.244 116.686 597.851 Q119.765 602.434 119.765 611.184 Q119.765 619.911 116.686 624.517 Q113.631 629.101 107.821 629.101 Q102.01 629.101 98.9317 624.517 Q95.8761 619.911 95.8761 611.184 Q95.8761 602.434 98.9317 597.851 Q102.01 593.244 107.821 593.244 Z" fill="#000000" fill-rule="nonzero" fill-opacity="1" /><path clip-path="url(#clip640)" d="M57.6125 399.639 L73.9318 399.639 L73.9318 403.574 L51.9875 403.574 L51.9875 399.639 Q54.6495 396.884 59.2328 392.255 Q63.8393 387.602 65.0198 386.259 Q67.2652 383.736 68.1448 382 Q69.0476 380.241 69.0476 378.551 Q69.0476 375.796 67.1032 374.06 Q65.1819 372.324 62.08 372.324 Q59.881 372.324 57.4273 373.088 Q54.9967 373.852 52.219 375.403 L52.219 370.681 Q55.043 369.546 57.4967 368.968 Q59.9504 368.389 61.9874 368.389 Q67.3578 368.389 70.5522 371.074 Q73.7466 373.759 73.7466 378.25 Q73.7466 380.38 72.9365 382.301 Q72.1494 384.199 70.0429 386.792 Q69.4642 387.463 66.3624 390.68 Q63.2606 393.875 57.6125 399.639 Z" fill="#000000" fill-rule="nonzero" fill-opacity="1" /><path clip-path="url(#clip640)" d="M83.7466 397.694 L88.6308 397.694 L88.6308 403.574 L83.7466 403.574 L83.7466 397.694 Z" fill="#000000" fill-rule="nonzero" fill-opacity="1" /><path clip-path="url(#clip640)" d="M98.8622 369.014 L117.219 369.014 L117.219 372.949 L103.145 372.949 L103.145 381.421 Q104.163 381.074 105.182 380.912 Q106.2 380.727 107.219 380.727 Q113.006 380.727 116.385 383.898 Q119.765 387.069 119.765 392.486 Q119.765 398.065 116.293 401.167 Q112.82 404.245 106.501 404.245 Q104.325 404.245 102.057 403.875 Q99.8113 403.504 97.4039 402.764 L97.4039 398.065 Q99.4872 399.199 101.709 399.755 Q103.932 400.31 106.408 400.31 Q110.413 400.31 112.751 398.204 Q115.089 396.097 115.089 392.486 Q115.089 388.875 112.751 386.768 Q110.413 384.662 106.408 384.662 Q104.534 384.662 102.659 385.079 Q100.807 385.495 98.8622 386.375 L98.8622 369.014 Z" fill="#000000" fill-rule="nonzero" fill-opacity="1" /><path clip-path="url(#clip640)" d="M66.7559 160.084 Q70.1124 160.802 71.9874 163.071 Q73.8855 165.339 73.8855 168.672 Q73.8855 173.788 70.367 176.589 Q66.8485 179.39 60.3671 179.39 Q58.1912 179.39 55.8764 178.95 Q53.5847 178.533 51.131 177.677 L51.131 173.163 Q53.0754 174.297 55.3903 174.876 Q57.7051 175.455 60.2282 175.455 Q64.6263 175.455 66.918 173.719 Q69.2328 171.983 69.2328 168.672 Q69.2328 165.617 67.08 163.904 Q64.9504 162.168 61.131 162.168 L57.1032 162.168 L57.1032 158.325 L61.3161 158.325 Q64.7652 158.325 66.5939 156.959 Q68.4226 155.571 68.4226 152.978 Q68.4226 150.316 66.5245 148.904 Q64.6495 147.469 61.131 147.469 Q59.2097 147.469 57.0106 147.885 Q54.8115 148.302 52.1727 149.182 L52.1727 145.015 Q54.8347 144.274 57.1495 143.904 Q59.4875 143.534 61.5476 143.534 Q66.8717 143.534 69.9735 145.964 Q73.0753 148.372 73.0753 152.492 Q73.0753 155.362 71.4318 157.353 Q69.7883 159.321 66.7559 160.084 Z" fill="#000000" fill-rule="nonzero" fill-opacity="1" /><path clip-path="url(#clip640)" d="M82.7512 172.839 L87.6354 172.839 L87.6354 178.719 L82.7512 178.719 L82.7512 172.839 Z" fill="#000000" fill-rule="nonzero" fill-opacity="1" /><path clip-path="url(#clip640)" d="M107.821 147.237 Q104.209 147.237 102.381 150.802 Q100.575 154.344 100.575 161.473 Q100.575 168.58 102.381 172.145 Q104.209 175.686 107.821 175.686 Q111.455 175.686 113.26 172.145 Q115.089 168.58 115.089 161.473 Q115.089 154.344 113.26 150.802 Q111.455 147.237 107.821 147.237 M107.821 143.534 Q113.631 143.534 116.686 148.14 Q119.765 152.723 119.765 161.473 Q119.765 170.2 116.686 174.807 Q113.631 179.39 107.821 179.39 Q102.01 179.39 98.9317 174.807 Q95.8761 170.2 95.8761 161.473 Q95.8761 152.723 98.9317 148.14 Q102.01 143.534 107.821 143.534 Z" fill="#000000" fill-rule="nonzero" fill-opacity="1" /><polyline clip-path="url(#clip642)" style="stroke:#009af9; stroke-linecap:round; stroke-linejoin:round; stroke-width:12; stroke-opacity:1; fill:none" points="217.944,1285.72 425.207,1289.7 632.47,1255.82 839.734,1239.83 1047,1221.72 1254.26,1066.9 1461.52,1063.08 1668.79,1012.22 1876.05,972.536 2083.31,920.313 2290.58,906.882 "/>
<polyline clip-path="url(#clip642)" style="stroke:#000000; stroke-linecap:round; stroke-linejoin:round; stroke-width:12; stroke-opacity:1; fill:none" points="217.944,1285.72 217.944,1285.72 "/>
<polyline clip-path="url(#clip642)" style="stroke:#000000; stroke-linecap:round; stroke-linejoin:round; stroke-width:12; stroke-opacity:1; fill:none" points="425.207,1343.55 425.207,1219.38 "/>
<polyline clip-path="url(#clip642)" style="stroke:#000000; stroke-linecap:round; stroke-linejoin:round; stroke-width:12; stroke-opacity:1; fill:none" points="632.47,1345.85 632.47,1149.75 "/>
<polyline clip-path="url(#clip642)" style="stroke:#000000; stroke-linecap:round; stroke-linejoin:round; stroke-width:12; stroke-opacity:1; fill:none" points="839.734,1353.4 839.734,1070.96 "/>
<polyline clip-path="url(#clip642)" style="stroke:#000000; stroke-linecap:round; stroke-linejoin:round; stroke-width:12; stroke-opacity:1; fill:none" points="1047,1357.6 1047,946.238 "/>
<polyline clip-path="url(#clip642)" style="stroke:#000000; stroke-linecap:round; stroke-linejoin:round; stroke-width:12; stroke-opacity:1; fill:none" points="1254.26,1310.29 1254.26,900.079 "/>
<polyline clip-path="url(#clip642)" style="stroke:#000000; stroke-linecap:round; stroke-linejoin:round; stroke-width:12; stroke-opacity:1; fill:none" points="1461.52,1326.75 1461.52,850.992 "/>
<polyline clip-path="url(#clip642)" style="stroke:#000000; stroke-linecap:round; stroke-linejoin:round; stroke-width:12; stroke-opacity:1; fill:none" points="1668.79,1316.18 1668.79,833.52 "/>
<polyline clip-path="url(#clip642)" style="stroke:#000000; stroke-linecap:round; stroke-linejoin:round; stroke-width:12; stroke-opacity:1; fill:none" points="1876.05,1307.15 1876.05,593.48 "/>
<polyline clip-path="url(#clip642)" style="stroke:#000000; stroke-linecap:round; stroke-linejoin:round; stroke-width:12; stroke-opacity:1; fill:none" points="2083.31,1308.27 2083.31,204.015 "/>
<polyline clip-path="url(#clip642)" style="stroke:#000000; stroke-linecap:round; stroke-linejoin:round; stroke-width:12; stroke-opacity:1; fill:none" points="2290.58,1306.47 2290.58,87.9763 "/>
<line clip-path="url(#clip642)" x1="233.944" y1="1285.72" x2="201.944" y2="1285.72" style="stroke:#000000; stroke-width:12; stroke-opacity:1"/>
<line clip-path="url(#clip642)" x1="233.944" y1="1285.72" x2="201.944" y2="1285.72" style="stroke:#000000; stroke-width:12; stroke-opacity:1"/>
<line clip-path="url(#clip642)" x1="441.207" y1="1343.55" x2="409.207" y2="1343.55" style="stroke:#000000; stroke-width:12; stroke-opacity:1"/>
<line clip-path="url(#clip642)" x1="441.207" y1="1219.38" x2="409.207" y2="1219.38" style="stroke:#000000; stroke-width:12; stroke-opacity:1"/>
<line clip-path="url(#clip642)" x1="648.47" y1="1345.85" x2="616.47" y2="1345.85" style="stroke:#000000; stroke-width:12; stroke-opacity:1"/>
<line clip-path="url(#clip642)" x1="648.47" y1="1149.75" x2="616.47" y2="1149.75" style="stroke:#000000; stroke-width:12; stroke-opacity:1"/>
<line clip-path="url(#clip642)" x1="855.734" y1="1353.4" x2="823.734" y2="1353.4" style="stroke:#000000; stroke-width:12; stroke-opacity:1"/>
<line clip-path="url(#clip642)" x1="855.734" y1="1070.96" x2="823.734" y2="1070.96" style="stroke:#000000; stroke-width:12; stroke-opacity:1"/>
<line clip-path="url(#clip642)" x1="1063" y1="1357.6" x2="1031" y2="1357.6" style="stroke:#000000; stroke-width:12; stroke-opacity:1"/>
<line clip-path="url(#clip642)" x1="1063" y1="946.238" x2="1031" y2="946.238" style="stroke:#000000; stroke-width:12; stroke-opacity:1"/>
<line clip-path="url(#clip642)" x1="1270.26" y1="1310.29" x2="1238.26" y2="1310.29" style="stroke:#000000; stroke-width:12; stroke-opacity:1"/>
<line clip-path="url(#clip642)" x1="1270.26" y1="900.079" x2="1238.26" y2="900.079" style="stroke:#000000; stroke-width:12; stroke-opacity:1"/>
<line clip-path="url(#clip642)" x1="1477.52" y1="1326.75" x2="1445.52" y2="1326.75" style="stroke:#000000; stroke-width:12; stroke-opacity:1"/>
<line clip-path="url(#clip642)" x1="1477.52" y1="850.992" x2="1445.52" y2="850.992" style="stroke:#000000; stroke-width:12; stroke-opacity:1"/>
<line clip-path="url(#clip642)" x1="1684.79" y1="1316.18" x2="1652.79" y2="1316.18" style="stroke:#000000; stroke-width:12; stroke-opacity:1"/>
<line clip-path="url(#clip642)" x1="1684.79" y1="833.52" x2="1652.79" y2="833.52" style="stroke:#000000; stroke-width:12; stroke-opacity:1"/>
<line clip-path="url(#clip642)" x1="1892.05" y1="1307.15" x2="1860.05" y2="1307.15" style="stroke:#000000; stroke-width:12; stroke-opacity:1"/>
<line clip-path="url(#clip642)" x1="1892.05" y1="593.48" x2="1860.05" y2="593.48" style="stroke:#000000; stroke-width:12; stroke-opacity:1"/>
<line clip-path="url(#clip642)" x1="2099.31" y1="1308.27" x2="2067.31" y2="1308.27" style="stroke:#000000; stroke-width:12; stroke-opacity:1"/>
<line clip-path="url(#clip642)" x1="2099.31" y1="204.015" x2="2067.31" y2="204.015" style="stroke:#000000; stroke-width:12; stroke-opacity:1"/>
<line clip-path="url(#clip642)" x1="2306.58" y1="1306.47" x2="2274.58" y2="1306.47" style="stroke:#000000; stroke-width:12; stroke-opacity:1"/>
<line clip-path="url(#clip642)" x1="2306.58" y1="87.9763" x2="2274.58" y2="87.9763" style="stroke:#000000; stroke-width:12; stroke-opacity:1"/>
<polyline clip-path="url(#clip642)" style="stroke:#e26f46; stroke-linecap:round; stroke-linejoin:round; stroke-width:12; stroke-opacity:1; fill:none" points="217.944,1285.72 425.207,1279.31 632.47,1265.4 839.734,1268.41 1047,1270.45 1254.26,1256.93 1461.52,1263.63 1668.79,1296.79 1876.05,1313.42 2083.31,1312.66 2290.58,1279.75 "/>
<polyline clip-path="url(#clip642)" style="stroke:#000000; stroke-linecap:round; stroke-linejoin:round; stroke-width:12; stroke-opacity:1; fill:none" points="217.944,1285.72 217.944,1285.72 "/>
<polyline clip-path="url(#clip642)" style="stroke:#000000; stroke-linecap:round; stroke-linejoin:round; stroke-width:12; stroke-opacity:1; fill:none" points="425.207,1339.84 425.207,1215.76 "/>
<polyline clip-path="url(#clip642)" style="stroke:#000000; stroke-linecap:round; stroke-linejoin:round; stroke-width:12; stroke-opacity:1; fill:none" points="632.47,1359.34 632.47,1188.26 "/>
<polyline clip-path="url(#clip642)" style="stroke:#000000; stroke-linecap:round; stroke-linejoin:round; stroke-width:12; stroke-opacity:1; fill:none" points="839.734,1374.2 839.734,1118.18 "/>
<polyline clip-path="url(#clip642)" style="stroke:#000000; stroke-linecap:round; stroke-linejoin:round; stroke-width:12; stroke-opacity:1; fill:none" points="1047,1395.53 1047,1051.6 "/>
<polyline clip-path="url(#clip642)" style="stroke:#000000; stroke-linecap:round; stroke-linejoin:round; stroke-width:12; stroke-opacity:1; fill:none" points="1254.26,1415.68 1254.26,1031.32 "/>
<polyline clip-path="url(#clip642)" style="stroke:#000000; stroke-linecap:round; stroke-linejoin:round; stroke-width:12; stroke-opacity:1; fill:none" points="1461.52,1424.8 1461.52,925.498 "/>
<polyline clip-path="url(#clip642)" style="stroke:#000000; stroke-linecap:round; stroke-linejoin:round; stroke-width:12; stroke-opacity:1; fill:none" points="1668.79,1440.41 1668.79,864.587 "/>
<polyline clip-path="url(#clip642)" style="stroke:#000000; stroke-linecap:round; stroke-linejoin:round; stroke-width:12; stroke-opacity:1; fill:none" points="1876.05,1445.72 1876.05,772.527 "/>
<polyline clip-path="url(#clip642)" style="stroke:#000000; stroke-linecap:round; stroke-linejoin:round; stroke-width:12; stroke-opacity:1; fill:none" points="2083.31,1439.43 2083.31,617.729 "/>
<polyline clip-path="url(#clip642)" style="stroke:#000000; stroke-linecap:round; stroke-linejoin:round; stroke-width:12; stroke-opacity:1; fill:none" points="2290.58,1435.8 2290.58,358.957 "/>
<line clip-path="url(#clip642)" x1="233.944" y1="1285.72" x2="201.944" y2="1285.72" style="stroke:#000000; stroke-width:12; stroke-opacity:1"/>
<line clip-path="url(#clip642)" x1="233.944" y1="1285.72" x2="201.944" y2="1285.72" style="stroke:#000000; stroke-width:12; stroke-opacity:1"/>
<line clip-path="url(#clip642)" x1="441.207" y1="1339.84" x2="409.207" y2="1339.84" style="stroke:#000000; stroke-width:12; stroke-opacity:1"/>
<line clip-path="url(#clip642)" x1="441.207" y1="1215.76" x2="409.207" y2="1215.76" style="stroke:#000000; stroke-width:12; stroke-opacity:1"/>
<line clip-path="url(#clip642)" x1="648.47" y1="1359.34" x2="616.47" y2="1359.34" style="stroke:#000000; stroke-width:12; stroke-opacity:1"/>
<line clip-path="url(#clip642)" x1="648.47" y1="1188.26" x2="616.47" y2="1188.26" style="stroke:#000000; stroke-width:12; stroke-opacity:1"/>
<line clip-path="url(#clip642)" x1="855.734" y1="1374.2" x2="823.734" y2="1374.2" style="stroke:#000000; stroke-width:12; stroke-opacity:1"/>
<line clip-path="url(#clip642)" x1="855.734" y1="1118.18" x2="823.734" y2="1118.18" style="stroke:#000000; stroke-width:12; stroke-opacity:1"/>
<line clip-path="url(#clip642)" x1="1063" y1="1395.53" x2="1031" y2="1395.53" style="stroke:#000000; stroke-width:12; stroke-opacity:1"/>
<line clip-path="url(#clip642)" x1="1063" y1="1051.6" x2="1031" y2="1051.6" style="stroke:#000000; stroke-width:12; stroke-opacity:1"/>
<line clip-path="url(#clip642)" x1="1270.26" y1="1415.68" x2="1238.26" y2="1415.68" style="stroke:#000000; stroke-width:12; stroke-opacity:1"/>
<line clip-path="url(#clip642)" x1="1270.26" y1="1031.32" x2="1238.26" y2="1031.32" style="stroke:#000000; stroke-width:12; stroke-opacity:1"/>
<line clip-path="url(#clip642)" x1="1477.52" y1="1424.8" x2="1445.52" y2="1424.8" style="stroke:#000000; stroke-width:12; stroke-opacity:1"/>
<line clip-path="url(#clip642)" x1="1477.52" y1="925.498" x2="1445.52" y2="925.498" style="stroke:#000000; stroke-width:12; stroke-opacity:1"/>
<line clip-path="url(#clip642)" x1="1684.79" y1="1440.41" x2="1652.79" y2="1440.41" style="stroke:#000000; stroke-width:12; stroke-opacity:1"/>
<line clip-path="url(#clip642)" x1="1684.79" y1="864.587" x2="1652.79" y2="864.587" style="stroke:#000000; stroke-width:12; stroke-opacity:1"/>
<line clip-path="url(#clip642)" x1="1892.05" y1="1445.72" x2="1860.05" y2="1445.72" style="stroke:#000000; stroke-width:12; stroke-opacity:1"/>
<line clip-path="url(#clip642)" x1="1892.05" y1="772.527" x2="1860.05" y2="772.527" style="stroke:#000000; stroke-width:12; stroke-opacity:1"/>
<line clip-path="url(#clip642)" x1="2099.31" y1="1439.43" x2="2067.31" y2="1439.43" style="stroke:#000000; stroke-width:12; stroke-opacity:1"/>
<line clip-path="url(#clip642)" x1="2099.31" y1="617.729" x2="2067.31" y2="617.729" style="stroke:#000000; stroke-width:12; stroke-opacity:1"/>
<line clip-path="url(#clip642)" x1="2306.58" y1="1435.8" x2="2274.58" y2="1435.8" style="stroke:#000000; stroke-width:12; stroke-opacity:1"/>
<line clip-path="url(#clip642)" x1="2306.58" y1="358.957" x2="2274.58" y2="358.957" style="stroke:#000000; stroke-width:12; stroke-opacity:1"/>
</svg>
