<?xml version="1.0" encoding="utf-8"?>
<svg xmlns="http://www.w3.org/2000/svg" xmlns:xlink="http://www.w3.org/1999/xlink" width="600" height="400" viewBox="0 0 2400 1600">
<defs>
  <clipPath id="clip010">
    <rect x="0" y="0" width="2400" height="1600"/>
  </clipPath>
</defs>
<path clip-path="url(#clip010)" d="M0 1600 L2400 1600 L2400 0 L0 0  Z" fill="#ffffff" fill-rule="evenodd" fill-opacity="1"/>
<defs>
  <clipPath id="clip011">
    <rect x="186" y="47" width="2167" height="1440"/>
  </clipPath>
</defs>
<path clip-path="url(#clip010)" d="M186.274 1486.45 L2352.76 1486.45 L2352.76 47.2441 L186.274 47.2441  Z" fill="#ffffff" fill-rule="evenodd" fill-opacity="1"/>
<polyline clip-path="url(#clip011)" style="stroke:#000000; stroke-linecap:round; stroke-linejoin:round; stroke-width:2; stroke-opacity:0.1; fill:none" points="247.59,1486.45 247.59,47.2441 "/>
<polyline clip-path="url(#clip011)" style="stroke:#000000; stroke-linecap:round; stroke-linejoin:round; stroke-width:2; stroke-opacity:0.1; fill:none" points="758.552,1486.45 758.552,47.2441 "/>
<polyline clip-path="url(#clip011)" style="stroke:#000000; stroke-linecap:round; stroke-linejoin:round; stroke-width:2; stroke-opacity:0.1; fill:none" points="1269.51,1486.45 1269.51,47.2441 "/>
<polyline clip-path="url(#clip011)" style="stroke:#000000; stroke-linecap:round; stroke-linejoin:round; stroke-width:2; stroke-opacity:0.1; fill:none" points="1780.48,1486.45 1780.48,47.2441 "/>
<polyline clip-path="url(#clip011)" style="stroke:#000000; stroke-linecap:round; stroke-linejoin:round; stroke-width:2; stroke-opacity:0.1; fill:none" points="2291.44,1486.45 2291.44,47.2441 "/>
<polyline clip-path="url(#clip011)" style="stroke:#000000; stroke-linecap:round; stroke-linejoin:round; stroke-width:2; stroke-opacity:0.1; fill:none" points="186.274,1433.36 2352.76,1433.36 "/>
<polyline clip-path="url(#clip011)" style="stroke:#000000; stroke-linecap:round; stroke-linejoin:round; stroke-width:2; stroke-opacity:0.1; fill:none" points="186.274,1154.96 2352.76,1154.96 "/>
<polyline clip-path="url(#clip011)" style="stroke:#000000; stroke-linecap:round; stroke-linejoin:round; stroke-width:2; stroke-opacity:0.1; fill:none" points="186.274,876.568 2352.76,876.568 "/>
<polyline clip-path="url(#clip011)" style="stroke:#000000; stroke-linecap:round; stroke-linejoin:round; stroke-width:2; stroke-opacity:0.1; fill:none" points="186.274,598.173 2352.76,598.173 "/>
<polyline clip-path="url(#clip011)" style="stroke:#000000; stroke-linecap:round; stroke-linejoin:round; stroke-width:2; stroke-opacity:0.1; fill:none" points="186.274,319.778 2352.76,319.778 "/>
<polyline clip-path="url(#clip010)" style="stroke:#000000; stroke-linecap:round; stroke-linejoin:round; stroke-width:4; stroke-opacity:1; fill:none" points="186.274,1486.45 2352.76,1486.45 "/>
<polyline clip-path="url(#clip010)" style="stroke:#000000; stroke-linecap:round; stroke-linejoin:round; stroke-width:4; stroke-opacity:1; fill:none" points="247.59,1486.45 247.59,1467.55 "/>
<polyline clip-path="url(#clip010)" style="stroke:#000000; stroke-linecap:round; stroke-linejoin:round; stroke-width:4; stroke-opacity:1; fill:none" points="758.552,1486.45 758.552,1467.55 "/>
<polyline clip-path="url(#clip010)" style="stroke:#000000; stroke-linecap:round; stroke-linejoin:round; stroke-width:4; stroke-opacity:1; fill:none" points="1269.51,1486.45 1269.51,1467.55 "/>
<polyline clip-path="url(#clip010)" style="stroke:#000000; stroke-linecap:round; stroke-linejoin:round; stroke-width:4; stroke-opacity:1; fill:none" points="1780.48,1486.45 1780.48,1467.55 "/>
<polyline clip-path="url(#clip010)" style="stroke:#000000; stroke-linecap:round; stroke-linejoin:round; stroke-width:4; stroke-opacity:1; fill:none" points="2291.44,1486.45 2291.44,1467.55 "/>
<path clip-path="url(#clip010)" d="M209.893 1517.37 Q206.282 1517.37 204.453 1520.93 Q202.648 1524.47 202.648 1531.6 Q202.648 1538.71 204.453 1542.27 Q206.282 1545.82 209.893 1545.82 Q213.527 1545.82 215.333 1542.27 Q217.161 1538.71 217.161 1531.6 Q217.161 1524.47 215.333 1520.93 Q213.527 1517.37 209.893 1517.37 M209.893 1513.66 Q215.703 1513.66 218.759 1518.27 Q221.837 1522.85 221.837 1531.6 Q221.837 1540.33 218.759 1544.94 Q215.703 1549.52 209.893 1549.52 Q204.083 1549.52 201.004 1544.94 Q197.949 1540.33 197.949 1531.6 Q197.949 1522.85 201.004 1518.27 Q204.083 1513.66 209.893 1513.66 Z" fill="#000000" fill-rule="nonzero" fill-opacity="1" /><path clip-path="url(#clip010)" d="M230.055 1542.97 L234.939 1542.97 L234.939 1548.85 L230.055 1548.85 L230.055 1542.97 Z" fill="#000000" fill-rule="nonzero" fill-opacity="1" /><path clip-path="url(#clip010)" d="M255.124 1517.37 Q251.513 1517.37 249.684 1520.93 Q247.879 1524.47 247.879 1531.6 Q247.879 1538.71 249.684 1542.27 Q251.513 1545.82 255.124 1545.82 Q258.758 1545.82 260.564 1542.27 Q262.393 1538.71 262.393 1531.6 Q262.393 1524.47 260.564 1520.93 Q258.758 1517.37 255.124 1517.37 M255.124 1513.66 Q260.934 1513.66 263.99 1518.27 Q267.069 1522.85 267.069 1531.6 Q267.069 1540.33 263.99 1544.94 Q260.934 1549.52 255.124 1549.52 Q249.314 1549.52 246.235 1544.94 Q243.18 1540.33 243.18 1531.6 Q243.18 1522.85 246.235 1518.27 Q249.314 1513.66 255.124 1513.66 Z" fill="#000000" fill-rule="nonzero" fill-opacity="1" /><path clip-path="url(#clip010)" d="M285.286 1517.37 Q281.675 1517.37 279.846 1520.93 Q278.041 1524.47 278.041 1531.6 Q278.041 1538.71 279.846 1542.27 Q281.675 1545.82 285.286 1545.82 Q288.92 1545.82 290.726 1542.27 Q292.555 1538.71 292.555 1531.6 Q292.555 1524.47 290.726 1520.93 Q288.92 1517.37 285.286 1517.37 M285.286 1513.66 Q291.096 1513.66 294.152 1518.27 Q297.23 1522.85 297.23 1531.6 Q297.23 1540.33 294.152 1544.94 Q291.096 1549.52 285.286 1549.52 Q279.476 1549.52 276.397 1544.94 Q273.342 1540.33 273.342 1531.6 Q273.342 1522.85 276.397 1518.27 Q279.476 1513.66 285.286 1513.66 Z" fill="#000000" fill-rule="nonzero" fill-opacity="1" /><path clip-path="url(#clip010)" d="M721.353 1517.37 Q717.742 1517.37 715.914 1520.93 Q714.108 1524.47 714.108 1531.6 Q714.108 1538.71 715.914 1542.27 Q717.742 1545.82 721.353 1545.82 Q724.988 1545.82 726.793 1542.27 Q728.622 1538.71 728.622 1531.6 Q728.622 1524.47 726.793 1520.93 Q724.988 1517.37 721.353 1517.37 M721.353 1513.66 Q727.164 1513.66 730.219 1518.27 Q733.298 1522.85 733.298 1531.6 Q733.298 1540.33 730.219 1544.94 Q727.164 1549.52 721.353 1549.52 Q715.543 1549.52 712.465 1544.94 Q709.409 1540.33 709.409 1531.6 Q709.409 1522.85 712.465 1518.27 Q715.543 1513.66 721.353 1513.66 Z" fill="#000000" fill-rule="nonzero" fill-opacity="1" /><path clip-path="url(#clip010)" d="M741.515 1542.97 L746.4 1542.97 L746.4 1548.85 L741.515 1548.85 L741.515 1542.97 Z" fill="#000000" fill-rule="nonzero" fill-opacity="1" /><path clip-path="url(#clip010)" d="M760.612 1544.91 L776.932 1544.91 L776.932 1548.85 L754.987 1548.85 L754.987 1544.91 Q757.649 1542.16 762.233 1537.53 Q766.839 1532.88 768.02 1531.53 Q770.265 1529.01 771.145 1527.27 Q772.048 1525.51 772.048 1523.82 Q772.048 1521.07 770.103 1519.33 Q768.182 1517.6 765.08 1517.6 Q762.881 1517.6 760.427 1518.36 Q757.997 1519.13 755.219 1520.68 L755.219 1515.95 Q758.043 1514.82 760.497 1514.24 Q762.95 1513.66 764.987 1513.66 Q770.358 1513.66 773.552 1516.35 Q776.747 1519.03 776.747 1523.52 Q776.747 1525.65 775.936 1527.57 Q775.149 1529.47 773.043 1532.07 Q772.464 1532.74 769.362 1535.95 Q766.261 1539.15 760.612 1544.91 Z" fill="#000000" fill-rule="nonzero" fill-opacity="1" /><path clip-path="url(#clip010)" d="M786.793 1514.29 L805.149 1514.29 L805.149 1518.22 L791.075 1518.22 L791.075 1526.7 Q792.094 1526.35 793.112 1526.19 Q794.131 1526 795.149 1526 Q800.936 1526 804.316 1529.17 Q807.695 1532.34 807.695 1537.76 Q807.695 1543.34 804.223 1546.44 Q800.751 1549.52 794.432 1549.52 Q792.256 1549.52 789.987 1549.15 Q787.742 1548.78 785.335 1548.04 L785.335 1543.34 Q787.418 1544.47 789.64 1545.03 Q791.862 1545.58 794.339 1545.58 Q798.344 1545.58 800.682 1543.48 Q803.02 1541.37 803.02 1537.76 Q803.02 1534.15 800.682 1532.04 Q798.344 1529.94 794.339 1529.94 Q792.464 1529.94 790.589 1530.35 Q788.737 1530.77 786.793 1531.65 L786.793 1514.29 Z" fill="#000000" fill-rule="nonzero" fill-opacity="1" /><path clip-path="url(#clip010)" d="M1231.82 1517.37 Q1228.21 1517.37 1226.38 1520.93 Q1224.57 1524.47 1224.57 1531.6 Q1224.57 1538.71 1226.38 1542.27 Q1228.21 1545.82 1231.82 1545.82 Q1235.45 1545.82 1237.26 1542.27 Q1239.09 1538.71 1239.09 1531.6 Q1239.09 1524.47 1237.26 1520.93 Q1235.45 1517.37 1231.82 1517.37 M1231.82 1513.66 Q1237.63 1513.66 1240.68 1518.27 Q1243.76 1522.85 1243.76 1531.6 Q1243.76 1540.33 1240.68 1544.94 Q1237.63 1549.52 1231.82 1549.52 Q1226.01 1549.52 1222.93 1544.94 Q1219.87 1540.33 1219.87 1531.6 Q1219.87 1522.85 1222.93 1518.27 Q1226.01 1513.66 1231.82 1513.66 Z" fill="#000000" fill-rule="nonzero" fill-opacity="1" /><path clip-path="url(#clip010)" d="M1251.98 1542.97 L1256.86 1542.97 L1256.86 1548.85 L1251.98 1548.85 L1251.98 1542.97 Z" fill="#000000" fill-rule="nonzero" fill-opacity="1" /><path clip-path="url(#clip010)" d="M1267.1 1514.29 L1285.45 1514.29 L1285.45 1518.22 L1271.38 1518.22 L1271.38 1526.7 Q1272.4 1526.35 1273.42 1526.19 Q1274.43 1526 1275.45 1526 Q1281.24 1526 1284.62 1529.17 Q1288 1532.34 1288 1537.76 Q1288 1543.34 1284.53 1546.44 Q1281.05 1549.52 1274.73 1549.52 Q1272.56 1549.52 1270.29 1549.15 Q1268.05 1548.78 1265.64 1548.04 L1265.64 1543.34 Q1267.72 1544.47 1269.94 1545.03 Q1272.17 1545.58 1274.64 1545.58 Q1278.65 1545.58 1280.98 1543.48 Q1283.32 1541.37 1283.32 1537.76 Q1283.32 1534.15 1280.98 1532.04 Q1278.65 1529.94 1274.64 1529.94 Q1272.77 1529.94 1270.89 1530.35 Q1269.04 1530.77 1267.1 1531.65 L1267.1 1514.29 Z" fill="#000000" fill-rule="nonzero" fill-opacity="1" /><path clip-path="url(#clip010)" d="M1307.21 1517.37 Q1303.6 1517.37 1301.77 1520.93 Q1299.97 1524.47 1299.97 1531.6 Q1299.97 1538.71 1301.77 1542.27 Q1303.6 1545.82 1307.21 1545.82 Q1310.85 1545.82 1312.65 1542.27 Q1314.48 1538.71 1314.48 1531.6 Q1314.48 1524.47 1312.65 1520.93 Q1310.85 1517.37 1307.21 1517.37 M1307.21 1513.66 Q1313.02 1513.66 1316.08 1518.27 Q1319.16 1522.85 1319.16 1531.6 Q1319.16 1540.33 1316.08 1544.94 Q1313.02 1549.52 1307.21 1549.52 Q1301.4 1549.52 1298.32 1544.94 Q1295.27 1540.33 1295.27 1531.6 Q1295.27 1522.85 1298.32 1518.27 Q1301.4 1513.66 1307.21 1513.66 Z" fill="#000000" fill-rule="nonzero" fill-opacity="1" /><path clip-path="url(#clip010)" d="M1743.28 1517.37 Q1739.67 1517.37 1737.84 1520.93 Q1736.03 1524.47 1736.03 1531.6 Q1736.03 1538.71 1737.84 1542.27 Q1739.67 1545.82 1743.28 1545.82 Q1746.91 1545.82 1748.72 1542.27 Q1750.55 1538.71 1750.55 1531.6 Q1750.55 1524.47 1748.72 1520.93 Q1746.91 1517.37 1743.28 1517.37 M1743.28 1513.66 Q1749.09 1513.66 1752.14 1518.27 Q1755.22 1522.85 1755.22 1531.6 Q1755.22 1540.33 1752.14 1544.94 Q1749.09 1549.52 1743.28 1549.52 Q1737.47 1549.52 1734.39 1544.94 Q1731.33 1540.33 1731.33 1531.6 Q1731.33 1522.85 1734.39 1518.27 Q1737.47 1513.66 1743.28 1513.66 Z" fill="#000000" fill-rule="nonzero" fill-opacity="1" /><path clip-path="url(#clip010)" d="M1763.44 1542.97 L1768.32 1542.97 L1768.32 1548.85 L1763.44 1548.85 L1763.44 1542.97 Z" fill="#000000" fill-rule="nonzero" fill-opacity="1" /><path clip-path="url(#clip010)" d="M1777.33 1514.29 L1799.55 1514.29 L1799.55 1516.28 L1787.01 1548.85 L1782.12 1548.85 L1793.93 1518.22 L1777.33 1518.22 L1777.33 1514.29 Z" fill="#000000" fill-rule="nonzero" fill-opacity="1" /><path clip-path="url(#clip010)" d="M1808.72 1514.29 L1827.07 1514.29 L1827.07 1518.22 L1813 1518.22 L1813 1526.7 Q1814.02 1526.35 1815.04 1526.19 Q1816.06 1526 1817.07 1526 Q1822.86 1526 1826.24 1529.17 Q1829.62 1532.34 1829.62 1537.76 Q1829.62 1543.34 1826.15 1546.44 Q1822.68 1549.52 1816.36 1549.52 Q1814.18 1549.52 1811.91 1549.15 Q1809.67 1548.78 1807.26 1548.04 L1807.26 1543.34 Q1809.34 1544.47 1811.57 1545.03 Q1813.79 1545.58 1816.26 1545.58 Q1820.27 1545.58 1822.61 1543.48 Q1824.95 1541.37 1824.95 1537.76 Q1824.95 1534.15 1822.61 1532.04 Q1820.27 1529.94 1816.26 1529.94 Q1814.39 1529.94 1812.51 1530.35 Q1810.66 1530.77 1808.72 1531.65 L1808.72 1514.29 Z" fill="#000000" fill-rule="nonzero" fill-opacity="1" /><path clip-path="url(#clip010)" d="M2243.51 1544.91 L2251.15 1544.91 L2251.15 1518.55 L2242.84 1520.21 L2242.84 1515.95 L2251.1 1514.29 L2255.78 1514.29 L2255.78 1544.91 L2263.42 1544.91 L2263.42 1548.85 L2243.51 1548.85 L2243.51 1544.91 Z" fill="#000000" fill-rule="nonzero" fill-opacity="1" /><path clip-path="url(#clip010)" d="M2272.86 1542.97 L2277.75 1542.97 L2277.75 1548.85 L2272.86 1548.85 L2272.86 1542.97 Z" fill="#000000" fill-rule="nonzero" fill-opacity="1" /><path clip-path="url(#clip010)" d="M2297.93 1517.37 Q2294.32 1517.37 2292.49 1520.93 Q2290.69 1524.47 2290.69 1531.6 Q2290.69 1538.71 2292.49 1542.27 Q2294.32 1545.82 2297.93 1545.82 Q2301.57 1545.82 2303.37 1542.27 Q2305.2 1538.71 2305.2 1531.6 Q2305.2 1524.47 2303.37 1520.93 Q2301.57 1517.37 2297.93 1517.37 M2297.93 1513.66 Q2303.74 1513.66 2306.8 1518.27 Q2309.88 1522.85 2309.88 1531.6 Q2309.88 1540.33 2306.8 1544.94 Q2303.74 1549.52 2297.93 1549.52 Q2292.12 1549.52 2289.04 1544.94 Q2285.99 1540.33 2285.99 1531.6 Q2285.99 1522.85 2289.04 1518.27 Q2292.12 1513.66 2297.93 1513.66 Z" fill="#000000" fill-rule="nonzero" fill-opacity="1" /><path clip-path="url(#clip010)" d="M2328.1 1517.37 Q2324.48 1517.37 2322.66 1520.93 Q2320.85 1524.47 2320.85 1531.6 Q2320.85 1538.71 2322.66 1542.27 Q2324.48 1545.82 2328.1 1545.82 Q2331.73 1545.82 2333.54 1542.27 Q2335.36 1538.71 2335.36 1531.6 Q2335.36 1524.47 2333.54 1520.93 Q2331.73 1517.37 2328.1 1517.37 M2328.1 1513.66 Q2333.91 1513.66 2336.96 1518.27 Q2340.04 1522.85 2340.04 1531.6 Q2340.04 1540.33 2336.96 1544.94 Q2333.91 1549.52 2328.1 1549.52 Q2322.29 1549.52 2319.21 1544.94 Q2316.15 1540.33 2316.15 1531.6 Q2316.15 1522.85 2319.21 1518.27 Q2322.29 1513.66 2328.1 1513.66 Z" fill="#000000" fill-rule="nonzero" fill-opacity="1" /><polyline clip-path="url(#clip010)" style="stroke:#000000; stroke-linecap:round; stroke-linejoin:round; stroke-width:4; stroke-opacity:1; fill:none" points="186.274,1486.45 186.274,47.2441 "/>
<polyline clip-path="url(#clip010)" style="stroke:#000000; stroke-linecap:round; stroke-linejoin:round; stroke-width:4; stroke-opacity:1; fill:none" points="186.274,1433.36 205.172,1433.36 "/>
<polyline clip-path="url(#clip010)" style="stroke:#000000; stroke-linecap:round; stroke-linejoin:round; stroke-width:4; stroke-opacity:1; fill:none" points="186.274,1154.96 205.172,1154.96 "/>
<polyline clip-path="url(#clip010)" style="stroke:#000000; stroke-linecap:round; stroke-linejoin:round; stroke-width:4; stroke-opacity:1; fill:none" points="186.274,876.568 205.172,876.568 "/>
<polyline clip-path="url(#clip010)" style="stroke:#000000; stroke-linecap:round; stroke-linejoin:round; stroke-width:4; stroke-opacity:1; fill:none" points="186.274,598.173 205.172,598.173 "/>
<polyline clip-path="url(#clip010)" style="stroke:#000000; stroke-linecap:round; stroke-linejoin:round; stroke-width:4; stroke-opacity:1; fill:none" points="186.274,319.778 205.172,319.778 "/>
<path clip-path="url(#clip010)" d="M62.9365 1419.16 Q59.3254 1419.16 57.4967 1422.72 Q55.6912 1426.26 55.6912 1433.39 Q55.6912 1440.5 57.4967 1444.06 Q59.3254 1447.61 62.9365 1447.61 Q66.5707 1447.61 68.3763 1444.06 Q70.205 1440.5 70.205 1433.39 Q70.205 1426.26 68.3763 1422.72 Q66.5707 1419.16 62.9365 1419.16 M62.9365 1415.45 Q68.7467 1415.45 71.8022 1420.06 Q74.8809 1424.64 74.8809 1433.39 Q74.8809 1442.12 71.8022 1446.73 Q68.7467 1451.31 62.9365 1451.31 Q57.1264 1451.31 54.0477 1446.73 Q50.9921 1442.12 50.9921 1433.39 Q50.9921 1424.64 54.0477 1420.06 Q57.1264 1415.45 62.9365 1415.45 Z" fill="#000000" fill-rule="nonzero" fill-opacity="1" /><path clip-path="url(#clip010)" d="M83.0984 1444.76 L87.9827 1444.76 L87.9827 1450.64 L83.0984 1450.64 L83.0984 1444.76 Z" fill="#000000" fill-rule="nonzero" fill-opacity="1" /><path clip-path="url(#clip010)" d="M98.2141 1416.08 L116.57 1416.08 L116.57 1420.01 L102.496 1420.01 L102.496 1428.49 Q103.515 1428.14 104.534 1427.98 Q105.552 1427.79 106.571 1427.79 Q112.358 1427.79 115.737 1430.96 Q119.117 1434.13 119.117 1439.55 Q119.117 1445.13 115.645 1448.23 Q112.172 1451.31 105.853 1451.31 Q103.677 1451.31 101.409 1450.94 Q99.1632 1450.57 96.7558 1449.83 L96.7558 1445.13 Q98.8391 1446.26 101.061 1446.82 Q103.284 1447.37 105.76 1447.37 Q109.765 1447.37 112.103 1445.27 Q114.441 1443.16 114.441 1439.55 Q114.441 1435.94 112.103 1433.83 Q109.765 1431.73 105.76 1431.73 Q103.885 1431.73 102.01 1432.14 Q100.159 1432.56 98.2141 1433.44 L98.2141 1416.08 Z" fill="#000000" fill-rule="nonzero" fill-opacity="1" /><path clip-path="url(#clip010)" d="M138.33 1419.16 Q134.719 1419.16 132.89 1422.72 Q131.084 1426.26 131.084 1433.39 Q131.084 1440.5 132.89 1444.06 Q134.719 1447.61 138.33 1447.61 Q141.964 1447.61 143.769 1444.06 Q145.598 1440.5 145.598 1433.39 Q145.598 1426.26 143.769 1422.72 Q141.964 1419.16 138.33 1419.16 M138.33 1415.45 Q144.14 1415.45 147.195 1420.06 Q150.274 1424.64 150.274 1433.39 Q150.274 1442.12 147.195 1446.73 Q144.14 1451.31 138.33 1451.31 Q132.519 1451.31 129.441 1446.73 Q126.385 1442.12 126.385 1433.39 Q126.385 1424.64 129.441 1420.06 Q132.519 1415.45 138.33 1415.45 Z" fill="#000000" fill-rule="nonzero" fill-opacity="1" /><path clip-path="url(#clip010)" d="M63.9319 1140.76 Q60.3208 1140.76 58.4921 1144.33 Q56.6865 1147.87 56.6865 1155 Q56.6865 1162.1 58.4921 1165.67 Q60.3208 1169.21 63.9319 1169.21 Q67.5661 1169.21 69.3717 1165.67 Q71.2004 1162.1 71.2004 1155 Q71.2004 1147.87 69.3717 1144.33 Q67.5661 1140.76 63.9319 1140.76 M63.9319 1137.06 Q69.742 1137.06 72.7976 1141.66 Q75.8763 1146.25 75.8763 1155 Q75.8763 1163.72 72.7976 1168.33 Q69.742 1172.91 63.9319 1172.91 Q58.1217 1172.91 55.043 1168.33 Q51.9875 1163.72 51.9875 1155 Q51.9875 1146.25 55.043 1141.66 Q58.1217 1137.06 63.9319 1137.06 Z" fill="#000000" fill-rule="nonzero" fill-opacity="1" /><path clip-path="url(#clip010)" d="M84.0938 1166.36 L88.978 1166.36 L88.978 1172.24 L84.0938 1172.24 L84.0938 1166.36 Z" fill="#000000" fill-rule="nonzero" fill-opacity="1" /><path clip-path="url(#clip010)" d="M97.9826 1137.68 L120.205 1137.68 L120.205 1139.67 L107.658 1172.24 L102.774 1172.24 L114.58 1141.62 L97.9826 1141.62 L97.9826 1137.68 Z" fill="#000000" fill-rule="nonzero" fill-opacity="1" /><path clip-path="url(#clip010)" d="M129.371 1137.68 L147.728 1137.68 L147.728 1141.62 L133.654 1141.62 L133.654 1150.09 Q134.672 1149.74 135.691 1149.58 Q136.709 1149.4 137.728 1149.4 Q143.515 1149.4 146.894 1152.57 Q150.274 1155.74 150.274 1161.15 Q150.274 1166.73 146.802 1169.84 Q143.33 1172.91 137.01 1172.91 Q134.834 1172.91 132.566 1172.54 Q130.32 1172.17 127.913 1171.43 L127.913 1166.73 Q129.996 1167.87 132.219 1168.42 Q134.441 1168.98 136.918 1168.98 Q140.922 1168.98 143.26 1166.87 Q145.598 1164.77 145.598 1161.15 Q145.598 1157.54 143.26 1155.44 Q140.922 1153.33 136.918 1153.33 Q135.043 1153.33 133.168 1153.75 Q131.316 1154.16 129.371 1155.04 L129.371 1137.68 Z" fill="#000000" fill-rule="nonzero" fill-opacity="1" /><path clip-path="url(#clip010)" d="M53.7467 889.913 L61.3856 889.913 L61.3856 863.547 L53.0754 865.214 L53.0754 860.955 L61.3393 859.288 L66.0152 859.288 L66.0152 889.913 L73.654 889.913 L73.654 893.848 L53.7467 893.848 L53.7467 889.913 Z" fill="#000000" fill-rule="nonzero" fill-opacity="1" /><path clip-path="url(#clip010)" d="M83.0984 887.968 L87.9827 887.968 L87.9827 893.848 L83.0984 893.848 L83.0984 887.968 Z" fill="#000000" fill-rule="nonzero" fill-opacity="1" /><path clip-path="url(#clip010)" d="M108.168 862.367 Q104.557 862.367 102.728 865.931 Q100.922 869.473 100.922 876.603 Q100.922 883.709 102.728 887.274 Q104.557 890.816 108.168 890.816 Q111.802 890.816 113.608 887.274 Q115.436 883.709 115.436 876.603 Q115.436 869.473 113.608 865.931 Q111.802 862.367 108.168 862.367 M108.168 858.663 Q113.978 858.663 117.033 863.269 Q120.112 867.853 120.112 876.603 Q120.112 885.329 117.033 889.936 Q113.978 894.519 108.168 894.519 Q102.358 894.519 99.2789 889.936 Q96.2234 885.329 96.2234 876.603 Q96.2234 867.853 99.2789 863.269 Q102.358 858.663 108.168 858.663 Z" fill="#000000" fill-rule="nonzero" fill-opacity="1" /><path clip-path="url(#clip010)" d="M138.33 862.367 Q134.719 862.367 132.89 865.931 Q131.084 869.473 131.084 876.603 Q131.084 883.709 132.89 887.274 Q134.719 890.816 138.33 890.816 Q141.964 890.816 143.769 887.274 Q145.598 883.709 145.598 876.603 Q145.598 869.473 143.769 865.931 Q141.964 862.367 138.33 862.367 M138.33 858.663 Q144.14 858.663 147.195 863.269 Q150.274 867.853 150.274 876.603 Q150.274 885.329 147.195 889.936 Q144.14 894.519 138.33 894.519 Q132.519 894.519 129.441 889.936 Q126.385 885.329 126.385 876.603 Q126.385 867.853 129.441 863.269 Q132.519 858.663 138.33 858.663 Z" fill="#000000" fill-rule="nonzero" fill-opacity="1" /><path clip-path="url(#clip010)" d="M54.7421 611.518 L62.381 611.518 L62.381 585.152 L54.0708 586.819 L54.0708 582.56 L62.3347 580.893 L67.0106 580.893 L67.0106 611.518 L74.6494 611.518 L74.6494 615.453 L54.7421 615.453 L54.7421 611.518 Z" fill="#000000" fill-rule="nonzero" fill-opacity="1" /><path clip-path="url(#clip010)" d="M84.0938 609.573 L88.978 609.573 L88.978 615.453 L84.0938 615.453 L84.0938 609.573 Z" fill="#000000" fill-rule="nonzero" fill-opacity="1" /><path clip-path="url(#clip010)" d="M103.191 611.518 L119.51 611.518 L119.51 615.453 L97.566 615.453 L97.566 611.518 Q100.228 608.763 104.811 604.134 Q109.418 599.481 110.598 598.138 Q112.844 595.615 113.723 593.879 Q114.626 592.12 114.626 590.43 Q114.626 587.675 112.682 585.939 Q110.76 584.203 107.658 584.203 Q105.459 584.203 103.006 584.967 Q100.575 585.731 97.7974 587.282 L97.7974 582.56 Q100.621 581.426 103.075 580.847 Q105.529 580.268 107.566 580.268 Q112.936 580.268 116.131 582.953 Q119.325 585.638 119.325 590.129 Q119.325 592.259 118.515 594.18 Q117.728 596.078 115.621 598.671 Q115.043 599.342 111.941 602.56 Q108.839 605.754 103.191 611.518 Z" fill="#000000" fill-rule="nonzero" fill-opacity="1" /><path clip-path="url(#clip010)" d="M129.371 580.893 L147.728 580.893 L147.728 584.828 L133.654 584.828 L133.654 593.3 Q134.672 592.953 135.691 592.791 Q136.709 592.606 137.728 592.606 Q143.515 592.606 146.894 595.777 Q150.274 598.949 150.274 604.365 Q150.274 609.944 146.802 613.046 Q143.33 616.124 137.01 616.124 Q134.834 616.124 132.566 615.754 Q130.32 615.384 127.913 614.643 L127.913 609.944 Q129.996 611.078 132.219 611.634 Q134.441 612.189 136.918 612.189 Q140.922 612.189 143.26 610.083 Q145.598 607.976 145.598 604.365 Q145.598 600.754 143.26 598.648 Q140.922 596.541 136.918 596.541 Q135.043 596.541 133.168 596.958 Q131.316 597.374 129.371 598.254 L129.371 580.893 Z" fill="#000000" fill-rule="nonzero" fill-opacity="1" /><path clip-path="url(#clip010)" d="M53.7467 333.123 L61.3856 333.123 L61.3856 306.757 L53.0754 308.424 L53.0754 304.165 L61.3393 302.498 L66.0152 302.498 L66.0152 333.123 L73.654 333.123 L73.654 337.058 L53.7467 337.058 L53.7467 333.123 Z" fill="#000000" fill-rule="nonzero" fill-opacity="1" /><path clip-path="url(#clip010)" d="M83.0984 331.179 L87.9827 331.179 L87.9827 337.058 L83.0984 337.058 L83.0984 331.179 Z" fill="#000000" fill-rule="nonzero" fill-opacity="1" /><path clip-path="url(#clip010)" d="M98.2141 302.498 L116.57 302.498 L116.57 306.433 L102.496 306.433 L102.496 314.906 Q103.515 314.558 104.534 314.396 Q105.552 314.211 106.571 314.211 Q112.358 314.211 115.737 317.382 Q119.117 320.554 119.117 325.97 Q119.117 331.549 115.645 334.651 Q112.172 337.73 105.853 337.73 Q103.677 337.73 101.409 337.359 Q99.1632 336.989 96.7558 336.248 L96.7558 331.549 Q98.8391 332.683 101.061 333.239 Q103.284 333.794 105.76 333.794 Q109.765 333.794 112.103 331.688 Q114.441 329.581 114.441 325.97 Q114.441 322.359 112.103 320.253 Q109.765 318.146 105.76 318.146 Q103.885 318.146 102.01 318.563 Q100.159 318.98 98.2141 319.859 L98.2141 302.498 Z" fill="#000000" fill-rule="nonzero" fill-opacity="1" /><path clip-path="url(#clip010)" d="M138.33 305.577 Q134.719 305.577 132.89 309.142 Q131.084 312.683 131.084 319.813 Q131.084 326.919 132.89 330.484 Q134.719 334.026 138.33 334.026 Q141.964 334.026 143.769 330.484 Q145.598 326.919 145.598 319.813 Q145.598 312.683 143.769 309.142 Q141.964 305.577 138.33 305.577 M138.33 301.873 Q144.14 301.873 147.195 306.48 Q150.274 311.063 150.274 319.813 Q150.274 328.54 147.195 333.146 Q144.14 337.73 138.33 337.73 Q132.519 337.73 129.441 333.146 Q126.385 328.54 126.385 319.813 Q126.385 311.063 129.441 306.48 Q132.519 301.873 138.33 301.873 Z" fill="#000000" fill-rule="nonzero" fill-opacity="1" /><polyline clip-path="url(#clip011)" style="stroke:#009af9; stroke-linecap:round; stroke-linejoin:round; stroke-width:12; stroke-opacity:1; fill:none" points="247.59,1433.36 451.975,1357.24 656.36,1308.33 860.745,1327.99 1065.13,1335.68 1269.51,1232.21 1473.9,1185.77 1678.29,1189.34 1882.67,1152.02 2087.06,1127.09 2291.44,1270.63 "/>
<polyline clip-path="url(#clip011)" style="stroke:#e26f46; stroke-linecap:round; stroke-linejoin:round; stroke-width:12; stroke-opacity:1; fill:none" points="247.59,1433.36 451.975,1391.09 656.36,1401.24 860.745,1392.63 1065.13,1277 1269.51,1317.43 1473.9,1383.13 1678.29,1290.49 1882.67,1213.3 2087.06,1087.38 2291.44,923.874 "/>
<polyline clip-path="url(#clip011)" style="stroke:#3da44d; stroke-linecap:round; stroke-linejoin:round; stroke-width:12; stroke-opacity:1; fill:none" points="247.59,1433.36 451.975,1445.72 656.36,1347.36 860.745,1254.31 1065.13,1173.69 1269.51,1118.1 1473.9,1147.77 1678.29,1170.5 1882.67,1132.23 2087.06,1036.27 2291.44,920.176 "/>
<polyline clip-path="url(#clip011)" style="stroke:#c271d2; stroke-linecap:round; stroke-linejoin:round; stroke-width:12; stroke-opacity:1; fill:none" points="247.59,1433.36 451.975,1421.18 656.36,1397.25 860.745,1336.79 1065.13,1205 1269.51,1350.74 1473.9,1063.91 1678.29,1067.01 1882.67,1094.85 2087.06,1160.45 2291.44,980.367 "/>
<polyline clip-path="url(#clip011)" style="stroke:#ac8d18; stroke-linecap:round; stroke-linejoin:round; stroke-width:12; stroke-opacity:1; fill:none" points="247.59,1433.36 451.975,1385.84 656.36,1359.14 860.745,1327.78 1065.13,1362.93 1269.51,1258.11 1473.9,1059.71 1678.29,911.591 1882.67,876.7 2087.06,942.828 2291.44,493.025 "/>
<polyline clip-path="url(#clip011)" style="stroke:#00a9ad; stroke-linecap:round; stroke-linejoin:round; stroke-width:12; stroke-opacity:1; fill:none" points="247.59,1433.36 451.975,1379.43 656.36,1376.53 860.745,1274.23 1065.13,1055.89 1269.51,969.373 1473.9,1009.37 1678.29,675.608 1882.67,377.032 2087.06,204.065 2291.44,87.9763 "/>
<polyline clip-path="url(#clip011)" style="stroke:#ed5d92; stroke-linecap:round; stroke-linejoin:round; stroke-width:12; stroke-opacity:1; fill:none" points="247.59,1433.36 451.975,1293.85 656.36,1267.77 860.745,1042.97 1065.13,755.185 1269.51,750.879 1473.9,734.004 1678.29,609.581 1882.67,364.681 2087.06,320.276 2291.44,138.21 "/>
<polyline clip-path="url(#clip011)" style="stroke:#c68125; stroke-linecap:round; stroke-linejoin:round; stroke-width:12; stroke-opacity:1; fill:none" points="247.59,1433.36 451.975,1278.44 656.36,1163.83 860.745,1184.5 1065.13,1189.08 1269.51,1186.74 1473.9,1197.37 1678.29,1224.23 1882.67,1205.33 2087.06,1073.13 2291.44,797.966 "/>
</svg>
