<?xml version="1.0" encoding="utf-8"?>
<svg xmlns="http://www.w3.org/2000/svg" xmlns:xlink="http://www.w3.org/1999/xlink" width="600" height="400" viewBox="0 0 2400 1600">
<defs>
  <clipPath id="clip600">
    <rect x="0" y="0" width="2400" height="1600"/>
  </clipPath>
</defs>
<path clip-path="url(#clip600)" d="M0 1600 L2400 1600 L2400 0 L0 0  Z" fill="#ffffff" fill-rule="evenodd" fill-opacity="1"/>
<defs>
  <clipPath id="clip601">
    <rect x="184" y="47" width="2170" height="1440"/>
  </clipPath>
</defs>
<path clip-path="url(#clip600)" d="M184.191 1486.45 L2352.76 1486.45 L2352.76 47.2441 L184.191 47.2441  Z" fill="#ffffff" fill-rule="evenodd" fill-opacity="1"/>
<polyline clip-path="url(#clip601)" style="stroke:#000000; stroke-linecap:round; stroke-linejoin:round; stroke-width:2; stroke-opacity:0.1; fill:none" points="245.565,1486.45 245.565,47.2441 "/>
<polyline clip-path="url(#clip601)" style="stroke:#000000; stroke-linecap:round; stroke-linejoin:round; stroke-width:2; stroke-opacity:0.1; fill:none" points="757.019,1486.45 757.019,47.2441 "/>
<polyline clip-path="url(#clip601)" style="stroke:#000000; stroke-linecap:round; stroke-linejoin:round; stroke-width:2; stroke-opacity:0.1; fill:none" points="1268.47,1486.45 1268.47,47.2441 "/>
<polyline clip-path="url(#clip601)" style="stroke:#000000; stroke-linecap:round; stroke-linejoin:round; stroke-width:2; stroke-opacity:0.1; fill:none" points="1779.93,1486.45 1779.93,47.2441 "/>
<polyline clip-path="url(#clip601)" style="stroke:#000000; stroke-linecap:round; stroke-linejoin:round; stroke-width:2; stroke-opacity:0.1; fill:none" points="2291.38,1486.45 2291.38,47.2441 "/>
<polyline clip-path="url(#clip601)" style="stroke:#000000; stroke-linecap:round; stroke-linejoin:round; stroke-width:2; stroke-opacity:0.1; fill:none" points="184.191,1445.88 2352.76,1445.88 "/>
<polyline clip-path="url(#clip601)" style="stroke:#000000; stroke-linecap:round; stroke-linejoin:round; stroke-width:2; stroke-opacity:0.1; fill:none" points="184.191,1204.6 2352.76,1204.6 "/>
<polyline clip-path="url(#clip601)" style="stroke:#000000; stroke-linecap:round; stroke-linejoin:round; stroke-width:2; stroke-opacity:0.1; fill:none" points="184.191,963.31 2352.76,963.31 "/>
<polyline clip-path="url(#clip601)" style="stroke:#000000; stroke-linecap:round; stroke-linejoin:round; stroke-width:2; stroke-opacity:0.1; fill:none" points="184.191,722.024 2352.76,722.024 "/>
<polyline clip-path="url(#clip601)" style="stroke:#000000; stroke-linecap:round; stroke-linejoin:round; stroke-width:2; stroke-opacity:0.1; fill:none" points="184.191,480.738 2352.76,480.738 "/>
<polyline clip-path="url(#clip601)" style="stroke:#000000; stroke-linecap:round; stroke-linejoin:round; stroke-width:2; stroke-opacity:0.1; fill:none" points="184.191,239.451 2352.76,239.451 "/>
<polyline clip-path="url(#clip600)" style="stroke:#000000; stroke-linecap:round; stroke-linejoin:round; stroke-width:4; stroke-opacity:1; fill:none" points="184.191,1486.45 2352.76,1486.45 "/>
<polyline clip-path="url(#clip600)" style="stroke:#000000; stroke-linecap:round; stroke-linejoin:round; stroke-width:4; stroke-opacity:1; fill:none" points="245.565,1486.45 245.565,1467.55 "/>
<polyline clip-path="url(#clip600)" style="stroke:#000000; stroke-linecap:round; stroke-linejoin:round; stroke-width:4; stroke-opacity:1; fill:none" points="757.019,1486.45 757.019,1467.55 "/>
<polyline clip-path="url(#clip600)" style="stroke:#000000; stroke-linecap:round; stroke-linejoin:round; stroke-width:4; stroke-opacity:1; fill:none" points="1268.47,1486.45 1268.47,1467.55 "/>
<polyline clip-path="url(#clip600)" style="stroke:#000000; stroke-linecap:round; stroke-linejoin:round; stroke-width:4; stroke-opacity:1; fill:none" points="1779.93,1486.45 1779.93,1467.55 "/>
<polyline clip-path="url(#clip600)" style="stroke:#000000; stroke-linecap:round; stroke-linejoin:round; stroke-width:4; stroke-opacity:1; fill:none" points="2291.38,1486.45 2291.38,1467.55 "/>
<path clip-path="url(#clip600)" d="M222.95 1517.37 Q219.338 1517.37 217.51 1520.93 Q215.704 1524.47 215.704 1531.6 Q215.704 1538.71 217.51 1542.27 Q219.338 1545.82 222.95 1545.82 Q226.584 1545.82 228.389 1542.27 Q230.218 1538.71 230.218 1531.6 Q230.218 1524.47 228.389 1520.93 Q226.584 1517.37 222.95 1517.37 M222.95 1513.66 Q228.76 1513.66 231.815 1518.27 Q234.894 1522.85 234.894 1531.6 Q234.894 1540.33 231.815 1544.94 Q228.76 1549.52 222.95 1549.52 Q217.139 1549.52 214.061 1544.94 Q211.005 1540.33 211.005 1531.6 Q211.005 1522.85 214.061 1518.27 Q217.139 1513.66 222.95 1513.66 Z" fill="#000000" fill-rule="nonzero" fill-opacity="1" /><path clip-path="url(#clip600)" d="M243.111 1542.97 L247.996 1542.97 L247.996 1548.85 L243.111 1548.85 L243.111 1542.97 Z" fill="#000000" fill-rule="nonzero" fill-opacity="1" /><path clip-path="url(#clip600)" d="M268.181 1517.37 Q264.57 1517.37 262.741 1520.93 Q260.935 1524.47 260.935 1531.6 Q260.935 1538.71 262.741 1542.27 Q264.57 1545.82 268.181 1545.82 Q271.815 1545.82 273.621 1542.27 Q275.449 1538.71 275.449 1531.6 Q275.449 1524.47 273.621 1520.93 Q271.815 1517.37 268.181 1517.37 M268.181 1513.66 Q273.991 1513.66 277.046 1518.27 Q280.125 1522.85 280.125 1531.6 Q280.125 1540.33 277.046 1544.94 Q273.991 1549.52 268.181 1549.52 Q262.371 1549.52 259.292 1544.94 Q256.236 1540.33 256.236 1531.6 Q256.236 1522.85 259.292 1518.27 Q262.371 1513.66 268.181 1513.66 Z" fill="#000000" fill-rule="nonzero" fill-opacity="1" /><path clip-path="url(#clip600)" d="M728.755 1544.91 L745.075 1544.91 L745.075 1548.85 L723.131 1548.85 L723.131 1544.91 Q725.793 1542.16 730.376 1537.53 Q734.982 1532.88 736.163 1531.53 Q738.408 1529.01 739.288 1527.27 Q740.191 1525.51 740.191 1523.82 Q740.191 1521.07 738.246 1519.33 Q736.325 1517.6 733.223 1517.6 Q731.024 1517.6 728.57 1518.36 Q726.14 1519.13 723.362 1520.68 L723.362 1515.95 Q726.186 1514.82 728.64 1514.24 Q731.093 1513.66 733.13 1513.66 Q738.501 1513.66 741.695 1516.35 Q744.89 1519.03 744.89 1523.52 Q744.89 1525.65 744.079 1527.57 Q743.292 1529.47 741.186 1532.07 Q740.607 1532.74 737.505 1535.95 Q734.404 1539.15 728.755 1544.91 Z" fill="#000000" fill-rule="nonzero" fill-opacity="1" /><path clip-path="url(#clip600)" d="M754.89 1542.97 L759.774 1542.97 L759.774 1548.85 L754.89 1548.85 L754.89 1542.97 Z" fill="#000000" fill-rule="nonzero" fill-opacity="1" /><path clip-path="url(#clip600)" d="M770.005 1514.29 L788.362 1514.29 L788.362 1518.22 L774.288 1518.22 L774.288 1526.7 Q775.306 1526.35 776.325 1526.19 Q777.343 1526 778.362 1526 Q784.149 1526 787.528 1529.17 Q790.908 1532.34 790.908 1537.76 Q790.908 1543.34 787.436 1546.44 Q783.964 1549.52 777.644 1549.52 Q775.468 1549.52 773.2 1549.15 Q770.954 1548.78 768.547 1548.04 L768.547 1543.34 Q770.63 1544.47 772.852 1545.03 Q775.075 1545.58 777.552 1545.58 Q781.556 1545.58 783.894 1543.48 Q786.232 1541.37 786.232 1537.76 Q786.232 1534.15 783.894 1532.04 Q781.556 1529.94 777.552 1529.94 Q775.677 1529.94 773.802 1530.35 Q771.95 1530.77 770.005 1531.65 L770.005 1514.29 Z" fill="#000000" fill-rule="nonzero" fill-opacity="1" /><path clip-path="url(#clip600)" d="M1235.64 1514.29 L1253.99 1514.29 L1253.99 1518.22 L1239.92 1518.22 L1239.92 1526.7 Q1240.94 1526.35 1241.96 1526.19 Q1242.98 1526 1243.99 1526 Q1249.78 1526 1253.16 1529.17 Q1256.54 1532.34 1256.54 1537.76 Q1256.54 1543.34 1253.07 1546.44 Q1249.6 1549.52 1243.28 1549.52 Q1241.1 1549.52 1238.83 1549.15 Q1236.59 1548.78 1234.18 1548.04 L1234.18 1543.34 Q1236.26 1544.47 1238.49 1545.03 Q1240.71 1545.58 1243.18 1545.58 Q1247.19 1545.58 1249.53 1543.48 Q1251.86 1541.37 1251.86 1537.76 Q1251.86 1534.15 1249.53 1532.04 Q1247.19 1529.94 1243.18 1529.94 Q1241.31 1529.94 1239.43 1530.35 Q1237.58 1530.77 1235.64 1531.65 L1235.64 1514.29 Z" fill="#000000" fill-rule="nonzero" fill-opacity="1" /><path clip-path="url(#clip600)" d="M1265.75 1542.97 L1270.64 1542.97 L1270.64 1548.85 L1265.75 1548.85 L1265.75 1542.97 Z" fill="#000000" fill-rule="nonzero" fill-opacity="1" /><path clip-path="url(#clip600)" d="M1290.82 1517.37 Q1287.21 1517.37 1285.38 1520.93 Q1283.58 1524.47 1283.58 1531.6 Q1283.58 1538.71 1285.38 1542.27 Q1287.21 1545.82 1290.82 1545.82 Q1294.46 1545.82 1296.26 1542.27 Q1298.09 1538.71 1298.09 1531.6 Q1298.09 1524.47 1296.26 1520.93 Q1294.46 1517.37 1290.82 1517.37 M1290.82 1513.66 Q1296.63 1513.66 1299.69 1518.27 Q1302.77 1522.85 1302.77 1531.6 Q1302.77 1540.33 1299.69 1544.94 Q1296.63 1549.52 1290.82 1549.52 Q1285.01 1549.52 1281.93 1544.94 Q1278.88 1540.33 1278.88 1531.6 Q1278.88 1522.85 1281.93 1518.27 Q1285.01 1513.66 1290.82 1513.66 Z" fill="#000000" fill-rule="nonzero" fill-opacity="1" /><path clip-path="url(#clip600)" d="M1746.25 1514.29 L1768.47 1514.29 L1768.47 1516.28 L1755.92 1548.85 L1751.04 1548.85 L1762.84 1518.22 L1746.25 1518.22 L1746.25 1514.29 Z" fill="#000000" fill-rule="nonzero" fill-opacity="1" /><path clip-path="url(#clip600)" d="M1777.59 1542.97 L1782.47 1542.97 L1782.47 1548.85 L1777.59 1548.85 L1777.59 1542.97 Z" fill="#000000" fill-rule="nonzero" fill-opacity="1" /><path clip-path="url(#clip600)" d="M1792.71 1514.29 L1811.06 1514.29 L1811.06 1518.22 L1796.99 1518.22 L1796.99 1526.7 Q1798.01 1526.35 1799.02 1526.19 Q1800.04 1526 1801.06 1526 Q1806.85 1526 1810.23 1529.17 Q1813.61 1532.34 1813.61 1537.76 Q1813.61 1543.34 1810.14 1546.44 Q1806.66 1549.52 1800.34 1549.52 Q1798.17 1549.52 1795.9 1549.15 Q1793.65 1548.78 1791.25 1548.04 L1791.25 1543.34 Q1793.33 1544.47 1795.55 1545.03 Q1797.77 1545.58 1800.25 1545.58 Q1804.26 1545.58 1806.59 1543.48 Q1808.93 1541.37 1808.93 1537.76 Q1808.93 1534.15 1806.59 1532.04 Q1804.26 1529.94 1800.25 1529.94 Q1798.38 1529.94 1796.5 1530.35 Q1794.65 1530.77 1792.71 1531.65 L1792.71 1514.29 Z" fill="#000000" fill-rule="nonzero" fill-opacity="1" /><path clip-path="url(#clip600)" d="M2243.45 1544.91 L2251.09 1544.91 L2251.09 1518.55 L2242.78 1520.21 L2242.78 1515.95 L2251.05 1514.29 L2255.72 1514.29 L2255.72 1544.91 L2263.36 1544.91 L2263.36 1548.85 L2243.45 1548.85 L2243.45 1544.91 Z" fill="#000000" fill-rule="nonzero" fill-opacity="1" /><path clip-path="url(#clip600)" d="M2282.81 1517.37 Q2279.19 1517.37 2277.37 1520.93 Q2275.56 1524.47 2275.56 1531.6 Q2275.56 1538.71 2277.37 1542.27 Q2279.19 1545.82 2282.81 1545.82 Q2286.44 1545.82 2288.24 1542.27 Q2290.07 1538.71 2290.07 1531.6 Q2290.07 1524.47 2288.24 1520.93 Q2286.44 1517.37 2282.81 1517.37 M2282.81 1513.66 Q2288.62 1513.66 2291.67 1518.27 Q2294.75 1522.85 2294.75 1531.6 Q2294.75 1540.33 2291.67 1544.94 Q2288.62 1549.52 2282.81 1549.52 Q2276.99 1549.52 2273.92 1544.94 Q2270.86 1540.33 2270.86 1531.6 Q2270.86 1522.85 2273.92 1518.27 Q2276.99 1513.66 2282.81 1513.66 Z" fill="#000000" fill-rule="nonzero" fill-opacity="1" /><path clip-path="url(#clip600)" d="M2302.97 1542.97 L2307.85 1542.97 L2307.85 1548.85 L2302.97 1548.85 L2302.97 1542.97 Z" fill="#000000" fill-rule="nonzero" fill-opacity="1" /><path clip-path="url(#clip600)" d="M2328.04 1517.37 Q2324.43 1517.37 2322.6 1520.93 Q2320.79 1524.47 2320.79 1531.6 Q2320.79 1538.71 2322.6 1542.27 Q2324.43 1545.82 2328.04 1545.82 Q2331.67 1545.82 2333.48 1542.27 Q2335.3 1538.71 2335.3 1531.6 Q2335.3 1524.47 2333.48 1520.93 Q2331.67 1517.37 2328.04 1517.37 M2328.04 1513.66 Q2333.85 1513.66 2336.9 1518.27 Q2339.98 1522.85 2339.98 1531.6 Q2339.98 1540.33 2336.9 1544.94 Q2333.85 1549.52 2328.04 1549.52 Q2322.23 1549.52 2319.15 1544.94 Q2316.09 1540.33 2316.09 1531.6 Q2316.09 1522.85 2319.15 1518.27 Q2322.23 1513.66 2328.04 1513.66 Z" fill="#000000" fill-rule="nonzero" fill-opacity="1" /><polyline clip-path="url(#clip600)" style="stroke:#000000; stroke-linecap:round; stroke-linejoin:round; stroke-width:4; stroke-opacity:1; fill:none" points="184.191,1486.45 184.191,47.2441 "/>
<polyline clip-path="url(#clip600)" style="stroke:#000000; stroke-linecap:round; stroke-linejoin:round; stroke-width:4; stroke-opacity:1; fill:none" points="184.191,1445.88 203.088,1445.88 "/>
<polyline clip-path="url(#clip600)" style="stroke:#000000; stroke-linecap:round; stroke-linejoin:round; stroke-width:4; stroke-opacity:1; fill:none" points="184.191,1204.6 203.088,1204.6 "/>
<polyline clip-path="url(#clip600)" style="stroke:#000000; stroke-linecap:round; stroke-linejoin:round; stroke-width:4; stroke-opacity:1; fill:none" points="184.191,963.31 203.088,963.31 "/>
<polyline clip-path="url(#clip600)" style="stroke:#000000; stroke-linecap:round; stroke-linejoin:round; stroke-width:4; stroke-opacity:1; fill:none" points="184.191,722.024 203.088,722.024 "/>
<polyline clip-path="url(#clip600)" style="stroke:#000000; stroke-linecap:round; stroke-linejoin:round; stroke-width:4; stroke-opacity:1; fill:none" points="184.191,480.738 203.088,480.738 "/>
<polyline clip-path="url(#clip600)" style="stroke:#000000; stroke-linecap:round; stroke-linejoin:round; stroke-width:4; stroke-opacity:1; fill:none" points="184.191,239.451 203.088,239.451 "/>
<path clip-path="url(#clip600)" d="M91.0151 1431.68 Q87.404 1431.68 85.5753 1435.25 Q83.7697 1438.79 83.7697 1445.92 Q83.7697 1453.02 85.5753 1456.59 Q87.404 1460.13 91.0151 1460.13 Q94.6493 1460.13 96.4548 1456.59 Q98.2835 1453.02 98.2835 1445.92 Q98.2835 1438.79 96.4548 1435.25 Q94.6493 1431.68 91.0151 1431.68 M91.0151 1427.98 Q96.8252 1427.98 99.8808 1432.58 Q102.959 1437.17 102.959 1445.92 Q102.959 1454.64 99.8808 1459.25 Q96.8252 1463.83 91.0151 1463.83 Q85.2049 1463.83 82.1262 1459.25 Q79.0707 1454.64 79.0707 1445.92 Q79.0707 1437.17 82.1262 1432.58 Q85.2049 1427.98 91.0151 1427.98 Z" fill="#000000" fill-rule="nonzero" fill-opacity="1" /><path clip-path="url(#clip600)" d="M111.177 1457.28 L116.061 1457.28 L116.061 1463.16 L111.177 1463.16 L111.177 1457.28 Z" fill="#000000" fill-rule="nonzero" fill-opacity="1" /><path clip-path="url(#clip600)" d="M136.246 1431.68 Q132.635 1431.68 130.807 1435.25 Q129.001 1438.79 129.001 1445.92 Q129.001 1453.02 130.807 1456.59 Q132.635 1460.13 136.246 1460.13 Q139.881 1460.13 141.686 1456.59 Q143.515 1453.02 143.515 1445.92 Q143.515 1438.79 141.686 1435.25 Q139.881 1431.68 136.246 1431.68 M136.246 1427.98 Q142.056 1427.98 145.112 1432.58 Q148.191 1437.17 148.191 1445.92 Q148.191 1454.64 145.112 1459.25 Q142.056 1463.83 136.246 1463.83 Q130.436 1463.83 127.357 1459.25 Q124.302 1454.64 124.302 1445.92 Q124.302 1437.17 127.357 1432.58 Q130.436 1427.98 136.246 1427.98 Z" fill="#000000" fill-rule="nonzero" fill-opacity="1" /><path clip-path="url(#clip600)" d="M86.0382 1217.94 L102.358 1217.94 L102.358 1221.88 L80.4133 1221.88 L80.4133 1217.94 Q83.0753 1215.19 87.6586 1210.56 Q92.2651 1205.9 93.4456 1204.56 Q95.691 1202.04 96.5706 1200.3 Q97.4734 1198.54 97.4734 1196.85 Q97.4734 1194.1 95.5289 1192.36 Q93.6076 1190.63 90.5058 1190.63 Q88.3067 1190.63 85.8531 1191.39 Q83.4225 1192.15 80.6447 1193.71 L80.6447 1188.98 Q83.4688 1187.85 85.9225 1187.27 Q88.3762 1186.69 90.4132 1186.69 Q95.7836 1186.69 98.978 1189.38 Q102.172 1192.06 102.172 1196.55 Q102.172 1198.68 101.362 1200.6 Q100.575 1202.5 98.4687 1205.09 Q97.89 1205.77 94.7882 1208.98 Q91.6864 1212.18 86.0382 1217.94 Z" fill="#000000" fill-rule="nonzero" fill-opacity="1" /><path clip-path="url(#clip600)" d="M112.172 1216 L117.057 1216 L117.057 1221.88 L112.172 1221.88 L112.172 1216 Z" fill="#000000" fill-rule="nonzero" fill-opacity="1" /><path clip-path="url(#clip600)" d="M127.288 1187.32 L145.644 1187.32 L145.644 1191.25 L131.57 1191.25 L131.57 1199.72 Q132.589 1199.38 133.607 1199.21 Q134.626 1199.03 135.644 1199.03 Q141.431 1199.03 144.811 1202.2 Q148.191 1205.37 148.191 1210.79 Q148.191 1216.37 144.718 1219.47 Q141.246 1222.55 134.927 1222.55 Q132.751 1222.55 130.482 1222.18 Q128.237 1221.81 125.83 1221.07 L125.83 1216.37 Q127.913 1217.5 130.135 1218.06 Q132.357 1218.61 134.834 1218.61 Q138.839 1218.61 141.177 1216.51 Q143.515 1214.4 143.515 1210.79 Q143.515 1207.18 141.177 1205.07 Q138.839 1202.96 134.834 1202.96 Q132.959 1202.96 131.084 1203.38 Q129.232 1203.8 127.288 1204.68 L127.288 1187.32 Z" fill="#000000" fill-rule="nonzero" fill-opacity="1" /><path clip-path="url(#clip600)" d="M81.0614 946.03 L99.4178 946.03 L99.4178 949.965 L85.3438 949.965 L85.3438 958.438 Q86.3623 958.09 87.3808 957.928 Q88.3993 957.743 89.4178 957.743 Q95.2049 957.743 98.5845 960.914 Q101.964 964.086 101.964 969.502 Q101.964 975.081 98.4919 978.183 Q95.0197 981.262 88.7003 981.262 Q86.5243 981.262 84.2558 980.891 Q82.0105 980.521 79.6031 979.78 L79.6031 975.081 Q81.6864 976.215 83.9086 976.771 Q86.1308 977.326 88.6077 977.326 Q92.6123 977.326 94.9502 975.22 Q97.2882 973.113 97.2882 969.502 Q97.2882 965.891 94.9502 963.785 Q92.6123 961.678 88.6077 961.678 Q86.7327 961.678 84.8577 962.095 Q83.0058 962.512 81.0614 963.391 L81.0614 946.03 Z" fill="#000000" fill-rule="nonzero" fill-opacity="1" /><path clip-path="url(#clip600)" d="M111.177 974.711 L116.061 974.711 L116.061 980.59 L111.177 980.59 L111.177 974.711 Z" fill="#000000" fill-rule="nonzero" fill-opacity="1" /><path clip-path="url(#clip600)" d="M136.246 949.109 Q132.635 949.109 130.807 952.674 Q129.001 956.215 129.001 963.345 Q129.001 970.451 130.807 974.016 Q132.635 977.558 136.246 977.558 Q139.881 977.558 141.686 974.016 Q143.515 970.451 143.515 963.345 Q143.515 956.215 141.686 952.674 Q139.881 949.109 136.246 949.109 M136.246 945.405 Q142.056 945.405 145.112 950.012 Q148.191 954.595 148.191 963.345 Q148.191 972.072 145.112 976.678 Q142.056 981.262 136.246 981.262 Q130.436 981.262 127.357 976.678 Q124.302 972.072 124.302 963.345 Q124.302 954.595 127.357 950.012 Q130.436 945.405 136.246 945.405 Z" fill="#000000" fill-rule="nonzero" fill-opacity="1" /><path clip-path="url(#clip600)" d="M80.8299 704.744 L103.052 704.744 L103.052 706.735 L90.5058 739.304 L85.6216 739.304 L97.4271 708.679 L80.8299 708.679 L80.8299 704.744 Z" fill="#000000" fill-rule="nonzero" fill-opacity="1" /><path clip-path="url(#clip600)" d="M112.172 733.424 L117.057 733.424 L117.057 739.304 L112.172 739.304 L112.172 733.424 Z" fill="#000000" fill-rule="nonzero" fill-opacity="1" /><path clip-path="url(#clip600)" d="M127.288 704.744 L145.644 704.744 L145.644 708.679 L131.57 708.679 L131.57 717.151 Q132.589 716.804 133.607 716.642 Q134.626 716.457 135.644 716.457 Q141.431 716.457 144.811 719.628 Q148.191 722.799 148.191 728.216 Q148.191 733.795 144.718 736.897 Q141.246 739.975 134.927 739.975 Q132.751 739.975 130.482 739.605 Q128.237 739.234 125.83 738.494 L125.83 733.795 Q127.913 734.929 130.135 735.484 Q132.357 736.04 134.834 736.04 Q138.839 736.04 141.177 733.934 Q143.515 731.827 143.515 728.216 Q143.515 724.605 141.177 722.498 Q138.839 720.392 134.834 720.392 Q132.959 720.392 131.084 720.809 Q129.232 721.225 127.288 722.105 L127.288 704.744 Z" fill="#000000" fill-rule="nonzero" fill-opacity="1" /><path clip-path="url(#clip600)" d="M51.6634 494.082 L59.3023 494.082 L59.3023 467.717 L50.9921 469.383 L50.9921 465.124 L59.256 463.458 L63.9319 463.458 L63.9319 494.082 L71.5707 494.082 L71.5707 498.018 L51.6634 498.018 L51.6634 494.082 Z" fill="#000000" fill-rule="nonzero" fill-opacity="1" /><path clip-path="url(#clip600)" d="M91.0151 466.536 Q87.404 466.536 85.5753 470.101 Q83.7697 473.643 83.7697 480.772 Q83.7697 487.879 85.5753 491.444 Q87.404 494.985 91.0151 494.985 Q94.6493 494.985 96.4548 491.444 Q98.2835 487.879 98.2835 480.772 Q98.2835 473.643 96.4548 470.101 Q94.6493 466.536 91.0151 466.536 M91.0151 462.833 Q96.8252 462.833 99.8808 467.439 Q102.959 472.022 102.959 480.772 Q102.959 489.499 99.8808 494.106 Q96.8252 498.689 91.0151 498.689 Q85.2049 498.689 82.1262 494.106 Q79.0707 489.499 79.0707 480.772 Q79.0707 472.022 82.1262 467.439 Q85.2049 462.833 91.0151 462.833 Z" fill="#000000" fill-rule="nonzero" fill-opacity="1" /><path clip-path="url(#clip600)" d="M111.177 492.138 L116.061 492.138 L116.061 498.018 L111.177 498.018 L111.177 492.138 Z" fill="#000000" fill-rule="nonzero" fill-opacity="1" /><path clip-path="url(#clip600)" d="M136.246 466.536 Q132.635 466.536 130.807 470.101 Q129.001 473.643 129.001 480.772 Q129.001 487.879 130.807 491.444 Q132.635 494.985 136.246 494.985 Q139.881 494.985 141.686 491.444 Q143.515 487.879 143.515 480.772 Q143.515 473.643 141.686 470.101 Q139.881 466.536 136.246 466.536 M136.246 462.833 Q142.056 462.833 145.112 467.439 Q148.191 472.022 148.191 480.772 Q148.191 489.499 145.112 494.106 Q142.056 498.689 136.246 498.689 Q130.436 498.689 127.357 494.106 Q124.302 489.499 124.302 480.772 Q124.302 472.022 127.357 467.439 Q130.436 462.833 136.246 462.833 Z" fill="#000000" fill-rule="nonzero" fill-opacity="1" /><path clip-path="url(#clip600)" d="M52.6588 252.796 L60.2976 252.796 L60.2976 226.43 L51.9875 228.097 L51.9875 223.838 L60.2513 222.171 L64.9272 222.171 L64.9272 252.796 L72.5661 252.796 L72.5661 256.731 L52.6588 256.731 L52.6588 252.796 Z" fill="#000000" fill-rule="nonzero" fill-opacity="1" /><path clip-path="url(#clip600)" d="M86.0382 252.796 L102.358 252.796 L102.358 256.731 L80.4133 256.731 L80.4133 252.796 Q83.0753 250.041 87.6586 245.412 Q92.2651 240.759 93.4456 239.417 Q95.691 236.893 96.5706 235.157 Q97.4734 233.398 97.4734 231.708 Q97.4734 228.954 95.5289 227.218 Q93.6076 225.481 90.5058 225.481 Q88.3067 225.481 85.8531 226.245 Q83.4225 227.009 80.6447 228.56 L80.6447 223.838 Q83.4688 222.704 85.9225 222.125 Q88.3762 221.546 90.4132 221.546 Q95.7836 221.546 98.978 224.231 Q102.172 226.917 102.172 231.407 Q102.172 233.537 101.362 235.458 Q100.575 237.356 98.4687 239.949 Q97.89 240.62 94.7882 243.838 Q91.6864 247.032 86.0382 252.796 Z" fill="#000000" fill-rule="nonzero" fill-opacity="1" /><path clip-path="url(#clip600)" d="M112.172 250.852 L117.057 250.852 L117.057 256.731 L112.172 256.731 L112.172 250.852 Z" fill="#000000" fill-rule="nonzero" fill-opacity="1" /><path clip-path="url(#clip600)" d="M127.288 222.171 L145.644 222.171 L145.644 226.106 L131.57 226.106 L131.57 234.579 Q132.589 234.231 133.607 234.069 Q134.626 233.884 135.644 233.884 Q141.431 233.884 144.811 237.055 Q148.191 240.227 148.191 245.643 Q148.191 251.222 144.718 254.324 Q141.246 257.403 134.927 257.403 Q132.751 257.403 130.482 257.032 Q128.237 256.662 125.83 255.921 L125.83 251.222 Q127.913 252.356 130.135 252.912 Q132.357 253.467 134.834 253.467 Q138.839 253.467 141.177 251.361 Q143.515 249.254 143.515 245.643 Q143.515 242.032 141.177 239.926 Q138.839 237.819 134.834 237.819 Q132.959 237.819 131.084 238.236 Q129.232 238.653 127.288 239.532 L127.288 222.171 Z" fill="#000000" fill-rule="nonzero" fill-opacity="1" /><path clip-path="url(#clip601)" d="M245.565 1349.37 L266.023 1359.83 L286.481 1354.81 L306.94 1355.27 L327.398 1342.48 L347.856 1336.15 L368.314 1327.56 L388.772 1326.14 L409.23 1300.1 L429.689 1276.79 L450.147 1274.17 L470.605 1261.84 L491.063 1244.86 L511.521 1211.14 L531.979 1189.61 L552.438 1172.65 L572.896 1118.95 L593.354 1089.11 L613.812 1047.59 L634.27 998.291 L654.728 976.155 L675.187 977.485 L695.645 1034.94 L716.103 1185.69 L736.561 1295.17 L757.019 1336.17 L777.477 1367.21 L797.936 1386.36 L818.394 1395.96 L838.852 1400.47 L859.31 1401.66 L879.768 1415.79 L900.226 1417.93 L920.685 1419.83 L941.143 1421.62 L961.601 1420.73 L982.059 1421.24 L1002.52 1419.49 L1022.98 1417.36 L1043.43 1413.75 L1063.89 1408.91 L1084.35 1408.79 L1104.81 1405.57 L1125.27 1399.24 L1145.72 1394.56 L1166.18 1384.73 L1186.64 1377.11 L1207.1 1360.61 L1227.56 1346.06 L1248.02 1330.73 L1268.47 1317.95 L1288.93 1302.62 L1309.39 1269.78 L1329.85 1245.93 L1350.31 1229.43 L1370.76 1225.52 L1391.22 1247 L1411.68 1279.66 L1432.14 1309.53 L1452.6 1326.51 L1473.05 1341.47 L1493.51 1346.17 L1513.97 1349.82 L1534.43 1360.96 L1554.89 1369.94 L1575.35 1372.59 L1595.8 1371.42 L1616.26 1369.34 L1636.72 1388.88 L1657.18 1398.99 L1677.64 1400.69 L1698.09 1416.21 L1718.55 1426.16 L1739.01 1431.78 L1759.47 1435.34 L1779.93 1436.03 L1800.39 1436.35 L1820.84 1436.37 L1841.3 1436 L1861.76 1435.48 L1882.22 1435.27 L1902.68 1434.57 L1923.13 1434.42 L1943.59 1433.87 L1964.05 1433.57 L1984.51 1431.95 L2004.97 1428.45 L2025.43 1426.83 L2045.88 1423.9 L2066.34 1420.39 L2086.8 1416.11 L2107.26 1412.74 L2127.72 1403.5 L2148.17 1394.52 L2168.63 1389.89 L2189.09 1389.96 L2209.55 1388.45 L2230.01 1384.11 L2250.47 1378.12 L2270.92 1377.2 L2291.38 1379.12 L2291.38 1213.86 L2270.92 1258.59 L2250.47 1271.08 L2230.01 1283.23 L2209.55 1298.18 L2189.09 1271.57 L2168.63 1226.33 L2148.17 1135.27 L2127.72 1001.62 L2107.26 850.611 L2086.8 733.084 L2066.34 709.793 L2045.88 705.172 L2025.43 735.972 L2004.97 761.142 L1984.51 758.04 L1964.05 811.566 L1943.59 760.374 L1923.13 770.962 L1902.68 824.755 L1882.22 887.027 L1861.76 908.038 L1841.3 970.698 L1820.84 1020.84 L1800.39 1065.31 L1779.93 1089.29 L1759.47 1127.45 L1739.01 1153.02 L1718.55 1183.28 L1698.09 1230.29 L1677.64 1254.49 L1657.18 1178.41 L1636.72 830.262 L1616.26 339.153 L1595.8 87.9763 L1575.35 222.741 L1554.89 360.405 L1534.43 420.335 L1513.97 405.155 L1493.51 579.599 L1473.05 668.102 L1452.6 703.385 L1432.14 865.943 L1411.68 812.541 L1391.22 759.72 L1370.76 683.678 L1350.31 686.808 L1329.85 709.073 L1309.39 771.822 L1288.93 796.664 L1268.47 767.237 L1248.02 793.936 L1227.56 842.907 L1207.1 921.972 L1186.64 982.646 L1166.18 1034.67 L1145.72 1096.47 L1125.27 1121.12 L1104.81 1168.88 L1084.35 1190.57 L1063.89 1204.12 L1043.43 1211.37 L1022.98 1236.03 L1002.52 1265.97 L982.059 1270.88 L961.601 1280.63 L941.143 1281 L920.685 1278.41 L900.226 1271.29 L879.768 1273.14 L859.31 1268.62 L838.852 1197.61 L818.394 1047.37 L797.936 767.565 L777.477 458.125 L757.019 449.066 L736.561 594.813 L716.103 674.412 L695.645 730.87 L675.187 577.462 L654.728 553.301 L634.27 555.199 L613.812 570.663 L593.354 755.361 L572.896 885.134 L552.438 948.082 L531.979 999.428 L511.521 1028.39 L491.063 1059.87 L470.605 1062.3 L450.147 1112.53 L429.689 1146.06 L409.23 1186.54 L388.772 1216.11 L368.314 1233.64 L347.856 1259.6 L327.398 1294.33 L306.94 1315.26 L286.481 1330.45 L266.023 1339.91 L245.565 1349.37  Z" fill="#009af9" fill-rule="evenodd" fill-opacity="0.5"/>
<polyline clip-path="url(#clip601)" style="stroke:#009af9; stroke-linecap:round; stroke-linejoin:round; stroke-width:12; stroke-opacity:1; fill:none" points="245.565,1349.37 266.023,1344.7 286.481,1336.37 306.94,1327.31 327.398,1312.59 347.856,1297.97 368.314,1281.84 388.772,1260.98 409.23,1238.29 429.689,1207.89 450.147,1174.94 470.605,1134.61 491.063,1100.76 511.521,1094.94 531.979,1056.87 552.438,1006.05 572.896,956.667 593.354,925.839 613.812,876.939 634.27,822.276 654.728,805.216 675.187,875.22 695.645,910.55 716.103,1058.17 736.561,1096.01 757.019,1158.12 777.477,1210.61 797.936,1281.15 818.394,1314.14 838.852,1328.64 859.31,1346.33 879.768,1352.41 900.226,1363.52 920.685,1365.95 941.143,1362.12 961.601,1357.86 982.059,1350.75 1002.52,1341.59 1022.98,1327.9 1043.43,1310.75 1063.89,1297.08 1084.35,1277.61 1104.81,1261.17 1125.27,1238.62 1145.72,1212.32 1166.18,1172.53 1186.64,1153.04 1207.1,1134.37 1227.56,1095.45 1248.02,1099.85 1268.47,1050.47 1288.93,1013.27 1309.39,1015.39 1329.85,1075.81 1350.31,1078.87 1370.76,1079.23 1391.22,1061.37 1411.68,1034.11 1432.14,1068.91 1452.6,1142.93 1473.05,1210.96 1493.51,1245.16 1513.97,1274.88 1534.43,1296.37 1554.89,1309.34 1575.35,1313.15 1595.8,1303 1616.26,1313.58 1636.72,1312.89 1657.18,1304.33 1677.64,1332.43 1698.09,1338.71 1718.55,1331.57 1739.01,1319.71 1759.47,1308.92 1779.93,1286.57 1800.39,1267.57 1820.84,1241.01 1841.3,1210.1 1861.76,1177.07 1882.22,1138.56 1902.68,1096.31 1923.13,1050.31 1943.59,1044.46 1964.05,968.462 1984.51,956.166 2004.97,1044.42 2025.43,1156.93 2045.88,1232.9 2066.34,1256.23 2086.8,1282.03 2107.26,1310.09 2127.72,1326.15 2148.17,1341.54 2168.63,1343.09 2189.09,1341.33 2209.55,1336.89 2230.01,1336.18 2250.47,1339.34 2270.92,1335.75 2291.38,1323.66 "/>
<path clip-path="url(#clip601)" d="M245.565 1349.37 L266.023 1371.87 L286.481 1388.84 L306.94 1398.42 L327.398 1404.24 L347.856 1411.56 L368.314 1417.41 L388.772 1423.11 L409.23 1426.2 L429.689 1428.89 L450.147 1430.25 L470.605 1432.05 L491.063 1433.09 L511.521 1434.07 L531.979 1435.19 L552.438 1434.87 L572.896 1434.5 L593.354 1432.72 L613.812 1431.23 L634.27 1429.73 L654.728 1426.42 L675.187 1422.38 L695.645 1414.8 L716.103 1399.86 L736.561 1366.9 L757.019 1292.27 L777.477 1188.27 L797.936 1199.72 L818.394 1238.4 L838.852 1258.13 L859.31 1287.26 L879.768 1315.69 L900.226 1335.7 L920.685 1361.72 L941.143 1377.11 L961.601 1393.34 L982.059 1406.1 L1002.52 1414.93 L1022.98 1419.25 L1043.43 1423.01 L1063.89 1427.88 L1084.35 1431.49 L1104.81 1433.95 L1125.27 1435.17 L1145.72 1436.53 L1166.18 1438.33 L1186.64 1439.62 L1207.1 1440.91 L1227.56 1441.91 L1248.02 1442.55 L1268.47 1443.03 L1288.93 1443.42 L1309.39 1443.83 L1329.85 1444.06 L1350.31 1444.15 L1370.76 1444.33 L1391.22 1444.37 L1411.68 1444.27 L1432.14 1443.96 L1452.6 1443.63 L1473.05 1442.78 L1493.51 1441.65 L1513.97 1439.39 L1534.43 1434.23 L1554.89 1420.62 L1575.35 1383.91 L1595.8 1372.27 L1616.26 1378.66 L1636.72 1388.76 L1657.18 1395.25 L1677.64 1399.59 L1698.09 1406.02 L1718.55 1412.7 L1739.01 1417.67 L1759.47 1420.84 L1779.93 1422.41 L1800.39 1424.94 L1820.84 1427.67 L1841.3 1429.2 L1861.76 1429.64 L1882.22 1429.62 L1902.68 1430.87 L1923.13 1432.91 L1943.59 1434.49 L1964.05 1434.61 L1984.51 1436.3 L2004.97 1438.52 L2025.43 1440.3 L2045.88 1441.64 L2066.34 1442.81 L2086.8 1443.84 L2107.26 1444.36 L2127.72 1444.78 L2148.17 1445.01 L2168.63 1445.2 L2189.09 1445.34 L2209.55 1445.47 L2230.01 1445.55 L2250.47 1445.61 L2270.92 1445.67 L2291.38 1445.72 L2291.38 1295.35 L2270.92 1251.28 L2250.47 1204.49 L2230.01 1141.06 L2209.55 1077.66 L2189.09 1027.79 L2168.63 993.41 L2148.17 963.212 L2127.72 955.459 L2107.26 995.835 L2086.8 970.805 L2066.34 958.612 L2045.88 977.122 L2025.43 997.015 L2004.97 1021.77 L1984.51 1060.95 L1964.05 1076.75 L1943.59 1185.29 L1923.13 1245.52 L1902.68 1290.31 L1882.22 1316.33 L1861.76 1331.93 L1841.3 1338.61 L1820.84 1319.78 L1800.39 1273.44 L1779.93 1213.38 L1759.47 1136.55 L1739.01 1027.51 L1718.55 894.976 L1698.09 700.752 L1677.64 527.886 L1657.18 433.925 L1636.72 558.724 L1616.26 692.157 L1595.8 731.305 L1575.35 843.795 L1554.89 970.342 L1534.43 1085.86 L1513.97 1072.15 L1493.51 1025.11 L1473.05 956.719 L1452.6 925.697 L1432.14 927.146 L1411.68 1010.23 L1391.22 1059.58 L1370.76 1022.66 L1350.31 1040.31 L1329.85 1067.49 L1309.39 1127.07 L1288.93 1208.2 L1268.47 1286.17 L1248.02 1324.34 L1227.56 1345.63 L1207.1 1350.88 L1186.64 1362.75 L1166.18 1369.47 L1145.72 1369.61 L1125.27 1367.47 L1104.81 1370.74 L1084.35 1372.01 L1063.89 1368.57 L1043.43 1363.52 L1022.98 1354.97 L1002.52 1336.59 L982.059 1302.48 L961.601 1259.55 L941.143 1191.19 L920.685 1114.18 L900.226 1010.04 L879.768 915.139 L859.31 788.279 L838.852 697.578 L818.394 684.43 L797.936 766.738 L777.477 877.507 L757.019 818.226 L736.561 757.039 L716.103 698.695 L695.645 760.62 L675.187 1006.11 L654.728 1209.78 L634.27 1287.84 L613.812 1331.9 L593.354 1357.66 L572.896 1375.71 L552.438 1388.6 L531.979 1394.66 L511.521 1400.97 L491.063 1402.99 L470.605 1406.75 L450.147 1410.16 L429.689 1411.63 L409.23 1409.93 L388.772 1405.65 L368.314 1401.04 L347.856 1395.19 L327.398 1387.59 L306.94 1382.37 L286.481 1373.33 L266.023 1362.63 L245.565 1349.37  Z" fill="#e26f46" fill-rule="evenodd" fill-opacity="0.5"/>
<polyline clip-path="url(#clip601)" style="stroke:#e26f46; stroke-linecap:round; stroke-linejoin:round; stroke-width:12; stroke-opacity:1; fill:none" points="245.565,1349.37 266.023,1366.62 286.481,1381.56 306.94,1394.12 327.398,1400.66 347.856,1406.58 368.314,1412.14 388.772,1414.53 409.23,1417.18 429.689,1420.63 450.147,1421.12 470.605,1421.39 491.063,1420.5 511.521,1418.2 531.979,1413.74 552.438,1406.39 572.896,1398.01 593.354,1384.6 613.812,1363.57 634.27,1332.82 654.728,1261.11 675.187,1210.72 695.645,1135.24 716.103,1085.13 736.561,1074.06 757.019,1056.29 777.477,1077.71 797.936,1094.77 818.394,1139.88 838.852,1209.15 859.31,1232.87 879.768,1256 900.226,1289.06 920.685,1313.88 941.143,1348.33 961.601,1366.89 982.059,1377.08 1002.52,1387.53 1022.98,1395.29 1043.43,1401.28 1063.89,1409.19 1084.35,1414.69 1104.81,1417.75 1125.27,1419.85 1145.72,1421.44 1166.18,1422.63 1186.64,1424.41 1207.1,1425.37 1227.56,1424.51 1248.02,1420.46 1268.47,1414.36 1288.93,1406.17 1309.39,1389.87 1329.85,1358.38 1350.31,1312.02 1370.76,1267.95 1391.22,1207.23 1411.68,1188.06 1432.14,1198.11 1452.6,1233.98 1473.05,1202.79 1493.51,1245.11 1513.97,1276.15 1534.43,1250.61 1554.89,1292.65 1575.35,1321.51 1595.8,1289.77 1616.26,1315.15 1636.72,1344.03 1657.18,1360.8 1677.64,1374.09 1698.09,1385.14 1718.55,1392.34 1739.01,1392.86 1759.47,1393.32 1779.93,1392.5 1800.39,1399.28 1820.84,1401.31 1841.3,1403.26 1861.76,1402.23 1882.22,1397.05 1902.68,1404.69 1923.13,1408.74 1943.59,1407.14 1964.05,1400.36 1984.51,1386.27 2004.97,1362.82 2025.43,1320.75 2045.88,1257.6 2066.34,1231.5 2086.8,1221.7 2107.26,1183.55 2127.72,1227.72 2148.17,1272.72 2168.63,1304.45 2189.09,1322.91 2209.55,1342.88 2230.01,1355.74 2250.47,1375.08 2270.92,1385.29 2291.38,1393.31 "/>
</svg>
