<?xml version="1.0" encoding="utf-8"?>
<svg xmlns="http://www.w3.org/2000/svg" xmlns:xlink="http://www.w3.org/1999/xlink" width="600" height="400" viewBox="0 0 2400 1600">
<defs>
  <clipPath id="clip260">
    <rect x="0" y="0" width="2400" height="1600"/>
  </clipPath>
</defs>
<path clip-path="url(#clip260)" d="M0 1600 L2400 1600 L2400 0 L0 0  Z" fill="#ffffff" fill-rule="evenodd" fill-opacity="1"/>
<defs>
  <clipPath id="clip261">
    <rect x="155" y="47" width="2198" height="1440"/>
  </clipPath>
</defs>
<path clip-path="url(#clip260)" d="M155.765 1486.45 L2352.76 1486.45 L2352.76 47.2441 L155.765 47.2441  Z" fill="#ffffff" fill-rule="evenodd" fill-opacity="1"/>
<polyline clip-path="url(#clip261)" style="stroke:#000000; stroke-linecap:round; stroke-linejoin:round; stroke-width:2; stroke-opacity:0.1; fill:none" points="217.944,1486.45 217.944,47.2441 "/>
<polyline clip-path="url(#clip261)" style="stroke:#000000; stroke-linecap:round; stroke-linejoin:round; stroke-width:2; stroke-opacity:0.1; fill:none" points="736.102,1486.45 736.102,47.2441 "/>
<polyline clip-path="url(#clip261)" style="stroke:#000000; stroke-linecap:round; stroke-linejoin:round; stroke-width:2; stroke-opacity:0.1; fill:none" points="1254.26,1486.45 1254.26,47.2441 "/>
<polyline clip-path="url(#clip261)" style="stroke:#000000; stroke-linecap:round; stroke-linejoin:round; stroke-width:2; stroke-opacity:0.1; fill:none" points="1772.42,1486.45 1772.42,47.2441 "/>
<polyline clip-path="url(#clip261)" style="stroke:#000000; stroke-linecap:round; stroke-linejoin:round; stroke-width:2; stroke-opacity:0.1; fill:none" points="2290.58,1486.45 2290.58,47.2441 "/>
<polyline clip-path="url(#clip261)" style="stroke:#000000; stroke-linecap:round; stroke-linejoin:round; stroke-width:2; stroke-opacity:0.1; fill:none" points="155.765,1337.42 2352.76,1337.42 "/>
<polyline clip-path="url(#clip261)" style="stroke:#000000; stroke-linecap:round; stroke-linejoin:round; stroke-width:2; stroke-opacity:0.1; fill:none" points="155.765,1144.13 2352.76,1144.13 "/>
<polyline clip-path="url(#clip261)" style="stroke:#000000; stroke-linecap:round; stroke-linejoin:round; stroke-width:2; stroke-opacity:0.1; fill:none" points="155.765,950.836 2352.76,950.836 "/>
<polyline clip-path="url(#clip261)" style="stroke:#000000; stroke-linecap:round; stroke-linejoin:round; stroke-width:2; stroke-opacity:0.1; fill:none" points="155.765,757.545 2352.76,757.545 "/>
<polyline clip-path="url(#clip261)" style="stroke:#000000; stroke-linecap:round; stroke-linejoin:round; stroke-width:2; stroke-opacity:0.1; fill:none" points="155.765,564.253 2352.76,564.253 "/>
<polyline clip-path="url(#clip261)" style="stroke:#000000; stroke-linecap:round; stroke-linejoin:round; stroke-width:2; stroke-opacity:0.1; fill:none" points="155.765,370.961 2352.76,370.961 "/>
<polyline clip-path="url(#clip261)" style="stroke:#000000; stroke-linecap:round; stroke-linejoin:round; stroke-width:2; stroke-opacity:0.1; fill:none" points="155.765,177.669 2352.76,177.669 "/>
<polyline clip-path="url(#clip260)" style="stroke:#000000; stroke-linecap:round; stroke-linejoin:round; stroke-width:4; stroke-opacity:1; fill:none" points="155.765,1486.45 2352.76,1486.45 "/>
<polyline clip-path="url(#clip260)" style="stroke:#000000; stroke-linecap:round; stroke-linejoin:round; stroke-width:4; stroke-opacity:1; fill:none" points="217.944,1486.45 217.944,1467.55 "/>
<polyline clip-path="url(#clip260)" style="stroke:#000000; stroke-linecap:round; stroke-linejoin:round; stroke-width:4; stroke-opacity:1; fill:none" points="736.102,1486.45 736.102,1467.55 "/>
<polyline clip-path="url(#clip260)" style="stroke:#000000; stroke-linecap:round; stroke-linejoin:round; stroke-width:4; stroke-opacity:1; fill:none" points="1254.26,1486.45 1254.26,1467.55 "/>
<polyline clip-path="url(#clip260)" style="stroke:#000000; stroke-linecap:round; stroke-linejoin:round; stroke-width:4; stroke-opacity:1; fill:none" points="1772.42,1486.45 1772.42,1467.55 "/>
<polyline clip-path="url(#clip260)" style="stroke:#000000; stroke-linecap:round; stroke-linejoin:round; stroke-width:4; stroke-opacity:1; fill:none" points="2290.58,1486.45 2290.58,1467.55 "/>
<path clip-path="url(#clip260)" d="M180.247 1517.37 Q176.636 1517.37 174.808 1520.93 Q173.002 1524.47 173.002 1531.6 Q173.002 1538.71 174.808 1542.27 Q176.636 1545.82 180.247 1545.82 Q183.882 1545.82 185.687 1542.27 Q187.516 1538.71 187.516 1531.6 Q187.516 1524.47 185.687 1520.93 Q183.882 1517.37 180.247 1517.37 M180.247 1513.66 Q186.057 1513.66 189.113 1518.27 Q192.192 1522.85 192.192 1531.6 Q192.192 1540.33 189.113 1544.94 Q186.057 1549.52 180.247 1549.52 Q174.437 1549.52 171.358 1544.94 Q168.303 1540.33 168.303 1531.6 Q168.303 1522.85 171.358 1518.27 Q174.437 1513.66 180.247 1513.66 Z" fill="#000000" fill-rule="nonzero" fill-opacity="1" /><path clip-path="url(#clip260)" d="M200.409 1542.97 L205.294 1542.97 L205.294 1548.85 L200.409 1548.85 L200.409 1542.97 Z" fill="#000000" fill-rule="nonzero" fill-opacity="1" /><path clip-path="url(#clip260)" d="M225.479 1517.37 Q221.867 1517.37 220.039 1520.93 Q218.233 1524.47 218.233 1531.6 Q218.233 1538.71 220.039 1542.27 Q221.867 1545.82 225.479 1545.82 Q229.113 1545.82 230.918 1542.27 Q232.747 1538.71 232.747 1531.6 Q232.747 1524.47 230.918 1520.93 Q229.113 1517.37 225.479 1517.37 M225.479 1513.66 Q231.289 1513.66 234.344 1518.27 Q237.423 1522.85 237.423 1531.6 Q237.423 1540.33 234.344 1544.94 Q231.289 1549.52 225.479 1549.52 Q219.668 1549.52 216.59 1544.94 Q213.534 1540.33 213.534 1531.6 Q213.534 1522.85 216.59 1518.27 Q219.668 1513.66 225.479 1513.66 Z" fill="#000000" fill-rule="nonzero" fill-opacity="1" /><path clip-path="url(#clip260)" d="M255.64 1517.37 Q252.029 1517.37 250.201 1520.93 Q248.395 1524.47 248.395 1531.6 Q248.395 1538.71 250.201 1542.27 Q252.029 1545.82 255.64 1545.82 Q259.275 1545.82 261.08 1542.27 Q262.909 1538.71 262.909 1531.6 Q262.909 1524.47 261.08 1520.93 Q259.275 1517.37 255.64 1517.37 M255.64 1513.66 Q261.451 1513.66 264.506 1518.27 Q267.585 1522.85 267.585 1531.6 Q267.585 1540.33 264.506 1544.94 Q261.451 1549.52 255.64 1549.52 Q249.83 1549.52 246.752 1544.94 Q243.696 1540.33 243.696 1531.6 Q243.696 1522.85 246.752 1518.27 Q249.83 1513.66 255.64 1513.66 Z" fill="#000000" fill-rule="nonzero" fill-opacity="1" /><path clip-path="url(#clip260)" d="M698.903 1517.37 Q695.292 1517.37 693.463 1520.93 Q691.658 1524.47 691.658 1531.6 Q691.658 1538.71 693.463 1542.27 Q695.292 1545.82 698.903 1545.82 Q702.538 1545.82 704.343 1542.27 Q706.172 1538.71 706.172 1531.6 Q706.172 1524.47 704.343 1520.93 Q702.538 1517.37 698.903 1517.37 M698.903 1513.66 Q704.713 1513.66 707.769 1518.27 Q710.848 1522.85 710.848 1531.6 Q710.848 1540.33 707.769 1544.94 Q704.713 1549.52 698.903 1549.52 Q693.093 1549.52 690.014 1544.94 Q686.959 1540.33 686.959 1531.6 Q686.959 1522.85 690.014 1518.27 Q693.093 1513.66 698.903 1513.66 Z" fill="#000000" fill-rule="nonzero" fill-opacity="1" /><path clip-path="url(#clip260)" d="M719.065 1542.97 L723.949 1542.97 L723.949 1548.85 L719.065 1548.85 L719.065 1542.97 Z" fill="#000000" fill-rule="nonzero" fill-opacity="1" /><path clip-path="url(#clip260)" d="M738.162 1544.91 L754.482 1544.91 L754.482 1548.85 L732.537 1548.85 L732.537 1544.91 Q735.199 1542.16 739.783 1537.53 Q744.389 1532.88 745.57 1531.53 Q747.815 1529.01 748.695 1527.27 Q749.597 1525.51 749.597 1523.82 Q749.597 1521.07 747.653 1519.33 Q745.732 1517.6 742.63 1517.6 Q740.431 1517.6 737.977 1518.36 Q735.547 1519.13 732.769 1520.68 L732.769 1515.95 Q735.593 1514.82 738.047 1514.24 Q740.5 1513.66 742.537 1513.66 Q747.908 1513.66 751.102 1516.35 Q754.296 1519.03 754.296 1523.52 Q754.296 1525.65 753.486 1527.57 Q752.699 1529.47 750.593 1532.07 Q750.014 1532.74 746.912 1535.95 Q743.81 1539.15 738.162 1544.91 Z" fill="#000000" fill-rule="nonzero" fill-opacity="1" /><path clip-path="url(#clip260)" d="M764.343 1514.29 L782.699 1514.29 L782.699 1518.22 L768.625 1518.22 L768.625 1526.7 Q769.644 1526.35 770.662 1526.19 Q771.681 1526 772.699 1526 Q778.486 1526 781.866 1529.17 Q785.245 1532.34 785.245 1537.76 Q785.245 1543.34 781.773 1546.44 Q778.301 1549.52 771.982 1549.52 Q769.806 1549.52 767.537 1549.15 Q765.292 1548.78 762.884 1548.04 L762.884 1543.34 Q764.968 1544.47 767.19 1545.03 Q769.412 1545.58 771.889 1545.58 Q775.894 1545.58 778.232 1543.48 Q780.57 1541.37 780.57 1537.76 Q780.57 1534.15 778.232 1532.04 Q775.894 1529.94 771.889 1529.94 Q770.014 1529.94 768.139 1530.35 Q766.287 1530.77 764.343 1531.65 L764.343 1514.29 Z" fill="#000000" fill-rule="nonzero" fill-opacity="1" /><path clip-path="url(#clip260)" d="M1216.56 1517.37 Q1212.95 1517.37 1211.12 1520.93 Q1209.32 1524.47 1209.32 1531.6 Q1209.32 1538.71 1211.12 1542.27 Q1212.95 1545.82 1216.56 1545.82 Q1220.2 1545.82 1222 1542.27 Q1223.83 1538.71 1223.83 1531.6 Q1223.83 1524.47 1222 1520.93 Q1220.2 1517.37 1216.56 1517.37 M1216.56 1513.66 Q1222.37 1513.66 1225.43 1518.27 Q1228.51 1522.85 1228.51 1531.6 Q1228.51 1540.33 1225.43 1544.94 Q1222.37 1549.52 1216.56 1549.52 Q1210.75 1549.52 1207.68 1544.94 Q1204.62 1540.33 1204.62 1531.6 Q1204.62 1522.85 1207.68 1518.27 Q1210.75 1513.66 1216.56 1513.66 Z" fill="#000000" fill-rule="nonzero" fill-opacity="1" /><path clip-path="url(#clip260)" d="M1236.73 1542.97 L1241.61 1542.97 L1241.61 1548.85 L1236.73 1548.85 L1236.73 1542.97 Z" fill="#000000" fill-rule="nonzero" fill-opacity="1" /><path clip-path="url(#clip260)" d="M1251.84 1514.29 L1270.2 1514.29 L1270.2 1518.22 L1256.12 1518.22 L1256.12 1526.7 Q1257.14 1526.35 1258.16 1526.19 Q1259.18 1526 1260.2 1526 Q1265.98 1526 1269.36 1529.17 Q1272.74 1532.34 1272.74 1537.76 Q1272.74 1543.34 1269.27 1546.44 Q1265.8 1549.52 1259.48 1549.52 Q1257.3 1549.52 1255.04 1549.15 Q1252.79 1548.78 1250.38 1548.04 L1250.38 1543.34 Q1252.47 1544.47 1254.69 1545.03 Q1256.91 1545.58 1259.39 1545.58 Q1263.39 1545.58 1265.73 1543.48 Q1268.07 1541.37 1268.07 1537.76 Q1268.07 1534.15 1265.73 1532.04 Q1263.39 1529.94 1259.39 1529.94 Q1257.51 1529.94 1255.64 1530.35 Q1253.79 1530.77 1251.84 1531.65 L1251.84 1514.29 Z" fill="#000000" fill-rule="nonzero" fill-opacity="1" /><path clip-path="url(#clip260)" d="M1291.96 1517.37 Q1288.35 1517.37 1286.52 1520.93 Q1284.71 1524.47 1284.71 1531.6 Q1284.71 1538.71 1286.52 1542.27 Q1288.35 1545.82 1291.96 1545.82 Q1295.59 1545.82 1297.4 1542.27 Q1299.23 1538.71 1299.23 1531.6 Q1299.23 1524.47 1297.4 1520.93 Q1295.59 1517.37 1291.96 1517.37 M1291.96 1513.66 Q1297.77 1513.66 1300.82 1518.27 Q1303.9 1522.85 1303.9 1531.6 Q1303.9 1540.33 1300.82 1544.94 Q1297.77 1549.52 1291.96 1549.52 Q1286.15 1549.52 1283.07 1544.94 Q1280.01 1540.33 1280.01 1531.6 Q1280.01 1522.85 1283.07 1518.27 Q1286.15 1513.66 1291.96 1513.66 Z" fill="#000000" fill-rule="nonzero" fill-opacity="1" /><path clip-path="url(#clip260)" d="M1735.22 1517.37 Q1731.61 1517.37 1729.78 1520.93 Q1727.97 1524.47 1727.97 1531.6 Q1727.97 1538.71 1729.78 1542.27 Q1731.61 1545.82 1735.22 1545.82 Q1738.85 1545.82 1740.66 1542.27 Q1742.49 1538.71 1742.49 1531.6 Q1742.49 1524.47 1740.66 1520.93 Q1738.85 1517.37 1735.22 1517.37 M1735.22 1513.66 Q1741.03 1513.66 1744.09 1518.27 Q1747.16 1522.85 1747.16 1531.6 Q1747.16 1540.33 1744.09 1544.94 Q1741.03 1549.52 1735.22 1549.52 Q1729.41 1549.52 1726.33 1544.94 Q1723.28 1540.33 1723.28 1531.6 Q1723.28 1522.85 1726.33 1518.27 Q1729.41 1513.66 1735.22 1513.66 Z" fill="#000000" fill-rule="nonzero" fill-opacity="1" /><path clip-path="url(#clip260)" d="M1755.38 1542.97 L1760.27 1542.97 L1760.27 1548.85 L1755.38 1548.85 L1755.38 1542.97 Z" fill="#000000" fill-rule="nonzero" fill-opacity="1" /><path clip-path="url(#clip260)" d="M1769.27 1514.29 L1791.49 1514.29 L1791.49 1516.28 L1778.95 1548.85 L1774.06 1548.85 L1785.87 1518.22 L1769.27 1518.22 L1769.27 1514.29 Z" fill="#000000" fill-rule="nonzero" fill-opacity="1" /><path clip-path="url(#clip260)" d="M1800.66 1514.29 L1819.02 1514.29 L1819.02 1518.22 L1804.94 1518.22 L1804.94 1526.7 Q1805.96 1526.35 1806.98 1526.19 Q1808 1526 1809.02 1526 Q1814.8 1526 1818.18 1529.17 Q1821.56 1532.34 1821.56 1537.76 Q1821.56 1543.34 1818.09 1546.44 Q1814.62 1549.52 1808.3 1549.52 Q1806.12 1549.52 1803.85 1549.15 Q1801.61 1548.78 1799.2 1548.04 L1799.2 1543.34 Q1801.28 1544.47 1803.51 1545.03 Q1805.73 1545.58 1808.21 1545.58 Q1812.21 1545.58 1814.55 1543.48 Q1816.89 1541.37 1816.89 1537.76 Q1816.89 1534.15 1814.55 1532.04 Q1812.21 1529.94 1808.21 1529.94 Q1806.33 1529.94 1804.46 1530.35 Q1802.6 1530.77 1800.66 1531.65 L1800.66 1514.29 Z" fill="#000000" fill-rule="nonzero" fill-opacity="1" /><path clip-path="url(#clip260)" d="M2242.65 1544.91 L2250.29 1544.91 L2250.29 1518.55 L2241.98 1520.21 L2241.98 1515.95 L2250.24 1514.29 L2254.92 1514.29 L2254.92 1544.91 L2262.56 1544.91 L2262.56 1548.85 L2242.65 1548.85 L2242.65 1544.91 Z" fill="#000000" fill-rule="nonzero" fill-opacity="1" /><path clip-path="url(#clip260)" d="M2272 1542.97 L2276.88 1542.97 L2276.88 1548.85 L2272 1548.85 L2272 1542.97 Z" fill="#000000" fill-rule="nonzero" fill-opacity="1" /><path clip-path="url(#clip260)" d="M2297.07 1517.37 Q2293.46 1517.37 2291.63 1520.93 Q2289.82 1524.47 2289.82 1531.6 Q2289.82 1538.71 2291.63 1542.27 Q2293.46 1545.82 2297.07 1545.82 Q2300.7 1545.82 2302.51 1542.27 Q2304.34 1538.71 2304.34 1531.6 Q2304.34 1524.47 2302.51 1520.93 Q2300.7 1517.37 2297.07 1517.37 M2297.07 1513.66 Q2302.88 1513.66 2305.94 1518.27 Q2309.01 1522.85 2309.01 1531.6 Q2309.01 1540.33 2305.94 1544.94 Q2302.88 1549.52 2297.07 1549.52 Q2291.26 1549.52 2288.18 1544.94 Q2285.13 1540.33 2285.13 1531.6 Q2285.13 1522.85 2288.18 1518.27 Q2291.26 1513.66 2297.07 1513.66 Z" fill="#000000" fill-rule="nonzero" fill-opacity="1" /><path clip-path="url(#clip260)" d="M2327.23 1517.37 Q2323.62 1517.37 2321.79 1520.93 Q2319.99 1524.47 2319.99 1531.6 Q2319.99 1538.71 2321.79 1542.27 Q2323.62 1545.82 2327.23 1545.82 Q2330.87 1545.82 2332.67 1542.27 Q2334.5 1538.71 2334.5 1531.6 Q2334.5 1524.47 2332.67 1520.93 Q2330.87 1517.37 2327.23 1517.37 M2327.23 1513.66 Q2333.04 1513.66 2336.1 1518.27 Q2339.18 1522.85 2339.18 1531.6 Q2339.18 1540.33 2336.1 1544.94 Q2333.04 1549.52 2327.23 1549.52 Q2321.42 1549.52 2318.34 1544.94 Q2315.29 1540.33 2315.29 1531.6 Q2315.29 1522.85 2318.34 1518.27 Q2321.42 1513.66 2327.23 1513.66 Z" fill="#000000" fill-rule="nonzero" fill-opacity="1" /><polyline clip-path="url(#clip260)" style="stroke:#000000; stroke-linecap:round; stroke-linejoin:round; stroke-width:4; stroke-opacity:1; fill:none" points="155.765,1486.45 155.765,47.2441 "/>
<polyline clip-path="url(#clip260)" style="stroke:#000000; stroke-linecap:round; stroke-linejoin:round; stroke-width:4; stroke-opacity:1; fill:none" points="155.765,1337.42 174.663,1337.42 "/>
<polyline clip-path="url(#clip260)" style="stroke:#000000; stroke-linecap:round; stroke-linejoin:round; stroke-width:4; stroke-opacity:1; fill:none" points="155.765,1144.13 174.663,1144.13 "/>
<polyline clip-path="url(#clip260)" style="stroke:#000000; stroke-linecap:round; stroke-linejoin:round; stroke-width:4; stroke-opacity:1; fill:none" points="155.765,950.836 174.663,950.836 "/>
<polyline clip-path="url(#clip260)" style="stroke:#000000; stroke-linecap:round; stroke-linejoin:round; stroke-width:4; stroke-opacity:1; fill:none" points="155.765,757.545 174.663,757.545 "/>
<polyline clip-path="url(#clip260)" style="stroke:#000000; stroke-linecap:round; stroke-linejoin:round; stroke-width:4; stroke-opacity:1; fill:none" points="155.765,564.253 174.663,564.253 "/>
<polyline clip-path="url(#clip260)" style="stroke:#000000; stroke-linecap:round; stroke-linejoin:round; stroke-width:4; stroke-opacity:1; fill:none" points="155.765,370.961 174.663,370.961 "/>
<polyline clip-path="url(#clip260)" style="stroke:#000000; stroke-linecap:round; stroke-linejoin:round; stroke-width:4; stroke-opacity:1; fill:none" points="155.765,177.669 174.663,177.669 "/>
<path clip-path="url(#clip260)" d="M63.5847 1323.22 Q59.9736 1323.22 58.1449 1326.78 Q56.3393 1330.33 56.3393 1337.45 Q56.3393 1344.56 58.1449 1348.13 Q59.9736 1351.67 63.5847 1351.67 Q67.2189 1351.67 69.0244 1348.13 Q70.8531 1344.56 70.8531 1337.45 Q70.8531 1330.33 69.0244 1326.78 Q67.2189 1323.22 63.5847 1323.22 M63.5847 1319.52 Q69.3948 1319.52 72.4503 1324.12 Q75.529 1328.7 75.529 1337.45 Q75.529 1346.18 72.4503 1350.79 Q69.3948 1355.37 63.5847 1355.37 Q57.7745 1355.37 54.6958 1350.79 Q51.6403 1346.18 51.6403 1337.45 Q51.6403 1328.7 54.6958 1324.12 Q57.7745 1319.52 63.5847 1319.52 Z" fill="#000000" fill-rule="nonzero" fill-opacity="1" /><path clip-path="url(#clip260)" d="M83.7466 1348.82 L88.6308 1348.82 L88.6308 1354.7 L83.7466 1354.7 L83.7466 1348.82 Z" fill="#000000" fill-rule="nonzero" fill-opacity="1" /><path clip-path="url(#clip260)" d="M98.8622 1320.14 L117.219 1320.14 L117.219 1324.08 L103.145 1324.08 L103.145 1332.55 Q104.163 1332.2 105.182 1332.04 Q106.2 1331.85 107.219 1331.85 Q113.006 1331.85 116.385 1335.02 Q119.765 1338.2 119.765 1343.61 Q119.765 1349.19 116.293 1352.29 Q112.82 1355.37 106.501 1355.37 Q104.325 1355.37 102.057 1355 Q99.8113 1354.63 97.4039 1353.89 L97.4039 1349.19 Q99.4872 1350.33 101.709 1350.88 Q103.932 1351.44 106.408 1351.44 Q110.413 1351.44 112.751 1349.33 Q115.089 1347.22 115.089 1343.61 Q115.089 1340 112.751 1337.89 Q110.413 1335.79 106.408 1335.79 Q104.534 1335.79 102.659 1336.2 Q100.807 1336.62 98.8622 1337.5 L98.8622 1320.14 Z" fill="#000000" fill-rule="nonzero" fill-opacity="1" /><path clip-path="url(#clip260)" d="M53.3995 1157.47 L61.0384 1157.47 L61.0384 1131.11 L52.7282 1132.77 L52.7282 1128.51 L60.9921 1126.85 L65.668 1126.85 L65.668 1157.47 L73.3068 1157.47 L73.3068 1161.41 L53.3995 1161.41 L53.3995 1157.47 Z" fill="#000000" fill-rule="nonzero" fill-opacity="1" /><path clip-path="url(#clip260)" d="M82.7512 1155.53 L87.6354 1155.53 L87.6354 1161.41 L82.7512 1161.41 L82.7512 1155.53 Z" fill="#000000" fill-rule="nonzero" fill-opacity="1" /><path clip-path="url(#clip260)" d="M107.821 1129.93 Q104.209 1129.93 102.381 1133.49 Q100.575 1137.03 100.575 1144.16 Q100.575 1151.27 102.381 1154.83 Q104.209 1158.38 107.821 1158.38 Q111.455 1158.38 113.26 1154.83 Q115.089 1151.27 115.089 1144.16 Q115.089 1137.03 113.26 1133.49 Q111.455 1129.93 107.821 1129.93 M107.821 1126.22 Q113.631 1126.22 116.686 1130.83 Q119.765 1135.41 119.765 1144.16 Q119.765 1152.89 116.686 1157.5 Q113.631 1162.08 107.821 1162.08 Q102.01 1162.08 98.9317 1157.5 Q95.8761 1152.89 95.8761 1144.16 Q95.8761 1135.41 98.9317 1130.83 Q102.01 1126.22 107.821 1126.22 Z" fill="#000000" fill-rule="nonzero" fill-opacity="1" /><path clip-path="url(#clip260)" d="M54.3949 964.181 L62.0337 964.181 L62.0337 937.816 L53.7236 939.482 L53.7236 935.223 L61.9874 933.556 L66.6633 933.556 L66.6633 964.181 L74.3022 964.181 L74.3022 968.116 L54.3949 968.116 L54.3949 964.181 Z" fill="#000000" fill-rule="nonzero" fill-opacity="1" /><path clip-path="url(#clip260)" d="M83.7466 962.237 L88.6308 962.237 L88.6308 968.116 L83.7466 968.116 L83.7466 962.237 Z" fill="#000000" fill-rule="nonzero" fill-opacity="1" /><path clip-path="url(#clip260)" d="M98.8622 933.556 L117.219 933.556 L117.219 937.492 L103.145 937.492 L103.145 945.964 Q104.163 945.617 105.182 945.455 Q106.2 945.269 107.219 945.269 Q113.006 945.269 116.385 948.441 Q119.765 951.612 119.765 957.029 Q119.765 962.607 116.293 965.709 Q112.82 968.788 106.501 968.788 Q104.325 968.788 102.057 968.417 Q99.8113 968.047 97.4039 967.306 L97.4039 962.607 Q99.4872 963.741 101.709 964.297 Q103.932 964.853 106.408 964.853 Q110.413 964.853 112.751 962.746 Q115.089 960.64 115.089 957.029 Q115.089 953.417 112.751 951.311 Q110.413 949.204 106.408 949.204 Q104.534 949.204 102.659 949.621 Q100.807 950.038 98.8622 950.917 L98.8622 933.556 Z" fill="#000000" fill-rule="nonzero" fill-opacity="1" /><path clip-path="url(#clip260)" d="M56.6171 770.889 L72.9365 770.889 L72.9365 774.825 L50.9921 774.825 L50.9921 770.889 Q53.6541 768.135 58.2375 763.505 Q62.8439 758.852 64.0245 757.51 Q66.2698 754.987 67.1494 753.251 Q68.0522 751.491 68.0522 749.802 Q68.0522 747.047 66.1078 745.311 Q64.1865 743.575 61.0847 743.575 Q58.8856 743.575 56.4319 744.339 Q54.0014 745.103 51.2236 746.653 L51.2236 741.931 Q54.0477 740.797 56.5014 740.218 Q58.955 739.64 60.9921 739.64 Q66.3624 739.64 69.5568 742.325 Q72.7513 745.01 72.7513 749.501 Q72.7513 751.63 71.9411 753.552 Q71.1541 755.45 69.0476 758.042 Q68.4689 758.714 65.367 761.931 Q62.2652 765.126 56.6171 770.889 Z" fill="#000000" fill-rule="nonzero" fill-opacity="1" /><path clip-path="url(#clip260)" d="M82.7512 768.945 L87.6354 768.945 L87.6354 774.825 L82.7512 774.825 L82.7512 768.945 Z" fill="#000000" fill-rule="nonzero" fill-opacity="1" /><path clip-path="url(#clip260)" d="M107.821 743.343 Q104.209 743.343 102.381 746.908 Q100.575 750.45 100.575 757.579 Q100.575 764.686 102.381 768.251 Q104.209 771.792 107.821 771.792 Q111.455 771.792 113.26 768.251 Q115.089 764.686 115.089 757.579 Q115.089 750.45 113.26 746.908 Q111.455 743.343 107.821 743.343 M107.821 739.64 Q113.631 739.64 116.686 744.246 Q119.765 748.829 119.765 757.579 Q119.765 766.306 116.686 770.913 Q113.631 775.496 107.821 775.496 Q102.01 775.496 98.9317 770.913 Q95.8761 766.306 95.8761 757.579 Q95.8761 748.829 98.9317 744.246 Q102.01 739.64 107.821 739.64 Z" fill="#000000" fill-rule="nonzero" fill-opacity="1" /><path clip-path="url(#clip260)" d="M57.6125 577.598 L73.9318 577.598 L73.9318 581.533 L51.9875 581.533 L51.9875 577.598 Q54.6495 574.843 59.2328 570.213 Q63.8393 565.561 65.0198 564.218 Q67.2652 561.695 68.1448 559.959 Q69.0476 558.2 69.0476 556.51 Q69.0476 553.755 67.1032 552.019 Q65.1819 550.283 62.08 550.283 Q59.881 550.283 57.4273 551.047 Q54.9967 551.811 52.219 553.362 L52.219 548.639 Q55.043 547.505 57.4967 546.926 Q59.9504 546.348 61.9874 546.348 Q67.3578 546.348 70.5522 549.033 Q73.7466 551.718 73.7466 556.209 Q73.7466 558.338 72.9365 560.26 Q72.1494 562.158 70.0429 564.75 Q69.4642 565.422 66.3624 568.639 Q63.2606 571.834 57.6125 577.598 Z" fill="#000000" fill-rule="nonzero" fill-opacity="1" /><path clip-path="url(#clip260)" d="M83.7466 575.653 L88.6308 575.653 L88.6308 581.533 L83.7466 581.533 L83.7466 575.653 Z" fill="#000000" fill-rule="nonzero" fill-opacity="1" /><path clip-path="url(#clip260)" d="M98.8622 546.973 L117.219 546.973 L117.219 550.908 L103.145 550.908 L103.145 559.38 Q104.163 559.033 105.182 558.871 Q106.2 558.686 107.219 558.686 Q113.006 558.686 116.385 561.857 Q119.765 565.028 119.765 570.445 Q119.765 576.024 116.293 579.125 Q112.82 582.204 106.501 582.204 Q104.325 582.204 102.057 581.834 Q99.8113 581.463 97.4039 580.723 L97.4039 576.024 Q99.4872 577.158 101.709 577.713 Q103.932 578.269 106.408 578.269 Q110.413 578.269 112.751 576.162 Q115.089 574.056 115.089 570.445 Q115.089 566.834 112.751 564.727 Q110.413 562.621 106.408 562.621 Q104.534 562.621 102.659 563.037 Q100.807 563.454 98.8622 564.334 L98.8622 546.973 Z" fill="#000000" fill-rule="nonzero" fill-opacity="1" /><path clip-path="url(#clip260)" d="M66.7559 369.607 Q70.1124 370.324 71.9874 372.593 Q73.8855 374.861 73.8855 378.195 Q73.8855 383.31 70.367 386.111 Q66.8485 388.912 60.3671 388.912 Q58.1912 388.912 55.8764 388.472 Q53.5847 388.056 51.131 387.199 L51.131 382.685 Q53.0754 383.82 55.3903 384.398 Q57.7051 384.977 60.2282 384.977 Q64.6263 384.977 66.918 383.241 Q69.2328 381.505 69.2328 378.195 Q69.2328 375.139 67.08 373.426 Q64.9504 371.69 61.131 371.69 L57.1032 371.69 L57.1032 367.848 L61.3161 367.848 Q64.7652 367.848 66.5939 366.482 Q68.4226 365.093 68.4226 362.5 Q68.4226 359.838 66.5245 358.426 Q64.6495 356.991 61.131 356.991 Q59.2097 356.991 57.0106 357.408 Q54.8115 357.824 52.1727 358.704 L52.1727 354.537 Q54.8347 353.797 57.1495 353.426 Q59.4875 353.056 61.5476 353.056 Q66.8717 353.056 69.9735 355.486 Q73.0753 357.894 73.0753 362.014 Q73.0753 364.885 71.4318 366.875 Q69.7883 368.843 66.7559 369.607 Z" fill="#000000" fill-rule="nonzero" fill-opacity="1" /><path clip-path="url(#clip260)" d="M82.7512 382.361 L87.6354 382.361 L87.6354 388.241 L82.7512 388.241 L82.7512 382.361 Z" fill="#000000" fill-rule="nonzero" fill-opacity="1" /><path clip-path="url(#clip260)" d="M107.821 356.76 Q104.209 356.76 102.381 360.324 Q100.575 363.866 100.575 370.996 Q100.575 378.102 102.381 381.667 Q104.209 385.209 107.821 385.209 Q111.455 385.209 113.26 381.667 Q115.089 378.102 115.089 370.996 Q115.089 363.866 113.26 360.324 Q111.455 356.76 107.821 356.76 M107.821 353.056 Q113.631 353.056 116.686 357.662 Q119.765 362.246 119.765 370.996 Q119.765 379.722 116.686 384.329 Q113.631 388.912 107.821 388.912 Q102.01 388.912 98.9317 384.329 Q95.8761 379.722 95.8761 370.996 Q95.8761 362.246 98.9317 357.662 Q102.01 353.056 107.821 353.056 Z" fill="#000000" fill-rule="nonzero" fill-opacity="1" /><path clip-path="url(#clip260)" d="M67.7513 176.315 Q71.1078 177.033 72.9827 179.301 Q74.8809 181.57 74.8809 184.903 Q74.8809 190.019 71.3624 192.819 Q67.8439 195.62 61.3624 195.62 Q59.1865 195.62 56.8717 195.181 Q54.5801 194.764 52.1264 193.907 L52.1264 189.394 Q54.0708 190.528 56.3856 191.107 Q58.7004 191.685 61.2236 191.685 Q65.6217 191.685 67.9133 189.949 Q70.2281 188.213 70.2281 184.903 Q70.2281 181.847 68.0754 180.134 Q65.9457 178.398 62.1263 178.398 L58.0986 178.398 L58.0986 174.556 L62.3115 174.556 Q65.7606 174.556 67.5893 173.19 Q69.418 171.801 69.418 169.208 Q69.418 166.546 67.5198 165.134 Q65.6448 163.699 62.1263 163.699 Q60.205 163.699 58.006 164.116 Q55.8069 164.533 53.168 165.412 L53.168 161.246 Q55.8301 160.505 58.1449 160.134 Q60.4828 159.764 62.543 159.764 Q67.867 159.764 70.9689 162.195 Q74.0707 164.602 74.0707 168.722 Q74.0707 171.593 72.4272 173.583 Q70.7837 175.551 67.7513 176.315 Z" fill="#000000" fill-rule="nonzero" fill-opacity="1" /><path clip-path="url(#clip260)" d="M83.7466 189.069 L88.6308 189.069 L88.6308 194.949 L83.7466 194.949 L83.7466 189.069 Z" fill="#000000" fill-rule="nonzero" fill-opacity="1" /><path clip-path="url(#clip260)" d="M98.8622 160.389 L117.219 160.389 L117.219 164.324 L103.145 164.324 L103.145 172.796 Q104.163 172.449 105.182 172.287 Q106.2 172.102 107.219 172.102 Q113.006 172.102 116.385 175.273 Q119.765 178.445 119.765 183.861 Q119.765 189.44 116.293 192.542 Q112.82 195.62 106.501 195.62 Q104.325 195.62 102.057 195.25 Q99.8113 194.88 97.4039 194.139 L97.4039 189.44 Q99.4872 190.574 101.709 191.13 Q103.932 191.685 106.408 191.685 Q110.413 191.685 112.751 189.579 Q115.089 187.472 115.089 183.861 Q115.089 180.25 112.751 178.144 Q110.413 176.037 106.408 176.037 Q104.534 176.037 102.659 176.454 Q100.807 176.87 98.8622 177.75 L98.8622 160.389 Z" fill="#000000" fill-rule="nonzero" fill-opacity="1" /><polyline clip-path="url(#clip261)" style="stroke:#009af9; stroke-linecap:round; stroke-linejoin:round; stroke-width:12; stroke-opacity:1; fill:none" points="217.944,1337.42 425.207,1319.42 632.47,1299.8 839.734,1315.42 1047,1347.06 1254.26,1248.08 1461.52,1226.08 1668.79,1195.92 1876.05,1164.01 2083.31,1146.61 2290.58,1148.39 "/>
<polyline clip-path="url(#clip261)" style="stroke:#000000; stroke-linecap:round; stroke-linejoin:round; stroke-width:12; stroke-opacity:1; fill:none" points="217.944,1337.42 217.944,1337.42 "/>
<polyline clip-path="url(#clip261)" style="stroke:#000000; stroke-linecap:round; stroke-linejoin:round; stroke-width:12; stroke-opacity:1; fill:none" points="425.207,1411.87 425.207,1268.98 "/>
<polyline clip-path="url(#clip261)" style="stroke:#000000; stroke-linecap:round; stroke-linejoin:round; stroke-width:12; stroke-opacity:1; fill:none" points="632.47,1427.05 632.47,1148.81 "/>
<polyline clip-path="url(#clip261)" style="stroke:#000000; stroke-linecap:round; stroke-linejoin:round; stroke-width:12; stroke-opacity:1; fill:none" points="839.734,1415.24 839.734,986.806 "/>
<polyline clip-path="url(#clip261)" style="stroke:#000000; stroke-linecap:round; stroke-linejoin:round; stroke-width:12; stroke-opacity:1; fill:none" points="1047,1381.24 1047,823.053 "/>
<polyline clip-path="url(#clip261)" style="stroke:#000000; stroke-linecap:round; stroke-linejoin:round; stroke-width:12; stroke-opacity:1; fill:none" points="1254.26,1392.84 1254.26,735.343 "/>
<polyline clip-path="url(#clip261)" style="stroke:#000000; stroke-linecap:round; stroke-linejoin:round; stroke-width:12; stroke-opacity:1; fill:none" points="1461.52,1430.56 1461.52,830.76 "/>
<polyline clip-path="url(#clip261)" style="stroke:#000000; stroke-linecap:round; stroke-linejoin:round; stroke-width:12; stroke-opacity:1; fill:none" points="1668.79,1411.27 1668.79,810.973 "/>
<polyline clip-path="url(#clip261)" style="stroke:#000000; stroke-linecap:round; stroke-linejoin:round; stroke-width:12; stroke-opacity:1; fill:none" points="1876.05,1400.93 1876.05,685.567 "/>
<polyline clip-path="url(#clip261)" style="stroke:#000000; stroke-linecap:round; stroke-linejoin:round; stroke-width:12; stroke-opacity:1; fill:none" points="2083.31,1373.24 2083.31,442.564 "/>
<polyline clip-path="url(#clip261)" style="stroke:#000000; stroke-linecap:round; stroke-linejoin:round; stroke-width:12; stroke-opacity:1; fill:none" points="2290.58,1358.52 2290.58,371.125 "/>
<line clip-path="url(#clip261)" x1="233.944" y1="1337.42" x2="201.944" y2="1337.42" style="stroke:#000000; stroke-width:12; stroke-opacity:1"/>
<line clip-path="url(#clip261)" x1="233.944" y1="1337.42" x2="201.944" y2="1337.42" style="stroke:#000000; stroke-width:12; stroke-opacity:1"/>
<line clip-path="url(#clip261)" x1="441.207" y1="1411.87" x2="409.207" y2="1411.87" style="stroke:#000000; stroke-width:12; stroke-opacity:1"/>
<line clip-path="url(#clip261)" x1="441.207" y1="1268.98" x2="409.207" y2="1268.98" style="stroke:#000000; stroke-width:12; stroke-opacity:1"/>
<line clip-path="url(#clip261)" x1="648.47" y1="1427.05" x2="616.47" y2="1427.05" style="stroke:#000000; stroke-width:12; stroke-opacity:1"/>
<line clip-path="url(#clip261)" x1="648.47" y1="1148.81" x2="616.47" y2="1148.81" style="stroke:#000000; stroke-width:12; stroke-opacity:1"/>
<line clip-path="url(#clip261)" x1="855.734" y1="1415.24" x2="823.734" y2="1415.24" style="stroke:#000000; stroke-width:12; stroke-opacity:1"/>
<line clip-path="url(#clip261)" x1="855.734" y1="986.806" x2="823.734" y2="986.806" style="stroke:#000000; stroke-width:12; stroke-opacity:1"/>
<line clip-path="url(#clip261)" x1="1063" y1="1381.24" x2="1031" y2="1381.24" style="stroke:#000000; stroke-width:12; stroke-opacity:1"/>
<line clip-path="url(#clip261)" x1="1063" y1="823.053" x2="1031" y2="823.053" style="stroke:#000000; stroke-width:12; stroke-opacity:1"/>
<line clip-path="url(#clip261)" x1="1270.26" y1="1392.84" x2="1238.26" y2="1392.84" style="stroke:#000000; stroke-width:12; stroke-opacity:1"/>
<line clip-path="url(#clip261)" x1="1270.26" y1="735.343" x2="1238.26" y2="735.343" style="stroke:#000000; stroke-width:12; stroke-opacity:1"/>
<line clip-path="url(#clip261)" x1="1477.52" y1="1430.56" x2="1445.52" y2="1430.56" style="stroke:#000000; stroke-width:12; stroke-opacity:1"/>
<line clip-path="url(#clip261)" x1="1477.52" y1="830.76" x2="1445.52" y2="830.76" style="stroke:#000000; stroke-width:12; stroke-opacity:1"/>
<line clip-path="url(#clip261)" x1="1684.79" y1="1411.27" x2="1652.79" y2="1411.27" style="stroke:#000000; stroke-width:12; stroke-opacity:1"/>
<line clip-path="url(#clip261)" x1="1684.79" y1="810.973" x2="1652.79" y2="810.973" style="stroke:#000000; stroke-width:12; stroke-opacity:1"/>
<line clip-path="url(#clip261)" x1="1892.05" y1="1400.93" x2="1860.05" y2="1400.93" style="stroke:#000000; stroke-width:12; stroke-opacity:1"/>
<line clip-path="url(#clip261)" x1="1892.05" y1="685.567" x2="1860.05" y2="685.567" style="stroke:#000000; stroke-width:12; stroke-opacity:1"/>
<line clip-path="url(#clip261)" x1="2099.31" y1="1373.24" x2="2067.31" y2="1373.24" style="stroke:#000000; stroke-width:12; stroke-opacity:1"/>
<line clip-path="url(#clip261)" x1="2099.31" y1="442.564" x2="2067.31" y2="442.564" style="stroke:#000000; stroke-width:12; stroke-opacity:1"/>
<line clip-path="url(#clip261)" x1="2306.58" y1="1358.52" x2="2274.58" y2="1358.52" style="stroke:#000000; stroke-width:12; stroke-opacity:1"/>
<line clip-path="url(#clip261)" x1="2306.58" y1="371.125" x2="2274.58" y2="371.125" style="stroke:#000000; stroke-width:12; stroke-opacity:1"/>
<polyline clip-path="url(#clip261)" style="stroke:#e26f46; stroke-linecap:round; stroke-linejoin:round; stroke-width:12; stroke-opacity:1; fill:none" points="217.944,1337.42 425.207,1328.48 632.47,1288.3 839.734,1232.11 1047,1177.27 1254.26,1122.6 1461.52,1166.15 1668.79,1131.87 1876.05,1132.17 2083.31,1203.43 2290.58,1214.49 "/>
<polyline clip-path="url(#clip261)" style="stroke:#000000; stroke-linecap:round; stroke-linejoin:round; stroke-width:12; stroke-opacity:1; fill:none" points="217.944,1337.42 217.944,1337.42 "/>
<polyline clip-path="url(#clip261)" style="stroke:#000000; stroke-linecap:round; stroke-linejoin:round; stroke-width:12; stroke-opacity:1; fill:none" points="425.207,1373.52 425.207,1273.92 "/>
<polyline clip-path="url(#clip261)" style="stroke:#000000; stroke-linecap:round; stroke-linejoin:round; stroke-width:12; stroke-opacity:1; fill:none" points="632.47,1392.17 632.47,1105.93 "/>
<polyline clip-path="url(#clip261)" style="stroke:#000000; stroke-linecap:round; stroke-linejoin:round; stroke-width:12; stroke-opacity:1; fill:none" points="839.734,1386.85 839.734,992.216 "/>
<polyline clip-path="url(#clip261)" style="stroke:#000000; stroke-linecap:round; stroke-linejoin:round; stroke-width:12; stroke-opacity:1; fill:none" points="1047,1356.27 1047,933.387 "/>
<polyline clip-path="url(#clip261)" style="stroke:#000000; stroke-linecap:round; stroke-linejoin:round; stroke-width:12; stroke-opacity:1; fill:none" points="1254.26,1393.73 1254.26,846.098 "/>
<polyline clip-path="url(#clip261)" style="stroke:#000000; stroke-linecap:round; stroke-linejoin:round; stroke-width:12; stroke-opacity:1; fill:none" points="1461.52,1387.07 1461.52,804.489 "/>
<polyline clip-path="url(#clip261)" style="stroke:#000000; stroke-linecap:round; stroke-linejoin:round; stroke-width:12; stroke-opacity:1; fill:none" points="1668.79,1379.1 1668.79,517.006 "/>
<polyline clip-path="url(#clip261)" style="stroke:#000000; stroke-linecap:round; stroke-linejoin:round; stroke-width:12; stroke-opacity:1; fill:none" points="1876.05,1397.6 1876.05,377.37 "/>
<polyline clip-path="url(#clip261)" style="stroke:#000000; stroke-linecap:round; stroke-linejoin:round; stroke-width:12; stroke-opacity:1; fill:none" points="2083.31,1434.71 2083.31,373.594 "/>
<polyline clip-path="url(#clip261)" style="stroke:#000000; stroke-linecap:round; stroke-linejoin:round; stroke-width:12; stroke-opacity:1; fill:none" points="2290.58,1445.72 2290.58,87.9763 "/>
<line clip-path="url(#clip261)" x1="233.944" y1="1337.42" x2="201.944" y2="1337.42" style="stroke:#000000; stroke-width:12; stroke-opacity:1"/>
<line clip-path="url(#clip261)" x1="233.944" y1="1337.42" x2="201.944" y2="1337.42" style="stroke:#000000; stroke-width:12; stroke-opacity:1"/>
<line clip-path="url(#clip261)" x1="441.207" y1="1373.52" x2="409.207" y2="1373.52" style="stroke:#000000; stroke-width:12; stroke-opacity:1"/>
<line clip-path="url(#clip261)" x1="441.207" y1="1273.92" x2="409.207" y2="1273.92" style="stroke:#000000; stroke-width:12; stroke-opacity:1"/>
<line clip-path="url(#clip261)" x1="648.47" y1="1392.17" x2="616.47" y2="1392.17" style="stroke:#000000; stroke-width:12; stroke-opacity:1"/>
<line clip-path="url(#clip261)" x1="648.47" y1="1105.93" x2="616.47" y2="1105.93" style="stroke:#000000; stroke-width:12; stroke-opacity:1"/>
<line clip-path="url(#clip261)" x1="855.734" y1="1386.85" x2="823.734" y2="1386.85" style="stroke:#000000; stroke-width:12; stroke-opacity:1"/>
<line clip-path="url(#clip261)" x1="855.734" y1="992.216" x2="823.734" y2="992.216" style="stroke:#000000; stroke-width:12; stroke-opacity:1"/>
<line clip-path="url(#clip261)" x1="1063" y1="1356.27" x2="1031" y2="1356.27" style="stroke:#000000; stroke-width:12; stroke-opacity:1"/>
<line clip-path="url(#clip261)" x1="1063" y1="933.387" x2="1031" y2="933.387" style="stroke:#000000; stroke-width:12; stroke-opacity:1"/>
<line clip-path="url(#clip261)" x1="1270.26" y1="1393.73" x2="1238.26" y2="1393.73" style="stroke:#000000; stroke-width:12; stroke-opacity:1"/>
<line clip-path="url(#clip261)" x1="1270.26" y1="846.098" x2="1238.26" y2="846.098" style="stroke:#000000; stroke-width:12; stroke-opacity:1"/>
<line clip-path="url(#clip261)" x1="1477.52" y1="1387.07" x2="1445.52" y2="1387.07" style="stroke:#000000; stroke-width:12; stroke-opacity:1"/>
<line clip-path="url(#clip261)" x1="1477.52" y1="804.489" x2="1445.52" y2="804.489" style="stroke:#000000; stroke-width:12; stroke-opacity:1"/>
<line clip-path="url(#clip261)" x1="1684.79" y1="1379.1" x2="1652.79" y2="1379.1" style="stroke:#000000; stroke-width:12; stroke-opacity:1"/>
<line clip-path="url(#clip261)" x1="1684.79" y1="517.006" x2="1652.79" y2="517.006" style="stroke:#000000; stroke-width:12; stroke-opacity:1"/>
<line clip-path="url(#clip261)" x1="1892.05" y1="1397.6" x2="1860.05" y2="1397.6" style="stroke:#000000; stroke-width:12; stroke-opacity:1"/>
<line clip-path="url(#clip261)" x1="1892.05" y1="377.37" x2="1860.05" y2="377.37" style="stroke:#000000; stroke-width:12; stroke-opacity:1"/>
<line clip-path="url(#clip261)" x1="2099.31" y1="1434.71" x2="2067.31" y2="1434.71" style="stroke:#000000; stroke-width:12; stroke-opacity:1"/>
<line clip-path="url(#clip261)" x1="2099.31" y1="373.594" x2="2067.31" y2="373.594" style="stroke:#000000; stroke-width:12; stroke-opacity:1"/>
<line clip-path="url(#clip261)" x1="2306.58" y1="1445.72" x2="2274.58" y2="1445.72" style="stroke:#000000; stroke-width:12; stroke-opacity:1"/>
<line clip-path="url(#clip261)" x1="2306.58" y1="87.9763" x2="2274.58" y2="87.9763" style="stroke:#000000; stroke-width:12; stroke-opacity:1"/>
</svg>
