<?xml version="1.0" encoding="utf-8"?>
<svg xmlns="http://www.w3.org/2000/svg" xmlns:xlink="http://www.w3.org/1999/xlink" width="600" height="400" viewBox="0 0 2400 1600">
<defs>
  <clipPath id="clip920">
    <rect x="0" y="0" width="2400" height="1600"/>
  </clipPath>
</defs>
<path clip-path="url(#clip920)" d="M0 1600 L2400 1600 L2400 0 L0 0  Z" fill="#ffffff" fill-rule="evenodd" fill-opacity="1"/>
<defs>
  <clipPath id="clip921">
    <rect x="184" y="47" width="2170" height="1440"/>
  </clipPath>
</defs>
<path clip-path="url(#clip920)" d="M184.191 1486.45 L2352.76 1486.45 L2352.76 47.2441 L184.191 47.2441  Z" fill="#ffffff" fill-rule="evenodd" fill-opacity="1"/>
<polyline clip-path="url(#clip921)" style="stroke:#000000; stroke-linecap:round; stroke-linejoin:round; stroke-width:2; stroke-opacity:0.1; fill:none" points="245.565,1486.45 245.565,47.2441 "/>
<polyline clip-path="url(#clip921)" style="stroke:#000000; stroke-linecap:round; stroke-linejoin:round; stroke-width:2; stroke-opacity:0.1; fill:none" points="757.019,1486.45 757.019,47.2441 "/>
<polyline clip-path="url(#clip921)" style="stroke:#000000; stroke-linecap:round; stroke-linejoin:round; stroke-width:2; stroke-opacity:0.1; fill:none" points="1268.47,1486.45 1268.47,47.2441 "/>
<polyline clip-path="url(#clip921)" style="stroke:#000000; stroke-linecap:round; stroke-linejoin:round; stroke-width:2; stroke-opacity:0.1; fill:none" points="1779.93,1486.45 1779.93,47.2441 "/>
<polyline clip-path="url(#clip921)" style="stroke:#000000; stroke-linecap:round; stroke-linejoin:round; stroke-width:2; stroke-opacity:0.1; fill:none" points="2291.38,1486.45 2291.38,47.2441 "/>
<polyline clip-path="url(#clip921)" style="stroke:#000000; stroke-linecap:round; stroke-linejoin:round; stroke-width:2; stroke-opacity:0.1; fill:none" points="184.191,1451.1 2352.76,1451.1 "/>
<polyline clip-path="url(#clip921)" style="stroke:#000000; stroke-linecap:round; stroke-linejoin:round; stroke-width:2; stroke-opacity:0.1; fill:none" points="184.191,1148.37 2352.76,1148.37 "/>
<polyline clip-path="url(#clip921)" style="stroke:#000000; stroke-linecap:round; stroke-linejoin:round; stroke-width:2; stroke-opacity:0.1; fill:none" points="184.191,845.642 2352.76,845.642 "/>
<polyline clip-path="url(#clip921)" style="stroke:#000000; stroke-linecap:round; stroke-linejoin:round; stroke-width:2; stroke-opacity:0.1; fill:none" points="184.191,542.912 2352.76,542.912 "/>
<polyline clip-path="url(#clip921)" style="stroke:#000000; stroke-linecap:round; stroke-linejoin:round; stroke-width:2; stroke-opacity:0.1; fill:none" points="184.191,240.181 2352.76,240.181 "/>
<polyline clip-path="url(#clip920)" style="stroke:#000000; stroke-linecap:round; stroke-linejoin:round; stroke-width:4; stroke-opacity:1; fill:none" points="184.191,1486.45 2352.76,1486.45 "/>
<polyline clip-path="url(#clip920)" style="stroke:#000000; stroke-linecap:round; stroke-linejoin:round; stroke-width:4; stroke-opacity:1; fill:none" points="245.565,1486.45 245.565,1467.55 "/>
<polyline clip-path="url(#clip920)" style="stroke:#000000; stroke-linecap:round; stroke-linejoin:round; stroke-width:4; stroke-opacity:1; fill:none" points="757.019,1486.45 757.019,1467.55 "/>
<polyline clip-path="url(#clip920)" style="stroke:#000000; stroke-linecap:round; stroke-linejoin:round; stroke-width:4; stroke-opacity:1; fill:none" points="1268.47,1486.45 1268.47,1467.55 "/>
<polyline clip-path="url(#clip920)" style="stroke:#000000; stroke-linecap:round; stroke-linejoin:round; stroke-width:4; stroke-opacity:1; fill:none" points="1779.93,1486.45 1779.93,1467.55 "/>
<polyline clip-path="url(#clip920)" style="stroke:#000000; stroke-linecap:round; stroke-linejoin:round; stroke-width:4; stroke-opacity:1; fill:none" points="2291.38,1486.45 2291.38,1467.55 "/>
<path clip-path="url(#clip920)" d="M222.95 1517.37 Q219.338 1517.37 217.51 1520.93 Q215.704 1524.47 215.704 1531.6 Q215.704 1538.71 217.51 1542.27 Q219.338 1545.82 222.95 1545.82 Q226.584 1545.82 228.389 1542.27 Q230.218 1538.71 230.218 1531.6 Q230.218 1524.47 228.389 1520.93 Q226.584 1517.37 222.95 1517.37 M222.95 1513.66 Q228.76 1513.66 231.815 1518.27 Q234.894 1522.85 234.894 1531.6 Q234.894 1540.33 231.815 1544.94 Q228.76 1549.52 222.95 1549.52 Q217.139 1549.52 214.061 1544.94 Q211.005 1540.33 211.005 1531.6 Q211.005 1522.85 214.061 1518.27 Q217.139 1513.66 222.95 1513.66 Z" fill="#000000" fill-rule="nonzero" fill-opacity="1" /><path clip-path="url(#clip920)" d="M243.111 1542.97 L247.996 1542.97 L247.996 1548.85 L243.111 1548.85 L243.111 1542.97 Z" fill="#000000" fill-rule="nonzero" fill-opacity="1" /><path clip-path="url(#clip920)" d="M268.181 1517.37 Q264.57 1517.37 262.741 1520.93 Q260.935 1524.47 260.935 1531.6 Q260.935 1538.71 262.741 1542.27 Q264.57 1545.82 268.181 1545.82 Q271.815 1545.82 273.621 1542.27 Q275.449 1538.71 275.449 1531.6 Q275.449 1524.47 273.621 1520.93 Q271.815 1517.37 268.181 1517.37 M268.181 1513.66 Q273.991 1513.66 277.046 1518.27 Q280.125 1522.85 280.125 1531.6 Q280.125 1540.33 277.046 1544.94 Q273.991 1549.52 268.181 1549.52 Q262.371 1549.52 259.292 1544.94 Q256.236 1540.33 256.236 1531.6 Q256.236 1522.85 259.292 1518.27 Q262.371 1513.66 268.181 1513.66 Z" fill="#000000" fill-rule="nonzero" fill-opacity="1" /><path clip-path="url(#clip920)" d="M728.755 1544.91 L745.075 1544.91 L745.075 1548.85 L723.131 1548.85 L723.131 1544.91 Q725.793 1542.16 730.376 1537.53 Q734.982 1532.88 736.163 1531.53 Q738.408 1529.01 739.288 1527.27 Q740.191 1525.51 740.191 1523.82 Q740.191 1521.07 738.246 1519.33 Q736.325 1517.6 733.223 1517.6 Q731.024 1517.6 728.57 1518.36 Q726.14 1519.13 723.362 1520.68 L723.362 1515.95 Q726.186 1514.82 728.64 1514.24 Q731.093 1513.66 733.13 1513.66 Q738.501 1513.66 741.695 1516.35 Q744.89 1519.03 744.89 1523.52 Q744.89 1525.65 744.079 1527.57 Q743.292 1529.47 741.186 1532.07 Q740.607 1532.74 737.505 1535.95 Q734.404 1539.15 728.755 1544.91 Z" fill="#000000" fill-rule="nonzero" fill-opacity="1" /><path clip-path="url(#clip920)" d="M754.89 1542.97 L759.774 1542.97 L759.774 1548.85 L754.89 1548.85 L754.89 1542.97 Z" fill="#000000" fill-rule="nonzero" fill-opacity="1" /><path clip-path="url(#clip920)" d="M770.005 1514.29 L788.362 1514.29 L788.362 1518.22 L774.288 1518.22 L774.288 1526.7 Q775.306 1526.35 776.325 1526.19 Q777.343 1526 778.362 1526 Q784.149 1526 787.528 1529.17 Q790.908 1532.34 790.908 1537.76 Q790.908 1543.34 787.436 1546.44 Q783.964 1549.52 777.644 1549.52 Q775.468 1549.52 773.2 1549.15 Q770.954 1548.78 768.547 1548.04 L768.547 1543.34 Q770.63 1544.47 772.852 1545.03 Q775.075 1545.58 777.552 1545.58 Q781.556 1545.58 783.894 1543.48 Q786.232 1541.37 786.232 1537.76 Q786.232 1534.15 783.894 1532.04 Q781.556 1529.94 777.552 1529.94 Q775.677 1529.94 773.802 1530.35 Q771.95 1530.77 770.005 1531.65 L770.005 1514.29 Z" fill="#000000" fill-rule="nonzero" fill-opacity="1" /><path clip-path="url(#clip920)" d="M1235.64 1514.29 L1253.99 1514.29 L1253.99 1518.22 L1239.92 1518.22 L1239.92 1526.7 Q1240.94 1526.35 1241.96 1526.19 Q1242.98 1526 1243.99 1526 Q1249.78 1526 1253.16 1529.17 Q1256.54 1532.34 1256.54 1537.76 Q1256.54 1543.34 1253.07 1546.44 Q1249.6 1549.52 1243.28 1549.52 Q1241.1 1549.52 1238.83 1549.15 Q1236.59 1548.78 1234.18 1548.04 L1234.18 1543.34 Q1236.26 1544.47 1238.49 1545.03 Q1240.71 1545.58 1243.18 1545.58 Q1247.19 1545.58 1249.53 1543.48 Q1251.86 1541.37 1251.86 1537.76 Q1251.86 1534.15 1249.53 1532.04 Q1247.19 1529.94 1243.18 1529.94 Q1241.31 1529.94 1239.43 1530.35 Q1237.58 1530.77 1235.64 1531.65 L1235.64 1514.29 Z" fill="#000000" fill-rule="nonzero" fill-opacity="1" /><path clip-path="url(#clip920)" d="M1265.75 1542.97 L1270.64 1542.97 L1270.64 1548.85 L1265.75 1548.85 L1265.75 1542.97 Z" fill="#000000" fill-rule="nonzero" fill-opacity="1" /><path clip-path="url(#clip920)" d="M1290.82 1517.37 Q1287.21 1517.37 1285.38 1520.93 Q1283.58 1524.47 1283.58 1531.6 Q1283.58 1538.71 1285.38 1542.27 Q1287.21 1545.82 1290.82 1545.82 Q1294.46 1545.82 1296.26 1542.27 Q1298.09 1538.71 1298.09 1531.6 Q1298.09 1524.47 1296.26 1520.93 Q1294.46 1517.37 1290.82 1517.37 M1290.82 1513.66 Q1296.63 1513.66 1299.69 1518.27 Q1302.77 1522.85 1302.77 1531.6 Q1302.77 1540.33 1299.69 1544.94 Q1296.63 1549.52 1290.82 1549.52 Q1285.01 1549.52 1281.93 1544.94 Q1278.88 1540.33 1278.88 1531.6 Q1278.88 1522.85 1281.93 1518.27 Q1285.01 1513.66 1290.82 1513.66 Z" fill="#000000" fill-rule="nonzero" fill-opacity="1" /><path clip-path="url(#clip920)" d="M1746.25 1514.29 L1768.47 1514.29 L1768.47 1516.28 L1755.92 1548.85 L1751.04 1548.85 L1762.84 1518.22 L1746.25 1518.22 L1746.25 1514.29 Z" fill="#000000" fill-rule="nonzero" fill-opacity="1" /><path clip-path="url(#clip920)" d="M1777.59 1542.97 L1782.47 1542.97 L1782.47 1548.85 L1777.59 1548.85 L1777.59 1542.97 Z" fill="#000000" fill-rule="nonzero" fill-opacity="1" /><path clip-path="url(#clip920)" d="M1792.71 1514.29 L1811.06 1514.29 L1811.06 1518.22 L1796.99 1518.22 L1796.99 1526.7 Q1798.01 1526.35 1799.02 1526.19 Q1800.04 1526 1801.06 1526 Q1806.85 1526 1810.23 1529.17 Q1813.61 1532.34 1813.61 1537.76 Q1813.61 1543.34 1810.14 1546.44 Q1806.66 1549.52 1800.34 1549.52 Q1798.17 1549.52 1795.9 1549.15 Q1793.65 1548.78 1791.25 1548.04 L1791.25 1543.34 Q1793.33 1544.47 1795.55 1545.03 Q1797.77 1545.58 1800.25 1545.58 Q1804.26 1545.58 1806.59 1543.48 Q1808.93 1541.37 1808.93 1537.76 Q1808.93 1534.15 1806.59 1532.04 Q1804.26 1529.94 1800.25 1529.94 Q1798.38 1529.94 1796.5 1530.35 Q1794.65 1530.77 1792.71 1531.65 L1792.71 1514.29 Z" fill="#000000" fill-rule="nonzero" fill-opacity="1" /><path clip-path="url(#clip920)" d="M2243.45 1544.91 L2251.09 1544.91 L2251.09 1518.55 L2242.78 1520.21 L2242.78 1515.95 L2251.05 1514.29 L2255.72 1514.29 L2255.72 1544.91 L2263.36 1544.91 L2263.36 1548.85 L2243.45 1548.85 L2243.45 1544.91 Z" fill="#000000" fill-rule="nonzero" fill-opacity="1" /><path clip-path="url(#clip920)" d="M2282.81 1517.37 Q2279.19 1517.37 2277.37 1520.93 Q2275.56 1524.47 2275.56 1531.6 Q2275.56 1538.71 2277.37 1542.27 Q2279.19 1545.82 2282.81 1545.82 Q2286.44 1545.82 2288.24 1542.27 Q2290.07 1538.71 2290.07 1531.6 Q2290.07 1524.47 2288.24 1520.93 Q2286.44 1517.37 2282.81 1517.37 M2282.81 1513.66 Q2288.62 1513.66 2291.67 1518.27 Q2294.75 1522.85 2294.75 1531.6 Q2294.75 1540.33 2291.67 1544.94 Q2288.62 1549.52 2282.81 1549.52 Q2276.99 1549.52 2273.92 1544.94 Q2270.86 1540.33 2270.86 1531.6 Q2270.86 1522.85 2273.92 1518.27 Q2276.99 1513.66 2282.81 1513.66 Z" fill="#000000" fill-rule="nonzero" fill-opacity="1" /><path clip-path="url(#clip920)" d="M2302.97 1542.97 L2307.85 1542.97 L2307.85 1548.85 L2302.97 1548.85 L2302.97 1542.97 Z" fill="#000000" fill-rule="nonzero" fill-opacity="1" /><path clip-path="url(#clip920)" d="M2328.04 1517.37 Q2324.43 1517.37 2322.6 1520.93 Q2320.79 1524.47 2320.79 1531.6 Q2320.79 1538.71 2322.6 1542.27 Q2324.43 1545.82 2328.04 1545.82 Q2331.67 1545.82 2333.48 1542.27 Q2335.3 1538.71 2335.3 1531.6 Q2335.3 1524.47 2333.48 1520.93 Q2331.67 1517.37 2328.04 1517.37 M2328.04 1513.66 Q2333.85 1513.66 2336.9 1518.27 Q2339.98 1522.85 2339.98 1531.6 Q2339.98 1540.33 2336.9 1544.94 Q2333.85 1549.52 2328.04 1549.52 Q2322.23 1549.52 2319.15 1544.94 Q2316.09 1540.33 2316.09 1531.6 Q2316.09 1522.85 2319.15 1518.27 Q2322.23 1513.66 2328.04 1513.66 Z" fill="#000000" fill-rule="nonzero" fill-opacity="1" /><polyline clip-path="url(#clip920)" style="stroke:#000000; stroke-linecap:round; stroke-linejoin:round; stroke-width:4; stroke-opacity:1; fill:none" points="184.191,1486.45 184.191,47.2441 "/>
<polyline clip-path="url(#clip920)" style="stroke:#000000; stroke-linecap:round; stroke-linejoin:round; stroke-width:4; stroke-opacity:1; fill:none" points="184.191,1451.1 203.088,1451.1 "/>
<polyline clip-path="url(#clip920)" style="stroke:#000000; stroke-linecap:round; stroke-linejoin:round; stroke-width:4; stroke-opacity:1; fill:none" points="184.191,1148.37 203.088,1148.37 "/>
<polyline clip-path="url(#clip920)" style="stroke:#000000; stroke-linecap:round; stroke-linejoin:round; stroke-width:4; stroke-opacity:1; fill:none" points="184.191,845.642 203.088,845.642 "/>
<polyline clip-path="url(#clip920)" style="stroke:#000000; stroke-linecap:round; stroke-linejoin:round; stroke-width:4; stroke-opacity:1; fill:none" points="184.191,542.912 203.088,542.912 "/>
<polyline clip-path="url(#clip920)" style="stroke:#000000; stroke-linecap:round; stroke-linejoin:round; stroke-width:4; stroke-opacity:1; fill:none" points="184.191,240.181 203.088,240.181 "/>
<path clip-path="url(#clip920)" d="M91.0151 1436.9 Q87.404 1436.9 85.5753 1440.47 Q83.7697 1444.01 83.7697 1451.14 Q83.7697 1458.24 85.5753 1461.81 Q87.404 1465.35 91.0151 1465.35 Q94.6493 1465.35 96.4548 1461.81 Q98.2835 1458.24 98.2835 1451.14 Q98.2835 1444.01 96.4548 1440.47 Q94.6493 1436.9 91.0151 1436.9 M91.0151 1433.2 Q96.8252 1433.2 99.8808 1437.8 Q102.959 1442.39 102.959 1451.14 Q102.959 1459.86 99.8808 1464.47 Q96.8252 1469.05 91.0151 1469.05 Q85.2049 1469.05 82.1262 1464.47 Q79.0707 1459.86 79.0707 1451.14 Q79.0707 1442.39 82.1262 1437.8 Q85.2049 1433.2 91.0151 1433.2 Z" fill="#000000" fill-rule="nonzero" fill-opacity="1" /><path clip-path="url(#clip920)" d="M111.177 1462.5 L116.061 1462.5 L116.061 1468.38 L111.177 1468.38 L111.177 1462.5 Z" fill="#000000" fill-rule="nonzero" fill-opacity="1" /><path clip-path="url(#clip920)" d="M136.246 1436.9 Q132.635 1436.9 130.807 1440.47 Q129.001 1444.01 129.001 1451.14 Q129.001 1458.24 130.807 1461.81 Q132.635 1465.35 136.246 1465.35 Q139.881 1465.35 141.686 1461.81 Q143.515 1458.24 143.515 1451.14 Q143.515 1444.01 141.686 1440.47 Q139.881 1436.9 136.246 1436.9 M136.246 1433.2 Q142.056 1433.2 145.112 1437.8 Q148.191 1442.39 148.191 1451.14 Q148.191 1459.86 145.112 1464.47 Q142.056 1469.05 136.246 1469.05 Q130.436 1469.05 127.357 1464.47 Q124.302 1459.86 124.302 1451.14 Q124.302 1442.39 127.357 1437.8 Q130.436 1433.2 136.246 1433.2 Z" fill="#000000" fill-rule="nonzero" fill-opacity="1" /><path clip-path="url(#clip920)" d="M86.0382 1161.72 L102.358 1161.72 L102.358 1165.65 L80.4133 1165.65 L80.4133 1161.72 Q83.0753 1158.96 87.6586 1154.33 Q92.2651 1149.68 93.4456 1148.34 Q95.691 1145.81 96.5706 1144.08 Q97.4734 1142.32 97.4734 1140.63 Q97.4734 1137.87 95.5289 1136.14 Q93.6076 1134.4 90.5058 1134.4 Q88.3067 1134.4 85.8531 1135.17 Q83.4225 1135.93 80.6447 1137.48 L80.6447 1132.76 Q83.4688 1131.62 85.9225 1131.05 Q88.3762 1130.47 90.4132 1130.47 Q95.7836 1130.47 98.978 1133.15 Q102.172 1135.84 102.172 1140.33 Q102.172 1142.46 101.362 1144.38 Q100.575 1146.28 98.4687 1148.87 Q97.89 1149.54 94.7882 1152.76 Q91.6864 1155.95 86.0382 1161.72 Z" fill="#000000" fill-rule="nonzero" fill-opacity="1" /><path clip-path="url(#clip920)" d="M112.172 1159.77 L117.057 1159.77 L117.057 1165.65 L112.172 1165.65 L112.172 1159.77 Z" fill="#000000" fill-rule="nonzero" fill-opacity="1" /><path clip-path="url(#clip920)" d="M127.288 1131.09 L145.644 1131.09 L145.644 1135.03 L131.57 1135.03 L131.57 1143.5 Q132.589 1143.15 133.607 1142.99 Q134.626 1142.81 135.644 1142.81 Q141.431 1142.81 144.811 1145.98 Q148.191 1149.15 148.191 1154.56 Q148.191 1160.14 144.718 1163.25 Q141.246 1166.32 134.927 1166.32 Q132.751 1166.32 130.482 1165.95 Q128.237 1165.58 125.83 1164.84 L125.83 1160.14 Q127.913 1161.28 130.135 1161.83 Q132.357 1162.39 134.834 1162.39 Q138.839 1162.39 141.177 1160.28 Q143.515 1158.18 143.515 1154.56 Q143.515 1150.95 141.177 1148.85 Q138.839 1146.74 134.834 1146.74 Q132.959 1146.74 131.084 1147.16 Q129.232 1147.57 127.288 1148.45 L127.288 1131.09 Z" fill="#000000" fill-rule="nonzero" fill-opacity="1" /><path clip-path="url(#clip920)" d="M81.0614 828.362 L99.4178 828.362 L99.4178 832.297 L85.3438 832.297 L85.3438 840.769 Q86.3623 840.422 87.3808 840.26 Q88.3993 840.075 89.4178 840.075 Q95.2049 840.075 98.5845 843.246 Q101.964 846.418 101.964 851.834 Q101.964 857.413 98.4919 860.515 Q95.0197 863.593 88.7003 863.593 Q86.5243 863.593 84.2558 863.223 Q82.0105 862.853 79.6031 862.112 L79.6031 857.413 Q81.6864 858.547 83.9086 859.103 Q86.1308 859.658 88.6077 859.658 Q92.6123 859.658 94.9502 857.552 Q97.2882 855.445 97.2882 851.834 Q97.2882 848.223 94.9502 846.117 Q92.6123 844.01 88.6077 844.01 Q86.7327 844.01 84.8577 844.427 Q83.0058 844.843 81.0614 845.723 L81.0614 828.362 Z" fill="#000000" fill-rule="nonzero" fill-opacity="1" /><path clip-path="url(#clip920)" d="M111.177 857.042 L116.061 857.042 L116.061 862.922 L111.177 862.922 L111.177 857.042 Z" fill="#000000" fill-rule="nonzero" fill-opacity="1" /><path clip-path="url(#clip920)" d="M136.246 831.441 Q132.635 831.441 130.807 835.006 Q129.001 838.547 129.001 845.677 Q129.001 852.783 130.807 856.348 Q132.635 859.89 136.246 859.89 Q139.881 859.89 141.686 856.348 Q143.515 852.783 143.515 845.677 Q143.515 838.547 141.686 835.006 Q139.881 831.441 136.246 831.441 M136.246 827.737 Q142.056 827.737 145.112 832.344 Q148.191 836.927 148.191 845.677 Q148.191 854.404 145.112 859.01 Q142.056 863.593 136.246 863.593 Q130.436 863.593 127.357 859.01 Q124.302 854.404 124.302 845.677 Q124.302 836.927 127.357 832.344 Q130.436 827.737 136.246 827.737 Z" fill="#000000" fill-rule="nonzero" fill-opacity="1" /><path clip-path="url(#clip920)" d="M80.8299 525.632 L103.052 525.632 L103.052 527.622 L90.5058 560.192 L85.6216 560.192 L97.4271 529.567 L80.8299 529.567 L80.8299 525.632 Z" fill="#000000" fill-rule="nonzero" fill-opacity="1" /><path clip-path="url(#clip920)" d="M112.172 554.312 L117.057 554.312 L117.057 560.192 L112.172 560.192 L112.172 554.312 Z" fill="#000000" fill-rule="nonzero" fill-opacity="1" /><path clip-path="url(#clip920)" d="M127.288 525.632 L145.644 525.632 L145.644 529.567 L131.57 529.567 L131.57 538.039 Q132.589 537.692 133.607 537.53 Q134.626 537.345 135.644 537.345 Q141.431 537.345 144.811 540.516 Q148.191 543.687 148.191 549.104 Q148.191 554.682 144.718 557.784 Q141.246 560.863 134.927 560.863 Q132.751 560.863 130.482 560.493 Q128.237 560.122 125.83 559.381 L125.83 554.682 Q127.913 555.817 130.135 556.372 Q132.357 556.928 134.834 556.928 Q138.839 556.928 141.177 554.821 Q143.515 552.715 143.515 549.104 Q143.515 545.493 141.177 543.386 Q138.839 541.28 134.834 541.28 Q132.959 541.28 131.084 541.696 Q129.232 542.113 127.288 542.993 L127.288 525.632 Z" fill="#000000" fill-rule="nonzero" fill-opacity="1" /><path clip-path="url(#clip920)" d="M51.6634 253.526 L59.3023 253.526 L59.3023 227.16 L50.9921 228.827 L50.9921 224.568 L59.256 222.901 L63.9319 222.901 L63.9319 253.526 L71.5707 253.526 L71.5707 257.461 L51.6634 257.461 L51.6634 253.526 Z" fill="#000000" fill-rule="nonzero" fill-opacity="1" /><path clip-path="url(#clip920)" d="M91.0151 225.98 Q87.404 225.98 85.5753 229.545 Q83.7697 233.086 83.7697 240.216 Q83.7697 247.322 85.5753 250.887 Q87.404 254.429 91.0151 254.429 Q94.6493 254.429 96.4548 250.887 Q98.2835 247.322 98.2835 240.216 Q98.2835 233.086 96.4548 229.545 Q94.6493 225.98 91.0151 225.98 M91.0151 222.276 Q96.8252 222.276 99.8808 226.883 Q102.959 231.466 102.959 240.216 Q102.959 248.943 99.8808 253.549 Q96.8252 258.133 91.0151 258.133 Q85.2049 258.133 82.1262 253.549 Q79.0707 248.943 79.0707 240.216 Q79.0707 231.466 82.1262 226.883 Q85.2049 222.276 91.0151 222.276 Z" fill="#000000" fill-rule="nonzero" fill-opacity="1" /><path clip-path="url(#clip920)" d="M111.177 251.582 L116.061 251.582 L116.061 257.461 L111.177 257.461 L111.177 251.582 Z" fill="#000000" fill-rule="nonzero" fill-opacity="1" /><path clip-path="url(#clip920)" d="M136.246 225.98 Q132.635 225.98 130.807 229.545 Q129.001 233.086 129.001 240.216 Q129.001 247.322 130.807 250.887 Q132.635 254.429 136.246 254.429 Q139.881 254.429 141.686 250.887 Q143.515 247.322 143.515 240.216 Q143.515 233.086 141.686 229.545 Q139.881 225.98 136.246 225.98 M136.246 222.276 Q142.056 222.276 145.112 226.883 Q148.191 231.466 148.191 240.216 Q148.191 248.943 145.112 253.549 Q142.056 258.133 136.246 258.133 Q130.436 258.133 127.357 253.549 Q124.302 248.943 124.302 240.216 Q124.302 231.466 127.357 226.883 Q130.436 222.276 136.246 222.276 Z" fill="#000000" fill-rule="nonzero" fill-opacity="1" /><path clip-path="url(#clip921)" d="M245.565 1330.01 L266.023 1331.93 L286.481 1328.2 L306.94 1310.16 L327.398 1297.88 L347.856 1281.57 L368.314 1261.44 L388.772 1229.58 L409.23 1203.62 L429.689 1177.58 L450.147 1143.73 L470.605 1103.62 L491.063 1074.83 L511.521 1040.19 L531.979 958.193 L552.438 913.489 L572.896 870.658 L593.354 784.992 L613.812 750.419 L634.27 785.244 L654.728 835.537 L675.187 993.013 L695.645 1143.35 L716.103 1225.21 L736.561 1277.71 L757.019 1313.66 L777.477 1341.81 L797.936 1352.95 L818.394 1364.67 L838.852 1372.15 L859.31 1378.75 L879.768 1383.37 L900.226 1378.84 L920.685 1371.22 L941.143 1371.04 L961.601 1371.99 L982.059 1364.34 L1002.52 1359.14 L1022.98 1348.79 L1043.43 1330.52 L1063.89 1315.96 L1084.35 1294.44 L1104.81 1274.32 L1125.27 1248.99 L1145.72 1225 L1166.18 1188.56 L1186.64 1140.34 L1207.1 1105.8 L1227.56 1064.72 L1248.02 967.933 L1268.47 863.94 L1288.93 787.282 L1309.39 834.104 L1329.85 951.73 L1350.31 1096.58 L1370.76 1232.07 L1391.22 1299.76 L1411.68 1346.03 L1432.14 1361.83 L1452.6 1370.95 L1473.05 1377.03 L1493.51 1383.94 L1513.97 1384.57 L1534.43 1384.35 L1554.89 1387.99 L1575.35 1392.55 L1595.8 1397.67 L1616.26 1400.99 L1636.72 1400.53 L1657.18 1400.01 L1677.64 1396.53 L1698.09 1392.53 L1718.55 1389.25 L1739.01 1381.9 L1759.47 1374.27 L1779.93 1359.89 L1800.39 1347.56 L1820.84 1336.88 L1841.3 1329.35 L1861.76 1310.02 L1882.22 1297.01 L1902.68 1265.44 L1923.13 1234.27 L1943.59 1195.82 L1964.05 1149.76 L1984.51 1100.5 L2004.97 1054.55 L2025.43 1038.2 L2045.88 1146.17 L2066.34 1241.58 L2086.8 1305.24 L2107.26 1349.84 L2127.72 1390.18 L2148.17 1398.95 L2168.63 1396.83 L2189.09 1399.47 L2209.55 1399.39 L2230.01 1406.02 L2250.47 1409.73 L2270.92 1412.06 L2291.38 1413.77 L2291.38 1013.65 L2270.92 686.388 L2250.47 415.908 L2230.01 397.197 L2209.55 417.456 L2189.09 307.361 L2168.63 257.428 L2148.17 345.562 L2127.72 461.985 L2107.26 498.378 L2086.8 502.052 L2066.34 527.184 L2045.88 348.222 L2025.43 87.9763 L2004.97 164.066 L1984.51 189.334 L1964.05 386.799 L1943.59 525.866 L1923.13 630.52 L1902.68 711.79 L1882.22 798.75 L1861.76 828.497 L1841.3 893.268 L1820.84 884.79 L1800.39 980.69 L1779.93 1054.02 L1759.47 1100.01 L1739.01 1161.64 L1718.55 1183.53 L1698.09 1217.54 L1677.64 1243.87 L1657.18 1258.8 L1636.72 1272.29 L1616.26 1277.69 L1595.8 1287.29 L1575.35 1289.25 L1554.89 1299.07 L1534.43 1310.49 L1513.97 1312.66 L1493.51 1276.43 L1473.05 1191.8 L1452.6 1047.64 L1432.14 790.335 L1411.68 530.003 L1391.22 351.366 L1370.76 333.261 L1350.31 359.455 L1329.85 451.766 L1309.39 405.433 L1288.93 274.33 L1268.47 271.813 L1248.02 409.131 L1227.56 619.71 L1207.1 747.102 L1186.64 801.916 L1166.18 828.61 L1145.72 908.507 L1125.27 979.251 L1104.81 1033.5 L1084.35 1091.2 L1063.89 1160.3 L1043.43 1201.43 L1022.98 1222.54 L1002.52 1238.38 L982.059 1252.34 L961.601 1244.32 L941.143 1266.3 L920.685 1290.64 L900.226 1315.76 L879.768 1315.75 L859.31 1305.26 L838.852 1298.32 L818.394 1276.92 L797.936 1231.55 L777.477 1109.41 L757.019 945.743 L736.561 764.217 L716.103 644.703 L695.645 646.823 L675.187 595.89 L654.728 417.728 L634.27 518.225 L613.812 563.258 L593.354 556.883 L572.896 623.942 L552.438 741.427 L531.979 845.59 L511.521 865.47 L491.063 945.562 L470.605 1003.18 L450.147 1025.76 L429.689 1039.26 L409.23 1092.49 L388.772 1144.43 L368.314 1189.49 L347.856 1228.7 L327.398 1254.72 L306.94 1281.58 L286.481 1291.07 L266.023 1305.18 L245.565 1330.01  Z" fill="#009af9" fill-rule="evenodd" fill-opacity="0.5"/>
<polyline clip-path="url(#clip921)" style="stroke:#009af9; stroke-linecap:round; stroke-linejoin:round; stroke-width:12; stroke-opacity:1; fill:none" points="245.565,1330.01 266.023,1321.26 286.481,1309.41 306.94,1301.05 327.398,1283.97 347.856,1262.41 368.314,1237.91 388.772,1209.75 409.23,1181.74 429.689,1129.97 450.147,1095.76 470.605,1050.05 491.063,1000.1 511.521,950.948 531.979,883.996 552.438,801.31 572.896,737.406 593.354,684.57 613.812,652.867 634.27,665.359 654.728,680.831 675.187,760.221 695.645,896.725 716.103,1045.07 736.561,1135.4 757.019,1219.89 777.477,1267 797.936,1300.5 818.394,1317.41 838.852,1333.63 859.31,1332.57 879.768,1337.31 900.226,1331.66 920.685,1337.62 941.143,1332.65 961.601,1331.31 982.059,1316.93 1002.52,1302.3 1022.98,1276.38 1043.43,1241.36 1063.89,1216.06 1084.35,1172.6 1104.81,1158.2 1125.27,1113.58 1145.72,1064.39 1166.18,1019.81 1186.64,951.723 1207.1,882.155 1227.56,804.999 1248.02,736.237 1268.47,715.013 1288.93,670.21 1309.39,625.644 1329.85,684.921 1350.31,815.355 1370.76,898.956 1391.22,1045.13 1411.68,1168.97 1432.14,1237.46 1452.6,1279.97 1473.05,1304.35 1493.51,1329.68 1513.97,1342.84 1534.43,1360.82 1554.89,1367.36 1575.35,1363.91 1595.8,1360.95 1616.26,1359.18 1636.72,1354.85 1657.18,1340.2 1677.64,1320.16 1698.09,1298.11 1718.55,1283.79 1739.01,1261.48 1759.47,1232.82 1779.93,1202.63 1800.39,1183.28 1820.84,1138.7 1841.3,1106.09 1861.76,1058.99 1882.22,979.297 1902.68,923.889 1923.13,839.093 1943.59,734.918 1964.05,688.296 1984.51,678.003 2004.97,761.376 2025.43,864.716 2045.88,914.059 2066.34,958.038 2086.8,1023.79 2107.26,1027.23 2127.72,1121.54 2148.17,1221.42 2168.63,1286.88 2189.09,1326.56 2209.55,1348.39 2230.01,1348.18 2250.47,1335.36 2270.92,1342.85 2291.38,1334.56 "/>
<path clip-path="url(#clip921)" d="M245.565 1330.01 L266.023 1356.73 L286.481 1373.56 L306.94 1387.76 L327.398 1397.85 L347.856 1407 L368.314 1413.68 L388.772 1416.66 L409.23 1419.86 L429.689 1420.8 L450.147 1420.6 L470.605 1420.76 L491.063 1420.26 L511.521 1419.51 L531.979 1416.82 L552.438 1412.19 L572.896 1402.32 L593.354 1390.56 L613.812 1373.43 L634.27 1346.72 L654.728 1316 L675.187 1267.08 L695.645 1204.25 L716.103 1078.26 L736.561 1019.82 L757.019 1066.8 L777.477 1131.47 L797.936 1192.03 L818.394 1235.79 L838.852 1284.33 L859.31 1318.85 L879.768 1350.4 L900.226 1373.45 L920.685 1387.84 L941.143 1399.88 L961.601 1408.15 L982.059 1412.83 L1002.52 1418.01 L1022.98 1423.09 L1043.43 1427.89 L1063.89 1430.43 L1084.35 1433.35 L1104.81 1435.12 L1125.27 1436.21 L1145.72 1436.46 L1166.18 1435.7 L1186.64 1435.54 L1207.1 1436.39 L1227.56 1437.45 L1248.02 1435.7 L1268.47 1432.8 L1288.93 1428.37 L1309.39 1419.06 L1329.85 1403.27 L1350.31 1374.17 L1370.76 1304.87 L1391.22 1177.83 L1411.68 1087.44 L1432.14 1120.89 L1452.6 1171.68 L1473.05 1210.76 L1493.51 1252.65 L1513.97 1288.24 L1534.43 1321.3 L1554.89 1345.14 L1575.35 1364.94 L1595.8 1382.66 L1616.26 1395.45 L1636.72 1406.12 L1657.18 1415.36 L1677.64 1422.06 L1698.09 1426.69 L1718.55 1430.22 L1739.01 1432.74 L1759.47 1434.62 L1779.93 1435.82 L1800.39 1438.71 L1820.84 1440.14 L1841.3 1441.02 L1861.76 1442.01 L1882.22 1442.18 L1902.68 1442.38 L1923.13 1443.59 L1943.59 1444.39 L1964.05 1445.07 L1984.51 1445.72 L2004.97 1445.57 L2025.43 1445.01 L2045.88 1444.27 L2066.34 1443.04 L2086.8 1440.48 L2107.26 1433.87 L2127.72 1420.6 L2148.17 1390.59 L2168.63 1347.48 L2189.09 1351.57 L2209.55 1348.33 L2230.01 1328.9 L2250.47 1350.79 L2270.92 1369.33 L2291.38 1384.1 L2291.38 594.793 L2270.92 669.933 L2250.47 734.16 L2230.01 646.533 L2209.55 684.133 L2189.09 857.367 L2168.63 834.175 L2148.17 774.088 L2127.72 684.549 L2107.26 611.405 L2086.8 504.32 L2066.34 434.648 L2045.88 625.496 L2025.43 751.429 L2004.97 884.773 L1984.51 1064.83 L1964.05 1203.3 L1943.59 1291.17 L1923.13 1343.91 L1902.68 1374.71 L1882.22 1392.26 L1861.76 1404.91 L1841.3 1412.7 L1820.84 1417.2 L1800.39 1418.95 L1779.93 1416.29 L1759.47 1412.11 L1739.01 1403.42 L1718.55 1390.75 L1698.09 1373.37 L1677.64 1338.31 L1657.18 1318.62 L1636.72 1287.42 L1616.26 1243.76 L1595.8 1211.25 L1575.35 1141.28 L1554.89 1075.04 L1534.43 991.201 L1513.97 848.552 L1493.51 717.035 L1473.05 672.88 L1452.6 684.551 L1432.14 751.002 L1411.68 827.745 L1391.22 766.361 L1370.76 714.255 L1350.31 675.273 L1329.85 721.146 L1309.39 917.173 L1288.93 1147.5 L1268.47 1252.16 L1248.02 1315.1 L1227.56 1350.79 L1207.1 1373.08 L1186.64 1392.28 L1166.18 1402.84 L1145.72 1407.48 L1125.27 1408.82 L1104.81 1407.62 L1084.35 1404.65 L1063.89 1399.15 L1043.43 1393.36 L1022.98 1385.5 L1002.52 1369.9 L982.059 1346.43 L961.601 1324.43 L941.143 1300.24 L920.685 1273.8 L900.226 1235.78 L879.768 1177.34 L859.31 1089.52 L838.852 1008.12 L818.394 904.083 L797.936 811.043 L777.477 779.077 L757.019 752.06 L736.561 783.744 L716.103 768.454 L695.645 787.401 L675.187 839.844 L654.728 912.409 L634.27 1049.56 L613.812 1145.82 L593.354 1240.58 L572.896 1305.39 L552.438 1348.07 L531.979 1371.28 L511.521 1383.56 L491.063 1390.42 L470.605 1394.84 L450.147 1400.02 L429.689 1402.17 L409.23 1402.14 L388.772 1400.26 L368.314 1397.68 L347.856 1393.6 L327.398 1384.75 L306.94 1374.97 L286.481 1359.02 L266.023 1343.32 L245.565 1330.01  Z" fill="#e26f46" fill-rule="evenodd" fill-opacity="0.5"/>
<polyline clip-path="url(#clip921)" style="stroke:#e26f46; stroke-linecap:round; stroke-linejoin:round; stroke-width:12; stroke-opacity:1; fill:none" points="245.565,1330.01 266.023,1352.52 286.481,1370.75 306.94,1384.64 327.398,1395.11 347.856,1402 368.314,1407.91 388.772,1412.73 409.23,1416.02 429.689,1417.89 450.147,1418.49 470.605,1416.59 491.063,1414.87 511.521,1409.79 531.979,1405.69 552.438,1396.65 572.896,1376.55 593.354,1351.88 613.812,1316.03 634.27,1254.88 654.728,1162.49 675.187,1046.22 695.645,959.875 716.103,921.28 736.561,922.928 757.019,957.498 777.477,1004.78 797.936,1077.54 818.394,1140.61 838.852,1187.89 859.31,1232.52 879.768,1267.19 900.226,1307.62 920.685,1335.68 941.143,1349.06 961.601,1369.92 982.059,1384.84 1002.52,1395.02 1022.98,1404.5 1043.43,1410.59 1063.89,1415.49 1084.35,1419.23 1104.81,1422.78 1125.27,1424.95 1145.72,1425.53 1166.18,1424.44 1186.64,1422.33 1207.1,1417.99 1227.56,1408.64 1248.02,1387.07 1268.47,1358.7 1288.93,1311.01 1309.39,1245.51 1329.85,1161.01 1350.31,1056.61 1370.76,1012.27 1391.22,948.36 1411.68,970.247 1432.14,962.755 1452.6,1018.93 1473.05,1091.14 1493.51,1153.29 1513.97,1206.45 1534.43,1261.27 1554.89,1303.55 1575.35,1333.48 1595.8,1353.35 1616.26,1367.2 1636.72,1381.34 1657.18,1392.54 1677.64,1401.76 1698.09,1409.44 1718.55,1416.46 1739.01,1420.1 1759.47,1424.21 1779.93,1427.62 1800.39,1427.3 1820.84,1428.44 1841.3,1427.8 1861.76,1427.79 1882.22,1426.88 1902.68,1423.52 1923.13,1421.56 1943.59,1417.87 1964.05,1414.11 1984.51,1404.3 2004.97,1360.9 2025.43,1238.11 2045.88,1100.16 2066.34,1033.84 2086.8,990.137 2107.26,991.299 2127.72,1068.49 2148.17,1086.62 2168.63,1154.33 2189.09,1164.85 2209.55,1200.4 2230.01,1255.44 2250.47,1216.36 2270.92,1263.23 2291.38,1301.86 "/>
</svg>
