<?xml version="1.0" encoding="utf-8"?>
<svg xmlns="http://www.w3.org/2000/svg" xmlns:xlink="http://www.w3.org/1999/xlink" width="600" height="400" viewBox="0 0 2400 1600">
<defs>
  <clipPath id="clip230">
    <rect x="0" y="0" width="2400" height="1600"/>
  </clipPath>
</defs>
<path clip-path="url(#clip230)" d="M0 1600 L2400 1600 L2400 0 L0 0  Z" fill="#ffffff" fill-rule="evenodd" fill-opacity="1"/>
<defs>
  <clipPath id="clip231">
    <rect x="155" y="47" width="2198" height="1440"/>
  </clipPath>
</defs>
<path clip-path="url(#clip230)" d="M155.765 1486.45 L2352.76 1486.45 L2352.76 47.2441 L155.765 47.2441  Z" fill="#ffffff" fill-rule="evenodd" fill-opacity="1"/>
<polyline clip-path="url(#clip231)" style="stroke:#000000; stroke-linecap:round; stroke-linejoin:round; stroke-width:2; stroke-opacity:0.1; fill:none" points="217.944,1486.45 217.944,47.2441 "/>
<polyline clip-path="url(#clip231)" style="stroke:#000000; stroke-linecap:round; stroke-linejoin:round; stroke-width:2; stroke-opacity:0.1; fill:none" points="736.102,1486.45 736.102,47.2441 "/>
<polyline clip-path="url(#clip231)" style="stroke:#000000; stroke-linecap:round; stroke-linejoin:round; stroke-width:2; stroke-opacity:0.1; fill:none" points="1254.26,1486.45 1254.26,47.2441 "/>
<polyline clip-path="url(#clip231)" style="stroke:#000000; stroke-linecap:round; stroke-linejoin:round; stroke-width:2; stroke-opacity:0.1; fill:none" points="1772.42,1486.45 1772.42,47.2441 "/>
<polyline clip-path="url(#clip231)" style="stroke:#000000; stroke-linecap:round; stroke-linejoin:round; stroke-width:2; stroke-opacity:0.1; fill:none" points="2290.58,1486.45 2290.58,47.2441 "/>
<polyline clip-path="url(#clip231)" style="stroke:#000000; stroke-linecap:round; stroke-linejoin:round; stroke-width:2; stroke-opacity:0.1; fill:none" points="155.765,1326.35 2352.76,1326.35 "/>
<polyline clip-path="url(#clip231)" style="stroke:#000000; stroke-linecap:round; stroke-linejoin:round; stroke-width:2; stroke-opacity:0.1; fill:none" points="155.765,1078.63 2352.76,1078.63 "/>
<polyline clip-path="url(#clip231)" style="stroke:#000000; stroke-linecap:round; stroke-linejoin:round; stroke-width:2; stroke-opacity:0.1; fill:none" points="155.765,830.916 2352.76,830.916 "/>
<polyline clip-path="url(#clip231)" style="stroke:#000000; stroke-linecap:round; stroke-linejoin:round; stroke-width:2; stroke-opacity:0.1; fill:none" points="155.765,583.2 2352.76,583.2 "/>
<polyline clip-path="url(#clip231)" style="stroke:#000000; stroke-linecap:round; stroke-linejoin:round; stroke-width:2; stroke-opacity:0.1; fill:none" points="155.765,335.483 2352.76,335.483 "/>
<polyline clip-path="url(#clip231)" style="stroke:#000000; stroke-linecap:round; stroke-linejoin:round; stroke-width:2; stroke-opacity:0.1; fill:none" points="155.765,87.7666 2352.76,87.7666 "/>
<polyline clip-path="url(#clip230)" style="stroke:#000000; stroke-linecap:round; stroke-linejoin:round; stroke-width:4; stroke-opacity:1; fill:none" points="155.765,1486.45 2352.76,1486.45 "/>
<polyline clip-path="url(#clip230)" style="stroke:#000000; stroke-linecap:round; stroke-linejoin:round; stroke-width:4; stroke-opacity:1; fill:none" points="217.944,1486.45 217.944,1467.55 "/>
<polyline clip-path="url(#clip230)" style="stroke:#000000; stroke-linecap:round; stroke-linejoin:round; stroke-width:4; stroke-opacity:1; fill:none" points="736.102,1486.45 736.102,1467.55 "/>
<polyline clip-path="url(#clip230)" style="stroke:#000000; stroke-linecap:round; stroke-linejoin:round; stroke-width:4; stroke-opacity:1; fill:none" points="1254.26,1486.45 1254.26,1467.55 "/>
<polyline clip-path="url(#clip230)" style="stroke:#000000; stroke-linecap:round; stroke-linejoin:round; stroke-width:4; stroke-opacity:1; fill:none" points="1772.42,1486.45 1772.42,1467.55 "/>
<polyline clip-path="url(#clip230)" style="stroke:#000000; stroke-linecap:round; stroke-linejoin:round; stroke-width:4; stroke-opacity:1; fill:none" points="2290.58,1486.45 2290.58,1467.55 "/>
<path clip-path="url(#clip230)" d="M180.247 1517.37 Q176.636 1517.37 174.808 1520.93 Q173.002 1524.47 173.002 1531.6 Q173.002 1538.71 174.808 1542.27 Q176.636 1545.82 180.247 1545.82 Q183.882 1545.82 185.687 1542.27 Q187.516 1538.71 187.516 1531.6 Q187.516 1524.47 185.687 1520.93 Q183.882 1517.37 180.247 1517.37 M180.247 1513.66 Q186.057 1513.66 189.113 1518.27 Q192.192 1522.85 192.192 1531.6 Q192.192 1540.33 189.113 1544.94 Q186.057 1549.52 180.247 1549.52 Q174.437 1549.52 171.358 1544.94 Q168.303 1540.33 168.303 1531.6 Q168.303 1522.85 171.358 1518.27 Q174.437 1513.66 180.247 1513.66 Z" fill="#000000" fill-rule="nonzero" fill-opacity="1" /><path clip-path="url(#clip230)" d="M200.409 1542.97 L205.294 1542.97 L205.294 1548.85 L200.409 1548.85 L200.409 1542.97 Z" fill="#000000" fill-rule="nonzero" fill-opacity="1" /><path clip-path="url(#clip230)" d="M225.479 1517.37 Q221.867 1517.37 220.039 1520.93 Q218.233 1524.47 218.233 1531.6 Q218.233 1538.71 220.039 1542.27 Q221.867 1545.82 225.479 1545.82 Q229.113 1545.82 230.918 1542.27 Q232.747 1538.71 232.747 1531.6 Q232.747 1524.47 230.918 1520.93 Q229.113 1517.37 225.479 1517.37 M225.479 1513.66 Q231.289 1513.66 234.344 1518.27 Q237.423 1522.85 237.423 1531.6 Q237.423 1540.33 234.344 1544.94 Q231.289 1549.52 225.479 1549.52 Q219.668 1549.52 216.59 1544.94 Q213.534 1540.33 213.534 1531.6 Q213.534 1522.85 216.59 1518.27 Q219.668 1513.66 225.479 1513.66 Z" fill="#000000" fill-rule="nonzero" fill-opacity="1" /><path clip-path="url(#clip230)" d="M255.64 1517.37 Q252.029 1517.37 250.201 1520.93 Q248.395 1524.47 248.395 1531.6 Q248.395 1538.71 250.201 1542.27 Q252.029 1545.82 255.64 1545.82 Q259.275 1545.82 261.08 1542.27 Q262.909 1538.71 262.909 1531.6 Q262.909 1524.47 261.08 1520.93 Q259.275 1517.37 255.64 1517.37 M255.64 1513.66 Q261.451 1513.66 264.506 1518.27 Q267.585 1522.85 267.585 1531.6 Q267.585 1540.33 264.506 1544.94 Q261.451 1549.52 255.64 1549.52 Q249.83 1549.52 246.752 1544.94 Q243.696 1540.33 243.696 1531.6 Q243.696 1522.85 246.752 1518.27 Q249.83 1513.66 255.64 1513.66 Z" fill="#000000" fill-rule="nonzero" fill-opacity="1" /><path clip-path="url(#clip230)" d="M698.903 1517.37 Q695.292 1517.37 693.463 1520.93 Q691.658 1524.47 691.658 1531.6 Q691.658 1538.71 693.463 1542.27 Q695.292 1545.82 698.903 1545.82 Q702.538 1545.82 704.343 1542.27 Q706.172 1538.71 706.172 1531.6 Q706.172 1524.47 704.343 1520.93 Q702.538 1517.37 698.903 1517.37 M698.903 1513.66 Q704.713 1513.66 707.769 1518.27 Q710.848 1522.85 710.848 1531.6 Q710.848 1540.33 707.769 1544.94 Q704.713 1549.52 698.903 1549.52 Q693.093 1549.52 690.014 1544.94 Q686.959 1540.33 686.959 1531.6 Q686.959 1522.85 690.014 1518.27 Q693.093 1513.66 698.903 1513.66 Z" fill="#000000" fill-rule="nonzero" fill-opacity="1" /><path clip-path="url(#clip230)" d="M719.065 1542.97 L723.949 1542.97 L723.949 1548.85 L719.065 1548.85 L719.065 1542.97 Z" fill="#000000" fill-rule="nonzero" fill-opacity="1" /><path clip-path="url(#clip230)" d="M738.162 1544.91 L754.482 1544.91 L754.482 1548.85 L732.537 1548.85 L732.537 1544.91 Q735.199 1542.16 739.783 1537.53 Q744.389 1532.88 745.57 1531.53 Q747.815 1529.01 748.695 1527.27 Q749.597 1525.51 749.597 1523.82 Q749.597 1521.07 747.653 1519.33 Q745.732 1517.6 742.63 1517.6 Q740.431 1517.6 737.977 1518.36 Q735.547 1519.13 732.769 1520.68 L732.769 1515.95 Q735.593 1514.82 738.047 1514.24 Q740.5 1513.66 742.537 1513.66 Q747.908 1513.66 751.102 1516.35 Q754.296 1519.03 754.296 1523.52 Q754.296 1525.65 753.486 1527.57 Q752.699 1529.47 750.593 1532.07 Q750.014 1532.74 746.912 1535.95 Q743.81 1539.15 738.162 1544.91 Z" fill="#000000" fill-rule="nonzero" fill-opacity="1" /><path clip-path="url(#clip230)" d="M764.343 1514.29 L782.699 1514.29 L782.699 1518.22 L768.625 1518.22 L768.625 1526.7 Q769.644 1526.35 770.662 1526.19 Q771.681 1526 772.699 1526 Q778.486 1526 781.866 1529.17 Q785.245 1532.34 785.245 1537.76 Q785.245 1543.34 781.773 1546.44 Q778.301 1549.52 771.982 1549.52 Q769.806 1549.52 767.537 1549.15 Q765.292 1548.78 762.884 1548.04 L762.884 1543.34 Q764.968 1544.47 767.19 1545.03 Q769.412 1545.58 771.889 1545.58 Q775.894 1545.58 778.232 1543.48 Q780.57 1541.37 780.57 1537.76 Q780.57 1534.15 778.232 1532.04 Q775.894 1529.94 771.889 1529.94 Q770.014 1529.94 768.139 1530.35 Q766.287 1530.77 764.343 1531.65 L764.343 1514.29 Z" fill="#000000" fill-rule="nonzero" fill-opacity="1" /><path clip-path="url(#clip230)" d="M1216.56 1517.37 Q1212.95 1517.37 1211.12 1520.93 Q1209.32 1524.47 1209.32 1531.6 Q1209.32 1538.71 1211.12 1542.27 Q1212.95 1545.82 1216.56 1545.82 Q1220.2 1545.82 1222 1542.27 Q1223.83 1538.71 1223.83 1531.6 Q1223.83 1524.47 1222 1520.93 Q1220.2 1517.37 1216.56 1517.37 M1216.56 1513.66 Q1222.37 1513.66 1225.43 1518.27 Q1228.51 1522.85 1228.51 1531.6 Q1228.51 1540.33 1225.43 1544.94 Q1222.37 1549.52 1216.56 1549.52 Q1210.75 1549.52 1207.68 1544.94 Q1204.62 1540.33 1204.62 1531.6 Q1204.62 1522.85 1207.68 1518.27 Q1210.75 1513.66 1216.56 1513.66 Z" fill="#000000" fill-rule="nonzero" fill-opacity="1" /><path clip-path="url(#clip230)" d="M1236.73 1542.97 L1241.61 1542.97 L1241.61 1548.85 L1236.73 1548.85 L1236.73 1542.97 Z" fill="#000000" fill-rule="nonzero" fill-opacity="1" /><path clip-path="url(#clip230)" d="M1251.84 1514.29 L1270.2 1514.29 L1270.2 1518.22 L1256.12 1518.22 L1256.12 1526.7 Q1257.14 1526.35 1258.16 1526.19 Q1259.18 1526 1260.2 1526 Q1265.98 1526 1269.36 1529.17 Q1272.74 1532.34 1272.74 1537.76 Q1272.74 1543.34 1269.27 1546.44 Q1265.8 1549.52 1259.48 1549.52 Q1257.3 1549.52 1255.04 1549.15 Q1252.79 1548.78 1250.38 1548.04 L1250.38 1543.34 Q1252.47 1544.47 1254.69 1545.03 Q1256.91 1545.58 1259.39 1545.58 Q1263.39 1545.58 1265.73 1543.48 Q1268.07 1541.37 1268.07 1537.76 Q1268.07 1534.15 1265.73 1532.04 Q1263.39 1529.94 1259.39 1529.94 Q1257.51 1529.94 1255.64 1530.35 Q1253.79 1530.77 1251.84 1531.65 L1251.84 1514.29 Z" fill="#000000" fill-rule="nonzero" fill-opacity="1" /><path clip-path="url(#clip230)" d="M1291.96 1517.37 Q1288.35 1517.37 1286.52 1520.93 Q1284.71 1524.47 1284.71 1531.6 Q1284.71 1538.71 1286.52 1542.27 Q1288.35 1545.82 1291.96 1545.82 Q1295.59 1545.82 1297.4 1542.27 Q1299.23 1538.71 1299.23 1531.6 Q1299.23 1524.47 1297.4 1520.93 Q1295.59 1517.37 1291.96 1517.37 M1291.96 1513.66 Q1297.77 1513.66 1300.82 1518.27 Q1303.9 1522.85 1303.9 1531.6 Q1303.9 1540.33 1300.82 1544.94 Q1297.77 1549.52 1291.96 1549.52 Q1286.15 1549.52 1283.07 1544.94 Q1280.01 1540.33 1280.01 1531.6 Q1280.01 1522.85 1283.07 1518.27 Q1286.15 1513.66 1291.96 1513.66 Z" fill="#000000" fill-rule="nonzero" fill-opacity="1" /><path clip-path="url(#clip230)" d="M1735.22 1517.37 Q1731.61 1517.37 1729.78 1520.93 Q1727.97 1524.47 1727.97 1531.6 Q1727.97 1538.71 1729.78 1542.27 Q1731.61 1545.82 1735.22 1545.82 Q1738.85 1545.82 1740.66 1542.27 Q1742.49 1538.71 1742.49 1531.6 Q1742.49 1524.47 1740.66 1520.93 Q1738.85 1517.37 1735.22 1517.37 M1735.22 1513.66 Q1741.03 1513.66 1744.09 1518.27 Q1747.16 1522.85 1747.16 1531.6 Q1747.16 1540.33 1744.09 1544.94 Q1741.03 1549.52 1735.22 1549.52 Q1729.41 1549.52 1726.33 1544.94 Q1723.28 1540.33 1723.28 1531.6 Q1723.28 1522.85 1726.33 1518.27 Q1729.41 1513.66 1735.22 1513.66 Z" fill="#000000" fill-rule="nonzero" fill-opacity="1" /><path clip-path="url(#clip230)" d="M1755.38 1542.97 L1760.27 1542.97 L1760.27 1548.85 L1755.38 1548.85 L1755.38 1542.97 Z" fill="#000000" fill-rule="nonzero" fill-opacity="1" /><path clip-path="url(#clip230)" d="M1769.27 1514.29 L1791.49 1514.29 L1791.49 1516.28 L1778.95 1548.85 L1774.06 1548.85 L1785.87 1518.22 L1769.27 1518.22 L1769.27 1514.29 Z" fill="#000000" fill-rule="nonzero" fill-opacity="1" /><path clip-path="url(#clip230)" d="M1800.66 1514.29 L1819.02 1514.29 L1819.02 1518.22 L1804.94 1518.22 L1804.94 1526.7 Q1805.96 1526.35 1806.98 1526.19 Q1808 1526 1809.02 1526 Q1814.8 1526 1818.18 1529.17 Q1821.56 1532.34 1821.56 1537.76 Q1821.56 1543.34 1818.09 1546.44 Q1814.62 1549.52 1808.3 1549.52 Q1806.12 1549.52 1803.85 1549.15 Q1801.61 1548.78 1799.2 1548.04 L1799.2 1543.34 Q1801.28 1544.47 1803.51 1545.03 Q1805.73 1545.58 1808.21 1545.58 Q1812.21 1545.58 1814.55 1543.48 Q1816.89 1541.37 1816.89 1537.76 Q1816.89 1534.15 1814.55 1532.04 Q1812.21 1529.94 1808.21 1529.94 Q1806.33 1529.94 1804.46 1530.35 Q1802.6 1530.77 1800.66 1531.65 L1800.66 1514.29 Z" fill="#000000" fill-rule="nonzero" fill-opacity="1" /><path clip-path="url(#clip230)" d="M2242.65 1544.91 L2250.29 1544.91 L2250.29 1518.55 L2241.98 1520.21 L2241.98 1515.95 L2250.24 1514.29 L2254.92 1514.29 L2254.92 1544.91 L2262.56 1544.91 L2262.56 1548.85 L2242.65 1548.85 L2242.65 1544.91 Z" fill="#000000" fill-rule="nonzero" fill-opacity="1" /><path clip-path="url(#clip230)" d="M2272 1542.97 L2276.88 1542.97 L2276.88 1548.85 L2272 1548.85 L2272 1542.97 Z" fill="#000000" fill-rule="nonzero" fill-opacity="1" /><path clip-path="url(#clip230)" d="M2297.07 1517.37 Q2293.46 1517.37 2291.63 1520.93 Q2289.82 1524.47 2289.82 1531.6 Q2289.82 1538.71 2291.63 1542.27 Q2293.46 1545.82 2297.07 1545.82 Q2300.7 1545.82 2302.51 1542.27 Q2304.34 1538.71 2304.34 1531.6 Q2304.34 1524.47 2302.51 1520.93 Q2300.7 1517.37 2297.07 1517.37 M2297.07 1513.66 Q2302.88 1513.66 2305.94 1518.27 Q2309.01 1522.85 2309.01 1531.6 Q2309.01 1540.33 2305.94 1544.94 Q2302.88 1549.52 2297.07 1549.52 Q2291.26 1549.52 2288.18 1544.94 Q2285.13 1540.33 2285.13 1531.6 Q2285.13 1522.85 2288.18 1518.27 Q2291.26 1513.66 2297.07 1513.66 Z" fill="#000000" fill-rule="nonzero" fill-opacity="1" /><path clip-path="url(#clip230)" d="M2327.23 1517.37 Q2323.62 1517.37 2321.79 1520.93 Q2319.99 1524.47 2319.99 1531.6 Q2319.99 1538.71 2321.79 1542.27 Q2323.62 1545.82 2327.23 1545.82 Q2330.87 1545.82 2332.67 1542.27 Q2334.5 1538.71 2334.5 1531.6 Q2334.5 1524.47 2332.67 1520.93 Q2330.87 1517.37 2327.23 1517.37 M2327.23 1513.66 Q2333.04 1513.66 2336.1 1518.27 Q2339.18 1522.85 2339.18 1531.6 Q2339.18 1540.33 2336.1 1544.94 Q2333.04 1549.52 2327.23 1549.52 Q2321.42 1549.52 2318.34 1544.94 Q2315.29 1540.33 2315.29 1531.6 Q2315.29 1522.85 2318.34 1518.27 Q2321.42 1513.66 2327.23 1513.66 Z" fill="#000000" fill-rule="nonzero" fill-opacity="1" /><polyline clip-path="url(#clip230)" style="stroke:#000000; stroke-linecap:round; stroke-linejoin:round; stroke-width:4; stroke-opacity:1; fill:none" points="155.765,1486.45 155.765,47.2441 "/>
<polyline clip-path="url(#clip230)" style="stroke:#000000; stroke-linecap:round; stroke-linejoin:round; stroke-width:4; stroke-opacity:1; fill:none" points="155.765,1326.35 174.663,1326.35 "/>
<polyline clip-path="url(#clip230)" style="stroke:#000000; stroke-linecap:round; stroke-linejoin:round; stroke-width:4; stroke-opacity:1; fill:none" points="155.765,1078.63 174.663,1078.63 "/>
<polyline clip-path="url(#clip230)" style="stroke:#000000; stroke-linecap:round; stroke-linejoin:round; stroke-width:4; stroke-opacity:1; fill:none" points="155.765,830.916 174.663,830.916 "/>
<polyline clip-path="url(#clip230)" style="stroke:#000000; stroke-linecap:round; stroke-linejoin:round; stroke-width:4; stroke-opacity:1; fill:none" points="155.765,583.2 174.663,583.2 "/>
<polyline clip-path="url(#clip230)" style="stroke:#000000; stroke-linecap:round; stroke-linejoin:round; stroke-width:4; stroke-opacity:1; fill:none" points="155.765,335.483 174.663,335.483 "/>
<polyline clip-path="url(#clip230)" style="stroke:#000000; stroke-linecap:round; stroke-linejoin:round; stroke-width:4; stroke-opacity:1; fill:none" points="155.765,87.7666 174.663,87.7666 "/>
<path clip-path="url(#clip230)" d="M63.5847 1312.15 Q59.9736 1312.15 58.1449 1315.71 Q56.3393 1319.25 56.3393 1326.38 Q56.3393 1333.49 58.1449 1337.05 Q59.9736 1340.6 63.5847 1340.6 Q67.2189 1340.6 69.0244 1337.05 Q70.8531 1333.49 70.8531 1326.38 Q70.8531 1319.25 69.0244 1315.71 Q67.2189 1312.15 63.5847 1312.15 M63.5847 1308.44 Q69.3948 1308.44 72.4503 1313.05 Q75.529 1317.63 75.529 1326.38 Q75.529 1335.11 72.4503 1339.72 Q69.3948 1344.3 63.5847 1344.3 Q57.7745 1344.3 54.6958 1339.72 Q51.6403 1335.11 51.6403 1326.38 Q51.6403 1317.63 54.6958 1313.05 Q57.7745 1308.44 63.5847 1308.44 Z" fill="#000000" fill-rule="nonzero" fill-opacity="1" /><path clip-path="url(#clip230)" d="M83.7466 1337.75 L88.6308 1337.75 L88.6308 1343.63 L83.7466 1343.63 L83.7466 1337.75 Z" fill="#000000" fill-rule="nonzero" fill-opacity="1" /><path clip-path="url(#clip230)" d="M98.8622 1309.07 L117.219 1309.07 L117.219 1313 L103.145 1313 L103.145 1321.48 Q104.163 1321.13 105.182 1320.97 Q106.2 1320.78 107.219 1320.78 Q113.006 1320.78 116.385 1323.95 Q119.765 1327.12 119.765 1332.54 Q119.765 1338.12 116.293 1341.22 Q112.82 1344.3 106.501 1344.3 Q104.325 1344.3 102.057 1343.93 Q99.8113 1343.56 97.4039 1342.82 L97.4039 1338.12 Q99.4872 1339.25 101.709 1339.81 Q103.932 1340.37 106.408 1340.37 Q110.413 1340.37 112.751 1338.26 Q115.089 1336.15 115.089 1332.54 Q115.089 1328.93 112.751 1326.82 Q110.413 1324.72 106.408 1324.72 Q104.534 1324.72 102.659 1325.13 Q100.807 1325.55 98.8622 1326.43 L98.8622 1309.07 Z" fill="#000000" fill-rule="nonzero" fill-opacity="1" /><path clip-path="url(#clip230)" d="M53.3995 1091.98 L61.0384 1091.98 L61.0384 1065.61 L52.7282 1067.28 L52.7282 1063.02 L60.9921 1061.35 L65.668 1061.35 L65.668 1091.98 L73.3068 1091.98 L73.3068 1095.91 L53.3995 1095.91 L53.3995 1091.98 Z" fill="#000000" fill-rule="nonzero" fill-opacity="1" /><path clip-path="url(#clip230)" d="M82.7512 1090.03 L87.6354 1090.03 L87.6354 1095.91 L82.7512 1095.91 L82.7512 1090.03 Z" fill="#000000" fill-rule="nonzero" fill-opacity="1" /><path clip-path="url(#clip230)" d="M107.821 1064.43 Q104.209 1064.43 102.381 1068 Q100.575 1071.54 100.575 1078.67 Q100.575 1085.77 102.381 1089.34 Q104.209 1092.88 107.821 1092.88 Q111.455 1092.88 113.26 1089.34 Q115.089 1085.77 115.089 1078.67 Q115.089 1071.54 113.26 1068 Q111.455 1064.43 107.821 1064.43 M107.821 1060.73 Q113.631 1060.73 116.686 1065.33 Q119.765 1069.92 119.765 1078.67 Q119.765 1087.39 116.686 1092 Q113.631 1096.58 107.821 1096.58 Q102.01 1096.58 98.9317 1092 Q95.8761 1087.39 95.8761 1078.67 Q95.8761 1069.92 98.9317 1065.33 Q102.01 1060.73 107.821 1060.73 Z" fill="#000000" fill-rule="nonzero" fill-opacity="1" /><path clip-path="url(#clip230)" d="M54.3949 844.261 L62.0337 844.261 L62.0337 817.895 L53.7236 819.562 L53.7236 815.303 L61.9874 813.636 L66.6633 813.636 L66.6633 844.261 L74.3022 844.261 L74.3022 848.196 L54.3949 848.196 L54.3949 844.261 Z" fill="#000000" fill-rule="nonzero" fill-opacity="1" /><path clip-path="url(#clip230)" d="M83.7466 842.316 L88.6308 842.316 L88.6308 848.196 L83.7466 848.196 L83.7466 842.316 Z" fill="#000000" fill-rule="nonzero" fill-opacity="1" /><path clip-path="url(#clip230)" d="M98.8622 813.636 L117.219 813.636 L117.219 817.571 L103.145 817.571 L103.145 826.043 Q104.163 825.696 105.182 825.534 Q106.2 825.349 107.219 825.349 Q113.006 825.349 116.385 828.52 Q119.765 831.691 119.765 837.108 Q119.765 842.687 116.293 845.789 Q112.82 848.867 106.501 848.867 Q104.325 848.867 102.057 848.497 Q99.8113 848.127 97.4039 847.386 L97.4039 842.687 Q99.4872 843.821 101.709 844.377 Q103.932 844.932 106.408 844.932 Q110.413 844.932 112.751 842.826 Q115.089 840.719 115.089 837.108 Q115.089 833.497 112.751 831.391 Q110.413 829.284 106.408 829.284 Q104.534 829.284 102.659 829.701 Q100.807 830.117 98.8622 830.997 L98.8622 813.636 Z" fill="#000000" fill-rule="nonzero" fill-opacity="1" /><path clip-path="url(#clip230)" d="M56.6171 596.544 L72.9365 596.544 L72.9365 600.48 L50.9921 600.48 L50.9921 596.544 Q53.6541 593.79 58.2375 589.16 Q62.8439 584.507 64.0245 583.165 Q66.2698 580.642 67.1494 578.906 Q68.0522 577.146 68.0522 575.457 Q68.0522 572.702 66.1078 570.966 Q64.1865 569.23 61.0847 569.23 Q58.8856 569.23 56.4319 569.994 Q54.0014 570.757 51.2236 572.308 L51.2236 567.586 Q54.0477 566.452 56.5014 565.873 Q58.955 565.295 60.9921 565.295 Q66.3624 565.295 69.5568 567.98 Q72.7513 570.665 72.7513 575.156 Q72.7513 577.285 71.9411 579.207 Q71.1541 581.105 69.0476 583.697 Q68.4689 584.369 65.367 587.586 Q62.2652 590.781 56.6171 596.544 Z" fill="#000000" fill-rule="nonzero" fill-opacity="1" /><path clip-path="url(#clip230)" d="M82.7512 594.6 L87.6354 594.6 L87.6354 600.48 L82.7512 600.48 L82.7512 594.6 Z" fill="#000000" fill-rule="nonzero" fill-opacity="1" /><path clip-path="url(#clip230)" d="M107.821 568.998 Q104.209 568.998 102.381 572.563 Q100.575 576.105 100.575 583.234 Q100.575 590.341 102.381 593.906 Q104.209 597.447 107.821 597.447 Q111.455 597.447 113.26 593.906 Q115.089 590.341 115.089 583.234 Q115.089 576.105 113.26 572.563 Q111.455 568.998 107.821 568.998 M107.821 565.295 Q113.631 565.295 116.686 569.901 Q119.765 574.484 119.765 583.234 Q119.765 591.961 116.686 596.568 Q113.631 601.151 107.821 601.151 Q102.01 601.151 98.9317 596.568 Q95.8761 591.961 95.8761 583.234 Q95.8761 574.484 98.9317 569.901 Q102.01 565.295 107.821 565.295 Z" fill="#000000" fill-rule="nonzero" fill-opacity="1" /><path clip-path="url(#clip230)" d="M57.6125 348.828 L73.9318 348.828 L73.9318 352.763 L51.9875 352.763 L51.9875 348.828 Q54.6495 346.073 59.2328 341.444 Q63.8393 336.791 65.0198 335.448 Q67.2652 332.925 68.1448 331.189 Q69.0476 329.43 69.0476 327.74 Q69.0476 324.985 67.1032 323.249 Q65.1819 321.513 62.08 321.513 Q59.881 321.513 57.4273 322.277 Q54.9967 323.041 52.219 324.592 L52.219 319.87 Q55.043 318.735 57.4967 318.157 Q59.9504 317.578 61.9874 317.578 Q67.3578 317.578 70.5522 320.263 Q73.7466 322.948 73.7466 327.439 Q73.7466 329.569 72.9365 331.49 Q72.1494 333.388 70.0429 335.981 Q69.4642 336.652 66.3624 339.87 Q63.2606 343.064 57.6125 348.828 Z" fill="#000000" fill-rule="nonzero" fill-opacity="1" /><path clip-path="url(#clip230)" d="M83.7466 346.883 L88.6308 346.883 L88.6308 352.763 L83.7466 352.763 L83.7466 346.883 Z" fill="#000000" fill-rule="nonzero" fill-opacity="1" /><path clip-path="url(#clip230)" d="M98.8622 318.203 L117.219 318.203 L117.219 322.138 L103.145 322.138 L103.145 330.61 Q104.163 330.263 105.182 330.101 Q106.2 329.916 107.219 329.916 Q113.006 329.916 116.385 333.087 Q119.765 336.259 119.765 341.675 Q119.765 347.254 116.293 350.356 Q112.82 353.434 106.501 353.434 Q104.325 353.434 102.057 353.064 Q99.8113 352.694 97.4039 351.953 L97.4039 347.254 Q99.4872 348.388 101.709 348.944 Q103.932 349.499 106.408 349.499 Q110.413 349.499 112.751 347.393 Q115.089 345.286 115.089 341.675 Q115.089 338.064 112.751 335.958 Q110.413 333.851 106.408 333.851 Q104.534 333.851 102.659 334.268 Q100.807 334.684 98.8622 335.564 L98.8622 318.203 Z" fill="#000000" fill-rule="nonzero" fill-opacity="1" /><path clip-path="url(#clip230)" d="M66.7559 86.4124 Q70.1124 87.13 71.9874 89.3985 Q73.8855 91.667 73.8855 95.0004 Q73.8855 100.116 70.367 102.917 Q66.8485 105.718 60.3671 105.718 Q58.1912 105.718 55.8764 105.278 Q53.5847 104.861 51.131 104.005 L51.131 99.4911 Q53.0754 100.625 55.3903 101.204 Q57.7051 101.783 60.2282 101.783 Q64.6263 101.783 66.918 100.047 Q69.2328 98.3105 69.2328 95.0004 Q69.2328 91.9448 67.08 90.2319 Q64.9504 88.4958 61.131 88.4958 L57.1032 88.4958 L57.1032 84.6532 L61.3161 84.6532 Q64.7652 84.6532 66.5939 83.2875 Q68.4226 81.8986 68.4226 79.306 Q68.4226 76.644 66.5245 75.2319 Q64.6495 73.7968 61.131 73.7968 Q59.2097 73.7968 57.0106 74.2134 Q54.8115 74.6301 52.1727 75.5097 L52.1727 71.3431 Q54.8347 70.6023 57.1495 70.232 Q59.4875 69.8616 61.5476 69.8616 Q66.8717 69.8616 69.9735 72.2922 Q73.0753 74.6995 73.0753 78.8199 Q73.0753 81.6902 71.4318 83.681 Q69.7883 85.6486 66.7559 86.4124 Z" fill="#000000" fill-rule="nonzero" fill-opacity="1" /><path clip-path="url(#clip230)" d="M82.7512 99.167 L87.6354 99.167 L87.6354 105.047 L82.7512 105.047 L82.7512 99.167 Z" fill="#000000" fill-rule="nonzero" fill-opacity="1" /><path clip-path="url(#clip230)" d="M107.821 73.5653 Q104.209 73.5653 102.381 77.1301 Q100.575 80.6717 100.575 87.8013 Q100.575 94.9078 102.381 98.4726 Q104.209 102.014 107.821 102.014 Q111.455 102.014 113.26 98.4726 Q115.089 94.9078 115.089 87.8013 Q115.089 80.6717 113.26 77.1301 Q111.455 73.5653 107.821 73.5653 M107.821 69.8616 Q113.631 69.8616 116.686 74.4681 Q119.765 79.0514 119.765 87.8013 Q119.765 96.5281 116.686 101.135 Q113.631 105.718 107.821 105.718 Q102.01 105.718 98.9317 101.135 Q95.8761 96.5281 95.8761 87.8013 Q95.8761 79.0514 98.9317 74.4681 Q102.01 69.8616 107.821 69.8616 Z" fill="#000000" fill-rule="nonzero" fill-opacity="1" /><path clip-path="url(#clip231)" d="M217.944 1326.35 L425.207 1421.76 L632.47 1441.22 L839.734 1426.08 L1047 1382.5 L1254.26 1397.37 L1461.52 1445.72 L1668.79 1420.99 L1876.05 1407.74 L2083.31 1372.25 L2290.58 1353.38 L2290.58 87.9763 L2083.31 179.531 L1876.05 490.956 L1668.79 651.671 L1461.52 677.03 L1254.26 554.747 L1047 667.153 L839.734 877.014 L632.47 1084.63 L425.207 1238.63 L217.944 1326.35  Z" fill="#009af9" fill-rule="evenodd" fill-opacity="0.2"/>
<polyline clip-path="url(#clip231)" style="stroke:#009af9; stroke-linecap:round; stroke-linejoin:round; stroke-width:12; stroke-opacity:1; fill:none" points="217.944,1326.35 425.207,1303.28 632.47,1278.14 839.734,1298.15 1047,1338.7 1254.26,1211.85 1461.52,1183.65 1668.79,1145.01 1876.05,1104.11 2083.31,1081.81 2290.58,1084.09 "/>
</svg>
