<?xml version="1.0" encoding="utf-8"?>
<svg xmlns="http://www.w3.org/2000/svg" xmlns:xlink="http://www.w3.org/1999/xlink" width="600" height="400" viewBox="0 0 2400 1600">
<defs>
  <clipPath id="clip200">
    <rect x="0" y="0" width="2400" height="1600"/>
  </clipPath>
</defs>
<path clip-path="url(#clip200)" d="M0 1600 L2400 1600 L2400 0 L0 0  Z" fill="#ffffff" fill-rule="evenodd" fill-opacity="1"/>
<defs>
  <clipPath id="clip201">
    <rect x="112" y="47" width="2242" height="1440"/>
  </clipPath>
</defs>
<path clip-path="url(#clip200)" d="M112.177 1486.45 L2352.76 1486.45 L2352.76 47.2441 L112.177 47.2441  Z" fill="#ffffff" fill-rule="evenodd" fill-opacity="1"/>
<polyline clip-path="url(#clip201)" style="stroke:#000000; stroke-linecap:round; stroke-linejoin:round; stroke-width:2; stroke-opacity:0.1; fill:none" points="175.59,1486.45 175.59,47.2441 "/>
<polyline clip-path="url(#clip201)" style="stroke:#000000; stroke-linecap:round; stroke-linejoin:round; stroke-width:2; stroke-opacity:0.1; fill:none" points="704.028,1486.45 704.028,47.2441 "/>
<polyline clip-path="url(#clip201)" style="stroke:#000000; stroke-linecap:round; stroke-linejoin:round; stroke-width:2; stroke-opacity:0.1; fill:none" points="1232.47,1486.45 1232.47,47.2441 "/>
<polyline clip-path="url(#clip201)" style="stroke:#000000; stroke-linecap:round; stroke-linejoin:round; stroke-width:2; stroke-opacity:0.1; fill:none" points="1760.9,1486.45 1760.9,47.2441 "/>
<polyline clip-path="url(#clip201)" style="stroke:#000000; stroke-linecap:round; stroke-linejoin:round; stroke-width:2; stroke-opacity:0.1; fill:none" points="2289.34,1486.45 2289.34,47.2441 "/>
<polyline clip-path="url(#clip201)" style="stroke:#000000; stroke-linecap:round; stroke-linejoin:round; stroke-width:2; stroke-opacity:0.1; fill:none" points="112.177,1448.27 2352.76,1448.27 "/>
<polyline clip-path="url(#clip201)" style="stroke:#000000; stroke-linecap:round; stroke-linejoin:round; stroke-width:2; stroke-opacity:0.1; fill:none" points="112.177,1156.09 2352.76,1156.09 "/>
<polyline clip-path="url(#clip201)" style="stroke:#000000; stroke-linecap:round; stroke-linejoin:round; stroke-width:2; stroke-opacity:0.1; fill:none" points="112.177,863.906 2352.76,863.906 "/>
<polyline clip-path="url(#clip201)" style="stroke:#000000; stroke-linecap:round; stroke-linejoin:round; stroke-width:2; stroke-opacity:0.1; fill:none" points="112.177,571.724 2352.76,571.724 "/>
<polyline clip-path="url(#clip201)" style="stroke:#000000; stroke-linecap:round; stroke-linejoin:round; stroke-width:2; stroke-opacity:0.1; fill:none" points="112.177,279.543 2352.76,279.543 "/>
<polyline clip-path="url(#clip200)" style="stroke:#000000; stroke-linecap:round; stroke-linejoin:round; stroke-width:4; stroke-opacity:1; fill:none" points="112.177,1486.45 2352.76,1486.45 "/>
<polyline clip-path="url(#clip200)" style="stroke:#000000; stroke-linecap:round; stroke-linejoin:round; stroke-width:4; stroke-opacity:1; fill:none" points="175.59,1486.45 175.59,1467.55 "/>
<polyline clip-path="url(#clip200)" style="stroke:#000000; stroke-linecap:round; stroke-linejoin:round; stroke-width:4; stroke-opacity:1; fill:none" points="704.028,1486.45 704.028,1467.55 "/>
<polyline clip-path="url(#clip200)" style="stroke:#000000; stroke-linecap:round; stroke-linejoin:round; stroke-width:4; stroke-opacity:1; fill:none" points="1232.47,1486.45 1232.47,1467.55 "/>
<polyline clip-path="url(#clip200)" style="stroke:#000000; stroke-linecap:round; stroke-linejoin:round; stroke-width:4; stroke-opacity:1; fill:none" points="1760.9,1486.45 1760.9,1467.55 "/>
<polyline clip-path="url(#clip200)" style="stroke:#000000; stroke-linecap:round; stroke-linejoin:round; stroke-width:4; stroke-opacity:1; fill:none" points="2289.34,1486.45 2289.34,1467.55 "/>
<path clip-path="url(#clip200)" d="M152.974 1517.37 Q149.363 1517.37 147.534 1520.93 Q145.729 1524.47 145.729 1531.6 Q145.729 1538.71 147.534 1542.27 Q149.363 1545.82 152.974 1545.82 Q156.608 1545.82 158.414 1542.27 Q160.243 1538.71 160.243 1531.6 Q160.243 1524.47 158.414 1520.93 Q156.608 1517.37 152.974 1517.37 M152.974 1513.66 Q158.784 1513.66 161.84 1518.27 Q164.919 1522.85 164.919 1531.6 Q164.919 1540.33 161.84 1544.94 Q158.784 1549.52 152.974 1549.52 Q147.164 1549.52 144.085 1544.94 Q141.03 1540.33 141.03 1531.6 Q141.03 1522.85 144.085 1518.27 Q147.164 1513.66 152.974 1513.66 Z" fill="#000000" fill-rule="nonzero" fill-opacity="1" /><path clip-path="url(#clip200)" d="M173.136 1542.97 L178.02 1542.97 L178.02 1548.85 L173.136 1548.85 L173.136 1542.97 Z" fill="#000000" fill-rule="nonzero" fill-opacity="1" /><path clip-path="url(#clip200)" d="M198.205 1517.37 Q194.594 1517.37 192.766 1520.93 Q190.96 1524.47 190.96 1531.6 Q190.96 1538.71 192.766 1542.27 Q194.594 1545.82 198.205 1545.82 Q201.84 1545.82 203.645 1542.27 Q205.474 1538.71 205.474 1531.6 Q205.474 1524.47 203.645 1520.93 Q201.84 1517.37 198.205 1517.37 M198.205 1513.66 Q204.016 1513.66 207.071 1518.27 Q210.15 1522.85 210.15 1531.6 Q210.15 1540.33 207.071 1544.94 Q204.016 1549.52 198.205 1549.52 Q192.395 1549.52 189.317 1544.94 Q186.261 1540.33 186.261 1531.6 Q186.261 1522.85 189.317 1518.27 Q192.395 1513.66 198.205 1513.66 Z" fill="#000000" fill-rule="nonzero" fill-opacity="1" /><path clip-path="url(#clip200)" d="M675.764 1544.91 L692.084 1544.91 L692.084 1548.85 L670.139 1548.85 L670.139 1544.91 Q672.801 1542.16 677.385 1537.53 Q681.991 1532.88 683.172 1531.53 Q685.417 1529.01 686.297 1527.27 Q687.2 1525.51 687.2 1523.82 Q687.2 1521.07 685.255 1519.33 Q683.334 1517.6 680.232 1517.6 Q678.033 1517.6 675.579 1518.36 Q673.149 1519.13 670.371 1520.68 L670.371 1515.95 Q673.195 1514.82 675.649 1514.24 Q678.102 1513.66 680.139 1513.66 Q685.51 1513.66 688.704 1516.35 Q691.899 1519.03 691.899 1523.52 Q691.899 1525.65 691.088 1527.57 Q690.301 1529.47 688.195 1532.07 Q687.616 1532.74 684.514 1535.95 Q681.413 1539.15 675.764 1544.91 Z" fill="#000000" fill-rule="nonzero" fill-opacity="1" /><path clip-path="url(#clip200)" d="M701.899 1542.97 L706.783 1542.97 L706.783 1548.85 L701.899 1548.85 L701.899 1542.97 Z" fill="#000000" fill-rule="nonzero" fill-opacity="1" /><path clip-path="url(#clip200)" d="M717.014 1514.29 L735.371 1514.29 L735.371 1518.22 L721.297 1518.22 L721.297 1526.7 Q722.315 1526.35 723.334 1526.19 Q724.352 1526 725.371 1526 Q731.158 1526 734.537 1529.17 Q737.917 1532.34 737.917 1537.76 Q737.917 1543.34 734.445 1546.44 Q730.972 1549.52 724.653 1549.52 Q722.477 1549.52 720.209 1549.15 Q717.963 1548.78 715.556 1548.04 L715.556 1543.34 Q717.639 1544.47 719.861 1545.03 Q722.084 1545.58 724.56 1545.58 Q728.565 1545.58 730.903 1543.48 Q733.241 1541.37 733.241 1537.76 Q733.241 1534.15 730.903 1532.04 Q728.565 1529.94 724.56 1529.94 Q722.685 1529.94 720.81 1530.35 Q718.959 1530.77 717.014 1531.65 L717.014 1514.29 Z" fill="#000000" fill-rule="nonzero" fill-opacity="1" /><path clip-path="url(#clip200)" d="M1199.63 1514.29 L1217.99 1514.29 L1217.99 1518.22 L1203.91 1518.22 L1203.91 1526.7 Q1204.93 1526.35 1205.95 1526.19 Q1206.97 1526 1207.99 1526 Q1213.77 1526 1217.15 1529.17 Q1220.53 1532.34 1220.53 1537.76 Q1220.53 1543.34 1217.06 1546.44 Q1213.59 1549.52 1207.27 1549.52 Q1205.09 1549.52 1202.83 1549.15 Q1200.58 1548.78 1198.17 1548.04 L1198.17 1543.34 Q1200.26 1544.47 1202.48 1545.03 Q1204.7 1545.58 1207.18 1545.58 Q1211.18 1545.58 1213.52 1543.48 Q1215.86 1541.37 1215.86 1537.76 Q1215.86 1534.15 1213.52 1532.04 Q1211.18 1529.94 1207.18 1529.94 Q1205.3 1529.94 1203.43 1530.35 Q1201.58 1530.77 1199.63 1531.65 L1199.63 1514.29 Z" fill="#000000" fill-rule="nonzero" fill-opacity="1" /><path clip-path="url(#clip200)" d="M1229.75 1542.97 L1234.63 1542.97 L1234.63 1548.85 L1229.75 1548.85 L1229.75 1542.97 Z" fill="#000000" fill-rule="nonzero" fill-opacity="1" /><path clip-path="url(#clip200)" d="M1254.82 1517.37 Q1251.2 1517.37 1249.38 1520.93 Q1247.57 1524.47 1247.57 1531.6 Q1247.57 1538.71 1249.38 1542.27 Q1251.2 1545.82 1254.82 1545.82 Q1258.45 1545.82 1260.26 1542.27 Q1262.08 1538.71 1262.08 1531.6 Q1262.08 1524.47 1260.26 1520.93 Q1258.45 1517.37 1254.82 1517.37 M1254.82 1513.66 Q1260.63 1513.66 1263.68 1518.27 Q1266.76 1522.85 1266.76 1531.6 Q1266.76 1540.33 1263.68 1544.94 Q1260.63 1549.52 1254.82 1549.52 Q1249.01 1549.52 1245.93 1544.94 Q1242.87 1540.33 1242.87 1531.6 Q1242.87 1522.85 1245.93 1518.27 Q1249.01 1513.66 1254.82 1513.66 Z" fill="#000000" fill-rule="nonzero" fill-opacity="1" /><path clip-path="url(#clip200)" d="M1727.22 1514.29 L1749.45 1514.29 L1749.45 1516.28 L1736.9 1548.85 L1732.02 1548.85 L1743.82 1518.22 L1727.22 1518.22 L1727.22 1514.29 Z" fill="#000000" fill-rule="nonzero" fill-opacity="1" /><path clip-path="url(#clip200)" d="M1758.57 1542.97 L1763.45 1542.97 L1763.45 1548.85 L1758.57 1548.85 L1758.57 1542.97 Z" fill="#000000" fill-rule="nonzero" fill-opacity="1" /><path clip-path="url(#clip200)" d="M1773.68 1514.29 L1792.04 1514.29 L1792.04 1518.22 L1777.97 1518.22 L1777.97 1526.7 Q1778.98 1526.35 1780 1526.19 Q1781.02 1526 1782.04 1526 Q1787.83 1526 1791.21 1529.17 Q1794.59 1532.34 1794.59 1537.76 Q1794.59 1543.34 1791.11 1546.44 Q1787.64 1549.52 1781.32 1549.52 Q1779.15 1549.52 1776.88 1549.15 Q1774.63 1548.78 1772.22 1548.04 L1772.22 1543.34 Q1774.31 1544.47 1776.53 1545.03 Q1778.75 1545.58 1781.23 1545.58 Q1785.23 1545.58 1787.57 1543.48 Q1789.91 1541.37 1789.91 1537.76 Q1789.91 1534.15 1787.57 1532.04 Q1785.23 1529.94 1781.23 1529.94 Q1779.35 1529.94 1777.48 1530.35 Q1775.63 1530.77 1773.68 1531.65 L1773.68 1514.29 Z" fill="#000000" fill-rule="nonzero" fill-opacity="1" /><path clip-path="url(#clip200)" d="M2241.42 1544.91 L2249.05 1544.91 L2249.05 1518.55 L2240.74 1520.21 L2240.74 1515.95 L2249.01 1514.29 L2253.68 1514.29 L2253.68 1544.91 L2261.32 1544.91 L2261.32 1548.85 L2241.42 1548.85 L2241.42 1544.91 Z" fill="#000000" fill-rule="nonzero" fill-opacity="1" /><path clip-path="url(#clip200)" d="M2280.77 1517.37 Q2277.16 1517.37 2275.33 1520.93 Q2273.52 1524.47 2273.52 1531.6 Q2273.52 1538.71 2275.33 1542.27 Q2277.16 1545.82 2280.77 1545.82 Q2284.4 1545.82 2286.21 1542.27 Q2288.04 1538.71 2288.04 1531.6 Q2288.04 1524.47 2286.21 1520.93 Q2284.4 1517.37 2280.77 1517.37 M2280.77 1513.66 Q2286.58 1513.66 2289.63 1518.27 Q2292.71 1522.85 2292.71 1531.6 Q2292.71 1540.33 2289.63 1544.94 Q2286.58 1549.52 2280.77 1549.52 Q2274.96 1549.52 2271.88 1544.94 Q2268.82 1540.33 2268.82 1531.6 Q2268.82 1522.85 2271.88 1518.27 Q2274.96 1513.66 2280.77 1513.66 Z" fill="#000000" fill-rule="nonzero" fill-opacity="1" /><path clip-path="url(#clip200)" d="M2300.93 1542.97 L2305.81 1542.97 L2305.81 1548.85 L2300.93 1548.85 L2300.93 1542.97 Z" fill="#000000" fill-rule="nonzero" fill-opacity="1" /><path clip-path="url(#clip200)" d="M2326 1517.37 Q2322.39 1517.37 2320.56 1520.93 Q2318.75 1524.47 2318.75 1531.6 Q2318.75 1538.71 2320.56 1542.27 Q2322.39 1545.82 2326 1545.82 Q2329.63 1545.82 2331.44 1542.27 Q2333.27 1538.71 2333.27 1531.6 Q2333.27 1524.47 2331.44 1520.93 Q2329.63 1517.37 2326 1517.37 M2326 1513.66 Q2331.81 1513.66 2334.86 1518.27 Q2337.94 1522.85 2337.94 1531.6 Q2337.94 1540.33 2334.86 1544.94 Q2331.81 1549.52 2326 1549.52 Q2320.19 1549.52 2317.11 1544.94 Q2314.05 1540.33 2314.05 1531.6 Q2314.05 1522.85 2317.11 1518.27 Q2320.19 1513.66 2326 1513.66 Z" fill="#000000" fill-rule="nonzero" fill-opacity="1" /><polyline clip-path="url(#clip200)" style="stroke:#000000; stroke-linecap:round; stroke-linejoin:round; stroke-width:4; stroke-opacity:1; fill:none" points="112.177,1486.45 112.177,47.2441 "/>
<polyline clip-path="url(#clip200)" style="stroke:#000000; stroke-linecap:round; stroke-linejoin:round; stroke-width:4; stroke-opacity:1; fill:none" points="112.177,1448.27 131.075,1448.27 "/>
<polyline clip-path="url(#clip200)" style="stroke:#000000; stroke-linecap:round; stroke-linejoin:round; stroke-width:4; stroke-opacity:1; fill:none" points="112.177,1156.09 131.075,1156.09 "/>
<polyline clip-path="url(#clip200)" style="stroke:#000000; stroke-linecap:round; stroke-linejoin:round; stroke-width:4; stroke-opacity:1; fill:none" points="112.177,863.906 131.075,863.906 "/>
<polyline clip-path="url(#clip200)" style="stroke:#000000; stroke-linecap:round; stroke-linejoin:round; stroke-width:4; stroke-opacity:1; fill:none" points="112.177,571.724 131.075,571.724 "/>
<polyline clip-path="url(#clip200)" style="stroke:#000000; stroke-linecap:round; stroke-linejoin:round; stroke-width:4; stroke-opacity:1; fill:none" points="112.177,279.543 131.075,279.543 "/>
<path clip-path="url(#clip200)" d="M64.2328 1434.07 Q60.6217 1434.07 58.793 1437.63 Q56.9875 1441.18 56.9875 1448.3 Q56.9875 1455.41 58.793 1458.98 Q60.6217 1462.52 64.2328 1462.52 Q67.867 1462.52 69.6726 1458.98 Q71.5013 1455.41 71.5013 1448.3 Q71.5013 1441.18 69.6726 1437.63 Q67.867 1434.07 64.2328 1434.07 M64.2328 1430.36 Q70.0429 1430.36 73.0985 1434.97 Q76.1772 1439.55 76.1772 1448.3 Q76.1772 1457.03 73.0985 1461.64 Q70.0429 1466.22 64.2328 1466.22 Q58.4226 1466.22 55.344 1461.64 Q52.2884 1457.03 52.2884 1448.3 Q52.2884 1439.55 55.344 1434.97 Q58.4226 1430.36 64.2328 1430.36 Z" fill="#000000" fill-rule="nonzero" fill-opacity="1" /><path clip-path="url(#clip200)" d="M59.8578 1169.43 L76.1772 1169.43 L76.1772 1173.37 L54.2328 1173.37 L54.2328 1169.43 Q56.8949 1166.68 61.4782 1162.05 Q66.0846 1157.4 67.2652 1156.05 Q69.5105 1153.53 70.3902 1151.79 Q71.2929 1150.03 71.2929 1148.35 Q71.2929 1145.59 69.3485 1143.85 Q67.4272 1142.12 64.3254 1142.12 Q62.1263 1142.12 59.6726 1142.88 Q57.2421 1143.65 54.4643 1145.2 L54.4643 1140.47 Q57.2884 1139.34 59.7421 1138.76 Q62.1958 1138.18 64.2328 1138.18 Q69.6031 1138.18 72.7976 1140.87 Q75.992 1143.55 75.992 1148.04 Q75.992 1150.17 75.1818 1152.1 Q74.3948 1153.99 72.2883 1156.59 Q71.7096 1157.26 68.6078 1160.47 Q65.5059 1163.67 59.8578 1169.43 Z" fill="#000000" fill-rule="nonzero" fill-opacity="1" /><path clip-path="url(#clip200)" d="M66.5939 850.7 L54.7884 869.149 L66.5939 869.149 L66.5939 850.7 M65.367 846.626 L71.2466 846.626 L71.2466 869.149 L76.1772 869.149 L76.1772 873.038 L71.2466 873.038 L71.2466 881.186 L66.5939 881.186 L66.5939 873.038 L50.9921 873.038 L50.9921 868.524 L65.367 846.626 Z" fill="#000000" fill-rule="nonzero" fill-opacity="1" /><path clip-path="url(#clip200)" d="M64.6495 569.861 Q61.5013 569.861 59.6495 572.014 Q57.8208 574.167 57.8208 577.917 Q57.8208 581.643 59.6495 583.819 Q61.5013 585.972 64.6495 585.972 Q67.7976 585.972 69.6263 583.819 Q71.4781 581.643 71.4781 577.917 Q71.4781 574.167 69.6263 572.014 Q67.7976 569.861 64.6495 569.861 M73.9318 555.208 L73.9318 559.468 Q72.1726 558.634 70.367 558.194 Q68.5846 557.755 66.8254 557.755 Q62.1958 557.755 59.7421 560.88 Q57.3115 564.005 56.9643 570.324 Q58.33 568.31 60.3902 567.245 Q62.4504 566.157 64.9272 566.157 Q70.1355 566.157 73.1448 569.329 Q76.1772 572.477 76.1772 577.917 Q76.1772 583.241 73.029 586.458 Q69.8809 589.676 64.6495 589.676 Q58.6541 589.676 55.4828 585.092 Q52.3116 580.486 52.3116 571.759 Q52.3116 563.565 56.2004 558.704 Q60.0893 553.819 66.6402 553.819 Q68.3994 553.819 70.1818 554.167 Q71.9874 554.514 73.9318 555.208 Z" fill="#000000" fill-rule="nonzero" fill-opacity="1" /><path clip-path="url(#clip200)" d="M64.3254 280.411 Q60.9921 280.411 59.0708 282.193 Q57.1726 283.975 57.1726 287.1 Q57.1726 290.225 59.0708 292.008 Q60.9921 293.79 64.3254 293.79 Q67.6587 293.79 69.58 292.008 Q71.5013 290.202 71.5013 287.1 Q71.5013 283.975 69.58 282.193 Q67.6819 280.411 64.3254 280.411 M59.6495 278.42 Q56.6402 277.679 54.9504 275.619 Q53.2838 273.559 53.2838 270.596 Q53.2838 266.452 56.2236 264.045 Q59.1865 261.638 64.3254 261.638 Q69.4874 261.638 72.4272 264.045 Q75.367 266.452 75.367 270.596 Q75.367 273.559 73.6772 275.619 Q72.0105 277.679 69.0244 278.42 Q72.404 279.207 74.279 281.499 Q76.1772 283.79 76.1772 287.1 Q76.1772 292.124 73.0985 294.809 Q70.0429 297.494 64.3254 297.494 Q58.6078 297.494 55.5291 294.809 Q52.4736 292.124 52.4736 287.1 Q52.4736 283.79 54.3717 281.499 Q56.2699 279.207 59.6495 278.42 M57.9365 271.036 Q57.9365 273.721 59.6032 275.226 Q61.293 276.73 64.3254 276.73 Q67.3346 276.73 69.0244 275.226 Q70.7374 273.721 70.7374 271.036 Q70.7374 268.351 69.0244 266.846 Q67.3346 265.341 64.3254 265.341 Q61.293 265.341 59.6032 266.846 Q57.9365 268.351 57.9365 271.036 Z" fill="#000000" fill-rule="nonzero" fill-opacity="1" /><path clip-path="url(#clip201)" d="M175.59 1302.18 L196.727 1300.94 L217.865 1293.87 L239.002 1283.65 L260.14 1261.1 L281.277 1245.89 L302.415 1226.05 L323.553 1204.04 L344.69 1178.97 L365.828 1144.93 L386.965 1129.13 L408.103 1072.85 L429.24 1059.68 L450.378 1035.02 L471.515 974.934 L492.653 892.74 L513.79 835.81 L534.928 830.819 L556.065 748.333 L577.203 721.344 L598.34 704.361 L619.478 787.584 L640.616 930.793 L661.753 1063.53 L682.891 1184.69 L704.028 1266 L725.166 1311.42 L746.303 1341.48 L767.441 1357.41 L788.578 1365.01 L809.716 1369.55 L830.853 1369.78 L851.991 1366.68 L873.128 1360.44 L894.266 1351.4 L915.404 1345.89 L936.541 1339.1 L957.679 1334.23 L978.816 1321.66 L999.954 1315.29 L1021.09 1306.99 L1042.23 1284.4 L1063.37 1252.06 L1084.5 1241.07 L1105.64 1172.82 L1126.78 1125.56 L1147.92 1055.18 L1169.05 996.533 L1190.19 977.165 L1211.33 997.35 L1232.47 1016.86 L1253.6 1008.49 L1274.74 976.974 L1295.88 986.12 L1317.02 1036.98 L1338.15 1076.86 L1359.29 1127.25 L1380.43 1177.24 L1401.57 1229.63 L1422.7 1289.05 L1443.84 1316.2 L1464.98 1350.32 L1486.12 1372.98 L1507.25 1387.91 L1528.39 1404.94 L1549.53 1412.19 L1570.67 1417 L1591.8 1419.05 L1612.94 1418.78 L1634.08 1418.38 L1655.22 1416.33 L1676.35 1412.73 L1697.49 1409.41 L1718.63 1404.64 L1739.77 1398.78 L1760.9 1390.9 L1782.04 1384.03 L1803.18 1374.1 L1824.32 1365.11 L1845.46 1354.09 L1866.59 1337.76 L1887.73 1315.96 L1908.87 1299.56 L1930.01 1275.49 L1951.14 1246.94 L1972.28 1220.5 L1993.42 1187.19 L2014.56 1202.48 L2035.69 1198.91 L2056.83 1190.19 L2077.97 1230.24 L2099.11 1241.71 L2120.24 1268.19 L2141.38 1293.54 L2162.52 1307.33 L2183.66 1318.28 L2204.79 1316.72 L2225.93 1321.93 L2247.07 1324.6 L2268.21 1329.47 L2289.34 1327.43 L2289.34 210.001 L2268.21 145.401 L2247.07 98.3735 L2225.93 87.9763 L2204.79 222.366 L2183.66 352.841 L2162.52 483.16 L2141.38 601.634 L2120.24 560.066 L2099.11 491.18 L2077.97 497.496 L2056.83 437.717 L2035.69 410.6 L2014.56 423.916 L1993.42 387.395 L1972.28 422.02 L1951.14 461.902 L1930.01 542.186 L1908.87 617.057 L1887.73 613.825 L1866.59 598.56 L1845.46 616.768 L1824.32 655.309 L1803.18 698.521 L1782.04 753.049 L1760.9 811.747 L1739.77 853.37 L1718.63 918.378 L1697.49 938.109 L1676.35 1002.79 L1655.22 1052.16 L1634.08 1086.26 L1612.94 1123.13 L1591.8 1143.09 L1570.67 1178.78 L1549.53 1208.42 L1528.39 1226.52 L1507.25 1203 L1486.12 1171.73 L1464.98 1109.74 L1443.84 960.13 L1422.7 631.634 L1401.57 309.988 L1380.43 126.884 L1359.29 124.023 L1338.15 180.961 L1317.02 147.899 L1295.88 153.813 L1274.74 287.345 L1253.6 395.165 L1232.47 518.686 L1211.33 602.853 L1190.19 692.214 L1169.05 766.784 L1147.92 825.248 L1126.78 859.922 L1105.64 862.754 L1084.5 908.357 L1063.37 874.718 L1042.23 881.73 L1021.09 931 L999.954 1004.43 L978.816 1040.16 L957.679 1068.62 L936.541 1117.85 L915.404 1139.94 L894.266 1147.97 L873.128 1186.28 L851.991 1203.08 L830.853 1211.1 L809.716 1172.2 L788.578 1074.07 L767.441 946.119 L746.303 835.648 L725.166 736.05 L704.028 602.71 L682.891 645.788 L661.753 595.353 L640.616 595.445 L619.478 449.37 L598.34 330.393 L577.203 285.047 L556.065 336.332 L534.928 412.368 L513.79 521.134 L492.653 595.557 L471.515 715.013 L450.378 775.76 L429.24 870.823 L408.103 915.218 L386.965 957.429 L365.828 1030.33 L344.69 1083.67 L323.553 1111.31 L302.415 1160.28 L281.277 1183.61 L260.14 1208.02 L239.002 1249.4 L217.865 1268.53 L196.727 1288.53 L175.59 1302.18  Z" fill="#009af9" fill-rule="evenodd" fill-opacity="0.5"/>
<polyline clip-path="url(#clip201)" style="stroke:#009af9; stroke-linecap:round; stroke-linejoin:round; stroke-width:12; stroke-opacity:1; fill:none" points="175.59,1302.18 196.727,1291.87 217.865,1282.49 239.002,1272.47 260.14,1250.74 281.277,1224.36 302.415,1191.75 323.553,1158.89 344.69,1125.9 365.828,1100.55 386.965,1047.22 408.103,1003.3 429.24,929.794 450.378,857.662 471.515,773.892 492.653,697.066 513.79,609.8 534.928,548.091 556.065,488.385 577.203,438.788 598.34,466.67 619.478,605.685 640.616,720.879 661.753,871.445 682.891,1039.63 704.028,1139.75 725.166,1192.31 746.303,1229.38 767.441,1271.75 788.578,1298.01 809.716,1311.06 830.853,1311.9 851.991,1308.79 873.128,1315.24 894.266,1310.99 915.404,1297.12 936.541,1283.85 957.679,1264.02 978.816,1239.78 999.954,1218.3 1021.09,1197.68 1042.23,1154.25 1063.37,1120.75 1084.5,1076.76 1105.64,1030.85 1126.78,970.939 1147.92,922.839 1169.05,880.387 1190.19,793.692 1211.33,693.456 1232.47,630.896 1253.6,591.812 1274.74,584.84 1295.88,534.804 1317.02,504.325 1338.15,578.171 1359.29,686.737 1380.43,940.417 1401.57,1091.46 1422.7,1168.1 1443.84,1236.98 1464.98,1227.99 1486.12,1266.99 1507.25,1274.93 1528.39,1286.09 1549.53,1285.68 1570.67,1286.35 1591.8,1281.53 1612.94,1272.81 1634.08,1263.06 1655.22,1245.92 1676.35,1227.49 1697.49,1204.63 1718.63,1174.29 1739.77,1137.86 1760.9,1108.43 1782.04,1086.44 1803.18,1050.59 1824.32,1008.24 1845.46,928.961 1866.59,867.549 1887.73,801.081 1908.87,771.495 1930.01,800.091 1951.14,808.285 1972.28,742.678 1993.42,789.989 2014.56,860.53 2035.69,912.486 2056.83,881.283 2077.97,988.916 2099.11,1074.34 2120.24,1125.51 2141.38,1178.09 2162.52,1190.08 2183.66,1188.15 2204.79,1195.71 2225.93,1190.39 2247.07,1192.46 2268.21,1209.75 2289.34,1191.95 "/>
<path clip-path="url(#clip201)" d="M175.59 1302.18 L196.727 1332.23 L217.865 1358.74 L239.002 1378.37 L260.14 1389.21 L281.277 1397.09 L302.415 1404.83 L323.553 1411.91 L344.69 1416.17 L365.828 1417.97 L386.965 1418.73 L408.103 1418.09 L429.24 1418.21 L450.378 1417.9 L471.515 1416.33 L492.653 1412.22 L513.79 1406.1 L534.928 1396.75 L556.065 1386.43 L577.203 1370.53 L598.34 1337.11 L619.478 1300.54 L640.616 1244.44 L661.753 1175.24 L682.891 1141.8 L704.028 1107.28 L725.166 1046.9 L746.303 1099.53 L767.441 1164.36 L788.578 1195.68 L809.716 1242.28 L830.853 1278.91 L851.991 1299.91 L873.128 1324.85 L894.266 1350.62 L915.404 1369.98 L936.541 1388.79 L957.679 1400.97 L978.816 1409.79 L999.954 1415.21 L1021.09 1421.42 L1042.23 1425.86 L1063.37 1429.78 L1084.5 1431.26 L1105.64 1432.18 L1126.78 1433.27 L1147.92 1434.43 L1169.05 1434.72 L1190.19 1434.52 L1211.33 1434.09 L1232.47 1430.54 L1253.6 1423.81 L1274.74 1414.58 L1295.88 1406.59 L1317.02 1387.41 L1338.15 1352.33 L1359.29 1282.93 L1380.43 1222.33 L1401.57 1150.81 L1422.7 1184.64 L1443.84 1229.66 L1464.98 1280.14 L1486.12 1310.5 L1507.25 1331.55 L1528.39 1349.97 L1549.53 1363.86 L1570.67 1373.42 L1591.8 1382.12 L1612.94 1386.67 L1634.08 1394.13 L1655.22 1399.99 L1676.35 1402.79 L1697.49 1407.08 L1718.63 1410.84 L1739.77 1418.84 L1760.9 1423.08 L1782.04 1426.58 L1803.18 1430.77 L1824.32 1434.01 L1845.46 1437.55 L1866.59 1440.15 L1887.73 1441.77 L1908.87 1442.96 L1930.01 1443.84 L1951.14 1444.42 L1972.28 1444.9 L1993.42 1445.16 L2014.56 1445.57 L2035.69 1445.72 L2056.83 1445.57 L2077.97 1445.35 L2099.11 1444.94 L2120.24 1444.28 L2141.38 1442.53 L2162.52 1439.2 L2183.66 1431.83 L2204.79 1417.53 L2225.93 1399.84 L2247.07 1400.58 L2268.21 1402.6 L2289.34 1400.1 L2289.34 747.236 L2268.21 936.575 L2247.07 1057 L2225.93 1014.2 L2204.79 945.545 L2183.66 842.419 L2162.52 771.621 L2141.38 733.613 L2120.24 768.441 L2099.11 757.24 L2077.97 759.547 L2056.83 805.621 L2035.69 859.164 L2014.56 883.87 L1993.42 934.264 L1972.28 924.192 L1951.14 914.112 L1930.01 984.327 L1908.87 1067.63 L1887.73 1140.1 L1866.59 1222.96 L1845.46 1275.21 L1824.32 1302.46 L1803.18 1325.78 L1782.04 1343.64 L1760.9 1353.51 L1739.77 1346.69 L1718.63 1341.59 L1697.49 1333.25 L1676.35 1324.76 L1655.22 1316.43 L1634.08 1295.05 L1612.94 1239.02 L1591.8 1185.95 L1570.67 1097.93 L1549.53 1002.05 L1528.39 871.155 L1507.25 730.894 L1486.12 600.917 L1464.98 433.483 L1443.84 321.594 L1422.7 444.418 L1401.57 403.197 L1380.43 510.385 L1359.29 718.934 L1338.15 858.688 L1317.02 988.724 L1295.88 1075.7 L1274.74 1140.98 L1253.6 1147.02 L1232.47 1155.23 L1211.33 1137.71 L1190.19 1175.21 L1169.05 1203.59 L1147.92 1233.08 L1126.78 1250.53 L1105.64 1273.3 L1084.5 1287.04 L1063.37 1301.83 L1042.23 1308.43 L1021.09 1315.86 L999.954 1321.73 L978.816 1314.9 L957.679 1295.73 L936.541 1262.23 L915.404 1217.23 L894.266 1170.57 L873.128 1118.51 L851.991 1057.05 L830.853 964.81 L809.716 864.965 L788.578 778.594 L767.441 752.207 L746.303 804.372 L725.166 783.278 L704.028 704.226 L682.891 655.257 L661.753 631.475 L640.616 651.627 L619.478 804.439 L598.34 1013.69 L577.203 1147.82 L556.065 1234.39 L534.928 1294.09 L513.79 1325.32 L492.653 1352.28 L471.515 1362.86 L450.378 1368.57 L429.24 1377.05 L408.103 1381.28 L386.965 1383.79 L365.828 1387.29 L344.69 1384.74 L323.553 1379.57 L302.415 1370.94 L281.277 1368.24 L260.14 1368.54 L239.002 1355.24 L217.865 1342.59 L196.727 1323.44 L175.59 1302.18  Z" fill="#e26f46" fill-rule="evenodd" fill-opacity="0.5"/>
<polyline clip-path="url(#clip201)" style="stroke:#e26f46; stroke-linecap:round; stroke-linejoin:round; stroke-width:12; stroke-opacity:1; fill:none" points="175.59,1302.18 196.727,1329.63 217.865,1349.79 239.002,1363.06 260.14,1376.12 281.277,1385.36 302.415,1394.28 323.553,1399.55 344.69,1404.68 365.828,1408.78 386.965,1410.8 408.103,1412.65 429.24,1412.46 450.378,1412.29 471.515,1407.06 492.653,1395.43 513.79,1379.56 534.928,1350.75 556.065,1316.32 577.203,1252.08 598.34,1157.06 619.478,1046.46 640.616,958.552 661.753,884.924 682.891,857.395 704.028,824.124 725.166,904.629 746.303,947.395 767.441,1017.34 788.578,1100.23 809.716,1163.94 830.853,1225.22 851.991,1264.81 873.128,1297.68 894.266,1327.24 915.404,1346.96 936.541,1363.59 957.679,1375.95 978.816,1388.4 999.954,1397.88 1021.09,1405.43 1042.23,1408.76 1063.37,1410.36 1084.5,1410.94 1105.64,1410.35 1126.78,1410.16 1147.92,1409.57 1169.05,1406.88 1190.19,1402.07 1211.33,1394.84 1232.47,1376.15 1253.6,1350.25 1274.74,1309.55 1295.88,1263.32 1317.02,1169.97 1338.15,1089.14 1359.29,951.973 1380.43,944.719 1401.57,913.36 1422.7,880.091 1443.84,909.365 1464.98,950.817 1486.12,1021.22 1507.25,1085.82 1528.39,1137.25 1549.53,1185.06 1570.67,1237.67 1591.8,1273.8 1612.94,1302.95 1634.08,1325.55 1655.22,1360.66 1676.35,1374.1 1697.49,1381.35 1718.63,1390.94 1739.77,1397.79 1760.9,1396.7 1782.04,1398.3 1803.18,1399.83 1824.32,1400.36 1845.46,1397.57 1866.59,1394.03 1887.73,1385.7 1908.87,1376.99 1930.01,1363.95 1951.14,1345.23 1972.28,1312.63 1993.42,1245.71 2014.56,1133.98 2035.69,1078.82 2056.83,1077.01 2077.97,1107.65 2099.11,1061.82 2120.24,1110.21 2141.38,1154.13 2162.52,1172.71 2183.66,1178.92 2204.79,1217.93 2225.93,1244.26 2247.07,1248.74 2268.21,1292.1 2289.34,1324.49 "/>
</svg>
