<?xml version="1.0" encoding="utf-8"?>
<svg xmlns="http://www.w3.org/2000/svg" xmlns:xlink="http://www.w3.org/1999/xlink" width="600" height="400" viewBox="0 0 2400 1600">
<defs>
  <clipPath id="clip290">
    <rect x="0" y="0" width="2400" height="1600"/>
  </clipPath>
</defs>
<path clip-path="url(#clip290)" d="M0 1600 L2400 1600 L2400 0 L0 0  Z" fill="#ffffff" fill-rule="evenodd" fill-opacity="1"/>
<defs>
  <clipPath id="clip291">
    <rect x="186" y="47" width="2167" height="1440"/>
  </clipPath>
</defs>
<path clip-path="url(#clip290)" d="M186.274 1486.45 L2352.76 1486.45 L2352.76 47.2441 L186.274 47.2441  Z" fill="#ffffff" fill-rule="evenodd" fill-opacity="1"/>
<polyline clip-path="url(#clip291)" style="stroke:#000000; stroke-linecap:round; stroke-linejoin:round; stroke-width:2; stroke-opacity:0.1; fill:none" points="247.59,1486.45 247.59,47.2441 "/>
<polyline clip-path="url(#clip291)" style="stroke:#000000; stroke-linecap:round; stroke-linejoin:round; stroke-width:2; stroke-opacity:0.1; fill:none" points="758.552,1486.45 758.552,47.2441 "/>
<polyline clip-path="url(#clip291)" style="stroke:#000000; stroke-linecap:round; stroke-linejoin:round; stroke-width:2; stroke-opacity:0.1; fill:none" points="1269.51,1486.45 1269.51,47.2441 "/>
<polyline clip-path="url(#clip291)" style="stroke:#000000; stroke-linecap:round; stroke-linejoin:round; stroke-width:2; stroke-opacity:0.1; fill:none" points="1780.48,1486.45 1780.48,47.2441 "/>
<polyline clip-path="url(#clip291)" style="stroke:#000000; stroke-linecap:round; stroke-linejoin:round; stroke-width:2; stroke-opacity:0.1; fill:none" points="2291.44,1486.45 2291.44,47.2441 "/>
<polyline clip-path="url(#clip291)" style="stroke:#000000; stroke-linecap:round; stroke-linejoin:round; stroke-width:2; stroke-opacity:0.1; fill:none" points="186.274,1384.48 2352.76,1384.48 "/>
<polyline clip-path="url(#clip291)" style="stroke:#000000; stroke-linecap:round; stroke-linejoin:round; stroke-width:2; stroke-opacity:0.1; fill:none" points="186.274,1116.5 2352.76,1116.5 "/>
<polyline clip-path="url(#clip291)" style="stroke:#000000; stroke-linecap:round; stroke-linejoin:round; stroke-width:2; stroke-opacity:0.1; fill:none" points="186.274,848.514 2352.76,848.514 "/>
<polyline clip-path="url(#clip291)" style="stroke:#000000; stroke-linecap:round; stroke-linejoin:round; stroke-width:2; stroke-opacity:0.1; fill:none" points="186.274,580.53 2352.76,580.53 "/>
<polyline clip-path="url(#clip291)" style="stroke:#000000; stroke-linecap:round; stroke-linejoin:round; stroke-width:2; stroke-opacity:0.1; fill:none" points="186.274,312.546 2352.76,312.546 "/>
<polyline clip-path="url(#clip290)" style="stroke:#000000; stroke-linecap:round; stroke-linejoin:round; stroke-width:4; stroke-opacity:1; fill:none" points="186.274,1486.45 2352.76,1486.45 "/>
<polyline clip-path="url(#clip290)" style="stroke:#000000; stroke-linecap:round; stroke-linejoin:round; stroke-width:4; stroke-opacity:1; fill:none" points="247.59,1486.45 247.59,1467.55 "/>
<polyline clip-path="url(#clip290)" style="stroke:#000000; stroke-linecap:round; stroke-linejoin:round; stroke-width:4; stroke-opacity:1; fill:none" points="758.552,1486.45 758.552,1467.55 "/>
<polyline clip-path="url(#clip290)" style="stroke:#000000; stroke-linecap:round; stroke-linejoin:round; stroke-width:4; stroke-opacity:1; fill:none" points="1269.51,1486.45 1269.51,1467.55 "/>
<polyline clip-path="url(#clip290)" style="stroke:#000000; stroke-linecap:round; stroke-linejoin:round; stroke-width:4; stroke-opacity:1; fill:none" points="1780.48,1486.45 1780.48,1467.55 "/>
<polyline clip-path="url(#clip290)" style="stroke:#000000; stroke-linecap:round; stroke-linejoin:round; stroke-width:4; stroke-opacity:1; fill:none" points="2291.44,1486.45 2291.44,1467.55 "/>
<path clip-path="url(#clip290)" d="M209.893 1517.37 Q206.282 1517.37 204.453 1520.93 Q202.648 1524.47 202.648 1531.6 Q202.648 1538.71 204.453 1542.27 Q206.282 1545.82 209.893 1545.82 Q213.527 1545.82 215.333 1542.27 Q217.161 1538.71 217.161 1531.6 Q217.161 1524.47 215.333 1520.93 Q213.527 1517.37 209.893 1517.37 M209.893 1513.66 Q215.703 1513.66 218.759 1518.27 Q221.837 1522.85 221.837 1531.6 Q221.837 1540.33 218.759 1544.94 Q215.703 1549.52 209.893 1549.52 Q204.083 1549.52 201.004 1544.94 Q197.949 1540.33 197.949 1531.6 Q197.949 1522.85 201.004 1518.27 Q204.083 1513.66 209.893 1513.66 Z" fill="#000000" fill-rule="nonzero" fill-opacity="1" /><path clip-path="url(#clip290)" d="M230.055 1542.97 L234.939 1542.97 L234.939 1548.85 L230.055 1548.85 L230.055 1542.97 Z" fill="#000000" fill-rule="nonzero" fill-opacity="1" /><path clip-path="url(#clip290)" d="M255.124 1517.37 Q251.513 1517.37 249.684 1520.93 Q247.879 1524.47 247.879 1531.6 Q247.879 1538.71 249.684 1542.27 Q251.513 1545.82 255.124 1545.82 Q258.758 1545.82 260.564 1542.27 Q262.393 1538.71 262.393 1531.6 Q262.393 1524.47 260.564 1520.93 Q258.758 1517.37 255.124 1517.37 M255.124 1513.66 Q260.934 1513.66 263.99 1518.27 Q267.069 1522.85 267.069 1531.6 Q267.069 1540.33 263.99 1544.94 Q260.934 1549.52 255.124 1549.52 Q249.314 1549.52 246.235 1544.94 Q243.18 1540.33 243.18 1531.6 Q243.18 1522.85 246.235 1518.27 Q249.314 1513.66 255.124 1513.66 Z" fill="#000000" fill-rule="nonzero" fill-opacity="1" /><path clip-path="url(#clip290)" d="M285.286 1517.37 Q281.675 1517.37 279.846 1520.93 Q278.041 1524.47 278.041 1531.6 Q278.041 1538.71 279.846 1542.27 Q281.675 1545.82 285.286 1545.82 Q288.92 1545.82 290.726 1542.27 Q292.555 1538.71 292.555 1531.6 Q292.555 1524.47 290.726 1520.93 Q288.92 1517.37 285.286 1517.37 M285.286 1513.66 Q291.096 1513.66 294.152 1518.27 Q297.23 1522.85 297.23 1531.6 Q297.23 1540.33 294.152 1544.94 Q291.096 1549.52 285.286 1549.52 Q279.476 1549.52 276.397 1544.94 Q273.342 1540.33 273.342 1531.6 Q273.342 1522.85 276.397 1518.27 Q279.476 1513.66 285.286 1513.66 Z" fill="#000000" fill-rule="nonzero" fill-opacity="1" /><path clip-path="url(#clip290)" d="M721.353 1517.37 Q717.742 1517.37 715.914 1520.93 Q714.108 1524.47 714.108 1531.6 Q714.108 1538.71 715.914 1542.27 Q717.742 1545.82 721.353 1545.82 Q724.988 1545.82 726.793 1542.27 Q728.622 1538.71 728.622 1531.6 Q728.622 1524.47 726.793 1520.93 Q724.988 1517.37 721.353 1517.37 M721.353 1513.66 Q727.164 1513.66 730.219 1518.27 Q733.298 1522.85 733.298 1531.6 Q733.298 1540.33 730.219 1544.94 Q727.164 1549.52 721.353 1549.52 Q715.543 1549.52 712.465 1544.94 Q709.409 1540.33 709.409 1531.6 Q709.409 1522.85 712.465 1518.27 Q715.543 1513.66 721.353 1513.66 Z" fill="#000000" fill-rule="nonzero" fill-opacity="1" /><path clip-path="url(#clip290)" d="M741.515 1542.97 L746.4 1542.97 L746.4 1548.85 L741.515 1548.85 L741.515 1542.97 Z" fill="#000000" fill-rule="nonzero" fill-opacity="1" /><path clip-path="url(#clip290)" d="M760.612 1544.91 L776.932 1544.91 L776.932 1548.85 L754.987 1548.85 L754.987 1544.91 Q757.649 1542.16 762.233 1537.53 Q766.839 1532.88 768.02 1531.53 Q770.265 1529.01 771.145 1527.27 Q772.048 1525.51 772.048 1523.82 Q772.048 1521.07 770.103 1519.33 Q768.182 1517.6 765.08 1517.6 Q762.881 1517.6 760.427 1518.36 Q757.997 1519.13 755.219 1520.68 L755.219 1515.95 Q758.043 1514.82 760.497 1514.24 Q762.95 1513.66 764.987 1513.66 Q770.358 1513.66 773.552 1516.35 Q776.747 1519.03 776.747 1523.52 Q776.747 1525.65 775.936 1527.57 Q775.149 1529.47 773.043 1532.07 Q772.464 1532.74 769.362 1535.95 Q766.261 1539.15 760.612 1544.91 Z" fill="#000000" fill-rule="nonzero" fill-opacity="1" /><path clip-path="url(#clip290)" d="M786.793 1514.29 L805.149 1514.29 L805.149 1518.22 L791.075 1518.22 L791.075 1526.7 Q792.094 1526.35 793.112 1526.19 Q794.131 1526 795.149 1526 Q800.936 1526 804.316 1529.17 Q807.695 1532.34 807.695 1537.76 Q807.695 1543.34 804.223 1546.44 Q800.751 1549.52 794.432 1549.52 Q792.256 1549.52 789.987 1549.15 Q787.742 1548.78 785.335 1548.04 L785.335 1543.34 Q787.418 1544.47 789.64 1545.03 Q791.862 1545.58 794.339 1545.58 Q798.344 1545.58 800.682 1543.48 Q803.02 1541.37 803.02 1537.76 Q803.02 1534.15 800.682 1532.04 Q798.344 1529.94 794.339 1529.94 Q792.464 1529.94 790.589 1530.35 Q788.737 1530.77 786.793 1531.65 L786.793 1514.29 Z" fill="#000000" fill-rule="nonzero" fill-opacity="1" /><path clip-path="url(#clip290)" d="M1231.82 1517.37 Q1228.21 1517.37 1226.38 1520.93 Q1224.57 1524.47 1224.57 1531.6 Q1224.57 1538.71 1226.38 1542.27 Q1228.21 1545.82 1231.82 1545.82 Q1235.45 1545.82 1237.26 1542.27 Q1239.09 1538.71 1239.09 1531.6 Q1239.09 1524.47 1237.26 1520.93 Q1235.45 1517.37 1231.82 1517.37 M1231.82 1513.66 Q1237.63 1513.66 1240.68 1518.27 Q1243.76 1522.85 1243.76 1531.6 Q1243.76 1540.33 1240.68 1544.94 Q1237.63 1549.52 1231.82 1549.52 Q1226.01 1549.52 1222.93 1544.94 Q1219.87 1540.33 1219.87 1531.6 Q1219.87 1522.85 1222.93 1518.27 Q1226.01 1513.66 1231.82 1513.66 Z" fill="#000000" fill-rule="nonzero" fill-opacity="1" /><path clip-path="url(#clip290)" d="M1251.98 1542.97 L1256.86 1542.97 L1256.86 1548.85 L1251.98 1548.85 L1251.98 1542.97 Z" fill="#000000" fill-rule="nonzero" fill-opacity="1" /><path clip-path="url(#clip290)" d="M1267.1 1514.29 L1285.45 1514.29 L1285.45 1518.22 L1271.38 1518.22 L1271.38 1526.7 Q1272.4 1526.35 1273.42 1526.19 Q1274.43 1526 1275.45 1526 Q1281.24 1526 1284.62 1529.17 Q1288 1532.34 1288 1537.76 Q1288 1543.34 1284.53 1546.44 Q1281.05 1549.52 1274.73 1549.52 Q1272.56 1549.52 1270.29 1549.15 Q1268.05 1548.78 1265.64 1548.04 L1265.64 1543.34 Q1267.72 1544.47 1269.94 1545.03 Q1272.17 1545.58 1274.64 1545.58 Q1278.65 1545.58 1280.98 1543.48 Q1283.32 1541.37 1283.32 1537.76 Q1283.32 1534.15 1280.98 1532.04 Q1278.65 1529.94 1274.64 1529.94 Q1272.77 1529.94 1270.89 1530.35 Q1269.04 1530.77 1267.1 1531.65 L1267.1 1514.29 Z" fill="#000000" fill-rule="nonzero" fill-opacity="1" /><path clip-path="url(#clip290)" d="M1307.21 1517.37 Q1303.6 1517.37 1301.77 1520.93 Q1299.97 1524.47 1299.97 1531.6 Q1299.97 1538.71 1301.77 1542.27 Q1303.6 1545.82 1307.21 1545.82 Q1310.85 1545.82 1312.65 1542.27 Q1314.48 1538.71 1314.48 1531.6 Q1314.48 1524.47 1312.65 1520.93 Q1310.85 1517.37 1307.21 1517.37 M1307.21 1513.66 Q1313.02 1513.66 1316.08 1518.27 Q1319.16 1522.85 1319.16 1531.6 Q1319.16 1540.33 1316.08 1544.94 Q1313.02 1549.52 1307.21 1549.52 Q1301.4 1549.52 1298.32 1544.94 Q1295.27 1540.33 1295.27 1531.6 Q1295.27 1522.85 1298.32 1518.27 Q1301.4 1513.66 1307.21 1513.66 Z" fill="#000000" fill-rule="nonzero" fill-opacity="1" /><path clip-path="url(#clip290)" d="M1743.28 1517.37 Q1739.67 1517.37 1737.84 1520.93 Q1736.03 1524.47 1736.03 1531.6 Q1736.03 1538.71 1737.84 1542.27 Q1739.67 1545.82 1743.28 1545.82 Q1746.91 1545.82 1748.72 1542.27 Q1750.55 1538.71 1750.55 1531.6 Q1750.55 1524.47 1748.72 1520.93 Q1746.91 1517.37 1743.28 1517.37 M1743.28 1513.66 Q1749.09 1513.66 1752.14 1518.27 Q1755.22 1522.85 1755.22 1531.6 Q1755.22 1540.33 1752.14 1544.94 Q1749.09 1549.52 1743.28 1549.52 Q1737.47 1549.52 1734.39 1544.94 Q1731.33 1540.33 1731.33 1531.6 Q1731.33 1522.85 1734.39 1518.27 Q1737.47 1513.66 1743.28 1513.66 Z" fill="#000000" fill-rule="nonzero" fill-opacity="1" /><path clip-path="url(#clip290)" d="M1763.44 1542.97 L1768.32 1542.97 L1768.32 1548.85 L1763.44 1548.85 L1763.44 1542.97 Z" fill="#000000" fill-rule="nonzero" fill-opacity="1" /><path clip-path="url(#clip290)" d="M1777.33 1514.29 L1799.55 1514.29 L1799.55 1516.28 L1787.01 1548.85 L1782.12 1548.85 L1793.93 1518.22 L1777.33 1518.22 L1777.33 1514.29 Z" fill="#000000" fill-rule="nonzero" fill-opacity="1" /><path clip-path="url(#clip290)" d="M1808.72 1514.29 L1827.07 1514.29 L1827.07 1518.22 L1813 1518.22 L1813 1526.7 Q1814.02 1526.35 1815.04 1526.19 Q1816.06 1526 1817.07 1526 Q1822.86 1526 1826.24 1529.17 Q1829.62 1532.34 1829.62 1537.76 Q1829.62 1543.34 1826.15 1546.44 Q1822.68 1549.52 1816.36 1549.52 Q1814.18 1549.52 1811.91 1549.15 Q1809.67 1548.78 1807.26 1548.04 L1807.26 1543.34 Q1809.34 1544.47 1811.57 1545.03 Q1813.79 1545.58 1816.26 1545.58 Q1820.27 1545.58 1822.61 1543.48 Q1824.95 1541.37 1824.95 1537.76 Q1824.95 1534.15 1822.61 1532.04 Q1820.27 1529.94 1816.26 1529.94 Q1814.39 1529.94 1812.51 1530.35 Q1810.66 1530.77 1808.72 1531.65 L1808.72 1514.29 Z" fill="#000000" fill-rule="nonzero" fill-opacity="1" /><path clip-path="url(#clip290)" d="M2243.51 1544.91 L2251.15 1544.91 L2251.15 1518.55 L2242.84 1520.21 L2242.84 1515.95 L2251.1 1514.29 L2255.78 1514.29 L2255.78 1544.91 L2263.42 1544.91 L2263.42 1548.85 L2243.51 1548.85 L2243.51 1544.91 Z" fill="#000000" fill-rule="nonzero" fill-opacity="1" /><path clip-path="url(#clip290)" d="M2272.86 1542.97 L2277.75 1542.97 L2277.75 1548.85 L2272.86 1548.85 L2272.86 1542.97 Z" fill="#000000" fill-rule="nonzero" fill-opacity="1" /><path clip-path="url(#clip290)" d="M2297.93 1517.37 Q2294.32 1517.37 2292.49 1520.93 Q2290.69 1524.47 2290.69 1531.6 Q2290.69 1538.71 2292.49 1542.27 Q2294.32 1545.82 2297.93 1545.82 Q2301.57 1545.82 2303.37 1542.27 Q2305.2 1538.71 2305.2 1531.6 Q2305.2 1524.47 2303.37 1520.93 Q2301.57 1517.37 2297.93 1517.37 M2297.93 1513.66 Q2303.74 1513.66 2306.8 1518.27 Q2309.88 1522.85 2309.88 1531.6 Q2309.88 1540.33 2306.8 1544.94 Q2303.74 1549.52 2297.93 1549.52 Q2292.12 1549.52 2289.04 1544.94 Q2285.99 1540.33 2285.99 1531.6 Q2285.99 1522.85 2289.04 1518.27 Q2292.12 1513.66 2297.93 1513.66 Z" fill="#000000" fill-rule="nonzero" fill-opacity="1" /><path clip-path="url(#clip290)" d="M2328.1 1517.37 Q2324.48 1517.37 2322.66 1520.93 Q2320.85 1524.47 2320.85 1531.6 Q2320.85 1538.71 2322.66 1542.27 Q2324.48 1545.82 2328.1 1545.82 Q2331.73 1545.82 2333.54 1542.27 Q2335.36 1538.71 2335.36 1531.6 Q2335.36 1524.47 2333.54 1520.93 Q2331.73 1517.37 2328.1 1517.37 M2328.1 1513.66 Q2333.91 1513.66 2336.96 1518.27 Q2340.04 1522.85 2340.04 1531.6 Q2340.04 1540.33 2336.96 1544.94 Q2333.91 1549.52 2328.1 1549.52 Q2322.29 1549.52 2319.21 1544.94 Q2316.15 1540.33 2316.15 1531.6 Q2316.15 1522.85 2319.21 1518.27 Q2322.29 1513.66 2328.1 1513.66 Z" fill="#000000" fill-rule="nonzero" fill-opacity="1" /><polyline clip-path="url(#clip290)" style="stroke:#000000; stroke-linecap:round; stroke-linejoin:round; stroke-width:4; stroke-opacity:1; fill:none" points="186.274,1486.45 186.274,47.2441 "/>
<polyline clip-path="url(#clip290)" style="stroke:#000000; stroke-linecap:round; stroke-linejoin:round; stroke-width:4; stroke-opacity:1; fill:none" points="186.274,1384.48 205.172,1384.48 "/>
<polyline clip-path="url(#clip290)" style="stroke:#000000; stroke-linecap:round; stroke-linejoin:round; stroke-width:4; stroke-opacity:1; fill:none" points="186.274,1116.5 205.172,1116.5 "/>
<polyline clip-path="url(#clip290)" style="stroke:#000000; stroke-linecap:round; stroke-linejoin:round; stroke-width:4; stroke-opacity:1; fill:none" points="186.274,848.514 205.172,848.514 "/>
<polyline clip-path="url(#clip290)" style="stroke:#000000; stroke-linecap:round; stroke-linejoin:round; stroke-width:4; stroke-opacity:1; fill:none" points="186.274,580.53 205.172,580.53 "/>
<polyline clip-path="url(#clip290)" style="stroke:#000000; stroke-linecap:round; stroke-linejoin:round; stroke-width:4; stroke-opacity:1; fill:none" points="186.274,312.546 205.172,312.546 "/>
<path clip-path="url(#clip290)" d="M62.9365 1370.28 Q59.3254 1370.28 57.4967 1373.85 Q55.6912 1377.39 55.6912 1384.52 Q55.6912 1391.62 57.4967 1395.19 Q59.3254 1398.73 62.9365 1398.73 Q66.5707 1398.73 68.3763 1395.19 Q70.205 1391.62 70.205 1384.52 Q70.205 1377.39 68.3763 1373.85 Q66.5707 1370.28 62.9365 1370.28 M62.9365 1366.58 Q68.7467 1366.58 71.8022 1371.18 Q74.8809 1375.77 74.8809 1384.52 Q74.8809 1393.24 71.8022 1397.85 Q68.7467 1402.43 62.9365 1402.43 Q57.1264 1402.43 54.0477 1397.85 Q50.9921 1393.24 50.9921 1384.52 Q50.9921 1375.77 54.0477 1371.18 Q57.1264 1366.58 62.9365 1366.58 Z" fill="#000000" fill-rule="nonzero" fill-opacity="1" /><path clip-path="url(#clip290)" d="M83.0984 1395.88 L87.9827 1395.88 L87.9827 1401.76 L83.0984 1401.76 L83.0984 1395.88 Z" fill="#000000" fill-rule="nonzero" fill-opacity="1" /><path clip-path="url(#clip290)" d="M98.2141 1367.2 L116.57 1367.2 L116.57 1371.14 L102.496 1371.14 L102.496 1379.61 Q103.515 1379.26 104.534 1379.1 Q105.552 1378.92 106.571 1378.92 Q112.358 1378.92 115.737 1382.09 Q119.117 1385.26 119.117 1390.67 Q119.117 1396.25 115.645 1399.36 Q112.172 1402.43 105.853 1402.43 Q103.677 1402.43 101.409 1402.06 Q99.1632 1401.69 96.7558 1400.95 L96.7558 1396.25 Q98.8391 1397.39 101.061 1397.94 Q103.284 1398.5 105.76 1398.5 Q109.765 1398.5 112.103 1396.39 Q114.441 1394.29 114.441 1390.67 Q114.441 1387.06 112.103 1384.96 Q109.765 1382.85 105.76 1382.85 Q103.885 1382.85 102.01 1383.27 Q100.159 1383.68 98.2141 1384.56 L98.2141 1367.2 Z" fill="#000000" fill-rule="nonzero" fill-opacity="1" /><path clip-path="url(#clip290)" d="M138.33 1370.28 Q134.719 1370.28 132.89 1373.85 Q131.084 1377.39 131.084 1384.52 Q131.084 1391.62 132.89 1395.19 Q134.719 1398.73 138.33 1398.73 Q141.964 1398.73 143.769 1395.19 Q145.598 1391.62 145.598 1384.52 Q145.598 1377.39 143.769 1373.85 Q141.964 1370.28 138.33 1370.28 M138.33 1366.58 Q144.14 1366.58 147.195 1371.18 Q150.274 1375.77 150.274 1384.52 Q150.274 1393.24 147.195 1397.85 Q144.14 1402.43 138.33 1402.43 Q132.519 1402.43 129.441 1397.85 Q126.385 1393.24 126.385 1384.52 Q126.385 1375.77 129.441 1371.18 Q132.519 1366.58 138.33 1366.58 Z" fill="#000000" fill-rule="nonzero" fill-opacity="1" /><path clip-path="url(#clip290)" d="M63.9319 1102.3 Q60.3208 1102.3 58.4921 1105.86 Q56.6865 1109.4 56.6865 1116.53 Q56.6865 1123.64 58.4921 1127.2 Q60.3208 1130.75 63.9319 1130.75 Q67.5661 1130.75 69.3717 1127.2 Q71.2004 1123.64 71.2004 1116.53 Q71.2004 1109.4 69.3717 1105.86 Q67.5661 1102.3 63.9319 1102.3 M63.9319 1098.59 Q69.742 1098.59 72.7976 1103.2 Q75.8763 1107.78 75.8763 1116.53 Q75.8763 1125.26 72.7976 1129.87 Q69.742 1134.45 63.9319 1134.45 Q58.1217 1134.45 55.043 1129.87 Q51.9875 1125.26 51.9875 1116.53 Q51.9875 1107.78 55.043 1103.2 Q58.1217 1098.59 63.9319 1098.59 Z" fill="#000000" fill-rule="nonzero" fill-opacity="1" /><path clip-path="url(#clip290)" d="M84.0938 1127.9 L88.978 1127.9 L88.978 1133.78 L84.0938 1133.78 L84.0938 1127.9 Z" fill="#000000" fill-rule="nonzero" fill-opacity="1" /><path clip-path="url(#clip290)" d="M97.9826 1099.22 L120.205 1099.22 L120.205 1101.21 L107.658 1133.78 L102.774 1133.78 L114.58 1103.15 L97.9826 1103.15 L97.9826 1099.22 Z" fill="#000000" fill-rule="nonzero" fill-opacity="1" /><path clip-path="url(#clip290)" d="M129.371 1099.22 L147.728 1099.22 L147.728 1103.15 L133.654 1103.15 L133.654 1111.63 Q134.672 1111.28 135.691 1111.12 Q136.709 1110.93 137.728 1110.93 Q143.515 1110.93 146.894 1114.1 Q150.274 1117.27 150.274 1122.69 Q150.274 1128.27 146.802 1131.37 Q143.33 1134.45 137.01 1134.45 Q134.834 1134.45 132.566 1134.08 Q130.32 1133.71 127.913 1132.97 L127.913 1128.27 Q129.996 1129.4 132.219 1129.96 Q134.441 1130.51 136.918 1130.51 Q140.922 1130.51 143.26 1128.41 Q145.598 1126.3 145.598 1122.69 Q145.598 1119.08 143.26 1116.97 Q140.922 1114.87 136.918 1114.87 Q135.043 1114.87 133.168 1115.28 Q131.316 1115.7 129.371 1116.58 L129.371 1099.22 Z" fill="#000000" fill-rule="nonzero" fill-opacity="1" /><path clip-path="url(#clip290)" d="M53.7467 861.859 L61.3856 861.859 L61.3856 835.493 L53.0754 837.16 L53.0754 832.901 L61.3393 831.234 L66.0152 831.234 L66.0152 861.859 L73.654 861.859 L73.654 865.794 L53.7467 865.794 L53.7467 861.859 Z" fill="#000000" fill-rule="nonzero" fill-opacity="1" /><path clip-path="url(#clip290)" d="M83.0984 859.915 L87.9827 859.915 L87.9827 865.794 L83.0984 865.794 L83.0984 859.915 Z" fill="#000000" fill-rule="nonzero" fill-opacity="1" /><path clip-path="url(#clip290)" d="M108.168 834.313 Q104.557 834.313 102.728 837.878 Q100.922 841.419 100.922 848.549 Q100.922 855.655 102.728 859.22 Q104.557 862.762 108.168 862.762 Q111.802 862.762 113.608 859.22 Q115.436 855.655 115.436 848.549 Q115.436 841.419 113.608 837.878 Q111.802 834.313 108.168 834.313 M108.168 830.609 Q113.978 830.609 117.033 835.216 Q120.112 839.799 120.112 848.549 Q120.112 857.276 117.033 861.882 Q113.978 866.465 108.168 866.465 Q102.358 866.465 99.2789 861.882 Q96.2234 857.276 96.2234 848.549 Q96.2234 839.799 99.2789 835.216 Q102.358 830.609 108.168 830.609 Z" fill="#000000" fill-rule="nonzero" fill-opacity="1" /><path clip-path="url(#clip290)" d="M138.33 834.313 Q134.719 834.313 132.89 837.878 Q131.084 841.419 131.084 848.549 Q131.084 855.655 132.89 859.22 Q134.719 862.762 138.33 862.762 Q141.964 862.762 143.769 859.22 Q145.598 855.655 145.598 848.549 Q145.598 841.419 143.769 837.878 Q141.964 834.313 138.33 834.313 M138.33 830.609 Q144.14 830.609 147.195 835.216 Q150.274 839.799 150.274 848.549 Q150.274 857.276 147.195 861.882 Q144.14 866.465 138.33 866.465 Q132.519 866.465 129.441 861.882 Q126.385 857.276 126.385 848.549 Q126.385 839.799 129.441 835.216 Q132.519 830.609 138.33 830.609 Z" fill="#000000" fill-rule="nonzero" fill-opacity="1" /><path clip-path="url(#clip290)" d="M54.7421 593.875 L62.381 593.875 L62.381 567.509 L54.0708 569.176 L54.0708 564.917 L62.3347 563.25 L67.0106 563.25 L67.0106 593.875 L74.6494 593.875 L74.6494 597.81 L54.7421 597.81 L54.7421 593.875 Z" fill="#000000" fill-rule="nonzero" fill-opacity="1" /><path clip-path="url(#clip290)" d="M84.0938 591.93 L88.978 591.93 L88.978 597.81 L84.0938 597.81 L84.0938 591.93 Z" fill="#000000" fill-rule="nonzero" fill-opacity="1" /><path clip-path="url(#clip290)" d="M103.191 593.875 L119.51 593.875 L119.51 597.81 L97.566 597.81 L97.566 593.875 Q100.228 591.12 104.811 586.49 Q109.418 581.838 110.598 580.495 Q112.844 577.972 113.723 576.236 Q114.626 574.477 114.626 572.787 Q114.626 570.032 112.682 568.296 Q110.76 566.56 107.658 566.56 Q105.459 566.56 103.006 567.324 Q100.575 568.088 97.7974 569.639 L97.7974 564.917 Q100.621 563.782 103.075 563.204 Q105.529 562.625 107.566 562.625 Q112.936 562.625 116.131 565.31 Q119.325 567.995 119.325 572.486 Q119.325 574.616 118.515 576.537 Q117.728 578.435 115.621 581.028 Q115.043 581.699 111.941 584.916 Q108.839 588.111 103.191 593.875 Z" fill="#000000" fill-rule="nonzero" fill-opacity="1" /><path clip-path="url(#clip290)" d="M129.371 563.25 L147.728 563.25 L147.728 567.185 L133.654 567.185 L133.654 575.657 Q134.672 575.31 135.691 575.148 Q136.709 574.963 137.728 574.963 Q143.515 574.963 146.894 578.134 Q150.274 581.305 150.274 586.722 Q150.274 592.301 146.802 595.402 Q143.33 598.481 137.01 598.481 Q134.834 598.481 132.566 598.111 Q130.32 597.74 127.913 597 L127.913 592.301 Q129.996 593.435 132.219 593.99 Q134.441 594.546 136.918 594.546 Q140.922 594.546 143.26 592.44 Q145.598 590.333 145.598 586.722 Q145.598 583.111 143.26 581.004 Q140.922 578.898 136.918 578.898 Q135.043 578.898 133.168 579.315 Q131.316 579.731 129.371 580.611 L129.371 563.25 Z" fill="#000000" fill-rule="nonzero" fill-opacity="1" /><path clip-path="url(#clip290)" d="M53.7467 325.89 L61.3856 325.89 L61.3856 299.525 L53.0754 301.191 L53.0754 296.932 L61.3393 295.266 L66.0152 295.266 L66.0152 325.89 L73.654 325.89 L73.654 329.826 L53.7467 329.826 L53.7467 325.89 Z" fill="#000000" fill-rule="nonzero" fill-opacity="1" /><path clip-path="url(#clip290)" d="M83.0984 323.946 L87.9827 323.946 L87.9827 329.826 L83.0984 329.826 L83.0984 323.946 Z" fill="#000000" fill-rule="nonzero" fill-opacity="1" /><path clip-path="url(#clip290)" d="M98.2141 295.266 L116.57 295.266 L116.57 299.201 L102.496 299.201 L102.496 307.673 Q103.515 307.326 104.534 307.164 Q105.552 306.978 106.571 306.978 Q112.358 306.978 115.737 310.15 Q119.117 313.321 119.117 318.738 Q119.117 324.316 115.645 327.418 Q112.172 330.497 105.853 330.497 Q103.677 330.497 101.409 330.126 Q99.1632 329.756 96.7558 329.015 L96.7558 324.316 Q98.8391 325.451 101.061 326.006 Q103.284 326.562 105.76 326.562 Q109.765 326.562 112.103 324.455 Q114.441 322.349 114.441 318.738 Q114.441 315.127 112.103 313.02 Q109.765 310.914 105.76 310.914 Q103.885 310.914 102.01 311.33 Q100.159 311.747 98.2141 312.627 L98.2141 295.266 Z" fill="#000000" fill-rule="nonzero" fill-opacity="1" /><path clip-path="url(#clip290)" d="M138.33 298.344 Q134.719 298.344 132.89 301.909 Q131.084 305.451 131.084 312.58 Q131.084 319.687 132.89 323.251 Q134.719 326.793 138.33 326.793 Q141.964 326.793 143.769 323.251 Q145.598 319.687 145.598 312.58 Q145.598 305.451 143.769 301.909 Q141.964 298.344 138.33 298.344 M138.33 294.641 Q144.14 294.641 147.195 299.247 Q150.274 303.83 150.274 312.58 Q150.274 321.307 147.195 325.913 Q144.14 330.497 138.33 330.497 Q132.519 330.497 129.441 325.913 Q126.385 321.307 126.385 312.58 Q126.385 303.83 129.441 299.247 Q132.519 294.641 138.33 294.641 Z" fill="#000000" fill-rule="nonzero" fill-opacity="1" /><polyline clip-path="url(#clip291)" style="stroke:#009af9; stroke-linecap:round; stroke-linejoin:round; stroke-width:12; stroke-opacity:1; fill:none" points="247.59,1384.48 451.975,1389.98 656.36,1385.63 860.745,1334.22 1065.13,1160.93 1269.51,1152.84 1473.9,1177.6 1678.29,1188.44 1882.67,1121.72 2087.06,1064.64 2291.44,863.299 "/>
<polyline clip-path="url(#clip291)" style="stroke:#e26f46; stroke-linecap:round; stroke-linejoin:round; stroke-width:12; stroke-opacity:1; fill:none" points="247.59,1384.48 451.975,1325.42 656.36,1281.54 860.745,1107.82 1065.13,898.667 1269.51,974.927 1473.9,954.27 1678.29,585.583 1882.67,236.142 2087.06,87.9763 2291.44,177.209 "/>
<polyline clip-path="url(#clip291)" style="stroke:#3da44d; stroke-linecap:round; stroke-linejoin:round; stroke-width:12; stroke-opacity:1; fill:none" points="247.59,1384.48 451.975,1334.57 656.36,1280.17 860.745,1323.47 1065.13,1411.21 1269.51,1136.75 1473.9,1075.74 1678.29,992.13 1882.67,903.633 2087.06,855.392 2291.44,860.329 "/>
<polyline clip-path="url(#clip291)" style="stroke:#c271d2; stroke-linecap:round; stroke-linejoin:round; stroke-width:12; stroke-opacity:1; fill:none" points="247.59,1384.48 451.975,1315.23 656.36,1242.66 860.745,1149.71 1065.13,1073.73 1269.51,998.429 1473.9,1026.23 1678.29,1132.85 1882.67,1088.09 2087.06,916.82 2291.44,856.611 "/>
<polyline clip-path="url(#clip291)" style="stroke:#ac8d18; stroke-linecap:round; stroke-linejoin:round; stroke-width:12; stroke-opacity:1; fill:none" points="247.59,1384.48 451.975,1359.7 656.36,1248.27 860.745,1092.48 1065.13,940.417 1269.51,788.82 1473.9,909.589 1678.29,814.535 1882.67,815.367 2087.06,1012.94 2291.44,1043.6 "/>
<polyline clip-path="url(#clip291)" style="stroke:#00a9ad; stroke-linecap:round; stroke-linejoin:round; stroke-width:12; stroke-opacity:1; fill:none" points="247.59,1384.48 451.975,1398.79 656.36,1356.49 860.745,1445.72 1065.13,1424.21 1269.51,1172.75 1473.9,1264.36 1678.29,1269.12 1882.67,1149.6 2087.06,987.649 2291.44,1107.94 "/>
<polyline clip-path="url(#clip291)" style="stroke:#ed5d92; stroke-linecap:round; stroke-linejoin:round; stroke-width:12; stroke-opacity:1; fill:none" points="247.59,1384.48 451.975,1324.3 656.36,1202.39 860.745,1101.93 1065.13,1098.9 1269.51,1193.53 1473.9,1192.72 1678.29,1201.93 1882.67,1029.82 2087.06,1051.62 2291.44,919.662 "/>
<polyline clip-path="url(#clip291)" style="stroke:#c68125; stroke-linecap:round; stroke-linejoin:round; stroke-width:12; stroke-opacity:1; fill:none" points="247.59,1384.48 451.975,1373.32 656.36,1383.57 860.745,1369.52 1065.13,1372.86 1269.51,1391.76 1473.9,1302.12 1678.29,1250.66 1882.67,1262.01 2087.06,1275.27 2291.44,1224.08 "/>
</svg>
