<?xml version="1.0" encoding="utf-8"?>
<svg xmlns="http://www.w3.org/2000/svg" xmlns:xlink="http://www.w3.org/1999/xlink" width="600" height="400" viewBox="0 0 2400 1600">
<defs>
  <clipPath id="clip840">
    <rect x="0" y="0" width="2400" height="1600"/>
  </clipPath>
</defs>
<path clip-path="url(#clip840)" d="M0 1600 L2400 1600 L2400 0 L0 0  Z" fill="#ffffff" fill-rule="evenodd" fill-opacity="1"/>
<defs>
  <clipPath id="clip841">
    <rect x="480" y="0" width="1681" height="1600"/>
  </clipPath>
</defs>
<path clip-path="url(#clip840)" d="M155.765 1486.45 L2352.76 1486.45 L2352.76 47.2441 L155.765 47.2441  Z" fill="#ffffff" fill-rule="evenodd" fill-opacity="1"/>
<defs>
  <clipPath id="clip842">
    <rect x="155" y="47" width="2198" height="1440"/>
  </clipPath>
</defs>
<polyline clip-path="url(#clip842)" style="stroke:#000000; stroke-linecap:round; stroke-linejoin:round; stroke-width:2; stroke-opacity:0.1; fill:none" points="217.944,1486.45 217.944,47.2441 "/>
<polyline clip-path="url(#clip842)" style="stroke:#000000; stroke-linecap:round; stroke-linejoin:round; stroke-width:2; stroke-opacity:0.1; fill:none" points="736.102,1486.45 736.102,47.2441 "/>
<polyline clip-path="url(#clip842)" style="stroke:#000000; stroke-linecap:round; stroke-linejoin:round; stroke-width:2; stroke-opacity:0.1; fill:none" points="1254.26,1486.45 1254.26,47.2441 "/>
<polyline clip-path="url(#clip842)" style="stroke:#000000; stroke-linecap:round; stroke-linejoin:round; stroke-width:2; stroke-opacity:0.1; fill:none" points="1772.42,1486.45 1772.42,47.2441 "/>
<polyline clip-path="url(#clip842)" style="stroke:#000000; stroke-linecap:round; stroke-linejoin:round; stroke-width:2; stroke-opacity:0.1; fill:none" points="2290.58,1486.45 2290.58,47.2441 "/>
<polyline clip-path="url(#clip842)" style="stroke:#000000; stroke-linecap:round; stroke-linejoin:round; stroke-width:2; stroke-opacity:0.1; fill:none" points="155.765,1212.51 2352.76,1212.51 "/>
<polyline clip-path="url(#clip842)" style="stroke:#000000; stroke-linecap:round; stroke-linejoin:round; stroke-width:2; stroke-opacity:0.1; fill:none" points="155.765,836.827 2352.76,836.827 "/>
<polyline clip-path="url(#clip842)" style="stroke:#000000; stroke-linecap:round; stroke-linejoin:round; stroke-width:2; stroke-opacity:0.1; fill:none" points="155.765,461.146 2352.76,461.146 "/>
<polyline clip-path="url(#clip842)" style="stroke:#000000; stroke-linecap:round; stroke-linejoin:round; stroke-width:2; stroke-opacity:0.1; fill:none" points="155.765,85.4658 2352.76,85.4658 "/>
<polyline clip-path="url(#clip840)" style="stroke:#000000; stroke-linecap:round; stroke-linejoin:round; stroke-width:4; stroke-opacity:1; fill:none" points="155.765,1486.45 2352.76,1486.45 "/>
<polyline clip-path="url(#clip840)" style="stroke:#000000; stroke-linecap:round; stroke-linejoin:round; stroke-width:4; stroke-opacity:1; fill:none" points="217.944,1486.45 217.944,1467.55 "/>
<polyline clip-path="url(#clip840)" style="stroke:#000000; stroke-linecap:round; stroke-linejoin:round; stroke-width:4; stroke-opacity:1; fill:none" points="736.102,1486.45 736.102,1467.55 "/>
<polyline clip-path="url(#clip840)" style="stroke:#000000; stroke-linecap:round; stroke-linejoin:round; stroke-width:4; stroke-opacity:1; fill:none" points="1254.26,1486.45 1254.26,1467.55 "/>
<polyline clip-path="url(#clip840)" style="stroke:#000000; stroke-linecap:round; stroke-linejoin:round; stroke-width:4; stroke-opacity:1; fill:none" points="1772.42,1486.45 1772.42,1467.55 "/>
<polyline clip-path="url(#clip840)" style="stroke:#000000; stroke-linecap:round; stroke-linejoin:round; stroke-width:4; stroke-opacity:1; fill:none" points="2290.58,1486.45 2290.58,1467.55 "/>
<path clip-path="url(#clip840)" d="M180.247 1517.37 Q176.636 1517.37 174.808 1520.93 Q173.002 1524.47 173.002 1531.6 Q173.002 1538.71 174.808 1542.27 Q176.636 1545.82 180.247 1545.82 Q183.882 1545.82 185.687 1542.27 Q187.516 1538.71 187.516 1531.6 Q187.516 1524.47 185.687 1520.93 Q183.882 1517.37 180.247 1517.37 M180.247 1513.66 Q186.057 1513.66 189.113 1518.27 Q192.192 1522.85 192.192 1531.6 Q192.192 1540.33 189.113 1544.94 Q186.057 1549.52 180.247 1549.52 Q174.437 1549.52 171.358 1544.94 Q168.303 1540.33 168.303 1531.6 Q168.303 1522.85 171.358 1518.27 Q174.437 1513.66 180.247 1513.66 Z" fill="#000000" fill-rule="nonzero" fill-opacity="1" /><path clip-path="url(#clip840)" d="M200.409 1542.97 L205.294 1542.97 L205.294 1548.85 L200.409 1548.85 L200.409 1542.97 Z" fill="#000000" fill-rule="nonzero" fill-opacity="1" /><path clip-path="url(#clip840)" d="M225.479 1517.37 Q221.867 1517.37 220.039 1520.93 Q218.233 1524.47 218.233 1531.6 Q218.233 1538.71 220.039 1542.27 Q221.867 1545.82 225.479 1545.82 Q229.113 1545.82 230.918 1542.27 Q232.747 1538.71 232.747 1531.6 Q232.747 1524.47 230.918 1520.93 Q229.113 1517.37 225.479 1517.37 M225.479 1513.66 Q231.289 1513.66 234.344 1518.27 Q237.423 1522.85 237.423 1531.6 Q237.423 1540.33 234.344 1544.94 Q231.289 1549.52 225.479 1549.52 Q219.668 1549.52 216.59 1544.94 Q213.534 1540.33 213.534 1531.6 Q213.534 1522.85 216.59 1518.27 Q219.668 1513.66 225.479 1513.66 Z" fill="#000000" fill-rule="nonzero" fill-opacity="1" /><path clip-path="url(#clip840)" d="M255.64 1517.37 Q252.029 1517.37 250.201 1520.93 Q248.395 1524.47 248.395 1531.6 Q248.395 1538.71 250.201 1542.27 Q252.029 1545.82 255.64 1545.82 Q259.275 1545.82 261.08 1542.27 Q262.909 1538.71 262.909 1531.6 Q262.909 1524.47 261.08 1520.93 Q259.275 1517.37 255.64 1517.37 M255.64 1513.66 Q261.451 1513.66 264.506 1518.27 Q267.585 1522.85 267.585 1531.6 Q267.585 1540.33 264.506 1544.94 Q261.451 1549.52 255.64 1549.52 Q249.83 1549.52 246.752 1544.94 Q243.696 1540.33 243.696 1531.6 Q243.696 1522.85 246.752 1518.27 Q249.83 1513.66 255.64 1513.66 Z" fill="#000000" fill-rule="nonzero" fill-opacity="1" /><path clip-path="url(#clip840)" d="M698.903 1517.37 Q695.292 1517.37 693.463 1520.93 Q691.658 1524.47 691.658 1531.6 Q691.658 1538.71 693.463 1542.27 Q695.292 1545.82 698.903 1545.82 Q702.538 1545.82 704.343 1542.27 Q706.172 1538.71 706.172 1531.6 Q706.172 1524.47 704.343 1520.93 Q702.538 1517.37 698.903 1517.37 M698.903 1513.66 Q704.713 1513.66 707.769 1518.27 Q710.848 1522.85 710.848 1531.6 Q710.848 1540.33 707.769 1544.94 Q704.713 1549.52 698.903 1549.52 Q693.093 1549.52 690.014 1544.94 Q686.959 1540.33 686.959 1531.6 Q686.959 1522.85 690.014 1518.27 Q693.093 1513.66 698.903 1513.66 Z" fill="#000000" fill-rule="nonzero" fill-opacity="1" /><path clip-path="url(#clip840)" d="M719.065 1542.97 L723.949 1542.97 L723.949 1548.85 L719.065 1548.85 L719.065 1542.97 Z" fill="#000000" fill-rule="nonzero" fill-opacity="1" /><path clip-path="url(#clip840)" d="M738.162 1544.91 L754.482 1544.91 L754.482 1548.85 L732.537 1548.85 L732.537 1544.91 Q735.199 1542.16 739.783 1537.53 Q744.389 1532.88 745.57 1531.53 Q747.815 1529.01 748.695 1527.27 Q749.597 1525.51 749.597 1523.82 Q749.597 1521.07 747.653 1519.33 Q745.732 1517.6 742.63 1517.6 Q740.431 1517.6 737.977 1518.36 Q735.547 1519.13 732.769 1520.68 L732.769 1515.95 Q735.593 1514.82 738.047 1514.24 Q740.5 1513.66 742.537 1513.66 Q747.908 1513.66 751.102 1516.35 Q754.296 1519.03 754.296 1523.52 Q754.296 1525.65 753.486 1527.57 Q752.699 1529.47 750.593 1532.07 Q750.014 1532.74 746.912 1535.95 Q743.81 1539.15 738.162 1544.91 Z" fill="#000000" fill-rule="nonzero" fill-opacity="1" /><path clip-path="url(#clip840)" d="M764.343 1514.29 L782.699 1514.29 L782.699 1518.22 L768.625 1518.22 L768.625 1526.7 Q769.644 1526.35 770.662 1526.19 Q771.681 1526 772.699 1526 Q778.486 1526 781.866 1529.17 Q785.245 1532.34 785.245 1537.76 Q785.245 1543.34 781.773 1546.44 Q778.301 1549.52 771.982 1549.52 Q769.806 1549.52 767.537 1549.15 Q765.292 1548.78 762.884 1548.04 L762.884 1543.34 Q764.968 1544.47 767.19 1545.03 Q769.412 1545.58 771.889 1545.58 Q775.894 1545.58 778.232 1543.48 Q780.57 1541.37 780.57 1537.76 Q780.57 1534.15 778.232 1532.04 Q775.894 1529.94 771.889 1529.94 Q770.014 1529.94 768.139 1530.35 Q766.287 1530.77 764.343 1531.65 L764.343 1514.29 Z" fill="#000000" fill-rule="nonzero" fill-opacity="1" /><path clip-path="url(#clip840)" d="M1216.56 1517.37 Q1212.95 1517.37 1211.12 1520.93 Q1209.32 1524.47 1209.32 1531.6 Q1209.32 1538.71 1211.12 1542.27 Q1212.95 1545.82 1216.56 1545.82 Q1220.2 1545.82 1222 1542.27 Q1223.83 1538.71 1223.83 1531.6 Q1223.83 1524.47 1222 1520.93 Q1220.2 1517.37 1216.56 1517.37 M1216.56 1513.66 Q1222.37 1513.66 1225.43 1518.27 Q1228.51 1522.85 1228.51 1531.6 Q1228.51 1540.33 1225.43 1544.94 Q1222.37 1549.52 1216.56 1549.52 Q1210.75 1549.52 1207.68 1544.94 Q1204.62 1540.33 1204.62 1531.6 Q1204.62 1522.85 1207.68 1518.27 Q1210.75 1513.66 1216.56 1513.66 Z" fill="#000000" fill-rule="nonzero" fill-opacity="1" /><path clip-path="url(#clip840)" d="M1236.73 1542.97 L1241.61 1542.97 L1241.61 1548.85 L1236.73 1548.85 L1236.73 1542.97 Z" fill="#000000" fill-rule="nonzero" fill-opacity="1" /><path clip-path="url(#clip840)" d="M1251.84 1514.29 L1270.2 1514.29 L1270.2 1518.22 L1256.12 1518.22 L1256.12 1526.7 Q1257.14 1526.35 1258.16 1526.19 Q1259.18 1526 1260.2 1526 Q1265.98 1526 1269.36 1529.17 Q1272.74 1532.34 1272.74 1537.76 Q1272.74 1543.34 1269.27 1546.44 Q1265.8 1549.52 1259.48 1549.52 Q1257.3 1549.52 1255.04 1549.15 Q1252.79 1548.78 1250.38 1548.04 L1250.38 1543.34 Q1252.47 1544.47 1254.69 1545.03 Q1256.91 1545.58 1259.39 1545.58 Q1263.39 1545.58 1265.73 1543.48 Q1268.07 1541.37 1268.07 1537.76 Q1268.07 1534.15 1265.73 1532.04 Q1263.39 1529.94 1259.39 1529.94 Q1257.51 1529.94 1255.64 1530.35 Q1253.79 1530.77 1251.84 1531.65 L1251.84 1514.29 Z" fill="#000000" fill-rule="nonzero" fill-opacity="1" /><path clip-path="url(#clip840)" d="M1291.96 1517.37 Q1288.35 1517.37 1286.52 1520.93 Q1284.71 1524.47 1284.71 1531.6 Q1284.71 1538.71 1286.52 1542.27 Q1288.35 1545.82 1291.96 1545.82 Q1295.59 1545.82 1297.4 1542.27 Q1299.23 1538.71 1299.23 1531.6 Q1299.23 1524.47 1297.4 1520.93 Q1295.59 1517.37 1291.96 1517.37 M1291.96 1513.66 Q1297.77 1513.66 1300.82 1518.27 Q1303.9 1522.85 1303.9 1531.6 Q1303.9 1540.33 1300.82 1544.94 Q1297.77 1549.52 1291.96 1549.52 Q1286.15 1549.52 1283.07 1544.94 Q1280.01 1540.33 1280.01 1531.6 Q1280.01 1522.85 1283.07 1518.27 Q1286.15 1513.66 1291.96 1513.66 Z" fill="#000000" fill-rule="nonzero" fill-opacity="1" /><path clip-path="url(#clip840)" d="M1735.22 1517.37 Q1731.61 1517.37 1729.78 1520.93 Q1727.97 1524.47 1727.97 1531.6 Q1727.97 1538.71 1729.78 1542.27 Q1731.61 1545.82 1735.22 1545.82 Q1738.85 1545.82 1740.66 1542.27 Q1742.49 1538.71 1742.49 1531.6 Q1742.49 1524.47 1740.66 1520.93 Q1738.85 1517.37 1735.22 1517.37 M1735.22 1513.66 Q1741.03 1513.66 1744.09 1518.27 Q1747.16 1522.85 1747.16 1531.6 Q1747.16 1540.33 1744.09 1544.94 Q1741.03 1549.52 1735.22 1549.52 Q1729.41 1549.52 1726.33 1544.94 Q1723.28 1540.33 1723.28 1531.6 Q1723.28 1522.85 1726.33 1518.27 Q1729.41 1513.66 1735.22 1513.66 Z" fill="#000000" fill-rule="nonzero" fill-opacity="1" /><path clip-path="url(#clip840)" d="M1755.38 1542.97 L1760.27 1542.97 L1760.27 1548.85 L1755.38 1548.85 L1755.38 1542.97 Z" fill="#000000" fill-rule="nonzero" fill-opacity="1" /><path clip-path="url(#clip840)" d="M1769.27 1514.29 L1791.49 1514.29 L1791.49 1516.28 L1778.95 1548.85 L1774.06 1548.85 L1785.87 1518.22 L1769.27 1518.22 L1769.27 1514.29 Z" fill="#000000" fill-rule="nonzero" fill-opacity="1" /><path clip-path="url(#clip840)" d="M1800.66 1514.29 L1819.02 1514.29 L1819.02 1518.22 L1804.94 1518.22 L1804.94 1526.7 Q1805.96 1526.35 1806.98 1526.19 Q1808 1526 1809.02 1526 Q1814.8 1526 1818.18 1529.17 Q1821.56 1532.34 1821.56 1537.76 Q1821.56 1543.34 1818.09 1546.44 Q1814.62 1549.52 1808.3 1549.52 Q1806.12 1549.52 1803.85 1549.15 Q1801.61 1548.78 1799.2 1548.04 L1799.2 1543.34 Q1801.28 1544.47 1803.51 1545.03 Q1805.73 1545.58 1808.21 1545.58 Q1812.21 1545.58 1814.55 1543.48 Q1816.89 1541.37 1816.89 1537.76 Q1816.89 1534.15 1814.55 1532.04 Q1812.21 1529.94 1808.21 1529.94 Q1806.33 1529.94 1804.46 1530.35 Q1802.6 1530.77 1800.66 1531.65 L1800.66 1514.29 Z" fill="#000000" fill-rule="nonzero" fill-opacity="1" /><path clip-path="url(#clip840)" d="M2242.65 1544.91 L2250.29 1544.91 L2250.29 1518.55 L2241.98 1520.21 L2241.98 1515.95 L2250.24 1514.29 L2254.92 1514.29 L2254.92 1544.91 L2262.56 1544.91 L2262.56 1548.85 L2242.65 1548.85 L2242.65 1544.91 Z" fill="#000000" fill-rule="nonzero" fill-opacity="1" /><path clip-path="url(#clip840)" d="M2272 1542.97 L2276.88 1542.97 L2276.88 1548.85 L2272 1548.85 L2272 1542.97 Z" fill="#000000" fill-rule="nonzero" fill-opacity="1" /><path clip-path="url(#clip840)" d="M2297.07 1517.37 Q2293.46 1517.37 2291.63 1520.93 Q2289.82 1524.47 2289.82 1531.6 Q2289.82 1538.71 2291.63 1542.27 Q2293.46 1545.82 2297.07 1545.82 Q2300.7 1545.82 2302.51 1542.27 Q2304.34 1538.71 2304.34 1531.6 Q2304.34 1524.47 2302.51 1520.93 Q2300.7 1517.37 2297.07 1517.37 M2297.07 1513.66 Q2302.88 1513.66 2305.94 1518.27 Q2309.01 1522.85 2309.01 1531.6 Q2309.01 1540.33 2305.94 1544.94 Q2302.88 1549.52 2297.07 1549.52 Q2291.26 1549.52 2288.18 1544.94 Q2285.13 1540.33 2285.13 1531.6 Q2285.13 1522.85 2288.18 1518.27 Q2291.26 1513.66 2297.07 1513.66 Z" fill="#000000" fill-rule="nonzero" fill-opacity="1" /><path clip-path="url(#clip840)" d="M2327.23 1517.37 Q2323.62 1517.37 2321.79 1520.93 Q2319.99 1524.47 2319.99 1531.6 Q2319.99 1538.71 2321.79 1542.27 Q2323.62 1545.82 2327.23 1545.82 Q2330.87 1545.82 2332.67 1542.27 Q2334.5 1538.71 2334.5 1531.6 Q2334.5 1524.47 2332.67 1520.93 Q2330.87 1517.37 2327.23 1517.37 M2327.23 1513.66 Q2333.04 1513.66 2336.1 1518.27 Q2339.18 1522.85 2339.18 1531.6 Q2339.18 1540.33 2336.1 1544.94 Q2333.04 1549.52 2327.23 1549.52 Q2321.42 1549.52 2318.34 1544.94 Q2315.29 1540.33 2315.29 1531.6 Q2315.29 1522.85 2318.34 1518.27 Q2321.42 1513.66 2327.23 1513.66 Z" fill="#000000" fill-rule="nonzero" fill-opacity="1" /><polyline clip-path="url(#clip840)" style="stroke:#000000; stroke-linecap:round; stroke-linejoin:round; stroke-width:4; stroke-opacity:1; fill:none" points="155.765,1486.45 155.765,47.2441 "/>
<polyline clip-path="url(#clip840)" style="stroke:#000000; stroke-linecap:round; stroke-linejoin:round; stroke-width:4; stroke-opacity:1; fill:none" points="155.765,1212.51 174.663,1212.51 "/>
<polyline clip-path="url(#clip840)" style="stroke:#000000; stroke-linecap:round; stroke-linejoin:round; stroke-width:4; stroke-opacity:1; fill:none" points="155.765,836.827 174.663,836.827 "/>
<polyline clip-path="url(#clip840)" style="stroke:#000000; stroke-linecap:round; stroke-linejoin:round; stroke-width:4; stroke-opacity:1; fill:none" points="155.765,461.146 174.663,461.146 "/>
<polyline clip-path="url(#clip840)" style="stroke:#000000; stroke-linecap:round; stroke-linejoin:round; stroke-width:4; stroke-opacity:1; fill:none" points="155.765,85.4658 174.663,85.4658 "/>
<path clip-path="url(#clip840)" d="M63.5847 1198.31 Q59.9736 1198.31 58.1449 1201.87 Q56.3393 1205.41 56.3393 1212.54 Q56.3393 1219.65 58.1449 1223.21 Q59.9736 1226.75 63.5847 1226.75 Q67.2189 1226.75 69.0244 1223.21 Q70.8531 1219.65 70.8531 1212.54 Q70.8531 1205.41 69.0244 1201.87 Q67.2189 1198.31 63.5847 1198.31 M63.5847 1194.6 Q69.3948 1194.6 72.4503 1199.21 Q75.529 1203.79 75.529 1212.54 Q75.529 1221.27 72.4503 1225.88 Q69.3948 1230.46 63.5847 1230.46 Q57.7745 1230.46 54.6958 1225.88 Q51.6403 1221.27 51.6403 1212.54 Q51.6403 1203.79 54.6958 1199.21 Q57.7745 1194.6 63.5847 1194.6 Z" fill="#000000" fill-rule="nonzero" fill-opacity="1" /><path clip-path="url(#clip840)" d="M83.7466 1223.91 L88.6308 1223.91 L88.6308 1229.79 L83.7466 1229.79 L83.7466 1223.91 Z" fill="#000000" fill-rule="nonzero" fill-opacity="1" /><path clip-path="url(#clip840)" d="M98.8622 1195.23 L117.219 1195.23 L117.219 1199.16 L103.145 1199.16 L103.145 1207.63 Q104.163 1207.29 105.182 1207.13 Q106.2 1206.94 107.219 1206.94 Q113.006 1206.94 116.385 1210.11 Q119.765 1213.28 119.765 1218.7 Q119.765 1224.28 116.293 1227.38 Q112.82 1230.46 106.501 1230.46 Q104.325 1230.46 102.057 1230.09 Q99.8113 1229.72 97.4039 1228.98 L97.4039 1224.28 Q99.4872 1225.41 101.709 1225.97 Q103.932 1226.52 106.408 1226.52 Q110.413 1226.52 112.751 1224.42 Q115.089 1222.31 115.089 1218.7 Q115.089 1215.09 112.751 1212.98 Q110.413 1210.88 106.408 1210.88 Q104.534 1210.88 102.659 1211.29 Q100.807 1211.71 98.8622 1212.59 L98.8622 1195.23 Z" fill="#000000" fill-rule="nonzero" fill-opacity="1" /><path clip-path="url(#clip840)" d="M53.3995 850.172 L61.0384 850.172 L61.0384 823.806 L52.7282 825.473 L52.7282 821.213 L60.9921 819.547 L65.668 819.547 L65.668 850.172 L73.3068 850.172 L73.3068 854.107 L53.3995 854.107 L53.3995 850.172 Z" fill="#000000" fill-rule="nonzero" fill-opacity="1" /><path clip-path="url(#clip840)" d="M82.7512 848.227 L87.6354 848.227 L87.6354 854.107 L82.7512 854.107 L82.7512 848.227 Z" fill="#000000" fill-rule="nonzero" fill-opacity="1" /><path clip-path="url(#clip840)" d="M107.821 822.625 Q104.209 822.625 102.381 826.19 Q100.575 829.732 100.575 836.861 Q100.575 843.968 102.381 847.533 Q104.209 851.074 107.821 851.074 Q111.455 851.074 113.26 847.533 Q115.089 843.968 115.089 836.861 Q115.089 829.732 113.26 826.19 Q111.455 822.625 107.821 822.625 M107.821 818.922 Q113.631 818.922 116.686 823.528 Q119.765 828.111 119.765 836.861 Q119.765 845.588 116.686 850.195 Q113.631 854.778 107.821 854.778 Q102.01 854.778 98.9317 850.195 Q95.8761 845.588 95.8761 836.861 Q95.8761 828.111 98.9317 823.528 Q102.01 818.922 107.821 818.922 Z" fill="#000000" fill-rule="nonzero" fill-opacity="1" /><path clip-path="url(#clip840)" d="M54.3949 474.491 L62.0337 474.491 L62.0337 448.125 L53.7236 449.792 L53.7236 445.533 L61.9874 443.866 L66.6633 443.866 L66.6633 474.491 L74.3022 474.491 L74.3022 478.426 L54.3949 478.426 L54.3949 474.491 Z" fill="#000000" fill-rule="nonzero" fill-opacity="1" /><path clip-path="url(#clip840)" d="M83.7466 472.547 L88.6308 472.547 L88.6308 478.426 L83.7466 478.426 L83.7466 472.547 Z" fill="#000000" fill-rule="nonzero" fill-opacity="1" /><path clip-path="url(#clip840)" d="M98.8622 443.866 L117.219 443.866 L117.219 447.801 L103.145 447.801 L103.145 456.274 Q104.163 455.926 105.182 455.764 Q106.2 455.579 107.219 455.579 Q113.006 455.579 116.385 458.75 Q119.765 461.922 119.765 467.338 Q119.765 472.917 116.293 476.019 Q112.82 479.098 106.501 479.098 Q104.325 479.098 102.057 478.727 Q99.8113 478.357 97.4039 477.616 L97.4039 472.917 Q99.4872 474.051 101.709 474.607 Q103.932 475.162 106.408 475.162 Q110.413 475.162 112.751 473.056 Q115.089 470.949 115.089 467.338 Q115.089 463.727 112.751 461.621 Q110.413 459.514 106.408 459.514 Q104.534 459.514 102.659 459.931 Q100.807 460.348 98.8622 461.227 L98.8622 443.866 Z" fill="#000000" fill-rule="nonzero" fill-opacity="1" /><path clip-path="url(#clip840)" d="M56.6171 98.8107 L72.9365 98.8107 L72.9365 102.746 L50.9921 102.746 L50.9921 98.8107 Q53.6541 96.0561 58.2375 91.4265 Q62.8439 86.7737 64.0245 85.4311 Q66.2698 82.908 67.1494 81.1719 Q68.0522 79.4126 68.0522 77.7228 Q68.0522 74.9682 66.1078 73.2321 Q64.1865 71.496 61.0847 71.496 Q58.8856 71.496 56.4319 72.2599 Q54.0014 73.0238 51.2236 74.5747 L51.2236 69.8525 Q54.0477 68.7182 56.5014 68.1395 Q58.955 67.5608 60.9921 67.5608 Q66.3624 67.5608 69.5568 70.246 Q72.7513 72.9312 72.7513 77.4219 Q72.7513 79.5515 71.9411 81.4728 Q71.1541 83.3709 69.0476 85.9635 Q68.4689 86.6348 65.367 89.8524 Q62.2652 93.0468 56.6171 98.8107 Z" fill="#000000" fill-rule="nonzero" fill-opacity="1" /><path clip-path="url(#clip840)" d="M82.7512 96.8662 L87.6354 96.8662 L87.6354 102.746 L82.7512 102.746 L82.7512 96.8662 Z" fill="#000000" fill-rule="nonzero" fill-opacity="1" /><path clip-path="url(#clip840)" d="M107.821 71.2645 Q104.209 71.2645 102.381 74.8293 Q100.575 78.371 100.575 85.5006 Q100.575 92.607 102.381 96.1718 Q104.209 99.7134 107.821 99.7134 Q111.455 99.7134 113.26 96.1718 Q115.089 92.607 115.089 85.5006 Q115.089 78.371 113.26 74.8293 Q111.455 71.2645 107.821 71.2645 M107.821 67.5608 Q113.631 67.5608 116.686 72.1673 Q119.765 76.7506 119.765 85.5006 Q119.765 94.2274 116.686 98.8338 Q113.631 103.417 107.821 103.417 Q102.01 103.417 98.9317 98.8338 Q95.8761 94.2274 95.8761 85.5006 Q95.8761 76.7506 98.9317 72.1673 Q102.01 67.5608 107.821 67.5608 Z" fill="#000000" fill-rule="nonzero" fill-opacity="1" /><polyline clip-path="url(#clip842)" style="stroke:#009af9; stroke-linecap:round; stroke-linejoin:round; stroke-width:12; stroke-opacity:1; fill:none" points="217.944,1212.51 425.207,1221.67 632.47,1219.14 839.734,1227.45 1047,1250.28 1254.26,1172.7 1461.52,1180.21 1668.79,1151.37 1876.05,1173.54 2083.31,1196.1 2290.58,1193.25 "/>
<polyline clip-path="url(#clip842)" style="stroke:#000000; stroke-linecap:round; stroke-linejoin:round; stroke-width:12; stroke-opacity:1; fill:none" points="217.944,1212.51 217.944,1212.51 "/>
<polyline clip-path="url(#clip842)" style="stroke:#000000; stroke-linecap:round; stroke-linejoin:round; stroke-width:12; stroke-opacity:1; fill:none" points="425.207,1332.9 425.207,1036.19 "/>
<polyline clip-path="url(#clip842)" style="stroke:#000000; stroke-linecap:round; stroke-linejoin:round; stroke-width:12; stroke-opacity:1; fill:none" points="632.47,1366.15 632.47,1088.82 "/>
<polyline clip-path="url(#clip842)" style="stroke:#000000; stroke-linecap:round; stroke-linejoin:round; stroke-width:12; stroke-opacity:1; fill:none" points="839.734,1351.94 839.734,1027.76 "/>
<polyline clip-path="url(#clip842)" style="stroke:#000000; stroke-linecap:round; stroke-linejoin:round; stroke-width:12; stroke-opacity:1; fill:none" points="1047,1334.11 1047,800.04 "/>
<polyline clip-path="url(#clip842)" style="stroke:#000000; stroke-linecap:round; stroke-linejoin:round; stroke-width:12; stroke-opacity:1; fill:none" points="1254.26,1411.63 1254.26,774.138 "/>
<polyline clip-path="url(#clip842)" style="stroke:#000000; stroke-linecap:round; stroke-linejoin:round; stroke-width:12; stroke-opacity:1; fill:none" points="1461.52,1395.5 1461.52,586.133 "/>
<polyline clip-path="url(#clip842)" style="stroke:#000000; stroke-linecap:round; stroke-linejoin:round; stroke-width:12; stroke-opacity:1; fill:none" points="1668.79,1418.4 1668.79,411.2 "/>
<polyline clip-path="url(#clip842)" style="stroke:#000000; stroke-linecap:round; stroke-linejoin:round; stroke-width:12; stroke-opacity:1; fill:none" points="1876.05,1433.24 1876.05,317.097 "/>
<polyline clip-path="url(#clip842)" style="stroke:#000000; stroke-linecap:round; stroke-linejoin:round; stroke-width:12; stroke-opacity:1; fill:none" points="2083.31,1414.1 2083.31,213.587 "/>
<polyline clip-path="url(#clip842)" style="stroke:#000000; stroke-linecap:round; stroke-linejoin:round; stroke-width:12; stroke-opacity:1; fill:none" points="2290.58,1419.74 2290.58,87.9763 "/>
<line clip-path="url(#clip842)" x1="233.944" y1="1212.51" x2="201.944" y2="1212.51" style="stroke:#000000; stroke-width:12; stroke-opacity:1"/>
<line clip-path="url(#clip842)" x1="233.944" y1="1212.51" x2="201.944" y2="1212.51" style="stroke:#000000; stroke-width:12; stroke-opacity:1"/>
<line clip-path="url(#clip842)" x1="441.207" y1="1332.9" x2="409.207" y2="1332.9" style="stroke:#000000; stroke-width:12; stroke-opacity:1"/>
<line clip-path="url(#clip842)" x1="441.207" y1="1036.19" x2="409.207" y2="1036.19" style="stroke:#000000; stroke-width:12; stroke-opacity:1"/>
<line clip-path="url(#clip842)" x1="648.47" y1="1366.15" x2="616.47" y2="1366.15" style="stroke:#000000; stroke-width:12; stroke-opacity:1"/>
<line clip-path="url(#clip842)" x1="648.47" y1="1088.82" x2="616.47" y2="1088.82" style="stroke:#000000; stroke-width:12; stroke-opacity:1"/>
<line clip-path="url(#clip842)" x1="855.734" y1="1351.94" x2="823.734" y2="1351.94" style="stroke:#000000; stroke-width:12; stroke-opacity:1"/>
<line clip-path="url(#clip842)" x1="855.734" y1="1027.76" x2="823.734" y2="1027.76" style="stroke:#000000; stroke-width:12; stroke-opacity:1"/>
<line clip-path="url(#clip842)" x1="1063" y1="1334.11" x2="1031" y2="1334.11" style="stroke:#000000; stroke-width:12; stroke-opacity:1"/>
<line clip-path="url(#clip842)" x1="1063" y1="800.04" x2="1031" y2="800.04" style="stroke:#000000; stroke-width:12; stroke-opacity:1"/>
<line clip-path="url(#clip842)" x1="1270.26" y1="1411.63" x2="1238.26" y2="1411.63" style="stroke:#000000; stroke-width:12; stroke-opacity:1"/>
<line clip-path="url(#clip842)" x1="1270.26" y1="774.138" x2="1238.26" y2="774.138" style="stroke:#000000; stroke-width:12; stroke-opacity:1"/>
<line clip-path="url(#clip842)" x1="1477.52" y1="1395.5" x2="1445.52" y2="1395.5" style="stroke:#000000; stroke-width:12; stroke-opacity:1"/>
<line clip-path="url(#clip842)" x1="1477.52" y1="586.133" x2="1445.52" y2="586.133" style="stroke:#000000; stroke-width:12; stroke-opacity:1"/>
<line clip-path="url(#clip842)" x1="1684.79" y1="1418.4" x2="1652.79" y2="1418.4" style="stroke:#000000; stroke-width:12; stroke-opacity:1"/>
<line clip-path="url(#clip842)" x1="1684.79" y1="411.2" x2="1652.79" y2="411.2" style="stroke:#000000; stroke-width:12; stroke-opacity:1"/>
<line clip-path="url(#clip842)" x1="1892.05" y1="1433.24" x2="1860.05" y2="1433.24" style="stroke:#000000; stroke-width:12; stroke-opacity:1"/>
<line clip-path="url(#clip842)" x1="1892.05" y1="317.097" x2="1860.05" y2="317.097" style="stroke:#000000; stroke-width:12; stroke-opacity:1"/>
<line clip-path="url(#clip842)" x1="2099.31" y1="1414.1" x2="2067.31" y2="1414.1" style="stroke:#000000; stroke-width:12; stroke-opacity:1"/>
<line clip-path="url(#clip842)" x1="2099.31" y1="213.587" x2="2067.31" y2="213.587" style="stroke:#000000; stroke-width:12; stroke-opacity:1"/>
<line clip-path="url(#clip842)" x1="2306.58" y1="1419.74" x2="2274.58" y2="1419.74" style="stroke:#000000; stroke-width:12; stroke-opacity:1"/>
<line clip-path="url(#clip842)" x1="2306.58" y1="87.9763" x2="2274.58" y2="87.9763" style="stroke:#000000; stroke-width:12; stroke-opacity:1"/>
<polyline clip-path="url(#clip842)" style="stroke:#e26f46; stroke-linecap:round; stroke-linejoin:round; stroke-width:12; stroke-opacity:1; fill:none" points="217.944,1212.51 425.207,1232.44 632.47,1246.33 839.734,1208.95 1047,1202.3 1254.26,1148.1 1461.52,1109.75 1668.79,1042.87 1876.05,993.644 2083.31,999.249 2290.58,1017.65 "/>
<polyline clip-path="url(#clip842)" style="stroke:#000000; stroke-linecap:round; stroke-linejoin:round; stroke-width:12; stroke-opacity:1; fill:none" points="217.944,1212.51 217.944,1212.51 "/>
<polyline clip-path="url(#clip842)" style="stroke:#000000; stroke-linecap:round; stroke-linejoin:round; stroke-width:12; stroke-opacity:1; fill:none" points="425.207,1316.45 425.207,1078.98 "/>
<polyline clip-path="url(#clip842)" style="stroke:#000000; stroke-linecap:round; stroke-linejoin:round; stroke-width:12; stroke-opacity:1; fill:none" points="632.47,1365.1 632.47,854.081 "/>
<polyline clip-path="url(#clip842)" style="stroke:#000000; stroke-linecap:round; stroke-linejoin:round; stroke-width:12; stroke-opacity:1; fill:none" points="839.734,1367.43 839.734,688.33 "/>
<polyline clip-path="url(#clip842)" style="stroke:#000000; stroke-linecap:round; stroke-linejoin:round; stroke-width:12; stroke-opacity:1; fill:none" points="1047,1331.99 1047,689.227 "/>
<polyline clip-path="url(#clip842)" style="stroke:#000000; stroke-linecap:round; stroke-linejoin:round; stroke-width:12; stroke-opacity:1; fill:none" points="1254.26,1431.9 1254.26,869.319 "/>
<polyline clip-path="url(#clip842)" style="stroke:#000000; stroke-linecap:round; stroke-linejoin:round; stroke-width:12; stroke-opacity:1; fill:none" points="1461.52,1445.72 1461.52,863.364 "/>
<polyline clip-path="url(#clip842)" style="stroke:#000000; stroke-linecap:round; stroke-linejoin:round; stroke-width:12; stroke-opacity:1; fill:none" points="1668.79,1430.39 1668.79,809.848 "/>
<polyline clip-path="url(#clip842)" style="stroke:#000000; stroke-linecap:round; stroke-linejoin:round; stroke-width:12; stroke-opacity:1; fill:none" points="1876.05,1397.12 1876.05,804.485 "/>
<polyline clip-path="url(#clip842)" style="stroke:#000000; stroke-linecap:round; stroke-linejoin:round; stroke-width:12; stroke-opacity:1; fill:none" points="2083.31,1370.58 2083.31,708.546 "/>
<polyline clip-path="url(#clip842)" style="stroke:#000000; stroke-linecap:round; stroke-linejoin:round; stroke-width:12; stroke-opacity:1; fill:none" points="2290.58,1414.87 2290.58,617.625 "/>
<line clip-path="url(#clip842)" x1="233.944" y1="1212.51" x2="201.944" y2="1212.51" style="stroke:#000000; stroke-width:12; stroke-opacity:1"/>
<line clip-path="url(#clip842)" x1="233.944" y1="1212.51" x2="201.944" y2="1212.51" style="stroke:#000000; stroke-width:12; stroke-opacity:1"/>
<line clip-path="url(#clip842)" x1="441.207" y1="1316.45" x2="409.207" y2="1316.45" style="stroke:#000000; stroke-width:12; stroke-opacity:1"/>
<line clip-path="url(#clip842)" x1="441.207" y1="1078.98" x2="409.207" y2="1078.98" style="stroke:#000000; stroke-width:12; stroke-opacity:1"/>
<line clip-path="url(#clip842)" x1="648.47" y1="1365.1" x2="616.47" y2="1365.1" style="stroke:#000000; stroke-width:12; stroke-opacity:1"/>
<line clip-path="url(#clip842)" x1="648.47" y1="854.081" x2="616.47" y2="854.081" style="stroke:#000000; stroke-width:12; stroke-opacity:1"/>
<line clip-path="url(#clip842)" x1="855.734" y1="1367.43" x2="823.734" y2="1367.43" style="stroke:#000000; stroke-width:12; stroke-opacity:1"/>
<line clip-path="url(#clip842)" x1="855.734" y1="688.33" x2="823.734" y2="688.33" style="stroke:#000000; stroke-width:12; stroke-opacity:1"/>
<line clip-path="url(#clip842)" x1="1063" y1="1331.99" x2="1031" y2="1331.99" style="stroke:#000000; stroke-width:12; stroke-opacity:1"/>
<line clip-path="url(#clip842)" x1="1063" y1="689.227" x2="1031" y2="689.227" style="stroke:#000000; stroke-width:12; stroke-opacity:1"/>
<line clip-path="url(#clip842)" x1="1270.26" y1="1431.9" x2="1238.26" y2="1431.9" style="stroke:#000000; stroke-width:12; stroke-opacity:1"/>
<line clip-path="url(#clip842)" x1="1270.26" y1="869.319" x2="1238.26" y2="869.319" style="stroke:#000000; stroke-width:12; stroke-opacity:1"/>
<line clip-path="url(#clip842)" x1="1477.52" y1="1445.72" x2="1445.52" y2="1445.72" style="stroke:#000000; stroke-width:12; stroke-opacity:1"/>
<line clip-path="url(#clip842)" x1="1477.52" y1="863.364" x2="1445.52" y2="863.364" style="stroke:#000000; stroke-width:12; stroke-opacity:1"/>
<line clip-path="url(#clip842)" x1="1684.79" y1="1430.39" x2="1652.79" y2="1430.39" style="stroke:#000000; stroke-width:12; stroke-opacity:1"/>
<line clip-path="url(#clip842)" x1="1684.79" y1="809.848" x2="1652.79" y2="809.848" style="stroke:#000000; stroke-width:12; stroke-opacity:1"/>
<line clip-path="url(#clip842)" x1="1892.05" y1="1397.12" x2="1860.05" y2="1397.12" style="stroke:#000000; stroke-width:12; stroke-opacity:1"/>
<line clip-path="url(#clip842)" x1="1892.05" y1="804.485" x2="1860.05" y2="804.485" style="stroke:#000000; stroke-width:12; stroke-opacity:1"/>
<line clip-path="url(#clip842)" x1="2099.31" y1="1370.58" x2="2067.31" y2="1370.58" style="stroke:#000000; stroke-width:12; stroke-opacity:1"/>
<line clip-path="url(#clip842)" x1="2099.31" y1="708.546" x2="2067.31" y2="708.546" style="stroke:#000000; stroke-width:12; stroke-opacity:1"/>
<line clip-path="url(#clip842)" x1="2306.58" y1="1414.87" x2="2274.58" y2="1414.87" style="stroke:#000000; stroke-width:12; stroke-opacity:1"/>
<line clip-path="url(#clip842)" x1="2306.58" y1="617.625" x2="2274.58" y2="617.625" style="stroke:#000000; stroke-width:12; stroke-opacity:1"/>
</svg>
