<?xml version="1.0" encoding="utf-8"?>
<svg xmlns="http://www.w3.org/2000/svg" xmlns:xlink="http://www.w3.org/1999/xlink" width="600" height="400" viewBox="0 0 2400 1600">
<defs>
  <clipPath id="clip780">
    <rect x="0" y="0" width="2400" height="1600"/>
  </clipPath>
</defs>
<path clip-path="url(#clip780)" d="M0 1600 L2400 1600 L2400 0 L0 0  Z" fill="#ffffff" fill-rule="evenodd" fill-opacity="1"/>
<defs>
  <clipPath id="clip781">
    <rect x="480" y="0" width="1681" height="1600"/>
  </clipPath>
</defs>
<path clip-path="url(#clip780)" d="M112.177 1486.45 L2352.76 1486.45 L2352.76 47.2441 L112.177 47.2441  Z" fill="#ffffff" fill-rule="evenodd" fill-opacity="1"/>
<defs>
  <clipPath id="clip782">
    <rect x="112" y="47" width="2242" height="1440"/>
  </clipPath>
</defs>
<polyline clip-path="url(#clip782)" style="stroke:#000000; stroke-linecap:round; stroke-linejoin:round; stroke-width:2; stroke-opacity:0.1; fill:none" points="175.59,1486.45 175.59,47.2441 "/>
<polyline clip-path="url(#clip782)" style="stroke:#000000; stroke-linecap:round; stroke-linejoin:round; stroke-width:2; stroke-opacity:0.1; fill:none" points="704.028,1486.45 704.028,47.2441 "/>
<polyline clip-path="url(#clip782)" style="stroke:#000000; stroke-linecap:round; stroke-linejoin:round; stroke-width:2; stroke-opacity:0.1; fill:none" points="1232.47,1486.45 1232.47,47.2441 "/>
<polyline clip-path="url(#clip782)" style="stroke:#000000; stroke-linecap:round; stroke-linejoin:round; stroke-width:2; stroke-opacity:0.1; fill:none" points="1760.9,1486.45 1760.9,47.2441 "/>
<polyline clip-path="url(#clip782)" style="stroke:#000000; stroke-linecap:round; stroke-linejoin:round; stroke-width:2; stroke-opacity:0.1; fill:none" points="2289.34,1486.45 2289.34,47.2441 "/>
<polyline clip-path="url(#clip782)" style="stroke:#000000; stroke-linecap:round; stroke-linejoin:round; stroke-width:2; stroke-opacity:0.1; fill:none" points="112.177,1461.75 2352.76,1461.75 "/>
<polyline clip-path="url(#clip782)" style="stroke:#000000; stroke-linecap:round; stroke-linejoin:round; stroke-width:2; stroke-opacity:0.1; fill:none" points="112.177,1154.27 2352.76,1154.27 "/>
<polyline clip-path="url(#clip782)" style="stroke:#000000; stroke-linecap:round; stroke-linejoin:round; stroke-width:2; stroke-opacity:0.1; fill:none" points="112.177,846.795 2352.76,846.795 "/>
<polyline clip-path="url(#clip782)" style="stroke:#000000; stroke-linecap:round; stroke-linejoin:round; stroke-width:2; stroke-opacity:0.1; fill:none" points="112.177,539.318 2352.76,539.318 "/>
<polyline clip-path="url(#clip782)" style="stroke:#000000; stroke-linecap:round; stroke-linejoin:round; stroke-width:2; stroke-opacity:0.1; fill:none" points="112.177,231.841 2352.76,231.841 "/>
<polyline clip-path="url(#clip780)" style="stroke:#000000; stroke-linecap:round; stroke-linejoin:round; stroke-width:4; stroke-opacity:1; fill:none" points="112.177,1486.45 2352.76,1486.45 "/>
<polyline clip-path="url(#clip780)" style="stroke:#000000; stroke-linecap:round; stroke-linejoin:round; stroke-width:4; stroke-opacity:1; fill:none" points="175.59,1486.45 175.59,1467.55 "/>
<polyline clip-path="url(#clip780)" style="stroke:#000000; stroke-linecap:round; stroke-linejoin:round; stroke-width:4; stroke-opacity:1; fill:none" points="704.028,1486.45 704.028,1467.55 "/>
<polyline clip-path="url(#clip780)" style="stroke:#000000; stroke-linecap:round; stroke-linejoin:round; stroke-width:4; stroke-opacity:1; fill:none" points="1232.47,1486.45 1232.47,1467.55 "/>
<polyline clip-path="url(#clip780)" style="stroke:#000000; stroke-linecap:round; stroke-linejoin:round; stroke-width:4; stroke-opacity:1; fill:none" points="1760.9,1486.45 1760.9,1467.55 "/>
<polyline clip-path="url(#clip780)" style="stroke:#000000; stroke-linecap:round; stroke-linejoin:round; stroke-width:4; stroke-opacity:1; fill:none" points="2289.34,1486.45 2289.34,1467.55 "/>
<path clip-path="url(#clip780)" d="M152.974 1517.37 Q149.363 1517.37 147.534 1520.93 Q145.729 1524.47 145.729 1531.6 Q145.729 1538.71 147.534 1542.27 Q149.363 1545.82 152.974 1545.82 Q156.608 1545.82 158.414 1542.27 Q160.243 1538.71 160.243 1531.6 Q160.243 1524.47 158.414 1520.93 Q156.608 1517.37 152.974 1517.37 M152.974 1513.66 Q158.784 1513.66 161.84 1518.27 Q164.919 1522.85 164.919 1531.6 Q164.919 1540.33 161.84 1544.94 Q158.784 1549.52 152.974 1549.52 Q147.164 1549.52 144.085 1544.94 Q141.03 1540.33 141.03 1531.6 Q141.03 1522.85 144.085 1518.27 Q147.164 1513.66 152.974 1513.66 Z" fill="#000000" fill-rule="nonzero" fill-opacity="1" /><path clip-path="url(#clip780)" d="M173.136 1542.97 L178.02 1542.97 L178.02 1548.85 L173.136 1548.85 L173.136 1542.97 Z" fill="#000000" fill-rule="nonzero" fill-opacity="1" /><path clip-path="url(#clip780)" d="M198.205 1517.37 Q194.594 1517.37 192.766 1520.93 Q190.96 1524.47 190.96 1531.6 Q190.96 1538.71 192.766 1542.27 Q194.594 1545.82 198.205 1545.82 Q201.84 1545.82 203.645 1542.27 Q205.474 1538.71 205.474 1531.6 Q205.474 1524.47 203.645 1520.93 Q201.84 1517.37 198.205 1517.37 M198.205 1513.66 Q204.016 1513.66 207.071 1518.27 Q210.15 1522.85 210.15 1531.6 Q210.15 1540.33 207.071 1544.94 Q204.016 1549.52 198.205 1549.52 Q192.395 1549.52 189.317 1544.94 Q186.261 1540.33 186.261 1531.6 Q186.261 1522.85 189.317 1518.27 Q192.395 1513.66 198.205 1513.66 Z" fill="#000000" fill-rule="nonzero" fill-opacity="1" /><path clip-path="url(#clip780)" d="M675.764 1544.91 L692.084 1544.91 L692.084 1548.85 L670.139 1548.85 L670.139 1544.91 Q672.801 1542.16 677.385 1537.53 Q681.991 1532.88 683.172 1531.53 Q685.417 1529.01 686.297 1527.27 Q687.2 1525.51 687.2 1523.82 Q687.2 1521.07 685.255 1519.33 Q683.334 1517.6 680.232 1517.6 Q678.033 1517.6 675.579 1518.36 Q673.149 1519.13 670.371 1520.68 L670.371 1515.95 Q673.195 1514.82 675.649 1514.24 Q678.102 1513.66 680.139 1513.66 Q685.51 1513.66 688.704 1516.35 Q691.899 1519.03 691.899 1523.52 Q691.899 1525.65 691.088 1527.57 Q690.301 1529.47 688.195 1532.07 Q687.616 1532.74 684.514 1535.95 Q681.413 1539.15 675.764 1544.91 Z" fill="#000000" fill-rule="nonzero" fill-opacity="1" /><path clip-path="url(#clip780)" d="M701.899 1542.97 L706.783 1542.97 L706.783 1548.85 L701.899 1548.85 L701.899 1542.97 Z" fill="#000000" fill-rule="nonzero" fill-opacity="1" /><path clip-path="url(#clip780)" d="M717.014 1514.29 L735.371 1514.29 L735.371 1518.22 L721.297 1518.22 L721.297 1526.7 Q722.315 1526.35 723.334 1526.19 Q724.352 1526 725.371 1526 Q731.158 1526 734.537 1529.17 Q737.917 1532.34 737.917 1537.76 Q737.917 1543.34 734.445 1546.44 Q730.972 1549.52 724.653 1549.52 Q722.477 1549.52 720.209 1549.15 Q717.963 1548.78 715.556 1548.04 L715.556 1543.34 Q717.639 1544.47 719.861 1545.03 Q722.084 1545.58 724.56 1545.58 Q728.565 1545.58 730.903 1543.48 Q733.241 1541.37 733.241 1537.76 Q733.241 1534.15 730.903 1532.04 Q728.565 1529.94 724.56 1529.94 Q722.685 1529.94 720.81 1530.35 Q718.959 1530.77 717.014 1531.65 L717.014 1514.29 Z" fill="#000000" fill-rule="nonzero" fill-opacity="1" /><path clip-path="url(#clip780)" d="M1199.63 1514.29 L1217.99 1514.29 L1217.99 1518.22 L1203.91 1518.22 L1203.91 1526.7 Q1204.93 1526.35 1205.95 1526.19 Q1206.97 1526 1207.99 1526 Q1213.77 1526 1217.15 1529.17 Q1220.53 1532.34 1220.53 1537.76 Q1220.53 1543.34 1217.06 1546.44 Q1213.59 1549.52 1207.27 1549.52 Q1205.09 1549.52 1202.83 1549.15 Q1200.58 1548.78 1198.17 1548.04 L1198.17 1543.34 Q1200.26 1544.47 1202.48 1545.03 Q1204.7 1545.58 1207.18 1545.58 Q1211.18 1545.58 1213.52 1543.48 Q1215.86 1541.37 1215.86 1537.76 Q1215.86 1534.15 1213.52 1532.04 Q1211.18 1529.94 1207.18 1529.94 Q1205.3 1529.94 1203.43 1530.35 Q1201.58 1530.77 1199.63 1531.65 L1199.63 1514.29 Z" fill="#000000" fill-rule="nonzero" fill-opacity="1" /><path clip-path="url(#clip780)" d="M1229.75 1542.97 L1234.63 1542.97 L1234.63 1548.85 L1229.75 1548.85 L1229.75 1542.97 Z" fill="#000000" fill-rule="nonzero" fill-opacity="1" /><path clip-path="url(#clip780)" d="M1254.82 1517.37 Q1251.2 1517.37 1249.38 1520.93 Q1247.57 1524.47 1247.57 1531.6 Q1247.57 1538.71 1249.38 1542.27 Q1251.2 1545.82 1254.82 1545.82 Q1258.45 1545.82 1260.26 1542.27 Q1262.08 1538.71 1262.08 1531.6 Q1262.08 1524.47 1260.26 1520.93 Q1258.45 1517.37 1254.82 1517.37 M1254.82 1513.66 Q1260.63 1513.66 1263.68 1518.27 Q1266.76 1522.85 1266.76 1531.6 Q1266.76 1540.33 1263.68 1544.94 Q1260.63 1549.52 1254.82 1549.52 Q1249.01 1549.52 1245.93 1544.94 Q1242.87 1540.33 1242.87 1531.6 Q1242.87 1522.85 1245.93 1518.27 Q1249.01 1513.66 1254.82 1513.66 Z" fill="#000000" fill-rule="nonzero" fill-opacity="1" /><path clip-path="url(#clip780)" d="M1727.22 1514.29 L1749.45 1514.29 L1749.45 1516.28 L1736.9 1548.85 L1732.02 1548.85 L1743.82 1518.22 L1727.22 1518.22 L1727.22 1514.29 Z" fill="#000000" fill-rule="nonzero" fill-opacity="1" /><path clip-path="url(#clip780)" d="M1758.57 1542.97 L1763.45 1542.97 L1763.45 1548.85 L1758.57 1548.85 L1758.57 1542.97 Z" fill="#000000" fill-rule="nonzero" fill-opacity="1" /><path clip-path="url(#clip780)" d="M1773.68 1514.29 L1792.04 1514.29 L1792.04 1518.22 L1777.97 1518.22 L1777.97 1526.7 Q1778.98 1526.35 1780 1526.19 Q1781.02 1526 1782.04 1526 Q1787.83 1526 1791.21 1529.17 Q1794.59 1532.34 1794.59 1537.76 Q1794.59 1543.34 1791.11 1546.44 Q1787.64 1549.52 1781.32 1549.52 Q1779.15 1549.52 1776.88 1549.15 Q1774.63 1548.78 1772.22 1548.04 L1772.22 1543.34 Q1774.31 1544.47 1776.53 1545.03 Q1778.75 1545.58 1781.23 1545.58 Q1785.23 1545.58 1787.57 1543.48 Q1789.91 1541.37 1789.91 1537.76 Q1789.91 1534.15 1787.57 1532.04 Q1785.23 1529.94 1781.23 1529.94 Q1779.35 1529.94 1777.48 1530.35 Q1775.63 1530.77 1773.68 1531.65 L1773.68 1514.29 Z" fill="#000000" fill-rule="nonzero" fill-opacity="1" /><path clip-path="url(#clip780)" d="M2241.42 1544.91 L2249.05 1544.91 L2249.05 1518.55 L2240.74 1520.21 L2240.74 1515.95 L2249.01 1514.29 L2253.68 1514.29 L2253.68 1544.91 L2261.32 1544.91 L2261.32 1548.85 L2241.42 1548.85 L2241.42 1544.91 Z" fill="#000000" fill-rule="nonzero" fill-opacity="1" /><path clip-path="url(#clip780)" d="M2280.77 1517.37 Q2277.16 1517.37 2275.33 1520.93 Q2273.52 1524.47 2273.52 1531.6 Q2273.52 1538.71 2275.33 1542.27 Q2277.16 1545.82 2280.77 1545.82 Q2284.4 1545.82 2286.21 1542.27 Q2288.04 1538.71 2288.04 1531.6 Q2288.04 1524.47 2286.21 1520.93 Q2284.4 1517.37 2280.77 1517.37 M2280.77 1513.66 Q2286.58 1513.66 2289.63 1518.27 Q2292.71 1522.85 2292.71 1531.6 Q2292.71 1540.33 2289.63 1544.94 Q2286.58 1549.52 2280.77 1549.52 Q2274.96 1549.52 2271.88 1544.94 Q2268.82 1540.33 2268.82 1531.6 Q2268.82 1522.85 2271.88 1518.27 Q2274.96 1513.66 2280.77 1513.66 Z" fill="#000000" fill-rule="nonzero" fill-opacity="1" /><path clip-path="url(#clip780)" d="M2300.93 1542.97 L2305.81 1542.97 L2305.81 1548.85 L2300.93 1548.85 L2300.93 1542.97 Z" fill="#000000" fill-rule="nonzero" fill-opacity="1" /><path clip-path="url(#clip780)" d="M2326 1517.37 Q2322.39 1517.37 2320.56 1520.93 Q2318.75 1524.47 2318.75 1531.6 Q2318.75 1538.71 2320.56 1542.27 Q2322.39 1545.82 2326 1545.82 Q2329.63 1545.82 2331.44 1542.27 Q2333.27 1538.71 2333.27 1531.6 Q2333.27 1524.47 2331.44 1520.93 Q2329.63 1517.37 2326 1517.37 M2326 1513.66 Q2331.81 1513.66 2334.86 1518.27 Q2337.94 1522.85 2337.94 1531.6 Q2337.94 1540.33 2334.86 1544.94 Q2331.81 1549.52 2326 1549.52 Q2320.19 1549.52 2317.11 1544.94 Q2314.05 1540.33 2314.05 1531.6 Q2314.05 1522.85 2317.11 1518.27 Q2320.19 1513.66 2326 1513.66 Z" fill="#000000" fill-rule="nonzero" fill-opacity="1" /><polyline clip-path="url(#clip780)" style="stroke:#000000; stroke-linecap:round; stroke-linejoin:round; stroke-width:4; stroke-opacity:1; fill:none" points="112.177,1486.45 112.177,47.2441 "/>
<polyline clip-path="url(#clip780)" style="stroke:#000000; stroke-linecap:round; stroke-linejoin:round; stroke-width:4; stroke-opacity:1; fill:none" points="112.177,1461.75 131.075,1461.75 "/>
<polyline clip-path="url(#clip780)" style="stroke:#000000; stroke-linecap:round; stroke-linejoin:round; stroke-width:4; stroke-opacity:1; fill:none" points="112.177,1154.27 131.075,1154.27 "/>
<polyline clip-path="url(#clip780)" style="stroke:#000000; stroke-linecap:round; stroke-linejoin:round; stroke-width:4; stroke-opacity:1; fill:none" points="112.177,846.795 131.075,846.795 "/>
<polyline clip-path="url(#clip780)" style="stroke:#000000; stroke-linecap:round; stroke-linejoin:round; stroke-width:4; stroke-opacity:1; fill:none" points="112.177,539.318 131.075,539.318 "/>
<polyline clip-path="url(#clip780)" style="stroke:#000000; stroke-linecap:round; stroke-linejoin:round; stroke-width:4; stroke-opacity:1; fill:none" points="112.177,231.841 131.075,231.841 "/>
<path clip-path="url(#clip780)" d="M64.2328 1447.55 Q60.6217 1447.55 58.793 1451.11 Q56.9875 1454.65 56.9875 1461.78 Q56.9875 1468.89 58.793 1472.45 Q60.6217 1476 64.2328 1476 Q67.867 1476 69.6726 1472.45 Q71.5013 1468.89 71.5013 1461.78 Q71.5013 1454.65 69.6726 1451.11 Q67.867 1447.55 64.2328 1447.55 M64.2328 1443.84 Q70.0429 1443.84 73.0985 1448.45 Q76.1772 1453.03 76.1772 1461.78 Q76.1772 1470.51 73.0985 1475.12 Q70.0429 1479.7 64.2328 1479.7 Q58.4226 1479.7 55.344 1475.12 Q52.2884 1470.51 52.2884 1461.78 Q52.2884 1453.03 55.344 1448.45 Q58.4226 1443.84 64.2328 1443.84 Z" fill="#000000" fill-rule="nonzero" fill-opacity="1" /><path clip-path="url(#clip780)" d="M59.8578 1167.62 L76.1772 1167.62 L76.1772 1171.55 L54.2328 1171.55 L54.2328 1167.62 Q56.8949 1164.86 61.4782 1160.23 Q66.0846 1155.58 67.2652 1154.24 Q69.5105 1151.71 70.3902 1149.98 Q71.2929 1148.22 71.2929 1146.53 Q71.2929 1143.77 69.3485 1142.04 Q67.4272 1140.3 64.3254 1140.3 Q62.1263 1140.3 59.6726 1141.07 Q57.2421 1141.83 54.4643 1143.38 L54.4643 1138.66 Q57.2884 1137.52 59.7421 1136.95 Q62.1958 1136.37 64.2328 1136.37 Q69.6031 1136.37 72.7976 1139.05 Q75.992 1141.74 75.992 1146.23 Q75.992 1148.36 75.1818 1150.28 Q74.3948 1152.18 72.2883 1154.77 Q71.7096 1155.44 68.6078 1158.66 Q65.5059 1161.85 59.8578 1167.62 Z" fill="#000000" fill-rule="nonzero" fill-opacity="1" /><path clip-path="url(#clip780)" d="M66.5939 833.589 L54.7884 852.038 L66.5939 852.038 L66.5939 833.589 M65.367 829.515 L71.2466 829.515 L71.2466 852.038 L76.1772 852.038 L76.1772 855.927 L71.2466 855.927 L71.2466 864.075 L66.5939 864.075 L66.5939 855.927 L50.9921 855.927 L50.9921 851.413 L65.367 829.515 Z" fill="#000000" fill-rule="nonzero" fill-opacity="1" /><path clip-path="url(#clip780)" d="M64.6495 537.455 Q61.5013 537.455 59.6495 539.607 Q57.8208 541.76 57.8208 545.51 Q57.8208 549.237 59.6495 551.413 Q61.5013 553.566 64.6495 553.566 Q67.7976 553.566 69.6263 551.413 Q71.4781 549.237 71.4781 545.51 Q71.4781 541.76 69.6263 539.607 Q67.7976 537.455 64.6495 537.455 M73.9318 522.802 L73.9318 527.061 Q72.1726 526.228 70.367 525.788 Q68.5846 525.348 66.8254 525.348 Q62.1958 525.348 59.7421 528.473 Q57.3115 531.598 56.9643 537.918 Q58.33 535.904 60.3902 534.839 Q62.4504 533.751 64.9272 533.751 Q70.1355 533.751 73.1448 536.922 Q76.1772 540.07 76.1772 545.51 Q76.1772 550.834 73.029 554.052 Q69.8809 557.269 64.6495 557.269 Q58.6541 557.269 55.4828 552.686 Q52.3116 548.08 52.3116 539.353 Q52.3116 531.158 56.2004 526.297 Q60.0893 521.413 66.6402 521.413 Q68.3994 521.413 70.1818 521.76 Q71.9874 522.107 73.9318 522.802 Z" fill="#000000" fill-rule="nonzero" fill-opacity="1" /><path clip-path="url(#clip780)" d="M64.3254 232.709 Q60.9921 232.709 59.0708 234.492 Q57.1726 236.274 57.1726 239.399 Q57.1726 242.524 59.0708 244.307 Q60.9921 246.089 64.3254 246.089 Q67.6587 246.089 69.58 244.307 Q71.5013 242.501 71.5013 239.399 Q71.5013 236.274 69.58 234.492 Q67.6819 232.709 64.3254 232.709 M59.6495 230.719 Q56.6402 229.978 54.9504 227.918 Q53.2838 225.858 53.2838 222.895 Q53.2838 218.751 56.2236 216.344 Q59.1865 213.936 64.3254 213.936 Q69.4874 213.936 72.4272 216.344 Q75.367 218.751 75.367 222.895 Q75.367 225.858 73.6772 227.918 Q72.0105 229.978 69.0244 230.719 Q72.404 231.506 74.279 233.797 Q76.1772 236.089 76.1772 239.399 Q76.1772 244.422 73.0985 247.107 Q70.0429 249.793 64.3254 249.793 Q58.6078 249.793 55.5291 247.107 Q52.4736 244.422 52.4736 239.399 Q52.4736 236.089 54.3717 233.797 Q56.2699 231.506 59.6495 230.719 M57.9365 223.334 Q57.9365 226.02 59.6032 227.524 Q61.293 229.029 64.3254 229.029 Q67.3346 229.029 69.0244 227.524 Q70.7374 226.02 70.7374 223.334 Q70.7374 220.649 69.0244 219.145 Q67.3346 217.64 64.3254 217.64 Q61.293 217.64 59.6032 219.145 Q57.9365 220.649 57.9365 223.334 Z" fill="#000000" fill-rule="nonzero" fill-opacity="1" /><path clip-path="url(#clip782)" d="M175.59 1308.01 L196.727 1317.47 L217.865 1308.34 L239.002 1297.04 L260.14 1288.99 L281.277 1282.86 L302.415 1273.53 L323.553 1250.73 L344.69 1208.42 L365.828 1190.56 L386.965 1150.73 L408.103 1133.45 L429.24 1115.89 L450.378 1105.57 L471.515 1041.55 L492.653 953.441 L513.79 833.995 L534.928 720.981 L556.065 649.245 L577.203 717.47 L598.34 887.122 L619.478 992.9 L640.616 1064.95 L661.753 1153.28 L682.891 1171.68 L704.028 1215.07 L725.166 1251.53 L746.303 1295.02 L767.441 1315.3 L788.578 1337.6 L809.716 1349.13 L830.853 1359.29 L851.991 1365.31 L873.128 1365.74 L894.266 1364.43 L915.404 1362.14 L936.541 1359.36 L957.679 1346.92 L978.816 1326.73 L999.954 1319.91 L1021.09 1302.2 L1042.23 1281.77 L1063.37 1244.19 L1084.5 1200.67 L1105.64 1168.05 L1126.78 1107.56 L1147.92 1090.27 L1169.05 1033.92 L1190.19 950.764 L1211.33 913.768 L1232.47 869.129 L1253.6 902.536 L1274.74 922.799 L1295.88 1007.04 L1317.02 1106.75 L1338.15 1155.21 L1359.29 1201.6 L1380.43 1254.24 L1401.57 1290.42 L1422.7 1311.56 L1443.84 1329.69 L1464.98 1336.99 L1486.12 1349.03 L1507.25 1356.51 L1528.39 1365.65 L1549.53 1367.77 L1570.67 1368.45 L1591.8 1366.86 L1612.94 1359.08 L1634.08 1356.3 L1655.22 1350.67 L1676.35 1346.86 L1697.49 1334.12 L1718.63 1337.19 L1739.77 1323.97 L1760.9 1294.8 L1782.04 1277.22 L1803.18 1263.88 L1824.32 1235.31 L1845.46 1211.29 L1866.59 1186.45 L1887.73 1179.31 L1908.87 1149.79 L1930.01 1154.84 L1951.14 1175.73 L1972.28 1161.92 L1993.42 1144.41 L2014.56 1120.38 L2035.69 1168.52 L2056.83 1183.74 L2077.97 1195.02 L2099.11 1236.18 L2120.24 1256.41 L2141.38 1273.37 L2162.52 1292.03 L2183.66 1338.19 L2204.79 1370.27 L2225.93 1382.26 L2247.07 1392.59 L2268.21 1393.43 L2289.34 1398.91 L2289.34 808.375 L2268.21 734.587 L2247.07 604.981 L2225.93 579.734 L2204.79 580.413 L2183.66 419.447 L2162.52 222.291 L2141.38 237.711 L2120.24 260.031 L2099.11 348.37 L2077.97 268.08 L2056.83 210.827 L2035.69 160.668 L2014.56 269.5 L1993.42 277.722 L1972.28 379.123 L1951.14 497.235 L1930.01 485.401 L1908.87 425.884 L1887.73 417.673 L1866.59 511.333 L1845.46 658.668 L1824.32 721.082 L1803.18 778.609 L1782.04 769.703 L1760.9 839.396 L1739.77 882.348 L1718.63 908.247 L1697.49 947.171 L1676.35 1001.83 L1655.22 1041.38 L1634.08 1069.21 L1612.94 1091.04 L1591.8 1112.43 L1570.67 1153.04 L1549.53 1152.27 L1528.39 1145.31 L1507.25 1098.84 L1486.12 1073.56 L1464.98 968.313 L1443.84 806.129 L1422.7 630.88 L1401.57 487.416 L1380.43 294.71 L1359.29 277.841 L1338.15 272.628 L1317.02 249.792 L1295.88 252.294 L1274.74 343.315 L1253.6 358.714 L1232.47 409.578 L1211.33 464.02 L1190.19 540.242 L1169.05 629.085 L1147.92 694.347 L1126.78 744.177 L1105.64 752.794 L1084.5 784.463 L1063.37 868.83 L1042.23 921.777 L1021.09 952.292 L999.954 1013.74 L978.816 1029.68 L957.679 1034.99 L936.541 1073.18 L915.404 1093.05 L894.266 1110.46 L873.128 1138.67 L851.991 1171.15 L830.853 1156.18 L809.716 1158.13 L788.578 1122.41 L767.441 1125.44 L746.303 1031.03 L725.166 757.545 L704.028 571.108 L682.891 294.432 L661.753 201.648 L640.616 87.9763 L619.478 179.326 L598.34 322.074 L577.203 337.666 L556.065 352.614 L534.928 369.089 L513.79 401.123 L492.653 453.798 L471.515 599.826 L450.378 705.728 L429.24 789.998 L408.103 884.529 L386.965 922.355 L365.828 992.717 L344.69 1046.56 L323.553 1090.82 L302.415 1139.59 L281.277 1189 L260.14 1219.56 L239.002 1260.31 L217.865 1272.57 L196.727 1290.34 L175.59 1308.01  Z" fill="#009af9" fill-rule="evenodd" fill-opacity="0.5"/>
<polyline clip-path="url(#clip782)" style="stroke:#009af9; stroke-linecap:round; stroke-linejoin:round; stroke-width:12; stroke-opacity:1; fill:none" points="175.59,1308.01 196.727,1294.01 217.865,1285.09 239.002,1268.48 260.14,1256.46 281.277,1235.38 302.415,1198.64 323.553,1157.04 344.69,1118.75 365.828,1083.31 386.965,1032.24 408.103,973.523 429.24,943.119 450.378,876.15 471.515,795.162 492.653,728.979 513.79,631.348 534.928,588.452 556.065,534.79 577.203,490.359 598.34,456.462 619.478,547.36 640.616,673.902 661.753,845.176 682.891,991.344 704.028,1111.63 725.166,1171.91 746.303,1229.58 767.441,1253.52 788.578,1282.1 809.716,1308.25 830.853,1321.78 851.991,1321.63 873.128,1312.49 894.266,1306.05 915.404,1292.63 936.541,1276.98 957.679,1250.9 978.816,1224.72 999.954,1206.88 1021.09,1177.71 1042.23,1154.1 1063.37,1125.63 1084.5,1067.75 1105.64,1023.28 1126.78,957.141 1147.92,878.047 1169.05,866.891 1190.19,852.674 1211.33,787.314 1232.47,690.923 1253.6,573.919 1274.74,538.702 1295.88,490.091 1317.02,494.911 1338.15,570.236 1359.29,690.733 1380.43,847.097 1401.57,994.331 1422.7,1130.16 1443.84,1172.15 1464.98,1226.35 1486.12,1264.12 1507.25,1289.64 1528.39,1301.96 1549.53,1301.97 1570.67,1315.01 1591.8,1315.56 1612.94,1320.77 1634.08,1310.36 1655.22,1297.88 1676.35,1276.56 1697.49,1254.96 1718.63,1225.41 1739.77,1194.8 1760.9,1152 1782.04,1091.7 1803.18,1066.49 1824.32,990.08 1845.46,920.045 1866.59,854.174 1887.73,833.354 1908.87,752.662 1930.01,681.989 1951.14,617.233 1972.28,637.491 1993.42,755.348 2014.56,737.852 2035.69,696.788 2056.83,709.122 2077.97,784.355 2099.11,934.629 2120.24,1078.06 2141.38,1167.72 2162.52,1200.58 2183.66,1242.31 2204.79,1274.08 2225.93,1279.48 2247.07,1289.03 2268.21,1274.95 2289.34,1275.34 "/>
<path clip-path="url(#clip782)" d="M175.59 1308.01 L196.727 1338.1 L217.865 1364.18 L239.002 1381.03 L260.14 1393.69 L281.277 1404.75 L302.415 1414 L323.553 1421.64 L344.69 1426.74 L365.828 1430.78 L386.965 1434.07 L408.103 1436.68 L429.24 1438.76 L450.378 1440.67 L471.515 1441.44 L492.653 1441.6 L513.79 1440.41 L534.928 1436.33 L556.065 1428.88 L577.203 1415.81 L598.34 1391.57 L619.478 1352.67 L640.616 1290.6 L661.753 1203.71 L682.891 1103.81 L704.028 1113.82 L725.166 1155.39 L746.303 1192.8 L767.441 1220.99 L788.578 1246.87 L809.716 1271.55 L830.853 1292.95 L851.991 1314.62 L873.128 1336.77 L894.266 1355.45 L915.404 1376.09 L936.541 1393.34 L957.679 1405.74 L978.816 1414.28 L999.954 1421.27 L1021.09 1425.82 L1042.23 1429.01 L1063.37 1431.03 L1084.5 1433.86 L1105.64 1437.1 L1126.78 1439.09 L1147.92 1440 L1169.05 1440.46 L1190.19 1439.89 L1211.33 1438.51 L1232.47 1435.28 L1253.6 1427.63 L1274.74 1415.1 L1295.88 1391.08 L1317.02 1354.62 L1338.15 1294.42 L1359.29 1257.19 L1380.43 1229.95 L1401.57 1187.29 L1422.7 1220.82 L1443.84 1252.53 L1464.98 1280.27 L1486.12 1301.35 L1507.25 1315.55 L1528.39 1330.46 L1549.53 1347.79 L1570.67 1367.96 L1591.8 1383.21 L1612.94 1393.75 L1634.08 1405.16 L1655.22 1415.26 L1676.35 1419.82 L1697.49 1423.37 L1718.63 1427.47 L1739.77 1432.04 L1760.9 1435.24 L1782.04 1438.01 L1803.18 1440.89 L1824.32 1443.07 L1845.46 1444.11 L1866.59 1444.72 L1887.73 1444.71 L1908.87 1444.1 L1930.01 1443.37 L1951.14 1444.93 L1972.28 1445.72 L1993.42 1445.42 L2014.56 1442.1 L2035.69 1437.66 L2056.83 1428.72 L2077.97 1415.68 L2099.11 1390.12 L2120.24 1378.84 L2141.38 1376.46 L2162.52 1366.46 L2183.66 1349.38 L2204.79 1340.51 L2225.93 1350.91 L2247.07 1356.57 L2268.21 1356.42 L2289.34 1372.29 L2289.34 729.347 L2268.21 699.602 L2247.07 676.159 L2225.93 604.689 L2204.79 486.856 L2183.66 521.711 L2162.52 596.495 L2141.38 482.329 L2120.24 455.767 L2099.11 564.033 L2077.97 756.499 L2056.83 874.817 L2035.69 864.833 L2014.56 850.991 L1993.42 920.674 L1972.28 994.889 L1951.14 1064.6 L1930.01 1091.03 L1908.87 1100.67 L1887.73 1116.87 L1866.59 1157.26 L1845.46 1199.7 L1824.32 1235.07 L1803.18 1265.26 L1782.04 1290.46 L1760.9 1309.93 L1739.77 1313.17 L1718.63 1318.04 L1697.49 1310.3 L1676.35 1301.64 L1655.22 1288.69 L1634.08 1250.25 L1612.94 1193.62 L1591.8 1134.17 L1570.67 1069.86 L1549.53 1001.77 L1528.39 919.864 L1507.25 815.333 L1486.12 697.879 L1464.98 633.19 L1443.84 641.596 L1422.7 621.278 L1401.57 657.828 L1380.43 723.026 L1359.29 712.801 L1338.15 688.98 L1317.02 745.425 L1295.88 819.364 L1274.74 964.696 L1253.6 1040.61 L1232.47 1072.82 L1211.33 1109.15 L1190.19 1139.28 L1169.05 1170.72 L1147.92 1204.35 L1126.78 1238.94 L1105.64 1278.63 L1084.5 1308.26 L1063.37 1323.52 L1042.23 1329.65 L1021.09 1331.34 L999.954 1328.88 L978.816 1323.55 L957.679 1315.82 L936.541 1292.7 L915.404 1251.95 L894.266 1203.01 L873.128 1145.24 L851.991 1074.58 L830.853 991.708 L809.716 896.87 L788.578 786.979 L767.441 657.26 L746.303 555.708 L725.166 574.44 L704.028 662.361 L682.891 693.607 L661.753 754.698 L640.616 808.481 L619.478 897.773 L598.34 983.955 L577.203 1046.79 L556.065 1129.96 L534.928 1212.54 L513.79 1280.83 L492.653 1338.93 L471.515 1373.23 L450.378 1390.34 L429.24 1397.01 L408.103 1401.52 L386.965 1403.96 L365.828 1403.51 L344.69 1402.95 L323.553 1398.14 L302.415 1394.72 L281.277 1385.77 L260.14 1379.88 L239.002 1369.24 L217.865 1349.65 L196.727 1333.16 L175.59 1308.01  Z" fill="#e26f46" fill-rule="evenodd" fill-opacity="0.5"/>
<polyline clip-path="url(#clip782)" style="stroke:#e26f46; stroke-linecap:round; stroke-linejoin:round; stroke-width:12; stroke-opacity:1; fill:none" points="175.59,1308.01 196.727,1336.41 217.865,1358.42 239.002,1376.1 260.14,1390.66 281.277,1402.21 302.415,1408.94 323.553,1414.2 344.69,1418.54 365.828,1422.22 386.965,1424.23 408.103,1424.39 429.24,1424.66 450.378,1422.86 471.515,1417.19 492.653,1406.46 513.79,1388.23 534.928,1357.43 556.065,1307.94 577.203,1243.91 598.34,1150.62 619.478,1037.01 640.616,991.509 661.753,922.112 682.891,881.694 704.028,819.924 725.166,880.352 746.303,923.748 767.441,1005.2 788.578,1077.98 809.716,1146.41 830.853,1205.5 851.991,1262.52 873.128,1301.44 894.266,1318.25 915.404,1339.24 936.541,1355.32 957.679,1371.54 978.816,1383.63 999.954,1388.69 1021.09,1401.45 1042.23,1411.75 1063.37,1418.34 1084.5,1418.84 1105.64,1418.82 1126.78,1417.01 1147.92,1414.24 1169.05,1406.18 1190.19,1399.48 1211.33,1387.87 1232.47,1371.4 1253.6,1348.02 1274.74,1306.55 1295.88,1255.62 1317.02,1161.35 1338.15,1119.29 1359.29,1022.38 1380.43,868.759 1401.57,856.747 1422.7,913.004 1443.84,905.329 1464.98,963.205 1486.12,1020.98 1507.25,1092.65 1528.39,1151.06 1549.53,1228.33 1570.67,1267.82 1591.8,1310.75 1612.94,1335.17 1634.08,1346.66 1655.22,1359.75 1676.35,1380.16 1697.49,1395.35 1718.63,1404.94 1739.77,1415.26 1760.9,1418.79 1782.04,1421.06 1803.18,1418.85 1824.32,1421.45 1845.46,1424.18 1866.59,1424.91 1887.73,1419.34 1908.87,1408.25 1930.01,1392.83 1951.14,1369.6 1972.28,1343.33 1993.42,1300.89 2014.56,1241.41 2035.69,1167.2 2056.83,1040 2077.97,979.459 2099.11,1026.22 2120.24,1100.45 2141.38,1107.71 2162.52,1064.9 2183.66,1100.42 2204.79,1133.98 2225.93,1114.91 2247.07,1177.43 2268.21,1229.91 2289.34,1267.48 "/>
</svg>
