<?xml version="1.0" encoding="utf-8"?>
<svg xmlns="http://www.w3.org/2000/svg" xmlns:xlink="http://www.w3.org/1999/xlink" width="600" height="400" viewBox="0 0 2400 1600">
<defs>
  <clipPath id="clip890">
    <rect x="0" y="0" width="2400" height="1600"/>
  </clipPath>
</defs>
<path clip-path="url(#clip890)" d="M0 1600 L2400 1600 L2400 0 L0 0  Z" fill="#ffffff" fill-rule="evenodd" fill-opacity="1"/>
<defs>
  <clipPath id="clip891">
    <rect x="155" y="47" width="2198" height="1440"/>
  </clipPath>
</defs>
<path clip-path="url(#clip890)" d="M155.765 1486.45 L2352.76 1486.45 L2352.76 47.2441 L155.765 47.2441  Z" fill="#ffffff" fill-rule="evenodd" fill-opacity="1"/>
<polyline clip-path="url(#clip891)" style="stroke:#000000; stroke-linecap:round; stroke-linejoin:round; stroke-width:2; stroke-opacity:0.1; fill:none" points="217.944,1486.45 217.944,47.2441 "/>
<polyline clip-path="url(#clip891)" style="stroke:#000000; stroke-linecap:round; stroke-linejoin:round; stroke-width:2; stroke-opacity:0.1; fill:none" points="736.102,1486.45 736.102,47.2441 "/>
<polyline clip-path="url(#clip891)" style="stroke:#000000; stroke-linecap:round; stroke-linejoin:round; stroke-width:2; stroke-opacity:0.1; fill:none" points="1254.26,1486.45 1254.26,47.2441 "/>
<polyline clip-path="url(#clip891)" style="stroke:#000000; stroke-linecap:round; stroke-linejoin:round; stroke-width:2; stroke-opacity:0.1; fill:none" points="1772.42,1486.45 1772.42,47.2441 "/>
<polyline clip-path="url(#clip891)" style="stroke:#000000; stroke-linecap:round; stroke-linejoin:round; stroke-width:2; stroke-opacity:0.1; fill:none" points="2290.58,1486.45 2290.58,47.2441 "/>
<polyline clip-path="url(#clip891)" style="stroke:#000000; stroke-linecap:round; stroke-linejoin:round; stroke-width:2; stroke-opacity:0.1; fill:none" points="155.765,1300.21 2352.76,1300.21 "/>
<polyline clip-path="url(#clip891)" style="stroke:#000000; stroke-linecap:round; stroke-linejoin:round; stroke-width:2; stroke-opacity:0.1; fill:none" points="155.765,1034.79 2352.76,1034.79 "/>
<polyline clip-path="url(#clip891)" style="stroke:#000000; stroke-linecap:round; stroke-linejoin:round; stroke-width:2; stroke-opacity:0.1; fill:none" points="155.765,769.362 2352.76,769.362 "/>
<polyline clip-path="url(#clip891)" style="stroke:#000000; stroke-linecap:round; stroke-linejoin:round; stroke-width:2; stroke-opacity:0.1; fill:none" points="155.765,503.937 2352.76,503.937 "/>
<polyline clip-path="url(#clip891)" style="stroke:#000000; stroke-linecap:round; stroke-linejoin:round; stroke-width:2; stroke-opacity:0.1; fill:none" points="155.765,238.513 2352.76,238.513 "/>
<polyline clip-path="url(#clip890)" style="stroke:#000000; stroke-linecap:round; stroke-linejoin:round; stroke-width:4; stroke-opacity:1; fill:none" points="155.765,1486.45 2352.76,1486.45 "/>
<polyline clip-path="url(#clip890)" style="stroke:#000000; stroke-linecap:round; stroke-linejoin:round; stroke-width:4; stroke-opacity:1; fill:none" points="217.944,1486.45 217.944,1467.55 "/>
<polyline clip-path="url(#clip890)" style="stroke:#000000; stroke-linecap:round; stroke-linejoin:round; stroke-width:4; stroke-opacity:1; fill:none" points="736.102,1486.45 736.102,1467.55 "/>
<polyline clip-path="url(#clip890)" style="stroke:#000000; stroke-linecap:round; stroke-linejoin:round; stroke-width:4; stroke-opacity:1; fill:none" points="1254.26,1486.45 1254.26,1467.55 "/>
<polyline clip-path="url(#clip890)" style="stroke:#000000; stroke-linecap:round; stroke-linejoin:round; stroke-width:4; stroke-opacity:1; fill:none" points="1772.42,1486.45 1772.42,1467.55 "/>
<polyline clip-path="url(#clip890)" style="stroke:#000000; stroke-linecap:round; stroke-linejoin:round; stroke-width:4; stroke-opacity:1; fill:none" points="2290.58,1486.45 2290.58,1467.55 "/>
<path clip-path="url(#clip890)" d="M180.247 1517.37 Q176.636 1517.37 174.808 1520.93 Q173.002 1524.47 173.002 1531.6 Q173.002 1538.71 174.808 1542.27 Q176.636 1545.82 180.247 1545.82 Q183.882 1545.82 185.687 1542.27 Q187.516 1538.71 187.516 1531.6 Q187.516 1524.47 185.687 1520.93 Q183.882 1517.37 180.247 1517.37 M180.247 1513.66 Q186.057 1513.66 189.113 1518.27 Q192.192 1522.85 192.192 1531.6 Q192.192 1540.33 189.113 1544.94 Q186.057 1549.52 180.247 1549.52 Q174.437 1549.52 171.358 1544.94 Q168.303 1540.33 168.303 1531.6 Q168.303 1522.85 171.358 1518.27 Q174.437 1513.66 180.247 1513.66 Z" fill="#000000" fill-rule="nonzero" fill-opacity="1" /><path clip-path="url(#clip890)" d="M200.409 1542.97 L205.294 1542.97 L205.294 1548.85 L200.409 1548.85 L200.409 1542.97 Z" fill="#000000" fill-rule="nonzero" fill-opacity="1" /><path clip-path="url(#clip890)" d="M225.479 1517.37 Q221.867 1517.37 220.039 1520.93 Q218.233 1524.47 218.233 1531.6 Q218.233 1538.71 220.039 1542.27 Q221.867 1545.82 225.479 1545.82 Q229.113 1545.82 230.918 1542.27 Q232.747 1538.71 232.747 1531.6 Q232.747 1524.47 230.918 1520.93 Q229.113 1517.37 225.479 1517.37 M225.479 1513.66 Q231.289 1513.66 234.344 1518.27 Q237.423 1522.85 237.423 1531.6 Q237.423 1540.33 234.344 1544.94 Q231.289 1549.52 225.479 1549.52 Q219.668 1549.52 216.59 1544.94 Q213.534 1540.33 213.534 1531.6 Q213.534 1522.85 216.59 1518.27 Q219.668 1513.66 225.479 1513.66 Z" fill="#000000" fill-rule="nonzero" fill-opacity="1" /><path clip-path="url(#clip890)" d="M255.64 1517.37 Q252.029 1517.37 250.201 1520.93 Q248.395 1524.47 248.395 1531.6 Q248.395 1538.71 250.201 1542.27 Q252.029 1545.82 255.64 1545.82 Q259.275 1545.82 261.08 1542.27 Q262.909 1538.71 262.909 1531.6 Q262.909 1524.47 261.08 1520.93 Q259.275 1517.37 255.64 1517.37 M255.64 1513.66 Q261.451 1513.66 264.506 1518.27 Q267.585 1522.85 267.585 1531.6 Q267.585 1540.33 264.506 1544.94 Q261.451 1549.52 255.64 1549.52 Q249.83 1549.52 246.752 1544.94 Q243.696 1540.33 243.696 1531.6 Q243.696 1522.85 246.752 1518.27 Q249.83 1513.66 255.64 1513.66 Z" fill="#000000" fill-rule="nonzero" fill-opacity="1" /><path clip-path="url(#clip890)" d="M698.903 1517.37 Q695.292 1517.37 693.463 1520.93 Q691.658 1524.47 691.658 1531.6 Q691.658 1538.71 693.463 1542.27 Q695.292 1545.82 698.903 1545.82 Q702.538 1545.82 704.343 1542.27 Q706.172 1538.71 706.172 1531.6 Q706.172 1524.47 704.343 1520.93 Q702.538 1517.37 698.903 1517.37 M698.903 1513.66 Q704.713 1513.66 707.769 1518.27 Q710.848 1522.85 710.848 1531.6 Q710.848 1540.33 707.769 1544.94 Q704.713 1549.52 698.903 1549.52 Q693.093 1549.52 690.014 1544.94 Q686.959 1540.33 686.959 1531.6 Q686.959 1522.85 690.014 1518.27 Q693.093 1513.66 698.903 1513.66 Z" fill="#000000" fill-rule="nonzero" fill-opacity="1" /><path clip-path="url(#clip890)" d="M719.065 1542.97 L723.949 1542.97 L723.949 1548.85 L719.065 1548.85 L719.065 1542.97 Z" fill="#000000" fill-rule="nonzero" fill-opacity="1" /><path clip-path="url(#clip890)" d="M738.162 1544.91 L754.482 1544.91 L754.482 1548.85 L732.537 1548.85 L732.537 1544.91 Q735.199 1542.16 739.783 1537.53 Q744.389 1532.88 745.57 1531.53 Q747.815 1529.01 748.695 1527.27 Q749.597 1525.51 749.597 1523.82 Q749.597 1521.07 747.653 1519.33 Q745.732 1517.6 742.63 1517.6 Q740.431 1517.6 737.977 1518.36 Q735.547 1519.13 732.769 1520.68 L732.769 1515.95 Q735.593 1514.82 738.047 1514.24 Q740.5 1513.66 742.537 1513.66 Q747.908 1513.66 751.102 1516.35 Q754.296 1519.03 754.296 1523.52 Q754.296 1525.65 753.486 1527.57 Q752.699 1529.47 750.593 1532.07 Q750.014 1532.74 746.912 1535.95 Q743.81 1539.15 738.162 1544.91 Z" fill="#000000" fill-rule="nonzero" fill-opacity="1" /><path clip-path="url(#clip890)" d="M764.343 1514.29 L782.699 1514.29 L782.699 1518.22 L768.625 1518.22 L768.625 1526.7 Q769.644 1526.35 770.662 1526.19 Q771.681 1526 772.699 1526 Q778.486 1526 781.866 1529.17 Q785.245 1532.34 785.245 1537.76 Q785.245 1543.34 781.773 1546.44 Q778.301 1549.52 771.982 1549.52 Q769.806 1549.52 767.537 1549.15 Q765.292 1548.78 762.884 1548.04 L762.884 1543.34 Q764.968 1544.47 767.19 1545.03 Q769.412 1545.58 771.889 1545.58 Q775.894 1545.58 778.232 1543.48 Q780.57 1541.37 780.57 1537.76 Q780.57 1534.15 778.232 1532.04 Q775.894 1529.94 771.889 1529.94 Q770.014 1529.94 768.139 1530.35 Q766.287 1530.77 764.343 1531.65 L764.343 1514.29 Z" fill="#000000" fill-rule="nonzero" fill-opacity="1" /><path clip-path="url(#clip890)" d="M1216.56 1517.37 Q1212.95 1517.37 1211.12 1520.93 Q1209.32 1524.47 1209.32 1531.6 Q1209.32 1538.71 1211.12 1542.27 Q1212.95 1545.82 1216.56 1545.82 Q1220.2 1545.82 1222 1542.27 Q1223.83 1538.71 1223.83 1531.6 Q1223.83 1524.47 1222 1520.93 Q1220.2 1517.37 1216.56 1517.37 M1216.56 1513.66 Q1222.37 1513.66 1225.43 1518.27 Q1228.51 1522.85 1228.51 1531.6 Q1228.51 1540.33 1225.43 1544.94 Q1222.37 1549.52 1216.56 1549.52 Q1210.75 1549.52 1207.68 1544.94 Q1204.62 1540.33 1204.62 1531.6 Q1204.62 1522.85 1207.68 1518.27 Q1210.75 1513.66 1216.56 1513.66 Z" fill="#000000" fill-rule="nonzero" fill-opacity="1" /><path clip-path="url(#clip890)" d="M1236.73 1542.97 L1241.61 1542.97 L1241.61 1548.85 L1236.73 1548.85 L1236.73 1542.97 Z" fill="#000000" fill-rule="nonzero" fill-opacity="1" /><path clip-path="url(#clip890)" d="M1251.84 1514.29 L1270.2 1514.29 L1270.2 1518.22 L1256.12 1518.22 L1256.12 1526.7 Q1257.14 1526.35 1258.16 1526.19 Q1259.18 1526 1260.2 1526 Q1265.98 1526 1269.36 1529.17 Q1272.74 1532.34 1272.74 1537.76 Q1272.74 1543.34 1269.27 1546.44 Q1265.8 1549.52 1259.48 1549.52 Q1257.3 1549.52 1255.04 1549.15 Q1252.79 1548.78 1250.38 1548.04 L1250.38 1543.34 Q1252.47 1544.47 1254.69 1545.03 Q1256.91 1545.58 1259.39 1545.58 Q1263.39 1545.58 1265.73 1543.48 Q1268.07 1541.37 1268.07 1537.76 Q1268.07 1534.15 1265.73 1532.04 Q1263.39 1529.94 1259.39 1529.94 Q1257.51 1529.94 1255.64 1530.35 Q1253.79 1530.77 1251.84 1531.65 L1251.84 1514.29 Z" fill="#000000" fill-rule="nonzero" fill-opacity="1" /><path clip-path="url(#clip890)" d="M1291.96 1517.37 Q1288.35 1517.37 1286.52 1520.93 Q1284.71 1524.47 1284.71 1531.6 Q1284.71 1538.71 1286.52 1542.27 Q1288.35 1545.82 1291.96 1545.82 Q1295.59 1545.82 1297.4 1542.27 Q1299.23 1538.71 1299.23 1531.6 Q1299.23 1524.47 1297.4 1520.93 Q1295.59 1517.37 1291.96 1517.37 M1291.96 1513.66 Q1297.77 1513.66 1300.82 1518.27 Q1303.9 1522.85 1303.9 1531.6 Q1303.9 1540.33 1300.82 1544.94 Q1297.77 1549.52 1291.96 1549.52 Q1286.15 1549.52 1283.07 1544.94 Q1280.01 1540.33 1280.01 1531.6 Q1280.01 1522.85 1283.07 1518.27 Q1286.15 1513.66 1291.96 1513.66 Z" fill="#000000" fill-rule="nonzero" fill-opacity="1" /><path clip-path="url(#clip890)" d="M1735.22 1517.37 Q1731.61 1517.37 1729.78 1520.93 Q1727.97 1524.47 1727.97 1531.6 Q1727.97 1538.71 1729.78 1542.27 Q1731.61 1545.82 1735.22 1545.82 Q1738.85 1545.82 1740.66 1542.27 Q1742.49 1538.71 1742.49 1531.6 Q1742.49 1524.47 1740.66 1520.93 Q1738.85 1517.37 1735.22 1517.37 M1735.22 1513.66 Q1741.03 1513.66 1744.09 1518.27 Q1747.16 1522.85 1747.16 1531.6 Q1747.16 1540.33 1744.09 1544.94 Q1741.03 1549.52 1735.22 1549.52 Q1729.41 1549.52 1726.33 1544.94 Q1723.28 1540.33 1723.28 1531.6 Q1723.28 1522.85 1726.33 1518.27 Q1729.41 1513.66 1735.22 1513.66 Z" fill="#000000" fill-rule="nonzero" fill-opacity="1" /><path clip-path="url(#clip890)" d="M1755.38 1542.97 L1760.27 1542.97 L1760.27 1548.85 L1755.38 1548.85 L1755.38 1542.97 Z" fill="#000000" fill-rule="nonzero" fill-opacity="1" /><path clip-path="url(#clip890)" d="M1769.27 1514.29 L1791.49 1514.29 L1791.49 1516.28 L1778.95 1548.85 L1774.06 1548.85 L1785.87 1518.22 L1769.27 1518.22 L1769.27 1514.29 Z" fill="#000000" fill-rule="nonzero" fill-opacity="1" /><path clip-path="url(#clip890)" d="M1800.66 1514.29 L1819.02 1514.29 L1819.02 1518.22 L1804.94 1518.22 L1804.94 1526.7 Q1805.96 1526.35 1806.98 1526.19 Q1808 1526 1809.02 1526 Q1814.8 1526 1818.18 1529.17 Q1821.56 1532.34 1821.56 1537.76 Q1821.56 1543.34 1818.09 1546.44 Q1814.62 1549.52 1808.3 1549.52 Q1806.12 1549.52 1803.85 1549.15 Q1801.61 1548.78 1799.2 1548.04 L1799.2 1543.34 Q1801.28 1544.47 1803.51 1545.03 Q1805.73 1545.58 1808.21 1545.58 Q1812.21 1545.58 1814.55 1543.48 Q1816.89 1541.37 1816.89 1537.76 Q1816.89 1534.15 1814.55 1532.04 Q1812.21 1529.94 1808.21 1529.94 Q1806.33 1529.94 1804.46 1530.35 Q1802.6 1530.77 1800.66 1531.65 L1800.66 1514.29 Z" fill="#000000" fill-rule="nonzero" fill-opacity="1" /><path clip-path="url(#clip890)" d="M2242.65 1544.91 L2250.29 1544.91 L2250.29 1518.55 L2241.98 1520.21 L2241.98 1515.95 L2250.24 1514.29 L2254.92 1514.29 L2254.92 1544.91 L2262.56 1544.91 L2262.56 1548.85 L2242.65 1548.85 L2242.65 1544.91 Z" fill="#000000" fill-rule="nonzero" fill-opacity="1" /><path clip-path="url(#clip890)" d="M2272 1542.97 L2276.88 1542.97 L2276.88 1548.85 L2272 1548.85 L2272 1542.97 Z" fill="#000000" fill-rule="nonzero" fill-opacity="1" /><path clip-path="url(#clip890)" d="M2297.07 1517.37 Q2293.46 1517.37 2291.63 1520.93 Q2289.82 1524.47 2289.82 1531.6 Q2289.82 1538.71 2291.63 1542.27 Q2293.46 1545.82 2297.07 1545.82 Q2300.7 1545.82 2302.51 1542.27 Q2304.34 1538.71 2304.34 1531.6 Q2304.34 1524.47 2302.51 1520.93 Q2300.7 1517.37 2297.07 1517.37 M2297.07 1513.66 Q2302.88 1513.66 2305.94 1518.27 Q2309.01 1522.85 2309.01 1531.6 Q2309.01 1540.33 2305.94 1544.94 Q2302.88 1549.52 2297.07 1549.52 Q2291.26 1549.52 2288.18 1544.94 Q2285.13 1540.33 2285.13 1531.6 Q2285.13 1522.85 2288.18 1518.27 Q2291.26 1513.66 2297.07 1513.66 Z" fill="#000000" fill-rule="nonzero" fill-opacity="1" /><path clip-path="url(#clip890)" d="M2327.23 1517.37 Q2323.62 1517.37 2321.79 1520.93 Q2319.99 1524.47 2319.99 1531.6 Q2319.99 1538.71 2321.79 1542.27 Q2323.62 1545.82 2327.23 1545.82 Q2330.87 1545.82 2332.67 1542.27 Q2334.5 1538.71 2334.5 1531.6 Q2334.5 1524.47 2332.67 1520.93 Q2330.87 1517.37 2327.23 1517.37 M2327.23 1513.66 Q2333.04 1513.66 2336.1 1518.27 Q2339.18 1522.85 2339.18 1531.6 Q2339.18 1540.33 2336.1 1544.94 Q2333.04 1549.52 2327.23 1549.52 Q2321.42 1549.52 2318.34 1544.94 Q2315.29 1540.33 2315.29 1531.6 Q2315.29 1522.85 2318.34 1518.27 Q2321.42 1513.66 2327.23 1513.66 Z" fill="#000000" fill-rule="nonzero" fill-opacity="1" /><polyline clip-path="url(#clip890)" style="stroke:#000000; stroke-linecap:round; stroke-linejoin:round; stroke-width:4; stroke-opacity:1; fill:none" points="155.765,1486.45 155.765,47.2441 "/>
<polyline clip-path="url(#clip890)" style="stroke:#000000; stroke-linecap:round; stroke-linejoin:round; stroke-width:4; stroke-opacity:1; fill:none" points="155.765,1300.21 174.663,1300.21 "/>
<polyline clip-path="url(#clip890)" style="stroke:#000000; stroke-linecap:round; stroke-linejoin:round; stroke-width:4; stroke-opacity:1; fill:none" points="155.765,1034.79 174.663,1034.79 "/>
<polyline clip-path="url(#clip890)" style="stroke:#000000; stroke-linecap:round; stroke-linejoin:round; stroke-width:4; stroke-opacity:1; fill:none" points="155.765,769.362 174.663,769.362 "/>
<polyline clip-path="url(#clip890)" style="stroke:#000000; stroke-linecap:round; stroke-linejoin:round; stroke-width:4; stroke-opacity:1; fill:none" points="155.765,503.937 174.663,503.937 "/>
<polyline clip-path="url(#clip890)" style="stroke:#000000; stroke-linecap:round; stroke-linejoin:round; stroke-width:4; stroke-opacity:1; fill:none" points="155.765,238.513 174.663,238.513 "/>
<path clip-path="url(#clip890)" d="M63.5847 1286.01 Q59.9736 1286.01 58.1449 1289.58 Q56.3393 1293.12 56.3393 1300.25 Q56.3393 1307.35 58.1449 1310.92 Q59.9736 1314.46 63.5847 1314.46 Q67.2189 1314.46 69.0244 1310.92 Q70.8531 1307.35 70.8531 1300.25 Q70.8531 1293.12 69.0244 1289.58 Q67.2189 1286.01 63.5847 1286.01 M63.5847 1282.31 Q69.3948 1282.31 72.4503 1286.91 Q75.529 1291.5 75.529 1300.25 Q75.529 1308.97 72.4503 1313.58 Q69.3948 1318.16 63.5847 1318.16 Q57.7745 1318.16 54.6958 1313.58 Q51.6403 1308.97 51.6403 1300.25 Q51.6403 1291.5 54.6958 1286.91 Q57.7745 1282.31 63.5847 1282.31 Z" fill="#000000" fill-rule="nonzero" fill-opacity="1" /><path clip-path="url(#clip890)" d="M83.7466 1311.61 L88.6308 1311.61 L88.6308 1317.49 L83.7466 1317.49 L83.7466 1311.61 Z" fill="#000000" fill-rule="nonzero" fill-opacity="1" /><path clip-path="url(#clip890)" d="M98.8622 1282.93 L117.219 1282.93 L117.219 1286.87 L103.145 1286.87 L103.145 1295.34 Q104.163 1294.99 105.182 1294.83 Q106.2 1294.65 107.219 1294.65 Q113.006 1294.65 116.385 1297.82 Q119.765 1300.99 119.765 1306.4 Q119.765 1311.98 116.293 1315.08 Q112.82 1318.16 106.501 1318.16 Q104.325 1318.16 102.057 1317.79 Q99.8113 1317.42 97.4039 1316.68 L97.4039 1311.98 Q99.4872 1313.12 101.709 1313.67 Q103.932 1314.23 106.408 1314.23 Q110.413 1314.23 112.751 1312.12 Q115.089 1310.02 115.089 1306.4 Q115.089 1302.79 112.751 1300.69 Q110.413 1298.58 106.408 1298.58 Q104.534 1298.58 102.659 1299 Q100.807 1299.41 98.8622 1300.29 L98.8622 1282.93 Z" fill="#000000" fill-rule="nonzero" fill-opacity="1" /><path clip-path="url(#clip890)" d="M53.3995 1048.13 L61.0384 1048.13 L61.0384 1021.77 L52.7282 1023.43 L52.7282 1019.17 L60.9921 1017.51 L65.668 1017.51 L65.668 1048.13 L73.3068 1048.13 L73.3068 1052.07 L53.3995 1052.07 L53.3995 1048.13 Z" fill="#000000" fill-rule="nonzero" fill-opacity="1" /><path clip-path="url(#clip890)" d="M82.7512 1046.19 L87.6354 1046.19 L87.6354 1052.07 L82.7512 1052.07 L82.7512 1046.19 Z" fill="#000000" fill-rule="nonzero" fill-opacity="1" /><path clip-path="url(#clip890)" d="M107.821 1020.59 Q104.209 1020.59 102.381 1024.15 Q100.575 1027.69 100.575 1034.82 Q100.575 1041.93 102.381 1045.49 Q104.209 1049.03 107.821 1049.03 Q111.455 1049.03 113.26 1045.49 Q115.089 1041.93 115.089 1034.82 Q115.089 1027.69 113.26 1024.15 Q111.455 1020.59 107.821 1020.59 M107.821 1016.88 Q113.631 1016.88 116.686 1021.49 Q119.765 1026.07 119.765 1034.82 Q119.765 1043.55 116.686 1048.16 Q113.631 1052.74 107.821 1052.74 Q102.01 1052.74 98.9317 1048.16 Q95.8761 1043.55 95.8761 1034.82 Q95.8761 1026.07 98.9317 1021.49 Q102.01 1016.88 107.821 1016.88 Z" fill="#000000" fill-rule="nonzero" fill-opacity="1" /><path clip-path="url(#clip890)" d="M54.3949 782.707 L62.0337 782.707 L62.0337 756.342 L53.7236 758.008 L53.7236 753.749 L61.9874 752.082 L66.6633 752.082 L66.6633 782.707 L74.3022 782.707 L74.3022 786.642 L54.3949 786.642 L54.3949 782.707 Z" fill="#000000" fill-rule="nonzero" fill-opacity="1" /><path clip-path="url(#clip890)" d="M83.7466 780.763 L88.6308 780.763 L88.6308 786.642 L83.7466 786.642 L83.7466 780.763 Z" fill="#000000" fill-rule="nonzero" fill-opacity="1" /><path clip-path="url(#clip890)" d="M98.8622 752.082 L117.219 752.082 L117.219 756.018 L103.145 756.018 L103.145 764.49 Q104.163 764.143 105.182 763.981 Q106.2 763.795 107.219 763.795 Q113.006 763.795 116.385 766.967 Q119.765 770.138 119.765 775.555 Q119.765 781.133 116.293 784.235 Q112.82 787.314 106.501 787.314 Q104.325 787.314 102.057 786.943 Q99.8113 786.573 97.4039 785.832 L97.4039 781.133 Q99.4872 782.267 101.709 782.823 Q103.932 783.379 106.408 783.379 Q110.413 783.379 112.751 781.272 Q115.089 779.166 115.089 775.555 Q115.089 771.943 112.751 769.837 Q110.413 767.73 106.408 767.73 Q104.534 767.73 102.659 768.147 Q100.807 768.564 98.8622 769.443 L98.8622 752.082 Z" fill="#000000" fill-rule="nonzero" fill-opacity="1" /><path clip-path="url(#clip890)" d="M56.6171 517.282 L72.9365 517.282 L72.9365 521.217 L50.9921 521.217 L50.9921 517.282 Q53.6541 514.528 58.2375 509.898 Q62.8439 505.245 64.0245 503.903 Q66.2698 501.38 67.1494 499.644 Q68.0522 497.884 68.0522 496.194 Q68.0522 493.44 66.1078 491.704 Q64.1865 489.968 61.0847 489.968 Q58.8856 489.968 56.4319 490.732 Q54.0014 491.495 51.2236 493.046 L51.2236 488.324 Q54.0477 487.19 56.5014 486.611 Q58.955 486.032 60.9921 486.032 Q66.3624 486.032 69.5568 488.718 Q72.7513 491.403 72.7513 495.894 Q72.7513 498.023 71.9411 499.944 Q71.1541 501.843 69.0476 504.435 Q68.4689 505.106 65.367 508.324 Q62.2652 511.518 56.6171 517.282 Z" fill="#000000" fill-rule="nonzero" fill-opacity="1" /><path clip-path="url(#clip890)" d="M82.7512 515.338 L87.6354 515.338 L87.6354 521.217 L82.7512 521.217 L82.7512 515.338 Z" fill="#000000" fill-rule="nonzero" fill-opacity="1" /><path clip-path="url(#clip890)" d="M107.821 489.736 Q104.209 489.736 102.381 493.301 Q100.575 496.843 100.575 503.972 Q100.575 511.079 102.381 514.643 Q104.209 518.185 107.821 518.185 Q111.455 518.185 113.26 514.643 Q115.089 511.079 115.089 503.972 Q115.089 496.843 113.26 493.301 Q111.455 489.736 107.821 489.736 M107.821 486.032 Q113.631 486.032 116.686 490.639 Q119.765 495.222 119.765 503.972 Q119.765 512.699 116.686 517.305 Q113.631 521.889 107.821 521.889 Q102.01 521.889 98.9317 517.305 Q95.8761 512.699 95.8761 503.972 Q95.8761 495.222 98.9317 490.639 Q102.01 486.032 107.821 486.032 Z" fill="#000000" fill-rule="nonzero" fill-opacity="1" /><path clip-path="url(#clip890)" d="M57.6125 251.857 L73.9318 251.857 L73.9318 255.793 L51.9875 255.793 L51.9875 251.857 Q54.6495 249.103 59.2328 244.473 Q63.8393 239.82 65.0198 238.478 Q67.2652 235.955 68.1448 234.219 Q69.0476 232.459 69.0476 230.77 Q69.0476 228.015 67.1032 226.279 Q65.1819 224.543 62.08 224.543 Q59.881 224.543 57.4273 225.307 Q54.9967 226.07 52.219 227.621 L52.219 222.899 Q55.043 221.765 57.4967 221.186 Q59.9504 220.608 61.9874 220.608 Q67.3578 220.608 70.5522 223.293 Q73.7466 225.978 73.7466 230.469 Q73.7466 232.598 72.9365 234.52 Q72.1494 236.418 70.0429 239.01 Q69.4642 239.682 66.3624 242.899 Q63.2606 246.094 57.6125 251.857 Z" fill="#000000" fill-rule="nonzero" fill-opacity="1" /><path clip-path="url(#clip890)" d="M83.7466 249.913 L88.6308 249.913 L88.6308 255.793 L83.7466 255.793 L83.7466 249.913 Z" fill="#000000" fill-rule="nonzero" fill-opacity="1" /><path clip-path="url(#clip890)" d="M98.8622 221.233 L117.219 221.233 L117.219 225.168 L103.145 225.168 L103.145 233.64 Q104.163 233.293 105.182 233.131 Q106.2 232.945 107.219 232.945 Q113.006 232.945 116.385 236.117 Q119.765 239.288 119.765 244.705 Q119.765 250.283 116.293 253.385 Q112.82 256.464 106.501 256.464 Q104.325 256.464 102.057 256.093 Q99.8113 255.723 97.4039 254.982 L97.4039 250.283 Q99.4872 251.418 101.709 251.973 Q103.932 252.529 106.408 252.529 Q110.413 252.529 112.751 250.422 Q115.089 248.316 115.089 244.705 Q115.089 241.094 112.751 238.987 Q110.413 236.881 106.408 236.881 Q104.534 236.881 102.659 237.297 Q100.807 237.714 98.8622 238.594 L98.8622 221.233 Z" fill="#000000" fill-rule="nonzero" fill-opacity="1" /><polyline clip-path="url(#clip891)" style="stroke:#009af9; stroke-linecap:round; stroke-linejoin:round; stroke-width:12; stroke-opacity:1; fill:none" points="217.944,1300.21 425.207,1299.71 632.47,1275.54 839.734,1293.7 1047,1278.1 1254.26,1174.03 1461.52,1190.94 1668.79,1209.98 1876.05,1174.61 2083.31,1076.04 2290.58,1079.51 "/>
<polyline clip-path="url(#clip891)" style="stroke:#000000; stroke-linecap:round; stroke-linejoin:round; stroke-width:12; stroke-opacity:1; fill:none" points="217.944,1300.21 217.944,1300.21 "/>
<polyline clip-path="url(#clip891)" style="stroke:#000000; stroke-linecap:round; stroke-linejoin:round; stroke-width:12; stroke-opacity:1; fill:none" points="425.207,1335.69 425.207,1215.67 "/>
<polyline clip-path="url(#clip891)" style="stroke:#000000; stroke-linecap:round; stroke-linejoin:round; stroke-width:12; stroke-opacity:1; fill:none" points="632.47,1387.7 632.47,1155.17 "/>
<polyline clip-path="url(#clip891)" style="stroke:#000000; stroke-linecap:round; stroke-linejoin:round; stroke-width:12; stroke-opacity:1; fill:none" points="839.734,1414.91 839.734,1019.25 "/>
<polyline clip-path="url(#clip891)" style="stroke:#000000; stroke-linecap:round; stroke-linejoin:round; stroke-width:12; stroke-opacity:1; fill:none" points="1047,1409.24 1047,789.78 "/>
<polyline clip-path="url(#clip891)" style="stroke:#000000; stroke-linecap:round; stroke-linejoin:round; stroke-width:12; stroke-opacity:1; fill:none" points="1254.26,1403.84 1254.26,754.794 "/>
<polyline clip-path="url(#clip891)" style="stroke:#000000; stroke-linecap:round; stroke-linejoin:round; stroke-width:12; stroke-opacity:1; fill:none" points="1461.52,1425.86 1461.52,685.389 "/>
<polyline clip-path="url(#clip891)" style="stroke:#000000; stroke-linecap:round; stroke-linejoin:round; stroke-width:12; stroke-opacity:1; fill:none" points="1668.79,1419.96 1668.79,580.287 "/>
<polyline clip-path="url(#clip891)" style="stroke:#000000; stroke-linecap:round; stroke-linejoin:round; stroke-width:12; stroke-opacity:1; fill:none" points="1876.05,1386.49 1876.05,462.551 "/>
<polyline clip-path="url(#clip891)" style="stroke:#000000; stroke-linecap:round; stroke-linejoin:round; stroke-width:12; stroke-opacity:1; fill:none" points="2083.31,1405.99 2083.31,330.091 "/>
<polyline clip-path="url(#clip891)" style="stroke:#000000; stroke-linecap:round; stroke-linejoin:round; stroke-width:12; stroke-opacity:1; fill:none" points="2290.58,1445.72 2290.58,165.265 "/>
<line clip-path="url(#clip891)" x1="233.944" y1="1300.21" x2="201.944" y2="1300.21" style="stroke:#000000; stroke-width:12; stroke-opacity:1"/>
<line clip-path="url(#clip891)" x1="233.944" y1="1300.21" x2="201.944" y2="1300.21" style="stroke:#000000; stroke-width:12; stroke-opacity:1"/>
<line clip-path="url(#clip891)" x1="441.207" y1="1335.69" x2="409.207" y2="1335.69" style="stroke:#000000; stroke-width:12; stroke-opacity:1"/>
<line clip-path="url(#clip891)" x1="441.207" y1="1215.67" x2="409.207" y2="1215.67" style="stroke:#000000; stroke-width:12; stroke-opacity:1"/>
<line clip-path="url(#clip891)" x1="648.47" y1="1387.7" x2="616.47" y2="1387.7" style="stroke:#000000; stroke-width:12; stroke-opacity:1"/>
<line clip-path="url(#clip891)" x1="648.47" y1="1155.17" x2="616.47" y2="1155.17" style="stroke:#000000; stroke-width:12; stroke-opacity:1"/>
<line clip-path="url(#clip891)" x1="855.734" y1="1414.91" x2="823.734" y2="1414.91" style="stroke:#000000; stroke-width:12; stroke-opacity:1"/>
<line clip-path="url(#clip891)" x1="855.734" y1="1019.25" x2="823.734" y2="1019.25" style="stroke:#000000; stroke-width:12; stroke-opacity:1"/>
<line clip-path="url(#clip891)" x1="1063" y1="1409.24" x2="1031" y2="1409.24" style="stroke:#000000; stroke-width:12; stroke-opacity:1"/>
<line clip-path="url(#clip891)" x1="1063" y1="789.78" x2="1031" y2="789.78" style="stroke:#000000; stroke-width:12; stroke-opacity:1"/>
<line clip-path="url(#clip891)" x1="1270.26" y1="1403.84" x2="1238.26" y2="1403.84" style="stroke:#000000; stroke-width:12; stroke-opacity:1"/>
<line clip-path="url(#clip891)" x1="1270.26" y1="754.794" x2="1238.26" y2="754.794" style="stroke:#000000; stroke-width:12; stroke-opacity:1"/>
<line clip-path="url(#clip891)" x1="1477.52" y1="1425.86" x2="1445.52" y2="1425.86" style="stroke:#000000; stroke-width:12; stroke-opacity:1"/>
<line clip-path="url(#clip891)" x1="1477.52" y1="685.389" x2="1445.52" y2="685.389" style="stroke:#000000; stroke-width:12; stroke-opacity:1"/>
<line clip-path="url(#clip891)" x1="1684.79" y1="1419.96" x2="1652.79" y2="1419.96" style="stroke:#000000; stroke-width:12; stroke-opacity:1"/>
<line clip-path="url(#clip891)" x1="1684.79" y1="580.287" x2="1652.79" y2="580.287" style="stroke:#000000; stroke-width:12; stroke-opacity:1"/>
<line clip-path="url(#clip891)" x1="1892.05" y1="1386.49" x2="1860.05" y2="1386.49" style="stroke:#000000; stroke-width:12; stroke-opacity:1"/>
<line clip-path="url(#clip891)" x1="1892.05" y1="462.551" x2="1860.05" y2="462.551" style="stroke:#000000; stroke-width:12; stroke-opacity:1"/>
<line clip-path="url(#clip891)" x1="2099.31" y1="1405.99" x2="2067.31" y2="1405.99" style="stroke:#000000; stroke-width:12; stroke-opacity:1"/>
<line clip-path="url(#clip891)" x1="2099.31" y1="330.091" x2="2067.31" y2="330.091" style="stroke:#000000; stroke-width:12; stroke-opacity:1"/>
<line clip-path="url(#clip891)" x1="2306.58" y1="1445.72" x2="2274.58" y2="1445.72" style="stroke:#000000; stroke-width:12; stroke-opacity:1"/>
<line clip-path="url(#clip891)" x1="2306.58" y1="165.265" x2="2274.58" y2="165.265" style="stroke:#000000; stroke-width:12; stroke-opacity:1"/>
<polyline clip-path="url(#clip891)" style="stroke:#e26f46; stroke-linecap:round; stroke-linejoin:round; stroke-width:12; stroke-opacity:1; fill:none" points="217.944,1300.21 425.207,1261.03 632.47,1236.26 839.734,1190.83 1047,1135.77 1254.26,1145.73 1461.52,1184.64 1668.79,1196.68 1876.05,1104.19 2083.31,1031.77 2290.58,1036.52 "/>
<polyline clip-path="url(#clip891)" style="stroke:#000000; stroke-linecap:round; stroke-linejoin:round; stroke-width:12; stroke-opacity:1; fill:none" points="217.944,1300.21 217.944,1300.21 "/>
<polyline clip-path="url(#clip891)" style="stroke:#000000; stroke-linecap:round; stroke-linejoin:round; stroke-width:12; stroke-opacity:1; fill:none" points="425.207,1361.55 425.207,1159.85 "/>
<polyline clip-path="url(#clip891)" style="stroke:#000000; stroke-linecap:round; stroke-linejoin:round; stroke-width:12; stroke-opacity:1; fill:none" points="632.47,1369.69 632.47,1088.46 "/>
<polyline clip-path="url(#clip891)" style="stroke:#000000; stroke-linecap:round; stroke-linejoin:round; stroke-width:12; stroke-opacity:1; fill:none" points="839.734,1358.33 839.734,932.241 "/>
<polyline clip-path="url(#clip891)" style="stroke:#000000; stroke-linecap:round; stroke-linejoin:round; stroke-width:12; stroke-opacity:1; fill:none" points="1047,1370.77 1047,762.425 "/>
<polyline clip-path="url(#clip891)" style="stroke:#000000; stroke-linecap:round; stroke-linejoin:round; stroke-width:12; stroke-opacity:1; fill:none" points="1254.26,1405.34 1254.26,785.025 "/>
<polyline clip-path="url(#clip891)" style="stroke:#000000; stroke-linecap:round; stroke-linejoin:round; stroke-width:12; stroke-opacity:1; fill:none" points="1461.52,1399.52 1461.52,745.247 "/>
<polyline clip-path="url(#clip891)" style="stroke:#000000; stroke-linecap:round; stroke-linejoin:round; stroke-width:12; stroke-opacity:1; fill:none" points="1668.79,1394.49 1668.79,522.358 "/>
<polyline clip-path="url(#clip891)" style="stroke:#000000; stroke-linecap:round; stroke-linejoin:round; stroke-width:12; stroke-opacity:1; fill:none" points="1876.05,1393.3 1876.05,307.515 "/>
<polyline clip-path="url(#clip891)" style="stroke:#000000; stroke-linecap:round; stroke-linejoin:round; stroke-width:12; stroke-opacity:1; fill:none" points="2083.31,1386.6 2083.31,203.16 "/>
<polyline clip-path="url(#clip891)" style="stroke:#000000; stroke-linecap:round; stroke-linejoin:round; stroke-width:12; stroke-opacity:1; fill:none" points="2290.58,1361.76 2290.58,87.9763 "/>
<line clip-path="url(#clip891)" x1="233.944" y1="1300.21" x2="201.944" y2="1300.21" style="stroke:#000000; stroke-width:12; stroke-opacity:1"/>
<line clip-path="url(#clip891)" x1="233.944" y1="1300.21" x2="201.944" y2="1300.21" style="stroke:#000000; stroke-width:12; stroke-opacity:1"/>
<line clip-path="url(#clip891)" x1="441.207" y1="1361.55" x2="409.207" y2="1361.55" style="stroke:#000000; stroke-width:12; stroke-opacity:1"/>
<line clip-path="url(#clip891)" x1="441.207" y1="1159.85" x2="409.207" y2="1159.85" style="stroke:#000000; stroke-width:12; stroke-opacity:1"/>
<line clip-path="url(#clip891)" x1="648.47" y1="1369.69" x2="616.47" y2="1369.69" style="stroke:#000000; stroke-width:12; stroke-opacity:1"/>
<line clip-path="url(#clip891)" x1="648.47" y1="1088.46" x2="616.47" y2="1088.46" style="stroke:#000000; stroke-width:12; stroke-opacity:1"/>
<line clip-path="url(#clip891)" x1="855.734" y1="1358.33" x2="823.734" y2="1358.33" style="stroke:#000000; stroke-width:12; stroke-opacity:1"/>
<line clip-path="url(#clip891)" x1="855.734" y1="932.241" x2="823.734" y2="932.241" style="stroke:#000000; stroke-width:12; stroke-opacity:1"/>
<line clip-path="url(#clip891)" x1="1063" y1="1370.77" x2="1031" y2="1370.77" style="stroke:#000000; stroke-width:12; stroke-opacity:1"/>
<line clip-path="url(#clip891)" x1="1063" y1="762.425" x2="1031" y2="762.425" style="stroke:#000000; stroke-width:12; stroke-opacity:1"/>
<line clip-path="url(#clip891)" x1="1270.26" y1="1405.34" x2="1238.26" y2="1405.34" style="stroke:#000000; stroke-width:12; stroke-opacity:1"/>
<line clip-path="url(#clip891)" x1="1270.26" y1="785.025" x2="1238.26" y2="785.025" style="stroke:#000000; stroke-width:12; stroke-opacity:1"/>
<line clip-path="url(#clip891)" x1="1477.52" y1="1399.52" x2="1445.52" y2="1399.52" style="stroke:#000000; stroke-width:12; stroke-opacity:1"/>
<line clip-path="url(#clip891)" x1="1477.52" y1="745.247" x2="1445.52" y2="745.247" style="stroke:#000000; stroke-width:12; stroke-opacity:1"/>
<line clip-path="url(#clip891)" x1="1684.79" y1="1394.49" x2="1652.79" y2="1394.49" style="stroke:#000000; stroke-width:12; stroke-opacity:1"/>
<line clip-path="url(#clip891)" x1="1684.79" y1="522.358" x2="1652.79" y2="522.358" style="stroke:#000000; stroke-width:12; stroke-opacity:1"/>
<line clip-path="url(#clip891)" x1="1892.05" y1="1393.3" x2="1860.05" y2="1393.3" style="stroke:#000000; stroke-width:12; stroke-opacity:1"/>
<line clip-path="url(#clip891)" x1="1892.05" y1="307.515" x2="1860.05" y2="307.515" style="stroke:#000000; stroke-width:12; stroke-opacity:1"/>
<line clip-path="url(#clip891)" x1="2099.31" y1="1386.6" x2="2067.31" y2="1386.6" style="stroke:#000000; stroke-width:12; stroke-opacity:1"/>
<line clip-path="url(#clip891)" x1="2099.31" y1="203.16" x2="2067.31" y2="203.16" style="stroke:#000000; stroke-width:12; stroke-opacity:1"/>
<line clip-path="url(#clip891)" x1="2306.58" y1="1361.76" x2="2274.58" y2="1361.76" style="stroke:#000000; stroke-width:12; stroke-opacity:1"/>
<line clip-path="url(#clip891)" x1="2306.58" y1="87.9763" x2="2274.58" y2="87.9763" style="stroke:#000000; stroke-width:12; stroke-opacity:1"/>
</svg>
