<?xml version="1.0" encoding="utf-8"?>
<svg xmlns="http://www.w3.org/2000/svg" xmlns:xlink="http://www.w3.org/1999/xlink" width="600" height="400" viewBox="0 0 2400 1600">
<defs>
  <clipPath id="clip110">
    <rect x="0" y="0" width="2400" height="1600"/>
  </clipPath>
</defs>
<path clip-path="url(#clip110)" d="M0 1600 L2400 1600 L2400 0 L0 0  Z" fill="#ffffff" fill-rule="evenodd" fill-opacity="1"/>
<defs>
  <clipPath id="clip111">
    <rect x="112" y="47" width="2242" height="1440"/>
  </clipPath>
</defs>
<path clip-path="url(#clip110)" d="M112.177 1486.45 L2352.76 1486.45 L2352.76 47.2441 L112.177 47.2441  Z" fill="#ffffff" fill-rule="evenodd" fill-opacity="1"/>
<polyline clip-path="url(#clip111)" style="stroke:#000000; stroke-linecap:round; stroke-linejoin:round; stroke-width:2; stroke-opacity:0.1; fill:none" points="175.59,1486.45 175.59,47.2441 "/>
<polyline clip-path="url(#clip111)" style="stroke:#000000; stroke-linecap:round; stroke-linejoin:round; stroke-width:2; stroke-opacity:0.1; fill:none" points="704.028,1486.45 704.028,47.2441 "/>
<polyline clip-path="url(#clip111)" style="stroke:#000000; stroke-linecap:round; stroke-linejoin:round; stroke-width:2; stroke-opacity:0.1; fill:none" points="1232.47,1486.45 1232.47,47.2441 "/>
<polyline clip-path="url(#clip111)" style="stroke:#000000; stroke-linecap:round; stroke-linejoin:round; stroke-width:2; stroke-opacity:0.1; fill:none" points="1760.9,1486.45 1760.9,47.2441 "/>
<polyline clip-path="url(#clip111)" style="stroke:#000000; stroke-linecap:round; stroke-linejoin:round; stroke-width:2; stroke-opacity:0.1; fill:none" points="2289.34,1486.45 2289.34,47.2441 "/>
<polyline clip-path="url(#clip111)" style="stroke:#000000; stroke-linecap:round; stroke-linejoin:round; stroke-width:2; stroke-opacity:0.1; fill:none" points="112.177,1453.23 2352.76,1453.23 "/>
<polyline clip-path="url(#clip111)" style="stroke:#000000; stroke-linecap:round; stroke-linejoin:round; stroke-width:2; stroke-opacity:0.1; fill:none" points="112.177,1148.31 2352.76,1148.31 "/>
<polyline clip-path="url(#clip111)" style="stroke:#000000; stroke-linecap:round; stroke-linejoin:round; stroke-width:2; stroke-opacity:0.1; fill:none" points="112.177,843.377 2352.76,843.377 "/>
<polyline clip-path="url(#clip111)" style="stroke:#000000; stroke-linecap:round; stroke-linejoin:round; stroke-width:2; stroke-opacity:0.1; fill:none" points="112.177,538.449 2352.76,538.449 "/>
<polyline clip-path="url(#clip111)" style="stroke:#000000; stroke-linecap:round; stroke-linejoin:round; stroke-width:2; stroke-opacity:0.1; fill:none" points="112.177,233.52 2352.76,233.52 "/>
<polyline clip-path="url(#clip110)" style="stroke:#000000; stroke-linecap:round; stroke-linejoin:round; stroke-width:4; stroke-opacity:1; fill:none" points="112.177,1486.45 2352.76,1486.45 "/>
<polyline clip-path="url(#clip110)" style="stroke:#000000; stroke-linecap:round; stroke-linejoin:round; stroke-width:4; stroke-opacity:1; fill:none" points="175.59,1486.45 175.59,1467.55 "/>
<polyline clip-path="url(#clip110)" style="stroke:#000000; stroke-linecap:round; stroke-linejoin:round; stroke-width:4; stroke-opacity:1; fill:none" points="704.028,1486.45 704.028,1467.55 "/>
<polyline clip-path="url(#clip110)" style="stroke:#000000; stroke-linecap:round; stroke-linejoin:round; stroke-width:4; stroke-opacity:1; fill:none" points="1232.47,1486.45 1232.47,1467.55 "/>
<polyline clip-path="url(#clip110)" style="stroke:#000000; stroke-linecap:round; stroke-linejoin:round; stroke-width:4; stroke-opacity:1; fill:none" points="1760.9,1486.45 1760.9,1467.55 "/>
<polyline clip-path="url(#clip110)" style="stroke:#000000; stroke-linecap:round; stroke-linejoin:round; stroke-width:4; stroke-opacity:1; fill:none" points="2289.34,1486.45 2289.34,1467.55 "/>
<path clip-path="url(#clip110)" d="M152.974 1517.37 Q149.363 1517.37 147.534 1520.93 Q145.729 1524.47 145.729 1531.6 Q145.729 1538.71 147.534 1542.27 Q149.363 1545.82 152.974 1545.82 Q156.608 1545.82 158.414 1542.27 Q160.243 1538.71 160.243 1531.6 Q160.243 1524.47 158.414 1520.93 Q156.608 1517.37 152.974 1517.37 M152.974 1513.66 Q158.784 1513.66 161.84 1518.27 Q164.919 1522.85 164.919 1531.6 Q164.919 1540.33 161.84 1544.94 Q158.784 1549.52 152.974 1549.52 Q147.164 1549.52 144.085 1544.94 Q141.03 1540.33 141.03 1531.6 Q141.03 1522.85 144.085 1518.27 Q147.164 1513.66 152.974 1513.66 Z" fill="#000000" fill-rule="nonzero" fill-opacity="1" /><path clip-path="url(#clip110)" d="M173.136 1542.97 L178.02 1542.97 L178.02 1548.85 L173.136 1548.85 L173.136 1542.97 Z" fill="#000000" fill-rule="nonzero" fill-opacity="1" /><path clip-path="url(#clip110)" d="M198.205 1517.37 Q194.594 1517.37 192.766 1520.93 Q190.96 1524.47 190.96 1531.6 Q190.96 1538.71 192.766 1542.27 Q194.594 1545.82 198.205 1545.82 Q201.84 1545.82 203.645 1542.27 Q205.474 1538.71 205.474 1531.6 Q205.474 1524.47 203.645 1520.93 Q201.84 1517.37 198.205 1517.37 M198.205 1513.66 Q204.016 1513.66 207.071 1518.27 Q210.15 1522.85 210.15 1531.6 Q210.15 1540.33 207.071 1544.94 Q204.016 1549.52 198.205 1549.52 Q192.395 1549.52 189.317 1544.94 Q186.261 1540.33 186.261 1531.6 Q186.261 1522.85 189.317 1518.27 Q192.395 1513.66 198.205 1513.66 Z" fill="#000000" fill-rule="nonzero" fill-opacity="1" /><path clip-path="url(#clip110)" d="M675.764 1544.91 L692.084 1544.91 L692.084 1548.85 L670.139 1548.85 L670.139 1544.91 Q672.801 1542.16 677.385 1537.53 Q681.991 1532.88 683.172 1531.53 Q685.417 1529.01 686.297 1527.27 Q687.2 1525.51 687.2 1523.82 Q687.2 1521.07 685.255 1519.33 Q683.334 1517.6 680.232 1517.6 Q678.033 1517.6 675.579 1518.36 Q673.149 1519.13 670.371 1520.68 L670.371 1515.95 Q673.195 1514.82 675.649 1514.24 Q678.102 1513.66 680.139 1513.66 Q685.51 1513.66 688.704 1516.35 Q691.899 1519.03 691.899 1523.52 Q691.899 1525.65 691.088 1527.57 Q690.301 1529.47 688.195 1532.07 Q687.616 1532.74 684.514 1535.95 Q681.413 1539.15 675.764 1544.91 Z" fill="#000000" fill-rule="nonzero" fill-opacity="1" /><path clip-path="url(#clip110)" d="M701.899 1542.97 L706.783 1542.97 L706.783 1548.85 L701.899 1548.85 L701.899 1542.97 Z" fill="#000000" fill-rule="nonzero" fill-opacity="1" /><path clip-path="url(#clip110)" d="M717.014 1514.29 L735.371 1514.29 L735.371 1518.22 L721.297 1518.22 L721.297 1526.7 Q722.315 1526.35 723.334 1526.19 Q724.352 1526 725.371 1526 Q731.158 1526 734.537 1529.17 Q737.917 1532.34 737.917 1537.76 Q737.917 1543.34 734.445 1546.44 Q730.972 1549.52 724.653 1549.52 Q722.477 1549.52 720.209 1549.15 Q717.963 1548.78 715.556 1548.04 L715.556 1543.34 Q717.639 1544.47 719.861 1545.03 Q722.084 1545.58 724.56 1545.58 Q728.565 1545.58 730.903 1543.48 Q733.241 1541.37 733.241 1537.76 Q733.241 1534.15 730.903 1532.04 Q728.565 1529.94 724.56 1529.94 Q722.685 1529.94 720.81 1530.35 Q718.959 1530.77 717.014 1531.65 L717.014 1514.29 Z" fill="#000000" fill-rule="nonzero" fill-opacity="1" /><path clip-path="url(#clip110)" d="M1199.63 1514.29 L1217.99 1514.29 L1217.99 1518.22 L1203.91 1518.22 L1203.91 1526.7 Q1204.93 1526.35 1205.95 1526.19 Q1206.97 1526 1207.99 1526 Q1213.77 1526 1217.15 1529.17 Q1220.53 1532.34 1220.53 1537.76 Q1220.53 1543.34 1217.06 1546.44 Q1213.59 1549.52 1207.27 1549.52 Q1205.09 1549.52 1202.83 1549.15 Q1200.58 1548.78 1198.17 1548.04 L1198.17 1543.34 Q1200.26 1544.47 1202.48 1545.03 Q1204.7 1545.58 1207.18 1545.58 Q1211.18 1545.58 1213.52 1543.48 Q1215.86 1541.37 1215.86 1537.76 Q1215.86 1534.15 1213.52 1532.04 Q1211.18 1529.94 1207.18 1529.94 Q1205.3 1529.94 1203.43 1530.35 Q1201.58 1530.77 1199.63 1531.65 L1199.63 1514.29 Z" fill="#000000" fill-rule="nonzero" fill-opacity="1" /><path clip-path="url(#clip110)" d="M1229.75 1542.97 L1234.63 1542.97 L1234.63 1548.85 L1229.75 1548.85 L1229.75 1542.97 Z" fill="#000000" fill-rule="nonzero" fill-opacity="1" /><path clip-path="url(#clip110)" d="M1254.82 1517.37 Q1251.2 1517.37 1249.38 1520.93 Q1247.57 1524.47 1247.57 1531.6 Q1247.57 1538.71 1249.38 1542.27 Q1251.2 1545.82 1254.82 1545.82 Q1258.45 1545.82 1260.26 1542.27 Q1262.08 1538.71 1262.08 1531.6 Q1262.08 1524.47 1260.26 1520.93 Q1258.45 1517.37 1254.82 1517.37 M1254.82 1513.66 Q1260.63 1513.66 1263.68 1518.27 Q1266.76 1522.85 1266.76 1531.6 Q1266.76 1540.33 1263.68 1544.94 Q1260.63 1549.52 1254.82 1549.52 Q1249.01 1549.52 1245.93 1544.94 Q1242.87 1540.33 1242.87 1531.6 Q1242.87 1522.85 1245.93 1518.27 Q1249.01 1513.66 1254.82 1513.66 Z" fill="#000000" fill-rule="nonzero" fill-opacity="1" /><path clip-path="url(#clip110)" d="M1727.22 1514.29 L1749.45 1514.29 L1749.45 1516.28 L1736.9 1548.85 L1732.02 1548.85 L1743.82 1518.22 L1727.22 1518.22 L1727.22 1514.29 Z" fill="#000000" fill-rule="nonzero" fill-opacity="1" /><path clip-path="url(#clip110)" d="M1758.57 1542.97 L1763.45 1542.97 L1763.45 1548.85 L1758.57 1548.85 L1758.57 1542.97 Z" fill="#000000" fill-rule="nonzero" fill-opacity="1" /><path clip-path="url(#clip110)" d="M1773.68 1514.29 L1792.04 1514.29 L1792.04 1518.22 L1777.97 1518.22 L1777.97 1526.7 Q1778.98 1526.35 1780 1526.19 Q1781.02 1526 1782.04 1526 Q1787.83 1526 1791.21 1529.17 Q1794.59 1532.34 1794.59 1537.76 Q1794.59 1543.34 1791.11 1546.44 Q1787.64 1549.52 1781.32 1549.52 Q1779.15 1549.52 1776.88 1549.15 Q1774.63 1548.78 1772.22 1548.04 L1772.22 1543.34 Q1774.31 1544.47 1776.53 1545.03 Q1778.75 1545.58 1781.23 1545.58 Q1785.23 1545.58 1787.57 1543.48 Q1789.91 1541.37 1789.91 1537.76 Q1789.91 1534.15 1787.57 1532.04 Q1785.23 1529.94 1781.23 1529.94 Q1779.35 1529.94 1777.48 1530.35 Q1775.63 1530.77 1773.68 1531.65 L1773.68 1514.29 Z" fill="#000000" fill-rule="nonzero" fill-opacity="1" /><path clip-path="url(#clip110)" d="M2241.42 1544.91 L2249.05 1544.91 L2249.05 1518.55 L2240.74 1520.21 L2240.74 1515.95 L2249.01 1514.29 L2253.68 1514.29 L2253.68 1544.91 L2261.32 1544.91 L2261.32 1548.85 L2241.42 1548.85 L2241.42 1544.91 Z" fill="#000000" fill-rule="nonzero" fill-opacity="1" /><path clip-path="url(#clip110)" d="M2280.77 1517.37 Q2277.16 1517.37 2275.33 1520.93 Q2273.52 1524.47 2273.52 1531.6 Q2273.52 1538.71 2275.33 1542.27 Q2277.16 1545.82 2280.77 1545.82 Q2284.4 1545.82 2286.21 1542.27 Q2288.04 1538.71 2288.04 1531.6 Q2288.04 1524.47 2286.21 1520.93 Q2284.4 1517.37 2280.77 1517.37 M2280.77 1513.66 Q2286.58 1513.66 2289.63 1518.27 Q2292.71 1522.85 2292.71 1531.6 Q2292.71 1540.33 2289.63 1544.94 Q2286.58 1549.52 2280.77 1549.52 Q2274.96 1549.52 2271.88 1544.94 Q2268.82 1540.33 2268.82 1531.6 Q2268.82 1522.85 2271.88 1518.27 Q2274.96 1513.66 2280.77 1513.66 Z" fill="#000000" fill-rule="nonzero" fill-opacity="1" /><path clip-path="url(#clip110)" d="M2300.93 1542.97 L2305.81 1542.97 L2305.81 1548.85 L2300.93 1548.85 L2300.93 1542.97 Z" fill="#000000" fill-rule="nonzero" fill-opacity="1" /><path clip-path="url(#clip110)" d="M2326 1517.37 Q2322.39 1517.37 2320.56 1520.93 Q2318.75 1524.47 2318.75 1531.6 Q2318.75 1538.71 2320.56 1542.27 Q2322.39 1545.82 2326 1545.82 Q2329.63 1545.82 2331.44 1542.27 Q2333.27 1538.71 2333.27 1531.6 Q2333.27 1524.47 2331.44 1520.93 Q2329.63 1517.37 2326 1517.37 M2326 1513.66 Q2331.81 1513.66 2334.86 1518.27 Q2337.94 1522.85 2337.94 1531.6 Q2337.94 1540.33 2334.86 1544.94 Q2331.81 1549.52 2326 1549.52 Q2320.19 1549.52 2317.11 1544.94 Q2314.05 1540.33 2314.05 1531.6 Q2314.05 1522.85 2317.11 1518.27 Q2320.19 1513.66 2326 1513.66 Z" fill="#000000" fill-rule="nonzero" fill-opacity="1" /><polyline clip-path="url(#clip110)" style="stroke:#000000; stroke-linecap:round; stroke-linejoin:round; stroke-width:4; stroke-opacity:1; fill:none" points="112.177,1486.45 112.177,47.2441 "/>
<polyline clip-path="url(#clip110)" style="stroke:#000000; stroke-linecap:round; stroke-linejoin:round; stroke-width:4; stroke-opacity:1; fill:none" points="112.177,1453.23 131.075,1453.23 "/>
<polyline clip-path="url(#clip110)" style="stroke:#000000; stroke-linecap:round; stroke-linejoin:round; stroke-width:4; stroke-opacity:1; fill:none" points="112.177,1148.31 131.075,1148.31 "/>
<polyline clip-path="url(#clip110)" style="stroke:#000000; stroke-linecap:round; stroke-linejoin:round; stroke-width:4; stroke-opacity:1; fill:none" points="112.177,843.377 131.075,843.377 "/>
<polyline clip-path="url(#clip110)" style="stroke:#000000; stroke-linecap:round; stroke-linejoin:round; stroke-width:4; stroke-opacity:1; fill:none" points="112.177,538.449 131.075,538.449 "/>
<polyline clip-path="url(#clip110)" style="stroke:#000000; stroke-linecap:round; stroke-linejoin:round; stroke-width:4; stroke-opacity:1; fill:none" points="112.177,233.52 131.075,233.52 "/>
<path clip-path="url(#clip110)" d="M64.2328 1439.03 Q60.6217 1439.03 58.793 1442.6 Q56.9875 1446.14 56.9875 1453.27 Q56.9875 1460.37 58.793 1463.94 Q60.6217 1467.48 64.2328 1467.48 Q67.867 1467.48 69.6726 1463.94 Q71.5013 1460.37 71.5013 1453.27 Q71.5013 1446.14 69.6726 1442.6 Q67.867 1439.03 64.2328 1439.03 M64.2328 1435.33 Q70.0429 1435.33 73.0985 1439.94 Q76.1772 1444.52 76.1772 1453.27 Q76.1772 1462 73.0985 1466.6 Q70.0429 1471.18 64.2328 1471.18 Q58.4226 1471.18 55.344 1466.6 Q52.2884 1462 52.2884 1453.27 Q52.2884 1444.52 55.344 1439.94 Q58.4226 1435.33 64.2328 1435.33 Z" fill="#000000" fill-rule="nonzero" fill-opacity="1" /><path clip-path="url(#clip110)" d="M59.8578 1161.65 L76.1772 1161.65 L76.1772 1165.59 L54.2328 1165.59 L54.2328 1161.65 Q56.8949 1158.9 61.4782 1154.27 Q66.0846 1149.61 67.2652 1148.27 Q69.5105 1145.75 70.3902 1144.01 Q71.2929 1142.25 71.2929 1140.56 Q71.2929 1137.81 69.3485 1136.07 Q67.4272 1134.34 64.3254 1134.34 Q62.1263 1134.34 59.6726 1135.1 Q57.2421 1135.86 54.4643 1137.41 L54.4643 1132.69 Q57.2884 1131.56 59.7421 1130.98 Q62.1958 1130.4 64.2328 1130.4 Q69.6031 1130.4 72.7976 1133.09 Q75.992 1135.77 75.992 1140.26 Q75.992 1142.39 75.1818 1144.31 Q74.3948 1146.21 72.2883 1148.8 Q71.7096 1149.47 68.6078 1152.69 Q65.5059 1155.89 59.8578 1161.65 Z" fill="#000000" fill-rule="nonzero" fill-opacity="1" /><path clip-path="url(#clip110)" d="M66.5939 830.171 L54.7884 848.62 L66.5939 848.62 L66.5939 830.171 M65.367 826.097 L71.2466 826.097 L71.2466 848.62 L76.1772 848.62 L76.1772 852.509 L71.2466 852.509 L71.2466 860.657 L66.5939 860.657 L66.5939 852.509 L50.9921 852.509 L50.9921 847.995 L65.367 826.097 Z" fill="#000000" fill-rule="nonzero" fill-opacity="1" /><path clip-path="url(#clip110)" d="M64.6495 536.585 Q61.5013 536.585 59.6495 538.738 Q57.8208 540.891 57.8208 544.641 Q57.8208 548.368 59.6495 550.544 Q61.5013 552.696 64.6495 552.696 Q67.7976 552.696 69.6263 550.544 Q71.4781 548.368 71.4781 544.641 Q71.4781 540.891 69.6263 538.738 Q67.7976 536.585 64.6495 536.585 M73.9318 521.933 L73.9318 526.192 Q72.1726 525.358 70.367 524.919 Q68.5846 524.479 66.8254 524.479 Q62.1958 524.479 59.7421 527.604 Q57.3115 530.729 56.9643 537.048 Q58.33 535.034 60.3902 533.97 Q62.4504 532.882 64.9272 532.882 Q70.1355 532.882 73.1448 536.053 Q76.1772 539.201 76.1772 544.641 Q76.1772 549.965 73.029 553.182 Q69.8809 556.4 64.6495 556.4 Q58.6541 556.4 55.4828 551.817 Q52.3116 547.21 52.3116 538.483 Q52.3116 530.289 56.2004 525.428 Q60.0893 520.544 66.6402 520.544 Q68.3994 520.544 70.1818 520.891 Q71.9874 521.238 73.9318 521.933 Z" fill="#000000" fill-rule="nonzero" fill-opacity="1" /><path clip-path="url(#clip110)" d="M64.3254 234.388 Q60.9921 234.388 59.0708 236.171 Q57.1726 237.953 57.1726 241.078 Q57.1726 244.203 59.0708 245.986 Q60.9921 247.768 64.3254 247.768 Q67.6587 247.768 69.58 245.986 Q71.5013 244.18 71.5013 241.078 Q71.5013 237.953 69.58 236.171 Q67.6819 234.388 64.3254 234.388 M59.6495 232.398 Q56.6402 231.657 54.9504 229.597 Q53.2838 227.537 53.2838 224.574 Q53.2838 220.43 56.2236 218.023 Q59.1865 215.615 64.3254 215.615 Q69.4874 215.615 72.4272 218.023 Q75.367 220.43 75.367 224.574 Q75.367 227.537 73.6772 229.597 Q72.0105 231.657 69.0244 232.398 Q72.404 233.185 74.279 235.476 Q76.1772 237.768 76.1772 241.078 Q76.1772 246.101 73.0985 248.786 Q70.0429 251.472 64.3254 251.472 Q58.6078 251.472 55.5291 248.786 Q52.4736 246.101 52.4736 241.078 Q52.4736 237.768 54.3717 235.476 Q56.2699 233.185 59.6495 232.398 M57.9365 225.013 Q57.9365 227.699 59.6032 229.203 Q61.293 230.708 64.3254 230.708 Q67.3346 230.708 69.0244 229.203 Q70.7374 227.699 70.7374 225.013 Q70.7374 222.328 69.0244 220.824 Q67.3346 219.319 64.3254 219.319 Q61.293 219.319 59.6032 220.824 Q57.9365 222.328 57.9365 225.013 Z" fill="#000000" fill-rule="nonzero" fill-opacity="1" /><path clip-path="url(#clip111)" d="M175.59 1300.77 L196.727 1308.07 L217.865 1304.72 L239.002 1290.04 L260.14 1278.56 L281.277 1271.38 L302.415 1267.57 L323.553 1236.89 L344.69 1215.69 L365.828 1185.75 L386.965 1156.53 L408.103 1104.4 L429.24 1049.95 L450.378 977.306 L471.515 915.35 L492.653 814.576 L513.79 705.019 L534.928 578.047 L556.065 513.397 L577.203 482.428 L598.34 542.676 L619.478 708.83 L640.616 880.763 L661.753 1002.17 L682.891 1121.19 L704.028 1213.1 L725.166 1273.04 L746.303 1301.55 L767.441 1335.56 L788.578 1353.72 L809.716 1361.93 L830.853 1363.52 L851.991 1368.2 L873.128 1367.06 L894.266 1363.21 L915.404 1360.97 L936.541 1349.92 L957.679 1334.18 L978.816 1323.21 L999.954 1305.66 L1021.09 1296.24 L1042.23 1266.62 L1063.37 1231.94 L1084.5 1214.45 L1105.64 1185.06 L1126.78 1143.47 L1147.92 1074.68 L1169.05 1040.86 L1190.19 973.757 L1211.33 939.762 L1232.47 906.052 L1253.6 822.192 L1274.74 840.841 L1295.88 862.807 L1317.02 887.479 L1338.15 991.741 L1359.29 1114.61 L1380.43 1191.48 L1401.57 1244.1 L1422.7 1271.78 L1443.84 1283.09 L1464.98 1318.14 L1486.12 1331.26 L1507.25 1339.71 L1528.39 1343.72 L1549.53 1351.65 L1570.67 1360.65 L1591.8 1366.03 L1612.94 1384.38 L1634.08 1398.13 L1655.22 1402.23 L1676.35 1400.13 L1697.49 1397.27 L1718.63 1393.74 L1739.77 1387.33 L1760.9 1380.05 L1782.04 1371.11 L1803.18 1358.28 L1824.32 1347.88 L1845.46 1335.92 L1866.59 1314.79 L1887.73 1296.57 L1908.87 1282.37 L1930.01 1253.8 L1951.14 1278.12 L1972.28 1307.26 L1993.42 1325.89 L2014.56 1338.17 L2035.69 1342.55 L2056.83 1329.54 L2077.97 1326.96 L2099.11 1314.63 L2120.24 1304.4 L2141.38 1306.42 L2162.52 1306.27 L2183.66 1314.49 L2204.79 1323.28 L2225.93 1323.96 L2247.07 1322.73 L2268.21 1319.74 L2289.34 1346.18 L2289.34 762.997 L2268.21 839.63 L2247.07 861.216 L2225.93 922.02 L2204.79 752.375 L2183.66 509.989 L2162.52 237.525 L2141.38 87.9763 L2120.24 104.222 L2099.11 157.192 L2077.97 272.773 L2056.83 395.849 L2035.69 431.309 L2014.56 433.565 L1993.42 389.383 L1972.28 331.744 L1951.14 367.305 L1930.01 424.23 L1908.87 434.633 L1887.73 422.95 L1866.59 520.242 L1845.46 560.134 L1824.32 665.442 L1803.18 748.491 L1782.04 809.036 L1760.9 885.84 L1739.77 947.334 L1718.63 991.362 L1697.49 1018.18 L1676.35 1073.76 L1655.22 1104.1 L1634.08 1126.58 L1612.94 1159.2 L1591.8 1192.31 L1570.67 1204.92 L1549.53 1071.95 L1528.39 767.991 L1507.25 465.053 L1486.12 402.779 L1464.98 389.137 L1443.84 441.739 L1422.7 380.148 L1401.57 277.414 L1380.43 198.095 L1359.29 203.713 L1338.15 196.329 L1317.02 211.176 L1295.88 320.843 L1274.74 353.877 L1253.6 397.715 L1232.47 443.818 L1211.33 540.754 L1190.19 574.905 L1169.05 614.082 L1147.92 716.704 L1126.78 781.579 L1105.64 831.84 L1084.5 908.236 L1063.37 955.552 L1042.23 993.068 L1021.09 1049.64 L999.954 1075.44 L978.816 1111.63 L957.679 1154.45 L936.541 1184.56 L915.404 1205.59 L894.266 1245.76 L873.128 1258.8 L851.991 1286.34 L830.853 1287.14 L809.716 1297.44 L788.578 1289.05 L767.441 1263.54 L746.303 1190.34 L725.166 1050.57 L704.028 761.246 L682.891 429.362 L661.753 129.287 L640.616 88.4438 L619.478 117.093 L598.34 220.273 L577.203 305.794 L556.065 351.003 L534.928 450.552 L513.79 549.958 L492.653 625.906 L471.515 697.7 L450.378 790.742 L429.24 885.222 L408.103 918.478 L386.965 980.876 L365.828 1046.81 L344.69 1089.11 L323.553 1134.37 L302.415 1164.38 L281.277 1190.24 L260.14 1207.62 L239.002 1239.97 L217.865 1268.89 L196.727 1277.47 L175.59 1300.77  Z" fill="#009af9" fill-rule="evenodd" fill-opacity="0.5"/>
<polyline clip-path="url(#clip111)" style="stroke:#009af9; stroke-linecap:round; stroke-linejoin:round; stroke-width:12; stroke-opacity:1; fill:none" points="175.59,1300.77 196.727,1291.7 217.865,1280.79 239.002,1264.49 260.14,1247.7 281.277,1224.26 302.415,1198.91 323.553,1166.15 344.69,1126.1 365.828,1111.24 386.965,1055.21 408.103,982.933 429.24,925.657 450.378,871.384 471.515,789.044 492.653,706.717 513.79,600.993 534.928,500.299 556.065,387.827 577.203,381.784 598.34,375.773 619.478,441.138 640.616,613.252 661.753,785.132 682.891,957.942 704.028,1109.44 725.166,1191.19 746.303,1262.36 767.441,1282.11 788.578,1302.97 809.716,1318.7 830.853,1322.36 851.991,1321.51 873.128,1316.15 894.266,1312.77 915.404,1304.06 936.541,1293.29 957.679,1274.74 978.816,1247.75 999.954,1228.63 1021.09,1195.14 1042.23,1160.03 1063.37,1112.36 1084.5,1066.07 1105.64,1021.18 1126.78,983.217 1147.92,941.219 1169.05,882.883 1190.19,804.927 1211.33,704.163 1232.47,632.296 1253.6,529.419 1274.74,436.505 1295.88,401.865 1317.02,370.05 1338.15,499.661 1359.29,566.019 1380.43,747.781 1401.57,906.164 1422.7,1042.76 1443.84,1128.78 1464.98,1213.22 1486.12,1268.67 1507.25,1289.34 1528.39,1299.92 1549.53,1301.34 1570.67,1299.12 1591.8,1312.39 1612.94,1301.02 1634.08,1289.26 1655.22,1273.1 1676.35,1242.05 1697.49,1193.64 1718.63,1168.23 1739.77,1121.95 1760.9,1087.71 1782.04,1036.87 1803.18,1008.95 1824.32,1002.64 1845.46,928.371 1866.59,839.238 1887.73,779.727 1908.87,739.444 1930.01,772.563 1951.14,705.205 1972.28,683.457 1993.42,730.499 2014.56,722.669 2035.69,730.601 2056.83,884.136 2077.97,1003.71 2099.11,1072.37 2120.24,1115.9 2141.38,1147.76 2162.52,1175.71 2183.66,1188.31 2204.79,1224.45 2225.93,1228.37 2247.07,1239.02 2268.21,1284.66 2289.34,1279.45 "/>
<path clip-path="url(#clip111)" d="M175.59 1300.77 L196.727 1335.19 L217.865 1359.04 L239.002 1380.4 L260.14 1393.39 L281.277 1402.54 L302.415 1407.79 L323.553 1414.09 L344.69 1422.83 L365.828 1428.1 L386.965 1431.45 L408.103 1433.37 L429.24 1433.83 L450.378 1433.46 L471.515 1433.2 L492.653 1432.54 L513.79 1427.2 L534.928 1421.49 L556.065 1410.08 L577.203 1393.97 L598.34 1367.14 L619.478 1305.1 L640.616 1210.58 L661.753 1024.6 L682.891 826.908 L704.028 904.12 L725.166 964.04 L746.303 1030.89 L767.441 1103.76 L788.578 1160.73 L809.716 1218.11 L830.853 1262.71 L851.991 1298.64 L873.128 1320.27 L894.266 1346.5 L915.404 1359.95 L936.541 1371.85 L957.679 1389.84 L978.816 1399.75 L999.954 1412.03 L1021.09 1420.87 L1042.23 1427.3 L1063.37 1431.68 L1084.5 1435.29 L1105.64 1437.76 L1126.78 1439.15 L1147.92 1440.84 L1169.05 1442.13 L1190.19 1442.64 L1211.33 1442.06 L1232.47 1440.81 L1253.6 1438.41 L1274.74 1435.54 L1295.88 1429.12 L1317.02 1417.48 L1338.15 1399.45 L1359.29 1362.76 L1380.43 1304.13 L1401.57 1233.79 L1422.7 1264.34 L1443.84 1276.19 L1464.98 1255.35 L1486.12 1212.87 L1507.25 1247.41 L1528.39 1286.76 L1549.53 1316.51 L1570.67 1340.44 L1591.8 1358.57 L1612.94 1373.15 L1634.08 1383.17 L1655.22 1391.13 L1676.35 1398.44 L1697.49 1407.19 L1718.63 1412.04 L1739.77 1414.65 L1760.9 1417.6 L1782.04 1420.62 L1803.18 1423.88 L1824.32 1426.93 L1845.46 1430.77 L1866.59 1434.27 L1887.73 1435.35 L1908.87 1437.08 L1930.01 1439.59 L1951.14 1442.26 L1972.28 1444.28 L1993.42 1445.44 L2014.56 1445.72 L2035.69 1445.07 L2056.83 1442.42 L2077.97 1437.41 L2099.11 1426.13 L2120.24 1409.02 L2141.38 1391.21 L2162.52 1403.43 L2183.66 1414.06 L2204.79 1421.65 L2225.93 1425.12 L2247.07 1427.6 L2268.21 1430.45 L2289.34 1432.04 L2289.34 856.492 L2268.21 727.522 L2247.07 513.673 L2225.93 493.625 L2204.79 498.882 L2183.66 651.975 L2162.52 752.842 L2141.38 827.774 L2120.24 791.332 L2099.11 758.119 L2077.97 698.618 L2056.83 708.666 L2035.69 793.805 L2014.56 876.506 L1993.42 891.726 L1972.28 919.895 L1951.14 909.56 L1930.01 932.556 L1908.87 1025.25 L1887.73 1121.14 L1866.59 1221.74 L1845.46 1289.02 L1824.32 1332.6 L1803.18 1356.25 L1782.04 1360.8 L1760.9 1335.06 L1739.77 1305.62 L1718.63 1267.89 L1697.49 1209.11 L1676.35 1150.86 L1655.22 1046.51 L1634.08 935.783 L1612.94 792.07 L1591.8 656.193 L1570.67 514.542 L1549.53 427.397 L1528.39 494.91 L1507.25 717.915 L1486.12 657.072 L1464.98 523.235 L1443.84 578.066 L1422.7 608.759 L1401.57 638.376 L1380.43 675.316 L1359.29 751.306 L1338.15 786.969 L1317.02 824.87 L1295.88 901.647 L1274.74 979.893 L1253.6 1068.95 L1232.47 1150.97 L1211.33 1223.9 L1190.19 1272.41 L1169.05 1323.58 L1147.92 1351.02 L1126.78 1367.49 L1105.64 1378.99 L1084.5 1386.9 L1063.37 1390.54 L1042.23 1392.4 L1021.09 1387.31 L999.954 1383.39 L978.816 1376.59 L957.679 1360.4 L936.541 1335.4 L915.404 1298.54 L894.266 1272.3 L873.128 1234.18 L851.991 1180.36 L830.853 1116.77 L809.716 1045.02 L788.578 917.281 L767.441 782.691 L746.303 592.963 L725.166 461.846 L704.028 488.489 L682.891 643.929 L661.753 671.637 L640.616 777.067 L619.478 869.964 L598.34 979.798 L577.203 1129.26 L556.065 1237.02 L534.928 1303.04 L513.79 1340.96 L492.653 1364.38 L471.515 1381.17 L450.378 1395.48 L429.24 1401.36 L408.103 1403.39 L386.965 1402.28 L365.828 1398.42 L344.69 1389.42 L323.553 1388.47 L302.415 1382.45 L281.277 1368.45 L260.14 1357.59 L239.002 1343.4 L217.865 1331.27 L196.727 1316.62 L175.59 1300.77  Z" fill="#e26f46" fill-rule="evenodd" fill-opacity="0.5"/>
<polyline clip-path="url(#clip111)" style="stroke:#e26f46; stroke-linecap:round; stroke-linejoin:round; stroke-width:12; stroke-opacity:1; fill:none" points="175.59,1300.77 196.727,1326.17 217.865,1348.42 239.002,1364.26 260.14,1379.85 281.277,1390.47 302.415,1400.45 323.553,1405.91 344.69,1410.69 365.828,1414.12 386.965,1417.02 408.103,1418.37 429.24,1417.65 450.378,1415.44 471.515,1411.38 492.653,1404.07 513.79,1394.73 534.928,1370.46 556.065,1328.67 577.203,1276.03 598.34,1179.72 619.478,1060.64 640.616,902.074 661.753,816.244 682.891,726.908 704.028,724.353 725.166,777.423 746.303,876.419 767.441,966.59 788.578,1069.13 809.716,1144.39 830.853,1206.34 851.991,1253.8 873.128,1285.55 894.266,1318.66 915.404,1342.26 936.541,1362.05 957.679,1375.89 978.816,1387.47 999.954,1396.52 1021.09,1403.91 1042.23,1410.63 1063.37,1413.93 1084.5,1417.18 1105.64,1417.74 1126.78,1419.2 1147.92,1419.2 1169.05,1416.79 1190.19,1413.59 1211.33,1408.42 1232.47,1397.62 1253.6,1373.86 1274.74,1344.38 1295.88,1291.82 1317.02,1209.51 1338.15,1077.33 1359.29,945.564 1380.43,884.011 1401.57,856.683 1422.7,876.68 1443.84,902.932 1464.98,993.168 1486.12,1062.69 1507.25,1079.02 1528.39,1153.11 1549.53,1197.89 1570.67,1238.91 1591.8,1272.33 1612.94,1303.84 1634.08,1331.7 1655.22,1355.75 1676.35,1369.85 1697.49,1382.62 1718.63,1390.68 1739.77,1401.2 1760.9,1408.53 1782.04,1412.8 1803.18,1413.45 1824.32,1408.49 1845.46,1408.98 1866.59,1407.73 1887.73,1397.55 1908.87,1381.06 1930.01,1357.09 1951.14,1331.62 1972.28,1289.33 1993.42,1233.53 2014.56,1138.08 2035.69,1127.48 2056.83,1101.83 2077.97,1119.25 2099.11,1170.86 2120.24,1118.93 2141.38,1126.05 2162.52,1122.01 2183.66,1148.38 2204.79,1196.7 2225.93,1230.53 2247.07,1272.93 2268.21,1300.93 2289.34,1326.45 "/>
</svg>
