<?xml version="1.0" encoding="utf-8"?>
<svg xmlns="http://www.w3.org/2000/svg" xmlns:xlink="http://www.w3.org/1999/xlink" width="600" height="400" viewBox="0 0 2400 1600">
<defs>
  <clipPath id="clip690">
    <rect x="0" y="0" width="2400" height="1600"/>
  </clipPath>
</defs>
<path clip-path="url(#clip690)" d="M0 1600 L2400 1600 L2400 0 L0 0  Z" fill="#ffffff" fill-rule="evenodd" fill-opacity="1"/>
<defs>
  <clipPath id="clip691">
    <rect x="155" y="47" width="2198" height="1440"/>
  </clipPath>
</defs>
<path clip-path="url(#clip690)" d="M155.765 1486.45 L2352.76 1486.45 L2352.76 47.2441 L155.765 47.2441  Z" fill="#ffffff" fill-rule="evenodd" fill-opacity="1"/>
<polyline clip-path="url(#clip691)" style="stroke:#000000; stroke-linecap:round; stroke-linejoin:round; stroke-width:2; stroke-opacity:0.1; fill:none" points="217.944,1486.45 217.944,47.2441 "/>
<polyline clip-path="url(#clip691)" style="stroke:#000000; stroke-linecap:round; stroke-linejoin:round; stroke-width:2; stroke-opacity:0.1; fill:none" points="736.102,1486.45 736.102,47.2441 "/>
<polyline clip-path="url(#clip691)" style="stroke:#000000; stroke-linecap:round; stroke-linejoin:round; stroke-width:2; stroke-opacity:0.1; fill:none" points="1254.26,1486.45 1254.26,47.2441 "/>
<polyline clip-path="url(#clip691)" style="stroke:#000000; stroke-linecap:round; stroke-linejoin:round; stroke-width:2; stroke-opacity:0.1; fill:none" points="1772.42,1486.45 1772.42,47.2441 "/>
<polyline clip-path="url(#clip691)" style="stroke:#000000; stroke-linecap:round; stroke-linejoin:round; stroke-width:2; stroke-opacity:0.1; fill:none" points="2290.58,1486.45 2290.58,47.2441 "/>
<polyline clip-path="url(#clip691)" style="stroke:#000000; stroke-linecap:round; stroke-linejoin:round; stroke-width:2; stroke-opacity:0.1; fill:none" points="155.765,1366.89 2352.76,1366.89 "/>
<polyline clip-path="url(#clip691)" style="stroke:#000000; stroke-linecap:round; stroke-linejoin:round; stroke-width:2; stroke-opacity:0.1; fill:none" points="155.765,1156.12 2352.76,1156.12 "/>
<polyline clip-path="url(#clip691)" style="stroke:#000000; stroke-linecap:round; stroke-linejoin:round; stroke-width:2; stroke-opacity:0.1; fill:none" points="155.765,945.356 2352.76,945.356 "/>
<polyline clip-path="url(#clip691)" style="stroke:#000000; stroke-linecap:round; stroke-linejoin:round; stroke-width:2; stroke-opacity:0.1; fill:none" points="155.765,734.588 2352.76,734.588 "/>
<polyline clip-path="url(#clip691)" style="stroke:#000000; stroke-linecap:round; stroke-linejoin:round; stroke-width:2; stroke-opacity:0.1; fill:none" points="155.765,523.819 2352.76,523.819 "/>
<polyline clip-path="url(#clip691)" style="stroke:#000000; stroke-linecap:round; stroke-linejoin:round; stroke-width:2; stroke-opacity:0.1; fill:none" points="155.765,313.051 2352.76,313.051 "/>
<polyline clip-path="url(#clip691)" style="stroke:#000000; stroke-linecap:round; stroke-linejoin:round; stroke-width:2; stroke-opacity:0.1; fill:none" points="155.765,102.282 2352.76,102.282 "/>
<polyline clip-path="url(#clip690)" style="stroke:#000000; stroke-linecap:round; stroke-linejoin:round; stroke-width:4; stroke-opacity:1; fill:none" points="155.765,1486.45 2352.76,1486.45 "/>
<polyline clip-path="url(#clip690)" style="stroke:#000000; stroke-linecap:round; stroke-linejoin:round; stroke-width:4; stroke-opacity:1; fill:none" points="217.944,1486.45 217.944,1467.55 "/>
<polyline clip-path="url(#clip690)" style="stroke:#000000; stroke-linecap:round; stroke-linejoin:round; stroke-width:4; stroke-opacity:1; fill:none" points="736.102,1486.45 736.102,1467.55 "/>
<polyline clip-path="url(#clip690)" style="stroke:#000000; stroke-linecap:round; stroke-linejoin:round; stroke-width:4; stroke-opacity:1; fill:none" points="1254.26,1486.45 1254.26,1467.55 "/>
<polyline clip-path="url(#clip690)" style="stroke:#000000; stroke-linecap:round; stroke-linejoin:round; stroke-width:4; stroke-opacity:1; fill:none" points="1772.42,1486.45 1772.42,1467.55 "/>
<polyline clip-path="url(#clip690)" style="stroke:#000000; stroke-linecap:round; stroke-linejoin:round; stroke-width:4; stroke-opacity:1; fill:none" points="2290.58,1486.45 2290.58,1467.55 "/>
<path clip-path="url(#clip690)" d="M180.247 1517.37 Q176.636 1517.37 174.808 1520.93 Q173.002 1524.47 173.002 1531.6 Q173.002 1538.71 174.808 1542.27 Q176.636 1545.82 180.247 1545.82 Q183.882 1545.82 185.687 1542.27 Q187.516 1538.71 187.516 1531.6 Q187.516 1524.47 185.687 1520.93 Q183.882 1517.37 180.247 1517.37 M180.247 1513.66 Q186.057 1513.66 189.113 1518.27 Q192.192 1522.85 192.192 1531.6 Q192.192 1540.33 189.113 1544.94 Q186.057 1549.52 180.247 1549.52 Q174.437 1549.52 171.358 1544.94 Q168.303 1540.33 168.303 1531.6 Q168.303 1522.85 171.358 1518.27 Q174.437 1513.66 180.247 1513.66 Z" fill="#000000" fill-rule="nonzero" fill-opacity="1" /><path clip-path="url(#clip690)" d="M200.409 1542.97 L205.294 1542.97 L205.294 1548.85 L200.409 1548.85 L200.409 1542.97 Z" fill="#000000" fill-rule="nonzero" fill-opacity="1" /><path clip-path="url(#clip690)" d="M225.479 1517.37 Q221.867 1517.37 220.039 1520.93 Q218.233 1524.47 218.233 1531.6 Q218.233 1538.71 220.039 1542.27 Q221.867 1545.82 225.479 1545.82 Q229.113 1545.82 230.918 1542.27 Q232.747 1538.71 232.747 1531.6 Q232.747 1524.47 230.918 1520.93 Q229.113 1517.37 225.479 1517.37 M225.479 1513.66 Q231.289 1513.66 234.344 1518.27 Q237.423 1522.85 237.423 1531.6 Q237.423 1540.33 234.344 1544.94 Q231.289 1549.52 225.479 1549.52 Q219.668 1549.52 216.59 1544.94 Q213.534 1540.33 213.534 1531.6 Q213.534 1522.85 216.59 1518.27 Q219.668 1513.66 225.479 1513.66 Z" fill="#000000" fill-rule="nonzero" fill-opacity="1" /><path clip-path="url(#clip690)" d="M255.64 1517.37 Q252.029 1517.37 250.201 1520.93 Q248.395 1524.47 248.395 1531.6 Q248.395 1538.71 250.201 1542.27 Q252.029 1545.82 255.64 1545.82 Q259.275 1545.82 261.08 1542.27 Q262.909 1538.71 262.909 1531.6 Q262.909 1524.47 261.08 1520.93 Q259.275 1517.37 255.64 1517.37 M255.64 1513.66 Q261.451 1513.66 264.506 1518.27 Q267.585 1522.85 267.585 1531.6 Q267.585 1540.33 264.506 1544.94 Q261.451 1549.52 255.64 1549.52 Q249.83 1549.52 246.752 1544.94 Q243.696 1540.33 243.696 1531.6 Q243.696 1522.85 246.752 1518.27 Q249.83 1513.66 255.64 1513.66 Z" fill="#000000" fill-rule="nonzero" fill-opacity="1" /><path clip-path="url(#clip690)" d="M698.903 1517.37 Q695.292 1517.37 693.463 1520.93 Q691.658 1524.47 691.658 1531.6 Q691.658 1538.71 693.463 1542.27 Q695.292 1545.82 698.903 1545.82 Q702.538 1545.82 704.343 1542.27 Q706.172 1538.71 706.172 1531.6 Q706.172 1524.47 704.343 1520.93 Q702.538 1517.37 698.903 1517.37 M698.903 1513.66 Q704.713 1513.66 707.769 1518.27 Q710.848 1522.85 710.848 1531.6 Q710.848 1540.33 707.769 1544.94 Q704.713 1549.52 698.903 1549.52 Q693.093 1549.52 690.014 1544.94 Q686.959 1540.33 686.959 1531.6 Q686.959 1522.85 690.014 1518.27 Q693.093 1513.66 698.903 1513.66 Z" fill="#000000" fill-rule="nonzero" fill-opacity="1" /><path clip-path="url(#clip690)" d="M719.065 1542.97 L723.949 1542.97 L723.949 1548.85 L719.065 1548.85 L719.065 1542.97 Z" fill="#000000" fill-rule="nonzero" fill-opacity="1" /><path clip-path="url(#clip690)" d="M738.162 1544.91 L754.482 1544.91 L754.482 1548.85 L732.537 1548.85 L732.537 1544.91 Q735.199 1542.16 739.783 1537.53 Q744.389 1532.88 745.57 1531.53 Q747.815 1529.01 748.695 1527.27 Q749.597 1525.51 749.597 1523.82 Q749.597 1521.07 747.653 1519.33 Q745.732 1517.6 742.63 1517.6 Q740.431 1517.6 737.977 1518.36 Q735.547 1519.13 732.769 1520.68 L732.769 1515.95 Q735.593 1514.82 738.047 1514.24 Q740.5 1513.66 742.537 1513.66 Q747.908 1513.66 751.102 1516.35 Q754.296 1519.03 754.296 1523.52 Q754.296 1525.65 753.486 1527.57 Q752.699 1529.47 750.593 1532.07 Q750.014 1532.74 746.912 1535.95 Q743.81 1539.15 738.162 1544.91 Z" fill="#000000" fill-rule="nonzero" fill-opacity="1" /><path clip-path="url(#clip690)" d="M764.343 1514.29 L782.699 1514.29 L782.699 1518.22 L768.625 1518.22 L768.625 1526.7 Q769.644 1526.35 770.662 1526.19 Q771.681 1526 772.699 1526 Q778.486 1526 781.866 1529.17 Q785.245 1532.34 785.245 1537.76 Q785.245 1543.34 781.773 1546.44 Q778.301 1549.52 771.982 1549.52 Q769.806 1549.52 767.537 1549.15 Q765.292 1548.78 762.884 1548.04 L762.884 1543.34 Q764.968 1544.47 767.19 1545.03 Q769.412 1545.58 771.889 1545.58 Q775.894 1545.58 778.232 1543.48 Q780.57 1541.37 780.57 1537.76 Q780.57 1534.15 778.232 1532.04 Q775.894 1529.94 771.889 1529.94 Q770.014 1529.94 768.139 1530.35 Q766.287 1530.77 764.343 1531.65 L764.343 1514.29 Z" fill="#000000" fill-rule="nonzero" fill-opacity="1" /><path clip-path="url(#clip690)" d="M1216.56 1517.37 Q1212.95 1517.37 1211.12 1520.93 Q1209.32 1524.47 1209.32 1531.6 Q1209.32 1538.71 1211.12 1542.27 Q1212.95 1545.82 1216.56 1545.82 Q1220.2 1545.82 1222 1542.27 Q1223.83 1538.71 1223.83 1531.6 Q1223.83 1524.47 1222 1520.93 Q1220.2 1517.37 1216.56 1517.37 M1216.56 1513.66 Q1222.37 1513.66 1225.43 1518.27 Q1228.51 1522.85 1228.51 1531.6 Q1228.51 1540.33 1225.43 1544.94 Q1222.37 1549.52 1216.56 1549.52 Q1210.75 1549.52 1207.68 1544.94 Q1204.62 1540.33 1204.62 1531.6 Q1204.62 1522.85 1207.68 1518.27 Q1210.75 1513.66 1216.56 1513.66 Z" fill="#000000" fill-rule="nonzero" fill-opacity="1" /><path clip-path="url(#clip690)" d="M1236.73 1542.97 L1241.61 1542.97 L1241.61 1548.85 L1236.73 1548.85 L1236.73 1542.97 Z" fill="#000000" fill-rule="nonzero" fill-opacity="1" /><path clip-path="url(#clip690)" d="M1251.84 1514.29 L1270.2 1514.29 L1270.2 1518.22 L1256.12 1518.22 L1256.12 1526.7 Q1257.14 1526.35 1258.16 1526.19 Q1259.18 1526 1260.2 1526 Q1265.98 1526 1269.36 1529.17 Q1272.74 1532.34 1272.74 1537.76 Q1272.74 1543.34 1269.27 1546.44 Q1265.8 1549.52 1259.48 1549.52 Q1257.3 1549.52 1255.04 1549.15 Q1252.79 1548.78 1250.38 1548.04 L1250.38 1543.34 Q1252.47 1544.47 1254.69 1545.03 Q1256.91 1545.58 1259.39 1545.58 Q1263.39 1545.58 1265.73 1543.48 Q1268.07 1541.37 1268.07 1537.76 Q1268.07 1534.15 1265.73 1532.04 Q1263.39 1529.94 1259.39 1529.94 Q1257.51 1529.94 1255.64 1530.35 Q1253.79 1530.77 1251.84 1531.65 L1251.84 1514.29 Z" fill="#000000" fill-rule="nonzero" fill-opacity="1" /><path clip-path="url(#clip690)" d="M1291.96 1517.37 Q1288.35 1517.37 1286.52 1520.93 Q1284.71 1524.47 1284.71 1531.6 Q1284.71 1538.71 1286.52 1542.27 Q1288.35 1545.82 1291.96 1545.82 Q1295.59 1545.82 1297.4 1542.27 Q1299.23 1538.71 1299.23 1531.6 Q1299.23 1524.47 1297.4 1520.93 Q1295.59 1517.37 1291.96 1517.37 M1291.96 1513.66 Q1297.77 1513.66 1300.82 1518.27 Q1303.9 1522.85 1303.9 1531.6 Q1303.9 1540.33 1300.82 1544.94 Q1297.77 1549.52 1291.96 1549.52 Q1286.15 1549.52 1283.07 1544.94 Q1280.01 1540.33 1280.01 1531.6 Q1280.01 1522.85 1283.07 1518.27 Q1286.15 1513.66 1291.96 1513.66 Z" fill="#000000" fill-rule="nonzero" fill-opacity="1" /><path clip-path="url(#clip690)" d="M1735.22 1517.37 Q1731.61 1517.37 1729.78 1520.93 Q1727.97 1524.47 1727.97 1531.6 Q1727.97 1538.71 1729.78 1542.27 Q1731.61 1545.82 1735.22 1545.82 Q1738.85 1545.82 1740.66 1542.27 Q1742.49 1538.71 1742.49 1531.6 Q1742.49 1524.47 1740.66 1520.93 Q1738.85 1517.37 1735.22 1517.37 M1735.22 1513.66 Q1741.03 1513.66 1744.09 1518.27 Q1747.16 1522.85 1747.16 1531.6 Q1747.16 1540.33 1744.09 1544.94 Q1741.03 1549.52 1735.22 1549.52 Q1729.41 1549.52 1726.33 1544.94 Q1723.28 1540.33 1723.28 1531.6 Q1723.28 1522.85 1726.33 1518.27 Q1729.41 1513.66 1735.22 1513.66 Z" fill="#000000" fill-rule="nonzero" fill-opacity="1" /><path clip-path="url(#clip690)" d="M1755.38 1542.97 L1760.27 1542.97 L1760.27 1548.85 L1755.38 1548.85 L1755.38 1542.97 Z" fill="#000000" fill-rule="nonzero" fill-opacity="1" /><path clip-path="url(#clip690)" d="M1769.27 1514.29 L1791.49 1514.29 L1791.49 1516.28 L1778.95 1548.85 L1774.06 1548.85 L1785.87 1518.22 L1769.27 1518.22 L1769.27 1514.29 Z" fill="#000000" fill-rule="nonzero" fill-opacity="1" /><path clip-path="url(#clip690)" d="M1800.66 1514.29 L1819.02 1514.29 L1819.02 1518.22 L1804.94 1518.22 L1804.94 1526.7 Q1805.96 1526.35 1806.98 1526.19 Q1808 1526 1809.02 1526 Q1814.8 1526 1818.18 1529.17 Q1821.56 1532.34 1821.56 1537.76 Q1821.56 1543.34 1818.09 1546.44 Q1814.62 1549.52 1808.3 1549.52 Q1806.12 1549.52 1803.85 1549.15 Q1801.61 1548.78 1799.2 1548.04 L1799.2 1543.34 Q1801.28 1544.47 1803.51 1545.03 Q1805.73 1545.58 1808.21 1545.58 Q1812.21 1545.58 1814.55 1543.48 Q1816.89 1541.37 1816.89 1537.76 Q1816.89 1534.15 1814.55 1532.04 Q1812.21 1529.94 1808.21 1529.94 Q1806.33 1529.94 1804.46 1530.35 Q1802.6 1530.77 1800.66 1531.65 L1800.66 1514.29 Z" fill="#000000" fill-rule="nonzero" fill-opacity="1" /><path clip-path="url(#clip690)" d="M2242.65 1544.91 L2250.29 1544.91 L2250.29 1518.55 L2241.98 1520.21 L2241.98 1515.95 L2250.24 1514.29 L2254.92 1514.29 L2254.92 1544.91 L2262.56 1544.91 L2262.56 1548.85 L2242.65 1548.85 L2242.65 1544.91 Z" fill="#000000" fill-rule="nonzero" fill-opacity="1" /><path clip-path="url(#clip690)" d="M2272 1542.97 L2276.88 1542.97 L2276.88 1548.85 L2272 1548.85 L2272 1542.97 Z" fill="#000000" fill-rule="nonzero" fill-opacity="1" /><path clip-path="url(#clip690)" d="M2297.07 1517.37 Q2293.46 1517.37 2291.63 1520.93 Q2289.82 1524.47 2289.82 1531.6 Q2289.82 1538.71 2291.63 1542.27 Q2293.46 1545.82 2297.07 1545.82 Q2300.7 1545.82 2302.51 1542.27 Q2304.34 1538.71 2304.34 1531.6 Q2304.34 1524.47 2302.51 1520.93 Q2300.7 1517.37 2297.07 1517.37 M2297.07 1513.66 Q2302.88 1513.66 2305.94 1518.27 Q2309.01 1522.85 2309.01 1531.6 Q2309.01 1540.33 2305.94 1544.94 Q2302.88 1549.52 2297.07 1549.52 Q2291.26 1549.52 2288.18 1544.94 Q2285.13 1540.33 2285.13 1531.6 Q2285.13 1522.85 2288.18 1518.27 Q2291.26 1513.66 2297.07 1513.66 Z" fill="#000000" fill-rule="nonzero" fill-opacity="1" /><path clip-path="url(#clip690)" d="M2327.23 1517.37 Q2323.62 1517.37 2321.79 1520.93 Q2319.99 1524.47 2319.99 1531.6 Q2319.99 1538.71 2321.79 1542.27 Q2323.62 1545.82 2327.23 1545.82 Q2330.87 1545.82 2332.67 1542.27 Q2334.5 1538.71 2334.5 1531.6 Q2334.5 1524.47 2332.67 1520.93 Q2330.87 1517.37 2327.23 1517.37 M2327.23 1513.66 Q2333.04 1513.66 2336.1 1518.27 Q2339.18 1522.85 2339.18 1531.6 Q2339.18 1540.33 2336.1 1544.94 Q2333.04 1549.52 2327.23 1549.52 Q2321.42 1549.52 2318.34 1544.94 Q2315.29 1540.33 2315.29 1531.6 Q2315.29 1522.85 2318.34 1518.27 Q2321.42 1513.66 2327.23 1513.66 Z" fill="#000000" fill-rule="nonzero" fill-opacity="1" /><polyline clip-path="url(#clip690)" style="stroke:#000000; stroke-linecap:round; stroke-linejoin:round; stroke-width:4; stroke-opacity:1; fill:none" points="155.765,1486.45 155.765,47.2441 "/>
<polyline clip-path="url(#clip690)" style="stroke:#000000; stroke-linecap:round; stroke-linejoin:round; stroke-width:4; stroke-opacity:1; fill:none" points="155.765,1366.89 174.663,1366.89 "/>
<polyline clip-path="url(#clip690)" style="stroke:#000000; stroke-linecap:round; stroke-linejoin:round; stroke-width:4; stroke-opacity:1; fill:none" points="155.765,1156.12 174.663,1156.12 "/>
<polyline clip-path="url(#clip690)" style="stroke:#000000; stroke-linecap:round; stroke-linejoin:round; stroke-width:4; stroke-opacity:1; fill:none" points="155.765,945.356 174.663,945.356 "/>
<polyline clip-path="url(#clip690)" style="stroke:#000000; stroke-linecap:round; stroke-linejoin:round; stroke-width:4; stroke-opacity:1; fill:none" points="155.765,734.588 174.663,734.588 "/>
<polyline clip-path="url(#clip690)" style="stroke:#000000; stroke-linecap:round; stroke-linejoin:round; stroke-width:4; stroke-opacity:1; fill:none" points="155.765,523.819 174.663,523.819 "/>
<polyline clip-path="url(#clip690)" style="stroke:#000000; stroke-linecap:round; stroke-linejoin:round; stroke-width:4; stroke-opacity:1; fill:none" points="155.765,313.051 174.663,313.051 "/>
<polyline clip-path="url(#clip690)" style="stroke:#000000; stroke-linecap:round; stroke-linejoin:round; stroke-width:4; stroke-opacity:1; fill:none" points="155.765,102.282 174.663,102.282 "/>
<path clip-path="url(#clip690)" d="M63.5847 1352.69 Q59.9736 1352.69 58.1449 1356.26 Q56.3393 1359.8 56.3393 1366.93 Q56.3393 1374.03 58.1449 1377.6 Q59.9736 1381.14 63.5847 1381.14 Q67.2189 1381.14 69.0244 1377.6 Q70.8531 1374.03 70.8531 1366.93 Q70.8531 1359.8 69.0244 1356.26 Q67.2189 1352.69 63.5847 1352.69 M63.5847 1348.99 Q69.3948 1348.99 72.4503 1353.59 Q75.529 1358.18 75.529 1366.93 Q75.529 1375.65 72.4503 1380.26 Q69.3948 1384.84 63.5847 1384.84 Q57.7745 1384.84 54.6958 1380.26 Q51.6403 1375.65 51.6403 1366.93 Q51.6403 1358.18 54.6958 1353.59 Q57.7745 1348.99 63.5847 1348.99 Z" fill="#000000" fill-rule="nonzero" fill-opacity="1" /><path clip-path="url(#clip690)" d="M83.7466 1378.29 L88.6308 1378.29 L88.6308 1384.17 L83.7466 1384.17 L83.7466 1378.29 Z" fill="#000000" fill-rule="nonzero" fill-opacity="1" /><path clip-path="url(#clip690)" d="M98.8622 1349.61 L117.219 1349.61 L117.219 1353.55 L103.145 1353.55 L103.145 1362.02 Q104.163 1361.67 105.182 1361.51 Q106.2 1361.33 107.219 1361.33 Q113.006 1361.33 116.385 1364.5 Q119.765 1367.67 119.765 1373.09 Q119.765 1378.66 116.293 1381.77 Q112.82 1384.84 106.501 1384.84 Q104.325 1384.84 102.057 1384.47 Q99.8113 1384.1 97.4039 1383.36 L97.4039 1378.66 Q99.4872 1379.8 101.709 1380.35 Q103.932 1380.91 106.408 1380.91 Q110.413 1380.91 112.751 1378.8 Q115.089 1376.7 115.089 1373.09 Q115.089 1369.47 112.751 1367.37 Q110.413 1365.26 106.408 1365.26 Q104.534 1365.26 102.659 1365.68 Q100.807 1366.09 98.8622 1366.97 L98.8622 1349.61 Z" fill="#000000" fill-rule="nonzero" fill-opacity="1" /><path clip-path="url(#clip690)" d="M53.3995 1169.47 L61.0384 1169.47 L61.0384 1143.1 L52.7282 1144.77 L52.7282 1140.51 L60.9921 1138.84 L65.668 1138.84 L65.668 1169.47 L73.3068 1169.47 L73.3068 1173.4 L53.3995 1173.4 L53.3995 1169.47 Z" fill="#000000" fill-rule="nonzero" fill-opacity="1" /><path clip-path="url(#clip690)" d="M82.7512 1167.53 L87.6354 1167.53 L87.6354 1173.4 L82.7512 1173.4 L82.7512 1167.53 Z" fill="#000000" fill-rule="nonzero" fill-opacity="1" /><path clip-path="url(#clip690)" d="M107.821 1141.92 Q104.209 1141.92 102.381 1145.49 Q100.575 1149.03 100.575 1156.16 Q100.575 1163.27 102.381 1166.83 Q104.209 1170.37 107.821 1170.37 Q111.455 1170.37 113.26 1166.83 Q115.089 1163.27 115.089 1156.16 Q115.089 1149.03 113.26 1145.49 Q111.455 1141.92 107.821 1141.92 M107.821 1138.22 Q113.631 1138.22 116.686 1142.83 Q119.765 1147.41 119.765 1156.16 Q119.765 1164.89 116.686 1169.49 Q113.631 1174.08 107.821 1174.08 Q102.01 1174.08 98.9317 1169.49 Q95.8761 1164.89 95.8761 1156.16 Q95.8761 1147.41 98.9317 1142.83 Q102.01 1138.22 107.821 1138.22 Z" fill="#000000" fill-rule="nonzero" fill-opacity="1" /><path clip-path="url(#clip690)" d="M54.3949 958.701 L62.0337 958.701 L62.0337 932.335 L53.7236 934.002 L53.7236 929.743 L61.9874 928.076 L66.6633 928.076 L66.6633 958.701 L74.3022 958.701 L74.3022 962.636 L54.3949 962.636 L54.3949 958.701 Z" fill="#000000" fill-rule="nonzero" fill-opacity="1" /><path clip-path="url(#clip690)" d="M83.7466 956.757 L88.6308 956.757 L88.6308 962.636 L83.7466 962.636 L83.7466 956.757 Z" fill="#000000" fill-rule="nonzero" fill-opacity="1" /><path clip-path="url(#clip690)" d="M98.8622 928.076 L117.219 928.076 L117.219 932.011 L103.145 932.011 L103.145 940.483 Q104.163 940.136 105.182 939.974 Q106.2 939.789 107.219 939.789 Q113.006 939.789 116.385 942.96 Q119.765 946.132 119.765 951.548 Q119.765 957.127 116.293 960.229 Q112.82 963.307 106.501 963.307 Q104.325 963.307 102.057 962.937 Q99.8113 962.567 97.4039 961.826 L97.4039 957.127 Q99.4872 958.261 101.709 958.817 Q103.932 959.372 106.408 959.372 Q110.413 959.372 112.751 957.266 Q115.089 955.159 115.089 951.548 Q115.089 947.937 112.751 945.831 Q110.413 943.724 106.408 943.724 Q104.534 943.724 102.659 944.141 Q100.807 944.558 98.8622 945.437 L98.8622 928.076 Z" fill="#000000" fill-rule="nonzero" fill-opacity="1" /><path clip-path="url(#clip690)" d="M56.6171 747.932 L72.9365 747.932 L72.9365 751.868 L50.9921 751.868 L50.9921 747.932 Q53.6541 745.178 58.2375 740.548 Q62.8439 735.895 64.0245 734.553 Q66.2698 732.03 67.1494 730.294 Q68.0522 728.534 68.0522 726.845 Q68.0522 724.09 66.1078 722.354 Q64.1865 720.618 61.0847 720.618 Q58.8856 720.618 56.4319 721.382 Q54.0014 722.146 51.2236 723.696 L51.2236 718.974 Q54.0477 717.84 56.5014 717.261 Q58.955 716.683 60.9921 716.683 Q66.3624 716.683 69.5568 719.368 Q72.7513 722.053 72.7513 726.544 Q72.7513 728.673 71.9411 730.595 Q71.1541 732.493 69.0476 735.085 Q68.4689 735.757 65.367 738.974 Q62.2652 742.169 56.6171 747.932 Z" fill="#000000" fill-rule="nonzero" fill-opacity="1" /><path clip-path="url(#clip690)" d="M82.7512 745.988 L87.6354 745.988 L87.6354 751.868 L82.7512 751.868 L82.7512 745.988 Z" fill="#000000" fill-rule="nonzero" fill-opacity="1" /><path clip-path="url(#clip690)" d="M107.821 720.386 Q104.209 720.386 102.381 723.951 Q100.575 727.493 100.575 734.622 Q100.575 741.729 102.381 745.294 Q104.209 748.835 107.821 748.835 Q111.455 748.835 113.26 745.294 Q115.089 741.729 115.089 734.622 Q115.089 727.493 113.26 723.951 Q111.455 720.386 107.821 720.386 M107.821 716.683 Q113.631 716.683 116.686 721.289 Q119.765 725.872 119.765 734.622 Q119.765 743.349 116.686 747.956 Q113.631 752.539 107.821 752.539 Q102.01 752.539 98.9317 747.956 Q95.8761 743.349 95.8761 734.622 Q95.8761 725.872 98.9317 721.289 Q102.01 716.683 107.821 716.683 Z" fill="#000000" fill-rule="nonzero" fill-opacity="1" /><path clip-path="url(#clip690)" d="M57.6125 537.164 L73.9318 537.164 L73.9318 541.099 L51.9875 541.099 L51.9875 537.164 Q54.6495 534.409 59.2328 529.78 Q63.8393 525.127 65.0198 523.784 Q67.2652 521.261 68.1448 519.525 Q69.0476 517.766 69.0476 516.076 Q69.0476 513.322 67.1032 511.585 Q65.1819 509.849 62.08 509.849 Q59.881 509.849 57.4273 510.613 Q54.9967 511.377 52.219 512.928 L52.219 508.206 Q55.043 507.072 57.4967 506.493 Q59.9504 505.914 61.9874 505.914 Q67.3578 505.914 70.5522 508.599 Q73.7466 511.284 73.7466 515.775 Q73.7466 517.905 72.9365 519.826 Q72.1494 521.724 70.0429 524.317 Q69.4642 524.988 66.3624 528.206 Q63.2606 531.4 57.6125 537.164 Z" fill="#000000" fill-rule="nonzero" fill-opacity="1" /><path clip-path="url(#clip690)" d="M83.7466 535.22 L88.6308 535.22 L88.6308 541.099 L83.7466 541.099 L83.7466 535.22 Z" fill="#000000" fill-rule="nonzero" fill-opacity="1" /><path clip-path="url(#clip690)" d="M98.8622 506.539 L117.219 506.539 L117.219 510.474 L103.145 510.474 L103.145 518.946 Q104.163 518.599 105.182 518.437 Q106.2 518.252 107.219 518.252 Q113.006 518.252 116.385 521.423 Q119.765 524.595 119.765 530.011 Q119.765 535.59 116.293 538.692 Q112.82 541.77 106.501 541.77 Q104.325 541.77 102.057 541.4 Q99.8113 541.03 97.4039 540.289 L97.4039 535.59 Q99.4872 536.724 101.709 537.28 Q103.932 537.835 106.408 537.835 Q110.413 537.835 112.751 535.729 Q115.089 533.622 115.089 530.011 Q115.089 526.4 112.751 524.294 Q110.413 522.187 106.408 522.187 Q104.534 522.187 102.659 522.604 Q100.807 523.021 98.8622 523.9 L98.8622 506.539 Z" fill="#000000" fill-rule="nonzero" fill-opacity="1" /><path clip-path="url(#clip690)" d="M66.7559 311.696 Q70.1124 312.414 71.9874 314.683 Q73.8855 316.951 73.8855 320.284 Q73.8855 325.4 70.367 328.201 Q66.8485 331.002 60.3671 331.002 Q58.1912 331.002 55.8764 330.562 Q53.5847 330.145 51.131 329.289 L51.131 324.775 Q53.0754 325.909 55.3903 326.488 Q57.7051 327.067 60.2282 327.067 Q64.6263 327.067 66.918 325.331 Q69.2328 323.595 69.2328 320.284 Q69.2328 317.229 67.08 315.516 Q64.9504 313.78 61.131 313.78 L57.1032 313.78 L57.1032 309.937 L61.3161 309.937 Q64.7652 309.937 66.5939 308.571 Q68.4226 307.183 68.4226 304.59 Q68.4226 301.928 66.5245 300.516 Q64.6495 299.081 61.131 299.081 Q59.2097 299.081 57.0106 299.497 Q54.8115 299.914 52.1727 300.794 L52.1727 296.627 Q54.8347 295.886 57.1495 295.516 Q59.4875 295.146 61.5476 295.146 Q66.8717 295.146 69.9735 297.576 Q73.0753 299.984 73.0753 304.104 Q73.0753 306.974 71.4318 308.965 Q69.7883 310.933 66.7559 311.696 Z" fill="#000000" fill-rule="nonzero" fill-opacity="1" /><path clip-path="url(#clip690)" d="M82.7512 324.451 L87.6354 324.451 L87.6354 330.331 L82.7512 330.331 L82.7512 324.451 Z" fill="#000000" fill-rule="nonzero" fill-opacity="1" /><path clip-path="url(#clip690)" d="M107.821 298.849 Q104.209 298.849 102.381 302.414 Q100.575 305.956 100.575 313.085 Q100.575 320.192 102.381 323.757 Q104.209 327.298 107.821 327.298 Q111.455 327.298 113.26 323.757 Q115.089 320.192 115.089 313.085 Q115.089 305.956 113.26 302.414 Q111.455 298.849 107.821 298.849 M107.821 295.146 Q113.631 295.146 116.686 299.752 Q119.765 304.335 119.765 313.085 Q119.765 321.812 116.686 326.419 Q113.631 331.002 107.821 331.002 Q102.01 331.002 98.9317 326.419 Q95.8761 321.812 95.8761 313.085 Q95.8761 304.335 98.9317 299.752 Q102.01 295.146 107.821 295.146 Z" fill="#000000" fill-rule="nonzero" fill-opacity="1" /><path clip-path="url(#clip690)" d="M67.7513 100.928 Q71.1078 101.646 72.9827 103.914 Q74.8809 106.183 74.8809 109.516 Q74.8809 114.632 71.3624 117.433 Q67.8439 120.233 61.3624 120.233 Q59.1865 120.233 56.8717 119.794 Q54.5801 119.377 52.1264 118.52 L52.1264 114.007 Q54.0708 115.141 56.3856 115.72 Q58.7004 116.298 61.2236 116.298 Q65.6217 116.298 67.9133 114.562 Q70.2281 112.826 70.2281 109.516 Q70.2281 106.46 68.0754 104.747 Q65.9457 103.011 62.1263 103.011 L58.0986 103.011 L58.0986 99.1687 L62.3115 99.1687 Q65.7606 99.1687 67.5893 97.803 Q69.418 96.4141 69.418 93.8215 Q69.418 91.1595 67.5198 89.7475 Q65.6448 88.3123 62.1263 88.3123 Q60.205 88.3123 58.006 88.729 Q55.8069 89.1456 53.168 90.0253 L53.168 85.8586 Q55.8301 85.1179 58.1449 84.7475 Q60.4828 84.3771 62.543 84.3771 Q67.867 84.3771 70.9689 86.8077 Q74.0707 89.2151 74.0707 93.3354 Q74.0707 96.2058 72.4272 98.1965 Q70.7837 100.164 67.7513 100.928 Z" fill="#000000" fill-rule="nonzero" fill-opacity="1" /><path clip-path="url(#clip690)" d="M83.7466 113.683 L88.6308 113.683 L88.6308 119.562 L83.7466 119.562 L83.7466 113.683 Z" fill="#000000" fill-rule="nonzero" fill-opacity="1" /><path clip-path="url(#clip690)" d="M98.8622 85.0021 L117.219 85.0021 L117.219 88.9373 L103.145 88.9373 L103.145 97.4095 Q104.163 97.0623 105.182 96.9002 Q106.2 96.715 107.219 96.715 Q113.006 96.715 116.385 99.8863 Q119.765 103.058 119.765 108.474 Q119.765 114.053 116.293 117.155 Q112.82 120.233 106.501 120.233 Q104.325 120.233 102.057 119.863 Q99.8113 119.493 97.4039 118.752 L97.4039 114.053 Q99.4872 115.187 101.709 115.743 Q103.932 116.298 106.408 116.298 Q110.413 116.298 112.751 114.192 Q115.089 112.085 115.089 108.474 Q115.089 104.863 112.751 102.757 Q110.413 100.65 106.408 100.65 Q104.534 100.65 102.659 101.067 Q100.807 101.484 98.8622 102.363 L98.8622 85.0021 Z" fill="#000000" fill-rule="nonzero" fill-opacity="1" /><polyline clip-path="url(#clip691)" style="stroke:#009af9; stroke-linecap:round; stroke-linejoin:round; stroke-width:12; stroke-opacity:1; fill:none" points="217.944,1366.89 425.207,1374.75 632.47,1357.69 839.734,1311.03 1047,1263.7 1254.26,1260.87 1461.52,1277.34 1668.79,1193.46 1876.05,1154.53 2083.31,1086.13 2290.58,1014.18 "/>
<polyline clip-path="url(#clip691)" style="stroke:#000000; stroke-linecap:round; stroke-linejoin:round; stroke-width:12; stroke-opacity:1; fill:none" points="217.944,1366.89 217.944,1366.89 "/>
<polyline clip-path="url(#clip691)" style="stroke:#000000; stroke-linecap:round; stroke-linejoin:round; stroke-width:12; stroke-opacity:1; fill:none" points="425.207,1422.32 425.207,1323.58 "/>
<polyline clip-path="url(#clip691)" style="stroke:#000000; stroke-linecap:round; stroke-linejoin:round; stroke-width:12; stroke-opacity:1; fill:none" points="632.47,1423.98 632.47,1242.56 "/>
<polyline clip-path="url(#clip691)" style="stroke:#000000; stroke-linecap:round; stroke-linejoin:round; stroke-width:12; stroke-opacity:1; fill:none" points="839.734,1433.41 839.734,1188.03 "/>
<polyline clip-path="url(#clip691)" style="stroke:#000000; stroke-linecap:round; stroke-linejoin:round; stroke-width:12; stroke-opacity:1; fill:none" points="1047,1445.72 1047,1127.27 "/>
<polyline clip-path="url(#clip691)" style="stroke:#000000; stroke-linecap:round; stroke-linejoin:round; stroke-width:12; stroke-opacity:1; fill:none" points="1254.26,1442.94 1254.26,1104.61 "/>
<polyline clip-path="url(#clip691)" style="stroke:#000000; stroke-linecap:round; stroke-linejoin:round; stroke-width:12; stroke-opacity:1; fill:none" points="1461.52,1408.97 1461.52,919.933 "/>
<polyline clip-path="url(#clip691)" style="stroke:#000000; stroke-linecap:round; stroke-linejoin:round; stroke-width:12; stroke-opacity:1; fill:none" points="1668.79,1374.05 1668.79,726.871 "/>
<polyline clip-path="url(#clip691)" style="stroke:#000000; stroke-linecap:round; stroke-linejoin:round; stroke-width:12; stroke-opacity:1; fill:none" points="1876.05,1368.86 1876.05,589.648 "/>
<polyline clip-path="url(#clip691)" style="stroke:#000000; stroke-linecap:round; stroke-linejoin:round; stroke-width:12; stroke-opacity:1; fill:none" points="2083.31,1391.17 2083.31,434.415 "/>
<polyline clip-path="url(#clip691)" style="stroke:#000000; stroke-linecap:round; stroke-linejoin:round; stroke-width:12; stroke-opacity:1; fill:none" points="2290.58,1379.13 2290.58,87.9763 "/>
<line clip-path="url(#clip691)" x1="233.944" y1="1366.89" x2="201.944" y2="1366.89" style="stroke:#000000; stroke-width:12; stroke-opacity:1"/>
<line clip-path="url(#clip691)" x1="233.944" y1="1366.89" x2="201.944" y2="1366.89" style="stroke:#000000; stroke-width:12; stroke-opacity:1"/>
<line clip-path="url(#clip691)" x1="441.207" y1="1422.32" x2="409.207" y2="1422.32" style="stroke:#000000; stroke-width:12; stroke-opacity:1"/>
<line clip-path="url(#clip691)" x1="441.207" y1="1323.58" x2="409.207" y2="1323.58" style="stroke:#000000; stroke-width:12; stroke-opacity:1"/>
<line clip-path="url(#clip691)" x1="648.47" y1="1423.98" x2="616.47" y2="1423.98" style="stroke:#000000; stroke-width:12; stroke-opacity:1"/>
<line clip-path="url(#clip691)" x1="648.47" y1="1242.56" x2="616.47" y2="1242.56" style="stroke:#000000; stroke-width:12; stroke-opacity:1"/>
<line clip-path="url(#clip691)" x1="855.734" y1="1433.41" x2="823.734" y2="1433.41" style="stroke:#000000; stroke-width:12; stroke-opacity:1"/>
<line clip-path="url(#clip691)" x1="855.734" y1="1188.03" x2="823.734" y2="1188.03" style="stroke:#000000; stroke-width:12; stroke-opacity:1"/>
<line clip-path="url(#clip691)" x1="1063" y1="1445.72" x2="1031" y2="1445.72" style="stroke:#000000; stroke-width:12; stroke-opacity:1"/>
<line clip-path="url(#clip691)" x1="1063" y1="1127.27" x2="1031" y2="1127.27" style="stroke:#000000; stroke-width:12; stroke-opacity:1"/>
<line clip-path="url(#clip691)" x1="1270.26" y1="1442.94" x2="1238.26" y2="1442.94" style="stroke:#000000; stroke-width:12; stroke-opacity:1"/>
<line clip-path="url(#clip691)" x1="1270.26" y1="1104.61" x2="1238.26" y2="1104.61" style="stroke:#000000; stroke-width:12; stroke-opacity:1"/>
<line clip-path="url(#clip691)" x1="1477.52" y1="1408.97" x2="1445.52" y2="1408.97" style="stroke:#000000; stroke-width:12; stroke-opacity:1"/>
<line clip-path="url(#clip691)" x1="1477.52" y1="919.933" x2="1445.52" y2="919.933" style="stroke:#000000; stroke-width:12; stroke-opacity:1"/>
<line clip-path="url(#clip691)" x1="1684.79" y1="1374.05" x2="1652.79" y2="1374.05" style="stroke:#000000; stroke-width:12; stroke-opacity:1"/>
<line clip-path="url(#clip691)" x1="1684.79" y1="726.871" x2="1652.79" y2="726.871" style="stroke:#000000; stroke-width:12; stroke-opacity:1"/>
<line clip-path="url(#clip691)" x1="1892.05" y1="1368.86" x2="1860.05" y2="1368.86" style="stroke:#000000; stroke-width:12; stroke-opacity:1"/>
<line clip-path="url(#clip691)" x1="1892.05" y1="589.648" x2="1860.05" y2="589.648" style="stroke:#000000; stroke-width:12; stroke-opacity:1"/>
<line clip-path="url(#clip691)" x1="2099.31" y1="1391.17" x2="2067.31" y2="1391.17" style="stroke:#000000; stroke-width:12; stroke-opacity:1"/>
<line clip-path="url(#clip691)" x1="2099.31" y1="434.415" x2="2067.31" y2="434.415" style="stroke:#000000; stroke-width:12; stroke-opacity:1"/>
<line clip-path="url(#clip691)" x1="2306.58" y1="1379.13" x2="2274.58" y2="1379.13" style="stroke:#000000; stroke-width:12; stroke-opacity:1"/>
<line clip-path="url(#clip691)" x1="2306.58" y1="87.9763" x2="2274.58" y2="87.9763" style="stroke:#000000; stroke-width:12; stroke-opacity:1"/>
<polyline clip-path="url(#clip691)" style="stroke:#e26f46; stroke-linecap:round; stroke-linejoin:round; stroke-width:12; stroke-opacity:1; fill:none" points="217.944,1366.89 425.207,1380.84 632.47,1364.14 839.734,1344.6 1047,1302.04 1254.26,1222.89 1461.52,1204.49 1668.79,1187.48 1876.05,1156.26 2083.31,1122.98 2290.58,1065.82 "/>
<polyline clip-path="url(#clip691)" style="stroke:#000000; stroke-linecap:round; stroke-linejoin:round; stroke-width:12; stroke-opacity:1; fill:none" points="217.944,1366.89 217.944,1366.89 "/>
<polyline clip-path="url(#clip691)" style="stroke:#000000; stroke-linecap:round; stroke-linejoin:round; stroke-width:12; stroke-opacity:1; fill:none" points="425.207,1420.4 425.207,1253.37 "/>
<polyline clip-path="url(#clip691)" style="stroke:#000000; stroke-linecap:round; stroke-linejoin:round; stroke-width:12; stroke-opacity:1; fill:none" points="632.47,1422.81 632.47,1173.14 "/>
<polyline clip-path="url(#clip691)" style="stroke:#000000; stroke-linecap:round; stroke-linejoin:round; stroke-width:12; stroke-opacity:1; fill:none" points="839.734,1408.88 839.734,1110.03 "/>
<polyline clip-path="url(#clip691)" style="stroke:#000000; stroke-linecap:round; stroke-linejoin:round; stroke-width:12; stroke-opacity:1; fill:none" points="1047,1404.17 1047,1030.46 "/>
<polyline clip-path="url(#clip691)" style="stroke:#000000; stroke-linecap:round; stroke-linejoin:round; stroke-width:12; stroke-opacity:1; fill:none" points="1254.26,1375.87 1254.26,812.392 "/>
<polyline clip-path="url(#clip691)" style="stroke:#000000; stroke-linecap:round; stroke-linejoin:round; stroke-width:12; stroke-opacity:1; fill:none" points="1461.52,1352.09 1461.52,757.29 "/>
<polyline clip-path="url(#clip691)" style="stroke:#000000; stroke-linecap:round; stroke-linejoin:round; stroke-width:12; stroke-opacity:1; fill:none" points="1668.79,1295.24 1668.79,648.07 "/>
<polyline clip-path="url(#clip691)" style="stroke:#000000; stroke-linecap:round; stroke-linejoin:round; stroke-width:12; stroke-opacity:1; fill:none" points="1876.05,1343.7 1876.05,615.124 "/>
<polyline clip-path="url(#clip691)" style="stroke:#000000; stroke-linecap:round; stroke-linejoin:round; stroke-width:12; stroke-opacity:1; fill:none" points="2083.31,1326.85 2083.31,513.956 "/>
<polyline clip-path="url(#clip691)" style="stroke:#000000; stroke-linecap:round; stroke-linejoin:round; stroke-width:12; stroke-opacity:1; fill:none" points="2290.58,1276.98 2290.58,192.675 "/>
<line clip-path="url(#clip691)" x1="233.944" y1="1366.89" x2="201.944" y2="1366.89" style="stroke:#000000; stroke-width:12; stroke-opacity:1"/>
<line clip-path="url(#clip691)" x1="233.944" y1="1366.89" x2="201.944" y2="1366.89" style="stroke:#000000; stroke-width:12; stroke-opacity:1"/>
<line clip-path="url(#clip691)" x1="441.207" y1="1420.4" x2="409.207" y2="1420.4" style="stroke:#000000; stroke-width:12; stroke-opacity:1"/>
<line clip-path="url(#clip691)" x1="441.207" y1="1253.37" x2="409.207" y2="1253.37" style="stroke:#000000; stroke-width:12; stroke-opacity:1"/>
<line clip-path="url(#clip691)" x1="648.47" y1="1422.81" x2="616.47" y2="1422.81" style="stroke:#000000; stroke-width:12; stroke-opacity:1"/>
<line clip-path="url(#clip691)" x1="648.47" y1="1173.14" x2="616.47" y2="1173.14" style="stroke:#000000; stroke-width:12; stroke-opacity:1"/>
<line clip-path="url(#clip691)" x1="855.734" y1="1408.88" x2="823.734" y2="1408.88" style="stroke:#000000; stroke-width:12; stroke-opacity:1"/>
<line clip-path="url(#clip691)" x1="855.734" y1="1110.03" x2="823.734" y2="1110.03" style="stroke:#000000; stroke-width:12; stroke-opacity:1"/>
<line clip-path="url(#clip691)" x1="1063" y1="1404.17" x2="1031" y2="1404.17" style="stroke:#000000; stroke-width:12; stroke-opacity:1"/>
<line clip-path="url(#clip691)" x1="1063" y1="1030.46" x2="1031" y2="1030.46" style="stroke:#000000; stroke-width:12; stroke-opacity:1"/>
<line clip-path="url(#clip691)" x1="1270.26" y1="1375.87" x2="1238.26" y2="1375.87" style="stroke:#000000; stroke-width:12; stroke-opacity:1"/>
<line clip-path="url(#clip691)" x1="1270.26" y1="812.392" x2="1238.26" y2="812.392" style="stroke:#000000; stroke-width:12; stroke-opacity:1"/>
<line clip-path="url(#clip691)" x1="1477.52" y1="1352.09" x2="1445.52" y2="1352.09" style="stroke:#000000; stroke-width:12; stroke-opacity:1"/>
<line clip-path="url(#clip691)" x1="1477.52" y1="757.29" x2="1445.52" y2="757.29" style="stroke:#000000; stroke-width:12; stroke-opacity:1"/>
<line clip-path="url(#clip691)" x1="1684.79" y1="1295.24" x2="1652.79" y2="1295.24" style="stroke:#000000; stroke-width:12; stroke-opacity:1"/>
<line clip-path="url(#clip691)" x1="1684.79" y1="648.07" x2="1652.79" y2="648.07" style="stroke:#000000; stroke-width:12; stroke-opacity:1"/>
<line clip-path="url(#clip691)" x1="1892.05" y1="1343.7" x2="1860.05" y2="1343.7" style="stroke:#000000; stroke-width:12; stroke-opacity:1"/>
<line clip-path="url(#clip691)" x1="1892.05" y1="615.124" x2="1860.05" y2="615.124" style="stroke:#000000; stroke-width:12; stroke-opacity:1"/>
<line clip-path="url(#clip691)" x1="2099.31" y1="1326.85" x2="2067.31" y2="1326.85" style="stroke:#000000; stroke-width:12; stroke-opacity:1"/>
<line clip-path="url(#clip691)" x1="2099.31" y1="513.956" x2="2067.31" y2="513.956" style="stroke:#000000; stroke-width:12; stroke-opacity:1"/>
<line clip-path="url(#clip691)" x1="2306.58" y1="1276.98" x2="2274.58" y2="1276.98" style="stroke:#000000; stroke-width:12; stroke-opacity:1"/>
<line clip-path="url(#clip691)" x1="2306.58" y1="192.675" x2="2274.58" y2="192.675" style="stroke:#000000; stroke-width:12; stroke-opacity:1"/>
</svg>
