<?xml version="1.0" encoding="utf-8"?>
<svg xmlns="http://www.w3.org/2000/svg" xmlns:xlink="http://www.w3.org/1999/xlink" width="600" height="400" viewBox="0 0 2400 1600">
<defs>
  <clipPath id="clip720">
    <rect x="0" y="0" width="2400" height="1600"/>
  </clipPath>
</defs>
<path clip-path="url(#clip720)" d="M0 1600 L2400 1600 L2400 0 L0 0  Z" fill="#ffffff" fill-rule="evenodd" fill-opacity="1"/>
<defs>
  <clipPath id="clip721">
    <rect x="184" y="47" width="2170" height="1440"/>
  </clipPath>
</defs>
<path clip-path="url(#clip720)" d="M184.191 1486.45 L2352.76 1486.45 L2352.76 47.2441 L184.191 47.2441  Z" fill="#ffffff" fill-rule="evenodd" fill-opacity="1"/>
<polyline clip-path="url(#clip721)" style="stroke:#000000; stroke-linecap:round; stroke-linejoin:round; stroke-width:2; stroke-opacity:0.1; fill:none" points="245.565,1486.45 245.565,47.2441 "/>
<polyline clip-path="url(#clip721)" style="stroke:#000000; stroke-linecap:round; stroke-linejoin:round; stroke-width:2; stroke-opacity:0.1; fill:none" points="757.019,1486.45 757.019,47.2441 "/>
<polyline clip-path="url(#clip721)" style="stroke:#000000; stroke-linecap:round; stroke-linejoin:round; stroke-width:2; stroke-opacity:0.1; fill:none" points="1268.47,1486.45 1268.47,47.2441 "/>
<polyline clip-path="url(#clip721)" style="stroke:#000000; stroke-linecap:round; stroke-linejoin:round; stroke-width:2; stroke-opacity:0.1; fill:none" points="1779.93,1486.45 1779.93,47.2441 "/>
<polyline clip-path="url(#clip721)" style="stroke:#000000; stroke-linecap:round; stroke-linejoin:round; stroke-width:2; stroke-opacity:0.1; fill:none" points="2291.38,1486.45 2291.38,47.2441 "/>
<polyline clip-path="url(#clip721)" style="stroke:#000000; stroke-linecap:round; stroke-linejoin:round; stroke-width:2; stroke-opacity:0.1; fill:none" points="184.191,1449.57 2352.76,1449.57 "/>
<polyline clip-path="url(#clip721)" style="stroke:#000000; stroke-linecap:round; stroke-linejoin:round; stroke-width:2; stroke-opacity:0.1; fill:none" points="184.191,1132.84 2352.76,1132.84 "/>
<polyline clip-path="url(#clip721)" style="stroke:#000000; stroke-linecap:round; stroke-linejoin:round; stroke-width:2; stroke-opacity:0.1; fill:none" points="184.191,816.11 2352.76,816.11 "/>
<polyline clip-path="url(#clip721)" style="stroke:#000000; stroke-linecap:round; stroke-linejoin:round; stroke-width:2; stroke-opacity:0.1; fill:none" points="184.191,499.38 2352.76,499.38 "/>
<polyline clip-path="url(#clip721)" style="stroke:#000000; stroke-linecap:round; stroke-linejoin:round; stroke-width:2; stroke-opacity:0.1; fill:none" points="184.191,182.649 2352.76,182.649 "/>
<polyline clip-path="url(#clip720)" style="stroke:#000000; stroke-linecap:round; stroke-linejoin:round; stroke-width:4; stroke-opacity:1; fill:none" points="184.191,1486.45 2352.76,1486.45 "/>
<polyline clip-path="url(#clip720)" style="stroke:#000000; stroke-linecap:round; stroke-linejoin:round; stroke-width:4; stroke-opacity:1; fill:none" points="245.565,1486.45 245.565,1467.55 "/>
<polyline clip-path="url(#clip720)" style="stroke:#000000; stroke-linecap:round; stroke-linejoin:round; stroke-width:4; stroke-opacity:1; fill:none" points="757.019,1486.45 757.019,1467.55 "/>
<polyline clip-path="url(#clip720)" style="stroke:#000000; stroke-linecap:round; stroke-linejoin:round; stroke-width:4; stroke-opacity:1; fill:none" points="1268.47,1486.45 1268.47,1467.55 "/>
<polyline clip-path="url(#clip720)" style="stroke:#000000; stroke-linecap:round; stroke-linejoin:round; stroke-width:4; stroke-opacity:1; fill:none" points="1779.93,1486.45 1779.93,1467.55 "/>
<polyline clip-path="url(#clip720)" style="stroke:#000000; stroke-linecap:round; stroke-linejoin:round; stroke-width:4; stroke-opacity:1; fill:none" points="2291.38,1486.45 2291.38,1467.55 "/>
<path clip-path="url(#clip720)" d="M222.95 1517.37 Q219.338 1517.37 217.51 1520.93 Q215.704 1524.47 215.704 1531.6 Q215.704 1538.71 217.51 1542.27 Q219.338 1545.82 222.95 1545.82 Q226.584 1545.82 228.389 1542.27 Q230.218 1538.71 230.218 1531.6 Q230.218 1524.47 228.389 1520.93 Q226.584 1517.37 222.95 1517.37 M222.95 1513.66 Q228.76 1513.66 231.815 1518.27 Q234.894 1522.85 234.894 1531.6 Q234.894 1540.33 231.815 1544.94 Q228.76 1549.52 222.95 1549.52 Q217.139 1549.52 214.061 1544.94 Q211.005 1540.33 211.005 1531.6 Q211.005 1522.85 214.061 1518.27 Q217.139 1513.66 222.95 1513.66 Z" fill="#000000" fill-rule="nonzero" fill-opacity="1" /><path clip-path="url(#clip720)" d="M243.111 1542.97 L247.996 1542.97 L247.996 1548.85 L243.111 1548.85 L243.111 1542.97 Z" fill="#000000" fill-rule="nonzero" fill-opacity="1" /><path clip-path="url(#clip720)" d="M268.181 1517.37 Q264.57 1517.37 262.741 1520.93 Q260.935 1524.47 260.935 1531.6 Q260.935 1538.71 262.741 1542.27 Q264.57 1545.82 268.181 1545.82 Q271.815 1545.82 273.621 1542.27 Q275.449 1538.71 275.449 1531.6 Q275.449 1524.47 273.621 1520.93 Q271.815 1517.37 268.181 1517.37 M268.181 1513.66 Q273.991 1513.66 277.046 1518.27 Q280.125 1522.85 280.125 1531.6 Q280.125 1540.33 277.046 1544.94 Q273.991 1549.52 268.181 1549.52 Q262.371 1549.52 259.292 1544.94 Q256.236 1540.33 256.236 1531.6 Q256.236 1522.85 259.292 1518.27 Q262.371 1513.66 268.181 1513.66 Z" fill="#000000" fill-rule="nonzero" fill-opacity="1" /><path clip-path="url(#clip720)" d="M728.755 1544.91 L745.075 1544.91 L745.075 1548.85 L723.131 1548.85 L723.131 1544.91 Q725.793 1542.16 730.376 1537.53 Q734.982 1532.88 736.163 1531.53 Q738.408 1529.01 739.288 1527.27 Q740.191 1525.51 740.191 1523.82 Q740.191 1521.07 738.246 1519.33 Q736.325 1517.6 733.223 1517.6 Q731.024 1517.6 728.57 1518.36 Q726.14 1519.13 723.362 1520.68 L723.362 1515.95 Q726.186 1514.82 728.64 1514.24 Q731.093 1513.66 733.13 1513.66 Q738.501 1513.66 741.695 1516.35 Q744.89 1519.03 744.89 1523.52 Q744.89 1525.65 744.079 1527.57 Q743.292 1529.47 741.186 1532.07 Q740.607 1532.74 737.505 1535.95 Q734.404 1539.15 728.755 1544.91 Z" fill="#000000" fill-rule="nonzero" fill-opacity="1" /><path clip-path="url(#clip720)" d="M754.89 1542.97 L759.774 1542.97 L759.774 1548.85 L754.89 1548.85 L754.89 1542.97 Z" fill="#000000" fill-rule="nonzero" fill-opacity="1" /><path clip-path="url(#clip720)" d="M770.005 1514.29 L788.362 1514.29 L788.362 1518.22 L774.288 1518.22 L774.288 1526.7 Q775.306 1526.35 776.325 1526.19 Q777.343 1526 778.362 1526 Q784.149 1526 787.528 1529.17 Q790.908 1532.34 790.908 1537.76 Q790.908 1543.34 787.436 1546.44 Q783.964 1549.52 777.644 1549.52 Q775.468 1549.52 773.2 1549.15 Q770.954 1548.78 768.547 1548.04 L768.547 1543.34 Q770.63 1544.47 772.852 1545.03 Q775.075 1545.58 777.552 1545.58 Q781.556 1545.58 783.894 1543.48 Q786.232 1541.37 786.232 1537.76 Q786.232 1534.15 783.894 1532.04 Q781.556 1529.94 777.552 1529.94 Q775.677 1529.94 773.802 1530.35 Q771.95 1530.77 770.005 1531.65 L770.005 1514.29 Z" fill="#000000" fill-rule="nonzero" fill-opacity="1" /><path clip-path="url(#clip720)" d="M1235.64 1514.29 L1253.99 1514.29 L1253.99 1518.22 L1239.92 1518.22 L1239.92 1526.7 Q1240.94 1526.35 1241.96 1526.19 Q1242.98 1526 1243.99 1526 Q1249.78 1526 1253.16 1529.17 Q1256.54 1532.34 1256.54 1537.76 Q1256.54 1543.34 1253.07 1546.44 Q1249.6 1549.52 1243.28 1549.52 Q1241.1 1549.52 1238.83 1549.15 Q1236.59 1548.78 1234.18 1548.04 L1234.18 1543.34 Q1236.26 1544.47 1238.49 1545.03 Q1240.71 1545.58 1243.18 1545.58 Q1247.19 1545.58 1249.53 1543.48 Q1251.86 1541.37 1251.86 1537.76 Q1251.86 1534.15 1249.53 1532.04 Q1247.19 1529.94 1243.18 1529.94 Q1241.31 1529.94 1239.43 1530.35 Q1237.58 1530.77 1235.64 1531.65 L1235.64 1514.29 Z" fill="#000000" fill-rule="nonzero" fill-opacity="1" /><path clip-path="url(#clip720)" d="M1265.75 1542.97 L1270.64 1542.97 L1270.64 1548.85 L1265.75 1548.85 L1265.75 1542.97 Z" fill="#000000" fill-rule="nonzero" fill-opacity="1" /><path clip-path="url(#clip720)" d="M1290.82 1517.37 Q1287.21 1517.37 1285.38 1520.93 Q1283.58 1524.47 1283.58 1531.6 Q1283.58 1538.71 1285.38 1542.27 Q1287.21 1545.82 1290.82 1545.82 Q1294.46 1545.82 1296.26 1542.27 Q1298.09 1538.71 1298.09 1531.6 Q1298.09 1524.47 1296.26 1520.93 Q1294.46 1517.37 1290.82 1517.37 M1290.82 1513.66 Q1296.63 1513.66 1299.69 1518.27 Q1302.77 1522.85 1302.77 1531.6 Q1302.77 1540.33 1299.69 1544.94 Q1296.63 1549.52 1290.82 1549.52 Q1285.01 1549.52 1281.93 1544.94 Q1278.88 1540.33 1278.88 1531.6 Q1278.88 1522.85 1281.93 1518.27 Q1285.01 1513.66 1290.82 1513.66 Z" fill="#000000" fill-rule="nonzero" fill-opacity="1" /><path clip-path="url(#clip720)" d="M1746.25 1514.29 L1768.47 1514.29 L1768.47 1516.28 L1755.92 1548.85 L1751.04 1548.85 L1762.84 1518.22 L1746.25 1518.22 L1746.25 1514.29 Z" fill="#000000" fill-rule="nonzero" fill-opacity="1" /><path clip-path="url(#clip720)" d="M1777.59 1542.97 L1782.47 1542.97 L1782.47 1548.85 L1777.59 1548.85 L1777.59 1542.97 Z" fill="#000000" fill-rule="nonzero" fill-opacity="1" /><path clip-path="url(#clip720)" d="M1792.71 1514.29 L1811.06 1514.29 L1811.06 1518.22 L1796.99 1518.22 L1796.99 1526.7 Q1798.01 1526.35 1799.02 1526.19 Q1800.04 1526 1801.06 1526 Q1806.85 1526 1810.23 1529.17 Q1813.61 1532.34 1813.61 1537.76 Q1813.61 1543.34 1810.14 1546.44 Q1806.66 1549.52 1800.34 1549.52 Q1798.17 1549.52 1795.9 1549.15 Q1793.65 1548.78 1791.25 1548.04 L1791.25 1543.34 Q1793.33 1544.47 1795.55 1545.03 Q1797.77 1545.58 1800.25 1545.58 Q1804.26 1545.58 1806.59 1543.48 Q1808.93 1541.37 1808.93 1537.76 Q1808.93 1534.15 1806.59 1532.04 Q1804.26 1529.94 1800.25 1529.94 Q1798.38 1529.94 1796.5 1530.35 Q1794.65 1530.77 1792.71 1531.65 L1792.71 1514.29 Z" fill="#000000" fill-rule="nonzero" fill-opacity="1" /><path clip-path="url(#clip720)" d="M2243.45 1544.91 L2251.09 1544.91 L2251.09 1518.55 L2242.78 1520.21 L2242.78 1515.95 L2251.05 1514.29 L2255.72 1514.29 L2255.72 1544.91 L2263.36 1544.91 L2263.36 1548.85 L2243.45 1548.85 L2243.45 1544.91 Z" fill="#000000" fill-rule="nonzero" fill-opacity="1" /><path clip-path="url(#clip720)" d="M2282.81 1517.37 Q2279.19 1517.37 2277.37 1520.93 Q2275.56 1524.47 2275.56 1531.6 Q2275.56 1538.71 2277.37 1542.27 Q2279.19 1545.82 2282.81 1545.82 Q2286.44 1545.82 2288.24 1542.27 Q2290.07 1538.71 2290.07 1531.6 Q2290.07 1524.47 2288.24 1520.93 Q2286.44 1517.37 2282.81 1517.37 M2282.81 1513.66 Q2288.62 1513.66 2291.67 1518.27 Q2294.75 1522.85 2294.75 1531.6 Q2294.75 1540.33 2291.67 1544.94 Q2288.62 1549.52 2282.81 1549.52 Q2276.99 1549.52 2273.92 1544.94 Q2270.86 1540.33 2270.86 1531.6 Q2270.86 1522.85 2273.92 1518.27 Q2276.99 1513.66 2282.81 1513.66 Z" fill="#000000" fill-rule="nonzero" fill-opacity="1" /><path clip-path="url(#clip720)" d="M2302.97 1542.97 L2307.85 1542.97 L2307.85 1548.85 L2302.97 1548.85 L2302.97 1542.97 Z" fill="#000000" fill-rule="nonzero" fill-opacity="1" /><path clip-path="url(#clip720)" d="M2328.04 1517.37 Q2324.43 1517.37 2322.6 1520.93 Q2320.79 1524.47 2320.79 1531.6 Q2320.79 1538.71 2322.6 1542.27 Q2324.43 1545.82 2328.04 1545.82 Q2331.67 1545.82 2333.48 1542.27 Q2335.3 1538.71 2335.3 1531.6 Q2335.3 1524.47 2333.48 1520.93 Q2331.67 1517.37 2328.04 1517.37 M2328.04 1513.66 Q2333.85 1513.66 2336.9 1518.27 Q2339.98 1522.85 2339.98 1531.6 Q2339.98 1540.33 2336.9 1544.94 Q2333.85 1549.52 2328.04 1549.52 Q2322.23 1549.52 2319.15 1544.94 Q2316.09 1540.33 2316.09 1531.6 Q2316.09 1522.85 2319.15 1518.27 Q2322.23 1513.66 2328.04 1513.66 Z" fill="#000000" fill-rule="nonzero" fill-opacity="1" /><polyline clip-path="url(#clip720)" style="stroke:#000000; stroke-linecap:round; stroke-linejoin:round; stroke-width:4; stroke-opacity:1; fill:none" points="184.191,1486.45 184.191,47.2441 "/>
<polyline clip-path="url(#clip720)" style="stroke:#000000; stroke-linecap:round; stroke-linejoin:round; stroke-width:4; stroke-opacity:1; fill:none" points="184.191,1449.57 203.088,1449.57 "/>
<polyline clip-path="url(#clip720)" style="stroke:#000000; stroke-linecap:round; stroke-linejoin:round; stroke-width:4; stroke-opacity:1; fill:none" points="184.191,1132.84 203.088,1132.84 "/>
<polyline clip-path="url(#clip720)" style="stroke:#000000; stroke-linecap:round; stroke-linejoin:round; stroke-width:4; stroke-opacity:1; fill:none" points="184.191,816.11 203.088,816.11 "/>
<polyline clip-path="url(#clip720)" style="stroke:#000000; stroke-linecap:round; stroke-linejoin:round; stroke-width:4; stroke-opacity:1; fill:none" points="184.191,499.38 203.088,499.38 "/>
<polyline clip-path="url(#clip720)" style="stroke:#000000; stroke-linecap:round; stroke-linejoin:round; stroke-width:4; stroke-opacity:1; fill:none" points="184.191,182.649 203.088,182.649 "/>
<path clip-path="url(#clip720)" d="M91.0151 1435.37 Q87.404 1435.37 85.5753 1438.93 Q83.7697 1442.48 83.7697 1449.6 Q83.7697 1456.71 85.5753 1460.28 Q87.404 1463.82 91.0151 1463.82 Q94.6493 1463.82 96.4548 1460.28 Q98.2835 1456.71 98.2835 1449.6 Q98.2835 1442.48 96.4548 1438.93 Q94.6493 1435.37 91.0151 1435.37 M91.0151 1431.66 Q96.8252 1431.66 99.8808 1436.27 Q102.959 1440.85 102.959 1449.6 Q102.959 1458.33 99.8808 1462.94 Q96.8252 1467.52 91.0151 1467.52 Q85.2049 1467.52 82.1262 1462.94 Q79.0707 1458.33 79.0707 1449.6 Q79.0707 1440.85 82.1262 1436.27 Q85.2049 1431.66 91.0151 1431.66 Z" fill="#000000" fill-rule="nonzero" fill-opacity="1" /><path clip-path="url(#clip720)" d="M111.177 1460.97 L116.061 1460.97 L116.061 1466.85 L111.177 1466.85 L111.177 1460.97 Z" fill="#000000" fill-rule="nonzero" fill-opacity="1" /><path clip-path="url(#clip720)" d="M136.246 1435.37 Q132.635 1435.37 130.807 1438.93 Q129.001 1442.48 129.001 1449.6 Q129.001 1456.71 130.807 1460.28 Q132.635 1463.82 136.246 1463.82 Q139.881 1463.82 141.686 1460.28 Q143.515 1456.71 143.515 1449.6 Q143.515 1442.48 141.686 1438.93 Q139.881 1435.37 136.246 1435.37 M136.246 1431.66 Q142.056 1431.66 145.112 1436.27 Q148.191 1440.85 148.191 1449.6 Q148.191 1458.33 145.112 1462.94 Q142.056 1467.52 136.246 1467.52 Q130.436 1467.52 127.357 1462.94 Q124.302 1458.33 124.302 1449.6 Q124.302 1440.85 127.357 1436.27 Q130.436 1431.66 136.246 1431.66 Z" fill="#000000" fill-rule="nonzero" fill-opacity="1" /><path clip-path="url(#clip720)" d="M86.0382 1146.18 L102.358 1146.18 L102.358 1150.12 L80.4133 1150.12 L80.4133 1146.18 Q83.0753 1143.43 87.6586 1138.8 Q92.2651 1134.15 93.4456 1132.81 Q95.691 1130.28 96.5706 1128.55 Q97.4734 1126.79 97.4734 1125.1 Q97.4734 1122.34 95.5289 1120.61 Q93.6076 1118.87 90.5058 1118.87 Q88.3067 1118.87 85.8531 1119.63 Q83.4225 1120.4 80.6447 1121.95 L80.6447 1117.23 Q83.4688 1116.09 85.9225 1115.51 Q88.3762 1114.93 90.4132 1114.93 Q95.7836 1114.93 98.978 1117.62 Q102.172 1120.31 102.172 1124.8 Q102.172 1126.93 101.362 1128.85 Q100.575 1130.74 98.4687 1133.34 Q97.89 1134.01 94.7882 1137.23 Q91.6864 1140.42 86.0382 1146.18 Z" fill="#000000" fill-rule="nonzero" fill-opacity="1" /><path clip-path="url(#clip720)" d="M112.172 1144.24 L117.057 1144.24 L117.057 1150.12 L112.172 1150.12 L112.172 1144.24 Z" fill="#000000" fill-rule="nonzero" fill-opacity="1" /><path clip-path="url(#clip720)" d="M127.288 1115.56 L145.644 1115.56 L145.644 1119.49 L131.57 1119.49 L131.57 1127.97 Q132.589 1127.62 133.607 1127.46 Q134.626 1127.27 135.644 1127.27 Q141.431 1127.27 144.811 1130.44 Q148.191 1133.62 148.191 1139.03 Q148.191 1144.61 144.718 1147.71 Q141.246 1150.79 134.927 1150.79 Q132.751 1150.79 130.482 1150.42 Q128.237 1150.05 125.83 1149.31 L125.83 1144.61 Q127.913 1145.74 130.135 1146.3 Q132.357 1146.86 134.834 1146.86 Q138.839 1146.86 141.177 1144.75 Q143.515 1142.64 143.515 1139.03 Q143.515 1135.42 141.177 1133.31 Q138.839 1131.21 134.834 1131.21 Q132.959 1131.21 131.084 1131.62 Q129.232 1132.04 127.288 1132.92 L127.288 1115.56 Z" fill="#000000" fill-rule="nonzero" fill-opacity="1" /><path clip-path="url(#clip720)" d="M81.0614 798.83 L99.4178 798.83 L99.4178 802.765 L85.3438 802.765 L85.3438 811.237 Q86.3623 810.89 87.3808 810.728 Q88.3993 810.543 89.4178 810.543 Q95.2049 810.543 98.5845 813.714 Q101.964 816.885 101.964 822.302 Q101.964 827.88 98.4919 830.982 Q95.0197 834.061 88.7003 834.061 Q86.5243 834.061 84.2558 833.691 Q82.0105 833.32 79.6031 832.579 L79.6031 827.88 Q81.6864 829.015 83.9086 829.57 Q86.1308 830.126 88.6077 830.126 Q92.6123 830.126 94.9502 828.019 Q97.2882 825.913 97.2882 822.302 Q97.2882 818.691 94.9502 816.584 Q92.6123 814.478 88.6077 814.478 Q86.7327 814.478 84.8577 814.894 Q83.0058 815.311 81.0614 816.191 L81.0614 798.83 Z" fill="#000000" fill-rule="nonzero" fill-opacity="1" /><path clip-path="url(#clip720)" d="M111.177 827.51 L116.061 827.51 L116.061 833.39 L111.177 833.39 L111.177 827.51 Z" fill="#000000" fill-rule="nonzero" fill-opacity="1" /><path clip-path="url(#clip720)" d="M136.246 801.908 Q132.635 801.908 130.807 805.473 Q129.001 809.015 129.001 816.144 Q129.001 823.251 130.807 826.816 Q132.635 830.357 136.246 830.357 Q139.881 830.357 141.686 826.816 Q143.515 823.251 143.515 816.144 Q143.515 809.015 141.686 805.473 Q139.881 801.908 136.246 801.908 M136.246 798.205 Q142.056 798.205 145.112 802.811 Q148.191 807.394 148.191 816.144 Q148.191 824.871 145.112 829.478 Q142.056 834.061 136.246 834.061 Q130.436 834.061 127.357 829.478 Q124.302 824.871 124.302 816.144 Q124.302 807.394 127.357 802.811 Q130.436 798.205 136.246 798.205 Z" fill="#000000" fill-rule="nonzero" fill-opacity="1" /><path clip-path="url(#clip720)" d="M80.8299 482.1 L103.052 482.1 L103.052 484.09 L90.5058 516.66 L85.6216 516.66 L97.4271 486.035 L80.8299 486.035 L80.8299 482.1 Z" fill="#000000" fill-rule="nonzero" fill-opacity="1" /><path clip-path="url(#clip720)" d="M112.172 510.78 L117.057 510.78 L117.057 516.66 L112.172 516.66 L112.172 510.78 Z" fill="#000000" fill-rule="nonzero" fill-opacity="1" /><path clip-path="url(#clip720)" d="M127.288 482.1 L145.644 482.1 L145.644 486.035 L131.57 486.035 L131.57 494.507 Q132.589 494.16 133.607 493.998 Q134.626 493.812 135.644 493.812 Q141.431 493.812 144.811 496.984 Q148.191 500.155 148.191 505.572 Q148.191 511.15 144.718 514.252 Q141.246 517.331 134.927 517.331 Q132.751 517.331 130.482 516.96 Q128.237 516.59 125.83 515.849 L125.83 511.15 Q127.913 512.285 130.135 512.84 Q132.357 513.396 134.834 513.396 Q138.839 513.396 141.177 511.289 Q143.515 509.183 143.515 505.572 Q143.515 501.961 141.177 499.854 Q138.839 497.748 134.834 497.748 Q132.959 497.748 131.084 498.164 Q129.232 498.581 127.288 499.461 L127.288 482.1 Z" fill="#000000" fill-rule="nonzero" fill-opacity="1" /><path clip-path="url(#clip720)" d="M51.6634 195.994 L59.3023 195.994 L59.3023 169.629 L50.9921 171.295 L50.9921 167.036 L59.256 165.369 L63.9319 165.369 L63.9319 195.994 L71.5707 195.994 L71.5707 199.929 L51.6634 199.929 L51.6634 195.994 Z" fill="#000000" fill-rule="nonzero" fill-opacity="1" /><path clip-path="url(#clip720)" d="M91.0151 168.448 Q87.404 168.448 85.5753 172.013 Q83.7697 175.555 83.7697 182.684 Q83.7697 189.791 85.5753 193.355 Q87.404 196.897 91.0151 196.897 Q94.6493 196.897 96.4548 193.355 Q98.2835 189.791 98.2835 182.684 Q98.2835 175.555 96.4548 172.013 Q94.6493 168.448 91.0151 168.448 M91.0151 164.744 Q96.8252 164.744 99.8808 169.351 Q102.959 173.934 102.959 182.684 Q102.959 191.411 99.8808 196.017 Q96.8252 200.601 91.0151 200.601 Q85.2049 200.601 82.1262 196.017 Q79.0707 191.411 79.0707 182.684 Q79.0707 173.934 82.1262 169.351 Q85.2049 164.744 91.0151 164.744 Z" fill="#000000" fill-rule="nonzero" fill-opacity="1" /><path clip-path="url(#clip720)" d="M111.177 194.05 L116.061 194.05 L116.061 199.929 L111.177 199.929 L111.177 194.05 Z" fill="#000000" fill-rule="nonzero" fill-opacity="1" /><path clip-path="url(#clip720)" d="M136.246 168.448 Q132.635 168.448 130.807 172.013 Q129.001 175.555 129.001 182.684 Q129.001 189.791 130.807 193.355 Q132.635 196.897 136.246 196.897 Q139.881 196.897 141.686 193.355 Q143.515 189.791 143.515 182.684 Q143.515 175.555 141.686 172.013 Q139.881 168.448 136.246 168.448 M136.246 164.744 Q142.056 164.744 145.112 169.351 Q148.191 173.934 148.191 182.684 Q148.191 191.411 145.112 196.017 Q142.056 200.601 136.246 200.601 Q130.436 200.601 127.357 196.017 Q124.302 191.411 124.302 182.684 Q124.302 173.934 127.357 169.351 Q130.436 164.744 136.246 164.744 Z" fill="#000000" fill-rule="nonzero" fill-opacity="1" /><path clip-path="url(#clip721)" d="M245.565 1322.88 L266.023 1320.3 L286.481 1305.73 L306.94 1297.51 L327.398 1286.85 L347.856 1269.08 L368.314 1251.22 L388.772 1233.87 L409.23 1217.41 L429.689 1190.11 L450.147 1150.92 L470.605 1115.88 L491.063 1062.07 L511.521 1026.33 L531.979 965.241 L552.438 894.984 L572.896 855.156 L593.354 758.773 L613.812 677.417 L634.27 738.711 L654.728 889.402 L675.187 1078.7 L695.645 1191.75 L716.103 1259.39 L736.561 1303.7 L757.019 1339.31 L777.477 1345.28 L797.936 1357.58 L818.394 1367.21 L838.852 1366.81 L859.31 1367.71 L879.768 1368.31 L900.226 1364.33 L920.685 1366.43 L941.143 1357.87 L961.601 1346.85 L982.059 1336.72 L1002.52 1324.21 L1022.98 1310.94 L1043.43 1291.88 L1063.89 1264.68 L1084.35 1241.29 L1104.81 1232.34 L1125.27 1209.15 L1145.72 1165.76 L1166.18 1137.58 L1186.64 1113.23 L1207.1 1083.29 L1227.56 1058.91 L1248.02 1032.88 L1268.47 987.24 L1288.93 949.687 L1309.39 913.661 L1329.85 937.038 L1350.31 1008.15 L1370.76 1150.84 L1391.22 1222.49 L1411.68 1272.21 L1432.14 1307.92 L1452.6 1338.55 L1473.05 1364.41 L1493.51 1379.82 L1513.97 1389.84 L1534.43 1397.43 L1554.89 1402.97 L1575.35 1404.83 L1595.8 1406.29 L1616.26 1405.84 L1636.72 1406.93 L1657.18 1404.6 L1677.64 1402.02 L1698.09 1395.9 L1718.55 1389.33 L1739.01 1387.03 L1759.47 1379.53 L1779.93 1373.4 L1800.39 1364.31 L1820.84 1353.84 L1841.3 1348.58 L1861.76 1343.54 L1882.22 1332.67 L1902.68 1318.79 L1923.13 1299.91 L1943.59 1274.49 L1964.05 1235.45 L1984.51 1196.53 L2004.97 1168.39 L2025.43 1129.31 L2045.88 1126.09 L2066.34 1170.54 L2086.8 1214.89 L2107.26 1252.83 L2127.72 1273.69 L2148.17 1288.68 L2168.63 1297.2 L2189.09 1319.32 L2209.55 1339.44 L2230.01 1351.43 L2250.47 1355.47 L2270.92 1365.55 L2291.38 1365.49 L2291.38 460.716 L2270.92 159.377 L2250.47 87.9763 L2230.01 185.694 L2209.55 344.969 L2189.09 328.93 L2168.63 361.911 L2148.17 435.042 L2127.72 550.749 L2107.26 601.107 L2086.8 485.777 L2066.34 251.192 L2045.88 287.474 L2025.43 335.419 L2004.97 389.867 L1984.51 520.64 L1964.05 582.454 L1943.59 648.394 L1923.13 698.257 L1902.68 740.599 L1882.22 781.545 L1861.76 842.563 L1841.3 903.111 L1820.84 963.389 L1800.39 1025.85 L1779.93 1057.8 L1759.47 1088.11 L1739.01 1132.45 L1718.55 1172.78 L1698.09 1192.94 L1677.64 1217.52 L1657.18 1227.49 L1636.72 1240.26 L1616.26 1243.86 L1595.8 1241.51 L1575.35 1234.38 L1554.89 1217.35 L1534.43 1183.02 L1513.97 1092.58 L1493.51 911.035 L1473.05 646.922 L1452.6 489.187 L1432.14 454.165 L1411.68 469.429 L1391.22 481.038 L1370.76 521.861 L1350.31 534.491 L1329.85 503.296 L1309.39 354.253 L1288.93 204.067 L1268.47 338.274 L1248.02 515.007 L1227.56 551.299 L1207.1 644.52 L1186.64 737.01 L1166.18 830.737 L1145.72 937.081 L1125.27 963.906 L1104.81 1049.07 L1084.35 1079.79 L1063.89 1109.79 L1043.43 1163.87 L1022.98 1182.98 L1002.52 1200.71 L982.059 1219.72 L961.601 1228.02 L941.143 1244.34 L920.685 1253.67 L900.226 1260.7 L879.768 1260.88 L859.31 1254.42 L838.852 1244.8 L818.394 1221.81 L797.936 1174.04 L777.477 1098.82 L757.019 967.572 L736.561 818.318 L716.103 666.202 L695.645 557.678 L675.187 526.596 L654.728 541.335 L634.27 503.813 L613.812 463.866 L593.354 366.861 L572.896 445.951 L552.438 551.794 L531.979 694.233 L511.521 843.773 L491.063 941.777 L470.605 999.153 L450.147 1051.23 L429.689 1088.12 L409.23 1130.89 L388.772 1186.33 L368.314 1212.41 L347.856 1219.61 L327.398 1222.06 L306.94 1242.96 L286.481 1274.58 L266.023 1295.02 L245.565 1322.88  Z" fill="#009af9" fill-rule="evenodd" fill-opacity="0.5"/>
<polyline clip-path="url(#clip721)" style="stroke:#009af9; stroke-linecap:round; stroke-linejoin:round; stroke-width:12; stroke-opacity:1; fill:none" points="245.565,1322.88 266.023,1313.56 286.481,1296.73 306.94,1290.95 327.398,1274.12 347.856,1250.21 368.314,1235.02 388.772,1210.63 409.23,1177.22 429.689,1136.66 450.147,1091.13 470.605,1036.28 491.063,980.617 511.521,915.831 531.979,875.488 552.438,809.447 572.896,734.737 593.354,671.783 613.812,628.473 634.27,631.227 654.728,673.807 675.187,770.514 695.645,918.807 716.103,1044.78 736.561,1155.87 757.019,1222.56 777.477,1271.2 797.936,1286.63 818.394,1310.22 838.852,1315.22 859.31,1319.05 879.768,1316.27 900.226,1315.28 920.685,1312.51 941.143,1305.7 961.601,1294.25 982.059,1278.59 1002.52,1263.47 1022.98,1250.27 1043.43,1231.13 1063.89,1208.19 1084.35,1175.57 1104.81,1135.47 1125.27,1098.68 1145.72,1051.82 1166.18,1009.67 1186.64,957.771 1207.1,901.674 1227.56,817.947 1248.02,732.019 1268.47,715.597 1288.93,677.228 1309.39,650.281 1329.85,661.812 1350.31,712.235 1370.76,838.548 1391.22,903.661 1411.68,1029.18 1432.14,1127.82 1452.6,1201.84 1473.05,1240.62 1493.51,1269.53 1513.97,1288.89 1534.43,1301.96 1554.89,1329.59 1575.35,1327.33 1595.8,1324.82 1616.26,1324.66 1636.72,1316.22 1657.18,1305.42 1677.64,1298.2 1698.09,1277.87 1718.55,1269.84 1739.01,1255.82 1759.47,1245.21 1779.93,1222.02 1800.39,1193.29 1820.84,1149.66 1841.3,1124.7 1861.76,1048.05 1882.22,1005.75 1902.68,898.288 1923.13,790.655 1943.59,798.478 1964.05,789.89 1984.51,794.165 2004.97,853.17 2025.43,917.709 2045.88,950.644 2066.34,942.532 2086.8,958.009 2107.26,970.694 2127.72,1098.29 2148.17,1219.08 2168.63,1241.82 2189.09,1275.45 2209.55,1279.16 2230.01,1276.53 2250.47,1266.32 2270.92,1261.86 2291.38,1239.43 "/>
<path clip-path="url(#clip721)" d="M245.565 1322.88 L266.023 1359.97 L286.481 1374.72 L306.94 1387.14 L327.398 1398.55 L347.856 1406.66 L368.314 1411.49 L388.772 1413.56 L409.23 1417.79 L429.689 1420.69 L450.147 1421.69 L470.605 1423.54 L491.063 1424.2 L511.521 1424.5 L531.979 1423.07 L552.438 1419.91 L572.896 1415.16 L593.354 1407.09 L613.812 1391.23 L634.27 1365.21 L654.728 1325.08 L675.187 1277.48 L695.645 1184.96 L716.103 1093.25 L736.561 1024.02 L757.019 1057.89 L777.477 1143.5 L797.936 1198.54 L818.394 1242.91 L838.852 1284.71 L859.31 1321.91 L879.768 1347.06 L900.226 1363.79 L920.685 1380.08 L941.143 1391.46 L961.601 1400.88 L982.059 1409.15 L1002.52 1414.73 L1022.98 1419.95 L1043.43 1426.36 L1063.89 1430.13 L1084.35 1433.2 L1104.81 1435.63 L1125.27 1435.98 L1145.72 1436.81 L1166.18 1436.84 L1186.64 1435.53 L1207.1 1432.95 L1227.56 1426.33 L1248.02 1419.47 L1268.47 1412.99 L1288.93 1411.07 L1309.39 1407.13 L1329.85 1400.82 L1350.31 1396.04 L1370.76 1380.01 L1391.22 1350.62 L1411.68 1301.38 L1432.14 1207.86 L1452.6 1125.31 L1473.05 1127.59 L1493.51 1191.56 L1513.97 1223.89 L1534.43 1266.44 L1554.89 1307.22 L1575.35 1335.48 L1595.8 1360.13 L1616.26 1378.35 L1636.72 1394.21 L1657.18 1407.15 L1677.64 1414.47 L1698.09 1419.15 L1718.55 1422.7 L1739.01 1427.1 L1759.47 1432.6 L1779.93 1435.24 L1800.39 1436.77 L1820.84 1438.84 L1841.3 1440.57 L1861.76 1441.43 L1882.22 1441.76 L1902.68 1442.43 L1923.13 1443.61 L1943.59 1444.5 L1964.05 1444.79 L1984.51 1445.39 L2004.97 1445.72 L2025.43 1445.41 L2045.88 1445.43 L2066.34 1444.82 L2086.8 1443.23 L2107.26 1441.02 L2127.72 1438.5 L2148.17 1433.82 L2168.63 1426.22 L2189.09 1412.98 L2209.55 1389.43 L2230.01 1377.31 L2250.47 1353.03 L2270.92 1363.12 L2291.38 1376.89 L2291.38 710.211 L2270.92 820.681 L2250.47 951.49 L2230.01 1034.14 L2209.55 994.665 L2189.09 898.186 L2168.63 784.668 L2148.17 704.388 L2127.72 666.907 L2107.26 733.013 L2086.8 873.837 L2066.34 943.167 L2045.88 966.135 L2025.43 1003.56 L2004.97 1063.5 L1984.51 1116.82 L1964.05 1173.17 L1943.59 1221.4 L1923.13 1264.73 L1902.68 1299.83 L1882.22 1324.24 L1861.76 1342.65 L1841.3 1354.06 L1820.84 1366.19 L1800.39 1370.15 L1779.93 1375.01 L1759.47 1374.1 L1739.01 1367.5 L1718.55 1354.13 L1698.09 1336.31 L1677.64 1304.29 L1657.18 1261.9 L1636.72 1207.41 L1616.26 1133.39 L1595.8 1056.82 L1575.35 945.939 L1554.89 826.504 L1534.43 709.762 L1513.97 652.999 L1493.51 677.822 L1473.05 754.17 L1452.6 794.683 L1432.14 711.567 L1411.68 740.793 L1391.22 702.78 L1370.76 618.388 L1350.31 594.166 L1329.85 745.206 L1309.39 978.657 L1288.93 1187.64 L1268.47 1288.41 L1248.02 1331.81 L1227.56 1357.32 L1207.1 1373.33 L1186.64 1381.74 L1166.18 1384.73 L1145.72 1387.28 L1125.27 1383.18 L1104.81 1379.15 L1084.35 1374.86 L1063.89 1364.44 L1043.43 1354.66 L1022.98 1342.93 L1002.52 1327.83 L982.059 1313.91 L961.601 1297.7 L941.143 1276.13 L920.685 1264.26 L900.226 1225.69 L879.768 1172.29 L859.31 1119 L838.852 1048.31 L818.394 936.735 L797.936 859.903 L777.477 800.332 L757.019 812.261 L736.561 847.547 L716.103 805.633 L695.645 780.051 L675.187 766.723 L654.728 811.741 L634.27 936.488 L613.812 1075.11 L593.354 1229.68 L572.896 1324.14 L552.438 1366.34 L531.979 1384.51 L511.521 1393.73 L491.063 1401.46 L470.605 1403.95 L450.147 1405.8 L429.689 1403.16 L409.23 1400.27 L388.772 1394.24 L368.314 1388.01 L347.856 1379.98 L327.398 1372.64 L306.94 1366.65 L286.481 1357.14 L266.023 1339.32 L245.565 1322.88  Z" fill="#e26f46" fill-rule="evenodd" fill-opacity="0.5"/>
<polyline clip-path="url(#clip721)" style="stroke:#e26f46; stroke-linecap:round; stroke-linejoin:round; stroke-width:12; stroke-opacity:1; fill:none" points="245.565,1322.88 266.023,1344.99 286.481,1359.17 306.94,1378.2 327.398,1389.23 347.856,1398.45 368.314,1404.23 388.772,1409.32 409.23,1413.7 429.689,1416.06 450.147,1416.49 470.605,1416.5 491.063,1416.13 511.521,1409.36 531.979,1401.3 552.438,1391.01 572.896,1373.64 593.354,1351.17 613.812,1302.89 634.27,1228.38 654.728,1125.44 675.187,1005.26 695.645,948.078 716.103,929.779 736.561,937.318 757.019,959.04 777.477,1003.92 797.936,1067.08 818.394,1133.54 838.852,1183.02 859.31,1225.66 879.768,1264.54 900.226,1297.58 920.685,1327.36 941.143,1354.13 961.601,1369.36 982.059,1384.07 1002.52,1394.66 1022.98,1401.43 1043.43,1408.96 1063.89,1412.87 1084.35,1414.89 1104.81,1416.27 1125.27,1418.35 1145.72,1418.85 1166.18,1416.09 1186.64,1415 1207.1,1408.76 1227.56,1399.71 1248.02,1385.28 1268.47,1365.95 1288.93,1335.32 1309.39,1296.41 1329.85,1227.21 1350.31,1123.67 1370.76,1027.82 1391.22,946.881 1411.68,951.926 1432.14,942.585 1452.6,999.757 1473.05,1000.8 1493.51,1066.43 1513.97,1130.51 1534.43,1184.56 1554.89,1232.11 1575.35,1261.55 1595.8,1294.1 1616.26,1322.41 1636.72,1341.04 1657.18,1354.56 1677.64,1367.21 1698.09,1375.62 1718.55,1381.69 1739.01,1392.95 1759.47,1401.48 1779.93,1407.45 1800.39,1412.41 1820.84,1416.63 1841.3,1419.23 1861.76,1421.58 1882.22,1420.71 1902.68,1418.52 1923.13,1413.65 1943.59,1407.13 1964.05,1398.1 1984.51,1376.76 2004.97,1338.19 2025.43,1275.64 2045.88,1171.2 2066.34,1106.89 2086.8,1052.03 2107.26,1082.87 2127.72,1127.88 2148.17,1171.1 2168.63,1205.97 2189.09,1235.71 2209.55,1217.37 2230.01,1259.33 2250.47,1258.92 2270.92,1251.38 2291.38,1288.49 "/>
</svg>
