<?xml version="1.0" encoding="utf-8"?>
<svg xmlns="http://www.w3.org/2000/svg" xmlns:xlink="http://www.w3.org/1999/xlink" width="600" height="400" viewBox="0 0 2400 1600">
<defs>
  <clipPath id="clip500">
    <rect x="0" y="0" width="2400" height="1600"/>
  </clipPath>
</defs>
<path clip-path="url(#clip500)" d="M0 1600 L2400 1600 L2400 0 L0 0  Z" fill="#ffffff" fill-rule="evenodd" fill-opacity="1"/>
<defs>
  <clipPath id="clip501">
    <rect x="184" y="47" width="2170" height="1440"/>
  </clipPath>
</defs>
<path clip-path="url(#clip500)" d="M184.191 1486.45 L2352.76 1486.45 L2352.76 47.2441 L184.191 47.2441  Z" fill="#ffffff" fill-rule="evenodd" fill-opacity="1"/>
<polyline clip-path="url(#clip501)" style="stroke:#000000; stroke-linecap:round; stroke-linejoin:round; stroke-width:2; stroke-opacity:0.1; fill:none" points="245.565,1486.45 245.565,47.2441 "/>
<polyline clip-path="url(#clip501)" style="stroke:#000000; stroke-linecap:round; stroke-linejoin:round; stroke-width:2; stroke-opacity:0.1; fill:none" points="757.019,1486.45 757.019,47.2441 "/>
<polyline clip-path="url(#clip501)" style="stroke:#000000; stroke-linecap:round; stroke-linejoin:round; stroke-width:2; stroke-opacity:0.1; fill:none" points="1268.47,1486.45 1268.47,47.2441 "/>
<polyline clip-path="url(#clip501)" style="stroke:#000000; stroke-linecap:round; stroke-linejoin:round; stroke-width:2; stroke-opacity:0.1; fill:none" points="1779.93,1486.45 1779.93,47.2441 "/>
<polyline clip-path="url(#clip501)" style="stroke:#000000; stroke-linecap:round; stroke-linejoin:round; stroke-width:2; stroke-opacity:0.1; fill:none" points="2291.38,1486.45 2291.38,47.2441 "/>
<polyline clip-path="url(#clip501)" style="stroke:#000000; stroke-linecap:round; stroke-linejoin:round; stroke-width:2; stroke-opacity:0.1; fill:none" points="184.191,1452.96 2352.76,1452.96 "/>
<polyline clip-path="url(#clip501)" style="stroke:#000000; stroke-linecap:round; stroke-linejoin:round; stroke-width:2; stroke-opacity:0.1; fill:none" points="184.191,1116.24 2352.76,1116.24 "/>
<polyline clip-path="url(#clip501)" style="stroke:#000000; stroke-linecap:round; stroke-linejoin:round; stroke-width:2; stroke-opacity:0.1; fill:none" points="184.191,779.513 2352.76,779.513 "/>
<polyline clip-path="url(#clip501)" style="stroke:#000000; stroke-linecap:round; stroke-linejoin:round; stroke-width:2; stroke-opacity:0.1; fill:none" points="184.191,442.788 2352.76,442.788 "/>
<polyline clip-path="url(#clip501)" style="stroke:#000000; stroke-linecap:round; stroke-linejoin:round; stroke-width:2; stroke-opacity:0.1; fill:none" points="184.191,106.064 2352.76,106.064 "/>
<polyline clip-path="url(#clip500)" style="stroke:#000000; stroke-linecap:round; stroke-linejoin:round; stroke-width:4; stroke-opacity:1; fill:none" points="184.191,1486.45 2352.76,1486.45 "/>
<polyline clip-path="url(#clip500)" style="stroke:#000000; stroke-linecap:round; stroke-linejoin:round; stroke-width:4; stroke-opacity:1; fill:none" points="245.565,1486.45 245.565,1467.55 "/>
<polyline clip-path="url(#clip500)" style="stroke:#000000; stroke-linecap:round; stroke-linejoin:round; stroke-width:4; stroke-opacity:1; fill:none" points="757.019,1486.45 757.019,1467.55 "/>
<polyline clip-path="url(#clip500)" style="stroke:#000000; stroke-linecap:round; stroke-linejoin:round; stroke-width:4; stroke-opacity:1; fill:none" points="1268.47,1486.45 1268.47,1467.55 "/>
<polyline clip-path="url(#clip500)" style="stroke:#000000; stroke-linecap:round; stroke-linejoin:round; stroke-width:4; stroke-opacity:1; fill:none" points="1779.93,1486.45 1779.93,1467.55 "/>
<polyline clip-path="url(#clip500)" style="stroke:#000000; stroke-linecap:round; stroke-linejoin:round; stroke-width:4; stroke-opacity:1; fill:none" points="2291.38,1486.45 2291.38,1467.55 "/>
<path clip-path="url(#clip500)" d="M222.95 1517.37 Q219.338 1517.37 217.51 1520.93 Q215.704 1524.47 215.704 1531.6 Q215.704 1538.71 217.51 1542.27 Q219.338 1545.82 222.95 1545.82 Q226.584 1545.82 228.389 1542.27 Q230.218 1538.71 230.218 1531.6 Q230.218 1524.47 228.389 1520.93 Q226.584 1517.37 222.95 1517.37 M222.95 1513.66 Q228.76 1513.66 231.815 1518.27 Q234.894 1522.85 234.894 1531.6 Q234.894 1540.33 231.815 1544.94 Q228.76 1549.52 222.95 1549.52 Q217.139 1549.52 214.061 1544.94 Q211.005 1540.33 211.005 1531.6 Q211.005 1522.85 214.061 1518.27 Q217.139 1513.66 222.95 1513.66 Z" fill="#000000" fill-rule="nonzero" fill-opacity="1" /><path clip-path="url(#clip500)" d="M243.111 1542.97 L247.996 1542.97 L247.996 1548.85 L243.111 1548.85 L243.111 1542.97 Z" fill="#000000" fill-rule="nonzero" fill-opacity="1" /><path clip-path="url(#clip500)" d="M268.181 1517.37 Q264.57 1517.37 262.741 1520.93 Q260.935 1524.47 260.935 1531.6 Q260.935 1538.71 262.741 1542.27 Q264.57 1545.82 268.181 1545.82 Q271.815 1545.82 273.621 1542.27 Q275.449 1538.71 275.449 1531.6 Q275.449 1524.47 273.621 1520.93 Q271.815 1517.37 268.181 1517.37 M268.181 1513.66 Q273.991 1513.66 277.046 1518.27 Q280.125 1522.85 280.125 1531.6 Q280.125 1540.33 277.046 1544.94 Q273.991 1549.52 268.181 1549.52 Q262.371 1549.52 259.292 1544.94 Q256.236 1540.33 256.236 1531.6 Q256.236 1522.85 259.292 1518.27 Q262.371 1513.66 268.181 1513.66 Z" fill="#000000" fill-rule="nonzero" fill-opacity="1" /><path clip-path="url(#clip500)" d="M728.755 1544.91 L745.075 1544.91 L745.075 1548.85 L723.131 1548.85 L723.131 1544.91 Q725.793 1542.16 730.376 1537.53 Q734.982 1532.88 736.163 1531.53 Q738.408 1529.01 739.288 1527.27 Q740.191 1525.51 740.191 1523.82 Q740.191 1521.07 738.246 1519.33 Q736.325 1517.6 733.223 1517.6 Q731.024 1517.6 728.57 1518.36 Q726.14 1519.13 723.362 1520.68 L723.362 1515.95 Q726.186 1514.82 728.64 1514.24 Q731.093 1513.66 733.13 1513.66 Q738.501 1513.66 741.695 1516.35 Q744.89 1519.03 744.89 1523.52 Q744.89 1525.65 744.079 1527.57 Q743.292 1529.47 741.186 1532.07 Q740.607 1532.74 737.505 1535.95 Q734.404 1539.15 728.755 1544.91 Z" fill="#000000" fill-rule="nonzero" fill-opacity="1" /><path clip-path="url(#clip500)" d="M754.89 1542.97 L759.774 1542.97 L759.774 1548.85 L754.89 1548.85 L754.89 1542.97 Z" fill="#000000" fill-rule="nonzero" fill-opacity="1" /><path clip-path="url(#clip500)" d="M770.005 1514.29 L788.362 1514.29 L788.362 1518.22 L774.288 1518.22 L774.288 1526.7 Q775.306 1526.35 776.325 1526.19 Q777.343 1526 778.362 1526 Q784.149 1526 787.528 1529.17 Q790.908 1532.34 790.908 1537.76 Q790.908 1543.34 787.436 1546.44 Q783.964 1549.52 777.644 1549.52 Q775.468 1549.52 773.2 1549.15 Q770.954 1548.78 768.547 1548.04 L768.547 1543.34 Q770.63 1544.47 772.852 1545.03 Q775.075 1545.58 777.552 1545.58 Q781.556 1545.58 783.894 1543.48 Q786.232 1541.37 786.232 1537.76 Q786.232 1534.15 783.894 1532.04 Q781.556 1529.94 777.552 1529.94 Q775.677 1529.94 773.802 1530.35 Q771.95 1530.77 770.005 1531.65 L770.005 1514.29 Z" fill="#000000" fill-rule="nonzero" fill-opacity="1" /><path clip-path="url(#clip500)" d="M1235.64 1514.29 L1253.99 1514.29 L1253.99 1518.22 L1239.92 1518.22 L1239.92 1526.7 Q1240.94 1526.35 1241.96 1526.19 Q1242.98 1526 1243.99 1526 Q1249.78 1526 1253.16 1529.17 Q1256.54 1532.34 1256.54 1537.76 Q1256.54 1543.34 1253.07 1546.44 Q1249.6 1549.52 1243.28 1549.52 Q1241.1 1549.52 1238.83 1549.15 Q1236.59 1548.78 1234.18 1548.04 L1234.18 1543.34 Q1236.26 1544.47 1238.49 1545.03 Q1240.71 1545.58 1243.18 1545.58 Q1247.19 1545.58 1249.53 1543.48 Q1251.86 1541.37 1251.86 1537.76 Q1251.86 1534.15 1249.53 1532.04 Q1247.19 1529.94 1243.18 1529.94 Q1241.31 1529.94 1239.43 1530.35 Q1237.58 1530.77 1235.64 1531.65 L1235.64 1514.29 Z" fill="#000000" fill-rule="nonzero" fill-opacity="1" /><path clip-path="url(#clip500)" d="M1265.75 1542.97 L1270.64 1542.97 L1270.64 1548.85 L1265.75 1548.85 L1265.75 1542.97 Z" fill="#000000" fill-rule="nonzero" fill-opacity="1" /><path clip-path="url(#clip500)" d="M1290.82 1517.37 Q1287.21 1517.37 1285.38 1520.93 Q1283.58 1524.47 1283.58 1531.6 Q1283.58 1538.71 1285.38 1542.27 Q1287.21 1545.82 1290.82 1545.82 Q1294.46 1545.82 1296.26 1542.27 Q1298.09 1538.71 1298.09 1531.6 Q1298.09 1524.47 1296.26 1520.93 Q1294.46 1517.37 1290.82 1517.37 M1290.82 1513.66 Q1296.63 1513.66 1299.69 1518.27 Q1302.77 1522.85 1302.77 1531.6 Q1302.77 1540.33 1299.69 1544.94 Q1296.63 1549.52 1290.82 1549.52 Q1285.01 1549.52 1281.93 1544.94 Q1278.88 1540.33 1278.88 1531.6 Q1278.88 1522.85 1281.93 1518.27 Q1285.01 1513.66 1290.82 1513.66 Z" fill="#000000" fill-rule="nonzero" fill-opacity="1" /><path clip-path="url(#clip500)" d="M1746.25 1514.29 L1768.47 1514.29 L1768.47 1516.28 L1755.92 1548.85 L1751.04 1548.85 L1762.84 1518.22 L1746.25 1518.22 L1746.25 1514.29 Z" fill="#000000" fill-rule="nonzero" fill-opacity="1" /><path clip-path="url(#clip500)" d="M1777.59 1542.97 L1782.47 1542.97 L1782.47 1548.85 L1777.59 1548.85 L1777.59 1542.97 Z" fill="#000000" fill-rule="nonzero" fill-opacity="1" /><path clip-path="url(#clip500)" d="M1792.71 1514.29 L1811.06 1514.29 L1811.06 1518.22 L1796.99 1518.22 L1796.99 1526.7 Q1798.01 1526.35 1799.02 1526.19 Q1800.04 1526 1801.06 1526 Q1806.85 1526 1810.23 1529.17 Q1813.61 1532.34 1813.61 1537.76 Q1813.61 1543.34 1810.14 1546.44 Q1806.66 1549.52 1800.34 1549.52 Q1798.17 1549.52 1795.9 1549.15 Q1793.65 1548.78 1791.25 1548.04 L1791.25 1543.34 Q1793.33 1544.47 1795.55 1545.03 Q1797.77 1545.58 1800.25 1545.58 Q1804.26 1545.58 1806.59 1543.48 Q1808.93 1541.37 1808.93 1537.76 Q1808.93 1534.15 1806.59 1532.04 Q1804.26 1529.94 1800.25 1529.94 Q1798.38 1529.94 1796.5 1530.35 Q1794.65 1530.77 1792.71 1531.65 L1792.71 1514.29 Z" fill="#000000" fill-rule="nonzero" fill-opacity="1" /><path clip-path="url(#clip500)" d="M2243.45 1544.91 L2251.09 1544.91 L2251.09 1518.55 L2242.78 1520.21 L2242.78 1515.95 L2251.05 1514.29 L2255.72 1514.29 L2255.72 1544.91 L2263.36 1544.91 L2263.36 1548.85 L2243.45 1548.85 L2243.45 1544.91 Z" fill="#000000" fill-rule="nonzero" fill-opacity="1" /><path clip-path="url(#clip500)" d="M2282.81 1517.37 Q2279.19 1517.37 2277.37 1520.93 Q2275.56 1524.47 2275.56 1531.6 Q2275.56 1538.71 2277.37 1542.27 Q2279.19 1545.82 2282.81 1545.82 Q2286.44 1545.82 2288.24 1542.27 Q2290.07 1538.71 2290.07 1531.6 Q2290.07 1524.47 2288.24 1520.93 Q2286.44 1517.37 2282.81 1517.37 M2282.81 1513.66 Q2288.62 1513.66 2291.67 1518.27 Q2294.75 1522.85 2294.75 1531.6 Q2294.75 1540.33 2291.67 1544.94 Q2288.62 1549.52 2282.81 1549.52 Q2276.99 1549.52 2273.92 1544.94 Q2270.86 1540.33 2270.86 1531.6 Q2270.86 1522.85 2273.92 1518.27 Q2276.99 1513.66 2282.81 1513.66 Z" fill="#000000" fill-rule="nonzero" fill-opacity="1" /><path clip-path="url(#clip500)" d="M2302.97 1542.97 L2307.85 1542.97 L2307.85 1548.85 L2302.97 1548.85 L2302.97 1542.97 Z" fill="#000000" fill-rule="nonzero" fill-opacity="1" /><path clip-path="url(#clip500)" d="M2328.04 1517.37 Q2324.43 1517.37 2322.6 1520.93 Q2320.79 1524.47 2320.79 1531.6 Q2320.79 1538.71 2322.6 1542.27 Q2324.43 1545.82 2328.04 1545.82 Q2331.67 1545.82 2333.48 1542.27 Q2335.3 1538.71 2335.3 1531.6 Q2335.3 1524.47 2333.48 1520.93 Q2331.67 1517.37 2328.04 1517.37 M2328.04 1513.66 Q2333.85 1513.66 2336.9 1518.27 Q2339.98 1522.85 2339.98 1531.6 Q2339.98 1540.33 2336.9 1544.94 Q2333.85 1549.52 2328.04 1549.52 Q2322.23 1549.52 2319.15 1544.94 Q2316.09 1540.33 2316.09 1531.6 Q2316.09 1522.85 2319.15 1518.27 Q2322.23 1513.66 2328.04 1513.66 Z" fill="#000000" fill-rule="nonzero" fill-opacity="1" /><polyline clip-path="url(#clip500)" style="stroke:#000000; stroke-linecap:round; stroke-linejoin:round; stroke-width:4; stroke-opacity:1; fill:none" points="184.191,1486.45 184.191,47.2441 "/>
<polyline clip-path="url(#clip500)" style="stroke:#000000; stroke-linecap:round; stroke-linejoin:round; stroke-width:4; stroke-opacity:1; fill:none" points="184.191,1452.96 203.088,1452.96 "/>
<polyline clip-path="url(#clip500)" style="stroke:#000000; stroke-linecap:round; stroke-linejoin:round; stroke-width:4; stroke-opacity:1; fill:none" points="184.191,1116.24 203.088,1116.24 "/>
<polyline clip-path="url(#clip500)" style="stroke:#000000; stroke-linecap:round; stroke-linejoin:round; stroke-width:4; stroke-opacity:1; fill:none" points="184.191,779.513 203.088,779.513 "/>
<polyline clip-path="url(#clip500)" style="stroke:#000000; stroke-linecap:round; stroke-linejoin:round; stroke-width:4; stroke-opacity:1; fill:none" points="184.191,442.788 203.088,442.788 "/>
<polyline clip-path="url(#clip500)" style="stroke:#000000; stroke-linecap:round; stroke-linejoin:round; stroke-width:4; stroke-opacity:1; fill:none" points="184.191,106.064 203.088,106.064 "/>
<path clip-path="url(#clip500)" d="M91.0151 1438.76 Q87.404 1438.76 85.5753 1442.33 Q83.7697 1445.87 83.7697 1453 Q83.7697 1460.1 85.5753 1463.67 Q87.404 1467.21 91.0151 1467.21 Q94.6493 1467.21 96.4548 1463.67 Q98.2835 1460.1 98.2835 1453 Q98.2835 1445.87 96.4548 1442.33 Q94.6493 1438.76 91.0151 1438.76 M91.0151 1435.06 Q96.8252 1435.06 99.8808 1439.66 Q102.959 1444.25 102.959 1453 Q102.959 1461.72 99.8808 1466.33 Q96.8252 1470.91 91.0151 1470.91 Q85.2049 1470.91 82.1262 1466.33 Q79.0707 1461.72 79.0707 1453 Q79.0707 1444.25 82.1262 1439.66 Q85.2049 1435.06 91.0151 1435.06 Z" fill="#000000" fill-rule="nonzero" fill-opacity="1" /><path clip-path="url(#clip500)" d="M111.177 1464.36 L116.061 1464.36 L116.061 1470.24 L111.177 1470.24 L111.177 1464.36 Z" fill="#000000" fill-rule="nonzero" fill-opacity="1" /><path clip-path="url(#clip500)" d="M136.246 1438.76 Q132.635 1438.76 130.807 1442.33 Q129.001 1445.87 129.001 1453 Q129.001 1460.1 130.807 1463.67 Q132.635 1467.21 136.246 1467.21 Q139.881 1467.21 141.686 1463.67 Q143.515 1460.1 143.515 1453 Q143.515 1445.87 141.686 1442.33 Q139.881 1438.76 136.246 1438.76 M136.246 1435.06 Q142.056 1435.06 145.112 1439.66 Q148.191 1444.25 148.191 1453 Q148.191 1461.72 145.112 1466.33 Q142.056 1470.91 136.246 1470.91 Q130.436 1470.91 127.357 1466.33 Q124.302 1461.72 124.302 1453 Q124.302 1444.25 127.357 1439.66 Q130.436 1435.06 136.246 1435.06 Z" fill="#000000" fill-rule="nonzero" fill-opacity="1" /><path clip-path="url(#clip500)" d="M86.0382 1129.58 L102.358 1129.58 L102.358 1133.52 L80.4133 1133.52 L80.4133 1129.58 Q83.0753 1126.83 87.6586 1122.2 Q92.2651 1117.54 93.4456 1116.2 Q95.691 1113.68 96.5706 1111.94 Q97.4734 1110.18 97.4734 1108.49 Q97.4734 1105.74 95.5289 1104 Q93.6076 1102.27 90.5058 1102.27 Q88.3067 1102.27 85.8531 1103.03 Q83.4225 1103.8 80.6447 1105.35 L80.6447 1100.62 Q83.4688 1099.49 85.9225 1098.91 Q88.3762 1098.33 90.4132 1098.33 Q95.7836 1098.33 98.978 1101.02 Q102.172 1103.7 102.172 1108.19 Q102.172 1110.32 101.362 1112.24 Q100.575 1114.14 98.4687 1116.73 Q97.89 1117.41 94.7882 1120.62 Q91.6864 1123.82 86.0382 1129.58 Z" fill="#000000" fill-rule="nonzero" fill-opacity="1" /><path clip-path="url(#clip500)" d="M112.172 1127.64 L117.057 1127.64 L117.057 1133.52 L112.172 1133.52 L112.172 1127.64 Z" fill="#000000" fill-rule="nonzero" fill-opacity="1" /><path clip-path="url(#clip500)" d="M127.288 1098.96 L145.644 1098.96 L145.644 1102.89 L131.57 1102.89 L131.57 1111.36 Q132.589 1111.02 133.607 1110.86 Q134.626 1110.67 135.644 1110.67 Q141.431 1110.67 144.811 1113.84 Q148.191 1117.01 148.191 1122.43 Q148.191 1128.01 144.718 1131.11 Q141.246 1134.19 134.927 1134.19 Q132.751 1134.19 130.482 1133.82 Q128.237 1133.45 125.83 1132.71 L125.83 1128.01 Q127.913 1129.14 130.135 1129.7 Q132.357 1130.25 134.834 1130.25 Q138.839 1130.25 141.177 1128.15 Q143.515 1126.04 143.515 1122.43 Q143.515 1118.82 141.177 1116.71 Q138.839 1114.61 134.834 1114.61 Q132.959 1114.61 131.084 1115.02 Q129.232 1115.44 127.288 1116.32 L127.288 1098.96 Z" fill="#000000" fill-rule="nonzero" fill-opacity="1" /><path clip-path="url(#clip500)" d="M81.0614 762.233 L99.4178 762.233 L99.4178 766.168 L85.3438 766.168 L85.3438 774.64 Q86.3623 774.293 87.3808 774.131 Q88.3993 773.946 89.4178 773.946 Q95.2049 773.946 98.5845 777.117 Q101.964 780.288 101.964 785.705 Q101.964 791.283 98.4919 794.385 Q95.0197 797.464 88.7003 797.464 Q86.5243 797.464 84.2558 797.094 Q82.0105 796.723 79.6031 795.982 L79.6031 791.283 Q81.6864 792.418 83.9086 792.973 Q86.1308 793.529 88.6077 793.529 Q92.6123 793.529 94.9502 791.422 Q97.2882 789.316 97.2882 785.705 Q97.2882 782.094 94.9502 779.987 Q92.6123 777.881 88.6077 777.881 Q86.7327 777.881 84.8577 778.297 Q83.0058 778.714 81.0614 779.594 L81.0614 762.233 Z" fill="#000000" fill-rule="nonzero" fill-opacity="1" /><path clip-path="url(#clip500)" d="M111.177 790.913 L116.061 790.913 L116.061 796.793 L111.177 796.793 L111.177 790.913 Z" fill="#000000" fill-rule="nonzero" fill-opacity="1" /><path clip-path="url(#clip500)" d="M136.246 765.311 Q132.635 765.311 130.807 768.876 Q129.001 772.418 129.001 779.547 Q129.001 786.654 130.807 790.219 Q132.635 793.76 136.246 793.76 Q139.881 793.76 141.686 790.219 Q143.515 786.654 143.515 779.547 Q143.515 772.418 141.686 768.876 Q139.881 765.311 136.246 765.311 M136.246 761.608 Q142.056 761.608 145.112 766.214 Q148.191 770.797 148.191 779.547 Q148.191 788.274 145.112 792.881 Q142.056 797.464 136.246 797.464 Q130.436 797.464 127.357 792.881 Q124.302 788.274 124.302 779.547 Q124.302 770.797 127.357 766.214 Q130.436 761.608 136.246 761.608 Z" fill="#000000" fill-rule="nonzero" fill-opacity="1" /><path clip-path="url(#clip500)" d="M80.8299 425.508 L103.052 425.508 L103.052 427.499 L90.5058 460.068 L85.6216 460.068 L97.4271 429.443 L80.8299 429.443 L80.8299 425.508 Z" fill="#000000" fill-rule="nonzero" fill-opacity="1" /><path clip-path="url(#clip500)" d="M112.172 454.189 L117.057 454.189 L117.057 460.068 L112.172 460.068 L112.172 454.189 Z" fill="#000000" fill-rule="nonzero" fill-opacity="1" /><path clip-path="url(#clip500)" d="M127.288 425.508 L145.644 425.508 L145.644 429.443 L131.57 429.443 L131.57 437.915 Q132.589 437.568 133.607 437.406 Q134.626 437.221 135.644 437.221 Q141.431 437.221 144.811 440.392 Q148.191 443.564 148.191 448.98 Q148.191 454.559 144.718 457.661 Q141.246 460.739 134.927 460.739 Q132.751 460.739 130.482 460.369 Q128.237 459.999 125.83 459.258 L125.83 454.559 Q127.913 455.693 130.135 456.249 Q132.357 456.804 134.834 456.804 Q138.839 456.804 141.177 454.698 Q143.515 452.591 143.515 448.98 Q143.515 445.369 141.177 443.263 Q138.839 441.156 134.834 441.156 Q132.959 441.156 131.084 441.573 Q129.232 441.99 127.288 442.869 L127.288 425.508 Z" fill="#000000" fill-rule="nonzero" fill-opacity="1" /><path clip-path="url(#clip500)" d="M51.6634 119.409 L59.3023 119.409 L59.3023 93.0429 L50.9921 94.7096 L50.9921 90.4503 L59.256 88.7837 L63.9319 88.7837 L63.9319 119.409 L71.5707 119.409 L71.5707 123.344 L51.6634 123.344 L51.6634 119.409 Z" fill="#000000" fill-rule="nonzero" fill-opacity="1" /><path clip-path="url(#clip500)" d="M91.0151 91.8624 Q87.404 91.8624 85.5753 95.4272 Q83.7697 98.9688 83.7697 106.098 Q83.7697 113.205 85.5753 116.77 Q87.404 120.311 91.0151 120.311 Q94.6493 120.311 96.4548 116.77 Q98.2835 113.205 98.2835 106.098 Q98.2835 98.9688 96.4548 95.4272 Q94.6493 91.8624 91.0151 91.8624 M91.0151 88.1587 Q96.8252 88.1587 99.8808 92.7651 Q102.959 97.3484 102.959 106.098 Q102.959 114.825 99.8808 119.432 Q96.8252 124.015 91.0151 124.015 Q85.2049 124.015 82.1262 119.432 Q79.0707 114.825 79.0707 106.098 Q79.0707 97.3484 82.1262 92.7651 Q85.2049 88.1587 91.0151 88.1587 Z" fill="#000000" fill-rule="nonzero" fill-opacity="1" /><path clip-path="url(#clip500)" d="M111.177 117.464 L116.061 117.464 L116.061 123.344 L111.177 123.344 L111.177 117.464 Z" fill="#000000" fill-rule="nonzero" fill-opacity="1" /><path clip-path="url(#clip500)" d="M136.246 91.8624 Q132.635 91.8624 130.807 95.4272 Q129.001 98.9688 129.001 106.098 Q129.001 113.205 130.807 116.77 Q132.635 120.311 136.246 120.311 Q139.881 120.311 141.686 116.77 Q143.515 113.205 143.515 106.098 Q143.515 98.9688 141.686 95.4272 Q139.881 91.8624 136.246 91.8624 M136.246 88.1587 Q142.056 88.1587 145.112 92.7651 Q148.191 97.3484 148.191 106.098 Q148.191 114.825 145.112 119.432 Q142.056 124.015 136.246 124.015 Q130.436 124.015 127.357 119.432 Q124.302 114.825 124.302 106.098 Q124.302 97.3484 127.357 92.7651 Q130.436 88.1587 136.246 88.1587 Z" fill="#000000" fill-rule="nonzero" fill-opacity="1" /><path clip-path="url(#clip501)" d="M245.565 1318.27 L266.023 1317.6 L286.481 1318.75 L306.94 1294.83 L327.398 1279.64 L347.856 1273.94 L368.314 1269.83 L388.772 1250.71 L409.23 1232.14 L429.689 1212.83 L450.147 1179 L470.605 1132.65 L491.063 1108.79 L511.521 1062.68 L531.979 1023.02 L552.438 986.135 L572.896 936.507 L593.354 922.08 L613.812 875.803 L634.27 952.58 L654.728 976.967 L675.187 1002.71 L695.645 1025.28 L716.103 1108.27 L736.561 1182.83 L757.019 1241.89 L777.477 1265.19 L797.936 1290.15 L818.394 1316.32 L838.852 1328.73 L859.31 1337.24 L879.768 1341.5 L900.226 1350.35 L920.685 1357.58 L941.143 1358.48 L961.601 1352.09 L982.059 1345.01 L1002.52 1337.31 L1022.98 1338.5 L1043.43 1339.19 L1063.89 1330.45 L1084.35 1317.64 L1104.81 1317.77 L1125.27 1297.25 L1145.72 1266.06 L1166.18 1259.14 L1186.64 1266.01 L1207.1 1228.75 L1227.56 1211.01 L1248.02 1185.72 L1268.47 1111.61 L1288.93 1072.1 L1309.39 1042.75 L1329.85 1061.65 L1350.31 1065.23 L1370.76 1048.1 L1391.22 1128.44 L1411.68 1179.72 L1432.14 1237.53 L1452.6 1279.4 L1473.05 1309.95 L1493.51 1333.99 L1513.97 1341.08 L1534.43 1360.83 L1554.89 1370.91 L1575.35 1373.15 L1595.8 1374.2 L1616.26 1377.08 L1636.72 1390.39 L1657.18 1393.77 L1677.64 1396.36 L1698.09 1394.05 L1718.55 1390.11 L1739.01 1386.31 L1759.47 1384.43 L1779.93 1382.15 L1800.39 1375.31 L1820.84 1363.97 L1841.3 1352.34 L1861.76 1343.15 L1882.22 1331.3 L1902.68 1316.01 L1923.13 1294.33 L1943.59 1273.22 L1964.05 1247.84 L1984.51 1198.6 L2004.97 1185.46 L2025.43 1175.8 L2045.88 1190.64 L2066.34 1219.13 L2086.8 1240.72 L2107.26 1258.9 L2127.72 1272.04 L2148.17 1275.62 L2168.63 1280.83 L2189.09 1293.89 L2209.55 1306.96 L2230.01 1310.93 L2250.47 1336.31 L2270.92 1349.34 L2291.38 1370.51 L2291.38 648.003 L2270.92 566.597 L2250.47 421.116 L2230.01 337.615 L2209.55 87.9763 L2189.09 113.659 L2168.63 195.29 L2148.17 335.953 L2127.72 422.886 L2107.26 443.694 L2086.8 599.943 L2066.34 593.716 L2045.88 597.672 L2025.43 573.581 L2004.97 537.591 L1984.51 527.684 L1964.05 564.679 L1943.59 617.406 L1923.13 615.195 L1902.68 647.369 L1882.22 704.522 L1861.76 764.166 L1841.3 835.431 L1820.84 879.324 L1800.39 901.349 L1779.93 907.96 L1759.47 922.848 L1739.01 959.948 L1718.55 1026.49 L1698.09 1074.03 L1677.64 1089.34 L1657.18 1098.89 L1636.72 1101.58 L1616.26 1132.86 L1595.8 1149.53 L1575.35 1102.8 L1554.89 869.998 L1534.43 554.934 L1513.97 345.077 L1493.51 262.055 L1473.05 257.746 L1452.6 421.679 L1432.14 567.69 L1411.68 520.214 L1391.22 458.338 L1370.76 427.614 L1350.31 432.719 L1329.85 470.214 L1309.39 536.498 L1288.93 515.734 L1268.47 530.606 L1248.02 629.279 L1227.56 702.627 L1207.1 776.824 L1186.64 842.559 L1166.18 874.407 L1145.72 919.46 L1125.27 920.246 L1104.81 899.634 L1084.35 915.206 L1063.89 954.781 L1043.43 1001.91 L1022.98 1046.38 L1002.52 1073.3 L982.059 1137.5 L961.601 1165.86 L941.143 1191.26 L920.685 1188.89 L900.226 1141.73 L879.768 1116.59 L859.31 1077.18 L838.852 1029.95 L818.394 914.315 L797.936 769.314 L777.477 685.529 L757.019 558.453 L736.561 601.423 L716.103 609.404 L695.645 522.418 L675.187 416.669 L654.728 315.816 L634.27 363.09 L613.812 445.43 L593.354 584.321 L572.896 551.047 L552.438 602.669 L531.979 606.363 L511.521 649.591 L491.063 798.743 L470.605 907.878 L450.147 971.104 L429.689 1040.83 L409.23 1089.82 L388.772 1137.01 L368.314 1203.46 L347.856 1231.62 L327.398 1260.63 L306.94 1282.38 L286.481 1298.13 L266.023 1303.41 L245.565 1318.27  Z" fill="#009af9" fill-rule="evenodd" fill-opacity="0.5"/>
<polyline clip-path="url(#clip501)" style="stroke:#009af9; stroke-linecap:round; stroke-linejoin:round; stroke-width:12; stroke-opacity:1; fill:none" points="245.565,1318.27 266.023,1311.69 286.481,1302.23 306.94,1288.32 327.398,1273.47 347.856,1254.68 368.314,1229.59 388.772,1200.04 409.23,1166.54 429.689,1136.21 450.147,1097.3 470.605,1051.45 491.063,998.418 511.521,941.721 531.979,880.102 552.438,804.149 572.896,734.951 593.354,650.137 613.812,592.742 634.27,566.609 654.728,582.014 675.187,658.475 695.645,727.972 716.103,848.403 736.561,1017.43 757.019,1124.32 777.477,1197.97 797.936,1239.88 818.394,1268.88 838.852,1283.78 859.31,1292.77 879.768,1306.35 900.226,1305.05 920.685,1298.61 941.143,1289.93 961.601,1282.66 982.059,1271.32 1002.52,1260.02 1022.98,1245.77 1043.43,1225.37 1063.89,1196.39 1084.35,1166.26 1104.81,1126.53 1125.27,1064.05 1145.72,1030.85 1166.18,992.22 1186.64,961.9 1207.1,885.805 1227.56,838.799 1248.02,789.057 1268.47,707.483 1288.93,652.395 1309.39,621.112 1329.85,707.459 1350.31,828.674 1370.76,941.47 1391.22,1015.56 1411.68,1074.92 1432.14,1128.38 1452.6,1179.68 1473.05,1219.08 1493.51,1268.57 1513.97,1283.83 1534.43,1289.87 1554.89,1284.07 1575.35,1275.93 1595.8,1292.77 1616.26,1290.79 1636.72,1304.39 1657.18,1290.08 1677.64,1270.4 1698.09,1248.72 1718.55,1220.69 1739.01,1192.33 1759.47,1157.6 1779.93,1120.25 1800.39,1076.79 1820.84,1036.66 1841.3,984.315 1861.76,920.067 1882.22,861.876 1902.68,912.909 1923.13,942.079 1943.59,923.334 1964.05,950.641 1984.51,954.967 2004.97,974.377 2025.43,1004.04 2045.88,1015.1 2066.34,961.413 2086.8,993.168 2107.26,1102.86 2127.72,1179.87 2148.17,1203.38 2168.63,1198.6 2189.09,1188.78 2209.55,1185.9 2230.01,1225.89 2250.47,1199.52 2270.92,1208.68 2291.38,1182.35 "/>
<path clip-path="url(#clip501)" d="M245.565 1318.27 L266.023 1346.66 L286.481 1375.22 L306.94 1389.07 L327.398 1397.8 L347.856 1405.08 L368.314 1412.84 L388.772 1418.38 L409.23 1421.06 L429.689 1423.36 L450.147 1426.58 L470.605 1428.53 L491.063 1428.8 L511.521 1428.98 L531.979 1428.46 L552.438 1427.21 L572.896 1424.73 L593.354 1419.44 L613.812 1409.66 L634.27 1400.87 L654.728 1392.24 L675.187 1377.17 L695.645 1354.83 L716.103 1320.25 L736.561 1275.43 L757.019 1229.79 L777.477 1230.52 L797.936 1225.54 L818.394 1227.38 L838.852 1254.47 L859.31 1288.88 L879.768 1311.55 L900.226 1335.93 L920.685 1356.12 L941.143 1376.21 L961.601 1389.95 L982.059 1399.24 L1002.52 1407.33 L1022.98 1409.4 L1043.43 1412.68 L1063.89 1418.57 L1084.35 1421.46 L1104.81 1424.72 L1125.27 1426.17 L1145.72 1429.76 L1166.18 1433.04 L1186.64 1434.52 L1207.1 1436.6 L1227.56 1437.53 L1248.02 1438.1 L1268.47 1435.82 L1288.93 1434.14 L1309.39 1430.49 L1329.85 1430.4 L1350.31 1429.01 L1370.76 1425.72 L1391.22 1420.49 L1411.68 1411.99 L1432.14 1394.11 L1452.6 1361.68 L1473.05 1302.65 L1493.51 1219.12 L1513.97 1233.35 L1534.43 1262.72 L1554.89 1293.35 L1575.35 1326.47 L1595.8 1348.7 L1616.26 1366.6 L1636.72 1384.49 L1657.18 1397.37 L1677.64 1406.31 L1698.09 1415.18 L1718.55 1420.9 L1739.01 1424.8 L1759.47 1427.9 L1779.93 1430.72 L1800.39 1435.51 L1820.84 1438.21 L1841.3 1439.94 L1861.76 1440.77 L1882.22 1442.14 L1902.68 1443.07 L1923.13 1443.37 L1943.59 1443.25 L1964.05 1444.15 L1984.51 1445.08 L2004.97 1445.56 L2025.43 1445.72 L2045.88 1445.53 L2066.34 1444.75 L2086.8 1443.55 L2107.26 1441.68 L2127.72 1437.7 L2148.17 1430.82 L2168.63 1416.99 L2189.09 1387.04 L2209.55 1384.49 L2230.01 1379.62 L2250.47 1366.74 L2270.92 1378.65 L2291.38 1388.19 L2291.38 550.075 L2270.92 466.474 L2250.47 444.577 L2230.01 476.386 L2209.55 673.862 L2189.09 781.96 L2168.63 875.524 L2148.17 989.634 L2127.72 911.574 L2107.26 871.133 L2086.8 865.89 L2066.34 914.119 L2045.88 965.472 L2025.43 934.239 L2004.97 928.889 L1984.51 1005.34 L1964.05 1066.91 L1943.59 1109.24 L1923.13 1135.4 L1902.68 1153.08 L1882.22 1191.81 L1861.76 1231.78 L1841.3 1259.58 L1820.84 1281.32 L1800.39 1299.06 L1779.93 1318.97 L1759.47 1315.64 L1739.01 1292.33 L1718.55 1250.46 L1698.09 1199.8 L1677.64 1134.88 L1657.18 1043.68 L1636.72 925.258 L1616.26 773.341 L1595.8 676.052 L1575.35 567.055 L1554.89 578.017 L1534.43 745.094 L1513.97 860.079 L1493.51 863.04 L1473.05 744.027 L1452.6 696.238 L1432.14 746.404 L1411.68 837.13 L1391.22 823.728 L1370.76 851.591 L1350.31 931.743 L1329.85 1045.02 L1309.39 1114.45 L1288.93 1177.05 L1268.47 1226.14 L1248.02 1250.47 L1227.56 1279.52 L1207.1 1300.84 L1186.64 1312.22 L1166.18 1319.06 L1145.72 1329.93 L1125.27 1332.86 L1104.81 1330.03 L1084.35 1322.62 L1063.89 1317.19 L1043.43 1293.16 L1022.98 1269.23 L1002.52 1234.7 L982.059 1186.86 L961.601 1143.41 L941.143 1087.13 L920.685 1059.58 L900.226 1010.54 L879.768 960.188 L859.31 911.392 L838.852 874.487 L818.394 835.464 L797.936 880.969 L777.477 850.958 L757.019 789.705 L736.561 800.158 L716.103 810.852 L695.645 968.155 L675.187 1029.81 L654.728 1041.16 L634.27 1033.06 L613.812 1061.45 L593.354 1152.3 L572.896 1255.52 L552.438 1318.07 L531.979 1366.9 L511.521 1389.67 L491.063 1402.88 L470.605 1409.43 L450.147 1412.22 L429.689 1411.66 L409.23 1409.09 L388.772 1405.92 L368.314 1401.4 L347.856 1392.84 L327.398 1382.45 L306.94 1368.74 L286.481 1354.74 L266.023 1336.06 L245.565 1318.27  Z" fill="#e26f46" fill-rule="evenodd" fill-opacity="0.5"/>
<polyline clip-path="url(#clip501)" style="stroke:#e26f46; stroke-linecap:round; stroke-linejoin:round; stroke-width:12; stroke-opacity:1; fill:none" points="245.565,1318.27 266.023,1342.05 286.481,1360.82 306.94,1376.04 327.398,1387.32 347.856,1397.4 368.314,1405.01 388.772,1411.16 409.23,1415.45 429.689,1418.97 450.147,1421.2 470.605,1420.51 491.063,1420.92 511.521,1418.59 531.979,1413.14 552.438,1404.74 572.896,1394.19 593.354,1377.18 613.812,1347.33 634.27,1302.93 654.728,1223.34 675.187,1128.31 695.645,1012.23 716.103,915.16 736.561,897.974 757.019,923.124 777.477,988.375 797.936,1004.42 818.394,1070.77 838.852,1119.16 859.31,1166.17 879.768,1222.39 900.226,1264.99 920.685,1301.37 941.143,1326.1 961.601,1340.6 982.059,1355.94 1002.52,1373.86 1022.98,1385.65 1043.43,1395.35 1063.89,1400.69 1084.35,1404 1104.81,1408.3 1125.27,1409.41 1145.72,1407.41 1166.18,1403.22 1186.64,1400.02 1207.1,1394.94 1227.56,1387.48 1248.02,1373.33 1268.47,1340.4 1288.93,1291.94 1309.39,1250.03 1329.85,1181.3 1350.31,1108.64 1370.76,1063.41 1391.22,1045.56 1411.68,932.262 1432.14,986.224 1452.6,1049.05 1473.05,1113.27 1493.51,1165.54 1513.97,1202.95 1534.43,1243.53 1554.89,1255.68 1575.35,1278.89 1595.8,1308.3 1616.26,1327.07 1636.72,1345.58 1657.18,1357.08 1677.64,1364.01 1698.09,1376.57 1718.55,1392.77 1739.01,1397.63 1759.47,1399.38 1779.93,1400.41 1800.39,1400.25 1820.84,1399.53 1841.3,1408.68 1861.76,1414.3 1882.22,1411.36 1902.68,1403.8 1923.13,1392.37 1943.59,1372.16 1964.05,1339.35 1984.51,1287.6 2004.97,1211.86 2025.43,1144.75 2045.88,1137.77 2066.34,1172.74 2086.8,1216.86 2107.26,1245.65 2127.72,1219.04 2148.17,1253.15 2168.63,1281.65 2189.09,1305.33 2209.55,1267.14 2230.01,1294.29 2250.47,1314.28 2270.92,1307.87 2291.38,1328.5 "/>
</svg>
