<?xml version="1.0" encoding="utf-8"?>
<svg xmlns="http://www.w3.org/2000/svg" xmlns:xlink="http://www.w3.org/1999/xlink" width="600" height="400" viewBox="0 0 2400 1600">
<defs>
  <clipPath id="clip660">
    <rect x="0" y="0" width="2400" height="1600"/>
  </clipPath>
</defs>
<path clip-path="url(#clip660)" d="M0 1600 L2400 1600 L2400 0 L0 0  Z" fill="#ffffff" fill-rule="evenodd" fill-opacity="1"/>
<defs>
  <clipPath id="clip661">
    <rect x="112" y="47" width="2242" height="1440"/>
  </clipPath>
</defs>
<path clip-path="url(#clip660)" d="M112.177 1486.45 L2352.76 1486.45 L2352.76 47.2441 L112.177 47.2441  Z" fill="#ffffff" fill-rule="evenodd" fill-opacity="1"/>
<polyline clip-path="url(#clip661)" style="stroke:#000000; stroke-linecap:round; stroke-linejoin:round; stroke-width:2; stroke-opacity:0.1; fill:none" points="175.59,1486.45 175.59,47.2441 "/>
<polyline clip-path="url(#clip661)" style="stroke:#000000; stroke-linecap:round; stroke-linejoin:round; stroke-width:2; stroke-opacity:0.1; fill:none" points="704.028,1486.45 704.028,47.2441 "/>
<polyline clip-path="url(#clip661)" style="stroke:#000000; stroke-linecap:round; stroke-linejoin:round; stroke-width:2; stroke-opacity:0.1; fill:none" points="1232.47,1486.45 1232.47,47.2441 "/>
<polyline clip-path="url(#clip661)" style="stroke:#000000; stroke-linecap:round; stroke-linejoin:round; stroke-width:2; stroke-opacity:0.1; fill:none" points="1760.9,1486.45 1760.9,47.2441 "/>
<polyline clip-path="url(#clip661)" style="stroke:#000000; stroke-linecap:round; stroke-linejoin:round; stroke-width:2; stroke-opacity:0.1; fill:none" points="2289.34,1486.45 2289.34,47.2441 "/>
<polyline clip-path="url(#clip661)" style="stroke:#000000; stroke-linecap:round; stroke-linejoin:round; stroke-width:2; stroke-opacity:0.1; fill:none" points="112.177,1459.09 2352.76,1459.09 "/>
<polyline clip-path="url(#clip661)" style="stroke:#000000; stroke-linecap:round; stroke-linejoin:round; stroke-width:2; stroke-opacity:0.1; fill:none" points="112.177,1157.93 2352.76,1157.93 "/>
<polyline clip-path="url(#clip661)" style="stroke:#000000; stroke-linecap:round; stroke-linejoin:round; stroke-width:2; stroke-opacity:0.1; fill:none" points="112.177,856.773 2352.76,856.773 "/>
<polyline clip-path="url(#clip661)" style="stroke:#000000; stroke-linecap:round; stroke-linejoin:round; stroke-width:2; stroke-opacity:0.1; fill:none" points="112.177,555.613 2352.76,555.613 "/>
<polyline clip-path="url(#clip661)" style="stroke:#000000; stroke-linecap:round; stroke-linejoin:round; stroke-width:2; stroke-opacity:0.1; fill:none" points="112.177,254.452 2352.76,254.452 "/>
<polyline clip-path="url(#clip660)" style="stroke:#000000; stroke-linecap:round; stroke-linejoin:round; stroke-width:4; stroke-opacity:1; fill:none" points="112.177,1486.45 2352.76,1486.45 "/>
<polyline clip-path="url(#clip660)" style="stroke:#000000; stroke-linecap:round; stroke-linejoin:round; stroke-width:4; stroke-opacity:1; fill:none" points="175.59,1486.45 175.59,1467.55 "/>
<polyline clip-path="url(#clip660)" style="stroke:#000000; stroke-linecap:round; stroke-linejoin:round; stroke-width:4; stroke-opacity:1; fill:none" points="704.028,1486.45 704.028,1467.55 "/>
<polyline clip-path="url(#clip660)" style="stroke:#000000; stroke-linecap:round; stroke-linejoin:round; stroke-width:4; stroke-opacity:1; fill:none" points="1232.47,1486.45 1232.47,1467.55 "/>
<polyline clip-path="url(#clip660)" style="stroke:#000000; stroke-linecap:round; stroke-linejoin:round; stroke-width:4; stroke-opacity:1; fill:none" points="1760.9,1486.45 1760.9,1467.55 "/>
<polyline clip-path="url(#clip660)" style="stroke:#000000; stroke-linecap:round; stroke-linejoin:round; stroke-width:4; stroke-opacity:1; fill:none" points="2289.34,1486.45 2289.34,1467.55 "/>
<path clip-path="url(#clip660)" d="M152.974 1517.37 Q149.363 1517.37 147.534 1520.93 Q145.729 1524.47 145.729 1531.6 Q145.729 1538.71 147.534 1542.27 Q149.363 1545.82 152.974 1545.82 Q156.608 1545.82 158.414 1542.27 Q160.243 1538.71 160.243 1531.6 Q160.243 1524.47 158.414 1520.93 Q156.608 1517.37 152.974 1517.37 M152.974 1513.66 Q158.784 1513.66 161.84 1518.27 Q164.919 1522.85 164.919 1531.6 Q164.919 1540.33 161.84 1544.94 Q158.784 1549.52 152.974 1549.52 Q147.164 1549.52 144.085 1544.94 Q141.03 1540.33 141.03 1531.6 Q141.03 1522.85 144.085 1518.27 Q147.164 1513.66 152.974 1513.66 Z" fill="#000000" fill-rule="nonzero" fill-opacity="1" /><path clip-path="url(#clip660)" d="M173.136 1542.97 L178.02 1542.97 L178.02 1548.85 L173.136 1548.85 L173.136 1542.97 Z" fill="#000000" fill-rule="nonzero" fill-opacity="1" /><path clip-path="url(#clip660)" d="M198.205 1517.37 Q194.594 1517.37 192.766 1520.93 Q190.96 1524.47 190.96 1531.6 Q190.96 1538.71 192.766 1542.27 Q194.594 1545.82 198.205 1545.82 Q201.84 1545.82 203.645 1542.27 Q205.474 1538.71 205.474 1531.6 Q205.474 1524.47 203.645 1520.93 Q201.84 1517.37 198.205 1517.37 M198.205 1513.66 Q204.016 1513.66 207.071 1518.27 Q210.15 1522.85 210.15 1531.6 Q210.15 1540.33 207.071 1544.94 Q204.016 1549.52 198.205 1549.52 Q192.395 1549.52 189.317 1544.94 Q186.261 1540.33 186.261 1531.6 Q186.261 1522.85 189.317 1518.27 Q192.395 1513.66 198.205 1513.66 Z" fill="#000000" fill-rule="nonzero" fill-opacity="1" /><path clip-path="url(#clip660)" d="M675.764 1544.91 L692.084 1544.91 L692.084 1548.85 L670.139 1548.85 L670.139 1544.91 Q672.801 1542.16 677.385 1537.53 Q681.991 1532.88 683.172 1531.53 Q685.417 1529.01 686.297 1527.27 Q687.2 1525.51 687.2 1523.82 Q687.2 1521.07 685.255 1519.33 Q683.334 1517.6 680.232 1517.6 Q678.033 1517.6 675.579 1518.36 Q673.149 1519.13 670.371 1520.68 L670.371 1515.95 Q673.195 1514.82 675.649 1514.24 Q678.102 1513.66 680.139 1513.66 Q685.51 1513.66 688.704 1516.35 Q691.899 1519.03 691.899 1523.52 Q691.899 1525.65 691.088 1527.57 Q690.301 1529.47 688.195 1532.07 Q687.616 1532.74 684.514 1535.95 Q681.413 1539.15 675.764 1544.91 Z" fill="#000000" fill-rule="nonzero" fill-opacity="1" /><path clip-path="url(#clip660)" d="M701.899 1542.97 L706.783 1542.97 L706.783 1548.85 L701.899 1548.85 L701.899 1542.97 Z" fill="#000000" fill-rule="nonzero" fill-opacity="1" /><path clip-path="url(#clip660)" d="M717.014 1514.29 L735.371 1514.29 L735.371 1518.22 L721.297 1518.22 L721.297 1526.7 Q722.315 1526.35 723.334 1526.19 Q724.352 1526 725.371 1526 Q731.158 1526 734.537 1529.17 Q737.917 1532.34 737.917 1537.76 Q737.917 1543.34 734.445 1546.44 Q730.972 1549.52 724.653 1549.52 Q722.477 1549.52 720.209 1549.15 Q717.963 1548.78 715.556 1548.04 L715.556 1543.34 Q717.639 1544.47 719.861 1545.03 Q722.084 1545.58 724.56 1545.58 Q728.565 1545.58 730.903 1543.48 Q733.241 1541.37 733.241 1537.76 Q733.241 1534.15 730.903 1532.04 Q728.565 1529.94 724.56 1529.94 Q722.685 1529.94 720.81 1530.35 Q718.959 1530.77 717.014 1531.65 L717.014 1514.29 Z" fill="#000000" fill-rule="nonzero" fill-opacity="1" /><path clip-path="url(#clip660)" d="M1199.63 1514.29 L1217.99 1514.29 L1217.99 1518.22 L1203.91 1518.22 L1203.91 1526.7 Q1204.93 1526.35 1205.95 1526.19 Q1206.97 1526 1207.99 1526 Q1213.77 1526 1217.15 1529.17 Q1220.53 1532.34 1220.53 1537.76 Q1220.53 1543.34 1217.06 1546.44 Q1213.59 1549.52 1207.27 1549.52 Q1205.09 1549.52 1202.83 1549.15 Q1200.58 1548.78 1198.17 1548.04 L1198.17 1543.34 Q1200.26 1544.47 1202.48 1545.03 Q1204.7 1545.58 1207.18 1545.58 Q1211.18 1545.58 1213.52 1543.48 Q1215.86 1541.37 1215.86 1537.76 Q1215.86 1534.15 1213.52 1532.04 Q1211.18 1529.94 1207.18 1529.94 Q1205.3 1529.94 1203.43 1530.35 Q1201.58 1530.77 1199.63 1531.65 L1199.63 1514.29 Z" fill="#000000" fill-rule="nonzero" fill-opacity="1" /><path clip-path="url(#clip660)" d="M1229.75 1542.97 L1234.63 1542.97 L1234.63 1548.85 L1229.75 1548.85 L1229.75 1542.97 Z" fill="#000000" fill-rule="nonzero" fill-opacity="1" /><path clip-path="url(#clip660)" d="M1254.82 1517.37 Q1251.2 1517.37 1249.38 1520.93 Q1247.57 1524.47 1247.57 1531.6 Q1247.57 1538.71 1249.38 1542.27 Q1251.2 1545.82 1254.82 1545.82 Q1258.45 1545.82 1260.26 1542.27 Q1262.08 1538.71 1262.08 1531.6 Q1262.08 1524.47 1260.26 1520.93 Q1258.45 1517.37 1254.82 1517.37 M1254.82 1513.66 Q1260.63 1513.66 1263.68 1518.27 Q1266.76 1522.85 1266.76 1531.6 Q1266.76 1540.33 1263.68 1544.94 Q1260.63 1549.52 1254.82 1549.52 Q1249.01 1549.52 1245.93 1544.94 Q1242.87 1540.33 1242.87 1531.6 Q1242.87 1522.85 1245.93 1518.27 Q1249.01 1513.66 1254.82 1513.66 Z" fill="#000000" fill-rule="nonzero" fill-opacity="1" /><path clip-path="url(#clip660)" d="M1727.22 1514.29 L1749.45 1514.29 L1749.45 1516.28 L1736.9 1548.85 L1732.02 1548.85 L1743.82 1518.22 L1727.22 1518.22 L1727.22 1514.29 Z" fill="#000000" fill-rule="nonzero" fill-opacity="1" /><path clip-path="url(#clip660)" d="M1758.57 1542.97 L1763.45 1542.97 L1763.45 1548.85 L1758.57 1548.85 L1758.57 1542.97 Z" fill="#000000" fill-rule="nonzero" fill-opacity="1" /><path clip-path="url(#clip660)" d="M1773.68 1514.29 L1792.04 1514.29 L1792.04 1518.22 L1777.97 1518.22 L1777.97 1526.7 Q1778.98 1526.35 1780 1526.19 Q1781.02 1526 1782.04 1526 Q1787.83 1526 1791.21 1529.17 Q1794.59 1532.34 1794.59 1537.76 Q1794.59 1543.34 1791.11 1546.44 Q1787.64 1549.52 1781.32 1549.52 Q1779.15 1549.52 1776.88 1549.15 Q1774.63 1548.78 1772.22 1548.04 L1772.22 1543.34 Q1774.31 1544.47 1776.53 1545.03 Q1778.75 1545.58 1781.23 1545.58 Q1785.23 1545.58 1787.57 1543.48 Q1789.91 1541.37 1789.91 1537.76 Q1789.91 1534.15 1787.57 1532.04 Q1785.23 1529.94 1781.23 1529.94 Q1779.35 1529.94 1777.48 1530.35 Q1775.63 1530.77 1773.68 1531.65 L1773.68 1514.29 Z" fill="#000000" fill-rule="nonzero" fill-opacity="1" /><path clip-path="url(#clip660)" d="M2241.42 1544.91 L2249.05 1544.91 L2249.05 1518.55 L2240.74 1520.21 L2240.74 1515.95 L2249.01 1514.29 L2253.68 1514.29 L2253.68 1544.91 L2261.32 1544.91 L2261.32 1548.85 L2241.42 1548.85 L2241.42 1544.91 Z" fill="#000000" fill-rule="nonzero" fill-opacity="1" /><path clip-path="url(#clip660)" d="M2280.77 1517.37 Q2277.16 1517.37 2275.33 1520.93 Q2273.52 1524.47 2273.52 1531.6 Q2273.52 1538.71 2275.33 1542.27 Q2277.16 1545.82 2280.77 1545.82 Q2284.4 1545.82 2286.21 1542.27 Q2288.04 1538.71 2288.04 1531.6 Q2288.04 1524.47 2286.21 1520.93 Q2284.4 1517.37 2280.77 1517.37 M2280.77 1513.66 Q2286.58 1513.66 2289.63 1518.27 Q2292.71 1522.85 2292.71 1531.6 Q2292.71 1540.33 2289.63 1544.94 Q2286.58 1549.52 2280.77 1549.52 Q2274.96 1549.52 2271.88 1544.94 Q2268.82 1540.33 2268.82 1531.6 Q2268.82 1522.85 2271.88 1518.27 Q2274.96 1513.66 2280.77 1513.66 Z" fill="#000000" fill-rule="nonzero" fill-opacity="1" /><path clip-path="url(#clip660)" d="M2300.93 1542.97 L2305.81 1542.97 L2305.81 1548.85 L2300.93 1548.85 L2300.93 1542.97 Z" fill="#000000" fill-rule="nonzero" fill-opacity="1" /><path clip-path="url(#clip660)" d="M2326 1517.37 Q2322.39 1517.37 2320.56 1520.93 Q2318.75 1524.47 2318.75 1531.6 Q2318.75 1538.71 2320.56 1542.27 Q2322.39 1545.82 2326 1545.82 Q2329.63 1545.82 2331.44 1542.27 Q2333.27 1538.71 2333.27 1531.6 Q2333.27 1524.47 2331.44 1520.93 Q2329.63 1517.37 2326 1517.37 M2326 1513.66 Q2331.81 1513.66 2334.86 1518.27 Q2337.94 1522.85 2337.94 1531.6 Q2337.94 1540.33 2334.86 1544.94 Q2331.81 1549.52 2326 1549.52 Q2320.19 1549.52 2317.11 1544.94 Q2314.05 1540.33 2314.05 1531.6 Q2314.05 1522.85 2317.11 1518.27 Q2320.19 1513.66 2326 1513.66 Z" fill="#000000" fill-rule="nonzero" fill-opacity="1" /><polyline clip-path="url(#clip660)" style="stroke:#000000; stroke-linecap:round; stroke-linejoin:round; stroke-width:4; stroke-opacity:1; fill:none" points="112.177,1486.45 112.177,47.2441 "/>
<polyline clip-path="url(#clip660)" style="stroke:#000000; stroke-linecap:round; stroke-linejoin:round; stroke-width:4; stroke-opacity:1; fill:none" points="112.177,1459.09 131.075,1459.09 "/>
<polyline clip-path="url(#clip660)" style="stroke:#000000; stroke-linecap:round; stroke-linejoin:round; stroke-width:4; stroke-opacity:1; fill:none" points="112.177,1157.93 131.075,1157.93 "/>
<polyline clip-path="url(#clip660)" style="stroke:#000000; stroke-linecap:round; stroke-linejoin:round; stroke-width:4; stroke-opacity:1; fill:none" points="112.177,856.773 131.075,856.773 "/>
<polyline clip-path="url(#clip660)" style="stroke:#000000; stroke-linecap:round; stroke-linejoin:round; stroke-width:4; stroke-opacity:1; fill:none" points="112.177,555.613 131.075,555.613 "/>
<polyline clip-path="url(#clip660)" style="stroke:#000000; stroke-linecap:round; stroke-linejoin:round; stroke-width:4; stroke-opacity:1; fill:none" points="112.177,254.452 131.075,254.452 "/>
<path clip-path="url(#clip660)" d="M64.2328 1444.89 Q60.6217 1444.89 58.793 1448.46 Q56.9875 1452 56.9875 1459.13 Q56.9875 1466.23 58.793 1469.8 Q60.6217 1473.34 64.2328 1473.34 Q67.867 1473.34 69.6726 1469.8 Q71.5013 1466.23 71.5013 1459.13 Q71.5013 1452 69.6726 1448.46 Q67.867 1444.89 64.2328 1444.89 M64.2328 1441.19 Q70.0429 1441.19 73.0985 1445.79 Q76.1772 1450.38 76.1772 1459.13 Q76.1772 1467.85 73.0985 1472.46 Q70.0429 1477.04 64.2328 1477.04 Q58.4226 1477.04 55.344 1472.46 Q52.2884 1467.85 52.2884 1459.13 Q52.2884 1450.38 55.344 1445.79 Q58.4226 1441.19 64.2328 1441.19 Z" fill="#000000" fill-rule="nonzero" fill-opacity="1" /><path clip-path="url(#clip660)" d="M59.8578 1171.28 L76.1772 1171.28 L76.1772 1175.21 L54.2328 1175.21 L54.2328 1171.28 Q56.8949 1168.52 61.4782 1163.89 Q66.0846 1159.24 67.2652 1157.9 Q69.5105 1155.38 70.3902 1153.64 Q71.2929 1151.88 71.2929 1150.19 Q71.2929 1147.44 69.3485 1145.7 Q67.4272 1143.96 64.3254 1143.96 Q62.1263 1143.96 59.6726 1144.73 Q57.2421 1145.49 54.4643 1147.04 L54.4643 1142.32 Q57.2884 1141.19 59.7421 1140.61 Q62.1958 1140.03 64.2328 1140.03 Q69.6031 1140.03 72.7976 1142.71 Q75.992 1145.4 75.992 1149.89 Q75.992 1152.02 75.1818 1153.94 Q74.3948 1155.84 72.2883 1158.43 Q71.7096 1159.1 68.6078 1162.32 Q65.5059 1165.51 59.8578 1171.28 Z" fill="#000000" fill-rule="nonzero" fill-opacity="1" /><path clip-path="url(#clip660)" d="M66.5939 843.567 L54.7884 862.016 L66.5939 862.016 L66.5939 843.567 M65.367 839.493 L71.2466 839.493 L71.2466 862.016 L76.1772 862.016 L76.1772 865.905 L71.2466 865.905 L71.2466 874.053 L66.5939 874.053 L66.5939 865.905 L50.9921 865.905 L50.9921 861.391 L65.367 839.493 Z" fill="#000000" fill-rule="nonzero" fill-opacity="1" /><path clip-path="url(#clip660)" d="M64.6495 553.749 Q61.5013 553.749 59.6495 555.902 Q57.8208 558.055 57.8208 561.805 Q57.8208 565.532 59.6495 567.708 Q61.5013 569.86 64.6495 569.86 Q67.7976 569.86 69.6263 567.708 Q71.4781 565.532 71.4781 561.805 Q71.4781 558.055 69.6263 555.902 Q67.7976 553.749 64.6495 553.749 M73.9318 539.097 L73.9318 543.356 Q72.1726 542.522 70.367 542.083 Q68.5846 541.643 66.8254 541.643 Q62.1958 541.643 59.7421 544.768 Q57.3115 547.893 56.9643 554.212 Q58.33 552.198 60.3902 551.134 Q62.4504 550.046 64.9272 550.046 Q70.1355 550.046 73.1448 553.217 Q76.1772 556.365 76.1772 561.805 Q76.1772 567.129 73.029 570.346 Q69.8809 573.564 64.6495 573.564 Q58.6541 573.564 55.4828 568.981 Q52.3116 564.374 52.3116 555.647 Q52.3116 547.453 56.2004 542.592 Q60.0893 537.708 66.6402 537.708 Q68.3994 537.708 70.1818 538.055 Q71.9874 538.402 73.9318 539.097 Z" fill="#000000" fill-rule="nonzero" fill-opacity="1" /><path clip-path="url(#clip660)" d="M64.3254 255.321 Q60.9921 255.321 59.0708 257.103 Q57.1726 258.885 57.1726 262.01 Q57.1726 265.135 59.0708 266.918 Q60.9921 268.7 64.3254 268.7 Q67.6587 268.7 69.58 266.918 Q71.5013 265.112 71.5013 262.01 Q71.5013 258.885 69.58 257.103 Q67.6819 255.321 64.3254 255.321 M59.6495 253.33 Q56.6402 252.589 54.9504 250.529 Q53.2838 248.469 53.2838 245.506 Q53.2838 241.362 56.2236 238.955 Q59.1865 236.547 64.3254 236.547 Q69.4874 236.547 72.4272 238.955 Q75.367 241.362 75.367 245.506 Q75.367 248.469 73.6772 250.529 Q72.0105 252.589 69.0244 253.33 Q72.404 254.117 74.279 256.408 Q76.1772 258.7 76.1772 262.01 Q76.1772 267.033 73.0985 269.719 Q70.0429 272.404 64.3254 272.404 Q58.6078 272.404 55.5291 269.719 Q52.4736 267.033 52.4736 262.01 Q52.4736 258.7 54.3717 256.408 Q56.2699 254.117 59.6495 253.33 M57.9365 245.946 Q57.9365 248.631 59.6032 250.135 Q61.293 251.64 64.3254 251.64 Q67.3346 251.64 69.0244 250.135 Q70.7374 248.631 70.7374 245.946 Q70.7374 243.26 69.0244 241.756 Q67.3346 240.251 64.3254 240.251 Q61.293 240.251 59.6032 241.756 Q57.9365 243.26 57.9365 245.946 Z" fill="#000000" fill-rule="nonzero" fill-opacity="1" /><path clip-path="url(#clip661)" d="M175.59 1308.51 L196.727 1311.62 L217.865 1310.55 L239.002 1297.27 L260.14 1283.52 L281.277 1265.97 L302.415 1259.59 L323.553 1244.34 L344.69 1217.79 L365.828 1188.62 L386.965 1149.34 L408.103 1117.92 L429.24 1106.05 L450.378 1060.12 L471.515 991.334 L492.653 914.285 L513.79 785.599 L534.928 681.903 L556.065 609.181 L577.203 554.367 L598.34 574.506 L619.478 685.717 L640.616 869.25 L661.753 1045.38 L682.891 1178.69 L704.028 1253.8 L725.166 1303.77 L746.303 1328.64 L767.441 1347.72 L788.578 1359.86 L809.716 1374.11 L830.853 1387.01 L851.991 1392.04 L873.128 1392.27 L894.266 1388.29 L915.404 1381.03 L936.541 1373.79 L957.679 1364.34 L978.816 1355.31 L999.954 1345.61 L1021.09 1333.4 L1042.23 1316.16 L1063.37 1290.63 L1084.5 1265.26 L1105.64 1235.13 L1126.78 1187.06 L1147.92 1125.59 L1169.05 1078.87 L1190.19 1024.92 L1211.33 955.079 L1232.47 877.427 L1253.6 794.186 L1274.74 704.76 L1295.88 610.869 L1317.02 674.163 L1338.15 878.523 L1359.29 1044.81 L1380.43 1151.97 L1401.57 1223.81 L1422.7 1274.13 L1443.84 1308.68 L1464.98 1330.59 L1486.12 1340.61 L1507.25 1347.14 L1528.39 1355.1 L1549.53 1365.38 L1570.67 1370.06 L1591.8 1380.37 L1612.94 1383.07 L1634.08 1381.18 L1655.22 1377.58 L1676.35 1371.24 L1697.49 1363.35 L1718.63 1356.6 L1739.77 1344.62 L1760.9 1331.11 L1782.04 1316.29 L1803.18 1298.72 L1824.32 1277.17 L1845.46 1256.09 L1866.59 1225.84 L1887.73 1190.43 L1908.87 1148.84 L1930.01 1084.23 L1951.14 1024.45 L1972.28 960.738 L1993.42 878.142 L2014.56 850.92 L2035.69 860.295 L2056.83 931.124 L2077.97 1038.1 L2099.11 1140.92 L2120.24 1213.07 L2141.38 1264.12 L2162.52 1292.69 L2183.66 1306.51 L2204.79 1317.32 L2225.93 1332.71 L2247.07 1338.91 L2268.21 1349.28 L2289.34 1359.22 L2289.34 1145.95 L2268.21 1041.32 L2247.07 885.509 L2225.93 669.435 L2204.79 465.161 L2183.66 349.593 L2162.52 242.874 L2141.38 142.856 L2120.24 151.11 L2099.11 125.167 L2077.97 191.612 L2056.83 297.534 L2035.69 368.348 L2014.56 437.342 L1993.42 405.605 L1972.28 418.505 L1951.14 469.708 L1930.01 537.373 L1908.87 615.538 L1887.73 689.796 L1866.59 764.885 L1845.46 842.532 L1824.32 896.821 L1803.18 959.28 L1782.04 1023.96 L1760.9 1080.77 L1739.77 1121.89 L1718.63 1157.28 L1697.49 1187.83 L1676.35 1216.61 L1655.22 1238.03 L1634.08 1242.6 L1612.94 1244.18 L1591.8 1247.05 L1570.67 1242.64 L1549.53 1235.07 L1528.39 1195.05 L1507.25 1155.5 L1486.12 1044.11 L1464.98 839.295 L1443.84 564.598 L1422.7 283.755 L1401.57 161.181 L1380.43 87.9763 L1359.29 157.683 L1338.15 240.66 L1317.02 351.747 L1295.88 345.845 L1274.74 317.955 L1253.6 345.723 L1232.47 426.914 L1211.33 482.26 L1190.19 606.841 L1169.05 669.239 L1147.92 737.664 L1126.78 867.574 L1105.64 941.333 L1084.5 992.741 L1063.37 1072.18 L1042.23 1115.51 L1021.09 1149.49 L999.954 1182.29 L978.816 1203.94 L957.679 1227.28 L936.541 1243.81 L915.404 1258.04 L894.266 1273.42 L873.128 1287.92 L851.991 1297.13 L830.853 1302.59 L809.716 1293.14 L788.578 1267.99 L767.441 1213.08 L746.303 1139.35 L725.166 995.458 L704.028 758.738 L682.891 482.65 L661.753 207.477 L640.616 156.538 L619.478 194.507 L598.34 225.823 L577.203 329.435 L556.065 408.326 L534.928 456.073 L513.79 553.607 L492.653 625.579 L471.515 718.664 L450.378 802.269 L429.24 883.316 L408.103 954.595 L386.965 1013.15 L365.828 1056.52 L344.69 1088.82 L323.553 1131.29 L302.415 1176.55 L281.277 1204.22 L260.14 1233.9 L239.002 1245.62 L217.865 1277.52 L196.727 1293.49 L175.59 1308.51  Z" fill="#009af9" fill-rule="evenodd" fill-opacity="0.5"/>
<polyline clip-path="url(#clip661)" style="stroke:#009af9; stroke-linecap:round; stroke-linejoin:round; stroke-width:12; stroke-opacity:1; fill:none" points="175.59,1308.51 196.727,1299.53 217.865,1286.39 239.002,1273.18 260.14,1254.74 281.277,1229.5 302.415,1206.82 323.553,1169.61 344.69,1132.95 365.828,1087.92 386.965,1063.16 408.103,987.061 429.24,923.133 450.378,860.267 471.515,803.072 492.653,726.767 513.79,634.332 534.928,558.272 556.065,475.281 577.203,410.144 598.34,426.42 619.478,510.639 640.616,674.004 661.753,874.988 682.891,1039.83 704.028,1140.09 725.166,1210.38 746.303,1259.64 767.441,1300.26 788.578,1313.05 809.716,1319.48 830.853,1335.56 851.991,1341.05 873.128,1335.86 894.266,1328.72 915.404,1316.98 936.541,1301.81 957.679,1285.9 978.816,1260.58 999.954,1245.52 1021.09,1214.48 1042.23,1171.48 1063.37,1107.9 1084.5,1059.38 1105.64,1017.46 1126.78,964.915 1147.92,914.62 1169.05,828.553 1190.19,769.251 1211.33,707.34 1232.47,674.144 1253.6,604.069 1274.74,533.922 1295.88,513.271 1317.02,484.319 1338.15,542.615 1359.29,742.498 1380.43,877.522 1401.57,985.86 1422.7,1069.44 1443.84,1129.41 1464.98,1175.59 1486.12,1223.73 1507.25,1276.94 1528.39,1310.35 1549.53,1310.72 1570.67,1308.94 1591.8,1301.98 1612.94,1301.71 1634.08,1293.89 1655.22,1279.21 1676.35,1260.13 1697.49,1240.98 1718.63,1213.28 1739.77,1179.62 1760.9,1144.49 1782.04,1121.09 1803.18,1100.13 1824.32,1072.13 1845.46,1005.33 1866.59,946.258 1887.73,869.232 1908.87,770.522 1930.01,690.934 1951.14,693.395 1972.28,652.105 1993.42,641.48 2014.56,605.553 2035.69,625.276 2056.83,618.103 2077.97,698.835 2099.11,817.112 2120.24,964.851 2141.38,1038.63 2162.52,1077.07 2183.66,1124.73 2204.79,1175.03 2225.93,1229.57 2247.07,1270.62 2268.21,1281.84 2289.34,1282.07 "/>
<path clip-path="url(#clip661)" d="M175.59 1308.51 L196.727 1342.03 L217.865 1363.54 L239.002 1379.98 L260.14 1390.55 L281.277 1401.21 L302.415 1410.54 L323.553 1419.33 L344.69 1424.59 L365.828 1429.41 L386.965 1431.71 L408.103 1434.05 L429.24 1435.57 L450.378 1436.62 L471.515 1435.96 L492.653 1435.67 L513.79 1432.42 L534.928 1427.08 L556.065 1419.52 L577.203 1401.8 L598.34 1370.46 L619.478 1312.79 L640.616 1202.56 L661.753 1044.31 L682.891 934.067 L704.028 886.881 L725.166 960.871 L746.303 1033.35 L767.441 1119.42 L788.578 1183.65 L809.716 1238.81 L830.853 1282.12 L851.991 1312.63 L873.128 1338.85 L894.266 1363.12 L915.404 1378.67 L936.541 1391.97 L957.679 1401.99 L978.816 1409.67 L999.954 1417.58 L1021.09 1424.95 L1042.23 1431.74 L1063.37 1436.38 L1084.5 1440.37 L1105.64 1443.22 L1126.78 1444.89 L1147.92 1445.53 L1169.05 1445.72 L1190.19 1445.7 L1211.33 1445.09 L1232.47 1442.87 L1253.6 1438.99 L1274.74 1434.05 L1295.88 1426.4 L1317.02 1412.42 L1338.15 1392.22 L1359.29 1352.84 L1380.43 1280.81 L1401.57 1152.75 L1422.7 993.504 L1443.84 1059 L1464.98 1124.77 L1486.12 1188.17 L1507.25 1233.97 L1528.39 1276.71 L1549.53 1309.07 L1570.67 1328.55 L1591.8 1349.87 L1612.94 1366 L1634.08 1383.4 L1655.22 1397.73 L1676.35 1408.63 L1697.49 1415.82 L1718.63 1421.2 L1739.77 1427.01 L1760.9 1430.68 L1782.04 1433.92 L1803.18 1436.93 L1824.32 1440.84 L1845.46 1442.4 L1866.59 1443.39 L1887.73 1444.61 L1908.87 1445.44 L1930.01 1445.15 L1951.14 1445.49 L1972.28 1445.67 L1993.42 1445.26 L2014.56 1442.89 L2035.69 1439.05 L2056.83 1433.36 L2077.97 1419.56 L2099.11 1396.65 L2120.24 1366.5 L2141.38 1320.43 L2162.52 1237.22 L2183.66 1151.47 L2204.79 1205.26 L2225.93 1240.72 L2247.07 1287.07 L2268.21 1315.1 L2289.34 1339.15 L2289.34 717.143 L2268.21 633.605 L2247.07 621.916 L2225.93 626.714 L2204.79 546.892 L2183.66 560.487 L2162.52 693.907 L2141.38 795.732 L2120.24 816.699 L2099.11 759.851 L2077.97 759.638 L2056.83 786.919 L2035.69 870.141 L2014.56 1019.42 L1993.42 1124.79 L1972.28 1201.23 L1951.14 1266.43 L1930.01 1318.91 L1908.87 1358.8 L1887.73 1376.31 L1866.59 1382.88 L1845.46 1385.65 L1824.32 1389.15 L1803.18 1390.73 L1782.04 1390.22 L1760.9 1385.21 L1739.77 1376.23 L1718.63 1362.9 L1697.49 1341.85 L1676.35 1303.54 L1655.22 1270.32 L1634.08 1217.76 L1612.94 1148.5 L1591.8 1050.8 L1570.67 949.536 L1549.53 835.008 L1528.39 714.994 L1507.25 606.208 L1486.12 557.525 L1464.98 553.278 L1443.84 607.731 L1422.7 711.302 L1401.57 714.608 L1380.43 724.673 L1359.29 697.928 L1338.15 732.939 L1317.02 847.115 L1295.88 1008.19 L1274.74 1168.47 L1253.6 1262.17 L1232.47 1323.71 L1211.33 1365.12 L1190.19 1385.9 L1169.05 1399.29 L1147.92 1401.41 L1126.78 1403.5 L1105.64 1405.17 L1084.5 1410.73 L1063.37 1408.57 L1042.23 1404.71 L1021.09 1395.68 L999.954 1386.88 L978.816 1370.07 L957.679 1355.6 L936.541 1327.19 L915.404 1293.66 L894.266 1264.18 L873.128 1202.29 L851.991 1135.15 L830.853 1025.97 L809.716 945.371 L788.578 821.484 L767.441 725.495 L746.303 615.148 L725.166 495.142 L704.028 480.165 L682.891 557.346 L661.753 671.308 L640.616 736.764 L619.478 889.773 L598.34 1043.82 L577.203 1182.67 L556.065 1260.47 L534.928 1318.67 L513.79 1351.17 L492.653 1380.68 L471.515 1394.83 L450.378 1401.43 L429.24 1405.65 L408.103 1410.29 L386.965 1410.36 L365.828 1410.74 L344.69 1405.23 L323.553 1401.09 L302.415 1391.63 L281.277 1383.96 L260.14 1376.07 L239.002 1361.09 L217.865 1350.7 L196.727 1327.64 L175.59 1308.51  Z" fill="#e26f46" fill-rule="evenodd" fill-opacity="0.5"/>
<polyline clip-path="url(#clip661)" style="stroke:#e26f46; stroke-linecap:round; stroke-linejoin:round; stroke-width:12; stroke-opacity:1; fill:none" points="175.59,1308.51 196.727,1335.89 217.865,1357.87 239.002,1373.59 260.14,1385.25 281.277,1394.43 302.415,1403.88 323.553,1410.04 344.69,1413.57 365.828,1415.9 386.965,1417.8 408.103,1420.14 429.24,1419.9 450.378,1416.08 471.515,1408.71 492.653,1399.04 513.79,1387.64 534.928,1363.04 556.065,1313.23 577.203,1242.77 598.34,1156.11 619.478,1019.91 640.616,868.517 661.753,774.95 682.891,749.33 704.028,793.791 725.166,864.874 746.303,954.736 767.441,1045.56 788.578,1117.41 809.716,1185.33 830.853,1236.36 851.991,1257.78 873.128,1304.47 894.266,1335.87 915.404,1358.33 936.541,1377.73 957.679,1391.45 978.816,1401.52 999.954,1408.76 1021.09,1414.59 1042.23,1418.61 1063.37,1421.48 1084.5,1423.61 1105.64,1425.27 1126.78,1427.98 1147.92,1426.34 1169.05,1421.7 1190.19,1413.24 1211.33,1402.13 1232.47,1384.3 1253.6,1356.26 1274.74,1310.99 1295.88,1255.68 1317.02,1160.84 1338.15,1041.37 1359.29,939.785 1380.43,909.015 1401.57,910.33 1422.7,882.064 1443.84,843.729 1464.98,953.971 1486.12,1017.95 1507.25,1090.99 1528.39,1147.98 1549.53,1201.76 1570.67,1236.77 1591.8,1258.61 1612.94,1297.2 1634.08,1325.42 1655.22,1346.34 1676.35,1366.46 1697.49,1375.35 1718.63,1387.93 1739.77,1401.79 1760.9,1410 1782.04,1415.68 1803.18,1419.59 1824.32,1419.22 1845.46,1417.52 1866.59,1417.55 1887.73,1410.75 1908.87,1404.12 1930.01,1390.14 1951.14,1373.18 1972.28,1351.08 1993.42,1317.85 2014.56,1273.06 2035.69,1193.41 2056.83,1124.88 2077.97,1072.86 2099.11,1039.74 2120.24,965.265 2141.38,954.04 2162.52,971.271 2183.66,1019.18 2204.79,973.313 2225.93,1022.46 2247.07,1107.49 2268.21,1168.56 2289.34,1223.24 "/>
</svg>
