<?xml version="1.0" encoding="utf-8"?>
<svg xmlns="http://www.w3.org/2000/svg" xmlns:xlink="http://www.w3.org/1999/xlink" width="600" height="400" viewBox="0 0 2400 1600">
<defs>
  <clipPath id="clip810">
    <rect x="0" y="0" width="2400" height="1600"/>
  </clipPath>
</defs>
<path clip-path="url(#clip810)" d="M0 1600 L2400 1600 L2400 0 L0 0  Z" fill="#ffffff" fill-rule="evenodd" fill-opacity="1"/>
<defs>
  <clipPath id="clip811">
    <rect x="186" y="47" width="2167" height="1440"/>
  </clipPath>
</defs>
<path clip-path="url(#clip810)" d="M186.274 1486.45 L2352.76 1486.45 L2352.76 47.2441 L186.274 47.2441  Z" fill="#ffffff" fill-rule="evenodd" fill-opacity="1"/>
<polyline clip-path="url(#clip811)" style="stroke:#000000; stroke-linecap:round; stroke-linejoin:round; stroke-width:2; stroke-opacity:0.1; fill:none" points="247.59,1486.45 247.59,47.2441 "/>
<polyline clip-path="url(#clip811)" style="stroke:#000000; stroke-linecap:round; stroke-linejoin:round; stroke-width:2; stroke-opacity:0.1; fill:none" points="758.552,1486.45 758.552,47.2441 "/>
<polyline clip-path="url(#clip811)" style="stroke:#000000; stroke-linecap:round; stroke-linejoin:round; stroke-width:2; stroke-opacity:0.1; fill:none" points="1269.51,1486.45 1269.51,47.2441 "/>
<polyline clip-path="url(#clip811)" style="stroke:#000000; stroke-linecap:round; stroke-linejoin:round; stroke-width:2; stroke-opacity:0.1; fill:none" points="1780.48,1486.45 1780.48,47.2441 "/>
<polyline clip-path="url(#clip811)" style="stroke:#000000; stroke-linecap:round; stroke-linejoin:round; stroke-width:2; stroke-opacity:0.1; fill:none" points="2291.44,1486.45 2291.44,47.2441 "/>
<polyline clip-path="url(#clip811)" style="stroke:#000000; stroke-linecap:round; stroke-linejoin:round; stroke-width:2; stroke-opacity:0.1; fill:none" points="186.274,1319.11 2352.76,1319.11 "/>
<polyline clip-path="url(#clip811)" style="stroke:#000000; stroke-linecap:round; stroke-linejoin:round; stroke-width:2; stroke-opacity:0.1; fill:none" points="186.274,1003 2352.76,1003 "/>
<polyline clip-path="url(#clip811)" style="stroke:#000000; stroke-linecap:round; stroke-linejoin:round; stroke-width:2; stroke-opacity:0.1; fill:none" points="186.274,686.893 2352.76,686.893 "/>
<polyline clip-path="url(#clip811)" style="stroke:#000000; stroke-linecap:round; stroke-linejoin:round; stroke-width:2; stroke-opacity:0.1; fill:none" points="186.274,370.785 2352.76,370.785 "/>
<polyline clip-path="url(#clip811)" style="stroke:#000000; stroke-linecap:round; stroke-linejoin:round; stroke-width:2; stroke-opacity:0.1; fill:none" points="186.274,54.6782 2352.76,54.6782 "/>
<polyline clip-path="url(#clip810)" style="stroke:#000000; stroke-linecap:round; stroke-linejoin:round; stroke-width:4; stroke-opacity:1; fill:none" points="186.274,1486.45 2352.76,1486.45 "/>
<polyline clip-path="url(#clip810)" style="stroke:#000000; stroke-linecap:round; stroke-linejoin:round; stroke-width:4; stroke-opacity:1; fill:none" points="247.59,1486.45 247.59,1467.55 "/>
<polyline clip-path="url(#clip810)" style="stroke:#000000; stroke-linecap:round; stroke-linejoin:round; stroke-width:4; stroke-opacity:1; fill:none" points="758.552,1486.45 758.552,1467.55 "/>
<polyline clip-path="url(#clip810)" style="stroke:#000000; stroke-linecap:round; stroke-linejoin:round; stroke-width:4; stroke-opacity:1; fill:none" points="1269.51,1486.45 1269.51,1467.55 "/>
<polyline clip-path="url(#clip810)" style="stroke:#000000; stroke-linecap:round; stroke-linejoin:round; stroke-width:4; stroke-opacity:1; fill:none" points="1780.48,1486.45 1780.48,1467.55 "/>
<polyline clip-path="url(#clip810)" style="stroke:#000000; stroke-linecap:round; stroke-linejoin:round; stroke-width:4; stroke-opacity:1; fill:none" points="2291.44,1486.45 2291.44,1467.55 "/>
<path clip-path="url(#clip810)" d="M209.893 1517.37 Q206.282 1517.37 204.453 1520.93 Q202.648 1524.47 202.648 1531.6 Q202.648 1538.71 204.453 1542.27 Q206.282 1545.82 209.893 1545.82 Q213.527 1545.82 215.333 1542.27 Q217.161 1538.71 217.161 1531.6 Q217.161 1524.47 215.333 1520.93 Q213.527 1517.37 209.893 1517.37 M209.893 1513.66 Q215.703 1513.66 218.759 1518.27 Q221.837 1522.85 221.837 1531.6 Q221.837 1540.33 218.759 1544.94 Q215.703 1549.52 209.893 1549.52 Q204.083 1549.52 201.004 1544.94 Q197.949 1540.33 197.949 1531.6 Q197.949 1522.85 201.004 1518.27 Q204.083 1513.66 209.893 1513.66 Z" fill="#000000" fill-rule="nonzero" fill-opacity="1" /><path clip-path="url(#clip810)" d="M230.055 1542.97 L234.939 1542.97 L234.939 1548.85 L230.055 1548.85 L230.055 1542.97 Z" fill="#000000" fill-rule="nonzero" fill-opacity="1" /><path clip-path="url(#clip810)" d="M255.124 1517.37 Q251.513 1517.37 249.684 1520.93 Q247.879 1524.47 247.879 1531.6 Q247.879 1538.71 249.684 1542.27 Q251.513 1545.82 255.124 1545.82 Q258.758 1545.82 260.564 1542.27 Q262.393 1538.71 262.393 1531.6 Q262.393 1524.47 260.564 1520.93 Q258.758 1517.37 255.124 1517.37 M255.124 1513.66 Q260.934 1513.66 263.99 1518.27 Q267.069 1522.85 267.069 1531.6 Q267.069 1540.33 263.99 1544.94 Q260.934 1549.52 255.124 1549.52 Q249.314 1549.52 246.235 1544.94 Q243.18 1540.33 243.18 1531.6 Q243.18 1522.85 246.235 1518.27 Q249.314 1513.66 255.124 1513.66 Z" fill="#000000" fill-rule="nonzero" fill-opacity="1" /><path clip-path="url(#clip810)" d="M285.286 1517.37 Q281.675 1517.37 279.846 1520.93 Q278.041 1524.47 278.041 1531.6 Q278.041 1538.71 279.846 1542.27 Q281.675 1545.82 285.286 1545.82 Q288.92 1545.82 290.726 1542.27 Q292.555 1538.71 292.555 1531.6 Q292.555 1524.47 290.726 1520.93 Q288.92 1517.37 285.286 1517.37 M285.286 1513.66 Q291.096 1513.66 294.152 1518.27 Q297.23 1522.85 297.23 1531.6 Q297.23 1540.33 294.152 1544.94 Q291.096 1549.52 285.286 1549.52 Q279.476 1549.52 276.397 1544.94 Q273.342 1540.33 273.342 1531.6 Q273.342 1522.85 276.397 1518.27 Q279.476 1513.66 285.286 1513.66 Z" fill="#000000" fill-rule="nonzero" fill-opacity="1" /><path clip-path="url(#clip810)" d="M721.353 1517.37 Q717.742 1517.37 715.914 1520.93 Q714.108 1524.47 714.108 1531.6 Q714.108 1538.71 715.914 1542.27 Q717.742 1545.82 721.353 1545.82 Q724.988 1545.82 726.793 1542.27 Q728.622 1538.71 728.622 1531.6 Q728.622 1524.47 726.793 1520.93 Q724.988 1517.37 721.353 1517.37 M721.353 1513.66 Q727.164 1513.66 730.219 1518.27 Q733.298 1522.85 733.298 1531.6 Q733.298 1540.33 730.219 1544.94 Q727.164 1549.52 721.353 1549.52 Q715.543 1549.52 712.465 1544.94 Q709.409 1540.33 709.409 1531.6 Q709.409 1522.85 712.465 1518.27 Q715.543 1513.66 721.353 1513.66 Z" fill="#000000" fill-rule="nonzero" fill-opacity="1" /><path clip-path="url(#clip810)" d="M741.515 1542.97 L746.4 1542.97 L746.4 1548.85 L741.515 1548.85 L741.515 1542.97 Z" fill="#000000" fill-rule="nonzero" fill-opacity="1" /><path clip-path="url(#clip810)" d="M760.612 1544.91 L776.932 1544.91 L776.932 1548.85 L754.987 1548.85 L754.987 1544.91 Q757.649 1542.16 762.233 1537.53 Q766.839 1532.88 768.02 1531.53 Q770.265 1529.01 771.145 1527.27 Q772.048 1525.51 772.048 1523.82 Q772.048 1521.07 770.103 1519.33 Q768.182 1517.6 765.08 1517.6 Q762.881 1517.6 760.427 1518.36 Q757.997 1519.13 755.219 1520.68 L755.219 1515.95 Q758.043 1514.82 760.497 1514.24 Q762.95 1513.66 764.987 1513.66 Q770.358 1513.66 773.552 1516.35 Q776.747 1519.03 776.747 1523.52 Q776.747 1525.65 775.936 1527.57 Q775.149 1529.47 773.043 1532.07 Q772.464 1532.74 769.362 1535.95 Q766.261 1539.15 760.612 1544.91 Z" fill="#000000" fill-rule="nonzero" fill-opacity="1" /><path clip-path="url(#clip810)" d="M786.793 1514.29 L805.149 1514.29 L805.149 1518.22 L791.075 1518.22 L791.075 1526.7 Q792.094 1526.35 793.112 1526.19 Q794.131 1526 795.149 1526 Q800.936 1526 804.316 1529.17 Q807.695 1532.34 807.695 1537.76 Q807.695 1543.34 804.223 1546.44 Q800.751 1549.52 794.432 1549.52 Q792.256 1549.52 789.987 1549.15 Q787.742 1548.78 785.335 1548.04 L785.335 1543.34 Q787.418 1544.47 789.64 1545.03 Q791.862 1545.58 794.339 1545.58 Q798.344 1545.58 800.682 1543.48 Q803.02 1541.37 803.02 1537.76 Q803.02 1534.15 800.682 1532.04 Q798.344 1529.94 794.339 1529.94 Q792.464 1529.94 790.589 1530.35 Q788.737 1530.77 786.793 1531.65 L786.793 1514.29 Z" fill="#000000" fill-rule="nonzero" fill-opacity="1" /><path clip-path="url(#clip810)" d="M1231.82 1517.37 Q1228.21 1517.37 1226.38 1520.93 Q1224.57 1524.47 1224.57 1531.6 Q1224.57 1538.71 1226.38 1542.27 Q1228.21 1545.82 1231.82 1545.82 Q1235.45 1545.82 1237.26 1542.27 Q1239.09 1538.71 1239.09 1531.6 Q1239.09 1524.47 1237.26 1520.93 Q1235.45 1517.37 1231.82 1517.37 M1231.82 1513.66 Q1237.63 1513.66 1240.68 1518.27 Q1243.76 1522.85 1243.76 1531.6 Q1243.76 1540.33 1240.68 1544.94 Q1237.63 1549.52 1231.82 1549.52 Q1226.01 1549.52 1222.93 1544.94 Q1219.87 1540.33 1219.87 1531.6 Q1219.87 1522.85 1222.93 1518.27 Q1226.01 1513.66 1231.82 1513.66 Z" fill="#000000" fill-rule="nonzero" fill-opacity="1" /><path clip-path="url(#clip810)" d="M1251.98 1542.97 L1256.86 1542.97 L1256.86 1548.85 L1251.98 1548.85 L1251.98 1542.97 Z" fill="#000000" fill-rule="nonzero" fill-opacity="1" /><path clip-path="url(#clip810)" d="M1267.1 1514.29 L1285.45 1514.29 L1285.45 1518.22 L1271.38 1518.22 L1271.38 1526.7 Q1272.4 1526.35 1273.42 1526.19 Q1274.43 1526 1275.45 1526 Q1281.24 1526 1284.62 1529.17 Q1288 1532.34 1288 1537.76 Q1288 1543.34 1284.53 1546.44 Q1281.05 1549.52 1274.73 1549.52 Q1272.56 1549.52 1270.29 1549.15 Q1268.05 1548.78 1265.64 1548.04 L1265.64 1543.34 Q1267.72 1544.47 1269.94 1545.03 Q1272.17 1545.58 1274.64 1545.58 Q1278.65 1545.58 1280.98 1543.48 Q1283.32 1541.37 1283.32 1537.76 Q1283.32 1534.15 1280.98 1532.04 Q1278.65 1529.94 1274.64 1529.94 Q1272.77 1529.94 1270.89 1530.35 Q1269.04 1530.77 1267.1 1531.65 L1267.1 1514.29 Z" fill="#000000" fill-rule="nonzero" fill-opacity="1" /><path clip-path="url(#clip810)" d="M1307.21 1517.37 Q1303.6 1517.37 1301.77 1520.93 Q1299.97 1524.47 1299.97 1531.6 Q1299.97 1538.71 1301.77 1542.27 Q1303.6 1545.82 1307.21 1545.82 Q1310.85 1545.82 1312.65 1542.27 Q1314.48 1538.71 1314.48 1531.6 Q1314.48 1524.47 1312.65 1520.93 Q1310.85 1517.37 1307.21 1517.37 M1307.21 1513.66 Q1313.02 1513.66 1316.08 1518.27 Q1319.16 1522.85 1319.16 1531.6 Q1319.16 1540.33 1316.08 1544.94 Q1313.02 1549.52 1307.21 1549.52 Q1301.4 1549.52 1298.32 1544.94 Q1295.27 1540.33 1295.27 1531.6 Q1295.27 1522.85 1298.32 1518.27 Q1301.4 1513.66 1307.21 1513.66 Z" fill="#000000" fill-rule="nonzero" fill-opacity="1" /><path clip-path="url(#clip810)" d="M1743.28 1517.37 Q1739.67 1517.37 1737.84 1520.93 Q1736.03 1524.47 1736.03 1531.6 Q1736.03 1538.71 1737.84 1542.27 Q1739.67 1545.82 1743.28 1545.82 Q1746.91 1545.82 1748.72 1542.27 Q1750.55 1538.71 1750.55 1531.6 Q1750.55 1524.47 1748.72 1520.93 Q1746.91 1517.37 1743.28 1517.37 M1743.28 1513.66 Q1749.09 1513.66 1752.14 1518.27 Q1755.22 1522.85 1755.22 1531.6 Q1755.22 1540.33 1752.14 1544.94 Q1749.09 1549.52 1743.28 1549.52 Q1737.47 1549.52 1734.39 1544.94 Q1731.33 1540.33 1731.33 1531.6 Q1731.33 1522.85 1734.39 1518.27 Q1737.47 1513.66 1743.28 1513.66 Z" fill="#000000" fill-rule="nonzero" fill-opacity="1" /><path clip-path="url(#clip810)" d="M1763.44 1542.97 L1768.32 1542.97 L1768.32 1548.85 L1763.44 1548.85 L1763.44 1542.97 Z" fill="#000000" fill-rule="nonzero" fill-opacity="1" /><path clip-path="url(#clip810)" d="M1777.33 1514.29 L1799.55 1514.29 L1799.55 1516.28 L1787.01 1548.85 L1782.12 1548.85 L1793.93 1518.22 L1777.33 1518.22 L1777.33 1514.29 Z" fill="#000000" fill-rule="nonzero" fill-opacity="1" /><path clip-path="url(#clip810)" d="M1808.72 1514.29 L1827.07 1514.29 L1827.07 1518.22 L1813 1518.22 L1813 1526.7 Q1814.02 1526.35 1815.04 1526.19 Q1816.06 1526 1817.07 1526 Q1822.86 1526 1826.24 1529.17 Q1829.62 1532.34 1829.62 1537.76 Q1829.62 1543.34 1826.15 1546.44 Q1822.68 1549.52 1816.36 1549.52 Q1814.18 1549.52 1811.91 1549.15 Q1809.67 1548.78 1807.26 1548.04 L1807.26 1543.34 Q1809.34 1544.47 1811.57 1545.03 Q1813.79 1545.58 1816.26 1545.58 Q1820.27 1545.58 1822.61 1543.48 Q1824.95 1541.37 1824.95 1537.76 Q1824.95 1534.15 1822.61 1532.04 Q1820.27 1529.94 1816.26 1529.94 Q1814.39 1529.94 1812.51 1530.35 Q1810.66 1530.77 1808.72 1531.65 L1808.72 1514.29 Z" fill="#000000" fill-rule="nonzero" fill-opacity="1" /><path clip-path="url(#clip810)" d="M2243.51 1544.91 L2251.15 1544.91 L2251.15 1518.55 L2242.84 1520.21 L2242.84 1515.95 L2251.1 1514.29 L2255.78 1514.29 L2255.78 1544.91 L2263.42 1544.91 L2263.42 1548.85 L2243.51 1548.85 L2243.51 1544.91 Z" fill="#000000" fill-rule="nonzero" fill-opacity="1" /><path clip-path="url(#clip810)" d="M2272.86 1542.97 L2277.75 1542.97 L2277.75 1548.85 L2272.86 1548.85 L2272.86 1542.97 Z" fill="#000000" fill-rule="nonzero" fill-opacity="1" /><path clip-path="url(#clip810)" d="M2297.93 1517.37 Q2294.32 1517.37 2292.49 1520.93 Q2290.69 1524.47 2290.69 1531.6 Q2290.69 1538.71 2292.49 1542.27 Q2294.32 1545.82 2297.93 1545.82 Q2301.57 1545.82 2303.37 1542.27 Q2305.2 1538.71 2305.2 1531.6 Q2305.2 1524.47 2303.37 1520.93 Q2301.57 1517.37 2297.93 1517.37 M2297.93 1513.66 Q2303.74 1513.66 2306.8 1518.27 Q2309.88 1522.85 2309.88 1531.6 Q2309.88 1540.33 2306.8 1544.94 Q2303.74 1549.52 2297.93 1549.52 Q2292.12 1549.52 2289.04 1544.94 Q2285.99 1540.33 2285.99 1531.6 Q2285.99 1522.85 2289.04 1518.27 Q2292.12 1513.66 2297.93 1513.66 Z" fill="#000000" fill-rule="nonzero" fill-opacity="1" /><path clip-path="url(#clip810)" d="M2328.1 1517.37 Q2324.48 1517.37 2322.66 1520.93 Q2320.85 1524.47 2320.85 1531.6 Q2320.85 1538.71 2322.66 1542.27 Q2324.48 1545.82 2328.1 1545.82 Q2331.73 1545.82 2333.54 1542.27 Q2335.36 1538.71 2335.36 1531.6 Q2335.36 1524.47 2333.54 1520.93 Q2331.73 1517.37 2328.1 1517.37 M2328.1 1513.66 Q2333.91 1513.66 2336.96 1518.27 Q2340.04 1522.85 2340.04 1531.6 Q2340.04 1540.33 2336.96 1544.94 Q2333.91 1549.52 2328.1 1549.52 Q2322.29 1549.52 2319.21 1544.94 Q2316.15 1540.33 2316.15 1531.6 Q2316.15 1522.85 2319.21 1518.27 Q2322.29 1513.66 2328.1 1513.66 Z" fill="#000000" fill-rule="nonzero" fill-opacity="1" /><polyline clip-path="url(#clip810)" style="stroke:#000000; stroke-linecap:round; stroke-linejoin:round; stroke-width:4; stroke-opacity:1; fill:none" points="186.274,1486.45 186.274,47.2441 "/>
<polyline clip-path="url(#clip810)" style="stroke:#000000; stroke-linecap:round; stroke-linejoin:round; stroke-width:4; stroke-opacity:1; fill:none" points="186.274,1319.11 205.172,1319.11 "/>
<polyline clip-path="url(#clip810)" style="stroke:#000000; stroke-linecap:round; stroke-linejoin:round; stroke-width:4; stroke-opacity:1; fill:none" points="186.274,1003 205.172,1003 "/>
<polyline clip-path="url(#clip810)" style="stroke:#000000; stroke-linecap:round; stroke-linejoin:round; stroke-width:4; stroke-opacity:1; fill:none" points="186.274,686.893 205.172,686.893 "/>
<polyline clip-path="url(#clip810)" style="stroke:#000000; stroke-linecap:round; stroke-linejoin:round; stroke-width:4; stroke-opacity:1; fill:none" points="186.274,370.785 205.172,370.785 "/>
<polyline clip-path="url(#clip810)" style="stroke:#000000; stroke-linecap:round; stroke-linejoin:round; stroke-width:4; stroke-opacity:1; fill:none" points="186.274,54.6782 205.172,54.6782 "/>
<path clip-path="url(#clip810)" d="M62.9365 1304.91 Q59.3254 1304.91 57.4967 1308.47 Q55.6912 1312.01 55.6912 1319.14 Q55.6912 1326.25 57.4967 1329.81 Q59.3254 1333.35 62.9365 1333.35 Q66.5707 1333.35 68.3763 1329.81 Q70.205 1326.25 70.205 1319.14 Q70.205 1312.01 68.3763 1308.47 Q66.5707 1304.91 62.9365 1304.91 M62.9365 1301.2 Q68.7467 1301.2 71.8022 1305.81 Q74.8809 1310.39 74.8809 1319.14 Q74.8809 1327.87 71.8022 1332.47 Q68.7467 1337.06 62.9365 1337.06 Q57.1264 1337.06 54.0477 1332.47 Q50.9921 1327.87 50.9921 1319.14 Q50.9921 1310.39 54.0477 1305.81 Q57.1264 1301.2 62.9365 1301.2 Z" fill="#000000" fill-rule="nonzero" fill-opacity="1" /><path clip-path="url(#clip810)" d="M83.0984 1330.51 L87.9827 1330.51 L87.9827 1336.39 L83.0984 1336.39 L83.0984 1330.51 Z" fill="#000000" fill-rule="nonzero" fill-opacity="1" /><path clip-path="url(#clip810)" d="M98.2141 1301.83 L116.57 1301.83 L116.57 1305.76 L102.496 1305.76 L102.496 1314.23 Q103.515 1313.89 104.534 1313.73 Q105.552 1313.54 106.571 1313.54 Q112.358 1313.54 115.737 1316.71 Q119.117 1319.88 119.117 1325.3 Q119.117 1330.88 115.645 1333.98 Q112.172 1337.06 105.853 1337.06 Q103.677 1337.06 101.409 1336.69 Q99.1632 1336.32 96.7558 1335.58 L96.7558 1330.88 Q98.8391 1332.01 101.061 1332.57 Q103.284 1333.12 105.76 1333.12 Q109.765 1333.12 112.103 1331.02 Q114.441 1328.91 114.441 1325.3 Q114.441 1321.69 112.103 1319.58 Q109.765 1317.48 105.76 1317.48 Q103.885 1317.48 102.01 1317.89 Q100.159 1318.31 98.2141 1319.19 L98.2141 1301.83 Z" fill="#000000" fill-rule="nonzero" fill-opacity="1" /><path clip-path="url(#clip810)" d="M138.33 1304.91 Q134.719 1304.91 132.89 1308.47 Q131.084 1312.01 131.084 1319.14 Q131.084 1326.25 132.89 1329.81 Q134.719 1333.35 138.33 1333.35 Q141.964 1333.35 143.769 1329.81 Q145.598 1326.25 145.598 1319.14 Q145.598 1312.01 143.769 1308.47 Q141.964 1304.91 138.33 1304.91 M138.33 1301.2 Q144.14 1301.2 147.195 1305.81 Q150.274 1310.39 150.274 1319.14 Q150.274 1327.87 147.195 1332.47 Q144.14 1337.06 138.33 1337.06 Q132.519 1337.06 129.441 1332.47 Q126.385 1327.87 126.385 1319.14 Q126.385 1310.39 129.441 1305.81 Q132.519 1301.2 138.33 1301.2 Z" fill="#000000" fill-rule="nonzero" fill-opacity="1" /><path clip-path="url(#clip810)" d="M63.9319 988.798 Q60.3208 988.798 58.4921 992.363 Q56.6865 995.905 56.6865 1003.03 Q56.6865 1010.14 58.4921 1013.71 Q60.3208 1017.25 63.9319 1017.25 Q67.5661 1017.25 69.3717 1013.71 Q71.2004 1010.14 71.2004 1003.03 Q71.2004 995.905 69.3717 992.363 Q67.5661 988.798 63.9319 988.798 M63.9319 985.095 Q69.742 985.095 72.7976 989.701 Q75.8763 994.285 75.8763 1003.03 Q75.8763 1011.76 72.7976 1016.37 Q69.742 1020.95 63.9319 1020.95 Q58.1217 1020.95 55.043 1016.37 Q51.9875 1011.76 51.9875 1003.03 Q51.9875 994.285 55.043 989.701 Q58.1217 985.095 63.9319 985.095 Z" fill="#000000" fill-rule="nonzero" fill-opacity="1" /><path clip-path="url(#clip810)" d="M84.0938 1014.4 L88.978 1014.4 L88.978 1020.28 L84.0938 1020.28 L84.0938 1014.4 Z" fill="#000000" fill-rule="nonzero" fill-opacity="1" /><path clip-path="url(#clip810)" d="M97.9826 985.72 L120.205 985.72 L120.205 987.71 L107.658 1020.28 L102.774 1020.28 L114.58 989.655 L97.9826 989.655 L97.9826 985.72 Z" fill="#000000" fill-rule="nonzero" fill-opacity="1" /><path clip-path="url(#clip810)" d="M129.371 985.72 L147.728 985.72 L147.728 989.655 L133.654 989.655 L133.654 998.127 Q134.672 997.78 135.691 997.618 Q136.709 997.433 137.728 997.433 Q143.515 997.433 146.894 1000.6 Q150.274 1003.78 150.274 1009.19 Q150.274 1014.77 146.802 1017.87 Q143.33 1020.95 137.01 1020.95 Q134.834 1020.95 132.566 1020.58 Q130.32 1020.21 127.913 1019.47 L127.913 1014.77 Q129.996 1015.9 132.219 1016.46 Q134.441 1017.02 136.918 1017.02 Q140.922 1017.02 143.26 1014.91 Q145.598 1012.8 145.598 1009.19 Q145.598 1005.58 143.26 1003.47 Q140.922 1001.37 136.918 1001.37 Q135.043 1001.37 133.168 1001.78 Q131.316 1002.2 129.371 1003.08 L129.371 985.72 Z" fill="#000000" fill-rule="nonzero" fill-opacity="1" /><path clip-path="url(#clip810)" d="M53.7467 700.237 L61.3856 700.237 L61.3856 673.872 L53.0754 675.538 L53.0754 671.279 L61.3393 669.613 L66.0152 669.613 L66.0152 700.237 L73.654 700.237 L73.654 704.173 L53.7467 704.173 L53.7467 700.237 Z" fill="#000000" fill-rule="nonzero" fill-opacity="1" /><path clip-path="url(#clip810)" d="M83.0984 698.293 L87.9827 698.293 L87.9827 704.173 L83.0984 704.173 L83.0984 698.293 Z" fill="#000000" fill-rule="nonzero" fill-opacity="1" /><path clip-path="url(#clip810)" d="M108.168 672.691 Q104.557 672.691 102.728 676.256 Q100.922 679.798 100.922 686.927 Q100.922 694.034 102.728 697.599 Q104.557 701.14 108.168 701.14 Q111.802 701.14 113.608 697.599 Q115.436 694.034 115.436 686.927 Q115.436 679.798 113.608 676.256 Q111.802 672.691 108.168 672.691 M108.168 668.988 Q113.978 668.988 117.033 673.594 Q120.112 678.177 120.112 686.927 Q120.112 695.654 117.033 700.261 Q113.978 704.844 108.168 704.844 Q102.358 704.844 99.2789 700.261 Q96.2234 695.654 96.2234 686.927 Q96.2234 678.177 99.2789 673.594 Q102.358 668.988 108.168 668.988 Z" fill="#000000" fill-rule="nonzero" fill-opacity="1" /><path clip-path="url(#clip810)" d="M138.33 672.691 Q134.719 672.691 132.89 676.256 Q131.084 679.798 131.084 686.927 Q131.084 694.034 132.89 697.599 Q134.719 701.14 138.33 701.14 Q141.964 701.14 143.769 697.599 Q145.598 694.034 145.598 686.927 Q145.598 679.798 143.769 676.256 Q141.964 672.691 138.33 672.691 M138.33 668.988 Q144.14 668.988 147.195 673.594 Q150.274 678.177 150.274 686.927 Q150.274 695.654 147.195 700.261 Q144.14 704.844 138.33 704.844 Q132.519 704.844 129.441 700.261 Q126.385 695.654 126.385 686.927 Q126.385 678.177 129.441 673.594 Q132.519 668.988 138.33 668.988 Z" fill="#000000" fill-rule="nonzero" fill-opacity="1" /><path clip-path="url(#clip810)" d="M54.7421 384.13 L62.381 384.13 L62.381 357.765 L54.0708 359.431 L54.0708 355.172 L62.3347 353.505 L67.0106 353.505 L67.0106 384.13 L74.6494 384.13 L74.6494 388.065 L54.7421 388.065 L54.7421 384.13 Z" fill="#000000" fill-rule="nonzero" fill-opacity="1" /><path clip-path="url(#clip810)" d="M84.0938 382.186 L88.978 382.186 L88.978 388.065 L84.0938 388.065 L84.0938 382.186 Z" fill="#000000" fill-rule="nonzero" fill-opacity="1" /><path clip-path="url(#clip810)" d="M103.191 384.13 L119.51 384.13 L119.51 388.065 L97.566 388.065 L97.566 384.13 Q100.228 381.376 104.811 376.746 Q109.418 372.093 110.598 370.751 Q112.844 368.228 113.723 366.491 Q114.626 364.732 114.626 363.042 Q114.626 360.288 112.682 358.552 Q110.76 356.816 107.658 356.816 Q105.459 356.816 103.006 357.579 Q100.575 358.343 97.7974 359.894 L97.7974 355.172 Q100.621 354.038 103.075 353.459 Q105.529 352.88 107.566 352.88 Q112.936 352.88 116.131 355.566 Q119.325 358.251 119.325 362.741 Q119.325 364.871 118.515 366.792 Q117.728 368.69 115.621 371.283 Q115.043 371.954 111.941 375.172 Q108.839 378.366 103.191 384.13 Z" fill="#000000" fill-rule="nonzero" fill-opacity="1" /><path clip-path="url(#clip810)" d="M129.371 353.505 L147.728 353.505 L147.728 357.441 L133.654 357.441 L133.654 365.913 Q134.672 365.565 135.691 365.403 Q136.709 365.218 137.728 365.218 Q143.515 365.218 146.894 368.39 Q150.274 371.561 150.274 376.977 Q150.274 382.556 146.802 385.658 Q143.33 388.737 137.01 388.737 Q134.834 388.737 132.566 388.366 Q130.32 387.996 127.913 387.255 L127.913 382.556 Q129.996 383.69 132.219 384.246 Q134.441 384.801 136.918 384.801 Q140.922 384.801 143.26 382.695 Q145.598 380.589 145.598 376.977 Q145.598 373.366 143.26 371.26 Q140.922 369.153 136.918 369.153 Q135.043 369.153 133.168 369.57 Q131.316 369.987 129.371 370.866 L129.371 353.505 Z" fill="#000000" fill-rule="nonzero" fill-opacity="1" /><path clip-path="url(#clip810)" d="M53.7467 68.023 L61.3856 68.023 L61.3856 41.6574 L53.0754 43.3241 L53.0754 39.0648 L61.3393 37.3982 L66.0152 37.3982 L66.0152 68.023 L73.654 68.023 L73.654 71.9582 L53.7467 71.9582 L53.7467 68.023 Z" fill="#000000" fill-rule="nonzero" fill-opacity="1" /><path clip-path="url(#clip810)" d="M83.0984 66.0786 L87.9827 66.0786 L87.9827 71.9582 L83.0984 71.9582 L83.0984 66.0786 Z" fill="#000000" fill-rule="nonzero" fill-opacity="1" /><path clip-path="url(#clip810)" d="M98.2141 37.3982 L116.57 37.3982 L116.57 41.3333 L102.496 41.3333 L102.496 49.8055 Q103.515 49.4583 104.534 49.2962 Q105.552 49.1111 106.571 49.1111 Q112.358 49.1111 115.737 52.2823 Q119.117 55.4536 119.117 60.8703 Q119.117 66.4489 115.645 69.5508 Q112.172 72.6295 105.853 72.6295 Q103.677 72.6295 101.409 72.2591 Q99.1632 71.8887 96.7558 71.148 L96.7558 66.4489 Q98.8391 67.5832 101.061 68.1387 Q103.284 68.6943 105.76 68.6943 Q109.765 68.6943 112.103 66.5878 Q114.441 64.4814 114.441 60.8703 Q114.441 57.2592 112.103 55.1527 Q109.765 53.0462 105.76 53.0462 Q103.885 53.0462 102.01 53.4629 Q100.159 53.8796 98.2141 54.7592 L98.2141 37.3982 Z" fill="#000000" fill-rule="nonzero" fill-opacity="1" /><path clip-path="url(#clip810)" d="M138.33 40.4769 Q134.719 40.4769 132.89 44.0416 Q131.084 47.5833 131.084 54.7129 Q131.084 61.8193 132.89 65.3841 Q134.719 68.9258 138.33 68.9258 Q141.964 68.9258 143.769 65.3841 Q145.598 61.8193 145.598 54.7129 Q145.598 47.5833 143.769 44.0416 Q141.964 40.4769 138.33 40.4769 M138.33 36.7732 Q144.14 36.7732 147.195 41.3796 Q150.274 45.9629 150.274 54.7129 Q150.274 63.4397 147.195 68.0461 Q144.14 72.6295 138.33 72.6295 Q132.519 72.6295 129.441 68.0461 Q126.385 63.4397 126.385 54.7129 Q126.385 45.9629 129.441 41.3796 Q132.519 36.7732 138.33 36.7732 Z" fill="#000000" fill-rule="nonzero" fill-opacity="1" /><polyline clip-path="url(#clip811)" style="stroke:#009af9; stroke-linecap:round; stroke-linejoin:round; stroke-width:12; stroke-opacity:1; fill:none" points="247.59,1319.11 451.975,1182.31 656.36,1019.82 860.745,941.443 1065.13,875.214 1269.51,817.717 1473.9,775.828 1678.29,561.547 1882.67,412.456 2087.06,308.402 2291.44,590.875 "/>
<polyline clip-path="url(#clip811)" style="stroke:#e26f46; stroke-linecap:round; stroke-linejoin:round; stroke-width:12; stroke-opacity:1; fill:none" points="247.59,1319.11 451.975,1239.76 656.36,1315.44 860.745,1267.05 1065.13,1114.29 1269.51,969.681 1473.9,756.365 1678.29,702.961 1882.67,508.347 2087.06,426.313 2291.44,500.728 "/>
<polyline clip-path="url(#clip811)" style="stroke:#3da44d; stroke-linecap:round; stroke-linejoin:round; stroke-width:12; stroke-opacity:1; fill:none" points="247.59,1319.11 451.975,1339.1 656.36,1310.62 860.745,1260.23 1065.13,1144.22 1269.51,1104.97 1473.9,1036.91 1678.29,1042.19 1882.67,979.388 2087.06,941.728 2291.44,1088.51 "/>
<polyline clip-path="url(#clip811)" style="stroke:#c271d2; stroke-linecap:round; stroke-linejoin:round; stroke-width:12; stroke-opacity:1; fill:none" points="247.59,1319.11 451.975,1363.05 656.36,1222.98 860.745,1072.9 1065.13,1023.1 1269.51,979.694 1473.9,743.775 1678.29,651.098 1882.67,437.098 2087.06,104.318 2291.44,87.9763 "/>
<polyline clip-path="url(#clip811)" style="stroke:#ac8d18; stroke-linecap:round; stroke-linejoin:round; stroke-width:12; stroke-opacity:1; fill:none" points="247.59,1319.11 451.975,1445.72 656.36,1402.35 860.745,1315.41 1065.13,1247.82 1269.51,1303.99 1473.9,1358.44 1678.29,1283.32 1882.67,1177.22 2087.06,1133.14 2291.44,1109.55 "/>
<polyline clip-path="url(#clip811)" style="stroke:#00a9ad; stroke-linecap:round; stroke-linejoin:round; stroke-width:12; stroke-opacity:1; fill:none" points="247.59,1319.11 451.975,1211.73 656.36,1093.78 860.745,1156.41 1065.13,1056.13 1269.51,743.097 1473.9,785.641 1678.29,516.286 1882.67,555.725 2087.06,580.894 2291.44,554.886 "/>
<polyline clip-path="url(#clip811)" style="stroke:#ed5d92; stroke-linecap:round; stroke-linejoin:round; stroke-width:12; stroke-opacity:1; fill:none" points="247.59,1319.11 451.975,1265.72 656.36,1256.08 860.745,1186.03 1065.13,1113.85 1269.51,969.114 1473.9,946.192 1678.29,819.262 1882.67,687.199 2087.06,574.408 2291.44,450.757 "/>
<polyline clip-path="url(#clip811)" style="stroke:#c68125; stroke-linecap:round; stroke-linejoin:round; stroke-width:12; stroke-opacity:1; fill:none" points="247.59,1319.11 451.975,1256.96 656.36,1229.29 860.745,1126.59 1065.13,1056.5 1269.51,1006.45 1473.9,1001.52 1678.29,1077.43 1882.67,1139.65 2087.06,1015.16 2291.44,828.945 "/>
</svg>
