<?xml version="1.0" encoding="utf-8"?>
<svg xmlns="http://www.w3.org/2000/svg" xmlns:xlink="http://www.w3.org/1999/xlink" width="600" height="400" viewBox="0 0 2400 1600">
<defs>
  <clipPath id="clip350">
    <rect x="0" y="0" width="2400" height="1600"/>
  </clipPath>
</defs>
<path clip-path="url(#clip350)" d="M0 1600 L2400 1600 L2400 0 L0 0  Z" fill="#ffffff" fill-rule="evenodd" fill-opacity="1"/>
<defs>
  <clipPath id="clip351">
    <rect x="155" y="47" width="2198" height="1440"/>
  </clipPath>
</defs>
<path clip-path="url(#clip350)" d="M155.765 1486.45 L2352.76 1486.45 L2352.76 47.2441 L155.765 47.2441  Z" fill="#ffffff" fill-rule="evenodd" fill-opacity="1"/>
<polyline clip-path="url(#clip351)" style="stroke:#000000; stroke-linecap:round; stroke-linejoin:round; stroke-width:2; stroke-opacity:0.1; fill:none" points="217.944,1486.45 217.944,47.2441 "/>
<polyline clip-path="url(#clip351)" style="stroke:#000000; stroke-linecap:round; stroke-linejoin:round; stroke-width:2; stroke-opacity:0.1; fill:none" points="736.102,1486.45 736.102,47.2441 "/>
<polyline clip-path="url(#clip351)" style="stroke:#000000; stroke-linecap:round; stroke-linejoin:round; stroke-width:2; stroke-opacity:0.1; fill:none" points="1254.26,1486.45 1254.26,47.2441 "/>
<polyline clip-path="url(#clip351)" style="stroke:#000000; stroke-linecap:round; stroke-linejoin:round; stroke-width:2; stroke-opacity:0.1; fill:none" points="1772.42,1486.45 1772.42,47.2441 "/>
<polyline clip-path="url(#clip351)" style="stroke:#000000; stroke-linecap:round; stroke-linejoin:round; stroke-width:2; stroke-opacity:0.1; fill:none" points="2290.58,1486.45 2290.58,47.2441 "/>
<polyline clip-path="url(#clip351)" style="stroke:#000000; stroke-linecap:round; stroke-linejoin:round; stroke-width:2; stroke-opacity:0.1; fill:none" points="155.765,1323.47 2352.76,1323.47 "/>
<polyline clip-path="url(#clip351)" style="stroke:#000000; stroke-linecap:round; stroke-linejoin:round; stroke-width:2; stroke-opacity:0.1; fill:none" points="155.765,1127.69 2352.76,1127.69 "/>
<polyline clip-path="url(#clip351)" style="stroke:#000000; stroke-linecap:round; stroke-linejoin:round; stroke-width:2; stroke-opacity:0.1; fill:none" points="155.765,931.91 2352.76,931.91 "/>
<polyline clip-path="url(#clip351)" style="stroke:#000000; stroke-linecap:round; stroke-linejoin:round; stroke-width:2; stroke-opacity:0.1; fill:none" points="155.765,736.13 2352.76,736.13 "/>
<polyline clip-path="url(#clip351)" style="stroke:#000000; stroke-linecap:round; stroke-linejoin:round; stroke-width:2; stroke-opacity:0.1; fill:none" points="155.765,540.35 2352.76,540.35 "/>
<polyline clip-path="url(#clip351)" style="stroke:#000000; stroke-linecap:round; stroke-linejoin:round; stroke-width:2; stroke-opacity:0.1; fill:none" points="155.765,344.571 2352.76,344.571 "/>
<polyline clip-path="url(#clip351)" style="stroke:#000000; stroke-linecap:round; stroke-linejoin:round; stroke-width:2; stroke-opacity:0.1; fill:none" points="155.765,148.791 2352.76,148.791 "/>
<polyline clip-path="url(#clip350)" style="stroke:#000000; stroke-linecap:round; stroke-linejoin:round; stroke-width:4; stroke-opacity:1; fill:none" points="155.765,1486.45 2352.76,1486.45 "/>
<polyline clip-path="url(#clip350)" style="stroke:#000000; stroke-linecap:round; stroke-linejoin:round; stroke-width:4; stroke-opacity:1; fill:none" points="217.944,1486.45 217.944,1467.55 "/>
<polyline clip-path="url(#clip350)" style="stroke:#000000; stroke-linecap:round; stroke-linejoin:round; stroke-width:4; stroke-opacity:1; fill:none" points="736.102,1486.45 736.102,1467.55 "/>
<polyline clip-path="url(#clip350)" style="stroke:#000000; stroke-linecap:round; stroke-linejoin:round; stroke-width:4; stroke-opacity:1; fill:none" points="1254.26,1486.45 1254.26,1467.55 "/>
<polyline clip-path="url(#clip350)" style="stroke:#000000; stroke-linecap:round; stroke-linejoin:round; stroke-width:4; stroke-opacity:1; fill:none" points="1772.42,1486.45 1772.42,1467.55 "/>
<polyline clip-path="url(#clip350)" style="stroke:#000000; stroke-linecap:round; stroke-linejoin:round; stroke-width:4; stroke-opacity:1; fill:none" points="2290.58,1486.45 2290.58,1467.55 "/>
<path clip-path="url(#clip350)" d="M180.247 1517.37 Q176.636 1517.37 174.808 1520.93 Q173.002 1524.47 173.002 1531.6 Q173.002 1538.71 174.808 1542.27 Q176.636 1545.82 180.247 1545.82 Q183.882 1545.82 185.687 1542.27 Q187.516 1538.71 187.516 1531.6 Q187.516 1524.47 185.687 1520.93 Q183.882 1517.37 180.247 1517.37 M180.247 1513.66 Q186.057 1513.66 189.113 1518.27 Q192.192 1522.85 192.192 1531.6 Q192.192 1540.33 189.113 1544.94 Q186.057 1549.52 180.247 1549.52 Q174.437 1549.52 171.358 1544.94 Q168.303 1540.33 168.303 1531.6 Q168.303 1522.85 171.358 1518.27 Q174.437 1513.66 180.247 1513.66 Z" fill="#000000" fill-rule="nonzero" fill-opacity="1" /><path clip-path="url(#clip350)" d="M200.409 1542.97 L205.294 1542.97 L205.294 1548.85 L200.409 1548.85 L200.409 1542.97 Z" fill="#000000" fill-rule="nonzero" fill-opacity="1" /><path clip-path="url(#clip350)" d="M225.479 1517.37 Q221.867 1517.37 220.039 1520.93 Q218.233 1524.47 218.233 1531.6 Q218.233 1538.71 220.039 1542.27 Q221.867 1545.82 225.479 1545.82 Q229.113 1545.82 230.918 1542.27 Q232.747 1538.71 232.747 1531.6 Q232.747 1524.47 230.918 1520.93 Q229.113 1517.37 225.479 1517.37 M225.479 1513.66 Q231.289 1513.66 234.344 1518.27 Q237.423 1522.85 237.423 1531.6 Q237.423 1540.33 234.344 1544.94 Q231.289 1549.52 225.479 1549.52 Q219.668 1549.52 216.59 1544.94 Q213.534 1540.33 213.534 1531.6 Q213.534 1522.85 216.59 1518.27 Q219.668 1513.66 225.479 1513.66 Z" fill="#000000" fill-rule="nonzero" fill-opacity="1" /><path clip-path="url(#clip350)" d="M255.64 1517.37 Q252.029 1517.37 250.201 1520.93 Q248.395 1524.47 248.395 1531.6 Q248.395 1538.71 250.201 1542.27 Q252.029 1545.82 255.64 1545.82 Q259.275 1545.82 261.08 1542.27 Q262.909 1538.71 262.909 1531.6 Q262.909 1524.47 261.08 1520.93 Q259.275 1517.37 255.64 1517.37 M255.64 1513.66 Q261.451 1513.66 264.506 1518.27 Q267.585 1522.85 267.585 1531.6 Q267.585 1540.33 264.506 1544.94 Q261.451 1549.52 255.64 1549.52 Q249.83 1549.52 246.752 1544.94 Q243.696 1540.33 243.696 1531.6 Q243.696 1522.85 246.752 1518.27 Q249.83 1513.66 255.64 1513.66 Z" fill="#000000" fill-rule="nonzero" fill-opacity="1" /><path clip-path="url(#clip350)" d="M698.903 1517.37 Q695.292 1517.37 693.463 1520.93 Q691.658 1524.47 691.658 1531.6 Q691.658 1538.71 693.463 1542.27 Q695.292 1545.82 698.903 1545.82 Q702.538 1545.82 704.343 1542.27 Q706.172 1538.71 706.172 1531.6 Q706.172 1524.47 704.343 1520.93 Q702.538 1517.37 698.903 1517.37 M698.903 1513.66 Q704.713 1513.66 707.769 1518.27 Q710.848 1522.85 710.848 1531.6 Q710.848 1540.33 707.769 1544.94 Q704.713 1549.52 698.903 1549.52 Q693.093 1549.52 690.014 1544.94 Q686.959 1540.33 686.959 1531.6 Q686.959 1522.85 690.014 1518.27 Q693.093 1513.66 698.903 1513.66 Z" fill="#000000" fill-rule="nonzero" fill-opacity="1" /><path clip-path="url(#clip350)" d="M719.065 1542.97 L723.949 1542.97 L723.949 1548.85 L719.065 1548.85 L719.065 1542.97 Z" fill="#000000" fill-rule="nonzero" fill-opacity="1" /><path clip-path="url(#clip350)" d="M738.162 1544.91 L754.482 1544.91 L754.482 1548.85 L732.537 1548.85 L732.537 1544.91 Q735.199 1542.16 739.783 1537.53 Q744.389 1532.88 745.57 1531.53 Q747.815 1529.01 748.695 1527.27 Q749.597 1525.51 749.597 1523.82 Q749.597 1521.07 747.653 1519.33 Q745.732 1517.6 742.63 1517.6 Q740.431 1517.6 737.977 1518.36 Q735.547 1519.13 732.769 1520.68 L732.769 1515.95 Q735.593 1514.82 738.047 1514.24 Q740.5 1513.66 742.537 1513.66 Q747.908 1513.66 751.102 1516.35 Q754.296 1519.03 754.296 1523.52 Q754.296 1525.65 753.486 1527.57 Q752.699 1529.47 750.593 1532.07 Q750.014 1532.74 746.912 1535.95 Q743.81 1539.15 738.162 1544.91 Z" fill="#000000" fill-rule="nonzero" fill-opacity="1" /><path clip-path="url(#clip350)" d="M764.343 1514.29 L782.699 1514.29 L782.699 1518.22 L768.625 1518.22 L768.625 1526.7 Q769.644 1526.35 770.662 1526.19 Q771.681 1526 772.699 1526 Q778.486 1526 781.866 1529.17 Q785.245 1532.34 785.245 1537.76 Q785.245 1543.34 781.773 1546.44 Q778.301 1549.52 771.982 1549.52 Q769.806 1549.52 767.537 1549.15 Q765.292 1548.78 762.884 1548.04 L762.884 1543.34 Q764.968 1544.47 767.19 1545.03 Q769.412 1545.58 771.889 1545.58 Q775.894 1545.58 778.232 1543.48 Q780.57 1541.37 780.57 1537.76 Q780.57 1534.15 778.232 1532.04 Q775.894 1529.94 771.889 1529.94 Q770.014 1529.94 768.139 1530.35 Q766.287 1530.77 764.343 1531.65 L764.343 1514.29 Z" fill="#000000" fill-rule="nonzero" fill-opacity="1" /><path clip-path="url(#clip350)" d="M1216.56 1517.37 Q1212.95 1517.37 1211.12 1520.93 Q1209.32 1524.47 1209.32 1531.6 Q1209.32 1538.71 1211.12 1542.27 Q1212.95 1545.82 1216.56 1545.82 Q1220.2 1545.82 1222 1542.27 Q1223.83 1538.71 1223.83 1531.6 Q1223.83 1524.47 1222 1520.93 Q1220.2 1517.37 1216.56 1517.37 M1216.56 1513.66 Q1222.37 1513.66 1225.43 1518.27 Q1228.51 1522.85 1228.51 1531.6 Q1228.51 1540.33 1225.43 1544.94 Q1222.37 1549.52 1216.56 1549.52 Q1210.75 1549.52 1207.68 1544.94 Q1204.62 1540.33 1204.62 1531.6 Q1204.62 1522.85 1207.68 1518.27 Q1210.75 1513.66 1216.56 1513.66 Z" fill="#000000" fill-rule="nonzero" fill-opacity="1" /><path clip-path="url(#clip350)" d="M1236.73 1542.97 L1241.61 1542.97 L1241.61 1548.85 L1236.73 1548.85 L1236.73 1542.97 Z" fill="#000000" fill-rule="nonzero" fill-opacity="1" /><path clip-path="url(#clip350)" d="M1251.84 1514.29 L1270.2 1514.29 L1270.2 1518.22 L1256.12 1518.22 L1256.12 1526.7 Q1257.14 1526.35 1258.16 1526.19 Q1259.18 1526 1260.2 1526 Q1265.98 1526 1269.36 1529.17 Q1272.74 1532.34 1272.74 1537.76 Q1272.74 1543.34 1269.27 1546.44 Q1265.8 1549.52 1259.48 1549.52 Q1257.3 1549.52 1255.04 1549.15 Q1252.79 1548.78 1250.38 1548.04 L1250.38 1543.34 Q1252.47 1544.47 1254.69 1545.03 Q1256.91 1545.58 1259.39 1545.58 Q1263.39 1545.58 1265.73 1543.48 Q1268.07 1541.37 1268.07 1537.76 Q1268.07 1534.15 1265.73 1532.04 Q1263.39 1529.94 1259.39 1529.94 Q1257.51 1529.94 1255.64 1530.35 Q1253.79 1530.77 1251.84 1531.65 L1251.84 1514.29 Z" fill="#000000" fill-rule="nonzero" fill-opacity="1" /><path clip-path="url(#clip350)" d="M1291.96 1517.37 Q1288.35 1517.37 1286.52 1520.93 Q1284.71 1524.47 1284.71 1531.6 Q1284.71 1538.71 1286.52 1542.27 Q1288.35 1545.82 1291.96 1545.82 Q1295.59 1545.82 1297.4 1542.27 Q1299.23 1538.71 1299.23 1531.6 Q1299.23 1524.47 1297.4 1520.93 Q1295.59 1517.37 1291.96 1517.37 M1291.96 1513.66 Q1297.77 1513.66 1300.82 1518.27 Q1303.9 1522.85 1303.9 1531.6 Q1303.9 1540.33 1300.82 1544.94 Q1297.77 1549.52 1291.96 1549.52 Q1286.15 1549.52 1283.07 1544.94 Q1280.01 1540.33 1280.01 1531.6 Q1280.01 1522.85 1283.07 1518.27 Q1286.15 1513.66 1291.96 1513.66 Z" fill="#000000" fill-rule="nonzero" fill-opacity="1" /><path clip-path="url(#clip350)" d="M1735.22 1517.37 Q1731.61 1517.37 1729.78 1520.93 Q1727.97 1524.47 1727.97 1531.6 Q1727.97 1538.71 1729.78 1542.27 Q1731.61 1545.82 1735.22 1545.82 Q1738.85 1545.82 1740.66 1542.27 Q1742.49 1538.71 1742.49 1531.6 Q1742.49 1524.47 1740.66 1520.93 Q1738.85 1517.37 1735.22 1517.37 M1735.22 1513.66 Q1741.03 1513.66 1744.09 1518.27 Q1747.16 1522.85 1747.16 1531.6 Q1747.16 1540.33 1744.09 1544.94 Q1741.03 1549.52 1735.22 1549.52 Q1729.41 1549.52 1726.33 1544.94 Q1723.28 1540.33 1723.28 1531.6 Q1723.28 1522.85 1726.33 1518.27 Q1729.41 1513.66 1735.22 1513.66 Z" fill="#000000" fill-rule="nonzero" fill-opacity="1" /><path clip-path="url(#clip350)" d="M1755.38 1542.97 L1760.27 1542.97 L1760.27 1548.85 L1755.38 1548.85 L1755.38 1542.97 Z" fill="#000000" fill-rule="nonzero" fill-opacity="1" /><path clip-path="url(#clip350)" d="M1769.27 1514.29 L1791.49 1514.29 L1791.49 1516.28 L1778.95 1548.85 L1774.06 1548.85 L1785.87 1518.22 L1769.27 1518.22 L1769.27 1514.29 Z" fill="#000000" fill-rule="nonzero" fill-opacity="1" /><path clip-path="url(#clip350)" d="M1800.66 1514.29 L1819.02 1514.29 L1819.02 1518.22 L1804.94 1518.22 L1804.94 1526.7 Q1805.96 1526.35 1806.98 1526.19 Q1808 1526 1809.02 1526 Q1814.8 1526 1818.18 1529.17 Q1821.56 1532.34 1821.56 1537.76 Q1821.56 1543.34 1818.09 1546.44 Q1814.62 1549.52 1808.3 1549.52 Q1806.12 1549.52 1803.85 1549.15 Q1801.61 1548.78 1799.2 1548.04 L1799.2 1543.34 Q1801.28 1544.47 1803.51 1545.03 Q1805.73 1545.58 1808.21 1545.58 Q1812.21 1545.58 1814.55 1543.48 Q1816.89 1541.37 1816.89 1537.76 Q1816.89 1534.15 1814.55 1532.04 Q1812.21 1529.94 1808.21 1529.94 Q1806.33 1529.94 1804.46 1530.35 Q1802.6 1530.77 1800.66 1531.65 L1800.66 1514.29 Z" fill="#000000" fill-rule="nonzero" fill-opacity="1" /><path clip-path="url(#clip350)" d="M2242.65 1544.91 L2250.29 1544.91 L2250.29 1518.55 L2241.98 1520.21 L2241.98 1515.95 L2250.24 1514.29 L2254.92 1514.29 L2254.92 1544.91 L2262.56 1544.91 L2262.56 1548.85 L2242.65 1548.85 L2242.65 1544.91 Z" fill="#000000" fill-rule="nonzero" fill-opacity="1" /><path clip-path="url(#clip350)" d="M2272 1542.97 L2276.88 1542.97 L2276.88 1548.85 L2272 1548.85 L2272 1542.97 Z" fill="#000000" fill-rule="nonzero" fill-opacity="1" /><path clip-path="url(#clip350)" d="M2297.07 1517.37 Q2293.46 1517.37 2291.63 1520.93 Q2289.82 1524.47 2289.82 1531.6 Q2289.82 1538.71 2291.63 1542.27 Q2293.46 1545.82 2297.07 1545.82 Q2300.7 1545.82 2302.51 1542.27 Q2304.34 1538.71 2304.34 1531.6 Q2304.34 1524.47 2302.51 1520.93 Q2300.7 1517.37 2297.07 1517.37 M2297.07 1513.66 Q2302.88 1513.66 2305.94 1518.27 Q2309.01 1522.85 2309.01 1531.6 Q2309.01 1540.33 2305.94 1544.94 Q2302.88 1549.52 2297.07 1549.52 Q2291.26 1549.52 2288.18 1544.94 Q2285.13 1540.33 2285.13 1531.6 Q2285.13 1522.85 2288.18 1518.27 Q2291.26 1513.66 2297.07 1513.66 Z" fill="#000000" fill-rule="nonzero" fill-opacity="1" /><path clip-path="url(#clip350)" d="M2327.23 1517.37 Q2323.62 1517.37 2321.79 1520.93 Q2319.99 1524.47 2319.99 1531.6 Q2319.99 1538.71 2321.79 1542.27 Q2323.62 1545.82 2327.23 1545.82 Q2330.87 1545.82 2332.67 1542.27 Q2334.5 1538.71 2334.5 1531.6 Q2334.5 1524.47 2332.67 1520.93 Q2330.87 1517.37 2327.23 1517.37 M2327.23 1513.66 Q2333.04 1513.66 2336.1 1518.27 Q2339.18 1522.85 2339.18 1531.6 Q2339.18 1540.33 2336.1 1544.94 Q2333.04 1549.52 2327.23 1549.52 Q2321.42 1549.52 2318.34 1544.94 Q2315.29 1540.33 2315.29 1531.6 Q2315.29 1522.85 2318.34 1518.27 Q2321.42 1513.66 2327.23 1513.66 Z" fill="#000000" fill-rule="nonzero" fill-opacity="1" /><polyline clip-path="url(#clip350)" style="stroke:#000000; stroke-linecap:round; stroke-linejoin:round; stroke-width:4; stroke-opacity:1; fill:none" points="155.765,1486.45 155.765,47.2441 "/>
<polyline clip-path="url(#clip350)" style="stroke:#000000; stroke-linecap:round; stroke-linejoin:round; stroke-width:4; stroke-opacity:1; fill:none" points="155.765,1323.47 174.663,1323.47 "/>
<polyline clip-path="url(#clip350)" style="stroke:#000000; stroke-linecap:round; stroke-linejoin:round; stroke-width:4; stroke-opacity:1; fill:none" points="155.765,1127.69 174.663,1127.69 "/>
<polyline clip-path="url(#clip350)" style="stroke:#000000; stroke-linecap:round; stroke-linejoin:round; stroke-width:4; stroke-opacity:1; fill:none" points="155.765,931.91 174.663,931.91 "/>
<polyline clip-path="url(#clip350)" style="stroke:#000000; stroke-linecap:round; stroke-linejoin:round; stroke-width:4; stroke-opacity:1; fill:none" points="155.765,736.13 174.663,736.13 "/>
<polyline clip-path="url(#clip350)" style="stroke:#000000; stroke-linecap:round; stroke-linejoin:round; stroke-width:4; stroke-opacity:1; fill:none" points="155.765,540.35 174.663,540.35 "/>
<polyline clip-path="url(#clip350)" style="stroke:#000000; stroke-linecap:round; stroke-linejoin:round; stroke-width:4; stroke-opacity:1; fill:none" points="155.765,344.571 174.663,344.571 "/>
<polyline clip-path="url(#clip350)" style="stroke:#000000; stroke-linecap:round; stroke-linejoin:round; stroke-width:4; stroke-opacity:1; fill:none" points="155.765,148.791 174.663,148.791 "/>
<path clip-path="url(#clip350)" d="M63.5847 1309.27 Q59.9736 1309.27 58.1449 1312.83 Q56.3393 1316.37 56.3393 1323.5 Q56.3393 1330.61 58.1449 1334.17 Q59.9736 1337.72 63.5847 1337.72 Q67.2189 1337.72 69.0244 1334.17 Q70.8531 1330.61 70.8531 1323.5 Q70.8531 1316.37 69.0244 1312.83 Q67.2189 1309.27 63.5847 1309.27 M63.5847 1305.56 Q69.3948 1305.56 72.4503 1310.17 Q75.529 1314.75 75.529 1323.5 Q75.529 1332.23 72.4503 1336.84 Q69.3948 1341.42 63.5847 1341.42 Q57.7745 1341.42 54.6958 1336.84 Q51.6403 1332.23 51.6403 1323.5 Q51.6403 1314.75 54.6958 1310.17 Q57.7745 1305.56 63.5847 1305.56 Z" fill="#000000" fill-rule="nonzero" fill-opacity="1" /><path clip-path="url(#clip350)" d="M83.7466 1334.87 L88.6308 1334.87 L88.6308 1340.75 L83.7466 1340.75 L83.7466 1334.87 Z" fill="#000000" fill-rule="nonzero" fill-opacity="1" /><path clip-path="url(#clip350)" d="M98.8622 1306.19 L117.219 1306.19 L117.219 1310.12 L103.145 1310.12 L103.145 1318.6 Q104.163 1318.25 105.182 1318.09 Q106.2 1317.9 107.219 1317.9 Q113.006 1317.9 116.385 1321.07 Q119.765 1324.24 119.765 1329.66 Q119.765 1335.24 116.293 1338.34 Q112.82 1341.42 106.501 1341.42 Q104.325 1341.42 102.057 1341.05 Q99.8113 1340.68 97.4039 1339.94 L97.4039 1335.24 Q99.4872 1336.37 101.709 1336.93 Q103.932 1337.48 106.408 1337.48 Q110.413 1337.48 112.751 1335.38 Q115.089 1333.27 115.089 1329.66 Q115.089 1326.05 112.751 1323.94 Q110.413 1321.84 106.408 1321.84 Q104.534 1321.84 102.659 1322.25 Q100.807 1322.67 98.8622 1323.55 L98.8622 1306.19 Z" fill="#000000" fill-rule="nonzero" fill-opacity="1" /><path clip-path="url(#clip350)" d="M53.3995 1141.03 L61.0384 1141.03 L61.0384 1114.67 L52.7282 1116.34 L52.7282 1112.08 L60.9921 1110.41 L65.668 1110.41 L65.668 1141.03 L73.3068 1141.03 L73.3068 1144.97 L53.3995 1144.97 L53.3995 1141.03 Z" fill="#000000" fill-rule="nonzero" fill-opacity="1" /><path clip-path="url(#clip350)" d="M82.7512 1139.09 L87.6354 1139.09 L87.6354 1144.97 L82.7512 1144.97 L82.7512 1139.09 Z" fill="#000000" fill-rule="nonzero" fill-opacity="1" /><path clip-path="url(#clip350)" d="M107.821 1113.49 Q104.209 1113.49 102.381 1117.05 Q100.575 1120.59 100.575 1127.72 Q100.575 1134.83 102.381 1138.4 Q104.209 1141.94 107.821 1141.94 Q111.455 1141.94 113.26 1138.4 Q115.089 1134.83 115.089 1127.72 Q115.089 1120.59 113.26 1117.05 Q111.455 1113.49 107.821 1113.49 M107.821 1109.78 Q113.631 1109.78 116.686 1114.39 Q119.765 1118.97 119.765 1127.72 Q119.765 1136.45 116.686 1141.06 Q113.631 1145.64 107.821 1145.64 Q102.01 1145.64 98.9317 1141.06 Q95.8761 1136.45 95.8761 1127.72 Q95.8761 1118.97 98.9317 1114.39 Q102.01 1109.78 107.821 1109.78 Z" fill="#000000" fill-rule="nonzero" fill-opacity="1" /><path clip-path="url(#clip350)" d="M54.3949 945.254 L62.0337 945.254 L62.0337 918.889 L53.7236 920.555 L53.7236 916.296 L61.9874 914.63 L66.6633 914.63 L66.6633 945.254 L74.3022 945.254 L74.3022 949.19 L54.3949 949.19 L54.3949 945.254 Z" fill="#000000" fill-rule="nonzero" fill-opacity="1" /><path clip-path="url(#clip350)" d="M83.7466 943.31 L88.6308 943.31 L88.6308 949.19 L83.7466 949.19 L83.7466 943.31 Z" fill="#000000" fill-rule="nonzero" fill-opacity="1" /><path clip-path="url(#clip350)" d="M98.8622 914.63 L117.219 914.63 L117.219 918.565 L103.145 918.565 L103.145 927.037 Q104.163 926.69 105.182 926.528 Q106.2 926.342 107.219 926.342 Q113.006 926.342 116.385 929.514 Q119.765 932.685 119.765 938.102 Q119.765 943.68 116.293 946.782 Q112.82 949.861 106.501 949.861 Q104.325 949.861 102.057 949.49 Q99.8113 949.12 97.4039 948.379 L97.4039 943.68 Q99.4872 944.815 101.709 945.37 Q103.932 945.926 106.408 945.926 Q110.413 945.926 112.751 943.819 Q115.089 941.713 115.089 938.102 Q115.089 934.491 112.751 932.384 Q110.413 930.278 106.408 930.278 Q104.534 930.278 102.659 930.694 Q100.807 931.111 98.8622 931.991 L98.8622 914.63 Z" fill="#000000" fill-rule="nonzero" fill-opacity="1" /><path clip-path="url(#clip350)" d="M56.6171 749.475 L72.9365 749.475 L72.9365 753.41 L50.9921 753.41 L50.9921 749.475 Q53.6541 746.72 58.2375 742.091 Q62.8439 737.438 64.0245 736.095 Q66.2698 733.572 67.1494 731.836 Q68.0522 730.077 68.0522 728.387 Q68.0522 725.632 66.1078 723.896 Q64.1865 722.16 61.0847 722.16 Q58.8856 722.16 56.4319 722.924 Q54.0014 723.688 51.2236 725.239 L51.2236 720.517 Q54.0477 719.382 56.5014 718.804 Q58.955 718.225 60.9921 718.225 Q66.3624 718.225 69.5568 720.91 Q72.7513 723.595 72.7513 728.086 Q72.7513 730.216 71.9411 732.137 Q71.1541 734.035 69.0476 736.628 Q68.4689 737.299 65.367 740.516 Q62.2652 743.711 56.6171 749.475 Z" fill="#000000" fill-rule="nonzero" fill-opacity="1" /><path clip-path="url(#clip350)" d="M82.7512 747.53 L87.6354 747.53 L87.6354 753.41 L82.7512 753.41 L82.7512 747.53 Z" fill="#000000" fill-rule="nonzero" fill-opacity="1" /><path clip-path="url(#clip350)" d="M107.821 721.929 Q104.209 721.929 102.381 725.493 Q100.575 729.035 100.575 736.165 Q100.575 743.271 102.381 746.836 Q104.209 750.378 107.821 750.378 Q111.455 750.378 113.26 746.836 Q115.089 743.271 115.089 736.165 Q115.089 729.035 113.26 725.493 Q111.455 721.929 107.821 721.929 M107.821 718.225 Q113.631 718.225 116.686 722.831 Q119.765 727.415 119.765 736.165 Q119.765 744.891 116.686 749.498 Q113.631 754.081 107.821 754.081 Q102.01 754.081 98.9317 749.498 Q95.8761 744.891 95.8761 736.165 Q95.8761 727.415 98.9317 722.831 Q102.01 718.225 107.821 718.225 Z" fill="#000000" fill-rule="nonzero" fill-opacity="1" /><path clip-path="url(#clip350)" d="M57.6125 553.695 L73.9318 553.695 L73.9318 557.63 L51.9875 557.63 L51.9875 553.695 Q54.6495 550.94 59.2328 546.311 Q63.8393 541.658 65.0198 540.316 Q67.2652 537.792 68.1448 536.056 Q69.0476 534.297 69.0476 532.607 Q69.0476 529.853 67.1032 528.117 Q65.1819 526.38 62.08 526.38 Q59.881 526.38 57.4273 527.144 Q54.9967 527.908 52.219 529.459 L52.219 524.737 Q55.043 523.603 57.4967 523.024 Q59.9504 522.445 61.9874 522.445 Q67.3578 522.445 70.5522 525.13 Q73.7466 527.816 73.7466 532.306 Q73.7466 534.436 72.9365 536.357 Q72.1494 538.255 70.0429 540.848 Q69.4642 541.519 66.3624 544.737 Q63.2606 547.931 57.6125 553.695 Z" fill="#000000" fill-rule="nonzero" fill-opacity="1" /><path clip-path="url(#clip350)" d="M83.7466 551.751 L88.6308 551.751 L88.6308 557.63 L83.7466 557.63 L83.7466 551.751 Z" fill="#000000" fill-rule="nonzero" fill-opacity="1" /><path clip-path="url(#clip350)" d="M98.8622 523.07 L117.219 523.07 L117.219 527.005 L103.145 527.005 L103.145 535.478 Q104.163 535.13 105.182 534.968 Q106.2 534.783 107.219 534.783 Q113.006 534.783 116.385 537.954 Q119.765 541.126 119.765 546.542 Q119.765 552.121 116.293 555.223 Q112.82 558.302 106.501 558.302 Q104.325 558.302 102.057 557.931 Q99.8113 557.561 97.4039 556.82 L97.4039 552.121 Q99.4872 553.255 101.709 553.811 Q103.932 554.366 106.408 554.366 Q110.413 554.366 112.751 552.26 Q115.089 550.153 115.089 546.542 Q115.089 542.931 112.751 540.825 Q110.413 538.718 106.408 538.718 Q104.534 538.718 102.659 539.135 Q100.807 539.552 98.8622 540.431 L98.8622 523.07 Z" fill="#000000" fill-rule="nonzero" fill-opacity="1" /><path clip-path="url(#clip350)" d="M66.7559 343.216 Q70.1124 343.934 71.9874 346.203 Q73.8855 348.471 73.8855 351.804 Q73.8855 356.92 70.367 359.721 Q66.8485 362.522 60.3671 362.522 Q58.1912 362.522 55.8764 362.082 Q53.5847 361.665 51.131 360.809 L51.131 356.295 Q53.0754 357.429 55.3903 358.008 Q57.7051 358.587 60.2282 358.587 Q64.6263 358.587 66.918 356.851 Q69.2328 355.115 69.2328 351.804 Q69.2328 348.749 67.08 347.036 Q64.9504 345.3 61.131 345.3 L57.1032 345.3 L57.1032 341.457 L61.3161 341.457 Q64.7652 341.457 66.5939 340.091 Q68.4226 338.703 68.4226 336.11 Q68.4226 333.448 66.5245 332.036 Q64.6495 330.601 61.131 330.601 Q59.2097 330.601 57.0106 331.017 Q54.8115 331.434 52.1727 332.314 L52.1727 328.147 Q54.8347 327.406 57.1495 327.036 Q59.4875 326.666 61.5476 326.666 Q66.8717 326.666 69.9735 329.096 Q73.0753 331.504 73.0753 335.624 Q73.0753 338.494 71.4318 340.485 Q69.7883 342.453 66.7559 343.216 Z" fill="#000000" fill-rule="nonzero" fill-opacity="1" /><path clip-path="url(#clip350)" d="M82.7512 355.971 L87.6354 355.971 L87.6354 361.851 L82.7512 361.851 L82.7512 355.971 Z" fill="#000000" fill-rule="nonzero" fill-opacity="1" /><path clip-path="url(#clip350)" d="M107.821 330.369 Q104.209 330.369 102.381 333.934 Q100.575 337.476 100.575 344.605 Q100.575 351.712 102.381 355.277 Q104.209 358.818 107.821 358.818 Q111.455 358.818 113.26 355.277 Q115.089 351.712 115.089 344.605 Q115.089 337.476 113.26 333.934 Q111.455 330.369 107.821 330.369 M107.821 326.666 Q113.631 326.666 116.686 331.272 Q119.765 335.855 119.765 344.605 Q119.765 353.332 116.686 357.939 Q113.631 362.522 107.821 362.522 Q102.01 362.522 98.9317 357.939 Q95.8761 353.332 95.8761 344.605 Q95.8761 335.855 98.9317 331.272 Q102.01 326.666 107.821 326.666 Z" fill="#000000" fill-rule="nonzero" fill-opacity="1" /><path clip-path="url(#clip350)" d="M67.7513 147.437 Q71.1078 148.154 72.9827 150.423 Q74.8809 152.691 74.8809 156.025 Q74.8809 161.14 71.3624 163.941 Q67.8439 166.742 61.3624 166.742 Q59.1865 166.742 56.8717 166.302 Q54.5801 165.886 52.1264 165.029 L52.1264 160.515 Q54.0708 161.65 56.3856 162.228 Q58.7004 162.807 61.2236 162.807 Q65.6217 162.807 67.9133 161.071 Q70.2281 159.335 70.2281 156.025 Q70.2281 152.969 68.0754 151.256 Q65.9457 149.52 62.1263 149.52 L58.0986 149.52 L58.0986 145.678 L62.3115 145.678 Q65.7606 145.678 67.5893 144.312 Q69.418 142.923 69.418 140.33 Q69.418 137.668 67.5198 136.256 Q65.6448 134.821 62.1263 134.821 Q60.205 134.821 58.006 135.238 Q55.8069 135.654 53.168 136.534 L53.168 132.367 Q55.8301 131.627 58.1449 131.256 Q60.4828 130.886 62.543 130.886 Q67.867 130.886 70.9689 133.317 Q74.0707 135.724 74.0707 139.844 Q74.0707 142.715 72.4272 144.705 Q70.7837 146.673 67.7513 147.437 Z" fill="#000000" fill-rule="nonzero" fill-opacity="1" /><path clip-path="url(#clip350)" d="M83.7466 160.191 L88.6308 160.191 L88.6308 166.071 L83.7466 166.071 L83.7466 160.191 Z" fill="#000000" fill-rule="nonzero" fill-opacity="1" /><path clip-path="url(#clip350)" d="M98.8622 131.511 L117.219 131.511 L117.219 135.446 L103.145 135.446 L103.145 143.918 Q104.163 143.571 105.182 143.409 Q106.2 143.224 107.219 143.224 Q113.006 143.224 116.385 146.395 Q119.765 149.566 119.765 154.983 Q119.765 160.562 116.293 163.664 Q112.82 166.742 106.501 166.742 Q104.325 166.742 102.057 166.372 Q99.8113 166.002 97.4039 165.261 L97.4039 160.562 Q99.4872 161.696 101.709 162.252 Q103.932 162.807 106.408 162.807 Q110.413 162.807 112.751 160.701 Q115.089 158.594 115.089 154.983 Q115.089 151.372 112.751 149.266 Q110.413 147.159 106.408 147.159 Q104.534 147.159 102.659 147.576 Q100.807 147.992 98.8622 148.872 L98.8622 131.511 Z" fill="#000000" fill-rule="nonzero" fill-opacity="1" /><polyline clip-path="url(#clip351)" style="stroke:#009af9; stroke-linecap:round; stroke-linejoin:round; stroke-width:12; stroke-opacity:1; fill:none" points="217.944,1323.47 425.207,1312.22 632.47,1318.65 839.734,1327.44 1047,1300.59 1254.26,1255.41 1461.52,1222.91 1668.79,1152.48 1876.05,1135.49 2083.31,1122.25 2290.58,1112.82 "/>
<polyline clip-path="url(#clip351)" style="stroke:#000000; stroke-linecap:round; stroke-linejoin:round; stroke-width:12; stroke-opacity:1; fill:none" points="217.944,1323.47 217.944,1323.47 "/>
<polyline clip-path="url(#clip351)" style="stroke:#000000; stroke-linecap:round; stroke-linejoin:round; stroke-width:12; stroke-opacity:1; fill:none" points="425.207,1371.41 425.207,1285.1 "/>
<polyline clip-path="url(#clip351)" style="stroke:#000000; stroke-linecap:round; stroke-linejoin:round; stroke-width:12; stroke-opacity:1; fill:none" points="632.47,1388.94 632.47,1272.91 "/>
<polyline clip-path="url(#clip351)" style="stroke:#000000; stroke-linecap:round; stroke-linejoin:round; stroke-width:12; stroke-opacity:1; fill:none" points="839.734,1399.86 839.734,1172.59 "/>
<polyline clip-path="url(#clip351)" style="stroke:#000000; stroke-linecap:round; stroke-linejoin:round; stroke-width:12; stroke-opacity:1; fill:none" points="1047,1411.54 1047,1038.41 "/>
<polyline clip-path="url(#clip351)" style="stroke:#000000; stroke-linecap:round; stroke-linejoin:round; stroke-width:12; stroke-opacity:1; fill:none" points="1254.26,1403.09 1254.26,1004.23 "/>
<polyline clip-path="url(#clip351)" style="stroke:#000000; stroke-linecap:round; stroke-linejoin:round; stroke-width:12; stroke-opacity:1; fill:none" points="1461.52,1414.47 1461.52,944.218 "/>
<polyline clip-path="url(#clip351)" style="stroke:#000000; stroke-linecap:round; stroke-linejoin:round; stroke-width:12; stroke-opacity:1; fill:none" points="1668.79,1430.73 1668.79,901.669 "/>
<polyline clip-path="url(#clip351)" style="stroke:#000000; stroke-linecap:round; stroke-linejoin:round; stroke-width:12; stroke-opacity:1; fill:none" points="1876.05,1439.85 1876.05,817.466 "/>
<polyline clip-path="url(#clip351)" style="stroke:#000000; stroke-linecap:round; stroke-linejoin:round; stroke-width:12; stroke-opacity:1; fill:none" points="2083.31,1445.72 2083.31,628.125 "/>
<polyline clip-path="url(#clip351)" style="stroke:#000000; stroke-linecap:round; stroke-linejoin:round; stroke-width:12; stroke-opacity:1; fill:none" points="2290.58,1425.94 2290.58,629.044 "/>
<line clip-path="url(#clip351)" x1="233.944" y1="1323.47" x2="201.944" y2="1323.47" style="stroke:#000000; stroke-width:12; stroke-opacity:1"/>
<line clip-path="url(#clip351)" x1="233.944" y1="1323.47" x2="201.944" y2="1323.47" style="stroke:#000000; stroke-width:12; stroke-opacity:1"/>
<line clip-path="url(#clip351)" x1="441.207" y1="1371.41" x2="409.207" y2="1371.41" style="stroke:#000000; stroke-width:12; stroke-opacity:1"/>
<line clip-path="url(#clip351)" x1="441.207" y1="1285.1" x2="409.207" y2="1285.1" style="stroke:#000000; stroke-width:12; stroke-opacity:1"/>
<line clip-path="url(#clip351)" x1="648.47" y1="1388.94" x2="616.47" y2="1388.94" style="stroke:#000000; stroke-width:12; stroke-opacity:1"/>
<line clip-path="url(#clip351)" x1="648.47" y1="1272.91" x2="616.47" y2="1272.91" style="stroke:#000000; stroke-width:12; stroke-opacity:1"/>
<line clip-path="url(#clip351)" x1="855.734" y1="1399.86" x2="823.734" y2="1399.86" style="stroke:#000000; stroke-width:12; stroke-opacity:1"/>
<line clip-path="url(#clip351)" x1="855.734" y1="1172.59" x2="823.734" y2="1172.59" style="stroke:#000000; stroke-width:12; stroke-opacity:1"/>
<line clip-path="url(#clip351)" x1="1063" y1="1411.54" x2="1031" y2="1411.54" style="stroke:#000000; stroke-width:12; stroke-opacity:1"/>
<line clip-path="url(#clip351)" x1="1063" y1="1038.41" x2="1031" y2="1038.41" style="stroke:#000000; stroke-width:12; stroke-opacity:1"/>
<line clip-path="url(#clip351)" x1="1270.26" y1="1403.09" x2="1238.26" y2="1403.09" style="stroke:#000000; stroke-width:12; stroke-opacity:1"/>
<line clip-path="url(#clip351)" x1="1270.26" y1="1004.23" x2="1238.26" y2="1004.23" style="stroke:#000000; stroke-width:12; stroke-opacity:1"/>
<line clip-path="url(#clip351)" x1="1477.52" y1="1414.47" x2="1445.52" y2="1414.47" style="stroke:#000000; stroke-width:12; stroke-opacity:1"/>
<line clip-path="url(#clip351)" x1="1477.52" y1="944.218" x2="1445.52" y2="944.218" style="stroke:#000000; stroke-width:12; stroke-opacity:1"/>
<line clip-path="url(#clip351)" x1="1684.79" y1="1430.73" x2="1652.79" y2="1430.73" style="stroke:#000000; stroke-width:12; stroke-opacity:1"/>
<line clip-path="url(#clip351)" x1="1684.79" y1="901.669" x2="1652.79" y2="901.669" style="stroke:#000000; stroke-width:12; stroke-opacity:1"/>
<line clip-path="url(#clip351)" x1="1892.05" y1="1439.85" x2="1860.05" y2="1439.85" style="stroke:#000000; stroke-width:12; stroke-opacity:1"/>
<line clip-path="url(#clip351)" x1="1892.05" y1="817.466" x2="1860.05" y2="817.466" style="stroke:#000000; stroke-width:12; stroke-opacity:1"/>
<line clip-path="url(#clip351)" x1="2099.31" y1="1445.72" x2="2067.31" y2="1445.72" style="stroke:#000000; stroke-width:12; stroke-opacity:1"/>
<line clip-path="url(#clip351)" x1="2099.31" y1="628.125" x2="2067.31" y2="628.125" style="stroke:#000000; stroke-width:12; stroke-opacity:1"/>
<line clip-path="url(#clip351)" x1="2306.58" y1="1425.94" x2="2274.58" y2="1425.94" style="stroke:#000000; stroke-width:12; stroke-opacity:1"/>
<line clip-path="url(#clip351)" x1="2306.58" y1="629.044" x2="2274.58" y2="629.044" style="stroke:#000000; stroke-width:12; stroke-opacity:1"/>
<polyline clip-path="url(#clip351)" style="stroke:#e26f46; stroke-linecap:round; stroke-linejoin:round; stroke-width:12; stroke-opacity:1; fill:none" points="217.944,1323.47 425.207,1315.09 632.47,1298.34 839.734,1302.24 1047,1290.78 1254.26,1290.04 1461.52,1256.09 1668.79,1287.12 1876.05,1298.05 2083.31,1276.52 2290.58,1293.18 "/>
<polyline clip-path="url(#clip351)" style="stroke:#000000; stroke-linecap:round; stroke-linejoin:round; stroke-width:12; stroke-opacity:1; fill:none" points="217.944,1323.47 217.944,1323.47 "/>
<polyline clip-path="url(#clip351)" style="stroke:#000000; stroke-linecap:round; stroke-linejoin:round; stroke-width:12; stroke-opacity:1; fill:none" points="425.207,1351.96 425.207,1243.02 "/>
<polyline clip-path="url(#clip351)" style="stroke:#000000; stroke-linecap:round; stroke-linejoin:round; stroke-width:12; stroke-opacity:1; fill:none" points="632.47,1349.09 632.47,1113.16 "/>
<polyline clip-path="url(#clip351)" style="stroke:#000000; stroke-linecap:round; stroke-linejoin:round; stroke-width:12; stroke-opacity:1; fill:none" points="839.734,1356.92 839.734,864.975 "/>
<polyline clip-path="url(#clip351)" style="stroke:#000000; stroke-linecap:round; stroke-linejoin:round; stroke-width:12; stroke-opacity:1; fill:none" points="1047,1369.55 1047,666.007 "/>
<polyline clip-path="url(#clip351)" style="stroke:#000000; stroke-linecap:round; stroke-linejoin:round; stroke-width:12; stroke-opacity:1; fill:none" points="1254.26,1383.22 1254.26,773.939 "/>
<polyline clip-path="url(#clip351)" style="stroke:#000000; stroke-linecap:round; stroke-linejoin:round; stroke-width:12; stroke-opacity:1; fill:none" points="1461.52,1389.11 1461.52,691.677 "/>
<polyline clip-path="url(#clip351)" style="stroke:#000000; stroke-linecap:round; stroke-linejoin:round; stroke-width:12; stroke-opacity:1; fill:none" points="1668.79,1407.25 1668.79,670.635 "/>
<polyline clip-path="url(#clip351)" style="stroke:#000000; stroke-linecap:round; stroke-linejoin:round; stroke-width:12; stroke-opacity:1; fill:none" points="1876.05,1403.78 1876.05,637.895 "/>
<polyline clip-path="url(#clip351)" style="stroke:#000000; stroke-linecap:round; stroke-linejoin:round; stroke-width:12; stroke-opacity:1; fill:none" points="2083.31,1402.29 2083.31,488.059 "/>
<polyline clip-path="url(#clip351)" style="stroke:#000000; stroke-linecap:round; stroke-linejoin:round; stroke-width:12; stroke-opacity:1; fill:none" points="2290.58,1415.54 2290.58,87.9763 "/>
<line clip-path="url(#clip351)" x1="233.944" y1="1323.47" x2="201.944" y2="1323.47" style="stroke:#000000; stroke-width:12; stroke-opacity:1"/>
<line clip-path="url(#clip351)" x1="233.944" y1="1323.47" x2="201.944" y2="1323.47" style="stroke:#000000; stroke-width:12; stroke-opacity:1"/>
<line clip-path="url(#clip351)" x1="441.207" y1="1351.96" x2="409.207" y2="1351.96" style="stroke:#000000; stroke-width:12; stroke-opacity:1"/>
<line clip-path="url(#clip351)" x1="441.207" y1="1243.02" x2="409.207" y2="1243.02" style="stroke:#000000; stroke-width:12; stroke-opacity:1"/>
<line clip-path="url(#clip351)" x1="648.47" y1="1349.09" x2="616.47" y2="1349.09" style="stroke:#000000; stroke-width:12; stroke-opacity:1"/>
<line clip-path="url(#clip351)" x1="648.47" y1="1113.16" x2="616.47" y2="1113.16" style="stroke:#000000; stroke-width:12; stroke-opacity:1"/>
<line clip-path="url(#clip351)" x1="855.734" y1="1356.92" x2="823.734" y2="1356.92" style="stroke:#000000; stroke-width:12; stroke-opacity:1"/>
<line clip-path="url(#clip351)" x1="855.734" y1="864.975" x2="823.734" y2="864.975" style="stroke:#000000; stroke-width:12; stroke-opacity:1"/>
<line clip-path="url(#clip351)" x1="1063" y1="1369.55" x2="1031" y2="1369.55" style="stroke:#000000; stroke-width:12; stroke-opacity:1"/>
<line clip-path="url(#clip351)" x1="1063" y1="666.007" x2="1031" y2="666.007" style="stroke:#000000; stroke-width:12; stroke-opacity:1"/>
<line clip-path="url(#clip351)" x1="1270.26" y1="1383.22" x2="1238.26" y2="1383.22" style="stroke:#000000; stroke-width:12; stroke-opacity:1"/>
<line clip-path="url(#clip351)" x1="1270.26" y1="773.939" x2="1238.26" y2="773.939" style="stroke:#000000; stroke-width:12; stroke-opacity:1"/>
<line clip-path="url(#clip351)" x1="1477.52" y1="1389.11" x2="1445.52" y2="1389.11" style="stroke:#000000; stroke-width:12; stroke-opacity:1"/>
<line clip-path="url(#clip351)" x1="1477.52" y1="691.677" x2="1445.52" y2="691.677" style="stroke:#000000; stroke-width:12; stroke-opacity:1"/>
<line clip-path="url(#clip351)" x1="1684.79" y1="1407.25" x2="1652.79" y2="1407.25" style="stroke:#000000; stroke-width:12; stroke-opacity:1"/>
<line clip-path="url(#clip351)" x1="1684.79" y1="670.635" x2="1652.79" y2="670.635" style="stroke:#000000; stroke-width:12; stroke-opacity:1"/>
<line clip-path="url(#clip351)" x1="1892.05" y1="1403.78" x2="1860.05" y2="1403.78" style="stroke:#000000; stroke-width:12; stroke-opacity:1"/>
<line clip-path="url(#clip351)" x1="1892.05" y1="637.895" x2="1860.05" y2="637.895" style="stroke:#000000; stroke-width:12; stroke-opacity:1"/>
<line clip-path="url(#clip351)" x1="2099.31" y1="1402.29" x2="2067.31" y2="1402.29" style="stroke:#000000; stroke-width:12; stroke-opacity:1"/>
<line clip-path="url(#clip351)" x1="2099.31" y1="488.059" x2="2067.31" y2="488.059" style="stroke:#000000; stroke-width:12; stroke-opacity:1"/>
<line clip-path="url(#clip351)" x1="2306.58" y1="1415.54" x2="2274.58" y2="1415.54" style="stroke:#000000; stroke-width:12; stroke-opacity:1"/>
<line clip-path="url(#clip351)" x1="2306.58" y1="87.9763" x2="2274.58" y2="87.9763" style="stroke:#000000; stroke-width:12; stroke-opacity:1"/>
</svg>
