<?xml version="1.0" encoding="utf-8"?>
<svg xmlns="http://www.w3.org/2000/svg" xmlns:xlink="http://www.w3.org/1999/xlink" width="600" height="400" viewBox="0 0 2400 1600">
<defs>
  <clipPath id="clip920">
    <rect x="0" y="0" width="2400" height="1600"/>
  </clipPath>
</defs>
<path clip-path="url(#clip920)" d="M0 1600 L2400 1600 L2400 0 L0 0  Z" fill="#ffffff" fill-rule="evenodd" fill-opacity="1"/>
<defs>
  <clipPath id="clip921">
    <rect x="155" y="47" width="2198" height="1440"/>
  </clipPath>
</defs>
<path clip-path="url(#clip920)" d="M155.765 1486.45 L2352.76 1486.45 L2352.76 47.2441 L155.765 47.2441  Z" fill="#ffffff" fill-rule="evenodd" fill-opacity="1"/>
<polyline clip-path="url(#clip921)" style="stroke:#000000; stroke-linecap:round; stroke-linejoin:round; stroke-width:2; stroke-opacity:0.1; fill:none" points="217.944,1486.45 217.944,47.2441 "/>
<polyline clip-path="url(#clip921)" style="stroke:#000000; stroke-linecap:round; stroke-linejoin:round; stroke-width:2; stroke-opacity:0.1; fill:none" points="736.102,1486.45 736.102,47.2441 "/>
<polyline clip-path="url(#clip921)" style="stroke:#000000; stroke-linecap:round; stroke-linejoin:round; stroke-width:2; stroke-opacity:0.1; fill:none" points="1254.26,1486.45 1254.26,47.2441 "/>
<polyline clip-path="url(#clip921)" style="stroke:#000000; stroke-linecap:round; stroke-linejoin:round; stroke-width:2; stroke-opacity:0.1; fill:none" points="1772.42,1486.45 1772.42,47.2441 "/>
<polyline clip-path="url(#clip921)" style="stroke:#000000; stroke-linecap:round; stroke-linejoin:round; stroke-width:2; stroke-opacity:0.1; fill:none" points="2290.58,1486.45 2290.58,47.2441 "/>
<polyline clip-path="url(#clip921)" style="stroke:#000000; stroke-linecap:round; stroke-linejoin:round; stroke-width:2; stroke-opacity:0.1; fill:none" points="155.765,1337.97 2352.76,1337.97 "/>
<polyline clip-path="url(#clip921)" style="stroke:#000000; stroke-linecap:round; stroke-linejoin:round; stroke-width:2; stroke-opacity:0.1; fill:none" points="155.765,1118.35 2352.76,1118.35 "/>
<polyline clip-path="url(#clip921)" style="stroke:#000000; stroke-linecap:round; stroke-linejoin:round; stroke-width:2; stroke-opacity:0.1; fill:none" points="155.765,898.723 2352.76,898.723 "/>
<polyline clip-path="url(#clip921)" style="stroke:#000000; stroke-linecap:round; stroke-linejoin:round; stroke-width:2; stroke-opacity:0.1; fill:none" points="155.765,679.101 2352.76,679.101 "/>
<polyline clip-path="url(#clip921)" style="stroke:#000000; stroke-linecap:round; stroke-linejoin:round; stroke-width:2; stroke-opacity:0.1; fill:none" points="155.765,459.478 2352.76,459.478 "/>
<polyline clip-path="url(#clip921)" style="stroke:#000000; stroke-linecap:round; stroke-linejoin:round; stroke-width:2; stroke-opacity:0.1; fill:none" points="155.765,239.856 2352.76,239.856 "/>
<polyline clip-path="url(#clip920)" style="stroke:#000000; stroke-linecap:round; stroke-linejoin:round; stroke-width:4; stroke-opacity:1; fill:none" points="155.765,1486.45 2352.76,1486.45 "/>
<polyline clip-path="url(#clip920)" style="stroke:#000000; stroke-linecap:round; stroke-linejoin:round; stroke-width:4; stroke-opacity:1; fill:none" points="217.944,1486.45 217.944,1467.55 "/>
<polyline clip-path="url(#clip920)" style="stroke:#000000; stroke-linecap:round; stroke-linejoin:round; stroke-width:4; stroke-opacity:1; fill:none" points="736.102,1486.45 736.102,1467.55 "/>
<polyline clip-path="url(#clip920)" style="stroke:#000000; stroke-linecap:round; stroke-linejoin:round; stroke-width:4; stroke-opacity:1; fill:none" points="1254.26,1486.45 1254.26,1467.55 "/>
<polyline clip-path="url(#clip920)" style="stroke:#000000; stroke-linecap:round; stroke-linejoin:round; stroke-width:4; stroke-opacity:1; fill:none" points="1772.42,1486.45 1772.42,1467.55 "/>
<polyline clip-path="url(#clip920)" style="stroke:#000000; stroke-linecap:round; stroke-linejoin:round; stroke-width:4; stroke-opacity:1; fill:none" points="2290.58,1486.45 2290.58,1467.55 "/>
<path clip-path="url(#clip920)" d="M180.247 1517.37 Q176.636 1517.37 174.808 1520.93 Q173.002 1524.47 173.002 1531.6 Q173.002 1538.71 174.808 1542.27 Q176.636 1545.82 180.247 1545.82 Q183.882 1545.82 185.687 1542.27 Q187.516 1538.71 187.516 1531.6 Q187.516 1524.47 185.687 1520.93 Q183.882 1517.37 180.247 1517.37 M180.247 1513.66 Q186.057 1513.66 189.113 1518.27 Q192.192 1522.85 192.192 1531.6 Q192.192 1540.33 189.113 1544.94 Q186.057 1549.52 180.247 1549.52 Q174.437 1549.52 171.358 1544.94 Q168.303 1540.33 168.303 1531.6 Q168.303 1522.85 171.358 1518.27 Q174.437 1513.66 180.247 1513.66 Z" fill="#000000" fill-rule="nonzero" fill-opacity="1" /><path clip-path="url(#clip920)" d="M200.409 1542.97 L205.294 1542.97 L205.294 1548.85 L200.409 1548.85 L200.409 1542.97 Z" fill="#000000" fill-rule="nonzero" fill-opacity="1" /><path clip-path="url(#clip920)" d="M225.479 1517.37 Q221.867 1517.37 220.039 1520.93 Q218.233 1524.47 218.233 1531.6 Q218.233 1538.71 220.039 1542.27 Q221.867 1545.82 225.479 1545.82 Q229.113 1545.82 230.918 1542.27 Q232.747 1538.71 232.747 1531.6 Q232.747 1524.47 230.918 1520.93 Q229.113 1517.37 225.479 1517.37 M225.479 1513.66 Q231.289 1513.66 234.344 1518.27 Q237.423 1522.85 237.423 1531.6 Q237.423 1540.33 234.344 1544.94 Q231.289 1549.52 225.479 1549.52 Q219.668 1549.52 216.59 1544.94 Q213.534 1540.33 213.534 1531.6 Q213.534 1522.85 216.59 1518.27 Q219.668 1513.66 225.479 1513.66 Z" fill="#000000" fill-rule="nonzero" fill-opacity="1" /><path clip-path="url(#clip920)" d="M255.64 1517.37 Q252.029 1517.37 250.201 1520.93 Q248.395 1524.47 248.395 1531.6 Q248.395 1538.71 250.201 1542.27 Q252.029 1545.82 255.64 1545.82 Q259.275 1545.82 261.08 1542.27 Q262.909 1538.71 262.909 1531.6 Q262.909 1524.47 261.08 1520.93 Q259.275 1517.37 255.64 1517.37 M255.64 1513.66 Q261.451 1513.66 264.506 1518.27 Q267.585 1522.85 267.585 1531.6 Q267.585 1540.33 264.506 1544.94 Q261.451 1549.52 255.64 1549.52 Q249.83 1549.52 246.752 1544.94 Q243.696 1540.33 243.696 1531.6 Q243.696 1522.85 246.752 1518.27 Q249.83 1513.66 255.64 1513.66 Z" fill="#000000" fill-rule="nonzero" fill-opacity="1" /><path clip-path="url(#clip920)" d="M698.903 1517.37 Q695.292 1517.37 693.463 1520.93 Q691.658 1524.47 691.658 1531.6 Q691.658 1538.71 693.463 1542.27 Q695.292 1545.82 698.903 1545.82 Q702.538 1545.82 704.343 1542.27 Q706.172 1538.71 706.172 1531.6 Q706.172 1524.47 704.343 1520.93 Q702.538 1517.37 698.903 1517.37 M698.903 1513.66 Q704.713 1513.66 707.769 1518.27 Q710.848 1522.85 710.848 1531.6 Q710.848 1540.33 707.769 1544.94 Q704.713 1549.52 698.903 1549.52 Q693.093 1549.52 690.014 1544.94 Q686.959 1540.33 686.959 1531.6 Q686.959 1522.85 690.014 1518.27 Q693.093 1513.66 698.903 1513.66 Z" fill="#000000" fill-rule="nonzero" fill-opacity="1" /><path clip-path="url(#clip920)" d="M719.065 1542.97 L723.949 1542.97 L723.949 1548.85 L719.065 1548.85 L719.065 1542.97 Z" fill="#000000" fill-rule="nonzero" fill-opacity="1" /><path clip-path="url(#clip920)" d="M738.162 1544.91 L754.482 1544.91 L754.482 1548.85 L732.537 1548.85 L732.537 1544.91 Q735.199 1542.16 739.783 1537.53 Q744.389 1532.88 745.57 1531.53 Q747.815 1529.01 748.695 1527.27 Q749.597 1525.51 749.597 1523.82 Q749.597 1521.07 747.653 1519.33 Q745.732 1517.6 742.63 1517.6 Q740.431 1517.6 737.977 1518.36 Q735.547 1519.13 732.769 1520.68 L732.769 1515.95 Q735.593 1514.82 738.047 1514.24 Q740.5 1513.66 742.537 1513.66 Q747.908 1513.66 751.102 1516.35 Q754.296 1519.03 754.296 1523.52 Q754.296 1525.65 753.486 1527.57 Q752.699 1529.47 750.593 1532.07 Q750.014 1532.74 746.912 1535.95 Q743.81 1539.15 738.162 1544.91 Z" fill="#000000" fill-rule="nonzero" fill-opacity="1" /><path clip-path="url(#clip920)" d="M764.343 1514.29 L782.699 1514.29 L782.699 1518.22 L768.625 1518.22 L768.625 1526.7 Q769.644 1526.35 770.662 1526.19 Q771.681 1526 772.699 1526 Q778.486 1526 781.866 1529.17 Q785.245 1532.34 785.245 1537.76 Q785.245 1543.34 781.773 1546.44 Q778.301 1549.52 771.982 1549.52 Q769.806 1549.52 767.537 1549.15 Q765.292 1548.78 762.884 1548.04 L762.884 1543.34 Q764.968 1544.47 767.19 1545.03 Q769.412 1545.58 771.889 1545.58 Q775.894 1545.58 778.232 1543.48 Q780.57 1541.37 780.57 1537.76 Q780.57 1534.15 778.232 1532.04 Q775.894 1529.94 771.889 1529.94 Q770.014 1529.94 768.139 1530.35 Q766.287 1530.77 764.343 1531.65 L764.343 1514.29 Z" fill="#000000" fill-rule="nonzero" fill-opacity="1" /><path clip-path="url(#clip920)" d="M1216.56 1517.37 Q1212.95 1517.37 1211.12 1520.93 Q1209.32 1524.47 1209.32 1531.6 Q1209.32 1538.71 1211.12 1542.27 Q1212.95 1545.82 1216.56 1545.82 Q1220.2 1545.82 1222 1542.27 Q1223.83 1538.71 1223.83 1531.6 Q1223.83 1524.47 1222 1520.93 Q1220.2 1517.37 1216.56 1517.37 M1216.56 1513.66 Q1222.37 1513.66 1225.43 1518.27 Q1228.51 1522.85 1228.51 1531.6 Q1228.51 1540.33 1225.43 1544.94 Q1222.37 1549.52 1216.56 1549.52 Q1210.75 1549.52 1207.68 1544.94 Q1204.62 1540.33 1204.62 1531.6 Q1204.62 1522.85 1207.68 1518.27 Q1210.75 1513.66 1216.56 1513.66 Z" fill="#000000" fill-rule="nonzero" fill-opacity="1" /><path clip-path="url(#clip920)" d="M1236.73 1542.97 L1241.61 1542.97 L1241.61 1548.85 L1236.73 1548.85 L1236.73 1542.97 Z" fill="#000000" fill-rule="nonzero" fill-opacity="1" /><path clip-path="url(#clip920)" d="M1251.84 1514.29 L1270.2 1514.29 L1270.2 1518.22 L1256.12 1518.22 L1256.12 1526.7 Q1257.14 1526.35 1258.16 1526.19 Q1259.18 1526 1260.2 1526 Q1265.98 1526 1269.36 1529.17 Q1272.74 1532.34 1272.74 1537.76 Q1272.74 1543.34 1269.27 1546.44 Q1265.8 1549.52 1259.48 1549.52 Q1257.3 1549.52 1255.04 1549.15 Q1252.79 1548.78 1250.38 1548.04 L1250.38 1543.34 Q1252.47 1544.47 1254.69 1545.03 Q1256.91 1545.58 1259.39 1545.58 Q1263.39 1545.58 1265.73 1543.48 Q1268.07 1541.37 1268.07 1537.76 Q1268.07 1534.15 1265.73 1532.04 Q1263.39 1529.94 1259.39 1529.94 Q1257.51 1529.94 1255.64 1530.35 Q1253.79 1530.77 1251.84 1531.65 L1251.84 1514.29 Z" fill="#000000" fill-rule="nonzero" fill-opacity="1" /><path clip-path="url(#clip920)" d="M1291.96 1517.37 Q1288.35 1517.37 1286.52 1520.93 Q1284.71 1524.47 1284.71 1531.6 Q1284.71 1538.71 1286.52 1542.27 Q1288.35 1545.82 1291.96 1545.82 Q1295.59 1545.82 1297.4 1542.27 Q1299.23 1538.71 1299.23 1531.6 Q1299.23 1524.47 1297.4 1520.93 Q1295.59 1517.37 1291.96 1517.37 M1291.96 1513.66 Q1297.77 1513.66 1300.82 1518.27 Q1303.9 1522.85 1303.9 1531.6 Q1303.9 1540.33 1300.82 1544.94 Q1297.77 1549.52 1291.96 1549.52 Q1286.15 1549.52 1283.07 1544.94 Q1280.01 1540.33 1280.01 1531.6 Q1280.01 1522.85 1283.07 1518.27 Q1286.15 1513.66 1291.96 1513.66 Z" fill="#000000" fill-rule="nonzero" fill-opacity="1" /><path clip-path="url(#clip920)" d="M1735.22 1517.37 Q1731.61 1517.37 1729.78 1520.93 Q1727.97 1524.47 1727.97 1531.6 Q1727.97 1538.71 1729.78 1542.27 Q1731.61 1545.82 1735.22 1545.82 Q1738.85 1545.82 1740.66 1542.27 Q1742.49 1538.71 1742.49 1531.6 Q1742.49 1524.47 1740.66 1520.93 Q1738.85 1517.37 1735.22 1517.37 M1735.22 1513.66 Q1741.03 1513.66 1744.09 1518.27 Q1747.16 1522.85 1747.16 1531.6 Q1747.16 1540.33 1744.09 1544.94 Q1741.03 1549.52 1735.22 1549.52 Q1729.41 1549.52 1726.33 1544.94 Q1723.28 1540.33 1723.28 1531.6 Q1723.28 1522.85 1726.33 1518.27 Q1729.41 1513.66 1735.22 1513.66 Z" fill="#000000" fill-rule="nonzero" fill-opacity="1" /><path clip-path="url(#clip920)" d="M1755.38 1542.97 L1760.27 1542.97 L1760.27 1548.85 L1755.38 1548.85 L1755.38 1542.97 Z" fill="#000000" fill-rule="nonzero" fill-opacity="1" /><path clip-path="url(#clip920)" d="M1769.27 1514.29 L1791.49 1514.29 L1791.49 1516.28 L1778.95 1548.85 L1774.06 1548.85 L1785.87 1518.22 L1769.27 1518.22 L1769.27 1514.29 Z" fill="#000000" fill-rule="nonzero" fill-opacity="1" /><path clip-path="url(#clip920)" d="M1800.66 1514.29 L1819.02 1514.29 L1819.02 1518.22 L1804.94 1518.22 L1804.94 1526.7 Q1805.96 1526.35 1806.98 1526.19 Q1808 1526 1809.02 1526 Q1814.8 1526 1818.18 1529.17 Q1821.56 1532.34 1821.56 1537.76 Q1821.56 1543.34 1818.09 1546.44 Q1814.62 1549.52 1808.3 1549.52 Q1806.12 1549.52 1803.85 1549.15 Q1801.61 1548.78 1799.2 1548.04 L1799.2 1543.34 Q1801.28 1544.47 1803.51 1545.03 Q1805.73 1545.58 1808.21 1545.58 Q1812.21 1545.58 1814.55 1543.48 Q1816.89 1541.37 1816.89 1537.76 Q1816.89 1534.15 1814.55 1532.04 Q1812.21 1529.94 1808.21 1529.94 Q1806.33 1529.94 1804.46 1530.35 Q1802.6 1530.77 1800.66 1531.65 L1800.66 1514.29 Z" fill="#000000" fill-rule="nonzero" fill-opacity="1" /><path clip-path="url(#clip920)" d="M2242.65 1544.91 L2250.29 1544.91 L2250.29 1518.55 L2241.98 1520.21 L2241.98 1515.95 L2250.24 1514.29 L2254.92 1514.29 L2254.92 1544.91 L2262.56 1544.91 L2262.56 1548.85 L2242.65 1548.85 L2242.65 1544.91 Z" fill="#000000" fill-rule="nonzero" fill-opacity="1" /><path clip-path="url(#clip920)" d="M2272 1542.97 L2276.88 1542.97 L2276.88 1548.85 L2272 1548.85 L2272 1542.97 Z" fill="#000000" fill-rule="nonzero" fill-opacity="1" /><path clip-path="url(#clip920)" d="M2297.07 1517.37 Q2293.46 1517.37 2291.63 1520.93 Q2289.82 1524.47 2289.82 1531.6 Q2289.82 1538.71 2291.63 1542.27 Q2293.46 1545.82 2297.07 1545.82 Q2300.7 1545.82 2302.51 1542.27 Q2304.34 1538.71 2304.34 1531.6 Q2304.34 1524.47 2302.51 1520.93 Q2300.7 1517.37 2297.07 1517.37 M2297.07 1513.66 Q2302.88 1513.66 2305.94 1518.27 Q2309.01 1522.85 2309.01 1531.6 Q2309.01 1540.33 2305.94 1544.94 Q2302.88 1549.52 2297.07 1549.52 Q2291.26 1549.52 2288.18 1544.94 Q2285.13 1540.33 2285.13 1531.6 Q2285.13 1522.85 2288.18 1518.27 Q2291.26 1513.66 2297.07 1513.66 Z" fill="#000000" fill-rule="nonzero" fill-opacity="1" /><path clip-path="url(#clip920)" d="M2327.23 1517.37 Q2323.62 1517.37 2321.79 1520.93 Q2319.99 1524.47 2319.99 1531.6 Q2319.99 1538.71 2321.79 1542.27 Q2323.62 1545.82 2327.23 1545.82 Q2330.87 1545.82 2332.67 1542.27 Q2334.5 1538.71 2334.5 1531.6 Q2334.5 1524.47 2332.67 1520.93 Q2330.87 1517.37 2327.23 1517.37 M2327.23 1513.66 Q2333.04 1513.66 2336.1 1518.27 Q2339.18 1522.85 2339.18 1531.6 Q2339.18 1540.33 2336.1 1544.94 Q2333.04 1549.52 2327.23 1549.52 Q2321.42 1549.52 2318.34 1544.94 Q2315.29 1540.33 2315.29 1531.6 Q2315.29 1522.85 2318.34 1518.27 Q2321.42 1513.66 2327.23 1513.66 Z" fill="#000000" fill-rule="nonzero" fill-opacity="1" /><polyline clip-path="url(#clip920)" style="stroke:#000000; stroke-linecap:round; stroke-linejoin:round; stroke-width:4; stroke-opacity:1; fill:none" points="155.765,1486.45 155.765,47.2441 "/>
<polyline clip-path="url(#clip920)" style="stroke:#000000; stroke-linecap:round; stroke-linejoin:round; stroke-width:4; stroke-opacity:1; fill:none" points="155.765,1337.97 174.663,1337.97 "/>
<polyline clip-path="url(#clip920)" style="stroke:#000000; stroke-linecap:round; stroke-linejoin:round; stroke-width:4; stroke-opacity:1; fill:none" points="155.765,1118.35 174.663,1118.35 "/>
<polyline clip-path="url(#clip920)" style="stroke:#000000; stroke-linecap:round; stroke-linejoin:round; stroke-width:4; stroke-opacity:1; fill:none" points="155.765,898.723 174.663,898.723 "/>
<polyline clip-path="url(#clip920)" style="stroke:#000000; stroke-linecap:round; stroke-linejoin:round; stroke-width:4; stroke-opacity:1; fill:none" points="155.765,679.101 174.663,679.101 "/>
<polyline clip-path="url(#clip920)" style="stroke:#000000; stroke-linecap:round; stroke-linejoin:round; stroke-width:4; stroke-opacity:1; fill:none" points="155.765,459.478 174.663,459.478 "/>
<polyline clip-path="url(#clip920)" style="stroke:#000000; stroke-linecap:round; stroke-linejoin:round; stroke-width:4; stroke-opacity:1; fill:none" points="155.765,239.856 174.663,239.856 "/>
<path clip-path="url(#clip920)" d="M63.5847 1323.77 Q59.9736 1323.77 58.1449 1327.33 Q56.3393 1330.87 56.3393 1338 Q56.3393 1345.11 58.1449 1348.67 Q59.9736 1352.22 63.5847 1352.22 Q67.2189 1352.22 69.0244 1348.67 Q70.8531 1345.11 70.8531 1338 Q70.8531 1330.87 69.0244 1327.33 Q67.2189 1323.77 63.5847 1323.77 M63.5847 1320.06 Q69.3948 1320.06 72.4503 1324.67 Q75.529 1329.25 75.529 1338 Q75.529 1346.73 72.4503 1351.34 Q69.3948 1355.92 63.5847 1355.92 Q57.7745 1355.92 54.6958 1351.34 Q51.6403 1346.73 51.6403 1338 Q51.6403 1329.25 54.6958 1324.67 Q57.7745 1320.06 63.5847 1320.06 Z" fill="#000000" fill-rule="nonzero" fill-opacity="1" /><path clip-path="url(#clip920)" d="M83.7466 1349.37 L88.6308 1349.37 L88.6308 1355.25 L83.7466 1355.25 L83.7466 1349.37 Z" fill="#000000" fill-rule="nonzero" fill-opacity="1" /><path clip-path="url(#clip920)" d="M98.8622 1320.69 L117.219 1320.69 L117.219 1324.62 L103.145 1324.62 L103.145 1333.1 Q104.163 1332.75 105.182 1332.59 Q106.2 1332.4 107.219 1332.4 Q113.006 1332.4 116.385 1335.57 Q119.765 1338.74 119.765 1344.16 Q119.765 1349.74 116.293 1352.84 Q112.82 1355.92 106.501 1355.92 Q104.325 1355.92 102.057 1355.55 Q99.8113 1355.18 97.4039 1354.44 L97.4039 1349.74 Q99.4872 1350.87 101.709 1351.43 Q103.932 1351.98 106.408 1351.98 Q110.413 1351.98 112.751 1349.88 Q115.089 1347.77 115.089 1344.16 Q115.089 1340.55 112.751 1338.44 Q110.413 1336.34 106.408 1336.34 Q104.534 1336.34 102.659 1336.75 Q100.807 1337.17 98.8622 1338.05 L98.8622 1320.69 Z" fill="#000000" fill-rule="nonzero" fill-opacity="1" /><path clip-path="url(#clip920)" d="M53.3995 1131.69 L61.0384 1131.69 L61.0384 1105.33 L52.7282 1106.99 L52.7282 1102.73 L60.9921 1101.07 L65.668 1101.07 L65.668 1131.69 L73.3068 1131.69 L73.3068 1135.63 L53.3995 1135.63 L53.3995 1131.69 Z" fill="#000000" fill-rule="nonzero" fill-opacity="1" /><path clip-path="url(#clip920)" d="M82.7512 1129.75 L87.6354 1129.75 L87.6354 1135.63 L82.7512 1135.63 L82.7512 1129.75 Z" fill="#000000" fill-rule="nonzero" fill-opacity="1" /><path clip-path="url(#clip920)" d="M107.821 1104.14 Q104.209 1104.14 102.381 1107.71 Q100.575 1111.25 100.575 1118.38 Q100.575 1125.49 102.381 1129.05 Q104.209 1132.59 107.821 1132.59 Q111.455 1132.59 113.26 1129.05 Q115.089 1125.49 115.089 1118.38 Q115.089 1111.25 113.26 1107.71 Q111.455 1104.14 107.821 1104.14 M107.821 1100.44 Q113.631 1100.44 116.686 1105.05 Q119.765 1109.63 119.765 1118.38 Q119.765 1127.11 116.686 1131.71 Q113.631 1136.3 107.821 1136.3 Q102.01 1136.3 98.9317 1131.71 Q95.8761 1127.11 95.8761 1118.38 Q95.8761 1109.63 98.9317 1105.05 Q102.01 1100.44 107.821 1100.44 Z" fill="#000000" fill-rule="nonzero" fill-opacity="1" /><path clip-path="url(#clip920)" d="M54.3949 912.068 L62.0337 912.068 L62.0337 885.703 L53.7236 887.369 L53.7236 883.11 L61.9874 881.443 L66.6633 881.443 L66.6633 912.068 L74.3022 912.068 L74.3022 916.003 L54.3949 916.003 L54.3949 912.068 Z" fill="#000000" fill-rule="nonzero" fill-opacity="1" /><path clip-path="url(#clip920)" d="M83.7466 910.124 L88.6308 910.124 L88.6308 916.003 L83.7466 916.003 L83.7466 910.124 Z" fill="#000000" fill-rule="nonzero" fill-opacity="1" /><path clip-path="url(#clip920)" d="M98.8622 881.443 L117.219 881.443 L117.219 885.378 L103.145 885.378 L103.145 893.851 Q104.163 893.503 105.182 893.341 Q106.2 893.156 107.219 893.156 Q113.006 893.156 116.385 896.328 Q119.765 899.499 119.765 904.915 Q119.765 910.494 116.293 913.596 Q112.82 916.675 106.501 916.675 Q104.325 916.675 102.057 916.304 Q99.8113 915.934 97.4039 915.193 L97.4039 910.494 Q99.4872 911.628 101.709 912.184 Q103.932 912.739 106.408 912.739 Q110.413 912.739 112.751 910.633 Q115.089 908.527 115.089 904.915 Q115.089 901.304 112.751 899.198 Q110.413 897.091 106.408 897.091 Q104.534 897.091 102.659 897.508 Q100.807 897.925 98.8622 898.804 L98.8622 881.443 Z" fill="#000000" fill-rule="nonzero" fill-opacity="1" /><path clip-path="url(#clip920)" d="M56.6171 692.446 L72.9365 692.446 L72.9365 696.381 L50.9921 696.381 L50.9921 692.446 Q53.6541 689.691 58.2375 685.061 Q62.8439 680.409 64.0245 679.066 Q66.2698 676.543 67.1494 674.807 Q68.0522 673.048 68.0522 671.358 Q68.0522 668.603 66.1078 666.867 Q64.1865 665.131 61.0847 665.131 Q58.8856 665.131 56.4319 665.895 Q54.0014 666.659 51.2236 668.21 L51.2236 663.487 Q54.0477 662.353 56.5014 661.774 Q58.955 661.196 60.9921 661.196 Q66.3624 661.196 69.5568 663.881 Q72.7513 666.566 72.7513 671.057 Q72.7513 673.186 71.9411 675.108 Q71.1541 677.006 69.0476 679.598 Q68.4689 680.27 65.367 683.487 Q62.2652 686.682 56.6171 692.446 Z" fill="#000000" fill-rule="nonzero" fill-opacity="1" /><path clip-path="url(#clip920)" d="M82.7512 690.501 L87.6354 690.501 L87.6354 696.381 L82.7512 696.381 L82.7512 690.501 Z" fill="#000000" fill-rule="nonzero" fill-opacity="1" /><path clip-path="url(#clip920)" d="M107.821 664.899 Q104.209 664.899 102.381 668.464 Q100.575 672.006 100.575 679.135 Q100.575 686.242 102.381 689.807 Q104.209 693.348 107.821 693.348 Q111.455 693.348 113.26 689.807 Q115.089 686.242 115.089 679.135 Q115.089 672.006 113.26 668.464 Q111.455 664.899 107.821 664.899 M107.821 661.196 Q113.631 661.196 116.686 665.802 Q119.765 670.385 119.765 679.135 Q119.765 687.862 116.686 692.469 Q113.631 697.052 107.821 697.052 Q102.01 697.052 98.9317 692.469 Q95.8761 687.862 95.8761 679.135 Q95.8761 670.385 98.9317 665.802 Q102.01 661.196 107.821 661.196 Z" fill="#000000" fill-rule="nonzero" fill-opacity="1" /><path clip-path="url(#clip920)" d="M57.6125 472.823 L73.9318 472.823 L73.9318 476.758 L51.9875 476.758 L51.9875 472.823 Q54.6495 470.068 59.2328 465.439 Q63.8393 460.786 65.0198 459.443 Q67.2652 456.92 68.1448 455.184 Q69.0476 453.425 69.0476 451.735 Q69.0476 448.981 67.1032 447.244 Q65.1819 445.508 62.08 445.508 Q59.881 445.508 57.4273 446.272 Q54.9967 447.036 52.219 448.587 L52.219 443.865 Q55.043 442.731 57.4967 442.152 Q59.9504 441.573 61.9874 441.573 Q67.3578 441.573 70.5522 444.258 Q73.7466 446.943 73.7466 451.434 Q73.7466 453.564 72.9365 455.485 Q72.1494 457.383 70.0429 459.976 Q69.4642 460.647 66.3624 463.865 Q63.2606 467.059 57.6125 472.823 Z" fill="#000000" fill-rule="nonzero" fill-opacity="1" /><path clip-path="url(#clip920)" d="M83.7466 470.879 L88.6308 470.879 L88.6308 476.758 L83.7466 476.758 L83.7466 470.879 Z" fill="#000000" fill-rule="nonzero" fill-opacity="1" /><path clip-path="url(#clip920)" d="M98.8622 442.198 L117.219 442.198 L117.219 446.133 L103.145 446.133 L103.145 454.605 Q104.163 454.258 105.182 454.096 Q106.2 453.911 107.219 453.911 Q113.006 453.911 116.385 457.082 Q119.765 460.254 119.765 465.67 Q119.765 471.249 116.293 474.351 Q112.82 477.429 106.501 477.429 Q104.325 477.429 102.057 477.059 Q99.8113 476.689 97.4039 475.948 L97.4039 471.249 Q99.4872 472.383 101.709 472.939 Q103.932 473.494 106.408 473.494 Q110.413 473.494 112.751 471.388 Q115.089 469.281 115.089 465.67 Q115.089 462.059 112.751 459.953 Q110.413 457.846 106.408 457.846 Q104.534 457.846 102.659 458.263 Q100.807 458.68 98.8622 459.559 L98.8622 442.198 Z" fill="#000000" fill-rule="nonzero" fill-opacity="1" /><path clip-path="url(#clip920)" d="M66.7559 238.501 Q70.1124 239.219 71.9874 241.487 Q73.8855 243.756 73.8855 247.089 Q73.8855 252.205 70.367 255.006 Q66.8485 257.807 60.3671 257.807 Q58.1912 257.807 55.8764 257.367 Q53.5847 256.95 51.131 256.094 L51.131 251.58 Q53.0754 252.714 55.3903 253.293 Q57.7051 253.872 60.2282 253.872 Q64.6263 253.872 66.918 252.136 Q69.2328 250.399 69.2328 247.089 Q69.2328 244.034 67.08 242.321 Q64.9504 240.585 61.131 240.585 L57.1032 240.585 L57.1032 236.742 L61.3161 236.742 Q64.7652 236.742 66.5939 235.376 Q68.4226 233.988 68.4226 231.395 Q68.4226 228.733 66.5245 227.321 Q64.6495 225.886 61.131 225.886 Q59.2097 225.886 57.0106 226.302 Q54.8115 226.719 52.1727 227.599 L52.1727 223.432 Q54.8347 222.691 57.1495 222.321 Q59.4875 221.951 61.5476 221.951 Q66.8717 221.951 69.9735 224.381 Q73.0753 226.788 73.0753 230.909 Q73.0753 233.779 71.4318 235.77 Q69.7883 237.738 66.7559 238.501 Z" fill="#000000" fill-rule="nonzero" fill-opacity="1" /><path clip-path="url(#clip920)" d="M82.7512 251.256 L87.6354 251.256 L87.6354 257.136 L82.7512 257.136 L82.7512 251.256 Z" fill="#000000" fill-rule="nonzero" fill-opacity="1" /><path clip-path="url(#clip920)" d="M107.821 225.654 Q104.209 225.654 102.381 229.219 Q100.575 232.761 100.575 239.89 Q100.575 246.997 102.381 250.562 Q104.209 254.103 107.821 254.103 Q111.455 254.103 113.26 250.562 Q115.089 246.997 115.089 239.89 Q115.089 232.761 113.26 229.219 Q111.455 225.654 107.821 225.654 M107.821 221.951 Q113.631 221.951 116.686 226.557 Q119.765 231.14 119.765 239.89 Q119.765 248.617 116.686 253.224 Q113.631 257.807 107.821 257.807 Q102.01 257.807 98.9317 253.224 Q95.8761 248.617 95.8761 239.89 Q95.8761 231.14 98.9317 226.557 Q102.01 221.951 107.821 221.951 Z" fill="#000000" fill-rule="nonzero" fill-opacity="1" /><path clip-path="url(#clip921)" d="M217.944 1337.97 L425.207 1401.84 L632.47 1432.44 L839.734 1445.72 L1047 1435.67 L1254.26 1438.13 L1461.52 1396.88 L1668.79 1404.97 L1876.05 1408.62 L2083.31 1384.6 L2290.58 1311.35 L2290.58 87.9763 L2083.31 465.395 L1876.05 576.609 L1668.79 699.71 L1461.52 778.441 L1254.26 826.526 L1047 981.466 L839.734 1121.28 L632.47 1223.12 L425.207 1277.13 L217.944 1337.97  Z" fill="#009af9" fill-rule="evenodd" fill-opacity="0.2"/>
<polyline clip-path="url(#clip921)" style="stroke:#009af9; stroke-linecap:round; stroke-linejoin:round; stroke-width:12; stroke-opacity:1; fill:none" points="217.944,1337.97 425.207,1316.02 632.47,1310.63 839.734,1324.34 1047,1317.07 1254.26,1277.92 1461.52,1231.32 1668.79,1166.91 1876.05,1133.46 2083.31,1145.2 2290.58,1073.6 "/>
</svg>
