<?xml version="1.0" encoding="utf-8"?>
<svg xmlns="http://www.w3.org/2000/svg" xmlns:xlink="http://www.w3.org/1999/xlink" width="600" height="400" viewBox="0 0 2400 1600">
<defs>
  <clipPath id="clip950">
    <rect x="0" y="0" width="2400" height="1600"/>
  </clipPath>
</defs>
<path clip-path="url(#clip950)" d="M0 1600 L2400 1600 L2400 0 L0 0  Z" fill="#ffffff" fill-rule="evenodd" fill-opacity="1"/>
<defs>
  <clipPath id="clip951">
    <rect x="155" y="47" width="2198" height="1440"/>
  </clipPath>
</defs>
<path clip-path="url(#clip950)" d="M155.765 1486.45 L2352.76 1486.45 L2352.76 47.2441 L155.765 47.2441  Z" fill="#ffffff" fill-rule="evenodd" fill-opacity="1"/>
<polyline clip-path="url(#clip951)" style="stroke:#000000; stroke-linecap:round; stroke-linejoin:round; stroke-width:2; stroke-opacity:0.1; fill:none" points="217.944,1486.45 217.944,47.2441 "/>
<polyline clip-path="url(#clip951)" style="stroke:#000000; stroke-linecap:round; stroke-linejoin:round; stroke-width:2; stroke-opacity:0.1; fill:none" points="736.102,1486.45 736.102,47.2441 "/>
<polyline clip-path="url(#clip951)" style="stroke:#000000; stroke-linecap:round; stroke-linejoin:round; stroke-width:2; stroke-opacity:0.1; fill:none" points="1254.26,1486.45 1254.26,47.2441 "/>
<polyline clip-path="url(#clip951)" style="stroke:#000000; stroke-linecap:round; stroke-linejoin:round; stroke-width:2; stroke-opacity:0.1; fill:none" points="1772.42,1486.45 1772.42,47.2441 "/>
<polyline clip-path="url(#clip951)" style="stroke:#000000; stroke-linecap:round; stroke-linejoin:round; stroke-width:2; stroke-opacity:0.1; fill:none" points="2290.58,1486.45 2290.58,47.2441 "/>
<polyline clip-path="url(#clip951)" style="stroke:#000000; stroke-linecap:round; stroke-linejoin:round; stroke-width:2; stroke-opacity:0.1; fill:none" points="155.765,1318.97 2352.76,1318.97 "/>
<polyline clip-path="url(#clip951)" style="stroke:#000000; stroke-linecap:round; stroke-linejoin:round; stroke-width:2; stroke-opacity:0.1; fill:none" points="155.765,1102.68 2352.76,1102.68 "/>
<polyline clip-path="url(#clip951)" style="stroke:#000000; stroke-linecap:round; stroke-linejoin:round; stroke-width:2; stroke-opacity:0.1; fill:none" points="155.765,886.398 2352.76,886.398 "/>
<polyline clip-path="url(#clip951)" style="stroke:#000000; stroke-linecap:round; stroke-linejoin:round; stroke-width:2; stroke-opacity:0.1; fill:none" points="155.765,670.114 2352.76,670.114 "/>
<polyline clip-path="url(#clip951)" style="stroke:#000000; stroke-linecap:round; stroke-linejoin:round; stroke-width:2; stroke-opacity:0.1; fill:none" points="155.765,453.83 2352.76,453.83 "/>
<polyline clip-path="url(#clip951)" style="stroke:#000000; stroke-linecap:round; stroke-linejoin:round; stroke-width:2; stroke-opacity:0.1; fill:none" points="155.765,237.547 2352.76,237.547 "/>
<polyline clip-path="url(#clip950)" style="stroke:#000000; stroke-linecap:round; stroke-linejoin:round; stroke-width:4; stroke-opacity:1; fill:none" points="155.765,1486.45 2352.76,1486.45 "/>
<polyline clip-path="url(#clip950)" style="stroke:#000000; stroke-linecap:round; stroke-linejoin:round; stroke-width:4; stroke-opacity:1; fill:none" points="217.944,1486.45 217.944,1467.55 "/>
<polyline clip-path="url(#clip950)" style="stroke:#000000; stroke-linecap:round; stroke-linejoin:round; stroke-width:4; stroke-opacity:1; fill:none" points="736.102,1486.45 736.102,1467.55 "/>
<polyline clip-path="url(#clip950)" style="stroke:#000000; stroke-linecap:round; stroke-linejoin:round; stroke-width:4; stroke-opacity:1; fill:none" points="1254.26,1486.45 1254.26,1467.55 "/>
<polyline clip-path="url(#clip950)" style="stroke:#000000; stroke-linecap:round; stroke-linejoin:round; stroke-width:4; stroke-opacity:1; fill:none" points="1772.42,1486.45 1772.42,1467.55 "/>
<polyline clip-path="url(#clip950)" style="stroke:#000000; stroke-linecap:round; stroke-linejoin:round; stroke-width:4; stroke-opacity:1; fill:none" points="2290.58,1486.45 2290.58,1467.55 "/>
<path clip-path="url(#clip950)" d="M180.247 1517.37 Q176.636 1517.37 174.808 1520.93 Q173.002 1524.47 173.002 1531.6 Q173.002 1538.71 174.808 1542.27 Q176.636 1545.82 180.247 1545.82 Q183.882 1545.82 185.687 1542.27 Q187.516 1538.71 187.516 1531.6 Q187.516 1524.47 185.687 1520.93 Q183.882 1517.37 180.247 1517.37 M180.247 1513.66 Q186.057 1513.66 189.113 1518.27 Q192.192 1522.85 192.192 1531.6 Q192.192 1540.33 189.113 1544.94 Q186.057 1549.52 180.247 1549.52 Q174.437 1549.52 171.358 1544.94 Q168.303 1540.33 168.303 1531.6 Q168.303 1522.85 171.358 1518.27 Q174.437 1513.66 180.247 1513.66 Z" fill="#000000" fill-rule="nonzero" fill-opacity="1" /><path clip-path="url(#clip950)" d="M200.409 1542.97 L205.294 1542.97 L205.294 1548.85 L200.409 1548.85 L200.409 1542.97 Z" fill="#000000" fill-rule="nonzero" fill-opacity="1" /><path clip-path="url(#clip950)" d="M225.479 1517.37 Q221.867 1517.37 220.039 1520.93 Q218.233 1524.47 218.233 1531.6 Q218.233 1538.71 220.039 1542.27 Q221.867 1545.82 225.479 1545.82 Q229.113 1545.82 230.918 1542.27 Q232.747 1538.71 232.747 1531.6 Q232.747 1524.47 230.918 1520.93 Q229.113 1517.37 225.479 1517.37 M225.479 1513.66 Q231.289 1513.66 234.344 1518.27 Q237.423 1522.85 237.423 1531.6 Q237.423 1540.33 234.344 1544.94 Q231.289 1549.52 225.479 1549.52 Q219.668 1549.52 216.59 1544.94 Q213.534 1540.33 213.534 1531.6 Q213.534 1522.85 216.59 1518.27 Q219.668 1513.66 225.479 1513.66 Z" fill="#000000" fill-rule="nonzero" fill-opacity="1" /><path clip-path="url(#clip950)" d="M255.64 1517.37 Q252.029 1517.37 250.201 1520.93 Q248.395 1524.47 248.395 1531.6 Q248.395 1538.71 250.201 1542.27 Q252.029 1545.82 255.64 1545.82 Q259.275 1545.82 261.08 1542.27 Q262.909 1538.71 262.909 1531.6 Q262.909 1524.47 261.08 1520.93 Q259.275 1517.37 255.64 1517.37 M255.64 1513.66 Q261.451 1513.66 264.506 1518.27 Q267.585 1522.85 267.585 1531.6 Q267.585 1540.33 264.506 1544.94 Q261.451 1549.52 255.64 1549.52 Q249.83 1549.52 246.752 1544.94 Q243.696 1540.33 243.696 1531.6 Q243.696 1522.85 246.752 1518.27 Q249.83 1513.66 255.64 1513.66 Z" fill="#000000" fill-rule="nonzero" fill-opacity="1" /><path clip-path="url(#clip950)" d="M698.903 1517.37 Q695.292 1517.37 693.463 1520.93 Q691.658 1524.47 691.658 1531.6 Q691.658 1538.71 693.463 1542.27 Q695.292 1545.82 698.903 1545.82 Q702.538 1545.82 704.343 1542.27 Q706.172 1538.71 706.172 1531.6 Q706.172 1524.47 704.343 1520.93 Q702.538 1517.37 698.903 1517.37 M698.903 1513.66 Q704.713 1513.66 707.769 1518.27 Q710.848 1522.85 710.848 1531.6 Q710.848 1540.33 707.769 1544.94 Q704.713 1549.52 698.903 1549.52 Q693.093 1549.52 690.014 1544.94 Q686.959 1540.33 686.959 1531.6 Q686.959 1522.85 690.014 1518.27 Q693.093 1513.66 698.903 1513.66 Z" fill="#000000" fill-rule="nonzero" fill-opacity="1" /><path clip-path="url(#clip950)" d="M719.065 1542.97 L723.949 1542.97 L723.949 1548.85 L719.065 1548.85 L719.065 1542.97 Z" fill="#000000" fill-rule="nonzero" fill-opacity="1" /><path clip-path="url(#clip950)" d="M738.162 1544.91 L754.482 1544.91 L754.482 1548.85 L732.537 1548.85 L732.537 1544.91 Q735.199 1542.16 739.783 1537.53 Q744.389 1532.88 745.57 1531.53 Q747.815 1529.01 748.695 1527.27 Q749.597 1525.51 749.597 1523.82 Q749.597 1521.07 747.653 1519.33 Q745.732 1517.6 742.63 1517.6 Q740.431 1517.6 737.977 1518.36 Q735.547 1519.13 732.769 1520.68 L732.769 1515.95 Q735.593 1514.82 738.047 1514.24 Q740.5 1513.66 742.537 1513.66 Q747.908 1513.66 751.102 1516.35 Q754.296 1519.03 754.296 1523.52 Q754.296 1525.65 753.486 1527.57 Q752.699 1529.47 750.593 1532.07 Q750.014 1532.74 746.912 1535.95 Q743.81 1539.15 738.162 1544.91 Z" fill="#000000" fill-rule="nonzero" fill-opacity="1" /><path clip-path="url(#clip950)" d="M764.343 1514.29 L782.699 1514.29 L782.699 1518.22 L768.625 1518.22 L768.625 1526.7 Q769.644 1526.35 770.662 1526.19 Q771.681 1526 772.699 1526 Q778.486 1526 781.866 1529.17 Q785.245 1532.34 785.245 1537.76 Q785.245 1543.34 781.773 1546.44 Q778.301 1549.52 771.982 1549.52 Q769.806 1549.52 767.537 1549.15 Q765.292 1548.78 762.884 1548.04 L762.884 1543.34 Q764.968 1544.47 767.19 1545.03 Q769.412 1545.58 771.889 1545.58 Q775.894 1545.58 778.232 1543.48 Q780.57 1541.37 780.57 1537.76 Q780.57 1534.15 778.232 1532.04 Q775.894 1529.94 771.889 1529.94 Q770.014 1529.94 768.139 1530.35 Q766.287 1530.77 764.343 1531.65 L764.343 1514.29 Z" fill="#000000" fill-rule="nonzero" fill-opacity="1" /><path clip-path="url(#clip950)" d="M1216.56 1517.37 Q1212.95 1517.37 1211.12 1520.93 Q1209.32 1524.47 1209.32 1531.6 Q1209.32 1538.71 1211.12 1542.27 Q1212.95 1545.82 1216.56 1545.82 Q1220.2 1545.82 1222 1542.27 Q1223.83 1538.71 1223.83 1531.6 Q1223.83 1524.47 1222 1520.93 Q1220.2 1517.37 1216.56 1517.37 M1216.56 1513.66 Q1222.37 1513.66 1225.43 1518.27 Q1228.51 1522.85 1228.51 1531.6 Q1228.51 1540.33 1225.43 1544.94 Q1222.37 1549.52 1216.56 1549.52 Q1210.75 1549.52 1207.68 1544.94 Q1204.62 1540.33 1204.62 1531.6 Q1204.62 1522.85 1207.68 1518.27 Q1210.75 1513.66 1216.56 1513.66 Z" fill="#000000" fill-rule="nonzero" fill-opacity="1" /><path clip-path="url(#clip950)" d="M1236.73 1542.97 L1241.61 1542.97 L1241.61 1548.85 L1236.73 1548.85 L1236.73 1542.97 Z" fill="#000000" fill-rule="nonzero" fill-opacity="1" /><path clip-path="url(#clip950)" d="M1251.84 1514.29 L1270.2 1514.29 L1270.2 1518.22 L1256.12 1518.22 L1256.12 1526.7 Q1257.14 1526.35 1258.16 1526.19 Q1259.18 1526 1260.2 1526 Q1265.98 1526 1269.36 1529.17 Q1272.74 1532.34 1272.74 1537.76 Q1272.74 1543.34 1269.27 1546.44 Q1265.8 1549.52 1259.48 1549.52 Q1257.3 1549.52 1255.04 1549.15 Q1252.79 1548.78 1250.38 1548.04 L1250.38 1543.34 Q1252.47 1544.47 1254.69 1545.03 Q1256.91 1545.58 1259.39 1545.58 Q1263.39 1545.58 1265.73 1543.48 Q1268.07 1541.37 1268.07 1537.76 Q1268.07 1534.15 1265.73 1532.04 Q1263.39 1529.94 1259.39 1529.94 Q1257.51 1529.94 1255.64 1530.35 Q1253.79 1530.77 1251.84 1531.65 L1251.84 1514.29 Z" fill="#000000" fill-rule="nonzero" fill-opacity="1" /><path clip-path="url(#clip950)" d="M1291.96 1517.37 Q1288.35 1517.37 1286.52 1520.93 Q1284.71 1524.47 1284.71 1531.6 Q1284.71 1538.71 1286.52 1542.27 Q1288.35 1545.82 1291.96 1545.82 Q1295.59 1545.82 1297.4 1542.27 Q1299.23 1538.71 1299.23 1531.6 Q1299.23 1524.47 1297.4 1520.93 Q1295.59 1517.37 1291.96 1517.37 M1291.96 1513.66 Q1297.77 1513.66 1300.82 1518.27 Q1303.9 1522.85 1303.9 1531.6 Q1303.9 1540.33 1300.82 1544.94 Q1297.77 1549.52 1291.96 1549.52 Q1286.15 1549.52 1283.07 1544.94 Q1280.01 1540.33 1280.01 1531.6 Q1280.01 1522.85 1283.07 1518.27 Q1286.15 1513.66 1291.96 1513.66 Z" fill="#000000" fill-rule="nonzero" fill-opacity="1" /><path clip-path="url(#clip950)" d="M1735.22 1517.37 Q1731.61 1517.37 1729.78 1520.93 Q1727.97 1524.47 1727.97 1531.6 Q1727.97 1538.71 1729.78 1542.27 Q1731.61 1545.82 1735.22 1545.82 Q1738.85 1545.82 1740.66 1542.27 Q1742.49 1538.71 1742.49 1531.6 Q1742.49 1524.47 1740.66 1520.93 Q1738.85 1517.37 1735.22 1517.37 M1735.22 1513.66 Q1741.03 1513.66 1744.09 1518.27 Q1747.16 1522.85 1747.16 1531.6 Q1747.16 1540.33 1744.09 1544.94 Q1741.03 1549.52 1735.22 1549.52 Q1729.41 1549.52 1726.33 1544.94 Q1723.28 1540.33 1723.28 1531.6 Q1723.28 1522.85 1726.33 1518.27 Q1729.41 1513.66 1735.22 1513.66 Z" fill="#000000" fill-rule="nonzero" fill-opacity="1" /><path clip-path="url(#clip950)" d="M1755.38 1542.97 L1760.27 1542.97 L1760.27 1548.85 L1755.38 1548.85 L1755.38 1542.97 Z" fill="#000000" fill-rule="nonzero" fill-opacity="1" /><path clip-path="url(#clip950)" d="M1769.27 1514.29 L1791.49 1514.29 L1791.49 1516.28 L1778.95 1548.85 L1774.06 1548.85 L1785.87 1518.22 L1769.27 1518.22 L1769.27 1514.29 Z" fill="#000000" fill-rule="nonzero" fill-opacity="1" /><path clip-path="url(#clip950)" d="M1800.66 1514.29 L1819.02 1514.29 L1819.02 1518.22 L1804.94 1518.22 L1804.94 1526.7 Q1805.96 1526.35 1806.98 1526.19 Q1808 1526 1809.02 1526 Q1814.8 1526 1818.18 1529.17 Q1821.56 1532.34 1821.56 1537.76 Q1821.56 1543.34 1818.09 1546.44 Q1814.62 1549.52 1808.3 1549.52 Q1806.12 1549.52 1803.85 1549.15 Q1801.61 1548.78 1799.2 1548.04 L1799.2 1543.34 Q1801.28 1544.47 1803.51 1545.03 Q1805.73 1545.58 1808.21 1545.58 Q1812.21 1545.58 1814.55 1543.48 Q1816.89 1541.37 1816.89 1537.76 Q1816.89 1534.15 1814.55 1532.04 Q1812.21 1529.94 1808.21 1529.94 Q1806.33 1529.94 1804.46 1530.35 Q1802.6 1530.77 1800.66 1531.65 L1800.66 1514.29 Z" fill="#000000" fill-rule="nonzero" fill-opacity="1" /><path clip-path="url(#clip950)" d="M2242.65 1544.91 L2250.29 1544.91 L2250.29 1518.55 L2241.98 1520.21 L2241.98 1515.95 L2250.24 1514.29 L2254.92 1514.29 L2254.92 1544.91 L2262.56 1544.91 L2262.56 1548.85 L2242.65 1548.85 L2242.65 1544.91 Z" fill="#000000" fill-rule="nonzero" fill-opacity="1" /><path clip-path="url(#clip950)" d="M2272 1542.97 L2276.88 1542.97 L2276.88 1548.85 L2272 1548.85 L2272 1542.97 Z" fill="#000000" fill-rule="nonzero" fill-opacity="1" /><path clip-path="url(#clip950)" d="M2297.07 1517.37 Q2293.46 1517.37 2291.63 1520.93 Q2289.82 1524.47 2289.82 1531.6 Q2289.82 1538.71 2291.63 1542.27 Q2293.46 1545.82 2297.07 1545.82 Q2300.7 1545.82 2302.51 1542.27 Q2304.34 1538.71 2304.34 1531.6 Q2304.34 1524.47 2302.51 1520.93 Q2300.7 1517.37 2297.07 1517.37 M2297.07 1513.66 Q2302.88 1513.66 2305.94 1518.27 Q2309.01 1522.85 2309.01 1531.6 Q2309.01 1540.33 2305.94 1544.94 Q2302.88 1549.52 2297.07 1549.52 Q2291.26 1549.52 2288.18 1544.94 Q2285.13 1540.33 2285.13 1531.6 Q2285.13 1522.85 2288.18 1518.27 Q2291.26 1513.66 2297.07 1513.66 Z" fill="#000000" fill-rule="nonzero" fill-opacity="1" /><path clip-path="url(#clip950)" d="M2327.23 1517.37 Q2323.62 1517.37 2321.79 1520.93 Q2319.99 1524.47 2319.99 1531.6 Q2319.99 1538.71 2321.79 1542.27 Q2323.62 1545.82 2327.23 1545.82 Q2330.87 1545.82 2332.67 1542.27 Q2334.5 1538.71 2334.5 1531.6 Q2334.5 1524.47 2332.67 1520.93 Q2330.87 1517.37 2327.23 1517.37 M2327.23 1513.66 Q2333.04 1513.66 2336.1 1518.27 Q2339.18 1522.85 2339.18 1531.6 Q2339.18 1540.33 2336.1 1544.94 Q2333.04 1549.52 2327.23 1549.52 Q2321.42 1549.52 2318.34 1544.94 Q2315.29 1540.33 2315.29 1531.6 Q2315.29 1522.85 2318.34 1518.27 Q2321.42 1513.66 2327.23 1513.66 Z" fill="#000000" fill-rule="nonzero" fill-opacity="1" /><polyline clip-path="url(#clip950)" style="stroke:#000000; stroke-linecap:round; stroke-linejoin:round; stroke-width:4; stroke-opacity:1; fill:none" points="155.765,1486.45 155.765,47.2441 "/>
<polyline clip-path="url(#clip950)" style="stroke:#000000; stroke-linecap:round; stroke-linejoin:round; stroke-width:4; stroke-opacity:1; fill:none" points="155.765,1318.97 174.663,1318.97 "/>
<polyline clip-path="url(#clip950)" style="stroke:#000000; stroke-linecap:round; stroke-linejoin:round; stroke-width:4; stroke-opacity:1; fill:none" points="155.765,1102.68 174.663,1102.68 "/>
<polyline clip-path="url(#clip950)" style="stroke:#000000; stroke-linecap:round; stroke-linejoin:round; stroke-width:4; stroke-opacity:1; fill:none" points="155.765,886.398 174.663,886.398 "/>
<polyline clip-path="url(#clip950)" style="stroke:#000000; stroke-linecap:round; stroke-linejoin:round; stroke-width:4; stroke-opacity:1; fill:none" points="155.765,670.114 174.663,670.114 "/>
<polyline clip-path="url(#clip950)" style="stroke:#000000; stroke-linecap:round; stroke-linejoin:round; stroke-width:4; stroke-opacity:1; fill:none" points="155.765,453.83 174.663,453.83 "/>
<polyline clip-path="url(#clip950)" style="stroke:#000000; stroke-linecap:round; stroke-linejoin:round; stroke-width:4; stroke-opacity:1; fill:none" points="155.765,237.547 174.663,237.547 "/>
<path clip-path="url(#clip950)" d="M63.5847 1304.76 Q59.9736 1304.76 58.1449 1308.33 Q56.3393 1311.87 56.3393 1319 Q56.3393 1326.11 58.1449 1329.67 Q59.9736 1333.21 63.5847 1333.21 Q67.2189 1333.21 69.0244 1329.67 Q70.8531 1326.11 70.8531 1319 Q70.8531 1311.87 69.0244 1308.33 Q67.2189 1304.76 63.5847 1304.76 M63.5847 1301.06 Q69.3948 1301.06 72.4503 1305.67 Q75.529 1310.25 75.529 1319 Q75.529 1327.73 72.4503 1332.33 Q69.3948 1336.92 63.5847 1336.92 Q57.7745 1336.92 54.6958 1332.33 Q51.6403 1327.73 51.6403 1319 Q51.6403 1310.25 54.6958 1305.67 Q57.7745 1301.06 63.5847 1301.06 Z" fill="#000000" fill-rule="nonzero" fill-opacity="1" /><path clip-path="url(#clip950)" d="M83.7466 1330.37 L88.6308 1330.37 L88.6308 1336.25 L83.7466 1336.25 L83.7466 1330.37 Z" fill="#000000" fill-rule="nonzero" fill-opacity="1" /><path clip-path="url(#clip950)" d="M98.8622 1301.69 L117.219 1301.69 L117.219 1305.62 L103.145 1305.62 L103.145 1314.09 Q104.163 1313.75 105.182 1313.58 Q106.2 1313.4 107.219 1313.4 Q113.006 1313.4 116.385 1316.57 Q119.765 1319.74 119.765 1325.16 Q119.765 1330.74 116.293 1333.84 Q112.82 1336.92 106.501 1336.92 Q104.325 1336.92 102.057 1336.55 Q99.8113 1336.18 97.4039 1335.44 L97.4039 1330.74 Q99.4872 1331.87 101.709 1332.43 Q103.932 1332.98 106.408 1332.98 Q110.413 1332.98 112.751 1330.88 Q115.089 1328.77 115.089 1325.16 Q115.089 1321.55 112.751 1319.44 Q110.413 1317.33 106.408 1317.33 Q104.534 1317.33 102.659 1317.75 Q100.807 1318.17 98.8622 1319.05 L98.8622 1301.69 Z" fill="#000000" fill-rule="nonzero" fill-opacity="1" /><path clip-path="url(#clip950)" d="M53.3995 1116.03 L61.0384 1116.03 L61.0384 1089.66 L52.7282 1091.33 L52.7282 1087.07 L60.9921 1085.4 L65.668 1085.4 L65.668 1116.03 L73.3068 1116.03 L73.3068 1119.96 L53.3995 1119.96 L53.3995 1116.03 Z" fill="#000000" fill-rule="nonzero" fill-opacity="1" /><path clip-path="url(#clip950)" d="M82.7512 1114.08 L87.6354 1114.08 L87.6354 1119.96 L82.7512 1119.96 L82.7512 1114.08 Z" fill="#000000" fill-rule="nonzero" fill-opacity="1" /><path clip-path="url(#clip950)" d="M107.821 1088.48 Q104.209 1088.48 102.381 1092.05 Q100.575 1095.59 100.575 1102.72 Q100.575 1109.82 102.381 1113.39 Q104.209 1116.93 107.821 1116.93 Q111.455 1116.93 113.26 1113.39 Q115.089 1109.82 115.089 1102.72 Q115.089 1095.59 113.26 1092.05 Q111.455 1088.48 107.821 1088.48 M107.821 1084.78 Q113.631 1084.78 116.686 1089.38 Q119.765 1093.97 119.765 1102.72 Q119.765 1111.44 116.686 1116.05 Q113.631 1120.63 107.821 1120.63 Q102.01 1120.63 98.9317 1116.05 Q95.8761 1111.44 95.8761 1102.72 Q95.8761 1093.97 98.9317 1089.38 Q102.01 1084.78 107.821 1084.78 Z" fill="#000000" fill-rule="nonzero" fill-opacity="1" /><path clip-path="url(#clip950)" d="M54.3949 899.743 L62.0337 899.743 L62.0337 873.377 L53.7236 875.044 L53.7236 870.785 L61.9874 869.118 L66.6633 869.118 L66.6633 899.743 L74.3022 899.743 L74.3022 903.678 L54.3949 903.678 L54.3949 899.743 Z" fill="#000000" fill-rule="nonzero" fill-opacity="1" /><path clip-path="url(#clip950)" d="M83.7466 897.798 L88.6308 897.798 L88.6308 903.678 L83.7466 903.678 L83.7466 897.798 Z" fill="#000000" fill-rule="nonzero" fill-opacity="1" /><path clip-path="url(#clip950)" d="M98.8622 869.118 L117.219 869.118 L117.219 873.053 L103.145 873.053 L103.145 881.525 Q104.163 881.178 105.182 881.016 Q106.2 880.831 107.219 880.831 Q113.006 880.831 116.385 884.002 Q119.765 887.173 119.765 892.59 Q119.765 898.169 116.293 901.271 Q112.82 904.349 106.501 904.349 Q104.325 904.349 102.057 903.979 Q99.8113 903.609 97.4039 902.868 L97.4039 898.169 Q99.4872 899.303 101.709 899.859 Q103.932 900.414 106.408 900.414 Q110.413 900.414 112.751 898.308 Q115.089 896.201 115.089 892.59 Q115.089 888.979 112.751 886.873 Q110.413 884.766 106.408 884.766 Q104.534 884.766 102.659 885.183 Q100.807 885.599 98.8622 886.479 L98.8622 869.118 Z" fill="#000000" fill-rule="nonzero" fill-opacity="1" /><path clip-path="url(#clip950)" d="M56.6171 683.459 L72.9365 683.459 L72.9365 687.394 L50.9921 687.394 L50.9921 683.459 Q53.6541 680.704 58.2375 676.075 Q62.8439 671.422 64.0245 670.079 Q66.2698 667.556 67.1494 665.82 Q68.0522 664.061 68.0522 662.371 Q68.0522 659.617 66.1078 657.88 Q64.1865 656.144 61.0847 656.144 Q58.8856 656.144 56.4319 656.908 Q54.0014 657.672 51.2236 659.223 L51.2236 654.501 Q54.0477 653.367 56.5014 652.788 Q58.955 652.209 60.9921 652.209 Q66.3624 652.209 69.5568 654.894 Q72.7513 657.58 72.7513 662.07 Q72.7513 664.2 71.9411 666.121 Q71.1541 668.019 69.0476 670.612 Q68.4689 671.283 65.367 674.501 Q62.2652 677.695 56.6171 683.459 Z" fill="#000000" fill-rule="nonzero" fill-opacity="1" /><path clip-path="url(#clip950)" d="M82.7512 681.515 L87.6354 681.515 L87.6354 687.394 L82.7512 687.394 L82.7512 681.515 Z" fill="#000000" fill-rule="nonzero" fill-opacity="1" /><path clip-path="url(#clip950)" d="M107.821 655.913 Q104.209 655.913 102.381 659.478 Q100.575 663.019 100.575 670.149 Q100.575 677.255 102.381 680.82 Q104.209 684.362 107.821 684.362 Q111.455 684.362 113.26 680.82 Q115.089 677.255 115.089 670.149 Q115.089 663.019 113.26 659.478 Q111.455 655.913 107.821 655.913 M107.821 652.209 Q113.631 652.209 116.686 656.816 Q119.765 661.399 119.765 670.149 Q119.765 678.876 116.686 683.482 Q113.631 688.065 107.821 688.065 Q102.01 688.065 98.9317 683.482 Q95.8761 678.876 95.8761 670.149 Q95.8761 661.399 98.9317 656.816 Q102.01 652.209 107.821 652.209 Z" fill="#000000" fill-rule="nonzero" fill-opacity="1" /><path clip-path="url(#clip950)" d="M57.6125 467.175 L73.9318 467.175 L73.9318 471.11 L51.9875 471.11 L51.9875 467.175 Q54.6495 464.421 59.2328 459.791 Q63.8393 455.138 65.0198 453.796 Q67.2652 451.273 68.1448 449.536 Q69.0476 447.777 69.0476 446.087 Q69.0476 443.333 67.1032 441.597 Q65.1819 439.861 62.08 439.861 Q59.881 439.861 57.4273 440.624 Q54.9967 441.388 52.219 442.939 L52.219 438.217 Q55.043 437.083 57.4967 436.504 Q59.9504 435.925 61.9874 435.925 Q67.3578 435.925 70.5522 438.611 Q73.7466 441.296 73.7466 445.786 Q73.7466 447.916 72.9365 449.837 Q72.1494 451.736 70.0429 454.328 Q69.4642 454.999 66.3624 458.217 Q63.2606 461.411 57.6125 467.175 Z" fill="#000000" fill-rule="nonzero" fill-opacity="1" /><path clip-path="url(#clip950)" d="M83.7466 465.231 L88.6308 465.231 L88.6308 471.11 L83.7466 471.11 L83.7466 465.231 Z" fill="#000000" fill-rule="nonzero" fill-opacity="1" /><path clip-path="url(#clip950)" d="M98.8622 436.55 L117.219 436.55 L117.219 440.486 L103.145 440.486 L103.145 448.958 Q104.163 448.611 105.182 448.448 Q106.2 448.263 107.219 448.263 Q113.006 448.263 116.385 451.435 Q119.765 454.606 119.765 460.023 Q119.765 465.601 116.293 468.703 Q112.82 471.782 106.501 471.782 Q104.325 471.782 102.057 471.411 Q99.8113 471.041 97.4039 470.3 L97.4039 465.601 Q99.4872 466.735 101.709 467.291 Q103.932 467.847 106.408 467.847 Q110.413 467.847 112.751 465.74 Q115.089 463.634 115.089 460.023 Q115.089 456.411 112.751 454.305 Q110.413 452.198 106.408 452.198 Q104.534 452.198 102.659 452.615 Q100.807 453.032 98.8622 453.911 L98.8622 436.55 Z" fill="#000000" fill-rule="nonzero" fill-opacity="1" /><path clip-path="url(#clip950)" d="M66.7559 236.192 Q70.1124 236.91 71.9874 239.179 Q73.8855 241.447 73.8855 244.78 Q73.8855 249.896 70.367 252.697 Q66.8485 255.498 60.3671 255.498 Q58.1912 255.498 55.8764 255.058 Q53.5847 254.641 51.131 253.785 L51.131 249.271 Q53.0754 250.405 55.3903 250.984 Q57.7051 251.563 60.2282 251.563 Q64.6263 251.563 66.918 249.827 Q69.2328 248.091 69.2328 244.78 Q69.2328 241.725 67.08 240.012 Q64.9504 238.276 61.131 238.276 L57.1032 238.276 L57.1032 234.433 L61.3161 234.433 Q64.7652 234.433 66.5939 233.067 Q68.4226 231.679 68.4226 229.086 Q68.4226 226.424 66.5245 225.012 Q64.6495 223.577 61.131 223.577 Q59.2097 223.577 57.0106 223.993 Q54.8115 224.41 52.1727 225.29 L52.1727 221.123 Q54.8347 220.382 57.1495 220.012 Q59.4875 219.642 61.5476 219.642 Q66.8717 219.642 69.9735 222.072 Q73.0753 224.48 73.0753 228.6 Q73.0753 231.47 71.4318 233.461 Q69.7883 235.429 66.7559 236.192 Z" fill="#000000" fill-rule="nonzero" fill-opacity="1" /><path clip-path="url(#clip950)" d="M82.7512 248.947 L87.6354 248.947 L87.6354 254.827 L82.7512 254.827 L82.7512 248.947 Z" fill="#000000" fill-rule="nonzero" fill-opacity="1" /><path clip-path="url(#clip950)" d="M107.821 223.345 Q104.209 223.345 102.381 226.91 Q100.575 230.452 100.575 237.581 Q100.575 244.688 102.381 248.253 Q104.209 251.794 107.821 251.794 Q111.455 251.794 113.26 248.253 Q115.089 244.688 115.089 237.581 Q115.089 230.452 113.26 226.91 Q111.455 223.345 107.821 223.345 M107.821 219.642 Q113.631 219.642 116.686 224.248 Q119.765 228.831 119.765 237.581 Q119.765 246.308 116.686 250.915 Q113.631 255.498 107.821 255.498 Q102.01 255.498 98.9317 250.915 Q95.8761 246.308 95.8761 237.581 Q95.8761 228.831 98.9317 224.248 Q102.01 219.642 107.821 219.642 Z" fill="#000000" fill-rule="nonzero" fill-opacity="1" /><polyline clip-path="url(#clip951)" style="stroke:#009af9; stroke-linecap:round; stroke-linejoin:round; stroke-width:12; stroke-opacity:1; fill:none" points="217.944,1318.97 425.207,1297.35 632.47,1292.04 839.734,1305.54 1047,1298.38 1254.26,1259.83 1461.52,1213.94 1668.79,1150.51 1876.05,1117.56 2083.31,1129.13 2290.58,1058.61 "/>
<polyline clip-path="url(#clip951)" style="stroke:#000000; stroke-linecap:round; stroke-linejoin:round; stroke-width:12; stroke-opacity:1; fill:none" points="217.944,1318.97 217.944,1318.97 "/>
<polyline clip-path="url(#clip951)" style="stroke:#000000; stroke-linecap:round; stroke-linejoin:round; stroke-width:12; stroke-opacity:1; fill:none" points="425.207,1381.87 425.207,1259.05 "/>
<polyline clip-path="url(#clip951)" style="stroke:#000000; stroke-linecap:round; stroke-linejoin:round; stroke-width:12; stroke-opacity:1; fill:none" points="632.47,1412 632.47,1205.87 "/>
<polyline clip-path="url(#clip951)" style="stroke:#000000; stroke-linecap:round; stroke-linejoin:round; stroke-width:12; stroke-opacity:1; fill:none" points="839.734,1425.07 839.734,1105.58 "/>
<polyline clip-path="url(#clip951)" style="stroke:#000000; stroke-linecap:round; stroke-linejoin:round; stroke-width:12; stroke-opacity:1; fill:none" points="1047,1415.18 1047,967.883 "/>
<polyline clip-path="url(#clip951)" style="stroke:#000000; stroke-linecap:round; stroke-linejoin:round; stroke-width:12; stroke-opacity:1; fill:none" points="1254.26,1417.61 1254.26,815.299 "/>
<polyline clip-path="url(#clip951)" style="stroke:#000000; stroke-linecap:round; stroke-linejoin:round; stroke-width:12; stroke-opacity:1; fill:none" points="1461.52,1376.98 1461.52,767.944 "/>
<polyline clip-path="url(#clip951)" style="stroke:#000000; stroke-linecap:round; stroke-linejoin:round; stroke-width:12; stroke-opacity:1; fill:none" points="1668.79,1384.94 1668.79,690.41 "/>
<polyline clip-path="url(#clip951)" style="stroke:#000000; stroke-linecap:round; stroke-linejoin:round; stroke-width:12; stroke-opacity:1; fill:none" points="1876.05,1388.55 1876.05,569.18 "/>
<polyline clip-path="url(#clip951)" style="stroke:#000000; stroke-linecap:round; stroke-linejoin:round; stroke-width:12; stroke-opacity:1; fill:none" points="2083.31,1364.89 2083.31,459.658 "/>
<polyline clip-path="url(#clip951)" style="stroke:#000000; stroke-linecap:round; stroke-linejoin:round; stroke-width:12; stroke-opacity:1; fill:none" points="2290.58,1292.76 2290.58,87.9763 "/>
<line clip-path="url(#clip951)" x1="233.944" y1="1318.97" x2="201.944" y2="1318.97" style="stroke:#000000; stroke-width:12; stroke-opacity:1"/>
<line clip-path="url(#clip951)" x1="233.944" y1="1318.97" x2="201.944" y2="1318.97" style="stroke:#000000; stroke-width:12; stroke-opacity:1"/>
<line clip-path="url(#clip951)" x1="441.207" y1="1381.87" x2="409.207" y2="1381.87" style="stroke:#000000; stroke-width:12; stroke-opacity:1"/>
<line clip-path="url(#clip951)" x1="441.207" y1="1259.05" x2="409.207" y2="1259.05" style="stroke:#000000; stroke-width:12; stroke-opacity:1"/>
<line clip-path="url(#clip951)" x1="648.47" y1="1412" x2="616.47" y2="1412" style="stroke:#000000; stroke-width:12; stroke-opacity:1"/>
<line clip-path="url(#clip951)" x1="648.47" y1="1205.87" x2="616.47" y2="1205.87" style="stroke:#000000; stroke-width:12; stroke-opacity:1"/>
<line clip-path="url(#clip951)" x1="855.734" y1="1425.07" x2="823.734" y2="1425.07" style="stroke:#000000; stroke-width:12; stroke-opacity:1"/>
<line clip-path="url(#clip951)" x1="855.734" y1="1105.58" x2="823.734" y2="1105.58" style="stroke:#000000; stroke-width:12; stroke-opacity:1"/>
<line clip-path="url(#clip951)" x1="1063" y1="1415.18" x2="1031" y2="1415.18" style="stroke:#000000; stroke-width:12; stroke-opacity:1"/>
<line clip-path="url(#clip951)" x1="1063" y1="967.883" x2="1031" y2="967.883" style="stroke:#000000; stroke-width:12; stroke-opacity:1"/>
<line clip-path="url(#clip951)" x1="1270.26" y1="1417.61" x2="1238.26" y2="1417.61" style="stroke:#000000; stroke-width:12; stroke-opacity:1"/>
<line clip-path="url(#clip951)" x1="1270.26" y1="815.299" x2="1238.26" y2="815.299" style="stroke:#000000; stroke-width:12; stroke-opacity:1"/>
<line clip-path="url(#clip951)" x1="1477.52" y1="1376.98" x2="1445.52" y2="1376.98" style="stroke:#000000; stroke-width:12; stroke-opacity:1"/>
<line clip-path="url(#clip951)" x1="1477.52" y1="767.944" x2="1445.52" y2="767.944" style="stroke:#000000; stroke-width:12; stroke-opacity:1"/>
<line clip-path="url(#clip951)" x1="1684.79" y1="1384.94" x2="1652.79" y2="1384.94" style="stroke:#000000; stroke-width:12; stroke-opacity:1"/>
<line clip-path="url(#clip951)" x1="1684.79" y1="690.41" x2="1652.79" y2="690.41" style="stroke:#000000; stroke-width:12; stroke-opacity:1"/>
<line clip-path="url(#clip951)" x1="1892.05" y1="1388.55" x2="1860.05" y2="1388.55" style="stroke:#000000; stroke-width:12; stroke-opacity:1"/>
<line clip-path="url(#clip951)" x1="1892.05" y1="569.18" x2="1860.05" y2="569.18" style="stroke:#000000; stroke-width:12; stroke-opacity:1"/>
<line clip-path="url(#clip951)" x1="2099.31" y1="1364.89" x2="2067.31" y2="1364.89" style="stroke:#000000; stroke-width:12; stroke-opacity:1"/>
<line clip-path="url(#clip951)" x1="2099.31" y1="459.658" x2="2067.31" y2="459.658" style="stroke:#000000; stroke-width:12; stroke-opacity:1"/>
<line clip-path="url(#clip951)" x1="2306.58" y1="1292.76" x2="2274.58" y2="1292.76" style="stroke:#000000; stroke-width:12; stroke-opacity:1"/>
<line clip-path="url(#clip951)" x1="2306.58" y1="87.9763" x2="2274.58" y2="87.9763" style="stroke:#000000; stroke-width:12; stroke-opacity:1"/>
<polyline clip-path="url(#clip951)" style="stroke:#e26f46; stroke-linecap:round; stroke-linejoin:round; stroke-width:12; stroke-opacity:1; fill:none" points="217.944,1318.97 425.207,1351.99 632.47,1334.94 839.734,1318.53 1047,1329.95 1254.26,1322.81 1461.52,1332.94 1668.79,1305.9 1876.05,1248.06 2083.31,1178.9 2290.58,1161.29 "/>
<polyline clip-path="url(#clip951)" style="stroke:#000000; stroke-linecap:round; stroke-linejoin:round; stroke-width:12; stroke-opacity:1; fill:none" points="217.944,1318.97 217.944,1318.97 "/>
<polyline clip-path="url(#clip951)" style="stroke:#000000; stroke-linecap:round; stroke-linejoin:round; stroke-width:12; stroke-opacity:1; fill:none" points="425.207,1389.09 425.207,1273.05 "/>
<polyline clip-path="url(#clip951)" style="stroke:#000000; stroke-linecap:round; stroke-linejoin:round; stroke-width:12; stroke-opacity:1; fill:none" points="632.47,1406.82 632.47,1198.29 "/>
<polyline clip-path="url(#clip951)" style="stroke:#000000; stroke-linecap:round; stroke-linejoin:round; stroke-width:12; stroke-opacity:1; fill:none" points="839.734,1405.47 839.734,1085 "/>
<polyline clip-path="url(#clip951)" style="stroke:#000000; stroke-linecap:round; stroke-linejoin:round; stroke-width:12; stroke-opacity:1; fill:none" points="1047,1413.16 1047,882.721 "/>
<polyline clip-path="url(#clip951)" style="stroke:#000000; stroke-linecap:round; stroke-linejoin:round; stroke-width:12; stroke-opacity:1; fill:none" points="1254.26,1427.97 1254.26,683.984 "/>
<polyline clip-path="url(#clip951)" style="stroke:#000000; stroke-linecap:round; stroke-linejoin:round; stroke-width:12; stroke-opacity:1; fill:none" points="1461.52,1445.72 1461.52,893.367 "/>
<polyline clip-path="url(#clip951)" style="stroke:#000000; stroke-linecap:round; stroke-linejoin:round; stroke-width:12; stroke-opacity:1; fill:none" points="1668.79,1444.56 1668.79,909.1 "/>
<polyline clip-path="url(#clip951)" style="stroke:#000000; stroke-linecap:round; stroke-linejoin:round; stroke-width:12; stroke-opacity:1; fill:none" points="1876.05,1434.62 1876.05,893.228 "/>
<polyline clip-path="url(#clip951)" style="stroke:#000000; stroke-linecap:round; stroke-linejoin:round; stroke-width:12; stroke-opacity:1; fill:none" points="2083.31,1423.63 2083.31,841.18 "/>
<polyline clip-path="url(#clip951)" style="stroke:#000000; stroke-linecap:round; stroke-linejoin:round; stroke-width:12; stroke-opacity:1; fill:none" points="2290.58,1421.76 2290.58,581.767 "/>
<line clip-path="url(#clip951)" x1="233.944" y1="1318.97" x2="201.944" y2="1318.97" style="stroke:#000000; stroke-width:12; stroke-opacity:1"/>
<line clip-path="url(#clip951)" x1="233.944" y1="1318.97" x2="201.944" y2="1318.97" style="stroke:#000000; stroke-width:12; stroke-opacity:1"/>
<line clip-path="url(#clip951)" x1="441.207" y1="1389.09" x2="409.207" y2="1389.09" style="stroke:#000000; stroke-width:12; stroke-opacity:1"/>
<line clip-path="url(#clip951)" x1="441.207" y1="1273.05" x2="409.207" y2="1273.05" style="stroke:#000000; stroke-width:12; stroke-opacity:1"/>
<line clip-path="url(#clip951)" x1="648.47" y1="1406.82" x2="616.47" y2="1406.82" style="stroke:#000000; stroke-width:12; stroke-opacity:1"/>
<line clip-path="url(#clip951)" x1="648.47" y1="1198.29" x2="616.47" y2="1198.29" style="stroke:#000000; stroke-width:12; stroke-opacity:1"/>
<line clip-path="url(#clip951)" x1="855.734" y1="1405.47" x2="823.734" y2="1405.47" style="stroke:#000000; stroke-width:12; stroke-opacity:1"/>
<line clip-path="url(#clip951)" x1="855.734" y1="1085" x2="823.734" y2="1085" style="stroke:#000000; stroke-width:12; stroke-opacity:1"/>
<line clip-path="url(#clip951)" x1="1063" y1="1413.16" x2="1031" y2="1413.16" style="stroke:#000000; stroke-width:12; stroke-opacity:1"/>
<line clip-path="url(#clip951)" x1="1063" y1="882.721" x2="1031" y2="882.721" style="stroke:#000000; stroke-width:12; stroke-opacity:1"/>
<line clip-path="url(#clip951)" x1="1270.26" y1="1427.97" x2="1238.26" y2="1427.97" style="stroke:#000000; stroke-width:12; stroke-opacity:1"/>
<line clip-path="url(#clip951)" x1="1270.26" y1="683.984" x2="1238.26" y2="683.984" style="stroke:#000000; stroke-width:12; stroke-opacity:1"/>
<line clip-path="url(#clip951)" x1="1477.52" y1="1445.72" x2="1445.52" y2="1445.72" style="stroke:#000000; stroke-width:12; stroke-opacity:1"/>
<line clip-path="url(#clip951)" x1="1477.52" y1="893.367" x2="1445.52" y2="893.367" style="stroke:#000000; stroke-width:12; stroke-opacity:1"/>
<line clip-path="url(#clip951)" x1="1684.79" y1="1444.56" x2="1652.79" y2="1444.56" style="stroke:#000000; stroke-width:12; stroke-opacity:1"/>
<line clip-path="url(#clip951)" x1="1684.79" y1="909.1" x2="1652.79" y2="909.1" style="stroke:#000000; stroke-width:12; stroke-opacity:1"/>
<line clip-path="url(#clip951)" x1="1892.05" y1="1434.62" x2="1860.05" y2="1434.62" style="stroke:#000000; stroke-width:12; stroke-opacity:1"/>
<line clip-path="url(#clip951)" x1="1892.05" y1="893.228" x2="1860.05" y2="893.228" style="stroke:#000000; stroke-width:12; stroke-opacity:1"/>
<line clip-path="url(#clip951)" x1="2099.31" y1="1423.63" x2="2067.31" y2="1423.63" style="stroke:#000000; stroke-width:12; stroke-opacity:1"/>
<line clip-path="url(#clip951)" x1="2099.31" y1="841.18" x2="2067.31" y2="841.18" style="stroke:#000000; stroke-width:12; stroke-opacity:1"/>
<line clip-path="url(#clip951)" x1="2306.58" y1="1421.76" x2="2274.58" y2="1421.76" style="stroke:#000000; stroke-width:12; stroke-opacity:1"/>
<line clip-path="url(#clip951)" x1="2306.58" y1="581.767" x2="2274.58" y2="581.767" style="stroke:#000000; stroke-width:12; stroke-opacity:1"/>
</svg>
