<?xml version="1.0" encoding="utf-8"?>
<svg xmlns="http://www.w3.org/2000/svg" xmlns:xlink="http://www.w3.org/1999/xlink" width="600" height="400" viewBox="0 0 2400 1600">
<defs>
  <clipPath id="clip430">
    <rect x="0" y="0" width="2400" height="1600"/>
  </clipPath>
</defs>
<path clip-path="url(#clip430)" d="M0 1600 L2400 1600 L2400 0 L0 0  Z" fill="#ffffff" fill-rule="evenodd" fill-opacity="1"/>
<defs>
  <clipPath id="clip431">
    <rect x="480" y="0" width="1681" height="1600"/>
  </clipPath>
</defs>
<path clip-path="url(#clip430)" d="M184.191 1486.45 L2352.76 1486.45 L2352.76 47.2441 L184.191 47.2441  Z" fill="#ffffff" fill-rule="evenodd" fill-opacity="1"/>
<defs>
  <clipPath id="clip432">
    <rect x="184" y="47" width="2170" height="1440"/>
  </clipPath>
</defs>
<polyline clip-path="url(#clip432)" style="stroke:#000000; stroke-linecap:round; stroke-linejoin:round; stroke-width:2; stroke-opacity:0.1; fill:none" points="245.565,1486.45 245.565,47.2441 "/>
<polyline clip-path="url(#clip432)" style="stroke:#000000; stroke-linecap:round; stroke-linejoin:round; stroke-width:2; stroke-opacity:0.1; fill:none" points="757.019,1486.45 757.019,47.2441 "/>
<polyline clip-path="url(#clip432)" style="stroke:#000000; stroke-linecap:round; stroke-linejoin:round; stroke-width:2; stroke-opacity:0.1; fill:none" points="1268.47,1486.45 1268.47,47.2441 "/>
<polyline clip-path="url(#clip432)" style="stroke:#000000; stroke-linecap:round; stroke-linejoin:round; stroke-width:2; stroke-opacity:0.1; fill:none" points="1779.93,1486.45 1779.93,47.2441 "/>
<polyline clip-path="url(#clip432)" style="stroke:#000000; stroke-linecap:round; stroke-linejoin:round; stroke-width:2; stroke-opacity:0.1; fill:none" points="2291.38,1486.45 2291.38,47.2441 "/>
<polyline clip-path="url(#clip432)" style="stroke:#000000; stroke-linecap:round; stroke-linejoin:round; stroke-width:2; stroke-opacity:0.1; fill:none" points="184.191,1447.49 2352.76,1447.49 "/>
<polyline clip-path="url(#clip432)" style="stroke:#000000; stroke-linecap:round; stroke-linejoin:round; stroke-width:2; stroke-opacity:0.1; fill:none" points="184.191,1108.07 2352.76,1108.07 "/>
<polyline clip-path="url(#clip432)" style="stroke:#000000; stroke-linecap:round; stroke-linejoin:round; stroke-width:2; stroke-opacity:0.1; fill:none" points="184.191,768.651 2352.76,768.651 "/>
<polyline clip-path="url(#clip432)" style="stroke:#000000; stroke-linecap:round; stroke-linejoin:round; stroke-width:2; stroke-opacity:0.1; fill:none" points="184.191,429.231 2352.76,429.231 "/>
<polyline clip-path="url(#clip432)" style="stroke:#000000; stroke-linecap:round; stroke-linejoin:round; stroke-width:2; stroke-opacity:0.1; fill:none" points="184.191,89.8114 2352.76,89.8114 "/>
<polyline clip-path="url(#clip430)" style="stroke:#000000; stroke-linecap:round; stroke-linejoin:round; stroke-width:4; stroke-opacity:1; fill:none" points="184.191,1486.45 2352.76,1486.45 "/>
<polyline clip-path="url(#clip430)" style="stroke:#000000; stroke-linecap:round; stroke-linejoin:round; stroke-width:4; stroke-opacity:1; fill:none" points="245.565,1486.45 245.565,1467.55 "/>
<polyline clip-path="url(#clip430)" style="stroke:#000000; stroke-linecap:round; stroke-linejoin:round; stroke-width:4; stroke-opacity:1; fill:none" points="757.019,1486.45 757.019,1467.55 "/>
<polyline clip-path="url(#clip430)" style="stroke:#000000; stroke-linecap:round; stroke-linejoin:round; stroke-width:4; stroke-opacity:1; fill:none" points="1268.47,1486.45 1268.47,1467.55 "/>
<polyline clip-path="url(#clip430)" style="stroke:#000000; stroke-linecap:round; stroke-linejoin:round; stroke-width:4; stroke-opacity:1; fill:none" points="1779.93,1486.45 1779.93,1467.55 "/>
<polyline clip-path="url(#clip430)" style="stroke:#000000; stroke-linecap:round; stroke-linejoin:round; stroke-width:4; stroke-opacity:1; fill:none" points="2291.38,1486.45 2291.38,1467.55 "/>
<path clip-path="url(#clip430)" d="M222.95 1517.37 Q219.338 1517.37 217.51 1520.93 Q215.704 1524.47 215.704 1531.6 Q215.704 1538.71 217.51 1542.27 Q219.338 1545.82 222.95 1545.82 Q226.584 1545.82 228.389 1542.27 Q230.218 1538.71 230.218 1531.6 Q230.218 1524.47 228.389 1520.93 Q226.584 1517.37 222.95 1517.37 M222.95 1513.66 Q228.76 1513.66 231.815 1518.27 Q234.894 1522.85 234.894 1531.6 Q234.894 1540.33 231.815 1544.94 Q228.76 1549.52 222.95 1549.52 Q217.139 1549.52 214.061 1544.94 Q211.005 1540.33 211.005 1531.6 Q211.005 1522.85 214.061 1518.27 Q217.139 1513.66 222.95 1513.66 Z" fill="#000000" fill-rule="nonzero" fill-opacity="1" /><path clip-path="url(#clip430)" d="M243.111 1542.97 L247.996 1542.97 L247.996 1548.85 L243.111 1548.85 L243.111 1542.97 Z" fill="#000000" fill-rule="nonzero" fill-opacity="1" /><path clip-path="url(#clip430)" d="M268.181 1517.37 Q264.57 1517.37 262.741 1520.93 Q260.935 1524.47 260.935 1531.6 Q260.935 1538.71 262.741 1542.27 Q264.57 1545.82 268.181 1545.82 Q271.815 1545.82 273.621 1542.27 Q275.449 1538.71 275.449 1531.6 Q275.449 1524.47 273.621 1520.93 Q271.815 1517.37 268.181 1517.37 M268.181 1513.66 Q273.991 1513.66 277.046 1518.27 Q280.125 1522.85 280.125 1531.6 Q280.125 1540.33 277.046 1544.94 Q273.991 1549.52 268.181 1549.52 Q262.371 1549.52 259.292 1544.94 Q256.236 1540.33 256.236 1531.6 Q256.236 1522.85 259.292 1518.27 Q262.371 1513.66 268.181 1513.66 Z" fill="#000000" fill-rule="nonzero" fill-opacity="1" /><path clip-path="url(#clip430)" d="M728.755 1544.91 L745.075 1544.91 L745.075 1548.85 L723.131 1548.85 L723.131 1544.91 Q725.793 1542.16 730.376 1537.53 Q734.982 1532.88 736.163 1531.53 Q738.408 1529.01 739.288 1527.27 Q740.191 1525.51 740.191 1523.82 Q740.191 1521.07 738.246 1519.33 Q736.325 1517.6 733.223 1517.6 Q731.024 1517.6 728.57 1518.36 Q726.14 1519.13 723.362 1520.68 L723.362 1515.95 Q726.186 1514.82 728.64 1514.24 Q731.093 1513.66 733.13 1513.66 Q738.501 1513.66 741.695 1516.35 Q744.89 1519.03 744.89 1523.52 Q744.89 1525.65 744.079 1527.57 Q743.292 1529.47 741.186 1532.07 Q740.607 1532.74 737.505 1535.95 Q734.404 1539.15 728.755 1544.91 Z" fill="#000000" fill-rule="nonzero" fill-opacity="1" /><path clip-path="url(#clip430)" d="M754.89 1542.97 L759.774 1542.97 L759.774 1548.85 L754.89 1548.85 L754.89 1542.97 Z" fill="#000000" fill-rule="nonzero" fill-opacity="1" /><path clip-path="url(#clip430)" d="M770.005 1514.29 L788.362 1514.29 L788.362 1518.22 L774.288 1518.22 L774.288 1526.7 Q775.306 1526.35 776.325 1526.19 Q777.343 1526 778.362 1526 Q784.149 1526 787.528 1529.17 Q790.908 1532.34 790.908 1537.76 Q790.908 1543.34 787.436 1546.44 Q783.964 1549.52 777.644 1549.52 Q775.468 1549.52 773.2 1549.15 Q770.954 1548.78 768.547 1548.04 L768.547 1543.34 Q770.63 1544.47 772.852 1545.03 Q775.075 1545.58 777.552 1545.58 Q781.556 1545.58 783.894 1543.48 Q786.232 1541.37 786.232 1537.76 Q786.232 1534.15 783.894 1532.04 Q781.556 1529.94 777.552 1529.94 Q775.677 1529.94 773.802 1530.35 Q771.95 1530.77 770.005 1531.65 L770.005 1514.29 Z" fill="#000000" fill-rule="nonzero" fill-opacity="1" /><path clip-path="url(#clip430)" d="M1235.64 1514.29 L1253.99 1514.29 L1253.99 1518.22 L1239.92 1518.22 L1239.92 1526.7 Q1240.94 1526.35 1241.96 1526.19 Q1242.98 1526 1243.99 1526 Q1249.78 1526 1253.16 1529.17 Q1256.54 1532.34 1256.54 1537.76 Q1256.54 1543.34 1253.07 1546.44 Q1249.6 1549.52 1243.28 1549.52 Q1241.1 1549.52 1238.83 1549.15 Q1236.59 1548.78 1234.18 1548.04 L1234.18 1543.34 Q1236.26 1544.47 1238.49 1545.03 Q1240.71 1545.58 1243.18 1545.58 Q1247.19 1545.58 1249.53 1543.48 Q1251.86 1541.37 1251.86 1537.76 Q1251.86 1534.15 1249.53 1532.04 Q1247.19 1529.94 1243.18 1529.94 Q1241.31 1529.94 1239.43 1530.35 Q1237.58 1530.77 1235.64 1531.65 L1235.64 1514.29 Z" fill="#000000" fill-rule="nonzero" fill-opacity="1" /><path clip-path="url(#clip430)" d="M1265.75 1542.97 L1270.64 1542.97 L1270.64 1548.85 L1265.75 1548.85 L1265.75 1542.97 Z" fill="#000000" fill-rule="nonzero" fill-opacity="1" /><path clip-path="url(#clip430)" d="M1290.82 1517.37 Q1287.21 1517.37 1285.38 1520.93 Q1283.58 1524.47 1283.58 1531.6 Q1283.58 1538.71 1285.38 1542.27 Q1287.21 1545.82 1290.82 1545.82 Q1294.46 1545.82 1296.26 1542.27 Q1298.09 1538.71 1298.09 1531.6 Q1298.09 1524.47 1296.26 1520.93 Q1294.46 1517.37 1290.82 1517.37 M1290.82 1513.66 Q1296.63 1513.66 1299.69 1518.27 Q1302.77 1522.85 1302.77 1531.6 Q1302.77 1540.33 1299.69 1544.94 Q1296.63 1549.52 1290.82 1549.52 Q1285.01 1549.52 1281.93 1544.94 Q1278.88 1540.33 1278.88 1531.6 Q1278.88 1522.85 1281.93 1518.27 Q1285.01 1513.66 1290.82 1513.66 Z" fill="#000000" fill-rule="nonzero" fill-opacity="1" /><path clip-path="url(#clip430)" d="M1746.25 1514.29 L1768.47 1514.29 L1768.47 1516.28 L1755.92 1548.85 L1751.04 1548.85 L1762.84 1518.22 L1746.25 1518.22 L1746.25 1514.29 Z" fill="#000000" fill-rule="nonzero" fill-opacity="1" /><path clip-path="url(#clip430)" d="M1777.59 1542.97 L1782.47 1542.97 L1782.47 1548.85 L1777.59 1548.85 L1777.59 1542.97 Z" fill="#000000" fill-rule="nonzero" fill-opacity="1" /><path clip-path="url(#clip430)" d="M1792.71 1514.29 L1811.06 1514.29 L1811.06 1518.22 L1796.99 1518.22 L1796.99 1526.7 Q1798.01 1526.35 1799.02 1526.19 Q1800.04 1526 1801.06 1526 Q1806.85 1526 1810.23 1529.17 Q1813.61 1532.34 1813.61 1537.76 Q1813.61 1543.34 1810.14 1546.44 Q1806.66 1549.52 1800.34 1549.52 Q1798.17 1549.52 1795.9 1549.15 Q1793.65 1548.78 1791.25 1548.04 L1791.25 1543.34 Q1793.33 1544.47 1795.55 1545.03 Q1797.77 1545.58 1800.25 1545.58 Q1804.26 1545.58 1806.59 1543.48 Q1808.93 1541.37 1808.93 1537.76 Q1808.93 1534.15 1806.59 1532.04 Q1804.26 1529.94 1800.25 1529.94 Q1798.38 1529.94 1796.5 1530.35 Q1794.65 1530.77 1792.71 1531.65 L1792.71 1514.29 Z" fill="#000000" fill-rule="nonzero" fill-opacity="1" /><path clip-path="url(#clip430)" d="M2243.45 1544.91 L2251.09 1544.91 L2251.09 1518.55 L2242.78 1520.21 L2242.78 1515.95 L2251.05 1514.29 L2255.72 1514.29 L2255.72 1544.91 L2263.36 1544.91 L2263.36 1548.85 L2243.45 1548.85 L2243.45 1544.91 Z" fill="#000000" fill-rule="nonzero" fill-opacity="1" /><path clip-path="url(#clip430)" d="M2282.81 1517.37 Q2279.19 1517.37 2277.37 1520.93 Q2275.56 1524.47 2275.56 1531.6 Q2275.56 1538.71 2277.37 1542.27 Q2279.19 1545.82 2282.81 1545.82 Q2286.44 1545.82 2288.24 1542.27 Q2290.07 1538.71 2290.07 1531.6 Q2290.07 1524.47 2288.24 1520.93 Q2286.44 1517.37 2282.81 1517.37 M2282.81 1513.66 Q2288.62 1513.66 2291.67 1518.27 Q2294.75 1522.85 2294.75 1531.6 Q2294.75 1540.33 2291.67 1544.94 Q2288.62 1549.52 2282.81 1549.52 Q2276.99 1549.52 2273.92 1544.94 Q2270.86 1540.33 2270.86 1531.6 Q2270.86 1522.85 2273.92 1518.27 Q2276.99 1513.66 2282.81 1513.66 Z" fill="#000000" fill-rule="nonzero" fill-opacity="1" /><path clip-path="url(#clip430)" d="M2302.97 1542.97 L2307.85 1542.97 L2307.85 1548.85 L2302.97 1548.85 L2302.97 1542.97 Z" fill="#000000" fill-rule="nonzero" fill-opacity="1" /><path clip-path="url(#clip430)" d="M2328.04 1517.37 Q2324.43 1517.37 2322.6 1520.93 Q2320.79 1524.47 2320.79 1531.6 Q2320.79 1538.71 2322.6 1542.27 Q2324.43 1545.82 2328.04 1545.82 Q2331.67 1545.82 2333.48 1542.27 Q2335.3 1538.71 2335.3 1531.6 Q2335.3 1524.47 2333.48 1520.93 Q2331.67 1517.37 2328.04 1517.37 M2328.04 1513.66 Q2333.85 1513.66 2336.9 1518.27 Q2339.98 1522.85 2339.98 1531.6 Q2339.98 1540.33 2336.9 1544.94 Q2333.85 1549.52 2328.04 1549.52 Q2322.23 1549.52 2319.15 1544.94 Q2316.09 1540.33 2316.09 1531.6 Q2316.09 1522.85 2319.15 1518.27 Q2322.23 1513.66 2328.04 1513.66 Z" fill="#000000" fill-rule="nonzero" fill-opacity="1" /><polyline clip-path="url(#clip430)" style="stroke:#000000; stroke-linecap:round; stroke-linejoin:round; stroke-width:4; stroke-opacity:1; fill:none" points="184.191,1486.45 184.191,47.2441 "/>
<polyline clip-path="url(#clip430)" style="stroke:#000000; stroke-linecap:round; stroke-linejoin:round; stroke-width:4; stroke-opacity:1; fill:none" points="184.191,1447.49 203.088,1447.49 "/>
<polyline clip-path="url(#clip430)" style="stroke:#000000; stroke-linecap:round; stroke-linejoin:round; stroke-width:4; stroke-opacity:1; fill:none" points="184.191,1108.07 203.088,1108.07 "/>
<polyline clip-path="url(#clip430)" style="stroke:#000000; stroke-linecap:round; stroke-linejoin:round; stroke-width:4; stroke-opacity:1; fill:none" points="184.191,768.651 203.088,768.651 "/>
<polyline clip-path="url(#clip430)" style="stroke:#000000; stroke-linecap:round; stroke-linejoin:round; stroke-width:4; stroke-opacity:1; fill:none" points="184.191,429.231 203.088,429.231 "/>
<polyline clip-path="url(#clip430)" style="stroke:#000000; stroke-linecap:round; stroke-linejoin:round; stroke-width:4; stroke-opacity:1; fill:none" points="184.191,89.8114 203.088,89.8114 "/>
<path clip-path="url(#clip430)" d="M91.0151 1433.29 Q87.404 1433.29 85.5753 1436.85 Q83.7697 1440.4 83.7697 1447.53 Q83.7697 1454.63 85.5753 1458.2 Q87.404 1461.74 91.0151 1461.74 Q94.6493 1461.74 96.4548 1458.2 Q98.2835 1454.63 98.2835 1447.53 Q98.2835 1440.4 96.4548 1436.85 Q94.6493 1433.29 91.0151 1433.29 M91.0151 1429.59 Q96.8252 1429.59 99.8808 1434.19 Q102.959 1438.78 102.959 1447.53 Q102.959 1456.25 99.8808 1460.86 Q96.8252 1465.44 91.0151 1465.44 Q85.2049 1465.44 82.1262 1460.86 Q79.0707 1456.25 79.0707 1447.53 Q79.0707 1438.78 82.1262 1434.19 Q85.2049 1429.59 91.0151 1429.59 Z" fill="#000000" fill-rule="nonzero" fill-opacity="1" /><path clip-path="url(#clip430)" d="M111.177 1458.89 L116.061 1458.89 L116.061 1464.77 L111.177 1464.77 L111.177 1458.89 Z" fill="#000000" fill-rule="nonzero" fill-opacity="1" /><path clip-path="url(#clip430)" d="M136.246 1433.29 Q132.635 1433.29 130.807 1436.85 Q129.001 1440.4 129.001 1447.53 Q129.001 1454.63 130.807 1458.2 Q132.635 1461.74 136.246 1461.74 Q139.881 1461.74 141.686 1458.2 Q143.515 1454.63 143.515 1447.53 Q143.515 1440.4 141.686 1436.85 Q139.881 1433.29 136.246 1433.29 M136.246 1429.59 Q142.056 1429.59 145.112 1434.19 Q148.191 1438.78 148.191 1447.53 Q148.191 1456.25 145.112 1460.86 Q142.056 1465.44 136.246 1465.44 Q130.436 1465.44 127.357 1460.86 Q124.302 1456.25 124.302 1447.53 Q124.302 1438.78 127.357 1434.19 Q130.436 1429.59 136.246 1429.59 Z" fill="#000000" fill-rule="nonzero" fill-opacity="1" /><path clip-path="url(#clip430)" d="M86.0382 1121.42 L102.358 1121.42 L102.358 1125.35 L80.4133 1125.35 L80.4133 1121.42 Q83.0753 1118.66 87.6586 1114.03 Q92.2651 1109.38 93.4456 1108.04 Q95.691 1105.51 96.5706 1103.78 Q97.4734 1102.02 97.4734 1100.33 Q97.4734 1097.57 95.5289 1095.84 Q93.6076 1094.1 90.5058 1094.1 Q88.3067 1094.1 85.8531 1094.87 Q83.4225 1095.63 80.6447 1097.18 L80.6447 1092.46 Q83.4688 1091.32 85.9225 1090.75 Q88.3762 1090.17 90.4132 1090.17 Q95.7836 1090.17 98.978 1092.85 Q102.172 1095.54 102.172 1100.03 Q102.172 1102.16 101.362 1104.08 Q100.575 1105.98 98.4687 1108.57 Q97.89 1109.24 94.7882 1112.46 Q91.6864 1115.65 86.0382 1121.42 Z" fill="#000000" fill-rule="nonzero" fill-opacity="1" /><path clip-path="url(#clip430)" d="M112.172 1119.47 L117.057 1119.47 L117.057 1125.35 L112.172 1125.35 L112.172 1119.47 Z" fill="#000000" fill-rule="nonzero" fill-opacity="1" /><path clip-path="url(#clip430)" d="M127.288 1090.79 L145.644 1090.79 L145.644 1094.73 L131.57 1094.73 L131.57 1103.2 Q132.589 1102.85 133.607 1102.69 Q134.626 1102.5 135.644 1102.5 Q141.431 1102.5 144.811 1105.68 Q148.191 1108.85 148.191 1114.26 Q148.191 1119.84 144.718 1122.94 Q141.246 1126.02 134.927 1126.02 Q132.751 1126.02 130.482 1125.65 Q128.237 1125.28 125.83 1124.54 L125.83 1119.84 Q127.913 1120.98 130.135 1121.53 Q132.357 1122.09 134.834 1122.09 Q138.839 1122.09 141.177 1119.98 Q143.515 1117.87 143.515 1114.26 Q143.515 1110.65 141.177 1108.55 Q138.839 1106.44 134.834 1106.44 Q132.959 1106.44 131.084 1106.86 Q129.232 1107.27 127.288 1108.15 L127.288 1090.79 Z" fill="#000000" fill-rule="nonzero" fill-opacity="1" /><path clip-path="url(#clip430)" d="M81.0614 751.371 L99.4178 751.371 L99.4178 755.307 L85.3438 755.307 L85.3438 763.779 Q86.3623 763.431 87.3808 763.269 Q88.3993 763.084 89.4178 763.084 Q95.2049 763.084 98.5845 766.256 Q101.964 769.427 101.964 774.843 Q101.964 780.422 98.4919 783.524 Q95.0197 786.603 88.7003 786.603 Q86.5243 786.603 84.2558 786.232 Q82.0105 785.862 79.6031 785.121 L79.6031 780.422 Q81.6864 781.556 83.9086 782.112 Q86.1308 782.668 88.6077 782.668 Q92.6123 782.668 94.9502 780.561 Q97.2882 778.455 97.2882 774.843 Q97.2882 771.232 94.9502 769.126 Q92.6123 767.019 88.6077 767.019 Q86.7327 767.019 84.8577 767.436 Q83.0058 767.853 81.0614 768.732 L81.0614 751.371 Z" fill="#000000" fill-rule="nonzero" fill-opacity="1" /><path clip-path="url(#clip430)" d="M111.177 780.052 L116.061 780.052 L116.061 785.931 L111.177 785.931 L111.177 780.052 Z" fill="#000000" fill-rule="nonzero" fill-opacity="1" /><path clip-path="url(#clip430)" d="M136.246 754.45 Q132.635 754.45 130.807 758.015 Q129.001 761.557 129.001 768.686 Q129.001 775.793 130.807 779.357 Q132.635 782.899 136.246 782.899 Q139.881 782.899 141.686 779.357 Q143.515 775.793 143.515 768.686 Q143.515 761.557 141.686 758.015 Q139.881 754.45 136.246 754.45 M136.246 750.746 Q142.056 750.746 145.112 755.353 Q148.191 759.936 148.191 768.686 Q148.191 777.413 145.112 782.019 Q142.056 786.603 136.246 786.603 Q130.436 786.603 127.357 782.019 Q124.302 777.413 124.302 768.686 Q124.302 759.936 127.357 755.353 Q130.436 750.746 136.246 750.746 Z" fill="#000000" fill-rule="nonzero" fill-opacity="1" /><path clip-path="url(#clip430)" d="M80.8299 411.951 L103.052 411.951 L103.052 413.942 L90.5058 446.511 L85.6216 446.511 L97.4271 415.887 L80.8299 415.887 L80.8299 411.951 Z" fill="#000000" fill-rule="nonzero" fill-opacity="1" /><path clip-path="url(#clip430)" d="M112.172 440.632 L117.057 440.632 L117.057 446.511 L112.172 446.511 L112.172 440.632 Z" fill="#000000" fill-rule="nonzero" fill-opacity="1" /><path clip-path="url(#clip430)" d="M127.288 411.951 L145.644 411.951 L145.644 415.887 L131.57 415.887 L131.57 424.359 Q132.589 424.011 133.607 423.849 Q134.626 423.664 135.644 423.664 Q141.431 423.664 144.811 426.836 Q148.191 430.007 148.191 435.423 Q148.191 441.002 144.718 444.104 Q141.246 447.183 134.927 447.183 Q132.751 447.183 130.482 446.812 Q128.237 446.442 125.83 445.701 L125.83 441.002 Q127.913 442.136 130.135 442.692 Q132.357 443.248 134.834 443.248 Q138.839 443.248 141.177 441.141 Q143.515 439.035 143.515 435.423 Q143.515 431.812 141.177 429.706 Q138.839 427.599 134.834 427.599 Q132.959 427.599 131.084 428.016 Q129.232 428.433 127.288 429.312 L127.288 411.951 Z" fill="#000000" fill-rule="nonzero" fill-opacity="1" /><path clip-path="url(#clip430)" d="M51.6634 103.156 L59.3023 103.156 L59.3023 76.7906 L50.9921 78.4573 L50.9921 74.198 L59.256 72.5314 L63.9319 72.5314 L63.9319 103.156 L71.5707 103.156 L71.5707 107.091 L51.6634 107.091 L51.6634 103.156 Z" fill="#000000" fill-rule="nonzero" fill-opacity="1" /><path clip-path="url(#clip430)" d="M91.0151 75.6101 Q87.404 75.6101 85.5753 79.1749 Q83.7697 82.7165 83.7697 89.8461 Q83.7697 96.9525 85.5753 100.517 Q87.404 104.059 91.0151 104.059 Q94.6493 104.059 96.4548 100.517 Q98.2835 96.9525 98.2835 89.8461 Q98.2835 82.7165 96.4548 79.1749 Q94.6493 75.6101 91.0151 75.6101 M91.0151 71.9064 Q96.8252 71.9064 99.8808 76.5128 Q102.959 81.0961 102.959 89.8461 Q102.959 98.5729 99.8808 103.179 Q96.8252 107.763 91.0151 107.763 Q85.2049 107.763 82.1262 103.179 Q79.0707 98.5729 79.0707 89.8461 Q79.0707 81.0961 82.1262 76.5128 Q85.2049 71.9064 91.0151 71.9064 Z" fill="#000000" fill-rule="nonzero" fill-opacity="1" /><path clip-path="url(#clip430)" d="M111.177 101.212 L116.061 101.212 L116.061 107.091 L111.177 107.091 L111.177 101.212 Z" fill="#000000" fill-rule="nonzero" fill-opacity="1" /><path clip-path="url(#clip430)" d="M136.246 75.6101 Q132.635 75.6101 130.807 79.1749 Q129.001 82.7165 129.001 89.8461 Q129.001 96.9525 130.807 100.517 Q132.635 104.059 136.246 104.059 Q139.881 104.059 141.686 100.517 Q143.515 96.9525 143.515 89.8461 Q143.515 82.7165 141.686 79.1749 Q139.881 75.6101 136.246 75.6101 M136.246 71.9064 Q142.056 71.9064 145.112 76.5128 Q148.191 81.0961 148.191 89.8461 Q148.191 98.5729 145.112 103.179 Q142.056 107.763 136.246 107.763 Q130.436 107.763 127.357 103.179 Q124.302 98.5729 124.302 89.8461 Q124.302 81.0961 127.357 76.5128 Q130.436 71.9064 136.246 71.9064 Z" fill="#000000" fill-rule="nonzero" fill-opacity="1" /><path clip-path="url(#clip432)" d="M245.565 1311.72 L266.023 1323.7 L286.481 1325.22 L306.94 1320.97 L327.398 1303.48 L347.856 1296.73 L368.314 1266.29 L388.772 1250.31 L409.23 1231.25 L429.689 1201.54 L450.147 1186.49 L470.605 1169.31 L491.063 1128.21 L511.521 1085.82 L531.979 1068.8 L552.438 1062.64 L572.896 1028.31 L593.354 990.705 L613.812 890.03 L634.27 831.225 L654.728 780.92 L675.187 814.081 L695.645 947.957 L716.103 1086.1 L736.561 1179.67 L757.019 1254.4 L777.477 1290.97 L797.936 1301.08 L818.394 1338.74 L838.852 1352.62 L859.31 1370.07 L879.768 1381.22 L900.226 1385.26 L920.685 1380.66 L941.143 1373.3 L961.601 1377.06 L982.059 1382.72 L1002.52 1381.66 L1022.98 1374.82 L1043.43 1372.97 L1063.89 1372.96 L1084.35 1359 L1104.81 1342.96 L1125.27 1326.59 L1145.72 1305.1 L1166.18 1276.85 L1186.64 1264.21 L1207.1 1246.08 L1227.56 1223.45 L1248.02 1207.94 L1268.47 1177.12 L1288.93 1097.2 L1309.39 1045.88 L1329.85 984.353 L1350.31 944.212 L1370.76 910.614 L1391.22 928.491 L1411.68 977.205 L1432.14 1080.22 L1452.6 1207.65 L1473.05 1269.26 L1493.51 1319.05 L1513.97 1342.02 L1534.43 1364.91 L1554.89 1369.67 L1575.35 1375.32 L1595.8 1386.34 L1616.26 1398.12 L1636.72 1402.66 L1657.18 1402.83 L1677.64 1400.16 L1698.09 1392.23 L1718.55 1399.5 L1739.01 1403.91 L1759.47 1403.12 L1779.93 1403.2 L1800.39 1403.52 L1820.84 1398.95 L1841.3 1399.18 L1861.76 1400.57 L1882.22 1399 L1902.68 1398.04 L1923.13 1388.86 L1943.59 1382.43 L1964.05 1375.92 L1984.51 1370.29 L2004.97 1347.28 L2025.43 1342.19 L2045.88 1332.47 L2066.34 1317.22 L2086.8 1300.52 L2107.26 1288.82 L2127.72 1259.53 L2148.17 1240.78 L2168.63 1177.83 L2189.09 1210.52 L2209.55 1248.48 L2230.01 1287.25 L2250.47 1319.95 L2270.92 1341.88 L2291.38 1352.53 L2291.38 700.227 L2270.92 675.456 L2250.47 619.963 L2230.01 415.965 L2209.55 287.629 L2189.09 252.747 L2168.63 313.056 L2148.17 341.725 L2127.72 255.535 L2107.26 216.582 L2086.8 338.487 L2066.34 435.21 L2045.88 475.909 L2025.43 559.452 L2004.97 655.951 L1984.51 725.283 L1964.05 777.201 L1943.59 853.086 L1923.13 911.578 L1902.68 959.014 L1882.22 1005.29 L1861.76 1034.27 L1841.3 1070.22 L1820.84 1105.35 L1800.39 1141.45 L1779.93 1176.44 L1759.47 1190.88 L1739.01 1215.6 L1718.55 1244.11 L1698.09 1266.53 L1677.64 1249.5 L1657.18 1147.26 L1636.72 975.848 L1616.26 773.036 L1595.8 517.742 L1575.35 589.599 L1554.89 632.679 L1534.43 595.534 L1513.97 549.34 L1493.51 304.388 L1473.05 87.9763 L1452.6 91.1055 L1432.14 149.809 L1411.68 341.001 L1391.22 483.599 L1370.76 445.49 L1350.31 397.317 L1329.85 366.766 L1309.39 446.198 L1288.93 542.36 L1268.47 658.389 L1248.02 690.999 L1227.56 789.213 L1207.1 890.086 L1186.64 970.863 L1166.18 1023.73 L1145.72 1084.58 L1125.27 1133.01 L1104.81 1168.63 L1084.35 1187.78 L1063.89 1213.52 L1043.43 1236.92 L1022.98 1246.79 L1002.52 1259.93 L982.059 1272.85 L961.601 1278.01 L941.143 1299 L920.685 1308.03 L900.226 1279.58 L879.768 1225.84 L859.31 1092.8 L838.852 906.446 L818.394 774.839 L797.936 625.152 L777.477 439.573 L757.019 439.586 L736.561 456.115 L716.103 245.932 L695.645 368.502 L675.187 433.493 L654.728 450.108 L634.27 482.831 L613.812 450.118 L593.354 520.057 L572.896 583.325 L552.438 643.686 L531.979 723.689 L511.521 849.534 L491.063 936.601 L470.605 978.171 L450.147 1040.03 L429.689 1085.54 L409.23 1132.43 L388.772 1169.1 L368.314 1177.43 L347.856 1195.49 L327.398 1232.44 L306.94 1243.43 L286.481 1276.61 L266.023 1292.15 L245.565 1311.72  Z" fill="#009af9" fill-rule="evenodd" fill-opacity="0.5"/>
<polyline clip-path="url(#clip432)" style="stroke:#009af9; stroke-linecap:round; stroke-linejoin:round; stroke-width:12; stroke-opacity:1; fill:none" points="245.565,1311.72 266.023,1306.01 286.481,1291.66 306.94,1274.82 327.398,1255.63 347.856,1238.84 368.314,1215.51 388.772,1190.44 409.23,1165.14 429.689,1138.22 450.147,1109.11 470.605,1066.65 491.063,1015.87 511.521,969.26 531.979,888.208 552.438,812.533 572.896,740.519 593.354,625.027 613.812,607.048 634.27,565.69 654.728,596.7 675.187,566.182 695.645,658.933 716.103,819.401 736.561,967.96 757.019,1079.19 777.477,1174.49 797.936,1255.23 818.394,1287.61 838.852,1308.99 859.31,1318.03 879.768,1320.69 900.226,1322.99 920.685,1320.05 941.143,1321.96 961.601,1319.2 982.059,1305.8 1002.52,1292.29 1022.98,1275.72 1043.43,1263.11 1063.89,1251.58 1084.35,1221.57 1104.81,1186.92 1125.27,1163.29 1145.72,1131.18 1166.18,1079.94 1186.64,1036.14 1207.1,986.172 1227.56,932.947 1248.02,863.746 1268.47,774.667 1288.93,715.664 1309.39,657.09 1329.85,631.955 1350.31,618.655 1370.76,616.397 1391.22,626.056 1411.68,712.444 1432.14,881.464 1452.6,855.338 1473.05,987.722 1493.51,1107.51 1513.97,1190.26 1534.43,1243.92 1554.89,1282.97 1575.35,1321.13 1595.8,1328.43 1616.26,1326.7 1636.72,1333.12 1657.18,1339.5 1677.64,1336.41 1698.09,1343.83 1718.55,1335.66 1739.01,1326.86 1759.47,1314.29 1779.93,1294.72 1800.39,1278.03 1820.84,1249 1841.3,1223.91 1861.76,1195.42 1882.22,1158.78 1902.68,1115.48 1923.13,1067.48 1943.59,1016.02 1964.05,927.591 1984.51,876.095 2004.97,792.596 2025.43,688.711 2045.88,658.595 2066.34,594.803 2086.8,535.901 2107.26,599.626 2127.72,682.058 2148.17,716.799 2168.63,870.361 2189.09,1039.01 2209.55,1083.49 2230.01,1141.34 2250.47,1204.03 2270.92,1218.73 2291.38,1256.14 "/>
<path clip-path="url(#clip432)" d="M245.565 1311.72 L266.023 1343.75 L286.481 1363.05 L306.94 1379.51 L327.398 1392.9 L347.856 1403.71 L368.314 1410.09 L388.772 1416.96 L409.23 1420.36 L429.689 1423.63 L450.147 1426.74 L470.605 1427.91 L491.063 1429.07 L511.521 1429.99 L531.979 1430.76 L552.438 1428.93 L572.896 1427.3 L593.354 1426.5 L613.812 1423.88 L634.27 1420.31 L654.728 1414.45 L675.187 1403.21 L695.645 1386.4 L716.103 1356.09 L736.561 1302.62 L757.019 1233.51 L777.477 1143.34 L797.936 1120.36 L818.394 1161.42 L838.852 1193.89 L859.31 1224.05 L879.768 1264.22 L900.226 1304.99 L920.685 1333.23 L941.143 1358.52 L961.601 1369.74 L982.059 1380.1 L1002.52 1394.45 L1022.98 1404.82 L1043.43 1414.04 L1063.89 1417.1 L1084.35 1423.15 L1104.81 1428.37 L1125.27 1431.04 L1145.72 1432.57 L1166.18 1434.76 L1186.64 1436.6 L1207.1 1438.25 L1227.56 1438.34 L1248.02 1438.91 L1268.47 1439.2 L1288.93 1438.62 L1309.39 1438.66 L1329.85 1438.26 L1350.31 1437.49 L1370.76 1436.17 L1391.22 1433.25 L1411.68 1428.4 L1432.14 1415.25 L1452.6 1382.31 L1473.05 1302.11 L1493.51 1231.21 L1513.97 1266.91 L1534.43 1289.67 L1554.89 1296.62 L1575.35 1268.42 L1595.8 1294.06 L1616.26 1323.49 L1636.72 1349.12 L1657.18 1365.33 L1677.64 1382.62 L1698.09 1396.09 L1718.55 1405.76 L1739.01 1414.07 L1759.47 1419.52 L1779.93 1425.06 L1800.39 1428.69 L1820.84 1432.12 L1841.3 1434.47 L1861.76 1436.58 L1882.22 1438.23 L1902.68 1439.36 L1923.13 1439.7 L1943.59 1440.38 L1964.05 1441.17 L1984.51 1441.74 L2004.97 1441.91 L2025.43 1441.68 L2045.88 1441.9 L2066.34 1443.02 L2086.8 1443.76 L2107.26 1444.43 L2127.72 1444.92 L2148.17 1445.26 L2168.63 1445.52 L2189.09 1445.65 L2209.55 1445.72 L2230.01 1445.7 L2250.47 1445.68 L2270.92 1445.49 L2291.38 1445.08 L2291.38 721.857 L2270.92 750.974 L2250.47 667.868 L2230.01 656.208 L2209.55 629.433 L2189.09 668.766 L2168.63 766.742 L2148.17 799.62 L2127.72 893.985 L2107.26 976.582 L2086.8 1070.71 L2066.34 1152.76 L2045.88 1205.38 L2025.43 1278.67 L2004.97 1318.76 L1984.51 1344.85 L1964.05 1370.19 L1943.59 1385.73 L1923.13 1393.91 L1902.68 1393.01 L1882.22 1381.67 L1861.76 1366.66 L1841.3 1348.24 L1820.84 1322.92 L1800.39 1282.17 L1779.93 1232.33 L1759.47 1169.02 L1739.01 1084.62 L1718.55 972.844 L1698.09 855.153 L1677.64 715.915 L1657.18 626.943 L1636.72 665.899 L1616.26 776.778 L1595.8 766.325 L1575.35 614.565 L1554.89 487.089 L1534.43 448.844 L1513.97 528.264 L1493.51 750.95 L1473.05 733.725 L1452.6 654.923 L1432.14 632.529 L1411.68 722.766 L1391.22 868.435 L1370.76 1019.09 L1350.31 1161.39 L1329.85 1258.75 L1309.39 1330.08 L1288.93 1363.66 L1268.47 1386.7 L1248.02 1398.35 L1227.56 1404.56 L1207.1 1409.52 L1186.64 1410.61 L1166.18 1409.69 L1145.72 1404.08 L1125.27 1396.26 L1104.81 1385.98 L1084.35 1372.79 L1063.89 1353.69 L1043.43 1327.37 L1022.98 1294.19 L1002.52 1249.38 L982.059 1201.31 L961.601 1132.49 L941.143 1051.49 L920.685 968.651 L900.226 874.568 L879.768 783.722 L859.31 697.396 L838.852 760.934 L818.394 744.011 L797.936 720.92 L777.477 669.698 L757.019 684.366 L736.561 756.338 L716.103 741.31 L695.645 828.977 L675.187 917.579 L654.728 1067.67 L634.27 1164.51 L613.812 1265.15 L593.354 1326.14 L572.896 1354.02 L552.438 1376.23 L531.979 1385.91 L511.521 1395.35 L491.063 1398.39 L470.605 1401.53 L450.147 1405.06 L429.689 1398.74 L409.23 1395.74 L388.772 1392.2 L368.314 1390.74 L347.856 1382.4 L327.398 1374.61 L306.94 1361.27 L286.481 1345.64 L266.023 1328.92 L245.565 1311.72  Z" fill="#e26f46" fill-rule="evenodd" fill-opacity="0.5"/>
<polyline clip-path="url(#clip432)" style="stroke:#e26f46; stroke-linecap:round; stroke-linejoin:round; stroke-width:12; stroke-opacity:1; fill:none" points="245.565,1311.72 266.023,1335.85 286.481,1356.2 306.94,1371.8 327.398,1382.3 347.856,1390.53 368.314,1397.66 388.772,1403.49 409.23,1408.16 429.689,1412.01 450.147,1414.02 470.605,1414.5 491.063,1413.55 511.521,1412.88 531.979,1410.45 552.438,1405.45 572.896,1395.43 593.354,1379.04 613.812,1348.99 634.27,1303.08 654.728,1238.53 675.187,1158.57 695.645,1033.82 716.103,967.172 736.561,876.169 757.019,863.332 777.477,934.59 797.936,966.89 818.394,1021.93 838.852,1071.11 859.31,1140.78 879.768,1195.93 900.226,1242.4 920.685,1282.63 941.143,1320.77 961.601,1348.1 982.059,1365.56 1002.52,1379.47 1022.98,1390.62 1043.43,1398.76 1063.89,1406.02 1084.35,1410.51 1104.81,1413.72 1125.27,1416.55 1145.72,1418.24 1166.18,1419.35 1186.64,1419.29 1207.1,1419.58 1227.56,1417.59 1248.02,1414.51 1268.47,1408.37 1288.93,1397.28 1309.39,1378.14 1329.85,1351.79 1350.31,1308.63 1370.76,1243.61 1391.22,1185.95 1411.68,1111.18 1432.14,1052.25 1452.6,942.385 1473.05,906.524 1493.51,935.306 1513.97,968.577 1534.43,1045.27 1554.89,1131.51 1575.35,1185.46 1595.8,1182.15 1616.26,1234.41 1636.72,1265.32 1657.18,1302.07 1677.64,1325.15 1698.09,1337.14 1718.55,1351.03 1739.01,1366.54 1759.47,1374.4 1779.93,1385.06 1800.39,1397.15 1820.84,1407.04 1841.3,1412.87 1861.76,1414.93 1882.22,1420 1902.68,1422.81 1923.13,1425.16 1943.59,1427.15 1964.05,1428.66 1984.51,1431.3 2004.97,1432.28 2025.43,1428.15 2045.88,1419.76 2066.34,1405.31 2086.8,1378.54 2107.26,1322.05 2127.72,1232.92 2148.17,1105.45 2168.63,1049.17 2189.09,1017.16 2209.55,943.628 2230.01,1021.72 2250.47,1071.31 2270.92,1083.42 2291.38,1132.31 "/>
</svg>
