<?xml version="1.0" encoding="utf-8"?>
<svg xmlns="http://www.w3.org/2000/svg" xmlns:xlink="http://www.w3.org/1999/xlink" width="600" height="400" viewBox="0 0 2400 1600">
<defs>
  <clipPath id="clip630">
    <rect x="0" y="0" width="2400" height="1600"/>
  </clipPath>
</defs>
<path clip-path="url(#clip630)" d="M0 1600 L2400 1600 L2400 0 L0 0  Z" fill="#ffffff" fill-rule="evenodd" fill-opacity="1"/>
<defs>
  <clipPath id="clip631">
    <rect x="480" y="0" width="1681" height="1600"/>
  </clipPath>
</defs>
<path clip-path="url(#clip630)" d="M112.177 1486.45 L2352.76 1486.45 L2352.76 47.2441 L112.177 47.2441  Z" fill="#ffffff" fill-rule="evenodd" fill-opacity="1"/>
<defs>
  <clipPath id="clip632">
    <rect x="112" y="47" width="2242" height="1440"/>
  </clipPath>
</defs>
<polyline clip-path="url(#clip632)" style="stroke:#000000; stroke-linecap:round; stroke-linejoin:round; stroke-width:2; stroke-opacity:0.1; fill:none" points="175.59,1486.45 175.59,47.2441 "/>
<polyline clip-path="url(#clip632)" style="stroke:#000000; stroke-linecap:round; stroke-linejoin:round; stroke-width:2; stroke-opacity:0.1; fill:none" points="704.028,1486.45 704.028,47.2441 "/>
<polyline clip-path="url(#clip632)" style="stroke:#000000; stroke-linecap:round; stroke-linejoin:round; stroke-width:2; stroke-opacity:0.1; fill:none" points="1232.47,1486.45 1232.47,47.2441 "/>
<polyline clip-path="url(#clip632)" style="stroke:#000000; stroke-linecap:round; stroke-linejoin:round; stroke-width:2; stroke-opacity:0.1; fill:none" points="1760.9,1486.45 1760.9,47.2441 "/>
<polyline clip-path="url(#clip632)" style="stroke:#000000; stroke-linecap:round; stroke-linejoin:round; stroke-width:2; stroke-opacity:0.1; fill:none" points="2289.34,1486.45 2289.34,47.2441 "/>
<polyline clip-path="url(#clip632)" style="stroke:#000000; stroke-linecap:round; stroke-linejoin:round; stroke-width:2; stroke-opacity:0.1; fill:none" points="112.177,1456.15 2352.76,1456.15 "/>
<polyline clip-path="url(#clip632)" style="stroke:#000000; stroke-linecap:round; stroke-linejoin:round; stroke-width:2; stroke-opacity:0.1; fill:none" points="112.177,1171.26 2352.76,1171.26 "/>
<polyline clip-path="url(#clip632)" style="stroke:#000000; stroke-linecap:round; stroke-linejoin:round; stroke-width:2; stroke-opacity:0.1; fill:none" points="112.177,886.376 2352.76,886.376 "/>
<polyline clip-path="url(#clip632)" style="stroke:#000000; stroke-linecap:round; stroke-linejoin:round; stroke-width:2; stroke-opacity:0.1; fill:none" points="112.177,601.489 2352.76,601.489 "/>
<polyline clip-path="url(#clip632)" style="stroke:#000000; stroke-linecap:round; stroke-linejoin:round; stroke-width:2; stroke-opacity:0.1; fill:none" points="112.177,316.603 2352.76,316.603 "/>
<polyline clip-path="url(#clip630)" style="stroke:#000000; stroke-linecap:round; stroke-linejoin:round; stroke-width:4; stroke-opacity:1; fill:none" points="112.177,1486.45 2352.76,1486.45 "/>
<polyline clip-path="url(#clip630)" style="stroke:#000000; stroke-linecap:round; stroke-linejoin:round; stroke-width:4; stroke-opacity:1; fill:none" points="175.59,1486.45 175.59,1467.55 "/>
<polyline clip-path="url(#clip630)" style="stroke:#000000; stroke-linecap:round; stroke-linejoin:round; stroke-width:4; stroke-opacity:1; fill:none" points="704.028,1486.45 704.028,1467.55 "/>
<polyline clip-path="url(#clip630)" style="stroke:#000000; stroke-linecap:round; stroke-linejoin:round; stroke-width:4; stroke-opacity:1; fill:none" points="1232.47,1486.45 1232.47,1467.55 "/>
<polyline clip-path="url(#clip630)" style="stroke:#000000; stroke-linecap:round; stroke-linejoin:round; stroke-width:4; stroke-opacity:1; fill:none" points="1760.9,1486.45 1760.9,1467.55 "/>
<polyline clip-path="url(#clip630)" style="stroke:#000000; stroke-linecap:round; stroke-linejoin:round; stroke-width:4; stroke-opacity:1; fill:none" points="2289.34,1486.45 2289.34,1467.55 "/>
<path clip-path="url(#clip630)" d="M152.974 1517.37 Q149.363 1517.37 147.534 1520.93 Q145.729 1524.47 145.729 1531.6 Q145.729 1538.71 147.534 1542.27 Q149.363 1545.82 152.974 1545.82 Q156.608 1545.82 158.414 1542.27 Q160.243 1538.71 160.243 1531.6 Q160.243 1524.47 158.414 1520.93 Q156.608 1517.37 152.974 1517.37 M152.974 1513.66 Q158.784 1513.66 161.84 1518.27 Q164.919 1522.85 164.919 1531.6 Q164.919 1540.33 161.84 1544.94 Q158.784 1549.52 152.974 1549.52 Q147.164 1549.52 144.085 1544.94 Q141.03 1540.33 141.03 1531.6 Q141.03 1522.85 144.085 1518.27 Q147.164 1513.66 152.974 1513.66 Z" fill="#000000" fill-rule="nonzero" fill-opacity="1" /><path clip-path="url(#clip630)" d="M173.136 1542.97 L178.02 1542.97 L178.02 1548.85 L173.136 1548.85 L173.136 1542.97 Z" fill="#000000" fill-rule="nonzero" fill-opacity="1" /><path clip-path="url(#clip630)" d="M198.205 1517.37 Q194.594 1517.37 192.766 1520.93 Q190.96 1524.47 190.96 1531.6 Q190.96 1538.71 192.766 1542.27 Q194.594 1545.82 198.205 1545.82 Q201.84 1545.82 203.645 1542.27 Q205.474 1538.71 205.474 1531.6 Q205.474 1524.47 203.645 1520.93 Q201.84 1517.37 198.205 1517.37 M198.205 1513.66 Q204.016 1513.66 207.071 1518.27 Q210.15 1522.85 210.15 1531.6 Q210.15 1540.33 207.071 1544.94 Q204.016 1549.52 198.205 1549.52 Q192.395 1549.52 189.317 1544.94 Q186.261 1540.33 186.261 1531.6 Q186.261 1522.85 189.317 1518.27 Q192.395 1513.66 198.205 1513.66 Z" fill="#000000" fill-rule="nonzero" fill-opacity="1" /><path clip-path="url(#clip630)" d="M675.764 1544.91 L692.084 1544.91 L692.084 1548.85 L670.139 1548.85 L670.139 1544.91 Q672.801 1542.16 677.385 1537.53 Q681.991 1532.88 683.172 1531.53 Q685.417 1529.01 686.297 1527.27 Q687.2 1525.51 687.2 1523.82 Q687.2 1521.07 685.255 1519.33 Q683.334 1517.6 680.232 1517.6 Q678.033 1517.6 675.579 1518.36 Q673.149 1519.13 670.371 1520.68 L670.371 1515.95 Q673.195 1514.82 675.649 1514.24 Q678.102 1513.66 680.139 1513.66 Q685.51 1513.66 688.704 1516.35 Q691.899 1519.03 691.899 1523.52 Q691.899 1525.65 691.088 1527.57 Q690.301 1529.47 688.195 1532.07 Q687.616 1532.74 684.514 1535.95 Q681.413 1539.15 675.764 1544.91 Z" fill="#000000" fill-rule="nonzero" fill-opacity="1" /><path clip-path="url(#clip630)" d="M701.899 1542.97 L706.783 1542.97 L706.783 1548.85 L701.899 1548.85 L701.899 1542.97 Z" fill="#000000" fill-rule="nonzero" fill-opacity="1" /><path clip-path="url(#clip630)" d="M717.014 1514.29 L735.371 1514.29 L735.371 1518.22 L721.297 1518.22 L721.297 1526.7 Q722.315 1526.35 723.334 1526.19 Q724.352 1526 725.371 1526 Q731.158 1526 734.537 1529.17 Q737.917 1532.34 737.917 1537.76 Q737.917 1543.34 734.445 1546.44 Q730.972 1549.52 724.653 1549.52 Q722.477 1549.52 720.209 1549.15 Q717.963 1548.78 715.556 1548.04 L715.556 1543.34 Q717.639 1544.47 719.861 1545.03 Q722.084 1545.58 724.56 1545.58 Q728.565 1545.58 730.903 1543.48 Q733.241 1541.37 733.241 1537.76 Q733.241 1534.15 730.903 1532.04 Q728.565 1529.94 724.56 1529.94 Q722.685 1529.94 720.81 1530.35 Q718.959 1530.77 717.014 1531.65 L717.014 1514.29 Z" fill="#000000" fill-rule="nonzero" fill-opacity="1" /><path clip-path="url(#clip630)" d="M1199.63 1514.29 L1217.99 1514.29 L1217.99 1518.22 L1203.91 1518.22 L1203.91 1526.7 Q1204.93 1526.35 1205.95 1526.19 Q1206.97 1526 1207.99 1526 Q1213.77 1526 1217.15 1529.17 Q1220.53 1532.34 1220.53 1537.76 Q1220.53 1543.34 1217.06 1546.44 Q1213.59 1549.52 1207.27 1549.52 Q1205.09 1549.52 1202.83 1549.15 Q1200.58 1548.78 1198.17 1548.04 L1198.17 1543.34 Q1200.26 1544.47 1202.48 1545.03 Q1204.7 1545.58 1207.18 1545.58 Q1211.18 1545.58 1213.52 1543.48 Q1215.86 1541.37 1215.86 1537.76 Q1215.86 1534.15 1213.52 1532.04 Q1211.18 1529.94 1207.18 1529.94 Q1205.3 1529.94 1203.43 1530.35 Q1201.58 1530.77 1199.63 1531.65 L1199.63 1514.29 Z" fill="#000000" fill-rule="nonzero" fill-opacity="1" /><path clip-path="url(#clip630)" d="M1229.75 1542.97 L1234.63 1542.97 L1234.63 1548.85 L1229.75 1548.85 L1229.75 1542.97 Z" fill="#000000" fill-rule="nonzero" fill-opacity="1" /><path clip-path="url(#clip630)" d="M1254.82 1517.37 Q1251.2 1517.37 1249.38 1520.93 Q1247.57 1524.47 1247.57 1531.6 Q1247.57 1538.71 1249.38 1542.27 Q1251.2 1545.82 1254.82 1545.82 Q1258.45 1545.82 1260.26 1542.27 Q1262.08 1538.71 1262.08 1531.6 Q1262.08 1524.47 1260.26 1520.93 Q1258.45 1517.37 1254.82 1517.37 M1254.82 1513.66 Q1260.63 1513.66 1263.68 1518.27 Q1266.76 1522.85 1266.76 1531.6 Q1266.76 1540.33 1263.68 1544.94 Q1260.63 1549.52 1254.82 1549.52 Q1249.01 1549.52 1245.93 1544.94 Q1242.87 1540.33 1242.87 1531.6 Q1242.87 1522.85 1245.93 1518.27 Q1249.01 1513.66 1254.82 1513.66 Z" fill="#000000" fill-rule="nonzero" fill-opacity="1" /><path clip-path="url(#clip630)" d="M1727.22 1514.29 L1749.45 1514.29 L1749.45 1516.28 L1736.9 1548.85 L1732.02 1548.85 L1743.82 1518.22 L1727.22 1518.22 L1727.22 1514.29 Z" fill="#000000" fill-rule="nonzero" fill-opacity="1" /><path clip-path="url(#clip630)" d="M1758.57 1542.97 L1763.45 1542.97 L1763.45 1548.85 L1758.57 1548.85 L1758.57 1542.97 Z" fill="#000000" fill-rule="nonzero" fill-opacity="1" /><path clip-path="url(#clip630)" d="M1773.68 1514.29 L1792.04 1514.29 L1792.04 1518.22 L1777.97 1518.22 L1777.97 1526.7 Q1778.98 1526.35 1780 1526.19 Q1781.02 1526 1782.04 1526 Q1787.83 1526 1791.21 1529.17 Q1794.59 1532.34 1794.59 1537.76 Q1794.59 1543.34 1791.11 1546.44 Q1787.64 1549.52 1781.32 1549.52 Q1779.15 1549.52 1776.88 1549.15 Q1774.63 1548.78 1772.22 1548.04 L1772.22 1543.34 Q1774.31 1544.47 1776.53 1545.03 Q1778.75 1545.58 1781.23 1545.58 Q1785.23 1545.58 1787.57 1543.48 Q1789.91 1541.37 1789.91 1537.76 Q1789.91 1534.15 1787.57 1532.04 Q1785.23 1529.94 1781.23 1529.94 Q1779.35 1529.94 1777.48 1530.35 Q1775.63 1530.77 1773.68 1531.65 L1773.68 1514.29 Z" fill="#000000" fill-rule="nonzero" fill-opacity="1" /><path clip-path="url(#clip630)" d="M2241.42 1544.91 L2249.05 1544.91 L2249.05 1518.55 L2240.74 1520.21 L2240.74 1515.95 L2249.01 1514.29 L2253.68 1514.29 L2253.68 1544.91 L2261.32 1544.91 L2261.32 1548.85 L2241.42 1548.85 L2241.42 1544.91 Z" fill="#000000" fill-rule="nonzero" fill-opacity="1" /><path clip-path="url(#clip630)" d="M2280.77 1517.37 Q2277.16 1517.37 2275.33 1520.93 Q2273.52 1524.47 2273.52 1531.6 Q2273.52 1538.71 2275.33 1542.27 Q2277.16 1545.82 2280.77 1545.82 Q2284.4 1545.82 2286.21 1542.27 Q2288.04 1538.71 2288.04 1531.6 Q2288.04 1524.47 2286.21 1520.93 Q2284.4 1517.37 2280.77 1517.37 M2280.77 1513.66 Q2286.58 1513.66 2289.63 1518.27 Q2292.71 1522.85 2292.71 1531.6 Q2292.71 1540.33 2289.63 1544.94 Q2286.58 1549.52 2280.77 1549.52 Q2274.96 1549.52 2271.88 1544.94 Q2268.82 1540.33 2268.82 1531.6 Q2268.82 1522.85 2271.88 1518.27 Q2274.96 1513.66 2280.77 1513.66 Z" fill="#000000" fill-rule="nonzero" fill-opacity="1" /><path clip-path="url(#clip630)" d="M2300.93 1542.97 L2305.81 1542.97 L2305.81 1548.85 L2300.93 1548.85 L2300.93 1542.97 Z" fill="#000000" fill-rule="nonzero" fill-opacity="1" /><path clip-path="url(#clip630)" d="M2326 1517.37 Q2322.39 1517.37 2320.56 1520.93 Q2318.75 1524.47 2318.75 1531.6 Q2318.75 1538.71 2320.56 1542.27 Q2322.39 1545.82 2326 1545.82 Q2329.63 1545.82 2331.44 1542.27 Q2333.27 1538.71 2333.27 1531.6 Q2333.27 1524.47 2331.44 1520.93 Q2329.63 1517.37 2326 1517.37 M2326 1513.66 Q2331.81 1513.66 2334.86 1518.27 Q2337.94 1522.85 2337.94 1531.6 Q2337.94 1540.33 2334.86 1544.94 Q2331.81 1549.52 2326 1549.52 Q2320.19 1549.52 2317.11 1544.94 Q2314.05 1540.33 2314.05 1531.6 Q2314.05 1522.85 2317.11 1518.27 Q2320.19 1513.66 2326 1513.66 Z" fill="#000000" fill-rule="nonzero" fill-opacity="1" /><polyline clip-path="url(#clip630)" style="stroke:#000000; stroke-linecap:round; stroke-linejoin:round; stroke-width:4; stroke-opacity:1; fill:none" points="112.177,1486.45 112.177,47.2441 "/>
<polyline clip-path="url(#clip630)" style="stroke:#000000; stroke-linecap:round; stroke-linejoin:round; stroke-width:4; stroke-opacity:1; fill:none" points="112.177,1456.15 131.075,1456.15 "/>
<polyline clip-path="url(#clip630)" style="stroke:#000000; stroke-linecap:round; stroke-linejoin:round; stroke-width:4; stroke-opacity:1; fill:none" points="112.177,1171.26 131.075,1171.26 "/>
<polyline clip-path="url(#clip630)" style="stroke:#000000; stroke-linecap:round; stroke-linejoin:round; stroke-width:4; stroke-opacity:1; fill:none" points="112.177,886.376 131.075,886.376 "/>
<polyline clip-path="url(#clip630)" style="stroke:#000000; stroke-linecap:round; stroke-linejoin:round; stroke-width:4; stroke-opacity:1; fill:none" points="112.177,601.489 131.075,601.489 "/>
<polyline clip-path="url(#clip630)" style="stroke:#000000; stroke-linecap:round; stroke-linejoin:round; stroke-width:4; stroke-opacity:1; fill:none" points="112.177,316.603 131.075,316.603 "/>
<path clip-path="url(#clip630)" d="M64.2328 1441.95 Q60.6217 1441.95 58.793 1445.51 Q56.9875 1449.05 56.9875 1456.18 Q56.9875 1463.29 58.793 1466.85 Q60.6217 1470.4 64.2328 1470.4 Q67.867 1470.4 69.6726 1466.85 Q71.5013 1463.29 71.5013 1456.18 Q71.5013 1449.05 69.6726 1445.51 Q67.867 1441.95 64.2328 1441.95 M64.2328 1438.24 Q70.0429 1438.24 73.0985 1442.85 Q76.1772 1447.43 76.1772 1456.18 Q76.1772 1464.91 73.0985 1469.52 Q70.0429 1474.1 64.2328 1474.1 Q58.4226 1474.1 55.344 1469.52 Q52.2884 1464.91 52.2884 1456.18 Q52.2884 1447.43 55.344 1442.85 Q58.4226 1438.24 64.2328 1438.24 Z" fill="#000000" fill-rule="nonzero" fill-opacity="1" /><path clip-path="url(#clip630)" d="M59.8578 1184.61 L76.1772 1184.61 L76.1772 1188.54 L54.2328 1188.54 L54.2328 1184.61 Q56.8949 1181.85 61.4782 1177.22 Q66.0846 1172.57 67.2652 1171.23 Q69.5105 1168.7 70.3902 1166.97 Q71.2929 1165.21 71.2929 1163.52 Q71.2929 1160.76 69.3485 1159.03 Q67.4272 1157.29 64.3254 1157.29 Q62.1263 1157.29 59.6726 1158.06 Q57.2421 1158.82 54.4643 1160.37 L54.4643 1155.65 Q57.2884 1154.51 59.7421 1153.94 Q62.1958 1153.36 64.2328 1153.36 Q69.6031 1153.36 72.7976 1156.04 Q75.992 1158.73 75.992 1163.22 Q75.992 1165.35 75.1818 1167.27 Q74.3948 1169.17 72.2883 1171.76 Q71.7096 1172.43 68.6078 1175.65 Q65.5059 1178.84 59.8578 1184.61 Z" fill="#000000" fill-rule="nonzero" fill-opacity="1" /><path clip-path="url(#clip630)" d="M66.5939 873.17 L54.7884 891.619 L66.5939 891.619 L66.5939 873.17 M65.367 869.096 L71.2466 869.096 L71.2466 891.619 L76.1772 891.619 L76.1772 895.508 L71.2466 895.508 L71.2466 903.656 L66.5939 903.656 L66.5939 895.508 L50.9921 895.508 L50.9921 890.994 L65.367 869.096 Z" fill="#000000" fill-rule="nonzero" fill-opacity="1" /><path clip-path="url(#clip630)" d="M64.6495 599.626 Q61.5013 599.626 59.6495 601.778 Q57.8208 603.931 57.8208 607.681 Q57.8208 611.408 59.6495 613.584 Q61.5013 615.737 64.6495 615.737 Q67.7976 615.737 69.6263 613.584 Q71.4781 611.408 71.4781 607.681 Q71.4781 603.931 69.6263 601.778 Q67.7976 599.626 64.6495 599.626 M73.9318 584.973 L73.9318 589.232 Q72.1726 588.399 70.367 587.959 Q68.5846 587.519 66.8254 587.519 Q62.1958 587.519 59.7421 590.644 Q57.3115 593.769 56.9643 600.089 Q58.33 598.075 60.3902 597.01 Q62.4504 595.922 64.9272 595.922 Q70.1355 595.922 73.1448 599.093 Q76.1772 602.241 76.1772 607.681 Q76.1772 613.005 73.029 616.223 Q69.8809 619.44 64.6495 619.44 Q58.6541 619.44 55.4828 614.857 Q52.3116 610.251 52.3116 601.524 Q52.3116 593.329 56.2004 588.468 Q60.0893 583.584 66.6402 583.584 Q68.3994 583.584 70.1818 583.931 Q71.9874 584.279 73.9318 584.973 Z" fill="#000000" fill-rule="nonzero" fill-opacity="1" /><path clip-path="url(#clip630)" d="M64.3254 317.471 Q60.9921 317.471 59.0708 319.253 Q57.1726 321.035 57.1726 324.16 Q57.1726 327.285 59.0708 329.068 Q60.9921 330.85 64.3254 330.85 Q67.6587 330.85 69.58 329.068 Q71.5013 327.262 71.5013 324.16 Q71.5013 321.035 69.58 319.253 Q67.6819 317.471 64.3254 317.471 M59.6495 315.48 Q56.6402 314.739 54.9504 312.679 Q53.2838 310.619 53.2838 307.656 Q53.2838 303.512 56.2236 301.105 Q59.1865 298.698 64.3254 298.698 Q69.4874 298.698 72.4272 301.105 Q75.367 303.512 75.367 307.656 Q75.367 310.619 73.6772 312.679 Q72.0105 314.739 69.0244 315.48 Q72.404 316.267 74.279 318.559 Q76.1772 320.85 76.1772 324.16 Q76.1772 329.184 73.0985 331.869 Q70.0429 334.554 64.3254 334.554 Q58.6078 334.554 55.5291 331.869 Q52.4736 329.184 52.4736 324.16 Q52.4736 320.85 54.3717 318.559 Q56.2699 316.267 59.6495 315.48 M57.9365 308.096 Q57.9365 310.781 59.6032 312.285 Q61.293 313.79 64.3254 313.79 Q67.3346 313.79 69.0244 312.285 Q70.7374 310.781 70.7374 308.096 Q70.7374 305.411 69.0244 303.906 Q67.3346 302.401 64.3254 302.401 Q61.293 302.401 59.6032 303.906 Q57.9365 305.411 57.9365 308.096 Z" fill="#000000" fill-rule="nonzero" fill-opacity="1" /><path clip-path="url(#clip632)" d="M175.59 1313.71 L196.727 1318.36 L217.865 1316.52 L239.002 1310.95 L260.14 1301.65 L281.277 1258.02 L302.415 1238.97 L323.553 1208.42 L344.69 1171.15 L365.828 1128.87 L386.965 1105.76 L408.103 1073.23 L429.24 1052.07 L450.378 982.181 L471.515 937.3 L492.653 898.781 L513.79 768.333 L534.928 655.402 L556.065 572.255 L577.203 549.051 L598.34 615.493 L619.478 750.277 L640.616 934.15 L661.753 1079.81 L682.891 1179.78 L704.028 1220.01 L725.166 1261.86 L746.303 1297.7 L767.441 1322.4 L788.578 1328.72 L809.716 1332.59 L830.853 1337.77 L851.991 1332.14 L873.128 1334.69 L894.266 1338.64 L915.404 1340.66 L936.541 1335.91 L957.679 1331.09 L978.816 1324.85 L999.954 1312.04 L1021.09 1295.51 L1042.23 1276.81 L1063.37 1257.05 L1084.5 1226.21 L1105.64 1212.74 L1126.78 1184.4 L1147.92 1105.91 L1169.05 1061.81 L1190.19 1004.98 L1211.33 983.458 L1232.47 885.525 L1253.6 812.817 L1274.74 795.798 L1295.88 787.844 L1317.02 856.31 L1338.15 981.412 L1359.29 1091.04 L1380.43 1170.46 L1401.57 1241.88 L1422.7 1302.98 L1443.84 1342.13 L1464.98 1358.46 L1486.12 1367.6 L1507.25 1369.16 L1528.39 1369.89 L1549.53 1369.95 L1570.67 1367.63 L1591.8 1363.47 L1612.94 1353.34 L1634.08 1345.76 L1655.22 1347.07 L1676.35 1336.7 L1697.49 1320.95 L1718.63 1317.47 L1739.77 1310.21 L1760.9 1284.02 L1782.04 1279.82 L1803.18 1280.48 L1824.32 1257.26 L1845.46 1244.5 L1866.59 1223.79 L1887.73 1188.6 L1908.87 1159.11 L1930.01 1156.72 L1951.14 1174.45 L1972.28 1156.11 L1993.42 1145.77 L2014.56 1109.37 L2035.69 1091.29 L2056.83 1125.83 L2077.97 1199.22 L2099.11 1233.8 L2120.24 1267.34 L2141.38 1288.08 L2162.52 1308.86 L2183.66 1336.8 L2204.79 1359.09 L2225.93 1374.96 L2247.07 1385.77 L2268.21 1400.43 L2289.34 1407.3 L2289.34 1072.97 L2268.21 1020.91 L2247.07 937.785 L2225.93 780.314 L2204.79 742.859 L2183.66 706.594 L2162.52 521.996 L2141.38 280.483 L2120.24 193.493 L2099.11 87.9763 L2077.97 218.439 L2056.83 274.177 L2035.69 333.833 L2014.56 326.929 L1993.42 434.377 L1972.28 416.322 L1951.14 467.713 L1930.01 507.827 L1908.87 574.953 L1887.73 655.7 L1866.59 730.398 L1845.46 812.827 L1824.32 837.003 L1803.18 889.15 L1782.04 927.639 L1760.9 933.587 L1739.77 992.018 L1718.63 996.725 L1697.49 997.84 L1676.35 1037.85 L1655.22 1063.45 L1634.08 1096.04 L1612.94 1093.29 L1591.8 1112.78 L1570.67 1142.73 L1549.53 1124.48 L1528.39 1140.68 L1507.25 1120.49 L1486.12 1063.89 L1464.98 908.106 L1443.84 754.135 L1422.7 521.626 L1401.57 560.235 L1380.43 462.634 L1359.29 412.514 L1338.15 389.802 L1317.02 355.314 L1295.88 315.377 L1274.74 309.296 L1253.6 321.454 L1232.47 402.084 L1211.33 578.204 L1190.19 668.311 L1169.05 788.359 L1147.92 827.713 L1126.78 855.093 L1105.64 930.112 L1084.5 1002.5 L1063.37 1055.57 L1042.23 1088.68 L1021.09 1083.12 L999.954 1114.05 L978.816 1170.75 L957.679 1178.79 L936.541 1188.28 L915.404 1236.36 L894.266 1255.68 L873.128 1272.58 L851.991 1273.5 L830.853 1282.01 L809.716 1271.57 L788.578 1232.54 L767.441 1188.76 L746.303 1119.87 L725.166 1025.04 L704.028 857.859 L682.891 644.014 L661.753 511.802 L640.616 420.686 L619.478 322.75 L598.34 351.863 L577.203 351.075 L556.065 395.417 L534.928 436.394 L513.79 482.99 L492.653 573.797 L471.515 696.141 L450.378 825.896 L429.24 846.016 L408.103 912.768 L386.965 983.193 L365.828 1031.42 L344.69 1087.26 L323.553 1152.56 L302.415 1182.18 L281.277 1224.8 L260.14 1256.36 L239.002 1278.28 L217.865 1287.72 L196.727 1302.07 L175.59 1313.71  Z" fill="#009af9" fill-rule="evenodd" fill-opacity="0.5"/>
<polyline clip-path="url(#clip632)" style="stroke:#009af9; stroke-linecap:round; stroke-linejoin:round; stroke-width:12; stroke-opacity:1; fill:none" points="175.59,1313.71 196.727,1306.83 217.865,1299.51 239.002,1286.82 260.14,1266.82 281.277,1251.27 302.415,1219.02 323.553,1185.48 344.69,1149.69 365.828,1107.68 386.965,1053.12 408.103,1009.33 429.24,946.133 450.378,905.277 471.515,780.769 492.653,729.456 513.79,636.26 534.928,529.898 556.065,486.48 577.203,467.526 598.34,490.984 619.478,569.313 640.616,744.602 661.753,896.577 682.891,1017.9 704.028,1133.95 725.166,1191.68 746.303,1247.25 767.441,1282.67 788.578,1286.26 809.716,1307.9 830.853,1317.15 851.991,1319.02 873.128,1312.27 894.266,1303.87 915.404,1298.11 936.541,1288.44 957.679,1272.74 978.816,1256.18 999.954,1235.86 1021.09,1200.33 1042.23,1190.84 1063.37,1159.83 1084.5,1119.47 1105.64,1079.97 1126.78,1031.95 1147.92,964.52 1169.05,917.621 1190.19,833.481 1211.33,763.258 1232.47,676.63 1253.6,588.985 1274.74,491.301 1295.88,508.195 1317.02,631.621 1338.15,662.922 1359.29,723.455 1380.43,954.909 1401.57,1102.64 1422.7,1179.78 1443.84,1225.6 1464.98,1266.9 1486.12,1283.32 1507.25,1290.15 1528.39,1292.96 1549.53,1295.75 1570.67,1308.92 1591.8,1313.82 1612.94,1300.82 1634.08,1284.45 1655.22,1264.83 1676.35,1243.42 1697.49,1228.22 1718.63,1206.06 1739.77,1180.06 1760.9,1125.88 1782.04,1082.92 1803.18,1046.57 1824.32,1004.98 1845.46,978.903 1866.59,931.439 1887.73,873.683 1908.87,805.43 1930.01,747.633 1951.14,672.649 1972.28,758.199 1993.42,731.511 2014.56,700.853 2035.69,775.916 2056.83,766.017 2077.97,810.306 2099.11,966.591 2120.24,1104.93 2141.38,1187.62 2162.52,1221.76 2183.66,1269.29 2204.79,1303.84 2225.93,1313.76 2247.07,1327.61 2268.21,1324.72 2289.34,1319.08 "/>
<path clip-path="url(#clip632)" d="M175.59 1313.71 L196.727 1351.53 L217.865 1368.52 L239.002 1385.49 L260.14 1401.1 L281.277 1409.1 L302.415 1416.82 L323.553 1420.62 L344.69 1425.73 L365.828 1427.51 L386.965 1428.48 L408.103 1430.99 L429.24 1431.87 L450.378 1432.29 L471.515 1431.64 L492.653 1428.48 L513.79 1424.93 L534.928 1416.46 L556.065 1401.85 L577.203 1383.29 L598.34 1326.39 L619.478 1256.9 L640.616 1170.81 L661.753 1060.47 L682.891 907.002 L704.028 929.898 L725.166 1003.97 L746.303 1085.62 L767.441 1153.29 L788.578 1208.25 L809.716 1252.4 L830.853 1287.74 L851.991 1316.56 L873.128 1342.56 L894.266 1359.29 L915.404 1372.92 L936.541 1385.82 L957.679 1395.88 L978.816 1403.85 L999.954 1409.99 L1021.09 1415.14 L1042.23 1418.31 L1063.37 1423.13 L1084.5 1426.96 L1105.64 1430.08 L1126.78 1431.96 L1147.92 1434.04 L1169.05 1433.4 L1190.19 1433.15 L1211.33 1430.78 L1232.47 1428.85 L1253.6 1423.49 L1274.74 1416.27 L1295.88 1410.33 L1317.02 1396.88 L1338.15 1374.45 L1359.29 1334.01 L1380.43 1277.05 L1401.57 1204.63 L1422.7 1149.01 L1443.84 1144.53 L1464.98 1192.59 L1486.12 1226.11 L1507.25 1260.07 L1528.39 1286.52 L1549.53 1306.34 L1570.67 1333.67 L1591.8 1358.52 L1612.94 1377.59 L1634.08 1391.74 L1655.22 1402.52 L1676.35 1412.18 L1697.49 1420.49 L1718.63 1427.92 L1739.77 1432.14 L1760.9 1435.61 L1782.04 1438.91 L1803.18 1440.87 L1824.32 1442.66 L1845.46 1443.99 L1866.59 1445.15 L1887.73 1445.72 L1908.87 1445.2 L1930.01 1443.98 L1951.14 1442.45 L1972.28 1442.1 L1993.42 1441.75 L2014.56 1439.68 L2035.69 1435.06 L2056.83 1427.76 L2077.97 1411.29 L2099.11 1369.5 L2120.24 1373.14 L2141.38 1366.07 L2162.52 1355 L2183.66 1338.83 L2204.79 1320.29 L2225.93 1341.67 L2247.07 1357.22 L2268.21 1371.85 L2289.34 1382.92 L2289.34 948.659 L2268.21 888.116 L2247.07 848.287 L2225.93 702.562 L2204.79 542.887 L2183.66 448.468 L2162.52 417.228 L2141.38 530.32 L2120.24 564.959 L2099.11 743.078 L2077.97 818.281 L2056.83 767.232 L2035.69 807.846 L2014.56 898.377 L1993.42 1040.28 L1972.28 1099.94 L1951.14 1133.52 L1930.01 1152.51 L1908.87 1175.95 L1887.73 1185.42 L1866.59 1199.32 L1845.46 1227.69 L1824.32 1254.62 L1803.18 1277.26 L1782.04 1292.63 L1760.9 1304.98 L1739.77 1315.96 L1718.63 1319.72 L1697.49 1318.03 L1676.35 1297.33 L1655.22 1268.44 L1634.08 1228.96 L1612.94 1207.35 L1591.8 1146.36 L1570.67 1103.86 L1549.53 1053.06 L1528.39 952.939 L1507.25 879.907 L1486.12 798.605 L1464.98 810.774 L1443.84 775.331 L1422.7 644.169 L1401.57 572.975 L1380.43 563.123 L1359.29 679.429 L1338.15 743.896 L1317.02 865.538 L1295.88 1035.54 L1274.74 1172.67 L1253.6 1251.55 L1232.47 1298.3 L1211.33 1326.14 L1190.19 1347.45 L1169.05 1364.3 L1147.92 1380.51 L1126.78 1389.34 L1105.64 1392.4 L1084.5 1389.46 L1063.37 1388.81 L1042.23 1382.81 L1021.09 1381.93 L999.954 1376.27 L978.816 1361.45 L957.679 1343.73 L936.541 1323.74 L915.404 1285.24 L894.266 1252.39 L873.128 1206.79 L851.991 1144.52 L830.853 1066.97 L809.716 1017.57 L788.578 923.026 L767.441 888.446 L746.303 770.273 L725.166 781.604 L704.028 751.674 L682.891 779.059 L661.753 763.917 L640.616 789.7 L619.478 873.733 L598.34 1004.97 L577.203 1139.58 L556.065 1254.71 L534.928 1322.15 L513.79 1361.97 L492.653 1385.01 L471.515 1397.98 L450.378 1406.72 L429.24 1410.44 L408.103 1411.91 L386.965 1412.44 L365.828 1412.7 L344.69 1410.22 L323.553 1404.79 L302.415 1400.27 L281.277 1391.85 L260.14 1381.21 L239.002 1364.74 L217.865 1351.08 L196.727 1332.62 L175.59 1313.71  Z" fill="#e26f46" fill-rule="evenodd" fill-opacity="0.5"/>
<polyline clip-path="url(#clip632)" style="stroke:#e26f46; stroke-linecap:round; stroke-linejoin:round; stroke-width:12; stroke-opacity:1; fill:none" points="175.59,1313.71 196.727,1337.95 217.865,1358 239.002,1374.11 260.14,1386.98 281.277,1398.5 302.415,1408.09 323.553,1412.69 344.69,1418.42 365.828,1422.3 386.965,1423.73 408.103,1423.71 429.24,1423.71 450.378,1422.84 471.515,1418.84 492.653,1410.14 513.79,1395.84 534.928,1368.52 556.065,1328.93 577.203,1262.47 598.34,1176.07 619.478,1052.14 640.616,956.139 661.753,884.075 682.891,859.023 704.028,846.877 725.166,894.4 746.303,960.399 767.441,1026.06 788.578,1100.9 809.716,1150 830.853,1202.34 851.991,1252.97 873.128,1291.63 894.266,1326.5 915.404,1350.14 936.541,1370.17 957.679,1380.01 978.816,1390.55 999.954,1401.2 1021.09,1407.86 1042.23,1413.18 1063.37,1417.73 1084.5,1418.81 1105.64,1418.79 1126.78,1419.54 1147.92,1419.18 1169.05,1415.04 1190.19,1408.13 1211.33,1405.56 1232.47,1389.04 1253.6,1367 1274.74,1331.15 1295.88,1271.59 1317.02,1164.89 1338.15,1082.63 1359.29,920.929 1380.43,852.197 1401.57,875.879 1422.7,977.08 1443.84,1006.36 1464.98,994.206 1486.12,1066.1 1507.25,1140.79 1528.39,1198.98 1549.53,1239.43 1570.67,1290.89 1591.8,1318.84 1612.94,1337.88 1634.08,1359.54 1655.22,1373.88 1676.35,1383.17 1697.49,1392.23 1718.63,1399.68 1739.77,1402.32 1760.9,1403.56 1782.04,1404.16 1803.18,1406.76 1824.32,1409.47 1845.46,1412.64 1866.59,1412.86 1887.73,1408.04 1908.87,1396.55 1930.01,1377.02 1951.14,1342.42 1972.28,1314.26 1993.42,1274.18 2014.56,1202.4 2035.69,1156.99 2056.83,1045.08 2077.97,1010.7 2099.11,906.919 2120.24,990.813 2141.38,957.472 2162.52,1029.89 2183.66,1103.68 2204.79,1164.86 2225.93,1168.56 2247.07,1225.3 2268.21,1271.24 2289.34,1304.58 "/>
</svg>
