<?xml version="1.0" encoding="utf-8"?>
<svg xmlns="http://www.w3.org/2000/svg" xmlns:xlink="http://www.w3.org/1999/xlink" width="600" height="400" viewBox="0 0 2400 1600">
<defs>
  <clipPath id="clip690">
    <rect x="0" y="0" width="2400" height="1600"/>
  </clipPath>
</defs>
<path clip-path="url(#clip690)" d="M0 1600 L2400 1600 L2400 0 L0 0  Z" fill="#ffffff" fill-rule="evenodd" fill-opacity="1"/>
<defs>
  <clipPath id="clip691">
    <rect x="480" y="0" width="1681" height="1600"/>
  </clipPath>
</defs>
<path clip-path="url(#clip690)" d="M155.765 1486.45 L2352.76 1486.45 L2352.76 47.2441 L155.765 47.2441  Z" fill="#ffffff" fill-rule="evenodd" fill-opacity="1"/>
<defs>
  <clipPath id="clip692">
    <rect x="155" y="47" width="2198" height="1440"/>
  </clipPath>
</defs>
<polyline clip-path="url(#clip692)" style="stroke:#000000; stroke-linecap:round; stroke-linejoin:round; stroke-width:2; stroke-opacity:0.1; fill:none" points="217.944,1486.45 217.944,47.2441 "/>
<polyline clip-path="url(#clip692)" style="stroke:#000000; stroke-linecap:round; stroke-linejoin:round; stroke-width:2; stroke-opacity:0.1; fill:none" points="736.102,1486.45 736.102,47.2441 "/>
<polyline clip-path="url(#clip692)" style="stroke:#000000; stroke-linecap:round; stroke-linejoin:round; stroke-width:2; stroke-opacity:0.1; fill:none" points="1254.26,1486.45 1254.26,47.2441 "/>
<polyline clip-path="url(#clip692)" style="stroke:#000000; stroke-linecap:round; stroke-linejoin:round; stroke-width:2; stroke-opacity:0.1; fill:none" points="1772.42,1486.45 1772.42,47.2441 "/>
<polyline clip-path="url(#clip692)" style="stroke:#000000; stroke-linecap:round; stroke-linejoin:round; stroke-width:2; stroke-opacity:0.1; fill:none" points="2290.58,1486.45 2290.58,47.2441 "/>
<polyline clip-path="url(#clip692)" style="stroke:#000000; stroke-linecap:round; stroke-linejoin:round; stroke-width:2; stroke-opacity:0.1; fill:none" points="155.765,1291.71 2352.76,1291.71 "/>
<polyline clip-path="url(#clip692)" style="stroke:#000000; stroke-linecap:round; stroke-linejoin:round; stroke-width:2; stroke-opacity:0.1; fill:none" points="155.765,1056.12 2352.76,1056.12 "/>
<polyline clip-path="url(#clip692)" style="stroke:#000000; stroke-linecap:round; stroke-linejoin:round; stroke-width:2; stroke-opacity:0.1; fill:none" points="155.765,820.537 2352.76,820.537 "/>
<polyline clip-path="url(#clip692)" style="stroke:#000000; stroke-linecap:round; stroke-linejoin:round; stroke-width:2; stroke-opacity:0.1; fill:none" points="155.765,584.95 2352.76,584.95 "/>
<polyline clip-path="url(#clip692)" style="stroke:#000000; stroke-linecap:round; stroke-linejoin:round; stroke-width:2; stroke-opacity:0.1; fill:none" points="155.765,349.363 2352.76,349.363 "/>
<polyline clip-path="url(#clip692)" style="stroke:#000000; stroke-linecap:round; stroke-linejoin:round; stroke-width:2; stroke-opacity:0.1; fill:none" points="155.765,113.776 2352.76,113.776 "/>
<polyline clip-path="url(#clip690)" style="stroke:#000000; stroke-linecap:round; stroke-linejoin:round; stroke-width:4; stroke-opacity:1; fill:none" points="155.765,1486.45 2352.76,1486.45 "/>
<polyline clip-path="url(#clip690)" style="stroke:#000000; stroke-linecap:round; stroke-linejoin:round; stroke-width:4; stroke-opacity:1; fill:none" points="217.944,1486.45 217.944,1467.55 "/>
<polyline clip-path="url(#clip690)" style="stroke:#000000; stroke-linecap:round; stroke-linejoin:round; stroke-width:4; stroke-opacity:1; fill:none" points="736.102,1486.45 736.102,1467.55 "/>
<polyline clip-path="url(#clip690)" style="stroke:#000000; stroke-linecap:round; stroke-linejoin:round; stroke-width:4; stroke-opacity:1; fill:none" points="1254.26,1486.45 1254.26,1467.55 "/>
<polyline clip-path="url(#clip690)" style="stroke:#000000; stroke-linecap:round; stroke-linejoin:round; stroke-width:4; stroke-opacity:1; fill:none" points="1772.42,1486.45 1772.42,1467.55 "/>
<polyline clip-path="url(#clip690)" style="stroke:#000000; stroke-linecap:round; stroke-linejoin:round; stroke-width:4; stroke-opacity:1; fill:none" points="2290.58,1486.45 2290.58,1467.55 "/>
<path clip-path="url(#clip690)" d="M180.247 1517.37 Q176.636 1517.37 174.808 1520.93 Q173.002 1524.47 173.002 1531.6 Q173.002 1538.71 174.808 1542.27 Q176.636 1545.82 180.247 1545.82 Q183.882 1545.82 185.687 1542.27 Q187.516 1538.71 187.516 1531.6 Q187.516 1524.47 185.687 1520.93 Q183.882 1517.37 180.247 1517.37 M180.247 1513.66 Q186.057 1513.66 189.113 1518.27 Q192.192 1522.85 192.192 1531.6 Q192.192 1540.33 189.113 1544.94 Q186.057 1549.52 180.247 1549.52 Q174.437 1549.52 171.358 1544.94 Q168.303 1540.33 168.303 1531.6 Q168.303 1522.85 171.358 1518.27 Q174.437 1513.66 180.247 1513.66 Z" fill="#000000" fill-rule="nonzero" fill-opacity="1" /><path clip-path="url(#clip690)" d="M200.409 1542.97 L205.294 1542.97 L205.294 1548.85 L200.409 1548.85 L200.409 1542.97 Z" fill="#000000" fill-rule="nonzero" fill-opacity="1" /><path clip-path="url(#clip690)" d="M225.479 1517.37 Q221.867 1517.37 220.039 1520.93 Q218.233 1524.47 218.233 1531.6 Q218.233 1538.71 220.039 1542.27 Q221.867 1545.82 225.479 1545.82 Q229.113 1545.82 230.918 1542.27 Q232.747 1538.71 232.747 1531.6 Q232.747 1524.47 230.918 1520.93 Q229.113 1517.37 225.479 1517.37 M225.479 1513.66 Q231.289 1513.66 234.344 1518.27 Q237.423 1522.85 237.423 1531.6 Q237.423 1540.33 234.344 1544.94 Q231.289 1549.52 225.479 1549.52 Q219.668 1549.52 216.59 1544.94 Q213.534 1540.33 213.534 1531.6 Q213.534 1522.85 216.59 1518.27 Q219.668 1513.66 225.479 1513.66 Z" fill="#000000" fill-rule="nonzero" fill-opacity="1" /><path clip-path="url(#clip690)" d="M255.64 1517.37 Q252.029 1517.37 250.201 1520.93 Q248.395 1524.47 248.395 1531.6 Q248.395 1538.71 250.201 1542.27 Q252.029 1545.82 255.64 1545.82 Q259.275 1545.82 261.08 1542.27 Q262.909 1538.71 262.909 1531.6 Q262.909 1524.47 261.08 1520.93 Q259.275 1517.37 255.64 1517.37 M255.64 1513.66 Q261.451 1513.66 264.506 1518.27 Q267.585 1522.85 267.585 1531.6 Q267.585 1540.33 264.506 1544.94 Q261.451 1549.52 255.64 1549.52 Q249.83 1549.52 246.752 1544.94 Q243.696 1540.33 243.696 1531.6 Q243.696 1522.85 246.752 1518.27 Q249.83 1513.66 255.64 1513.66 Z" fill="#000000" fill-rule="nonzero" fill-opacity="1" /><path clip-path="url(#clip690)" d="M698.903 1517.37 Q695.292 1517.37 693.463 1520.93 Q691.658 1524.47 691.658 1531.6 Q691.658 1538.71 693.463 1542.27 Q695.292 1545.82 698.903 1545.82 Q702.538 1545.82 704.343 1542.27 Q706.172 1538.71 706.172 1531.6 Q706.172 1524.47 704.343 1520.93 Q702.538 1517.37 698.903 1517.37 M698.903 1513.66 Q704.713 1513.66 707.769 1518.27 Q710.848 1522.85 710.848 1531.6 Q710.848 1540.33 707.769 1544.94 Q704.713 1549.52 698.903 1549.52 Q693.093 1549.52 690.014 1544.94 Q686.959 1540.33 686.959 1531.6 Q686.959 1522.85 690.014 1518.27 Q693.093 1513.66 698.903 1513.66 Z" fill="#000000" fill-rule="nonzero" fill-opacity="1" /><path clip-path="url(#clip690)" d="M719.065 1542.97 L723.949 1542.97 L723.949 1548.85 L719.065 1548.85 L719.065 1542.97 Z" fill="#000000" fill-rule="nonzero" fill-opacity="1" /><path clip-path="url(#clip690)" d="M738.162 1544.91 L754.482 1544.91 L754.482 1548.85 L732.537 1548.85 L732.537 1544.91 Q735.199 1542.16 739.783 1537.53 Q744.389 1532.88 745.57 1531.53 Q747.815 1529.01 748.695 1527.27 Q749.597 1525.51 749.597 1523.82 Q749.597 1521.07 747.653 1519.33 Q745.732 1517.6 742.63 1517.6 Q740.431 1517.6 737.977 1518.36 Q735.547 1519.13 732.769 1520.68 L732.769 1515.95 Q735.593 1514.82 738.047 1514.24 Q740.5 1513.66 742.537 1513.66 Q747.908 1513.66 751.102 1516.35 Q754.296 1519.03 754.296 1523.52 Q754.296 1525.65 753.486 1527.57 Q752.699 1529.47 750.593 1532.07 Q750.014 1532.74 746.912 1535.95 Q743.81 1539.15 738.162 1544.91 Z" fill="#000000" fill-rule="nonzero" fill-opacity="1" /><path clip-path="url(#clip690)" d="M764.343 1514.29 L782.699 1514.29 L782.699 1518.22 L768.625 1518.22 L768.625 1526.7 Q769.644 1526.35 770.662 1526.19 Q771.681 1526 772.699 1526 Q778.486 1526 781.866 1529.17 Q785.245 1532.34 785.245 1537.76 Q785.245 1543.34 781.773 1546.44 Q778.301 1549.52 771.982 1549.52 Q769.806 1549.52 767.537 1549.15 Q765.292 1548.78 762.884 1548.04 L762.884 1543.34 Q764.968 1544.47 767.19 1545.03 Q769.412 1545.58 771.889 1545.58 Q775.894 1545.58 778.232 1543.48 Q780.57 1541.37 780.57 1537.76 Q780.57 1534.15 778.232 1532.04 Q775.894 1529.94 771.889 1529.94 Q770.014 1529.94 768.139 1530.35 Q766.287 1530.77 764.343 1531.65 L764.343 1514.29 Z" fill="#000000" fill-rule="nonzero" fill-opacity="1" /><path clip-path="url(#clip690)" d="M1216.56 1517.37 Q1212.95 1517.37 1211.12 1520.93 Q1209.32 1524.47 1209.32 1531.6 Q1209.32 1538.71 1211.12 1542.27 Q1212.95 1545.82 1216.56 1545.82 Q1220.2 1545.82 1222 1542.27 Q1223.83 1538.71 1223.83 1531.6 Q1223.83 1524.47 1222 1520.93 Q1220.2 1517.37 1216.56 1517.37 M1216.56 1513.66 Q1222.37 1513.66 1225.43 1518.27 Q1228.51 1522.85 1228.51 1531.6 Q1228.51 1540.33 1225.43 1544.94 Q1222.37 1549.52 1216.56 1549.52 Q1210.75 1549.52 1207.68 1544.94 Q1204.62 1540.33 1204.62 1531.6 Q1204.62 1522.85 1207.68 1518.27 Q1210.75 1513.66 1216.56 1513.66 Z" fill="#000000" fill-rule="nonzero" fill-opacity="1" /><path clip-path="url(#clip690)" d="M1236.73 1542.97 L1241.61 1542.97 L1241.61 1548.85 L1236.73 1548.85 L1236.73 1542.97 Z" fill="#000000" fill-rule="nonzero" fill-opacity="1" /><path clip-path="url(#clip690)" d="M1251.84 1514.29 L1270.2 1514.29 L1270.2 1518.22 L1256.12 1518.22 L1256.12 1526.7 Q1257.14 1526.35 1258.16 1526.19 Q1259.18 1526 1260.2 1526 Q1265.98 1526 1269.36 1529.17 Q1272.74 1532.34 1272.74 1537.76 Q1272.74 1543.34 1269.27 1546.44 Q1265.8 1549.52 1259.48 1549.52 Q1257.3 1549.52 1255.04 1549.15 Q1252.79 1548.78 1250.38 1548.04 L1250.38 1543.34 Q1252.47 1544.47 1254.69 1545.03 Q1256.91 1545.58 1259.39 1545.58 Q1263.39 1545.58 1265.73 1543.48 Q1268.07 1541.37 1268.07 1537.76 Q1268.07 1534.15 1265.73 1532.04 Q1263.39 1529.94 1259.39 1529.94 Q1257.51 1529.94 1255.64 1530.35 Q1253.79 1530.77 1251.84 1531.65 L1251.84 1514.29 Z" fill="#000000" fill-rule="nonzero" fill-opacity="1" /><path clip-path="url(#clip690)" d="M1291.96 1517.37 Q1288.35 1517.37 1286.52 1520.93 Q1284.71 1524.47 1284.71 1531.6 Q1284.71 1538.71 1286.52 1542.27 Q1288.35 1545.82 1291.96 1545.82 Q1295.59 1545.82 1297.4 1542.27 Q1299.23 1538.71 1299.23 1531.6 Q1299.23 1524.47 1297.4 1520.93 Q1295.59 1517.37 1291.96 1517.37 M1291.96 1513.66 Q1297.77 1513.66 1300.82 1518.27 Q1303.9 1522.85 1303.9 1531.6 Q1303.9 1540.33 1300.82 1544.94 Q1297.77 1549.52 1291.96 1549.52 Q1286.15 1549.52 1283.07 1544.94 Q1280.01 1540.33 1280.01 1531.6 Q1280.01 1522.85 1283.07 1518.27 Q1286.15 1513.66 1291.96 1513.66 Z" fill="#000000" fill-rule="nonzero" fill-opacity="1" /><path clip-path="url(#clip690)" d="M1735.22 1517.37 Q1731.61 1517.37 1729.78 1520.93 Q1727.97 1524.47 1727.97 1531.6 Q1727.97 1538.71 1729.78 1542.27 Q1731.61 1545.82 1735.22 1545.82 Q1738.85 1545.82 1740.66 1542.27 Q1742.49 1538.71 1742.49 1531.6 Q1742.49 1524.47 1740.66 1520.93 Q1738.85 1517.37 1735.22 1517.37 M1735.22 1513.66 Q1741.03 1513.66 1744.09 1518.27 Q1747.16 1522.85 1747.16 1531.6 Q1747.16 1540.33 1744.09 1544.94 Q1741.03 1549.52 1735.22 1549.52 Q1729.41 1549.52 1726.33 1544.94 Q1723.28 1540.33 1723.28 1531.6 Q1723.28 1522.85 1726.33 1518.27 Q1729.41 1513.66 1735.22 1513.66 Z" fill="#000000" fill-rule="nonzero" fill-opacity="1" /><path clip-path="url(#clip690)" d="M1755.38 1542.97 L1760.27 1542.97 L1760.27 1548.85 L1755.38 1548.85 L1755.38 1542.97 Z" fill="#000000" fill-rule="nonzero" fill-opacity="1" /><path clip-path="url(#clip690)" d="M1769.27 1514.29 L1791.49 1514.29 L1791.49 1516.28 L1778.95 1548.85 L1774.06 1548.85 L1785.87 1518.22 L1769.27 1518.22 L1769.27 1514.29 Z" fill="#000000" fill-rule="nonzero" fill-opacity="1" /><path clip-path="url(#clip690)" d="M1800.66 1514.29 L1819.02 1514.29 L1819.02 1518.22 L1804.94 1518.22 L1804.94 1526.7 Q1805.96 1526.35 1806.98 1526.19 Q1808 1526 1809.02 1526 Q1814.8 1526 1818.18 1529.17 Q1821.56 1532.34 1821.56 1537.76 Q1821.56 1543.34 1818.09 1546.44 Q1814.62 1549.52 1808.3 1549.52 Q1806.12 1549.52 1803.85 1549.15 Q1801.61 1548.78 1799.2 1548.04 L1799.2 1543.34 Q1801.28 1544.47 1803.51 1545.03 Q1805.73 1545.58 1808.21 1545.58 Q1812.21 1545.58 1814.55 1543.48 Q1816.89 1541.37 1816.89 1537.76 Q1816.89 1534.15 1814.55 1532.04 Q1812.21 1529.94 1808.21 1529.94 Q1806.33 1529.94 1804.46 1530.35 Q1802.6 1530.77 1800.66 1531.65 L1800.66 1514.29 Z" fill="#000000" fill-rule="nonzero" fill-opacity="1" /><path clip-path="url(#clip690)" d="M2242.65 1544.91 L2250.29 1544.91 L2250.29 1518.55 L2241.98 1520.21 L2241.98 1515.95 L2250.24 1514.29 L2254.92 1514.29 L2254.92 1544.91 L2262.56 1544.91 L2262.56 1548.85 L2242.65 1548.85 L2242.65 1544.91 Z" fill="#000000" fill-rule="nonzero" fill-opacity="1" /><path clip-path="url(#clip690)" d="M2272 1542.97 L2276.88 1542.97 L2276.88 1548.85 L2272 1548.85 L2272 1542.97 Z" fill="#000000" fill-rule="nonzero" fill-opacity="1" /><path clip-path="url(#clip690)" d="M2297.07 1517.37 Q2293.46 1517.37 2291.63 1520.93 Q2289.82 1524.47 2289.82 1531.6 Q2289.82 1538.71 2291.63 1542.27 Q2293.46 1545.82 2297.07 1545.82 Q2300.7 1545.82 2302.51 1542.27 Q2304.34 1538.71 2304.34 1531.6 Q2304.34 1524.47 2302.51 1520.93 Q2300.7 1517.37 2297.07 1517.37 M2297.07 1513.66 Q2302.88 1513.66 2305.94 1518.27 Q2309.01 1522.85 2309.01 1531.6 Q2309.01 1540.33 2305.94 1544.94 Q2302.88 1549.52 2297.07 1549.52 Q2291.26 1549.52 2288.18 1544.94 Q2285.13 1540.33 2285.13 1531.6 Q2285.13 1522.85 2288.18 1518.27 Q2291.26 1513.66 2297.07 1513.66 Z" fill="#000000" fill-rule="nonzero" fill-opacity="1" /><path clip-path="url(#clip690)" d="M2327.23 1517.37 Q2323.62 1517.37 2321.79 1520.93 Q2319.99 1524.47 2319.99 1531.6 Q2319.99 1538.71 2321.79 1542.27 Q2323.62 1545.82 2327.23 1545.82 Q2330.87 1545.82 2332.67 1542.27 Q2334.5 1538.71 2334.5 1531.6 Q2334.5 1524.47 2332.67 1520.93 Q2330.87 1517.37 2327.23 1517.37 M2327.23 1513.66 Q2333.04 1513.66 2336.1 1518.27 Q2339.18 1522.85 2339.18 1531.6 Q2339.18 1540.33 2336.1 1544.94 Q2333.04 1549.52 2327.23 1549.52 Q2321.42 1549.52 2318.34 1544.94 Q2315.29 1540.33 2315.29 1531.6 Q2315.29 1522.85 2318.34 1518.27 Q2321.42 1513.66 2327.23 1513.66 Z" fill="#000000" fill-rule="nonzero" fill-opacity="1" /><polyline clip-path="url(#clip690)" style="stroke:#000000; stroke-linecap:round; stroke-linejoin:round; stroke-width:4; stroke-opacity:1; fill:none" points="155.765,1486.45 155.765,47.2441 "/>
<polyline clip-path="url(#clip690)" style="stroke:#000000; stroke-linecap:round; stroke-linejoin:round; stroke-width:4; stroke-opacity:1; fill:none" points="155.765,1291.71 174.663,1291.71 "/>
<polyline clip-path="url(#clip690)" style="stroke:#000000; stroke-linecap:round; stroke-linejoin:round; stroke-width:4; stroke-opacity:1; fill:none" points="155.765,1056.12 174.663,1056.12 "/>
<polyline clip-path="url(#clip690)" style="stroke:#000000; stroke-linecap:round; stroke-linejoin:round; stroke-width:4; stroke-opacity:1; fill:none" points="155.765,820.537 174.663,820.537 "/>
<polyline clip-path="url(#clip690)" style="stroke:#000000; stroke-linecap:round; stroke-linejoin:round; stroke-width:4; stroke-opacity:1; fill:none" points="155.765,584.95 174.663,584.95 "/>
<polyline clip-path="url(#clip690)" style="stroke:#000000; stroke-linecap:round; stroke-linejoin:round; stroke-width:4; stroke-opacity:1; fill:none" points="155.765,349.363 174.663,349.363 "/>
<polyline clip-path="url(#clip690)" style="stroke:#000000; stroke-linecap:round; stroke-linejoin:round; stroke-width:4; stroke-opacity:1; fill:none" points="155.765,113.776 174.663,113.776 "/>
<path clip-path="url(#clip690)" d="M63.5847 1277.51 Q59.9736 1277.51 58.1449 1281.07 Q56.3393 1284.62 56.3393 1291.75 Q56.3393 1298.85 58.1449 1302.42 Q59.9736 1305.96 63.5847 1305.96 Q67.2189 1305.96 69.0244 1302.42 Q70.8531 1298.85 70.8531 1291.75 Q70.8531 1284.62 69.0244 1281.07 Q67.2189 1277.51 63.5847 1277.51 M63.5847 1273.81 Q69.3948 1273.81 72.4503 1278.41 Q75.529 1283 75.529 1291.75 Q75.529 1300.47 72.4503 1305.08 Q69.3948 1309.66 63.5847 1309.66 Q57.7745 1309.66 54.6958 1305.08 Q51.6403 1300.47 51.6403 1291.75 Q51.6403 1283 54.6958 1278.41 Q57.7745 1273.81 63.5847 1273.81 Z" fill="#000000" fill-rule="nonzero" fill-opacity="1" /><path clip-path="url(#clip690)" d="M83.7466 1303.11 L88.6308 1303.11 L88.6308 1308.99 L83.7466 1308.99 L83.7466 1303.11 Z" fill="#000000" fill-rule="nonzero" fill-opacity="1" /><path clip-path="url(#clip690)" d="M98.8622 1274.43 L117.219 1274.43 L117.219 1278.37 L103.145 1278.37 L103.145 1286.84 Q104.163 1286.49 105.182 1286.33 Q106.2 1286.14 107.219 1286.14 Q113.006 1286.14 116.385 1289.31 Q119.765 1292.49 119.765 1297.9 Q119.765 1303.48 116.293 1306.58 Q112.82 1309.66 106.501 1309.66 Q104.325 1309.66 102.057 1309.29 Q99.8113 1308.92 97.4039 1308.18 L97.4039 1303.48 Q99.4872 1304.62 101.709 1305.17 Q103.932 1305.73 106.408 1305.73 Q110.413 1305.73 112.751 1303.62 Q115.089 1301.51 115.089 1297.9 Q115.089 1294.29 112.751 1292.19 Q110.413 1290.08 106.408 1290.08 Q104.534 1290.08 102.659 1290.5 Q100.807 1290.91 98.8622 1291.79 L98.8622 1274.43 Z" fill="#000000" fill-rule="nonzero" fill-opacity="1" /><path clip-path="url(#clip690)" d="M53.3995 1069.47 L61.0384 1069.47 L61.0384 1043.1 L52.7282 1044.77 L52.7282 1040.51 L60.9921 1038.84 L65.668 1038.84 L65.668 1069.47 L73.3068 1069.47 L73.3068 1073.4 L53.3995 1073.4 L53.3995 1069.47 Z" fill="#000000" fill-rule="nonzero" fill-opacity="1" /><path clip-path="url(#clip690)" d="M82.7512 1067.52 L87.6354 1067.52 L87.6354 1073.4 L82.7512 1073.4 L82.7512 1067.52 Z" fill="#000000" fill-rule="nonzero" fill-opacity="1" /><path clip-path="url(#clip690)" d="M107.821 1041.92 Q104.209 1041.92 102.381 1045.49 Q100.575 1049.03 100.575 1056.16 Q100.575 1063.26 102.381 1066.83 Q104.209 1070.37 107.821 1070.37 Q111.455 1070.37 113.26 1066.83 Q115.089 1063.26 115.089 1056.16 Q115.089 1049.03 113.26 1045.49 Q111.455 1041.92 107.821 1041.92 M107.821 1038.22 Q113.631 1038.22 116.686 1042.83 Q119.765 1047.41 119.765 1056.16 Q119.765 1064.89 116.686 1069.49 Q113.631 1074.07 107.821 1074.07 Q102.01 1074.07 98.9317 1069.49 Q95.8761 1064.89 95.8761 1056.16 Q95.8761 1047.41 98.9317 1042.83 Q102.01 1038.22 107.821 1038.22 Z" fill="#000000" fill-rule="nonzero" fill-opacity="1" /><path clip-path="url(#clip690)" d="M54.3949 833.882 L62.0337 833.882 L62.0337 807.516 L53.7236 809.183 L53.7236 804.924 L61.9874 803.257 L66.6633 803.257 L66.6633 833.882 L74.3022 833.882 L74.3022 837.817 L54.3949 837.817 L54.3949 833.882 Z" fill="#000000" fill-rule="nonzero" fill-opacity="1" /><path clip-path="url(#clip690)" d="M83.7466 831.937 L88.6308 831.937 L88.6308 837.817 L83.7466 837.817 L83.7466 831.937 Z" fill="#000000" fill-rule="nonzero" fill-opacity="1" /><path clip-path="url(#clip690)" d="M98.8622 803.257 L117.219 803.257 L117.219 807.192 L103.145 807.192 L103.145 815.664 Q104.163 815.317 105.182 815.155 Q106.2 814.97 107.219 814.97 Q113.006 814.97 116.385 818.141 Q119.765 821.312 119.765 826.729 Q119.765 832.308 116.293 835.409 Q112.82 838.488 106.501 838.488 Q104.325 838.488 102.057 838.118 Q99.8113 837.747 97.4039 837.007 L97.4039 832.308 Q99.4872 833.442 101.709 833.997 Q103.932 834.553 106.408 834.553 Q110.413 834.553 112.751 832.447 Q115.089 830.34 115.089 826.729 Q115.089 823.118 112.751 821.011 Q110.413 818.905 106.408 818.905 Q104.534 818.905 102.659 819.322 Q100.807 819.738 98.8622 820.618 L98.8622 803.257 Z" fill="#000000" fill-rule="nonzero" fill-opacity="1" /><path clip-path="url(#clip690)" d="M56.6171 598.295 L72.9365 598.295 L72.9365 602.23 L50.9921 602.23 L50.9921 598.295 Q53.6541 595.54 58.2375 590.911 Q62.8439 586.258 64.0245 584.915 Q66.2698 582.392 67.1494 580.656 Q68.0522 578.897 68.0522 577.207 Q68.0522 574.452 66.1078 572.716 Q64.1865 570.98 61.0847 570.98 Q58.8856 570.98 56.4319 571.744 Q54.0014 572.508 51.2236 574.059 L51.2236 569.337 Q54.0477 568.202 56.5014 567.624 Q58.955 567.045 60.9921 567.045 Q66.3624 567.045 69.5568 569.73 Q72.7513 572.415 72.7513 576.906 Q72.7513 579.036 71.9411 580.957 Q71.1541 582.855 69.0476 585.448 Q68.4689 586.119 65.367 589.337 Q62.2652 592.531 56.6171 598.295 Z" fill="#000000" fill-rule="nonzero" fill-opacity="1" /><path clip-path="url(#clip690)" d="M82.7512 596.35 L87.6354 596.35 L87.6354 602.23 L82.7512 602.23 L82.7512 596.35 Z" fill="#000000" fill-rule="nonzero" fill-opacity="1" /><path clip-path="url(#clip690)" d="M107.821 570.749 Q104.209 570.749 102.381 574.314 Q100.575 577.855 100.575 584.985 Q100.575 592.091 102.381 595.656 Q104.209 599.198 107.821 599.198 Q111.455 599.198 113.26 595.656 Q115.089 592.091 115.089 584.985 Q115.089 577.855 113.26 574.314 Q111.455 570.749 107.821 570.749 M107.821 567.045 Q113.631 567.045 116.686 571.652 Q119.765 576.235 119.765 584.985 Q119.765 593.712 116.686 598.318 Q113.631 602.901 107.821 602.901 Q102.01 602.901 98.9317 598.318 Q95.8761 593.712 95.8761 584.985 Q95.8761 576.235 98.9317 571.652 Q102.01 567.045 107.821 567.045 Z" fill="#000000" fill-rule="nonzero" fill-opacity="1" /><path clip-path="url(#clip690)" d="M57.6125 362.708 L73.9318 362.708 L73.9318 366.643 L51.9875 366.643 L51.9875 362.708 Q54.6495 359.953 59.2328 355.324 Q63.8393 350.671 65.0198 349.329 Q67.2652 346.805 68.1448 345.069 Q69.0476 343.31 69.0476 341.62 Q69.0476 338.866 67.1032 337.13 Q65.1819 335.393 62.08 335.393 Q59.881 335.393 57.4273 336.157 Q54.9967 336.921 52.219 338.472 L52.219 333.75 Q55.043 332.616 57.4967 332.037 Q59.9504 331.458 61.9874 331.458 Q67.3578 331.458 70.5522 334.143 Q73.7466 336.829 73.7466 341.319 Q73.7466 343.449 72.9365 345.37 Q72.1494 347.268 70.0429 349.861 Q69.4642 350.532 66.3624 353.75 Q63.2606 356.944 57.6125 362.708 Z" fill="#000000" fill-rule="nonzero" fill-opacity="1" /><path clip-path="url(#clip690)" d="M83.7466 360.764 L88.6308 360.764 L88.6308 366.643 L83.7466 366.643 L83.7466 360.764 Z" fill="#000000" fill-rule="nonzero" fill-opacity="1" /><path clip-path="url(#clip690)" d="M98.8622 332.083 L117.219 332.083 L117.219 336.018 L103.145 336.018 L103.145 344.491 Q104.163 344.143 105.182 343.981 Q106.2 343.796 107.219 343.796 Q113.006 343.796 116.385 346.967 Q119.765 350.139 119.765 355.555 Q119.765 361.134 116.293 364.236 Q112.82 367.315 106.501 367.315 Q104.325 367.315 102.057 366.944 Q99.8113 366.574 97.4039 365.833 L97.4039 361.134 Q99.4872 362.268 101.709 362.824 Q103.932 363.379 106.408 363.379 Q110.413 363.379 112.751 361.273 Q115.089 359.166 115.089 355.555 Q115.089 351.944 112.751 349.838 Q110.413 347.731 106.408 347.731 Q104.534 347.731 102.659 348.148 Q100.807 348.565 98.8622 349.444 L98.8622 332.083 Z" fill="#000000" fill-rule="nonzero" fill-opacity="1" /><path clip-path="url(#clip690)" d="M66.7559 112.422 Q70.1124 113.14 71.9874 115.408 Q73.8855 117.677 73.8855 121.01 Q73.8855 126.126 70.367 128.927 Q66.8485 131.728 60.3671 131.728 Q58.1912 131.728 55.8764 131.288 Q53.5847 130.871 51.131 130.015 L51.131 125.501 Q53.0754 126.635 55.3903 127.214 Q57.7051 127.793 60.2282 127.793 Q64.6263 127.793 66.918 126.056 Q69.2328 124.32 69.2328 121.01 Q69.2328 117.955 67.08 116.242 Q64.9504 114.506 61.131 114.506 L57.1032 114.506 L57.1032 110.663 L61.3161 110.663 Q64.7652 110.663 66.5939 109.297 Q68.4226 107.908 68.4226 105.316 Q68.4226 102.654 66.5245 101.242 Q64.6495 99.8066 61.131 99.8066 Q59.2097 99.8066 57.0106 100.223 Q54.8115 100.64 52.1727 101.52 L52.1727 97.3529 Q54.8347 96.6122 57.1495 96.2418 Q59.4875 95.8715 61.5476 95.8715 Q66.8717 95.8715 69.9735 98.302 Q73.0753 100.709 73.0753 104.83 Q73.0753 107.7 71.4318 109.691 Q69.7883 111.658 66.7559 112.422 Z" fill="#000000" fill-rule="nonzero" fill-opacity="1" /><path clip-path="url(#clip690)" d="M82.7512 125.177 L87.6354 125.177 L87.6354 131.056 L82.7512 131.056 L82.7512 125.177 Z" fill="#000000" fill-rule="nonzero" fill-opacity="1" /><path clip-path="url(#clip690)" d="M107.821 99.5752 Q104.209 99.5752 102.381 103.14 Q100.575 106.682 100.575 113.811 Q100.575 120.918 102.381 124.482 Q104.209 128.024 107.821 128.024 Q111.455 128.024 113.26 124.482 Q115.089 120.918 115.089 113.811 Q115.089 106.682 113.26 103.14 Q111.455 99.5752 107.821 99.5752 M107.821 95.8715 Q113.631 95.8715 116.686 100.478 Q119.765 105.061 119.765 113.811 Q119.765 122.538 116.686 127.144 Q113.631 131.728 107.821 131.728 Q102.01 131.728 98.9317 127.144 Q95.8761 122.538 95.8761 113.811 Q95.8761 105.061 98.9317 100.478 Q102.01 95.8715 107.821 95.8715 Z" fill="#000000" fill-rule="nonzero" fill-opacity="1" /><polyline clip-path="url(#clip692)" style="stroke:#009af9; stroke-linecap:round; stroke-linejoin:round; stroke-width:12; stroke-opacity:1; fill:none" points="217.944,1291.71 425.207,1277.67 632.47,1271.81 839.734,1253.09 1047,1190.65 1254.26,1172.47 1461.52,1236.66 1668.79,1168.53 1876.05,1134.51 2083.31,1119.33 2290.58,1052.44 "/>
<polyline clip-path="url(#clip692)" style="stroke:#000000; stroke-linecap:round; stroke-linejoin:round; stroke-width:12; stroke-opacity:1; fill:none" points="217.944,1291.71 217.944,1291.71 "/>
<polyline clip-path="url(#clip692)" style="stroke:#000000; stroke-linecap:round; stroke-linejoin:round; stroke-width:12; stroke-opacity:1; fill:none" points="425.207,1356.32 425.207,1190.05 "/>
<polyline clip-path="url(#clip692)" style="stroke:#000000; stroke-linecap:round; stroke-linejoin:round; stroke-width:12; stroke-opacity:1; fill:none" points="632.47,1348.96 632.47,1104.82 "/>
<polyline clip-path="url(#clip692)" style="stroke:#000000; stroke-linecap:round; stroke-linejoin:round; stroke-width:12; stroke-opacity:1; fill:none" points="839.734,1354.73 839.734,1060.2 "/>
<polyline clip-path="url(#clip692)" style="stroke:#000000; stroke-linecap:round; stroke-linejoin:round; stroke-width:12; stroke-opacity:1; fill:none" points="1047,1367.45 1047,918.85 "/>
<polyline clip-path="url(#clip692)" style="stroke:#000000; stroke-linecap:round; stroke-linejoin:round; stroke-width:12; stroke-opacity:1; fill:none" points="1254.26,1373.78 1254.26,681.245 "/>
<polyline clip-path="url(#clip692)" style="stroke:#000000; stroke-linecap:round; stroke-linejoin:round; stroke-width:12; stroke-opacity:1; fill:none" points="1461.52,1381.78 1461.52,578.596 "/>
<polyline clip-path="url(#clip692)" style="stroke:#000000; stroke-linecap:round; stroke-linejoin:round; stroke-width:12; stroke-opacity:1; fill:none" points="1668.79,1388.09 1668.79,481.818 "/>
<polyline clip-path="url(#clip692)" style="stroke:#000000; stroke-linecap:round; stroke-linejoin:round; stroke-width:12; stroke-opacity:1; fill:none" points="1876.05,1411.57 1876.05,374.966 "/>
<polyline clip-path="url(#clip692)" style="stroke:#000000; stroke-linecap:round; stroke-linejoin:round; stroke-width:12; stroke-opacity:1; fill:none" points="2083.31,1427.75 2083.31,228.175 "/>
<polyline clip-path="url(#clip692)" style="stroke:#000000; stroke-linecap:round; stroke-linejoin:round; stroke-width:12; stroke-opacity:1; fill:none" points="2290.58,1424.23 2290.58,87.9763 "/>
<line clip-path="url(#clip692)" x1="233.944" y1="1291.71" x2="201.944" y2="1291.71" style="stroke:#000000; stroke-width:12; stroke-opacity:1"/>
<line clip-path="url(#clip692)" x1="233.944" y1="1291.71" x2="201.944" y2="1291.71" style="stroke:#000000; stroke-width:12; stroke-opacity:1"/>
<line clip-path="url(#clip692)" x1="441.207" y1="1356.32" x2="409.207" y2="1356.32" style="stroke:#000000; stroke-width:12; stroke-opacity:1"/>
<line clip-path="url(#clip692)" x1="441.207" y1="1190.05" x2="409.207" y2="1190.05" style="stroke:#000000; stroke-width:12; stroke-opacity:1"/>
<line clip-path="url(#clip692)" x1="648.47" y1="1348.96" x2="616.47" y2="1348.96" style="stroke:#000000; stroke-width:12; stroke-opacity:1"/>
<line clip-path="url(#clip692)" x1="648.47" y1="1104.82" x2="616.47" y2="1104.82" style="stroke:#000000; stroke-width:12; stroke-opacity:1"/>
<line clip-path="url(#clip692)" x1="855.734" y1="1354.73" x2="823.734" y2="1354.73" style="stroke:#000000; stroke-width:12; stroke-opacity:1"/>
<line clip-path="url(#clip692)" x1="855.734" y1="1060.2" x2="823.734" y2="1060.2" style="stroke:#000000; stroke-width:12; stroke-opacity:1"/>
<line clip-path="url(#clip692)" x1="1063" y1="1367.45" x2="1031" y2="1367.45" style="stroke:#000000; stroke-width:12; stroke-opacity:1"/>
<line clip-path="url(#clip692)" x1="1063" y1="918.85" x2="1031" y2="918.85" style="stroke:#000000; stroke-width:12; stroke-opacity:1"/>
<line clip-path="url(#clip692)" x1="1270.26" y1="1373.78" x2="1238.26" y2="1373.78" style="stroke:#000000; stroke-width:12; stroke-opacity:1"/>
<line clip-path="url(#clip692)" x1="1270.26" y1="681.245" x2="1238.26" y2="681.245" style="stroke:#000000; stroke-width:12; stroke-opacity:1"/>
<line clip-path="url(#clip692)" x1="1477.52" y1="1381.78" x2="1445.52" y2="1381.78" style="stroke:#000000; stroke-width:12; stroke-opacity:1"/>
<line clip-path="url(#clip692)" x1="1477.52" y1="578.596" x2="1445.52" y2="578.596" style="stroke:#000000; stroke-width:12; stroke-opacity:1"/>
<line clip-path="url(#clip692)" x1="1684.79" y1="1388.09" x2="1652.79" y2="1388.09" style="stroke:#000000; stroke-width:12; stroke-opacity:1"/>
<line clip-path="url(#clip692)" x1="1684.79" y1="481.818" x2="1652.79" y2="481.818" style="stroke:#000000; stroke-width:12; stroke-opacity:1"/>
<line clip-path="url(#clip692)" x1="1892.05" y1="1411.57" x2="1860.05" y2="1411.57" style="stroke:#000000; stroke-width:12; stroke-opacity:1"/>
<line clip-path="url(#clip692)" x1="1892.05" y1="374.966" x2="1860.05" y2="374.966" style="stroke:#000000; stroke-width:12; stroke-opacity:1"/>
<line clip-path="url(#clip692)" x1="2099.31" y1="1427.75" x2="2067.31" y2="1427.75" style="stroke:#000000; stroke-width:12; stroke-opacity:1"/>
<line clip-path="url(#clip692)" x1="2099.31" y1="228.175" x2="2067.31" y2="228.175" style="stroke:#000000; stroke-width:12; stroke-opacity:1"/>
<line clip-path="url(#clip692)" x1="2306.58" y1="1424.23" x2="2274.58" y2="1424.23" style="stroke:#000000; stroke-width:12; stroke-opacity:1"/>
<line clip-path="url(#clip692)" x1="2306.58" y1="87.9763" x2="2274.58" y2="87.9763" style="stroke:#000000; stroke-width:12; stroke-opacity:1"/>
<polyline clip-path="url(#clip692)" style="stroke:#e26f46; stroke-linecap:round; stroke-linejoin:round; stroke-width:12; stroke-opacity:1; fill:none" points="217.944,1291.71 425.207,1311.44 632.47,1284.18 839.734,1251.74 1047,1219.56 1254.26,1185.15 1461.52,1117.9 1668.79,1100.04 1876.05,1031.94 2083.31,991.231 2290.58,859.336 "/>
<polyline clip-path="url(#clip692)" style="stroke:#000000; stroke-linecap:round; stroke-linejoin:round; stroke-width:12; stroke-opacity:1; fill:none" points="217.944,1291.71 217.944,1291.71 "/>
<polyline clip-path="url(#clip692)" style="stroke:#000000; stroke-linecap:round; stroke-linejoin:round; stroke-width:12; stroke-opacity:1; fill:none" points="425.207,1336.87 425.207,1120.73 "/>
<polyline clip-path="url(#clip692)" style="stroke:#000000; stroke-linecap:round; stroke-linejoin:round; stroke-width:12; stroke-opacity:1; fill:none" points="632.47,1345.29 632.47,1049.97 "/>
<polyline clip-path="url(#clip692)" style="stroke:#000000; stroke-linecap:round; stroke-linejoin:round; stroke-width:12; stroke-opacity:1; fill:none" points="839.734,1334.51 839.734,981.222 "/>
<polyline clip-path="url(#clip692)" style="stroke:#000000; stroke-linecap:round; stroke-linejoin:round; stroke-width:12; stroke-opacity:1; fill:none" points="1047,1360.39 1047,916.671 "/>
<polyline clip-path="url(#clip692)" style="stroke:#000000; stroke-linecap:round; stroke-linejoin:round; stroke-width:12; stroke-opacity:1; fill:none" points="1254.26,1363.19 1254.26,727.608 "/>
<polyline clip-path="url(#clip692)" style="stroke:#000000; stroke-linecap:round; stroke-linejoin:round; stroke-width:12; stroke-opacity:1; fill:none" points="1461.52,1389.21 1461.52,739.369 "/>
<polyline clip-path="url(#clip692)" style="stroke:#000000; stroke-linecap:round; stroke-linejoin:round; stroke-width:12; stroke-opacity:1; fill:none" points="1668.79,1424.67 1668.79,851.268 "/>
<polyline clip-path="url(#clip692)" style="stroke:#000000; stroke-linecap:round; stroke-linejoin:round; stroke-width:12; stroke-opacity:1; fill:none" points="1876.05,1440.87 1876.05,851.957 "/>
<polyline clip-path="url(#clip692)" style="stroke:#000000; stroke-linecap:round; stroke-linejoin:round; stroke-width:12; stroke-opacity:1; fill:none" points="2083.31,1445.72 2083.31,706.445 "/>
<polyline clip-path="url(#clip692)" style="stroke:#000000; stroke-linecap:round; stroke-linejoin:round; stroke-width:12; stroke-opacity:1; fill:none" points="2290.58,1442.76 2290.58,526.697 "/>
<line clip-path="url(#clip692)" x1="233.944" y1="1291.71" x2="201.944" y2="1291.71" style="stroke:#000000; stroke-width:12; stroke-opacity:1"/>
<line clip-path="url(#clip692)" x1="233.944" y1="1291.71" x2="201.944" y2="1291.71" style="stroke:#000000; stroke-width:12; stroke-opacity:1"/>
<line clip-path="url(#clip692)" x1="441.207" y1="1336.87" x2="409.207" y2="1336.87" style="stroke:#000000; stroke-width:12; stroke-opacity:1"/>
<line clip-path="url(#clip692)" x1="441.207" y1="1120.73" x2="409.207" y2="1120.73" style="stroke:#000000; stroke-width:12; stroke-opacity:1"/>
<line clip-path="url(#clip692)" x1="648.47" y1="1345.29" x2="616.47" y2="1345.29" style="stroke:#000000; stroke-width:12; stroke-opacity:1"/>
<line clip-path="url(#clip692)" x1="648.47" y1="1049.97" x2="616.47" y2="1049.97" style="stroke:#000000; stroke-width:12; stroke-opacity:1"/>
<line clip-path="url(#clip692)" x1="855.734" y1="1334.51" x2="823.734" y2="1334.51" style="stroke:#000000; stroke-width:12; stroke-opacity:1"/>
<line clip-path="url(#clip692)" x1="855.734" y1="981.222" x2="823.734" y2="981.222" style="stroke:#000000; stroke-width:12; stroke-opacity:1"/>
<line clip-path="url(#clip692)" x1="1063" y1="1360.39" x2="1031" y2="1360.39" style="stroke:#000000; stroke-width:12; stroke-opacity:1"/>
<line clip-path="url(#clip692)" x1="1063" y1="916.671" x2="1031" y2="916.671" style="stroke:#000000; stroke-width:12; stroke-opacity:1"/>
<line clip-path="url(#clip692)" x1="1270.26" y1="1363.19" x2="1238.26" y2="1363.19" style="stroke:#000000; stroke-width:12; stroke-opacity:1"/>
<line clip-path="url(#clip692)" x1="1270.26" y1="727.608" x2="1238.26" y2="727.608" style="stroke:#000000; stroke-width:12; stroke-opacity:1"/>
<line clip-path="url(#clip692)" x1="1477.52" y1="1389.21" x2="1445.52" y2="1389.21" style="stroke:#000000; stroke-width:12; stroke-opacity:1"/>
<line clip-path="url(#clip692)" x1="1477.52" y1="739.369" x2="1445.52" y2="739.369" style="stroke:#000000; stroke-width:12; stroke-opacity:1"/>
<line clip-path="url(#clip692)" x1="1684.79" y1="1424.67" x2="1652.79" y2="1424.67" style="stroke:#000000; stroke-width:12; stroke-opacity:1"/>
<line clip-path="url(#clip692)" x1="1684.79" y1="851.268" x2="1652.79" y2="851.268" style="stroke:#000000; stroke-width:12; stroke-opacity:1"/>
<line clip-path="url(#clip692)" x1="1892.05" y1="1440.87" x2="1860.05" y2="1440.87" style="stroke:#000000; stroke-width:12; stroke-opacity:1"/>
<line clip-path="url(#clip692)" x1="1892.05" y1="851.957" x2="1860.05" y2="851.957" style="stroke:#000000; stroke-width:12; stroke-opacity:1"/>
<line clip-path="url(#clip692)" x1="2099.31" y1="1445.72" x2="2067.31" y2="1445.72" style="stroke:#000000; stroke-width:12; stroke-opacity:1"/>
<line clip-path="url(#clip692)" x1="2099.31" y1="706.445" x2="2067.31" y2="706.445" style="stroke:#000000; stroke-width:12; stroke-opacity:1"/>
<line clip-path="url(#clip692)" x1="2306.58" y1="1442.76" x2="2274.58" y2="1442.76" style="stroke:#000000; stroke-width:12; stroke-opacity:1"/>
<line clip-path="url(#clip692)" x1="2306.58" y1="526.697" x2="2274.58" y2="526.697" style="stroke:#000000; stroke-width:12; stroke-opacity:1"/>
</svg>
