<?xml version="1.0" encoding="utf-8"?>
<svg xmlns="http://www.w3.org/2000/svg" xmlns:xlink="http://www.w3.org/1999/xlink" width="600" height="400" viewBox="0 0 2400 1600">
<defs>
  <clipPath id="clip720">
    <rect x="0" y="0" width="2400" height="1600"/>
  </clipPath>
</defs>
<path clip-path="url(#clip720)" d="M0 1600 L2400 1600 L2400 0 L0 0  Z" fill="#ffffff" fill-rule="evenodd" fill-opacity="1"/>
<defs>
  <clipPath id="clip721">
    <rect x="480" y="0" width="1681" height="1600"/>
  </clipPath>
</defs>
<path clip-path="url(#clip720)" d="M186.274 1486.45 L2352.76 1486.45 L2352.76 47.2441 L186.274 47.2441  Z" fill="#ffffff" fill-rule="evenodd" fill-opacity="1"/>
<defs>
  <clipPath id="clip722">
    <rect x="186" y="47" width="2167" height="1440"/>
  </clipPath>
</defs>
<polyline clip-path="url(#clip722)" style="stroke:#000000; stroke-linecap:round; stroke-linejoin:round; stroke-width:2; stroke-opacity:0.1; fill:none" points="247.59,1486.45 247.59,47.2441 "/>
<polyline clip-path="url(#clip722)" style="stroke:#000000; stroke-linecap:round; stroke-linejoin:round; stroke-width:2; stroke-opacity:0.1; fill:none" points="758.552,1486.45 758.552,47.2441 "/>
<polyline clip-path="url(#clip722)" style="stroke:#000000; stroke-linecap:round; stroke-linejoin:round; stroke-width:2; stroke-opacity:0.1; fill:none" points="1269.51,1486.45 1269.51,47.2441 "/>
<polyline clip-path="url(#clip722)" style="stroke:#000000; stroke-linecap:round; stroke-linejoin:round; stroke-width:2; stroke-opacity:0.1; fill:none" points="1780.48,1486.45 1780.48,47.2441 "/>
<polyline clip-path="url(#clip722)" style="stroke:#000000; stroke-linecap:round; stroke-linejoin:round; stroke-width:2; stroke-opacity:0.1; fill:none" points="2291.44,1486.45 2291.44,47.2441 "/>
<polyline clip-path="url(#clip722)" style="stroke:#000000; stroke-linecap:round; stroke-linejoin:round; stroke-width:2; stroke-opacity:0.1; fill:none" points="186.274,1400.17 2352.76,1400.17 "/>
<polyline clip-path="url(#clip722)" style="stroke:#000000; stroke-linecap:round; stroke-linejoin:round; stroke-width:2; stroke-opacity:0.1; fill:none" points="186.274,1128.22 2352.76,1128.22 "/>
<polyline clip-path="url(#clip722)" style="stroke:#000000; stroke-linecap:round; stroke-linejoin:round; stroke-width:2; stroke-opacity:0.1; fill:none" points="186.274,856.268 2352.76,856.268 "/>
<polyline clip-path="url(#clip722)" style="stroke:#000000; stroke-linecap:round; stroke-linejoin:round; stroke-width:2; stroke-opacity:0.1; fill:none" points="186.274,584.318 2352.76,584.318 "/>
<polyline clip-path="url(#clip722)" style="stroke:#000000; stroke-linecap:round; stroke-linejoin:round; stroke-width:2; stroke-opacity:0.1; fill:none" points="186.274,312.368 2352.76,312.368 "/>
<polyline clip-path="url(#clip720)" style="stroke:#000000; stroke-linecap:round; stroke-linejoin:round; stroke-width:4; stroke-opacity:1; fill:none" points="186.274,1486.45 2352.76,1486.45 "/>
<polyline clip-path="url(#clip720)" style="stroke:#000000; stroke-linecap:round; stroke-linejoin:round; stroke-width:4; stroke-opacity:1; fill:none" points="247.59,1486.45 247.59,1467.55 "/>
<polyline clip-path="url(#clip720)" style="stroke:#000000; stroke-linecap:round; stroke-linejoin:round; stroke-width:4; stroke-opacity:1; fill:none" points="758.552,1486.45 758.552,1467.55 "/>
<polyline clip-path="url(#clip720)" style="stroke:#000000; stroke-linecap:round; stroke-linejoin:round; stroke-width:4; stroke-opacity:1; fill:none" points="1269.51,1486.45 1269.51,1467.55 "/>
<polyline clip-path="url(#clip720)" style="stroke:#000000; stroke-linecap:round; stroke-linejoin:round; stroke-width:4; stroke-opacity:1; fill:none" points="1780.48,1486.45 1780.48,1467.55 "/>
<polyline clip-path="url(#clip720)" style="stroke:#000000; stroke-linecap:round; stroke-linejoin:round; stroke-width:4; stroke-opacity:1; fill:none" points="2291.44,1486.45 2291.44,1467.55 "/>
<path clip-path="url(#clip720)" d="M209.893 1517.37 Q206.282 1517.37 204.453 1520.93 Q202.648 1524.47 202.648 1531.6 Q202.648 1538.71 204.453 1542.27 Q206.282 1545.82 209.893 1545.82 Q213.527 1545.82 215.333 1542.27 Q217.161 1538.71 217.161 1531.6 Q217.161 1524.47 215.333 1520.93 Q213.527 1517.37 209.893 1517.37 M209.893 1513.66 Q215.703 1513.66 218.759 1518.27 Q221.837 1522.85 221.837 1531.6 Q221.837 1540.33 218.759 1544.94 Q215.703 1549.52 209.893 1549.52 Q204.083 1549.52 201.004 1544.94 Q197.949 1540.33 197.949 1531.6 Q197.949 1522.85 201.004 1518.27 Q204.083 1513.66 209.893 1513.66 Z" fill="#000000" fill-rule="nonzero" fill-opacity="1" /><path clip-path="url(#clip720)" d="M230.055 1542.97 L234.939 1542.97 L234.939 1548.85 L230.055 1548.85 L230.055 1542.97 Z" fill="#000000" fill-rule="nonzero" fill-opacity="1" /><path clip-path="url(#clip720)" d="M255.124 1517.37 Q251.513 1517.37 249.684 1520.93 Q247.879 1524.47 247.879 1531.6 Q247.879 1538.71 249.684 1542.27 Q251.513 1545.82 255.124 1545.82 Q258.758 1545.82 260.564 1542.27 Q262.393 1538.71 262.393 1531.6 Q262.393 1524.47 260.564 1520.93 Q258.758 1517.37 255.124 1517.37 M255.124 1513.66 Q260.934 1513.66 263.99 1518.27 Q267.069 1522.85 267.069 1531.6 Q267.069 1540.33 263.99 1544.94 Q260.934 1549.52 255.124 1549.52 Q249.314 1549.52 246.235 1544.94 Q243.18 1540.33 243.18 1531.6 Q243.18 1522.85 246.235 1518.27 Q249.314 1513.66 255.124 1513.66 Z" fill="#000000" fill-rule="nonzero" fill-opacity="1" /><path clip-path="url(#clip720)" d="M285.286 1517.37 Q281.675 1517.37 279.846 1520.93 Q278.041 1524.47 278.041 1531.6 Q278.041 1538.71 279.846 1542.27 Q281.675 1545.82 285.286 1545.82 Q288.92 1545.82 290.726 1542.27 Q292.555 1538.71 292.555 1531.6 Q292.555 1524.47 290.726 1520.93 Q288.92 1517.37 285.286 1517.37 M285.286 1513.66 Q291.096 1513.66 294.152 1518.27 Q297.23 1522.85 297.23 1531.6 Q297.23 1540.33 294.152 1544.94 Q291.096 1549.52 285.286 1549.52 Q279.476 1549.52 276.397 1544.94 Q273.342 1540.33 273.342 1531.6 Q273.342 1522.85 276.397 1518.27 Q279.476 1513.66 285.286 1513.66 Z" fill="#000000" fill-rule="nonzero" fill-opacity="1" /><path clip-path="url(#clip720)" d="M721.353 1517.37 Q717.742 1517.37 715.914 1520.93 Q714.108 1524.47 714.108 1531.6 Q714.108 1538.71 715.914 1542.27 Q717.742 1545.82 721.353 1545.82 Q724.988 1545.82 726.793 1542.27 Q728.622 1538.71 728.622 1531.6 Q728.622 1524.47 726.793 1520.93 Q724.988 1517.37 721.353 1517.37 M721.353 1513.66 Q727.164 1513.66 730.219 1518.27 Q733.298 1522.85 733.298 1531.6 Q733.298 1540.33 730.219 1544.94 Q727.164 1549.52 721.353 1549.52 Q715.543 1549.52 712.465 1544.94 Q709.409 1540.33 709.409 1531.6 Q709.409 1522.85 712.465 1518.27 Q715.543 1513.66 721.353 1513.66 Z" fill="#000000" fill-rule="nonzero" fill-opacity="1" /><path clip-path="url(#clip720)" d="M741.515 1542.97 L746.4 1542.97 L746.4 1548.85 L741.515 1548.85 L741.515 1542.97 Z" fill="#000000" fill-rule="nonzero" fill-opacity="1" /><path clip-path="url(#clip720)" d="M760.612 1544.91 L776.932 1544.91 L776.932 1548.85 L754.987 1548.85 L754.987 1544.91 Q757.649 1542.16 762.233 1537.53 Q766.839 1532.88 768.02 1531.53 Q770.265 1529.01 771.145 1527.27 Q772.048 1525.51 772.048 1523.82 Q772.048 1521.07 770.103 1519.33 Q768.182 1517.6 765.08 1517.6 Q762.881 1517.6 760.427 1518.36 Q757.997 1519.13 755.219 1520.68 L755.219 1515.95 Q758.043 1514.82 760.497 1514.24 Q762.95 1513.66 764.987 1513.66 Q770.358 1513.66 773.552 1516.35 Q776.747 1519.03 776.747 1523.52 Q776.747 1525.65 775.936 1527.57 Q775.149 1529.47 773.043 1532.07 Q772.464 1532.74 769.362 1535.95 Q766.261 1539.15 760.612 1544.91 Z" fill="#000000" fill-rule="nonzero" fill-opacity="1" /><path clip-path="url(#clip720)" d="M786.793 1514.29 L805.149 1514.29 L805.149 1518.22 L791.075 1518.22 L791.075 1526.7 Q792.094 1526.35 793.112 1526.19 Q794.131 1526 795.149 1526 Q800.936 1526 804.316 1529.17 Q807.695 1532.34 807.695 1537.76 Q807.695 1543.34 804.223 1546.44 Q800.751 1549.52 794.432 1549.52 Q792.256 1549.52 789.987 1549.15 Q787.742 1548.78 785.335 1548.04 L785.335 1543.34 Q787.418 1544.47 789.64 1545.03 Q791.862 1545.58 794.339 1545.58 Q798.344 1545.58 800.682 1543.48 Q803.02 1541.37 803.02 1537.76 Q803.02 1534.15 800.682 1532.04 Q798.344 1529.94 794.339 1529.94 Q792.464 1529.94 790.589 1530.35 Q788.737 1530.77 786.793 1531.65 L786.793 1514.29 Z" fill="#000000" fill-rule="nonzero" fill-opacity="1" /><path clip-path="url(#clip720)" d="M1231.82 1517.37 Q1228.21 1517.37 1226.38 1520.93 Q1224.57 1524.47 1224.57 1531.6 Q1224.57 1538.71 1226.38 1542.27 Q1228.21 1545.82 1231.82 1545.82 Q1235.45 1545.82 1237.26 1542.27 Q1239.09 1538.71 1239.09 1531.6 Q1239.09 1524.47 1237.26 1520.93 Q1235.45 1517.37 1231.82 1517.37 M1231.82 1513.66 Q1237.63 1513.66 1240.68 1518.27 Q1243.76 1522.85 1243.76 1531.6 Q1243.76 1540.33 1240.68 1544.94 Q1237.63 1549.52 1231.82 1549.52 Q1226.01 1549.52 1222.93 1544.94 Q1219.87 1540.33 1219.87 1531.6 Q1219.87 1522.85 1222.93 1518.27 Q1226.01 1513.66 1231.82 1513.66 Z" fill="#000000" fill-rule="nonzero" fill-opacity="1" /><path clip-path="url(#clip720)" d="M1251.98 1542.97 L1256.86 1542.97 L1256.86 1548.85 L1251.98 1548.85 L1251.98 1542.97 Z" fill="#000000" fill-rule="nonzero" fill-opacity="1" /><path clip-path="url(#clip720)" d="M1267.1 1514.29 L1285.45 1514.29 L1285.45 1518.22 L1271.38 1518.22 L1271.38 1526.7 Q1272.4 1526.35 1273.42 1526.19 Q1274.43 1526 1275.45 1526 Q1281.24 1526 1284.62 1529.17 Q1288 1532.34 1288 1537.76 Q1288 1543.34 1284.53 1546.44 Q1281.05 1549.52 1274.73 1549.52 Q1272.56 1549.52 1270.29 1549.15 Q1268.05 1548.78 1265.64 1548.04 L1265.64 1543.34 Q1267.72 1544.47 1269.94 1545.03 Q1272.17 1545.58 1274.64 1545.58 Q1278.65 1545.58 1280.98 1543.48 Q1283.32 1541.37 1283.32 1537.76 Q1283.32 1534.15 1280.98 1532.04 Q1278.65 1529.94 1274.64 1529.94 Q1272.77 1529.94 1270.89 1530.35 Q1269.04 1530.77 1267.1 1531.65 L1267.1 1514.29 Z" fill="#000000" fill-rule="nonzero" fill-opacity="1" /><path clip-path="url(#clip720)" d="M1307.21 1517.37 Q1303.6 1517.37 1301.77 1520.93 Q1299.97 1524.47 1299.97 1531.6 Q1299.97 1538.71 1301.77 1542.27 Q1303.6 1545.82 1307.21 1545.82 Q1310.85 1545.82 1312.65 1542.27 Q1314.48 1538.71 1314.48 1531.6 Q1314.48 1524.47 1312.65 1520.93 Q1310.85 1517.37 1307.21 1517.37 M1307.21 1513.66 Q1313.02 1513.66 1316.08 1518.27 Q1319.16 1522.85 1319.16 1531.6 Q1319.16 1540.33 1316.08 1544.94 Q1313.02 1549.52 1307.21 1549.52 Q1301.4 1549.52 1298.32 1544.94 Q1295.27 1540.33 1295.27 1531.6 Q1295.27 1522.85 1298.32 1518.27 Q1301.4 1513.66 1307.21 1513.66 Z" fill="#000000" fill-rule="nonzero" fill-opacity="1" /><path clip-path="url(#clip720)" d="M1743.28 1517.37 Q1739.67 1517.37 1737.84 1520.93 Q1736.03 1524.47 1736.03 1531.6 Q1736.03 1538.71 1737.84 1542.27 Q1739.67 1545.82 1743.28 1545.82 Q1746.91 1545.82 1748.72 1542.27 Q1750.55 1538.71 1750.55 1531.6 Q1750.55 1524.47 1748.72 1520.93 Q1746.91 1517.37 1743.28 1517.37 M1743.28 1513.66 Q1749.09 1513.66 1752.14 1518.27 Q1755.22 1522.85 1755.22 1531.6 Q1755.22 1540.33 1752.14 1544.94 Q1749.09 1549.52 1743.28 1549.52 Q1737.47 1549.52 1734.39 1544.94 Q1731.33 1540.33 1731.33 1531.6 Q1731.33 1522.85 1734.39 1518.27 Q1737.47 1513.66 1743.28 1513.66 Z" fill="#000000" fill-rule="nonzero" fill-opacity="1" /><path clip-path="url(#clip720)" d="M1763.44 1542.97 L1768.32 1542.97 L1768.32 1548.85 L1763.44 1548.85 L1763.44 1542.97 Z" fill="#000000" fill-rule="nonzero" fill-opacity="1" /><path clip-path="url(#clip720)" d="M1777.33 1514.29 L1799.55 1514.29 L1799.55 1516.28 L1787.01 1548.85 L1782.12 1548.85 L1793.93 1518.22 L1777.33 1518.22 L1777.33 1514.29 Z" fill="#000000" fill-rule="nonzero" fill-opacity="1" /><path clip-path="url(#clip720)" d="M1808.72 1514.29 L1827.07 1514.29 L1827.07 1518.22 L1813 1518.22 L1813 1526.7 Q1814.02 1526.35 1815.04 1526.19 Q1816.06 1526 1817.07 1526 Q1822.86 1526 1826.24 1529.17 Q1829.62 1532.34 1829.62 1537.76 Q1829.62 1543.34 1826.15 1546.44 Q1822.68 1549.52 1816.36 1549.52 Q1814.18 1549.52 1811.91 1549.15 Q1809.67 1548.78 1807.26 1548.04 L1807.26 1543.34 Q1809.34 1544.47 1811.57 1545.03 Q1813.79 1545.58 1816.26 1545.58 Q1820.27 1545.58 1822.61 1543.48 Q1824.95 1541.37 1824.95 1537.76 Q1824.95 1534.15 1822.61 1532.04 Q1820.27 1529.94 1816.26 1529.94 Q1814.39 1529.94 1812.51 1530.35 Q1810.66 1530.77 1808.72 1531.65 L1808.72 1514.29 Z" fill="#000000" fill-rule="nonzero" fill-opacity="1" /><path clip-path="url(#clip720)" d="M2243.51 1544.91 L2251.15 1544.91 L2251.15 1518.55 L2242.84 1520.21 L2242.84 1515.95 L2251.1 1514.29 L2255.78 1514.29 L2255.78 1544.91 L2263.42 1544.91 L2263.42 1548.85 L2243.51 1548.85 L2243.51 1544.91 Z" fill="#000000" fill-rule="nonzero" fill-opacity="1" /><path clip-path="url(#clip720)" d="M2272.86 1542.97 L2277.75 1542.97 L2277.75 1548.85 L2272.86 1548.85 L2272.86 1542.97 Z" fill="#000000" fill-rule="nonzero" fill-opacity="1" /><path clip-path="url(#clip720)" d="M2297.93 1517.37 Q2294.32 1517.37 2292.49 1520.93 Q2290.69 1524.47 2290.69 1531.6 Q2290.69 1538.71 2292.49 1542.27 Q2294.32 1545.82 2297.93 1545.82 Q2301.57 1545.82 2303.37 1542.27 Q2305.2 1538.71 2305.2 1531.6 Q2305.2 1524.47 2303.37 1520.93 Q2301.57 1517.37 2297.93 1517.37 M2297.93 1513.66 Q2303.74 1513.66 2306.8 1518.27 Q2309.88 1522.85 2309.88 1531.6 Q2309.88 1540.33 2306.8 1544.94 Q2303.74 1549.52 2297.93 1549.52 Q2292.12 1549.52 2289.04 1544.94 Q2285.99 1540.33 2285.99 1531.6 Q2285.99 1522.85 2289.04 1518.27 Q2292.12 1513.66 2297.93 1513.66 Z" fill="#000000" fill-rule="nonzero" fill-opacity="1" /><path clip-path="url(#clip720)" d="M2328.1 1517.37 Q2324.48 1517.37 2322.66 1520.93 Q2320.85 1524.47 2320.85 1531.6 Q2320.85 1538.71 2322.66 1542.27 Q2324.48 1545.82 2328.1 1545.82 Q2331.73 1545.82 2333.54 1542.27 Q2335.36 1538.71 2335.36 1531.6 Q2335.36 1524.47 2333.54 1520.93 Q2331.73 1517.37 2328.1 1517.37 M2328.1 1513.66 Q2333.91 1513.66 2336.96 1518.27 Q2340.04 1522.85 2340.04 1531.6 Q2340.04 1540.33 2336.96 1544.94 Q2333.91 1549.52 2328.1 1549.52 Q2322.29 1549.52 2319.21 1544.94 Q2316.15 1540.33 2316.15 1531.6 Q2316.15 1522.85 2319.21 1518.27 Q2322.29 1513.66 2328.1 1513.66 Z" fill="#000000" fill-rule="nonzero" fill-opacity="1" /><polyline clip-path="url(#clip720)" style="stroke:#000000; stroke-linecap:round; stroke-linejoin:round; stroke-width:4; stroke-opacity:1; fill:none" points="186.274,1486.45 186.274,47.2441 "/>
<polyline clip-path="url(#clip720)" style="stroke:#000000; stroke-linecap:round; stroke-linejoin:round; stroke-width:4; stroke-opacity:1; fill:none" points="186.274,1400.17 205.172,1400.17 "/>
<polyline clip-path="url(#clip720)" style="stroke:#000000; stroke-linecap:round; stroke-linejoin:round; stroke-width:4; stroke-opacity:1; fill:none" points="186.274,1128.22 205.172,1128.22 "/>
<polyline clip-path="url(#clip720)" style="stroke:#000000; stroke-linecap:round; stroke-linejoin:round; stroke-width:4; stroke-opacity:1; fill:none" points="186.274,856.268 205.172,856.268 "/>
<polyline clip-path="url(#clip720)" style="stroke:#000000; stroke-linecap:round; stroke-linejoin:round; stroke-width:4; stroke-opacity:1; fill:none" points="186.274,584.318 205.172,584.318 "/>
<polyline clip-path="url(#clip720)" style="stroke:#000000; stroke-linecap:round; stroke-linejoin:round; stroke-width:4; stroke-opacity:1; fill:none" points="186.274,312.368 205.172,312.368 "/>
<path clip-path="url(#clip720)" d="M62.9365 1385.97 Q59.3254 1385.97 57.4967 1389.53 Q55.6912 1393.07 55.6912 1400.2 Q55.6912 1407.31 57.4967 1410.87 Q59.3254 1414.42 62.9365 1414.42 Q66.5707 1414.42 68.3763 1410.87 Q70.205 1407.31 70.205 1400.2 Q70.205 1393.07 68.3763 1389.53 Q66.5707 1385.97 62.9365 1385.97 M62.9365 1382.26 Q68.7467 1382.26 71.8022 1386.87 Q74.8809 1391.45 74.8809 1400.2 Q74.8809 1408.93 71.8022 1413.54 Q68.7467 1418.12 62.9365 1418.12 Q57.1264 1418.12 54.0477 1413.54 Q50.9921 1408.93 50.9921 1400.2 Q50.9921 1391.45 54.0477 1386.87 Q57.1264 1382.26 62.9365 1382.26 Z" fill="#000000" fill-rule="nonzero" fill-opacity="1" /><path clip-path="url(#clip720)" d="M83.0984 1411.57 L87.9827 1411.57 L87.9827 1417.45 L83.0984 1417.45 L83.0984 1411.57 Z" fill="#000000" fill-rule="nonzero" fill-opacity="1" /><path clip-path="url(#clip720)" d="M98.2141 1382.89 L116.57 1382.89 L116.57 1386.82 L102.496 1386.82 L102.496 1395.3 Q103.515 1394.95 104.534 1394.79 Q105.552 1394.6 106.571 1394.6 Q112.358 1394.6 115.737 1397.77 Q119.117 1400.94 119.117 1406.36 Q119.117 1411.94 115.645 1415.04 Q112.172 1418.12 105.853 1418.12 Q103.677 1418.12 101.409 1417.75 Q99.1632 1417.38 96.7558 1416.64 L96.7558 1411.94 Q98.8391 1413.07 101.061 1413.63 Q103.284 1414.18 105.76 1414.18 Q109.765 1414.18 112.103 1412.08 Q114.441 1409.97 114.441 1406.36 Q114.441 1402.75 112.103 1400.64 Q109.765 1398.54 105.76 1398.54 Q103.885 1398.54 102.01 1398.95 Q100.159 1399.37 98.2141 1400.25 L98.2141 1382.89 Z" fill="#000000" fill-rule="nonzero" fill-opacity="1" /><path clip-path="url(#clip720)" d="M138.33 1385.97 Q134.719 1385.97 132.89 1389.53 Q131.084 1393.07 131.084 1400.2 Q131.084 1407.31 132.89 1410.87 Q134.719 1414.42 138.33 1414.42 Q141.964 1414.42 143.769 1410.87 Q145.598 1407.31 145.598 1400.2 Q145.598 1393.07 143.769 1389.53 Q141.964 1385.97 138.33 1385.97 M138.33 1382.26 Q144.14 1382.26 147.195 1386.87 Q150.274 1391.45 150.274 1400.2 Q150.274 1408.93 147.195 1413.54 Q144.14 1418.12 138.33 1418.12 Q132.519 1418.12 129.441 1413.54 Q126.385 1408.93 126.385 1400.2 Q126.385 1391.45 129.441 1386.87 Q132.519 1382.26 138.33 1382.26 Z" fill="#000000" fill-rule="nonzero" fill-opacity="1" /><path clip-path="url(#clip720)" d="M63.9319 1114.02 Q60.3208 1114.02 58.4921 1117.58 Q56.6865 1121.12 56.6865 1128.25 Q56.6865 1135.36 58.4921 1138.92 Q60.3208 1142.47 63.9319 1142.47 Q67.5661 1142.47 69.3717 1138.92 Q71.2004 1135.36 71.2004 1128.25 Q71.2004 1121.12 69.3717 1117.58 Q67.5661 1114.02 63.9319 1114.02 M63.9319 1110.31 Q69.742 1110.31 72.7976 1114.92 Q75.8763 1119.5 75.8763 1128.25 Q75.8763 1136.98 72.7976 1141.59 Q69.742 1146.17 63.9319 1146.17 Q58.1217 1146.17 55.043 1141.59 Q51.9875 1136.98 51.9875 1128.25 Q51.9875 1119.5 55.043 1114.92 Q58.1217 1110.31 63.9319 1110.31 Z" fill="#000000" fill-rule="nonzero" fill-opacity="1" /><path clip-path="url(#clip720)" d="M84.0938 1139.62 L88.978 1139.62 L88.978 1145.5 L84.0938 1145.5 L84.0938 1139.62 Z" fill="#000000" fill-rule="nonzero" fill-opacity="1" /><path clip-path="url(#clip720)" d="M97.9826 1110.94 L120.205 1110.94 L120.205 1112.93 L107.658 1145.5 L102.774 1145.5 L114.58 1114.87 L97.9826 1114.87 L97.9826 1110.94 Z" fill="#000000" fill-rule="nonzero" fill-opacity="1" /><path clip-path="url(#clip720)" d="M129.371 1110.94 L147.728 1110.94 L147.728 1114.87 L133.654 1114.87 L133.654 1123.35 Q134.672 1123 135.691 1122.84 Q136.709 1122.65 137.728 1122.65 Q143.515 1122.65 146.894 1125.82 Q150.274 1128.99 150.274 1134.41 Q150.274 1139.99 146.802 1143.09 Q143.33 1146.17 137.01 1146.17 Q134.834 1146.17 132.566 1145.8 Q130.32 1145.43 127.913 1144.69 L127.913 1139.99 Q129.996 1141.12 132.219 1141.68 Q134.441 1142.23 136.918 1142.23 Q140.922 1142.23 143.26 1140.13 Q145.598 1138.02 145.598 1134.41 Q145.598 1130.8 143.26 1128.69 Q140.922 1126.59 136.918 1126.59 Q135.043 1126.59 133.168 1127 Q131.316 1127.42 129.371 1128.3 L129.371 1110.94 Z" fill="#000000" fill-rule="nonzero" fill-opacity="1" /><path clip-path="url(#clip720)" d="M53.7467 869.613 L61.3856 869.613 L61.3856 843.247 L53.0754 844.914 L53.0754 840.654 L61.3393 838.988 L66.0152 838.988 L66.0152 869.613 L73.654 869.613 L73.654 873.548 L53.7467 873.548 L53.7467 869.613 Z" fill="#000000" fill-rule="nonzero" fill-opacity="1" /><path clip-path="url(#clip720)" d="M83.0984 867.668 L87.9827 867.668 L87.9827 873.548 L83.0984 873.548 L83.0984 867.668 Z" fill="#000000" fill-rule="nonzero" fill-opacity="1" /><path clip-path="url(#clip720)" d="M108.168 842.067 Q104.557 842.067 102.728 845.631 Q100.922 849.173 100.922 856.303 Q100.922 863.409 102.728 866.974 Q104.557 870.515 108.168 870.515 Q111.802 870.515 113.608 866.974 Q115.436 863.409 115.436 856.303 Q115.436 849.173 113.608 845.631 Q111.802 842.067 108.168 842.067 M108.168 838.363 Q113.978 838.363 117.033 842.969 Q120.112 847.553 120.112 856.303 Q120.112 865.029 117.033 869.636 Q113.978 874.219 108.168 874.219 Q102.358 874.219 99.2789 869.636 Q96.2234 865.029 96.2234 856.303 Q96.2234 847.553 99.2789 842.969 Q102.358 838.363 108.168 838.363 Z" fill="#000000" fill-rule="nonzero" fill-opacity="1" /><path clip-path="url(#clip720)" d="M138.33 842.067 Q134.719 842.067 132.89 845.631 Q131.084 849.173 131.084 856.303 Q131.084 863.409 132.89 866.974 Q134.719 870.515 138.33 870.515 Q141.964 870.515 143.769 866.974 Q145.598 863.409 145.598 856.303 Q145.598 849.173 143.769 845.631 Q141.964 842.067 138.33 842.067 M138.33 838.363 Q144.14 838.363 147.195 842.969 Q150.274 847.553 150.274 856.303 Q150.274 865.029 147.195 869.636 Q144.14 874.219 138.33 874.219 Q132.519 874.219 129.441 869.636 Q126.385 865.029 126.385 856.303 Q126.385 847.553 129.441 842.969 Q132.519 838.363 138.33 838.363 Z" fill="#000000" fill-rule="nonzero" fill-opacity="1" /><path clip-path="url(#clip720)" d="M54.7421 597.663 L62.381 597.663 L62.381 571.297 L54.0708 572.964 L54.0708 568.704 L62.3347 567.038 L67.0106 567.038 L67.0106 597.663 L74.6494 597.663 L74.6494 601.598 L54.7421 601.598 L54.7421 597.663 Z" fill="#000000" fill-rule="nonzero" fill-opacity="1" /><path clip-path="url(#clip720)" d="M84.0938 595.718 L88.978 595.718 L88.978 601.598 L84.0938 601.598 L84.0938 595.718 Z" fill="#000000" fill-rule="nonzero" fill-opacity="1" /><path clip-path="url(#clip720)" d="M103.191 597.663 L119.51 597.663 L119.51 601.598 L97.566 601.598 L97.566 597.663 Q100.228 594.908 104.811 590.278 Q109.418 585.626 110.598 584.283 Q112.844 581.76 113.723 580.024 Q114.626 578.265 114.626 576.575 Q114.626 573.82 112.682 572.084 Q110.76 570.348 107.658 570.348 Q105.459 570.348 103.006 571.112 Q100.575 571.876 97.7974 573.427 L97.7974 568.704 Q100.621 567.57 103.075 566.992 Q105.529 566.413 107.566 566.413 Q112.936 566.413 116.131 569.098 Q119.325 571.783 119.325 576.274 Q119.325 578.403 118.515 580.325 Q117.728 582.223 115.621 584.815 Q115.043 585.487 111.941 588.704 Q108.839 591.899 103.191 597.663 Z" fill="#000000" fill-rule="nonzero" fill-opacity="1" /><path clip-path="url(#clip720)" d="M129.371 567.038 L147.728 567.038 L147.728 570.973 L133.654 570.973 L133.654 579.445 Q134.672 579.098 135.691 578.936 Q136.709 578.751 137.728 578.751 Q143.515 578.751 146.894 581.922 Q150.274 585.093 150.274 590.51 Q150.274 596.089 146.802 599.19 Q143.33 602.269 137.01 602.269 Q134.834 602.269 132.566 601.899 Q130.32 601.528 127.913 600.788 L127.913 596.089 Q129.996 597.223 132.219 597.778 Q134.441 598.334 136.918 598.334 Q140.922 598.334 143.26 596.227 Q145.598 594.121 145.598 590.51 Q145.598 586.899 143.26 584.792 Q140.922 582.686 136.918 582.686 Q135.043 582.686 133.168 583.103 Q131.316 583.519 129.371 584.399 L129.371 567.038 Z" fill="#000000" fill-rule="nonzero" fill-opacity="1" /><path clip-path="url(#clip720)" d="M53.7467 325.713 L61.3856 325.713 L61.3856 299.347 L53.0754 301.014 L53.0754 296.754 L61.3393 295.088 L66.0152 295.088 L66.0152 325.713 L73.654 325.713 L73.654 329.648 L53.7467 329.648 L53.7467 325.713 Z" fill="#000000" fill-rule="nonzero" fill-opacity="1" /><path clip-path="url(#clip720)" d="M83.0984 323.768 L87.9827 323.768 L87.9827 329.648 L83.0984 329.648 L83.0984 323.768 Z" fill="#000000" fill-rule="nonzero" fill-opacity="1" /><path clip-path="url(#clip720)" d="M98.2141 295.088 L116.57 295.088 L116.57 299.023 L102.496 299.023 L102.496 307.495 Q103.515 307.148 104.534 306.986 Q105.552 306.801 106.571 306.801 Q112.358 306.801 115.737 309.972 Q119.117 313.143 119.117 318.56 Q119.117 324.139 115.645 327.24 Q112.172 330.319 105.853 330.319 Q103.677 330.319 101.409 329.949 Q99.1632 329.578 96.7558 328.838 L96.7558 324.139 Q98.8391 325.273 101.061 325.828 Q103.284 326.384 105.76 326.384 Q109.765 326.384 112.103 324.277 Q114.441 322.171 114.441 318.56 Q114.441 314.949 112.103 312.842 Q109.765 310.736 105.76 310.736 Q103.885 310.736 102.01 311.153 Q100.159 311.569 98.2141 312.449 L98.2141 295.088 Z" fill="#000000" fill-rule="nonzero" fill-opacity="1" /><path clip-path="url(#clip720)" d="M138.33 298.166 Q134.719 298.166 132.89 301.731 Q131.084 305.273 131.084 312.403 Q131.084 319.509 132.89 323.074 Q134.719 326.615 138.33 326.615 Q141.964 326.615 143.769 323.074 Q145.598 319.509 145.598 312.403 Q145.598 305.273 143.769 301.731 Q141.964 298.166 138.33 298.166 M138.33 294.463 Q144.14 294.463 147.195 299.069 Q150.274 303.653 150.274 312.403 Q150.274 321.129 147.195 325.736 Q144.14 330.319 138.33 330.319 Q132.519 330.319 129.441 325.736 Q126.385 321.129 126.385 312.403 Q126.385 303.653 129.441 299.069 Q132.519 294.463 138.33 294.463 Z" fill="#000000" fill-rule="nonzero" fill-opacity="1" /><polyline clip-path="url(#clip722)" style="stroke:#009af9; stroke-linecap:round; stroke-linejoin:round; stroke-width:12; stroke-opacity:1; fill:none" points="247.59,1400.17 451.975,1254.66 656.36,1309.6 860.745,1314.44 1065.13,1301.31 1269.51,1082.07 1473.9,1206.19 1678.29,1064.5 1882.67,1093.2 2087.06,1114.49 2291.44,1140.53 "/>
<polyline clip-path="url(#clip722)" style="stroke:#e26f46; stroke-linecap:round; stroke-linejoin:round; stroke-width:12; stroke-opacity:1; fill:none" points="247.59,1400.17 451.975,1412.29 656.36,1271.04 860.745,1213.53 1065.13,1269.37 1269.51,1258.87 1473.9,1027.5 1678.29,797.878 1882.67,637.905 2087.06,499.12 2291.44,87.9763 "/>
<polyline clip-path="url(#clip722)" style="stroke:#3da44d; stroke-linecap:round; stroke-linejoin:round; stroke-width:12; stroke-opacity:1; fill:none" points="247.59,1400.17 451.975,1367.76 656.36,1354.23 860.745,1311 1065.13,1166.85 1269.51,1124.87 1473.9,1273.07 1678.29,1115.78 1882.67,1037.24 2087.06,1002.2 2291.44,847.756 "/>
<polyline clip-path="url(#clip722)" style="stroke:#c271d2; stroke-linecap:round; stroke-linejoin:round; stroke-width:12; stroke-opacity:1; fill:none" points="247.59,1400.17 451.975,1407.63 656.36,1391.92 860.745,1348.3 1065.13,1302.37 1269.51,1292.05 1473.9,1332.48 1678.29,1275.04 1882.67,1307.48 2087.06,1373.82 2291.44,1383.79 "/>
<polyline clip-path="url(#clip722)" style="stroke:#ac8d18; stroke-linecap:round; stroke-linejoin:round; stroke-width:12; stroke-opacity:1; fill:none" points="247.59,1400.17 451.975,1445.72 656.36,1382.79 860.745,1307.88 1065.13,1233.59 1269.51,1154.15 1473.9,998.882 1678.29,957.65 1882.67,800.443 2087.06,706.45 2291.44,401.942 "/>
<polyline clip-path="url(#clip722)" style="stroke:#00a9ad; stroke-linecap:round; stroke-linejoin:round; stroke-width:12; stroke-opacity:1; fill:none" points="247.59,1400.17 451.975,1395.89 656.36,1269.91 860.745,1260.89 1065.13,1307.83 1269.51,1238.96 1473.9,1151.93 1678.29,1154.08 1882.67,1078.37 2087.06,1091.18 2291.44,1051.94 "/>
<polyline clip-path="url(#clip722)" style="stroke:#ed5d92; stroke-linecap:round; stroke-linejoin:round; stroke-width:12; stroke-opacity:1; fill:none" points="247.59,1400.17 451.975,1296.1 656.36,1218.92 860.745,1086.39 1065.13,958.694 1269.51,863.899 1473.9,706.342 1678.29,767.336 1882.67,731.185 2087.06,574.634 2291.44,481.835 "/>
<polyline clip-path="url(#clip722)" style="stroke:#c68125; stroke-linecap:round; stroke-linejoin:round; stroke-width:12; stroke-opacity:1; fill:none" points="247.59,1400.17 451.975,1409.95 656.36,1373.15 860.745,1353.61 1065.13,1212.38 1269.51,1341.09 1473.9,1248.15 1678.29,1102.09 1882.67,1099.16 2087.06,1096.7 2291.44,887.223 "/>
</svg>
