<?xml version="1.0" encoding="utf-8"?>
<svg xmlns="http://www.w3.org/2000/svg" xmlns:xlink="http://www.w3.org/1999/xlink" width="600" height="400" viewBox="0 0 2400 1600">
<defs>
  <clipPath id="clip660">
    <rect x="0" y="0" width="2400" height="1600"/>
  </clipPath>
</defs>
<path clip-path="url(#clip660)" d="M0 1600 L2400 1600 L2400 0 L0 0  Z" fill="#ffffff" fill-rule="evenodd" fill-opacity="1"/>
<defs>
  <clipPath id="clip661">
    <rect x="480" y="0" width="1681" height="1600"/>
  </clipPath>
</defs>
<path clip-path="url(#clip660)" d="M155.765 1486.45 L2352.76 1486.45 L2352.76 47.2441 L155.765 47.2441  Z" fill="#ffffff" fill-rule="evenodd" fill-opacity="1"/>
<defs>
  <clipPath id="clip662">
    <rect x="155" y="47" width="2198" height="1440"/>
  </clipPath>
</defs>
<polyline clip-path="url(#clip662)" style="stroke:#000000; stroke-linecap:round; stroke-linejoin:round; stroke-width:2; stroke-opacity:0.1; fill:none" points="217.944,1486.45 217.944,47.2441 "/>
<polyline clip-path="url(#clip662)" style="stroke:#000000; stroke-linecap:round; stroke-linejoin:round; stroke-width:2; stroke-opacity:0.1; fill:none" points="736.102,1486.45 736.102,47.2441 "/>
<polyline clip-path="url(#clip662)" style="stroke:#000000; stroke-linecap:round; stroke-linejoin:round; stroke-width:2; stroke-opacity:0.1; fill:none" points="1254.26,1486.45 1254.26,47.2441 "/>
<polyline clip-path="url(#clip662)" style="stroke:#000000; stroke-linecap:round; stroke-linejoin:round; stroke-width:2; stroke-opacity:0.1; fill:none" points="1772.42,1486.45 1772.42,47.2441 "/>
<polyline clip-path="url(#clip662)" style="stroke:#000000; stroke-linecap:round; stroke-linejoin:round; stroke-width:2; stroke-opacity:0.1; fill:none" points="2290.58,1486.45 2290.58,47.2441 "/>
<polyline clip-path="url(#clip662)" style="stroke:#000000; stroke-linecap:round; stroke-linejoin:round; stroke-width:2; stroke-opacity:0.1; fill:none" points="155.765,1307.85 2352.76,1307.85 "/>
<polyline clip-path="url(#clip662)" style="stroke:#000000; stroke-linecap:round; stroke-linejoin:round; stroke-width:2; stroke-opacity:0.1; fill:none" points="155.765,1069.11 2352.76,1069.11 "/>
<polyline clip-path="url(#clip662)" style="stroke:#000000; stroke-linecap:round; stroke-linejoin:round; stroke-width:2; stroke-opacity:0.1; fill:none" points="155.765,830.36 2352.76,830.36 "/>
<polyline clip-path="url(#clip662)" style="stroke:#000000; stroke-linecap:round; stroke-linejoin:round; stroke-width:2; stroke-opacity:0.1; fill:none" points="155.765,591.614 2352.76,591.614 "/>
<polyline clip-path="url(#clip662)" style="stroke:#000000; stroke-linecap:round; stroke-linejoin:round; stroke-width:2; stroke-opacity:0.1; fill:none" points="155.765,352.868 2352.76,352.868 "/>
<polyline clip-path="url(#clip662)" style="stroke:#000000; stroke-linecap:round; stroke-linejoin:round; stroke-width:2; stroke-opacity:0.1; fill:none" points="155.765,114.122 2352.76,114.122 "/>
<polyline clip-path="url(#clip660)" style="stroke:#000000; stroke-linecap:round; stroke-linejoin:round; stroke-width:4; stroke-opacity:1; fill:none" points="155.765,1486.45 2352.76,1486.45 "/>
<polyline clip-path="url(#clip660)" style="stroke:#000000; stroke-linecap:round; stroke-linejoin:round; stroke-width:4; stroke-opacity:1; fill:none" points="217.944,1486.45 217.944,1467.55 "/>
<polyline clip-path="url(#clip660)" style="stroke:#000000; stroke-linecap:round; stroke-linejoin:round; stroke-width:4; stroke-opacity:1; fill:none" points="736.102,1486.45 736.102,1467.55 "/>
<polyline clip-path="url(#clip660)" style="stroke:#000000; stroke-linecap:round; stroke-linejoin:round; stroke-width:4; stroke-opacity:1; fill:none" points="1254.26,1486.45 1254.26,1467.55 "/>
<polyline clip-path="url(#clip660)" style="stroke:#000000; stroke-linecap:round; stroke-linejoin:round; stroke-width:4; stroke-opacity:1; fill:none" points="1772.42,1486.45 1772.42,1467.55 "/>
<polyline clip-path="url(#clip660)" style="stroke:#000000; stroke-linecap:round; stroke-linejoin:round; stroke-width:4; stroke-opacity:1; fill:none" points="2290.58,1486.45 2290.58,1467.55 "/>
<path clip-path="url(#clip660)" d="M180.247 1517.37 Q176.636 1517.37 174.808 1520.93 Q173.002 1524.47 173.002 1531.6 Q173.002 1538.71 174.808 1542.27 Q176.636 1545.82 180.247 1545.82 Q183.882 1545.82 185.687 1542.27 Q187.516 1538.71 187.516 1531.6 Q187.516 1524.47 185.687 1520.93 Q183.882 1517.37 180.247 1517.37 M180.247 1513.66 Q186.057 1513.66 189.113 1518.27 Q192.192 1522.85 192.192 1531.6 Q192.192 1540.33 189.113 1544.94 Q186.057 1549.52 180.247 1549.52 Q174.437 1549.52 171.358 1544.94 Q168.303 1540.33 168.303 1531.6 Q168.303 1522.85 171.358 1518.27 Q174.437 1513.66 180.247 1513.66 Z" fill="#000000" fill-rule="nonzero" fill-opacity="1" /><path clip-path="url(#clip660)" d="M200.409 1542.97 L205.294 1542.97 L205.294 1548.85 L200.409 1548.85 L200.409 1542.97 Z" fill="#000000" fill-rule="nonzero" fill-opacity="1" /><path clip-path="url(#clip660)" d="M225.479 1517.37 Q221.867 1517.37 220.039 1520.93 Q218.233 1524.47 218.233 1531.6 Q218.233 1538.71 220.039 1542.27 Q221.867 1545.82 225.479 1545.82 Q229.113 1545.82 230.918 1542.27 Q232.747 1538.71 232.747 1531.6 Q232.747 1524.47 230.918 1520.93 Q229.113 1517.37 225.479 1517.37 M225.479 1513.66 Q231.289 1513.66 234.344 1518.27 Q237.423 1522.85 237.423 1531.6 Q237.423 1540.33 234.344 1544.94 Q231.289 1549.52 225.479 1549.52 Q219.668 1549.52 216.59 1544.94 Q213.534 1540.33 213.534 1531.6 Q213.534 1522.85 216.59 1518.27 Q219.668 1513.66 225.479 1513.66 Z" fill="#000000" fill-rule="nonzero" fill-opacity="1" /><path clip-path="url(#clip660)" d="M255.64 1517.37 Q252.029 1517.37 250.201 1520.93 Q248.395 1524.47 248.395 1531.6 Q248.395 1538.71 250.201 1542.27 Q252.029 1545.82 255.64 1545.82 Q259.275 1545.82 261.08 1542.27 Q262.909 1538.71 262.909 1531.6 Q262.909 1524.47 261.08 1520.93 Q259.275 1517.37 255.64 1517.37 M255.64 1513.66 Q261.451 1513.66 264.506 1518.27 Q267.585 1522.85 267.585 1531.6 Q267.585 1540.33 264.506 1544.94 Q261.451 1549.52 255.64 1549.52 Q249.83 1549.52 246.752 1544.94 Q243.696 1540.33 243.696 1531.6 Q243.696 1522.85 246.752 1518.27 Q249.83 1513.66 255.64 1513.66 Z" fill="#000000" fill-rule="nonzero" fill-opacity="1" /><path clip-path="url(#clip660)" d="M698.903 1517.37 Q695.292 1517.37 693.463 1520.93 Q691.658 1524.47 691.658 1531.6 Q691.658 1538.71 693.463 1542.27 Q695.292 1545.82 698.903 1545.82 Q702.538 1545.82 704.343 1542.27 Q706.172 1538.71 706.172 1531.6 Q706.172 1524.47 704.343 1520.93 Q702.538 1517.37 698.903 1517.37 M698.903 1513.66 Q704.713 1513.66 707.769 1518.27 Q710.848 1522.85 710.848 1531.6 Q710.848 1540.33 707.769 1544.94 Q704.713 1549.52 698.903 1549.52 Q693.093 1549.52 690.014 1544.94 Q686.959 1540.33 686.959 1531.6 Q686.959 1522.85 690.014 1518.27 Q693.093 1513.66 698.903 1513.66 Z" fill="#000000" fill-rule="nonzero" fill-opacity="1" /><path clip-path="url(#clip660)" d="M719.065 1542.97 L723.949 1542.97 L723.949 1548.85 L719.065 1548.85 L719.065 1542.97 Z" fill="#000000" fill-rule="nonzero" fill-opacity="1" /><path clip-path="url(#clip660)" d="M738.162 1544.91 L754.482 1544.91 L754.482 1548.85 L732.537 1548.85 L732.537 1544.91 Q735.199 1542.16 739.783 1537.53 Q744.389 1532.88 745.57 1531.53 Q747.815 1529.01 748.695 1527.27 Q749.597 1525.51 749.597 1523.82 Q749.597 1521.07 747.653 1519.33 Q745.732 1517.6 742.63 1517.6 Q740.431 1517.6 737.977 1518.36 Q735.547 1519.13 732.769 1520.68 L732.769 1515.95 Q735.593 1514.82 738.047 1514.24 Q740.5 1513.66 742.537 1513.66 Q747.908 1513.66 751.102 1516.35 Q754.296 1519.03 754.296 1523.52 Q754.296 1525.65 753.486 1527.57 Q752.699 1529.47 750.593 1532.07 Q750.014 1532.74 746.912 1535.95 Q743.81 1539.15 738.162 1544.91 Z" fill="#000000" fill-rule="nonzero" fill-opacity="1" /><path clip-path="url(#clip660)" d="M764.343 1514.29 L782.699 1514.29 L782.699 1518.22 L768.625 1518.22 L768.625 1526.7 Q769.644 1526.35 770.662 1526.19 Q771.681 1526 772.699 1526 Q778.486 1526 781.866 1529.17 Q785.245 1532.34 785.245 1537.76 Q785.245 1543.34 781.773 1546.44 Q778.301 1549.52 771.982 1549.52 Q769.806 1549.52 767.537 1549.15 Q765.292 1548.78 762.884 1548.04 L762.884 1543.34 Q764.968 1544.47 767.19 1545.03 Q769.412 1545.58 771.889 1545.58 Q775.894 1545.58 778.232 1543.48 Q780.57 1541.37 780.57 1537.76 Q780.57 1534.15 778.232 1532.04 Q775.894 1529.94 771.889 1529.94 Q770.014 1529.94 768.139 1530.35 Q766.287 1530.77 764.343 1531.65 L764.343 1514.29 Z" fill="#000000" fill-rule="nonzero" fill-opacity="1" /><path clip-path="url(#clip660)" d="M1216.56 1517.37 Q1212.95 1517.37 1211.12 1520.93 Q1209.32 1524.47 1209.32 1531.6 Q1209.32 1538.71 1211.12 1542.27 Q1212.95 1545.82 1216.56 1545.82 Q1220.2 1545.82 1222 1542.27 Q1223.83 1538.71 1223.83 1531.6 Q1223.83 1524.47 1222 1520.93 Q1220.2 1517.37 1216.56 1517.37 M1216.56 1513.66 Q1222.37 1513.66 1225.43 1518.27 Q1228.51 1522.85 1228.51 1531.6 Q1228.51 1540.33 1225.43 1544.94 Q1222.37 1549.52 1216.56 1549.52 Q1210.75 1549.52 1207.68 1544.94 Q1204.62 1540.33 1204.62 1531.6 Q1204.62 1522.85 1207.68 1518.27 Q1210.75 1513.66 1216.56 1513.66 Z" fill="#000000" fill-rule="nonzero" fill-opacity="1" /><path clip-path="url(#clip660)" d="M1236.73 1542.97 L1241.61 1542.97 L1241.61 1548.85 L1236.73 1548.85 L1236.73 1542.97 Z" fill="#000000" fill-rule="nonzero" fill-opacity="1" /><path clip-path="url(#clip660)" d="M1251.84 1514.29 L1270.2 1514.29 L1270.2 1518.22 L1256.12 1518.22 L1256.12 1526.7 Q1257.14 1526.35 1258.16 1526.19 Q1259.18 1526 1260.2 1526 Q1265.98 1526 1269.36 1529.17 Q1272.74 1532.34 1272.74 1537.76 Q1272.74 1543.34 1269.27 1546.44 Q1265.8 1549.52 1259.48 1549.52 Q1257.3 1549.52 1255.04 1549.15 Q1252.79 1548.78 1250.38 1548.04 L1250.38 1543.34 Q1252.47 1544.47 1254.69 1545.03 Q1256.91 1545.58 1259.39 1545.58 Q1263.39 1545.58 1265.73 1543.48 Q1268.07 1541.37 1268.07 1537.76 Q1268.07 1534.15 1265.73 1532.04 Q1263.39 1529.94 1259.39 1529.94 Q1257.51 1529.94 1255.64 1530.35 Q1253.79 1530.77 1251.84 1531.65 L1251.84 1514.29 Z" fill="#000000" fill-rule="nonzero" fill-opacity="1" /><path clip-path="url(#clip660)" d="M1291.96 1517.37 Q1288.35 1517.37 1286.52 1520.93 Q1284.71 1524.47 1284.71 1531.6 Q1284.71 1538.71 1286.52 1542.27 Q1288.35 1545.82 1291.96 1545.82 Q1295.59 1545.82 1297.4 1542.27 Q1299.23 1538.71 1299.23 1531.6 Q1299.23 1524.47 1297.4 1520.93 Q1295.59 1517.37 1291.96 1517.37 M1291.96 1513.66 Q1297.77 1513.66 1300.82 1518.27 Q1303.9 1522.85 1303.9 1531.6 Q1303.9 1540.33 1300.82 1544.94 Q1297.77 1549.52 1291.96 1549.52 Q1286.15 1549.52 1283.07 1544.94 Q1280.01 1540.33 1280.01 1531.6 Q1280.01 1522.85 1283.07 1518.27 Q1286.15 1513.66 1291.96 1513.66 Z" fill="#000000" fill-rule="nonzero" fill-opacity="1" /><path clip-path="url(#clip660)" d="M1735.22 1517.37 Q1731.61 1517.37 1729.78 1520.93 Q1727.97 1524.47 1727.97 1531.6 Q1727.97 1538.71 1729.78 1542.27 Q1731.61 1545.82 1735.22 1545.82 Q1738.85 1545.82 1740.66 1542.27 Q1742.49 1538.71 1742.49 1531.6 Q1742.49 1524.47 1740.66 1520.93 Q1738.85 1517.37 1735.22 1517.37 M1735.22 1513.66 Q1741.03 1513.66 1744.09 1518.27 Q1747.16 1522.85 1747.16 1531.6 Q1747.16 1540.33 1744.09 1544.94 Q1741.03 1549.52 1735.22 1549.52 Q1729.41 1549.52 1726.33 1544.94 Q1723.28 1540.33 1723.28 1531.6 Q1723.28 1522.85 1726.33 1518.27 Q1729.41 1513.66 1735.22 1513.66 Z" fill="#000000" fill-rule="nonzero" fill-opacity="1" /><path clip-path="url(#clip660)" d="M1755.38 1542.97 L1760.27 1542.97 L1760.27 1548.85 L1755.38 1548.85 L1755.38 1542.97 Z" fill="#000000" fill-rule="nonzero" fill-opacity="1" /><path clip-path="url(#clip660)" d="M1769.27 1514.29 L1791.49 1514.29 L1791.49 1516.28 L1778.95 1548.85 L1774.06 1548.85 L1785.87 1518.22 L1769.27 1518.22 L1769.27 1514.29 Z" fill="#000000" fill-rule="nonzero" fill-opacity="1" /><path clip-path="url(#clip660)" d="M1800.66 1514.29 L1819.02 1514.29 L1819.02 1518.22 L1804.94 1518.22 L1804.94 1526.7 Q1805.96 1526.35 1806.98 1526.19 Q1808 1526 1809.02 1526 Q1814.8 1526 1818.18 1529.17 Q1821.56 1532.34 1821.56 1537.76 Q1821.56 1543.34 1818.09 1546.44 Q1814.62 1549.52 1808.3 1549.52 Q1806.12 1549.52 1803.85 1549.15 Q1801.61 1548.78 1799.2 1548.04 L1799.2 1543.34 Q1801.28 1544.47 1803.51 1545.03 Q1805.73 1545.58 1808.21 1545.58 Q1812.21 1545.58 1814.55 1543.48 Q1816.89 1541.37 1816.89 1537.76 Q1816.89 1534.15 1814.55 1532.04 Q1812.21 1529.94 1808.21 1529.94 Q1806.33 1529.94 1804.46 1530.35 Q1802.6 1530.77 1800.66 1531.65 L1800.66 1514.29 Z" fill="#000000" fill-rule="nonzero" fill-opacity="1" /><path clip-path="url(#clip660)" d="M2242.65 1544.91 L2250.29 1544.91 L2250.29 1518.55 L2241.98 1520.21 L2241.98 1515.95 L2250.24 1514.29 L2254.92 1514.29 L2254.92 1544.91 L2262.56 1544.91 L2262.56 1548.85 L2242.65 1548.85 L2242.65 1544.91 Z" fill="#000000" fill-rule="nonzero" fill-opacity="1" /><path clip-path="url(#clip660)" d="M2272 1542.97 L2276.88 1542.97 L2276.88 1548.85 L2272 1548.85 L2272 1542.97 Z" fill="#000000" fill-rule="nonzero" fill-opacity="1" /><path clip-path="url(#clip660)" d="M2297.07 1517.37 Q2293.46 1517.37 2291.63 1520.93 Q2289.82 1524.47 2289.82 1531.6 Q2289.82 1538.71 2291.63 1542.27 Q2293.46 1545.82 2297.07 1545.82 Q2300.7 1545.82 2302.51 1542.27 Q2304.34 1538.71 2304.34 1531.6 Q2304.34 1524.47 2302.51 1520.93 Q2300.7 1517.37 2297.07 1517.37 M2297.07 1513.66 Q2302.88 1513.66 2305.94 1518.27 Q2309.01 1522.85 2309.01 1531.6 Q2309.01 1540.33 2305.94 1544.94 Q2302.88 1549.52 2297.07 1549.52 Q2291.26 1549.52 2288.18 1544.94 Q2285.13 1540.33 2285.13 1531.6 Q2285.13 1522.85 2288.18 1518.27 Q2291.26 1513.66 2297.07 1513.66 Z" fill="#000000" fill-rule="nonzero" fill-opacity="1" /><path clip-path="url(#clip660)" d="M2327.23 1517.37 Q2323.62 1517.37 2321.79 1520.93 Q2319.99 1524.47 2319.99 1531.6 Q2319.99 1538.71 2321.79 1542.27 Q2323.62 1545.82 2327.23 1545.82 Q2330.87 1545.82 2332.67 1542.27 Q2334.5 1538.71 2334.5 1531.6 Q2334.5 1524.47 2332.67 1520.93 Q2330.87 1517.37 2327.23 1517.37 M2327.23 1513.66 Q2333.04 1513.66 2336.1 1518.27 Q2339.18 1522.85 2339.18 1531.6 Q2339.18 1540.33 2336.1 1544.94 Q2333.04 1549.52 2327.23 1549.52 Q2321.42 1549.52 2318.34 1544.94 Q2315.29 1540.33 2315.29 1531.6 Q2315.29 1522.85 2318.34 1518.27 Q2321.42 1513.66 2327.23 1513.66 Z" fill="#000000" fill-rule="nonzero" fill-opacity="1" /><polyline clip-path="url(#clip660)" style="stroke:#000000; stroke-linecap:round; stroke-linejoin:round; stroke-width:4; stroke-opacity:1; fill:none" points="155.765,1486.45 155.765,47.2441 "/>
<polyline clip-path="url(#clip660)" style="stroke:#000000; stroke-linecap:round; stroke-linejoin:round; stroke-width:4; stroke-opacity:1; fill:none" points="155.765,1307.85 174.663,1307.85 "/>
<polyline clip-path="url(#clip660)" style="stroke:#000000; stroke-linecap:round; stroke-linejoin:round; stroke-width:4; stroke-opacity:1; fill:none" points="155.765,1069.11 174.663,1069.11 "/>
<polyline clip-path="url(#clip660)" style="stroke:#000000; stroke-linecap:round; stroke-linejoin:round; stroke-width:4; stroke-opacity:1; fill:none" points="155.765,830.36 174.663,830.36 "/>
<polyline clip-path="url(#clip660)" style="stroke:#000000; stroke-linecap:round; stroke-linejoin:round; stroke-width:4; stroke-opacity:1; fill:none" points="155.765,591.614 174.663,591.614 "/>
<polyline clip-path="url(#clip660)" style="stroke:#000000; stroke-linecap:round; stroke-linejoin:round; stroke-width:4; stroke-opacity:1; fill:none" points="155.765,352.868 174.663,352.868 "/>
<polyline clip-path="url(#clip660)" style="stroke:#000000; stroke-linecap:round; stroke-linejoin:round; stroke-width:4; stroke-opacity:1; fill:none" points="155.765,114.122 174.663,114.122 "/>
<path clip-path="url(#clip660)" d="M63.5847 1293.65 Q59.9736 1293.65 58.1449 1297.22 Q56.3393 1300.76 56.3393 1307.89 Q56.3393 1314.99 58.1449 1318.56 Q59.9736 1322.1 63.5847 1322.1 Q67.2189 1322.1 69.0244 1318.56 Q70.8531 1314.99 70.8531 1307.89 Q70.8531 1300.76 69.0244 1297.22 Q67.2189 1293.65 63.5847 1293.65 M63.5847 1289.95 Q69.3948 1289.95 72.4503 1294.55 Q75.529 1299.14 75.529 1307.89 Q75.529 1316.61 72.4503 1321.22 Q69.3948 1325.8 63.5847 1325.8 Q57.7745 1325.8 54.6958 1321.22 Q51.6403 1316.61 51.6403 1307.89 Q51.6403 1299.14 54.6958 1294.55 Q57.7745 1289.95 63.5847 1289.95 Z" fill="#000000" fill-rule="nonzero" fill-opacity="1" /><path clip-path="url(#clip660)" d="M83.7466 1319.25 L88.6308 1319.25 L88.6308 1325.13 L83.7466 1325.13 L83.7466 1319.25 Z" fill="#000000" fill-rule="nonzero" fill-opacity="1" /><path clip-path="url(#clip660)" d="M98.8622 1290.57 L117.219 1290.57 L117.219 1294.51 L103.145 1294.51 L103.145 1302.98 Q104.163 1302.63 105.182 1302.47 Q106.2 1302.28 107.219 1302.28 Q113.006 1302.28 116.385 1305.46 Q119.765 1308.63 119.765 1314.04 Q119.765 1319.62 116.293 1322.72 Q112.82 1325.8 106.501 1325.8 Q104.325 1325.8 102.057 1325.43 Q99.8113 1325.06 97.4039 1324.32 L97.4039 1319.62 Q99.4872 1320.76 101.709 1321.31 Q103.932 1321.87 106.408 1321.87 Q110.413 1321.87 112.751 1319.76 Q115.089 1317.65 115.089 1314.04 Q115.089 1310.43 112.751 1308.33 Q110.413 1306.22 106.408 1306.22 Q104.534 1306.22 102.659 1306.64 Q100.807 1307.05 98.8622 1307.93 L98.8622 1290.57 Z" fill="#000000" fill-rule="nonzero" fill-opacity="1" /><path clip-path="url(#clip660)" d="M53.3995 1082.45 L61.0384 1082.45 L61.0384 1056.09 L52.7282 1057.75 L52.7282 1053.49 L60.9921 1051.83 L65.668 1051.83 L65.668 1082.45 L73.3068 1082.45 L73.3068 1086.39 L53.3995 1086.39 L53.3995 1082.45 Z" fill="#000000" fill-rule="nonzero" fill-opacity="1" /><path clip-path="url(#clip660)" d="M82.7512 1080.51 L87.6354 1080.51 L87.6354 1086.39 L82.7512 1086.39 L82.7512 1080.51 Z" fill="#000000" fill-rule="nonzero" fill-opacity="1" /><path clip-path="url(#clip660)" d="M107.821 1054.9 Q104.209 1054.9 102.381 1058.47 Q100.575 1062.01 100.575 1069.14 Q100.575 1076.25 102.381 1079.81 Q104.209 1083.35 107.821 1083.35 Q111.455 1083.35 113.26 1079.81 Q115.089 1076.25 115.089 1069.14 Q115.089 1062.01 113.26 1058.47 Q111.455 1054.9 107.821 1054.9 M107.821 1051.2 Q113.631 1051.2 116.686 1055.81 Q119.765 1060.39 119.765 1069.14 Q119.765 1077.87 116.686 1082.47 Q113.631 1087.06 107.821 1087.06 Q102.01 1087.06 98.9317 1082.47 Q95.8761 1077.87 95.8761 1069.14 Q95.8761 1060.39 98.9317 1055.81 Q102.01 1051.2 107.821 1051.2 Z" fill="#000000" fill-rule="nonzero" fill-opacity="1" /><path clip-path="url(#clip660)" d="M54.3949 843.705 L62.0337 843.705 L62.0337 817.339 L53.7236 819.006 L53.7236 814.747 L61.9874 813.08 L66.6633 813.08 L66.6633 843.705 L74.3022 843.705 L74.3022 847.64 L54.3949 847.64 L54.3949 843.705 Z" fill="#000000" fill-rule="nonzero" fill-opacity="1" /><path clip-path="url(#clip660)" d="M83.7466 841.76 L88.6308 841.76 L88.6308 847.64 L83.7466 847.64 L83.7466 841.76 Z" fill="#000000" fill-rule="nonzero" fill-opacity="1" /><path clip-path="url(#clip660)" d="M98.8622 813.08 L117.219 813.08 L117.219 817.015 L103.145 817.015 L103.145 825.487 Q104.163 825.14 105.182 824.978 Q106.2 824.793 107.219 824.793 Q113.006 824.793 116.385 827.964 Q119.765 831.135 119.765 836.552 Q119.765 842.131 116.293 845.233 Q112.82 848.311 106.501 848.311 Q104.325 848.311 102.057 847.941 Q99.8113 847.571 97.4039 846.83 L97.4039 842.131 Q99.4872 843.265 101.709 843.821 Q103.932 844.376 106.408 844.376 Q110.413 844.376 112.751 842.27 Q115.089 840.163 115.089 836.552 Q115.089 832.941 112.751 830.835 Q110.413 828.728 106.408 828.728 Q104.534 828.728 102.659 829.145 Q100.807 829.561 98.8622 830.441 L98.8622 813.08 Z" fill="#000000" fill-rule="nonzero" fill-opacity="1" /><path clip-path="url(#clip660)" d="M56.6171 604.959 L72.9365 604.959 L72.9365 608.894 L50.9921 608.894 L50.9921 604.959 Q53.6541 602.204 58.2375 597.575 Q62.8439 592.922 64.0245 591.579 Q66.2698 589.056 67.1494 587.32 Q68.0522 585.561 68.0522 583.871 Q68.0522 581.117 66.1078 579.38 Q64.1865 577.644 61.0847 577.644 Q58.8856 577.644 56.4319 578.408 Q54.0014 579.172 51.2236 580.723 L51.2236 576.001 Q54.0477 574.867 56.5014 574.288 Q58.955 573.709 60.9921 573.709 Q66.3624 573.709 69.5568 576.394 Q72.7513 579.079 72.7513 583.57 Q72.7513 585.7 71.9411 587.621 Q71.1541 589.519 69.0476 592.112 Q68.4689 592.783 65.367 596.001 Q62.2652 599.195 56.6171 604.959 Z" fill="#000000" fill-rule="nonzero" fill-opacity="1" /><path clip-path="url(#clip660)" d="M82.7512 603.015 L87.6354 603.015 L87.6354 608.894 L82.7512 608.894 L82.7512 603.015 Z" fill="#000000" fill-rule="nonzero" fill-opacity="1" /><path clip-path="url(#clip660)" d="M107.821 577.413 Q104.209 577.413 102.381 580.978 Q100.575 584.519 100.575 591.649 Q100.575 598.755 102.381 602.32 Q104.209 605.862 107.821 605.862 Q111.455 605.862 113.26 602.32 Q115.089 598.755 115.089 591.649 Q115.089 584.519 113.26 580.978 Q111.455 577.413 107.821 577.413 M107.821 573.709 Q113.631 573.709 116.686 578.316 Q119.765 582.899 119.765 591.649 Q119.765 600.376 116.686 604.982 Q113.631 609.565 107.821 609.565 Q102.01 609.565 98.9317 604.982 Q95.8761 600.376 95.8761 591.649 Q95.8761 582.899 98.9317 578.316 Q102.01 573.709 107.821 573.709 Z" fill="#000000" fill-rule="nonzero" fill-opacity="1" /><path clip-path="url(#clip660)" d="M57.6125 366.213 L73.9318 366.213 L73.9318 370.148 L51.9875 370.148 L51.9875 366.213 Q54.6495 363.459 59.2328 358.829 Q63.8393 354.176 65.0198 352.834 Q67.2652 350.31 68.1448 348.574 Q69.0476 346.815 69.0476 345.125 Q69.0476 342.371 67.1032 340.635 Q65.1819 338.898 62.08 338.898 Q59.881 338.898 57.4273 339.662 Q54.9967 340.426 52.219 341.977 L52.219 337.255 Q55.043 336.121 57.4967 335.542 Q59.9504 334.963 61.9874 334.963 Q67.3578 334.963 70.5522 337.648 Q73.7466 340.334 73.7466 344.824 Q73.7466 346.954 72.9365 348.875 Q72.1494 350.773 70.0429 353.366 Q69.4642 354.037 66.3624 357.255 Q63.2606 360.449 57.6125 366.213 Z" fill="#000000" fill-rule="nonzero" fill-opacity="1" /><path clip-path="url(#clip660)" d="M83.7466 364.269 L88.6308 364.269 L88.6308 370.148 L83.7466 370.148 L83.7466 364.269 Z" fill="#000000" fill-rule="nonzero" fill-opacity="1" /><path clip-path="url(#clip660)" d="M98.8622 335.588 L117.219 335.588 L117.219 339.523 L103.145 339.523 L103.145 347.996 Q104.163 347.648 105.182 347.486 Q106.2 347.301 107.219 347.301 Q113.006 347.301 116.385 350.472 Q119.765 353.644 119.765 359.06 Q119.765 364.639 116.293 367.741 Q112.82 370.82 106.501 370.82 Q104.325 370.82 102.057 370.449 Q99.8113 370.079 97.4039 369.338 L97.4039 364.639 Q99.4872 365.773 101.709 366.329 Q103.932 366.884 106.408 366.884 Q110.413 366.884 112.751 364.778 Q115.089 362.671 115.089 359.06 Q115.089 355.449 112.751 353.343 Q110.413 351.236 106.408 351.236 Q104.534 351.236 102.659 351.653 Q100.807 352.07 98.8622 352.949 L98.8622 335.588 Z" fill="#000000" fill-rule="nonzero" fill-opacity="1" /><path clip-path="url(#clip660)" d="M66.7559 112.768 Q70.1124 113.486 71.9874 115.754 Q73.8855 118.023 73.8855 121.356 Q73.8855 126.472 70.367 129.273 Q66.8485 132.074 60.3671 132.074 Q58.1912 132.074 55.8764 131.634 Q53.5847 131.217 51.131 130.361 L51.131 125.847 Q53.0754 126.981 55.3903 127.56 Q57.7051 128.139 60.2282 128.139 Q64.6263 128.139 66.918 126.402 Q69.2328 124.666 69.2328 121.356 Q69.2328 118.301 67.08 116.588 Q64.9504 114.852 61.131 114.852 L57.1032 114.852 L57.1032 111.009 L61.3161 111.009 Q64.7652 111.009 66.5939 109.643 Q68.4226 108.254 68.4226 105.662 Q68.4226 103 66.5245 101.588 Q64.6495 100.153 61.131 100.153 Q59.2097 100.153 57.0106 100.569 Q54.8115 100.986 52.1727 101.866 L52.1727 97.6989 Q54.8347 96.9582 57.1495 96.5878 Q59.4875 96.2174 61.5476 96.2174 Q66.8717 96.2174 69.9735 98.648 Q73.0753 101.055 73.0753 105.176 Q73.0753 108.046 71.4318 110.037 Q69.7883 112.004 66.7559 112.768 Z" fill="#000000" fill-rule="nonzero" fill-opacity="1" /><path clip-path="url(#clip660)" d="M82.7512 125.523 L87.6354 125.523 L87.6354 131.402 L82.7512 131.402 L82.7512 125.523 Z" fill="#000000" fill-rule="nonzero" fill-opacity="1" /><path clip-path="url(#clip660)" d="M107.821 99.9211 Q104.209 99.9211 102.381 103.486 Q100.575 107.028 100.575 114.157 Q100.575 121.264 102.381 124.828 Q104.209 128.37 107.821 128.37 Q111.455 128.37 113.26 124.828 Q115.089 121.264 115.089 114.157 Q115.089 107.028 113.26 103.486 Q111.455 99.9211 107.821 99.9211 M107.821 96.2174 Q113.631 96.2174 116.686 100.824 Q119.765 105.407 119.765 114.157 Q119.765 122.884 116.686 127.49 Q113.631 132.074 107.821 132.074 Q102.01 132.074 98.9317 127.49 Q95.8761 122.884 95.8761 114.157 Q95.8761 105.407 98.9317 100.824 Q102.01 96.2174 107.821 96.2174 Z" fill="#000000" fill-rule="nonzero" fill-opacity="1" /><path clip-path="url(#clip662)" d="M217.944 1307.85 L425.207 1373.32 L632.47 1365.87 L839.734 1371.71 L1047 1384.61 L1254.26 1391.02 L1461.52 1399.13 L1668.79 1405.52 L1876.05 1429.32 L2083.31 1445.72 L2290.58 1442.15 L2290.58 87.9763 L2083.31 230.055 L1876.05 378.814 L1668.79 487.099 L1461.52 585.174 L1254.26 689.2 L1047 929.991 L839.734 1073.24 L632.47 1118.45 L425.207 1204.82 L217.944 1307.85  Z" fill="#009af9" fill-rule="evenodd" fill-opacity="0.2"/>
<polyline clip-path="url(#clip662)" style="stroke:#009af9; stroke-linecap:round; stroke-linejoin:round; stroke-width:12; stroke-opacity:1; fill:none" points="217.944,1307.85 425.207,1293.62 632.47,1287.69 839.734,1268.71 1047,1205.43 1254.26,1187.01 1461.52,1252.06 1668.79,1183.02 1876.05,1148.55 2083.31,1133.16 2290.58,1065.37 "/>
</svg>
