<?xml version="1.0" encoding="utf-8"?>
<svg xmlns="http://www.w3.org/2000/svg" xmlns:xlink="http://www.w3.org/1999/xlink" width="600" height="400" viewBox="0 0 2400 1600">
<defs>
  <clipPath id="clip680">
    <rect x="0" y="0" width="2400" height="1600"/>
  </clipPath>
</defs>
<path clip-path="url(#clip680)" d="M0 1600 L2400 1600 L2400 0 L0 0  Z" fill="#ffffff" fill-rule="evenodd" fill-opacity="1"/>
<defs>
  <clipPath id="clip681">
    <rect x="186" y="47" width="2167" height="1440"/>
  </clipPath>
</defs>
<path clip-path="url(#clip680)" d="M186.274 1486.45 L2352.76 1486.45 L2352.76 47.2441 L186.274 47.2441  Z" fill="#ffffff" fill-rule="evenodd" fill-opacity="1"/>
<polyline clip-path="url(#clip681)" style="stroke:#000000; stroke-linecap:round; stroke-linejoin:round; stroke-width:2; stroke-opacity:0.1; fill:none" points="247.59,1486.45 247.59,47.2441 "/>
<polyline clip-path="url(#clip681)" style="stroke:#000000; stroke-linecap:round; stroke-linejoin:round; stroke-width:2; stroke-opacity:0.1; fill:none" points="758.552,1486.45 758.552,47.2441 "/>
<polyline clip-path="url(#clip681)" style="stroke:#000000; stroke-linecap:round; stroke-linejoin:round; stroke-width:2; stroke-opacity:0.1; fill:none" points="1269.51,1486.45 1269.51,47.2441 "/>
<polyline clip-path="url(#clip681)" style="stroke:#000000; stroke-linecap:round; stroke-linejoin:round; stroke-width:2; stroke-opacity:0.1; fill:none" points="1780.48,1486.45 1780.48,47.2441 "/>
<polyline clip-path="url(#clip681)" style="stroke:#000000; stroke-linecap:round; stroke-linejoin:round; stroke-width:2; stroke-opacity:0.1; fill:none" points="2291.44,1486.45 2291.44,47.2441 "/>
<polyline clip-path="url(#clip681)" style="stroke:#000000; stroke-linecap:round; stroke-linejoin:round; stroke-width:2; stroke-opacity:0.1; fill:none" points="186.274,1349.08 2352.76,1349.08 "/>
<polyline clip-path="url(#clip681)" style="stroke:#000000; stroke-linecap:round; stroke-linejoin:round; stroke-width:2; stroke-opacity:0.1; fill:none" points="186.274,1034.51 2352.76,1034.51 "/>
<polyline clip-path="url(#clip681)" style="stroke:#000000; stroke-linecap:round; stroke-linejoin:round; stroke-width:2; stroke-opacity:0.1; fill:none" points="186.274,719.947 2352.76,719.947 "/>
<polyline clip-path="url(#clip681)" style="stroke:#000000; stroke-linecap:round; stroke-linejoin:round; stroke-width:2; stroke-opacity:0.1; fill:none" points="186.274,405.38 2352.76,405.38 "/>
<polyline clip-path="url(#clip681)" style="stroke:#000000; stroke-linecap:round; stroke-linejoin:round; stroke-width:2; stroke-opacity:0.1; fill:none" points="186.274,90.8132 2352.76,90.8132 "/>
<polyline clip-path="url(#clip680)" style="stroke:#000000; stroke-linecap:round; stroke-linejoin:round; stroke-width:4; stroke-opacity:1; fill:none" points="186.274,1486.45 2352.76,1486.45 "/>
<polyline clip-path="url(#clip680)" style="stroke:#000000; stroke-linecap:round; stroke-linejoin:round; stroke-width:4; stroke-opacity:1; fill:none" points="247.59,1486.45 247.59,1467.55 "/>
<polyline clip-path="url(#clip680)" style="stroke:#000000; stroke-linecap:round; stroke-linejoin:round; stroke-width:4; stroke-opacity:1; fill:none" points="758.552,1486.45 758.552,1467.55 "/>
<polyline clip-path="url(#clip680)" style="stroke:#000000; stroke-linecap:round; stroke-linejoin:round; stroke-width:4; stroke-opacity:1; fill:none" points="1269.51,1486.45 1269.51,1467.55 "/>
<polyline clip-path="url(#clip680)" style="stroke:#000000; stroke-linecap:round; stroke-linejoin:round; stroke-width:4; stroke-opacity:1; fill:none" points="1780.48,1486.45 1780.48,1467.55 "/>
<polyline clip-path="url(#clip680)" style="stroke:#000000; stroke-linecap:round; stroke-linejoin:round; stroke-width:4; stroke-opacity:1; fill:none" points="2291.44,1486.45 2291.44,1467.55 "/>
<path clip-path="url(#clip680)" d="M209.893 1517.37 Q206.282 1517.37 204.453 1520.93 Q202.648 1524.47 202.648 1531.6 Q202.648 1538.71 204.453 1542.27 Q206.282 1545.82 209.893 1545.82 Q213.527 1545.82 215.333 1542.27 Q217.161 1538.71 217.161 1531.6 Q217.161 1524.47 215.333 1520.93 Q213.527 1517.37 209.893 1517.37 M209.893 1513.66 Q215.703 1513.66 218.759 1518.27 Q221.837 1522.85 221.837 1531.6 Q221.837 1540.33 218.759 1544.94 Q215.703 1549.52 209.893 1549.52 Q204.083 1549.52 201.004 1544.94 Q197.949 1540.33 197.949 1531.6 Q197.949 1522.85 201.004 1518.27 Q204.083 1513.66 209.893 1513.66 Z" fill="#000000" fill-rule="nonzero" fill-opacity="1" /><path clip-path="url(#clip680)" d="M230.055 1542.97 L234.939 1542.97 L234.939 1548.85 L230.055 1548.85 L230.055 1542.97 Z" fill="#000000" fill-rule="nonzero" fill-opacity="1" /><path clip-path="url(#clip680)" d="M255.124 1517.37 Q251.513 1517.37 249.684 1520.93 Q247.879 1524.47 247.879 1531.6 Q247.879 1538.71 249.684 1542.27 Q251.513 1545.82 255.124 1545.82 Q258.758 1545.82 260.564 1542.27 Q262.393 1538.71 262.393 1531.6 Q262.393 1524.47 260.564 1520.93 Q258.758 1517.37 255.124 1517.37 M255.124 1513.66 Q260.934 1513.66 263.99 1518.27 Q267.069 1522.85 267.069 1531.6 Q267.069 1540.33 263.99 1544.94 Q260.934 1549.52 255.124 1549.52 Q249.314 1549.52 246.235 1544.94 Q243.18 1540.33 243.18 1531.6 Q243.18 1522.85 246.235 1518.27 Q249.314 1513.66 255.124 1513.66 Z" fill="#000000" fill-rule="nonzero" fill-opacity="1" /><path clip-path="url(#clip680)" d="M285.286 1517.37 Q281.675 1517.37 279.846 1520.93 Q278.041 1524.47 278.041 1531.6 Q278.041 1538.71 279.846 1542.27 Q281.675 1545.82 285.286 1545.82 Q288.92 1545.82 290.726 1542.27 Q292.555 1538.71 292.555 1531.6 Q292.555 1524.47 290.726 1520.93 Q288.92 1517.37 285.286 1517.37 M285.286 1513.66 Q291.096 1513.66 294.152 1518.27 Q297.23 1522.85 297.23 1531.6 Q297.23 1540.33 294.152 1544.94 Q291.096 1549.52 285.286 1549.52 Q279.476 1549.52 276.397 1544.94 Q273.342 1540.33 273.342 1531.6 Q273.342 1522.85 276.397 1518.27 Q279.476 1513.66 285.286 1513.66 Z" fill="#000000" fill-rule="nonzero" fill-opacity="1" /><path clip-path="url(#clip680)" d="M721.353 1517.37 Q717.742 1517.37 715.914 1520.93 Q714.108 1524.47 714.108 1531.6 Q714.108 1538.71 715.914 1542.27 Q717.742 1545.82 721.353 1545.82 Q724.988 1545.82 726.793 1542.27 Q728.622 1538.71 728.622 1531.6 Q728.622 1524.47 726.793 1520.93 Q724.988 1517.37 721.353 1517.37 M721.353 1513.66 Q727.164 1513.66 730.219 1518.27 Q733.298 1522.85 733.298 1531.6 Q733.298 1540.33 730.219 1544.94 Q727.164 1549.52 721.353 1549.52 Q715.543 1549.52 712.465 1544.94 Q709.409 1540.33 709.409 1531.6 Q709.409 1522.85 712.465 1518.27 Q715.543 1513.66 721.353 1513.66 Z" fill="#000000" fill-rule="nonzero" fill-opacity="1" /><path clip-path="url(#clip680)" d="M741.515 1542.97 L746.4 1542.97 L746.4 1548.85 L741.515 1548.85 L741.515 1542.97 Z" fill="#000000" fill-rule="nonzero" fill-opacity="1" /><path clip-path="url(#clip680)" d="M760.612 1544.91 L776.932 1544.91 L776.932 1548.85 L754.987 1548.85 L754.987 1544.91 Q757.649 1542.16 762.233 1537.53 Q766.839 1532.88 768.02 1531.53 Q770.265 1529.01 771.145 1527.27 Q772.048 1525.51 772.048 1523.82 Q772.048 1521.07 770.103 1519.33 Q768.182 1517.6 765.08 1517.6 Q762.881 1517.6 760.427 1518.36 Q757.997 1519.13 755.219 1520.68 L755.219 1515.95 Q758.043 1514.82 760.497 1514.24 Q762.95 1513.66 764.987 1513.66 Q770.358 1513.66 773.552 1516.35 Q776.747 1519.03 776.747 1523.52 Q776.747 1525.65 775.936 1527.57 Q775.149 1529.47 773.043 1532.07 Q772.464 1532.74 769.362 1535.95 Q766.261 1539.15 760.612 1544.91 Z" fill="#000000" fill-rule="nonzero" fill-opacity="1" /><path clip-path="url(#clip680)" d="M786.793 1514.29 L805.149 1514.29 L805.149 1518.22 L791.075 1518.22 L791.075 1526.7 Q792.094 1526.35 793.112 1526.19 Q794.131 1526 795.149 1526 Q800.936 1526 804.316 1529.17 Q807.695 1532.34 807.695 1537.76 Q807.695 1543.34 804.223 1546.44 Q800.751 1549.52 794.432 1549.52 Q792.256 1549.52 789.987 1549.15 Q787.742 1548.78 785.335 1548.04 L785.335 1543.34 Q787.418 1544.47 789.64 1545.03 Q791.862 1545.58 794.339 1545.58 Q798.344 1545.58 800.682 1543.48 Q803.02 1541.37 803.02 1537.76 Q803.02 1534.15 800.682 1532.04 Q798.344 1529.94 794.339 1529.94 Q792.464 1529.94 790.589 1530.35 Q788.737 1530.77 786.793 1531.65 L786.793 1514.29 Z" fill="#000000" fill-rule="nonzero" fill-opacity="1" /><path clip-path="url(#clip680)" d="M1231.82 1517.37 Q1228.21 1517.37 1226.38 1520.93 Q1224.57 1524.47 1224.57 1531.6 Q1224.57 1538.71 1226.38 1542.27 Q1228.21 1545.82 1231.82 1545.82 Q1235.45 1545.82 1237.26 1542.27 Q1239.09 1538.71 1239.09 1531.6 Q1239.09 1524.47 1237.26 1520.93 Q1235.45 1517.37 1231.82 1517.37 M1231.82 1513.66 Q1237.63 1513.66 1240.68 1518.27 Q1243.76 1522.85 1243.76 1531.6 Q1243.76 1540.33 1240.68 1544.94 Q1237.63 1549.52 1231.82 1549.52 Q1226.01 1549.52 1222.93 1544.94 Q1219.87 1540.33 1219.87 1531.6 Q1219.87 1522.85 1222.93 1518.27 Q1226.01 1513.66 1231.82 1513.66 Z" fill="#000000" fill-rule="nonzero" fill-opacity="1" /><path clip-path="url(#clip680)" d="M1251.98 1542.97 L1256.86 1542.97 L1256.86 1548.85 L1251.98 1548.85 L1251.98 1542.97 Z" fill="#000000" fill-rule="nonzero" fill-opacity="1" /><path clip-path="url(#clip680)" d="M1267.1 1514.29 L1285.45 1514.29 L1285.45 1518.22 L1271.38 1518.22 L1271.38 1526.7 Q1272.4 1526.35 1273.42 1526.19 Q1274.43 1526 1275.45 1526 Q1281.24 1526 1284.62 1529.17 Q1288 1532.34 1288 1537.76 Q1288 1543.34 1284.53 1546.44 Q1281.05 1549.52 1274.73 1549.52 Q1272.56 1549.52 1270.29 1549.15 Q1268.05 1548.78 1265.64 1548.04 L1265.64 1543.34 Q1267.72 1544.47 1269.94 1545.03 Q1272.17 1545.58 1274.64 1545.58 Q1278.65 1545.58 1280.98 1543.48 Q1283.32 1541.37 1283.32 1537.76 Q1283.32 1534.15 1280.98 1532.04 Q1278.65 1529.94 1274.64 1529.94 Q1272.77 1529.94 1270.89 1530.35 Q1269.04 1530.77 1267.1 1531.65 L1267.1 1514.29 Z" fill="#000000" fill-rule="nonzero" fill-opacity="1" /><path clip-path="url(#clip680)" d="M1307.21 1517.37 Q1303.6 1517.37 1301.77 1520.93 Q1299.97 1524.47 1299.97 1531.6 Q1299.97 1538.71 1301.77 1542.27 Q1303.6 1545.82 1307.21 1545.82 Q1310.85 1545.82 1312.65 1542.27 Q1314.48 1538.71 1314.48 1531.6 Q1314.48 1524.47 1312.65 1520.93 Q1310.85 1517.37 1307.21 1517.37 M1307.21 1513.66 Q1313.02 1513.66 1316.08 1518.27 Q1319.16 1522.85 1319.16 1531.6 Q1319.16 1540.33 1316.08 1544.94 Q1313.02 1549.52 1307.21 1549.52 Q1301.4 1549.52 1298.32 1544.94 Q1295.27 1540.33 1295.27 1531.6 Q1295.27 1522.85 1298.32 1518.27 Q1301.4 1513.66 1307.21 1513.66 Z" fill="#000000" fill-rule="nonzero" fill-opacity="1" /><path clip-path="url(#clip680)" d="M1743.28 1517.37 Q1739.67 1517.37 1737.84 1520.93 Q1736.03 1524.47 1736.03 1531.6 Q1736.03 1538.71 1737.84 1542.27 Q1739.67 1545.82 1743.28 1545.82 Q1746.91 1545.82 1748.72 1542.27 Q1750.55 1538.71 1750.55 1531.6 Q1750.55 1524.47 1748.72 1520.93 Q1746.91 1517.37 1743.28 1517.37 M1743.28 1513.66 Q1749.09 1513.66 1752.14 1518.27 Q1755.22 1522.85 1755.22 1531.6 Q1755.22 1540.33 1752.14 1544.94 Q1749.09 1549.52 1743.28 1549.52 Q1737.47 1549.52 1734.39 1544.94 Q1731.33 1540.33 1731.33 1531.6 Q1731.33 1522.85 1734.39 1518.27 Q1737.47 1513.66 1743.28 1513.66 Z" fill="#000000" fill-rule="nonzero" fill-opacity="1" /><path clip-path="url(#clip680)" d="M1763.44 1542.97 L1768.32 1542.97 L1768.32 1548.85 L1763.44 1548.85 L1763.44 1542.97 Z" fill="#000000" fill-rule="nonzero" fill-opacity="1" /><path clip-path="url(#clip680)" d="M1777.33 1514.29 L1799.55 1514.29 L1799.55 1516.28 L1787.01 1548.85 L1782.12 1548.85 L1793.93 1518.22 L1777.33 1518.22 L1777.33 1514.29 Z" fill="#000000" fill-rule="nonzero" fill-opacity="1" /><path clip-path="url(#clip680)" d="M1808.72 1514.29 L1827.07 1514.29 L1827.07 1518.22 L1813 1518.22 L1813 1526.7 Q1814.02 1526.35 1815.04 1526.19 Q1816.06 1526 1817.07 1526 Q1822.86 1526 1826.24 1529.17 Q1829.62 1532.34 1829.62 1537.76 Q1829.62 1543.34 1826.15 1546.44 Q1822.68 1549.52 1816.36 1549.52 Q1814.18 1549.52 1811.91 1549.15 Q1809.67 1548.78 1807.26 1548.04 L1807.26 1543.34 Q1809.34 1544.47 1811.57 1545.03 Q1813.79 1545.58 1816.26 1545.58 Q1820.27 1545.58 1822.61 1543.48 Q1824.95 1541.37 1824.95 1537.76 Q1824.95 1534.15 1822.61 1532.04 Q1820.27 1529.94 1816.26 1529.94 Q1814.39 1529.94 1812.51 1530.35 Q1810.66 1530.77 1808.72 1531.65 L1808.72 1514.29 Z" fill="#000000" fill-rule="nonzero" fill-opacity="1" /><path clip-path="url(#clip680)" d="M2243.51 1544.91 L2251.15 1544.91 L2251.15 1518.55 L2242.84 1520.21 L2242.84 1515.95 L2251.1 1514.29 L2255.78 1514.29 L2255.78 1544.91 L2263.42 1544.91 L2263.42 1548.85 L2243.51 1548.85 L2243.51 1544.91 Z" fill="#000000" fill-rule="nonzero" fill-opacity="1" /><path clip-path="url(#clip680)" d="M2272.86 1542.97 L2277.75 1542.97 L2277.75 1548.85 L2272.86 1548.85 L2272.86 1542.97 Z" fill="#000000" fill-rule="nonzero" fill-opacity="1" /><path clip-path="url(#clip680)" d="M2297.93 1517.37 Q2294.32 1517.37 2292.49 1520.93 Q2290.69 1524.47 2290.69 1531.6 Q2290.69 1538.71 2292.49 1542.27 Q2294.32 1545.82 2297.93 1545.82 Q2301.57 1545.82 2303.37 1542.27 Q2305.2 1538.71 2305.2 1531.6 Q2305.2 1524.47 2303.37 1520.93 Q2301.57 1517.37 2297.93 1517.37 M2297.93 1513.66 Q2303.74 1513.66 2306.8 1518.27 Q2309.88 1522.85 2309.88 1531.6 Q2309.88 1540.33 2306.8 1544.94 Q2303.74 1549.52 2297.93 1549.52 Q2292.12 1549.52 2289.04 1544.94 Q2285.99 1540.33 2285.99 1531.6 Q2285.99 1522.85 2289.04 1518.27 Q2292.12 1513.66 2297.93 1513.66 Z" fill="#000000" fill-rule="nonzero" fill-opacity="1" /><path clip-path="url(#clip680)" d="M2328.1 1517.37 Q2324.48 1517.37 2322.66 1520.93 Q2320.85 1524.47 2320.85 1531.6 Q2320.85 1538.71 2322.66 1542.27 Q2324.48 1545.82 2328.1 1545.82 Q2331.73 1545.82 2333.54 1542.27 Q2335.36 1538.71 2335.36 1531.6 Q2335.36 1524.47 2333.54 1520.93 Q2331.73 1517.37 2328.1 1517.37 M2328.1 1513.66 Q2333.91 1513.66 2336.96 1518.27 Q2340.04 1522.85 2340.04 1531.6 Q2340.04 1540.33 2336.96 1544.94 Q2333.91 1549.52 2328.1 1549.52 Q2322.29 1549.52 2319.21 1544.94 Q2316.15 1540.33 2316.15 1531.6 Q2316.15 1522.85 2319.21 1518.27 Q2322.29 1513.66 2328.1 1513.66 Z" fill="#000000" fill-rule="nonzero" fill-opacity="1" /><polyline clip-path="url(#clip680)" style="stroke:#000000; stroke-linecap:round; stroke-linejoin:round; stroke-width:4; stroke-opacity:1; fill:none" points="186.274,1486.45 186.274,47.2441 "/>
<polyline clip-path="url(#clip680)" style="stroke:#000000; stroke-linecap:round; stroke-linejoin:round; stroke-width:4; stroke-opacity:1; fill:none" points="186.274,1349.08 205.172,1349.08 "/>
<polyline clip-path="url(#clip680)" style="stroke:#000000; stroke-linecap:round; stroke-linejoin:round; stroke-width:4; stroke-opacity:1; fill:none" points="186.274,1034.51 205.172,1034.51 "/>
<polyline clip-path="url(#clip680)" style="stroke:#000000; stroke-linecap:round; stroke-linejoin:round; stroke-width:4; stroke-opacity:1; fill:none" points="186.274,719.947 205.172,719.947 "/>
<polyline clip-path="url(#clip680)" style="stroke:#000000; stroke-linecap:round; stroke-linejoin:round; stroke-width:4; stroke-opacity:1; fill:none" points="186.274,405.38 205.172,405.38 "/>
<polyline clip-path="url(#clip680)" style="stroke:#000000; stroke-linecap:round; stroke-linejoin:round; stroke-width:4; stroke-opacity:1; fill:none" points="186.274,90.8132 205.172,90.8132 "/>
<path clip-path="url(#clip680)" d="M62.9365 1334.88 Q59.3254 1334.88 57.4967 1338.44 Q55.6912 1341.99 55.6912 1349.11 Q55.6912 1356.22 57.4967 1359.79 Q59.3254 1363.33 62.9365 1363.33 Q66.5707 1363.33 68.3763 1359.79 Q70.205 1356.22 70.205 1349.11 Q70.205 1341.99 68.3763 1338.44 Q66.5707 1334.88 62.9365 1334.88 M62.9365 1331.17 Q68.7467 1331.17 71.8022 1335.78 Q74.8809 1340.36 74.8809 1349.11 Q74.8809 1357.84 71.8022 1362.45 Q68.7467 1367.03 62.9365 1367.03 Q57.1264 1367.03 54.0477 1362.45 Q50.9921 1357.84 50.9921 1349.11 Q50.9921 1340.36 54.0477 1335.78 Q57.1264 1331.17 62.9365 1331.17 Z" fill="#000000" fill-rule="nonzero" fill-opacity="1" /><path clip-path="url(#clip680)" d="M83.0984 1360.48 L87.9827 1360.48 L87.9827 1366.36 L83.0984 1366.36 L83.0984 1360.48 Z" fill="#000000" fill-rule="nonzero" fill-opacity="1" /><path clip-path="url(#clip680)" d="M98.2141 1331.8 L116.57 1331.8 L116.57 1335.74 L102.496 1335.74 L102.496 1344.21 Q103.515 1343.86 104.534 1343.7 Q105.552 1343.51 106.571 1343.51 Q112.358 1343.51 115.737 1346.68 Q119.117 1349.86 119.117 1355.27 Q119.117 1360.85 115.645 1363.95 Q112.172 1367.03 105.853 1367.03 Q103.677 1367.03 101.409 1366.66 Q99.1632 1366.29 96.7558 1365.55 L96.7558 1360.85 Q98.8391 1361.98 101.061 1362.54 Q103.284 1363.1 105.76 1363.1 Q109.765 1363.1 112.103 1360.99 Q114.441 1358.88 114.441 1355.27 Q114.441 1351.66 112.103 1349.55 Q109.765 1347.45 105.76 1347.45 Q103.885 1347.45 102.01 1347.86 Q100.159 1348.28 98.2141 1349.16 L98.2141 1331.8 Z" fill="#000000" fill-rule="nonzero" fill-opacity="1" /><path clip-path="url(#clip680)" d="M138.33 1334.88 Q134.719 1334.88 132.89 1338.44 Q131.084 1341.99 131.084 1349.11 Q131.084 1356.22 132.89 1359.79 Q134.719 1363.33 138.33 1363.33 Q141.964 1363.33 143.769 1359.79 Q145.598 1356.22 145.598 1349.11 Q145.598 1341.99 143.769 1338.44 Q141.964 1334.88 138.33 1334.88 M138.33 1331.17 Q144.14 1331.17 147.195 1335.78 Q150.274 1340.36 150.274 1349.11 Q150.274 1357.84 147.195 1362.45 Q144.14 1367.03 138.33 1367.03 Q132.519 1367.03 129.441 1362.45 Q126.385 1357.84 126.385 1349.11 Q126.385 1340.36 129.441 1335.78 Q132.519 1331.17 138.33 1331.17 Z" fill="#000000" fill-rule="nonzero" fill-opacity="1" /><path clip-path="url(#clip680)" d="M63.9319 1020.31 Q60.3208 1020.31 58.4921 1023.88 Q56.6865 1027.42 56.6865 1034.55 Q56.6865 1041.65 58.4921 1045.22 Q60.3208 1048.76 63.9319 1048.76 Q67.5661 1048.76 69.3717 1045.22 Q71.2004 1041.65 71.2004 1034.55 Q71.2004 1027.42 69.3717 1023.88 Q67.5661 1020.31 63.9319 1020.31 M63.9319 1016.61 Q69.742 1016.61 72.7976 1021.21 Q75.8763 1025.8 75.8763 1034.55 Q75.8763 1043.27 72.7976 1047.88 Q69.742 1052.46 63.9319 1052.46 Q58.1217 1052.46 55.043 1047.88 Q51.9875 1043.27 51.9875 1034.55 Q51.9875 1025.8 55.043 1021.21 Q58.1217 1016.61 63.9319 1016.61 Z" fill="#000000" fill-rule="nonzero" fill-opacity="1" /><path clip-path="url(#clip680)" d="M84.0938 1045.91 L88.978 1045.91 L88.978 1051.79 L84.0938 1051.79 L84.0938 1045.91 Z" fill="#000000" fill-rule="nonzero" fill-opacity="1" /><path clip-path="url(#clip680)" d="M97.9826 1017.23 L120.205 1017.23 L120.205 1019.22 L107.658 1051.79 L102.774 1051.79 L114.58 1021.17 L97.9826 1021.17 L97.9826 1017.23 Z" fill="#000000" fill-rule="nonzero" fill-opacity="1" /><path clip-path="url(#clip680)" d="M129.371 1017.23 L147.728 1017.23 L147.728 1021.17 L133.654 1021.17 L133.654 1029.64 Q134.672 1029.29 135.691 1029.13 Q136.709 1028.95 137.728 1028.95 Q143.515 1028.95 146.894 1032.12 Q150.274 1035.29 150.274 1040.71 Q150.274 1046.28 146.802 1049.39 Q143.33 1052.46 137.01 1052.46 Q134.834 1052.46 132.566 1052.09 Q130.32 1051.72 127.913 1050.98 L127.913 1046.28 Q129.996 1047.42 132.219 1047.97 Q134.441 1048.53 136.918 1048.53 Q140.922 1048.53 143.26 1046.42 Q145.598 1044.32 145.598 1040.71 Q145.598 1037.09 143.26 1034.99 Q140.922 1032.88 136.918 1032.88 Q135.043 1032.88 133.168 1033.3 Q131.316 1033.71 129.371 1034.59 L129.371 1017.23 Z" fill="#000000" fill-rule="nonzero" fill-opacity="1" /><path clip-path="url(#clip680)" d="M53.7467 733.291 L61.3856 733.291 L61.3856 706.926 L53.0754 708.592 L53.0754 704.333 L61.3393 702.667 L66.0152 702.667 L66.0152 733.291 L73.654 733.291 L73.654 737.227 L53.7467 737.227 L53.7467 733.291 Z" fill="#000000" fill-rule="nonzero" fill-opacity="1" /><path clip-path="url(#clip680)" d="M83.0984 731.347 L87.9827 731.347 L87.9827 737.227 L83.0984 737.227 L83.0984 731.347 Z" fill="#000000" fill-rule="nonzero" fill-opacity="1" /><path clip-path="url(#clip680)" d="M108.168 705.745 Q104.557 705.745 102.728 709.31 Q100.922 712.852 100.922 719.981 Q100.922 727.088 102.728 730.653 Q104.557 734.194 108.168 734.194 Q111.802 734.194 113.608 730.653 Q115.436 727.088 115.436 719.981 Q115.436 712.852 113.608 709.31 Q111.802 705.745 108.168 705.745 M108.168 702.042 Q113.978 702.042 117.033 706.648 Q120.112 711.231 120.112 719.981 Q120.112 728.708 117.033 733.315 Q113.978 737.898 108.168 737.898 Q102.358 737.898 99.2789 733.315 Q96.2234 728.708 96.2234 719.981 Q96.2234 711.231 99.2789 706.648 Q102.358 702.042 108.168 702.042 Z" fill="#000000" fill-rule="nonzero" fill-opacity="1" /><path clip-path="url(#clip680)" d="M138.33 705.745 Q134.719 705.745 132.89 709.31 Q131.084 712.852 131.084 719.981 Q131.084 727.088 132.89 730.653 Q134.719 734.194 138.33 734.194 Q141.964 734.194 143.769 730.653 Q145.598 727.088 145.598 719.981 Q145.598 712.852 143.769 709.31 Q141.964 705.745 138.33 705.745 M138.33 702.042 Q144.14 702.042 147.195 706.648 Q150.274 711.231 150.274 719.981 Q150.274 728.708 147.195 733.315 Q144.14 737.898 138.33 737.898 Q132.519 737.898 129.441 733.315 Q126.385 728.708 126.385 719.981 Q126.385 711.231 129.441 706.648 Q132.519 702.042 138.33 702.042 Z" fill="#000000" fill-rule="nonzero" fill-opacity="1" /><path clip-path="url(#clip680)" d="M54.7421 418.725 L62.381 418.725 L62.381 392.359 L54.0708 394.026 L54.0708 389.767 L62.3347 388.1 L67.0106 388.1 L67.0106 418.725 L74.6494 418.725 L74.6494 422.66 L54.7421 422.66 L54.7421 418.725 Z" fill="#000000" fill-rule="nonzero" fill-opacity="1" /><path clip-path="url(#clip680)" d="M84.0938 416.78 L88.978 416.78 L88.978 422.66 L84.0938 422.66 L84.0938 416.78 Z" fill="#000000" fill-rule="nonzero" fill-opacity="1" /><path clip-path="url(#clip680)" d="M103.191 418.725 L119.51 418.725 L119.51 422.66 L97.566 422.66 L97.566 418.725 Q100.228 415.97 104.811 411.341 Q109.418 406.688 110.598 405.345 Q112.844 402.822 113.723 401.086 Q114.626 399.327 114.626 397.637 Q114.626 394.882 112.682 393.146 Q110.76 391.41 107.658 391.41 Q105.459 391.41 103.006 392.174 Q100.575 392.938 97.7974 394.489 L97.7974 389.767 Q100.621 388.632 103.075 388.054 Q105.529 387.475 107.566 387.475 Q112.936 387.475 116.131 390.16 Q119.325 392.845 119.325 397.336 Q119.325 399.466 118.515 401.387 Q117.728 403.285 115.621 405.878 Q115.043 406.549 111.941 409.766 Q108.839 412.961 103.191 418.725 Z" fill="#000000" fill-rule="nonzero" fill-opacity="1" /><path clip-path="url(#clip680)" d="M129.371 388.1 L147.728 388.1 L147.728 392.035 L133.654 392.035 L133.654 400.507 Q134.672 400.16 135.691 399.998 Q136.709 399.813 137.728 399.813 Q143.515 399.813 146.894 402.984 Q150.274 406.155 150.274 411.572 Q150.274 417.151 146.802 420.253 Q143.33 423.331 137.01 423.331 Q134.834 423.331 132.566 422.961 Q130.32 422.59 127.913 421.85 L127.913 417.151 Q129.996 418.285 132.219 418.84 Q134.441 419.396 136.918 419.396 Q140.922 419.396 143.26 417.29 Q145.598 415.183 145.598 411.572 Q145.598 407.961 143.26 405.854 Q140.922 403.748 136.918 403.748 Q135.043 403.748 133.168 404.165 Q131.316 404.581 129.371 405.461 L129.371 388.1 Z" fill="#000000" fill-rule="nonzero" fill-opacity="1" /><path clip-path="url(#clip680)" d="M53.7467 104.158 L61.3856 104.158 L61.3856 77.7925 L53.0754 79.4591 L53.0754 75.1999 L61.3393 73.5332 L66.0152 73.5332 L66.0152 104.158 L73.654 104.158 L73.654 108.093 L53.7467 108.093 L53.7467 104.158 Z" fill="#000000" fill-rule="nonzero" fill-opacity="1" /><path clip-path="url(#clip680)" d="M83.0984 102.214 L87.9827 102.214 L87.9827 108.093 L83.0984 108.093 L83.0984 102.214 Z" fill="#000000" fill-rule="nonzero" fill-opacity="1" /><path clip-path="url(#clip680)" d="M98.2141 73.5332 L116.57 73.5332 L116.57 77.4684 L102.496 77.4684 L102.496 85.9406 Q103.515 85.5934 104.534 85.4313 Q105.552 85.2461 106.571 85.2461 Q112.358 85.2461 115.737 88.4174 Q119.117 91.5887 119.117 97.0053 Q119.117 102.584 115.645 105.686 Q112.172 108.765 105.853 108.765 Q103.677 108.765 101.409 108.394 Q99.1632 108.024 96.7558 107.283 L96.7558 102.584 Q98.8391 103.718 101.061 104.274 Q103.284 104.829 105.76 104.829 Q109.765 104.829 112.103 102.723 Q114.441 100.616 114.441 97.0053 Q114.441 93.3942 112.103 91.2878 Q109.765 89.1813 105.76 89.1813 Q103.885 89.1813 102.01 89.598 Q100.159 90.0146 98.2141 90.8943 L98.2141 73.5332 Z" fill="#000000" fill-rule="nonzero" fill-opacity="1" /><path clip-path="url(#clip680)" d="M138.33 76.6119 Q134.719 76.6119 132.89 80.1767 Q131.084 83.7184 131.084 90.848 Q131.084 97.9544 132.89 101.519 Q134.719 105.061 138.33 105.061 Q141.964 105.061 143.769 101.519 Q145.598 97.9544 145.598 90.848 Q145.598 83.7184 143.769 80.1767 Q141.964 76.6119 138.33 76.6119 M138.33 72.9082 Q144.14 72.9082 147.195 77.5147 Q150.274 82.098 150.274 90.848 Q150.274 99.5748 147.195 104.181 Q144.14 108.765 138.33 108.765 Q132.519 108.765 129.441 104.181 Q126.385 99.5748 126.385 90.848 Q126.385 82.098 129.441 77.5147 Q132.519 72.9082 138.33 72.9082 Z" fill="#000000" fill-rule="nonzero" fill-opacity="1" /><polyline clip-path="url(#clip681)" style="stroke:#009af9; stroke-linecap:round; stroke-linejoin:round; stroke-width:12; stroke-opacity:1; fill:none" points="247.59,1349.08 451.975,1263.6 656.36,1311.42 860.745,1226.09 1065.13,1116.97 1269.51,1043.37 1473.9,972.963 1678.29,1033.7 1882.67,1038.33 2087.06,937.086 2291.44,1095.35 "/>
<polyline clip-path="url(#clip681)" style="stroke:#e26f46; stroke-linecap:round; stroke-linejoin:round; stroke-width:12; stroke-opacity:1; fill:none" points="247.59,1349.08 451.975,1177.47 656.36,1164.06 860.745,1106.04 1065.13,1101.02 1269.51,1163.93 1473.9,963.928 1678.29,832.1 1882.67,689.256 2087.06,463.049 2291.44,87.9763 "/>
<polyline clip-path="url(#clip681)" style="stroke:#3da44d; stroke-linecap:round; stroke-linejoin:round; stroke-width:12; stroke-opacity:1; fill:none" points="247.59,1349.08 451.975,1222.41 656.36,1186.1 860.745,1035.32 1065.13,877.623 1269.51,990.013 1473.9,980.327 1678.29,967.559 1882.67,852.613 2087.06,933.171 2291.44,968.536 "/>
<polyline clip-path="url(#clip681)" style="stroke:#c271d2; stroke-linecap:round; stroke-linejoin:round; stroke-width:12; stroke-opacity:1; fill:none" points="247.59,1349.08 451.975,1376.74 656.36,1344.4 860.745,1220.92 1065.13,1111.81 1269.51,1147.99 1473.9,1076.75 1678.29,1024.76 1882.67,914.67 2087.06,823.239 2291.44,698.836 "/>
<polyline clip-path="url(#clip681)" style="stroke:#ac8d18; stroke-linecap:round; stroke-linejoin:round; stroke-width:12; stroke-opacity:1; fill:none" points="247.59,1349.08 451.975,1397.83 656.36,1220.67 860.745,1149.15 1065.13,1194.41 1269.51,1229.97 1473.9,1217.92 1678.29,1209.63 1882.67,1115.02 2087.06,1075.89 2291.44,983.276 "/>
<polyline clip-path="url(#clip681)" style="stroke:#00a9ad; stroke-linecap:round; stroke-linejoin:round; stroke-width:12; stroke-opacity:1; fill:none" points="247.59,1349.08 451.975,1324.7 656.36,1391.15 860.745,1445.72 1065.13,1388.48 1269.51,1322.62 1473.9,1258.1 1678.29,1240.9 1882.67,1338.79 2087.06,1350.32 2291.44,1343.55 "/>
<polyline clip-path="url(#clip681)" style="stroke:#ed5d92; stroke-linecap:round; stroke-linejoin:round; stroke-width:12; stroke-opacity:1; fill:none" points="247.59,1349.08 451.975,1298.05 656.36,1245.33 860.745,1161.34 1065.13,1112.35 1269.51,1231.38 1473.9,1052.56 1678.29,981.361 1882.67,1011.55 2087.06,932.617 2291.44,898.233 "/>
<polyline clip-path="url(#clip681)" style="stroke:#c68125; stroke-linecap:round; stroke-linejoin:round; stroke-width:12; stroke-opacity:1; fill:none" points="247.59,1349.08 451.975,1250.88 656.36,1177.55 860.745,1185.18 1065.13,1262.94 1269.51,1387.53 1473.9,1321.76 1678.29,1267.59 1882.67,1113.57 2087.06,1053.04 2291.44,945.741 "/>
</svg>
