<?xml version="1.0" encoding="utf-8"?>
<svg xmlns="http://www.w3.org/2000/svg" xmlns:xlink="http://www.w3.org/1999/xlink" width="600" height="400" viewBox="0 0 2400 1600">
<defs>
  <clipPath id="clip840">
    <rect x="0" y="0" width="2400" height="1600"/>
  </clipPath>
</defs>
<path clip-path="url(#clip840)" d="M0 1600 L2400 1600 L2400 0 L0 0  Z" fill="#ffffff" fill-rule="evenodd" fill-opacity="1"/>
<defs>
  <clipPath id="clip841">
    <rect x="184" y="47" width="2170" height="1440"/>
  </clipPath>
</defs>
<path clip-path="url(#clip840)" d="M184.191 1486.45 L2352.76 1486.45 L2352.76 47.2441 L184.191 47.2441  Z" fill="#ffffff" fill-rule="evenodd" fill-opacity="1"/>
<polyline clip-path="url(#clip841)" style="stroke:#000000; stroke-linecap:round; stroke-linejoin:round; stroke-width:2; stroke-opacity:0.1; fill:none" points="245.565,1486.45 245.565,47.2441 "/>
<polyline clip-path="url(#clip841)" style="stroke:#000000; stroke-linecap:round; stroke-linejoin:round; stroke-width:2; stroke-opacity:0.1; fill:none" points="757.019,1486.45 757.019,47.2441 "/>
<polyline clip-path="url(#clip841)" style="stroke:#000000; stroke-linecap:round; stroke-linejoin:round; stroke-width:2; stroke-opacity:0.1; fill:none" points="1268.47,1486.45 1268.47,47.2441 "/>
<polyline clip-path="url(#clip841)" style="stroke:#000000; stroke-linecap:round; stroke-linejoin:round; stroke-width:2; stroke-opacity:0.1; fill:none" points="1779.93,1486.45 1779.93,47.2441 "/>
<polyline clip-path="url(#clip841)" style="stroke:#000000; stroke-linecap:round; stroke-linejoin:round; stroke-width:2; stroke-opacity:0.1; fill:none" points="2291.38,1486.45 2291.38,47.2441 "/>
<polyline clip-path="url(#clip841)" style="stroke:#000000; stroke-linecap:round; stroke-linejoin:round; stroke-width:2; stroke-opacity:0.1; fill:none" points="184.191,1454.98 2352.76,1454.98 "/>
<polyline clip-path="url(#clip841)" style="stroke:#000000; stroke-linecap:round; stroke-linejoin:round; stroke-width:2; stroke-opacity:0.1; fill:none" points="184.191,1122.1 2352.76,1122.1 "/>
<polyline clip-path="url(#clip841)" style="stroke:#000000; stroke-linecap:round; stroke-linejoin:round; stroke-width:2; stroke-opacity:0.1; fill:none" points="184.191,789.213 2352.76,789.213 "/>
<polyline clip-path="url(#clip841)" style="stroke:#000000; stroke-linecap:round; stroke-linejoin:round; stroke-width:2; stroke-opacity:0.1; fill:none" points="184.191,456.327 2352.76,456.327 "/>
<polyline clip-path="url(#clip841)" style="stroke:#000000; stroke-linecap:round; stroke-linejoin:round; stroke-width:2; stroke-opacity:0.1; fill:none" points="184.191,123.441 2352.76,123.441 "/>
<polyline clip-path="url(#clip840)" style="stroke:#000000; stroke-linecap:round; stroke-linejoin:round; stroke-width:4; stroke-opacity:1; fill:none" points="184.191,1486.45 2352.76,1486.45 "/>
<polyline clip-path="url(#clip840)" style="stroke:#000000; stroke-linecap:round; stroke-linejoin:round; stroke-width:4; stroke-opacity:1; fill:none" points="245.565,1486.45 245.565,1467.55 "/>
<polyline clip-path="url(#clip840)" style="stroke:#000000; stroke-linecap:round; stroke-linejoin:round; stroke-width:4; stroke-opacity:1; fill:none" points="757.019,1486.45 757.019,1467.55 "/>
<polyline clip-path="url(#clip840)" style="stroke:#000000; stroke-linecap:round; stroke-linejoin:round; stroke-width:4; stroke-opacity:1; fill:none" points="1268.47,1486.45 1268.47,1467.55 "/>
<polyline clip-path="url(#clip840)" style="stroke:#000000; stroke-linecap:round; stroke-linejoin:round; stroke-width:4; stroke-opacity:1; fill:none" points="1779.93,1486.45 1779.93,1467.55 "/>
<polyline clip-path="url(#clip840)" style="stroke:#000000; stroke-linecap:round; stroke-linejoin:round; stroke-width:4; stroke-opacity:1; fill:none" points="2291.38,1486.45 2291.38,1467.55 "/>
<path clip-path="url(#clip840)" d="M222.95 1517.37 Q219.338 1517.37 217.51 1520.93 Q215.704 1524.47 215.704 1531.6 Q215.704 1538.71 217.51 1542.27 Q219.338 1545.82 222.95 1545.82 Q226.584 1545.82 228.389 1542.27 Q230.218 1538.71 230.218 1531.6 Q230.218 1524.47 228.389 1520.93 Q226.584 1517.37 222.95 1517.37 M222.95 1513.66 Q228.76 1513.66 231.815 1518.27 Q234.894 1522.85 234.894 1531.6 Q234.894 1540.33 231.815 1544.94 Q228.76 1549.52 222.95 1549.52 Q217.139 1549.52 214.061 1544.94 Q211.005 1540.33 211.005 1531.6 Q211.005 1522.85 214.061 1518.27 Q217.139 1513.66 222.95 1513.66 Z" fill="#000000" fill-rule="nonzero" fill-opacity="1" /><path clip-path="url(#clip840)" d="M243.111 1542.97 L247.996 1542.97 L247.996 1548.85 L243.111 1548.85 L243.111 1542.97 Z" fill="#000000" fill-rule="nonzero" fill-opacity="1" /><path clip-path="url(#clip840)" d="M268.181 1517.37 Q264.57 1517.37 262.741 1520.93 Q260.935 1524.47 260.935 1531.6 Q260.935 1538.71 262.741 1542.27 Q264.57 1545.82 268.181 1545.82 Q271.815 1545.82 273.621 1542.27 Q275.449 1538.71 275.449 1531.6 Q275.449 1524.47 273.621 1520.93 Q271.815 1517.37 268.181 1517.37 M268.181 1513.66 Q273.991 1513.66 277.046 1518.27 Q280.125 1522.85 280.125 1531.6 Q280.125 1540.33 277.046 1544.94 Q273.991 1549.52 268.181 1549.52 Q262.371 1549.52 259.292 1544.94 Q256.236 1540.33 256.236 1531.6 Q256.236 1522.85 259.292 1518.27 Q262.371 1513.66 268.181 1513.66 Z" fill="#000000" fill-rule="nonzero" fill-opacity="1" /><path clip-path="url(#clip840)" d="M728.755 1544.91 L745.075 1544.91 L745.075 1548.85 L723.131 1548.85 L723.131 1544.91 Q725.793 1542.16 730.376 1537.53 Q734.982 1532.88 736.163 1531.53 Q738.408 1529.01 739.288 1527.27 Q740.191 1525.51 740.191 1523.82 Q740.191 1521.07 738.246 1519.33 Q736.325 1517.6 733.223 1517.6 Q731.024 1517.6 728.57 1518.36 Q726.14 1519.13 723.362 1520.68 L723.362 1515.95 Q726.186 1514.82 728.64 1514.24 Q731.093 1513.66 733.13 1513.66 Q738.501 1513.66 741.695 1516.35 Q744.89 1519.03 744.89 1523.52 Q744.89 1525.65 744.079 1527.57 Q743.292 1529.47 741.186 1532.07 Q740.607 1532.74 737.505 1535.95 Q734.404 1539.15 728.755 1544.91 Z" fill="#000000" fill-rule="nonzero" fill-opacity="1" /><path clip-path="url(#clip840)" d="M754.89 1542.97 L759.774 1542.97 L759.774 1548.85 L754.89 1548.85 L754.89 1542.97 Z" fill="#000000" fill-rule="nonzero" fill-opacity="1" /><path clip-path="url(#clip840)" d="M770.005 1514.29 L788.362 1514.29 L788.362 1518.22 L774.288 1518.22 L774.288 1526.7 Q775.306 1526.35 776.325 1526.19 Q777.343 1526 778.362 1526 Q784.149 1526 787.528 1529.17 Q790.908 1532.34 790.908 1537.76 Q790.908 1543.34 787.436 1546.44 Q783.964 1549.52 777.644 1549.52 Q775.468 1549.52 773.2 1549.15 Q770.954 1548.78 768.547 1548.04 L768.547 1543.34 Q770.63 1544.47 772.852 1545.03 Q775.075 1545.58 777.552 1545.58 Q781.556 1545.58 783.894 1543.48 Q786.232 1541.37 786.232 1537.76 Q786.232 1534.15 783.894 1532.04 Q781.556 1529.94 777.552 1529.94 Q775.677 1529.94 773.802 1530.35 Q771.95 1530.77 770.005 1531.65 L770.005 1514.29 Z" fill="#000000" fill-rule="nonzero" fill-opacity="1" /><path clip-path="url(#clip840)" d="M1235.64 1514.29 L1253.99 1514.29 L1253.99 1518.22 L1239.92 1518.22 L1239.92 1526.7 Q1240.94 1526.35 1241.96 1526.19 Q1242.98 1526 1243.99 1526 Q1249.78 1526 1253.16 1529.17 Q1256.54 1532.34 1256.54 1537.76 Q1256.54 1543.34 1253.07 1546.44 Q1249.6 1549.52 1243.28 1549.52 Q1241.1 1549.52 1238.83 1549.15 Q1236.59 1548.78 1234.18 1548.04 L1234.18 1543.34 Q1236.26 1544.47 1238.49 1545.03 Q1240.71 1545.58 1243.18 1545.58 Q1247.19 1545.58 1249.53 1543.48 Q1251.86 1541.37 1251.86 1537.76 Q1251.86 1534.15 1249.53 1532.04 Q1247.19 1529.94 1243.18 1529.94 Q1241.31 1529.94 1239.43 1530.35 Q1237.58 1530.77 1235.64 1531.65 L1235.64 1514.29 Z" fill="#000000" fill-rule="nonzero" fill-opacity="1" /><path clip-path="url(#clip840)" d="M1265.75 1542.97 L1270.64 1542.97 L1270.64 1548.85 L1265.75 1548.85 L1265.75 1542.97 Z" fill="#000000" fill-rule="nonzero" fill-opacity="1" /><path clip-path="url(#clip840)" d="M1290.82 1517.37 Q1287.21 1517.37 1285.38 1520.93 Q1283.58 1524.47 1283.58 1531.6 Q1283.58 1538.71 1285.38 1542.27 Q1287.21 1545.82 1290.82 1545.82 Q1294.46 1545.82 1296.26 1542.27 Q1298.09 1538.71 1298.09 1531.6 Q1298.09 1524.47 1296.26 1520.93 Q1294.46 1517.37 1290.82 1517.37 M1290.82 1513.66 Q1296.63 1513.66 1299.69 1518.27 Q1302.77 1522.85 1302.77 1531.6 Q1302.77 1540.33 1299.69 1544.94 Q1296.63 1549.52 1290.82 1549.52 Q1285.01 1549.52 1281.93 1544.94 Q1278.88 1540.33 1278.88 1531.6 Q1278.88 1522.85 1281.93 1518.27 Q1285.01 1513.66 1290.82 1513.66 Z" fill="#000000" fill-rule="nonzero" fill-opacity="1" /><path clip-path="url(#clip840)" d="M1746.25 1514.29 L1768.47 1514.29 L1768.47 1516.28 L1755.92 1548.85 L1751.04 1548.85 L1762.84 1518.22 L1746.25 1518.22 L1746.25 1514.29 Z" fill="#000000" fill-rule="nonzero" fill-opacity="1" /><path clip-path="url(#clip840)" d="M1777.59 1542.97 L1782.47 1542.97 L1782.47 1548.85 L1777.59 1548.85 L1777.59 1542.97 Z" fill="#000000" fill-rule="nonzero" fill-opacity="1" /><path clip-path="url(#clip840)" d="M1792.71 1514.29 L1811.06 1514.29 L1811.06 1518.22 L1796.99 1518.22 L1796.99 1526.7 Q1798.01 1526.35 1799.02 1526.19 Q1800.04 1526 1801.06 1526 Q1806.85 1526 1810.23 1529.17 Q1813.61 1532.34 1813.61 1537.76 Q1813.61 1543.34 1810.14 1546.44 Q1806.66 1549.52 1800.34 1549.52 Q1798.17 1549.52 1795.9 1549.15 Q1793.65 1548.78 1791.25 1548.04 L1791.25 1543.34 Q1793.33 1544.47 1795.55 1545.03 Q1797.77 1545.58 1800.25 1545.58 Q1804.26 1545.58 1806.59 1543.48 Q1808.93 1541.37 1808.93 1537.76 Q1808.93 1534.15 1806.59 1532.04 Q1804.26 1529.94 1800.25 1529.94 Q1798.38 1529.94 1796.5 1530.35 Q1794.65 1530.77 1792.71 1531.65 L1792.71 1514.29 Z" fill="#000000" fill-rule="nonzero" fill-opacity="1" /><path clip-path="url(#clip840)" d="M2243.45 1544.91 L2251.09 1544.91 L2251.09 1518.55 L2242.78 1520.21 L2242.78 1515.95 L2251.05 1514.29 L2255.72 1514.29 L2255.72 1544.91 L2263.36 1544.91 L2263.36 1548.85 L2243.45 1548.85 L2243.45 1544.91 Z" fill="#000000" fill-rule="nonzero" fill-opacity="1" /><path clip-path="url(#clip840)" d="M2282.81 1517.37 Q2279.19 1517.37 2277.37 1520.93 Q2275.56 1524.47 2275.56 1531.6 Q2275.56 1538.71 2277.37 1542.27 Q2279.19 1545.82 2282.81 1545.82 Q2286.44 1545.82 2288.24 1542.27 Q2290.07 1538.71 2290.07 1531.6 Q2290.07 1524.47 2288.24 1520.93 Q2286.44 1517.37 2282.81 1517.37 M2282.81 1513.66 Q2288.62 1513.66 2291.67 1518.27 Q2294.75 1522.85 2294.75 1531.6 Q2294.75 1540.33 2291.67 1544.94 Q2288.62 1549.52 2282.81 1549.52 Q2276.99 1549.52 2273.92 1544.94 Q2270.86 1540.33 2270.86 1531.6 Q2270.86 1522.85 2273.92 1518.27 Q2276.99 1513.66 2282.81 1513.66 Z" fill="#000000" fill-rule="nonzero" fill-opacity="1" /><path clip-path="url(#clip840)" d="M2302.97 1542.97 L2307.85 1542.97 L2307.85 1548.85 L2302.97 1548.85 L2302.97 1542.97 Z" fill="#000000" fill-rule="nonzero" fill-opacity="1" /><path clip-path="url(#clip840)" d="M2328.04 1517.37 Q2324.43 1517.37 2322.6 1520.93 Q2320.79 1524.47 2320.79 1531.6 Q2320.79 1538.71 2322.6 1542.27 Q2324.43 1545.82 2328.04 1545.82 Q2331.67 1545.82 2333.48 1542.27 Q2335.3 1538.71 2335.3 1531.6 Q2335.3 1524.47 2333.48 1520.93 Q2331.67 1517.37 2328.04 1517.37 M2328.04 1513.66 Q2333.85 1513.66 2336.9 1518.27 Q2339.98 1522.85 2339.98 1531.6 Q2339.98 1540.33 2336.9 1544.94 Q2333.85 1549.52 2328.04 1549.52 Q2322.23 1549.52 2319.15 1544.94 Q2316.09 1540.33 2316.09 1531.6 Q2316.09 1522.85 2319.15 1518.27 Q2322.23 1513.66 2328.04 1513.66 Z" fill="#000000" fill-rule="nonzero" fill-opacity="1" /><polyline clip-path="url(#clip840)" style="stroke:#000000; stroke-linecap:round; stroke-linejoin:round; stroke-width:4; stroke-opacity:1; fill:none" points="184.191,1486.45 184.191,47.2441 "/>
<polyline clip-path="url(#clip840)" style="stroke:#000000; stroke-linecap:round; stroke-linejoin:round; stroke-width:4; stroke-opacity:1; fill:none" points="184.191,1454.98 203.088,1454.98 "/>
<polyline clip-path="url(#clip840)" style="stroke:#000000; stroke-linecap:round; stroke-linejoin:round; stroke-width:4; stroke-opacity:1; fill:none" points="184.191,1122.1 203.088,1122.1 "/>
<polyline clip-path="url(#clip840)" style="stroke:#000000; stroke-linecap:round; stroke-linejoin:round; stroke-width:4; stroke-opacity:1; fill:none" points="184.191,789.213 203.088,789.213 "/>
<polyline clip-path="url(#clip840)" style="stroke:#000000; stroke-linecap:round; stroke-linejoin:round; stroke-width:4; stroke-opacity:1; fill:none" points="184.191,456.327 203.088,456.327 "/>
<polyline clip-path="url(#clip840)" style="stroke:#000000; stroke-linecap:round; stroke-linejoin:round; stroke-width:4; stroke-opacity:1; fill:none" points="184.191,123.441 203.088,123.441 "/>
<path clip-path="url(#clip840)" d="M91.0151 1440.78 Q87.404 1440.78 85.5753 1444.35 Q83.7697 1447.89 83.7697 1455.02 Q83.7697 1462.13 85.5753 1465.69 Q87.404 1469.23 91.0151 1469.23 Q94.6493 1469.23 96.4548 1465.69 Q98.2835 1462.13 98.2835 1455.02 Q98.2835 1447.89 96.4548 1444.35 Q94.6493 1440.78 91.0151 1440.78 M91.0151 1437.08 Q96.8252 1437.08 99.8808 1441.69 Q102.959 1446.27 102.959 1455.02 Q102.959 1463.75 99.8808 1468.35 Q96.8252 1472.94 91.0151 1472.94 Q85.2049 1472.94 82.1262 1468.35 Q79.0707 1463.75 79.0707 1455.02 Q79.0707 1446.27 82.1262 1441.69 Q85.2049 1437.08 91.0151 1437.08 Z" fill="#000000" fill-rule="nonzero" fill-opacity="1" /><path clip-path="url(#clip840)" d="M111.177 1466.39 L116.061 1466.39 L116.061 1472.26 L111.177 1472.26 L111.177 1466.39 Z" fill="#000000" fill-rule="nonzero" fill-opacity="1" /><path clip-path="url(#clip840)" d="M136.246 1440.78 Q132.635 1440.78 130.807 1444.35 Q129.001 1447.89 129.001 1455.02 Q129.001 1462.13 130.807 1465.69 Q132.635 1469.23 136.246 1469.23 Q139.881 1469.23 141.686 1465.69 Q143.515 1462.13 143.515 1455.02 Q143.515 1447.89 141.686 1444.35 Q139.881 1440.78 136.246 1440.78 M136.246 1437.08 Q142.056 1437.08 145.112 1441.69 Q148.191 1446.27 148.191 1455.02 Q148.191 1463.75 145.112 1468.35 Q142.056 1472.94 136.246 1472.94 Q130.436 1472.94 127.357 1468.35 Q124.302 1463.75 124.302 1455.02 Q124.302 1446.27 127.357 1441.69 Q130.436 1437.08 136.246 1437.08 Z" fill="#000000" fill-rule="nonzero" fill-opacity="1" /><path clip-path="url(#clip840)" d="M86.0382 1135.44 L102.358 1135.44 L102.358 1139.38 L80.4133 1139.38 L80.4133 1135.44 Q83.0753 1132.69 87.6586 1128.06 Q92.2651 1123.41 93.4456 1122.06 Q95.691 1119.54 96.5706 1117.8 Q97.4734 1116.05 97.4734 1114.36 Q97.4734 1111.6 95.5289 1109.87 Q93.6076 1108.13 90.5058 1108.13 Q88.3067 1108.13 85.8531 1108.89 Q83.4225 1109.66 80.6447 1111.21 L80.6447 1106.49 Q83.4688 1105.35 85.9225 1104.77 Q88.3762 1104.19 90.4132 1104.19 Q95.7836 1104.19 98.978 1106.88 Q102.172 1109.56 102.172 1114.05 Q102.172 1116.18 101.362 1118.11 Q100.575 1120 98.4687 1122.6 Q97.89 1123.27 94.7882 1126.49 Q91.6864 1129.68 86.0382 1135.44 Z" fill="#000000" fill-rule="nonzero" fill-opacity="1" /><path clip-path="url(#clip840)" d="M112.172 1133.5 L117.057 1133.5 L117.057 1139.38 L112.172 1139.38 L112.172 1133.5 Z" fill="#000000" fill-rule="nonzero" fill-opacity="1" /><path clip-path="url(#clip840)" d="M127.288 1104.82 L145.644 1104.82 L145.644 1108.75 L131.57 1108.75 L131.57 1117.23 Q132.589 1116.88 133.607 1116.72 Q134.626 1116.53 135.644 1116.53 Q141.431 1116.53 144.811 1119.7 Q148.191 1122.87 148.191 1128.29 Q148.191 1133.87 144.718 1136.97 Q141.246 1140.05 134.927 1140.05 Q132.751 1140.05 130.482 1139.68 Q128.237 1139.31 125.83 1138.57 L125.83 1133.87 Q127.913 1135 130.135 1135.56 Q132.357 1136.11 134.834 1136.11 Q138.839 1136.11 141.177 1134.01 Q143.515 1131.9 143.515 1128.29 Q143.515 1124.68 141.177 1122.57 Q138.839 1120.47 134.834 1120.47 Q132.959 1120.47 131.084 1120.88 Q129.232 1121.3 127.288 1122.18 L127.288 1104.82 Z" fill="#000000" fill-rule="nonzero" fill-opacity="1" /><path clip-path="url(#clip840)" d="M81.0614 771.933 L99.4178 771.933 L99.4178 775.868 L85.3438 775.868 L85.3438 784.34 Q86.3623 783.993 87.3808 783.831 Q88.3993 783.646 89.4178 783.646 Q95.2049 783.646 98.5845 786.817 Q101.964 789.988 101.964 795.405 Q101.964 800.984 98.4919 804.085 Q95.0197 807.164 88.7003 807.164 Q86.5243 807.164 84.2558 806.794 Q82.0105 806.423 79.6031 805.683 L79.6031 800.984 Q81.6864 802.118 83.9086 802.673 Q86.1308 803.229 88.6077 803.229 Q92.6123 803.229 94.9502 801.123 Q97.2882 799.016 97.2882 795.405 Q97.2882 791.794 94.9502 789.687 Q92.6123 787.581 88.6077 787.581 Q86.7327 787.581 84.8577 787.998 Q83.0058 788.414 81.0614 789.294 L81.0614 771.933 Z" fill="#000000" fill-rule="nonzero" fill-opacity="1" /><path clip-path="url(#clip840)" d="M111.177 800.613 L116.061 800.613 L116.061 806.493 L111.177 806.493 L111.177 800.613 Z" fill="#000000" fill-rule="nonzero" fill-opacity="1" /><path clip-path="url(#clip840)" d="M136.246 775.012 Q132.635 775.012 130.807 778.576 Q129.001 782.118 129.001 789.248 Q129.001 796.354 130.807 799.919 Q132.635 803.46 136.246 803.46 Q139.881 803.46 141.686 799.919 Q143.515 796.354 143.515 789.248 Q143.515 782.118 141.686 778.576 Q139.881 775.012 136.246 775.012 M136.246 771.308 Q142.056 771.308 145.112 775.914 Q148.191 780.498 148.191 789.248 Q148.191 797.974 145.112 802.581 Q142.056 807.164 136.246 807.164 Q130.436 807.164 127.357 802.581 Q124.302 797.974 124.302 789.248 Q124.302 780.498 127.357 775.914 Q130.436 771.308 136.246 771.308 Z" fill="#000000" fill-rule="nonzero" fill-opacity="1" /><path clip-path="url(#clip840)" d="M80.8299 439.047 L103.052 439.047 L103.052 441.038 L90.5058 473.607 L85.6216 473.607 L97.4271 442.982 L80.8299 442.982 L80.8299 439.047 Z" fill="#000000" fill-rule="nonzero" fill-opacity="1" /><path clip-path="url(#clip840)" d="M112.172 467.727 L117.057 467.727 L117.057 473.607 L112.172 473.607 L112.172 467.727 Z" fill="#000000" fill-rule="nonzero" fill-opacity="1" /><path clip-path="url(#clip840)" d="M127.288 439.047 L145.644 439.047 L145.644 442.982 L131.57 442.982 L131.57 451.454 Q132.589 451.107 133.607 450.945 Q134.626 450.76 135.644 450.76 Q141.431 450.76 144.811 453.931 Q148.191 457.102 148.191 462.519 Q148.191 468.098 144.718 471.2 Q141.246 474.278 134.927 474.278 Q132.751 474.278 130.482 473.908 Q128.237 473.537 125.83 472.797 L125.83 468.098 Q127.913 469.232 130.135 469.787 Q132.357 470.343 134.834 470.343 Q138.839 470.343 141.177 468.237 Q143.515 466.13 143.515 462.519 Q143.515 458.908 141.177 456.801 Q138.839 454.695 134.834 454.695 Q132.959 454.695 131.084 455.112 Q129.232 455.528 127.288 456.408 L127.288 439.047 Z" fill="#000000" fill-rule="nonzero" fill-opacity="1" /><path clip-path="url(#clip840)" d="M51.6634 136.786 L59.3023 136.786 L59.3023 110.42 L50.9921 112.087 L50.9921 107.828 L59.256 106.161 L63.9319 106.161 L63.9319 136.786 L71.5707 136.786 L71.5707 140.721 L51.6634 140.721 L51.6634 136.786 Z" fill="#000000" fill-rule="nonzero" fill-opacity="1" /><path clip-path="url(#clip840)" d="M91.0151 109.24 Q87.404 109.24 85.5753 112.804 Q83.7697 116.346 83.7697 123.476 Q83.7697 130.582 85.5753 134.147 Q87.404 137.689 91.0151 137.689 Q94.6493 137.689 96.4548 134.147 Q98.2835 130.582 98.2835 123.476 Q98.2835 116.346 96.4548 112.804 Q94.6493 109.24 91.0151 109.24 M91.0151 105.536 Q96.8252 105.536 99.8808 110.142 Q102.959 114.726 102.959 123.476 Q102.959 132.202 99.8808 136.809 Q96.8252 141.392 91.0151 141.392 Q85.2049 141.392 82.1262 136.809 Q79.0707 132.202 79.0707 123.476 Q79.0707 114.726 82.1262 110.142 Q85.2049 105.536 91.0151 105.536 Z" fill="#000000" fill-rule="nonzero" fill-opacity="1" /><path clip-path="url(#clip840)" d="M111.177 134.841 L116.061 134.841 L116.061 140.721 L111.177 140.721 L111.177 134.841 Z" fill="#000000" fill-rule="nonzero" fill-opacity="1" /><path clip-path="url(#clip840)" d="M136.246 109.24 Q132.635 109.24 130.807 112.804 Q129.001 116.346 129.001 123.476 Q129.001 130.582 130.807 134.147 Q132.635 137.689 136.246 137.689 Q139.881 137.689 141.686 134.147 Q143.515 130.582 143.515 123.476 Q143.515 116.346 141.686 112.804 Q139.881 109.24 136.246 109.24 M136.246 105.536 Q142.056 105.536 145.112 110.142 Q148.191 114.726 148.191 123.476 Q148.191 132.202 145.112 136.809 Q142.056 141.392 136.246 141.392 Q130.436 141.392 127.357 136.809 Q124.302 132.202 124.302 123.476 Q124.302 114.726 127.357 110.142 Q130.436 105.536 136.246 105.536 Z" fill="#000000" fill-rule="nonzero" fill-opacity="1" /><path clip-path="url(#clip841)" d="M245.565 1321.83 L266.023 1332.11 L286.481 1317.53 L306.94 1303.84 L327.398 1290.96 L347.856 1270.43 L368.314 1256.67 L388.772 1231.31 L409.23 1206.02 L429.689 1183.59 L450.147 1136.28 L470.605 1101.5 L491.063 1051.73 L511.521 1005.11 L531.979 946.026 L552.438 858.786 L572.896 841.701 L593.354 754.728 L613.812 702.416 L634.27 692.442 L654.728 747.047 L675.187 934.655 L695.645 1076.39 L716.103 1191.28 L736.561 1271.51 L757.019 1307.65 L777.477 1333.79 L797.936 1352.86 L818.394 1364.76 L838.852 1378.61 L859.31 1372.98 L879.768 1360.75 L900.226 1357.85 L920.685 1348.53 L941.143 1347.83 L961.601 1338.12 L982.059 1324.34 L1002.52 1309.4 L1022.98 1283.76 L1043.43 1280.14 L1063.89 1256.2 L1084.35 1232.77 L1104.81 1208.72 L1125.27 1182.63 L1145.72 1148.83 L1166.18 1097.28 L1186.64 1065.7 L1207.1 992.679 L1227.56 952.036 L1248.02 936.8 L1268.47 943.048 L1288.93 928.905 L1309.39 948.999 L1329.85 980.951 L1350.31 1094.26 L1370.76 1196.49 L1391.22 1264.65 L1411.68 1320.8 L1432.14 1345.7 L1452.6 1365.45 L1473.05 1373.79 L1493.51 1373.32 L1513.97 1383.11 L1534.43 1387.02 L1554.89 1390.86 L1575.35 1388.99 L1595.8 1384.83 L1616.26 1380.75 L1636.72 1374.73 L1657.18 1370.36 L1677.64 1364.38 L1698.09 1353.53 L1718.55 1339.81 L1739.01 1318.52 L1759.47 1290.78 L1779.93 1273.87 L1800.39 1255.72 L1820.84 1224.49 L1841.3 1200.18 L1861.76 1149.59 L1882.22 1116.22 L1902.68 1099.64 L1923.13 1072.95 L1943.59 1067.41 L1964.05 1147.84 L1984.51 1220.8 L2004.97 1237.95 L2025.43 1260.42 L2045.88 1278.47 L2066.34 1294.49 L2086.8 1337.65 L2107.26 1355.99 L2127.72 1365.86 L2148.17 1362.74 L2168.63 1357.63 L2189.09 1352.85 L2209.55 1374.52 L2230.01 1386.16 L2250.47 1392.89 L2270.92 1394.96 L2291.38 1396.88 L2291.38 1027.53 L2270.92 1019.61 L2250.47 1026.84 L2230.01 1035.15 L2209.55 1040.72 L2189.09 1071.69 L2168.63 1080.04 L2148.17 848.773 L2127.72 437.987 L2107.26 111.163 L2086.8 87.9763 L2066.34 142.317 L2045.88 267.907 L2025.43 432.954 L2004.97 412.392 L1984.51 462.357 L1964.05 354.902 L1943.59 327.08 L1923.13 472.056 L1902.68 617.682 L1882.22 643.22 L1861.76 759.482 L1841.3 793.03 L1820.84 801.187 L1800.39 857.029 L1779.93 914.607 L1759.47 923.962 L1739.01 914.354 L1718.55 946.815 L1698.09 1011.44 L1677.64 1040.49 L1657.18 1076.46 L1636.72 1095.27 L1616.26 1107.81 L1595.8 1131.22 L1575.35 1137.03 L1554.89 1137.68 L1534.43 1141.91 L1513.97 1122.75 L1493.51 1092.04 L1473.05 1021.45 L1452.6 936.03 L1432.14 845.208 L1411.68 771.43 L1391.22 657.605 L1370.76 606.872 L1350.31 535.84 L1329.85 371.704 L1309.39 242.205 L1288.93 307.111 L1268.47 300.242 L1248.02 425.48 L1227.56 548.34 L1207.1 620.877 L1186.64 753.388 L1166.18 850.206 L1145.72 881.182 L1125.27 934.577 L1104.81 974.384 L1084.35 1007.29 L1063.89 1043.49 L1043.43 1083.79 L1022.98 1130.61 L1002.52 1177.69 L982.059 1208.43 L961.601 1241.91 L941.143 1255.75 L920.685 1260.35 L900.226 1267.89 L879.768 1268.23 L859.31 1249.67 L838.852 1246.77 L818.394 1192.05 L797.936 1109.71 L777.477 1008.57 L757.019 879.594 L736.561 781.292 L716.103 717.354 L695.645 632.019 L675.187 498.153 L654.728 469.138 L634.27 433.593 L613.812 386.12 L593.354 437.829 L572.896 534.556 L552.438 603.508 L531.979 722.439 L511.521 854.307 L491.063 897.419 L470.605 994.793 L450.147 1050.48 L429.689 1098.86 L409.23 1106.27 L388.772 1166.69 L368.314 1213.34 L347.856 1235.51 L327.398 1253.87 L306.94 1277.87 L286.481 1287.49 L266.023 1297.93 L245.565 1321.83  Z" fill="#009af9" fill-rule="evenodd" fill-opacity="0.5"/>
<polyline clip-path="url(#clip841)" style="stroke:#009af9; stroke-linecap:round; stroke-linejoin:round; stroke-width:12; stroke-opacity:1; fill:none" points="245.565,1321.83 266.023,1313.8 286.481,1303.11 306.94,1289.56 327.398,1272.31 347.856,1251.24 368.314,1229.57 388.772,1201.96 409.23,1178.55 429.689,1133.24 450.147,1095 470.605,1044.34 491.063,987.328 511.521,935.446 531.979,867.266 552.438,776.369 572.896,714.717 593.354,633.46 613.812,582.479 634.27,530.313 654.728,557.837 675.187,613.883 695.645,761.047 716.103,937.116 736.561,1076.82 757.019,1179.8 777.477,1238.21 797.936,1281.99 818.394,1309.21 838.852,1324.43 859.31,1330.24 879.768,1331.76 900.226,1332.38 920.685,1329.87 941.143,1322.05 961.601,1305.7 982.059,1297.99 1002.52,1278.36 1022.98,1261.28 1043.43,1223.98 1063.89,1193.45 1084.35,1159.98 1104.81,1130.91 1125.27,1076.6 1145.72,1022.59 1166.18,967.218 1186.64,869.403 1207.1,825.923 1227.56,771.543 1248.02,676.958 1268.47,658.655 1288.93,577.458 1309.39,518.669 1329.85,602.269 1350.31,731.217 1370.76,888.175 1391.22,1021.65 1411.68,1128.46 1432.14,1197.53 1452.6,1239 1473.05,1278.73 1493.51,1307.34 1513.97,1325.55 1534.43,1335.08 1554.89,1337.77 1575.35,1320.75 1595.8,1317.11 1616.26,1310.06 1636.72,1301.43 1657.18,1289.6 1677.64,1277.05 1698.09,1263.53 1718.55,1235.54 1739.01,1208.11 1759.47,1180.37 1779.93,1142.79 1800.39,1103.76 1820.84,1052.59 1841.3,1008.47 1861.76,962.88 1882.22,897.785 1902.68,869.312 1923.13,804.361 1943.59,812.007 1964.05,721.053 1984.51,676.958 2004.97,590.299 2025.43,678.771 2045.88,771.694 2066.34,874.215 2086.8,981.257 2107.26,1099.91 2127.72,1166.68 2148.17,1201.23 2168.63,1245.15 2189.09,1317.59 2209.55,1331.94 2230.01,1336.36 2250.47,1329.53 2270.92,1333.34 2291.38,1328.71 "/>
<path clip-path="url(#clip841)" d="M245.565 1321.83 L266.023 1352.27 L286.481 1371.15 L306.94 1385.48 L327.398 1395.24 L347.856 1403.47 L368.314 1412.57 L388.772 1417.45 L409.23 1420.92 L429.689 1423.96 L450.147 1424.94 L470.605 1424.84 L491.063 1424.75 L511.521 1424.95 L531.979 1424.57 L552.438 1422.7 L572.896 1415.33 L593.354 1405.01 L613.812 1388.71 L634.27 1362.59 L654.728 1322.26 L675.187 1271.36 L695.645 1189.96 L716.103 1109.47 L736.561 1075.02 L757.019 1040.14 L777.477 1118.24 L797.936 1167.83 L818.394 1200.4 L838.852 1264.24 L859.31 1300.66 L879.768 1329.52 L900.226 1352.98 L920.685 1370.07 L941.143 1383.59 L961.601 1397.52 L982.059 1409.04 L1002.52 1417.13 L1022.98 1422.61 L1043.43 1427.29 L1063.89 1431.32 L1084.35 1433.55 L1104.81 1434.74 L1125.27 1435.57 L1145.72 1436.42 L1166.18 1435.22 L1186.64 1430.92 L1207.1 1425.24 L1227.56 1419.54 L1248.02 1411.12 L1268.47 1401.7 L1288.93 1386.1 L1309.39 1363.1 L1329.85 1326.52 L1350.31 1268.78 L1370.76 1245.8 L1391.22 1244.3 L1411.68 1202.01 L1432.14 1179.61 L1452.6 1208.73 L1473.05 1251.67 L1493.51 1286.75 L1513.97 1310.88 L1534.43 1331.81 L1554.89 1344.06 L1575.35 1360.59 L1595.8 1379.77 L1616.26 1394.28 L1636.72 1406.72 L1657.18 1415.92 L1677.64 1423.34 L1698.09 1429.45 L1718.55 1433.68 L1739.01 1436.6 L1759.47 1438.3 L1779.93 1440.02 L1800.39 1441.77 L1820.84 1443.13 L1841.3 1444.09 L1861.76 1445.35 L1882.22 1445.72 L1902.68 1445.62 L1923.13 1444.83 L1943.59 1443.07 L1964.05 1440.94 L1984.51 1436.49 L2004.97 1428.41 L2025.43 1412.76 L2045.88 1386.54 L2066.34 1356.49 L2086.8 1310.67 L2107.26 1284.13 L2127.72 1302.62 L2148.17 1317.35 L2168.63 1329.45 L2189.09 1340.45 L2209.55 1355.3 L2230.01 1367.4 L2250.47 1386.12 L2270.92 1398.16 L2291.38 1408.17 L2291.38 1172.32 L2270.92 1105.84 L2250.47 995.399 L2230.01 863.06 L2209.55 700.623 L2189.09 547.668 L2168.63 383.897 L2148.17 396.266 L2127.72 689.631 L2107.26 791.182 L2086.8 805.657 L2066.34 777.71 L2045.88 822.795 L2025.43 888.014 L2004.97 936.027 L1984.51 949.902 L1964.05 946.34 L1943.59 930.728 L1923.13 979.522 L1902.68 1062.27 L1882.22 1132.36 L1861.76 1161.7 L1841.3 1207.03 L1820.84 1250.31 L1800.39 1268.35 L1779.93 1268.7 L1759.47 1301.04 L1739.01 1310.7 L1718.55 1307.45 L1698.09 1304.91 L1677.64 1309.21 L1657.18 1288.78 L1636.72 1286.74 L1616.26 1274.44 L1595.8 1240.77 L1575.35 1186.17 L1554.89 1122.11 L1534.43 1079.39 L1513.97 986.772 L1493.51 928.348 L1473.05 890.258 L1452.6 803.198 L1432.14 764.727 L1411.68 688.978 L1391.22 645.612 L1370.76 574.831 L1350.31 598.027 L1329.85 772.657 L1309.39 984.285 L1288.93 1117.15 L1268.47 1193.62 L1248.02 1233.88 L1227.56 1280.94 L1207.1 1308.96 L1186.64 1338.32 L1166.18 1350.16 L1145.72 1364.03 L1125.27 1373.67 L1104.81 1380.4 L1084.35 1380.55 L1063.89 1372.23 L1043.43 1360.82 L1022.98 1353.86 L1002.52 1340.55 L982.059 1315.64 L961.601 1290.08 L941.143 1247.53 L920.685 1206.88 L900.226 1169.74 L879.768 1112.7 L859.31 1052.26 L838.852 1007.91 L818.394 962.868 L797.936 927.387 L777.477 892.472 L757.019 851.841 L736.561 799.033 L716.103 741.798 L695.645 715.119 L675.187 737.984 L654.728 865.639 L634.27 1042.38 L613.812 1202.9 L593.354 1291.46 L572.896 1336.66 L552.438 1369.06 L531.979 1389.76 L511.521 1399.34 L491.063 1405.71 L470.605 1407.68 L450.147 1412.34 L429.689 1411.7 L409.23 1408.91 L388.772 1404.35 L368.314 1397.12 L347.856 1390.14 L327.398 1381.8 L306.94 1372.72 L286.481 1360.8 L266.023 1341.09 L245.565 1321.83  Z" fill="#e26f46" fill-rule="evenodd" fill-opacity="0.5"/>
<polyline clip-path="url(#clip841)" style="stroke:#e26f46; stroke-linecap:round; stroke-linejoin:round; stroke-width:12; stroke-opacity:1; fill:none" points="245.565,1321.83 266.023,1345.7 286.481,1363.92 306.94,1379.39 327.398,1391.89 347.856,1400.95 368.314,1407.48 388.772,1412.5 409.23,1417.32 429.689,1418.54 450.147,1420.45 470.605,1421.44 491.063,1419.9 511.521,1417.99 531.979,1413.29 552.438,1405.79 572.896,1394.21 593.354,1370.67 613.812,1336.28 634.27,1280.38 654.728,1195.34 675.187,1072.61 695.645,934.099 716.103,853.344 736.561,881.915 757.019,876.022 777.477,940.704 797.936,1010.51 818.394,1090.81 838.852,1160.84 859.31,1220.84 879.768,1264.7 900.226,1297.77 920.685,1329.08 941.143,1352.01 961.601,1370.96 982.059,1384.22 1002.52,1394.1 1022.98,1401.77 1043.43,1409.54 1063.89,1414.41 1084.35,1417.66 1104.81,1420.01 1125.27,1421.2 1145.72,1420.41 1166.18,1418.45 1186.64,1414.67 1207.1,1412.99 1227.56,1404.16 1248.02,1387.41 1268.47,1362.97 1288.93,1316.5 1309.39,1217.29 1329.85,1152.18 1350.31,1084.41 1370.76,1008.78 1391.22,869.412 1411.68,906.598 1432.14,981.705 1452.6,993.959 1473.05,1054.45 1493.51,1122.42 1513.97,1176.85 1534.43,1223.47 1554.89,1269.73 1575.35,1308.89 1595.8,1328.38 1616.26,1352.51 1636.72,1368.2 1657.18,1382.08 1677.64,1393.61 1698.09,1402.94 1718.55,1410.05 1739.01,1415.83 1759.47,1420.22 1779.93,1423.04 1800.39,1425.17 1820.84,1426.32 1841.3,1426.44 1861.76,1425.66 1882.22,1423.06 1902.68,1416.54 1923.13,1401.08 1943.59,1381.55 1964.05,1365.26 1984.51,1318.54 2004.97,1244.78 2025.43,1177.35 2045.88,1121.66 2066.34,1149.21 2086.8,1127.33 2107.26,1044.39 2127.72,986.114 2148.17,1065.16 2168.63,1110.27 2189.09,1165.57 2209.55,1199.2 2230.01,1225.57 2250.47,1265.22 2270.92,1295.07 2291.38,1317.85 "/>
</svg>
