<?xml version="1.0" encoding="utf-8"?>
<svg xmlns="http://www.w3.org/2000/svg" xmlns:xlink="http://www.w3.org/1999/xlink" width="600" height="400" viewBox="0 0 2400 1600">
<defs>
  <clipPath id="clip590">
    <rect x="0" y="0" width="2400" height="1600"/>
  </clipPath>
</defs>
<path clip-path="url(#clip590)" d="M0 1600 L2400 1600 L2400 0 L0 0  Z" fill="#ffffff" fill-rule="evenodd" fill-opacity="1"/>
<defs>
  <clipPath id="clip591">
    <rect x="155" y="47" width="2198" height="1440"/>
  </clipPath>
</defs>
<path clip-path="url(#clip590)" d="M155.765 1486.45 L2352.76 1486.45 L2352.76 47.2441 L155.765 47.2441  Z" fill="#ffffff" fill-rule="evenodd" fill-opacity="1"/>
<polyline clip-path="url(#clip591)" style="stroke:#000000; stroke-linecap:round; stroke-linejoin:round; stroke-width:2; stroke-opacity:0.1; fill:none" points="217.944,1486.45 217.944,47.2441 "/>
<polyline clip-path="url(#clip591)" style="stroke:#000000; stroke-linecap:round; stroke-linejoin:round; stroke-width:2; stroke-opacity:0.1; fill:none" points="736.102,1486.45 736.102,47.2441 "/>
<polyline clip-path="url(#clip591)" style="stroke:#000000; stroke-linecap:round; stroke-linejoin:round; stroke-width:2; stroke-opacity:0.1; fill:none" points="1254.26,1486.45 1254.26,47.2441 "/>
<polyline clip-path="url(#clip591)" style="stroke:#000000; stroke-linecap:round; stroke-linejoin:round; stroke-width:2; stroke-opacity:0.1; fill:none" points="1772.42,1486.45 1772.42,47.2441 "/>
<polyline clip-path="url(#clip591)" style="stroke:#000000; stroke-linecap:round; stroke-linejoin:round; stroke-width:2; stroke-opacity:0.1; fill:none" points="2290.58,1486.45 2290.58,47.2441 "/>
<polyline clip-path="url(#clip591)" style="stroke:#000000; stroke-linecap:round; stroke-linejoin:round; stroke-width:2; stroke-opacity:0.1; fill:none" points="155.765,1322.36 2352.76,1322.36 "/>
<polyline clip-path="url(#clip591)" style="stroke:#000000; stroke-linecap:round; stroke-linejoin:round; stroke-width:2; stroke-opacity:0.1; fill:none" points="155.765,1116.04 2352.76,1116.04 "/>
<polyline clip-path="url(#clip591)" style="stroke:#000000; stroke-linecap:round; stroke-linejoin:round; stroke-width:2; stroke-opacity:0.1; fill:none" points="155.765,909.729 2352.76,909.729 "/>
<polyline clip-path="url(#clip591)" style="stroke:#000000; stroke-linecap:round; stroke-linejoin:round; stroke-width:2; stroke-opacity:0.1; fill:none" points="155.765,703.415 2352.76,703.415 "/>
<polyline clip-path="url(#clip591)" style="stroke:#000000; stroke-linecap:round; stroke-linejoin:round; stroke-width:2; stroke-opacity:0.1; fill:none" points="155.765,497.101 2352.76,497.101 "/>
<polyline clip-path="url(#clip591)" style="stroke:#000000; stroke-linecap:round; stroke-linejoin:round; stroke-width:2; stroke-opacity:0.1; fill:none" points="155.765,290.787 2352.76,290.787 "/>
<polyline clip-path="url(#clip591)" style="stroke:#000000; stroke-linecap:round; stroke-linejoin:round; stroke-width:2; stroke-opacity:0.1; fill:none" points="155.765,84.4733 2352.76,84.4733 "/>
<polyline clip-path="url(#clip590)" style="stroke:#000000; stroke-linecap:round; stroke-linejoin:round; stroke-width:4; stroke-opacity:1; fill:none" points="155.765,1486.45 2352.76,1486.45 "/>
<polyline clip-path="url(#clip590)" style="stroke:#000000; stroke-linecap:round; stroke-linejoin:round; stroke-width:4; stroke-opacity:1; fill:none" points="217.944,1486.45 217.944,1467.55 "/>
<polyline clip-path="url(#clip590)" style="stroke:#000000; stroke-linecap:round; stroke-linejoin:round; stroke-width:4; stroke-opacity:1; fill:none" points="736.102,1486.45 736.102,1467.55 "/>
<polyline clip-path="url(#clip590)" style="stroke:#000000; stroke-linecap:round; stroke-linejoin:round; stroke-width:4; stroke-opacity:1; fill:none" points="1254.26,1486.45 1254.26,1467.55 "/>
<polyline clip-path="url(#clip590)" style="stroke:#000000; stroke-linecap:round; stroke-linejoin:round; stroke-width:4; stroke-opacity:1; fill:none" points="1772.42,1486.45 1772.42,1467.55 "/>
<polyline clip-path="url(#clip590)" style="stroke:#000000; stroke-linecap:round; stroke-linejoin:round; stroke-width:4; stroke-opacity:1; fill:none" points="2290.58,1486.45 2290.58,1467.55 "/>
<path clip-path="url(#clip590)" d="M180.247 1517.37 Q176.636 1517.37 174.808 1520.93 Q173.002 1524.47 173.002 1531.6 Q173.002 1538.71 174.808 1542.27 Q176.636 1545.82 180.247 1545.82 Q183.882 1545.82 185.687 1542.27 Q187.516 1538.71 187.516 1531.6 Q187.516 1524.47 185.687 1520.93 Q183.882 1517.37 180.247 1517.37 M180.247 1513.66 Q186.057 1513.66 189.113 1518.27 Q192.192 1522.85 192.192 1531.6 Q192.192 1540.33 189.113 1544.94 Q186.057 1549.52 180.247 1549.52 Q174.437 1549.52 171.358 1544.94 Q168.303 1540.33 168.303 1531.6 Q168.303 1522.85 171.358 1518.27 Q174.437 1513.66 180.247 1513.66 Z" fill="#000000" fill-rule="nonzero" fill-opacity="1" /><path clip-path="url(#clip590)" d="M200.409 1542.97 L205.294 1542.97 L205.294 1548.85 L200.409 1548.85 L200.409 1542.97 Z" fill="#000000" fill-rule="nonzero" fill-opacity="1" /><path clip-path="url(#clip590)" d="M225.479 1517.37 Q221.867 1517.37 220.039 1520.93 Q218.233 1524.47 218.233 1531.6 Q218.233 1538.71 220.039 1542.27 Q221.867 1545.82 225.479 1545.82 Q229.113 1545.82 230.918 1542.27 Q232.747 1538.71 232.747 1531.6 Q232.747 1524.47 230.918 1520.93 Q229.113 1517.37 225.479 1517.37 M225.479 1513.66 Q231.289 1513.66 234.344 1518.27 Q237.423 1522.85 237.423 1531.6 Q237.423 1540.33 234.344 1544.94 Q231.289 1549.52 225.479 1549.52 Q219.668 1549.52 216.59 1544.94 Q213.534 1540.33 213.534 1531.6 Q213.534 1522.85 216.59 1518.27 Q219.668 1513.66 225.479 1513.66 Z" fill="#000000" fill-rule="nonzero" fill-opacity="1" /><path clip-path="url(#clip590)" d="M255.64 1517.37 Q252.029 1517.37 250.201 1520.93 Q248.395 1524.47 248.395 1531.6 Q248.395 1538.71 250.201 1542.27 Q252.029 1545.82 255.64 1545.82 Q259.275 1545.82 261.08 1542.27 Q262.909 1538.71 262.909 1531.6 Q262.909 1524.47 261.08 1520.93 Q259.275 1517.37 255.64 1517.37 M255.64 1513.66 Q261.451 1513.66 264.506 1518.27 Q267.585 1522.85 267.585 1531.6 Q267.585 1540.33 264.506 1544.94 Q261.451 1549.52 255.64 1549.52 Q249.83 1549.52 246.752 1544.94 Q243.696 1540.33 243.696 1531.6 Q243.696 1522.85 246.752 1518.27 Q249.83 1513.66 255.64 1513.66 Z" fill="#000000" fill-rule="nonzero" fill-opacity="1" /><path clip-path="url(#clip590)" d="M698.903 1517.37 Q695.292 1517.37 693.463 1520.93 Q691.658 1524.47 691.658 1531.6 Q691.658 1538.71 693.463 1542.27 Q695.292 1545.82 698.903 1545.82 Q702.538 1545.82 704.343 1542.27 Q706.172 1538.71 706.172 1531.6 Q706.172 1524.47 704.343 1520.93 Q702.538 1517.37 698.903 1517.37 M698.903 1513.66 Q704.713 1513.66 707.769 1518.27 Q710.848 1522.85 710.848 1531.6 Q710.848 1540.33 707.769 1544.94 Q704.713 1549.52 698.903 1549.52 Q693.093 1549.52 690.014 1544.94 Q686.959 1540.33 686.959 1531.6 Q686.959 1522.85 690.014 1518.27 Q693.093 1513.66 698.903 1513.66 Z" fill="#000000" fill-rule="nonzero" fill-opacity="1" /><path clip-path="url(#clip590)" d="M719.065 1542.97 L723.949 1542.97 L723.949 1548.85 L719.065 1548.85 L719.065 1542.97 Z" fill="#000000" fill-rule="nonzero" fill-opacity="1" /><path clip-path="url(#clip590)" d="M738.162 1544.91 L754.482 1544.91 L754.482 1548.85 L732.537 1548.85 L732.537 1544.91 Q735.199 1542.16 739.783 1537.53 Q744.389 1532.88 745.57 1531.53 Q747.815 1529.01 748.695 1527.27 Q749.597 1525.51 749.597 1523.82 Q749.597 1521.07 747.653 1519.33 Q745.732 1517.6 742.63 1517.6 Q740.431 1517.6 737.977 1518.36 Q735.547 1519.13 732.769 1520.68 L732.769 1515.95 Q735.593 1514.82 738.047 1514.24 Q740.5 1513.66 742.537 1513.66 Q747.908 1513.66 751.102 1516.35 Q754.296 1519.03 754.296 1523.52 Q754.296 1525.65 753.486 1527.57 Q752.699 1529.47 750.593 1532.07 Q750.014 1532.74 746.912 1535.95 Q743.81 1539.15 738.162 1544.91 Z" fill="#000000" fill-rule="nonzero" fill-opacity="1" /><path clip-path="url(#clip590)" d="M764.343 1514.29 L782.699 1514.29 L782.699 1518.22 L768.625 1518.22 L768.625 1526.7 Q769.644 1526.35 770.662 1526.19 Q771.681 1526 772.699 1526 Q778.486 1526 781.866 1529.17 Q785.245 1532.34 785.245 1537.76 Q785.245 1543.34 781.773 1546.44 Q778.301 1549.52 771.982 1549.52 Q769.806 1549.52 767.537 1549.15 Q765.292 1548.78 762.884 1548.04 L762.884 1543.34 Q764.968 1544.47 767.19 1545.03 Q769.412 1545.58 771.889 1545.58 Q775.894 1545.58 778.232 1543.48 Q780.57 1541.37 780.57 1537.76 Q780.57 1534.15 778.232 1532.04 Q775.894 1529.94 771.889 1529.94 Q770.014 1529.94 768.139 1530.35 Q766.287 1530.77 764.343 1531.65 L764.343 1514.29 Z" fill="#000000" fill-rule="nonzero" fill-opacity="1" /><path clip-path="url(#clip590)" d="M1216.56 1517.37 Q1212.95 1517.37 1211.12 1520.93 Q1209.32 1524.47 1209.32 1531.6 Q1209.32 1538.71 1211.12 1542.27 Q1212.95 1545.82 1216.56 1545.82 Q1220.2 1545.82 1222 1542.27 Q1223.83 1538.71 1223.83 1531.6 Q1223.83 1524.47 1222 1520.93 Q1220.2 1517.37 1216.56 1517.37 M1216.56 1513.66 Q1222.37 1513.66 1225.43 1518.27 Q1228.51 1522.85 1228.51 1531.6 Q1228.51 1540.33 1225.43 1544.94 Q1222.37 1549.52 1216.56 1549.52 Q1210.75 1549.52 1207.68 1544.94 Q1204.62 1540.33 1204.62 1531.6 Q1204.62 1522.85 1207.68 1518.27 Q1210.75 1513.66 1216.56 1513.66 Z" fill="#000000" fill-rule="nonzero" fill-opacity="1" /><path clip-path="url(#clip590)" d="M1236.73 1542.97 L1241.61 1542.97 L1241.61 1548.85 L1236.73 1548.85 L1236.73 1542.97 Z" fill="#000000" fill-rule="nonzero" fill-opacity="1" /><path clip-path="url(#clip590)" d="M1251.84 1514.29 L1270.2 1514.29 L1270.2 1518.22 L1256.12 1518.22 L1256.12 1526.7 Q1257.14 1526.35 1258.16 1526.19 Q1259.18 1526 1260.2 1526 Q1265.98 1526 1269.36 1529.17 Q1272.74 1532.34 1272.74 1537.76 Q1272.74 1543.34 1269.27 1546.44 Q1265.8 1549.52 1259.48 1549.52 Q1257.3 1549.52 1255.04 1549.15 Q1252.79 1548.78 1250.38 1548.04 L1250.38 1543.34 Q1252.47 1544.47 1254.69 1545.03 Q1256.91 1545.58 1259.39 1545.58 Q1263.39 1545.58 1265.73 1543.48 Q1268.07 1541.37 1268.07 1537.76 Q1268.07 1534.15 1265.73 1532.04 Q1263.39 1529.94 1259.39 1529.94 Q1257.51 1529.94 1255.64 1530.35 Q1253.79 1530.77 1251.84 1531.65 L1251.84 1514.29 Z" fill="#000000" fill-rule="nonzero" fill-opacity="1" /><path clip-path="url(#clip590)" d="M1291.96 1517.37 Q1288.35 1517.37 1286.52 1520.93 Q1284.71 1524.47 1284.71 1531.6 Q1284.71 1538.71 1286.52 1542.27 Q1288.35 1545.82 1291.96 1545.82 Q1295.59 1545.82 1297.4 1542.27 Q1299.23 1538.71 1299.23 1531.6 Q1299.23 1524.47 1297.4 1520.93 Q1295.59 1517.37 1291.96 1517.37 M1291.96 1513.66 Q1297.77 1513.66 1300.82 1518.27 Q1303.9 1522.85 1303.9 1531.6 Q1303.9 1540.33 1300.82 1544.94 Q1297.77 1549.52 1291.96 1549.52 Q1286.15 1549.52 1283.07 1544.94 Q1280.01 1540.33 1280.01 1531.6 Q1280.01 1522.85 1283.07 1518.27 Q1286.15 1513.66 1291.96 1513.66 Z" fill="#000000" fill-rule="nonzero" fill-opacity="1" /><path clip-path="url(#clip590)" d="M1735.22 1517.37 Q1731.61 1517.37 1729.78 1520.93 Q1727.97 1524.47 1727.97 1531.6 Q1727.97 1538.71 1729.78 1542.27 Q1731.61 1545.82 1735.22 1545.82 Q1738.85 1545.82 1740.66 1542.27 Q1742.49 1538.71 1742.49 1531.6 Q1742.49 1524.47 1740.66 1520.93 Q1738.85 1517.37 1735.22 1517.37 M1735.22 1513.66 Q1741.03 1513.66 1744.09 1518.27 Q1747.16 1522.85 1747.16 1531.6 Q1747.16 1540.33 1744.09 1544.94 Q1741.03 1549.52 1735.22 1549.52 Q1729.41 1549.52 1726.33 1544.94 Q1723.28 1540.33 1723.28 1531.6 Q1723.28 1522.85 1726.33 1518.27 Q1729.41 1513.66 1735.22 1513.66 Z" fill="#000000" fill-rule="nonzero" fill-opacity="1" /><path clip-path="url(#clip590)" d="M1755.38 1542.97 L1760.27 1542.97 L1760.27 1548.85 L1755.38 1548.85 L1755.38 1542.97 Z" fill="#000000" fill-rule="nonzero" fill-opacity="1" /><path clip-path="url(#clip590)" d="M1769.27 1514.29 L1791.49 1514.29 L1791.49 1516.28 L1778.95 1548.85 L1774.06 1548.85 L1785.87 1518.22 L1769.27 1518.22 L1769.27 1514.29 Z" fill="#000000" fill-rule="nonzero" fill-opacity="1" /><path clip-path="url(#clip590)" d="M1800.66 1514.29 L1819.02 1514.29 L1819.02 1518.22 L1804.94 1518.22 L1804.94 1526.7 Q1805.96 1526.35 1806.98 1526.19 Q1808 1526 1809.02 1526 Q1814.8 1526 1818.18 1529.17 Q1821.56 1532.34 1821.56 1537.76 Q1821.56 1543.34 1818.09 1546.44 Q1814.62 1549.52 1808.3 1549.52 Q1806.12 1549.52 1803.85 1549.15 Q1801.61 1548.78 1799.2 1548.04 L1799.2 1543.34 Q1801.28 1544.47 1803.51 1545.03 Q1805.73 1545.58 1808.21 1545.58 Q1812.21 1545.58 1814.55 1543.48 Q1816.89 1541.37 1816.89 1537.76 Q1816.89 1534.15 1814.55 1532.04 Q1812.21 1529.94 1808.21 1529.94 Q1806.33 1529.94 1804.46 1530.35 Q1802.6 1530.77 1800.66 1531.65 L1800.66 1514.29 Z" fill="#000000" fill-rule="nonzero" fill-opacity="1" /><path clip-path="url(#clip590)" d="M2242.65 1544.91 L2250.29 1544.91 L2250.29 1518.55 L2241.98 1520.21 L2241.98 1515.95 L2250.24 1514.29 L2254.92 1514.29 L2254.92 1544.91 L2262.56 1544.91 L2262.56 1548.85 L2242.65 1548.85 L2242.65 1544.91 Z" fill="#000000" fill-rule="nonzero" fill-opacity="1" /><path clip-path="url(#clip590)" d="M2272 1542.97 L2276.88 1542.97 L2276.88 1548.85 L2272 1548.85 L2272 1542.97 Z" fill="#000000" fill-rule="nonzero" fill-opacity="1" /><path clip-path="url(#clip590)" d="M2297.07 1517.37 Q2293.46 1517.37 2291.63 1520.93 Q2289.82 1524.47 2289.82 1531.6 Q2289.82 1538.71 2291.63 1542.27 Q2293.46 1545.82 2297.07 1545.82 Q2300.7 1545.82 2302.51 1542.27 Q2304.34 1538.71 2304.34 1531.6 Q2304.34 1524.47 2302.51 1520.93 Q2300.7 1517.37 2297.07 1517.37 M2297.07 1513.66 Q2302.88 1513.66 2305.94 1518.27 Q2309.01 1522.85 2309.01 1531.6 Q2309.01 1540.33 2305.94 1544.94 Q2302.88 1549.52 2297.07 1549.52 Q2291.26 1549.52 2288.18 1544.94 Q2285.13 1540.33 2285.13 1531.6 Q2285.13 1522.85 2288.18 1518.27 Q2291.26 1513.66 2297.07 1513.66 Z" fill="#000000" fill-rule="nonzero" fill-opacity="1" /><path clip-path="url(#clip590)" d="M2327.23 1517.37 Q2323.62 1517.37 2321.79 1520.93 Q2319.99 1524.47 2319.99 1531.6 Q2319.99 1538.71 2321.79 1542.27 Q2323.62 1545.82 2327.23 1545.82 Q2330.87 1545.82 2332.67 1542.27 Q2334.5 1538.71 2334.5 1531.6 Q2334.5 1524.47 2332.67 1520.93 Q2330.87 1517.37 2327.23 1517.37 M2327.23 1513.66 Q2333.04 1513.66 2336.1 1518.27 Q2339.18 1522.85 2339.18 1531.6 Q2339.18 1540.33 2336.1 1544.94 Q2333.04 1549.52 2327.23 1549.52 Q2321.42 1549.52 2318.34 1544.94 Q2315.29 1540.33 2315.29 1531.6 Q2315.29 1522.85 2318.34 1518.27 Q2321.42 1513.66 2327.23 1513.66 Z" fill="#000000" fill-rule="nonzero" fill-opacity="1" /><polyline clip-path="url(#clip590)" style="stroke:#000000; stroke-linecap:round; stroke-linejoin:round; stroke-width:4; stroke-opacity:1; fill:none" points="155.765,1486.45 155.765,47.2441 "/>
<polyline clip-path="url(#clip590)" style="stroke:#000000; stroke-linecap:round; stroke-linejoin:round; stroke-width:4; stroke-opacity:1; fill:none" points="155.765,1322.36 174.663,1322.36 "/>
<polyline clip-path="url(#clip590)" style="stroke:#000000; stroke-linecap:round; stroke-linejoin:round; stroke-width:4; stroke-opacity:1; fill:none" points="155.765,1116.04 174.663,1116.04 "/>
<polyline clip-path="url(#clip590)" style="stroke:#000000; stroke-linecap:round; stroke-linejoin:round; stroke-width:4; stroke-opacity:1; fill:none" points="155.765,909.729 174.663,909.729 "/>
<polyline clip-path="url(#clip590)" style="stroke:#000000; stroke-linecap:round; stroke-linejoin:round; stroke-width:4; stroke-opacity:1; fill:none" points="155.765,703.415 174.663,703.415 "/>
<polyline clip-path="url(#clip590)" style="stroke:#000000; stroke-linecap:round; stroke-linejoin:round; stroke-width:4; stroke-opacity:1; fill:none" points="155.765,497.101 174.663,497.101 "/>
<polyline clip-path="url(#clip590)" style="stroke:#000000; stroke-linecap:round; stroke-linejoin:round; stroke-width:4; stroke-opacity:1; fill:none" points="155.765,290.787 174.663,290.787 "/>
<polyline clip-path="url(#clip590)" style="stroke:#000000; stroke-linecap:round; stroke-linejoin:round; stroke-width:4; stroke-opacity:1; fill:none" points="155.765,84.4733 174.663,84.4733 "/>
<path clip-path="url(#clip590)" d="M63.5847 1308.16 Q59.9736 1308.16 58.1449 1311.72 Q56.3393 1315.26 56.3393 1322.39 Q56.3393 1329.5 58.1449 1333.06 Q59.9736 1336.6 63.5847 1336.6 Q67.2189 1336.6 69.0244 1333.06 Q70.8531 1329.5 70.8531 1322.39 Q70.8531 1315.26 69.0244 1311.72 Q67.2189 1308.16 63.5847 1308.16 M63.5847 1304.45 Q69.3948 1304.45 72.4503 1309.06 Q75.529 1313.64 75.529 1322.39 Q75.529 1331.12 72.4503 1335.73 Q69.3948 1340.31 63.5847 1340.31 Q57.7745 1340.31 54.6958 1335.73 Q51.6403 1331.12 51.6403 1322.39 Q51.6403 1313.64 54.6958 1309.06 Q57.7745 1304.45 63.5847 1304.45 Z" fill="#000000" fill-rule="nonzero" fill-opacity="1" /><path clip-path="url(#clip590)" d="M83.7466 1333.76 L88.6308 1333.76 L88.6308 1339.64 L83.7466 1339.64 L83.7466 1333.76 Z" fill="#000000" fill-rule="nonzero" fill-opacity="1" /><path clip-path="url(#clip590)" d="M98.8622 1305.08 L117.219 1305.08 L117.219 1309.01 L103.145 1309.01 L103.145 1317.48 Q104.163 1317.14 105.182 1316.98 Q106.2 1316.79 107.219 1316.79 Q113.006 1316.79 116.385 1319.96 Q119.765 1323.13 119.765 1328.55 Q119.765 1334.13 116.293 1337.23 Q112.82 1340.31 106.501 1340.31 Q104.325 1340.31 102.057 1339.94 Q99.8113 1339.57 97.4039 1338.83 L97.4039 1334.13 Q99.4872 1335.26 101.709 1335.82 Q103.932 1336.37 106.408 1336.37 Q110.413 1336.37 112.751 1334.27 Q115.089 1332.16 115.089 1328.55 Q115.089 1324.94 112.751 1322.83 Q110.413 1320.73 106.408 1320.73 Q104.534 1320.73 102.659 1321.14 Q100.807 1321.56 98.8622 1322.44 L98.8622 1305.08 Z" fill="#000000" fill-rule="nonzero" fill-opacity="1" /><path clip-path="url(#clip590)" d="M53.3995 1129.39 L61.0384 1129.39 L61.0384 1103.02 L52.7282 1104.69 L52.7282 1100.43 L60.9921 1098.76 L65.668 1098.76 L65.668 1129.39 L73.3068 1129.39 L73.3068 1133.32 L53.3995 1133.32 L53.3995 1129.39 Z" fill="#000000" fill-rule="nonzero" fill-opacity="1" /><path clip-path="url(#clip590)" d="M82.7512 1127.44 L87.6354 1127.44 L87.6354 1133.32 L82.7512 1133.32 L82.7512 1127.44 Z" fill="#000000" fill-rule="nonzero" fill-opacity="1" /><path clip-path="url(#clip590)" d="M107.821 1101.84 Q104.209 1101.84 102.381 1105.41 Q100.575 1108.95 100.575 1116.08 Q100.575 1123.18 102.381 1126.75 Q104.209 1130.29 107.821 1130.29 Q111.455 1130.29 113.26 1126.75 Q115.089 1123.18 115.089 1116.08 Q115.089 1108.95 113.26 1105.41 Q111.455 1101.84 107.821 1101.84 M107.821 1098.14 Q113.631 1098.14 116.686 1102.74 Q119.765 1107.33 119.765 1116.08 Q119.765 1124.8 116.686 1129.41 Q113.631 1133.99 107.821 1133.99 Q102.01 1133.99 98.9317 1129.41 Q95.8761 1124.8 95.8761 1116.08 Q95.8761 1107.33 98.9317 1102.74 Q102.01 1098.14 107.821 1098.14 Z" fill="#000000" fill-rule="nonzero" fill-opacity="1" /><path clip-path="url(#clip590)" d="M54.3949 923.074 L62.0337 923.074 L62.0337 896.708 L53.7236 898.375 L53.7236 894.116 L61.9874 892.449 L66.6633 892.449 L66.6633 923.074 L74.3022 923.074 L74.3022 927.009 L54.3949 927.009 L54.3949 923.074 Z" fill="#000000" fill-rule="nonzero" fill-opacity="1" /><path clip-path="url(#clip590)" d="M83.7466 921.13 L88.6308 921.13 L88.6308 927.009 L83.7466 927.009 L83.7466 921.13 Z" fill="#000000" fill-rule="nonzero" fill-opacity="1" /><path clip-path="url(#clip590)" d="M98.8622 892.449 L117.219 892.449 L117.219 896.384 L103.145 896.384 L103.145 904.857 Q104.163 904.509 105.182 904.347 Q106.2 904.162 107.219 904.162 Q113.006 904.162 116.385 907.333 Q119.765 910.505 119.765 915.921 Q119.765 921.5 116.293 924.602 Q112.82 927.68 106.501 927.68 Q104.325 927.68 102.057 927.31 Q99.8113 926.94 97.4039 926.199 L97.4039 921.5 Q99.4872 922.634 101.709 923.19 Q103.932 923.745 106.408 923.745 Q110.413 923.745 112.751 921.639 Q115.089 919.532 115.089 915.921 Q115.089 912.31 112.751 910.204 Q110.413 908.097 106.408 908.097 Q104.534 908.097 102.659 908.514 Q100.807 908.931 98.8622 909.81 L98.8622 892.449 Z" fill="#000000" fill-rule="nonzero" fill-opacity="1" /><path clip-path="url(#clip590)" d="M56.6171 716.76 L72.9365 716.76 L72.9365 720.695 L50.9921 720.695 L50.9921 716.76 Q53.6541 714.005 58.2375 709.376 Q62.8439 704.723 64.0245 703.38 Q66.2698 700.857 67.1494 699.121 Q68.0522 697.362 68.0522 695.672 Q68.0522 692.918 66.1078 691.181 Q64.1865 689.445 61.0847 689.445 Q58.8856 689.445 56.4319 690.209 Q54.0014 690.973 51.2236 692.524 L51.2236 687.802 Q54.0477 686.668 56.5014 686.089 Q58.955 685.51 60.9921 685.51 Q66.3624 685.51 69.5568 688.195 Q72.7513 690.881 72.7513 695.371 Q72.7513 697.501 71.9411 699.422 Q71.1541 701.32 69.0476 703.913 Q68.4689 704.584 65.367 707.802 Q62.2652 710.996 56.6171 716.76 Z" fill="#000000" fill-rule="nonzero" fill-opacity="1" /><path clip-path="url(#clip590)" d="M82.7512 714.816 L87.6354 714.816 L87.6354 720.695 L82.7512 720.695 L82.7512 714.816 Z" fill="#000000" fill-rule="nonzero" fill-opacity="1" /><path clip-path="url(#clip590)" d="M107.821 689.214 Q104.209 689.214 102.381 692.779 Q100.575 696.32 100.575 703.45 Q100.575 710.556 102.381 714.121 Q104.209 717.663 107.821 717.663 Q111.455 717.663 113.26 714.121 Q115.089 710.556 115.089 703.45 Q115.089 696.32 113.26 692.779 Q111.455 689.214 107.821 689.214 M107.821 685.51 Q113.631 685.51 116.686 690.117 Q119.765 694.7 119.765 703.45 Q119.765 712.177 116.686 716.783 Q113.631 721.367 107.821 721.367 Q102.01 721.367 98.9317 716.783 Q95.8761 712.177 95.8761 703.45 Q95.8761 694.7 98.9317 690.117 Q102.01 685.51 107.821 685.51 Z" fill="#000000" fill-rule="nonzero" fill-opacity="1" /><path clip-path="url(#clip590)" d="M57.6125 510.446 L73.9318 510.446 L73.9318 514.381 L51.9875 514.381 L51.9875 510.446 Q54.6495 507.691 59.2328 503.062 Q63.8393 498.409 65.0198 497.067 Q67.2652 494.543 68.1448 492.807 Q69.0476 491.048 69.0476 489.358 Q69.0476 486.604 67.1032 484.868 Q65.1819 483.131 62.08 483.131 Q59.881 483.131 57.4273 483.895 Q54.9967 484.659 52.219 486.21 L52.219 481.488 Q55.043 480.354 57.4967 479.775 Q59.9504 479.196 61.9874 479.196 Q67.3578 479.196 70.5522 481.881 Q73.7466 484.567 73.7466 489.057 Q73.7466 491.187 72.9365 493.108 Q72.1494 495.006 70.0429 497.599 Q69.4642 498.27 66.3624 501.488 Q63.2606 504.682 57.6125 510.446 Z" fill="#000000" fill-rule="nonzero" fill-opacity="1" /><path clip-path="url(#clip590)" d="M83.7466 508.502 L88.6308 508.502 L88.6308 514.381 L83.7466 514.381 L83.7466 508.502 Z" fill="#000000" fill-rule="nonzero" fill-opacity="1" /><path clip-path="url(#clip590)" d="M98.8622 479.821 L117.219 479.821 L117.219 483.756 L103.145 483.756 L103.145 492.229 Q104.163 491.881 105.182 491.719 Q106.2 491.534 107.219 491.534 Q113.006 491.534 116.385 494.705 Q119.765 497.877 119.765 503.293 Q119.765 508.872 116.293 511.974 Q112.82 515.053 106.501 515.053 Q104.325 515.053 102.057 514.682 Q99.8113 514.312 97.4039 513.571 L97.4039 508.872 Q99.4872 510.006 101.709 510.562 Q103.932 511.117 106.408 511.117 Q110.413 511.117 112.751 509.011 Q115.089 506.904 115.089 503.293 Q115.089 499.682 112.751 497.576 Q110.413 495.469 106.408 495.469 Q104.534 495.469 102.659 495.886 Q100.807 496.303 98.8622 497.182 L98.8622 479.821 Z" fill="#000000" fill-rule="nonzero" fill-opacity="1" /><path clip-path="url(#clip590)" d="M66.7559 289.433 Q70.1124 290.151 71.9874 292.419 Q73.8855 294.688 73.8855 298.021 Q73.8855 303.137 70.367 305.938 Q66.8485 308.739 60.3671 308.739 Q58.1912 308.739 55.8764 308.299 Q53.5847 307.882 51.131 307.026 L51.131 302.512 Q53.0754 303.646 55.3903 304.225 Q57.7051 304.803 60.2282 304.803 Q64.6263 304.803 66.918 303.067 Q69.2328 301.331 69.2328 298.021 Q69.2328 294.966 67.08 293.253 Q64.9504 291.516 61.131 291.516 L57.1032 291.516 L57.1032 287.674 L61.3161 287.674 Q64.7652 287.674 66.5939 286.308 Q68.4226 284.919 68.4226 282.327 Q68.4226 279.665 66.5245 278.253 Q64.6495 276.817 61.131 276.817 Q59.2097 276.817 57.0106 277.234 Q54.8115 277.651 52.1727 278.53 L52.1727 274.364 Q54.8347 273.623 57.1495 273.253 Q59.4875 272.882 61.5476 272.882 Q66.8717 272.882 69.9735 275.313 Q73.0753 277.72 73.0753 281.841 Q73.0753 284.711 71.4318 286.702 Q69.7883 288.669 66.7559 289.433 Z" fill="#000000" fill-rule="nonzero" fill-opacity="1" /><path clip-path="url(#clip590)" d="M82.7512 302.188 L87.6354 302.188 L87.6354 308.067 L82.7512 308.067 L82.7512 302.188 Z" fill="#000000" fill-rule="nonzero" fill-opacity="1" /><path clip-path="url(#clip590)" d="M107.821 276.586 Q104.209 276.586 102.381 280.151 Q100.575 283.692 100.575 290.822 Q100.575 297.928 102.381 301.493 Q104.209 305.035 107.821 305.035 Q111.455 305.035 113.26 301.493 Q115.089 297.928 115.089 290.822 Q115.089 283.692 113.26 280.151 Q111.455 276.586 107.821 276.586 M107.821 272.882 Q113.631 272.882 116.686 277.489 Q119.765 282.072 119.765 290.822 Q119.765 299.549 116.686 304.155 Q113.631 308.739 107.821 308.739 Q102.01 308.739 98.9317 304.155 Q95.8761 299.549 95.8761 290.822 Q95.8761 282.072 98.9317 277.489 Q102.01 272.882 107.821 272.882 Z" fill="#000000" fill-rule="nonzero" fill-opacity="1" /><path clip-path="url(#clip590)" d="M67.7513 83.1192 Q71.1078 83.8368 72.9827 86.1053 Q74.8809 88.3738 74.8809 91.7071 Q74.8809 96.8228 71.3624 99.6237 Q67.8439 102.425 61.3624 102.425 Q59.1865 102.425 56.8717 101.985 Q54.5801 101.568 52.1264 100.712 L52.1264 96.1978 Q54.0708 97.3321 56.3856 97.9108 Q58.7004 98.4895 61.2236 98.4895 Q65.6217 98.4895 67.9133 96.7534 Q70.2281 95.0173 70.2281 91.7071 Q70.2281 88.6516 68.0754 86.9386 Q65.9457 85.2025 62.1263 85.2025 L58.0986 85.2025 L58.0986 81.3599 L62.3115 81.3599 Q65.7606 81.3599 67.5893 79.9942 Q69.418 78.6053 69.418 76.0127 Q69.418 73.3507 67.5198 71.9387 Q65.6448 70.5035 62.1263 70.5035 Q60.205 70.5035 58.006 70.9202 Q55.8069 71.3368 53.168 72.2165 L53.168 68.0498 Q55.8301 67.3091 58.1449 66.9387 Q60.4828 66.5683 62.543 66.5683 Q67.867 66.5683 70.9689 68.9989 Q74.0707 71.4063 74.0707 75.5266 Q74.0707 78.397 72.4272 80.3877 Q70.7837 82.3553 67.7513 83.1192 Z" fill="#000000" fill-rule="nonzero" fill-opacity="1" /><path clip-path="url(#clip590)" d="M83.7466 95.8737 L88.6308 95.8737 L88.6308 101.753 L83.7466 101.753 L83.7466 95.8737 Z" fill="#000000" fill-rule="nonzero" fill-opacity="1" /><path clip-path="url(#clip590)" d="M98.8622 67.1933 L117.219 67.1933 L117.219 71.1285 L103.145 71.1285 L103.145 79.6007 Q104.163 79.2535 105.182 79.0914 Q106.2 78.9062 107.219 78.9062 Q113.006 78.9062 116.385 82.0775 Q119.765 85.2488 119.765 90.6654 Q119.765 96.2441 116.293 99.346 Q112.82 102.425 106.501 102.425 Q104.325 102.425 102.057 102.054 Q99.8113 101.684 97.4039 100.943 L97.4039 96.2441 Q99.4872 97.3784 101.709 97.9339 Q103.932 98.4895 106.408 98.4895 Q110.413 98.4895 112.751 96.383 Q115.089 94.2765 115.089 90.6654 Q115.089 87.0544 112.751 84.9479 Q110.413 82.8414 106.408 82.8414 Q104.534 82.8414 102.659 83.2581 Q100.807 83.6747 98.8622 84.5544 L98.8622 67.1933 Z" fill="#000000" fill-rule="nonzero" fill-opacity="1" /><polyline clip-path="url(#clip591)" style="stroke:#009af9; stroke-linecap:round; stroke-linejoin:round; stroke-width:12; stroke-opacity:1; fill:none" points="217.944,1322.36 425.207,1263.69 632.47,1205.92 839.734,1186.87 1047,1191.67 1254.26,1156.74 1461.52,1098.36 1668.79,999.234 1876.05,957.796 2083.31,877.662 2290.58,715.229 "/>
<polyline clip-path="url(#clip591)" style="stroke:#000000; stroke-linecap:round; stroke-linejoin:round; stroke-width:12; stroke-opacity:1; fill:none" points="217.944,1322.36 217.944,1322.36 "/>
<polyline clip-path="url(#clip591)" style="stroke:#000000; stroke-linecap:round; stroke-linejoin:round; stroke-width:12; stroke-opacity:1; fill:none" points="425.207,1306.02 425.207,1210.05 "/>
<polyline clip-path="url(#clip591)" style="stroke:#000000; stroke-linecap:round; stroke-linejoin:round; stroke-width:12; stroke-opacity:1; fill:none" points="632.47,1288.65 632.47,1117.5 "/>
<polyline clip-path="url(#clip591)" style="stroke:#000000; stroke-linecap:round; stroke-linejoin:round; stroke-width:12; stroke-opacity:1; fill:none" points="839.734,1290.48 839.734,1020.75 "/>
<polyline clip-path="url(#clip591)" style="stroke:#000000; stroke-linecap:round; stroke-linejoin:round; stroke-width:12; stroke-opacity:1; fill:none" points="1047,1333.98 1047,905.82 "/>
<polyline clip-path="url(#clip591)" style="stroke:#000000; stroke-linecap:round; stroke-linejoin:round; stroke-width:12; stroke-opacity:1; fill:none" points="1254.26,1359.71 1254.26,880.837 "/>
<polyline clip-path="url(#clip591)" style="stroke:#000000; stroke-linecap:round; stroke-linejoin:round; stroke-width:12; stroke-opacity:1; fill:none" points="1461.52,1393.4 1461.52,683.694 "/>
<polyline clip-path="url(#clip591)" style="stroke:#000000; stroke-linecap:round; stroke-linejoin:round; stroke-width:12; stroke-opacity:1; fill:none" points="1668.79,1422.17 1668.79,622.668 "/>
<polyline clip-path="url(#clip591)" style="stroke:#000000; stroke-linecap:round; stroke-linejoin:round; stroke-width:12; stroke-opacity:1; fill:none" points="1876.05,1431 1876.05,527.28 "/>
<polyline clip-path="url(#clip591)" style="stroke:#000000; stroke-linecap:round; stroke-linejoin:round; stroke-width:12; stroke-opacity:1; fill:none" points="2083.31,1418.94 2083.31,242.283 "/>
<polyline clip-path="url(#clip591)" style="stroke:#000000; stroke-linecap:round; stroke-linejoin:round; stroke-width:12; stroke-opacity:1; fill:none" points="2290.58,1399.13 2290.58,87.9763 "/>
<line clip-path="url(#clip591)" x1="233.944" y1="1322.36" x2="201.944" y2="1322.36" style="stroke:#000000; stroke-width:12; stroke-opacity:1"/>
<line clip-path="url(#clip591)" x1="233.944" y1="1322.36" x2="201.944" y2="1322.36" style="stroke:#000000; stroke-width:12; stroke-opacity:1"/>
<line clip-path="url(#clip591)" x1="441.207" y1="1306.02" x2="409.207" y2="1306.02" style="stroke:#000000; stroke-width:12; stroke-opacity:1"/>
<line clip-path="url(#clip591)" x1="441.207" y1="1210.05" x2="409.207" y2="1210.05" style="stroke:#000000; stroke-width:12; stroke-opacity:1"/>
<line clip-path="url(#clip591)" x1="648.47" y1="1288.65" x2="616.47" y2="1288.65" style="stroke:#000000; stroke-width:12; stroke-opacity:1"/>
<line clip-path="url(#clip591)" x1="648.47" y1="1117.5" x2="616.47" y2="1117.5" style="stroke:#000000; stroke-width:12; stroke-opacity:1"/>
<line clip-path="url(#clip591)" x1="855.734" y1="1290.48" x2="823.734" y2="1290.48" style="stroke:#000000; stroke-width:12; stroke-opacity:1"/>
<line clip-path="url(#clip591)" x1="855.734" y1="1020.75" x2="823.734" y2="1020.75" style="stroke:#000000; stroke-width:12; stroke-opacity:1"/>
<line clip-path="url(#clip591)" x1="1063" y1="1333.98" x2="1031" y2="1333.98" style="stroke:#000000; stroke-width:12; stroke-opacity:1"/>
<line clip-path="url(#clip591)" x1="1063" y1="905.82" x2="1031" y2="905.82" style="stroke:#000000; stroke-width:12; stroke-opacity:1"/>
<line clip-path="url(#clip591)" x1="1270.26" y1="1359.71" x2="1238.26" y2="1359.71" style="stroke:#000000; stroke-width:12; stroke-opacity:1"/>
<line clip-path="url(#clip591)" x1="1270.26" y1="880.837" x2="1238.26" y2="880.837" style="stroke:#000000; stroke-width:12; stroke-opacity:1"/>
<line clip-path="url(#clip591)" x1="1477.52" y1="1393.4" x2="1445.52" y2="1393.4" style="stroke:#000000; stroke-width:12; stroke-opacity:1"/>
<line clip-path="url(#clip591)" x1="1477.52" y1="683.694" x2="1445.52" y2="683.694" style="stroke:#000000; stroke-width:12; stroke-opacity:1"/>
<line clip-path="url(#clip591)" x1="1684.79" y1="1422.17" x2="1652.79" y2="1422.17" style="stroke:#000000; stroke-width:12; stroke-opacity:1"/>
<line clip-path="url(#clip591)" x1="1684.79" y1="622.668" x2="1652.79" y2="622.668" style="stroke:#000000; stroke-width:12; stroke-opacity:1"/>
<line clip-path="url(#clip591)" x1="1892.05" y1="1431" x2="1860.05" y2="1431" style="stroke:#000000; stroke-width:12; stroke-opacity:1"/>
<line clip-path="url(#clip591)" x1="1892.05" y1="527.28" x2="1860.05" y2="527.28" style="stroke:#000000; stroke-width:12; stroke-opacity:1"/>
<line clip-path="url(#clip591)" x1="2099.31" y1="1418.94" x2="2067.31" y2="1418.94" style="stroke:#000000; stroke-width:12; stroke-opacity:1"/>
<line clip-path="url(#clip591)" x1="2099.31" y1="242.283" x2="2067.31" y2="242.283" style="stroke:#000000; stroke-width:12; stroke-opacity:1"/>
<line clip-path="url(#clip591)" x1="2306.58" y1="1399.13" x2="2274.58" y2="1399.13" style="stroke:#000000; stroke-width:12; stroke-opacity:1"/>
<line clip-path="url(#clip591)" x1="2306.58" y1="87.9763" x2="2274.58" y2="87.9763" style="stroke:#000000; stroke-width:12; stroke-opacity:1"/>
<polyline clip-path="url(#clip591)" style="stroke:#e26f46; stroke-linecap:round; stroke-linejoin:round; stroke-width:12; stroke-opacity:1; fill:none" points="217.944,1322.36 425.207,1341.23 632.47,1333.08 839.734,1316.37 1047,1298.71 1254.26,1281.06 1461.52,1312.19 1668.79,1340.06 1876.05,1352.26 2083.31,1337.5 2290.58,1328.85 "/>
<polyline clip-path="url(#clip591)" style="stroke:#000000; stroke-linecap:round; stroke-linejoin:round; stroke-width:12; stroke-opacity:1; fill:none" points="217.944,1322.36 217.944,1322.36 "/>
<polyline clip-path="url(#clip591)" style="stroke:#000000; stroke-linecap:round; stroke-linejoin:round; stroke-width:12; stroke-opacity:1; fill:none" points="425.207,1381.79 425.207,1279.48 "/>
<polyline clip-path="url(#clip591)" style="stroke:#000000; stroke-linecap:round; stroke-linejoin:round; stroke-width:12; stroke-opacity:1; fill:none" points="632.47,1373.1 632.47,1301.28 "/>
<polyline clip-path="url(#clip591)" style="stroke:#000000; stroke-linecap:round; stroke-linejoin:round; stroke-width:12; stroke-opacity:1; fill:none" points="839.734,1379.79 839.734,1261.05 "/>
<polyline clip-path="url(#clip591)" style="stroke:#000000; stroke-linecap:round; stroke-linejoin:round; stroke-width:12; stroke-opacity:1; fill:none" points="1047,1388.13 1047,1169.04 "/>
<polyline clip-path="url(#clip591)" style="stroke:#000000; stroke-linecap:round; stroke-linejoin:round; stroke-width:12; stroke-opacity:1; fill:none" points="1254.26,1403.39 1254.26,1132.1 "/>
<polyline clip-path="url(#clip591)" style="stroke:#000000; stroke-linecap:round; stroke-linejoin:round; stroke-width:12; stroke-opacity:1; fill:none" points="1461.52,1395.53 1461.52,1058.09 "/>
<polyline clip-path="url(#clip591)" style="stroke:#000000; stroke-linecap:round; stroke-linejoin:round; stroke-width:12; stroke-opacity:1; fill:none" points="1668.79,1404.09 1668.79,938.448 "/>
<polyline clip-path="url(#clip591)" style="stroke:#000000; stroke-linecap:round; stroke-linejoin:round; stroke-width:12; stroke-opacity:1; fill:none" points="1876.05,1425.88 1876.05,877.742 "/>
<polyline clip-path="url(#clip591)" style="stroke:#000000; stroke-linecap:round; stroke-linejoin:round; stroke-width:12; stroke-opacity:1; fill:none" points="2083.31,1428.01 2083.31,917.172 "/>
<polyline clip-path="url(#clip591)" style="stroke:#000000; stroke-linecap:round; stroke-linejoin:round; stroke-width:12; stroke-opacity:1; fill:none" points="2290.58,1445.72 2290.58,909.397 "/>
<line clip-path="url(#clip591)" x1="233.944" y1="1322.36" x2="201.944" y2="1322.36" style="stroke:#000000; stroke-width:12; stroke-opacity:1"/>
<line clip-path="url(#clip591)" x1="233.944" y1="1322.36" x2="201.944" y2="1322.36" style="stroke:#000000; stroke-width:12; stroke-opacity:1"/>
<line clip-path="url(#clip591)" x1="441.207" y1="1381.79" x2="409.207" y2="1381.79" style="stroke:#000000; stroke-width:12; stroke-opacity:1"/>
<line clip-path="url(#clip591)" x1="441.207" y1="1279.48" x2="409.207" y2="1279.48" style="stroke:#000000; stroke-width:12; stroke-opacity:1"/>
<line clip-path="url(#clip591)" x1="648.47" y1="1373.1" x2="616.47" y2="1373.1" style="stroke:#000000; stroke-width:12; stroke-opacity:1"/>
<line clip-path="url(#clip591)" x1="648.47" y1="1301.28" x2="616.47" y2="1301.28" style="stroke:#000000; stroke-width:12; stroke-opacity:1"/>
<line clip-path="url(#clip591)" x1="855.734" y1="1379.79" x2="823.734" y2="1379.79" style="stroke:#000000; stroke-width:12; stroke-opacity:1"/>
<line clip-path="url(#clip591)" x1="855.734" y1="1261.05" x2="823.734" y2="1261.05" style="stroke:#000000; stroke-width:12; stroke-opacity:1"/>
<line clip-path="url(#clip591)" x1="1063" y1="1388.13" x2="1031" y2="1388.13" style="stroke:#000000; stroke-width:12; stroke-opacity:1"/>
<line clip-path="url(#clip591)" x1="1063" y1="1169.04" x2="1031" y2="1169.04" style="stroke:#000000; stroke-width:12; stroke-opacity:1"/>
<line clip-path="url(#clip591)" x1="1270.26" y1="1403.39" x2="1238.26" y2="1403.39" style="stroke:#000000; stroke-width:12; stroke-opacity:1"/>
<line clip-path="url(#clip591)" x1="1270.26" y1="1132.1" x2="1238.26" y2="1132.1" style="stroke:#000000; stroke-width:12; stroke-opacity:1"/>
<line clip-path="url(#clip591)" x1="1477.52" y1="1395.53" x2="1445.52" y2="1395.53" style="stroke:#000000; stroke-width:12; stroke-opacity:1"/>
<line clip-path="url(#clip591)" x1="1477.52" y1="1058.09" x2="1445.52" y2="1058.09" style="stroke:#000000; stroke-width:12; stroke-opacity:1"/>
<line clip-path="url(#clip591)" x1="1684.79" y1="1404.09" x2="1652.79" y2="1404.09" style="stroke:#000000; stroke-width:12; stroke-opacity:1"/>
<line clip-path="url(#clip591)" x1="1684.79" y1="938.448" x2="1652.79" y2="938.448" style="stroke:#000000; stroke-width:12; stroke-opacity:1"/>
<line clip-path="url(#clip591)" x1="1892.05" y1="1425.88" x2="1860.05" y2="1425.88" style="stroke:#000000; stroke-width:12; stroke-opacity:1"/>
<line clip-path="url(#clip591)" x1="1892.05" y1="877.742" x2="1860.05" y2="877.742" style="stroke:#000000; stroke-width:12; stroke-opacity:1"/>
<line clip-path="url(#clip591)" x1="2099.31" y1="1428.01" x2="2067.31" y2="1428.01" style="stroke:#000000; stroke-width:12; stroke-opacity:1"/>
<line clip-path="url(#clip591)" x1="2099.31" y1="917.172" x2="2067.31" y2="917.172" style="stroke:#000000; stroke-width:12; stroke-opacity:1"/>
<line clip-path="url(#clip591)" x1="2306.58" y1="1445.72" x2="2274.58" y2="1445.72" style="stroke:#000000; stroke-width:12; stroke-opacity:1"/>
<line clip-path="url(#clip591)" x1="2306.58" y1="909.397" x2="2274.58" y2="909.397" style="stroke:#000000; stroke-width:12; stroke-opacity:1"/>
</svg>
