<?xml version="1.0" encoding="utf-8"?>
<svg xmlns="http://www.w3.org/2000/svg" xmlns:xlink="http://www.w3.org/1999/xlink" width="600" height="400" viewBox="0 0 2400 1600">
<defs>
  <clipPath id="clip620">
    <rect x="0" y="0" width="2400" height="1600"/>
  </clipPath>
</defs>
<path clip-path="url(#clip620)" d="M0 1600 L2400 1600 L2400 0 L0 0  Z" fill="#ffffff" fill-rule="evenodd" fill-opacity="1"/>
<defs>
  <clipPath id="clip621">
    <rect x="156" y="47" width="2197" height="1440"/>
  </clipPath>
</defs>
<path clip-path="url(#clip620)" d="M156.274 1486.45 L2352.76 1486.45 L2352.76 47.2441 L156.274 47.2441  Z" fill="#ffffff" fill-rule="evenodd" fill-opacity="1"/>
<polyline clip-path="url(#clip621)" style="stroke:#000000; stroke-linecap:round; stroke-linejoin:round; stroke-width:2; stroke-opacity:0.1; fill:none" points="218.439,1486.45 218.439,47.2441 "/>
<polyline clip-path="url(#clip621)" style="stroke:#000000; stroke-linecap:round; stroke-linejoin:round; stroke-width:2; stroke-opacity:0.1; fill:none" points="736.477,1486.45 736.477,47.2441 "/>
<polyline clip-path="url(#clip621)" style="stroke:#000000; stroke-linecap:round; stroke-linejoin:round; stroke-width:2; stroke-opacity:0.1; fill:none" points="1254.52,1486.45 1254.52,47.2441 "/>
<polyline clip-path="url(#clip621)" style="stroke:#000000; stroke-linecap:round; stroke-linejoin:round; stroke-width:2; stroke-opacity:0.1; fill:none" points="1772.55,1486.45 1772.55,47.2441 "/>
<polyline clip-path="url(#clip621)" style="stroke:#000000; stroke-linecap:round; stroke-linejoin:round; stroke-width:2; stroke-opacity:0.1; fill:none" points="2290.59,1486.45 2290.59,47.2441 "/>
<polyline clip-path="url(#clip621)" style="stroke:#000000; stroke-linecap:round; stroke-linejoin:round; stroke-width:2; stroke-opacity:0.1; fill:none" points="156.274,1294.04 2352.76,1294.04 "/>
<polyline clip-path="url(#clip621)" style="stroke:#000000; stroke-linecap:round; stroke-linejoin:round; stroke-width:2; stroke-opacity:0.1; fill:none" points="156.274,1030.2 2352.76,1030.2 "/>
<polyline clip-path="url(#clip621)" style="stroke:#000000; stroke-linecap:round; stroke-linejoin:round; stroke-width:2; stroke-opacity:0.1; fill:none" points="156.274,766.364 2352.76,766.364 "/>
<polyline clip-path="url(#clip621)" style="stroke:#000000; stroke-linecap:round; stroke-linejoin:round; stroke-width:2; stroke-opacity:0.1; fill:none" points="156.274,502.526 2352.76,502.526 "/>
<polyline clip-path="url(#clip621)" style="stroke:#000000; stroke-linecap:round; stroke-linejoin:round; stroke-width:2; stroke-opacity:0.1; fill:none" points="156.274,238.688 2352.76,238.688 "/>
<polyline clip-path="url(#clip620)" style="stroke:#000000; stroke-linecap:round; stroke-linejoin:round; stroke-width:4; stroke-opacity:1; fill:none" points="156.274,1486.45 2352.76,1486.45 "/>
<polyline clip-path="url(#clip620)" style="stroke:#000000; stroke-linecap:round; stroke-linejoin:round; stroke-width:4; stroke-opacity:1; fill:none" points="218.439,1486.45 218.439,1467.55 "/>
<polyline clip-path="url(#clip620)" style="stroke:#000000; stroke-linecap:round; stroke-linejoin:round; stroke-width:4; stroke-opacity:1; fill:none" points="736.477,1486.45 736.477,1467.55 "/>
<polyline clip-path="url(#clip620)" style="stroke:#000000; stroke-linecap:round; stroke-linejoin:round; stroke-width:4; stroke-opacity:1; fill:none" points="1254.52,1486.45 1254.52,1467.55 "/>
<polyline clip-path="url(#clip620)" style="stroke:#000000; stroke-linecap:round; stroke-linejoin:round; stroke-width:4; stroke-opacity:1; fill:none" points="1772.55,1486.45 1772.55,1467.55 "/>
<polyline clip-path="url(#clip620)" style="stroke:#000000; stroke-linecap:round; stroke-linejoin:round; stroke-width:4; stroke-opacity:1; fill:none" points="2290.59,1486.45 2290.59,1467.55 "/>
<path clip-path="url(#clip620)" d="M180.742 1517.37 Q177.131 1517.37 175.302 1520.93 Q173.497 1524.47 173.497 1531.6 Q173.497 1538.71 175.302 1542.27 Q177.131 1545.82 180.742 1545.82 Q184.376 1545.82 186.182 1542.27 Q188.011 1538.71 188.011 1531.6 Q188.011 1524.47 186.182 1520.93 Q184.376 1517.37 180.742 1517.37 M180.742 1513.66 Q186.552 1513.66 189.608 1518.27 Q192.687 1522.85 192.687 1531.6 Q192.687 1540.33 189.608 1544.94 Q186.552 1549.52 180.742 1549.52 Q174.932 1549.52 171.853 1544.94 Q168.798 1540.33 168.798 1531.6 Q168.798 1522.85 171.853 1518.27 Q174.932 1513.66 180.742 1513.66 Z" fill="#000000" fill-rule="nonzero" fill-opacity="1" /><path clip-path="url(#clip620)" d="M200.904 1542.97 L205.788 1542.97 L205.788 1548.85 L200.904 1548.85 L200.904 1542.97 Z" fill="#000000" fill-rule="nonzero" fill-opacity="1" /><path clip-path="url(#clip620)" d="M225.973 1517.37 Q222.362 1517.37 220.534 1520.93 Q218.728 1524.47 218.728 1531.6 Q218.728 1538.71 220.534 1542.27 Q222.362 1545.82 225.973 1545.82 Q229.608 1545.82 231.413 1542.27 Q233.242 1538.71 233.242 1531.6 Q233.242 1524.47 231.413 1520.93 Q229.608 1517.37 225.973 1517.37 M225.973 1513.66 Q231.784 1513.66 234.839 1518.27 Q237.918 1522.85 237.918 1531.6 Q237.918 1540.33 234.839 1544.94 Q231.784 1549.52 225.973 1549.52 Q220.163 1549.52 217.085 1544.94 Q214.029 1540.33 214.029 1531.6 Q214.029 1522.85 217.085 1518.27 Q220.163 1513.66 225.973 1513.66 Z" fill="#000000" fill-rule="nonzero" fill-opacity="1" /><path clip-path="url(#clip620)" d="M256.135 1517.37 Q252.524 1517.37 250.696 1520.93 Q248.89 1524.47 248.89 1531.6 Q248.89 1538.71 250.696 1542.27 Q252.524 1545.82 256.135 1545.82 Q259.77 1545.82 261.575 1542.27 Q263.404 1538.71 263.404 1531.6 Q263.404 1524.47 261.575 1520.93 Q259.77 1517.37 256.135 1517.37 M256.135 1513.66 Q261.945 1513.66 265.001 1518.27 Q268.08 1522.85 268.08 1531.6 Q268.08 1540.33 265.001 1544.94 Q261.945 1549.52 256.135 1549.52 Q250.325 1549.52 247.246 1544.94 Q244.191 1540.33 244.191 1531.6 Q244.191 1522.85 247.246 1518.27 Q250.325 1513.66 256.135 1513.66 Z" fill="#000000" fill-rule="nonzero" fill-opacity="1" /><path clip-path="url(#clip620)" d="M699.278 1517.37 Q695.667 1517.37 693.838 1520.93 Q692.033 1524.47 692.033 1531.6 Q692.033 1538.71 693.838 1542.27 Q695.667 1545.82 699.278 1545.82 Q702.912 1545.82 704.718 1542.27 Q706.546 1538.71 706.546 1531.6 Q706.546 1524.47 704.718 1520.93 Q702.912 1517.37 699.278 1517.37 M699.278 1513.66 Q705.088 1513.66 708.144 1518.27 Q711.222 1522.85 711.222 1531.6 Q711.222 1540.33 708.144 1544.94 Q705.088 1549.52 699.278 1549.52 Q693.468 1549.52 690.389 1544.94 Q687.334 1540.33 687.334 1531.6 Q687.334 1522.85 690.389 1518.27 Q693.468 1513.66 699.278 1513.66 Z" fill="#000000" fill-rule="nonzero" fill-opacity="1" /><path clip-path="url(#clip620)" d="M719.44 1542.97 L724.324 1542.97 L724.324 1548.85 L719.44 1548.85 L719.44 1542.97 Z" fill="#000000" fill-rule="nonzero" fill-opacity="1" /><path clip-path="url(#clip620)" d="M738.537 1544.91 L754.856 1544.91 L754.856 1548.85 L732.912 1548.85 L732.912 1544.91 Q735.574 1542.16 740.157 1537.53 Q744.764 1532.88 745.944 1531.53 Q748.19 1529.01 749.069 1527.27 Q749.972 1525.51 749.972 1523.82 Q749.972 1521.07 748.028 1519.33 Q746.106 1517.6 743.005 1517.6 Q740.806 1517.6 738.352 1518.36 Q735.921 1519.13 733.144 1520.68 L733.144 1515.95 Q735.968 1514.82 738.421 1514.24 Q740.875 1513.66 742.912 1513.66 Q748.282 1513.66 751.477 1516.35 Q754.671 1519.03 754.671 1523.52 Q754.671 1525.65 753.861 1527.57 Q753.074 1529.47 750.968 1532.07 Q750.389 1532.74 747.287 1535.95 Q744.185 1539.15 738.537 1544.91 Z" fill="#000000" fill-rule="nonzero" fill-opacity="1" /><path clip-path="url(#clip620)" d="M764.717 1514.29 L783.074 1514.29 L783.074 1518.22 L769 1518.22 L769 1526.7 Q770.018 1526.35 771.037 1526.19 Q772.055 1526 773.074 1526 Q778.861 1526 782.241 1529.17 Q785.62 1532.34 785.62 1537.76 Q785.62 1543.34 782.148 1546.44 Q778.676 1549.52 772.356 1549.52 Q770.18 1549.52 767.912 1549.15 Q765.667 1548.78 763.259 1548.04 L763.259 1543.34 Q765.342 1544.47 767.565 1545.03 Q769.787 1545.58 772.264 1545.58 Q776.268 1545.58 778.606 1543.48 Q780.944 1541.37 780.944 1537.76 Q780.944 1534.15 778.606 1532.04 Q776.268 1529.94 772.264 1529.94 Q770.389 1529.94 768.514 1530.35 Q766.662 1530.77 764.717 1531.65 L764.717 1514.29 Z" fill="#000000" fill-rule="nonzero" fill-opacity="1" /><path clip-path="url(#clip620)" d="M1216.82 1517.37 Q1213.21 1517.37 1211.38 1520.93 Q1209.57 1524.47 1209.57 1531.6 Q1209.57 1538.71 1211.38 1542.27 Q1213.21 1545.82 1216.82 1545.82 Q1220.45 1545.82 1222.26 1542.27 Q1224.09 1538.71 1224.09 1531.6 Q1224.09 1524.47 1222.26 1520.93 Q1220.45 1517.37 1216.82 1517.37 M1216.82 1513.66 Q1222.63 1513.66 1225.68 1518.27 Q1228.76 1522.85 1228.76 1531.6 Q1228.76 1540.33 1225.68 1544.94 Q1222.63 1549.52 1216.82 1549.52 Q1211.01 1549.52 1207.93 1544.94 Q1204.87 1540.33 1204.87 1531.6 Q1204.87 1522.85 1207.93 1518.27 Q1211.01 1513.66 1216.82 1513.66 Z" fill="#000000" fill-rule="nonzero" fill-opacity="1" /><path clip-path="url(#clip620)" d="M1236.98 1542.97 L1241.86 1542.97 L1241.86 1548.85 L1236.98 1548.85 L1236.98 1542.97 Z" fill="#000000" fill-rule="nonzero" fill-opacity="1" /><path clip-path="url(#clip620)" d="M1252.1 1514.29 L1270.45 1514.29 L1270.45 1518.22 L1256.38 1518.22 L1256.38 1526.7 Q1257.4 1526.35 1258.42 1526.19 Q1259.43 1526 1260.45 1526 Q1266.24 1526 1269.62 1529.17 Q1273 1532.34 1273 1537.76 Q1273 1543.34 1269.53 1546.44 Q1266.05 1549.52 1259.73 1549.52 Q1257.56 1549.52 1255.29 1549.15 Q1253.05 1548.78 1250.64 1548.04 L1250.64 1543.34 Q1252.72 1544.47 1254.94 1545.03 Q1257.17 1545.58 1259.64 1545.58 Q1263.65 1545.58 1265.98 1543.48 Q1268.32 1541.37 1268.32 1537.76 Q1268.32 1534.15 1265.98 1532.04 Q1263.65 1529.94 1259.64 1529.94 Q1257.77 1529.94 1255.89 1530.35 Q1254.04 1530.77 1252.1 1531.65 L1252.1 1514.29 Z" fill="#000000" fill-rule="nonzero" fill-opacity="1" /><path clip-path="url(#clip620)" d="M1292.21 1517.37 Q1288.6 1517.37 1286.77 1520.93 Q1284.97 1524.47 1284.97 1531.6 Q1284.97 1538.71 1286.77 1542.27 Q1288.6 1545.82 1292.21 1545.82 Q1295.85 1545.82 1297.65 1542.27 Q1299.48 1538.71 1299.48 1531.6 Q1299.48 1524.47 1297.65 1520.93 Q1295.85 1517.37 1292.21 1517.37 M1292.21 1513.66 Q1298.02 1513.66 1301.08 1518.27 Q1304.16 1522.85 1304.16 1531.6 Q1304.16 1540.33 1301.08 1544.94 Q1298.02 1549.52 1292.21 1549.52 Q1286.4 1549.52 1283.32 1544.94 Q1280.27 1540.33 1280.27 1531.6 Q1280.27 1522.85 1283.32 1518.27 Q1286.4 1513.66 1292.21 1513.66 Z" fill="#000000" fill-rule="nonzero" fill-opacity="1" /><path clip-path="url(#clip620)" d="M1735.35 1517.37 Q1731.74 1517.37 1729.91 1520.93 Q1728.11 1524.47 1728.11 1531.6 Q1728.11 1538.71 1729.91 1542.27 Q1731.74 1545.82 1735.35 1545.82 Q1738.99 1545.82 1740.79 1542.27 Q1742.62 1538.71 1742.62 1531.6 Q1742.62 1524.47 1740.79 1520.93 Q1738.99 1517.37 1735.35 1517.37 M1735.35 1513.66 Q1741.16 1513.66 1744.22 1518.27 Q1747.3 1522.85 1747.3 1531.6 Q1747.3 1540.33 1744.22 1544.94 Q1741.16 1549.52 1735.35 1549.52 Q1729.54 1549.52 1726.47 1544.94 Q1723.41 1540.33 1723.41 1531.6 Q1723.41 1522.85 1726.47 1518.27 Q1729.54 1513.66 1735.35 1513.66 Z" fill="#000000" fill-rule="nonzero" fill-opacity="1" /><path clip-path="url(#clip620)" d="M1755.52 1542.97 L1760.4 1542.97 L1760.4 1548.85 L1755.52 1548.85 L1755.52 1542.97 Z" fill="#000000" fill-rule="nonzero" fill-opacity="1" /><path clip-path="url(#clip620)" d="M1769.41 1514.29 L1791.63 1514.29 L1791.63 1516.28 L1779.08 1548.85 L1774.2 1548.85 L1786 1518.22 L1769.41 1518.22 L1769.41 1514.29 Z" fill="#000000" fill-rule="nonzero" fill-opacity="1" /><path clip-path="url(#clip620)" d="M1800.79 1514.29 L1819.15 1514.29 L1819.15 1518.22 L1805.08 1518.22 L1805.08 1526.7 Q1806.09 1526.35 1807.11 1526.19 Q1808.13 1526 1809.15 1526 Q1814.94 1526 1818.32 1529.17 Q1821.7 1532.34 1821.7 1537.76 Q1821.7 1543.34 1818.22 1546.44 Q1814.75 1549.52 1808.43 1549.52 Q1806.26 1549.52 1803.99 1549.15 Q1801.74 1548.78 1799.34 1548.04 L1799.34 1543.34 Q1801.42 1544.47 1803.64 1545.03 Q1805.86 1545.58 1808.34 1545.58 Q1812.34 1545.58 1814.68 1543.48 Q1817.02 1541.37 1817.02 1537.76 Q1817.02 1534.15 1814.68 1532.04 Q1812.34 1529.94 1808.34 1529.94 Q1806.47 1529.94 1804.59 1530.35 Q1802.74 1530.77 1800.79 1531.65 L1800.79 1514.29 Z" fill="#000000" fill-rule="nonzero" fill-opacity="1" /><path clip-path="url(#clip620)" d="M2242.66 1544.91 L2250.3 1544.91 L2250.3 1518.55 L2241.99 1520.21 L2241.99 1515.95 L2250.26 1514.29 L2254.93 1514.29 L2254.93 1544.91 L2262.57 1544.91 L2262.57 1548.85 L2242.66 1548.85 L2242.66 1544.91 Z" fill="#000000" fill-rule="nonzero" fill-opacity="1" /><path clip-path="url(#clip620)" d="M2272.02 1542.97 L2276.9 1542.97 L2276.9 1548.85 L2272.02 1548.85 L2272.02 1542.97 Z" fill="#000000" fill-rule="nonzero" fill-opacity="1" /><path clip-path="url(#clip620)" d="M2297.08 1517.37 Q2293.47 1517.37 2291.64 1520.93 Q2289.84 1524.47 2289.84 1531.6 Q2289.84 1538.71 2291.64 1542.27 Q2293.47 1545.82 2297.08 1545.82 Q2300.72 1545.82 2302.52 1542.27 Q2304.35 1538.71 2304.35 1531.6 Q2304.35 1524.47 2302.52 1520.93 Q2300.72 1517.37 2297.08 1517.37 M2297.08 1513.66 Q2302.89 1513.66 2305.95 1518.27 Q2309.03 1522.85 2309.03 1531.6 Q2309.03 1540.33 2305.95 1544.94 Q2302.89 1549.52 2297.08 1549.52 Q2291.27 1549.52 2288.2 1544.94 Q2285.14 1540.33 2285.14 1531.6 Q2285.14 1522.85 2288.2 1518.27 Q2291.27 1513.66 2297.08 1513.66 Z" fill="#000000" fill-rule="nonzero" fill-opacity="1" /><path clip-path="url(#clip620)" d="M2327.25 1517.37 Q2323.64 1517.37 2321.81 1520.93 Q2320 1524.47 2320 1531.6 Q2320 1538.71 2321.81 1542.27 Q2323.64 1545.82 2327.25 1545.82 Q2330.88 1545.82 2332.69 1542.27 Q2334.51 1538.71 2334.51 1531.6 Q2334.51 1524.47 2332.69 1520.93 Q2330.88 1517.37 2327.25 1517.37 M2327.25 1513.66 Q2333.06 1513.66 2336.11 1518.27 Q2339.19 1522.85 2339.19 1531.6 Q2339.19 1540.33 2336.11 1544.94 Q2333.06 1549.52 2327.25 1549.52 Q2321.44 1549.52 2318.36 1544.94 Q2315.3 1540.33 2315.3 1531.6 Q2315.3 1522.85 2318.36 1518.27 Q2321.44 1513.66 2327.25 1513.66 Z" fill="#000000" fill-rule="nonzero" fill-opacity="1" /><polyline clip-path="url(#clip620)" style="stroke:#000000; stroke-linecap:round; stroke-linejoin:round; stroke-width:4; stroke-opacity:1; fill:none" points="156.274,1486.45 156.274,47.2441 "/>
<polyline clip-path="url(#clip620)" style="stroke:#000000; stroke-linecap:round; stroke-linejoin:round; stroke-width:4; stroke-opacity:1; fill:none" points="156.274,1294.04 175.172,1294.04 "/>
<polyline clip-path="url(#clip620)" style="stroke:#000000; stroke-linecap:round; stroke-linejoin:round; stroke-width:4; stroke-opacity:1; fill:none" points="156.274,1030.2 175.172,1030.2 "/>
<polyline clip-path="url(#clip620)" style="stroke:#000000; stroke-linecap:round; stroke-linejoin:round; stroke-width:4; stroke-opacity:1; fill:none" points="156.274,766.364 175.172,766.364 "/>
<polyline clip-path="url(#clip620)" style="stroke:#000000; stroke-linecap:round; stroke-linejoin:round; stroke-width:4; stroke-opacity:1; fill:none" points="156.274,502.526 175.172,502.526 "/>
<polyline clip-path="url(#clip620)" style="stroke:#000000; stroke-linecap:round; stroke-linejoin:round; stroke-width:4; stroke-opacity:1; fill:none" points="156.274,238.688 175.172,238.688 "/>
<path clip-path="url(#clip620)" d="M62.9365 1279.84 Q59.3254 1279.84 57.4967 1283.4 Q55.6912 1286.95 55.6912 1294.08 Q55.6912 1301.18 57.4967 1304.75 Q59.3254 1308.29 62.9365 1308.29 Q66.5707 1308.29 68.3763 1304.75 Q70.205 1301.18 70.205 1294.08 Q70.205 1286.95 68.3763 1283.4 Q66.5707 1279.84 62.9365 1279.84 M62.9365 1276.14 Q68.7467 1276.14 71.8022 1280.74 Q74.8809 1285.33 74.8809 1294.08 Q74.8809 1302.8 71.8022 1307.41 Q68.7467 1311.99 62.9365 1311.99 Q57.1264 1311.99 54.0477 1307.41 Q50.9921 1302.8 50.9921 1294.08 Q50.9921 1285.33 54.0477 1280.74 Q57.1264 1276.14 62.9365 1276.14 Z" fill="#000000" fill-rule="nonzero" fill-opacity="1" /><path clip-path="url(#clip620)" d="M83.0984 1305.44 L87.9827 1305.44 L87.9827 1311.32 L83.0984 1311.32 L83.0984 1305.44 Z" fill="#000000" fill-rule="nonzero" fill-opacity="1" /><path clip-path="url(#clip620)" d="M108.746 1292.18 Q105.598 1292.18 103.746 1294.33 Q101.918 1296.48 101.918 1300.23 Q101.918 1303.96 103.746 1306.14 Q105.598 1308.29 108.746 1308.29 Q111.895 1308.29 113.723 1306.14 Q115.575 1303.96 115.575 1300.23 Q115.575 1296.48 113.723 1294.33 Q111.895 1292.18 108.746 1292.18 M118.029 1277.52 L118.029 1281.78 Q116.27 1280.95 114.464 1280.51 Q112.682 1280.07 110.922 1280.07 Q106.293 1280.07 103.839 1283.2 Q101.409 1286.32 101.061 1292.64 Q102.427 1290.63 104.487 1289.56 Q106.547 1288.47 109.024 1288.47 Q114.233 1288.47 117.242 1291.65 Q120.274 1294.79 120.274 1300.23 Q120.274 1305.56 117.126 1308.77 Q113.978 1311.99 108.746 1311.99 Q102.751 1311.99 99.5798 1307.41 Q96.4085 1302.8 96.4085 1294.08 Q96.4085 1285.88 100.297 1281.02 Q104.186 1276.14 110.737 1276.14 Q112.496 1276.14 114.279 1276.48 Q116.084 1276.83 118.029 1277.52 Z" fill="#000000" fill-rule="nonzero" fill-opacity="1" /><path clip-path="url(#clip620)" d="M63.2837 1016 Q59.6726 1016 57.8439 1019.57 Q56.0384 1023.11 56.0384 1030.24 Q56.0384 1037.34 57.8439 1040.91 Q59.6726 1044.45 63.2837 1044.45 Q66.918 1044.45 68.7235 1040.91 Q70.5522 1037.34 70.5522 1030.24 Q70.5522 1023.11 68.7235 1019.57 Q66.918 1016 63.2837 1016 M63.2837 1012.3 Q69.0939 1012.3 72.1494 1016.9 Q75.2281 1021.49 75.2281 1030.24 Q75.2281 1038.96 72.1494 1043.57 Q69.0939 1048.15 63.2837 1048.15 Q57.4736 1048.15 54.3949 1043.57 Q51.3393 1038.96 51.3393 1030.24 Q51.3393 1021.49 54.3949 1016.9 Q57.4736 1012.3 63.2837 1012.3 Z" fill="#000000" fill-rule="nonzero" fill-opacity="1" /><path clip-path="url(#clip620)" d="M83.4457 1041.6 L88.3299 1041.6 L88.3299 1047.48 L83.4457 1047.48 L83.4457 1041.6 Z" fill="#000000" fill-rule="nonzero" fill-opacity="1" /><path clip-path="url(#clip620)" d="M98.6539 1046.77 L98.6539 1042.51 Q100.413 1043.34 102.219 1043.78 Q104.024 1044.22 105.76 1044.22 Q110.39 1044.22 112.82 1041.12 Q115.274 1037.99 115.621 1031.65 Q114.279 1033.64 112.219 1034.7 Q110.158 1035.77 107.658 1035.77 Q102.473 1035.77 99.4409 1032.64 Q96.4317 1029.5 96.4317 1024.06 Q96.4317 1018.73 99.5798 1015.52 Q102.728 1012.3 107.959 1012.3 Q113.955 1012.3 117.103 1016.9 Q120.274 1021.49 120.274 1030.24 Q120.274 1038.41 116.385 1043.29 Q112.52 1048.15 105.969 1048.15 Q104.209 1048.15 102.404 1047.81 Q100.598 1047.46 98.6539 1046.77 M107.959 1032.11 Q111.108 1032.11 112.936 1029.96 Q114.788 1027.81 114.788 1024.06 Q114.788 1020.33 112.936 1018.18 Q111.108 1016 107.959 1016 Q104.811 1016 102.959 1018.18 Q101.131 1020.33 101.131 1024.06 Q101.131 1027.81 102.959 1029.96 Q104.811 1032.11 107.959 1032.11 Z" fill="#000000" fill-rule="nonzero" fill-opacity="1" /><path clip-path="url(#clip620)" d="M55.506 779.709 L63.1448 779.709 L63.1448 753.344 L54.8347 755.01 L54.8347 750.751 L63.0985 749.084 L67.7744 749.084 L67.7744 779.709 L75.4133 779.709 L75.4133 783.644 L55.506 783.644 L55.506 779.709 Z" fill="#000000" fill-rule="nonzero" fill-opacity="1" /><path clip-path="url(#clip620)" d="M84.8577 777.765 L89.7419 777.765 L89.7419 783.644 L84.8577 783.644 L84.8577 777.765 Z" fill="#000000" fill-rule="nonzero" fill-opacity="1" /><path clip-path="url(#clip620)" d="M103.955 779.709 L120.274 779.709 L120.274 783.644 L98.3298 783.644 L98.3298 779.709 Q100.992 776.955 105.575 772.325 Q110.182 767.672 111.362 766.33 Q113.608 763.807 114.487 762.07 Q115.39 760.311 115.39 758.621 Q115.39 755.867 113.445 754.131 Q111.524 752.395 108.422 752.395 Q106.223 752.395 103.77 753.158 Q101.339 753.922 98.5613 755.473 L98.5613 750.751 Q101.385 749.617 103.839 749.038 Q106.293 748.459 108.33 748.459 Q113.7 748.459 116.895 751.145 Q120.089 753.83 120.089 758.32 Q120.089 760.45 119.279 762.371 Q118.492 764.27 116.385 766.862 Q115.807 767.533 112.705 770.751 Q109.603 773.945 103.955 779.709 Z" fill="#000000" fill-rule="nonzero" fill-opacity="1" /><path clip-path="url(#clip620)" d="M54.9041 515.871 L62.543 515.871 L62.543 489.505 L54.2328 491.172 L54.2328 486.913 L62.4967 485.246 L67.1726 485.246 L67.1726 515.871 L74.8114 515.871 L74.8114 519.806 L54.9041 519.806 L54.9041 515.871 Z" fill="#000000" fill-rule="nonzero" fill-opacity="1" /><path clip-path="url(#clip620)" d="M84.2558 513.927 L89.1401 513.927 L89.1401 519.806 L84.2558 519.806 L84.2558 513.927 Z" fill="#000000" fill-rule="nonzero" fill-opacity="1" /><path clip-path="url(#clip620)" d="M99.3715 485.246 L117.728 485.246 L117.728 489.181 L103.654 489.181 L103.654 497.654 Q104.672 497.306 105.691 497.144 Q106.709 496.959 107.728 496.959 Q113.515 496.959 116.895 500.13 Q120.274 503.302 120.274 508.718 Q120.274 514.297 116.802 517.399 Q113.33 520.478 107.01 520.478 Q104.834 520.478 102.566 520.107 Q100.321 519.737 97.9132 518.996 L97.9132 514.297 Q99.9965 515.431 102.219 515.987 Q104.441 516.542 106.918 516.542 Q110.922 516.542 113.26 514.436 Q115.598 512.329 115.598 508.718 Q115.598 505.107 113.26 503.001 Q110.922 500.894 106.918 500.894 Q105.043 500.894 103.168 501.311 Q101.316 501.728 99.3715 502.607 L99.3715 485.246 Z" fill="#000000" fill-rule="nonzero" fill-opacity="1" /><path clip-path="url(#clip620)" d="M54.0014 252.033 L61.6402 252.033 L61.6402 225.667 L53.3301 227.334 L53.3301 223.075 L61.5939 221.408 L66.2698 221.408 L66.2698 252.033 L73.9087 252.033 L73.9087 255.968 L54.0014 255.968 L54.0014 252.033 Z" fill="#000000" fill-rule="nonzero" fill-opacity="1" /><path clip-path="url(#clip620)" d="M83.3531 250.088 L88.2373 250.088 L88.2373 255.968 L83.3531 255.968 L83.3531 250.088 Z" fill="#000000" fill-rule="nonzero" fill-opacity="1" /><path clip-path="url(#clip620)" d="M108.422 239.556 Q105.089 239.556 103.168 241.338 Q101.27 243.121 101.27 246.246 Q101.27 249.371 103.168 251.153 Q105.089 252.936 108.422 252.936 Q111.756 252.936 113.677 251.153 Q115.598 249.348 115.598 246.246 Q115.598 243.121 113.677 241.338 Q111.779 239.556 108.422 239.556 M103.746 237.565 Q100.737 236.825 99.0474 234.764 Q97.3808 232.704 97.3808 229.741 Q97.3808 225.598 100.321 223.19 Q103.284 220.783 108.422 220.783 Q113.584 220.783 116.524 223.19 Q119.464 225.598 119.464 229.741 Q119.464 232.704 117.774 234.764 Q116.108 236.825 113.121 237.565 Q116.501 238.352 118.376 240.644 Q120.274 242.936 120.274 246.246 Q120.274 251.269 117.195 253.954 Q114.14 256.639 108.422 256.639 Q102.705 256.639 99.6261 253.954 Q96.5706 251.269 96.5706 246.246 Q96.5706 242.936 98.4687 240.644 Q100.367 238.352 103.746 237.565 M102.034 230.181 Q102.034 232.866 103.7 234.371 Q105.39 235.876 108.422 235.876 Q111.432 235.876 113.121 234.371 Q114.834 232.866 114.834 230.181 Q114.834 227.496 113.121 225.991 Q111.432 224.487 108.422 224.487 Q105.39 224.487 103.7 225.991 Q102.034 227.496 102.034 230.181 Z" fill="#000000" fill-rule="nonzero" fill-opacity="1" /><polyline clip-path="url(#clip621)" style="stroke:#009af9; stroke-linecap:round; stroke-linejoin:round; stroke-width:12; stroke-opacity:1; fill:none" points="218.439,1381.99 425.654,1309.38 632.869,1239.62 840.085,1184.89 1047.3,1159.11 1254.52,1111.72 1461.73,1018.51 1668.95,747.725 1876.16,621.669 2083.38,342.868 2290.59,448.208 "/>
<polyline clip-path="url(#clip621)" style="stroke:#e26f46; stroke-linecap:round; stroke-linejoin:round; stroke-width:12; stroke-opacity:1; fill:none" points="218.439,1381.99 425.654,1384.42 632.869,1233.81 840.085,1251.72 1047.3,1298.52 1254.52,1324.69 1461.73,1314.21 1668.95,1253.78 1876.16,1043.25 2083.38,761.303 2290.59,764.278 "/>
<polyline clip-path="url(#clip621)" style="stroke:#3da44d; stroke-linecap:round; stroke-linejoin:round; stroke-width:12; stroke-opacity:1; fill:none" points="218.439,1381.99 425.654,1256.94 632.869,1133.83 840.085,1093.22 1047.3,1103.44 1254.52,1029 1461.73,904.559 1668.95,693.293 1876.16,604.974 2083.38,434.18 2290.59,87.9763 "/>
<polyline clip-path="url(#clip621)" style="stroke:#c271d2; stroke-linecap:round; stroke-linejoin:round; stroke-width:12; stroke-opacity:1; fill:none" points="218.439,1381.99 425.654,1339.34 632.869,1254.15 840.085,1185.41 1047.3,1172.65 1254.52,1195.56 1461.73,1242.42 1668.95,1170.17 1876.16,1128.41 2083.38,1134.58 2290.59,1199.28 "/>
<polyline clip-path="url(#clip621)" style="stroke:#ac8d18; stroke-linecap:round; stroke-linejoin:round; stroke-width:12; stroke-opacity:1; fill:none" points="218.439,1381.99 425.654,1422.2 632.869,1404.85 840.085,1369.22 1047.3,1331.59 1254.52,1293.97 1461.73,1360.32 1668.95,1419.71 1876.16,1445.72 2083.38,1414.27 2290.59,1395.83 "/>
<polyline clip-path="url(#clip621)" style="stroke:#00a9ad; stroke-linecap:round; stroke-linejoin:round; stroke-width:12; stroke-opacity:1; fill:none" points="218.439,1381.99 425.654,1405.8 632.869,1337.72 840.085,1359.61 1047.3,1384.31 1254.52,1390.8 1461.73,1365.11 1668.95,1338.77 1876.16,1304.87 2083.38,1279.23 2290.59,1353.06 "/>
<polyline clip-path="url(#clip621)" style="stroke:#ed5d92; stroke-linecap:round; stroke-linejoin:round; stroke-width:12; stroke-opacity:1; fill:none" points="218.439,1381.99 425.654,1281.35 632.869,1186.74 840.085,1143.85 1047.3,1088.34 1254.52,1217.19 1461.73,1098.47 1668.95,1154.23 1876.16,1178.46 2083.38,1119.52 2290.59,1130.09 "/>
<polyline clip-path="url(#clip621)" style="stroke:#c68125; stroke-linecap:round; stroke-linejoin:round; stroke-width:12; stroke-opacity:1; fill:none" points="218.439,1381.99 425.654,1326.13 632.869,1288.45 840.085,1303.74 1047.3,1277.32 1254.52,1227.65 1461.73,1326.72 1668.95,1344.98 1876.16,1331.16 2083.38,1348.36 2290.59,1351.77 "/>
</svg>
