<?xml version="1.0" encoding="utf-8"?>
<svg xmlns="http://www.w3.org/2000/svg" xmlns:xlink="http://www.w3.org/1999/xlink" width="600" height="400" viewBox="0 0 2400 1600">
<defs>
  <clipPath id="clip560">
    <rect x="0" y="0" width="2400" height="1600"/>
  </clipPath>
</defs>
<path clip-path="url(#clip560)" d="M0 1600 L2400 1600 L2400 0 L0 0  Z" fill="#ffffff" fill-rule="evenodd" fill-opacity="1"/>
<defs>
  <clipPath id="clip561">
    <rect x="155" y="47" width="2198" height="1440"/>
  </clipPath>
</defs>
<path clip-path="url(#clip560)" d="M155.765 1486.45 L2352.76 1486.45 L2352.76 47.2441 L155.765 47.2441  Z" fill="#ffffff" fill-rule="evenodd" fill-opacity="1"/>
<polyline clip-path="url(#clip561)" style="stroke:#000000; stroke-linecap:round; stroke-linejoin:round; stroke-width:2; stroke-opacity:0.1; fill:none" points="217.944,1486.45 217.944,47.2441 "/>
<polyline clip-path="url(#clip561)" style="stroke:#000000; stroke-linecap:round; stroke-linejoin:round; stroke-width:2; stroke-opacity:0.1; fill:none" points="736.102,1486.45 736.102,47.2441 "/>
<polyline clip-path="url(#clip561)" style="stroke:#000000; stroke-linecap:round; stroke-linejoin:round; stroke-width:2; stroke-opacity:0.1; fill:none" points="1254.26,1486.45 1254.26,47.2441 "/>
<polyline clip-path="url(#clip561)" style="stroke:#000000; stroke-linecap:round; stroke-linejoin:round; stroke-width:2; stroke-opacity:0.1; fill:none" points="1772.42,1486.45 1772.42,47.2441 "/>
<polyline clip-path="url(#clip561)" style="stroke:#000000; stroke-linecap:round; stroke-linejoin:round; stroke-width:2; stroke-opacity:0.1; fill:none" points="2290.58,1486.45 2290.58,47.2441 "/>
<polyline clip-path="url(#clip561)" style="stroke:#000000; stroke-linecap:round; stroke-linejoin:round; stroke-width:2; stroke-opacity:0.1; fill:none" points="155.765,1335.88 2352.76,1335.88 "/>
<polyline clip-path="url(#clip561)" style="stroke:#000000; stroke-linecap:round; stroke-linejoin:round; stroke-width:2; stroke-opacity:0.1; fill:none" points="155.765,1127.31 2352.76,1127.31 "/>
<polyline clip-path="url(#clip561)" style="stroke:#000000; stroke-linecap:round; stroke-linejoin:round; stroke-width:2; stroke-opacity:0.1; fill:none" points="155.765,918.732 2352.76,918.732 "/>
<polyline clip-path="url(#clip561)" style="stroke:#000000; stroke-linecap:round; stroke-linejoin:round; stroke-width:2; stroke-opacity:0.1; fill:none" points="155.765,710.158 2352.76,710.158 "/>
<polyline clip-path="url(#clip561)" style="stroke:#000000; stroke-linecap:round; stroke-linejoin:round; stroke-width:2; stroke-opacity:0.1; fill:none" points="155.765,501.583 2352.76,501.583 "/>
<polyline clip-path="url(#clip561)" style="stroke:#000000; stroke-linecap:round; stroke-linejoin:round; stroke-width:2; stroke-opacity:0.1; fill:none" points="155.765,293.009 2352.76,293.009 "/>
<polyline clip-path="url(#clip561)" style="stroke:#000000; stroke-linecap:round; stroke-linejoin:round; stroke-width:2; stroke-opacity:0.1; fill:none" points="155.765,84.435 2352.76,84.435 "/>
<polyline clip-path="url(#clip560)" style="stroke:#000000; stroke-linecap:round; stroke-linejoin:round; stroke-width:4; stroke-opacity:1; fill:none" points="155.765,1486.45 2352.76,1486.45 "/>
<polyline clip-path="url(#clip560)" style="stroke:#000000; stroke-linecap:round; stroke-linejoin:round; stroke-width:4; stroke-opacity:1; fill:none" points="217.944,1486.45 217.944,1467.55 "/>
<polyline clip-path="url(#clip560)" style="stroke:#000000; stroke-linecap:round; stroke-linejoin:round; stroke-width:4; stroke-opacity:1; fill:none" points="736.102,1486.45 736.102,1467.55 "/>
<polyline clip-path="url(#clip560)" style="stroke:#000000; stroke-linecap:round; stroke-linejoin:round; stroke-width:4; stroke-opacity:1; fill:none" points="1254.26,1486.45 1254.26,1467.55 "/>
<polyline clip-path="url(#clip560)" style="stroke:#000000; stroke-linecap:round; stroke-linejoin:round; stroke-width:4; stroke-opacity:1; fill:none" points="1772.42,1486.45 1772.42,1467.55 "/>
<polyline clip-path="url(#clip560)" style="stroke:#000000; stroke-linecap:round; stroke-linejoin:round; stroke-width:4; stroke-opacity:1; fill:none" points="2290.58,1486.45 2290.58,1467.55 "/>
<path clip-path="url(#clip560)" d="M180.247 1517.37 Q176.636 1517.37 174.808 1520.93 Q173.002 1524.47 173.002 1531.6 Q173.002 1538.71 174.808 1542.27 Q176.636 1545.82 180.247 1545.82 Q183.882 1545.82 185.687 1542.27 Q187.516 1538.71 187.516 1531.6 Q187.516 1524.47 185.687 1520.93 Q183.882 1517.37 180.247 1517.37 M180.247 1513.66 Q186.057 1513.66 189.113 1518.27 Q192.192 1522.85 192.192 1531.6 Q192.192 1540.33 189.113 1544.94 Q186.057 1549.52 180.247 1549.52 Q174.437 1549.52 171.358 1544.94 Q168.303 1540.33 168.303 1531.6 Q168.303 1522.85 171.358 1518.27 Q174.437 1513.66 180.247 1513.66 Z" fill="#000000" fill-rule="nonzero" fill-opacity="1" /><path clip-path="url(#clip560)" d="M200.409 1542.97 L205.294 1542.97 L205.294 1548.85 L200.409 1548.85 L200.409 1542.97 Z" fill="#000000" fill-rule="nonzero" fill-opacity="1" /><path clip-path="url(#clip560)" d="M225.479 1517.37 Q221.867 1517.37 220.039 1520.93 Q218.233 1524.47 218.233 1531.6 Q218.233 1538.71 220.039 1542.27 Q221.867 1545.82 225.479 1545.82 Q229.113 1545.82 230.918 1542.27 Q232.747 1538.71 232.747 1531.6 Q232.747 1524.47 230.918 1520.93 Q229.113 1517.37 225.479 1517.37 M225.479 1513.66 Q231.289 1513.66 234.344 1518.27 Q237.423 1522.85 237.423 1531.6 Q237.423 1540.33 234.344 1544.94 Q231.289 1549.52 225.479 1549.52 Q219.668 1549.52 216.59 1544.94 Q213.534 1540.33 213.534 1531.6 Q213.534 1522.85 216.59 1518.27 Q219.668 1513.66 225.479 1513.66 Z" fill="#000000" fill-rule="nonzero" fill-opacity="1" /><path clip-path="url(#clip560)" d="M255.64 1517.37 Q252.029 1517.37 250.201 1520.93 Q248.395 1524.47 248.395 1531.6 Q248.395 1538.71 250.201 1542.27 Q252.029 1545.82 255.64 1545.82 Q259.275 1545.82 261.08 1542.27 Q262.909 1538.71 262.909 1531.6 Q262.909 1524.47 261.08 1520.93 Q259.275 1517.37 255.64 1517.37 M255.64 1513.66 Q261.451 1513.66 264.506 1518.27 Q267.585 1522.85 267.585 1531.6 Q267.585 1540.33 264.506 1544.94 Q261.451 1549.52 255.64 1549.52 Q249.83 1549.52 246.752 1544.94 Q243.696 1540.33 243.696 1531.6 Q243.696 1522.85 246.752 1518.27 Q249.83 1513.66 255.64 1513.66 Z" fill="#000000" fill-rule="nonzero" fill-opacity="1" /><path clip-path="url(#clip560)" d="M698.903 1517.37 Q695.292 1517.37 693.463 1520.93 Q691.658 1524.47 691.658 1531.6 Q691.658 1538.71 693.463 1542.27 Q695.292 1545.82 698.903 1545.82 Q702.538 1545.82 704.343 1542.27 Q706.172 1538.71 706.172 1531.6 Q706.172 1524.47 704.343 1520.93 Q702.538 1517.37 698.903 1517.37 M698.903 1513.66 Q704.713 1513.66 707.769 1518.27 Q710.848 1522.85 710.848 1531.6 Q710.848 1540.33 707.769 1544.94 Q704.713 1549.52 698.903 1549.52 Q693.093 1549.52 690.014 1544.94 Q686.959 1540.33 686.959 1531.6 Q686.959 1522.85 690.014 1518.27 Q693.093 1513.66 698.903 1513.66 Z" fill="#000000" fill-rule="nonzero" fill-opacity="1" /><path clip-path="url(#clip560)" d="M719.065 1542.97 L723.949 1542.97 L723.949 1548.85 L719.065 1548.85 L719.065 1542.97 Z" fill="#000000" fill-rule="nonzero" fill-opacity="1" /><path clip-path="url(#clip560)" d="M738.162 1544.91 L754.482 1544.91 L754.482 1548.85 L732.537 1548.85 L732.537 1544.91 Q735.199 1542.16 739.783 1537.53 Q744.389 1532.88 745.57 1531.53 Q747.815 1529.01 748.695 1527.27 Q749.597 1525.51 749.597 1523.82 Q749.597 1521.07 747.653 1519.33 Q745.732 1517.6 742.63 1517.6 Q740.431 1517.6 737.977 1518.36 Q735.547 1519.13 732.769 1520.68 L732.769 1515.95 Q735.593 1514.82 738.047 1514.24 Q740.5 1513.66 742.537 1513.66 Q747.908 1513.66 751.102 1516.35 Q754.296 1519.03 754.296 1523.52 Q754.296 1525.65 753.486 1527.57 Q752.699 1529.47 750.593 1532.07 Q750.014 1532.74 746.912 1535.95 Q743.81 1539.15 738.162 1544.91 Z" fill="#000000" fill-rule="nonzero" fill-opacity="1" /><path clip-path="url(#clip560)" d="M764.343 1514.29 L782.699 1514.29 L782.699 1518.22 L768.625 1518.22 L768.625 1526.7 Q769.644 1526.35 770.662 1526.19 Q771.681 1526 772.699 1526 Q778.486 1526 781.866 1529.17 Q785.245 1532.34 785.245 1537.76 Q785.245 1543.34 781.773 1546.44 Q778.301 1549.52 771.982 1549.52 Q769.806 1549.52 767.537 1549.15 Q765.292 1548.78 762.884 1548.04 L762.884 1543.34 Q764.968 1544.47 767.19 1545.03 Q769.412 1545.58 771.889 1545.58 Q775.894 1545.58 778.232 1543.48 Q780.57 1541.37 780.57 1537.76 Q780.57 1534.15 778.232 1532.04 Q775.894 1529.94 771.889 1529.94 Q770.014 1529.94 768.139 1530.35 Q766.287 1530.77 764.343 1531.65 L764.343 1514.29 Z" fill="#000000" fill-rule="nonzero" fill-opacity="1" /><path clip-path="url(#clip560)" d="M1216.56 1517.37 Q1212.95 1517.37 1211.12 1520.93 Q1209.32 1524.47 1209.32 1531.6 Q1209.32 1538.71 1211.12 1542.27 Q1212.95 1545.82 1216.56 1545.82 Q1220.2 1545.82 1222 1542.27 Q1223.83 1538.71 1223.83 1531.6 Q1223.83 1524.47 1222 1520.93 Q1220.2 1517.37 1216.56 1517.37 M1216.56 1513.66 Q1222.37 1513.66 1225.43 1518.27 Q1228.51 1522.85 1228.51 1531.6 Q1228.51 1540.33 1225.43 1544.94 Q1222.37 1549.52 1216.56 1549.52 Q1210.75 1549.52 1207.68 1544.94 Q1204.62 1540.33 1204.62 1531.6 Q1204.62 1522.85 1207.68 1518.27 Q1210.75 1513.66 1216.56 1513.66 Z" fill="#000000" fill-rule="nonzero" fill-opacity="1" /><path clip-path="url(#clip560)" d="M1236.73 1542.97 L1241.61 1542.97 L1241.61 1548.85 L1236.73 1548.85 L1236.73 1542.97 Z" fill="#000000" fill-rule="nonzero" fill-opacity="1" /><path clip-path="url(#clip560)" d="M1251.84 1514.29 L1270.2 1514.29 L1270.2 1518.22 L1256.12 1518.22 L1256.12 1526.7 Q1257.14 1526.35 1258.16 1526.19 Q1259.18 1526 1260.2 1526 Q1265.98 1526 1269.36 1529.17 Q1272.74 1532.34 1272.74 1537.76 Q1272.74 1543.34 1269.27 1546.44 Q1265.8 1549.52 1259.48 1549.52 Q1257.3 1549.52 1255.04 1549.15 Q1252.79 1548.78 1250.38 1548.04 L1250.38 1543.34 Q1252.47 1544.47 1254.69 1545.03 Q1256.91 1545.58 1259.39 1545.58 Q1263.39 1545.58 1265.73 1543.48 Q1268.07 1541.37 1268.07 1537.76 Q1268.07 1534.15 1265.73 1532.04 Q1263.39 1529.94 1259.39 1529.94 Q1257.51 1529.94 1255.64 1530.35 Q1253.79 1530.77 1251.84 1531.65 L1251.84 1514.29 Z" fill="#000000" fill-rule="nonzero" fill-opacity="1" /><path clip-path="url(#clip560)" d="M1291.96 1517.37 Q1288.35 1517.37 1286.52 1520.93 Q1284.71 1524.47 1284.71 1531.6 Q1284.71 1538.71 1286.52 1542.27 Q1288.35 1545.82 1291.96 1545.82 Q1295.59 1545.82 1297.4 1542.27 Q1299.23 1538.71 1299.23 1531.6 Q1299.23 1524.47 1297.4 1520.93 Q1295.59 1517.37 1291.96 1517.37 M1291.96 1513.66 Q1297.77 1513.66 1300.82 1518.27 Q1303.9 1522.85 1303.9 1531.6 Q1303.9 1540.33 1300.82 1544.94 Q1297.77 1549.52 1291.96 1549.52 Q1286.15 1549.52 1283.07 1544.94 Q1280.01 1540.33 1280.01 1531.6 Q1280.01 1522.85 1283.07 1518.27 Q1286.15 1513.66 1291.96 1513.66 Z" fill="#000000" fill-rule="nonzero" fill-opacity="1" /><path clip-path="url(#clip560)" d="M1735.22 1517.37 Q1731.61 1517.37 1729.78 1520.93 Q1727.97 1524.47 1727.97 1531.6 Q1727.97 1538.71 1729.78 1542.27 Q1731.61 1545.82 1735.22 1545.82 Q1738.85 1545.82 1740.66 1542.27 Q1742.49 1538.71 1742.49 1531.6 Q1742.49 1524.47 1740.66 1520.93 Q1738.85 1517.37 1735.22 1517.37 M1735.22 1513.66 Q1741.03 1513.66 1744.09 1518.27 Q1747.16 1522.85 1747.16 1531.6 Q1747.16 1540.33 1744.09 1544.94 Q1741.03 1549.52 1735.22 1549.52 Q1729.41 1549.52 1726.33 1544.94 Q1723.28 1540.33 1723.28 1531.6 Q1723.28 1522.85 1726.33 1518.27 Q1729.41 1513.66 1735.22 1513.66 Z" fill="#000000" fill-rule="nonzero" fill-opacity="1" /><path clip-path="url(#clip560)" d="M1755.38 1542.97 L1760.27 1542.97 L1760.27 1548.85 L1755.38 1548.85 L1755.38 1542.97 Z" fill="#000000" fill-rule="nonzero" fill-opacity="1" /><path clip-path="url(#clip560)" d="M1769.27 1514.29 L1791.49 1514.29 L1791.49 1516.28 L1778.95 1548.85 L1774.06 1548.85 L1785.87 1518.22 L1769.27 1518.22 L1769.27 1514.29 Z" fill="#000000" fill-rule="nonzero" fill-opacity="1" /><path clip-path="url(#clip560)" d="M1800.66 1514.29 L1819.02 1514.29 L1819.02 1518.22 L1804.94 1518.22 L1804.94 1526.7 Q1805.96 1526.35 1806.98 1526.19 Q1808 1526 1809.02 1526 Q1814.8 1526 1818.18 1529.17 Q1821.56 1532.34 1821.56 1537.76 Q1821.56 1543.34 1818.09 1546.44 Q1814.62 1549.52 1808.3 1549.52 Q1806.12 1549.52 1803.85 1549.15 Q1801.61 1548.78 1799.2 1548.04 L1799.2 1543.34 Q1801.28 1544.47 1803.51 1545.03 Q1805.73 1545.58 1808.21 1545.58 Q1812.21 1545.58 1814.55 1543.48 Q1816.89 1541.37 1816.89 1537.76 Q1816.89 1534.15 1814.55 1532.04 Q1812.21 1529.94 1808.21 1529.94 Q1806.33 1529.94 1804.46 1530.35 Q1802.6 1530.77 1800.66 1531.65 L1800.66 1514.29 Z" fill="#000000" fill-rule="nonzero" fill-opacity="1" /><path clip-path="url(#clip560)" d="M2242.65 1544.91 L2250.29 1544.91 L2250.29 1518.55 L2241.98 1520.21 L2241.98 1515.95 L2250.24 1514.29 L2254.92 1514.29 L2254.92 1544.91 L2262.56 1544.91 L2262.56 1548.85 L2242.65 1548.85 L2242.65 1544.91 Z" fill="#000000" fill-rule="nonzero" fill-opacity="1" /><path clip-path="url(#clip560)" d="M2272 1542.97 L2276.88 1542.97 L2276.88 1548.85 L2272 1548.85 L2272 1542.97 Z" fill="#000000" fill-rule="nonzero" fill-opacity="1" /><path clip-path="url(#clip560)" d="M2297.07 1517.37 Q2293.46 1517.37 2291.63 1520.93 Q2289.82 1524.47 2289.82 1531.6 Q2289.82 1538.71 2291.63 1542.27 Q2293.46 1545.82 2297.07 1545.82 Q2300.7 1545.82 2302.51 1542.27 Q2304.34 1538.71 2304.34 1531.6 Q2304.34 1524.47 2302.51 1520.93 Q2300.7 1517.37 2297.07 1517.37 M2297.07 1513.66 Q2302.88 1513.66 2305.94 1518.27 Q2309.01 1522.85 2309.01 1531.6 Q2309.01 1540.33 2305.94 1544.94 Q2302.88 1549.52 2297.07 1549.52 Q2291.26 1549.52 2288.18 1544.94 Q2285.13 1540.33 2285.13 1531.6 Q2285.13 1522.85 2288.18 1518.27 Q2291.26 1513.66 2297.07 1513.66 Z" fill="#000000" fill-rule="nonzero" fill-opacity="1" /><path clip-path="url(#clip560)" d="M2327.23 1517.37 Q2323.62 1517.37 2321.79 1520.93 Q2319.99 1524.47 2319.99 1531.6 Q2319.99 1538.71 2321.79 1542.27 Q2323.62 1545.82 2327.23 1545.82 Q2330.87 1545.82 2332.67 1542.27 Q2334.5 1538.71 2334.5 1531.6 Q2334.5 1524.47 2332.67 1520.93 Q2330.87 1517.37 2327.23 1517.37 M2327.23 1513.66 Q2333.04 1513.66 2336.1 1518.27 Q2339.18 1522.85 2339.18 1531.6 Q2339.18 1540.33 2336.1 1544.94 Q2333.04 1549.52 2327.23 1549.52 Q2321.42 1549.52 2318.34 1544.94 Q2315.29 1540.33 2315.29 1531.6 Q2315.29 1522.85 2318.34 1518.27 Q2321.42 1513.66 2327.23 1513.66 Z" fill="#000000" fill-rule="nonzero" fill-opacity="1" /><polyline clip-path="url(#clip560)" style="stroke:#000000; stroke-linecap:round; stroke-linejoin:round; stroke-width:4; stroke-opacity:1; fill:none" points="155.765,1486.45 155.765,47.2441 "/>
<polyline clip-path="url(#clip560)" style="stroke:#000000; stroke-linecap:round; stroke-linejoin:round; stroke-width:4; stroke-opacity:1; fill:none" points="155.765,1335.88 174.663,1335.88 "/>
<polyline clip-path="url(#clip560)" style="stroke:#000000; stroke-linecap:round; stroke-linejoin:round; stroke-width:4; stroke-opacity:1; fill:none" points="155.765,1127.31 174.663,1127.31 "/>
<polyline clip-path="url(#clip560)" style="stroke:#000000; stroke-linecap:round; stroke-linejoin:round; stroke-width:4; stroke-opacity:1; fill:none" points="155.765,918.732 174.663,918.732 "/>
<polyline clip-path="url(#clip560)" style="stroke:#000000; stroke-linecap:round; stroke-linejoin:round; stroke-width:4; stroke-opacity:1; fill:none" points="155.765,710.158 174.663,710.158 "/>
<polyline clip-path="url(#clip560)" style="stroke:#000000; stroke-linecap:round; stroke-linejoin:round; stroke-width:4; stroke-opacity:1; fill:none" points="155.765,501.583 174.663,501.583 "/>
<polyline clip-path="url(#clip560)" style="stroke:#000000; stroke-linecap:round; stroke-linejoin:round; stroke-width:4; stroke-opacity:1; fill:none" points="155.765,293.009 174.663,293.009 "/>
<polyline clip-path="url(#clip560)" style="stroke:#000000; stroke-linecap:round; stroke-linejoin:round; stroke-width:4; stroke-opacity:1; fill:none" points="155.765,84.435 174.663,84.435 "/>
<path clip-path="url(#clip560)" d="M63.5847 1321.68 Q59.9736 1321.68 58.1449 1325.24 Q56.3393 1328.79 56.3393 1335.91 Q56.3393 1343.02 58.1449 1346.59 Q59.9736 1350.13 63.5847 1350.13 Q67.2189 1350.13 69.0244 1346.59 Q70.8531 1343.02 70.8531 1335.91 Q70.8531 1328.79 69.0244 1325.24 Q67.2189 1321.68 63.5847 1321.68 M63.5847 1317.98 Q69.3948 1317.98 72.4503 1322.58 Q75.529 1327.17 75.529 1335.91 Q75.529 1344.64 72.4503 1349.25 Q69.3948 1353.83 63.5847 1353.83 Q57.7745 1353.83 54.6958 1349.25 Q51.6403 1344.64 51.6403 1335.91 Q51.6403 1327.17 54.6958 1322.58 Q57.7745 1317.98 63.5847 1317.98 Z" fill="#000000" fill-rule="nonzero" fill-opacity="1" /><path clip-path="url(#clip560)" d="M83.7466 1347.28 L88.6308 1347.28 L88.6308 1353.16 L83.7466 1353.16 L83.7466 1347.28 Z" fill="#000000" fill-rule="nonzero" fill-opacity="1" /><path clip-path="url(#clip560)" d="M98.8622 1318.6 L117.219 1318.6 L117.219 1322.54 L103.145 1322.54 L103.145 1331.01 Q104.163 1330.66 105.182 1330.5 Q106.2 1330.31 107.219 1330.31 Q113.006 1330.31 116.385 1333.48 Q119.765 1336.66 119.765 1342.07 Q119.765 1347.65 116.293 1350.75 Q112.82 1353.83 106.501 1353.83 Q104.325 1353.83 102.057 1353.46 Q99.8113 1353.09 97.4039 1352.35 L97.4039 1347.65 Q99.4872 1348.79 101.709 1349.34 Q103.932 1349.9 106.408 1349.9 Q110.413 1349.9 112.751 1347.79 Q115.089 1345.68 115.089 1342.07 Q115.089 1338.46 112.751 1336.35 Q110.413 1334.25 106.408 1334.25 Q104.534 1334.25 102.659 1334.66 Q100.807 1335.08 98.8622 1335.96 L98.8622 1318.6 Z" fill="#000000" fill-rule="nonzero" fill-opacity="1" /><path clip-path="url(#clip560)" d="M53.3995 1140.65 L61.0384 1140.65 L61.0384 1114.29 L52.7282 1115.95 L52.7282 1111.69 L60.9921 1110.03 L65.668 1110.03 L65.668 1140.65 L73.3068 1140.65 L73.3068 1144.59 L53.3995 1144.59 L53.3995 1140.65 Z" fill="#000000" fill-rule="nonzero" fill-opacity="1" /><path clip-path="url(#clip560)" d="M82.7512 1138.71 L87.6354 1138.71 L87.6354 1144.59 L82.7512 1144.59 L82.7512 1138.71 Z" fill="#000000" fill-rule="nonzero" fill-opacity="1" /><path clip-path="url(#clip560)" d="M107.821 1113.1 Q104.209 1113.1 102.381 1116.67 Q100.575 1120.21 100.575 1127.34 Q100.575 1134.45 102.381 1138.01 Q104.209 1141.55 107.821 1141.55 Q111.455 1141.55 113.26 1138.01 Q115.089 1134.45 115.089 1127.34 Q115.089 1120.21 113.26 1116.67 Q111.455 1113.1 107.821 1113.1 M107.821 1109.4 Q113.631 1109.4 116.686 1114.01 Q119.765 1118.59 119.765 1127.34 Q119.765 1136.07 116.686 1140.67 Q113.631 1145.26 107.821 1145.26 Q102.01 1145.26 98.9317 1140.67 Q95.8761 1136.07 95.8761 1127.34 Q95.8761 1118.59 98.9317 1114.01 Q102.01 1109.4 107.821 1109.4 Z" fill="#000000" fill-rule="nonzero" fill-opacity="1" /><path clip-path="url(#clip560)" d="M54.3949 932.077 L62.0337 932.077 L62.0337 905.711 L53.7236 907.378 L53.7236 903.118 L61.9874 901.452 L66.6633 901.452 L66.6633 932.077 L74.3022 932.077 L74.3022 936.012 L54.3949 936.012 L54.3949 932.077 Z" fill="#000000" fill-rule="nonzero" fill-opacity="1" /><path clip-path="url(#clip560)" d="M83.7466 930.132 L88.6308 930.132 L88.6308 936.012 L83.7466 936.012 L83.7466 930.132 Z" fill="#000000" fill-rule="nonzero" fill-opacity="1" /><path clip-path="url(#clip560)" d="M98.8622 901.452 L117.219 901.452 L117.219 905.387 L103.145 905.387 L103.145 913.859 Q104.163 913.512 105.182 913.35 Q106.2 913.165 107.219 913.165 Q113.006 913.165 116.385 916.336 Q119.765 919.507 119.765 924.924 Q119.765 930.503 116.293 933.604 Q112.82 936.683 106.501 936.683 Q104.325 936.683 102.057 936.313 Q99.8113 935.942 97.4039 935.202 L97.4039 930.503 Q99.4872 931.637 101.709 932.192 Q103.932 932.748 106.408 932.748 Q110.413 932.748 112.751 930.641 Q115.089 928.535 115.089 924.924 Q115.089 921.313 112.751 919.206 Q110.413 917.1 106.408 917.1 Q104.534 917.1 102.659 917.517 Q100.807 917.933 98.8622 918.813 L98.8622 901.452 Z" fill="#000000" fill-rule="nonzero" fill-opacity="1" /><path clip-path="url(#clip560)" d="M56.6171 723.502 L72.9365 723.502 L72.9365 727.438 L50.9921 727.438 L50.9921 723.502 Q53.6541 720.748 58.2375 716.118 Q62.8439 711.465 64.0245 710.123 Q66.2698 707.6 67.1494 705.864 Q68.0522 704.104 68.0522 702.415 Q68.0522 699.66 66.1078 697.924 Q64.1865 696.188 61.0847 696.188 Q58.8856 696.188 56.4319 696.952 Q54.0014 697.716 51.2236 699.266 L51.2236 694.544 Q54.0477 693.41 56.5014 692.831 Q58.955 692.253 60.9921 692.253 Q66.3624 692.253 69.5568 694.938 Q72.7513 697.623 72.7513 702.114 Q72.7513 704.243 71.9411 706.165 Q71.1541 708.063 69.0476 710.655 Q68.4689 711.327 65.367 714.544 Q62.2652 717.739 56.6171 723.502 Z" fill="#000000" fill-rule="nonzero" fill-opacity="1" /><path clip-path="url(#clip560)" d="M82.7512 721.558 L87.6354 721.558 L87.6354 727.438 L82.7512 727.438 L82.7512 721.558 Z" fill="#000000" fill-rule="nonzero" fill-opacity="1" /><path clip-path="url(#clip560)" d="M107.821 695.956 Q104.209 695.956 102.381 699.521 Q100.575 703.063 100.575 710.192 Q100.575 717.299 102.381 720.864 Q104.209 724.405 107.821 724.405 Q111.455 724.405 113.26 720.864 Q115.089 717.299 115.089 710.192 Q115.089 703.063 113.26 699.521 Q111.455 695.956 107.821 695.956 M107.821 692.253 Q113.631 692.253 116.686 696.859 Q119.765 701.442 119.765 710.192 Q119.765 718.919 116.686 723.526 Q113.631 728.109 107.821 728.109 Q102.01 728.109 98.9317 723.526 Q95.8761 718.919 95.8761 710.192 Q95.8761 701.442 98.9317 696.859 Q102.01 692.253 107.821 692.253 Z" fill="#000000" fill-rule="nonzero" fill-opacity="1" /><path clip-path="url(#clip560)" d="M57.6125 514.928 L73.9318 514.928 L73.9318 518.863 L51.9875 518.863 L51.9875 514.928 Q54.6495 512.174 59.2328 507.544 Q63.8393 502.891 65.0198 501.549 Q67.2652 499.026 68.1448 497.289 Q69.0476 495.53 69.0476 493.84 Q69.0476 491.086 67.1032 489.35 Q65.1819 487.614 62.08 487.614 Q59.881 487.614 57.4273 488.377 Q54.9967 489.141 52.219 490.692 L52.219 485.97 Q55.043 484.836 57.4967 484.257 Q59.9504 483.678 61.9874 483.678 Q67.3578 483.678 70.5522 486.364 Q73.7466 489.049 73.7466 493.539 Q73.7466 495.669 72.9365 497.59 Q72.1494 499.489 70.0429 502.081 Q69.4642 502.752 66.3624 505.97 Q63.2606 509.164 57.6125 514.928 Z" fill="#000000" fill-rule="nonzero" fill-opacity="1" /><path clip-path="url(#clip560)" d="M83.7466 512.984 L88.6308 512.984 L88.6308 518.863 L83.7466 518.863 L83.7466 512.984 Z" fill="#000000" fill-rule="nonzero" fill-opacity="1" /><path clip-path="url(#clip560)" d="M98.8622 484.303 L117.219 484.303 L117.219 488.239 L103.145 488.239 L103.145 496.711 Q104.163 496.364 105.182 496.201 Q106.2 496.016 107.219 496.016 Q113.006 496.016 116.385 499.188 Q119.765 502.359 119.765 507.775 Q119.765 513.354 116.293 516.456 Q112.82 519.535 106.501 519.535 Q104.325 519.535 102.057 519.164 Q99.8113 518.794 97.4039 518.053 L97.4039 513.354 Q99.4872 514.488 101.709 515.044 Q103.932 515.6 106.408 515.6 Q110.413 515.6 112.751 513.493 Q115.089 511.387 115.089 507.775 Q115.089 504.164 112.751 502.058 Q110.413 499.951 106.408 499.951 Q104.534 499.951 102.659 500.368 Q100.807 500.785 98.8622 501.664 L98.8622 484.303 Z" fill="#000000" fill-rule="nonzero" fill-opacity="1" /><path clip-path="url(#clip560)" d="M66.7559 291.655 Q70.1124 292.373 71.9874 294.641 Q73.8855 296.91 73.8855 300.243 Q73.8855 305.359 70.367 308.16 Q66.8485 310.96 60.3671 310.96 Q58.1912 310.96 55.8764 310.521 Q53.5847 310.104 51.131 309.248 L51.131 304.734 Q53.0754 305.868 55.3903 306.447 Q57.7051 307.025 60.2282 307.025 Q64.6263 307.025 66.918 305.289 Q69.2328 303.553 69.2328 300.243 Q69.2328 297.187 67.08 295.474 Q64.9504 293.738 61.131 293.738 L57.1032 293.738 L57.1032 289.896 L61.3161 289.896 Q64.7652 289.896 66.5939 288.53 Q68.4226 287.141 68.4226 284.549 Q68.4226 281.887 66.5245 280.475 Q64.6495 279.039 61.131 279.039 Q59.2097 279.039 57.0106 279.456 Q54.8115 279.873 52.1727 280.752 L52.1727 276.586 Q54.8347 275.845 57.1495 275.475 Q59.4875 275.104 61.5476 275.104 Q66.8717 275.104 69.9735 277.535 Q73.0753 279.942 73.0753 284.062 Q73.0753 286.933 71.4318 288.924 Q69.7883 290.891 66.7559 291.655 Z" fill="#000000" fill-rule="nonzero" fill-opacity="1" /><path clip-path="url(#clip560)" d="M82.7512 304.41 L87.6354 304.41 L87.6354 310.289 L82.7512 310.289 L82.7512 304.41 Z" fill="#000000" fill-rule="nonzero" fill-opacity="1" /><path clip-path="url(#clip560)" d="M107.821 278.808 Q104.209 278.808 102.381 282.373 Q100.575 285.914 100.575 293.044 Q100.575 300.15 102.381 303.715 Q104.209 307.257 107.821 307.257 Q111.455 307.257 113.26 303.715 Q115.089 300.15 115.089 293.044 Q115.089 285.914 113.26 282.373 Q111.455 278.808 107.821 278.808 M107.821 275.104 Q113.631 275.104 116.686 279.711 Q119.765 284.294 119.765 293.044 Q119.765 301.771 116.686 306.377 Q113.631 310.96 107.821 310.96 Q102.01 310.96 98.9317 306.377 Q95.8761 301.771 95.8761 293.044 Q95.8761 284.294 98.9317 279.711 Q102.01 275.104 107.821 275.104 Z" fill="#000000" fill-rule="nonzero" fill-opacity="1" /><path clip-path="url(#clip560)" d="M67.7513 83.0808 Q71.1078 83.7984 72.9827 86.0669 Q74.8809 88.3354 74.8809 91.6687 Q74.8809 96.7844 71.3624 99.5854 Q67.8439 102.386 61.3624 102.386 Q59.1865 102.386 56.8717 101.946 Q54.5801 101.53 52.1264 100.673 L52.1264 96.1594 Q54.0708 97.2937 56.3856 97.8724 Q58.7004 98.4511 61.2236 98.4511 Q65.6217 98.4511 67.9133 96.715 Q70.2281 94.9789 70.2281 91.6687 Q70.2281 88.6132 68.0754 86.9002 Q65.9457 85.1641 62.1263 85.1641 L58.0986 85.1641 L58.0986 81.3216 L62.3115 81.3216 Q65.7606 81.3216 67.5893 79.9558 Q69.418 78.5669 69.418 75.9744 Q69.418 73.3123 67.5198 71.9003 Q65.6448 70.4651 62.1263 70.4651 Q60.205 70.4651 58.006 70.8818 Q55.8069 71.2985 53.168 72.1781 L53.168 68.0114 Q55.8301 67.2707 58.1449 66.9003 Q60.4828 66.53 62.543 66.53 Q67.867 66.53 70.9689 68.9605 Q74.0707 71.3679 74.0707 75.4883 Q74.0707 78.3586 72.4272 80.3493 Q70.7837 82.3169 67.7513 83.0808 Z" fill="#000000" fill-rule="nonzero" fill-opacity="1" /><path clip-path="url(#clip560)" d="M83.7466 95.8354 L88.6308 95.8354 L88.6308 101.715 L83.7466 101.715 L83.7466 95.8354 Z" fill="#000000" fill-rule="nonzero" fill-opacity="1" /><path clip-path="url(#clip560)" d="M98.8622 67.155 L117.219 67.155 L117.219 71.0901 L103.145 71.0901 L103.145 79.5623 Q104.163 79.2151 105.182 79.0531 Q106.2 78.8679 107.219 78.8679 Q113.006 78.8679 116.385 82.0391 Q119.765 85.2104 119.765 90.6271 Q119.765 96.2057 116.293 99.3076 Q112.82 102.386 106.501 102.386 Q104.325 102.386 102.057 102.016 Q99.8113 101.646 97.4039 100.905 L97.4039 96.2057 Q99.4872 97.34 101.709 97.8955 Q103.932 98.4511 106.408 98.4511 Q110.413 98.4511 112.751 96.3446 Q115.089 94.2382 115.089 90.6271 Q115.089 87.016 112.751 84.9095 Q110.413 82.803 106.408 82.803 Q104.534 82.803 102.659 83.2197 Q100.807 83.6364 98.8622 84.516 L98.8622 67.155 Z" fill="#000000" fill-rule="nonzero" fill-opacity="1" /><path clip-path="url(#clip561)" d="M217.944 1335.88 L425.207 1319.37 L632.47 1301.81 L839.734 1303.65 L1047 1347.63 L1254.26 1373.64 L1461.52 1407.7 L1668.79 1436.79 L1876.05 1445.72 L2083.31 1433.52 L2290.58 1413.49 L2290.58 87.9763 L2083.31 243.974 L1876.05 532.093 L1668.79 628.525 L1461.52 690.22 L1254.26 889.523 L1047 914.78 L839.734 1030.97 L632.47 1128.78 L425.207 1222.34 L217.944 1335.88  Z" fill="#009af9" fill-rule="evenodd" fill-opacity="0.2"/>
<polyline clip-path="url(#clip561)" style="stroke:#009af9; stroke-linecap:round; stroke-linejoin:round; stroke-width:12; stroke-opacity:1; fill:none" points="217.944,1335.88 425.207,1276.57 632.47,1218.17 839.734,1198.91 1047,1203.76 1254.26,1168.45 1461.52,1109.43 1668.79,1009.22 1876.05,967.325 2083.31,886.314 2290.58,722.101 "/>
</svg>
