<?xml version="1.0" encoding="utf-8"?>
<svg xmlns="http://www.w3.org/2000/svg" xmlns:xlink="http://www.w3.org/1999/xlink" width="600" height="400" viewBox="0 0 2400 1600">
<defs>
  <clipPath id="clip420">
    <rect x="0" y="0" width="2400" height="1600"/>
  </clipPath>
</defs>
<path clip-path="url(#clip420)" d="M0 1600 L2400 1600 L2400 0 L0 0  Z" fill="#ffffff" fill-rule="evenodd" fill-opacity="1"/>
<defs>
  <clipPath id="clip421">
    <rect x="480" y="0" width="1681" height="1600"/>
  </clipPath>
</defs>
<path clip-path="url(#clip420)" d="M156.598 1486.45 L2352.76 1486.45 L2352.76 47.2441 L156.598 47.2441  Z" fill="#ffffff" fill-rule="evenodd" fill-opacity="1"/>
<defs>
  <clipPath id="clip422">
    <rect x="156" y="47" width="2197" height="1440"/>
  </clipPath>
</defs>
<polyline clip-path="url(#clip422)" style="stroke:#000000; stroke-linecap:round; stroke-linejoin:round; stroke-width:2; stroke-opacity:0.1; fill:none" points="218.754,1486.45 218.754,47.2441 "/>
<polyline clip-path="url(#clip422)" style="stroke:#000000; stroke-linecap:round; stroke-linejoin:round; stroke-width:2; stroke-opacity:0.1; fill:none" points="736.715,1486.45 736.715,47.2441 "/>
<polyline clip-path="url(#clip422)" style="stroke:#000000; stroke-linecap:round; stroke-linejoin:round; stroke-width:2; stroke-opacity:0.1; fill:none" points="1254.68,1486.45 1254.68,47.2441 "/>
<polyline clip-path="url(#clip422)" style="stroke:#000000; stroke-linecap:round; stroke-linejoin:round; stroke-width:2; stroke-opacity:0.1; fill:none" points="1772.64,1486.45 1772.64,47.2441 "/>
<polyline clip-path="url(#clip422)" style="stroke:#000000; stroke-linecap:round; stroke-linejoin:round; stroke-width:2; stroke-opacity:0.1; fill:none" points="2290.6,1486.45 2290.6,47.2441 "/>
<polyline clip-path="url(#clip422)" style="stroke:#000000; stroke-linecap:round; stroke-linejoin:round; stroke-width:2; stroke-opacity:0.1; fill:none" points="156.598,1328.48 2352.76,1328.48 "/>
<polyline clip-path="url(#clip422)" style="stroke:#000000; stroke-linecap:round; stroke-linejoin:round; stroke-width:2; stroke-opacity:0.1; fill:none" points="156.598,1166.11 2352.76,1166.11 "/>
<polyline clip-path="url(#clip422)" style="stroke:#000000; stroke-linecap:round; stroke-linejoin:round; stroke-width:2; stroke-opacity:0.1; fill:none" points="156.598,1003.74 2352.76,1003.74 "/>
<polyline clip-path="url(#clip422)" style="stroke:#000000; stroke-linecap:round; stroke-linejoin:round; stroke-width:2; stroke-opacity:0.1; fill:none" points="156.598,841.368 2352.76,841.368 "/>
<polyline clip-path="url(#clip422)" style="stroke:#000000; stroke-linecap:round; stroke-linejoin:round; stroke-width:2; stroke-opacity:0.1; fill:none" points="156.598,678.996 2352.76,678.996 "/>
<polyline clip-path="url(#clip422)" style="stroke:#000000; stroke-linecap:round; stroke-linejoin:round; stroke-width:2; stroke-opacity:0.1; fill:none" points="156.598,516.624 2352.76,516.624 "/>
<polyline clip-path="url(#clip422)" style="stroke:#000000; stroke-linecap:round; stroke-linejoin:round; stroke-width:2; stroke-opacity:0.1; fill:none" points="156.598,354.252 2352.76,354.252 "/>
<polyline clip-path="url(#clip422)" style="stroke:#000000; stroke-linecap:round; stroke-linejoin:round; stroke-width:2; stroke-opacity:0.1; fill:none" points="156.598,191.88 2352.76,191.88 "/>
<polyline clip-path="url(#clip420)" style="stroke:#000000; stroke-linecap:round; stroke-linejoin:round; stroke-width:4; stroke-opacity:1; fill:none" points="156.598,1486.45 2352.76,1486.45 "/>
<polyline clip-path="url(#clip420)" style="stroke:#000000; stroke-linecap:round; stroke-linejoin:round; stroke-width:4; stroke-opacity:1; fill:none" points="218.754,1486.45 218.754,1467.55 "/>
<polyline clip-path="url(#clip420)" style="stroke:#000000; stroke-linecap:round; stroke-linejoin:round; stroke-width:4; stroke-opacity:1; fill:none" points="736.715,1486.45 736.715,1467.55 "/>
<polyline clip-path="url(#clip420)" style="stroke:#000000; stroke-linecap:round; stroke-linejoin:round; stroke-width:4; stroke-opacity:1; fill:none" points="1254.68,1486.45 1254.68,1467.55 "/>
<polyline clip-path="url(#clip420)" style="stroke:#000000; stroke-linecap:round; stroke-linejoin:round; stroke-width:4; stroke-opacity:1; fill:none" points="1772.64,1486.45 1772.64,1467.55 "/>
<polyline clip-path="url(#clip420)" style="stroke:#000000; stroke-linecap:round; stroke-linejoin:round; stroke-width:4; stroke-opacity:1; fill:none" points="2290.6,1486.45 2290.6,1467.55 "/>
<path clip-path="url(#clip420)" d="M181.057 1517.37 Q177.446 1517.37 175.617 1520.93 Q173.812 1524.47 173.812 1531.6 Q173.812 1538.71 175.617 1542.27 Q177.446 1545.82 181.057 1545.82 Q184.691 1545.82 186.497 1542.27 Q188.326 1538.71 188.326 1531.6 Q188.326 1524.47 186.497 1520.93 Q184.691 1517.37 181.057 1517.37 M181.057 1513.66 Q186.867 1513.66 189.923 1518.27 Q193.001 1522.85 193.001 1531.6 Q193.001 1540.33 189.923 1544.94 Q186.867 1549.52 181.057 1549.52 Q175.247 1549.52 172.168 1544.94 Q169.113 1540.33 169.113 1531.6 Q169.113 1522.85 172.168 1518.27 Q175.247 1513.66 181.057 1513.66 Z" fill="#000000" fill-rule="nonzero" fill-opacity="1" /><path clip-path="url(#clip420)" d="M201.219 1542.97 L206.103 1542.97 L206.103 1548.85 L201.219 1548.85 L201.219 1542.97 Z" fill="#000000" fill-rule="nonzero" fill-opacity="1" /><path clip-path="url(#clip420)" d="M226.288 1517.37 Q222.677 1517.37 220.849 1520.93 Q219.043 1524.47 219.043 1531.6 Q219.043 1538.71 220.849 1542.27 Q222.677 1545.82 226.288 1545.82 Q229.923 1545.82 231.728 1542.27 Q233.557 1538.71 233.557 1531.6 Q233.557 1524.47 231.728 1520.93 Q229.923 1517.37 226.288 1517.37 M226.288 1513.66 Q232.098 1513.66 235.154 1518.27 Q238.233 1522.85 238.233 1531.6 Q238.233 1540.33 235.154 1544.94 Q232.098 1549.52 226.288 1549.52 Q220.478 1549.52 217.399 1544.94 Q214.344 1540.33 214.344 1531.6 Q214.344 1522.85 217.399 1518.27 Q220.478 1513.66 226.288 1513.66 Z" fill="#000000" fill-rule="nonzero" fill-opacity="1" /><path clip-path="url(#clip420)" d="M256.45 1517.37 Q252.839 1517.37 251.01 1520.93 Q249.205 1524.47 249.205 1531.6 Q249.205 1538.71 251.01 1542.27 Q252.839 1545.82 256.45 1545.82 Q260.084 1545.82 261.89 1542.27 Q263.719 1538.71 263.719 1531.6 Q263.719 1524.47 261.89 1520.93 Q260.084 1517.37 256.45 1517.37 M256.45 1513.66 Q262.26 1513.66 265.316 1518.27 Q268.395 1522.85 268.395 1531.6 Q268.395 1540.33 265.316 1544.94 Q262.26 1549.52 256.45 1549.52 Q250.64 1549.52 247.561 1544.94 Q244.506 1540.33 244.506 1531.6 Q244.506 1522.85 247.561 1518.27 Q250.64 1513.66 256.45 1513.66 Z" fill="#000000" fill-rule="nonzero" fill-opacity="1" /><path clip-path="url(#clip420)" d="M699.516 1517.37 Q695.905 1517.37 694.077 1520.93 Q692.271 1524.47 692.271 1531.6 Q692.271 1538.71 694.077 1542.27 Q695.905 1545.82 699.516 1545.82 Q703.151 1545.82 704.956 1542.27 Q706.785 1538.71 706.785 1531.6 Q706.785 1524.47 704.956 1520.93 Q703.151 1517.37 699.516 1517.37 M699.516 1513.66 Q705.327 1513.66 708.382 1518.27 Q711.461 1522.85 711.461 1531.6 Q711.461 1540.33 708.382 1544.94 Q705.327 1549.52 699.516 1549.52 Q693.706 1549.52 690.628 1544.94 Q687.572 1540.33 687.572 1531.6 Q687.572 1522.85 690.628 1518.27 Q693.706 1513.66 699.516 1513.66 Z" fill="#000000" fill-rule="nonzero" fill-opacity="1" /><path clip-path="url(#clip420)" d="M719.678 1542.97 L724.563 1542.97 L724.563 1548.85 L719.678 1548.85 L719.678 1542.97 Z" fill="#000000" fill-rule="nonzero" fill-opacity="1" /><path clip-path="url(#clip420)" d="M738.776 1544.91 L755.095 1544.91 L755.095 1548.85 L733.151 1548.85 L733.151 1544.91 Q735.813 1542.16 740.396 1537.53 Q745.002 1532.88 746.183 1531.53 Q748.428 1529.01 749.308 1527.27 Q750.211 1525.51 750.211 1523.82 Q750.211 1521.07 748.266 1519.33 Q746.345 1517.6 743.243 1517.6 Q741.044 1517.6 738.59 1518.36 Q736.16 1519.13 733.382 1520.68 L733.382 1515.95 Q736.206 1514.82 738.66 1514.24 Q741.113 1513.66 743.151 1513.66 Q748.521 1513.66 751.715 1516.35 Q754.91 1519.03 754.91 1523.52 Q754.91 1525.65 754.1 1527.57 Q753.312 1529.47 751.206 1532.07 Q750.627 1532.74 747.525 1535.95 Q744.424 1539.15 738.776 1544.91 Z" fill="#000000" fill-rule="nonzero" fill-opacity="1" /><path clip-path="url(#clip420)" d="M764.956 1514.29 L783.312 1514.29 L783.312 1518.22 L769.238 1518.22 L769.238 1526.7 Q770.257 1526.35 771.275 1526.19 Q772.294 1526 773.312 1526 Q779.099 1526 782.479 1529.17 Q785.859 1532.34 785.859 1537.76 Q785.859 1543.34 782.386 1546.44 Q778.914 1549.52 772.595 1549.52 Q770.419 1549.52 768.15 1549.15 Q765.905 1548.78 763.498 1548.04 L763.498 1543.34 Q765.581 1544.47 767.803 1545.03 Q770.025 1545.58 772.502 1545.58 Q776.507 1545.58 778.845 1543.48 Q781.183 1541.37 781.183 1537.76 Q781.183 1534.15 778.845 1532.04 Q776.507 1529.94 772.502 1529.94 Q770.627 1529.94 768.752 1530.35 Q766.9 1530.77 764.956 1531.65 L764.956 1514.29 Z" fill="#000000" fill-rule="nonzero" fill-opacity="1" /><path clip-path="url(#clip420)" d="M1216.98 1517.37 Q1213.37 1517.37 1211.54 1520.93 Q1209.74 1524.47 1209.74 1531.6 Q1209.74 1538.71 1211.54 1542.27 Q1213.37 1545.82 1216.98 1545.82 Q1220.61 1545.82 1222.42 1542.27 Q1224.25 1538.71 1224.25 1531.6 Q1224.25 1524.47 1222.42 1520.93 Q1220.61 1517.37 1216.98 1517.37 M1216.98 1513.66 Q1222.79 1513.66 1225.85 1518.27 Q1228.92 1522.85 1228.92 1531.6 Q1228.92 1540.33 1225.85 1544.94 Q1222.79 1549.52 1216.98 1549.52 Q1211.17 1549.52 1208.09 1544.94 Q1205.04 1540.33 1205.04 1531.6 Q1205.04 1522.85 1208.09 1518.27 Q1211.17 1513.66 1216.98 1513.66 Z" fill="#000000" fill-rule="nonzero" fill-opacity="1" /><path clip-path="url(#clip420)" d="M1237.14 1542.97 L1242.03 1542.97 L1242.03 1548.85 L1237.14 1548.85 L1237.14 1542.97 Z" fill="#000000" fill-rule="nonzero" fill-opacity="1" /><path clip-path="url(#clip420)" d="M1252.26 1514.29 L1270.61 1514.29 L1270.61 1518.22 L1256.54 1518.22 L1256.54 1526.7 Q1257.56 1526.35 1258.58 1526.19 Q1259.6 1526 1260.61 1526 Q1266.4 1526 1269.78 1529.17 Q1273.16 1532.34 1273.16 1537.76 Q1273.16 1543.34 1269.69 1546.44 Q1266.22 1549.52 1259.9 1549.52 Q1257.72 1549.52 1255.45 1549.15 Q1253.21 1548.78 1250.8 1548.04 L1250.8 1543.34 Q1252.88 1544.47 1255.11 1545.03 Q1257.33 1545.58 1259.8 1545.58 Q1263.81 1545.58 1266.15 1543.48 Q1268.48 1541.37 1268.48 1537.76 Q1268.48 1534.15 1266.15 1532.04 Q1263.81 1529.94 1259.8 1529.94 Q1257.93 1529.94 1256.05 1530.35 Q1254.2 1530.77 1252.26 1531.65 L1252.26 1514.29 Z" fill="#000000" fill-rule="nonzero" fill-opacity="1" /><path clip-path="url(#clip420)" d="M1292.37 1517.37 Q1288.76 1517.37 1286.93 1520.93 Q1285.13 1524.47 1285.13 1531.6 Q1285.13 1538.71 1286.93 1542.27 Q1288.76 1545.82 1292.37 1545.82 Q1296.01 1545.82 1297.81 1542.27 Q1299.64 1538.71 1299.64 1531.6 Q1299.64 1524.47 1297.81 1520.93 Q1296.01 1517.37 1292.37 1517.37 M1292.37 1513.66 Q1298.18 1513.66 1301.24 1518.27 Q1304.32 1522.85 1304.32 1531.6 Q1304.32 1540.33 1301.24 1544.94 Q1298.18 1549.52 1292.37 1549.52 Q1286.56 1549.52 1283.48 1544.94 Q1280.43 1540.33 1280.43 1531.6 Q1280.43 1522.85 1283.48 1518.27 Q1286.56 1513.66 1292.37 1513.66 Z" fill="#000000" fill-rule="nonzero" fill-opacity="1" /><path clip-path="url(#clip420)" d="M1735.44 1517.37 Q1731.83 1517.37 1730 1520.93 Q1728.19 1524.47 1728.19 1531.6 Q1728.19 1538.71 1730 1542.27 Q1731.83 1545.82 1735.44 1545.82 Q1739.07 1545.82 1740.88 1542.27 Q1742.71 1538.71 1742.71 1531.6 Q1742.71 1524.47 1740.88 1520.93 Q1739.07 1517.37 1735.44 1517.37 M1735.44 1513.66 Q1741.25 1513.66 1744.31 1518.27 Q1747.38 1522.85 1747.38 1531.6 Q1747.38 1540.33 1744.31 1544.94 Q1741.25 1549.52 1735.44 1549.52 Q1729.63 1549.52 1726.55 1544.94 Q1723.5 1540.33 1723.5 1531.6 Q1723.5 1522.85 1726.55 1518.27 Q1729.63 1513.66 1735.44 1513.66 Z" fill="#000000" fill-rule="nonzero" fill-opacity="1" /><path clip-path="url(#clip420)" d="M1755.6 1542.97 L1760.49 1542.97 L1760.49 1548.85 L1755.6 1548.85 L1755.6 1542.97 Z" fill="#000000" fill-rule="nonzero" fill-opacity="1" /><path clip-path="url(#clip420)" d="M1769.49 1514.29 L1791.71 1514.29 L1791.71 1516.28 L1779.17 1548.85 L1774.28 1548.85 L1786.09 1518.22 L1769.49 1518.22 L1769.49 1514.29 Z" fill="#000000" fill-rule="nonzero" fill-opacity="1" /><path clip-path="url(#clip420)" d="M1800.88 1514.29 L1819.24 1514.29 L1819.24 1518.22 L1805.16 1518.22 L1805.16 1526.7 Q1806.18 1526.35 1807.2 1526.19 Q1808.22 1526 1809.24 1526 Q1815.02 1526 1818.4 1529.17 Q1821.78 1532.34 1821.78 1537.76 Q1821.78 1543.34 1818.31 1546.44 Q1814.84 1549.52 1808.52 1549.52 Q1806.34 1549.52 1804.07 1549.15 Q1801.83 1548.78 1799.42 1548.04 L1799.42 1543.34 Q1801.5 1544.47 1803.73 1545.03 Q1805.95 1545.58 1808.43 1545.58 Q1812.43 1545.58 1814.77 1543.48 Q1817.11 1541.37 1817.11 1537.76 Q1817.11 1534.15 1814.77 1532.04 Q1812.43 1529.94 1808.43 1529.94 Q1806.55 1529.94 1804.68 1530.35 Q1802.82 1530.77 1800.88 1531.65 L1800.88 1514.29 Z" fill="#000000" fill-rule="nonzero" fill-opacity="1" /><path clip-path="url(#clip420)" d="M2242.67 1544.91 L2250.31 1544.91 L2250.31 1518.55 L2242 1520.21 L2242 1515.95 L2250.27 1514.29 L2254.94 1514.29 L2254.94 1544.91 L2262.58 1544.91 L2262.58 1548.85 L2242.67 1548.85 L2242.67 1544.91 Z" fill="#000000" fill-rule="nonzero" fill-opacity="1" /><path clip-path="url(#clip420)" d="M2272.02 1542.97 L2276.91 1542.97 L2276.91 1548.85 L2272.02 1548.85 L2272.02 1542.97 Z" fill="#000000" fill-rule="nonzero" fill-opacity="1" /><path clip-path="url(#clip420)" d="M2297.09 1517.37 Q2293.48 1517.37 2291.65 1520.93 Q2289.85 1524.47 2289.85 1531.6 Q2289.85 1538.71 2291.65 1542.27 Q2293.48 1545.82 2297.09 1545.82 Q2300.73 1545.82 2302.53 1542.27 Q2304.36 1538.71 2304.36 1531.6 Q2304.36 1524.47 2302.53 1520.93 Q2300.73 1517.37 2297.09 1517.37 M2297.09 1513.66 Q2302.9 1513.66 2305.96 1518.27 Q2309.04 1522.85 2309.04 1531.6 Q2309.04 1540.33 2305.96 1544.94 Q2302.9 1549.52 2297.09 1549.52 Q2291.28 1549.52 2288.2 1544.94 Q2285.15 1540.33 2285.15 1531.6 Q2285.15 1522.85 2288.2 1518.27 Q2291.28 1513.66 2297.09 1513.66 Z" fill="#000000" fill-rule="nonzero" fill-opacity="1" /><path clip-path="url(#clip420)" d="M2327.26 1517.37 Q2323.64 1517.37 2321.82 1520.93 Q2320.01 1524.47 2320.01 1531.6 Q2320.01 1538.71 2321.82 1542.27 Q2323.64 1545.82 2327.26 1545.82 Q2330.89 1545.82 2332.7 1542.27 Q2334.52 1538.71 2334.52 1531.6 Q2334.52 1524.47 2332.7 1520.93 Q2330.89 1517.37 2327.26 1517.37 M2327.26 1513.66 Q2333.07 1513.66 2336.12 1518.27 Q2339.2 1522.85 2339.2 1531.6 Q2339.2 1540.33 2336.12 1544.94 Q2333.07 1549.52 2327.26 1549.52 Q2321.45 1549.52 2318.37 1544.94 Q2315.31 1540.33 2315.31 1531.6 Q2315.31 1522.85 2318.37 1518.27 Q2321.45 1513.66 2327.26 1513.66 Z" fill="#000000" fill-rule="nonzero" fill-opacity="1" /><polyline clip-path="url(#clip420)" style="stroke:#000000; stroke-linecap:round; stroke-linejoin:round; stroke-width:4; stroke-opacity:1; fill:none" points="156.598,1486.45 156.598,47.2441 "/>
<polyline clip-path="url(#clip420)" style="stroke:#000000; stroke-linecap:round; stroke-linejoin:round; stroke-width:4; stroke-opacity:1; fill:none" points="156.598,1328.48 175.496,1328.48 "/>
<polyline clip-path="url(#clip420)" style="stroke:#000000; stroke-linecap:round; stroke-linejoin:round; stroke-width:4; stroke-opacity:1; fill:none" points="156.598,1166.11 175.496,1166.11 "/>
<polyline clip-path="url(#clip420)" style="stroke:#000000; stroke-linecap:round; stroke-linejoin:round; stroke-width:4; stroke-opacity:1; fill:none" points="156.598,1003.74 175.496,1003.74 "/>
<polyline clip-path="url(#clip420)" style="stroke:#000000; stroke-linecap:round; stroke-linejoin:round; stroke-width:4; stroke-opacity:1; fill:none" points="156.598,841.368 175.496,841.368 "/>
<polyline clip-path="url(#clip420)" style="stroke:#000000; stroke-linecap:round; stroke-linejoin:round; stroke-width:4; stroke-opacity:1; fill:none" points="156.598,678.996 175.496,678.996 "/>
<polyline clip-path="url(#clip420)" style="stroke:#000000; stroke-linecap:round; stroke-linejoin:round; stroke-width:4; stroke-opacity:1; fill:none" points="156.598,516.624 175.496,516.624 "/>
<polyline clip-path="url(#clip420)" style="stroke:#000000; stroke-linecap:round; stroke-linejoin:round; stroke-width:4; stroke-opacity:1; fill:none" points="156.598,354.252 175.496,354.252 "/>
<polyline clip-path="url(#clip420)" style="stroke:#000000; stroke-linecap:round; stroke-linejoin:round; stroke-width:4; stroke-opacity:1; fill:none" points="156.598,191.88 175.496,191.88 "/>
<path clip-path="url(#clip420)" d="M62.9365 1314.28 Q59.3254 1314.28 57.4967 1317.85 Q55.6912 1321.39 55.6912 1328.52 Q55.6912 1335.63 57.4967 1339.19 Q59.3254 1342.73 62.9365 1342.73 Q66.5707 1342.73 68.3763 1339.19 Q70.205 1335.63 70.205 1328.52 Q70.205 1321.39 68.3763 1317.85 Q66.5707 1314.28 62.9365 1314.28 M62.9365 1310.58 Q68.7467 1310.58 71.8022 1315.19 Q74.8809 1319.77 74.8809 1328.52 Q74.8809 1337.25 71.8022 1341.85 Q68.7467 1346.44 62.9365 1346.44 Q57.1264 1346.44 54.0477 1341.85 Q50.9921 1337.25 50.9921 1328.52 Q50.9921 1319.77 54.0477 1315.19 Q57.1264 1310.58 62.9365 1310.58 Z" fill="#000000" fill-rule="nonzero" fill-opacity="1" /><path clip-path="url(#clip420)" d="M83.0984 1339.88 L87.9827 1339.88 L87.9827 1345.76 L83.0984 1345.76 L83.0984 1339.88 Z" fill="#000000" fill-rule="nonzero" fill-opacity="1" /><path clip-path="url(#clip420)" d="M111.015 1315.28 L99.2095 1333.73 L111.015 1333.73 L111.015 1315.28 M109.788 1311.2 L115.668 1311.2 L115.668 1333.73 L120.598 1333.73 L120.598 1337.62 L115.668 1337.62 L115.668 1345.76 L111.015 1345.76 L111.015 1337.62 L95.4132 1337.62 L95.4132 1333.1 L109.788 1311.2 Z" fill="#000000" fill-rule="nonzero" fill-opacity="1" /><path clip-path="url(#clip420)" d="M63.2606 1151.91 Q59.6495 1151.91 57.8208 1155.48 Q56.0152 1159.02 56.0152 1166.15 Q56.0152 1173.25 57.8208 1176.82 Q59.6495 1180.36 63.2606 1180.36 Q66.8948 1180.36 68.7004 1176.82 Q70.5291 1173.25 70.5291 1166.15 Q70.5291 1159.02 68.7004 1155.48 Q66.8948 1151.91 63.2606 1151.91 M63.2606 1148.21 Q69.0707 1148.21 72.1263 1152.81 Q75.205 1157.4 75.205 1166.15 Q75.205 1174.87 72.1263 1179.48 Q69.0707 1184.06 63.2606 1184.06 Q57.4504 1184.06 54.3717 1179.48 Q51.3162 1174.87 51.3162 1166.15 Q51.3162 1157.4 54.3717 1152.81 Q57.4504 1148.21 63.2606 1148.21 Z" fill="#000000" fill-rule="nonzero" fill-opacity="1" /><path clip-path="url(#clip420)" d="M83.4225 1177.51 L88.3067 1177.51 L88.3067 1183.39 L83.4225 1183.39 L83.4225 1177.51 Z" fill="#000000" fill-rule="nonzero" fill-opacity="1" /><path clip-path="url(#clip420)" d="M109.071 1164.25 Q105.922 1164.25 104.071 1166.4 Q102.242 1168.55 102.242 1172.3 Q102.242 1176.03 104.071 1178.21 Q105.922 1180.36 109.071 1180.36 Q112.219 1180.36 114.047 1178.21 Q115.899 1176.03 115.899 1172.3 Q115.899 1168.55 114.047 1166.4 Q112.219 1164.25 109.071 1164.25 M118.353 1149.6 L118.353 1153.86 Q116.594 1153.02 114.788 1152.58 Q113.006 1152.14 111.246 1152.14 Q106.617 1152.14 104.163 1155.27 Q101.733 1158.39 101.385 1164.71 Q102.751 1162.7 104.811 1161.63 Q106.871 1160.55 109.348 1160.55 Q114.557 1160.55 117.566 1163.72 Q120.598 1166.86 120.598 1172.3 Q120.598 1177.63 117.45 1180.85 Q114.302 1184.06 109.071 1184.06 Q103.075 1184.06 99.9039 1179.48 Q96.7326 1174.87 96.7326 1166.15 Q96.7326 1157.95 100.621 1153.09 Q104.51 1148.21 111.061 1148.21 Q112.82 1148.21 114.603 1148.55 Q116.408 1148.9 118.353 1149.6 Z" fill="#000000" fill-rule="nonzero" fill-opacity="1" /><path clip-path="url(#clip420)" d="M63.5152 989.539 Q59.9041 989.539 58.0754 993.104 Q56.2699 996.645 56.2699 1003.78 Q56.2699 1010.88 58.0754 1014.45 Q59.9041 1017.99 63.5152 1017.99 Q67.1494 1017.99 68.955 1014.45 Q70.7837 1010.88 70.7837 1003.78 Q70.7837 996.645 68.955 993.104 Q67.1494 989.539 63.5152 989.539 M63.5152 985.835 Q69.3254 985.835 72.3809 990.442 Q75.4596 995.025 75.4596 1003.78 Q75.4596 1012.5 72.3809 1017.11 Q69.3254 1021.69 63.5152 1021.69 Q57.7051 1021.69 54.6264 1017.11 Q51.5708 1012.5 51.5708 1003.78 Q51.5708 995.025 54.6264 990.442 Q57.7051 985.835 63.5152 985.835 Z" fill="#000000" fill-rule="nonzero" fill-opacity="1" /><path clip-path="url(#clip420)" d="M83.6771 1015.14 L88.5614 1015.14 L88.5614 1021.02 L83.6771 1021.02 L83.6771 1015.14 Z" fill="#000000" fill-rule="nonzero" fill-opacity="1" /><path clip-path="url(#clip420)" d="M108.746 1004.61 Q105.413 1004.61 103.492 1006.39 Q101.594 1008.17 101.594 1011.3 Q101.594 1014.42 103.492 1016.21 Q105.413 1017.99 108.746 1017.99 Q112.08 1017.99 114.001 1016.21 Q115.922 1014.4 115.922 1011.3 Q115.922 1008.17 114.001 1006.39 Q112.103 1004.61 108.746 1004.61 M104.071 1002.62 Q101.061 1001.88 99.3715 999.817 Q97.7048 997.757 97.7048 994.794 Q97.7048 990.65 100.645 988.243 Q103.608 985.835 108.746 985.835 Q113.908 985.835 116.848 988.243 Q119.788 990.65 119.788 994.794 Q119.788 997.757 118.098 999.817 Q116.432 1001.88 113.445 1002.62 Q116.825 1003.4 118.7 1005.7 Q120.598 1007.99 120.598 1011.3 Q120.598 1016.32 117.52 1019.01 Q114.464 1021.69 108.746 1021.69 Q103.029 1021.69 99.9502 1019.01 Q96.8947 1016.32 96.8947 1011.3 Q96.8947 1007.99 98.7928 1005.7 Q100.691 1003.4 104.071 1002.62 M102.358 995.233 Q102.358 997.919 104.024 999.423 Q105.714 1000.93 108.746 1000.93 Q111.756 1000.93 113.445 999.423 Q115.158 997.919 115.158 995.233 Q115.158 992.548 113.445 991.044 Q111.756 989.539 108.746 989.539 Q105.714 989.539 104.024 991.044 Q102.358 992.548 102.358 995.233 Z" fill="#000000" fill-rule="nonzero" fill-opacity="1" /><path clip-path="url(#clip420)" d="M54.2328 854.713 L61.8717 854.713 L61.8717 828.348 L53.5616 830.014 L53.5616 825.755 L61.8254 824.088 L66.5013 824.088 L66.5013 854.713 L74.1402 854.713 L74.1402 858.648 L54.2328 858.648 L54.2328 854.713 Z" fill="#000000" fill-rule="nonzero" fill-opacity="1" /><path clip-path="url(#clip420)" d="M83.5845 852.769 L88.4688 852.769 L88.4688 858.648 L83.5845 858.648 L83.5845 852.769 Z" fill="#000000" fill-rule="nonzero" fill-opacity="1" /><path clip-path="url(#clip420)" d="M108.654 827.167 Q105.043 827.167 103.214 830.732 Q101.409 834.273 101.409 841.403 Q101.409 848.509 103.214 852.074 Q105.043 855.616 108.654 855.616 Q112.288 855.616 114.094 852.074 Q115.922 848.509 115.922 841.403 Q115.922 834.273 114.094 830.732 Q112.288 827.167 108.654 827.167 M108.654 823.463 Q114.464 823.463 117.52 828.07 Q120.598 832.653 120.598 841.403 Q120.598 850.13 117.52 854.736 Q114.464 859.32 108.654 859.32 Q102.844 859.32 99.765 854.736 Q96.7095 850.13 96.7095 841.403 Q96.7095 832.653 99.765 828.07 Q102.844 823.463 108.654 823.463 Z" fill="#000000" fill-rule="nonzero" fill-opacity="1" /><path clip-path="url(#clip420)" d="M55.8301 692.341 L63.4689 692.341 L63.4689 665.976 L55.1588 667.642 L55.1588 663.383 L63.4226 661.716 L68.0985 661.716 L68.0985 692.341 L75.7374 692.341 L75.7374 696.276 L55.8301 696.276 L55.8301 692.341 Z" fill="#000000" fill-rule="nonzero" fill-opacity="1" /><path clip-path="url(#clip420)" d="M85.1818 690.397 L90.066 690.397 L90.066 696.276 L85.1818 696.276 L85.1818 690.397 Z" fill="#000000" fill-rule="nonzero" fill-opacity="1" /><path clip-path="url(#clip420)" d="M104.279 692.341 L120.598 692.341 L120.598 696.276 L98.6539 696.276 L98.6539 692.341 Q101.316 689.586 105.899 684.957 Q110.506 680.304 111.686 678.962 Q113.932 676.438 114.811 674.702 Q115.714 672.943 115.714 671.253 Q115.714 668.499 113.77 666.763 Q111.848 665.026 108.746 665.026 Q106.547 665.026 104.094 665.79 Q101.663 666.554 98.8854 668.105 L98.8854 663.383 Q101.709 662.249 104.163 661.67 Q106.617 661.091 108.654 661.091 Q114.024 661.091 117.219 663.776 Q120.413 666.462 120.413 670.952 Q120.413 673.082 119.603 675.003 Q118.816 676.901 116.709 679.494 Q116.131 680.165 113.029 683.383 Q109.927 686.577 104.279 692.341 Z" fill="#000000" fill-rule="nonzero" fill-opacity="1" /><path clip-path="url(#clip420)" d="M53.7467 529.969 L61.3856 529.969 L61.3856 503.603 L53.0754 505.27 L53.0754 501.011 L61.3393 499.344 L66.0152 499.344 L66.0152 529.969 L73.654 529.969 L73.654 533.904 L53.7467 533.904 L53.7467 529.969 Z" fill="#000000" fill-rule="nonzero" fill-opacity="1" /><path clip-path="url(#clip420)" d="M83.0984 528.025 L87.9827 528.025 L87.9827 533.904 L83.0984 533.904 L83.0984 528.025 Z" fill="#000000" fill-rule="nonzero" fill-opacity="1" /><path clip-path="url(#clip420)" d="M111.015 503.418 L99.2095 521.867 L111.015 521.867 L111.015 503.418 M109.788 499.344 L115.668 499.344 L115.668 521.867 L120.598 521.867 L120.598 525.756 L115.668 525.756 L115.668 533.904 L111.015 533.904 L111.015 525.756 L95.4132 525.756 L95.4132 521.242 L109.788 499.344 Z" fill="#000000" fill-rule="nonzero" fill-opacity="1" /><path clip-path="url(#clip420)" d="M54.0708 367.597 L61.7097 367.597 L61.7097 341.231 L53.3995 342.898 L53.3995 338.639 L61.6634 336.972 L66.3393 336.972 L66.3393 367.597 L73.9781 367.597 L73.9781 371.532 L54.0708 371.532 L54.0708 367.597 Z" fill="#000000" fill-rule="nonzero" fill-opacity="1" /><path clip-path="url(#clip420)" d="M83.4225 365.653 L88.3067 365.653 L88.3067 371.532 L83.4225 371.532 L83.4225 365.653 Z" fill="#000000" fill-rule="nonzero" fill-opacity="1" /><path clip-path="url(#clip420)" d="M109.071 352.389 Q105.922 352.389 104.071 354.542 Q102.242 356.694 102.242 360.444 Q102.242 364.171 104.071 366.347 Q105.922 368.5 109.071 368.5 Q112.219 368.5 114.047 366.347 Q115.899 364.171 115.899 360.444 Q115.899 356.694 114.047 354.542 Q112.219 352.389 109.071 352.389 M118.353 337.736 L118.353 341.995 Q116.594 341.162 114.788 340.722 Q113.006 340.282 111.246 340.282 Q106.617 340.282 104.163 343.407 Q101.733 346.532 101.385 352.852 Q102.751 350.838 104.811 349.773 Q106.871 348.685 109.348 348.685 Q114.557 348.685 117.566 351.856 Q120.598 355.005 120.598 360.444 Q120.598 365.768 117.45 368.986 Q114.302 372.204 109.071 372.204 Q103.075 372.204 99.9039 367.62 Q96.7326 363.014 96.7326 354.287 Q96.7326 346.093 100.621 341.231 Q104.51 336.347 111.061 336.347 Q112.82 336.347 114.603 336.694 Q116.408 337.042 118.353 337.736 Z" fill="#000000" fill-rule="nonzero" fill-opacity="1" /><path clip-path="url(#clip420)" d="M54.3254 205.225 L61.9643 205.225 L61.9643 178.859 L53.6541 180.526 L53.6541 176.267 L61.918 174.6 L66.5939 174.6 L66.5939 205.225 L74.2327 205.225 L74.2327 209.16 L54.3254 209.16 L54.3254 205.225 Z" fill="#000000" fill-rule="nonzero" fill-opacity="1" /><path clip-path="url(#clip420)" d="M83.6771 203.281 L88.5614 203.281 L88.5614 209.16 L83.6771 209.16 L83.6771 203.281 Z" fill="#000000" fill-rule="nonzero" fill-opacity="1" /><path clip-path="url(#clip420)" d="M108.746 192.748 Q105.413 192.748 103.492 194.531 Q101.594 196.313 101.594 199.438 Q101.594 202.563 103.492 204.345 Q105.413 206.128 108.746 206.128 Q112.08 206.128 114.001 204.345 Q115.922 202.54 115.922 199.438 Q115.922 196.313 114.001 194.531 Q112.103 192.748 108.746 192.748 M104.071 190.758 Q101.061 190.017 99.3715 187.957 Q97.7048 185.896 97.7048 182.934 Q97.7048 178.79 100.645 176.383 Q103.608 173.975 108.746 173.975 Q113.908 173.975 116.848 176.383 Q119.788 178.79 119.788 182.934 Q119.788 185.896 118.098 187.957 Q116.432 190.017 113.445 190.758 Q116.825 191.545 118.7 193.836 Q120.598 196.128 120.598 199.438 Q120.598 204.461 117.52 207.146 Q114.464 209.832 108.746 209.832 Q103.029 209.832 99.9502 207.146 Q96.8947 204.461 96.8947 199.438 Q96.8947 196.128 98.7928 193.836 Q100.691 191.545 104.071 190.758 M102.358 183.373 Q102.358 186.059 104.024 187.563 Q105.714 189.068 108.746 189.068 Q111.756 189.068 113.445 187.563 Q115.158 186.059 115.158 183.373 Q115.158 180.688 113.445 179.184 Q111.756 177.679 108.746 177.679 Q105.714 177.679 104.024 179.184 Q102.358 180.688 102.358 183.373 Z" fill="#000000" fill-rule="nonzero" fill-opacity="1" /><path clip-path="url(#clip422)" d="M218.754 1247.3 L425.938 1344.49 L633.123 1326.25 L840.308 1318.47 L1047.49 1358.77 L1254.68 1373.86 L1461.86 1440.32 L1669.05 1445.72 L1876.23 1411.78 L2083.42 1383.72 L2290.6 1379.81 L2290.6 515.27 L2083.42 87.9763 L1876.23 275.094 L1669.05 362.582 L1461.86 440.68 L1254.68 495.557 L1047.49 506.674 L840.308 630.742 L633.123 855.143 L425.938 1103.32 L218.754 1247.3  Z" fill="#009af9" fill-rule="evenodd" fill-opacity="0.2"/>
<polyline clip-path="url(#clip422)" style="stroke:#009af9; stroke-linecap:round; stroke-linejoin:round; stroke-width:12; stroke-opacity:1; fill:none" points="218.754,1247.3 425.938,1248.52 633.123,1227.58 840.308,1209.32 1047.49,1181.62 1254.68,1160.43 1461.86,1205.08 1669.05,1140.51 1876.23,1128.48 2083.42,1172.64 2290.6,1131.35 "/>
</svg>
