<?xml version="1.0" encoding="utf-8"?>
<svg xmlns="http://www.w3.org/2000/svg" xmlns:xlink="http://www.w3.org/1999/xlink" width="600" height="400" viewBox="0 0 2400 1600">
<defs>
  <clipPath id="clip390">
    <rect x="0" y="0" width="2400" height="1600"/>
  </clipPath>
</defs>
<path clip-path="url(#clip390)" d="M0 1600 L2400 1600 L2400 0 L0 0  Z" fill="#ffffff" fill-rule="evenodd" fill-opacity="1"/>
<defs>
  <clipPath id="clip391">
    <rect x="480" y="0" width="1681" height="1600"/>
  </clipPath>
</defs>
<path clip-path="url(#clip390)" d="M112.177 1486.45 L2352.76 1486.45 L2352.76 47.2441 L112.177 47.2441  Z" fill="#ffffff" fill-rule="evenodd" fill-opacity="1"/>
<defs>
  <clipPath id="clip392">
    <rect x="112" y="47" width="2242" height="1440"/>
  </clipPath>
</defs>
<polyline clip-path="url(#clip392)" style="stroke:#000000; stroke-linecap:round; stroke-linejoin:round; stroke-width:2; stroke-opacity:0.1; fill:none" points="175.59,1486.45 175.59,47.2441 "/>
<polyline clip-path="url(#clip392)" style="stroke:#000000; stroke-linecap:round; stroke-linejoin:round; stroke-width:2; stroke-opacity:0.1; fill:none" points="704.028,1486.45 704.028,47.2441 "/>
<polyline clip-path="url(#clip392)" style="stroke:#000000; stroke-linecap:round; stroke-linejoin:round; stroke-width:2; stroke-opacity:0.1; fill:none" points="1232.47,1486.45 1232.47,47.2441 "/>
<polyline clip-path="url(#clip392)" style="stroke:#000000; stroke-linecap:round; stroke-linejoin:round; stroke-width:2; stroke-opacity:0.1; fill:none" points="1760.9,1486.45 1760.9,47.2441 "/>
<polyline clip-path="url(#clip392)" style="stroke:#000000; stroke-linecap:round; stroke-linejoin:round; stroke-width:2; stroke-opacity:0.1; fill:none" points="2289.34,1486.45 2289.34,47.2441 "/>
<polyline clip-path="url(#clip392)" style="stroke:#000000; stroke-linecap:round; stroke-linejoin:round; stroke-width:2; stroke-opacity:0.1; fill:none" points="112.177,1450.65 2352.76,1450.65 "/>
<polyline clip-path="url(#clip392)" style="stroke:#000000; stroke-linecap:round; stroke-linejoin:round; stroke-width:2; stroke-opacity:0.1; fill:none" points="112.177,1165.9 2352.76,1165.9 "/>
<polyline clip-path="url(#clip392)" style="stroke:#000000; stroke-linecap:round; stroke-linejoin:round; stroke-width:2; stroke-opacity:0.1; fill:none" points="112.177,881.161 2352.76,881.161 "/>
<polyline clip-path="url(#clip392)" style="stroke:#000000; stroke-linecap:round; stroke-linejoin:round; stroke-width:2; stroke-opacity:0.1; fill:none" points="112.177,596.419 2352.76,596.419 "/>
<polyline clip-path="url(#clip392)" style="stroke:#000000; stroke-linecap:round; stroke-linejoin:round; stroke-width:2; stroke-opacity:0.1; fill:none" points="112.177,311.677 2352.76,311.677 "/>
<polyline clip-path="url(#clip390)" style="stroke:#000000; stroke-linecap:round; stroke-linejoin:round; stroke-width:4; stroke-opacity:1; fill:none" points="112.177,1486.45 2352.76,1486.45 "/>
<polyline clip-path="url(#clip390)" style="stroke:#000000; stroke-linecap:round; stroke-linejoin:round; stroke-width:4; stroke-opacity:1; fill:none" points="175.59,1486.45 175.59,1467.55 "/>
<polyline clip-path="url(#clip390)" style="stroke:#000000; stroke-linecap:round; stroke-linejoin:round; stroke-width:4; stroke-opacity:1; fill:none" points="704.028,1486.45 704.028,1467.55 "/>
<polyline clip-path="url(#clip390)" style="stroke:#000000; stroke-linecap:round; stroke-linejoin:round; stroke-width:4; stroke-opacity:1; fill:none" points="1232.47,1486.45 1232.47,1467.55 "/>
<polyline clip-path="url(#clip390)" style="stroke:#000000; stroke-linecap:round; stroke-linejoin:round; stroke-width:4; stroke-opacity:1; fill:none" points="1760.9,1486.45 1760.9,1467.55 "/>
<polyline clip-path="url(#clip390)" style="stroke:#000000; stroke-linecap:round; stroke-linejoin:round; stroke-width:4; stroke-opacity:1; fill:none" points="2289.34,1486.45 2289.34,1467.55 "/>
<path clip-path="url(#clip390)" d="M152.974 1517.37 Q149.363 1517.37 147.534 1520.93 Q145.729 1524.47 145.729 1531.6 Q145.729 1538.71 147.534 1542.27 Q149.363 1545.82 152.974 1545.82 Q156.608 1545.82 158.414 1542.27 Q160.243 1538.71 160.243 1531.6 Q160.243 1524.47 158.414 1520.93 Q156.608 1517.37 152.974 1517.37 M152.974 1513.66 Q158.784 1513.66 161.84 1518.27 Q164.919 1522.85 164.919 1531.6 Q164.919 1540.33 161.84 1544.94 Q158.784 1549.52 152.974 1549.52 Q147.164 1549.52 144.085 1544.94 Q141.03 1540.33 141.03 1531.6 Q141.03 1522.85 144.085 1518.27 Q147.164 1513.66 152.974 1513.66 Z" fill="#000000" fill-rule="nonzero" fill-opacity="1" /><path clip-path="url(#clip390)" d="M173.136 1542.97 L178.02 1542.97 L178.02 1548.85 L173.136 1548.85 L173.136 1542.97 Z" fill="#000000" fill-rule="nonzero" fill-opacity="1" /><path clip-path="url(#clip390)" d="M198.205 1517.37 Q194.594 1517.37 192.766 1520.93 Q190.96 1524.47 190.96 1531.6 Q190.96 1538.71 192.766 1542.27 Q194.594 1545.82 198.205 1545.82 Q201.84 1545.82 203.645 1542.27 Q205.474 1538.71 205.474 1531.6 Q205.474 1524.47 203.645 1520.93 Q201.84 1517.37 198.205 1517.37 M198.205 1513.66 Q204.016 1513.66 207.071 1518.27 Q210.15 1522.85 210.15 1531.6 Q210.15 1540.33 207.071 1544.94 Q204.016 1549.52 198.205 1549.52 Q192.395 1549.52 189.317 1544.94 Q186.261 1540.33 186.261 1531.6 Q186.261 1522.85 189.317 1518.27 Q192.395 1513.66 198.205 1513.66 Z" fill="#000000" fill-rule="nonzero" fill-opacity="1" /><path clip-path="url(#clip390)" d="M675.764 1544.91 L692.084 1544.91 L692.084 1548.85 L670.139 1548.85 L670.139 1544.91 Q672.801 1542.16 677.385 1537.53 Q681.991 1532.88 683.172 1531.53 Q685.417 1529.01 686.297 1527.27 Q687.2 1525.51 687.2 1523.82 Q687.2 1521.07 685.255 1519.33 Q683.334 1517.6 680.232 1517.6 Q678.033 1517.6 675.579 1518.36 Q673.149 1519.13 670.371 1520.68 L670.371 1515.95 Q673.195 1514.82 675.649 1514.24 Q678.102 1513.66 680.139 1513.66 Q685.51 1513.66 688.704 1516.35 Q691.899 1519.03 691.899 1523.52 Q691.899 1525.65 691.088 1527.57 Q690.301 1529.47 688.195 1532.07 Q687.616 1532.74 684.514 1535.95 Q681.413 1539.15 675.764 1544.91 Z" fill="#000000" fill-rule="nonzero" fill-opacity="1" /><path clip-path="url(#clip390)" d="M701.899 1542.97 L706.783 1542.97 L706.783 1548.85 L701.899 1548.85 L701.899 1542.97 Z" fill="#000000" fill-rule="nonzero" fill-opacity="1" /><path clip-path="url(#clip390)" d="M717.014 1514.29 L735.371 1514.29 L735.371 1518.22 L721.297 1518.22 L721.297 1526.7 Q722.315 1526.35 723.334 1526.19 Q724.352 1526 725.371 1526 Q731.158 1526 734.537 1529.17 Q737.917 1532.34 737.917 1537.76 Q737.917 1543.34 734.445 1546.44 Q730.972 1549.52 724.653 1549.52 Q722.477 1549.52 720.209 1549.15 Q717.963 1548.78 715.556 1548.04 L715.556 1543.34 Q717.639 1544.47 719.861 1545.03 Q722.084 1545.58 724.56 1545.58 Q728.565 1545.58 730.903 1543.48 Q733.241 1541.37 733.241 1537.76 Q733.241 1534.15 730.903 1532.04 Q728.565 1529.94 724.56 1529.94 Q722.685 1529.94 720.81 1530.35 Q718.959 1530.77 717.014 1531.65 L717.014 1514.29 Z" fill="#000000" fill-rule="nonzero" fill-opacity="1" /><path clip-path="url(#clip390)" d="M1199.63 1514.29 L1217.99 1514.29 L1217.99 1518.22 L1203.91 1518.22 L1203.91 1526.7 Q1204.93 1526.35 1205.95 1526.19 Q1206.97 1526 1207.99 1526 Q1213.77 1526 1217.15 1529.17 Q1220.53 1532.34 1220.53 1537.76 Q1220.53 1543.34 1217.06 1546.44 Q1213.59 1549.52 1207.27 1549.52 Q1205.09 1549.52 1202.83 1549.15 Q1200.58 1548.78 1198.17 1548.04 L1198.17 1543.34 Q1200.26 1544.47 1202.48 1545.03 Q1204.7 1545.58 1207.18 1545.58 Q1211.18 1545.58 1213.52 1543.48 Q1215.86 1541.37 1215.86 1537.76 Q1215.86 1534.15 1213.52 1532.04 Q1211.18 1529.94 1207.18 1529.94 Q1205.3 1529.94 1203.43 1530.35 Q1201.58 1530.77 1199.63 1531.65 L1199.63 1514.29 Z" fill="#000000" fill-rule="nonzero" fill-opacity="1" /><path clip-path="url(#clip390)" d="M1229.75 1542.97 L1234.63 1542.97 L1234.63 1548.85 L1229.75 1548.85 L1229.75 1542.97 Z" fill="#000000" fill-rule="nonzero" fill-opacity="1" /><path clip-path="url(#clip390)" d="M1254.82 1517.37 Q1251.2 1517.37 1249.38 1520.93 Q1247.57 1524.47 1247.57 1531.6 Q1247.57 1538.71 1249.38 1542.27 Q1251.2 1545.82 1254.82 1545.82 Q1258.45 1545.82 1260.26 1542.27 Q1262.08 1538.71 1262.08 1531.6 Q1262.08 1524.47 1260.26 1520.93 Q1258.45 1517.37 1254.82 1517.37 M1254.82 1513.66 Q1260.63 1513.66 1263.68 1518.27 Q1266.76 1522.85 1266.76 1531.6 Q1266.76 1540.33 1263.68 1544.94 Q1260.63 1549.52 1254.82 1549.52 Q1249.01 1549.52 1245.93 1544.94 Q1242.87 1540.33 1242.87 1531.6 Q1242.87 1522.85 1245.93 1518.27 Q1249.01 1513.66 1254.82 1513.66 Z" fill="#000000" fill-rule="nonzero" fill-opacity="1" /><path clip-path="url(#clip390)" d="M1727.22 1514.29 L1749.45 1514.29 L1749.45 1516.28 L1736.9 1548.85 L1732.02 1548.85 L1743.82 1518.22 L1727.22 1518.22 L1727.22 1514.29 Z" fill="#000000" fill-rule="nonzero" fill-opacity="1" /><path clip-path="url(#clip390)" d="M1758.57 1542.97 L1763.45 1542.97 L1763.45 1548.85 L1758.57 1548.85 L1758.57 1542.97 Z" fill="#000000" fill-rule="nonzero" fill-opacity="1" /><path clip-path="url(#clip390)" d="M1773.68 1514.29 L1792.04 1514.29 L1792.04 1518.22 L1777.97 1518.22 L1777.97 1526.7 Q1778.98 1526.35 1780 1526.19 Q1781.02 1526 1782.04 1526 Q1787.83 1526 1791.21 1529.17 Q1794.59 1532.34 1794.59 1537.76 Q1794.59 1543.34 1791.11 1546.44 Q1787.64 1549.52 1781.32 1549.52 Q1779.15 1549.52 1776.88 1549.15 Q1774.63 1548.78 1772.22 1548.04 L1772.22 1543.34 Q1774.31 1544.47 1776.53 1545.03 Q1778.75 1545.58 1781.23 1545.58 Q1785.23 1545.58 1787.57 1543.48 Q1789.91 1541.37 1789.91 1537.76 Q1789.91 1534.15 1787.57 1532.04 Q1785.23 1529.94 1781.23 1529.94 Q1779.35 1529.94 1777.48 1530.35 Q1775.63 1530.77 1773.68 1531.65 L1773.68 1514.29 Z" fill="#000000" fill-rule="nonzero" fill-opacity="1" /><path clip-path="url(#clip390)" d="M2241.42 1544.91 L2249.05 1544.91 L2249.05 1518.55 L2240.74 1520.21 L2240.74 1515.95 L2249.01 1514.29 L2253.68 1514.29 L2253.68 1544.91 L2261.32 1544.91 L2261.32 1548.85 L2241.42 1548.85 L2241.42 1544.91 Z" fill="#000000" fill-rule="nonzero" fill-opacity="1" /><path clip-path="url(#clip390)" d="M2280.77 1517.37 Q2277.16 1517.37 2275.33 1520.93 Q2273.52 1524.47 2273.52 1531.6 Q2273.52 1538.71 2275.33 1542.27 Q2277.16 1545.82 2280.77 1545.82 Q2284.4 1545.82 2286.21 1542.27 Q2288.04 1538.71 2288.04 1531.6 Q2288.04 1524.47 2286.21 1520.93 Q2284.4 1517.37 2280.77 1517.37 M2280.77 1513.66 Q2286.58 1513.66 2289.63 1518.27 Q2292.71 1522.85 2292.71 1531.6 Q2292.71 1540.33 2289.63 1544.94 Q2286.58 1549.52 2280.77 1549.52 Q2274.96 1549.52 2271.88 1544.94 Q2268.82 1540.33 2268.82 1531.6 Q2268.82 1522.85 2271.88 1518.27 Q2274.96 1513.66 2280.77 1513.66 Z" fill="#000000" fill-rule="nonzero" fill-opacity="1" /><path clip-path="url(#clip390)" d="M2300.93 1542.97 L2305.81 1542.97 L2305.81 1548.85 L2300.93 1548.85 L2300.93 1542.97 Z" fill="#000000" fill-rule="nonzero" fill-opacity="1" /><path clip-path="url(#clip390)" d="M2326 1517.37 Q2322.39 1517.37 2320.56 1520.93 Q2318.75 1524.47 2318.75 1531.6 Q2318.75 1538.71 2320.56 1542.27 Q2322.39 1545.82 2326 1545.82 Q2329.63 1545.82 2331.44 1542.27 Q2333.27 1538.71 2333.27 1531.6 Q2333.27 1524.47 2331.44 1520.93 Q2329.63 1517.37 2326 1517.37 M2326 1513.66 Q2331.81 1513.66 2334.86 1518.27 Q2337.94 1522.85 2337.94 1531.6 Q2337.94 1540.33 2334.86 1544.94 Q2331.81 1549.52 2326 1549.52 Q2320.19 1549.52 2317.11 1544.94 Q2314.05 1540.33 2314.05 1531.6 Q2314.05 1522.85 2317.11 1518.27 Q2320.19 1513.66 2326 1513.66 Z" fill="#000000" fill-rule="nonzero" fill-opacity="1" /><polyline clip-path="url(#clip390)" style="stroke:#000000; stroke-linecap:round; stroke-linejoin:round; stroke-width:4; stroke-opacity:1; fill:none" points="112.177,1486.45 112.177,47.2441 "/>
<polyline clip-path="url(#clip390)" style="stroke:#000000; stroke-linecap:round; stroke-linejoin:round; stroke-width:4; stroke-opacity:1; fill:none" points="112.177,1450.65 131.075,1450.65 "/>
<polyline clip-path="url(#clip390)" style="stroke:#000000; stroke-linecap:round; stroke-linejoin:round; stroke-width:4; stroke-opacity:1; fill:none" points="112.177,1165.9 131.075,1165.9 "/>
<polyline clip-path="url(#clip390)" style="stroke:#000000; stroke-linecap:round; stroke-linejoin:round; stroke-width:4; stroke-opacity:1; fill:none" points="112.177,881.161 131.075,881.161 "/>
<polyline clip-path="url(#clip390)" style="stroke:#000000; stroke-linecap:round; stroke-linejoin:round; stroke-width:4; stroke-opacity:1; fill:none" points="112.177,596.419 131.075,596.419 "/>
<polyline clip-path="url(#clip390)" style="stroke:#000000; stroke-linecap:round; stroke-linejoin:round; stroke-width:4; stroke-opacity:1; fill:none" points="112.177,311.677 131.075,311.677 "/>
<path clip-path="url(#clip390)" d="M64.2328 1436.44 Q60.6217 1436.44 58.793 1440.01 Q56.9875 1443.55 56.9875 1450.68 Q56.9875 1457.79 58.793 1461.35 Q60.6217 1464.89 64.2328 1464.89 Q67.867 1464.89 69.6726 1461.35 Q71.5013 1457.79 71.5013 1450.68 Q71.5013 1443.55 69.6726 1440.01 Q67.867 1436.44 64.2328 1436.44 M64.2328 1432.74 Q70.0429 1432.74 73.0985 1437.35 Q76.1772 1441.93 76.1772 1450.68 Q76.1772 1459.41 73.0985 1464.01 Q70.0429 1468.6 64.2328 1468.6 Q58.4226 1468.6 55.344 1464.01 Q52.2884 1459.41 52.2884 1450.68 Q52.2884 1441.93 55.344 1437.35 Q58.4226 1432.74 64.2328 1432.74 Z" fill="#000000" fill-rule="nonzero" fill-opacity="1" /><path clip-path="url(#clip390)" d="M59.8578 1179.25 L76.1772 1179.25 L76.1772 1183.18 L54.2328 1183.18 L54.2328 1179.25 Q56.8949 1176.49 61.4782 1171.86 Q66.0846 1167.21 67.2652 1165.87 Q69.5105 1163.35 70.3902 1161.61 Q71.2929 1159.85 71.2929 1158.16 Q71.2929 1155.41 69.3485 1153.67 Q67.4272 1151.93 64.3254 1151.93 Q62.1263 1151.93 59.6726 1152.7 Q57.2421 1153.46 54.4643 1155.01 L54.4643 1150.29 Q57.2884 1149.16 59.7421 1148.58 Q62.1958 1148 64.2328 1148 Q69.6031 1148 72.7976 1150.68 Q75.992 1153.37 75.992 1157.86 Q75.992 1159.99 75.1818 1161.91 Q74.3948 1163.81 72.2883 1166.4 Q71.7096 1167.07 68.6078 1170.29 Q65.5059 1173.48 59.8578 1179.25 Z" fill="#000000" fill-rule="nonzero" fill-opacity="1" /><path clip-path="url(#clip390)" d="M66.5939 867.955 L54.7884 886.404 L66.5939 886.404 L66.5939 867.955 M65.367 863.881 L71.2466 863.881 L71.2466 886.404 L76.1772 886.404 L76.1772 890.293 L71.2466 890.293 L71.2466 898.441 L66.5939 898.441 L66.5939 890.293 L50.9921 890.293 L50.9921 885.779 L65.367 863.881 Z" fill="#000000" fill-rule="nonzero" fill-opacity="1" /><path clip-path="url(#clip390)" d="M64.6495 594.556 Q61.5013 594.556 59.6495 596.708 Q57.8208 598.861 57.8208 602.611 Q57.8208 606.338 59.6495 608.514 Q61.5013 610.667 64.6495 610.667 Q67.7976 610.667 69.6263 608.514 Q71.4781 606.338 71.4781 602.611 Q71.4781 598.861 69.6263 596.708 Q67.7976 594.556 64.6495 594.556 M73.9318 579.903 L73.9318 584.162 Q72.1726 583.329 70.367 582.889 Q68.5846 582.449 66.8254 582.449 Q62.1958 582.449 59.7421 585.574 Q57.3115 588.699 56.9643 595.019 Q58.33 593.005 60.3902 591.94 Q62.4504 590.852 64.9272 590.852 Q70.1355 590.852 73.1448 594.023 Q76.1772 597.171 76.1772 602.611 Q76.1772 607.935 73.029 611.153 Q69.8809 614.37 64.6495 614.37 Q58.6541 614.37 55.4828 609.787 Q52.3116 605.181 52.3116 596.454 Q52.3116 588.259 56.2004 583.398 Q60.0893 578.514 66.6402 578.514 Q68.3994 578.514 70.1818 578.861 Q71.9874 579.208 73.9318 579.903 Z" fill="#000000" fill-rule="nonzero" fill-opacity="1" /><path clip-path="url(#clip390)" d="M64.3254 312.545 Q60.9921 312.545 59.0708 314.327 Q57.1726 316.109 57.1726 319.234 Q57.1726 322.359 59.0708 324.142 Q60.9921 325.924 64.3254 325.924 Q67.6587 325.924 69.58 324.142 Q71.5013 322.336 71.5013 319.234 Q71.5013 316.109 69.58 314.327 Q67.6819 312.545 64.3254 312.545 M59.6495 310.554 Q56.6402 309.813 54.9504 307.753 Q53.2838 305.693 53.2838 302.73 Q53.2838 298.586 56.2236 296.179 Q59.1865 293.772 64.3254 293.772 Q69.4874 293.772 72.4272 296.179 Q75.367 298.586 75.367 302.73 Q75.367 305.693 73.6772 307.753 Q72.0105 309.813 69.0244 310.554 Q72.404 311.341 74.279 313.633 Q76.1772 315.924 76.1772 319.234 Q76.1772 324.258 73.0985 326.943 Q70.0429 329.628 64.3254 329.628 Q58.6078 329.628 55.5291 326.943 Q52.4736 324.258 52.4736 319.234 Q52.4736 315.924 54.3717 313.633 Q56.2699 311.341 59.6495 310.554 M57.9365 303.17 Q57.9365 305.855 59.6032 307.36 Q61.293 308.864 64.3254 308.864 Q67.3346 308.864 69.0244 307.36 Q70.7374 305.855 70.7374 303.17 Q70.7374 300.485 69.0244 298.98 Q67.3346 297.475 64.3254 297.475 Q61.293 297.475 59.6032 298.98 Q57.9365 300.485 57.9365 303.17 Z" fill="#000000" fill-rule="nonzero" fill-opacity="1" /><path clip-path="url(#clip392)" d="M175.59 1308.27 L196.727 1309.2 L217.865 1309.59 L239.002 1305.64 L260.14 1289.69 L281.277 1277.98 L302.415 1269.24 L323.553 1253.25 L344.69 1218.59 L365.828 1182.51 L386.965 1163.62 L408.103 1144.74 L429.24 1118.85 L450.378 1103.34 L471.515 1093.08 L492.653 1044 L513.79 1000.51 L534.928 948.734 L556.065 933.534 L577.203 901.66 L598.34 871.016 L619.478 777.707 L640.616 875.514 L661.753 1018.66 L682.891 1126.43 L704.028 1206.39 L725.166 1295.87 L746.303 1349.99 L767.441 1377.12 L788.578 1391.73 L809.716 1403.17 L830.853 1404.07 L851.991 1406.03 L873.128 1402.81 L894.266 1400.68 L915.404 1402.89 L936.541 1407.64 L957.679 1407.74 L978.816 1404.03 L999.954 1399.84 L1021.09 1398.55 L1042.23 1392.29 L1063.37 1381.58 L1084.5 1372.63 L1105.64 1363.24 L1126.78 1356.06 L1147.92 1344.95 L1169.05 1334.3 L1190.19 1311.81 L1211.33 1287.24 L1232.47 1263.08 L1253.6 1235.09 L1274.74 1223.19 L1295.88 1205.36 L1317.02 1171.32 L1338.15 1199.51 L1359.29 1232.07 L1380.43 1261.31 L1401.57 1277.04 L1422.7 1279.53 L1443.84 1298.35 L1464.98 1313.6 L1486.12 1323.57 L1507.25 1327.5 L1528.39 1335.61 L1549.53 1340.91 L1570.67 1337.34 L1591.8 1334.96 L1612.94 1334.82 L1634.08 1326.9 L1655.22 1331.02 L1676.35 1347.38 L1697.49 1351.34 L1718.63 1354.11 L1739.77 1357.28 L1760.9 1343.82 L1782.04 1330.42 L1803.18 1318.04 L1824.32 1377.99 L1845.46 1396.58 L1866.59 1403.91 L1887.73 1400.41 L1908.87 1398.02 L1930.01 1391.66 L1951.14 1384.79 L1972.28 1370.42 L1993.42 1357.25 L2014.56 1348.51 L2035.69 1335.28 L2056.83 1316.71 L2077.97 1320.68 L2099.11 1353.79 L2120.24 1370.52 L2141.38 1380.94 L2162.52 1384.35 L2183.66 1388.21 L2204.79 1386.47 L2225.93 1382.52 L2247.07 1374.79 L2268.21 1377.57 L2289.34 1375.9 L2289.34 745.189 L2268.21 853.472 L2247.07 909.83 L2225.93 929.916 L2204.79 881.181 L2183.66 820.823 L2162.52 750.821 L2141.38 590.047 L2120.24 393.148 L2099.11 281.744 L2077.97 335.648 L2056.83 379.331 L2035.69 385.793 L2014.56 460.265 L1993.42 497.243 L1972.28 427.782 L1951.14 425.809 L1930.01 447.921 L1908.87 526.463 L1887.73 627.286 L1866.59 695.49 L1845.46 701.454 L1824.32 827.513 L1803.18 950.725 L1782.04 906.868 L1760.9 500.022 L1739.77 177.75 L1718.63 87.9763 L1697.49 267.126 L1676.35 433.328 L1655.22 589.762 L1634.08 663.142 L1612.94 748.316 L1591.8 709.885 L1570.67 594.704 L1549.53 361.198 L1528.39 268.519 L1507.25 340.106 L1486.12 371.962 L1464.98 367.89 L1443.84 353.877 L1422.7 364.732 L1401.57 357.775 L1380.43 309.777 L1359.29 276.269 L1338.15 261.022 L1317.02 325.531 L1295.88 388.124 L1274.74 460.11 L1253.6 487.806 L1232.47 529.188 L1211.33 565.336 L1190.19 622.828 L1169.05 659.356 L1147.92 691.969 L1126.78 806.353 L1105.64 885.493 L1084.5 955.405 L1063.37 1021.46 L1042.23 1075.4 L1021.09 1133.04 L999.954 1169.06 L978.816 1171.17 L957.679 1194.57 L936.541 1220.39 L915.404 1217.92 L894.266 1225.3 L873.128 1241.51 L851.991 1161.15 L830.853 993.812 L809.716 742.383 L788.578 523.164 L767.441 392.339 L746.303 394.519 L725.166 419.028 L704.028 314.06 L682.891 394.449 L661.753 446.876 L640.616 341.282 L619.478 269.124 L598.34 273.603 L577.203 292.168 L556.065 342.274 L534.928 426.739 L513.79 543.108 L492.653 644.719 L471.515 752.479 L450.378 815.114 L429.24 881.704 L408.103 953.368 L386.965 1014.81 L365.828 1070.07 L344.69 1125.12 L323.553 1169.75 L302.415 1193.6 L281.277 1220.32 L260.14 1230.2 L239.002 1260.27 L217.865 1278.78 L196.727 1293.34 L175.59 1308.27  Z" fill="#009af9" fill-rule="evenodd" fill-opacity="0.5"/>
<polyline clip-path="url(#clip392)" style="stroke:#009af9; stroke-linecap:round; stroke-linejoin:round; stroke-width:12; stroke-opacity:1; fill:none" points="175.59,1308.27 196.727,1298.49 217.865,1291.42 239.002,1275.49 260.14,1260.4 281.277,1244.46 302.415,1212 323.553,1191.21 344.69,1161.15 365.828,1127.99 386.965,1089.38 408.103,1044.39 429.24,1008.01 450.378,908.818 471.515,835.476 492.653,771.525 513.79,675.466 534.928,551.842 556.065,486.464 577.203,493.233 598.34,514.494 619.478,613.454 640.616,633.929 661.753,733.384 682.891,904.53 704.028,1069.71 725.166,1167.67 746.303,1234.49 767.441,1268.92 788.578,1287.57 809.716,1305.47 830.853,1306.48 851.991,1307.62 873.128,1296.57 894.266,1300.75 915.404,1292.96 936.541,1289.34 957.679,1283.03 978.816,1274.04 999.954,1253.66 1021.09,1229.72 1042.23,1205.03 1063.37,1171.64 1084.5,1131.4 1105.64,1073.35 1126.78,1019.4 1147.92,954.465 1169.05,878.004 1190.19,807.412 1211.33,751.807 1232.47,768.982 1253.6,733.679 1274.74,668.995 1295.88,577.393 1317.02,613.176 1338.15,651.349 1359.29,773.416 1380.43,894.367 1401.57,1038.9 1422.7,1132.67 1443.84,1202.11 1464.98,1215.97 1486.12,1237.72 1507.25,1255.62 1528.39,1261.02 1549.53,1274.08 1570.67,1285.04 1591.8,1288.74 1612.94,1287.24 1634.08,1276.38 1655.22,1273.9 1676.35,1256.31 1697.49,1242.04 1718.63,1228.12 1739.77,1198.05 1760.9,1170.95 1782.04,1144.25 1803.18,1168.86 1824.32,1135.36 1845.46,1082.01 1866.59,1061.96 1887.73,987.924 1908.87,897.167 1930.01,802.027 1951.14,760.99 1972.28,659.845 1993.42,629.826 2014.56,614.015 2035.69,620.594 2056.83,640.308 2077.97,809.699 2099.11,998.075 2120.24,1051.97 2141.38,1173.82 2162.52,1250.81 2183.66,1278.02 2204.79,1289.71 2225.93,1298.07 2247.07,1325.56 2268.21,1338.48 2289.34,1337.5 "/>
<path clip-path="url(#clip392)" d="M175.59 1308.27 L196.727 1342.22 L217.865 1365.63 L239.002 1384.77 L260.14 1397.05 L281.277 1412.72 L302.415 1419.9 L323.553 1423.68 L344.69 1426.46 L365.828 1428.89 L386.965 1430.62 L408.103 1432.58 L429.24 1433.59 L450.378 1433.6 L471.515 1433.88 L492.653 1433.39 L513.79 1432.44 L534.928 1430.32 L556.065 1427.99 L577.203 1424.79 L598.34 1420.72 L619.478 1414.63 L640.616 1403.34 L661.753 1387.34 L682.891 1357.47 L704.028 1310.08 L725.166 1237.16 L746.303 1221.12 L767.441 1190.34 L788.578 1173.13 L809.716 1228.34 L830.853 1278.05 L851.991 1306.53 L873.128 1335.56 L894.266 1358.84 L915.404 1374.41 L936.541 1385.49 L957.679 1397.7 L978.816 1405.66 L999.954 1415.34 L1021.09 1422.67 L1042.23 1429.98 L1063.37 1432.86 L1084.5 1436.42 L1105.64 1437.16 L1126.78 1437.83 L1147.92 1440.1 L1169.05 1441.44 L1190.19 1442.37 L1211.33 1442.9 L1232.47 1443.54 L1253.6 1443.44 L1274.74 1443.66 L1295.88 1444.3 L1317.02 1445.33 L1338.15 1445.72 L1359.29 1445.69 L1380.43 1445.36 L1401.57 1444.72 L1422.7 1443.59 L1443.84 1440.7 L1464.98 1436.29 L1486.12 1428.64 L1507.25 1406.15 L1528.39 1382.49 L1549.53 1392.61 L1570.67 1403.76 L1591.8 1411.74 L1612.94 1417.88 L1634.08 1420.83 L1655.22 1422.67 L1676.35 1422.58 L1697.49 1411.13 L1718.63 1410.6 L1739.77 1415.52 L1760.9 1418.62 L1782.04 1420.24 L1803.18 1423.36 L1824.32 1425.44 L1845.46 1427.82 L1866.59 1429.12 L1887.73 1429.99 L1908.87 1429.91 L1930.01 1427.34 L1951.14 1423.59 L1972.28 1424.95 L1993.42 1424.96 L2014.56 1423.73 L2035.69 1421.02 L2056.83 1417.03 L2077.97 1423.28 L2099.11 1427.02 L2120.24 1432.51 L2141.38 1434.84 L2162.52 1436.8 L2183.66 1436.67 L2204.79 1435.71 L2225.93 1434.99 L2247.07 1430.6 L2268.21 1421.06 L2289.34 1413.13 L2289.34 1140.56 L2268.21 1059.68 L2247.07 967.288 L2225.93 889.727 L2204.79 817.393 L2183.66 655.858 L2162.52 666.477 L2141.38 624.649 L2120.24 649.093 L2099.11 695.46 L2077.97 756.687 L2056.83 769.744 L2035.69 761.163 L2014.56 829.521 L1993.42 951.516 L1972.28 1092.93 L1951.14 1181.08 L1930.01 1182.66 L1908.87 1140.29 L1887.73 1019.87 L1866.59 867.859 L1845.46 758.746 L1824.32 650.079 L1803.18 447.865 L1782.04 541.927 L1760.9 807.741 L1739.77 1095.71 L1718.63 1172.75 L1697.49 1088.46 L1676.35 1067.07 L1655.22 945.545 L1634.08 820.811 L1612.94 682.862 L1591.8 638.406 L1570.67 740.437 L1549.53 889.775 L1528.39 814.038 L1507.25 802.689 L1486.12 797.344 L1464.98 849.863 L1443.84 827.817 L1422.7 778.605 L1401.57 727.666 L1380.43 749.029 L1359.29 831.98 L1338.15 873.018 L1317.02 897.773 L1295.88 941.631 L1274.74 1024.1 L1253.6 1109.38 L1232.47 1182.95 L1211.33 1246.37 L1190.19 1295.79 L1169.05 1325.19 L1147.92 1347.23 L1126.78 1361.73 L1105.64 1369.21 L1084.5 1366.31 L1063.37 1356.97 L1042.23 1336.69 L1021.09 1303.58 L999.954 1253.91 L978.816 1193.81 L957.679 1124.24 L936.541 1012.81 L915.404 933.121 L894.266 799.286 L873.128 663.372 L851.991 552.949 L830.853 612.79 L809.716 757.686 L788.578 882.961 L767.441 800.033 L746.303 716.105 L725.166 544.549 L704.028 452.008 L682.891 495.938 L661.753 601.743 L640.616 794.929 L619.478 901.647 L598.34 1050.06 L577.203 1168.33 L556.065 1252.64 L534.928 1314.21 L513.79 1356.23 L492.653 1376.8 L471.515 1389.24 L450.378 1398.36 L429.24 1404.63 L408.103 1409.26 L386.965 1409.26 L365.828 1409.39 L344.69 1403.59 L323.553 1399.53 L302.415 1392.43 L281.277 1386.05 L260.14 1373.9 L239.002 1358.81 L217.865 1344.62 L196.727 1331 L175.59 1308.27  Z" fill="#e26f46" fill-rule="evenodd" fill-opacity="0.5"/>
<polyline clip-path="url(#clip392)" style="stroke:#e26f46; stroke-linecap:round; stroke-linejoin:round; stroke-width:12; stroke-opacity:1; fill:none" points="175.59,1308.27 196.727,1335.64 217.865,1354.14 239.002,1370.28 260.14,1381.05 281.277,1392.61 302.415,1402.32 323.553,1408.72 344.69,1413.23 365.828,1415.56 386.965,1417.49 408.103,1419.09 429.24,1418.33 450.378,1415.93 471.515,1414.27 492.653,1409.91 513.79,1399.85 534.928,1383.35 556.065,1357.31 577.203,1323.75 598.34,1253.5 619.478,1150.14 640.616,983.562 661.753,894.167 682.891,855.899 704.028,884.289 725.166,892.336 746.303,931.795 767.441,982.197 788.578,1031.16 809.716,1102.33 830.853,1175.91 851.991,1228.35 873.128,1270.67 894.266,1306.24 915.404,1337.11 936.541,1355.05 957.679,1369.15 978.816,1381.78 999.954,1392.18 1021.09,1398.29 1042.23,1404.72 1063.37,1409.33 1084.5,1410.2 1105.64,1406.53 1126.78,1406.51 1147.92,1409.21 1169.05,1412.11 1190.19,1411.09 1211.33,1407.86 1232.47,1401.22 1253.6,1386.85 1274.74,1361.37 1295.88,1320.64 1317.02,1245.68 1338.15,1130.16 1359.29,997.19 1380.43,978.142 1401.57,1041.84 1422.7,1088.69 1443.84,1039.28 1464.98,985.132 1486.12,1059.74 1507.25,1133.47 1528.39,1193.08 1549.53,1229.25 1570.67,1273.91 1591.8,1306.96 1612.94,1333.46 1634.08,1355.42 1655.22,1371.66 1676.35,1383.57 1697.49,1392.39 1718.63,1395.59 1739.77,1402.31 1760.9,1407.38 1782.04,1409.74 1803.18,1409.61 1824.32,1409.71 1845.46,1406.21 1866.59,1400.27 1887.73,1397.82 1908.87,1399.41 1930.01,1392.13 1951.14,1377.85 1972.28,1354.63 1993.42,1318.96 2014.56,1293.62 2035.69,1228.4 2056.83,1129.2 2077.97,1049.14 2099.11,1000.99 2120.24,922.442 2141.38,1000.42 2162.52,968.773 2183.66,1010.14 2204.79,1084.15 2225.93,1155.19 2247.07,1211.51 2268.21,1259.52 2289.34,1299.2 "/>
</svg>
