<?xml version="1.0" encoding="utf-8"?>
<svg xmlns="http://www.w3.org/2000/svg" xmlns:xlink="http://www.w3.org/1999/xlink" width="600" height="400" viewBox="0 0 2400 1600">
<defs>
  <clipPath id="clip290">
    <rect x="0" y="0" width="2400" height="1600"/>
  </clipPath>
</defs>
<path clip-path="url(#clip290)" d="M0 1600 L2400 1600 L2400 0 L0 0  Z" fill="#ffffff" fill-rule="evenodd" fill-opacity="1"/>
<defs>
  <clipPath id="clip291">
    <rect x="186" y="47" width="2167" height="1440"/>
  </clipPath>
</defs>
<path clip-path="url(#clip290)" d="M186.274 1486.45 L2352.76 1486.45 L2352.76 47.2441 L186.274 47.2441  Z" fill="#ffffff" fill-rule="evenodd" fill-opacity="1"/>
<polyline clip-path="url(#clip291)" style="stroke:#000000; stroke-linecap:round; stroke-linejoin:round; stroke-width:2; stroke-opacity:0.1; fill:none" points="247.59,1486.45 247.59,47.2441 "/>
<polyline clip-path="url(#clip291)" style="stroke:#000000; stroke-linecap:round; stroke-linejoin:round; stroke-width:2; stroke-opacity:0.1; fill:none" points="758.552,1486.45 758.552,47.2441 "/>
<polyline clip-path="url(#clip291)" style="stroke:#000000; stroke-linecap:round; stroke-linejoin:round; stroke-width:2; stroke-opacity:0.1; fill:none" points="1269.51,1486.45 1269.51,47.2441 "/>
<polyline clip-path="url(#clip291)" style="stroke:#000000; stroke-linecap:round; stroke-linejoin:round; stroke-width:2; stroke-opacity:0.1; fill:none" points="1780.48,1486.45 1780.48,47.2441 "/>
<polyline clip-path="url(#clip291)" style="stroke:#000000; stroke-linecap:round; stroke-linejoin:round; stroke-width:2; stroke-opacity:0.1; fill:none" points="2291.44,1486.45 2291.44,47.2441 "/>
<polyline clip-path="url(#clip291)" style="stroke:#000000; stroke-linecap:round; stroke-linejoin:round; stroke-width:2; stroke-opacity:0.1; fill:none" points="186.274,1345.06 2352.76,1345.06 "/>
<polyline clip-path="url(#clip291)" style="stroke:#000000; stroke-linecap:round; stroke-linejoin:round; stroke-width:2; stroke-opacity:0.1; fill:none" points="186.274,997.107 2352.76,997.107 "/>
<polyline clip-path="url(#clip291)" style="stroke:#000000; stroke-linecap:round; stroke-linejoin:round; stroke-width:2; stroke-opacity:0.1; fill:none" points="186.274,649.151 2352.76,649.151 "/>
<polyline clip-path="url(#clip291)" style="stroke:#000000; stroke-linecap:round; stroke-linejoin:round; stroke-width:2; stroke-opacity:0.1; fill:none" points="186.274,301.195 2352.76,301.195 "/>
<polyline clip-path="url(#clip290)" style="stroke:#000000; stroke-linecap:round; stroke-linejoin:round; stroke-width:4; stroke-opacity:1; fill:none" points="186.274,1486.45 2352.76,1486.45 "/>
<polyline clip-path="url(#clip290)" style="stroke:#000000; stroke-linecap:round; stroke-linejoin:round; stroke-width:4; stroke-opacity:1; fill:none" points="247.59,1486.45 247.59,1467.55 "/>
<polyline clip-path="url(#clip290)" style="stroke:#000000; stroke-linecap:round; stroke-linejoin:round; stroke-width:4; stroke-opacity:1; fill:none" points="758.552,1486.45 758.552,1467.55 "/>
<polyline clip-path="url(#clip290)" style="stroke:#000000; stroke-linecap:round; stroke-linejoin:round; stroke-width:4; stroke-opacity:1; fill:none" points="1269.51,1486.45 1269.51,1467.55 "/>
<polyline clip-path="url(#clip290)" style="stroke:#000000; stroke-linecap:round; stroke-linejoin:round; stroke-width:4; stroke-opacity:1; fill:none" points="1780.48,1486.45 1780.48,1467.55 "/>
<polyline clip-path="url(#clip290)" style="stroke:#000000; stroke-linecap:round; stroke-linejoin:round; stroke-width:4; stroke-opacity:1; fill:none" points="2291.44,1486.45 2291.44,1467.55 "/>
<path clip-path="url(#clip290)" d="M209.893 1517.37 Q206.282 1517.37 204.453 1520.93 Q202.648 1524.47 202.648 1531.6 Q202.648 1538.71 204.453 1542.27 Q206.282 1545.82 209.893 1545.82 Q213.527 1545.82 215.333 1542.27 Q217.161 1538.71 217.161 1531.6 Q217.161 1524.47 215.333 1520.93 Q213.527 1517.37 209.893 1517.37 M209.893 1513.66 Q215.703 1513.66 218.759 1518.27 Q221.837 1522.85 221.837 1531.6 Q221.837 1540.33 218.759 1544.94 Q215.703 1549.52 209.893 1549.52 Q204.083 1549.52 201.004 1544.94 Q197.949 1540.33 197.949 1531.6 Q197.949 1522.85 201.004 1518.27 Q204.083 1513.66 209.893 1513.66 Z" fill="#000000" fill-rule="nonzero" fill-opacity="1" /><path clip-path="url(#clip290)" d="M230.055 1542.97 L234.939 1542.97 L234.939 1548.85 L230.055 1548.85 L230.055 1542.97 Z" fill="#000000" fill-rule="nonzero" fill-opacity="1" /><path clip-path="url(#clip290)" d="M255.124 1517.37 Q251.513 1517.37 249.684 1520.93 Q247.879 1524.47 247.879 1531.6 Q247.879 1538.71 249.684 1542.27 Q251.513 1545.82 255.124 1545.82 Q258.758 1545.82 260.564 1542.27 Q262.393 1538.71 262.393 1531.6 Q262.393 1524.47 260.564 1520.93 Q258.758 1517.37 255.124 1517.37 M255.124 1513.66 Q260.934 1513.66 263.99 1518.27 Q267.069 1522.85 267.069 1531.6 Q267.069 1540.33 263.99 1544.94 Q260.934 1549.52 255.124 1549.52 Q249.314 1549.52 246.235 1544.94 Q243.18 1540.33 243.18 1531.6 Q243.18 1522.85 246.235 1518.27 Q249.314 1513.66 255.124 1513.66 Z" fill="#000000" fill-rule="nonzero" fill-opacity="1" /><path clip-path="url(#clip290)" d="M285.286 1517.37 Q281.675 1517.37 279.846 1520.93 Q278.041 1524.47 278.041 1531.6 Q278.041 1538.71 279.846 1542.27 Q281.675 1545.82 285.286 1545.82 Q288.92 1545.82 290.726 1542.27 Q292.555 1538.71 292.555 1531.6 Q292.555 1524.47 290.726 1520.93 Q288.92 1517.37 285.286 1517.37 M285.286 1513.66 Q291.096 1513.66 294.152 1518.27 Q297.23 1522.85 297.23 1531.6 Q297.23 1540.33 294.152 1544.94 Q291.096 1549.52 285.286 1549.52 Q279.476 1549.52 276.397 1544.94 Q273.342 1540.33 273.342 1531.6 Q273.342 1522.85 276.397 1518.27 Q279.476 1513.66 285.286 1513.66 Z" fill="#000000" fill-rule="nonzero" fill-opacity="1" /><path clip-path="url(#clip290)" d="M721.353 1517.37 Q717.742 1517.37 715.914 1520.93 Q714.108 1524.47 714.108 1531.6 Q714.108 1538.71 715.914 1542.27 Q717.742 1545.82 721.353 1545.82 Q724.988 1545.82 726.793 1542.27 Q728.622 1538.71 728.622 1531.6 Q728.622 1524.47 726.793 1520.93 Q724.988 1517.37 721.353 1517.37 M721.353 1513.66 Q727.164 1513.66 730.219 1518.27 Q733.298 1522.85 733.298 1531.6 Q733.298 1540.33 730.219 1544.94 Q727.164 1549.52 721.353 1549.52 Q715.543 1549.52 712.465 1544.94 Q709.409 1540.33 709.409 1531.6 Q709.409 1522.85 712.465 1518.27 Q715.543 1513.66 721.353 1513.66 Z" fill="#000000" fill-rule="nonzero" fill-opacity="1" /><path clip-path="url(#clip290)" d="M741.515 1542.97 L746.4 1542.97 L746.4 1548.85 L741.515 1548.85 L741.515 1542.97 Z" fill="#000000" fill-rule="nonzero" fill-opacity="1" /><path clip-path="url(#clip290)" d="M760.612 1544.91 L776.932 1544.91 L776.932 1548.85 L754.987 1548.85 L754.987 1544.91 Q757.649 1542.16 762.233 1537.53 Q766.839 1532.88 768.02 1531.53 Q770.265 1529.01 771.145 1527.27 Q772.048 1525.51 772.048 1523.82 Q772.048 1521.07 770.103 1519.33 Q768.182 1517.6 765.08 1517.6 Q762.881 1517.6 760.427 1518.36 Q757.997 1519.13 755.219 1520.68 L755.219 1515.95 Q758.043 1514.82 760.497 1514.24 Q762.95 1513.66 764.987 1513.66 Q770.358 1513.66 773.552 1516.35 Q776.747 1519.03 776.747 1523.52 Q776.747 1525.65 775.936 1527.57 Q775.149 1529.47 773.043 1532.07 Q772.464 1532.74 769.362 1535.95 Q766.261 1539.15 760.612 1544.91 Z" fill="#000000" fill-rule="nonzero" fill-opacity="1" /><path clip-path="url(#clip290)" d="M786.793 1514.29 L805.149 1514.29 L805.149 1518.22 L791.075 1518.22 L791.075 1526.7 Q792.094 1526.35 793.112 1526.19 Q794.131 1526 795.149 1526 Q800.936 1526 804.316 1529.17 Q807.695 1532.34 807.695 1537.76 Q807.695 1543.34 804.223 1546.44 Q800.751 1549.52 794.432 1549.52 Q792.256 1549.52 789.987 1549.15 Q787.742 1548.78 785.335 1548.04 L785.335 1543.34 Q787.418 1544.47 789.64 1545.03 Q791.862 1545.58 794.339 1545.58 Q798.344 1545.58 800.682 1543.48 Q803.02 1541.37 803.02 1537.76 Q803.02 1534.15 800.682 1532.04 Q798.344 1529.94 794.339 1529.94 Q792.464 1529.94 790.589 1530.35 Q788.737 1530.77 786.793 1531.65 L786.793 1514.29 Z" fill="#000000" fill-rule="nonzero" fill-opacity="1" /><path clip-path="url(#clip290)" d="M1231.82 1517.37 Q1228.21 1517.37 1226.38 1520.93 Q1224.57 1524.47 1224.57 1531.6 Q1224.57 1538.71 1226.38 1542.27 Q1228.21 1545.82 1231.82 1545.82 Q1235.45 1545.82 1237.26 1542.27 Q1239.09 1538.71 1239.09 1531.6 Q1239.09 1524.47 1237.26 1520.93 Q1235.45 1517.37 1231.82 1517.37 M1231.82 1513.66 Q1237.63 1513.66 1240.68 1518.27 Q1243.76 1522.85 1243.76 1531.6 Q1243.76 1540.33 1240.68 1544.94 Q1237.63 1549.52 1231.82 1549.52 Q1226.01 1549.52 1222.93 1544.94 Q1219.87 1540.33 1219.87 1531.6 Q1219.87 1522.85 1222.93 1518.27 Q1226.01 1513.66 1231.82 1513.66 Z" fill="#000000" fill-rule="nonzero" fill-opacity="1" /><path clip-path="url(#clip290)" d="M1251.98 1542.97 L1256.86 1542.97 L1256.86 1548.85 L1251.98 1548.85 L1251.98 1542.97 Z" fill="#000000" fill-rule="nonzero" fill-opacity="1" /><path clip-path="url(#clip290)" d="M1267.1 1514.29 L1285.45 1514.29 L1285.45 1518.22 L1271.38 1518.22 L1271.38 1526.7 Q1272.4 1526.35 1273.42 1526.19 Q1274.43 1526 1275.45 1526 Q1281.24 1526 1284.62 1529.17 Q1288 1532.34 1288 1537.76 Q1288 1543.34 1284.53 1546.44 Q1281.05 1549.52 1274.73 1549.52 Q1272.56 1549.52 1270.29 1549.15 Q1268.05 1548.78 1265.64 1548.04 L1265.64 1543.34 Q1267.72 1544.47 1269.94 1545.03 Q1272.17 1545.58 1274.64 1545.58 Q1278.65 1545.58 1280.98 1543.48 Q1283.32 1541.37 1283.32 1537.76 Q1283.32 1534.15 1280.98 1532.04 Q1278.65 1529.94 1274.64 1529.94 Q1272.77 1529.94 1270.89 1530.35 Q1269.04 1530.77 1267.1 1531.65 L1267.1 1514.29 Z" fill="#000000" fill-rule="nonzero" fill-opacity="1" /><path clip-path="url(#clip290)" d="M1307.21 1517.37 Q1303.6 1517.37 1301.77 1520.93 Q1299.97 1524.47 1299.97 1531.6 Q1299.97 1538.71 1301.77 1542.27 Q1303.6 1545.82 1307.21 1545.82 Q1310.85 1545.82 1312.65 1542.27 Q1314.48 1538.71 1314.48 1531.6 Q1314.48 1524.47 1312.65 1520.93 Q1310.85 1517.37 1307.21 1517.37 M1307.21 1513.66 Q1313.02 1513.66 1316.08 1518.27 Q1319.16 1522.85 1319.16 1531.6 Q1319.16 1540.33 1316.08 1544.94 Q1313.02 1549.52 1307.21 1549.52 Q1301.4 1549.52 1298.32 1544.94 Q1295.27 1540.33 1295.27 1531.6 Q1295.27 1522.85 1298.32 1518.27 Q1301.4 1513.66 1307.21 1513.66 Z" fill="#000000" fill-rule="nonzero" fill-opacity="1" /><path clip-path="url(#clip290)" d="M1743.28 1517.37 Q1739.67 1517.37 1737.84 1520.93 Q1736.03 1524.47 1736.03 1531.6 Q1736.03 1538.71 1737.84 1542.27 Q1739.67 1545.82 1743.28 1545.82 Q1746.91 1545.82 1748.72 1542.27 Q1750.55 1538.71 1750.55 1531.6 Q1750.55 1524.47 1748.72 1520.93 Q1746.91 1517.37 1743.28 1517.37 M1743.28 1513.66 Q1749.09 1513.66 1752.14 1518.27 Q1755.22 1522.85 1755.22 1531.6 Q1755.22 1540.33 1752.14 1544.94 Q1749.09 1549.52 1743.28 1549.52 Q1737.47 1549.52 1734.39 1544.94 Q1731.33 1540.33 1731.33 1531.6 Q1731.33 1522.85 1734.39 1518.27 Q1737.47 1513.66 1743.28 1513.66 Z" fill="#000000" fill-rule="nonzero" fill-opacity="1" /><path clip-path="url(#clip290)" d="M1763.44 1542.97 L1768.32 1542.97 L1768.32 1548.85 L1763.44 1548.85 L1763.44 1542.97 Z" fill="#000000" fill-rule="nonzero" fill-opacity="1" /><path clip-path="url(#clip290)" d="M1777.33 1514.29 L1799.55 1514.29 L1799.55 1516.28 L1787.01 1548.85 L1782.12 1548.85 L1793.93 1518.22 L1777.33 1518.22 L1777.33 1514.29 Z" fill="#000000" fill-rule="nonzero" fill-opacity="1" /><path clip-path="url(#clip290)" d="M1808.72 1514.29 L1827.07 1514.29 L1827.07 1518.22 L1813 1518.22 L1813 1526.7 Q1814.02 1526.35 1815.04 1526.19 Q1816.06 1526 1817.07 1526 Q1822.86 1526 1826.24 1529.17 Q1829.62 1532.34 1829.62 1537.76 Q1829.62 1543.34 1826.15 1546.44 Q1822.68 1549.52 1816.36 1549.52 Q1814.18 1549.52 1811.91 1549.15 Q1809.67 1548.78 1807.26 1548.04 L1807.26 1543.34 Q1809.34 1544.47 1811.57 1545.03 Q1813.79 1545.58 1816.26 1545.58 Q1820.27 1545.58 1822.61 1543.48 Q1824.95 1541.37 1824.95 1537.76 Q1824.95 1534.15 1822.61 1532.04 Q1820.27 1529.94 1816.26 1529.94 Q1814.39 1529.94 1812.51 1530.35 Q1810.66 1530.77 1808.72 1531.65 L1808.72 1514.29 Z" fill="#000000" fill-rule="nonzero" fill-opacity="1" /><path clip-path="url(#clip290)" d="M2243.51 1544.91 L2251.15 1544.91 L2251.15 1518.55 L2242.84 1520.21 L2242.84 1515.95 L2251.1 1514.29 L2255.78 1514.29 L2255.78 1544.91 L2263.42 1544.91 L2263.42 1548.85 L2243.51 1548.85 L2243.51 1544.91 Z" fill="#000000" fill-rule="nonzero" fill-opacity="1" /><path clip-path="url(#clip290)" d="M2272.86 1542.97 L2277.75 1542.97 L2277.75 1548.85 L2272.86 1548.85 L2272.86 1542.97 Z" fill="#000000" fill-rule="nonzero" fill-opacity="1" /><path clip-path="url(#clip290)" d="M2297.93 1517.37 Q2294.32 1517.37 2292.49 1520.93 Q2290.69 1524.47 2290.69 1531.6 Q2290.69 1538.71 2292.49 1542.27 Q2294.32 1545.82 2297.93 1545.82 Q2301.57 1545.82 2303.37 1542.27 Q2305.2 1538.71 2305.2 1531.6 Q2305.2 1524.47 2303.37 1520.93 Q2301.57 1517.37 2297.93 1517.37 M2297.93 1513.66 Q2303.74 1513.66 2306.8 1518.27 Q2309.88 1522.85 2309.88 1531.6 Q2309.88 1540.33 2306.8 1544.94 Q2303.74 1549.52 2297.93 1549.52 Q2292.12 1549.52 2289.04 1544.94 Q2285.99 1540.33 2285.99 1531.6 Q2285.99 1522.85 2289.04 1518.27 Q2292.12 1513.66 2297.93 1513.66 Z" fill="#000000" fill-rule="nonzero" fill-opacity="1" /><path clip-path="url(#clip290)" d="M2328.1 1517.37 Q2324.48 1517.37 2322.66 1520.93 Q2320.85 1524.47 2320.85 1531.6 Q2320.85 1538.71 2322.66 1542.27 Q2324.48 1545.82 2328.1 1545.82 Q2331.73 1545.82 2333.54 1542.27 Q2335.36 1538.71 2335.36 1531.6 Q2335.36 1524.47 2333.54 1520.93 Q2331.73 1517.37 2328.1 1517.37 M2328.1 1513.66 Q2333.91 1513.66 2336.96 1518.27 Q2340.04 1522.85 2340.04 1531.6 Q2340.04 1540.33 2336.96 1544.94 Q2333.91 1549.52 2328.1 1549.52 Q2322.29 1549.52 2319.21 1544.94 Q2316.15 1540.33 2316.15 1531.6 Q2316.15 1522.85 2319.21 1518.27 Q2322.29 1513.66 2328.1 1513.66 Z" fill="#000000" fill-rule="nonzero" fill-opacity="1" /><polyline clip-path="url(#clip290)" style="stroke:#000000; stroke-linecap:round; stroke-linejoin:round; stroke-width:4; stroke-opacity:1; fill:none" points="186.274,1486.45 186.274,47.2441 "/>
<polyline clip-path="url(#clip290)" style="stroke:#000000; stroke-linecap:round; stroke-linejoin:round; stroke-width:4; stroke-opacity:1; fill:none" points="186.274,1345.06 205.172,1345.06 "/>
<polyline clip-path="url(#clip290)" style="stroke:#000000; stroke-linecap:round; stroke-linejoin:round; stroke-width:4; stroke-opacity:1; fill:none" points="186.274,997.107 205.172,997.107 "/>
<polyline clip-path="url(#clip290)" style="stroke:#000000; stroke-linecap:round; stroke-linejoin:round; stroke-width:4; stroke-opacity:1; fill:none" points="186.274,649.151 205.172,649.151 "/>
<polyline clip-path="url(#clip290)" style="stroke:#000000; stroke-linecap:round; stroke-linejoin:round; stroke-width:4; stroke-opacity:1; fill:none" points="186.274,301.195 205.172,301.195 "/>
<path clip-path="url(#clip290)" d="M62.9365 1330.86 Q59.3254 1330.86 57.4967 1334.43 Q55.6912 1337.97 55.6912 1345.1 Q55.6912 1352.2 57.4967 1355.77 Q59.3254 1359.31 62.9365 1359.31 Q66.5707 1359.31 68.3763 1355.77 Q70.205 1352.2 70.205 1345.1 Q70.205 1337.97 68.3763 1334.43 Q66.5707 1330.86 62.9365 1330.86 M62.9365 1327.16 Q68.7467 1327.16 71.8022 1331.76 Q74.8809 1336.35 74.8809 1345.1 Q74.8809 1353.82 71.8022 1358.43 Q68.7467 1363.01 62.9365 1363.01 Q57.1264 1363.01 54.0477 1358.43 Q50.9921 1353.82 50.9921 1345.1 Q50.9921 1336.35 54.0477 1331.76 Q57.1264 1327.16 62.9365 1327.16 Z" fill="#000000" fill-rule="nonzero" fill-opacity="1" /><path clip-path="url(#clip290)" d="M83.0984 1356.46 L87.9827 1356.46 L87.9827 1362.34 L83.0984 1362.34 L83.0984 1356.46 Z" fill="#000000" fill-rule="nonzero" fill-opacity="1" /><path clip-path="url(#clip290)" d="M98.2141 1327.78 L116.57 1327.78 L116.57 1331.72 L102.496 1331.72 L102.496 1340.19 Q103.515 1339.84 104.534 1339.68 Q105.552 1339.5 106.571 1339.5 Q112.358 1339.5 115.737 1342.67 Q119.117 1345.84 119.117 1351.25 Q119.117 1356.83 115.645 1359.93 Q112.172 1363.01 105.853 1363.01 Q103.677 1363.01 101.409 1362.64 Q99.1632 1362.27 96.7558 1361.53 L96.7558 1356.83 Q98.8391 1357.97 101.061 1358.52 Q103.284 1359.08 105.76 1359.08 Q109.765 1359.08 112.103 1356.97 Q114.441 1354.87 114.441 1351.25 Q114.441 1347.64 112.103 1345.54 Q109.765 1343.43 105.76 1343.43 Q103.885 1343.43 102.01 1343.85 Q100.159 1344.26 98.2141 1345.14 L98.2141 1327.78 Z" fill="#000000" fill-rule="nonzero" fill-opacity="1" /><path clip-path="url(#clip290)" d="M138.33 1330.86 Q134.719 1330.86 132.89 1334.43 Q131.084 1337.97 131.084 1345.1 Q131.084 1352.2 132.89 1355.77 Q134.719 1359.31 138.33 1359.31 Q141.964 1359.31 143.769 1355.77 Q145.598 1352.2 145.598 1345.1 Q145.598 1337.97 143.769 1334.43 Q141.964 1330.86 138.33 1330.86 M138.33 1327.16 Q144.14 1327.16 147.195 1331.76 Q150.274 1336.35 150.274 1345.1 Q150.274 1353.82 147.195 1358.43 Q144.14 1363.01 138.33 1363.01 Q132.519 1363.01 129.441 1358.43 Q126.385 1353.82 126.385 1345.1 Q126.385 1336.35 129.441 1331.76 Q132.519 1327.16 138.33 1327.16 Z" fill="#000000" fill-rule="nonzero" fill-opacity="1" /><path clip-path="url(#clip290)" d="M63.9319 982.905 Q60.3208 982.905 58.4921 986.47 Q56.6865 990.012 56.6865 997.141 Q56.6865 1004.25 58.4921 1007.81 Q60.3208 1011.35 63.9319 1011.35 Q67.5661 1011.35 69.3717 1007.81 Q71.2004 1004.25 71.2004 997.141 Q71.2004 990.012 69.3717 986.47 Q67.5661 982.905 63.9319 982.905 M63.9319 979.202 Q69.742 979.202 72.7976 983.808 Q75.8763 988.391 75.8763 997.141 Q75.8763 1005.87 72.7976 1010.47 Q69.742 1015.06 63.9319 1015.06 Q58.1217 1015.06 55.043 1010.47 Q51.9875 1005.87 51.9875 997.141 Q51.9875 988.391 55.043 983.808 Q58.1217 979.202 63.9319 979.202 Z" fill="#000000" fill-rule="nonzero" fill-opacity="1" /><path clip-path="url(#clip290)" d="M84.0938 1008.51 L88.978 1008.51 L88.978 1014.39 L84.0938 1014.39 L84.0938 1008.51 Z" fill="#000000" fill-rule="nonzero" fill-opacity="1" /><path clip-path="url(#clip290)" d="M97.9826 979.827 L120.205 979.827 L120.205 981.817 L107.658 1014.39 L102.774 1014.39 L114.58 983.762 L97.9826 983.762 L97.9826 979.827 Z" fill="#000000" fill-rule="nonzero" fill-opacity="1" /><path clip-path="url(#clip290)" d="M129.371 979.827 L147.728 979.827 L147.728 983.762 L133.654 983.762 L133.654 992.234 Q134.672 991.887 135.691 991.725 Q136.709 991.539 137.728 991.539 Q143.515 991.539 146.894 994.711 Q150.274 997.882 150.274 1003.3 Q150.274 1008.88 146.802 1011.98 Q143.33 1015.06 137.01 1015.06 Q134.834 1015.06 132.566 1014.69 Q130.32 1014.32 127.913 1013.58 L127.913 1008.88 Q129.996 1010.01 132.219 1010.57 Q134.441 1011.12 136.918 1011.12 Q140.922 1011.12 143.26 1009.02 Q145.598 1006.91 145.598 1003.3 Q145.598 999.688 143.26 997.581 Q140.922 995.475 136.918 995.475 Q135.043 995.475 133.168 995.891 Q131.316 996.308 129.371 997.188 L129.371 979.827 Z" fill="#000000" fill-rule="nonzero" fill-opacity="1" /><path clip-path="url(#clip290)" d="M53.7467 662.495 L61.3856 662.495 L61.3856 636.13 L53.0754 637.797 L53.0754 633.537 L61.3393 631.871 L66.0152 631.871 L66.0152 662.495 L73.654 662.495 L73.654 666.431 L53.7467 666.431 L53.7467 662.495 Z" fill="#000000" fill-rule="nonzero" fill-opacity="1" /><path clip-path="url(#clip290)" d="M83.0984 660.551 L87.9827 660.551 L87.9827 666.431 L83.0984 666.431 L83.0984 660.551 Z" fill="#000000" fill-rule="nonzero" fill-opacity="1" /><path clip-path="url(#clip290)" d="M108.168 634.949 Q104.557 634.949 102.728 638.514 Q100.922 642.056 100.922 649.185 Q100.922 656.292 102.728 659.857 Q104.557 663.398 108.168 663.398 Q111.802 663.398 113.608 659.857 Q115.436 656.292 115.436 649.185 Q115.436 642.056 113.608 638.514 Q111.802 634.949 108.168 634.949 M108.168 631.246 Q113.978 631.246 117.033 635.852 Q120.112 640.435 120.112 649.185 Q120.112 657.912 117.033 662.519 Q113.978 667.102 108.168 667.102 Q102.358 667.102 99.2789 662.519 Q96.2234 657.912 96.2234 649.185 Q96.2234 640.435 99.2789 635.852 Q102.358 631.246 108.168 631.246 Z" fill="#000000" fill-rule="nonzero" fill-opacity="1" /><path clip-path="url(#clip290)" d="M138.33 634.949 Q134.719 634.949 132.89 638.514 Q131.084 642.056 131.084 649.185 Q131.084 656.292 132.89 659.857 Q134.719 663.398 138.33 663.398 Q141.964 663.398 143.769 659.857 Q145.598 656.292 145.598 649.185 Q145.598 642.056 143.769 638.514 Q141.964 634.949 138.33 634.949 M138.33 631.246 Q144.14 631.246 147.195 635.852 Q150.274 640.435 150.274 649.185 Q150.274 657.912 147.195 662.519 Q144.14 667.102 138.33 667.102 Q132.519 667.102 129.441 662.519 Q126.385 657.912 126.385 649.185 Q126.385 640.435 129.441 635.852 Q132.519 631.246 138.33 631.246 Z" fill="#000000" fill-rule="nonzero" fill-opacity="1" /><path clip-path="url(#clip290)" d="M54.7421 314.54 L62.381 314.54 L62.381 288.174 L54.0708 289.841 L54.0708 285.581 L62.3347 283.915 L67.0106 283.915 L67.0106 314.54 L74.6494 314.54 L74.6494 318.475 L54.7421 318.475 L54.7421 314.54 Z" fill="#000000" fill-rule="nonzero" fill-opacity="1" /><path clip-path="url(#clip290)" d="M84.0938 312.595 L88.978 312.595 L88.978 318.475 L84.0938 318.475 L84.0938 312.595 Z" fill="#000000" fill-rule="nonzero" fill-opacity="1" /><path clip-path="url(#clip290)" d="M103.191 314.54 L119.51 314.54 L119.51 318.475 L97.566 318.475 L97.566 314.54 Q100.228 311.785 104.811 307.155 Q109.418 302.503 110.598 301.16 Q112.844 298.637 113.723 296.901 Q114.626 295.142 114.626 293.452 Q114.626 290.697 112.682 288.961 Q110.76 287.225 107.658 287.225 Q105.459 287.225 103.006 287.989 Q100.575 288.753 97.7974 290.304 L97.7974 285.581 Q100.621 284.447 103.075 283.869 Q105.529 283.29 107.566 283.29 Q112.936 283.29 116.131 285.975 Q119.325 288.66 119.325 293.151 Q119.325 295.28 118.515 297.202 Q117.728 299.1 115.621 301.692 Q115.043 302.364 111.941 305.581 Q108.839 308.776 103.191 314.54 Z" fill="#000000" fill-rule="nonzero" fill-opacity="1" /><path clip-path="url(#clip290)" d="M129.371 283.915 L147.728 283.915 L147.728 287.85 L133.654 287.85 L133.654 296.322 Q134.672 295.975 135.691 295.813 Q136.709 295.628 137.728 295.628 Q143.515 295.628 146.894 298.799 Q150.274 301.97 150.274 307.387 Q150.274 312.966 146.802 316.067 Q143.33 319.146 137.01 319.146 Q134.834 319.146 132.566 318.776 Q130.32 318.405 127.913 317.665 L127.913 312.966 Q129.996 314.1 132.219 314.655 Q134.441 315.211 136.918 315.211 Q140.922 315.211 143.26 313.104 Q145.598 310.998 145.598 307.387 Q145.598 303.776 143.26 301.669 Q140.922 299.563 136.918 299.563 Q135.043 299.563 133.168 299.98 Q131.316 300.396 129.371 301.276 L129.371 283.915 Z" fill="#000000" fill-rule="nonzero" fill-opacity="1" /><polyline clip-path="url(#clip291)" style="stroke:#009af9; stroke-linecap:round; stroke-linejoin:round; stroke-width:12; stroke-opacity:1; fill:none" points="247.59,1345.06 451.975,1170.09 656.36,1133.23 860.745,1080.77 1065.13,1036.48 1269.51,800.411 1473.9,885.873 1678.29,909.456 1882.67,756.136 2087.06,707.25 2291.44,496.67 "/>
<polyline clip-path="url(#clip291)" style="stroke:#e26f46; stroke-linecap:round; stroke-linejoin:round; stroke-width:12; stroke-opacity:1; fill:none" points="247.59,1345.06 451.975,1322.36 656.36,1312.76 860.745,1367.79 1065.13,1408.03 1269.51,1334.26 1473.9,1130.29 1678.29,1113.54 1882.67,1093.64 2087.06,1026.28 2291.44,1020.94 "/>
<polyline clip-path="url(#clip291)" style="stroke:#3da44d; stroke-linecap:round; stroke-linejoin:round; stroke-width:12; stroke-opacity:1; fill:none" points="247.59,1345.06 451.975,1445.72 656.36,1407.35 860.745,1363.17 1065.13,1411.74 1269.51,1417.98 1473.9,1407.71 1678.29,1255.45 1882.67,1081.78 2087.06,1116.04 2291.44,1036.02 "/>
<polyline clip-path="url(#clip291)" style="stroke:#c271d2; stroke-linecap:round; stroke-linejoin:round; stroke-width:12; stroke-opacity:1; fill:none" points="247.59,1345.06 451.975,1291.91 656.36,1193.81 860.745,1168.57 1065.13,971.428 1269.51,861.626 1473.9,882.06 1678.29,594.639 1882.67,353.841 2087.06,231.068 2291.44,87.9763 "/>
<polyline clip-path="url(#clip291)" style="stroke:#ac8d18; stroke-linecap:round; stroke-linejoin:round; stroke-width:12; stroke-opacity:1; fill:none" points="247.59,1345.06 451.975,1161.55 656.36,1080.69 860.745,1059.08 1065.13,1219.95 1269.51,1218.5 1473.9,1116.36 1678.29,1112.52 1882.67,1223.25 2087.06,947.562 2291.44,722.407 "/>
<polyline clip-path="url(#clip291)" style="stroke:#00a9ad; stroke-linecap:round; stroke-linejoin:round; stroke-width:12; stroke-opacity:1; fill:none" points="247.59,1345.06 451.975,1287.5 656.36,1301.34 860.745,1302.67 1065.13,1250.67 1269.51,1047.59 1473.9,1074.54 1678.29,1127.06 1882.67,1252.17 2087.06,1146.13 2291.44,1061.28 "/>
<polyline clip-path="url(#clip291)" style="stroke:#ed5d92; stroke-linecap:round; stroke-linejoin:round; stroke-width:12; stroke-opacity:1; fill:none" points="247.59,1345.06 451.975,1388.76 656.36,1406.02 860.745,1376.93 1065.13,1340.49 1269.51,1138.19 1473.9,1172.16 1678.29,1148.86 1882.67,1041.98 2087.06,877.443 2291.44,794.329 "/>
<polyline clip-path="url(#clip291)" style="stroke:#c68125; stroke-linecap:round; stroke-linejoin:round; stroke-width:12; stroke-opacity:1; fill:none" points="247.59,1345.06 451.975,1121.66 656.36,1006.15 860.745,1084.67 1065.13,1165.5 1269.51,1146.71 1473.9,856.388 1678.29,783.491 1882.67,526.119 2087.06,601.289 2291.44,486.962 "/>
</svg>
