<?xml version="1.0" encoding="utf-8"?>
<svg xmlns="http://www.w3.org/2000/svg" xmlns:xlink="http://www.w3.org/1999/xlink" width="600" height="400" viewBox="0 0 2400 1600">
<defs>
  <clipPath id="clip200">
    <rect x="0" y="0" width="2400" height="1600"/>
  </clipPath>
</defs>
<path clip-path="url(#clip200)" d="M0 1600 L2400 1600 L2400 0 L0 0  Z" fill="#ffffff" fill-rule="evenodd" fill-opacity="1"/>
<defs>
  <clipPath id="clip201">
    <rect x="184" y="47" width="2170" height="1440"/>
  </clipPath>
</defs>
<path clip-path="url(#clip200)" d="M184.191 1486.45 L2352.76 1486.45 L2352.76 47.2441 L184.191 47.2441  Z" fill="#ffffff" fill-rule="evenodd" fill-opacity="1"/>
<polyline clip-path="url(#clip201)" style="stroke:#000000; stroke-linecap:round; stroke-linejoin:round; stroke-width:2; stroke-opacity:0.1; fill:none" points="245.565,1486.45 245.565,47.2441 "/>
<polyline clip-path="url(#clip201)" style="stroke:#000000; stroke-linecap:round; stroke-linejoin:round; stroke-width:2; stroke-opacity:0.1; fill:none" points="757.019,1486.45 757.019,47.2441 "/>
<polyline clip-path="url(#clip201)" style="stroke:#000000; stroke-linecap:round; stroke-linejoin:round; stroke-width:2; stroke-opacity:0.1; fill:none" points="1268.47,1486.45 1268.47,47.2441 "/>
<polyline clip-path="url(#clip201)" style="stroke:#000000; stroke-linecap:round; stroke-linejoin:round; stroke-width:2; stroke-opacity:0.1; fill:none" points="1779.93,1486.45 1779.93,47.2441 "/>
<polyline clip-path="url(#clip201)" style="stroke:#000000; stroke-linecap:round; stroke-linejoin:round; stroke-width:2; stroke-opacity:0.1; fill:none" points="2291.38,1486.45 2291.38,47.2441 "/>
<polyline clip-path="url(#clip201)" style="stroke:#000000; stroke-linecap:round; stroke-linejoin:round; stroke-width:2; stroke-opacity:0.1; fill:none" points="184.191,1451.38 2352.76,1451.38 "/>
<polyline clip-path="url(#clip201)" style="stroke:#000000; stroke-linecap:round; stroke-linejoin:round; stroke-width:2; stroke-opacity:0.1; fill:none" points="184.191,1128.89 2352.76,1128.89 "/>
<polyline clip-path="url(#clip201)" style="stroke:#000000; stroke-linecap:round; stroke-linejoin:round; stroke-width:2; stroke-opacity:0.1; fill:none" points="184.191,806.392 2352.76,806.392 "/>
<polyline clip-path="url(#clip201)" style="stroke:#000000; stroke-linecap:round; stroke-linejoin:round; stroke-width:2; stroke-opacity:0.1; fill:none" points="184.191,483.896 2352.76,483.896 "/>
<polyline clip-path="url(#clip201)" style="stroke:#000000; stroke-linecap:round; stroke-linejoin:round; stroke-width:2; stroke-opacity:0.1; fill:none" points="184.191,161.4 2352.76,161.4 "/>
<polyline clip-path="url(#clip200)" style="stroke:#000000; stroke-linecap:round; stroke-linejoin:round; stroke-width:4; stroke-opacity:1; fill:none" points="184.191,1486.45 2352.76,1486.45 "/>
<polyline clip-path="url(#clip200)" style="stroke:#000000; stroke-linecap:round; stroke-linejoin:round; stroke-width:4; stroke-opacity:1; fill:none" points="245.565,1486.45 245.565,1467.55 "/>
<polyline clip-path="url(#clip200)" style="stroke:#000000; stroke-linecap:round; stroke-linejoin:round; stroke-width:4; stroke-opacity:1; fill:none" points="757.019,1486.45 757.019,1467.55 "/>
<polyline clip-path="url(#clip200)" style="stroke:#000000; stroke-linecap:round; stroke-linejoin:round; stroke-width:4; stroke-opacity:1; fill:none" points="1268.47,1486.45 1268.47,1467.55 "/>
<polyline clip-path="url(#clip200)" style="stroke:#000000; stroke-linecap:round; stroke-linejoin:round; stroke-width:4; stroke-opacity:1; fill:none" points="1779.93,1486.45 1779.93,1467.55 "/>
<polyline clip-path="url(#clip200)" style="stroke:#000000; stroke-linecap:round; stroke-linejoin:round; stroke-width:4; stroke-opacity:1; fill:none" points="2291.38,1486.45 2291.38,1467.55 "/>
<path clip-path="url(#clip200)" d="M222.95 1517.37 Q219.338 1517.37 217.51 1520.93 Q215.704 1524.47 215.704 1531.6 Q215.704 1538.71 217.51 1542.27 Q219.338 1545.82 222.95 1545.82 Q226.584 1545.82 228.389 1542.27 Q230.218 1538.71 230.218 1531.6 Q230.218 1524.47 228.389 1520.93 Q226.584 1517.37 222.95 1517.37 M222.95 1513.66 Q228.76 1513.66 231.815 1518.27 Q234.894 1522.85 234.894 1531.6 Q234.894 1540.33 231.815 1544.94 Q228.76 1549.52 222.95 1549.52 Q217.139 1549.52 214.061 1544.94 Q211.005 1540.33 211.005 1531.6 Q211.005 1522.85 214.061 1518.27 Q217.139 1513.66 222.95 1513.66 Z" fill="#000000" fill-rule="nonzero" fill-opacity="1" /><path clip-path="url(#clip200)" d="M243.111 1542.97 L247.996 1542.97 L247.996 1548.85 L243.111 1548.85 L243.111 1542.97 Z" fill="#000000" fill-rule="nonzero" fill-opacity="1" /><path clip-path="url(#clip200)" d="M268.181 1517.37 Q264.57 1517.37 262.741 1520.93 Q260.935 1524.47 260.935 1531.6 Q260.935 1538.71 262.741 1542.27 Q264.57 1545.82 268.181 1545.82 Q271.815 1545.82 273.621 1542.27 Q275.449 1538.71 275.449 1531.6 Q275.449 1524.47 273.621 1520.93 Q271.815 1517.37 268.181 1517.37 M268.181 1513.66 Q273.991 1513.66 277.046 1518.27 Q280.125 1522.85 280.125 1531.6 Q280.125 1540.33 277.046 1544.94 Q273.991 1549.52 268.181 1549.52 Q262.371 1549.52 259.292 1544.94 Q256.236 1540.33 256.236 1531.6 Q256.236 1522.85 259.292 1518.27 Q262.371 1513.66 268.181 1513.66 Z" fill="#000000" fill-rule="nonzero" fill-opacity="1" /><path clip-path="url(#clip200)" d="M728.755 1544.91 L745.075 1544.91 L745.075 1548.85 L723.131 1548.85 L723.131 1544.91 Q725.793 1542.16 730.376 1537.53 Q734.982 1532.88 736.163 1531.53 Q738.408 1529.01 739.288 1527.27 Q740.191 1525.51 740.191 1523.82 Q740.191 1521.07 738.246 1519.33 Q736.325 1517.6 733.223 1517.6 Q731.024 1517.6 728.57 1518.36 Q726.14 1519.13 723.362 1520.68 L723.362 1515.95 Q726.186 1514.82 728.64 1514.24 Q731.093 1513.66 733.13 1513.66 Q738.501 1513.66 741.695 1516.35 Q744.89 1519.03 744.89 1523.52 Q744.89 1525.65 744.079 1527.57 Q743.292 1529.47 741.186 1532.07 Q740.607 1532.74 737.505 1535.95 Q734.404 1539.15 728.755 1544.91 Z" fill="#000000" fill-rule="nonzero" fill-opacity="1" /><path clip-path="url(#clip200)" d="M754.89 1542.97 L759.774 1542.97 L759.774 1548.85 L754.89 1548.85 L754.89 1542.97 Z" fill="#000000" fill-rule="nonzero" fill-opacity="1" /><path clip-path="url(#clip200)" d="M770.005 1514.29 L788.362 1514.29 L788.362 1518.22 L774.288 1518.22 L774.288 1526.7 Q775.306 1526.35 776.325 1526.19 Q777.343 1526 778.362 1526 Q784.149 1526 787.528 1529.17 Q790.908 1532.34 790.908 1537.76 Q790.908 1543.34 787.436 1546.44 Q783.964 1549.52 777.644 1549.52 Q775.468 1549.52 773.2 1549.15 Q770.954 1548.78 768.547 1548.04 L768.547 1543.34 Q770.63 1544.47 772.852 1545.03 Q775.075 1545.58 777.552 1545.58 Q781.556 1545.58 783.894 1543.48 Q786.232 1541.37 786.232 1537.76 Q786.232 1534.15 783.894 1532.04 Q781.556 1529.94 777.552 1529.94 Q775.677 1529.94 773.802 1530.35 Q771.95 1530.77 770.005 1531.65 L770.005 1514.29 Z" fill="#000000" fill-rule="nonzero" fill-opacity="1" /><path clip-path="url(#clip200)" d="M1235.64 1514.29 L1253.99 1514.29 L1253.99 1518.22 L1239.92 1518.22 L1239.92 1526.7 Q1240.94 1526.35 1241.96 1526.19 Q1242.98 1526 1243.99 1526 Q1249.78 1526 1253.16 1529.17 Q1256.54 1532.34 1256.54 1537.76 Q1256.54 1543.34 1253.07 1546.44 Q1249.6 1549.52 1243.28 1549.52 Q1241.1 1549.52 1238.83 1549.15 Q1236.59 1548.78 1234.18 1548.04 L1234.18 1543.34 Q1236.26 1544.47 1238.49 1545.03 Q1240.71 1545.58 1243.18 1545.58 Q1247.19 1545.58 1249.53 1543.48 Q1251.86 1541.37 1251.86 1537.76 Q1251.86 1534.15 1249.53 1532.04 Q1247.19 1529.94 1243.18 1529.94 Q1241.31 1529.94 1239.43 1530.35 Q1237.58 1530.77 1235.64 1531.65 L1235.64 1514.29 Z" fill="#000000" fill-rule="nonzero" fill-opacity="1" /><path clip-path="url(#clip200)" d="M1265.75 1542.97 L1270.64 1542.97 L1270.64 1548.85 L1265.75 1548.85 L1265.75 1542.97 Z" fill="#000000" fill-rule="nonzero" fill-opacity="1" /><path clip-path="url(#clip200)" d="M1290.82 1517.37 Q1287.21 1517.37 1285.38 1520.93 Q1283.58 1524.47 1283.58 1531.6 Q1283.58 1538.71 1285.38 1542.27 Q1287.21 1545.82 1290.82 1545.82 Q1294.46 1545.82 1296.26 1542.27 Q1298.09 1538.71 1298.09 1531.6 Q1298.09 1524.47 1296.26 1520.93 Q1294.46 1517.37 1290.82 1517.37 M1290.82 1513.66 Q1296.63 1513.66 1299.69 1518.27 Q1302.77 1522.85 1302.77 1531.6 Q1302.77 1540.33 1299.69 1544.94 Q1296.63 1549.52 1290.82 1549.52 Q1285.01 1549.52 1281.93 1544.94 Q1278.88 1540.33 1278.88 1531.6 Q1278.88 1522.85 1281.93 1518.27 Q1285.01 1513.66 1290.82 1513.66 Z" fill="#000000" fill-rule="nonzero" fill-opacity="1" /><path clip-path="url(#clip200)" d="M1746.25 1514.29 L1768.47 1514.29 L1768.47 1516.28 L1755.92 1548.85 L1751.04 1548.85 L1762.84 1518.22 L1746.25 1518.22 L1746.25 1514.29 Z" fill="#000000" fill-rule="nonzero" fill-opacity="1" /><path clip-path="url(#clip200)" d="M1777.59 1542.97 L1782.47 1542.97 L1782.47 1548.85 L1777.59 1548.85 L1777.59 1542.97 Z" fill="#000000" fill-rule="nonzero" fill-opacity="1" /><path clip-path="url(#clip200)" d="M1792.71 1514.29 L1811.06 1514.29 L1811.06 1518.22 L1796.99 1518.22 L1796.99 1526.7 Q1798.01 1526.35 1799.02 1526.19 Q1800.04 1526 1801.06 1526 Q1806.85 1526 1810.23 1529.17 Q1813.61 1532.34 1813.61 1537.76 Q1813.61 1543.34 1810.14 1546.44 Q1806.66 1549.52 1800.34 1549.52 Q1798.17 1549.52 1795.9 1549.15 Q1793.65 1548.78 1791.25 1548.04 L1791.25 1543.34 Q1793.33 1544.47 1795.55 1545.03 Q1797.77 1545.58 1800.25 1545.58 Q1804.26 1545.58 1806.59 1543.48 Q1808.93 1541.37 1808.93 1537.76 Q1808.93 1534.15 1806.59 1532.04 Q1804.26 1529.94 1800.25 1529.94 Q1798.38 1529.94 1796.5 1530.35 Q1794.65 1530.77 1792.71 1531.65 L1792.71 1514.29 Z" fill="#000000" fill-rule="nonzero" fill-opacity="1" /><path clip-path="url(#clip200)" d="M2243.45 1544.91 L2251.09 1544.91 L2251.09 1518.55 L2242.78 1520.21 L2242.78 1515.95 L2251.05 1514.29 L2255.72 1514.29 L2255.72 1544.91 L2263.36 1544.91 L2263.36 1548.85 L2243.45 1548.85 L2243.45 1544.91 Z" fill="#000000" fill-rule="nonzero" fill-opacity="1" /><path clip-path="url(#clip200)" d="M2282.81 1517.37 Q2279.19 1517.37 2277.37 1520.93 Q2275.56 1524.47 2275.56 1531.6 Q2275.56 1538.71 2277.37 1542.27 Q2279.19 1545.82 2282.81 1545.82 Q2286.44 1545.82 2288.24 1542.27 Q2290.07 1538.71 2290.07 1531.6 Q2290.07 1524.47 2288.24 1520.93 Q2286.44 1517.37 2282.81 1517.37 M2282.81 1513.66 Q2288.62 1513.66 2291.67 1518.27 Q2294.75 1522.85 2294.75 1531.6 Q2294.75 1540.33 2291.67 1544.94 Q2288.62 1549.52 2282.81 1549.52 Q2276.99 1549.52 2273.92 1544.94 Q2270.86 1540.33 2270.86 1531.6 Q2270.86 1522.85 2273.92 1518.27 Q2276.99 1513.66 2282.81 1513.66 Z" fill="#000000" fill-rule="nonzero" fill-opacity="1" /><path clip-path="url(#clip200)" d="M2302.97 1542.97 L2307.85 1542.97 L2307.85 1548.85 L2302.97 1548.85 L2302.97 1542.97 Z" fill="#000000" fill-rule="nonzero" fill-opacity="1" /><path clip-path="url(#clip200)" d="M2328.04 1517.37 Q2324.43 1517.37 2322.6 1520.93 Q2320.79 1524.47 2320.79 1531.6 Q2320.79 1538.71 2322.6 1542.27 Q2324.43 1545.82 2328.04 1545.82 Q2331.67 1545.82 2333.48 1542.27 Q2335.3 1538.71 2335.3 1531.6 Q2335.3 1524.47 2333.48 1520.93 Q2331.67 1517.37 2328.04 1517.37 M2328.04 1513.66 Q2333.85 1513.66 2336.9 1518.27 Q2339.98 1522.85 2339.98 1531.6 Q2339.98 1540.33 2336.9 1544.94 Q2333.85 1549.52 2328.04 1549.52 Q2322.23 1549.52 2319.15 1544.94 Q2316.09 1540.33 2316.09 1531.6 Q2316.09 1522.85 2319.15 1518.27 Q2322.23 1513.66 2328.04 1513.66 Z" fill="#000000" fill-rule="nonzero" fill-opacity="1" /><polyline clip-path="url(#clip200)" style="stroke:#000000; stroke-linecap:round; stroke-linejoin:round; stroke-width:4; stroke-opacity:1; fill:none" points="184.191,1486.45 184.191,47.2441 "/>
<polyline clip-path="url(#clip200)" style="stroke:#000000; stroke-linecap:round; stroke-linejoin:round; stroke-width:4; stroke-opacity:1; fill:none" points="184.191,1451.38 203.088,1451.38 "/>
<polyline clip-path="url(#clip200)" style="stroke:#000000; stroke-linecap:round; stroke-linejoin:round; stroke-width:4; stroke-opacity:1; fill:none" points="184.191,1128.89 203.088,1128.89 "/>
<polyline clip-path="url(#clip200)" style="stroke:#000000; stroke-linecap:round; stroke-linejoin:round; stroke-width:4; stroke-opacity:1; fill:none" points="184.191,806.392 203.088,806.392 "/>
<polyline clip-path="url(#clip200)" style="stroke:#000000; stroke-linecap:round; stroke-linejoin:round; stroke-width:4; stroke-opacity:1; fill:none" points="184.191,483.896 203.088,483.896 "/>
<polyline clip-path="url(#clip200)" style="stroke:#000000; stroke-linecap:round; stroke-linejoin:round; stroke-width:4; stroke-opacity:1; fill:none" points="184.191,161.4 203.088,161.4 "/>
<path clip-path="url(#clip200)" d="M91.0151 1437.18 Q87.404 1437.18 85.5753 1440.75 Q83.7697 1444.29 83.7697 1451.42 Q83.7697 1458.53 85.5753 1462.09 Q87.404 1465.63 91.0151 1465.63 Q94.6493 1465.63 96.4548 1462.09 Q98.2835 1458.53 98.2835 1451.42 Q98.2835 1444.29 96.4548 1440.75 Q94.6493 1437.18 91.0151 1437.18 M91.0151 1433.48 Q96.8252 1433.48 99.8808 1438.09 Q102.959 1442.67 102.959 1451.42 Q102.959 1460.15 99.8808 1464.75 Q96.8252 1469.34 91.0151 1469.34 Q85.2049 1469.34 82.1262 1464.75 Q79.0707 1460.15 79.0707 1451.42 Q79.0707 1442.67 82.1262 1438.09 Q85.2049 1433.48 91.0151 1433.48 Z" fill="#000000" fill-rule="nonzero" fill-opacity="1" /><path clip-path="url(#clip200)" d="M111.177 1462.78 L116.061 1462.78 L116.061 1468.66 L111.177 1468.66 L111.177 1462.78 Z" fill="#000000" fill-rule="nonzero" fill-opacity="1" /><path clip-path="url(#clip200)" d="M136.246 1437.18 Q132.635 1437.18 130.807 1440.75 Q129.001 1444.29 129.001 1451.42 Q129.001 1458.53 130.807 1462.09 Q132.635 1465.63 136.246 1465.63 Q139.881 1465.63 141.686 1462.09 Q143.515 1458.53 143.515 1451.42 Q143.515 1444.29 141.686 1440.75 Q139.881 1437.18 136.246 1437.18 M136.246 1433.48 Q142.056 1433.48 145.112 1438.09 Q148.191 1442.67 148.191 1451.42 Q148.191 1460.15 145.112 1464.75 Q142.056 1469.34 136.246 1469.34 Q130.436 1469.34 127.357 1464.75 Q124.302 1460.15 124.302 1451.42 Q124.302 1442.67 127.357 1438.09 Q130.436 1433.48 136.246 1433.48 Z" fill="#000000" fill-rule="nonzero" fill-opacity="1" /><path clip-path="url(#clip200)" d="M86.0382 1142.23 L102.358 1142.23 L102.358 1146.17 L80.4133 1146.17 L80.4133 1142.23 Q83.0753 1139.48 87.6586 1134.85 Q92.2651 1130.2 93.4456 1128.85 Q95.691 1126.33 96.5706 1124.59 Q97.4734 1122.84 97.4734 1121.15 Q97.4734 1118.39 95.5289 1116.65 Q93.6076 1114.92 90.5058 1114.92 Q88.3067 1114.92 85.8531 1115.68 Q83.4225 1116.45 80.6447 1118 L80.6447 1113.28 Q83.4688 1112.14 85.9225 1111.56 Q88.3762 1110.98 90.4132 1110.98 Q95.7836 1110.98 98.978 1113.67 Q102.172 1116.35 102.172 1120.84 Q102.172 1122.97 101.362 1124.9 Q100.575 1126.79 98.4687 1129.39 Q97.89 1130.06 94.7882 1133.27 Q91.6864 1136.47 86.0382 1142.23 Z" fill="#000000" fill-rule="nonzero" fill-opacity="1" /><path clip-path="url(#clip200)" d="M112.172 1140.29 L117.057 1140.29 L117.057 1146.17 L112.172 1146.17 L112.172 1140.29 Z" fill="#000000" fill-rule="nonzero" fill-opacity="1" /><path clip-path="url(#clip200)" d="M127.288 1111.61 L145.644 1111.61 L145.644 1115.54 L131.57 1115.54 L131.57 1124.02 Q132.589 1123.67 133.607 1123.51 Q134.626 1123.32 135.644 1123.32 Q141.431 1123.32 144.811 1126.49 Q148.191 1129.66 148.191 1135.08 Q148.191 1140.66 144.718 1143.76 Q141.246 1146.84 134.927 1146.84 Q132.751 1146.84 130.482 1146.47 Q128.237 1146.1 125.83 1145.36 L125.83 1140.66 Q127.913 1141.79 130.135 1142.35 Q132.357 1142.9 134.834 1142.9 Q138.839 1142.9 141.177 1140.8 Q143.515 1138.69 143.515 1135.08 Q143.515 1131.47 141.177 1129.36 Q138.839 1127.26 134.834 1127.26 Q132.959 1127.26 131.084 1127.67 Q129.232 1128.09 127.288 1128.97 L127.288 1111.61 Z" fill="#000000" fill-rule="nonzero" fill-opacity="1" /><path clip-path="url(#clip200)" d="M81.0614 789.112 L99.4178 789.112 L99.4178 793.048 L85.3438 793.048 L85.3438 801.52 Q86.3623 801.172 87.3808 801.01 Q88.3993 800.825 89.4178 800.825 Q95.2049 800.825 98.5845 803.997 Q101.964 807.168 101.964 812.584 Q101.964 818.163 98.4919 821.265 Q95.0197 824.344 88.7003 824.344 Q86.5243 824.344 84.2558 823.973 Q82.0105 823.603 79.6031 822.862 L79.6031 818.163 Q81.6864 819.297 83.9086 819.853 Q86.1308 820.409 88.6077 820.409 Q92.6123 820.409 94.9502 818.302 Q97.2882 816.196 97.2882 812.584 Q97.2882 808.973 94.9502 806.867 Q92.6123 804.76 88.6077 804.76 Q86.7327 804.76 84.8577 805.177 Q83.0058 805.594 81.0614 806.473 L81.0614 789.112 Z" fill="#000000" fill-rule="nonzero" fill-opacity="1" /><path clip-path="url(#clip200)" d="M111.177 817.793 L116.061 817.793 L116.061 823.672 L111.177 823.672 L111.177 817.793 Z" fill="#000000" fill-rule="nonzero" fill-opacity="1" /><path clip-path="url(#clip200)" d="M136.246 792.191 Q132.635 792.191 130.807 795.756 Q129.001 799.298 129.001 806.427 Q129.001 813.534 130.807 817.098 Q132.635 820.64 136.246 820.64 Q139.881 820.64 141.686 817.098 Q143.515 813.534 143.515 806.427 Q143.515 799.298 141.686 795.756 Q139.881 792.191 136.246 792.191 M136.246 788.487 Q142.056 788.487 145.112 793.094 Q148.191 797.677 148.191 806.427 Q148.191 815.154 145.112 819.76 Q142.056 824.344 136.246 824.344 Q130.436 824.344 127.357 819.76 Q124.302 815.154 124.302 806.427 Q124.302 797.677 127.357 793.094 Q130.436 788.487 136.246 788.487 Z" fill="#000000" fill-rule="nonzero" fill-opacity="1" /><path clip-path="url(#clip200)" d="M80.8299 466.616 L103.052 466.616 L103.052 468.607 L90.5058 501.176 L85.6216 501.176 L97.4271 470.551 L80.8299 470.551 L80.8299 466.616 Z" fill="#000000" fill-rule="nonzero" fill-opacity="1" /><path clip-path="url(#clip200)" d="M112.172 495.297 L117.057 495.297 L117.057 501.176 L112.172 501.176 L112.172 495.297 Z" fill="#000000" fill-rule="nonzero" fill-opacity="1" /><path clip-path="url(#clip200)" d="M127.288 466.616 L145.644 466.616 L145.644 470.551 L131.57 470.551 L131.57 479.024 Q132.589 478.676 133.607 478.514 Q134.626 478.329 135.644 478.329 Q141.431 478.329 144.811 481.501 Q148.191 484.672 148.191 490.088 Q148.191 495.667 144.718 498.769 Q141.246 501.848 134.927 501.848 Q132.751 501.848 130.482 501.477 Q128.237 501.107 125.83 500.366 L125.83 495.667 Q127.913 496.801 130.135 497.357 Q132.357 497.912 134.834 497.912 Q138.839 497.912 141.177 495.806 Q143.515 493.7 143.515 490.088 Q143.515 486.477 141.177 484.371 Q138.839 482.264 134.834 482.264 Q132.959 482.264 131.084 482.681 Q129.232 483.098 127.288 483.977 L127.288 466.616 Z" fill="#000000" fill-rule="nonzero" fill-opacity="1" /><path clip-path="url(#clip200)" d="M51.6634 174.745 L59.3023 174.745 L59.3023 148.38 L50.9921 150.046 L50.9921 145.787 L59.256 144.12 L63.9319 144.12 L63.9319 174.745 L71.5707 174.745 L71.5707 178.68 L51.6634 178.68 L51.6634 174.745 Z" fill="#000000" fill-rule="nonzero" fill-opacity="1" /><path clip-path="url(#clip200)" d="M91.0151 147.199 Q87.404 147.199 85.5753 150.764 Q83.7697 154.305 83.7697 161.435 Q83.7697 168.541 85.5753 172.106 Q87.404 175.648 91.0151 175.648 Q94.6493 175.648 96.4548 172.106 Q98.2835 168.541 98.2835 161.435 Q98.2835 154.305 96.4548 150.764 Q94.6493 147.199 91.0151 147.199 M91.0151 143.495 Q96.8252 143.495 99.8808 148.102 Q102.959 152.685 102.959 161.435 Q102.959 170.162 99.8808 174.768 Q96.8252 179.352 91.0151 179.352 Q85.2049 179.352 82.1262 174.768 Q79.0707 170.162 79.0707 161.435 Q79.0707 152.685 82.1262 148.102 Q85.2049 143.495 91.0151 143.495 Z" fill="#000000" fill-rule="nonzero" fill-opacity="1" /><path clip-path="url(#clip200)" d="M111.177 172.801 L116.061 172.801 L116.061 178.68 L111.177 178.68 L111.177 172.801 Z" fill="#000000" fill-rule="nonzero" fill-opacity="1" /><path clip-path="url(#clip200)" d="M136.246 147.199 Q132.635 147.199 130.807 150.764 Q129.001 154.305 129.001 161.435 Q129.001 168.541 130.807 172.106 Q132.635 175.648 136.246 175.648 Q139.881 175.648 141.686 172.106 Q143.515 168.541 143.515 161.435 Q143.515 154.305 141.686 150.764 Q139.881 147.199 136.246 147.199 M136.246 143.495 Q142.056 143.495 145.112 148.102 Q148.191 152.685 148.191 161.435 Q148.191 170.162 145.112 174.768 Q142.056 179.352 136.246 179.352 Q130.436 179.352 127.357 174.768 Q124.302 170.162 124.302 161.435 Q124.302 152.685 127.357 148.102 Q130.436 143.495 136.246 143.495 Z" fill="#000000" fill-rule="nonzero" fill-opacity="1" /><path clip-path="url(#clip201)" d="M245.565 1322.39 L266.023 1325.36 L286.481 1320.38 L306.94 1316.7 L327.398 1306.73 L347.856 1290.67 L368.314 1271.86 L388.772 1253.35 L409.23 1247.56 L429.689 1208.01 L450.147 1172.39 L470.605 1129.22 L491.063 1100.21 L511.521 1045.04 L531.979 970.296 L552.438 933.623 L572.896 929.61 L593.354 902.409 L613.812 819.471 L634.27 846.872 L654.728 921.182 L675.187 1008.52 L695.645 1113.81 L716.103 1202.66 L736.561 1278.44 L757.019 1315.94 L777.477 1332.5 L797.936 1347.8 L818.394 1363.83 L838.852 1369.76 L859.31 1369.18 L879.768 1374.17 L900.226 1382.01 L920.685 1382.69 L941.143 1384.02 L961.601 1387.03 L982.059 1385 L1002.52 1381.58 L1022.98 1379.84 L1043.43 1367.29 L1063.89 1351.21 L1084.35 1338.97 L1104.81 1332.38 L1125.27 1312.87 L1145.72 1304.86 L1166.18 1295.47 L1186.64 1279.05 L1207.1 1256.17 L1227.56 1219.59 L1248.02 1190.8 L1268.47 1169.78 L1288.93 1138.83 L1309.39 1102.94 L1329.85 1072.76 L1350.31 1039.71 L1370.76 1068.35 L1391.22 1143.03 L1411.68 1235.07 L1432.14 1274.86 L1452.6 1302.21 L1473.05 1317.92 L1493.51 1327.9 L1513.97 1343.5 L1534.43 1363.12 L1554.89 1375.26 L1575.35 1378.73 L1595.8 1379.93 L1616.26 1375.81 L1636.72 1374.99 L1657.18 1369.76 L1677.64 1375.2 L1698.09 1382.37 L1718.55 1396.3 L1739.01 1400.46 L1759.47 1405.73 L1779.93 1405.27 L1800.39 1407.37 L1820.84 1400.72 L1841.3 1397.71 L1861.76 1395.38 L1882.22 1391.69 L1902.68 1381.41 L1923.13 1375.42 L1943.59 1362.35 L1964.05 1345.32 L1984.51 1323.26 L2004.97 1301.16 L2025.43 1282.99 L2045.88 1258.06 L2066.34 1292.1 L2086.8 1317.07 L2107.26 1334.05 L2127.72 1332.48 L2148.17 1335.32 L2168.63 1330.63 L2189.09 1325.24 L2209.55 1339 L2230.01 1343.75 L2250.47 1351.21 L2270.92 1350.27 L2291.38 1351.04 L2291.38 642.625 L2270.92 402.629 L2250.47 213.302 L2230.01 145.41 L2209.55 87.9763 L2189.09 262.163 L2168.63 353.884 L2148.17 399.928 L2127.72 486.05 L2107.26 597.034 L2086.8 527.604 L2066.34 525.746 L2045.88 560.36 L2025.43 639.035 L2004.97 580.256 L1984.51 585.785 L1964.05 518.628 L1943.59 543.807 L1923.13 635.034 L1902.68 703.168 L1882.22 754.128 L1861.76 798.164 L1841.3 878.229 L1820.84 947.443 L1800.39 1002.68 L1779.93 1049.28 L1759.47 1099.65 L1739.01 1136.56 L1718.55 1162.78 L1698.09 1190.96 L1677.64 1217.43 L1657.18 1236.4 L1636.72 1247.49 L1616.26 1136.45 L1595.8 904.294 L1575.35 685.885 L1554.89 570.365 L1534.43 486.027 L1513.97 434.937 L1493.51 387.555 L1473.05 508.055 L1452.6 397.801 L1432.14 335.724 L1411.68 324.445 L1391.22 405.722 L1370.76 258.748 L1350.31 331.813 L1329.85 429.652 L1309.39 527.179 L1288.93 550.227 L1268.47 558.948 L1248.02 581.556 L1227.56 645.212 L1207.1 748.075 L1186.64 806.784 L1166.18 900.576 L1145.72 950.052 L1125.27 1016.55 L1104.81 1094.43 L1084.35 1141.64 L1063.89 1171.85 L1043.43 1200.82 L1022.98 1231.35 L1002.52 1248.59 L982.059 1271.61 L961.601 1287.79 L941.143 1302.08 L920.685 1313.41 L900.226 1315.2 L879.768 1315.76 L859.31 1286.55 L838.852 1214.87 L818.394 1142.19 L797.936 1044.2 L777.477 884.785 L757.019 742.07 L736.561 539.872 L716.103 413.808 L695.645 455.867 L675.187 455.416 L654.728 455.773 L634.27 437.768 L613.812 378.154 L593.354 431.105 L572.896 521.413 L552.438 595.041 L531.979 701.067 L511.521 760.374 L491.063 836.873 L470.605 902.581 L450.147 1000.23 L429.689 1087.97 L409.23 1126.06 L388.772 1170.31 L368.314 1197.77 L347.856 1232.34 L327.398 1254.56 L306.94 1265.69 L286.481 1283.32 L266.023 1302.5 L245.565 1322.39  Z" fill="#009af9" fill-rule="evenodd" fill-opacity="0.5"/>
<polyline clip-path="url(#clip201)" style="stroke:#009af9; stroke-linecap:round; stroke-linejoin:round; stroke-width:12; stroke-opacity:1; fill:none" points="245.565,1322.39 266.023,1317.87 286.481,1307.63 306.94,1299.49 327.398,1290.7 347.856,1267.91 368.314,1244.06 388.772,1219.61 409.23,1188.15 429.689,1159.99 450.147,1127.08 470.605,1074.42 491.063,1021.14 511.521,980.451 531.979,903.178 552.438,838.827 572.896,779.913 593.354,703.94 613.812,693.929 634.27,617.098 654.728,595.54 675.187,625.159 695.645,752.917 716.103,888.144 736.561,1031.55 757.019,1132.4 777.477,1207.47 797.936,1254.35 818.394,1302.55 838.852,1318.88 859.31,1333.82 879.768,1335.31 900.226,1345.49 920.685,1343.78 941.143,1339.48 961.601,1334.97 982.059,1332.59 1002.52,1319.57 1022.98,1306 1043.43,1280.49 1063.89,1257.42 1084.35,1233.22 1104.81,1195.5 1125.27,1168.19 1145.72,1106.35 1166.18,1073.11 1186.64,1051.06 1207.1,1020.47 1227.56,945.75 1248.02,925.226 1268.47,870.213 1288.93,766.104 1309.39,707.087 1329.85,776.988 1350.31,708.008 1370.76,643.359 1391.22,575.561 1411.68,722.453 1432.14,816.235 1452.6,1037.46 1473.05,1151.79 1493.51,1206.69 1513.97,1248.41 1534.43,1282.77 1554.89,1283 1575.35,1306.77 1595.8,1325.59 1616.26,1312.21 1636.72,1326.2 1657.18,1334.64 1677.64,1334.18 1698.09,1334.06 1718.55,1332.41 1739.01,1322.29 1759.47,1313.69 1779.93,1304.16 1800.39,1288.54 1820.84,1266.84 1841.3,1233.66 1861.76,1204.76 1882.22,1172.79 1902.68,1148 1923.13,1113.87 1943.59,1070.43 1964.05,1048.9 1984.51,1027.37 2004.97,977.011 2025.43,955.479 2045.88,975.571 2066.34,976.871 2086.8,942.842 2107.26,900.52 2127.72,890 2148.17,921.896 2168.63,951.586 2189.09,948.989 2209.55,1022.38 2230.01,1133.48 2250.47,1207.84 2270.92,1222.73 2291.38,1220.65 "/>
<path clip-path="url(#clip201)" d="M245.565 1322.39 L266.023 1353.64 L286.481 1373.02 L306.94 1389.96 L327.398 1402.86 L347.856 1409.33 L368.314 1417.54 L388.772 1421.83 L409.23 1426.37 L429.689 1429.17 L450.147 1430.97 L470.605 1431.97 L491.063 1432.46 L511.521 1432.7 L531.979 1430.86 L552.438 1429.06 L572.896 1427.54 L593.354 1423.31 L613.812 1417.16 L634.27 1404.1 L654.728 1387.61 L675.187 1358.37 L695.645 1291.46 L716.103 1211.64 L736.561 1084.94 L757.019 1075.14 L777.477 1126.12 L797.936 1184.92 L818.394 1237.52 L838.852 1284.77 L859.31 1314.58 L879.768 1345.26 L900.226 1365.79 L920.685 1383.62 L941.143 1397.25 L961.601 1410.54 L982.059 1416.18 L1002.52 1421.93 L1022.98 1427.21 L1043.43 1431.32 L1063.89 1433.9 L1084.35 1436.53 L1104.81 1438.28 L1125.27 1440.45 L1145.72 1440.33 L1166.18 1440.48 L1186.64 1440.97 L1207.1 1441.02 L1227.56 1441.62 L1248.02 1442.25 L1268.47 1442.58 L1288.93 1441.71 L1309.39 1440.18 L1329.85 1437.2 L1350.31 1435.33 L1370.76 1433.14 L1391.22 1428.4 L1411.68 1424.12 L1432.14 1415.84 L1452.6 1398.85 L1473.05 1369.54 L1493.51 1320.33 L1513.97 1286.24 L1534.43 1271.2 L1554.89 1303 L1575.35 1331.13 L1595.8 1353.77 L1616.26 1369.64 L1636.72 1380.53 L1657.18 1392.03 L1677.64 1399.54 L1698.09 1405.63 L1718.55 1409.99 L1739.01 1416.05 L1759.47 1423.21 L1779.93 1427.31 L1800.39 1430.07 L1820.84 1432.75 L1841.3 1435.57 L1861.76 1437.09 L1882.22 1438.22 L1902.68 1439.08 L1923.13 1440.05 L1943.59 1440.16 L1964.05 1441.67 L1984.51 1442.49 L2004.97 1442.83 L2025.43 1443.7 L2045.88 1444.25 L2066.34 1444.46 L2086.8 1444.54 L2107.26 1445.39 L2127.72 1445.72 L2148.17 1445.63 L2168.63 1444.66 L2189.09 1442.52 L2209.55 1436.91 L2230.01 1421.82 L2250.47 1401.06 L2270.92 1410.83 L2291.38 1418.82 L2291.38 616.035 L2270.92 619.507 L2250.47 778.738 L2230.01 834.01 L2209.55 846.871 L2189.09 913.804 L2168.63 938.415 L2148.17 868.767 L2127.72 899.205 L2107.26 938.845 L2086.8 938.673 L2066.34 870.4 L2045.88 835.502 L2025.43 867.291 L2004.97 965.073 L1984.51 1098.44 L1964.05 1175.15 L1943.59 1245.28 L1923.13 1299.56 L1902.68 1336.38 L1882.22 1365.91 L1861.76 1375.03 L1841.3 1368.67 L1820.84 1347.88 L1800.39 1324.87 L1779.93 1280.59 L1759.47 1232.62 L1739.01 1161.51 L1718.55 1094.17 L1698.09 964.53 L1677.64 868.126 L1657.18 789.782 L1636.72 738.519 L1616.26 674.47 L1595.8 705.153 L1575.35 741.515 L1554.89 763.835 L1534.43 771.105 L1513.97 771.044 L1493.51 828.279 L1473.05 749.395 L1452.6 660.902 L1432.14 694.974 L1411.68 836.139 L1391.22 840.403 L1370.76 827.351 L1350.31 874.438 L1329.85 961.697 L1309.39 1081.78 L1288.93 1188.95 L1268.47 1276.95 L1248.02 1336.48 L1227.56 1369.91 L1207.1 1388.91 L1186.64 1401.83 L1166.18 1404.5 L1145.72 1406.37 L1125.27 1402.56 L1104.81 1401.36 L1084.35 1393.8 L1063.89 1384.46 L1043.43 1369.35 L1022.98 1351.37 L1002.52 1333.17 L982.059 1289.4 L961.601 1234.56 L941.143 1182.54 L920.685 1094.53 L900.226 996.448 L879.768 937.637 L859.31 905.436 L838.852 823.145 L818.394 771.47 L797.936 695.345 L777.477 617.141 L757.019 714.792 L736.561 776.808 L716.103 781.944 L695.645 833.839 L675.187 889.917 L654.728 939.826 L634.27 995.695 L613.812 1104.94 L593.354 1205.29 L572.896 1298.11 L552.438 1346.04 L531.979 1372.95 L511.521 1390.86 L491.063 1404.04 L470.605 1409.19 L450.147 1409.64 L429.689 1410.22 L409.23 1407.01 L388.772 1403.66 L368.314 1395.2 L347.856 1391.19 L327.398 1378.66 L306.94 1365.59 L286.481 1356.18 L266.023 1333.99 L245.565 1322.39  Z" fill="#e26f46" fill-rule="evenodd" fill-opacity="0.5"/>
<polyline clip-path="url(#clip201)" style="stroke:#e26f46; stroke-linecap:round; stroke-linejoin:round; stroke-width:12; stroke-opacity:1; fill:none" points="245.565,1322.39 266.023,1344.99 286.481,1364.91 306.94,1376.98 327.398,1389.27 347.856,1397.9 368.314,1406.15 388.772,1411.44 409.23,1415.54 429.689,1418.59 450.147,1420.28 470.605,1422.98 491.063,1422.98 511.521,1421.18 531.979,1417.72 552.438,1412.39 572.896,1402.64 593.354,1382.8 613.812,1352.35 634.27,1306.36 654.728,1243.47 675.187,1175.84 695.645,1060.78 716.103,1001.7 736.561,950.239 757.019,911.601 777.477,890.855 797.936,916.85 818.394,991.604 838.852,1093.67 859.31,1149.63 879.768,1216.92 900.226,1263.48 920.685,1301.53 941.143,1330.66 961.601,1345.71 982.059,1364.9 1002.52,1377.74 1022.98,1391.36 1043.43,1399.33 1063.89,1405.23 1084.35,1412.02 1104.81,1418.5 1125.27,1421.41 1145.72,1423.03 1166.18,1426.52 1186.64,1427.92 1207.1,1428.93 1227.56,1429.6 1248.02,1427.69 1268.47,1425.99 1288.93,1417.78 1309.39,1404.46 1329.85,1386.42 1350.31,1353.41 1370.76,1270.1 1391.22,1133.12 1411.68,1008.42 1432.14,985.208 1452.6,1063.16 1473.05,1039.66 1493.51,1012.45 1513.97,1079.05 1534.43,1074.02 1554.89,1150.07 1575.35,1169.58 1595.8,1233.08 1616.26,1279.78 1636.72,1317.71 1657.18,1345.83 1677.64,1362.11 1698.09,1375.88 1718.55,1390.3 1739.01,1400.28 1759.47,1405 1779.93,1403.28 1800.39,1407.45 1820.84,1409.36 1841.3,1410.32 1861.76,1412.52 1882.22,1421.3 1902.68,1427 1923.13,1430.29 1943.59,1429.82 1964.05,1431.45 1984.51,1431.21 2004.97,1431.18 2025.43,1429.48 2045.88,1424.65 2066.34,1418.17 2086.8,1406.27 2107.26,1391.59 2127.72,1362.78 2148.17,1313.81 2168.63,1236.79 2189.09,1245.27 2209.55,1256.69 2230.01,1164.5 2250.47,1208.99 2270.92,1138.45 2291.38,1114.49 "/>
</svg>
