<?xml version="1.0" encoding="utf-8"?>
<svg xmlns="http://www.w3.org/2000/svg" xmlns:xlink="http://www.w3.org/1999/xlink" width="600" height="400" viewBox="0 0 2400 1600">
<defs>
  <clipPath id="clip980">
    <rect x="0" y="0" width="2400" height="1600"/>
  </clipPath>
</defs>
<path clip-path="url(#clip980)" d="M0 1600 L2400 1600 L2400 0 L0 0  Z" fill="#ffffff" fill-rule="evenodd" fill-opacity="1"/>
<defs>
  <clipPath id="clip981">
    <rect x="480" y="0" width="1681" height="1600"/>
  </clipPath>
</defs>
<path clip-path="url(#clip980)" d="M184.191 1486.45 L2352.76 1486.45 L2352.76 47.2441 L184.191 47.2441  Z" fill="#ffffff" fill-rule="evenodd" fill-opacity="1"/>
<defs>
  <clipPath id="clip982">
    <rect x="184" y="47" width="2170" height="1440"/>
  </clipPath>
</defs>
<polyline clip-path="url(#clip982)" style="stroke:#000000; stroke-linecap:round; stroke-linejoin:round; stroke-width:2; stroke-opacity:0.1; fill:none" points="245.565,1486.45 245.565,47.2441 "/>
<polyline clip-path="url(#clip982)" style="stroke:#000000; stroke-linecap:round; stroke-linejoin:round; stroke-width:2; stroke-opacity:0.1; fill:none" points="757.019,1486.45 757.019,47.2441 "/>
<polyline clip-path="url(#clip982)" style="stroke:#000000; stroke-linecap:round; stroke-linejoin:round; stroke-width:2; stroke-opacity:0.1; fill:none" points="1268.47,1486.45 1268.47,47.2441 "/>
<polyline clip-path="url(#clip982)" style="stroke:#000000; stroke-linecap:round; stroke-linejoin:round; stroke-width:2; stroke-opacity:0.1; fill:none" points="1779.93,1486.45 1779.93,47.2441 "/>
<polyline clip-path="url(#clip982)" style="stroke:#000000; stroke-linecap:round; stroke-linejoin:round; stroke-width:2; stroke-opacity:0.1; fill:none" points="2291.38,1486.45 2291.38,47.2441 "/>
<polyline clip-path="url(#clip982)" style="stroke:#000000; stroke-linecap:round; stroke-linejoin:round; stroke-width:2; stroke-opacity:0.1; fill:none" points="184.191,1447.71 2352.76,1447.71 "/>
<polyline clip-path="url(#clip982)" style="stroke:#000000; stroke-linecap:round; stroke-linejoin:round; stroke-width:2; stroke-opacity:0.1; fill:none" points="184.191,1117.78 2352.76,1117.78 "/>
<polyline clip-path="url(#clip982)" style="stroke:#000000; stroke-linecap:round; stroke-linejoin:round; stroke-width:2; stroke-opacity:0.1; fill:none" points="184.191,787.859 2352.76,787.859 "/>
<polyline clip-path="url(#clip982)" style="stroke:#000000; stroke-linecap:round; stroke-linejoin:round; stroke-width:2; stroke-opacity:0.1; fill:none" points="184.191,457.936 2352.76,457.936 "/>
<polyline clip-path="url(#clip982)" style="stroke:#000000; stroke-linecap:round; stroke-linejoin:round; stroke-width:2; stroke-opacity:0.1; fill:none" points="184.191,128.012 2352.76,128.012 "/>
<polyline clip-path="url(#clip980)" style="stroke:#000000; stroke-linecap:round; stroke-linejoin:round; stroke-width:4; stroke-opacity:1; fill:none" points="184.191,1486.45 2352.76,1486.45 "/>
<polyline clip-path="url(#clip980)" style="stroke:#000000; stroke-linecap:round; stroke-linejoin:round; stroke-width:4; stroke-opacity:1; fill:none" points="245.565,1486.45 245.565,1467.55 "/>
<polyline clip-path="url(#clip980)" style="stroke:#000000; stroke-linecap:round; stroke-linejoin:round; stroke-width:4; stroke-opacity:1; fill:none" points="757.019,1486.45 757.019,1467.55 "/>
<polyline clip-path="url(#clip980)" style="stroke:#000000; stroke-linecap:round; stroke-linejoin:round; stroke-width:4; stroke-opacity:1; fill:none" points="1268.47,1486.45 1268.47,1467.55 "/>
<polyline clip-path="url(#clip980)" style="stroke:#000000; stroke-linecap:round; stroke-linejoin:round; stroke-width:4; stroke-opacity:1; fill:none" points="1779.93,1486.45 1779.93,1467.55 "/>
<polyline clip-path="url(#clip980)" style="stroke:#000000; stroke-linecap:round; stroke-linejoin:round; stroke-width:4; stroke-opacity:1; fill:none" points="2291.38,1486.45 2291.38,1467.55 "/>
<path clip-path="url(#clip980)" d="M222.95 1517.37 Q219.338 1517.37 217.51 1520.93 Q215.704 1524.47 215.704 1531.6 Q215.704 1538.71 217.51 1542.27 Q219.338 1545.82 222.95 1545.82 Q226.584 1545.82 228.389 1542.27 Q230.218 1538.71 230.218 1531.6 Q230.218 1524.47 228.389 1520.93 Q226.584 1517.37 222.95 1517.37 M222.95 1513.66 Q228.76 1513.66 231.815 1518.27 Q234.894 1522.85 234.894 1531.6 Q234.894 1540.33 231.815 1544.94 Q228.76 1549.52 222.95 1549.52 Q217.139 1549.52 214.061 1544.94 Q211.005 1540.33 211.005 1531.6 Q211.005 1522.85 214.061 1518.27 Q217.139 1513.66 222.95 1513.66 Z" fill="#000000" fill-rule="nonzero" fill-opacity="1" /><path clip-path="url(#clip980)" d="M243.111 1542.97 L247.996 1542.97 L247.996 1548.85 L243.111 1548.85 L243.111 1542.97 Z" fill="#000000" fill-rule="nonzero" fill-opacity="1" /><path clip-path="url(#clip980)" d="M268.181 1517.37 Q264.57 1517.37 262.741 1520.93 Q260.935 1524.47 260.935 1531.6 Q260.935 1538.71 262.741 1542.27 Q264.57 1545.82 268.181 1545.82 Q271.815 1545.82 273.621 1542.27 Q275.449 1538.71 275.449 1531.6 Q275.449 1524.47 273.621 1520.93 Q271.815 1517.37 268.181 1517.37 M268.181 1513.66 Q273.991 1513.66 277.046 1518.27 Q280.125 1522.85 280.125 1531.6 Q280.125 1540.33 277.046 1544.94 Q273.991 1549.52 268.181 1549.52 Q262.371 1549.52 259.292 1544.94 Q256.236 1540.33 256.236 1531.6 Q256.236 1522.85 259.292 1518.27 Q262.371 1513.66 268.181 1513.66 Z" fill="#000000" fill-rule="nonzero" fill-opacity="1" /><path clip-path="url(#clip980)" d="M728.755 1544.91 L745.075 1544.91 L745.075 1548.85 L723.131 1548.85 L723.131 1544.91 Q725.793 1542.16 730.376 1537.53 Q734.982 1532.88 736.163 1531.53 Q738.408 1529.01 739.288 1527.27 Q740.191 1525.51 740.191 1523.82 Q740.191 1521.07 738.246 1519.33 Q736.325 1517.6 733.223 1517.6 Q731.024 1517.6 728.57 1518.36 Q726.14 1519.13 723.362 1520.68 L723.362 1515.95 Q726.186 1514.82 728.64 1514.24 Q731.093 1513.66 733.13 1513.66 Q738.501 1513.66 741.695 1516.35 Q744.89 1519.03 744.89 1523.52 Q744.89 1525.65 744.079 1527.57 Q743.292 1529.47 741.186 1532.07 Q740.607 1532.74 737.505 1535.95 Q734.404 1539.15 728.755 1544.91 Z" fill="#000000" fill-rule="nonzero" fill-opacity="1" /><path clip-path="url(#clip980)" d="M754.89 1542.97 L759.774 1542.97 L759.774 1548.85 L754.89 1548.85 L754.89 1542.97 Z" fill="#000000" fill-rule="nonzero" fill-opacity="1" /><path clip-path="url(#clip980)" d="M770.005 1514.29 L788.362 1514.29 L788.362 1518.22 L774.288 1518.22 L774.288 1526.7 Q775.306 1526.35 776.325 1526.19 Q777.343 1526 778.362 1526 Q784.149 1526 787.528 1529.17 Q790.908 1532.34 790.908 1537.76 Q790.908 1543.34 787.436 1546.44 Q783.964 1549.52 777.644 1549.52 Q775.468 1549.52 773.2 1549.15 Q770.954 1548.78 768.547 1548.04 L768.547 1543.34 Q770.63 1544.47 772.852 1545.03 Q775.075 1545.58 777.552 1545.58 Q781.556 1545.58 783.894 1543.48 Q786.232 1541.37 786.232 1537.76 Q786.232 1534.15 783.894 1532.04 Q781.556 1529.94 777.552 1529.94 Q775.677 1529.94 773.802 1530.35 Q771.95 1530.77 770.005 1531.65 L770.005 1514.29 Z" fill="#000000" fill-rule="nonzero" fill-opacity="1" /><path clip-path="url(#clip980)" d="M1235.64 1514.29 L1253.99 1514.29 L1253.99 1518.22 L1239.92 1518.22 L1239.92 1526.7 Q1240.94 1526.35 1241.96 1526.19 Q1242.98 1526 1243.99 1526 Q1249.78 1526 1253.16 1529.17 Q1256.54 1532.34 1256.54 1537.76 Q1256.54 1543.34 1253.07 1546.44 Q1249.6 1549.52 1243.28 1549.52 Q1241.1 1549.52 1238.83 1549.15 Q1236.59 1548.78 1234.18 1548.04 L1234.18 1543.34 Q1236.26 1544.47 1238.49 1545.03 Q1240.71 1545.58 1243.18 1545.58 Q1247.19 1545.58 1249.53 1543.48 Q1251.86 1541.37 1251.86 1537.76 Q1251.86 1534.15 1249.53 1532.04 Q1247.19 1529.94 1243.18 1529.94 Q1241.31 1529.94 1239.43 1530.35 Q1237.58 1530.77 1235.64 1531.65 L1235.64 1514.29 Z" fill="#000000" fill-rule="nonzero" fill-opacity="1" /><path clip-path="url(#clip980)" d="M1265.75 1542.97 L1270.64 1542.97 L1270.64 1548.85 L1265.75 1548.85 L1265.75 1542.97 Z" fill="#000000" fill-rule="nonzero" fill-opacity="1" /><path clip-path="url(#clip980)" d="M1290.82 1517.37 Q1287.21 1517.37 1285.38 1520.93 Q1283.58 1524.47 1283.58 1531.6 Q1283.58 1538.71 1285.38 1542.27 Q1287.21 1545.82 1290.82 1545.82 Q1294.46 1545.82 1296.26 1542.27 Q1298.09 1538.71 1298.09 1531.6 Q1298.09 1524.47 1296.26 1520.93 Q1294.46 1517.37 1290.82 1517.37 M1290.82 1513.66 Q1296.63 1513.66 1299.69 1518.27 Q1302.77 1522.85 1302.77 1531.6 Q1302.77 1540.33 1299.69 1544.94 Q1296.63 1549.52 1290.82 1549.52 Q1285.01 1549.52 1281.93 1544.94 Q1278.88 1540.33 1278.88 1531.6 Q1278.88 1522.85 1281.93 1518.27 Q1285.01 1513.66 1290.82 1513.66 Z" fill="#000000" fill-rule="nonzero" fill-opacity="1" /><path clip-path="url(#clip980)" d="M1746.25 1514.29 L1768.47 1514.29 L1768.47 1516.28 L1755.92 1548.85 L1751.04 1548.85 L1762.84 1518.22 L1746.25 1518.22 L1746.25 1514.29 Z" fill="#000000" fill-rule="nonzero" fill-opacity="1" /><path clip-path="url(#clip980)" d="M1777.59 1542.97 L1782.47 1542.97 L1782.47 1548.85 L1777.59 1548.85 L1777.59 1542.97 Z" fill="#000000" fill-rule="nonzero" fill-opacity="1" /><path clip-path="url(#clip980)" d="M1792.71 1514.29 L1811.06 1514.29 L1811.06 1518.22 L1796.99 1518.22 L1796.99 1526.7 Q1798.01 1526.35 1799.02 1526.19 Q1800.04 1526 1801.06 1526 Q1806.85 1526 1810.23 1529.17 Q1813.61 1532.34 1813.61 1537.76 Q1813.61 1543.34 1810.14 1546.44 Q1806.66 1549.52 1800.34 1549.52 Q1798.17 1549.52 1795.9 1549.15 Q1793.65 1548.78 1791.25 1548.04 L1791.25 1543.34 Q1793.33 1544.47 1795.55 1545.03 Q1797.77 1545.58 1800.25 1545.58 Q1804.26 1545.58 1806.59 1543.48 Q1808.93 1541.37 1808.93 1537.76 Q1808.93 1534.15 1806.59 1532.04 Q1804.26 1529.94 1800.25 1529.94 Q1798.38 1529.94 1796.5 1530.35 Q1794.65 1530.77 1792.71 1531.65 L1792.71 1514.29 Z" fill="#000000" fill-rule="nonzero" fill-opacity="1" /><path clip-path="url(#clip980)" d="M2243.45 1544.91 L2251.09 1544.91 L2251.09 1518.55 L2242.78 1520.21 L2242.78 1515.95 L2251.05 1514.29 L2255.72 1514.29 L2255.72 1544.91 L2263.36 1544.91 L2263.36 1548.85 L2243.45 1548.85 L2243.45 1544.91 Z" fill="#000000" fill-rule="nonzero" fill-opacity="1" /><path clip-path="url(#clip980)" d="M2282.81 1517.37 Q2279.19 1517.37 2277.37 1520.93 Q2275.56 1524.47 2275.56 1531.6 Q2275.56 1538.71 2277.37 1542.27 Q2279.19 1545.82 2282.81 1545.82 Q2286.44 1545.82 2288.24 1542.27 Q2290.07 1538.71 2290.07 1531.6 Q2290.07 1524.47 2288.24 1520.93 Q2286.44 1517.37 2282.81 1517.37 M2282.81 1513.66 Q2288.62 1513.66 2291.67 1518.27 Q2294.75 1522.85 2294.75 1531.6 Q2294.75 1540.33 2291.67 1544.94 Q2288.62 1549.52 2282.81 1549.52 Q2276.99 1549.52 2273.92 1544.94 Q2270.86 1540.33 2270.86 1531.6 Q2270.86 1522.85 2273.92 1518.27 Q2276.99 1513.66 2282.81 1513.66 Z" fill="#000000" fill-rule="nonzero" fill-opacity="1" /><path clip-path="url(#clip980)" d="M2302.97 1542.97 L2307.85 1542.97 L2307.85 1548.85 L2302.97 1548.85 L2302.97 1542.97 Z" fill="#000000" fill-rule="nonzero" fill-opacity="1" /><path clip-path="url(#clip980)" d="M2328.04 1517.37 Q2324.43 1517.37 2322.6 1520.93 Q2320.79 1524.47 2320.79 1531.6 Q2320.79 1538.71 2322.6 1542.27 Q2324.43 1545.82 2328.04 1545.82 Q2331.67 1545.82 2333.48 1542.27 Q2335.3 1538.71 2335.3 1531.6 Q2335.3 1524.47 2333.48 1520.93 Q2331.67 1517.37 2328.04 1517.37 M2328.04 1513.66 Q2333.85 1513.66 2336.9 1518.27 Q2339.98 1522.85 2339.98 1531.6 Q2339.98 1540.33 2336.9 1544.94 Q2333.85 1549.52 2328.04 1549.52 Q2322.23 1549.52 2319.15 1544.94 Q2316.09 1540.33 2316.09 1531.6 Q2316.09 1522.85 2319.15 1518.27 Q2322.23 1513.66 2328.04 1513.66 Z" fill="#000000" fill-rule="nonzero" fill-opacity="1" /><polyline clip-path="url(#clip980)" style="stroke:#000000; stroke-linecap:round; stroke-linejoin:round; stroke-width:4; stroke-opacity:1; fill:none" points="184.191,1486.45 184.191,47.2441 "/>
<polyline clip-path="url(#clip980)" style="stroke:#000000; stroke-linecap:round; stroke-linejoin:round; stroke-width:4; stroke-opacity:1; fill:none" points="184.191,1447.71 203.088,1447.71 "/>
<polyline clip-path="url(#clip980)" style="stroke:#000000; stroke-linecap:round; stroke-linejoin:round; stroke-width:4; stroke-opacity:1; fill:none" points="184.191,1117.78 203.088,1117.78 "/>
<polyline clip-path="url(#clip980)" style="stroke:#000000; stroke-linecap:round; stroke-linejoin:round; stroke-width:4; stroke-opacity:1; fill:none" points="184.191,787.859 203.088,787.859 "/>
<polyline clip-path="url(#clip980)" style="stroke:#000000; stroke-linecap:round; stroke-linejoin:round; stroke-width:4; stroke-opacity:1; fill:none" points="184.191,457.936 203.088,457.936 "/>
<polyline clip-path="url(#clip980)" style="stroke:#000000; stroke-linecap:round; stroke-linejoin:round; stroke-width:4; stroke-opacity:1; fill:none" points="184.191,128.012 203.088,128.012 "/>
<path clip-path="url(#clip980)" d="M91.0151 1433.51 Q87.404 1433.51 85.5753 1437.07 Q83.7697 1440.61 83.7697 1447.74 Q83.7697 1454.85 85.5753 1458.41 Q87.404 1461.95 91.0151 1461.95 Q94.6493 1461.95 96.4548 1458.41 Q98.2835 1454.85 98.2835 1447.74 Q98.2835 1440.61 96.4548 1437.07 Q94.6493 1433.51 91.0151 1433.51 M91.0151 1429.8 Q96.8252 1429.8 99.8808 1434.41 Q102.959 1438.99 102.959 1447.74 Q102.959 1456.47 99.8808 1461.07 Q96.8252 1465.66 91.0151 1465.66 Q85.2049 1465.66 82.1262 1461.07 Q79.0707 1456.47 79.0707 1447.74 Q79.0707 1438.99 82.1262 1434.41 Q85.2049 1429.8 91.0151 1429.8 Z" fill="#000000" fill-rule="nonzero" fill-opacity="1" /><path clip-path="url(#clip980)" d="M111.177 1459.11 L116.061 1459.11 L116.061 1464.99 L111.177 1464.99 L111.177 1459.11 Z" fill="#000000" fill-rule="nonzero" fill-opacity="1" /><path clip-path="url(#clip980)" d="M136.246 1433.51 Q132.635 1433.51 130.807 1437.07 Q129.001 1440.61 129.001 1447.74 Q129.001 1454.85 130.807 1458.41 Q132.635 1461.95 136.246 1461.95 Q139.881 1461.95 141.686 1458.41 Q143.515 1454.85 143.515 1447.74 Q143.515 1440.61 141.686 1437.07 Q139.881 1433.51 136.246 1433.51 M136.246 1429.8 Q142.056 1429.8 145.112 1434.41 Q148.191 1438.99 148.191 1447.74 Q148.191 1456.47 145.112 1461.07 Q142.056 1465.66 136.246 1465.66 Q130.436 1465.66 127.357 1461.07 Q124.302 1456.47 124.302 1447.74 Q124.302 1438.99 127.357 1434.41 Q130.436 1429.8 136.246 1429.8 Z" fill="#000000" fill-rule="nonzero" fill-opacity="1" /><path clip-path="url(#clip980)" d="M86.0382 1131.13 L102.358 1131.13 L102.358 1135.06 L80.4133 1135.06 L80.4133 1131.13 Q83.0753 1128.37 87.6586 1123.74 Q92.2651 1119.09 93.4456 1117.75 Q95.691 1115.23 96.5706 1113.49 Q97.4734 1111.73 97.4734 1110.04 Q97.4734 1107.29 95.5289 1105.55 Q93.6076 1103.81 90.5058 1103.81 Q88.3067 1103.81 85.8531 1104.58 Q83.4225 1105.34 80.6447 1106.89 L80.6447 1102.17 Q83.4688 1101.04 85.9225 1100.46 Q88.3762 1099.88 90.4132 1099.88 Q95.7836 1099.88 98.978 1102.56 Q102.172 1105.25 102.172 1109.74 Q102.172 1111.87 101.362 1113.79 Q100.575 1115.69 98.4687 1118.28 Q97.89 1118.95 94.7882 1122.17 Q91.6864 1125.36 86.0382 1131.13 Z" fill="#000000" fill-rule="nonzero" fill-opacity="1" /><path clip-path="url(#clip980)" d="M112.172 1129.18 L117.057 1129.18 L117.057 1135.06 L112.172 1135.06 L112.172 1129.18 Z" fill="#000000" fill-rule="nonzero" fill-opacity="1" /><path clip-path="url(#clip980)" d="M127.288 1100.5 L145.644 1100.5 L145.644 1104.44 L131.57 1104.44 L131.57 1112.91 Q132.589 1112.56 133.607 1112.4 Q134.626 1112.22 135.644 1112.22 Q141.431 1112.22 144.811 1115.39 Q148.191 1118.56 148.191 1123.98 Q148.191 1129.55 144.718 1132.66 Q141.246 1135.73 134.927 1135.73 Q132.751 1135.73 130.482 1135.36 Q128.237 1134.99 125.83 1134.25 L125.83 1129.55 Q127.913 1130.69 130.135 1131.24 Q132.357 1131.8 134.834 1131.8 Q138.839 1131.8 141.177 1129.69 Q143.515 1127.59 143.515 1123.98 Q143.515 1120.36 141.177 1118.26 Q138.839 1116.15 134.834 1116.15 Q132.959 1116.15 131.084 1116.57 Q129.232 1116.98 127.288 1117.86 L127.288 1100.5 Z" fill="#000000" fill-rule="nonzero" fill-opacity="1" /><path clip-path="url(#clip980)" d="M81.0614 770.579 L99.4178 770.579 L99.4178 774.515 L85.3438 774.515 L85.3438 782.987 Q86.3623 782.64 87.3808 782.478 Q88.3993 782.292 89.4178 782.292 Q95.2049 782.292 98.5845 785.464 Q101.964 788.635 101.964 794.052 Q101.964 799.63 98.4919 802.732 Q95.0197 805.811 88.7003 805.811 Q86.5243 805.811 84.2558 805.44 Q82.0105 805.07 79.6031 804.329 L79.6031 799.63 Q81.6864 800.764 83.9086 801.32 Q86.1308 801.876 88.6077 801.876 Q92.6123 801.876 94.9502 799.769 Q97.2882 797.663 97.2882 794.052 Q97.2882 790.44 94.9502 788.334 Q92.6123 786.228 88.6077 786.228 Q86.7327 786.228 84.8577 786.644 Q83.0058 787.061 81.0614 787.94 L81.0614 770.579 Z" fill="#000000" fill-rule="nonzero" fill-opacity="1" /><path clip-path="url(#clip980)" d="M111.177 799.26 L116.061 799.26 L116.061 805.139 L111.177 805.139 L111.177 799.26 Z" fill="#000000" fill-rule="nonzero" fill-opacity="1" /><path clip-path="url(#clip980)" d="M136.246 773.658 Q132.635 773.658 130.807 777.223 Q129.001 780.765 129.001 787.894 Q129.001 795.001 130.807 798.565 Q132.635 802.107 136.246 802.107 Q139.881 802.107 141.686 798.565 Q143.515 795.001 143.515 787.894 Q143.515 780.765 141.686 777.223 Q139.881 773.658 136.246 773.658 M136.246 769.954 Q142.056 769.954 145.112 774.561 Q148.191 779.144 148.191 787.894 Q148.191 796.621 145.112 801.227 Q142.056 805.811 136.246 805.811 Q130.436 805.811 127.357 801.227 Q124.302 796.621 124.302 787.894 Q124.302 779.144 127.357 774.561 Q130.436 769.954 136.246 769.954 Z" fill="#000000" fill-rule="nonzero" fill-opacity="1" /><path clip-path="url(#clip980)" d="M80.8299 440.656 L103.052 440.656 L103.052 442.647 L90.5058 475.216 L85.6216 475.216 L97.4271 444.591 L80.8299 444.591 L80.8299 440.656 Z" fill="#000000" fill-rule="nonzero" fill-opacity="1" /><path clip-path="url(#clip980)" d="M112.172 469.336 L117.057 469.336 L117.057 475.216 L112.172 475.216 L112.172 469.336 Z" fill="#000000" fill-rule="nonzero" fill-opacity="1" /><path clip-path="url(#clip980)" d="M127.288 440.656 L145.644 440.656 L145.644 444.591 L131.57 444.591 L131.57 453.063 Q132.589 452.716 133.607 452.554 Q134.626 452.369 135.644 452.369 Q141.431 452.369 144.811 455.54 Q148.191 458.711 148.191 464.128 Q148.191 469.707 144.718 472.808 Q141.246 475.887 134.927 475.887 Q132.751 475.887 130.482 475.517 Q128.237 475.146 125.83 474.406 L125.83 469.707 Q127.913 470.841 130.135 471.396 Q132.357 471.952 134.834 471.952 Q138.839 471.952 141.177 469.846 Q143.515 467.739 143.515 464.128 Q143.515 460.517 141.177 458.41 Q138.839 456.304 134.834 456.304 Q132.959 456.304 131.084 456.721 Q129.232 457.137 127.288 458.017 L127.288 440.656 Z" fill="#000000" fill-rule="nonzero" fill-opacity="1" /><path clip-path="url(#clip980)" d="M51.6634 141.357 L59.3023 141.357 L59.3023 114.991 L50.9921 116.658 L50.9921 112.399 L59.256 110.732 L63.9319 110.732 L63.9319 141.357 L71.5707 141.357 L71.5707 145.292 L51.6634 145.292 L51.6634 141.357 Z" fill="#000000" fill-rule="nonzero" fill-opacity="1" /><path clip-path="url(#clip980)" d="M91.0151 113.811 Q87.404 113.811 85.5753 117.376 Q83.7697 120.917 83.7697 128.047 Q83.7697 135.153 85.5753 138.718 Q87.404 142.26 91.0151 142.26 Q94.6493 142.26 96.4548 138.718 Q98.2835 135.153 98.2835 128.047 Q98.2835 120.917 96.4548 117.376 Q94.6493 113.811 91.0151 113.811 M91.0151 110.107 Q96.8252 110.107 99.8808 114.714 Q102.959 119.297 102.959 128.047 Q102.959 136.774 99.8808 141.38 Q96.8252 145.964 91.0151 145.964 Q85.2049 145.964 82.1262 141.38 Q79.0707 136.774 79.0707 128.047 Q79.0707 119.297 82.1262 114.714 Q85.2049 110.107 91.0151 110.107 Z" fill="#000000" fill-rule="nonzero" fill-opacity="1" /><path clip-path="url(#clip980)" d="M111.177 139.413 L116.061 139.413 L116.061 145.292 L111.177 145.292 L111.177 139.413 Z" fill="#000000" fill-rule="nonzero" fill-opacity="1" /><path clip-path="url(#clip980)" d="M136.246 113.811 Q132.635 113.811 130.807 117.376 Q129.001 120.917 129.001 128.047 Q129.001 135.153 130.807 138.718 Q132.635 142.26 136.246 142.26 Q139.881 142.26 141.686 138.718 Q143.515 135.153 143.515 128.047 Q143.515 120.917 141.686 117.376 Q139.881 113.811 136.246 113.811 M136.246 110.107 Q142.056 110.107 145.112 114.714 Q148.191 119.297 148.191 128.047 Q148.191 136.774 145.112 141.38 Q142.056 145.964 136.246 145.964 Q130.436 145.964 127.357 141.38 Q124.302 136.774 124.302 128.047 Q124.302 119.297 127.357 114.714 Q130.436 110.107 136.246 110.107 Z" fill="#000000" fill-rule="nonzero" fill-opacity="1" /><path clip-path="url(#clip982)" d="M245.565 1315.74 L266.023 1316.72 L286.481 1313 L306.94 1302.71 L327.398 1282.79 L347.856 1259.31 L368.314 1236.12 L388.772 1213.4 L409.23 1206.04 L429.689 1169.68 L450.147 1150.12 L470.605 1140.24 L491.063 1107.55 L511.521 1063.7 L531.979 1002.97 L552.438 924.719 L572.896 867.945 L593.354 809.705 L613.812 743.626 L634.27 738.199 L654.728 811.052 L675.187 889.9 L695.645 986.668 L716.103 1086.13 L736.561 1173.66 L757.019 1227.12 L777.477 1277.36 L797.936 1320.09 L818.394 1348.84 L838.852 1371.19 L859.31 1384.67 L879.768 1389.33 L900.226 1388.74 L920.685 1389.3 L941.143 1382.58 L961.601 1386.14 L982.059 1385.7 L1002.52 1381.15 L1022.98 1375.71 L1043.43 1366.28 L1063.89 1355.81 L1084.35 1354.02 L1104.81 1348.36 L1125.27 1335.16 L1145.72 1323.43 L1166.18 1307.18 L1186.64 1287.98 L1207.1 1272.58 L1227.56 1239.06 L1248.02 1213.24 L1268.47 1183.82 L1288.93 1143.63 L1309.39 1083.9 L1329.85 1023.31 L1350.31 1048.05 L1370.76 1078.58 L1391.22 1117.86 L1411.68 1177.82 L1432.14 1224.55 L1452.6 1247.93 L1473.05 1262.47 L1493.51 1289.66 L1513.97 1306.4 L1534.43 1319.48 L1554.89 1337.67 L1575.35 1351.2 L1595.8 1362.73 L1616.26 1380.98 L1636.72 1399.54 L1657.18 1406.92 L1677.64 1410.37 L1698.09 1409.4 L1718.55 1413.18 L1739.01 1416.77 L1759.47 1417.6 L1779.93 1418.25 L1800.39 1417.49 L1820.84 1416.75 L1841.3 1412.92 L1861.76 1410.5 L1882.22 1403.77 L1902.68 1397.83 L1923.13 1391.74 L1943.59 1383.17 L1964.05 1376.76 L1984.51 1370.85 L2004.97 1361.6 L2025.43 1350.72 L2045.88 1330.35 L2066.34 1311.28 L2086.8 1311.07 L2107.26 1312.09 L2127.72 1314.47 L2148.17 1312.07 L2168.63 1306.33 L2189.09 1306.21 L2209.55 1301.32 L2230.01 1322.17 L2250.47 1333.95 L2270.92 1343.47 L2291.38 1346.55 L2291.38 87.9763 L2270.92 182.746 L2250.47 374.502 L2230.01 467.571 L2209.55 406.403 L2189.09 424.491 L2168.63 529.336 L2148.17 534.937 L2127.72 516.04 L2107.26 537.823 L2086.8 477.114 L2066.34 442.049 L2045.88 475.726 L2025.43 517.104 L2004.97 582.204 L1984.51 635.479 L1964.05 664.687 L1943.59 708.063 L1923.13 740.726 L1902.68 766.046 L1882.22 798.048 L1861.76 832.05 L1841.3 880.021 L1820.84 915.93 L1800.39 959.708 L1779.93 993.264 L1759.47 1014.53 L1739.01 1035.67 L1718.55 1072.83 L1698.09 1113.22 L1677.64 1145.28 L1657.18 1175.01 L1636.72 1118.46 L1616.26 906.011 L1595.8 683.617 L1575.35 458.331 L1554.89 330.775 L1534.43 221.227 L1513.97 166.342 L1493.51 165.418 L1473.05 276.054 L1452.6 283.26 L1432.14 316.802 L1411.68 327.819 L1391.22 387.93 L1370.76 432.685 L1350.31 478.818 L1329.85 479.806 L1309.39 513.523 L1288.93 594.708 L1268.47 629.098 L1248.02 657.022 L1227.56 689.732 L1207.1 744.768 L1186.64 800.373 L1166.18 842.566 L1145.72 898.285 L1125.27 964.134 L1104.81 1017.99 L1084.35 1073.4 L1063.89 1113.08 L1043.43 1148.34 L1022.98 1179.41 L1002.52 1196.16 L982.059 1220.3 L961.601 1239.39 L941.143 1251.89 L920.685 1265.84 L900.226 1269.03 L879.768 1270.61 L859.31 1264.18 L838.852 1241.22 L818.394 1189.34 L797.936 1085.08 L777.477 946.155 L757.019 760.064 L736.561 633.078 L716.103 568.354 L695.645 441.965 L675.187 290.023 L654.728 347.2 L634.27 421.51 L613.812 482.035 L593.354 560.295 L572.896 630.651 L552.438 652.61 L531.979 748.041 L511.521 846.993 L491.063 905.836 L470.605 958.001 L450.147 999.871 L429.689 1059.96 L409.23 1108.78 L388.772 1149.4 L368.314 1196.52 L347.856 1207.44 L327.398 1240.08 L306.94 1267.52 L286.481 1288.79 L266.023 1299.74 L245.565 1315.74  Z" fill="#009af9" fill-rule="evenodd" fill-opacity="0.5"/>
<polyline clip-path="url(#clip982)" style="stroke:#009af9; stroke-linecap:round; stroke-linejoin:round; stroke-width:12; stroke-opacity:1; fill:none" points="245.565,1315.74 266.023,1307.51 286.481,1296.06 306.94,1281.19 327.398,1261.38 347.856,1240.45 368.314,1216.01 388.772,1195 409.23,1163.72 429.689,1124.54 450.147,1088.98 470.605,1039.93 491.063,979.643 511.521,921.151 531.979,852.264 552.438,780.036 572.896,700.061 593.354,670.829 613.812,651.622 634.27,560.282 654.728,561.984 675.187,605.766 695.645,709.378 716.103,833.939 736.561,1027.56 757.019,1160.12 777.477,1244.23 797.936,1264.66 818.394,1298.93 838.852,1315.5 859.31,1324.5 879.768,1332.74 900.226,1332.79 920.685,1327.33 941.143,1322.4 961.601,1315.99 982.059,1308.82 1002.52,1302.59 1022.98,1290.94 1043.43,1274.87 1063.89,1249.45 1084.35,1222.24 1104.81,1199.98 1125.27,1175.48 1145.72,1146.02 1166.18,1122.29 1186.64,1075.31 1207.1,1010.05 1227.56,941.305 1248.02,871.89 1268.47,799.909 1288.93,759.398 1309.39,710.416 1329.85,741.289 1350.31,762.838 1370.76,694.201 1391.22,708.83 1411.68,873.483 1432.14,938.823 1452.6,958.887 1473.05,1097.25 1493.51,1168.38 1513.97,1236.46 1534.43,1258.2 1554.89,1264.56 1575.35,1296.71 1595.8,1305.73 1616.26,1327.82 1636.72,1324.97 1657.18,1318.15 1677.64,1320.99 1698.09,1313.3 1718.55,1293.64 1739.01,1282.68 1759.47,1263.11 1779.93,1232.57 1800.39,1223.17 1820.84,1193.49 1841.3,1152.4 1861.76,1107.43 1882.22,1084.09 1902.68,1034.38 1923.13,970.728 1943.59,921.887 1964.05,856.748 1984.51,847.365 2004.97,904.429 2025.43,949.882 2045.88,1011.37 2066.34,1102.99 2086.8,1106.59 2107.26,1089.03 2127.72,1099.95 2148.17,1120 2168.63,1199.91 2189.09,1237.61 2209.55,1258.41 2230.01,1260.96 2250.47,1242.77 2270.92,1214.99 2291.38,1219.51 "/>
<path clip-path="url(#clip982)" d="M245.565 1315.74 L266.023 1349.29 L286.481 1369.84 L306.94 1383.34 L327.398 1395.54 L347.856 1400.73 L368.314 1407.5 L388.772 1411.64 L409.23 1414.91 L429.689 1417.88 L450.147 1420.22 L470.605 1422.01 L491.063 1423.35 L511.521 1423.88 L531.979 1423.07 L552.438 1420.16 L572.896 1415.46 L593.354 1407.43 L613.812 1399.53 L634.27 1385.58 L654.728 1356.87 L675.187 1297.98 L695.645 1234.64 L716.103 1146.39 L736.561 1063.42 L757.019 1011.69 L777.477 1051.65 L797.936 1129.04 L818.394 1183.77 L838.852 1232.51 L859.31 1273.56 L879.768 1303.29 L900.226 1336.96 L920.685 1356.41 L941.143 1372.59 L961.601 1383.36 L982.059 1392.48 L1002.52 1400 L1022.98 1404.74 L1043.43 1412.03 L1063.89 1419.33 L1084.35 1423.15 L1104.81 1427.72 L1125.27 1432.46 L1145.72 1435.36 L1166.18 1437.75 L1186.64 1439.01 L1207.1 1440.42 L1227.56 1441.41 L1248.02 1441.99 L1268.47 1442.44 L1288.93 1442.8 L1309.39 1443.13 L1329.85 1443.08 L1350.31 1442.68 L1370.76 1442.04 L1391.22 1441.12 L1411.68 1439.15 L1432.14 1434.84 L1452.6 1425.9 L1473.05 1409.64 L1493.51 1360.83 L1513.97 1347.43 L1534.43 1350.69 L1554.89 1327.26 L1575.35 1313.08 L1595.8 1336.83 L1616.26 1352.84 L1636.72 1358.41 L1657.18 1369.95 L1677.64 1377.92 L1698.09 1384.34 L1718.55 1392.38 L1739.01 1398.48 L1759.47 1406.21 L1779.93 1411.97 L1800.39 1419.52 L1820.84 1423.12 L1841.3 1426.65 L1861.76 1429.6 L1882.22 1432.72 L1902.68 1435.57 L1923.13 1437.5 L1943.59 1439.64 L1964.05 1441.42 L1984.51 1442.72 L2004.97 1443.69 L2025.43 1444.4 L2045.88 1444.87 L2066.34 1445.27 L2086.8 1445.39 L2107.26 1445.41 L2127.72 1445.59 L2148.17 1445.46 L2168.63 1445.66 L2189.09 1445.72 L2209.55 1445.62 L2230.01 1445.47 L2250.47 1445.04 L2270.92 1444.2 L2291.38 1442.12 L2291.38 899.075 L2270.92 873.656 L2250.47 895.585 L2230.01 968.909 L2209.55 928.411 L2189.09 860.077 L2168.63 821.624 L2148.17 821.935 L2127.72 827.962 L2107.26 907.579 L2086.8 948.262 L2066.34 920.495 L2045.88 926.107 L2025.43 959.434 L2004.97 1016.21 L1984.51 1065.86 L1964.05 1129.57 L1943.59 1190.26 L1923.13 1232.27 L1902.68 1267.99 L1882.22 1299.96 L1861.76 1315.27 L1841.3 1313.74 L1820.84 1294.71 L1800.39 1278.16 L1779.93 1237.58 L1759.47 1179.65 L1739.01 1131.6 L1718.55 1022.76 L1698.09 887.927 L1677.64 763.376 L1657.18 598.982 L1636.72 484.173 L1616.26 530.291 L1595.8 595.49 L1575.35 599.209 L1554.89 577.627 L1534.43 699.85 L1513.97 660.86 L1493.51 632.723 L1473.05 787.867 L1452.6 797.114 L1432.14 800.115 L1411.68 842.544 L1391.22 898.166 L1370.76 944.889 L1350.31 958.279 L1329.85 1024.22 L1309.39 1086.82 L1288.93 1159.68 L1268.47 1231.62 L1248.02 1291.45 L1227.56 1328.38 L1207.1 1352.09 L1186.64 1370.19 L1166.18 1383.25 L1145.72 1392.4 L1125.27 1397.55 L1104.81 1399.12 L1084.35 1392.6 L1063.89 1384.55 L1043.43 1373.56 L1022.98 1353.9 L1002.52 1335.88 L982.059 1318.44 L961.601 1288.85 L941.143 1251.43 L920.685 1201.08 L900.226 1149.82 L879.768 1095.83 L859.31 1018.81 L838.852 923.426 L818.394 835.089 L797.936 754.321 L777.477 658.563 L757.019 583.853 L736.561 589.595 L716.103 694.126 L695.645 823.614 L675.187 978.225 L654.728 1066.84 L634.27 1145.64 L613.812 1220.46 L593.354 1279.66 L572.896 1324.07 L552.438 1359.17 L531.979 1381.77 L511.521 1391.93 L491.063 1397.38 L470.605 1401.43 L450.147 1402.33 L429.689 1404.11 L409.23 1402.24 L388.772 1399.98 L368.314 1394.34 L347.856 1384.07 L327.398 1377.36 L306.94 1366.85 L286.481 1345.03 L266.023 1333.16 L245.565 1315.74  Z" fill="#e26f46" fill-rule="evenodd" fill-opacity="0.5"/>
<polyline clip-path="url(#clip982)" style="stroke:#e26f46; stroke-linecap:round; stroke-linejoin:round; stroke-width:12; stroke-opacity:1; fill:none" points="245.565,1315.74 266.023,1339.93 286.481,1358.96 306.94,1374.3 327.398,1385.57 347.856,1393.74 368.314,1400.79 388.772,1406.52 409.23,1409.1 429.689,1412.41 450.147,1414.69 470.605,1414.42 491.063,1412.52 511.521,1411.24 531.979,1405.99 552.438,1400.97 572.896,1390.32 593.354,1376.31 613.812,1353.88 634.27,1308.47 654.728,1240.29 675.187,1147.93 695.645,982.641 716.103,882.908 736.561,838.148 757.019,870.313 777.477,901.024 797.936,959.745 818.394,993.869 838.852,1083.28 859.31,1158.23 879.768,1228.97 900.226,1269.94 920.685,1305.07 941.143,1331.85 961.601,1352.81 982.059,1374.31 1002.52,1387.03 1022.98,1395.31 1043.43,1403.43 1063.89,1409.34 1084.35,1412.07 1104.81,1412.79 1125.27,1416.1 1145.72,1419.25 1166.18,1419.81 1186.64,1418.88 1207.1,1418.44 1227.56,1417.12 1248.02,1413.73 1268.47,1408.74 1288.93,1396.54 1309.39,1374.34 1329.85,1341.31 1350.31,1288.77 1370.76,1216.85 1391.22,1111.29 1411.68,1065.75 1432.14,1023.5 1452.6,1034.67 1473.05,1003.2 1493.51,1077.08 1513.97,1074.51 1534.43,1125.09 1554.89,1186.76 1575.35,1185.69 1595.8,1177.49 1616.26,1238.95 1636.72,1279.1 1657.18,1305.74 1677.64,1333.32 1698.09,1359.62 1718.55,1368.74 1739.01,1376.94 1759.47,1384.65 1779.93,1394.78 1800.39,1397.07 1820.84,1401.01 1841.3,1410.41 1861.76,1415.58 1882.22,1417.04 1902.68,1415.42 1923.13,1412.27 1943.59,1409.66 1964.05,1412.61 1984.51,1409.63 2004.97,1397.06 2025.43,1378.22 2045.88,1349.09 2066.34,1297.17 2086.8,1203.8 2107.26,1174.45 2127.72,1150.4 2148.17,1197.51 2168.63,1232.03 2189.09,1261.2 2209.55,1278.23 2230.01,1299.53 2250.47,1325 2270.92,1341.85 2291.38,1362.04 "/>
</svg>
