<?xml version="1.0" encoding="utf-8"?>
<svg xmlns="http://www.w3.org/2000/svg" xmlns:xlink="http://www.w3.org/1999/xlink" width="600" height="400" viewBox="0 0 2400 1600">
<defs>
  <clipPath id="clip300">
    <rect x="0" y="0" width="2400" height="1600"/>
  </clipPath>
</defs>
<path clip-path="url(#clip300)" d="M0 1600 L2400 1600 L2400 0 L0 0  Z" fill="#ffffff" fill-rule="evenodd" fill-opacity="1"/>
<defs>
  <clipPath id="clip301">
    <rect x="156" y="47" width="2197" height="1440"/>
  </clipPath>
</defs>
<path clip-path="url(#clip300)" d="M156.274 1486.45 L2352.76 1486.45 L2352.76 47.2441 L156.274 47.2441  Z" fill="#ffffff" fill-rule="evenodd" fill-opacity="1"/>
<polyline clip-path="url(#clip301)" style="stroke:#000000; stroke-linecap:round; stroke-linejoin:round; stroke-width:2; stroke-opacity:0.1; fill:none" points="218.439,1486.45 218.439,47.2441 "/>
<polyline clip-path="url(#clip301)" style="stroke:#000000; stroke-linecap:round; stroke-linejoin:round; stroke-width:2; stroke-opacity:0.1; fill:none" points="736.477,1486.45 736.477,47.2441 "/>
<polyline clip-path="url(#clip301)" style="stroke:#000000; stroke-linecap:round; stroke-linejoin:round; stroke-width:2; stroke-opacity:0.1; fill:none" points="1254.52,1486.45 1254.52,47.2441 "/>
<polyline clip-path="url(#clip301)" style="stroke:#000000; stroke-linecap:round; stroke-linejoin:round; stroke-width:2; stroke-opacity:0.1; fill:none" points="1772.55,1486.45 1772.55,47.2441 "/>
<polyline clip-path="url(#clip301)" style="stroke:#000000; stroke-linecap:round; stroke-linejoin:round; stroke-width:2; stroke-opacity:0.1; fill:none" points="2290.59,1486.45 2290.59,47.2441 "/>
<polyline clip-path="url(#clip301)" style="stroke:#000000; stroke-linecap:round; stroke-linejoin:round; stroke-width:2; stroke-opacity:0.1; fill:none" points="156.274,1253.57 2352.76,1253.57 "/>
<polyline clip-path="url(#clip301)" style="stroke:#000000; stroke-linecap:round; stroke-linejoin:round; stroke-width:2; stroke-opacity:0.1; fill:none" points="156.274,1011.39 2352.76,1011.39 "/>
<polyline clip-path="url(#clip301)" style="stroke:#000000; stroke-linecap:round; stroke-linejoin:round; stroke-width:2; stroke-opacity:0.1; fill:none" points="156.274,769.208 2352.76,769.208 "/>
<polyline clip-path="url(#clip301)" style="stroke:#000000; stroke-linecap:round; stroke-linejoin:round; stroke-width:2; stroke-opacity:0.1; fill:none" points="156.274,527.027 2352.76,527.027 "/>
<polyline clip-path="url(#clip301)" style="stroke:#000000; stroke-linecap:round; stroke-linejoin:round; stroke-width:2; stroke-opacity:0.1; fill:none" points="156.274,284.845 2352.76,284.845 "/>
<polyline clip-path="url(#clip300)" style="stroke:#000000; stroke-linecap:round; stroke-linejoin:round; stroke-width:4; stroke-opacity:1; fill:none" points="156.274,1486.45 2352.76,1486.45 "/>
<polyline clip-path="url(#clip300)" style="stroke:#000000; stroke-linecap:round; stroke-linejoin:round; stroke-width:4; stroke-opacity:1; fill:none" points="218.439,1486.45 218.439,1467.55 "/>
<polyline clip-path="url(#clip300)" style="stroke:#000000; stroke-linecap:round; stroke-linejoin:round; stroke-width:4; stroke-opacity:1; fill:none" points="736.477,1486.45 736.477,1467.55 "/>
<polyline clip-path="url(#clip300)" style="stroke:#000000; stroke-linecap:round; stroke-linejoin:round; stroke-width:4; stroke-opacity:1; fill:none" points="1254.52,1486.45 1254.52,1467.55 "/>
<polyline clip-path="url(#clip300)" style="stroke:#000000; stroke-linecap:round; stroke-linejoin:round; stroke-width:4; stroke-opacity:1; fill:none" points="1772.55,1486.45 1772.55,1467.55 "/>
<polyline clip-path="url(#clip300)" style="stroke:#000000; stroke-linecap:round; stroke-linejoin:round; stroke-width:4; stroke-opacity:1; fill:none" points="2290.59,1486.45 2290.59,1467.55 "/>
<path clip-path="url(#clip300)" d="M180.742 1517.37 Q177.131 1517.37 175.302 1520.93 Q173.497 1524.47 173.497 1531.6 Q173.497 1538.71 175.302 1542.27 Q177.131 1545.82 180.742 1545.82 Q184.376 1545.82 186.182 1542.27 Q188.011 1538.71 188.011 1531.6 Q188.011 1524.47 186.182 1520.93 Q184.376 1517.37 180.742 1517.37 M180.742 1513.66 Q186.552 1513.66 189.608 1518.27 Q192.687 1522.85 192.687 1531.6 Q192.687 1540.33 189.608 1544.94 Q186.552 1549.52 180.742 1549.52 Q174.932 1549.52 171.853 1544.94 Q168.798 1540.33 168.798 1531.6 Q168.798 1522.85 171.853 1518.27 Q174.932 1513.66 180.742 1513.66 Z" fill="#000000" fill-rule="nonzero" fill-opacity="1" /><path clip-path="url(#clip300)" d="M200.904 1542.97 L205.788 1542.97 L205.788 1548.85 L200.904 1548.85 L200.904 1542.97 Z" fill="#000000" fill-rule="nonzero" fill-opacity="1" /><path clip-path="url(#clip300)" d="M225.973 1517.37 Q222.362 1517.37 220.534 1520.93 Q218.728 1524.47 218.728 1531.6 Q218.728 1538.71 220.534 1542.27 Q222.362 1545.82 225.973 1545.82 Q229.608 1545.82 231.413 1542.27 Q233.242 1538.71 233.242 1531.6 Q233.242 1524.47 231.413 1520.93 Q229.608 1517.37 225.973 1517.37 M225.973 1513.66 Q231.784 1513.66 234.839 1518.27 Q237.918 1522.85 237.918 1531.6 Q237.918 1540.33 234.839 1544.94 Q231.784 1549.52 225.973 1549.52 Q220.163 1549.52 217.085 1544.94 Q214.029 1540.33 214.029 1531.6 Q214.029 1522.85 217.085 1518.27 Q220.163 1513.66 225.973 1513.66 Z" fill="#000000" fill-rule="nonzero" fill-opacity="1" /><path clip-path="url(#clip300)" d="M256.135 1517.37 Q252.524 1517.37 250.696 1520.93 Q248.89 1524.47 248.89 1531.6 Q248.89 1538.71 250.696 1542.27 Q252.524 1545.82 256.135 1545.82 Q259.77 1545.82 261.575 1542.27 Q263.404 1538.71 263.404 1531.6 Q263.404 1524.47 261.575 1520.93 Q259.77 1517.37 256.135 1517.37 M256.135 1513.66 Q261.945 1513.66 265.001 1518.27 Q268.08 1522.85 268.08 1531.6 Q268.08 1540.33 265.001 1544.94 Q261.945 1549.52 256.135 1549.52 Q250.325 1549.52 247.246 1544.94 Q244.191 1540.33 244.191 1531.6 Q244.191 1522.85 247.246 1518.27 Q250.325 1513.66 256.135 1513.66 Z" fill="#000000" fill-rule="nonzero" fill-opacity="1" /><path clip-path="url(#clip300)" d="M699.278 1517.37 Q695.667 1517.37 693.838 1520.93 Q692.033 1524.47 692.033 1531.6 Q692.033 1538.71 693.838 1542.27 Q695.667 1545.82 699.278 1545.82 Q702.912 1545.82 704.718 1542.27 Q706.546 1538.71 706.546 1531.6 Q706.546 1524.47 704.718 1520.93 Q702.912 1517.37 699.278 1517.37 M699.278 1513.66 Q705.088 1513.66 708.144 1518.27 Q711.222 1522.85 711.222 1531.6 Q711.222 1540.33 708.144 1544.94 Q705.088 1549.52 699.278 1549.52 Q693.468 1549.52 690.389 1544.94 Q687.334 1540.33 687.334 1531.6 Q687.334 1522.85 690.389 1518.27 Q693.468 1513.66 699.278 1513.66 Z" fill="#000000" fill-rule="nonzero" fill-opacity="1" /><path clip-path="url(#clip300)" d="M719.44 1542.97 L724.324 1542.97 L724.324 1548.85 L719.44 1548.85 L719.44 1542.97 Z" fill="#000000" fill-rule="nonzero" fill-opacity="1" /><path clip-path="url(#clip300)" d="M738.537 1544.91 L754.856 1544.91 L754.856 1548.85 L732.912 1548.85 L732.912 1544.91 Q735.574 1542.16 740.157 1537.53 Q744.764 1532.88 745.944 1531.53 Q748.19 1529.01 749.069 1527.27 Q749.972 1525.51 749.972 1523.82 Q749.972 1521.07 748.028 1519.33 Q746.106 1517.6 743.005 1517.6 Q740.806 1517.6 738.352 1518.36 Q735.921 1519.13 733.144 1520.68 L733.144 1515.95 Q735.968 1514.82 738.421 1514.24 Q740.875 1513.66 742.912 1513.66 Q748.282 1513.66 751.477 1516.35 Q754.671 1519.03 754.671 1523.52 Q754.671 1525.65 753.861 1527.57 Q753.074 1529.47 750.968 1532.07 Q750.389 1532.74 747.287 1535.95 Q744.185 1539.15 738.537 1544.91 Z" fill="#000000" fill-rule="nonzero" fill-opacity="1" /><path clip-path="url(#clip300)" d="M764.717 1514.29 L783.074 1514.29 L783.074 1518.22 L769 1518.22 L769 1526.7 Q770.018 1526.35 771.037 1526.19 Q772.055 1526 773.074 1526 Q778.861 1526 782.241 1529.17 Q785.62 1532.34 785.62 1537.76 Q785.62 1543.34 782.148 1546.44 Q778.676 1549.52 772.356 1549.52 Q770.18 1549.52 767.912 1549.15 Q765.667 1548.78 763.259 1548.04 L763.259 1543.34 Q765.342 1544.47 767.565 1545.03 Q769.787 1545.58 772.264 1545.58 Q776.268 1545.58 778.606 1543.48 Q780.944 1541.37 780.944 1537.76 Q780.944 1534.15 778.606 1532.04 Q776.268 1529.94 772.264 1529.94 Q770.389 1529.94 768.514 1530.35 Q766.662 1530.77 764.717 1531.65 L764.717 1514.29 Z" fill="#000000" fill-rule="nonzero" fill-opacity="1" /><path clip-path="url(#clip300)" d="M1216.82 1517.37 Q1213.21 1517.37 1211.38 1520.93 Q1209.57 1524.47 1209.57 1531.6 Q1209.57 1538.71 1211.38 1542.27 Q1213.21 1545.82 1216.82 1545.82 Q1220.45 1545.82 1222.26 1542.27 Q1224.09 1538.71 1224.09 1531.6 Q1224.09 1524.47 1222.26 1520.93 Q1220.45 1517.37 1216.82 1517.37 M1216.82 1513.66 Q1222.63 1513.66 1225.68 1518.27 Q1228.76 1522.85 1228.76 1531.6 Q1228.76 1540.33 1225.68 1544.94 Q1222.63 1549.52 1216.82 1549.52 Q1211.01 1549.52 1207.93 1544.94 Q1204.87 1540.33 1204.87 1531.6 Q1204.87 1522.85 1207.93 1518.27 Q1211.01 1513.66 1216.82 1513.66 Z" fill="#000000" fill-rule="nonzero" fill-opacity="1" /><path clip-path="url(#clip300)" d="M1236.98 1542.97 L1241.86 1542.97 L1241.86 1548.85 L1236.98 1548.85 L1236.98 1542.97 Z" fill="#000000" fill-rule="nonzero" fill-opacity="1" /><path clip-path="url(#clip300)" d="M1252.1 1514.29 L1270.45 1514.29 L1270.45 1518.22 L1256.38 1518.22 L1256.38 1526.7 Q1257.4 1526.35 1258.42 1526.19 Q1259.43 1526 1260.45 1526 Q1266.24 1526 1269.62 1529.17 Q1273 1532.34 1273 1537.76 Q1273 1543.34 1269.53 1546.44 Q1266.05 1549.52 1259.73 1549.52 Q1257.56 1549.52 1255.29 1549.15 Q1253.05 1548.78 1250.64 1548.04 L1250.64 1543.34 Q1252.72 1544.47 1254.94 1545.03 Q1257.17 1545.58 1259.64 1545.58 Q1263.65 1545.58 1265.98 1543.48 Q1268.32 1541.37 1268.32 1537.76 Q1268.32 1534.15 1265.98 1532.04 Q1263.65 1529.94 1259.64 1529.94 Q1257.77 1529.94 1255.89 1530.35 Q1254.04 1530.77 1252.1 1531.65 L1252.1 1514.29 Z" fill="#000000" fill-rule="nonzero" fill-opacity="1" /><path clip-path="url(#clip300)" d="M1292.21 1517.37 Q1288.6 1517.37 1286.77 1520.93 Q1284.97 1524.47 1284.97 1531.6 Q1284.97 1538.71 1286.77 1542.27 Q1288.6 1545.82 1292.21 1545.82 Q1295.85 1545.82 1297.65 1542.27 Q1299.48 1538.71 1299.48 1531.6 Q1299.48 1524.47 1297.65 1520.93 Q1295.85 1517.37 1292.21 1517.37 M1292.21 1513.66 Q1298.02 1513.66 1301.08 1518.27 Q1304.16 1522.85 1304.16 1531.6 Q1304.16 1540.33 1301.08 1544.94 Q1298.02 1549.52 1292.21 1549.52 Q1286.4 1549.52 1283.32 1544.94 Q1280.27 1540.33 1280.27 1531.6 Q1280.27 1522.85 1283.32 1518.27 Q1286.4 1513.66 1292.21 1513.66 Z" fill="#000000" fill-rule="nonzero" fill-opacity="1" /><path clip-path="url(#clip300)" d="M1735.35 1517.37 Q1731.74 1517.37 1729.91 1520.93 Q1728.11 1524.47 1728.11 1531.6 Q1728.11 1538.71 1729.91 1542.27 Q1731.74 1545.82 1735.35 1545.82 Q1738.99 1545.82 1740.79 1542.27 Q1742.62 1538.71 1742.62 1531.6 Q1742.62 1524.47 1740.79 1520.93 Q1738.99 1517.37 1735.35 1517.37 M1735.35 1513.66 Q1741.16 1513.66 1744.22 1518.27 Q1747.3 1522.85 1747.3 1531.6 Q1747.3 1540.33 1744.22 1544.94 Q1741.16 1549.52 1735.35 1549.52 Q1729.54 1549.52 1726.47 1544.94 Q1723.41 1540.33 1723.41 1531.6 Q1723.41 1522.85 1726.47 1518.27 Q1729.54 1513.66 1735.35 1513.66 Z" fill="#000000" fill-rule="nonzero" fill-opacity="1" /><path clip-path="url(#clip300)" d="M1755.52 1542.97 L1760.4 1542.97 L1760.4 1548.85 L1755.52 1548.85 L1755.52 1542.97 Z" fill="#000000" fill-rule="nonzero" fill-opacity="1" /><path clip-path="url(#clip300)" d="M1769.41 1514.29 L1791.63 1514.29 L1791.63 1516.28 L1779.08 1548.85 L1774.2 1548.85 L1786 1518.22 L1769.41 1518.22 L1769.41 1514.29 Z" fill="#000000" fill-rule="nonzero" fill-opacity="1" /><path clip-path="url(#clip300)" d="M1800.79 1514.29 L1819.15 1514.29 L1819.15 1518.22 L1805.08 1518.22 L1805.08 1526.7 Q1806.09 1526.35 1807.11 1526.19 Q1808.13 1526 1809.15 1526 Q1814.94 1526 1818.32 1529.17 Q1821.7 1532.34 1821.7 1537.76 Q1821.7 1543.34 1818.22 1546.44 Q1814.75 1549.52 1808.43 1549.52 Q1806.26 1549.52 1803.99 1549.15 Q1801.74 1548.78 1799.34 1548.04 L1799.34 1543.34 Q1801.42 1544.47 1803.64 1545.03 Q1805.86 1545.58 1808.34 1545.58 Q1812.34 1545.58 1814.68 1543.48 Q1817.02 1541.37 1817.02 1537.76 Q1817.02 1534.15 1814.68 1532.04 Q1812.34 1529.94 1808.34 1529.94 Q1806.47 1529.94 1804.59 1530.35 Q1802.74 1530.77 1800.79 1531.65 L1800.79 1514.29 Z" fill="#000000" fill-rule="nonzero" fill-opacity="1" /><path clip-path="url(#clip300)" d="M2242.66 1544.91 L2250.3 1544.91 L2250.3 1518.55 L2241.99 1520.21 L2241.99 1515.95 L2250.26 1514.29 L2254.93 1514.29 L2254.93 1544.91 L2262.57 1544.91 L2262.57 1548.85 L2242.66 1548.85 L2242.66 1544.91 Z" fill="#000000" fill-rule="nonzero" fill-opacity="1" /><path clip-path="url(#clip300)" d="M2272.02 1542.97 L2276.9 1542.97 L2276.9 1548.85 L2272.02 1548.85 L2272.02 1542.97 Z" fill="#000000" fill-rule="nonzero" fill-opacity="1" /><path clip-path="url(#clip300)" d="M2297.08 1517.37 Q2293.47 1517.37 2291.64 1520.93 Q2289.84 1524.47 2289.84 1531.6 Q2289.84 1538.71 2291.64 1542.27 Q2293.47 1545.82 2297.08 1545.82 Q2300.72 1545.82 2302.52 1542.27 Q2304.35 1538.71 2304.35 1531.6 Q2304.35 1524.47 2302.52 1520.93 Q2300.72 1517.37 2297.08 1517.37 M2297.08 1513.66 Q2302.89 1513.66 2305.95 1518.27 Q2309.03 1522.85 2309.03 1531.6 Q2309.03 1540.33 2305.95 1544.94 Q2302.89 1549.52 2297.08 1549.52 Q2291.27 1549.52 2288.2 1544.94 Q2285.14 1540.33 2285.14 1531.6 Q2285.14 1522.85 2288.2 1518.27 Q2291.27 1513.66 2297.08 1513.66 Z" fill="#000000" fill-rule="nonzero" fill-opacity="1" /><path clip-path="url(#clip300)" d="M2327.25 1517.37 Q2323.64 1517.37 2321.81 1520.93 Q2320 1524.47 2320 1531.6 Q2320 1538.71 2321.81 1542.27 Q2323.64 1545.82 2327.25 1545.82 Q2330.88 1545.82 2332.69 1542.27 Q2334.51 1538.71 2334.51 1531.6 Q2334.51 1524.47 2332.69 1520.93 Q2330.88 1517.37 2327.25 1517.37 M2327.25 1513.66 Q2333.06 1513.66 2336.11 1518.27 Q2339.19 1522.85 2339.19 1531.6 Q2339.19 1540.33 2336.11 1544.94 Q2333.06 1549.52 2327.25 1549.52 Q2321.44 1549.52 2318.36 1544.94 Q2315.3 1540.33 2315.3 1531.6 Q2315.3 1522.85 2318.36 1518.27 Q2321.44 1513.66 2327.25 1513.66 Z" fill="#000000" fill-rule="nonzero" fill-opacity="1" /><polyline clip-path="url(#clip300)" style="stroke:#000000; stroke-linecap:round; stroke-linejoin:round; stroke-width:4; stroke-opacity:1; fill:none" points="156.274,1486.45 156.274,47.2441 "/>
<polyline clip-path="url(#clip300)" style="stroke:#000000; stroke-linecap:round; stroke-linejoin:round; stroke-width:4; stroke-opacity:1; fill:none" points="156.274,1253.57 175.172,1253.57 "/>
<polyline clip-path="url(#clip300)" style="stroke:#000000; stroke-linecap:round; stroke-linejoin:round; stroke-width:4; stroke-opacity:1; fill:none" points="156.274,1011.39 175.172,1011.39 "/>
<polyline clip-path="url(#clip300)" style="stroke:#000000; stroke-linecap:round; stroke-linejoin:round; stroke-width:4; stroke-opacity:1; fill:none" points="156.274,769.208 175.172,769.208 "/>
<polyline clip-path="url(#clip300)" style="stroke:#000000; stroke-linecap:round; stroke-linejoin:round; stroke-width:4; stroke-opacity:1; fill:none" points="156.274,527.027 175.172,527.027 "/>
<polyline clip-path="url(#clip300)" style="stroke:#000000; stroke-linecap:round; stroke-linejoin:round; stroke-width:4; stroke-opacity:1; fill:none" points="156.274,284.845 175.172,284.845 "/>
<path clip-path="url(#clip300)" d="M62.9365 1239.37 Q59.3254 1239.37 57.4967 1242.93 Q55.6912 1246.48 55.6912 1253.61 Q55.6912 1260.71 57.4967 1264.28 Q59.3254 1267.82 62.9365 1267.82 Q66.5707 1267.82 68.3763 1264.28 Q70.205 1260.71 70.205 1253.61 Q70.205 1246.48 68.3763 1242.93 Q66.5707 1239.37 62.9365 1239.37 M62.9365 1235.67 Q68.7467 1235.67 71.8022 1240.27 Q74.8809 1244.86 74.8809 1253.61 Q74.8809 1262.33 71.8022 1266.94 Q68.7467 1271.52 62.9365 1271.52 Q57.1264 1271.52 54.0477 1266.94 Q50.9921 1262.33 50.9921 1253.61 Q50.9921 1244.86 54.0477 1240.27 Q57.1264 1235.67 62.9365 1235.67 Z" fill="#000000" fill-rule="nonzero" fill-opacity="1" /><path clip-path="url(#clip300)" d="M83.0984 1264.97 L87.9827 1264.97 L87.9827 1270.85 L83.0984 1270.85 L83.0984 1264.97 Z" fill="#000000" fill-rule="nonzero" fill-opacity="1" /><path clip-path="url(#clip300)" d="M108.746 1251.71 Q105.598 1251.71 103.746 1253.86 Q101.918 1256.01 101.918 1259.76 Q101.918 1263.49 103.746 1265.67 Q105.598 1267.82 108.746 1267.82 Q111.895 1267.82 113.723 1265.67 Q115.575 1263.49 115.575 1259.76 Q115.575 1256.01 113.723 1253.86 Q111.895 1251.71 108.746 1251.71 M118.029 1237.05 L118.029 1241.31 Q116.27 1240.48 114.464 1240.04 Q112.682 1239.6 110.922 1239.6 Q106.293 1239.6 103.839 1242.73 Q101.409 1245.85 101.061 1252.17 Q102.427 1250.16 104.487 1249.09 Q106.547 1248 109.024 1248 Q114.233 1248 117.242 1251.18 Q120.274 1254.32 120.274 1259.76 Q120.274 1265.09 117.126 1268.3 Q113.978 1271.52 108.746 1271.52 Q102.751 1271.52 99.5798 1266.94 Q96.4085 1262.33 96.4085 1253.61 Q96.4085 1245.41 100.297 1240.55 Q104.186 1235.67 110.737 1235.67 Q112.496 1235.67 114.279 1236.01 Q116.084 1236.36 118.029 1237.05 Z" fill="#000000" fill-rule="nonzero" fill-opacity="1" /><path clip-path="url(#clip300)" d="M63.1911 997.188 Q59.58 997.188 57.7513 1000.75 Q55.9458 1004.29 55.9458 1011.42 Q55.9458 1018.53 57.7513 1022.1 Q59.58 1025.64 63.1911 1025.64 Q66.8254 1025.64 68.6309 1022.1 Q70.4596 1018.53 70.4596 1011.42 Q70.4596 1004.29 68.6309 1000.75 Q66.8254 997.188 63.1911 997.188 M63.1911 993.484 Q69.0013 993.484 72.0568 998.091 Q75.1355 1002.67 75.1355 1011.42 Q75.1355 1020.15 72.0568 1024.76 Q69.0013 1029.34 63.1911 1029.34 Q57.381 1029.34 54.3023 1024.76 Q51.2468 1020.15 51.2468 1011.42 Q51.2468 1002.67 54.3023 998.091 Q57.381 993.484 63.1911 993.484 Z" fill="#000000" fill-rule="nonzero" fill-opacity="1" /><path clip-path="url(#clip300)" d="M83.3531 1022.79 L88.2373 1022.79 L88.2373 1028.67 L83.3531 1028.67 L83.3531 1022.79 Z" fill="#000000" fill-rule="nonzero" fill-opacity="1" /><path clip-path="url(#clip300)" d="M108.422 1012.26 Q105.089 1012.26 103.168 1014.04 Q101.27 1015.82 101.27 1018.95 Q101.27 1022.07 103.168 1023.85 Q105.089 1025.64 108.422 1025.64 Q111.756 1025.64 113.677 1023.85 Q115.598 1022.05 115.598 1018.95 Q115.598 1015.82 113.677 1014.04 Q111.779 1012.26 108.422 1012.26 M103.746 1010.27 Q100.737 1009.53 99.0474 1007.47 Q97.3808 1005.41 97.3808 1002.44 Q97.3808 998.299 100.321 995.892 Q103.284 993.484 108.422 993.484 Q113.584 993.484 116.524 995.892 Q119.464 998.299 119.464 1002.44 Q119.464 1005.41 117.774 1007.47 Q116.108 1009.53 113.121 1010.27 Q116.501 1011.05 118.376 1013.35 Q120.274 1015.64 120.274 1018.95 Q120.274 1023.97 117.195 1026.66 Q114.14 1029.34 108.422 1029.34 Q102.705 1029.34 99.6261 1026.66 Q96.5706 1023.97 96.5706 1018.95 Q96.5706 1015.64 98.4687 1013.35 Q100.367 1011.05 103.746 1010.27 M102.034 1002.88 Q102.034 1005.57 103.7 1007.07 Q105.39 1008.58 108.422 1008.58 Q111.432 1008.58 113.121 1007.07 Q114.834 1005.57 114.834 1002.88 Q114.834 1000.2 113.121 998.693 Q111.432 997.188 108.422 997.188 Q105.39 997.188 103.7 998.693 Q102.034 1000.2 102.034 1002.88 Z" fill="#000000" fill-rule="nonzero" fill-opacity="1" /><path clip-path="url(#clip300)" d="M53.9088 782.553 L61.5476 782.553 L61.5476 756.187 L53.2375 757.854 L53.2375 753.595 L61.5013 751.928 L66.1772 751.928 L66.1772 782.553 L73.8161 782.553 L73.8161 786.488 L53.9088 786.488 L53.9088 782.553 Z" fill="#000000" fill-rule="nonzero" fill-opacity="1" /><path clip-path="url(#clip300)" d="M83.2605 780.609 L88.1447 780.609 L88.1447 786.488 L83.2605 786.488 L83.2605 780.609 Z" fill="#000000" fill-rule="nonzero" fill-opacity="1" /><path clip-path="url(#clip300)" d="M108.33 755.007 Q104.719 755.007 102.89 758.572 Q101.084 762.113 101.084 769.243 Q101.084 776.349 102.89 779.914 Q104.719 783.456 108.33 783.456 Q111.964 783.456 113.77 779.914 Q115.598 776.349 115.598 769.243 Q115.598 762.113 113.77 758.572 Q111.964 755.007 108.33 755.007 M108.33 751.303 Q114.14 751.303 117.195 755.91 Q120.274 760.493 120.274 769.243 Q120.274 777.97 117.195 782.576 Q114.14 787.159 108.33 787.159 Q102.52 787.159 99.4409 782.576 Q96.3854 777.97 96.3854 769.243 Q96.3854 760.493 99.4409 755.91 Q102.52 751.303 108.33 751.303 Z" fill="#000000" fill-rule="nonzero" fill-opacity="1" /><path clip-path="url(#clip300)" d="M55.506 540.372 L63.1448 540.372 L63.1448 514.006 L54.8347 515.673 L54.8347 511.413 L63.0985 509.747 L67.7744 509.747 L67.7744 540.372 L75.4133 540.372 L75.4133 544.307 L55.506 544.307 L55.506 540.372 Z" fill="#000000" fill-rule="nonzero" fill-opacity="1" /><path clip-path="url(#clip300)" d="M84.8577 538.427 L89.7419 538.427 L89.7419 544.307 L84.8577 544.307 L84.8577 538.427 Z" fill="#000000" fill-rule="nonzero" fill-opacity="1" /><path clip-path="url(#clip300)" d="M103.955 540.372 L120.274 540.372 L120.274 544.307 L98.3298 544.307 L98.3298 540.372 Q100.992 537.617 105.575 532.987 Q110.182 528.335 111.362 526.992 Q113.608 524.469 114.487 522.733 Q115.39 520.974 115.39 519.284 Q115.39 516.529 113.445 514.793 Q111.524 513.057 108.422 513.057 Q106.223 513.057 103.77 513.821 Q101.339 514.585 98.5613 516.136 L98.5613 511.413 Q101.385 510.279 103.839 509.7 Q106.293 509.122 108.33 509.122 Q113.7 509.122 116.895 511.807 Q120.089 514.492 120.089 518.983 Q120.089 521.112 119.279 523.034 Q118.492 524.932 116.385 527.524 Q115.807 528.196 112.705 531.413 Q109.603 534.608 103.955 540.372 Z" fill="#000000" fill-rule="nonzero" fill-opacity="1" /><path clip-path="url(#clip300)" d="M53.4227 298.19 L61.0615 298.19 L61.0615 271.825 L52.7514 273.491 L52.7514 269.232 L61.0152 267.565 L65.6911 267.565 L65.6911 298.19 L73.33 298.19 L73.33 302.125 L53.4227 302.125 L53.4227 298.19 Z" fill="#000000" fill-rule="nonzero" fill-opacity="1" /><path clip-path="url(#clip300)" d="M82.7744 296.246 L87.6586 296.246 L87.6586 302.125 L82.7744 302.125 L82.7744 296.246 Z" fill="#000000" fill-rule="nonzero" fill-opacity="1" /><path clip-path="url(#clip300)" d="M110.691 271.639 L98.8854 290.088 L110.691 290.088 L110.691 271.639 M109.464 267.565 L115.344 267.565 L115.344 290.088 L120.274 290.088 L120.274 293.977 L115.344 293.977 L115.344 302.125 L110.691 302.125 L110.691 293.977 L95.0891 293.977 L95.0891 289.463 L109.464 267.565 Z" fill="#000000" fill-rule="nonzero" fill-opacity="1" /><polyline clip-path="url(#clip301)" style="stroke:#009af9; stroke-linecap:round; stroke-linejoin:round; stroke-width:12; stroke-opacity:1; fill:none" points="218.439,1374.66 425.654,1310.35 632.869,1182.57 840.085,1157.32 1047.3,1061.85 1254.52,1053.98 1461.73,898.398 1668.95,983.76 1876.16,1019.4 2083.38,1122.79 2290.59,965.881 "/>
<polyline clip-path="url(#clip301)" style="stroke:#e26f46; stroke-linecap:round; stroke-linejoin:round; stroke-width:12; stroke-opacity:1; fill:none" points="218.439,1374.66 425.654,1377.29 632.869,1343.93 840.085,1300.36 1047.3,1255.68 1254.52,986.099 1461.73,771.21 1668.95,746.939 1876.16,640.909 2083.38,120.324 2290.59,87.9763 "/>
<polyline clip-path="url(#clip301)" style="stroke:#3da44d; stroke-linecap:round; stroke-linejoin:round; stroke-width:12; stroke-opacity:1; fill:none" points="218.439,1374.66 425.654,1277.67 632.869,1177.28 840.085,915.297 1047.3,643.99 1254.52,907.179 1461.73,792.21 1668.95,690.397 1876.16,744.861 2083.38,850.506 2290.59,994.868 "/>
<polyline clip-path="url(#clip301)" style="stroke:#c271d2; stroke-linecap:round; stroke-linejoin:round; stroke-width:12; stroke-opacity:1; fill:none" points="218.439,1374.66 425.654,1352.53 632.869,1426.88 840.085,1410 1047.3,1338.93 1254.52,1362.67 1461.73,1440.83 1668.95,1420.46 1876.16,1445.72 2083.38,1413.5 2290.59,1208.08 "/>
<polyline clip-path="url(#clip301)" style="stroke:#ac8d18; stroke-linecap:round; stroke-linejoin:round; stroke-width:12; stroke-opacity:1; fill:none" points="218.439,1374.66 425.654,1323.42 632.869,1298.32 840.085,1264.2 1047.3,1217.81 1254.52,1018.94 1461.73,1185.51 1668.95,1163.71 1876.16,1110.89 2083.38,1072.8 2290.59,965.092 "/>
<polyline clip-path="url(#clip301)" style="stroke:#00a9ad; stroke-linecap:round; stroke-linejoin:round; stroke-width:12; stroke-opacity:1; fill:none" points="218.439,1374.66 425.654,1354.58 632.869,1284.66 840.085,1283.59 1047.3,1227.66 1254.52,1279.53 1461.73,1081.13 1668.95,986.309 1876.16,893.875 2083.38,662.157 2290.59,771.686 "/>
<polyline clip-path="url(#clip301)" style="stroke:#ed5d92; stroke-linecap:round; stroke-linejoin:round; stroke-width:12; stroke-opacity:1; fill:none" points="218.439,1374.66 425.654,1266.38 632.869,1169.44 840.085,1108.41 1047.3,1001.21 1254.52,1205.92 1461.73,1170.64 1668.95,1017.68 1876.16,905.722 2083.38,810.019 2290.59,618.761 "/>
<polyline clip-path="url(#clip301)" style="stroke:#c68125; stroke-linecap:round; stroke-linejoin:round; stroke-width:12; stroke-opacity:1; fill:none" points="218.439,1374.66 425.654,1335.25 632.869,1276.23 840.085,1224.59 1047.3,1258.16 1254.52,1103.06 1461.73,1324.25 1668.95,1092.73 1876.16,758.542 2083.38,515.392 2290.59,467.191 "/>
</svg>
