<?xml version="1.0" encoding="utf-8"?>
<svg xmlns="http://www.w3.org/2000/svg" xmlns:xlink="http://www.w3.org/1999/xlink" width="600" height="400" viewBox="0 0 2400 1600">
<defs>
  <clipPath id="clip580">
    <rect x="0" y="0" width="2400" height="1600"/>
  </clipPath>
</defs>
<path clip-path="url(#clip580)" d="M0 1600 L2400 1600 L2400 0 L0 0  Z" fill="#ffffff" fill-rule="evenodd" fill-opacity="1"/>
<defs>
  <clipPath id="clip581">
    <rect x="156" y="47" width="2197" height="1440"/>
  </clipPath>
</defs>
<path clip-path="url(#clip580)" d="M156.274 1486.45 L2352.76 1486.45 L2352.76 47.2441 L156.274 47.2441  Z" fill="#ffffff" fill-rule="evenodd" fill-opacity="1"/>
<polyline clip-path="url(#clip581)" style="stroke:#000000; stroke-linecap:round; stroke-linejoin:round; stroke-width:2; stroke-opacity:0.1; fill:none" points="218.439,1486.45 218.439,47.2441 "/>
<polyline clip-path="url(#clip581)" style="stroke:#000000; stroke-linecap:round; stroke-linejoin:round; stroke-width:2; stroke-opacity:0.1; fill:none" points="736.477,1486.45 736.477,47.2441 "/>
<polyline clip-path="url(#clip581)" style="stroke:#000000; stroke-linecap:round; stroke-linejoin:round; stroke-width:2; stroke-opacity:0.1; fill:none" points="1254.52,1486.45 1254.52,47.2441 "/>
<polyline clip-path="url(#clip581)" style="stroke:#000000; stroke-linecap:round; stroke-linejoin:round; stroke-width:2; stroke-opacity:0.1; fill:none" points="1772.55,1486.45 1772.55,47.2441 "/>
<polyline clip-path="url(#clip581)" style="stroke:#000000; stroke-linecap:round; stroke-linejoin:round; stroke-width:2; stroke-opacity:0.1; fill:none" points="2290.59,1486.45 2290.59,47.2441 "/>
<polyline clip-path="url(#clip581)" style="stroke:#000000; stroke-linecap:round; stroke-linejoin:round; stroke-width:2; stroke-opacity:0.1; fill:none" points="156.274,1309.77 2352.76,1309.77 "/>
<polyline clip-path="url(#clip581)" style="stroke:#000000; stroke-linecap:round; stroke-linejoin:round; stroke-width:2; stroke-opacity:0.1; fill:none" points="156.274,1055 2352.76,1055 "/>
<polyline clip-path="url(#clip581)" style="stroke:#000000; stroke-linecap:round; stroke-linejoin:round; stroke-width:2; stroke-opacity:0.1; fill:none" points="156.274,800.237 2352.76,800.237 "/>
<polyline clip-path="url(#clip581)" style="stroke:#000000; stroke-linecap:round; stroke-linejoin:round; stroke-width:2; stroke-opacity:0.1; fill:none" points="156.274,545.471 2352.76,545.471 "/>
<polyline clip-path="url(#clip581)" style="stroke:#000000; stroke-linecap:round; stroke-linejoin:round; stroke-width:2; stroke-opacity:0.1; fill:none" points="156.274,290.705 2352.76,290.705 "/>
<polyline clip-path="url(#clip580)" style="stroke:#000000; stroke-linecap:round; stroke-linejoin:round; stroke-width:4; stroke-opacity:1; fill:none" points="156.274,1486.45 2352.76,1486.45 "/>
<polyline clip-path="url(#clip580)" style="stroke:#000000; stroke-linecap:round; stroke-linejoin:round; stroke-width:4; stroke-opacity:1; fill:none" points="218.439,1486.45 218.439,1467.55 "/>
<polyline clip-path="url(#clip580)" style="stroke:#000000; stroke-linecap:round; stroke-linejoin:round; stroke-width:4; stroke-opacity:1; fill:none" points="736.477,1486.45 736.477,1467.55 "/>
<polyline clip-path="url(#clip580)" style="stroke:#000000; stroke-linecap:round; stroke-linejoin:round; stroke-width:4; stroke-opacity:1; fill:none" points="1254.52,1486.45 1254.52,1467.55 "/>
<polyline clip-path="url(#clip580)" style="stroke:#000000; stroke-linecap:round; stroke-linejoin:round; stroke-width:4; stroke-opacity:1; fill:none" points="1772.55,1486.45 1772.55,1467.55 "/>
<polyline clip-path="url(#clip580)" style="stroke:#000000; stroke-linecap:round; stroke-linejoin:round; stroke-width:4; stroke-opacity:1; fill:none" points="2290.59,1486.45 2290.59,1467.55 "/>
<path clip-path="url(#clip580)" d="M180.742 1517.37 Q177.131 1517.37 175.302 1520.93 Q173.497 1524.47 173.497 1531.6 Q173.497 1538.71 175.302 1542.27 Q177.131 1545.82 180.742 1545.82 Q184.376 1545.82 186.182 1542.27 Q188.011 1538.71 188.011 1531.6 Q188.011 1524.47 186.182 1520.93 Q184.376 1517.37 180.742 1517.37 M180.742 1513.66 Q186.552 1513.66 189.608 1518.27 Q192.687 1522.85 192.687 1531.6 Q192.687 1540.33 189.608 1544.94 Q186.552 1549.52 180.742 1549.52 Q174.932 1549.52 171.853 1544.94 Q168.798 1540.33 168.798 1531.6 Q168.798 1522.85 171.853 1518.27 Q174.932 1513.66 180.742 1513.66 Z" fill="#000000" fill-rule="nonzero" fill-opacity="1" /><path clip-path="url(#clip580)" d="M200.904 1542.97 L205.788 1542.97 L205.788 1548.85 L200.904 1548.85 L200.904 1542.97 Z" fill="#000000" fill-rule="nonzero" fill-opacity="1" /><path clip-path="url(#clip580)" d="M225.973 1517.37 Q222.362 1517.37 220.534 1520.93 Q218.728 1524.47 218.728 1531.6 Q218.728 1538.71 220.534 1542.27 Q222.362 1545.82 225.973 1545.82 Q229.608 1545.82 231.413 1542.27 Q233.242 1538.71 233.242 1531.6 Q233.242 1524.47 231.413 1520.93 Q229.608 1517.37 225.973 1517.37 M225.973 1513.66 Q231.784 1513.66 234.839 1518.27 Q237.918 1522.85 237.918 1531.6 Q237.918 1540.33 234.839 1544.94 Q231.784 1549.52 225.973 1549.52 Q220.163 1549.52 217.085 1544.94 Q214.029 1540.33 214.029 1531.6 Q214.029 1522.85 217.085 1518.27 Q220.163 1513.66 225.973 1513.66 Z" fill="#000000" fill-rule="nonzero" fill-opacity="1" /><path clip-path="url(#clip580)" d="M256.135 1517.37 Q252.524 1517.37 250.696 1520.93 Q248.89 1524.47 248.89 1531.6 Q248.89 1538.71 250.696 1542.27 Q252.524 1545.82 256.135 1545.82 Q259.77 1545.82 261.575 1542.27 Q263.404 1538.71 263.404 1531.6 Q263.404 1524.47 261.575 1520.93 Q259.77 1517.37 256.135 1517.37 M256.135 1513.66 Q261.945 1513.66 265.001 1518.27 Q268.08 1522.85 268.08 1531.6 Q268.08 1540.33 265.001 1544.94 Q261.945 1549.52 256.135 1549.52 Q250.325 1549.52 247.246 1544.94 Q244.191 1540.33 244.191 1531.6 Q244.191 1522.85 247.246 1518.27 Q250.325 1513.66 256.135 1513.66 Z" fill="#000000" fill-rule="nonzero" fill-opacity="1" /><path clip-path="url(#clip580)" d="M699.278 1517.37 Q695.667 1517.37 693.838 1520.93 Q692.033 1524.47 692.033 1531.6 Q692.033 1538.71 693.838 1542.27 Q695.667 1545.82 699.278 1545.82 Q702.912 1545.82 704.718 1542.27 Q706.546 1538.71 706.546 1531.6 Q706.546 1524.47 704.718 1520.93 Q702.912 1517.37 699.278 1517.37 M699.278 1513.66 Q705.088 1513.66 708.144 1518.27 Q711.222 1522.85 711.222 1531.6 Q711.222 1540.33 708.144 1544.94 Q705.088 1549.52 699.278 1549.52 Q693.468 1549.52 690.389 1544.94 Q687.334 1540.33 687.334 1531.6 Q687.334 1522.85 690.389 1518.27 Q693.468 1513.66 699.278 1513.66 Z" fill="#000000" fill-rule="nonzero" fill-opacity="1" /><path clip-path="url(#clip580)" d="M719.44 1542.97 L724.324 1542.97 L724.324 1548.85 L719.44 1548.85 L719.44 1542.97 Z" fill="#000000" fill-rule="nonzero" fill-opacity="1" /><path clip-path="url(#clip580)" d="M738.537 1544.91 L754.856 1544.91 L754.856 1548.85 L732.912 1548.85 L732.912 1544.91 Q735.574 1542.16 740.157 1537.53 Q744.764 1532.88 745.944 1531.53 Q748.19 1529.01 749.069 1527.27 Q749.972 1525.51 749.972 1523.82 Q749.972 1521.07 748.028 1519.33 Q746.106 1517.6 743.005 1517.6 Q740.806 1517.6 738.352 1518.36 Q735.921 1519.13 733.144 1520.68 L733.144 1515.95 Q735.968 1514.82 738.421 1514.24 Q740.875 1513.66 742.912 1513.66 Q748.282 1513.66 751.477 1516.35 Q754.671 1519.03 754.671 1523.52 Q754.671 1525.65 753.861 1527.57 Q753.074 1529.47 750.968 1532.07 Q750.389 1532.74 747.287 1535.95 Q744.185 1539.15 738.537 1544.91 Z" fill="#000000" fill-rule="nonzero" fill-opacity="1" /><path clip-path="url(#clip580)" d="M764.717 1514.29 L783.074 1514.29 L783.074 1518.22 L769 1518.22 L769 1526.7 Q770.018 1526.35 771.037 1526.19 Q772.055 1526 773.074 1526 Q778.861 1526 782.241 1529.17 Q785.62 1532.34 785.62 1537.76 Q785.62 1543.34 782.148 1546.44 Q778.676 1549.52 772.356 1549.52 Q770.18 1549.52 767.912 1549.15 Q765.667 1548.78 763.259 1548.04 L763.259 1543.34 Q765.342 1544.47 767.565 1545.03 Q769.787 1545.58 772.264 1545.58 Q776.268 1545.58 778.606 1543.48 Q780.944 1541.37 780.944 1537.76 Q780.944 1534.15 778.606 1532.04 Q776.268 1529.94 772.264 1529.94 Q770.389 1529.94 768.514 1530.35 Q766.662 1530.77 764.717 1531.65 L764.717 1514.29 Z" fill="#000000" fill-rule="nonzero" fill-opacity="1" /><path clip-path="url(#clip580)" d="M1216.82 1517.37 Q1213.21 1517.37 1211.38 1520.93 Q1209.57 1524.47 1209.57 1531.6 Q1209.57 1538.71 1211.38 1542.27 Q1213.21 1545.82 1216.82 1545.82 Q1220.45 1545.82 1222.26 1542.27 Q1224.09 1538.71 1224.09 1531.6 Q1224.09 1524.47 1222.26 1520.93 Q1220.45 1517.37 1216.82 1517.37 M1216.82 1513.66 Q1222.63 1513.66 1225.68 1518.27 Q1228.76 1522.85 1228.76 1531.6 Q1228.76 1540.33 1225.68 1544.94 Q1222.63 1549.52 1216.82 1549.52 Q1211.01 1549.52 1207.93 1544.94 Q1204.87 1540.33 1204.87 1531.6 Q1204.87 1522.85 1207.93 1518.27 Q1211.01 1513.66 1216.82 1513.66 Z" fill="#000000" fill-rule="nonzero" fill-opacity="1" /><path clip-path="url(#clip580)" d="M1236.98 1542.97 L1241.86 1542.97 L1241.86 1548.85 L1236.98 1548.85 L1236.98 1542.97 Z" fill="#000000" fill-rule="nonzero" fill-opacity="1" /><path clip-path="url(#clip580)" d="M1252.1 1514.29 L1270.45 1514.29 L1270.45 1518.22 L1256.38 1518.22 L1256.38 1526.7 Q1257.4 1526.35 1258.42 1526.19 Q1259.43 1526 1260.45 1526 Q1266.24 1526 1269.62 1529.17 Q1273 1532.34 1273 1537.76 Q1273 1543.34 1269.53 1546.44 Q1266.05 1549.52 1259.73 1549.52 Q1257.56 1549.52 1255.29 1549.15 Q1253.05 1548.78 1250.64 1548.04 L1250.64 1543.34 Q1252.72 1544.47 1254.94 1545.03 Q1257.17 1545.58 1259.64 1545.58 Q1263.65 1545.58 1265.98 1543.48 Q1268.32 1541.37 1268.32 1537.76 Q1268.32 1534.15 1265.98 1532.04 Q1263.65 1529.94 1259.64 1529.94 Q1257.77 1529.94 1255.89 1530.35 Q1254.04 1530.77 1252.1 1531.65 L1252.1 1514.29 Z" fill="#000000" fill-rule="nonzero" fill-opacity="1" /><path clip-path="url(#clip580)" d="M1292.21 1517.37 Q1288.6 1517.37 1286.77 1520.93 Q1284.97 1524.47 1284.97 1531.6 Q1284.97 1538.71 1286.77 1542.27 Q1288.6 1545.82 1292.21 1545.82 Q1295.85 1545.82 1297.65 1542.27 Q1299.48 1538.71 1299.48 1531.6 Q1299.48 1524.47 1297.65 1520.93 Q1295.85 1517.37 1292.21 1517.37 M1292.21 1513.66 Q1298.02 1513.66 1301.08 1518.27 Q1304.16 1522.85 1304.16 1531.6 Q1304.16 1540.33 1301.08 1544.94 Q1298.02 1549.52 1292.21 1549.52 Q1286.4 1549.52 1283.32 1544.94 Q1280.27 1540.33 1280.27 1531.6 Q1280.27 1522.85 1283.32 1518.27 Q1286.4 1513.66 1292.21 1513.66 Z" fill="#000000" fill-rule="nonzero" fill-opacity="1" /><path clip-path="url(#clip580)" d="M1735.35 1517.37 Q1731.74 1517.37 1729.91 1520.93 Q1728.11 1524.47 1728.11 1531.6 Q1728.11 1538.71 1729.91 1542.27 Q1731.74 1545.82 1735.35 1545.82 Q1738.99 1545.82 1740.79 1542.27 Q1742.62 1538.71 1742.62 1531.6 Q1742.62 1524.47 1740.79 1520.93 Q1738.99 1517.37 1735.35 1517.37 M1735.35 1513.66 Q1741.16 1513.66 1744.22 1518.27 Q1747.3 1522.85 1747.3 1531.6 Q1747.3 1540.33 1744.22 1544.94 Q1741.16 1549.52 1735.35 1549.52 Q1729.54 1549.52 1726.47 1544.94 Q1723.41 1540.33 1723.41 1531.6 Q1723.41 1522.85 1726.47 1518.27 Q1729.54 1513.66 1735.35 1513.66 Z" fill="#000000" fill-rule="nonzero" fill-opacity="1" /><path clip-path="url(#clip580)" d="M1755.52 1542.97 L1760.4 1542.97 L1760.4 1548.85 L1755.52 1548.85 L1755.52 1542.97 Z" fill="#000000" fill-rule="nonzero" fill-opacity="1" /><path clip-path="url(#clip580)" d="M1769.41 1514.29 L1791.63 1514.29 L1791.63 1516.28 L1779.08 1548.85 L1774.2 1548.85 L1786 1518.22 L1769.41 1518.22 L1769.41 1514.29 Z" fill="#000000" fill-rule="nonzero" fill-opacity="1" /><path clip-path="url(#clip580)" d="M1800.79 1514.29 L1819.15 1514.29 L1819.15 1518.22 L1805.08 1518.22 L1805.08 1526.7 Q1806.09 1526.35 1807.11 1526.19 Q1808.13 1526 1809.15 1526 Q1814.94 1526 1818.32 1529.17 Q1821.7 1532.34 1821.7 1537.76 Q1821.7 1543.34 1818.22 1546.44 Q1814.75 1549.52 1808.43 1549.52 Q1806.26 1549.52 1803.99 1549.15 Q1801.74 1548.78 1799.34 1548.04 L1799.34 1543.34 Q1801.42 1544.47 1803.64 1545.03 Q1805.86 1545.58 1808.34 1545.58 Q1812.34 1545.58 1814.68 1543.48 Q1817.02 1541.37 1817.02 1537.76 Q1817.02 1534.15 1814.68 1532.04 Q1812.34 1529.94 1808.34 1529.94 Q1806.47 1529.94 1804.59 1530.35 Q1802.74 1530.77 1800.79 1531.65 L1800.79 1514.29 Z" fill="#000000" fill-rule="nonzero" fill-opacity="1" /><path clip-path="url(#clip580)" d="M2242.66 1544.91 L2250.3 1544.91 L2250.3 1518.55 L2241.99 1520.21 L2241.99 1515.95 L2250.26 1514.29 L2254.93 1514.29 L2254.93 1544.91 L2262.57 1544.91 L2262.57 1548.85 L2242.66 1548.85 L2242.66 1544.91 Z" fill="#000000" fill-rule="nonzero" fill-opacity="1" /><path clip-path="url(#clip580)" d="M2272.02 1542.97 L2276.9 1542.97 L2276.9 1548.85 L2272.02 1548.85 L2272.02 1542.97 Z" fill="#000000" fill-rule="nonzero" fill-opacity="1" /><path clip-path="url(#clip580)" d="M2297.08 1517.37 Q2293.47 1517.37 2291.64 1520.93 Q2289.84 1524.47 2289.84 1531.6 Q2289.84 1538.71 2291.64 1542.27 Q2293.47 1545.82 2297.08 1545.82 Q2300.72 1545.82 2302.52 1542.27 Q2304.35 1538.71 2304.35 1531.6 Q2304.35 1524.47 2302.52 1520.93 Q2300.72 1517.37 2297.08 1517.37 M2297.08 1513.66 Q2302.89 1513.66 2305.95 1518.27 Q2309.03 1522.85 2309.03 1531.6 Q2309.03 1540.33 2305.95 1544.94 Q2302.89 1549.52 2297.08 1549.52 Q2291.27 1549.52 2288.2 1544.94 Q2285.14 1540.33 2285.14 1531.6 Q2285.14 1522.85 2288.2 1518.27 Q2291.27 1513.66 2297.08 1513.66 Z" fill="#000000" fill-rule="nonzero" fill-opacity="1" /><path clip-path="url(#clip580)" d="M2327.25 1517.37 Q2323.64 1517.37 2321.81 1520.93 Q2320 1524.47 2320 1531.6 Q2320 1538.71 2321.81 1542.27 Q2323.64 1545.82 2327.25 1545.82 Q2330.88 1545.82 2332.69 1542.27 Q2334.51 1538.71 2334.51 1531.6 Q2334.51 1524.47 2332.69 1520.93 Q2330.88 1517.37 2327.25 1517.37 M2327.25 1513.66 Q2333.06 1513.66 2336.11 1518.27 Q2339.19 1522.85 2339.19 1531.6 Q2339.19 1540.33 2336.11 1544.94 Q2333.06 1549.52 2327.25 1549.52 Q2321.44 1549.52 2318.36 1544.94 Q2315.3 1540.33 2315.3 1531.6 Q2315.3 1522.85 2318.36 1518.27 Q2321.44 1513.66 2327.25 1513.66 Z" fill="#000000" fill-rule="nonzero" fill-opacity="1" /><polyline clip-path="url(#clip580)" style="stroke:#000000; stroke-linecap:round; stroke-linejoin:round; stroke-width:4; stroke-opacity:1; fill:none" points="156.274,1486.45 156.274,47.2441 "/>
<polyline clip-path="url(#clip580)" style="stroke:#000000; stroke-linecap:round; stroke-linejoin:round; stroke-width:4; stroke-opacity:1; fill:none" points="156.274,1309.77 175.172,1309.77 "/>
<polyline clip-path="url(#clip580)" style="stroke:#000000; stroke-linecap:round; stroke-linejoin:round; stroke-width:4; stroke-opacity:1; fill:none" points="156.274,1055 175.172,1055 "/>
<polyline clip-path="url(#clip580)" style="stroke:#000000; stroke-linecap:round; stroke-linejoin:round; stroke-width:4; stroke-opacity:1; fill:none" points="156.274,800.237 175.172,800.237 "/>
<polyline clip-path="url(#clip580)" style="stroke:#000000; stroke-linecap:round; stroke-linejoin:round; stroke-width:4; stroke-opacity:1; fill:none" points="156.274,545.471 175.172,545.471 "/>
<polyline clip-path="url(#clip580)" style="stroke:#000000; stroke-linecap:round; stroke-linejoin:round; stroke-width:4; stroke-opacity:1; fill:none" points="156.274,290.705 175.172,290.705 "/>
<path clip-path="url(#clip580)" d="M62.9365 1295.57 Q59.3254 1295.57 57.4967 1299.13 Q55.6912 1302.67 55.6912 1309.8 Q55.6912 1316.91 57.4967 1320.47 Q59.3254 1324.02 62.9365 1324.02 Q66.5707 1324.02 68.3763 1320.47 Q70.205 1316.91 70.205 1309.8 Q70.205 1302.67 68.3763 1299.13 Q66.5707 1295.57 62.9365 1295.57 M62.9365 1291.86 Q68.7467 1291.86 71.8022 1296.47 Q74.8809 1301.05 74.8809 1309.8 Q74.8809 1318.53 71.8022 1323.14 Q68.7467 1327.72 62.9365 1327.72 Q57.1264 1327.72 54.0477 1323.14 Q50.9921 1318.53 50.9921 1309.8 Q50.9921 1301.05 54.0477 1296.47 Q57.1264 1291.86 62.9365 1291.86 Z" fill="#000000" fill-rule="nonzero" fill-opacity="1" /><path clip-path="url(#clip580)" d="M83.0984 1321.17 L87.9827 1321.17 L87.9827 1327.05 L83.0984 1327.05 L83.0984 1321.17 Z" fill="#000000" fill-rule="nonzero" fill-opacity="1" /><path clip-path="url(#clip580)" d="M108.746 1307.91 Q105.598 1307.91 103.746 1310.06 Q101.918 1312.21 101.918 1315.96 Q101.918 1319.69 103.746 1321.86 Q105.598 1324.02 108.746 1324.02 Q111.895 1324.02 113.723 1321.86 Q115.575 1319.69 115.575 1315.96 Q115.575 1312.21 113.723 1310.06 Q111.895 1307.91 108.746 1307.91 M118.029 1293.25 L118.029 1297.51 Q116.27 1296.68 114.464 1296.24 Q112.682 1295.8 110.922 1295.8 Q106.293 1295.8 103.839 1298.92 Q101.409 1302.05 101.061 1308.37 Q102.427 1306.35 104.487 1305.29 Q106.547 1304.2 109.024 1304.2 Q114.233 1304.2 117.242 1307.37 Q120.274 1310.52 120.274 1315.96 Q120.274 1321.28 117.126 1324.5 Q113.978 1327.72 108.746 1327.72 Q102.751 1327.72 99.5798 1323.14 Q96.4085 1318.53 96.4085 1309.8 Q96.4085 1301.61 100.297 1296.75 Q104.186 1291.86 110.737 1291.86 Q112.496 1291.86 114.279 1292.21 Q116.084 1292.56 118.029 1293.25 Z" fill="#000000" fill-rule="nonzero" fill-opacity="1" /><path clip-path="url(#clip580)" d="M63.1911 1040.8 Q59.58 1040.8 57.7513 1044.37 Q55.9458 1047.91 55.9458 1055.04 Q55.9458 1062.14 57.7513 1065.71 Q59.58 1069.25 63.1911 1069.25 Q66.8254 1069.25 68.6309 1065.71 Q70.4596 1062.14 70.4596 1055.04 Q70.4596 1047.91 68.6309 1044.37 Q66.8254 1040.8 63.1911 1040.8 M63.1911 1037.1 Q69.0013 1037.1 72.0568 1041.7 Q75.1355 1046.29 75.1355 1055.04 Q75.1355 1063.76 72.0568 1068.37 Q69.0013 1072.95 63.1911 1072.95 Q57.381 1072.95 54.3023 1068.37 Q51.2468 1063.76 51.2468 1055.04 Q51.2468 1046.29 54.3023 1041.7 Q57.381 1037.1 63.1911 1037.1 Z" fill="#000000" fill-rule="nonzero" fill-opacity="1" /><path clip-path="url(#clip580)" d="M83.3531 1066.4 L88.2373 1066.4 L88.2373 1072.28 L83.3531 1072.28 L83.3531 1066.4 Z" fill="#000000" fill-rule="nonzero" fill-opacity="1" /><path clip-path="url(#clip580)" d="M108.422 1055.87 Q105.089 1055.87 103.168 1057.65 Q101.27 1059.44 101.27 1062.56 Q101.27 1065.69 103.168 1067.47 Q105.089 1069.25 108.422 1069.25 Q111.756 1069.25 113.677 1067.47 Q115.598 1065.66 115.598 1062.56 Q115.598 1059.44 113.677 1057.65 Q111.779 1055.87 108.422 1055.87 M103.746 1053.88 Q100.737 1053.14 99.0474 1051.08 Q97.3808 1049.02 97.3808 1046.06 Q97.3808 1041.91 100.321 1039.51 Q103.284 1037.1 108.422 1037.1 Q113.584 1037.1 116.524 1039.51 Q119.464 1041.91 119.464 1046.06 Q119.464 1049.02 117.774 1051.08 Q116.108 1053.14 113.121 1053.88 Q116.501 1054.67 118.376 1056.96 Q120.274 1059.25 120.274 1062.56 Q120.274 1067.58 117.195 1070.27 Q114.14 1072.95 108.422 1072.95 Q102.705 1072.95 99.6261 1070.27 Q96.5706 1067.58 96.5706 1062.56 Q96.5706 1059.25 98.4687 1056.96 Q100.367 1054.67 103.746 1053.88 M102.034 1046.5 Q102.034 1049.18 103.7 1050.69 Q105.39 1052.19 108.422 1052.19 Q111.432 1052.19 113.121 1050.69 Q114.834 1049.18 114.834 1046.5 Q114.834 1043.81 113.121 1042.31 Q111.432 1040.8 108.422 1040.8 Q105.39 1040.8 103.7 1042.31 Q102.034 1043.81 102.034 1046.5 Z" fill="#000000" fill-rule="nonzero" fill-opacity="1" /><path clip-path="url(#clip580)" d="M53.9088 813.582 L61.5476 813.582 L61.5476 787.216 L53.2375 788.883 L53.2375 784.623 L61.5013 782.957 L66.1772 782.957 L66.1772 813.582 L73.8161 813.582 L73.8161 817.517 L53.9088 817.517 L53.9088 813.582 Z" fill="#000000" fill-rule="nonzero" fill-opacity="1" /><path clip-path="url(#clip580)" d="M83.2605 811.637 L88.1447 811.637 L88.1447 817.517 L83.2605 817.517 L83.2605 811.637 Z" fill="#000000" fill-rule="nonzero" fill-opacity="1" /><path clip-path="url(#clip580)" d="M108.33 786.035 Q104.719 786.035 102.89 789.6 Q101.084 793.142 101.084 800.272 Q101.084 807.378 102.89 810.943 Q104.719 814.484 108.33 814.484 Q111.964 814.484 113.77 810.943 Q115.598 807.378 115.598 800.272 Q115.598 793.142 113.77 789.6 Q111.964 786.035 108.33 786.035 M108.33 782.332 Q114.14 782.332 117.195 786.938 Q120.274 791.522 120.274 800.272 Q120.274 808.998 117.195 813.605 Q114.14 818.188 108.33 818.188 Q102.52 818.188 99.4409 813.605 Q96.3854 808.998 96.3854 800.272 Q96.3854 791.522 99.4409 786.938 Q102.52 782.332 108.33 782.332 Z" fill="#000000" fill-rule="nonzero" fill-opacity="1" /><path clip-path="url(#clip580)" d="M55.506 558.816 L63.1448 558.816 L63.1448 532.45 L54.8347 534.117 L54.8347 529.858 L63.0985 528.191 L67.7744 528.191 L67.7744 558.816 L75.4133 558.816 L75.4133 562.751 L55.506 562.751 L55.506 558.816 Z" fill="#000000" fill-rule="nonzero" fill-opacity="1" /><path clip-path="url(#clip580)" d="M84.8577 556.871 L89.7419 556.871 L89.7419 562.751 L84.8577 562.751 L84.8577 556.871 Z" fill="#000000" fill-rule="nonzero" fill-opacity="1" /><path clip-path="url(#clip580)" d="M103.955 558.816 L120.274 558.816 L120.274 562.751 L98.3298 562.751 L98.3298 558.816 Q100.992 556.061 105.575 551.432 Q110.182 546.779 111.362 545.436 Q113.608 542.913 114.487 541.177 Q115.39 539.418 115.39 537.728 Q115.39 534.973 113.445 533.237 Q111.524 531.501 108.422 531.501 Q106.223 531.501 103.77 532.265 Q101.339 533.029 98.5613 534.58 L98.5613 529.858 Q101.385 528.723 103.839 528.145 Q106.293 527.566 108.33 527.566 Q113.7 527.566 116.895 530.251 Q120.089 532.936 120.089 537.427 Q120.089 539.557 119.279 541.478 Q118.492 543.376 116.385 545.969 Q115.807 546.64 112.705 549.857 Q109.603 553.052 103.955 558.816 Z" fill="#000000" fill-rule="nonzero" fill-opacity="1" /><path clip-path="url(#clip580)" d="M53.4227 304.05 L61.0615 304.05 L61.0615 277.684 L52.7514 279.351 L52.7514 275.092 L61.0152 273.425 L65.6911 273.425 L65.6911 304.05 L73.33 304.05 L73.33 307.985 L53.4227 307.985 L53.4227 304.05 Z" fill="#000000" fill-rule="nonzero" fill-opacity="1" /><path clip-path="url(#clip580)" d="M82.7744 302.105 L87.6586 302.105 L87.6586 307.985 L82.7744 307.985 L82.7744 302.105 Z" fill="#000000" fill-rule="nonzero" fill-opacity="1" /><path clip-path="url(#clip580)" d="M110.691 277.499 L98.8854 295.948 L110.691 295.948 L110.691 277.499 M109.464 273.425 L115.344 273.425 L115.344 295.948 L120.274 295.948 L120.274 299.837 L115.344 299.837 L115.344 307.985 L110.691 307.985 L110.691 299.837 L95.0891 299.837 L95.0891 295.323 L109.464 273.425 Z" fill="#000000" fill-rule="nonzero" fill-opacity="1" /><polyline clip-path="url(#clip581)" style="stroke:#009af9; stroke-linecap:round; stroke-linejoin:round; stroke-width:12; stroke-opacity:1; fill:none" points="218.439,1437.15 425.654,1441.19 632.869,1377.02 840.085,1427.76 1047.3,1402.5 1254.52,1314.69 1461.73,1354.23 1668.95,1383.9 1876.16,1314.61 2083.38,1182.84 2290.59,1077.72 "/>
<polyline clip-path="url(#clip581)" style="stroke:#e26f46; stroke-linecap:round; stroke-linejoin:round; stroke-width:12; stroke-opacity:1; fill:none" points="218.439,1437.15 425.654,1403.42 632.869,1281.03 840.085,1255.11 1047.3,1144.95 1254.52,1117.12 1461.73,1045.5 1668.95,1140.35 1876.16,941.74 2083.38,560.183 2290.59,87.9763 "/>
<polyline clip-path="url(#clip581)" style="stroke:#3da44d; stroke-linecap:round; stroke-linejoin:round; stroke-width:12; stroke-opacity:1; fill:none" points="218.439,1437.15 425.654,1415.84 632.869,1260.28 840.085,1194.84 1047.3,1228.58 1254.52,1255.34 1461.73,1341.93 1668.95,1256.17 1876.16,1153.04 2083.38,1025.57 2290.59,982.14 "/>
<polyline clip-path="url(#clip581)" style="stroke:#c271d2; stroke-linecap:round; stroke-linejoin:round; stroke-width:12; stroke-opacity:1; fill:none" points="218.439,1437.15 425.654,1333.88 632.869,1371.43 840.085,1261.64 1047.3,1094.05 1254.52,1058.25 1461.73,1115.05 1668.95,907.792 1876.16,594.558 2083.38,459.615 2290.59,178.115 "/>
<polyline clip-path="url(#clip581)" style="stroke:#ac8d18; stroke-linecap:round; stroke-linejoin:round; stroke-width:12; stroke-opacity:1; fill:none" points="218.439,1437.15 425.654,1325.39 632.869,1338.54 840.085,1306.52 1047.3,1019.69 1254.52,670.911 1461.73,399.878 1668.95,149.555 1876.16,256.754 2083.38,527.238 2290.59,549.55 "/>
<polyline clip-path="url(#clip581)" style="stroke:#00a9ad; stroke-linecap:round; stroke-linejoin:round; stroke-width:12; stroke-opacity:1; fill:none" points="218.439,1437.15 425.654,1417.42 632.869,1445.72 840.085,1373.18 1047.3,1354.55 1254.52,1415.81 1461.73,1406.03 1668.95,1336.55 1876.16,1280.27 2083.38,1255.69 2290.59,1152.11 "/>
<polyline clip-path="url(#clip581)" style="stroke:#ed5d92; stroke-linecap:round; stroke-linejoin:round; stroke-width:12; stroke-opacity:1; fill:none" points="218.439,1437.15 425.654,1415.66 632.869,1352.57 840.085,1375.93 1047.3,1352 1254.52,1240.7 1461.73,1167.43 1668.95,1063.31 1876.16,1003.64 2083.38,903.85 2290.59,819.772 "/>
<polyline clip-path="url(#clip581)" style="stroke:#c68125; stroke-linecap:round; stroke-linejoin:round; stroke-width:12; stroke-opacity:1; fill:none" points="218.439,1437.15 425.654,1424.57 632.869,1300.13 840.085,1319.96 1047.3,1359.17 1254.52,1306.1 1461.73,1245.77 1668.95,1264.6 1876.16,928.079 2083.38,707.607 2290.59,587.722 "/>
</svg>
