<?xml version="1.0" encoding="utf-8"?>
<svg xmlns="http://www.w3.org/2000/svg" xmlns:xlink="http://www.w3.org/1999/xlink" width="600" height="400" viewBox="0 0 2400 1600">
<defs>
  <clipPath id="clip880">
    <rect x="0" y="0" width="2400" height="1600"/>
  </clipPath>
</defs>
<path clip-path="url(#clip880)" d="M0 1600 L2400 1600 L2400 0 L0 0  Z" fill="#ffffff" fill-rule="evenodd" fill-opacity="1"/>
<defs>
  <clipPath id="clip881">
    <rect x="480" y="0" width="1681" height="1600"/>
  </clipPath>
</defs>
<path clip-path="url(#clip880)" d="M156.274 1486.45 L2352.76 1486.45 L2352.76 47.2441 L156.274 47.2441  Z" fill="#ffffff" fill-rule="evenodd" fill-opacity="1"/>
<defs>
  <clipPath id="clip882">
    <rect x="156" y="47" width="2197" height="1440"/>
  </clipPath>
</defs>
<polyline clip-path="url(#clip882)" style="stroke:#000000; stroke-linecap:round; stroke-linejoin:round; stroke-width:2; stroke-opacity:0.1; fill:none" points="218.439,1486.45 218.439,47.2441 "/>
<polyline clip-path="url(#clip882)" style="stroke:#000000; stroke-linecap:round; stroke-linejoin:round; stroke-width:2; stroke-opacity:0.1; fill:none" points="736.477,1486.45 736.477,47.2441 "/>
<polyline clip-path="url(#clip882)" style="stroke:#000000; stroke-linecap:round; stroke-linejoin:round; stroke-width:2; stroke-opacity:0.1; fill:none" points="1254.52,1486.45 1254.52,47.2441 "/>
<polyline clip-path="url(#clip882)" style="stroke:#000000; stroke-linecap:round; stroke-linejoin:round; stroke-width:2; stroke-opacity:0.1; fill:none" points="1772.55,1486.45 1772.55,47.2441 "/>
<polyline clip-path="url(#clip882)" style="stroke:#000000; stroke-linecap:round; stroke-linejoin:round; stroke-width:2; stroke-opacity:0.1; fill:none" points="2290.59,1486.45 2290.59,47.2441 "/>
<polyline clip-path="url(#clip882)" style="stroke:#000000; stroke-linecap:round; stroke-linejoin:round; stroke-width:2; stroke-opacity:0.1; fill:none" points="156.274,1260.65 2352.76,1260.65 "/>
<polyline clip-path="url(#clip882)" style="stroke:#000000; stroke-linecap:round; stroke-linejoin:round; stroke-width:2; stroke-opacity:0.1; fill:none" points="156.274,987.76 2352.76,987.76 "/>
<polyline clip-path="url(#clip882)" style="stroke:#000000; stroke-linecap:round; stroke-linejoin:round; stroke-width:2; stroke-opacity:0.1; fill:none" points="156.274,714.868 2352.76,714.868 "/>
<polyline clip-path="url(#clip882)" style="stroke:#000000; stroke-linecap:round; stroke-linejoin:round; stroke-width:2; stroke-opacity:0.1; fill:none" points="156.274,441.976 2352.76,441.976 "/>
<polyline clip-path="url(#clip882)" style="stroke:#000000; stroke-linecap:round; stroke-linejoin:round; stroke-width:2; stroke-opacity:0.1; fill:none" points="156.274,169.085 2352.76,169.085 "/>
<polyline clip-path="url(#clip880)" style="stroke:#000000; stroke-linecap:round; stroke-linejoin:round; stroke-width:4; stroke-opacity:1; fill:none" points="156.274,1486.45 2352.76,1486.45 "/>
<polyline clip-path="url(#clip880)" style="stroke:#000000; stroke-linecap:round; stroke-linejoin:round; stroke-width:4; stroke-opacity:1; fill:none" points="218.439,1486.45 218.439,1467.55 "/>
<polyline clip-path="url(#clip880)" style="stroke:#000000; stroke-linecap:round; stroke-linejoin:round; stroke-width:4; stroke-opacity:1; fill:none" points="736.477,1486.45 736.477,1467.55 "/>
<polyline clip-path="url(#clip880)" style="stroke:#000000; stroke-linecap:round; stroke-linejoin:round; stroke-width:4; stroke-opacity:1; fill:none" points="1254.52,1486.45 1254.52,1467.55 "/>
<polyline clip-path="url(#clip880)" style="stroke:#000000; stroke-linecap:round; stroke-linejoin:round; stroke-width:4; stroke-opacity:1; fill:none" points="1772.55,1486.45 1772.55,1467.55 "/>
<polyline clip-path="url(#clip880)" style="stroke:#000000; stroke-linecap:round; stroke-linejoin:round; stroke-width:4; stroke-opacity:1; fill:none" points="2290.59,1486.45 2290.59,1467.55 "/>
<path clip-path="url(#clip880)" d="M180.742 1517.37 Q177.131 1517.37 175.302 1520.93 Q173.497 1524.47 173.497 1531.6 Q173.497 1538.71 175.302 1542.27 Q177.131 1545.82 180.742 1545.82 Q184.376 1545.82 186.182 1542.27 Q188.011 1538.71 188.011 1531.6 Q188.011 1524.47 186.182 1520.93 Q184.376 1517.37 180.742 1517.37 M180.742 1513.66 Q186.552 1513.66 189.608 1518.27 Q192.687 1522.85 192.687 1531.6 Q192.687 1540.33 189.608 1544.94 Q186.552 1549.52 180.742 1549.52 Q174.932 1549.52 171.853 1544.94 Q168.798 1540.33 168.798 1531.6 Q168.798 1522.85 171.853 1518.27 Q174.932 1513.66 180.742 1513.66 Z" fill="#000000" fill-rule="nonzero" fill-opacity="1" /><path clip-path="url(#clip880)" d="M200.904 1542.97 L205.788 1542.97 L205.788 1548.85 L200.904 1548.85 L200.904 1542.97 Z" fill="#000000" fill-rule="nonzero" fill-opacity="1" /><path clip-path="url(#clip880)" d="M225.973 1517.37 Q222.362 1517.37 220.534 1520.93 Q218.728 1524.47 218.728 1531.6 Q218.728 1538.71 220.534 1542.27 Q222.362 1545.82 225.973 1545.82 Q229.608 1545.82 231.413 1542.27 Q233.242 1538.71 233.242 1531.6 Q233.242 1524.47 231.413 1520.93 Q229.608 1517.37 225.973 1517.37 M225.973 1513.66 Q231.784 1513.66 234.839 1518.27 Q237.918 1522.85 237.918 1531.6 Q237.918 1540.33 234.839 1544.94 Q231.784 1549.52 225.973 1549.52 Q220.163 1549.52 217.085 1544.94 Q214.029 1540.33 214.029 1531.6 Q214.029 1522.85 217.085 1518.27 Q220.163 1513.66 225.973 1513.66 Z" fill="#000000" fill-rule="nonzero" fill-opacity="1" /><path clip-path="url(#clip880)" d="M256.135 1517.37 Q252.524 1517.37 250.696 1520.93 Q248.89 1524.47 248.89 1531.6 Q248.89 1538.71 250.696 1542.27 Q252.524 1545.82 256.135 1545.82 Q259.77 1545.82 261.575 1542.27 Q263.404 1538.71 263.404 1531.6 Q263.404 1524.47 261.575 1520.93 Q259.77 1517.37 256.135 1517.37 M256.135 1513.66 Q261.945 1513.66 265.001 1518.27 Q268.08 1522.85 268.08 1531.6 Q268.08 1540.33 265.001 1544.94 Q261.945 1549.52 256.135 1549.52 Q250.325 1549.52 247.246 1544.94 Q244.191 1540.33 244.191 1531.6 Q244.191 1522.85 247.246 1518.27 Q250.325 1513.66 256.135 1513.66 Z" fill="#000000" fill-rule="nonzero" fill-opacity="1" /><path clip-path="url(#clip880)" d="M699.278 1517.37 Q695.667 1517.37 693.838 1520.93 Q692.033 1524.47 692.033 1531.6 Q692.033 1538.71 693.838 1542.27 Q695.667 1545.82 699.278 1545.82 Q702.912 1545.82 704.718 1542.27 Q706.546 1538.71 706.546 1531.6 Q706.546 1524.47 704.718 1520.93 Q702.912 1517.37 699.278 1517.37 M699.278 1513.66 Q705.088 1513.66 708.144 1518.27 Q711.222 1522.85 711.222 1531.6 Q711.222 1540.33 708.144 1544.94 Q705.088 1549.52 699.278 1549.52 Q693.468 1549.52 690.389 1544.94 Q687.334 1540.33 687.334 1531.6 Q687.334 1522.85 690.389 1518.27 Q693.468 1513.66 699.278 1513.66 Z" fill="#000000" fill-rule="nonzero" fill-opacity="1" /><path clip-path="url(#clip880)" d="M719.44 1542.97 L724.324 1542.97 L724.324 1548.85 L719.44 1548.85 L719.44 1542.97 Z" fill="#000000" fill-rule="nonzero" fill-opacity="1" /><path clip-path="url(#clip880)" d="M738.537 1544.91 L754.856 1544.91 L754.856 1548.85 L732.912 1548.85 L732.912 1544.91 Q735.574 1542.16 740.157 1537.53 Q744.764 1532.88 745.944 1531.53 Q748.19 1529.01 749.069 1527.27 Q749.972 1525.51 749.972 1523.82 Q749.972 1521.07 748.028 1519.33 Q746.106 1517.6 743.005 1517.6 Q740.806 1517.6 738.352 1518.36 Q735.921 1519.13 733.144 1520.68 L733.144 1515.95 Q735.968 1514.82 738.421 1514.24 Q740.875 1513.66 742.912 1513.66 Q748.282 1513.66 751.477 1516.35 Q754.671 1519.03 754.671 1523.52 Q754.671 1525.65 753.861 1527.57 Q753.074 1529.47 750.968 1532.07 Q750.389 1532.74 747.287 1535.95 Q744.185 1539.15 738.537 1544.91 Z" fill="#000000" fill-rule="nonzero" fill-opacity="1" /><path clip-path="url(#clip880)" d="M764.717 1514.29 L783.074 1514.29 L783.074 1518.22 L769 1518.22 L769 1526.7 Q770.018 1526.35 771.037 1526.19 Q772.055 1526 773.074 1526 Q778.861 1526 782.241 1529.17 Q785.62 1532.34 785.62 1537.76 Q785.62 1543.34 782.148 1546.44 Q778.676 1549.52 772.356 1549.52 Q770.18 1549.52 767.912 1549.15 Q765.667 1548.78 763.259 1548.04 L763.259 1543.34 Q765.342 1544.47 767.565 1545.03 Q769.787 1545.58 772.264 1545.58 Q776.268 1545.58 778.606 1543.48 Q780.944 1541.37 780.944 1537.76 Q780.944 1534.15 778.606 1532.04 Q776.268 1529.94 772.264 1529.94 Q770.389 1529.94 768.514 1530.35 Q766.662 1530.77 764.717 1531.65 L764.717 1514.29 Z" fill="#000000" fill-rule="nonzero" fill-opacity="1" /><path clip-path="url(#clip880)" d="M1216.82 1517.37 Q1213.21 1517.37 1211.38 1520.93 Q1209.57 1524.47 1209.57 1531.6 Q1209.57 1538.71 1211.38 1542.27 Q1213.21 1545.82 1216.82 1545.82 Q1220.45 1545.82 1222.26 1542.27 Q1224.09 1538.71 1224.09 1531.6 Q1224.09 1524.47 1222.26 1520.93 Q1220.45 1517.37 1216.82 1517.37 M1216.82 1513.66 Q1222.63 1513.66 1225.68 1518.27 Q1228.76 1522.85 1228.76 1531.6 Q1228.76 1540.33 1225.68 1544.94 Q1222.63 1549.52 1216.82 1549.52 Q1211.01 1549.52 1207.93 1544.94 Q1204.87 1540.33 1204.87 1531.6 Q1204.87 1522.85 1207.93 1518.27 Q1211.01 1513.66 1216.82 1513.66 Z" fill="#000000" fill-rule="nonzero" fill-opacity="1" /><path clip-path="url(#clip880)" d="M1236.98 1542.97 L1241.86 1542.97 L1241.86 1548.85 L1236.98 1548.85 L1236.98 1542.97 Z" fill="#000000" fill-rule="nonzero" fill-opacity="1" /><path clip-path="url(#clip880)" d="M1252.1 1514.29 L1270.45 1514.29 L1270.45 1518.22 L1256.38 1518.22 L1256.38 1526.7 Q1257.4 1526.35 1258.42 1526.19 Q1259.43 1526 1260.45 1526 Q1266.24 1526 1269.62 1529.17 Q1273 1532.34 1273 1537.76 Q1273 1543.34 1269.53 1546.44 Q1266.05 1549.52 1259.73 1549.52 Q1257.56 1549.52 1255.29 1549.15 Q1253.05 1548.78 1250.64 1548.04 L1250.64 1543.34 Q1252.72 1544.47 1254.94 1545.03 Q1257.17 1545.58 1259.64 1545.58 Q1263.65 1545.58 1265.98 1543.48 Q1268.32 1541.37 1268.32 1537.76 Q1268.32 1534.15 1265.98 1532.04 Q1263.65 1529.94 1259.64 1529.94 Q1257.77 1529.94 1255.89 1530.35 Q1254.04 1530.77 1252.1 1531.65 L1252.1 1514.29 Z" fill="#000000" fill-rule="nonzero" fill-opacity="1" /><path clip-path="url(#clip880)" d="M1292.21 1517.37 Q1288.6 1517.37 1286.77 1520.93 Q1284.97 1524.47 1284.97 1531.6 Q1284.97 1538.71 1286.77 1542.27 Q1288.6 1545.82 1292.21 1545.82 Q1295.85 1545.82 1297.65 1542.27 Q1299.48 1538.71 1299.48 1531.6 Q1299.48 1524.47 1297.65 1520.93 Q1295.85 1517.37 1292.21 1517.37 M1292.21 1513.66 Q1298.02 1513.66 1301.08 1518.27 Q1304.16 1522.85 1304.16 1531.6 Q1304.16 1540.33 1301.08 1544.94 Q1298.02 1549.52 1292.21 1549.52 Q1286.4 1549.52 1283.32 1544.94 Q1280.27 1540.33 1280.27 1531.6 Q1280.27 1522.85 1283.32 1518.27 Q1286.4 1513.66 1292.21 1513.66 Z" fill="#000000" fill-rule="nonzero" fill-opacity="1" /><path clip-path="url(#clip880)" d="M1735.35 1517.37 Q1731.74 1517.37 1729.91 1520.93 Q1728.11 1524.47 1728.11 1531.6 Q1728.11 1538.71 1729.91 1542.27 Q1731.74 1545.82 1735.35 1545.82 Q1738.99 1545.82 1740.79 1542.27 Q1742.62 1538.71 1742.62 1531.6 Q1742.62 1524.47 1740.79 1520.93 Q1738.99 1517.37 1735.35 1517.37 M1735.35 1513.66 Q1741.16 1513.66 1744.22 1518.27 Q1747.3 1522.85 1747.3 1531.6 Q1747.3 1540.33 1744.22 1544.94 Q1741.16 1549.52 1735.35 1549.52 Q1729.54 1549.52 1726.47 1544.94 Q1723.41 1540.33 1723.41 1531.6 Q1723.41 1522.85 1726.47 1518.27 Q1729.54 1513.66 1735.35 1513.66 Z" fill="#000000" fill-rule="nonzero" fill-opacity="1" /><path clip-path="url(#clip880)" d="M1755.52 1542.97 L1760.4 1542.97 L1760.4 1548.85 L1755.52 1548.85 L1755.52 1542.97 Z" fill="#000000" fill-rule="nonzero" fill-opacity="1" /><path clip-path="url(#clip880)" d="M1769.41 1514.29 L1791.63 1514.29 L1791.63 1516.28 L1779.08 1548.85 L1774.2 1548.85 L1786 1518.22 L1769.41 1518.22 L1769.41 1514.29 Z" fill="#000000" fill-rule="nonzero" fill-opacity="1" /><path clip-path="url(#clip880)" d="M1800.79 1514.29 L1819.15 1514.29 L1819.15 1518.22 L1805.08 1518.22 L1805.08 1526.7 Q1806.09 1526.35 1807.11 1526.19 Q1808.13 1526 1809.15 1526 Q1814.94 1526 1818.32 1529.17 Q1821.7 1532.34 1821.7 1537.76 Q1821.7 1543.34 1818.22 1546.44 Q1814.75 1549.52 1808.43 1549.52 Q1806.26 1549.52 1803.99 1549.15 Q1801.74 1548.78 1799.34 1548.04 L1799.34 1543.34 Q1801.42 1544.47 1803.64 1545.03 Q1805.86 1545.58 1808.34 1545.58 Q1812.34 1545.58 1814.68 1543.48 Q1817.02 1541.37 1817.02 1537.76 Q1817.02 1534.15 1814.68 1532.04 Q1812.34 1529.94 1808.34 1529.94 Q1806.47 1529.94 1804.59 1530.35 Q1802.74 1530.77 1800.79 1531.65 L1800.79 1514.29 Z" fill="#000000" fill-rule="nonzero" fill-opacity="1" /><path clip-path="url(#clip880)" d="M2242.66 1544.91 L2250.3 1544.91 L2250.3 1518.55 L2241.99 1520.21 L2241.99 1515.95 L2250.26 1514.29 L2254.93 1514.29 L2254.93 1544.91 L2262.57 1544.91 L2262.57 1548.85 L2242.66 1548.85 L2242.66 1544.91 Z" fill="#000000" fill-rule="nonzero" fill-opacity="1" /><path clip-path="url(#clip880)" d="M2272.02 1542.97 L2276.9 1542.97 L2276.9 1548.85 L2272.02 1548.85 L2272.02 1542.97 Z" fill="#000000" fill-rule="nonzero" fill-opacity="1" /><path clip-path="url(#clip880)" d="M2297.08 1517.37 Q2293.47 1517.37 2291.64 1520.93 Q2289.84 1524.47 2289.84 1531.6 Q2289.84 1538.71 2291.64 1542.27 Q2293.47 1545.82 2297.08 1545.82 Q2300.72 1545.82 2302.52 1542.27 Q2304.35 1538.71 2304.35 1531.6 Q2304.35 1524.47 2302.52 1520.93 Q2300.72 1517.37 2297.08 1517.37 M2297.08 1513.66 Q2302.89 1513.66 2305.95 1518.27 Q2309.03 1522.85 2309.03 1531.6 Q2309.03 1540.33 2305.95 1544.94 Q2302.89 1549.52 2297.08 1549.52 Q2291.27 1549.52 2288.2 1544.94 Q2285.14 1540.33 2285.14 1531.6 Q2285.14 1522.85 2288.2 1518.27 Q2291.27 1513.66 2297.08 1513.66 Z" fill="#000000" fill-rule="nonzero" fill-opacity="1" /><path clip-path="url(#clip880)" d="M2327.25 1517.37 Q2323.64 1517.37 2321.81 1520.93 Q2320 1524.47 2320 1531.6 Q2320 1538.71 2321.81 1542.27 Q2323.64 1545.82 2327.25 1545.82 Q2330.88 1545.82 2332.69 1542.27 Q2334.51 1538.71 2334.51 1531.6 Q2334.51 1524.47 2332.69 1520.93 Q2330.88 1517.37 2327.25 1517.37 M2327.25 1513.66 Q2333.06 1513.66 2336.11 1518.27 Q2339.19 1522.85 2339.19 1531.6 Q2339.19 1540.33 2336.11 1544.94 Q2333.06 1549.52 2327.25 1549.52 Q2321.44 1549.52 2318.36 1544.94 Q2315.3 1540.33 2315.3 1531.6 Q2315.3 1522.85 2318.36 1518.27 Q2321.44 1513.66 2327.25 1513.66 Z" fill="#000000" fill-rule="nonzero" fill-opacity="1" /><polyline clip-path="url(#clip880)" style="stroke:#000000; stroke-linecap:round; stroke-linejoin:round; stroke-width:4; stroke-opacity:1; fill:none" points="156.274,1486.45 156.274,47.2441 "/>
<polyline clip-path="url(#clip880)" style="stroke:#000000; stroke-linecap:round; stroke-linejoin:round; stroke-width:4; stroke-opacity:1; fill:none" points="156.274,1260.65 175.172,1260.65 "/>
<polyline clip-path="url(#clip880)" style="stroke:#000000; stroke-linecap:round; stroke-linejoin:round; stroke-width:4; stroke-opacity:1; fill:none" points="156.274,987.76 175.172,987.76 "/>
<polyline clip-path="url(#clip880)" style="stroke:#000000; stroke-linecap:round; stroke-linejoin:round; stroke-width:4; stroke-opacity:1; fill:none" points="156.274,714.868 175.172,714.868 "/>
<polyline clip-path="url(#clip880)" style="stroke:#000000; stroke-linecap:round; stroke-linejoin:round; stroke-width:4; stroke-opacity:1; fill:none" points="156.274,441.976 175.172,441.976 "/>
<polyline clip-path="url(#clip880)" style="stroke:#000000; stroke-linecap:round; stroke-linejoin:round; stroke-width:4; stroke-opacity:1; fill:none" points="156.274,169.085 175.172,169.085 "/>
<path clip-path="url(#clip880)" d="M62.9365 1246.45 Q59.3254 1246.45 57.4967 1250.02 Q55.6912 1253.56 55.6912 1260.69 Q55.6912 1267.79 57.4967 1271.36 Q59.3254 1274.9 62.9365 1274.9 Q66.5707 1274.9 68.3763 1271.36 Q70.205 1267.79 70.205 1260.69 Q70.205 1253.56 68.3763 1250.02 Q66.5707 1246.45 62.9365 1246.45 M62.9365 1242.75 Q68.7467 1242.75 71.8022 1247.35 Q74.8809 1251.94 74.8809 1260.69 Q74.8809 1269.41 71.8022 1274.02 Q68.7467 1278.6 62.9365 1278.6 Q57.1264 1278.6 54.0477 1274.02 Q50.9921 1269.41 50.9921 1260.69 Q50.9921 1251.94 54.0477 1247.35 Q57.1264 1242.75 62.9365 1242.75 Z" fill="#000000" fill-rule="nonzero" fill-opacity="1" /><path clip-path="url(#clip880)" d="M83.0984 1272.05 L87.9827 1272.05 L87.9827 1277.93 L83.0984 1277.93 L83.0984 1272.05 Z" fill="#000000" fill-rule="nonzero" fill-opacity="1" /><path clip-path="url(#clip880)" d="M108.746 1258.79 Q105.598 1258.79 103.746 1260.94 Q101.918 1263.09 101.918 1266.84 Q101.918 1270.57 103.746 1272.75 Q105.598 1274.9 108.746 1274.9 Q111.895 1274.9 113.723 1272.75 Q115.575 1270.57 115.575 1266.84 Q115.575 1263.09 113.723 1260.94 Q111.895 1258.79 108.746 1258.79 M118.029 1244.14 L118.029 1248.4 Q116.27 1247.56 114.464 1247.12 Q112.682 1246.68 110.922 1246.68 Q106.293 1246.68 103.839 1249.81 Q101.409 1252.93 101.061 1259.25 Q102.427 1257.24 104.487 1256.17 Q106.547 1255.09 109.024 1255.09 Q114.233 1255.09 117.242 1258.26 Q120.274 1261.4 120.274 1266.84 Q120.274 1272.17 117.126 1275.39 Q113.978 1278.6 108.746 1278.6 Q102.751 1278.6 99.5798 1274.02 Q96.4085 1269.41 96.4085 1260.69 Q96.4085 1252.49 100.297 1247.63 Q104.186 1242.75 110.737 1242.75 Q112.496 1242.75 114.279 1243.09 Q116.084 1243.44 118.029 1244.14 Z" fill="#000000" fill-rule="nonzero" fill-opacity="1" /><path clip-path="url(#clip880)" d="M63.1911 973.559 Q59.58 973.559 57.7513 977.124 Q55.9458 980.665 55.9458 987.795 Q55.9458 994.901 57.7513 998.466 Q59.58 1002.01 63.1911 1002.01 Q66.8254 1002.01 68.6309 998.466 Q70.4596 994.901 70.4596 987.795 Q70.4596 980.665 68.6309 977.124 Q66.8254 973.559 63.1911 973.559 M63.1911 969.855 Q69.0013 969.855 72.0568 974.462 Q75.1355 979.045 75.1355 987.795 Q75.1355 996.522 72.0568 1001.13 Q69.0013 1005.71 63.1911 1005.71 Q57.381 1005.71 54.3023 1001.13 Q51.2468 996.522 51.2468 987.795 Q51.2468 979.045 54.3023 974.462 Q57.381 969.855 63.1911 969.855 Z" fill="#000000" fill-rule="nonzero" fill-opacity="1" /><path clip-path="url(#clip880)" d="M83.3531 999.161 L88.2373 999.161 L88.2373 1005.04 L83.3531 1005.04 L83.3531 999.161 Z" fill="#000000" fill-rule="nonzero" fill-opacity="1" /><path clip-path="url(#clip880)" d="M108.422 988.628 Q105.089 988.628 103.168 990.411 Q101.27 992.193 101.27 995.318 Q101.27 998.443 103.168 1000.23 Q105.089 1002.01 108.422 1002.01 Q111.756 1002.01 113.677 1000.23 Q115.598 998.42 115.598 995.318 Q115.598 992.193 113.677 990.411 Q111.779 988.628 108.422 988.628 M103.746 986.638 Q100.737 985.897 99.0474 983.837 Q97.3808 981.777 97.3808 978.814 Q97.3808 974.67 100.321 972.263 Q103.284 969.855 108.422 969.855 Q113.584 969.855 116.524 972.263 Q119.464 974.67 119.464 978.814 Q119.464 981.777 117.774 983.837 Q116.108 985.897 113.121 986.638 Q116.501 987.425 118.376 989.716 Q120.274 992.008 120.274 995.318 Q120.274 1000.34 117.195 1003.03 Q114.14 1005.71 108.422 1005.71 Q102.705 1005.71 99.6261 1003.03 Q96.5706 1000.34 96.5706 995.318 Q96.5706 992.008 98.4687 989.716 Q100.367 987.425 103.746 986.638 M102.034 979.253 Q102.034 981.939 103.7 983.443 Q105.39 984.948 108.422 984.948 Q111.432 984.948 113.121 983.443 Q114.834 981.939 114.834 979.253 Q114.834 976.568 113.121 975.064 Q111.432 973.559 108.422 973.559 Q105.39 973.559 103.7 975.064 Q102.034 976.568 102.034 979.253 Z" fill="#000000" fill-rule="nonzero" fill-opacity="1" /><path clip-path="url(#clip880)" d="M53.9088 728.213 L61.5476 728.213 L61.5476 701.848 L53.2375 703.514 L53.2375 699.255 L61.5013 697.588 L66.1772 697.588 L66.1772 728.213 L73.8161 728.213 L73.8161 732.148 L53.9088 732.148 L53.9088 728.213 Z" fill="#000000" fill-rule="nonzero" fill-opacity="1" /><path clip-path="url(#clip880)" d="M83.2605 726.269 L88.1447 726.269 L88.1447 732.148 L83.2605 732.148 L83.2605 726.269 Z" fill="#000000" fill-rule="nonzero" fill-opacity="1" /><path clip-path="url(#clip880)" d="M108.33 700.667 Q104.719 700.667 102.89 704.232 Q101.084 707.774 101.084 714.903 Q101.084 722.01 102.89 725.574 Q104.719 729.116 108.33 729.116 Q111.964 729.116 113.77 725.574 Q115.598 722.01 115.598 714.903 Q115.598 707.774 113.77 704.232 Q111.964 700.667 108.33 700.667 M108.33 696.963 Q114.14 696.963 117.195 701.57 Q120.274 706.153 120.274 714.903 Q120.274 723.63 117.195 728.236 Q114.14 732.82 108.33 732.82 Q102.52 732.82 99.4409 728.236 Q96.3854 723.63 96.3854 714.903 Q96.3854 706.153 99.4409 701.57 Q102.52 696.963 108.33 696.963 Z" fill="#000000" fill-rule="nonzero" fill-opacity="1" /><path clip-path="url(#clip880)" d="M55.506 455.321 L63.1448 455.321 L63.1448 428.956 L54.8347 430.622 L54.8347 426.363 L63.0985 424.696 L67.7744 424.696 L67.7744 455.321 L75.4133 455.321 L75.4133 459.256 L55.506 459.256 L55.506 455.321 Z" fill="#000000" fill-rule="nonzero" fill-opacity="1" /><path clip-path="url(#clip880)" d="M84.8577 453.377 L89.7419 453.377 L89.7419 459.256 L84.8577 459.256 L84.8577 453.377 Z" fill="#000000" fill-rule="nonzero" fill-opacity="1" /><path clip-path="url(#clip880)" d="M103.955 455.321 L120.274 455.321 L120.274 459.256 L98.3298 459.256 L98.3298 455.321 Q100.992 452.567 105.575 447.937 Q110.182 443.284 111.362 441.942 Q113.608 439.419 114.487 437.683 Q115.39 435.923 115.39 434.233 Q115.39 431.479 113.445 429.743 Q111.524 428.007 108.422 428.007 Q106.223 428.007 103.77 428.771 Q101.339 429.534 98.5613 431.085 L98.5613 426.363 Q101.385 425.229 103.839 424.65 Q106.293 424.071 108.33 424.071 Q113.7 424.071 116.895 426.757 Q120.089 429.442 120.089 433.933 Q120.089 436.062 119.279 437.983 Q118.492 439.882 116.385 442.474 Q115.807 443.145 112.705 446.363 Q109.603 449.557 103.955 455.321 Z" fill="#000000" fill-rule="nonzero" fill-opacity="1" /><path clip-path="url(#clip880)" d="M53.4227 182.429 L61.0615 182.429 L61.0615 156.064 L52.7514 157.73 L52.7514 153.471 L61.0152 151.805 L65.6911 151.805 L65.6911 182.429 L73.33 182.429 L73.33 186.365 L53.4227 186.365 L53.4227 182.429 Z" fill="#000000" fill-rule="nonzero" fill-opacity="1" /><path clip-path="url(#clip880)" d="M82.7744 180.485 L87.6586 180.485 L87.6586 186.365 L82.7744 186.365 L82.7744 180.485 Z" fill="#000000" fill-rule="nonzero" fill-opacity="1" /><path clip-path="url(#clip880)" d="M110.691 155.879 L98.8854 174.328 L110.691 174.328 L110.691 155.879 M109.464 151.805 L115.344 151.805 L115.344 174.328 L120.274 174.328 L120.274 178.216 L115.344 178.216 L115.344 186.365 L110.691 186.365 L110.691 178.216 L95.0891 178.216 L95.0891 173.703 L109.464 151.805 Z" fill="#000000" fill-rule="nonzero" fill-opacity="1" /><polyline clip-path="url(#clip882)" style="stroke:#009af9; stroke-linecap:round; stroke-linejoin:round; stroke-width:12; stroke-opacity:1; fill:none" points="218.439,1397.1 425.654,1330.6 632.869,1294.99 840.085,1201.6 1047.3,1175.59 1254.52,1271.62 1461.73,1070.61 1668.95,1021.24 1876.16,1174.13 2083.38,1278.37 2290.59,1211.28 "/>
<polyline clip-path="url(#clip882)" style="stroke:#e26f46; stroke-linecap:round; stroke-linejoin:round; stroke-width:12; stroke-opacity:1; fill:none" points="218.439,1397.1 425.654,1315.81 632.869,1200.82 840.085,992.1 1047.3,969.793 1254.52,650.724 1461.73,755.573 1668.95,987.061 1876.16,943.573 2083.38,735.439 2290.59,1112.07 "/>
<polyline clip-path="url(#clip882)" style="stroke:#3da44d; stroke-linecap:round; stroke-linejoin:round; stroke-width:12; stroke-opacity:1; fill:none" points="218.439,1397.1 425.654,1362.7 632.869,1352.96 840.085,1352.46 1047.3,1284.43 1254.52,1262.85 1461.73,1118.76 1668.95,1213.37 1876.16,1233.23 2083.38,1214.18 2290.59,1226.66 "/>
<polyline clip-path="url(#clip882)" style="stroke:#c271d2; stroke-linecap:round; stroke-linejoin:round; stroke-width:12; stroke-opacity:1; fill:none" points="218.439,1397.1 425.654,987.821 632.869,941.454 840.085,540.129 1047.3,329.398 1254.52,87.9763 1461.73,241.922 1668.95,325.469 1876.16,503.316 2083.38,665.821 2290.59,848.586 "/>
<polyline clip-path="url(#clip882)" style="stroke:#ac8d18; stroke-linecap:round; stroke-linejoin:round; stroke-width:12; stroke-opacity:1; fill:none" points="218.439,1397.1 425.654,1365.21 632.869,1299.71 840.085,1205.79 1047.3,1050.73 1254.52,897.194 1461.73,1009.42 1668.95,745.991 1876.16,581.971 2083.38,518.851 2290.59,207.585 "/>
<polyline clip-path="url(#clip882)" style="stroke:#00a9ad; stroke-linecap:round; stroke-linejoin:round; stroke-width:12; stroke-opacity:1; fill:none" points="218.439,1397.1 425.654,1441.71 632.869,1398.13 840.085,1330.21 1047.3,1268.63 1254.52,1178.53 1461.73,1177.83 1668.95,1232.43 1876.16,1153.14 2083.38,1077.35 2290.59,1074.17 "/>
<polyline clip-path="url(#clip882)" style="stroke:#ed5d92; stroke-linecap:round; stroke-linejoin:round; stroke-width:12; stroke-opacity:1; fill:none" points="218.439,1397.1 425.654,1445.72 632.869,1300.26 840.085,1293.65 1047.3,1289.56 1254.52,1138.23 1461.73,1315.98 1668.95,1402.7 1876.16,1392.44 2083.38,1293.77 2290.59,1299.77 "/>
<polyline clip-path="url(#clip882)" style="stroke:#c68125; stroke-linecap:round; stroke-linejoin:round; stroke-width:12; stroke-opacity:1; fill:none" points="218.439,1397.1 425.654,1358.6 632.869,1352.87 840.085,1376.56 1047.3,1407.33 1254.52,1349.35 1461.73,1248.75 1668.95,1207.71 1876.16,1090.23 2083.38,1013.7 2290.59,1017.16 "/>
</svg>
