<?xml version="1.0" encoding="utf-8"?>
<svg xmlns="http://www.w3.org/2000/svg" xmlns:xlink="http://www.w3.org/1999/xlink" width="600" height="400" viewBox="0 0 2400 1600">
<defs>
  <clipPath id="clip820">
    <rect x="0" y="0" width="2400" height="1600"/>
  </clipPath>
</defs>
<path clip-path="url(#clip820)" d="M0 1600 L2400 1600 L2400 0 L0 0  Z" fill="#ffffff" fill-rule="evenodd" fill-opacity="1"/>
<defs>
  <clipPath id="clip821">
    <rect x="480" y="0" width="1681" height="1600"/>
  </clipPath>
</defs>
<path clip-path="url(#clip820)" d="M155.765 1486.45 L2352.76 1486.45 L2352.76 47.2441 L155.765 47.2441  Z" fill="#ffffff" fill-rule="evenodd" fill-opacity="1"/>
<defs>
  <clipPath id="clip822">
    <rect x="155" y="47" width="2198" height="1440"/>
  </clipPath>
</defs>
<polyline clip-path="url(#clip822)" style="stroke:#000000; stroke-linecap:round; stroke-linejoin:round; stroke-width:2; stroke-opacity:0.1; fill:none" points="217.944,1486.45 217.944,47.2441 "/>
<polyline clip-path="url(#clip822)" style="stroke:#000000; stroke-linecap:round; stroke-linejoin:round; stroke-width:2; stroke-opacity:0.1; fill:none" points="736.102,1486.45 736.102,47.2441 "/>
<polyline clip-path="url(#clip822)" style="stroke:#000000; stroke-linecap:round; stroke-linejoin:round; stroke-width:2; stroke-opacity:0.1; fill:none" points="1254.26,1486.45 1254.26,47.2441 "/>
<polyline clip-path="url(#clip822)" style="stroke:#000000; stroke-linecap:round; stroke-linejoin:round; stroke-width:2; stroke-opacity:0.1; fill:none" points="1772.42,1486.45 1772.42,47.2441 "/>
<polyline clip-path="url(#clip822)" style="stroke:#000000; stroke-linecap:round; stroke-linejoin:round; stroke-width:2; stroke-opacity:0.1; fill:none" points="2290.58,1486.45 2290.58,47.2441 "/>
<polyline clip-path="url(#clip822)" style="stroke:#000000; stroke-linecap:round; stroke-linejoin:round; stroke-width:2; stroke-opacity:0.1; fill:none" points="155.765,1316.2 2352.76,1316.2 "/>
<polyline clip-path="url(#clip822)" style="stroke:#000000; stroke-linecap:round; stroke-linejoin:round; stroke-width:2; stroke-opacity:0.1; fill:none" points="155.765,1085.4 2352.76,1085.4 "/>
<polyline clip-path="url(#clip822)" style="stroke:#000000; stroke-linecap:round; stroke-linejoin:round; stroke-width:2; stroke-opacity:0.1; fill:none" points="155.765,854.6 2352.76,854.6 "/>
<polyline clip-path="url(#clip822)" style="stroke:#000000; stroke-linecap:round; stroke-linejoin:round; stroke-width:2; stroke-opacity:0.1; fill:none" points="155.765,623.798 2352.76,623.798 "/>
<polyline clip-path="url(#clip822)" style="stroke:#000000; stroke-linecap:round; stroke-linejoin:round; stroke-width:2; stroke-opacity:0.1; fill:none" points="155.765,392.997 2352.76,392.997 "/>
<polyline clip-path="url(#clip822)" style="stroke:#000000; stroke-linecap:round; stroke-linejoin:round; stroke-width:2; stroke-opacity:0.1; fill:none" points="155.765,162.195 2352.76,162.195 "/>
<polyline clip-path="url(#clip820)" style="stroke:#000000; stroke-linecap:round; stroke-linejoin:round; stroke-width:4; stroke-opacity:1; fill:none" points="155.765,1486.45 2352.76,1486.45 "/>
<polyline clip-path="url(#clip820)" style="stroke:#000000; stroke-linecap:round; stroke-linejoin:round; stroke-width:4; stroke-opacity:1; fill:none" points="217.944,1486.45 217.944,1467.55 "/>
<polyline clip-path="url(#clip820)" style="stroke:#000000; stroke-linecap:round; stroke-linejoin:round; stroke-width:4; stroke-opacity:1; fill:none" points="736.102,1486.45 736.102,1467.55 "/>
<polyline clip-path="url(#clip820)" style="stroke:#000000; stroke-linecap:round; stroke-linejoin:round; stroke-width:4; stroke-opacity:1; fill:none" points="1254.26,1486.45 1254.26,1467.55 "/>
<polyline clip-path="url(#clip820)" style="stroke:#000000; stroke-linecap:round; stroke-linejoin:round; stroke-width:4; stroke-opacity:1; fill:none" points="1772.42,1486.45 1772.42,1467.55 "/>
<polyline clip-path="url(#clip820)" style="stroke:#000000; stroke-linecap:round; stroke-linejoin:round; stroke-width:4; stroke-opacity:1; fill:none" points="2290.58,1486.45 2290.58,1467.55 "/>
<path clip-path="url(#clip820)" d="M180.247 1517.37 Q176.636 1517.37 174.808 1520.93 Q173.002 1524.47 173.002 1531.6 Q173.002 1538.71 174.808 1542.27 Q176.636 1545.82 180.247 1545.82 Q183.882 1545.82 185.687 1542.27 Q187.516 1538.71 187.516 1531.6 Q187.516 1524.47 185.687 1520.93 Q183.882 1517.37 180.247 1517.37 M180.247 1513.66 Q186.057 1513.66 189.113 1518.27 Q192.192 1522.85 192.192 1531.6 Q192.192 1540.33 189.113 1544.94 Q186.057 1549.52 180.247 1549.52 Q174.437 1549.52 171.358 1544.94 Q168.303 1540.33 168.303 1531.6 Q168.303 1522.85 171.358 1518.27 Q174.437 1513.66 180.247 1513.66 Z" fill="#000000" fill-rule="nonzero" fill-opacity="1" /><path clip-path="url(#clip820)" d="M200.409 1542.97 L205.294 1542.97 L205.294 1548.85 L200.409 1548.85 L200.409 1542.97 Z" fill="#000000" fill-rule="nonzero" fill-opacity="1" /><path clip-path="url(#clip820)" d="M225.479 1517.37 Q221.867 1517.37 220.039 1520.93 Q218.233 1524.47 218.233 1531.6 Q218.233 1538.71 220.039 1542.27 Q221.867 1545.82 225.479 1545.82 Q229.113 1545.82 230.918 1542.27 Q232.747 1538.71 232.747 1531.6 Q232.747 1524.47 230.918 1520.93 Q229.113 1517.37 225.479 1517.37 M225.479 1513.66 Q231.289 1513.66 234.344 1518.27 Q237.423 1522.85 237.423 1531.6 Q237.423 1540.33 234.344 1544.94 Q231.289 1549.52 225.479 1549.52 Q219.668 1549.52 216.59 1544.94 Q213.534 1540.33 213.534 1531.6 Q213.534 1522.85 216.59 1518.27 Q219.668 1513.66 225.479 1513.66 Z" fill="#000000" fill-rule="nonzero" fill-opacity="1" /><path clip-path="url(#clip820)" d="M255.64 1517.37 Q252.029 1517.37 250.201 1520.93 Q248.395 1524.47 248.395 1531.6 Q248.395 1538.71 250.201 1542.27 Q252.029 1545.82 255.64 1545.82 Q259.275 1545.82 261.08 1542.27 Q262.909 1538.71 262.909 1531.6 Q262.909 1524.47 261.08 1520.93 Q259.275 1517.37 255.64 1517.37 M255.64 1513.66 Q261.451 1513.66 264.506 1518.27 Q267.585 1522.85 267.585 1531.6 Q267.585 1540.33 264.506 1544.94 Q261.451 1549.52 255.64 1549.52 Q249.83 1549.52 246.752 1544.94 Q243.696 1540.33 243.696 1531.6 Q243.696 1522.85 246.752 1518.27 Q249.83 1513.66 255.64 1513.66 Z" fill="#000000" fill-rule="nonzero" fill-opacity="1" /><path clip-path="url(#clip820)" d="M698.903 1517.37 Q695.292 1517.37 693.463 1520.93 Q691.658 1524.47 691.658 1531.6 Q691.658 1538.71 693.463 1542.27 Q695.292 1545.82 698.903 1545.82 Q702.538 1545.82 704.343 1542.27 Q706.172 1538.71 706.172 1531.6 Q706.172 1524.47 704.343 1520.93 Q702.538 1517.37 698.903 1517.37 M698.903 1513.66 Q704.713 1513.66 707.769 1518.27 Q710.848 1522.85 710.848 1531.6 Q710.848 1540.33 707.769 1544.94 Q704.713 1549.52 698.903 1549.52 Q693.093 1549.52 690.014 1544.94 Q686.959 1540.33 686.959 1531.6 Q686.959 1522.85 690.014 1518.27 Q693.093 1513.66 698.903 1513.66 Z" fill="#000000" fill-rule="nonzero" fill-opacity="1" /><path clip-path="url(#clip820)" d="M719.065 1542.97 L723.949 1542.97 L723.949 1548.85 L719.065 1548.85 L719.065 1542.97 Z" fill="#000000" fill-rule="nonzero" fill-opacity="1" /><path clip-path="url(#clip820)" d="M738.162 1544.91 L754.482 1544.91 L754.482 1548.85 L732.537 1548.85 L732.537 1544.91 Q735.199 1542.16 739.783 1537.53 Q744.389 1532.88 745.57 1531.53 Q747.815 1529.01 748.695 1527.27 Q749.597 1525.51 749.597 1523.82 Q749.597 1521.07 747.653 1519.33 Q745.732 1517.6 742.63 1517.6 Q740.431 1517.6 737.977 1518.36 Q735.547 1519.13 732.769 1520.68 L732.769 1515.95 Q735.593 1514.82 738.047 1514.24 Q740.5 1513.66 742.537 1513.66 Q747.908 1513.66 751.102 1516.35 Q754.296 1519.03 754.296 1523.52 Q754.296 1525.65 753.486 1527.57 Q752.699 1529.47 750.593 1532.07 Q750.014 1532.74 746.912 1535.95 Q743.81 1539.15 738.162 1544.91 Z" fill="#000000" fill-rule="nonzero" fill-opacity="1" /><path clip-path="url(#clip820)" d="M764.343 1514.29 L782.699 1514.29 L782.699 1518.22 L768.625 1518.22 L768.625 1526.7 Q769.644 1526.35 770.662 1526.19 Q771.681 1526 772.699 1526 Q778.486 1526 781.866 1529.17 Q785.245 1532.34 785.245 1537.76 Q785.245 1543.34 781.773 1546.44 Q778.301 1549.52 771.982 1549.52 Q769.806 1549.52 767.537 1549.15 Q765.292 1548.78 762.884 1548.04 L762.884 1543.34 Q764.968 1544.47 767.19 1545.03 Q769.412 1545.58 771.889 1545.58 Q775.894 1545.58 778.232 1543.48 Q780.57 1541.37 780.57 1537.76 Q780.57 1534.15 778.232 1532.04 Q775.894 1529.94 771.889 1529.94 Q770.014 1529.94 768.139 1530.35 Q766.287 1530.77 764.343 1531.65 L764.343 1514.29 Z" fill="#000000" fill-rule="nonzero" fill-opacity="1" /><path clip-path="url(#clip820)" d="M1216.56 1517.37 Q1212.95 1517.37 1211.12 1520.93 Q1209.32 1524.47 1209.32 1531.6 Q1209.32 1538.71 1211.12 1542.27 Q1212.95 1545.82 1216.56 1545.82 Q1220.2 1545.82 1222 1542.27 Q1223.83 1538.71 1223.83 1531.6 Q1223.83 1524.47 1222 1520.93 Q1220.2 1517.37 1216.56 1517.37 M1216.56 1513.66 Q1222.37 1513.66 1225.43 1518.27 Q1228.51 1522.85 1228.51 1531.6 Q1228.51 1540.33 1225.43 1544.94 Q1222.37 1549.52 1216.56 1549.52 Q1210.75 1549.52 1207.68 1544.94 Q1204.62 1540.33 1204.62 1531.6 Q1204.62 1522.85 1207.68 1518.27 Q1210.75 1513.66 1216.56 1513.66 Z" fill="#000000" fill-rule="nonzero" fill-opacity="1" /><path clip-path="url(#clip820)" d="M1236.73 1542.97 L1241.61 1542.97 L1241.61 1548.85 L1236.73 1548.85 L1236.73 1542.97 Z" fill="#000000" fill-rule="nonzero" fill-opacity="1" /><path clip-path="url(#clip820)" d="M1251.84 1514.29 L1270.2 1514.29 L1270.2 1518.22 L1256.12 1518.22 L1256.12 1526.7 Q1257.14 1526.35 1258.16 1526.19 Q1259.18 1526 1260.2 1526 Q1265.98 1526 1269.36 1529.17 Q1272.74 1532.34 1272.74 1537.76 Q1272.74 1543.34 1269.27 1546.44 Q1265.8 1549.52 1259.48 1549.52 Q1257.3 1549.52 1255.04 1549.15 Q1252.79 1548.78 1250.38 1548.04 L1250.38 1543.34 Q1252.47 1544.47 1254.69 1545.03 Q1256.91 1545.58 1259.39 1545.58 Q1263.39 1545.58 1265.73 1543.48 Q1268.07 1541.37 1268.07 1537.76 Q1268.07 1534.15 1265.73 1532.04 Q1263.39 1529.94 1259.39 1529.94 Q1257.51 1529.94 1255.64 1530.35 Q1253.79 1530.77 1251.84 1531.65 L1251.84 1514.29 Z" fill="#000000" fill-rule="nonzero" fill-opacity="1" /><path clip-path="url(#clip820)" d="M1291.96 1517.37 Q1288.35 1517.37 1286.52 1520.93 Q1284.71 1524.47 1284.71 1531.6 Q1284.71 1538.71 1286.52 1542.27 Q1288.35 1545.82 1291.96 1545.82 Q1295.59 1545.82 1297.4 1542.27 Q1299.23 1538.71 1299.23 1531.6 Q1299.23 1524.47 1297.4 1520.93 Q1295.59 1517.37 1291.96 1517.37 M1291.96 1513.66 Q1297.77 1513.66 1300.82 1518.27 Q1303.9 1522.85 1303.9 1531.6 Q1303.9 1540.33 1300.82 1544.94 Q1297.77 1549.52 1291.96 1549.52 Q1286.15 1549.52 1283.07 1544.94 Q1280.01 1540.33 1280.01 1531.6 Q1280.01 1522.85 1283.07 1518.27 Q1286.15 1513.66 1291.96 1513.66 Z" fill="#000000" fill-rule="nonzero" fill-opacity="1" /><path clip-path="url(#clip820)" d="M1735.22 1517.37 Q1731.61 1517.37 1729.78 1520.93 Q1727.97 1524.47 1727.97 1531.6 Q1727.97 1538.71 1729.78 1542.27 Q1731.61 1545.82 1735.22 1545.82 Q1738.85 1545.82 1740.66 1542.27 Q1742.49 1538.71 1742.49 1531.6 Q1742.49 1524.47 1740.66 1520.93 Q1738.85 1517.37 1735.22 1517.37 M1735.22 1513.66 Q1741.03 1513.66 1744.09 1518.27 Q1747.16 1522.85 1747.16 1531.6 Q1747.16 1540.33 1744.09 1544.94 Q1741.03 1549.52 1735.22 1549.52 Q1729.41 1549.52 1726.33 1544.94 Q1723.28 1540.33 1723.28 1531.6 Q1723.28 1522.85 1726.33 1518.27 Q1729.41 1513.66 1735.22 1513.66 Z" fill="#000000" fill-rule="nonzero" fill-opacity="1" /><path clip-path="url(#clip820)" d="M1755.38 1542.97 L1760.27 1542.97 L1760.27 1548.85 L1755.38 1548.85 L1755.38 1542.97 Z" fill="#000000" fill-rule="nonzero" fill-opacity="1" /><path clip-path="url(#clip820)" d="M1769.27 1514.29 L1791.49 1514.29 L1791.49 1516.28 L1778.95 1548.85 L1774.06 1548.85 L1785.87 1518.22 L1769.27 1518.22 L1769.27 1514.29 Z" fill="#000000" fill-rule="nonzero" fill-opacity="1" /><path clip-path="url(#clip820)" d="M1800.66 1514.29 L1819.02 1514.29 L1819.02 1518.22 L1804.94 1518.22 L1804.94 1526.7 Q1805.96 1526.35 1806.98 1526.19 Q1808 1526 1809.02 1526 Q1814.8 1526 1818.18 1529.17 Q1821.56 1532.34 1821.56 1537.76 Q1821.56 1543.34 1818.09 1546.44 Q1814.62 1549.52 1808.3 1549.52 Q1806.12 1549.52 1803.85 1549.15 Q1801.61 1548.78 1799.2 1548.04 L1799.2 1543.34 Q1801.28 1544.47 1803.51 1545.03 Q1805.73 1545.58 1808.21 1545.58 Q1812.21 1545.58 1814.55 1543.48 Q1816.89 1541.37 1816.89 1537.76 Q1816.89 1534.15 1814.55 1532.04 Q1812.21 1529.94 1808.21 1529.94 Q1806.33 1529.94 1804.46 1530.35 Q1802.6 1530.77 1800.66 1531.65 L1800.66 1514.29 Z" fill="#000000" fill-rule="nonzero" fill-opacity="1" /><path clip-path="url(#clip820)" d="M2242.65 1544.91 L2250.29 1544.91 L2250.29 1518.55 L2241.98 1520.21 L2241.98 1515.95 L2250.24 1514.29 L2254.92 1514.29 L2254.92 1544.91 L2262.56 1544.91 L2262.56 1548.85 L2242.65 1548.85 L2242.65 1544.91 Z" fill="#000000" fill-rule="nonzero" fill-opacity="1" /><path clip-path="url(#clip820)" d="M2272 1542.97 L2276.88 1542.97 L2276.88 1548.85 L2272 1548.85 L2272 1542.97 Z" fill="#000000" fill-rule="nonzero" fill-opacity="1" /><path clip-path="url(#clip820)" d="M2297.07 1517.37 Q2293.46 1517.37 2291.63 1520.93 Q2289.82 1524.47 2289.82 1531.6 Q2289.82 1538.71 2291.63 1542.27 Q2293.46 1545.82 2297.07 1545.82 Q2300.7 1545.82 2302.51 1542.27 Q2304.34 1538.71 2304.34 1531.6 Q2304.34 1524.47 2302.51 1520.93 Q2300.7 1517.37 2297.07 1517.37 M2297.07 1513.66 Q2302.88 1513.66 2305.94 1518.27 Q2309.01 1522.85 2309.01 1531.6 Q2309.01 1540.33 2305.94 1544.94 Q2302.88 1549.52 2297.07 1549.52 Q2291.26 1549.52 2288.18 1544.94 Q2285.13 1540.33 2285.13 1531.6 Q2285.13 1522.85 2288.18 1518.27 Q2291.26 1513.66 2297.07 1513.66 Z" fill="#000000" fill-rule="nonzero" fill-opacity="1" /><path clip-path="url(#clip820)" d="M2327.23 1517.37 Q2323.62 1517.37 2321.79 1520.93 Q2319.99 1524.47 2319.99 1531.6 Q2319.99 1538.71 2321.79 1542.27 Q2323.62 1545.82 2327.23 1545.82 Q2330.87 1545.82 2332.67 1542.27 Q2334.5 1538.71 2334.5 1531.6 Q2334.5 1524.47 2332.67 1520.93 Q2330.87 1517.37 2327.23 1517.37 M2327.23 1513.66 Q2333.04 1513.66 2336.1 1518.27 Q2339.18 1522.85 2339.18 1531.6 Q2339.18 1540.33 2336.1 1544.94 Q2333.04 1549.52 2327.23 1549.52 Q2321.42 1549.52 2318.34 1544.94 Q2315.29 1540.33 2315.29 1531.6 Q2315.29 1522.85 2318.34 1518.27 Q2321.42 1513.66 2327.23 1513.66 Z" fill="#000000" fill-rule="nonzero" fill-opacity="1" /><polyline clip-path="url(#clip820)" style="stroke:#000000; stroke-linecap:round; stroke-linejoin:round; stroke-width:4; stroke-opacity:1; fill:none" points="155.765,1486.45 155.765,47.2441 "/>
<polyline clip-path="url(#clip820)" style="stroke:#000000; stroke-linecap:round; stroke-linejoin:round; stroke-width:4; stroke-opacity:1; fill:none" points="155.765,1316.2 174.663,1316.2 "/>
<polyline clip-path="url(#clip820)" style="stroke:#000000; stroke-linecap:round; stroke-linejoin:round; stroke-width:4; stroke-opacity:1; fill:none" points="155.765,1085.4 174.663,1085.4 "/>
<polyline clip-path="url(#clip820)" style="stroke:#000000; stroke-linecap:round; stroke-linejoin:round; stroke-width:4; stroke-opacity:1; fill:none" points="155.765,854.6 174.663,854.6 "/>
<polyline clip-path="url(#clip820)" style="stroke:#000000; stroke-linecap:round; stroke-linejoin:round; stroke-width:4; stroke-opacity:1; fill:none" points="155.765,623.798 174.663,623.798 "/>
<polyline clip-path="url(#clip820)" style="stroke:#000000; stroke-linecap:round; stroke-linejoin:round; stroke-width:4; stroke-opacity:1; fill:none" points="155.765,392.997 174.663,392.997 "/>
<polyline clip-path="url(#clip820)" style="stroke:#000000; stroke-linecap:round; stroke-linejoin:round; stroke-width:4; stroke-opacity:1; fill:none" points="155.765,162.195 174.663,162.195 "/>
<path clip-path="url(#clip820)" d="M63.5847 1302 Q59.9736 1302 58.1449 1305.57 Q56.3393 1309.11 56.3393 1316.24 Q56.3393 1323.34 58.1449 1326.91 Q59.9736 1330.45 63.5847 1330.45 Q67.2189 1330.45 69.0244 1326.91 Q70.8531 1323.34 70.8531 1316.24 Q70.8531 1309.11 69.0244 1305.57 Q67.2189 1302 63.5847 1302 M63.5847 1298.3 Q69.3948 1298.3 72.4503 1302.9 Q75.529 1307.49 75.529 1316.24 Q75.529 1324.96 72.4503 1329.57 Q69.3948 1334.15 63.5847 1334.15 Q57.7745 1334.15 54.6958 1329.57 Q51.6403 1324.96 51.6403 1316.24 Q51.6403 1307.49 54.6958 1302.9 Q57.7745 1298.3 63.5847 1298.3 Z" fill="#000000" fill-rule="nonzero" fill-opacity="1" /><path clip-path="url(#clip820)" d="M83.7466 1327.6 L88.6308 1327.6 L88.6308 1333.48 L83.7466 1333.48 L83.7466 1327.6 Z" fill="#000000" fill-rule="nonzero" fill-opacity="1" /><path clip-path="url(#clip820)" d="M98.8622 1298.92 L117.219 1298.92 L117.219 1302.86 L103.145 1302.86 L103.145 1311.33 Q104.163 1310.98 105.182 1310.82 Q106.2 1310.64 107.219 1310.64 Q113.006 1310.64 116.385 1313.81 Q119.765 1316.98 119.765 1322.4 Q119.765 1327.97 116.293 1331.08 Q112.82 1334.15 106.501 1334.15 Q104.325 1334.15 102.057 1333.78 Q99.8113 1333.41 97.4039 1332.67 L97.4039 1327.97 Q99.4872 1329.11 101.709 1329.66 Q103.932 1330.22 106.408 1330.22 Q110.413 1330.22 112.751 1328.11 Q115.089 1326.01 115.089 1322.4 Q115.089 1318.78 112.751 1316.68 Q110.413 1314.57 106.408 1314.57 Q104.534 1314.57 102.659 1314.99 Q100.807 1315.4 98.8622 1316.28 L98.8622 1298.92 Z" fill="#000000" fill-rule="nonzero" fill-opacity="1" /><path clip-path="url(#clip820)" d="M53.3995 1098.75 L61.0384 1098.75 L61.0384 1072.38 L52.7282 1074.05 L52.7282 1069.79 L60.9921 1068.12 L65.668 1068.12 L65.668 1098.75 L73.3068 1098.75 L73.3068 1102.68 L53.3995 1102.68 L53.3995 1098.75 Z" fill="#000000" fill-rule="nonzero" fill-opacity="1" /><path clip-path="url(#clip820)" d="M82.7512 1096.8 L87.6354 1096.8 L87.6354 1102.68 L82.7512 1102.68 L82.7512 1096.8 Z" fill="#000000" fill-rule="nonzero" fill-opacity="1" /><path clip-path="url(#clip820)" d="M107.821 1071.2 Q104.209 1071.2 102.381 1074.77 Q100.575 1078.31 100.575 1085.44 Q100.575 1092.54 102.381 1096.11 Q104.209 1099.65 107.821 1099.65 Q111.455 1099.65 113.26 1096.11 Q115.089 1092.54 115.089 1085.44 Q115.089 1078.31 113.26 1074.77 Q111.455 1071.2 107.821 1071.2 M107.821 1067.5 Q113.631 1067.5 116.686 1072.1 Q119.765 1076.69 119.765 1085.44 Q119.765 1094.16 116.686 1098.77 Q113.631 1103.35 107.821 1103.35 Q102.01 1103.35 98.9317 1098.77 Q95.8761 1094.16 95.8761 1085.44 Q95.8761 1076.69 98.9317 1072.1 Q102.01 1067.5 107.821 1067.5 Z" fill="#000000" fill-rule="nonzero" fill-opacity="1" /><path clip-path="url(#clip820)" d="M54.3949 867.945 L62.0337 867.945 L62.0337 841.579 L53.7236 843.246 L53.7236 838.987 L61.9874 837.32 L66.6633 837.32 L66.6633 867.945 L74.3022 867.945 L74.3022 871.88 L54.3949 871.88 L54.3949 867.945 Z" fill="#000000" fill-rule="nonzero" fill-opacity="1" /><path clip-path="url(#clip820)" d="M83.7466 866 L88.6308 866 L88.6308 871.88 L83.7466 871.88 L83.7466 866 Z" fill="#000000" fill-rule="nonzero" fill-opacity="1" /><path clip-path="url(#clip820)" d="M98.8622 837.32 L117.219 837.32 L117.219 841.255 L103.145 841.255 L103.145 849.727 Q104.163 849.38 105.182 849.218 Q106.2 849.033 107.219 849.033 Q113.006 849.033 116.385 852.204 Q119.765 855.375 119.765 860.792 Q119.765 866.371 116.293 869.473 Q112.82 872.551 106.501 872.551 Q104.325 872.551 102.057 872.181 Q99.8113 871.811 97.4039 871.07 L97.4039 866.371 Q99.4872 867.505 101.709 868.061 Q103.932 868.616 106.408 868.616 Q110.413 868.616 112.751 866.51 Q115.089 864.403 115.089 860.792 Q115.089 857.181 112.751 855.075 Q110.413 852.968 106.408 852.968 Q104.534 852.968 102.659 853.385 Q100.807 853.801 98.8622 854.681 L98.8622 837.32 Z" fill="#000000" fill-rule="nonzero" fill-opacity="1" /><path clip-path="url(#clip820)" d="M56.6171 637.143 L72.9365 637.143 L72.9365 641.078 L50.9921 641.078 L50.9921 637.143 Q53.6541 634.389 58.2375 629.759 Q62.8439 625.106 64.0245 623.764 Q66.2698 621.241 67.1494 619.505 Q68.0522 617.745 68.0522 616.055 Q68.0522 613.301 66.1078 611.565 Q64.1865 609.829 61.0847 609.829 Q58.8856 609.829 56.4319 610.593 Q54.0014 611.356 51.2236 612.907 L51.2236 608.185 Q54.0477 607.051 56.5014 606.472 Q58.955 605.893 60.9921 605.893 Q66.3624 605.893 69.5568 608.579 Q72.7513 611.264 72.7513 615.755 Q72.7513 617.884 71.9411 619.805 Q71.1541 621.704 69.0476 624.296 Q68.4689 624.967 65.367 628.185 Q62.2652 631.379 56.6171 637.143 Z" fill="#000000" fill-rule="nonzero" fill-opacity="1" /><path clip-path="url(#clip820)" d="M82.7512 635.199 L87.6354 635.199 L87.6354 641.078 L82.7512 641.078 L82.7512 635.199 Z" fill="#000000" fill-rule="nonzero" fill-opacity="1" /><path clip-path="url(#clip820)" d="M107.821 609.597 Q104.209 609.597 102.381 613.162 Q100.575 616.704 100.575 623.833 Q100.575 630.94 102.381 634.504 Q104.209 638.046 107.821 638.046 Q111.455 638.046 113.26 634.504 Q115.089 630.94 115.089 623.833 Q115.089 616.704 113.26 613.162 Q111.455 609.597 107.821 609.597 M107.821 605.893 Q113.631 605.893 116.686 610.5 Q119.765 615.083 119.765 623.833 Q119.765 632.56 116.686 637.166 Q113.631 641.75 107.821 641.75 Q102.01 641.75 98.9317 637.166 Q95.8761 632.56 95.8761 623.833 Q95.8761 615.083 98.9317 610.5 Q102.01 605.893 107.821 605.893 Z" fill="#000000" fill-rule="nonzero" fill-opacity="1" /><path clip-path="url(#clip820)" d="M57.6125 406.342 L73.9318 406.342 L73.9318 410.277 L51.9875 410.277 L51.9875 406.342 Q54.6495 403.587 59.2328 398.958 Q63.8393 394.305 65.0198 392.962 Q67.2652 390.439 68.1448 388.703 Q69.0476 386.944 69.0476 385.254 Q69.0476 382.499 67.1032 380.763 Q65.1819 379.027 62.08 379.027 Q59.881 379.027 57.4273 379.791 Q54.9967 380.555 52.219 382.106 L52.219 377.384 Q55.043 376.249 57.4967 375.671 Q59.9504 375.092 61.9874 375.092 Q67.3578 375.092 70.5522 377.777 Q73.7466 380.462 73.7466 384.953 Q73.7466 387.083 72.9365 389.004 Q72.1494 390.902 70.0429 393.495 Q69.4642 394.166 66.3624 397.383 Q63.2606 400.578 57.6125 406.342 Z" fill="#000000" fill-rule="nonzero" fill-opacity="1" /><path clip-path="url(#clip820)" d="M83.7466 404.397 L88.6308 404.397 L88.6308 410.277 L83.7466 410.277 L83.7466 404.397 Z" fill="#000000" fill-rule="nonzero" fill-opacity="1" /><path clip-path="url(#clip820)" d="M98.8622 375.717 L117.219 375.717 L117.219 379.652 L103.145 379.652 L103.145 388.124 Q104.163 387.777 105.182 387.615 Q106.2 387.43 107.219 387.43 Q113.006 387.43 116.385 390.601 Q119.765 393.772 119.765 399.189 Q119.765 404.768 116.293 407.87 Q112.82 410.948 106.501 410.948 Q104.325 410.948 102.057 410.578 Q99.8113 410.207 97.4039 409.467 L97.4039 404.768 Q99.4872 405.902 101.709 406.458 Q103.932 407.013 106.408 407.013 Q110.413 407.013 112.751 404.907 Q115.089 402.8 115.089 399.189 Q115.089 395.578 112.751 393.471 Q110.413 391.365 106.408 391.365 Q104.534 391.365 102.659 391.782 Q100.807 392.198 98.8622 393.078 L98.8622 375.717 Z" fill="#000000" fill-rule="nonzero" fill-opacity="1" /><path clip-path="url(#clip820)" d="M66.7559 160.841 Q70.1124 161.559 71.9874 163.827 Q73.8855 166.096 73.8855 169.429 Q73.8855 174.545 70.367 177.346 Q66.8485 180.147 60.3671 180.147 Q58.1912 180.147 55.8764 179.707 Q53.5847 179.29 51.131 178.434 L51.131 173.92 Q53.0754 175.054 55.3903 175.633 Q57.7051 176.212 60.2282 176.212 Q64.6263 176.212 66.918 174.475 Q69.2328 172.739 69.2328 169.429 Q69.2328 166.374 67.08 164.661 Q64.9504 162.925 61.131 162.925 L57.1032 162.925 L57.1032 159.082 L61.3161 159.082 Q64.7652 159.082 66.5939 157.716 Q68.4226 156.327 68.4226 153.735 Q68.4226 151.073 66.5245 149.661 Q64.6495 148.226 61.131 148.226 Q59.2097 148.226 57.0106 148.642 Q54.8115 149.059 52.1727 149.939 L52.1727 145.772 Q54.8347 145.031 57.1495 144.661 Q59.4875 144.29 61.5476 144.29 Q66.8717 144.29 69.9735 146.721 Q73.0753 149.128 73.0753 153.249 Q73.0753 156.119 71.4318 158.11 Q69.7883 160.077 66.7559 160.841 Z" fill="#000000" fill-rule="nonzero" fill-opacity="1" /><path clip-path="url(#clip820)" d="M82.7512 173.596 L87.6354 173.596 L87.6354 179.475 L82.7512 179.475 L82.7512 173.596 Z" fill="#000000" fill-rule="nonzero" fill-opacity="1" /><path clip-path="url(#clip820)" d="M107.821 147.994 Q104.209 147.994 102.381 151.559 Q100.575 155.101 100.575 162.23 Q100.575 169.337 102.381 172.901 Q104.209 176.443 107.821 176.443 Q111.455 176.443 113.26 172.901 Q115.089 169.337 115.089 162.23 Q115.089 155.101 113.26 151.559 Q111.455 147.994 107.821 147.994 M107.821 144.29 Q113.631 144.29 116.686 148.897 Q119.765 153.48 119.765 162.23 Q119.765 170.957 116.686 175.563 Q113.631 180.147 107.821 180.147 Q102.01 180.147 98.9317 175.563 Q95.8761 170.957 95.8761 162.23 Q95.8761 153.48 98.9317 148.897 Q102.01 144.29 107.821 144.29 Z" fill="#000000" fill-rule="nonzero" fill-opacity="1" /><path clip-path="url(#clip822)" d="M217.944 1316.2 L425.207 1377.28 L632.47 1377.85 L839.734 1388.07 L1047 1403.98 L1254.26 1445.72 L1461.52 1423.65 L1668.79 1424.26 L1876.05 1401.41 L2083.31 1407.54 L2290.58 1435.92 L2290.58 87.9763 L2083.31 402.399 L1876.05 604.306 L1668.79 717.652 L1461.52 794.345 L1254.26 947.014 L1047 1065.75 L839.734 1124.52 L632.47 1150.17 L425.207 1185.38 L217.944 1316.2  Z" fill="#009af9" fill-rule="evenodd" fill-opacity="0.2"/>
<polyline clip-path="url(#clip822)" style="stroke:#009af9; stroke-linecap:round; stroke-linejoin:round; stroke-width:12; stroke-opacity:1; fill:none" points="217.944,1316.2 425.207,1304.57 632.47,1301.27 839.734,1301.1 1047,1278.09 1254.26,1270.78 1461.52,1222.04 1668.79,1254.05 1876.05,1260.77 2083.31,1254.32 2290.58,1258.54 "/>
</svg>
