<?xml version="1.0" encoding="utf-8"?>
<svg xmlns="http://www.w3.org/2000/svg" xmlns:xlink="http://www.w3.org/1999/xlink" width="600" height="400" viewBox="0 0 2400 1600">
<defs>
  <clipPath id="clip790">
    <rect x="0" y="0" width="2400" height="1600"/>
  </clipPath>
</defs>
<path clip-path="url(#clip790)" d="M0 1600 L2400 1600 L2400 0 L0 0  Z" fill="#ffffff" fill-rule="evenodd" fill-opacity="1"/>
<defs>
  <clipPath id="clip791">
    <rect x="480" y="0" width="1681" height="1600"/>
  </clipPath>
</defs>
<path clip-path="url(#clip790)" d="M112.177 1486.45 L2352.76 1486.45 L2352.76 47.2441 L112.177 47.2441  Z" fill="#ffffff" fill-rule="evenodd" fill-opacity="1"/>
<defs>
  <clipPath id="clip792">
    <rect x="112" y="47" width="2242" height="1440"/>
  </clipPath>
</defs>
<polyline clip-path="url(#clip792)" style="stroke:#000000; stroke-linecap:round; stroke-linejoin:round; stroke-width:2; stroke-opacity:0.1; fill:none" points="175.59,1486.45 175.59,47.2441 "/>
<polyline clip-path="url(#clip792)" style="stroke:#000000; stroke-linecap:round; stroke-linejoin:round; stroke-width:2; stroke-opacity:0.1; fill:none" points="704.028,1486.45 704.028,47.2441 "/>
<polyline clip-path="url(#clip792)" style="stroke:#000000; stroke-linecap:round; stroke-linejoin:round; stroke-width:2; stroke-opacity:0.1; fill:none" points="1232.47,1486.45 1232.47,47.2441 "/>
<polyline clip-path="url(#clip792)" style="stroke:#000000; stroke-linecap:round; stroke-linejoin:round; stroke-width:2; stroke-opacity:0.1; fill:none" points="1760.9,1486.45 1760.9,47.2441 "/>
<polyline clip-path="url(#clip792)" style="stroke:#000000; stroke-linecap:round; stroke-linejoin:round; stroke-width:2; stroke-opacity:0.1; fill:none" points="2289.34,1486.45 2289.34,47.2441 "/>
<polyline clip-path="url(#clip792)" style="stroke:#000000; stroke-linecap:round; stroke-linejoin:round; stroke-width:2; stroke-opacity:0.1; fill:none" points="112.177,1456.95 2352.76,1456.95 "/>
<polyline clip-path="url(#clip792)" style="stroke:#000000; stroke-linecap:round; stroke-linejoin:round; stroke-width:2; stroke-opacity:0.1; fill:none" points="112.177,1156.71 2352.76,1156.71 "/>
<polyline clip-path="url(#clip792)" style="stroke:#000000; stroke-linecap:round; stroke-linejoin:round; stroke-width:2; stroke-opacity:0.1; fill:none" points="112.177,856.479 2352.76,856.479 "/>
<polyline clip-path="url(#clip792)" style="stroke:#000000; stroke-linecap:round; stroke-linejoin:round; stroke-width:2; stroke-opacity:0.1; fill:none" points="112.177,556.244 2352.76,556.244 "/>
<polyline clip-path="url(#clip792)" style="stroke:#000000; stroke-linecap:round; stroke-linejoin:round; stroke-width:2; stroke-opacity:0.1; fill:none" points="112.177,256.009 2352.76,256.009 "/>
<polyline clip-path="url(#clip790)" style="stroke:#000000; stroke-linecap:round; stroke-linejoin:round; stroke-width:4; stroke-opacity:1; fill:none" points="112.177,1486.45 2352.76,1486.45 "/>
<polyline clip-path="url(#clip790)" style="stroke:#000000; stroke-linecap:round; stroke-linejoin:round; stroke-width:4; stroke-opacity:1; fill:none" points="175.59,1486.45 175.59,1467.55 "/>
<polyline clip-path="url(#clip790)" style="stroke:#000000; stroke-linecap:round; stroke-linejoin:round; stroke-width:4; stroke-opacity:1; fill:none" points="704.028,1486.45 704.028,1467.55 "/>
<polyline clip-path="url(#clip790)" style="stroke:#000000; stroke-linecap:round; stroke-linejoin:round; stroke-width:4; stroke-opacity:1; fill:none" points="1232.47,1486.45 1232.47,1467.55 "/>
<polyline clip-path="url(#clip790)" style="stroke:#000000; stroke-linecap:round; stroke-linejoin:round; stroke-width:4; stroke-opacity:1; fill:none" points="1760.9,1486.45 1760.9,1467.55 "/>
<polyline clip-path="url(#clip790)" style="stroke:#000000; stroke-linecap:round; stroke-linejoin:round; stroke-width:4; stroke-opacity:1; fill:none" points="2289.34,1486.45 2289.34,1467.55 "/>
<path clip-path="url(#clip790)" d="M152.974 1517.37 Q149.363 1517.37 147.534 1520.93 Q145.729 1524.47 145.729 1531.6 Q145.729 1538.71 147.534 1542.27 Q149.363 1545.82 152.974 1545.82 Q156.608 1545.82 158.414 1542.27 Q160.243 1538.71 160.243 1531.6 Q160.243 1524.47 158.414 1520.93 Q156.608 1517.37 152.974 1517.37 M152.974 1513.66 Q158.784 1513.66 161.84 1518.27 Q164.919 1522.85 164.919 1531.6 Q164.919 1540.33 161.84 1544.94 Q158.784 1549.52 152.974 1549.52 Q147.164 1549.52 144.085 1544.94 Q141.03 1540.33 141.03 1531.6 Q141.03 1522.85 144.085 1518.27 Q147.164 1513.66 152.974 1513.66 Z" fill="#000000" fill-rule="nonzero" fill-opacity="1" /><path clip-path="url(#clip790)" d="M173.136 1542.97 L178.02 1542.97 L178.02 1548.85 L173.136 1548.85 L173.136 1542.97 Z" fill="#000000" fill-rule="nonzero" fill-opacity="1" /><path clip-path="url(#clip790)" d="M198.205 1517.37 Q194.594 1517.37 192.766 1520.93 Q190.96 1524.47 190.96 1531.6 Q190.96 1538.71 192.766 1542.27 Q194.594 1545.82 198.205 1545.82 Q201.84 1545.82 203.645 1542.27 Q205.474 1538.71 205.474 1531.6 Q205.474 1524.47 203.645 1520.93 Q201.84 1517.37 198.205 1517.37 M198.205 1513.66 Q204.016 1513.66 207.071 1518.27 Q210.15 1522.85 210.15 1531.6 Q210.15 1540.33 207.071 1544.94 Q204.016 1549.52 198.205 1549.52 Q192.395 1549.52 189.317 1544.94 Q186.261 1540.33 186.261 1531.6 Q186.261 1522.85 189.317 1518.27 Q192.395 1513.66 198.205 1513.66 Z" fill="#000000" fill-rule="nonzero" fill-opacity="1" /><path clip-path="url(#clip790)" d="M675.764 1544.91 L692.084 1544.91 L692.084 1548.85 L670.139 1548.85 L670.139 1544.91 Q672.801 1542.16 677.385 1537.53 Q681.991 1532.88 683.172 1531.53 Q685.417 1529.01 686.297 1527.27 Q687.2 1525.51 687.2 1523.82 Q687.2 1521.07 685.255 1519.33 Q683.334 1517.6 680.232 1517.6 Q678.033 1517.6 675.579 1518.36 Q673.149 1519.13 670.371 1520.68 L670.371 1515.95 Q673.195 1514.82 675.649 1514.24 Q678.102 1513.66 680.139 1513.66 Q685.51 1513.66 688.704 1516.35 Q691.899 1519.03 691.899 1523.52 Q691.899 1525.65 691.088 1527.57 Q690.301 1529.47 688.195 1532.07 Q687.616 1532.74 684.514 1535.95 Q681.413 1539.15 675.764 1544.91 Z" fill="#000000" fill-rule="nonzero" fill-opacity="1" /><path clip-path="url(#clip790)" d="M701.899 1542.97 L706.783 1542.97 L706.783 1548.85 L701.899 1548.85 L701.899 1542.97 Z" fill="#000000" fill-rule="nonzero" fill-opacity="1" /><path clip-path="url(#clip790)" d="M717.014 1514.29 L735.371 1514.29 L735.371 1518.22 L721.297 1518.22 L721.297 1526.7 Q722.315 1526.35 723.334 1526.19 Q724.352 1526 725.371 1526 Q731.158 1526 734.537 1529.17 Q737.917 1532.34 737.917 1537.76 Q737.917 1543.34 734.445 1546.44 Q730.972 1549.52 724.653 1549.52 Q722.477 1549.52 720.209 1549.15 Q717.963 1548.78 715.556 1548.04 L715.556 1543.34 Q717.639 1544.47 719.861 1545.03 Q722.084 1545.58 724.56 1545.58 Q728.565 1545.58 730.903 1543.48 Q733.241 1541.37 733.241 1537.76 Q733.241 1534.15 730.903 1532.04 Q728.565 1529.94 724.56 1529.94 Q722.685 1529.94 720.81 1530.35 Q718.959 1530.77 717.014 1531.65 L717.014 1514.29 Z" fill="#000000" fill-rule="nonzero" fill-opacity="1" /><path clip-path="url(#clip790)" d="M1199.63 1514.29 L1217.99 1514.29 L1217.99 1518.22 L1203.91 1518.22 L1203.91 1526.7 Q1204.93 1526.35 1205.95 1526.19 Q1206.97 1526 1207.99 1526 Q1213.77 1526 1217.15 1529.17 Q1220.53 1532.34 1220.53 1537.76 Q1220.53 1543.34 1217.06 1546.44 Q1213.59 1549.52 1207.27 1549.52 Q1205.09 1549.52 1202.83 1549.15 Q1200.58 1548.78 1198.17 1548.04 L1198.17 1543.34 Q1200.26 1544.47 1202.48 1545.03 Q1204.7 1545.58 1207.18 1545.58 Q1211.18 1545.58 1213.52 1543.48 Q1215.86 1541.37 1215.86 1537.76 Q1215.86 1534.15 1213.52 1532.04 Q1211.18 1529.94 1207.18 1529.94 Q1205.3 1529.94 1203.43 1530.35 Q1201.58 1530.77 1199.63 1531.65 L1199.63 1514.29 Z" fill="#000000" fill-rule="nonzero" fill-opacity="1" /><path clip-path="url(#clip790)" d="M1229.75 1542.97 L1234.63 1542.97 L1234.63 1548.85 L1229.75 1548.85 L1229.75 1542.97 Z" fill="#000000" fill-rule="nonzero" fill-opacity="1" /><path clip-path="url(#clip790)" d="M1254.82 1517.37 Q1251.2 1517.37 1249.38 1520.93 Q1247.57 1524.47 1247.57 1531.6 Q1247.57 1538.71 1249.38 1542.27 Q1251.2 1545.82 1254.82 1545.82 Q1258.45 1545.82 1260.26 1542.27 Q1262.08 1538.71 1262.08 1531.6 Q1262.08 1524.47 1260.26 1520.93 Q1258.45 1517.37 1254.82 1517.37 M1254.82 1513.66 Q1260.63 1513.66 1263.68 1518.27 Q1266.76 1522.85 1266.76 1531.6 Q1266.76 1540.33 1263.68 1544.94 Q1260.63 1549.52 1254.82 1549.52 Q1249.01 1549.52 1245.93 1544.94 Q1242.87 1540.33 1242.87 1531.6 Q1242.87 1522.85 1245.93 1518.27 Q1249.01 1513.66 1254.82 1513.66 Z" fill="#000000" fill-rule="nonzero" fill-opacity="1" /><path clip-path="url(#clip790)" d="M1727.22 1514.29 L1749.45 1514.29 L1749.45 1516.28 L1736.9 1548.85 L1732.02 1548.85 L1743.82 1518.22 L1727.22 1518.22 L1727.22 1514.29 Z" fill="#000000" fill-rule="nonzero" fill-opacity="1" /><path clip-path="url(#clip790)" d="M1758.57 1542.97 L1763.45 1542.97 L1763.45 1548.85 L1758.57 1548.85 L1758.57 1542.97 Z" fill="#000000" fill-rule="nonzero" fill-opacity="1" /><path clip-path="url(#clip790)" d="M1773.68 1514.29 L1792.04 1514.29 L1792.04 1518.22 L1777.97 1518.22 L1777.97 1526.7 Q1778.98 1526.35 1780 1526.19 Q1781.02 1526 1782.04 1526 Q1787.83 1526 1791.21 1529.17 Q1794.59 1532.34 1794.59 1537.76 Q1794.59 1543.34 1791.11 1546.44 Q1787.64 1549.52 1781.32 1549.52 Q1779.15 1549.52 1776.88 1549.15 Q1774.63 1548.78 1772.22 1548.04 L1772.22 1543.34 Q1774.31 1544.47 1776.53 1545.03 Q1778.75 1545.58 1781.23 1545.58 Q1785.23 1545.58 1787.57 1543.48 Q1789.91 1541.37 1789.91 1537.76 Q1789.91 1534.15 1787.57 1532.04 Q1785.23 1529.94 1781.23 1529.94 Q1779.35 1529.94 1777.48 1530.35 Q1775.63 1530.77 1773.68 1531.65 L1773.68 1514.29 Z" fill="#000000" fill-rule="nonzero" fill-opacity="1" /><path clip-path="url(#clip790)" d="M2241.42 1544.91 L2249.05 1544.91 L2249.05 1518.55 L2240.74 1520.21 L2240.74 1515.95 L2249.01 1514.29 L2253.68 1514.29 L2253.68 1544.91 L2261.32 1544.91 L2261.32 1548.85 L2241.42 1548.85 L2241.42 1544.91 Z" fill="#000000" fill-rule="nonzero" fill-opacity="1" /><path clip-path="url(#clip790)" d="M2280.77 1517.37 Q2277.16 1517.37 2275.33 1520.93 Q2273.52 1524.47 2273.52 1531.6 Q2273.52 1538.71 2275.33 1542.27 Q2277.16 1545.82 2280.77 1545.82 Q2284.4 1545.82 2286.21 1542.27 Q2288.04 1538.71 2288.04 1531.6 Q2288.04 1524.47 2286.21 1520.93 Q2284.4 1517.37 2280.77 1517.37 M2280.77 1513.66 Q2286.58 1513.66 2289.63 1518.27 Q2292.71 1522.85 2292.71 1531.6 Q2292.71 1540.33 2289.63 1544.94 Q2286.58 1549.52 2280.77 1549.52 Q2274.96 1549.52 2271.88 1544.94 Q2268.82 1540.33 2268.82 1531.6 Q2268.82 1522.85 2271.88 1518.27 Q2274.96 1513.66 2280.77 1513.66 Z" fill="#000000" fill-rule="nonzero" fill-opacity="1" /><path clip-path="url(#clip790)" d="M2300.93 1542.97 L2305.81 1542.97 L2305.81 1548.85 L2300.93 1548.85 L2300.93 1542.97 Z" fill="#000000" fill-rule="nonzero" fill-opacity="1" /><path clip-path="url(#clip790)" d="M2326 1517.37 Q2322.39 1517.37 2320.56 1520.93 Q2318.75 1524.47 2318.75 1531.6 Q2318.75 1538.71 2320.56 1542.27 Q2322.39 1545.82 2326 1545.82 Q2329.63 1545.82 2331.44 1542.27 Q2333.27 1538.71 2333.27 1531.6 Q2333.27 1524.47 2331.44 1520.93 Q2329.63 1517.37 2326 1517.37 M2326 1513.66 Q2331.81 1513.66 2334.86 1518.27 Q2337.94 1522.85 2337.94 1531.6 Q2337.94 1540.33 2334.86 1544.94 Q2331.81 1549.52 2326 1549.52 Q2320.19 1549.52 2317.11 1544.94 Q2314.05 1540.33 2314.05 1531.6 Q2314.05 1522.85 2317.11 1518.27 Q2320.19 1513.66 2326 1513.66 Z" fill="#000000" fill-rule="nonzero" fill-opacity="1" /><polyline clip-path="url(#clip790)" style="stroke:#000000; stroke-linecap:round; stroke-linejoin:round; stroke-width:4; stroke-opacity:1; fill:none" points="112.177,1486.45 112.177,47.2441 "/>
<polyline clip-path="url(#clip790)" style="stroke:#000000; stroke-linecap:round; stroke-linejoin:round; stroke-width:4; stroke-opacity:1; fill:none" points="112.177,1456.95 131.075,1456.95 "/>
<polyline clip-path="url(#clip790)" style="stroke:#000000; stroke-linecap:round; stroke-linejoin:round; stroke-width:4; stroke-opacity:1; fill:none" points="112.177,1156.71 131.075,1156.71 "/>
<polyline clip-path="url(#clip790)" style="stroke:#000000; stroke-linecap:round; stroke-linejoin:round; stroke-width:4; stroke-opacity:1; fill:none" points="112.177,856.479 131.075,856.479 "/>
<polyline clip-path="url(#clip790)" style="stroke:#000000; stroke-linecap:round; stroke-linejoin:round; stroke-width:4; stroke-opacity:1; fill:none" points="112.177,556.244 131.075,556.244 "/>
<polyline clip-path="url(#clip790)" style="stroke:#000000; stroke-linecap:round; stroke-linejoin:round; stroke-width:4; stroke-opacity:1; fill:none" points="112.177,256.009 131.075,256.009 "/>
<path clip-path="url(#clip790)" d="M64.2328 1442.75 Q60.6217 1442.75 58.793 1446.31 Q56.9875 1449.86 56.9875 1456.98 Q56.9875 1464.09 58.793 1467.66 Q60.6217 1471.2 64.2328 1471.2 Q67.867 1471.2 69.6726 1467.66 Q71.5013 1464.09 71.5013 1456.98 Q71.5013 1449.86 69.6726 1446.31 Q67.867 1442.75 64.2328 1442.75 M64.2328 1439.04 Q70.0429 1439.04 73.0985 1443.65 Q76.1772 1448.23 76.1772 1456.98 Q76.1772 1465.71 73.0985 1470.32 Q70.0429 1474.9 64.2328 1474.9 Q58.4226 1474.9 55.344 1470.32 Q52.2884 1465.71 52.2884 1456.98 Q52.2884 1448.23 55.344 1443.65 Q58.4226 1439.04 64.2328 1439.04 Z" fill="#000000" fill-rule="nonzero" fill-opacity="1" /><path clip-path="url(#clip790)" d="M59.8578 1170.06 L76.1772 1170.06 L76.1772 1173.99 L54.2328 1173.99 L54.2328 1170.06 Q56.8949 1167.3 61.4782 1162.68 Q66.0846 1158.02 67.2652 1156.68 Q69.5105 1154.16 70.3902 1152.42 Q71.2929 1150.66 71.2929 1148.97 Q71.2929 1146.22 69.3485 1144.48 Q67.4272 1142.74 64.3254 1142.74 Q62.1263 1142.74 59.6726 1143.51 Q57.2421 1144.27 54.4643 1145.82 L54.4643 1141.1 Q57.2884 1139.97 59.7421 1139.39 Q62.1958 1138.81 64.2328 1138.81 Q69.6031 1138.81 72.7976 1141.49 Q75.992 1144.18 75.992 1148.67 Q75.992 1150.8 75.1818 1152.72 Q74.3948 1154.62 72.2883 1157.21 Q71.7096 1157.88 68.6078 1161.1 Q65.5059 1164.3 59.8578 1170.06 Z" fill="#000000" fill-rule="nonzero" fill-opacity="1" /><path clip-path="url(#clip790)" d="M66.5939 843.273 L54.7884 861.722 L66.5939 861.722 L66.5939 843.273 M65.367 839.199 L71.2466 839.199 L71.2466 861.722 L76.1772 861.722 L76.1772 865.611 L71.2466 865.611 L71.2466 873.759 L66.5939 873.759 L66.5939 865.611 L50.9921 865.611 L50.9921 861.097 L65.367 839.199 Z" fill="#000000" fill-rule="nonzero" fill-opacity="1" /><path clip-path="url(#clip790)" d="M64.6495 554.381 Q61.5013 554.381 59.6495 556.534 Q57.8208 558.686 57.8208 562.436 Q57.8208 566.163 59.6495 568.339 Q61.5013 570.492 64.6495 570.492 Q67.7976 570.492 69.6263 568.339 Q71.4781 566.163 71.4781 562.436 Q71.4781 558.686 69.6263 556.534 Q67.7976 554.381 64.6495 554.381 M73.9318 539.728 L73.9318 543.987 Q72.1726 543.154 70.367 542.714 Q68.5846 542.274 66.8254 542.274 Q62.1958 542.274 59.7421 545.399 Q57.3115 548.524 56.9643 554.844 Q58.33 552.83 60.3902 551.765 Q62.4504 550.677 64.9272 550.677 Q70.1355 550.677 73.1448 553.848 Q76.1772 556.996 76.1772 562.436 Q76.1772 567.76 73.029 570.978 Q69.8809 574.195 64.6495 574.195 Q58.6541 574.195 55.4828 569.612 Q52.3116 565.006 52.3116 556.279 Q52.3116 548.084 56.2004 543.223 Q60.0893 538.339 66.6402 538.339 Q68.3994 538.339 70.1818 538.686 Q71.9874 539.034 73.9318 539.728 Z" fill="#000000" fill-rule="nonzero" fill-opacity="1" /><path clip-path="url(#clip790)" d="M64.3254 256.877 Q60.9921 256.877 59.0708 258.659 Q57.1726 260.442 57.1726 263.567 Q57.1726 266.692 59.0708 268.474 Q60.9921 270.256 64.3254 270.256 Q67.6587 270.256 69.58 268.474 Q71.5013 266.669 71.5013 263.567 Q71.5013 260.442 69.58 258.659 Q67.6819 256.877 64.3254 256.877 M59.6495 254.886 Q56.6402 254.145 54.9504 252.085 Q53.2838 250.025 53.2838 247.062 Q53.2838 242.919 56.2236 240.511 Q59.1865 238.104 64.3254 238.104 Q69.4874 238.104 72.4272 240.511 Q75.367 242.919 75.367 247.062 Q75.367 250.025 73.6772 252.085 Q72.0105 254.145 69.0244 254.886 Q72.404 255.673 74.279 257.965 Q76.1772 260.257 76.1772 263.567 Q76.1772 268.59 73.0985 271.275 Q70.0429 273.96 64.3254 273.96 Q58.6078 273.96 55.5291 271.275 Q52.4736 268.59 52.4736 263.567 Q52.4736 260.257 54.3717 257.965 Q56.2699 255.673 59.6495 254.886 M57.9365 247.502 Q57.9365 250.187 59.6032 251.692 Q61.293 253.196 64.3254 253.196 Q67.3346 253.196 69.0244 251.692 Q70.7374 250.187 70.7374 247.502 Q70.7374 244.817 69.0244 243.312 Q67.3346 241.808 64.3254 241.808 Q61.293 241.808 59.6032 243.312 Q57.9365 244.817 57.9365 247.502 Z" fill="#000000" fill-rule="nonzero" fill-opacity="1" /><path clip-path="url(#clip792)" d="M175.59 1306.83 L196.727 1317.56 L217.865 1313.49 L239.002 1297.69 L260.14 1280.81 L281.277 1266.79 L302.415 1259.13 L323.553 1239.96 L344.69 1221.98 L365.828 1217.82 L386.965 1159.57 L408.103 1091.29 L429.24 1034.46 L450.378 976.236 L471.515 934.371 L492.653 861.611 L513.79 812.357 L534.928 722.346 L556.065 660.551 L577.203 666.683 L598.34 674.762 L619.478 698.84 L640.616 786.403 L661.753 931.241 L682.891 1066.48 L704.028 1175.53 L725.166 1255.5 L746.303 1296.17 L767.441 1325.57 L788.578 1334.18 L809.716 1349.74 L830.853 1352.02 L851.991 1365.28 L873.128 1361.63 L894.266 1353.64 L915.404 1349.92 L936.541 1339.81 L957.679 1336.96 L978.816 1320.22 L999.954 1312.82 L1021.09 1292.45 L1042.23 1287.06 L1063.37 1270.29 L1084.5 1231.33 L1105.64 1209.18 L1126.78 1172.65 L1147.92 1135.91 L1169.05 1086.05 L1190.19 996.842 L1211.33 955.262 L1232.47 942.099 L1253.6 852.267 L1274.74 861.785 L1295.88 864.512 L1317.02 956.31 L1338.15 1075.27 L1359.29 1150.68 L1380.43 1230.88 L1401.57 1275.92 L1422.7 1314.03 L1443.84 1344.55 L1464.98 1352.47 L1486.12 1353.02 L1507.25 1367.56 L1528.39 1374.66 L1549.53 1381.12 L1570.67 1382.46 L1591.8 1382.94 L1612.94 1379.1 L1634.08 1374.02 L1655.22 1367.15 L1676.35 1354.83 L1697.49 1360.38 L1718.63 1353.25 L1739.77 1342.1 L1760.9 1331.46 L1782.04 1315.1 L1803.18 1298.42 L1824.32 1278.2 L1845.46 1255.99 L1866.59 1219.05 L1887.73 1186.16 L1908.87 1143.66 L1930.01 1085.06 L1951.14 1045.71 L1972.28 973.606 L1993.42 989.755 L2014.56 978.811 L2035.69 1009.68 L2056.83 1124.04 L2077.97 1222.89 L2099.11 1267.14 L2120.24 1292.17 L2141.38 1308.46 L2162.52 1339.07 L2183.66 1357.27 L2204.79 1366.3 L2225.93 1372.09 L2247.07 1373.8 L2268.21 1385.18 L2289.34 1390.27 L2289.34 1079.58 L2268.21 941.786 L2247.07 591.16 L2225.93 375.938 L2204.79 437.662 L2183.66 417.683 L2162.52 378.536 L2141.38 326.316 L2120.24 414.603 L2099.11 339.567 L2077.97 268.513 L2056.83 165.634 L2035.69 128.591 L2014.56 198.927 L1993.42 294.521 L1972.28 417.097 L1951.14 483.798 L1930.01 567.893 L1908.87 603.987 L1887.73 610.609 L1866.59 635.605 L1845.46 674.879 L1824.32 718.65 L1803.18 783.182 L1782.04 852.24 L1760.9 904.803 L1739.77 994.842 L1718.63 1021.82 L1697.49 1075.29 L1676.35 1119.43 L1655.22 1178.02 L1634.08 1222.86 L1612.94 1234.16 L1591.8 1220.34 L1570.67 1195.05 L1549.53 1148.79 L1528.39 1094.77 L1507.25 986.869 L1486.12 843.993 L1464.98 737.109 L1443.84 583.731 L1422.7 484.929 L1401.57 105.674 L1380.43 87.9763 L1359.29 182.003 L1338.15 365.083 L1317.02 434.145 L1295.88 380.176 L1274.74 354.936 L1253.6 367.542 L1232.47 503.444 L1211.33 587.457 L1190.19 622.232 L1169.05 666.713 L1147.92 711.093 L1126.78 786.863 L1105.64 874.169 L1084.5 902.476 L1063.37 986.99 L1042.23 1037.01 L1021.09 1080.56 L999.954 1116.6 L978.816 1134.96 L957.679 1175.08 L936.541 1206.75 L915.404 1221.23 L894.266 1245.38 L873.128 1252.68 L851.991 1234.52 L830.853 1222.6 L809.716 1201.04 L788.578 1150.93 L767.441 1091.29 L746.303 992.375 L725.166 814.409 L704.028 646.518 L682.891 470.597 L661.753 280.237 L640.616 273.474 L619.478 330.294 L598.34 292.5 L577.203 316.315 L556.065 387.993 L534.928 497.583 L513.79 595.897 L492.653 667.956 L471.515 691.955 L450.378 778.324 L429.24 832.398 L408.103 859.893 L386.965 935.573 L365.828 990.926 L344.69 1026.09 L323.553 1046.28 L302.415 1087.19 L281.277 1156.35 L260.14 1202.63 L239.002 1243.29 L217.865 1274.06 L196.727 1290.64 L175.59 1306.83  Z" fill="#009af9" fill-rule="evenodd" fill-opacity="0.5"/>
<polyline clip-path="url(#clip792)" style="stroke:#009af9; stroke-linecap:round; stroke-linejoin:round; stroke-width:12; stroke-opacity:1; fill:none" points="175.59,1306.83 196.727,1296.92 217.865,1285.09 239.002,1267.05 260.14,1252.47 281.277,1237.58 302.415,1208.4 323.553,1180.47 344.69,1141.05 365.828,1106.53 386.965,1064.25 408.103,1007.35 429.24,949.127 450.378,861.831 471.515,783.162 492.653,696.252 513.79,618.716 534.928,555.083 556.065,442.479 577.203,408.391 598.34,420.22 619.478,470.771 640.616,564.371 661.753,713.665 682.891,929.643 704.028,1030.93 725.166,1154.7 746.303,1209.74 767.441,1255.23 788.578,1287.24 809.716,1305.34 830.853,1312.77 851.991,1313.51 873.128,1311.36 894.266,1306.51 915.404,1303.03 936.541,1294.68 957.679,1265.67 978.816,1238.72 999.954,1222.07 1021.09,1190.31 1042.23,1163.65 1063.37,1134.78 1084.5,1099.33 1105.64,1037.12 1126.78,973.526 1147.92,913.187 1169.05,866.737 1190.19,797.403 1211.33,704.926 1232.47,621.172 1253.6,637.656 1274.74,565.761 1295.88,503.612 1317.02,489.785 1338.15,618.95 1359.29,701.74 1380.43,891.118 1401.57,1036.03 1422.7,1144.37 1443.84,1215.19 1464.98,1256.72 1486.12,1291.35 1507.25,1301.52 1528.39,1310.78 1549.53,1316.2 1570.67,1320.81 1591.8,1316.06 1612.94,1303.7 1634.08,1293.54 1655.22,1277.97 1676.35,1270.75 1697.49,1243.72 1718.63,1219.13 1739.77,1184.09 1760.9,1149.68 1782.04,1119.79 1803.18,1059.48 1824.32,1005.21 1845.46,953.284 1866.59,878.972 1887.73,814.253 1908.87,742.97 1930.01,624.75 1951.14,545.56 1972.28,471.009 1993.42,487.459 2014.56,536.602 2035.69,505.206 2056.83,629.222 2077.97,694.213 2099.11,935.389 2120.24,1101.67 2141.38,1184.23 2162.52,1236.55 2183.66,1254 2204.79,1296.63 2225.93,1314.4 2247.07,1331.2 2268.21,1331.79 2289.34,1325.28 "/>
<path clip-path="url(#clip792)" d="M175.59 1306.83 L196.727 1345.09 L217.865 1362.09 L239.002 1379.2 L260.14 1393.18 L281.277 1405.99 L302.415 1415.27 L323.553 1419 L344.69 1423.02 L365.828 1426.45 L386.965 1430.35 L408.103 1432.57 L429.24 1432.81 L450.378 1431.65 L471.515 1429.9 L492.653 1429.27 L513.79 1428.01 L534.928 1424.37 L556.065 1416.76 L577.203 1404.4 L598.34 1383.98 L619.478 1354.34 L640.616 1305.54 L661.753 1216.92 L682.891 1116.93 L704.028 1066.65 L725.166 1028.71 L746.303 1077.29 L767.441 1136.05 L788.578 1157.58 L809.716 1193.69 L830.853 1241.2 L851.991 1280.82 L873.128 1318.88 L894.266 1337.35 L915.404 1358.7 L936.541 1375.48 L957.679 1391.93 L978.816 1406.75 L999.954 1415.29 L1021.09 1419.54 L1042.23 1424.69 L1063.37 1429.68 L1084.5 1434.23 L1105.64 1436.58 L1126.78 1438.34 L1147.92 1438.99 L1169.05 1439.58 L1190.19 1438.72 L1211.33 1437.7 L1232.47 1435.94 L1253.6 1434.67 L1274.74 1429.67 L1295.88 1423.02 L1317.02 1413.13 L1338.15 1400.09 L1359.29 1372.92 L1380.43 1305.11 L1401.57 1200.68 L1422.7 1200.88 L1443.84 1191.04 L1464.98 1173.68 L1486.12 1220.98 L1507.25 1281.12 L1528.39 1319.23 L1549.53 1353.48 L1570.67 1374.35 L1591.8 1387.24 L1612.94 1396.27 L1634.08 1406.84 L1655.22 1415.32 L1676.35 1422.41 L1697.49 1424.43 L1718.63 1426.9 L1739.77 1431.3 L1760.9 1433.99 L1782.04 1437.3 L1803.18 1440.4 L1824.32 1442.81 L1845.46 1444.44 L1866.59 1445.17 L1887.73 1445.72 L1908.87 1445.54 L1930.01 1444.49 L1951.14 1442.46 L1972.28 1438.9 L1993.42 1431.35 L2014.56 1422.71 L2035.69 1410.07 L2056.83 1387.62 L2077.97 1342.62 L2099.11 1282.38 L2120.24 1331.21 L2141.38 1358.24 L2162.52 1368.66 L2183.66 1348.26 L2204.79 1308.4 L2225.93 1313.47 L2247.07 1331.56 L2268.21 1353.15 L2289.34 1365.17 L2289.34 689.764 L2268.21 619.33 L2247.07 675.634 L2225.93 821.316 L2204.79 683.769 L2183.66 564.003 L2162.52 515.676 L2141.38 579.719 L2120.24 578.667 L2099.11 564.018 L2077.97 607.166 L2056.83 708.482 L2035.69 780.595 L2014.56 873.573 L1993.42 962.701 L1972.28 988.337 L1951.14 1064.49 L1930.01 1195.4 L1908.87 1272.98 L1887.73 1300.24 L1866.59 1333.35 L1845.46 1357.32 L1824.32 1371.76 L1803.18 1380.73 L1782.04 1384.28 L1760.9 1377.77 L1739.77 1357.38 L1718.63 1330.07 L1697.49 1294.95 L1676.35 1258.95 L1655.22 1210.47 L1634.08 1153.58 L1612.94 1095.28 L1591.8 1029.18 L1570.67 966.029 L1549.53 922.152 L1528.39 858.041 L1507.25 737.944 L1486.12 566.043 L1464.98 458.183 L1443.84 406.313 L1422.7 581.73 L1401.57 752.654 L1380.43 705.007 L1359.29 720.04 L1338.15 801.905 L1317.02 834.127 L1295.88 958.849 L1274.74 1003.45 L1253.6 1061.59 L1232.47 1164.68 L1211.33 1226.57 L1190.19 1256.31 L1169.05 1301.43 L1147.92 1344.79 L1126.78 1364.19 L1105.64 1375.75 L1084.5 1380.71 L1063.37 1378.97 L1042.23 1380.31 L1021.09 1377.25 L999.954 1360.04 L978.816 1340.55 L957.679 1315.71 L936.541 1282.97 L915.404 1251.39 L894.266 1208.3 L873.128 1145.05 L851.991 1057.91 L830.853 975.365 L809.716 908.643 L788.578 838.446 L767.441 786.148 L746.303 769.409 L725.166 668.257 L704.028 608.738 L682.891 637.548 L661.753 709.955 L640.616 801.535 L619.478 974.689 L598.34 1136.84 L577.203 1195.25 L556.065 1232.03 L534.928 1284.91 L513.79 1312.59 L492.653 1336.91 L471.515 1366.31 L450.378 1380.57 L429.24 1393 L408.103 1398.03 L386.965 1402.77 L365.828 1399.23 L344.69 1399.61 L323.553 1398.27 L302.415 1398.13 L281.277 1389.37 L260.14 1373.56 L239.002 1364.93 L217.865 1352.27 L196.727 1329.38 L175.59 1306.83  Z" fill="#e26f46" fill-rule="evenodd" fill-opacity="0.5"/>
<polyline clip-path="url(#clip792)" style="stroke:#e26f46; stroke-linecap:round; stroke-linejoin:round; stroke-width:12; stroke-opacity:1; fill:none" points="175.59,1306.83 196.727,1334.06 217.865,1355.63 239.002,1373.02 260.14,1388.22 281.277,1400.29 302.415,1405.14 323.553,1409.18 344.69,1413.72 365.828,1418.07 386.965,1419.89 408.103,1422.31 429.24,1422.96 450.378,1420.67 471.515,1416.38 492.653,1408.59 513.79,1395.3 534.928,1380.88 556.065,1348.57 577.203,1293.72 598.34,1210.84 619.478,1121.16 640.616,1009.92 661.753,882.404 682.891,800.705 704.028,816.93 725.166,873.977 746.303,894.635 767.441,961.112 788.578,1032.39 809.716,1115.91 830.853,1167.47 851.991,1223.68 873.128,1265.32 894.266,1308.68 915.404,1335.41 936.541,1362.6 957.679,1371.93 978.816,1385.28 999.954,1396.5 1021.09,1403.97 1042.23,1408.83 1063.37,1411.45 1084.5,1415.09 1105.64,1417.6 1126.78,1415.76 1147.92,1413.03 1169.05,1410.48 1190.19,1408 1211.33,1400.13 1232.47,1381.73 1253.6,1356.02 1274.74,1309.62 1295.88,1241.33 1317.02,1139.93 1338.15,1000.19 1359.29,880.747 1380.43,887.628 1401.57,856.876 1422.7,876.462 1443.84,949.444 1464.98,1051.62 1486.12,1072.59 1507.25,1130.82 1528.39,1186.61 1549.53,1221.92 1570.67,1268.3 1591.8,1296.46 1612.94,1329.99 1634.08,1351.73 1655.22,1373.28 1676.35,1386.5 1697.49,1396.67 1718.63,1404.97 1739.77,1411.67 1760.9,1413.69 1782.04,1416.02 1803.18,1419.25 1824.32,1420.89 1845.46,1421.23 1866.59,1419.26 1887.73,1414.43 1908.87,1410.71 1930.01,1405.08 1951.14,1393.53 1972.28,1369.81 1993.42,1323.54 2014.56,1242.19 2035.69,1110.32 2056.83,978.744 2077.97,920.265 2099.11,840.641 2120.24,830.393 2141.38,831.441 2162.52,917.046 2183.66,1011.8 2204.79,1089.4 2225.93,1107.33 2247.07,1180.34 2268.21,1232.27 2289.34,1284.59 "/>
</svg>
