<?xml version="1.0" encoding="utf-8"?>
<svg xmlns="http://www.w3.org/2000/svg" xmlns:xlink="http://www.w3.org/1999/xlink" width="600" height="400" viewBox="0 0 2400 1600">
<defs>
  <clipPath id="clip350">
    <rect x="0" y="0" width="2400" height="1600"/>
  </clipPath>
</defs>
<path clip-path="url(#clip350)" d="M0 1600 L2400 1600 L2400 0 L0 0  Z" fill="#ffffff" fill-rule="evenodd" fill-opacity="1"/>
<defs>
  <clipPath id="clip351">
    <rect x="112" y="47" width="2242" height="1440"/>
  </clipPath>
</defs>
<path clip-path="url(#clip350)" d="M112.177 1486.45 L2352.76 1486.45 L2352.76 47.2441 L112.177 47.2441  Z" fill="#ffffff" fill-rule="evenodd" fill-opacity="1"/>
<polyline clip-path="url(#clip351)" style="stroke:#000000; stroke-linecap:round; stroke-linejoin:round; stroke-width:2; stroke-opacity:0.1; fill:none" points="175.59,1486.45 175.59,47.2441 "/>
<polyline clip-path="url(#clip351)" style="stroke:#000000; stroke-linecap:round; stroke-linejoin:round; stroke-width:2; stroke-opacity:0.1; fill:none" points="704.028,1486.45 704.028,47.2441 "/>
<polyline clip-path="url(#clip351)" style="stroke:#000000; stroke-linecap:round; stroke-linejoin:round; stroke-width:2; stroke-opacity:0.1; fill:none" points="1232.47,1486.45 1232.47,47.2441 "/>
<polyline clip-path="url(#clip351)" style="stroke:#000000; stroke-linecap:round; stroke-linejoin:round; stroke-width:2; stroke-opacity:0.1; fill:none" points="1760.9,1486.45 1760.9,47.2441 "/>
<polyline clip-path="url(#clip351)" style="stroke:#000000; stroke-linecap:round; stroke-linejoin:round; stroke-width:2; stroke-opacity:0.1; fill:none" points="2289.34,1486.45 2289.34,47.2441 "/>
<polyline clip-path="url(#clip351)" style="stroke:#000000; stroke-linecap:round; stroke-linejoin:round; stroke-width:2; stroke-opacity:0.1; fill:none" points="112.177,1465.46 2352.76,1465.46 "/>
<polyline clip-path="url(#clip351)" style="stroke:#000000; stroke-linecap:round; stroke-linejoin:round; stroke-width:2; stroke-opacity:0.1; fill:none" points="112.177,1121.81 2352.76,1121.81 "/>
<polyline clip-path="url(#clip351)" style="stroke:#000000; stroke-linecap:round; stroke-linejoin:round; stroke-width:2; stroke-opacity:0.1; fill:none" points="112.177,778.163 2352.76,778.163 "/>
<polyline clip-path="url(#clip351)" style="stroke:#000000; stroke-linecap:round; stroke-linejoin:round; stroke-width:2; stroke-opacity:0.1; fill:none" points="112.177,434.516 2352.76,434.516 "/>
<polyline clip-path="url(#clip351)" style="stroke:#000000; stroke-linecap:round; stroke-linejoin:round; stroke-width:2; stroke-opacity:0.1; fill:none" points="112.177,90.8702 2352.76,90.8702 "/>
<polyline clip-path="url(#clip350)" style="stroke:#000000; stroke-linecap:round; stroke-linejoin:round; stroke-width:4; stroke-opacity:1; fill:none" points="112.177,1486.45 2352.76,1486.45 "/>
<polyline clip-path="url(#clip350)" style="stroke:#000000; stroke-linecap:round; stroke-linejoin:round; stroke-width:4; stroke-opacity:1; fill:none" points="175.59,1486.45 175.59,1467.55 "/>
<polyline clip-path="url(#clip350)" style="stroke:#000000; stroke-linecap:round; stroke-linejoin:round; stroke-width:4; stroke-opacity:1; fill:none" points="704.028,1486.45 704.028,1467.55 "/>
<polyline clip-path="url(#clip350)" style="stroke:#000000; stroke-linecap:round; stroke-linejoin:round; stroke-width:4; stroke-opacity:1; fill:none" points="1232.47,1486.45 1232.47,1467.55 "/>
<polyline clip-path="url(#clip350)" style="stroke:#000000; stroke-linecap:round; stroke-linejoin:round; stroke-width:4; stroke-opacity:1; fill:none" points="1760.9,1486.45 1760.9,1467.55 "/>
<polyline clip-path="url(#clip350)" style="stroke:#000000; stroke-linecap:round; stroke-linejoin:round; stroke-width:4; stroke-opacity:1; fill:none" points="2289.34,1486.45 2289.34,1467.55 "/>
<path clip-path="url(#clip350)" d="M152.974 1517.37 Q149.363 1517.37 147.534 1520.93 Q145.729 1524.47 145.729 1531.6 Q145.729 1538.71 147.534 1542.27 Q149.363 1545.82 152.974 1545.82 Q156.608 1545.82 158.414 1542.27 Q160.243 1538.71 160.243 1531.6 Q160.243 1524.47 158.414 1520.93 Q156.608 1517.37 152.974 1517.37 M152.974 1513.66 Q158.784 1513.66 161.84 1518.27 Q164.919 1522.85 164.919 1531.6 Q164.919 1540.33 161.84 1544.94 Q158.784 1549.52 152.974 1549.52 Q147.164 1549.52 144.085 1544.94 Q141.03 1540.33 141.03 1531.6 Q141.03 1522.85 144.085 1518.27 Q147.164 1513.66 152.974 1513.66 Z" fill="#000000" fill-rule="nonzero" fill-opacity="1" /><path clip-path="url(#clip350)" d="M173.136 1542.97 L178.02 1542.97 L178.02 1548.85 L173.136 1548.85 L173.136 1542.97 Z" fill="#000000" fill-rule="nonzero" fill-opacity="1" /><path clip-path="url(#clip350)" d="M198.205 1517.37 Q194.594 1517.37 192.766 1520.93 Q190.96 1524.47 190.96 1531.6 Q190.96 1538.71 192.766 1542.27 Q194.594 1545.82 198.205 1545.82 Q201.84 1545.82 203.645 1542.27 Q205.474 1538.71 205.474 1531.6 Q205.474 1524.47 203.645 1520.93 Q201.84 1517.37 198.205 1517.37 M198.205 1513.66 Q204.016 1513.66 207.071 1518.27 Q210.15 1522.85 210.15 1531.6 Q210.15 1540.33 207.071 1544.94 Q204.016 1549.52 198.205 1549.52 Q192.395 1549.52 189.317 1544.94 Q186.261 1540.33 186.261 1531.6 Q186.261 1522.85 189.317 1518.27 Q192.395 1513.66 198.205 1513.66 Z" fill="#000000" fill-rule="nonzero" fill-opacity="1" /><path clip-path="url(#clip350)" d="M675.764 1544.91 L692.084 1544.91 L692.084 1548.85 L670.139 1548.85 L670.139 1544.91 Q672.801 1542.16 677.385 1537.53 Q681.991 1532.88 683.172 1531.53 Q685.417 1529.01 686.297 1527.27 Q687.2 1525.51 687.2 1523.82 Q687.2 1521.07 685.255 1519.33 Q683.334 1517.6 680.232 1517.6 Q678.033 1517.6 675.579 1518.36 Q673.149 1519.13 670.371 1520.68 L670.371 1515.95 Q673.195 1514.82 675.649 1514.24 Q678.102 1513.66 680.139 1513.66 Q685.51 1513.66 688.704 1516.35 Q691.899 1519.03 691.899 1523.52 Q691.899 1525.65 691.088 1527.57 Q690.301 1529.47 688.195 1532.07 Q687.616 1532.74 684.514 1535.95 Q681.413 1539.15 675.764 1544.91 Z" fill="#000000" fill-rule="nonzero" fill-opacity="1" /><path clip-path="url(#clip350)" d="M701.899 1542.97 L706.783 1542.97 L706.783 1548.85 L701.899 1548.85 L701.899 1542.97 Z" fill="#000000" fill-rule="nonzero" fill-opacity="1" /><path clip-path="url(#clip350)" d="M717.014 1514.29 L735.371 1514.29 L735.371 1518.22 L721.297 1518.22 L721.297 1526.7 Q722.315 1526.35 723.334 1526.19 Q724.352 1526 725.371 1526 Q731.158 1526 734.537 1529.17 Q737.917 1532.34 737.917 1537.76 Q737.917 1543.34 734.445 1546.44 Q730.972 1549.52 724.653 1549.52 Q722.477 1549.52 720.209 1549.15 Q717.963 1548.78 715.556 1548.04 L715.556 1543.34 Q717.639 1544.47 719.861 1545.03 Q722.084 1545.58 724.56 1545.58 Q728.565 1545.58 730.903 1543.48 Q733.241 1541.37 733.241 1537.76 Q733.241 1534.15 730.903 1532.04 Q728.565 1529.94 724.56 1529.94 Q722.685 1529.94 720.81 1530.35 Q718.959 1530.77 717.014 1531.65 L717.014 1514.29 Z" fill="#000000" fill-rule="nonzero" fill-opacity="1" /><path clip-path="url(#clip350)" d="M1199.63 1514.29 L1217.99 1514.29 L1217.99 1518.22 L1203.91 1518.22 L1203.91 1526.7 Q1204.93 1526.35 1205.95 1526.19 Q1206.97 1526 1207.99 1526 Q1213.77 1526 1217.15 1529.17 Q1220.53 1532.34 1220.53 1537.76 Q1220.53 1543.34 1217.06 1546.44 Q1213.59 1549.52 1207.27 1549.52 Q1205.09 1549.52 1202.83 1549.15 Q1200.58 1548.78 1198.17 1548.04 L1198.17 1543.34 Q1200.26 1544.47 1202.48 1545.03 Q1204.7 1545.58 1207.18 1545.58 Q1211.18 1545.58 1213.52 1543.48 Q1215.86 1541.37 1215.86 1537.76 Q1215.86 1534.15 1213.52 1532.04 Q1211.18 1529.94 1207.18 1529.94 Q1205.3 1529.94 1203.43 1530.35 Q1201.58 1530.77 1199.63 1531.65 L1199.63 1514.29 Z" fill="#000000" fill-rule="nonzero" fill-opacity="1" /><path clip-path="url(#clip350)" d="M1229.75 1542.97 L1234.63 1542.97 L1234.63 1548.85 L1229.75 1548.85 L1229.75 1542.97 Z" fill="#000000" fill-rule="nonzero" fill-opacity="1" /><path clip-path="url(#clip350)" d="M1254.82 1517.37 Q1251.2 1517.37 1249.38 1520.93 Q1247.57 1524.47 1247.57 1531.6 Q1247.57 1538.71 1249.38 1542.27 Q1251.2 1545.82 1254.82 1545.82 Q1258.45 1545.82 1260.26 1542.27 Q1262.08 1538.71 1262.08 1531.6 Q1262.08 1524.47 1260.26 1520.93 Q1258.45 1517.37 1254.82 1517.37 M1254.82 1513.66 Q1260.63 1513.66 1263.68 1518.27 Q1266.76 1522.85 1266.76 1531.6 Q1266.76 1540.33 1263.68 1544.94 Q1260.63 1549.52 1254.82 1549.52 Q1249.01 1549.52 1245.93 1544.94 Q1242.87 1540.33 1242.87 1531.6 Q1242.87 1522.85 1245.93 1518.27 Q1249.01 1513.66 1254.82 1513.66 Z" fill="#000000" fill-rule="nonzero" fill-opacity="1" /><path clip-path="url(#clip350)" d="M1727.22 1514.29 L1749.45 1514.29 L1749.45 1516.28 L1736.9 1548.85 L1732.02 1548.85 L1743.82 1518.22 L1727.22 1518.22 L1727.22 1514.29 Z" fill="#000000" fill-rule="nonzero" fill-opacity="1" /><path clip-path="url(#clip350)" d="M1758.57 1542.97 L1763.45 1542.97 L1763.45 1548.85 L1758.57 1548.85 L1758.57 1542.97 Z" fill="#000000" fill-rule="nonzero" fill-opacity="1" /><path clip-path="url(#clip350)" d="M1773.68 1514.29 L1792.04 1514.29 L1792.04 1518.22 L1777.97 1518.22 L1777.97 1526.7 Q1778.98 1526.35 1780 1526.19 Q1781.02 1526 1782.04 1526 Q1787.83 1526 1791.21 1529.17 Q1794.59 1532.34 1794.59 1537.76 Q1794.59 1543.34 1791.11 1546.44 Q1787.64 1549.52 1781.32 1549.52 Q1779.15 1549.52 1776.88 1549.15 Q1774.63 1548.78 1772.22 1548.04 L1772.22 1543.34 Q1774.31 1544.47 1776.53 1545.03 Q1778.75 1545.58 1781.23 1545.58 Q1785.23 1545.58 1787.57 1543.48 Q1789.91 1541.37 1789.91 1537.76 Q1789.91 1534.15 1787.57 1532.04 Q1785.23 1529.94 1781.23 1529.94 Q1779.35 1529.94 1777.48 1530.35 Q1775.63 1530.77 1773.68 1531.65 L1773.68 1514.29 Z" fill="#000000" fill-rule="nonzero" fill-opacity="1" /><path clip-path="url(#clip350)" d="M2241.42 1544.91 L2249.05 1544.91 L2249.05 1518.55 L2240.74 1520.21 L2240.74 1515.95 L2249.01 1514.29 L2253.68 1514.29 L2253.68 1544.91 L2261.32 1544.91 L2261.32 1548.85 L2241.42 1548.85 L2241.42 1544.91 Z" fill="#000000" fill-rule="nonzero" fill-opacity="1" /><path clip-path="url(#clip350)" d="M2280.77 1517.37 Q2277.16 1517.37 2275.33 1520.93 Q2273.52 1524.47 2273.52 1531.6 Q2273.52 1538.71 2275.33 1542.27 Q2277.16 1545.82 2280.77 1545.82 Q2284.4 1545.82 2286.21 1542.27 Q2288.04 1538.71 2288.04 1531.6 Q2288.04 1524.47 2286.21 1520.93 Q2284.4 1517.37 2280.77 1517.37 M2280.77 1513.66 Q2286.58 1513.66 2289.63 1518.27 Q2292.71 1522.85 2292.71 1531.6 Q2292.71 1540.33 2289.63 1544.94 Q2286.58 1549.52 2280.77 1549.52 Q2274.96 1549.52 2271.88 1544.94 Q2268.82 1540.33 2268.82 1531.6 Q2268.82 1522.85 2271.88 1518.27 Q2274.96 1513.66 2280.77 1513.66 Z" fill="#000000" fill-rule="nonzero" fill-opacity="1" /><path clip-path="url(#clip350)" d="M2300.93 1542.97 L2305.81 1542.97 L2305.81 1548.85 L2300.93 1548.85 L2300.93 1542.97 Z" fill="#000000" fill-rule="nonzero" fill-opacity="1" /><path clip-path="url(#clip350)" d="M2326 1517.37 Q2322.39 1517.37 2320.56 1520.93 Q2318.75 1524.47 2318.75 1531.6 Q2318.75 1538.71 2320.56 1542.27 Q2322.39 1545.82 2326 1545.82 Q2329.63 1545.82 2331.44 1542.27 Q2333.27 1538.71 2333.27 1531.6 Q2333.27 1524.47 2331.44 1520.93 Q2329.63 1517.37 2326 1517.37 M2326 1513.66 Q2331.81 1513.66 2334.86 1518.27 Q2337.94 1522.85 2337.94 1531.6 Q2337.94 1540.33 2334.86 1544.94 Q2331.81 1549.52 2326 1549.52 Q2320.19 1549.52 2317.11 1544.94 Q2314.05 1540.33 2314.05 1531.6 Q2314.05 1522.85 2317.11 1518.27 Q2320.19 1513.66 2326 1513.66 Z" fill="#000000" fill-rule="nonzero" fill-opacity="1" /><polyline clip-path="url(#clip350)" style="stroke:#000000; stroke-linecap:round; stroke-linejoin:round; stroke-width:4; stroke-opacity:1; fill:none" points="112.177,1486.45 112.177,47.2441 "/>
<polyline clip-path="url(#clip350)" style="stroke:#000000; stroke-linecap:round; stroke-linejoin:round; stroke-width:4; stroke-opacity:1; fill:none" points="112.177,1465.46 131.075,1465.46 "/>
<polyline clip-path="url(#clip350)" style="stroke:#000000; stroke-linecap:round; stroke-linejoin:round; stroke-width:4; stroke-opacity:1; fill:none" points="112.177,1121.81 131.075,1121.81 "/>
<polyline clip-path="url(#clip350)" style="stroke:#000000; stroke-linecap:round; stroke-linejoin:round; stroke-width:4; stroke-opacity:1; fill:none" points="112.177,778.163 131.075,778.163 "/>
<polyline clip-path="url(#clip350)" style="stroke:#000000; stroke-linecap:round; stroke-linejoin:round; stroke-width:4; stroke-opacity:1; fill:none" points="112.177,434.516 131.075,434.516 "/>
<polyline clip-path="url(#clip350)" style="stroke:#000000; stroke-linecap:round; stroke-linejoin:round; stroke-width:4; stroke-opacity:1; fill:none" points="112.177,90.8702 131.075,90.8702 "/>
<path clip-path="url(#clip350)" d="M64.2328 1451.25 Q60.6217 1451.25 58.793 1454.82 Q56.9875 1458.36 56.9875 1465.49 Q56.9875 1472.6 58.793 1476.16 Q60.6217 1479.7 64.2328 1479.7 Q67.867 1479.7 69.6726 1476.16 Q71.5013 1472.6 71.5013 1465.49 Q71.5013 1458.36 69.6726 1454.82 Q67.867 1451.25 64.2328 1451.25 M64.2328 1447.55 Q70.0429 1447.55 73.0985 1452.16 Q76.1772 1456.74 76.1772 1465.49 Q76.1772 1474.22 73.0985 1478.82 Q70.0429 1483.41 64.2328 1483.41 Q58.4226 1483.41 55.344 1478.82 Q52.2884 1474.22 52.2884 1465.49 Q52.2884 1456.74 55.344 1452.16 Q58.4226 1447.55 64.2328 1447.55 Z" fill="#000000" fill-rule="nonzero" fill-opacity="1" /><path clip-path="url(#clip350)" d="M59.8578 1135.15 L76.1772 1135.15 L76.1772 1139.09 L54.2328 1139.09 L54.2328 1135.15 Q56.8949 1132.4 61.4782 1127.77 Q66.0846 1123.12 67.2652 1121.77 Q69.5105 1119.25 70.3902 1117.51 Q71.2929 1115.76 71.2929 1114.07 Q71.2929 1111.31 69.3485 1109.58 Q67.4272 1107.84 64.3254 1107.84 Q62.1263 1107.84 59.6726 1108.6 Q57.2421 1109.37 54.4643 1110.92 L54.4643 1106.2 Q57.2884 1105.06 59.7421 1104.48 Q62.1958 1103.9 64.2328 1103.9 Q69.6031 1103.9 72.7976 1106.59 Q75.992 1109.27 75.992 1113.76 Q75.992 1115.89 75.1818 1117.82 Q74.3948 1119.71 72.2883 1122.31 Q71.7096 1122.98 68.6078 1126.2 Q65.5059 1129.39 59.8578 1135.15 Z" fill="#000000" fill-rule="nonzero" fill-opacity="1" /><path clip-path="url(#clip350)" d="M66.5939 764.957 L54.7884 783.406 L66.5939 783.406 L66.5939 764.957 M65.367 760.883 L71.2466 760.883 L71.2466 783.406 L76.1772 783.406 L76.1772 787.295 L71.2466 787.295 L71.2466 795.443 L66.5939 795.443 L66.5939 787.295 L50.9921 787.295 L50.9921 782.781 L65.367 760.883 Z" fill="#000000" fill-rule="nonzero" fill-opacity="1" /><path clip-path="url(#clip350)" d="M64.6495 432.653 Q61.5013 432.653 59.6495 434.806 Q57.8208 436.959 57.8208 440.709 Q57.8208 444.435 59.6495 446.611 Q61.5013 448.764 64.6495 448.764 Q67.7976 448.764 69.6263 446.611 Q71.4781 444.435 71.4781 440.709 Q71.4781 436.959 69.6263 434.806 Q67.7976 432.653 64.6495 432.653 M73.9318 418 L73.9318 422.26 Q72.1726 421.426 70.367 420.986 Q68.5846 420.547 66.8254 420.547 Q62.1958 420.547 59.7421 423.672 Q57.3115 426.797 56.9643 433.116 Q58.33 431.102 60.3902 430.037 Q62.4504 428.949 64.9272 428.949 Q70.1355 428.949 73.1448 432.121 Q76.1772 435.269 76.1772 440.709 Q76.1772 446.033 73.029 449.25 Q69.8809 452.468 64.6495 452.468 Q58.6541 452.468 55.4828 447.884 Q52.3116 443.278 52.3116 434.551 Q52.3116 426.357 56.2004 421.496 Q60.0893 416.611 66.6402 416.611 Q68.3994 416.611 70.1818 416.959 Q71.9874 417.306 73.9318 418 Z" fill="#000000" fill-rule="nonzero" fill-opacity="1" /><path clip-path="url(#clip350)" d="M64.3254 91.7382 Q60.9921 91.7382 59.0708 93.5206 Q57.1726 95.303 57.1726 98.428 Q57.1726 101.553 59.0708 103.335 Q60.9921 105.118 64.3254 105.118 Q67.6587 105.118 69.58 103.335 Q71.5013 101.53 71.5013 98.428 Q71.5013 95.303 69.58 93.5206 Q67.6819 91.7382 64.3254 91.7382 M59.6495 89.7475 Q56.6402 89.0068 54.9504 86.9466 Q53.2838 84.8864 53.2838 81.9235 Q53.2838 77.78 56.2236 75.3726 Q59.1865 72.9652 64.3254 72.9652 Q69.4874 72.9652 72.4272 75.3726 Q75.367 77.78 75.367 81.9235 Q75.367 84.8864 73.6772 86.9466 Q72.0105 89.0068 69.0244 89.7475 Q72.404 90.5345 74.279 92.8262 Q76.1772 95.1179 76.1772 98.428 Q76.1772 103.451 73.0985 106.136 Q70.0429 108.821 64.3254 108.821 Q58.6078 108.821 55.5291 106.136 Q52.4736 103.451 52.4736 98.428 Q52.4736 95.1179 54.3717 92.8262 Q56.2699 90.5345 59.6495 89.7475 M57.9365 82.3633 Q57.9365 85.0485 59.6032 86.5531 Q61.293 88.0577 64.3254 88.0577 Q67.3346 88.0577 69.0244 86.5531 Q70.7374 85.0485 70.7374 82.3633 Q70.7374 79.6781 69.0244 78.1735 Q67.3346 76.6689 64.3254 76.6689 Q61.293 76.6689 59.6032 78.1735 Q57.9365 79.6781 57.9365 82.3633 Z" fill="#000000" fill-rule="nonzero" fill-opacity="1" /><path clip-path="url(#clip351)" d="M175.59 1293.63 L196.727 1299.55 L217.865 1285.28 L239.002 1271.19 L260.14 1250.09 L281.277 1229.11 L302.415 1213.76 L323.553 1189.15 L344.69 1154.71 L365.828 1108.07 L386.965 1055.27 L408.103 1009.45 L429.24 966.076 L450.378 882.217 L471.515 837.684 L492.653 820.16 L513.79 783.692 L534.928 666.696 L556.065 619.431 L577.203 536.155 L598.34 485.609 L619.478 490.87 L640.616 755.835 L661.753 1000.94 L682.891 1159.06 L704.028 1248.72 L725.166 1288.91 L746.303 1319.6 L767.441 1339.55 L788.578 1340.77 L809.716 1346.56 L830.853 1343.07 L851.991 1342.88 L873.128 1334.44 L894.266 1326.39 L915.404 1313.92 L936.541 1309.59 L957.679 1302.08 L978.816 1286.37 L999.954 1286.08 L1021.09 1276.92 L1042.23 1249.59 L1063.37 1216.23 L1084.5 1193.6 L1105.64 1156.47 L1126.78 1120.13 L1147.92 1069.43 L1169.05 1034.78 L1190.19 987.884 L1211.33 990.7 L1232.47 998.105 L1253.6 979.533 L1274.74 1000.37 L1295.88 1009.65 L1317.02 1073.73 L1338.15 1158.9 L1359.29 1200.22 L1380.43 1257.4 L1401.57 1298.53 L1422.7 1316.8 L1443.84 1326.55 L1464.98 1341.04 L1486.12 1346.97 L1507.25 1337.35 L1528.39 1330.87 L1549.53 1331.44 L1570.67 1326.37 L1591.8 1322.04 L1612.94 1342.27 L1634.08 1355.09 L1655.22 1363.23 L1676.35 1367.17 L1697.49 1361.68 L1718.63 1349.47 L1739.77 1337.75 L1760.9 1326.45 L1782.04 1312.33 L1803.18 1297.06 L1824.32 1277.71 L1845.46 1253.93 L1866.59 1234.39 L1887.73 1248.58 L1908.87 1241.8 L1930.01 1220.59 L1951.14 1176.02 L1972.28 1150.42 L1993.42 1154.98 L2014.56 1181.47 L2035.69 1183.39 L2056.83 1202.3 L2077.97 1268.53 L2099.11 1308.85 L2120.24 1330.42 L2141.38 1361.85 L2162.52 1373.34 L2183.66 1380.86 L2204.79 1381.63 L2225.93 1378.85 L2247.07 1374.95 L2268.21 1372.22 L2289.34 1364.11 L2289.34 482.7 L2268.21 313.475 L2247.07 228.104 L2225.93 172.706 L2204.79 290.672 L2183.66 300.071 L2162.52 329.231 L2141.38 284.153 L2120.24 300.312 L2099.11 350.552 L2077.97 421.388 L2056.83 383.273 L2035.69 360.47 L2014.56 287.308 L1993.42 90.6305 L1972.28 87.9763 L1951.14 195.911 L1930.01 215.173 L1908.87 354.799 L1887.73 354.028 L1866.59 455.97 L1845.46 458.877 L1824.32 546.402 L1803.18 601.589 L1782.04 649.95 L1760.9 781.079 L1739.77 783.521 L1718.63 743.579 L1697.49 722.864 L1676.35 750.507 L1655.22 815.303 L1634.08 885.389 L1612.94 940.23 L1591.8 956.48 L1570.67 1024.45 L1549.53 964.917 L1528.39 794.337 L1507.25 545.65 L1486.12 327.988 L1464.98 265.917 L1443.84 427.428 L1422.7 320.887 L1401.57 331.971 L1380.43 182.481 L1359.29 249.834 L1338.15 204.227 L1317.02 187.835 L1295.88 266.758 L1274.74 185.715 L1253.6 228.396 L1232.47 190.746 L1211.33 187.263 L1190.19 224.657 L1169.05 364.724 L1147.92 485.882 L1126.78 573 L1105.64 653.628 L1084.5 721.862 L1063.37 779.57 L1042.23 863.013 L1021.09 932.843 L999.954 1035.46 L978.816 1075.96 L957.679 1122.06 L936.541 1124.13 L915.404 1158.52 L894.266 1183.02 L873.128 1189.01 L851.991 1191.97 L830.853 1184.67 L809.716 1181.44 L788.578 1147.73 L767.441 1097.14 L746.303 1009.52 L725.166 800.83 L704.028 645.878 L682.891 474.61 L661.753 343.825 L640.616 227.535 L619.478 151.897 L598.34 118.158 L577.203 151.427 L556.065 199.224 L534.928 247.313 L513.79 286.577 L492.653 400.841 L471.515 592.394 L450.378 690.76 L429.24 825.838 L408.103 903.155 L386.965 943.247 L365.828 971.195 L344.69 1001.26 L323.553 1059.65 L302.415 1109.24 L281.277 1151.44 L260.14 1185.11 L239.002 1222.79 L217.865 1251.3 L196.727 1273.72 L175.59 1293.63  Z" fill="#009af9" fill-rule="evenodd" fill-opacity="0.5"/>
<polyline clip-path="url(#clip351)" style="stroke:#009af9; stroke-linecap:round; stroke-linejoin:round; stroke-width:12; stroke-opacity:1; fill:none" points="175.59,1293.63 196.727,1283.44 217.865,1268.92 239.002,1250.23 260.14,1232.19 281.277,1205.82 302.415,1169.5 323.553,1133.74 344.69,1092.89 365.828,1043.6 386.965,989.855 408.103,912.042 429.24,853.876 450.378,791.967 471.515,722.933 492.653,640.328 513.79,552.789 534.928,422.995 556.065,341.774 577.203,282.562 598.34,319.966 619.478,468.418 640.616,515.169 661.753,693.86 682.891,889.174 704.028,1048.44 725.166,1134.75 746.303,1222.81 767.441,1273.63 788.578,1291.17 809.716,1306.65 830.853,1309.96 851.991,1309.9 873.128,1300.7 894.266,1293.15 915.404,1279.92 936.541,1263.5 957.679,1245.97 978.816,1217.27 999.954,1172.47 1021.09,1131.21 1042.23,1076.87 1063.37,1031.68 1084.5,983.948 1105.64,926.695 1126.78,835.184 1147.92,744.877 1169.05,707.326 1190.19,620.147 1211.33,552.725 1232.47,488.531 1253.6,417.167 1274.74,423.02 1295.88,400.546 1317.02,552.617 1338.15,694.122 1359.29,848.021 1380.43,995.674 1401.57,1106.97 1422.7,1145.32 1443.84,1184.81 1464.98,1232.83 1486.12,1262.7 1507.25,1279.43 1528.39,1290.83 1549.53,1281.58 1570.67,1277.28 1591.8,1277.25 1612.94,1269.46 1634.08,1251.02 1655.22,1225.73 1676.35,1199.51 1697.49,1160.42 1718.63,1111.84 1739.77,1068.33 1760.9,1001.7 1782.04,975.977 1803.18,894.063 1824.32,824.814 1845.46,737.396 1866.59,667.332 1887.73,593.418 1908.87,516.395 1930.01,554.996 1951.14,490.941 1972.28,456.041 1993.42,484.866 2014.56,567.765 2035.69,788.338 2056.83,945.009 2077.97,1022.97 2099.11,1116.65 2120.24,1174.5 2141.38,1213.15 2162.52,1259.62 2183.66,1286.73 2204.79,1289.28 2225.93,1283.73 2247.07,1264.77 2268.21,1256.87 2289.34,1289.28 "/>
<path clip-path="url(#clip351)" d="M175.59 1293.63 L196.727 1341.84 L217.865 1368 L239.002 1383.57 L260.14 1395.44 L281.277 1408.05 L302.415 1414.58 L323.553 1420.03 L344.69 1424.29 L365.828 1427.16 L386.965 1428.62 L408.103 1429.91 L429.24 1430.56 L450.378 1428.79 L471.515 1424.98 L492.653 1420.89 L513.79 1414.23 L534.928 1404.32 L556.065 1386.79 L577.203 1362.57 L598.34 1323.31 L619.478 1266.85 L640.616 1197.11 L661.753 1124.63 L682.891 1014.66 L704.028 905 L725.166 927.827 L746.303 1024.6 L767.441 1111.09 L788.578 1182.17 L809.716 1246.64 L830.853 1289.23 L851.991 1322 L873.128 1344.77 L894.266 1368.83 L915.404 1386.44 L936.541 1400.86 L957.679 1410.7 L978.816 1418.09 L999.954 1422.38 L1021.09 1425.86 L1042.23 1429.65 L1063.37 1431.34 L1084.5 1433.38 L1105.64 1433.05 L1126.78 1432.5 L1147.92 1434.89 L1169.05 1440 L1190.19 1439.07 L1211.33 1437.54 L1232.47 1436.68 L1253.6 1435.29 L1274.74 1433.56 L1295.88 1420.05 L1317.02 1402.59 L1338.15 1364.57 L1359.29 1344.75 L1380.43 1353.95 L1401.57 1370.41 L1422.7 1372.7 L1443.84 1349.28 L1464.98 1321.47 L1486.12 1333.49 L1507.25 1344.3 L1528.39 1361.26 L1549.53 1368.91 L1570.67 1379.69 L1591.8 1395.31 L1612.94 1409.78 L1634.08 1418.61 L1655.22 1425.24 L1676.35 1428.46 L1697.49 1431.5 L1718.63 1432.04 L1739.77 1430.52 L1760.9 1432.43 L1782.04 1433.24 L1803.18 1434.93 L1824.32 1435.77 L1845.46 1435.17 L1866.59 1439.46 L1887.73 1442.65 L1908.87 1443.73 L1930.01 1444.88 L1951.14 1444.98 L1972.28 1445.72 L1993.42 1444.24 L2014.56 1440.8 L2035.69 1437.89 L2056.83 1430.72 L2077.97 1415.78 L2099.11 1413.56 L2120.24 1407.75 L2141.38 1392.46 L2162.52 1383.14 L2183.66 1381.96 L2204.79 1375.72 L2225.93 1358.14 L2247.07 1370.73 L2268.21 1391.07 L2289.34 1404.43 L2289.34 820.727 L2268.21 827.227 L2247.07 807.707 L2225.93 835.55 L2204.79 828.208 L2183.66 881.042 L2162.52 855.592 L2141.38 768.995 L2120.24 665.376 L2099.11 609.141 L2077.97 460.337 L2056.83 452.031 L2035.69 488.419 L2014.56 672.643 L1993.42 759.701 L1972.28 803.621 L1951.14 877.515 L1930.01 955.443 L1908.87 1031.69 L1887.73 1111.04 L1866.59 1156.94 L1845.46 1182.74 L1824.32 1177.32 L1803.18 1203.24 L1782.04 1168.43 L1760.9 1145.04 L1739.77 1106.65 L1718.63 1096.63 L1697.49 1161.47 L1676.35 1188.8 L1655.22 1143.79 L1634.08 1088.63 L1612.94 997.625 L1591.8 867.625 L1570.67 714.386 L1549.53 610.644 L1528.39 599.289 L1507.25 722.656 L1486.12 840.205 L1464.98 680.349 L1443.84 570.612 L1422.7 564.889 L1401.57 674.075 L1380.43 684.097 L1359.29 643.385 L1338.15 654.134 L1317.02 641.476 L1295.88 745.986 L1274.74 868.065 L1253.6 919.429 L1232.47 971.334 L1211.33 1078.24 L1190.19 1182.95 L1169.05 1202.35 L1147.92 1234.87 L1126.78 1263.86 L1105.64 1278.34 L1084.5 1310.33 L1063.37 1331.35 L1042.23 1337.9 L1021.09 1334.88 L999.954 1327.7 L978.816 1308.16 L957.679 1305.5 L936.541 1288.43 L915.404 1248.27 L894.266 1219.48 L873.128 1175.16 L851.991 1116.04 L830.853 1048.26 L809.716 964.013 L788.578 865.233 L767.441 753.547 L746.303 628.494 L725.166 620.354 L704.028 487.548 L682.891 561.457 L661.753 562.186 L640.616 593.01 L619.478 761.709 L598.34 949.636 L577.203 1108.07 L556.065 1233.87 L534.928 1310.75 L513.79 1363.15 L492.653 1392.53 L471.515 1395.04 L450.378 1406.18 L429.24 1411.94 L408.103 1415.74 L386.965 1413.16 L365.828 1411.68 L344.69 1408.42 L323.553 1399.69 L302.415 1389.61 L281.277 1376.9 L260.14 1368.53 L239.002 1357.98 L217.865 1340.9 L196.727 1318.33 L175.59 1293.63  Z" fill="#e26f46" fill-rule="evenodd" fill-opacity="0.5"/>
<polyline clip-path="url(#clip351)" style="stroke:#e26f46; stroke-linecap:round; stroke-linejoin:round; stroke-width:12; stroke-opacity:1; fill:none" points="175.59,1293.63 196.727,1324.22 217.865,1349.47 239.002,1368.46 260.14,1385.37 281.277,1398.3 302.415,1406.49 323.553,1414.86 344.69,1418.52 365.828,1421.19 386.965,1423.2 408.103,1422.78 429.24,1420.05 450.378,1416.65 471.515,1410.99 492.653,1402.45 513.79,1384.27 534.928,1359.22 556.065,1320.15 577.203,1249.54 598.34,1162.84 619.478,1051.47 640.616,904.577 661.753,764.334 682.891,654.503 704.028,742.795 725.166,819.389 746.303,903.291 767.441,993.269 788.578,1048.8 809.716,1123.75 830.853,1187.53 851.991,1233.34 873.128,1292.93 894.266,1322.72 915.404,1339.35 936.541,1359.93 957.679,1375.99 978.816,1387.9 999.954,1398.01 1021.09,1405.54 1042.23,1412.59 1063.37,1417.64 1084.5,1417.68 1105.64,1421.59 1126.78,1421.06 1147.92,1414.91 1169.05,1407.73 1190.19,1394.96 1211.33,1372.06 1232.47,1331.37 1253.6,1273.02 1274.74,1193.61 1295.88,1114.15 1317.02,1009.53 1338.15,896.74 1359.29,822.495 1380.43,840.276 1401.57,801.647 1422.7,866.992 1443.84,951.392 1464.98,1034.05 1486.12,1101.51 1507.25,1144.83 1528.39,1209.76 1549.53,1259.65 1570.67,1298.1 1591.8,1326.88 1612.94,1343.89 1634.08,1364.96 1655.22,1375.66 1676.35,1385.56 1697.49,1395.48 1718.63,1406.14 1739.77,1417.29 1760.9,1419.76 1782.04,1414.67 1803.18,1416.35 1824.32,1416.07 1845.46,1417.13 1866.59,1411.56 1887.73,1400.33 1908.87,1377.18 1930.01,1335.76 1951.14,1290.3 1972.28,1194.31 1993.42,1071.34 2014.56,919.592 2035.69,902.41 2056.83,922.977 2077.97,856.475 2099.11,858.582 2120.24,939.606 2141.38,1034.37 2162.52,1047.55 2183.66,1139.43 2204.79,1200.9 2225.93,1242.35 2247.07,1259.31 2268.21,1293.3 2289.34,1312.64 "/>
</svg>
