<?xml version="1.0" encoding="utf-8"?>
<svg xmlns="http://www.w3.org/2000/svg" xmlns:xlink="http://www.w3.org/1999/xlink" width="600" height="400" viewBox="0 0 2400 1600">
<defs>
  <clipPath id="clip380">
    <rect x="0" y="0" width="2400" height="1600"/>
  </clipPath>
</defs>
<path clip-path="url(#clip380)" d="M0 1600 L2400 1600 L2400 0 L0 0  Z" fill="#ffffff" fill-rule="evenodd" fill-opacity="1"/>
<defs>
  <clipPath id="clip381">
    <rect x="155" y="47" width="2198" height="1440"/>
  </clipPath>
</defs>
<path clip-path="url(#clip380)" d="M155.765 1486.45 L2352.76 1486.45 L2352.76 47.2441 L155.765 47.2441  Z" fill="#ffffff" fill-rule="evenodd" fill-opacity="1"/>
<polyline clip-path="url(#clip381)" style="stroke:#000000; stroke-linecap:round; stroke-linejoin:round; stroke-width:2; stroke-opacity:0.1; fill:none" points="217.944,1486.45 217.944,47.2441 "/>
<polyline clip-path="url(#clip381)" style="stroke:#000000; stroke-linecap:round; stroke-linejoin:round; stroke-width:2; stroke-opacity:0.1; fill:none" points="736.102,1486.45 736.102,47.2441 "/>
<polyline clip-path="url(#clip381)" style="stroke:#000000; stroke-linecap:round; stroke-linejoin:round; stroke-width:2; stroke-opacity:0.1; fill:none" points="1254.26,1486.45 1254.26,47.2441 "/>
<polyline clip-path="url(#clip381)" style="stroke:#000000; stroke-linecap:round; stroke-linejoin:round; stroke-width:2; stroke-opacity:0.1; fill:none" points="1772.42,1486.45 1772.42,47.2441 "/>
<polyline clip-path="url(#clip381)" style="stroke:#000000; stroke-linecap:round; stroke-linejoin:round; stroke-width:2; stroke-opacity:0.1; fill:none" points="2290.58,1486.45 2290.58,47.2441 "/>
<polyline clip-path="url(#clip381)" style="stroke:#000000; stroke-linecap:round; stroke-linejoin:round; stroke-width:2; stroke-opacity:0.1; fill:none" points="155.765,1313 2352.76,1313 "/>
<polyline clip-path="url(#clip381)" style="stroke:#000000; stroke-linecap:round; stroke-linejoin:round; stroke-width:2; stroke-opacity:0.1; fill:none" points="155.765,1073.12 2352.76,1073.12 "/>
<polyline clip-path="url(#clip381)" style="stroke:#000000; stroke-linecap:round; stroke-linejoin:round; stroke-width:2; stroke-opacity:0.1; fill:none" points="155.765,833.236 2352.76,833.236 "/>
<polyline clip-path="url(#clip381)" style="stroke:#000000; stroke-linecap:round; stroke-linejoin:round; stroke-width:2; stroke-opacity:0.1; fill:none" points="155.765,593.353 2352.76,593.353 "/>
<polyline clip-path="url(#clip381)" style="stroke:#000000; stroke-linecap:round; stroke-linejoin:round; stroke-width:2; stroke-opacity:0.1; fill:none" points="155.765,353.47 2352.76,353.47 "/>
<polyline clip-path="url(#clip381)" style="stroke:#000000; stroke-linecap:round; stroke-linejoin:round; stroke-width:2; stroke-opacity:0.1; fill:none" points="155.765,113.588 2352.76,113.588 "/>
<polyline clip-path="url(#clip380)" style="stroke:#000000; stroke-linecap:round; stroke-linejoin:round; stroke-width:4; stroke-opacity:1; fill:none" points="155.765,1486.45 2352.76,1486.45 "/>
<polyline clip-path="url(#clip380)" style="stroke:#000000; stroke-linecap:round; stroke-linejoin:round; stroke-width:4; stroke-opacity:1; fill:none" points="217.944,1486.45 217.944,1467.55 "/>
<polyline clip-path="url(#clip380)" style="stroke:#000000; stroke-linecap:round; stroke-linejoin:round; stroke-width:4; stroke-opacity:1; fill:none" points="736.102,1486.45 736.102,1467.55 "/>
<polyline clip-path="url(#clip380)" style="stroke:#000000; stroke-linecap:round; stroke-linejoin:round; stroke-width:4; stroke-opacity:1; fill:none" points="1254.26,1486.45 1254.26,1467.55 "/>
<polyline clip-path="url(#clip380)" style="stroke:#000000; stroke-linecap:round; stroke-linejoin:round; stroke-width:4; stroke-opacity:1; fill:none" points="1772.42,1486.45 1772.42,1467.55 "/>
<polyline clip-path="url(#clip380)" style="stroke:#000000; stroke-linecap:round; stroke-linejoin:round; stroke-width:4; stroke-opacity:1; fill:none" points="2290.58,1486.45 2290.58,1467.55 "/>
<path clip-path="url(#clip380)" d="M180.247 1517.37 Q176.636 1517.37 174.808 1520.93 Q173.002 1524.47 173.002 1531.6 Q173.002 1538.71 174.808 1542.27 Q176.636 1545.82 180.247 1545.82 Q183.882 1545.82 185.687 1542.27 Q187.516 1538.71 187.516 1531.6 Q187.516 1524.47 185.687 1520.93 Q183.882 1517.37 180.247 1517.37 M180.247 1513.66 Q186.057 1513.66 189.113 1518.27 Q192.192 1522.85 192.192 1531.6 Q192.192 1540.33 189.113 1544.94 Q186.057 1549.52 180.247 1549.52 Q174.437 1549.52 171.358 1544.94 Q168.303 1540.33 168.303 1531.6 Q168.303 1522.85 171.358 1518.27 Q174.437 1513.66 180.247 1513.66 Z" fill="#000000" fill-rule="nonzero" fill-opacity="1" /><path clip-path="url(#clip380)" d="M200.409 1542.97 L205.294 1542.97 L205.294 1548.85 L200.409 1548.85 L200.409 1542.97 Z" fill="#000000" fill-rule="nonzero" fill-opacity="1" /><path clip-path="url(#clip380)" d="M225.479 1517.37 Q221.867 1517.37 220.039 1520.93 Q218.233 1524.47 218.233 1531.6 Q218.233 1538.71 220.039 1542.27 Q221.867 1545.82 225.479 1545.82 Q229.113 1545.82 230.918 1542.27 Q232.747 1538.71 232.747 1531.6 Q232.747 1524.47 230.918 1520.93 Q229.113 1517.37 225.479 1517.37 M225.479 1513.66 Q231.289 1513.66 234.344 1518.27 Q237.423 1522.85 237.423 1531.6 Q237.423 1540.33 234.344 1544.94 Q231.289 1549.52 225.479 1549.52 Q219.668 1549.52 216.59 1544.94 Q213.534 1540.33 213.534 1531.6 Q213.534 1522.85 216.59 1518.27 Q219.668 1513.66 225.479 1513.66 Z" fill="#000000" fill-rule="nonzero" fill-opacity="1" /><path clip-path="url(#clip380)" d="M255.64 1517.37 Q252.029 1517.37 250.201 1520.93 Q248.395 1524.47 248.395 1531.6 Q248.395 1538.71 250.201 1542.27 Q252.029 1545.82 255.64 1545.82 Q259.275 1545.82 261.08 1542.27 Q262.909 1538.71 262.909 1531.6 Q262.909 1524.47 261.08 1520.93 Q259.275 1517.37 255.64 1517.37 M255.64 1513.66 Q261.451 1513.66 264.506 1518.27 Q267.585 1522.85 267.585 1531.6 Q267.585 1540.33 264.506 1544.94 Q261.451 1549.52 255.64 1549.52 Q249.83 1549.52 246.752 1544.94 Q243.696 1540.33 243.696 1531.6 Q243.696 1522.85 246.752 1518.27 Q249.83 1513.66 255.64 1513.66 Z" fill="#000000" fill-rule="nonzero" fill-opacity="1" /><path clip-path="url(#clip380)" d="M698.903 1517.37 Q695.292 1517.37 693.463 1520.93 Q691.658 1524.47 691.658 1531.6 Q691.658 1538.71 693.463 1542.27 Q695.292 1545.82 698.903 1545.82 Q702.538 1545.82 704.343 1542.27 Q706.172 1538.71 706.172 1531.6 Q706.172 1524.47 704.343 1520.93 Q702.538 1517.37 698.903 1517.37 M698.903 1513.66 Q704.713 1513.66 707.769 1518.27 Q710.848 1522.85 710.848 1531.6 Q710.848 1540.33 707.769 1544.94 Q704.713 1549.52 698.903 1549.52 Q693.093 1549.52 690.014 1544.94 Q686.959 1540.33 686.959 1531.6 Q686.959 1522.85 690.014 1518.27 Q693.093 1513.66 698.903 1513.66 Z" fill="#000000" fill-rule="nonzero" fill-opacity="1" /><path clip-path="url(#clip380)" d="M719.065 1542.97 L723.949 1542.97 L723.949 1548.85 L719.065 1548.85 L719.065 1542.97 Z" fill="#000000" fill-rule="nonzero" fill-opacity="1" /><path clip-path="url(#clip380)" d="M738.162 1544.91 L754.482 1544.91 L754.482 1548.85 L732.537 1548.85 L732.537 1544.91 Q735.199 1542.16 739.783 1537.53 Q744.389 1532.88 745.57 1531.53 Q747.815 1529.01 748.695 1527.27 Q749.597 1525.51 749.597 1523.82 Q749.597 1521.07 747.653 1519.33 Q745.732 1517.6 742.63 1517.6 Q740.431 1517.6 737.977 1518.36 Q735.547 1519.13 732.769 1520.68 L732.769 1515.95 Q735.593 1514.82 738.047 1514.24 Q740.5 1513.66 742.537 1513.66 Q747.908 1513.66 751.102 1516.35 Q754.296 1519.03 754.296 1523.52 Q754.296 1525.65 753.486 1527.57 Q752.699 1529.47 750.593 1532.07 Q750.014 1532.74 746.912 1535.95 Q743.81 1539.15 738.162 1544.91 Z" fill="#000000" fill-rule="nonzero" fill-opacity="1" /><path clip-path="url(#clip380)" d="M764.343 1514.29 L782.699 1514.29 L782.699 1518.22 L768.625 1518.22 L768.625 1526.7 Q769.644 1526.35 770.662 1526.19 Q771.681 1526 772.699 1526 Q778.486 1526 781.866 1529.17 Q785.245 1532.34 785.245 1537.76 Q785.245 1543.34 781.773 1546.44 Q778.301 1549.52 771.982 1549.52 Q769.806 1549.52 767.537 1549.15 Q765.292 1548.78 762.884 1548.04 L762.884 1543.34 Q764.968 1544.47 767.19 1545.03 Q769.412 1545.58 771.889 1545.58 Q775.894 1545.58 778.232 1543.48 Q780.57 1541.37 780.57 1537.76 Q780.57 1534.15 778.232 1532.04 Q775.894 1529.94 771.889 1529.94 Q770.014 1529.94 768.139 1530.35 Q766.287 1530.77 764.343 1531.65 L764.343 1514.29 Z" fill="#000000" fill-rule="nonzero" fill-opacity="1" /><path clip-path="url(#clip380)" d="M1216.56 1517.37 Q1212.95 1517.37 1211.12 1520.93 Q1209.32 1524.47 1209.32 1531.6 Q1209.32 1538.71 1211.12 1542.27 Q1212.95 1545.82 1216.56 1545.82 Q1220.2 1545.82 1222 1542.27 Q1223.83 1538.71 1223.83 1531.6 Q1223.83 1524.47 1222 1520.93 Q1220.2 1517.37 1216.56 1517.37 M1216.56 1513.66 Q1222.37 1513.66 1225.43 1518.27 Q1228.51 1522.85 1228.51 1531.6 Q1228.51 1540.33 1225.43 1544.94 Q1222.37 1549.52 1216.56 1549.52 Q1210.75 1549.52 1207.68 1544.94 Q1204.62 1540.33 1204.62 1531.6 Q1204.62 1522.85 1207.68 1518.27 Q1210.75 1513.66 1216.56 1513.66 Z" fill="#000000" fill-rule="nonzero" fill-opacity="1" /><path clip-path="url(#clip380)" d="M1236.73 1542.97 L1241.61 1542.97 L1241.61 1548.85 L1236.73 1548.85 L1236.73 1542.97 Z" fill="#000000" fill-rule="nonzero" fill-opacity="1" /><path clip-path="url(#clip380)" d="M1251.84 1514.29 L1270.2 1514.29 L1270.2 1518.22 L1256.12 1518.22 L1256.12 1526.7 Q1257.14 1526.35 1258.16 1526.19 Q1259.18 1526 1260.2 1526 Q1265.98 1526 1269.36 1529.17 Q1272.74 1532.34 1272.74 1537.76 Q1272.74 1543.34 1269.27 1546.44 Q1265.8 1549.52 1259.48 1549.52 Q1257.3 1549.52 1255.04 1549.15 Q1252.79 1548.78 1250.38 1548.04 L1250.38 1543.34 Q1252.47 1544.47 1254.69 1545.03 Q1256.91 1545.58 1259.39 1545.58 Q1263.39 1545.58 1265.73 1543.48 Q1268.07 1541.37 1268.07 1537.76 Q1268.07 1534.15 1265.73 1532.04 Q1263.39 1529.94 1259.39 1529.94 Q1257.51 1529.94 1255.64 1530.35 Q1253.79 1530.77 1251.84 1531.65 L1251.84 1514.29 Z" fill="#000000" fill-rule="nonzero" fill-opacity="1" /><path clip-path="url(#clip380)" d="M1291.96 1517.37 Q1288.35 1517.37 1286.52 1520.93 Q1284.71 1524.47 1284.71 1531.6 Q1284.71 1538.71 1286.52 1542.27 Q1288.35 1545.82 1291.96 1545.82 Q1295.59 1545.82 1297.4 1542.27 Q1299.23 1538.71 1299.23 1531.6 Q1299.23 1524.47 1297.4 1520.93 Q1295.59 1517.37 1291.96 1517.37 M1291.96 1513.66 Q1297.77 1513.66 1300.82 1518.27 Q1303.9 1522.85 1303.9 1531.6 Q1303.9 1540.33 1300.82 1544.94 Q1297.77 1549.52 1291.96 1549.52 Q1286.15 1549.52 1283.07 1544.94 Q1280.01 1540.33 1280.01 1531.6 Q1280.01 1522.85 1283.07 1518.27 Q1286.15 1513.66 1291.96 1513.66 Z" fill="#000000" fill-rule="nonzero" fill-opacity="1" /><path clip-path="url(#clip380)" d="M1735.22 1517.37 Q1731.61 1517.37 1729.78 1520.93 Q1727.97 1524.47 1727.97 1531.6 Q1727.97 1538.71 1729.78 1542.27 Q1731.61 1545.82 1735.22 1545.82 Q1738.85 1545.82 1740.66 1542.27 Q1742.49 1538.71 1742.49 1531.6 Q1742.49 1524.47 1740.66 1520.93 Q1738.85 1517.37 1735.22 1517.37 M1735.22 1513.66 Q1741.03 1513.66 1744.09 1518.27 Q1747.16 1522.85 1747.16 1531.6 Q1747.16 1540.33 1744.09 1544.94 Q1741.03 1549.52 1735.22 1549.52 Q1729.41 1549.52 1726.33 1544.94 Q1723.28 1540.33 1723.28 1531.6 Q1723.28 1522.85 1726.33 1518.27 Q1729.41 1513.66 1735.22 1513.66 Z" fill="#000000" fill-rule="nonzero" fill-opacity="1" /><path clip-path="url(#clip380)" d="M1755.38 1542.97 L1760.27 1542.97 L1760.27 1548.85 L1755.38 1548.85 L1755.38 1542.97 Z" fill="#000000" fill-rule="nonzero" fill-opacity="1" /><path clip-path="url(#clip380)" d="M1769.27 1514.29 L1791.49 1514.29 L1791.49 1516.28 L1778.95 1548.85 L1774.06 1548.85 L1785.87 1518.22 L1769.27 1518.22 L1769.27 1514.29 Z" fill="#000000" fill-rule="nonzero" fill-opacity="1" /><path clip-path="url(#clip380)" d="M1800.66 1514.29 L1819.02 1514.29 L1819.02 1518.22 L1804.94 1518.22 L1804.94 1526.7 Q1805.96 1526.35 1806.98 1526.19 Q1808 1526 1809.02 1526 Q1814.8 1526 1818.18 1529.17 Q1821.56 1532.34 1821.56 1537.76 Q1821.56 1543.34 1818.09 1546.44 Q1814.62 1549.52 1808.3 1549.52 Q1806.12 1549.52 1803.85 1549.15 Q1801.61 1548.78 1799.2 1548.04 L1799.2 1543.34 Q1801.28 1544.47 1803.51 1545.03 Q1805.73 1545.58 1808.21 1545.58 Q1812.21 1545.58 1814.55 1543.48 Q1816.89 1541.37 1816.89 1537.76 Q1816.89 1534.15 1814.55 1532.04 Q1812.21 1529.94 1808.21 1529.94 Q1806.33 1529.94 1804.46 1530.35 Q1802.6 1530.77 1800.66 1531.65 L1800.66 1514.29 Z" fill="#000000" fill-rule="nonzero" fill-opacity="1" /><path clip-path="url(#clip380)" d="M2242.65 1544.91 L2250.29 1544.91 L2250.29 1518.55 L2241.98 1520.21 L2241.98 1515.95 L2250.24 1514.29 L2254.92 1514.29 L2254.92 1544.91 L2262.56 1544.91 L2262.56 1548.85 L2242.65 1548.85 L2242.65 1544.91 Z" fill="#000000" fill-rule="nonzero" fill-opacity="1" /><path clip-path="url(#clip380)" d="M2272 1542.97 L2276.88 1542.97 L2276.88 1548.85 L2272 1548.85 L2272 1542.97 Z" fill="#000000" fill-rule="nonzero" fill-opacity="1" /><path clip-path="url(#clip380)" d="M2297.07 1517.37 Q2293.46 1517.37 2291.63 1520.93 Q2289.82 1524.47 2289.82 1531.6 Q2289.82 1538.71 2291.63 1542.27 Q2293.46 1545.82 2297.07 1545.82 Q2300.7 1545.82 2302.51 1542.27 Q2304.34 1538.71 2304.34 1531.6 Q2304.34 1524.47 2302.51 1520.93 Q2300.7 1517.37 2297.07 1517.37 M2297.07 1513.66 Q2302.88 1513.66 2305.94 1518.27 Q2309.01 1522.85 2309.01 1531.6 Q2309.01 1540.33 2305.94 1544.94 Q2302.88 1549.52 2297.07 1549.52 Q2291.26 1549.52 2288.18 1544.94 Q2285.13 1540.33 2285.13 1531.6 Q2285.13 1522.85 2288.18 1518.27 Q2291.26 1513.66 2297.07 1513.66 Z" fill="#000000" fill-rule="nonzero" fill-opacity="1" /><path clip-path="url(#clip380)" d="M2327.23 1517.37 Q2323.62 1517.37 2321.79 1520.93 Q2319.99 1524.47 2319.99 1531.6 Q2319.99 1538.71 2321.79 1542.27 Q2323.62 1545.82 2327.23 1545.82 Q2330.87 1545.82 2332.67 1542.27 Q2334.5 1538.71 2334.5 1531.6 Q2334.5 1524.47 2332.67 1520.93 Q2330.87 1517.37 2327.23 1517.37 M2327.23 1513.66 Q2333.04 1513.66 2336.1 1518.27 Q2339.18 1522.85 2339.18 1531.6 Q2339.18 1540.33 2336.1 1544.94 Q2333.04 1549.52 2327.23 1549.52 Q2321.42 1549.52 2318.34 1544.94 Q2315.29 1540.33 2315.29 1531.6 Q2315.29 1522.85 2318.34 1518.27 Q2321.42 1513.66 2327.23 1513.66 Z" fill="#000000" fill-rule="nonzero" fill-opacity="1" /><polyline clip-path="url(#clip380)" style="stroke:#000000; stroke-linecap:round; stroke-linejoin:round; stroke-width:4; stroke-opacity:1; fill:none" points="155.765,1486.45 155.765,47.2441 "/>
<polyline clip-path="url(#clip380)" style="stroke:#000000; stroke-linecap:round; stroke-linejoin:round; stroke-width:4; stroke-opacity:1; fill:none" points="155.765,1313 174.663,1313 "/>
<polyline clip-path="url(#clip380)" style="stroke:#000000; stroke-linecap:round; stroke-linejoin:round; stroke-width:4; stroke-opacity:1; fill:none" points="155.765,1073.12 174.663,1073.12 "/>
<polyline clip-path="url(#clip380)" style="stroke:#000000; stroke-linecap:round; stroke-linejoin:round; stroke-width:4; stroke-opacity:1; fill:none" points="155.765,833.236 174.663,833.236 "/>
<polyline clip-path="url(#clip380)" style="stroke:#000000; stroke-linecap:round; stroke-linejoin:round; stroke-width:4; stroke-opacity:1; fill:none" points="155.765,593.353 174.663,593.353 "/>
<polyline clip-path="url(#clip380)" style="stroke:#000000; stroke-linecap:round; stroke-linejoin:round; stroke-width:4; stroke-opacity:1; fill:none" points="155.765,353.47 174.663,353.47 "/>
<polyline clip-path="url(#clip380)" style="stroke:#000000; stroke-linecap:round; stroke-linejoin:round; stroke-width:4; stroke-opacity:1; fill:none" points="155.765,113.588 174.663,113.588 "/>
<path clip-path="url(#clip380)" d="M63.5847 1298.8 Q59.9736 1298.8 58.1449 1302.36 Q56.3393 1305.91 56.3393 1313.04 Q56.3393 1320.14 58.1449 1323.71 Q59.9736 1327.25 63.5847 1327.25 Q67.2189 1327.25 69.0244 1323.71 Q70.8531 1320.14 70.8531 1313.04 Q70.8531 1305.91 69.0244 1302.36 Q67.2189 1298.8 63.5847 1298.8 M63.5847 1295.1 Q69.3948 1295.1 72.4503 1299.7 Q75.529 1304.29 75.529 1313.04 Q75.529 1321.76 72.4503 1326.37 Q69.3948 1330.95 63.5847 1330.95 Q57.7745 1330.95 54.6958 1326.37 Q51.6403 1321.76 51.6403 1313.04 Q51.6403 1304.29 54.6958 1299.7 Q57.7745 1295.1 63.5847 1295.1 Z" fill="#000000" fill-rule="nonzero" fill-opacity="1" /><path clip-path="url(#clip380)" d="M83.7466 1324.4 L88.6308 1324.4 L88.6308 1330.28 L83.7466 1330.28 L83.7466 1324.4 Z" fill="#000000" fill-rule="nonzero" fill-opacity="1" /><path clip-path="url(#clip380)" d="M98.8622 1295.72 L117.219 1295.72 L117.219 1299.66 L103.145 1299.66 L103.145 1308.13 Q104.163 1307.78 105.182 1307.62 Q106.2 1307.43 107.219 1307.43 Q113.006 1307.43 116.385 1310.61 Q119.765 1313.78 119.765 1319.19 Q119.765 1324.77 116.293 1327.87 Q112.82 1330.95 106.501 1330.95 Q104.325 1330.95 102.057 1330.58 Q99.8113 1330.21 97.4039 1329.47 L97.4039 1324.77 Q99.4872 1325.91 101.709 1326.46 Q103.932 1327.02 106.408 1327.02 Q110.413 1327.02 112.751 1324.91 Q115.089 1322.8 115.089 1319.19 Q115.089 1315.58 112.751 1313.48 Q110.413 1311.37 106.408 1311.37 Q104.534 1311.37 102.659 1311.79 Q100.807 1312.2 98.8622 1313.08 L98.8622 1295.72 Z" fill="#000000" fill-rule="nonzero" fill-opacity="1" /><path clip-path="url(#clip380)" d="M53.3995 1086.46 L61.0384 1086.46 L61.0384 1060.1 L52.7282 1061.76 L52.7282 1057.51 L60.9921 1055.84 L65.668 1055.84 L65.668 1086.46 L73.3068 1086.46 L73.3068 1090.4 L53.3995 1090.4 L53.3995 1086.46 Z" fill="#000000" fill-rule="nonzero" fill-opacity="1" /><path clip-path="url(#clip380)" d="M82.7512 1084.52 L87.6354 1084.52 L87.6354 1090.4 L82.7512 1090.4 L82.7512 1084.52 Z" fill="#000000" fill-rule="nonzero" fill-opacity="1" /><path clip-path="url(#clip380)" d="M107.821 1058.92 Q104.209 1058.92 102.381 1062.48 Q100.575 1066.02 100.575 1073.15 Q100.575 1080.26 102.381 1083.82 Q104.209 1087.37 107.821 1087.37 Q111.455 1087.37 113.26 1083.82 Q115.089 1080.26 115.089 1073.15 Q115.089 1066.02 113.26 1062.48 Q111.455 1058.92 107.821 1058.92 M107.821 1055.21 Q113.631 1055.21 116.686 1059.82 Q119.765 1064.4 119.765 1073.15 Q119.765 1081.88 116.686 1086.49 Q113.631 1091.07 107.821 1091.07 Q102.01 1091.07 98.9317 1086.49 Q95.8761 1081.88 95.8761 1073.15 Q95.8761 1064.4 98.9317 1059.82 Q102.01 1055.21 107.821 1055.21 Z" fill="#000000" fill-rule="nonzero" fill-opacity="1" /><path clip-path="url(#clip380)" d="M54.3949 846.581 L62.0337 846.581 L62.0337 820.215 L53.7236 821.882 L53.7236 817.622 L61.9874 815.956 L66.6633 815.956 L66.6633 846.581 L74.3022 846.581 L74.3022 850.516 L54.3949 850.516 L54.3949 846.581 Z" fill="#000000" fill-rule="nonzero" fill-opacity="1" /><path clip-path="url(#clip380)" d="M83.7466 844.636 L88.6308 844.636 L88.6308 850.516 L83.7466 850.516 L83.7466 844.636 Z" fill="#000000" fill-rule="nonzero" fill-opacity="1" /><path clip-path="url(#clip380)" d="M98.8622 815.956 L117.219 815.956 L117.219 819.891 L103.145 819.891 L103.145 828.363 Q104.163 828.016 105.182 827.854 Q106.2 827.669 107.219 827.669 Q113.006 827.669 116.385 830.84 Q119.765 834.011 119.765 839.428 Q119.765 845.006 116.293 848.108 Q112.82 851.187 106.501 851.187 Q104.325 851.187 102.057 850.817 Q99.8113 850.446 97.4039 849.706 L97.4039 845.006 Q99.4872 846.141 101.709 846.696 Q103.932 847.252 106.408 847.252 Q110.413 847.252 112.751 845.145 Q115.089 843.039 115.089 839.428 Q115.089 835.817 112.751 833.71 Q110.413 831.604 106.408 831.604 Q104.534 831.604 102.659 832.02 Q100.807 832.437 98.8622 833.317 L98.8622 815.956 Z" fill="#000000" fill-rule="nonzero" fill-opacity="1" /><path clip-path="url(#clip380)" d="M56.6171 606.698 L72.9365 606.698 L72.9365 610.633 L50.9921 610.633 L50.9921 606.698 Q53.6541 603.943 58.2375 599.314 Q62.8439 594.661 64.0245 593.318 Q66.2698 590.795 67.1494 589.059 Q68.0522 587.3 68.0522 585.61 Q68.0522 582.855 66.1078 581.119 Q64.1865 579.383 61.0847 579.383 Q58.8856 579.383 56.4319 580.147 Q54.0014 580.911 51.2236 582.462 L51.2236 577.74 Q54.0477 576.605 56.5014 576.027 Q58.955 575.448 60.9921 575.448 Q66.3624 575.448 69.5568 578.133 Q72.7513 580.818 72.7513 585.309 Q72.7513 587.439 71.9411 589.36 Q71.1541 591.258 69.0476 593.851 Q68.4689 594.522 65.367 597.74 Q62.2652 600.934 56.6171 606.698 Z" fill="#000000" fill-rule="nonzero" fill-opacity="1" /><path clip-path="url(#clip380)" d="M82.7512 604.753 L87.6354 604.753 L87.6354 610.633 L82.7512 610.633 L82.7512 604.753 Z" fill="#000000" fill-rule="nonzero" fill-opacity="1" /><path clip-path="url(#clip380)" d="M107.821 579.152 Q104.209 579.152 102.381 582.717 Q100.575 586.258 100.575 593.388 Q100.575 600.494 102.381 604.059 Q104.209 607.601 107.821 607.601 Q111.455 607.601 113.26 604.059 Q115.089 600.494 115.089 593.388 Q115.089 586.258 113.26 582.717 Q111.455 579.152 107.821 579.152 M107.821 575.448 Q113.631 575.448 116.686 580.055 Q119.765 584.638 119.765 593.388 Q119.765 602.115 116.686 606.721 Q113.631 611.304 107.821 611.304 Q102.01 611.304 98.9317 606.721 Q95.8761 602.115 95.8761 593.388 Q95.8761 584.638 98.9317 580.055 Q102.01 575.448 107.821 575.448 Z" fill="#000000" fill-rule="nonzero" fill-opacity="1" /><path clip-path="url(#clip380)" d="M57.6125 366.815 L73.9318 366.815 L73.9318 370.75 L51.9875 370.75 L51.9875 366.815 Q54.6495 364.061 59.2328 359.431 Q63.8393 354.778 65.0198 353.436 Q67.2652 350.913 68.1448 349.176 Q69.0476 347.417 69.0476 345.727 Q69.0476 342.973 67.1032 341.237 Q65.1819 339.501 62.08 339.501 Q59.881 339.501 57.4273 340.264 Q54.9967 341.028 52.219 342.579 L52.219 337.857 Q55.043 336.723 57.4967 336.144 Q59.9504 335.565 61.9874 335.565 Q67.3578 335.565 70.5522 338.251 Q73.7466 340.936 73.7466 345.426 Q73.7466 347.556 72.9365 349.477 Q72.1494 351.375 70.0429 353.968 Q69.4642 354.639 66.3624 357.857 Q63.2606 361.051 57.6125 366.815 Z" fill="#000000" fill-rule="nonzero" fill-opacity="1" /><path clip-path="url(#clip380)" d="M83.7466 364.871 L88.6308 364.871 L88.6308 370.75 L83.7466 370.75 L83.7466 364.871 Z" fill="#000000" fill-rule="nonzero" fill-opacity="1" /><path clip-path="url(#clip380)" d="M98.8622 336.19 L117.219 336.19 L117.219 340.126 L103.145 340.126 L103.145 348.598 Q104.163 348.25 105.182 348.088 Q106.2 347.903 107.219 347.903 Q113.006 347.903 116.385 351.075 Q119.765 354.246 119.765 359.662 Q119.765 365.241 116.293 368.343 Q112.82 371.422 106.501 371.422 Q104.325 371.422 102.057 371.051 Q99.8113 370.681 97.4039 369.94 L97.4039 365.241 Q99.4872 366.375 101.709 366.931 Q103.932 367.486 106.408 367.486 Q110.413 367.486 112.751 365.38 Q115.089 363.274 115.089 359.662 Q115.089 356.051 112.751 353.945 Q110.413 351.838 106.408 351.838 Q104.534 351.838 102.659 352.255 Q100.807 352.672 98.8622 353.551 L98.8622 336.19 Z" fill="#000000" fill-rule="nonzero" fill-opacity="1" /><path clip-path="url(#clip380)" d="M66.7559 112.234 Q70.1124 112.951 71.9874 115.22 Q73.8855 117.488 73.8855 120.821 Q73.8855 125.937 70.367 128.738 Q66.8485 131.539 60.3671 131.539 Q58.1912 131.539 55.8764 131.099 Q53.5847 130.683 51.131 129.826 L51.131 125.312 Q53.0754 126.446 55.3903 127.025 Q57.7051 127.604 60.2282 127.604 Q64.6263 127.604 66.918 125.868 Q69.2328 124.132 69.2328 120.821 Q69.2328 117.766 67.08 116.053 Q64.9504 114.317 61.131 114.317 L57.1032 114.317 L57.1032 110.474 L61.3161 110.474 Q64.7652 110.474 66.5939 109.109 Q68.4226 107.72 68.4226 105.127 Q68.4226 102.465 66.5245 101.053 Q64.6495 99.6179 61.131 99.6179 Q59.2097 99.6179 57.0106 100.035 Q54.8115 100.451 52.1727 101.331 L52.1727 97.1642 Q54.8347 96.4234 57.1495 96.0531 Q59.4875 95.6827 61.5476 95.6827 Q66.8717 95.6827 69.9735 98.1132 Q73.0753 100.521 73.0753 104.641 Q73.0753 107.511 71.4318 109.502 Q69.7883 111.47 66.7559 112.234 Z" fill="#000000" fill-rule="nonzero" fill-opacity="1" /><path clip-path="url(#clip380)" d="M82.7512 124.988 L87.6354 124.988 L87.6354 130.868 L82.7512 130.868 L82.7512 124.988 Z" fill="#000000" fill-rule="nonzero" fill-opacity="1" /><path clip-path="url(#clip380)" d="M107.821 99.3864 Q104.209 99.3864 102.381 102.951 Q100.575 106.493 100.575 113.622 Q100.575 120.729 102.381 124.294 Q104.209 127.835 107.821 127.835 Q111.455 127.835 113.26 124.294 Q115.089 120.729 115.089 113.622 Q115.089 106.493 113.26 102.951 Q111.455 99.3864 107.821 99.3864 M107.821 95.6827 Q113.631 95.6827 116.686 100.289 Q119.765 104.872 119.765 113.622 Q119.765 122.349 116.686 126.956 Q113.631 131.539 107.821 131.539 Q102.01 131.539 98.9317 126.956 Q95.8761 122.349 95.8761 113.622 Q95.8761 104.872 98.9317 100.289 Q102.01 95.6827 107.821 95.6827 Z" fill="#000000" fill-rule="nonzero" fill-opacity="1" /><path clip-path="url(#clip381)" d="M217.944 1313 L425.207 1359.67 L632.47 1390.87 L839.734 1423.71 L1047 1426.5 L1254.26 1445.72 L1461.52 1404.01 L1668.79 1391.32 L1876.05 1383.42 L2083.31 1377.76 L2290.58 1393.37 L2290.58 87.9763 L2083.31 147.344 L1876.05 377.065 L1668.79 347.865 L1461.52 294.79 L1254.26 595.444 L1047 863.008 L839.734 1037.63 L632.47 1152.23 L425.207 1208.08 L217.944 1313  Z" fill="#009af9" fill-rule="evenodd" fill-opacity="0.2"/>
<polyline clip-path="url(#clip381)" style="stroke:#009af9; stroke-linecap:round; stroke-linejoin:round; stroke-width:12; stroke-opacity:1; fill:none" points="217.944,1313 425.207,1289.35 632.47,1291.83 839.734,1247.56 1047,1180.63 1254.26,1101.72 1461.52,1142.41 1668.79,1141.58 1876.05,1053.28 2083.31,1172.66 2290.58,1148.22 "/>
</svg>
