<?xml version="1.0" encoding="utf-8"?>
<svg xmlns="http://www.w3.org/2000/svg" xmlns:xlink="http://www.w3.org/1999/xlink" width="600" height="400" viewBox="0 0 2400 1600">
<defs>
  <clipPath id="clip640">
    <rect x="0" y="0" width="2400" height="1600"/>
  </clipPath>
</defs>
<path clip-path="url(#clip640)" d="M0 1600 L2400 1600 L2400 0 L0 0  Z" fill="#ffffff" fill-rule="evenodd" fill-opacity="1"/>
<defs>
  <clipPath id="clip641">
    <rect x="156" y="47" width="2197" height="1440"/>
  </clipPath>
</defs>
<path clip-path="url(#clip640)" d="M156.274 1486.45 L2352.76 1486.45 L2352.76 47.2441 L156.274 47.2441  Z" fill="#ffffff" fill-rule="evenodd" fill-opacity="1"/>
<polyline clip-path="url(#clip641)" style="stroke:#000000; stroke-linecap:round; stroke-linejoin:round; stroke-width:2; stroke-opacity:0.1; fill:none" points="218.439,1486.45 218.439,47.2441 "/>
<polyline clip-path="url(#clip641)" style="stroke:#000000; stroke-linecap:round; stroke-linejoin:round; stroke-width:2; stroke-opacity:0.1; fill:none" points="736.477,1486.45 736.477,47.2441 "/>
<polyline clip-path="url(#clip641)" style="stroke:#000000; stroke-linecap:round; stroke-linejoin:round; stroke-width:2; stroke-opacity:0.1; fill:none" points="1254.52,1486.45 1254.52,47.2441 "/>
<polyline clip-path="url(#clip641)" style="stroke:#000000; stroke-linecap:round; stroke-linejoin:round; stroke-width:2; stroke-opacity:0.1; fill:none" points="1772.55,1486.45 1772.55,47.2441 "/>
<polyline clip-path="url(#clip641)" style="stroke:#000000; stroke-linecap:round; stroke-linejoin:round; stroke-width:2; stroke-opacity:0.1; fill:none" points="2290.59,1486.45 2290.59,47.2441 "/>
<polyline clip-path="url(#clip641)" style="stroke:#000000; stroke-linecap:round; stroke-linejoin:round; stroke-width:2; stroke-opacity:0.1; fill:none" points="156.274,1260.09 2352.76,1260.09 "/>
<polyline clip-path="url(#clip641)" style="stroke:#000000; stroke-linecap:round; stroke-linejoin:round; stroke-width:2; stroke-opacity:0.1; fill:none" points="156.274,995.506 2352.76,995.506 "/>
<polyline clip-path="url(#clip641)" style="stroke:#000000; stroke-linecap:round; stroke-linejoin:round; stroke-width:2; stroke-opacity:0.1; fill:none" points="156.274,730.923 2352.76,730.923 "/>
<polyline clip-path="url(#clip641)" style="stroke:#000000; stroke-linecap:round; stroke-linejoin:round; stroke-width:2; stroke-opacity:0.1; fill:none" points="156.274,466.339 2352.76,466.339 "/>
<polyline clip-path="url(#clip641)" style="stroke:#000000; stroke-linecap:round; stroke-linejoin:round; stroke-width:2; stroke-opacity:0.1; fill:none" points="156.274,201.756 2352.76,201.756 "/>
<polyline clip-path="url(#clip640)" style="stroke:#000000; stroke-linecap:round; stroke-linejoin:round; stroke-width:4; stroke-opacity:1; fill:none" points="156.274,1486.45 2352.76,1486.45 "/>
<polyline clip-path="url(#clip640)" style="stroke:#000000; stroke-linecap:round; stroke-linejoin:round; stroke-width:4; stroke-opacity:1; fill:none" points="218.439,1486.45 218.439,1467.55 "/>
<polyline clip-path="url(#clip640)" style="stroke:#000000; stroke-linecap:round; stroke-linejoin:round; stroke-width:4; stroke-opacity:1; fill:none" points="736.477,1486.45 736.477,1467.55 "/>
<polyline clip-path="url(#clip640)" style="stroke:#000000; stroke-linecap:round; stroke-linejoin:round; stroke-width:4; stroke-opacity:1; fill:none" points="1254.52,1486.45 1254.52,1467.55 "/>
<polyline clip-path="url(#clip640)" style="stroke:#000000; stroke-linecap:round; stroke-linejoin:round; stroke-width:4; stroke-opacity:1; fill:none" points="1772.55,1486.45 1772.55,1467.55 "/>
<polyline clip-path="url(#clip640)" style="stroke:#000000; stroke-linecap:round; stroke-linejoin:round; stroke-width:4; stroke-opacity:1; fill:none" points="2290.59,1486.45 2290.59,1467.55 "/>
<path clip-path="url(#clip640)" d="M180.742 1517.37 Q177.131 1517.37 175.302 1520.93 Q173.497 1524.47 173.497 1531.6 Q173.497 1538.71 175.302 1542.27 Q177.131 1545.82 180.742 1545.82 Q184.376 1545.82 186.182 1542.27 Q188.011 1538.71 188.011 1531.6 Q188.011 1524.47 186.182 1520.93 Q184.376 1517.37 180.742 1517.37 M180.742 1513.66 Q186.552 1513.66 189.608 1518.27 Q192.687 1522.85 192.687 1531.6 Q192.687 1540.33 189.608 1544.94 Q186.552 1549.52 180.742 1549.52 Q174.932 1549.52 171.853 1544.94 Q168.798 1540.33 168.798 1531.6 Q168.798 1522.85 171.853 1518.27 Q174.932 1513.66 180.742 1513.66 Z" fill="#000000" fill-rule="nonzero" fill-opacity="1" /><path clip-path="url(#clip640)" d="M200.904 1542.97 L205.788 1542.97 L205.788 1548.85 L200.904 1548.85 L200.904 1542.97 Z" fill="#000000" fill-rule="nonzero" fill-opacity="1" /><path clip-path="url(#clip640)" d="M225.973 1517.37 Q222.362 1517.37 220.534 1520.93 Q218.728 1524.47 218.728 1531.6 Q218.728 1538.71 220.534 1542.27 Q222.362 1545.82 225.973 1545.82 Q229.608 1545.82 231.413 1542.27 Q233.242 1538.71 233.242 1531.6 Q233.242 1524.47 231.413 1520.93 Q229.608 1517.37 225.973 1517.37 M225.973 1513.66 Q231.784 1513.66 234.839 1518.27 Q237.918 1522.85 237.918 1531.6 Q237.918 1540.33 234.839 1544.94 Q231.784 1549.52 225.973 1549.52 Q220.163 1549.52 217.085 1544.94 Q214.029 1540.33 214.029 1531.6 Q214.029 1522.85 217.085 1518.27 Q220.163 1513.66 225.973 1513.66 Z" fill="#000000" fill-rule="nonzero" fill-opacity="1" /><path clip-path="url(#clip640)" d="M256.135 1517.37 Q252.524 1517.37 250.696 1520.93 Q248.89 1524.47 248.89 1531.6 Q248.89 1538.71 250.696 1542.27 Q252.524 1545.82 256.135 1545.82 Q259.77 1545.82 261.575 1542.27 Q263.404 1538.71 263.404 1531.6 Q263.404 1524.47 261.575 1520.93 Q259.77 1517.37 256.135 1517.37 M256.135 1513.66 Q261.945 1513.66 265.001 1518.27 Q268.08 1522.85 268.08 1531.6 Q268.08 1540.33 265.001 1544.94 Q261.945 1549.52 256.135 1549.52 Q250.325 1549.52 247.246 1544.94 Q244.191 1540.33 244.191 1531.6 Q244.191 1522.85 247.246 1518.27 Q250.325 1513.66 256.135 1513.66 Z" fill="#000000" fill-rule="nonzero" fill-opacity="1" /><path clip-path="url(#clip640)" d="M699.278 1517.37 Q695.667 1517.37 693.838 1520.93 Q692.033 1524.47 692.033 1531.6 Q692.033 1538.71 693.838 1542.27 Q695.667 1545.82 699.278 1545.82 Q702.912 1545.82 704.718 1542.27 Q706.546 1538.71 706.546 1531.6 Q706.546 1524.47 704.718 1520.93 Q702.912 1517.37 699.278 1517.37 M699.278 1513.66 Q705.088 1513.66 708.144 1518.27 Q711.222 1522.85 711.222 1531.6 Q711.222 1540.33 708.144 1544.94 Q705.088 1549.52 699.278 1549.52 Q693.468 1549.52 690.389 1544.94 Q687.334 1540.33 687.334 1531.6 Q687.334 1522.85 690.389 1518.27 Q693.468 1513.66 699.278 1513.66 Z" fill="#000000" fill-rule="nonzero" fill-opacity="1" /><path clip-path="url(#clip640)" d="M719.44 1542.97 L724.324 1542.97 L724.324 1548.85 L719.44 1548.85 L719.44 1542.97 Z" fill="#000000" fill-rule="nonzero" fill-opacity="1" /><path clip-path="url(#clip640)" d="M738.537 1544.91 L754.856 1544.91 L754.856 1548.85 L732.912 1548.85 L732.912 1544.91 Q735.574 1542.16 740.157 1537.53 Q744.764 1532.88 745.944 1531.53 Q748.19 1529.01 749.069 1527.27 Q749.972 1525.51 749.972 1523.82 Q749.972 1521.07 748.028 1519.33 Q746.106 1517.6 743.005 1517.6 Q740.806 1517.6 738.352 1518.36 Q735.921 1519.13 733.144 1520.68 L733.144 1515.95 Q735.968 1514.82 738.421 1514.24 Q740.875 1513.66 742.912 1513.66 Q748.282 1513.66 751.477 1516.35 Q754.671 1519.03 754.671 1523.52 Q754.671 1525.65 753.861 1527.57 Q753.074 1529.47 750.968 1532.07 Q750.389 1532.74 747.287 1535.95 Q744.185 1539.15 738.537 1544.91 Z" fill="#000000" fill-rule="nonzero" fill-opacity="1" /><path clip-path="url(#clip640)" d="M764.717 1514.29 L783.074 1514.29 L783.074 1518.22 L769 1518.22 L769 1526.7 Q770.018 1526.35 771.037 1526.19 Q772.055 1526 773.074 1526 Q778.861 1526 782.241 1529.17 Q785.62 1532.34 785.62 1537.76 Q785.62 1543.34 782.148 1546.44 Q778.676 1549.52 772.356 1549.52 Q770.18 1549.52 767.912 1549.15 Q765.667 1548.78 763.259 1548.04 L763.259 1543.34 Q765.342 1544.47 767.565 1545.03 Q769.787 1545.58 772.264 1545.58 Q776.268 1545.58 778.606 1543.48 Q780.944 1541.37 780.944 1537.76 Q780.944 1534.15 778.606 1532.04 Q776.268 1529.94 772.264 1529.94 Q770.389 1529.94 768.514 1530.35 Q766.662 1530.77 764.717 1531.65 L764.717 1514.29 Z" fill="#000000" fill-rule="nonzero" fill-opacity="1" /><path clip-path="url(#clip640)" d="M1216.82 1517.37 Q1213.21 1517.37 1211.38 1520.93 Q1209.57 1524.47 1209.57 1531.6 Q1209.57 1538.71 1211.38 1542.27 Q1213.21 1545.82 1216.82 1545.82 Q1220.45 1545.82 1222.26 1542.27 Q1224.09 1538.71 1224.09 1531.6 Q1224.09 1524.47 1222.26 1520.93 Q1220.45 1517.37 1216.82 1517.37 M1216.82 1513.66 Q1222.63 1513.66 1225.68 1518.27 Q1228.76 1522.85 1228.76 1531.6 Q1228.76 1540.33 1225.68 1544.94 Q1222.63 1549.52 1216.82 1549.52 Q1211.01 1549.52 1207.93 1544.94 Q1204.87 1540.33 1204.87 1531.6 Q1204.87 1522.85 1207.93 1518.27 Q1211.01 1513.66 1216.82 1513.66 Z" fill="#000000" fill-rule="nonzero" fill-opacity="1" /><path clip-path="url(#clip640)" d="M1236.98 1542.97 L1241.86 1542.97 L1241.86 1548.85 L1236.98 1548.85 L1236.98 1542.97 Z" fill="#000000" fill-rule="nonzero" fill-opacity="1" /><path clip-path="url(#clip640)" d="M1252.1 1514.29 L1270.45 1514.29 L1270.45 1518.22 L1256.38 1518.22 L1256.38 1526.7 Q1257.4 1526.35 1258.42 1526.19 Q1259.43 1526 1260.45 1526 Q1266.24 1526 1269.62 1529.17 Q1273 1532.34 1273 1537.76 Q1273 1543.34 1269.53 1546.44 Q1266.05 1549.52 1259.73 1549.52 Q1257.56 1549.52 1255.29 1549.15 Q1253.05 1548.78 1250.64 1548.04 L1250.64 1543.34 Q1252.72 1544.47 1254.94 1545.03 Q1257.17 1545.58 1259.64 1545.58 Q1263.65 1545.58 1265.98 1543.48 Q1268.32 1541.37 1268.32 1537.76 Q1268.32 1534.15 1265.98 1532.04 Q1263.65 1529.94 1259.64 1529.94 Q1257.77 1529.94 1255.89 1530.35 Q1254.04 1530.77 1252.1 1531.65 L1252.1 1514.29 Z" fill="#000000" fill-rule="nonzero" fill-opacity="1" /><path clip-path="url(#clip640)" d="M1292.21 1517.37 Q1288.6 1517.37 1286.77 1520.93 Q1284.97 1524.47 1284.97 1531.6 Q1284.97 1538.71 1286.77 1542.27 Q1288.6 1545.82 1292.21 1545.82 Q1295.85 1545.82 1297.65 1542.27 Q1299.48 1538.71 1299.48 1531.6 Q1299.48 1524.47 1297.65 1520.93 Q1295.85 1517.37 1292.21 1517.37 M1292.21 1513.66 Q1298.02 1513.66 1301.08 1518.27 Q1304.16 1522.85 1304.16 1531.6 Q1304.16 1540.33 1301.08 1544.94 Q1298.02 1549.52 1292.21 1549.52 Q1286.4 1549.52 1283.32 1544.94 Q1280.27 1540.33 1280.27 1531.6 Q1280.27 1522.85 1283.32 1518.27 Q1286.4 1513.66 1292.21 1513.66 Z" fill="#000000" fill-rule="nonzero" fill-opacity="1" /><path clip-path="url(#clip640)" d="M1735.35 1517.37 Q1731.74 1517.37 1729.91 1520.93 Q1728.11 1524.47 1728.11 1531.6 Q1728.11 1538.71 1729.91 1542.27 Q1731.74 1545.82 1735.35 1545.82 Q1738.99 1545.82 1740.79 1542.27 Q1742.62 1538.71 1742.62 1531.6 Q1742.62 1524.47 1740.79 1520.93 Q1738.99 1517.37 1735.35 1517.37 M1735.35 1513.66 Q1741.16 1513.66 1744.22 1518.27 Q1747.3 1522.85 1747.3 1531.6 Q1747.3 1540.33 1744.22 1544.94 Q1741.16 1549.52 1735.35 1549.52 Q1729.54 1549.52 1726.47 1544.94 Q1723.41 1540.33 1723.41 1531.6 Q1723.41 1522.85 1726.47 1518.27 Q1729.54 1513.66 1735.35 1513.66 Z" fill="#000000" fill-rule="nonzero" fill-opacity="1" /><path clip-path="url(#clip640)" d="M1755.52 1542.97 L1760.4 1542.97 L1760.4 1548.85 L1755.52 1548.85 L1755.52 1542.97 Z" fill="#000000" fill-rule="nonzero" fill-opacity="1" /><path clip-path="url(#clip640)" d="M1769.41 1514.29 L1791.63 1514.29 L1791.63 1516.28 L1779.08 1548.85 L1774.2 1548.85 L1786 1518.22 L1769.41 1518.22 L1769.41 1514.29 Z" fill="#000000" fill-rule="nonzero" fill-opacity="1" /><path clip-path="url(#clip640)" d="M1800.79 1514.29 L1819.15 1514.29 L1819.15 1518.22 L1805.08 1518.22 L1805.08 1526.7 Q1806.09 1526.35 1807.11 1526.19 Q1808.13 1526 1809.15 1526 Q1814.94 1526 1818.32 1529.17 Q1821.7 1532.34 1821.7 1537.76 Q1821.7 1543.34 1818.22 1546.44 Q1814.75 1549.52 1808.43 1549.52 Q1806.26 1549.52 1803.99 1549.15 Q1801.74 1548.78 1799.34 1548.04 L1799.34 1543.34 Q1801.42 1544.47 1803.64 1545.03 Q1805.86 1545.58 1808.34 1545.58 Q1812.34 1545.58 1814.68 1543.48 Q1817.02 1541.37 1817.02 1537.76 Q1817.02 1534.15 1814.68 1532.04 Q1812.34 1529.94 1808.34 1529.94 Q1806.47 1529.94 1804.59 1530.35 Q1802.74 1530.77 1800.79 1531.65 L1800.79 1514.29 Z" fill="#000000" fill-rule="nonzero" fill-opacity="1" /><path clip-path="url(#clip640)" d="M2242.66 1544.91 L2250.3 1544.91 L2250.3 1518.55 L2241.99 1520.21 L2241.99 1515.95 L2250.26 1514.29 L2254.93 1514.29 L2254.93 1544.91 L2262.57 1544.91 L2262.57 1548.85 L2242.66 1548.85 L2242.66 1544.91 Z" fill="#000000" fill-rule="nonzero" fill-opacity="1" /><path clip-path="url(#clip640)" d="M2272.02 1542.97 L2276.9 1542.97 L2276.9 1548.85 L2272.02 1548.85 L2272.02 1542.97 Z" fill="#000000" fill-rule="nonzero" fill-opacity="1" /><path clip-path="url(#clip640)" d="M2297.08 1517.37 Q2293.47 1517.37 2291.64 1520.93 Q2289.84 1524.47 2289.84 1531.6 Q2289.84 1538.71 2291.64 1542.27 Q2293.47 1545.82 2297.08 1545.82 Q2300.72 1545.82 2302.52 1542.27 Q2304.35 1538.71 2304.35 1531.6 Q2304.35 1524.47 2302.52 1520.93 Q2300.72 1517.37 2297.08 1517.37 M2297.08 1513.66 Q2302.89 1513.66 2305.95 1518.27 Q2309.03 1522.85 2309.03 1531.6 Q2309.03 1540.33 2305.95 1544.94 Q2302.89 1549.52 2297.08 1549.52 Q2291.27 1549.52 2288.2 1544.94 Q2285.14 1540.33 2285.14 1531.6 Q2285.14 1522.85 2288.2 1518.27 Q2291.27 1513.66 2297.08 1513.66 Z" fill="#000000" fill-rule="nonzero" fill-opacity="1" /><path clip-path="url(#clip640)" d="M2327.25 1517.37 Q2323.64 1517.37 2321.81 1520.93 Q2320 1524.47 2320 1531.6 Q2320 1538.71 2321.81 1542.27 Q2323.64 1545.82 2327.25 1545.82 Q2330.88 1545.82 2332.69 1542.27 Q2334.51 1538.71 2334.51 1531.6 Q2334.51 1524.47 2332.69 1520.93 Q2330.88 1517.37 2327.25 1517.37 M2327.25 1513.66 Q2333.06 1513.66 2336.11 1518.27 Q2339.19 1522.85 2339.19 1531.6 Q2339.19 1540.33 2336.11 1544.94 Q2333.06 1549.52 2327.25 1549.52 Q2321.44 1549.52 2318.36 1544.94 Q2315.3 1540.33 2315.3 1531.6 Q2315.3 1522.85 2318.36 1518.27 Q2321.44 1513.66 2327.25 1513.66 Z" fill="#000000" fill-rule="nonzero" fill-opacity="1" /><polyline clip-path="url(#clip640)" style="stroke:#000000; stroke-linecap:round; stroke-linejoin:round; stroke-width:4; stroke-opacity:1; fill:none" points="156.274,1486.45 156.274,47.2441 "/>
<polyline clip-path="url(#clip640)" style="stroke:#000000; stroke-linecap:round; stroke-linejoin:round; stroke-width:4; stroke-opacity:1; fill:none" points="156.274,1260.09 175.172,1260.09 "/>
<polyline clip-path="url(#clip640)" style="stroke:#000000; stroke-linecap:round; stroke-linejoin:round; stroke-width:4; stroke-opacity:1; fill:none" points="156.274,995.506 175.172,995.506 "/>
<polyline clip-path="url(#clip640)" style="stroke:#000000; stroke-linecap:round; stroke-linejoin:round; stroke-width:4; stroke-opacity:1; fill:none" points="156.274,730.923 175.172,730.923 "/>
<polyline clip-path="url(#clip640)" style="stroke:#000000; stroke-linecap:round; stroke-linejoin:round; stroke-width:4; stroke-opacity:1; fill:none" points="156.274,466.339 175.172,466.339 "/>
<polyline clip-path="url(#clip640)" style="stroke:#000000; stroke-linecap:round; stroke-linejoin:round; stroke-width:4; stroke-opacity:1; fill:none" points="156.274,201.756 175.172,201.756 "/>
<path clip-path="url(#clip640)" d="M62.9365 1245.89 Q59.3254 1245.89 57.4967 1249.45 Q55.6912 1252.99 55.6912 1260.12 Q55.6912 1267.23 57.4967 1270.79 Q59.3254 1274.34 62.9365 1274.34 Q66.5707 1274.34 68.3763 1270.79 Q70.205 1267.23 70.205 1260.12 Q70.205 1252.99 68.3763 1249.45 Q66.5707 1245.89 62.9365 1245.89 M62.9365 1242.18 Q68.7467 1242.18 71.8022 1246.79 Q74.8809 1251.37 74.8809 1260.12 Q74.8809 1268.85 71.8022 1273.46 Q68.7467 1278.04 62.9365 1278.04 Q57.1264 1278.04 54.0477 1273.46 Q50.9921 1268.85 50.9921 1260.12 Q50.9921 1251.37 54.0477 1246.79 Q57.1264 1242.18 62.9365 1242.18 Z" fill="#000000" fill-rule="nonzero" fill-opacity="1" /><path clip-path="url(#clip640)" d="M83.0984 1271.49 L87.9827 1271.49 L87.9827 1277.37 L83.0984 1277.37 L83.0984 1271.49 Z" fill="#000000" fill-rule="nonzero" fill-opacity="1" /><path clip-path="url(#clip640)" d="M108.746 1258.23 Q105.598 1258.23 103.746 1260.38 Q101.918 1262.53 101.918 1266.28 Q101.918 1270.01 103.746 1272.18 Q105.598 1274.34 108.746 1274.34 Q111.895 1274.34 113.723 1272.18 Q115.575 1270.01 115.575 1266.28 Q115.575 1262.53 113.723 1260.38 Q111.895 1258.23 108.746 1258.23 M118.029 1243.57 L118.029 1247.83 Q116.27 1247 114.464 1246.56 Q112.682 1246.12 110.922 1246.12 Q106.293 1246.12 103.839 1249.24 Q101.409 1252.37 101.061 1258.69 Q102.427 1256.67 104.487 1255.61 Q106.547 1254.52 109.024 1254.52 Q114.233 1254.52 117.242 1257.69 Q120.274 1260.84 120.274 1266.28 Q120.274 1271.61 117.126 1274.82 Q113.978 1278.04 108.746 1278.04 Q102.751 1278.04 99.5798 1273.46 Q96.4085 1268.85 96.4085 1260.12 Q96.4085 1251.93 100.297 1247.07 Q104.186 1242.18 110.737 1242.18 Q112.496 1242.18 114.279 1242.53 Q116.084 1242.88 118.029 1243.57 Z" fill="#000000" fill-rule="nonzero" fill-opacity="1" /><path clip-path="url(#clip640)" d="M63.1911 981.304 Q59.58 981.304 57.7513 984.869 Q55.9458 988.411 55.9458 995.54 Q55.9458 1002.65 57.7513 1006.21 Q59.58 1009.75 63.1911 1009.75 Q66.8254 1009.75 68.6309 1006.21 Q70.4596 1002.65 70.4596 995.54 Q70.4596 988.411 68.6309 984.869 Q66.8254 981.304 63.1911 981.304 M63.1911 977.601 Q69.0013 977.601 72.0568 982.207 Q75.1355 986.791 75.1355 995.54 Q75.1355 1004.27 72.0568 1008.87 Q69.0013 1013.46 63.1911 1013.46 Q57.381 1013.46 54.3023 1008.87 Q51.2468 1004.27 51.2468 995.54 Q51.2468 986.791 54.3023 982.207 Q57.381 977.601 63.1911 977.601 Z" fill="#000000" fill-rule="nonzero" fill-opacity="1" /><path clip-path="url(#clip640)" d="M83.3531 1006.91 L88.2373 1006.91 L88.2373 1012.79 L83.3531 1012.79 L83.3531 1006.91 Z" fill="#000000" fill-rule="nonzero" fill-opacity="1" /><path clip-path="url(#clip640)" d="M108.422 996.374 Q105.089 996.374 103.168 998.156 Q101.27 999.939 101.27 1003.06 Q101.27 1006.19 103.168 1007.97 Q105.089 1009.75 108.422 1009.75 Q111.756 1009.75 113.677 1007.97 Q115.598 1006.17 115.598 1003.06 Q115.598 999.939 113.677 998.156 Q111.779 996.374 108.422 996.374 M103.746 994.383 Q100.737 993.642 99.0474 991.582 Q97.3808 989.522 97.3808 986.559 Q97.3808 982.416 100.321 980.008 Q103.284 977.601 108.422 977.601 Q113.584 977.601 116.524 980.008 Q119.464 982.416 119.464 986.559 Q119.464 989.522 117.774 991.582 Q116.108 993.642 113.121 994.383 Q116.501 995.17 118.376 997.462 Q120.274 999.753 120.274 1003.06 Q120.274 1008.09 117.195 1010.77 Q114.14 1013.46 108.422 1013.46 Q102.705 1013.46 99.6261 1010.77 Q96.5706 1008.09 96.5706 1003.06 Q96.5706 999.753 98.4687 997.462 Q100.367 995.17 103.746 994.383 M102.034 986.999 Q102.034 989.684 103.7 991.189 Q105.39 992.693 108.422 992.693 Q111.432 992.693 113.121 991.189 Q114.834 989.684 114.834 986.999 Q114.834 984.314 113.121 982.809 Q111.432 981.304 108.422 981.304 Q105.39 981.304 103.7 982.809 Q102.034 984.314 102.034 986.999 Z" fill="#000000" fill-rule="nonzero" fill-opacity="1" /><path clip-path="url(#clip640)" d="M53.9088 744.267 L61.5476 744.267 L61.5476 717.902 L53.2375 719.569 L53.2375 715.309 L61.5013 713.643 L66.1772 713.643 L66.1772 744.267 L73.8161 744.267 L73.8161 748.203 L53.9088 748.203 L53.9088 744.267 Z" fill="#000000" fill-rule="nonzero" fill-opacity="1" /><path clip-path="url(#clip640)" d="M83.2605 742.323 L88.1447 742.323 L88.1447 748.203 L83.2605 748.203 L83.2605 742.323 Z" fill="#000000" fill-rule="nonzero" fill-opacity="1" /><path clip-path="url(#clip640)" d="M108.33 716.721 Q104.719 716.721 102.89 720.286 Q101.084 723.828 101.084 730.957 Q101.084 738.064 102.89 741.629 Q104.719 745.17 108.33 745.17 Q111.964 745.17 113.77 741.629 Q115.598 738.064 115.598 730.957 Q115.598 723.828 113.77 720.286 Q111.964 716.721 108.33 716.721 M108.33 713.018 Q114.14 713.018 117.195 717.624 Q120.274 722.207 120.274 730.957 Q120.274 739.684 117.195 744.291 Q114.14 748.874 108.33 748.874 Q102.52 748.874 99.4409 744.291 Q96.3854 739.684 96.3854 730.957 Q96.3854 722.207 99.4409 717.624 Q102.52 713.018 108.33 713.018 Z" fill="#000000" fill-rule="nonzero" fill-opacity="1" /><path clip-path="url(#clip640)" d="M55.506 479.684 L63.1448 479.684 L63.1448 453.319 L54.8347 454.985 L54.8347 450.726 L63.0985 449.059 L67.7744 449.059 L67.7744 479.684 L75.4133 479.684 L75.4133 483.619 L55.506 483.619 L55.506 479.684 Z" fill="#000000" fill-rule="nonzero" fill-opacity="1" /><path clip-path="url(#clip640)" d="M84.8577 477.74 L89.7419 477.74 L89.7419 483.619 L84.8577 483.619 L84.8577 477.74 Z" fill="#000000" fill-rule="nonzero" fill-opacity="1" /><path clip-path="url(#clip640)" d="M103.955 479.684 L120.274 479.684 L120.274 483.619 L98.3298 483.619 L98.3298 479.684 Q100.992 476.93 105.575 472.3 Q110.182 467.647 111.362 466.305 Q113.608 463.782 114.487 462.046 Q115.39 460.286 115.39 458.596 Q115.39 455.842 113.445 454.106 Q111.524 452.37 108.422 452.37 Q106.223 452.37 103.77 453.134 Q101.339 453.897 98.5613 455.448 L98.5613 450.726 Q101.385 449.592 103.839 449.013 Q106.293 448.434 108.33 448.434 Q113.7 448.434 116.895 451.12 Q120.089 453.805 120.089 458.296 Q120.089 460.425 119.279 462.346 Q118.492 464.245 116.385 466.837 Q115.807 467.508 112.705 470.726 Q109.603 473.92 103.955 479.684 Z" fill="#000000" fill-rule="nonzero" fill-opacity="1" /><path clip-path="url(#clip640)" d="M53.4227 215.101 L61.0615 215.101 L61.0615 188.736 L52.7514 190.402 L52.7514 186.143 L61.0152 184.476 L65.6911 184.476 L65.6911 215.101 L73.33 215.101 L73.33 219.036 L53.4227 219.036 L53.4227 215.101 Z" fill="#000000" fill-rule="nonzero" fill-opacity="1" /><path clip-path="url(#clip640)" d="M82.7744 213.157 L87.6586 213.157 L87.6586 219.036 L82.7744 219.036 L82.7744 213.157 Z" fill="#000000" fill-rule="nonzero" fill-opacity="1" /><path clip-path="url(#clip640)" d="M110.691 188.55 L98.8854 206.999 L110.691 206.999 L110.691 188.55 M109.464 184.476 L115.344 184.476 L115.344 206.999 L120.274 206.999 L120.274 210.888 L115.344 210.888 L115.344 219.036 L110.691 219.036 L110.691 210.888 L95.0891 210.888 L95.0891 206.374 L109.464 184.476 Z" fill="#000000" fill-rule="nonzero" fill-opacity="1" /><polyline clip-path="url(#clip641)" style="stroke:#009af9; stroke-linecap:round; stroke-linejoin:round; stroke-width:12; stroke-opacity:1; fill:none" points="218.439,1392.38 425.654,1325.82 632.869,1234.13 840.085,1199.45 1047.3,1180.79 1254.52,1020.02 1461.73,832.735 1668.95,750.521 1876.16,667.783 2083.38,429.318 2290.59,102.831 "/>
<polyline clip-path="url(#clip641)" style="stroke:#e26f46; stroke-linecap:round; stroke-linejoin:round; stroke-width:12; stroke-opacity:1; fill:none" points="218.439,1392.38 425.654,1380.53 632.869,1303.58 840.085,1187.52 1047.3,1173.95 1254.52,1057.11 1461.73,1055.55 1668.95,1041.7 1876.16,1099.57 2083.38,855.26 2290.59,706.045 "/>
<polyline clip-path="url(#clip641)" style="stroke:#3da44d; stroke-linecap:round; stroke-linejoin:round; stroke-width:12; stroke-opacity:1; fill:none" points="218.439,1392.38 425.654,1445.72 632.869,1408.26 840.085,1444.94 1047.3,1329.33 1254.52,1218.68 1461.73,1207.53 1668.95,1092.78 1876.16,1018.34 2083.38,847.914 2290.59,782.094 "/>
<polyline clip-path="url(#clip641)" style="stroke:#c271d2; stroke-linecap:round; stroke-linejoin:round; stroke-width:12; stroke-opacity:1; fill:none" points="218.439,1392.38 425.654,1330.26 632.869,1318.52 840.085,1271.15 1047.3,1177.32 1254.52,886.303 1461.73,498.531 1668.95,273.656 1876.16,87.9763 2083.38,111.569 2290.59,352.019 "/>
<polyline clip-path="url(#clip641)" style="stroke:#ac8d18; stroke-linecap:round; stroke-linejoin:round; stroke-width:12; stroke-opacity:1; fill:none" points="218.439,1392.38 425.654,1297.87 632.869,1193.09 840.085,1176.82 1047.3,1220.37 1254.52,1098.56 1461.73,912.86 1668.95,552.929 1876.16,321.384 2083.38,164.25 2290.59,385.632 "/>
<polyline clip-path="url(#clip641)" style="stroke:#00a9ad; stroke-linecap:round; stroke-linejoin:round; stroke-width:12; stroke-opacity:1; fill:none" points="218.439,1392.38 425.654,1238.6 632.869,1073.29 840.085,1097.5 1047.3,1114.14 1254.52,1008.93 1461.73,885.526 1668.95,742.316 1876.16,738.423 2083.38,703.475 2290.59,390.508 "/>
<polyline clip-path="url(#clip641)" style="stroke:#ed5d92; stroke-linecap:round; stroke-linejoin:round; stroke-width:12; stroke-opacity:1; fill:none" points="218.439,1392.38 425.654,1314.05 632.869,1331.84 840.085,1304.75 1047.3,1137.9 1254.52,1012.05 1461.73,1063.64 1668.95,1040.3 1876.16,910.06 2083.38,826.433 2290.59,714.59 "/>
<polyline clip-path="url(#clip641)" style="stroke:#c68125; stroke-linecap:round; stroke-linejoin:round; stroke-width:12; stroke-opacity:1; fill:none" points="218.439,1392.38 425.654,1246.74 632.869,1043.06 840.085,995.462 1047.3,963.839 1254.52,766.598 1461.73,865.259 1668.95,772.416 1876.16,776.278 2083.38,573.641 2290.59,465.973 "/>
</svg>
