<?xml version="1.0" encoding="utf-8"?>
<svg xmlns="http://www.w3.org/2000/svg" xmlns:xlink="http://www.w3.org/1999/xlink" width="600" height="400" viewBox="0 0 2400 1600">
<defs>
  <clipPath id="clip610">
    <rect x="0" y="0" width="2400" height="1600"/>
  </clipPath>
</defs>
<path clip-path="url(#clip610)" d="M0 1600 L2400 1600 L2400 0 L0 0  Z" fill="#ffffff" fill-rule="evenodd" fill-opacity="1"/>
<defs>
  <clipPath id="clip611">
    <rect x="155" y="47" width="2198" height="1440"/>
  </clipPath>
</defs>
<path clip-path="url(#clip610)" d="M155.765 1486.45 L2352.76 1486.45 L2352.76 47.2441 L155.765 47.2441  Z" fill="#ffffff" fill-rule="evenodd" fill-opacity="1"/>
<polyline clip-path="url(#clip611)" style="stroke:#000000; stroke-linecap:round; stroke-linejoin:round; stroke-width:2; stroke-opacity:0.1; fill:none" points="217.944,1486.45 217.944,47.2441 "/>
<polyline clip-path="url(#clip611)" style="stroke:#000000; stroke-linecap:round; stroke-linejoin:round; stroke-width:2; stroke-opacity:0.1; fill:none" points="736.102,1486.45 736.102,47.2441 "/>
<polyline clip-path="url(#clip611)" style="stroke:#000000; stroke-linecap:round; stroke-linejoin:round; stroke-width:2; stroke-opacity:0.1; fill:none" points="1254.26,1486.45 1254.26,47.2441 "/>
<polyline clip-path="url(#clip611)" style="stroke:#000000; stroke-linecap:round; stroke-linejoin:round; stroke-width:2; stroke-opacity:0.1; fill:none" points="1772.42,1486.45 1772.42,47.2441 "/>
<polyline clip-path="url(#clip611)" style="stroke:#000000; stroke-linecap:round; stroke-linejoin:round; stroke-width:2; stroke-opacity:0.1; fill:none" points="2290.58,1486.45 2290.58,47.2441 "/>
<polyline clip-path="url(#clip611)" style="stroke:#000000; stroke-linecap:round; stroke-linejoin:round; stroke-width:2; stroke-opacity:0.1; fill:none" points="155.765,1287.05 2352.76,1287.05 "/>
<polyline clip-path="url(#clip611)" style="stroke:#000000; stroke-linecap:round; stroke-linejoin:round; stroke-width:2; stroke-opacity:0.1; fill:none" points="155.765,1015.32 2352.76,1015.32 "/>
<polyline clip-path="url(#clip611)" style="stroke:#000000; stroke-linecap:round; stroke-linejoin:round; stroke-width:2; stroke-opacity:0.1; fill:none" points="155.765,743.58 2352.76,743.58 "/>
<polyline clip-path="url(#clip611)" style="stroke:#000000; stroke-linecap:round; stroke-linejoin:round; stroke-width:2; stroke-opacity:0.1; fill:none" points="155.765,471.844 2352.76,471.844 "/>
<polyline clip-path="url(#clip611)" style="stroke:#000000; stroke-linecap:round; stroke-linejoin:round; stroke-width:2; stroke-opacity:0.1; fill:none" points="155.765,200.108 2352.76,200.108 "/>
<polyline clip-path="url(#clip610)" style="stroke:#000000; stroke-linecap:round; stroke-linejoin:round; stroke-width:4; stroke-opacity:1; fill:none" points="155.765,1486.45 2352.76,1486.45 "/>
<polyline clip-path="url(#clip610)" style="stroke:#000000; stroke-linecap:round; stroke-linejoin:round; stroke-width:4; stroke-opacity:1; fill:none" points="217.944,1486.45 217.944,1467.55 "/>
<polyline clip-path="url(#clip610)" style="stroke:#000000; stroke-linecap:round; stroke-linejoin:round; stroke-width:4; stroke-opacity:1; fill:none" points="736.102,1486.45 736.102,1467.55 "/>
<polyline clip-path="url(#clip610)" style="stroke:#000000; stroke-linecap:round; stroke-linejoin:round; stroke-width:4; stroke-opacity:1; fill:none" points="1254.26,1486.45 1254.26,1467.55 "/>
<polyline clip-path="url(#clip610)" style="stroke:#000000; stroke-linecap:round; stroke-linejoin:round; stroke-width:4; stroke-opacity:1; fill:none" points="1772.42,1486.45 1772.42,1467.55 "/>
<polyline clip-path="url(#clip610)" style="stroke:#000000; stroke-linecap:round; stroke-linejoin:round; stroke-width:4; stroke-opacity:1; fill:none" points="2290.58,1486.45 2290.58,1467.55 "/>
<path clip-path="url(#clip610)" d="M180.247 1517.37 Q176.636 1517.37 174.808 1520.93 Q173.002 1524.47 173.002 1531.6 Q173.002 1538.71 174.808 1542.27 Q176.636 1545.82 180.247 1545.82 Q183.882 1545.82 185.687 1542.27 Q187.516 1538.71 187.516 1531.6 Q187.516 1524.47 185.687 1520.93 Q183.882 1517.37 180.247 1517.37 M180.247 1513.66 Q186.057 1513.66 189.113 1518.27 Q192.192 1522.85 192.192 1531.6 Q192.192 1540.33 189.113 1544.94 Q186.057 1549.52 180.247 1549.52 Q174.437 1549.52 171.358 1544.94 Q168.303 1540.33 168.303 1531.6 Q168.303 1522.85 171.358 1518.27 Q174.437 1513.66 180.247 1513.66 Z" fill="#000000" fill-rule="nonzero" fill-opacity="1" /><path clip-path="url(#clip610)" d="M200.409 1542.97 L205.294 1542.97 L205.294 1548.85 L200.409 1548.85 L200.409 1542.97 Z" fill="#000000" fill-rule="nonzero" fill-opacity="1" /><path clip-path="url(#clip610)" d="M225.479 1517.37 Q221.867 1517.37 220.039 1520.93 Q218.233 1524.47 218.233 1531.6 Q218.233 1538.71 220.039 1542.27 Q221.867 1545.82 225.479 1545.82 Q229.113 1545.82 230.918 1542.27 Q232.747 1538.71 232.747 1531.6 Q232.747 1524.47 230.918 1520.93 Q229.113 1517.37 225.479 1517.37 M225.479 1513.66 Q231.289 1513.66 234.344 1518.27 Q237.423 1522.85 237.423 1531.6 Q237.423 1540.33 234.344 1544.94 Q231.289 1549.52 225.479 1549.52 Q219.668 1549.52 216.59 1544.94 Q213.534 1540.33 213.534 1531.6 Q213.534 1522.85 216.59 1518.27 Q219.668 1513.66 225.479 1513.66 Z" fill="#000000" fill-rule="nonzero" fill-opacity="1" /><path clip-path="url(#clip610)" d="M255.64 1517.37 Q252.029 1517.37 250.201 1520.93 Q248.395 1524.47 248.395 1531.6 Q248.395 1538.71 250.201 1542.27 Q252.029 1545.82 255.64 1545.82 Q259.275 1545.82 261.08 1542.27 Q262.909 1538.71 262.909 1531.6 Q262.909 1524.47 261.08 1520.93 Q259.275 1517.37 255.64 1517.37 M255.64 1513.66 Q261.451 1513.66 264.506 1518.27 Q267.585 1522.85 267.585 1531.6 Q267.585 1540.33 264.506 1544.94 Q261.451 1549.52 255.64 1549.52 Q249.83 1549.52 246.752 1544.94 Q243.696 1540.33 243.696 1531.6 Q243.696 1522.85 246.752 1518.27 Q249.83 1513.66 255.64 1513.66 Z" fill="#000000" fill-rule="nonzero" fill-opacity="1" /><path clip-path="url(#clip610)" d="M698.903 1517.37 Q695.292 1517.37 693.463 1520.93 Q691.658 1524.47 691.658 1531.6 Q691.658 1538.71 693.463 1542.27 Q695.292 1545.82 698.903 1545.82 Q702.538 1545.82 704.343 1542.27 Q706.172 1538.71 706.172 1531.6 Q706.172 1524.47 704.343 1520.93 Q702.538 1517.37 698.903 1517.37 M698.903 1513.66 Q704.713 1513.66 707.769 1518.27 Q710.848 1522.85 710.848 1531.6 Q710.848 1540.33 707.769 1544.94 Q704.713 1549.52 698.903 1549.52 Q693.093 1549.52 690.014 1544.94 Q686.959 1540.33 686.959 1531.6 Q686.959 1522.85 690.014 1518.27 Q693.093 1513.66 698.903 1513.66 Z" fill="#000000" fill-rule="nonzero" fill-opacity="1" /><path clip-path="url(#clip610)" d="M719.065 1542.97 L723.949 1542.97 L723.949 1548.85 L719.065 1548.85 L719.065 1542.97 Z" fill="#000000" fill-rule="nonzero" fill-opacity="1" /><path clip-path="url(#clip610)" d="M738.162 1544.91 L754.482 1544.91 L754.482 1548.85 L732.537 1548.85 L732.537 1544.91 Q735.199 1542.16 739.783 1537.53 Q744.389 1532.88 745.57 1531.53 Q747.815 1529.01 748.695 1527.27 Q749.597 1525.51 749.597 1523.82 Q749.597 1521.07 747.653 1519.33 Q745.732 1517.6 742.63 1517.6 Q740.431 1517.6 737.977 1518.36 Q735.547 1519.13 732.769 1520.68 L732.769 1515.95 Q735.593 1514.82 738.047 1514.24 Q740.5 1513.66 742.537 1513.66 Q747.908 1513.66 751.102 1516.35 Q754.296 1519.03 754.296 1523.52 Q754.296 1525.65 753.486 1527.57 Q752.699 1529.47 750.593 1532.07 Q750.014 1532.74 746.912 1535.95 Q743.81 1539.15 738.162 1544.91 Z" fill="#000000" fill-rule="nonzero" fill-opacity="1" /><path clip-path="url(#clip610)" d="M764.343 1514.29 L782.699 1514.29 L782.699 1518.22 L768.625 1518.22 L768.625 1526.7 Q769.644 1526.35 770.662 1526.19 Q771.681 1526 772.699 1526 Q778.486 1526 781.866 1529.17 Q785.245 1532.34 785.245 1537.76 Q785.245 1543.34 781.773 1546.44 Q778.301 1549.52 771.982 1549.52 Q769.806 1549.52 767.537 1549.15 Q765.292 1548.78 762.884 1548.04 L762.884 1543.34 Q764.968 1544.47 767.19 1545.03 Q769.412 1545.58 771.889 1545.58 Q775.894 1545.58 778.232 1543.48 Q780.57 1541.37 780.57 1537.76 Q780.57 1534.15 778.232 1532.04 Q775.894 1529.94 771.889 1529.94 Q770.014 1529.94 768.139 1530.35 Q766.287 1530.77 764.343 1531.65 L764.343 1514.29 Z" fill="#000000" fill-rule="nonzero" fill-opacity="1" /><path clip-path="url(#clip610)" d="M1216.56 1517.37 Q1212.95 1517.37 1211.12 1520.93 Q1209.32 1524.47 1209.32 1531.6 Q1209.32 1538.71 1211.12 1542.27 Q1212.95 1545.82 1216.56 1545.82 Q1220.2 1545.82 1222 1542.27 Q1223.83 1538.71 1223.83 1531.6 Q1223.83 1524.47 1222 1520.93 Q1220.2 1517.37 1216.56 1517.37 M1216.56 1513.66 Q1222.37 1513.66 1225.43 1518.27 Q1228.51 1522.85 1228.51 1531.6 Q1228.51 1540.33 1225.43 1544.94 Q1222.37 1549.52 1216.56 1549.52 Q1210.75 1549.52 1207.68 1544.94 Q1204.62 1540.33 1204.62 1531.6 Q1204.62 1522.85 1207.68 1518.27 Q1210.75 1513.66 1216.56 1513.66 Z" fill="#000000" fill-rule="nonzero" fill-opacity="1" /><path clip-path="url(#clip610)" d="M1236.73 1542.97 L1241.61 1542.97 L1241.61 1548.85 L1236.73 1548.85 L1236.73 1542.97 Z" fill="#000000" fill-rule="nonzero" fill-opacity="1" /><path clip-path="url(#clip610)" d="M1251.84 1514.29 L1270.2 1514.29 L1270.2 1518.22 L1256.12 1518.22 L1256.12 1526.7 Q1257.14 1526.35 1258.16 1526.19 Q1259.18 1526 1260.2 1526 Q1265.98 1526 1269.36 1529.17 Q1272.74 1532.34 1272.74 1537.76 Q1272.74 1543.34 1269.27 1546.44 Q1265.8 1549.52 1259.48 1549.52 Q1257.3 1549.52 1255.04 1549.15 Q1252.79 1548.78 1250.38 1548.04 L1250.38 1543.34 Q1252.47 1544.47 1254.69 1545.03 Q1256.91 1545.58 1259.39 1545.58 Q1263.39 1545.58 1265.73 1543.48 Q1268.07 1541.37 1268.07 1537.76 Q1268.07 1534.15 1265.73 1532.04 Q1263.39 1529.94 1259.39 1529.94 Q1257.51 1529.94 1255.64 1530.35 Q1253.79 1530.77 1251.84 1531.65 L1251.84 1514.29 Z" fill="#000000" fill-rule="nonzero" fill-opacity="1" /><path clip-path="url(#clip610)" d="M1291.96 1517.37 Q1288.35 1517.37 1286.52 1520.93 Q1284.71 1524.47 1284.71 1531.6 Q1284.71 1538.71 1286.52 1542.27 Q1288.35 1545.82 1291.96 1545.82 Q1295.59 1545.82 1297.4 1542.27 Q1299.23 1538.71 1299.23 1531.6 Q1299.23 1524.47 1297.4 1520.93 Q1295.59 1517.37 1291.96 1517.37 M1291.96 1513.66 Q1297.77 1513.66 1300.82 1518.27 Q1303.9 1522.85 1303.9 1531.6 Q1303.9 1540.33 1300.82 1544.94 Q1297.77 1549.52 1291.96 1549.52 Q1286.15 1549.52 1283.07 1544.94 Q1280.01 1540.33 1280.01 1531.6 Q1280.01 1522.85 1283.07 1518.27 Q1286.15 1513.66 1291.96 1513.66 Z" fill="#000000" fill-rule="nonzero" fill-opacity="1" /><path clip-path="url(#clip610)" d="M1735.22 1517.37 Q1731.61 1517.37 1729.78 1520.93 Q1727.97 1524.47 1727.97 1531.6 Q1727.97 1538.71 1729.78 1542.27 Q1731.61 1545.82 1735.22 1545.82 Q1738.85 1545.82 1740.66 1542.27 Q1742.49 1538.71 1742.49 1531.6 Q1742.49 1524.47 1740.66 1520.93 Q1738.85 1517.37 1735.22 1517.37 M1735.22 1513.66 Q1741.03 1513.66 1744.09 1518.27 Q1747.16 1522.85 1747.16 1531.6 Q1747.16 1540.33 1744.09 1544.94 Q1741.03 1549.52 1735.22 1549.52 Q1729.41 1549.52 1726.33 1544.94 Q1723.28 1540.33 1723.28 1531.6 Q1723.28 1522.85 1726.33 1518.27 Q1729.41 1513.66 1735.22 1513.66 Z" fill="#000000" fill-rule="nonzero" fill-opacity="1" /><path clip-path="url(#clip610)" d="M1755.38 1542.97 L1760.27 1542.97 L1760.27 1548.85 L1755.38 1548.85 L1755.38 1542.97 Z" fill="#000000" fill-rule="nonzero" fill-opacity="1" /><path clip-path="url(#clip610)" d="M1769.27 1514.29 L1791.49 1514.29 L1791.49 1516.28 L1778.95 1548.85 L1774.06 1548.85 L1785.87 1518.22 L1769.27 1518.22 L1769.27 1514.29 Z" fill="#000000" fill-rule="nonzero" fill-opacity="1" /><path clip-path="url(#clip610)" d="M1800.66 1514.29 L1819.02 1514.29 L1819.02 1518.22 L1804.94 1518.22 L1804.94 1526.7 Q1805.96 1526.35 1806.98 1526.19 Q1808 1526 1809.02 1526 Q1814.8 1526 1818.18 1529.17 Q1821.56 1532.34 1821.56 1537.76 Q1821.56 1543.34 1818.09 1546.44 Q1814.62 1549.52 1808.3 1549.52 Q1806.12 1549.52 1803.85 1549.15 Q1801.61 1548.78 1799.2 1548.04 L1799.2 1543.34 Q1801.28 1544.47 1803.51 1545.03 Q1805.73 1545.58 1808.21 1545.58 Q1812.21 1545.58 1814.55 1543.48 Q1816.89 1541.37 1816.89 1537.76 Q1816.89 1534.15 1814.55 1532.04 Q1812.21 1529.94 1808.21 1529.94 Q1806.33 1529.94 1804.46 1530.35 Q1802.6 1530.77 1800.66 1531.65 L1800.66 1514.29 Z" fill="#000000" fill-rule="nonzero" fill-opacity="1" /><path clip-path="url(#clip610)" d="M2242.65 1544.91 L2250.29 1544.91 L2250.29 1518.55 L2241.98 1520.21 L2241.98 1515.95 L2250.24 1514.29 L2254.92 1514.29 L2254.92 1544.91 L2262.56 1544.91 L2262.56 1548.85 L2242.65 1548.85 L2242.65 1544.91 Z" fill="#000000" fill-rule="nonzero" fill-opacity="1" /><path clip-path="url(#clip610)" d="M2272 1542.97 L2276.88 1542.97 L2276.88 1548.85 L2272 1548.85 L2272 1542.97 Z" fill="#000000" fill-rule="nonzero" fill-opacity="1" /><path clip-path="url(#clip610)" d="M2297.07 1517.37 Q2293.46 1517.37 2291.63 1520.93 Q2289.82 1524.47 2289.82 1531.6 Q2289.82 1538.71 2291.63 1542.27 Q2293.46 1545.82 2297.07 1545.82 Q2300.7 1545.82 2302.51 1542.27 Q2304.34 1538.71 2304.34 1531.6 Q2304.34 1524.47 2302.51 1520.93 Q2300.7 1517.37 2297.07 1517.37 M2297.07 1513.66 Q2302.88 1513.66 2305.94 1518.27 Q2309.01 1522.85 2309.01 1531.6 Q2309.01 1540.33 2305.94 1544.94 Q2302.88 1549.52 2297.07 1549.52 Q2291.26 1549.52 2288.18 1544.94 Q2285.13 1540.33 2285.13 1531.6 Q2285.13 1522.85 2288.18 1518.27 Q2291.26 1513.66 2297.07 1513.66 Z" fill="#000000" fill-rule="nonzero" fill-opacity="1" /><path clip-path="url(#clip610)" d="M2327.23 1517.37 Q2323.62 1517.37 2321.79 1520.93 Q2319.99 1524.47 2319.99 1531.6 Q2319.99 1538.71 2321.79 1542.27 Q2323.62 1545.82 2327.23 1545.82 Q2330.87 1545.82 2332.67 1542.27 Q2334.5 1538.71 2334.5 1531.6 Q2334.5 1524.47 2332.67 1520.93 Q2330.87 1517.37 2327.23 1517.37 M2327.23 1513.66 Q2333.04 1513.66 2336.1 1518.27 Q2339.18 1522.85 2339.18 1531.6 Q2339.18 1540.33 2336.1 1544.94 Q2333.04 1549.52 2327.23 1549.52 Q2321.42 1549.52 2318.34 1544.94 Q2315.29 1540.33 2315.29 1531.6 Q2315.29 1522.85 2318.34 1518.27 Q2321.42 1513.66 2327.23 1513.66 Z" fill="#000000" fill-rule="nonzero" fill-opacity="1" /><polyline clip-path="url(#clip610)" style="stroke:#000000; stroke-linecap:round; stroke-linejoin:round; stroke-width:4; stroke-opacity:1; fill:none" points="155.765,1486.45 155.765,47.2441 "/>
<polyline clip-path="url(#clip610)" style="stroke:#000000; stroke-linecap:round; stroke-linejoin:round; stroke-width:4; stroke-opacity:1; fill:none" points="155.765,1287.05 174.663,1287.05 "/>
<polyline clip-path="url(#clip610)" style="stroke:#000000; stroke-linecap:round; stroke-linejoin:round; stroke-width:4; stroke-opacity:1; fill:none" points="155.765,1015.32 174.663,1015.32 "/>
<polyline clip-path="url(#clip610)" style="stroke:#000000; stroke-linecap:round; stroke-linejoin:round; stroke-width:4; stroke-opacity:1; fill:none" points="155.765,743.58 174.663,743.58 "/>
<polyline clip-path="url(#clip610)" style="stroke:#000000; stroke-linecap:round; stroke-linejoin:round; stroke-width:4; stroke-opacity:1; fill:none" points="155.765,471.844 174.663,471.844 "/>
<polyline clip-path="url(#clip610)" style="stroke:#000000; stroke-linecap:round; stroke-linejoin:round; stroke-width:4; stroke-opacity:1; fill:none" points="155.765,200.108 174.663,200.108 "/>
<path clip-path="url(#clip610)" d="M63.5847 1272.85 Q59.9736 1272.85 58.1449 1276.42 Q56.3393 1279.96 56.3393 1287.09 Q56.3393 1294.19 58.1449 1297.76 Q59.9736 1301.3 63.5847 1301.3 Q67.2189 1301.3 69.0244 1297.76 Q70.8531 1294.19 70.8531 1287.09 Q70.8531 1279.96 69.0244 1276.42 Q67.2189 1272.85 63.5847 1272.85 M63.5847 1269.15 Q69.3948 1269.15 72.4503 1273.75 Q75.529 1278.34 75.529 1287.09 Q75.529 1295.81 72.4503 1300.42 Q69.3948 1305 63.5847 1305 Q57.7745 1305 54.6958 1300.42 Q51.6403 1295.81 51.6403 1287.09 Q51.6403 1278.34 54.6958 1273.75 Q57.7745 1269.15 63.5847 1269.15 Z" fill="#000000" fill-rule="nonzero" fill-opacity="1" /><path clip-path="url(#clip610)" d="M83.7466 1298.45 L88.6308 1298.45 L88.6308 1304.33 L83.7466 1304.33 L83.7466 1298.45 Z" fill="#000000" fill-rule="nonzero" fill-opacity="1" /><path clip-path="url(#clip610)" d="M98.8622 1269.77 L117.219 1269.77 L117.219 1273.71 L103.145 1273.71 L103.145 1282.18 Q104.163 1281.83 105.182 1281.67 Q106.2 1281.49 107.219 1281.49 Q113.006 1281.49 116.385 1284.66 Q119.765 1287.83 119.765 1293.24 Q119.765 1298.82 116.293 1301.92 Q112.82 1305 106.501 1305 Q104.325 1305 102.057 1304.63 Q99.8113 1304.26 97.4039 1303.52 L97.4039 1298.82 Q99.4872 1299.96 101.709 1300.51 Q103.932 1301.07 106.408 1301.07 Q110.413 1301.07 112.751 1298.96 Q115.089 1296.86 115.089 1293.24 Q115.089 1289.63 112.751 1287.53 Q110.413 1285.42 106.408 1285.42 Q104.534 1285.42 102.659 1285.84 Q100.807 1286.25 98.8622 1287.13 L98.8622 1269.77 Z" fill="#000000" fill-rule="nonzero" fill-opacity="1" /><path clip-path="url(#clip610)" d="M53.3995 1028.66 L61.0384 1028.66 L61.0384 1002.3 L52.7282 1003.96 L52.7282 999.703 L60.9921 998.036 L65.668 998.036 L65.668 1028.66 L73.3068 1028.66 L73.3068 1032.6 L53.3995 1032.6 L53.3995 1028.66 Z" fill="#000000" fill-rule="nonzero" fill-opacity="1" /><path clip-path="url(#clip610)" d="M82.7512 1026.72 L87.6354 1026.72 L87.6354 1032.6 L82.7512 1032.6 L82.7512 1026.72 Z" fill="#000000" fill-rule="nonzero" fill-opacity="1" /><path clip-path="url(#clip610)" d="M107.821 1001.11 Q104.209 1001.11 102.381 1004.68 Q100.575 1008.22 100.575 1015.35 Q100.575 1022.46 102.381 1026.02 Q104.209 1029.56 107.821 1029.56 Q111.455 1029.56 113.26 1026.02 Q115.089 1022.46 115.089 1015.35 Q115.089 1008.22 113.26 1004.68 Q111.455 1001.11 107.821 1001.11 M107.821 997.411 Q113.631 997.411 116.686 1002.02 Q119.765 1006.6 119.765 1015.35 Q119.765 1024.08 116.686 1028.68 Q113.631 1033.27 107.821 1033.27 Q102.01 1033.27 98.9317 1028.68 Q95.8761 1024.08 95.8761 1015.35 Q95.8761 1006.6 98.9317 1002.02 Q102.01 997.411 107.821 997.411 Z" fill="#000000" fill-rule="nonzero" fill-opacity="1" /><path clip-path="url(#clip610)" d="M54.3949 756.925 L62.0337 756.925 L62.0337 730.559 L53.7236 732.226 L53.7236 727.967 L61.9874 726.3 L66.6633 726.3 L66.6633 756.925 L74.3022 756.925 L74.3022 760.86 L54.3949 760.86 L54.3949 756.925 Z" fill="#000000" fill-rule="nonzero" fill-opacity="1" /><path clip-path="url(#clip610)" d="M83.7466 754.98 L88.6308 754.98 L88.6308 760.86 L83.7466 760.86 L83.7466 754.98 Z" fill="#000000" fill-rule="nonzero" fill-opacity="1" /><path clip-path="url(#clip610)" d="M98.8622 726.3 L117.219 726.3 L117.219 730.235 L103.145 730.235 L103.145 738.707 Q104.163 738.36 105.182 738.198 Q106.2 738.013 107.219 738.013 Q113.006 738.013 116.385 741.184 Q119.765 744.355 119.765 749.772 Q119.765 755.351 116.293 758.453 Q112.82 761.531 106.501 761.531 Q104.325 761.531 102.057 761.161 Q99.8113 760.791 97.4039 760.05 L97.4039 755.351 Q99.4872 756.485 101.709 757.041 Q103.932 757.596 106.408 757.596 Q110.413 757.596 112.751 755.49 Q115.089 753.383 115.089 749.772 Q115.089 746.161 112.751 744.055 Q110.413 741.948 106.408 741.948 Q104.534 741.948 102.659 742.365 Q100.807 742.781 98.8622 743.661 L98.8622 726.3 Z" fill="#000000" fill-rule="nonzero" fill-opacity="1" /><path clip-path="url(#clip610)" d="M56.6171 485.189 L72.9365 485.189 L72.9365 489.124 L50.9921 489.124 L50.9921 485.189 Q53.6541 482.434 58.2375 477.804 Q62.8439 473.152 64.0245 471.809 Q66.2698 469.286 67.1494 467.55 Q68.0522 465.791 68.0522 464.101 Q68.0522 461.346 66.1078 459.61 Q64.1865 457.874 61.0847 457.874 Q58.8856 457.874 56.4319 458.638 Q54.0014 459.402 51.2236 460.953 L51.2236 456.23 Q54.0477 455.096 56.5014 454.517 Q58.955 453.939 60.9921 453.939 Q66.3624 453.939 69.5568 456.624 Q72.7513 459.309 72.7513 463.8 Q72.7513 465.929 71.9411 467.851 Q71.1541 469.749 69.0476 472.341 Q68.4689 473.013 65.367 476.23 Q62.2652 479.425 56.6171 485.189 Z" fill="#000000" fill-rule="nonzero" fill-opacity="1" /><path clip-path="url(#clip610)" d="M82.7512 483.244 L87.6354 483.244 L87.6354 489.124 L82.7512 489.124 L82.7512 483.244 Z" fill="#000000" fill-rule="nonzero" fill-opacity="1" /><path clip-path="url(#clip610)" d="M107.821 457.642 Q104.209 457.642 102.381 461.207 Q100.575 464.749 100.575 471.878 Q100.575 478.985 102.381 482.55 Q104.209 486.091 107.821 486.091 Q111.455 486.091 113.26 482.55 Q115.089 478.985 115.089 471.878 Q115.089 464.749 113.26 461.207 Q111.455 457.642 107.821 457.642 M107.821 453.939 Q113.631 453.939 116.686 458.545 Q119.765 463.129 119.765 471.878 Q119.765 480.605 116.686 485.212 Q113.631 489.795 107.821 489.795 Q102.01 489.795 98.9317 485.212 Q95.8761 480.605 95.8761 471.878 Q95.8761 463.129 98.9317 458.545 Q102.01 453.939 107.821 453.939 Z" fill="#000000" fill-rule="nonzero" fill-opacity="1" /><path clip-path="url(#clip610)" d="M57.6125 213.452 L73.9318 213.452 L73.9318 217.388 L51.9875 217.388 L51.9875 213.452 Q54.6495 210.698 59.2328 206.068 Q63.8393 201.415 65.0198 200.073 Q67.2652 197.55 68.1448 195.814 Q69.0476 194.054 69.0476 192.365 Q69.0476 189.61 67.1032 187.874 Q65.1819 186.138 62.08 186.138 Q59.881 186.138 57.4273 186.902 Q54.9967 187.666 52.219 189.216 L52.219 184.494 Q55.043 183.36 57.4967 182.781 Q59.9504 182.203 61.9874 182.203 Q67.3578 182.203 70.5522 184.888 Q73.7466 187.573 73.7466 192.064 Q73.7466 194.193 72.9365 196.115 Q72.1494 198.013 70.0429 200.605 Q69.4642 201.277 66.3624 204.494 Q63.2606 207.689 57.6125 213.452 Z" fill="#000000" fill-rule="nonzero" fill-opacity="1" /><path clip-path="url(#clip610)" d="M83.7466 211.508 L88.6308 211.508 L88.6308 217.388 L83.7466 217.388 L83.7466 211.508 Z" fill="#000000" fill-rule="nonzero" fill-opacity="1" /><path clip-path="url(#clip610)" d="M98.8622 182.828 L117.219 182.828 L117.219 186.763 L103.145 186.763 L103.145 195.235 Q104.163 194.888 105.182 194.726 Q106.2 194.54 107.219 194.54 Q113.006 194.54 116.385 197.712 Q119.765 200.883 119.765 206.3 Q119.765 211.878 116.293 214.98 Q112.82 218.059 106.501 218.059 Q104.325 218.059 102.057 217.689 Q99.8113 217.318 97.4039 216.577 L97.4039 211.878 Q99.4872 213.013 101.709 213.568 Q103.932 214.124 106.408 214.124 Q110.413 214.124 112.751 212.017 Q115.089 209.911 115.089 206.3 Q115.089 202.689 112.751 200.582 Q110.413 198.476 106.408 198.476 Q104.534 198.476 102.659 198.892 Q100.807 199.309 98.8622 200.189 L98.8622 182.828 Z" fill="#000000" fill-rule="nonzero" fill-opacity="1" /><polyline clip-path="url(#clip611)" style="stroke:#009af9; stroke-linecap:round; stroke-linejoin:round; stroke-width:12; stroke-opacity:1; fill:none" points="217.944,1287.05 425.207,1308.96 632.47,1293.58 839.734,1308.64 1047,1261.15 1254.26,1215.69 1461.52,1211.11 1668.79,1163.97 1876.05,1133.39 2083.31,1063.38 2290.58,1036.34 "/>
<polyline clip-path="url(#clip611)" style="stroke:#000000; stroke-linecap:round; stroke-linejoin:round; stroke-width:12; stroke-opacity:1; fill:none" points="217.944,1287.05 217.944,1287.05 "/>
<polyline clip-path="url(#clip611)" style="stroke:#000000; stroke-linecap:round; stroke-linejoin:round; stroke-width:12; stroke-opacity:1; fill:none" points="425.207,1375.19 425.207,1220.56 "/>
<polyline clip-path="url(#clip611)" style="stroke:#000000; stroke-linecap:round; stroke-linejoin:round; stroke-width:12; stroke-opacity:1; fill:none" points="632.47,1408.28 632.47,1135.64 "/>
<polyline clip-path="url(#clip611)" style="stroke:#000000; stroke-linecap:round; stroke-linejoin:round; stroke-width:12; stroke-opacity:1; fill:none" points="839.734,1422.04 839.734,1091.75 "/>
<polyline clip-path="url(#clip611)" style="stroke:#000000; stroke-linecap:round; stroke-linejoin:round; stroke-width:12; stroke-opacity:1; fill:none" points="1047,1408.36 1047,1055.54 "/>
<polyline clip-path="url(#clip611)" style="stroke:#000000; stroke-linecap:round; stroke-linejoin:round; stroke-width:12; stroke-opacity:1; fill:none" points="1254.26,1386.24 1254.26,833.217 "/>
<polyline clip-path="url(#clip611)" style="stroke:#000000; stroke-linecap:round; stroke-linejoin:round; stroke-width:12; stroke-opacity:1; fill:none" points="1461.52,1328.34 1461.52,819.484 "/>
<polyline clip-path="url(#clip611)" style="stroke:#000000; stroke-linecap:round; stroke-linejoin:round; stroke-width:12; stroke-opacity:1; fill:none" points="1668.79,1355.68 1668.79,495.307 "/>
<polyline clip-path="url(#clip611)" style="stroke:#000000; stroke-linecap:round; stroke-linejoin:round; stroke-width:12; stroke-opacity:1; fill:none" points="1876.05,1385.75 1876.05,223.043 "/>
<polyline clip-path="url(#clip611)" style="stroke:#000000; stroke-linecap:round; stroke-linejoin:round; stroke-width:12; stroke-opacity:1; fill:none" points="2083.31,1401.6 2083.31,137.666 "/>
<polyline clip-path="url(#clip611)" style="stroke:#000000; stroke-linecap:round; stroke-linejoin:round; stroke-width:12; stroke-opacity:1; fill:none" points="2290.58,1410.34 2290.58,87.9763 "/>
<line clip-path="url(#clip611)" x1="233.944" y1="1287.05" x2="201.944" y2="1287.05" style="stroke:#000000; stroke-width:12; stroke-opacity:1"/>
<line clip-path="url(#clip611)" x1="233.944" y1="1287.05" x2="201.944" y2="1287.05" style="stroke:#000000; stroke-width:12; stroke-opacity:1"/>
<line clip-path="url(#clip611)" x1="441.207" y1="1375.19" x2="409.207" y2="1375.19" style="stroke:#000000; stroke-width:12; stroke-opacity:1"/>
<line clip-path="url(#clip611)" x1="441.207" y1="1220.56" x2="409.207" y2="1220.56" style="stroke:#000000; stroke-width:12; stroke-opacity:1"/>
<line clip-path="url(#clip611)" x1="648.47" y1="1408.28" x2="616.47" y2="1408.28" style="stroke:#000000; stroke-width:12; stroke-opacity:1"/>
<line clip-path="url(#clip611)" x1="648.47" y1="1135.64" x2="616.47" y2="1135.64" style="stroke:#000000; stroke-width:12; stroke-opacity:1"/>
<line clip-path="url(#clip611)" x1="855.734" y1="1422.04" x2="823.734" y2="1422.04" style="stroke:#000000; stroke-width:12; stroke-opacity:1"/>
<line clip-path="url(#clip611)" x1="855.734" y1="1091.75" x2="823.734" y2="1091.75" style="stroke:#000000; stroke-width:12; stroke-opacity:1"/>
<line clip-path="url(#clip611)" x1="1063" y1="1408.36" x2="1031" y2="1408.36" style="stroke:#000000; stroke-width:12; stroke-opacity:1"/>
<line clip-path="url(#clip611)" x1="1063" y1="1055.54" x2="1031" y2="1055.54" style="stroke:#000000; stroke-width:12; stroke-opacity:1"/>
<line clip-path="url(#clip611)" x1="1270.26" y1="1386.24" x2="1238.26" y2="1386.24" style="stroke:#000000; stroke-width:12; stroke-opacity:1"/>
<line clip-path="url(#clip611)" x1="1270.26" y1="833.217" x2="1238.26" y2="833.217" style="stroke:#000000; stroke-width:12; stroke-opacity:1"/>
<line clip-path="url(#clip611)" x1="1477.52" y1="1328.34" x2="1445.52" y2="1328.34" style="stroke:#000000; stroke-width:12; stroke-opacity:1"/>
<line clip-path="url(#clip611)" x1="1477.52" y1="819.484" x2="1445.52" y2="819.484" style="stroke:#000000; stroke-width:12; stroke-opacity:1"/>
<line clip-path="url(#clip611)" x1="1684.79" y1="1355.68" x2="1652.79" y2="1355.68" style="stroke:#000000; stroke-width:12; stroke-opacity:1"/>
<line clip-path="url(#clip611)" x1="1684.79" y1="495.307" x2="1652.79" y2="495.307" style="stroke:#000000; stroke-width:12; stroke-opacity:1"/>
<line clip-path="url(#clip611)" x1="1892.05" y1="1385.75" x2="1860.05" y2="1385.75" style="stroke:#000000; stroke-width:12; stroke-opacity:1"/>
<line clip-path="url(#clip611)" x1="1892.05" y1="223.043" x2="1860.05" y2="223.043" style="stroke:#000000; stroke-width:12; stroke-opacity:1"/>
<line clip-path="url(#clip611)" x1="2099.31" y1="1401.6" x2="2067.31" y2="1401.6" style="stroke:#000000; stroke-width:12; stroke-opacity:1"/>
<line clip-path="url(#clip611)" x1="2099.31" y1="137.666" x2="2067.31" y2="137.666" style="stroke:#000000; stroke-width:12; stroke-opacity:1"/>
<line clip-path="url(#clip611)" x1="2306.58" y1="1410.34" x2="2274.58" y2="1410.34" style="stroke:#000000; stroke-width:12; stroke-opacity:1"/>
<line clip-path="url(#clip611)" x1="2306.58" y1="87.9763" x2="2274.58" y2="87.9763" style="stroke:#000000; stroke-width:12; stroke-opacity:1"/>
<polyline clip-path="url(#clip611)" style="stroke:#e26f46; stroke-linecap:round; stroke-linejoin:round; stroke-width:12; stroke-opacity:1; fill:none" points="217.944,1287.05 425.207,1248.23 632.47,1205.18 839.734,1198.5 1047,1216.39 1254.26,1166.35 1461.52,1090.06 1668.79,942.194 1876.05,847.072 2083.31,782.519 2290.58,873.466 "/>
<polyline clip-path="url(#clip611)" style="stroke:#000000; stroke-linecap:round; stroke-linejoin:round; stroke-width:12; stroke-opacity:1; fill:none" points="217.944,1287.05 217.944,1287.05 "/>
<polyline clip-path="url(#clip611)" style="stroke:#000000; stroke-linecap:round; stroke-linejoin:round; stroke-width:12; stroke-opacity:1; fill:none" points="425.207,1339.42 425.207,1178.81 "/>
<polyline clip-path="url(#clip611)" style="stroke:#000000; stroke-linecap:round; stroke-linejoin:round; stroke-width:12; stroke-opacity:1; fill:none" points="632.47,1357.23 632.47,1095.1 "/>
<polyline clip-path="url(#clip611)" style="stroke:#000000; stroke-linecap:round; stroke-linejoin:round; stroke-width:12; stroke-opacity:1; fill:none" points="839.734,1354.29 839.734,1002.53 "/>
<polyline clip-path="url(#clip611)" style="stroke:#000000; stroke-linecap:round; stroke-linejoin:round; stroke-width:12; stroke-opacity:1; fill:none" points="1047,1353.28 1047,922.94 "/>
<polyline clip-path="url(#clip611)" style="stroke:#000000; stroke-linecap:round; stroke-linejoin:round; stroke-width:12; stroke-opacity:1; fill:none" points="1254.26,1348.34 1254.26,882.278 "/>
<polyline clip-path="url(#clip611)" style="stroke:#000000; stroke-linecap:round; stroke-linejoin:round; stroke-width:12; stroke-opacity:1; fill:none" points="1461.52,1423.37 1461.52,847.824 "/>
<polyline clip-path="url(#clip611)" style="stroke:#000000; stroke-linecap:round; stroke-linejoin:round; stroke-width:12; stroke-opacity:1; fill:none" points="1668.79,1431.16 1668.79,807.124 "/>
<polyline clip-path="url(#clip611)" style="stroke:#000000; stroke-linecap:round; stroke-linejoin:round; stroke-width:12; stroke-opacity:1; fill:none" points="1876.05,1428.26 1876.05,637.187 "/>
<polyline clip-path="url(#clip611)" style="stroke:#000000; stroke-linecap:round; stroke-linejoin:round; stroke-width:12; stroke-opacity:1; fill:none" points="2083.31,1444.22 2083.31,529.819 "/>
<polyline clip-path="url(#clip611)" style="stroke:#000000; stroke-linecap:round; stroke-linejoin:round; stroke-width:12; stroke-opacity:1; fill:none" points="2290.58,1445.72 2290.58,332.824 "/>
<line clip-path="url(#clip611)" x1="233.944" y1="1287.05" x2="201.944" y2="1287.05" style="stroke:#000000; stroke-width:12; stroke-opacity:1"/>
<line clip-path="url(#clip611)" x1="233.944" y1="1287.05" x2="201.944" y2="1287.05" style="stroke:#000000; stroke-width:12; stroke-opacity:1"/>
<line clip-path="url(#clip611)" x1="441.207" y1="1339.42" x2="409.207" y2="1339.42" style="stroke:#000000; stroke-width:12; stroke-opacity:1"/>
<line clip-path="url(#clip611)" x1="441.207" y1="1178.81" x2="409.207" y2="1178.81" style="stroke:#000000; stroke-width:12; stroke-opacity:1"/>
<line clip-path="url(#clip611)" x1="648.47" y1="1357.23" x2="616.47" y2="1357.23" style="stroke:#000000; stroke-width:12; stroke-opacity:1"/>
<line clip-path="url(#clip611)" x1="648.47" y1="1095.1" x2="616.47" y2="1095.1" style="stroke:#000000; stroke-width:12; stroke-opacity:1"/>
<line clip-path="url(#clip611)" x1="855.734" y1="1354.29" x2="823.734" y2="1354.29" style="stroke:#000000; stroke-width:12; stroke-opacity:1"/>
<line clip-path="url(#clip611)" x1="855.734" y1="1002.53" x2="823.734" y2="1002.53" style="stroke:#000000; stroke-width:12; stroke-opacity:1"/>
<line clip-path="url(#clip611)" x1="1063" y1="1353.28" x2="1031" y2="1353.28" style="stroke:#000000; stroke-width:12; stroke-opacity:1"/>
<line clip-path="url(#clip611)" x1="1063" y1="922.94" x2="1031" y2="922.94" style="stroke:#000000; stroke-width:12; stroke-opacity:1"/>
<line clip-path="url(#clip611)" x1="1270.26" y1="1348.34" x2="1238.26" y2="1348.34" style="stroke:#000000; stroke-width:12; stroke-opacity:1"/>
<line clip-path="url(#clip611)" x1="1270.26" y1="882.278" x2="1238.26" y2="882.278" style="stroke:#000000; stroke-width:12; stroke-opacity:1"/>
<line clip-path="url(#clip611)" x1="1477.52" y1="1423.37" x2="1445.52" y2="1423.37" style="stroke:#000000; stroke-width:12; stroke-opacity:1"/>
<line clip-path="url(#clip611)" x1="1477.52" y1="847.824" x2="1445.52" y2="847.824" style="stroke:#000000; stroke-width:12; stroke-opacity:1"/>
<line clip-path="url(#clip611)" x1="1684.79" y1="1431.16" x2="1652.79" y2="1431.16" style="stroke:#000000; stroke-width:12; stroke-opacity:1"/>
<line clip-path="url(#clip611)" x1="1684.79" y1="807.124" x2="1652.79" y2="807.124" style="stroke:#000000; stroke-width:12; stroke-opacity:1"/>
<line clip-path="url(#clip611)" x1="1892.05" y1="1428.26" x2="1860.05" y2="1428.26" style="stroke:#000000; stroke-width:12; stroke-opacity:1"/>
<line clip-path="url(#clip611)" x1="1892.05" y1="637.187" x2="1860.05" y2="637.187" style="stroke:#000000; stroke-width:12; stroke-opacity:1"/>
<line clip-path="url(#clip611)" x1="2099.31" y1="1444.22" x2="2067.31" y2="1444.22" style="stroke:#000000; stroke-width:12; stroke-opacity:1"/>
<line clip-path="url(#clip611)" x1="2099.31" y1="529.819" x2="2067.31" y2="529.819" style="stroke:#000000; stroke-width:12; stroke-opacity:1"/>
<line clip-path="url(#clip611)" x1="2306.58" y1="1445.72" x2="2274.58" y2="1445.72" style="stroke:#000000; stroke-width:12; stroke-opacity:1"/>
<line clip-path="url(#clip611)" x1="2306.58" y1="332.824" x2="2274.58" y2="332.824" style="stroke:#000000; stroke-width:12; stroke-opacity:1"/>
</svg>
