<?xml version="1.0" encoding="utf-8"?>
<svg xmlns="http://www.w3.org/2000/svg" xmlns:xlink="http://www.w3.org/1999/xlink" width="600" height="400" viewBox="0 0 2400 1600">
<defs>
  <clipPath id="clip900">
    <rect x="0" y="0" width="2400" height="1600"/>
  </clipPath>
</defs>
<path clip-path="url(#clip900)" d="M0 1600 L2400 1600 L2400 0 L0 0  Z" fill="#ffffff" fill-rule="evenodd" fill-opacity="1"/>
<defs>
  <clipPath id="clip901">
    <rect x="155" y="47" width="2198" height="1440"/>
  </clipPath>
</defs>
<path clip-path="url(#clip900)" d="M155.765 1486.45 L2352.76 1486.45 L2352.76 47.2441 L155.765 47.2441  Z" fill="#ffffff" fill-rule="evenodd" fill-opacity="1"/>
<polyline clip-path="url(#clip901)" style="stroke:#000000; stroke-linecap:round; stroke-linejoin:round; stroke-width:2; stroke-opacity:0.1; fill:none" points="217.944,1486.45 217.944,47.2441 "/>
<polyline clip-path="url(#clip901)" style="stroke:#000000; stroke-linecap:round; stroke-linejoin:round; stroke-width:2; stroke-opacity:0.1; fill:none" points="736.102,1486.45 736.102,47.2441 "/>
<polyline clip-path="url(#clip901)" style="stroke:#000000; stroke-linecap:round; stroke-linejoin:round; stroke-width:2; stroke-opacity:0.1; fill:none" points="1254.26,1486.45 1254.26,47.2441 "/>
<polyline clip-path="url(#clip901)" style="stroke:#000000; stroke-linecap:round; stroke-linejoin:round; stroke-width:2; stroke-opacity:0.1; fill:none" points="1772.42,1486.45 1772.42,47.2441 "/>
<polyline clip-path="url(#clip901)" style="stroke:#000000; stroke-linecap:round; stroke-linejoin:round; stroke-width:2; stroke-opacity:0.1; fill:none" points="2290.58,1486.45 2290.58,47.2441 "/>
<polyline clip-path="url(#clip901)" style="stroke:#000000; stroke-linecap:round; stroke-linejoin:round; stroke-width:2; stroke-opacity:0.1; fill:none" points="155.765,1335.06 2352.76,1335.06 "/>
<polyline clip-path="url(#clip901)" style="stroke:#000000; stroke-linecap:round; stroke-linejoin:round; stroke-width:2; stroke-opacity:0.1; fill:none" points="155.765,1072.42 2352.76,1072.42 "/>
<polyline clip-path="url(#clip901)" style="stroke:#000000; stroke-linecap:round; stroke-linejoin:round; stroke-width:2; stroke-opacity:0.1; fill:none" points="155.765,809.776 2352.76,809.776 "/>
<polyline clip-path="url(#clip901)" style="stroke:#000000; stroke-linecap:round; stroke-linejoin:round; stroke-width:2; stroke-opacity:0.1; fill:none" points="155.765,547.134 2352.76,547.134 "/>
<polyline clip-path="url(#clip901)" style="stroke:#000000; stroke-linecap:round; stroke-linejoin:round; stroke-width:2; stroke-opacity:0.1; fill:none" points="155.765,284.493 2352.76,284.493 "/>
<polyline clip-path="url(#clip900)" style="stroke:#000000; stroke-linecap:round; stroke-linejoin:round; stroke-width:4; stroke-opacity:1; fill:none" points="155.765,1486.45 2352.76,1486.45 "/>
<polyline clip-path="url(#clip900)" style="stroke:#000000; stroke-linecap:round; stroke-linejoin:round; stroke-width:4; stroke-opacity:1; fill:none" points="217.944,1486.45 217.944,1467.55 "/>
<polyline clip-path="url(#clip900)" style="stroke:#000000; stroke-linecap:round; stroke-linejoin:round; stroke-width:4; stroke-opacity:1; fill:none" points="736.102,1486.45 736.102,1467.55 "/>
<polyline clip-path="url(#clip900)" style="stroke:#000000; stroke-linecap:round; stroke-linejoin:round; stroke-width:4; stroke-opacity:1; fill:none" points="1254.26,1486.45 1254.26,1467.55 "/>
<polyline clip-path="url(#clip900)" style="stroke:#000000; stroke-linecap:round; stroke-linejoin:round; stroke-width:4; stroke-opacity:1; fill:none" points="1772.42,1486.45 1772.42,1467.55 "/>
<polyline clip-path="url(#clip900)" style="stroke:#000000; stroke-linecap:round; stroke-linejoin:round; stroke-width:4; stroke-opacity:1; fill:none" points="2290.58,1486.45 2290.58,1467.55 "/>
<path clip-path="url(#clip900)" d="M180.247 1517.37 Q176.636 1517.37 174.808 1520.93 Q173.002 1524.47 173.002 1531.6 Q173.002 1538.71 174.808 1542.27 Q176.636 1545.82 180.247 1545.82 Q183.882 1545.82 185.687 1542.27 Q187.516 1538.71 187.516 1531.6 Q187.516 1524.47 185.687 1520.93 Q183.882 1517.37 180.247 1517.37 M180.247 1513.66 Q186.057 1513.66 189.113 1518.27 Q192.192 1522.85 192.192 1531.6 Q192.192 1540.33 189.113 1544.94 Q186.057 1549.52 180.247 1549.52 Q174.437 1549.52 171.358 1544.94 Q168.303 1540.33 168.303 1531.6 Q168.303 1522.85 171.358 1518.27 Q174.437 1513.66 180.247 1513.66 Z" fill="#000000" fill-rule="nonzero" fill-opacity="1" /><path clip-path="url(#clip900)" d="M200.409 1542.97 L205.294 1542.97 L205.294 1548.85 L200.409 1548.85 L200.409 1542.97 Z" fill="#000000" fill-rule="nonzero" fill-opacity="1" /><path clip-path="url(#clip900)" d="M225.479 1517.37 Q221.867 1517.37 220.039 1520.93 Q218.233 1524.47 218.233 1531.6 Q218.233 1538.71 220.039 1542.27 Q221.867 1545.82 225.479 1545.82 Q229.113 1545.82 230.918 1542.27 Q232.747 1538.71 232.747 1531.6 Q232.747 1524.47 230.918 1520.93 Q229.113 1517.37 225.479 1517.37 M225.479 1513.66 Q231.289 1513.66 234.344 1518.27 Q237.423 1522.85 237.423 1531.6 Q237.423 1540.33 234.344 1544.94 Q231.289 1549.52 225.479 1549.52 Q219.668 1549.52 216.59 1544.94 Q213.534 1540.33 213.534 1531.6 Q213.534 1522.85 216.59 1518.27 Q219.668 1513.66 225.479 1513.66 Z" fill="#000000" fill-rule="nonzero" fill-opacity="1" /><path clip-path="url(#clip900)" d="M255.64 1517.37 Q252.029 1517.37 250.201 1520.93 Q248.395 1524.47 248.395 1531.6 Q248.395 1538.71 250.201 1542.27 Q252.029 1545.82 255.64 1545.82 Q259.275 1545.82 261.08 1542.27 Q262.909 1538.71 262.909 1531.6 Q262.909 1524.47 261.08 1520.93 Q259.275 1517.37 255.64 1517.37 M255.64 1513.66 Q261.451 1513.66 264.506 1518.27 Q267.585 1522.85 267.585 1531.6 Q267.585 1540.33 264.506 1544.94 Q261.451 1549.52 255.64 1549.52 Q249.83 1549.52 246.752 1544.94 Q243.696 1540.33 243.696 1531.6 Q243.696 1522.85 246.752 1518.27 Q249.83 1513.66 255.64 1513.66 Z" fill="#000000" fill-rule="nonzero" fill-opacity="1" /><path clip-path="url(#clip900)" d="M698.903 1517.37 Q695.292 1517.37 693.463 1520.93 Q691.658 1524.47 691.658 1531.6 Q691.658 1538.71 693.463 1542.27 Q695.292 1545.82 698.903 1545.82 Q702.538 1545.82 704.343 1542.27 Q706.172 1538.71 706.172 1531.6 Q706.172 1524.47 704.343 1520.93 Q702.538 1517.37 698.903 1517.37 M698.903 1513.66 Q704.713 1513.66 707.769 1518.27 Q710.848 1522.85 710.848 1531.6 Q710.848 1540.33 707.769 1544.94 Q704.713 1549.52 698.903 1549.52 Q693.093 1549.52 690.014 1544.94 Q686.959 1540.33 686.959 1531.6 Q686.959 1522.85 690.014 1518.27 Q693.093 1513.66 698.903 1513.66 Z" fill="#000000" fill-rule="nonzero" fill-opacity="1" /><path clip-path="url(#clip900)" d="M719.065 1542.97 L723.949 1542.97 L723.949 1548.85 L719.065 1548.85 L719.065 1542.97 Z" fill="#000000" fill-rule="nonzero" fill-opacity="1" /><path clip-path="url(#clip900)" d="M738.162 1544.91 L754.482 1544.91 L754.482 1548.85 L732.537 1548.85 L732.537 1544.91 Q735.199 1542.16 739.783 1537.53 Q744.389 1532.88 745.57 1531.53 Q747.815 1529.01 748.695 1527.27 Q749.597 1525.51 749.597 1523.82 Q749.597 1521.07 747.653 1519.33 Q745.732 1517.6 742.63 1517.6 Q740.431 1517.6 737.977 1518.36 Q735.547 1519.13 732.769 1520.68 L732.769 1515.95 Q735.593 1514.82 738.047 1514.24 Q740.5 1513.66 742.537 1513.66 Q747.908 1513.66 751.102 1516.35 Q754.296 1519.03 754.296 1523.52 Q754.296 1525.65 753.486 1527.57 Q752.699 1529.47 750.593 1532.07 Q750.014 1532.74 746.912 1535.95 Q743.81 1539.15 738.162 1544.91 Z" fill="#000000" fill-rule="nonzero" fill-opacity="1" /><path clip-path="url(#clip900)" d="M764.343 1514.29 L782.699 1514.29 L782.699 1518.22 L768.625 1518.22 L768.625 1526.7 Q769.644 1526.35 770.662 1526.19 Q771.681 1526 772.699 1526 Q778.486 1526 781.866 1529.17 Q785.245 1532.34 785.245 1537.76 Q785.245 1543.34 781.773 1546.44 Q778.301 1549.52 771.982 1549.52 Q769.806 1549.52 767.537 1549.15 Q765.292 1548.78 762.884 1548.04 L762.884 1543.34 Q764.968 1544.47 767.19 1545.03 Q769.412 1545.58 771.889 1545.58 Q775.894 1545.58 778.232 1543.48 Q780.57 1541.37 780.57 1537.76 Q780.57 1534.15 778.232 1532.04 Q775.894 1529.94 771.889 1529.94 Q770.014 1529.94 768.139 1530.35 Q766.287 1530.77 764.343 1531.65 L764.343 1514.29 Z" fill="#000000" fill-rule="nonzero" fill-opacity="1" /><path clip-path="url(#clip900)" d="M1216.56 1517.37 Q1212.95 1517.37 1211.12 1520.93 Q1209.32 1524.47 1209.32 1531.6 Q1209.32 1538.71 1211.12 1542.27 Q1212.95 1545.82 1216.56 1545.82 Q1220.2 1545.82 1222 1542.27 Q1223.83 1538.71 1223.83 1531.6 Q1223.83 1524.47 1222 1520.93 Q1220.2 1517.37 1216.56 1517.37 M1216.56 1513.66 Q1222.37 1513.66 1225.43 1518.27 Q1228.51 1522.85 1228.51 1531.6 Q1228.51 1540.33 1225.43 1544.94 Q1222.37 1549.52 1216.56 1549.52 Q1210.75 1549.52 1207.68 1544.94 Q1204.62 1540.33 1204.62 1531.6 Q1204.62 1522.85 1207.68 1518.27 Q1210.75 1513.66 1216.56 1513.66 Z" fill="#000000" fill-rule="nonzero" fill-opacity="1" /><path clip-path="url(#clip900)" d="M1236.73 1542.97 L1241.61 1542.97 L1241.61 1548.85 L1236.73 1548.85 L1236.73 1542.97 Z" fill="#000000" fill-rule="nonzero" fill-opacity="1" /><path clip-path="url(#clip900)" d="M1251.84 1514.29 L1270.2 1514.29 L1270.2 1518.22 L1256.12 1518.22 L1256.12 1526.7 Q1257.14 1526.35 1258.16 1526.19 Q1259.18 1526 1260.2 1526 Q1265.98 1526 1269.36 1529.17 Q1272.74 1532.34 1272.74 1537.76 Q1272.74 1543.34 1269.27 1546.44 Q1265.8 1549.52 1259.48 1549.52 Q1257.3 1549.52 1255.04 1549.15 Q1252.79 1548.78 1250.38 1548.04 L1250.38 1543.34 Q1252.47 1544.47 1254.69 1545.03 Q1256.91 1545.58 1259.39 1545.58 Q1263.39 1545.58 1265.73 1543.48 Q1268.07 1541.37 1268.07 1537.76 Q1268.07 1534.15 1265.73 1532.04 Q1263.39 1529.94 1259.39 1529.94 Q1257.51 1529.94 1255.64 1530.35 Q1253.79 1530.77 1251.84 1531.65 L1251.84 1514.29 Z" fill="#000000" fill-rule="nonzero" fill-opacity="1" /><path clip-path="url(#clip900)" d="M1291.96 1517.37 Q1288.35 1517.37 1286.52 1520.93 Q1284.71 1524.47 1284.71 1531.6 Q1284.71 1538.71 1286.52 1542.27 Q1288.35 1545.82 1291.96 1545.82 Q1295.59 1545.82 1297.4 1542.27 Q1299.23 1538.71 1299.23 1531.6 Q1299.23 1524.47 1297.4 1520.93 Q1295.59 1517.37 1291.96 1517.37 M1291.96 1513.66 Q1297.77 1513.66 1300.82 1518.27 Q1303.9 1522.85 1303.9 1531.6 Q1303.9 1540.33 1300.82 1544.94 Q1297.77 1549.52 1291.96 1549.52 Q1286.15 1549.52 1283.07 1544.94 Q1280.01 1540.33 1280.01 1531.6 Q1280.01 1522.85 1283.07 1518.27 Q1286.15 1513.66 1291.96 1513.66 Z" fill="#000000" fill-rule="nonzero" fill-opacity="1" /><path clip-path="url(#clip900)" d="M1735.22 1517.37 Q1731.61 1517.37 1729.78 1520.93 Q1727.97 1524.47 1727.97 1531.6 Q1727.97 1538.71 1729.78 1542.27 Q1731.61 1545.82 1735.22 1545.82 Q1738.85 1545.82 1740.66 1542.27 Q1742.49 1538.71 1742.49 1531.6 Q1742.49 1524.47 1740.66 1520.93 Q1738.85 1517.37 1735.22 1517.37 M1735.22 1513.66 Q1741.03 1513.66 1744.09 1518.27 Q1747.16 1522.85 1747.16 1531.6 Q1747.16 1540.33 1744.09 1544.94 Q1741.03 1549.52 1735.22 1549.52 Q1729.41 1549.52 1726.33 1544.94 Q1723.28 1540.33 1723.28 1531.6 Q1723.28 1522.85 1726.33 1518.27 Q1729.41 1513.66 1735.22 1513.66 Z" fill="#000000" fill-rule="nonzero" fill-opacity="1" /><path clip-path="url(#clip900)" d="M1755.38 1542.97 L1760.27 1542.97 L1760.27 1548.85 L1755.38 1548.85 L1755.38 1542.97 Z" fill="#000000" fill-rule="nonzero" fill-opacity="1" /><path clip-path="url(#clip900)" d="M1769.27 1514.29 L1791.49 1514.29 L1791.49 1516.28 L1778.95 1548.85 L1774.06 1548.85 L1785.87 1518.22 L1769.27 1518.22 L1769.27 1514.29 Z" fill="#000000" fill-rule="nonzero" fill-opacity="1" /><path clip-path="url(#clip900)" d="M1800.66 1514.29 L1819.02 1514.29 L1819.02 1518.22 L1804.94 1518.22 L1804.94 1526.7 Q1805.96 1526.35 1806.98 1526.19 Q1808 1526 1809.02 1526 Q1814.8 1526 1818.18 1529.17 Q1821.56 1532.34 1821.56 1537.76 Q1821.56 1543.34 1818.09 1546.44 Q1814.62 1549.52 1808.3 1549.52 Q1806.12 1549.52 1803.85 1549.15 Q1801.61 1548.78 1799.2 1548.04 L1799.2 1543.34 Q1801.28 1544.47 1803.51 1545.03 Q1805.73 1545.58 1808.21 1545.58 Q1812.21 1545.58 1814.55 1543.48 Q1816.89 1541.37 1816.89 1537.76 Q1816.89 1534.15 1814.55 1532.04 Q1812.21 1529.94 1808.21 1529.94 Q1806.33 1529.94 1804.46 1530.35 Q1802.6 1530.77 1800.66 1531.65 L1800.66 1514.29 Z" fill="#000000" fill-rule="nonzero" fill-opacity="1" /><path clip-path="url(#clip900)" d="M2242.65 1544.91 L2250.29 1544.91 L2250.29 1518.55 L2241.98 1520.21 L2241.98 1515.95 L2250.24 1514.29 L2254.92 1514.29 L2254.92 1544.91 L2262.56 1544.91 L2262.56 1548.85 L2242.65 1548.85 L2242.65 1544.91 Z" fill="#000000" fill-rule="nonzero" fill-opacity="1" /><path clip-path="url(#clip900)" d="M2272 1542.97 L2276.88 1542.97 L2276.88 1548.85 L2272 1548.85 L2272 1542.97 Z" fill="#000000" fill-rule="nonzero" fill-opacity="1" /><path clip-path="url(#clip900)" d="M2297.07 1517.37 Q2293.46 1517.37 2291.63 1520.93 Q2289.82 1524.47 2289.82 1531.6 Q2289.82 1538.71 2291.63 1542.27 Q2293.46 1545.82 2297.07 1545.82 Q2300.7 1545.82 2302.51 1542.27 Q2304.34 1538.71 2304.34 1531.6 Q2304.34 1524.47 2302.51 1520.93 Q2300.7 1517.37 2297.07 1517.37 M2297.07 1513.66 Q2302.88 1513.66 2305.94 1518.27 Q2309.01 1522.85 2309.01 1531.6 Q2309.01 1540.33 2305.94 1544.94 Q2302.88 1549.52 2297.07 1549.52 Q2291.26 1549.52 2288.18 1544.94 Q2285.13 1540.33 2285.13 1531.6 Q2285.13 1522.85 2288.18 1518.27 Q2291.26 1513.66 2297.07 1513.66 Z" fill="#000000" fill-rule="nonzero" fill-opacity="1" /><path clip-path="url(#clip900)" d="M2327.23 1517.37 Q2323.62 1517.37 2321.79 1520.93 Q2319.99 1524.47 2319.99 1531.6 Q2319.99 1538.71 2321.79 1542.27 Q2323.62 1545.82 2327.23 1545.82 Q2330.87 1545.82 2332.67 1542.27 Q2334.5 1538.71 2334.5 1531.6 Q2334.5 1524.47 2332.67 1520.93 Q2330.87 1517.37 2327.23 1517.37 M2327.23 1513.66 Q2333.04 1513.66 2336.1 1518.27 Q2339.18 1522.85 2339.18 1531.6 Q2339.18 1540.33 2336.1 1544.94 Q2333.04 1549.52 2327.23 1549.52 Q2321.42 1549.52 2318.34 1544.94 Q2315.29 1540.33 2315.29 1531.6 Q2315.29 1522.85 2318.34 1518.27 Q2321.42 1513.66 2327.23 1513.66 Z" fill="#000000" fill-rule="nonzero" fill-opacity="1" /><polyline clip-path="url(#clip900)" style="stroke:#000000; stroke-linecap:round; stroke-linejoin:round; stroke-width:4; stroke-opacity:1; fill:none" points="155.765,1486.45 155.765,47.2441 "/>
<polyline clip-path="url(#clip900)" style="stroke:#000000; stroke-linecap:round; stroke-linejoin:round; stroke-width:4; stroke-opacity:1; fill:none" points="155.765,1335.06 174.663,1335.06 "/>
<polyline clip-path="url(#clip900)" style="stroke:#000000; stroke-linecap:round; stroke-linejoin:round; stroke-width:4; stroke-opacity:1; fill:none" points="155.765,1072.42 174.663,1072.42 "/>
<polyline clip-path="url(#clip900)" style="stroke:#000000; stroke-linecap:round; stroke-linejoin:round; stroke-width:4; stroke-opacity:1; fill:none" points="155.765,809.776 174.663,809.776 "/>
<polyline clip-path="url(#clip900)" style="stroke:#000000; stroke-linecap:round; stroke-linejoin:round; stroke-width:4; stroke-opacity:1; fill:none" points="155.765,547.134 174.663,547.134 "/>
<polyline clip-path="url(#clip900)" style="stroke:#000000; stroke-linecap:round; stroke-linejoin:round; stroke-width:4; stroke-opacity:1; fill:none" points="155.765,284.493 174.663,284.493 "/>
<path clip-path="url(#clip900)" d="M63.5847 1320.86 Q59.9736 1320.86 58.1449 1324.42 Q56.3393 1327.96 56.3393 1335.09 Q56.3393 1342.2 58.1449 1345.76 Q59.9736 1349.31 63.5847 1349.31 Q67.2189 1349.31 69.0244 1345.76 Q70.8531 1342.2 70.8531 1335.09 Q70.8531 1327.96 69.0244 1324.42 Q67.2189 1320.86 63.5847 1320.86 M63.5847 1317.15 Q69.3948 1317.15 72.4503 1321.76 Q75.529 1326.34 75.529 1335.09 Q75.529 1343.82 72.4503 1348.43 Q69.3948 1353.01 63.5847 1353.01 Q57.7745 1353.01 54.6958 1348.43 Q51.6403 1343.82 51.6403 1335.09 Q51.6403 1326.34 54.6958 1321.76 Q57.7745 1317.15 63.5847 1317.15 Z" fill="#000000" fill-rule="nonzero" fill-opacity="1" /><path clip-path="url(#clip900)" d="M83.7466 1346.46 L88.6308 1346.46 L88.6308 1352.34 L83.7466 1352.34 L83.7466 1346.46 Z" fill="#000000" fill-rule="nonzero" fill-opacity="1" /><path clip-path="url(#clip900)" d="M98.8622 1317.78 L117.219 1317.78 L117.219 1321.71 L103.145 1321.71 L103.145 1330.19 Q104.163 1329.84 105.182 1329.68 Q106.2 1329.49 107.219 1329.49 Q113.006 1329.49 116.385 1332.66 Q119.765 1335.83 119.765 1341.25 Q119.765 1346.83 116.293 1349.93 Q112.82 1353.01 106.501 1353.01 Q104.325 1353.01 102.057 1352.64 Q99.8113 1352.27 97.4039 1351.53 L97.4039 1346.83 Q99.4872 1347.96 101.709 1348.52 Q103.932 1349.07 106.408 1349.07 Q110.413 1349.07 112.751 1346.97 Q115.089 1344.86 115.089 1341.25 Q115.089 1337.64 112.751 1335.53 Q110.413 1333.43 106.408 1333.43 Q104.534 1333.43 102.659 1333.84 Q100.807 1334.26 98.8622 1335.14 L98.8622 1317.78 Z" fill="#000000" fill-rule="nonzero" fill-opacity="1" /><path clip-path="url(#clip900)" d="M53.3995 1085.76 L61.0384 1085.76 L61.0384 1059.4 L52.7282 1061.06 L52.7282 1056.8 L60.9921 1055.14 L65.668 1055.14 L65.668 1085.76 L73.3068 1085.76 L73.3068 1089.7 L53.3995 1089.7 L53.3995 1085.76 Z" fill="#000000" fill-rule="nonzero" fill-opacity="1" /><path clip-path="url(#clip900)" d="M82.7512 1083.82 L87.6354 1083.82 L87.6354 1089.7 L82.7512 1089.7 L82.7512 1083.82 Z" fill="#000000" fill-rule="nonzero" fill-opacity="1" /><path clip-path="url(#clip900)" d="M107.821 1058.22 Q104.209 1058.22 102.381 1061.78 Q100.575 1065.32 100.575 1072.45 Q100.575 1079.56 102.381 1083.12 Q104.209 1086.66 107.821 1086.66 Q111.455 1086.66 113.26 1083.12 Q115.089 1079.56 115.089 1072.45 Q115.089 1065.32 113.26 1061.78 Q111.455 1058.22 107.821 1058.22 M107.821 1054.51 Q113.631 1054.51 116.686 1059.12 Q119.765 1063.7 119.765 1072.45 Q119.765 1081.18 116.686 1085.78 Q113.631 1090.37 107.821 1090.37 Q102.01 1090.37 98.9317 1085.78 Q95.8761 1081.18 95.8761 1072.45 Q95.8761 1063.7 98.9317 1059.12 Q102.01 1054.51 107.821 1054.51 Z" fill="#000000" fill-rule="nonzero" fill-opacity="1" /><path clip-path="url(#clip900)" d="M54.3949 823.121 L62.0337 823.121 L62.0337 796.755 L53.7236 798.422 L53.7236 794.162 L61.9874 792.496 L66.6633 792.496 L66.6633 823.121 L74.3022 823.121 L74.3022 827.056 L54.3949 827.056 L54.3949 823.121 Z" fill="#000000" fill-rule="nonzero" fill-opacity="1" /><path clip-path="url(#clip900)" d="M83.7466 821.176 L88.6308 821.176 L88.6308 827.056 L83.7466 827.056 L83.7466 821.176 Z" fill="#000000" fill-rule="nonzero" fill-opacity="1" /><path clip-path="url(#clip900)" d="M98.8622 792.496 L117.219 792.496 L117.219 796.431 L103.145 796.431 L103.145 804.903 Q104.163 804.556 105.182 804.394 Q106.2 804.209 107.219 804.209 Q113.006 804.209 116.385 807.38 Q119.765 810.551 119.765 815.968 Q119.765 821.546 116.293 824.648 Q112.82 827.727 106.501 827.727 Q104.325 827.727 102.057 827.357 Q99.8113 826.986 97.4039 826.246 L97.4039 821.546 Q99.4872 822.681 101.709 823.236 Q103.932 823.792 106.408 823.792 Q110.413 823.792 112.751 821.685 Q115.089 819.579 115.089 815.968 Q115.089 812.357 112.751 810.25 Q110.413 808.144 106.408 808.144 Q104.534 808.144 102.659 808.56 Q100.807 808.977 98.8622 809.857 L98.8622 792.496 Z" fill="#000000" fill-rule="nonzero" fill-opacity="1" /><path clip-path="url(#clip900)" d="M56.6171 560.479 L72.9365 560.479 L72.9365 564.414 L50.9921 564.414 L50.9921 560.479 Q53.6541 557.725 58.2375 553.095 Q62.8439 548.442 64.0245 547.1 Q66.2698 544.577 67.1494 542.84 Q68.0522 541.081 68.0522 539.391 Q68.0522 536.637 66.1078 534.901 Q64.1865 533.165 61.0847 533.165 Q58.8856 533.165 56.4319 533.928 Q54.0014 534.692 51.2236 536.243 L51.2236 531.521 Q54.0477 530.387 56.5014 529.808 Q58.955 529.229 60.9921 529.229 Q66.3624 529.229 69.5568 531.915 Q72.7513 534.6 72.7513 539.09 Q72.7513 541.22 71.9411 543.141 Q71.1541 545.04 69.0476 547.632 Q68.4689 548.303 65.367 551.521 Q62.2652 554.715 56.6171 560.479 Z" fill="#000000" fill-rule="nonzero" fill-opacity="1" /><path clip-path="url(#clip900)" d="M82.7512 558.535 L87.6354 558.535 L87.6354 564.414 L82.7512 564.414 L82.7512 558.535 Z" fill="#000000" fill-rule="nonzero" fill-opacity="1" /><path clip-path="url(#clip900)" d="M107.821 532.933 Q104.209 532.933 102.381 536.498 Q100.575 540.04 100.575 547.169 Q100.575 554.276 102.381 557.84 Q104.209 561.382 107.821 561.382 Q111.455 561.382 113.26 557.84 Q115.089 554.276 115.089 547.169 Q115.089 540.04 113.26 536.498 Q111.455 532.933 107.821 532.933 M107.821 529.229 Q113.631 529.229 116.686 533.836 Q119.765 538.419 119.765 547.169 Q119.765 555.896 116.686 560.502 Q113.631 565.086 107.821 565.086 Q102.01 565.086 98.9317 560.502 Q95.8761 555.896 95.8761 547.169 Q95.8761 538.419 98.9317 533.836 Q102.01 529.229 107.821 529.229 Z" fill="#000000" fill-rule="nonzero" fill-opacity="1" /><path clip-path="url(#clip900)" d="M57.6125 297.838 L73.9318 297.838 L73.9318 301.773 L51.9875 301.773 L51.9875 297.838 Q54.6495 295.083 59.2328 290.454 Q63.8393 285.801 65.0198 284.458 Q67.2652 281.935 68.1448 280.199 Q69.0476 278.44 69.0476 276.75 Q69.0476 273.996 67.1032 272.259 Q65.1819 270.523 62.08 270.523 Q59.881 270.523 57.4273 271.287 Q54.9967 272.051 52.219 273.602 L52.219 268.88 Q55.043 267.746 57.4967 267.167 Q59.9504 266.588 61.9874 266.588 Q67.3578 266.588 70.5522 269.273 Q73.7466 271.959 73.7466 276.449 Q73.7466 278.579 72.9365 280.5 Q72.1494 282.398 70.0429 284.991 Q69.4642 285.662 66.3624 288.88 Q63.2606 292.074 57.6125 297.838 Z" fill="#000000" fill-rule="nonzero" fill-opacity="1" /><path clip-path="url(#clip900)" d="M83.7466 295.894 L88.6308 295.894 L88.6308 301.773 L83.7466 301.773 L83.7466 295.894 Z" fill="#000000" fill-rule="nonzero" fill-opacity="1" /><path clip-path="url(#clip900)" d="M98.8622 267.213 L117.219 267.213 L117.219 271.148 L103.145 271.148 L103.145 279.621 Q104.163 279.273 105.182 279.111 Q106.2 278.926 107.219 278.926 Q113.006 278.926 116.385 282.097 Q119.765 285.269 119.765 290.685 Q119.765 296.264 116.293 299.366 Q112.82 302.444 106.501 302.444 Q104.325 302.444 102.057 302.074 Q99.8113 301.704 97.4039 300.963 L97.4039 296.264 Q99.4872 297.398 101.709 297.954 Q103.932 298.509 106.408 298.509 Q110.413 298.509 112.751 296.403 Q115.089 294.296 115.089 290.685 Q115.089 287.074 112.751 284.968 Q110.413 282.861 106.408 282.861 Q104.534 282.861 102.659 283.278 Q100.807 283.695 98.8622 284.574 L98.8622 267.213 Z" fill="#000000" fill-rule="nonzero" fill-opacity="1" /><polyline clip-path="url(#clip901)" style="stroke:#009af9; stroke-linecap:round; stroke-linejoin:round; stroke-width:12; stroke-opacity:1; fill:none" points="217.944,1335.06 425.207,1325.21 632.47,1310.3 839.734,1287.47 1047,1278.32 1254.26,1280.34 1461.52,1241.58 1668.79,1213.83 1876.05,1237 2083.31,1254.1 2290.58,1305.74 "/>
<polyline clip-path="url(#clip901)" style="stroke:#000000; stroke-linecap:round; stroke-linejoin:round; stroke-width:12; stroke-opacity:1; fill:none" points="217.944,1335.06 217.944,1335.06 "/>
<polyline clip-path="url(#clip901)" style="stroke:#000000; stroke-linecap:round; stroke-linejoin:round; stroke-width:12; stroke-opacity:1; fill:none" points="425.207,1394.56 425.207,1217.54 "/>
<polyline clip-path="url(#clip901)" style="stroke:#000000; stroke-linecap:round; stroke-linejoin:round; stroke-width:12; stroke-opacity:1; fill:none" points="632.47,1415.16 632.47,1083.67 "/>
<polyline clip-path="url(#clip901)" style="stroke:#000000; stroke-linecap:round; stroke-linejoin:round; stroke-width:12; stroke-opacity:1; fill:none" points="839.734,1415.01 839.734,1008.83 "/>
<polyline clip-path="url(#clip901)" style="stroke:#000000; stroke-linecap:round; stroke-linejoin:round; stroke-width:12; stroke-opacity:1; fill:none" points="1047,1392.46 1047,993.906 "/>
<polyline clip-path="url(#clip901)" style="stroke:#000000; stroke-linecap:round; stroke-linejoin:round; stroke-width:12; stroke-opacity:1; fill:none" points="1254.26,1399.87 1254.26,911.642 "/>
<polyline clip-path="url(#clip901)" style="stroke:#000000; stroke-linecap:round; stroke-linejoin:round; stroke-width:12; stroke-opacity:1; fill:none" points="1461.52,1390.98 1461.52,616.109 "/>
<polyline clip-path="url(#clip901)" style="stroke:#000000; stroke-linecap:round; stroke-linejoin:round; stroke-width:12; stroke-opacity:1; fill:none" points="1668.79,1352.68 1668.79,242.646 "/>
<polyline clip-path="url(#clip901)" style="stroke:#000000; stroke-linecap:round; stroke-linejoin:round; stroke-width:12; stroke-opacity:1; fill:none" points="1876.05,1349.61 1876.05,87.9763 "/>
<polyline clip-path="url(#clip901)" style="stroke:#000000; stroke-linecap:round; stroke-linejoin:round; stroke-width:12; stroke-opacity:1; fill:none" points="2083.31,1372.41 2083.31,139.7 "/>
<polyline clip-path="url(#clip901)" style="stroke:#000000; stroke-linecap:round; stroke-linejoin:round; stroke-width:12; stroke-opacity:1; fill:none" points="2290.58,1437.84 2290.58,218.38 "/>
<line clip-path="url(#clip901)" x1="233.944" y1="1335.06" x2="201.944" y2="1335.06" style="stroke:#000000; stroke-width:12; stroke-opacity:1"/>
<line clip-path="url(#clip901)" x1="233.944" y1="1335.06" x2="201.944" y2="1335.06" style="stroke:#000000; stroke-width:12; stroke-opacity:1"/>
<line clip-path="url(#clip901)" x1="441.207" y1="1394.56" x2="409.207" y2="1394.56" style="stroke:#000000; stroke-width:12; stroke-opacity:1"/>
<line clip-path="url(#clip901)" x1="441.207" y1="1217.54" x2="409.207" y2="1217.54" style="stroke:#000000; stroke-width:12; stroke-opacity:1"/>
<line clip-path="url(#clip901)" x1="648.47" y1="1415.16" x2="616.47" y2="1415.16" style="stroke:#000000; stroke-width:12; stroke-opacity:1"/>
<line clip-path="url(#clip901)" x1="648.47" y1="1083.67" x2="616.47" y2="1083.67" style="stroke:#000000; stroke-width:12; stroke-opacity:1"/>
<line clip-path="url(#clip901)" x1="855.734" y1="1415.01" x2="823.734" y2="1415.01" style="stroke:#000000; stroke-width:12; stroke-opacity:1"/>
<line clip-path="url(#clip901)" x1="855.734" y1="1008.83" x2="823.734" y2="1008.83" style="stroke:#000000; stroke-width:12; stroke-opacity:1"/>
<line clip-path="url(#clip901)" x1="1063" y1="1392.46" x2="1031" y2="1392.46" style="stroke:#000000; stroke-width:12; stroke-opacity:1"/>
<line clip-path="url(#clip901)" x1="1063" y1="993.906" x2="1031" y2="993.906" style="stroke:#000000; stroke-width:12; stroke-opacity:1"/>
<line clip-path="url(#clip901)" x1="1270.26" y1="1399.87" x2="1238.26" y2="1399.87" style="stroke:#000000; stroke-width:12; stroke-opacity:1"/>
<line clip-path="url(#clip901)" x1="1270.26" y1="911.642" x2="1238.26" y2="911.642" style="stroke:#000000; stroke-width:12; stroke-opacity:1"/>
<line clip-path="url(#clip901)" x1="1477.52" y1="1390.98" x2="1445.52" y2="1390.98" style="stroke:#000000; stroke-width:12; stroke-opacity:1"/>
<line clip-path="url(#clip901)" x1="1477.52" y1="616.109" x2="1445.52" y2="616.109" style="stroke:#000000; stroke-width:12; stroke-opacity:1"/>
<line clip-path="url(#clip901)" x1="1684.79" y1="1352.68" x2="1652.79" y2="1352.68" style="stroke:#000000; stroke-width:12; stroke-opacity:1"/>
<line clip-path="url(#clip901)" x1="1684.79" y1="242.646" x2="1652.79" y2="242.646" style="stroke:#000000; stroke-width:12; stroke-opacity:1"/>
<line clip-path="url(#clip901)" x1="1892.05" y1="1349.61" x2="1860.05" y2="1349.61" style="stroke:#000000; stroke-width:12; stroke-opacity:1"/>
<line clip-path="url(#clip901)" x1="1892.05" y1="87.9763" x2="1860.05" y2="87.9763" style="stroke:#000000; stroke-width:12; stroke-opacity:1"/>
<line clip-path="url(#clip901)" x1="2099.31" y1="1372.41" x2="2067.31" y2="1372.41" style="stroke:#000000; stroke-width:12; stroke-opacity:1"/>
<line clip-path="url(#clip901)" x1="2099.31" y1="139.7" x2="2067.31" y2="139.7" style="stroke:#000000; stroke-width:12; stroke-opacity:1"/>
<line clip-path="url(#clip901)" x1="2306.58" y1="1437.84" x2="2274.58" y2="1437.84" style="stroke:#000000; stroke-width:12; stroke-opacity:1"/>
<line clip-path="url(#clip901)" x1="2306.58" y1="218.38" x2="2274.58" y2="218.38" style="stroke:#000000; stroke-width:12; stroke-opacity:1"/>
<polyline clip-path="url(#clip901)" style="stroke:#e26f46; stroke-linecap:round; stroke-linejoin:round; stroke-width:12; stroke-opacity:1; fill:none" points="217.944,1335.06 425.207,1337.9 632.47,1312.23 839.734,1267.43 1047,1218.55 1254.26,1175.24 1461.52,1155.61 1668.79,1148.23 1876.05,1137.34 2083.31,1135.97 2290.58,1088.3 "/>
<polyline clip-path="url(#clip901)" style="stroke:#000000; stroke-linecap:round; stroke-linejoin:round; stroke-width:12; stroke-opacity:1; fill:none" points="217.944,1335.06 217.944,1335.06 "/>
<polyline clip-path="url(#clip901)" style="stroke:#000000; stroke-linecap:round; stroke-linejoin:round; stroke-width:12; stroke-opacity:1; fill:none" points="425.207,1371.16 425.207,1290.81 "/>
<polyline clip-path="url(#clip901)" style="stroke:#000000; stroke-linecap:round; stroke-linejoin:round; stroke-width:12; stroke-opacity:1; fill:none" points="632.47,1354.23 632.47,1211.92 "/>
<polyline clip-path="url(#clip901)" style="stroke:#000000; stroke-linecap:round; stroke-linejoin:round; stroke-width:12; stroke-opacity:1; fill:none" points="839.734,1353.86 839.734,1084.48 "/>
<polyline clip-path="url(#clip901)" style="stroke:#000000; stroke-linecap:round; stroke-linejoin:round; stroke-width:12; stroke-opacity:1; fill:none" points="1047,1333.05 1047,960.047 "/>
<polyline clip-path="url(#clip901)" style="stroke:#000000; stroke-linecap:round; stroke-linejoin:round; stroke-width:12; stroke-opacity:1; fill:none" points="1254.26,1332.17 1254.26,874.041 "/>
<polyline clip-path="url(#clip901)" style="stroke:#000000; stroke-linecap:round; stroke-linejoin:round; stroke-width:12; stroke-opacity:1; fill:none" points="1461.52,1316.38 1461.52,814.182 "/>
<polyline clip-path="url(#clip901)" style="stroke:#000000; stroke-linecap:round; stroke-linejoin:round; stroke-width:12; stroke-opacity:1; fill:none" points="1668.79,1338.63 1668.79,850.343 "/>
<polyline clip-path="url(#clip901)" style="stroke:#000000; stroke-linecap:round; stroke-linejoin:round; stroke-width:12; stroke-opacity:1; fill:none" points="1876.05,1362.31 1876.05,888.746 "/>
<polyline clip-path="url(#clip901)" style="stroke:#000000; stroke-linecap:round; stroke-linejoin:round; stroke-width:12; stroke-opacity:1; fill:none" points="2083.31,1403.73 2083.31,657.509 "/>
<polyline clip-path="url(#clip901)" style="stroke:#000000; stroke-linecap:round; stroke-linejoin:round; stroke-width:12; stroke-opacity:1; fill:none" points="2290.58,1445.72 2290.58,358.732 "/>
<line clip-path="url(#clip901)" x1="233.944" y1="1335.06" x2="201.944" y2="1335.06" style="stroke:#000000; stroke-width:12; stroke-opacity:1"/>
<line clip-path="url(#clip901)" x1="233.944" y1="1335.06" x2="201.944" y2="1335.06" style="stroke:#000000; stroke-width:12; stroke-opacity:1"/>
<line clip-path="url(#clip901)" x1="441.207" y1="1371.16" x2="409.207" y2="1371.16" style="stroke:#000000; stroke-width:12; stroke-opacity:1"/>
<line clip-path="url(#clip901)" x1="441.207" y1="1290.81" x2="409.207" y2="1290.81" style="stroke:#000000; stroke-width:12; stroke-opacity:1"/>
<line clip-path="url(#clip901)" x1="648.47" y1="1354.23" x2="616.47" y2="1354.23" style="stroke:#000000; stroke-width:12; stroke-opacity:1"/>
<line clip-path="url(#clip901)" x1="648.47" y1="1211.92" x2="616.47" y2="1211.92" style="stroke:#000000; stroke-width:12; stroke-opacity:1"/>
<line clip-path="url(#clip901)" x1="855.734" y1="1353.86" x2="823.734" y2="1353.86" style="stroke:#000000; stroke-width:12; stroke-opacity:1"/>
<line clip-path="url(#clip901)" x1="855.734" y1="1084.48" x2="823.734" y2="1084.48" style="stroke:#000000; stroke-width:12; stroke-opacity:1"/>
<line clip-path="url(#clip901)" x1="1063" y1="1333.05" x2="1031" y2="1333.05" style="stroke:#000000; stroke-width:12; stroke-opacity:1"/>
<line clip-path="url(#clip901)" x1="1063" y1="960.047" x2="1031" y2="960.047" style="stroke:#000000; stroke-width:12; stroke-opacity:1"/>
<line clip-path="url(#clip901)" x1="1270.26" y1="1332.17" x2="1238.26" y2="1332.17" style="stroke:#000000; stroke-width:12; stroke-opacity:1"/>
<line clip-path="url(#clip901)" x1="1270.26" y1="874.041" x2="1238.26" y2="874.041" style="stroke:#000000; stroke-width:12; stroke-opacity:1"/>
<line clip-path="url(#clip901)" x1="1477.52" y1="1316.38" x2="1445.52" y2="1316.38" style="stroke:#000000; stroke-width:12; stroke-opacity:1"/>
<line clip-path="url(#clip901)" x1="1477.52" y1="814.182" x2="1445.52" y2="814.182" style="stroke:#000000; stroke-width:12; stroke-opacity:1"/>
<line clip-path="url(#clip901)" x1="1684.79" y1="1338.63" x2="1652.79" y2="1338.63" style="stroke:#000000; stroke-width:12; stroke-opacity:1"/>
<line clip-path="url(#clip901)" x1="1684.79" y1="850.343" x2="1652.79" y2="850.343" style="stroke:#000000; stroke-width:12; stroke-opacity:1"/>
<line clip-path="url(#clip901)" x1="1892.05" y1="1362.31" x2="1860.05" y2="1362.31" style="stroke:#000000; stroke-width:12; stroke-opacity:1"/>
<line clip-path="url(#clip901)" x1="1892.05" y1="888.746" x2="1860.05" y2="888.746" style="stroke:#000000; stroke-width:12; stroke-opacity:1"/>
<line clip-path="url(#clip901)" x1="2099.31" y1="1403.73" x2="2067.31" y2="1403.73" style="stroke:#000000; stroke-width:12; stroke-opacity:1"/>
<line clip-path="url(#clip901)" x1="2099.31" y1="657.509" x2="2067.31" y2="657.509" style="stroke:#000000; stroke-width:12; stroke-opacity:1"/>
<line clip-path="url(#clip901)" x1="2306.58" y1="1445.72" x2="2274.58" y2="1445.72" style="stroke:#000000; stroke-width:12; stroke-opacity:1"/>
<line clip-path="url(#clip901)" x1="2306.58" y1="358.732" x2="2274.58" y2="358.732" style="stroke:#000000; stroke-width:12; stroke-opacity:1"/>
</svg>
