<?xml version="1.0" encoding="utf-8"?>
<svg xmlns="http://www.w3.org/2000/svg" xmlns:xlink="http://www.w3.org/1999/xlink" width="600" height="400" viewBox="0 0 2400 1600">
<defs>
  <clipPath id="clip840">
    <rect x="0" y="0" width="2400" height="1600"/>
  </clipPath>
</defs>
<path clip-path="url(#clip840)" d="M0 1600 L2400 1600 L2400 0 L0 0  Z" fill="#ffffff" fill-rule="evenodd" fill-opacity="1"/>
<defs>
  <clipPath id="clip841">
    <rect x="112" y="47" width="2242" height="1440"/>
  </clipPath>
</defs>
<path clip-path="url(#clip840)" d="M112.177 1486.45 L2352.76 1486.45 L2352.76 47.2441 L112.177 47.2441  Z" fill="#ffffff" fill-rule="evenodd" fill-opacity="1"/>
<polyline clip-path="url(#clip841)" style="stroke:#000000; stroke-linecap:round; stroke-linejoin:round; stroke-width:2; stroke-opacity:0.1; fill:none" points="175.59,1486.45 175.59,47.2441 "/>
<polyline clip-path="url(#clip841)" style="stroke:#000000; stroke-linecap:round; stroke-linejoin:round; stroke-width:2; stroke-opacity:0.1; fill:none" points="704.028,1486.45 704.028,47.2441 "/>
<polyline clip-path="url(#clip841)" style="stroke:#000000; stroke-linecap:round; stroke-linejoin:round; stroke-width:2; stroke-opacity:0.1; fill:none" points="1232.47,1486.45 1232.47,47.2441 "/>
<polyline clip-path="url(#clip841)" style="stroke:#000000; stroke-linecap:round; stroke-linejoin:round; stroke-width:2; stroke-opacity:0.1; fill:none" points="1760.9,1486.45 1760.9,47.2441 "/>
<polyline clip-path="url(#clip841)" style="stroke:#000000; stroke-linecap:round; stroke-linejoin:round; stroke-width:2; stroke-opacity:0.1; fill:none" points="2289.34,1486.45 2289.34,47.2441 "/>
<polyline clip-path="url(#clip841)" style="stroke:#000000; stroke-linecap:round; stroke-linejoin:round; stroke-width:2; stroke-opacity:0.1; fill:none" points="112.177,1464 2352.76,1464 "/>
<polyline clip-path="url(#clip841)" style="stroke:#000000; stroke-linecap:round; stroke-linejoin:round; stroke-width:2; stroke-opacity:0.1; fill:none" points="112.177,1138.84 2352.76,1138.84 "/>
<polyline clip-path="url(#clip841)" style="stroke:#000000; stroke-linecap:round; stroke-linejoin:round; stroke-width:2; stroke-opacity:0.1; fill:none" points="112.177,813.673 2352.76,813.673 "/>
<polyline clip-path="url(#clip841)" style="stroke:#000000; stroke-linecap:round; stroke-linejoin:round; stroke-width:2; stroke-opacity:0.1; fill:none" points="112.177,488.509 2352.76,488.509 "/>
<polyline clip-path="url(#clip841)" style="stroke:#000000; stroke-linecap:round; stroke-linejoin:round; stroke-width:2; stroke-opacity:0.1; fill:none" points="112.177,163.344 2352.76,163.344 "/>
<polyline clip-path="url(#clip840)" style="stroke:#000000; stroke-linecap:round; stroke-linejoin:round; stroke-width:4; stroke-opacity:1; fill:none" points="112.177,1486.45 2352.76,1486.45 "/>
<polyline clip-path="url(#clip840)" style="stroke:#000000; stroke-linecap:round; stroke-linejoin:round; stroke-width:4; stroke-opacity:1; fill:none" points="175.59,1486.45 175.59,1467.55 "/>
<polyline clip-path="url(#clip840)" style="stroke:#000000; stroke-linecap:round; stroke-linejoin:round; stroke-width:4; stroke-opacity:1; fill:none" points="704.028,1486.45 704.028,1467.55 "/>
<polyline clip-path="url(#clip840)" style="stroke:#000000; stroke-linecap:round; stroke-linejoin:round; stroke-width:4; stroke-opacity:1; fill:none" points="1232.47,1486.45 1232.47,1467.55 "/>
<polyline clip-path="url(#clip840)" style="stroke:#000000; stroke-linecap:round; stroke-linejoin:round; stroke-width:4; stroke-opacity:1; fill:none" points="1760.9,1486.45 1760.9,1467.55 "/>
<polyline clip-path="url(#clip840)" style="stroke:#000000; stroke-linecap:round; stroke-linejoin:round; stroke-width:4; stroke-opacity:1; fill:none" points="2289.34,1486.45 2289.34,1467.55 "/>
<path clip-path="url(#clip840)" d="M152.974 1517.37 Q149.363 1517.37 147.534 1520.93 Q145.729 1524.47 145.729 1531.6 Q145.729 1538.71 147.534 1542.27 Q149.363 1545.82 152.974 1545.82 Q156.608 1545.82 158.414 1542.27 Q160.243 1538.71 160.243 1531.6 Q160.243 1524.47 158.414 1520.93 Q156.608 1517.37 152.974 1517.37 M152.974 1513.66 Q158.784 1513.66 161.84 1518.27 Q164.919 1522.85 164.919 1531.6 Q164.919 1540.33 161.84 1544.94 Q158.784 1549.52 152.974 1549.52 Q147.164 1549.52 144.085 1544.94 Q141.03 1540.33 141.03 1531.6 Q141.03 1522.85 144.085 1518.27 Q147.164 1513.66 152.974 1513.66 Z" fill="#000000" fill-rule="nonzero" fill-opacity="1" /><path clip-path="url(#clip840)" d="M173.136 1542.97 L178.02 1542.97 L178.02 1548.85 L173.136 1548.85 L173.136 1542.97 Z" fill="#000000" fill-rule="nonzero" fill-opacity="1" /><path clip-path="url(#clip840)" d="M198.205 1517.37 Q194.594 1517.37 192.766 1520.93 Q190.96 1524.47 190.96 1531.6 Q190.96 1538.71 192.766 1542.27 Q194.594 1545.82 198.205 1545.82 Q201.84 1545.82 203.645 1542.27 Q205.474 1538.71 205.474 1531.6 Q205.474 1524.47 203.645 1520.93 Q201.84 1517.37 198.205 1517.37 M198.205 1513.66 Q204.016 1513.66 207.071 1518.27 Q210.15 1522.85 210.15 1531.6 Q210.15 1540.33 207.071 1544.94 Q204.016 1549.52 198.205 1549.52 Q192.395 1549.52 189.317 1544.94 Q186.261 1540.33 186.261 1531.6 Q186.261 1522.85 189.317 1518.27 Q192.395 1513.66 198.205 1513.66 Z" fill="#000000" fill-rule="nonzero" fill-opacity="1" /><path clip-path="url(#clip840)" d="M675.764 1544.91 L692.084 1544.91 L692.084 1548.85 L670.139 1548.85 L670.139 1544.91 Q672.801 1542.16 677.385 1537.53 Q681.991 1532.88 683.172 1531.53 Q685.417 1529.01 686.297 1527.27 Q687.2 1525.51 687.2 1523.82 Q687.2 1521.07 685.255 1519.33 Q683.334 1517.6 680.232 1517.6 Q678.033 1517.6 675.579 1518.36 Q673.149 1519.13 670.371 1520.68 L670.371 1515.95 Q673.195 1514.82 675.649 1514.24 Q678.102 1513.66 680.139 1513.66 Q685.51 1513.66 688.704 1516.35 Q691.899 1519.03 691.899 1523.52 Q691.899 1525.65 691.088 1527.57 Q690.301 1529.47 688.195 1532.07 Q687.616 1532.74 684.514 1535.95 Q681.413 1539.15 675.764 1544.91 Z" fill="#000000" fill-rule="nonzero" fill-opacity="1" /><path clip-path="url(#clip840)" d="M701.899 1542.97 L706.783 1542.97 L706.783 1548.85 L701.899 1548.85 L701.899 1542.97 Z" fill="#000000" fill-rule="nonzero" fill-opacity="1" /><path clip-path="url(#clip840)" d="M717.014 1514.29 L735.371 1514.29 L735.371 1518.22 L721.297 1518.22 L721.297 1526.7 Q722.315 1526.35 723.334 1526.19 Q724.352 1526 725.371 1526 Q731.158 1526 734.537 1529.17 Q737.917 1532.34 737.917 1537.76 Q737.917 1543.34 734.445 1546.44 Q730.972 1549.52 724.653 1549.52 Q722.477 1549.52 720.209 1549.15 Q717.963 1548.78 715.556 1548.04 L715.556 1543.34 Q717.639 1544.47 719.861 1545.03 Q722.084 1545.58 724.56 1545.58 Q728.565 1545.58 730.903 1543.48 Q733.241 1541.37 733.241 1537.76 Q733.241 1534.15 730.903 1532.04 Q728.565 1529.94 724.56 1529.94 Q722.685 1529.94 720.81 1530.35 Q718.959 1530.77 717.014 1531.65 L717.014 1514.29 Z" fill="#000000" fill-rule="nonzero" fill-opacity="1" /><path clip-path="url(#clip840)" d="M1199.63 1514.29 L1217.99 1514.29 L1217.99 1518.22 L1203.91 1518.22 L1203.91 1526.7 Q1204.93 1526.35 1205.95 1526.19 Q1206.97 1526 1207.99 1526 Q1213.77 1526 1217.15 1529.17 Q1220.53 1532.34 1220.53 1537.76 Q1220.53 1543.34 1217.06 1546.44 Q1213.59 1549.52 1207.27 1549.52 Q1205.09 1549.52 1202.83 1549.15 Q1200.58 1548.78 1198.17 1548.04 L1198.17 1543.34 Q1200.26 1544.47 1202.48 1545.03 Q1204.7 1545.58 1207.18 1545.58 Q1211.18 1545.58 1213.52 1543.48 Q1215.86 1541.37 1215.86 1537.76 Q1215.86 1534.15 1213.52 1532.04 Q1211.18 1529.94 1207.18 1529.94 Q1205.3 1529.94 1203.43 1530.35 Q1201.58 1530.77 1199.63 1531.65 L1199.63 1514.29 Z" fill="#000000" fill-rule="nonzero" fill-opacity="1" /><path clip-path="url(#clip840)" d="M1229.75 1542.97 L1234.63 1542.97 L1234.63 1548.85 L1229.75 1548.85 L1229.75 1542.97 Z" fill="#000000" fill-rule="nonzero" fill-opacity="1" /><path clip-path="url(#clip840)" d="M1254.82 1517.37 Q1251.2 1517.37 1249.38 1520.93 Q1247.57 1524.47 1247.57 1531.6 Q1247.57 1538.71 1249.38 1542.27 Q1251.2 1545.82 1254.82 1545.82 Q1258.45 1545.82 1260.26 1542.27 Q1262.08 1538.71 1262.08 1531.6 Q1262.08 1524.47 1260.26 1520.93 Q1258.45 1517.37 1254.82 1517.37 M1254.82 1513.66 Q1260.63 1513.66 1263.68 1518.27 Q1266.76 1522.85 1266.76 1531.6 Q1266.76 1540.33 1263.68 1544.94 Q1260.63 1549.52 1254.82 1549.52 Q1249.01 1549.52 1245.93 1544.94 Q1242.87 1540.33 1242.87 1531.6 Q1242.87 1522.85 1245.93 1518.27 Q1249.01 1513.66 1254.82 1513.66 Z" fill="#000000" fill-rule="nonzero" fill-opacity="1" /><path clip-path="url(#clip840)" d="M1727.22 1514.29 L1749.45 1514.29 L1749.45 1516.28 L1736.9 1548.85 L1732.02 1548.85 L1743.82 1518.22 L1727.22 1518.22 L1727.22 1514.29 Z" fill="#000000" fill-rule="nonzero" fill-opacity="1" /><path clip-path="url(#clip840)" d="M1758.57 1542.97 L1763.45 1542.97 L1763.45 1548.85 L1758.57 1548.85 L1758.57 1542.97 Z" fill="#000000" fill-rule="nonzero" fill-opacity="1" /><path clip-path="url(#clip840)" d="M1773.68 1514.29 L1792.04 1514.29 L1792.04 1518.22 L1777.97 1518.22 L1777.97 1526.7 Q1778.98 1526.35 1780 1526.19 Q1781.02 1526 1782.04 1526 Q1787.83 1526 1791.21 1529.17 Q1794.59 1532.34 1794.59 1537.76 Q1794.59 1543.34 1791.11 1546.44 Q1787.64 1549.52 1781.32 1549.52 Q1779.15 1549.52 1776.88 1549.15 Q1774.63 1548.78 1772.22 1548.04 L1772.22 1543.34 Q1774.31 1544.47 1776.53 1545.03 Q1778.75 1545.58 1781.23 1545.58 Q1785.23 1545.58 1787.57 1543.48 Q1789.91 1541.37 1789.91 1537.76 Q1789.91 1534.15 1787.57 1532.04 Q1785.23 1529.94 1781.23 1529.94 Q1779.35 1529.94 1777.48 1530.35 Q1775.63 1530.77 1773.68 1531.65 L1773.68 1514.29 Z" fill="#000000" fill-rule="nonzero" fill-opacity="1" /><path clip-path="url(#clip840)" d="M2241.42 1544.91 L2249.05 1544.91 L2249.05 1518.55 L2240.74 1520.21 L2240.74 1515.95 L2249.01 1514.29 L2253.68 1514.29 L2253.68 1544.91 L2261.32 1544.91 L2261.32 1548.85 L2241.42 1548.85 L2241.42 1544.91 Z" fill="#000000" fill-rule="nonzero" fill-opacity="1" /><path clip-path="url(#clip840)" d="M2280.77 1517.37 Q2277.16 1517.37 2275.33 1520.93 Q2273.52 1524.47 2273.52 1531.6 Q2273.52 1538.71 2275.33 1542.27 Q2277.16 1545.82 2280.77 1545.82 Q2284.4 1545.82 2286.21 1542.27 Q2288.04 1538.71 2288.04 1531.6 Q2288.04 1524.47 2286.21 1520.93 Q2284.4 1517.37 2280.77 1517.37 M2280.77 1513.66 Q2286.58 1513.66 2289.63 1518.27 Q2292.71 1522.85 2292.71 1531.6 Q2292.71 1540.33 2289.63 1544.94 Q2286.58 1549.52 2280.77 1549.52 Q2274.96 1549.52 2271.88 1544.94 Q2268.82 1540.33 2268.82 1531.6 Q2268.82 1522.85 2271.88 1518.27 Q2274.96 1513.66 2280.77 1513.66 Z" fill="#000000" fill-rule="nonzero" fill-opacity="1" /><path clip-path="url(#clip840)" d="M2300.93 1542.97 L2305.81 1542.97 L2305.81 1548.85 L2300.93 1548.85 L2300.93 1542.97 Z" fill="#000000" fill-rule="nonzero" fill-opacity="1" /><path clip-path="url(#clip840)" d="M2326 1517.37 Q2322.39 1517.37 2320.56 1520.93 Q2318.75 1524.47 2318.75 1531.6 Q2318.75 1538.71 2320.56 1542.27 Q2322.39 1545.82 2326 1545.82 Q2329.63 1545.82 2331.44 1542.27 Q2333.27 1538.71 2333.27 1531.6 Q2333.27 1524.47 2331.44 1520.93 Q2329.63 1517.37 2326 1517.37 M2326 1513.66 Q2331.81 1513.66 2334.86 1518.27 Q2337.94 1522.85 2337.94 1531.6 Q2337.94 1540.33 2334.86 1544.94 Q2331.81 1549.52 2326 1549.52 Q2320.19 1549.52 2317.11 1544.94 Q2314.05 1540.33 2314.05 1531.6 Q2314.05 1522.85 2317.11 1518.27 Q2320.19 1513.66 2326 1513.66 Z" fill="#000000" fill-rule="nonzero" fill-opacity="1" /><polyline clip-path="url(#clip840)" style="stroke:#000000; stroke-linecap:round; stroke-linejoin:round; stroke-width:4; stroke-opacity:1; fill:none" points="112.177,1486.45 112.177,47.2441 "/>
<polyline clip-path="url(#clip840)" style="stroke:#000000; stroke-linecap:round; stroke-linejoin:round; stroke-width:4; stroke-opacity:1; fill:none" points="112.177,1464 131.075,1464 "/>
<polyline clip-path="url(#clip840)" style="stroke:#000000; stroke-linecap:round; stroke-linejoin:round; stroke-width:4; stroke-opacity:1; fill:none" points="112.177,1138.84 131.075,1138.84 "/>
<polyline clip-path="url(#clip840)" style="stroke:#000000; stroke-linecap:round; stroke-linejoin:round; stroke-width:4; stroke-opacity:1; fill:none" points="112.177,813.673 131.075,813.673 "/>
<polyline clip-path="url(#clip840)" style="stroke:#000000; stroke-linecap:round; stroke-linejoin:round; stroke-width:4; stroke-opacity:1; fill:none" points="112.177,488.509 131.075,488.509 "/>
<polyline clip-path="url(#clip840)" style="stroke:#000000; stroke-linecap:round; stroke-linejoin:round; stroke-width:4; stroke-opacity:1; fill:none" points="112.177,163.344 131.075,163.344 "/>
<path clip-path="url(#clip840)" d="M64.2328 1449.8 Q60.6217 1449.8 58.793 1453.37 Q56.9875 1456.91 56.9875 1464.04 Q56.9875 1471.14 58.793 1474.71 Q60.6217 1478.25 64.2328 1478.25 Q67.867 1478.25 69.6726 1474.71 Q71.5013 1471.14 71.5013 1464.04 Q71.5013 1456.91 69.6726 1453.37 Q67.867 1449.8 64.2328 1449.8 M64.2328 1446.1 Q70.0429 1446.1 73.0985 1450.7 Q76.1772 1455.29 76.1772 1464.04 Q76.1772 1472.76 73.0985 1477.37 Q70.0429 1481.95 64.2328 1481.95 Q58.4226 1481.95 55.344 1477.37 Q52.2884 1472.76 52.2884 1464.04 Q52.2884 1455.29 55.344 1450.7 Q58.4226 1446.1 64.2328 1446.1 Z" fill="#000000" fill-rule="nonzero" fill-opacity="1" /><path clip-path="url(#clip840)" d="M59.8578 1152.18 L76.1772 1152.18 L76.1772 1156.12 L54.2328 1156.12 L54.2328 1152.18 Q56.8949 1149.43 61.4782 1144.8 Q66.0846 1140.15 67.2652 1138.8 Q69.5105 1136.28 70.3902 1134.54 Q71.2929 1132.78 71.2929 1131.09 Q71.2929 1128.34 69.3485 1126.6 Q67.4272 1124.87 64.3254 1124.87 Q62.1263 1124.87 59.6726 1125.63 Q57.2421 1126.4 54.4643 1127.95 L54.4643 1123.22 Q57.2884 1122.09 59.7421 1121.51 Q62.1958 1120.93 64.2328 1120.93 Q69.6031 1120.93 72.7976 1123.62 Q75.992 1126.3 75.992 1130.79 Q75.992 1132.92 75.1818 1134.84 Q74.3948 1136.74 72.2883 1139.34 Q71.7096 1140.01 68.6078 1143.22 Q65.5059 1146.42 59.8578 1152.18 Z" fill="#000000" fill-rule="nonzero" fill-opacity="1" /><path clip-path="url(#clip840)" d="M66.5939 800.467 L54.7884 818.916 L66.5939 818.916 L66.5939 800.467 M65.367 796.393 L71.2466 796.393 L71.2466 818.916 L76.1772 818.916 L76.1772 822.805 L71.2466 822.805 L71.2466 830.953 L66.5939 830.953 L66.5939 822.805 L50.9921 822.805 L50.9921 818.291 L65.367 796.393 Z" fill="#000000" fill-rule="nonzero" fill-opacity="1" /><path clip-path="url(#clip840)" d="M64.6495 486.645 Q61.5013 486.645 59.6495 488.798 Q57.8208 490.951 57.8208 494.701 Q57.8208 498.428 59.6495 500.604 Q61.5013 502.756 64.6495 502.756 Q67.7976 502.756 69.6263 500.604 Q71.4781 498.428 71.4781 494.701 Q71.4781 490.951 69.6263 488.798 Q67.7976 486.645 64.6495 486.645 M73.9318 471.993 L73.9318 476.252 Q72.1726 475.419 70.367 474.979 Q68.5846 474.539 66.8254 474.539 Q62.1958 474.539 59.7421 477.664 Q57.3115 480.789 56.9643 487.108 Q58.33 485.094 60.3902 484.03 Q62.4504 482.942 64.9272 482.942 Q70.1355 482.942 73.1448 486.113 Q76.1772 489.261 76.1772 494.701 Q76.1772 500.025 73.029 503.242 Q69.8809 506.46 64.6495 506.46 Q58.6541 506.46 55.4828 501.877 Q52.3116 497.27 52.3116 488.543 Q52.3116 480.349 56.2004 475.488 Q60.0893 470.604 66.6402 470.604 Q68.3994 470.604 70.1818 470.951 Q71.9874 471.298 73.9318 471.993 Z" fill="#000000" fill-rule="nonzero" fill-opacity="1" /><path clip-path="url(#clip840)" d="M64.3254 164.212 Q60.9921 164.212 59.0708 165.995 Q57.1726 167.777 57.1726 170.902 Q57.1726 174.027 59.0708 175.809 Q60.9921 177.592 64.3254 177.592 Q67.6587 177.592 69.58 175.809 Q71.5013 174.004 71.5013 170.902 Q71.5013 167.777 69.58 165.995 Q67.6819 164.212 64.3254 164.212 M59.6495 162.221 Q56.6402 161.481 54.9504 159.421 Q53.2838 157.36 53.2838 154.397 Q53.2838 150.254 56.2236 147.847 Q59.1865 145.439 64.3254 145.439 Q69.4874 145.439 72.4272 147.847 Q75.367 150.254 75.367 154.397 Q75.367 157.36 73.6772 159.421 Q72.0105 161.481 69.0244 162.221 Q72.404 163.009 74.279 165.3 Q76.1772 167.592 76.1772 170.902 Q76.1772 175.925 73.0985 178.61 Q70.0429 181.295 64.3254 181.295 Q58.6078 181.295 55.5291 178.61 Q52.4736 175.925 52.4736 170.902 Q52.4736 167.592 54.3717 165.3 Q56.2699 163.009 59.6495 162.221 M57.9365 154.837 Q57.9365 157.522 59.6032 159.027 Q61.293 160.532 64.3254 160.532 Q67.3346 160.532 69.0244 159.027 Q70.7374 157.522 70.7374 154.837 Q70.7374 152.152 69.0244 150.647 Q67.3346 149.143 64.3254 149.143 Q61.293 149.143 59.6032 150.647 Q57.9365 152.152 57.9365 154.837 Z" fill="#000000" fill-rule="nonzero" fill-opacity="1" /><path clip-path="url(#clip841)" d="M175.59 1301.42 L196.727 1296.24 L217.865 1285.64 L239.002 1267.82 L260.14 1252.61 L281.277 1240.18 L302.415 1221.95 L323.553 1205.24 L344.69 1197.55 L365.828 1180.69 L386.965 1133.09 L408.103 1109.63 L429.24 1051.84 L450.378 1019.14 L471.515 988.163 L492.653 943.033 L513.79 878.963 L534.928 850.449 L556.065 814.918 L577.203 737.184 L598.34 820.219 L619.478 849.929 L640.616 977.29 L661.753 1085.47 L682.891 1173.29 L704.028 1246.32 L725.166 1296.13 L746.303 1329.29 L767.441 1345.5 L788.578 1357.36 L809.716 1367.08 L830.853 1364.61 L851.991 1359.6 L873.128 1350.6 L894.266 1335.93 L915.404 1322.62 L936.541 1309.79 L957.679 1297.91 L978.816 1275.8 L999.954 1263.28 L1021.09 1251.27 L1042.23 1217.31 L1063.37 1178.8 L1084.5 1157.75 L1105.64 1143.99 L1126.78 1105.26 L1147.92 1038.71 L1169.05 950.894 L1190.19 850.627 L1211.33 858.922 L1232.47 873.157 L1253.6 916.176 L1274.74 927.708 L1295.88 959.061 L1317.02 989.088 L1338.15 1005.06 L1359.29 1076.35 L1380.43 1134.25 L1401.57 1178.84 L1422.7 1213.47 L1443.84 1265.99 L1464.98 1295.41 L1486.12 1334.72 L1507.25 1363.62 L1528.39 1369.9 L1549.53 1376.23 L1570.67 1379 L1591.8 1376.43 L1612.94 1372.99 L1634.08 1365.21 L1655.22 1353.71 L1676.35 1347.07 L1697.49 1334.44 L1718.63 1320.55 L1739.77 1305.83 L1760.9 1284.84 L1782.04 1258.28 L1803.18 1230.24 L1824.32 1207.88 L1845.46 1169.69 L1866.59 1123.49 L1887.73 1036.08 L1908.87 1030.18 L1930.01 1022.27 L1951.14 1039.29 L1972.28 1059.71 L1993.42 1080.9 L2014.56 1136.75 L2035.69 1188.08 L2056.83 1225.78 L2077.97 1246.29 L2099.11 1262.14 L2120.24 1269.57 L2141.38 1286.12 L2162.52 1293.11 L2183.66 1311.48 L2204.79 1320.47 L2225.93 1323.26 L2247.07 1316.79 L2268.21 1326.8 L2289.34 1334.57 L2289.34 1129.28 L2268.21 1159.9 L2247.07 1076.28 L2225.93 916.77 L2204.79 744.709 L2183.66 571.982 L2162.52 414.741 L2141.38 371.885 L2120.24 377.593 L2099.11 347.131 L2077.97 332.869 L2056.83 236.464 L2035.69 157.734 L2014.56 255.087 L1993.42 306.714 L1972.28 333.323 L1951.14 357.837 L1930.01 435.926 L1908.87 502.7 L1887.73 542.245 L1866.59 558.724 L1845.46 618.607 L1824.32 627.257 L1803.18 661.623 L1782.04 709.482 L1760.9 766.175 L1739.77 816.227 L1718.63 872.527 L1697.49 900.125 L1676.35 927.741 L1655.22 930.58 L1634.08 979.708 L1612.94 1009.4 L1591.8 1037.51 L1570.67 1057.87 L1549.53 1076.89 L1528.39 1080.23 L1507.25 1082.34 L1486.12 1077.73 L1464.98 1070.92 L1443.84 1038.88 L1422.7 945.905 L1401.57 711.866 L1380.43 413.535 L1359.29 187.3 L1338.15 115.292 L1317.02 87.9763 L1295.88 185.871 L1274.74 237.063 L1253.6 301.879 L1232.47 382.814 L1211.33 497.816 L1190.19 580.656 L1169.05 647.71 L1147.92 710.407 L1126.78 790.658 L1105.64 826.32 L1084.5 869.396 L1063.37 898.928 L1042.23 923.459 L1021.09 971.296 L999.954 1002.48 L978.816 1023.9 L957.679 1056.28 L936.541 1113.88 L915.404 1127.24 L894.266 1128.98 L873.128 1140.7 L851.991 1132.17 L830.853 1078.6 L809.716 1004.34 L788.578 860.295 L767.441 818.076 L746.303 701.86 L725.166 664.673 L704.028 542.966 L682.891 473.394 L661.753 461.378 L640.616 413.098 L619.478 308.236 L598.34 211.829 L577.203 180.471 L556.065 250.819 L534.928 291.915 L513.79 404.553 L492.653 527.073 L471.515 640.383 L450.378 703.801 L429.24 741.958 L408.103 858.583 L386.965 883.464 L365.828 960.072 L344.69 1030.23 L323.553 1097.79 L302.415 1128.67 L281.277 1177.56 L260.14 1208.5 L239.002 1221.49 L217.865 1257.38 L196.727 1279.35 L175.59 1301.42  Z" fill="#009af9" fill-rule="evenodd" fill-opacity="0.5"/>
<polyline clip-path="url(#clip841)" style="stroke:#009af9; stroke-linecap:round; stroke-linejoin:round; stroke-width:12; stroke-opacity:1; fill:none" points="175.59,1301.42 196.727,1290.62 217.865,1277.18 239.002,1258.24 260.14,1232.28 281.277,1207.97 302.415,1183.78 323.553,1147.28 344.69,1108.68 365.828,1052.39 386.965,997.926 408.103,942.953 429.24,875.997 450.378,790.28 471.515,700.987 492.653,612.593 513.79,499.366 534.928,421.902 556.065,345.983 577.203,325.12 598.34,403.09 619.478,513.964 640.616,712.463 661.753,909.829 682.891,1042.63 704.028,1131.48 725.166,1191.12 746.303,1238.57 767.441,1263.56 788.578,1280.83 809.716,1288.19 830.853,1286.61 851.991,1285.31 873.128,1276.06 894.266,1266.51 915.404,1251.06 936.541,1238.91 957.679,1212.94 978.816,1192.04 999.954,1160.68 1021.09,1122.47 1042.23,1086.89 1063.37,1029.91 1084.5,991.656 1105.64,927.068 1126.78,880.758 1147.92,828.245 1169.05,749.948 1190.19,674.634 1211.33,579.412 1232.47,537.725 1253.6,469.509 1274.74,475.254 1295.88,498.84 1317.02,516.426 1338.15,675.515 1359.29,850.935 1380.43,993.614 1401.57,1117.7 1422.7,1187.99 1443.84,1236.83 1464.98,1269.15 1486.12,1282.38 1507.25,1287.9 1528.39,1287.99 1549.53,1278.53 1570.67,1262.89 1591.8,1245.94 1612.94,1229.25 1634.08,1219.42 1655.22,1212.07 1676.35,1186.29 1697.49,1174.36 1718.63,1131.6 1739.77,1089.92 1760.9,1044.37 1782.04,989.636 1803.18,957.088 1824.32,893.267 1845.46,864.845 1866.59,817.836 1887.73,771.639 1908.87,711.246 1930.01,673.323 1951.14,694.771 1972.28,698.156 1993.42,721.979 2014.56,687.006 2035.69,674.271 2056.83,839.483 2077.97,1024.86 2099.11,1092.72 2120.24,1122.99 2141.38,1138.11 2162.52,1177.79 2183.66,1216.78 2204.79,1227.71 2225.93,1218.91 2247.07,1239.82 2268.21,1231.82 2289.34,1268.64 "/>
<path clip-path="url(#clip841)" d="M175.59 1301.42 L196.727 1334.02 L217.865 1357.11 L239.002 1376.82 L260.14 1388.12 L281.277 1402.07 L302.415 1410.77 L323.553 1419.58 L344.69 1424.24 L365.828 1429.65 L386.965 1432.96 L408.103 1435.8 L429.24 1436.28 L450.378 1436.01 L471.515 1433.12 L492.653 1430.97 L513.79 1430.5 L534.928 1427.66 L556.065 1416.65 L577.203 1403.11 L598.34 1388.54 L619.478 1360.65 L640.616 1299.35 L661.753 1278.16 L682.891 1276.96 L704.028 1237.11 L725.166 1218.48 L746.303 1191.67 L767.441 1206.57 L788.578 1228.19 L809.716 1260.04 L830.853 1287.29 L851.991 1327.86 L873.128 1353.03 L894.266 1372.01 L915.404 1385.61 L936.541 1400.04 L957.679 1411.16 L978.816 1420.87 L999.954 1427.69 L1021.09 1431.9 L1042.23 1437.52 L1063.37 1439.93 L1084.5 1441.73 L1105.64 1443.96 L1126.78 1444.63 L1147.92 1442.34 L1169.05 1440.41 L1190.19 1439.39 L1211.33 1435.1 L1232.47 1426.95 L1253.6 1414.65 L1274.74 1388.43 L1295.88 1359.04 L1317.02 1306.92 L1338.15 1237.36 L1359.29 1167.06 L1380.43 1130.28 L1401.57 1130.05 L1422.7 1146.9 L1443.84 1156.79 L1464.98 1200.06 L1486.12 1246.61 L1507.25 1282.36 L1528.39 1300.01 L1549.53 1320.77 L1570.67 1342.88 L1591.8 1360.58 L1612.94 1373.36 L1634.08 1387.42 L1655.22 1395.3 L1676.35 1406.01 L1697.49 1414.78 L1718.63 1423.68 L1739.77 1428.72 L1760.9 1433.73 L1782.04 1438.35 L1803.18 1439.82 L1824.32 1440.97 L1845.46 1443.14 L1866.59 1445.27 L1887.73 1445.72 L1908.87 1445.43 L1930.01 1444.19 L1951.14 1440.64 L1972.28 1436.85 L1993.42 1429.9 L2014.56 1415.66 L2035.69 1392.54 L2056.83 1356.74 L2077.97 1319.53 L2099.11 1325.11 L2120.24 1327.09 L2141.38 1313.93 L2162.52 1270.59 L2183.66 1313.69 L2204.79 1339.79 L2225.93 1365.45 L2247.07 1372.5 L2268.21 1379.14 L2289.34 1393.95 L2289.34 848.589 L2268.21 766.851 L2247.07 660.996 L2225.93 708.798 L2204.79 766.569 L2183.66 699.264 L2162.52 648.77 L2141.38 617.695 L2120.24 708.153 L2099.11 726.866 L2077.97 670.552 L2056.83 677.14 L2035.69 783.38 L2014.56 859.888 L1993.42 871.479 L1972.28 872.193 L1951.14 881.057 L1930.01 960.994 L1908.87 1054.69 L1887.73 1111.26 L1866.59 1156.71 L1845.46 1196.44 L1824.32 1235.9 L1803.18 1245.73 L1782.04 1266.42 L1760.9 1262.19 L1739.77 1281.65 L1718.63 1288.16 L1697.49 1277.9 L1676.35 1271.95 L1655.22 1269.45 L1634.08 1269.34 L1612.94 1255.73 L1591.8 1226.72 L1570.67 1170.07 L1549.53 1097.84 L1528.39 1027.27 L1507.25 927.401 L1486.12 802.867 L1464.98 698.867 L1443.84 528.459 L1422.7 441.653 L1401.57 465.176 L1380.43 629.503 L1359.29 712.768 L1338.15 789.242 L1317.02 874.913 L1295.88 962.749 L1274.74 1055.27 L1253.6 1099.19 L1232.47 1162.33 L1211.33 1200.67 L1190.19 1243.91 L1169.05 1279.76 L1147.92 1295.94 L1126.78 1295.73 L1105.64 1309.08 L1084.5 1330.53 L1063.37 1331.83 L1042.23 1327.08 L1021.09 1315.38 L999.954 1303.13 L978.816 1289.88 L957.679 1262.4 L936.541 1221.15 L915.404 1183.7 L894.266 1137.93 L873.128 1096.25 L851.991 1038.56 L830.853 995.28 L809.716 956.861 L788.578 953.17 L767.441 925.12 L746.303 814.129 L725.166 728.574 L704.028 682.622 L682.891 531.796 L661.753 572.867 L640.616 574.597 L619.478 684.88 L598.34 899.402 L577.203 1109.29 L556.065 1206.49 L534.928 1260.96 L513.79 1293.88 L492.653 1328.55 L471.515 1348.58 L450.378 1372.69 L429.24 1388.24 L408.103 1396.93 L386.965 1399.06 L365.828 1399.84 L344.69 1391.04 L323.553 1385.11 L302.415 1381.71 L281.277 1366.26 L260.14 1352.67 L239.002 1345.13 L217.865 1337.89 L196.727 1320.91 L175.59 1301.42  Z" fill="#e26f46" fill-rule="evenodd" fill-opacity="0.5"/>
<polyline clip-path="url(#clip841)" style="stroke:#e26f46; stroke-linecap:round; stroke-linejoin:round; stroke-width:12; stroke-opacity:1; fill:none" points="175.59,1301.42 196.727,1329.9 217.865,1351.89 239.002,1370.32 260.14,1382.31 281.277,1396.16 302.415,1406.61 323.553,1412.84 344.69,1418.96 365.828,1421.79 386.965,1423.67 408.103,1423.39 429.24,1421.38 450.378,1417.28 471.515,1409.76 492.653,1397.64 513.79,1378.35 534.928,1345.07 556.065,1289.62 577.203,1211.87 598.34,1108.63 619.478,981.911 640.616,847.55 661.753,757.594 682.891,802.633 704.028,828.442 725.166,909.659 746.303,981.089 767.441,1059.9 788.578,1123.98 809.716,1187.99 830.853,1235.62 851.991,1280.56 873.128,1314.54 894.266,1337.56 915.404,1359.62 936.541,1373.48 957.679,1383 978.816,1393.74 999.954,1401.88 1021.09,1407.63 1042.23,1411.33 1063.37,1412.91 1084.5,1411.44 1105.64,1407.35 1126.78,1401.41 1147.92,1391.93 1169.05,1387.22 1190.19,1379.62 1211.33,1363.93 1232.47,1332.74 1253.6,1283.15 1274.74,1224.88 1295.88,1120.21 1317.02,1019.83 1338.15,913.21 1359.29,850.748 1380.43,825.841 1401.57,848.088 1422.7,888.028 1443.84,952.396 1464.98,1022.31 1486.12,1101.46 1507.25,1148.79 1528.39,1219.82 1549.53,1269.48 1570.67,1305.35 1591.8,1332.26 1612.94,1352.28 1634.08,1369.58 1655.22,1382.61 1676.35,1390.09 1697.49,1395.87 1718.63,1407.45 1739.77,1410.77 1760.9,1410.4 1782.04,1407.94 1803.18,1407.38 1824.32,1409.53 1845.46,1410.49 1866.59,1407.98 1887.73,1396.68 1908.87,1378.62 1930.01,1349.61 1951.14,1299.05 1972.28,1225.78 1993.42,1171.19 2014.56,1130.68 2035.69,1146.53 2056.83,1129.36 2077.97,1091.88 2099.11,1066.7 2120.24,1016.86 2141.38,1051.99 2162.52,1095.02 2183.66,1076.22 2204.79,1147.2 2225.93,1179.99 2247.07,1237.25 2268.21,1260.08 2289.34,1285.57 "/>
</svg>
