<?xml version="1.0" encoding="utf-8"?>
<svg xmlns="http://www.w3.org/2000/svg" xmlns:xlink="http://www.w3.org/1999/xlink" width="600" height="400" viewBox="0 0 2400 1600">
<defs>
  <clipPath id="clip000">
    <rect x="0" y="0" width="2400" height="1600"/>
  </clipPath>
</defs>
<path clip-path="url(#clip000)" d="M0 1600 L2400 1600 L2400 0 L0 0  Z" fill="#ffffff" fill-rule="evenodd" fill-opacity="1"/>
<defs>
  <clipPath id="clip001">
    <rect x="480" y="0" width="1681" height="1600"/>
  </clipPath>
</defs>
<path clip-path="url(#clip000)" d="M155.765 1486.45 L2352.76 1486.45 L2352.76 47.2441 L155.765 47.2441  Z" fill="#ffffff" fill-rule="evenodd" fill-opacity="1"/>
<defs>
  <clipPath id="clip002">
    <rect x="155" y="47" width="2198" height="1440"/>
  </clipPath>
</defs>
<polyline clip-path="url(#clip002)" style="stroke:#000000; stroke-linecap:round; stroke-linejoin:round; stroke-width:2; stroke-opacity:0.1; fill:none" points="217.944,1486.45 217.944,47.2441 "/>
<polyline clip-path="url(#clip002)" style="stroke:#000000; stroke-linecap:round; stroke-linejoin:round; stroke-width:2; stroke-opacity:0.1; fill:none" points="736.102,1486.45 736.102,47.2441 "/>
<polyline clip-path="url(#clip002)" style="stroke:#000000; stroke-linecap:round; stroke-linejoin:round; stroke-width:2; stroke-opacity:0.1; fill:none" points="1254.26,1486.45 1254.26,47.2441 "/>
<polyline clip-path="url(#clip002)" style="stroke:#000000; stroke-linecap:round; stroke-linejoin:round; stroke-width:2; stroke-opacity:0.1; fill:none" points="1772.42,1486.45 1772.42,47.2441 "/>
<polyline clip-path="url(#clip002)" style="stroke:#000000; stroke-linecap:round; stroke-linejoin:round; stroke-width:2; stroke-opacity:0.1; fill:none" points="2290.58,1486.45 2290.58,47.2441 "/>
<polyline clip-path="url(#clip002)" style="stroke:#000000; stroke-linecap:round; stroke-linejoin:round; stroke-width:2; stroke-opacity:0.1; fill:none" points="155.765,1270.86 2352.76,1270.86 "/>
<polyline clip-path="url(#clip002)" style="stroke:#000000; stroke-linecap:round; stroke-linejoin:round; stroke-width:2; stroke-opacity:0.1; fill:none" points="155.765,1016.78 2352.76,1016.78 "/>
<polyline clip-path="url(#clip002)" style="stroke:#000000; stroke-linecap:round; stroke-linejoin:round; stroke-width:2; stroke-opacity:0.1; fill:none" points="155.765,762.711 2352.76,762.711 "/>
<polyline clip-path="url(#clip002)" style="stroke:#000000; stroke-linecap:round; stroke-linejoin:round; stroke-width:2; stroke-opacity:0.1; fill:none" points="155.765,508.638 2352.76,508.638 "/>
<polyline clip-path="url(#clip002)" style="stroke:#000000; stroke-linecap:round; stroke-linejoin:round; stroke-width:2; stroke-opacity:0.1; fill:none" points="155.765,254.565 2352.76,254.565 "/>
<polyline clip-path="url(#clip000)" style="stroke:#000000; stroke-linecap:round; stroke-linejoin:round; stroke-width:4; stroke-opacity:1; fill:none" points="155.765,1486.45 2352.76,1486.45 "/>
<polyline clip-path="url(#clip000)" style="stroke:#000000; stroke-linecap:round; stroke-linejoin:round; stroke-width:4; stroke-opacity:1; fill:none" points="217.944,1486.45 217.944,1467.55 "/>
<polyline clip-path="url(#clip000)" style="stroke:#000000; stroke-linecap:round; stroke-linejoin:round; stroke-width:4; stroke-opacity:1; fill:none" points="736.102,1486.45 736.102,1467.55 "/>
<polyline clip-path="url(#clip000)" style="stroke:#000000; stroke-linecap:round; stroke-linejoin:round; stroke-width:4; stroke-opacity:1; fill:none" points="1254.26,1486.45 1254.26,1467.55 "/>
<polyline clip-path="url(#clip000)" style="stroke:#000000; stroke-linecap:round; stroke-linejoin:round; stroke-width:4; stroke-opacity:1; fill:none" points="1772.42,1486.45 1772.42,1467.55 "/>
<polyline clip-path="url(#clip000)" style="stroke:#000000; stroke-linecap:round; stroke-linejoin:round; stroke-width:4; stroke-opacity:1; fill:none" points="2290.58,1486.45 2290.58,1467.55 "/>
<path clip-path="url(#clip000)" d="M180.247 1517.37 Q176.636 1517.37 174.808 1520.93 Q173.002 1524.47 173.002 1531.6 Q173.002 1538.71 174.808 1542.27 Q176.636 1545.82 180.247 1545.82 Q183.882 1545.82 185.687 1542.27 Q187.516 1538.71 187.516 1531.6 Q187.516 1524.47 185.687 1520.93 Q183.882 1517.37 180.247 1517.37 M180.247 1513.66 Q186.057 1513.66 189.113 1518.27 Q192.192 1522.85 192.192 1531.6 Q192.192 1540.33 189.113 1544.94 Q186.057 1549.52 180.247 1549.52 Q174.437 1549.52 171.358 1544.94 Q168.303 1540.33 168.303 1531.6 Q168.303 1522.85 171.358 1518.27 Q174.437 1513.66 180.247 1513.66 Z" fill="#000000" fill-rule="nonzero" fill-opacity="1" /><path clip-path="url(#clip000)" d="M200.409 1542.97 L205.294 1542.97 L205.294 1548.85 L200.409 1548.85 L200.409 1542.97 Z" fill="#000000" fill-rule="nonzero" fill-opacity="1" /><path clip-path="url(#clip000)" d="M225.479 1517.37 Q221.867 1517.37 220.039 1520.93 Q218.233 1524.47 218.233 1531.6 Q218.233 1538.71 220.039 1542.27 Q221.867 1545.82 225.479 1545.82 Q229.113 1545.82 230.918 1542.27 Q232.747 1538.71 232.747 1531.6 Q232.747 1524.47 230.918 1520.93 Q229.113 1517.37 225.479 1517.37 M225.479 1513.66 Q231.289 1513.66 234.344 1518.27 Q237.423 1522.85 237.423 1531.6 Q237.423 1540.33 234.344 1544.94 Q231.289 1549.52 225.479 1549.52 Q219.668 1549.52 216.59 1544.94 Q213.534 1540.33 213.534 1531.6 Q213.534 1522.85 216.59 1518.27 Q219.668 1513.66 225.479 1513.66 Z" fill="#000000" fill-rule="nonzero" fill-opacity="1" /><path clip-path="url(#clip000)" d="M255.64 1517.37 Q252.029 1517.37 250.201 1520.93 Q248.395 1524.47 248.395 1531.6 Q248.395 1538.71 250.201 1542.27 Q252.029 1545.82 255.64 1545.82 Q259.275 1545.82 261.08 1542.27 Q262.909 1538.71 262.909 1531.6 Q262.909 1524.47 261.08 1520.93 Q259.275 1517.37 255.64 1517.37 M255.64 1513.66 Q261.451 1513.66 264.506 1518.27 Q267.585 1522.85 267.585 1531.6 Q267.585 1540.33 264.506 1544.94 Q261.451 1549.52 255.64 1549.52 Q249.83 1549.52 246.752 1544.94 Q243.696 1540.33 243.696 1531.6 Q243.696 1522.85 246.752 1518.27 Q249.83 1513.66 255.64 1513.66 Z" fill="#000000" fill-rule="nonzero" fill-opacity="1" /><path clip-path="url(#clip000)" d="M698.903 1517.37 Q695.292 1517.37 693.463 1520.93 Q691.658 1524.47 691.658 1531.6 Q691.658 1538.71 693.463 1542.27 Q695.292 1545.82 698.903 1545.82 Q702.538 1545.82 704.343 1542.27 Q706.172 1538.71 706.172 1531.6 Q706.172 1524.47 704.343 1520.93 Q702.538 1517.37 698.903 1517.37 M698.903 1513.66 Q704.713 1513.66 707.769 1518.27 Q710.848 1522.85 710.848 1531.6 Q710.848 1540.33 707.769 1544.94 Q704.713 1549.52 698.903 1549.52 Q693.093 1549.52 690.014 1544.94 Q686.959 1540.33 686.959 1531.6 Q686.959 1522.85 690.014 1518.27 Q693.093 1513.66 698.903 1513.66 Z" fill="#000000" fill-rule="nonzero" fill-opacity="1" /><path clip-path="url(#clip000)" d="M719.065 1542.97 L723.949 1542.97 L723.949 1548.85 L719.065 1548.85 L719.065 1542.97 Z" fill="#000000" fill-rule="nonzero" fill-opacity="1" /><path clip-path="url(#clip000)" d="M738.162 1544.91 L754.482 1544.91 L754.482 1548.85 L732.537 1548.85 L732.537 1544.91 Q735.199 1542.16 739.783 1537.53 Q744.389 1532.88 745.57 1531.53 Q747.815 1529.01 748.695 1527.27 Q749.597 1525.51 749.597 1523.82 Q749.597 1521.07 747.653 1519.33 Q745.732 1517.6 742.63 1517.6 Q740.431 1517.6 737.977 1518.36 Q735.547 1519.13 732.769 1520.68 L732.769 1515.95 Q735.593 1514.82 738.047 1514.24 Q740.5 1513.66 742.537 1513.66 Q747.908 1513.66 751.102 1516.35 Q754.296 1519.03 754.296 1523.52 Q754.296 1525.65 753.486 1527.57 Q752.699 1529.47 750.593 1532.07 Q750.014 1532.74 746.912 1535.95 Q743.81 1539.15 738.162 1544.91 Z" fill="#000000" fill-rule="nonzero" fill-opacity="1" /><path clip-path="url(#clip000)" d="M764.343 1514.29 L782.699 1514.29 L782.699 1518.22 L768.625 1518.22 L768.625 1526.7 Q769.644 1526.35 770.662 1526.19 Q771.681 1526 772.699 1526 Q778.486 1526 781.866 1529.17 Q785.245 1532.34 785.245 1537.76 Q785.245 1543.34 781.773 1546.44 Q778.301 1549.52 771.982 1549.52 Q769.806 1549.52 767.537 1549.15 Q765.292 1548.78 762.884 1548.04 L762.884 1543.34 Q764.968 1544.47 767.19 1545.03 Q769.412 1545.58 771.889 1545.58 Q775.894 1545.58 778.232 1543.48 Q780.57 1541.37 780.57 1537.76 Q780.57 1534.15 778.232 1532.04 Q775.894 1529.94 771.889 1529.94 Q770.014 1529.94 768.139 1530.35 Q766.287 1530.77 764.343 1531.65 L764.343 1514.29 Z" fill="#000000" fill-rule="nonzero" fill-opacity="1" /><path clip-path="url(#clip000)" d="M1216.56 1517.37 Q1212.95 1517.37 1211.12 1520.93 Q1209.32 1524.47 1209.32 1531.6 Q1209.32 1538.71 1211.12 1542.27 Q1212.95 1545.82 1216.56 1545.82 Q1220.2 1545.82 1222 1542.27 Q1223.83 1538.71 1223.83 1531.6 Q1223.83 1524.47 1222 1520.93 Q1220.2 1517.37 1216.56 1517.37 M1216.56 1513.66 Q1222.37 1513.66 1225.43 1518.27 Q1228.51 1522.85 1228.51 1531.6 Q1228.51 1540.33 1225.43 1544.94 Q1222.37 1549.52 1216.56 1549.52 Q1210.75 1549.52 1207.68 1544.94 Q1204.62 1540.33 1204.62 1531.6 Q1204.62 1522.85 1207.68 1518.27 Q1210.75 1513.66 1216.56 1513.66 Z" fill="#000000" fill-rule="nonzero" fill-opacity="1" /><path clip-path="url(#clip000)" d="M1236.73 1542.97 L1241.61 1542.97 L1241.61 1548.85 L1236.73 1548.85 L1236.73 1542.97 Z" fill="#000000" fill-rule="nonzero" fill-opacity="1" /><path clip-path="url(#clip000)" d="M1251.84 1514.29 L1270.2 1514.29 L1270.2 1518.22 L1256.12 1518.22 L1256.12 1526.7 Q1257.14 1526.35 1258.16 1526.19 Q1259.18 1526 1260.2 1526 Q1265.98 1526 1269.36 1529.17 Q1272.74 1532.34 1272.74 1537.76 Q1272.74 1543.34 1269.27 1546.44 Q1265.8 1549.52 1259.48 1549.52 Q1257.3 1549.52 1255.04 1549.15 Q1252.79 1548.78 1250.38 1548.04 L1250.38 1543.34 Q1252.47 1544.47 1254.69 1545.03 Q1256.91 1545.58 1259.39 1545.58 Q1263.39 1545.58 1265.73 1543.48 Q1268.07 1541.37 1268.07 1537.76 Q1268.07 1534.15 1265.73 1532.04 Q1263.39 1529.94 1259.39 1529.94 Q1257.51 1529.94 1255.64 1530.35 Q1253.79 1530.77 1251.84 1531.65 L1251.84 1514.29 Z" fill="#000000" fill-rule="nonzero" fill-opacity="1" /><path clip-path="url(#clip000)" d="M1291.96 1517.37 Q1288.35 1517.37 1286.52 1520.93 Q1284.71 1524.47 1284.71 1531.6 Q1284.71 1538.71 1286.52 1542.27 Q1288.35 1545.82 1291.96 1545.82 Q1295.59 1545.82 1297.4 1542.27 Q1299.23 1538.71 1299.23 1531.6 Q1299.23 1524.47 1297.4 1520.93 Q1295.59 1517.37 1291.96 1517.37 M1291.96 1513.66 Q1297.77 1513.66 1300.82 1518.27 Q1303.9 1522.85 1303.9 1531.6 Q1303.9 1540.33 1300.82 1544.94 Q1297.77 1549.52 1291.96 1549.52 Q1286.15 1549.52 1283.07 1544.94 Q1280.01 1540.33 1280.01 1531.6 Q1280.01 1522.85 1283.07 1518.27 Q1286.15 1513.66 1291.96 1513.66 Z" fill="#000000" fill-rule="nonzero" fill-opacity="1" /><path clip-path="url(#clip000)" d="M1735.22 1517.37 Q1731.61 1517.37 1729.78 1520.93 Q1727.97 1524.47 1727.97 1531.6 Q1727.97 1538.71 1729.78 1542.27 Q1731.61 1545.82 1735.22 1545.82 Q1738.85 1545.82 1740.66 1542.27 Q1742.49 1538.71 1742.49 1531.6 Q1742.49 1524.47 1740.66 1520.93 Q1738.85 1517.37 1735.22 1517.37 M1735.22 1513.66 Q1741.03 1513.66 1744.09 1518.27 Q1747.16 1522.85 1747.16 1531.6 Q1747.16 1540.33 1744.09 1544.94 Q1741.03 1549.52 1735.22 1549.52 Q1729.41 1549.52 1726.33 1544.94 Q1723.28 1540.33 1723.28 1531.6 Q1723.28 1522.85 1726.33 1518.27 Q1729.41 1513.66 1735.22 1513.66 Z" fill="#000000" fill-rule="nonzero" fill-opacity="1" /><path clip-path="url(#clip000)" d="M1755.38 1542.97 L1760.27 1542.97 L1760.27 1548.85 L1755.38 1548.85 L1755.38 1542.97 Z" fill="#000000" fill-rule="nonzero" fill-opacity="1" /><path clip-path="url(#clip000)" d="M1769.27 1514.29 L1791.49 1514.29 L1791.49 1516.28 L1778.95 1548.85 L1774.06 1548.85 L1785.87 1518.22 L1769.27 1518.22 L1769.27 1514.29 Z" fill="#000000" fill-rule="nonzero" fill-opacity="1" /><path clip-path="url(#clip000)" d="M1800.66 1514.29 L1819.02 1514.29 L1819.02 1518.22 L1804.94 1518.22 L1804.94 1526.7 Q1805.96 1526.35 1806.98 1526.19 Q1808 1526 1809.02 1526 Q1814.8 1526 1818.18 1529.17 Q1821.56 1532.34 1821.56 1537.76 Q1821.56 1543.34 1818.09 1546.44 Q1814.62 1549.52 1808.3 1549.52 Q1806.12 1549.52 1803.85 1549.15 Q1801.61 1548.78 1799.2 1548.04 L1799.2 1543.34 Q1801.28 1544.47 1803.51 1545.03 Q1805.73 1545.58 1808.21 1545.58 Q1812.21 1545.58 1814.55 1543.48 Q1816.89 1541.37 1816.89 1537.76 Q1816.89 1534.15 1814.55 1532.04 Q1812.21 1529.94 1808.21 1529.94 Q1806.33 1529.94 1804.46 1530.35 Q1802.6 1530.77 1800.66 1531.65 L1800.66 1514.29 Z" fill="#000000" fill-rule="nonzero" fill-opacity="1" /><path clip-path="url(#clip000)" d="M2242.65 1544.91 L2250.29 1544.91 L2250.29 1518.55 L2241.98 1520.21 L2241.98 1515.95 L2250.24 1514.29 L2254.92 1514.29 L2254.92 1544.91 L2262.56 1544.91 L2262.56 1548.85 L2242.65 1548.85 L2242.65 1544.91 Z" fill="#000000" fill-rule="nonzero" fill-opacity="1" /><path clip-path="url(#clip000)" d="M2272 1542.97 L2276.88 1542.97 L2276.88 1548.85 L2272 1548.85 L2272 1542.97 Z" fill="#000000" fill-rule="nonzero" fill-opacity="1" /><path clip-path="url(#clip000)" d="M2297.07 1517.37 Q2293.46 1517.37 2291.63 1520.93 Q2289.82 1524.47 2289.82 1531.6 Q2289.82 1538.71 2291.63 1542.27 Q2293.46 1545.82 2297.07 1545.82 Q2300.7 1545.82 2302.51 1542.27 Q2304.34 1538.71 2304.34 1531.6 Q2304.34 1524.47 2302.51 1520.93 Q2300.7 1517.37 2297.07 1517.37 M2297.07 1513.66 Q2302.88 1513.66 2305.94 1518.27 Q2309.01 1522.85 2309.01 1531.6 Q2309.01 1540.33 2305.94 1544.94 Q2302.88 1549.52 2297.07 1549.52 Q2291.26 1549.52 2288.18 1544.94 Q2285.13 1540.33 2285.13 1531.6 Q2285.13 1522.85 2288.18 1518.27 Q2291.26 1513.66 2297.07 1513.66 Z" fill="#000000" fill-rule="nonzero" fill-opacity="1" /><path clip-path="url(#clip000)" d="M2327.23 1517.37 Q2323.62 1517.37 2321.79 1520.93 Q2319.99 1524.47 2319.99 1531.6 Q2319.99 1538.71 2321.79 1542.27 Q2323.62 1545.82 2327.23 1545.82 Q2330.87 1545.82 2332.67 1542.27 Q2334.5 1538.71 2334.5 1531.6 Q2334.5 1524.47 2332.67 1520.93 Q2330.87 1517.37 2327.23 1517.37 M2327.23 1513.66 Q2333.04 1513.66 2336.1 1518.27 Q2339.18 1522.85 2339.18 1531.6 Q2339.18 1540.33 2336.1 1544.94 Q2333.04 1549.52 2327.23 1549.52 Q2321.42 1549.52 2318.34 1544.94 Q2315.29 1540.33 2315.29 1531.6 Q2315.29 1522.85 2318.34 1518.27 Q2321.42 1513.66 2327.23 1513.66 Z" fill="#000000" fill-rule="nonzero" fill-opacity="1" /><polyline clip-path="url(#clip000)" style="stroke:#000000; stroke-linecap:round; stroke-linejoin:round; stroke-width:4; stroke-opacity:1; fill:none" points="155.765,1486.45 155.765,47.2441 "/>
<polyline clip-path="url(#clip000)" style="stroke:#000000; stroke-linecap:round; stroke-linejoin:round; stroke-width:4; stroke-opacity:1; fill:none" points="155.765,1270.86 174.663,1270.86 "/>
<polyline clip-path="url(#clip000)" style="stroke:#000000; stroke-linecap:round; stroke-linejoin:round; stroke-width:4; stroke-opacity:1; fill:none" points="155.765,1016.78 174.663,1016.78 "/>
<polyline clip-path="url(#clip000)" style="stroke:#000000; stroke-linecap:round; stroke-linejoin:round; stroke-width:4; stroke-opacity:1; fill:none" points="155.765,762.711 174.663,762.711 "/>
<polyline clip-path="url(#clip000)" style="stroke:#000000; stroke-linecap:round; stroke-linejoin:round; stroke-width:4; stroke-opacity:1; fill:none" points="155.765,508.638 174.663,508.638 "/>
<polyline clip-path="url(#clip000)" style="stroke:#000000; stroke-linecap:round; stroke-linejoin:round; stroke-width:4; stroke-opacity:1; fill:none" points="155.765,254.565 174.663,254.565 "/>
<path clip-path="url(#clip000)" d="M63.5847 1256.66 Q59.9736 1256.66 58.1449 1260.22 Q56.3393 1263.76 56.3393 1270.89 Q56.3393 1278 58.1449 1281.56 Q59.9736 1285.1 63.5847 1285.1 Q67.2189 1285.1 69.0244 1281.56 Q70.8531 1278 70.8531 1270.89 Q70.8531 1263.76 69.0244 1260.22 Q67.2189 1256.66 63.5847 1256.66 M63.5847 1252.95 Q69.3948 1252.95 72.4503 1257.56 Q75.529 1262.14 75.529 1270.89 Q75.529 1279.62 72.4503 1284.22 Q69.3948 1288.81 63.5847 1288.81 Q57.7745 1288.81 54.6958 1284.22 Q51.6403 1279.62 51.6403 1270.89 Q51.6403 1262.14 54.6958 1257.56 Q57.7745 1252.95 63.5847 1252.95 Z" fill="#000000" fill-rule="nonzero" fill-opacity="1" /><path clip-path="url(#clip000)" d="M83.7466 1282.26 L88.6308 1282.26 L88.6308 1288.14 L83.7466 1288.14 L83.7466 1282.26 Z" fill="#000000" fill-rule="nonzero" fill-opacity="1" /><path clip-path="url(#clip000)" d="M98.8622 1253.58 L117.219 1253.58 L117.219 1257.51 L103.145 1257.51 L103.145 1265.98 Q104.163 1265.64 105.182 1265.47 Q106.2 1265.29 107.219 1265.29 Q113.006 1265.29 116.385 1268.46 Q119.765 1271.63 119.765 1277.05 Q119.765 1282.63 116.293 1285.73 Q112.82 1288.81 106.501 1288.81 Q104.325 1288.81 102.057 1288.44 Q99.8113 1288.07 97.4039 1287.33 L97.4039 1282.63 Q99.4872 1283.76 101.709 1284.32 Q103.932 1284.87 106.408 1284.87 Q110.413 1284.87 112.751 1282.77 Q115.089 1280.66 115.089 1277.05 Q115.089 1273.44 112.751 1271.33 Q110.413 1269.22 106.408 1269.22 Q104.534 1269.22 102.659 1269.64 Q100.807 1270.06 98.8622 1270.94 L98.8622 1253.58 Z" fill="#000000" fill-rule="nonzero" fill-opacity="1" /><path clip-path="url(#clip000)" d="M53.3995 1030.13 L61.0384 1030.13 L61.0384 1003.76 L52.7282 1005.43 L52.7282 1001.17 L60.9921 999.504 L65.668 999.504 L65.668 1030.13 L73.3068 1030.13 L73.3068 1034.06 L53.3995 1034.06 L53.3995 1030.13 Z" fill="#000000" fill-rule="nonzero" fill-opacity="1" /><path clip-path="url(#clip000)" d="M82.7512 1028.18 L87.6354 1028.18 L87.6354 1034.06 L82.7512 1034.06 L82.7512 1028.18 Z" fill="#000000" fill-rule="nonzero" fill-opacity="1" /><path clip-path="url(#clip000)" d="M107.821 1002.58 Q104.209 1002.58 102.381 1006.15 Q100.575 1009.69 100.575 1016.82 Q100.575 1023.92 102.381 1027.49 Q104.209 1031.03 107.821 1031.03 Q111.455 1031.03 113.26 1027.49 Q115.089 1023.92 115.089 1016.82 Q115.089 1009.69 113.26 1006.15 Q111.455 1002.58 107.821 1002.58 M107.821 998.879 Q113.631 998.879 116.686 1003.49 Q119.765 1008.07 119.765 1016.82 Q119.765 1025.55 116.686 1030.15 Q113.631 1034.74 107.821 1034.74 Q102.01 1034.74 98.9317 1030.15 Q95.8761 1025.55 95.8761 1016.82 Q95.8761 1008.07 98.9317 1003.49 Q102.01 998.879 107.821 998.879 Z" fill="#000000" fill-rule="nonzero" fill-opacity="1" /><path clip-path="url(#clip000)" d="M54.3949 776.056 L62.0337 776.056 L62.0337 749.69 L53.7236 751.357 L53.7236 747.098 L61.9874 745.431 L66.6633 745.431 L66.6633 776.056 L74.3022 776.056 L74.3022 779.991 L54.3949 779.991 L54.3949 776.056 Z" fill="#000000" fill-rule="nonzero" fill-opacity="1" /><path clip-path="url(#clip000)" d="M83.7466 774.111 L88.6308 774.111 L88.6308 779.991 L83.7466 779.991 L83.7466 774.111 Z" fill="#000000" fill-rule="nonzero" fill-opacity="1" /><path clip-path="url(#clip000)" d="M98.8622 745.431 L117.219 745.431 L117.219 749.366 L103.145 749.366 L103.145 757.838 Q104.163 757.491 105.182 757.329 Q106.2 757.144 107.219 757.144 Q113.006 757.144 116.385 760.315 Q119.765 763.486 119.765 768.903 Q119.765 774.482 116.293 777.584 Q112.82 780.662 106.501 780.662 Q104.325 780.662 102.057 780.292 Q99.8113 779.922 97.4039 779.181 L97.4039 774.482 Q99.4872 775.616 101.709 776.172 Q103.932 776.727 106.408 776.727 Q110.413 776.727 112.751 774.621 Q115.089 772.514 115.089 768.903 Q115.089 765.292 112.751 763.186 Q110.413 761.079 106.408 761.079 Q104.534 761.079 102.659 761.496 Q100.807 761.912 98.8622 762.792 L98.8622 745.431 Z" fill="#000000" fill-rule="nonzero" fill-opacity="1" /><path clip-path="url(#clip000)" d="M56.6171 521.983 L72.9365 521.983 L72.9365 525.918 L50.9921 525.918 L50.9921 521.983 Q53.6541 519.228 58.2375 514.599 Q62.8439 509.946 64.0245 508.603 Q66.2698 506.08 67.1494 504.344 Q68.0522 502.585 68.0522 500.895 Q68.0522 498.141 66.1078 496.404 Q64.1865 494.668 61.0847 494.668 Q58.8856 494.668 56.4319 495.432 Q54.0014 496.196 51.2236 497.747 L51.2236 493.025 Q54.0477 491.891 56.5014 491.312 Q58.955 490.733 60.9921 490.733 Q66.3624 490.733 69.5568 493.418 Q72.7513 496.104 72.7513 500.594 Q72.7513 502.724 71.9411 504.645 Q71.1541 506.543 69.0476 509.136 Q68.4689 509.807 65.367 513.025 Q62.2652 516.219 56.6171 521.983 Z" fill="#000000" fill-rule="nonzero" fill-opacity="1" /><path clip-path="url(#clip000)" d="M82.7512 520.039 L87.6354 520.039 L87.6354 525.918 L82.7512 525.918 L82.7512 520.039 Z" fill="#000000" fill-rule="nonzero" fill-opacity="1" /><path clip-path="url(#clip000)" d="M107.821 494.437 Q104.209 494.437 102.381 498.002 Q100.575 501.543 100.575 508.673 Q100.575 515.779 102.381 519.344 Q104.209 522.886 107.821 522.886 Q111.455 522.886 113.26 519.344 Q115.089 515.779 115.089 508.673 Q115.089 501.543 113.26 498.002 Q111.455 494.437 107.821 494.437 M107.821 490.733 Q113.631 490.733 116.686 495.34 Q119.765 499.923 119.765 508.673 Q119.765 517.4 116.686 522.006 Q113.631 526.59 107.821 526.59 Q102.01 526.59 98.9317 522.006 Q95.8761 517.4 95.8761 508.673 Q95.8761 499.923 98.9317 495.34 Q102.01 490.733 107.821 490.733 Z" fill="#000000" fill-rule="nonzero" fill-opacity="1" /><path clip-path="url(#clip000)" d="M57.6125 267.91 L73.9318 267.91 L73.9318 271.845 L51.9875 271.845 L51.9875 267.91 Q54.6495 265.156 59.2328 260.526 Q63.8393 255.873 65.0198 254.531 Q67.2652 252.008 68.1448 250.271 Q69.0476 248.512 69.0476 246.822 Q69.0476 244.068 67.1032 242.332 Q65.1819 240.596 62.08 240.596 Q59.881 240.596 57.4273 241.359 Q54.9967 242.123 52.219 243.674 L52.219 238.952 Q55.043 237.818 57.4967 237.239 Q59.9504 236.66 61.9874 236.66 Q67.3578 236.66 70.5522 239.346 Q73.7466 242.031 73.7466 246.521 Q73.7466 248.651 72.9365 250.572 Q72.1494 252.471 70.0429 255.063 Q69.4642 255.734 66.3624 258.952 Q63.2606 262.146 57.6125 267.91 Z" fill="#000000" fill-rule="nonzero" fill-opacity="1" /><path clip-path="url(#clip000)" d="M83.7466 265.966 L88.6308 265.966 L88.6308 271.845 L83.7466 271.845 L83.7466 265.966 Z" fill="#000000" fill-rule="nonzero" fill-opacity="1" /><path clip-path="url(#clip000)" d="M98.8622 237.285 L117.219 237.285 L117.219 241.221 L103.145 241.221 L103.145 249.693 Q104.163 249.346 105.182 249.184 Q106.2 248.998 107.219 248.998 Q113.006 248.998 116.385 252.17 Q119.765 255.341 119.765 260.758 Q119.765 266.336 116.293 269.438 Q112.82 272.517 106.501 272.517 Q104.325 272.517 102.057 272.146 Q99.8113 271.776 97.4039 271.035 L97.4039 266.336 Q99.4872 267.47 101.709 268.026 Q103.932 268.582 106.408 268.582 Q110.413 268.582 112.751 266.475 Q115.089 264.369 115.089 260.758 Q115.089 257.146 112.751 255.04 Q110.413 252.933 106.408 252.933 Q104.534 252.933 102.659 253.35 Q100.807 253.767 98.8622 254.646 L98.8622 237.285 Z" fill="#000000" fill-rule="nonzero" fill-opacity="1" /><polyline clip-path="url(#clip002)" style="stroke:#009af9; stroke-linecap:round; stroke-linejoin:round; stroke-width:12; stroke-opacity:1; fill:none" points="217.944,1270.86 425.207,1261.02 632.47,1248.4 839.734,1259.04 1047,1228.56 1254.26,1212.08 1461.52,1211.7 1668.79,1255.72 1876.05,1271.55 2083.31,1228.3 2290.58,1171.23 "/>
<polyline clip-path="url(#clip002)" style="stroke:#000000; stroke-linecap:round; stroke-linejoin:round; stroke-width:12; stroke-opacity:1; fill:none" points="217.944,1270.86 217.944,1270.86 "/>
<polyline clip-path="url(#clip002)" style="stroke:#000000; stroke-linecap:round; stroke-linejoin:round; stroke-width:12; stroke-opacity:1; fill:none" points="425.207,1326.14 425.207,1175.21 "/>
<polyline clip-path="url(#clip002)" style="stroke:#000000; stroke-linecap:round; stroke-linejoin:round; stroke-width:12; stroke-opacity:1; fill:none" points="632.47,1347.61 632.47,1144.44 "/>
<polyline clip-path="url(#clip002)" style="stroke:#000000; stroke-linecap:round; stroke-linejoin:round; stroke-width:12; stroke-opacity:1; fill:none" points="839.734,1338.83 839.734,1053.01 "/>
<polyline clip-path="url(#clip002)" style="stroke:#000000; stroke-linecap:round; stroke-linejoin:round; stroke-width:12; stroke-opacity:1; fill:none" points="1047,1359.87 1047,960.17 "/>
<polyline clip-path="url(#clip002)" style="stroke:#000000; stroke-linecap:round; stroke-linejoin:round; stroke-width:12; stroke-opacity:1; fill:none" points="1254.26,1357.02 1254.26,927.972 "/>
<polyline clip-path="url(#clip002)" style="stroke:#000000; stroke-linecap:round; stroke-linejoin:round; stroke-width:12; stroke-opacity:1; fill:none" points="1461.52,1404.11 1461.52,806.07 "/>
<polyline clip-path="url(#clip002)" style="stroke:#000000; stroke-linecap:round; stroke-linejoin:round; stroke-width:12; stroke-opacity:1; fill:none" points="1668.79,1433.54 1668.79,714.331 "/>
<polyline clip-path="url(#clip002)" style="stroke:#000000; stroke-linecap:round; stroke-linejoin:round; stroke-width:12; stroke-opacity:1; fill:none" points="1876.05,1445.72 1876.05,589.678 "/>
<polyline clip-path="url(#clip002)" style="stroke:#000000; stroke-linecap:round; stroke-linejoin:round; stroke-width:12; stroke-opacity:1; fill:none" points="2083.31,1439.37 2083.31,408.111 "/>
<polyline clip-path="url(#clip002)" style="stroke:#000000; stroke-linecap:round; stroke-linejoin:round; stroke-width:12; stroke-opacity:1; fill:none" points="2290.58,1411.57 2290.58,87.9763 "/>
<line clip-path="url(#clip002)" x1="233.944" y1="1270.86" x2="201.944" y2="1270.86" style="stroke:#000000; stroke-width:12; stroke-opacity:1"/>
<line clip-path="url(#clip002)" x1="233.944" y1="1270.86" x2="201.944" y2="1270.86" style="stroke:#000000; stroke-width:12; stroke-opacity:1"/>
<line clip-path="url(#clip002)" x1="441.207" y1="1326.14" x2="409.207" y2="1326.14" style="stroke:#000000; stroke-width:12; stroke-opacity:1"/>
<line clip-path="url(#clip002)" x1="441.207" y1="1175.21" x2="409.207" y2="1175.21" style="stroke:#000000; stroke-width:12; stroke-opacity:1"/>
<line clip-path="url(#clip002)" x1="648.47" y1="1347.61" x2="616.47" y2="1347.61" style="stroke:#000000; stroke-width:12; stroke-opacity:1"/>
<line clip-path="url(#clip002)" x1="648.47" y1="1144.44" x2="616.47" y2="1144.44" style="stroke:#000000; stroke-width:12; stroke-opacity:1"/>
<line clip-path="url(#clip002)" x1="855.734" y1="1338.83" x2="823.734" y2="1338.83" style="stroke:#000000; stroke-width:12; stroke-opacity:1"/>
<line clip-path="url(#clip002)" x1="855.734" y1="1053.01" x2="823.734" y2="1053.01" style="stroke:#000000; stroke-width:12; stroke-opacity:1"/>
<line clip-path="url(#clip002)" x1="1063" y1="1359.87" x2="1031" y2="1359.87" style="stroke:#000000; stroke-width:12; stroke-opacity:1"/>
<line clip-path="url(#clip002)" x1="1063" y1="960.17" x2="1031" y2="960.17" style="stroke:#000000; stroke-width:12; stroke-opacity:1"/>
<line clip-path="url(#clip002)" x1="1270.26" y1="1357.02" x2="1238.26" y2="1357.02" style="stroke:#000000; stroke-width:12; stroke-opacity:1"/>
<line clip-path="url(#clip002)" x1="1270.26" y1="927.972" x2="1238.26" y2="927.972" style="stroke:#000000; stroke-width:12; stroke-opacity:1"/>
<line clip-path="url(#clip002)" x1="1477.52" y1="1404.11" x2="1445.52" y2="1404.11" style="stroke:#000000; stroke-width:12; stroke-opacity:1"/>
<line clip-path="url(#clip002)" x1="1477.52" y1="806.07" x2="1445.52" y2="806.07" style="stroke:#000000; stroke-width:12; stroke-opacity:1"/>
<line clip-path="url(#clip002)" x1="1684.79" y1="1433.54" x2="1652.79" y2="1433.54" style="stroke:#000000; stroke-width:12; stroke-opacity:1"/>
<line clip-path="url(#clip002)" x1="1684.79" y1="714.331" x2="1652.79" y2="714.331" style="stroke:#000000; stroke-width:12; stroke-opacity:1"/>
<line clip-path="url(#clip002)" x1="1892.05" y1="1445.72" x2="1860.05" y2="1445.72" style="stroke:#000000; stroke-width:12; stroke-opacity:1"/>
<line clip-path="url(#clip002)" x1="1892.05" y1="589.678" x2="1860.05" y2="589.678" style="stroke:#000000; stroke-width:12; stroke-opacity:1"/>
<line clip-path="url(#clip002)" x1="2099.31" y1="1439.37" x2="2067.31" y2="1439.37" style="stroke:#000000; stroke-width:12; stroke-opacity:1"/>
<line clip-path="url(#clip002)" x1="2099.31" y1="408.111" x2="2067.31" y2="408.111" style="stroke:#000000; stroke-width:12; stroke-opacity:1"/>
<line clip-path="url(#clip002)" x1="2306.58" y1="1411.57" x2="2274.58" y2="1411.57" style="stroke:#000000; stroke-width:12; stroke-opacity:1"/>
<line clip-path="url(#clip002)" x1="2306.58" y1="87.9763" x2="2274.58" y2="87.9763" style="stroke:#000000; stroke-width:12; stroke-opacity:1"/>
<polyline clip-path="url(#clip002)" style="stroke:#e26f46; stroke-linecap:round; stroke-linejoin:round; stroke-width:12; stroke-opacity:1; fill:none" points="217.944,1270.86 425.207,1271.45 632.47,1265.25 839.734,1219.03 1047,1172.26 1254.26,1137.53 1461.52,1123.29 1668.79,1090.71 1876.05,1099.5 2083.31,1102.08 2290.58,978.597 "/>
<polyline clip-path="url(#clip002)" style="stroke:#000000; stroke-linecap:round; stroke-linejoin:round; stroke-width:12; stroke-opacity:1; fill:none" points="217.944,1270.86 217.944,1270.86 "/>
<polyline clip-path="url(#clip002)" style="stroke:#000000; stroke-linecap:round; stroke-linejoin:round; stroke-width:12; stroke-opacity:1; fill:none" points="425.207,1332.37 425.207,1144.29 "/>
<polyline clip-path="url(#clip002)" style="stroke:#000000; stroke-linecap:round; stroke-linejoin:round; stroke-width:12; stroke-opacity:1; fill:none" points="632.47,1334.02 632.47,1093.2 "/>
<polyline clip-path="url(#clip002)" style="stroke:#000000; stroke-linecap:round; stroke-linejoin:round; stroke-width:12; stroke-opacity:1; fill:none" points="839.734,1318.17 839.734,1070.4 "/>
<polyline clip-path="url(#clip002)" style="stroke:#000000; stroke-linecap:round; stroke-linejoin:round; stroke-width:12; stroke-opacity:1; fill:none" points="1047,1299.23 1047,990.072 "/>
<polyline clip-path="url(#clip002)" style="stroke:#000000; stroke-linecap:round; stroke-linejoin:round; stroke-width:12; stroke-opacity:1; fill:none" points="1254.26,1315.81 1254.26,960.639 "/>
<polyline clip-path="url(#clip002)" style="stroke:#000000; stroke-linecap:round; stroke-linejoin:round; stroke-width:12; stroke-opacity:1; fill:none" points="1461.52,1330.21 1461.52,917.277 "/>
<polyline clip-path="url(#clip002)" style="stroke:#000000; stroke-linecap:round; stroke-linejoin:round; stroke-width:12; stroke-opacity:1; fill:none" points="1668.79,1269.7 1668.79,736.706 "/>
<polyline clip-path="url(#clip002)" style="stroke:#000000; stroke-linecap:round; stroke-linejoin:round; stroke-width:12; stroke-opacity:1; fill:none" points="1876.05,1273.49 1876.05,700.612 "/>
<polyline clip-path="url(#clip002)" style="stroke:#000000; stroke-linecap:round; stroke-linejoin:round; stroke-width:12; stroke-opacity:1; fill:none" points="2083.31,1298.68 2083.31,852.225 "/>
<polyline clip-path="url(#clip002)" style="stroke:#000000; stroke-linecap:round; stroke-linejoin:round; stroke-width:12; stroke-opacity:1; fill:none" points="2290.58,1296.34 2290.58,852.396 "/>
<line clip-path="url(#clip002)" x1="233.944" y1="1270.86" x2="201.944" y2="1270.86" style="stroke:#000000; stroke-width:12; stroke-opacity:1"/>
<line clip-path="url(#clip002)" x1="233.944" y1="1270.86" x2="201.944" y2="1270.86" style="stroke:#000000; stroke-width:12; stroke-opacity:1"/>
<line clip-path="url(#clip002)" x1="441.207" y1="1332.37" x2="409.207" y2="1332.37" style="stroke:#000000; stroke-width:12; stroke-opacity:1"/>
<line clip-path="url(#clip002)" x1="441.207" y1="1144.29" x2="409.207" y2="1144.29" style="stroke:#000000; stroke-width:12; stroke-opacity:1"/>
<line clip-path="url(#clip002)" x1="648.47" y1="1334.02" x2="616.47" y2="1334.02" style="stroke:#000000; stroke-width:12; stroke-opacity:1"/>
<line clip-path="url(#clip002)" x1="648.47" y1="1093.2" x2="616.47" y2="1093.2" style="stroke:#000000; stroke-width:12; stroke-opacity:1"/>
<line clip-path="url(#clip002)" x1="855.734" y1="1318.17" x2="823.734" y2="1318.17" style="stroke:#000000; stroke-width:12; stroke-opacity:1"/>
<line clip-path="url(#clip002)" x1="855.734" y1="1070.4" x2="823.734" y2="1070.4" style="stroke:#000000; stroke-width:12; stroke-opacity:1"/>
<line clip-path="url(#clip002)" x1="1063" y1="1299.23" x2="1031" y2="1299.23" style="stroke:#000000; stroke-width:12; stroke-opacity:1"/>
<line clip-path="url(#clip002)" x1="1063" y1="990.072" x2="1031" y2="990.072" style="stroke:#000000; stroke-width:12; stroke-opacity:1"/>
<line clip-path="url(#clip002)" x1="1270.26" y1="1315.81" x2="1238.26" y2="1315.81" style="stroke:#000000; stroke-width:12; stroke-opacity:1"/>
<line clip-path="url(#clip002)" x1="1270.26" y1="960.639" x2="1238.26" y2="960.639" style="stroke:#000000; stroke-width:12; stroke-opacity:1"/>
<line clip-path="url(#clip002)" x1="1477.52" y1="1330.21" x2="1445.52" y2="1330.21" style="stroke:#000000; stroke-width:12; stroke-opacity:1"/>
<line clip-path="url(#clip002)" x1="1477.52" y1="917.277" x2="1445.52" y2="917.277" style="stroke:#000000; stroke-width:12; stroke-opacity:1"/>
<line clip-path="url(#clip002)" x1="1684.79" y1="1269.7" x2="1652.79" y2="1269.7" style="stroke:#000000; stroke-width:12; stroke-opacity:1"/>
<line clip-path="url(#clip002)" x1="1684.79" y1="736.706" x2="1652.79" y2="736.706" style="stroke:#000000; stroke-width:12; stroke-opacity:1"/>
<line clip-path="url(#clip002)" x1="1892.05" y1="1273.49" x2="1860.05" y2="1273.49" style="stroke:#000000; stroke-width:12; stroke-opacity:1"/>
<line clip-path="url(#clip002)" x1="1892.05" y1="700.612" x2="1860.05" y2="700.612" style="stroke:#000000; stroke-width:12; stroke-opacity:1"/>
<line clip-path="url(#clip002)" x1="2099.31" y1="1298.68" x2="2067.31" y2="1298.68" style="stroke:#000000; stroke-width:12; stroke-opacity:1"/>
<line clip-path="url(#clip002)" x1="2099.31" y1="852.225" x2="2067.31" y2="852.225" style="stroke:#000000; stroke-width:12; stroke-opacity:1"/>
<line clip-path="url(#clip002)" x1="2306.58" y1="1296.34" x2="2274.58" y2="1296.34" style="stroke:#000000; stroke-width:12; stroke-opacity:1"/>
<line clip-path="url(#clip002)" x1="2306.58" y1="852.396" x2="2274.58" y2="852.396" style="stroke:#000000; stroke-width:12; stroke-opacity:1"/>
</svg>
