<?xml version="1.0" encoding="utf-8"?>
<svg xmlns="http://www.w3.org/2000/svg" xmlns:xlink="http://www.w3.org/1999/xlink" width="600" height="400" viewBox="0 0 2400 1600">
<defs>
  <clipPath id="clip940">
    <rect x="0" y="0" width="2400" height="1600"/>
  </clipPath>
</defs>
<path clip-path="url(#clip940)" d="M0 1600 L2400 1600 L2400 0 L0 0  Z" fill="#ffffff" fill-rule="evenodd" fill-opacity="1"/>
<defs>
  <clipPath id="clip941">
    <rect x="480" y="0" width="1681" height="1600"/>
  </clipPath>
</defs>
<path clip-path="url(#clip940)" d="M138.959 1486.45 L2352.76 1486.45 L2352.76 47.2441 L138.959 47.2441  Z" fill="#ffffff" fill-rule="evenodd" fill-opacity="1"/>
<defs>
  <clipPath id="clip942">
    <rect x="138" y="47" width="2215" height="1440"/>
  </clipPath>
</defs>
<polyline clip-path="url(#clip942)" style="stroke:#000000; stroke-linecap:round; stroke-linejoin:round; stroke-width:2; stroke-opacity:0.1; fill:none" points="201.614,1486.45 201.614,47.2441 "/>
<polyline clip-path="url(#clip942)" style="stroke:#000000; stroke-linecap:round; stroke-linejoin:round; stroke-width:2; stroke-opacity:0.1; fill:none" points="723.736,1486.45 723.736,47.2441 "/>
<polyline clip-path="url(#clip942)" style="stroke:#000000; stroke-linecap:round; stroke-linejoin:round; stroke-width:2; stroke-opacity:0.1; fill:none" points="1245.86,1486.45 1245.86,47.2441 "/>
<polyline clip-path="url(#clip942)" style="stroke:#000000; stroke-linecap:round; stroke-linejoin:round; stroke-width:2; stroke-opacity:0.1; fill:none" points="1767.98,1486.45 1767.98,47.2441 "/>
<polyline clip-path="url(#clip942)" style="stroke:#000000; stroke-linecap:round; stroke-linejoin:round; stroke-width:2; stroke-opacity:0.1; fill:none" points="2290.1,1486.45 2290.1,47.2441 "/>
<polyline clip-path="url(#clip942)" style="stroke:#000000; stroke-linecap:round; stroke-linejoin:round; stroke-width:2; stroke-opacity:0.1; fill:none" points="138.959,1449.43 2352.76,1449.43 "/>
<polyline clip-path="url(#clip942)" style="stroke:#000000; stroke-linecap:round; stroke-linejoin:round; stroke-width:2; stroke-opacity:0.1; fill:none" points="138.959,1226.21 2352.76,1226.21 "/>
<polyline clip-path="url(#clip942)" style="stroke:#000000; stroke-linecap:round; stroke-linejoin:round; stroke-width:2; stroke-opacity:0.1; fill:none" points="138.959,1002.98 2352.76,1002.98 "/>
<polyline clip-path="url(#clip942)" style="stroke:#000000; stroke-linecap:round; stroke-linejoin:round; stroke-width:2; stroke-opacity:0.1; fill:none" points="138.959,779.757 2352.76,779.757 "/>
<polyline clip-path="url(#clip942)" style="stroke:#000000; stroke-linecap:round; stroke-linejoin:round; stroke-width:2; stroke-opacity:0.1; fill:none" points="138.959,556.532 2352.76,556.532 "/>
<polyline clip-path="url(#clip942)" style="stroke:#000000; stroke-linecap:round; stroke-linejoin:round; stroke-width:2; stroke-opacity:0.1; fill:none" points="138.959,333.307 2352.76,333.307 "/>
<polyline clip-path="url(#clip942)" style="stroke:#000000; stroke-linecap:round; stroke-linejoin:round; stroke-width:2; stroke-opacity:0.1; fill:none" points="138.959,110.082 2352.76,110.082 "/>
<polyline clip-path="url(#clip940)" style="stroke:#000000; stroke-linecap:round; stroke-linejoin:round; stroke-width:4; stroke-opacity:1; fill:none" points="138.959,1486.45 2352.76,1486.45 "/>
<polyline clip-path="url(#clip940)" style="stroke:#000000; stroke-linecap:round; stroke-linejoin:round; stroke-width:4; stroke-opacity:1; fill:none" points="201.614,1486.45 201.614,1467.55 "/>
<polyline clip-path="url(#clip940)" style="stroke:#000000; stroke-linecap:round; stroke-linejoin:round; stroke-width:4; stroke-opacity:1; fill:none" points="723.736,1486.45 723.736,1467.55 "/>
<polyline clip-path="url(#clip940)" style="stroke:#000000; stroke-linecap:round; stroke-linejoin:round; stroke-width:4; stroke-opacity:1; fill:none" points="1245.86,1486.45 1245.86,1467.55 "/>
<polyline clip-path="url(#clip940)" style="stroke:#000000; stroke-linecap:round; stroke-linejoin:round; stroke-width:4; stroke-opacity:1; fill:none" points="1767.98,1486.45 1767.98,1467.55 "/>
<polyline clip-path="url(#clip940)" style="stroke:#000000; stroke-linecap:round; stroke-linejoin:round; stroke-width:4; stroke-opacity:1; fill:none" points="2290.1,1486.45 2290.1,1467.55 "/>
<path clip-path="url(#clip940)" d="M178.998 1517.37 Q175.387 1517.37 173.559 1520.93 Q171.753 1524.47 171.753 1531.6 Q171.753 1538.71 173.559 1542.27 Q175.387 1545.82 178.998 1545.82 Q182.633 1545.82 184.438 1542.27 Q186.267 1538.71 186.267 1531.6 Q186.267 1524.47 184.438 1520.93 Q182.633 1517.37 178.998 1517.37 M178.998 1513.66 Q184.809 1513.66 187.864 1518.27 Q190.943 1522.85 190.943 1531.6 Q190.943 1540.33 187.864 1544.94 Q184.809 1549.52 178.998 1549.52 Q173.188 1549.52 170.11 1544.94 Q167.054 1540.33 167.054 1531.6 Q167.054 1522.85 170.11 1518.27 Q173.188 1513.66 178.998 1513.66 Z" fill="#000000" fill-rule="nonzero" fill-opacity="1" /><path clip-path="url(#clip940)" d="M199.16 1542.97 L204.045 1542.97 L204.045 1548.85 L199.16 1548.85 L199.16 1542.97 Z" fill="#000000" fill-rule="nonzero" fill-opacity="1" /><path clip-path="url(#clip940)" d="M224.23 1517.37 Q220.619 1517.37 218.79 1520.93 Q216.984 1524.47 216.984 1531.6 Q216.984 1538.71 218.79 1542.27 Q220.619 1545.82 224.23 1545.82 Q227.864 1545.82 229.669 1542.27 Q231.498 1538.71 231.498 1531.6 Q231.498 1524.47 229.669 1520.93 Q227.864 1517.37 224.23 1517.37 M224.23 1513.66 Q230.04 1513.66 233.095 1518.27 Q236.174 1522.85 236.174 1531.6 Q236.174 1540.33 233.095 1544.94 Q230.04 1549.52 224.23 1549.52 Q218.42 1549.52 215.341 1544.94 Q212.285 1540.33 212.285 1531.6 Q212.285 1522.85 215.341 1518.27 Q218.42 1513.66 224.23 1513.66 Z" fill="#000000" fill-rule="nonzero" fill-opacity="1" /><path clip-path="url(#clip940)" d="M695.472 1544.91 L711.791 1544.91 L711.791 1548.85 L689.847 1548.85 L689.847 1544.91 Q692.509 1542.16 697.092 1537.53 Q701.699 1532.88 702.879 1531.53 Q705.125 1529.01 706.004 1527.27 Q706.907 1525.51 706.907 1523.82 Q706.907 1521.07 704.963 1519.33 Q703.042 1517.6 699.94 1517.6 Q697.741 1517.6 695.287 1518.36 Q692.856 1519.13 690.079 1520.68 L690.079 1515.95 Q692.903 1514.82 695.356 1514.24 Q697.81 1513.66 699.847 1513.66 Q705.217 1513.66 708.412 1516.35 Q711.606 1519.03 711.606 1523.52 Q711.606 1525.65 710.796 1527.57 Q710.009 1529.47 707.903 1532.07 Q707.324 1532.74 704.222 1535.95 Q701.12 1539.15 695.472 1544.91 Z" fill="#000000" fill-rule="nonzero" fill-opacity="1" /><path clip-path="url(#clip940)" d="M721.606 1542.97 L726.49 1542.97 L726.49 1548.85 L721.606 1548.85 L721.606 1542.97 Z" fill="#000000" fill-rule="nonzero" fill-opacity="1" /><path clip-path="url(#clip940)" d="M736.722 1514.29 L755.078 1514.29 L755.078 1518.22 L741.004 1518.22 L741.004 1526.7 Q742.023 1526.35 743.041 1526.19 Q744.06 1526 745.078 1526 Q750.865 1526 754.245 1529.17 Q757.625 1532.34 757.625 1537.76 Q757.625 1543.34 754.152 1546.44 Q750.68 1549.52 744.361 1549.52 Q742.185 1549.52 739.916 1549.15 Q737.671 1548.78 735.264 1548.04 L735.264 1543.34 Q737.347 1544.47 739.569 1545.03 Q741.791 1545.58 744.268 1545.58 Q748.273 1545.58 750.611 1543.48 Q752.949 1541.37 752.949 1537.76 Q752.949 1534.15 750.611 1532.04 Q748.273 1529.94 744.268 1529.94 Q742.393 1529.94 740.518 1530.35 Q738.666 1530.77 736.722 1531.65 L736.722 1514.29 Z" fill="#000000" fill-rule="nonzero" fill-opacity="1" /><path clip-path="url(#clip940)" d="M1213.02 1514.29 L1231.38 1514.29 L1231.38 1518.22 L1217.3 1518.22 L1217.3 1526.7 Q1218.32 1526.35 1219.34 1526.19 Q1220.36 1526 1221.38 1526 Q1227.17 1526 1230.55 1529.17 Q1233.92 1532.34 1233.92 1537.76 Q1233.92 1543.34 1230.45 1546.44 Q1226.98 1549.52 1220.66 1549.52 Q1218.49 1549.52 1216.22 1549.15 Q1213.97 1548.78 1211.56 1548.04 L1211.56 1543.34 Q1213.65 1544.47 1215.87 1545.03 Q1218.09 1545.58 1220.57 1545.58 Q1224.57 1545.58 1226.91 1543.48 Q1229.25 1541.37 1229.25 1537.76 Q1229.25 1534.15 1226.91 1532.04 Q1224.57 1529.94 1220.57 1529.94 Q1218.69 1529.94 1216.82 1530.35 Q1214.97 1530.77 1213.02 1531.65 L1213.02 1514.29 Z" fill="#000000" fill-rule="nonzero" fill-opacity="1" /><path clip-path="url(#clip940)" d="M1243.14 1542.97 L1248.02 1542.97 L1248.02 1548.85 L1243.14 1548.85 L1243.14 1542.97 Z" fill="#000000" fill-rule="nonzero" fill-opacity="1" /><path clip-path="url(#clip940)" d="M1268.21 1517.37 Q1264.6 1517.37 1262.77 1520.93 Q1260.96 1524.47 1260.96 1531.6 Q1260.96 1538.71 1262.77 1542.27 Q1264.6 1545.82 1268.21 1545.82 Q1271.84 1545.82 1273.65 1542.27 Q1275.48 1538.71 1275.48 1531.6 Q1275.48 1524.47 1273.65 1520.93 Q1271.84 1517.37 1268.21 1517.37 M1268.21 1513.66 Q1274.02 1513.66 1277.07 1518.27 Q1280.15 1522.85 1280.15 1531.6 Q1280.15 1540.33 1277.07 1544.94 Q1274.02 1549.52 1268.21 1549.52 Q1262.4 1549.52 1259.32 1544.94 Q1256.26 1540.33 1256.26 1531.6 Q1256.26 1522.85 1259.32 1518.27 Q1262.4 1513.66 1268.21 1513.66 Z" fill="#000000" fill-rule="nonzero" fill-opacity="1" /><path clip-path="url(#clip940)" d="M1734.3 1514.29 L1756.52 1514.29 L1756.52 1516.28 L1743.97 1548.85 L1739.09 1548.85 L1750.9 1518.22 L1734.3 1518.22 L1734.3 1514.29 Z" fill="#000000" fill-rule="nonzero" fill-opacity="1" /><path clip-path="url(#clip940)" d="M1765.64 1542.97 L1770.53 1542.97 L1770.53 1548.85 L1765.64 1548.85 L1765.64 1542.97 Z" fill="#000000" fill-rule="nonzero" fill-opacity="1" /><path clip-path="url(#clip940)" d="M1780.76 1514.29 L1799.11 1514.29 L1799.11 1518.22 L1785.04 1518.22 L1785.04 1526.7 Q1786.06 1526.35 1787.08 1526.19 Q1788.1 1526 1789.11 1526 Q1794.9 1526 1798.28 1529.17 Q1801.66 1532.34 1801.66 1537.76 Q1801.66 1543.34 1798.19 1546.44 Q1794.72 1549.52 1788.4 1549.52 Q1786.22 1549.52 1783.95 1549.15 Q1781.71 1548.78 1779.3 1548.04 L1779.3 1543.34 Q1781.38 1544.47 1783.6 1545.03 Q1785.83 1545.58 1788.3 1545.58 Q1792.31 1545.58 1794.65 1543.48 Q1796.98 1541.37 1796.98 1537.76 Q1796.98 1534.15 1794.65 1532.04 Q1792.31 1529.94 1788.3 1529.94 Q1786.43 1529.94 1784.55 1530.35 Q1782.7 1530.77 1780.76 1531.65 L1780.76 1514.29 Z" fill="#000000" fill-rule="nonzero" fill-opacity="1" /><path clip-path="url(#clip940)" d="M2242.17 1544.91 L2249.81 1544.91 L2249.81 1518.55 L2241.5 1520.21 L2241.5 1515.95 L2249.77 1514.29 L2254.44 1514.29 L2254.44 1544.91 L2262.08 1544.91 L2262.08 1548.85 L2242.17 1548.85 L2242.17 1544.91 Z" fill="#000000" fill-rule="nonzero" fill-opacity="1" /><path clip-path="url(#clip940)" d="M2281.52 1517.37 Q2277.91 1517.37 2276.09 1520.93 Q2274.28 1524.47 2274.28 1531.6 Q2274.28 1538.71 2276.09 1542.27 Q2277.91 1545.82 2281.52 1545.82 Q2285.16 1545.82 2286.96 1542.27 Q2288.79 1538.71 2288.79 1531.6 Q2288.79 1524.47 2286.96 1520.93 Q2285.16 1517.37 2281.52 1517.37 M2281.52 1513.66 Q2287.34 1513.66 2290.39 1518.27 Q2293.47 1522.85 2293.47 1531.6 Q2293.47 1540.33 2290.39 1544.94 Q2287.34 1549.52 2281.52 1549.52 Q2275.71 1549.52 2272.64 1544.94 Q2269.58 1540.33 2269.58 1531.6 Q2269.58 1522.85 2272.64 1518.27 Q2275.71 1513.66 2281.52 1513.66 Z" fill="#000000" fill-rule="nonzero" fill-opacity="1" /><path clip-path="url(#clip940)" d="M2301.69 1542.97 L2306.57 1542.97 L2306.57 1548.85 L2301.69 1548.85 L2301.69 1542.97 Z" fill="#000000" fill-rule="nonzero" fill-opacity="1" /><path clip-path="url(#clip940)" d="M2326.76 1517.37 Q2323.15 1517.37 2321.32 1520.93 Q2319.51 1524.47 2319.51 1531.6 Q2319.51 1538.71 2321.32 1542.27 Q2323.15 1545.82 2326.76 1545.82 Q2330.39 1545.82 2332.2 1542.27 Q2334.02 1538.71 2334.02 1531.6 Q2334.02 1524.47 2332.2 1520.93 Q2330.39 1517.37 2326.76 1517.37 M2326.76 1513.66 Q2332.57 1513.66 2335.62 1518.27 Q2338.7 1522.85 2338.7 1531.6 Q2338.7 1540.33 2335.62 1544.94 Q2332.57 1549.52 2326.76 1549.52 Q2320.95 1549.52 2317.87 1544.94 Q2314.81 1540.33 2314.81 1531.6 Q2314.81 1522.85 2317.87 1518.27 Q2320.95 1513.66 2326.76 1513.66 Z" fill="#000000" fill-rule="nonzero" fill-opacity="1" /><polyline clip-path="url(#clip940)" style="stroke:#000000; stroke-linecap:round; stroke-linejoin:round; stroke-width:4; stroke-opacity:1; fill:none" points="138.959,1486.45 138.959,47.2441 "/>
<polyline clip-path="url(#clip940)" style="stroke:#000000; stroke-linecap:round; stroke-linejoin:round; stroke-width:4; stroke-opacity:1; fill:none" points="138.959,1449.43 157.857,1449.43 "/>
<polyline clip-path="url(#clip940)" style="stroke:#000000; stroke-linecap:round; stroke-linejoin:round; stroke-width:4; stroke-opacity:1; fill:none" points="138.959,1226.21 157.857,1226.21 "/>
<polyline clip-path="url(#clip940)" style="stroke:#000000; stroke-linecap:round; stroke-linejoin:round; stroke-width:4; stroke-opacity:1; fill:none" points="138.959,1002.98 157.857,1002.98 "/>
<polyline clip-path="url(#clip940)" style="stroke:#000000; stroke-linecap:round; stroke-linejoin:round; stroke-width:4; stroke-opacity:1; fill:none" points="138.959,779.757 157.857,779.757 "/>
<polyline clip-path="url(#clip940)" style="stroke:#000000; stroke-linecap:round; stroke-linejoin:round; stroke-width:4; stroke-opacity:1; fill:none" points="138.959,556.532 157.857,556.532 "/>
<polyline clip-path="url(#clip940)" style="stroke:#000000; stroke-linecap:round; stroke-linejoin:round; stroke-width:4; stroke-opacity:1; fill:none" points="138.959,333.307 157.857,333.307 "/>
<polyline clip-path="url(#clip940)" style="stroke:#000000; stroke-linecap:round; stroke-linejoin:round; stroke-width:4; stroke-opacity:1; fill:none" points="138.959,110.082 157.857,110.082 "/>
<path clip-path="url(#clip940)" d="M91.0151 1435.23 Q87.404 1435.23 85.5753 1438.8 Q83.7697 1442.34 83.7697 1449.47 Q83.7697 1456.57 85.5753 1460.14 Q87.404 1463.68 91.0151 1463.68 Q94.6493 1463.68 96.4548 1460.14 Q98.2835 1456.57 98.2835 1449.47 Q98.2835 1442.34 96.4548 1438.8 Q94.6493 1435.23 91.0151 1435.23 M91.0151 1431.53 Q96.8252 1431.53 99.8808 1436.13 Q102.959 1440.72 102.959 1449.47 Q102.959 1458.19 99.8808 1462.8 Q96.8252 1467.38 91.0151 1467.38 Q85.2049 1467.38 82.1262 1462.8 Q79.0707 1458.19 79.0707 1449.47 Q79.0707 1440.72 82.1262 1436.13 Q85.2049 1431.53 91.0151 1431.53 Z" fill="#000000" fill-rule="nonzero" fill-opacity="1" /><path clip-path="url(#clip940)" d="M86.6401 1239.55 L102.959 1239.55 L102.959 1243.49 L81.0151 1243.49 L81.0151 1239.55 Q83.6771 1236.8 88.2604 1232.17 Q92.8669 1227.51 94.0475 1226.17 Q96.2928 1223.65 97.1724 1221.91 Q98.0752 1220.15 98.0752 1218.46 Q98.0752 1215.71 96.1308 1213.97 Q94.2095 1212.24 91.1077 1212.24 Q88.9086 1212.24 86.4549 1213 Q84.0244 1213.76 81.2466 1215.32 L81.2466 1210.59 Q84.0707 1209.46 86.5243 1208.88 Q88.978 1208.3 91.0151 1208.3 Q96.3854 1208.3 99.5798 1210.99 Q102.774 1213.67 102.774 1218.16 Q102.774 1220.29 101.964 1222.21 Q101.177 1224.11 99.0706 1226.7 Q98.4919 1227.38 95.39 1230.59 Q92.2882 1233.79 86.6401 1239.55 Z" fill="#000000" fill-rule="nonzero" fill-opacity="1" /><path clip-path="url(#clip940)" d="M93.3762 989.776 L81.5707 1008.22 L93.3762 1008.22 L93.3762 989.776 M92.1493 985.702 L98.0289 985.702 L98.0289 1008.22 L102.959 1008.22 L102.959 1012.11 L98.0289 1012.11 L98.0289 1020.26 L93.3762 1020.26 L93.3762 1012.11 L77.7744 1012.11 L77.7744 1007.6 L92.1493 985.702 Z" fill="#000000" fill-rule="nonzero" fill-opacity="1" /><path clip-path="url(#clip940)" d="M91.4317 777.893 Q88.2836 777.893 86.4318 780.046 Q84.6031 782.199 84.6031 785.949 Q84.6031 789.676 86.4318 791.852 Q88.2836 794.004 91.4317 794.004 Q94.5799 794.004 96.4085 791.852 Q98.2604 789.676 98.2604 785.949 Q98.2604 782.199 96.4085 780.046 Q94.5799 777.893 91.4317 777.893 M100.714 763.241 L100.714 767.5 Q98.9548 766.667 97.1493 766.227 Q95.3669 765.787 93.6076 765.787 Q88.978 765.787 86.5243 768.912 Q84.0938 772.037 83.7466 778.356 Q85.1123 776.342 87.1725 775.278 Q89.2327 774.19 91.7095 774.19 Q96.9178 774.19 99.927 777.361 Q102.959 780.509 102.959 785.949 Q102.959 791.273 99.8113 794.49 Q96.6632 797.708 91.4317 797.708 Q85.4364 797.708 82.2651 793.125 Q79.0938 788.518 79.0938 779.791 Q79.0938 771.597 82.9827 766.736 Q86.8716 761.852 93.4225 761.852 Q95.1817 761.852 96.9641 762.199 Q98.7696 762.546 100.714 763.241 Z" fill="#000000" fill-rule="nonzero" fill-opacity="1" /><path clip-path="url(#clip940)" d="M91.1077 557.4 Q87.7743 557.4 85.8531 559.182 Q83.9549 560.965 83.9549 564.09 Q83.9549 567.214 85.8531 568.997 Q87.7743 570.779 91.1077 570.779 Q94.441 570.779 96.3623 568.997 Q98.2835 567.191 98.2835 564.09 Q98.2835 560.965 96.3623 559.182 Q94.4641 557.4 91.1077 557.4 M86.4318 555.409 Q83.4225 554.668 81.7327 552.608 Q80.066 550.548 80.066 547.585 Q80.066 543.441 83.0058 541.034 Q85.9688 538.627 91.1077 538.627 Q96.2697 538.627 99.2095 541.034 Q102.149 543.441 102.149 547.585 Q102.149 550.548 100.459 552.608 Q98.7928 554.668 95.8067 555.409 Q99.1863 556.196 101.061 558.488 Q102.959 560.779 102.959 564.09 Q102.959 569.113 99.8808 571.798 Q96.8252 574.483 91.1077 574.483 Q85.3901 574.483 82.3114 571.798 Q79.2559 569.113 79.2559 564.09 Q79.2559 560.779 81.154 558.488 Q83.0521 556.196 86.4318 555.409 M84.7188 548.025 Q84.7188 550.71 86.3855 552.215 Q88.0753 553.719 91.1077 553.719 Q94.1169 553.719 95.8067 552.215 Q97.5197 550.71 97.5197 548.025 Q97.5197 545.34 95.8067 543.835 Q94.1169 542.33 91.1077 542.33 Q88.0753 542.33 86.3855 543.835 Q84.7188 545.34 84.7188 548.025 Z" fill="#000000" fill-rule="nonzero" fill-opacity="1" /><path clip-path="url(#clip940)" d="M51.6634 346.651 L59.3023 346.651 L59.3023 320.286 L50.9921 321.953 L50.9921 317.693 L59.256 316.027 L63.9319 316.027 L63.9319 346.651 L71.5707 346.651 L71.5707 350.587 L51.6634 350.587 L51.6634 346.651 Z" fill="#000000" fill-rule="nonzero" fill-opacity="1" /><path clip-path="url(#clip940)" d="M91.0151 319.105 Q87.404 319.105 85.5753 322.67 Q83.7697 326.212 83.7697 333.341 Q83.7697 340.448 85.5753 344.013 Q87.404 347.554 91.0151 347.554 Q94.6493 347.554 96.4548 344.013 Q98.2835 340.448 98.2835 333.341 Q98.2835 326.212 96.4548 322.67 Q94.6493 319.105 91.0151 319.105 M91.0151 315.402 Q96.8252 315.402 99.8808 320.008 Q102.959 324.591 102.959 333.341 Q102.959 342.068 99.8808 346.675 Q96.8252 351.258 91.0151 351.258 Q85.2049 351.258 82.1262 346.675 Q79.0707 342.068 79.0707 333.341 Q79.0707 324.591 82.1262 320.008 Q85.2049 315.402 91.0151 315.402 Z" fill="#000000" fill-rule="nonzero" fill-opacity="1" /><path clip-path="url(#clip940)" d="M53.2606 123.426 L60.8995 123.426 L60.8995 97.0609 L52.5893 98.7275 L52.5893 94.4683 L60.8532 92.8016 L65.5291 92.8016 L65.5291 123.426 L73.1679 123.426 L73.1679 127.362 L53.2606 127.362 L53.2606 123.426 Z" fill="#000000" fill-rule="nonzero" fill-opacity="1" /><path clip-path="url(#clip940)" d="M86.6401 123.426 L102.959 123.426 L102.959 127.362 L81.0151 127.362 L81.0151 123.426 Q83.6771 120.672 88.2604 116.042 Q92.8669 111.389 94.0475 110.047 Q96.2928 107.524 97.1724 105.788 Q98.0752 104.028 98.0752 102.339 Q98.0752 99.584 96.1308 97.8479 Q94.2095 96.1118 91.1077 96.1118 Q88.9086 96.1118 86.4549 96.8757 Q84.0244 97.6396 81.2466 99.1905 L81.2466 94.4683 Q84.0707 93.334 86.5243 92.7553 Q88.978 92.1766 91.0151 92.1766 Q96.3854 92.1766 99.5798 94.8618 Q102.774 97.547 102.774 102.038 Q102.774 104.167 101.964 106.089 Q101.177 107.987 99.0706 110.579 Q98.4919 111.251 95.39 114.468 Q92.2882 117.663 86.6401 123.426 Z" fill="#000000" fill-rule="nonzero" fill-opacity="1" /><path clip-path="url(#clip942)" d="M201.614 1337.82 L222.499 1340.43 L243.384 1336.94 L264.269 1335.94 L285.154 1324.06 L306.038 1305.93 L326.923 1284.64 L347.808 1260.67 L368.693 1231.55 L389.578 1207.96 L410.463 1185.23 L431.348 1141.89 L452.233 1105.88 L473.117 1051.67 L494.002 992.218 L514.887 978.12 L535.772 975.406 L556.657 980.923 L577.542 949.977 L598.427 943.872 L619.312 950.055 L640.196 961.669 L661.081 1048.18 L681.966 1182.51 L702.851 1293.06 L723.736 1346.95 L744.621 1381.47 L765.506 1396.43 L786.39 1406.34 L807.275 1407.54 L828.16 1406.54 L849.045 1403.31 L869.93 1402.21 L890.815 1399.46 L911.7 1392.36 L932.585 1384.99 L953.469 1375.25 L974.354 1358.83 L995.239 1351.02 L1016.12 1336.26 L1037.01 1325.21 L1057.89 1304.81 L1078.78 1288.96 L1099.66 1274.1 L1120.55 1247.29 L1141.43 1225.55 L1162.32 1205.3 L1183.2 1173.23 L1204.09 1149.07 L1224.97 1152.15 L1245.86 1161.86 L1266.74 1165.88 L1287.63 1203.43 L1308.51 1241.62 L1329.4 1264.93 L1350.28 1269.05 L1371.17 1277.16 L1392.05 1294.55 L1412.94 1299.42 L1433.82 1316.89 L1454.71 1322.43 L1475.59 1337.89 L1496.48 1355.72 L1517.36 1371.41 L1538.25 1393.9 L1559.13 1407.93 L1580.02 1413.67 L1600.9 1417.1 L1621.79 1420.44 L1642.67 1416.57 L1663.56 1416.64 L1684.44 1415.8 L1705.32 1414.67 L1726.21 1411.57 L1747.09 1410.03 L1767.98 1405.35 L1788.86 1398.67 L1809.75 1392.81 L1830.63 1379.66 L1851.52 1366.84 L1872.4 1353.26 L1893.29 1337.29 L1914.17 1321.38 L1935.06 1312.87 L1955.94 1315.27 L1976.83 1286.09 L1997.71 1291.85 L2018.6 1281.36 L2039.48 1264.78 L2060.37 1257.08 L2081.25 1266.28 L2102.14 1289.55 L2123.02 1315.16 L2143.91 1320.3 L2164.79 1332.43 L2185.68 1340.38 L2206.56 1340.39 L2227.45 1345.5 L2248.33 1346.94 L2269.22 1357.36 L2290.1 1357.52 L2290.1 573.866 L2269.22 738.075 L2248.33 607.22 L2227.45 469.937 L2206.56 455.214 L2185.68 455.54 L2164.79 452.204 L2143.91 460.827 L2123.02 568.936 L2102.14 655.76 L2081.25 686.966 L2060.37 684.606 L2039.48 658.695 L2018.6 559.956 L1997.71 607.467 L1976.83 691.074 L1955.94 710.848 L1935.06 733.08 L1914.17 750.528 L1893.29 784.386 L1872.4 848.342 L1851.52 877.386 L1830.63 884.362 L1809.75 883.414 L1788.86 958.241 L1767.98 950.414 L1747.09 968.63 L1726.21 986.036 L1705.32 955.466 L1684.44 968.134 L1663.56 1031.76 L1642.67 1039.38 L1621.79 1094.09 L1600.9 1114.33 L1580.02 1101.09 L1559.13 1116.49 L1538.25 1114.21 L1517.36 1131.18 L1496.48 1137.17 L1475.59 982.847 L1454.71 604.555 L1433.82 362.059 L1412.94 87.9763 L1392.05 217.225 L1371.17 430.392 L1350.28 536.058 L1329.4 570.484 L1308.51 681.065 L1287.63 723.959 L1266.74 671.107 L1245.86 672.502 L1224.97 682.718 L1204.09 740.574 L1183.2 791.13 L1162.32 815.962 L1141.43 866.05 L1120.55 912.88 L1099.66 927.018 L1078.78 951.839 L1057.89 995.893 L1037.01 1041.95 L1016.12 1093.78 L995.239 1155.41 L974.354 1159.5 L953.469 1175.06 L932.585 1219.58 L911.7 1228.67 L890.815 1239.6 L869.93 1258.61 L849.045 1286.63 L828.16 1287.16 L807.275 1276.46 L786.39 1265.35 L765.506 1236.54 L744.621 1182.34 L723.736 1117.6 L702.851 998.958 L681.966 867.729 L661.081 741.623 L640.196 638.508 L619.312 579.94 L598.427 526.289 L577.542 489.253 L556.657 577.528 L535.772 669.781 L514.887 763.883 L494.002 899.364 L473.117 945.105 L452.233 958.852 L431.348 988.183 L410.463 1044.77 L389.578 1090.92 L368.693 1117.5 L347.808 1150.72 L326.923 1190.34 L306.038 1221.81 L285.154 1250.33 L264.269 1279.47 L243.384 1295.41 L222.499 1311.6 L201.614 1337.82  Z" fill="#009af9" fill-rule="evenodd" fill-opacity="0.5"/>
<polyline clip-path="url(#clip942)" style="stroke:#009af9; stroke-linecap:round; stroke-linejoin:round; stroke-width:12; stroke-opacity:1; fill:none" points="201.614,1337.82 222.499,1327.09 243.384,1319.25 264.269,1312.13 285.154,1292.82 306.038,1276.86 326.923,1260.03 347.808,1231.86 368.693,1206.25 389.578,1173.36 410.463,1133.31 431.348,1099.15 452.233,1047.74 473.117,981.241 494.002,923.933 514.887,843.29 535.772,798.767 556.657,785.905 577.542,695.869 598.427,683.223 619.312,671.456 640.196,796.763 661.081,930.701 681.966,1066.74 702.851,1175.59 723.736,1247.08 744.621,1287.83 765.506,1304.36 786.39,1311.62 807.275,1329.13 828.16,1338.51 849.045,1339.79 869.93,1337.74 890.815,1335.18 911.7,1332.53 932.585,1319.58 953.469,1312.56 974.354,1298.83 995.239,1283.26 1016.12,1273.22 1037.01,1257.3 1057.89,1228.87 1078.78,1194.68 1099.66,1165.44 1120.55,1119.12 1141.43,1063.33 1162.32,1023.07 1183.2,1014.53 1204.09,1048.72 1224.97,997.01 1245.86,952.353 1266.74,917.758 1287.63,854.148 1308.51,846.513 1329.4,822.808 1350.28,847.671 1371.17,916.884 1392.05,1066.59 1412.94,1169.14 1433.82,1228.67 1454.71,1229.96 1475.59,1224.01 1496.48,1300.98 1517.36,1325.62 1538.25,1329.09 1559.13,1336.6 1580.02,1332.67 1600.9,1329.39 1621.79,1320.87 1642.67,1317.46 1663.56,1313.98 1684.44,1300.74 1705.32,1284.45 1726.21,1268.86 1747.09,1250.08 1767.98,1219.3 1788.86,1187.69 1809.75,1175.41 1830.63,1160.94 1851.52,1130.64 1872.4,1102.73 1893.29,1079.13 1914.17,1071.62 1935.06,1058.73 1955.94,1021.31 1976.83,980.925 1997.71,994.746 2018.6,1028.14 2039.48,1049.04 2060.37,1026.45 2081.25,1072.99 2102.14,1119.26 2123.02,1177.82 2143.91,1218.9 2164.79,1227.21 2185.68,1239.96 2206.56,1242.16 2227.45,1252.42 2248.33,1221.74 2269.22,1256.49 2290.1,1272.39 "/>
<path clip-path="url(#clip942)" d="M201.614 1337.82 L222.499 1363.03 L243.384 1379.96 L264.269 1392.81 L285.154 1402.19 L306.038 1409.07 L326.923 1415.11 L347.808 1419.41 L368.693 1422 L389.578 1424.49 L410.463 1425.63 L431.348 1425.55 L452.233 1426.1 L473.117 1425.52 L494.002 1421.38 L514.887 1416.33 L535.772 1406.15 L556.657 1395.71 L577.542 1377.86 L598.427 1346.76 L619.312 1302.54 L640.196 1246.26 L661.081 1185.39 L681.966 1090.41 L702.851 1063.84 L723.736 1110.35 L744.621 1122.38 L765.506 1175.13 L786.39 1217.31 L807.275 1254.69 L828.16 1281.68 L849.045 1318.02 L869.93 1343.99 L890.815 1366.82 L911.7 1382.78 L932.585 1396.88 L953.469 1406.74 L974.354 1415.32 L995.239 1421.57 L1016.12 1426.6 L1037.01 1430.25 L1057.89 1433.09 L1078.78 1434.66 L1099.66 1436.44 L1120.55 1438.2 L1141.43 1439.54 L1162.32 1440.2 L1183.2 1440.68 L1204.09 1441.1 L1224.97 1441 L1245.86 1441.06 L1266.74 1440.2 L1287.63 1438.72 L1308.51 1436.25 L1329.4 1431.01 L1350.28 1421.52 L1371.17 1402.25 L1392.05 1370.35 L1412.94 1320.05 L1433.82 1339.07 L1454.71 1346.72 L1475.59 1365.96 L1496.48 1368.86 L1517.36 1371.33 L1538.25 1374.19 L1559.13 1383.23 L1580.02 1387.23 L1600.9 1394.18 L1621.79 1398.33 L1642.67 1405.89 L1663.56 1413.5 L1684.44 1417.2 L1705.32 1420.36 L1726.21 1423.86 L1747.09 1426.8 L1767.98 1429.36 L1788.86 1430.84 L1809.75 1433.5 L1830.63 1436.82 L1851.52 1439.55 L1872.4 1441.39 L1893.29 1442.88 L1914.17 1444.12 L1935.06 1444.78 L1955.94 1445.34 L1976.83 1445.66 L1997.71 1445.7 L2018.6 1445.72 L2039.48 1445.53 L2060.37 1445.11 L2081.25 1444.31 L2102.14 1443 L2123.02 1440.24 L2143.91 1434.96 L2164.79 1427.32 L2185.68 1428.53 L2206.56 1429.23 L2227.45 1427.04 L2248.33 1422.97 L2269.22 1414.81 L2290.1 1400.96 L2290.1 727.413 L2269.22 711.424 L2248.33 798.394 L2227.45 922.298 L2206.56 940.505 L2185.68 1010.85 L2164.79 998.65 L2143.91 969.621 L2123.02 963.515 L2102.14 945.992 L2081.25 951.792 L2060.37 971.474 L2039.48 1022.88 L2018.6 1040.89 L1997.71 1082.84 L1976.83 1134.89 L1955.94 1137.42 L1935.06 1166.58 L1914.17 1139.66 L1893.29 1119.51 L1872.4 1142.36 L1851.52 1148.18 L1830.63 1186.41 L1809.75 1209.9 L1788.86 1234.86 L1767.98 1254.35 L1747.09 1271.77 L1726.21 1281.92 L1705.32 1303.81 L1684.44 1306.51 L1663.56 1306.66 L1642.67 1280.94 L1621.79 1235.63 L1600.9 1168.79 L1580.02 1088.59 L1559.13 995.514 L1538.25 873.761 L1517.36 746.449 L1496.48 575.963 L1475.59 490.889 L1454.71 583.426 L1433.82 778.706 L1412.94 913.784 L1392.05 908.794 L1371.17 946.422 L1350.28 926.144 L1329.4 944.44 L1308.51 1023.02 L1287.63 1112.85 L1266.74 1156.98 L1245.86 1153.46 L1224.97 1129.58 L1204.09 1116.15 L1183.2 1136.77 L1162.32 1189.29 L1141.43 1241.41 L1120.55 1279.79 L1099.66 1311.03 L1078.78 1334.46 L1057.89 1346.53 L1037.01 1352.82 L1016.12 1350.51 L995.239 1345.72 L974.354 1340.6 L953.469 1338.79 L932.585 1330.53 L911.7 1320.05 L890.815 1305.76 L869.93 1269.26 L849.045 1233.53 L828.16 1185.88 L807.275 1127.75 L786.39 1083.42 L765.506 1041.88 L744.621 951.697 L723.736 853.077 L702.851 745.516 L681.966 652.506 L661.081 685.469 L640.196 825.91 L619.312 1036.49 L598.427 1189.59 L577.542 1282.75 L556.657 1324.85 L535.772 1336.49 L514.887 1350.1 L494.002 1363.95 L473.117 1374.55 L452.233 1380.61 L431.348 1389.92 L410.463 1397.39 L389.578 1397.7 L368.693 1398.31 L347.808 1401.08 L326.923 1402.07 L306.038 1396.22 L285.154 1389.54 L264.269 1379.49 L243.384 1367.21 L222.499 1352.46 L201.614 1337.82  Z" fill="#e26f46" fill-rule="evenodd" fill-opacity="0.5"/>
<polyline clip-path="url(#clip942)" style="stroke:#e26f46; stroke-linecap:round; stroke-linejoin:round; stroke-width:12; stroke-opacity:1; fill:none" points="201.614,1337.82 222.499,1357.83 243.384,1375.57 264.269,1386.97 285.154,1394.48 306.038,1401.34 326.923,1406.76 347.808,1413.33 368.693,1416.42 389.578,1419.59 410.463,1419.81 431.348,1419.76 452.233,1418.79 473.117,1416.33 494.002,1411.84 514.887,1404.39 535.772,1391.96 556.657,1370.14 577.542,1319.09 598.427,1261.82 619.312,1169.86 640.196,1072.51 661.081,1032.05 681.966,982.953 702.851,963.165 723.736,989.976 744.621,1014.03 765.506,1091.77 786.39,1159.76 807.275,1209.88 828.16,1263.71 849.045,1295.45 869.93,1317.49 890.815,1336.52 911.7,1358.76 932.585,1373.61 953.469,1386.85 974.354,1394.95 995.239,1402.05 1016.12,1407.83 1037.01,1412.5 1057.89,1416.7 1078.78,1419.14 1099.66,1420.48 1120.55,1420.68 1141.43,1420.58 1162.32,1415.19 1183.2,1409.62 1204.09,1402.23 1224.97,1389.73 1245.86,1374.78 1266.74,1349.88 1287.63,1312.28 1308.51,1264.65 1329.4,1245.2 1350.28,1251.98 1371.17,1222.32 1392.05,1198.13 1412.94,1118.07 1433.82,1079.66 1454.71,1067.12 1475.59,1103.23 1496.48,1161.4 1517.36,1218.9 1538.25,1262.03 1559.13,1299.82 1580.02,1326.48 1600.9,1340.03 1621.79,1346.76 1642.67,1356.52 1663.56,1371.94 1684.44,1383.42 1705.32,1393.27 1726.21,1405.69 1747.09,1412.41 1767.98,1415.88 1788.86,1419.35 1809.75,1419.88 1830.63,1419.83 1851.52,1418.82 1872.4,1417.15 1893.29,1412.47 1914.17,1405.71 1935.06,1396.06 1955.94,1381.65 1976.83,1356.25 1997.71,1346.02 2018.6,1337.56 2039.48,1289.44 2060.37,1246.47 2081.25,1223.02 2102.14,1223.44 2123.02,1256.06 2143.91,1281.41 2164.79,1269.39 2185.68,1284.72 2206.56,1286.05 2227.45,1297.24 2248.33,1324.65 2269.22,1345.83 2290.1,1363.48 "/>
</svg>
