<?xml version="1.0" encoding="utf-8"?>
<svg xmlns="http://www.w3.org/2000/svg" xmlns:xlink="http://www.w3.org/1999/xlink" width="600" height="400" viewBox="0 0 2400 1600">
<defs>
  <clipPath id="clip030">
    <rect x="0" y="0" width="2400" height="1600"/>
  </clipPath>
</defs>
<path clip-path="url(#clip030)" d="M0 1600 L2400 1600 L2400 0 L0 0  Z" fill="#ffffff" fill-rule="evenodd" fill-opacity="1"/>
<defs>
  <clipPath id="clip031">
    <rect x="480" y="0" width="1681" height="1600"/>
  </clipPath>
</defs>
<path clip-path="url(#clip030)" d="M156.274 1486.45 L2352.76 1486.45 L2352.76 47.2441 L156.274 47.2441  Z" fill="#ffffff" fill-rule="evenodd" fill-opacity="1"/>
<defs>
  <clipPath id="clip032">
    <rect x="156" y="47" width="2197" height="1440"/>
  </clipPath>
</defs>
<polyline clip-path="url(#clip032)" style="stroke:#000000; stroke-linecap:round; stroke-linejoin:round; stroke-width:2; stroke-opacity:0.1; fill:none" points="218.439,1486.45 218.439,47.2441 "/>
<polyline clip-path="url(#clip032)" style="stroke:#000000; stroke-linecap:round; stroke-linejoin:round; stroke-width:2; stroke-opacity:0.1; fill:none" points="736.477,1486.45 736.477,47.2441 "/>
<polyline clip-path="url(#clip032)" style="stroke:#000000; stroke-linecap:round; stroke-linejoin:round; stroke-width:2; stroke-opacity:0.1; fill:none" points="1254.52,1486.45 1254.52,47.2441 "/>
<polyline clip-path="url(#clip032)" style="stroke:#000000; stroke-linecap:round; stroke-linejoin:round; stroke-width:2; stroke-opacity:0.1; fill:none" points="1772.55,1486.45 1772.55,47.2441 "/>
<polyline clip-path="url(#clip032)" style="stroke:#000000; stroke-linecap:round; stroke-linejoin:round; stroke-width:2; stroke-opacity:0.1; fill:none" points="2290.59,1486.45 2290.59,47.2441 "/>
<polyline clip-path="url(#clip032)" style="stroke:#000000; stroke-linecap:round; stroke-linejoin:round; stroke-width:2; stroke-opacity:0.1; fill:none" points="156.274,1228.73 2352.76,1228.73 "/>
<polyline clip-path="url(#clip032)" style="stroke:#000000; stroke-linecap:round; stroke-linejoin:round; stroke-width:2; stroke-opacity:0.1; fill:none" points="156.274,929.56 2352.76,929.56 "/>
<polyline clip-path="url(#clip032)" style="stroke:#000000; stroke-linecap:round; stroke-linejoin:round; stroke-width:2; stroke-opacity:0.1; fill:none" points="156.274,630.386 2352.76,630.386 "/>
<polyline clip-path="url(#clip032)" style="stroke:#000000; stroke-linecap:round; stroke-linejoin:round; stroke-width:2; stroke-opacity:0.1; fill:none" points="156.274,331.212 2352.76,331.212 "/>
<polyline clip-path="url(#clip030)" style="stroke:#000000; stroke-linecap:round; stroke-linejoin:round; stroke-width:4; stroke-opacity:1; fill:none" points="156.274,1486.45 2352.76,1486.45 "/>
<polyline clip-path="url(#clip030)" style="stroke:#000000; stroke-linecap:round; stroke-linejoin:round; stroke-width:4; stroke-opacity:1; fill:none" points="218.439,1486.45 218.439,1467.55 "/>
<polyline clip-path="url(#clip030)" style="stroke:#000000; stroke-linecap:round; stroke-linejoin:round; stroke-width:4; stroke-opacity:1; fill:none" points="736.477,1486.45 736.477,1467.55 "/>
<polyline clip-path="url(#clip030)" style="stroke:#000000; stroke-linecap:round; stroke-linejoin:round; stroke-width:4; stroke-opacity:1; fill:none" points="1254.52,1486.45 1254.52,1467.55 "/>
<polyline clip-path="url(#clip030)" style="stroke:#000000; stroke-linecap:round; stroke-linejoin:round; stroke-width:4; stroke-opacity:1; fill:none" points="1772.55,1486.45 1772.55,1467.55 "/>
<polyline clip-path="url(#clip030)" style="stroke:#000000; stroke-linecap:round; stroke-linejoin:round; stroke-width:4; stroke-opacity:1; fill:none" points="2290.59,1486.45 2290.59,1467.55 "/>
<path clip-path="url(#clip030)" d="M180.742 1517.37 Q177.131 1517.37 175.302 1520.93 Q173.497 1524.47 173.497 1531.6 Q173.497 1538.71 175.302 1542.27 Q177.131 1545.82 180.742 1545.82 Q184.376 1545.82 186.182 1542.27 Q188.011 1538.71 188.011 1531.6 Q188.011 1524.47 186.182 1520.93 Q184.376 1517.37 180.742 1517.37 M180.742 1513.66 Q186.552 1513.66 189.608 1518.27 Q192.687 1522.85 192.687 1531.6 Q192.687 1540.33 189.608 1544.94 Q186.552 1549.52 180.742 1549.52 Q174.932 1549.52 171.853 1544.94 Q168.798 1540.33 168.798 1531.6 Q168.798 1522.85 171.853 1518.27 Q174.932 1513.66 180.742 1513.66 Z" fill="#000000" fill-rule="nonzero" fill-opacity="1" /><path clip-path="url(#clip030)" d="M200.904 1542.97 L205.788 1542.97 L205.788 1548.85 L200.904 1548.85 L200.904 1542.97 Z" fill="#000000" fill-rule="nonzero" fill-opacity="1" /><path clip-path="url(#clip030)" d="M225.973 1517.37 Q222.362 1517.37 220.534 1520.93 Q218.728 1524.47 218.728 1531.6 Q218.728 1538.71 220.534 1542.27 Q222.362 1545.82 225.973 1545.82 Q229.608 1545.82 231.413 1542.27 Q233.242 1538.71 233.242 1531.6 Q233.242 1524.47 231.413 1520.93 Q229.608 1517.37 225.973 1517.37 M225.973 1513.66 Q231.784 1513.66 234.839 1518.27 Q237.918 1522.85 237.918 1531.6 Q237.918 1540.33 234.839 1544.94 Q231.784 1549.52 225.973 1549.52 Q220.163 1549.52 217.085 1544.94 Q214.029 1540.33 214.029 1531.6 Q214.029 1522.85 217.085 1518.27 Q220.163 1513.66 225.973 1513.66 Z" fill="#000000" fill-rule="nonzero" fill-opacity="1" /><path clip-path="url(#clip030)" d="M256.135 1517.37 Q252.524 1517.37 250.696 1520.93 Q248.89 1524.47 248.89 1531.6 Q248.89 1538.71 250.696 1542.27 Q252.524 1545.82 256.135 1545.82 Q259.77 1545.82 261.575 1542.27 Q263.404 1538.71 263.404 1531.6 Q263.404 1524.47 261.575 1520.93 Q259.77 1517.37 256.135 1517.37 M256.135 1513.66 Q261.945 1513.66 265.001 1518.27 Q268.08 1522.85 268.08 1531.6 Q268.08 1540.33 265.001 1544.94 Q261.945 1549.52 256.135 1549.52 Q250.325 1549.52 247.246 1544.94 Q244.191 1540.33 244.191 1531.6 Q244.191 1522.85 247.246 1518.27 Q250.325 1513.66 256.135 1513.66 Z" fill="#000000" fill-rule="nonzero" fill-opacity="1" /><path clip-path="url(#clip030)" d="M699.278 1517.37 Q695.667 1517.37 693.838 1520.93 Q692.033 1524.47 692.033 1531.6 Q692.033 1538.71 693.838 1542.27 Q695.667 1545.82 699.278 1545.82 Q702.912 1545.82 704.718 1542.27 Q706.546 1538.71 706.546 1531.6 Q706.546 1524.47 704.718 1520.93 Q702.912 1517.37 699.278 1517.37 M699.278 1513.66 Q705.088 1513.66 708.144 1518.27 Q711.222 1522.85 711.222 1531.6 Q711.222 1540.33 708.144 1544.94 Q705.088 1549.52 699.278 1549.52 Q693.468 1549.52 690.389 1544.94 Q687.334 1540.33 687.334 1531.6 Q687.334 1522.85 690.389 1518.27 Q693.468 1513.66 699.278 1513.66 Z" fill="#000000" fill-rule="nonzero" fill-opacity="1" /><path clip-path="url(#clip030)" d="M719.44 1542.97 L724.324 1542.97 L724.324 1548.85 L719.44 1548.85 L719.44 1542.97 Z" fill="#000000" fill-rule="nonzero" fill-opacity="1" /><path clip-path="url(#clip030)" d="M738.537 1544.91 L754.856 1544.91 L754.856 1548.85 L732.912 1548.85 L732.912 1544.91 Q735.574 1542.16 740.157 1537.53 Q744.764 1532.88 745.944 1531.53 Q748.19 1529.01 749.069 1527.27 Q749.972 1525.51 749.972 1523.82 Q749.972 1521.07 748.028 1519.33 Q746.106 1517.6 743.005 1517.6 Q740.806 1517.6 738.352 1518.36 Q735.921 1519.13 733.144 1520.68 L733.144 1515.95 Q735.968 1514.82 738.421 1514.24 Q740.875 1513.66 742.912 1513.66 Q748.282 1513.66 751.477 1516.35 Q754.671 1519.03 754.671 1523.52 Q754.671 1525.65 753.861 1527.57 Q753.074 1529.47 750.968 1532.07 Q750.389 1532.74 747.287 1535.95 Q744.185 1539.15 738.537 1544.91 Z" fill="#000000" fill-rule="nonzero" fill-opacity="1" /><path clip-path="url(#clip030)" d="M764.717 1514.29 L783.074 1514.29 L783.074 1518.22 L769 1518.22 L769 1526.7 Q770.018 1526.35 771.037 1526.19 Q772.055 1526 773.074 1526 Q778.861 1526 782.241 1529.17 Q785.62 1532.34 785.62 1537.76 Q785.62 1543.34 782.148 1546.44 Q778.676 1549.52 772.356 1549.52 Q770.18 1549.52 767.912 1549.15 Q765.667 1548.78 763.259 1548.04 L763.259 1543.34 Q765.342 1544.47 767.565 1545.03 Q769.787 1545.58 772.264 1545.58 Q776.268 1545.58 778.606 1543.48 Q780.944 1541.37 780.944 1537.76 Q780.944 1534.15 778.606 1532.04 Q776.268 1529.94 772.264 1529.94 Q770.389 1529.94 768.514 1530.35 Q766.662 1530.77 764.717 1531.65 L764.717 1514.29 Z" fill="#000000" fill-rule="nonzero" fill-opacity="1" /><path clip-path="url(#clip030)" d="M1216.82 1517.37 Q1213.21 1517.37 1211.38 1520.93 Q1209.57 1524.47 1209.57 1531.6 Q1209.57 1538.71 1211.38 1542.27 Q1213.21 1545.82 1216.82 1545.82 Q1220.45 1545.82 1222.26 1542.27 Q1224.09 1538.71 1224.09 1531.6 Q1224.09 1524.47 1222.26 1520.93 Q1220.45 1517.37 1216.82 1517.37 M1216.82 1513.66 Q1222.63 1513.66 1225.68 1518.27 Q1228.76 1522.85 1228.76 1531.6 Q1228.76 1540.33 1225.68 1544.94 Q1222.63 1549.52 1216.82 1549.52 Q1211.01 1549.52 1207.93 1544.94 Q1204.87 1540.33 1204.87 1531.6 Q1204.87 1522.85 1207.93 1518.27 Q1211.01 1513.66 1216.82 1513.66 Z" fill="#000000" fill-rule="nonzero" fill-opacity="1" /><path clip-path="url(#clip030)" d="M1236.98 1542.97 L1241.86 1542.97 L1241.86 1548.85 L1236.98 1548.85 L1236.98 1542.97 Z" fill="#000000" fill-rule="nonzero" fill-opacity="1" /><path clip-path="url(#clip030)" d="M1252.1 1514.29 L1270.45 1514.29 L1270.45 1518.22 L1256.38 1518.22 L1256.38 1526.7 Q1257.4 1526.35 1258.42 1526.19 Q1259.43 1526 1260.45 1526 Q1266.24 1526 1269.62 1529.17 Q1273 1532.34 1273 1537.76 Q1273 1543.34 1269.53 1546.44 Q1266.05 1549.52 1259.73 1549.52 Q1257.56 1549.52 1255.29 1549.15 Q1253.05 1548.78 1250.64 1548.04 L1250.64 1543.34 Q1252.72 1544.47 1254.94 1545.03 Q1257.17 1545.58 1259.64 1545.58 Q1263.65 1545.58 1265.98 1543.48 Q1268.32 1541.37 1268.32 1537.76 Q1268.32 1534.15 1265.98 1532.04 Q1263.65 1529.94 1259.64 1529.94 Q1257.77 1529.94 1255.89 1530.35 Q1254.04 1530.77 1252.1 1531.65 L1252.1 1514.29 Z" fill="#000000" fill-rule="nonzero" fill-opacity="1" /><path clip-path="url(#clip030)" d="M1292.21 1517.37 Q1288.6 1517.37 1286.77 1520.93 Q1284.97 1524.47 1284.97 1531.6 Q1284.97 1538.71 1286.77 1542.27 Q1288.6 1545.82 1292.21 1545.82 Q1295.85 1545.82 1297.65 1542.27 Q1299.48 1538.71 1299.48 1531.6 Q1299.48 1524.47 1297.65 1520.93 Q1295.85 1517.37 1292.21 1517.37 M1292.21 1513.66 Q1298.02 1513.66 1301.08 1518.27 Q1304.16 1522.85 1304.16 1531.6 Q1304.16 1540.33 1301.08 1544.94 Q1298.02 1549.52 1292.21 1549.52 Q1286.4 1549.52 1283.32 1544.94 Q1280.27 1540.33 1280.27 1531.6 Q1280.27 1522.85 1283.32 1518.27 Q1286.4 1513.66 1292.21 1513.66 Z" fill="#000000" fill-rule="nonzero" fill-opacity="1" /><path clip-path="url(#clip030)" d="M1735.35 1517.37 Q1731.74 1517.37 1729.91 1520.93 Q1728.11 1524.47 1728.11 1531.6 Q1728.11 1538.71 1729.91 1542.27 Q1731.74 1545.82 1735.35 1545.82 Q1738.99 1545.82 1740.79 1542.27 Q1742.62 1538.71 1742.62 1531.6 Q1742.62 1524.47 1740.79 1520.93 Q1738.99 1517.37 1735.35 1517.37 M1735.35 1513.66 Q1741.16 1513.66 1744.22 1518.27 Q1747.3 1522.85 1747.3 1531.6 Q1747.3 1540.33 1744.22 1544.94 Q1741.16 1549.52 1735.35 1549.52 Q1729.54 1549.52 1726.47 1544.94 Q1723.41 1540.33 1723.41 1531.6 Q1723.41 1522.85 1726.47 1518.27 Q1729.54 1513.66 1735.35 1513.66 Z" fill="#000000" fill-rule="nonzero" fill-opacity="1" /><path clip-path="url(#clip030)" d="M1755.52 1542.97 L1760.4 1542.97 L1760.4 1548.85 L1755.52 1548.85 L1755.52 1542.97 Z" fill="#000000" fill-rule="nonzero" fill-opacity="1" /><path clip-path="url(#clip030)" d="M1769.41 1514.29 L1791.63 1514.29 L1791.63 1516.28 L1779.08 1548.85 L1774.2 1548.85 L1786 1518.22 L1769.41 1518.22 L1769.41 1514.29 Z" fill="#000000" fill-rule="nonzero" fill-opacity="1" /><path clip-path="url(#clip030)" d="M1800.79 1514.29 L1819.15 1514.29 L1819.15 1518.22 L1805.08 1518.22 L1805.08 1526.7 Q1806.09 1526.35 1807.11 1526.19 Q1808.13 1526 1809.15 1526 Q1814.94 1526 1818.32 1529.17 Q1821.7 1532.34 1821.7 1537.76 Q1821.7 1543.34 1818.22 1546.44 Q1814.75 1549.52 1808.43 1549.52 Q1806.26 1549.52 1803.99 1549.15 Q1801.74 1548.78 1799.34 1548.04 L1799.34 1543.34 Q1801.42 1544.47 1803.64 1545.03 Q1805.86 1545.58 1808.34 1545.58 Q1812.34 1545.58 1814.68 1543.48 Q1817.02 1541.37 1817.02 1537.76 Q1817.02 1534.15 1814.68 1532.04 Q1812.34 1529.94 1808.34 1529.94 Q1806.47 1529.94 1804.59 1530.35 Q1802.74 1530.77 1800.79 1531.65 L1800.79 1514.29 Z" fill="#000000" fill-rule="nonzero" fill-opacity="1" /><path clip-path="url(#clip030)" d="M2242.66 1544.91 L2250.3 1544.91 L2250.3 1518.55 L2241.99 1520.21 L2241.99 1515.95 L2250.26 1514.29 L2254.93 1514.29 L2254.93 1544.91 L2262.57 1544.91 L2262.57 1548.85 L2242.66 1548.85 L2242.66 1544.91 Z" fill="#000000" fill-rule="nonzero" fill-opacity="1" /><path clip-path="url(#clip030)" d="M2272.02 1542.97 L2276.9 1542.97 L2276.9 1548.85 L2272.02 1548.85 L2272.02 1542.97 Z" fill="#000000" fill-rule="nonzero" fill-opacity="1" /><path clip-path="url(#clip030)" d="M2297.08 1517.37 Q2293.47 1517.37 2291.64 1520.93 Q2289.84 1524.47 2289.84 1531.6 Q2289.84 1538.71 2291.64 1542.27 Q2293.47 1545.82 2297.08 1545.82 Q2300.72 1545.82 2302.52 1542.27 Q2304.35 1538.71 2304.35 1531.6 Q2304.35 1524.47 2302.52 1520.93 Q2300.72 1517.37 2297.08 1517.37 M2297.08 1513.66 Q2302.89 1513.66 2305.95 1518.27 Q2309.03 1522.85 2309.03 1531.6 Q2309.03 1540.33 2305.95 1544.94 Q2302.89 1549.52 2297.08 1549.52 Q2291.27 1549.52 2288.2 1544.94 Q2285.14 1540.33 2285.14 1531.6 Q2285.14 1522.85 2288.2 1518.27 Q2291.27 1513.66 2297.08 1513.66 Z" fill="#000000" fill-rule="nonzero" fill-opacity="1" /><path clip-path="url(#clip030)" d="M2327.25 1517.37 Q2323.64 1517.37 2321.81 1520.93 Q2320 1524.47 2320 1531.6 Q2320 1538.71 2321.81 1542.27 Q2323.64 1545.82 2327.25 1545.82 Q2330.88 1545.82 2332.69 1542.27 Q2334.51 1538.71 2334.51 1531.6 Q2334.51 1524.47 2332.69 1520.93 Q2330.88 1517.37 2327.25 1517.37 M2327.25 1513.66 Q2333.06 1513.66 2336.11 1518.27 Q2339.19 1522.85 2339.19 1531.6 Q2339.19 1540.33 2336.11 1544.94 Q2333.06 1549.52 2327.25 1549.52 Q2321.44 1549.52 2318.36 1544.94 Q2315.3 1540.33 2315.3 1531.6 Q2315.3 1522.85 2318.36 1518.27 Q2321.44 1513.66 2327.25 1513.66 Z" fill="#000000" fill-rule="nonzero" fill-opacity="1" /><polyline clip-path="url(#clip030)" style="stroke:#000000; stroke-linecap:round; stroke-linejoin:round; stroke-width:4; stroke-opacity:1; fill:none" points="156.274,1486.45 156.274,47.2441 "/>
<polyline clip-path="url(#clip030)" style="stroke:#000000; stroke-linecap:round; stroke-linejoin:round; stroke-width:4; stroke-opacity:1; fill:none" points="156.274,1228.73 175.172,1228.73 "/>
<polyline clip-path="url(#clip030)" style="stroke:#000000; stroke-linecap:round; stroke-linejoin:round; stroke-width:4; stroke-opacity:1; fill:none" points="156.274,929.56 175.172,929.56 "/>
<polyline clip-path="url(#clip030)" style="stroke:#000000; stroke-linecap:round; stroke-linejoin:round; stroke-width:4; stroke-opacity:1; fill:none" points="156.274,630.386 175.172,630.386 "/>
<polyline clip-path="url(#clip030)" style="stroke:#000000; stroke-linecap:round; stroke-linejoin:round; stroke-width:4; stroke-opacity:1; fill:none" points="156.274,331.212 175.172,331.212 "/>
<path clip-path="url(#clip030)" d="M62.9365 1214.53 Q59.3254 1214.53 57.4967 1218.1 Q55.6912 1221.64 55.6912 1228.77 Q55.6912 1235.87 57.4967 1239.44 Q59.3254 1242.98 62.9365 1242.98 Q66.5707 1242.98 68.3763 1239.44 Q70.205 1235.87 70.205 1228.77 Q70.205 1221.64 68.3763 1218.1 Q66.5707 1214.53 62.9365 1214.53 M62.9365 1210.83 Q68.7467 1210.83 71.8022 1215.44 Q74.8809 1220.02 74.8809 1228.77 Q74.8809 1237.5 71.8022 1242.1 Q68.7467 1246.69 62.9365 1246.69 Q57.1264 1246.69 54.0477 1242.1 Q50.9921 1237.5 50.9921 1228.77 Q50.9921 1220.02 54.0477 1215.44 Q57.1264 1210.83 62.9365 1210.83 Z" fill="#000000" fill-rule="nonzero" fill-opacity="1" /><path clip-path="url(#clip030)" d="M83.0984 1240.13 L87.9827 1240.13 L87.9827 1246.01 L83.0984 1246.01 L83.0984 1240.13 Z" fill="#000000" fill-rule="nonzero" fill-opacity="1" /><path clip-path="url(#clip030)" d="M108.746 1226.87 Q105.598 1226.87 103.746 1229.02 Q101.918 1231.18 101.918 1234.93 Q101.918 1238.65 103.746 1240.83 Q105.598 1242.98 108.746 1242.98 Q111.895 1242.98 113.723 1240.83 Q115.575 1238.65 115.575 1234.93 Q115.575 1231.18 113.723 1229.02 Q111.895 1226.87 108.746 1226.87 M118.029 1212.22 L118.029 1216.48 Q116.27 1215.64 114.464 1215.2 Q112.682 1214.76 110.922 1214.76 Q106.293 1214.76 103.839 1217.89 Q101.409 1221.01 101.061 1227.33 Q102.427 1225.32 104.487 1224.25 Q106.547 1223.17 109.024 1223.17 Q114.233 1223.17 117.242 1226.34 Q120.274 1229.49 120.274 1234.93 Q120.274 1240.25 117.126 1243.47 Q113.978 1246.69 108.746 1246.69 Q102.751 1246.69 99.5798 1242.1 Q96.4085 1237.5 96.4085 1228.77 Q96.4085 1220.57 100.297 1215.71 Q104.186 1210.83 110.737 1210.83 Q112.496 1210.83 114.279 1211.18 Q116.084 1211.52 118.029 1212.22 Z" fill="#000000" fill-rule="nonzero" fill-opacity="1" /><path clip-path="url(#clip030)" d="M63.1911 915.359 Q59.58 915.359 57.7513 918.923 Q55.9458 922.465 55.9458 929.595 Q55.9458 936.701 57.7513 940.266 Q59.58 943.807 63.1911 943.807 Q66.8254 943.807 68.6309 940.266 Q70.4596 936.701 70.4596 929.595 Q70.4596 922.465 68.6309 918.923 Q66.8254 915.359 63.1911 915.359 M63.1911 911.655 Q69.0013 911.655 72.0568 916.261 Q75.1355 920.845 75.1355 929.595 Q75.1355 938.321 72.0568 942.928 Q69.0013 947.511 63.1911 947.511 Q57.381 947.511 54.3023 942.928 Q51.2468 938.321 51.2468 929.595 Q51.2468 920.845 54.3023 916.261 Q57.381 911.655 63.1911 911.655 Z" fill="#000000" fill-rule="nonzero" fill-opacity="1" /><path clip-path="url(#clip030)" d="M83.3531 940.96 L88.2373 940.96 L88.2373 946.84 L83.3531 946.84 L83.3531 940.96 Z" fill="#000000" fill-rule="nonzero" fill-opacity="1" /><path clip-path="url(#clip030)" d="M108.422 930.428 Q105.089 930.428 103.168 932.21 Q101.27 933.993 101.27 937.118 Q101.27 940.243 103.168 942.025 Q105.089 943.807 108.422 943.807 Q111.756 943.807 113.677 942.025 Q115.598 940.22 115.598 937.118 Q115.598 933.993 113.677 932.21 Q111.779 930.428 108.422 930.428 M103.746 928.437 Q100.737 927.696 99.0474 925.636 Q97.3808 923.576 97.3808 920.613 Q97.3808 916.47 100.321 914.062 Q103.284 911.655 108.422 911.655 Q113.584 911.655 116.524 914.062 Q119.464 916.47 119.464 920.613 Q119.464 923.576 117.774 925.636 Q116.108 927.696 113.121 928.437 Q116.501 929.224 118.376 931.516 Q120.274 933.808 120.274 937.118 Q120.274 942.141 117.195 944.826 Q114.14 947.511 108.422 947.511 Q102.705 947.511 99.6261 944.826 Q96.5706 942.141 96.5706 937.118 Q96.5706 933.808 98.4687 931.516 Q100.367 929.224 103.746 928.437 M102.034 921.053 Q102.034 923.738 103.7 925.243 Q105.39 926.747 108.422 926.747 Q111.432 926.747 113.121 925.243 Q114.834 923.738 114.834 921.053 Q114.834 918.368 113.121 916.863 Q111.432 915.359 108.422 915.359 Q105.39 915.359 103.7 916.863 Q102.034 918.368 102.034 921.053 Z" fill="#000000" fill-rule="nonzero" fill-opacity="1" /><path clip-path="url(#clip030)" d="M53.9088 643.731 L61.5476 643.731 L61.5476 617.365 L53.2375 619.032 L53.2375 614.773 L61.5013 613.106 L66.1772 613.106 L66.1772 643.731 L73.8161 643.731 L73.8161 647.666 L53.9088 647.666 L53.9088 643.731 Z" fill="#000000" fill-rule="nonzero" fill-opacity="1" /><path clip-path="url(#clip030)" d="M83.2605 641.786 L88.1447 641.786 L88.1447 647.666 L83.2605 647.666 L83.2605 641.786 Z" fill="#000000" fill-rule="nonzero" fill-opacity="1" /><path clip-path="url(#clip030)" d="M108.33 616.185 Q104.719 616.185 102.89 619.749 Q101.084 623.291 101.084 630.421 Q101.084 637.527 102.89 641.092 Q104.719 644.634 108.33 644.634 Q111.964 644.634 113.77 641.092 Q115.598 637.527 115.598 630.421 Q115.598 623.291 113.77 619.749 Q111.964 616.185 108.33 616.185 M108.33 612.481 Q114.14 612.481 117.195 617.087 Q120.274 621.671 120.274 630.421 Q120.274 639.147 117.195 643.754 Q114.14 648.337 108.33 648.337 Q102.52 648.337 99.4409 643.754 Q96.3854 639.147 96.3854 630.421 Q96.3854 621.671 99.4409 617.087 Q102.52 612.481 108.33 612.481 Z" fill="#000000" fill-rule="nonzero" fill-opacity="1" /><path clip-path="url(#clip030)" d="M55.506 344.557 L63.1448 344.557 L63.1448 318.191 L54.8347 319.858 L54.8347 315.599 L63.0985 313.932 L67.7744 313.932 L67.7744 344.557 L75.4133 344.557 L75.4133 348.492 L55.506 348.492 L55.506 344.557 Z" fill="#000000" fill-rule="nonzero" fill-opacity="1" /><path clip-path="url(#clip030)" d="M84.8577 342.612 L89.7419 342.612 L89.7419 348.492 L84.8577 348.492 L84.8577 342.612 Z" fill="#000000" fill-rule="nonzero" fill-opacity="1" /><path clip-path="url(#clip030)" d="M103.955 344.557 L120.274 344.557 L120.274 348.492 L98.3298 348.492 L98.3298 344.557 Q100.992 341.802 105.575 337.173 Q110.182 332.52 111.362 331.177 Q113.608 328.654 114.487 326.918 Q115.39 325.159 115.39 323.469 Q115.39 320.714 113.445 318.978 Q111.524 317.242 108.422 317.242 Q106.223 317.242 103.77 318.006 Q101.339 318.77 98.5613 320.321 L98.5613 315.599 Q101.385 314.464 103.839 313.886 Q106.293 313.307 108.33 313.307 Q113.7 313.307 116.895 315.992 Q120.089 318.677 120.089 323.168 Q120.089 325.298 119.279 327.219 Q118.492 329.117 116.385 331.71 Q115.807 332.381 112.705 335.599 Q109.603 338.793 103.955 344.557 Z" fill="#000000" fill-rule="nonzero" fill-opacity="1" /><polyline clip-path="url(#clip032)" style="stroke:#009af9; stroke-linecap:round; stroke-linejoin:round; stroke-width:12; stroke-opacity:1; fill:none" points="218.439,1378.32 425.654,1392.36 632.869,1372.15 840.085,1321.51 1047.3,1151.49 1254.52,1319.77 1461.73,1408.46 1668.95,1217.2 1876.16,1026.27 2083.38,909.009 2290.59,805.618 "/>
<polyline clip-path="url(#clip032)" style="stroke:#e26f46; stroke-linecap:round; stroke-linejoin:round; stroke-width:12; stroke-opacity:1; fill:none" points="218.439,1378.32 425.654,1174.6 632.869,1125.99 840.085,1036.66 1047.3,1042.29 1254.52,802.486 1461.73,1037.77 1668.95,822.816 1876.16,567.761 2083.38,495.949 2290.59,418.978 "/>
<polyline clip-path="url(#clip032)" style="stroke:#3da44d; stroke-linecap:round; stroke-linejoin:round; stroke-width:12; stroke-opacity:1; fill:none" points="218.439,1378.32 425.654,1349.36 632.869,1312.23 840.085,1343.52 1047.3,1253.82 1254.52,1205.3 1461.73,1204.19 1668.95,1333.75 1876.16,1380.36 2083.38,1253.05 2290.59,1085.04 "/>
<polyline clip-path="url(#clip032)" style="stroke:#c271d2; stroke-linecap:round; stroke-linejoin:round; stroke-width:12; stroke-opacity:1; fill:none" points="218.439,1378.32 425.654,1346.3 632.869,1274.24 840.085,1169.14 1047.3,917.381 1254.52,930.528 1461.73,862.112 1668.95,844.134 1876.16,456.901 2083.38,87.9763 2290.59,264.799 "/>
<polyline clip-path="url(#clip032)" style="stroke:#ac8d18; stroke-linecap:round; stroke-linejoin:round; stroke-width:12; stroke-opacity:1; fill:none" points="218.439,1378.32 425.654,1380.05 632.869,1361.81 840.085,1225.75 1047.3,1088.09 1254.52,985.846 1461.73,943.924 1668.95,848.009 1876.16,873.889 2083.38,881.481 2290.59,517.972 "/>
<polyline clip-path="url(#clip032)" style="stroke:#00a9ad; stroke-linecap:round; stroke-linejoin:round; stroke-width:12; stroke-opacity:1; fill:none" points="218.439,1378.32 425.654,1248.77 632.869,1235.64 840.085,1168.85 1047.3,1024.33 1254.52,942.069 1461.73,808.005 1668.95,877.922 1876.16,1045.88 2083.38,1230.72 2290.59,1277.42 "/>
<polyline clip-path="url(#clip032)" style="stroke:#ed5d92; stroke-linecap:round; stroke-linejoin:round; stroke-width:12; stroke-opacity:1; fill:none" points="218.439,1378.32 425.654,1343.69 632.869,1413.53 840.085,1445.72 1047.3,1354.58 1254.52,1201.74 1461.73,1181.27 1668.95,1225.68 1876.16,1188.16 2083.38,1047.5 2290.59,1288.74 "/>
<polyline clip-path="url(#clip032)" style="stroke:#c68125; stroke-linecap:round; stroke-linejoin:round; stroke-width:12; stroke-opacity:1; fill:none" points="218.439,1378.32 425.654,1333.28 632.869,1286.79 840.085,1190.67 1047.3,1059.13 1254.52,862.006 1461.73,803.014 1668.95,584.58 1876.16,584.805 2083.38,481.655 2290.59,143.212 "/>
</svg>
