<?xml version="1.0" encoding="utf-8"?>
<svg xmlns="http://www.w3.org/2000/svg" xmlns:xlink="http://www.w3.org/1999/xlink" width="600" height="400" viewBox="0 0 2400 1600">
<defs>
  <clipPath id="clip540">
    <rect x="0" y="0" width="2400" height="1600"/>
  </clipPath>
</defs>
<path clip-path="url(#clip540)" d="M0 1600 L2400 1600 L2400 0 L0 0  Z" fill="#ffffff" fill-rule="evenodd" fill-opacity="1"/>
<defs>
  <clipPath id="clip541">
    <rect x="184" y="47" width="2170" height="1440"/>
  </clipPath>
</defs>
<path clip-path="url(#clip540)" d="M184.191 1486.45 L2352.76 1486.45 L2352.76 47.2441 L184.191 47.2441  Z" fill="#ffffff" fill-rule="evenodd" fill-opacity="1"/>
<polyline clip-path="url(#clip541)" style="stroke:#000000; stroke-linecap:round; stroke-linejoin:round; stroke-width:2; stroke-opacity:0.1; fill:none" points="245.565,1486.45 245.565,47.2441 "/>
<polyline clip-path="url(#clip541)" style="stroke:#000000; stroke-linecap:round; stroke-linejoin:round; stroke-width:2; stroke-opacity:0.1; fill:none" points="757.019,1486.45 757.019,47.2441 "/>
<polyline clip-path="url(#clip541)" style="stroke:#000000; stroke-linecap:round; stroke-linejoin:round; stroke-width:2; stroke-opacity:0.1; fill:none" points="1268.47,1486.45 1268.47,47.2441 "/>
<polyline clip-path="url(#clip541)" style="stroke:#000000; stroke-linecap:round; stroke-linejoin:round; stroke-width:2; stroke-opacity:0.1; fill:none" points="1779.93,1486.45 1779.93,47.2441 "/>
<polyline clip-path="url(#clip541)" style="stroke:#000000; stroke-linecap:round; stroke-linejoin:round; stroke-width:2; stroke-opacity:0.1; fill:none" points="2291.38,1486.45 2291.38,47.2441 "/>
<polyline clip-path="url(#clip541)" style="stroke:#000000; stroke-linecap:round; stroke-linejoin:round; stroke-width:2; stroke-opacity:0.1; fill:none" points="184.191,1457.87 2352.76,1457.87 "/>
<polyline clip-path="url(#clip541)" style="stroke:#000000; stroke-linecap:round; stroke-linejoin:round; stroke-width:2; stroke-opacity:0.1; fill:none" points="184.191,1124.84 2352.76,1124.84 "/>
<polyline clip-path="url(#clip541)" style="stroke:#000000; stroke-linecap:round; stroke-linejoin:round; stroke-width:2; stroke-opacity:0.1; fill:none" points="184.191,791.808 2352.76,791.808 "/>
<polyline clip-path="url(#clip541)" style="stroke:#000000; stroke-linecap:round; stroke-linejoin:round; stroke-width:2; stroke-opacity:0.1; fill:none" points="184.191,458.779 2352.76,458.779 "/>
<polyline clip-path="url(#clip541)" style="stroke:#000000; stroke-linecap:round; stroke-linejoin:round; stroke-width:2; stroke-opacity:0.1; fill:none" points="184.191,125.75 2352.76,125.75 "/>
<polyline clip-path="url(#clip540)" style="stroke:#000000; stroke-linecap:round; stroke-linejoin:round; stroke-width:4; stroke-opacity:1; fill:none" points="184.191,1486.45 2352.76,1486.45 "/>
<polyline clip-path="url(#clip540)" style="stroke:#000000; stroke-linecap:round; stroke-linejoin:round; stroke-width:4; stroke-opacity:1; fill:none" points="245.565,1486.45 245.565,1467.55 "/>
<polyline clip-path="url(#clip540)" style="stroke:#000000; stroke-linecap:round; stroke-linejoin:round; stroke-width:4; stroke-opacity:1; fill:none" points="757.019,1486.45 757.019,1467.55 "/>
<polyline clip-path="url(#clip540)" style="stroke:#000000; stroke-linecap:round; stroke-linejoin:round; stroke-width:4; stroke-opacity:1; fill:none" points="1268.47,1486.45 1268.47,1467.55 "/>
<polyline clip-path="url(#clip540)" style="stroke:#000000; stroke-linecap:round; stroke-linejoin:round; stroke-width:4; stroke-opacity:1; fill:none" points="1779.93,1486.45 1779.93,1467.55 "/>
<polyline clip-path="url(#clip540)" style="stroke:#000000; stroke-linecap:round; stroke-linejoin:round; stroke-width:4; stroke-opacity:1; fill:none" points="2291.38,1486.45 2291.38,1467.55 "/>
<path clip-path="url(#clip540)" d="M222.95 1517.37 Q219.338 1517.37 217.51 1520.93 Q215.704 1524.47 215.704 1531.6 Q215.704 1538.71 217.51 1542.27 Q219.338 1545.82 222.95 1545.82 Q226.584 1545.82 228.389 1542.27 Q230.218 1538.71 230.218 1531.6 Q230.218 1524.47 228.389 1520.93 Q226.584 1517.37 222.95 1517.37 M222.95 1513.66 Q228.76 1513.66 231.815 1518.27 Q234.894 1522.85 234.894 1531.6 Q234.894 1540.33 231.815 1544.94 Q228.76 1549.52 222.95 1549.52 Q217.139 1549.52 214.061 1544.94 Q211.005 1540.33 211.005 1531.6 Q211.005 1522.85 214.061 1518.27 Q217.139 1513.66 222.95 1513.66 Z" fill="#000000" fill-rule="nonzero" fill-opacity="1" /><path clip-path="url(#clip540)" d="M243.111 1542.97 L247.996 1542.97 L247.996 1548.85 L243.111 1548.85 L243.111 1542.97 Z" fill="#000000" fill-rule="nonzero" fill-opacity="1" /><path clip-path="url(#clip540)" d="M268.181 1517.37 Q264.57 1517.37 262.741 1520.93 Q260.935 1524.47 260.935 1531.6 Q260.935 1538.71 262.741 1542.27 Q264.57 1545.82 268.181 1545.82 Q271.815 1545.82 273.621 1542.27 Q275.449 1538.71 275.449 1531.6 Q275.449 1524.47 273.621 1520.93 Q271.815 1517.37 268.181 1517.37 M268.181 1513.66 Q273.991 1513.66 277.046 1518.27 Q280.125 1522.85 280.125 1531.6 Q280.125 1540.33 277.046 1544.94 Q273.991 1549.52 268.181 1549.52 Q262.371 1549.52 259.292 1544.94 Q256.236 1540.33 256.236 1531.6 Q256.236 1522.85 259.292 1518.27 Q262.371 1513.66 268.181 1513.66 Z" fill="#000000" fill-rule="nonzero" fill-opacity="1" /><path clip-path="url(#clip540)" d="M728.755 1544.91 L745.075 1544.91 L745.075 1548.85 L723.131 1548.85 L723.131 1544.91 Q725.793 1542.16 730.376 1537.53 Q734.982 1532.88 736.163 1531.53 Q738.408 1529.01 739.288 1527.27 Q740.191 1525.51 740.191 1523.82 Q740.191 1521.07 738.246 1519.33 Q736.325 1517.6 733.223 1517.6 Q731.024 1517.6 728.57 1518.36 Q726.14 1519.13 723.362 1520.68 L723.362 1515.95 Q726.186 1514.82 728.64 1514.24 Q731.093 1513.66 733.13 1513.66 Q738.501 1513.66 741.695 1516.35 Q744.89 1519.03 744.89 1523.52 Q744.89 1525.65 744.079 1527.57 Q743.292 1529.47 741.186 1532.07 Q740.607 1532.74 737.505 1535.95 Q734.404 1539.15 728.755 1544.91 Z" fill="#000000" fill-rule="nonzero" fill-opacity="1" /><path clip-path="url(#clip540)" d="M754.89 1542.97 L759.774 1542.97 L759.774 1548.85 L754.89 1548.85 L754.89 1542.97 Z" fill="#000000" fill-rule="nonzero" fill-opacity="1" /><path clip-path="url(#clip540)" d="M770.005 1514.29 L788.362 1514.29 L788.362 1518.22 L774.288 1518.22 L774.288 1526.7 Q775.306 1526.35 776.325 1526.19 Q777.343 1526 778.362 1526 Q784.149 1526 787.528 1529.17 Q790.908 1532.34 790.908 1537.76 Q790.908 1543.34 787.436 1546.44 Q783.964 1549.52 777.644 1549.52 Q775.468 1549.52 773.2 1549.15 Q770.954 1548.78 768.547 1548.04 L768.547 1543.34 Q770.63 1544.47 772.852 1545.03 Q775.075 1545.58 777.552 1545.58 Q781.556 1545.58 783.894 1543.48 Q786.232 1541.37 786.232 1537.76 Q786.232 1534.15 783.894 1532.04 Q781.556 1529.94 777.552 1529.94 Q775.677 1529.94 773.802 1530.35 Q771.95 1530.77 770.005 1531.65 L770.005 1514.29 Z" fill="#000000" fill-rule="nonzero" fill-opacity="1" /><path clip-path="url(#clip540)" d="M1235.64 1514.29 L1253.99 1514.29 L1253.99 1518.22 L1239.92 1518.22 L1239.92 1526.7 Q1240.94 1526.35 1241.96 1526.19 Q1242.98 1526 1243.99 1526 Q1249.78 1526 1253.16 1529.17 Q1256.54 1532.34 1256.54 1537.76 Q1256.54 1543.34 1253.07 1546.44 Q1249.6 1549.52 1243.28 1549.52 Q1241.1 1549.52 1238.83 1549.15 Q1236.59 1548.78 1234.18 1548.04 L1234.18 1543.34 Q1236.26 1544.47 1238.49 1545.03 Q1240.71 1545.58 1243.18 1545.58 Q1247.19 1545.58 1249.53 1543.48 Q1251.86 1541.37 1251.86 1537.76 Q1251.86 1534.15 1249.53 1532.04 Q1247.19 1529.94 1243.18 1529.94 Q1241.31 1529.94 1239.43 1530.35 Q1237.58 1530.77 1235.64 1531.65 L1235.64 1514.29 Z" fill="#000000" fill-rule="nonzero" fill-opacity="1" /><path clip-path="url(#clip540)" d="M1265.75 1542.97 L1270.64 1542.97 L1270.64 1548.85 L1265.75 1548.85 L1265.75 1542.97 Z" fill="#000000" fill-rule="nonzero" fill-opacity="1" /><path clip-path="url(#clip540)" d="M1290.82 1517.37 Q1287.21 1517.37 1285.38 1520.93 Q1283.58 1524.47 1283.58 1531.6 Q1283.58 1538.71 1285.38 1542.27 Q1287.21 1545.82 1290.82 1545.82 Q1294.46 1545.82 1296.26 1542.27 Q1298.09 1538.71 1298.09 1531.6 Q1298.09 1524.47 1296.26 1520.93 Q1294.46 1517.37 1290.82 1517.37 M1290.82 1513.66 Q1296.63 1513.66 1299.69 1518.27 Q1302.77 1522.85 1302.77 1531.6 Q1302.77 1540.33 1299.69 1544.94 Q1296.63 1549.52 1290.82 1549.52 Q1285.01 1549.52 1281.93 1544.94 Q1278.88 1540.33 1278.88 1531.6 Q1278.88 1522.85 1281.93 1518.27 Q1285.01 1513.66 1290.82 1513.66 Z" fill="#000000" fill-rule="nonzero" fill-opacity="1" /><path clip-path="url(#clip540)" d="M1746.25 1514.29 L1768.47 1514.29 L1768.47 1516.28 L1755.92 1548.85 L1751.04 1548.85 L1762.84 1518.22 L1746.25 1518.22 L1746.25 1514.29 Z" fill="#000000" fill-rule="nonzero" fill-opacity="1" /><path clip-path="url(#clip540)" d="M1777.59 1542.97 L1782.47 1542.97 L1782.47 1548.85 L1777.59 1548.85 L1777.59 1542.97 Z" fill="#000000" fill-rule="nonzero" fill-opacity="1" /><path clip-path="url(#clip540)" d="M1792.71 1514.29 L1811.06 1514.29 L1811.06 1518.22 L1796.99 1518.22 L1796.99 1526.7 Q1798.01 1526.35 1799.02 1526.19 Q1800.04 1526 1801.06 1526 Q1806.85 1526 1810.23 1529.17 Q1813.61 1532.34 1813.61 1537.76 Q1813.61 1543.34 1810.14 1546.44 Q1806.66 1549.52 1800.34 1549.52 Q1798.17 1549.52 1795.9 1549.15 Q1793.65 1548.78 1791.25 1548.04 L1791.25 1543.34 Q1793.33 1544.47 1795.55 1545.03 Q1797.77 1545.58 1800.25 1545.58 Q1804.26 1545.58 1806.59 1543.48 Q1808.93 1541.37 1808.93 1537.76 Q1808.93 1534.15 1806.59 1532.04 Q1804.26 1529.94 1800.25 1529.94 Q1798.38 1529.94 1796.5 1530.35 Q1794.65 1530.77 1792.71 1531.65 L1792.71 1514.29 Z" fill="#000000" fill-rule="nonzero" fill-opacity="1" /><path clip-path="url(#clip540)" d="M2243.45 1544.91 L2251.09 1544.91 L2251.09 1518.55 L2242.78 1520.21 L2242.78 1515.95 L2251.05 1514.29 L2255.72 1514.29 L2255.72 1544.91 L2263.36 1544.91 L2263.36 1548.85 L2243.45 1548.85 L2243.45 1544.91 Z" fill="#000000" fill-rule="nonzero" fill-opacity="1" /><path clip-path="url(#clip540)" d="M2282.81 1517.37 Q2279.19 1517.37 2277.37 1520.93 Q2275.56 1524.47 2275.56 1531.6 Q2275.56 1538.71 2277.37 1542.27 Q2279.19 1545.82 2282.81 1545.82 Q2286.44 1545.82 2288.24 1542.27 Q2290.07 1538.71 2290.07 1531.6 Q2290.07 1524.47 2288.24 1520.93 Q2286.44 1517.37 2282.81 1517.37 M2282.81 1513.66 Q2288.62 1513.66 2291.67 1518.27 Q2294.75 1522.85 2294.75 1531.6 Q2294.75 1540.33 2291.67 1544.94 Q2288.62 1549.52 2282.81 1549.52 Q2276.99 1549.52 2273.92 1544.94 Q2270.86 1540.33 2270.86 1531.6 Q2270.86 1522.85 2273.92 1518.27 Q2276.99 1513.66 2282.81 1513.66 Z" fill="#000000" fill-rule="nonzero" fill-opacity="1" /><path clip-path="url(#clip540)" d="M2302.97 1542.97 L2307.85 1542.97 L2307.85 1548.85 L2302.97 1548.85 L2302.97 1542.97 Z" fill="#000000" fill-rule="nonzero" fill-opacity="1" /><path clip-path="url(#clip540)" d="M2328.04 1517.37 Q2324.43 1517.37 2322.6 1520.93 Q2320.79 1524.47 2320.79 1531.6 Q2320.79 1538.71 2322.6 1542.27 Q2324.43 1545.82 2328.04 1545.82 Q2331.67 1545.82 2333.48 1542.27 Q2335.3 1538.71 2335.3 1531.6 Q2335.3 1524.47 2333.48 1520.93 Q2331.67 1517.37 2328.04 1517.37 M2328.04 1513.66 Q2333.85 1513.66 2336.9 1518.27 Q2339.98 1522.85 2339.98 1531.6 Q2339.98 1540.33 2336.9 1544.94 Q2333.85 1549.52 2328.04 1549.52 Q2322.23 1549.52 2319.15 1544.94 Q2316.09 1540.33 2316.09 1531.6 Q2316.09 1522.85 2319.15 1518.27 Q2322.23 1513.66 2328.04 1513.66 Z" fill="#000000" fill-rule="nonzero" fill-opacity="1" /><polyline clip-path="url(#clip540)" style="stroke:#000000; stroke-linecap:round; stroke-linejoin:round; stroke-width:4; stroke-opacity:1; fill:none" points="184.191,1486.45 184.191,47.2441 "/>
<polyline clip-path="url(#clip540)" style="stroke:#000000; stroke-linecap:round; stroke-linejoin:round; stroke-width:4; stroke-opacity:1; fill:none" points="184.191,1457.87 203.088,1457.87 "/>
<polyline clip-path="url(#clip540)" style="stroke:#000000; stroke-linecap:round; stroke-linejoin:round; stroke-width:4; stroke-opacity:1; fill:none" points="184.191,1124.84 203.088,1124.84 "/>
<polyline clip-path="url(#clip540)" style="stroke:#000000; stroke-linecap:round; stroke-linejoin:round; stroke-width:4; stroke-opacity:1; fill:none" points="184.191,791.808 203.088,791.808 "/>
<polyline clip-path="url(#clip540)" style="stroke:#000000; stroke-linecap:round; stroke-linejoin:round; stroke-width:4; stroke-opacity:1; fill:none" points="184.191,458.779 203.088,458.779 "/>
<polyline clip-path="url(#clip540)" style="stroke:#000000; stroke-linecap:round; stroke-linejoin:round; stroke-width:4; stroke-opacity:1; fill:none" points="184.191,125.75 203.088,125.75 "/>
<path clip-path="url(#clip540)" d="M91.0151 1443.67 Q87.404 1443.67 85.5753 1447.23 Q83.7697 1450.77 83.7697 1457.9 Q83.7697 1465.01 85.5753 1468.57 Q87.404 1472.11 91.0151 1472.11 Q94.6493 1472.11 96.4548 1468.57 Q98.2835 1465.01 98.2835 1457.9 Q98.2835 1450.77 96.4548 1447.23 Q94.6493 1443.67 91.0151 1443.67 M91.0151 1439.96 Q96.8252 1439.96 99.8808 1444.57 Q102.959 1449.15 102.959 1457.9 Q102.959 1466.63 99.8808 1471.23 Q96.8252 1475.82 91.0151 1475.82 Q85.2049 1475.82 82.1262 1471.23 Q79.0707 1466.63 79.0707 1457.9 Q79.0707 1449.15 82.1262 1444.57 Q85.2049 1439.96 91.0151 1439.96 Z" fill="#000000" fill-rule="nonzero" fill-opacity="1" /><path clip-path="url(#clip540)" d="M111.177 1469.27 L116.061 1469.27 L116.061 1475.15 L111.177 1475.15 L111.177 1469.27 Z" fill="#000000" fill-rule="nonzero" fill-opacity="1" /><path clip-path="url(#clip540)" d="M136.246 1443.67 Q132.635 1443.67 130.807 1447.23 Q129.001 1450.77 129.001 1457.9 Q129.001 1465.01 130.807 1468.57 Q132.635 1472.11 136.246 1472.11 Q139.881 1472.11 141.686 1468.57 Q143.515 1465.01 143.515 1457.9 Q143.515 1450.77 141.686 1447.23 Q139.881 1443.67 136.246 1443.67 M136.246 1439.96 Q142.056 1439.96 145.112 1444.57 Q148.191 1449.15 148.191 1457.9 Q148.191 1466.63 145.112 1471.23 Q142.056 1475.82 136.246 1475.82 Q130.436 1475.82 127.357 1471.23 Q124.302 1466.63 124.302 1457.9 Q124.302 1449.15 127.357 1444.57 Q130.436 1439.96 136.246 1439.96 Z" fill="#000000" fill-rule="nonzero" fill-opacity="1" /><path clip-path="url(#clip540)" d="M86.0382 1138.18 L102.358 1138.18 L102.358 1142.12 L80.4133 1142.12 L80.4133 1138.18 Q83.0753 1135.43 87.6586 1130.8 Q92.2651 1126.15 93.4456 1124.8 Q95.691 1122.28 96.5706 1120.54 Q97.4734 1118.78 97.4734 1117.09 Q97.4734 1114.34 95.5289 1112.6 Q93.6076 1110.87 90.5058 1110.87 Q88.3067 1110.87 85.8531 1111.63 Q83.4225 1112.4 80.6447 1113.95 L80.6447 1109.22 Q83.4688 1108.09 85.9225 1107.51 Q88.3762 1106.93 90.4132 1106.93 Q95.7836 1106.93 98.978 1109.62 Q102.172 1112.3 102.172 1116.79 Q102.172 1118.92 101.362 1120.84 Q100.575 1122.74 98.4687 1125.34 Q97.89 1126.01 94.7882 1129.22 Q91.6864 1132.42 86.0382 1138.18 Z" fill="#000000" fill-rule="nonzero" fill-opacity="1" /><path clip-path="url(#clip540)" d="M112.172 1136.24 L117.057 1136.24 L117.057 1142.12 L112.172 1142.12 L112.172 1136.24 Z" fill="#000000" fill-rule="nonzero" fill-opacity="1" /><path clip-path="url(#clip540)" d="M127.288 1107.56 L145.644 1107.56 L145.644 1111.49 L131.57 1111.49 L131.57 1119.97 Q132.589 1119.62 133.607 1119.46 Q134.626 1119.27 135.644 1119.27 Q141.431 1119.27 144.811 1122.44 Q148.191 1125.61 148.191 1131.03 Q148.191 1136.61 144.718 1139.71 Q141.246 1142.79 134.927 1142.79 Q132.751 1142.79 130.482 1142.42 Q128.237 1142.05 125.83 1141.31 L125.83 1136.61 Q127.913 1137.74 130.135 1138.3 Q132.357 1138.85 134.834 1138.85 Q138.839 1138.85 141.177 1136.75 Q143.515 1134.64 143.515 1131.03 Q143.515 1127.42 141.177 1125.31 Q138.839 1123.21 134.834 1123.21 Q132.959 1123.21 131.084 1123.62 Q129.232 1124.04 127.288 1124.92 L127.288 1107.56 Z" fill="#000000" fill-rule="nonzero" fill-opacity="1" /><path clip-path="url(#clip540)" d="M81.0614 774.528 L99.4178 774.528 L99.4178 778.464 L85.3438 778.464 L85.3438 786.936 Q86.3623 786.589 87.3808 786.426 Q88.3993 786.241 89.4178 786.241 Q95.2049 786.241 98.5845 789.413 Q101.964 792.584 101.964 798 Q101.964 803.579 98.4919 806.681 Q95.0197 809.76 88.7003 809.76 Q86.5243 809.76 84.2558 809.389 Q82.0105 809.019 79.6031 808.278 L79.6031 803.579 Q81.6864 804.713 83.9086 805.269 Q86.1308 805.825 88.6077 805.825 Q92.6123 805.825 94.9502 803.718 Q97.2882 801.612 97.2882 798 Q97.2882 794.389 94.9502 792.283 Q92.6123 790.176 88.6077 790.176 Q86.7327 790.176 84.8577 790.593 Q83.0058 791.01 81.0614 791.889 L81.0614 774.528 Z" fill="#000000" fill-rule="nonzero" fill-opacity="1" /><path clip-path="url(#clip540)" d="M111.177 803.209 L116.061 803.209 L116.061 809.088 L111.177 809.088 L111.177 803.209 Z" fill="#000000" fill-rule="nonzero" fill-opacity="1" /><path clip-path="url(#clip540)" d="M136.246 777.607 Q132.635 777.607 130.807 781.172 Q129.001 784.714 129.001 791.843 Q129.001 798.95 130.807 802.514 Q132.635 806.056 136.246 806.056 Q139.881 806.056 141.686 802.514 Q143.515 798.95 143.515 791.843 Q143.515 784.714 141.686 781.172 Q139.881 777.607 136.246 777.607 M136.246 773.903 Q142.056 773.903 145.112 778.51 Q148.191 783.093 148.191 791.843 Q148.191 800.57 145.112 805.176 Q142.056 809.76 136.246 809.76 Q130.436 809.76 127.357 805.176 Q124.302 800.57 124.302 791.843 Q124.302 783.093 127.357 778.51 Q130.436 773.903 136.246 773.903 Z" fill="#000000" fill-rule="nonzero" fill-opacity="1" /><path clip-path="url(#clip540)" d="M80.8299 441.499 L103.052 441.499 L103.052 443.49 L90.5058 476.059 L85.6216 476.059 L97.4271 445.434 L80.8299 445.434 L80.8299 441.499 Z" fill="#000000" fill-rule="nonzero" fill-opacity="1" /><path clip-path="url(#clip540)" d="M112.172 470.179 L117.057 470.179 L117.057 476.059 L112.172 476.059 L112.172 470.179 Z" fill="#000000" fill-rule="nonzero" fill-opacity="1" /><path clip-path="url(#clip540)" d="M127.288 441.499 L145.644 441.499 L145.644 445.434 L131.57 445.434 L131.57 453.906 Q132.589 453.559 133.607 453.397 Q134.626 453.212 135.644 453.212 Q141.431 453.212 144.811 456.383 Q148.191 459.555 148.191 464.971 Q148.191 470.55 144.718 473.652 Q141.246 476.73 134.927 476.73 Q132.751 476.73 130.482 476.36 Q128.237 475.99 125.83 475.249 L125.83 470.55 Q127.913 471.684 130.135 472.24 Q132.357 472.795 134.834 472.795 Q138.839 472.795 141.177 470.689 Q143.515 468.582 143.515 464.971 Q143.515 461.36 141.177 459.254 Q138.839 457.147 134.834 457.147 Q132.959 457.147 131.084 457.564 Q129.232 457.98 127.288 458.86 L127.288 441.499 Z" fill="#000000" fill-rule="nonzero" fill-opacity="1" /><path clip-path="url(#clip540)" d="M51.6634 139.095 L59.3023 139.095 L59.3023 112.729 L50.9921 114.396 L50.9921 110.136 L59.256 108.47 L63.9319 108.47 L63.9319 139.095 L71.5707 139.095 L71.5707 143.03 L51.6634 143.03 L51.6634 139.095 Z" fill="#000000" fill-rule="nonzero" fill-opacity="1" /><path clip-path="url(#clip540)" d="M91.0151 111.548 Q87.404 111.548 85.5753 115.113 Q83.7697 118.655 83.7697 125.784 Q83.7697 132.891 85.5753 136.456 Q87.404 139.997 91.0151 139.997 Q94.6493 139.997 96.4548 136.456 Q98.2835 132.891 98.2835 125.784 Q98.2835 118.655 96.4548 115.113 Q94.6493 111.548 91.0151 111.548 M91.0151 107.845 Q96.8252 107.845 99.8808 112.451 Q102.959 117.035 102.959 125.784 Q102.959 134.511 99.8808 139.118 Q96.8252 143.701 91.0151 143.701 Q85.2049 143.701 82.1262 139.118 Q79.0707 134.511 79.0707 125.784 Q79.0707 117.035 82.1262 112.451 Q85.2049 107.845 91.0151 107.845 Z" fill="#000000" fill-rule="nonzero" fill-opacity="1" /><path clip-path="url(#clip540)" d="M111.177 137.15 L116.061 137.15 L116.061 143.03 L111.177 143.03 L111.177 137.15 Z" fill="#000000" fill-rule="nonzero" fill-opacity="1" /><path clip-path="url(#clip540)" d="M136.246 111.548 Q132.635 111.548 130.807 115.113 Q129.001 118.655 129.001 125.784 Q129.001 132.891 130.807 136.456 Q132.635 139.997 136.246 139.997 Q139.881 139.997 141.686 136.456 Q143.515 132.891 143.515 125.784 Q143.515 118.655 141.686 115.113 Q139.881 111.548 136.246 111.548 M136.246 107.845 Q142.056 107.845 145.112 112.451 Q148.191 117.035 148.191 125.784 Q148.191 134.511 145.112 139.118 Q142.056 143.701 136.246 143.701 Q130.436 143.701 127.357 139.118 Q124.302 134.511 124.302 125.784 Q124.302 117.035 127.357 112.451 Q130.436 107.845 136.246 107.845 Z" fill="#000000" fill-rule="nonzero" fill-opacity="1" /><path clip-path="url(#clip541)" d="M245.565 1324.66 L266.023 1326.62 L286.481 1324.38 L306.94 1313.17 L327.398 1300.27 L347.856 1282.03 L368.314 1262.66 L388.772 1243.52 L409.23 1208.23 L429.689 1180.43 L450.147 1149.02 L470.605 1092.21 L491.063 1056.03 L511.521 1027.44 L531.979 999.159 L552.438 957.759 L572.896 933.349 L593.354 897.854 L613.812 847.444 L634.27 790.239 L654.728 757.475 L675.187 842.642 L695.645 1019.16 L716.103 1169.34 L736.561 1255.18 L757.019 1300.1 L777.477 1343.46 L797.936 1364.17 L818.394 1378.56 L838.852 1383.97 L859.31 1392.1 L879.768 1394.16 L900.226 1393.84 L920.685 1388.61 L941.143 1380.15 L961.601 1375.82 L982.059 1365.41 L1002.52 1359.14 L1022.98 1339.33 L1043.43 1331.53 L1063.89 1312.42 L1084.35 1295.9 L1104.81 1273.26 L1125.27 1251.46 L1145.72 1237.52 L1166.18 1215.52 L1186.64 1153.4 L1207.1 1111.18 L1227.56 1063.28 L1248.02 994.464 L1268.47 935.068 L1288.93 920.01 L1309.39 986.847 L1329.85 996.468 L1350.31 1040.53 L1370.76 1123.58 L1391.22 1205.09 L1411.68 1271.51 L1432.14 1307.54 L1452.6 1326.27 L1473.05 1332.49 L1493.51 1363.91 L1513.97 1386.55 L1534.43 1393.8 L1554.89 1397.31 L1575.35 1393.3 L1595.8 1396.97 L1616.26 1399.43 L1636.72 1395.15 L1657.18 1393.1 L1677.64 1390.04 L1698.09 1385.26 L1718.55 1380.44 L1739.01 1368.56 L1759.47 1353.52 L1779.93 1337.95 L1800.39 1328.01 L1820.84 1317.87 L1841.3 1289.3 L1861.76 1280.33 L1882.22 1244.83 L1902.68 1214.66 L1923.13 1172.91 L1943.59 1135.59 L1964.05 1112.82 L1984.51 1087.55 L2004.97 1066.13 L2025.43 1145.65 L2045.88 1171.88 L2066.34 1188.26 L2086.8 1201.44 L2107.26 1235.5 L2127.72 1282.07 L2148.17 1307.07 L2168.63 1327.42 L2189.09 1337.38 L2209.55 1345.97 L2230.01 1357.52 L2250.47 1359.44 L2270.92 1361.7 L2291.38 1358.6 L2291.38 797.84 L2270.92 606.739 L2250.47 492.605 L2230.01 545.044 L2209.55 571.646 L2189.09 631.981 L2168.63 655.395 L2148.17 607.074 L2127.72 601.226 L2107.26 574.679 L2086.8 493.399 L2066.34 390.335 L2045.88 295.618 L2025.43 402.382 L2004.97 463.692 L1984.51 543.081 L1964.05 615.657 L1943.59 666.296 L1923.13 727.888 L1902.68 740.178 L1882.22 719.265 L1861.76 784.457 L1841.3 867.586 L1820.84 886.18 L1800.39 934.24 L1779.93 949.254 L1759.47 973.616 L1739.01 995.071 L1718.55 1071.56 L1698.09 1097.47 L1677.64 1120.29 L1657.18 1158.21 L1636.72 1178.55 L1616.26 1205.26 L1595.8 1219.47 L1575.35 1220.13 L1554.89 1225.25 L1534.43 1159.25 L1513.97 1100.59 L1493.51 1036.1 L1473.05 876.979 L1452.6 795.326 L1432.14 435.517 L1411.68 87.9763 L1391.22 124.682 L1370.76 138.448 L1350.31 234.652 L1329.85 346.494 L1309.39 385.103 L1288.93 334.258 L1268.47 508.929 L1248.02 557.911 L1227.56 658.815 L1207.1 732.135 L1186.64 802.094 L1166.18 881.904 L1145.72 967.972 L1125.27 1004.32 L1104.81 1054.07 L1084.35 1068.06 L1063.89 1057.03 L1043.43 1087.43 L1022.98 1117.4 L1002.52 1148.04 L982.059 1178.54 L961.601 1206.44 L941.143 1217 L920.685 1216.92 L900.226 1216.31 L879.768 1222.94 L859.31 1211.54 L838.852 1197.51 L818.394 1169.37 L797.936 1096.01 L777.477 987.668 L757.019 777.962 L736.561 530.079 L716.103 440.722 L695.645 444.675 L675.187 502.666 L654.728 512.205 L634.27 468.826 L613.812 477.865 L593.354 537.674 L572.896 580.943 L552.438 666.938 L531.979 743.986 L511.521 763.47 L491.063 846.023 L470.605 927.537 L450.147 1018.13 L429.689 1055.57 L409.23 1108.18 L388.772 1185.26 L368.314 1210.27 L347.856 1246.02 L327.398 1271.53 L306.94 1288.71 L286.481 1294.84 L266.023 1312.03 L245.565 1324.66  Z" fill="#009af9" fill-rule="evenodd" fill-opacity="0.5"/>
<polyline clip-path="url(#clip541)" style="stroke:#009af9; stroke-linecap:round; stroke-linejoin:round; stroke-width:12; stroke-opacity:1; fill:none" points="245.565,1324.66 266.023,1319.55 286.481,1310.53 306.94,1302.53 327.398,1281.28 347.856,1259 368.314,1237.98 388.772,1208.28 409.23,1175.73 429.689,1131.05 450.147,1095.72 470.605,1031.65 491.063,974.007 511.521,921.385 531.979,851.41 552.438,798.434 572.896,719.757 593.354,671.649 613.812,623.581 634.27,570.568 654.728,580.016 675.187,667.755 695.645,857.224 716.103,981.57 736.561,1080.03 757.019,1155.21 777.477,1217.51 797.936,1264.1 818.394,1302.51 838.852,1327.33 859.31,1333.36 879.768,1335.23 900.226,1333.22 920.685,1330.74 941.143,1328.95 961.601,1319.68 982.059,1305.99 1002.52,1300.71 1022.98,1283.12 1043.43,1258.25 1063.89,1230.58 1084.35,1208.9 1104.81,1187.01 1125.27,1148.25 1145.72,1097.19 1166.18,1056.63 1186.64,1009.29 1207.1,950.662 1227.56,895.941 1248.02,845.85 1268.47,797.823 1288.93,723.171 1309.39,627.542 1329.85,561.684 1350.31,618.091 1370.76,613.267 1391.22,718.281 1411.68,869.833 1432.14,976.072 1452.6,1074.15 1473.05,1224.96 1493.51,1260.03 1513.97,1275.03 1534.43,1309.64 1554.89,1333.2 1575.35,1337.53 1595.8,1342.21 1616.26,1339.06 1636.72,1330.71 1657.18,1325.75 1677.64,1310.95 1698.09,1292.58 1718.55,1270.63 1739.01,1244.62 1759.47,1227.65 1779.93,1209.24 1800.39,1175.62 1820.84,1138.54 1841.3,1097.81 1861.76,1041.4 1882.22,979.844 1902.68,958.666 1923.13,900.81 1943.59,846.596 1964.05,783.983 1984.51,679.195 2004.97,584.286 2025.43,620.269 2045.88,684.782 2066.34,686.969 2086.8,684.251 2107.26,850.119 2127.72,1037.89 2148.17,1131 2168.63,1190.55 2189.09,1230.51 2209.55,1276.27 2230.01,1294.04 2250.47,1313.86 2270.92,1319.3 2291.38,1323.63 "/>
<path clip-path="url(#clip541)" d="M245.565 1324.66 L266.023 1354.46 L286.481 1376.37 L306.94 1387.62 L327.398 1400.9 L347.856 1410.7 L368.314 1416.28 L388.772 1422.52 L409.23 1425.46 L429.689 1427.33 L450.147 1428.68 L470.605 1431.04 L491.063 1430.11 L511.521 1429.7 L531.979 1427.62 L552.438 1423.77 L572.896 1419.36 L593.354 1414.59 L613.812 1406.27 L634.27 1393.83 L654.728 1371.9 L675.187 1334.74 L695.645 1267.79 L716.103 1156.4 L736.561 1079.32 L757.019 1075.8 L777.477 1109.79 L797.936 1133.62 L818.394 1172.49 L838.852 1219.75 L859.31 1266.9 L879.768 1300.05 L900.226 1331.34 L920.685 1359.1 L941.143 1380.34 L961.601 1394.85 L982.059 1406.28 L1002.52 1416.25 L1022.98 1425.17 L1043.43 1430.43 L1063.89 1435.05 L1084.35 1437.98 L1104.81 1440.93 L1125.27 1441.76 L1145.72 1443.35 L1166.18 1443.98 L1186.64 1444.8 L1207.1 1445.22 L1227.56 1445.72 L1248.02 1445.67 L1268.47 1444.95 L1288.93 1443.06 L1309.39 1439.33 L1329.85 1433.21 L1350.31 1420.05 L1370.76 1391.55 L1391.22 1325.17 L1411.68 1246.55 L1432.14 1207.29 L1452.6 1183.1 L1473.05 1178.74 L1493.51 1228.8 L1513.97 1273.66 L1534.43 1309.23 L1554.89 1338.01 L1575.35 1355.7 L1595.8 1372.17 L1616.26 1385.75 L1636.72 1394.07 L1657.18 1400.25 L1677.64 1407.05 L1698.09 1416.21 L1718.55 1422.56 L1739.01 1426.71 L1759.47 1431.22 L1779.93 1435.55 L1800.39 1439.22 L1820.84 1442.03 L1841.3 1443.7 L1861.76 1444.56 L1882.22 1445.27 L1902.68 1445.5 L1923.13 1444.37 L1943.59 1443.3 L1964.05 1441.86 L1984.51 1439.64 L2004.97 1435.86 L2025.43 1429.25 L2045.88 1419.51 L2066.34 1404.52 L2086.8 1377.88 L2107.26 1373.95 L2127.72 1377.38 L2148.17 1382.9 L2168.63 1380.24 L2189.09 1377.2 L2209.55 1368.12 L2230.01 1350.05 L2250.47 1348.46 L2270.92 1356.94 L2291.38 1375.82 L2291.38 848.381 L2270.92 976.359 L2250.47 1031.53 L2230.01 950.432 L2209.55 880.564 L2189.09 844.4 L2168.63 825.678 L2148.17 740.512 L2127.72 682.668 L2107.26 756.332 L2086.8 851.505 L2066.34 938.495 L2045.88 963.864 L2025.43 990.578 L2004.97 999.431 L1984.51 1048.13 L1964.05 1103.6 L1943.59 1147.4 L1923.13 1202.15 L1902.68 1245.82 L1882.22 1259.15 L1861.76 1283.93 L1841.3 1305.11 L1820.84 1312.89 L1800.39 1336.6 L1779.93 1344.06 L1759.47 1350.49 L1739.01 1340.24 L1718.55 1335.68 L1698.09 1321.51 L1677.64 1304.52 L1657.18 1284.45 L1636.72 1243.24 L1616.26 1195.54 L1595.8 1137.94 L1575.35 1066.82 L1554.89 981.757 L1534.43 910.111 L1513.97 801.259 L1493.51 643.329 L1473.05 499.787 L1452.6 444.689 L1432.14 560.844 L1411.68 696.728 L1391.22 670.741 L1370.76 748.843 L1350.31 845.6 L1329.85 982.147 L1309.39 1051.27 L1288.93 1115.62 L1268.47 1151.32 L1248.02 1194.58 L1227.56 1234.09 L1207.1 1287.14 L1186.64 1312.9 L1166.18 1324.15 L1145.72 1324.36 L1125.27 1328.62 L1104.81 1334.6 L1084.35 1341.82 L1063.89 1343.72 L1043.43 1348.9 L1022.98 1341.13 L1002.52 1323.89 L982.059 1305.95 L961.601 1281.58 L941.143 1254.63 L920.685 1206.04 L900.226 1145.91 L879.768 1072.82 L859.31 987.367 L838.852 895.781 L818.394 806.965 L797.936 736.682 L777.477 717.484 L757.019 748.842 L736.561 768.345 L716.103 673.417 L695.645 669.323 L675.187 774.024 L654.728 935.317 L634.27 1120.12 L613.812 1237.15 L593.354 1296.91 L572.896 1329.76 L552.438 1362.33 L531.979 1376.51 L511.521 1385.77 L491.063 1398.9 L470.605 1403.63 L450.147 1404.85 L429.689 1408.82 L409.23 1405.48 L388.772 1404.75 L368.314 1400.12 L347.856 1393.73 L327.398 1383.52 L306.94 1373.36 L286.481 1353.1 L266.023 1338.23 L245.565 1324.66  Z" fill="#e26f46" fill-rule="evenodd" fill-opacity="0.5"/>
<polyline clip-path="url(#clip541)" style="stroke:#e26f46; stroke-linecap:round; stroke-linejoin:round; stroke-width:12; stroke-opacity:1; fill:none" points="245.565,1324.66 266.023,1348.25 286.481,1367 306.94,1382.15 327.398,1394.46 347.856,1403.01 368.314,1409.85 388.772,1414.73 409.23,1418.84 429.689,1421.56 450.147,1422.98 470.605,1423.17 491.063,1421.48 511.521,1417.55 531.979,1412.33 552.438,1402.54 572.896,1387.31 593.354,1362.53 613.812,1322.39 634.27,1252.06 654.728,1165.97 675.187,1084.94 695.645,1002.85 716.103,901.499 736.561,863.07 757.019,885.843 777.477,941.401 797.936,1025.52 818.394,1098.02 838.852,1145.49 859.31,1201.18 879.768,1252.77 900.226,1281.66 920.685,1304.51 941.143,1330.42 961.601,1353.57 982.059,1370.32 1002.52,1382.73 1022.98,1393.94 1043.43,1403.05 1063.89,1412.09 1084.35,1417.66 1104.81,1421.49 1125.27,1424.62 1145.72,1426.92 1166.18,1428.44 1186.64,1426.95 1207.1,1422.84 1227.56,1421.83 1248.02,1416.09 1268.47,1403.49 1288.93,1380.96 1309.39,1351.25 1329.85,1286.19 1350.31,1233.78 1370.76,1177.76 1391.22,1127.29 1411.68,1003.58 1432.14,875.677 1452.6,925.884 1473.05,984.096 1493.51,1019.95 1513.97,1065.85 1534.43,1124.75 1554.89,1192.02 1575.35,1239.58 1595.8,1286.14 1616.26,1307.17 1636.72,1330 1657.18,1348.97 1677.64,1375.19 1698.09,1391.13 1718.55,1398.4 1739.01,1404.74 1759.47,1413.46 1779.93,1419.43 1800.39,1424.06 1820.84,1426.58 1841.3,1427.43 1861.76,1425.46 1882.22,1422.15 1902.68,1422.39 1923.13,1421.81 1943.59,1419.91 1964.05,1414.92 1984.51,1403.6 2004.97,1380.36 2025.43,1338.45 2045.88,1265.72 2066.34,1166.96 2086.8,1043.91 2107.26,1035.26 2127.72,979.424 2148.17,957.157 2168.63,980.804 2189.09,1068.11 2209.55,1138.37 2230.01,1210.59 2250.47,1223.87 2270.92,1258.51 2291.38,1286.63 "/>
</svg>
