<?xml version="1.0" encoding="utf-8"?>
<svg xmlns="http://www.w3.org/2000/svg" xmlns:xlink="http://www.w3.org/1999/xlink" width="600" height="400" viewBox="0 0 2400 1600">
<defs>
  <clipPath id="clip600">
    <rect x="0" y="0" width="2400" height="1600"/>
  </clipPath>
</defs>
<path clip-path="url(#clip600)" d="M0 1600 L2400 1600 L2400 0 L0 0  Z" fill="#ffffff" fill-rule="evenodd" fill-opacity="1"/>
<defs>
  <clipPath id="clip601">
    <rect x="155" y="47" width="2198" height="1440"/>
  </clipPath>
</defs>
<path clip-path="url(#clip600)" d="M155.765 1486.45 L2352.76 1486.45 L2352.76 47.2441 L155.765 47.2441  Z" fill="#ffffff" fill-rule="evenodd" fill-opacity="1"/>
<polyline clip-path="url(#clip601)" style="stroke:#000000; stroke-linecap:round; stroke-linejoin:round; stroke-width:2; stroke-opacity:0.1; fill:none" points="217.944,1486.45 217.944,47.2441 "/>
<polyline clip-path="url(#clip601)" style="stroke:#000000; stroke-linecap:round; stroke-linejoin:round; stroke-width:2; stroke-opacity:0.1; fill:none" points="736.102,1486.45 736.102,47.2441 "/>
<polyline clip-path="url(#clip601)" style="stroke:#000000; stroke-linecap:round; stroke-linejoin:round; stroke-width:2; stroke-opacity:0.1; fill:none" points="1254.26,1486.45 1254.26,47.2441 "/>
<polyline clip-path="url(#clip601)" style="stroke:#000000; stroke-linecap:round; stroke-linejoin:round; stroke-width:2; stroke-opacity:0.1; fill:none" points="1772.42,1486.45 1772.42,47.2441 "/>
<polyline clip-path="url(#clip601)" style="stroke:#000000; stroke-linecap:round; stroke-linejoin:round; stroke-width:2; stroke-opacity:0.1; fill:none" points="2290.58,1486.45 2290.58,47.2441 "/>
<polyline clip-path="url(#clip601)" style="stroke:#000000; stroke-linecap:round; stroke-linejoin:round; stroke-width:2; stroke-opacity:0.1; fill:none" points="155.765,1347.24 2352.76,1347.24 "/>
<polyline clip-path="url(#clip601)" style="stroke:#000000; stroke-linecap:round; stroke-linejoin:round; stroke-width:2; stroke-opacity:0.1; fill:none" points="155.765,1117.09 2352.76,1117.09 "/>
<polyline clip-path="url(#clip601)" style="stroke:#000000; stroke-linecap:round; stroke-linejoin:round; stroke-width:2; stroke-opacity:0.1; fill:none" points="155.765,886.932 2352.76,886.932 "/>
<polyline clip-path="url(#clip601)" style="stroke:#000000; stroke-linecap:round; stroke-linejoin:round; stroke-width:2; stroke-opacity:0.1; fill:none" points="155.765,656.777 2352.76,656.777 "/>
<polyline clip-path="url(#clip601)" style="stroke:#000000; stroke-linecap:round; stroke-linejoin:round; stroke-width:2; stroke-opacity:0.1; fill:none" points="155.765,426.621 2352.76,426.621 "/>
<polyline clip-path="url(#clip601)" style="stroke:#000000; stroke-linecap:round; stroke-linejoin:round; stroke-width:2; stroke-opacity:0.1; fill:none" points="155.765,196.465 2352.76,196.465 "/>
<polyline clip-path="url(#clip600)" style="stroke:#000000; stroke-linecap:round; stroke-linejoin:round; stroke-width:4; stroke-opacity:1; fill:none" points="155.765,1486.45 2352.76,1486.45 "/>
<polyline clip-path="url(#clip600)" style="stroke:#000000; stroke-linecap:round; stroke-linejoin:round; stroke-width:4; stroke-opacity:1; fill:none" points="217.944,1486.45 217.944,1467.55 "/>
<polyline clip-path="url(#clip600)" style="stroke:#000000; stroke-linecap:round; stroke-linejoin:round; stroke-width:4; stroke-opacity:1; fill:none" points="736.102,1486.45 736.102,1467.55 "/>
<polyline clip-path="url(#clip600)" style="stroke:#000000; stroke-linecap:round; stroke-linejoin:round; stroke-width:4; stroke-opacity:1; fill:none" points="1254.26,1486.45 1254.26,1467.55 "/>
<polyline clip-path="url(#clip600)" style="stroke:#000000; stroke-linecap:round; stroke-linejoin:round; stroke-width:4; stroke-opacity:1; fill:none" points="1772.42,1486.45 1772.42,1467.55 "/>
<polyline clip-path="url(#clip600)" style="stroke:#000000; stroke-linecap:round; stroke-linejoin:round; stroke-width:4; stroke-opacity:1; fill:none" points="2290.58,1486.45 2290.58,1467.55 "/>
<path clip-path="url(#clip600)" d="M180.247 1517.37 Q176.636 1517.37 174.808 1520.93 Q173.002 1524.47 173.002 1531.6 Q173.002 1538.71 174.808 1542.27 Q176.636 1545.82 180.247 1545.82 Q183.882 1545.82 185.687 1542.27 Q187.516 1538.71 187.516 1531.6 Q187.516 1524.47 185.687 1520.93 Q183.882 1517.37 180.247 1517.37 M180.247 1513.66 Q186.057 1513.66 189.113 1518.27 Q192.192 1522.85 192.192 1531.6 Q192.192 1540.33 189.113 1544.94 Q186.057 1549.52 180.247 1549.52 Q174.437 1549.52 171.358 1544.94 Q168.303 1540.33 168.303 1531.6 Q168.303 1522.85 171.358 1518.27 Q174.437 1513.66 180.247 1513.66 Z" fill="#000000" fill-rule="nonzero" fill-opacity="1" /><path clip-path="url(#clip600)" d="M200.409 1542.97 L205.294 1542.97 L205.294 1548.85 L200.409 1548.85 L200.409 1542.97 Z" fill="#000000" fill-rule="nonzero" fill-opacity="1" /><path clip-path="url(#clip600)" d="M225.479 1517.37 Q221.867 1517.37 220.039 1520.93 Q218.233 1524.47 218.233 1531.6 Q218.233 1538.71 220.039 1542.27 Q221.867 1545.82 225.479 1545.82 Q229.113 1545.82 230.918 1542.27 Q232.747 1538.71 232.747 1531.6 Q232.747 1524.47 230.918 1520.93 Q229.113 1517.37 225.479 1517.37 M225.479 1513.66 Q231.289 1513.66 234.344 1518.27 Q237.423 1522.85 237.423 1531.6 Q237.423 1540.33 234.344 1544.94 Q231.289 1549.52 225.479 1549.52 Q219.668 1549.52 216.59 1544.94 Q213.534 1540.33 213.534 1531.6 Q213.534 1522.85 216.59 1518.27 Q219.668 1513.66 225.479 1513.66 Z" fill="#000000" fill-rule="nonzero" fill-opacity="1" /><path clip-path="url(#clip600)" d="M255.64 1517.37 Q252.029 1517.37 250.201 1520.93 Q248.395 1524.47 248.395 1531.6 Q248.395 1538.71 250.201 1542.27 Q252.029 1545.82 255.64 1545.82 Q259.275 1545.82 261.08 1542.27 Q262.909 1538.71 262.909 1531.6 Q262.909 1524.47 261.08 1520.93 Q259.275 1517.37 255.64 1517.37 M255.64 1513.66 Q261.451 1513.66 264.506 1518.27 Q267.585 1522.85 267.585 1531.6 Q267.585 1540.33 264.506 1544.94 Q261.451 1549.52 255.64 1549.52 Q249.83 1549.52 246.752 1544.94 Q243.696 1540.33 243.696 1531.6 Q243.696 1522.85 246.752 1518.27 Q249.83 1513.66 255.64 1513.66 Z" fill="#000000" fill-rule="nonzero" fill-opacity="1" /><path clip-path="url(#clip600)" d="M698.903 1517.37 Q695.292 1517.37 693.463 1520.93 Q691.658 1524.47 691.658 1531.6 Q691.658 1538.71 693.463 1542.27 Q695.292 1545.82 698.903 1545.82 Q702.538 1545.82 704.343 1542.27 Q706.172 1538.71 706.172 1531.6 Q706.172 1524.47 704.343 1520.93 Q702.538 1517.37 698.903 1517.37 M698.903 1513.66 Q704.713 1513.66 707.769 1518.27 Q710.848 1522.85 710.848 1531.6 Q710.848 1540.33 707.769 1544.94 Q704.713 1549.52 698.903 1549.52 Q693.093 1549.52 690.014 1544.94 Q686.959 1540.33 686.959 1531.6 Q686.959 1522.85 690.014 1518.27 Q693.093 1513.66 698.903 1513.66 Z" fill="#000000" fill-rule="nonzero" fill-opacity="1" /><path clip-path="url(#clip600)" d="M719.065 1542.97 L723.949 1542.97 L723.949 1548.85 L719.065 1548.85 L719.065 1542.97 Z" fill="#000000" fill-rule="nonzero" fill-opacity="1" /><path clip-path="url(#clip600)" d="M738.162 1544.91 L754.482 1544.91 L754.482 1548.85 L732.537 1548.85 L732.537 1544.91 Q735.199 1542.16 739.783 1537.53 Q744.389 1532.88 745.57 1531.53 Q747.815 1529.01 748.695 1527.27 Q749.597 1525.51 749.597 1523.82 Q749.597 1521.07 747.653 1519.33 Q745.732 1517.6 742.63 1517.6 Q740.431 1517.6 737.977 1518.36 Q735.547 1519.13 732.769 1520.68 L732.769 1515.95 Q735.593 1514.82 738.047 1514.24 Q740.5 1513.66 742.537 1513.66 Q747.908 1513.66 751.102 1516.35 Q754.296 1519.03 754.296 1523.52 Q754.296 1525.65 753.486 1527.57 Q752.699 1529.47 750.593 1532.07 Q750.014 1532.74 746.912 1535.95 Q743.81 1539.15 738.162 1544.91 Z" fill="#000000" fill-rule="nonzero" fill-opacity="1" /><path clip-path="url(#clip600)" d="M764.343 1514.29 L782.699 1514.29 L782.699 1518.22 L768.625 1518.22 L768.625 1526.7 Q769.644 1526.35 770.662 1526.19 Q771.681 1526 772.699 1526 Q778.486 1526 781.866 1529.17 Q785.245 1532.34 785.245 1537.76 Q785.245 1543.34 781.773 1546.44 Q778.301 1549.52 771.982 1549.52 Q769.806 1549.52 767.537 1549.15 Q765.292 1548.78 762.884 1548.04 L762.884 1543.34 Q764.968 1544.47 767.19 1545.03 Q769.412 1545.58 771.889 1545.58 Q775.894 1545.58 778.232 1543.48 Q780.57 1541.37 780.57 1537.76 Q780.57 1534.15 778.232 1532.04 Q775.894 1529.94 771.889 1529.94 Q770.014 1529.94 768.139 1530.35 Q766.287 1530.77 764.343 1531.65 L764.343 1514.29 Z" fill="#000000" fill-rule="nonzero" fill-opacity="1" /><path clip-path="url(#clip600)" d="M1216.56 1517.37 Q1212.95 1517.37 1211.12 1520.93 Q1209.32 1524.47 1209.32 1531.6 Q1209.32 1538.71 1211.12 1542.27 Q1212.95 1545.82 1216.56 1545.82 Q1220.2 1545.82 1222 1542.27 Q1223.83 1538.71 1223.83 1531.6 Q1223.83 1524.47 1222 1520.93 Q1220.2 1517.37 1216.56 1517.37 M1216.56 1513.66 Q1222.37 1513.66 1225.43 1518.27 Q1228.51 1522.85 1228.51 1531.6 Q1228.51 1540.33 1225.43 1544.94 Q1222.37 1549.52 1216.56 1549.52 Q1210.75 1549.52 1207.68 1544.94 Q1204.62 1540.33 1204.62 1531.6 Q1204.62 1522.85 1207.68 1518.27 Q1210.75 1513.66 1216.56 1513.66 Z" fill="#000000" fill-rule="nonzero" fill-opacity="1" /><path clip-path="url(#clip600)" d="M1236.73 1542.97 L1241.61 1542.97 L1241.61 1548.85 L1236.73 1548.85 L1236.73 1542.97 Z" fill="#000000" fill-rule="nonzero" fill-opacity="1" /><path clip-path="url(#clip600)" d="M1251.84 1514.29 L1270.2 1514.29 L1270.2 1518.22 L1256.12 1518.22 L1256.12 1526.7 Q1257.14 1526.35 1258.16 1526.19 Q1259.18 1526 1260.2 1526 Q1265.98 1526 1269.36 1529.17 Q1272.74 1532.34 1272.74 1537.76 Q1272.74 1543.34 1269.27 1546.44 Q1265.8 1549.52 1259.48 1549.52 Q1257.3 1549.52 1255.04 1549.15 Q1252.79 1548.78 1250.38 1548.04 L1250.38 1543.34 Q1252.47 1544.47 1254.69 1545.03 Q1256.91 1545.58 1259.39 1545.58 Q1263.39 1545.58 1265.73 1543.48 Q1268.07 1541.37 1268.07 1537.76 Q1268.07 1534.15 1265.73 1532.04 Q1263.39 1529.94 1259.39 1529.94 Q1257.51 1529.94 1255.64 1530.35 Q1253.79 1530.77 1251.84 1531.65 L1251.84 1514.29 Z" fill="#000000" fill-rule="nonzero" fill-opacity="1" /><path clip-path="url(#clip600)" d="M1291.96 1517.37 Q1288.35 1517.37 1286.52 1520.93 Q1284.71 1524.47 1284.71 1531.6 Q1284.71 1538.71 1286.52 1542.27 Q1288.35 1545.82 1291.96 1545.82 Q1295.59 1545.82 1297.4 1542.27 Q1299.23 1538.71 1299.23 1531.6 Q1299.23 1524.47 1297.4 1520.93 Q1295.59 1517.37 1291.96 1517.37 M1291.96 1513.66 Q1297.77 1513.66 1300.82 1518.27 Q1303.9 1522.85 1303.9 1531.6 Q1303.9 1540.33 1300.82 1544.94 Q1297.77 1549.52 1291.96 1549.52 Q1286.15 1549.52 1283.07 1544.94 Q1280.01 1540.33 1280.01 1531.6 Q1280.01 1522.85 1283.07 1518.27 Q1286.15 1513.66 1291.96 1513.66 Z" fill="#000000" fill-rule="nonzero" fill-opacity="1" /><path clip-path="url(#clip600)" d="M1735.22 1517.37 Q1731.61 1517.37 1729.78 1520.93 Q1727.97 1524.47 1727.97 1531.6 Q1727.97 1538.71 1729.78 1542.27 Q1731.61 1545.82 1735.22 1545.82 Q1738.85 1545.82 1740.66 1542.27 Q1742.49 1538.71 1742.49 1531.6 Q1742.49 1524.47 1740.66 1520.93 Q1738.85 1517.37 1735.22 1517.37 M1735.22 1513.66 Q1741.03 1513.66 1744.09 1518.27 Q1747.16 1522.85 1747.16 1531.6 Q1747.16 1540.33 1744.09 1544.94 Q1741.03 1549.52 1735.22 1549.52 Q1729.41 1549.52 1726.33 1544.94 Q1723.28 1540.33 1723.28 1531.6 Q1723.28 1522.85 1726.33 1518.27 Q1729.41 1513.66 1735.22 1513.66 Z" fill="#000000" fill-rule="nonzero" fill-opacity="1" /><path clip-path="url(#clip600)" d="M1755.38 1542.97 L1760.27 1542.97 L1760.27 1548.85 L1755.38 1548.85 L1755.38 1542.97 Z" fill="#000000" fill-rule="nonzero" fill-opacity="1" /><path clip-path="url(#clip600)" d="M1769.27 1514.29 L1791.49 1514.29 L1791.49 1516.28 L1778.95 1548.85 L1774.06 1548.85 L1785.87 1518.22 L1769.27 1518.22 L1769.27 1514.29 Z" fill="#000000" fill-rule="nonzero" fill-opacity="1" /><path clip-path="url(#clip600)" d="M1800.66 1514.29 L1819.02 1514.29 L1819.02 1518.22 L1804.94 1518.22 L1804.94 1526.7 Q1805.96 1526.35 1806.98 1526.19 Q1808 1526 1809.02 1526 Q1814.8 1526 1818.18 1529.17 Q1821.56 1532.34 1821.56 1537.76 Q1821.56 1543.34 1818.09 1546.44 Q1814.62 1549.52 1808.3 1549.52 Q1806.12 1549.52 1803.85 1549.15 Q1801.61 1548.78 1799.2 1548.04 L1799.2 1543.34 Q1801.28 1544.47 1803.51 1545.03 Q1805.73 1545.58 1808.21 1545.58 Q1812.21 1545.58 1814.55 1543.48 Q1816.89 1541.37 1816.89 1537.76 Q1816.89 1534.15 1814.55 1532.04 Q1812.21 1529.94 1808.21 1529.94 Q1806.33 1529.94 1804.46 1530.35 Q1802.6 1530.77 1800.66 1531.65 L1800.66 1514.29 Z" fill="#000000" fill-rule="nonzero" fill-opacity="1" /><path clip-path="url(#clip600)" d="M2242.65 1544.91 L2250.29 1544.91 L2250.29 1518.55 L2241.98 1520.21 L2241.98 1515.95 L2250.24 1514.29 L2254.92 1514.29 L2254.92 1544.91 L2262.56 1544.91 L2262.56 1548.85 L2242.65 1548.85 L2242.65 1544.91 Z" fill="#000000" fill-rule="nonzero" fill-opacity="1" /><path clip-path="url(#clip600)" d="M2272 1542.97 L2276.88 1542.97 L2276.88 1548.85 L2272 1548.85 L2272 1542.97 Z" fill="#000000" fill-rule="nonzero" fill-opacity="1" /><path clip-path="url(#clip600)" d="M2297.07 1517.37 Q2293.46 1517.37 2291.63 1520.93 Q2289.82 1524.47 2289.82 1531.6 Q2289.82 1538.71 2291.63 1542.27 Q2293.46 1545.82 2297.07 1545.82 Q2300.7 1545.82 2302.51 1542.27 Q2304.34 1538.71 2304.34 1531.6 Q2304.34 1524.47 2302.51 1520.93 Q2300.7 1517.37 2297.07 1517.37 M2297.07 1513.66 Q2302.88 1513.66 2305.94 1518.27 Q2309.01 1522.85 2309.01 1531.6 Q2309.01 1540.33 2305.94 1544.94 Q2302.88 1549.52 2297.07 1549.52 Q2291.26 1549.52 2288.18 1544.94 Q2285.13 1540.33 2285.13 1531.6 Q2285.13 1522.85 2288.18 1518.27 Q2291.26 1513.66 2297.07 1513.66 Z" fill="#000000" fill-rule="nonzero" fill-opacity="1" /><path clip-path="url(#clip600)" d="M2327.23 1517.37 Q2323.62 1517.37 2321.79 1520.93 Q2319.99 1524.47 2319.99 1531.6 Q2319.99 1538.71 2321.79 1542.27 Q2323.62 1545.82 2327.23 1545.82 Q2330.87 1545.82 2332.67 1542.27 Q2334.5 1538.71 2334.5 1531.6 Q2334.5 1524.47 2332.67 1520.93 Q2330.87 1517.37 2327.23 1517.37 M2327.23 1513.66 Q2333.04 1513.66 2336.1 1518.27 Q2339.18 1522.85 2339.18 1531.6 Q2339.18 1540.33 2336.1 1544.94 Q2333.04 1549.52 2327.23 1549.52 Q2321.42 1549.52 2318.34 1544.94 Q2315.29 1540.33 2315.29 1531.6 Q2315.29 1522.85 2318.34 1518.27 Q2321.42 1513.66 2327.23 1513.66 Z" fill="#000000" fill-rule="nonzero" fill-opacity="1" /><polyline clip-path="url(#clip600)" style="stroke:#000000; stroke-linecap:round; stroke-linejoin:round; stroke-width:4; stroke-opacity:1; fill:none" points="155.765,1486.45 155.765,47.2441 "/>
<polyline clip-path="url(#clip600)" style="stroke:#000000; stroke-linecap:round; stroke-linejoin:round; stroke-width:4; stroke-opacity:1; fill:none" points="155.765,1347.24 174.663,1347.24 "/>
<polyline clip-path="url(#clip600)" style="stroke:#000000; stroke-linecap:round; stroke-linejoin:round; stroke-width:4; stroke-opacity:1; fill:none" points="155.765,1117.09 174.663,1117.09 "/>
<polyline clip-path="url(#clip600)" style="stroke:#000000; stroke-linecap:round; stroke-linejoin:round; stroke-width:4; stroke-opacity:1; fill:none" points="155.765,886.932 174.663,886.932 "/>
<polyline clip-path="url(#clip600)" style="stroke:#000000; stroke-linecap:round; stroke-linejoin:round; stroke-width:4; stroke-opacity:1; fill:none" points="155.765,656.777 174.663,656.777 "/>
<polyline clip-path="url(#clip600)" style="stroke:#000000; stroke-linecap:round; stroke-linejoin:round; stroke-width:4; stroke-opacity:1; fill:none" points="155.765,426.621 174.663,426.621 "/>
<polyline clip-path="url(#clip600)" style="stroke:#000000; stroke-linecap:round; stroke-linejoin:round; stroke-width:4; stroke-opacity:1; fill:none" points="155.765,196.465 174.663,196.465 "/>
<path clip-path="url(#clip600)" d="M63.5847 1333.04 Q59.9736 1333.04 58.1449 1336.61 Q56.3393 1340.15 56.3393 1347.28 Q56.3393 1354.38 58.1449 1357.95 Q59.9736 1361.49 63.5847 1361.49 Q67.2189 1361.49 69.0244 1357.95 Q70.8531 1354.38 70.8531 1347.28 Q70.8531 1340.15 69.0244 1336.61 Q67.2189 1333.04 63.5847 1333.04 M63.5847 1329.34 Q69.3948 1329.34 72.4503 1333.94 Q75.529 1338.53 75.529 1347.28 Q75.529 1356.01 72.4503 1360.61 Q69.3948 1365.19 63.5847 1365.19 Q57.7745 1365.19 54.6958 1360.61 Q51.6403 1356.01 51.6403 1347.28 Q51.6403 1338.53 54.6958 1333.94 Q57.7745 1329.34 63.5847 1329.34 Z" fill="#000000" fill-rule="nonzero" fill-opacity="1" /><path clip-path="url(#clip600)" d="M83.7466 1358.64 L88.6308 1358.64 L88.6308 1364.52 L83.7466 1364.52 L83.7466 1358.64 Z" fill="#000000" fill-rule="nonzero" fill-opacity="1" /><path clip-path="url(#clip600)" d="M98.8622 1329.96 L117.219 1329.96 L117.219 1333.9 L103.145 1333.9 L103.145 1342.37 Q104.163 1342.02 105.182 1341.86 Q106.2 1341.68 107.219 1341.68 Q113.006 1341.68 116.385 1344.85 Q119.765 1348.02 119.765 1353.44 Q119.765 1359.01 116.293 1362.12 Q112.82 1365.19 106.501 1365.19 Q104.325 1365.19 102.057 1364.82 Q99.8113 1364.45 97.4039 1363.71 L97.4039 1359.01 Q99.4872 1360.15 101.709 1360.7 Q103.932 1361.26 106.408 1361.26 Q110.413 1361.26 112.751 1359.15 Q115.089 1357.05 115.089 1353.44 Q115.089 1349.82 112.751 1347.72 Q110.413 1345.61 106.408 1345.61 Q104.534 1345.61 102.659 1346.03 Q100.807 1346.44 98.8622 1347.32 L98.8622 1329.96 Z" fill="#000000" fill-rule="nonzero" fill-opacity="1" /><path clip-path="url(#clip600)" d="M53.3995 1130.43 L61.0384 1130.43 L61.0384 1104.07 L52.7282 1105.73 L52.7282 1101.47 L60.9921 1099.81 L65.668 1099.81 L65.668 1130.43 L73.3068 1130.43 L73.3068 1134.37 L53.3995 1134.37 L53.3995 1130.43 Z" fill="#000000" fill-rule="nonzero" fill-opacity="1" /><path clip-path="url(#clip600)" d="M82.7512 1128.49 L87.6354 1128.49 L87.6354 1134.37 L82.7512 1134.37 L82.7512 1128.49 Z" fill="#000000" fill-rule="nonzero" fill-opacity="1" /><path clip-path="url(#clip600)" d="M107.821 1102.89 Q104.209 1102.89 102.381 1106.45 Q100.575 1109.99 100.575 1117.12 Q100.575 1124.23 102.381 1127.79 Q104.209 1131.34 107.821 1131.34 Q111.455 1131.34 113.26 1127.79 Q115.089 1124.23 115.089 1117.12 Q115.089 1109.99 113.26 1106.45 Q111.455 1102.89 107.821 1102.89 M107.821 1099.18 Q113.631 1099.18 116.686 1103.79 Q119.765 1108.37 119.765 1117.12 Q119.765 1125.85 116.686 1130.46 Q113.631 1135.04 107.821 1135.04 Q102.01 1135.04 98.9317 1130.46 Q95.8761 1125.85 95.8761 1117.12 Q95.8761 1108.37 98.9317 1103.79 Q102.01 1099.18 107.821 1099.18 Z" fill="#000000" fill-rule="nonzero" fill-opacity="1" /><path clip-path="url(#clip600)" d="M54.3949 900.277 L62.0337 900.277 L62.0337 873.912 L53.7236 875.578 L53.7236 871.319 L61.9874 869.652 L66.6633 869.652 L66.6633 900.277 L74.3022 900.277 L74.3022 904.212 L54.3949 904.212 L54.3949 900.277 Z" fill="#000000" fill-rule="nonzero" fill-opacity="1" /><path clip-path="url(#clip600)" d="M83.7466 898.333 L88.6308 898.333 L88.6308 904.212 L83.7466 904.212 L83.7466 898.333 Z" fill="#000000" fill-rule="nonzero" fill-opacity="1" /><path clip-path="url(#clip600)" d="M98.8622 869.652 L117.219 869.652 L117.219 873.587 L103.145 873.587 L103.145 882.06 Q104.163 881.712 105.182 881.55 Q106.2 881.365 107.219 881.365 Q113.006 881.365 116.385 884.536 Q119.765 887.708 119.765 893.124 Q119.765 898.703 116.293 901.805 Q112.82 904.884 106.501 904.884 Q104.325 904.884 102.057 904.513 Q99.8113 904.143 97.4039 903.402 L97.4039 898.703 Q99.4872 899.837 101.709 900.393 Q103.932 900.948 106.408 900.948 Q110.413 900.948 112.751 898.842 Q115.089 896.735 115.089 893.124 Q115.089 889.513 112.751 887.407 Q110.413 885.3 106.408 885.3 Q104.534 885.3 102.659 885.717 Q100.807 886.134 98.8622 887.013 L98.8622 869.652 Z" fill="#000000" fill-rule="nonzero" fill-opacity="1" /><path clip-path="url(#clip600)" d="M56.6171 670.121 L72.9365 670.121 L72.9365 674.057 L50.9921 674.057 L50.9921 670.121 Q53.6541 667.367 58.2375 662.737 Q62.8439 658.085 64.0245 656.742 Q66.2698 654.219 67.1494 652.483 Q68.0522 650.723 68.0522 649.034 Q68.0522 646.279 66.1078 644.543 Q64.1865 642.807 61.0847 642.807 Q58.8856 642.807 56.4319 643.571 Q54.0014 644.335 51.2236 645.886 L51.2236 641.163 Q54.0477 640.029 56.5014 639.45 Q58.955 638.872 60.9921 638.872 Q66.3624 638.872 69.5568 641.557 Q72.7513 644.242 72.7513 648.733 Q72.7513 650.862 71.9411 652.784 Q71.1541 654.682 69.0476 657.274 Q68.4689 657.946 65.367 661.163 Q62.2652 664.358 56.6171 670.121 Z" fill="#000000" fill-rule="nonzero" fill-opacity="1" /><path clip-path="url(#clip600)" d="M82.7512 668.177 L87.6354 668.177 L87.6354 674.057 L82.7512 674.057 L82.7512 668.177 Z" fill="#000000" fill-rule="nonzero" fill-opacity="1" /><path clip-path="url(#clip600)" d="M107.821 642.575 Q104.209 642.575 102.381 646.14 Q100.575 649.682 100.575 656.811 Q100.575 663.918 102.381 667.483 Q104.209 671.024 107.821 671.024 Q111.455 671.024 113.26 667.483 Q115.089 663.918 115.089 656.811 Q115.089 649.682 113.26 646.14 Q111.455 642.575 107.821 642.575 M107.821 638.872 Q113.631 638.872 116.686 643.478 Q119.765 648.061 119.765 656.811 Q119.765 665.538 116.686 670.145 Q113.631 674.728 107.821 674.728 Q102.01 674.728 98.9317 670.145 Q95.8761 665.538 95.8761 656.811 Q95.8761 648.061 98.9317 643.478 Q102.01 638.872 107.821 638.872 Z" fill="#000000" fill-rule="nonzero" fill-opacity="1" /><path clip-path="url(#clip600)" d="M57.6125 439.966 L73.9318 439.966 L73.9318 443.901 L51.9875 443.901 L51.9875 439.966 Q54.6495 437.211 59.2328 432.582 Q63.8393 427.929 65.0198 426.586 Q67.2652 424.063 68.1448 422.327 Q69.0476 420.568 69.0476 418.878 Q69.0476 416.123 67.1032 414.387 Q65.1819 412.651 62.08 412.651 Q59.881 412.651 57.4273 413.415 Q54.9967 414.179 52.219 415.73 L52.219 411.008 Q55.043 409.873 57.4967 409.295 Q59.9504 408.716 61.9874 408.716 Q67.3578 408.716 70.5522 411.401 Q73.7466 414.086 73.7466 418.577 Q73.7466 420.707 72.9365 422.628 Q72.1494 424.526 70.0429 427.119 Q69.4642 427.79 66.3624 431.008 Q63.2606 434.202 57.6125 439.966 Z" fill="#000000" fill-rule="nonzero" fill-opacity="1" /><path clip-path="url(#clip600)" d="M83.7466 438.021 L88.6308 438.021 L88.6308 443.901 L83.7466 443.901 L83.7466 438.021 Z" fill="#000000" fill-rule="nonzero" fill-opacity="1" /><path clip-path="url(#clip600)" d="M98.8622 409.341 L117.219 409.341 L117.219 413.276 L103.145 413.276 L103.145 421.748 Q104.163 421.401 105.182 421.239 Q106.2 421.054 107.219 421.054 Q113.006 421.054 116.385 424.225 Q119.765 427.396 119.765 432.813 Q119.765 438.392 116.293 441.494 Q112.82 444.572 106.501 444.572 Q104.325 444.572 102.057 444.202 Q99.8113 443.832 97.4039 443.091 L97.4039 438.392 Q99.4872 439.526 101.709 440.082 Q103.932 440.637 106.408 440.637 Q110.413 440.637 112.751 438.531 Q115.089 436.424 115.089 432.813 Q115.089 429.202 112.751 427.096 Q110.413 424.989 106.408 424.989 Q104.534 424.989 102.659 425.406 Q100.807 425.822 98.8622 426.702 L98.8622 409.341 Z" fill="#000000" fill-rule="nonzero" fill-opacity="1" /><path clip-path="url(#clip600)" d="M66.7559 195.111 Q70.1124 195.829 71.9874 198.097 Q73.8855 200.366 73.8855 203.699 Q73.8855 208.815 70.367 211.616 Q66.8485 214.417 60.3671 214.417 Q58.1912 214.417 55.8764 213.977 Q53.5847 213.56 51.131 212.704 L51.131 208.19 Q53.0754 209.324 55.3903 209.903 Q57.7051 210.482 60.2282 210.482 Q64.6263 210.482 66.918 208.745 Q69.2328 207.009 69.2328 203.699 Q69.2328 200.644 67.08 198.931 Q64.9504 197.195 61.131 197.195 L57.1032 197.195 L57.1032 193.352 L61.3161 193.352 Q64.7652 193.352 66.5939 191.986 Q68.4226 190.597 68.4226 188.005 Q68.4226 185.343 66.5245 183.931 Q64.6495 182.496 61.131 182.496 Q59.2097 182.496 57.0106 182.912 Q54.8115 183.329 52.1727 184.209 L52.1727 180.042 Q54.8347 179.301 57.1495 178.931 Q59.4875 178.56 61.5476 178.56 Q66.8717 178.56 69.9735 180.991 Q73.0753 183.398 73.0753 187.519 Q73.0753 190.389 71.4318 192.38 Q69.7883 194.347 66.7559 195.111 Z" fill="#000000" fill-rule="nonzero" fill-opacity="1" /><path clip-path="url(#clip600)" d="M82.7512 207.866 L87.6354 207.866 L87.6354 213.745 L82.7512 213.745 L82.7512 207.866 Z" fill="#000000" fill-rule="nonzero" fill-opacity="1" /><path clip-path="url(#clip600)" d="M107.821 182.264 Q104.209 182.264 102.381 185.829 Q100.575 189.371 100.575 196.5 Q100.575 203.607 102.381 207.171 Q104.209 210.713 107.821 210.713 Q111.455 210.713 113.26 207.171 Q115.089 203.607 115.089 196.5 Q115.089 189.371 113.26 185.829 Q111.455 182.264 107.821 182.264 M107.821 178.56 Q113.631 178.56 116.686 183.167 Q119.765 187.75 119.765 196.5 Q119.765 205.227 116.686 209.833 Q113.631 214.417 107.821 214.417 Q102.01 214.417 98.9317 209.833 Q95.8761 205.227 95.8761 196.5 Q95.8761 187.75 98.9317 183.167 Q102.01 178.56 107.821 178.56 Z" fill="#000000" fill-rule="nonzero" fill-opacity="1" /><polyline clip-path="url(#clip601)" style="stroke:#009af9; stroke-linecap:round; stroke-linejoin:round; stroke-width:12; stroke-opacity:1; fill:none" points="217.944,1347.24 425.207,1341.6 632.47,1340.35 839.734,1331.96 1047,1329.84 1254.26,1257.64 1461.52,1182.71 1668.79,1100.1 1876.05,1059.96 2083.31,1025.06 2290.58,1024.37 "/>
<polyline clip-path="url(#clip601)" style="stroke:#000000; stroke-linecap:round; stroke-linejoin:round; stroke-width:12; stroke-opacity:1; fill:none" points="217.944,1347.24 217.944,1347.24 "/>
<polyline clip-path="url(#clip601)" style="stroke:#000000; stroke-linecap:round; stroke-linejoin:round; stroke-width:12; stroke-opacity:1; fill:none" points="425.207,1423.42 425.207,1257.77 "/>
<polyline clip-path="url(#clip601)" style="stroke:#000000; stroke-linecap:round; stroke-linejoin:round; stroke-width:12; stroke-opacity:1; fill:none" points="632.47,1438.9 632.47,1161.46 "/>
<polyline clip-path="url(#clip601)" style="stroke:#000000; stroke-linecap:round; stroke-linejoin:round; stroke-width:12; stroke-opacity:1; fill:none" points="839.734,1445.72 839.734,1114.22 "/>
<polyline clip-path="url(#clip601)" style="stroke:#000000; stroke-linecap:round; stroke-linejoin:round; stroke-width:12; stroke-opacity:1; fill:none" points="1047,1413.04 1047,1111.73 "/>
<polyline clip-path="url(#clip601)" style="stroke:#000000; stroke-linecap:round; stroke-linejoin:round; stroke-width:12; stroke-opacity:1; fill:none" points="1254.26,1365.86 1254.26,951.044 "/>
<polyline clip-path="url(#clip601)" style="stroke:#000000; stroke-linecap:round; stroke-linejoin:round; stroke-width:12; stroke-opacity:1; fill:none" points="1461.52,1372.81 1461.52,816.641 "/>
<polyline clip-path="url(#clip601)" style="stroke:#000000; stroke-linecap:round; stroke-linejoin:round; stroke-width:12; stroke-opacity:1; fill:none" points="1668.79,1345.89 1668.79,597.976 "/>
<polyline clip-path="url(#clip601)" style="stroke:#000000; stroke-linecap:round; stroke-linejoin:round; stroke-width:12; stroke-opacity:1; fill:none" points="1876.05,1354.44 1876.05,419.441 "/>
<polyline clip-path="url(#clip601)" style="stroke:#000000; stroke-linecap:round; stroke-linejoin:round; stroke-width:12; stroke-opacity:1; fill:none" points="2083.31,1379.54 2083.31,322.391 "/>
<polyline clip-path="url(#clip601)" style="stroke:#000000; stroke-linecap:round; stroke-linejoin:round; stroke-width:12; stroke-opacity:1; fill:none" points="2290.58,1375.06 2290.58,87.9763 "/>
<line clip-path="url(#clip601)" x1="233.944" y1="1347.24" x2="201.944" y2="1347.24" style="stroke:#000000; stroke-width:12; stroke-opacity:1"/>
<line clip-path="url(#clip601)" x1="233.944" y1="1347.24" x2="201.944" y2="1347.24" style="stroke:#000000; stroke-width:12; stroke-opacity:1"/>
<line clip-path="url(#clip601)" x1="441.207" y1="1423.42" x2="409.207" y2="1423.42" style="stroke:#000000; stroke-width:12; stroke-opacity:1"/>
<line clip-path="url(#clip601)" x1="441.207" y1="1257.77" x2="409.207" y2="1257.77" style="stroke:#000000; stroke-width:12; stroke-opacity:1"/>
<line clip-path="url(#clip601)" x1="648.47" y1="1438.9" x2="616.47" y2="1438.9" style="stroke:#000000; stroke-width:12; stroke-opacity:1"/>
<line clip-path="url(#clip601)" x1="648.47" y1="1161.46" x2="616.47" y2="1161.46" style="stroke:#000000; stroke-width:12; stroke-opacity:1"/>
<line clip-path="url(#clip601)" x1="855.734" y1="1445.72" x2="823.734" y2="1445.72" style="stroke:#000000; stroke-width:12; stroke-opacity:1"/>
<line clip-path="url(#clip601)" x1="855.734" y1="1114.22" x2="823.734" y2="1114.22" style="stroke:#000000; stroke-width:12; stroke-opacity:1"/>
<line clip-path="url(#clip601)" x1="1063" y1="1413.04" x2="1031" y2="1413.04" style="stroke:#000000; stroke-width:12; stroke-opacity:1"/>
<line clip-path="url(#clip601)" x1="1063" y1="1111.73" x2="1031" y2="1111.73" style="stroke:#000000; stroke-width:12; stroke-opacity:1"/>
<line clip-path="url(#clip601)" x1="1270.26" y1="1365.86" x2="1238.26" y2="1365.86" style="stroke:#000000; stroke-width:12; stroke-opacity:1"/>
<line clip-path="url(#clip601)" x1="1270.26" y1="951.044" x2="1238.26" y2="951.044" style="stroke:#000000; stroke-width:12; stroke-opacity:1"/>
<line clip-path="url(#clip601)" x1="1477.52" y1="1372.81" x2="1445.52" y2="1372.81" style="stroke:#000000; stroke-width:12; stroke-opacity:1"/>
<line clip-path="url(#clip601)" x1="1477.52" y1="816.641" x2="1445.52" y2="816.641" style="stroke:#000000; stroke-width:12; stroke-opacity:1"/>
<line clip-path="url(#clip601)" x1="1684.79" y1="1345.89" x2="1652.79" y2="1345.89" style="stroke:#000000; stroke-width:12; stroke-opacity:1"/>
<line clip-path="url(#clip601)" x1="1684.79" y1="597.976" x2="1652.79" y2="597.976" style="stroke:#000000; stroke-width:12; stroke-opacity:1"/>
<line clip-path="url(#clip601)" x1="1892.05" y1="1354.44" x2="1860.05" y2="1354.44" style="stroke:#000000; stroke-width:12; stroke-opacity:1"/>
<line clip-path="url(#clip601)" x1="1892.05" y1="419.441" x2="1860.05" y2="419.441" style="stroke:#000000; stroke-width:12; stroke-opacity:1"/>
<line clip-path="url(#clip601)" x1="2099.31" y1="1379.54" x2="2067.31" y2="1379.54" style="stroke:#000000; stroke-width:12; stroke-opacity:1"/>
<line clip-path="url(#clip601)" x1="2099.31" y1="322.391" x2="2067.31" y2="322.391" style="stroke:#000000; stroke-width:12; stroke-opacity:1"/>
<line clip-path="url(#clip601)" x1="2306.58" y1="1375.06" x2="2274.58" y2="1375.06" style="stroke:#000000; stroke-width:12; stroke-opacity:1"/>
<line clip-path="url(#clip601)" x1="2306.58" y1="87.9763" x2="2274.58" y2="87.9763" style="stroke:#000000; stroke-width:12; stroke-opacity:1"/>
<polyline clip-path="url(#clip601)" style="stroke:#e26f46; stroke-linecap:round; stroke-linejoin:round; stroke-width:12; stroke-opacity:1; fill:none" points="217.944,1347.24 425.207,1334.56 632.47,1329.89 839.734,1324.67 1047,1307.23 1254.26,1307.56 1461.52,1266.02 1668.79,1259.69 1876.05,1261.38 2083.31,1240.28 2290.58,1217.88 "/>
<polyline clip-path="url(#clip601)" style="stroke:#000000; stroke-linecap:round; stroke-linejoin:round; stroke-width:12; stroke-opacity:1; fill:none" points="217.944,1347.24 217.944,1347.24 "/>
<polyline clip-path="url(#clip601)" style="stroke:#000000; stroke-linecap:round; stroke-linejoin:round; stroke-width:12; stroke-opacity:1; fill:none" points="425.207,1395.38 425.207,1267.32 "/>
<polyline clip-path="url(#clip601)" style="stroke:#000000; stroke-linecap:round; stroke-linejoin:round; stroke-width:12; stroke-opacity:1; fill:none" points="632.47,1422.01 632.47,1194.99 "/>
<polyline clip-path="url(#clip601)" style="stroke:#000000; stroke-linecap:round; stroke-linejoin:round; stroke-width:12; stroke-opacity:1; fill:none" points="839.734,1429.8 839.734,1073.27 "/>
<polyline clip-path="url(#clip601)" style="stroke:#000000; stroke-linecap:round; stroke-linejoin:round; stroke-width:12; stroke-opacity:1; fill:none" points="1047,1421.99 1047,940.159 "/>
<polyline clip-path="url(#clip601)" style="stroke:#000000; stroke-linecap:round; stroke-linejoin:round; stroke-width:12; stroke-opacity:1; fill:none" points="1254.26,1406.38 1254.26,822.918 "/>
<polyline clip-path="url(#clip601)" style="stroke:#000000; stroke-linecap:round; stroke-linejoin:round; stroke-width:12; stroke-opacity:1; fill:none" points="1461.52,1373.9 1461.52,573.327 "/>
<polyline clip-path="url(#clip601)" style="stroke:#000000; stroke-linecap:round; stroke-linejoin:round; stroke-width:12; stroke-opacity:1; fill:none" points="1668.79,1361.92 1668.79,575.987 "/>
<polyline clip-path="url(#clip601)" style="stroke:#000000; stroke-linecap:round; stroke-linejoin:round; stroke-width:12; stroke-opacity:1; fill:none" points="1876.05,1333.58 1876.05,501.15 "/>
<polyline clip-path="url(#clip601)" style="stroke:#000000; stroke-linecap:round; stroke-linejoin:round; stroke-width:12; stroke-opacity:1; fill:none" points="2083.31,1300.03 2083.31,333.638 "/>
<polyline clip-path="url(#clip601)" style="stroke:#000000; stroke-linecap:round; stroke-linejoin:round; stroke-width:12; stroke-opacity:1; fill:none" points="2290.58,1345.77 2290.58,182.963 "/>
<line clip-path="url(#clip601)" x1="233.944" y1="1347.24" x2="201.944" y2="1347.24" style="stroke:#000000; stroke-width:12; stroke-opacity:1"/>
<line clip-path="url(#clip601)" x1="233.944" y1="1347.24" x2="201.944" y2="1347.24" style="stroke:#000000; stroke-width:12; stroke-opacity:1"/>
<line clip-path="url(#clip601)" x1="441.207" y1="1395.38" x2="409.207" y2="1395.38" style="stroke:#000000; stroke-width:12; stroke-opacity:1"/>
<line clip-path="url(#clip601)" x1="441.207" y1="1267.32" x2="409.207" y2="1267.32" style="stroke:#000000; stroke-width:12; stroke-opacity:1"/>
<line clip-path="url(#clip601)" x1="648.47" y1="1422.01" x2="616.47" y2="1422.01" style="stroke:#000000; stroke-width:12; stroke-opacity:1"/>
<line clip-path="url(#clip601)" x1="648.47" y1="1194.99" x2="616.47" y2="1194.99" style="stroke:#000000; stroke-width:12; stroke-opacity:1"/>
<line clip-path="url(#clip601)" x1="855.734" y1="1429.8" x2="823.734" y2="1429.8" style="stroke:#000000; stroke-width:12; stroke-opacity:1"/>
<line clip-path="url(#clip601)" x1="855.734" y1="1073.27" x2="823.734" y2="1073.27" style="stroke:#000000; stroke-width:12; stroke-opacity:1"/>
<line clip-path="url(#clip601)" x1="1063" y1="1421.99" x2="1031" y2="1421.99" style="stroke:#000000; stroke-width:12; stroke-opacity:1"/>
<line clip-path="url(#clip601)" x1="1063" y1="940.159" x2="1031" y2="940.159" style="stroke:#000000; stroke-width:12; stroke-opacity:1"/>
<line clip-path="url(#clip601)" x1="1270.26" y1="1406.38" x2="1238.26" y2="1406.38" style="stroke:#000000; stroke-width:12; stroke-opacity:1"/>
<line clip-path="url(#clip601)" x1="1270.26" y1="822.918" x2="1238.26" y2="822.918" style="stroke:#000000; stroke-width:12; stroke-opacity:1"/>
<line clip-path="url(#clip601)" x1="1477.52" y1="1373.9" x2="1445.52" y2="1373.9" style="stroke:#000000; stroke-width:12; stroke-opacity:1"/>
<line clip-path="url(#clip601)" x1="1477.52" y1="573.327" x2="1445.52" y2="573.327" style="stroke:#000000; stroke-width:12; stroke-opacity:1"/>
<line clip-path="url(#clip601)" x1="1684.79" y1="1361.92" x2="1652.79" y2="1361.92" style="stroke:#000000; stroke-width:12; stroke-opacity:1"/>
<line clip-path="url(#clip601)" x1="1684.79" y1="575.987" x2="1652.79" y2="575.987" style="stroke:#000000; stroke-width:12; stroke-opacity:1"/>
<line clip-path="url(#clip601)" x1="1892.05" y1="1333.58" x2="1860.05" y2="1333.58" style="stroke:#000000; stroke-width:12; stroke-opacity:1"/>
<line clip-path="url(#clip601)" x1="1892.05" y1="501.15" x2="1860.05" y2="501.15" style="stroke:#000000; stroke-width:12; stroke-opacity:1"/>
<line clip-path="url(#clip601)" x1="2099.31" y1="1300.03" x2="2067.31" y2="1300.03" style="stroke:#000000; stroke-width:12; stroke-opacity:1"/>
<line clip-path="url(#clip601)" x1="2099.31" y1="333.638" x2="2067.31" y2="333.638" style="stroke:#000000; stroke-width:12; stroke-opacity:1"/>
<line clip-path="url(#clip601)" x1="2306.58" y1="1345.77" x2="2274.58" y2="1345.77" style="stroke:#000000; stroke-width:12; stroke-opacity:1"/>
<line clip-path="url(#clip601)" x1="2306.58" y1="182.963" x2="2274.58" y2="182.963" style="stroke:#000000; stroke-width:12; stroke-opacity:1"/>
</svg>
