<?xml version="1.0" encoding="utf-8"?>
<svg xmlns="http://www.w3.org/2000/svg" xmlns:xlink="http://www.w3.org/1999/xlink" width="600" height="400" viewBox="0 0 2400 1600">
<defs>
  <clipPath id="clip450">
    <rect x="0" y="0" width="2400" height="1600"/>
  </clipPath>
</defs>
<path clip-path="url(#clip450)" d="M0 1600 L2400 1600 L2400 0 L0 0  Z" fill="#ffffff" fill-rule="evenodd" fill-opacity="1"/>
<defs>
  <clipPath id="clip451">
    <rect x="184" y="47" width="2170" height="1440"/>
  </clipPath>
</defs>
<path clip-path="url(#clip450)" d="M184.191 1486.45 L2352.76 1486.45 L2352.76 47.2441 L184.191 47.2441  Z" fill="#ffffff" fill-rule="evenodd" fill-opacity="1"/>
<polyline clip-path="url(#clip451)" style="stroke:#000000; stroke-linecap:round; stroke-linejoin:round; stroke-width:2; stroke-opacity:0.1; fill:none" points="245.565,1486.45 245.565,47.2441 "/>
<polyline clip-path="url(#clip451)" style="stroke:#000000; stroke-linecap:round; stroke-linejoin:round; stroke-width:2; stroke-opacity:0.1; fill:none" points="757.019,1486.45 757.019,47.2441 "/>
<polyline clip-path="url(#clip451)" style="stroke:#000000; stroke-linecap:round; stroke-linejoin:round; stroke-width:2; stroke-opacity:0.1; fill:none" points="1268.47,1486.45 1268.47,47.2441 "/>
<polyline clip-path="url(#clip451)" style="stroke:#000000; stroke-linecap:round; stroke-linejoin:round; stroke-width:2; stroke-opacity:0.1; fill:none" points="1779.93,1486.45 1779.93,47.2441 "/>
<polyline clip-path="url(#clip451)" style="stroke:#000000; stroke-linecap:round; stroke-linejoin:round; stroke-width:2; stroke-opacity:0.1; fill:none" points="2291.38,1486.45 2291.38,47.2441 "/>
<polyline clip-path="url(#clip451)" style="stroke:#000000; stroke-linecap:round; stroke-linejoin:round; stroke-width:2; stroke-opacity:0.1; fill:none" points="184.191,1451.91 2352.76,1451.91 "/>
<polyline clip-path="url(#clip451)" style="stroke:#000000; stroke-linecap:round; stroke-linejoin:round; stroke-width:2; stroke-opacity:0.1; fill:none" points="184.191,1134.16 2352.76,1134.16 "/>
<polyline clip-path="url(#clip451)" style="stroke:#000000; stroke-linecap:round; stroke-linejoin:round; stroke-width:2; stroke-opacity:0.1; fill:none" points="184.191,816.416 2352.76,816.416 "/>
<polyline clip-path="url(#clip451)" style="stroke:#000000; stroke-linecap:round; stroke-linejoin:round; stroke-width:2; stroke-opacity:0.1; fill:none" points="184.191,498.67 2352.76,498.67 "/>
<polyline clip-path="url(#clip451)" style="stroke:#000000; stroke-linecap:round; stroke-linejoin:round; stroke-width:2; stroke-opacity:0.1; fill:none" points="184.191,180.925 2352.76,180.925 "/>
<polyline clip-path="url(#clip450)" style="stroke:#000000; stroke-linecap:round; stroke-linejoin:round; stroke-width:4; stroke-opacity:1; fill:none" points="184.191,1486.45 2352.76,1486.45 "/>
<polyline clip-path="url(#clip450)" style="stroke:#000000; stroke-linecap:round; stroke-linejoin:round; stroke-width:4; stroke-opacity:1; fill:none" points="245.565,1486.45 245.565,1467.55 "/>
<polyline clip-path="url(#clip450)" style="stroke:#000000; stroke-linecap:round; stroke-linejoin:round; stroke-width:4; stroke-opacity:1; fill:none" points="757.019,1486.45 757.019,1467.55 "/>
<polyline clip-path="url(#clip450)" style="stroke:#000000; stroke-linecap:round; stroke-linejoin:round; stroke-width:4; stroke-opacity:1; fill:none" points="1268.47,1486.45 1268.47,1467.55 "/>
<polyline clip-path="url(#clip450)" style="stroke:#000000; stroke-linecap:round; stroke-linejoin:round; stroke-width:4; stroke-opacity:1; fill:none" points="1779.93,1486.45 1779.93,1467.55 "/>
<polyline clip-path="url(#clip450)" style="stroke:#000000; stroke-linecap:round; stroke-linejoin:round; stroke-width:4; stroke-opacity:1; fill:none" points="2291.38,1486.45 2291.38,1467.55 "/>
<path clip-path="url(#clip450)" d="M222.95 1517.37 Q219.338 1517.37 217.51 1520.93 Q215.704 1524.47 215.704 1531.6 Q215.704 1538.71 217.51 1542.27 Q219.338 1545.82 222.95 1545.82 Q226.584 1545.82 228.389 1542.27 Q230.218 1538.71 230.218 1531.6 Q230.218 1524.47 228.389 1520.93 Q226.584 1517.37 222.95 1517.37 M222.95 1513.66 Q228.76 1513.66 231.815 1518.27 Q234.894 1522.85 234.894 1531.6 Q234.894 1540.33 231.815 1544.94 Q228.76 1549.52 222.95 1549.52 Q217.139 1549.52 214.061 1544.94 Q211.005 1540.33 211.005 1531.6 Q211.005 1522.85 214.061 1518.27 Q217.139 1513.66 222.95 1513.66 Z" fill="#000000" fill-rule="nonzero" fill-opacity="1" /><path clip-path="url(#clip450)" d="M243.111 1542.97 L247.996 1542.97 L247.996 1548.85 L243.111 1548.85 L243.111 1542.97 Z" fill="#000000" fill-rule="nonzero" fill-opacity="1" /><path clip-path="url(#clip450)" d="M268.181 1517.37 Q264.57 1517.37 262.741 1520.93 Q260.935 1524.47 260.935 1531.6 Q260.935 1538.71 262.741 1542.27 Q264.57 1545.82 268.181 1545.82 Q271.815 1545.82 273.621 1542.27 Q275.449 1538.71 275.449 1531.6 Q275.449 1524.47 273.621 1520.93 Q271.815 1517.37 268.181 1517.37 M268.181 1513.66 Q273.991 1513.66 277.046 1518.27 Q280.125 1522.85 280.125 1531.6 Q280.125 1540.33 277.046 1544.94 Q273.991 1549.52 268.181 1549.52 Q262.371 1549.52 259.292 1544.94 Q256.236 1540.33 256.236 1531.6 Q256.236 1522.85 259.292 1518.27 Q262.371 1513.66 268.181 1513.66 Z" fill="#000000" fill-rule="nonzero" fill-opacity="1" /><path clip-path="url(#clip450)" d="M728.755 1544.91 L745.075 1544.91 L745.075 1548.85 L723.131 1548.85 L723.131 1544.91 Q725.793 1542.16 730.376 1537.53 Q734.982 1532.88 736.163 1531.53 Q738.408 1529.01 739.288 1527.27 Q740.191 1525.51 740.191 1523.82 Q740.191 1521.07 738.246 1519.33 Q736.325 1517.6 733.223 1517.6 Q731.024 1517.6 728.57 1518.36 Q726.14 1519.13 723.362 1520.68 L723.362 1515.95 Q726.186 1514.82 728.64 1514.24 Q731.093 1513.66 733.13 1513.66 Q738.501 1513.66 741.695 1516.35 Q744.89 1519.03 744.89 1523.52 Q744.89 1525.65 744.079 1527.57 Q743.292 1529.47 741.186 1532.07 Q740.607 1532.74 737.505 1535.95 Q734.404 1539.15 728.755 1544.91 Z" fill="#000000" fill-rule="nonzero" fill-opacity="1" /><path clip-path="url(#clip450)" d="M754.89 1542.97 L759.774 1542.97 L759.774 1548.85 L754.89 1548.85 L754.89 1542.97 Z" fill="#000000" fill-rule="nonzero" fill-opacity="1" /><path clip-path="url(#clip450)" d="M770.005 1514.29 L788.362 1514.29 L788.362 1518.22 L774.288 1518.22 L774.288 1526.7 Q775.306 1526.35 776.325 1526.19 Q777.343 1526 778.362 1526 Q784.149 1526 787.528 1529.17 Q790.908 1532.34 790.908 1537.76 Q790.908 1543.34 787.436 1546.44 Q783.964 1549.52 777.644 1549.52 Q775.468 1549.52 773.2 1549.15 Q770.954 1548.78 768.547 1548.04 L768.547 1543.34 Q770.63 1544.47 772.852 1545.03 Q775.075 1545.58 777.552 1545.58 Q781.556 1545.58 783.894 1543.48 Q786.232 1541.37 786.232 1537.76 Q786.232 1534.15 783.894 1532.04 Q781.556 1529.94 777.552 1529.94 Q775.677 1529.94 773.802 1530.35 Q771.95 1530.77 770.005 1531.65 L770.005 1514.29 Z" fill="#000000" fill-rule="nonzero" fill-opacity="1" /><path clip-path="url(#clip450)" d="M1235.64 1514.29 L1253.99 1514.29 L1253.99 1518.22 L1239.92 1518.22 L1239.92 1526.7 Q1240.94 1526.35 1241.96 1526.19 Q1242.98 1526 1243.99 1526 Q1249.78 1526 1253.16 1529.17 Q1256.54 1532.34 1256.54 1537.76 Q1256.54 1543.34 1253.07 1546.44 Q1249.6 1549.52 1243.28 1549.52 Q1241.1 1549.52 1238.83 1549.15 Q1236.59 1548.78 1234.18 1548.04 L1234.18 1543.34 Q1236.26 1544.47 1238.49 1545.03 Q1240.71 1545.58 1243.18 1545.58 Q1247.19 1545.58 1249.53 1543.48 Q1251.86 1541.37 1251.86 1537.76 Q1251.86 1534.15 1249.53 1532.04 Q1247.19 1529.94 1243.18 1529.94 Q1241.31 1529.94 1239.43 1530.35 Q1237.58 1530.77 1235.64 1531.65 L1235.64 1514.29 Z" fill="#000000" fill-rule="nonzero" fill-opacity="1" /><path clip-path="url(#clip450)" d="M1265.75 1542.97 L1270.64 1542.97 L1270.64 1548.85 L1265.75 1548.85 L1265.75 1542.97 Z" fill="#000000" fill-rule="nonzero" fill-opacity="1" /><path clip-path="url(#clip450)" d="M1290.82 1517.37 Q1287.21 1517.37 1285.38 1520.93 Q1283.58 1524.47 1283.58 1531.6 Q1283.58 1538.71 1285.38 1542.27 Q1287.21 1545.82 1290.82 1545.82 Q1294.46 1545.82 1296.26 1542.27 Q1298.09 1538.71 1298.09 1531.6 Q1298.09 1524.47 1296.26 1520.93 Q1294.46 1517.37 1290.82 1517.37 M1290.82 1513.66 Q1296.63 1513.66 1299.69 1518.27 Q1302.77 1522.85 1302.77 1531.6 Q1302.77 1540.33 1299.69 1544.94 Q1296.63 1549.52 1290.82 1549.52 Q1285.01 1549.52 1281.93 1544.94 Q1278.88 1540.33 1278.88 1531.6 Q1278.88 1522.85 1281.93 1518.27 Q1285.01 1513.66 1290.82 1513.66 Z" fill="#000000" fill-rule="nonzero" fill-opacity="1" /><path clip-path="url(#clip450)" d="M1746.25 1514.29 L1768.47 1514.29 L1768.47 1516.28 L1755.92 1548.85 L1751.04 1548.85 L1762.84 1518.22 L1746.25 1518.22 L1746.25 1514.29 Z" fill="#000000" fill-rule="nonzero" fill-opacity="1" /><path clip-path="url(#clip450)" d="M1777.59 1542.97 L1782.47 1542.97 L1782.47 1548.85 L1777.59 1548.85 L1777.59 1542.97 Z" fill="#000000" fill-rule="nonzero" fill-opacity="1" /><path clip-path="url(#clip450)" d="M1792.71 1514.29 L1811.06 1514.29 L1811.06 1518.22 L1796.99 1518.22 L1796.99 1526.7 Q1798.01 1526.35 1799.02 1526.19 Q1800.04 1526 1801.06 1526 Q1806.85 1526 1810.23 1529.17 Q1813.61 1532.34 1813.61 1537.76 Q1813.61 1543.34 1810.14 1546.44 Q1806.66 1549.52 1800.34 1549.52 Q1798.17 1549.52 1795.9 1549.15 Q1793.65 1548.78 1791.25 1548.04 L1791.25 1543.34 Q1793.33 1544.47 1795.55 1545.03 Q1797.77 1545.58 1800.25 1545.58 Q1804.26 1545.58 1806.59 1543.48 Q1808.93 1541.37 1808.93 1537.76 Q1808.93 1534.15 1806.59 1532.04 Q1804.26 1529.94 1800.25 1529.94 Q1798.38 1529.94 1796.5 1530.35 Q1794.65 1530.77 1792.71 1531.65 L1792.71 1514.29 Z" fill="#000000" fill-rule="nonzero" fill-opacity="1" /><path clip-path="url(#clip450)" d="M2243.45 1544.91 L2251.09 1544.91 L2251.09 1518.55 L2242.78 1520.21 L2242.78 1515.95 L2251.05 1514.29 L2255.72 1514.29 L2255.72 1544.91 L2263.36 1544.91 L2263.36 1548.85 L2243.45 1548.85 L2243.45 1544.91 Z" fill="#000000" fill-rule="nonzero" fill-opacity="1" /><path clip-path="url(#clip450)" d="M2282.81 1517.37 Q2279.19 1517.37 2277.37 1520.93 Q2275.56 1524.47 2275.56 1531.6 Q2275.56 1538.71 2277.37 1542.27 Q2279.19 1545.82 2282.81 1545.82 Q2286.44 1545.82 2288.24 1542.27 Q2290.07 1538.71 2290.07 1531.6 Q2290.07 1524.47 2288.24 1520.93 Q2286.44 1517.37 2282.81 1517.37 M2282.81 1513.66 Q2288.62 1513.66 2291.67 1518.27 Q2294.75 1522.85 2294.75 1531.6 Q2294.75 1540.33 2291.67 1544.94 Q2288.62 1549.52 2282.81 1549.52 Q2276.99 1549.52 2273.92 1544.94 Q2270.86 1540.33 2270.86 1531.6 Q2270.86 1522.85 2273.92 1518.27 Q2276.99 1513.66 2282.81 1513.66 Z" fill="#000000" fill-rule="nonzero" fill-opacity="1" /><path clip-path="url(#clip450)" d="M2302.97 1542.97 L2307.85 1542.97 L2307.85 1548.85 L2302.97 1548.85 L2302.97 1542.97 Z" fill="#000000" fill-rule="nonzero" fill-opacity="1" /><path clip-path="url(#clip450)" d="M2328.04 1517.37 Q2324.43 1517.37 2322.6 1520.93 Q2320.79 1524.47 2320.79 1531.6 Q2320.79 1538.71 2322.6 1542.27 Q2324.43 1545.82 2328.04 1545.82 Q2331.67 1545.82 2333.48 1542.27 Q2335.3 1538.71 2335.3 1531.6 Q2335.3 1524.47 2333.48 1520.93 Q2331.67 1517.37 2328.04 1517.37 M2328.04 1513.66 Q2333.85 1513.66 2336.9 1518.27 Q2339.98 1522.85 2339.98 1531.6 Q2339.98 1540.33 2336.9 1544.94 Q2333.85 1549.52 2328.04 1549.52 Q2322.23 1549.52 2319.15 1544.94 Q2316.09 1540.33 2316.09 1531.6 Q2316.09 1522.85 2319.15 1518.27 Q2322.23 1513.66 2328.04 1513.66 Z" fill="#000000" fill-rule="nonzero" fill-opacity="1" /><polyline clip-path="url(#clip450)" style="stroke:#000000; stroke-linecap:round; stroke-linejoin:round; stroke-width:4; stroke-opacity:1; fill:none" points="184.191,1486.45 184.191,47.2441 "/>
<polyline clip-path="url(#clip450)" style="stroke:#000000; stroke-linecap:round; stroke-linejoin:round; stroke-width:4; stroke-opacity:1; fill:none" points="184.191,1451.91 203.088,1451.91 "/>
<polyline clip-path="url(#clip450)" style="stroke:#000000; stroke-linecap:round; stroke-linejoin:round; stroke-width:4; stroke-opacity:1; fill:none" points="184.191,1134.16 203.088,1134.16 "/>
<polyline clip-path="url(#clip450)" style="stroke:#000000; stroke-linecap:round; stroke-linejoin:round; stroke-width:4; stroke-opacity:1; fill:none" points="184.191,816.416 203.088,816.416 "/>
<polyline clip-path="url(#clip450)" style="stroke:#000000; stroke-linecap:round; stroke-linejoin:round; stroke-width:4; stroke-opacity:1; fill:none" points="184.191,498.67 203.088,498.67 "/>
<polyline clip-path="url(#clip450)" style="stroke:#000000; stroke-linecap:round; stroke-linejoin:round; stroke-width:4; stroke-opacity:1; fill:none" points="184.191,180.925 203.088,180.925 "/>
<path clip-path="url(#clip450)" d="M91.0151 1437.7 Q87.404 1437.7 85.5753 1441.27 Q83.7697 1444.81 83.7697 1451.94 Q83.7697 1459.05 85.5753 1462.61 Q87.404 1466.15 91.0151 1466.15 Q94.6493 1466.15 96.4548 1462.61 Q98.2835 1459.05 98.2835 1451.94 Q98.2835 1444.81 96.4548 1441.27 Q94.6493 1437.7 91.0151 1437.7 M91.0151 1434 Q96.8252 1434 99.8808 1438.61 Q102.959 1443.19 102.959 1451.94 Q102.959 1460.67 99.8808 1465.27 Q96.8252 1469.86 91.0151 1469.86 Q85.2049 1469.86 82.1262 1465.27 Q79.0707 1460.67 79.0707 1451.94 Q79.0707 1443.19 82.1262 1438.61 Q85.2049 1434 91.0151 1434 Z" fill="#000000" fill-rule="nonzero" fill-opacity="1" /><path clip-path="url(#clip450)" d="M111.177 1463.31 L116.061 1463.31 L116.061 1469.19 L111.177 1469.19 L111.177 1463.31 Z" fill="#000000" fill-rule="nonzero" fill-opacity="1" /><path clip-path="url(#clip450)" d="M136.246 1437.7 Q132.635 1437.7 130.807 1441.27 Q129.001 1444.81 129.001 1451.94 Q129.001 1459.05 130.807 1462.61 Q132.635 1466.15 136.246 1466.15 Q139.881 1466.15 141.686 1462.61 Q143.515 1459.05 143.515 1451.94 Q143.515 1444.81 141.686 1441.27 Q139.881 1437.7 136.246 1437.7 M136.246 1434 Q142.056 1434 145.112 1438.61 Q148.191 1443.19 148.191 1451.94 Q148.191 1460.67 145.112 1465.27 Q142.056 1469.86 136.246 1469.86 Q130.436 1469.86 127.357 1465.27 Q124.302 1460.67 124.302 1451.94 Q124.302 1443.19 127.357 1438.61 Q130.436 1434 136.246 1434 Z" fill="#000000" fill-rule="nonzero" fill-opacity="1" /><path clip-path="url(#clip450)" d="M86.0382 1147.51 L102.358 1147.51 L102.358 1151.44 L80.4133 1151.44 L80.4133 1147.51 Q83.0753 1144.75 87.6586 1140.12 Q92.2651 1135.47 93.4456 1134.13 Q95.691 1131.6 96.5706 1129.87 Q97.4734 1128.11 97.4734 1126.42 Q97.4734 1123.66 95.5289 1121.93 Q93.6076 1120.19 90.5058 1120.19 Q88.3067 1120.19 85.8531 1120.95 Q83.4225 1121.72 80.6447 1123.27 L80.6447 1118.55 Q83.4688 1117.41 85.9225 1116.83 Q88.3762 1116.26 90.4132 1116.26 Q95.7836 1116.26 98.978 1118.94 Q102.172 1121.63 102.172 1126.12 Q102.172 1128.25 101.362 1130.17 Q100.575 1132.07 98.4687 1134.66 Q97.89 1135.33 94.7882 1138.55 Q91.6864 1141.74 86.0382 1147.51 Z" fill="#000000" fill-rule="nonzero" fill-opacity="1" /><path clip-path="url(#clip450)" d="M112.172 1145.56 L117.057 1145.56 L117.057 1151.44 L112.172 1151.44 L112.172 1145.56 Z" fill="#000000" fill-rule="nonzero" fill-opacity="1" /><path clip-path="url(#clip450)" d="M127.288 1116.88 L145.644 1116.88 L145.644 1120.82 L131.57 1120.82 L131.57 1129.29 Q132.589 1128.94 133.607 1128.78 Q134.626 1128.59 135.644 1128.59 Q141.431 1128.59 144.811 1131.77 Q148.191 1134.94 148.191 1140.35 Q148.191 1145.93 144.718 1149.03 Q141.246 1152.11 134.927 1152.11 Q132.751 1152.11 130.482 1151.74 Q128.237 1151.37 125.83 1150.63 L125.83 1145.93 Q127.913 1147.07 130.135 1147.62 Q132.357 1148.18 134.834 1148.18 Q138.839 1148.18 141.177 1146.07 Q143.515 1143.96 143.515 1140.35 Q143.515 1136.74 141.177 1134.64 Q138.839 1132.53 134.834 1132.53 Q132.959 1132.53 131.084 1132.95 Q129.232 1133.36 127.288 1134.24 L127.288 1116.88 Z" fill="#000000" fill-rule="nonzero" fill-opacity="1" /><path clip-path="url(#clip450)" d="M81.0614 799.136 L99.4178 799.136 L99.4178 803.071 L85.3438 803.071 L85.3438 811.543 Q86.3623 811.196 87.3808 811.034 Q88.3993 810.849 89.4178 810.849 Q95.2049 810.849 98.5845 814.02 Q101.964 817.191 101.964 822.608 Q101.964 828.186 98.4919 831.288 Q95.0197 834.367 88.7003 834.367 Q86.5243 834.367 84.2558 833.997 Q82.0105 833.626 79.6031 832.885 L79.6031 828.186 Q81.6864 829.321 83.9086 829.876 Q86.1308 830.432 88.6077 830.432 Q92.6123 830.432 94.9502 828.325 Q97.2882 826.219 97.2882 822.608 Q97.2882 818.997 94.9502 816.89 Q92.6123 814.784 88.6077 814.784 Q86.7327 814.784 84.8577 815.2 Q83.0058 815.617 81.0614 816.497 L81.0614 799.136 Z" fill="#000000" fill-rule="nonzero" fill-opacity="1" /><path clip-path="url(#clip450)" d="M111.177 827.816 L116.061 827.816 L116.061 833.696 L111.177 833.696 L111.177 827.816 Z" fill="#000000" fill-rule="nonzero" fill-opacity="1" /><path clip-path="url(#clip450)" d="M136.246 802.214 Q132.635 802.214 130.807 805.779 Q129.001 809.321 129.001 816.45 Q129.001 823.557 130.807 827.122 Q132.635 830.663 136.246 830.663 Q139.881 830.663 141.686 827.122 Q143.515 823.557 143.515 816.45 Q143.515 809.321 141.686 805.779 Q139.881 802.214 136.246 802.214 M136.246 798.511 Q142.056 798.511 145.112 803.117 Q148.191 807.7 148.191 816.45 Q148.191 825.177 145.112 829.784 Q142.056 834.367 136.246 834.367 Q130.436 834.367 127.357 829.784 Q124.302 825.177 124.302 816.45 Q124.302 807.7 127.357 803.117 Q130.436 798.511 136.246 798.511 Z" fill="#000000" fill-rule="nonzero" fill-opacity="1" /><path clip-path="url(#clip450)" d="M80.8299 481.39 L103.052 481.39 L103.052 483.381 L90.5058 515.95 L85.6216 515.95 L97.4271 485.326 L80.8299 485.326 L80.8299 481.39 Z" fill="#000000" fill-rule="nonzero" fill-opacity="1" /><path clip-path="url(#clip450)" d="M112.172 510.071 L117.057 510.071 L117.057 515.95 L112.172 515.95 L112.172 510.071 Z" fill="#000000" fill-rule="nonzero" fill-opacity="1" /><path clip-path="url(#clip450)" d="M127.288 481.39 L145.644 481.39 L145.644 485.326 L131.57 485.326 L131.57 493.798 Q132.589 493.45 133.607 493.288 Q134.626 493.103 135.644 493.103 Q141.431 493.103 144.811 496.275 Q148.191 499.446 148.191 504.862 Q148.191 510.441 144.718 513.543 Q141.246 516.622 134.927 516.622 Q132.751 516.622 130.482 516.251 Q128.237 515.881 125.83 515.14 L125.83 510.441 Q127.913 511.575 130.135 512.131 Q132.357 512.686 134.834 512.686 Q138.839 512.686 141.177 510.58 Q143.515 508.474 143.515 504.862 Q143.515 501.251 141.177 499.145 Q138.839 497.038 134.834 497.038 Q132.959 497.038 131.084 497.455 Q129.232 497.872 127.288 498.751 L127.288 481.39 Z" fill="#000000" fill-rule="nonzero" fill-opacity="1" /><path clip-path="url(#clip450)" d="M51.6634 194.27 L59.3023 194.27 L59.3023 167.904 L50.9921 169.571 L50.9921 165.312 L59.256 163.645 L63.9319 163.645 L63.9319 194.27 L71.5707 194.27 L71.5707 198.205 L51.6634 198.205 L51.6634 194.27 Z" fill="#000000" fill-rule="nonzero" fill-opacity="1" /><path clip-path="url(#clip450)" d="M91.0151 166.724 Q87.404 166.724 85.5753 170.289 Q83.7697 173.83 83.7697 180.96 Q83.7697 188.066 85.5753 191.631 Q87.404 195.173 91.0151 195.173 Q94.6493 195.173 96.4548 191.631 Q98.2835 188.066 98.2835 180.96 Q98.2835 173.83 96.4548 170.289 Q94.6493 166.724 91.0151 166.724 M91.0151 163.02 Q96.8252 163.02 99.8808 167.627 Q102.959 172.21 102.959 180.96 Q102.959 189.687 99.8808 194.293 Q96.8252 198.876 91.0151 198.876 Q85.2049 198.876 82.1262 194.293 Q79.0707 189.687 79.0707 180.96 Q79.0707 172.21 82.1262 167.627 Q85.2049 163.02 91.0151 163.02 Z" fill="#000000" fill-rule="nonzero" fill-opacity="1" /><path clip-path="url(#clip450)" d="M111.177 192.325 L116.061 192.325 L116.061 198.205 L111.177 198.205 L111.177 192.325 Z" fill="#000000" fill-rule="nonzero" fill-opacity="1" /><path clip-path="url(#clip450)" d="M136.246 166.724 Q132.635 166.724 130.807 170.289 Q129.001 173.83 129.001 180.96 Q129.001 188.066 130.807 191.631 Q132.635 195.173 136.246 195.173 Q139.881 195.173 141.686 191.631 Q143.515 188.066 143.515 180.96 Q143.515 173.83 141.686 170.289 Q139.881 166.724 136.246 166.724 M136.246 163.02 Q142.056 163.02 145.112 167.627 Q148.191 172.21 148.191 180.96 Q148.191 189.687 145.112 194.293 Q142.056 198.876 136.246 198.876 Q130.436 198.876 127.357 194.293 Q124.302 189.687 124.302 180.96 Q124.302 172.21 127.357 167.627 Q130.436 163.02 136.246 163.02 Z" fill="#000000" fill-rule="nonzero" fill-opacity="1" /><path clip-path="url(#clip451)" d="M245.565 1324.81 L266.023 1319.72 L286.481 1324.88 L306.94 1320.23 L327.398 1308.32 L347.856 1310.14 L368.314 1295.03 L388.772 1262.55 L409.23 1257.92 L429.689 1228.41 L450.147 1210.06 L470.605 1190.84 L491.063 1182.14 L511.521 1148.2 L531.979 1113.89 L552.438 1079.57 L572.896 1024.51 L593.354 969.694 L613.812 867.263 L634.27 805.199 L654.728 826.479 L675.187 815.26 L695.645 980.576 L716.103 1137.93 L736.561 1231.92 L757.019 1290.46 L777.477 1335.84 L797.936 1356.76 L818.394 1364.76 L838.852 1365.69 L859.31 1368.37 L879.768 1371.68 L900.226 1382.97 L920.685 1386.99 L941.143 1387.85 L961.601 1384.38 L982.059 1378.14 L1002.52 1374.38 L1022.98 1370.98 L1043.43 1368.58 L1063.89 1362.67 L1084.35 1346.8 L1104.81 1335.05 L1125.27 1314.47 L1145.72 1291.69 L1166.18 1266.71 L1186.64 1252.8 L1207.1 1221.78 L1227.56 1191.32 L1248.02 1135.58 L1268.47 1089.39 L1288.93 1051.02 L1309.39 1041.81 L1329.85 1041.51 L1350.31 1037.96 L1370.76 1016.22 L1391.22 1068.54 L1411.68 1122.97 L1432.14 1175.21 L1452.6 1221.11 L1473.05 1274.7 L1493.51 1311.28 L1513.97 1341.95 L1534.43 1358.4 L1554.89 1366.67 L1575.35 1373.37 L1595.8 1378.81 L1616.26 1392.96 L1636.72 1399.52 L1657.18 1403.47 L1677.64 1407.35 L1698.09 1408.34 L1718.55 1408.17 L1739.01 1407.06 L1759.47 1402.28 L1779.93 1399.09 L1800.39 1396.96 L1820.84 1389.52 L1841.3 1381.26 L1861.76 1375.19 L1882.22 1367 L1902.68 1348.18 L1923.13 1338.39 L1943.59 1319.14 L1964.05 1290.37 L1984.51 1265.43 L2004.97 1236.89 L2025.43 1199.31 L2045.88 1205.78 L2066.34 1212.34 L2086.8 1212.71 L2107.26 1221.81 L2127.72 1240.36 L2148.17 1246 L2168.63 1299.55 L2189.09 1325.23 L2209.55 1351.67 L2230.01 1373.34 L2250.47 1383.45 L2270.92 1388.27 L2291.38 1388.19 L2291.38 762.877 L2270.92 672.023 L2250.47 523.81 L2230.01 558.14 L2209.55 642.425 L2189.09 609.273 L2168.63 574.556 L2148.17 588.53 L2127.72 611.366 L2107.26 568.259 L2086.8 457.059 L2066.34 395.445 L2045.88 426.747 L2025.43 538.11 L2004.97 571.001 L1984.51 616.091 L1964.05 671.806 L1943.59 716.603 L1923.13 773.38 L1902.68 836.784 L1882.22 891.7 L1861.76 959.835 L1841.3 987.505 L1820.84 980.835 L1800.39 1014.13 L1779.93 1048.2 L1759.47 1100.37 L1739.01 1112.62 L1718.55 1140.48 L1698.09 1167.66 L1677.64 1173.34 L1657.18 1187.14 L1636.72 1191.44 L1616.26 1184.42 L1595.8 1172.12 L1575.35 1195.81 L1554.89 1120.01 L1534.43 774.099 L1513.97 312.211 L1493.51 123.092 L1473.05 87.9763 L1452.6 204.494 L1432.14 306.235 L1411.68 342.935 L1391.22 388.192 L1370.76 437.939 L1350.31 371.143 L1329.85 392.694 L1309.39 482.14 L1288.93 523.532 L1268.47 616.18 L1248.02 685.956 L1227.56 760.925 L1207.1 825.311 L1186.64 864.755 L1166.18 890.101 L1145.72 953.991 L1125.27 1005.98 L1104.81 1039.52 L1084.35 1068.56 L1063.89 1089.24 L1043.43 1128.16 L1022.98 1189.12 L1002.52 1214.84 L982.059 1237.05 L961.601 1245.73 L941.143 1256.36 L920.685 1252.4 L900.226 1261.09 L879.768 1273.26 L859.31 1262.35 L838.852 1210.59 L818.394 1040.33 L797.936 694.29 L777.477 345.265 L757.019 258.719 L736.561 294.005 L716.103 501.409 L695.645 572.461 L675.187 454.704 L654.728 426.271 L634.27 456.036 L613.812 488.759 L593.354 551.257 L572.896 613.907 L552.438 696.472 L531.979 792.826 L511.521 860.692 L491.063 944.85 L470.605 998.042 L450.147 1047.64 L429.689 1107.97 L409.23 1138.59 L388.772 1170.65 L368.314 1210.79 L347.856 1241.36 L327.398 1266.03 L306.94 1287.92 L286.481 1299.08 L266.023 1312.26 L245.565 1324.81  Z" fill="#009af9" fill-rule="evenodd" fill-opacity="0.5"/>
<polyline clip-path="url(#clip451)" style="stroke:#009af9; stroke-linecap:round; stroke-linejoin:round; stroke-width:12; stroke-opacity:1; fill:none" points="245.565,1324.81 266.023,1315.66 286.481,1307.73 306.94,1294.32 327.398,1283.62 347.856,1262.19 368.314,1240.44 388.772,1217.15 409.23,1198.71 429.689,1164.59 450.147,1117 470.605,1082.32 491.063,1046.08 511.521,1001.74 531.979,949.631 552.438,877.903 572.896,802.359 593.354,733.164 613.812,670.231 634.27,629.65 654.728,596.483 675.187,665.858 695.645,666.267 716.103,859.051 736.561,990.962 757.019,1092.55 777.477,1184.53 797.936,1256.44 818.394,1297.38 838.852,1318.86 859.31,1330.35 879.768,1346.94 900.226,1352.3 920.685,1351.77 941.143,1346.4 961.601,1336.89 982.059,1324.15 1002.52,1317.34 1022.98,1305.12 1043.43,1289.55 1063.89,1270.47 1084.35,1248.01 1104.81,1220.22 1125.27,1181.04 1145.72,1139.83 1166.18,1099.18 1186.64,1051.82 1207.1,1001.04 1227.56,957.457 1248.02,902.627 1268.47,849.908 1288.93,742.578 1309.39,647.377 1329.85,664.932 1350.31,591.974 1370.76,537.578 1391.22,667.946 1411.68,737.564 1432.14,892.174 1452.6,1008.5 1473.05,1131.94 1493.51,1202.78 1513.97,1229.16 1534.43,1276.64 1554.89,1296.7 1575.35,1304.63 1595.8,1346.57 1616.26,1361.03 1636.72,1358.33 1657.18,1356.9 1677.64,1340.59 1698.09,1331.02 1718.55,1315.28 1739.01,1296.51 1759.47,1275.03 1779.93,1250.6 1800.39,1223.3 1820.84,1181.55 1841.3,1139.54 1861.76,1100.1 1882.22,1053.33 1902.68,1008.43 1923.13,945.943 1943.59,904.804 1964.05,800.793 1984.51,715.786 2004.97,696.748 2025.43,750.659 2045.88,792.3 2066.34,812.013 2086.8,865.721 2107.26,884.926 2127.72,1043.94 2148.17,1103.56 2168.63,1158.13 2189.09,1195.86 2209.55,1227 2230.01,1254.71 2250.47,1271.29 2270.92,1286.96 2291.38,1289.68 "/>
<path clip-path="url(#clip451)" d="M245.565 1324.81 L266.023 1358.78 L286.481 1377.27 L306.94 1393.1 L327.398 1399.94 L347.856 1408.44 L368.314 1413.81 L388.772 1420.19 L409.23 1425.76 L429.689 1430.26 L450.147 1431.58 L470.605 1432.58 L491.063 1433.69 L511.521 1434.62 L531.979 1435.73 L552.438 1434.2 L572.896 1433.21 L593.354 1431.36 L613.812 1426.98 L634.27 1421.44 L654.728 1413.69 L675.187 1392.52 L695.645 1359.82 L716.103 1320.89 L736.561 1262.63 L757.019 1161.33 L777.477 1062.51 L797.936 1119.4 L818.394 1180.05 L838.852 1231 L859.31 1273.56 L879.768 1316.59 L900.226 1347.11 L920.685 1361.17 L941.143 1379.55 L961.601 1399.09 L982.059 1413.78 L1002.52 1424.36 L1022.98 1426.87 L1043.43 1430.35 L1063.89 1432.9 L1084.35 1434.73 L1104.81 1436.13 L1125.27 1437.88 L1145.72 1439.13 L1166.18 1439.47 L1186.64 1441.34 L1207.1 1442.76 L1227.56 1443.48 L1248.02 1443.81 L1268.47 1443.95 L1288.93 1443.78 L1309.39 1443.67 L1329.85 1441.96 L1350.31 1439.87 L1370.76 1436.27 L1391.22 1429.9 L1411.68 1414.75 L1432.14 1389.34 L1452.6 1340.61 L1473.05 1317.76 L1493.51 1266.18 L1513.97 1238.16 L1534.43 1262.85 L1554.89 1289.5 L1575.35 1311.16 L1595.8 1330.96 L1616.26 1342.3 L1636.72 1354.64 L1657.18 1366.45 L1677.64 1376.64 L1698.09 1389.62 L1718.55 1398.96 L1739.01 1408.85 L1759.47 1415.76 L1779.93 1417.8 L1800.39 1421.98 L1820.84 1425.89 L1841.3 1426.57 L1861.76 1429.48 L1882.22 1432.17 L1902.68 1435.09 L1923.13 1438.43 L1943.59 1441.21 L1964.05 1443.26 L1984.51 1443.98 L2004.97 1445.25 L2025.43 1445.72 L2045.88 1445.07 L2066.34 1444.92 L2086.8 1443.14 L2107.26 1443.26 L2127.72 1441.1 L2148.17 1438.3 L2168.63 1432.34 L2189.09 1425.41 L2209.55 1409.11 L2230.01 1382.3 L2250.47 1377.38 L2270.92 1391.67 L2291.38 1401.15 L2291.38 784.98 L2270.92 830.799 L2250.47 946.941 L2230.01 894.518 L2209.55 841.598 L2189.09 842.921 L2168.63 760.708 L2148.17 670.623 L2127.72 680.009 L2107.26 798.039 L2086.8 902.868 L2066.34 992.042 L2045.88 1035.04 L2025.43 1103.87 L2004.97 1176.68 L1984.51 1227.07 L1964.05 1261.61 L1943.59 1300.67 L1923.13 1323.66 L1902.68 1334.07 L1882.22 1340.47 L1861.76 1349.78 L1841.3 1356.53 L1820.84 1368.21 L1800.39 1368.48 L1779.93 1364.5 L1759.47 1355.68 L1739.01 1331.67 L1718.55 1289.84 L1698.09 1246.09 L1677.64 1186.73 L1657.18 1099.43 L1636.72 985.507 L1616.26 837.861 L1595.8 688.617 L1575.35 512.613 L1554.89 374.259 L1534.43 444.161 L1513.97 663.561 L1493.51 772.281 L1473.05 730.334 L1452.6 768.634 L1432.14 755.915 L1411.68 787.396 L1391.22 901.636 L1370.76 1022.04 L1350.31 1130.17 L1329.85 1179.24 L1309.39 1202.82 L1288.93 1244.41 L1268.47 1271.25 L1248.02 1288.42 L1227.56 1296.95 L1207.1 1323.01 L1186.64 1333.62 L1166.18 1339.18 L1145.72 1348.62 L1125.27 1357.64 L1104.81 1366.25 L1084.35 1365.27 L1063.89 1363.8 L1043.43 1356.16 L1022.98 1342.89 L1002.52 1318.58 L982.059 1280.13 L961.601 1228.65 L941.143 1174.35 L920.685 1100.31 L900.226 1015.71 L879.768 908.962 L859.31 781.132 L838.852 673.522 L818.394 655.133 L797.936 787.751 L777.477 792.461 L757.019 701.909 L736.561 704.666 L716.103 687.448 L695.645 734.679 L675.187 899.234 L654.728 1047.65 L634.27 1191.9 L613.812 1285.37 L593.354 1338.55 L572.896 1364.76 L552.438 1387.51 L531.979 1400.72 L511.521 1408.16 L491.063 1409.13 L470.605 1412.7 L450.147 1409.54 L429.689 1412.13 L409.23 1405.59 L388.772 1401.06 L368.314 1395.55 L347.856 1390.8 L327.398 1380.22 L306.94 1369.49 L286.481 1357.17 L266.023 1339.21 L245.565 1324.81  Z" fill="#e26f46" fill-rule="evenodd" fill-opacity="0.5"/>
<polyline clip-path="url(#clip451)" style="stroke:#e26f46; stroke-linecap:round; stroke-linejoin:round; stroke-width:12; stroke-opacity:1; fill:none" points="245.565,1324.81 266.023,1350.42 286.481,1364.81 306.94,1379.1 327.398,1390.47 347.856,1399.25 368.314,1405.6 388.772,1413.08 409.23,1418.14 429.689,1419.9 450.147,1418.49 470.605,1419.31 491.063,1418.82 511.521,1416.25 531.979,1412.51 552.438,1410.3 572.896,1403.35 593.354,1388.69 613.812,1364.95 634.27,1335.64 654.728,1271.21 675.187,1179 695.645,1101.41 716.103,1002.2 736.561,898.604 757.019,883.014 777.477,895.876 797.936,966.604 818.394,1046.95 838.852,1108.13 859.31,1172.73 879.768,1229.72 900.226,1273.42 920.685,1298.59 941.143,1325.2 961.601,1348.68 982.059,1364.56 1002.52,1379.01 1022.98,1390.38 1043.43,1399.59 1063.89,1406.88 1084.35,1411.23 1104.81,1415.99 1125.27,1420.72 1145.72,1424.25 1166.18,1426.28 1186.64,1426.58 1207.1,1425.42 1227.56,1421.32 1248.02,1417.44 1268.47,1412.4 1288.93,1397.08 1309.39,1377.74 1329.85,1348.49 1350.31,1299.39 1370.76,1222.66 1391.22,1155.06 1411.68,1085.97 1432.14,985.987 1452.6,949.63 1473.05,990.561 1493.51,989.8 1513.97,976.384 1534.43,1047.53 1554.89,1103.1 1575.35,1163.17 1595.8,1218.61 1616.26,1262.64 1636.72,1294.04 1657.18,1334.32 1677.64,1360.24 1698.09,1368.53 1718.55,1382.33 1739.01,1396.97 1759.47,1400.7 1779.93,1404.92 1800.39,1411.27 1820.84,1412.73 1841.3,1418.53 1861.76,1424.19 1882.22,1425.43 1902.68,1424.76 1923.13,1423.55 1943.59,1420.1 1964.05,1418.44 1984.51,1406.37 2004.97,1389.24 2025.43,1355.61 2045.88,1295.3 2066.34,1221.36 2086.8,1146.44 2107.26,1054.41 2127.72,1028.47 2148.17,1032.48 2168.63,1048.77 2189.09,1063.6 2209.55,1122.8 2230.01,1168.78 2250.47,1197.54 2270.92,1248.59 2291.38,1264.4 "/>
</svg>
