<?xml version="1.0" encoding="utf-8"?>
<svg xmlns="http://www.w3.org/2000/svg" xmlns:xlink="http://www.w3.org/1999/xlink" width="600" height="400" viewBox="0 0 2400 1600">
<defs>
  <clipPath id="clip510">
    <rect x="0" y="0" width="2400" height="1600"/>
  </clipPath>
</defs>
<path clip-path="url(#clip510)" d="M0 1600 L2400 1600 L2400 0 L0 0  Z" fill="#ffffff" fill-rule="evenodd" fill-opacity="1"/>
<defs>
  <clipPath id="clip511">
    <rect x="112" y="47" width="2242" height="1440"/>
  </clipPath>
</defs>
<path clip-path="url(#clip510)" d="M112.177 1486.45 L2352.76 1486.45 L2352.76 47.2441 L112.177 47.2441  Z" fill="#ffffff" fill-rule="evenodd" fill-opacity="1"/>
<polyline clip-path="url(#clip511)" style="stroke:#000000; stroke-linecap:round; stroke-linejoin:round; stroke-width:2; stroke-opacity:0.1; fill:none" points="175.59,1486.45 175.59,47.2441 "/>
<polyline clip-path="url(#clip511)" style="stroke:#000000; stroke-linecap:round; stroke-linejoin:round; stroke-width:2; stroke-opacity:0.1; fill:none" points="704.028,1486.45 704.028,47.2441 "/>
<polyline clip-path="url(#clip511)" style="stroke:#000000; stroke-linecap:round; stroke-linejoin:round; stroke-width:2; stroke-opacity:0.1; fill:none" points="1232.47,1486.45 1232.47,47.2441 "/>
<polyline clip-path="url(#clip511)" style="stroke:#000000; stroke-linecap:round; stroke-linejoin:round; stroke-width:2; stroke-opacity:0.1; fill:none" points="1760.9,1486.45 1760.9,47.2441 "/>
<polyline clip-path="url(#clip511)" style="stroke:#000000; stroke-linecap:round; stroke-linejoin:round; stroke-width:2; stroke-opacity:0.1; fill:none" points="2289.34,1486.45 2289.34,47.2441 "/>
<polyline clip-path="url(#clip511)" style="stroke:#000000; stroke-linecap:round; stroke-linejoin:round; stroke-width:2; stroke-opacity:0.1; fill:none" points="112.177,1321.55 2352.76,1321.55 "/>
<polyline clip-path="url(#clip511)" style="stroke:#000000; stroke-linecap:round; stroke-linejoin:round; stroke-width:2; stroke-opacity:0.1; fill:none" points="112.177,1135.81 2352.76,1135.81 "/>
<polyline clip-path="url(#clip511)" style="stroke:#000000; stroke-linecap:round; stroke-linejoin:round; stroke-width:2; stroke-opacity:0.1; fill:none" points="112.177,950.071 2352.76,950.071 "/>
<polyline clip-path="url(#clip511)" style="stroke:#000000; stroke-linecap:round; stroke-linejoin:round; stroke-width:2; stroke-opacity:0.1; fill:none" points="112.177,764.331 2352.76,764.331 "/>
<polyline clip-path="url(#clip511)" style="stroke:#000000; stroke-linecap:round; stroke-linejoin:round; stroke-width:2; stroke-opacity:0.1; fill:none" points="112.177,578.59 2352.76,578.59 "/>
<polyline clip-path="url(#clip511)" style="stroke:#000000; stroke-linecap:round; stroke-linejoin:round; stroke-width:2; stroke-opacity:0.1; fill:none" points="112.177,392.85 2352.76,392.85 "/>
<polyline clip-path="url(#clip511)" style="stroke:#000000; stroke-linecap:round; stroke-linejoin:round; stroke-width:2; stroke-opacity:0.1; fill:none" points="112.177,207.11 2352.76,207.11 "/>
<polyline clip-path="url(#clip510)" style="stroke:#000000; stroke-linecap:round; stroke-linejoin:round; stroke-width:4; stroke-opacity:1; fill:none" points="112.177,1486.45 2352.76,1486.45 "/>
<polyline clip-path="url(#clip510)" style="stroke:#000000; stroke-linecap:round; stroke-linejoin:round; stroke-width:4; stroke-opacity:1; fill:none" points="175.59,1486.45 175.59,1467.55 "/>
<polyline clip-path="url(#clip510)" style="stroke:#000000; stroke-linecap:round; stroke-linejoin:round; stroke-width:4; stroke-opacity:1; fill:none" points="704.028,1486.45 704.028,1467.55 "/>
<polyline clip-path="url(#clip510)" style="stroke:#000000; stroke-linecap:round; stroke-linejoin:round; stroke-width:4; stroke-opacity:1; fill:none" points="1232.47,1486.45 1232.47,1467.55 "/>
<polyline clip-path="url(#clip510)" style="stroke:#000000; stroke-linecap:round; stroke-linejoin:round; stroke-width:4; stroke-opacity:1; fill:none" points="1760.9,1486.45 1760.9,1467.55 "/>
<polyline clip-path="url(#clip510)" style="stroke:#000000; stroke-linecap:round; stroke-linejoin:round; stroke-width:4; stroke-opacity:1; fill:none" points="2289.34,1486.45 2289.34,1467.55 "/>
<path clip-path="url(#clip510)" d="M137.893 1517.37 Q134.282 1517.37 132.453 1520.93 Q130.648 1524.47 130.648 1531.6 Q130.648 1538.71 132.453 1542.27 Q134.282 1545.82 137.893 1545.82 Q141.527 1545.82 143.333 1542.27 Q145.162 1538.71 145.162 1531.6 Q145.162 1524.47 143.333 1520.93 Q141.527 1517.37 137.893 1517.37 M137.893 1513.66 Q143.703 1513.66 146.759 1518.27 Q149.838 1522.85 149.838 1531.6 Q149.838 1540.33 146.759 1544.94 Q143.703 1549.52 137.893 1549.52 Q132.083 1549.52 129.004 1544.94 Q125.949 1540.33 125.949 1531.6 Q125.949 1522.85 129.004 1518.27 Q132.083 1513.66 137.893 1513.66 Z" fill="#000000" fill-rule="nonzero" fill-opacity="1" /><path clip-path="url(#clip510)" d="M158.055 1542.97 L162.939 1542.97 L162.939 1548.85 L158.055 1548.85 L158.055 1542.97 Z" fill="#000000" fill-rule="nonzero" fill-opacity="1" /><path clip-path="url(#clip510)" d="M183.124 1517.37 Q179.513 1517.37 177.685 1520.93 Q175.879 1524.47 175.879 1531.6 Q175.879 1538.71 177.685 1542.27 Q179.513 1545.82 183.124 1545.82 Q186.759 1545.82 188.564 1542.27 Q190.393 1538.71 190.393 1531.6 Q190.393 1524.47 188.564 1520.93 Q186.759 1517.37 183.124 1517.37 M183.124 1513.66 Q188.935 1513.66 191.99 1518.27 Q195.069 1522.85 195.069 1531.6 Q195.069 1540.33 191.99 1544.94 Q188.935 1549.52 183.124 1549.52 Q177.314 1549.52 174.236 1544.94 Q171.18 1540.33 171.18 1531.6 Q171.18 1522.85 174.236 1518.27 Q177.314 1513.66 183.124 1513.66 Z" fill="#000000" fill-rule="nonzero" fill-opacity="1" /><path clip-path="url(#clip510)" d="M213.286 1517.37 Q209.675 1517.37 207.847 1520.93 Q206.041 1524.47 206.041 1531.6 Q206.041 1538.71 207.847 1542.27 Q209.675 1545.82 213.286 1545.82 Q216.921 1545.82 218.726 1542.27 Q220.555 1538.71 220.555 1531.6 Q220.555 1524.47 218.726 1520.93 Q216.921 1517.37 213.286 1517.37 M213.286 1513.66 Q219.096 1513.66 222.152 1518.27 Q225.231 1522.85 225.231 1531.6 Q225.231 1540.33 222.152 1544.94 Q219.096 1549.52 213.286 1549.52 Q207.476 1549.52 204.397 1544.94 Q201.342 1540.33 201.342 1531.6 Q201.342 1522.85 204.397 1518.27 Q207.476 1513.66 213.286 1513.66 Z" fill="#000000" fill-rule="nonzero" fill-opacity="1" /><path clip-path="url(#clip510)" d="M666.829 1517.37 Q663.218 1517.37 661.39 1520.93 Q659.584 1524.47 659.584 1531.6 Q659.584 1538.71 661.39 1542.27 Q663.218 1545.82 666.829 1545.82 Q670.464 1545.82 672.269 1542.27 Q674.098 1538.71 674.098 1531.6 Q674.098 1524.47 672.269 1520.93 Q670.464 1517.37 666.829 1517.37 M666.829 1513.66 Q672.639 1513.66 675.695 1518.27 Q678.774 1522.85 678.774 1531.6 Q678.774 1540.33 675.695 1544.94 Q672.639 1549.52 666.829 1549.52 Q661.019 1549.52 657.94 1544.94 Q654.885 1540.33 654.885 1531.6 Q654.885 1522.85 657.94 1518.27 Q661.019 1513.66 666.829 1513.66 Z" fill="#000000" fill-rule="nonzero" fill-opacity="1" /><path clip-path="url(#clip510)" d="M686.991 1542.97 L691.875 1542.97 L691.875 1548.85 L686.991 1548.85 L686.991 1542.97 Z" fill="#000000" fill-rule="nonzero" fill-opacity="1" /><path clip-path="url(#clip510)" d="M706.088 1544.91 L722.408 1544.91 L722.408 1548.85 L700.463 1548.85 L700.463 1544.91 Q703.125 1542.16 707.709 1537.53 Q712.315 1532.88 713.496 1531.53 Q715.741 1529.01 716.621 1527.27 Q717.523 1525.51 717.523 1523.82 Q717.523 1521.07 715.579 1519.33 Q713.658 1517.6 710.556 1517.6 Q708.357 1517.6 705.903 1518.36 Q703.473 1519.13 700.695 1520.68 L700.695 1515.95 Q703.519 1514.82 705.973 1514.24 Q708.426 1513.66 710.463 1513.66 Q715.834 1513.66 719.028 1516.35 Q722.223 1519.03 722.223 1523.52 Q722.223 1525.65 721.412 1527.57 Q720.625 1529.47 718.519 1532.07 Q717.94 1532.74 714.838 1535.95 Q711.736 1539.15 706.088 1544.91 Z" fill="#000000" fill-rule="nonzero" fill-opacity="1" /><path clip-path="url(#clip510)" d="M732.269 1514.29 L750.625 1514.29 L750.625 1518.22 L736.551 1518.22 L736.551 1526.7 Q737.57 1526.35 738.588 1526.19 Q739.607 1526 740.625 1526 Q746.412 1526 749.792 1529.17 Q753.171 1532.34 753.171 1537.76 Q753.171 1543.34 749.699 1546.44 Q746.227 1549.52 739.908 1549.52 Q737.732 1549.52 735.463 1549.15 Q733.218 1548.78 730.81 1548.04 L730.81 1543.34 Q732.894 1544.47 735.116 1545.03 Q737.338 1545.58 739.815 1545.58 Q743.82 1545.58 746.158 1543.48 Q748.496 1541.37 748.496 1537.76 Q748.496 1534.15 746.158 1532.04 Q743.82 1529.94 739.815 1529.94 Q737.94 1529.94 736.065 1530.35 Q734.213 1530.77 732.269 1531.65 L732.269 1514.29 Z" fill="#000000" fill-rule="nonzero" fill-opacity="1" /><path clip-path="url(#clip510)" d="M1194.77 1517.37 Q1191.16 1517.37 1189.33 1520.93 Q1187.52 1524.47 1187.52 1531.6 Q1187.52 1538.71 1189.33 1542.27 Q1191.16 1545.82 1194.77 1545.82 Q1198.4 1545.82 1200.21 1542.27 Q1202.04 1538.71 1202.04 1531.6 Q1202.04 1524.47 1200.21 1520.93 Q1198.4 1517.37 1194.77 1517.37 M1194.77 1513.66 Q1200.58 1513.66 1203.64 1518.27 Q1206.71 1522.85 1206.71 1531.6 Q1206.71 1540.33 1203.64 1544.94 Q1200.58 1549.52 1194.77 1549.52 Q1188.96 1549.52 1185.88 1544.94 Q1182.83 1540.33 1182.83 1531.6 Q1182.83 1522.85 1185.88 1518.27 Q1188.96 1513.66 1194.77 1513.66 Z" fill="#000000" fill-rule="nonzero" fill-opacity="1" /><path clip-path="url(#clip510)" d="M1214.93 1542.97 L1219.82 1542.97 L1219.82 1548.85 L1214.93 1548.85 L1214.93 1542.97 Z" fill="#000000" fill-rule="nonzero" fill-opacity="1" /><path clip-path="url(#clip510)" d="M1230.05 1514.29 L1248.4 1514.29 L1248.4 1518.22 L1234.33 1518.22 L1234.33 1526.7 Q1235.35 1526.35 1236.37 1526.19 Q1237.39 1526 1238.4 1526 Q1244.19 1526 1247.57 1529.17 Q1250.95 1532.34 1250.95 1537.76 Q1250.95 1543.34 1247.48 1546.44 Q1244.01 1549.52 1237.69 1549.52 Q1235.51 1549.52 1233.24 1549.15 Q1231 1548.78 1228.59 1548.04 L1228.59 1543.34 Q1230.67 1544.47 1232.89 1545.03 Q1235.12 1545.58 1237.59 1545.58 Q1241.6 1545.58 1243.94 1543.48 Q1246.27 1541.37 1246.27 1537.76 Q1246.27 1534.15 1243.94 1532.04 Q1241.6 1529.94 1237.59 1529.94 Q1235.72 1529.94 1233.84 1530.35 Q1231.99 1530.77 1230.05 1531.65 L1230.05 1514.29 Z" fill="#000000" fill-rule="nonzero" fill-opacity="1" /><path clip-path="url(#clip510)" d="M1270.16 1517.37 Q1266.55 1517.37 1264.72 1520.93 Q1262.92 1524.47 1262.92 1531.6 Q1262.92 1538.71 1264.72 1542.27 Q1266.55 1545.82 1270.16 1545.82 Q1273.8 1545.82 1275.6 1542.27 Q1277.43 1538.71 1277.43 1531.6 Q1277.43 1524.47 1275.6 1520.93 Q1273.8 1517.37 1270.16 1517.37 M1270.16 1513.66 Q1275.97 1513.66 1279.03 1518.27 Q1282.11 1522.85 1282.11 1531.6 Q1282.11 1540.33 1279.03 1544.94 Q1275.97 1549.52 1270.16 1549.52 Q1264.35 1549.52 1261.27 1544.94 Q1258.22 1540.33 1258.22 1531.6 Q1258.22 1522.85 1261.27 1518.27 Q1264.35 1513.66 1270.16 1513.66 Z" fill="#000000" fill-rule="nonzero" fill-opacity="1" /><path clip-path="url(#clip510)" d="M1723.71 1517.37 Q1720.09 1517.37 1718.27 1520.93 Q1716.46 1524.47 1716.46 1531.6 Q1716.46 1538.71 1718.27 1542.27 Q1720.09 1545.82 1723.71 1545.82 Q1727.34 1545.82 1729.15 1542.27 Q1730.97 1538.71 1730.97 1531.6 Q1730.97 1524.47 1729.15 1520.93 Q1727.34 1517.37 1723.71 1517.37 M1723.71 1513.66 Q1729.52 1513.66 1732.57 1518.27 Q1735.65 1522.85 1735.65 1531.6 Q1735.65 1540.33 1732.57 1544.94 Q1729.52 1549.52 1723.71 1549.52 Q1717.9 1549.52 1714.82 1544.94 Q1711.76 1540.33 1711.76 1531.6 Q1711.76 1522.85 1714.82 1518.27 Q1717.9 1513.66 1723.71 1513.66 Z" fill="#000000" fill-rule="nonzero" fill-opacity="1" /><path clip-path="url(#clip510)" d="M1743.87 1542.97 L1748.75 1542.97 L1748.75 1548.85 L1743.87 1548.85 L1743.87 1542.97 Z" fill="#000000" fill-rule="nonzero" fill-opacity="1" /><path clip-path="url(#clip510)" d="M1757.76 1514.29 L1779.98 1514.29 L1779.98 1516.28 L1767.43 1548.85 L1762.55 1548.85 L1774.35 1518.22 L1757.76 1518.22 L1757.76 1514.29 Z" fill="#000000" fill-rule="nonzero" fill-opacity="1" /><path clip-path="url(#clip510)" d="M1789.15 1514.29 L1807.5 1514.29 L1807.5 1518.22 L1793.43 1518.22 L1793.43 1526.7 Q1794.45 1526.35 1795.46 1526.19 Q1796.48 1526 1797.5 1526 Q1803.29 1526 1806.67 1529.17 Q1810.05 1532.34 1810.05 1537.76 Q1810.05 1543.34 1806.58 1546.44 Q1803.1 1549.52 1796.78 1549.52 Q1794.61 1549.52 1792.34 1549.15 Q1790.09 1548.78 1787.69 1548.04 L1787.69 1543.34 Q1789.77 1544.47 1791.99 1545.03 Q1794.21 1545.58 1796.69 1545.58 Q1800.7 1545.58 1803.03 1543.48 Q1805.37 1541.37 1805.37 1537.76 Q1805.37 1534.15 1803.03 1532.04 Q1800.7 1529.94 1796.69 1529.94 Q1794.82 1529.94 1792.94 1530.35 Q1791.09 1530.77 1789.15 1531.65 L1789.15 1514.29 Z" fill="#000000" fill-rule="nonzero" fill-opacity="1" /><path clip-path="url(#clip510)" d="M2241.42 1544.91 L2249.05 1544.91 L2249.05 1518.55 L2240.74 1520.21 L2240.74 1515.95 L2249.01 1514.29 L2253.68 1514.29 L2253.68 1544.91 L2261.32 1544.91 L2261.32 1548.85 L2241.42 1548.85 L2241.42 1544.91 Z" fill="#000000" fill-rule="nonzero" fill-opacity="1" /><path clip-path="url(#clip510)" d="M2270.77 1542.97 L2275.65 1542.97 L2275.65 1548.85 L2270.77 1548.85 L2270.77 1542.97 Z" fill="#000000" fill-rule="nonzero" fill-opacity="1" /><path clip-path="url(#clip510)" d="M2295.84 1517.37 Q2292.23 1517.37 2290.4 1520.93 Q2288.59 1524.47 2288.59 1531.6 Q2288.59 1538.71 2290.4 1542.27 Q2292.23 1545.82 2295.84 1545.82 Q2299.47 1545.82 2301.28 1542.27 Q2303.1 1538.71 2303.1 1531.6 Q2303.1 1524.47 2301.28 1520.93 Q2299.47 1517.37 2295.84 1517.37 M2295.84 1513.66 Q2301.65 1513.66 2304.7 1518.27 Q2307.78 1522.85 2307.78 1531.6 Q2307.78 1540.33 2304.7 1544.94 Q2301.65 1549.52 2295.84 1549.52 Q2290.03 1549.52 2286.95 1544.94 Q2283.89 1540.33 2283.89 1531.6 Q2283.89 1522.85 2286.95 1518.27 Q2290.03 1513.66 2295.84 1513.66 Z" fill="#000000" fill-rule="nonzero" fill-opacity="1" /><path clip-path="url(#clip510)" d="M2326 1517.37 Q2322.39 1517.37 2320.56 1520.93 Q2318.75 1524.47 2318.75 1531.6 Q2318.75 1538.71 2320.56 1542.27 Q2322.39 1545.82 2326 1545.82 Q2329.63 1545.82 2331.44 1542.27 Q2333.27 1538.71 2333.27 1531.6 Q2333.27 1524.47 2331.44 1520.93 Q2329.63 1517.37 2326 1517.37 M2326 1513.66 Q2331.81 1513.66 2334.86 1518.27 Q2337.94 1522.85 2337.94 1531.6 Q2337.94 1540.33 2334.86 1544.94 Q2331.81 1549.52 2326 1549.52 Q2320.19 1549.52 2317.11 1544.94 Q2314.05 1540.33 2314.05 1531.6 Q2314.05 1522.85 2317.11 1518.27 Q2320.19 1513.66 2326 1513.66 Z" fill="#000000" fill-rule="nonzero" fill-opacity="1" /><polyline clip-path="url(#clip510)" style="stroke:#000000; stroke-linecap:round; stroke-linejoin:round; stroke-width:4; stroke-opacity:1; fill:none" points="112.177,1486.45 112.177,47.2441 "/>
<polyline clip-path="url(#clip510)" style="stroke:#000000; stroke-linecap:round; stroke-linejoin:round; stroke-width:4; stroke-opacity:1; fill:none" points="112.177,1321.55 131.075,1321.55 "/>
<polyline clip-path="url(#clip510)" style="stroke:#000000; stroke-linecap:round; stroke-linejoin:round; stroke-width:4; stroke-opacity:1; fill:none" points="112.177,1135.81 131.075,1135.81 "/>
<polyline clip-path="url(#clip510)" style="stroke:#000000; stroke-linecap:round; stroke-linejoin:round; stroke-width:4; stroke-opacity:1; fill:none" points="112.177,950.071 131.075,950.071 "/>
<polyline clip-path="url(#clip510)" style="stroke:#000000; stroke-linecap:round; stroke-linejoin:round; stroke-width:4; stroke-opacity:1; fill:none" points="112.177,764.331 131.075,764.331 "/>
<polyline clip-path="url(#clip510)" style="stroke:#000000; stroke-linecap:round; stroke-linejoin:round; stroke-width:4; stroke-opacity:1; fill:none" points="112.177,578.59 131.075,578.59 "/>
<polyline clip-path="url(#clip510)" style="stroke:#000000; stroke-linecap:round; stroke-linejoin:round; stroke-width:4; stroke-opacity:1; fill:none" points="112.177,392.85 131.075,392.85 "/>
<polyline clip-path="url(#clip510)" style="stroke:#000000; stroke-linecap:round; stroke-linejoin:round; stroke-width:4; stroke-opacity:1; fill:none" points="112.177,207.11 131.075,207.11 "/>
<path clip-path="url(#clip510)" d="M56.2699 1334.9 L63.9087 1334.9 L63.9087 1308.53 L55.5986 1310.2 L55.5986 1305.94 L63.8624 1304.27 L68.5383 1304.27 L68.5383 1334.9 L76.1772 1334.9 L76.1772 1338.83 L56.2699 1338.83 L56.2699 1334.9 Z" fill="#000000" fill-rule="nonzero" fill-opacity="1" /><path clip-path="url(#clip510)" d="M59.8578 1149.16 L76.1772 1149.16 L76.1772 1153.09 L54.2328 1153.09 L54.2328 1149.16 Q56.8949 1146.4 61.4782 1141.77 Q66.0846 1137.12 67.2652 1135.78 Q69.5105 1133.25 70.3902 1131.52 Q71.2929 1129.76 71.2929 1128.07 Q71.2929 1125.31 69.3485 1123.58 Q67.4272 1121.84 64.3254 1121.84 Q62.1263 1121.84 59.6726 1122.61 Q57.2421 1123.37 54.4643 1124.92 L54.4643 1120.2 Q57.2884 1119.06 59.7421 1118.49 Q62.1958 1117.91 64.2328 1117.91 Q69.6031 1117.91 72.7976 1120.59 Q75.992 1123.28 75.992 1127.77 Q75.992 1129.9 75.1818 1131.82 Q74.3948 1133.72 72.2883 1136.31 Q71.7096 1136.98 68.6078 1140.2 Q65.5059 1143.39 59.8578 1149.16 Z" fill="#000000" fill-rule="nonzero" fill-opacity="1" /><path clip-path="url(#clip510)" d="M69.0476 948.717 Q72.404 949.435 74.279 951.703 Q76.1772 953.972 76.1772 957.305 Q76.1772 962.421 72.6587 965.222 Q69.1402 968.022 62.6587 968.022 Q60.4828 968.022 58.168 967.583 Q55.8764 967.166 53.4227 966.309 L53.4227 961.796 Q55.3671 962.93 57.6819 963.509 Q59.9967 964.087 62.5198 964.087 Q66.918 964.087 69.2096 962.351 Q71.5244 960.615 71.5244 957.305 Q71.5244 954.249 69.3717 952.536 Q67.242 950.8 63.4226 950.8 L59.3949 950.8 L59.3949 946.958 L63.6078 946.958 Q67.0569 946.958 68.8855 945.592 Q70.7142 944.203 70.7142 941.611 Q70.7142 938.949 68.8161 937.537 Q66.9411 936.101 63.4226 936.101 Q61.5013 936.101 59.3023 936.518 Q57.1032 936.935 54.4643 937.814 L54.4643 933.648 Q57.1264 932.907 59.4412 932.537 Q61.7791 932.166 63.8393 932.166 Q69.1633 932.166 72.2652 934.597 Q75.367 937.004 75.367 941.124 Q75.367 943.995 73.7235 945.986 Q72.08 947.953 69.0476 948.717 Z" fill="#000000" fill-rule="nonzero" fill-opacity="1" /><path clip-path="url(#clip510)" d="M66.5939 751.125 L54.7884 769.574 L66.5939 769.574 L66.5939 751.125 M65.367 747.051 L71.2466 747.051 L71.2466 769.574 L76.1772 769.574 L76.1772 773.463 L71.2466 773.463 L71.2466 781.611 L66.5939 781.611 L66.5939 773.463 L50.9921 773.463 L50.9921 768.949 L65.367 747.051 Z" fill="#000000" fill-rule="nonzero" fill-opacity="1" /><path clip-path="url(#clip510)" d="M55.2745 561.31 L73.6309 561.31 L73.6309 565.246 L59.5569 565.246 L59.5569 573.718 Q60.5754 573.371 61.5939 573.209 Q62.6124 573.023 63.6309 573.023 Q69.418 573.023 72.7976 576.195 Q76.1772 579.366 76.1772 584.783 Q76.1772 590.361 72.705 593.463 Q69.2328 596.542 62.9134 596.542 Q60.7374 596.542 58.4689 596.171 Q56.2236 595.801 53.8162 595.06 L53.8162 590.361 Q55.8995 591.496 58.1217 592.051 Q60.3439 592.607 62.8208 592.607 Q66.8254 592.607 69.1633 590.5 Q71.5013 588.394 71.5013 584.783 Q71.5013 581.171 69.1633 579.065 Q66.8254 576.959 62.8208 576.959 Q60.9458 576.959 59.0708 577.375 Q57.2189 577.792 55.2745 578.671 L55.2745 561.31 Z" fill="#000000" fill-rule="nonzero" fill-opacity="1" /><path clip-path="url(#clip510)" d="M64.6495 390.987 Q61.5013 390.987 59.6495 393.139 Q57.8208 395.292 57.8208 399.042 Q57.8208 402.769 59.6495 404.945 Q61.5013 407.098 64.6495 407.098 Q67.7976 407.098 69.6263 404.945 Q71.4781 402.769 71.4781 399.042 Q71.4781 395.292 69.6263 393.139 Q67.7976 390.987 64.6495 390.987 M73.9318 376.334 L73.9318 380.593 Q72.1726 379.76 70.367 379.32 Q68.5846 378.88 66.8254 378.88 Q62.1958 378.88 59.7421 382.005 Q57.3115 385.13 56.9643 391.45 Q58.33 389.436 60.3902 388.371 Q62.4504 387.283 64.9272 387.283 Q70.1355 387.283 73.1448 390.454 Q76.1772 393.602 76.1772 399.042 Q76.1772 404.366 73.029 407.584 Q69.8809 410.801 64.6495 410.801 Q58.6541 410.801 55.4828 406.218 Q52.3116 401.612 52.3116 392.885 Q52.3116 384.69 56.2004 379.829 Q60.0893 374.945 66.6402 374.945 Q68.3994 374.945 70.1818 375.292 Q71.9874 375.64 73.9318 376.334 Z" fill="#000000" fill-rule="nonzero" fill-opacity="1" /><path clip-path="url(#clip510)" d="M53.9551 189.83 L76.1772 189.83 L76.1772 191.821 L63.6309 224.39 L58.7467 224.39 L70.5522 193.765 L53.9551 193.765 L53.9551 189.83 Z" fill="#000000" fill-rule="nonzero" fill-opacity="1" /><polyline clip-path="url(#clip511)" style="stroke:#009af9; stroke-linecap:round; stroke-linejoin:round; stroke-width:12; stroke-opacity:1; fill:none" points="175.59,1414.42 386.965,1415.6 598.34,1402.93 809.716,1382.19 1021.09,1371.05 1232.47,1374.75 1443.84,1378.19 1655.22,1350.35 1866.59,1339.45 2077.97,1326.55 2289.34,1283.34 "/>
<polyline clip-path="url(#clip511)" style="stroke:#000000; stroke-linecap:round; stroke-linejoin:round; stroke-width:12; stroke-opacity:1; fill:none" points="175.59,1414.42 175.59,1414.42 "/>
<polyline clip-path="url(#clip511)" style="stroke:#000000; stroke-linecap:round; stroke-linejoin:round; stroke-width:12; stroke-opacity:1; fill:none" points="386.965,1436.58 386.965,1349.18 "/>
<polyline clip-path="url(#clip511)" style="stroke:#000000; stroke-linecap:round; stroke-linejoin:round; stroke-width:12; stroke-opacity:1; fill:none" points="598.34,1436.38 598.34,1314.06 "/>
<polyline clip-path="url(#clip511)" style="stroke:#000000; stroke-linecap:round; stroke-linejoin:round; stroke-width:12; stroke-opacity:1; fill:none" points="809.716,1443.14 809.716,1306.19 "/>
<polyline clip-path="url(#clip511)" style="stroke:#000000; stroke-linecap:round; stroke-linejoin:round; stroke-width:12; stroke-opacity:1; fill:none" points="1021.09,1445.72 1021.09,1250.73 "/>
<polyline clip-path="url(#clip511)" style="stroke:#000000; stroke-linecap:round; stroke-linejoin:round; stroke-width:12; stroke-opacity:1; fill:none" points="1232.47,1440.53 1232.47,1231.16 "/>
<polyline clip-path="url(#clip511)" style="stroke:#000000; stroke-linecap:round; stroke-linejoin:round; stroke-width:12; stroke-opacity:1; fill:none" points="1443.84,1428.42 1443.84,1214.56 "/>
<polyline clip-path="url(#clip511)" style="stroke:#000000; stroke-linecap:round; stroke-linejoin:round; stroke-width:12; stroke-opacity:1; fill:none" points="1655.22,1427.07 1655.22,1147.7 "/>
<polyline clip-path="url(#clip511)" style="stroke:#000000; stroke-linecap:round; stroke-linejoin:round; stroke-width:12; stroke-opacity:1; fill:none" points="1866.59,1431.52 1866.59,1090.19 "/>
<polyline clip-path="url(#clip511)" style="stroke:#000000; stroke-linecap:round; stroke-linejoin:round; stroke-width:12; stroke-opacity:1; fill:none" points="2077.97,1436.45 2077.97,1051.05 "/>
<polyline clip-path="url(#clip511)" style="stroke:#000000; stroke-linecap:round; stroke-linejoin:round; stroke-width:12; stroke-opacity:1; fill:none" points="2289.34,1443.12 2289.34,1016.66 "/>
<line clip-path="url(#clip511)" x1="191.59" y1="1414.42" x2="159.59" y2="1414.42" style="stroke:#000000; stroke-width:12; stroke-opacity:1"/>
<line clip-path="url(#clip511)" x1="191.59" y1="1414.42" x2="159.59" y2="1414.42" style="stroke:#000000; stroke-width:12; stroke-opacity:1"/>
<line clip-path="url(#clip511)" x1="402.965" y1="1436.58" x2="370.965" y2="1436.58" style="stroke:#000000; stroke-width:12; stroke-opacity:1"/>
<line clip-path="url(#clip511)" x1="402.965" y1="1349.18" x2="370.965" y2="1349.18" style="stroke:#000000; stroke-width:12; stroke-opacity:1"/>
<line clip-path="url(#clip511)" x1="614.34" y1="1436.38" x2="582.34" y2="1436.38" style="stroke:#000000; stroke-width:12; stroke-opacity:1"/>
<line clip-path="url(#clip511)" x1="614.34" y1="1314.06" x2="582.34" y2="1314.06" style="stroke:#000000; stroke-width:12; stroke-opacity:1"/>
<line clip-path="url(#clip511)" x1="825.716" y1="1443.14" x2="793.716" y2="1443.14" style="stroke:#000000; stroke-width:12; stroke-opacity:1"/>
<line clip-path="url(#clip511)" x1="825.716" y1="1306.19" x2="793.716" y2="1306.19" style="stroke:#000000; stroke-width:12; stroke-opacity:1"/>
<line clip-path="url(#clip511)" x1="1037.09" y1="1445.72" x2="1005.09" y2="1445.72" style="stroke:#000000; stroke-width:12; stroke-opacity:1"/>
<line clip-path="url(#clip511)" x1="1037.09" y1="1250.73" x2="1005.09" y2="1250.73" style="stroke:#000000; stroke-width:12; stroke-opacity:1"/>
<line clip-path="url(#clip511)" x1="1248.47" y1="1440.53" x2="1216.47" y2="1440.53" style="stroke:#000000; stroke-width:12; stroke-opacity:1"/>
<line clip-path="url(#clip511)" x1="1248.47" y1="1231.16" x2="1216.47" y2="1231.16" style="stroke:#000000; stroke-width:12; stroke-opacity:1"/>
<line clip-path="url(#clip511)" x1="1459.84" y1="1428.42" x2="1427.84" y2="1428.42" style="stroke:#000000; stroke-width:12; stroke-opacity:1"/>
<line clip-path="url(#clip511)" x1="1459.84" y1="1214.56" x2="1427.84" y2="1214.56" style="stroke:#000000; stroke-width:12; stroke-opacity:1"/>
<line clip-path="url(#clip511)" x1="1671.22" y1="1427.07" x2="1639.22" y2="1427.07" style="stroke:#000000; stroke-width:12; stroke-opacity:1"/>
<line clip-path="url(#clip511)" x1="1671.22" y1="1147.7" x2="1639.22" y2="1147.7" style="stroke:#000000; stroke-width:12; stroke-opacity:1"/>
<line clip-path="url(#clip511)" x1="1882.59" y1="1431.52" x2="1850.59" y2="1431.52" style="stroke:#000000; stroke-width:12; stroke-opacity:1"/>
<line clip-path="url(#clip511)" x1="1882.59" y1="1090.19" x2="1850.59" y2="1090.19" style="stroke:#000000; stroke-width:12; stroke-opacity:1"/>
<line clip-path="url(#clip511)" x1="2093.97" y1="1436.45" x2="2061.97" y2="1436.45" style="stroke:#000000; stroke-width:12; stroke-opacity:1"/>
<line clip-path="url(#clip511)" x1="2093.97" y1="1051.05" x2="2061.97" y2="1051.05" style="stroke:#000000; stroke-width:12; stroke-opacity:1"/>
<line clip-path="url(#clip511)" x1="2305.34" y1="1443.12" x2="2273.34" y2="1443.12" style="stroke:#000000; stroke-width:12; stroke-opacity:1"/>
<line clip-path="url(#clip511)" x1="2305.34" y1="1016.66" x2="2273.34" y2="1016.66" style="stroke:#000000; stroke-width:12; stroke-opacity:1"/>
<polyline clip-path="url(#clip511)" style="stroke:#e26f46; stroke-linecap:round; stroke-linejoin:round; stroke-width:12; stroke-opacity:1; fill:none" points="175.59,1414.42 386.965,1400.59 598.34,1393.63 809.716,1371.78 1021.09,1369.4 1232.47,1365.73 1443.84,1357.58 1655.22,1319.43 1866.59,1286.9 2077.97,1274.81 2289.34,1261.85 "/>
<polyline clip-path="url(#clip511)" style="stroke:#000000; stroke-linecap:round; stroke-linejoin:round; stroke-width:12; stroke-opacity:1; fill:none" points="175.59,1414.42 175.59,1414.42 "/>
<polyline clip-path="url(#clip511)" style="stroke:#000000; stroke-linecap:round; stroke-linejoin:round; stroke-width:12; stroke-opacity:1; fill:none" points="386.965,1426.7 386.965,1386.11 "/>
<polyline clip-path="url(#clip511)" style="stroke:#000000; stroke-linecap:round; stroke-linejoin:round; stroke-width:12; stroke-opacity:1; fill:none" points="598.34,1424.41 598.34,1331.95 "/>
<polyline clip-path="url(#clip511)" style="stroke:#000000; stroke-linecap:round; stroke-linejoin:round; stroke-width:12; stroke-opacity:1; fill:none" points="809.716,1432 809.716,1318.01 "/>
<polyline clip-path="url(#clip511)" style="stroke:#000000; stroke-linecap:round; stroke-linejoin:round; stroke-width:12; stroke-opacity:1; fill:none" points="1021.09,1440.73 1021.09,1285.06 "/>
<polyline clip-path="url(#clip511)" style="stroke:#000000; stroke-linecap:round; stroke-linejoin:round; stroke-width:12; stroke-opacity:1; fill:none" points="1232.47,1434.19 1232.47,1105.74 "/>
<polyline clip-path="url(#clip511)" style="stroke:#000000; stroke-linecap:round; stroke-linejoin:round; stroke-width:12; stroke-opacity:1; fill:none" points="1443.84,1419.76 1443.84,890.55 "/>
<polyline clip-path="url(#clip511)" style="stroke:#000000; stroke-linecap:round; stroke-linejoin:round; stroke-width:12; stroke-opacity:1; fill:none" points="1655.22,1410.84 1655.22,698.278 "/>
<polyline clip-path="url(#clip511)" style="stroke:#000000; stroke-linecap:round; stroke-linejoin:round; stroke-width:12; stroke-opacity:1; fill:none" points="1866.59,1412.94 1866.59,564.843 "/>
<polyline clip-path="url(#clip511)" style="stroke:#000000; stroke-linecap:round; stroke-linejoin:round; stroke-width:12; stroke-opacity:1; fill:none" points="2077.97,1433.83 2077.97,420.127 "/>
<polyline clip-path="url(#clip511)" style="stroke:#000000; stroke-linecap:round; stroke-linejoin:round; stroke-width:12; stroke-opacity:1; fill:none" points="2289.34,1439.31 2289.34,87.9763 "/>
<line clip-path="url(#clip511)" x1="191.59" y1="1414.42" x2="159.59" y2="1414.42" style="stroke:#000000; stroke-width:12; stroke-opacity:1"/>
<line clip-path="url(#clip511)" x1="191.59" y1="1414.42" x2="159.59" y2="1414.42" style="stroke:#000000; stroke-width:12; stroke-opacity:1"/>
<line clip-path="url(#clip511)" x1="402.965" y1="1426.7" x2="370.965" y2="1426.7" style="stroke:#000000; stroke-width:12; stroke-opacity:1"/>
<line clip-path="url(#clip511)" x1="402.965" y1="1386.11" x2="370.965" y2="1386.11" style="stroke:#000000; stroke-width:12; stroke-opacity:1"/>
<line clip-path="url(#clip511)" x1="614.34" y1="1424.41" x2="582.34" y2="1424.41" style="stroke:#000000; stroke-width:12; stroke-opacity:1"/>
<line clip-path="url(#clip511)" x1="614.34" y1="1331.95" x2="582.34" y2="1331.95" style="stroke:#000000; stroke-width:12; stroke-opacity:1"/>
<line clip-path="url(#clip511)" x1="825.716" y1="1432" x2="793.716" y2="1432" style="stroke:#000000; stroke-width:12; stroke-opacity:1"/>
<line clip-path="url(#clip511)" x1="825.716" y1="1318.01" x2="793.716" y2="1318.01" style="stroke:#000000; stroke-width:12; stroke-opacity:1"/>
<line clip-path="url(#clip511)" x1="1037.09" y1="1440.73" x2="1005.09" y2="1440.73" style="stroke:#000000; stroke-width:12; stroke-opacity:1"/>
<line clip-path="url(#clip511)" x1="1037.09" y1="1285.06" x2="1005.09" y2="1285.06" style="stroke:#000000; stroke-width:12; stroke-opacity:1"/>
<line clip-path="url(#clip511)" x1="1248.47" y1="1434.19" x2="1216.47" y2="1434.19" style="stroke:#000000; stroke-width:12; stroke-opacity:1"/>
<line clip-path="url(#clip511)" x1="1248.47" y1="1105.74" x2="1216.47" y2="1105.74" style="stroke:#000000; stroke-width:12; stroke-opacity:1"/>
<line clip-path="url(#clip511)" x1="1459.84" y1="1419.76" x2="1427.84" y2="1419.76" style="stroke:#000000; stroke-width:12; stroke-opacity:1"/>
<line clip-path="url(#clip511)" x1="1459.84" y1="890.55" x2="1427.84" y2="890.55" style="stroke:#000000; stroke-width:12; stroke-opacity:1"/>
<line clip-path="url(#clip511)" x1="1671.22" y1="1410.84" x2="1639.22" y2="1410.84" style="stroke:#000000; stroke-width:12; stroke-opacity:1"/>
<line clip-path="url(#clip511)" x1="1671.22" y1="698.278" x2="1639.22" y2="698.278" style="stroke:#000000; stroke-width:12; stroke-opacity:1"/>
<line clip-path="url(#clip511)" x1="1882.59" y1="1412.94" x2="1850.59" y2="1412.94" style="stroke:#000000; stroke-width:12; stroke-opacity:1"/>
<line clip-path="url(#clip511)" x1="1882.59" y1="564.843" x2="1850.59" y2="564.843" style="stroke:#000000; stroke-width:12; stroke-opacity:1"/>
<line clip-path="url(#clip511)" x1="2093.97" y1="1433.83" x2="2061.97" y2="1433.83" style="stroke:#000000; stroke-width:12; stroke-opacity:1"/>
<line clip-path="url(#clip511)" x1="2093.97" y1="420.127" x2="2061.97" y2="420.127" style="stroke:#000000; stroke-width:12; stroke-opacity:1"/>
<line clip-path="url(#clip511)" x1="2305.34" y1="1439.31" x2="2273.34" y2="1439.31" style="stroke:#000000; stroke-width:12; stroke-opacity:1"/>
<line clip-path="url(#clip511)" x1="2305.34" y1="87.9763" x2="2273.34" y2="87.9763" style="stroke:#000000; stroke-width:12; stroke-opacity:1"/>
</svg>
