<?xml version="1.0" encoding="utf-8"?>
<svg xmlns="http://www.w3.org/2000/svg" xmlns:xlink="http://www.w3.org/1999/xlink" width="600" height="400" viewBox="0 0 2400 1600">
<defs>
  <clipPath id="clip550">
    <rect x="0" y="0" width="2400" height="1600"/>
  </clipPath>
</defs>
<path clip-path="url(#clip550)" d="M0 1600 L2400 1600 L2400 0 L0 0  Z" fill="#ffffff" fill-rule="evenodd" fill-opacity="1"/>
<defs>
  <clipPath id="clip551">
    <rect x="112" y="47" width="2242" height="1440"/>
  </clipPath>
</defs>
<path clip-path="url(#clip550)" d="M112.177 1486.45 L2352.76 1486.45 L2352.76 47.2441 L112.177 47.2441  Z" fill="#ffffff" fill-rule="evenodd" fill-opacity="1"/>
<polyline clip-path="url(#clip551)" style="stroke:#000000; stroke-linecap:round; stroke-linejoin:round; stroke-width:2; stroke-opacity:0.1; fill:none" points="175.59,1486.45 175.59,47.2441 "/>
<polyline clip-path="url(#clip551)" style="stroke:#000000; stroke-linecap:round; stroke-linejoin:round; stroke-width:2; stroke-opacity:0.1; fill:none" points="704.028,1486.45 704.028,47.2441 "/>
<polyline clip-path="url(#clip551)" style="stroke:#000000; stroke-linecap:round; stroke-linejoin:round; stroke-width:2; stroke-opacity:0.1; fill:none" points="1232.47,1486.45 1232.47,47.2441 "/>
<polyline clip-path="url(#clip551)" style="stroke:#000000; stroke-linecap:round; stroke-linejoin:round; stroke-width:2; stroke-opacity:0.1; fill:none" points="1760.9,1486.45 1760.9,47.2441 "/>
<polyline clip-path="url(#clip551)" style="stroke:#000000; stroke-linecap:round; stroke-linejoin:round; stroke-width:2; stroke-opacity:0.1; fill:none" points="2289.34,1486.45 2289.34,47.2441 "/>
<polyline clip-path="url(#clip551)" style="stroke:#000000; stroke-linecap:round; stroke-linejoin:round; stroke-width:2; stroke-opacity:0.1; fill:none" points="112.177,1458.41 2352.76,1458.41 "/>
<polyline clip-path="url(#clip551)" style="stroke:#000000; stroke-linecap:round; stroke-linejoin:round; stroke-width:2; stroke-opacity:0.1; fill:none" points="112.177,1136.88 2352.76,1136.88 "/>
<polyline clip-path="url(#clip551)" style="stroke:#000000; stroke-linecap:round; stroke-linejoin:round; stroke-width:2; stroke-opacity:0.1; fill:none" points="112.177,815.362 2352.76,815.362 "/>
<polyline clip-path="url(#clip551)" style="stroke:#000000; stroke-linecap:round; stroke-linejoin:round; stroke-width:2; stroke-opacity:0.1; fill:none" points="112.177,493.84 2352.76,493.84 "/>
<polyline clip-path="url(#clip551)" style="stroke:#000000; stroke-linecap:round; stroke-linejoin:round; stroke-width:2; stroke-opacity:0.1; fill:none" points="112.177,172.319 2352.76,172.319 "/>
<polyline clip-path="url(#clip550)" style="stroke:#000000; stroke-linecap:round; stroke-linejoin:round; stroke-width:4; stroke-opacity:1; fill:none" points="112.177,1486.45 2352.76,1486.45 "/>
<polyline clip-path="url(#clip550)" style="stroke:#000000; stroke-linecap:round; stroke-linejoin:round; stroke-width:4; stroke-opacity:1; fill:none" points="175.59,1486.45 175.59,1467.55 "/>
<polyline clip-path="url(#clip550)" style="stroke:#000000; stroke-linecap:round; stroke-linejoin:round; stroke-width:4; stroke-opacity:1; fill:none" points="704.028,1486.45 704.028,1467.55 "/>
<polyline clip-path="url(#clip550)" style="stroke:#000000; stroke-linecap:round; stroke-linejoin:round; stroke-width:4; stroke-opacity:1; fill:none" points="1232.47,1486.45 1232.47,1467.55 "/>
<polyline clip-path="url(#clip550)" style="stroke:#000000; stroke-linecap:round; stroke-linejoin:round; stroke-width:4; stroke-opacity:1; fill:none" points="1760.9,1486.45 1760.9,1467.55 "/>
<polyline clip-path="url(#clip550)" style="stroke:#000000; stroke-linecap:round; stroke-linejoin:round; stroke-width:4; stroke-opacity:1; fill:none" points="2289.34,1486.45 2289.34,1467.55 "/>
<path clip-path="url(#clip550)" d="M152.974 1517.37 Q149.363 1517.37 147.534 1520.93 Q145.729 1524.47 145.729 1531.6 Q145.729 1538.71 147.534 1542.27 Q149.363 1545.82 152.974 1545.82 Q156.608 1545.82 158.414 1542.27 Q160.243 1538.71 160.243 1531.6 Q160.243 1524.47 158.414 1520.93 Q156.608 1517.37 152.974 1517.37 M152.974 1513.66 Q158.784 1513.66 161.84 1518.27 Q164.919 1522.85 164.919 1531.6 Q164.919 1540.33 161.84 1544.94 Q158.784 1549.52 152.974 1549.52 Q147.164 1549.52 144.085 1544.94 Q141.03 1540.33 141.03 1531.6 Q141.03 1522.85 144.085 1518.27 Q147.164 1513.66 152.974 1513.66 Z" fill="#000000" fill-rule="nonzero" fill-opacity="1" /><path clip-path="url(#clip550)" d="M173.136 1542.97 L178.02 1542.97 L178.02 1548.85 L173.136 1548.85 L173.136 1542.97 Z" fill="#000000" fill-rule="nonzero" fill-opacity="1" /><path clip-path="url(#clip550)" d="M198.205 1517.37 Q194.594 1517.37 192.766 1520.93 Q190.96 1524.47 190.96 1531.6 Q190.96 1538.71 192.766 1542.27 Q194.594 1545.82 198.205 1545.82 Q201.84 1545.82 203.645 1542.27 Q205.474 1538.71 205.474 1531.6 Q205.474 1524.47 203.645 1520.93 Q201.84 1517.37 198.205 1517.37 M198.205 1513.66 Q204.016 1513.66 207.071 1518.27 Q210.15 1522.85 210.15 1531.6 Q210.15 1540.33 207.071 1544.94 Q204.016 1549.52 198.205 1549.52 Q192.395 1549.52 189.317 1544.94 Q186.261 1540.33 186.261 1531.6 Q186.261 1522.85 189.317 1518.27 Q192.395 1513.66 198.205 1513.66 Z" fill="#000000" fill-rule="nonzero" fill-opacity="1" /><path clip-path="url(#clip550)" d="M675.764 1544.91 L692.084 1544.91 L692.084 1548.85 L670.139 1548.85 L670.139 1544.91 Q672.801 1542.16 677.385 1537.53 Q681.991 1532.88 683.172 1531.53 Q685.417 1529.01 686.297 1527.27 Q687.2 1525.51 687.2 1523.82 Q687.2 1521.07 685.255 1519.33 Q683.334 1517.6 680.232 1517.6 Q678.033 1517.6 675.579 1518.36 Q673.149 1519.13 670.371 1520.68 L670.371 1515.95 Q673.195 1514.82 675.649 1514.24 Q678.102 1513.66 680.139 1513.66 Q685.51 1513.66 688.704 1516.35 Q691.899 1519.03 691.899 1523.52 Q691.899 1525.65 691.088 1527.57 Q690.301 1529.47 688.195 1532.07 Q687.616 1532.74 684.514 1535.95 Q681.413 1539.15 675.764 1544.91 Z" fill="#000000" fill-rule="nonzero" fill-opacity="1" /><path clip-path="url(#clip550)" d="M701.899 1542.97 L706.783 1542.97 L706.783 1548.85 L701.899 1548.85 L701.899 1542.97 Z" fill="#000000" fill-rule="nonzero" fill-opacity="1" /><path clip-path="url(#clip550)" d="M717.014 1514.29 L735.371 1514.29 L735.371 1518.22 L721.297 1518.22 L721.297 1526.7 Q722.315 1526.35 723.334 1526.19 Q724.352 1526 725.371 1526 Q731.158 1526 734.537 1529.17 Q737.917 1532.34 737.917 1537.76 Q737.917 1543.34 734.445 1546.44 Q730.972 1549.52 724.653 1549.52 Q722.477 1549.52 720.209 1549.15 Q717.963 1548.78 715.556 1548.04 L715.556 1543.34 Q717.639 1544.47 719.861 1545.03 Q722.084 1545.58 724.56 1545.58 Q728.565 1545.58 730.903 1543.48 Q733.241 1541.37 733.241 1537.76 Q733.241 1534.15 730.903 1532.04 Q728.565 1529.94 724.56 1529.94 Q722.685 1529.94 720.81 1530.35 Q718.959 1530.77 717.014 1531.65 L717.014 1514.29 Z" fill="#000000" fill-rule="nonzero" fill-opacity="1" /><path clip-path="url(#clip550)" d="M1199.63 1514.29 L1217.99 1514.29 L1217.99 1518.22 L1203.91 1518.22 L1203.91 1526.7 Q1204.93 1526.35 1205.95 1526.19 Q1206.97 1526 1207.99 1526 Q1213.77 1526 1217.15 1529.17 Q1220.53 1532.34 1220.53 1537.76 Q1220.53 1543.34 1217.06 1546.44 Q1213.59 1549.52 1207.27 1549.52 Q1205.09 1549.52 1202.83 1549.15 Q1200.58 1548.78 1198.17 1548.04 L1198.17 1543.34 Q1200.26 1544.47 1202.48 1545.03 Q1204.7 1545.58 1207.18 1545.58 Q1211.18 1545.58 1213.52 1543.48 Q1215.86 1541.37 1215.86 1537.76 Q1215.86 1534.15 1213.52 1532.04 Q1211.18 1529.94 1207.18 1529.94 Q1205.3 1529.94 1203.43 1530.35 Q1201.58 1530.77 1199.63 1531.65 L1199.63 1514.29 Z" fill="#000000" fill-rule="nonzero" fill-opacity="1" /><path clip-path="url(#clip550)" d="M1229.75 1542.97 L1234.63 1542.97 L1234.63 1548.85 L1229.75 1548.85 L1229.75 1542.97 Z" fill="#000000" fill-rule="nonzero" fill-opacity="1" /><path clip-path="url(#clip550)" d="M1254.82 1517.37 Q1251.2 1517.37 1249.38 1520.93 Q1247.57 1524.47 1247.57 1531.6 Q1247.57 1538.71 1249.38 1542.27 Q1251.2 1545.82 1254.82 1545.82 Q1258.45 1545.82 1260.26 1542.27 Q1262.08 1538.71 1262.08 1531.6 Q1262.08 1524.47 1260.26 1520.93 Q1258.45 1517.37 1254.82 1517.37 M1254.82 1513.66 Q1260.63 1513.66 1263.68 1518.27 Q1266.76 1522.85 1266.76 1531.6 Q1266.76 1540.33 1263.68 1544.94 Q1260.63 1549.52 1254.82 1549.52 Q1249.01 1549.52 1245.93 1544.94 Q1242.87 1540.33 1242.87 1531.6 Q1242.87 1522.85 1245.93 1518.27 Q1249.01 1513.66 1254.82 1513.66 Z" fill="#000000" fill-rule="nonzero" fill-opacity="1" /><path clip-path="url(#clip550)" d="M1727.22 1514.29 L1749.45 1514.29 L1749.45 1516.28 L1736.9 1548.85 L1732.02 1548.85 L1743.82 1518.22 L1727.22 1518.22 L1727.22 1514.29 Z" fill="#000000" fill-rule="nonzero" fill-opacity="1" /><path clip-path="url(#clip550)" d="M1758.57 1542.97 L1763.45 1542.97 L1763.45 1548.85 L1758.57 1548.85 L1758.57 1542.97 Z" fill="#000000" fill-rule="nonzero" fill-opacity="1" /><path clip-path="url(#clip550)" d="M1773.68 1514.29 L1792.04 1514.29 L1792.04 1518.22 L1777.97 1518.22 L1777.97 1526.7 Q1778.98 1526.35 1780 1526.19 Q1781.02 1526 1782.04 1526 Q1787.83 1526 1791.21 1529.17 Q1794.59 1532.34 1794.59 1537.76 Q1794.59 1543.34 1791.11 1546.44 Q1787.64 1549.52 1781.32 1549.52 Q1779.15 1549.52 1776.88 1549.15 Q1774.63 1548.78 1772.22 1548.04 L1772.22 1543.34 Q1774.31 1544.47 1776.53 1545.03 Q1778.75 1545.58 1781.23 1545.58 Q1785.23 1545.58 1787.57 1543.48 Q1789.91 1541.37 1789.91 1537.76 Q1789.91 1534.15 1787.57 1532.04 Q1785.23 1529.94 1781.23 1529.94 Q1779.35 1529.94 1777.48 1530.35 Q1775.63 1530.77 1773.68 1531.65 L1773.68 1514.29 Z" fill="#000000" fill-rule="nonzero" fill-opacity="1" /><path clip-path="url(#clip550)" d="M2241.42 1544.91 L2249.05 1544.91 L2249.05 1518.55 L2240.74 1520.21 L2240.74 1515.95 L2249.01 1514.29 L2253.68 1514.29 L2253.68 1544.91 L2261.32 1544.91 L2261.32 1548.85 L2241.42 1548.85 L2241.42 1544.91 Z" fill="#000000" fill-rule="nonzero" fill-opacity="1" /><path clip-path="url(#clip550)" d="M2280.77 1517.37 Q2277.16 1517.37 2275.33 1520.93 Q2273.52 1524.47 2273.52 1531.6 Q2273.52 1538.71 2275.33 1542.27 Q2277.16 1545.82 2280.77 1545.82 Q2284.4 1545.82 2286.21 1542.27 Q2288.04 1538.71 2288.04 1531.6 Q2288.04 1524.47 2286.21 1520.93 Q2284.4 1517.37 2280.77 1517.37 M2280.77 1513.66 Q2286.58 1513.66 2289.63 1518.27 Q2292.71 1522.85 2292.71 1531.6 Q2292.71 1540.33 2289.63 1544.94 Q2286.58 1549.52 2280.77 1549.52 Q2274.96 1549.52 2271.88 1544.94 Q2268.82 1540.33 2268.82 1531.6 Q2268.82 1522.85 2271.88 1518.27 Q2274.96 1513.66 2280.77 1513.66 Z" fill="#000000" fill-rule="nonzero" fill-opacity="1" /><path clip-path="url(#clip550)" d="M2300.93 1542.97 L2305.81 1542.97 L2305.81 1548.85 L2300.93 1548.85 L2300.93 1542.97 Z" fill="#000000" fill-rule="nonzero" fill-opacity="1" /><path clip-path="url(#clip550)" d="M2326 1517.37 Q2322.39 1517.37 2320.56 1520.93 Q2318.75 1524.47 2318.75 1531.6 Q2318.75 1538.71 2320.56 1542.27 Q2322.39 1545.82 2326 1545.82 Q2329.63 1545.82 2331.44 1542.27 Q2333.27 1538.71 2333.27 1531.6 Q2333.27 1524.47 2331.44 1520.93 Q2329.63 1517.37 2326 1517.37 M2326 1513.66 Q2331.81 1513.66 2334.86 1518.27 Q2337.94 1522.85 2337.94 1531.6 Q2337.94 1540.33 2334.86 1544.94 Q2331.81 1549.52 2326 1549.52 Q2320.19 1549.52 2317.11 1544.94 Q2314.05 1540.33 2314.05 1531.6 Q2314.05 1522.85 2317.11 1518.27 Q2320.19 1513.66 2326 1513.66 Z" fill="#000000" fill-rule="nonzero" fill-opacity="1" /><polyline clip-path="url(#clip550)" style="stroke:#000000; stroke-linecap:round; stroke-linejoin:round; stroke-width:4; stroke-opacity:1; fill:none" points="112.177,1486.45 112.177,47.2441 "/>
<polyline clip-path="url(#clip550)" style="stroke:#000000; stroke-linecap:round; stroke-linejoin:round; stroke-width:4; stroke-opacity:1; fill:none" points="112.177,1458.41 131.075,1458.41 "/>
<polyline clip-path="url(#clip550)" style="stroke:#000000; stroke-linecap:round; stroke-linejoin:round; stroke-width:4; stroke-opacity:1; fill:none" points="112.177,1136.88 131.075,1136.88 "/>
<polyline clip-path="url(#clip550)" style="stroke:#000000; stroke-linecap:round; stroke-linejoin:round; stroke-width:4; stroke-opacity:1; fill:none" points="112.177,815.362 131.075,815.362 "/>
<polyline clip-path="url(#clip550)" style="stroke:#000000; stroke-linecap:round; stroke-linejoin:round; stroke-width:4; stroke-opacity:1; fill:none" points="112.177,493.84 131.075,493.84 "/>
<polyline clip-path="url(#clip550)" style="stroke:#000000; stroke-linecap:round; stroke-linejoin:round; stroke-width:4; stroke-opacity:1; fill:none" points="112.177,172.319 131.075,172.319 "/>
<path clip-path="url(#clip550)" d="M64.2328 1444.2 Q60.6217 1444.2 58.793 1447.77 Q56.9875 1451.31 56.9875 1458.44 Q56.9875 1465.55 58.793 1469.11 Q60.6217 1472.65 64.2328 1472.65 Q67.867 1472.65 69.6726 1469.11 Q71.5013 1465.55 71.5013 1458.44 Q71.5013 1451.31 69.6726 1447.77 Q67.867 1444.2 64.2328 1444.2 M64.2328 1440.5 Q70.0429 1440.5 73.0985 1445.11 Q76.1772 1449.69 76.1772 1458.44 Q76.1772 1467.17 73.0985 1471.77 Q70.0429 1476.36 64.2328 1476.36 Q58.4226 1476.36 55.344 1471.77 Q52.2884 1467.17 52.2884 1458.44 Q52.2884 1449.69 55.344 1445.11 Q58.4226 1440.5 64.2328 1440.5 Z" fill="#000000" fill-rule="nonzero" fill-opacity="1" /><path clip-path="url(#clip550)" d="M59.8578 1150.23 L76.1772 1150.23 L76.1772 1154.16 L54.2328 1154.16 L54.2328 1150.23 Q56.8949 1147.47 61.4782 1142.84 Q66.0846 1138.19 67.2652 1136.85 Q69.5105 1134.33 70.3902 1132.59 Q71.2929 1130.83 71.2929 1129.14 Q71.2929 1126.39 69.3485 1124.65 Q67.4272 1122.91 64.3254 1122.91 Q62.1263 1122.91 59.6726 1123.68 Q57.2421 1124.44 54.4643 1125.99 L54.4643 1121.27 Q57.2884 1120.14 59.7421 1119.56 Q62.1958 1118.98 64.2328 1118.98 Q69.6031 1118.98 72.7976 1121.66 Q75.992 1124.35 75.992 1128.84 Q75.992 1130.97 75.1818 1132.89 Q74.3948 1134.79 72.2883 1137.38 Q71.7096 1138.05 68.6078 1141.27 Q65.5059 1144.46 59.8578 1150.23 Z" fill="#000000" fill-rule="nonzero" fill-opacity="1" /><path clip-path="url(#clip550)" d="M66.5939 802.156 L54.7884 820.605 L66.5939 820.605 L66.5939 802.156 M65.367 798.082 L71.2466 798.082 L71.2466 820.605 L76.1772 820.605 L76.1772 824.494 L71.2466 824.494 L71.2466 832.642 L66.5939 832.642 L66.5939 824.494 L50.9921 824.494 L50.9921 819.98 L65.367 798.082 Z" fill="#000000" fill-rule="nonzero" fill-opacity="1" /><path clip-path="url(#clip550)" d="M64.6495 491.977 Q61.5013 491.977 59.6495 494.13 Q57.8208 496.283 57.8208 500.033 Q57.8208 503.759 59.6495 505.935 Q61.5013 508.088 64.6495 508.088 Q67.7976 508.088 69.6263 505.935 Q71.4781 503.759 71.4781 500.033 Q71.4781 496.283 69.6263 494.13 Q67.7976 491.977 64.6495 491.977 M73.9318 477.324 L73.9318 481.584 Q72.1726 480.75 70.367 480.31 Q68.5846 479.871 66.8254 479.871 Q62.1958 479.871 59.7421 482.996 Q57.3115 486.121 56.9643 492.44 Q58.33 490.426 60.3902 489.361 Q62.4504 488.273 64.9272 488.273 Q70.1355 488.273 73.1448 491.445 Q76.1772 494.593 76.1772 500.033 Q76.1772 505.357 73.029 508.574 Q69.8809 511.792 64.6495 511.792 Q58.6541 511.792 55.4828 507.208 Q52.3116 502.602 52.3116 493.875 Q52.3116 485.681 56.2004 480.82 Q60.0893 475.935 66.6402 475.935 Q68.3994 475.935 70.1818 476.283 Q71.9874 476.63 73.9318 477.324 Z" fill="#000000" fill-rule="nonzero" fill-opacity="1" /><path clip-path="url(#clip550)" d="M64.3254 173.187 Q60.9921 173.187 59.0708 174.969 Q57.1726 176.752 57.1726 179.877 Q57.1726 183.002 59.0708 184.784 Q60.9921 186.566 64.3254 186.566 Q67.6587 186.566 69.58 184.784 Q71.5013 182.979 71.5013 179.877 Q71.5013 176.752 69.58 174.969 Q67.6819 173.187 64.3254 173.187 M59.6495 171.196 Q56.6402 170.455 54.9504 168.395 Q53.2838 166.335 53.2838 163.372 Q53.2838 159.229 56.2236 156.821 Q59.1865 154.414 64.3254 154.414 Q69.4874 154.414 72.4272 156.821 Q75.367 159.229 75.367 163.372 Q75.367 166.335 73.6772 168.395 Q72.0105 170.455 69.0244 171.196 Q72.404 171.983 74.279 174.275 Q76.1772 176.567 76.1772 179.877 Q76.1772 184.9 73.0985 187.585 Q70.0429 190.27 64.3254 190.27 Q58.6078 190.27 55.5291 187.585 Q52.4736 184.9 52.4736 179.877 Q52.4736 176.567 54.3717 174.275 Q56.2699 171.983 59.6495 171.196 M57.9365 163.812 Q57.9365 166.497 59.6032 168.002 Q61.293 169.506 64.3254 169.506 Q67.3346 169.506 69.0244 168.002 Q70.7374 166.497 70.7374 163.812 Q70.7374 161.127 69.0244 159.622 Q67.3346 158.118 64.3254 158.118 Q61.293 158.118 59.6032 159.622 Q57.9365 161.127 57.9365 163.812 Z" fill="#000000" fill-rule="nonzero" fill-opacity="1" /><path clip-path="url(#clip551)" d="M175.59 1297.64 L196.727 1291.8 L217.865 1284.05 L239.002 1262.89 L260.14 1243.43 L281.277 1218.22 L302.415 1188.75 L323.553 1151.27 L344.69 1111.22 L365.828 1071.07 L386.965 1020.14 L408.103 973.317 L429.24 909.33 L450.378 866.442 L471.515 781.498 L492.653 713.101 L513.79 638.911 L534.928 555.395 L556.065 591.259 L577.203 660.849 L598.34 849.27 L619.478 966.577 L640.616 1149.75 L661.753 1256.32 L682.891 1296.21 L704.028 1333.51 L725.166 1347.17 L746.303 1363.01 L767.441 1375.22 L788.578 1369.13 L809.716 1373.59 L830.853 1377.81 L851.991 1375.89 L873.128 1371.78 L894.266 1370.72 L915.404 1367.06 L936.541 1357.61 L957.679 1344.57 L978.816 1334 L999.954 1316.22 L1021.09 1296.06 L1042.23 1279.07 L1063.37 1267.03 L1084.5 1238.78 L1105.64 1201.51 L1126.78 1176.29 L1147.92 1116.54 L1169.05 1065.81 L1190.19 1035.49 L1211.33 993.442 L1232.47 924.057 L1253.6 863.513 L1274.74 870.936 L1295.88 858.532 L1317.02 977.011 L1338.15 1069.5 L1359.29 1131.91 L1380.43 1174.06 L1401.57 1231.4 L1422.7 1258.94 L1443.84 1287.23 L1464.98 1306.53 L1486.12 1316.11 L1507.25 1323.27 L1528.39 1327.46 L1549.53 1336.82 L1570.67 1344.13 L1591.8 1367.64 L1612.94 1377.55 L1634.08 1377.69 L1655.22 1383.16 L1676.35 1379.74 L1697.49 1376.93 L1718.63 1369.68 L1739.77 1362.86 L1760.9 1353.16 L1782.04 1338.38 L1803.18 1326.34 L1824.32 1311.38 L1845.46 1289 L1866.59 1264.26 L1887.73 1237.73 L1908.87 1202.9 L1930.01 1170.05 L1951.14 1220.67 L1972.28 1243.73 L1993.42 1269.65 L2014.56 1268.15 L2035.69 1268.07 L2056.83 1283.17 L2077.97 1314.01 L2099.11 1317.59 L2120.24 1326.28 L2141.38 1341.22 L2162.52 1348.89 L2183.66 1357.83 L2204.79 1360.39 L2225.93 1369.08 L2247.07 1375.01 L2268.21 1369.79 L2289.34 1364.99 L2289.34 317.336 L2268.21 505.942 L2247.07 698.367 L2225.93 794.895 L2204.79 900.274 L2183.66 846.278 L2162.52 716.98 L2141.38 529.234 L2120.24 322.029 L2099.11 177.024 L2077.97 181.767 L2056.83 127.854 L2035.69 122.152 L2014.56 221.392 L1993.42 305.931 L1972.28 277.157 L1951.14 276.078 L1930.01 306.043 L1908.87 357.162 L1887.73 440.148 L1866.59 504.653 L1845.46 460.757 L1824.32 550.862 L1803.18 617.937 L1782.04 670.668 L1760.9 803.634 L1739.77 862.805 L1718.63 958.723 L1697.49 1020.38 L1676.35 1041.53 L1655.22 1082.38 L1634.08 1100.44 L1612.94 1146.62 L1591.8 1156.18 L1570.67 1174.04 L1549.53 1183.59 L1528.39 1069.9 L1507.25 770.748 L1486.12 400.5 L1464.98 210.196 L1443.84 167.236 L1422.7 145.426 L1401.57 87.9763 L1380.43 195 L1359.29 280.931 L1338.15 264.842 L1317.02 270.571 L1295.88 320.91 L1274.74 244.875 L1253.6 265.82 L1232.47 361.254 L1211.33 367.813 L1190.19 402.025 L1169.05 449.593 L1147.92 495.913 L1126.78 534.849 L1105.64 651.793 L1084.5 796.883 L1063.37 921.595 L1042.23 996.049 L1021.09 1022.75 L999.954 1084.23 L978.816 1129.07 L957.679 1147.88 L936.541 1179.54 L915.404 1199.48 L894.266 1225.86 L873.128 1245.03 L851.991 1257.35 L830.853 1273.46 L809.716 1269.79 L788.578 1255.07 L767.441 1241.25 L746.303 1213.6 L725.166 1163.36 L704.028 1065.15 L682.891 943.564 L661.753 770.773 L640.616 591.637 L619.478 391.979 L598.34 268.777 L577.203 163.741 L556.065 130.571 L534.928 153.783 L513.79 367.833 L492.653 395.742 L471.515 405.329 L450.378 563.16 L429.24 651.763 L408.103 714.764 L386.965 787.267 L365.828 860.923 L344.69 962.291 L323.553 1063.15 L302.415 1103.32 L281.277 1134.65 L260.14 1169.53 L239.002 1211.45 L217.865 1238.74 L196.727 1270.11 L175.59 1297.64  Z" fill="#009af9" fill-rule="evenodd" fill-opacity="0.5"/>
<polyline clip-path="url(#clip551)" style="stroke:#009af9; stroke-linecap:round; stroke-linejoin:round; stroke-width:12; stroke-opacity:1; fill:none" points="175.59,1297.64 196.727,1285.5 217.865,1270.15 239.002,1251.53 260.14,1229.52 281.277,1203.59 302.415,1169.49 323.553,1119.05 344.69,1068.06 365.828,1044.67 386.965,977.132 408.103,927.504 429.24,848.69 450.378,789.32 471.515,705.902 492.653,596.197 513.79,529.582 534.928,442.877 556.065,327.505 577.203,339.572 598.34,440.876 619.478,584.417 640.616,740.87 661.753,943.511 682.891,1073.93 704.028,1179.75 725.166,1250.16 746.303,1264.47 767.441,1283.19 788.578,1300.1 809.716,1311.75 830.853,1314.34 851.991,1301.15 873.128,1295.78 894.266,1274.05 915.404,1262.22 936.541,1247.4 957.679,1232.3 978.816,1199.83 999.954,1178.91 1021.09,1136.4 1042.23,1099.18 1063.37,1049.23 1084.5,1009.55 1105.64,958.237 1126.78,898.277 1147.92,817.322 1169.05,759.153 1190.19,673.899 1211.33,613.046 1232.47,557.313 1253.6,543.395 1274.74,481.564 1295.88,462.683 1317.02,555.759 1338.15,706.18 1359.29,786.017 1380.43,932.647 1401.57,1020.96 1422.7,1095.38 1443.84,1172.51 1464.98,1238.84 1486.12,1272.07 1507.25,1275.09 1528.39,1289.44 1549.53,1294.08 1570.67,1296.04 1591.8,1288.01 1612.94,1274.47 1634.08,1256.46 1655.22,1244.1 1676.35,1222.97 1697.49,1192.37 1718.63,1170.64 1739.77,1128.25 1760.9,1074.31 1782.04,998.82 1803.18,946.513 1824.32,871.574 1845.46,809.866 1866.59,736.146 1887.73,726.509 1908.87,778.026 1930.01,765.947 1951.14,641.443 1972.28,550.106 1993.42,656.265 2014.56,654.723 2035.69,774.098 2056.83,1009.58 2077.97,1108.08 2099.11,1141.4 2120.24,1133.32 2141.38,1164.49 2162.52,1207.48 2183.66,1228.79 2204.79,1248.02 2225.93,1281.43 2247.07,1282.2 2268.21,1302.21 2289.34,1301.57 "/>
<path clip-path="url(#clip551)" d="M175.59 1297.64 L196.727 1332.66 L217.865 1358.97 L239.002 1376.47 L260.14 1394.46 L281.277 1408.69 L302.415 1415.63 L323.553 1421.78 L344.69 1423.71 L365.828 1424 L386.965 1419.04 L408.103 1420.44 L429.24 1418.59 L450.378 1415.51 L471.515 1410.27 L492.653 1401.19 L513.79 1386 L534.928 1362.52 L556.065 1321.21 L577.203 1253.58 L598.34 1154.87 L619.478 1022.36 L640.616 928.037 L661.753 922.95 L682.891 1007.22 L704.028 1066.75 L725.166 1136.45 L746.303 1179.75 L767.441 1241.16 L788.578 1292.73 L809.716 1327.71 L830.853 1362.57 L851.991 1384.99 L873.128 1397.32 L894.266 1409.8 L915.404 1414.33 L936.541 1418.52 L957.679 1425.46 L978.816 1429.67 L999.954 1434.3 L1021.09 1436.91 L1042.23 1439.7 L1063.37 1441.38 L1084.5 1442.95 L1105.64 1443.95 L1126.78 1444.74 L1147.92 1445.38 L1169.05 1445.72 L1190.19 1445.37 L1211.33 1444.43 L1232.47 1442.8 L1253.6 1439.97 L1274.74 1434.88 L1295.88 1425.72 L1317.02 1411.78 L1338.15 1386.41 L1359.29 1341.29 L1380.43 1292.82 L1401.57 1287.28 L1422.7 1280.92 L1443.84 1260.88 L1464.98 1206.42 L1486.12 1226.06 L1507.25 1254.46 L1528.39 1297.58 L1549.53 1328.49 L1570.67 1346.37 L1591.8 1367.63 L1612.94 1377.63 L1634.08 1387.39 L1655.22 1392.95 L1676.35 1401.17 L1697.49 1403.6 L1718.63 1412.23 L1739.77 1419.12 L1760.9 1424.83 L1782.04 1429.38 L1803.18 1432.4 L1824.32 1435.64 L1845.46 1436.57 L1866.59 1437.29 L1887.73 1437.98 L1908.87 1440.21 L1930.01 1442 L1951.14 1442.34 L1972.28 1442.01 L1993.42 1441.58 L2014.56 1438.37 L2035.69 1433.22 L2056.83 1422.88 L2077.97 1404 L2099.11 1372.93 L2120.24 1368.96 L2141.38 1384.29 L2162.52 1395.15 L2183.66 1404.43 L2204.79 1410.36 L2225.93 1415.15 L2247.07 1419.84 L2268.21 1420.89 L2289.34 1421.47 L2289.34 1069.19 L2268.21 964.334 L2247.07 836.966 L2225.93 708.688 L2204.79 607.617 L2183.66 602.181 L2162.52 617.314 L2141.38 591.848 L2120.24 651.391 L2099.11 712.931 L2077.97 691.41 L2056.83 581.473 L2035.69 606.675 L2014.56 577.807 L1993.42 690.943 L1972.28 831.528 L1951.14 904.818 L1930.01 930.116 L1908.87 988.948 L1887.73 1062.61 L1866.59 1139.82 L1845.46 1227.1 L1824.32 1289.61 L1803.18 1325.67 L1782.04 1349.7 L1760.9 1347.17 L1739.77 1319.92 L1718.63 1298.18 L1697.49 1269.41 L1676.35 1230.42 L1655.22 1165.75 L1634.08 1082.58 L1612.94 978.094 L1591.8 828.553 L1570.67 710.772 L1549.53 534.394 L1528.39 372.335 L1507.25 420.384 L1486.12 681.025 L1464.98 677.244 L1443.84 612.908 L1422.7 651.289 L1401.57 680.928 L1380.43 743.484 L1359.29 753.223 L1338.15 786.621 L1317.02 846.393 L1295.88 878.453 L1274.74 926.745 L1253.6 1039.63 L1232.47 1137.36 L1211.33 1219.83 L1190.19 1297.18 L1169.05 1341.05 L1147.92 1363.14 L1126.78 1380.72 L1105.64 1391.15 L1084.5 1389.99 L1063.37 1386.22 L1042.23 1384.8 L1021.09 1385.7 L999.954 1381.96 L978.816 1379 L957.679 1369.41 L936.541 1354.94 L915.404 1332.76 L894.266 1309.51 L873.128 1276.92 L851.991 1235.7 L830.853 1180.66 L809.716 1112.46 L788.578 1025.39 L767.441 928.431 L746.303 822.932 L725.166 749.498 L704.028 660.302 L682.891 642.038 L661.753 596.978 L640.616 604.018 L619.478 612.787 L598.34 744.25 L577.203 884.149 L556.065 1009.91 L534.928 1129.8 L513.79 1201 L492.653 1272.17 L471.515 1326.16 L450.378 1353.38 L429.24 1367.27 L408.103 1386.29 L386.965 1397.41 L365.828 1401.02 L344.69 1400.95 L323.553 1398.14 L302.415 1391.19 L281.277 1382.62 L260.14 1371.47 L239.002 1359.52 L217.865 1342.09 L196.727 1321.54 L175.59 1297.64  Z" fill="#e26f46" fill-rule="evenodd" fill-opacity="0.5"/>
<polyline clip-path="url(#clip551)" style="stroke:#e26f46; stroke-linecap:round; stroke-linejoin:round; stroke-width:12; stroke-opacity:1; fill:none" points="175.59,1297.64 196.727,1328.02 217.865,1348.34 239.002,1367.14 260.14,1381.22 281.277,1393.04 302.415,1401.05 323.553,1407.39 344.69,1411.6 365.828,1413.5 386.965,1415.19 408.103,1414.91 429.24,1411.76 450.378,1406.02 471.515,1397.04 492.653,1381.94 513.79,1363.13 534.928,1331.34 556.065,1264.11 577.203,1159.7 598.34,1014.23 619.478,876.265 640.616,811.976 661.753,779.82 682.891,768.238 704.028,853.974 725.166,965.037 746.303,1042.03 767.441,1102.6 788.578,1157.07 809.716,1202.63 830.853,1242.15 851.991,1290.76 873.128,1317.72 894.266,1341.13 915.404,1360.68 936.541,1376.04 957.679,1394.2 978.816,1402.32 999.954,1409.59 1021.09,1414.82 1042.23,1416.88 1063.37,1419.18 1084.5,1420.45 1105.64,1415.57 1126.78,1413.8 1147.92,1411.88 1169.05,1406.84 1190.19,1397.74 1211.33,1381.62 1232.47,1362.83 1253.6,1331.9 1274.74,1246.51 1295.88,1160.28 1317.02,1066.64 1338.15,1029.93 1359.29,916.155 1380.43,913.956 1401.57,856.911 1422.7,901.581 1443.84,984.231 1464.98,1054 1486.12,1060.2 1507.25,1132.85 1528.39,1197.56 1549.53,1250.91 1570.67,1277.85 1591.8,1299.58 1612.94,1327.14 1634.08,1351.12 1655.22,1371.25 1676.35,1386.36 1697.49,1391.31 1718.63,1395.98 1739.77,1404.57 1760.9,1412.63 1782.04,1414.86 1803.18,1415.12 1824.32,1412.95 1845.46,1410.2 1866.59,1407.39 1887.73,1402.19 1908.87,1379.01 1930.01,1350.51 1951.14,1310.05 1972.28,1243.52 1993.42,1152.31 2014.56,1053.3 2035.69,1055.69 2056.83,1095.7 2077.97,1025.46 2099.11,951.831 2120.24,1006.46 2141.38,998.041 2162.52,1071.43 2183.66,1150.42 2204.79,1211.7 2225.93,1254.53 2247.07,1279.07 2268.21,1304.6 2289.34,1329.28 "/>
</svg>
