<?xml version="1.0" encoding="utf-8"?>
<svg xmlns="http://www.w3.org/2000/svg" xmlns:xlink="http://www.w3.org/1999/xlink" width="600" height="400" viewBox="0 0 2400 1600">
<defs>
  <clipPath id="clip610">
    <rect x="0" y="0" width="2400" height="1600"/>
  </clipPath>
</defs>
<path clip-path="url(#clip610)" d="M0 1600 L2400 1600 L2400 0 L0 0  Z" fill="#ffffff" fill-rule="evenodd" fill-opacity="1"/>
<defs>
  <clipPath id="clip611">
    <rect x="155" y="47" width="2198" height="1440"/>
  </clipPath>
</defs>
<path clip-path="url(#clip610)" d="M155.765 1486.45 L2352.76 1486.45 L2352.76 47.2441 L155.765 47.2441  Z" fill="#ffffff" fill-rule="evenodd" fill-opacity="1"/>
<polyline clip-path="url(#clip611)" style="stroke:#000000; stroke-linecap:round; stroke-linejoin:round; stroke-width:2; stroke-opacity:0.1; fill:none" points="217.944,1486.45 217.944,47.2441 "/>
<polyline clip-path="url(#clip611)" style="stroke:#000000; stroke-linecap:round; stroke-linejoin:round; stroke-width:2; stroke-opacity:0.1; fill:none" points="736.102,1486.45 736.102,47.2441 "/>
<polyline clip-path="url(#clip611)" style="stroke:#000000; stroke-linecap:round; stroke-linejoin:round; stroke-width:2; stroke-opacity:0.1; fill:none" points="1254.26,1486.45 1254.26,47.2441 "/>
<polyline clip-path="url(#clip611)" style="stroke:#000000; stroke-linecap:round; stroke-linejoin:round; stroke-width:2; stroke-opacity:0.1; fill:none" points="1772.42,1486.45 1772.42,47.2441 "/>
<polyline clip-path="url(#clip611)" style="stroke:#000000; stroke-linecap:round; stroke-linejoin:round; stroke-width:2; stroke-opacity:0.1; fill:none" points="2290.58,1486.45 2290.58,47.2441 "/>
<polyline clip-path="url(#clip611)" style="stroke:#000000; stroke-linecap:round; stroke-linejoin:round; stroke-width:2; stroke-opacity:0.1; fill:none" points="155.765,1297.71 2352.76,1297.71 "/>
<polyline clip-path="url(#clip611)" style="stroke:#000000; stroke-linecap:round; stroke-linejoin:round; stroke-width:2; stroke-opacity:0.1; fill:none" points="155.765,994.115 2352.76,994.115 "/>
<polyline clip-path="url(#clip611)" style="stroke:#000000; stroke-linecap:round; stroke-linejoin:round; stroke-width:2; stroke-opacity:0.1; fill:none" points="155.765,690.518 2352.76,690.518 "/>
<polyline clip-path="url(#clip611)" style="stroke:#000000; stroke-linecap:round; stroke-linejoin:round; stroke-width:2; stroke-opacity:0.1; fill:none" points="155.765,386.922 2352.76,386.922 "/>
<polyline clip-path="url(#clip611)" style="stroke:#000000; stroke-linecap:round; stroke-linejoin:round; stroke-width:2; stroke-opacity:0.1; fill:none" points="155.765,83.3258 2352.76,83.3258 "/>
<polyline clip-path="url(#clip610)" style="stroke:#000000; stroke-linecap:round; stroke-linejoin:round; stroke-width:4; stroke-opacity:1; fill:none" points="155.765,1486.45 2352.76,1486.45 "/>
<polyline clip-path="url(#clip610)" style="stroke:#000000; stroke-linecap:round; stroke-linejoin:round; stroke-width:4; stroke-opacity:1; fill:none" points="217.944,1486.45 217.944,1467.55 "/>
<polyline clip-path="url(#clip610)" style="stroke:#000000; stroke-linecap:round; stroke-linejoin:round; stroke-width:4; stroke-opacity:1; fill:none" points="736.102,1486.45 736.102,1467.55 "/>
<polyline clip-path="url(#clip610)" style="stroke:#000000; stroke-linecap:round; stroke-linejoin:round; stroke-width:4; stroke-opacity:1; fill:none" points="1254.26,1486.45 1254.26,1467.55 "/>
<polyline clip-path="url(#clip610)" style="stroke:#000000; stroke-linecap:round; stroke-linejoin:round; stroke-width:4; stroke-opacity:1; fill:none" points="1772.42,1486.45 1772.42,1467.55 "/>
<polyline clip-path="url(#clip610)" style="stroke:#000000; stroke-linecap:round; stroke-linejoin:round; stroke-width:4; stroke-opacity:1; fill:none" points="2290.58,1486.45 2290.58,1467.55 "/>
<path clip-path="url(#clip610)" d="M180.247 1517.37 Q176.636 1517.37 174.808 1520.93 Q173.002 1524.47 173.002 1531.6 Q173.002 1538.71 174.808 1542.27 Q176.636 1545.82 180.247 1545.82 Q183.882 1545.82 185.687 1542.27 Q187.516 1538.71 187.516 1531.6 Q187.516 1524.47 185.687 1520.93 Q183.882 1517.37 180.247 1517.37 M180.247 1513.66 Q186.057 1513.66 189.113 1518.27 Q192.192 1522.85 192.192 1531.6 Q192.192 1540.33 189.113 1544.94 Q186.057 1549.52 180.247 1549.52 Q174.437 1549.52 171.358 1544.94 Q168.303 1540.33 168.303 1531.6 Q168.303 1522.85 171.358 1518.27 Q174.437 1513.66 180.247 1513.66 Z" fill="#000000" fill-rule="nonzero" fill-opacity="1" /><path clip-path="url(#clip610)" d="M200.409 1542.97 L205.294 1542.97 L205.294 1548.85 L200.409 1548.85 L200.409 1542.97 Z" fill="#000000" fill-rule="nonzero" fill-opacity="1" /><path clip-path="url(#clip610)" d="M225.479 1517.37 Q221.867 1517.37 220.039 1520.93 Q218.233 1524.47 218.233 1531.6 Q218.233 1538.71 220.039 1542.27 Q221.867 1545.82 225.479 1545.82 Q229.113 1545.82 230.918 1542.27 Q232.747 1538.71 232.747 1531.6 Q232.747 1524.47 230.918 1520.93 Q229.113 1517.37 225.479 1517.37 M225.479 1513.66 Q231.289 1513.66 234.344 1518.27 Q237.423 1522.85 237.423 1531.6 Q237.423 1540.33 234.344 1544.94 Q231.289 1549.52 225.479 1549.52 Q219.668 1549.52 216.59 1544.94 Q213.534 1540.33 213.534 1531.6 Q213.534 1522.85 216.59 1518.27 Q219.668 1513.66 225.479 1513.66 Z" fill="#000000" fill-rule="nonzero" fill-opacity="1" /><path clip-path="url(#clip610)" d="M255.64 1517.37 Q252.029 1517.37 250.201 1520.93 Q248.395 1524.47 248.395 1531.6 Q248.395 1538.71 250.201 1542.27 Q252.029 1545.82 255.64 1545.82 Q259.275 1545.82 261.08 1542.27 Q262.909 1538.71 262.909 1531.6 Q262.909 1524.47 261.08 1520.93 Q259.275 1517.37 255.64 1517.37 M255.64 1513.66 Q261.451 1513.66 264.506 1518.27 Q267.585 1522.85 267.585 1531.6 Q267.585 1540.33 264.506 1544.94 Q261.451 1549.52 255.64 1549.52 Q249.83 1549.52 246.752 1544.94 Q243.696 1540.33 243.696 1531.6 Q243.696 1522.85 246.752 1518.27 Q249.83 1513.66 255.64 1513.66 Z" fill="#000000" fill-rule="nonzero" fill-opacity="1" /><path clip-path="url(#clip610)" d="M698.903 1517.37 Q695.292 1517.37 693.463 1520.93 Q691.658 1524.47 691.658 1531.6 Q691.658 1538.71 693.463 1542.27 Q695.292 1545.82 698.903 1545.82 Q702.538 1545.82 704.343 1542.27 Q706.172 1538.71 706.172 1531.6 Q706.172 1524.47 704.343 1520.93 Q702.538 1517.37 698.903 1517.37 M698.903 1513.66 Q704.713 1513.66 707.769 1518.27 Q710.848 1522.85 710.848 1531.6 Q710.848 1540.33 707.769 1544.94 Q704.713 1549.52 698.903 1549.52 Q693.093 1549.52 690.014 1544.94 Q686.959 1540.33 686.959 1531.6 Q686.959 1522.85 690.014 1518.27 Q693.093 1513.66 698.903 1513.66 Z" fill="#000000" fill-rule="nonzero" fill-opacity="1" /><path clip-path="url(#clip610)" d="M719.065 1542.97 L723.949 1542.97 L723.949 1548.85 L719.065 1548.85 L719.065 1542.97 Z" fill="#000000" fill-rule="nonzero" fill-opacity="1" /><path clip-path="url(#clip610)" d="M738.162 1544.91 L754.482 1544.91 L754.482 1548.85 L732.537 1548.85 L732.537 1544.91 Q735.199 1542.16 739.783 1537.53 Q744.389 1532.88 745.57 1531.53 Q747.815 1529.01 748.695 1527.27 Q749.597 1525.51 749.597 1523.82 Q749.597 1521.07 747.653 1519.33 Q745.732 1517.6 742.63 1517.6 Q740.431 1517.6 737.977 1518.36 Q735.547 1519.13 732.769 1520.68 L732.769 1515.95 Q735.593 1514.82 738.047 1514.24 Q740.5 1513.66 742.537 1513.66 Q747.908 1513.66 751.102 1516.35 Q754.296 1519.03 754.296 1523.52 Q754.296 1525.65 753.486 1527.57 Q752.699 1529.47 750.593 1532.07 Q750.014 1532.74 746.912 1535.95 Q743.81 1539.15 738.162 1544.91 Z" fill="#000000" fill-rule="nonzero" fill-opacity="1" /><path clip-path="url(#clip610)" d="M764.343 1514.29 L782.699 1514.29 L782.699 1518.22 L768.625 1518.22 L768.625 1526.7 Q769.644 1526.35 770.662 1526.19 Q771.681 1526 772.699 1526 Q778.486 1526 781.866 1529.17 Q785.245 1532.34 785.245 1537.76 Q785.245 1543.34 781.773 1546.44 Q778.301 1549.52 771.982 1549.52 Q769.806 1549.52 767.537 1549.15 Q765.292 1548.78 762.884 1548.04 L762.884 1543.34 Q764.968 1544.47 767.19 1545.03 Q769.412 1545.58 771.889 1545.58 Q775.894 1545.58 778.232 1543.48 Q780.57 1541.37 780.57 1537.76 Q780.57 1534.15 778.232 1532.04 Q775.894 1529.94 771.889 1529.94 Q770.014 1529.94 768.139 1530.35 Q766.287 1530.77 764.343 1531.65 L764.343 1514.29 Z" fill="#000000" fill-rule="nonzero" fill-opacity="1" /><path clip-path="url(#clip610)" d="M1216.56 1517.37 Q1212.95 1517.37 1211.12 1520.93 Q1209.32 1524.47 1209.32 1531.6 Q1209.32 1538.71 1211.12 1542.27 Q1212.95 1545.82 1216.56 1545.82 Q1220.2 1545.82 1222 1542.27 Q1223.83 1538.71 1223.83 1531.6 Q1223.83 1524.47 1222 1520.93 Q1220.2 1517.37 1216.56 1517.37 M1216.56 1513.66 Q1222.37 1513.66 1225.43 1518.27 Q1228.51 1522.85 1228.51 1531.6 Q1228.51 1540.33 1225.43 1544.94 Q1222.37 1549.52 1216.56 1549.52 Q1210.75 1549.52 1207.68 1544.94 Q1204.62 1540.33 1204.62 1531.6 Q1204.62 1522.85 1207.68 1518.27 Q1210.75 1513.66 1216.56 1513.66 Z" fill="#000000" fill-rule="nonzero" fill-opacity="1" /><path clip-path="url(#clip610)" d="M1236.73 1542.97 L1241.61 1542.97 L1241.61 1548.85 L1236.73 1548.85 L1236.73 1542.97 Z" fill="#000000" fill-rule="nonzero" fill-opacity="1" /><path clip-path="url(#clip610)" d="M1251.84 1514.29 L1270.2 1514.29 L1270.2 1518.22 L1256.12 1518.22 L1256.12 1526.7 Q1257.14 1526.35 1258.16 1526.19 Q1259.18 1526 1260.2 1526 Q1265.98 1526 1269.36 1529.17 Q1272.74 1532.34 1272.74 1537.76 Q1272.74 1543.34 1269.27 1546.44 Q1265.8 1549.52 1259.48 1549.52 Q1257.3 1549.52 1255.04 1549.15 Q1252.79 1548.78 1250.38 1548.04 L1250.38 1543.34 Q1252.47 1544.47 1254.69 1545.03 Q1256.91 1545.58 1259.39 1545.58 Q1263.39 1545.58 1265.73 1543.48 Q1268.07 1541.37 1268.07 1537.76 Q1268.07 1534.15 1265.73 1532.04 Q1263.39 1529.94 1259.39 1529.94 Q1257.51 1529.94 1255.64 1530.35 Q1253.79 1530.77 1251.84 1531.65 L1251.84 1514.29 Z" fill="#000000" fill-rule="nonzero" fill-opacity="1" /><path clip-path="url(#clip610)" d="M1291.96 1517.37 Q1288.35 1517.37 1286.52 1520.93 Q1284.71 1524.47 1284.71 1531.6 Q1284.71 1538.71 1286.52 1542.27 Q1288.35 1545.82 1291.96 1545.82 Q1295.59 1545.82 1297.4 1542.27 Q1299.23 1538.71 1299.23 1531.6 Q1299.23 1524.47 1297.4 1520.93 Q1295.59 1517.37 1291.96 1517.37 M1291.96 1513.66 Q1297.77 1513.66 1300.82 1518.27 Q1303.9 1522.85 1303.9 1531.6 Q1303.9 1540.33 1300.82 1544.94 Q1297.77 1549.52 1291.96 1549.52 Q1286.15 1549.52 1283.07 1544.94 Q1280.01 1540.33 1280.01 1531.6 Q1280.01 1522.85 1283.07 1518.27 Q1286.15 1513.66 1291.96 1513.66 Z" fill="#000000" fill-rule="nonzero" fill-opacity="1" /><path clip-path="url(#clip610)" d="M1735.22 1517.37 Q1731.61 1517.37 1729.78 1520.93 Q1727.97 1524.47 1727.97 1531.6 Q1727.97 1538.71 1729.78 1542.27 Q1731.61 1545.82 1735.22 1545.82 Q1738.85 1545.82 1740.66 1542.27 Q1742.49 1538.71 1742.49 1531.6 Q1742.49 1524.47 1740.66 1520.93 Q1738.85 1517.37 1735.22 1517.37 M1735.22 1513.66 Q1741.03 1513.66 1744.09 1518.27 Q1747.16 1522.85 1747.16 1531.6 Q1747.16 1540.33 1744.09 1544.94 Q1741.03 1549.52 1735.22 1549.52 Q1729.41 1549.52 1726.33 1544.94 Q1723.28 1540.33 1723.28 1531.6 Q1723.28 1522.85 1726.33 1518.27 Q1729.41 1513.66 1735.22 1513.66 Z" fill="#000000" fill-rule="nonzero" fill-opacity="1" /><path clip-path="url(#clip610)" d="M1755.38 1542.97 L1760.27 1542.97 L1760.27 1548.85 L1755.38 1548.85 L1755.38 1542.97 Z" fill="#000000" fill-rule="nonzero" fill-opacity="1" /><path clip-path="url(#clip610)" d="M1769.27 1514.29 L1791.49 1514.29 L1791.49 1516.28 L1778.95 1548.85 L1774.06 1548.85 L1785.87 1518.22 L1769.27 1518.22 L1769.27 1514.29 Z" fill="#000000" fill-rule="nonzero" fill-opacity="1" /><path clip-path="url(#clip610)" d="M1800.66 1514.29 L1819.02 1514.29 L1819.02 1518.22 L1804.94 1518.22 L1804.94 1526.7 Q1805.96 1526.35 1806.98 1526.19 Q1808 1526 1809.02 1526 Q1814.8 1526 1818.18 1529.17 Q1821.56 1532.34 1821.56 1537.76 Q1821.56 1543.34 1818.09 1546.44 Q1814.62 1549.52 1808.3 1549.52 Q1806.12 1549.52 1803.85 1549.15 Q1801.61 1548.78 1799.2 1548.04 L1799.2 1543.34 Q1801.28 1544.47 1803.51 1545.03 Q1805.73 1545.58 1808.21 1545.58 Q1812.21 1545.58 1814.55 1543.48 Q1816.89 1541.37 1816.89 1537.76 Q1816.89 1534.15 1814.55 1532.04 Q1812.21 1529.94 1808.21 1529.94 Q1806.33 1529.94 1804.46 1530.35 Q1802.6 1530.77 1800.66 1531.65 L1800.66 1514.29 Z" fill="#000000" fill-rule="nonzero" fill-opacity="1" /><path clip-path="url(#clip610)" d="M2242.65 1544.91 L2250.29 1544.91 L2250.29 1518.55 L2241.98 1520.21 L2241.98 1515.95 L2250.24 1514.29 L2254.92 1514.29 L2254.92 1544.91 L2262.56 1544.91 L2262.56 1548.85 L2242.65 1548.85 L2242.65 1544.91 Z" fill="#000000" fill-rule="nonzero" fill-opacity="1" /><path clip-path="url(#clip610)" d="M2272 1542.97 L2276.88 1542.97 L2276.88 1548.85 L2272 1548.85 L2272 1542.97 Z" fill="#000000" fill-rule="nonzero" fill-opacity="1" /><path clip-path="url(#clip610)" d="M2297.07 1517.37 Q2293.46 1517.37 2291.63 1520.93 Q2289.82 1524.47 2289.82 1531.6 Q2289.82 1538.71 2291.63 1542.27 Q2293.46 1545.82 2297.07 1545.82 Q2300.7 1545.82 2302.51 1542.27 Q2304.34 1538.71 2304.34 1531.6 Q2304.34 1524.47 2302.51 1520.93 Q2300.7 1517.37 2297.07 1517.37 M2297.07 1513.66 Q2302.88 1513.66 2305.94 1518.27 Q2309.01 1522.85 2309.01 1531.6 Q2309.01 1540.33 2305.94 1544.94 Q2302.88 1549.52 2297.07 1549.52 Q2291.26 1549.52 2288.18 1544.94 Q2285.13 1540.33 2285.13 1531.6 Q2285.13 1522.85 2288.18 1518.27 Q2291.26 1513.66 2297.07 1513.66 Z" fill="#000000" fill-rule="nonzero" fill-opacity="1" /><path clip-path="url(#clip610)" d="M2327.23 1517.37 Q2323.62 1517.37 2321.79 1520.93 Q2319.99 1524.47 2319.99 1531.6 Q2319.99 1538.71 2321.79 1542.27 Q2323.62 1545.82 2327.23 1545.82 Q2330.87 1545.82 2332.67 1542.27 Q2334.5 1538.71 2334.5 1531.6 Q2334.5 1524.47 2332.67 1520.93 Q2330.87 1517.37 2327.23 1517.37 M2327.23 1513.66 Q2333.04 1513.66 2336.1 1518.27 Q2339.18 1522.85 2339.18 1531.6 Q2339.18 1540.33 2336.1 1544.94 Q2333.04 1549.52 2327.23 1549.52 Q2321.42 1549.52 2318.34 1544.94 Q2315.29 1540.33 2315.29 1531.6 Q2315.29 1522.85 2318.34 1518.27 Q2321.42 1513.66 2327.23 1513.66 Z" fill="#000000" fill-rule="nonzero" fill-opacity="1" /><polyline clip-path="url(#clip610)" style="stroke:#000000; stroke-linecap:round; stroke-linejoin:round; stroke-width:4; stroke-opacity:1; fill:none" points="155.765,1486.45 155.765,47.2441 "/>
<polyline clip-path="url(#clip610)" style="stroke:#000000; stroke-linecap:round; stroke-linejoin:round; stroke-width:4; stroke-opacity:1; fill:none" points="155.765,1297.71 174.663,1297.71 "/>
<polyline clip-path="url(#clip610)" style="stroke:#000000; stroke-linecap:round; stroke-linejoin:round; stroke-width:4; stroke-opacity:1; fill:none" points="155.765,994.115 174.663,994.115 "/>
<polyline clip-path="url(#clip610)" style="stroke:#000000; stroke-linecap:round; stroke-linejoin:round; stroke-width:4; stroke-opacity:1; fill:none" points="155.765,690.518 174.663,690.518 "/>
<polyline clip-path="url(#clip610)" style="stroke:#000000; stroke-linecap:round; stroke-linejoin:round; stroke-width:4; stroke-opacity:1; fill:none" points="155.765,386.922 174.663,386.922 "/>
<polyline clip-path="url(#clip610)" style="stroke:#000000; stroke-linecap:round; stroke-linejoin:round; stroke-width:4; stroke-opacity:1; fill:none" points="155.765,83.3258 174.663,83.3258 "/>
<path clip-path="url(#clip610)" d="M63.5847 1283.51 Q59.9736 1283.51 58.1449 1287.07 Q56.3393 1290.62 56.3393 1297.75 Q56.3393 1304.85 58.1449 1308.42 Q59.9736 1311.96 63.5847 1311.96 Q67.2189 1311.96 69.0244 1308.42 Q70.8531 1304.85 70.8531 1297.75 Q70.8531 1290.62 69.0244 1287.07 Q67.2189 1283.51 63.5847 1283.51 M63.5847 1279.81 Q69.3948 1279.81 72.4503 1284.41 Q75.529 1289 75.529 1297.75 Q75.529 1306.47 72.4503 1311.08 Q69.3948 1315.66 63.5847 1315.66 Q57.7745 1315.66 54.6958 1311.08 Q51.6403 1306.47 51.6403 1297.75 Q51.6403 1289 54.6958 1284.41 Q57.7745 1279.81 63.5847 1279.81 Z" fill="#000000" fill-rule="nonzero" fill-opacity="1" /><path clip-path="url(#clip610)" d="M83.7466 1309.11 L88.6308 1309.11 L88.6308 1314.99 L83.7466 1314.99 L83.7466 1309.11 Z" fill="#000000" fill-rule="nonzero" fill-opacity="1" /><path clip-path="url(#clip610)" d="M98.8622 1280.43 L117.219 1280.43 L117.219 1284.37 L103.145 1284.37 L103.145 1292.84 Q104.163 1292.49 105.182 1292.33 Q106.2 1292.14 107.219 1292.14 Q113.006 1292.14 116.385 1295.32 Q119.765 1298.49 119.765 1303.9 Q119.765 1309.48 116.293 1312.58 Q112.82 1315.66 106.501 1315.66 Q104.325 1315.66 102.057 1315.29 Q99.8113 1314.92 97.4039 1314.18 L97.4039 1309.48 Q99.4872 1310.62 101.709 1311.17 Q103.932 1311.73 106.408 1311.73 Q110.413 1311.73 112.751 1309.62 Q115.089 1307.51 115.089 1303.9 Q115.089 1300.29 112.751 1298.19 Q110.413 1296.08 106.408 1296.08 Q104.534 1296.08 102.659 1296.5 Q100.807 1296.91 98.8622 1297.79 L98.8622 1280.43 Z" fill="#000000" fill-rule="nonzero" fill-opacity="1" /><path clip-path="url(#clip610)" d="M53.3995 1007.46 L61.0384 1007.46 L61.0384 981.094 L52.7282 982.761 L52.7282 978.501 L60.9921 976.835 L65.668 976.835 L65.668 1007.46 L73.3068 1007.46 L73.3068 1011.39 L53.3995 1011.39 L53.3995 1007.46 Z" fill="#000000" fill-rule="nonzero" fill-opacity="1" /><path clip-path="url(#clip610)" d="M82.7512 1005.52 L87.6354 1005.52 L87.6354 1011.39 L82.7512 1011.39 L82.7512 1005.52 Z" fill="#000000" fill-rule="nonzero" fill-opacity="1" /><path clip-path="url(#clip610)" d="M107.821 979.913 Q104.209 979.913 102.381 983.478 Q100.575 987.02 100.575 994.149 Q100.575 1001.26 102.381 1004.82 Q104.209 1008.36 107.821 1008.36 Q111.455 1008.36 113.26 1004.82 Q115.089 1001.26 115.089 994.149 Q115.089 987.02 113.26 983.478 Q111.455 979.913 107.821 979.913 M107.821 976.21 Q113.631 976.21 116.686 980.816 Q119.765 985.399 119.765 994.149 Q119.765 1002.88 116.686 1007.48 Q113.631 1012.07 107.821 1012.07 Q102.01 1012.07 98.9317 1007.48 Q95.8761 1002.88 95.8761 994.149 Q95.8761 985.399 98.9317 980.816 Q102.01 976.21 107.821 976.21 Z" fill="#000000" fill-rule="nonzero" fill-opacity="1" /><path clip-path="url(#clip610)" d="M54.3949 703.863 L62.0337 703.863 L62.0337 677.498 L53.7236 679.164 L53.7236 674.905 L61.9874 673.238 L66.6633 673.238 L66.6633 703.863 L74.3022 703.863 L74.3022 707.798 L54.3949 707.798 L54.3949 703.863 Z" fill="#000000" fill-rule="nonzero" fill-opacity="1" /><path clip-path="url(#clip610)" d="M83.7466 701.919 L88.6308 701.919 L88.6308 707.798 L83.7466 707.798 L83.7466 701.919 Z" fill="#000000" fill-rule="nonzero" fill-opacity="1" /><path clip-path="url(#clip610)" d="M98.8622 673.238 L117.219 673.238 L117.219 677.174 L103.145 677.174 L103.145 685.646 Q104.163 685.299 105.182 685.137 Q106.2 684.951 107.219 684.951 Q113.006 684.951 116.385 688.123 Q119.765 691.294 119.765 696.711 Q119.765 702.289 116.293 705.391 Q112.82 708.47 106.501 708.47 Q104.325 708.47 102.057 708.099 Q99.8113 707.729 97.4039 706.988 L97.4039 702.289 Q99.4872 703.423 101.709 703.979 Q103.932 704.535 106.408 704.535 Q110.413 704.535 112.751 702.428 Q115.089 700.322 115.089 696.711 Q115.089 693.099 112.751 690.993 Q110.413 688.886 106.408 688.886 Q104.534 688.886 102.659 689.303 Q100.807 689.72 98.8622 690.599 L98.8622 673.238 Z" fill="#000000" fill-rule="nonzero" fill-opacity="1" /><path clip-path="url(#clip610)" d="M56.6171 400.267 L72.9365 400.267 L72.9365 404.202 L50.9921 404.202 L50.9921 400.267 Q53.6541 397.512 58.2375 392.883 Q62.8439 388.23 64.0245 386.887 Q66.2698 384.364 67.1494 382.628 Q68.0522 380.869 68.0522 379.179 Q68.0522 376.424 66.1078 374.688 Q64.1865 372.952 61.0847 372.952 Q58.8856 372.952 56.4319 373.716 Q54.0014 374.48 51.2236 376.031 L51.2236 371.309 Q54.0477 370.175 56.5014 369.596 Q58.955 369.017 60.9921 369.017 Q66.3624 369.017 69.5568 371.702 Q72.7513 374.387 72.7513 378.878 Q72.7513 381.008 71.9411 382.929 Q71.1541 384.827 69.0476 387.42 Q68.4689 388.091 65.367 391.309 Q62.2652 394.503 56.6171 400.267 Z" fill="#000000" fill-rule="nonzero" fill-opacity="1" /><path clip-path="url(#clip610)" d="M82.7512 398.323 L87.6354 398.323 L87.6354 404.202 L82.7512 404.202 L82.7512 398.323 Z" fill="#000000" fill-rule="nonzero" fill-opacity="1" /><path clip-path="url(#clip610)" d="M107.821 372.721 Q104.209 372.721 102.381 376.286 Q100.575 379.827 100.575 386.957 Q100.575 394.063 102.381 397.628 Q104.209 401.17 107.821 401.17 Q111.455 401.17 113.26 397.628 Q115.089 394.063 115.089 386.957 Q115.089 379.827 113.26 376.286 Q111.455 372.721 107.821 372.721 M107.821 369.017 Q113.631 369.017 116.686 373.624 Q119.765 378.207 119.765 386.957 Q119.765 395.684 116.686 400.29 Q113.631 404.873 107.821 404.873 Q102.01 404.873 98.9317 400.29 Q95.8761 395.684 95.8761 386.957 Q95.8761 378.207 98.9317 373.624 Q102.01 369.017 107.821 369.017 Z" fill="#000000" fill-rule="nonzero" fill-opacity="1" /><path clip-path="url(#clip610)" d="M57.6125 96.6707 L73.9318 96.6707 L73.9318 100.606 L51.9875 100.606 L51.9875 96.6707 Q54.6495 93.916 59.2328 89.2864 Q63.8393 84.6337 65.0198 83.2911 Q67.2652 80.768 68.1448 79.0319 Q69.0476 77.2726 69.0476 75.5828 Q69.0476 72.8282 67.1032 71.0921 Q65.1819 69.356 62.08 69.356 Q59.881 69.356 57.4273 70.1199 Q54.9967 70.8838 52.219 72.4347 L52.219 67.7125 Q55.043 66.5782 57.4967 65.9995 Q59.9504 65.4208 61.9874 65.4208 Q67.3578 65.4208 70.5522 68.106 Q73.7466 70.7912 73.7466 75.2819 Q73.7466 77.4115 72.9365 79.3328 Q72.1494 81.2309 70.0429 83.8235 Q69.4642 84.4948 66.3624 87.7124 Q63.2606 90.9068 57.6125 96.6707 Z" fill="#000000" fill-rule="nonzero" fill-opacity="1" /><path clip-path="url(#clip610)" d="M83.7466 94.7262 L88.6308 94.7262 L88.6308 100.606 L83.7466 100.606 L83.7466 94.7262 Z" fill="#000000" fill-rule="nonzero" fill-opacity="1" /><path clip-path="url(#clip610)" d="M98.8622 66.0458 L117.219 66.0458 L117.219 69.981 L103.145 69.981 L103.145 78.4532 Q104.163 78.1059 105.182 77.9439 Q106.2 77.7587 107.219 77.7587 Q113.006 77.7587 116.385 80.93 Q119.765 84.1013 119.765 89.5179 Q119.765 95.0966 116.293 98.1984 Q112.82 101.277 106.501 101.277 Q104.325 101.277 102.057 100.907 Q99.8113 100.536 97.4039 99.7956 L97.4039 95.0966 Q99.4872 96.2308 101.709 96.7864 Q103.932 97.3419 106.408 97.3419 Q110.413 97.3419 112.751 95.2355 Q115.089 93.129 115.089 89.5179 Q115.089 85.9068 112.751 83.8003 Q110.413 81.6939 106.408 81.6939 Q104.534 81.6939 102.659 82.1105 Q100.807 82.5272 98.8622 83.4068 L98.8622 66.0458 Z" fill="#000000" fill-rule="nonzero" fill-opacity="1" /><polyline clip-path="url(#clip611)" style="stroke:#009af9; stroke-linecap:round; stroke-linejoin:round; stroke-width:12; stroke-opacity:1; fill:none" points="217.944,1297.71 425.207,1273.64 632.47,1266.59 839.734,1269.1 1047,1320.98 1254.26,1308.63 1461.52,1196.08 1668.79,1198.87 1876.05,1149.56 2083.31,1029.25 2290.58,1037.89 "/>
<polyline clip-path="url(#clip611)" style="stroke:#000000; stroke-linecap:round; stroke-linejoin:round; stroke-width:12; stroke-opacity:1; fill:none" points="217.944,1297.71 217.944,1297.71 "/>
<polyline clip-path="url(#clip611)" style="stroke:#000000; stroke-linecap:round; stroke-linejoin:round; stroke-width:12; stroke-opacity:1; fill:none" points="425.207,1331.12 425.207,1087.46 "/>
<polyline clip-path="url(#clip611)" style="stroke:#000000; stroke-linecap:round; stroke-linejoin:round; stroke-width:12; stroke-opacity:1; fill:none" points="632.47,1342.54 632.47,1062.02 "/>
<polyline clip-path="url(#clip611)" style="stroke:#000000; stroke-linecap:round; stroke-linejoin:round; stroke-width:12; stroke-opacity:1; fill:none" points="839.734,1384.74 839.734,1000.63 "/>
<polyline clip-path="url(#clip611)" style="stroke:#000000; stroke-linecap:round; stroke-linejoin:round; stroke-width:12; stroke-opacity:1; fill:none" points="1047,1438.81 1047,845.28 "/>
<polyline clip-path="url(#clip611)" style="stroke:#000000; stroke-linecap:round; stroke-linejoin:round; stroke-width:12; stroke-opacity:1; fill:none" points="1254.26,1408.54 1254.26,751.042 "/>
<polyline clip-path="url(#clip611)" style="stroke:#000000; stroke-linecap:round; stroke-linejoin:round; stroke-width:12; stroke-opacity:1; fill:none" points="1461.52,1355.39 1461.52,495.885 "/>
<polyline clip-path="url(#clip611)" style="stroke:#000000; stroke-linecap:round; stroke-linejoin:round; stroke-width:12; stroke-opacity:1; fill:none" points="1668.79,1326.47 1668.79,573.058 "/>
<polyline clip-path="url(#clip611)" style="stroke:#000000; stroke-linecap:round; stroke-linejoin:round; stroke-width:12; stroke-opacity:1; fill:none" points="1876.05,1312.84 1876.05,575.071 "/>
<polyline clip-path="url(#clip611)" style="stroke:#000000; stroke-linecap:round; stroke-linejoin:round; stroke-width:12; stroke-opacity:1; fill:none" points="2083.31,1291.46 2083.31,393.311 "/>
<polyline clip-path="url(#clip611)" style="stroke:#000000; stroke-linecap:round; stroke-linejoin:round; stroke-width:12; stroke-opacity:1; fill:none" points="2290.58,1271.81 2290.58,181.232 "/>
<line clip-path="url(#clip611)" x1="233.944" y1="1297.71" x2="201.944" y2="1297.71" style="stroke:#000000; stroke-width:12; stroke-opacity:1"/>
<line clip-path="url(#clip611)" x1="233.944" y1="1297.71" x2="201.944" y2="1297.71" style="stroke:#000000; stroke-width:12; stroke-opacity:1"/>
<line clip-path="url(#clip611)" x1="441.207" y1="1331.12" x2="409.207" y2="1331.12" style="stroke:#000000; stroke-width:12; stroke-opacity:1"/>
<line clip-path="url(#clip611)" x1="441.207" y1="1087.46" x2="409.207" y2="1087.46" style="stroke:#000000; stroke-width:12; stroke-opacity:1"/>
<line clip-path="url(#clip611)" x1="648.47" y1="1342.54" x2="616.47" y2="1342.54" style="stroke:#000000; stroke-width:12; stroke-opacity:1"/>
<line clip-path="url(#clip611)" x1="648.47" y1="1062.02" x2="616.47" y2="1062.02" style="stroke:#000000; stroke-width:12; stroke-opacity:1"/>
<line clip-path="url(#clip611)" x1="855.734" y1="1384.74" x2="823.734" y2="1384.74" style="stroke:#000000; stroke-width:12; stroke-opacity:1"/>
<line clip-path="url(#clip611)" x1="855.734" y1="1000.63" x2="823.734" y2="1000.63" style="stroke:#000000; stroke-width:12; stroke-opacity:1"/>
<line clip-path="url(#clip611)" x1="1063" y1="1438.81" x2="1031" y2="1438.81" style="stroke:#000000; stroke-width:12; stroke-opacity:1"/>
<line clip-path="url(#clip611)" x1="1063" y1="845.28" x2="1031" y2="845.28" style="stroke:#000000; stroke-width:12; stroke-opacity:1"/>
<line clip-path="url(#clip611)" x1="1270.26" y1="1408.54" x2="1238.26" y2="1408.54" style="stroke:#000000; stroke-width:12; stroke-opacity:1"/>
<line clip-path="url(#clip611)" x1="1270.26" y1="751.042" x2="1238.26" y2="751.042" style="stroke:#000000; stroke-width:12; stroke-opacity:1"/>
<line clip-path="url(#clip611)" x1="1477.52" y1="1355.39" x2="1445.52" y2="1355.39" style="stroke:#000000; stroke-width:12; stroke-opacity:1"/>
<line clip-path="url(#clip611)" x1="1477.52" y1="495.885" x2="1445.52" y2="495.885" style="stroke:#000000; stroke-width:12; stroke-opacity:1"/>
<line clip-path="url(#clip611)" x1="1684.79" y1="1326.47" x2="1652.79" y2="1326.47" style="stroke:#000000; stroke-width:12; stroke-opacity:1"/>
<line clip-path="url(#clip611)" x1="1684.79" y1="573.058" x2="1652.79" y2="573.058" style="stroke:#000000; stroke-width:12; stroke-opacity:1"/>
<line clip-path="url(#clip611)" x1="1892.05" y1="1312.84" x2="1860.05" y2="1312.84" style="stroke:#000000; stroke-width:12; stroke-opacity:1"/>
<line clip-path="url(#clip611)" x1="1892.05" y1="575.071" x2="1860.05" y2="575.071" style="stroke:#000000; stroke-width:12; stroke-opacity:1"/>
<line clip-path="url(#clip611)" x1="2099.31" y1="1291.46" x2="2067.31" y2="1291.46" style="stroke:#000000; stroke-width:12; stroke-opacity:1"/>
<line clip-path="url(#clip611)" x1="2099.31" y1="393.311" x2="2067.31" y2="393.311" style="stroke:#000000; stroke-width:12; stroke-opacity:1"/>
<line clip-path="url(#clip611)" x1="2306.58" y1="1271.81" x2="2274.58" y2="1271.81" style="stroke:#000000; stroke-width:12; stroke-opacity:1"/>
<line clip-path="url(#clip611)" x1="2306.58" y1="181.232" x2="2274.58" y2="181.232" style="stroke:#000000; stroke-width:12; stroke-opacity:1"/>
<polyline clip-path="url(#clip611)" style="stroke:#e26f46; stroke-linecap:round; stroke-linejoin:round; stroke-width:12; stroke-opacity:1; fill:none" points="217.944,1297.71 425.207,1275.61 632.47,1243.16 839.734,1218.74 1047,1166.07 1254.26,1190.3 1461.52,1213.73 1668.79,1214.09 1876.05,1204.58 2083.31,1127.05 2290.58,1129.75 "/>
<polyline clip-path="url(#clip611)" style="stroke:#000000; stroke-linecap:round; stroke-linejoin:round; stroke-width:12; stroke-opacity:1; fill:none" points="217.944,1297.71 217.944,1297.71 "/>
<polyline clip-path="url(#clip611)" style="stroke:#000000; stroke-linecap:round; stroke-linejoin:round; stroke-width:12; stroke-opacity:1; fill:none" points="425.207,1350.28 425.207,1177.47 "/>
<polyline clip-path="url(#clip611)" style="stroke:#000000; stroke-linecap:round; stroke-linejoin:round; stroke-width:12; stroke-opacity:1; fill:none" points="632.47,1347.47 632.47,1029.3 "/>
<polyline clip-path="url(#clip611)" style="stroke:#000000; stroke-linecap:round; stroke-linejoin:round; stroke-width:12; stroke-opacity:1; fill:none" points="839.734,1357.89 839.734,840.64 "/>
<polyline clip-path="url(#clip611)" style="stroke:#000000; stroke-linecap:round; stroke-linejoin:round; stroke-width:12; stroke-opacity:1; fill:none" points="1047,1404.05 1047,737.246 "/>
<polyline clip-path="url(#clip611)" style="stroke:#000000; stroke-linecap:round; stroke-linejoin:round; stroke-width:12; stroke-opacity:1; fill:none" points="1254.26,1377.87 1254.26,667.47 "/>
<polyline clip-path="url(#clip611)" style="stroke:#000000; stroke-linecap:round; stroke-linejoin:round; stroke-width:12; stroke-opacity:1; fill:none" points="1461.52,1418.04 1461.52,391.249 "/>
<polyline clip-path="url(#clip611)" style="stroke:#000000; stroke-linecap:round; stroke-linejoin:round; stroke-width:12; stroke-opacity:1; fill:none" points="1668.79,1412.61 1668.79,227.513 "/>
<polyline clip-path="url(#clip611)" style="stroke:#000000; stroke-linecap:round; stroke-linejoin:round; stroke-width:12; stroke-opacity:1; fill:none" points="1876.05,1397.47 1876.05,125.647 "/>
<polyline clip-path="url(#clip611)" style="stroke:#000000; stroke-linecap:round; stroke-linejoin:round; stroke-width:12; stroke-opacity:1; fill:none" points="2083.31,1403.02 2083.31,87.9763 "/>
<polyline clip-path="url(#clip611)" style="stroke:#000000; stroke-linecap:round; stroke-linejoin:round; stroke-width:12; stroke-opacity:1; fill:none" points="2290.58,1445.72 2290.58,181.848 "/>
<line clip-path="url(#clip611)" x1="233.944" y1="1297.71" x2="201.944" y2="1297.71" style="stroke:#000000; stroke-width:12; stroke-opacity:1"/>
<line clip-path="url(#clip611)" x1="233.944" y1="1297.71" x2="201.944" y2="1297.71" style="stroke:#000000; stroke-width:12; stroke-opacity:1"/>
<line clip-path="url(#clip611)" x1="441.207" y1="1350.28" x2="409.207" y2="1350.28" style="stroke:#000000; stroke-width:12; stroke-opacity:1"/>
<line clip-path="url(#clip611)" x1="441.207" y1="1177.47" x2="409.207" y2="1177.47" style="stroke:#000000; stroke-width:12; stroke-opacity:1"/>
<line clip-path="url(#clip611)" x1="648.47" y1="1347.47" x2="616.47" y2="1347.47" style="stroke:#000000; stroke-width:12; stroke-opacity:1"/>
<line clip-path="url(#clip611)" x1="648.47" y1="1029.3" x2="616.47" y2="1029.3" style="stroke:#000000; stroke-width:12; stroke-opacity:1"/>
<line clip-path="url(#clip611)" x1="855.734" y1="1357.89" x2="823.734" y2="1357.89" style="stroke:#000000; stroke-width:12; stroke-opacity:1"/>
<line clip-path="url(#clip611)" x1="855.734" y1="840.64" x2="823.734" y2="840.64" style="stroke:#000000; stroke-width:12; stroke-opacity:1"/>
<line clip-path="url(#clip611)" x1="1063" y1="1404.05" x2="1031" y2="1404.05" style="stroke:#000000; stroke-width:12; stroke-opacity:1"/>
<line clip-path="url(#clip611)" x1="1063" y1="737.246" x2="1031" y2="737.246" style="stroke:#000000; stroke-width:12; stroke-opacity:1"/>
<line clip-path="url(#clip611)" x1="1270.26" y1="1377.87" x2="1238.26" y2="1377.87" style="stroke:#000000; stroke-width:12; stroke-opacity:1"/>
<line clip-path="url(#clip611)" x1="1270.26" y1="667.47" x2="1238.26" y2="667.47" style="stroke:#000000; stroke-width:12; stroke-opacity:1"/>
<line clip-path="url(#clip611)" x1="1477.52" y1="1418.04" x2="1445.52" y2="1418.04" style="stroke:#000000; stroke-width:12; stroke-opacity:1"/>
<line clip-path="url(#clip611)" x1="1477.52" y1="391.249" x2="1445.52" y2="391.249" style="stroke:#000000; stroke-width:12; stroke-opacity:1"/>
<line clip-path="url(#clip611)" x1="1684.79" y1="1412.61" x2="1652.79" y2="1412.61" style="stroke:#000000; stroke-width:12; stroke-opacity:1"/>
<line clip-path="url(#clip611)" x1="1684.79" y1="227.513" x2="1652.79" y2="227.513" style="stroke:#000000; stroke-width:12; stroke-opacity:1"/>
<line clip-path="url(#clip611)" x1="1892.05" y1="1397.47" x2="1860.05" y2="1397.47" style="stroke:#000000; stroke-width:12; stroke-opacity:1"/>
<line clip-path="url(#clip611)" x1="1892.05" y1="125.647" x2="1860.05" y2="125.647" style="stroke:#000000; stroke-width:12; stroke-opacity:1"/>
<line clip-path="url(#clip611)" x1="2099.31" y1="1403.02" x2="2067.31" y2="1403.02" style="stroke:#000000; stroke-width:12; stroke-opacity:1"/>
<line clip-path="url(#clip611)" x1="2099.31" y1="87.9763" x2="2067.31" y2="87.9763" style="stroke:#000000; stroke-width:12; stroke-opacity:1"/>
<line clip-path="url(#clip611)" x1="2306.58" y1="1445.72" x2="2274.58" y2="1445.72" style="stroke:#000000; stroke-width:12; stroke-opacity:1"/>
<line clip-path="url(#clip611)" x1="2306.58" y1="181.848" x2="2274.58" y2="181.848" style="stroke:#000000; stroke-width:12; stroke-opacity:1"/>
</svg>
