<?xml version="1.0" encoding="utf-8"?>
<svg xmlns="http://www.w3.org/2000/svg" xmlns:xlink="http://www.w3.org/1999/xlink" width="600" height="400" viewBox="0 0 2400 1600">
<defs>
  <clipPath id="clip020">
    <rect x="0" y="0" width="2400" height="1600"/>
  </clipPath>
</defs>
<path clip-path="url(#clip020)" d="M0 1600 L2400 1600 L2400 0 L0 0  Z" fill="#ffffff" fill-rule="evenodd" fill-opacity="1"/>
<defs>
  <clipPath id="clip021">
    <rect x="155" y="47" width="2198" height="1440"/>
  </clipPath>
</defs>
<path clip-path="url(#clip020)" d="M155.765 1486.45 L2352.76 1486.45 L2352.76 47.2441 L155.765 47.2441  Z" fill="#ffffff" fill-rule="evenodd" fill-opacity="1"/>
<polyline clip-path="url(#clip021)" style="stroke:#000000; stroke-linecap:round; stroke-linejoin:round; stroke-width:2; stroke-opacity:0.1; fill:none" points="217.944,1486.45 217.944,47.2441 "/>
<polyline clip-path="url(#clip021)" style="stroke:#000000; stroke-linecap:round; stroke-linejoin:round; stroke-width:2; stroke-opacity:0.1; fill:none" points="736.102,1486.45 736.102,47.2441 "/>
<polyline clip-path="url(#clip021)" style="stroke:#000000; stroke-linecap:round; stroke-linejoin:round; stroke-width:2; stroke-opacity:0.1; fill:none" points="1254.26,1486.45 1254.26,47.2441 "/>
<polyline clip-path="url(#clip021)" style="stroke:#000000; stroke-linecap:round; stroke-linejoin:round; stroke-width:2; stroke-opacity:0.1; fill:none" points="1772.42,1486.45 1772.42,47.2441 "/>
<polyline clip-path="url(#clip021)" style="stroke:#000000; stroke-linecap:round; stroke-linejoin:round; stroke-width:2; stroke-opacity:0.1; fill:none" points="2290.58,1486.45 2290.58,47.2441 "/>
<polyline clip-path="url(#clip021)" style="stroke:#000000; stroke-linecap:round; stroke-linejoin:round; stroke-width:2; stroke-opacity:0.1; fill:none" points="155.765,1336.48 2352.76,1336.48 "/>
<polyline clip-path="url(#clip021)" style="stroke:#000000; stroke-linecap:round; stroke-linejoin:round; stroke-width:2; stroke-opacity:0.1; fill:none" points="155.765,1075.22 2352.76,1075.22 "/>
<polyline clip-path="url(#clip021)" style="stroke:#000000; stroke-linecap:round; stroke-linejoin:round; stroke-width:2; stroke-opacity:0.1; fill:none" points="155.765,813.954 2352.76,813.954 "/>
<polyline clip-path="url(#clip021)" style="stroke:#000000; stroke-linecap:round; stroke-linejoin:round; stroke-width:2; stroke-opacity:0.1; fill:none" points="155.765,552.69 2352.76,552.69 "/>
<polyline clip-path="url(#clip021)" style="stroke:#000000; stroke-linecap:round; stroke-linejoin:round; stroke-width:2; stroke-opacity:0.1; fill:none" points="155.765,291.426 2352.76,291.426 "/>
<polyline clip-path="url(#clip020)" style="stroke:#000000; stroke-linecap:round; stroke-linejoin:round; stroke-width:4; stroke-opacity:1; fill:none" points="155.765,1486.45 2352.76,1486.45 "/>
<polyline clip-path="url(#clip020)" style="stroke:#000000; stroke-linecap:round; stroke-linejoin:round; stroke-width:4; stroke-opacity:1; fill:none" points="217.944,1486.45 217.944,1467.55 "/>
<polyline clip-path="url(#clip020)" style="stroke:#000000; stroke-linecap:round; stroke-linejoin:round; stroke-width:4; stroke-opacity:1; fill:none" points="736.102,1486.45 736.102,1467.55 "/>
<polyline clip-path="url(#clip020)" style="stroke:#000000; stroke-linecap:round; stroke-linejoin:round; stroke-width:4; stroke-opacity:1; fill:none" points="1254.26,1486.45 1254.26,1467.55 "/>
<polyline clip-path="url(#clip020)" style="stroke:#000000; stroke-linecap:round; stroke-linejoin:round; stroke-width:4; stroke-opacity:1; fill:none" points="1772.42,1486.45 1772.42,1467.55 "/>
<polyline clip-path="url(#clip020)" style="stroke:#000000; stroke-linecap:round; stroke-linejoin:round; stroke-width:4; stroke-opacity:1; fill:none" points="2290.58,1486.45 2290.58,1467.55 "/>
<path clip-path="url(#clip020)" d="M180.247 1517.37 Q176.636 1517.37 174.808 1520.93 Q173.002 1524.47 173.002 1531.6 Q173.002 1538.71 174.808 1542.27 Q176.636 1545.82 180.247 1545.82 Q183.882 1545.82 185.687 1542.27 Q187.516 1538.71 187.516 1531.6 Q187.516 1524.47 185.687 1520.93 Q183.882 1517.37 180.247 1517.37 M180.247 1513.66 Q186.057 1513.66 189.113 1518.27 Q192.192 1522.85 192.192 1531.6 Q192.192 1540.33 189.113 1544.94 Q186.057 1549.52 180.247 1549.52 Q174.437 1549.52 171.358 1544.94 Q168.303 1540.33 168.303 1531.6 Q168.303 1522.85 171.358 1518.27 Q174.437 1513.66 180.247 1513.66 Z" fill="#000000" fill-rule="nonzero" fill-opacity="1" /><path clip-path="url(#clip020)" d="M200.409 1542.97 L205.294 1542.97 L205.294 1548.85 L200.409 1548.85 L200.409 1542.97 Z" fill="#000000" fill-rule="nonzero" fill-opacity="1" /><path clip-path="url(#clip020)" d="M225.479 1517.37 Q221.867 1517.37 220.039 1520.93 Q218.233 1524.47 218.233 1531.6 Q218.233 1538.71 220.039 1542.27 Q221.867 1545.82 225.479 1545.82 Q229.113 1545.82 230.918 1542.27 Q232.747 1538.71 232.747 1531.6 Q232.747 1524.47 230.918 1520.93 Q229.113 1517.37 225.479 1517.37 M225.479 1513.66 Q231.289 1513.66 234.344 1518.27 Q237.423 1522.85 237.423 1531.6 Q237.423 1540.33 234.344 1544.94 Q231.289 1549.52 225.479 1549.52 Q219.668 1549.52 216.59 1544.94 Q213.534 1540.33 213.534 1531.6 Q213.534 1522.85 216.59 1518.27 Q219.668 1513.66 225.479 1513.66 Z" fill="#000000" fill-rule="nonzero" fill-opacity="1" /><path clip-path="url(#clip020)" d="M255.64 1517.37 Q252.029 1517.37 250.201 1520.93 Q248.395 1524.47 248.395 1531.6 Q248.395 1538.71 250.201 1542.27 Q252.029 1545.82 255.64 1545.82 Q259.275 1545.82 261.08 1542.27 Q262.909 1538.71 262.909 1531.6 Q262.909 1524.47 261.08 1520.93 Q259.275 1517.37 255.64 1517.37 M255.64 1513.66 Q261.451 1513.66 264.506 1518.27 Q267.585 1522.85 267.585 1531.6 Q267.585 1540.33 264.506 1544.94 Q261.451 1549.52 255.64 1549.52 Q249.83 1549.52 246.752 1544.94 Q243.696 1540.33 243.696 1531.6 Q243.696 1522.85 246.752 1518.27 Q249.83 1513.66 255.64 1513.66 Z" fill="#000000" fill-rule="nonzero" fill-opacity="1" /><path clip-path="url(#clip020)" d="M698.903 1517.37 Q695.292 1517.37 693.463 1520.93 Q691.658 1524.47 691.658 1531.6 Q691.658 1538.71 693.463 1542.27 Q695.292 1545.82 698.903 1545.82 Q702.538 1545.82 704.343 1542.27 Q706.172 1538.71 706.172 1531.6 Q706.172 1524.47 704.343 1520.93 Q702.538 1517.37 698.903 1517.37 M698.903 1513.66 Q704.713 1513.66 707.769 1518.27 Q710.848 1522.85 710.848 1531.6 Q710.848 1540.33 707.769 1544.94 Q704.713 1549.52 698.903 1549.52 Q693.093 1549.52 690.014 1544.94 Q686.959 1540.33 686.959 1531.6 Q686.959 1522.85 690.014 1518.27 Q693.093 1513.66 698.903 1513.66 Z" fill="#000000" fill-rule="nonzero" fill-opacity="1" /><path clip-path="url(#clip020)" d="M719.065 1542.97 L723.949 1542.97 L723.949 1548.85 L719.065 1548.85 L719.065 1542.97 Z" fill="#000000" fill-rule="nonzero" fill-opacity="1" /><path clip-path="url(#clip020)" d="M738.162 1544.91 L754.482 1544.91 L754.482 1548.85 L732.537 1548.85 L732.537 1544.91 Q735.199 1542.16 739.783 1537.53 Q744.389 1532.88 745.57 1531.53 Q747.815 1529.01 748.695 1527.27 Q749.597 1525.51 749.597 1523.82 Q749.597 1521.07 747.653 1519.33 Q745.732 1517.6 742.63 1517.6 Q740.431 1517.6 737.977 1518.36 Q735.547 1519.13 732.769 1520.68 L732.769 1515.95 Q735.593 1514.82 738.047 1514.24 Q740.5 1513.66 742.537 1513.66 Q747.908 1513.66 751.102 1516.35 Q754.296 1519.03 754.296 1523.52 Q754.296 1525.65 753.486 1527.57 Q752.699 1529.47 750.593 1532.07 Q750.014 1532.74 746.912 1535.95 Q743.81 1539.15 738.162 1544.91 Z" fill="#000000" fill-rule="nonzero" fill-opacity="1" /><path clip-path="url(#clip020)" d="M764.343 1514.29 L782.699 1514.29 L782.699 1518.22 L768.625 1518.22 L768.625 1526.7 Q769.644 1526.35 770.662 1526.19 Q771.681 1526 772.699 1526 Q778.486 1526 781.866 1529.17 Q785.245 1532.34 785.245 1537.76 Q785.245 1543.34 781.773 1546.44 Q778.301 1549.52 771.982 1549.52 Q769.806 1549.52 767.537 1549.15 Q765.292 1548.78 762.884 1548.04 L762.884 1543.34 Q764.968 1544.47 767.19 1545.03 Q769.412 1545.58 771.889 1545.58 Q775.894 1545.58 778.232 1543.48 Q780.57 1541.37 780.57 1537.76 Q780.57 1534.15 778.232 1532.04 Q775.894 1529.94 771.889 1529.94 Q770.014 1529.94 768.139 1530.35 Q766.287 1530.77 764.343 1531.65 L764.343 1514.29 Z" fill="#000000" fill-rule="nonzero" fill-opacity="1" /><path clip-path="url(#clip020)" d="M1216.56 1517.37 Q1212.95 1517.37 1211.12 1520.93 Q1209.32 1524.47 1209.32 1531.6 Q1209.32 1538.71 1211.12 1542.27 Q1212.95 1545.82 1216.56 1545.82 Q1220.2 1545.82 1222 1542.27 Q1223.83 1538.71 1223.83 1531.6 Q1223.83 1524.47 1222 1520.93 Q1220.2 1517.37 1216.56 1517.37 M1216.56 1513.66 Q1222.37 1513.66 1225.43 1518.27 Q1228.51 1522.85 1228.51 1531.6 Q1228.51 1540.33 1225.43 1544.94 Q1222.37 1549.52 1216.56 1549.52 Q1210.75 1549.52 1207.68 1544.94 Q1204.62 1540.33 1204.62 1531.6 Q1204.62 1522.85 1207.68 1518.27 Q1210.75 1513.66 1216.56 1513.66 Z" fill="#000000" fill-rule="nonzero" fill-opacity="1" /><path clip-path="url(#clip020)" d="M1236.73 1542.97 L1241.61 1542.97 L1241.61 1548.85 L1236.73 1548.85 L1236.73 1542.97 Z" fill="#000000" fill-rule="nonzero" fill-opacity="1" /><path clip-path="url(#clip020)" d="M1251.84 1514.29 L1270.2 1514.29 L1270.2 1518.22 L1256.12 1518.22 L1256.12 1526.7 Q1257.14 1526.35 1258.16 1526.19 Q1259.18 1526 1260.2 1526 Q1265.98 1526 1269.36 1529.17 Q1272.74 1532.34 1272.74 1537.76 Q1272.74 1543.34 1269.27 1546.44 Q1265.8 1549.52 1259.48 1549.52 Q1257.3 1549.52 1255.04 1549.15 Q1252.79 1548.78 1250.38 1548.04 L1250.38 1543.34 Q1252.47 1544.47 1254.69 1545.03 Q1256.91 1545.58 1259.39 1545.58 Q1263.39 1545.58 1265.73 1543.48 Q1268.07 1541.37 1268.07 1537.76 Q1268.07 1534.15 1265.73 1532.04 Q1263.39 1529.94 1259.39 1529.94 Q1257.51 1529.94 1255.64 1530.35 Q1253.79 1530.77 1251.84 1531.65 L1251.84 1514.29 Z" fill="#000000" fill-rule="nonzero" fill-opacity="1" /><path clip-path="url(#clip020)" d="M1291.96 1517.37 Q1288.35 1517.37 1286.52 1520.93 Q1284.71 1524.47 1284.71 1531.6 Q1284.71 1538.71 1286.52 1542.27 Q1288.35 1545.82 1291.96 1545.82 Q1295.59 1545.82 1297.4 1542.27 Q1299.23 1538.71 1299.23 1531.6 Q1299.23 1524.47 1297.4 1520.93 Q1295.59 1517.37 1291.96 1517.37 M1291.96 1513.66 Q1297.77 1513.66 1300.82 1518.27 Q1303.9 1522.85 1303.9 1531.6 Q1303.9 1540.33 1300.82 1544.94 Q1297.77 1549.52 1291.96 1549.52 Q1286.15 1549.52 1283.07 1544.94 Q1280.01 1540.33 1280.01 1531.6 Q1280.01 1522.85 1283.07 1518.27 Q1286.15 1513.66 1291.96 1513.66 Z" fill="#000000" fill-rule="nonzero" fill-opacity="1" /><path clip-path="url(#clip020)" d="M1735.22 1517.37 Q1731.61 1517.37 1729.78 1520.93 Q1727.97 1524.47 1727.97 1531.6 Q1727.97 1538.71 1729.78 1542.27 Q1731.61 1545.82 1735.22 1545.82 Q1738.85 1545.82 1740.66 1542.27 Q1742.49 1538.71 1742.49 1531.6 Q1742.49 1524.47 1740.66 1520.93 Q1738.85 1517.37 1735.22 1517.37 M1735.22 1513.66 Q1741.03 1513.66 1744.09 1518.27 Q1747.16 1522.85 1747.16 1531.6 Q1747.16 1540.33 1744.09 1544.94 Q1741.03 1549.52 1735.22 1549.52 Q1729.41 1549.52 1726.33 1544.94 Q1723.28 1540.33 1723.28 1531.6 Q1723.28 1522.85 1726.33 1518.27 Q1729.41 1513.66 1735.22 1513.66 Z" fill="#000000" fill-rule="nonzero" fill-opacity="1" /><path clip-path="url(#clip020)" d="M1755.38 1542.97 L1760.27 1542.97 L1760.27 1548.85 L1755.38 1548.85 L1755.38 1542.97 Z" fill="#000000" fill-rule="nonzero" fill-opacity="1" /><path clip-path="url(#clip020)" d="M1769.27 1514.29 L1791.49 1514.29 L1791.49 1516.28 L1778.95 1548.85 L1774.06 1548.85 L1785.87 1518.22 L1769.27 1518.22 L1769.27 1514.29 Z" fill="#000000" fill-rule="nonzero" fill-opacity="1" /><path clip-path="url(#clip020)" d="M1800.66 1514.29 L1819.02 1514.29 L1819.02 1518.22 L1804.94 1518.22 L1804.94 1526.7 Q1805.96 1526.35 1806.98 1526.19 Q1808 1526 1809.02 1526 Q1814.8 1526 1818.18 1529.17 Q1821.56 1532.34 1821.56 1537.76 Q1821.56 1543.34 1818.09 1546.44 Q1814.62 1549.52 1808.3 1549.52 Q1806.12 1549.52 1803.85 1549.15 Q1801.61 1548.78 1799.2 1548.04 L1799.2 1543.34 Q1801.28 1544.47 1803.51 1545.03 Q1805.73 1545.58 1808.21 1545.58 Q1812.21 1545.58 1814.55 1543.48 Q1816.89 1541.37 1816.89 1537.76 Q1816.89 1534.15 1814.55 1532.04 Q1812.21 1529.94 1808.21 1529.94 Q1806.33 1529.94 1804.46 1530.35 Q1802.6 1530.77 1800.66 1531.65 L1800.66 1514.29 Z" fill="#000000" fill-rule="nonzero" fill-opacity="1" /><path clip-path="url(#clip020)" d="M2242.65 1544.91 L2250.29 1544.91 L2250.29 1518.55 L2241.98 1520.21 L2241.98 1515.95 L2250.24 1514.29 L2254.92 1514.29 L2254.92 1544.91 L2262.56 1544.91 L2262.56 1548.85 L2242.65 1548.85 L2242.65 1544.91 Z" fill="#000000" fill-rule="nonzero" fill-opacity="1" /><path clip-path="url(#clip020)" d="M2272 1542.97 L2276.88 1542.97 L2276.88 1548.85 L2272 1548.85 L2272 1542.97 Z" fill="#000000" fill-rule="nonzero" fill-opacity="1" /><path clip-path="url(#clip020)" d="M2297.07 1517.37 Q2293.46 1517.37 2291.63 1520.93 Q2289.82 1524.47 2289.82 1531.6 Q2289.82 1538.71 2291.63 1542.27 Q2293.46 1545.82 2297.07 1545.82 Q2300.7 1545.82 2302.51 1542.27 Q2304.34 1538.71 2304.34 1531.6 Q2304.34 1524.47 2302.51 1520.93 Q2300.7 1517.37 2297.07 1517.37 M2297.07 1513.66 Q2302.88 1513.66 2305.94 1518.27 Q2309.01 1522.85 2309.01 1531.6 Q2309.01 1540.33 2305.94 1544.94 Q2302.88 1549.52 2297.07 1549.52 Q2291.26 1549.52 2288.18 1544.94 Q2285.13 1540.33 2285.13 1531.6 Q2285.13 1522.85 2288.18 1518.27 Q2291.26 1513.66 2297.07 1513.66 Z" fill="#000000" fill-rule="nonzero" fill-opacity="1" /><path clip-path="url(#clip020)" d="M2327.23 1517.37 Q2323.62 1517.37 2321.79 1520.93 Q2319.99 1524.47 2319.99 1531.6 Q2319.99 1538.71 2321.79 1542.27 Q2323.62 1545.82 2327.23 1545.82 Q2330.87 1545.82 2332.67 1542.27 Q2334.5 1538.71 2334.5 1531.6 Q2334.5 1524.47 2332.67 1520.93 Q2330.87 1517.37 2327.23 1517.37 M2327.23 1513.66 Q2333.04 1513.66 2336.1 1518.27 Q2339.18 1522.85 2339.18 1531.6 Q2339.18 1540.33 2336.1 1544.94 Q2333.04 1549.52 2327.23 1549.52 Q2321.42 1549.52 2318.34 1544.94 Q2315.29 1540.33 2315.29 1531.6 Q2315.29 1522.85 2318.34 1518.27 Q2321.42 1513.66 2327.23 1513.66 Z" fill="#000000" fill-rule="nonzero" fill-opacity="1" /><polyline clip-path="url(#clip020)" style="stroke:#000000; stroke-linecap:round; stroke-linejoin:round; stroke-width:4; stroke-opacity:1; fill:none" points="155.765,1486.45 155.765,47.2441 "/>
<polyline clip-path="url(#clip020)" style="stroke:#000000; stroke-linecap:round; stroke-linejoin:round; stroke-width:4; stroke-opacity:1; fill:none" points="155.765,1336.48 174.663,1336.48 "/>
<polyline clip-path="url(#clip020)" style="stroke:#000000; stroke-linecap:round; stroke-linejoin:round; stroke-width:4; stroke-opacity:1; fill:none" points="155.765,1075.22 174.663,1075.22 "/>
<polyline clip-path="url(#clip020)" style="stroke:#000000; stroke-linecap:round; stroke-linejoin:round; stroke-width:4; stroke-opacity:1; fill:none" points="155.765,813.954 174.663,813.954 "/>
<polyline clip-path="url(#clip020)" style="stroke:#000000; stroke-linecap:round; stroke-linejoin:round; stroke-width:4; stroke-opacity:1; fill:none" points="155.765,552.69 174.663,552.69 "/>
<polyline clip-path="url(#clip020)" style="stroke:#000000; stroke-linecap:round; stroke-linejoin:round; stroke-width:4; stroke-opacity:1; fill:none" points="155.765,291.426 174.663,291.426 "/>
<path clip-path="url(#clip020)" d="M63.5847 1322.28 Q59.9736 1322.28 58.1449 1325.84 Q56.3393 1329.39 56.3393 1336.52 Q56.3393 1343.62 58.1449 1347.19 Q59.9736 1350.73 63.5847 1350.73 Q67.2189 1350.73 69.0244 1347.19 Q70.8531 1343.62 70.8531 1336.52 Q70.8531 1329.39 69.0244 1325.84 Q67.2189 1322.28 63.5847 1322.28 M63.5847 1318.58 Q69.3948 1318.58 72.4503 1323.18 Q75.529 1327.77 75.529 1336.52 Q75.529 1345.24 72.4503 1349.85 Q69.3948 1354.43 63.5847 1354.43 Q57.7745 1354.43 54.6958 1349.85 Q51.6403 1345.24 51.6403 1336.52 Q51.6403 1327.77 54.6958 1323.18 Q57.7745 1318.58 63.5847 1318.58 Z" fill="#000000" fill-rule="nonzero" fill-opacity="1" /><path clip-path="url(#clip020)" d="M83.7466 1347.88 L88.6308 1347.88 L88.6308 1353.76 L83.7466 1353.76 L83.7466 1347.88 Z" fill="#000000" fill-rule="nonzero" fill-opacity="1" /><path clip-path="url(#clip020)" d="M98.8622 1319.2 L117.219 1319.2 L117.219 1323.14 L103.145 1323.14 L103.145 1331.61 Q104.163 1331.26 105.182 1331.1 Q106.2 1330.91 107.219 1330.91 Q113.006 1330.91 116.385 1334.09 Q119.765 1337.26 119.765 1342.67 Q119.765 1348.25 116.293 1351.35 Q112.82 1354.43 106.501 1354.43 Q104.325 1354.43 102.057 1354.06 Q99.8113 1353.69 97.4039 1352.95 L97.4039 1348.25 Q99.4872 1349.39 101.709 1349.94 Q103.932 1350.5 106.408 1350.5 Q110.413 1350.5 112.751 1348.39 Q115.089 1346.28 115.089 1342.67 Q115.089 1339.06 112.751 1336.96 Q110.413 1334.85 106.408 1334.85 Q104.534 1334.85 102.659 1335.27 Q100.807 1335.68 98.8622 1336.56 L98.8622 1319.2 Z" fill="#000000" fill-rule="nonzero" fill-opacity="1" /><path clip-path="url(#clip020)" d="M53.3995 1088.56 L61.0384 1088.56 L61.0384 1062.2 L52.7282 1063.86 L52.7282 1059.6 L60.9921 1057.94 L65.668 1057.94 L65.668 1088.56 L73.3068 1088.56 L73.3068 1092.5 L53.3995 1092.5 L53.3995 1088.56 Z" fill="#000000" fill-rule="nonzero" fill-opacity="1" /><path clip-path="url(#clip020)" d="M82.7512 1086.62 L87.6354 1086.62 L87.6354 1092.5 L82.7512 1092.5 L82.7512 1086.62 Z" fill="#000000" fill-rule="nonzero" fill-opacity="1" /><path clip-path="url(#clip020)" d="M107.821 1061.02 Q104.209 1061.02 102.381 1064.58 Q100.575 1068.12 100.575 1075.25 Q100.575 1082.36 102.381 1085.92 Q104.209 1089.46 107.821 1089.46 Q111.455 1089.46 113.26 1085.92 Q115.089 1082.36 115.089 1075.25 Q115.089 1068.12 113.26 1064.58 Q111.455 1061.02 107.821 1061.02 M107.821 1057.31 Q113.631 1057.31 116.686 1061.92 Q119.765 1066.5 119.765 1075.25 Q119.765 1083.98 116.686 1088.59 Q113.631 1093.17 107.821 1093.17 Q102.01 1093.17 98.9317 1088.59 Q95.8761 1083.98 95.8761 1075.25 Q95.8761 1066.5 98.9317 1061.92 Q102.01 1057.31 107.821 1057.31 Z" fill="#000000" fill-rule="nonzero" fill-opacity="1" /><path clip-path="url(#clip020)" d="M54.3949 827.298 L62.0337 827.298 L62.0337 800.933 L53.7236 802.599 L53.7236 798.34 L61.9874 796.674 L66.6633 796.674 L66.6633 827.298 L74.3022 827.298 L74.3022 831.234 L54.3949 831.234 L54.3949 827.298 Z" fill="#000000" fill-rule="nonzero" fill-opacity="1" /><path clip-path="url(#clip020)" d="M83.7466 825.354 L88.6308 825.354 L88.6308 831.234 L83.7466 831.234 L83.7466 825.354 Z" fill="#000000" fill-rule="nonzero" fill-opacity="1" /><path clip-path="url(#clip020)" d="M98.8622 796.674 L117.219 796.674 L117.219 800.609 L103.145 800.609 L103.145 809.081 Q104.163 808.734 105.182 808.572 Q106.2 808.386 107.219 808.386 Q113.006 808.386 116.385 811.558 Q119.765 814.729 119.765 820.146 Q119.765 825.724 116.293 828.826 Q112.82 831.905 106.501 831.905 Q104.325 831.905 102.057 831.534 Q99.8113 831.164 97.4039 830.423 L97.4039 825.724 Q99.4872 826.859 101.709 827.414 Q103.932 827.97 106.408 827.97 Q110.413 827.97 112.751 825.863 Q115.089 823.757 115.089 820.146 Q115.089 816.535 112.751 814.428 Q110.413 812.322 106.408 812.322 Q104.534 812.322 102.659 812.738 Q100.807 813.155 98.8622 814.035 L98.8622 796.674 Z" fill="#000000" fill-rule="nonzero" fill-opacity="1" /><path clip-path="url(#clip020)" d="M56.6171 566.035 L72.9365 566.035 L72.9365 569.97 L50.9921 569.97 L50.9921 566.035 Q53.6541 563.28 58.2375 558.65 Q62.8439 553.998 64.0245 552.655 Q66.2698 550.132 67.1494 548.396 Q68.0522 546.637 68.0522 544.947 Q68.0522 542.192 66.1078 540.456 Q64.1865 538.72 61.0847 538.72 Q58.8856 538.72 56.4319 539.484 Q54.0014 540.248 51.2236 541.799 L51.2236 537.076 Q54.0477 535.942 56.5014 535.363 Q58.955 534.785 60.9921 534.785 Q66.3624 534.785 69.5568 537.47 Q72.7513 540.155 72.7513 544.646 Q72.7513 546.775 71.9411 548.697 Q71.1541 550.595 69.0476 553.187 Q68.4689 553.859 65.367 557.076 Q62.2652 560.271 56.6171 566.035 Z" fill="#000000" fill-rule="nonzero" fill-opacity="1" /><path clip-path="url(#clip020)" d="M82.7512 564.09 L87.6354 564.09 L87.6354 569.97 L82.7512 569.97 L82.7512 564.09 Z" fill="#000000" fill-rule="nonzero" fill-opacity="1" /><path clip-path="url(#clip020)" d="M107.821 538.488 Q104.209 538.488 102.381 542.053 Q100.575 545.595 100.575 552.724 Q100.575 559.831 102.381 563.396 Q104.209 566.937 107.821 566.937 Q111.455 566.937 113.26 563.396 Q115.089 559.831 115.089 552.724 Q115.089 545.595 113.26 542.053 Q111.455 538.488 107.821 538.488 M107.821 534.785 Q113.631 534.785 116.686 539.391 Q119.765 543.975 119.765 552.724 Q119.765 561.451 116.686 566.058 Q113.631 570.641 107.821 570.641 Q102.01 570.641 98.9317 566.058 Q95.8761 561.451 95.8761 552.724 Q95.8761 543.975 98.9317 539.391 Q102.01 534.785 107.821 534.785 Z" fill="#000000" fill-rule="nonzero" fill-opacity="1" /><path clip-path="url(#clip020)" d="M57.6125 304.771 L73.9318 304.771 L73.9318 308.706 L51.9875 308.706 L51.9875 304.771 Q54.6495 302.016 59.2328 297.387 Q63.8393 292.734 65.0198 291.391 Q67.2652 288.868 68.1448 287.132 Q69.0476 285.373 69.0476 283.683 Q69.0476 280.928 67.1032 279.192 Q65.1819 277.456 62.08 277.456 Q59.881 277.456 57.4273 278.22 Q54.9967 278.984 52.219 280.535 L52.219 275.813 Q55.043 274.678 57.4967 274.1 Q59.9504 273.521 61.9874 273.521 Q67.3578 273.521 70.5522 276.206 Q73.7466 278.891 73.7466 283.382 Q73.7466 285.512 72.9365 287.433 Q72.1494 289.331 70.0429 291.924 Q69.4642 292.595 66.3624 295.813 Q63.2606 299.007 57.6125 304.771 Z" fill="#000000" fill-rule="nonzero" fill-opacity="1" /><path clip-path="url(#clip020)" d="M83.7466 302.826 L88.6308 302.826 L88.6308 308.706 L83.7466 308.706 L83.7466 302.826 Z" fill="#000000" fill-rule="nonzero" fill-opacity="1" /><path clip-path="url(#clip020)" d="M98.8622 274.146 L117.219 274.146 L117.219 278.081 L103.145 278.081 L103.145 286.553 Q104.163 286.206 105.182 286.044 Q106.2 285.859 107.219 285.859 Q113.006 285.859 116.385 289.03 Q119.765 292.201 119.765 297.618 Q119.765 303.197 116.293 306.299 Q112.82 309.377 106.501 309.377 Q104.325 309.377 102.057 309.007 Q99.8113 308.637 97.4039 307.896 L97.4039 303.197 Q99.4872 304.331 101.709 304.887 Q103.932 305.442 106.408 305.442 Q110.413 305.442 112.751 303.336 Q115.089 301.229 115.089 297.618 Q115.089 294.007 112.751 291.901 Q110.413 289.794 106.408 289.794 Q104.534 289.794 102.659 290.211 Q100.807 290.627 98.8622 291.507 L98.8622 274.146 Z" fill="#000000" fill-rule="nonzero" fill-opacity="1" /><polyline clip-path="url(#clip021)" style="stroke:#009af9; stroke-linecap:round; stroke-linejoin:round; stroke-width:12; stroke-opacity:1; fill:none" points="217.944,1336.48 425.207,1328.78 632.47,1303.44 839.734,1266.15 1047,1233.29 1254.26,1236.95 1461.52,1229.67 1668.79,1176.2 1876.05,1116.08 2083.31,1071.72 2290.58,989.947 "/>
<polyline clip-path="url(#clip021)" style="stroke:#000000; stroke-linecap:round; stroke-linejoin:round; stroke-width:12; stroke-opacity:1; fill:none" points="217.944,1336.48 217.944,1336.48 "/>
<polyline clip-path="url(#clip021)" style="stroke:#000000; stroke-linecap:round; stroke-linejoin:round; stroke-width:12; stroke-opacity:1; fill:none" points="425.207,1367.23 425.207,1286.48 "/>
<polyline clip-path="url(#clip021)" style="stroke:#000000; stroke-linecap:round; stroke-linejoin:round; stroke-width:12; stroke-opacity:1; fill:none" points="632.47,1384.65 632.47,1094.7 "/>
<polyline clip-path="url(#clip021)" style="stroke:#000000; stroke-linecap:round; stroke-linejoin:round; stroke-width:12; stroke-opacity:1; fill:none" points="839.734,1389.04 839.734,939.602 "/>
<polyline clip-path="url(#clip021)" style="stroke:#000000; stroke-linecap:round; stroke-linejoin:round; stroke-width:12; stroke-opacity:1; fill:none" points="1047,1377.8 1047,916.576 "/>
<polyline clip-path="url(#clip021)" style="stroke:#000000; stroke-linecap:round; stroke-linejoin:round; stroke-width:12; stroke-opacity:1; fill:none" points="1254.26,1400.94 1254.26,960.049 "/>
<polyline clip-path="url(#clip021)" style="stroke:#000000; stroke-linecap:round; stroke-linejoin:round; stroke-width:12; stroke-opacity:1; fill:none" points="1461.52,1432.21 1461.52,1010.79 "/>
<polyline clip-path="url(#clip021)" style="stroke:#000000; stroke-linecap:round; stroke-linejoin:round; stroke-width:12; stroke-opacity:1; fill:none" points="1668.79,1445.72 1668.79,1038.6 "/>
<polyline clip-path="url(#clip021)" style="stroke:#000000; stroke-linecap:round; stroke-linejoin:round; stroke-width:12; stroke-opacity:1; fill:none" points="1876.05,1443.92 1876.05,1014.29 "/>
<polyline clip-path="url(#clip021)" style="stroke:#000000; stroke-linecap:round; stroke-linejoin:round; stroke-width:12; stroke-opacity:1; fill:none" points="2083.31,1428.33 2083.31,833.811 "/>
<polyline clip-path="url(#clip021)" style="stroke:#000000; stroke-linecap:round; stroke-linejoin:round; stroke-width:12; stroke-opacity:1; fill:none" points="2290.58,1398.04 2290.58,452.262 "/>
<line clip-path="url(#clip021)" x1="233.944" y1="1336.48" x2="201.944" y2="1336.48" style="stroke:#000000; stroke-width:12; stroke-opacity:1"/>
<line clip-path="url(#clip021)" x1="233.944" y1="1336.48" x2="201.944" y2="1336.48" style="stroke:#000000; stroke-width:12; stroke-opacity:1"/>
<line clip-path="url(#clip021)" x1="441.207" y1="1367.23" x2="409.207" y2="1367.23" style="stroke:#000000; stroke-width:12; stroke-opacity:1"/>
<line clip-path="url(#clip021)" x1="441.207" y1="1286.48" x2="409.207" y2="1286.48" style="stroke:#000000; stroke-width:12; stroke-opacity:1"/>
<line clip-path="url(#clip021)" x1="648.47" y1="1384.65" x2="616.47" y2="1384.65" style="stroke:#000000; stroke-width:12; stroke-opacity:1"/>
<line clip-path="url(#clip021)" x1="648.47" y1="1094.7" x2="616.47" y2="1094.7" style="stroke:#000000; stroke-width:12; stroke-opacity:1"/>
<line clip-path="url(#clip021)" x1="855.734" y1="1389.04" x2="823.734" y2="1389.04" style="stroke:#000000; stroke-width:12; stroke-opacity:1"/>
<line clip-path="url(#clip021)" x1="855.734" y1="939.602" x2="823.734" y2="939.602" style="stroke:#000000; stroke-width:12; stroke-opacity:1"/>
<line clip-path="url(#clip021)" x1="1063" y1="1377.8" x2="1031" y2="1377.8" style="stroke:#000000; stroke-width:12; stroke-opacity:1"/>
<line clip-path="url(#clip021)" x1="1063" y1="916.576" x2="1031" y2="916.576" style="stroke:#000000; stroke-width:12; stroke-opacity:1"/>
<line clip-path="url(#clip021)" x1="1270.26" y1="1400.94" x2="1238.26" y2="1400.94" style="stroke:#000000; stroke-width:12; stroke-opacity:1"/>
<line clip-path="url(#clip021)" x1="1270.26" y1="960.049" x2="1238.26" y2="960.049" style="stroke:#000000; stroke-width:12; stroke-opacity:1"/>
<line clip-path="url(#clip021)" x1="1477.52" y1="1432.21" x2="1445.52" y2="1432.21" style="stroke:#000000; stroke-width:12; stroke-opacity:1"/>
<line clip-path="url(#clip021)" x1="1477.52" y1="1010.79" x2="1445.52" y2="1010.79" style="stroke:#000000; stroke-width:12; stroke-opacity:1"/>
<line clip-path="url(#clip021)" x1="1684.79" y1="1445.72" x2="1652.79" y2="1445.72" style="stroke:#000000; stroke-width:12; stroke-opacity:1"/>
<line clip-path="url(#clip021)" x1="1684.79" y1="1038.6" x2="1652.79" y2="1038.6" style="stroke:#000000; stroke-width:12; stroke-opacity:1"/>
<line clip-path="url(#clip021)" x1="1892.05" y1="1443.92" x2="1860.05" y2="1443.92" style="stroke:#000000; stroke-width:12; stroke-opacity:1"/>
<line clip-path="url(#clip021)" x1="1892.05" y1="1014.29" x2="1860.05" y2="1014.29" style="stroke:#000000; stroke-width:12; stroke-opacity:1"/>
<line clip-path="url(#clip021)" x1="2099.31" y1="1428.33" x2="2067.31" y2="1428.33" style="stroke:#000000; stroke-width:12; stroke-opacity:1"/>
<line clip-path="url(#clip021)" x1="2099.31" y1="833.811" x2="2067.31" y2="833.811" style="stroke:#000000; stroke-width:12; stroke-opacity:1"/>
<line clip-path="url(#clip021)" x1="2306.58" y1="1398.04" x2="2274.58" y2="1398.04" style="stroke:#000000; stroke-width:12; stroke-opacity:1"/>
<line clip-path="url(#clip021)" x1="2306.58" y1="452.262" x2="2274.58" y2="452.262" style="stroke:#000000; stroke-width:12; stroke-opacity:1"/>
<polyline clip-path="url(#clip021)" style="stroke:#e26f46; stroke-linecap:round; stroke-linejoin:round; stroke-width:12; stroke-opacity:1; fill:none" points="217.944,1336.48 425.207,1291.8 632.47,1233.22 839.734,1168.31 1047,1129.27 1254.26,1140.33 1461.52,1138.51 1668.79,1076.01 1876.05,953.089 2083.31,798.724 2290.58,756.018 "/>
<polyline clip-path="url(#clip021)" style="stroke:#000000; stroke-linecap:round; stroke-linejoin:round; stroke-width:12; stroke-opacity:1; fill:none" points="217.944,1336.48 217.944,1336.48 "/>
<polyline clip-path="url(#clip021)" style="stroke:#000000; stroke-linecap:round; stroke-linejoin:round; stroke-width:12; stroke-opacity:1; fill:none" points="425.207,1385.94 425.207,1172.52 "/>
<polyline clip-path="url(#clip021)" style="stroke:#000000; stroke-linecap:round; stroke-linejoin:round; stroke-width:12; stroke-opacity:1; fill:none" points="632.47,1421.09 632.47,1071.88 "/>
<polyline clip-path="url(#clip021)" style="stroke:#000000; stroke-linecap:round; stroke-linejoin:round; stroke-width:12; stroke-opacity:1; fill:none" points="839.734,1442.19 839.734,1032.87 "/>
<polyline clip-path="url(#clip021)" style="stroke:#000000; stroke-linecap:round; stroke-linejoin:round; stroke-width:12; stroke-opacity:1; fill:none" points="1047,1434.75 1047,942.184 "/>
<polyline clip-path="url(#clip021)" style="stroke:#000000; stroke-linecap:round; stroke-linejoin:round; stroke-width:12; stroke-opacity:1; fill:none" points="1254.26,1369.5 1254.26,733.092 "/>
<polyline clip-path="url(#clip021)" style="stroke:#000000; stroke-linecap:round; stroke-linejoin:round; stroke-width:12; stroke-opacity:1; fill:none" points="1461.52,1395.25 1461.52,863.116 "/>
<polyline clip-path="url(#clip021)" style="stroke:#000000; stroke-linecap:round; stroke-linejoin:round; stroke-width:12; stroke-opacity:1; fill:none" points="1668.79,1358.6 1668.79,658.418 "/>
<polyline clip-path="url(#clip021)" style="stroke:#000000; stroke-linecap:round; stroke-linejoin:round; stroke-width:12; stroke-opacity:1; fill:none" points="1876.05,1376.78 1876.05,439.911 "/>
<polyline clip-path="url(#clip021)" style="stroke:#000000; stroke-linecap:round; stroke-linejoin:round; stroke-width:12; stroke-opacity:1; fill:none" points="2083.31,1345.15 2083.31,309.948 "/>
<polyline clip-path="url(#clip021)" style="stroke:#000000; stroke-linecap:round; stroke-linejoin:round; stroke-width:12; stroke-opacity:1; fill:none" points="2290.58,1291.48 2290.58,87.9763 "/>
<line clip-path="url(#clip021)" x1="233.944" y1="1336.48" x2="201.944" y2="1336.48" style="stroke:#000000; stroke-width:12; stroke-opacity:1"/>
<line clip-path="url(#clip021)" x1="233.944" y1="1336.48" x2="201.944" y2="1336.48" style="stroke:#000000; stroke-width:12; stroke-opacity:1"/>
<line clip-path="url(#clip021)" x1="441.207" y1="1385.94" x2="409.207" y2="1385.94" style="stroke:#000000; stroke-width:12; stroke-opacity:1"/>
<line clip-path="url(#clip021)" x1="441.207" y1="1172.52" x2="409.207" y2="1172.52" style="stroke:#000000; stroke-width:12; stroke-opacity:1"/>
<line clip-path="url(#clip021)" x1="648.47" y1="1421.09" x2="616.47" y2="1421.09" style="stroke:#000000; stroke-width:12; stroke-opacity:1"/>
<line clip-path="url(#clip021)" x1="648.47" y1="1071.88" x2="616.47" y2="1071.88" style="stroke:#000000; stroke-width:12; stroke-opacity:1"/>
<line clip-path="url(#clip021)" x1="855.734" y1="1442.19" x2="823.734" y2="1442.19" style="stroke:#000000; stroke-width:12; stroke-opacity:1"/>
<line clip-path="url(#clip021)" x1="855.734" y1="1032.87" x2="823.734" y2="1032.87" style="stroke:#000000; stroke-width:12; stroke-opacity:1"/>
<line clip-path="url(#clip021)" x1="1063" y1="1434.75" x2="1031" y2="1434.75" style="stroke:#000000; stroke-width:12; stroke-opacity:1"/>
<line clip-path="url(#clip021)" x1="1063" y1="942.184" x2="1031" y2="942.184" style="stroke:#000000; stroke-width:12; stroke-opacity:1"/>
<line clip-path="url(#clip021)" x1="1270.26" y1="1369.5" x2="1238.26" y2="1369.5" style="stroke:#000000; stroke-width:12; stroke-opacity:1"/>
<line clip-path="url(#clip021)" x1="1270.26" y1="733.092" x2="1238.26" y2="733.092" style="stroke:#000000; stroke-width:12; stroke-opacity:1"/>
<line clip-path="url(#clip021)" x1="1477.52" y1="1395.25" x2="1445.52" y2="1395.25" style="stroke:#000000; stroke-width:12; stroke-opacity:1"/>
<line clip-path="url(#clip021)" x1="1477.52" y1="863.116" x2="1445.52" y2="863.116" style="stroke:#000000; stroke-width:12; stroke-opacity:1"/>
<line clip-path="url(#clip021)" x1="1684.79" y1="1358.6" x2="1652.79" y2="1358.6" style="stroke:#000000; stroke-width:12; stroke-opacity:1"/>
<line clip-path="url(#clip021)" x1="1684.79" y1="658.418" x2="1652.79" y2="658.418" style="stroke:#000000; stroke-width:12; stroke-opacity:1"/>
<line clip-path="url(#clip021)" x1="1892.05" y1="1376.78" x2="1860.05" y2="1376.78" style="stroke:#000000; stroke-width:12; stroke-opacity:1"/>
<line clip-path="url(#clip021)" x1="1892.05" y1="439.911" x2="1860.05" y2="439.911" style="stroke:#000000; stroke-width:12; stroke-opacity:1"/>
<line clip-path="url(#clip021)" x1="2099.31" y1="1345.15" x2="2067.31" y2="1345.15" style="stroke:#000000; stroke-width:12; stroke-opacity:1"/>
<line clip-path="url(#clip021)" x1="2099.31" y1="309.948" x2="2067.31" y2="309.948" style="stroke:#000000; stroke-width:12; stroke-opacity:1"/>
<line clip-path="url(#clip021)" x1="2306.58" y1="1291.48" x2="2274.58" y2="1291.48" style="stroke:#000000; stroke-width:12; stroke-opacity:1"/>
<line clip-path="url(#clip021)" x1="2306.58" y1="87.9763" x2="2274.58" y2="87.9763" style="stroke:#000000; stroke-width:12; stroke-opacity:1"/>
</svg>
