<?xml version="1.0" encoding="utf-8"?>
<svg xmlns="http://www.w3.org/2000/svg" xmlns:xlink="http://www.w3.org/1999/xlink" width="600" height="400" viewBox="0 0 2400 1600">
<defs>
  <clipPath id="clip050">
    <rect x="0" y="0" width="2400" height="1600"/>
  </clipPath>
</defs>
<path clip-path="url(#clip050)" d="M0 1600 L2400 1600 L2400 0 L0 0  Z" fill="#ffffff" fill-rule="evenodd" fill-opacity="1"/>
<defs>
  <clipPath id="clip051">
    <rect x="186" y="47" width="2167" height="1440"/>
  </clipPath>
</defs>
<path clip-path="url(#clip050)" d="M186.274 1486.45 L2352.76 1486.45 L2352.76 47.2441 L186.274 47.2441  Z" fill="#ffffff" fill-rule="evenodd" fill-opacity="1"/>
<polyline clip-path="url(#clip051)" style="stroke:#000000; stroke-linecap:round; stroke-linejoin:round; stroke-width:2; stroke-opacity:0.1; fill:none" points="247.59,1486.45 247.59,47.2441 "/>
<polyline clip-path="url(#clip051)" style="stroke:#000000; stroke-linecap:round; stroke-linejoin:round; stroke-width:2; stroke-opacity:0.1; fill:none" points="758.552,1486.45 758.552,47.2441 "/>
<polyline clip-path="url(#clip051)" style="stroke:#000000; stroke-linecap:round; stroke-linejoin:round; stroke-width:2; stroke-opacity:0.1; fill:none" points="1269.51,1486.45 1269.51,47.2441 "/>
<polyline clip-path="url(#clip051)" style="stroke:#000000; stroke-linecap:round; stroke-linejoin:round; stroke-width:2; stroke-opacity:0.1; fill:none" points="1780.48,1486.45 1780.48,47.2441 "/>
<polyline clip-path="url(#clip051)" style="stroke:#000000; stroke-linecap:round; stroke-linejoin:round; stroke-width:2; stroke-opacity:0.1; fill:none" points="2291.44,1486.45 2291.44,47.2441 "/>
<polyline clip-path="url(#clip051)" style="stroke:#000000; stroke-linecap:round; stroke-linejoin:round; stroke-width:2; stroke-opacity:0.1; fill:none" points="186.274,1382.32 2352.76,1382.32 "/>
<polyline clip-path="url(#clip051)" style="stroke:#000000; stroke-linecap:round; stroke-linejoin:round; stroke-width:2; stroke-opacity:0.1; fill:none" points="186.274,1091.03 2352.76,1091.03 "/>
<polyline clip-path="url(#clip051)" style="stroke:#000000; stroke-linecap:round; stroke-linejoin:round; stroke-width:2; stroke-opacity:0.1; fill:none" points="186.274,799.744 2352.76,799.744 "/>
<polyline clip-path="url(#clip051)" style="stroke:#000000; stroke-linecap:round; stroke-linejoin:round; stroke-width:2; stroke-opacity:0.1; fill:none" points="186.274,508.454 2352.76,508.454 "/>
<polyline clip-path="url(#clip051)" style="stroke:#000000; stroke-linecap:round; stroke-linejoin:round; stroke-width:2; stroke-opacity:0.1; fill:none" points="186.274,217.164 2352.76,217.164 "/>
<polyline clip-path="url(#clip050)" style="stroke:#000000; stroke-linecap:round; stroke-linejoin:round; stroke-width:4; stroke-opacity:1; fill:none" points="186.274,1486.45 2352.76,1486.45 "/>
<polyline clip-path="url(#clip050)" style="stroke:#000000; stroke-linecap:round; stroke-linejoin:round; stroke-width:4; stroke-opacity:1; fill:none" points="247.59,1486.45 247.59,1467.55 "/>
<polyline clip-path="url(#clip050)" style="stroke:#000000; stroke-linecap:round; stroke-linejoin:round; stroke-width:4; stroke-opacity:1; fill:none" points="758.552,1486.45 758.552,1467.55 "/>
<polyline clip-path="url(#clip050)" style="stroke:#000000; stroke-linecap:round; stroke-linejoin:round; stroke-width:4; stroke-opacity:1; fill:none" points="1269.51,1486.45 1269.51,1467.55 "/>
<polyline clip-path="url(#clip050)" style="stroke:#000000; stroke-linecap:round; stroke-linejoin:round; stroke-width:4; stroke-opacity:1; fill:none" points="1780.48,1486.45 1780.48,1467.55 "/>
<polyline clip-path="url(#clip050)" style="stroke:#000000; stroke-linecap:round; stroke-linejoin:round; stroke-width:4; stroke-opacity:1; fill:none" points="2291.44,1486.45 2291.44,1467.55 "/>
<path clip-path="url(#clip050)" d="M209.893 1517.37 Q206.282 1517.37 204.453 1520.93 Q202.648 1524.47 202.648 1531.6 Q202.648 1538.71 204.453 1542.27 Q206.282 1545.82 209.893 1545.82 Q213.527 1545.82 215.333 1542.27 Q217.161 1538.71 217.161 1531.6 Q217.161 1524.47 215.333 1520.93 Q213.527 1517.37 209.893 1517.37 M209.893 1513.66 Q215.703 1513.66 218.759 1518.27 Q221.837 1522.85 221.837 1531.6 Q221.837 1540.33 218.759 1544.94 Q215.703 1549.52 209.893 1549.52 Q204.083 1549.52 201.004 1544.94 Q197.949 1540.33 197.949 1531.6 Q197.949 1522.85 201.004 1518.27 Q204.083 1513.66 209.893 1513.66 Z" fill="#000000" fill-rule="nonzero" fill-opacity="1" /><path clip-path="url(#clip050)" d="M230.055 1542.97 L234.939 1542.97 L234.939 1548.85 L230.055 1548.85 L230.055 1542.97 Z" fill="#000000" fill-rule="nonzero" fill-opacity="1" /><path clip-path="url(#clip050)" d="M255.124 1517.37 Q251.513 1517.37 249.684 1520.93 Q247.879 1524.47 247.879 1531.6 Q247.879 1538.71 249.684 1542.27 Q251.513 1545.82 255.124 1545.82 Q258.758 1545.82 260.564 1542.27 Q262.393 1538.71 262.393 1531.6 Q262.393 1524.47 260.564 1520.93 Q258.758 1517.37 255.124 1517.37 M255.124 1513.66 Q260.934 1513.66 263.99 1518.27 Q267.069 1522.85 267.069 1531.6 Q267.069 1540.33 263.99 1544.94 Q260.934 1549.52 255.124 1549.52 Q249.314 1549.52 246.235 1544.94 Q243.18 1540.33 243.18 1531.6 Q243.18 1522.85 246.235 1518.27 Q249.314 1513.66 255.124 1513.66 Z" fill="#000000" fill-rule="nonzero" fill-opacity="1" /><path clip-path="url(#clip050)" d="M285.286 1517.37 Q281.675 1517.37 279.846 1520.93 Q278.041 1524.47 278.041 1531.6 Q278.041 1538.71 279.846 1542.27 Q281.675 1545.82 285.286 1545.82 Q288.92 1545.82 290.726 1542.27 Q292.555 1538.71 292.555 1531.6 Q292.555 1524.47 290.726 1520.93 Q288.92 1517.37 285.286 1517.37 M285.286 1513.66 Q291.096 1513.66 294.152 1518.27 Q297.23 1522.85 297.23 1531.6 Q297.23 1540.33 294.152 1544.94 Q291.096 1549.52 285.286 1549.52 Q279.476 1549.52 276.397 1544.94 Q273.342 1540.33 273.342 1531.6 Q273.342 1522.85 276.397 1518.27 Q279.476 1513.66 285.286 1513.66 Z" fill="#000000" fill-rule="nonzero" fill-opacity="1" /><path clip-path="url(#clip050)" d="M721.353 1517.37 Q717.742 1517.37 715.914 1520.93 Q714.108 1524.47 714.108 1531.6 Q714.108 1538.71 715.914 1542.27 Q717.742 1545.82 721.353 1545.82 Q724.988 1545.82 726.793 1542.27 Q728.622 1538.71 728.622 1531.6 Q728.622 1524.47 726.793 1520.93 Q724.988 1517.37 721.353 1517.37 M721.353 1513.66 Q727.164 1513.66 730.219 1518.27 Q733.298 1522.85 733.298 1531.6 Q733.298 1540.33 730.219 1544.94 Q727.164 1549.52 721.353 1549.52 Q715.543 1549.52 712.465 1544.94 Q709.409 1540.33 709.409 1531.6 Q709.409 1522.85 712.465 1518.27 Q715.543 1513.66 721.353 1513.66 Z" fill="#000000" fill-rule="nonzero" fill-opacity="1" /><path clip-path="url(#clip050)" d="M741.515 1542.97 L746.4 1542.97 L746.4 1548.85 L741.515 1548.85 L741.515 1542.97 Z" fill="#000000" fill-rule="nonzero" fill-opacity="1" /><path clip-path="url(#clip050)" d="M760.612 1544.91 L776.932 1544.91 L776.932 1548.85 L754.987 1548.85 L754.987 1544.91 Q757.649 1542.16 762.233 1537.53 Q766.839 1532.88 768.02 1531.53 Q770.265 1529.01 771.145 1527.27 Q772.048 1525.51 772.048 1523.82 Q772.048 1521.07 770.103 1519.33 Q768.182 1517.6 765.08 1517.6 Q762.881 1517.6 760.427 1518.36 Q757.997 1519.13 755.219 1520.68 L755.219 1515.95 Q758.043 1514.82 760.497 1514.24 Q762.95 1513.66 764.987 1513.66 Q770.358 1513.66 773.552 1516.35 Q776.747 1519.03 776.747 1523.52 Q776.747 1525.65 775.936 1527.57 Q775.149 1529.47 773.043 1532.07 Q772.464 1532.74 769.362 1535.95 Q766.261 1539.15 760.612 1544.91 Z" fill="#000000" fill-rule="nonzero" fill-opacity="1" /><path clip-path="url(#clip050)" d="M786.793 1514.29 L805.149 1514.29 L805.149 1518.22 L791.075 1518.22 L791.075 1526.7 Q792.094 1526.35 793.112 1526.19 Q794.131 1526 795.149 1526 Q800.936 1526 804.316 1529.17 Q807.695 1532.34 807.695 1537.76 Q807.695 1543.34 804.223 1546.44 Q800.751 1549.52 794.432 1549.52 Q792.256 1549.52 789.987 1549.15 Q787.742 1548.78 785.335 1548.04 L785.335 1543.34 Q787.418 1544.47 789.64 1545.03 Q791.862 1545.58 794.339 1545.58 Q798.344 1545.58 800.682 1543.48 Q803.02 1541.37 803.02 1537.76 Q803.02 1534.15 800.682 1532.04 Q798.344 1529.94 794.339 1529.94 Q792.464 1529.94 790.589 1530.35 Q788.737 1530.77 786.793 1531.65 L786.793 1514.29 Z" fill="#000000" fill-rule="nonzero" fill-opacity="1" /><path clip-path="url(#clip050)" d="M1231.82 1517.37 Q1228.21 1517.37 1226.38 1520.93 Q1224.57 1524.47 1224.57 1531.6 Q1224.57 1538.71 1226.38 1542.27 Q1228.21 1545.82 1231.82 1545.82 Q1235.45 1545.82 1237.26 1542.27 Q1239.09 1538.71 1239.09 1531.6 Q1239.09 1524.47 1237.26 1520.93 Q1235.45 1517.37 1231.82 1517.37 M1231.82 1513.66 Q1237.63 1513.66 1240.68 1518.27 Q1243.76 1522.85 1243.76 1531.6 Q1243.76 1540.33 1240.68 1544.94 Q1237.63 1549.52 1231.82 1549.52 Q1226.01 1549.52 1222.93 1544.94 Q1219.87 1540.33 1219.87 1531.6 Q1219.87 1522.85 1222.93 1518.27 Q1226.01 1513.66 1231.82 1513.66 Z" fill="#000000" fill-rule="nonzero" fill-opacity="1" /><path clip-path="url(#clip050)" d="M1251.98 1542.97 L1256.86 1542.97 L1256.86 1548.85 L1251.98 1548.85 L1251.98 1542.97 Z" fill="#000000" fill-rule="nonzero" fill-opacity="1" /><path clip-path="url(#clip050)" d="M1267.1 1514.29 L1285.45 1514.29 L1285.45 1518.22 L1271.38 1518.22 L1271.38 1526.7 Q1272.4 1526.35 1273.42 1526.19 Q1274.43 1526 1275.45 1526 Q1281.24 1526 1284.62 1529.17 Q1288 1532.34 1288 1537.76 Q1288 1543.34 1284.53 1546.44 Q1281.05 1549.52 1274.73 1549.52 Q1272.56 1549.52 1270.29 1549.15 Q1268.05 1548.78 1265.64 1548.04 L1265.64 1543.34 Q1267.72 1544.47 1269.94 1545.03 Q1272.17 1545.58 1274.64 1545.58 Q1278.65 1545.58 1280.98 1543.48 Q1283.32 1541.37 1283.32 1537.76 Q1283.32 1534.15 1280.98 1532.04 Q1278.65 1529.94 1274.64 1529.94 Q1272.77 1529.94 1270.89 1530.35 Q1269.04 1530.77 1267.1 1531.65 L1267.1 1514.29 Z" fill="#000000" fill-rule="nonzero" fill-opacity="1" /><path clip-path="url(#clip050)" d="M1307.21 1517.37 Q1303.6 1517.37 1301.77 1520.93 Q1299.97 1524.47 1299.97 1531.6 Q1299.97 1538.71 1301.77 1542.27 Q1303.6 1545.82 1307.21 1545.82 Q1310.85 1545.82 1312.65 1542.27 Q1314.48 1538.71 1314.48 1531.6 Q1314.48 1524.47 1312.65 1520.93 Q1310.85 1517.37 1307.21 1517.37 M1307.21 1513.66 Q1313.02 1513.66 1316.08 1518.27 Q1319.16 1522.85 1319.16 1531.6 Q1319.16 1540.33 1316.08 1544.94 Q1313.02 1549.52 1307.21 1549.52 Q1301.4 1549.52 1298.32 1544.94 Q1295.27 1540.33 1295.27 1531.6 Q1295.27 1522.85 1298.32 1518.27 Q1301.4 1513.66 1307.21 1513.66 Z" fill="#000000" fill-rule="nonzero" fill-opacity="1" /><path clip-path="url(#clip050)" d="M1743.28 1517.37 Q1739.67 1517.37 1737.84 1520.93 Q1736.03 1524.47 1736.03 1531.6 Q1736.03 1538.71 1737.84 1542.27 Q1739.67 1545.82 1743.28 1545.82 Q1746.91 1545.82 1748.72 1542.27 Q1750.55 1538.71 1750.55 1531.6 Q1750.55 1524.47 1748.72 1520.93 Q1746.91 1517.37 1743.28 1517.37 M1743.28 1513.66 Q1749.09 1513.66 1752.14 1518.27 Q1755.22 1522.85 1755.22 1531.6 Q1755.22 1540.33 1752.14 1544.94 Q1749.09 1549.52 1743.28 1549.52 Q1737.47 1549.52 1734.39 1544.94 Q1731.33 1540.33 1731.33 1531.6 Q1731.33 1522.85 1734.39 1518.27 Q1737.47 1513.66 1743.28 1513.66 Z" fill="#000000" fill-rule="nonzero" fill-opacity="1" /><path clip-path="url(#clip050)" d="M1763.44 1542.97 L1768.32 1542.97 L1768.32 1548.85 L1763.44 1548.85 L1763.44 1542.97 Z" fill="#000000" fill-rule="nonzero" fill-opacity="1" /><path clip-path="url(#clip050)" d="M1777.33 1514.29 L1799.55 1514.29 L1799.55 1516.28 L1787.01 1548.85 L1782.12 1548.85 L1793.93 1518.22 L1777.33 1518.22 L1777.33 1514.29 Z" fill="#000000" fill-rule="nonzero" fill-opacity="1" /><path clip-path="url(#clip050)" d="M1808.72 1514.29 L1827.07 1514.29 L1827.07 1518.22 L1813 1518.22 L1813 1526.7 Q1814.02 1526.35 1815.04 1526.19 Q1816.06 1526 1817.07 1526 Q1822.86 1526 1826.24 1529.17 Q1829.62 1532.34 1829.62 1537.76 Q1829.62 1543.34 1826.15 1546.44 Q1822.68 1549.52 1816.36 1549.52 Q1814.18 1549.52 1811.91 1549.15 Q1809.67 1548.78 1807.26 1548.04 L1807.26 1543.34 Q1809.34 1544.47 1811.57 1545.03 Q1813.79 1545.58 1816.26 1545.58 Q1820.27 1545.58 1822.61 1543.48 Q1824.95 1541.37 1824.95 1537.76 Q1824.95 1534.15 1822.61 1532.04 Q1820.27 1529.94 1816.26 1529.94 Q1814.39 1529.94 1812.51 1530.35 Q1810.66 1530.77 1808.72 1531.65 L1808.72 1514.29 Z" fill="#000000" fill-rule="nonzero" fill-opacity="1" /><path clip-path="url(#clip050)" d="M2243.51 1544.91 L2251.15 1544.91 L2251.15 1518.55 L2242.84 1520.21 L2242.84 1515.95 L2251.1 1514.29 L2255.78 1514.29 L2255.78 1544.91 L2263.42 1544.91 L2263.42 1548.85 L2243.51 1548.85 L2243.51 1544.91 Z" fill="#000000" fill-rule="nonzero" fill-opacity="1" /><path clip-path="url(#clip050)" d="M2272.86 1542.97 L2277.75 1542.97 L2277.75 1548.85 L2272.86 1548.85 L2272.86 1542.97 Z" fill="#000000" fill-rule="nonzero" fill-opacity="1" /><path clip-path="url(#clip050)" d="M2297.93 1517.37 Q2294.32 1517.37 2292.49 1520.93 Q2290.69 1524.47 2290.69 1531.6 Q2290.69 1538.71 2292.49 1542.27 Q2294.32 1545.82 2297.93 1545.82 Q2301.57 1545.82 2303.37 1542.27 Q2305.2 1538.71 2305.2 1531.6 Q2305.2 1524.47 2303.37 1520.93 Q2301.57 1517.37 2297.93 1517.37 M2297.93 1513.66 Q2303.74 1513.66 2306.8 1518.27 Q2309.88 1522.85 2309.88 1531.6 Q2309.88 1540.33 2306.8 1544.94 Q2303.74 1549.52 2297.93 1549.52 Q2292.12 1549.52 2289.04 1544.94 Q2285.99 1540.33 2285.99 1531.6 Q2285.99 1522.85 2289.04 1518.27 Q2292.12 1513.66 2297.93 1513.66 Z" fill="#000000" fill-rule="nonzero" fill-opacity="1" /><path clip-path="url(#clip050)" d="M2328.1 1517.37 Q2324.48 1517.37 2322.66 1520.93 Q2320.85 1524.47 2320.85 1531.6 Q2320.85 1538.71 2322.66 1542.27 Q2324.48 1545.82 2328.1 1545.82 Q2331.73 1545.82 2333.54 1542.27 Q2335.36 1538.71 2335.36 1531.6 Q2335.36 1524.47 2333.54 1520.93 Q2331.73 1517.37 2328.1 1517.37 M2328.1 1513.66 Q2333.91 1513.66 2336.96 1518.27 Q2340.04 1522.85 2340.04 1531.6 Q2340.04 1540.33 2336.96 1544.94 Q2333.91 1549.52 2328.1 1549.52 Q2322.29 1549.52 2319.21 1544.94 Q2316.15 1540.33 2316.15 1531.6 Q2316.15 1522.85 2319.21 1518.27 Q2322.29 1513.66 2328.1 1513.66 Z" fill="#000000" fill-rule="nonzero" fill-opacity="1" /><polyline clip-path="url(#clip050)" style="stroke:#000000; stroke-linecap:round; stroke-linejoin:round; stroke-width:4; stroke-opacity:1; fill:none" points="186.274,1486.45 186.274,47.2441 "/>
<polyline clip-path="url(#clip050)" style="stroke:#000000; stroke-linecap:round; stroke-linejoin:round; stroke-width:4; stroke-opacity:1; fill:none" points="186.274,1382.32 205.172,1382.32 "/>
<polyline clip-path="url(#clip050)" style="stroke:#000000; stroke-linecap:round; stroke-linejoin:round; stroke-width:4; stroke-opacity:1; fill:none" points="186.274,1091.03 205.172,1091.03 "/>
<polyline clip-path="url(#clip050)" style="stroke:#000000; stroke-linecap:round; stroke-linejoin:round; stroke-width:4; stroke-opacity:1; fill:none" points="186.274,799.744 205.172,799.744 "/>
<polyline clip-path="url(#clip050)" style="stroke:#000000; stroke-linecap:round; stroke-linejoin:round; stroke-width:4; stroke-opacity:1; fill:none" points="186.274,508.454 205.172,508.454 "/>
<polyline clip-path="url(#clip050)" style="stroke:#000000; stroke-linecap:round; stroke-linejoin:round; stroke-width:4; stroke-opacity:1; fill:none" points="186.274,217.164 205.172,217.164 "/>
<path clip-path="url(#clip050)" d="M62.9365 1368.12 Q59.3254 1368.12 57.4967 1371.69 Q55.6912 1375.23 55.6912 1382.36 Q55.6912 1389.46 57.4967 1393.03 Q59.3254 1396.57 62.9365 1396.57 Q66.5707 1396.57 68.3763 1393.03 Q70.205 1389.46 70.205 1382.36 Q70.205 1375.23 68.3763 1371.69 Q66.5707 1368.12 62.9365 1368.12 M62.9365 1364.42 Q68.7467 1364.42 71.8022 1369.02 Q74.8809 1373.61 74.8809 1382.36 Q74.8809 1391.08 71.8022 1395.69 Q68.7467 1400.27 62.9365 1400.27 Q57.1264 1400.27 54.0477 1395.69 Q50.9921 1391.08 50.9921 1382.36 Q50.9921 1373.61 54.0477 1369.02 Q57.1264 1364.42 62.9365 1364.42 Z" fill="#000000" fill-rule="nonzero" fill-opacity="1" /><path clip-path="url(#clip050)" d="M83.0984 1393.72 L87.9827 1393.72 L87.9827 1399.6 L83.0984 1399.6 L83.0984 1393.72 Z" fill="#000000" fill-rule="nonzero" fill-opacity="1" /><path clip-path="url(#clip050)" d="M98.2141 1365.04 L116.57 1365.04 L116.57 1368.98 L102.496 1368.98 L102.496 1377.45 Q103.515 1377.1 104.534 1376.94 Q105.552 1376.76 106.571 1376.76 Q112.358 1376.76 115.737 1379.93 Q119.117 1383.1 119.117 1388.52 Q119.117 1394.09 115.645 1397.2 Q112.172 1400.27 105.853 1400.27 Q103.677 1400.27 101.409 1399.9 Q99.1632 1399.53 96.7558 1398.79 L96.7558 1394.09 Q98.8391 1395.23 101.061 1395.78 Q103.284 1396.34 105.76 1396.34 Q109.765 1396.34 112.103 1394.23 Q114.441 1392.13 114.441 1388.52 Q114.441 1384.9 112.103 1382.8 Q109.765 1380.69 105.76 1380.69 Q103.885 1380.69 102.01 1381.11 Q100.159 1381.52 98.2141 1382.4 L98.2141 1365.04 Z" fill="#000000" fill-rule="nonzero" fill-opacity="1" /><path clip-path="url(#clip050)" d="M138.33 1368.12 Q134.719 1368.12 132.89 1371.69 Q131.084 1375.23 131.084 1382.36 Q131.084 1389.46 132.89 1393.03 Q134.719 1396.57 138.33 1396.57 Q141.964 1396.57 143.769 1393.03 Q145.598 1389.46 145.598 1382.36 Q145.598 1375.23 143.769 1371.69 Q141.964 1368.12 138.33 1368.12 M138.33 1364.42 Q144.14 1364.42 147.195 1369.02 Q150.274 1373.61 150.274 1382.36 Q150.274 1391.08 147.195 1395.69 Q144.14 1400.27 138.33 1400.27 Q132.519 1400.27 129.441 1395.69 Q126.385 1391.08 126.385 1382.36 Q126.385 1373.61 129.441 1369.02 Q132.519 1364.42 138.33 1364.42 Z" fill="#000000" fill-rule="nonzero" fill-opacity="1" /><path clip-path="url(#clip050)" d="M63.9319 1076.83 Q60.3208 1076.83 58.4921 1080.4 Q56.6865 1083.94 56.6865 1091.07 Q56.6865 1098.17 58.4921 1101.74 Q60.3208 1105.28 63.9319 1105.28 Q67.5661 1105.28 69.3717 1101.74 Q71.2004 1098.17 71.2004 1091.07 Q71.2004 1083.94 69.3717 1080.4 Q67.5661 1076.83 63.9319 1076.83 M63.9319 1073.13 Q69.742 1073.13 72.7976 1077.74 Q75.8763 1082.32 75.8763 1091.07 Q75.8763 1099.8 72.7976 1104.4 Q69.742 1108.98 63.9319 1108.98 Q58.1217 1108.98 55.043 1104.4 Q51.9875 1099.8 51.9875 1091.07 Q51.9875 1082.32 55.043 1077.74 Q58.1217 1073.13 63.9319 1073.13 Z" fill="#000000" fill-rule="nonzero" fill-opacity="1" /><path clip-path="url(#clip050)" d="M84.0938 1102.43 L88.978 1102.43 L88.978 1108.31 L84.0938 1108.31 L84.0938 1102.43 Z" fill="#000000" fill-rule="nonzero" fill-opacity="1" /><path clip-path="url(#clip050)" d="M97.9826 1073.75 L120.205 1073.75 L120.205 1075.74 L107.658 1108.31 L102.774 1108.31 L114.58 1077.69 L97.9826 1077.69 L97.9826 1073.75 Z" fill="#000000" fill-rule="nonzero" fill-opacity="1" /><path clip-path="url(#clip050)" d="M129.371 1073.75 L147.728 1073.75 L147.728 1077.69 L133.654 1077.69 L133.654 1086.16 Q134.672 1085.81 135.691 1085.65 Q136.709 1085.47 137.728 1085.47 Q143.515 1085.47 146.894 1088.64 Q150.274 1091.81 150.274 1097.23 Q150.274 1102.8 146.802 1105.91 Q143.33 1108.98 137.01 1108.98 Q134.834 1108.98 132.566 1108.61 Q130.32 1108.24 127.913 1107.5 L127.913 1102.8 Q129.996 1103.94 132.219 1104.49 Q134.441 1105.05 136.918 1105.05 Q140.922 1105.05 143.26 1102.94 Q145.598 1100.84 145.598 1097.23 Q145.598 1093.61 143.26 1091.51 Q140.922 1089.4 136.918 1089.4 Q135.043 1089.4 133.168 1089.82 Q131.316 1090.24 129.371 1091.11 L129.371 1073.75 Z" fill="#000000" fill-rule="nonzero" fill-opacity="1" /><path clip-path="url(#clip050)" d="M53.7467 813.089 L61.3856 813.089 L61.3856 786.723 L53.0754 788.39 L53.0754 784.131 L61.3393 782.464 L66.0152 782.464 L66.0152 813.089 L73.654 813.089 L73.654 817.024 L53.7467 817.024 L53.7467 813.089 Z" fill="#000000" fill-rule="nonzero" fill-opacity="1" /><path clip-path="url(#clip050)" d="M83.0984 811.144 L87.9827 811.144 L87.9827 817.024 L83.0984 817.024 L83.0984 811.144 Z" fill="#000000" fill-rule="nonzero" fill-opacity="1" /><path clip-path="url(#clip050)" d="M108.168 785.543 Q104.557 785.543 102.728 789.107 Q100.922 792.649 100.922 799.779 Q100.922 806.885 102.728 810.45 Q104.557 813.992 108.168 813.992 Q111.802 813.992 113.608 810.45 Q115.436 806.885 115.436 799.779 Q115.436 792.649 113.608 789.107 Q111.802 785.543 108.168 785.543 M108.168 781.839 Q113.978 781.839 117.033 786.445 Q120.112 791.029 120.112 799.779 Q120.112 808.505 117.033 813.112 Q113.978 817.695 108.168 817.695 Q102.358 817.695 99.2789 813.112 Q96.2234 808.505 96.2234 799.779 Q96.2234 791.029 99.2789 786.445 Q102.358 781.839 108.168 781.839 Z" fill="#000000" fill-rule="nonzero" fill-opacity="1" /><path clip-path="url(#clip050)" d="M138.33 785.543 Q134.719 785.543 132.89 789.107 Q131.084 792.649 131.084 799.779 Q131.084 806.885 132.89 810.45 Q134.719 813.992 138.33 813.992 Q141.964 813.992 143.769 810.45 Q145.598 806.885 145.598 799.779 Q145.598 792.649 143.769 789.107 Q141.964 785.543 138.33 785.543 M138.33 781.839 Q144.14 781.839 147.195 786.445 Q150.274 791.029 150.274 799.779 Q150.274 808.505 147.195 813.112 Q144.14 817.695 138.33 817.695 Q132.519 817.695 129.441 813.112 Q126.385 808.505 126.385 799.779 Q126.385 791.029 129.441 786.445 Q132.519 781.839 138.33 781.839 Z" fill="#000000" fill-rule="nonzero" fill-opacity="1" /><path clip-path="url(#clip050)" d="M54.7421 521.799 L62.381 521.799 L62.381 495.433 L54.0708 497.1 L54.0708 492.841 L62.3347 491.174 L67.0106 491.174 L67.0106 521.799 L74.6494 521.799 L74.6494 525.734 L54.7421 525.734 L54.7421 521.799 Z" fill="#000000" fill-rule="nonzero" fill-opacity="1" /><path clip-path="url(#clip050)" d="M84.0938 519.855 L88.978 519.855 L88.978 525.734 L84.0938 525.734 L84.0938 519.855 Z" fill="#000000" fill-rule="nonzero" fill-opacity="1" /><path clip-path="url(#clip050)" d="M103.191 521.799 L119.51 521.799 L119.51 525.734 L97.566 525.734 L97.566 521.799 Q100.228 519.044 104.811 514.415 Q109.418 509.762 110.598 508.419 Q112.844 505.896 113.723 504.16 Q114.626 502.401 114.626 500.711 Q114.626 497.957 112.682 496.22 Q110.76 494.484 107.658 494.484 Q105.459 494.484 103.006 495.248 Q100.575 496.012 97.7974 497.563 L97.7974 492.841 Q100.621 491.707 103.075 491.128 Q105.529 490.549 107.566 490.549 Q112.936 490.549 116.131 493.234 Q119.325 495.919 119.325 500.41 Q119.325 502.54 118.515 504.461 Q117.728 506.359 115.621 508.952 Q115.043 509.623 111.941 512.841 Q108.839 516.035 103.191 521.799 Z" fill="#000000" fill-rule="nonzero" fill-opacity="1" /><path clip-path="url(#clip050)" d="M129.371 491.174 L147.728 491.174 L147.728 495.109 L133.654 495.109 L133.654 503.581 Q134.672 503.234 135.691 503.072 Q136.709 502.887 137.728 502.887 Q143.515 502.887 146.894 506.058 Q150.274 509.23 150.274 514.646 Q150.274 520.225 146.802 523.327 Q143.33 526.405 137.01 526.405 Q134.834 526.405 132.566 526.035 Q130.32 525.665 127.913 524.924 L127.913 520.225 Q129.996 521.359 132.219 521.915 Q134.441 522.47 136.918 522.47 Q140.922 522.47 143.26 520.364 Q145.598 518.257 145.598 514.646 Q145.598 511.035 143.26 508.929 Q140.922 506.822 136.918 506.822 Q135.043 506.822 133.168 507.239 Q131.316 507.656 129.371 508.535 L129.371 491.174 Z" fill="#000000" fill-rule="nonzero" fill-opacity="1" /><path clip-path="url(#clip050)" d="M53.7467 230.509 L61.3856 230.509 L61.3856 204.144 L53.0754 205.81 L53.0754 201.551 L61.3393 199.884 L66.0152 199.884 L66.0152 230.509 L73.654 230.509 L73.654 234.444 L53.7467 234.444 L53.7467 230.509 Z" fill="#000000" fill-rule="nonzero" fill-opacity="1" /><path clip-path="url(#clip050)" d="M83.0984 228.565 L87.9827 228.565 L87.9827 234.444 L83.0984 234.444 L83.0984 228.565 Z" fill="#000000" fill-rule="nonzero" fill-opacity="1" /><path clip-path="url(#clip050)" d="M98.2141 199.884 L116.57 199.884 L116.57 203.82 L102.496 203.82 L102.496 212.292 Q103.515 211.945 104.534 211.782 Q105.552 211.597 106.571 211.597 Q112.358 211.597 115.737 214.769 Q119.117 217.94 119.117 223.356 Q119.117 228.935 115.645 232.037 Q112.172 235.116 105.853 235.116 Q103.677 235.116 101.409 234.745 Q99.1632 234.375 96.7558 233.634 L96.7558 228.935 Q98.8391 230.069 101.061 230.625 Q103.284 231.181 105.76 231.181 Q109.765 231.181 112.103 229.074 Q114.441 226.968 114.441 223.356 Q114.441 219.745 112.103 217.639 Q109.765 215.532 105.76 215.532 Q103.885 215.532 102.01 215.949 Q100.159 216.366 98.2141 217.245 L98.2141 199.884 Z" fill="#000000" fill-rule="nonzero" fill-opacity="1" /><path clip-path="url(#clip050)" d="M138.33 202.963 Q134.719 202.963 132.89 206.528 Q131.084 210.07 131.084 217.199 Q131.084 224.306 132.89 227.87 Q134.719 231.412 138.33 231.412 Q141.964 231.412 143.769 227.87 Q145.598 224.306 145.598 217.199 Q145.598 210.07 143.769 206.528 Q141.964 202.963 138.33 202.963 M138.33 199.259 Q144.14 199.259 147.195 203.866 Q150.274 208.449 150.274 217.199 Q150.274 225.926 147.195 230.532 Q144.14 235.116 138.33 235.116 Q132.519 235.116 129.441 230.532 Q126.385 225.926 126.385 217.199 Q126.385 208.449 129.441 203.866 Q132.519 199.259 138.33 199.259 Z" fill="#000000" fill-rule="nonzero" fill-opacity="1" /><polyline clip-path="url(#clip051)" style="stroke:#009af9; stroke-linecap:round; stroke-linejoin:round; stroke-width:12; stroke-opacity:1; fill:none" points="247.59,1382.32 451.975,1260.17 656.36,1122.46 860.745,1141.63 1065.13,1053.38 1269.51,915.438 1473.9,916.09 1678.29,957.322 1882.67,830.33 2087.06,897.2 2291.44,955.256 "/>
<polyline clip-path="url(#clip051)" style="stroke:#e26f46; stroke-linecap:round; stroke-linejoin:round; stroke-width:12; stroke-opacity:1; fill:none" points="247.59,1382.32 451.975,1239.05 656.36,1228.49 860.745,1149.76 1065.13,1020.3 1269.51,824.421 1473.9,805.45 1678.29,749.909 1882.67,521.521 2087.06,397.305 2291.44,206.192 "/>
<polyline clip-path="url(#clip051)" style="stroke:#3da44d; stroke-linecap:round; stroke-linejoin:round; stroke-width:12; stroke-opacity:1; fill:none" points="247.59,1382.32 451.975,1365.16 656.36,1308.66 860.745,1225.49 1065.13,1152.21 1269.51,1160.38 1473.9,1144.16 1678.29,1024.92 1882.67,890.872 2087.06,791.937 2291.44,609.603 "/>
<polyline clip-path="url(#clip051)" style="stroke:#c271d2; stroke-linecap:round; stroke-linejoin:round; stroke-width:12; stroke-opacity:1; fill:none" points="247.59,1382.32 451.975,1426.47 656.36,1445.72 860.745,1422.59 1065.13,1281.74 1269.51,1058.64 1473.9,1082.12 1678.29,1113.31 1882.67,1022.21 2087.06,856.046 2291.44,787.862 "/>
<polyline clip-path="url(#clip051)" style="stroke:#ac8d18; stroke-linecap:round; stroke-linejoin:round; stroke-width:12; stroke-opacity:1; fill:none" points="247.59,1382.32 451.975,1282.7 656.36,1152.06 860.745,1007.34 1065.13,920.263 1269.51,944.932 1473.9,940.881 1678.29,801.507 1882.67,527.416 2087.06,183.205 2291.44,87.9763 "/>
<polyline clip-path="url(#clip051)" style="stroke:#00a9ad; stroke-linecap:round; stroke-linejoin:round; stroke-width:12; stroke-opacity:1; fill:none" points="247.59,1382.32 451.975,1339.12 656.36,1262.85 860.745,1123.78 1065.13,1046.34 1269.51,1007.2 1473.9,735.065 1678.29,617.016 1882.67,665.549 2087.06,498.622 2291.44,581.517 "/>
<polyline clip-path="url(#clip051)" style="stroke:#ed5d92; stroke-linecap:round; stroke-linejoin:round; stroke-width:12; stroke-opacity:1; fill:none" points="247.59,1382.32 451.975,1416.52 656.36,1366.04 860.745,1307.46 1065.13,1132.86 1269.51,1109.99 1473.9,1034.3 1678.29,1098.45 1882.67,1001.89 2087.06,860.454 2291.44,547.888 "/>
<polyline clip-path="url(#clip051)" style="stroke:#c68125; stroke-linecap:round; stroke-linejoin:round; stroke-width:12; stroke-opacity:1; fill:none" points="247.59,1382.32 451.975,1230.23 656.36,1235.54 860.745,1279.89 1065.13,1214.37 1269.51,1192.19 1473.9,1197.95 1678.29,1141.43 1882.67,1011.72 2087.06,884.202 2291.44,740.367 "/>
</svg>
