<?xml version="1.0" encoding="utf-8"?>
<svg xmlns="http://www.w3.org/2000/svg" xmlns:xlink="http://www.w3.org/1999/xlink" width="600" height="400" viewBox="0 0 2400 1600">
<defs>
  <clipPath id="clip960">
    <rect x="0" y="0" width="2400" height="1600"/>
  </clipPath>
</defs>
<path clip-path="url(#clip960)" d="M0 1600 L2400 1600 L2400 0 L0 0  Z" fill="#ffffff" fill-rule="evenodd" fill-opacity="1"/>
<defs>
  <clipPath id="clip961">
    <rect x="184" y="47" width="2170" height="1440"/>
  </clipPath>
</defs>
<path clip-path="url(#clip960)" d="M184.191 1486.45 L2352.76 1486.45 L2352.76 47.2441 L184.191 47.2441  Z" fill="#ffffff" fill-rule="evenodd" fill-opacity="1"/>
<polyline clip-path="url(#clip961)" style="stroke:#000000; stroke-linecap:round; stroke-linejoin:round; stroke-width:2; stroke-opacity:0.1; fill:none" points="245.565,1486.45 245.565,47.2441 "/>
<polyline clip-path="url(#clip961)" style="stroke:#000000; stroke-linecap:round; stroke-linejoin:round; stroke-width:2; stroke-opacity:0.1; fill:none" points="757.019,1486.45 757.019,47.2441 "/>
<polyline clip-path="url(#clip961)" style="stroke:#000000; stroke-linecap:round; stroke-linejoin:round; stroke-width:2; stroke-opacity:0.1; fill:none" points="1268.47,1486.45 1268.47,47.2441 "/>
<polyline clip-path="url(#clip961)" style="stroke:#000000; stroke-linecap:round; stroke-linejoin:round; stroke-width:2; stroke-opacity:0.1; fill:none" points="1779.93,1486.45 1779.93,47.2441 "/>
<polyline clip-path="url(#clip961)" style="stroke:#000000; stroke-linecap:round; stroke-linejoin:round; stroke-width:2; stroke-opacity:0.1; fill:none" points="2291.38,1486.45 2291.38,47.2441 "/>
<polyline clip-path="url(#clip961)" style="stroke:#000000; stroke-linecap:round; stroke-linejoin:round; stroke-width:2; stroke-opacity:0.1; fill:none" points="184.191,1452.26 2352.76,1452.26 "/>
<polyline clip-path="url(#clip961)" style="stroke:#000000; stroke-linecap:round; stroke-linejoin:round; stroke-width:2; stroke-opacity:0.1; fill:none" points="184.191,1126.19 2352.76,1126.19 "/>
<polyline clip-path="url(#clip961)" style="stroke:#000000; stroke-linecap:round; stroke-linejoin:round; stroke-width:2; stroke-opacity:0.1; fill:none" points="184.191,800.115 2352.76,800.115 "/>
<polyline clip-path="url(#clip961)" style="stroke:#000000; stroke-linecap:round; stroke-linejoin:round; stroke-width:2; stroke-opacity:0.1; fill:none" points="184.191,474.045 2352.76,474.045 "/>
<polyline clip-path="url(#clip961)" style="stroke:#000000; stroke-linecap:round; stroke-linejoin:round; stroke-width:2; stroke-opacity:0.1; fill:none" points="184.191,147.975 2352.76,147.975 "/>
<polyline clip-path="url(#clip960)" style="stroke:#000000; stroke-linecap:round; stroke-linejoin:round; stroke-width:4; stroke-opacity:1; fill:none" points="184.191,1486.45 2352.76,1486.45 "/>
<polyline clip-path="url(#clip960)" style="stroke:#000000; stroke-linecap:round; stroke-linejoin:round; stroke-width:4; stroke-opacity:1; fill:none" points="245.565,1486.45 245.565,1467.55 "/>
<polyline clip-path="url(#clip960)" style="stroke:#000000; stroke-linecap:round; stroke-linejoin:round; stroke-width:4; stroke-opacity:1; fill:none" points="757.019,1486.45 757.019,1467.55 "/>
<polyline clip-path="url(#clip960)" style="stroke:#000000; stroke-linecap:round; stroke-linejoin:round; stroke-width:4; stroke-opacity:1; fill:none" points="1268.47,1486.45 1268.47,1467.55 "/>
<polyline clip-path="url(#clip960)" style="stroke:#000000; stroke-linecap:round; stroke-linejoin:round; stroke-width:4; stroke-opacity:1; fill:none" points="1779.93,1486.45 1779.93,1467.55 "/>
<polyline clip-path="url(#clip960)" style="stroke:#000000; stroke-linecap:round; stroke-linejoin:round; stroke-width:4; stroke-opacity:1; fill:none" points="2291.38,1486.45 2291.38,1467.55 "/>
<path clip-path="url(#clip960)" d="M222.95 1517.37 Q219.338 1517.37 217.51 1520.93 Q215.704 1524.47 215.704 1531.6 Q215.704 1538.71 217.51 1542.27 Q219.338 1545.82 222.95 1545.82 Q226.584 1545.82 228.389 1542.27 Q230.218 1538.71 230.218 1531.6 Q230.218 1524.47 228.389 1520.93 Q226.584 1517.37 222.95 1517.37 M222.95 1513.66 Q228.76 1513.66 231.815 1518.27 Q234.894 1522.85 234.894 1531.6 Q234.894 1540.33 231.815 1544.94 Q228.76 1549.52 222.95 1549.52 Q217.139 1549.52 214.061 1544.94 Q211.005 1540.33 211.005 1531.6 Q211.005 1522.85 214.061 1518.27 Q217.139 1513.66 222.95 1513.66 Z" fill="#000000" fill-rule="nonzero" fill-opacity="1" /><path clip-path="url(#clip960)" d="M243.111 1542.97 L247.996 1542.97 L247.996 1548.85 L243.111 1548.85 L243.111 1542.97 Z" fill="#000000" fill-rule="nonzero" fill-opacity="1" /><path clip-path="url(#clip960)" d="M268.181 1517.37 Q264.57 1517.37 262.741 1520.93 Q260.935 1524.47 260.935 1531.6 Q260.935 1538.71 262.741 1542.27 Q264.57 1545.82 268.181 1545.82 Q271.815 1545.82 273.621 1542.27 Q275.449 1538.71 275.449 1531.6 Q275.449 1524.47 273.621 1520.93 Q271.815 1517.37 268.181 1517.37 M268.181 1513.66 Q273.991 1513.66 277.046 1518.27 Q280.125 1522.85 280.125 1531.6 Q280.125 1540.33 277.046 1544.94 Q273.991 1549.52 268.181 1549.52 Q262.371 1549.52 259.292 1544.94 Q256.236 1540.33 256.236 1531.6 Q256.236 1522.85 259.292 1518.27 Q262.371 1513.66 268.181 1513.66 Z" fill="#000000" fill-rule="nonzero" fill-opacity="1" /><path clip-path="url(#clip960)" d="M728.755 1544.91 L745.075 1544.91 L745.075 1548.85 L723.131 1548.85 L723.131 1544.91 Q725.793 1542.16 730.376 1537.53 Q734.982 1532.88 736.163 1531.53 Q738.408 1529.01 739.288 1527.27 Q740.191 1525.51 740.191 1523.82 Q740.191 1521.07 738.246 1519.33 Q736.325 1517.6 733.223 1517.6 Q731.024 1517.6 728.57 1518.36 Q726.14 1519.13 723.362 1520.68 L723.362 1515.95 Q726.186 1514.82 728.64 1514.24 Q731.093 1513.66 733.13 1513.66 Q738.501 1513.66 741.695 1516.35 Q744.89 1519.03 744.89 1523.52 Q744.89 1525.65 744.079 1527.57 Q743.292 1529.47 741.186 1532.07 Q740.607 1532.74 737.505 1535.95 Q734.404 1539.15 728.755 1544.91 Z" fill="#000000" fill-rule="nonzero" fill-opacity="1" /><path clip-path="url(#clip960)" d="M754.89 1542.97 L759.774 1542.97 L759.774 1548.85 L754.89 1548.85 L754.89 1542.97 Z" fill="#000000" fill-rule="nonzero" fill-opacity="1" /><path clip-path="url(#clip960)" d="M770.005 1514.29 L788.362 1514.29 L788.362 1518.22 L774.288 1518.22 L774.288 1526.7 Q775.306 1526.35 776.325 1526.19 Q777.343 1526 778.362 1526 Q784.149 1526 787.528 1529.17 Q790.908 1532.34 790.908 1537.76 Q790.908 1543.34 787.436 1546.44 Q783.964 1549.52 777.644 1549.52 Q775.468 1549.52 773.2 1549.15 Q770.954 1548.78 768.547 1548.04 L768.547 1543.34 Q770.63 1544.47 772.852 1545.03 Q775.075 1545.58 777.552 1545.58 Q781.556 1545.58 783.894 1543.48 Q786.232 1541.37 786.232 1537.76 Q786.232 1534.15 783.894 1532.04 Q781.556 1529.94 777.552 1529.94 Q775.677 1529.94 773.802 1530.35 Q771.95 1530.77 770.005 1531.65 L770.005 1514.29 Z" fill="#000000" fill-rule="nonzero" fill-opacity="1" /><path clip-path="url(#clip960)" d="M1235.64 1514.29 L1253.99 1514.29 L1253.99 1518.22 L1239.92 1518.22 L1239.92 1526.7 Q1240.94 1526.35 1241.96 1526.19 Q1242.98 1526 1243.99 1526 Q1249.78 1526 1253.16 1529.17 Q1256.54 1532.34 1256.54 1537.76 Q1256.54 1543.34 1253.07 1546.44 Q1249.6 1549.52 1243.28 1549.52 Q1241.1 1549.52 1238.83 1549.15 Q1236.59 1548.78 1234.18 1548.04 L1234.18 1543.34 Q1236.26 1544.47 1238.49 1545.03 Q1240.71 1545.58 1243.18 1545.58 Q1247.19 1545.58 1249.53 1543.48 Q1251.86 1541.37 1251.86 1537.76 Q1251.86 1534.15 1249.53 1532.04 Q1247.19 1529.94 1243.18 1529.94 Q1241.31 1529.94 1239.43 1530.35 Q1237.58 1530.77 1235.64 1531.65 L1235.64 1514.29 Z" fill="#000000" fill-rule="nonzero" fill-opacity="1" /><path clip-path="url(#clip960)" d="M1265.75 1542.97 L1270.64 1542.97 L1270.64 1548.85 L1265.75 1548.85 L1265.75 1542.97 Z" fill="#000000" fill-rule="nonzero" fill-opacity="1" /><path clip-path="url(#clip960)" d="M1290.82 1517.37 Q1287.21 1517.37 1285.38 1520.93 Q1283.58 1524.47 1283.58 1531.6 Q1283.58 1538.71 1285.38 1542.27 Q1287.21 1545.82 1290.82 1545.82 Q1294.46 1545.82 1296.26 1542.27 Q1298.09 1538.71 1298.09 1531.6 Q1298.09 1524.47 1296.26 1520.93 Q1294.46 1517.37 1290.82 1517.37 M1290.82 1513.66 Q1296.63 1513.66 1299.69 1518.27 Q1302.77 1522.85 1302.77 1531.6 Q1302.77 1540.33 1299.69 1544.94 Q1296.63 1549.52 1290.82 1549.52 Q1285.01 1549.52 1281.93 1544.94 Q1278.88 1540.33 1278.88 1531.6 Q1278.88 1522.85 1281.93 1518.27 Q1285.01 1513.66 1290.82 1513.66 Z" fill="#000000" fill-rule="nonzero" fill-opacity="1" /><path clip-path="url(#clip960)" d="M1746.25 1514.29 L1768.47 1514.29 L1768.47 1516.28 L1755.92 1548.85 L1751.04 1548.85 L1762.84 1518.22 L1746.25 1518.22 L1746.25 1514.29 Z" fill="#000000" fill-rule="nonzero" fill-opacity="1" /><path clip-path="url(#clip960)" d="M1777.59 1542.97 L1782.47 1542.97 L1782.47 1548.85 L1777.59 1548.85 L1777.59 1542.97 Z" fill="#000000" fill-rule="nonzero" fill-opacity="1" /><path clip-path="url(#clip960)" d="M1792.71 1514.29 L1811.06 1514.29 L1811.06 1518.22 L1796.99 1518.22 L1796.99 1526.7 Q1798.01 1526.35 1799.02 1526.19 Q1800.04 1526 1801.06 1526 Q1806.85 1526 1810.23 1529.17 Q1813.61 1532.34 1813.61 1537.76 Q1813.61 1543.34 1810.14 1546.44 Q1806.66 1549.52 1800.34 1549.52 Q1798.17 1549.52 1795.9 1549.15 Q1793.65 1548.78 1791.25 1548.04 L1791.25 1543.34 Q1793.33 1544.47 1795.55 1545.03 Q1797.77 1545.58 1800.25 1545.58 Q1804.26 1545.58 1806.59 1543.48 Q1808.93 1541.37 1808.93 1537.76 Q1808.93 1534.15 1806.59 1532.04 Q1804.26 1529.94 1800.25 1529.94 Q1798.38 1529.94 1796.5 1530.35 Q1794.65 1530.77 1792.71 1531.65 L1792.71 1514.29 Z" fill="#000000" fill-rule="nonzero" fill-opacity="1" /><path clip-path="url(#clip960)" d="M2243.45 1544.91 L2251.09 1544.91 L2251.09 1518.55 L2242.78 1520.21 L2242.78 1515.95 L2251.05 1514.29 L2255.72 1514.29 L2255.72 1544.91 L2263.36 1544.91 L2263.36 1548.85 L2243.45 1548.85 L2243.45 1544.91 Z" fill="#000000" fill-rule="nonzero" fill-opacity="1" /><path clip-path="url(#clip960)" d="M2282.81 1517.37 Q2279.19 1517.37 2277.37 1520.93 Q2275.56 1524.47 2275.56 1531.6 Q2275.56 1538.71 2277.37 1542.27 Q2279.19 1545.82 2282.81 1545.82 Q2286.44 1545.82 2288.24 1542.27 Q2290.07 1538.71 2290.07 1531.6 Q2290.07 1524.47 2288.24 1520.93 Q2286.44 1517.37 2282.81 1517.37 M2282.81 1513.66 Q2288.62 1513.66 2291.67 1518.27 Q2294.75 1522.85 2294.75 1531.6 Q2294.75 1540.33 2291.67 1544.94 Q2288.62 1549.52 2282.81 1549.52 Q2276.99 1549.52 2273.92 1544.94 Q2270.86 1540.33 2270.86 1531.6 Q2270.86 1522.85 2273.92 1518.27 Q2276.99 1513.66 2282.81 1513.66 Z" fill="#000000" fill-rule="nonzero" fill-opacity="1" /><path clip-path="url(#clip960)" d="M2302.97 1542.97 L2307.85 1542.97 L2307.85 1548.85 L2302.97 1548.85 L2302.97 1542.97 Z" fill="#000000" fill-rule="nonzero" fill-opacity="1" /><path clip-path="url(#clip960)" d="M2328.04 1517.37 Q2324.43 1517.37 2322.6 1520.93 Q2320.79 1524.47 2320.79 1531.6 Q2320.79 1538.71 2322.6 1542.27 Q2324.43 1545.82 2328.04 1545.82 Q2331.67 1545.82 2333.48 1542.27 Q2335.3 1538.71 2335.3 1531.6 Q2335.3 1524.47 2333.48 1520.93 Q2331.67 1517.37 2328.04 1517.37 M2328.04 1513.66 Q2333.85 1513.66 2336.9 1518.27 Q2339.98 1522.85 2339.98 1531.6 Q2339.98 1540.33 2336.9 1544.94 Q2333.85 1549.52 2328.04 1549.52 Q2322.23 1549.52 2319.15 1544.94 Q2316.09 1540.33 2316.09 1531.6 Q2316.09 1522.85 2319.15 1518.27 Q2322.23 1513.66 2328.04 1513.66 Z" fill="#000000" fill-rule="nonzero" fill-opacity="1" /><polyline clip-path="url(#clip960)" style="stroke:#000000; stroke-linecap:round; stroke-linejoin:round; stroke-width:4; stroke-opacity:1; fill:none" points="184.191,1486.45 184.191,47.2441 "/>
<polyline clip-path="url(#clip960)" style="stroke:#000000; stroke-linecap:round; stroke-linejoin:round; stroke-width:4; stroke-opacity:1; fill:none" points="184.191,1452.26 203.088,1452.26 "/>
<polyline clip-path="url(#clip960)" style="stroke:#000000; stroke-linecap:round; stroke-linejoin:round; stroke-width:4; stroke-opacity:1; fill:none" points="184.191,1126.19 203.088,1126.19 "/>
<polyline clip-path="url(#clip960)" style="stroke:#000000; stroke-linecap:round; stroke-linejoin:round; stroke-width:4; stroke-opacity:1; fill:none" points="184.191,800.115 203.088,800.115 "/>
<polyline clip-path="url(#clip960)" style="stroke:#000000; stroke-linecap:round; stroke-linejoin:round; stroke-width:4; stroke-opacity:1; fill:none" points="184.191,474.045 203.088,474.045 "/>
<polyline clip-path="url(#clip960)" style="stroke:#000000; stroke-linecap:round; stroke-linejoin:round; stroke-width:4; stroke-opacity:1; fill:none" points="184.191,147.975 203.088,147.975 "/>
<path clip-path="url(#clip960)" d="M91.0151 1438.05 Q87.404 1438.05 85.5753 1441.62 Q83.7697 1445.16 83.7697 1452.29 Q83.7697 1459.4 85.5753 1462.96 Q87.404 1466.5 91.0151 1466.5 Q94.6493 1466.5 96.4548 1462.96 Q98.2835 1459.4 98.2835 1452.29 Q98.2835 1445.16 96.4548 1441.62 Q94.6493 1438.05 91.0151 1438.05 M91.0151 1434.35 Q96.8252 1434.35 99.8808 1438.96 Q102.959 1443.54 102.959 1452.29 Q102.959 1461.02 99.8808 1465.62 Q96.8252 1470.21 91.0151 1470.21 Q85.2049 1470.21 82.1262 1465.62 Q79.0707 1461.02 79.0707 1452.29 Q79.0707 1443.54 82.1262 1438.96 Q85.2049 1434.35 91.0151 1434.35 Z" fill="#000000" fill-rule="nonzero" fill-opacity="1" /><path clip-path="url(#clip960)" d="M111.177 1463.66 L116.061 1463.66 L116.061 1469.54 L111.177 1469.54 L111.177 1463.66 Z" fill="#000000" fill-rule="nonzero" fill-opacity="1" /><path clip-path="url(#clip960)" d="M136.246 1438.05 Q132.635 1438.05 130.807 1441.62 Q129.001 1445.16 129.001 1452.29 Q129.001 1459.4 130.807 1462.96 Q132.635 1466.5 136.246 1466.5 Q139.881 1466.5 141.686 1462.96 Q143.515 1459.4 143.515 1452.29 Q143.515 1445.16 141.686 1441.62 Q139.881 1438.05 136.246 1438.05 M136.246 1434.35 Q142.056 1434.35 145.112 1438.96 Q148.191 1443.54 148.191 1452.29 Q148.191 1461.02 145.112 1465.62 Q142.056 1470.21 136.246 1470.21 Q130.436 1470.21 127.357 1465.62 Q124.302 1461.02 124.302 1452.29 Q124.302 1443.54 127.357 1438.96 Q130.436 1434.35 136.246 1434.35 Z" fill="#000000" fill-rule="nonzero" fill-opacity="1" /><path clip-path="url(#clip960)" d="M86.0382 1139.53 L102.358 1139.53 L102.358 1143.47 L80.4133 1143.47 L80.4133 1139.53 Q83.0753 1136.78 87.6586 1132.15 Q92.2651 1127.49 93.4456 1126.15 Q95.691 1123.63 96.5706 1121.89 Q97.4734 1120.13 97.4734 1118.44 Q97.4734 1115.69 95.5289 1113.95 Q93.6076 1112.22 90.5058 1112.22 Q88.3067 1112.22 85.8531 1112.98 Q83.4225 1113.74 80.6447 1115.29 L80.6447 1110.57 Q83.4688 1109.44 85.9225 1108.86 Q88.3762 1108.28 90.4132 1108.28 Q95.7836 1108.28 98.978 1110.97 Q102.172 1113.65 102.172 1118.14 Q102.172 1120.27 101.362 1122.19 Q100.575 1124.09 98.4687 1126.68 Q97.89 1127.35 94.7882 1130.57 Q91.6864 1133.77 86.0382 1139.53 Z" fill="#000000" fill-rule="nonzero" fill-opacity="1" /><path clip-path="url(#clip960)" d="M112.172 1137.59 L117.057 1137.59 L117.057 1143.47 L112.172 1143.47 L112.172 1137.59 Z" fill="#000000" fill-rule="nonzero" fill-opacity="1" /><path clip-path="url(#clip960)" d="M127.288 1108.91 L145.644 1108.91 L145.644 1112.84 L131.57 1112.84 L131.57 1121.31 Q132.589 1120.97 133.607 1120.8 Q134.626 1120.62 135.644 1120.62 Q141.431 1120.62 144.811 1123.79 Q148.191 1126.96 148.191 1132.38 Q148.191 1137.96 144.718 1141.06 Q141.246 1144.14 134.927 1144.14 Q132.751 1144.14 130.482 1143.77 Q128.237 1143.4 125.83 1142.66 L125.83 1137.96 Q127.913 1139.09 130.135 1139.65 Q132.357 1140.2 134.834 1140.2 Q138.839 1140.2 141.177 1138.09 Q143.515 1135.99 143.515 1132.38 Q143.515 1128.77 141.177 1126.66 Q138.839 1124.55 134.834 1124.55 Q132.959 1124.55 131.084 1124.97 Q129.232 1125.39 127.288 1126.27 L127.288 1108.91 Z" fill="#000000" fill-rule="nonzero" fill-opacity="1" /><path clip-path="url(#clip960)" d="M81.0614 782.835 L99.4178 782.835 L99.4178 786.771 L85.3438 786.771 L85.3438 795.243 Q86.3623 794.895 87.3808 794.733 Q88.3993 794.548 89.4178 794.548 Q95.2049 794.548 98.5845 797.72 Q101.964 800.891 101.964 806.307 Q101.964 811.886 98.4919 814.988 Q95.0197 818.067 88.7003 818.067 Q86.5243 818.067 84.2558 817.696 Q82.0105 817.326 79.6031 816.585 L79.6031 811.886 Q81.6864 813.02 83.9086 813.576 Q86.1308 814.131 88.6077 814.131 Q92.6123 814.131 94.9502 812.025 Q97.2882 809.919 97.2882 806.307 Q97.2882 802.696 94.9502 800.59 Q92.6123 798.483 88.6077 798.483 Q86.7327 798.483 84.8577 798.9 Q83.0058 799.317 81.0614 800.196 L81.0614 782.835 Z" fill="#000000" fill-rule="nonzero" fill-opacity="1" /><path clip-path="url(#clip960)" d="M111.177 811.516 L116.061 811.516 L116.061 817.395 L111.177 817.395 L111.177 811.516 Z" fill="#000000" fill-rule="nonzero" fill-opacity="1" /><path clip-path="url(#clip960)" d="M136.246 785.914 Q132.635 785.914 130.807 789.479 Q129.001 793.02 129.001 800.15 Q129.001 807.257 130.807 810.821 Q132.635 814.363 136.246 814.363 Q139.881 814.363 141.686 810.821 Q143.515 807.257 143.515 800.15 Q143.515 793.02 141.686 789.479 Q139.881 785.914 136.246 785.914 M136.246 782.21 Q142.056 782.21 145.112 786.817 Q148.191 791.4 148.191 800.15 Q148.191 808.877 145.112 813.483 Q142.056 818.067 136.246 818.067 Q130.436 818.067 127.357 813.483 Q124.302 808.877 124.302 800.15 Q124.302 791.4 127.357 786.817 Q130.436 782.21 136.246 782.21 Z" fill="#000000" fill-rule="nonzero" fill-opacity="1" /><path clip-path="url(#clip960)" d="M80.8299 456.765 L103.052 456.765 L103.052 458.756 L90.5058 491.325 L85.6216 491.325 L97.4271 460.701 L80.8299 460.701 L80.8299 456.765 Z" fill="#000000" fill-rule="nonzero" fill-opacity="1" /><path clip-path="url(#clip960)" d="M112.172 485.446 L117.057 485.446 L117.057 491.325 L112.172 491.325 L112.172 485.446 Z" fill="#000000" fill-rule="nonzero" fill-opacity="1" /><path clip-path="url(#clip960)" d="M127.288 456.765 L145.644 456.765 L145.644 460.701 L131.57 460.701 L131.57 469.173 Q132.589 468.825 133.607 468.663 Q134.626 468.478 135.644 468.478 Q141.431 468.478 144.811 471.65 Q148.191 474.821 148.191 480.237 Q148.191 485.816 144.718 488.918 Q141.246 491.997 134.927 491.997 Q132.751 491.997 130.482 491.626 Q128.237 491.256 125.83 490.515 L125.83 485.816 Q127.913 486.95 130.135 487.506 Q132.357 488.062 134.834 488.062 Q138.839 488.062 141.177 485.955 Q143.515 483.849 143.515 480.237 Q143.515 476.626 141.177 474.52 Q138.839 472.413 134.834 472.413 Q132.959 472.413 131.084 472.83 Q129.232 473.247 127.288 474.126 L127.288 456.765 Z" fill="#000000" fill-rule="nonzero" fill-opacity="1" /><path clip-path="url(#clip960)" d="M51.6634 161.32 L59.3023 161.32 L59.3023 134.955 L50.9921 136.621 L50.9921 132.362 L59.256 130.695 L63.9319 130.695 L63.9319 161.32 L71.5707 161.32 L71.5707 165.255 L51.6634 165.255 L51.6634 161.32 Z" fill="#000000" fill-rule="nonzero" fill-opacity="1" /><path clip-path="url(#clip960)" d="M91.0151 133.774 Q87.404 133.774 85.5753 137.339 Q83.7697 140.881 83.7697 148.01 Q83.7697 155.117 85.5753 158.681 Q87.404 162.223 91.0151 162.223 Q94.6493 162.223 96.4548 158.681 Q98.2835 155.117 98.2835 148.01 Q98.2835 140.881 96.4548 137.339 Q94.6493 133.774 91.0151 133.774 M91.0151 130.07 Q96.8252 130.07 99.8808 134.677 Q102.959 139.26 102.959 148.01 Q102.959 156.737 99.8808 161.343 Q96.8252 165.927 91.0151 165.927 Q85.2049 165.927 82.1262 161.343 Q79.0707 156.737 79.0707 148.01 Q79.0707 139.26 82.1262 134.677 Q85.2049 130.07 91.0151 130.07 Z" fill="#000000" fill-rule="nonzero" fill-opacity="1" /><path clip-path="url(#clip960)" d="M111.177 159.376 L116.061 159.376 L116.061 165.255 L111.177 165.255 L111.177 159.376 Z" fill="#000000" fill-rule="nonzero" fill-opacity="1" /><path clip-path="url(#clip960)" d="M136.246 133.774 Q132.635 133.774 130.807 137.339 Q129.001 140.881 129.001 148.01 Q129.001 155.117 130.807 158.681 Q132.635 162.223 136.246 162.223 Q139.881 162.223 141.686 158.681 Q143.515 155.117 143.515 148.01 Q143.515 140.881 141.686 137.339 Q139.881 133.774 136.246 133.774 M136.246 130.07 Q142.056 130.07 145.112 134.677 Q148.191 139.26 148.191 148.01 Q148.191 156.737 145.112 161.343 Q142.056 165.927 136.246 165.927 Q130.436 165.927 127.357 161.343 Q124.302 156.737 124.302 148.01 Q124.302 139.26 127.357 134.677 Q130.436 130.07 136.246 130.07 Z" fill="#000000" fill-rule="nonzero" fill-opacity="1" /><path clip-path="url(#clip961)" d="M245.565 1321.83 L266.023 1323.65 L286.481 1310.83 L306.94 1292.95 L327.398 1286.4 L347.856 1275.04 L368.314 1264.67 L388.772 1249.36 L409.23 1223.85 L429.689 1186.52 L450.147 1160.81 L470.605 1126.44 L491.063 1082.58 L511.521 1035 L531.979 985.462 L552.438 937.529 L572.896 865.716 L593.354 788.733 L613.812 792.944 L634.27 857.669 L654.728 927.799 L675.187 1005.49 L695.645 1127.48 L716.103 1210.27 L736.561 1278.9 L757.019 1313.99 L777.477 1338.73 L797.936 1356 L818.394 1362.44 L838.852 1369.4 L859.31 1370.09 L879.768 1362.7 L900.226 1361.06 L920.685 1362.3 L941.143 1361.79 L961.601 1361.09 L982.059 1351.95 L1002.52 1343.21 L1022.98 1337.27 L1043.43 1324.86 L1063.89 1312.96 L1084.35 1296.26 L1104.81 1291.46 L1125.27 1273.82 L1145.72 1250.69 L1166.18 1201.22 L1186.64 1181.1 L1207.1 1146.29 L1227.56 1106.8 L1248.02 1063.03 L1268.47 988.405 L1288.93 898.478 L1309.39 847.617 L1329.85 825.797 L1350.31 974.47 L1370.76 1070.49 L1391.22 1181.54 L1411.68 1246.43 L1432.14 1294.81 L1452.6 1311.33 L1473.05 1333.71 L1493.51 1340.93 L1513.97 1353.67 L1534.43 1354.3 L1554.89 1359.47 L1575.35 1385.94 L1595.8 1397.72 L1616.26 1405.33 L1636.72 1406.47 L1657.18 1409.14 L1677.64 1408.61 L1698.09 1406.14 L1718.55 1404 L1739.01 1400.6 L1759.47 1395.04 L1779.93 1388.48 L1800.39 1378.33 L1820.84 1367.73 L1841.3 1353.76 L1861.76 1352.44 L1882.22 1338.13 L1902.68 1327.79 L1923.13 1315.08 L1943.59 1291.41 L1964.05 1259.24 L1984.51 1231.85 L2004.97 1282.5 L2025.43 1290.27 L2045.88 1295.21 L2066.34 1299.28 L2086.8 1296.51 L2107.26 1281.83 L2127.72 1277.09 L2148.17 1289.22 L2168.63 1308.2 L2189.09 1318.6 L2209.55 1336.34 L2230.01 1346.73 L2250.47 1358.39 L2270.92 1371.25 L2291.38 1375.08 L2291.38 808.599 L2270.92 936.183 L2250.47 944.598 L2230.01 900.451 L2209.55 809.228 L2189.09 734.983 L2168.63 567.402 L2148.17 410.334 L2127.72 351.059 L2107.26 321.509 L2086.8 315.635 L2066.34 350.77 L2045.88 414.318 L2025.43 488.449 L2004.97 530.116 L1984.51 558.1 L1964.05 613.523 L1943.59 576.482 L1923.13 634.757 L1902.68 650.599 L1882.22 720.243 L1861.76 752.755 L1841.3 802.413 L1820.84 860.035 L1800.39 896.988 L1779.93 935.983 L1759.47 963.692 L1739.01 1027.09 L1718.55 1095.56 L1698.09 1144.48 L1677.64 1189.35 L1657.18 1209.02 L1636.72 1229.2 L1616.26 1250.05 L1595.8 1262.88 L1575.35 1273.96 L1554.89 1274.12 L1534.43 1200.22 L1513.97 880.165 L1493.51 457.312 L1473.05 151.726 L1452.6 87.9763 L1432.14 178.325 L1411.68 292.846 L1391.22 416.43 L1370.76 487.331 L1350.31 476.388 L1329.85 519.114 L1309.39 502.237 L1288.93 453.378 L1268.47 509.126 L1248.02 572.463 L1227.56 686.994 L1207.1 744.276 L1186.64 811.153 L1166.18 895.961 L1145.72 957.328 L1125.27 1035.78 L1104.81 1099.14 L1084.35 1143.51 L1063.89 1166.01 L1043.43 1192.1 L1022.98 1205.01 L1002.52 1205.19 L982.059 1226.05 L961.601 1239.14 L941.143 1263.73 L920.685 1262.56 L900.226 1244.36 L879.768 1240.88 L859.31 1235.68 L838.852 1234.55 L818.394 1210.06 L797.936 1141.05 L777.477 1057.2 L757.019 959.398 L736.561 823.124 L716.103 682.355 L695.645 555.274 L675.187 484.988 L654.728 451.423 L634.27 470.234 L613.812 435.785 L593.354 480.398 L572.896 516.096 L552.438 623.237 L531.979 641.922 L511.521 768.741 L491.063 857.701 L470.605 977.102 L450.147 1048.96 L429.689 1094.61 L409.23 1138.15 L388.772 1194.56 L368.314 1197.12 L347.856 1240.08 L327.398 1257.23 L306.94 1286.04 L286.481 1296.43 L266.023 1313.24 L245.565 1321.83  Z" fill="#009af9" fill-rule="evenodd" fill-opacity="0.5"/>
<polyline clip-path="url(#clip961)" style="stroke:#009af9; stroke-linecap:round; stroke-linejoin:round; stroke-width:12; stroke-opacity:1; fill:none" points="245.565,1321.83 266.023,1315.87 286.481,1304.75 306.94,1290.22 327.398,1271.84 347.856,1258.12 368.314,1235.85 388.772,1202.65 409.23,1170.32 429.689,1134.21 450.147,1095.11 470.605,1042.51 491.063,987.646 511.521,930.319 531.979,854.467 552.438,785.896 572.896,710.948 593.354,643.329 613.812,575.602 634.27,548.324 654.728,567.502 675.187,679.333 695.645,786.392 716.103,930.641 736.561,1072.15 757.019,1182.75 777.477,1253.52 797.936,1291.11 818.394,1308.39 838.852,1318.29 859.31,1328.46 879.768,1338.92 900.226,1341.17 920.685,1339.37 941.143,1338.18 961.601,1323.05 982.059,1308.65 1002.52,1291.61 1022.98,1271.82 1043.43,1253.74 1063.89,1233.37 1084.35,1203.08 1104.81,1168.24 1125.27,1129.62 1145.72,1084.06 1166.18,1042.81 1186.64,992.589 1207.1,920.356 1227.56,844.338 1248.02,767.809 1268.47,702.28 1288.93,630.701 1309.39,653.275 1329.85,681.638 1350.31,648.642 1370.76,686.742 1391.22,807.642 1411.68,992.262 1432.14,1124.93 1452.6,1216.53 1473.05,1263.7 1493.51,1299.94 1513.97,1324.68 1534.43,1333.89 1554.89,1337.51 1575.35,1340.71 1595.8,1337.37 1616.26,1336.34 1636.72,1333.35 1657.18,1326.99 1677.64,1318.65 1698.09,1308.57 1718.55,1296.24 1739.01,1280.95 1759.47,1261.78 1779.93,1239.06 1800.39,1211.82 1820.84,1180.48 1841.3,1142.87 1861.76,1100.42 1882.22,1053.23 1902.68,991.619 1923.13,931.638 1943.59,894.064 1964.05,843.518 1984.51,744.638 2004.97,691.631 2025.43,600.244 2045.88,599.884 2066.34,708.594 2086.8,775.496 2107.26,939.231 2127.72,1071.97 2148.17,1174.93 2168.63,1199.53 2189.09,1200.75 2209.55,1247.12 2230.01,1295.08 2250.47,1311.57 2270.92,1312.55 2291.38,1312.5 "/>
<path clip-path="url(#clip961)" d="M245.565 1321.83 L266.023 1353.02 L286.481 1372.45 L306.94 1385.47 L327.398 1398.21 L347.856 1407.06 L368.314 1413.73 L388.772 1417.63 L409.23 1418.83 L429.689 1422.11 L450.147 1421.8 L470.605 1423.88 L491.063 1424.58 L511.521 1422.25 L531.979 1422.17 L552.438 1417.73 L572.896 1411.14 L593.354 1406.84 L613.812 1394.91 L634.27 1376.33 L654.728 1338.89 L675.187 1260.78 L695.645 1172.18 L716.103 1115.74 L736.561 1107.36 L757.019 1097.98 L777.477 1125.56 L797.936 1187.21 L818.394 1229.8 L838.852 1275.52 L859.31 1312.72 L879.768 1342.23 L900.226 1364.4 L920.685 1381.36 L941.143 1397.47 L961.601 1410.68 L982.059 1419.42 L1002.52 1425.98 L1022.98 1430.13 L1043.43 1433.38 L1063.89 1435.95 L1084.35 1437.85 L1104.81 1438.38 L1125.27 1438.92 L1145.72 1439.19 L1166.18 1439.25 L1186.64 1439.69 L1207.1 1439.29 L1227.56 1440.12 L1248.02 1441.13 L1268.47 1440.99 L1288.93 1439.89 L1309.39 1438.54 L1329.85 1434.7 L1350.31 1432.51 L1370.76 1425.64 L1391.22 1412.8 L1411.68 1388.57 L1432.14 1333.17 L1452.6 1225.63 L1473.05 1198.16 L1493.51 1238.86 L1513.97 1280.75 L1534.43 1307.17 L1554.89 1334.49 L1575.35 1353.4 L1595.8 1368.72 L1616.26 1382.94 L1636.72 1393.48 L1657.18 1401.57 L1677.64 1407.89 L1698.09 1411.9 L1718.55 1414.6 L1739.01 1417.67 L1759.47 1423.38 L1779.93 1425.84 L1800.39 1428.64 L1820.84 1432.32 L1841.3 1435.33 L1861.76 1437.06 L1882.22 1439.38 L1902.68 1441.04 L1923.13 1442.16 L1943.59 1443.74 L1964.05 1444.37 L1984.51 1445.1 L2004.97 1445.72 L2025.43 1445.08 L2045.88 1443.75 L2066.34 1442.35 L2086.8 1439.37 L2107.26 1432.14 L2127.72 1419.42 L2148.17 1394.54 L2168.63 1391.63 L2189.09 1400.8 L2209.55 1407.68 L2230.01 1412.42 L2250.47 1415.95 L2270.92 1418.58 L2291.38 1420.75 L2291.38 894.268 L2270.92 827.757 L2250.47 777.538 L2230.01 711.893 L2209.55 723.945 L2189.09 673.306 L2168.63 693.901 L2148.17 786.123 L2127.72 801.131 L2107.26 806.786 L2086.8 827.335 L2066.34 895.59 L2045.88 956.082 L2025.43 970.2 L2004.97 1015.87 L1984.51 1064.78 L1964.05 1098.75 L1943.59 1169.05 L1923.13 1226.65 L1902.68 1278.71 L1882.22 1319.09 L1861.76 1349.2 L1841.3 1373.51 L1820.84 1386.43 L1800.39 1393.64 L1779.93 1393.98 L1759.47 1378.43 L1739.01 1355.69 L1718.55 1321.5 L1698.09 1291.15 L1677.64 1253.67 L1657.18 1204.61 L1636.72 1128.63 L1616.26 1022.85 L1595.8 883.887 L1575.35 657.071 L1554.89 434.134 L1534.43 259.179 L1513.97 340.982 L1493.51 627.646 L1473.05 871.312 L1452.6 816.97 L1432.14 778.992 L1411.68 769.293 L1391.22 839.015 L1370.76 829.719 L1350.31 833.706 L1329.85 910.219 L1309.39 1051.49 L1288.93 1193.31 L1268.47 1282.64 L1248.02 1337.58 L1227.56 1359.45 L1207.1 1374.85 L1186.64 1381.68 L1166.18 1383.8 L1145.72 1389.25 L1125.27 1390.72 L1104.81 1390.48 L1084.35 1387.66 L1063.89 1380.7 L1043.43 1367.71 L1022.98 1346.17 L1002.52 1329.11 L982.059 1310.48 L961.601 1282.33 L941.143 1258.36 L920.685 1210.35 L900.226 1144.07 L879.768 1112.96 L859.31 1077.89 L838.852 1040.1 L818.394 980.023 L797.936 932.233 L777.477 843.283 L757.019 799.04 L736.561 770.82 L716.103 806.406 L695.645 836.599 L675.187 855.483 L654.728 891.363 L634.27 973.817 L613.812 1090.58 L593.354 1172.81 L572.896 1258.7 L552.438 1323.75 L531.979 1363.85 L511.521 1385.38 L491.063 1400.45 L470.605 1405.05 L450.147 1407.87 L429.689 1406.12 L409.23 1402.97 L388.772 1397.28 L368.314 1391.34 L347.856 1387.04 L327.398 1376.83 L306.94 1365.88 L286.481 1353.12 L266.023 1336.1 L245.565 1321.83  Z" fill="#e26f46" fill-rule="evenodd" fill-opacity="0.5"/>
<polyline clip-path="url(#clip961)" style="stroke:#e26f46; stroke-linecap:round; stroke-linejoin:round; stroke-width:12; stroke-opacity:1; fill:none" points="245.565,1321.83 266.023,1344.27 286.481,1362.47 306.94,1378.56 327.398,1390.02 347.856,1400.28 368.314,1405.76 388.772,1410.76 409.23,1413.67 429.689,1415.93 450.147,1417.02 470.605,1417.56 491.063,1416.63 511.521,1414.03 531.979,1410.55 552.438,1402.23 572.896,1388.6 593.354,1364.55 613.812,1325.26 634.27,1270.11 654.728,1192.35 675.187,1061.45 695.645,936.785 716.103,870.711 736.561,855.835 757.019,903.043 777.477,965.709 797.936,1014.17 818.394,1104.37 838.852,1139.63 859.31,1189.18 879.768,1227.19 900.226,1280.19 920.685,1307.71 941.143,1338.21 961.601,1355.51 982.059,1370.67 1002.52,1384.57 1022.98,1394.83 1043.43,1404.8 1063.89,1411.08 1084.35,1414.35 1104.81,1416.37 1125.27,1417.97 1145.72,1420.95 1166.18,1421.7 1186.64,1418.7 1207.1,1417.19 1227.56,1412.82 1248.02,1404.2 1268.47,1385.23 1288.93,1354.29 1309.39,1308.13 1329.85,1241.56 1350.31,1141.27 1370.76,1043.06 1391.22,961.875 1411.68,942.999 1432.14,977.42 1452.6,1002.89 1473.05,982.415 1493.51,995.955 1513.97,1078.06 1534.43,1144.81 1554.89,1194.21 1575.35,1245.09 1595.8,1275.31 1616.26,1313.79 1636.72,1343.72 1657.18,1363.83 1677.64,1378.98 1698.09,1390.65 1718.55,1399.18 1739.01,1408.53 1759.47,1412.97 1779.93,1416.08 1800.39,1419.01 1820.84,1422.86 1841.3,1426.63 1861.76,1426.02 1882.22,1424.48 1902.68,1424.92 1923.13,1420.95 1943.59,1417.81 1964.05,1410.05 1984.51,1396.96 2004.97,1378.66 2025.43,1348.12 2045.88,1292.61 2066.34,1214.4 2086.8,1202.69 2107.26,1102.26 2127.72,1013.04 2148.17,921.942 2168.63,987.499 2189.09,1017.93 2209.55,1084.8 2230.01,1157.16 2250.47,1207.26 2270.92,1259.48 2291.38,1298.36 "/>
</svg>
