<?xml version="1.0" encoding="utf-8"?>
<svg xmlns="http://www.w3.org/2000/svg" xmlns:xlink="http://www.w3.org/1999/xlink" width="600" height="400" viewBox="0 0 2400 1600">
<defs>
  <clipPath id="clip840">
    <rect x="0" y="0" width="2400" height="1600"/>
  </clipPath>
</defs>
<path clip-path="url(#clip840)" d="M0 1600 L2400 1600 L2400 0 L0 0  Z" fill="#ffffff" fill-rule="evenodd" fill-opacity="1"/>
<defs>
  <clipPath id="clip841">
    <rect x="155" y="47" width="2198" height="1440"/>
  </clipPath>
</defs>
<path clip-path="url(#clip840)" d="M155.765 1486.45 L2352.76 1486.45 L2352.76 47.2441 L155.765 47.2441  Z" fill="#ffffff" fill-rule="evenodd" fill-opacity="1"/>
<polyline clip-path="url(#clip841)" style="stroke:#000000; stroke-linecap:round; stroke-linejoin:round; stroke-width:2; stroke-opacity:0.1; fill:none" points="217.944,1486.45 217.944,47.2441 "/>
<polyline clip-path="url(#clip841)" style="stroke:#000000; stroke-linecap:round; stroke-linejoin:round; stroke-width:2; stroke-opacity:0.1; fill:none" points="736.102,1486.45 736.102,47.2441 "/>
<polyline clip-path="url(#clip841)" style="stroke:#000000; stroke-linecap:round; stroke-linejoin:round; stroke-width:2; stroke-opacity:0.1; fill:none" points="1254.26,1486.45 1254.26,47.2441 "/>
<polyline clip-path="url(#clip841)" style="stroke:#000000; stroke-linecap:round; stroke-linejoin:round; stroke-width:2; stroke-opacity:0.1; fill:none" points="1772.42,1486.45 1772.42,47.2441 "/>
<polyline clip-path="url(#clip841)" style="stroke:#000000; stroke-linecap:round; stroke-linejoin:round; stroke-width:2; stroke-opacity:0.1; fill:none" points="2290.58,1486.45 2290.58,47.2441 "/>
<polyline clip-path="url(#clip841)" style="stroke:#000000; stroke-linecap:round; stroke-linejoin:round; stroke-width:2; stroke-opacity:0.1; fill:none" points="155.765,1341.44 2352.76,1341.44 "/>
<polyline clip-path="url(#clip841)" style="stroke:#000000; stroke-linecap:round; stroke-linejoin:round; stroke-width:2; stroke-opacity:0.1; fill:none" points="155.765,1112.56 2352.76,1112.56 "/>
<polyline clip-path="url(#clip841)" style="stroke:#000000; stroke-linecap:round; stroke-linejoin:round; stroke-width:2; stroke-opacity:0.1; fill:none" points="155.765,883.674 2352.76,883.674 "/>
<polyline clip-path="url(#clip841)" style="stroke:#000000; stroke-linecap:round; stroke-linejoin:round; stroke-width:2; stroke-opacity:0.1; fill:none" points="155.765,654.79 2352.76,654.79 "/>
<polyline clip-path="url(#clip841)" style="stroke:#000000; stroke-linecap:round; stroke-linejoin:round; stroke-width:2; stroke-opacity:0.1; fill:none" points="155.765,425.906 2352.76,425.906 "/>
<polyline clip-path="url(#clip841)" style="stroke:#000000; stroke-linecap:round; stroke-linejoin:round; stroke-width:2; stroke-opacity:0.1; fill:none" points="155.765,197.022 2352.76,197.022 "/>
<polyline clip-path="url(#clip840)" style="stroke:#000000; stroke-linecap:round; stroke-linejoin:round; stroke-width:4; stroke-opacity:1; fill:none" points="155.765,1486.45 2352.76,1486.45 "/>
<polyline clip-path="url(#clip840)" style="stroke:#000000; stroke-linecap:round; stroke-linejoin:round; stroke-width:4; stroke-opacity:1; fill:none" points="217.944,1486.45 217.944,1467.55 "/>
<polyline clip-path="url(#clip840)" style="stroke:#000000; stroke-linecap:round; stroke-linejoin:round; stroke-width:4; stroke-opacity:1; fill:none" points="736.102,1486.45 736.102,1467.55 "/>
<polyline clip-path="url(#clip840)" style="stroke:#000000; stroke-linecap:round; stroke-linejoin:round; stroke-width:4; stroke-opacity:1; fill:none" points="1254.26,1486.45 1254.26,1467.55 "/>
<polyline clip-path="url(#clip840)" style="stroke:#000000; stroke-linecap:round; stroke-linejoin:round; stroke-width:4; stroke-opacity:1; fill:none" points="1772.42,1486.45 1772.42,1467.55 "/>
<polyline clip-path="url(#clip840)" style="stroke:#000000; stroke-linecap:round; stroke-linejoin:round; stroke-width:4; stroke-opacity:1; fill:none" points="2290.58,1486.45 2290.58,1467.55 "/>
<path clip-path="url(#clip840)" d="M180.247 1517.37 Q176.636 1517.37 174.808 1520.93 Q173.002 1524.47 173.002 1531.6 Q173.002 1538.71 174.808 1542.27 Q176.636 1545.82 180.247 1545.82 Q183.882 1545.82 185.687 1542.27 Q187.516 1538.71 187.516 1531.6 Q187.516 1524.47 185.687 1520.93 Q183.882 1517.37 180.247 1517.37 M180.247 1513.66 Q186.057 1513.66 189.113 1518.27 Q192.192 1522.85 192.192 1531.6 Q192.192 1540.33 189.113 1544.94 Q186.057 1549.52 180.247 1549.52 Q174.437 1549.52 171.358 1544.94 Q168.303 1540.33 168.303 1531.6 Q168.303 1522.85 171.358 1518.27 Q174.437 1513.66 180.247 1513.66 Z" fill="#000000" fill-rule="nonzero" fill-opacity="1" /><path clip-path="url(#clip840)" d="M200.409 1542.97 L205.294 1542.97 L205.294 1548.85 L200.409 1548.85 L200.409 1542.97 Z" fill="#000000" fill-rule="nonzero" fill-opacity="1" /><path clip-path="url(#clip840)" d="M225.479 1517.37 Q221.867 1517.37 220.039 1520.93 Q218.233 1524.47 218.233 1531.6 Q218.233 1538.71 220.039 1542.27 Q221.867 1545.82 225.479 1545.82 Q229.113 1545.82 230.918 1542.27 Q232.747 1538.71 232.747 1531.6 Q232.747 1524.47 230.918 1520.93 Q229.113 1517.37 225.479 1517.37 M225.479 1513.66 Q231.289 1513.66 234.344 1518.27 Q237.423 1522.85 237.423 1531.6 Q237.423 1540.33 234.344 1544.94 Q231.289 1549.52 225.479 1549.52 Q219.668 1549.52 216.59 1544.94 Q213.534 1540.33 213.534 1531.6 Q213.534 1522.85 216.59 1518.27 Q219.668 1513.66 225.479 1513.66 Z" fill="#000000" fill-rule="nonzero" fill-opacity="1" /><path clip-path="url(#clip840)" d="M255.64 1517.37 Q252.029 1517.37 250.201 1520.93 Q248.395 1524.47 248.395 1531.6 Q248.395 1538.71 250.201 1542.27 Q252.029 1545.82 255.64 1545.82 Q259.275 1545.82 261.08 1542.27 Q262.909 1538.71 262.909 1531.6 Q262.909 1524.47 261.08 1520.93 Q259.275 1517.37 255.64 1517.37 M255.64 1513.66 Q261.451 1513.66 264.506 1518.27 Q267.585 1522.85 267.585 1531.6 Q267.585 1540.33 264.506 1544.94 Q261.451 1549.52 255.64 1549.52 Q249.83 1549.52 246.752 1544.94 Q243.696 1540.33 243.696 1531.6 Q243.696 1522.85 246.752 1518.27 Q249.83 1513.66 255.64 1513.66 Z" fill="#000000" fill-rule="nonzero" fill-opacity="1" /><path clip-path="url(#clip840)" d="M698.903 1517.37 Q695.292 1517.37 693.463 1520.93 Q691.658 1524.47 691.658 1531.6 Q691.658 1538.71 693.463 1542.27 Q695.292 1545.82 698.903 1545.82 Q702.538 1545.82 704.343 1542.27 Q706.172 1538.71 706.172 1531.6 Q706.172 1524.47 704.343 1520.93 Q702.538 1517.37 698.903 1517.37 M698.903 1513.66 Q704.713 1513.66 707.769 1518.27 Q710.848 1522.85 710.848 1531.6 Q710.848 1540.33 707.769 1544.94 Q704.713 1549.52 698.903 1549.52 Q693.093 1549.52 690.014 1544.94 Q686.959 1540.33 686.959 1531.6 Q686.959 1522.85 690.014 1518.27 Q693.093 1513.66 698.903 1513.66 Z" fill="#000000" fill-rule="nonzero" fill-opacity="1" /><path clip-path="url(#clip840)" d="M719.065 1542.97 L723.949 1542.97 L723.949 1548.85 L719.065 1548.85 L719.065 1542.97 Z" fill="#000000" fill-rule="nonzero" fill-opacity="1" /><path clip-path="url(#clip840)" d="M738.162 1544.91 L754.482 1544.91 L754.482 1548.85 L732.537 1548.85 L732.537 1544.91 Q735.199 1542.16 739.783 1537.53 Q744.389 1532.88 745.57 1531.53 Q747.815 1529.01 748.695 1527.27 Q749.597 1525.51 749.597 1523.82 Q749.597 1521.07 747.653 1519.33 Q745.732 1517.6 742.63 1517.6 Q740.431 1517.6 737.977 1518.36 Q735.547 1519.13 732.769 1520.68 L732.769 1515.95 Q735.593 1514.82 738.047 1514.24 Q740.5 1513.66 742.537 1513.66 Q747.908 1513.66 751.102 1516.35 Q754.296 1519.03 754.296 1523.52 Q754.296 1525.65 753.486 1527.57 Q752.699 1529.47 750.593 1532.07 Q750.014 1532.74 746.912 1535.95 Q743.81 1539.15 738.162 1544.91 Z" fill="#000000" fill-rule="nonzero" fill-opacity="1" /><path clip-path="url(#clip840)" d="M764.343 1514.29 L782.699 1514.29 L782.699 1518.22 L768.625 1518.22 L768.625 1526.7 Q769.644 1526.35 770.662 1526.19 Q771.681 1526 772.699 1526 Q778.486 1526 781.866 1529.17 Q785.245 1532.34 785.245 1537.76 Q785.245 1543.34 781.773 1546.44 Q778.301 1549.52 771.982 1549.52 Q769.806 1549.52 767.537 1549.15 Q765.292 1548.78 762.884 1548.04 L762.884 1543.34 Q764.968 1544.47 767.19 1545.03 Q769.412 1545.58 771.889 1545.58 Q775.894 1545.58 778.232 1543.48 Q780.57 1541.37 780.57 1537.76 Q780.57 1534.15 778.232 1532.04 Q775.894 1529.94 771.889 1529.94 Q770.014 1529.94 768.139 1530.35 Q766.287 1530.77 764.343 1531.65 L764.343 1514.29 Z" fill="#000000" fill-rule="nonzero" fill-opacity="1" /><path clip-path="url(#clip840)" d="M1216.56 1517.37 Q1212.95 1517.37 1211.12 1520.93 Q1209.32 1524.47 1209.32 1531.6 Q1209.32 1538.71 1211.12 1542.27 Q1212.95 1545.82 1216.56 1545.82 Q1220.2 1545.82 1222 1542.27 Q1223.83 1538.71 1223.83 1531.6 Q1223.83 1524.47 1222 1520.93 Q1220.2 1517.37 1216.56 1517.37 M1216.56 1513.66 Q1222.37 1513.66 1225.43 1518.27 Q1228.51 1522.85 1228.51 1531.6 Q1228.51 1540.33 1225.43 1544.94 Q1222.37 1549.52 1216.56 1549.52 Q1210.75 1549.52 1207.68 1544.94 Q1204.62 1540.33 1204.62 1531.6 Q1204.62 1522.85 1207.68 1518.27 Q1210.75 1513.66 1216.56 1513.66 Z" fill="#000000" fill-rule="nonzero" fill-opacity="1" /><path clip-path="url(#clip840)" d="M1236.73 1542.97 L1241.61 1542.97 L1241.61 1548.85 L1236.73 1548.85 L1236.73 1542.97 Z" fill="#000000" fill-rule="nonzero" fill-opacity="1" /><path clip-path="url(#clip840)" d="M1251.84 1514.29 L1270.2 1514.29 L1270.2 1518.22 L1256.12 1518.22 L1256.12 1526.7 Q1257.14 1526.35 1258.16 1526.19 Q1259.18 1526 1260.2 1526 Q1265.98 1526 1269.36 1529.17 Q1272.74 1532.34 1272.74 1537.76 Q1272.74 1543.34 1269.27 1546.44 Q1265.8 1549.52 1259.48 1549.52 Q1257.3 1549.52 1255.04 1549.15 Q1252.79 1548.78 1250.38 1548.04 L1250.38 1543.34 Q1252.47 1544.47 1254.69 1545.03 Q1256.91 1545.58 1259.39 1545.58 Q1263.39 1545.58 1265.73 1543.48 Q1268.07 1541.37 1268.07 1537.76 Q1268.07 1534.15 1265.73 1532.04 Q1263.39 1529.94 1259.39 1529.94 Q1257.51 1529.94 1255.64 1530.35 Q1253.79 1530.77 1251.84 1531.65 L1251.84 1514.29 Z" fill="#000000" fill-rule="nonzero" fill-opacity="1" /><path clip-path="url(#clip840)" d="M1291.96 1517.37 Q1288.35 1517.37 1286.52 1520.93 Q1284.71 1524.47 1284.71 1531.6 Q1284.71 1538.71 1286.52 1542.27 Q1288.35 1545.82 1291.96 1545.82 Q1295.59 1545.82 1297.4 1542.27 Q1299.23 1538.71 1299.23 1531.6 Q1299.23 1524.47 1297.4 1520.93 Q1295.59 1517.37 1291.96 1517.37 M1291.96 1513.66 Q1297.77 1513.66 1300.82 1518.27 Q1303.9 1522.85 1303.9 1531.6 Q1303.9 1540.33 1300.82 1544.94 Q1297.77 1549.52 1291.96 1549.52 Q1286.15 1549.52 1283.07 1544.94 Q1280.01 1540.33 1280.01 1531.6 Q1280.01 1522.85 1283.07 1518.27 Q1286.15 1513.66 1291.96 1513.66 Z" fill="#000000" fill-rule="nonzero" fill-opacity="1" /><path clip-path="url(#clip840)" d="M1735.22 1517.37 Q1731.61 1517.37 1729.78 1520.93 Q1727.97 1524.47 1727.97 1531.6 Q1727.97 1538.71 1729.78 1542.27 Q1731.61 1545.82 1735.22 1545.82 Q1738.85 1545.82 1740.66 1542.27 Q1742.49 1538.71 1742.49 1531.6 Q1742.49 1524.47 1740.66 1520.93 Q1738.85 1517.37 1735.22 1517.37 M1735.22 1513.66 Q1741.03 1513.66 1744.09 1518.27 Q1747.16 1522.85 1747.16 1531.6 Q1747.16 1540.33 1744.09 1544.94 Q1741.03 1549.52 1735.22 1549.52 Q1729.41 1549.52 1726.33 1544.94 Q1723.28 1540.33 1723.28 1531.6 Q1723.28 1522.85 1726.33 1518.27 Q1729.41 1513.66 1735.22 1513.66 Z" fill="#000000" fill-rule="nonzero" fill-opacity="1" /><path clip-path="url(#clip840)" d="M1755.38 1542.97 L1760.27 1542.97 L1760.27 1548.85 L1755.38 1548.85 L1755.38 1542.97 Z" fill="#000000" fill-rule="nonzero" fill-opacity="1" /><path clip-path="url(#clip840)" d="M1769.27 1514.29 L1791.49 1514.29 L1791.49 1516.28 L1778.95 1548.85 L1774.06 1548.85 L1785.87 1518.22 L1769.27 1518.22 L1769.27 1514.29 Z" fill="#000000" fill-rule="nonzero" fill-opacity="1" /><path clip-path="url(#clip840)" d="M1800.66 1514.29 L1819.02 1514.29 L1819.02 1518.22 L1804.94 1518.22 L1804.94 1526.7 Q1805.96 1526.35 1806.98 1526.19 Q1808 1526 1809.02 1526 Q1814.8 1526 1818.18 1529.17 Q1821.56 1532.34 1821.56 1537.76 Q1821.56 1543.34 1818.09 1546.44 Q1814.62 1549.52 1808.3 1549.52 Q1806.12 1549.52 1803.85 1549.15 Q1801.61 1548.78 1799.2 1548.04 L1799.2 1543.34 Q1801.28 1544.47 1803.51 1545.03 Q1805.73 1545.58 1808.21 1545.58 Q1812.21 1545.58 1814.55 1543.48 Q1816.89 1541.37 1816.89 1537.76 Q1816.89 1534.15 1814.55 1532.04 Q1812.21 1529.94 1808.21 1529.94 Q1806.33 1529.94 1804.46 1530.35 Q1802.6 1530.77 1800.66 1531.65 L1800.66 1514.29 Z" fill="#000000" fill-rule="nonzero" fill-opacity="1" /><path clip-path="url(#clip840)" d="M2242.65 1544.91 L2250.29 1544.91 L2250.29 1518.55 L2241.98 1520.21 L2241.98 1515.95 L2250.24 1514.29 L2254.92 1514.29 L2254.92 1544.91 L2262.56 1544.91 L2262.56 1548.85 L2242.65 1548.85 L2242.65 1544.91 Z" fill="#000000" fill-rule="nonzero" fill-opacity="1" /><path clip-path="url(#clip840)" d="M2272 1542.97 L2276.88 1542.97 L2276.88 1548.85 L2272 1548.85 L2272 1542.97 Z" fill="#000000" fill-rule="nonzero" fill-opacity="1" /><path clip-path="url(#clip840)" d="M2297.07 1517.37 Q2293.46 1517.37 2291.63 1520.93 Q2289.82 1524.47 2289.82 1531.6 Q2289.82 1538.71 2291.63 1542.27 Q2293.46 1545.82 2297.07 1545.82 Q2300.7 1545.82 2302.51 1542.27 Q2304.34 1538.71 2304.34 1531.6 Q2304.34 1524.47 2302.51 1520.93 Q2300.7 1517.37 2297.07 1517.37 M2297.07 1513.66 Q2302.88 1513.66 2305.94 1518.27 Q2309.01 1522.85 2309.01 1531.6 Q2309.01 1540.33 2305.94 1544.94 Q2302.88 1549.52 2297.07 1549.52 Q2291.26 1549.52 2288.18 1544.94 Q2285.13 1540.33 2285.13 1531.6 Q2285.13 1522.85 2288.18 1518.27 Q2291.26 1513.66 2297.07 1513.66 Z" fill="#000000" fill-rule="nonzero" fill-opacity="1" /><path clip-path="url(#clip840)" d="M2327.23 1517.37 Q2323.62 1517.37 2321.79 1520.93 Q2319.99 1524.47 2319.99 1531.6 Q2319.99 1538.71 2321.79 1542.27 Q2323.62 1545.82 2327.23 1545.82 Q2330.87 1545.82 2332.67 1542.27 Q2334.5 1538.71 2334.5 1531.6 Q2334.5 1524.47 2332.67 1520.93 Q2330.87 1517.37 2327.23 1517.37 M2327.23 1513.66 Q2333.04 1513.66 2336.1 1518.27 Q2339.18 1522.85 2339.18 1531.6 Q2339.18 1540.33 2336.1 1544.94 Q2333.04 1549.52 2327.23 1549.52 Q2321.42 1549.52 2318.34 1544.94 Q2315.29 1540.33 2315.29 1531.6 Q2315.29 1522.85 2318.34 1518.27 Q2321.42 1513.66 2327.23 1513.66 Z" fill="#000000" fill-rule="nonzero" fill-opacity="1" /><polyline clip-path="url(#clip840)" style="stroke:#000000; stroke-linecap:round; stroke-linejoin:round; stroke-width:4; stroke-opacity:1; fill:none" points="155.765,1486.45 155.765,47.2441 "/>
<polyline clip-path="url(#clip840)" style="stroke:#000000; stroke-linecap:round; stroke-linejoin:round; stroke-width:4; stroke-opacity:1; fill:none" points="155.765,1341.44 174.663,1341.44 "/>
<polyline clip-path="url(#clip840)" style="stroke:#000000; stroke-linecap:round; stroke-linejoin:round; stroke-width:4; stroke-opacity:1; fill:none" points="155.765,1112.56 174.663,1112.56 "/>
<polyline clip-path="url(#clip840)" style="stroke:#000000; stroke-linecap:round; stroke-linejoin:round; stroke-width:4; stroke-opacity:1; fill:none" points="155.765,883.674 174.663,883.674 "/>
<polyline clip-path="url(#clip840)" style="stroke:#000000; stroke-linecap:round; stroke-linejoin:round; stroke-width:4; stroke-opacity:1; fill:none" points="155.765,654.79 174.663,654.79 "/>
<polyline clip-path="url(#clip840)" style="stroke:#000000; stroke-linecap:round; stroke-linejoin:round; stroke-width:4; stroke-opacity:1; fill:none" points="155.765,425.906 174.663,425.906 "/>
<polyline clip-path="url(#clip840)" style="stroke:#000000; stroke-linecap:round; stroke-linejoin:round; stroke-width:4; stroke-opacity:1; fill:none" points="155.765,197.022 174.663,197.022 "/>
<path clip-path="url(#clip840)" d="M63.5847 1327.24 Q59.9736 1327.24 58.1449 1330.81 Q56.3393 1334.35 56.3393 1341.48 Q56.3393 1348.58 58.1449 1352.15 Q59.9736 1355.69 63.5847 1355.69 Q67.2189 1355.69 69.0244 1352.15 Q70.8531 1348.58 70.8531 1341.48 Q70.8531 1334.35 69.0244 1330.81 Q67.2189 1327.24 63.5847 1327.24 M63.5847 1323.54 Q69.3948 1323.54 72.4503 1328.14 Q75.529 1332.73 75.529 1341.48 Q75.529 1350.2 72.4503 1354.81 Q69.3948 1359.39 63.5847 1359.39 Q57.7745 1359.39 54.6958 1354.81 Q51.6403 1350.2 51.6403 1341.48 Q51.6403 1332.73 54.6958 1328.14 Q57.7745 1323.54 63.5847 1323.54 Z" fill="#000000" fill-rule="nonzero" fill-opacity="1" /><path clip-path="url(#clip840)" d="M83.7466 1352.84 L88.6308 1352.84 L88.6308 1358.72 L83.7466 1358.72 L83.7466 1352.84 Z" fill="#000000" fill-rule="nonzero" fill-opacity="1" /><path clip-path="url(#clip840)" d="M98.8622 1324.16 L117.219 1324.16 L117.219 1328.1 L103.145 1328.1 L103.145 1336.57 Q104.163 1336.22 105.182 1336.06 Q106.2 1335.88 107.219 1335.88 Q113.006 1335.88 116.385 1339.05 Q119.765 1342.22 119.765 1347.63 Q119.765 1353.21 116.293 1356.31 Q112.82 1359.39 106.501 1359.39 Q104.325 1359.39 102.057 1359.02 Q99.8113 1358.65 97.4039 1357.91 L97.4039 1353.21 Q99.4872 1354.35 101.709 1354.9 Q103.932 1355.46 106.408 1355.46 Q110.413 1355.46 112.751 1353.35 Q115.089 1351.25 115.089 1347.63 Q115.089 1344.02 112.751 1341.92 Q110.413 1339.81 106.408 1339.81 Q104.534 1339.81 102.659 1340.23 Q100.807 1340.64 98.8622 1341.52 L98.8622 1324.16 Z" fill="#000000" fill-rule="nonzero" fill-opacity="1" /><path clip-path="url(#clip840)" d="M53.3995 1125.9 L61.0384 1125.9 L61.0384 1099.54 L52.7282 1101.2 L52.7282 1096.94 L60.9921 1095.28 L65.668 1095.28 L65.668 1125.9 L73.3068 1125.9 L73.3068 1129.84 L53.3995 1129.84 L53.3995 1125.9 Z" fill="#000000" fill-rule="nonzero" fill-opacity="1" /><path clip-path="url(#clip840)" d="M82.7512 1123.96 L87.6354 1123.96 L87.6354 1129.84 L82.7512 1129.84 L82.7512 1123.96 Z" fill="#000000" fill-rule="nonzero" fill-opacity="1" /><path clip-path="url(#clip840)" d="M107.821 1098.36 Q104.209 1098.36 102.381 1101.92 Q100.575 1105.46 100.575 1112.59 Q100.575 1119.7 102.381 1123.26 Q104.209 1126.81 107.821 1126.81 Q111.455 1126.81 113.26 1123.26 Q115.089 1119.7 115.089 1112.59 Q115.089 1105.46 113.26 1101.92 Q111.455 1098.36 107.821 1098.36 M107.821 1094.65 Q113.631 1094.65 116.686 1099.26 Q119.765 1103.84 119.765 1112.59 Q119.765 1121.32 116.686 1125.93 Q113.631 1130.51 107.821 1130.51 Q102.01 1130.51 98.9317 1125.93 Q95.8761 1121.32 95.8761 1112.59 Q95.8761 1103.84 98.9317 1099.26 Q102.01 1094.65 107.821 1094.65 Z" fill="#000000" fill-rule="nonzero" fill-opacity="1" /><path clip-path="url(#clip840)" d="M54.3949 897.019 L62.0337 897.019 L62.0337 870.653 L53.7236 872.32 L53.7236 868.061 L61.9874 866.394 L66.6633 866.394 L66.6633 897.019 L74.3022 897.019 L74.3022 900.954 L54.3949 900.954 L54.3949 897.019 Z" fill="#000000" fill-rule="nonzero" fill-opacity="1" /><path clip-path="url(#clip840)" d="M83.7466 895.075 L88.6308 895.075 L88.6308 900.954 L83.7466 900.954 L83.7466 895.075 Z" fill="#000000" fill-rule="nonzero" fill-opacity="1" /><path clip-path="url(#clip840)" d="M98.8622 866.394 L117.219 866.394 L117.219 870.329 L103.145 870.329 L103.145 878.802 Q104.163 878.454 105.182 878.292 Q106.2 878.107 107.219 878.107 Q113.006 878.107 116.385 881.278 Q119.765 884.45 119.765 889.866 Q119.765 895.445 116.293 898.547 Q112.82 901.625 106.501 901.625 Q104.325 901.625 102.057 901.255 Q99.8113 900.885 97.4039 900.144 L97.4039 895.445 Q99.4872 896.579 101.709 897.135 Q103.932 897.69 106.408 897.69 Q110.413 897.69 112.751 895.584 Q115.089 893.477 115.089 889.866 Q115.089 886.255 112.751 884.149 Q110.413 882.042 106.408 882.042 Q104.534 882.042 102.659 882.459 Q100.807 882.876 98.8622 883.755 L98.8622 866.394 Z" fill="#000000" fill-rule="nonzero" fill-opacity="1" /><path clip-path="url(#clip840)" d="M56.6171 668.135 L72.9365 668.135 L72.9365 672.07 L50.9921 672.07 L50.9921 668.135 Q53.6541 665.38 58.2375 660.751 Q62.8439 656.098 64.0245 654.755 Q66.2698 652.232 67.1494 650.496 Q68.0522 648.737 68.0522 647.047 Q68.0522 644.292 66.1078 642.556 Q64.1865 640.82 61.0847 640.82 Q58.8856 640.82 56.4319 641.584 Q54.0014 642.348 51.2236 643.899 L51.2236 639.177 Q54.0477 638.043 56.5014 637.464 Q58.955 636.885 60.9921 636.885 Q66.3624 636.885 69.5568 639.57 Q72.7513 642.255 72.7513 646.746 Q72.7513 648.876 71.9411 650.797 Q71.1541 652.695 69.0476 655.288 Q68.4689 655.959 65.367 659.177 Q62.2652 662.371 56.6171 668.135 Z" fill="#000000" fill-rule="nonzero" fill-opacity="1" /><path clip-path="url(#clip840)" d="M82.7512 666.191 L87.6354 666.191 L87.6354 672.07 L82.7512 672.07 L82.7512 666.191 Z" fill="#000000" fill-rule="nonzero" fill-opacity="1" /><path clip-path="url(#clip840)" d="M107.821 640.589 Q104.209 640.589 102.381 644.154 Q100.575 647.695 100.575 654.825 Q100.575 661.931 102.381 665.496 Q104.209 669.038 107.821 669.038 Q111.455 669.038 113.26 665.496 Q115.089 661.931 115.089 654.825 Q115.089 647.695 113.26 644.154 Q111.455 640.589 107.821 640.589 M107.821 636.885 Q113.631 636.885 116.686 641.492 Q119.765 646.075 119.765 654.825 Q119.765 663.552 116.686 668.158 Q113.631 672.741 107.821 672.741 Q102.01 672.741 98.9317 668.158 Q95.8761 663.552 95.8761 654.825 Q95.8761 646.075 98.9317 641.492 Q102.01 636.885 107.821 636.885 Z" fill="#000000" fill-rule="nonzero" fill-opacity="1" /><path clip-path="url(#clip840)" d="M57.6125 439.251 L73.9318 439.251 L73.9318 443.186 L51.9875 443.186 L51.9875 439.251 Q54.6495 436.496 59.2328 431.867 Q63.8393 427.214 65.0198 425.871 Q67.2652 423.348 68.1448 421.612 Q69.0476 419.853 69.0476 418.163 Q69.0476 415.408 67.1032 413.672 Q65.1819 411.936 62.08 411.936 Q59.881 411.936 57.4273 412.7 Q54.9967 413.464 52.219 415.015 L52.219 410.293 Q55.043 409.158 57.4967 408.58 Q59.9504 408.001 61.9874 408.001 Q67.3578 408.001 70.5522 410.686 Q73.7466 413.371 73.7466 417.862 Q73.7466 419.992 72.9365 421.913 Q72.1494 423.811 70.0429 426.404 Q69.4642 427.075 66.3624 430.293 Q63.2606 433.487 57.6125 439.251 Z" fill="#000000" fill-rule="nonzero" fill-opacity="1" /><path clip-path="url(#clip840)" d="M83.7466 437.306 L88.6308 437.306 L88.6308 443.186 L83.7466 443.186 L83.7466 437.306 Z" fill="#000000" fill-rule="nonzero" fill-opacity="1" /><path clip-path="url(#clip840)" d="M98.8622 408.626 L117.219 408.626 L117.219 412.561 L103.145 412.561 L103.145 421.033 Q104.163 420.686 105.182 420.524 Q106.2 420.339 107.219 420.339 Q113.006 420.339 116.385 423.51 Q119.765 426.682 119.765 432.098 Q119.765 437.677 116.293 440.779 Q112.82 443.857 106.501 443.857 Q104.325 443.857 102.057 443.487 Q99.8113 443.117 97.4039 442.376 L97.4039 437.677 Q99.4872 438.811 101.709 439.367 Q103.932 439.922 106.408 439.922 Q110.413 439.922 112.751 437.816 Q115.089 435.709 115.089 432.098 Q115.089 428.487 112.751 426.381 Q110.413 424.274 106.408 424.274 Q104.534 424.274 102.659 424.691 Q100.807 425.107 98.8622 425.987 L98.8622 408.626 Z" fill="#000000" fill-rule="nonzero" fill-opacity="1" /><path clip-path="url(#clip840)" d="M66.7559 195.668 Q70.1124 196.385 71.9874 198.654 Q73.8855 200.922 73.8855 204.256 Q73.8855 209.371 70.367 212.172 Q66.8485 214.973 60.3671 214.973 Q58.1912 214.973 55.8764 214.534 Q53.5847 214.117 51.131 213.26 L51.131 208.746 Q53.0754 209.881 55.3903 210.459 Q57.7051 211.038 60.2282 211.038 Q64.6263 211.038 66.918 209.302 Q69.2328 207.566 69.2328 204.256 Q69.2328 201.2 67.08 199.487 Q64.9504 197.751 61.131 197.751 L57.1032 197.751 L57.1032 193.909 L61.3161 193.909 Q64.7652 193.909 66.5939 192.543 Q68.4226 191.154 68.4226 188.561 Q68.4226 185.899 66.5245 184.487 Q64.6495 183.052 61.131 183.052 Q59.2097 183.052 57.0106 183.469 Q54.8115 183.886 52.1727 184.765 L52.1727 180.599 Q54.8347 179.858 57.1495 179.487 Q59.4875 179.117 61.5476 179.117 Q66.8717 179.117 69.9735 181.548 Q73.0753 183.955 73.0753 188.075 Q73.0753 190.946 71.4318 192.936 Q69.7883 194.904 66.7559 195.668 Z" fill="#000000" fill-rule="nonzero" fill-opacity="1" /><path clip-path="url(#clip840)" d="M82.7512 208.422 L87.6354 208.422 L87.6354 214.302 L82.7512 214.302 L82.7512 208.422 Z" fill="#000000" fill-rule="nonzero" fill-opacity="1" /><path clip-path="url(#clip840)" d="M107.821 182.821 Q104.209 182.821 102.381 186.386 Q100.575 189.927 100.575 197.057 Q100.575 204.163 102.381 207.728 Q104.209 211.27 107.821 211.27 Q111.455 211.27 113.26 207.728 Q115.089 204.163 115.089 197.057 Q115.089 189.927 113.26 186.386 Q111.455 182.821 107.821 182.821 M107.821 179.117 Q113.631 179.117 116.686 183.723 Q119.765 188.307 119.765 197.057 Q119.765 205.784 116.686 210.39 Q113.631 214.973 107.821 214.973 Q102.01 214.973 98.9317 210.39 Q95.8761 205.784 95.8761 197.057 Q95.8761 188.307 98.9317 183.723 Q102.01 179.117 107.821 179.117 Z" fill="#000000" fill-rule="nonzero" fill-opacity="1" /><path clip-path="url(#clip841)" d="M217.944 1341.44 L425.207 1370.28 L632.47 1385.08 L839.734 1409.27 L1047 1421.59 L1254.26 1419.2 L1461.52 1415.53 L1668.79 1412.06 L1876.05 1428.03 L2083.31 1445.72 L2290.58 1443.56 L2290.58 87.9763 L2083.31 422.542 L1876.05 547.181 L1668.79 608.44 L1461.52 746.998 L1254.26 929.975 L1047 1093.72 L839.734 1096.99 L632.47 1089.09 L425.207 1123.16 L217.944 1341.44  Z" fill="#009af9" fill-rule="evenodd" fill-opacity="0.2"/>
<polyline clip-path="url(#clip841)" style="stroke:#009af9; stroke-linecap:round; stroke-linejoin:round; stroke-width:12; stroke-opacity:1; fill:none" points="217.944,1341.44 425.207,1291.18 632.47,1277.85 839.734,1270.54 1047,1289.61 1254.26,1235.36 1461.52,1250.48 1668.79,1303.01 1876.05,1316.28 2083.31,1322.06 2290.58,1229.14 "/>
</svg>
