<?xml version="1.0" encoding="utf-8"?>
<svg xmlns="http://www.w3.org/2000/svg" xmlns:xlink="http://www.w3.org/1999/xlink" width="600" height="400" viewBox="0 0 2400 1600">
<defs>
  <clipPath id="clip550">
    <rect x="0" y="0" width="2400" height="1600"/>
  </clipPath>
</defs>
<path clip-path="url(#clip550)" d="M0 1600 L2400 1600 L2400 0 L0 0  Z" fill="#ffffff" fill-rule="evenodd" fill-opacity="1"/>
<defs>
  <clipPath id="clip551">
    <rect x="155" y="47" width="2198" height="1440"/>
  </clipPath>
</defs>
<path clip-path="url(#clip550)" d="M155.765 1486.45 L2352.76 1486.45 L2352.76 47.2441 L155.765 47.2441  Z" fill="#ffffff" fill-rule="evenodd" fill-opacity="1"/>
<polyline clip-path="url(#clip551)" style="stroke:#000000; stroke-linecap:round; stroke-linejoin:round; stroke-width:2; stroke-opacity:0.1; fill:none" points="217.944,1486.45 217.944,47.2441 "/>
<polyline clip-path="url(#clip551)" style="stroke:#000000; stroke-linecap:round; stroke-linejoin:round; stroke-width:2; stroke-opacity:0.1; fill:none" points="736.102,1486.45 736.102,47.2441 "/>
<polyline clip-path="url(#clip551)" style="stroke:#000000; stroke-linecap:round; stroke-linejoin:round; stroke-width:2; stroke-opacity:0.1; fill:none" points="1254.26,1486.45 1254.26,47.2441 "/>
<polyline clip-path="url(#clip551)" style="stroke:#000000; stroke-linecap:round; stroke-linejoin:round; stroke-width:2; stroke-opacity:0.1; fill:none" points="1772.42,1486.45 1772.42,47.2441 "/>
<polyline clip-path="url(#clip551)" style="stroke:#000000; stroke-linecap:round; stroke-linejoin:round; stroke-width:2; stroke-opacity:0.1; fill:none" points="2290.58,1486.45 2290.58,47.2441 "/>
<polyline clip-path="url(#clip551)" style="stroke:#000000; stroke-linecap:round; stroke-linejoin:round; stroke-width:2; stroke-opacity:0.1; fill:none" points="155.765,1358.57 2352.76,1358.57 "/>
<polyline clip-path="url(#clip551)" style="stroke:#000000; stroke-linecap:round; stroke-linejoin:round; stroke-width:2; stroke-opacity:0.1; fill:none" points="155.765,1167.06 2352.76,1167.06 "/>
<polyline clip-path="url(#clip551)" style="stroke:#000000; stroke-linecap:round; stroke-linejoin:round; stroke-width:2; stroke-opacity:0.1; fill:none" points="155.765,975.549 2352.76,975.549 "/>
<polyline clip-path="url(#clip551)" style="stroke:#000000; stroke-linecap:round; stroke-linejoin:round; stroke-width:2; stroke-opacity:0.1; fill:none" points="155.765,784.041 2352.76,784.041 "/>
<polyline clip-path="url(#clip551)" style="stroke:#000000; stroke-linecap:round; stroke-linejoin:round; stroke-width:2; stroke-opacity:0.1; fill:none" points="155.765,592.533 2352.76,592.533 "/>
<polyline clip-path="url(#clip551)" style="stroke:#000000; stroke-linecap:round; stroke-linejoin:round; stroke-width:2; stroke-opacity:0.1; fill:none" points="155.765,401.025 2352.76,401.025 "/>
<polyline clip-path="url(#clip551)" style="stroke:#000000; stroke-linecap:round; stroke-linejoin:round; stroke-width:2; stroke-opacity:0.1; fill:none" points="155.765,209.517 2352.76,209.517 "/>
<polyline clip-path="url(#clip550)" style="stroke:#000000; stroke-linecap:round; stroke-linejoin:round; stroke-width:4; stroke-opacity:1; fill:none" points="155.765,1486.45 2352.76,1486.45 "/>
<polyline clip-path="url(#clip550)" style="stroke:#000000; stroke-linecap:round; stroke-linejoin:round; stroke-width:4; stroke-opacity:1; fill:none" points="217.944,1486.45 217.944,1467.55 "/>
<polyline clip-path="url(#clip550)" style="stroke:#000000; stroke-linecap:round; stroke-linejoin:round; stroke-width:4; stroke-opacity:1; fill:none" points="736.102,1486.45 736.102,1467.55 "/>
<polyline clip-path="url(#clip550)" style="stroke:#000000; stroke-linecap:round; stroke-linejoin:round; stroke-width:4; stroke-opacity:1; fill:none" points="1254.26,1486.45 1254.26,1467.55 "/>
<polyline clip-path="url(#clip550)" style="stroke:#000000; stroke-linecap:round; stroke-linejoin:round; stroke-width:4; stroke-opacity:1; fill:none" points="1772.42,1486.45 1772.42,1467.55 "/>
<polyline clip-path="url(#clip550)" style="stroke:#000000; stroke-linecap:round; stroke-linejoin:round; stroke-width:4; stroke-opacity:1; fill:none" points="2290.58,1486.45 2290.58,1467.55 "/>
<path clip-path="url(#clip550)" d="M180.247 1517.37 Q176.636 1517.37 174.808 1520.93 Q173.002 1524.47 173.002 1531.6 Q173.002 1538.71 174.808 1542.27 Q176.636 1545.82 180.247 1545.82 Q183.882 1545.82 185.687 1542.27 Q187.516 1538.71 187.516 1531.6 Q187.516 1524.47 185.687 1520.93 Q183.882 1517.37 180.247 1517.37 M180.247 1513.66 Q186.057 1513.66 189.113 1518.27 Q192.192 1522.85 192.192 1531.6 Q192.192 1540.33 189.113 1544.94 Q186.057 1549.52 180.247 1549.52 Q174.437 1549.52 171.358 1544.94 Q168.303 1540.33 168.303 1531.6 Q168.303 1522.85 171.358 1518.27 Q174.437 1513.66 180.247 1513.66 Z" fill="#000000" fill-rule="nonzero" fill-opacity="1" /><path clip-path="url(#clip550)" d="M200.409 1542.97 L205.294 1542.97 L205.294 1548.85 L200.409 1548.85 L200.409 1542.97 Z" fill="#000000" fill-rule="nonzero" fill-opacity="1" /><path clip-path="url(#clip550)" d="M225.479 1517.37 Q221.867 1517.37 220.039 1520.93 Q218.233 1524.47 218.233 1531.6 Q218.233 1538.71 220.039 1542.27 Q221.867 1545.82 225.479 1545.82 Q229.113 1545.82 230.918 1542.27 Q232.747 1538.71 232.747 1531.6 Q232.747 1524.47 230.918 1520.93 Q229.113 1517.37 225.479 1517.37 M225.479 1513.66 Q231.289 1513.66 234.344 1518.27 Q237.423 1522.85 237.423 1531.6 Q237.423 1540.33 234.344 1544.94 Q231.289 1549.52 225.479 1549.52 Q219.668 1549.52 216.59 1544.94 Q213.534 1540.33 213.534 1531.6 Q213.534 1522.85 216.59 1518.27 Q219.668 1513.66 225.479 1513.66 Z" fill="#000000" fill-rule="nonzero" fill-opacity="1" /><path clip-path="url(#clip550)" d="M255.64 1517.37 Q252.029 1517.37 250.201 1520.93 Q248.395 1524.47 248.395 1531.6 Q248.395 1538.71 250.201 1542.27 Q252.029 1545.82 255.64 1545.82 Q259.275 1545.82 261.08 1542.27 Q262.909 1538.71 262.909 1531.6 Q262.909 1524.47 261.08 1520.93 Q259.275 1517.37 255.64 1517.37 M255.64 1513.66 Q261.451 1513.66 264.506 1518.27 Q267.585 1522.85 267.585 1531.6 Q267.585 1540.33 264.506 1544.94 Q261.451 1549.52 255.64 1549.52 Q249.83 1549.52 246.752 1544.94 Q243.696 1540.33 243.696 1531.6 Q243.696 1522.85 246.752 1518.27 Q249.83 1513.66 255.64 1513.66 Z" fill="#000000" fill-rule="nonzero" fill-opacity="1" /><path clip-path="url(#clip550)" d="M698.903 1517.37 Q695.292 1517.37 693.463 1520.93 Q691.658 1524.47 691.658 1531.6 Q691.658 1538.71 693.463 1542.27 Q695.292 1545.82 698.903 1545.82 Q702.538 1545.82 704.343 1542.27 Q706.172 1538.71 706.172 1531.6 Q706.172 1524.47 704.343 1520.93 Q702.538 1517.37 698.903 1517.37 M698.903 1513.66 Q704.713 1513.66 707.769 1518.27 Q710.848 1522.85 710.848 1531.6 Q710.848 1540.33 707.769 1544.94 Q704.713 1549.52 698.903 1549.52 Q693.093 1549.52 690.014 1544.94 Q686.959 1540.33 686.959 1531.6 Q686.959 1522.85 690.014 1518.27 Q693.093 1513.66 698.903 1513.66 Z" fill="#000000" fill-rule="nonzero" fill-opacity="1" /><path clip-path="url(#clip550)" d="M719.065 1542.97 L723.949 1542.97 L723.949 1548.85 L719.065 1548.85 L719.065 1542.97 Z" fill="#000000" fill-rule="nonzero" fill-opacity="1" /><path clip-path="url(#clip550)" d="M738.162 1544.91 L754.482 1544.91 L754.482 1548.85 L732.537 1548.85 L732.537 1544.91 Q735.199 1542.16 739.783 1537.53 Q744.389 1532.88 745.57 1531.53 Q747.815 1529.01 748.695 1527.27 Q749.597 1525.51 749.597 1523.82 Q749.597 1521.07 747.653 1519.33 Q745.732 1517.6 742.63 1517.6 Q740.431 1517.6 737.977 1518.36 Q735.547 1519.13 732.769 1520.68 L732.769 1515.95 Q735.593 1514.82 738.047 1514.24 Q740.5 1513.66 742.537 1513.66 Q747.908 1513.66 751.102 1516.35 Q754.296 1519.03 754.296 1523.52 Q754.296 1525.65 753.486 1527.57 Q752.699 1529.47 750.593 1532.07 Q750.014 1532.74 746.912 1535.95 Q743.81 1539.15 738.162 1544.91 Z" fill="#000000" fill-rule="nonzero" fill-opacity="1" /><path clip-path="url(#clip550)" d="M764.343 1514.29 L782.699 1514.29 L782.699 1518.22 L768.625 1518.22 L768.625 1526.7 Q769.644 1526.35 770.662 1526.19 Q771.681 1526 772.699 1526 Q778.486 1526 781.866 1529.17 Q785.245 1532.34 785.245 1537.76 Q785.245 1543.34 781.773 1546.44 Q778.301 1549.52 771.982 1549.52 Q769.806 1549.52 767.537 1549.15 Q765.292 1548.78 762.884 1548.04 L762.884 1543.34 Q764.968 1544.47 767.19 1545.03 Q769.412 1545.58 771.889 1545.58 Q775.894 1545.58 778.232 1543.48 Q780.57 1541.37 780.57 1537.76 Q780.57 1534.15 778.232 1532.04 Q775.894 1529.94 771.889 1529.94 Q770.014 1529.94 768.139 1530.35 Q766.287 1530.77 764.343 1531.65 L764.343 1514.29 Z" fill="#000000" fill-rule="nonzero" fill-opacity="1" /><path clip-path="url(#clip550)" d="M1216.56 1517.37 Q1212.95 1517.37 1211.12 1520.93 Q1209.32 1524.47 1209.32 1531.6 Q1209.32 1538.71 1211.12 1542.27 Q1212.95 1545.82 1216.56 1545.82 Q1220.2 1545.82 1222 1542.27 Q1223.83 1538.71 1223.83 1531.6 Q1223.83 1524.47 1222 1520.93 Q1220.2 1517.37 1216.56 1517.37 M1216.56 1513.66 Q1222.37 1513.66 1225.43 1518.27 Q1228.51 1522.85 1228.51 1531.6 Q1228.51 1540.33 1225.43 1544.94 Q1222.37 1549.52 1216.56 1549.52 Q1210.75 1549.52 1207.68 1544.94 Q1204.62 1540.33 1204.62 1531.6 Q1204.62 1522.85 1207.68 1518.27 Q1210.75 1513.66 1216.56 1513.66 Z" fill="#000000" fill-rule="nonzero" fill-opacity="1" /><path clip-path="url(#clip550)" d="M1236.73 1542.97 L1241.61 1542.97 L1241.61 1548.85 L1236.73 1548.85 L1236.73 1542.97 Z" fill="#000000" fill-rule="nonzero" fill-opacity="1" /><path clip-path="url(#clip550)" d="M1251.84 1514.29 L1270.2 1514.29 L1270.2 1518.22 L1256.12 1518.22 L1256.12 1526.7 Q1257.14 1526.35 1258.16 1526.19 Q1259.18 1526 1260.2 1526 Q1265.98 1526 1269.36 1529.17 Q1272.74 1532.34 1272.74 1537.76 Q1272.74 1543.34 1269.27 1546.44 Q1265.8 1549.52 1259.48 1549.52 Q1257.3 1549.52 1255.04 1549.15 Q1252.79 1548.78 1250.38 1548.04 L1250.38 1543.34 Q1252.47 1544.47 1254.69 1545.03 Q1256.91 1545.58 1259.39 1545.58 Q1263.39 1545.58 1265.73 1543.48 Q1268.07 1541.37 1268.07 1537.76 Q1268.07 1534.15 1265.73 1532.04 Q1263.39 1529.94 1259.39 1529.94 Q1257.51 1529.94 1255.64 1530.35 Q1253.79 1530.77 1251.84 1531.65 L1251.84 1514.29 Z" fill="#000000" fill-rule="nonzero" fill-opacity="1" /><path clip-path="url(#clip550)" d="M1291.96 1517.37 Q1288.35 1517.37 1286.52 1520.93 Q1284.71 1524.47 1284.71 1531.6 Q1284.71 1538.71 1286.52 1542.27 Q1288.35 1545.82 1291.96 1545.82 Q1295.59 1545.82 1297.4 1542.27 Q1299.23 1538.71 1299.23 1531.6 Q1299.23 1524.47 1297.4 1520.93 Q1295.59 1517.37 1291.96 1517.37 M1291.96 1513.66 Q1297.77 1513.66 1300.82 1518.27 Q1303.9 1522.85 1303.9 1531.6 Q1303.9 1540.33 1300.82 1544.94 Q1297.77 1549.52 1291.96 1549.52 Q1286.15 1549.52 1283.07 1544.94 Q1280.01 1540.33 1280.01 1531.6 Q1280.01 1522.85 1283.07 1518.27 Q1286.15 1513.66 1291.96 1513.66 Z" fill="#000000" fill-rule="nonzero" fill-opacity="1" /><path clip-path="url(#clip550)" d="M1735.22 1517.37 Q1731.61 1517.37 1729.78 1520.93 Q1727.97 1524.47 1727.97 1531.6 Q1727.97 1538.71 1729.78 1542.27 Q1731.61 1545.82 1735.22 1545.82 Q1738.85 1545.82 1740.66 1542.27 Q1742.49 1538.71 1742.49 1531.6 Q1742.49 1524.47 1740.66 1520.93 Q1738.85 1517.37 1735.22 1517.37 M1735.22 1513.66 Q1741.03 1513.66 1744.09 1518.27 Q1747.16 1522.85 1747.16 1531.6 Q1747.16 1540.33 1744.09 1544.94 Q1741.03 1549.52 1735.22 1549.52 Q1729.41 1549.52 1726.33 1544.94 Q1723.28 1540.33 1723.28 1531.6 Q1723.28 1522.85 1726.33 1518.27 Q1729.41 1513.66 1735.22 1513.66 Z" fill="#000000" fill-rule="nonzero" fill-opacity="1" /><path clip-path="url(#clip550)" d="M1755.38 1542.97 L1760.27 1542.97 L1760.27 1548.85 L1755.38 1548.85 L1755.38 1542.97 Z" fill="#000000" fill-rule="nonzero" fill-opacity="1" /><path clip-path="url(#clip550)" d="M1769.27 1514.29 L1791.49 1514.29 L1791.49 1516.28 L1778.95 1548.85 L1774.06 1548.85 L1785.87 1518.22 L1769.27 1518.22 L1769.27 1514.29 Z" fill="#000000" fill-rule="nonzero" fill-opacity="1" /><path clip-path="url(#clip550)" d="M1800.66 1514.29 L1819.02 1514.29 L1819.02 1518.22 L1804.94 1518.22 L1804.94 1526.7 Q1805.96 1526.35 1806.98 1526.19 Q1808 1526 1809.02 1526 Q1814.8 1526 1818.18 1529.17 Q1821.56 1532.34 1821.56 1537.76 Q1821.56 1543.34 1818.09 1546.44 Q1814.62 1549.52 1808.3 1549.52 Q1806.12 1549.52 1803.85 1549.15 Q1801.61 1548.78 1799.2 1548.04 L1799.2 1543.34 Q1801.28 1544.47 1803.51 1545.03 Q1805.73 1545.58 1808.21 1545.58 Q1812.21 1545.58 1814.55 1543.48 Q1816.89 1541.37 1816.89 1537.76 Q1816.89 1534.15 1814.55 1532.04 Q1812.21 1529.94 1808.21 1529.94 Q1806.33 1529.94 1804.46 1530.35 Q1802.6 1530.77 1800.66 1531.65 L1800.66 1514.29 Z" fill="#000000" fill-rule="nonzero" fill-opacity="1" /><path clip-path="url(#clip550)" d="M2242.65 1544.91 L2250.29 1544.91 L2250.29 1518.55 L2241.98 1520.21 L2241.98 1515.95 L2250.24 1514.29 L2254.92 1514.29 L2254.92 1544.91 L2262.56 1544.91 L2262.56 1548.85 L2242.65 1548.85 L2242.65 1544.91 Z" fill="#000000" fill-rule="nonzero" fill-opacity="1" /><path clip-path="url(#clip550)" d="M2272 1542.97 L2276.88 1542.97 L2276.88 1548.85 L2272 1548.85 L2272 1542.97 Z" fill="#000000" fill-rule="nonzero" fill-opacity="1" /><path clip-path="url(#clip550)" d="M2297.07 1517.37 Q2293.46 1517.37 2291.63 1520.93 Q2289.82 1524.47 2289.82 1531.6 Q2289.82 1538.71 2291.63 1542.27 Q2293.46 1545.82 2297.07 1545.82 Q2300.7 1545.82 2302.51 1542.27 Q2304.34 1538.71 2304.34 1531.6 Q2304.34 1524.47 2302.51 1520.93 Q2300.7 1517.37 2297.07 1517.37 M2297.07 1513.66 Q2302.88 1513.66 2305.94 1518.27 Q2309.01 1522.85 2309.01 1531.6 Q2309.01 1540.33 2305.94 1544.94 Q2302.88 1549.52 2297.07 1549.52 Q2291.26 1549.52 2288.18 1544.94 Q2285.13 1540.33 2285.13 1531.6 Q2285.13 1522.85 2288.18 1518.27 Q2291.26 1513.66 2297.07 1513.66 Z" fill="#000000" fill-rule="nonzero" fill-opacity="1" /><path clip-path="url(#clip550)" d="M2327.23 1517.37 Q2323.62 1517.37 2321.79 1520.93 Q2319.99 1524.47 2319.99 1531.6 Q2319.99 1538.71 2321.79 1542.27 Q2323.62 1545.82 2327.23 1545.82 Q2330.87 1545.82 2332.67 1542.27 Q2334.5 1538.71 2334.5 1531.6 Q2334.5 1524.47 2332.67 1520.93 Q2330.87 1517.37 2327.23 1517.37 M2327.23 1513.66 Q2333.04 1513.66 2336.1 1518.27 Q2339.18 1522.85 2339.18 1531.6 Q2339.18 1540.33 2336.1 1544.94 Q2333.04 1549.52 2327.23 1549.52 Q2321.42 1549.52 2318.34 1544.94 Q2315.29 1540.33 2315.29 1531.6 Q2315.29 1522.85 2318.34 1518.27 Q2321.42 1513.66 2327.23 1513.66 Z" fill="#000000" fill-rule="nonzero" fill-opacity="1" /><polyline clip-path="url(#clip550)" style="stroke:#000000; stroke-linecap:round; stroke-linejoin:round; stroke-width:4; stroke-opacity:1; fill:none" points="155.765,1486.45 155.765,47.2441 "/>
<polyline clip-path="url(#clip550)" style="stroke:#000000; stroke-linecap:round; stroke-linejoin:round; stroke-width:4; stroke-opacity:1; fill:none" points="155.765,1358.57 174.663,1358.57 "/>
<polyline clip-path="url(#clip550)" style="stroke:#000000; stroke-linecap:round; stroke-linejoin:round; stroke-width:4; stroke-opacity:1; fill:none" points="155.765,1167.06 174.663,1167.06 "/>
<polyline clip-path="url(#clip550)" style="stroke:#000000; stroke-linecap:round; stroke-linejoin:round; stroke-width:4; stroke-opacity:1; fill:none" points="155.765,975.549 174.663,975.549 "/>
<polyline clip-path="url(#clip550)" style="stroke:#000000; stroke-linecap:round; stroke-linejoin:round; stroke-width:4; stroke-opacity:1; fill:none" points="155.765,784.041 174.663,784.041 "/>
<polyline clip-path="url(#clip550)" style="stroke:#000000; stroke-linecap:round; stroke-linejoin:round; stroke-width:4; stroke-opacity:1; fill:none" points="155.765,592.533 174.663,592.533 "/>
<polyline clip-path="url(#clip550)" style="stroke:#000000; stroke-linecap:round; stroke-linejoin:round; stroke-width:4; stroke-opacity:1; fill:none" points="155.765,401.025 174.663,401.025 "/>
<polyline clip-path="url(#clip550)" style="stroke:#000000; stroke-linecap:round; stroke-linejoin:round; stroke-width:4; stroke-opacity:1; fill:none" points="155.765,209.517 174.663,209.517 "/>
<path clip-path="url(#clip550)" d="M63.5847 1344.36 Q59.9736 1344.36 58.1449 1347.93 Q56.3393 1351.47 56.3393 1358.6 Q56.3393 1365.71 58.1449 1369.27 Q59.9736 1372.81 63.5847 1372.81 Q67.2189 1372.81 69.0244 1369.27 Q70.8531 1365.71 70.8531 1358.6 Q70.8531 1351.47 69.0244 1347.93 Q67.2189 1344.36 63.5847 1344.36 M63.5847 1340.66 Q69.3948 1340.66 72.4503 1345.27 Q75.529 1349.85 75.529 1358.6 Q75.529 1367.33 72.4503 1371.93 Q69.3948 1376.52 63.5847 1376.52 Q57.7745 1376.52 54.6958 1371.93 Q51.6403 1367.33 51.6403 1358.6 Q51.6403 1349.85 54.6958 1345.27 Q57.7745 1340.66 63.5847 1340.66 Z" fill="#000000" fill-rule="nonzero" fill-opacity="1" /><path clip-path="url(#clip550)" d="M83.7466 1369.97 L88.6308 1369.97 L88.6308 1375.85 L83.7466 1375.85 L83.7466 1369.97 Z" fill="#000000" fill-rule="nonzero" fill-opacity="1" /><path clip-path="url(#clip550)" d="M98.8622 1341.29 L117.219 1341.29 L117.219 1345.22 L103.145 1345.22 L103.145 1353.69 Q104.163 1353.35 105.182 1353.18 Q106.2 1353 107.219 1353 Q113.006 1353 116.385 1356.17 Q119.765 1359.34 119.765 1364.76 Q119.765 1370.34 116.293 1373.44 Q112.82 1376.52 106.501 1376.52 Q104.325 1376.52 102.057 1376.15 Q99.8113 1375.78 97.4039 1375.04 L97.4039 1370.34 Q99.4872 1371.47 101.709 1372.03 Q103.932 1372.58 106.408 1372.58 Q110.413 1372.58 112.751 1370.48 Q115.089 1368.37 115.089 1364.76 Q115.089 1361.15 112.751 1359.04 Q110.413 1356.93 106.408 1356.93 Q104.534 1356.93 102.659 1357.35 Q100.807 1357.77 98.8622 1358.65 L98.8622 1341.29 Z" fill="#000000" fill-rule="nonzero" fill-opacity="1" /><path clip-path="url(#clip550)" d="M53.3995 1180.4 L61.0384 1180.4 L61.0384 1154.04 L52.7282 1155.7 L52.7282 1151.44 L60.9921 1149.78 L65.668 1149.78 L65.668 1180.4 L73.3068 1180.4 L73.3068 1184.34 L53.3995 1184.34 L53.3995 1180.4 Z" fill="#000000" fill-rule="nonzero" fill-opacity="1" /><path clip-path="url(#clip550)" d="M82.7512 1178.46 L87.6354 1178.46 L87.6354 1184.34 L82.7512 1184.34 L82.7512 1178.46 Z" fill="#000000" fill-rule="nonzero" fill-opacity="1" /><path clip-path="url(#clip550)" d="M107.821 1152.86 Q104.209 1152.86 102.381 1156.42 Q100.575 1159.96 100.575 1167.09 Q100.575 1174.2 102.381 1177.76 Q104.209 1181.31 107.821 1181.31 Q111.455 1181.31 113.26 1177.76 Q115.089 1174.2 115.089 1167.09 Q115.089 1159.96 113.26 1156.42 Q111.455 1152.86 107.821 1152.86 M107.821 1149.15 Q113.631 1149.15 116.686 1153.76 Q119.765 1158.34 119.765 1167.09 Q119.765 1175.82 116.686 1180.43 Q113.631 1185.01 107.821 1185.01 Q102.01 1185.01 98.9317 1180.43 Q95.8761 1175.82 95.8761 1167.09 Q95.8761 1158.34 98.9317 1153.76 Q102.01 1149.15 107.821 1149.15 Z" fill="#000000" fill-rule="nonzero" fill-opacity="1" /><path clip-path="url(#clip550)" d="M54.3949 988.894 L62.0337 988.894 L62.0337 962.528 L53.7236 964.195 L53.7236 959.936 L61.9874 958.269 L66.6633 958.269 L66.6633 988.894 L74.3022 988.894 L74.3022 992.829 L54.3949 992.829 L54.3949 988.894 Z" fill="#000000" fill-rule="nonzero" fill-opacity="1" /><path clip-path="url(#clip550)" d="M83.7466 986.95 L88.6308 986.95 L88.6308 992.829 L83.7466 992.829 L83.7466 986.95 Z" fill="#000000" fill-rule="nonzero" fill-opacity="1" /><path clip-path="url(#clip550)" d="M98.8622 958.269 L117.219 958.269 L117.219 962.204 L103.145 962.204 L103.145 970.677 Q104.163 970.329 105.182 970.167 Q106.2 969.982 107.219 969.982 Q113.006 969.982 116.385 973.153 Q119.765 976.325 119.765 981.741 Q119.765 987.32 116.293 990.422 Q112.82 993.501 106.501 993.501 Q104.325 993.501 102.057 993.13 Q99.8113 992.76 97.4039 992.019 L97.4039 987.32 Q99.4872 988.454 101.709 989.01 Q103.932 989.565 106.408 989.565 Q110.413 989.565 112.751 987.459 Q115.089 985.352 115.089 981.741 Q115.089 978.13 112.751 976.024 Q110.413 973.917 106.408 973.917 Q104.534 973.917 102.659 974.334 Q100.807 974.751 98.8622 975.63 L98.8622 958.269 Z" fill="#000000" fill-rule="nonzero" fill-opacity="1" /><path clip-path="url(#clip550)" d="M56.6171 797.386 L72.9365 797.386 L72.9365 801.321 L50.9921 801.321 L50.9921 797.386 Q53.6541 794.631 58.2375 790.002 Q62.8439 785.349 64.0245 784.006 Q66.2698 781.483 67.1494 779.747 Q68.0522 777.988 68.0522 776.298 Q68.0522 773.543 66.1078 771.807 Q64.1865 770.071 61.0847 770.071 Q58.8856 770.071 56.4319 770.835 Q54.0014 771.599 51.2236 773.15 L51.2236 768.428 Q54.0477 767.293 56.5014 766.715 Q58.955 766.136 60.9921 766.136 Q66.3624 766.136 69.5568 768.821 Q72.7513 771.506 72.7513 775.997 Q72.7513 778.127 71.9411 780.048 Q71.1541 781.946 69.0476 784.539 Q68.4689 785.21 65.367 788.428 Q62.2652 791.622 56.6171 797.386 Z" fill="#000000" fill-rule="nonzero" fill-opacity="1" /><path clip-path="url(#clip550)" d="M82.7512 795.441 L87.6354 795.441 L87.6354 801.321 L82.7512 801.321 L82.7512 795.441 Z" fill="#000000" fill-rule="nonzero" fill-opacity="1" /><path clip-path="url(#clip550)" d="M107.821 769.84 Q104.209 769.84 102.381 773.405 Q100.575 776.946 100.575 784.076 Q100.575 791.182 102.381 794.747 Q104.209 798.289 107.821 798.289 Q111.455 798.289 113.26 794.747 Q115.089 791.182 115.089 784.076 Q115.089 776.946 113.26 773.405 Q111.455 769.84 107.821 769.84 M107.821 766.136 Q113.631 766.136 116.686 770.743 Q119.765 775.326 119.765 784.076 Q119.765 792.803 116.686 797.409 Q113.631 801.992 107.821 801.992 Q102.01 801.992 98.9317 797.409 Q95.8761 792.803 95.8761 784.076 Q95.8761 775.326 98.9317 770.743 Q102.01 766.136 107.821 766.136 Z" fill="#000000" fill-rule="nonzero" fill-opacity="1" /><path clip-path="url(#clip550)" d="M57.6125 605.878 L73.9318 605.878 L73.9318 609.813 L51.9875 609.813 L51.9875 605.878 Q54.6495 603.123 59.2328 598.494 Q63.8393 593.841 65.0198 592.498 Q67.2652 589.975 68.1448 588.239 Q69.0476 586.48 69.0476 584.79 Q69.0476 582.035 67.1032 580.299 Q65.1819 578.563 62.08 578.563 Q59.881 578.563 57.4273 579.327 Q54.9967 580.091 52.219 581.642 L52.219 576.92 Q55.043 575.785 57.4967 575.207 Q59.9504 574.628 61.9874 574.628 Q67.3578 574.628 70.5522 577.313 Q73.7466 579.998 73.7466 584.489 Q73.7466 586.619 72.9365 588.54 Q72.1494 590.438 70.0429 593.031 Q69.4642 593.702 66.3624 596.919 Q63.2606 600.114 57.6125 605.878 Z" fill="#000000" fill-rule="nonzero" fill-opacity="1" /><path clip-path="url(#clip550)" d="M83.7466 603.933 L88.6308 603.933 L88.6308 609.813 L83.7466 609.813 L83.7466 603.933 Z" fill="#000000" fill-rule="nonzero" fill-opacity="1" /><path clip-path="url(#clip550)" d="M98.8622 575.253 L117.219 575.253 L117.219 579.188 L103.145 579.188 L103.145 587.66 Q104.163 587.313 105.182 587.151 Q106.2 586.966 107.219 586.966 Q113.006 586.966 116.385 590.137 Q119.765 593.308 119.765 598.725 Q119.765 604.304 116.293 607.405 Q112.82 610.484 106.501 610.484 Q104.325 610.484 102.057 610.114 Q99.8113 609.743 97.4039 609.003 L97.4039 604.304 Q99.4872 605.438 101.709 605.993 Q103.932 606.549 106.408 606.549 Q110.413 606.549 112.751 604.443 Q115.089 602.336 115.089 598.725 Q115.089 595.114 112.751 593.007 Q110.413 590.901 106.408 590.901 Q104.534 590.901 102.659 591.318 Q100.807 591.734 98.8622 592.614 L98.8622 575.253 Z" fill="#000000" fill-rule="nonzero" fill-opacity="1" /><path clip-path="url(#clip550)" d="M66.7559 399.671 Q70.1124 400.388 71.9874 402.657 Q73.8855 404.925 73.8855 408.258 Q73.8855 413.374 70.367 416.175 Q66.8485 418.976 60.3671 418.976 Q58.1912 418.976 55.8764 418.536 Q53.5847 418.12 51.131 417.263 L51.131 412.749 Q53.0754 413.883 55.3903 414.462 Q57.7051 415.041 60.2282 415.041 Q64.6263 415.041 66.918 413.305 Q69.2328 411.569 69.2328 408.258 Q69.2328 405.203 67.08 403.49 Q64.9504 401.754 61.131 401.754 L57.1032 401.754 L57.1032 397.911 L61.3161 397.911 Q64.7652 397.911 66.5939 396.546 Q68.4226 395.157 68.4226 392.564 Q68.4226 389.902 66.5245 388.49 Q64.6495 387.055 61.131 387.055 Q59.2097 387.055 57.0106 387.472 Q54.8115 387.888 52.1727 388.768 L52.1727 384.601 Q54.8347 383.86 57.1495 383.49 Q59.4875 383.12 61.5476 383.12 Q66.8717 383.12 69.9735 385.55 Q73.0753 387.958 73.0753 392.078 Q73.0753 394.948 71.4318 396.939 Q69.7883 398.907 66.7559 399.671 Z" fill="#000000" fill-rule="nonzero" fill-opacity="1" /><path clip-path="url(#clip550)" d="M82.7512 412.425 L87.6354 412.425 L87.6354 418.305 L82.7512 418.305 L82.7512 412.425 Z" fill="#000000" fill-rule="nonzero" fill-opacity="1" /><path clip-path="url(#clip550)" d="M107.821 386.823 Q104.209 386.823 102.381 390.388 Q100.575 393.93 100.575 401.059 Q100.575 408.166 102.381 411.731 Q104.209 415.272 107.821 415.272 Q111.455 415.272 113.26 411.731 Q115.089 408.166 115.089 401.059 Q115.089 393.93 113.26 390.388 Q111.455 386.823 107.821 386.823 M107.821 383.12 Q113.631 383.12 116.686 387.726 Q119.765 392.309 119.765 401.059 Q119.765 409.786 116.686 414.393 Q113.631 418.976 107.821 418.976 Q102.01 418.976 98.9317 414.393 Q95.8761 409.786 95.8761 401.059 Q95.8761 392.309 98.9317 387.726 Q102.01 383.12 107.821 383.12 Z" fill="#000000" fill-rule="nonzero" fill-opacity="1" /><path clip-path="url(#clip550)" d="M67.7513 208.162 Q71.1078 208.88 72.9827 211.148 Q74.8809 213.417 74.8809 216.75 Q74.8809 221.866 71.3624 224.667 Q67.8439 227.468 61.3624 227.468 Q59.1865 227.468 56.8717 227.028 Q54.5801 226.611 52.1264 225.755 L52.1264 221.241 Q54.0708 222.375 56.3856 222.954 Q58.7004 223.533 61.2236 223.533 Q65.6217 223.533 67.9133 221.797 Q70.2281 220.06 70.2281 216.75 Q70.2281 213.695 68.0754 211.982 Q65.9457 210.246 62.1263 210.246 L58.0986 210.246 L58.0986 206.403 L62.3115 206.403 Q65.7606 206.403 67.5893 205.037 Q69.418 203.649 69.418 201.056 Q69.418 198.394 67.5198 196.982 Q65.6448 195.547 62.1263 195.547 Q60.205 195.547 58.006 195.963 Q55.8069 196.38 53.168 197.26 L53.168 193.093 Q55.8301 192.352 58.1449 191.982 Q60.4828 191.612 62.543 191.612 Q67.867 191.612 70.9689 194.042 Q74.0707 196.449 74.0707 200.57 Q74.0707 203.44 72.4272 205.431 Q70.7837 207.399 67.7513 208.162 Z" fill="#000000" fill-rule="nonzero" fill-opacity="1" /><path clip-path="url(#clip550)" d="M83.7466 220.917 L88.6308 220.917 L88.6308 226.797 L83.7466 226.797 L83.7466 220.917 Z" fill="#000000" fill-rule="nonzero" fill-opacity="1" /><path clip-path="url(#clip550)" d="M98.8622 192.237 L117.219 192.237 L117.219 196.172 L103.145 196.172 L103.145 204.644 Q104.163 204.297 105.182 204.135 Q106.2 203.949 107.219 203.949 Q113.006 203.949 116.385 207.121 Q119.765 210.292 119.765 215.709 Q119.765 221.287 116.293 224.389 Q112.82 227.468 106.501 227.468 Q104.325 227.468 102.057 227.097 Q99.8113 226.727 97.4039 225.986 L97.4039 221.287 Q99.4872 222.422 101.709 222.977 Q103.932 223.533 106.408 223.533 Q110.413 223.533 112.751 221.426 Q115.089 219.32 115.089 215.709 Q115.089 212.098 112.751 209.991 Q110.413 207.885 106.408 207.885 Q104.534 207.885 102.659 208.301 Q100.807 208.718 98.8622 209.598 L98.8622 192.237 Z" fill="#000000" fill-rule="nonzero" fill-opacity="1" /><polyline clip-path="url(#clip551)" style="stroke:#009af9; stroke-linecap:round; stroke-linejoin:round; stroke-width:12; stroke-opacity:1; fill:none" points="217.944,1358.57 425.207,1352.76 632.47,1346.96 839.734,1307.53 1047,1259.22 1254.26,1278.5 1461.52,1320.79 1668.79,1290.65 1876.05,1322.98 2083.31,1326.99 2290.58,1322.43 "/>
<polyline clip-path="url(#clip551)" style="stroke:#000000; stroke-linecap:round; stroke-linejoin:round; stroke-width:12; stroke-opacity:1; fill:none" points="217.944,1358.57 217.944,1358.57 "/>
<polyline clip-path="url(#clip551)" style="stroke:#000000; stroke-linecap:round; stroke-linejoin:round; stroke-width:12; stroke-opacity:1; fill:none" points="425.207,1415.49 425.207,1296.25 "/>
<polyline clip-path="url(#clip551)" style="stroke:#000000; stroke-linecap:round; stroke-linejoin:round; stroke-width:12; stroke-opacity:1; fill:none" points="632.47,1419.99 632.47,1264.42 "/>
<polyline clip-path="url(#clip551)" style="stroke:#000000; stroke-linecap:round; stroke-linejoin:round; stroke-width:12; stroke-opacity:1; fill:none" points="839.734,1413.85 839.734,1198.32 "/>
<polyline clip-path="url(#clip551)" style="stroke:#000000; stroke-linecap:round; stroke-linejoin:round; stroke-width:12; stroke-opacity:1; fill:none" points="1047,1422.1 1047,1078.94 "/>
<polyline clip-path="url(#clip551)" style="stroke:#000000; stroke-linecap:round; stroke-linejoin:round; stroke-width:12; stroke-opacity:1; fill:none" points="1254.26,1445.72 1254.26,934.91 "/>
<polyline clip-path="url(#clip551)" style="stroke:#000000; stroke-linecap:round; stroke-linejoin:round; stroke-width:12; stroke-opacity:1; fill:none" points="1461.52,1429.81 1461.52,549.517 "/>
<polyline clip-path="url(#clip551)" style="stroke:#000000; stroke-linecap:round; stroke-linejoin:round; stroke-width:12; stroke-opacity:1; fill:none" points="1668.79,1429.43 1668.79,624.551 "/>
<polyline clip-path="url(#clip551)" style="stroke:#000000; stroke-linecap:round; stroke-linejoin:round; stroke-width:12; stroke-opacity:1; fill:none" points="1876.05,1414.37 1876.05,642.154 "/>
<polyline clip-path="url(#clip551)" style="stroke:#000000; stroke-linecap:round; stroke-linejoin:round; stroke-width:12; stroke-opacity:1; fill:none" points="2083.31,1413.71 2083.31,460.157 "/>
<polyline clip-path="url(#clip551)" style="stroke:#000000; stroke-linecap:round; stroke-linejoin:round; stroke-width:12; stroke-opacity:1; fill:none" points="2290.58,1413.02 2290.58,323.359 "/>
<line clip-path="url(#clip551)" x1="233.944" y1="1358.57" x2="201.944" y2="1358.57" style="stroke:#000000; stroke-width:12; stroke-opacity:1"/>
<line clip-path="url(#clip551)" x1="233.944" y1="1358.57" x2="201.944" y2="1358.57" style="stroke:#000000; stroke-width:12; stroke-opacity:1"/>
<line clip-path="url(#clip551)" x1="441.207" y1="1415.49" x2="409.207" y2="1415.49" style="stroke:#000000; stroke-width:12; stroke-opacity:1"/>
<line clip-path="url(#clip551)" x1="441.207" y1="1296.25" x2="409.207" y2="1296.25" style="stroke:#000000; stroke-width:12; stroke-opacity:1"/>
<line clip-path="url(#clip551)" x1="648.47" y1="1419.99" x2="616.47" y2="1419.99" style="stroke:#000000; stroke-width:12; stroke-opacity:1"/>
<line clip-path="url(#clip551)" x1="648.47" y1="1264.42" x2="616.47" y2="1264.42" style="stroke:#000000; stroke-width:12; stroke-opacity:1"/>
<line clip-path="url(#clip551)" x1="855.734" y1="1413.85" x2="823.734" y2="1413.85" style="stroke:#000000; stroke-width:12; stroke-opacity:1"/>
<line clip-path="url(#clip551)" x1="855.734" y1="1198.32" x2="823.734" y2="1198.32" style="stroke:#000000; stroke-width:12; stroke-opacity:1"/>
<line clip-path="url(#clip551)" x1="1063" y1="1422.1" x2="1031" y2="1422.1" style="stroke:#000000; stroke-width:12; stroke-opacity:1"/>
<line clip-path="url(#clip551)" x1="1063" y1="1078.94" x2="1031" y2="1078.94" style="stroke:#000000; stroke-width:12; stroke-opacity:1"/>
<line clip-path="url(#clip551)" x1="1270.26" y1="1445.72" x2="1238.26" y2="1445.72" style="stroke:#000000; stroke-width:12; stroke-opacity:1"/>
<line clip-path="url(#clip551)" x1="1270.26" y1="934.91" x2="1238.26" y2="934.91" style="stroke:#000000; stroke-width:12; stroke-opacity:1"/>
<line clip-path="url(#clip551)" x1="1477.52" y1="1429.81" x2="1445.52" y2="1429.81" style="stroke:#000000; stroke-width:12; stroke-opacity:1"/>
<line clip-path="url(#clip551)" x1="1477.52" y1="549.517" x2="1445.52" y2="549.517" style="stroke:#000000; stroke-width:12; stroke-opacity:1"/>
<line clip-path="url(#clip551)" x1="1684.79" y1="1429.43" x2="1652.79" y2="1429.43" style="stroke:#000000; stroke-width:12; stroke-opacity:1"/>
<line clip-path="url(#clip551)" x1="1684.79" y1="624.551" x2="1652.79" y2="624.551" style="stroke:#000000; stroke-width:12; stroke-opacity:1"/>
<line clip-path="url(#clip551)" x1="1892.05" y1="1414.37" x2="1860.05" y2="1414.37" style="stroke:#000000; stroke-width:12; stroke-opacity:1"/>
<line clip-path="url(#clip551)" x1="1892.05" y1="642.154" x2="1860.05" y2="642.154" style="stroke:#000000; stroke-width:12; stroke-opacity:1"/>
<line clip-path="url(#clip551)" x1="2099.31" y1="1413.71" x2="2067.31" y2="1413.71" style="stroke:#000000; stroke-width:12; stroke-opacity:1"/>
<line clip-path="url(#clip551)" x1="2099.31" y1="460.157" x2="2067.31" y2="460.157" style="stroke:#000000; stroke-width:12; stroke-opacity:1"/>
<line clip-path="url(#clip551)" x1="2306.58" y1="1413.02" x2="2274.58" y2="1413.02" style="stroke:#000000; stroke-width:12; stroke-opacity:1"/>
<line clip-path="url(#clip551)" x1="2306.58" y1="323.359" x2="2274.58" y2="323.359" style="stroke:#000000; stroke-width:12; stroke-opacity:1"/>
<polyline clip-path="url(#clip551)" style="stroke:#e26f46; stroke-linecap:round; stroke-linejoin:round; stroke-width:12; stroke-opacity:1; fill:none" points="217.944,1358.57 425.207,1345.92 632.47,1333.93 839.734,1323.04 1047,1296.4 1254.26,1276.15 1461.52,1263.62 1668.79,1194.27 1876.05,1124.48 2083.31,1062.72 2290.58,1095.29 "/>
<polyline clip-path="url(#clip551)" style="stroke:#000000; stroke-linecap:round; stroke-linejoin:round; stroke-width:12; stroke-opacity:1; fill:none" points="217.944,1358.57 217.944,1358.57 "/>
<polyline clip-path="url(#clip551)" style="stroke:#000000; stroke-linecap:round; stroke-linejoin:round; stroke-width:12; stroke-opacity:1; fill:none" points="425.207,1410.72 425.207,1213.02 "/>
<polyline clip-path="url(#clip551)" style="stroke:#000000; stroke-linecap:round; stroke-linejoin:round; stroke-width:12; stroke-opacity:1; fill:none" points="632.47,1419.08 632.47,1170.92 "/>
<polyline clip-path="url(#clip551)" style="stroke:#000000; stroke-linecap:round; stroke-linejoin:round; stroke-width:12; stroke-opacity:1; fill:none" points="839.734,1419.67 839.734,1084.78 "/>
<polyline clip-path="url(#clip551)" style="stroke:#000000; stroke-linecap:round; stroke-linejoin:round; stroke-width:12; stroke-opacity:1; fill:none" points="1047,1431.45 1047,936.143 "/>
<polyline clip-path="url(#clip551)" style="stroke:#000000; stroke-linecap:round; stroke-linejoin:round; stroke-width:12; stroke-opacity:1; fill:none" points="1254.26,1433.88 1254.26,720.414 "/>
<polyline clip-path="url(#clip551)" style="stroke:#000000; stroke-linecap:round; stroke-linejoin:round; stroke-width:12; stroke-opacity:1; fill:none" points="1461.52,1445.5 1461.52,649.685 "/>
<polyline clip-path="url(#clip551)" style="stroke:#000000; stroke-linecap:round; stroke-linejoin:round; stroke-width:12; stroke-opacity:1; fill:none" points="1668.79,1423.29 1668.79,363.613 "/>
<polyline clip-path="url(#clip551)" style="stroke:#000000; stroke-linecap:round; stroke-linejoin:round; stroke-width:12; stroke-opacity:1; fill:none" points="1876.05,1414.43 1876.05,160.076 "/>
<polyline clip-path="url(#clip551)" style="stroke:#000000; stroke-linecap:round; stroke-linejoin:round; stroke-width:12; stroke-opacity:1; fill:none" points="2083.31,1412.99 2083.31,160.158 "/>
<polyline clip-path="url(#clip551)" style="stroke:#000000; stroke-linecap:round; stroke-linejoin:round; stroke-width:12; stroke-opacity:1; fill:none" points="2290.58,1399.12 2290.58,87.9763 "/>
<line clip-path="url(#clip551)" x1="233.944" y1="1358.57" x2="201.944" y2="1358.57" style="stroke:#000000; stroke-width:12; stroke-opacity:1"/>
<line clip-path="url(#clip551)" x1="233.944" y1="1358.57" x2="201.944" y2="1358.57" style="stroke:#000000; stroke-width:12; stroke-opacity:1"/>
<line clip-path="url(#clip551)" x1="441.207" y1="1410.72" x2="409.207" y2="1410.72" style="stroke:#000000; stroke-width:12; stroke-opacity:1"/>
<line clip-path="url(#clip551)" x1="441.207" y1="1213.02" x2="409.207" y2="1213.02" style="stroke:#000000; stroke-width:12; stroke-opacity:1"/>
<line clip-path="url(#clip551)" x1="648.47" y1="1419.08" x2="616.47" y2="1419.08" style="stroke:#000000; stroke-width:12; stroke-opacity:1"/>
<line clip-path="url(#clip551)" x1="648.47" y1="1170.92" x2="616.47" y2="1170.92" style="stroke:#000000; stroke-width:12; stroke-opacity:1"/>
<line clip-path="url(#clip551)" x1="855.734" y1="1419.67" x2="823.734" y2="1419.67" style="stroke:#000000; stroke-width:12; stroke-opacity:1"/>
<line clip-path="url(#clip551)" x1="855.734" y1="1084.78" x2="823.734" y2="1084.78" style="stroke:#000000; stroke-width:12; stroke-opacity:1"/>
<line clip-path="url(#clip551)" x1="1063" y1="1431.45" x2="1031" y2="1431.45" style="stroke:#000000; stroke-width:12; stroke-opacity:1"/>
<line clip-path="url(#clip551)" x1="1063" y1="936.143" x2="1031" y2="936.143" style="stroke:#000000; stroke-width:12; stroke-opacity:1"/>
<line clip-path="url(#clip551)" x1="1270.26" y1="1433.88" x2="1238.26" y2="1433.88" style="stroke:#000000; stroke-width:12; stroke-opacity:1"/>
<line clip-path="url(#clip551)" x1="1270.26" y1="720.414" x2="1238.26" y2="720.414" style="stroke:#000000; stroke-width:12; stroke-opacity:1"/>
<line clip-path="url(#clip551)" x1="1477.52" y1="1445.5" x2="1445.52" y2="1445.5" style="stroke:#000000; stroke-width:12; stroke-opacity:1"/>
<line clip-path="url(#clip551)" x1="1477.52" y1="649.685" x2="1445.52" y2="649.685" style="stroke:#000000; stroke-width:12; stroke-opacity:1"/>
<line clip-path="url(#clip551)" x1="1684.79" y1="1423.29" x2="1652.79" y2="1423.29" style="stroke:#000000; stroke-width:12; stroke-opacity:1"/>
<line clip-path="url(#clip551)" x1="1684.79" y1="363.613" x2="1652.79" y2="363.613" style="stroke:#000000; stroke-width:12; stroke-opacity:1"/>
<line clip-path="url(#clip551)" x1="1892.05" y1="1414.43" x2="1860.05" y2="1414.43" style="stroke:#000000; stroke-width:12; stroke-opacity:1"/>
<line clip-path="url(#clip551)" x1="1892.05" y1="160.076" x2="1860.05" y2="160.076" style="stroke:#000000; stroke-width:12; stroke-opacity:1"/>
<line clip-path="url(#clip551)" x1="2099.31" y1="1412.99" x2="2067.31" y2="1412.99" style="stroke:#000000; stroke-width:12; stroke-opacity:1"/>
<line clip-path="url(#clip551)" x1="2099.31" y1="160.158" x2="2067.31" y2="160.158" style="stroke:#000000; stroke-width:12; stroke-opacity:1"/>
<line clip-path="url(#clip551)" x1="2306.58" y1="1399.12" x2="2274.58" y2="1399.12" style="stroke:#000000; stroke-width:12; stroke-opacity:1"/>
<line clip-path="url(#clip551)" x1="2306.58" y1="87.9763" x2="2274.58" y2="87.9763" style="stroke:#000000; stroke-width:12; stroke-opacity:1"/>
</svg>
