<?xml version="1.0" encoding="utf-8"?>
<svg xmlns="http://www.w3.org/2000/svg" xmlns:xlink="http://www.w3.org/1999/xlink" width="600" height="400" viewBox="0 0 2400 1600">
<defs>
  <clipPath id="clip580">
    <rect x="0" y="0" width="2400" height="1600"/>
  </clipPath>
</defs>
<path clip-path="url(#clip580)" d="M0 1600 L2400 1600 L2400 0 L0 0  Z" fill="#ffffff" fill-rule="evenodd" fill-opacity="1"/>
<defs>
  <clipPath id="clip581">
    <rect x="156" y="47" width="2197" height="1440"/>
  </clipPath>
</defs>
<path clip-path="url(#clip580)" d="M156.274 1486.45 L2352.76 1486.45 L2352.76 47.2441 L156.274 47.2441  Z" fill="#ffffff" fill-rule="evenodd" fill-opacity="1"/>
<polyline clip-path="url(#clip581)" style="stroke:#000000; stroke-linecap:round; stroke-linejoin:round; stroke-width:2; stroke-opacity:0.1; fill:none" points="218.439,1486.45 218.439,47.2441 "/>
<polyline clip-path="url(#clip581)" style="stroke:#000000; stroke-linecap:round; stroke-linejoin:round; stroke-width:2; stroke-opacity:0.1; fill:none" points="736.477,1486.45 736.477,47.2441 "/>
<polyline clip-path="url(#clip581)" style="stroke:#000000; stroke-linecap:round; stroke-linejoin:round; stroke-width:2; stroke-opacity:0.1; fill:none" points="1254.52,1486.45 1254.52,47.2441 "/>
<polyline clip-path="url(#clip581)" style="stroke:#000000; stroke-linecap:round; stroke-linejoin:round; stroke-width:2; stroke-opacity:0.1; fill:none" points="1772.55,1486.45 1772.55,47.2441 "/>
<polyline clip-path="url(#clip581)" style="stroke:#000000; stroke-linecap:round; stroke-linejoin:round; stroke-width:2; stroke-opacity:0.1; fill:none" points="2290.59,1486.45 2290.59,47.2441 "/>
<polyline clip-path="url(#clip581)" style="stroke:#000000; stroke-linecap:round; stroke-linejoin:round; stroke-width:2; stroke-opacity:0.1; fill:none" points="156.274,1181.16 2352.76,1181.16 "/>
<polyline clip-path="url(#clip581)" style="stroke:#000000; stroke-linecap:round; stroke-linejoin:round; stroke-width:2; stroke-opacity:0.1; fill:none" points="156.274,857.972 2352.76,857.972 "/>
<polyline clip-path="url(#clip581)" style="stroke:#000000; stroke-linecap:round; stroke-linejoin:round; stroke-width:2; stroke-opacity:0.1; fill:none" points="156.274,534.78 2352.76,534.78 "/>
<polyline clip-path="url(#clip581)" style="stroke:#000000; stroke-linecap:round; stroke-linejoin:round; stroke-width:2; stroke-opacity:0.1; fill:none" points="156.274,211.587 2352.76,211.587 "/>
<polyline clip-path="url(#clip580)" style="stroke:#000000; stroke-linecap:round; stroke-linejoin:round; stroke-width:4; stroke-opacity:1; fill:none" points="156.274,1486.45 2352.76,1486.45 "/>
<polyline clip-path="url(#clip580)" style="stroke:#000000; stroke-linecap:round; stroke-linejoin:round; stroke-width:4; stroke-opacity:1; fill:none" points="218.439,1486.45 218.439,1467.55 "/>
<polyline clip-path="url(#clip580)" style="stroke:#000000; stroke-linecap:round; stroke-linejoin:round; stroke-width:4; stroke-opacity:1; fill:none" points="736.477,1486.45 736.477,1467.55 "/>
<polyline clip-path="url(#clip580)" style="stroke:#000000; stroke-linecap:round; stroke-linejoin:round; stroke-width:4; stroke-opacity:1; fill:none" points="1254.52,1486.45 1254.52,1467.55 "/>
<polyline clip-path="url(#clip580)" style="stroke:#000000; stroke-linecap:round; stroke-linejoin:round; stroke-width:4; stroke-opacity:1; fill:none" points="1772.55,1486.45 1772.55,1467.55 "/>
<polyline clip-path="url(#clip580)" style="stroke:#000000; stroke-linecap:round; stroke-linejoin:round; stroke-width:4; stroke-opacity:1; fill:none" points="2290.59,1486.45 2290.59,1467.55 "/>
<path clip-path="url(#clip580)" d="M180.742 1517.37 Q177.131 1517.37 175.302 1520.93 Q173.497 1524.47 173.497 1531.6 Q173.497 1538.71 175.302 1542.27 Q177.131 1545.82 180.742 1545.82 Q184.376 1545.82 186.182 1542.27 Q188.011 1538.71 188.011 1531.6 Q188.011 1524.47 186.182 1520.93 Q184.376 1517.37 180.742 1517.37 M180.742 1513.66 Q186.552 1513.66 189.608 1518.27 Q192.687 1522.85 192.687 1531.6 Q192.687 1540.33 189.608 1544.94 Q186.552 1549.52 180.742 1549.52 Q174.932 1549.52 171.853 1544.94 Q168.798 1540.33 168.798 1531.6 Q168.798 1522.85 171.853 1518.27 Q174.932 1513.66 180.742 1513.66 Z" fill="#000000" fill-rule="nonzero" fill-opacity="1" /><path clip-path="url(#clip580)" d="M200.904 1542.97 L205.788 1542.97 L205.788 1548.85 L200.904 1548.85 L200.904 1542.97 Z" fill="#000000" fill-rule="nonzero" fill-opacity="1" /><path clip-path="url(#clip580)" d="M225.973 1517.37 Q222.362 1517.37 220.534 1520.93 Q218.728 1524.47 218.728 1531.6 Q218.728 1538.71 220.534 1542.27 Q222.362 1545.82 225.973 1545.82 Q229.608 1545.82 231.413 1542.27 Q233.242 1538.71 233.242 1531.6 Q233.242 1524.47 231.413 1520.93 Q229.608 1517.37 225.973 1517.37 M225.973 1513.66 Q231.784 1513.66 234.839 1518.27 Q237.918 1522.85 237.918 1531.6 Q237.918 1540.33 234.839 1544.94 Q231.784 1549.52 225.973 1549.52 Q220.163 1549.52 217.085 1544.94 Q214.029 1540.33 214.029 1531.6 Q214.029 1522.85 217.085 1518.27 Q220.163 1513.66 225.973 1513.66 Z" fill="#000000" fill-rule="nonzero" fill-opacity="1" /><path clip-path="url(#clip580)" d="M256.135 1517.37 Q252.524 1517.37 250.696 1520.93 Q248.89 1524.47 248.89 1531.6 Q248.89 1538.71 250.696 1542.27 Q252.524 1545.82 256.135 1545.82 Q259.77 1545.82 261.575 1542.27 Q263.404 1538.71 263.404 1531.6 Q263.404 1524.47 261.575 1520.93 Q259.77 1517.37 256.135 1517.37 M256.135 1513.66 Q261.945 1513.66 265.001 1518.27 Q268.08 1522.85 268.08 1531.6 Q268.08 1540.33 265.001 1544.94 Q261.945 1549.52 256.135 1549.52 Q250.325 1549.52 247.246 1544.94 Q244.191 1540.33 244.191 1531.6 Q244.191 1522.85 247.246 1518.27 Q250.325 1513.66 256.135 1513.66 Z" fill="#000000" fill-rule="nonzero" fill-opacity="1" /><path clip-path="url(#clip580)" d="M699.278 1517.37 Q695.667 1517.37 693.838 1520.93 Q692.033 1524.47 692.033 1531.6 Q692.033 1538.71 693.838 1542.27 Q695.667 1545.82 699.278 1545.82 Q702.912 1545.82 704.718 1542.27 Q706.546 1538.71 706.546 1531.6 Q706.546 1524.47 704.718 1520.93 Q702.912 1517.37 699.278 1517.37 M699.278 1513.66 Q705.088 1513.66 708.144 1518.27 Q711.222 1522.85 711.222 1531.6 Q711.222 1540.33 708.144 1544.94 Q705.088 1549.52 699.278 1549.52 Q693.468 1549.52 690.389 1544.94 Q687.334 1540.33 687.334 1531.6 Q687.334 1522.85 690.389 1518.27 Q693.468 1513.66 699.278 1513.66 Z" fill="#000000" fill-rule="nonzero" fill-opacity="1" /><path clip-path="url(#clip580)" d="M719.44 1542.97 L724.324 1542.97 L724.324 1548.85 L719.44 1548.85 L719.44 1542.97 Z" fill="#000000" fill-rule="nonzero" fill-opacity="1" /><path clip-path="url(#clip580)" d="M738.537 1544.91 L754.856 1544.91 L754.856 1548.85 L732.912 1548.85 L732.912 1544.91 Q735.574 1542.16 740.157 1537.53 Q744.764 1532.88 745.944 1531.53 Q748.19 1529.01 749.069 1527.27 Q749.972 1525.51 749.972 1523.82 Q749.972 1521.07 748.028 1519.33 Q746.106 1517.6 743.005 1517.6 Q740.806 1517.6 738.352 1518.36 Q735.921 1519.13 733.144 1520.68 L733.144 1515.95 Q735.968 1514.82 738.421 1514.24 Q740.875 1513.66 742.912 1513.66 Q748.282 1513.66 751.477 1516.35 Q754.671 1519.03 754.671 1523.52 Q754.671 1525.65 753.861 1527.57 Q753.074 1529.47 750.968 1532.07 Q750.389 1532.74 747.287 1535.95 Q744.185 1539.15 738.537 1544.91 Z" fill="#000000" fill-rule="nonzero" fill-opacity="1" /><path clip-path="url(#clip580)" d="M764.717 1514.29 L783.074 1514.29 L783.074 1518.22 L769 1518.22 L769 1526.7 Q770.018 1526.35 771.037 1526.19 Q772.055 1526 773.074 1526 Q778.861 1526 782.241 1529.17 Q785.62 1532.34 785.62 1537.76 Q785.62 1543.34 782.148 1546.44 Q778.676 1549.52 772.356 1549.52 Q770.18 1549.52 767.912 1549.15 Q765.667 1548.78 763.259 1548.04 L763.259 1543.34 Q765.342 1544.47 767.565 1545.03 Q769.787 1545.58 772.264 1545.58 Q776.268 1545.58 778.606 1543.48 Q780.944 1541.37 780.944 1537.76 Q780.944 1534.15 778.606 1532.04 Q776.268 1529.94 772.264 1529.94 Q770.389 1529.94 768.514 1530.35 Q766.662 1530.77 764.717 1531.65 L764.717 1514.29 Z" fill="#000000" fill-rule="nonzero" fill-opacity="1" /><path clip-path="url(#clip580)" d="M1216.82 1517.37 Q1213.21 1517.37 1211.38 1520.93 Q1209.57 1524.47 1209.57 1531.6 Q1209.57 1538.71 1211.38 1542.27 Q1213.21 1545.82 1216.82 1545.82 Q1220.45 1545.82 1222.26 1542.27 Q1224.09 1538.71 1224.09 1531.6 Q1224.09 1524.47 1222.26 1520.93 Q1220.45 1517.37 1216.82 1517.37 M1216.82 1513.66 Q1222.63 1513.66 1225.68 1518.27 Q1228.76 1522.85 1228.76 1531.6 Q1228.76 1540.33 1225.68 1544.94 Q1222.63 1549.52 1216.82 1549.52 Q1211.01 1549.52 1207.93 1544.94 Q1204.87 1540.33 1204.87 1531.6 Q1204.87 1522.85 1207.93 1518.27 Q1211.01 1513.66 1216.82 1513.66 Z" fill="#000000" fill-rule="nonzero" fill-opacity="1" /><path clip-path="url(#clip580)" d="M1236.98 1542.97 L1241.86 1542.97 L1241.86 1548.85 L1236.98 1548.85 L1236.98 1542.97 Z" fill="#000000" fill-rule="nonzero" fill-opacity="1" /><path clip-path="url(#clip580)" d="M1252.1 1514.29 L1270.45 1514.29 L1270.45 1518.22 L1256.38 1518.22 L1256.38 1526.7 Q1257.4 1526.35 1258.42 1526.19 Q1259.43 1526 1260.45 1526 Q1266.24 1526 1269.62 1529.17 Q1273 1532.34 1273 1537.76 Q1273 1543.34 1269.53 1546.44 Q1266.05 1549.52 1259.73 1549.52 Q1257.56 1549.52 1255.29 1549.15 Q1253.05 1548.78 1250.64 1548.04 L1250.64 1543.34 Q1252.72 1544.47 1254.94 1545.03 Q1257.17 1545.58 1259.64 1545.58 Q1263.65 1545.58 1265.98 1543.48 Q1268.32 1541.37 1268.32 1537.76 Q1268.32 1534.15 1265.98 1532.04 Q1263.65 1529.94 1259.64 1529.94 Q1257.77 1529.94 1255.89 1530.35 Q1254.04 1530.77 1252.1 1531.65 L1252.1 1514.29 Z" fill="#000000" fill-rule="nonzero" fill-opacity="1" /><path clip-path="url(#clip580)" d="M1292.21 1517.37 Q1288.6 1517.37 1286.77 1520.93 Q1284.97 1524.47 1284.97 1531.6 Q1284.97 1538.71 1286.77 1542.27 Q1288.6 1545.82 1292.21 1545.82 Q1295.85 1545.82 1297.65 1542.27 Q1299.48 1538.71 1299.48 1531.6 Q1299.48 1524.47 1297.65 1520.93 Q1295.85 1517.37 1292.21 1517.37 M1292.21 1513.66 Q1298.02 1513.66 1301.08 1518.27 Q1304.16 1522.85 1304.16 1531.6 Q1304.16 1540.33 1301.08 1544.94 Q1298.02 1549.52 1292.21 1549.52 Q1286.4 1549.52 1283.32 1544.94 Q1280.27 1540.33 1280.27 1531.6 Q1280.27 1522.85 1283.32 1518.27 Q1286.4 1513.66 1292.21 1513.66 Z" fill="#000000" fill-rule="nonzero" fill-opacity="1" /><path clip-path="url(#clip580)" d="M1735.35 1517.37 Q1731.74 1517.37 1729.91 1520.93 Q1728.11 1524.47 1728.11 1531.6 Q1728.11 1538.71 1729.91 1542.27 Q1731.74 1545.82 1735.35 1545.82 Q1738.99 1545.82 1740.79 1542.27 Q1742.62 1538.71 1742.62 1531.6 Q1742.62 1524.47 1740.79 1520.93 Q1738.99 1517.37 1735.35 1517.37 M1735.35 1513.66 Q1741.16 1513.66 1744.22 1518.27 Q1747.3 1522.85 1747.3 1531.6 Q1747.3 1540.33 1744.22 1544.94 Q1741.16 1549.52 1735.35 1549.52 Q1729.54 1549.52 1726.47 1544.94 Q1723.41 1540.33 1723.41 1531.6 Q1723.41 1522.85 1726.47 1518.27 Q1729.54 1513.66 1735.35 1513.66 Z" fill="#000000" fill-rule="nonzero" fill-opacity="1" /><path clip-path="url(#clip580)" d="M1755.52 1542.97 L1760.4 1542.97 L1760.4 1548.85 L1755.52 1548.85 L1755.52 1542.97 Z" fill="#000000" fill-rule="nonzero" fill-opacity="1" /><path clip-path="url(#clip580)" d="M1769.41 1514.29 L1791.63 1514.29 L1791.63 1516.28 L1779.08 1548.85 L1774.2 1548.85 L1786 1518.22 L1769.41 1518.22 L1769.41 1514.29 Z" fill="#000000" fill-rule="nonzero" fill-opacity="1" /><path clip-path="url(#clip580)" d="M1800.79 1514.29 L1819.15 1514.29 L1819.15 1518.22 L1805.08 1518.22 L1805.08 1526.7 Q1806.09 1526.35 1807.11 1526.19 Q1808.13 1526 1809.15 1526 Q1814.94 1526 1818.32 1529.17 Q1821.7 1532.34 1821.7 1537.76 Q1821.7 1543.34 1818.22 1546.44 Q1814.75 1549.52 1808.43 1549.52 Q1806.26 1549.52 1803.99 1549.15 Q1801.74 1548.78 1799.34 1548.04 L1799.34 1543.34 Q1801.42 1544.47 1803.64 1545.03 Q1805.86 1545.58 1808.34 1545.58 Q1812.34 1545.58 1814.68 1543.48 Q1817.02 1541.37 1817.02 1537.76 Q1817.02 1534.15 1814.68 1532.04 Q1812.34 1529.94 1808.34 1529.94 Q1806.47 1529.94 1804.59 1530.35 Q1802.74 1530.77 1800.79 1531.65 L1800.79 1514.29 Z" fill="#000000" fill-rule="nonzero" fill-opacity="1" /><path clip-path="url(#clip580)" d="M2242.66 1544.91 L2250.3 1544.91 L2250.3 1518.55 L2241.99 1520.21 L2241.99 1515.95 L2250.26 1514.29 L2254.93 1514.29 L2254.93 1544.91 L2262.57 1544.91 L2262.57 1548.85 L2242.66 1548.85 L2242.66 1544.91 Z" fill="#000000" fill-rule="nonzero" fill-opacity="1" /><path clip-path="url(#clip580)" d="M2272.02 1542.97 L2276.9 1542.97 L2276.9 1548.85 L2272.02 1548.85 L2272.02 1542.97 Z" fill="#000000" fill-rule="nonzero" fill-opacity="1" /><path clip-path="url(#clip580)" d="M2297.08 1517.37 Q2293.47 1517.37 2291.64 1520.93 Q2289.84 1524.47 2289.84 1531.6 Q2289.84 1538.71 2291.64 1542.27 Q2293.47 1545.82 2297.08 1545.82 Q2300.72 1545.82 2302.52 1542.27 Q2304.35 1538.71 2304.35 1531.6 Q2304.35 1524.47 2302.52 1520.93 Q2300.72 1517.37 2297.08 1517.37 M2297.08 1513.66 Q2302.89 1513.66 2305.95 1518.27 Q2309.03 1522.85 2309.03 1531.6 Q2309.03 1540.33 2305.95 1544.94 Q2302.89 1549.52 2297.08 1549.52 Q2291.27 1549.52 2288.2 1544.94 Q2285.14 1540.33 2285.14 1531.6 Q2285.14 1522.85 2288.2 1518.27 Q2291.27 1513.66 2297.08 1513.66 Z" fill="#000000" fill-rule="nonzero" fill-opacity="1" /><path clip-path="url(#clip580)" d="M2327.25 1517.37 Q2323.64 1517.37 2321.81 1520.93 Q2320 1524.47 2320 1531.6 Q2320 1538.71 2321.81 1542.27 Q2323.64 1545.82 2327.25 1545.82 Q2330.88 1545.82 2332.69 1542.27 Q2334.51 1538.71 2334.51 1531.6 Q2334.51 1524.47 2332.69 1520.93 Q2330.88 1517.37 2327.25 1517.37 M2327.25 1513.66 Q2333.06 1513.66 2336.11 1518.27 Q2339.19 1522.85 2339.19 1531.6 Q2339.19 1540.33 2336.11 1544.94 Q2333.06 1549.52 2327.25 1549.52 Q2321.44 1549.52 2318.36 1544.94 Q2315.3 1540.33 2315.3 1531.6 Q2315.3 1522.85 2318.36 1518.27 Q2321.44 1513.66 2327.25 1513.66 Z" fill="#000000" fill-rule="nonzero" fill-opacity="1" /><polyline clip-path="url(#clip580)" style="stroke:#000000; stroke-linecap:round; stroke-linejoin:round; stroke-width:4; stroke-opacity:1; fill:none" points="156.274,1486.45 156.274,47.2441 "/>
<polyline clip-path="url(#clip580)" style="stroke:#000000; stroke-linecap:round; stroke-linejoin:round; stroke-width:4; stroke-opacity:1; fill:none" points="156.274,1181.16 175.172,1181.16 "/>
<polyline clip-path="url(#clip580)" style="stroke:#000000; stroke-linecap:round; stroke-linejoin:round; stroke-width:4; stroke-opacity:1; fill:none" points="156.274,857.972 175.172,857.972 "/>
<polyline clip-path="url(#clip580)" style="stroke:#000000; stroke-linecap:round; stroke-linejoin:round; stroke-width:4; stroke-opacity:1; fill:none" points="156.274,534.78 175.172,534.78 "/>
<polyline clip-path="url(#clip580)" style="stroke:#000000; stroke-linecap:round; stroke-linejoin:round; stroke-width:4; stroke-opacity:1; fill:none" points="156.274,211.587 175.172,211.587 "/>
<path clip-path="url(#clip580)" d="M62.9365 1166.96 Q59.3254 1166.96 57.4967 1170.53 Q55.6912 1174.07 55.6912 1181.2 Q55.6912 1188.31 57.4967 1191.87 Q59.3254 1195.41 62.9365 1195.41 Q66.5707 1195.41 68.3763 1191.87 Q70.205 1188.31 70.205 1181.2 Q70.205 1174.07 68.3763 1170.53 Q66.5707 1166.96 62.9365 1166.96 M62.9365 1163.26 Q68.7467 1163.26 71.8022 1167.87 Q74.8809 1172.45 74.8809 1181.2 Q74.8809 1189.93 71.8022 1194.53 Q68.7467 1199.12 62.9365 1199.12 Q57.1264 1199.12 54.0477 1194.53 Q50.9921 1189.93 50.9921 1181.2 Q50.9921 1172.45 54.0477 1167.87 Q57.1264 1163.26 62.9365 1163.26 Z" fill="#000000" fill-rule="nonzero" fill-opacity="1" /><path clip-path="url(#clip580)" d="M83.0984 1192.56 L87.9827 1192.56 L87.9827 1198.44 L83.0984 1198.44 L83.0984 1192.56 Z" fill="#000000" fill-rule="nonzero" fill-opacity="1" /><path clip-path="url(#clip580)" d="M108.746 1179.3 Q105.598 1179.3 103.746 1181.45 Q101.918 1183.61 101.918 1187.36 Q101.918 1191.08 103.746 1193.26 Q105.598 1195.41 108.746 1195.41 Q111.895 1195.41 113.723 1193.26 Q115.575 1191.08 115.575 1187.36 Q115.575 1183.61 113.723 1181.45 Q111.895 1179.3 108.746 1179.3 M118.029 1164.65 L118.029 1168.91 Q116.27 1168.07 114.464 1167.63 Q112.682 1167.19 110.922 1167.19 Q106.293 1167.19 103.839 1170.32 Q101.409 1173.44 101.061 1179.76 Q102.427 1177.75 104.487 1176.69 Q106.547 1175.6 109.024 1175.6 Q114.233 1175.6 117.242 1178.77 Q120.274 1181.92 120.274 1187.36 Q120.274 1192.68 117.126 1195.9 Q113.978 1199.12 108.746 1199.12 Q102.751 1199.12 99.5798 1194.53 Q96.4085 1189.93 96.4085 1181.2 Q96.4085 1173 100.297 1168.14 Q104.186 1163.26 110.737 1163.26 Q112.496 1163.26 114.279 1163.61 Q116.084 1163.95 118.029 1164.65 Z" fill="#000000" fill-rule="nonzero" fill-opacity="1" /><path clip-path="url(#clip580)" d="M63.1911 843.771 Q59.58 843.771 57.7513 847.336 Q55.9458 850.877 55.9458 858.007 Q55.9458 865.113 57.7513 868.678 Q59.58 872.22 63.1911 872.22 Q66.8254 872.22 68.6309 868.678 Q70.4596 865.113 70.4596 858.007 Q70.4596 850.877 68.6309 847.336 Q66.8254 843.771 63.1911 843.771 M63.1911 840.067 Q69.0013 840.067 72.0568 844.674 Q75.1355 849.257 75.1355 858.007 Q75.1355 866.734 72.0568 871.34 Q69.0013 875.923 63.1911 875.923 Q57.381 875.923 54.3023 871.34 Q51.2468 866.734 51.2468 858.007 Q51.2468 849.257 54.3023 844.674 Q57.381 840.067 63.1911 840.067 Z" fill="#000000" fill-rule="nonzero" fill-opacity="1" /><path clip-path="url(#clip580)" d="M83.3531 869.373 L88.2373 869.373 L88.2373 875.252 L83.3531 875.252 L83.3531 869.373 Z" fill="#000000" fill-rule="nonzero" fill-opacity="1" /><path clip-path="url(#clip580)" d="M108.422 858.84 Q105.089 858.84 103.168 860.623 Q101.27 862.405 101.27 865.53 Q101.27 868.655 103.168 870.437 Q105.089 872.22 108.422 872.22 Q111.756 872.22 113.677 870.437 Q115.598 868.632 115.598 865.53 Q115.598 862.405 113.677 860.623 Q111.779 858.84 108.422 858.84 M103.746 856.85 Q100.737 856.109 99.0474 854.049 Q97.3808 851.988 97.3808 849.025 Q97.3808 844.882 100.321 842.475 Q103.284 840.067 108.422 840.067 Q113.584 840.067 116.524 842.475 Q119.464 844.882 119.464 849.025 Q119.464 851.988 117.774 854.049 Q116.108 856.109 113.121 856.85 Q116.501 857.637 118.376 859.928 Q120.274 862.22 120.274 865.53 Q120.274 870.553 117.195 873.238 Q114.14 875.923 108.422 875.923 Q102.705 875.923 99.6261 873.238 Q96.5706 870.553 96.5706 865.53 Q96.5706 862.22 98.4687 859.928 Q100.367 857.637 103.746 856.85 M102.034 849.465 Q102.034 852.15 103.7 853.655 Q105.39 855.16 108.422 855.16 Q111.432 855.16 113.121 853.655 Q114.834 852.15 114.834 849.465 Q114.834 846.78 113.121 845.275 Q111.432 843.771 108.422 843.771 Q105.39 843.771 103.7 845.275 Q102.034 846.78 102.034 849.465 Z" fill="#000000" fill-rule="nonzero" fill-opacity="1" /><path clip-path="url(#clip580)" d="M53.9088 548.125 L61.5476 548.125 L61.5476 521.759 L53.2375 523.426 L53.2375 519.166 L61.5013 517.5 L66.1772 517.5 L66.1772 548.125 L73.8161 548.125 L73.8161 552.06 L53.9088 552.06 L53.9088 548.125 Z" fill="#000000" fill-rule="nonzero" fill-opacity="1" /><path clip-path="url(#clip580)" d="M83.2605 546.18 L88.1447 546.18 L88.1447 552.06 L83.2605 552.06 L83.2605 546.18 Z" fill="#000000" fill-rule="nonzero" fill-opacity="1" /><path clip-path="url(#clip580)" d="M108.33 520.579 Q104.719 520.579 102.89 524.143 Q101.084 527.685 101.084 534.815 Q101.084 541.921 102.89 545.486 Q104.719 549.027 108.33 549.027 Q111.964 549.027 113.77 545.486 Q115.598 541.921 115.598 534.815 Q115.598 527.685 113.77 524.143 Q111.964 520.579 108.33 520.579 M108.33 516.875 Q114.14 516.875 117.195 521.481 Q120.274 526.065 120.274 534.815 Q120.274 543.541 117.195 548.148 Q114.14 552.731 108.33 552.731 Q102.52 552.731 99.4409 548.148 Q96.3854 543.541 96.3854 534.815 Q96.3854 526.065 99.4409 521.481 Q102.52 516.875 108.33 516.875 Z" fill="#000000" fill-rule="nonzero" fill-opacity="1" /><path clip-path="url(#clip580)" d="M55.506 224.932 L63.1448 224.932 L63.1448 198.567 L54.8347 200.233 L54.8347 195.974 L63.0985 194.307 L67.7744 194.307 L67.7744 224.932 L75.4133 224.932 L75.4133 228.867 L55.506 228.867 L55.506 224.932 Z" fill="#000000" fill-rule="nonzero" fill-opacity="1" /><path clip-path="url(#clip580)" d="M84.8577 222.988 L89.7419 222.988 L89.7419 228.867 L84.8577 228.867 L84.8577 222.988 Z" fill="#000000" fill-rule="nonzero" fill-opacity="1" /><path clip-path="url(#clip580)" d="M103.955 224.932 L120.274 224.932 L120.274 228.867 L98.3298 228.867 L98.3298 224.932 Q100.992 222.178 105.575 217.548 Q110.182 212.895 111.362 211.553 Q113.608 209.03 114.487 207.293 Q115.39 205.534 115.39 203.844 Q115.39 201.09 113.445 199.354 Q111.524 197.618 108.422 197.618 Q106.223 197.618 103.77 198.382 Q101.339 199.145 98.5613 200.696 L98.5613 195.974 Q101.385 194.84 103.839 194.261 Q106.293 193.682 108.33 193.682 Q113.7 193.682 116.895 196.368 Q120.089 199.053 120.089 203.544 Q120.089 205.673 119.279 207.594 Q118.492 209.493 116.385 212.085 Q115.807 212.756 112.705 215.974 Q109.603 219.168 103.955 224.932 Z" fill="#000000" fill-rule="nonzero" fill-opacity="1" /><polyline clip-path="url(#clip581)" style="stroke:#009af9; stroke-linecap:round; stroke-linejoin:round; stroke-width:12; stroke-opacity:1; fill:none" points="218.439,1342.76 425.654,1261.94 632.869,1237.71 840.085,1093.47 1047.3,1039.78 1254.52,997.993 1461.73,1159.88 1668.95,1122.85 1876.16,1041.6 2083.38,860.853 2290.59,539.172 "/>
<polyline clip-path="url(#clip581)" style="stroke:#e26f46; stroke-linecap:round; stroke-linejoin:round; stroke-width:12; stroke-opacity:1; fill:none" points="218.439,1342.76 425.654,1429.41 632.869,1435.65 840.085,1445.72 1047.3,1419.05 1254.52,1143.88 1461.73,1343.18 1668.95,1016.79 1876.16,988.609 2083.38,1009.54 2290.59,944.555 "/>
<polyline clip-path="url(#clip581)" style="stroke:#3da44d; stroke-linecap:round; stroke-linejoin:round; stroke-width:12; stroke-opacity:1; fill:none" points="218.439,1342.76 425.654,1318.25 632.869,1293.8 840.085,1127.45 1047.3,923.613 1254.52,1004.98 1461.73,1183.39 1668.95,1056.23 1876.16,1192.62 2083.38,1209.53 2290.59,1190.3 "/>
<polyline clip-path="url(#clip581)" style="stroke:#c271d2; stroke-linecap:round; stroke-linejoin:round; stroke-width:12; stroke-opacity:1; fill:none" points="218.439,1342.76 425.654,1332.34 632.869,1277.42 840.085,1225.43 1047.3,1033.44 1254.52,810.131 1461.73,680.359 1668.95,708.633 1876.16,640.647 2083.38,688.459 2290.59,972.991 "/>
<polyline clip-path="url(#clip581)" style="stroke:#ac8d18; stroke-linecap:round; stroke-linejoin:round; stroke-width:12; stroke-opacity:1; fill:none" points="218.439,1342.76 425.654,1289.41 632.869,1238.83 840.085,1192.9 1047.3,1080.49 1254.52,995.035 1461.73,942.2 1668.95,649.608 1876.16,355.129 2083.38,94.5798 2290.59,232.008 "/>
<polyline clip-path="url(#clip581)" style="stroke:#00a9ad; stroke-linecap:round; stroke-linejoin:round; stroke-width:12; stroke-opacity:1; fill:none" points="218.439,1342.76 425.654,1269.87 632.869,1044.42 840.085,1004.02 1047.3,988.548 1254.52,816.011 1461.73,576.291 1668.95,316.331 1876.16,406.327 2083.38,627.181 2290.59,654.56 "/>
<polyline clip-path="url(#clip581)" style="stroke:#ed5d92; stroke-linecap:round; stroke-linejoin:round; stroke-width:12; stroke-opacity:1; fill:none" points="218.439,1342.76 425.654,1229.06 632.869,1151.75 840.085,1172.83 1047.3,1142.8 1254.52,1083.17 1461.73,1052.5 1668.95,918.646 1876.16,769.937 2083.38,600.692 2290.59,557.769 "/>
<polyline clip-path="url(#clip581)" style="stroke:#c68125; stroke-linecap:round; stroke-linejoin:round; stroke-width:12; stroke-opacity:1; fill:none" points="218.439,1342.76 425.654,1075.22 632.869,855.392 840.085,681.228 1047.3,670.984 1254.52,714.409 1461.73,655.461 1668.95,223.151 1876.16,87.9763 2083.38,378.654 2290.59,805.451 "/>
</svg>
