<?xml version="1.0" encoding="utf-8"?>
<svg xmlns="http://www.w3.org/2000/svg" xmlns:xlink="http://www.w3.org/1999/xlink" width="600" height="400" viewBox="0 0 2400 1600">
<defs>
  <clipPath id="clip490">
    <rect x="0" y="0" width="2400" height="1600"/>
  </clipPath>
</defs>
<path clip-path="url(#clip490)" d="M0 1600 L2400 1600 L2400 0 L0 0  Z" fill="#ffffff" fill-rule="evenodd" fill-opacity="1"/>
<defs>
  <clipPath id="clip491">
    <rect x="480" y="0" width="1681" height="1600"/>
  </clipPath>
</defs>
<path clip-path="url(#clip490)" d="M155.765 1486.45 L2352.76 1486.45 L2352.76 47.2441 L155.765 47.2441  Z" fill="#ffffff" fill-rule="evenodd" fill-opacity="1"/>
<defs>
  <clipPath id="clip492">
    <rect x="155" y="47" width="2198" height="1440"/>
  </clipPath>
</defs>
<polyline clip-path="url(#clip492)" style="stroke:#000000; stroke-linecap:round; stroke-linejoin:round; stroke-width:2; stroke-opacity:0.1; fill:none" points="217.944,1486.45 217.944,47.2441 "/>
<polyline clip-path="url(#clip492)" style="stroke:#000000; stroke-linecap:round; stroke-linejoin:round; stroke-width:2; stroke-opacity:0.1; fill:none" points="736.102,1486.45 736.102,47.2441 "/>
<polyline clip-path="url(#clip492)" style="stroke:#000000; stroke-linecap:round; stroke-linejoin:round; stroke-width:2; stroke-opacity:0.1; fill:none" points="1254.26,1486.45 1254.26,47.2441 "/>
<polyline clip-path="url(#clip492)" style="stroke:#000000; stroke-linecap:round; stroke-linejoin:round; stroke-width:2; stroke-opacity:0.1; fill:none" points="1772.42,1486.45 1772.42,47.2441 "/>
<polyline clip-path="url(#clip492)" style="stroke:#000000; stroke-linecap:round; stroke-linejoin:round; stroke-width:2; stroke-opacity:0.1; fill:none" points="2290.58,1486.45 2290.58,47.2441 "/>
<polyline clip-path="url(#clip492)" style="stroke:#000000; stroke-linecap:round; stroke-linejoin:round; stroke-width:2; stroke-opacity:0.1; fill:none" points="155.765,1304.25 2352.76,1304.25 "/>
<polyline clip-path="url(#clip492)" style="stroke:#000000; stroke-linecap:round; stroke-linejoin:round; stroke-width:2; stroke-opacity:0.1; fill:none" points="155.765,1093.24 2352.76,1093.24 "/>
<polyline clip-path="url(#clip492)" style="stroke:#000000; stroke-linecap:round; stroke-linejoin:round; stroke-width:2; stroke-opacity:0.1; fill:none" points="155.765,882.233 2352.76,882.233 "/>
<polyline clip-path="url(#clip492)" style="stroke:#000000; stroke-linecap:round; stroke-linejoin:round; stroke-width:2; stroke-opacity:0.1; fill:none" points="155.765,671.222 2352.76,671.222 "/>
<polyline clip-path="url(#clip492)" style="stroke:#000000; stroke-linecap:round; stroke-linejoin:round; stroke-width:2; stroke-opacity:0.1; fill:none" points="155.765,460.212 2352.76,460.212 "/>
<polyline clip-path="url(#clip492)" style="stroke:#000000; stroke-linecap:round; stroke-linejoin:round; stroke-width:2; stroke-opacity:0.1; fill:none" points="155.765,249.201 2352.76,249.201 "/>
<polyline clip-path="url(#clip490)" style="stroke:#000000; stroke-linecap:round; stroke-linejoin:round; stroke-width:4; stroke-opacity:1; fill:none" points="155.765,1486.45 2352.76,1486.45 "/>
<polyline clip-path="url(#clip490)" style="stroke:#000000; stroke-linecap:round; stroke-linejoin:round; stroke-width:4; stroke-opacity:1; fill:none" points="217.944,1486.45 217.944,1467.55 "/>
<polyline clip-path="url(#clip490)" style="stroke:#000000; stroke-linecap:round; stroke-linejoin:round; stroke-width:4; stroke-opacity:1; fill:none" points="736.102,1486.45 736.102,1467.55 "/>
<polyline clip-path="url(#clip490)" style="stroke:#000000; stroke-linecap:round; stroke-linejoin:round; stroke-width:4; stroke-opacity:1; fill:none" points="1254.26,1486.45 1254.26,1467.55 "/>
<polyline clip-path="url(#clip490)" style="stroke:#000000; stroke-linecap:round; stroke-linejoin:round; stroke-width:4; stroke-opacity:1; fill:none" points="1772.42,1486.45 1772.42,1467.55 "/>
<polyline clip-path="url(#clip490)" style="stroke:#000000; stroke-linecap:round; stroke-linejoin:round; stroke-width:4; stroke-opacity:1; fill:none" points="2290.58,1486.45 2290.58,1467.55 "/>
<path clip-path="url(#clip490)" d="M180.247 1517.37 Q176.636 1517.37 174.808 1520.93 Q173.002 1524.47 173.002 1531.6 Q173.002 1538.71 174.808 1542.27 Q176.636 1545.82 180.247 1545.82 Q183.882 1545.82 185.687 1542.27 Q187.516 1538.71 187.516 1531.6 Q187.516 1524.47 185.687 1520.93 Q183.882 1517.37 180.247 1517.37 M180.247 1513.66 Q186.057 1513.66 189.113 1518.27 Q192.192 1522.85 192.192 1531.6 Q192.192 1540.33 189.113 1544.94 Q186.057 1549.52 180.247 1549.52 Q174.437 1549.52 171.358 1544.94 Q168.303 1540.33 168.303 1531.6 Q168.303 1522.85 171.358 1518.27 Q174.437 1513.66 180.247 1513.66 Z" fill="#000000" fill-rule="nonzero" fill-opacity="1" /><path clip-path="url(#clip490)" d="M200.409 1542.97 L205.294 1542.97 L205.294 1548.85 L200.409 1548.85 L200.409 1542.97 Z" fill="#000000" fill-rule="nonzero" fill-opacity="1" /><path clip-path="url(#clip490)" d="M225.479 1517.37 Q221.867 1517.37 220.039 1520.93 Q218.233 1524.47 218.233 1531.6 Q218.233 1538.71 220.039 1542.27 Q221.867 1545.82 225.479 1545.82 Q229.113 1545.82 230.918 1542.27 Q232.747 1538.71 232.747 1531.6 Q232.747 1524.47 230.918 1520.93 Q229.113 1517.37 225.479 1517.37 M225.479 1513.66 Q231.289 1513.66 234.344 1518.27 Q237.423 1522.85 237.423 1531.6 Q237.423 1540.33 234.344 1544.94 Q231.289 1549.52 225.479 1549.52 Q219.668 1549.52 216.59 1544.94 Q213.534 1540.33 213.534 1531.6 Q213.534 1522.85 216.59 1518.27 Q219.668 1513.66 225.479 1513.66 Z" fill="#000000" fill-rule="nonzero" fill-opacity="1" /><path clip-path="url(#clip490)" d="M255.64 1517.37 Q252.029 1517.37 250.201 1520.93 Q248.395 1524.47 248.395 1531.6 Q248.395 1538.71 250.201 1542.27 Q252.029 1545.82 255.64 1545.82 Q259.275 1545.82 261.08 1542.27 Q262.909 1538.71 262.909 1531.6 Q262.909 1524.47 261.08 1520.93 Q259.275 1517.37 255.64 1517.37 M255.64 1513.66 Q261.451 1513.66 264.506 1518.27 Q267.585 1522.85 267.585 1531.6 Q267.585 1540.33 264.506 1544.94 Q261.451 1549.52 255.64 1549.52 Q249.83 1549.52 246.752 1544.94 Q243.696 1540.33 243.696 1531.6 Q243.696 1522.85 246.752 1518.27 Q249.83 1513.66 255.64 1513.66 Z" fill="#000000" fill-rule="nonzero" fill-opacity="1" /><path clip-path="url(#clip490)" d="M698.903 1517.37 Q695.292 1517.37 693.463 1520.93 Q691.658 1524.47 691.658 1531.6 Q691.658 1538.71 693.463 1542.27 Q695.292 1545.82 698.903 1545.82 Q702.538 1545.82 704.343 1542.27 Q706.172 1538.71 706.172 1531.6 Q706.172 1524.47 704.343 1520.93 Q702.538 1517.37 698.903 1517.37 M698.903 1513.66 Q704.713 1513.66 707.769 1518.27 Q710.848 1522.85 710.848 1531.6 Q710.848 1540.33 707.769 1544.94 Q704.713 1549.52 698.903 1549.52 Q693.093 1549.52 690.014 1544.94 Q686.959 1540.33 686.959 1531.6 Q686.959 1522.85 690.014 1518.27 Q693.093 1513.66 698.903 1513.66 Z" fill="#000000" fill-rule="nonzero" fill-opacity="1" /><path clip-path="url(#clip490)" d="M719.065 1542.97 L723.949 1542.97 L723.949 1548.85 L719.065 1548.85 L719.065 1542.97 Z" fill="#000000" fill-rule="nonzero" fill-opacity="1" /><path clip-path="url(#clip490)" d="M738.162 1544.91 L754.482 1544.91 L754.482 1548.85 L732.537 1548.85 L732.537 1544.91 Q735.199 1542.16 739.783 1537.53 Q744.389 1532.88 745.57 1531.53 Q747.815 1529.01 748.695 1527.27 Q749.597 1525.51 749.597 1523.82 Q749.597 1521.07 747.653 1519.33 Q745.732 1517.6 742.63 1517.6 Q740.431 1517.6 737.977 1518.36 Q735.547 1519.13 732.769 1520.68 L732.769 1515.95 Q735.593 1514.82 738.047 1514.24 Q740.5 1513.66 742.537 1513.66 Q747.908 1513.66 751.102 1516.35 Q754.296 1519.03 754.296 1523.52 Q754.296 1525.65 753.486 1527.57 Q752.699 1529.47 750.593 1532.07 Q750.014 1532.74 746.912 1535.95 Q743.81 1539.15 738.162 1544.91 Z" fill="#000000" fill-rule="nonzero" fill-opacity="1" /><path clip-path="url(#clip490)" d="M764.343 1514.29 L782.699 1514.29 L782.699 1518.22 L768.625 1518.22 L768.625 1526.7 Q769.644 1526.35 770.662 1526.19 Q771.681 1526 772.699 1526 Q778.486 1526 781.866 1529.17 Q785.245 1532.34 785.245 1537.76 Q785.245 1543.34 781.773 1546.44 Q778.301 1549.52 771.982 1549.52 Q769.806 1549.52 767.537 1549.15 Q765.292 1548.78 762.884 1548.04 L762.884 1543.34 Q764.968 1544.47 767.19 1545.03 Q769.412 1545.58 771.889 1545.58 Q775.894 1545.58 778.232 1543.48 Q780.57 1541.37 780.57 1537.76 Q780.57 1534.15 778.232 1532.04 Q775.894 1529.94 771.889 1529.94 Q770.014 1529.94 768.139 1530.35 Q766.287 1530.77 764.343 1531.65 L764.343 1514.29 Z" fill="#000000" fill-rule="nonzero" fill-opacity="1" /><path clip-path="url(#clip490)" d="M1216.56 1517.37 Q1212.95 1517.37 1211.12 1520.93 Q1209.32 1524.47 1209.32 1531.6 Q1209.32 1538.71 1211.12 1542.27 Q1212.95 1545.82 1216.56 1545.82 Q1220.2 1545.82 1222 1542.27 Q1223.83 1538.71 1223.83 1531.6 Q1223.83 1524.47 1222 1520.93 Q1220.2 1517.37 1216.56 1517.37 M1216.56 1513.66 Q1222.37 1513.66 1225.43 1518.27 Q1228.51 1522.85 1228.51 1531.6 Q1228.51 1540.33 1225.43 1544.94 Q1222.37 1549.52 1216.56 1549.52 Q1210.75 1549.52 1207.68 1544.94 Q1204.62 1540.33 1204.62 1531.6 Q1204.62 1522.85 1207.68 1518.27 Q1210.75 1513.66 1216.56 1513.66 Z" fill="#000000" fill-rule="nonzero" fill-opacity="1" /><path clip-path="url(#clip490)" d="M1236.73 1542.97 L1241.61 1542.97 L1241.61 1548.85 L1236.73 1548.85 L1236.73 1542.97 Z" fill="#000000" fill-rule="nonzero" fill-opacity="1" /><path clip-path="url(#clip490)" d="M1251.84 1514.29 L1270.2 1514.29 L1270.2 1518.22 L1256.12 1518.22 L1256.12 1526.7 Q1257.14 1526.35 1258.16 1526.19 Q1259.18 1526 1260.2 1526 Q1265.98 1526 1269.36 1529.17 Q1272.74 1532.34 1272.74 1537.76 Q1272.74 1543.34 1269.27 1546.44 Q1265.8 1549.52 1259.48 1549.52 Q1257.3 1549.52 1255.04 1549.15 Q1252.79 1548.78 1250.38 1548.04 L1250.38 1543.34 Q1252.47 1544.47 1254.69 1545.03 Q1256.91 1545.58 1259.39 1545.58 Q1263.39 1545.58 1265.73 1543.48 Q1268.07 1541.37 1268.07 1537.76 Q1268.07 1534.15 1265.73 1532.04 Q1263.39 1529.94 1259.39 1529.94 Q1257.51 1529.94 1255.64 1530.35 Q1253.79 1530.77 1251.84 1531.65 L1251.84 1514.29 Z" fill="#000000" fill-rule="nonzero" fill-opacity="1" /><path clip-path="url(#clip490)" d="M1291.96 1517.37 Q1288.35 1517.37 1286.52 1520.93 Q1284.71 1524.47 1284.71 1531.6 Q1284.71 1538.71 1286.52 1542.27 Q1288.35 1545.82 1291.96 1545.82 Q1295.59 1545.82 1297.4 1542.27 Q1299.23 1538.71 1299.23 1531.6 Q1299.23 1524.47 1297.4 1520.93 Q1295.59 1517.37 1291.96 1517.37 M1291.96 1513.66 Q1297.77 1513.66 1300.82 1518.27 Q1303.9 1522.85 1303.9 1531.6 Q1303.9 1540.33 1300.82 1544.94 Q1297.77 1549.52 1291.96 1549.52 Q1286.15 1549.52 1283.07 1544.94 Q1280.01 1540.33 1280.01 1531.6 Q1280.01 1522.85 1283.07 1518.27 Q1286.15 1513.66 1291.96 1513.66 Z" fill="#000000" fill-rule="nonzero" fill-opacity="1" /><path clip-path="url(#clip490)" d="M1735.22 1517.37 Q1731.61 1517.37 1729.78 1520.93 Q1727.97 1524.47 1727.97 1531.6 Q1727.97 1538.71 1729.78 1542.27 Q1731.61 1545.82 1735.22 1545.82 Q1738.85 1545.82 1740.66 1542.27 Q1742.49 1538.71 1742.49 1531.6 Q1742.49 1524.47 1740.66 1520.93 Q1738.85 1517.37 1735.22 1517.37 M1735.22 1513.66 Q1741.03 1513.66 1744.09 1518.27 Q1747.16 1522.85 1747.16 1531.6 Q1747.16 1540.33 1744.09 1544.94 Q1741.03 1549.52 1735.22 1549.52 Q1729.41 1549.52 1726.33 1544.94 Q1723.28 1540.33 1723.28 1531.6 Q1723.28 1522.85 1726.33 1518.27 Q1729.41 1513.66 1735.22 1513.66 Z" fill="#000000" fill-rule="nonzero" fill-opacity="1" /><path clip-path="url(#clip490)" d="M1755.38 1542.97 L1760.27 1542.97 L1760.27 1548.85 L1755.38 1548.85 L1755.38 1542.97 Z" fill="#000000" fill-rule="nonzero" fill-opacity="1" /><path clip-path="url(#clip490)" d="M1769.27 1514.29 L1791.49 1514.29 L1791.49 1516.28 L1778.95 1548.85 L1774.06 1548.85 L1785.87 1518.22 L1769.27 1518.22 L1769.27 1514.29 Z" fill="#000000" fill-rule="nonzero" fill-opacity="1" /><path clip-path="url(#clip490)" d="M1800.66 1514.29 L1819.02 1514.29 L1819.02 1518.22 L1804.94 1518.22 L1804.94 1526.7 Q1805.96 1526.35 1806.98 1526.19 Q1808 1526 1809.02 1526 Q1814.8 1526 1818.18 1529.17 Q1821.56 1532.34 1821.56 1537.76 Q1821.56 1543.34 1818.09 1546.44 Q1814.62 1549.52 1808.3 1549.52 Q1806.12 1549.52 1803.85 1549.15 Q1801.61 1548.78 1799.2 1548.04 L1799.2 1543.34 Q1801.28 1544.47 1803.51 1545.03 Q1805.73 1545.58 1808.21 1545.58 Q1812.21 1545.58 1814.55 1543.48 Q1816.89 1541.37 1816.89 1537.76 Q1816.89 1534.15 1814.55 1532.04 Q1812.21 1529.94 1808.21 1529.94 Q1806.33 1529.94 1804.46 1530.35 Q1802.6 1530.77 1800.66 1531.65 L1800.66 1514.29 Z" fill="#000000" fill-rule="nonzero" fill-opacity="1" /><path clip-path="url(#clip490)" d="M2242.65 1544.91 L2250.29 1544.91 L2250.29 1518.55 L2241.98 1520.21 L2241.98 1515.95 L2250.24 1514.29 L2254.92 1514.29 L2254.92 1544.91 L2262.56 1544.91 L2262.56 1548.85 L2242.65 1548.85 L2242.65 1544.91 Z" fill="#000000" fill-rule="nonzero" fill-opacity="1" /><path clip-path="url(#clip490)" d="M2272 1542.97 L2276.88 1542.97 L2276.88 1548.85 L2272 1548.85 L2272 1542.97 Z" fill="#000000" fill-rule="nonzero" fill-opacity="1" /><path clip-path="url(#clip490)" d="M2297.07 1517.37 Q2293.46 1517.37 2291.63 1520.93 Q2289.82 1524.47 2289.82 1531.6 Q2289.82 1538.71 2291.63 1542.27 Q2293.46 1545.82 2297.07 1545.82 Q2300.7 1545.82 2302.51 1542.27 Q2304.34 1538.71 2304.34 1531.6 Q2304.34 1524.47 2302.51 1520.93 Q2300.7 1517.37 2297.07 1517.37 M2297.07 1513.66 Q2302.88 1513.66 2305.94 1518.27 Q2309.01 1522.85 2309.01 1531.6 Q2309.01 1540.33 2305.94 1544.94 Q2302.88 1549.52 2297.07 1549.52 Q2291.26 1549.52 2288.18 1544.94 Q2285.13 1540.33 2285.13 1531.6 Q2285.13 1522.85 2288.18 1518.27 Q2291.26 1513.66 2297.07 1513.66 Z" fill="#000000" fill-rule="nonzero" fill-opacity="1" /><path clip-path="url(#clip490)" d="M2327.23 1517.37 Q2323.62 1517.37 2321.79 1520.93 Q2319.99 1524.47 2319.99 1531.6 Q2319.99 1538.71 2321.79 1542.27 Q2323.62 1545.82 2327.23 1545.82 Q2330.87 1545.82 2332.67 1542.27 Q2334.5 1538.71 2334.5 1531.6 Q2334.5 1524.47 2332.67 1520.93 Q2330.87 1517.37 2327.23 1517.37 M2327.23 1513.66 Q2333.04 1513.66 2336.1 1518.27 Q2339.18 1522.85 2339.18 1531.6 Q2339.18 1540.33 2336.1 1544.94 Q2333.04 1549.52 2327.23 1549.52 Q2321.42 1549.52 2318.34 1544.94 Q2315.29 1540.33 2315.29 1531.6 Q2315.29 1522.85 2318.34 1518.27 Q2321.42 1513.66 2327.23 1513.66 Z" fill="#000000" fill-rule="nonzero" fill-opacity="1" /><polyline clip-path="url(#clip490)" style="stroke:#000000; stroke-linecap:round; stroke-linejoin:round; stroke-width:4; stroke-opacity:1; fill:none" points="155.765,1486.45 155.765,47.2441 "/>
<polyline clip-path="url(#clip490)" style="stroke:#000000; stroke-linecap:round; stroke-linejoin:round; stroke-width:4; stroke-opacity:1; fill:none" points="155.765,1304.25 174.663,1304.25 "/>
<polyline clip-path="url(#clip490)" style="stroke:#000000; stroke-linecap:round; stroke-linejoin:round; stroke-width:4; stroke-opacity:1; fill:none" points="155.765,1093.24 174.663,1093.24 "/>
<polyline clip-path="url(#clip490)" style="stroke:#000000; stroke-linecap:round; stroke-linejoin:round; stroke-width:4; stroke-opacity:1; fill:none" points="155.765,882.233 174.663,882.233 "/>
<polyline clip-path="url(#clip490)" style="stroke:#000000; stroke-linecap:round; stroke-linejoin:round; stroke-width:4; stroke-opacity:1; fill:none" points="155.765,671.222 174.663,671.222 "/>
<polyline clip-path="url(#clip490)" style="stroke:#000000; stroke-linecap:round; stroke-linejoin:round; stroke-width:4; stroke-opacity:1; fill:none" points="155.765,460.212 174.663,460.212 "/>
<polyline clip-path="url(#clip490)" style="stroke:#000000; stroke-linecap:round; stroke-linejoin:round; stroke-width:4; stroke-opacity:1; fill:none" points="155.765,249.201 174.663,249.201 "/>
<path clip-path="url(#clip490)" d="M63.5847 1290.05 Q59.9736 1290.05 58.1449 1293.62 Q56.3393 1297.16 56.3393 1304.29 Q56.3393 1311.39 58.1449 1314.96 Q59.9736 1318.5 63.5847 1318.5 Q67.2189 1318.5 69.0244 1314.96 Q70.8531 1311.39 70.8531 1304.29 Q70.8531 1297.16 69.0244 1293.62 Q67.2189 1290.05 63.5847 1290.05 M63.5847 1286.35 Q69.3948 1286.35 72.4503 1290.96 Q75.529 1295.54 75.529 1304.29 Q75.529 1313.02 72.4503 1317.62 Q69.3948 1322.2 63.5847 1322.2 Q57.7745 1322.2 54.6958 1317.62 Q51.6403 1313.02 51.6403 1304.29 Q51.6403 1295.54 54.6958 1290.96 Q57.7745 1286.35 63.5847 1286.35 Z" fill="#000000" fill-rule="nonzero" fill-opacity="1" /><path clip-path="url(#clip490)" d="M83.7466 1315.65 L88.6308 1315.65 L88.6308 1321.53 L83.7466 1321.53 L83.7466 1315.65 Z" fill="#000000" fill-rule="nonzero" fill-opacity="1" /><path clip-path="url(#clip490)" d="M98.8622 1286.97 L117.219 1286.97 L117.219 1290.91 L103.145 1290.91 L103.145 1299.38 Q104.163 1299.03 105.182 1298.87 Q106.2 1298.69 107.219 1298.69 Q113.006 1298.69 116.385 1301.86 Q119.765 1305.03 119.765 1310.45 Q119.765 1316.02 116.293 1319.13 Q112.82 1322.2 106.501 1322.2 Q104.325 1322.2 102.057 1321.83 Q99.8113 1321.46 97.4039 1320.72 L97.4039 1316.02 Q99.4872 1317.16 101.709 1317.71 Q103.932 1318.27 106.408 1318.27 Q110.413 1318.27 112.751 1316.16 Q115.089 1314.06 115.089 1310.45 Q115.089 1306.83 112.751 1304.73 Q110.413 1302.62 106.408 1302.62 Q104.534 1302.62 102.659 1303.04 Q100.807 1303.45 98.8622 1304.33 L98.8622 1286.97 Z" fill="#000000" fill-rule="nonzero" fill-opacity="1" /><path clip-path="url(#clip490)" d="M53.3995 1106.59 L61.0384 1106.59 L61.0384 1080.22 L52.7282 1081.89 L52.7282 1077.63 L60.9921 1075.96 L65.668 1075.96 L65.668 1106.59 L73.3068 1106.59 L73.3068 1110.52 L53.3995 1110.52 L53.3995 1106.59 Z" fill="#000000" fill-rule="nonzero" fill-opacity="1" /><path clip-path="url(#clip490)" d="M82.7512 1104.64 L87.6354 1104.64 L87.6354 1110.52 L82.7512 1110.52 L82.7512 1104.64 Z" fill="#000000" fill-rule="nonzero" fill-opacity="1" /><path clip-path="url(#clip490)" d="M107.821 1079.04 Q104.209 1079.04 102.381 1082.61 Q100.575 1086.15 100.575 1093.28 Q100.575 1100.38 102.381 1103.95 Q104.209 1107.49 107.821 1107.49 Q111.455 1107.49 113.26 1103.95 Q115.089 1100.38 115.089 1093.28 Q115.089 1086.15 113.26 1082.61 Q111.455 1079.04 107.821 1079.04 M107.821 1075.34 Q113.631 1075.34 116.686 1079.94 Q119.765 1084.53 119.765 1093.28 Q119.765 1102 116.686 1106.61 Q113.631 1111.19 107.821 1111.19 Q102.01 1111.19 98.9317 1106.61 Q95.8761 1102 95.8761 1093.28 Q95.8761 1084.53 98.9317 1079.94 Q102.01 1075.34 107.821 1075.34 Z" fill="#000000" fill-rule="nonzero" fill-opacity="1" /><path clip-path="url(#clip490)" d="M54.3949 895.578 L62.0337 895.578 L62.0337 869.212 L53.7236 870.879 L53.7236 866.619 L61.9874 864.953 L66.6633 864.953 L66.6633 895.578 L74.3022 895.578 L74.3022 899.513 L54.3949 899.513 L54.3949 895.578 Z" fill="#000000" fill-rule="nonzero" fill-opacity="1" /><path clip-path="url(#clip490)" d="M83.7466 893.633 L88.6308 893.633 L88.6308 899.513 L83.7466 899.513 L83.7466 893.633 Z" fill="#000000" fill-rule="nonzero" fill-opacity="1" /><path clip-path="url(#clip490)" d="M98.8622 864.953 L117.219 864.953 L117.219 868.888 L103.145 868.888 L103.145 877.36 Q104.163 877.013 105.182 876.851 Q106.2 876.666 107.219 876.666 Q113.006 876.666 116.385 879.837 Q119.765 883.008 119.765 888.425 Q119.765 894.003 116.293 897.105 Q112.82 900.184 106.501 900.184 Q104.325 900.184 102.057 899.814 Q99.8113 899.443 97.4039 898.703 L97.4039 894.003 Q99.4872 895.138 101.709 895.693 Q103.932 896.249 106.408 896.249 Q110.413 896.249 112.751 894.142 Q115.089 892.036 115.089 888.425 Q115.089 884.814 112.751 882.707 Q110.413 880.601 106.408 880.601 Q104.534 880.601 102.659 881.017 Q100.807 881.434 98.8622 882.314 L98.8622 864.953 Z" fill="#000000" fill-rule="nonzero" fill-opacity="1" /><path clip-path="url(#clip490)" d="M56.6171 684.567 L72.9365 684.567 L72.9365 688.502 L50.9921 688.502 L50.9921 684.567 Q53.6541 681.813 58.2375 677.183 Q62.8439 672.53 64.0245 671.188 Q66.2698 668.664 67.1494 666.928 Q68.0522 665.169 68.0522 663.479 Q68.0522 660.725 66.1078 658.989 Q64.1865 657.252 61.0847 657.252 Q58.8856 657.252 56.4319 658.016 Q54.0014 658.78 51.2236 660.331 L51.2236 655.609 Q54.0477 654.475 56.5014 653.896 Q58.955 653.317 60.9921 653.317 Q66.3624 653.317 69.5568 656.002 Q72.7513 658.688 72.7513 663.178 Q72.7513 665.308 71.9411 667.229 Q71.1541 669.127 69.0476 671.72 Q68.4689 672.391 65.367 675.609 Q62.2652 678.803 56.6171 684.567 Z" fill="#000000" fill-rule="nonzero" fill-opacity="1" /><path clip-path="url(#clip490)" d="M82.7512 682.623 L87.6354 682.623 L87.6354 688.502 L82.7512 688.502 L82.7512 682.623 Z" fill="#000000" fill-rule="nonzero" fill-opacity="1" /><path clip-path="url(#clip490)" d="M107.821 657.021 Q104.209 657.021 102.381 660.586 Q100.575 664.127 100.575 671.257 Q100.575 678.363 102.381 681.928 Q104.209 685.47 107.821 685.47 Q111.455 685.47 113.26 681.928 Q115.089 678.363 115.089 671.257 Q115.089 664.127 113.26 660.586 Q111.455 657.021 107.821 657.021 M107.821 653.317 Q113.631 653.317 116.686 657.924 Q119.765 662.507 119.765 671.257 Q119.765 679.984 116.686 684.59 Q113.631 689.174 107.821 689.174 Q102.01 689.174 98.9317 684.59 Q95.8761 679.984 95.8761 671.257 Q95.8761 662.507 98.9317 657.924 Q102.01 653.317 107.821 653.317 Z" fill="#000000" fill-rule="nonzero" fill-opacity="1" /><path clip-path="url(#clip490)" d="M57.6125 473.557 L73.9318 473.557 L73.9318 477.492 L51.9875 477.492 L51.9875 473.557 Q54.6495 470.802 59.2328 466.172 Q63.8393 461.52 65.0198 460.177 Q67.2652 457.654 68.1448 455.918 Q69.0476 454.159 69.0476 452.469 Q69.0476 449.714 67.1032 447.978 Q65.1819 446.242 62.08 446.242 Q59.881 446.242 57.4273 447.006 Q54.9967 447.77 52.219 449.321 L52.219 444.599 Q55.043 443.464 57.4967 442.886 Q59.9504 442.307 61.9874 442.307 Q67.3578 442.307 70.5522 444.992 Q73.7466 447.677 73.7466 452.168 Q73.7466 454.298 72.9365 456.219 Q72.1494 458.117 70.0429 460.71 Q69.4642 461.381 66.3624 464.598 Q63.2606 467.793 57.6125 473.557 Z" fill="#000000" fill-rule="nonzero" fill-opacity="1" /><path clip-path="url(#clip490)" d="M83.7466 471.612 L88.6308 471.612 L88.6308 477.492 L83.7466 477.492 L83.7466 471.612 Z" fill="#000000" fill-rule="nonzero" fill-opacity="1" /><path clip-path="url(#clip490)" d="M98.8622 442.932 L117.219 442.932 L117.219 446.867 L103.145 446.867 L103.145 455.339 Q104.163 454.992 105.182 454.83 Q106.2 454.645 107.219 454.645 Q113.006 454.645 116.385 457.816 Q119.765 460.987 119.765 466.404 Q119.765 471.983 116.293 475.084 Q112.82 478.163 106.501 478.163 Q104.325 478.163 102.057 477.793 Q99.8113 477.422 97.4039 476.682 L97.4039 471.983 Q99.4872 473.117 101.709 473.672 Q103.932 474.228 106.408 474.228 Q110.413 474.228 112.751 472.122 Q115.089 470.015 115.089 466.404 Q115.089 462.793 112.751 460.686 Q110.413 458.58 106.408 458.58 Q104.534 458.58 102.659 458.997 Q100.807 459.413 98.8622 460.293 L98.8622 442.932 Z" fill="#000000" fill-rule="nonzero" fill-opacity="1" /><path clip-path="url(#clip490)" d="M66.7559 247.847 Q70.1124 248.565 71.9874 250.833 Q73.8855 253.102 73.8855 256.435 Q73.8855 261.551 70.367 264.352 Q66.8485 267.153 60.3671 267.153 Q58.1912 267.153 55.8764 266.713 Q53.5847 266.296 51.131 265.44 L51.131 260.926 Q53.0754 262.06 55.3903 262.639 Q57.7051 263.218 60.2282 263.218 Q64.6263 263.218 66.918 261.481 Q69.2328 259.745 69.2328 256.435 Q69.2328 253.38 67.08 251.667 Q64.9504 249.931 61.131 249.931 L57.1032 249.931 L57.1032 246.088 L61.3161 246.088 Q64.7652 246.088 66.5939 244.722 Q68.4226 243.333 68.4226 240.741 Q68.4226 238.079 66.5245 236.667 Q64.6495 235.232 61.131 235.232 Q59.2097 235.232 57.0106 235.648 Q54.8115 236.065 52.1727 236.945 L52.1727 232.778 Q54.8347 232.037 57.1495 231.667 Q59.4875 231.296 61.5476 231.296 Q66.8717 231.296 69.9735 233.727 Q73.0753 236.134 73.0753 240.255 Q73.0753 243.125 71.4318 245.116 Q69.7883 247.083 66.7559 247.847 Z" fill="#000000" fill-rule="nonzero" fill-opacity="1" /><path clip-path="url(#clip490)" d="M82.7512 260.602 L87.6354 260.602 L87.6354 266.481 L82.7512 266.481 L82.7512 260.602 Z" fill="#000000" fill-rule="nonzero" fill-opacity="1" /><path clip-path="url(#clip490)" d="M107.821 235 Q104.209 235 102.381 238.565 Q100.575 242.107 100.575 249.236 Q100.575 256.343 102.381 259.907 Q104.209 263.449 107.821 263.449 Q111.455 263.449 113.26 259.907 Q115.089 256.343 115.089 249.236 Q115.089 242.107 113.26 238.565 Q111.455 235 107.821 235 M107.821 231.296 Q113.631 231.296 116.686 235.903 Q119.765 240.486 119.765 249.236 Q119.765 257.963 116.686 262.569 Q113.631 267.153 107.821 267.153 Q102.01 267.153 98.9317 262.569 Q95.8761 257.963 95.8761 249.236 Q95.8761 240.486 98.9317 235.903 Q102.01 231.296 107.821 231.296 Z" fill="#000000" fill-rule="nonzero" fill-opacity="1" /><polyline clip-path="url(#clip492)" style="stroke:#009af9; stroke-linecap:round; stroke-linejoin:round; stroke-width:12; stroke-opacity:1; fill:none" points="217.944,1304.25 425.207,1258.93 632.47,1268.02 839.734,1269.53 1047,1282.36 1254.26,1297.79 1461.52,1324.26 1668.79,1319.89 1876.05,1329.95 2083.31,1338.9 2290.58,1349.05 "/>
<polyline clip-path="url(#clip492)" style="stroke:#000000; stroke-linecap:round; stroke-linejoin:round; stroke-width:12; stroke-opacity:1; fill:none" points="217.944,1304.25 217.944,1304.25 "/>
<polyline clip-path="url(#clip492)" style="stroke:#000000; stroke-linecap:round; stroke-linejoin:round; stroke-width:12; stroke-opacity:1; fill:none" points="425.207,1324.12 425.207,1218.97 "/>
<polyline clip-path="url(#clip492)" style="stroke:#000000; stroke-linecap:round; stroke-linejoin:round; stroke-width:12; stroke-opacity:1; fill:none" points="632.47,1332.77 632.47,1160.96 "/>
<polyline clip-path="url(#clip492)" style="stroke:#000000; stroke-linecap:round; stroke-linejoin:round; stroke-width:12; stroke-opacity:1; fill:none" points="839.734,1357.88 839.734,1084.02 "/>
<polyline clip-path="url(#clip492)" style="stroke:#000000; stroke-linecap:round; stroke-linejoin:round; stroke-width:12; stroke-opacity:1; fill:none" points="1047,1377.44 1047,903.031 "/>
<polyline clip-path="url(#clip492)" style="stroke:#000000; stroke-linecap:round; stroke-linejoin:round; stroke-width:12; stroke-opacity:1; fill:none" points="1254.26,1405.01 1254.26,725.366 "/>
<polyline clip-path="url(#clip492)" style="stroke:#000000; stroke-linecap:round; stroke-linejoin:round; stroke-width:12; stroke-opacity:1; fill:none" points="1461.52,1410.93 1461.52,768.24 "/>
<polyline clip-path="url(#clip492)" style="stroke:#000000; stroke-linecap:round; stroke-linejoin:round; stroke-width:12; stroke-opacity:1; fill:none" points="1668.79,1421.13 1668.79,726.643 "/>
<polyline clip-path="url(#clip492)" style="stroke:#000000; stroke-linecap:round; stroke-linejoin:round; stroke-width:12; stroke-opacity:1; fill:none" points="1876.05,1437.53 1876.05,685.77 "/>
<polyline clip-path="url(#clip492)" style="stroke:#000000; stroke-linecap:round; stroke-linejoin:round; stroke-width:12; stroke-opacity:1; fill:none" points="2083.31,1438.04 2083.31,615.871 "/>
<polyline clip-path="url(#clip492)" style="stroke:#000000; stroke-linecap:round; stroke-linejoin:round; stroke-width:12; stroke-opacity:1; fill:none" points="2290.58,1445.72 2290.58,483.687 "/>
<line clip-path="url(#clip492)" x1="233.944" y1="1304.25" x2="201.944" y2="1304.25" style="stroke:#000000; stroke-width:12; stroke-opacity:1"/>
<line clip-path="url(#clip492)" x1="233.944" y1="1304.25" x2="201.944" y2="1304.25" style="stroke:#000000; stroke-width:12; stroke-opacity:1"/>
<line clip-path="url(#clip492)" x1="441.207" y1="1324.12" x2="409.207" y2="1324.12" style="stroke:#000000; stroke-width:12; stroke-opacity:1"/>
<line clip-path="url(#clip492)" x1="441.207" y1="1218.97" x2="409.207" y2="1218.97" style="stroke:#000000; stroke-width:12; stroke-opacity:1"/>
<line clip-path="url(#clip492)" x1="648.47" y1="1332.77" x2="616.47" y2="1332.77" style="stroke:#000000; stroke-width:12; stroke-opacity:1"/>
<line clip-path="url(#clip492)" x1="648.47" y1="1160.96" x2="616.47" y2="1160.96" style="stroke:#000000; stroke-width:12; stroke-opacity:1"/>
<line clip-path="url(#clip492)" x1="855.734" y1="1357.88" x2="823.734" y2="1357.88" style="stroke:#000000; stroke-width:12; stroke-opacity:1"/>
<line clip-path="url(#clip492)" x1="855.734" y1="1084.02" x2="823.734" y2="1084.02" style="stroke:#000000; stroke-width:12; stroke-opacity:1"/>
<line clip-path="url(#clip492)" x1="1063" y1="1377.44" x2="1031" y2="1377.44" style="stroke:#000000; stroke-width:12; stroke-opacity:1"/>
<line clip-path="url(#clip492)" x1="1063" y1="903.031" x2="1031" y2="903.031" style="stroke:#000000; stroke-width:12; stroke-opacity:1"/>
<line clip-path="url(#clip492)" x1="1270.26" y1="1405.01" x2="1238.26" y2="1405.01" style="stroke:#000000; stroke-width:12; stroke-opacity:1"/>
<line clip-path="url(#clip492)" x1="1270.26" y1="725.366" x2="1238.26" y2="725.366" style="stroke:#000000; stroke-width:12; stroke-opacity:1"/>
<line clip-path="url(#clip492)" x1="1477.52" y1="1410.93" x2="1445.52" y2="1410.93" style="stroke:#000000; stroke-width:12; stroke-opacity:1"/>
<line clip-path="url(#clip492)" x1="1477.52" y1="768.24" x2="1445.52" y2="768.24" style="stroke:#000000; stroke-width:12; stroke-opacity:1"/>
<line clip-path="url(#clip492)" x1="1684.79" y1="1421.13" x2="1652.79" y2="1421.13" style="stroke:#000000; stroke-width:12; stroke-opacity:1"/>
<line clip-path="url(#clip492)" x1="1684.79" y1="726.643" x2="1652.79" y2="726.643" style="stroke:#000000; stroke-width:12; stroke-opacity:1"/>
<line clip-path="url(#clip492)" x1="1892.05" y1="1437.53" x2="1860.05" y2="1437.53" style="stroke:#000000; stroke-width:12; stroke-opacity:1"/>
<line clip-path="url(#clip492)" x1="1892.05" y1="685.77" x2="1860.05" y2="685.77" style="stroke:#000000; stroke-width:12; stroke-opacity:1"/>
<line clip-path="url(#clip492)" x1="2099.31" y1="1438.04" x2="2067.31" y2="1438.04" style="stroke:#000000; stroke-width:12; stroke-opacity:1"/>
<line clip-path="url(#clip492)" x1="2099.31" y1="615.871" x2="2067.31" y2="615.871" style="stroke:#000000; stroke-width:12; stroke-opacity:1"/>
<line clip-path="url(#clip492)" x1="2306.58" y1="1445.72" x2="2274.58" y2="1445.72" style="stroke:#000000; stroke-width:12; stroke-opacity:1"/>
<line clip-path="url(#clip492)" x1="2306.58" y1="483.687" x2="2274.58" y2="483.687" style="stroke:#000000; stroke-width:12; stroke-opacity:1"/>
<polyline clip-path="url(#clip492)" style="stroke:#e26f46; stroke-linecap:round; stroke-linejoin:round; stroke-width:12; stroke-opacity:1; fill:none" points="217.944,1304.25 425.207,1296.24 632.47,1302.31 839.734,1247.94 1047,1182.19 1254.26,1175.17 1461.52,1150.69 1668.79,1191.22 1876.05,1253.41 2083.31,1258.52 2290.58,1241.61 "/>
<polyline clip-path="url(#clip492)" style="stroke:#000000; stroke-linecap:round; stroke-linejoin:round; stroke-width:12; stroke-opacity:1; fill:none" points="217.944,1304.25 217.944,1304.25 "/>
<polyline clip-path="url(#clip492)" style="stroke:#000000; stroke-linecap:round; stroke-linejoin:round; stroke-width:12; stroke-opacity:1; fill:none" points="425.207,1357.62 425.207,1204.28 "/>
<polyline clip-path="url(#clip492)" style="stroke:#000000; stroke-linecap:round; stroke-linejoin:round; stroke-width:12; stroke-opacity:1; fill:none" points="632.47,1334.51 632.47,1148.15 "/>
<polyline clip-path="url(#clip492)" style="stroke:#000000; stroke-linecap:round; stroke-linejoin:round; stroke-width:12; stroke-opacity:1; fill:none" points="839.734,1334.2 839.734,1127.12 "/>
<polyline clip-path="url(#clip492)" style="stroke:#000000; stroke-linecap:round; stroke-linejoin:round; stroke-width:12; stroke-opacity:1; fill:none" points="1047,1344.91 1047,1025.41 "/>
<polyline clip-path="url(#clip492)" style="stroke:#000000; stroke-linecap:round; stroke-linejoin:round; stroke-width:12; stroke-opacity:1; fill:none" points="1254.26,1329.95 1254.26,802.239 "/>
<polyline clip-path="url(#clip492)" style="stroke:#000000; stroke-linecap:round; stroke-linejoin:round; stroke-width:12; stroke-opacity:1; fill:none" points="1461.52,1314.49 1461.52,612.172 "/>
<polyline clip-path="url(#clip492)" style="stroke:#000000; stroke-linecap:round; stroke-linejoin:round; stroke-width:12; stroke-opacity:1; fill:none" points="1668.79,1338.48 1668.79,337.292 "/>
<polyline clip-path="url(#clip492)" style="stroke:#000000; stroke-linecap:round; stroke-linejoin:round; stroke-width:12; stroke-opacity:1; fill:none" points="1876.05,1342.79 1876.05,125.783 "/>
<polyline clip-path="url(#clip492)" style="stroke:#000000; stroke-linecap:round; stroke-linejoin:round; stroke-width:12; stroke-opacity:1; fill:none" points="2083.31,1359.97 2083.31,87.9763 "/>
<polyline clip-path="url(#clip492)" style="stroke:#000000; stroke-linecap:round; stroke-linejoin:round; stroke-width:12; stroke-opacity:1; fill:none" points="2290.58,1394.14 2290.58,331.153 "/>
<line clip-path="url(#clip492)" x1="233.944" y1="1304.25" x2="201.944" y2="1304.25" style="stroke:#000000; stroke-width:12; stroke-opacity:1"/>
<line clip-path="url(#clip492)" x1="233.944" y1="1304.25" x2="201.944" y2="1304.25" style="stroke:#000000; stroke-width:12; stroke-opacity:1"/>
<line clip-path="url(#clip492)" x1="441.207" y1="1357.62" x2="409.207" y2="1357.62" style="stroke:#000000; stroke-width:12; stroke-opacity:1"/>
<line clip-path="url(#clip492)" x1="441.207" y1="1204.28" x2="409.207" y2="1204.28" style="stroke:#000000; stroke-width:12; stroke-opacity:1"/>
<line clip-path="url(#clip492)" x1="648.47" y1="1334.51" x2="616.47" y2="1334.51" style="stroke:#000000; stroke-width:12; stroke-opacity:1"/>
<line clip-path="url(#clip492)" x1="648.47" y1="1148.15" x2="616.47" y2="1148.15" style="stroke:#000000; stroke-width:12; stroke-opacity:1"/>
<line clip-path="url(#clip492)" x1="855.734" y1="1334.2" x2="823.734" y2="1334.2" style="stroke:#000000; stroke-width:12; stroke-opacity:1"/>
<line clip-path="url(#clip492)" x1="855.734" y1="1127.12" x2="823.734" y2="1127.12" style="stroke:#000000; stroke-width:12; stroke-opacity:1"/>
<line clip-path="url(#clip492)" x1="1063" y1="1344.91" x2="1031" y2="1344.91" style="stroke:#000000; stroke-width:12; stroke-opacity:1"/>
<line clip-path="url(#clip492)" x1="1063" y1="1025.41" x2="1031" y2="1025.41" style="stroke:#000000; stroke-width:12; stroke-opacity:1"/>
<line clip-path="url(#clip492)" x1="1270.26" y1="1329.95" x2="1238.26" y2="1329.95" style="stroke:#000000; stroke-width:12; stroke-opacity:1"/>
<line clip-path="url(#clip492)" x1="1270.26" y1="802.239" x2="1238.26" y2="802.239" style="stroke:#000000; stroke-width:12; stroke-opacity:1"/>
<line clip-path="url(#clip492)" x1="1477.52" y1="1314.49" x2="1445.52" y2="1314.49" style="stroke:#000000; stroke-width:12; stroke-opacity:1"/>
<line clip-path="url(#clip492)" x1="1477.52" y1="612.172" x2="1445.52" y2="612.172" style="stroke:#000000; stroke-width:12; stroke-opacity:1"/>
<line clip-path="url(#clip492)" x1="1684.79" y1="1338.48" x2="1652.79" y2="1338.48" style="stroke:#000000; stroke-width:12; stroke-opacity:1"/>
<line clip-path="url(#clip492)" x1="1684.79" y1="337.292" x2="1652.79" y2="337.292" style="stroke:#000000; stroke-width:12; stroke-opacity:1"/>
<line clip-path="url(#clip492)" x1="1892.05" y1="1342.79" x2="1860.05" y2="1342.79" style="stroke:#000000; stroke-width:12; stroke-opacity:1"/>
<line clip-path="url(#clip492)" x1="1892.05" y1="125.783" x2="1860.05" y2="125.783" style="stroke:#000000; stroke-width:12; stroke-opacity:1"/>
<line clip-path="url(#clip492)" x1="2099.31" y1="1359.97" x2="2067.31" y2="1359.97" style="stroke:#000000; stroke-width:12; stroke-opacity:1"/>
<line clip-path="url(#clip492)" x1="2099.31" y1="87.9763" x2="2067.31" y2="87.9763" style="stroke:#000000; stroke-width:12; stroke-opacity:1"/>
<line clip-path="url(#clip492)" x1="2306.58" y1="1394.14" x2="2274.58" y2="1394.14" style="stroke:#000000; stroke-width:12; stroke-opacity:1"/>
<line clip-path="url(#clip492)" x1="2306.58" y1="331.153" x2="2274.58" y2="331.153" style="stroke:#000000; stroke-width:12; stroke-opacity:1"/>
</svg>
