<?xml version="1.0" encoding="utf-8"?>
<svg xmlns="http://www.w3.org/2000/svg" xmlns:xlink="http://www.w3.org/1999/xlink" width="600" height="400" viewBox="0 0 2400 1600">
<defs>
  <clipPath id="clip460">
    <rect x="0" y="0" width="2400" height="1600"/>
  </clipPath>
</defs>
<path clip-path="url(#clip460)" d="M0 1600 L2400 1600 L2400 0 L0 0  Z" fill="#ffffff" fill-rule="evenodd" fill-opacity="1"/>
<defs>
  <clipPath id="clip461">
    <rect x="480" y="0" width="1681" height="1600"/>
  </clipPath>
</defs>
<path clip-path="url(#clip460)" d="M155.765 1486.45 L2352.76 1486.45 L2352.76 47.2441 L155.765 47.2441  Z" fill="#ffffff" fill-rule="evenodd" fill-opacity="1"/>
<defs>
  <clipPath id="clip462">
    <rect x="155" y="47" width="2198" height="1440"/>
  </clipPath>
</defs>
<polyline clip-path="url(#clip462)" style="stroke:#000000; stroke-linecap:round; stroke-linejoin:round; stroke-width:2; stroke-opacity:0.1; fill:none" points="217.944,1486.45 217.944,47.2441 "/>
<polyline clip-path="url(#clip462)" style="stroke:#000000; stroke-linecap:round; stroke-linejoin:round; stroke-width:2; stroke-opacity:0.1; fill:none" points="736.102,1486.45 736.102,47.2441 "/>
<polyline clip-path="url(#clip462)" style="stroke:#000000; stroke-linecap:round; stroke-linejoin:round; stroke-width:2; stroke-opacity:0.1; fill:none" points="1254.26,1486.45 1254.26,47.2441 "/>
<polyline clip-path="url(#clip462)" style="stroke:#000000; stroke-linecap:round; stroke-linejoin:round; stroke-width:2; stroke-opacity:0.1; fill:none" points="1772.42,1486.45 1772.42,47.2441 "/>
<polyline clip-path="url(#clip462)" style="stroke:#000000; stroke-linecap:round; stroke-linejoin:round; stroke-width:2; stroke-opacity:0.1; fill:none" points="2290.58,1486.45 2290.58,47.2441 "/>
<polyline clip-path="url(#clip462)" style="stroke:#000000; stroke-linecap:round; stroke-linejoin:round; stroke-width:2; stroke-opacity:0.1; fill:none" points="155.765,1246.07 2352.76,1246.07 "/>
<polyline clip-path="url(#clip462)" style="stroke:#000000; stroke-linecap:round; stroke-linejoin:round; stroke-width:2; stroke-opacity:0.1; fill:none" points="155.765,948.261 2352.76,948.261 "/>
<polyline clip-path="url(#clip462)" style="stroke:#000000; stroke-linecap:round; stroke-linejoin:round; stroke-width:2; stroke-opacity:0.1; fill:none" points="155.765,650.456 2352.76,650.456 "/>
<polyline clip-path="url(#clip462)" style="stroke:#000000; stroke-linecap:round; stroke-linejoin:round; stroke-width:2; stroke-opacity:0.1; fill:none" points="155.765,352.65 2352.76,352.65 "/>
<polyline clip-path="url(#clip462)" style="stroke:#000000; stroke-linecap:round; stroke-linejoin:round; stroke-width:2; stroke-opacity:0.1; fill:none" points="155.765,54.8452 2352.76,54.8452 "/>
<polyline clip-path="url(#clip460)" style="stroke:#000000; stroke-linecap:round; stroke-linejoin:round; stroke-width:4; stroke-opacity:1; fill:none" points="155.765,1486.45 2352.76,1486.45 "/>
<polyline clip-path="url(#clip460)" style="stroke:#000000; stroke-linecap:round; stroke-linejoin:round; stroke-width:4; stroke-opacity:1; fill:none" points="217.944,1486.45 217.944,1467.55 "/>
<polyline clip-path="url(#clip460)" style="stroke:#000000; stroke-linecap:round; stroke-linejoin:round; stroke-width:4; stroke-opacity:1; fill:none" points="736.102,1486.45 736.102,1467.55 "/>
<polyline clip-path="url(#clip460)" style="stroke:#000000; stroke-linecap:round; stroke-linejoin:round; stroke-width:4; stroke-opacity:1; fill:none" points="1254.26,1486.45 1254.26,1467.55 "/>
<polyline clip-path="url(#clip460)" style="stroke:#000000; stroke-linecap:round; stroke-linejoin:round; stroke-width:4; stroke-opacity:1; fill:none" points="1772.42,1486.45 1772.42,1467.55 "/>
<polyline clip-path="url(#clip460)" style="stroke:#000000; stroke-linecap:round; stroke-linejoin:round; stroke-width:4; stroke-opacity:1; fill:none" points="2290.58,1486.45 2290.58,1467.55 "/>
<path clip-path="url(#clip460)" d="M180.247 1517.37 Q176.636 1517.37 174.808 1520.93 Q173.002 1524.47 173.002 1531.6 Q173.002 1538.71 174.808 1542.27 Q176.636 1545.82 180.247 1545.82 Q183.882 1545.82 185.687 1542.27 Q187.516 1538.71 187.516 1531.6 Q187.516 1524.47 185.687 1520.93 Q183.882 1517.37 180.247 1517.37 M180.247 1513.66 Q186.057 1513.66 189.113 1518.27 Q192.192 1522.85 192.192 1531.6 Q192.192 1540.33 189.113 1544.94 Q186.057 1549.52 180.247 1549.52 Q174.437 1549.52 171.358 1544.94 Q168.303 1540.33 168.303 1531.6 Q168.303 1522.85 171.358 1518.27 Q174.437 1513.66 180.247 1513.66 Z" fill="#000000" fill-rule="nonzero" fill-opacity="1" /><path clip-path="url(#clip460)" d="M200.409 1542.97 L205.294 1542.97 L205.294 1548.85 L200.409 1548.85 L200.409 1542.97 Z" fill="#000000" fill-rule="nonzero" fill-opacity="1" /><path clip-path="url(#clip460)" d="M225.479 1517.37 Q221.867 1517.37 220.039 1520.93 Q218.233 1524.47 218.233 1531.6 Q218.233 1538.71 220.039 1542.27 Q221.867 1545.82 225.479 1545.82 Q229.113 1545.82 230.918 1542.27 Q232.747 1538.71 232.747 1531.6 Q232.747 1524.47 230.918 1520.93 Q229.113 1517.37 225.479 1517.37 M225.479 1513.66 Q231.289 1513.66 234.344 1518.27 Q237.423 1522.85 237.423 1531.6 Q237.423 1540.33 234.344 1544.94 Q231.289 1549.52 225.479 1549.52 Q219.668 1549.52 216.59 1544.94 Q213.534 1540.33 213.534 1531.6 Q213.534 1522.85 216.59 1518.27 Q219.668 1513.66 225.479 1513.66 Z" fill="#000000" fill-rule="nonzero" fill-opacity="1" /><path clip-path="url(#clip460)" d="M255.64 1517.37 Q252.029 1517.37 250.201 1520.93 Q248.395 1524.47 248.395 1531.6 Q248.395 1538.71 250.201 1542.27 Q252.029 1545.82 255.64 1545.82 Q259.275 1545.82 261.08 1542.27 Q262.909 1538.71 262.909 1531.6 Q262.909 1524.47 261.08 1520.93 Q259.275 1517.37 255.64 1517.37 M255.64 1513.66 Q261.451 1513.66 264.506 1518.27 Q267.585 1522.85 267.585 1531.6 Q267.585 1540.33 264.506 1544.94 Q261.451 1549.52 255.64 1549.52 Q249.83 1549.52 246.752 1544.94 Q243.696 1540.33 243.696 1531.6 Q243.696 1522.85 246.752 1518.27 Q249.83 1513.66 255.64 1513.66 Z" fill="#000000" fill-rule="nonzero" fill-opacity="1" /><path clip-path="url(#clip460)" d="M698.903 1517.37 Q695.292 1517.37 693.463 1520.93 Q691.658 1524.47 691.658 1531.6 Q691.658 1538.71 693.463 1542.27 Q695.292 1545.82 698.903 1545.82 Q702.538 1545.82 704.343 1542.27 Q706.172 1538.71 706.172 1531.6 Q706.172 1524.47 704.343 1520.93 Q702.538 1517.37 698.903 1517.37 M698.903 1513.66 Q704.713 1513.66 707.769 1518.27 Q710.848 1522.85 710.848 1531.6 Q710.848 1540.33 707.769 1544.94 Q704.713 1549.52 698.903 1549.52 Q693.093 1549.52 690.014 1544.94 Q686.959 1540.33 686.959 1531.6 Q686.959 1522.85 690.014 1518.27 Q693.093 1513.66 698.903 1513.66 Z" fill="#000000" fill-rule="nonzero" fill-opacity="1" /><path clip-path="url(#clip460)" d="M719.065 1542.97 L723.949 1542.97 L723.949 1548.85 L719.065 1548.85 L719.065 1542.97 Z" fill="#000000" fill-rule="nonzero" fill-opacity="1" /><path clip-path="url(#clip460)" d="M738.162 1544.91 L754.482 1544.91 L754.482 1548.85 L732.537 1548.85 L732.537 1544.91 Q735.199 1542.16 739.783 1537.53 Q744.389 1532.88 745.57 1531.53 Q747.815 1529.01 748.695 1527.27 Q749.597 1525.51 749.597 1523.82 Q749.597 1521.07 747.653 1519.33 Q745.732 1517.6 742.63 1517.6 Q740.431 1517.6 737.977 1518.36 Q735.547 1519.13 732.769 1520.68 L732.769 1515.95 Q735.593 1514.82 738.047 1514.24 Q740.5 1513.66 742.537 1513.66 Q747.908 1513.66 751.102 1516.35 Q754.296 1519.03 754.296 1523.52 Q754.296 1525.65 753.486 1527.57 Q752.699 1529.47 750.593 1532.07 Q750.014 1532.74 746.912 1535.95 Q743.81 1539.15 738.162 1544.91 Z" fill="#000000" fill-rule="nonzero" fill-opacity="1" /><path clip-path="url(#clip460)" d="M764.343 1514.29 L782.699 1514.29 L782.699 1518.22 L768.625 1518.22 L768.625 1526.7 Q769.644 1526.35 770.662 1526.19 Q771.681 1526 772.699 1526 Q778.486 1526 781.866 1529.17 Q785.245 1532.34 785.245 1537.76 Q785.245 1543.34 781.773 1546.44 Q778.301 1549.52 771.982 1549.52 Q769.806 1549.52 767.537 1549.15 Q765.292 1548.78 762.884 1548.04 L762.884 1543.34 Q764.968 1544.47 767.19 1545.03 Q769.412 1545.58 771.889 1545.58 Q775.894 1545.58 778.232 1543.48 Q780.57 1541.37 780.57 1537.76 Q780.57 1534.15 778.232 1532.04 Q775.894 1529.94 771.889 1529.94 Q770.014 1529.94 768.139 1530.35 Q766.287 1530.77 764.343 1531.65 L764.343 1514.29 Z" fill="#000000" fill-rule="nonzero" fill-opacity="1" /><path clip-path="url(#clip460)" d="M1216.56 1517.37 Q1212.95 1517.37 1211.12 1520.93 Q1209.32 1524.47 1209.32 1531.6 Q1209.32 1538.71 1211.12 1542.27 Q1212.95 1545.82 1216.56 1545.82 Q1220.2 1545.82 1222 1542.27 Q1223.83 1538.71 1223.83 1531.6 Q1223.83 1524.47 1222 1520.93 Q1220.2 1517.37 1216.56 1517.37 M1216.56 1513.66 Q1222.37 1513.66 1225.43 1518.27 Q1228.51 1522.85 1228.51 1531.6 Q1228.51 1540.33 1225.43 1544.94 Q1222.37 1549.52 1216.56 1549.52 Q1210.75 1549.52 1207.68 1544.94 Q1204.62 1540.33 1204.62 1531.6 Q1204.62 1522.85 1207.68 1518.27 Q1210.75 1513.66 1216.56 1513.66 Z" fill="#000000" fill-rule="nonzero" fill-opacity="1" /><path clip-path="url(#clip460)" d="M1236.73 1542.97 L1241.61 1542.97 L1241.61 1548.85 L1236.73 1548.85 L1236.73 1542.97 Z" fill="#000000" fill-rule="nonzero" fill-opacity="1" /><path clip-path="url(#clip460)" d="M1251.84 1514.29 L1270.2 1514.29 L1270.2 1518.22 L1256.12 1518.22 L1256.12 1526.7 Q1257.14 1526.35 1258.16 1526.19 Q1259.18 1526 1260.2 1526 Q1265.98 1526 1269.36 1529.17 Q1272.74 1532.34 1272.74 1537.76 Q1272.74 1543.34 1269.27 1546.44 Q1265.8 1549.52 1259.48 1549.52 Q1257.3 1549.52 1255.04 1549.15 Q1252.79 1548.78 1250.38 1548.04 L1250.38 1543.34 Q1252.47 1544.47 1254.69 1545.03 Q1256.91 1545.58 1259.39 1545.58 Q1263.39 1545.58 1265.73 1543.48 Q1268.07 1541.37 1268.07 1537.76 Q1268.07 1534.15 1265.73 1532.04 Q1263.39 1529.94 1259.39 1529.94 Q1257.51 1529.94 1255.64 1530.35 Q1253.79 1530.77 1251.84 1531.65 L1251.84 1514.29 Z" fill="#000000" fill-rule="nonzero" fill-opacity="1" /><path clip-path="url(#clip460)" d="M1291.96 1517.37 Q1288.35 1517.37 1286.52 1520.93 Q1284.71 1524.47 1284.71 1531.6 Q1284.71 1538.71 1286.52 1542.27 Q1288.35 1545.82 1291.96 1545.82 Q1295.59 1545.82 1297.4 1542.27 Q1299.23 1538.71 1299.23 1531.6 Q1299.23 1524.47 1297.4 1520.93 Q1295.59 1517.37 1291.96 1517.37 M1291.96 1513.66 Q1297.77 1513.66 1300.82 1518.27 Q1303.9 1522.85 1303.9 1531.6 Q1303.9 1540.33 1300.82 1544.94 Q1297.77 1549.52 1291.96 1549.52 Q1286.15 1549.52 1283.07 1544.94 Q1280.01 1540.33 1280.01 1531.6 Q1280.01 1522.85 1283.07 1518.27 Q1286.15 1513.66 1291.96 1513.66 Z" fill="#000000" fill-rule="nonzero" fill-opacity="1" /><path clip-path="url(#clip460)" d="M1735.22 1517.37 Q1731.61 1517.37 1729.78 1520.93 Q1727.97 1524.47 1727.97 1531.6 Q1727.97 1538.71 1729.78 1542.27 Q1731.61 1545.82 1735.22 1545.82 Q1738.85 1545.82 1740.66 1542.27 Q1742.49 1538.71 1742.49 1531.6 Q1742.49 1524.47 1740.66 1520.93 Q1738.85 1517.37 1735.22 1517.37 M1735.22 1513.66 Q1741.03 1513.66 1744.09 1518.27 Q1747.16 1522.85 1747.16 1531.6 Q1747.16 1540.33 1744.09 1544.94 Q1741.03 1549.52 1735.22 1549.52 Q1729.41 1549.52 1726.33 1544.94 Q1723.28 1540.33 1723.28 1531.6 Q1723.28 1522.85 1726.33 1518.27 Q1729.41 1513.66 1735.22 1513.66 Z" fill="#000000" fill-rule="nonzero" fill-opacity="1" /><path clip-path="url(#clip460)" d="M1755.38 1542.97 L1760.27 1542.97 L1760.27 1548.85 L1755.38 1548.85 L1755.38 1542.97 Z" fill="#000000" fill-rule="nonzero" fill-opacity="1" /><path clip-path="url(#clip460)" d="M1769.27 1514.29 L1791.49 1514.29 L1791.49 1516.28 L1778.95 1548.85 L1774.06 1548.85 L1785.87 1518.22 L1769.27 1518.22 L1769.27 1514.29 Z" fill="#000000" fill-rule="nonzero" fill-opacity="1" /><path clip-path="url(#clip460)" d="M1800.66 1514.29 L1819.02 1514.29 L1819.02 1518.22 L1804.94 1518.22 L1804.94 1526.7 Q1805.96 1526.35 1806.98 1526.19 Q1808 1526 1809.02 1526 Q1814.8 1526 1818.18 1529.17 Q1821.56 1532.34 1821.56 1537.76 Q1821.56 1543.34 1818.09 1546.44 Q1814.62 1549.52 1808.3 1549.52 Q1806.12 1549.52 1803.85 1549.15 Q1801.61 1548.78 1799.2 1548.04 L1799.2 1543.34 Q1801.28 1544.47 1803.51 1545.03 Q1805.73 1545.58 1808.21 1545.58 Q1812.21 1545.58 1814.55 1543.48 Q1816.89 1541.37 1816.89 1537.76 Q1816.89 1534.15 1814.55 1532.04 Q1812.21 1529.94 1808.21 1529.94 Q1806.33 1529.94 1804.46 1530.35 Q1802.6 1530.77 1800.66 1531.65 L1800.66 1514.29 Z" fill="#000000" fill-rule="nonzero" fill-opacity="1" /><path clip-path="url(#clip460)" d="M2242.65 1544.91 L2250.29 1544.91 L2250.29 1518.55 L2241.98 1520.21 L2241.98 1515.95 L2250.24 1514.29 L2254.92 1514.29 L2254.92 1544.91 L2262.56 1544.91 L2262.56 1548.85 L2242.65 1548.85 L2242.65 1544.91 Z" fill="#000000" fill-rule="nonzero" fill-opacity="1" /><path clip-path="url(#clip460)" d="M2272 1542.97 L2276.88 1542.97 L2276.88 1548.85 L2272 1548.85 L2272 1542.97 Z" fill="#000000" fill-rule="nonzero" fill-opacity="1" /><path clip-path="url(#clip460)" d="M2297.07 1517.37 Q2293.46 1517.37 2291.63 1520.93 Q2289.82 1524.47 2289.82 1531.6 Q2289.82 1538.71 2291.63 1542.27 Q2293.46 1545.82 2297.07 1545.82 Q2300.7 1545.82 2302.51 1542.27 Q2304.34 1538.71 2304.34 1531.6 Q2304.34 1524.47 2302.51 1520.93 Q2300.7 1517.37 2297.07 1517.37 M2297.07 1513.66 Q2302.88 1513.66 2305.94 1518.27 Q2309.01 1522.85 2309.01 1531.6 Q2309.01 1540.33 2305.94 1544.94 Q2302.88 1549.52 2297.07 1549.52 Q2291.26 1549.52 2288.18 1544.94 Q2285.13 1540.33 2285.13 1531.6 Q2285.13 1522.85 2288.18 1518.27 Q2291.26 1513.66 2297.07 1513.66 Z" fill="#000000" fill-rule="nonzero" fill-opacity="1" /><path clip-path="url(#clip460)" d="M2327.23 1517.37 Q2323.62 1517.37 2321.79 1520.93 Q2319.99 1524.47 2319.99 1531.6 Q2319.99 1538.71 2321.79 1542.27 Q2323.62 1545.82 2327.23 1545.82 Q2330.87 1545.82 2332.67 1542.27 Q2334.5 1538.71 2334.5 1531.6 Q2334.5 1524.47 2332.67 1520.93 Q2330.87 1517.37 2327.23 1517.37 M2327.23 1513.66 Q2333.04 1513.66 2336.1 1518.27 Q2339.18 1522.85 2339.18 1531.6 Q2339.18 1540.33 2336.1 1544.94 Q2333.04 1549.52 2327.23 1549.52 Q2321.42 1549.52 2318.34 1544.94 Q2315.29 1540.33 2315.29 1531.6 Q2315.29 1522.85 2318.34 1518.27 Q2321.42 1513.66 2327.23 1513.66 Z" fill="#000000" fill-rule="nonzero" fill-opacity="1" /><polyline clip-path="url(#clip460)" style="stroke:#000000; stroke-linecap:round; stroke-linejoin:round; stroke-width:4; stroke-opacity:1; fill:none" points="155.765,1486.45 155.765,47.2441 "/>
<polyline clip-path="url(#clip460)" style="stroke:#000000; stroke-linecap:round; stroke-linejoin:round; stroke-width:4; stroke-opacity:1; fill:none" points="155.765,1246.07 174.663,1246.07 "/>
<polyline clip-path="url(#clip460)" style="stroke:#000000; stroke-linecap:round; stroke-linejoin:round; stroke-width:4; stroke-opacity:1; fill:none" points="155.765,948.261 174.663,948.261 "/>
<polyline clip-path="url(#clip460)" style="stroke:#000000; stroke-linecap:round; stroke-linejoin:round; stroke-width:4; stroke-opacity:1; fill:none" points="155.765,650.456 174.663,650.456 "/>
<polyline clip-path="url(#clip460)" style="stroke:#000000; stroke-linecap:round; stroke-linejoin:round; stroke-width:4; stroke-opacity:1; fill:none" points="155.765,352.65 174.663,352.65 "/>
<polyline clip-path="url(#clip460)" style="stroke:#000000; stroke-linecap:round; stroke-linejoin:round; stroke-width:4; stroke-opacity:1; fill:none" points="155.765,54.8452 174.663,54.8452 "/>
<path clip-path="url(#clip460)" d="M63.5847 1231.86 Q59.9736 1231.86 58.1449 1235.43 Q56.3393 1238.97 56.3393 1246.1 Q56.3393 1253.21 58.1449 1256.77 Q59.9736 1260.31 63.5847 1260.31 Q67.2189 1260.31 69.0244 1256.77 Q70.8531 1253.21 70.8531 1246.1 Q70.8531 1238.97 69.0244 1235.43 Q67.2189 1231.86 63.5847 1231.86 M63.5847 1228.16 Q69.3948 1228.16 72.4503 1232.77 Q75.529 1237.35 75.529 1246.1 Q75.529 1254.83 72.4503 1259.43 Q69.3948 1264.02 63.5847 1264.02 Q57.7745 1264.02 54.6958 1259.43 Q51.6403 1254.83 51.6403 1246.1 Q51.6403 1237.35 54.6958 1232.77 Q57.7745 1228.16 63.5847 1228.16 Z" fill="#000000" fill-rule="nonzero" fill-opacity="1" /><path clip-path="url(#clip460)" d="M83.7466 1257.47 L88.6308 1257.47 L88.6308 1263.35 L83.7466 1263.35 L83.7466 1257.47 Z" fill="#000000" fill-rule="nonzero" fill-opacity="1" /><path clip-path="url(#clip460)" d="M98.8622 1228.79 L117.219 1228.79 L117.219 1232.72 L103.145 1232.72 L103.145 1241.19 Q104.163 1240.85 105.182 1240.68 Q106.2 1240.5 107.219 1240.5 Q113.006 1240.5 116.385 1243.67 Q119.765 1246.84 119.765 1252.26 Q119.765 1257.84 116.293 1260.94 Q112.82 1264.02 106.501 1264.02 Q104.325 1264.02 102.057 1263.65 Q99.8113 1263.28 97.4039 1262.54 L97.4039 1257.84 Q99.4872 1258.97 101.709 1259.53 Q103.932 1260.08 106.408 1260.08 Q110.413 1260.08 112.751 1257.98 Q115.089 1255.87 115.089 1252.26 Q115.089 1248.65 112.751 1246.54 Q110.413 1244.43 106.408 1244.43 Q104.534 1244.43 102.659 1244.85 Q100.807 1245.27 98.8622 1246.15 L98.8622 1228.79 Z" fill="#000000" fill-rule="nonzero" fill-opacity="1" /><path clip-path="url(#clip460)" d="M53.3995 961.606 L61.0384 961.606 L61.0384 935.24 L52.7282 936.907 L52.7282 932.648 L60.9921 930.981 L65.668 930.981 L65.668 961.606 L73.3068 961.606 L73.3068 965.541 L53.3995 965.541 L53.3995 961.606 Z" fill="#000000" fill-rule="nonzero" fill-opacity="1" /><path clip-path="url(#clip460)" d="M82.7512 959.661 L87.6354 959.661 L87.6354 965.541 L82.7512 965.541 L82.7512 959.661 Z" fill="#000000" fill-rule="nonzero" fill-opacity="1" /><path clip-path="url(#clip460)" d="M107.821 934.06 Q104.209 934.06 102.381 937.624 Q100.575 941.166 100.575 948.296 Q100.575 955.402 102.381 958.967 Q104.209 962.508 107.821 962.508 Q111.455 962.508 113.26 958.967 Q115.089 955.402 115.089 948.296 Q115.089 941.166 113.26 937.624 Q111.455 934.06 107.821 934.06 M107.821 930.356 Q113.631 930.356 116.686 934.962 Q119.765 939.546 119.765 948.296 Q119.765 957.022 116.686 961.629 Q113.631 966.212 107.821 966.212 Q102.01 966.212 98.9317 961.629 Q95.8761 957.022 95.8761 948.296 Q95.8761 939.546 98.9317 934.962 Q102.01 930.356 107.821 930.356 Z" fill="#000000" fill-rule="nonzero" fill-opacity="1" /><path clip-path="url(#clip460)" d="M54.3949 663.8 L62.0337 663.8 L62.0337 637.435 L53.7236 639.102 L53.7236 634.842 L61.9874 633.176 L66.6633 633.176 L66.6633 663.8 L74.3022 663.8 L74.3022 667.736 L54.3949 667.736 L54.3949 663.8 Z" fill="#000000" fill-rule="nonzero" fill-opacity="1" /><path clip-path="url(#clip460)" d="M83.7466 661.856 L88.6308 661.856 L88.6308 667.736 L83.7466 667.736 L83.7466 661.856 Z" fill="#000000" fill-rule="nonzero" fill-opacity="1" /><path clip-path="url(#clip460)" d="M98.8622 633.176 L117.219 633.176 L117.219 637.111 L103.145 637.111 L103.145 645.583 Q104.163 645.236 105.182 645.074 Q106.2 644.889 107.219 644.889 Q113.006 644.889 116.385 648.06 Q119.765 651.231 119.765 656.648 Q119.765 662.226 116.293 665.328 Q112.82 668.407 106.501 668.407 Q104.325 668.407 102.057 668.037 Q99.8113 667.666 97.4039 666.925 L97.4039 662.226 Q99.4872 663.361 101.709 663.916 Q103.932 664.472 106.408 664.472 Q110.413 664.472 112.751 662.365 Q115.089 660.259 115.089 656.648 Q115.089 653.037 112.751 650.93 Q110.413 648.824 106.408 648.824 Q104.534 648.824 102.659 649.24 Q100.807 649.657 98.8622 650.537 L98.8622 633.176 Z" fill="#000000" fill-rule="nonzero" fill-opacity="1" /><path clip-path="url(#clip460)" d="M56.6171 365.995 L72.9365 365.995 L72.9365 369.93 L50.9921 369.93 L50.9921 365.995 Q53.6541 363.241 58.2375 358.611 Q62.8439 353.958 64.0245 352.616 Q66.2698 350.093 67.1494 348.356 Q68.0522 346.597 68.0522 344.907 Q68.0522 342.153 66.1078 340.417 Q64.1865 338.681 61.0847 338.681 Q58.8856 338.681 56.4319 339.444 Q54.0014 340.208 51.2236 341.759 L51.2236 337.037 Q54.0477 335.903 56.5014 335.324 Q58.955 334.745 60.9921 334.745 Q66.3624 334.745 69.5568 337.431 Q72.7513 340.116 72.7513 344.606 Q72.7513 346.736 71.9411 348.657 Q71.1541 350.556 69.0476 353.148 Q68.4689 353.819 65.367 357.037 Q62.2652 360.231 56.6171 365.995 Z" fill="#000000" fill-rule="nonzero" fill-opacity="1" /><path clip-path="url(#clip460)" d="M82.7512 364.051 L87.6354 364.051 L87.6354 369.93 L82.7512 369.93 L82.7512 364.051 Z" fill="#000000" fill-rule="nonzero" fill-opacity="1" /><path clip-path="url(#clip460)" d="M107.821 338.449 Q104.209 338.449 102.381 342.014 Q100.575 345.556 100.575 352.685 Q100.575 359.792 102.381 363.356 Q104.209 366.898 107.821 366.898 Q111.455 366.898 113.26 363.356 Q115.089 359.792 115.089 352.685 Q115.089 345.556 113.26 342.014 Q111.455 338.449 107.821 338.449 M107.821 334.745 Q113.631 334.745 116.686 339.352 Q119.765 343.935 119.765 352.685 Q119.765 361.412 116.686 366.018 Q113.631 370.602 107.821 370.602 Q102.01 370.602 98.9317 366.018 Q95.8761 361.412 95.8761 352.685 Q95.8761 343.935 98.9317 339.352 Q102.01 334.745 107.821 334.745 Z" fill="#000000" fill-rule="nonzero" fill-opacity="1" /><path clip-path="url(#clip460)" d="M57.6125 68.19 L73.9318 68.19 L73.9318 72.1252 L51.9875 72.1252 L51.9875 68.19 Q54.6495 65.4354 59.2328 60.8058 Q63.8393 56.1531 65.0198 54.8105 Q67.2652 52.2874 68.1448 50.5513 Q69.0476 48.792 69.0476 47.1022 Q69.0476 44.3476 67.1032 42.6115 Q65.1819 40.8754 62.08 40.8754 Q59.881 40.8754 57.4273 41.6393 Q54.9967 42.4031 52.219 43.9541 L52.219 39.2319 Q55.043 38.0976 57.4967 37.5189 Q59.9504 36.9402 61.9874 36.9402 Q67.3578 36.9402 70.5522 39.6254 Q73.7466 42.3106 73.7466 46.8013 Q73.7466 48.9309 72.9365 50.8522 Q72.1494 52.7503 70.0429 55.3429 Q69.4642 56.0142 66.3624 59.2318 Q63.2606 62.4262 57.6125 68.19 Z" fill="#000000" fill-rule="nonzero" fill-opacity="1" /><path clip-path="url(#clip460)" d="M83.7466 66.2456 L88.6308 66.2456 L88.6308 72.1252 L83.7466 72.1252 L83.7466 66.2456 Z" fill="#000000" fill-rule="nonzero" fill-opacity="1" /><path clip-path="url(#clip460)" d="M98.8622 37.5652 L117.219 37.5652 L117.219 41.5004 L103.145 41.5004 L103.145 49.9726 Q104.163 49.6253 105.182 49.4633 Q106.2 49.2781 107.219 49.2781 Q113.006 49.2781 116.385 52.4494 Q119.765 55.6207 119.765 61.0373 Q119.765 66.616 116.293 69.7178 Q112.82 72.7965 106.501 72.7965 Q104.325 72.7965 102.057 72.4261 Q99.8113 72.0558 97.4039 71.315 L97.4039 66.616 Q99.4872 67.7502 101.709 68.3058 Q103.932 68.8613 106.408 68.8613 Q110.413 68.8613 112.751 66.7549 Q115.089 64.6484 115.089 61.0373 Q115.089 57.4262 112.751 55.3197 Q110.413 53.2133 106.408 53.2133 Q104.534 53.2133 102.659 53.6299 Q100.807 54.0466 98.8622 54.9262 L98.8622 37.5652 Z" fill="#000000" fill-rule="nonzero" fill-opacity="1" /><path clip-path="url(#clip462)" d="M217.944 1246.07 L425.207 1274.11 L632.47 1286.31 L839.734 1321.75 L1047 1349.35 L1254.26 1388.27 L1461.52 1396.62 L1668.79 1411.01 L1876.05 1434.16 L2083.31 1434.88 L2290.58 1445.72 L2290.58 87.9763 L2083.31 274.532 L1876.05 373.181 L1668.79 430.867 L1461.52 489.575 L1254.26 429.065 L1047 679.809 L839.734 935.241 L632.47 1043.84 L425.207 1125.7 L217.944 1246.07  Z" fill="#009af9" fill-rule="evenodd" fill-opacity="0.2"/>
<polyline clip-path="url(#clip462)" style="stroke:#009af9; stroke-linecap:round; stroke-linejoin:round; stroke-width:12; stroke-opacity:1; fill:none" points="217.944,1246.07 425.207,1182.1 632.47,1194.92 839.734,1197.06 1047,1215.17 1254.26,1236.95 1461.52,1274.3 1668.79,1268.13 1876.05,1282.33 2083.31,1294.96 2290.58,1309.29 "/>
</svg>
