<?xml version="1.0" encoding="utf-8"?>
<svg xmlns="http://www.w3.org/2000/svg" xmlns:xlink="http://www.w3.org/1999/xlink" width="600" height="400" viewBox="0 0 2400 1600">
<defs>
  <clipPath id="clip430">
    <rect x="0" y="0" width="2400" height="1600"/>
  </clipPath>
</defs>
<path clip-path="url(#clip430)" d="M0 1600 L2400 1600 L2400 0 L0 0  Z" fill="#ffffff" fill-rule="evenodd" fill-opacity="1"/>
<defs>
  <clipPath id="clip431">
    <rect x="480" y="0" width="1681" height="1600"/>
  </clipPath>
</defs>
<path clip-path="url(#clip430)" d="M184.191 1486.45 L2352.76 1486.45 L2352.76 47.2441 L184.191 47.2441  Z" fill="#ffffff" fill-rule="evenodd" fill-opacity="1"/>
<defs>
  <clipPath id="clip432">
    <rect x="184" y="47" width="2170" height="1440"/>
  </clipPath>
</defs>
<polyline clip-path="url(#clip432)" style="stroke:#000000; stroke-linecap:round; stroke-linejoin:round; stroke-width:2; stroke-opacity:0.1; fill:none" points="245.565,1486.45 245.565,47.2441 "/>
<polyline clip-path="url(#clip432)" style="stroke:#000000; stroke-linecap:round; stroke-linejoin:round; stroke-width:2; stroke-opacity:0.1; fill:none" points="757.019,1486.45 757.019,47.2441 "/>
<polyline clip-path="url(#clip432)" style="stroke:#000000; stroke-linecap:round; stroke-linejoin:round; stroke-width:2; stroke-opacity:0.1; fill:none" points="1268.47,1486.45 1268.47,47.2441 "/>
<polyline clip-path="url(#clip432)" style="stroke:#000000; stroke-linecap:round; stroke-linejoin:round; stroke-width:2; stroke-opacity:0.1; fill:none" points="1779.93,1486.45 1779.93,47.2441 "/>
<polyline clip-path="url(#clip432)" style="stroke:#000000; stroke-linecap:round; stroke-linejoin:round; stroke-width:2; stroke-opacity:0.1; fill:none" points="2291.38,1486.45 2291.38,47.2441 "/>
<polyline clip-path="url(#clip432)" style="stroke:#000000; stroke-linecap:round; stroke-linejoin:round; stroke-width:2; stroke-opacity:0.1; fill:none" points="184.191,1450.21 2352.76,1450.21 "/>
<polyline clip-path="url(#clip432)" style="stroke:#000000; stroke-linecap:round; stroke-linejoin:round; stroke-width:2; stroke-opacity:0.1; fill:none" points="184.191,1130.7 2352.76,1130.7 "/>
<polyline clip-path="url(#clip432)" style="stroke:#000000; stroke-linecap:round; stroke-linejoin:round; stroke-width:2; stroke-opacity:0.1; fill:none" points="184.191,811.194 2352.76,811.194 "/>
<polyline clip-path="url(#clip432)" style="stroke:#000000; stroke-linecap:round; stroke-linejoin:round; stroke-width:2; stroke-opacity:0.1; fill:none" points="184.191,491.687 2352.76,491.687 "/>
<polyline clip-path="url(#clip432)" style="stroke:#000000; stroke-linecap:round; stroke-linejoin:round; stroke-width:2; stroke-opacity:0.1; fill:none" points="184.191,172.18 2352.76,172.18 "/>
<polyline clip-path="url(#clip430)" style="stroke:#000000; stroke-linecap:round; stroke-linejoin:round; stroke-width:4; stroke-opacity:1; fill:none" points="184.191,1486.45 2352.76,1486.45 "/>
<polyline clip-path="url(#clip430)" style="stroke:#000000; stroke-linecap:round; stroke-linejoin:round; stroke-width:4; stroke-opacity:1; fill:none" points="245.565,1486.45 245.565,1467.55 "/>
<polyline clip-path="url(#clip430)" style="stroke:#000000; stroke-linecap:round; stroke-linejoin:round; stroke-width:4; stroke-opacity:1; fill:none" points="757.019,1486.45 757.019,1467.55 "/>
<polyline clip-path="url(#clip430)" style="stroke:#000000; stroke-linecap:round; stroke-linejoin:round; stroke-width:4; stroke-opacity:1; fill:none" points="1268.47,1486.45 1268.47,1467.55 "/>
<polyline clip-path="url(#clip430)" style="stroke:#000000; stroke-linecap:round; stroke-linejoin:round; stroke-width:4; stroke-opacity:1; fill:none" points="1779.93,1486.45 1779.93,1467.55 "/>
<polyline clip-path="url(#clip430)" style="stroke:#000000; stroke-linecap:round; stroke-linejoin:round; stroke-width:4; stroke-opacity:1; fill:none" points="2291.38,1486.45 2291.38,1467.55 "/>
<path clip-path="url(#clip430)" d="M222.95 1517.37 Q219.338 1517.37 217.51 1520.93 Q215.704 1524.47 215.704 1531.6 Q215.704 1538.71 217.51 1542.27 Q219.338 1545.82 222.95 1545.82 Q226.584 1545.82 228.389 1542.27 Q230.218 1538.71 230.218 1531.6 Q230.218 1524.47 228.389 1520.93 Q226.584 1517.37 222.95 1517.37 M222.95 1513.66 Q228.76 1513.66 231.815 1518.27 Q234.894 1522.85 234.894 1531.6 Q234.894 1540.33 231.815 1544.94 Q228.76 1549.52 222.95 1549.52 Q217.139 1549.52 214.061 1544.94 Q211.005 1540.33 211.005 1531.6 Q211.005 1522.85 214.061 1518.27 Q217.139 1513.66 222.95 1513.66 Z" fill="#000000" fill-rule="nonzero" fill-opacity="1" /><path clip-path="url(#clip430)" d="M243.111 1542.97 L247.996 1542.97 L247.996 1548.85 L243.111 1548.85 L243.111 1542.97 Z" fill="#000000" fill-rule="nonzero" fill-opacity="1" /><path clip-path="url(#clip430)" d="M268.181 1517.37 Q264.57 1517.37 262.741 1520.93 Q260.935 1524.47 260.935 1531.6 Q260.935 1538.71 262.741 1542.27 Q264.57 1545.82 268.181 1545.82 Q271.815 1545.82 273.621 1542.27 Q275.449 1538.71 275.449 1531.6 Q275.449 1524.47 273.621 1520.93 Q271.815 1517.37 268.181 1517.37 M268.181 1513.66 Q273.991 1513.66 277.046 1518.27 Q280.125 1522.85 280.125 1531.6 Q280.125 1540.33 277.046 1544.94 Q273.991 1549.52 268.181 1549.52 Q262.371 1549.52 259.292 1544.94 Q256.236 1540.33 256.236 1531.6 Q256.236 1522.85 259.292 1518.27 Q262.371 1513.66 268.181 1513.66 Z" fill="#000000" fill-rule="nonzero" fill-opacity="1" /><path clip-path="url(#clip430)" d="M728.755 1544.91 L745.075 1544.91 L745.075 1548.85 L723.131 1548.85 L723.131 1544.91 Q725.793 1542.16 730.376 1537.53 Q734.982 1532.88 736.163 1531.53 Q738.408 1529.01 739.288 1527.27 Q740.191 1525.51 740.191 1523.82 Q740.191 1521.07 738.246 1519.33 Q736.325 1517.6 733.223 1517.6 Q731.024 1517.6 728.57 1518.36 Q726.14 1519.13 723.362 1520.68 L723.362 1515.95 Q726.186 1514.82 728.64 1514.24 Q731.093 1513.66 733.13 1513.66 Q738.501 1513.66 741.695 1516.35 Q744.89 1519.03 744.89 1523.52 Q744.89 1525.65 744.079 1527.57 Q743.292 1529.47 741.186 1532.07 Q740.607 1532.74 737.505 1535.95 Q734.404 1539.15 728.755 1544.91 Z" fill="#000000" fill-rule="nonzero" fill-opacity="1" /><path clip-path="url(#clip430)" d="M754.89 1542.97 L759.774 1542.97 L759.774 1548.85 L754.89 1548.85 L754.89 1542.97 Z" fill="#000000" fill-rule="nonzero" fill-opacity="1" /><path clip-path="url(#clip430)" d="M770.005 1514.29 L788.362 1514.29 L788.362 1518.22 L774.288 1518.22 L774.288 1526.7 Q775.306 1526.35 776.325 1526.19 Q777.343 1526 778.362 1526 Q784.149 1526 787.528 1529.17 Q790.908 1532.34 790.908 1537.76 Q790.908 1543.34 787.436 1546.44 Q783.964 1549.52 777.644 1549.52 Q775.468 1549.52 773.2 1549.15 Q770.954 1548.78 768.547 1548.04 L768.547 1543.34 Q770.63 1544.47 772.852 1545.03 Q775.075 1545.58 777.552 1545.58 Q781.556 1545.58 783.894 1543.48 Q786.232 1541.37 786.232 1537.76 Q786.232 1534.15 783.894 1532.04 Q781.556 1529.94 777.552 1529.94 Q775.677 1529.94 773.802 1530.35 Q771.95 1530.77 770.005 1531.65 L770.005 1514.29 Z" fill="#000000" fill-rule="nonzero" fill-opacity="1" /><path clip-path="url(#clip430)" d="M1235.64 1514.29 L1253.99 1514.29 L1253.99 1518.22 L1239.92 1518.22 L1239.92 1526.7 Q1240.94 1526.35 1241.96 1526.19 Q1242.98 1526 1243.99 1526 Q1249.78 1526 1253.16 1529.17 Q1256.54 1532.34 1256.54 1537.76 Q1256.54 1543.34 1253.07 1546.44 Q1249.6 1549.52 1243.28 1549.52 Q1241.1 1549.52 1238.83 1549.15 Q1236.59 1548.78 1234.18 1548.04 L1234.18 1543.34 Q1236.26 1544.47 1238.49 1545.03 Q1240.71 1545.58 1243.18 1545.58 Q1247.19 1545.58 1249.53 1543.48 Q1251.86 1541.37 1251.86 1537.76 Q1251.86 1534.15 1249.53 1532.04 Q1247.19 1529.94 1243.18 1529.94 Q1241.31 1529.94 1239.43 1530.35 Q1237.58 1530.77 1235.64 1531.65 L1235.64 1514.29 Z" fill="#000000" fill-rule="nonzero" fill-opacity="1" /><path clip-path="url(#clip430)" d="M1265.75 1542.97 L1270.64 1542.97 L1270.64 1548.85 L1265.75 1548.85 L1265.75 1542.97 Z" fill="#000000" fill-rule="nonzero" fill-opacity="1" /><path clip-path="url(#clip430)" d="M1290.82 1517.37 Q1287.21 1517.37 1285.38 1520.93 Q1283.58 1524.47 1283.58 1531.6 Q1283.58 1538.71 1285.38 1542.27 Q1287.21 1545.82 1290.82 1545.82 Q1294.46 1545.82 1296.26 1542.27 Q1298.09 1538.71 1298.09 1531.6 Q1298.09 1524.47 1296.26 1520.93 Q1294.46 1517.37 1290.82 1517.37 M1290.82 1513.66 Q1296.63 1513.66 1299.69 1518.27 Q1302.77 1522.85 1302.77 1531.6 Q1302.77 1540.33 1299.69 1544.94 Q1296.63 1549.52 1290.82 1549.52 Q1285.01 1549.52 1281.93 1544.94 Q1278.88 1540.33 1278.88 1531.6 Q1278.88 1522.85 1281.93 1518.27 Q1285.01 1513.66 1290.82 1513.66 Z" fill="#000000" fill-rule="nonzero" fill-opacity="1" /><path clip-path="url(#clip430)" d="M1746.25 1514.29 L1768.47 1514.29 L1768.47 1516.28 L1755.92 1548.85 L1751.04 1548.85 L1762.84 1518.22 L1746.25 1518.22 L1746.25 1514.29 Z" fill="#000000" fill-rule="nonzero" fill-opacity="1" /><path clip-path="url(#clip430)" d="M1777.59 1542.97 L1782.47 1542.97 L1782.47 1548.85 L1777.59 1548.85 L1777.59 1542.97 Z" fill="#000000" fill-rule="nonzero" fill-opacity="1" /><path clip-path="url(#clip430)" d="M1792.71 1514.29 L1811.06 1514.29 L1811.06 1518.22 L1796.99 1518.22 L1796.99 1526.7 Q1798.01 1526.35 1799.02 1526.19 Q1800.04 1526 1801.06 1526 Q1806.85 1526 1810.23 1529.17 Q1813.61 1532.34 1813.61 1537.76 Q1813.61 1543.34 1810.14 1546.44 Q1806.66 1549.52 1800.34 1549.52 Q1798.17 1549.52 1795.9 1549.15 Q1793.65 1548.78 1791.25 1548.04 L1791.25 1543.34 Q1793.33 1544.47 1795.55 1545.03 Q1797.77 1545.58 1800.25 1545.58 Q1804.26 1545.58 1806.59 1543.48 Q1808.93 1541.37 1808.93 1537.76 Q1808.93 1534.15 1806.59 1532.04 Q1804.26 1529.94 1800.25 1529.94 Q1798.38 1529.94 1796.5 1530.35 Q1794.65 1530.77 1792.71 1531.65 L1792.71 1514.29 Z" fill="#000000" fill-rule="nonzero" fill-opacity="1" /><path clip-path="url(#clip430)" d="M2243.45 1544.91 L2251.09 1544.91 L2251.09 1518.55 L2242.78 1520.21 L2242.78 1515.95 L2251.05 1514.29 L2255.72 1514.29 L2255.72 1544.91 L2263.36 1544.91 L2263.36 1548.85 L2243.45 1548.85 L2243.45 1544.91 Z" fill="#000000" fill-rule="nonzero" fill-opacity="1" /><path clip-path="url(#clip430)" d="M2282.81 1517.37 Q2279.19 1517.37 2277.37 1520.93 Q2275.56 1524.47 2275.56 1531.6 Q2275.56 1538.71 2277.37 1542.27 Q2279.19 1545.82 2282.81 1545.82 Q2286.44 1545.82 2288.24 1542.27 Q2290.07 1538.71 2290.07 1531.6 Q2290.07 1524.47 2288.24 1520.93 Q2286.44 1517.37 2282.81 1517.37 M2282.81 1513.66 Q2288.62 1513.66 2291.67 1518.27 Q2294.75 1522.85 2294.75 1531.6 Q2294.75 1540.33 2291.67 1544.94 Q2288.62 1549.52 2282.81 1549.52 Q2276.99 1549.52 2273.92 1544.94 Q2270.86 1540.33 2270.86 1531.6 Q2270.86 1522.85 2273.92 1518.27 Q2276.99 1513.66 2282.81 1513.66 Z" fill="#000000" fill-rule="nonzero" fill-opacity="1" /><path clip-path="url(#clip430)" d="M2302.97 1542.97 L2307.85 1542.97 L2307.85 1548.85 L2302.97 1548.85 L2302.97 1542.97 Z" fill="#000000" fill-rule="nonzero" fill-opacity="1" /><path clip-path="url(#clip430)" d="M2328.04 1517.37 Q2324.43 1517.37 2322.6 1520.93 Q2320.79 1524.47 2320.79 1531.6 Q2320.79 1538.71 2322.6 1542.27 Q2324.43 1545.82 2328.04 1545.82 Q2331.67 1545.82 2333.48 1542.27 Q2335.3 1538.71 2335.3 1531.6 Q2335.3 1524.47 2333.48 1520.93 Q2331.67 1517.37 2328.04 1517.37 M2328.04 1513.66 Q2333.85 1513.66 2336.9 1518.27 Q2339.98 1522.85 2339.98 1531.6 Q2339.98 1540.33 2336.9 1544.94 Q2333.85 1549.52 2328.04 1549.52 Q2322.23 1549.52 2319.15 1544.94 Q2316.09 1540.33 2316.09 1531.6 Q2316.09 1522.85 2319.15 1518.27 Q2322.23 1513.66 2328.04 1513.66 Z" fill="#000000" fill-rule="nonzero" fill-opacity="1" /><polyline clip-path="url(#clip430)" style="stroke:#000000; stroke-linecap:round; stroke-linejoin:round; stroke-width:4; stroke-opacity:1; fill:none" points="184.191,1486.45 184.191,47.2441 "/>
<polyline clip-path="url(#clip430)" style="stroke:#000000; stroke-linecap:round; stroke-linejoin:round; stroke-width:4; stroke-opacity:1; fill:none" points="184.191,1450.21 203.088,1450.21 "/>
<polyline clip-path="url(#clip430)" style="stroke:#000000; stroke-linecap:round; stroke-linejoin:round; stroke-width:4; stroke-opacity:1; fill:none" points="184.191,1130.7 203.088,1130.7 "/>
<polyline clip-path="url(#clip430)" style="stroke:#000000; stroke-linecap:round; stroke-linejoin:round; stroke-width:4; stroke-opacity:1; fill:none" points="184.191,811.194 203.088,811.194 "/>
<polyline clip-path="url(#clip430)" style="stroke:#000000; stroke-linecap:round; stroke-linejoin:round; stroke-width:4; stroke-opacity:1; fill:none" points="184.191,491.687 203.088,491.687 "/>
<polyline clip-path="url(#clip430)" style="stroke:#000000; stroke-linecap:round; stroke-linejoin:round; stroke-width:4; stroke-opacity:1; fill:none" points="184.191,172.18 203.088,172.18 "/>
<path clip-path="url(#clip430)" d="M91.0151 1436.01 Q87.404 1436.01 85.5753 1439.57 Q83.7697 1443.11 83.7697 1450.24 Q83.7697 1457.35 85.5753 1460.91 Q87.404 1464.46 91.0151 1464.46 Q94.6493 1464.46 96.4548 1460.91 Q98.2835 1457.35 98.2835 1450.24 Q98.2835 1443.11 96.4548 1439.57 Q94.6493 1436.01 91.0151 1436.01 M91.0151 1432.3 Q96.8252 1432.3 99.8808 1436.91 Q102.959 1441.49 102.959 1450.24 Q102.959 1458.97 99.8808 1463.58 Q96.8252 1468.16 91.0151 1468.16 Q85.2049 1468.16 82.1262 1463.58 Q79.0707 1458.97 79.0707 1450.24 Q79.0707 1441.49 82.1262 1436.91 Q85.2049 1432.3 91.0151 1432.3 Z" fill="#000000" fill-rule="nonzero" fill-opacity="1" /><path clip-path="url(#clip430)" d="M111.177 1461.61 L116.061 1461.61 L116.061 1467.49 L111.177 1467.49 L111.177 1461.61 Z" fill="#000000" fill-rule="nonzero" fill-opacity="1" /><path clip-path="url(#clip430)" d="M136.246 1436.01 Q132.635 1436.01 130.807 1439.57 Q129.001 1443.11 129.001 1450.24 Q129.001 1457.35 130.807 1460.91 Q132.635 1464.46 136.246 1464.46 Q139.881 1464.46 141.686 1460.91 Q143.515 1457.35 143.515 1450.24 Q143.515 1443.11 141.686 1439.57 Q139.881 1436.01 136.246 1436.01 M136.246 1432.3 Q142.056 1432.3 145.112 1436.91 Q148.191 1441.49 148.191 1450.24 Q148.191 1458.97 145.112 1463.58 Q142.056 1468.16 136.246 1468.16 Q130.436 1468.16 127.357 1463.58 Q124.302 1458.97 124.302 1450.24 Q124.302 1441.49 127.357 1436.91 Q130.436 1432.3 136.246 1432.3 Z" fill="#000000" fill-rule="nonzero" fill-opacity="1" /><path clip-path="url(#clip430)" d="M86.0382 1144.05 L102.358 1144.05 L102.358 1147.98 L80.4133 1147.98 L80.4133 1144.05 Q83.0753 1141.29 87.6586 1136.66 Q92.2651 1132.01 93.4456 1130.67 Q95.691 1128.14 96.5706 1126.41 Q97.4734 1124.65 97.4734 1122.96 Q97.4734 1120.2 95.5289 1118.47 Q93.6076 1116.73 90.5058 1116.73 Q88.3067 1116.73 85.8531 1117.5 Q83.4225 1118.26 80.6447 1119.81 L80.6447 1115.09 Q83.4688 1113.95 85.9225 1113.38 Q88.3762 1112.8 90.4132 1112.8 Q95.7836 1112.8 98.978 1115.48 Q102.172 1118.17 102.172 1122.66 Q102.172 1124.79 101.362 1126.71 Q100.575 1128.61 98.4687 1131.2 Q97.89 1131.87 94.7882 1135.09 Q91.6864 1138.28 86.0382 1144.05 Z" fill="#000000" fill-rule="nonzero" fill-opacity="1" /><path clip-path="url(#clip430)" d="M112.172 1142.1 L117.057 1142.1 L117.057 1147.98 L112.172 1147.98 L112.172 1142.1 Z" fill="#000000" fill-rule="nonzero" fill-opacity="1" /><path clip-path="url(#clip430)" d="M127.288 1113.42 L145.644 1113.42 L145.644 1117.36 L131.57 1117.36 L131.57 1125.83 Q132.589 1125.48 133.607 1125.32 Q134.626 1125.13 135.644 1125.13 Q141.431 1125.13 144.811 1128.31 Q148.191 1131.48 148.191 1136.89 Q148.191 1142.47 144.718 1145.57 Q141.246 1148.65 134.927 1148.65 Q132.751 1148.65 130.482 1148.28 Q128.237 1147.91 125.83 1147.17 L125.83 1142.47 Q127.913 1143.61 130.135 1144.16 Q132.357 1144.72 134.834 1144.72 Q138.839 1144.72 141.177 1142.61 Q143.515 1140.5 143.515 1136.89 Q143.515 1133.28 141.177 1131.18 Q138.839 1129.07 134.834 1129.07 Q132.959 1129.07 131.084 1129.49 Q129.232 1129.9 127.288 1130.78 L127.288 1113.42 Z" fill="#000000" fill-rule="nonzero" fill-opacity="1" /><path clip-path="url(#clip430)" d="M81.0614 793.914 L99.4178 793.914 L99.4178 797.849 L85.3438 797.849 L85.3438 806.322 Q86.3623 805.974 87.3808 805.812 Q88.3993 805.627 89.4178 805.627 Q95.2049 805.627 98.5845 808.798 Q101.964 811.97 101.964 817.386 Q101.964 822.965 98.4919 826.067 Q95.0197 829.146 88.7003 829.146 Q86.5243 829.146 84.2558 828.775 Q82.0105 828.405 79.6031 827.664 L79.6031 822.965 Q81.6864 824.099 83.9086 824.655 Q86.1308 825.21 88.6077 825.21 Q92.6123 825.21 94.9502 823.104 Q97.2882 820.997 97.2882 817.386 Q97.2882 813.775 94.9502 811.669 Q92.6123 809.562 88.6077 809.562 Q86.7327 809.562 84.8577 809.979 Q83.0058 810.396 81.0614 811.275 L81.0614 793.914 Z" fill="#000000" fill-rule="nonzero" fill-opacity="1" /><path clip-path="url(#clip430)" d="M111.177 822.595 L116.061 822.595 L116.061 828.474 L111.177 828.474 L111.177 822.595 Z" fill="#000000" fill-rule="nonzero" fill-opacity="1" /><path clip-path="url(#clip430)" d="M136.246 796.993 Q132.635 796.993 130.807 800.558 Q129.001 804.099 129.001 811.229 Q129.001 818.335 130.807 821.9 Q132.635 825.442 136.246 825.442 Q139.881 825.442 141.686 821.9 Q143.515 818.335 143.515 811.229 Q143.515 804.099 141.686 800.558 Q139.881 796.993 136.246 796.993 M136.246 793.289 Q142.056 793.289 145.112 797.896 Q148.191 802.479 148.191 811.229 Q148.191 819.956 145.112 824.562 Q142.056 829.146 136.246 829.146 Q130.436 829.146 127.357 824.562 Q124.302 819.956 124.302 811.229 Q124.302 802.479 127.357 797.896 Q130.436 793.289 136.246 793.289 Z" fill="#000000" fill-rule="nonzero" fill-opacity="1" /><path clip-path="url(#clip430)" d="M80.8299 474.407 L103.052 474.407 L103.052 476.398 L90.5058 508.967 L85.6216 508.967 L97.4271 478.342 L80.8299 478.342 L80.8299 474.407 Z" fill="#000000" fill-rule="nonzero" fill-opacity="1" /><path clip-path="url(#clip430)" d="M112.172 503.087 L117.057 503.087 L117.057 508.967 L112.172 508.967 L112.172 503.087 Z" fill="#000000" fill-rule="nonzero" fill-opacity="1" /><path clip-path="url(#clip430)" d="M127.288 474.407 L145.644 474.407 L145.644 478.342 L131.57 478.342 L131.57 486.814 Q132.589 486.467 133.607 486.305 Q134.626 486.12 135.644 486.12 Q141.431 486.12 144.811 489.291 Q148.191 492.463 148.191 497.879 Q148.191 503.458 144.718 506.56 Q141.246 509.638 134.927 509.638 Q132.751 509.638 130.482 509.268 Q128.237 508.898 125.83 508.157 L125.83 503.458 Q127.913 504.592 130.135 505.148 Q132.357 505.703 134.834 505.703 Q138.839 505.703 141.177 503.597 Q143.515 501.49 143.515 497.879 Q143.515 494.268 141.177 492.162 Q138.839 490.055 134.834 490.055 Q132.959 490.055 131.084 490.472 Q129.232 490.888 127.288 491.768 L127.288 474.407 Z" fill="#000000" fill-rule="nonzero" fill-opacity="1" /><path clip-path="url(#clip430)" d="M51.6634 185.525 L59.3023 185.525 L59.3023 159.159 L50.9921 160.826 L50.9921 156.566 L59.256 154.9 L63.9319 154.9 L63.9319 185.525 L71.5707 185.525 L71.5707 189.46 L51.6634 189.46 L51.6634 185.525 Z" fill="#000000" fill-rule="nonzero" fill-opacity="1" /><path clip-path="url(#clip430)" d="M91.0151 157.978 Q87.404 157.978 85.5753 161.543 Q83.7697 165.085 83.7697 172.215 Q83.7697 179.321 85.5753 182.886 Q87.404 186.427 91.0151 186.427 Q94.6493 186.427 96.4548 182.886 Q98.2835 179.321 98.2835 172.215 Q98.2835 165.085 96.4548 161.543 Q94.6493 157.978 91.0151 157.978 M91.0151 154.275 Q96.8252 154.275 99.8808 158.881 Q102.959 163.465 102.959 172.215 Q102.959 180.941 99.8808 185.548 Q96.8252 190.131 91.0151 190.131 Q85.2049 190.131 82.1262 185.548 Q79.0707 180.941 79.0707 172.215 Q79.0707 163.465 82.1262 158.881 Q85.2049 154.275 91.0151 154.275 Z" fill="#000000" fill-rule="nonzero" fill-opacity="1" /><path clip-path="url(#clip430)" d="M111.177 183.58 L116.061 183.58 L116.061 189.46 L111.177 189.46 L111.177 183.58 Z" fill="#000000" fill-rule="nonzero" fill-opacity="1" /><path clip-path="url(#clip430)" d="M136.246 157.978 Q132.635 157.978 130.807 161.543 Q129.001 165.085 129.001 172.215 Q129.001 179.321 130.807 182.886 Q132.635 186.427 136.246 186.427 Q139.881 186.427 141.686 182.886 Q143.515 179.321 143.515 172.215 Q143.515 165.085 141.686 161.543 Q139.881 157.978 136.246 157.978 M136.246 154.275 Q142.056 154.275 145.112 158.881 Q148.191 163.465 148.191 172.215 Q148.191 180.941 145.112 185.548 Q142.056 190.131 136.246 190.131 Q130.436 190.131 127.357 185.548 Q124.302 180.941 124.302 172.215 Q124.302 163.465 127.357 158.881 Q130.436 154.275 136.246 154.275 Z" fill="#000000" fill-rule="nonzero" fill-opacity="1" /><path clip-path="url(#clip432)" d="M245.565 1322.41 L266.023 1323.37 L286.481 1315.69 L306.94 1298.76 L327.398 1277.88 L347.856 1254.54 L368.314 1239.92 L388.772 1220.51 L409.23 1192.23 L429.689 1157.62 L450.147 1114.36 L470.605 1081.89 L491.063 1035.69 L511.521 983.564 L531.979 925.29 L552.438 872.405 L572.896 813.888 L593.354 752.396 L613.812 796.063 L634.27 855.081 L654.728 1047.99 L675.187 1171.88 L695.645 1241.31 L716.103 1283.12 L736.561 1308.33 L757.019 1320.78 L777.477 1358.62 L797.936 1375.89 L818.394 1386.78 L838.852 1392.81 L859.31 1394.81 L879.768 1393.24 L900.226 1389.39 L920.685 1390.56 L941.143 1387.66 L961.601 1381.05 L982.059 1372.55 L1002.52 1358.3 L1022.98 1346.76 L1043.43 1326.38 L1063.89 1299.2 L1084.35 1269.48 L1104.81 1244.53 L1125.27 1211.39 L1145.72 1187.2 L1166.18 1160.54 L1186.64 1136.02 L1207.1 1116.75 L1227.56 1092.86 L1248.02 1079.37 L1268.47 1065.53 L1288.93 1075.5 L1309.39 1054.1 L1329.85 1095.43 L1350.31 1174.6 L1370.76 1227.64 L1391.22 1267.64 L1411.68 1283.8 L1432.14 1308.91 L1452.6 1317.22 L1473.05 1328.6 L1493.51 1334.54 L1513.97 1334.83 L1534.43 1339.29 L1554.89 1348.97 L1575.35 1364.45 L1595.8 1382.04 L1616.26 1392.1 L1636.72 1394.91 L1657.18 1396.69 L1677.64 1395.28 L1698.09 1397.8 L1718.55 1395.26 L1739.01 1389.27 L1759.47 1378.6 L1779.93 1378.02 L1800.39 1366.34 L1820.84 1359.5 L1841.3 1354.5 L1861.76 1342.86 L1882.22 1332.01 L1902.68 1319.19 L1923.13 1302.75 L1943.59 1287.84 L1964.05 1272.55 L1984.51 1276.68 L2004.97 1275.59 L2025.43 1274.54 L2045.88 1300.88 L2066.34 1338.45 L2086.8 1351.89 L2107.26 1363.93 L2127.72 1373.47 L2148.17 1378.91 L2168.63 1375.76 L2189.09 1377.61 L2209.55 1381.17 L2230.01 1382.55 L2250.47 1382.18 L2270.92 1382.85 L2291.38 1376.94 L2291.38 114.365 L2270.92 153.559 L2250.47 264.97 L2230.01 384.161 L2209.55 514.896 L2189.09 647.152 L2168.63 723.762 L2148.17 769.027 L2127.72 837.427 L2107.26 781.539 L2086.8 772.235 L2066.34 654.725 L2045.88 505.981 L2025.43 509.438 L2004.97 450.96 L1984.51 559.227 L1964.05 587.334 L1943.59 529.035 L1923.13 487.362 L1902.68 501.09 L1882.22 582.54 L1861.76 651.457 L1841.3 682.022 L1820.84 707.668 L1800.39 777.415 L1779.93 707.487 L1759.47 817.607 L1739.01 911.586 L1718.55 941.556 L1698.09 990.103 L1677.64 1071.54 L1657.18 1123.27 L1636.72 1147.58 L1616.26 1153.91 L1595.8 1165.52 L1575.35 1186.09 L1554.89 1226.25 L1534.43 1230.14 L1513.97 1111.65 L1493.51 846.949 L1473.05 468.89 L1452.6 250.671 L1432.14 111.247 L1411.68 87.9763 L1391.22 305.707 L1370.76 433.119 L1350.31 511.289 L1329.85 559.975 L1309.39 574.005 L1288.93 520.421 L1268.47 473.307 L1248.02 527.832 L1227.56 639.626 L1207.1 713.443 L1186.64 785.583 L1166.18 852.901 L1145.72 917.816 L1125.27 978.884 L1104.81 1002.88 L1084.35 1011.88 L1063.89 1028.64 L1043.43 1018.83 L1022.98 1019.28 L1002.52 1071.58 L982.059 1073.68 L961.601 1124.23 L941.143 1144.67 L920.685 1177.15 L900.226 1194.22 L879.768 1218.45 L859.31 1239.09 L838.852 1251.74 L818.394 1233.58 L797.936 1220.98 L777.477 1178.24 L757.019 1096.43 L736.561 996.85 L716.103 875.897 L695.645 725.328 L675.187 530.143 L654.728 367.047 L634.27 380.475 L613.812 420.535 L593.354 518.821 L572.896 532.324 L552.438 581.102 L531.979 675.901 L511.521 775.57 L491.063 883.499 L470.605 920.942 L450.147 990.899 L429.689 1044.39 L409.23 1106.4 L388.772 1144.84 L368.314 1195 L347.856 1224.32 L327.398 1245.73 L306.94 1269.84 L286.481 1292.53 L266.023 1307.84 L245.565 1322.41  Z" fill="#009af9" fill-rule="evenodd" fill-opacity="0.5"/>
<polyline clip-path="url(#clip432)" style="stroke:#009af9; stroke-linecap:round; stroke-linejoin:round; stroke-width:12; stroke-opacity:1; fill:none" points="245.565,1322.41 266.023,1314.44 286.481,1302.82 306.94,1292.44 327.398,1272.6 347.856,1246.15 368.314,1220.73 388.772,1188.51 409.23,1145.63 429.689,1104.74 450.147,1062.16 470.605,1008.74 491.063,949.561 511.521,882.29 531.979,802.72 552.438,733.431 572.896,703.709 593.354,654.092 613.812,614.202 634.27,686.433 654.728,713.647 675.187,809.238 695.645,881.65 716.103,1018.05 736.561,1107.79 757.019,1178.05 777.477,1211.01 797.936,1254.36 818.394,1283.92 838.852,1296.68 859.31,1303.93 879.768,1304.32 900.226,1295.47 920.685,1295.67 941.143,1279.1 961.601,1268.64 982.059,1250.11 1002.52,1234.6 1022.98,1210.08 1043.43,1185.12 1063.89,1140.06 1084.35,1113.82 1104.81,1075.5 1125.27,1032.39 1145.72,983.847 1166.18,953.079 1186.64,926.511 1207.1,854.305 1227.56,801.697 1248.02,767.911 1268.47,736.764 1288.93,707.634 1309.39,788.259 1329.85,851.226 1350.31,865.241 1370.76,966.369 1391.22,1073.3 1411.68,1144.22 1432.14,1197.34 1452.6,1226.21 1473.05,1257.86 1493.51,1289.55 1513.97,1302.84 1534.43,1304.44 1554.89,1309.52 1575.35,1302.14 1595.8,1296.04 1616.26,1284.55 1636.72,1279.23 1657.18,1277.7 1677.64,1263.35 1698.09,1249.81 1718.55,1213.68 1739.01,1189.8 1759.47,1179.32 1779.93,1134.62 1800.39,1117.17 1820.84,1069.55 1841.3,1007.09 1861.76,943.717 1882.22,965.652 1902.68,903.072 1923.13,813.366 1943.59,736.173 1964.05,704.942 1984.51,769.68 2004.97,891.781 2025.43,1017.91 2045.88,1044.17 2066.34,1004.05 2086.8,1099.75 2107.26,1153.16 2127.72,1229.5 2148.17,1272.71 2168.63,1302.31 2189.09,1305.18 2209.55,1311.21 2230.01,1310.52 2250.47,1308.98 2270.92,1302.93 2291.38,1293.72 "/>
<path clip-path="url(#clip432)" d="M245.565 1322.41 L266.023 1351.86 L286.481 1375.84 L306.94 1388.75 L327.398 1400.42 L347.856 1411.85 L368.314 1412.18 L388.772 1415.7 L409.23 1421.31 L429.689 1422.63 L450.147 1425.62 L470.605 1425.55 L491.063 1424.01 L511.521 1422.66 L531.979 1418.31 L552.438 1412.95 L572.896 1401.69 L593.354 1390.65 L613.812 1361.13 L634.27 1306.63 L654.728 1231.11 L675.187 1140.43 L695.645 1062.05 L716.103 1063.48 L736.561 1093.29 L757.019 1149.36 L777.477 1199.47 L797.936 1247.19 L818.394 1292.83 L838.852 1320.51 L859.31 1339.48 L879.768 1347.71 L900.226 1368.63 L920.685 1385.63 L941.143 1399.57 L961.601 1410.44 L982.059 1419.52 L1002.52 1425.85 L1022.98 1430.82 L1043.43 1434.04 L1063.89 1436.56 L1084.35 1438.86 L1104.81 1440.43 L1125.27 1441.63 L1145.72 1442.43 L1166.18 1443.1 L1186.64 1443.55 L1207.1 1443.9 L1227.56 1443.9 L1248.02 1443.46 L1268.47 1442.62 L1288.93 1441.31 L1309.39 1439.45 L1329.85 1436.82 L1350.31 1431.25 L1370.76 1419.93 L1391.22 1400.06 L1411.68 1353.28 L1432.14 1302.67 L1452.6 1275.2 L1473.05 1320.33 L1493.51 1348.68 L1513.97 1367.08 L1534.43 1381.19 L1554.89 1393.38 L1575.35 1392.97 L1595.8 1403.06 L1616.26 1406.51 L1636.72 1410.41 L1657.18 1412.69 L1677.64 1415.06 L1698.09 1418.08 L1718.55 1419.79 L1739.01 1422.29 L1759.47 1425.56 L1779.93 1427.82 L1800.39 1428.01 L1820.84 1426.91 L1841.3 1430.46 L1861.76 1434 L1882.22 1437.05 L1902.68 1439.55 L1923.13 1441.41 L1943.59 1442.96 L1964.05 1444.03 L1984.51 1444.76 L2004.97 1445.24 L2025.43 1445.51 L2045.88 1445.72 L2066.34 1445.56 L2086.8 1445.21 L2107.26 1444.73 L2127.72 1443.93 L2148.17 1442.4 L2168.63 1440.09 L2189.09 1436.65 L2209.55 1431.1 L2230.01 1430.75 L2250.47 1428.04 L2270.92 1419.98 L2291.38 1415.58 L2291.38 1129.79 L2270.92 1218.52 L2250.47 1170.01 L2230.01 1085.25 L2209.55 1046.29 L2189.09 988.586 L2168.63 937.463 L2148.17 865.886 L2127.72 793.581 L2107.26 767.913 L2086.8 766.139 L2066.34 815.552 L2045.88 802.968 L2025.43 838.213 L2004.97 880.989 L1984.51 934.799 L1964.05 1015.85 L1943.59 1048.35 L1923.13 1036.29 L1902.68 1083.54 L1882.22 1104.82 L1861.76 1165.99 L1841.3 1218.14 L1820.84 1280.23 L1800.39 1324.97 L1779.93 1354.95 L1759.47 1370.61 L1739.01 1372.95 L1718.55 1352.47 L1698.09 1326.55 L1677.64 1290.05 L1657.18 1240.39 L1636.72 1178.32 L1616.26 1101.25 L1595.8 1000.13 L1575.35 872.164 L1554.89 737.071 L1534.43 568.564 L1513.97 472.634 L1493.51 515.768 L1473.05 750.409 L1452.6 911.497 L1432.14 890.731 L1411.68 898.745 L1391.22 904.1 L1370.76 837.169 L1350.31 809.676 L1329.85 847.061 L1309.39 955.848 L1288.93 1122.9 L1268.47 1161.26 L1248.02 1194.1 L1227.56 1206.72 L1207.1 1232.72 L1186.64 1259.71 L1166.18 1285.91 L1145.72 1293.61 L1125.27 1285.71 L1104.81 1299.33 L1084.35 1304.64 L1063.89 1310.56 L1043.43 1315.58 L1022.98 1330.98 L1002.52 1333.17 L982.059 1319.62 L961.601 1296.21 L941.143 1274.22 L920.685 1279.56 L900.226 1267.43 L879.768 1208.48 L859.31 1169.71 L838.852 1132.5 L818.394 1078.56 L797.936 1012.29 L777.477 933.403 L757.019 845.237 L736.561 821.057 L716.103 817.187 L695.645 788.335 L675.187 774.499 L654.728 784.383 L634.27 848.809 L613.812 1012.76 L593.354 1140.35 L572.896 1246.63 L552.438 1312.88 L531.979 1350.11 L511.521 1374.85 L491.063 1389.22 L470.605 1390.26 L450.147 1393.52 L429.689 1398.05 L409.23 1394.34 L388.772 1393.16 L368.314 1387.55 L347.856 1379.14 L327.398 1372.29 L306.94 1364.04 L286.481 1344.42 L266.023 1331.38 L245.565 1322.41  Z" fill="#e26f46" fill-rule="evenodd" fill-opacity="0.5"/>
<polyline clip-path="url(#clip432)" style="stroke:#e26f46; stroke-linecap:round; stroke-linejoin:round; stroke-width:12; stroke-opacity:1; fill:none" points="245.565,1322.41 266.023,1345.44 286.481,1364.3 306.94,1379.22 327.398,1388.78 347.856,1395.35 368.314,1402.67 388.772,1407.65 409.23,1410.99 429.689,1410.49 450.147,1413.04 470.605,1411.54 491.063,1410.94 511.521,1406.89 531.979,1401.4 552.438,1390.07 572.896,1373.01 593.354,1337.19 613.812,1282.37 634.27,1204.69 654.728,1141.1 675.187,1054.63 695.645,932.21 716.103,905.11 736.561,931.796 757.019,981.744 777.477,1023.63 797.936,1072.77 818.394,1157.75 838.852,1202.36 859.31,1240.69 879.768,1280.8 900.226,1304 920.685,1330.05 941.143,1346.21 961.601,1355.56 982.059,1373.35 1002.52,1386.19 1022.98,1395.82 1043.43,1399.56 1063.89,1403.35 1084.35,1406.6 1104.81,1405.81 1125.27,1404.18 1145.72,1404.23 1166.18,1401.93 1186.64,1394.72 1207.1,1382.5 1227.56,1364.66 1248.02,1342.45 1268.47,1290.16 1288.93,1232.62 1309.39,1194.52 1329.85,1167.73 1350.31,1102.78 1370.76,1003.23 1391.22,954.697 1411.68,1003.26 1432.14,1057.69 1452.6,1098.7 1473.05,1117.17 1493.51,1124.57 1513.97,1176.14 1534.43,1237.09 1554.89,1265.54 1575.35,1286.11 1595.8,1305.14 1616.26,1328.8 1636.72,1355.67 1657.18,1373.06 1677.64,1386.14 1698.09,1393.76 1718.55,1400.38 1739.01,1404.25 1759.47,1407.09 1779.93,1411.47 1800.39,1412.91 1820.84,1414.53 1841.3,1410.26 1861.76,1404.39 1882.22,1398.94 1902.68,1397 1923.13,1385.44 1943.59,1368.29 1964.05,1322.56 1984.51,1254.61 2004.97,1195.56 2025.43,1157.14 2045.88,1093.59 2066.34,1022.29 2086.8,1031.09 2107.26,1053.88 2127.72,1064.18 2148.17,1144.77 2168.63,1204.68 2189.09,1266.76 2209.55,1298.38 2230.01,1323.3 2250.47,1338.63 2270.92,1333.64 2291.38,1345.57 "/>
</svg>
