<?xml version="1.0" encoding="utf-8"?>
<svg xmlns="http://www.w3.org/2000/svg" xmlns:xlink="http://www.w3.org/1999/xlink" width="600" height="400" viewBox="0 0 2400 1600">
<defs>
  <clipPath id="clip520">
    <rect x="0" y="0" width="2400" height="1600"/>
  </clipPath>
</defs>
<path clip-path="url(#clip520)" d="M0 1600 L2400 1600 L2400 0 L0 0  Z" fill="#ffffff" fill-rule="evenodd" fill-opacity="1"/>
<defs>
  <clipPath id="clip521">
    <rect x="480" y="0" width="1681" height="1600"/>
  </clipPath>
</defs>
<path clip-path="url(#clip520)" d="M186.274 1486.45 L2352.76 1486.45 L2352.76 47.2441 L186.274 47.2441  Z" fill="#ffffff" fill-rule="evenodd" fill-opacity="1"/>
<defs>
  <clipPath id="clip522">
    <rect x="186" y="47" width="2167" height="1440"/>
  </clipPath>
</defs>
<polyline clip-path="url(#clip522)" style="stroke:#000000; stroke-linecap:round; stroke-linejoin:round; stroke-width:2; stroke-opacity:0.1; fill:none" points="247.59,1486.45 247.59,47.2441 "/>
<polyline clip-path="url(#clip522)" style="stroke:#000000; stroke-linecap:round; stroke-linejoin:round; stroke-width:2; stroke-opacity:0.1; fill:none" points="758.552,1486.45 758.552,47.2441 "/>
<polyline clip-path="url(#clip522)" style="stroke:#000000; stroke-linecap:round; stroke-linejoin:round; stroke-width:2; stroke-opacity:0.1; fill:none" points="1269.51,1486.45 1269.51,47.2441 "/>
<polyline clip-path="url(#clip522)" style="stroke:#000000; stroke-linecap:round; stroke-linejoin:round; stroke-width:2; stroke-opacity:0.1; fill:none" points="1780.48,1486.45 1780.48,47.2441 "/>
<polyline clip-path="url(#clip522)" style="stroke:#000000; stroke-linecap:round; stroke-linejoin:round; stroke-width:2; stroke-opacity:0.1; fill:none" points="2291.44,1486.45 2291.44,47.2441 "/>
<polyline clip-path="url(#clip522)" style="stroke:#000000; stroke-linecap:round; stroke-linejoin:round; stroke-width:2; stroke-opacity:0.1; fill:none" points="186.274,1312.81 2352.76,1312.81 "/>
<polyline clip-path="url(#clip522)" style="stroke:#000000; stroke-linecap:round; stroke-linejoin:round; stroke-width:2; stroke-opacity:0.1; fill:none" points="186.274,999.796 2352.76,999.796 "/>
<polyline clip-path="url(#clip522)" style="stroke:#000000; stroke-linecap:round; stroke-linejoin:round; stroke-width:2; stroke-opacity:0.1; fill:none" points="186.274,686.779 2352.76,686.779 "/>
<polyline clip-path="url(#clip522)" style="stroke:#000000; stroke-linecap:round; stroke-linejoin:round; stroke-width:2; stroke-opacity:0.1; fill:none" points="186.274,373.762 2352.76,373.762 "/>
<polyline clip-path="url(#clip522)" style="stroke:#000000; stroke-linecap:round; stroke-linejoin:round; stroke-width:2; stroke-opacity:0.1; fill:none" points="186.274,60.7453 2352.76,60.7453 "/>
<polyline clip-path="url(#clip520)" style="stroke:#000000; stroke-linecap:round; stroke-linejoin:round; stroke-width:4; stroke-opacity:1; fill:none" points="186.274,1486.45 2352.76,1486.45 "/>
<polyline clip-path="url(#clip520)" style="stroke:#000000; stroke-linecap:round; stroke-linejoin:round; stroke-width:4; stroke-opacity:1; fill:none" points="247.59,1486.45 247.59,1467.55 "/>
<polyline clip-path="url(#clip520)" style="stroke:#000000; stroke-linecap:round; stroke-linejoin:round; stroke-width:4; stroke-opacity:1; fill:none" points="758.552,1486.45 758.552,1467.55 "/>
<polyline clip-path="url(#clip520)" style="stroke:#000000; stroke-linecap:round; stroke-linejoin:round; stroke-width:4; stroke-opacity:1; fill:none" points="1269.51,1486.45 1269.51,1467.55 "/>
<polyline clip-path="url(#clip520)" style="stroke:#000000; stroke-linecap:round; stroke-linejoin:round; stroke-width:4; stroke-opacity:1; fill:none" points="1780.48,1486.45 1780.48,1467.55 "/>
<polyline clip-path="url(#clip520)" style="stroke:#000000; stroke-linecap:round; stroke-linejoin:round; stroke-width:4; stroke-opacity:1; fill:none" points="2291.44,1486.45 2291.44,1467.55 "/>
<path clip-path="url(#clip520)" d="M209.893 1517.37 Q206.282 1517.37 204.453 1520.93 Q202.648 1524.47 202.648 1531.6 Q202.648 1538.71 204.453 1542.27 Q206.282 1545.82 209.893 1545.82 Q213.527 1545.82 215.333 1542.27 Q217.161 1538.71 217.161 1531.6 Q217.161 1524.47 215.333 1520.93 Q213.527 1517.37 209.893 1517.37 M209.893 1513.66 Q215.703 1513.66 218.759 1518.27 Q221.837 1522.85 221.837 1531.6 Q221.837 1540.33 218.759 1544.94 Q215.703 1549.52 209.893 1549.52 Q204.083 1549.52 201.004 1544.94 Q197.949 1540.33 197.949 1531.6 Q197.949 1522.85 201.004 1518.27 Q204.083 1513.66 209.893 1513.66 Z" fill="#000000" fill-rule="nonzero" fill-opacity="1" /><path clip-path="url(#clip520)" d="M230.055 1542.97 L234.939 1542.97 L234.939 1548.85 L230.055 1548.85 L230.055 1542.97 Z" fill="#000000" fill-rule="nonzero" fill-opacity="1" /><path clip-path="url(#clip520)" d="M255.124 1517.37 Q251.513 1517.37 249.684 1520.93 Q247.879 1524.47 247.879 1531.6 Q247.879 1538.71 249.684 1542.27 Q251.513 1545.82 255.124 1545.82 Q258.758 1545.82 260.564 1542.27 Q262.393 1538.71 262.393 1531.6 Q262.393 1524.47 260.564 1520.93 Q258.758 1517.37 255.124 1517.37 M255.124 1513.66 Q260.934 1513.66 263.99 1518.27 Q267.069 1522.85 267.069 1531.6 Q267.069 1540.33 263.99 1544.94 Q260.934 1549.52 255.124 1549.52 Q249.314 1549.52 246.235 1544.94 Q243.18 1540.33 243.18 1531.6 Q243.18 1522.85 246.235 1518.27 Q249.314 1513.66 255.124 1513.66 Z" fill="#000000" fill-rule="nonzero" fill-opacity="1" /><path clip-path="url(#clip520)" d="M285.286 1517.37 Q281.675 1517.37 279.846 1520.93 Q278.041 1524.47 278.041 1531.6 Q278.041 1538.71 279.846 1542.27 Q281.675 1545.82 285.286 1545.82 Q288.92 1545.82 290.726 1542.27 Q292.555 1538.71 292.555 1531.6 Q292.555 1524.47 290.726 1520.93 Q288.92 1517.37 285.286 1517.37 M285.286 1513.66 Q291.096 1513.66 294.152 1518.27 Q297.23 1522.85 297.23 1531.6 Q297.23 1540.33 294.152 1544.94 Q291.096 1549.52 285.286 1549.52 Q279.476 1549.52 276.397 1544.94 Q273.342 1540.33 273.342 1531.6 Q273.342 1522.85 276.397 1518.27 Q279.476 1513.66 285.286 1513.66 Z" fill="#000000" fill-rule="nonzero" fill-opacity="1" /><path clip-path="url(#clip520)" d="M721.353 1517.37 Q717.742 1517.37 715.914 1520.93 Q714.108 1524.47 714.108 1531.6 Q714.108 1538.71 715.914 1542.27 Q717.742 1545.82 721.353 1545.82 Q724.988 1545.82 726.793 1542.27 Q728.622 1538.71 728.622 1531.6 Q728.622 1524.47 726.793 1520.93 Q724.988 1517.37 721.353 1517.37 M721.353 1513.66 Q727.164 1513.66 730.219 1518.27 Q733.298 1522.85 733.298 1531.6 Q733.298 1540.33 730.219 1544.94 Q727.164 1549.52 721.353 1549.52 Q715.543 1549.52 712.465 1544.94 Q709.409 1540.33 709.409 1531.6 Q709.409 1522.85 712.465 1518.27 Q715.543 1513.66 721.353 1513.66 Z" fill="#000000" fill-rule="nonzero" fill-opacity="1" /><path clip-path="url(#clip520)" d="M741.515 1542.97 L746.4 1542.97 L746.4 1548.85 L741.515 1548.85 L741.515 1542.97 Z" fill="#000000" fill-rule="nonzero" fill-opacity="1" /><path clip-path="url(#clip520)" d="M760.612 1544.91 L776.932 1544.91 L776.932 1548.85 L754.987 1548.85 L754.987 1544.91 Q757.649 1542.16 762.233 1537.53 Q766.839 1532.88 768.02 1531.53 Q770.265 1529.01 771.145 1527.27 Q772.048 1525.51 772.048 1523.82 Q772.048 1521.07 770.103 1519.33 Q768.182 1517.6 765.08 1517.6 Q762.881 1517.6 760.427 1518.36 Q757.997 1519.13 755.219 1520.68 L755.219 1515.95 Q758.043 1514.82 760.497 1514.24 Q762.95 1513.66 764.987 1513.66 Q770.358 1513.66 773.552 1516.35 Q776.747 1519.03 776.747 1523.52 Q776.747 1525.65 775.936 1527.57 Q775.149 1529.47 773.043 1532.07 Q772.464 1532.74 769.362 1535.95 Q766.261 1539.15 760.612 1544.91 Z" fill="#000000" fill-rule="nonzero" fill-opacity="1" /><path clip-path="url(#clip520)" d="M786.793 1514.29 L805.149 1514.29 L805.149 1518.22 L791.075 1518.22 L791.075 1526.7 Q792.094 1526.35 793.112 1526.19 Q794.131 1526 795.149 1526 Q800.936 1526 804.316 1529.17 Q807.695 1532.34 807.695 1537.76 Q807.695 1543.34 804.223 1546.44 Q800.751 1549.52 794.432 1549.52 Q792.256 1549.52 789.987 1549.15 Q787.742 1548.78 785.335 1548.04 L785.335 1543.34 Q787.418 1544.47 789.64 1545.03 Q791.862 1545.58 794.339 1545.58 Q798.344 1545.58 800.682 1543.48 Q803.02 1541.37 803.02 1537.76 Q803.02 1534.15 800.682 1532.04 Q798.344 1529.94 794.339 1529.94 Q792.464 1529.94 790.589 1530.35 Q788.737 1530.77 786.793 1531.65 L786.793 1514.29 Z" fill="#000000" fill-rule="nonzero" fill-opacity="1" /><path clip-path="url(#clip520)" d="M1231.82 1517.37 Q1228.21 1517.37 1226.38 1520.93 Q1224.57 1524.47 1224.57 1531.6 Q1224.57 1538.71 1226.38 1542.27 Q1228.21 1545.82 1231.82 1545.82 Q1235.45 1545.82 1237.26 1542.27 Q1239.09 1538.71 1239.09 1531.6 Q1239.09 1524.47 1237.26 1520.93 Q1235.45 1517.37 1231.82 1517.37 M1231.82 1513.66 Q1237.63 1513.66 1240.68 1518.27 Q1243.76 1522.85 1243.76 1531.6 Q1243.76 1540.33 1240.68 1544.94 Q1237.63 1549.52 1231.82 1549.52 Q1226.01 1549.52 1222.93 1544.94 Q1219.87 1540.33 1219.87 1531.6 Q1219.87 1522.85 1222.93 1518.27 Q1226.01 1513.66 1231.82 1513.66 Z" fill="#000000" fill-rule="nonzero" fill-opacity="1" /><path clip-path="url(#clip520)" d="M1251.98 1542.97 L1256.86 1542.97 L1256.86 1548.85 L1251.98 1548.85 L1251.98 1542.97 Z" fill="#000000" fill-rule="nonzero" fill-opacity="1" /><path clip-path="url(#clip520)" d="M1267.1 1514.29 L1285.45 1514.29 L1285.45 1518.22 L1271.38 1518.22 L1271.38 1526.7 Q1272.4 1526.35 1273.42 1526.19 Q1274.43 1526 1275.45 1526 Q1281.24 1526 1284.62 1529.17 Q1288 1532.34 1288 1537.76 Q1288 1543.34 1284.53 1546.44 Q1281.05 1549.52 1274.73 1549.52 Q1272.56 1549.52 1270.29 1549.15 Q1268.05 1548.78 1265.64 1548.04 L1265.64 1543.34 Q1267.72 1544.47 1269.94 1545.03 Q1272.17 1545.58 1274.64 1545.58 Q1278.65 1545.58 1280.98 1543.48 Q1283.32 1541.37 1283.32 1537.76 Q1283.32 1534.15 1280.98 1532.04 Q1278.65 1529.94 1274.64 1529.94 Q1272.77 1529.94 1270.89 1530.35 Q1269.04 1530.77 1267.1 1531.65 L1267.1 1514.29 Z" fill="#000000" fill-rule="nonzero" fill-opacity="1" /><path clip-path="url(#clip520)" d="M1307.21 1517.37 Q1303.6 1517.37 1301.77 1520.93 Q1299.97 1524.47 1299.97 1531.6 Q1299.97 1538.71 1301.77 1542.27 Q1303.6 1545.82 1307.21 1545.82 Q1310.85 1545.82 1312.65 1542.27 Q1314.48 1538.71 1314.48 1531.6 Q1314.48 1524.47 1312.65 1520.93 Q1310.85 1517.37 1307.21 1517.37 M1307.21 1513.66 Q1313.02 1513.66 1316.08 1518.27 Q1319.16 1522.85 1319.16 1531.6 Q1319.16 1540.33 1316.08 1544.94 Q1313.02 1549.52 1307.21 1549.52 Q1301.4 1549.52 1298.32 1544.94 Q1295.27 1540.33 1295.27 1531.6 Q1295.27 1522.85 1298.32 1518.27 Q1301.4 1513.66 1307.21 1513.66 Z" fill="#000000" fill-rule="nonzero" fill-opacity="1" /><path clip-path="url(#clip520)" d="M1743.28 1517.37 Q1739.67 1517.37 1737.84 1520.93 Q1736.03 1524.47 1736.03 1531.6 Q1736.03 1538.71 1737.84 1542.27 Q1739.67 1545.82 1743.28 1545.82 Q1746.91 1545.82 1748.72 1542.27 Q1750.55 1538.71 1750.55 1531.6 Q1750.55 1524.47 1748.72 1520.93 Q1746.91 1517.37 1743.28 1517.37 M1743.28 1513.66 Q1749.09 1513.66 1752.14 1518.27 Q1755.22 1522.85 1755.22 1531.6 Q1755.22 1540.33 1752.14 1544.94 Q1749.09 1549.52 1743.28 1549.52 Q1737.47 1549.52 1734.39 1544.94 Q1731.33 1540.33 1731.33 1531.6 Q1731.33 1522.85 1734.39 1518.27 Q1737.47 1513.66 1743.28 1513.66 Z" fill="#000000" fill-rule="nonzero" fill-opacity="1" /><path clip-path="url(#clip520)" d="M1763.44 1542.97 L1768.32 1542.97 L1768.32 1548.85 L1763.44 1548.85 L1763.44 1542.97 Z" fill="#000000" fill-rule="nonzero" fill-opacity="1" /><path clip-path="url(#clip520)" d="M1777.33 1514.29 L1799.55 1514.29 L1799.55 1516.28 L1787.01 1548.85 L1782.12 1548.85 L1793.93 1518.22 L1777.33 1518.22 L1777.33 1514.29 Z" fill="#000000" fill-rule="nonzero" fill-opacity="1" /><path clip-path="url(#clip520)" d="M1808.72 1514.29 L1827.07 1514.29 L1827.07 1518.22 L1813 1518.22 L1813 1526.7 Q1814.02 1526.35 1815.04 1526.19 Q1816.06 1526 1817.07 1526 Q1822.86 1526 1826.24 1529.17 Q1829.62 1532.34 1829.62 1537.76 Q1829.62 1543.34 1826.15 1546.44 Q1822.68 1549.52 1816.36 1549.52 Q1814.18 1549.52 1811.91 1549.15 Q1809.67 1548.78 1807.26 1548.04 L1807.26 1543.34 Q1809.34 1544.47 1811.57 1545.03 Q1813.79 1545.58 1816.26 1545.58 Q1820.27 1545.58 1822.61 1543.48 Q1824.95 1541.37 1824.95 1537.76 Q1824.95 1534.15 1822.61 1532.04 Q1820.27 1529.94 1816.26 1529.94 Q1814.39 1529.94 1812.51 1530.35 Q1810.66 1530.77 1808.72 1531.65 L1808.72 1514.29 Z" fill="#000000" fill-rule="nonzero" fill-opacity="1" /><path clip-path="url(#clip520)" d="M2243.51 1544.91 L2251.15 1544.91 L2251.15 1518.55 L2242.84 1520.21 L2242.84 1515.95 L2251.1 1514.29 L2255.78 1514.29 L2255.78 1544.91 L2263.42 1544.91 L2263.42 1548.85 L2243.51 1548.85 L2243.51 1544.91 Z" fill="#000000" fill-rule="nonzero" fill-opacity="1" /><path clip-path="url(#clip520)" d="M2272.86 1542.97 L2277.75 1542.97 L2277.75 1548.85 L2272.86 1548.85 L2272.86 1542.97 Z" fill="#000000" fill-rule="nonzero" fill-opacity="1" /><path clip-path="url(#clip520)" d="M2297.93 1517.37 Q2294.32 1517.37 2292.49 1520.93 Q2290.69 1524.47 2290.69 1531.6 Q2290.69 1538.71 2292.49 1542.27 Q2294.32 1545.82 2297.93 1545.82 Q2301.57 1545.82 2303.37 1542.27 Q2305.2 1538.71 2305.2 1531.6 Q2305.2 1524.47 2303.37 1520.93 Q2301.57 1517.37 2297.93 1517.37 M2297.93 1513.66 Q2303.74 1513.66 2306.8 1518.27 Q2309.88 1522.85 2309.88 1531.6 Q2309.88 1540.33 2306.8 1544.94 Q2303.74 1549.52 2297.93 1549.52 Q2292.12 1549.52 2289.04 1544.94 Q2285.99 1540.33 2285.99 1531.6 Q2285.99 1522.85 2289.04 1518.27 Q2292.12 1513.66 2297.93 1513.66 Z" fill="#000000" fill-rule="nonzero" fill-opacity="1" /><path clip-path="url(#clip520)" d="M2328.1 1517.37 Q2324.48 1517.37 2322.66 1520.93 Q2320.85 1524.47 2320.85 1531.6 Q2320.85 1538.71 2322.66 1542.27 Q2324.48 1545.82 2328.1 1545.82 Q2331.73 1545.82 2333.54 1542.27 Q2335.36 1538.71 2335.36 1531.6 Q2335.36 1524.47 2333.54 1520.93 Q2331.73 1517.37 2328.1 1517.37 M2328.1 1513.66 Q2333.91 1513.66 2336.96 1518.27 Q2340.04 1522.85 2340.04 1531.6 Q2340.04 1540.33 2336.96 1544.94 Q2333.91 1549.52 2328.1 1549.52 Q2322.29 1549.52 2319.21 1544.94 Q2316.15 1540.33 2316.15 1531.6 Q2316.15 1522.85 2319.21 1518.27 Q2322.29 1513.66 2328.1 1513.66 Z" fill="#000000" fill-rule="nonzero" fill-opacity="1" /><polyline clip-path="url(#clip520)" style="stroke:#000000; stroke-linecap:round; stroke-linejoin:round; stroke-width:4; stroke-opacity:1; fill:none" points="186.274,1486.45 186.274,47.2441 "/>
<polyline clip-path="url(#clip520)" style="stroke:#000000; stroke-linecap:round; stroke-linejoin:round; stroke-width:4; stroke-opacity:1; fill:none" points="186.274,1312.81 205.172,1312.81 "/>
<polyline clip-path="url(#clip520)" style="stroke:#000000; stroke-linecap:round; stroke-linejoin:round; stroke-width:4; stroke-opacity:1; fill:none" points="186.274,999.796 205.172,999.796 "/>
<polyline clip-path="url(#clip520)" style="stroke:#000000; stroke-linecap:round; stroke-linejoin:round; stroke-width:4; stroke-opacity:1; fill:none" points="186.274,686.779 205.172,686.779 "/>
<polyline clip-path="url(#clip520)" style="stroke:#000000; stroke-linecap:round; stroke-linejoin:round; stroke-width:4; stroke-opacity:1; fill:none" points="186.274,373.762 205.172,373.762 "/>
<polyline clip-path="url(#clip520)" style="stroke:#000000; stroke-linecap:round; stroke-linejoin:round; stroke-width:4; stroke-opacity:1; fill:none" points="186.274,60.7453 205.172,60.7453 "/>
<path clip-path="url(#clip520)" d="M62.9365 1298.61 Q59.3254 1298.61 57.4967 1302.18 Q55.6912 1305.72 55.6912 1312.85 Q55.6912 1319.95 57.4967 1323.52 Q59.3254 1327.06 62.9365 1327.06 Q66.5707 1327.06 68.3763 1323.52 Q70.205 1319.95 70.205 1312.85 Q70.205 1305.72 68.3763 1302.18 Q66.5707 1298.61 62.9365 1298.61 M62.9365 1294.91 Q68.7467 1294.91 71.8022 1299.51 Q74.8809 1304.1 74.8809 1312.85 Q74.8809 1321.57 71.8022 1326.18 Q68.7467 1330.76 62.9365 1330.76 Q57.1264 1330.76 54.0477 1326.18 Q50.9921 1321.57 50.9921 1312.85 Q50.9921 1304.1 54.0477 1299.51 Q57.1264 1294.91 62.9365 1294.91 Z" fill="#000000" fill-rule="nonzero" fill-opacity="1" /><path clip-path="url(#clip520)" d="M83.0984 1324.21 L87.9827 1324.21 L87.9827 1330.09 L83.0984 1330.09 L83.0984 1324.21 Z" fill="#000000" fill-rule="nonzero" fill-opacity="1" /><path clip-path="url(#clip520)" d="M98.2141 1295.53 L116.57 1295.53 L116.57 1299.47 L102.496 1299.47 L102.496 1307.94 Q103.515 1307.59 104.534 1307.43 Q105.552 1307.25 106.571 1307.25 Q112.358 1307.25 115.737 1310.42 Q119.117 1313.59 119.117 1319.01 Q119.117 1324.58 115.645 1327.69 Q112.172 1330.76 105.853 1330.76 Q103.677 1330.76 101.409 1330.39 Q99.1632 1330.02 96.7558 1329.28 L96.7558 1324.58 Q98.8391 1325.72 101.061 1326.27 Q103.284 1326.83 105.76 1326.83 Q109.765 1326.83 112.103 1324.72 Q114.441 1322.62 114.441 1319.01 Q114.441 1315.39 112.103 1313.29 Q109.765 1311.18 105.76 1311.18 Q103.885 1311.18 102.01 1311.6 Q100.159 1312.01 98.2141 1312.89 L98.2141 1295.53 Z" fill="#000000" fill-rule="nonzero" fill-opacity="1" /><path clip-path="url(#clip520)" d="M138.33 1298.61 Q134.719 1298.61 132.89 1302.18 Q131.084 1305.72 131.084 1312.85 Q131.084 1319.95 132.89 1323.52 Q134.719 1327.06 138.33 1327.06 Q141.964 1327.06 143.769 1323.52 Q145.598 1319.95 145.598 1312.85 Q145.598 1305.72 143.769 1302.18 Q141.964 1298.61 138.33 1298.61 M138.33 1294.91 Q144.14 1294.91 147.195 1299.51 Q150.274 1304.1 150.274 1312.85 Q150.274 1321.57 147.195 1326.18 Q144.14 1330.76 138.33 1330.76 Q132.519 1330.76 129.441 1326.18 Q126.385 1321.57 126.385 1312.85 Q126.385 1304.1 129.441 1299.51 Q132.519 1294.91 138.33 1294.91 Z" fill="#000000" fill-rule="nonzero" fill-opacity="1" /><path clip-path="url(#clip520)" d="M63.9319 985.595 Q60.3208 985.595 58.4921 989.16 Q56.6865 992.701 56.6865 999.831 Q56.6865 1006.94 58.4921 1010.5 Q60.3208 1014.04 63.9319 1014.04 Q67.5661 1014.04 69.3717 1010.5 Q71.2004 1006.94 71.2004 999.831 Q71.2004 992.701 69.3717 989.16 Q67.5661 985.595 63.9319 985.595 M63.9319 981.891 Q69.742 981.891 72.7976 986.498 Q75.8763 991.081 75.8763 999.831 Q75.8763 1008.56 72.7976 1013.16 Q69.742 1017.75 63.9319 1017.75 Q58.1217 1017.75 55.043 1013.16 Q51.9875 1008.56 51.9875 999.831 Q51.9875 991.081 55.043 986.498 Q58.1217 981.891 63.9319 981.891 Z" fill="#000000" fill-rule="nonzero" fill-opacity="1" /><path clip-path="url(#clip520)" d="M84.0938 1011.2 L88.978 1011.2 L88.978 1017.08 L84.0938 1017.08 L84.0938 1011.2 Z" fill="#000000" fill-rule="nonzero" fill-opacity="1" /><path clip-path="url(#clip520)" d="M97.9826 982.516 L120.205 982.516 L120.205 984.507 L107.658 1017.08 L102.774 1017.08 L114.58 986.451 L97.9826 986.451 L97.9826 982.516 Z" fill="#000000" fill-rule="nonzero" fill-opacity="1" /><path clip-path="url(#clip520)" d="M129.371 982.516 L147.728 982.516 L147.728 986.451 L133.654 986.451 L133.654 994.924 Q134.672 994.576 135.691 994.414 Q136.709 994.229 137.728 994.229 Q143.515 994.229 146.894 997.4 Q150.274 1000.57 150.274 1005.99 Q150.274 1011.57 146.802 1014.67 Q143.33 1017.75 137.01 1017.75 Q134.834 1017.75 132.566 1017.38 Q130.32 1017.01 127.913 1016.27 L127.913 1011.57 Q129.996 1012.7 132.219 1013.26 Q134.441 1013.81 136.918 1013.81 Q140.922 1013.81 143.26 1011.71 Q145.598 1009.6 145.598 1005.99 Q145.598 1002.38 143.26 1000.27 Q140.922 998.164 136.918 998.164 Q135.043 998.164 133.168 998.581 Q131.316 998.998 129.371 999.877 L129.371 982.516 Z" fill="#000000" fill-rule="nonzero" fill-opacity="1" /><path clip-path="url(#clip520)" d="M53.7467 700.124 L61.3856 700.124 L61.3856 673.758 L53.0754 675.425 L53.0754 671.166 L61.3393 669.499 L66.0152 669.499 L66.0152 700.124 L73.654 700.124 L73.654 704.059 L53.7467 704.059 L53.7467 700.124 Z" fill="#000000" fill-rule="nonzero" fill-opacity="1" /><path clip-path="url(#clip520)" d="M83.0984 698.18 L87.9827 698.18 L87.9827 704.059 L83.0984 704.059 L83.0984 698.18 Z" fill="#000000" fill-rule="nonzero" fill-opacity="1" /><path clip-path="url(#clip520)" d="M108.168 672.578 Q104.557 672.578 102.728 676.143 Q100.922 679.684 100.922 686.814 Q100.922 693.92 102.728 697.485 Q104.557 701.027 108.168 701.027 Q111.802 701.027 113.608 697.485 Q115.436 693.92 115.436 686.814 Q115.436 679.684 113.608 676.143 Q111.802 672.578 108.168 672.578 M108.168 668.874 Q113.978 668.874 117.033 673.481 Q120.112 678.064 120.112 686.814 Q120.112 695.541 117.033 700.147 Q113.978 704.731 108.168 704.731 Q102.358 704.731 99.2789 700.147 Q96.2234 695.541 96.2234 686.814 Q96.2234 678.064 99.2789 673.481 Q102.358 668.874 108.168 668.874 Z" fill="#000000" fill-rule="nonzero" fill-opacity="1" /><path clip-path="url(#clip520)" d="M138.33 672.578 Q134.719 672.578 132.89 676.143 Q131.084 679.684 131.084 686.814 Q131.084 693.92 132.89 697.485 Q134.719 701.027 138.33 701.027 Q141.964 701.027 143.769 697.485 Q145.598 693.92 145.598 686.814 Q145.598 679.684 143.769 676.143 Q141.964 672.578 138.33 672.578 M138.33 668.874 Q144.14 668.874 147.195 673.481 Q150.274 678.064 150.274 686.814 Q150.274 695.541 147.195 700.147 Q144.14 704.731 138.33 704.731 Q132.519 704.731 129.441 700.147 Q126.385 695.541 126.385 686.814 Q126.385 678.064 129.441 673.481 Q132.519 668.874 138.33 668.874 Z" fill="#000000" fill-rule="nonzero" fill-opacity="1" /><path clip-path="url(#clip520)" d="M54.7421 387.107 L62.381 387.107 L62.381 360.742 L54.0708 362.408 L54.0708 358.149 L62.3347 356.482 L67.0106 356.482 L67.0106 387.107 L74.6494 387.107 L74.6494 391.042 L54.7421 391.042 L54.7421 387.107 Z" fill="#000000" fill-rule="nonzero" fill-opacity="1" /><path clip-path="url(#clip520)" d="M84.0938 385.163 L88.978 385.163 L88.978 391.042 L84.0938 391.042 L84.0938 385.163 Z" fill="#000000" fill-rule="nonzero" fill-opacity="1" /><path clip-path="url(#clip520)" d="M103.191 387.107 L119.51 387.107 L119.51 391.042 L97.566 391.042 L97.566 387.107 Q100.228 384.352 104.811 379.723 Q109.418 375.07 110.598 373.728 Q112.844 371.204 113.723 369.468 Q114.626 367.709 114.626 366.019 Q114.626 363.265 112.682 361.529 Q110.76 359.792 107.658 359.792 Q105.459 359.792 103.006 360.556 Q100.575 361.32 97.7974 362.871 L97.7974 358.149 Q100.621 357.015 103.075 356.436 Q105.529 355.857 107.566 355.857 Q112.936 355.857 116.131 358.542 Q119.325 361.228 119.325 365.718 Q119.325 367.848 118.515 369.769 Q117.728 371.667 115.621 374.26 Q115.043 374.931 111.941 378.149 Q108.839 381.343 103.191 387.107 Z" fill="#000000" fill-rule="nonzero" fill-opacity="1" /><path clip-path="url(#clip520)" d="M129.371 356.482 L147.728 356.482 L147.728 360.417 L133.654 360.417 L133.654 368.89 Q134.672 368.542 135.691 368.38 Q136.709 368.195 137.728 368.195 Q143.515 368.195 146.894 371.366 Q150.274 374.538 150.274 379.954 Q150.274 385.533 146.802 388.635 Q143.33 391.714 137.01 391.714 Q134.834 391.714 132.566 391.343 Q130.32 390.973 127.913 390.232 L127.913 385.533 Q129.996 386.667 132.219 387.223 Q134.441 387.778 136.918 387.778 Q140.922 387.778 143.26 385.672 Q145.598 383.565 145.598 379.954 Q145.598 376.343 143.26 374.237 Q140.922 372.13 136.918 372.13 Q135.043 372.13 133.168 372.547 Q131.316 372.964 129.371 373.843 L129.371 356.482 Z" fill="#000000" fill-rule="nonzero" fill-opacity="1" /><path clip-path="url(#clip520)" d="M53.7467 74.0902 L61.3856 74.0902 L61.3856 47.7246 L53.0754 49.3912 L53.0754 45.132 L61.3393 43.4653 L66.0152 43.4653 L66.0152 74.0902 L73.654 74.0902 L73.654 78.0253 L53.7467 78.0253 L53.7467 74.0902 Z" fill="#000000" fill-rule="nonzero" fill-opacity="1" /><path clip-path="url(#clip520)" d="M83.0984 72.1457 L87.9827 72.1457 L87.9827 78.0253 L83.0984 78.0253 L83.0984 72.1457 Z" fill="#000000" fill-rule="nonzero" fill-opacity="1" /><path clip-path="url(#clip520)" d="M98.2141 43.4653 L116.57 43.4653 L116.57 47.4005 L102.496 47.4005 L102.496 55.8727 Q103.515 55.5254 104.534 55.3634 Q105.552 55.1782 106.571 55.1782 Q112.358 55.1782 115.737 58.3495 Q119.117 61.5208 119.117 66.9374 Q119.117 72.5161 115.645 75.6179 Q112.172 78.6966 105.853 78.6966 Q103.677 78.6966 101.409 78.3263 Q99.1632 77.9559 96.7558 77.2151 L96.7558 72.5161 Q98.8391 73.6504 101.061 74.2059 Q103.284 74.7615 105.76 74.7615 Q109.765 74.7615 112.103 72.655 Q114.441 70.5485 114.441 66.9374 Q114.441 63.3263 112.103 61.2199 Q109.765 59.1134 105.76 59.1134 Q103.885 59.1134 102.01 59.5301 Q100.159 59.9467 98.2141 60.8263 L98.2141 43.4653 Z" fill="#000000" fill-rule="nonzero" fill-opacity="1" /><path clip-path="url(#clip520)" d="M138.33 46.544 Q134.719 46.544 132.89 50.1088 Q131.084 53.6505 131.084 60.78 Q131.084 67.8865 132.89 71.4513 Q134.719 74.9929 138.33 74.9929 Q141.964 74.9929 143.769 71.4513 Q145.598 67.8865 145.598 60.78 Q145.598 53.6505 143.769 50.1088 Q141.964 46.544 138.33 46.544 M138.33 42.8403 Q144.14 42.8403 147.195 47.4468 Q150.274 52.0301 150.274 60.78 Q150.274 69.5069 147.195 74.1133 Q144.14 78.6966 138.33 78.6966 Q132.519 78.6966 129.441 74.1133 Q126.385 69.5069 126.385 60.78 Q126.385 52.0301 129.441 47.4468 Q132.519 42.8403 138.33 42.8403 Z" fill="#000000" fill-rule="nonzero" fill-opacity="1" /><polyline clip-path="url(#clip522)" style="stroke:#009af9; stroke-linecap:round; stroke-linejoin:round; stroke-width:12; stroke-opacity:1; fill:none" points="247.59,1312.81 451.975,1229.25 656.36,1168.21 860.745,1030.09 1065.13,845.475 1269.51,1023.03 1473.9,885.239 1678.29,625.471 1882.67,486.882 2087.06,244.812 2291.44,87.9763 "/>
<polyline clip-path="url(#clip522)" style="stroke:#e26f46; stroke-linecap:round; stroke-linejoin:round; stroke-width:12; stroke-opacity:1; fill:none" points="247.59,1312.81 451.975,1291.6 656.36,1131.54 860.745,1083.61 1065.13,1023.52 1269.51,1100.11 1473.9,972.812 1678.29,881.472 1882.67,677.141 2087.06,479.105 2291.44,489.95 "/>
<polyline clip-path="url(#clip522)" style="stroke:#3da44d; stroke-linecap:round; stroke-linejoin:round; stroke-width:12; stroke-opacity:1; fill:none" points="247.59,1312.81 451.975,1178.35 656.36,1205.3 860.745,1209.79 1065.13,1247.86 1269.51,1293.64 1473.9,1372.17 1678.29,1359.2 1882.67,1389.04 2087.06,1415.6 2291.44,1445.72 "/>
<polyline clip-path="url(#clip522)" style="stroke:#c271d2; stroke-linecap:round; stroke-linejoin:round; stroke-width:12; stroke-opacity:1; fill:none" points="247.59,1312.81 451.975,1125.46 656.36,1071.52 860.745,1057.83 1065.13,1049.76 1269.51,1166.5 1473.9,1267.96 1678.29,1331.79 1882.67,1427.34 2087.06,1417.3 2291.44,1276.95 "/>
<polyline clip-path="url(#clip522)" style="stroke:#ac8d18; stroke-linecap:round; stroke-linejoin:round; stroke-width:12; stroke-opacity:1; fill:none" points="247.59,1312.81 451.975,1289.02 656.36,1307.05 860.745,1145.74 1065.13,950.68 1269.51,929.842 1473.9,857.205 1678.29,977.476 1882.67,1161.96 2087.06,1177.13 2291.44,1126.97 "/>
<polyline clip-path="url(#clip522)" style="stroke:#00a9ad; stroke-linecap:round; stroke-linejoin:round; stroke-width:12; stroke-opacity:1; fill:none" points="247.59,1312.81 451.975,1329.33 656.36,1312.41 860.745,1361.53 1065.13,1289.01 1269.51,1206.66 1473.9,1218.25 1678.29,1220.13 1882.67,1195.46 2087.06,1147.75 2291.44,961.271 "/>
<polyline clip-path="url(#clip522)" style="stroke:#ed5d92; stroke-linecap:round; stroke-linejoin:round; stroke-width:12; stroke-opacity:1; fill:none" points="247.59,1312.81 451.975,1323.11 656.36,1284.36 860.745,1172.51 1065.13,1112.36 1269.51,969.93 1473.9,1053.8 1678.29,940.672 1882.67,625.732 2087.06,668.927 2291.44,343.725 "/>
<polyline clip-path="url(#clip522)" style="stroke:#c68125; stroke-linecap:round; stroke-linejoin:round; stroke-width:12; stroke-opacity:1; fill:none" points="247.59,1312.81 451.975,1248.68 656.36,1307.01 860.745,1106.68 1065.13,1035.1 1269.51,1084.9 1473.9,1088.11 1678.29,974.241 1882.67,822.611 2087.06,610.123 2291.44,719.022 "/>
</svg>
