<?xml version="1.0" encoding="utf-8"?>
<svg xmlns="http://www.w3.org/2000/svg" xmlns:xlink="http://www.w3.org/1999/xlink" width="600" height="400" viewBox="0 0 2400 1600">
<defs>
  <clipPath id="clip140">
    <rect x="0" y="0" width="2400" height="1600"/>
  </clipPath>
</defs>
<path clip-path="url(#clip140)" d="M0 1600 L2400 1600 L2400 0 L0 0  Z" fill="#ffffff" fill-rule="evenodd" fill-opacity="1"/>
<defs>
  <clipPath id="clip141">
    <rect x="480" y="0" width="1681" height="1600"/>
  </clipPath>
</defs>
<path clip-path="url(#clip140)" d="M186.274 1486.45 L2352.76 1486.45 L2352.76 47.2441 L186.274 47.2441  Z" fill="#ffffff" fill-rule="evenodd" fill-opacity="1"/>
<defs>
  <clipPath id="clip142">
    <rect x="186" y="47" width="2167" height="1440"/>
  </clipPath>
</defs>
<polyline clip-path="url(#clip142)" style="stroke:#000000; stroke-linecap:round; stroke-linejoin:round; stroke-width:2; stroke-opacity:0.1; fill:none" points="247.59,1486.45 247.59,47.2441 "/>
<polyline clip-path="url(#clip142)" style="stroke:#000000; stroke-linecap:round; stroke-linejoin:round; stroke-width:2; stroke-opacity:0.1; fill:none" points="758.552,1486.45 758.552,47.2441 "/>
<polyline clip-path="url(#clip142)" style="stroke:#000000; stroke-linecap:round; stroke-linejoin:round; stroke-width:2; stroke-opacity:0.1; fill:none" points="1269.51,1486.45 1269.51,47.2441 "/>
<polyline clip-path="url(#clip142)" style="stroke:#000000; stroke-linecap:round; stroke-linejoin:round; stroke-width:2; stroke-opacity:0.1; fill:none" points="1780.48,1486.45 1780.48,47.2441 "/>
<polyline clip-path="url(#clip142)" style="stroke:#000000; stroke-linecap:round; stroke-linejoin:round; stroke-width:2; stroke-opacity:0.1; fill:none" points="2291.44,1486.45 2291.44,47.2441 "/>
<polyline clip-path="url(#clip142)" style="stroke:#000000; stroke-linecap:round; stroke-linejoin:round; stroke-width:2; stroke-opacity:0.1; fill:none" points="186.274,1344.69 2352.76,1344.69 "/>
<polyline clip-path="url(#clip142)" style="stroke:#000000; stroke-linecap:round; stroke-linejoin:round; stroke-width:2; stroke-opacity:0.1; fill:none" points="186.274,1008.63 2352.76,1008.63 "/>
<polyline clip-path="url(#clip142)" style="stroke:#000000; stroke-linecap:round; stroke-linejoin:round; stroke-width:2; stroke-opacity:0.1; fill:none" points="186.274,672.573 2352.76,672.573 "/>
<polyline clip-path="url(#clip142)" style="stroke:#000000; stroke-linecap:round; stroke-linejoin:round; stroke-width:2; stroke-opacity:0.1; fill:none" points="186.274,336.514 2352.76,336.514 "/>
<polyline clip-path="url(#clip140)" style="stroke:#000000; stroke-linecap:round; stroke-linejoin:round; stroke-width:4; stroke-opacity:1; fill:none" points="186.274,1486.45 2352.76,1486.45 "/>
<polyline clip-path="url(#clip140)" style="stroke:#000000; stroke-linecap:round; stroke-linejoin:round; stroke-width:4; stroke-opacity:1; fill:none" points="247.59,1486.45 247.59,1467.55 "/>
<polyline clip-path="url(#clip140)" style="stroke:#000000; stroke-linecap:round; stroke-linejoin:round; stroke-width:4; stroke-opacity:1; fill:none" points="758.552,1486.45 758.552,1467.55 "/>
<polyline clip-path="url(#clip140)" style="stroke:#000000; stroke-linecap:round; stroke-linejoin:round; stroke-width:4; stroke-opacity:1; fill:none" points="1269.51,1486.45 1269.51,1467.55 "/>
<polyline clip-path="url(#clip140)" style="stroke:#000000; stroke-linecap:round; stroke-linejoin:round; stroke-width:4; stroke-opacity:1; fill:none" points="1780.48,1486.45 1780.48,1467.55 "/>
<polyline clip-path="url(#clip140)" style="stroke:#000000; stroke-linecap:round; stroke-linejoin:round; stroke-width:4; stroke-opacity:1; fill:none" points="2291.44,1486.45 2291.44,1467.55 "/>
<path clip-path="url(#clip140)" d="M209.893 1517.37 Q206.282 1517.37 204.453 1520.93 Q202.648 1524.47 202.648 1531.6 Q202.648 1538.71 204.453 1542.27 Q206.282 1545.82 209.893 1545.82 Q213.527 1545.82 215.333 1542.27 Q217.161 1538.71 217.161 1531.6 Q217.161 1524.47 215.333 1520.93 Q213.527 1517.37 209.893 1517.37 M209.893 1513.66 Q215.703 1513.66 218.759 1518.27 Q221.837 1522.85 221.837 1531.6 Q221.837 1540.33 218.759 1544.94 Q215.703 1549.52 209.893 1549.52 Q204.083 1549.52 201.004 1544.94 Q197.949 1540.33 197.949 1531.6 Q197.949 1522.85 201.004 1518.27 Q204.083 1513.66 209.893 1513.66 Z" fill="#000000" fill-rule="nonzero" fill-opacity="1" /><path clip-path="url(#clip140)" d="M230.055 1542.97 L234.939 1542.97 L234.939 1548.85 L230.055 1548.85 L230.055 1542.97 Z" fill="#000000" fill-rule="nonzero" fill-opacity="1" /><path clip-path="url(#clip140)" d="M255.124 1517.37 Q251.513 1517.37 249.684 1520.93 Q247.879 1524.47 247.879 1531.6 Q247.879 1538.71 249.684 1542.27 Q251.513 1545.82 255.124 1545.82 Q258.758 1545.82 260.564 1542.27 Q262.393 1538.71 262.393 1531.6 Q262.393 1524.47 260.564 1520.93 Q258.758 1517.37 255.124 1517.37 M255.124 1513.66 Q260.934 1513.66 263.99 1518.27 Q267.069 1522.85 267.069 1531.6 Q267.069 1540.33 263.99 1544.94 Q260.934 1549.52 255.124 1549.52 Q249.314 1549.52 246.235 1544.94 Q243.18 1540.33 243.18 1531.6 Q243.18 1522.85 246.235 1518.27 Q249.314 1513.66 255.124 1513.66 Z" fill="#000000" fill-rule="nonzero" fill-opacity="1" /><path clip-path="url(#clip140)" d="M285.286 1517.37 Q281.675 1517.37 279.846 1520.93 Q278.041 1524.47 278.041 1531.6 Q278.041 1538.71 279.846 1542.27 Q281.675 1545.82 285.286 1545.82 Q288.92 1545.82 290.726 1542.27 Q292.555 1538.71 292.555 1531.6 Q292.555 1524.47 290.726 1520.93 Q288.92 1517.37 285.286 1517.37 M285.286 1513.66 Q291.096 1513.66 294.152 1518.27 Q297.23 1522.85 297.23 1531.6 Q297.23 1540.33 294.152 1544.94 Q291.096 1549.52 285.286 1549.52 Q279.476 1549.52 276.397 1544.94 Q273.342 1540.33 273.342 1531.6 Q273.342 1522.85 276.397 1518.27 Q279.476 1513.66 285.286 1513.66 Z" fill="#000000" fill-rule="nonzero" fill-opacity="1" /><path clip-path="url(#clip140)" d="M721.353 1517.37 Q717.742 1517.37 715.914 1520.93 Q714.108 1524.47 714.108 1531.6 Q714.108 1538.71 715.914 1542.27 Q717.742 1545.82 721.353 1545.82 Q724.988 1545.82 726.793 1542.27 Q728.622 1538.71 728.622 1531.6 Q728.622 1524.47 726.793 1520.93 Q724.988 1517.37 721.353 1517.37 M721.353 1513.66 Q727.164 1513.66 730.219 1518.27 Q733.298 1522.85 733.298 1531.6 Q733.298 1540.33 730.219 1544.94 Q727.164 1549.52 721.353 1549.52 Q715.543 1549.52 712.465 1544.94 Q709.409 1540.33 709.409 1531.6 Q709.409 1522.85 712.465 1518.27 Q715.543 1513.66 721.353 1513.66 Z" fill="#000000" fill-rule="nonzero" fill-opacity="1" /><path clip-path="url(#clip140)" d="M741.515 1542.97 L746.4 1542.97 L746.4 1548.85 L741.515 1548.85 L741.515 1542.97 Z" fill="#000000" fill-rule="nonzero" fill-opacity="1" /><path clip-path="url(#clip140)" d="M760.612 1544.91 L776.932 1544.91 L776.932 1548.85 L754.987 1548.85 L754.987 1544.91 Q757.649 1542.16 762.233 1537.53 Q766.839 1532.88 768.02 1531.53 Q770.265 1529.01 771.145 1527.27 Q772.048 1525.51 772.048 1523.82 Q772.048 1521.07 770.103 1519.33 Q768.182 1517.6 765.08 1517.6 Q762.881 1517.6 760.427 1518.36 Q757.997 1519.13 755.219 1520.68 L755.219 1515.95 Q758.043 1514.82 760.497 1514.24 Q762.95 1513.66 764.987 1513.66 Q770.358 1513.66 773.552 1516.35 Q776.747 1519.03 776.747 1523.52 Q776.747 1525.65 775.936 1527.57 Q775.149 1529.47 773.043 1532.07 Q772.464 1532.74 769.362 1535.95 Q766.261 1539.15 760.612 1544.91 Z" fill="#000000" fill-rule="nonzero" fill-opacity="1" /><path clip-path="url(#clip140)" d="M786.793 1514.29 L805.149 1514.29 L805.149 1518.22 L791.075 1518.22 L791.075 1526.7 Q792.094 1526.35 793.112 1526.19 Q794.131 1526 795.149 1526 Q800.936 1526 804.316 1529.17 Q807.695 1532.34 807.695 1537.76 Q807.695 1543.34 804.223 1546.44 Q800.751 1549.52 794.432 1549.52 Q792.256 1549.52 789.987 1549.15 Q787.742 1548.78 785.335 1548.04 L785.335 1543.34 Q787.418 1544.47 789.64 1545.03 Q791.862 1545.58 794.339 1545.58 Q798.344 1545.58 800.682 1543.48 Q803.02 1541.37 803.02 1537.76 Q803.02 1534.15 800.682 1532.04 Q798.344 1529.94 794.339 1529.94 Q792.464 1529.94 790.589 1530.35 Q788.737 1530.77 786.793 1531.65 L786.793 1514.29 Z" fill="#000000" fill-rule="nonzero" fill-opacity="1" /><path clip-path="url(#clip140)" d="M1231.82 1517.37 Q1228.21 1517.37 1226.38 1520.93 Q1224.57 1524.47 1224.57 1531.6 Q1224.57 1538.71 1226.38 1542.27 Q1228.21 1545.82 1231.82 1545.82 Q1235.45 1545.82 1237.26 1542.27 Q1239.09 1538.71 1239.09 1531.6 Q1239.09 1524.47 1237.26 1520.93 Q1235.45 1517.37 1231.82 1517.37 M1231.82 1513.66 Q1237.63 1513.66 1240.68 1518.27 Q1243.76 1522.85 1243.76 1531.6 Q1243.76 1540.33 1240.68 1544.94 Q1237.63 1549.52 1231.82 1549.52 Q1226.01 1549.52 1222.93 1544.94 Q1219.87 1540.33 1219.87 1531.6 Q1219.87 1522.85 1222.93 1518.27 Q1226.01 1513.66 1231.82 1513.66 Z" fill="#000000" fill-rule="nonzero" fill-opacity="1" /><path clip-path="url(#clip140)" d="M1251.98 1542.97 L1256.86 1542.97 L1256.86 1548.85 L1251.98 1548.85 L1251.98 1542.97 Z" fill="#000000" fill-rule="nonzero" fill-opacity="1" /><path clip-path="url(#clip140)" d="M1267.1 1514.29 L1285.45 1514.29 L1285.45 1518.22 L1271.38 1518.22 L1271.38 1526.7 Q1272.4 1526.35 1273.42 1526.19 Q1274.43 1526 1275.45 1526 Q1281.24 1526 1284.62 1529.17 Q1288 1532.34 1288 1537.76 Q1288 1543.34 1284.53 1546.44 Q1281.05 1549.52 1274.73 1549.52 Q1272.56 1549.52 1270.29 1549.15 Q1268.05 1548.78 1265.64 1548.04 L1265.64 1543.34 Q1267.72 1544.47 1269.94 1545.03 Q1272.17 1545.58 1274.64 1545.58 Q1278.65 1545.58 1280.98 1543.48 Q1283.32 1541.37 1283.32 1537.76 Q1283.32 1534.15 1280.98 1532.04 Q1278.65 1529.94 1274.64 1529.94 Q1272.77 1529.94 1270.89 1530.35 Q1269.04 1530.77 1267.1 1531.65 L1267.1 1514.29 Z" fill="#000000" fill-rule="nonzero" fill-opacity="1" /><path clip-path="url(#clip140)" d="M1307.21 1517.37 Q1303.6 1517.37 1301.77 1520.93 Q1299.97 1524.47 1299.97 1531.6 Q1299.97 1538.71 1301.77 1542.27 Q1303.6 1545.82 1307.21 1545.82 Q1310.85 1545.82 1312.65 1542.27 Q1314.48 1538.71 1314.48 1531.6 Q1314.48 1524.47 1312.65 1520.93 Q1310.85 1517.37 1307.21 1517.37 M1307.21 1513.66 Q1313.02 1513.66 1316.08 1518.27 Q1319.16 1522.85 1319.16 1531.6 Q1319.16 1540.33 1316.08 1544.94 Q1313.02 1549.52 1307.21 1549.52 Q1301.4 1549.52 1298.32 1544.94 Q1295.27 1540.33 1295.27 1531.6 Q1295.27 1522.85 1298.32 1518.27 Q1301.4 1513.66 1307.21 1513.66 Z" fill="#000000" fill-rule="nonzero" fill-opacity="1" /><path clip-path="url(#clip140)" d="M1743.28 1517.37 Q1739.67 1517.37 1737.84 1520.93 Q1736.03 1524.47 1736.03 1531.6 Q1736.03 1538.71 1737.84 1542.27 Q1739.67 1545.82 1743.28 1545.82 Q1746.91 1545.82 1748.72 1542.27 Q1750.55 1538.71 1750.55 1531.6 Q1750.55 1524.47 1748.72 1520.93 Q1746.91 1517.37 1743.28 1517.37 M1743.28 1513.66 Q1749.09 1513.66 1752.14 1518.27 Q1755.22 1522.85 1755.22 1531.6 Q1755.22 1540.33 1752.14 1544.94 Q1749.09 1549.52 1743.28 1549.52 Q1737.47 1549.52 1734.39 1544.94 Q1731.33 1540.33 1731.33 1531.6 Q1731.33 1522.85 1734.39 1518.27 Q1737.47 1513.66 1743.28 1513.66 Z" fill="#000000" fill-rule="nonzero" fill-opacity="1" /><path clip-path="url(#clip140)" d="M1763.44 1542.97 L1768.32 1542.97 L1768.32 1548.85 L1763.44 1548.85 L1763.44 1542.97 Z" fill="#000000" fill-rule="nonzero" fill-opacity="1" /><path clip-path="url(#clip140)" d="M1777.33 1514.29 L1799.55 1514.29 L1799.55 1516.28 L1787.01 1548.85 L1782.12 1548.85 L1793.93 1518.22 L1777.33 1518.22 L1777.33 1514.29 Z" fill="#000000" fill-rule="nonzero" fill-opacity="1" /><path clip-path="url(#clip140)" d="M1808.72 1514.29 L1827.07 1514.29 L1827.07 1518.22 L1813 1518.22 L1813 1526.7 Q1814.02 1526.35 1815.04 1526.19 Q1816.06 1526 1817.07 1526 Q1822.86 1526 1826.24 1529.17 Q1829.62 1532.34 1829.62 1537.76 Q1829.62 1543.34 1826.15 1546.44 Q1822.68 1549.52 1816.36 1549.52 Q1814.18 1549.52 1811.91 1549.15 Q1809.67 1548.78 1807.26 1548.04 L1807.26 1543.34 Q1809.34 1544.47 1811.57 1545.03 Q1813.79 1545.58 1816.26 1545.58 Q1820.27 1545.58 1822.61 1543.48 Q1824.95 1541.37 1824.95 1537.76 Q1824.95 1534.15 1822.61 1532.04 Q1820.27 1529.94 1816.26 1529.94 Q1814.39 1529.94 1812.51 1530.35 Q1810.66 1530.77 1808.72 1531.65 L1808.72 1514.29 Z" fill="#000000" fill-rule="nonzero" fill-opacity="1" /><path clip-path="url(#clip140)" d="M2243.51 1544.91 L2251.15 1544.91 L2251.15 1518.55 L2242.84 1520.21 L2242.84 1515.95 L2251.1 1514.29 L2255.78 1514.29 L2255.78 1544.91 L2263.42 1544.91 L2263.42 1548.85 L2243.51 1548.85 L2243.51 1544.91 Z" fill="#000000" fill-rule="nonzero" fill-opacity="1" /><path clip-path="url(#clip140)" d="M2272.86 1542.97 L2277.75 1542.97 L2277.75 1548.85 L2272.86 1548.85 L2272.86 1542.97 Z" fill="#000000" fill-rule="nonzero" fill-opacity="1" /><path clip-path="url(#clip140)" d="M2297.93 1517.37 Q2294.32 1517.37 2292.49 1520.93 Q2290.69 1524.47 2290.69 1531.6 Q2290.69 1538.71 2292.49 1542.27 Q2294.32 1545.82 2297.93 1545.82 Q2301.57 1545.82 2303.37 1542.27 Q2305.2 1538.71 2305.2 1531.6 Q2305.2 1524.47 2303.37 1520.93 Q2301.57 1517.37 2297.93 1517.37 M2297.93 1513.66 Q2303.74 1513.66 2306.8 1518.27 Q2309.88 1522.85 2309.88 1531.6 Q2309.88 1540.33 2306.8 1544.94 Q2303.74 1549.52 2297.93 1549.52 Q2292.12 1549.52 2289.04 1544.94 Q2285.99 1540.33 2285.99 1531.6 Q2285.99 1522.85 2289.04 1518.27 Q2292.12 1513.66 2297.93 1513.66 Z" fill="#000000" fill-rule="nonzero" fill-opacity="1" /><path clip-path="url(#clip140)" d="M2328.1 1517.37 Q2324.48 1517.37 2322.66 1520.93 Q2320.85 1524.47 2320.85 1531.6 Q2320.85 1538.71 2322.66 1542.27 Q2324.48 1545.82 2328.1 1545.82 Q2331.73 1545.82 2333.54 1542.27 Q2335.36 1538.71 2335.36 1531.6 Q2335.36 1524.47 2333.54 1520.93 Q2331.73 1517.37 2328.1 1517.37 M2328.1 1513.66 Q2333.91 1513.66 2336.96 1518.27 Q2340.04 1522.85 2340.04 1531.6 Q2340.04 1540.33 2336.96 1544.94 Q2333.91 1549.52 2328.1 1549.52 Q2322.29 1549.52 2319.21 1544.94 Q2316.15 1540.33 2316.15 1531.6 Q2316.15 1522.85 2319.21 1518.27 Q2322.29 1513.66 2328.1 1513.66 Z" fill="#000000" fill-rule="nonzero" fill-opacity="1" /><polyline clip-path="url(#clip140)" style="stroke:#000000; stroke-linecap:round; stroke-linejoin:round; stroke-width:4; stroke-opacity:1; fill:none" points="186.274,1486.45 186.274,47.2441 "/>
<polyline clip-path="url(#clip140)" style="stroke:#000000; stroke-linecap:round; stroke-linejoin:round; stroke-width:4; stroke-opacity:1; fill:none" points="186.274,1344.69 205.172,1344.69 "/>
<polyline clip-path="url(#clip140)" style="stroke:#000000; stroke-linecap:round; stroke-linejoin:round; stroke-width:4; stroke-opacity:1; fill:none" points="186.274,1008.63 205.172,1008.63 "/>
<polyline clip-path="url(#clip140)" style="stroke:#000000; stroke-linecap:round; stroke-linejoin:round; stroke-width:4; stroke-opacity:1; fill:none" points="186.274,672.573 205.172,672.573 "/>
<polyline clip-path="url(#clip140)" style="stroke:#000000; stroke-linecap:round; stroke-linejoin:round; stroke-width:4; stroke-opacity:1; fill:none" points="186.274,336.514 205.172,336.514 "/>
<path clip-path="url(#clip140)" d="M62.9365 1330.49 Q59.3254 1330.49 57.4967 1334.05 Q55.6912 1337.6 55.6912 1344.73 Q55.6912 1351.83 57.4967 1355.4 Q59.3254 1358.94 62.9365 1358.94 Q66.5707 1358.94 68.3763 1355.4 Q70.205 1351.83 70.205 1344.73 Q70.205 1337.6 68.3763 1334.05 Q66.5707 1330.49 62.9365 1330.49 M62.9365 1326.79 Q68.7467 1326.79 71.8022 1331.39 Q74.8809 1335.98 74.8809 1344.73 Q74.8809 1353.45 71.8022 1358.06 Q68.7467 1362.64 62.9365 1362.64 Q57.1264 1362.64 54.0477 1358.06 Q50.9921 1353.45 50.9921 1344.73 Q50.9921 1335.98 54.0477 1331.39 Q57.1264 1326.79 62.9365 1326.79 Z" fill="#000000" fill-rule="nonzero" fill-opacity="1" /><path clip-path="url(#clip140)" d="M83.0984 1356.09 L87.9827 1356.09 L87.9827 1361.97 L83.0984 1361.97 L83.0984 1356.09 Z" fill="#000000" fill-rule="nonzero" fill-opacity="1" /><path clip-path="url(#clip140)" d="M98.2141 1327.41 L116.57 1327.41 L116.57 1331.35 L102.496 1331.35 L102.496 1339.82 Q103.515 1339.47 104.534 1339.31 Q105.552 1339.12 106.571 1339.12 Q112.358 1339.12 115.737 1342.29 Q119.117 1345.47 119.117 1350.88 Q119.117 1356.46 115.645 1359.56 Q112.172 1362.64 105.853 1362.64 Q103.677 1362.64 101.409 1362.27 Q99.1632 1361.9 96.7558 1361.16 L96.7558 1356.46 Q98.8391 1357.6 101.061 1358.15 Q103.284 1358.71 105.76 1358.71 Q109.765 1358.71 112.103 1356.6 Q114.441 1354.49 114.441 1350.88 Q114.441 1347.27 112.103 1345.16 Q109.765 1343.06 105.76 1343.06 Q103.885 1343.06 102.01 1343.48 Q100.159 1343.89 98.2141 1344.77 L98.2141 1327.41 Z" fill="#000000" fill-rule="nonzero" fill-opacity="1" /><path clip-path="url(#clip140)" d="M138.33 1330.49 Q134.719 1330.49 132.89 1334.05 Q131.084 1337.6 131.084 1344.73 Q131.084 1351.83 132.89 1355.4 Q134.719 1358.94 138.33 1358.94 Q141.964 1358.94 143.769 1355.4 Q145.598 1351.83 145.598 1344.73 Q145.598 1337.6 143.769 1334.05 Q141.964 1330.49 138.33 1330.49 M138.33 1326.79 Q144.14 1326.79 147.195 1331.39 Q150.274 1335.98 150.274 1344.73 Q150.274 1353.45 147.195 1358.06 Q144.14 1362.64 138.33 1362.64 Q132.519 1362.64 129.441 1358.06 Q126.385 1353.45 126.385 1344.73 Q126.385 1335.98 129.441 1331.39 Q132.519 1326.79 138.33 1326.79 Z" fill="#000000" fill-rule="nonzero" fill-opacity="1" /><path clip-path="url(#clip140)" d="M63.9319 994.43 Q60.3208 994.43 58.4921 997.995 Q56.6865 1001.54 56.6865 1008.67 Q56.6865 1015.77 58.4921 1019.34 Q60.3208 1022.88 63.9319 1022.88 Q67.5661 1022.88 69.3717 1019.34 Q71.2004 1015.77 71.2004 1008.67 Q71.2004 1001.54 69.3717 997.995 Q67.5661 994.43 63.9319 994.43 M63.9319 990.727 Q69.742 990.727 72.7976 995.333 Q75.8763 999.917 75.8763 1008.67 Q75.8763 1017.39 72.7976 1022 Q69.742 1026.58 63.9319 1026.58 Q58.1217 1026.58 55.043 1022 Q51.9875 1017.39 51.9875 1008.67 Q51.9875 999.917 55.043 995.333 Q58.1217 990.727 63.9319 990.727 Z" fill="#000000" fill-rule="nonzero" fill-opacity="1" /><path clip-path="url(#clip140)" d="M84.0938 1020.03 L88.978 1020.03 L88.978 1025.91 L84.0938 1025.91 L84.0938 1020.03 Z" fill="#000000" fill-rule="nonzero" fill-opacity="1" /><path clip-path="url(#clip140)" d="M97.9826 991.352 L120.205 991.352 L120.205 993.343 L107.658 1025.91 L102.774 1025.91 L114.58 995.287 L97.9826 995.287 L97.9826 991.352 Z" fill="#000000" fill-rule="nonzero" fill-opacity="1" /><path clip-path="url(#clip140)" d="M129.371 991.352 L147.728 991.352 L147.728 995.287 L133.654 995.287 L133.654 1003.76 Q134.672 1003.41 135.691 1003.25 Q136.709 1003.06 137.728 1003.06 Q143.515 1003.06 146.894 1006.24 Q150.274 1009.41 150.274 1014.82 Q150.274 1020.4 146.802 1023.5 Q143.33 1026.58 137.01 1026.58 Q134.834 1026.58 132.566 1026.21 Q130.32 1025.84 127.913 1025.1 L127.913 1020.4 Q129.996 1021.54 132.219 1022.09 Q134.441 1022.65 136.918 1022.65 Q140.922 1022.65 143.26 1020.54 Q145.598 1018.43 145.598 1014.82 Q145.598 1011.21 143.26 1009.11 Q140.922 1007 136.918 1007 Q135.043 1007 133.168 1007.42 Q131.316 1007.83 129.371 1008.71 L129.371 991.352 Z" fill="#000000" fill-rule="nonzero" fill-opacity="1" /><path clip-path="url(#clip140)" d="M53.7467 685.918 L61.3856 685.918 L61.3856 659.552 L53.0754 661.219 L53.0754 656.96 L61.3393 655.293 L66.0152 655.293 L66.0152 685.918 L73.654 685.918 L73.654 689.853 L53.7467 689.853 L53.7467 685.918 Z" fill="#000000" fill-rule="nonzero" fill-opacity="1" /><path clip-path="url(#clip140)" d="M83.0984 683.974 L87.9827 683.974 L87.9827 689.853 L83.0984 689.853 L83.0984 683.974 Z" fill="#000000" fill-rule="nonzero" fill-opacity="1" /><path clip-path="url(#clip140)" d="M108.168 658.372 Q104.557 658.372 102.728 661.937 Q100.922 665.478 100.922 672.608 Q100.922 679.714 102.728 683.279 Q104.557 686.821 108.168 686.821 Q111.802 686.821 113.608 683.279 Q115.436 679.714 115.436 672.608 Q115.436 665.478 113.608 661.937 Q111.802 658.372 108.168 658.372 M108.168 654.668 Q113.978 654.668 117.033 659.275 Q120.112 663.858 120.112 672.608 Q120.112 681.335 117.033 685.941 Q113.978 690.524 108.168 690.524 Q102.358 690.524 99.2789 685.941 Q96.2234 681.335 96.2234 672.608 Q96.2234 663.858 99.2789 659.275 Q102.358 654.668 108.168 654.668 Z" fill="#000000" fill-rule="nonzero" fill-opacity="1" /><path clip-path="url(#clip140)" d="M138.33 658.372 Q134.719 658.372 132.89 661.937 Q131.084 665.478 131.084 672.608 Q131.084 679.714 132.89 683.279 Q134.719 686.821 138.33 686.821 Q141.964 686.821 143.769 683.279 Q145.598 679.714 145.598 672.608 Q145.598 665.478 143.769 661.937 Q141.964 658.372 138.33 658.372 M138.33 654.668 Q144.14 654.668 147.195 659.275 Q150.274 663.858 150.274 672.608 Q150.274 681.335 147.195 685.941 Q144.14 690.524 138.33 690.524 Q132.519 690.524 129.441 685.941 Q126.385 681.335 126.385 672.608 Q126.385 663.858 129.441 659.275 Q132.519 654.668 138.33 654.668 Z" fill="#000000" fill-rule="nonzero" fill-opacity="1" /><path clip-path="url(#clip140)" d="M54.7421 349.859 L62.381 349.859 L62.381 323.494 L54.0708 325.16 L54.0708 320.901 L62.3347 319.234 L67.0106 319.234 L67.0106 349.859 L74.6494 349.859 L74.6494 353.794 L54.7421 353.794 L54.7421 349.859 Z" fill="#000000" fill-rule="nonzero" fill-opacity="1" /><path clip-path="url(#clip140)" d="M84.0938 347.915 L88.978 347.915 L88.978 353.794 L84.0938 353.794 L84.0938 347.915 Z" fill="#000000" fill-rule="nonzero" fill-opacity="1" /><path clip-path="url(#clip140)" d="M103.191 349.859 L119.51 349.859 L119.51 353.794 L97.566 353.794 L97.566 349.859 Q100.228 347.105 104.811 342.475 Q109.418 337.822 110.598 336.48 Q112.844 333.957 113.723 332.221 Q114.626 330.461 114.626 328.771 Q114.626 326.017 112.682 324.281 Q110.76 322.545 107.658 322.545 Q105.459 322.545 103.006 323.309 Q100.575 324.072 97.7974 325.623 L97.7974 320.901 Q100.621 319.767 103.075 319.188 Q105.529 318.609 107.566 318.609 Q112.936 318.609 116.131 321.295 Q119.325 323.98 119.325 328.471 Q119.325 330.6 118.515 332.521 Q117.728 334.42 115.621 337.012 Q115.043 337.683 111.941 340.901 Q108.839 344.095 103.191 349.859 Z" fill="#000000" fill-rule="nonzero" fill-opacity="1" /><path clip-path="url(#clip140)" d="M129.371 319.234 L147.728 319.234 L147.728 323.17 L133.654 323.17 L133.654 331.642 Q134.672 331.295 135.691 331.133 Q136.709 330.947 137.728 330.947 Q143.515 330.947 146.894 334.119 Q150.274 337.29 150.274 342.707 Q150.274 348.285 146.802 351.387 Q143.33 354.466 137.01 354.466 Q134.834 354.466 132.566 354.095 Q130.32 353.725 127.913 352.984 L127.913 348.285 Q129.996 349.419 132.219 349.975 Q134.441 350.531 136.918 350.531 Q140.922 350.531 143.26 348.424 Q145.598 346.318 145.598 342.707 Q145.598 339.095 143.26 336.989 Q140.922 334.883 136.918 334.883 Q135.043 334.883 133.168 335.299 Q131.316 335.716 129.371 336.595 L129.371 319.234 Z" fill="#000000" fill-rule="nonzero" fill-opacity="1" /><polyline clip-path="url(#clip142)" style="stroke:#009af9; stroke-linecap:round; stroke-linejoin:round; stroke-width:12; stroke-opacity:1; fill:none" points="247.59,1344.69 451.975,1271.09 656.36,1270.76 860.745,1134.13 1065.13,1066.75 1269.51,762.935 1473.9,739.775 1678.29,689.179 1882.67,546.033 2087.06,421.24 2291.44,87.9763 "/>
<polyline clip-path="url(#clip142)" style="stroke:#e26f46; stroke-linecap:round; stroke-linejoin:round; stroke-width:12; stroke-opacity:1; fill:none" points="247.59,1344.69 451.975,1311.96 656.36,1277.87 860.745,1228.37 1065.13,1138.97 1269.51,910.081 1473.9,770.42 1678.29,618.891 1882.67,587.072 2087.06,802.386 2291.44,492.333 "/>
<polyline clip-path="url(#clip142)" style="stroke:#3da44d; stroke-linecap:round; stroke-linejoin:round; stroke-width:12; stroke-opacity:1; fill:none" points="247.59,1344.69 451.975,1281.6 656.36,1234.45 860.745,1210.95 1065.13,1191.06 1269.51,1232.96 1473.9,1079.98 1678.29,829.91 1882.67,592.901 2087.06,557.212 2291.44,620.019 "/>
<polyline clip-path="url(#clip142)" style="stroke:#c271d2; stroke-linecap:round; stroke-linejoin:round; stroke-width:12; stroke-opacity:1; fill:none" points="247.59,1344.69 451.975,1369.5 656.36,1445.72 860.745,1347.5 1065.13,1255.93 1269.51,1267.55 1473.9,1135.79 1678.29,991.538 1882.67,880.288 2087.06,875.871 2291.44,964.191 "/>
<polyline clip-path="url(#clip142)" style="stroke:#ac8d18; stroke-linecap:round; stroke-linejoin:round; stroke-width:12; stroke-opacity:1; fill:none" points="247.59,1344.69 451.975,1302.8 656.36,1265.64 860.745,1222.71 1065.13,1139.89 1269.51,961.457 1473.9,979.106 1678.29,819.665 1882.67,730.734 2087.06,732.838 2291.44,549.854 "/>
<polyline clip-path="url(#clip142)" style="stroke:#00a9ad; stroke-linecap:round; stroke-linejoin:round; stroke-width:12; stroke-opacity:1; fill:none" points="247.59,1344.69 451.975,1284.45 656.36,1145.92 860.745,1025.56 1065.13,943.614 1269.51,1094.01 1473.9,1052.06 1678.29,947.474 1882.67,916.185 2087.06,931.704 2291.44,688.673 "/>
<polyline clip-path="url(#clip142)" style="stroke:#ed5d92; stroke-linecap:round; stroke-linejoin:round; stroke-width:12; stroke-opacity:1; fill:none" points="247.59,1344.69 451.975,1365.66 656.36,1336.78 860.745,1264.63 1065.13,1100.63 1269.51,1131.83 1473.9,1020.65 1678.29,863.395 1882.67,621.322 2087.06,469.289 2291.44,551.226 "/>
<polyline clip-path="url(#clip142)" style="stroke:#c68125; stroke-linecap:round; stroke-linejoin:round; stroke-width:12; stroke-opacity:1; fill:none" points="247.59,1344.69 451.975,1300.54 656.36,1235.27 860.745,1149.16 1065.13,1028.39 1269.51,978.913 1473.9,648.017 1678.29,639.512 1882.67,709.363 2087.06,740.176 2291.44,631.904 "/>
</svg>
