<?xml version="1.0" encoding="utf-8"?>
<svg xmlns="http://www.w3.org/2000/svg" xmlns:xlink="http://www.w3.org/1999/xlink" width="600" height="400" viewBox="0 0 2400 1600">
<defs>
  <clipPath id="clip590">
    <rect x="0" y="0" width="2400" height="1600"/>
  </clipPath>
</defs>
<path clip-path="url(#clip590)" d="M0 1600 L2400 1600 L2400 0 L0 0  Z" fill="#ffffff" fill-rule="evenodd" fill-opacity="1"/>
<defs>
  <clipPath id="clip591">
    <rect x="186" y="47" width="2167" height="1440"/>
  </clipPath>
</defs>
<path clip-path="url(#clip590)" d="M186.274 1486.45 L2352.76 1486.45 L2352.76 47.2441 L186.274 47.2441  Z" fill="#ffffff" fill-rule="evenodd" fill-opacity="1"/>
<polyline clip-path="url(#clip591)" style="stroke:#000000; stroke-linecap:round; stroke-linejoin:round; stroke-width:2; stroke-opacity:0.1; fill:none" points="247.59,1486.45 247.59,47.2441 "/>
<polyline clip-path="url(#clip591)" style="stroke:#000000; stroke-linecap:round; stroke-linejoin:round; stroke-width:2; stroke-opacity:0.1; fill:none" points="758.552,1486.45 758.552,47.2441 "/>
<polyline clip-path="url(#clip591)" style="stroke:#000000; stroke-linecap:round; stroke-linejoin:round; stroke-width:2; stroke-opacity:0.1; fill:none" points="1269.51,1486.45 1269.51,47.2441 "/>
<polyline clip-path="url(#clip591)" style="stroke:#000000; stroke-linecap:round; stroke-linejoin:round; stroke-width:2; stroke-opacity:0.1; fill:none" points="1780.48,1486.45 1780.48,47.2441 "/>
<polyline clip-path="url(#clip591)" style="stroke:#000000; stroke-linecap:round; stroke-linejoin:round; stroke-width:2; stroke-opacity:0.1; fill:none" points="2291.44,1486.45 2291.44,47.2441 "/>
<polyline clip-path="url(#clip591)" style="stroke:#000000; stroke-linecap:round; stroke-linejoin:round; stroke-width:2; stroke-opacity:0.1; fill:none" points="186.274,1350.53 2352.76,1350.53 "/>
<polyline clip-path="url(#clip591)" style="stroke:#000000; stroke-linecap:round; stroke-linejoin:round; stroke-width:2; stroke-opacity:0.1; fill:none" points="186.274,1070.22 2352.76,1070.22 "/>
<polyline clip-path="url(#clip591)" style="stroke:#000000; stroke-linecap:round; stroke-linejoin:round; stroke-width:2; stroke-opacity:0.1; fill:none" points="186.274,789.904 2352.76,789.904 "/>
<polyline clip-path="url(#clip591)" style="stroke:#000000; stroke-linecap:round; stroke-linejoin:round; stroke-width:2; stroke-opacity:0.1; fill:none" points="186.274,509.589 2352.76,509.589 "/>
<polyline clip-path="url(#clip591)" style="stroke:#000000; stroke-linecap:round; stroke-linejoin:round; stroke-width:2; stroke-opacity:0.1; fill:none" points="186.274,229.274 2352.76,229.274 "/>
<polyline clip-path="url(#clip590)" style="stroke:#000000; stroke-linecap:round; stroke-linejoin:round; stroke-width:4; stroke-opacity:1; fill:none" points="186.274,1486.45 2352.76,1486.45 "/>
<polyline clip-path="url(#clip590)" style="stroke:#000000; stroke-linecap:round; stroke-linejoin:round; stroke-width:4; stroke-opacity:1; fill:none" points="247.59,1486.45 247.59,1467.55 "/>
<polyline clip-path="url(#clip590)" style="stroke:#000000; stroke-linecap:round; stroke-linejoin:round; stroke-width:4; stroke-opacity:1; fill:none" points="758.552,1486.45 758.552,1467.55 "/>
<polyline clip-path="url(#clip590)" style="stroke:#000000; stroke-linecap:round; stroke-linejoin:round; stroke-width:4; stroke-opacity:1; fill:none" points="1269.51,1486.45 1269.51,1467.55 "/>
<polyline clip-path="url(#clip590)" style="stroke:#000000; stroke-linecap:round; stroke-linejoin:round; stroke-width:4; stroke-opacity:1; fill:none" points="1780.48,1486.45 1780.48,1467.55 "/>
<polyline clip-path="url(#clip590)" style="stroke:#000000; stroke-linecap:round; stroke-linejoin:round; stroke-width:4; stroke-opacity:1; fill:none" points="2291.44,1486.45 2291.44,1467.55 "/>
<path clip-path="url(#clip590)" d="M209.893 1517.37 Q206.282 1517.37 204.453 1520.93 Q202.648 1524.47 202.648 1531.6 Q202.648 1538.71 204.453 1542.27 Q206.282 1545.82 209.893 1545.82 Q213.527 1545.82 215.333 1542.27 Q217.161 1538.71 217.161 1531.6 Q217.161 1524.47 215.333 1520.93 Q213.527 1517.37 209.893 1517.37 M209.893 1513.66 Q215.703 1513.66 218.759 1518.27 Q221.837 1522.85 221.837 1531.6 Q221.837 1540.33 218.759 1544.94 Q215.703 1549.52 209.893 1549.52 Q204.083 1549.52 201.004 1544.94 Q197.949 1540.33 197.949 1531.6 Q197.949 1522.85 201.004 1518.27 Q204.083 1513.66 209.893 1513.66 Z" fill="#000000" fill-rule="nonzero" fill-opacity="1" /><path clip-path="url(#clip590)" d="M230.055 1542.97 L234.939 1542.97 L234.939 1548.85 L230.055 1548.85 L230.055 1542.97 Z" fill="#000000" fill-rule="nonzero" fill-opacity="1" /><path clip-path="url(#clip590)" d="M255.124 1517.37 Q251.513 1517.37 249.684 1520.93 Q247.879 1524.47 247.879 1531.6 Q247.879 1538.71 249.684 1542.27 Q251.513 1545.82 255.124 1545.82 Q258.758 1545.82 260.564 1542.27 Q262.393 1538.71 262.393 1531.6 Q262.393 1524.47 260.564 1520.93 Q258.758 1517.37 255.124 1517.37 M255.124 1513.66 Q260.934 1513.66 263.99 1518.27 Q267.069 1522.85 267.069 1531.6 Q267.069 1540.33 263.99 1544.94 Q260.934 1549.52 255.124 1549.52 Q249.314 1549.52 246.235 1544.94 Q243.18 1540.33 243.18 1531.6 Q243.18 1522.85 246.235 1518.27 Q249.314 1513.66 255.124 1513.66 Z" fill="#000000" fill-rule="nonzero" fill-opacity="1" /><path clip-path="url(#clip590)" d="M285.286 1517.37 Q281.675 1517.37 279.846 1520.93 Q278.041 1524.47 278.041 1531.6 Q278.041 1538.71 279.846 1542.27 Q281.675 1545.82 285.286 1545.82 Q288.92 1545.82 290.726 1542.27 Q292.555 1538.71 292.555 1531.6 Q292.555 1524.47 290.726 1520.93 Q288.92 1517.37 285.286 1517.37 M285.286 1513.66 Q291.096 1513.66 294.152 1518.27 Q297.23 1522.85 297.23 1531.6 Q297.23 1540.33 294.152 1544.94 Q291.096 1549.52 285.286 1549.52 Q279.476 1549.52 276.397 1544.94 Q273.342 1540.33 273.342 1531.6 Q273.342 1522.85 276.397 1518.27 Q279.476 1513.66 285.286 1513.66 Z" fill="#000000" fill-rule="nonzero" fill-opacity="1" /><path clip-path="url(#clip590)" d="M721.353 1517.37 Q717.742 1517.37 715.914 1520.93 Q714.108 1524.47 714.108 1531.6 Q714.108 1538.71 715.914 1542.27 Q717.742 1545.82 721.353 1545.82 Q724.988 1545.82 726.793 1542.27 Q728.622 1538.71 728.622 1531.6 Q728.622 1524.47 726.793 1520.93 Q724.988 1517.37 721.353 1517.37 M721.353 1513.66 Q727.164 1513.66 730.219 1518.27 Q733.298 1522.85 733.298 1531.6 Q733.298 1540.33 730.219 1544.94 Q727.164 1549.52 721.353 1549.52 Q715.543 1549.52 712.465 1544.94 Q709.409 1540.33 709.409 1531.6 Q709.409 1522.85 712.465 1518.27 Q715.543 1513.66 721.353 1513.66 Z" fill="#000000" fill-rule="nonzero" fill-opacity="1" /><path clip-path="url(#clip590)" d="M741.515 1542.97 L746.4 1542.97 L746.4 1548.85 L741.515 1548.85 L741.515 1542.97 Z" fill="#000000" fill-rule="nonzero" fill-opacity="1" /><path clip-path="url(#clip590)" d="M760.612 1544.91 L776.932 1544.91 L776.932 1548.85 L754.987 1548.85 L754.987 1544.91 Q757.649 1542.16 762.233 1537.53 Q766.839 1532.88 768.02 1531.53 Q770.265 1529.01 771.145 1527.27 Q772.048 1525.51 772.048 1523.82 Q772.048 1521.07 770.103 1519.33 Q768.182 1517.6 765.08 1517.6 Q762.881 1517.6 760.427 1518.36 Q757.997 1519.13 755.219 1520.68 L755.219 1515.95 Q758.043 1514.82 760.497 1514.24 Q762.95 1513.66 764.987 1513.66 Q770.358 1513.66 773.552 1516.35 Q776.747 1519.03 776.747 1523.52 Q776.747 1525.65 775.936 1527.57 Q775.149 1529.47 773.043 1532.07 Q772.464 1532.74 769.362 1535.95 Q766.261 1539.15 760.612 1544.91 Z" fill="#000000" fill-rule="nonzero" fill-opacity="1" /><path clip-path="url(#clip590)" d="M786.793 1514.29 L805.149 1514.29 L805.149 1518.22 L791.075 1518.22 L791.075 1526.7 Q792.094 1526.35 793.112 1526.19 Q794.131 1526 795.149 1526 Q800.936 1526 804.316 1529.17 Q807.695 1532.34 807.695 1537.76 Q807.695 1543.34 804.223 1546.44 Q800.751 1549.52 794.432 1549.52 Q792.256 1549.52 789.987 1549.15 Q787.742 1548.78 785.335 1548.04 L785.335 1543.34 Q787.418 1544.47 789.64 1545.03 Q791.862 1545.58 794.339 1545.58 Q798.344 1545.58 800.682 1543.48 Q803.02 1541.37 803.02 1537.76 Q803.02 1534.15 800.682 1532.04 Q798.344 1529.94 794.339 1529.94 Q792.464 1529.94 790.589 1530.35 Q788.737 1530.77 786.793 1531.65 L786.793 1514.29 Z" fill="#000000" fill-rule="nonzero" fill-opacity="1" /><path clip-path="url(#clip590)" d="M1231.82 1517.37 Q1228.21 1517.37 1226.38 1520.93 Q1224.57 1524.47 1224.57 1531.6 Q1224.57 1538.71 1226.38 1542.27 Q1228.21 1545.82 1231.82 1545.82 Q1235.45 1545.82 1237.26 1542.27 Q1239.09 1538.71 1239.09 1531.6 Q1239.09 1524.47 1237.26 1520.93 Q1235.45 1517.37 1231.82 1517.37 M1231.82 1513.66 Q1237.63 1513.66 1240.68 1518.27 Q1243.76 1522.85 1243.76 1531.6 Q1243.76 1540.33 1240.68 1544.94 Q1237.63 1549.52 1231.82 1549.52 Q1226.01 1549.52 1222.93 1544.94 Q1219.87 1540.33 1219.87 1531.6 Q1219.87 1522.85 1222.93 1518.27 Q1226.01 1513.66 1231.82 1513.66 Z" fill="#000000" fill-rule="nonzero" fill-opacity="1" /><path clip-path="url(#clip590)" d="M1251.98 1542.97 L1256.86 1542.97 L1256.86 1548.85 L1251.98 1548.85 L1251.98 1542.97 Z" fill="#000000" fill-rule="nonzero" fill-opacity="1" /><path clip-path="url(#clip590)" d="M1267.1 1514.29 L1285.45 1514.29 L1285.45 1518.22 L1271.38 1518.22 L1271.38 1526.7 Q1272.4 1526.35 1273.42 1526.19 Q1274.43 1526 1275.45 1526 Q1281.24 1526 1284.62 1529.17 Q1288 1532.34 1288 1537.76 Q1288 1543.34 1284.53 1546.44 Q1281.05 1549.52 1274.73 1549.52 Q1272.56 1549.52 1270.29 1549.15 Q1268.05 1548.78 1265.64 1548.04 L1265.64 1543.34 Q1267.72 1544.47 1269.94 1545.03 Q1272.17 1545.58 1274.64 1545.58 Q1278.65 1545.58 1280.98 1543.48 Q1283.32 1541.37 1283.32 1537.76 Q1283.32 1534.15 1280.98 1532.04 Q1278.65 1529.94 1274.64 1529.94 Q1272.77 1529.94 1270.89 1530.35 Q1269.04 1530.77 1267.1 1531.65 L1267.1 1514.29 Z" fill="#000000" fill-rule="nonzero" fill-opacity="1" /><path clip-path="url(#clip590)" d="M1307.21 1517.37 Q1303.6 1517.37 1301.77 1520.93 Q1299.97 1524.47 1299.97 1531.6 Q1299.97 1538.71 1301.77 1542.27 Q1303.6 1545.82 1307.21 1545.82 Q1310.85 1545.82 1312.65 1542.27 Q1314.48 1538.71 1314.48 1531.6 Q1314.48 1524.47 1312.65 1520.93 Q1310.85 1517.37 1307.21 1517.37 M1307.21 1513.66 Q1313.02 1513.66 1316.08 1518.27 Q1319.16 1522.85 1319.16 1531.6 Q1319.16 1540.33 1316.08 1544.94 Q1313.02 1549.52 1307.21 1549.52 Q1301.4 1549.52 1298.32 1544.94 Q1295.27 1540.33 1295.27 1531.6 Q1295.27 1522.85 1298.32 1518.27 Q1301.4 1513.66 1307.21 1513.66 Z" fill="#000000" fill-rule="nonzero" fill-opacity="1" /><path clip-path="url(#clip590)" d="M1743.28 1517.37 Q1739.67 1517.37 1737.84 1520.93 Q1736.03 1524.47 1736.03 1531.6 Q1736.03 1538.71 1737.84 1542.27 Q1739.67 1545.82 1743.28 1545.82 Q1746.91 1545.82 1748.72 1542.27 Q1750.55 1538.71 1750.55 1531.6 Q1750.55 1524.47 1748.72 1520.93 Q1746.91 1517.37 1743.28 1517.37 M1743.28 1513.66 Q1749.09 1513.66 1752.14 1518.27 Q1755.22 1522.85 1755.22 1531.6 Q1755.22 1540.33 1752.14 1544.94 Q1749.09 1549.52 1743.28 1549.52 Q1737.47 1549.52 1734.39 1544.94 Q1731.33 1540.33 1731.33 1531.6 Q1731.33 1522.85 1734.39 1518.27 Q1737.47 1513.66 1743.28 1513.66 Z" fill="#000000" fill-rule="nonzero" fill-opacity="1" /><path clip-path="url(#clip590)" d="M1763.44 1542.97 L1768.32 1542.97 L1768.32 1548.85 L1763.44 1548.85 L1763.44 1542.97 Z" fill="#000000" fill-rule="nonzero" fill-opacity="1" /><path clip-path="url(#clip590)" d="M1777.33 1514.29 L1799.55 1514.29 L1799.55 1516.28 L1787.01 1548.85 L1782.12 1548.85 L1793.93 1518.22 L1777.33 1518.22 L1777.33 1514.29 Z" fill="#000000" fill-rule="nonzero" fill-opacity="1" /><path clip-path="url(#clip590)" d="M1808.72 1514.29 L1827.07 1514.29 L1827.07 1518.22 L1813 1518.22 L1813 1526.7 Q1814.02 1526.35 1815.04 1526.19 Q1816.06 1526 1817.07 1526 Q1822.86 1526 1826.24 1529.17 Q1829.62 1532.34 1829.62 1537.76 Q1829.62 1543.34 1826.15 1546.44 Q1822.68 1549.52 1816.36 1549.52 Q1814.18 1549.52 1811.91 1549.15 Q1809.67 1548.78 1807.26 1548.04 L1807.26 1543.34 Q1809.34 1544.47 1811.57 1545.03 Q1813.79 1545.58 1816.26 1545.58 Q1820.27 1545.58 1822.61 1543.48 Q1824.95 1541.37 1824.95 1537.76 Q1824.95 1534.15 1822.61 1532.04 Q1820.27 1529.94 1816.26 1529.94 Q1814.39 1529.94 1812.51 1530.35 Q1810.66 1530.77 1808.72 1531.65 L1808.72 1514.29 Z" fill="#000000" fill-rule="nonzero" fill-opacity="1" /><path clip-path="url(#clip590)" d="M2243.51 1544.91 L2251.15 1544.91 L2251.15 1518.55 L2242.84 1520.21 L2242.84 1515.95 L2251.1 1514.29 L2255.78 1514.29 L2255.78 1544.91 L2263.42 1544.91 L2263.42 1548.85 L2243.51 1548.85 L2243.51 1544.91 Z" fill="#000000" fill-rule="nonzero" fill-opacity="1" /><path clip-path="url(#clip590)" d="M2272.86 1542.97 L2277.75 1542.97 L2277.75 1548.85 L2272.86 1548.85 L2272.86 1542.97 Z" fill="#000000" fill-rule="nonzero" fill-opacity="1" /><path clip-path="url(#clip590)" d="M2297.93 1517.37 Q2294.32 1517.37 2292.49 1520.93 Q2290.69 1524.47 2290.69 1531.6 Q2290.69 1538.71 2292.49 1542.27 Q2294.32 1545.82 2297.93 1545.82 Q2301.57 1545.82 2303.37 1542.27 Q2305.2 1538.71 2305.2 1531.6 Q2305.2 1524.47 2303.37 1520.93 Q2301.57 1517.37 2297.93 1517.37 M2297.93 1513.66 Q2303.74 1513.66 2306.8 1518.27 Q2309.88 1522.85 2309.88 1531.6 Q2309.88 1540.33 2306.8 1544.94 Q2303.74 1549.52 2297.93 1549.52 Q2292.12 1549.52 2289.04 1544.94 Q2285.99 1540.33 2285.99 1531.6 Q2285.99 1522.85 2289.04 1518.27 Q2292.12 1513.66 2297.93 1513.66 Z" fill="#000000" fill-rule="nonzero" fill-opacity="1" /><path clip-path="url(#clip590)" d="M2328.1 1517.37 Q2324.48 1517.37 2322.66 1520.93 Q2320.85 1524.47 2320.85 1531.6 Q2320.85 1538.71 2322.66 1542.27 Q2324.48 1545.82 2328.1 1545.82 Q2331.73 1545.82 2333.54 1542.27 Q2335.36 1538.71 2335.36 1531.6 Q2335.36 1524.47 2333.54 1520.93 Q2331.73 1517.37 2328.1 1517.37 M2328.1 1513.66 Q2333.91 1513.66 2336.96 1518.27 Q2340.04 1522.85 2340.04 1531.6 Q2340.04 1540.33 2336.96 1544.94 Q2333.91 1549.52 2328.1 1549.52 Q2322.29 1549.52 2319.21 1544.94 Q2316.15 1540.33 2316.15 1531.6 Q2316.15 1522.85 2319.21 1518.27 Q2322.29 1513.66 2328.1 1513.66 Z" fill="#000000" fill-rule="nonzero" fill-opacity="1" /><polyline clip-path="url(#clip590)" style="stroke:#000000; stroke-linecap:round; stroke-linejoin:round; stroke-width:4; stroke-opacity:1; fill:none" points="186.274,1486.45 186.274,47.2441 "/>
<polyline clip-path="url(#clip590)" style="stroke:#000000; stroke-linecap:round; stroke-linejoin:round; stroke-width:4; stroke-opacity:1; fill:none" points="186.274,1350.53 205.172,1350.53 "/>
<polyline clip-path="url(#clip590)" style="stroke:#000000; stroke-linecap:round; stroke-linejoin:round; stroke-width:4; stroke-opacity:1; fill:none" points="186.274,1070.22 205.172,1070.22 "/>
<polyline clip-path="url(#clip590)" style="stroke:#000000; stroke-linecap:round; stroke-linejoin:round; stroke-width:4; stroke-opacity:1; fill:none" points="186.274,789.904 205.172,789.904 "/>
<polyline clip-path="url(#clip590)" style="stroke:#000000; stroke-linecap:round; stroke-linejoin:round; stroke-width:4; stroke-opacity:1; fill:none" points="186.274,509.589 205.172,509.589 "/>
<polyline clip-path="url(#clip590)" style="stroke:#000000; stroke-linecap:round; stroke-linejoin:round; stroke-width:4; stroke-opacity:1; fill:none" points="186.274,229.274 205.172,229.274 "/>
<path clip-path="url(#clip590)" d="M62.9365 1336.33 Q59.3254 1336.33 57.4967 1339.9 Q55.6912 1343.44 55.6912 1350.57 Q55.6912 1357.68 57.4967 1361.24 Q59.3254 1364.78 62.9365 1364.78 Q66.5707 1364.78 68.3763 1361.24 Q70.205 1357.68 70.205 1350.57 Q70.205 1343.44 68.3763 1339.9 Q66.5707 1336.33 62.9365 1336.33 M62.9365 1332.63 Q68.7467 1332.63 71.8022 1337.24 Q74.8809 1341.82 74.8809 1350.57 Q74.8809 1359.3 71.8022 1363.9 Q68.7467 1368.49 62.9365 1368.49 Q57.1264 1368.49 54.0477 1363.9 Q50.9921 1359.3 50.9921 1350.57 Q50.9921 1341.82 54.0477 1337.24 Q57.1264 1332.63 62.9365 1332.63 Z" fill="#000000" fill-rule="nonzero" fill-opacity="1" /><path clip-path="url(#clip590)" d="M83.0984 1361.93 L87.9827 1361.93 L87.9827 1367.81 L83.0984 1367.81 L83.0984 1361.93 Z" fill="#000000" fill-rule="nonzero" fill-opacity="1" /><path clip-path="url(#clip590)" d="M98.2141 1333.25 L116.57 1333.25 L116.57 1337.19 L102.496 1337.19 L102.496 1345.66 Q103.515 1345.31 104.534 1345.15 Q105.552 1344.97 106.571 1344.97 Q112.358 1344.97 115.737 1348.14 Q119.117 1351.31 119.117 1356.73 Q119.117 1362.31 115.645 1365.41 Q112.172 1368.49 105.853 1368.49 Q103.677 1368.49 101.409 1368.12 Q99.1632 1367.75 96.7558 1367 L96.7558 1362.31 Q98.8391 1363.44 101.061 1364 Q103.284 1364.55 105.76 1364.55 Q109.765 1364.55 112.103 1362.44 Q114.441 1360.34 114.441 1356.73 Q114.441 1353.12 112.103 1351.01 Q109.765 1348.9 105.76 1348.9 Q103.885 1348.9 102.01 1349.32 Q100.159 1349.74 98.2141 1350.62 L98.2141 1333.25 Z" fill="#000000" fill-rule="nonzero" fill-opacity="1" /><path clip-path="url(#clip590)" d="M138.33 1336.33 Q134.719 1336.33 132.89 1339.9 Q131.084 1343.44 131.084 1350.57 Q131.084 1357.68 132.89 1361.24 Q134.719 1364.78 138.33 1364.78 Q141.964 1364.78 143.769 1361.24 Q145.598 1357.68 145.598 1350.57 Q145.598 1343.44 143.769 1339.9 Q141.964 1336.33 138.33 1336.33 M138.33 1332.63 Q144.14 1332.63 147.195 1337.24 Q150.274 1341.82 150.274 1350.57 Q150.274 1359.3 147.195 1363.9 Q144.14 1368.49 138.33 1368.49 Q132.519 1368.49 129.441 1363.9 Q126.385 1359.3 126.385 1350.57 Q126.385 1341.82 129.441 1337.24 Q132.519 1332.63 138.33 1332.63 Z" fill="#000000" fill-rule="nonzero" fill-opacity="1" /><path clip-path="url(#clip590)" d="M63.9319 1056.02 Q60.3208 1056.02 58.4921 1059.58 Q56.6865 1063.12 56.6865 1070.25 Q56.6865 1077.36 58.4921 1080.93 Q60.3208 1084.47 63.9319 1084.47 Q67.5661 1084.47 69.3717 1080.93 Q71.2004 1077.36 71.2004 1070.25 Q71.2004 1063.12 69.3717 1059.58 Q67.5661 1056.02 63.9319 1056.02 M63.9319 1052.31 Q69.742 1052.31 72.7976 1056.92 Q75.8763 1061.5 75.8763 1070.25 Q75.8763 1078.98 72.7976 1083.59 Q69.742 1088.17 63.9319 1088.17 Q58.1217 1088.17 55.043 1083.59 Q51.9875 1078.98 51.9875 1070.25 Q51.9875 1061.5 55.043 1056.92 Q58.1217 1052.31 63.9319 1052.31 Z" fill="#000000" fill-rule="nonzero" fill-opacity="1" /><path clip-path="url(#clip590)" d="M84.0938 1081.62 L88.978 1081.62 L88.978 1087.5 L84.0938 1087.5 L84.0938 1081.62 Z" fill="#000000" fill-rule="nonzero" fill-opacity="1" /><path clip-path="url(#clip590)" d="M97.9826 1052.94 L120.205 1052.94 L120.205 1054.93 L107.658 1087.5 L102.774 1087.5 L114.58 1056.87 L97.9826 1056.87 L97.9826 1052.94 Z" fill="#000000" fill-rule="nonzero" fill-opacity="1" /><path clip-path="url(#clip590)" d="M129.371 1052.94 L147.728 1052.94 L147.728 1056.87 L133.654 1056.87 L133.654 1065.35 Q134.672 1065 135.691 1064.84 Q136.709 1064.65 137.728 1064.65 Q143.515 1064.65 146.894 1067.82 Q150.274 1070.99 150.274 1076.41 Q150.274 1081.99 146.802 1085.09 Q143.33 1088.17 137.01 1088.17 Q134.834 1088.17 132.566 1087.8 Q130.32 1087.43 127.913 1086.69 L127.913 1081.99 Q129.996 1083.12 132.219 1083.68 Q134.441 1084.24 136.918 1084.24 Q140.922 1084.24 143.26 1082.13 Q145.598 1080.02 145.598 1076.41 Q145.598 1072.8 143.26 1070.69 Q140.922 1068.59 136.918 1068.59 Q135.043 1068.59 133.168 1069 Q131.316 1069.42 129.371 1070.3 L129.371 1052.94 Z" fill="#000000" fill-rule="nonzero" fill-opacity="1" /><path clip-path="url(#clip590)" d="M53.7467 803.249 L61.3856 803.249 L61.3856 776.883 L53.0754 778.55 L53.0754 774.291 L61.3393 772.624 L66.0152 772.624 L66.0152 803.249 L73.654 803.249 L73.654 807.184 L53.7467 807.184 L53.7467 803.249 Z" fill="#000000" fill-rule="nonzero" fill-opacity="1" /><path clip-path="url(#clip590)" d="M83.0984 801.305 L87.9827 801.305 L87.9827 807.184 L83.0984 807.184 L83.0984 801.305 Z" fill="#000000" fill-rule="nonzero" fill-opacity="1" /><path clip-path="url(#clip590)" d="M108.168 775.703 Q104.557 775.703 102.728 779.268 Q100.922 782.809 100.922 789.939 Q100.922 797.045 102.728 800.61 Q104.557 804.152 108.168 804.152 Q111.802 804.152 113.608 800.61 Q115.436 797.045 115.436 789.939 Q115.436 782.809 113.608 779.268 Q111.802 775.703 108.168 775.703 M108.168 771.999 Q113.978 771.999 117.033 776.606 Q120.112 781.189 120.112 789.939 Q120.112 798.666 117.033 803.272 Q113.978 807.856 108.168 807.856 Q102.358 807.856 99.2789 803.272 Q96.2234 798.666 96.2234 789.939 Q96.2234 781.189 99.2789 776.606 Q102.358 771.999 108.168 771.999 Z" fill="#000000" fill-rule="nonzero" fill-opacity="1" /><path clip-path="url(#clip590)" d="M138.33 775.703 Q134.719 775.703 132.89 779.268 Q131.084 782.809 131.084 789.939 Q131.084 797.045 132.89 800.61 Q134.719 804.152 138.33 804.152 Q141.964 804.152 143.769 800.61 Q145.598 797.045 145.598 789.939 Q145.598 782.809 143.769 779.268 Q141.964 775.703 138.33 775.703 M138.33 771.999 Q144.14 771.999 147.195 776.606 Q150.274 781.189 150.274 789.939 Q150.274 798.666 147.195 803.272 Q144.14 807.856 138.33 807.856 Q132.519 807.856 129.441 803.272 Q126.385 798.666 126.385 789.939 Q126.385 781.189 129.441 776.606 Q132.519 771.999 138.33 771.999 Z" fill="#000000" fill-rule="nonzero" fill-opacity="1" /><path clip-path="url(#clip590)" d="M54.7421 522.934 L62.381 522.934 L62.381 496.568 L54.0708 498.235 L54.0708 493.976 L62.3347 492.309 L67.0106 492.309 L67.0106 522.934 L74.6494 522.934 L74.6494 526.869 L54.7421 526.869 L54.7421 522.934 Z" fill="#000000" fill-rule="nonzero" fill-opacity="1" /><path clip-path="url(#clip590)" d="M84.0938 520.99 L88.978 520.99 L88.978 526.869 L84.0938 526.869 L84.0938 520.99 Z" fill="#000000" fill-rule="nonzero" fill-opacity="1" /><path clip-path="url(#clip590)" d="M103.191 522.934 L119.51 522.934 L119.51 526.869 L97.566 526.869 L97.566 522.934 Q100.228 520.179 104.811 515.55 Q109.418 510.897 110.598 509.554 Q112.844 507.031 113.723 505.295 Q114.626 503.536 114.626 501.846 Q114.626 499.091 112.682 497.355 Q110.76 495.619 107.658 495.619 Q105.459 495.619 103.006 496.383 Q100.575 497.147 97.7974 498.698 L97.7974 493.976 Q100.621 492.842 103.075 492.263 Q105.529 491.684 107.566 491.684 Q112.936 491.684 116.131 494.369 Q119.325 497.054 119.325 501.545 Q119.325 503.675 118.515 505.596 Q117.728 507.494 115.621 510.087 Q115.043 510.758 111.941 513.976 Q108.839 517.17 103.191 522.934 Z" fill="#000000" fill-rule="nonzero" fill-opacity="1" /><path clip-path="url(#clip590)" d="M129.371 492.309 L147.728 492.309 L147.728 496.244 L133.654 496.244 L133.654 504.716 Q134.672 504.369 135.691 504.207 Q136.709 504.022 137.728 504.022 Q143.515 504.022 146.894 507.193 Q150.274 510.365 150.274 515.781 Q150.274 521.36 146.802 524.462 Q143.33 527.54 137.01 527.54 Q134.834 527.54 132.566 527.17 Q130.32 526.8 127.913 526.059 L127.913 521.36 Q129.996 522.494 132.219 523.05 Q134.441 523.605 136.918 523.605 Q140.922 523.605 143.26 521.499 Q145.598 519.392 145.598 515.781 Q145.598 512.17 143.26 510.064 Q140.922 507.957 136.918 507.957 Q135.043 507.957 133.168 508.374 Q131.316 508.79 129.371 509.67 L129.371 492.309 Z" fill="#000000" fill-rule="nonzero" fill-opacity="1" /><path clip-path="url(#clip590)" d="M53.7467 242.619 L61.3856 242.619 L61.3856 216.253 L53.0754 217.92 L53.0754 213.661 L61.3393 211.994 L66.0152 211.994 L66.0152 242.619 L73.654 242.619 L73.654 246.554 L53.7467 246.554 L53.7467 242.619 Z" fill="#000000" fill-rule="nonzero" fill-opacity="1" /><path clip-path="url(#clip590)" d="M83.0984 240.674 L87.9827 240.674 L87.9827 246.554 L83.0984 246.554 L83.0984 240.674 Z" fill="#000000" fill-rule="nonzero" fill-opacity="1" /><path clip-path="url(#clip590)" d="M98.2141 211.994 L116.57 211.994 L116.57 215.929 L102.496 215.929 L102.496 224.401 Q103.515 224.054 104.534 223.892 Q105.552 223.707 106.571 223.707 Q112.358 223.707 115.737 226.878 Q119.117 230.049 119.117 235.466 Q119.117 241.045 115.645 244.147 Q112.172 247.225 105.853 247.225 Q103.677 247.225 101.409 246.855 Q99.1632 246.485 96.7558 245.744 L96.7558 241.045 Q98.8391 242.179 101.061 242.735 Q103.284 243.29 105.76 243.29 Q109.765 243.29 112.103 241.184 Q114.441 239.077 114.441 235.466 Q114.441 231.855 112.103 229.748 Q109.765 227.642 105.76 227.642 Q103.885 227.642 102.01 228.059 Q100.159 228.475 98.2141 229.355 L98.2141 211.994 Z" fill="#000000" fill-rule="nonzero" fill-opacity="1" /><path clip-path="url(#clip590)" d="M138.33 215.073 Q134.719 215.073 132.89 218.637 Q131.084 222.179 131.084 229.309 Q131.084 236.415 132.89 239.98 Q134.719 243.522 138.33 243.522 Q141.964 243.522 143.769 239.98 Q145.598 236.415 145.598 229.309 Q145.598 222.179 143.769 218.637 Q141.964 215.073 138.33 215.073 M138.33 211.369 Q144.14 211.369 147.195 215.975 Q150.274 220.559 150.274 229.309 Q150.274 238.035 147.195 242.642 Q144.14 247.225 138.33 247.225 Q132.519 247.225 129.441 242.642 Q126.385 238.035 126.385 229.309 Q126.385 220.559 129.441 215.975 Q132.519 211.369 138.33 211.369 Z" fill="#000000" fill-rule="nonzero" fill-opacity="1" /><polyline clip-path="url(#clip591)" style="stroke:#009af9; stroke-linecap:round; stroke-linejoin:round; stroke-width:12; stroke-opacity:1; fill:none" points="247.59,1350.53 451.975,1295.86 656.36,1293.66 860.745,1354.12 1065.13,1406.05 1269.51,1294.71 1473.9,1283.07 1678.29,1279.29 1882.67,1271.39 2087.06,1270.01 2291.44,1158.5 "/>
<polyline clip-path="url(#clip591)" style="stroke:#e26f46; stroke-linecap:round; stroke-linejoin:round; stroke-width:12; stroke-opacity:1; fill:none" points="247.59,1350.53 451.975,1290.52 656.36,1207.44 860.745,1208.05 1065.13,1155.58 1269.51,1000.5 1473.9,798.578 1678.29,424.561 1882.67,413.066 2087.06,415.405 2291.44,191.503 "/>
<polyline clip-path="url(#clip591)" style="stroke:#3da44d; stroke-linecap:round; stroke-linejoin:round; stroke-width:12; stroke-opacity:1; fill:none" points="247.59,1350.53 451.975,1230.45 656.36,1117.23 860.745,1054.66 1065.13,1155.76 1269.51,988.13 1473.9,964.23 1678.29,685.719 1882.67,543.144 2087.06,909.105 2291.44,742.919 "/>
<polyline clip-path="url(#clip591)" style="stroke:#c271d2; stroke-linecap:round; stroke-linejoin:round; stroke-width:12; stroke-opacity:1; fill:none" points="247.59,1350.53 451.975,1295.71 656.36,1221.3 860.745,1222.64 1065.13,1149.99 1269.51,1107.84 1473.9,1237.81 1678.29,1028.08 1882.67,1003.72 2087.06,1009.35 2291.44,936.188 "/>
<polyline clip-path="url(#clip591)" style="stroke:#ac8d18; stroke-linecap:round; stroke-linejoin:round; stroke-width:12; stroke-opacity:1; fill:none" points="247.59,1350.53 451.975,1376.45 656.36,1411.42 860.745,1445.72 1065.13,1415.36 1269.51,1444.44 1473.9,1362.39 1678.29,1342.02 1882.67,1324.42 2087.06,1214.86 2291.44,1280.23 "/>
<polyline clip-path="url(#clip591)" style="stroke:#00a9ad; stroke-linecap:round; stroke-linejoin:round; stroke-width:12; stroke-opacity:1; fill:none" points="247.59,1350.53 451.975,1292.16 656.36,1146.79 860.745,1074.25 1065.13,1008.08 1269.51,848.925 1473.9,709.57 1678.29,752.387 1882.67,534.286 2087.06,147.632 2291.44,87.9763 "/>
<polyline clip-path="url(#clip591)" style="stroke:#ed5d92; stroke-linecap:round; stroke-linejoin:round; stroke-width:12; stroke-opacity:1; fill:none" points="247.59,1350.53 451.975,1336.44 656.36,1376.09 860.745,1331.52 1065.13,1334.79 1269.51,1398.11 1473.9,1445.66 1678.29,1373.76 1882.67,1262 2087.06,1157.86 2291.44,838.02 "/>
<polyline clip-path="url(#clip591)" style="stroke:#c68125; stroke-linecap:round; stroke-linejoin:round; stroke-width:12; stroke-opacity:1; fill:none" points="247.59,1350.53 451.975,1331.67 656.36,1215.38 860.745,1170.99 1065.13,1261.41 1269.51,1154.49 1473.9,975.411 1678.29,900.734 1882.67,860.215 2087.06,779.463 2291.44,861.253 "/>
</svg>
