<?xml version="1.0" encoding="utf-8"?>
<svg xmlns="http://www.w3.org/2000/svg" xmlns:xlink="http://www.w3.org/1999/xlink" width="600" height="400" viewBox="0 0 2400 1600">
<defs>
  <clipPath id="clip500">
    <rect x="0" y="0" width="2400" height="1600"/>
  </clipPath>
</defs>
<path clip-path="url(#clip500)" d="M0 1600 L2400 1600 L2400 0 L0 0  Z" fill="#ffffff" fill-rule="evenodd" fill-opacity="1"/>
<defs>
  <clipPath id="clip501">
    <rect x="112" y="47" width="2242" height="1440"/>
  </clipPath>
</defs>
<path clip-path="url(#clip500)" d="M112.177 1486.45 L2352.76 1486.45 L2352.76 47.2441 L112.177 47.2441  Z" fill="#ffffff" fill-rule="evenodd" fill-opacity="1"/>
<polyline clip-path="url(#clip501)" style="stroke:#000000; stroke-linecap:round; stroke-linejoin:round; stroke-width:2; stroke-opacity:0.1; fill:none" points="175.59,1486.45 175.59,47.2441 "/>
<polyline clip-path="url(#clip501)" style="stroke:#000000; stroke-linecap:round; stroke-linejoin:round; stroke-width:2; stroke-opacity:0.1; fill:none" points="704.028,1486.45 704.028,47.2441 "/>
<polyline clip-path="url(#clip501)" style="stroke:#000000; stroke-linecap:round; stroke-linejoin:round; stroke-width:2; stroke-opacity:0.1; fill:none" points="1232.47,1486.45 1232.47,47.2441 "/>
<polyline clip-path="url(#clip501)" style="stroke:#000000; stroke-linecap:round; stroke-linejoin:round; stroke-width:2; stroke-opacity:0.1; fill:none" points="1760.9,1486.45 1760.9,47.2441 "/>
<polyline clip-path="url(#clip501)" style="stroke:#000000; stroke-linecap:round; stroke-linejoin:round; stroke-width:2; stroke-opacity:0.1; fill:none" points="2289.34,1486.45 2289.34,47.2441 "/>
<polyline clip-path="url(#clip501)" style="stroke:#000000; stroke-linecap:round; stroke-linejoin:round; stroke-width:2; stroke-opacity:0.1; fill:none" points="112.177,1457.23 2352.76,1457.23 "/>
<polyline clip-path="url(#clip501)" style="stroke:#000000; stroke-linecap:round; stroke-linejoin:round; stroke-width:2; stroke-opacity:0.1; fill:none" points="112.177,1151.46 2352.76,1151.46 "/>
<polyline clip-path="url(#clip501)" style="stroke:#000000; stroke-linecap:round; stroke-linejoin:round; stroke-width:2; stroke-opacity:0.1; fill:none" points="112.177,845.687 2352.76,845.687 "/>
<polyline clip-path="url(#clip501)" style="stroke:#000000; stroke-linecap:round; stroke-linejoin:round; stroke-width:2; stroke-opacity:0.1; fill:none" points="112.177,539.914 2352.76,539.914 "/>
<polyline clip-path="url(#clip501)" style="stroke:#000000; stroke-linecap:round; stroke-linejoin:round; stroke-width:2; stroke-opacity:0.1; fill:none" points="112.177,234.141 2352.76,234.141 "/>
<polyline clip-path="url(#clip500)" style="stroke:#000000; stroke-linecap:round; stroke-linejoin:round; stroke-width:4; stroke-opacity:1; fill:none" points="112.177,1486.45 2352.76,1486.45 "/>
<polyline clip-path="url(#clip500)" style="stroke:#000000; stroke-linecap:round; stroke-linejoin:round; stroke-width:4; stroke-opacity:1; fill:none" points="175.59,1486.45 175.59,1467.55 "/>
<polyline clip-path="url(#clip500)" style="stroke:#000000; stroke-linecap:round; stroke-linejoin:round; stroke-width:4; stroke-opacity:1; fill:none" points="704.028,1486.45 704.028,1467.55 "/>
<polyline clip-path="url(#clip500)" style="stroke:#000000; stroke-linecap:round; stroke-linejoin:round; stroke-width:4; stroke-opacity:1; fill:none" points="1232.47,1486.45 1232.47,1467.55 "/>
<polyline clip-path="url(#clip500)" style="stroke:#000000; stroke-linecap:round; stroke-linejoin:round; stroke-width:4; stroke-opacity:1; fill:none" points="1760.9,1486.45 1760.9,1467.55 "/>
<polyline clip-path="url(#clip500)" style="stroke:#000000; stroke-linecap:round; stroke-linejoin:round; stroke-width:4; stroke-opacity:1; fill:none" points="2289.34,1486.45 2289.34,1467.55 "/>
<path clip-path="url(#clip500)" d="M152.974 1517.37 Q149.363 1517.37 147.534 1520.93 Q145.729 1524.47 145.729 1531.6 Q145.729 1538.71 147.534 1542.27 Q149.363 1545.82 152.974 1545.82 Q156.608 1545.82 158.414 1542.27 Q160.243 1538.71 160.243 1531.6 Q160.243 1524.47 158.414 1520.93 Q156.608 1517.37 152.974 1517.37 M152.974 1513.66 Q158.784 1513.66 161.84 1518.27 Q164.919 1522.85 164.919 1531.6 Q164.919 1540.33 161.84 1544.94 Q158.784 1549.52 152.974 1549.52 Q147.164 1549.52 144.085 1544.94 Q141.03 1540.33 141.03 1531.6 Q141.03 1522.85 144.085 1518.27 Q147.164 1513.66 152.974 1513.66 Z" fill="#000000" fill-rule="nonzero" fill-opacity="1" /><path clip-path="url(#clip500)" d="M173.136 1542.97 L178.02 1542.97 L178.02 1548.85 L173.136 1548.85 L173.136 1542.97 Z" fill="#000000" fill-rule="nonzero" fill-opacity="1" /><path clip-path="url(#clip500)" d="M198.205 1517.37 Q194.594 1517.37 192.766 1520.93 Q190.96 1524.47 190.96 1531.6 Q190.96 1538.71 192.766 1542.27 Q194.594 1545.82 198.205 1545.82 Q201.84 1545.82 203.645 1542.27 Q205.474 1538.71 205.474 1531.6 Q205.474 1524.47 203.645 1520.93 Q201.84 1517.37 198.205 1517.37 M198.205 1513.66 Q204.016 1513.66 207.071 1518.27 Q210.15 1522.85 210.15 1531.6 Q210.15 1540.33 207.071 1544.94 Q204.016 1549.52 198.205 1549.52 Q192.395 1549.52 189.317 1544.94 Q186.261 1540.33 186.261 1531.6 Q186.261 1522.85 189.317 1518.27 Q192.395 1513.66 198.205 1513.66 Z" fill="#000000" fill-rule="nonzero" fill-opacity="1" /><path clip-path="url(#clip500)" d="M675.764 1544.91 L692.084 1544.91 L692.084 1548.85 L670.139 1548.85 L670.139 1544.91 Q672.801 1542.16 677.385 1537.53 Q681.991 1532.88 683.172 1531.53 Q685.417 1529.01 686.297 1527.27 Q687.2 1525.51 687.2 1523.82 Q687.2 1521.07 685.255 1519.33 Q683.334 1517.6 680.232 1517.6 Q678.033 1517.6 675.579 1518.36 Q673.149 1519.13 670.371 1520.68 L670.371 1515.95 Q673.195 1514.82 675.649 1514.24 Q678.102 1513.66 680.139 1513.66 Q685.51 1513.66 688.704 1516.35 Q691.899 1519.03 691.899 1523.52 Q691.899 1525.65 691.088 1527.57 Q690.301 1529.47 688.195 1532.07 Q687.616 1532.74 684.514 1535.95 Q681.413 1539.15 675.764 1544.91 Z" fill="#000000" fill-rule="nonzero" fill-opacity="1" /><path clip-path="url(#clip500)" d="M701.899 1542.97 L706.783 1542.97 L706.783 1548.85 L701.899 1548.85 L701.899 1542.97 Z" fill="#000000" fill-rule="nonzero" fill-opacity="1" /><path clip-path="url(#clip500)" d="M717.014 1514.29 L735.371 1514.29 L735.371 1518.22 L721.297 1518.22 L721.297 1526.7 Q722.315 1526.35 723.334 1526.19 Q724.352 1526 725.371 1526 Q731.158 1526 734.537 1529.17 Q737.917 1532.34 737.917 1537.76 Q737.917 1543.34 734.445 1546.44 Q730.972 1549.52 724.653 1549.52 Q722.477 1549.52 720.209 1549.15 Q717.963 1548.78 715.556 1548.04 L715.556 1543.34 Q717.639 1544.47 719.861 1545.03 Q722.084 1545.58 724.56 1545.58 Q728.565 1545.58 730.903 1543.48 Q733.241 1541.37 733.241 1537.76 Q733.241 1534.15 730.903 1532.04 Q728.565 1529.94 724.56 1529.94 Q722.685 1529.94 720.81 1530.35 Q718.959 1530.77 717.014 1531.65 L717.014 1514.29 Z" fill="#000000" fill-rule="nonzero" fill-opacity="1" /><path clip-path="url(#clip500)" d="M1199.63 1514.29 L1217.99 1514.29 L1217.99 1518.22 L1203.91 1518.22 L1203.91 1526.7 Q1204.93 1526.35 1205.95 1526.19 Q1206.97 1526 1207.99 1526 Q1213.77 1526 1217.15 1529.17 Q1220.53 1532.34 1220.53 1537.76 Q1220.53 1543.34 1217.06 1546.44 Q1213.59 1549.52 1207.27 1549.52 Q1205.09 1549.52 1202.83 1549.15 Q1200.58 1548.78 1198.17 1548.04 L1198.17 1543.34 Q1200.26 1544.47 1202.48 1545.03 Q1204.7 1545.58 1207.18 1545.58 Q1211.18 1545.58 1213.52 1543.48 Q1215.86 1541.37 1215.86 1537.76 Q1215.86 1534.15 1213.52 1532.04 Q1211.18 1529.94 1207.18 1529.94 Q1205.3 1529.94 1203.43 1530.35 Q1201.58 1530.77 1199.63 1531.65 L1199.63 1514.29 Z" fill="#000000" fill-rule="nonzero" fill-opacity="1" /><path clip-path="url(#clip500)" d="M1229.75 1542.97 L1234.63 1542.97 L1234.63 1548.85 L1229.75 1548.85 L1229.75 1542.97 Z" fill="#000000" fill-rule="nonzero" fill-opacity="1" /><path clip-path="url(#clip500)" d="M1254.82 1517.37 Q1251.2 1517.37 1249.38 1520.93 Q1247.57 1524.47 1247.57 1531.6 Q1247.57 1538.71 1249.38 1542.27 Q1251.2 1545.82 1254.82 1545.82 Q1258.45 1545.82 1260.26 1542.27 Q1262.08 1538.71 1262.08 1531.6 Q1262.08 1524.47 1260.26 1520.93 Q1258.45 1517.37 1254.82 1517.37 M1254.82 1513.66 Q1260.63 1513.66 1263.68 1518.27 Q1266.76 1522.85 1266.76 1531.6 Q1266.76 1540.33 1263.68 1544.94 Q1260.63 1549.52 1254.82 1549.52 Q1249.01 1549.52 1245.93 1544.94 Q1242.87 1540.33 1242.87 1531.6 Q1242.87 1522.85 1245.93 1518.27 Q1249.01 1513.66 1254.82 1513.66 Z" fill="#000000" fill-rule="nonzero" fill-opacity="1" /><path clip-path="url(#clip500)" d="M1727.22 1514.29 L1749.45 1514.29 L1749.45 1516.28 L1736.9 1548.85 L1732.02 1548.85 L1743.82 1518.22 L1727.22 1518.22 L1727.22 1514.29 Z" fill="#000000" fill-rule="nonzero" fill-opacity="1" /><path clip-path="url(#clip500)" d="M1758.57 1542.97 L1763.45 1542.97 L1763.45 1548.85 L1758.57 1548.85 L1758.57 1542.97 Z" fill="#000000" fill-rule="nonzero" fill-opacity="1" /><path clip-path="url(#clip500)" d="M1773.68 1514.29 L1792.04 1514.29 L1792.04 1518.22 L1777.97 1518.22 L1777.97 1526.7 Q1778.98 1526.35 1780 1526.19 Q1781.02 1526 1782.04 1526 Q1787.83 1526 1791.21 1529.17 Q1794.59 1532.34 1794.59 1537.76 Q1794.59 1543.34 1791.11 1546.44 Q1787.64 1549.52 1781.32 1549.52 Q1779.15 1549.52 1776.88 1549.15 Q1774.63 1548.78 1772.22 1548.04 L1772.22 1543.34 Q1774.31 1544.47 1776.53 1545.03 Q1778.75 1545.58 1781.23 1545.58 Q1785.23 1545.58 1787.57 1543.48 Q1789.91 1541.37 1789.91 1537.76 Q1789.91 1534.15 1787.57 1532.04 Q1785.23 1529.94 1781.23 1529.94 Q1779.35 1529.94 1777.48 1530.35 Q1775.63 1530.77 1773.68 1531.65 L1773.68 1514.29 Z" fill="#000000" fill-rule="nonzero" fill-opacity="1" /><path clip-path="url(#clip500)" d="M2241.42 1544.91 L2249.05 1544.91 L2249.05 1518.55 L2240.74 1520.21 L2240.74 1515.95 L2249.01 1514.29 L2253.68 1514.29 L2253.68 1544.91 L2261.32 1544.91 L2261.32 1548.85 L2241.42 1548.85 L2241.42 1544.91 Z" fill="#000000" fill-rule="nonzero" fill-opacity="1" /><path clip-path="url(#clip500)" d="M2280.77 1517.37 Q2277.16 1517.37 2275.33 1520.93 Q2273.52 1524.47 2273.52 1531.6 Q2273.52 1538.71 2275.33 1542.27 Q2277.16 1545.82 2280.77 1545.82 Q2284.4 1545.82 2286.21 1542.27 Q2288.04 1538.71 2288.04 1531.6 Q2288.04 1524.47 2286.21 1520.93 Q2284.4 1517.37 2280.77 1517.37 M2280.77 1513.66 Q2286.58 1513.66 2289.63 1518.27 Q2292.71 1522.85 2292.71 1531.6 Q2292.71 1540.33 2289.63 1544.94 Q2286.58 1549.52 2280.77 1549.52 Q2274.96 1549.52 2271.88 1544.94 Q2268.82 1540.33 2268.82 1531.6 Q2268.82 1522.85 2271.88 1518.27 Q2274.96 1513.66 2280.77 1513.66 Z" fill="#000000" fill-rule="nonzero" fill-opacity="1" /><path clip-path="url(#clip500)" d="M2300.93 1542.97 L2305.81 1542.97 L2305.81 1548.85 L2300.93 1548.85 L2300.93 1542.97 Z" fill="#000000" fill-rule="nonzero" fill-opacity="1" /><path clip-path="url(#clip500)" d="M2326 1517.37 Q2322.39 1517.37 2320.56 1520.93 Q2318.75 1524.47 2318.75 1531.6 Q2318.75 1538.71 2320.56 1542.27 Q2322.39 1545.82 2326 1545.82 Q2329.63 1545.82 2331.44 1542.27 Q2333.27 1538.71 2333.27 1531.6 Q2333.27 1524.47 2331.44 1520.93 Q2329.63 1517.37 2326 1517.37 M2326 1513.66 Q2331.81 1513.66 2334.86 1518.27 Q2337.94 1522.85 2337.94 1531.6 Q2337.94 1540.33 2334.86 1544.94 Q2331.81 1549.52 2326 1549.52 Q2320.19 1549.52 2317.11 1544.94 Q2314.05 1540.33 2314.05 1531.6 Q2314.05 1522.85 2317.11 1518.27 Q2320.19 1513.66 2326 1513.66 Z" fill="#000000" fill-rule="nonzero" fill-opacity="1" /><polyline clip-path="url(#clip500)" style="stroke:#000000; stroke-linecap:round; stroke-linejoin:round; stroke-width:4; stroke-opacity:1; fill:none" points="112.177,1486.45 112.177,47.2441 "/>
<polyline clip-path="url(#clip500)" style="stroke:#000000; stroke-linecap:round; stroke-linejoin:round; stroke-width:4; stroke-opacity:1; fill:none" points="112.177,1457.23 131.075,1457.23 "/>
<polyline clip-path="url(#clip500)" style="stroke:#000000; stroke-linecap:round; stroke-linejoin:round; stroke-width:4; stroke-opacity:1; fill:none" points="112.177,1151.46 131.075,1151.46 "/>
<polyline clip-path="url(#clip500)" style="stroke:#000000; stroke-linecap:round; stroke-linejoin:round; stroke-width:4; stroke-opacity:1; fill:none" points="112.177,845.687 131.075,845.687 "/>
<polyline clip-path="url(#clip500)" style="stroke:#000000; stroke-linecap:round; stroke-linejoin:round; stroke-width:4; stroke-opacity:1; fill:none" points="112.177,539.914 131.075,539.914 "/>
<polyline clip-path="url(#clip500)" style="stroke:#000000; stroke-linecap:round; stroke-linejoin:round; stroke-width:4; stroke-opacity:1; fill:none" points="112.177,234.141 131.075,234.141 "/>
<path clip-path="url(#clip500)" d="M64.2328 1443.03 Q60.6217 1443.03 58.793 1446.6 Q56.9875 1450.14 56.9875 1457.27 Q56.9875 1464.37 58.793 1467.94 Q60.6217 1471.48 64.2328 1471.48 Q67.867 1471.48 69.6726 1467.94 Q71.5013 1464.37 71.5013 1457.27 Q71.5013 1450.14 69.6726 1446.6 Q67.867 1443.03 64.2328 1443.03 M64.2328 1439.33 Q70.0429 1439.33 73.0985 1443.93 Q76.1772 1448.52 76.1772 1457.27 Q76.1772 1465.99 73.0985 1470.6 Q70.0429 1475.18 64.2328 1475.18 Q58.4226 1475.18 55.344 1470.6 Q52.2884 1465.99 52.2884 1457.27 Q52.2884 1448.52 55.344 1443.93 Q58.4226 1439.33 64.2328 1439.33 Z" fill="#000000" fill-rule="nonzero" fill-opacity="1" /><path clip-path="url(#clip500)" d="M59.8578 1164.81 L76.1772 1164.81 L76.1772 1168.74 L54.2328 1168.74 L54.2328 1164.81 Q56.8949 1162.05 61.4782 1157.42 Q66.0846 1152.77 67.2652 1151.43 Q69.5105 1148.9 70.3902 1147.17 Q71.2929 1145.41 71.2929 1143.72 Q71.2929 1140.96 69.3485 1139.23 Q67.4272 1137.49 64.3254 1137.49 Q62.1263 1137.49 59.6726 1138.25 Q57.2421 1139.02 54.4643 1140.57 L54.4643 1135.85 Q57.2884 1134.71 59.7421 1134.13 Q62.1958 1133.56 64.2328 1133.56 Q69.6031 1133.56 72.7976 1136.24 Q75.992 1138.93 75.992 1143.42 Q75.992 1145.55 75.1818 1147.47 Q74.3948 1149.37 72.2883 1151.96 Q71.7096 1152.63 68.6078 1155.85 Q65.5059 1159.04 59.8578 1164.81 Z" fill="#000000" fill-rule="nonzero" fill-opacity="1" /><path clip-path="url(#clip500)" d="M66.5939 832.481 L54.7884 850.93 L66.5939 850.93 L66.5939 832.481 M65.367 828.407 L71.2466 828.407 L71.2466 850.93 L76.1772 850.93 L76.1772 854.819 L71.2466 854.819 L71.2466 862.967 L66.5939 862.967 L66.5939 854.819 L50.9921 854.819 L50.9921 850.305 L65.367 828.407 Z" fill="#000000" fill-rule="nonzero" fill-opacity="1" /><path clip-path="url(#clip500)" d="M64.6495 538.051 Q61.5013 538.051 59.6495 540.203 Q57.8208 542.356 57.8208 546.106 Q57.8208 549.833 59.6495 552.009 Q61.5013 554.162 64.6495 554.162 Q67.7976 554.162 69.6263 552.009 Q71.4781 549.833 71.4781 546.106 Q71.4781 542.356 69.6263 540.203 Q67.7976 538.051 64.6495 538.051 M73.9318 523.398 L73.9318 527.657 Q72.1726 526.824 70.367 526.384 Q68.5846 525.944 66.8254 525.944 Q62.1958 525.944 59.7421 529.069 Q57.3115 532.194 56.9643 538.514 Q58.33 536.5 60.3902 535.435 Q62.4504 534.347 64.9272 534.347 Q70.1355 534.347 73.1448 537.518 Q76.1772 540.666 76.1772 546.106 Q76.1772 551.43 73.029 554.648 Q69.8809 557.865 64.6495 557.865 Q58.6541 557.865 55.4828 553.282 Q52.3116 548.676 52.3116 539.949 Q52.3116 531.754 56.2004 526.893 Q60.0893 522.009 66.6402 522.009 Q68.3994 522.009 70.1818 522.356 Q71.9874 522.703 73.9318 523.398 Z" fill="#000000" fill-rule="nonzero" fill-opacity="1" /><path clip-path="url(#clip500)" d="M64.3254 235.009 Q60.9921 235.009 59.0708 236.791 Q57.1726 238.574 57.1726 241.699 Q57.1726 244.824 59.0708 246.606 Q60.9921 248.389 64.3254 248.389 Q67.6587 248.389 69.58 246.606 Q71.5013 244.801 71.5013 241.699 Q71.5013 238.574 69.58 236.791 Q67.6819 235.009 64.3254 235.009 M59.6495 233.018 Q56.6402 232.278 54.9504 230.217 Q53.2838 228.157 53.2838 225.194 Q53.2838 221.051 56.2236 218.643 Q59.1865 216.236 64.3254 216.236 Q69.4874 216.236 72.4272 218.643 Q75.367 221.051 75.367 225.194 Q75.367 228.157 73.6772 230.217 Q72.0105 232.278 69.0244 233.018 Q72.404 233.805 74.279 236.097 Q76.1772 238.389 76.1772 241.699 Q76.1772 246.722 73.0985 249.407 Q70.0429 252.092 64.3254 252.092 Q58.6078 252.092 55.5291 249.407 Q52.4736 246.722 52.4736 241.699 Q52.4736 238.389 54.3717 236.097 Q56.2699 233.805 59.6495 233.018 M57.9365 225.634 Q57.9365 228.319 59.6032 229.824 Q61.293 231.328 64.3254 231.328 Q67.3346 231.328 69.0244 229.824 Q70.7374 228.319 70.7374 225.634 Q70.7374 222.949 69.0244 221.444 Q67.3346 219.94 64.3254 219.94 Q61.293 219.94 59.6032 221.444 Q57.9365 222.949 57.9365 225.634 Z" fill="#000000" fill-rule="nonzero" fill-opacity="1" /><path clip-path="url(#clip501)" d="M175.59 1304.35 L196.727 1298.68 L217.865 1297.1 L239.002 1278.93 L260.14 1273.26 L281.277 1258.18 L302.415 1231.83 L323.553 1207.49 L344.69 1169.34 L365.828 1127.42 L386.965 1077.63 L408.103 1023.77 L429.24 957.042 L450.378 895.544 L471.515 844.748 L492.653 753.524 L513.79 687.207 L534.928 674.721 L556.065 673.013 L577.203 682.631 L598.34 805.215 L619.478 948.548 L640.616 1047.58 L661.753 1174.43 L682.891 1254.34 L704.028 1298.44 L725.166 1321.49 L746.303 1335.48 L767.441 1334.94 L788.578 1340.58 L809.716 1346.79 L830.853 1353.59 L851.991 1356.37 L873.128 1355.32 L894.266 1348.59 L915.404 1337.71 L936.541 1329.68 L957.679 1320.91 L978.816 1304.04 L999.954 1283.74 L1021.09 1273.62 L1042.23 1249.28 L1063.37 1210.84 L1084.5 1181.11 L1105.64 1148.73 L1126.78 1093.55 L1147.92 1019.6 L1169.05 967.461 L1190.19 936.671 L1211.33 953.58 L1232.47 982.669 L1253.6 991.037 L1274.74 1054.07 L1295.88 1111.54 L1317.02 1162 L1338.15 1214.92 L1359.29 1253.11 L1380.43 1285.12 L1401.57 1298.5 L1422.7 1328.27 L1443.84 1334.81 L1464.98 1342.32 L1486.12 1344.02 L1507.25 1342.26 L1528.39 1335.51 L1549.53 1353.98 L1570.67 1358.79 L1591.8 1369.21 L1612.94 1370.91 L1634.08 1368.89 L1655.22 1369.67 L1676.35 1370.42 L1697.49 1370.86 L1718.63 1366.18 L1739.77 1359.38 L1760.9 1346.73 L1782.04 1343.58 L1803.18 1329.62 L1824.32 1316.73 L1845.46 1294.46 L1866.59 1280.02 L1887.73 1260.4 L1908.87 1235.17 L1930.01 1198.27 L1951.14 1166.26 L1972.28 1145.27 L1993.42 1119.14 L2014.56 1128.74 L2035.69 1142.87 L2056.83 1140.93 L2077.97 1157.35 L2099.11 1165.34 L2120.24 1206.75 L2141.38 1248.46 L2162.52 1279.61 L2183.66 1302.04 L2204.79 1315.42 L2225.93 1315.04 L2247.07 1316.59 L2268.21 1309.15 L2289.34 1308.41 L2289.34 211.025 L2268.21 227.701 L2247.07 266.487 L2225.93 283.967 L2204.79 308.547 L2183.66 383.042 L2162.52 417.67 L2141.38 548.989 L2120.24 592.219 L2099.11 630.947 L2077.97 613.79 L2056.83 661.655 L2035.69 524.058 L2014.56 355.779 L1993.42 257.522 L1972.28 270.326 L1951.14 261.913 L1930.01 300.293 L1908.87 470.29 L1887.73 608.263 L1866.59 678.554 L1845.46 733.487 L1824.32 754.123 L1803.18 771.942 L1782.04 741.377 L1760.9 737.905 L1739.77 761.517 L1718.63 865.63 L1697.49 880.25 L1676.35 941.987 L1655.22 998.426 L1634.08 1059.05 L1612.94 1064.72 L1591.8 1100.76 L1570.67 1141.94 L1549.53 1184.21 L1528.39 1191.73 L1507.25 1137.09 L1486.12 962.282 L1464.98 704.014 L1443.84 437.945 L1422.7 165.736 L1401.57 87.9763 L1380.43 130.334 L1359.29 146.904 L1338.15 305.861 L1317.02 338.305 L1295.88 391.207 L1274.74 316.788 L1253.6 341.519 L1232.47 453.738 L1211.33 524.128 L1190.19 611.276 L1169.05 634.384 L1147.92 655.992 L1126.78 683.258 L1105.64 746.448 L1084.5 737.137 L1063.37 784.892 L1042.23 822.995 L1021.09 890.176 L999.954 918.062 L978.816 976.81 L957.679 1054.08 L936.541 1081.13 L915.404 1110.15 L894.266 1153.45 L873.128 1178.57 L851.991 1214.79 L830.853 1225.94 L809.716 1218.05 L788.578 1204.28 L767.441 1196.08 L746.303 1164.05 L725.166 1142.38 L704.028 1049.75 L682.891 879.17 L661.753 636.125 L640.616 436.391 L619.478 274.899 L598.34 263.702 L577.203 208.927 L556.065 133.118 L534.928 265.162 L513.79 315.923 L492.653 486.111 L471.515 613.21 L450.378 696.022 L429.24 779.214 L408.103 827.21 L386.965 889.131 L365.828 985.599 L344.69 1048.1 L323.553 1094.63 L302.415 1117.88 L281.277 1176.24 L260.14 1209.03 L239.002 1240.5 L217.865 1263.2 L196.727 1281.88 L175.59 1304.35  Z" fill="#009af9" fill-rule="evenodd" fill-opacity="0.5"/>
<polyline clip-path="url(#clip501)" style="stroke:#009af9; stroke-linecap:round; stroke-linejoin:round; stroke-width:12; stroke-opacity:1; fill:none" points="175.59,1304.35 196.727,1288.56 217.865,1275.48 239.002,1261.39 260.14,1229.01 281.277,1199.24 302.415,1174.76 323.553,1148.22 344.69,1105.82 365.828,1051.33 386.965,1010.29 408.103,966.4 429.24,900.792 450.378,833.269 471.515,758.859 492.653,639.91 513.79,538.797 534.928,483.004 556.065,400.708 577.203,420.525 598.34,498.662 619.478,653.386 640.616,805.373 661.753,950.322 682.891,1046.51 704.028,1122.57 725.166,1207.04 746.303,1247.69 767.441,1280.54 788.578,1306.9 809.716,1311.7 830.853,1313.22 851.991,1306.74 873.128,1297.91 894.266,1284.16 915.404,1275.8 936.541,1250.76 957.679,1226.6 978.816,1193.07 999.954,1174.26 1021.09,1137.32 1042.23,1103.84 1063.37,1047.44 1084.5,963.493 1105.64,920.435 1126.78,860.417 1147.92,814.933 1169.05,753.246 1190.19,687.753 1211.33,633.715 1232.47,675.805 1253.6,620.271 1274.74,568.751 1295.88,599.079 1317.02,654.064 1338.15,811.3 1359.29,982.069 1380.43,1100.15 1401.57,1176.13 1422.7,1199.87 1443.84,1226.57 1464.98,1252.34 1486.12,1255.91 1507.25,1254.32 1528.39,1265.64 1549.53,1277.7 1570.67,1282.91 1591.8,1276.98 1612.94,1260.08 1634.08,1243.71 1655.22,1224.27 1676.35,1196.09 1697.49,1168.45 1718.63,1137.92 1739.77,1094.15 1760.9,1059.29 1782.04,1004.74 1803.18,938.215 1824.32,858.26 1845.46,828.871 1866.59,788.451 1887.73,781.342 1908.87,755.8 1930.01,746.834 1951.14,752.981 1972.28,649.496 1993.42,582.478 2014.56,651.898 2035.69,643.204 2056.83,782.771 2077.97,985.646 2099.11,1048.9 2120.24,1133.78 2141.38,1166.67 2162.52,1197.85 2183.66,1216.6 2204.79,1238 2225.93,1227.36 2247.07,1232.67 2268.21,1233.95 2289.34,1226.05 "/>
<path clip-path="url(#clip501)" d="M175.59 1304.35 L196.727 1353.85 L217.865 1378.11 L239.002 1394.21 L260.14 1399.14 L281.277 1404.99 L302.415 1411.91 L323.553 1418.52 L344.69 1425.9 L365.828 1427.87 L386.965 1429.65 L408.103 1428.03 L429.24 1429.38 L450.378 1426.16 L471.515 1422.41 L492.653 1415.43 L513.79 1400.83 L534.928 1386.25 L556.065 1362.02 L577.203 1322.66 L598.34 1239.94 L619.478 1104.23 L640.616 1004.94 L661.753 965.023 L682.891 990.571 L704.028 1027.13 L725.166 1101.55 L746.303 1168.22 L767.441 1211.15 L788.578 1251.24 L809.716 1289.19 L830.853 1317.05 L851.991 1344.21 L873.128 1364.18 L894.266 1383.22 L915.404 1400.37 L936.541 1413.2 L957.679 1418.9 L978.816 1425.49 L999.954 1430.89 L1021.09 1435.61 L1042.23 1439.31 L1063.37 1440.36 L1084.5 1441.63 L1105.64 1444.02 L1126.78 1445.06 L1147.92 1445.72 L1169.05 1445.72 L1190.19 1445.2 L1211.33 1443.88 L1232.47 1442.46 L1253.6 1441.13 L1274.74 1438.34 L1295.88 1433.05 L1317.02 1421.81 L1338.15 1405.89 L1359.29 1371.73 L1380.43 1319.81 L1401.57 1268.29 L1422.7 1244.27 L1443.84 1280.31 L1464.98 1312.51 L1486.12 1327.02 L1507.25 1346.36 L1528.39 1367.31 L1549.53 1383.85 L1570.67 1392.11 L1591.8 1398.79 L1612.94 1404.28 L1634.08 1411.1 L1655.22 1418.07 L1676.35 1421.49 L1697.49 1423.24 L1718.63 1428.06 L1739.77 1431.47 L1760.9 1434.37 L1782.04 1435.62 L1803.18 1435.75 L1824.32 1433.63 L1845.46 1431.52 L1866.59 1427.93 L1887.73 1432.92 L1908.87 1438.2 L1930.01 1440.63 L1951.14 1441.97 L1972.28 1442.23 L1993.42 1442.84 L2014.56 1441.27 L2035.69 1439.66 L2056.83 1436.31 L2077.97 1431.08 L2099.11 1421.73 L2120.24 1407.73 L2141.38 1383.07 L2162.52 1364.54 L2183.66 1372.39 L2204.79 1377.4 L2225.93 1375.52 L2247.07 1363.32 L2268.21 1333.85 L2289.34 1349.14 L2289.34 894.046 L2268.21 967.565 L2247.07 938.218 L2225.93 949.493 L2204.79 1014.81 L2183.66 1058.59 L2162.52 988.735 L2141.38 892.212 L2120.24 790.28 L2099.11 720.893 L2077.97 679.303 L2056.83 706.895 L2035.69 861.734 L2014.56 957.222 L1993.42 1003.47 L1972.28 1017.67 L1951.14 1031.34 L1930.01 1076.18 L1908.87 1131.84 L1887.73 1188.86 L1866.59 1225.09 L1845.46 1259.53 L1824.32 1287.88 L1803.18 1318.98 L1782.04 1338.62 L1760.9 1360.89 L1739.77 1358.48 L1718.63 1329.2 L1697.49 1302.82 L1676.35 1268.28 L1655.22 1222.32 L1634.08 1170.14 L1612.94 1101.71 L1591.8 1009.39 L1570.67 829.119 L1549.53 724.716 L1528.39 573.854 L1507.25 499.241 L1486.12 523.774 L1464.98 662.083 L1443.84 777.584 L1422.7 827.93 L1401.57 811.021 L1380.43 772.941 L1359.29 753.277 L1338.15 779.994 L1317.02 785.99 L1295.88 871.293 L1274.74 995.878 L1253.6 1001.77 L1232.47 1035.62 L1211.33 1074.47 L1190.19 1111.2 L1169.05 1155.49 L1147.92 1190.05 L1126.78 1217.21 L1105.64 1249.3 L1084.5 1271.45 L1063.37 1296.16 L1042.23 1318.33 L1021.09 1331.62 L999.954 1337.5 L978.816 1339.73 L957.679 1338.4 L936.541 1328.33 L915.404 1317.99 L894.266 1301.34 L873.128 1273.33 L851.991 1244.27 L830.853 1181.53 L809.716 1124.96 L788.578 1043.12 L767.441 966.516 L746.303 865.313 L725.166 762.519 L704.028 636.087 L682.891 622.206 L661.753 595.305 L640.616 604.012 L619.478 615.753 L598.34 709.071 L577.203 971.141 L556.065 1138.36 L534.928 1221.77 L513.79 1287.49 L492.653 1337.19 L471.515 1364.49 L450.378 1380.45 L429.24 1390.38 L408.103 1397.23 L386.965 1397.37 L365.828 1398.76 L344.69 1398.93 L323.553 1398.69 L302.415 1394.13 L281.277 1387.11 L260.14 1378.67 L239.002 1368.4 L217.865 1352.05 L196.727 1329.82 L175.59 1304.35  Z" fill="#e26f46" fill-rule="evenodd" fill-opacity="0.5"/>
<polyline clip-path="url(#clip501)" style="stroke:#e26f46; stroke-linecap:round; stroke-linejoin:round; stroke-width:12; stroke-opacity:1; fill:none" points="175.59,1304.35 196.727,1334.82 217.865,1354.84 239.002,1370.92 260.14,1386.64 281.277,1397.75 302.415,1403.84 323.553,1406.99 344.69,1411.72 365.828,1413.71 386.965,1415.33 408.103,1416.83 429.24,1412.99 450.378,1409.85 471.515,1402.71 492.653,1389.34 513.79,1376.18 534.928,1340.55 556.065,1293.24 577.203,1211.7 598.34,1078.51 619.478,983.5 640.616,905.46 661.753,784.695 682.891,780.779 704.028,889.956 725.166,961.342 746.303,1031.95 767.441,1090.25 788.578,1156.07 809.716,1222.07 830.853,1259.56 851.991,1291.63 873.128,1315.73 894.266,1344.1 915.404,1363.05 936.541,1378.1 957.679,1388.78 978.816,1404.16 999.954,1410.93 1021.09,1413.05 1042.23,1412.13 1063.37,1413.44 1084.5,1412.58 1105.64,1409.23 1126.78,1406.95 1147.92,1407.02 1169.05,1401.94 1190.19,1386.77 1211.33,1372.22 1232.47,1342.73 1253.6,1282.98 1274.74,1176.85 1295.88,1121.01 1317.02,1005.96 1338.15,926.922 1359.29,928.919 1380.43,969.869 1401.57,1037.95 1422.7,1043.41 1443.84,1057.25 1464.98,1141.22 1486.12,1198.98 1507.25,1248.69 1528.39,1284.81 1549.53,1312.95 1570.67,1338.69 1591.8,1355.57 1612.94,1367.5 1634.08,1377.56 1655.22,1386.49 1676.35,1389.75 1697.49,1390.79 1718.63,1390.59 1739.77,1393.76 1760.9,1395.2 1782.04,1404.27 1803.18,1410.28 1824.32,1414.82 1845.46,1412.45 1866.59,1408.82 1887.73,1402.8 1908.87,1391.72 1930.01,1369.32 1951.14,1339.43 1972.28,1291.08 1993.42,1216.5 2014.56,1109.82 2035.69,1070.74 2056.83,1046.21 2077.97,994.963 2099.11,963.374 2120.24,979.811 2141.38,1008.64 2162.52,1053.72 2183.66,1094.67 2204.79,1184.12 2225.93,1205.88 2247.07,1236.67 2268.21,1273.47 2289.34,1291.01 "/>
</svg>
