<?xml version="1.0" encoding="utf-8"?>
<svg xmlns="http://www.w3.org/2000/svg" xmlns:xlink="http://www.w3.org/1999/xlink" width="600" height="400" viewBox="0 0 2400 1600">
<defs>
  <clipPath id="clip560">
    <rect x="0" y="0" width="2400" height="1600"/>
  </clipPath>
</defs>
<path clip-path="url(#clip560)" d="M0 1600 L2400 1600 L2400 0 L0 0  Z" fill="#ffffff" fill-rule="evenodd" fill-opacity="1"/>
<defs>
  <clipPath id="clip561">
    <rect x="155" y="47" width="2198" height="1440"/>
  </clipPath>
</defs>
<path clip-path="url(#clip560)" d="M155.765 1486.45 L2352.76 1486.45 L2352.76 47.2441 L155.765 47.2441  Z" fill="#ffffff" fill-rule="evenodd" fill-opacity="1"/>
<polyline clip-path="url(#clip561)" style="stroke:#000000; stroke-linecap:round; stroke-linejoin:round; stroke-width:2; stroke-opacity:0.1; fill:none" points="217.944,1486.45 217.944,47.2441 "/>
<polyline clip-path="url(#clip561)" style="stroke:#000000; stroke-linecap:round; stroke-linejoin:round; stroke-width:2; stroke-opacity:0.1; fill:none" points="736.102,1486.45 736.102,47.2441 "/>
<polyline clip-path="url(#clip561)" style="stroke:#000000; stroke-linecap:round; stroke-linejoin:round; stroke-width:2; stroke-opacity:0.1; fill:none" points="1254.26,1486.45 1254.26,47.2441 "/>
<polyline clip-path="url(#clip561)" style="stroke:#000000; stroke-linecap:round; stroke-linejoin:round; stroke-width:2; stroke-opacity:0.1; fill:none" points="1772.42,1486.45 1772.42,47.2441 "/>
<polyline clip-path="url(#clip561)" style="stroke:#000000; stroke-linecap:round; stroke-linejoin:round; stroke-width:2; stroke-opacity:0.1; fill:none" points="2290.58,1486.45 2290.58,47.2441 "/>
<polyline clip-path="url(#clip561)" style="stroke:#000000; stroke-linecap:round; stroke-linejoin:round; stroke-width:2; stroke-opacity:0.1; fill:none" points="155.765,1285.84 2352.76,1285.84 "/>
<polyline clip-path="url(#clip561)" style="stroke:#000000; stroke-linecap:round; stroke-linejoin:round; stroke-width:2; stroke-opacity:0.1; fill:none" points="155.765,999.41 2352.76,999.41 "/>
<polyline clip-path="url(#clip561)" style="stroke:#000000; stroke-linecap:round; stroke-linejoin:round; stroke-width:2; stroke-opacity:0.1; fill:none" points="155.765,712.978 2352.76,712.978 "/>
<polyline clip-path="url(#clip561)" style="stroke:#000000; stroke-linecap:round; stroke-linejoin:round; stroke-width:2; stroke-opacity:0.1; fill:none" points="155.765,426.546 2352.76,426.546 "/>
<polyline clip-path="url(#clip561)" style="stroke:#000000; stroke-linecap:round; stroke-linejoin:round; stroke-width:2; stroke-opacity:0.1; fill:none" points="155.765,140.114 2352.76,140.114 "/>
<polyline clip-path="url(#clip560)" style="stroke:#000000; stroke-linecap:round; stroke-linejoin:round; stroke-width:4; stroke-opacity:1; fill:none" points="155.765,1486.45 2352.76,1486.45 "/>
<polyline clip-path="url(#clip560)" style="stroke:#000000; stroke-linecap:round; stroke-linejoin:round; stroke-width:4; stroke-opacity:1; fill:none" points="217.944,1486.45 217.944,1467.55 "/>
<polyline clip-path="url(#clip560)" style="stroke:#000000; stroke-linecap:round; stroke-linejoin:round; stroke-width:4; stroke-opacity:1; fill:none" points="736.102,1486.45 736.102,1467.55 "/>
<polyline clip-path="url(#clip560)" style="stroke:#000000; stroke-linecap:round; stroke-linejoin:round; stroke-width:4; stroke-opacity:1; fill:none" points="1254.26,1486.45 1254.26,1467.55 "/>
<polyline clip-path="url(#clip560)" style="stroke:#000000; stroke-linecap:round; stroke-linejoin:round; stroke-width:4; stroke-opacity:1; fill:none" points="1772.42,1486.45 1772.42,1467.55 "/>
<polyline clip-path="url(#clip560)" style="stroke:#000000; stroke-linecap:round; stroke-linejoin:round; stroke-width:4; stroke-opacity:1; fill:none" points="2290.58,1486.45 2290.58,1467.55 "/>
<path clip-path="url(#clip560)" d="M180.247 1517.37 Q176.636 1517.37 174.808 1520.93 Q173.002 1524.47 173.002 1531.6 Q173.002 1538.71 174.808 1542.27 Q176.636 1545.82 180.247 1545.82 Q183.882 1545.82 185.687 1542.27 Q187.516 1538.71 187.516 1531.6 Q187.516 1524.47 185.687 1520.93 Q183.882 1517.37 180.247 1517.37 M180.247 1513.66 Q186.057 1513.66 189.113 1518.27 Q192.192 1522.85 192.192 1531.6 Q192.192 1540.33 189.113 1544.94 Q186.057 1549.52 180.247 1549.52 Q174.437 1549.52 171.358 1544.94 Q168.303 1540.33 168.303 1531.6 Q168.303 1522.85 171.358 1518.27 Q174.437 1513.66 180.247 1513.66 Z" fill="#000000" fill-rule="nonzero" fill-opacity="1" /><path clip-path="url(#clip560)" d="M200.409 1542.97 L205.294 1542.97 L205.294 1548.85 L200.409 1548.85 L200.409 1542.97 Z" fill="#000000" fill-rule="nonzero" fill-opacity="1" /><path clip-path="url(#clip560)" d="M225.479 1517.37 Q221.867 1517.37 220.039 1520.93 Q218.233 1524.47 218.233 1531.6 Q218.233 1538.71 220.039 1542.27 Q221.867 1545.82 225.479 1545.82 Q229.113 1545.82 230.918 1542.27 Q232.747 1538.71 232.747 1531.6 Q232.747 1524.47 230.918 1520.93 Q229.113 1517.37 225.479 1517.37 M225.479 1513.66 Q231.289 1513.66 234.344 1518.27 Q237.423 1522.85 237.423 1531.6 Q237.423 1540.33 234.344 1544.94 Q231.289 1549.52 225.479 1549.52 Q219.668 1549.52 216.59 1544.94 Q213.534 1540.33 213.534 1531.6 Q213.534 1522.85 216.59 1518.27 Q219.668 1513.66 225.479 1513.66 Z" fill="#000000" fill-rule="nonzero" fill-opacity="1" /><path clip-path="url(#clip560)" d="M255.64 1517.37 Q252.029 1517.37 250.201 1520.93 Q248.395 1524.47 248.395 1531.6 Q248.395 1538.71 250.201 1542.27 Q252.029 1545.82 255.64 1545.82 Q259.275 1545.82 261.08 1542.27 Q262.909 1538.71 262.909 1531.6 Q262.909 1524.47 261.08 1520.93 Q259.275 1517.37 255.64 1517.37 M255.64 1513.66 Q261.451 1513.66 264.506 1518.27 Q267.585 1522.85 267.585 1531.6 Q267.585 1540.33 264.506 1544.94 Q261.451 1549.52 255.64 1549.52 Q249.83 1549.52 246.752 1544.94 Q243.696 1540.33 243.696 1531.6 Q243.696 1522.85 246.752 1518.27 Q249.83 1513.66 255.64 1513.66 Z" fill="#000000" fill-rule="nonzero" fill-opacity="1" /><path clip-path="url(#clip560)" d="M698.903 1517.37 Q695.292 1517.37 693.463 1520.93 Q691.658 1524.47 691.658 1531.6 Q691.658 1538.71 693.463 1542.27 Q695.292 1545.82 698.903 1545.82 Q702.538 1545.82 704.343 1542.27 Q706.172 1538.71 706.172 1531.6 Q706.172 1524.47 704.343 1520.93 Q702.538 1517.37 698.903 1517.37 M698.903 1513.66 Q704.713 1513.66 707.769 1518.27 Q710.848 1522.85 710.848 1531.6 Q710.848 1540.33 707.769 1544.94 Q704.713 1549.52 698.903 1549.52 Q693.093 1549.52 690.014 1544.94 Q686.959 1540.33 686.959 1531.6 Q686.959 1522.85 690.014 1518.27 Q693.093 1513.66 698.903 1513.66 Z" fill="#000000" fill-rule="nonzero" fill-opacity="1" /><path clip-path="url(#clip560)" d="M719.065 1542.97 L723.949 1542.97 L723.949 1548.85 L719.065 1548.85 L719.065 1542.97 Z" fill="#000000" fill-rule="nonzero" fill-opacity="1" /><path clip-path="url(#clip560)" d="M738.162 1544.91 L754.482 1544.91 L754.482 1548.85 L732.537 1548.85 L732.537 1544.91 Q735.199 1542.16 739.783 1537.53 Q744.389 1532.88 745.57 1531.53 Q747.815 1529.01 748.695 1527.27 Q749.597 1525.51 749.597 1523.82 Q749.597 1521.07 747.653 1519.33 Q745.732 1517.6 742.63 1517.6 Q740.431 1517.6 737.977 1518.36 Q735.547 1519.13 732.769 1520.68 L732.769 1515.95 Q735.593 1514.82 738.047 1514.24 Q740.5 1513.66 742.537 1513.66 Q747.908 1513.66 751.102 1516.35 Q754.296 1519.03 754.296 1523.52 Q754.296 1525.65 753.486 1527.57 Q752.699 1529.47 750.593 1532.07 Q750.014 1532.74 746.912 1535.95 Q743.81 1539.15 738.162 1544.91 Z" fill="#000000" fill-rule="nonzero" fill-opacity="1" /><path clip-path="url(#clip560)" d="M764.343 1514.29 L782.699 1514.29 L782.699 1518.22 L768.625 1518.22 L768.625 1526.7 Q769.644 1526.35 770.662 1526.19 Q771.681 1526 772.699 1526 Q778.486 1526 781.866 1529.17 Q785.245 1532.34 785.245 1537.76 Q785.245 1543.34 781.773 1546.44 Q778.301 1549.52 771.982 1549.52 Q769.806 1549.52 767.537 1549.15 Q765.292 1548.78 762.884 1548.04 L762.884 1543.34 Q764.968 1544.47 767.19 1545.03 Q769.412 1545.58 771.889 1545.58 Q775.894 1545.58 778.232 1543.48 Q780.57 1541.37 780.57 1537.76 Q780.57 1534.15 778.232 1532.04 Q775.894 1529.94 771.889 1529.94 Q770.014 1529.94 768.139 1530.35 Q766.287 1530.77 764.343 1531.65 L764.343 1514.29 Z" fill="#000000" fill-rule="nonzero" fill-opacity="1" /><path clip-path="url(#clip560)" d="M1216.56 1517.37 Q1212.95 1517.37 1211.12 1520.93 Q1209.32 1524.47 1209.32 1531.6 Q1209.32 1538.71 1211.12 1542.27 Q1212.95 1545.82 1216.56 1545.82 Q1220.2 1545.82 1222 1542.27 Q1223.83 1538.71 1223.83 1531.6 Q1223.83 1524.47 1222 1520.93 Q1220.2 1517.37 1216.56 1517.37 M1216.56 1513.66 Q1222.37 1513.66 1225.43 1518.27 Q1228.51 1522.85 1228.51 1531.6 Q1228.51 1540.33 1225.43 1544.94 Q1222.37 1549.52 1216.56 1549.52 Q1210.75 1549.52 1207.68 1544.94 Q1204.62 1540.33 1204.62 1531.6 Q1204.62 1522.85 1207.68 1518.27 Q1210.75 1513.66 1216.56 1513.66 Z" fill="#000000" fill-rule="nonzero" fill-opacity="1" /><path clip-path="url(#clip560)" d="M1236.73 1542.97 L1241.61 1542.97 L1241.61 1548.85 L1236.73 1548.85 L1236.73 1542.97 Z" fill="#000000" fill-rule="nonzero" fill-opacity="1" /><path clip-path="url(#clip560)" d="M1251.84 1514.29 L1270.2 1514.29 L1270.2 1518.22 L1256.12 1518.22 L1256.12 1526.7 Q1257.14 1526.35 1258.16 1526.19 Q1259.18 1526 1260.2 1526 Q1265.98 1526 1269.36 1529.17 Q1272.74 1532.34 1272.74 1537.76 Q1272.74 1543.34 1269.27 1546.44 Q1265.8 1549.52 1259.48 1549.52 Q1257.3 1549.52 1255.04 1549.15 Q1252.79 1548.78 1250.38 1548.04 L1250.38 1543.34 Q1252.47 1544.47 1254.69 1545.03 Q1256.91 1545.58 1259.39 1545.58 Q1263.39 1545.58 1265.73 1543.48 Q1268.07 1541.37 1268.07 1537.76 Q1268.07 1534.15 1265.73 1532.04 Q1263.39 1529.94 1259.39 1529.94 Q1257.51 1529.94 1255.64 1530.35 Q1253.79 1530.77 1251.84 1531.65 L1251.84 1514.29 Z" fill="#000000" fill-rule="nonzero" fill-opacity="1" /><path clip-path="url(#clip560)" d="M1291.96 1517.37 Q1288.35 1517.37 1286.52 1520.93 Q1284.71 1524.47 1284.71 1531.6 Q1284.71 1538.71 1286.52 1542.27 Q1288.35 1545.82 1291.96 1545.82 Q1295.59 1545.82 1297.4 1542.27 Q1299.23 1538.71 1299.23 1531.6 Q1299.23 1524.47 1297.4 1520.93 Q1295.59 1517.37 1291.96 1517.37 M1291.96 1513.66 Q1297.77 1513.66 1300.82 1518.27 Q1303.9 1522.85 1303.9 1531.6 Q1303.9 1540.33 1300.82 1544.94 Q1297.77 1549.52 1291.96 1549.52 Q1286.15 1549.52 1283.07 1544.94 Q1280.01 1540.33 1280.01 1531.6 Q1280.01 1522.85 1283.07 1518.27 Q1286.15 1513.66 1291.96 1513.66 Z" fill="#000000" fill-rule="nonzero" fill-opacity="1" /><path clip-path="url(#clip560)" d="M1735.22 1517.37 Q1731.61 1517.37 1729.78 1520.93 Q1727.97 1524.47 1727.97 1531.6 Q1727.97 1538.71 1729.78 1542.27 Q1731.61 1545.82 1735.22 1545.82 Q1738.85 1545.82 1740.66 1542.27 Q1742.49 1538.71 1742.49 1531.6 Q1742.49 1524.47 1740.66 1520.93 Q1738.85 1517.37 1735.22 1517.37 M1735.22 1513.66 Q1741.03 1513.66 1744.09 1518.27 Q1747.16 1522.85 1747.16 1531.6 Q1747.16 1540.33 1744.09 1544.94 Q1741.03 1549.52 1735.22 1549.52 Q1729.41 1549.52 1726.33 1544.94 Q1723.28 1540.33 1723.28 1531.6 Q1723.28 1522.85 1726.33 1518.27 Q1729.41 1513.66 1735.22 1513.66 Z" fill="#000000" fill-rule="nonzero" fill-opacity="1" /><path clip-path="url(#clip560)" d="M1755.38 1542.97 L1760.27 1542.97 L1760.27 1548.85 L1755.38 1548.85 L1755.38 1542.97 Z" fill="#000000" fill-rule="nonzero" fill-opacity="1" /><path clip-path="url(#clip560)" d="M1769.27 1514.29 L1791.49 1514.29 L1791.49 1516.28 L1778.95 1548.85 L1774.06 1548.85 L1785.87 1518.22 L1769.27 1518.22 L1769.27 1514.29 Z" fill="#000000" fill-rule="nonzero" fill-opacity="1" /><path clip-path="url(#clip560)" d="M1800.66 1514.29 L1819.02 1514.29 L1819.02 1518.22 L1804.94 1518.22 L1804.94 1526.7 Q1805.96 1526.35 1806.98 1526.19 Q1808 1526 1809.02 1526 Q1814.8 1526 1818.18 1529.17 Q1821.56 1532.34 1821.56 1537.76 Q1821.56 1543.34 1818.09 1546.44 Q1814.62 1549.52 1808.3 1549.52 Q1806.12 1549.52 1803.85 1549.15 Q1801.61 1548.78 1799.2 1548.04 L1799.2 1543.34 Q1801.28 1544.47 1803.51 1545.03 Q1805.73 1545.58 1808.21 1545.58 Q1812.21 1545.58 1814.55 1543.48 Q1816.89 1541.37 1816.89 1537.76 Q1816.89 1534.15 1814.55 1532.04 Q1812.21 1529.94 1808.21 1529.94 Q1806.33 1529.94 1804.46 1530.35 Q1802.6 1530.77 1800.66 1531.65 L1800.66 1514.29 Z" fill="#000000" fill-rule="nonzero" fill-opacity="1" /><path clip-path="url(#clip560)" d="M2242.65 1544.91 L2250.29 1544.91 L2250.29 1518.55 L2241.98 1520.21 L2241.98 1515.95 L2250.24 1514.29 L2254.92 1514.29 L2254.92 1544.91 L2262.56 1544.91 L2262.56 1548.85 L2242.65 1548.85 L2242.65 1544.91 Z" fill="#000000" fill-rule="nonzero" fill-opacity="1" /><path clip-path="url(#clip560)" d="M2272 1542.97 L2276.88 1542.97 L2276.88 1548.85 L2272 1548.85 L2272 1542.97 Z" fill="#000000" fill-rule="nonzero" fill-opacity="1" /><path clip-path="url(#clip560)" d="M2297.07 1517.37 Q2293.46 1517.37 2291.63 1520.93 Q2289.82 1524.47 2289.82 1531.6 Q2289.82 1538.71 2291.63 1542.27 Q2293.46 1545.82 2297.07 1545.82 Q2300.7 1545.82 2302.51 1542.27 Q2304.34 1538.71 2304.34 1531.6 Q2304.34 1524.47 2302.51 1520.93 Q2300.7 1517.37 2297.07 1517.37 M2297.07 1513.66 Q2302.88 1513.66 2305.94 1518.27 Q2309.01 1522.85 2309.01 1531.6 Q2309.01 1540.33 2305.94 1544.94 Q2302.88 1549.52 2297.07 1549.52 Q2291.26 1549.52 2288.18 1544.94 Q2285.13 1540.33 2285.13 1531.6 Q2285.13 1522.85 2288.18 1518.27 Q2291.26 1513.66 2297.07 1513.66 Z" fill="#000000" fill-rule="nonzero" fill-opacity="1" /><path clip-path="url(#clip560)" d="M2327.23 1517.37 Q2323.62 1517.37 2321.79 1520.93 Q2319.99 1524.47 2319.99 1531.6 Q2319.99 1538.71 2321.79 1542.27 Q2323.62 1545.82 2327.23 1545.82 Q2330.87 1545.82 2332.67 1542.27 Q2334.5 1538.71 2334.5 1531.6 Q2334.5 1524.47 2332.67 1520.93 Q2330.87 1517.37 2327.23 1517.37 M2327.23 1513.66 Q2333.04 1513.66 2336.1 1518.27 Q2339.18 1522.85 2339.18 1531.6 Q2339.18 1540.33 2336.1 1544.94 Q2333.04 1549.52 2327.23 1549.52 Q2321.42 1549.52 2318.34 1544.94 Q2315.29 1540.33 2315.29 1531.6 Q2315.29 1522.85 2318.34 1518.27 Q2321.42 1513.66 2327.23 1513.66 Z" fill="#000000" fill-rule="nonzero" fill-opacity="1" /><polyline clip-path="url(#clip560)" style="stroke:#000000; stroke-linecap:round; stroke-linejoin:round; stroke-width:4; stroke-opacity:1; fill:none" points="155.765,1486.45 155.765,47.2441 "/>
<polyline clip-path="url(#clip560)" style="stroke:#000000; stroke-linecap:round; stroke-linejoin:round; stroke-width:4; stroke-opacity:1; fill:none" points="155.765,1285.84 174.663,1285.84 "/>
<polyline clip-path="url(#clip560)" style="stroke:#000000; stroke-linecap:round; stroke-linejoin:round; stroke-width:4; stroke-opacity:1; fill:none" points="155.765,999.41 174.663,999.41 "/>
<polyline clip-path="url(#clip560)" style="stroke:#000000; stroke-linecap:round; stroke-linejoin:round; stroke-width:4; stroke-opacity:1; fill:none" points="155.765,712.978 174.663,712.978 "/>
<polyline clip-path="url(#clip560)" style="stroke:#000000; stroke-linecap:round; stroke-linejoin:round; stroke-width:4; stroke-opacity:1; fill:none" points="155.765,426.546 174.663,426.546 "/>
<polyline clip-path="url(#clip560)" style="stroke:#000000; stroke-linecap:round; stroke-linejoin:round; stroke-width:4; stroke-opacity:1; fill:none" points="155.765,140.114 174.663,140.114 "/>
<path clip-path="url(#clip560)" d="M63.5847 1271.64 Q59.9736 1271.64 58.1449 1275.21 Q56.3393 1278.75 56.3393 1285.88 Q56.3393 1292.98 58.1449 1296.55 Q59.9736 1300.09 63.5847 1300.09 Q67.2189 1300.09 69.0244 1296.55 Q70.8531 1292.98 70.8531 1285.88 Q70.8531 1278.75 69.0244 1275.21 Q67.2189 1271.64 63.5847 1271.64 M63.5847 1267.94 Q69.3948 1267.94 72.4503 1272.54 Q75.529 1277.13 75.529 1285.88 Q75.529 1294.6 72.4503 1299.21 Q69.3948 1303.79 63.5847 1303.79 Q57.7745 1303.79 54.6958 1299.21 Q51.6403 1294.6 51.6403 1285.88 Q51.6403 1277.13 54.6958 1272.54 Q57.7745 1267.94 63.5847 1267.94 Z" fill="#000000" fill-rule="nonzero" fill-opacity="1" /><path clip-path="url(#clip560)" d="M83.7466 1297.24 L88.6308 1297.24 L88.6308 1303.12 L83.7466 1303.12 L83.7466 1297.24 Z" fill="#000000" fill-rule="nonzero" fill-opacity="1" /><path clip-path="url(#clip560)" d="M98.8622 1268.56 L117.219 1268.56 L117.219 1272.5 L103.145 1272.5 L103.145 1280.97 Q104.163 1280.62 105.182 1280.46 Q106.2 1280.28 107.219 1280.28 Q113.006 1280.28 116.385 1283.45 Q119.765 1286.62 119.765 1292.03 Q119.765 1297.61 116.293 1300.72 Q112.82 1303.79 106.501 1303.79 Q104.325 1303.79 102.057 1303.42 Q99.8113 1303.05 97.4039 1302.31 L97.4039 1297.61 Q99.4872 1298.75 101.709 1299.3 Q103.932 1299.86 106.408 1299.86 Q110.413 1299.86 112.751 1297.75 Q115.089 1295.65 115.089 1292.03 Q115.089 1288.42 112.751 1286.32 Q110.413 1284.21 106.408 1284.21 Q104.534 1284.21 102.659 1284.63 Q100.807 1285.04 98.8622 1285.92 L98.8622 1268.56 Z" fill="#000000" fill-rule="nonzero" fill-opacity="1" /><path clip-path="url(#clip560)" d="M53.3995 1012.76 L61.0384 1012.76 L61.0384 986.39 L52.7282 988.056 L52.7282 983.797 L60.9921 982.13 L65.668 982.13 L65.668 1012.76 L73.3068 1012.76 L73.3068 1016.69 L53.3995 1016.69 L53.3995 1012.76 Z" fill="#000000" fill-rule="nonzero" fill-opacity="1" /><path clip-path="url(#clip560)" d="M82.7512 1010.81 L87.6354 1010.81 L87.6354 1016.69 L82.7512 1016.69 L82.7512 1010.81 Z" fill="#000000" fill-rule="nonzero" fill-opacity="1" /><path clip-path="url(#clip560)" d="M107.821 985.209 Q104.209 985.209 102.381 988.774 Q100.575 992.316 100.575 999.445 Q100.575 1006.55 102.381 1010.12 Q104.209 1013.66 107.821 1013.66 Q111.455 1013.66 113.26 1010.12 Q115.089 1006.55 115.089 999.445 Q115.089 992.316 113.26 988.774 Q111.455 985.209 107.821 985.209 M107.821 981.505 Q113.631 981.505 116.686 986.112 Q119.765 990.695 119.765 999.445 Q119.765 1008.17 116.686 1012.78 Q113.631 1017.36 107.821 1017.36 Q102.01 1017.36 98.9317 1012.78 Q95.8761 1008.17 95.8761 999.445 Q95.8761 990.695 98.9317 986.112 Q102.01 981.505 107.821 981.505 Z" fill="#000000" fill-rule="nonzero" fill-opacity="1" /><path clip-path="url(#clip560)" d="M54.3949 726.323 L62.0337 726.323 L62.0337 699.957 L53.7236 701.624 L53.7236 697.365 L61.9874 695.698 L66.6633 695.698 L66.6633 726.323 L74.3022 726.323 L74.3022 730.258 L54.3949 730.258 L54.3949 726.323 Z" fill="#000000" fill-rule="nonzero" fill-opacity="1" /><path clip-path="url(#clip560)" d="M83.7466 724.379 L88.6308 724.379 L88.6308 730.258 L83.7466 730.258 L83.7466 724.379 Z" fill="#000000" fill-rule="nonzero" fill-opacity="1" /><path clip-path="url(#clip560)" d="M98.8622 695.698 L117.219 695.698 L117.219 699.633 L103.145 699.633 L103.145 708.105 Q104.163 707.758 105.182 707.596 Q106.2 707.411 107.219 707.411 Q113.006 707.411 116.385 710.582 Q119.765 713.754 119.765 719.17 Q119.765 724.749 116.293 727.851 Q112.82 730.929 106.501 730.929 Q104.325 730.929 102.057 730.559 Q99.8113 730.189 97.4039 729.448 L97.4039 724.749 Q99.4872 725.883 101.709 726.439 Q103.932 726.994 106.408 726.994 Q110.413 726.994 112.751 724.888 Q115.089 722.781 115.089 719.17 Q115.089 715.559 112.751 713.453 Q110.413 711.346 106.408 711.346 Q104.534 711.346 102.659 711.763 Q100.807 712.18 98.8622 713.059 L98.8622 695.698 Z" fill="#000000" fill-rule="nonzero" fill-opacity="1" /><path clip-path="url(#clip560)" d="M56.6171 439.891 L72.9365 439.891 L72.9365 443.826 L50.9921 443.826 L50.9921 439.891 Q53.6541 437.136 58.2375 432.506 Q62.8439 427.854 64.0245 426.511 Q66.2698 423.988 67.1494 422.252 Q68.0522 420.493 68.0522 418.803 Q68.0522 416.048 66.1078 414.312 Q64.1865 412.576 61.0847 412.576 Q58.8856 412.576 56.4319 413.34 Q54.0014 414.104 51.2236 415.655 L51.2236 410.933 Q54.0477 409.798 56.5014 409.22 Q58.955 408.641 60.9921 408.641 Q66.3624 408.641 69.5568 411.326 Q72.7513 414.011 72.7513 418.502 Q72.7513 420.632 71.9411 422.553 Q71.1541 424.451 69.0476 427.044 Q68.4689 427.715 65.367 430.932 Q62.2652 434.127 56.6171 439.891 Z" fill="#000000" fill-rule="nonzero" fill-opacity="1" /><path clip-path="url(#clip560)" d="M82.7512 437.946 L87.6354 437.946 L87.6354 443.826 L82.7512 443.826 L82.7512 437.946 Z" fill="#000000" fill-rule="nonzero" fill-opacity="1" /><path clip-path="url(#clip560)" d="M107.821 412.345 Q104.209 412.345 102.381 415.909 Q100.575 419.451 100.575 426.581 Q100.575 433.687 102.381 437.252 Q104.209 440.793 107.821 440.793 Q111.455 440.793 113.26 437.252 Q115.089 433.687 115.089 426.581 Q115.089 419.451 113.26 415.909 Q111.455 412.345 107.821 412.345 M107.821 408.641 Q113.631 408.641 116.686 413.247 Q119.765 417.831 119.765 426.581 Q119.765 435.307 116.686 439.914 Q113.631 444.497 107.821 444.497 Q102.01 444.497 98.9317 439.914 Q95.8761 435.307 95.8761 426.581 Q95.8761 417.831 98.9317 413.247 Q102.01 408.641 107.821 408.641 Z" fill="#000000" fill-rule="nonzero" fill-opacity="1" /><path clip-path="url(#clip560)" d="M57.6125 153.458 L73.9318 153.458 L73.9318 157.394 L51.9875 157.394 L51.9875 153.458 Q54.6495 150.704 59.2328 146.074 Q63.8393 141.421 65.0198 140.079 Q67.2652 137.556 68.1448 135.82 Q69.0476 134.06 69.0476 132.371 Q69.0476 129.616 67.1032 127.88 Q65.1819 126.144 62.08 126.144 Q59.881 126.144 57.4273 126.908 Q54.9967 127.671 52.219 129.222 L52.219 124.5 Q55.043 123.366 57.4967 122.787 Q59.9504 122.209 61.9874 122.209 Q67.3578 122.209 70.5522 124.894 Q73.7466 127.579 73.7466 132.07 Q73.7466 134.199 72.9365 136.121 Q72.1494 138.019 70.0429 140.611 Q69.4642 141.283 66.3624 144.5 Q63.2606 147.695 57.6125 153.458 Z" fill="#000000" fill-rule="nonzero" fill-opacity="1" /><path clip-path="url(#clip560)" d="M83.7466 151.514 L88.6308 151.514 L88.6308 157.394 L83.7466 157.394 L83.7466 151.514 Z" fill="#000000" fill-rule="nonzero" fill-opacity="1" /><path clip-path="url(#clip560)" d="M98.8622 122.834 L117.219 122.834 L117.219 126.769 L103.145 126.769 L103.145 135.241 Q104.163 134.894 105.182 134.732 Q106.2 134.546 107.219 134.546 Q113.006 134.546 116.385 137.718 Q119.765 140.889 119.765 146.306 Q119.765 151.884 116.293 154.986 Q112.82 158.065 106.501 158.065 Q104.325 158.065 102.057 157.694 Q99.8113 157.324 97.4039 156.583 L97.4039 151.884 Q99.4872 153.019 101.709 153.574 Q103.932 154.13 106.408 154.13 Q110.413 154.13 112.751 152.023 Q115.089 149.917 115.089 146.306 Q115.089 142.695 112.751 140.588 Q110.413 138.482 106.408 138.482 Q104.534 138.482 102.659 138.898 Q100.807 139.315 98.8622 140.195 L98.8622 122.834 Z" fill="#000000" fill-rule="nonzero" fill-opacity="1" /><polyline clip-path="url(#clip561)" style="stroke:#009af9; stroke-linecap:round; stroke-linejoin:round; stroke-width:12; stroke-opacity:1; fill:none" points="217.944,1285.84 425.207,1224.49 632.47,1166.65 839.734,1134.68 1047,1186.33 1254.26,1100.69 1461.52,1088.48 1668.79,946.181 1876.05,873.338 2083.31,1060.31 2290.58,975.405 "/>
<polyline clip-path="url(#clip561)" style="stroke:#000000; stroke-linecap:round; stroke-linejoin:round; stroke-width:12; stroke-opacity:1; fill:none" points="217.944,1285.84 217.944,1285.84 "/>
<polyline clip-path="url(#clip561)" style="stroke:#000000; stroke-linecap:round; stroke-linejoin:round; stroke-width:12; stroke-opacity:1; fill:none" points="425.207,1310.8 425.207,1118.9 "/>
<polyline clip-path="url(#clip561)" style="stroke:#000000; stroke-linecap:round; stroke-linejoin:round; stroke-width:12; stroke-opacity:1; fill:none" points="632.47,1247.06 632.47,991.838 "/>
<polyline clip-path="url(#clip561)" style="stroke:#000000; stroke-linecap:round; stroke-linejoin:round; stroke-width:12; stroke-opacity:1; fill:none" points="839.734,1227.92 839.734,946.637 "/>
<polyline clip-path="url(#clip561)" style="stroke:#000000; stroke-linecap:round; stroke-linejoin:round; stroke-width:12; stroke-opacity:1; fill:none" points="1047,1252.99 1047,859.445 "/>
<polyline clip-path="url(#clip561)" style="stroke:#000000; stroke-linecap:round; stroke-linejoin:round; stroke-width:12; stroke-opacity:1; fill:none" points="1254.26,1253.78 1254.26,700.135 "/>
<polyline clip-path="url(#clip561)" style="stroke:#000000; stroke-linecap:round; stroke-linejoin:round; stroke-width:12; stroke-opacity:1; fill:none" points="1461.52,1259.5 1461.52,627.128 "/>
<polyline clip-path="url(#clip561)" style="stroke:#000000; stroke-linecap:round; stroke-linejoin:round; stroke-width:12; stroke-opacity:1; fill:none" points="1668.79,1328.65 1668.79,531.239 "/>
<polyline clip-path="url(#clip561)" style="stroke:#000000; stroke-linecap:round; stroke-linejoin:round; stroke-width:12; stroke-opacity:1; fill:none" points="1876.05,1346.42 1876.05,439.419 "/>
<polyline clip-path="url(#clip561)" style="stroke:#000000; stroke-linecap:round; stroke-linejoin:round; stroke-width:12; stroke-opacity:1; fill:none" points="2083.31,1288.17 2083.31,159.07 "/>
<polyline clip-path="url(#clip561)" style="stroke:#000000; stroke-linecap:round; stroke-linejoin:round; stroke-width:12; stroke-opacity:1; fill:none" points="2290.58,1306.65 2290.58,87.9763 "/>
<line clip-path="url(#clip561)" x1="233.944" y1="1285.84" x2="201.944" y2="1285.84" style="stroke:#000000; stroke-width:12; stroke-opacity:1"/>
<line clip-path="url(#clip561)" x1="233.944" y1="1285.84" x2="201.944" y2="1285.84" style="stroke:#000000; stroke-width:12; stroke-opacity:1"/>
<line clip-path="url(#clip561)" x1="441.207" y1="1310.8" x2="409.207" y2="1310.8" style="stroke:#000000; stroke-width:12; stroke-opacity:1"/>
<line clip-path="url(#clip561)" x1="441.207" y1="1118.9" x2="409.207" y2="1118.9" style="stroke:#000000; stroke-width:12; stroke-opacity:1"/>
<line clip-path="url(#clip561)" x1="648.47" y1="1247.06" x2="616.47" y2="1247.06" style="stroke:#000000; stroke-width:12; stroke-opacity:1"/>
<line clip-path="url(#clip561)" x1="648.47" y1="991.838" x2="616.47" y2="991.838" style="stroke:#000000; stroke-width:12; stroke-opacity:1"/>
<line clip-path="url(#clip561)" x1="855.734" y1="1227.92" x2="823.734" y2="1227.92" style="stroke:#000000; stroke-width:12; stroke-opacity:1"/>
<line clip-path="url(#clip561)" x1="855.734" y1="946.637" x2="823.734" y2="946.637" style="stroke:#000000; stroke-width:12; stroke-opacity:1"/>
<line clip-path="url(#clip561)" x1="1063" y1="1252.99" x2="1031" y2="1252.99" style="stroke:#000000; stroke-width:12; stroke-opacity:1"/>
<line clip-path="url(#clip561)" x1="1063" y1="859.445" x2="1031" y2="859.445" style="stroke:#000000; stroke-width:12; stroke-opacity:1"/>
<line clip-path="url(#clip561)" x1="1270.26" y1="1253.78" x2="1238.26" y2="1253.78" style="stroke:#000000; stroke-width:12; stroke-opacity:1"/>
<line clip-path="url(#clip561)" x1="1270.26" y1="700.135" x2="1238.26" y2="700.135" style="stroke:#000000; stroke-width:12; stroke-opacity:1"/>
<line clip-path="url(#clip561)" x1="1477.52" y1="1259.5" x2="1445.52" y2="1259.5" style="stroke:#000000; stroke-width:12; stroke-opacity:1"/>
<line clip-path="url(#clip561)" x1="1477.52" y1="627.128" x2="1445.52" y2="627.128" style="stroke:#000000; stroke-width:12; stroke-opacity:1"/>
<line clip-path="url(#clip561)" x1="1684.79" y1="1328.65" x2="1652.79" y2="1328.65" style="stroke:#000000; stroke-width:12; stroke-opacity:1"/>
<line clip-path="url(#clip561)" x1="1684.79" y1="531.239" x2="1652.79" y2="531.239" style="stroke:#000000; stroke-width:12; stroke-opacity:1"/>
<line clip-path="url(#clip561)" x1="1892.05" y1="1346.42" x2="1860.05" y2="1346.42" style="stroke:#000000; stroke-width:12; stroke-opacity:1"/>
<line clip-path="url(#clip561)" x1="1892.05" y1="439.419" x2="1860.05" y2="439.419" style="stroke:#000000; stroke-width:12; stroke-opacity:1"/>
<line clip-path="url(#clip561)" x1="2099.31" y1="1288.17" x2="2067.31" y2="1288.17" style="stroke:#000000; stroke-width:12; stroke-opacity:1"/>
<line clip-path="url(#clip561)" x1="2099.31" y1="159.07" x2="2067.31" y2="159.07" style="stroke:#000000; stroke-width:12; stroke-opacity:1"/>
<line clip-path="url(#clip561)" x1="2306.58" y1="1306.65" x2="2274.58" y2="1306.65" style="stroke:#000000; stroke-width:12; stroke-opacity:1"/>
<line clip-path="url(#clip561)" x1="2306.58" y1="87.9763" x2="2274.58" y2="87.9763" style="stroke:#000000; stroke-width:12; stroke-opacity:1"/>
<polyline clip-path="url(#clip561)" style="stroke:#e26f46; stroke-linecap:round; stroke-linejoin:round; stroke-width:12; stroke-opacity:1; fill:none" points="217.944,1285.84 425.207,1299.08 632.47,1316.95 839.734,1334.47 1047,1318.96 1254.26,1333.82 1461.52,1291.9 1668.79,1281.49 1876.05,1272.5 2083.31,1216.52 2290.58,1249.92 "/>
<polyline clip-path="url(#clip561)" style="stroke:#000000; stroke-linecap:round; stroke-linejoin:round; stroke-width:12; stroke-opacity:1; fill:none" points="217.944,1285.84 217.944,1285.84 "/>
<polyline clip-path="url(#clip561)" style="stroke:#000000; stroke-linecap:round; stroke-linejoin:round; stroke-width:12; stroke-opacity:1; fill:none" points="425.207,1387.21 425.207,1171.73 "/>
<polyline clip-path="url(#clip561)" style="stroke:#000000; stroke-linecap:round; stroke-linejoin:round; stroke-width:12; stroke-opacity:1; fill:none" points="632.47,1383.02 632.47,1181.5 "/>
<polyline clip-path="url(#clip561)" style="stroke:#000000; stroke-linecap:round; stroke-linejoin:round; stroke-width:12; stroke-opacity:1; fill:none" points="839.734,1365.54 839.734,1072.31 "/>
<polyline clip-path="url(#clip561)" style="stroke:#000000; stroke-linecap:round; stroke-linejoin:round; stroke-width:12; stroke-opacity:1; fill:none" points="1047,1384.29 1047,915.962 "/>
<polyline clip-path="url(#clip561)" style="stroke:#000000; stroke-linecap:round; stroke-linejoin:round; stroke-width:12; stroke-opacity:1; fill:none" points="1254.26,1382.6 1254.26,826.376 "/>
<polyline clip-path="url(#clip561)" style="stroke:#000000; stroke-linecap:round; stroke-linejoin:round; stroke-width:12; stroke-opacity:1; fill:none" points="1461.52,1406.4 1461.52,783.191 "/>
<polyline clip-path="url(#clip561)" style="stroke:#000000; stroke-linecap:round; stroke-linejoin:round; stroke-width:12; stroke-opacity:1; fill:none" points="1668.79,1432.29 1668.79,822.135 "/>
<polyline clip-path="url(#clip561)" style="stroke:#000000; stroke-linecap:round; stroke-linejoin:round; stroke-width:12; stroke-opacity:1; fill:none" points="1876.05,1419.09 1876.05,864.386 "/>
<polyline clip-path="url(#clip561)" style="stroke:#000000; stroke-linecap:round; stroke-linejoin:round; stroke-width:12; stroke-opacity:1; fill:none" points="2083.31,1378.46 2083.31,872.332 "/>
<polyline clip-path="url(#clip561)" style="stroke:#000000; stroke-linecap:round; stroke-linejoin:round; stroke-width:12; stroke-opacity:1; fill:none" points="2290.58,1445.72 2290.58,741.234 "/>
<line clip-path="url(#clip561)" x1="233.944" y1="1285.84" x2="201.944" y2="1285.84" style="stroke:#000000; stroke-width:12; stroke-opacity:1"/>
<line clip-path="url(#clip561)" x1="233.944" y1="1285.84" x2="201.944" y2="1285.84" style="stroke:#000000; stroke-width:12; stroke-opacity:1"/>
<line clip-path="url(#clip561)" x1="441.207" y1="1387.21" x2="409.207" y2="1387.21" style="stroke:#000000; stroke-width:12; stroke-opacity:1"/>
<line clip-path="url(#clip561)" x1="441.207" y1="1171.73" x2="409.207" y2="1171.73" style="stroke:#000000; stroke-width:12; stroke-opacity:1"/>
<line clip-path="url(#clip561)" x1="648.47" y1="1383.02" x2="616.47" y2="1383.02" style="stroke:#000000; stroke-width:12; stroke-opacity:1"/>
<line clip-path="url(#clip561)" x1="648.47" y1="1181.5" x2="616.47" y2="1181.5" style="stroke:#000000; stroke-width:12; stroke-opacity:1"/>
<line clip-path="url(#clip561)" x1="855.734" y1="1365.54" x2="823.734" y2="1365.54" style="stroke:#000000; stroke-width:12; stroke-opacity:1"/>
<line clip-path="url(#clip561)" x1="855.734" y1="1072.31" x2="823.734" y2="1072.31" style="stroke:#000000; stroke-width:12; stroke-opacity:1"/>
<line clip-path="url(#clip561)" x1="1063" y1="1384.29" x2="1031" y2="1384.29" style="stroke:#000000; stroke-width:12; stroke-opacity:1"/>
<line clip-path="url(#clip561)" x1="1063" y1="915.962" x2="1031" y2="915.962" style="stroke:#000000; stroke-width:12; stroke-opacity:1"/>
<line clip-path="url(#clip561)" x1="1270.26" y1="1382.6" x2="1238.26" y2="1382.6" style="stroke:#000000; stroke-width:12; stroke-opacity:1"/>
<line clip-path="url(#clip561)" x1="1270.26" y1="826.376" x2="1238.26" y2="826.376" style="stroke:#000000; stroke-width:12; stroke-opacity:1"/>
<line clip-path="url(#clip561)" x1="1477.52" y1="1406.4" x2="1445.52" y2="1406.4" style="stroke:#000000; stroke-width:12; stroke-opacity:1"/>
<line clip-path="url(#clip561)" x1="1477.52" y1="783.191" x2="1445.52" y2="783.191" style="stroke:#000000; stroke-width:12; stroke-opacity:1"/>
<line clip-path="url(#clip561)" x1="1684.79" y1="1432.29" x2="1652.79" y2="1432.29" style="stroke:#000000; stroke-width:12; stroke-opacity:1"/>
<line clip-path="url(#clip561)" x1="1684.79" y1="822.135" x2="1652.79" y2="822.135" style="stroke:#000000; stroke-width:12; stroke-opacity:1"/>
<line clip-path="url(#clip561)" x1="1892.05" y1="1419.09" x2="1860.05" y2="1419.09" style="stroke:#000000; stroke-width:12; stroke-opacity:1"/>
<line clip-path="url(#clip561)" x1="1892.05" y1="864.386" x2="1860.05" y2="864.386" style="stroke:#000000; stroke-width:12; stroke-opacity:1"/>
<line clip-path="url(#clip561)" x1="2099.31" y1="1378.46" x2="2067.31" y2="1378.46" style="stroke:#000000; stroke-width:12; stroke-opacity:1"/>
<line clip-path="url(#clip561)" x1="2099.31" y1="872.332" x2="2067.31" y2="872.332" style="stroke:#000000; stroke-width:12; stroke-opacity:1"/>
<line clip-path="url(#clip561)" x1="2306.58" y1="1445.72" x2="2274.58" y2="1445.72" style="stroke:#000000; stroke-width:12; stroke-opacity:1"/>
<line clip-path="url(#clip561)" x1="2306.58" y1="741.234" x2="2274.58" y2="741.234" style="stroke:#000000; stroke-width:12; stroke-opacity:1"/>
</svg>
