<?xml version="1.0" encoding="utf-8"?>
<svg xmlns="http://www.w3.org/2000/svg" xmlns:xlink="http://www.w3.org/1999/xlink" width="600" height="400" viewBox="0 0 2400 1600">
<defs>
  <clipPath id="clip450">
    <rect x="0" y="0" width="2400" height="1600"/>
  </clipPath>
</defs>
<path clip-path="url(#clip450)" d="M0 1600 L2400 1600 L2400 0 L0 0  Z" fill="#ffffff" fill-rule="evenodd" fill-opacity="1"/>
<defs>
  <clipPath id="clip451">
    <rect x="155" y="47" width="2198" height="1440"/>
  </clipPath>
</defs>
<path clip-path="url(#clip450)" d="M155.765 1486.45 L2352.76 1486.45 L2352.76 47.2441 L155.765 47.2441  Z" fill="#ffffff" fill-rule="evenodd" fill-opacity="1"/>
<polyline clip-path="url(#clip451)" style="stroke:#000000; stroke-linecap:round; stroke-linejoin:round; stroke-width:2; stroke-opacity:0.1; fill:none" points="217.944,1486.45 217.944,47.2441 "/>
<polyline clip-path="url(#clip451)" style="stroke:#000000; stroke-linecap:round; stroke-linejoin:round; stroke-width:2; stroke-opacity:0.1; fill:none" points="736.102,1486.45 736.102,47.2441 "/>
<polyline clip-path="url(#clip451)" style="stroke:#000000; stroke-linecap:round; stroke-linejoin:round; stroke-width:2; stroke-opacity:0.1; fill:none" points="1254.26,1486.45 1254.26,47.2441 "/>
<polyline clip-path="url(#clip451)" style="stroke:#000000; stroke-linecap:round; stroke-linejoin:round; stroke-width:2; stroke-opacity:0.1; fill:none" points="1772.42,1486.45 1772.42,47.2441 "/>
<polyline clip-path="url(#clip451)" style="stroke:#000000; stroke-linecap:round; stroke-linejoin:round; stroke-width:2; stroke-opacity:0.1; fill:none" points="2290.58,1486.45 2290.58,47.2441 "/>
<polyline clip-path="url(#clip451)" style="stroke:#000000; stroke-linecap:round; stroke-linejoin:round; stroke-width:2; stroke-opacity:0.1; fill:none" points="155.765,1292.64 2352.76,1292.64 "/>
<polyline clip-path="url(#clip451)" style="stroke:#000000; stroke-linecap:round; stroke-linejoin:round; stroke-width:2; stroke-opacity:0.1; fill:none" points="155.765,1073.89 2352.76,1073.89 "/>
<polyline clip-path="url(#clip451)" style="stroke:#000000; stroke-linecap:round; stroke-linejoin:round; stroke-width:2; stroke-opacity:0.1; fill:none" points="155.765,855.136 2352.76,855.136 "/>
<polyline clip-path="url(#clip451)" style="stroke:#000000; stroke-linecap:round; stroke-linejoin:round; stroke-width:2; stroke-opacity:0.1; fill:none" points="155.765,636.384 2352.76,636.384 "/>
<polyline clip-path="url(#clip451)" style="stroke:#000000; stroke-linecap:round; stroke-linejoin:round; stroke-width:2; stroke-opacity:0.1; fill:none" points="155.765,417.632 2352.76,417.632 "/>
<polyline clip-path="url(#clip451)" style="stroke:#000000; stroke-linecap:round; stroke-linejoin:round; stroke-width:2; stroke-opacity:0.1; fill:none" points="155.765,198.881 2352.76,198.881 "/>
<polyline clip-path="url(#clip450)" style="stroke:#000000; stroke-linecap:round; stroke-linejoin:round; stroke-width:4; stroke-opacity:1; fill:none" points="155.765,1486.45 2352.76,1486.45 "/>
<polyline clip-path="url(#clip450)" style="stroke:#000000; stroke-linecap:round; stroke-linejoin:round; stroke-width:4; stroke-opacity:1; fill:none" points="217.944,1486.45 217.944,1467.55 "/>
<polyline clip-path="url(#clip450)" style="stroke:#000000; stroke-linecap:round; stroke-linejoin:round; stroke-width:4; stroke-opacity:1; fill:none" points="736.102,1486.45 736.102,1467.55 "/>
<polyline clip-path="url(#clip450)" style="stroke:#000000; stroke-linecap:round; stroke-linejoin:round; stroke-width:4; stroke-opacity:1; fill:none" points="1254.26,1486.45 1254.26,1467.55 "/>
<polyline clip-path="url(#clip450)" style="stroke:#000000; stroke-linecap:round; stroke-linejoin:round; stroke-width:4; stroke-opacity:1; fill:none" points="1772.42,1486.45 1772.42,1467.55 "/>
<polyline clip-path="url(#clip450)" style="stroke:#000000; stroke-linecap:round; stroke-linejoin:round; stroke-width:4; stroke-opacity:1; fill:none" points="2290.58,1486.45 2290.58,1467.55 "/>
<path clip-path="url(#clip450)" d="M180.247 1517.37 Q176.636 1517.37 174.808 1520.93 Q173.002 1524.47 173.002 1531.6 Q173.002 1538.71 174.808 1542.27 Q176.636 1545.82 180.247 1545.82 Q183.882 1545.82 185.687 1542.27 Q187.516 1538.71 187.516 1531.6 Q187.516 1524.47 185.687 1520.93 Q183.882 1517.37 180.247 1517.37 M180.247 1513.66 Q186.057 1513.66 189.113 1518.27 Q192.192 1522.85 192.192 1531.6 Q192.192 1540.33 189.113 1544.94 Q186.057 1549.52 180.247 1549.52 Q174.437 1549.52 171.358 1544.94 Q168.303 1540.33 168.303 1531.6 Q168.303 1522.85 171.358 1518.27 Q174.437 1513.66 180.247 1513.66 Z" fill="#000000" fill-rule="nonzero" fill-opacity="1" /><path clip-path="url(#clip450)" d="M200.409 1542.97 L205.294 1542.97 L205.294 1548.85 L200.409 1548.85 L200.409 1542.97 Z" fill="#000000" fill-rule="nonzero" fill-opacity="1" /><path clip-path="url(#clip450)" d="M225.479 1517.37 Q221.867 1517.37 220.039 1520.93 Q218.233 1524.47 218.233 1531.6 Q218.233 1538.71 220.039 1542.27 Q221.867 1545.82 225.479 1545.82 Q229.113 1545.82 230.918 1542.27 Q232.747 1538.71 232.747 1531.6 Q232.747 1524.47 230.918 1520.93 Q229.113 1517.37 225.479 1517.37 M225.479 1513.66 Q231.289 1513.66 234.344 1518.27 Q237.423 1522.85 237.423 1531.6 Q237.423 1540.33 234.344 1544.94 Q231.289 1549.52 225.479 1549.52 Q219.668 1549.52 216.59 1544.94 Q213.534 1540.33 213.534 1531.6 Q213.534 1522.85 216.59 1518.27 Q219.668 1513.66 225.479 1513.66 Z" fill="#000000" fill-rule="nonzero" fill-opacity="1" /><path clip-path="url(#clip450)" d="M255.64 1517.37 Q252.029 1517.37 250.201 1520.93 Q248.395 1524.47 248.395 1531.6 Q248.395 1538.71 250.201 1542.27 Q252.029 1545.82 255.64 1545.82 Q259.275 1545.82 261.08 1542.27 Q262.909 1538.71 262.909 1531.6 Q262.909 1524.47 261.08 1520.93 Q259.275 1517.37 255.64 1517.37 M255.64 1513.66 Q261.451 1513.66 264.506 1518.27 Q267.585 1522.85 267.585 1531.6 Q267.585 1540.33 264.506 1544.94 Q261.451 1549.52 255.64 1549.52 Q249.83 1549.52 246.752 1544.94 Q243.696 1540.33 243.696 1531.6 Q243.696 1522.85 246.752 1518.27 Q249.83 1513.66 255.64 1513.66 Z" fill="#000000" fill-rule="nonzero" fill-opacity="1" /><path clip-path="url(#clip450)" d="M698.903 1517.37 Q695.292 1517.37 693.463 1520.93 Q691.658 1524.47 691.658 1531.6 Q691.658 1538.71 693.463 1542.27 Q695.292 1545.82 698.903 1545.82 Q702.538 1545.82 704.343 1542.27 Q706.172 1538.71 706.172 1531.6 Q706.172 1524.47 704.343 1520.93 Q702.538 1517.37 698.903 1517.37 M698.903 1513.66 Q704.713 1513.66 707.769 1518.27 Q710.848 1522.85 710.848 1531.6 Q710.848 1540.33 707.769 1544.94 Q704.713 1549.52 698.903 1549.52 Q693.093 1549.52 690.014 1544.94 Q686.959 1540.33 686.959 1531.6 Q686.959 1522.85 690.014 1518.27 Q693.093 1513.66 698.903 1513.66 Z" fill="#000000" fill-rule="nonzero" fill-opacity="1" /><path clip-path="url(#clip450)" d="M719.065 1542.97 L723.949 1542.97 L723.949 1548.85 L719.065 1548.85 L719.065 1542.97 Z" fill="#000000" fill-rule="nonzero" fill-opacity="1" /><path clip-path="url(#clip450)" d="M738.162 1544.91 L754.482 1544.91 L754.482 1548.85 L732.537 1548.85 L732.537 1544.91 Q735.199 1542.16 739.783 1537.53 Q744.389 1532.88 745.57 1531.53 Q747.815 1529.01 748.695 1527.27 Q749.597 1525.51 749.597 1523.82 Q749.597 1521.07 747.653 1519.33 Q745.732 1517.6 742.63 1517.6 Q740.431 1517.6 737.977 1518.36 Q735.547 1519.13 732.769 1520.68 L732.769 1515.95 Q735.593 1514.82 738.047 1514.24 Q740.5 1513.66 742.537 1513.66 Q747.908 1513.66 751.102 1516.35 Q754.296 1519.03 754.296 1523.52 Q754.296 1525.65 753.486 1527.57 Q752.699 1529.47 750.593 1532.07 Q750.014 1532.74 746.912 1535.95 Q743.81 1539.15 738.162 1544.91 Z" fill="#000000" fill-rule="nonzero" fill-opacity="1" /><path clip-path="url(#clip450)" d="M764.343 1514.29 L782.699 1514.29 L782.699 1518.22 L768.625 1518.22 L768.625 1526.7 Q769.644 1526.35 770.662 1526.19 Q771.681 1526 772.699 1526 Q778.486 1526 781.866 1529.17 Q785.245 1532.34 785.245 1537.76 Q785.245 1543.34 781.773 1546.44 Q778.301 1549.52 771.982 1549.52 Q769.806 1549.52 767.537 1549.15 Q765.292 1548.78 762.884 1548.04 L762.884 1543.34 Q764.968 1544.47 767.19 1545.03 Q769.412 1545.58 771.889 1545.58 Q775.894 1545.58 778.232 1543.48 Q780.57 1541.37 780.57 1537.76 Q780.57 1534.15 778.232 1532.04 Q775.894 1529.94 771.889 1529.94 Q770.014 1529.94 768.139 1530.35 Q766.287 1530.77 764.343 1531.65 L764.343 1514.29 Z" fill="#000000" fill-rule="nonzero" fill-opacity="1" /><path clip-path="url(#clip450)" d="M1216.56 1517.37 Q1212.95 1517.37 1211.12 1520.93 Q1209.32 1524.47 1209.32 1531.6 Q1209.32 1538.71 1211.12 1542.27 Q1212.95 1545.82 1216.56 1545.82 Q1220.2 1545.82 1222 1542.27 Q1223.83 1538.71 1223.83 1531.6 Q1223.83 1524.47 1222 1520.93 Q1220.2 1517.37 1216.56 1517.37 M1216.56 1513.66 Q1222.37 1513.66 1225.43 1518.27 Q1228.51 1522.85 1228.51 1531.6 Q1228.51 1540.33 1225.43 1544.94 Q1222.37 1549.52 1216.56 1549.52 Q1210.75 1549.52 1207.68 1544.94 Q1204.62 1540.33 1204.62 1531.6 Q1204.62 1522.85 1207.68 1518.27 Q1210.75 1513.66 1216.56 1513.66 Z" fill="#000000" fill-rule="nonzero" fill-opacity="1" /><path clip-path="url(#clip450)" d="M1236.73 1542.97 L1241.61 1542.97 L1241.61 1548.85 L1236.73 1548.85 L1236.73 1542.97 Z" fill="#000000" fill-rule="nonzero" fill-opacity="1" /><path clip-path="url(#clip450)" d="M1251.84 1514.29 L1270.2 1514.29 L1270.2 1518.22 L1256.12 1518.22 L1256.12 1526.7 Q1257.14 1526.35 1258.16 1526.19 Q1259.18 1526 1260.2 1526 Q1265.98 1526 1269.36 1529.17 Q1272.74 1532.34 1272.74 1537.76 Q1272.74 1543.34 1269.27 1546.44 Q1265.8 1549.52 1259.48 1549.52 Q1257.3 1549.52 1255.04 1549.15 Q1252.79 1548.78 1250.38 1548.04 L1250.38 1543.34 Q1252.47 1544.47 1254.69 1545.03 Q1256.91 1545.58 1259.39 1545.58 Q1263.39 1545.58 1265.73 1543.48 Q1268.07 1541.37 1268.07 1537.76 Q1268.07 1534.15 1265.73 1532.04 Q1263.39 1529.94 1259.39 1529.94 Q1257.51 1529.94 1255.64 1530.35 Q1253.79 1530.77 1251.84 1531.65 L1251.84 1514.29 Z" fill="#000000" fill-rule="nonzero" fill-opacity="1" /><path clip-path="url(#clip450)" d="M1291.96 1517.37 Q1288.35 1517.37 1286.52 1520.93 Q1284.71 1524.47 1284.71 1531.6 Q1284.71 1538.71 1286.52 1542.27 Q1288.35 1545.82 1291.96 1545.82 Q1295.59 1545.82 1297.4 1542.27 Q1299.23 1538.71 1299.23 1531.6 Q1299.23 1524.47 1297.4 1520.93 Q1295.59 1517.37 1291.96 1517.37 M1291.96 1513.66 Q1297.77 1513.66 1300.82 1518.27 Q1303.9 1522.85 1303.9 1531.6 Q1303.9 1540.33 1300.82 1544.94 Q1297.77 1549.52 1291.96 1549.52 Q1286.15 1549.52 1283.07 1544.94 Q1280.01 1540.33 1280.01 1531.6 Q1280.01 1522.85 1283.07 1518.27 Q1286.15 1513.66 1291.96 1513.66 Z" fill="#000000" fill-rule="nonzero" fill-opacity="1" /><path clip-path="url(#clip450)" d="M1735.22 1517.37 Q1731.61 1517.37 1729.78 1520.93 Q1727.97 1524.47 1727.97 1531.6 Q1727.97 1538.71 1729.78 1542.27 Q1731.61 1545.82 1735.22 1545.82 Q1738.85 1545.82 1740.66 1542.27 Q1742.49 1538.71 1742.49 1531.6 Q1742.49 1524.47 1740.66 1520.93 Q1738.85 1517.37 1735.22 1517.37 M1735.22 1513.66 Q1741.03 1513.66 1744.09 1518.27 Q1747.16 1522.85 1747.16 1531.6 Q1747.16 1540.33 1744.09 1544.94 Q1741.03 1549.52 1735.22 1549.52 Q1729.41 1549.52 1726.33 1544.94 Q1723.28 1540.33 1723.28 1531.6 Q1723.28 1522.85 1726.33 1518.27 Q1729.41 1513.66 1735.22 1513.66 Z" fill="#000000" fill-rule="nonzero" fill-opacity="1" /><path clip-path="url(#clip450)" d="M1755.38 1542.97 L1760.27 1542.97 L1760.27 1548.85 L1755.38 1548.85 L1755.38 1542.97 Z" fill="#000000" fill-rule="nonzero" fill-opacity="1" /><path clip-path="url(#clip450)" d="M1769.27 1514.29 L1791.49 1514.29 L1791.49 1516.28 L1778.95 1548.85 L1774.06 1548.85 L1785.87 1518.22 L1769.27 1518.22 L1769.27 1514.29 Z" fill="#000000" fill-rule="nonzero" fill-opacity="1" /><path clip-path="url(#clip450)" d="M1800.66 1514.29 L1819.02 1514.29 L1819.02 1518.22 L1804.94 1518.22 L1804.94 1526.7 Q1805.96 1526.35 1806.98 1526.19 Q1808 1526 1809.02 1526 Q1814.8 1526 1818.18 1529.17 Q1821.56 1532.34 1821.56 1537.76 Q1821.56 1543.34 1818.09 1546.44 Q1814.62 1549.52 1808.3 1549.52 Q1806.12 1549.52 1803.85 1549.15 Q1801.61 1548.78 1799.2 1548.04 L1799.2 1543.34 Q1801.28 1544.47 1803.51 1545.03 Q1805.73 1545.58 1808.21 1545.58 Q1812.21 1545.58 1814.55 1543.48 Q1816.89 1541.37 1816.89 1537.76 Q1816.89 1534.15 1814.55 1532.04 Q1812.21 1529.94 1808.21 1529.94 Q1806.33 1529.94 1804.46 1530.35 Q1802.6 1530.77 1800.66 1531.65 L1800.66 1514.29 Z" fill="#000000" fill-rule="nonzero" fill-opacity="1" /><path clip-path="url(#clip450)" d="M2242.65 1544.91 L2250.29 1544.91 L2250.29 1518.55 L2241.98 1520.21 L2241.98 1515.95 L2250.24 1514.29 L2254.92 1514.29 L2254.92 1544.91 L2262.56 1544.91 L2262.56 1548.85 L2242.65 1548.85 L2242.65 1544.91 Z" fill="#000000" fill-rule="nonzero" fill-opacity="1" /><path clip-path="url(#clip450)" d="M2272 1542.97 L2276.88 1542.97 L2276.88 1548.85 L2272 1548.85 L2272 1542.97 Z" fill="#000000" fill-rule="nonzero" fill-opacity="1" /><path clip-path="url(#clip450)" d="M2297.07 1517.37 Q2293.46 1517.37 2291.63 1520.93 Q2289.82 1524.47 2289.82 1531.6 Q2289.82 1538.71 2291.63 1542.27 Q2293.46 1545.82 2297.07 1545.82 Q2300.7 1545.82 2302.51 1542.27 Q2304.34 1538.71 2304.34 1531.6 Q2304.34 1524.47 2302.51 1520.93 Q2300.7 1517.37 2297.07 1517.37 M2297.07 1513.66 Q2302.88 1513.66 2305.94 1518.27 Q2309.01 1522.85 2309.01 1531.6 Q2309.01 1540.33 2305.94 1544.94 Q2302.88 1549.52 2297.07 1549.52 Q2291.26 1549.52 2288.18 1544.94 Q2285.13 1540.33 2285.13 1531.6 Q2285.13 1522.85 2288.18 1518.27 Q2291.26 1513.66 2297.07 1513.66 Z" fill="#000000" fill-rule="nonzero" fill-opacity="1" /><path clip-path="url(#clip450)" d="M2327.23 1517.37 Q2323.62 1517.37 2321.79 1520.93 Q2319.99 1524.47 2319.99 1531.6 Q2319.99 1538.71 2321.79 1542.27 Q2323.62 1545.82 2327.23 1545.82 Q2330.87 1545.82 2332.67 1542.27 Q2334.5 1538.71 2334.5 1531.6 Q2334.5 1524.47 2332.67 1520.93 Q2330.87 1517.37 2327.23 1517.37 M2327.23 1513.66 Q2333.04 1513.66 2336.1 1518.27 Q2339.18 1522.85 2339.18 1531.6 Q2339.18 1540.33 2336.1 1544.94 Q2333.04 1549.52 2327.23 1549.52 Q2321.42 1549.52 2318.34 1544.94 Q2315.29 1540.33 2315.29 1531.6 Q2315.29 1522.85 2318.34 1518.27 Q2321.42 1513.66 2327.23 1513.66 Z" fill="#000000" fill-rule="nonzero" fill-opacity="1" /><polyline clip-path="url(#clip450)" style="stroke:#000000; stroke-linecap:round; stroke-linejoin:round; stroke-width:4; stroke-opacity:1; fill:none" points="155.765,1486.45 155.765,47.2441 "/>
<polyline clip-path="url(#clip450)" style="stroke:#000000; stroke-linecap:round; stroke-linejoin:round; stroke-width:4; stroke-opacity:1; fill:none" points="155.765,1292.64 174.663,1292.64 "/>
<polyline clip-path="url(#clip450)" style="stroke:#000000; stroke-linecap:round; stroke-linejoin:round; stroke-width:4; stroke-opacity:1; fill:none" points="155.765,1073.89 174.663,1073.89 "/>
<polyline clip-path="url(#clip450)" style="stroke:#000000; stroke-linecap:round; stroke-linejoin:round; stroke-width:4; stroke-opacity:1; fill:none" points="155.765,855.136 174.663,855.136 "/>
<polyline clip-path="url(#clip450)" style="stroke:#000000; stroke-linecap:round; stroke-linejoin:round; stroke-width:4; stroke-opacity:1; fill:none" points="155.765,636.384 174.663,636.384 "/>
<polyline clip-path="url(#clip450)" style="stroke:#000000; stroke-linecap:round; stroke-linejoin:round; stroke-width:4; stroke-opacity:1; fill:none" points="155.765,417.632 174.663,417.632 "/>
<polyline clip-path="url(#clip450)" style="stroke:#000000; stroke-linecap:round; stroke-linejoin:round; stroke-width:4; stroke-opacity:1; fill:none" points="155.765,198.881 174.663,198.881 "/>
<path clip-path="url(#clip450)" d="M63.5847 1278.44 Q59.9736 1278.44 58.1449 1282 Q56.3393 1285.55 56.3393 1292.67 Q56.3393 1299.78 58.1449 1303.35 Q59.9736 1306.89 63.5847 1306.89 Q67.2189 1306.89 69.0244 1303.35 Q70.8531 1299.78 70.8531 1292.67 Q70.8531 1285.55 69.0244 1282 Q67.2189 1278.44 63.5847 1278.44 M63.5847 1274.74 Q69.3948 1274.74 72.4503 1279.34 Q75.529 1283.93 75.529 1292.67 Q75.529 1301.4 72.4503 1306.01 Q69.3948 1310.59 63.5847 1310.59 Q57.7745 1310.59 54.6958 1306.01 Q51.6403 1301.4 51.6403 1292.67 Q51.6403 1283.93 54.6958 1279.34 Q57.7745 1274.74 63.5847 1274.74 Z" fill="#000000" fill-rule="nonzero" fill-opacity="1" /><path clip-path="url(#clip450)" d="M83.7466 1304.04 L88.6308 1304.04 L88.6308 1309.92 L83.7466 1309.92 L83.7466 1304.04 Z" fill="#000000" fill-rule="nonzero" fill-opacity="1" /><path clip-path="url(#clip450)" d="M98.8622 1275.36 L117.219 1275.36 L117.219 1279.3 L103.145 1279.3 L103.145 1287.77 Q104.163 1287.42 105.182 1287.26 Q106.2 1287.07 107.219 1287.07 Q113.006 1287.07 116.385 1290.24 Q119.765 1293.42 119.765 1298.83 Q119.765 1304.41 116.293 1307.51 Q112.82 1310.59 106.501 1310.59 Q104.325 1310.59 102.057 1310.22 Q99.8113 1309.85 97.4039 1309.11 L97.4039 1304.41 Q99.4872 1305.55 101.709 1306.1 Q103.932 1306.66 106.408 1306.66 Q110.413 1306.66 112.751 1304.55 Q115.089 1302.44 115.089 1298.83 Q115.089 1295.22 112.751 1293.11 Q110.413 1291.01 106.408 1291.01 Q104.534 1291.01 102.659 1291.42 Q100.807 1291.84 98.8622 1292.72 L98.8622 1275.36 Z" fill="#000000" fill-rule="nonzero" fill-opacity="1" /><path clip-path="url(#clip450)" d="M53.3995 1087.23 L61.0384 1087.23 L61.0384 1060.87 L52.7282 1062.53 L52.7282 1058.27 L60.9921 1056.61 L65.668 1056.61 L65.668 1087.23 L73.3068 1087.23 L73.3068 1091.17 L53.3995 1091.17 L53.3995 1087.23 Z" fill="#000000" fill-rule="nonzero" fill-opacity="1" /><path clip-path="url(#clip450)" d="M82.7512 1085.29 L87.6354 1085.29 L87.6354 1091.17 L82.7512 1091.17 L82.7512 1085.29 Z" fill="#000000" fill-rule="nonzero" fill-opacity="1" /><path clip-path="url(#clip450)" d="M107.821 1059.69 Q104.209 1059.69 102.381 1063.25 Q100.575 1066.79 100.575 1073.92 Q100.575 1081.03 102.381 1084.59 Q104.209 1088.14 107.821 1088.14 Q111.455 1088.14 113.26 1084.59 Q115.089 1081.03 115.089 1073.92 Q115.089 1066.79 113.26 1063.25 Q111.455 1059.69 107.821 1059.69 M107.821 1055.98 Q113.631 1055.98 116.686 1060.59 Q119.765 1065.17 119.765 1073.92 Q119.765 1082.65 116.686 1087.26 Q113.631 1091.84 107.821 1091.84 Q102.01 1091.84 98.9317 1087.26 Q95.8761 1082.65 95.8761 1073.92 Q95.8761 1065.17 98.9317 1060.59 Q102.01 1055.98 107.821 1055.98 Z" fill="#000000" fill-rule="nonzero" fill-opacity="1" /><path clip-path="url(#clip450)" d="M54.3949 868.481 L62.0337 868.481 L62.0337 842.116 L53.7236 843.782 L53.7236 839.523 L61.9874 837.856 L66.6633 837.856 L66.6633 868.481 L74.3022 868.481 L74.3022 872.416 L54.3949 872.416 L54.3949 868.481 Z" fill="#000000" fill-rule="nonzero" fill-opacity="1" /><path clip-path="url(#clip450)" d="M83.7466 866.537 L88.6308 866.537 L88.6308 872.416 L83.7466 872.416 L83.7466 866.537 Z" fill="#000000" fill-rule="nonzero" fill-opacity="1" /><path clip-path="url(#clip450)" d="M98.8622 837.856 L117.219 837.856 L117.219 841.792 L103.145 841.792 L103.145 850.264 Q104.163 849.916 105.182 849.754 Q106.2 849.569 107.219 849.569 Q113.006 849.569 116.385 852.741 Q119.765 855.912 119.765 861.328 Q119.765 866.907 116.293 870.009 Q112.82 873.088 106.501 873.088 Q104.325 873.088 102.057 872.717 Q99.8113 872.347 97.4039 871.606 L97.4039 866.907 Q99.4872 868.041 101.709 868.597 Q103.932 869.152 106.408 869.152 Q110.413 869.152 112.751 867.046 Q115.089 864.94 115.089 861.328 Q115.089 857.717 112.751 855.611 Q110.413 853.504 106.408 853.504 Q104.534 853.504 102.659 853.921 Q100.807 854.338 98.8622 855.217 L98.8622 837.856 Z" fill="#000000" fill-rule="nonzero" fill-opacity="1" /><path clip-path="url(#clip450)" d="M56.6171 649.729 L72.9365 649.729 L72.9365 653.664 L50.9921 653.664 L50.9921 649.729 Q53.6541 646.975 58.2375 642.345 Q62.8439 637.692 64.0245 636.35 Q66.2698 633.827 67.1494 632.09 Q68.0522 630.331 68.0522 628.641 Q68.0522 625.887 66.1078 624.151 Q64.1865 622.415 61.0847 622.415 Q58.8856 622.415 56.4319 623.178 Q54.0014 623.942 51.2236 625.493 L51.2236 620.771 Q54.0477 619.637 56.5014 619.058 Q58.955 618.479 60.9921 618.479 Q66.3624 618.479 69.5568 621.165 Q72.7513 623.85 72.7513 628.34 Q72.7513 630.47 71.9411 632.391 Q71.1541 634.29 69.0476 636.882 Q68.4689 637.553 65.367 640.771 Q62.2652 643.965 56.6171 649.729 Z" fill="#000000" fill-rule="nonzero" fill-opacity="1" /><path clip-path="url(#clip450)" d="M82.7512 647.785 L87.6354 647.785 L87.6354 653.664 L82.7512 653.664 L82.7512 647.785 Z" fill="#000000" fill-rule="nonzero" fill-opacity="1" /><path clip-path="url(#clip450)" d="M107.821 622.183 Q104.209 622.183 102.381 625.748 Q100.575 629.29 100.575 636.419 Q100.575 643.526 102.381 647.09 Q104.209 650.632 107.821 650.632 Q111.455 650.632 113.26 647.09 Q115.089 643.526 115.089 636.419 Q115.089 629.29 113.26 625.748 Q111.455 622.183 107.821 622.183 M107.821 618.479 Q113.631 618.479 116.686 623.086 Q119.765 627.669 119.765 636.419 Q119.765 645.146 116.686 649.752 Q113.631 654.336 107.821 654.336 Q102.01 654.336 98.9317 649.752 Q95.8761 645.146 95.8761 636.419 Q95.8761 627.669 98.9317 623.086 Q102.01 618.479 107.821 618.479 Z" fill="#000000" fill-rule="nonzero" fill-opacity="1" /><path clip-path="url(#clip450)" d="M57.6125 430.977 L73.9318 430.977 L73.9318 434.912 L51.9875 434.912 L51.9875 430.977 Q54.6495 428.223 59.2328 423.593 Q63.8393 418.94 65.0198 417.598 Q67.2652 415.075 68.1448 413.338 Q69.0476 411.579 69.0476 409.889 Q69.0476 407.135 67.1032 405.399 Q65.1819 403.663 62.08 403.663 Q59.881 403.663 57.4273 404.427 Q54.9967 405.19 52.219 406.741 L52.219 402.019 Q55.043 400.885 57.4967 400.306 Q59.9504 399.727 61.9874 399.727 Q67.3578 399.727 70.5522 402.413 Q73.7466 405.098 73.7466 409.589 Q73.7466 411.718 72.9365 413.639 Q72.1494 415.538 70.0429 418.13 Q69.4642 418.801 66.3624 422.019 Q63.2606 425.213 57.6125 430.977 Z" fill="#000000" fill-rule="nonzero" fill-opacity="1" /><path clip-path="url(#clip450)" d="M83.7466 429.033 L88.6308 429.033 L88.6308 434.912 L83.7466 434.912 L83.7466 429.033 Z" fill="#000000" fill-rule="nonzero" fill-opacity="1" /><path clip-path="url(#clip450)" d="M98.8622 400.352 L117.219 400.352 L117.219 404.288 L103.145 404.288 L103.145 412.76 Q104.163 412.413 105.182 412.251 Q106.2 412.065 107.219 412.065 Q113.006 412.065 116.385 415.237 Q119.765 418.408 119.765 423.825 Q119.765 429.403 116.293 432.505 Q112.82 435.584 106.501 435.584 Q104.325 435.584 102.057 435.213 Q99.8113 434.843 97.4039 434.102 L97.4039 429.403 Q99.4872 430.537 101.709 431.093 Q103.932 431.649 106.408 431.649 Q110.413 431.649 112.751 429.542 Q115.089 427.436 115.089 423.825 Q115.089 420.213 112.751 418.107 Q110.413 416.001 106.408 416.001 Q104.534 416.001 102.659 416.417 Q100.807 416.834 98.8622 417.713 L98.8622 400.352 Z" fill="#000000" fill-rule="nonzero" fill-opacity="1" /><path clip-path="url(#clip450)" d="M66.7559 197.526 Q70.1124 198.244 71.9874 200.512 Q73.8855 202.781 73.8855 206.114 Q73.8855 211.23 70.367 214.031 Q66.8485 216.832 60.3671 216.832 Q58.1912 216.832 55.8764 216.392 Q53.5847 215.975 51.131 215.119 L51.131 210.605 Q53.0754 211.739 55.3903 212.318 Q57.7051 212.897 60.2282 212.897 Q64.6263 212.897 66.918 211.161 Q69.2328 209.424 69.2328 206.114 Q69.2328 203.059 67.08 201.346 Q64.9504 199.61 61.131 199.61 L57.1032 199.61 L57.1032 195.767 L61.3161 195.767 Q64.7652 195.767 66.5939 194.401 Q68.4226 193.012 68.4226 190.42 Q68.4226 187.758 66.5245 186.346 Q64.6495 184.911 61.131 184.911 Q59.2097 184.911 57.0106 185.327 Q54.8115 185.744 52.1727 186.624 L52.1727 182.457 Q54.8347 181.716 57.1495 181.346 Q59.4875 180.976 61.5476 180.976 Q66.8717 180.976 69.9735 183.406 Q73.0753 185.813 73.0753 189.934 Q73.0753 192.804 71.4318 194.795 Q69.7883 196.762 66.7559 197.526 Z" fill="#000000" fill-rule="nonzero" fill-opacity="1" /><path clip-path="url(#clip450)" d="M82.7512 210.281 L87.6354 210.281 L87.6354 216.161 L82.7512 216.161 L82.7512 210.281 Z" fill="#000000" fill-rule="nonzero" fill-opacity="1" /><path clip-path="url(#clip450)" d="M107.821 184.679 Q104.209 184.679 102.381 188.244 Q100.575 191.786 100.575 198.915 Q100.575 206.022 102.381 209.586 Q104.209 213.128 107.821 213.128 Q111.455 213.128 113.26 209.586 Q115.089 206.022 115.089 198.915 Q115.089 191.786 113.26 188.244 Q111.455 184.679 107.821 184.679 M107.821 180.976 Q113.631 180.976 116.686 185.582 Q119.765 190.165 119.765 198.915 Q119.765 207.642 116.686 212.248 Q113.631 216.832 107.821 216.832 Q102.01 216.832 98.9317 212.248 Q95.8761 207.642 95.8761 198.915 Q95.8761 190.165 98.9317 185.582 Q102.01 180.976 107.821 180.976 Z" fill="#000000" fill-rule="nonzero" fill-opacity="1" /><polyline clip-path="url(#clip451)" style="stroke:#009af9; stroke-linecap:round; stroke-linejoin:round; stroke-width:12; stroke-opacity:1; fill:none" points="217.944,1292.64 425.207,1321.79 632.47,1336.55 839.734,1348.72 1047,1351.63 1254.26,1346.17 1461.52,1325.62 1668.79,1273.39 1876.05,1242.97 2083.31,1230.28 2290.58,1212.03 "/>
<polyline clip-path="url(#clip451)" style="stroke:#000000; stroke-linecap:round; stroke-linejoin:round; stroke-width:12; stroke-opacity:1; fill:none" points="217.944,1292.64 217.944,1292.64 "/>
<polyline clip-path="url(#clip451)" style="stroke:#000000; stroke-linecap:round; stroke-linejoin:round; stroke-width:12; stroke-opacity:1; fill:none" points="425.207,1355.19 425.207,1279.67 "/>
<polyline clip-path="url(#clip451)" style="stroke:#000000; stroke-linecap:round; stroke-linejoin:round; stroke-width:12; stroke-opacity:1; fill:none" points="632.47,1390.82 632.47,1257.74 "/>
<polyline clip-path="url(#clip451)" style="stroke:#000000; stroke-linecap:round; stroke-linejoin:round; stroke-width:12; stroke-opacity:1; fill:none" points="839.734,1393.36 839.734,1172.34 "/>
<polyline clip-path="url(#clip451)" style="stroke:#000000; stroke-linecap:round; stroke-linejoin:round; stroke-width:12; stroke-opacity:1; fill:none" points="1047,1385.8 1047,983.975 "/>
<polyline clip-path="url(#clip451)" style="stroke:#000000; stroke-linecap:round; stroke-linejoin:round; stroke-width:12; stroke-opacity:1; fill:none" points="1254.26,1393.93 1254.26,828.027 "/>
<polyline clip-path="url(#clip451)" style="stroke:#000000; stroke-linecap:round; stroke-linejoin:round; stroke-width:12; stroke-opacity:1; fill:none" points="1461.52,1372.88 1461.52,607.529 "/>
<polyline clip-path="url(#clip451)" style="stroke:#000000; stroke-linecap:round; stroke-linejoin:round; stroke-width:12; stroke-opacity:1; fill:none" points="1668.79,1384.69 1668.79,495.623 "/>
<polyline clip-path="url(#clip451)" style="stroke:#000000; stroke-linecap:round; stroke-linejoin:round; stroke-width:12; stroke-opacity:1; fill:none" points="1876.05,1401.7 1876.05,305.096 "/>
<polyline clip-path="url(#clip451)" style="stroke:#000000; stroke-linecap:round; stroke-linejoin:round; stroke-width:12; stroke-opacity:1; fill:none" points="2083.31,1400.23 2083.31,87.9763 "/>
<polyline clip-path="url(#clip451)" style="stroke:#000000; stroke-linecap:round; stroke-linejoin:round; stroke-width:12; stroke-opacity:1; fill:none" points="2290.58,1390.18 2290.58,372.031 "/>
<line clip-path="url(#clip451)" x1="233.944" y1="1292.64" x2="201.944" y2="1292.64" style="stroke:#000000; stroke-width:12; stroke-opacity:1"/>
<line clip-path="url(#clip451)" x1="233.944" y1="1292.64" x2="201.944" y2="1292.64" style="stroke:#000000; stroke-width:12; stroke-opacity:1"/>
<line clip-path="url(#clip451)" x1="441.207" y1="1355.19" x2="409.207" y2="1355.19" style="stroke:#000000; stroke-width:12; stroke-opacity:1"/>
<line clip-path="url(#clip451)" x1="441.207" y1="1279.67" x2="409.207" y2="1279.67" style="stroke:#000000; stroke-width:12; stroke-opacity:1"/>
<line clip-path="url(#clip451)" x1="648.47" y1="1390.82" x2="616.47" y2="1390.82" style="stroke:#000000; stroke-width:12; stroke-opacity:1"/>
<line clip-path="url(#clip451)" x1="648.47" y1="1257.74" x2="616.47" y2="1257.74" style="stroke:#000000; stroke-width:12; stroke-opacity:1"/>
<line clip-path="url(#clip451)" x1="855.734" y1="1393.36" x2="823.734" y2="1393.36" style="stroke:#000000; stroke-width:12; stroke-opacity:1"/>
<line clip-path="url(#clip451)" x1="855.734" y1="1172.34" x2="823.734" y2="1172.34" style="stroke:#000000; stroke-width:12; stroke-opacity:1"/>
<line clip-path="url(#clip451)" x1="1063" y1="1385.8" x2="1031" y2="1385.8" style="stroke:#000000; stroke-width:12; stroke-opacity:1"/>
<line clip-path="url(#clip451)" x1="1063" y1="983.975" x2="1031" y2="983.975" style="stroke:#000000; stroke-width:12; stroke-opacity:1"/>
<line clip-path="url(#clip451)" x1="1270.26" y1="1393.93" x2="1238.26" y2="1393.93" style="stroke:#000000; stroke-width:12; stroke-opacity:1"/>
<line clip-path="url(#clip451)" x1="1270.26" y1="828.027" x2="1238.26" y2="828.027" style="stroke:#000000; stroke-width:12; stroke-opacity:1"/>
<line clip-path="url(#clip451)" x1="1477.52" y1="1372.88" x2="1445.52" y2="1372.88" style="stroke:#000000; stroke-width:12; stroke-opacity:1"/>
<line clip-path="url(#clip451)" x1="1477.52" y1="607.529" x2="1445.52" y2="607.529" style="stroke:#000000; stroke-width:12; stroke-opacity:1"/>
<line clip-path="url(#clip451)" x1="1684.79" y1="1384.69" x2="1652.79" y2="1384.69" style="stroke:#000000; stroke-width:12; stroke-opacity:1"/>
<line clip-path="url(#clip451)" x1="1684.79" y1="495.623" x2="1652.79" y2="495.623" style="stroke:#000000; stroke-width:12; stroke-opacity:1"/>
<line clip-path="url(#clip451)" x1="1892.05" y1="1401.7" x2="1860.05" y2="1401.7" style="stroke:#000000; stroke-width:12; stroke-opacity:1"/>
<line clip-path="url(#clip451)" x1="1892.05" y1="305.096" x2="1860.05" y2="305.096" style="stroke:#000000; stroke-width:12; stroke-opacity:1"/>
<line clip-path="url(#clip451)" x1="2099.31" y1="1400.23" x2="2067.31" y2="1400.23" style="stroke:#000000; stroke-width:12; stroke-opacity:1"/>
<line clip-path="url(#clip451)" x1="2099.31" y1="87.9763" x2="2067.31" y2="87.9763" style="stroke:#000000; stroke-width:12; stroke-opacity:1"/>
<line clip-path="url(#clip451)" x1="2306.58" y1="1390.18" x2="2274.58" y2="1390.18" style="stroke:#000000; stroke-width:12; stroke-opacity:1"/>
<line clip-path="url(#clip451)" x1="2306.58" y1="372.031" x2="2274.58" y2="372.031" style="stroke:#000000; stroke-width:12; stroke-opacity:1"/>
<polyline clip-path="url(#clip451)" style="stroke:#e26f46; stroke-linecap:round; stroke-linejoin:round; stroke-width:12; stroke-opacity:1; fill:none" points="217.944,1292.64 425.207,1286.12 632.47,1297.72 839.734,1285.66 1047,1228.9 1254.26,1208.82 1461.52,1230.47 1668.79,1232.02 1876.05,1188.86 2083.31,1093.44 2290.58,1160.25 "/>
<polyline clip-path="url(#clip451)" style="stroke:#000000; stroke-linecap:round; stroke-linejoin:round; stroke-width:12; stroke-opacity:1; fill:none" points="217.944,1292.64 217.944,1292.64 "/>
<polyline clip-path="url(#clip451)" style="stroke:#000000; stroke-linecap:round; stroke-linejoin:round; stroke-width:12; stroke-opacity:1; fill:none" points="425.207,1358.8 425.207,1094.59 "/>
<polyline clip-path="url(#clip451)" style="stroke:#000000; stroke-linecap:round; stroke-linejoin:round; stroke-width:12; stroke-opacity:1; fill:none" points="632.47,1373.51 632.47,1008.2 "/>
<polyline clip-path="url(#clip451)" style="stroke:#000000; stroke-linecap:round; stroke-linejoin:round; stroke-width:12; stroke-opacity:1; fill:none" points="839.734,1383.38 839.734,936.515 "/>
<polyline clip-path="url(#clip451)" style="stroke:#000000; stroke-linecap:round; stroke-linejoin:round; stroke-width:12; stroke-opacity:1; fill:none" points="1047,1375.45 1047,889.763 "/>
<polyline clip-path="url(#clip451)" style="stroke:#000000; stroke-linecap:round; stroke-linejoin:round; stroke-width:12; stroke-opacity:1; fill:none" points="1254.26,1372.15 1254.26,829.671 "/>
<polyline clip-path="url(#clip451)" style="stroke:#000000; stroke-linecap:round; stroke-linejoin:round; stroke-width:12; stroke-opacity:1; fill:none" points="1461.52,1422.68 1461.52,802.591 "/>
<polyline clip-path="url(#clip451)" style="stroke:#000000; stroke-linecap:round; stroke-linejoin:round; stroke-width:12; stroke-opacity:1; fill:none" points="1668.79,1441.6 1668.79,853.693 "/>
<polyline clip-path="url(#clip451)" style="stroke:#000000; stroke-linecap:round; stroke-linejoin:round; stroke-width:12; stroke-opacity:1; fill:none" points="1876.05,1445.72 1876.05,841.317 "/>
<polyline clip-path="url(#clip451)" style="stroke:#000000; stroke-linecap:round; stroke-linejoin:round; stroke-width:12; stroke-opacity:1; fill:none" points="2083.31,1444.14 2083.31,595.842 "/>
<polyline clip-path="url(#clip451)" style="stroke:#000000; stroke-linecap:round; stroke-linejoin:round; stroke-width:12; stroke-opacity:1; fill:none" points="2290.58,1430.05 2290.58,361.215 "/>
<line clip-path="url(#clip451)" x1="233.944" y1="1292.64" x2="201.944" y2="1292.64" style="stroke:#000000; stroke-width:12; stroke-opacity:1"/>
<line clip-path="url(#clip451)" x1="233.944" y1="1292.64" x2="201.944" y2="1292.64" style="stroke:#000000; stroke-width:12; stroke-opacity:1"/>
<line clip-path="url(#clip451)" x1="441.207" y1="1358.8" x2="409.207" y2="1358.8" style="stroke:#000000; stroke-width:12; stroke-opacity:1"/>
<line clip-path="url(#clip451)" x1="441.207" y1="1094.59" x2="409.207" y2="1094.59" style="stroke:#000000; stroke-width:12; stroke-opacity:1"/>
<line clip-path="url(#clip451)" x1="648.47" y1="1373.51" x2="616.47" y2="1373.51" style="stroke:#000000; stroke-width:12; stroke-opacity:1"/>
<line clip-path="url(#clip451)" x1="648.47" y1="1008.2" x2="616.47" y2="1008.2" style="stroke:#000000; stroke-width:12; stroke-opacity:1"/>
<line clip-path="url(#clip451)" x1="855.734" y1="1383.38" x2="823.734" y2="1383.38" style="stroke:#000000; stroke-width:12; stroke-opacity:1"/>
<line clip-path="url(#clip451)" x1="855.734" y1="936.515" x2="823.734" y2="936.515" style="stroke:#000000; stroke-width:12; stroke-opacity:1"/>
<line clip-path="url(#clip451)" x1="1063" y1="1375.45" x2="1031" y2="1375.45" style="stroke:#000000; stroke-width:12; stroke-opacity:1"/>
<line clip-path="url(#clip451)" x1="1063" y1="889.763" x2="1031" y2="889.763" style="stroke:#000000; stroke-width:12; stroke-opacity:1"/>
<line clip-path="url(#clip451)" x1="1270.26" y1="1372.15" x2="1238.26" y2="1372.15" style="stroke:#000000; stroke-width:12; stroke-opacity:1"/>
<line clip-path="url(#clip451)" x1="1270.26" y1="829.671" x2="1238.26" y2="829.671" style="stroke:#000000; stroke-width:12; stroke-opacity:1"/>
<line clip-path="url(#clip451)" x1="1477.52" y1="1422.68" x2="1445.52" y2="1422.68" style="stroke:#000000; stroke-width:12; stroke-opacity:1"/>
<line clip-path="url(#clip451)" x1="1477.52" y1="802.591" x2="1445.52" y2="802.591" style="stroke:#000000; stroke-width:12; stroke-opacity:1"/>
<line clip-path="url(#clip451)" x1="1684.79" y1="1441.6" x2="1652.79" y2="1441.6" style="stroke:#000000; stroke-width:12; stroke-opacity:1"/>
<line clip-path="url(#clip451)" x1="1684.79" y1="853.693" x2="1652.79" y2="853.693" style="stroke:#000000; stroke-width:12; stroke-opacity:1"/>
<line clip-path="url(#clip451)" x1="1892.05" y1="1445.72" x2="1860.05" y2="1445.72" style="stroke:#000000; stroke-width:12; stroke-opacity:1"/>
<line clip-path="url(#clip451)" x1="1892.05" y1="841.317" x2="1860.05" y2="841.317" style="stroke:#000000; stroke-width:12; stroke-opacity:1"/>
<line clip-path="url(#clip451)" x1="2099.31" y1="1444.14" x2="2067.31" y2="1444.14" style="stroke:#000000; stroke-width:12; stroke-opacity:1"/>
<line clip-path="url(#clip451)" x1="2099.31" y1="595.842" x2="2067.31" y2="595.842" style="stroke:#000000; stroke-width:12; stroke-opacity:1"/>
<line clip-path="url(#clip451)" x1="2306.58" y1="1430.05" x2="2274.58" y2="1430.05" style="stroke:#000000; stroke-width:12; stroke-opacity:1"/>
<line clip-path="url(#clip451)" x1="2306.58" y1="361.215" x2="2274.58" y2="361.215" style="stroke:#000000; stroke-width:12; stroke-opacity:1"/>
</svg>
