<?xml version="1.0" encoding="utf-8"?>
<svg xmlns="http://www.w3.org/2000/svg" xmlns:xlink="http://www.w3.org/1999/xlink" width="600" height="400" viewBox="0 0 2400 1600">
<defs>
  <clipPath id="clip480">
    <rect x="0" y="0" width="2400" height="1600"/>
  </clipPath>
</defs>
<path clip-path="url(#clip480)" d="M0 1600 L2400 1600 L2400 0 L0 0  Z" fill="#ffffff" fill-rule="evenodd" fill-opacity="1"/>
<defs>
  <clipPath id="clip481">
    <rect x="186" y="47" width="2167" height="1440"/>
  </clipPath>
</defs>
<path clip-path="url(#clip480)" d="M186.274 1486.45 L2352.76 1486.45 L2352.76 47.2441 L186.274 47.2441  Z" fill="#ffffff" fill-rule="evenodd" fill-opacity="1"/>
<polyline clip-path="url(#clip481)" style="stroke:#000000; stroke-linecap:round; stroke-linejoin:round; stroke-width:2; stroke-opacity:0.1; fill:none" points="247.59,1486.45 247.59,47.2441 "/>
<polyline clip-path="url(#clip481)" style="stroke:#000000; stroke-linecap:round; stroke-linejoin:round; stroke-width:2; stroke-opacity:0.1; fill:none" points="758.552,1486.45 758.552,47.2441 "/>
<polyline clip-path="url(#clip481)" style="stroke:#000000; stroke-linecap:round; stroke-linejoin:round; stroke-width:2; stroke-opacity:0.1; fill:none" points="1269.51,1486.45 1269.51,47.2441 "/>
<polyline clip-path="url(#clip481)" style="stroke:#000000; stroke-linecap:round; stroke-linejoin:round; stroke-width:2; stroke-opacity:0.1; fill:none" points="1780.48,1486.45 1780.48,47.2441 "/>
<polyline clip-path="url(#clip481)" style="stroke:#000000; stroke-linecap:round; stroke-linejoin:round; stroke-width:2; stroke-opacity:0.1; fill:none" points="2291.44,1486.45 2291.44,47.2441 "/>
<polyline clip-path="url(#clip481)" style="stroke:#000000; stroke-linecap:round; stroke-linejoin:round; stroke-width:2; stroke-opacity:0.1; fill:none" points="186.274,1314.57 2352.76,1314.57 "/>
<polyline clip-path="url(#clip481)" style="stroke:#000000; stroke-linecap:round; stroke-linejoin:round; stroke-width:2; stroke-opacity:0.1; fill:none" points="186.274,1071.4 2352.76,1071.4 "/>
<polyline clip-path="url(#clip481)" style="stroke:#000000; stroke-linecap:round; stroke-linejoin:round; stroke-width:2; stroke-opacity:0.1; fill:none" points="186.274,828.23 2352.76,828.23 "/>
<polyline clip-path="url(#clip481)" style="stroke:#000000; stroke-linecap:round; stroke-linejoin:round; stroke-width:2; stroke-opacity:0.1; fill:none" points="186.274,585.062 2352.76,585.062 "/>
<polyline clip-path="url(#clip481)" style="stroke:#000000; stroke-linecap:round; stroke-linejoin:round; stroke-width:2; stroke-opacity:0.1; fill:none" points="186.274,341.893 2352.76,341.893 "/>
<polyline clip-path="url(#clip481)" style="stroke:#000000; stroke-linecap:round; stroke-linejoin:round; stroke-width:2; stroke-opacity:0.1; fill:none" points="186.274,98.7251 2352.76,98.7251 "/>
<polyline clip-path="url(#clip480)" style="stroke:#000000; stroke-linecap:round; stroke-linejoin:round; stroke-width:4; stroke-opacity:1; fill:none" points="186.274,1486.45 2352.76,1486.45 "/>
<polyline clip-path="url(#clip480)" style="stroke:#000000; stroke-linecap:round; stroke-linejoin:round; stroke-width:4; stroke-opacity:1; fill:none" points="247.59,1486.45 247.59,1467.55 "/>
<polyline clip-path="url(#clip480)" style="stroke:#000000; stroke-linecap:round; stroke-linejoin:round; stroke-width:4; stroke-opacity:1; fill:none" points="758.552,1486.45 758.552,1467.55 "/>
<polyline clip-path="url(#clip480)" style="stroke:#000000; stroke-linecap:round; stroke-linejoin:round; stroke-width:4; stroke-opacity:1; fill:none" points="1269.51,1486.45 1269.51,1467.55 "/>
<polyline clip-path="url(#clip480)" style="stroke:#000000; stroke-linecap:round; stroke-linejoin:round; stroke-width:4; stroke-opacity:1; fill:none" points="1780.48,1486.45 1780.48,1467.55 "/>
<polyline clip-path="url(#clip480)" style="stroke:#000000; stroke-linecap:round; stroke-linejoin:round; stroke-width:4; stroke-opacity:1; fill:none" points="2291.44,1486.45 2291.44,1467.55 "/>
<path clip-path="url(#clip480)" d="M209.893 1517.37 Q206.282 1517.37 204.453 1520.93 Q202.648 1524.47 202.648 1531.6 Q202.648 1538.71 204.453 1542.27 Q206.282 1545.82 209.893 1545.82 Q213.527 1545.82 215.333 1542.27 Q217.161 1538.71 217.161 1531.6 Q217.161 1524.47 215.333 1520.93 Q213.527 1517.37 209.893 1517.37 M209.893 1513.66 Q215.703 1513.66 218.759 1518.27 Q221.837 1522.85 221.837 1531.6 Q221.837 1540.33 218.759 1544.94 Q215.703 1549.52 209.893 1549.52 Q204.083 1549.52 201.004 1544.94 Q197.949 1540.33 197.949 1531.6 Q197.949 1522.85 201.004 1518.27 Q204.083 1513.66 209.893 1513.66 Z" fill="#000000" fill-rule="nonzero" fill-opacity="1" /><path clip-path="url(#clip480)" d="M230.055 1542.97 L234.939 1542.97 L234.939 1548.85 L230.055 1548.85 L230.055 1542.97 Z" fill="#000000" fill-rule="nonzero" fill-opacity="1" /><path clip-path="url(#clip480)" d="M255.124 1517.37 Q251.513 1517.37 249.684 1520.93 Q247.879 1524.47 247.879 1531.6 Q247.879 1538.71 249.684 1542.27 Q251.513 1545.82 255.124 1545.82 Q258.758 1545.82 260.564 1542.27 Q262.393 1538.71 262.393 1531.6 Q262.393 1524.47 260.564 1520.93 Q258.758 1517.37 255.124 1517.37 M255.124 1513.66 Q260.934 1513.66 263.99 1518.27 Q267.069 1522.85 267.069 1531.6 Q267.069 1540.33 263.99 1544.94 Q260.934 1549.52 255.124 1549.52 Q249.314 1549.52 246.235 1544.94 Q243.18 1540.33 243.18 1531.6 Q243.18 1522.85 246.235 1518.27 Q249.314 1513.66 255.124 1513.66 Z" fill="#000000" fill-rule="nonzero" fill-opacity="1" /><path clip-path="url(#clip480)" d="M285.286 1517.37 Q281.675 1517.37 279.846 1520.93 Q278.041 1524.47 278.041 1531.6 Q278.041 1538.71 279.846 1542.27 Q281.675 1545.82 285.286 1545.82 Q288.92 1545.82 290.726 1542.27 Q292.555 1538.71 292.555 1531.6 Q292.555 1524.47 290.726 1520.93 Q288.92 1517.37 285.286 1517.37 M285.286 1513.66 Q291.096 1513.66 294.152 1518.27 Q297.23 1522.85 297.23 1531.6 Q297.23 1540.33 294.152 1544.94 Q291.096 1549.52 285.286 1549.52 Q279.476 1549.52 276.397 1544.94 Q273.342 1540.33 273.342 1531.6 Q273.342 1522.85 276.397 1518.27 Q279.476 1513.66 285.286 1513.66 Z" fill="#000000" fill-rule="nonzero" fill-opacity="1" /><path clip-path="url(#clip480)" d="M721.353 1517.37 Q717.742 1517.37 715.914 1520.93 Q714.108 1524.47 714.108 1531.6 Q714.108 1538.71 715.914 1542.27 Q717.742 1545.82 721.353 1545.82 Q724.988 1545.82 726.793 1542.27 Q728.622 1538.71 728.622 1531.6 Q728.622 1524.47 726.793 1520.93 Q724.988 1517.37 721.353 1517.37 M721.353 1513.66 Q727.164 1513.66 730.219 1518.27 Q733.298 1522.85 733.298 1531.6 Q733.298 1540.33 730.219 1544.94 Q727.164 1549.52 721.353 1549.52 Q715.543 1549.52 712.465 1544.94 Q709.409 1540.33 709.409 1531.6 Q709.409 1522.85 712.465 1518.27 Q715.543 1513.66 721.353 1513.66 Z" fill="#000000" fill-rule="nonzero" fill-opacity="1" /><path clip-path="url(#clip480)" d="M741.515 1542.97 L746.4 1542.97 L746.4 1548.85 L741.515 1548.85 L741.515 1542.97 Z" fill="#000000" fill-rule="nonzero" fill-opacity="1" /><path clip-path="url(#clip480)" d="M760.612 1544.91 L776.932 1544.91 L776.932 1548.85 L754.987 1548.85 L754.987 1544.91 Q757.649 1542.16 762.233 1537.53 Q766.839 1532.88 768.02 1531.53 Q770.265 1529.01 771.145 1527.27 Q772.048 1525.51 772.048 1523.82 Q772.048 1521.07 770.103 1519.33 Q768.182 1517.6 765.08 1517.6 Q762.881 1517.6 760.427 1518.36 Q757.997 1519.13 755.219 1520.68 L755.219 1515.95 Q758.043 1514.82 760.497 1514.24 Q762.95 1513.66 764.987 1513.66 Q770.358 1513.66 773.552 1516.35 Q776.747 1519.03 776.747 1523.52 Q776.747 1525.65 775.936 1527.57 Q775.149 1529.47 773.043 1532.07 Q772.464 1532.74 769.362 1535.95 Q766.261 1539.15 760.612 1544.91 Z" fill="#000000" fill-rule="nonzero" fill-opacity="1" /><path clip-path="url(#clip480)" d="M786.793 1514.29 L805.149 1514.29 L805.149 1518.22 L791.075 1518.22 L791.075 1526.7 Q792.094 1526.35 793.112 1526.19 Q794.131 1526 795.149 1526 Q800.936 1526 804.316 1529.17 Q807.695 1532.34 807.695 1537.76 Q807.695 1543.34 804.223 1546.44 Q800.751 1549.52 794.432 1549.52 Q792.256 1549.52 789.987 1549.15 Q787.742 1548.78 785.335 1548.04 L785.335 1543.34 Q787.418 1544.47 789.64 1545.03 Q791.862 1545.58 794.339 1545.58 Q798.344 1545.58 800.682 1543.48 Q803.02 1541.37 803.02 1537.76 Q803.02 1534.15 800.682 1532.04 Q798.344 1529.94 794.339 1529.94 Q792.464 1529.94 790.589 1530.35 Q788.737 1530.77 786.793 1531.65 L786.793 1514.29 Z" fill="#000000" fill-rule="nonzero" fill-opacity="1" /><path clip-path="url(#clip480)" d="M1231.82 1517.37 Q1228.21 1517.37 1226.38 1520.93 Q1224.57 1524.47 1224.57 1531.6 Q1224.57 1538.71 1226.38 1542.27 Q1228.21 1545.82 1231.82 1545.82 Q1235.45 1545.82 1237.26 1542.27 Q1239.09 1538.71 1239.09 1531.6 Q1239.09 1524.47 1237.26 1520.93 Q1235.45 1517.37 1231.82 1517.37 M1231.82 1513.66 Q1237.63 1513.66 1240.68 1518.27 Q1243.76 1522.85 1243.76 1531.6 Q1243.76 1540.33 1240.68 1544.94 Q1237.63 1549.52 1231.82 1549.52 Q1226.01 1549.52 1222.93 1544.94 Q1219.87 1540.33 1219.87 1531.6 Q1219.87 1522.85 1222.93 1518.27 Q1226.01 1513.66 1231.82 1513.66 Z" fill="#000000" fill-rule="nonzero" fill-opacity="1" /><path clip-path="url(#clip480)" d="M1251.98 1542.97 L1256.86 1542.97 L1256.86 1548.85 L1251.98 1548.85 L1251.98 1542.97 Z" fill="#000000" fill-rule="nonzero" fill-opacity="1" /><path clip-path="url(#clip480)" d="M1267.1 1514.29 L1285.45 1514.29 L1285.45 1518.22 L1271.38 1518.22 L1271.38 1526.7 Q1272.4 1526.35 1273.42 1526.19 Q1274.43 1526 1275.45 1526 Q1281.24 1526 1284.62 1529.17 Q1288 1532.34 1288 1537.76 Q1288 1543.34 1284.53 1546.44 Q1281.05 1549.52 1274.73 1549.52 Q1272.56 1549.52 1270.29 1549.15 Q1268.05 1548.78 1265.64 1548.04 L1265.64 1543.34 Q1267.72 1544.47 1269.94 1545.03 Q1272.17 1545.58 1274.64 1545.58 Q1278.65 1545.58 1280.98 1543.48 Q1283.32 1541.37 1283.32 1537.76 Q1283.32 1534.15 1280.98 1532.04 Q1278.65 1529.94 1274.64 1529.94 Q1272.77 1529.94 1270.89 1530.35 Q1269.04 1530.77 1267.1 1531.65 L1267.1 1514.29 Z" fill="#000000" fill-rule="nonzero" fill-opacity="1" /><path clip-path="url(#clip480)" d="M1307.21 1517.37 Q1303.6 1517.37 1301.77 1520.93 Q1299.97 1524.47 1299.97 1531.6 Q1299.97 1538.71 1301.77 1542.27 Q1303.6 1545.82 1307.21 1545.82 Q1310.85 1545.82 1312.65 1542.27 Q1314.48 1538.71 1314.48 1531.6 Q1314.48 1524.47 1312.65 1520.93 Q1310.85 1517.37 1307.21 1517.37 M1307.21 1513.66 Q1313.02 1513.66 1316.08 1518.27 Q1319.16 1522.85 1319.16 1531.6 Q1319.16 1540.33 1316.08 1544.94 Q1313.02 1549.52 1307.21 1549.52 Q1301.4 1549.52 1298.32 1544.94 Q1295.27 1540.33 1295.27 1531.6 Q1295.27 1522.85 1298.32 1518.27 Q1301.4 1513.66 1307.21 1513.66 Z" fill="#000000" fill-rule="nonzero" fill-opacity="1" /><path clip-path="url(#clip480)" d="M1743.28 1517.37 Q1739.67 1517.37 1737.84 1520.93 Q1736.03 1524.47 1736.03 1531.6 Q1736.03 1538.71 1737.84 1542.27 Q1739.67 1545.82 1743.28 1545.82 Q1746.91 1545.82 1748.72 1542.27 Q1750.55 1538.71 1750.55 1531.6 Q1750.55 1524.47 1748.72 1520.93 Q1746.91 1517.37 1743.28 1517.37 M1743.28 1513.66 Q1749.09 1513.66 1752.14 1518.27 Q1755.22 1522.85 1755.22 1531.6 Q1755.22 1540.33 1752.14 1544.94 Q1749.09 1549.52 1743.28 1549.52 Q1737.47 1549.52 1734.39 1544.94 Q1731.33 1540.33 1731.33 1531.6 Q1731.33 1522.85 1734.39 1518.27 Q1737.47 1513.66 1743.28 1513.66 Z" fill="#000000" fill-rule="nonzero" fill-opacity="1" /><path clip-path="url(#clip480)" d="M1763.44 1542.97 L1768.32 1542.97 L1768.32 1548.85 L1763.44 1548.85 L1763.44 1542.97 Z" fill="#000000" fill-rule="nonzero" fill-opacity="1" /><path clip-path="url(#clip480)" d="M1777.33 1514.29 L1799.55 1514.29 L1799.55 1516.28 L1787.01 1548.85 L1782.12 1548.85 L1793.93 1518.22 L1777.33 1518.22 L1777.33 1514.29 Z" fill="#000000" fill-rule="nonzero" fill-opacity="1" /><path clip-path="url(#clip480)" d="M1808.72 1514.29 L1827.07 1514.29 L1827.07 1518.22 L1813 1518.22 L1813 1526.7 Q1814.02 1526.35 1815.04 1526.19 Q1816.06 1526 1817.07 1526 Q1822.86 1526 1826.24 1529.17 Q1829.62 1532.34 1829.62 1537.76 Q1829.62 1543.34 1826.15 1546.44 Q1822.68 1549.52 1816.36 1549.52 Q1814.18 1549.52 1811.91 1549.15 Q1809.67 1548.78 1807.26 1548.04 L1807.26 1543.34 Q1809.34 1544.47 1811.57 1545.03 Q1813.79 1545.58 1816.26 1545.58 Q1820.27 1545.58 1822.61 1543.48 Q1824.95 1541.37 1824.95 1537.76 Q1824.95 1534.15 1822.61 1532.04 Q1820.27 1529.94 1816.26 1529.94 Q1814.39 1529.94 1812.51 1530.35 Q1810.66 1530.77 1808.72 1531.65 L1808.72 1514.29 Z" fill="#000000" fill-rule="nonzero" fill-opacity="1" /><path clip-path="url(#clip480)" d="M2243.51 1544.91 L2251.15 1544.91 L2251.15 1518.55 L2242.84 1520.21 L2242.84 1515.95 L2251.1 1514.29 L2255.78 1514.29 L2255.78 1544.91 L2263.42 1544.91 L2263.42 1548.85 L2243.51 1548.85 L2243.51 1544.91 Z" fill="#000000" fill-rule="nonzero" fill-opacity="1" /><path clip-path="url(#clip480)" d="M2272.86 1542.97 L2277.75 1542.97 L2277.75 1548.85 L2272.86 1548.85 L2272.86 1542.97 Z" fill="#000000" fill-rule="nonzero" fill-opacity="1" /><path clip-path="url(#clip480)" d="M2297.93 1517.37 Q2294.32 1517.37 2292.49 1520.93 Q2290.69 1524.47 2290.69 1531.6 Q2290.69 1538.71 2292.49 1542.27 Q2294.32 1545.82 2297.93 1545.82 Q2301.57 1545.82 2303.37 1542.27 Q2305.2 1538.71 2305.2 1531.6 Q2305.2 1524.47 2303.37 1520.93 Q2301.57 1517.37 2297.93 1517.37 M2297.93 1513.66 Q2303.74 1513.66 2306.8 1518.27 Q2309.88 1522.85 2309.88 1531.6 Q2309.88 1540.33 2306.8 1544.94 Q2303.74 1549.52 2297.93 1549.52 Q2292.12 1549.52 2289.04 1544.94 Q2285.99 1540.33 2285.99 1531.6 Q2285.99 1522.85 2289.04 1518.27 Q2292.12 1513.66 2297.93 1513.66 Z" fill="#000000" fill-rule="nonzero" fill-opacity="1" /><path clip-path="url(#clip480)" d="M2328.1 1517.37 Q2324.48 1517.37 2322.66 1520.93 Q2320.85 1524.47 2320.85 1531.6 Q2320.85 1538.71 2322.66 1542.27 Q2324.48 1545.82 2328.1 1545.82 Q2331.73 1545.82 2333.54 1542.27 Q2335.36 1538.71 2335.36 1531.6 Q2335.36 1524.47 2333.54 1520.93 Q2331.73 1517.37 2328.1 1517.37 M2328.1 1513.66 Q2333.91 1513.66 2336.96 1518.27 Q2340.04 1522.85 2340.04 1531.6 Q2340.04 1540.33 2336.96 1544.94 Q2333.91 1549.52 2328.1 1549.52 Q2322.29 1549.52 2319.21 1544.94 Q2316.15 1540.33 2316.15 1531.6 Q2316.15 1522.85 2319.21 1518.27 Q2322.29 1513.66 2328.1 1513.66 Z" fill="#000000" fill-rule="nonzero" fill-opacity="1" /><polyline clip-path="url(#clip480)" style="stroke:#000000; stroke-linecap:round; stroke-linejoin:round; stroke-width:4; stroke-opacity:1; fill:none" points="186.274,1486.45 186.274,47.2441 "/>
<polyline clip-path="url(#clip480)" style="stroke:#000000; stroke-linecap:round; stroke-linejoin:round; stroke-width:4; stroke-opacity:1; fill:none" points="186.274,1314.57 205.172,1314.57 "/>
<polyline clip-path="url(#clip480)" style="stroke:#000000; stroke-linecap:round; stroke-linejoin:round; stroke-width:4; stroke-opacity:1; fill:none" points="186.274,1071.4 205.172,1071.4 "/>
<polyline clip-path="url(#clip480)" style="stroke:#000000; stroke-linecap:round; stroke-linejoin:round; stroke-width:4; stroke-opacity:1; fill:none" points="186.274,828.23 205.172,828.23 "/>
<polyline clip-path="url(#clip480)" style="stroke:#000000; stroke-linecap:round; stroke-linejoin:round; stroke-width:4; stroke-opacity:1; fill:none" points="186.274,585.062 205.172,585.062 "/>
<polyline clip-path="url(#clip480)" style="stroke:#000000; stroke-linecap:round; stroke-linejoin:round; stroke-width:4; stroke-opacity:1; fill:none" points="186.274,341.893 205.172,341.893 "/>
<polyline clip-path="url(#clip480)" style="stroke:#000000; stroke-linecap:round; stroke-linejoin:round; stroke-width:4; stroke-opacity:1; fill:none" points="186.274,98.7251 205.172,98.7251 "/>
<path clip-path="url(#clip480)" d="M62.9365 1300.36 Q59.3254 1300.36 57.4967 1303.93 Q55.6912 1307.47 55.6912 1314.6 Q55.6912 1321.71 57.4967 1325.27 Q59.3254 1328.81 62.9365 1328.81 Q66.5707 1328.81 68.3763 1325.27 Q70.205 1321.71 70.205 1314.6 Q70.205 1307.47 68.3763 1303.93 Q66.5707 1300.36 62.9365 1300.36 M62.9365 1296.66 Q68.7467 1296.66 71.8022 1301.27 Q74.8809 1305.85 74.8809 1314.6 Q74.8809 1323.33 71.8022 1327.93 Q68.7467 1332.52 62.9365 1332.52 Q57.1264 1332.52 54.0477 1327.93 Q50.9921 1323.33 50.9921 1314.6 Q50.9921 1305.85 54.0477 1301.27 Q57.1264 1296.66 62.9365 1296.66 Z" fill="#000000" fill-rule="nonzero" fill-opacity="1" /><path clip-path="url(#clip480)" d="M83.0984 1325.97 L87.9827 1325.97 L87.9827 1331.85 L83.0984 1331.85 L83.0984 1325.97 Z" fill="#000000" fill-rule="nonzero" fill-opacity="1" /><path clip-path="url(#clip480)" d="M98.2141 1297.29 L116.57 1297.29 L116.57 1301.22 L102.496 1301.22 L102.496 1309.69 Q103.515 1309.35 104.534 1309.18 Q105.552 1309 106.571 1309 Q112.358 1309 115.737 1312.17 Q119.117 1315.34 119.117 1320.76 Q119.117 1326.34 115.645 1329.44 Q112.172 1332.52 105.853 1332.52 Q103.677 1332.52 101.409 1332.15 Q99.1632 1331.78 96.7558 1331.04 L96.7558 1326.34 Q98.8391 1327.47 101.061 1328.03 Q103.284 1328.58 105.76 1328.58 Q109.765 1328.58 112.103 1326.48 Q114.441 1324.37 114.441 1320.76 Q114.441 1317.15 112.103 1315.04 Q109.765 1312.93 105.76 1312.93 Q103.885 1312.93 102.01 1313.35 Q100.159 1313.77 98.2141 1314.65 L98.2141 1297.29 Z" fill="#000000" fill-rule="nonzero" fill-opacity="1" /><path clip-path="url(#clip480)" d="M138.33 1300.36 Q134.719 1300.36 132.89 1303.93 Q131.084 1307.47 131.084 1314.6 Q131.084 1321.71 132.89 1325.27 Q134.719 1328.81 138.33 1328.81 Q141.964 1328.81 143.769 1325.27 Q145.598 1321.71 145.598 1314.6 Q145.598 1307.47 143.769 1303.93 Q141.964 1300.36 138.33 1300.36 M138.33 1296.66 Q144.14 1296.66 147.195 1301.27 Q150.274 1305.85 150.274 1314.6 Q150.274 1323.33 147.195 1327.93 Q144.14 1332.52 138.33 1332.52 Q132.519 1332.52 129.441 1327.93 Q126.385 1323.33 126.385 1314.6 Q126.385 1305.85 129.441 1301.27 Q132.519 1296.66 138.33 1296.66 Z" fill="#000000" fill-rule="nonzero" fill-opacity="1" /><path clip-path="url(#clip480)" d="M63.9319 1057.2 Q60.3208 1057.2 58.4921 1060.76 Q56.6865 1064.3 56.6865 1071.43 Q56.6865 1078.54 58.4921 1082.1 Q60.3208 1085.65 63.9319 1085.65 Q67.5661 1085.65 69.3717 1082.1 Q71.2004 1078.54 71.2004 1071.43 Q71.2004 1064.3 69.3717 1060.76 Q67.5661 1057.2 63.9319 1057.2 M63.9319 1053.49 Q69.742 1053.49 72.7976 1058.1 Q75.8763 1062.68 75.8763 1071.43 Q75.8763 1080.16 72.7976 1084.77 Q69.742 1089.35 63.9319 1089.35 Q58.1217 1089.35 55.043 1084.77 Q51.9875 1080.16 51.9875 1071.43 Q51.9875 1062.68 55.043 1058.1 Q58.1217 1053.49 63.9319 1053.49 Z" fill="#000000" fill-rule="nonzero" fill-opacity="1" /><path clip-path="url(#clip480)" d="M84.0938 1082.8 L88.978 1082.8 L88.978 1088.68 L84.0938 1088.68 L84.0938 1082.8 Z" fill="#000000" fill-rule="nonzero" fill-opacity="1" /><path clip-path="url(#clip480)" d="M97.9826 1054.12 L120.205 1054.12 L120.205 1056.11 L107.658 1088.68 L102.774 1088.68 L114.58 1058.05 L97.9826 1058.05 L97.9826 1054.12 Z" fill="#000000" fill-rule="nonzero" fill-opacity="1" /><path clip-path="url(#clip480)" d="M129.371 1054.12 L147.728 1054.12 L147.728 1058.05 L133.654 1058.05 L133.654 1066.53 Q134.672 1066.18 135.691 1066.02 Q136.709 1065.83 137.728 1065.83 Q143.515 1065.83 146.894 1069 Q150.274 1072.17 150.274 1077.59 Q150.274 1083.17 146.802 1086.27 Q143.33 1089.35 137.01 1089.35 Q134.834 1089.35 132.566 1088.98 Q130.32 1088.61 127.913 1087.87 L127.913 1083.17 Q129.996 1084.3 132.219 1084.86 Q134.441 1085.41 136.918 1085.41 Q140.922 1085.41 143.26 1083.31 Q145.598 1081.2 145.598 1077.59 Q145.598 1073.98 143.26 1071.87 Q140.922 1069.77 136.918 1069.77 Q135.043 1069.77 133.168 1070.18 Q131.316 1070.6 129.371 1071.48 L129.371 1054.12 Z" fill="#000000" fill-rule="nonzero" fill-opacity="1" /><path clip-path="url(#clip480)" d="M53.7467 841.575 L61.3856 841.575 L61.3856 815.209 L53.0754 816.876 L53.0754 812.616 L61.3393 810.95 L66.0152 810.95 L66.0152 841.575 L73.654 841.575 L73.654 845.51 L53.7467 845.51 L53.7467 841.575 Z" fill="#000000" fill-rule="nonzero" fill-opacity="1" /><path clip-path="url(#clip480)" d="M83.0984 839.63 L87.9827 839.63 L87.9827 845.51 L83.0984 845.51 L83.0984 839.63 Z" fill="#000000" fill-rule="nonzero" fill-opacity="1" /><path clip-path="url(#clip480)" d="M108.168 814.029 Q104.557 814.029 102.728 817.593 Q100.922 821.135 100.922 828.265 Q100.922 835.371 102.728 838.936 Q104.557 842.477 108.168 842.477 Q111.802 842.477 113.608 838.936 Q115.436 835.371 115.436 828.265 Q115.436 821.135 113.608 817.593 Q111.802 814.029 108.168 814.029 M108.168 810.325 Q113.978 810.325 117.033 814.931 Q120.112 819.515 120.112 828.265 Q120.112 836.991 117.033 841.598 Q113.978 846.181 108.168 846.181 Q102.358 846.181 99.2789 841.598 Q96.2234 836.991 96.2234 828.265 Q96.2234 819.515 99.2789 814.931 Q102.358 810.325 108.168 810.325 Z" fill="#000000" fill-rule="nonzero" fill-opacity="1" /><path clip-path="url(#clip480)" d="M138.33 814.029 Q134.719 814.029 132.89 817.593 Q131.084 821.135 131.084 828.265 Q131.084 835.371 132.89 838.936 Q134.719 842.477 138.33 842.477 Q141.964 842.477 143.769 838.936 Q145.598 835.371 145.598 828.265 Q145.598 821.135 143.769 817.593 Q141.964 814.029 138.33 814.029 M138.33 810.325 Q144.14 810.325 147.195 814.931 Q150.274 819.515 150.274 828.265 Q150.274 836.991 147.195 841.598 Q144.14 846.181 138.33 846.181 Q132.519 846.181 129.441 841.598 Q126.385 836.991 126.385 828.265 Q126.385 819.515 129.441 814.931 Q132.519 810.325 138.33 810.325 Z" fill="#000000" fill-rule="nonzero" fill-opacity="1" /><path clip-path="url(#clip480)" d="M54.7421 598.406 L62.381 598.406 L62.381 572.041 L54.0708 573.708 L54.0708 569.448 L62.3347 567.782 L67.0106 567.782 L67.0106 598.406 L74.6494 598.406 L74.6494 602.342 L54.7421 602.342 L54.7421 598.406 Z" fill="#000000" fill-rule="nonzero" fill-opacity="1" /><path clip-path="url(#clip480)" d="M84.0938 596.462 L88.978 596.462 L88.978 602.342 L84.0938 602.342 L84.0938 596.462 Z" fill="#000000" fill-rule="nonzero" fill-opacity="1" /><path clip-path="url(#clip480)" d="M103.191 598.406 L119.51 598.406 L119.51 602.342 L97.566 602.342 L97.566 598.406 Q100.228 595.652 104.811 591.022 Q109.418 586.369 110.598 585.027 Q112.844 582.504 113.723 580.768 Q114.626 579.008 114.626 577.319 Q114.626 574.564 112.682 572.828 Q110.76 571.092 107.658 571.092 Q105.459 571.092 103.006 571.856 Q100.575 572.62 97.7974 574.17 L97.7974 569.448 Q100.621 568.314 103.075 567.735 Q105.529 567.157 107.566 567.157 Q112.936 567.157 116.131 569.842 Q119.325 572.527 119.325 577.018 Q119.325 579.147 118.515 581.069 Q117.728 582.967 115.621 585.559 Q115.043 586.231 111.941 589.448 Q108.839 592.643 103.191 598.406 Z" fill="#000000" fill-rule="nonzero" fill-opacity="1" /><path clip-path="url(#clip480)" d="M129.371 567.782 L147.728 567.782 L147.728 571.717 L133.654 571.717 L133.654 580.189 Q134.672 579.842 135.691 579.68 Q136.709 579.495 137.728 579.495 Q143.515 579.495 146.894 582.666 Q150.274 585.837 150.274 591.254 Q150.274 596.832 146.802 599.934 Q143.33 603.013 137.01 603.013 Q134.834 603.013 132.566 602.643 Q130.32 602.272 127.913 601.531 L127.913 596.832 Q129.996 597.967 132.219 598.522 Q134.441 599.078 136.918 599.078 Q140.922 599.078 143.26 596.971 Q145.598 594.865 145.598 591.254 Q145.598 587.643 143.26 585.536 Q140.922 583.43 136.918 583.43 Q135.043 583.43 133.168 583.846 Q131.316 584.263 129.371 585.143 L129.371 567.782 Z" fill="#000000" fill-rule="nonzero" fill-opacity="1" /><path clip-path="url(#clip480)" d="M53.7467 355.238 L61.3856 355.238 L61.3856 328.873 L53.0754 330.539 L53.0754 326.28 L61.3393 324.613 L66.0152 324.613 L66.0152 355.238 L73.654 355.238 L73.654 359.173 L53.7467 359.173 L53.7467 355.238 Z" fill="#000000" fill-rule="nonzero" fill-opacity="1" /><path clip-path="url(#clip480)" d="M83.0984 353.294 L87.9827 353.294 L87.9827 359.173 L83.0984 359.173 L83.0984 353.294 Z" fill="#000000" fill-rule="nonzero" fill-opacity="1" /><path clip-path="url(#clip480)" d="M98.2141 324.613 L116.57 324.613 L116.57 328.549 L102.496 328.549 L102.496 337.021 Q103.515 336.673 104.534 336.511 Q105.552 336.326 106.571 336.326 Q112.358 336.326 115.737 339.498 Q119.117 342.669 119.117 348.085 Q119.117 353.664 115.645 356.766 Q112.172 359.845 105.853 359.845 Q103.677 359.845 101.409 359.474 Q99.1632 359.104 96.7558 358.363 L96.7558 353.664 Q98.8391 354.798 101.061 355.354 Q103.284 355.91 105.76 355.91 Q109.765 355.91 112.103 353.803 Q114.441 351.697 114.441 348.085 Q114.441 344.474 112.103 342.368 Q109.765 340.261 105.76 340.261 Q103.885 340.261 102.01 340.678 Q100.159 341.095 98.2141 341.974 L98.2141 324.613 Z" fill="#000000" fill-rule="nonzero" fill-opacity="1" /><path clip-path="url(#clip480)" d="M138.33 327.692 Q134.719 327.692 132.89 331.257 Q131.084 334.799 131.084 341.928 Q131.084 349.035 132.89 352.599 Q134.719 356.141 138.33 356.141 Q141.964 356.141 143.769 352.599 Q145.598 349.035 145.598 341.928 Q145.598 334.799 143.769 331.257 Q141.964 327.692 138.33 327.692 M138.33 323.988 Q144.14 323.988 147.195 328.595 Q150.274 333.178 150.274 341.928 Q150.274 350.655 147.195 355.261 Q144.14 359.845 138.33 359.845 Q132.519 359.845 129.441 355.261 Q126.385 350.655 126.385 341.928 Q126.385 333.178 129.441 328.595 Q132.519 323.988 138.33 323.988 Z" fill="#000000" fill-rule="nonzero" fill-opacity="1" /><path clip-path="url(#clip480)" d="M54.7421 112.07 L62.381 112.07 L62.381 85.7044 L54.0708 87.371 L54.0708 83.1118 L62.3347 81.4451 L67.0106 81.4451 L67.0106 112.07 L74.6494 112.07 L74.6494 116.005 L54.7421 116.005 L54.7421 112.07 Z" fill="#000000" fill-rule="nonzero" fill-opacity="1" /><path clip-path="url(#clip480)" d="M84.0938 110.126 L88.978 110.126 L88.978 116.005 L84.0938 116.005 L84.0938 110.126 Z" fill="#000000" fill-rule="nonzero" fill-opacity="1" /><path clip-path="url(#clip480)" d="M97.9826 81.4451 L120.205 81.4451 L120.205 83.4359 L107.658 116.005 L102.774 116.005 L114.58 85.3803 L97.9826 85.3803 L97.9826 81.4451 Z" fill="#000000" fill-rule="nonzero" fill-opacity="1" /><path clip-path="url(#clip480)" d="M129.371 81.4451 L147.728 81.4451 L147.728 85.3803 L133.654 85.3803 L133.654 93.8525 Q134.672 93.5053 135.691 93.3432 Q136.709 93.158 137.728 93.158 Q143.515 93.158 146.894 96.3293 Q150.274 99.5006 150.274 104.917 Q150.274 110.496 146.802 113.598 Q143.33 116.676 137.01 116.676 Q134.834 116.676 132.566 116.306 Q130.32 115.936 127.913 115.195 L127.913 110.496 Q129.996 111.63 132.219 112.186 Q134.441 112.741 136.918 112.741 Q140.922 112.741 143.26 110.635 Q145.598 108.528 145.598 104.917 Q145.598 101.306 143.26 99.1997 Q140.922 97.0932 136.918 97.0932 Q135.043 97.0932 133.168 97.5099 Q131.316 97.9265 129.371 98.8062 L129.371 81.4451 Z" fill="#000000" fill-rule="nonzero" fill-opacity="1" /><polyline clip-path="url(#clip481)" style="stroke:#009af9; stroke-linecap:round; stroke-linejoin:round; stroke-width:12; stroke-opacity:1; fill:none" points="247.59,1314.57 451.975,1198.95 656.36,1085.43 860.745,877.006 1065.13,773.156 1269.51,760.381 1473.9,825.495 1678.29,788.647 1882.67,658.95 2087.06,705.897 2291.44,403.555 "/>
<polyline clip-path="url(#clip481)" style="stroke:#e26f46; stroke-linecap:round; stroke-linejoin:round; stroke-width:12; stroke-opacity:1; fill:none" points="247.59,1314.57 451.975,1324.94 656.36,1270.84 860.745,1256.66 1065.13,1276.41 1269.51,1232.96 1473.9,1190.4 1678.29,1225.73 1882.67,1214.65 2087.06,1041.29 2291.44,948.605 "/>
<polyline clip-path="url(#clip481)" style="stroke:#3da44d; stroke-linecap:round; stroke-linejoin:round; stroke-width:12; stroke-opacity:1; fill:none" points="247.59,1314.57 451.975,1379.37 656.36,1412.19 860.745,1439.26 1065.13,1445.72 1269.51,1433.57 1473.9,1387.88 1678.29,1271.76 1882.67,1204.14 2087.06,1175.92 2291.44,1135.36 "/>
<polyline clip-path="url(#clip481)" style="stroke:#c271d2; stroke-linecap:round; stroke-linejoin:round; stroke-width:12; stroke-opacity:1; fill:none" points="247.59,1314.57 451.975,1214.31 656.36,1154.77 860.745,1074.68 1065.13,906.11 1269.51,926.104 1473.9,978.005 1678.29,897.393 1882.67,832.393 2087.06,799.766 2291.44,740.637 "/>
<polyline clip-path="url(#clip481)" style="stroke:#ac8d18; stroke-linecap:round; stroke-linejoin:round; stroke-width:12; stroke-opacity:1; fill:none" points="247.59,1314.57 451.975,1300.08 656.36,1325.86 860.745,1299.04 1065.13,1172.85 1269.51,1128.22 1473.9,1176.34 1678.29,1179.78 1882.67,1083.85 2087.06,871.708 2291.44,1020.23 "/>
<polyline clip-path="url(#clip481)" style="stroke:#00a9ad; stroke-linecap:round; stroke-linejoin:round; stroke-width:12; stroke-opacity:1; fill:none" points="247.59,1314.57 451.975,1339.93 656.36,1277.77 860.745,1136.19 1065.13,1093.83 1269.51,1038.85 1473.9,965.592 1678.29,814.566 1882.67,737.899 2087.06,711.399 2291.44,511.141 "/>
<polyline clip-path="url(#clip481)" style="stroke:#ed5d92; stroke-linecap:round; stroke-linejoin:round; stroke-width:12; stroke-opacity:1; fill:none" points="247.59,1314.57 451.975,1266.35 656.36,1276.16 860.745,1256.64 1065.13,1182.78 1269.51,938.607 1473.9,1051.93 1678.29,580.432 1882.67,165.131 2087.06,87.9763 2291.44,490.749 "/>
<polyline clip-path="url(#clip481)" style="stroke:#c68125; stroke-linecap:round; stroke-linejoin:round; stroke-width:12; stroke-opacity:1; fill:none" points="247.59,1314.57 451.975,1384.05 656.36,1373.8 860.745,1337.67 1065.13,1273.86 1269.51,1275.68 1473.9,1133.31 1678.29,1167.36 1882.67,1118.04 2087.06,1065.81 2291.44,1095.06 "/>
</svg>
