<?xml version="1.0" encoding="utf-8"?>
<svg xmlns="http://www.w3.org/2000/svg" xmlns:xlink="http://www.w3.org/1999/xlink" width="600" height="400" viewBox="0 0 2400 1600">
<defs>
  <clipPath id="clip010">
    <rect x="0" y="0" width="2400" height="1600"/>
  </clipPath>
</defs>
<path clip-path="url(#clip010)" d="M0 1600 L2400 1600 L2400 0 L0 0  Z" fill="#ffffff" fill-rule="evenodd" fill-opacity="1"/>
<defs>
  <clipPath id="clip011">
    <rect x="155" y="47" width="2198" height="1440"/>
  </clipPath>
</defs>
<path clip-path="url(#clip010)" d="M155.765 1486.45 L2352.76 1486.45 L2352.76 47.2441 L155.765 47.2441  Z" fill="#ffffff" fill-rule="evenodd" fill-opacity="1"/>
<polyline clip-path="url(#clip011)" style="stroke:#000000; stroke-linecap:round; stroke-linejoin:round; stroke-width:2; stroke-opacity:0.1; fill:none" points="217.944,1486.45 217.944,47.2441 "/>
<polyline clip-path="url(#clip011)" style="stroke:#000000; stroke-linecap:round; stroke-linejoin:round; stroke-width:2; stroke-opacity:0.1; fill:none" points="736.102,1486.45 736.102,47.2441 "/>
<polyline clip-path="url(#clip011)" style="stroke:#000000; stroke-linecap:round; stroke-linejoin:round; stroke-width:2; stroke-opacity:0.1; fill:none" points="1254.26,1486.45 1254.26,47.2441 "/>
<polyline clip-path="url(#clip011)" style="stroke:#000000; stroke-linecap:round; stroke-linejoin:round; stroke-width:2; stroke-opacity:0.1; fill:none" points="1772.42,1486.45 1772.42,47.2441 "/>
<polyline clip-path="url(#clip011)" style="stroke:#000000; stroke-linecap:round; stroke-linejoin:round; stroke-width:2; stroke-opacity:0.1; fill:none" points="2290.58,1486.45 2290.58,47.2441 "/>
<polyline clip-path="url(#clip011)" style="stroke:#000000; stroke-linecap:round; stroke-linejoin:round; stroke-width:2; stroke-opacity:0.1; fill:none" points="155.765,1296.72 2352.76,1296.72 "/>
<polyline clip-path="url(#clip011)" style="stroke:#000000; stroke-linecap:round; stroke-linejoin:round; stroke-width:2; stroke-opacity:0.1; fill:none" points="155.765,1052.77 2352.76,1052.77 "/>
<polyline clip-path="url(#clip011)" style="stroke:#000000; stroke-linecap:round; stroke-linejoin:round; stroke-width:2; stroke-opacity:0.1; fill:none" points="155.765,808.823 2352.76,808.823 "/>
<polyline clip-path="url(#clip011)" style="stroke:#000000; stroke-linecap:round; stroke-linejoin:round; stroke-width:2; stroke-opacity:0.1; fill:none" points="155.765,564.873 2352.76,564.873 "/>
<polyline clip-path="url(#clip011)" style="stroke:#000000; stroke-linecap:round; stroke-linejoin:round; stroke-width:2; stroke-opacity:0.1; fill:none" points="155.765,320.923 2352.76,320.923 "/>
<polyline clip-path="url(#clip011)" style="stroke:#000000; stroke-linecap:round; stroke-linejoin:round; stroke-width:2; stroke-opacity:0.1; fill:none" points="155.765,76.973 2352.76,76.973 "/>
<polyline clip-path="url(#clip010)" style="stroke:#000000; stroke-linecap:round; stroke-linejoin:round; stroke-width:4; stroke-opacity:1; fill:none" points="155.765,1486.45 2352.76,1486.45 "/>
<polyline clip-path="url(#clip010)" style="stroke:#000000; stroke-linecap:round; stroke-linejoin:round; stroke-width:4; stroke-opacity:1; fill:none" points="217.944,1486.45 217.944,1467.55 "/>
<polyline clip-path="url(#clip010)" style="stroke:#000000; stroke-linecap:round; stroke-linejoin:round; stroke-width:4; stroke-opacity:1; fill:none" points="736.102,1486.45 736.102,1467.55 "/>
<polyline clip-path="url(#clip010)" style="stroke:#000000; stroke-linecap:round; stroke-linejoin:round; stroke-width:4; stroke-opacity:1; fill:none" points="1254.26,1486.45 1254.26,1467.55 "/>
<polyline clip-path="url(#clip010)" style="stroke:#000000; stroke-linecap:round; stroke-linejoin:round; stroke-width:4; stroke-opacity:1; fill:none" points="1772.42,1486.45 1772.42,1467.55 "/>
<polyline clip-path="url(#clip010)" style="stroke:#000000; stroke-linecap:round; stroke-linejoin:round; stroke-width:4; stroke-opacity:1; fill:none" points="2290.58,1486.45 2290.58,1467.55 "/>
<path clip-path="url(#clip010)" d="M180.247 1517.37 Q176.636 1517.37 174.808 1520.93 Q173.002 1524.47 173.002 1531.6 Q173.002 1538.71 174.808 1542.27 Q176.636 1545.82 180.247 1545.82 Q183.882 1545.82 185.687 1542.27 Q187.516 1538.71 187.516 1531.6 Q187.516 1524.47 185.687 1520.93 Q183.882 1517.37 180.247 1517.37 M180.247 1513.66 Q186.057 1513.66 189.113 1518.27 Q192.192 1522.85 192.192 1531.6 Q192.192 1540.33 189.113 1544.94 Q186.057 1549.52 180.247 1549.52 Q174.437 1549.52 171.358 1544.94 Q168.303 1540.33 168.303 1531.6 Q168.303 1522.85 171.358 1518.27 Q174.437 1513.66 180.247 1513.66 Z" fill="#000000" fill-rule="nonzero" fill-opacity="1" /><path clip-path="url(#clip010)" d="M200.409 1542.97 L205.294 1542.97 L205.294 1548.85 L200.409 1548.85 L200.409 1542.97 Z" fill="#000000" fill-rule="nonzero" fill-opacity="1" /><path clip-path="url(#clip010)" d="M225.479 1517.37 Q221.867 1517.37 220.039 1520.93 Q218.233 1524.47 218.233 1531.6 Q218.233 1538.71 220.039 1542.27 Q221.867 1545.82 225.479 1545.82 Q229.113 1545.82 230.918 1542.27 Q232.747 1538.71 232.747 1531.6 Q232.747 1524.47 230.918 1520.93 Q229.113 1517.37 225.479 1517.37 M225.479 1513.66 Q231.289 1513.66 234.344 1518.27 Q237.423 1522.85 237.423 1531.6 Q237.423 1540.33 234.344 1544.94 Q231.289 1549.52 225.479 1549.52 Q219.668 1549.52 216.59 1544.94 Q213.534 1540.33 213.534 1531.6 Q213.534 1522.85 216.59 1518.27 Q219.668 1513.66 225.479 1513.66 Z" fill="#000000" fill-rule="nonzero" fill-opacity="1" /><path clip-path="url(#clip010)" d="M255.64 1517.37 Q252.029 1517.37 250.201 1520.93 Q248.395 1524.47 248.395 1531.6 Q248.395 1538.71 250.201 1542.27 Q252.029 1545.82 255.64 1545.82 Q259.275 1545.82 261.08 1542.27 Q262.909 1538.71 262.909 1531.6 Q262.909 1524.47 261.08 1520.93 Q259.275 1517.37 255.64 1517.37 M255.64 1513.66 Q261.451 1513.66 264.506 1518.27 Q267.585 1522.85 267.585 1531.6 Q267.585 1540.33 264.506 1544.94 Q261.451 1549.52 255.64 1549.52 Q249.83 1549.52 246.752 1544.94 Q243.696 1540.33 243.696 1531.6 Q243.696 1522.85 246.752 1518.27 Q249.83 1513.66 255.64 1513.66 Z" fill="#000000" fill-rule="nonzero" fill-opacity="1" /><path clip-path="url(#clip010)" d="M698.903 1517.37 Q695.292 1517.37 693.463 1520.93 Q691.658 1524.47 691.658 1531.6 Q691.658 1538.71 693.463 1542.27 Q695.292 1545.82 698.903 1545.82 Q702.538 1545.82 704.343 1542.27 Q706.172 1538.71 706.172 1531.6 Q706.172 1524.47 704.343 1520.93 Q702.538 1517.37 698.903 1517.37 M698.903 1513.66 Q704.713 1513.66 707.769 1518.27 Q710.848 1522.85 710.848 1531.6 Q710.848 1540.33 707.769 1544.94 Q704.713 1549.52 698.903 1549.52 Q693.093 1549.52 690.014 1544.94 Q686.959 1540.33 686.959 1531.6 Q686.959 1522.85 690.014 1518.27 Q693.093 1513.66 698.903 1513.66 Z" fill="#000000" fill-rule="nonzero" fill-opacity="1" /><path clip-path="url(#clip010)" d="M719.065 1542.97 L723.949 1542.97 L723.949 1548.85 L719.065 1548.85 L719.065 1542.97 Z" fill="#000000" fill-rule="nonzero" fill-opacity="1" /><path clip-path="url(#clip010)" d="M738.162 1544.91 L754.482 1544.91 L754.482 1548.85 L732.537 1548.85 L732.537 1544.91 Q735.199 1542.16 739.783 1537.53 Q744.389 1532.88 745.57 1531.53 Q747.815 1529.01 748.695 1527.27 Q749.597 1525.51 749.597 1523.82 Q749.597 1521.07 747.653 1519.33 Q745.732 1517.6 742.63 1517.6 Q740.431 1517.6 737.977 1518.36 Q735.547 1519.13 732.769 1520.68 L732.769 1515.95 Q735.593 1514.82 738.047 1514.24 Q740.5 1513.66 742.537 1513.66 Q747.908 1513.66 751.102 1516.35 Q754.296 1519.03 754.296 1523.52 Q754.296 1525.65 753.486 1527.57 Q752.699 1529.47 750.593 1532.07 Q750.014 1532.74 746.912 1535.95 Q743.81 1539.15 738.162 1544.91 Z" fill="#000000" fill-rule="nonzero" fill-opacity="1" /><path clip-path="url(#clip010)" d="M764.343 1514.29 L782.699 1514.29 L782.699 1518.22 L768.625 1518.22 L768.625 1526.7 Q769.644 1526.35 770.662 1526.19 Q771.681 1526 772.699 1526 Q778.486 1526 781.866 1529.17 Q785.245 1532.34 785.245 1537.76 Q785.245 1543.34 781.773 1546.44 Q778.301 1549.52 771.982 1549.52 Q769.806 1549.52 767.537 1549.15 Q765.292 1548.78 762.884 1548.04 L762.884 1543.34 Q764.968 1544.47 767.19 1545.03 Q769.412 1545.58 771.889 1545.58 Q775.894 1545.58 778.232 1543.48 Q780.57 1541.37 780.57 1537.76 Q780.57 1534.15 778.232 1532.04 Q775.894 1529.94 771.889 1529.94 Q770.014 1529.94 768.139 1530.35 Q766.287 1530.77 764.343 1531.65 L764.343 1514.29 Z" fill="#000000" fill-rule="nonzero" fill-opacity="1" /><path clip-path="url(#clip010)" d="M1216.56 1517.37 Q1212.95 1517.37 1211.12 1520.93 Q1209.32 1524.47 1209.32 1531.6 Q1209.32 1538.71 1211.12 1542.27 Q1212.95 1545.82 1216.56 1545.82 Q1220.2 1545.82 1222 1542.27 Q1223.83 1538.71 1223.83 1531.6 Q1223.83 1524.47 1222 1520.93 Q1220.2 1517.37 1216.56 1517.37 M1216.56 1513.66 Q1222.37 1513.66 1225.43 1518.27 Q1228.51 1522.85 1228.51 1531.6 Q1228.51 1540.33 1225.43 1544.94 Q1222.37 1549.52 1216.56 1549.52 Q1210.75 1549.52 1207.68 1544.94 Q1204.62 1540.33 1204.62 1531.6 Q1204.62 1522.85 1207.68 1518.27 Q1210.75 1513.66 1216.56 1513.66 Z" fill="#000000" fill-rule="nonzero" fill-opacity="1" /><path clip-path="url(#clip010)" d="M1236.73 1542.97 L1241.61 1542.97 L1241.61 1548.85 L1236.73 1548.85 L1236.73 1542.97 Z" fill="#000000" fill-rule="nonzero" fill-opacity="1" /><path clip-path="url(#clip010)" d="M1251.84 1514.29 L1270.2 1514.29 L1270.2 1518.22 L1256.12 1518.22 L1256.12 1526.7 Q1257.14 1526.35 1258.16 1526.19 Q1259.18 1526 1260.2 1526 Q1265.98 1526 1269.36 1529.17 Q1272.74 1532.34 1272.74 1537.76 Q1272.74 1543.34 1269.27 1546.44 Q1265.8 1549.52 1259.48 1549.52 Q1257.3 1549.52 1255.04 1549.15 Q1252.79 1548.78 1250.38 1548.04 L1250.38 1543.34 Q1252.47 1544.47 1254.69 1545.03 Q1256.91 1545.58 1259.39 1545.58 Q1263.39 1545.58 1265.73 1543.48 Q1268.07 1541.37 1268.07 1537.76 Q1268.07 1534.15 1265.73 1532.04 Q1263.39 1529.94 1259.39 1529.94 Q1257.51 1529.94 1255.64 1530.35 Q1253.79 1530.77 1251.84 1531.65 L1251.84 1514.29 Z" fill="#000000" fill-rule="nonzero" fill-opacity="1" /><path clip-path="url(#clip010)" d="M1291.96 1517.37 Q1288.35 1517.37 1286.52 1520.93 Q1284.71 1524.47 1284.71 1531.6 Q1284.71 1538.71 1286.52 1542.27 Q1288.35 1545.82 1291.96 1545.82 Q1295.59 1545.82 1297.4 1542.27 Q1299.23 1538.71 1299.23 1531.6 Q1299.23 1524.47 1297.4 1520.93 Q1295.59 1517.37 1291.96 1517.37 M1291.96 1513.66 Q1297.77 1513.66 1300.82 1518.27 Q1303.9 1522.85 1303.9 1531.6 Q1303.9 1540.33 1300.82 1544.94 Q1297.77 1549.52 1291.96 1549.52 Q1286.15 1549.52 1283.07 1544.94 Q1280.01 1540.33 1280.01 1531.6 Q1280.01 1522.85 1283.07 1518.27 Q1286.15 1513.66 1291.96 1513.66 Z" fill="#000000" fill-rule="nonzero" fill-opacity="1" /><path clip-path="url(#clip010)" d="M1735.22 1517.37 Q1731.61 1517.37 1729.78 1520.93 Q1727.97 1524.47 1727.97 1531.6 Q1727.97 1538.71 1729.78 1542.27 Q1731.61 1545.82 1735.22 1545.82 Q1738.85 1545.82 1740.66 1542.27 Q1742.49 1538.71 1742.49 1531.6 Q1742.49 1524.47 1740.66 1520.93 Q1738.85 1517.37 1735.22 1517.37 M1735.22 1513.66 Q1741.03 1513.66 1744.09 1518.27 Q1747.16 1522.85 1747.16 1531.6 Q1747.16 1540.33 1744.09 1544.94 Q1741.03 1549.52 1735.22 1549.52 Q1729.41 1549.52 1726.33 1544.94 Q1723.28 1540.33 1723.28 1531.6 Q1723.28 1522.85 1726.33 1518.27 Q1729.41 1513.66 1735.22 1513.66 Z" fill="#000000" fill-rule="nonzero" fill-opacity="1" /><path clip-path="url(#clip010)" d="M1755.38 1542.97 L1760.27 1542.97 L1760.27 1548.85 L1755.38 1548.85 L1755.38 1542.97 Z" fill="#000000" fill-rule="nonzero" fill-opacity="1" /><path clip-path="url(#clip010)" d="M1769.27 1514.29 L1791.49 1514.29 L1791.49 1516.28 L1778.95 1548.85 L1774.06 1548.85 L1785.87 1518.22 L1769.27 1518.22 L1769.27 1514.29 Z" fill="#000000" fill-rule="nonzero" fill-opacity="1" /><path clip-path="url(#clip010)" d="M1800.66 1514.29 L1819.02 1514.29 L1819.02 1518.22 L1804.94 1518.22 L1804.94 1526.7 Q1805.96 1526.35 1806.98 1526.19 Q1808 1526 1809.02 1526 Q1814.8 1526 1818.18 1529.17 Q1821.56 1532.34 1821.56 1537.76 Q1821.56 1543.34 1818.09 1546.44 Q1814.62 1549.52 1808.3 1549.52 Q1806.12 1549.52 1803.85 1549.15 Q1801.61 1548.78 1799.2 1548.04 L1799.2 1543.34 Q1801.28 1544.47 1803.51 1545.03 Q1805.73 1545.58 1808.21 1545.58 Q1812.21 1545.58 1814.55 1543.48 Q1816.89 1541.37 1816.89 1537.76 Q1816.89 1534.15 1814.55 1532.04 Q1812.21 1529.94 1808.21 1529.94 Q1806.33 1529.94 1804.46 1530.35 Q1802.6 1530.77 1800.66 1531.65 L1800.66 1514.29 Z" fill="#000000" fill-rule="nonzero" fill-opacity="1" /><path clip-path="url(#clip010)" d="M2242.65 1544.91 L2250.29 1544.91 L2250.29 1518.55 L2241.98 1520.21 L2241.98 1515.95 L2250.24 1514.29 L2254.92 1514.29 L2254.92 1544.91 L2262.56 1544.91 L2262.56 1548.85 L2242.65 1548.85 L2242.65 1544.91 Z" fill="#000000" fill-rule="nonzero" fill-opacity="1" /><path clip-path="url(#clip010)" d="M2272 1542.97 L2276.88 1542.97 L2276.88 1548.85 L2272 1548.85 L2272 1542.97 Z" fill="#000000" fill-rule="nonzero" fill-opacity="1" /><path clip-path="url(#clip010)" d="M2297.07 1517.37 Q2293.46 1517.37 2291.63 1520.93 Q2289.82 1524.47 2289.82 1531.6 Q2289.82 1538.71 2291.63 1542.27 Q2293.46 1545.82 2297.07 1545.82 Q2300.7 1545.82 2302.51 1542.27 Q2304.34 1538.71 2304.34 1531.6 Q2304.34 1524.47 2302.51 1520.93 Q2300.7 1517.37 2297.07 1517.37 M2297.07 1513.66 Q2302.88 1513.66 2305.94 1518.27 Q2309.01 1522.85 2309.01 1531.6 Q2309.01 1540.33 2305.94 1544.94 Q2302.88 1549.52 2297.07 1549.52 Q2291.26 1549.52 2288.18 1544.94 Q2285.13 1540.33 2285.13 1531.6 Q2285.13 1522.85 2288.18 1518.27 Q2291.26 1513.66 2297.07 1513.66 Z" fill="#000000" fill-rule="nonzero" fill-opacity="1" /><path clip-path="url(#clip010)" d="M2327.23 1517.37 Q2323.62 1517.37 2321.79 1520.93 Q2319.99 1524.47 2319.99 1531.6 Q2319.99 1538.71 2321.79 1542.27 Q2323.62 1545.82 2327.23 1545.82 Q2330.87 1545.82 2332.67 1542.27 Q2334.5 1538.71 2334.5 1531.6 Q2334.5 1524.47 2332.67 1520.93 Q2330.87 1517.37 2327.23 1517.37 M2327.23 1513.66 Q2333.04 1513.66 2336.1 1518.27 Q2339.18 1522.85 2339.18 1531.6 Q2339.18 1540.33 2336.1 1544.94 Q2333.04 1549.52 2327.23 1549.52 Q2321.42 1549.52 2318.34 1544.94 Q2315.29 1540.33 2315.29 1531.6 Q2315.29 1522.85 2318.34 1518.27 Q2321.42 1513.66 2327.23 1513.66 Z" fill="#000000" fill-rule="nonzero" fill-opacity="1" /><polyline clip-path="url(#clip010)" style="stroke:#000000; stroke-linecap:round; stroke-linejoin:round; stroke-width:4; stroke-opacity:1; fill:none" points="155.765,1486.45 155.765,47.2441 "/>
<polyline clip-path="url(#clip010)" style="stroke:#000000; stroke-linecap:round; stroke-linejoin:round; stroke-width:4; stroke-opacity:1; fill:none" points="155.765,1296.72 174.663,1296.72 "/>
<polyline clip-path="url(#clip010)" style="stroke:#000000; stroke-linecap:round; stroke-linejoin:round; stroke-width:4; stroke-opacity:1; fill:none" points="155.765,1052.77 174.663,1052.77 "/>
<polyline clip-path="url(#clip010)" style="stroke:#000000; stroke-linecap:round; stroke-linejoin:round; stroke-width:4; stroke-opacity:1; fill:none" points="155.765,808.823 174.663,808.823 "/>
<polyline clip-path="url(#clip010)" style="stroke:#000000; stroke-linecap:round; stroke-linejoin:round; stroke-width:4; stroke-opacity:1; fill:none" points="155.765,564.873 174.663,564.873 "/>
<polyline clip-path="url(#clip010)" style="stroke:#000000; stroke-linecap:round; stroke-linejoin:round; stroke-width:4; stroke-opacity:1; fill:none" points="155.765,320.923 174.663,320.923 "/>
<polyline clip-path="url(#clip010)" style="stroke:#000000; stroke-linecap:round; stroke-linejoin:round; stroke-width:4; stroke-opacity:1; fill:none" points="155.765,76.973 174.663,76.973 "/>
<path clip-path="url(#clip010)" d="M63.5847 1282.52 Q59.9736 1282.52 58.1449 1286.09 Q56.3393 1289.63 56.3393 1296.76 Q56.3393 1303.86 58.1449 1307.43 Q59.9736 1310.97 63.5847 1310.97 Q67.2189 1310.97 69.0244 1307.43 Q70.8531 1303.86 70.8531 1296.76 Q70.8531 1289.63 69.0244 1286.09 Q67.2189 1282.52 63.5847 1282.52 M63.5847 1278.82 Q69.3948 1278.82 72.4503 1283.42 Q75.529 1288.01 75.529 1296.76 Q75.529 1305.48 72.4503 1310.09 Q69.3948 1314.67 63.5847 1314.67 Q57.7745 1314.67 54.6958 1310.09 Q51.6403 1305.48 51.6403 1296.76 Q51.6403 1288.01 54.6958 1283.42 Q57.7745 1278.82 63.5847 1278.82 Z" fill="#000000" fill-rule="nonzero" fill-opacity="1" /><path clip-path="url(#clip010)" d="M83.7466 1308.12 L88.6308 1308.12 L88.6308 1314 L83.7466 1314 L83.7466 1308.12 Z" fill="#000000" fill-rule="nonzero" fill-opacity="1" /><path clip-path="url(#clip010)" d="M98.8622 1279.44 L117.219 1279.44 L117.219 1283.38 L103.145 1283.38 L103.145 1291.85 Q104.163 1291.5 105.182 1291.34 Q106.2 1291.16 107.219 1291.16 Q113.006 1291.16 116.385 1294.33 Q119.765 1297.5 119.765 1302.92 Q119.765 1308.49 116.293 1311.6 Q112.82 1314.67 106.501 1314.67 Q104.325 1314.67 102.057 1314.3 Q99.8113 1313.93 97.4039 1313.19 L97.4039 1308.49 Q99.4872 1309.63 101.709 1310.18 Q103.932 1310.74 106.408 1310.74 Q110.413 1310.74 112.751 1308.63 Q115.089 1306.53 115.089 1302.92 Q115.089 1299.3 112.751 1297.2 Q110.413 1295.09 106.408 1295.09 Q104.534 1295.09 102.659 1295.51 Q100.807 1295.92 98.8622 1296.8 L98.8622 1279.44 Z" fill="#000000" fill-rule="nonzero" fill-opacity="1" /><path clip-path="url(#clip010)" d="M53.3995 1066.12 L61.0384 1066.12 L61.0384 1039.75 L52.7282 1041.42 L52.7282 1037.16 L60.9921 1035.49 L65.668 1035.49 L65.668 1066.12 L73.3068 1066.12 L73.3068 1070.05 L53.3995 1070.05 L53.3995 1066.12 Z" fill="#000000" fill-rule="nonzero" fill-opacity="1" /><path clip-path="url(#clip010)" d="M82.7512 1064.17 L87.6354 1064.17 L87.6354 1070.05 L82.7512 1070.05 L82.7512 1064.17 Z" fill="#000000" fill-rule="nonzero" fill-opacity="1" /><path clip-path="url(#clip010)" d="M107.821 1038.57 Q104.209 1038.57 102.381 1042.14 Q100.575 1045.68 100.575 1052.81 Q100.575 1059.91 102.381 1063.48 Q104.209 1067.02 107.821 1067.02 Q111.455 1067.02 113.26 1063.48 Q115.089 1059.91 115.089 1052.81 Q115.089 1045.68 113.26 1042.14 Q111.455 1038.57 107.821 1038.57 M107.821 1034.87 Q113.631 1034.87 116.686 1039.47 Q119.765 1044.06 119.765 1052.81 Q119.765 1061.53 116.686 1066.14 Q113.631 1070.72 107.821 1070.72 Q102.01 1070.72 98.9317 1066.14 Q95.8761 1061.53 95.8761 1052.81 Q95.8761 1044.06 98.9317 1039.47 Q102.01 1034.87 107.821 1034.87 Z" fill="#000000" fill-rule="nonzero" fill-opacity="1" /><path clip-path="url(#clip010)" d="M54.3949 822.168 L62.0337 822.168 L62.0337 795.802 L53.7236 797.469 L53.7236 793.21 L61.9874 791.543 L66.6633 791.543 L66.6633 822.168 L74.3022 822.168 L74.3022 826.103 L54.3949 826.103 L54.3949 822.168 Z" fill="#000000" fill-rule="nonzero" fill-opacity="1" /><path clip-path="url(#clip010)" d="M83.7466 820.224 L88.6308 820.224 L88.6308 826.103 L83.7466 826.103 L83.7466 820.224 Z" fill="#000000" fill-rule="nonzero" fill-opacity="1" /><path clip-path="url(#clip010)" d="M98.8622 791.543 L117.219 791.543 L117.219 795.478 L103.145 795.478 L103.145 803.951 Q104.163 803.603 105.182 803.441 Q106.2 803.256 107.219 803.256 Q113.006 803.256 116.385 806.427 Q119.765 809.599 119.765 815.015 Q119.765 820.594 116.293 823.696 Q112.82 826.775 106.501 826.775 Q104.325 826.775 102.057 826.404 Q99.8113 826.034 97.4039 825.293 L97.4039 820.594 Q99.4872 821.728 101.709 822.284 Q103.932 822.839 106.408 822.839 Q110.413 822.839 112.751 820.733 Q115.089 818.626 115.089 815.015 Q115.089 811.404 112.751 809.298 Q110.413 807.191 106.408 807.191 Q104.534 807.191 102.659 807.608 Q100.807 808.025 98.8622 808.904 L98.8622 791.543 Z" fill="#000000" fill-rule="nonzero" fill-opacity="1" /><path clip-path="url(#clip010)" d="M56.6171 578.218 L72.9365 578.218 L72.9365 582.153 L50.9921 582.153 L50.9921 578.218 Q53.6541 575.463 58.2375 570.834 Q62.8439 566.181 64.0245 564.838 Q66.2698 562.315 67.1494 560.579 Q68.0522 558.82 68.0522 557.13 Q68.0522 554.376 66.1078 552.639 Q64.1865 550.903 61.0847 550.903 Q58.8856 550.903 56.4319 551.667 Q54.0014 552.431 51.2236 553.982 L51.2236 549.26 Q54.0477 548.126 56.5014 547.547 Q58.955 546.968 60.9921 546.968 Q66.3624 546.968 69.5568 549.653 Q72.7513 552.339 72.7513 556.829 Q72.7513 558.959 71.9411 560.88 Q71.1541 562.778 69.0476 565.371 Q68.4689 566.042 65.367 569.26 Q62.2652 572.454 56.6171 578.218 Z" fill="#000000" fill-rule="nonzero" fill-opacity="1" /><path clip-path="url(#clip010)" d="M82.7512 576.274 L87.6354 576.274 L87.6354 582.153 L82.7512 582.153 L82.7512 576.274 Z" fill="#000000" fill-rule="nonzero" fill-opacity="1" /><path clip-path="url(#clip010)" d="M107.821 550.672 Q104.209 550.672 102.381 554.237 Q100.575 557.778 100.575 564.908 Q100.575 572.014 102.381 575.579 Q104.209 579.121 107.821 579.121 Q111.455 579.121 113.26 575.579 Q115.089 572.014 115.089 564.908 Q115.089 557.778 113.26 554.237 Q111.455 550.672 107.821 550.672 M107.821 546.968 Q113.631 546.968 116.686 551.575 Q119.765 556.158 119.765 564.908 Q119.765 573.635 116.686 578.241 Q113.631 582.824 107.821 582.824 Q102.01 582.824 98.9317 578.241 Q95.8761 573.635 95.8761 564.908 Q95.8761 556.158 98.9317 551.575 Q102.01 546.968 107.821 546.968 Z" fill="#000000" fill-rule="nonzero" fill-opacity="1" /><path clip-path="url(#clip010)" d="M57.6125 334.268 L73.9318 334.268 L73.9318 338.203 L51.9875 338.203 L51.9875 334.268 Q54.6495 331.513 59.2328 326.884 Q63.8393 322.231 65.0198 320.888 Q67.2652 318.365 68.1448 316.629 Q69.0476 314.87 69.0476 313.18 Q69.0476 310.425 67.1032 308.689 Q65.1819 306.953 62.08 306.953 Q59.881 306.953 57.4273 307.717 Q54.9967 308.481 52.219 310.032 L52.219 305.31 Q55.043 304.175 57.4967 303.597 Q59.9504 303.018 61.9874 303.018 Q67.3578 303.018 70.5522 305.703 Q73.7466 308.388 73.7466 312.879 Q73.7466 315.009 72.9365 316.93 Q72.1494 318.828 70.0429 321.421 Q69.4642 322.092 66.3624 325.31 Q63.2606 328.504 57.6125 334.268 Z" fill="#000000" fill-rule="nonzero" fill-opacity="1" /><path clip-path="url(#clip010)" d="M83.7466 332.323 L88.6308 332.323 L88.6308 338.203 L83.7466 338.203 L83.7466 332.323 Z" fill="#000000" fill-rule="nonzero" fill-opacity="1" /><path clip-path="url(#clip010)" d="M98.8622 303.643 L117.219 303.643 L117.219 307.578 L103.145 307.578 L103.145 316.05 Q104.163 315.703 105.182 315.541 Q106.2 315.356 107.219 315.356 Q113.006 315.356 116.385 318.527 Q119.765 321.699 119.765 327.115 Q119.765 332.694 116.293 335.796 Q112.82 338.874 106.501 338.874 Q104.325 338.874 102.057 338.504 Q99.8113 338.134 97.4039 337.393 L97.4039 332.694 Q99.4872 333.828 101.709 334.384 Q103.932 334.939 106.408 334.939 Q110.413 334.939 112.751 332.833 Q115.089 330.726 115.089 327.115 Q115.089 323.504 112.751 321.398 Q110.413 319.291 106.408 319.291 Q104.534 319.291 102.659 319.708 Q100.807 320.124 98.8622 321.004 L98.8622 303.643 Z" fill="#000000" fill-rule="nonzero" fill-opacity="1" /><path clip-path="url(#clip010)" d="M66.7559 75.6189 Q70.1124 76.3364 71.9874 78.605 Q73.8855 80.8735 73.8855 84.2068 Q73.8855 89.3225 70.367 92.1234 Q66.8485 94.9243 60.3671 94.9243 Q58.1912 94.9243 55.8764 94.4845 Q53.5847 94.0678 51.131 93.2114 L51.131 88.6975 Q53.0754 89.8317 55.3903 90.4104 Q57.7051 90.9891 60.2282 90.9891 Q64.6263 90.9891 66.918 89.253 Q69.2328 87.5169 69.2328 84.2068 Q69.2328 81.1512 67.08 79.4383 Q64.9504 77.7022 61.131 77.7022 L57.1032 77.7022 L57.1032 73.8596 L61.3161 73.8596 Q64.7652 73.8596 66.5939 72.4939 Q68.4226 71.105 68.4226 68.5124 Q68.4226 65.8504 66.5245 64.4384 Q64.6495 63.0032 61.131 63.0032 Q59.2097 63.0032 57.0106 63.4198 Q54.8115 63.8365 52.1727 64.7161 L52.1727 60.5495 Q54.8347 59.8088 57.1495 59.4384 Q59.4875 59.068 61.5476 59.068 Q66.8717 59.068 69.9735 61.4986 Q73.0753 63.906 73.0753 68.0263 Q73.0753 70.8967 71.4318 72.8874 Q69.7883 74.855 66.7559 75.6189 Z" fill="#000000" fill-rule="nonzero" fill-opacity="1" /><path clip-path="url(#clip010)" d="M82.7512 88.3734 L87.6354 88.3734 L87.6354 94.253 L82.7512 94.253 L82.7512 88.3734 Z" fill="#000000" fill-rule="nonzero" fill-opacity="1" /><path clip-path="url(#clip010)" d="M107.821 62.7717 Q104.209 62.7717 102.381 66.3365 Q100.575 69.8781 100.575 77.0077 Q100.575 84.1142 102.381 87.679 Q104.209 91.2206 107.821 91.2206 Q111.455 91.2206 113.26 87.679 Q115.089 84.1142 115.089 77.0077 Q115.089 69.8781 113.26 66.3365 Q111.455 62.7717 107.821 62.7717 M107.821 59.068 Q113.631 59.068 116.686 63.6745 Q119.765 68.2578 119.765 77.0077 Q119.765 85.7345 116.686 90.341 Q113.631 94.9243 107.821 94.9243 Q102.01 94.9243 98.9317 90.341 Q95.8761 85.7345 95.8761 77.0077 Q95.8761 68.2578 98.9317 63.6745 Q102.01 59.068 107.821 59.068 Z" fill="#000000" fill-rule="nonzero" fill-opacity="1" /><polyline clip-path="url(#clip011)" style="stroke:#009af9; stroke-linecap:round; stroke-linejoin:round; stroke-width:12; stroke-opacity:1; fill:none" points="217.944,1296.72 425.207,1237.02 632.47,1198.45 839.734,1205.66 1047,1178.8 1254.26,1200.54 1461.52,1220.94 1668.79,1245.5 1876.05,1224.57 2083.31,1161.44 2290.58,1111.17 "/>
<polyline clip-path="url(#clip011)" style="stroke:#000000; stroke-linecap:round; stroke-linejoin:round; stroke-width:12; stroke-opacity:1; fill:none" points="217.944,1296.72 217.944,1296.72 "/>
<polyline clip-path="url(#clip011)" style="stroke:#000000; stroke-linecap:round; stroke-linejoin:round; stroke-width:12; stroke-opacity:1; fill:none" points="425.207,1380.98 425.207,1113.08 "/>
<polyline clip-path="url(#clip011)" style="stroke:#000000; stroke-linecap:round; stroke-linejoin:round; stroke-width:12; stroke-opacity:1; fill:none" points="632.47,1391.17 632.47,1007 "/>
<polyline clip-path="url(#clip011)" style="stroke:#000000; stroke-linecap:round; stroke-linejoin:round; stroke-width:12; stroke-opacity:1; fill:none" points="839.734,1416.17 839.734,932.877 "/>
<polyline clip-path="url(#clip011)" style="stroke:#000000; stroke-linecap:round; stroke-linejoin:round; stroke-width:12; stroke-opacity:1; fill:none" points="1047,1440.91 1047,845.056 "/>
<polyline clip-path="url(#clip011)" style="stroke:#000000; stroke-linecap:round; stroke-linejoin:round; stroke-width:12; stroke-opacity:1; fill:none" points="1254.26,1445.3 1254.26,828.556 "/>
<polyline clip-path="url(#clip011)" style="stroke:#000000; stroke-linecap:round; stroke-linejoin:round; stroke-width:12; stroke-opacity:1; fill:none" points="1461.52,1445.17 1461.52,678.649 "/>
<polyline clip-path="url(#clip011)" style="stroke:#000000; stroke-linecap:round; stroke-linejoin:round; stroke-width:12; stroke-opacity:1; fill:none" points="1668.79,1440.84 1668.79,486.789 "/>
<polyline clip-path="url(#clip011)" style="stroke:#000000; stroke-linecap:round; stroke-linejoin:round; stroke-width:12; stroke-opacity:1; fill:none" points="1876.05,1435.6 1876.05,344.299 "/>
<polyline clip-path="url(#clip011)" style="stroke:#000000; stroke-linecap:round; stroke-linejoin:round; stroke-width:12; stroke-opacity:1; fill:none" points="2083.31,1434.79 2083.31,321.901 "/>
<polyline clip-path="url(#clip011)" style="stroke:#000000; stroke-linecap:round; stroke-linejoin:round; stroke-width:12; stroke-opacity:1; fill:none" points="2290.58,1445.72 2290.58,87.9763 "/>
<line clip-path="url(#clip011)" x1="233.944" y1="1296.72" x2="201.944" y2="1296.72" style="stroke:#000000; stroke-width:12; stroke-opacity:1"/>
<line clip-path="url(#clip011)" x1="233.944" y1="1296.72" x2="201.944" y2="1296.72" style="stroke:#000000; stroke-width:12; stroke-opacity:1"/>
<line clip-path="url(#clip011)" x1="441.207" y1="1380.98" x2="409.207" y2="1380.98" style="stroke:#000000; stroke-width:12; stroke-opacity:1"/>
<line clip-path="url(#clip011)" x1="441.207" y1="1113.08" x2="409.207" y2="1113.08" style="stroke:#000000; stroke-width:12; stroke-opacity:1"/>
<line clip-path="url(#clip011)" x1="648.47" y1="1391.17" x2="616.47" y2="1391.17" style="stroke:#000000; stroke-width:12; stroke-opacity:1"/>
<line clip-path="url(#clip011)" x1="648.47" y1="1007" x2="616.47" y2="1007" style="stroke:#000000; stroke-width:12; stroke-opacity:1"/>
<line clip-path="url(#clip011)" x1="855.734" y1="1416.17" x2="823.734" y2="1416.17" style="stroke:#000000; stroke-width:12; stroke-opacity:1"/>
<line clip-path="url(#clip011)" x1="855.734" y1="932.877" x2="823.734" y2="932.877" style="stroke:#000000; stroke-width:12; stroke-opacity:1"/>
<line clip-path="url(#clip011)" x1="1063" y1="1440.91" x2="1031" y2="1440.91" style="stroke:#000000; stroke-width:12; stroke-opacity:1"/>
<line clip-path="url(#clip011)" x1="1063" y1="845.056" x2="1031" y2="845.056" style="stroke:#000000; stroke-width:12; stroke-opacity:1"/>
<line clip-path="url(#clip011)" x1="1270.26" y1="1445.3" x2="1238.26" y2="1445.3" style="stroke:#000000; stroke-width:12; stroke-opacity:1"/>
<line clip-path="url(#clip011)" x1="1270.26" y1="828.556" x2="1238.26" y2="828.556" style="stroke:#000000; stroke-width:12; stroke-opacity:1"/>
<line clip-path="url(#clip011)" x1="1477.52" y1="1445.17" x2="1445.52" y2="1445.17" style="stroke:#000000; stroke-width:12; stroke-opacity:1"/>
<line clip-path="url(#clip011)" x1="1477.52" y1="678.649" x2="1445.52" y2="678.649" style="stroke:#000000; stroke-width:12; stroke-opacity:1"/>
<line clip-path="url(#clip011)" x1="1684.79" y1="1440.84" x2="1652.79" y2="1440.84" style="stroke:#000000; stroke-width:12; stroke-opacity:1"/>
<line clip-path="url(#clip011)" x1="1684.79" y1="486.789" x2="1652.79" y2="486.789" style="stroke:#000000; stroke-width:12; stroke-opacity:1"/>
<line clip-path="url(#clip011)" x1="1892.05" y1="1435.6" x2="1860.05" y2="1435.6" style="stroke:#000000; stroke-width:12; stroke-opacity:1"/>
<line clip-path="url(#clip011)" x1="1892.05" y1="344.299" x2="1860.05" y2="344.299" style="stroke:#000000; stroke-width:12; stroke-opacity:1"/>
<line clip-path="url(#clip011)" x1="2099.31" y1="1434.79" x2="2067.31" y2="1434.79" style="stroke:#000000; stroke-width:12; stroke-opacity:1"/>
<line clip-path="url(#clip011)" x1="2099.31" y1="321.901" x2="2067.31" y2="321.901" style="stroke:#000000; stroke-width:12; stroke-opacity:1"/>
<line clip-path="url(#clip011)" x1="2306.58" y1="1445.72" x2="2274.58" y2="1445.72" style="stroke:#000000; stroke-width:12; stroke-opacity:1"/>
<line clip-path="url(#clip011)" x1="2306.58" y1="87.9763" x2="2274.58" y2="87.9763" style="stroke:#000000; stroke-width:12; stroke-opacity:1"/>
<polyline clip-path="url(#clip011)" style="stroke:#e26f46; stroke-linecap:round; stroke-linejoin:round; stroke-width:12; stroke-opacity:1; fill:none" points="217.944,1296.72 425.207,1270.35 632.47,1254.14 839.734,1255.64 1047,1243.45 1254.26,1262.53 1461.52,1239.53 1668.79,1282.13 1876.05,1296.37 2083.31,1238.98 2290.58,1172.23 "/>
<polyline clip-path="url(#clip011)" style="stroke:#000000; stroke-linecap:round; stroke-linejoin:round; stroke-width:12; stroke-opacity:1; fill:none" points="217.944,1296.72 217.944,1296.72 "/>
<polyline clip-path="url(#clip011)" style="stroke:#000000; stroke-linecap:round; stroke-linejoin:round; stroke-width:12; stroke-opacity:1; fill:none" points="425.207,1355.97 425.207,1131.61 "/>
<polyline clip-path="url(#clip011)" style="stroke:#000000; stroke-linecap:round; stroke-linejoin:round; stroke-width:12; stroke-opacity:1; fill:none" points="632.47,1378.65 632.47,965.215 "/>
<polyline clip-path="url(#clip011)" style="stroke:#000000; stroke-linecap:round; stroke-linejoin:round; stroke-width:12; stroke-opacity:1; fill:none" points="839.734,1353.3 839.734,825.414 "/>
<polyline clip-path="url(#clip011)" style="stroke:#000000; stroke-linecap:round; stroke-linejoin:round; stroke-width:12; stroke-opacity:1; fill:none" points="1047,1387.46 1047,728.277 "/>
<polyline clip-path="url(#clip011)" style="stroke:#000000; stroke-linecap:round; stroke-linejoin:round; stroke-width:12; stroke-opacity:1; fill:none" points="1254.26,1364.62 1254.26,665.651 "/>
<polyline clip-path="url(#clip011)" style="stroke:#000000; stroke-linecap:round; stroke-linejoin:round; stroke-width:12; stroke-opacity:1; fill:none" points="1461.52,1368.33 1461.52,483.84 "/>
<polyline clip-path="url(#clip011)" style="stroke:#000000; stroke-linecap:round; stroke-linejoin:round; stroke-width:12; stroke-opacity:1; fill:none" points="1668.79,1373.46 1668.79,635.061 "/>
<polyline clip-path="url(#clip011)" style="stroke:#000000; stroke-linecap:round; stroke-linejoin:round; stroke-width:12; stroke-opacity:1; fill:none" points="1876.05,1365.57 1876.05,746.658 "/>
<polyline clip-path="url(#clip011)" style="stroke:#000000; stroke-linecap:round; stroke-linejoin:round; stroke-width:12; stroke-opacity:1; fill:none" points="2083.31,1352.86 2083.31,634.968 "/>
<polyline clip-path="url(#clip011)" style="stroke:#000000; stroke-linecap:round; stroke-linejoin:round; stroke-width:12; stroke-opacity:1; fill:none" points="2290.58,1318.73 2290.58,413.919 "/>
<line clip-path="url(#clip011)" x1="233.944" y1="1296.72" x2="201.944" y2="1296.72" style="stroke:#000000; stroke-width:12; stroke-opacity:1"/>
<line clip-path="url(#clip011)" x1="233.944" y1="1296.72" x2="201.944" y2="1296.72" style="stroke:#000000; stroke-width:12; stroke-opacity:1"/>
<line clip-path="url(#clip011)" x1="441.207" y1="1355.97" x2="409.207" y2="1355.97" style="stroke:#000000; stroke-width:12; stroke-opacity:1"/>
<line clip-path="url(#clip011)" x1="441.207" y1="1131.61" x2="409.207" y2="1131.61" style="stroke:#000000; stroke-width:12; stroke-opacity:1"/>
<line clip-path="url(#clip011)" x1="648.47" y1="1378.65" x2="616.47" y2="1378.65" style="stroke:#000000; stroke-width:12; stroke-opacity:1"/>
<line clip-path="url(#clip011)" x1="648.47" y1="965.215" x2="616.47" y2="965.215" style="stroke:#000000; stroke-width:12; stroke-opacity:1"/>
<line clip-path="url(#clip011)" x1="855.734" y1="1353.3" x2="823.734" y2="1353.3" style="stroke:#000000; stroke-width:12; stroke-opacity:1"/>
<line clip-path="url(#clip011)" x1="855.734" y1="825.414" x2="823.734" y2="825.414" style="stroke:#000000; stroke-width:12; stroke-opacity:1"/>
<line clip-path="url(#clip011)" x1="1063" y1="1387.46" x2="1031" y2="1387.46" style="stroke:#000000; stroke-width:12; stroke-opacity:1"/>
<line clip-path="url(#clip011)" x1="1063" y1="728.277" x2="1031" y2="728.277" style="stroke:#000000; stroke-width:12; stroke-opacity:1"/>
<line clip-path="url(#clip011)" x1="1270.26" y1="1364.62" x2="1238.26" y2="1364.62" style="stroke:#000000; stroke-width:12; stroke-opacity:1"/>
<line clip-path="url(#clip011)" x1="1270.26" y1="665.651" x2="1238.26" y2="665.651" style="stroke:#000000; stroke-width:12; stroke-opacity:1"/>
<line clip-path="url(#clip011)" x1="1477.52" y1="1368.33" x2="1445.52" y2="1368.33" style="stroke:#000000; stroke-width:12; stroke-opacity:1"/>
<line clip-path="url(#clip011)" x1="1477.52" y1="483.84" x2="1445.52" y2="483.84" style="stroke:#000000; stroke-width:12; stroke-opacity:1"/>
<line clip-path="url(#clip011)" x1="1684.79" y1="1373.46" x2="1652.79" y2="1373.46" style="stroke:#000000; stroke-width:12; stroke-opacity:1"/>
<line clip-path="url(#clip011)" x1="1684.79" y1="635.061" x2="1652.79" y2="635.061" style="stroke:#000000; stroke-width:12; stroke-opacity:1"/>
<line clip-path="url(#clip011)" x1="1892.05" y1="1365.57" x2="1860.05" y2="1365.57" style="stroke:#000000; stroke-width:12; stroke-opacity:1"/>
<line clip-path="url(#clip011)" x1="1892.05" y1="746.658" x2="1860.05" y2="746.658" style="stroke:#000000; stroke-width:12; stroke-opacity:1"/>
<line clip-path="url(#clip011)" x1="2099.31" y1="1352.86" x2="2067.31" y2="1352.86" style="stroke:#000000; stroke-width:12; stroke-opacity:1"/>
<line clip-path="url(#clip011)" x1="2099.31" y1="634.968" x2="2067.31" y2="634.968" style="stroke:#000000; stroke-width:12; stroke-opacity:1"/>
<line clip-path="url(#clip011)" x1="2306.58" y1="1318.73" x2="2274.58" y2="1318.73" style="stroke:#000000; stroke-width:12; stroke-opacity:1"/>
<line clip-path="url(#clip011)" x1="2306.58" y1="413.919" x2="2274.58" y2="413.919" style="stroke:#000000; stroke-width:12; stroke-opacity:1"/>
</svg>
