<?xml version="1.0" encoding="utf-8"?>
<svg xmlns="http://www.w3.org/2000/svg" xmlns:xlink="http://www.w3.org/1999/xlink" width="600" height="400" viewBox="0 0 2400 1600">
<defs>
  <clipPath id="clip040">
    <rect x="0" y="0" width="2400" height="1600"/>
  </clipPath>
</defs>
<path clip-path="url(#clip040)" d="M0 1600 L2400 1600 L2400 0 L0 0  Z" fill="#ffffff" fill-rule="evenodd" fill-opacity="1"/>
<defs>
  <clipPath id="clip041">
    <rect x="156" y="47" width="2197" height="1440"/>
  </clipPath>
</defs>
<path clip-path="url(#clip040)" d="M156.274 1486.45 L2352.76 1486.45 L2352.76 47.2441 L156.274 47.2441  Z" fill="#ffffff" fill-rule="evenodd" fill-opacity="1"/>
<polyline clip-path="url(#clip041)" style="stroke:#000000; stroke-linecap:round; stroke-linejoin:round; stroke-width:2; stroke-opacity:0.1; fill:none" points="218.439,1486.45 218.439,47.2441 "/>
<polyline clip-path="url(#clip041)" style="stroke:#000000; stroke-linecap:round; stroke-linejoin:round; stroke-width:2; stroke-opacity:0.1; fill:none" points="736.477,1486.45 736.477,47.2441 "/>
<polyline clip-path="url(#clip041)" style="stroke:#000000; stroke-linecap:round; stroke-linejoin:round; stroke-width:2; stroke-opacity:0.1; fill:none" points="1254.52,1486.45 1254.52,47.2441 "/>
<polyline clip-path="url(#clip041)" style="stroke:#000000; stroke-linecap:round; stroke-linejoin:round; stroke-width:2; stroke-opacity:0.1; fill:none" points="1772.55,1486.45 1772.55,47.2441 "/>
<polyline clip-path="url(#clip041)" style="stroke:#000000; stroke-linecap:round; stroke-linejoin:round; stroke-width:2; stroke-opacity:0.1; fill:none" points="2290.59,1486.45 2290.59,47.2441 "/>
<polyline clip-path="url(#clip041)" style="stroke:#000000; stroke-linecap:round; stroke-linejoin:round; stroke-width:2; stroke-opacity:0.1; fill:none" points="156.274,1366.99 2352.76,1366.99 "/>
<polyline clip-path="url(#clip041)" style="stroke:#000000; stroke-linecap:round; stroke-linejoin:round; stroke-width:2; stroke-opacity:0.1; fill:none" points="156.274,1125.33 2352.76,1125.33 "/>
<polyline clip-path="url(#clip041)" style="stroke:#000000; stroke-linecap:round; stroke-linejoin:round; stroke-width:2; stroke-opacity:0.1; fill:none" points="156.274,883.681 2352.76,883.681 "/>
<polyline clip-path="url(#clip041)" style="stroke:#000000; stroke-linecap:round; stroke-linejoin:round; stroke-width:2; stroke-opacity:0.1; fill:none" points="156.274,642.026 2352.76,642.026 "/>
<polyline clip-path="url(#clip041)" style="stroke:#000000; stroke-linecap:round; stroke-linejoin:round; stroke-width:2; stroke-opacity:0.1; fill:none" points="156.274,400.372 2352.76,400.372 "/>
<polyline clip-path="url(#clip041)" style="stroke:#000000; stroke-linecap:round; stroke-linejoin:round; stroke-width:2; stroke-opacity:0.1; fill:none" points="156.274,158.718 2352.76,158.718 "/>
<polyline clip-path="url(#clip040)" style="stroke:#000000; stroke-linecap:round; stroke-linejoin:round; stroke-width:4; stroke-opacity:1; fill:none" points="156.274,1486.45 2352.76,1486.45 "/>
<polyline clip-path="url(#clip040)" style="stroke:#000000; stroke-linecap:round; stroke-linejoin:round; stroke-width:4; stroke-opacity:1; fill:none" points="218.439,1486.45 218.439,1467.55 "/>
<polyline clip-path="url(#clip040)" style="stroke:#000000; stroke-linecap:round; stroke-linejoin:round; stroke-width:4; stroke-opacity:1; fill:none" points="736.477,1486.45 736.477,1467.55 "/>
<polyline clip-path="url(#clip040)" style="stroke:#000000; stroke-linecap:round; stroke-linejoin:round; stroke-width:4; stroke-opacity:1; fill:none" points="1254.52,1486.45 1254.52,1467.55 "/>
<polyline clip-path="url(#clip040)" style="stroke:#000000; stroke-linecap:round; stroke-linejoin:round; stroke-width:4; stroke-opacity:1; fill:none" points="1772.55,1486.45 1772.55,1467.55 "/>
<polyline clip-path="url(#clip040)" style="stroke:#000000; stroke-linecap:round; stroke-linejoin:round; stroke-width:4; stroke-opacity:1; fill:none" points="2290.59,1486.45 2290.59,1467.55 "/>
<path clip-path="url(#clip040)" d="M180.742 1517.37 Q177.131 1517.37 175.302 1520.93 Q173.497 1524.47 173.497 1531.6 Q173.497 1538.71 175.302 1542.27 Q177.131 1545.82 180.742 1545.82 Q184.376 1545.82 186.182 1542.27 Q188.011 1538.71 188.011 1531.6 Q188.011 1524.47 186.182 1520.93 Q184.376 1517.37 180.742 1517.37 M180.742 1513.66 Q186.552 1513.66 189.608 1518.27 Q192.687 1522.85 192.687 1531.6 Q192.687 1540.33 189.608 1544.94 Q186.552 1549.52 180.742 1549.52 Q174.932 1549.52 171.853 1544.94 Q168.798 1540.33 168.798 1531.6 Q168.798 1522.85 171.853 1518.27 Q174.932 1513.66 180.742 1513.66 Z" fill="#000000" fill-rule="nonzero" fill-opacity="1" /><path clip-path="url(#clip040)" d="M200.904 1542.97 L205.788 1542.97 L205.788 1548.85 L200.904 1548.85 L200.904 1542.97 Z" fill="#000000" fill-rule="nonzero" fill-opacity="1" /><path clip-path="url(#clip040)" d="M225.973 1517.37 Q222.362 1517.37 220.534 1520.93 Q218.728 1524.47 218.728 1531.6 Q218.728 1538.71 220.534 1542.27 Q222.362 1545.82 225.973 1545.82 Q229.608 1545.82 231.413 1542.27 Q233.242 1538.71 233.242 1531.6 Q233.242 1524.47 231.413 1520.93 Q229.608 1517.37 225.973 1517.37 M225.973 1513.66 Q231.784 1513.66 234.839 1518.27 Q237.918 1522.85 237.918 1531.6 Q237.918 1540.33 234.839 1544.94 Q231.784 1549.52 225.973 1549.52 Q220.163 1549.52 217.085 1544.94 Q214.029 1540.33 214.029 1531.6 Q214.029 1522.85 217.085 1518.27 Q220.163 1513.66 225.973 1513.66 Z" fill="#000000" fill-rule="nonzero" fill-opacity="1" /><path clip-path="url(#clip040)" d="M256.135 1517.37 Q252.524 1517.37 250.696 1520.93 Q248.89 1524.47 248.89 1531.6 Q248.89 1538.71 250.696 1542.27 Q252.524 1545.82 256.135 1545.82 Q259.77 1545.82 261.575 1542.27 Q263.404 1538.71 263.404 1531.6 Q263.404 1524.47 261.575 1520.93 Q259.77 1517.37 256.135 1517.37 M256.135 1513.66 Q261.945 1513.66 265.001 1518.27 Q268.08 1522.85 268.08 1531.6 Q268.08 1540.33 265.001 1544.94 Q261.945 1549.52 256.135 1549.52 Q250.325 1549.52 247.246 1544.94 Q244.191 1540.33 244.191 1531.6 Q244.191 1522.85 247.246 1518.27 Q250.325 1513.66 256.135 1513.66 Z" fill="#000000" fill-rule="nonzero" fill-opacity="1" /><path clip-path="url(#clip040)" d="M699.278 1517.37 Q695.667 1517.37 693.838 1520.93 Q692.033 1524.47 692.033 1531.6 Q692.033 1538.71 693.838 1542.27 Q695.667 1545.82 699.278 1545.82 Q702.912 1545.82 704.718 1542.27 Q706.546 1538.71 706.546 1531.6 Q706.546 1524.47 704.718 1520.93 Q702.912 1517.37 699.278 1517.37 M699.278 1513.66 Q705.088 1513.66 708.144 1518.27 Q711.222 1522.85 711.222 1531.6 Q711.222 1540.33 708.144 1544.94 Q705.088 1549.52 699.278 1549.52 Q693.468 1549.52 690.389 1544.94 Q687.334 1540.33 687.334 1531.6 Q687.334 1522.85 690.389 1518.27 Q693.468 1513.66 699.278 1513.66 Z" fill="#000000" fill-rule="nonzero" fill-opacity="1" /><path clip-path="url(#clip040)" d="M719.44 1542.97 L724.324 1542.97 L724.324 1548.85 L719.44 1548.85 L719.44 1542.97 Z" fill="#000000" fill-rule="nonzero" fill-opacity="1" /><path clip-path="url(#clip040)" d="M738.537 1544.91 L754.856 1544.91 L754.856 1548.85 L732.912 1548.85 L732.912 1544.91 Q735.574 1542.16 740.157 1537.53 Q744.764 1532.88 745.944 1531.53 Q748.19 1529.01 749.069 1527.27 Q749.972 1525.51 749.972 1523.82 Q749.972 1521.07 748.028 1519.33 Q746.106 1517.6 743.005 1517.6 Q740.806 1517.6 738.352 1518.36 Q735.921 1519.13 733.144 1520.68 L733.144 1515.95 Q735.968 1514.82 738.421 1514.24 Q740.875 1513.66 742.912 1513.66 Q748.282 1513.66 751.477 1516.35 Q754.671 1519.03 754.671 1523.52 Q754.671 1525.65 753.861 1527.57 Q753.074 1529.47 750.968 1532.07 Q750.389 1532.74 747.287 1535.95 Q744.185 1539.15 738.537 1544.91 Z" fill="#000000" fill-rule="nonzero" fill-opacity="1" /><path clip-path="url(#clip040)" d="M764.717 1514.29 L783.074 1514.29 L783.074 1518.22 L769 1518.22 L769 1526.7 Q770.018 1526.35 771.037 1526.19 Q772.055 1526 773.074 1526 Q778.861 1526 782.241 1529.17 Q785.62 1532.34 785.62 1537.76 Q785.62 1543.34 782.148 1546.44 Q778.676 1549.52 772.356 1549.52 Q770.18 1549.52 767.912 1549.15 Q765.667 1548.78 763.259 1548.04 L763.259 1543.34 Q765.342 1544.47 767.565 1545.03 Q769.787 1545.58 772.264 1545.58 Q776.268 1545.58 778.606 1543.48 Q780.944 1541.37 780.944 1537.76 Q780.944 1534.15 778.606 1532.04 Q776.268 1529.94 772.264 1529.94 Q770.389 1529.94 768.514 1530.35 Q766.662 1530.77 764.717 1531.65 L764.717 1514.29 Z" fill="#000000" fill-rule="nonzero" fill-opacity="1" /><path clip-path="url(#clip040)" d="M1216.82 1517.37 Q1213.21 1517.37 1211.38 1520.93 Q1209.57 1524.47 1209.57 1531.6 Q1209.57 1538.71 1211.38 1542.27 Q1213.21 1545.82 1216.82 1545.82 Q1220.45 1545.82 1222.26 1542.27 Q1224.09 1538.71 1224.09 1531.6 Q1224.09 1524.47 1222.26 1520.93 Q1220.45 1517.37 1216.82 1517.37 M1216.82 1513.66 Q1222.63 1513.66 1225.68 1518.27 Q1228.76 1522.85 1228.76 1531.6 Q1228.76 1540.33 1225.68 1544.94 Q1222.63 1549.52 1216.82 1549.52 Q1211.01 1549.52 1207.93 1544.94 Q1204.87 1540.33 1204.87 1531.6 Q1204.87 1522.85 1207.93 1518.27 Q1211.01 1513.66 1216.82 1513.66 Z" fill="#000000" fill-rule="nonzero" fill-opacity="1" /><path clip-path="url(#clip040)" d="M1236.98 1542.97 L1241.86 1542.97 L1241.86 1548.85 L1236.98 1548.85 L1236.98 1542.97 Z" fill="#000000" fill-rule="nonzero" fill-opacity="1" /><path clip-path="url(#clip040)" d="M1252.1 1514.29 L1270.45 1514.29 L1270.45 1518.22 L1256.38 1518.22 L1256.38 1526.7 Q1257.4 1526.35 1258.42 1526.19 Q1259.43 1526 1260.45 1526 Q1266.24 1526 1269.62 1529.17 Q1273 1532.34 1273 1537.76 Q1273 1543.34 1269.53 1546.44 Q1266.05 1549.52 1259.73 1549.52 Q1257.56 1549.52 1255.29 1549.15 Q1253.05 1548.78 1250.64 1548.04 L1250.64 1543.34 Q1252.72 1544.47 1254.94 1545.03 Q1257.17 1545.58 1259.64 1545.58 Q1263.65 1545.58 1265.98 1543.48 Q1268.32 1541.37 1268.32 1537.76 Q1268.32 1534.15 1265.98 1532.04 Q1263.65 1529.94 1259.64 1529.94 Q1257.77 1529.94 1255.89 1530.35 Q1254.04 1530.77 1252.1 1531.65 L1252.1 1514.29 Z" fill="#000000" fill-rule="nonzero" fill-opacity="1" /><path clip-path="url(#clip040)" d="M1292.21 1517.37 Q1288.6 1517.37 1286.77 1520.93 Q1284.97 1524.47 1284.97 1531.6 Q1284.97 1538.71 1286.77 1542.27 Q1288.6 1545.82 1292.21 1545.82 Q1295.85 1545.82 1297.65 1542.27 Q1299.48 1538.71 1299.48 1531.6 Q1299.48 1524.47 1297.65 1520.93 Q1295.85 1517.37 1292.21 1517.37 M1292.21 1513.66 Q1298.02 1513.66 1301.08 1518.27 Q1304.16 1522.85 1304.16 1531.6 Q1304.16 1540.33 1301.08 1544.94 Q1298.02 1549.52 1292.21 1549.52 Q1286.4 1549.52 1283.32 1544.94 Q1280.27 1540.33 1280.27 1531.6 Q1280.27 1522.85 1283.32 1518.27 Q1286.4 1513.66 1292.21 1513.66 Z" fill="#000000" fill-rule="nonzero" fill-opacity="1" /><path clip-path="url(#clip040)" d="M1735.35 1517.37 Q1731.74 1517.37 1729.91 1520.93 Q1728.11 1524.47 1728.11 1531.6 Q1728.11 1538.71 1729.91 1542.27 Q1731.74 1545.82 1735.35 1545.82 Q1738.99 1545.82 1740.79 1542.27 Q1742.62 1538.71 1742.62 1531.6 Q1742.62 1524.47 1740.79 1520.93 Q1738.99 1517.37 1735.35 1517.37 M1735.35 1513.66 Q1741.16 1513.66 1744.22 1518.27 Q1747.3 1522.85 1747.3 1531.6 Q1747.3 1540.33 1744.22 1544.94 Q1741.16 1549.52 1735.35 1549.52 Q1729.54 1549.52 1726.47 1544.94 Q1723.41 1540.33 1723.41 1531.6 Q1723.41 1522.85 1726.47 1518.27 Q1729.54 1513.66 1735.35 1513.66 Z" fill="#000000" fill-rule="nonzero" fill-opacity="1" /><path clip-path="url(#clip040)" d="M1755.52 1542.97 L1760.4 1542.97 L1760.4 1548.85 L1755.52 1548.85 L1755.52 1542.97 Z" fill="#000000" fill-rule="nonzero" fill-opacity="1" /><path clip-path="url(#clip040)" d="M1769.41 1514.29 L1791.63 1514.29 L1791.63 1516.28 L1779.08 1548.85 L1774.2 1548.85 L1786 1518.22 L1769.41 1518.22 L1769.41 1514.29 Z" fill="#000000" fill-rule="nonzero" fill-opacity="1" /><path clip-path="url(#clip040)" d="M1800.79 1514.29 L1819.15 1514.29 L1819.15 1518.22 L1805.08 1518.22 L1805.08 1526.7 Q1806.09 1526.35 1807.11 1526.19 Q1808.13 1526 1809.15 1526 Q1814.94 1526 1818.32 1529.17 Q1821.7 1532.34 1821.7 1537.76 Q1821.7 1543.34 1818.22 1546.44 Q1814.75 1549.52 1808.43 1549.52 Q1806.26 1549.52 1803.99 1549.15 Q1801.74 1548.78 1799.34 1548.04 L1799.34 1543.34 Q1801.42 1544.47 1803.64 1545.03 Q1805.86 1545.58 1808.34 1545.58 Q1812.34 1545.58 1814.68 1543.48 Q1817.02 1541.37 1817.02 1537.76 Q1817.02 1534.15 1814.68 1532.04 Q1812.34 1529.94 1808.34 1529.94 Q1806.47 1529.94 1804.59 1530.35 Q1802.74 1530.77 1800.79 1531.65 L1800.79 1514.29 Z" fill="#000000" fill-rule="nonzero" fill-opacity="1" /><path clip-path="url(#clip040)" d="M2242.66 1544.91 L2250.3 1544.91 L2250.3 1518.55 L2241.99 1520.21 L2241.99 1515.95 L2250.26 1514.29 L2254.93 1514.29 L2254.93 1544.91 L2262.57 1544.91 L2262.57 1548.85 L2242.66 1548.85 L2242.66 1544.91 Z" fill="#000000" fill-rule="nonzero" fill-opacity="1" /><path clip-path="url(#clip040)" d="M2272.02 1542.97 L2276.9 1542.97 L2276.9 1548.85 L2272.02 1548.85 L2272.02 1542.97 Z" fill="#000000" fill-rule="nonzero" fill-opacity="1" /><path clip-path="url(#clip040)" d="M2297.08 1517.37 Q2293.47 1517.37 2291.64 1520.93 Q2289.84 1524.47 2289.84 1531.6 Q2289.84 1538.71 2291.64 1542.27 Q2293.47 1545.82 2297.08 1545.82 Q2300.72 1545.82 2302.52 1542.27 Q2304.35 1538.71 2304.35 1531.6 Q2304.35 1524.47 2302.52 1520.93 Q2300.72 1517.37 2297.08 1517.37 M2297.08 1513.66 Q2302.89 1513.66 2305.95 1518.27 Q2309.03 1522.85 2309.03 1531.6 Q2309.03 1540.33 2305.95 1544.94 Q2302.89 1549.52 2297.08 1549.52 Q2291.27 1549.52 2288.2 1544.94 Q2285.14 1540.33 2285.14 1531.6 Q2285.14 1522.85 2288.2 1518.27 Q2291.27 1513.66 2297.08 1513.66 Z" fill="#000000" fill-rule="nonzero" fill-opacity="1" /><path clip-path="url(#clip040)" d="M2327.25 1517.37 Q2323.64 1517.37 2321.81 1520.93 Q2320 1524.47 2320 1531.6 Q2320 1538.71 2321.81 1542.27 Q2323.64 1545.82 2327.25 1545.82 Q2330.88 1545.82 2332.69 1542.27 Q2334.51 1538.71 2334.51 1531.6 Q2334.51 1524.47 2332.69 1520.93 Q2330.88 1517.37 2327.25 1517.37 M2327.25 1513.66 Q2333.06 1513.66 2336.11 1518.27 Q2339.19 1522.85 2339.19 1531.6 Q2339.19 1540.33 2336.11 1544.94 Q2333.06 1549.52 2327.25 1549.52 Q2321.44 1549.52 2318.36 1544.94 Q2315.3 1540.33 2315.3 1531.6 Q2315.3 1522.85 2318.36 1518.27 Q2321.44 1513.66 2327.25 1513.66 Z" fill="#000000" fill-rule="nonzero" fill-opacity="1" /><polyline clip-path="url(#clip040)" style="stroke:#000000; stroke-linecap:round; stroke-linejoin:round; stroke-width:4; stroke-opacity:1; fill:none" points="156.274,1486.45 156.274,47.2441 "/>
<polyline clip-path="url(#clip040)" style="stroke:#000000; stroke-linecap:round; stroke-linejoin:round; stroke-width:4; stroke-opacity:1; fill:none" points="156.274,1366.99 175.172,1366.99 "/>
<polyline clip-path="url(#clip040)" style="stroke:#000000; stroke-linecap:round; stroke-linejoin:round; stroke-width:4; stroke-opacity:1; fill:none" points="156.274,1125.33 175.172,1125.33 "/>
<polyline clip-path="url(#clip040)" style="stroke:#000000; stroke-linecap:round; stroke-linejoin:round; stroke-width:4; stroke-opacity:1; fill:none" points="156.274,883.681 175.172,883.681 "/>
<polyline clip-path="url(#clip040)" style="stroke:#000000; stroke-linecap:round; stroke-linejoin:round; stroke-width:4; stroke-opacity:1; fill:none" points="156.274,642.026 175.172,642.026 "/>
<polyline clip-path="url(#clip040)" style="stroke:#000000; stroke-linecap:round; stroke-linejoin:round; stroke-width:4; stroke-opacity:1; fill:none" points="156.274,400.372 175.172,400.372 "/>
<polyline clip-path="url(#clip040)" style="stroke:#000000; stroke-linecap:round; stroke-linejoin:round; stroke-width:4; stroke-opacity:1; fill:none" points="156.274,158.718 175.172,158.718 "/>
<path clip-path="url(#clip040)" d="M64.0939 1352.79 Q60.4828 1352.79 58.6541 1356.35 Q56.8486 1359.89 56.8486 1367.02 Q56.8486 1374.13 58.6541 1377.7 Q60.4828 1381.24 64.0939 1381.24 Q67.7281 1381.24 69.5337 1377.7 Q71.3624 1374.13 71.3624 1367.02 Q71.3624 1359.89 69.5337 1356.35 Q67.7281 1352.79 64.0939 1352.79 M64.0939 1349.08 Q69.9041 1349.08 72.9596 1353.69 Q76.0383 1358.27 76.0383 1367.02 Q76.0383 1375.75 72.9596 1380.36 Q69.9041 1384.94 64.0939 1384.94 Q58.2838 1384.94 55.2051 1380.36 Q52.1495 1375.75 52.1495 1367.02 Q52.1495 1358.27 55.2051 1353.69 Q58.2838 1349.08 64.0939 1349.08 Z" fill="#000000" fill-rule="nonzero" fill-opacity="1" /><path clip-path="url(#clip040)" d="M84.2558 1378.39 L89.1401 1378.39 L89.1401 1384.27 L84.2558 1384.27 L84.2558 1378.39 Z" fill="#000000" fill-rule="nonzero" fill-opacity="1" /><path clip-path="url(#clip040)" d="M99.3715 1349.71 L117.728 1349.71 L117.728 1353.64 L103.654 1353.64 L103.654 1362.12 Q104.672 1361.77 105.691 1361.61 Q106.709 1361.42 107.728 1361.42 Q113.515 1361.42 116.895 1364.59 Q120.274 1367.76 120.274 1373.18 Q120.274 1378.76 116.802 1381.86 Q113.33 1384.94 107.01 1384.94 Q104.834 1384.94 102.566 1384.57 Q100.321 1384.2 97.9132 1383.46 L97.9132 1378.76 Q99.9965 1379.89 102.219 1380.45 Q104.441 1381.01 106.918 1381.01 Q110.922 1381.01 113.26 1378.9 Q115.598 1376.79 115.598 1373.18 Q115.598 1369.57 113.26 1367.46 Q110.922 1365.36 106.918 1365.36 Q105.043 1365.36 103.168 1365.77 Q101.316 1366.19 99.3715 1367.07 L99.3715 1349.71 Z" fill="#000000" fill-rule="nonzero" fill-opacity="1" /><path clip-path="url(#clip040)" d="M62.9365 1111.13 Q59.3254 1111.13 57.4967 1114.7 Q55.6912 1118.24 55.6912 1125.37 Q55.6912 1132.48 57.4967 1136.04 Q59.3254 1139.58 62.9365 1139.58 Q66.5707 1139.58 68.3763 1136.04 Q70.205 1132.48 70.205 1125.37 Q70.205 1118.24 68.3763 1114.7 Q66.5707 1111.13 62.9365 1111.13 M62.9365 1107.43 Q68.7467 1107.43 71.8022 1112.04 Q74.8809 1116.62 74.8809 1125.37 Q74.8809 1134.1 71.8022 1138.7 Q68.7467 1143.29 62.9365 1143.29 Q57.1264 1143.29 54.0477 1138.7 Q50.9921 1134.1 50.9921 1125.37 Q50.9921 1116.62 54.0477 1112.04 Q57.1264 1107.43 62.9365 1107.43 Z" fill="#000000" fill-rule="nonzero" fill-opacity="1" /><path clip-path="url(#clip040)" d="M83.0984 1136.74 L87.9827 1136.74 L87.9827 1142.61 L83.0984 1142.61 L83.0984 1136.74 Z" fill="#000000" fill-rule="nonzero" fill-opacity="1" /><path clip-path="url(#clip040)" d="M108.746 1123.47 Q105.598 1123.47 103.746 1125.62 Q101.918 1127.78 101.918 1131.53 Q101.918 1135.25 103.746 1137.43 Q105.598 1139.58 108.746 1139.58 Q111.895 1139.58 113.723 1137.43 Q115.575 1135.25 115.575 1131.53 Q115.575 1127.78 113.723 1125.62 Q111.895 1123.47 108.746 1123.47 M118.029 1108.82 L118.029 1113.08 Q116.27 1112.24 114.464 1111.8 Q112.682 1111.37 110.922 1111.37 Q106.293 1111.37 103.839 1114.49 Q101.409 1117.62 101.061 1123.93 Q102.427 1121.92 104.487 1120.86 Q106.547 1119.77 109.024 1119.77 Q114.233 1119.77 117.242 1122.94 Q120.274 1126.09 120.274 1131.53 Q120.274 1136.85 117.126 1140.07 Q113.978 1143.29 108.746 1143.29 Q102.751 1143.29 99.5798 1138.7 Q96.4085 1134.1 96.4085 1125.37 Q96.4085 1117.18 100.297 1112.31 Q104.186 1107.43 110.737 1107.43 Q112.496 1107.43 114.279 1107.78 Q116.084 1108.12 118.029 1108.82 Z" fill="#000000" fill-rule="nonzero" fill-opacity="1" /><path clip-path="url(#clip040)" d="M64.0013 869.479 Q60.3902 869.479 58.5615 873.044 Q56.756 876.586 56.756 883.715 Q56.756 890.822 58.5615 894.387 Q60.3902 897.928 64.0013 897.928 Q67.6356 897.928 69.4411 894.387 Q71.2698 890.822 71.2698 883.715 Q71.2698 876.586 69.4411 873.044 Q67.6356 869.479 64.0013 869.479 M64.0013 865.776 Q69.8115 865.776 72.867 870.382 Q75.9457 874.965 75.9457 883.715 Q75.9457 892.442 72.867 897.049 Q69.8115 901.632 64.0013 901.632 Q58.1912 901.632 55.1125 897.049 Q52.0569 892.442 52.0569 883.715 Q52.0569 874.965 55.1125 870.382 Q58.1912 865.776 64.0013 865.776 Z" fill="#000000" fill-rule="nonzero" fill-opacity="1" /><path clip-path="url(#clip040)" d="M84.1632 895.081 L89.0475 895.081 L89.0475 900.961 L84.1632 900.961 L84.1632 895.081 Z" fill="#000000" fill-rule="nonzero" fill-opacity="1" /><path clip-path="url(#clip040)" d="M98.0521 866.401 L120.274 866.401 L120.274 868.391 L107.728 900.961 L102.844 900.961 L114.649 870.336 L98.0521 870.336 L98.0521 866.401 Z" fill="#000000" fill-rule="nonzero" fill-opacity="1" /><path clip-path="url(#clip040)" d="M63.1911 627.825 Q59.58 627.825 57.7513 631.39 Q55.9458 634.931 55.9458 642.061 Q55.9458 649.168 57.7513 652.732 Q59.58 656.274 63.1911 656.274 Q66.8254 656.274 68.6309 652.732 Q70.4596 649.168 70.4596 642.061 Q70.4596 634.931 68.6309 631.39 Q66.8254 627.825 63.1911 627.825 M63.1911 624.121 Q69.0013 624.121 72.0568 628.728 Q75.1355 633.311 75.1355 642.061 Q75.1355 650.788 72.0568 655.394 Q69.0013 659.978 63.1911 659.978 Q57.381 659.978 54.3023 655.394 Q51.2468 650.788 51.2468 642.061 Q51.2468 633.311 54.3023 628.728 Q57.381 624.121 63.1911 624.121 Z" fill="#000000" fill-rule="nonzero" fill-opacity="1" /><path clip-path="url(#clip040)" d="M83.3531 653.427 L88.2373 653.427 L88.2373 659.306 L83.3531 659.306 L83.3531 653.427 Z" fill="#000000" fill-rule="nonzero" fill-opacity="1" /><path clip-path="url(#clip040)" d="M108.422 642.894 Q105.089 642.894 103.168 644.677 Q101.27 646.459 101.27 649.584 Q101.27 652.709 103.168 654.492 Q105.089 656.274 108.422 656.274 Q111.756 656.274 113.677 654.492 Q115.598 652.686 115.598 649.584 Q115.598 646.459 113.677 644.677 Q111.779 642.894 108.422 642.894 M103.746 640.904 Q100.737 640.163 99.0474 638.103 Q97.3808 636.043 97.3808 633.08 Q97.3808 628.936 100.321 626.529 Q103.284 624.121 108.422 624.121 Q113.584 624.121 116.524 626.529 Q119.464 628.936 119.464 633.08 Q119.464 636.043 117.774 638.103 Q116.108 640.163 113.121 640.904 Q116.501 641.691 118.376 643.982 Q120.274 646.274 120.274 649.584 Q120.274 654.607 117.195 657.292 Q114.14 659.978 108.422 659.978 Q102.705 659.978 99.6261 657.292 Q96.5706 654.607 96.5706 649.584 Q96.5706 646.274 98.4687 643.982 Q100.367 641.691 103.746 640.904 M102.034 633.519 Q102.034 636.205 103.7 637.709 Q105.39 639.214 108.422 639.214 Q111.432 639.214 113.121 637.709 Q114.834 636.205 114.834 633.519 Q114.834 630.834 113.121 629.33 Q111.432 627.825 108.422 627.825 Q105.39 627.825 103.7 629.33 Q102.034 630.834 102.034 633.519 Z" fill="#000000" fill-rule="nonzero" fill-opacity="1" /><path clip-path="url(#clip040)" d="M63.2837 386.171 Q59.6726 386.171 57.8439 389.736 Q56.0384 393.277 56.0384 400.407 Q56.0384 407.513 57.8439 411.078 Q59.6726 414.62 63.2837 414.62 Q66.918 414.62 68.7235 411.078 Q70.5522 407.513 70.5522 400.407 Q70.5522 393.277 68.7235 389.736 Q66.918 386.171 63.2837 386.171 M63.2837 382.467 Q69.0939 382.467 72.1494 387.074 Q75.2281 391.657 75.2281 400.407 Q75.2281 409.134 72.1494 413.74 Q69.0939 418.323 63.2837 418.323 Q57.4736 418.323 54.3949 413.74 Q51.3393 409.134 51.3393 400.407 Q51.3393 391.657 54.3949 387.074 Q57.4736 382.467 63.2837 382.467 Z" fill="#000000" fill-rule="nonzero" fill-opacity="1" /><path clip-path="url(#clip040)" d="M83.4457 411.772 L88.3299 411.772 L88.3299 417.652 L83.4457 417.652 L83.4457 411.772 Z" fill="#000000" fill-rule="nonzero" fill-opacity="1" /><path clip-path="url(#clip040)" d="M98.6539 416.934 L98.6539 412.675 Q100.413 413.509 102.219 413.948 Q104.024 414.388 105.76 414.388 Q110.39 414.388 112.82 411.286 Q115.274 408.161 115.621 401.819 Q114.279 403.81 112.219 404.874 Q110.158 405.939 107.658 405.939 Q102.473 405.939 99.4409 402.814 Q96.4317 399.666 96.4317 394.226 Q96.4317 388.902 99.5798 385.685 Q102.728 382.467 107.959 382.467 Q113.955 382.467 117.103 387.074 Q120.274 391.657 120.274 400.407 Q120.274 408.578 116.385 413.462 Q112.52 418.323 105.969 418.323 Q104.209 418.323 102.404 417.976 Q100.598 417.629 98.6539 416.934 M107.959 402.282 Q111.108 402.282 112.936 400.129 Q114.788 397.976 114.788 394.226 Q114.788 390.499 112.936 388.347 Q111.108 386.171 107.959 386.171 Q104.811 386.171 102.959 388.347 Q101.131 390.499 101.131 394.226 Q101.131 397.976 102.959 400.129 Q104.811 402.282 107.959 402.282 Z" fill="#000000" fill-rule="nonzero" fill-opacity="1" /><path clip-path="url(#clip040)" d="M53.9088 172.063 L61.5476 172.063 L61.5476 145.697 L53.2375 147.364 L53.2375 143.104 L61.5013 141.438 L66.1772 141.438 L66.1772 172.063 L73.8161 172.063 L73.8161 175.998 L53.9088 175.998 L53.9088 172.063 Z" fill="#000000" fill-rule="nonzero" fill-opacity="1" /><path clip-path="url(#clip040)" d="M83.2605 170.118 L88.1447 170.118 L88.1447 175.998 L83.2605 175.998 L83.2605 170.118 Z" fill="#000000" fill-rule="nonzero" fill-opacity="1" /><path clip-path="url(#clip040)" d="M108.33 144.516 Q104.719 144.516 102.89 148.081 Q101.084 151.623 101.084 158.752 Q101.084 165.859 102.89 169.424 Q104.719 172.965 108.33 172.965 Q111.964 172.965 113.77 169.424 Q115.598 165.859 115.598 158.752 Q115.598 151.623 113.77 148.081 Q111.964 144.516 108.33 144.516 M108.33 140.813 Q114.14 140.813 117.195 145.419 Q120.274 150.003 120.274 158.752 Q120.274 167.479 117.195 172.086 Q114.14 176.669 108.33 176.669 Q102.52 176.669 99.4409 172.086 Q96.3854 167.479 96.3854 158.752 Q96.3854 150.003 99.4409 145.419 Q102.52 140.813 108.33 140.813 Z" fill="#000000" fill-rule="nonzero" fill-opacity="1" /><polyline clip-path="url(#clip041)" style="stroke:#009af9; stroke-linecap:round; stroke-linejoin:round; stroke-width:12; stroke-opacity:1; fill:none" points="218.439,1366.99 425.654,1121.64 632.869,1023.72 840.085,1196.91 1047.3,1223.65 1254.52,951.582 1461.73,396.066 1668.95,173 1876.16,297.526 2083.38,445.591 2290.59,559.274 "/>
<polyline clip-path="url(#clip041)" style="stroke:#e26f46; stroke-linecap:round; stroke-linejoin:round; stroke-width:12; stroke-opacity:1; fill:none" points="218.439,1366.99 425.654,1287.36 632.869,983.72 840.085,677.499 1047.3,918.403 1254.52,811.385 1461.73,731.784 1668.95,919.143 1876.16,950.914 2083.38,779.465 2290.59,853.943 "/>
<polyline clip-path="url(#clip041)" style="stroke:#3da44d; stroke-linecap:round; stroke-linejoin:round; stroke-width:12; stroke-opacity:1; fill:none" points="218.439,1366.99 425.654,1071.28 632.869,880.244 840.085,915.966 1047.3,782.938 1254.52,890.604 1461.73,991.663 1668.95,1113.3 1876.16,1009.6 2083.38,696.916 2290.59,447.932 "/>
<polyline clip-path="url(#clip041)" style="stroke:#c271d2; stroke-linecap:round; stroke-linejoin:round; stroke-width:12; stroke-opacity:1; fill:none" points="218.439,1366.99 425.654,1301.25 632.869,1167.8 840.085,1320.6 1047.3,1126.01 1254.52,1048.37 1461.73,434.567 1668.95,311.703 1876.16,368.065 2083.38,392.554 2290.59,240.139 "/>
<polyline clip-path="url(#clip041)" style="stroke:#ac8d18; stroke-linecap:round; stroke-linejoin:round; stroke-width:12; stroke-opacity:1; fill:none" points="218.439,1366.99 425.654,1236.38 632.869,1156.08 840.085,1163.49 1047.3,1103.14 1254.52,1197.63 1461.73,1083.69 1668.95,1294.7 1876.16,1365.23 2083.38,1081 2290.59,750.403 "/>
<polyline clip-path="url(#clip041)" style="stroke:#00a9ad; stroke-linecap:round; stroke-linejoin:round; stroke-width:12; stroke-opacity:1; fill:none" points="218.439,1366.99 425.654,1276.19 632.869,1056.8 840.085,955.377 1047.3,775.458 1254.52,898.295 1461.73,1011.05 1668.95,929.335 1876.16,736.784 2083.38,386.107 2290.59,87.9763 "/>
<polyline clip-path="url(#clip041)" style="stroke:#ed5d92; stroke-linecap:round; stroke-linejoin:round; stroke-width:12; stroke-opacity:1; fill:none" points="218.439,1366.99 425.654,1361.76 632.869,911.044 840.085,550.599 1047.3,600.218 1254.52,591.055 1461.73,746.873 1668.95,284.745 1876.16,265.523 2083.38,315.713 2290.59,265.825 "/>
<polyline clip-path="url(#clip041)" style="stroke:#c68125; stroke-linecap:round; stroke-linejoin:round; stroke-width:12; stroke-opacity:1; fill:none" points="218.439,1366.99 425.654,1445.72 632.869,1326.67 840.085,1158.39 1047.3,1222.36 1254.52,993.862 1461.73,709.905 1668.95,777.588 1876.16,622.476 2083.38,544.906 2290.59,663.917 "/>
</svg>
