<?xml version="1.0" encoding="utf-8"?>
<svg xmlns="http://www.w3.org/2000/svg" xmlns:xlink="http://www.w3.org/1999/xlink" width="600" height="400" viewBox="0 0 2400 1600">
<defs>
  <clipPath id="clip440">
    <rect x="0" y="0" width="2400" height="1600"/>
  </clipPath>
</defs>
<path clip-path="url(#clip440)" d="M0 1600 L2400 1600 L2400 0 L0 0  Z" fill="#ffffff" fill-rule="evenodd" fill-opacity="1"/>
<defs>
  <clipPath id="clip441">
    <rect x="186" y="47" width="2167" height="1440"/>
  </clipPath>
</defs>
<path clip-path="url(#clip440)" d="M186.274 1486.45 L2352.76 1486.45 L2352.76 47.2441 L186.274 47.2441  Z" fill="#ffffff" fill-rule="evenodd" fill-opacity="1"/>
<polyline clip-path="url(#clip441)" style="stroke:#000000; stroke-linecap:round; stroke-linejoin:round; stroke-width:2; stroke-opacity:0.1; fill:none" points="247.59,1486.45 247.59,47.2441 "/>
<polyline clip-path="url(#clip441)" style="stroke:#000000; stroke-linecap:round; stroke-linejoin:round; stroke-width:2; stroke-opacity:0.1; fill:none" points="758.552,1486.45 758.552,47.2441 "/>
<polyline clip-path="url(#clip441)" style="stroke:#000000; stroke-linecap:round; stroke-linejoin:round; stroke-width:2; stroke-opacity:0.1; fill:none" points="1269.51,1486.45 1269.51,47.2441 "/>
<polyline clip-path="url(#clip441)" style="stroke:#000000; stroke-linecap:round; stroke-linejoin:round; stroke-width:2; stroke-opacity:0.1; fill:none" points="1780.48,1486.45 1780.48,47.2441 "/>
<polyline clip-path="url(#clip441)" style="stroke:#000000; stroke-linecap:round; stroke-linejoin:round; stroke-width:2; stroke-opacity:0.1; fill:none" points="2291.44,1486.45 2291.44,47.2441 "/>
<polyline clip-path="url(#clip441)" style="stroke:#000000; stroke-linecap:round; stroke-linejoin:round; stroke-width:2; stroke-opacity:0.1; fill:none" points="186.274,1333.42 2352.76,1333.42 "/>
<polyline clip-path="url(#clip441)" style="stroke:#000000; stroke-linecap:round; stroke-linejoin:round; stroke-width:2; stroke-opacity:0.1; fill:none" points="186.274,1004.1 2352.76,1004.1 "/>
<polyline clip-path="url(#clip441)" style="stroke:#000000; stroke-linecap:round; stroke-linejoin:round; stroke-width:2; stroke-opacity:0.1; fill:none" points="186.274,674.79 2352.76,674.79 "/>
<polyline clip-path="url(#clip441)" style="stroke:#000000; stroke-linecap:round; stroke-linejoin:round; stroke-width:2; stroke-opacity:0.1; fill:none" points="186.274,345.476 2352.76,345.476 "/>
<polyline clip-path="url(#clip440)" style="stroke:#000000; stroke-linecap:round; stroke-linejoin:round; stroke-width:4; stroke-opacity:1; fill:none" points="186.274,1486.45 2352.76,1486.45 "/>
<polyline clip-path="url(#clip440)" style="stroke:#000000; stroke-linecap:round; stroke-linejoin:round; stroke-width:4; stroke-opacity:1; fill:none" points="247.59,1486.45 247.59,1467.55 "/>
<polyline clip-path="url(#clip440)" style="stroke:#000000; stroke-linecap:round; stroke-linejoin:round; stroke-width:4; stroke-opacity:1; fill:none" points="758.552,1486.45 758.552,1467.55 "/>
<polyline clip-path="url(#clip440)" style="stroke:#000000; stroke-linecap:round; stroke-linejoin:round; stroke-width:4; stroke-opacity:1; fill:none" points="1269.51,1486.45 1269.51,1467.55 "/>
<polyline clip-path="url(#clip440)" style="stroke:#000000; stroke-linecap:round; stroke-linejoin:round; stroke-width:4; stroke-opacity:1; fill:none" points="1780.48,1486.45 1780.48,1467.55 "/>
<polyline clip-path="url(#clip440)" style="stroke:#000000; stroke-linecap:round; stroke-linejoin:round; stroke-width:4; stroke-opacity:1; fill:none" points="2291.44,1486.45 2291.44,1467.55 "/>
<path clip-path="url(#clip440)" d="M209.893 1517.37 Q206.282 1517.37 204.453 1520.93 Q202.648 1524.47 202.648 1531.6 Q202.648 1538.71 204.453 1542.27 Q206.282 1545.82 209.893 1545.82 Q213.527 1545.82 215.333 1542.27 Q217.161 1538.71 217.161 1531.6 Q217.161 1524.47 215.333 1520.93 Q213.527 1517.37 209.893 1517.37 M209.893 1513.66 Q215.703 1513.66 218.759 1518.27 Q221.837 1522.85 221.837 1531.6 Q221.837 1540.33 218.759 1544.94 Q215.703 1549.52 209.893 1549.52 Q204.083 1549.52 201.004 1544.94 Q197.949 1540.33 197.949 1531.6 Q197.949 1522.85 201.004 1518.27 Q204.083 1513.66 209.893 1513.66 Z" fill="#000000" fill-rule="nonzero" fill-opacity="1" /><path clip-path="url(#clip440)" d="M230.055 1542.97 L234.939 1542.97 L234.939 1548.85 L230.055 1548.85 L230.055 1542.97 Z" fill="#000000" fill-rule="nonzero" fill-opacity="1" /><path clip-path="url(#clip440)" d="M255.124 1517.37 Q251.513 1517.37 249.684 1520.93 Q247.879 1524.47 247.879 1531.6 Q247.879 1538.71 249.684 1542.27 Q251.513 1545.82 255.124 1545.82 Q258.758 1545.82 260.564 1542.27 Q262.393 1538.71 262.393 1531.6 Q262.393 1524.47 260.564 1520.93 Q258.758 1517.37 255.124 1517.37 M255.124 1513.66 Q260.934 1513.66 263.99 1518.27 Q267.069 1522.85 267.069 1531.6 Q267.069 1540.33 263.99 1544.94 Q260.934 1549.52 255.124 1549.52 Q249.314 1549.52 246.235 1544.94 Q243.18 1540.33 243.18 1531.6 Q243.18 1522.85 246.235 1518.27 Q249.314 1513.66 255.124 1513.66 Z" fill="#000000" fill-rule="nonzero" fill-opacity="1" /><path clip-path="url(#clip440)" d="M285.286 1517.37 Q281.675 1517.37 279.846 1520.93 Q278.041 1524.47 278.041 1531.6 Q278.041 1538.71 279.846 1542.27 Q281.675 1545.82 285.286 1545.82 Q288.92 1545.82 290.726 1542.27 Q292.555 1538.71 292.555 1531.6 Q292.555 1524.47 290.726 1520.93 Q288.92 1517.37 285.286 1517.37 M285.286 1513.66 Q291.096 1513.66 294.152 1518.27 Q297.23 1522.85 297.23 1531.6 Q297.23 1540.33 294.152 1544.94 Q291.096 1549.52 285.286 1549.52 Q279.476 1549.52 276.397 1544.94 Q273.342 1540.33 273.342 1531.6 Q273.342 1522.85 276.397 1518.27 Q279.476 1513.66 285.286 1513.66 Z" fill="#000000" fill-rule="nonzero" fill-opacity="1" /><path clip-path="url(#clip440)" d="M721.353 1517.37 Q717.742 1517.37 715.914 1520.93 Q714.108 1524.47 714.108 1531.6 Q714.108 1538.71 715.914 1542.27 Q717.742 1545.82 721.353 1545.82 Q724.988 1545.82 726.793 1542.27 Q728.622 1538.71 728.622 1531.6 Q728.622 1524.47 726.793 1520.93 Q724.988 1517.37 721.353 1517.37 M721.353 1513.66 Q727.164 1513.66 730.219 1518.27 Q733.298 1522.85 733.298 1531.6 Q733.298 1540.33 730.219 1544.94 Q727.164 1549.52 721.353 1549.52 Q715.543 1549.52 712.465 1544.94 Q709.409 1540.33 709.409 1531.6 Q709.409 1522.85 712.465 1518.27 Q715.543 1513.66 721.353 1513.66 Z" fill="#000000" fill-rule="nonzero" fill-opacity="1" /><path clip-path="url(#clip440)" d="M741.515 1542.97 L746.4 1542.97 L746.4 1548.85 L741.515 1548.85 L741.515 1542.97 Z" fill="#000000" fill-rule="nonzero" fill-opacity="1" /><path clip-path="url(#clip440)" d="M760.612 1544.91 L776.932 1544.91 L776.932 1548.85 L754.987 1548.85 L754.987 1544.91 Q757.649 1542.16 762.233 1537.53 Q766.839 1532.88 768.02 1531.53 Q770.265 1529.01 771.145 1527.27 Q772.048 1525.51 772.048 1523.82 Q772.048 1521.07 770.103 1519.33 Q768.182 1517.6 765.08 1517.6 Q762.881 1517.6 760.427 1518.36 Q757.997 1519.13 755.219 1520.68 L755.219 1515.95 Q758.043 1514.82 760.497 1514.24 Q762.95 1513.66 764.987 1513.66 Q770.358 1513.66 773.552 1516.35 Q776.747 1519.03 776.747 1523.52 Q776.747 1525.65 775.936 1527.57 Q775.149 1529.47 773.043 1532.07 Q772.464 1532.74 769.362 1535.95 Q766.261 1539.15 760.612 1544.91 Z" fill="#000000" fill-rule="nonzero" fill-opacity="1" /><path clip-path="url(#clip440)" d="M786.793 1514.29 L805.149 1514.29 L805.149 1518.22 L791.075 1518.22 L791.075 1526.7 Q792.094 1526.35 793.112 1526.19 Q794.131 1526 795.149 1526 Q800.936 1526 804.316 1529.17 Q807.695 1532.34 807.695 1537.76 Q807.695 1543.34 804.223 1546.44 Q800.751 1549.52 794.432 1549.52 Q792.256 1549.52 789.987 1549.15 Q787.742 1548.78 785.335 1548.04 L785.335 1543.34 Q787.418 1544.47 789.64 1545.03 Q791.862 1545.58 794.339 1545.58 Q798.344 1545.58 800.682 1543.48 Q803.02 1541.37 803.02 1537.76 Q803.02 1534.15 800.682 1532.04 Q798.344 1529.94 794.339 1529.94 Q792.464 1529.94 790.589 1530.35 Q788.737 1530.77 786.793 1531.65 L786.793 1514.29 Z" fill="#000000" fill-rule="nonzero" fill-opacity="1" /><path clip-path="url(#clip440)" d="M1231.82 1517.37 Q1228.21 1517.37 1226.38 1520.93 Q1224.57 1524.47 1224.57 1531.6 Q1224.57 1538.71 1226.38 1542.27 Q1228.21 1545.82 1231.82 1545.82 Q1235.45 1545.82 1237.26 1542.27 Q1239.09 1538.71 1239.09 1531.6 Q1239.09 1524.47 1237.26 1520.93 Q1235.45 1517.37 1231.82 1517.37 M1231.82 1513.66 Q1237.63 1513.66 1240.68 1518.27 Q1243.76 1522.85 1243.76 1531.6 Q1243.76 1540.33 1240.68 1544.94 Q1237.63 1549.52 1231.82 1549.52 Q1226.01 1549.52 1222.93 1544.94 Q1219.87 1540.33 1219.87 1531.6 Q1219.87 1522.85 1222.93 1518.27 Q1226.01 1513.66 1231.82 1513.66 Z" fill="#000000" fill-rule="nonzero" fill-opacity="1" /><path clip-path="url(#clip440)" d="M1251.98 1542.97 L1256.86 1542.97 L1256.86 1548.85 L1251.98 1548.85 L1251.98 1542.97 Z" fill="#000000" fill-rule="nonzero" fill-opacity="1" /><path clip-path="url(#clip440)" d="M1267.1 1514.29 L1285.45 1514.29 L1285.45 1518.22 L1271.38 1518.22 L1271.38 1526.7 Q1272.4 1526.35 1273.42 1526.19 Q1274.43 1526 1275.45 1526 Q1281.24 1526 1284.62 1529.17 Q1288 1532.34 1288 1537.76 Q1288 1543.34 1284.53 1546.44 Q1281.05 1549.52 1274.73 1549.52 Q1272.56 1549.52 1270.29 1549.15 Q1268.05 1548.78 1265.64 1548.04 L1265.64 1543.34 Q1267.72 1544.47 1269.94 1545.03 Q1272.17 1545.58 1274.64 1545.58 Q1278.65 1545.58 1280.98 1543.48 Q1283.32 1541.37 1283.32 1537.76 Q1283.32 1534.15 1280.98 1532.04 Q1278.65 1529.94 1274.64 1529.94 Q1272.77 1529.94 1270.89 1530.35 Q1269.04 1530.77 1267.1 1531.65 L1267.1 1514.29 Z" fill="#000000" fill-rule="nonzero" fill-opacity="1" /><path clip-path="url(#clip440)" d="M1307.21 1517.37 Q1303.6 1517.37 1301.77 1520.93 Q1299.97 1524.47 1299.97 1531.6 Q1299.97 1538.71 1301.77 1542.27 Q1303.6 1545.82 1307.21 1545.82 Q1310.85 1545.82 1312.65 1542.27 Q1314.48 1538.71 1314.48 1531.6 Q1314.48 1524.47 1312.65 1520.93 Q1310.85 1517.37 1307.21 1517.37 M1307.21 1513.66 Q1313.02 1513.66 1316.08 1518.27 Q1319.16 1522.85 1319.16 1531.6 Q1319.16 1540.33 1316.08 1544.94 Q1313.02 1549.52 1307.21 1549.52 Q1301.4 1549.52 1298.32 1544.94 Q1295.27 1540.33 1295.27 1531.6 Q1295.27 1522.85 1298.32 1518.27 Q1301.4 1513.66 1307.21 1513.66 Z" fill="#000000" fill-rule="nonzero" fill-opacity="1" /><path clip-path="url(#clip440)" d="M1743.28 1517.37 Q1739.67 1517.37 1737.84 1520.93 Q1736.03 1524.47 1736.03 1531.6 Q1736.03 1538.71 1737.84 1542.27 Q1739.67 1545.82 1743.28 1545.82 Q1746.91 1545.82 1748.72 1542.27 Q1750.55 1538.71 1750.55 1531.6 Q1750.55 1524.47 1748.72 1520.93 Q1746.91 1517.37 1743.28 1517.37 M1743.28 1513.66 Q1749.09 1513.66 1752.14 1518.27 Q1755.22 1522.85 1755.22 1531.6 Q1755.22 1540.33 1752.14 1544.94 Q1749.09 1549.52 1743.28 1549.52 Q1737.47 1549.52 1734.39 1544.94 Q1731.33 1540.33 1731.33 1531.6 Q1731.33 1522.85 1734.39 1518.27 Q1737.47 1513.66 1743.28 1513.66 Z" fill="#000000" fill-rule="nonzero" fill-opacity="1" /><path clip-path="url(#clip440)" d="M1763.44 1542.97 L1768.32 1542.97 L1768.32 1548.85 L1763.44 1548.85 L1763.44 1542.97 Z" fill="#000000" fill-rule="nonzero" fill-opacity="1" /><path clip-path="url(#clip440)" d="M1777.33 1514.29 L1799.55 1514.29 L1799.55 1516.28 L1787.01 1548.85 L1782.12 1548.85 L1793.93 1518.22 L1777.33 1518.22 L1777.33 1514.29 Z" fill="#000000" fill-rule="nonzero" fill-opacity="1" /><path clip-path="url(#clip440)" d="M1808.72 1514.29 L1827.07 1514.29 L1827.07 1518.22 L1813 1518.22 L1813 1526.7 Q1814.02 1526.35 1815.04 1526.19 Q1816.06 1526 1817.07 1526 Q1822.86 1526 1826.24 1529.17 Q1829.62 1532.34 1829.62 1537.76 Q1829.62 1543.34 1826.15 1546.44 Q1822.68 1549.52 1816.36 1549.52 Q1814.18 1549.52 1811.91 1549.15 Q1809.67 1548.78 1807.26 1548.04 L1807.26 1543.34 Q1809.34 1544.47 1811.57 1545.03 Q1813.79 1545.58 1816.26 1545.58 Q1820.27 1545.58 1822.61 1543.48 Q1824.95 1541.37 1824.95 1537.76 Q1824.95 1534.15 1822.61 1532.04 Q1820.27 1529.94 1816.26 1529.94 Q1814.39 1529.94 1812.51 1530.35 Q1810.66 1530.77 1808.72 1531.65 L1808.72 1514.29 Z" fill="#000000" fill-rule="nonzero" fill-opacity="1" /><path clip-path="url(#clip440)" d="M2243.51 1544.91 L2251.15 1544.91 L2251.15 1518.55 L2242.84 1520.21 L2242.84 1515.95 L2251.1 1514.29 L2255.78 1514.29 L2255.78 1544.91 L2263.42 1544.91 L2263.42 1548.85 L2243.51 1548.85 L2243.51 1544.91 Z" fill="#000000" fill-rule="nonzero" fill-opacity="1" /><path clip-path="url(#clip440)" d="M2272.86 1542.97 L2277.75 1542.97 L2277.75 1548.85 L2272.86 1548.85 L2272.86 1542.97 Z" fill="#000000" fill-rule="nonzero" fill-opacity="1" /><path clip-path="url(#clip440)" d="M2297.93 1517.37 Q2294.32 1517.37 2292.49 1520.93 Q2290.69 1524.47 2290.69 1531.6 Q2290.69 1538.71 2292.49 1542.27 Q2294.32 1545.82 2297.93 1545.82 Q2301.57 1545.82 2303.37 1542.27 Q2305.2 1538.71 2305.2 1531.6 Q2305.2 1524.47 2303.37 1520.93 Q2301.57 1517.37 2297.93 1517.37 M2297.93 1513.66 Q2303.74 1513.66 2306.8 1518.27 Q2309.88 1522.85 2309.88 1531.6 Q2309.88 1540.33 2306.8 1544.94 Q2303.74 1549.52 2297.93 1549.52 Q2292.12 1549.52 2289.04 1544.94 Q2285.99 1540.33 2285.99 1531.6 Q2285.99 1522.85 2289.04 1518.27 Q2292.12 1513.66 2297.93 1513.66 Z" fill="#000000" fill-rule="nonzero" fill-opacity="1" /><path clip-path="url(#clip440)" d="M2328.1 1517.37 Q2324.48 1517.37 2322.66 1520.93 Q2320.85 1524.47 2320.85 1531.6 Q2320.85 1538.71 2322.66 1542.27 Q2324.48 1545.82 2328.1 1545.82 Q2331.73 1545.82 2333.54 1542.27 Q2335.36 1538.71 2335.36 1531.6 Q2335.36 1524.47 2333.54 1520.93 Q2331.73 1517.37 2328.1 1517.37 M2328.1 1513.66 Q2333.91 1513.66 2336.96 1518.27 Q2340.04 1522.85 2340.04 1531.6 Q2340.04 1540.33 2336.96 1544.94 Q2333.91 1549.52 2328.1 1549.52 Q2322.29 1549.52 2319.21 1544.94 Q2316.15 1540.33 2316.15 1531.6 Q2316.15 1522.85 2319.21 1518.27 Q2322.29 1513.66 2328.1 1513.66 Z" fill="#000000" fill-rule="nonzero" fill-opacity="1" /><polyline clip-path="url(#clip440)" style="stroke:#000000; stroke-linecap:round; stroke-linejoin:round; stroke-width:4; stroke-opacity:1; fill:none" points="186.274,1486.45 186.274,47.2441 "/>
<polyline clip-path="url(#clip440)" style="stroke:#000000; stroke-linecap:round; stroke-linejoin:round; stroke-width:4; stroke-opacity:1; fill:none" points="186.274,1333.42 205.172,1333.42 "/>
<polyline clip-path="url(#clip440)" style="stroke:#000000; stroke-linecap:round; stroke-linejoin:round; stroke-width:4; stroke-opacity:1; fill:none" points="186.274,1004.1 205.172,1004.1 "/>
<polyline clip-path="url(#clip440)" style="stroke:#000000; stroke-linecap:round; stroke-linejoin:round; stroke-width:4; stroke-opacity:1; fill:none" points="186.274,674.79 205.172,674.79 "/>
<polyline clip-path="url(#clip440)" style="stroke:#000000; stroke-linecap:round; stroke-linejoin:round; stroke-width:4; stroke-opacity:1; fill:none" points="186.274,345.476 205.172,345.476 "/>
<path clip-path="url(#clip440)" d="M62.9365 1319.22 Q59.3254 1319.22 57.4967 1322.78 Q55.6912 1326.32 55.6912 1333.45 Q55.6912 1340.56 57.4967 1344.13 Q59.3254 1347.67 62.9365 1347.67 Q66.5707 1347.67 68.3763 1344.13 Q70.205 1340.56 70.205 1333.45 Q70.205 1326.32 68.3763 1322.78 Q66.5707 1319.22 62.9365 1319.22 M62.9365 1315.51 Q68.7467 1315.51 71.8022 1320.12 Q74.8809 1324.7 74.8809 1333.45 Q74.8809 1342.18 71.8022 1346.79 Q68.7467 1351.37 62.9365 1351.37 Q57.1264 1351.37 54.0477 1346.79 Q50.9921 1342.18 50.9921 1333.45 Q50.9921 1324.7 54.0477 1320.12 Q57.1264 1315.51 62.9365 1315.51 Z" fill="#000000" fill-rule="nonzero" fill-opacity="1" /><path clip-path="url(#clip440)" d="M83.0984 1344.82 L87.9827 1344.82 L87.9827 1350.7 L83.0984 1350.7 L83.0984 1344.82 Z" fill="#000000" fill-rule="nonzero" fill-opacity="1" /><path clip-path="url(#clip440)" d="M98.2141 1316.14 L116.57 1316.14 L116.57 1320.07 L102.496 1320.07 L102.496 1328.55 Q103.515 1328.2 104.534 1328.04 Q105.552 1327.85 106.571 1327.85 Q112.358 1327.85 115.737 1331.02 Q119.117 1334.19 119.117 1339.61 Q119.117 1345.19 115.645 1348.29 Q112.172 1351.37 105.853 1351.37 Q103.677 1351.37 101.409 1351 Q99.1632 1350.63 96.7558 1349.89 L96.7558 1345.19 Q98.8391 1346.32 101.061 1346.88 Q103.284 1347.44 105.76 1347.44 Q109.765 1347.44 112.103 1345.33 Q114.441 1343.22 114.441 1339.61 Q114.441 1336 112.103 1333.89 Q109.765 1331.79 105.76 1331.79 Q103.885 1331.79 102.01 1332.2 Q100.159 1332.62 98.2141 1333.5 L98.2141 1316.14 Z" fill="#000000" fill-rule="nonzero" fill-opacity="1" /><path clip-path="url(#clip440)" d="M138.33 1319.22 Q134.719 1319.22 132.89 1322.78 Q131.084 1326.32 131.084 1333.45 Q131.084 1340.56 132.89 1344.13 Q134.719 1347.67 138.33 1347.67 Q141.964 1347.67 143.769 1344.13 Q145.598 1340.56 145.598 1333.45 Q145.598 1326.32 143.769 1322.78 Q141.964 1319.22 138.33 1319.22 M138.33 1315.51 Q144.14 1315.51 147.195 1320.12 Q150.274 1324.7 150.274 1333.45 Q150.274 1342.18 147.195 1346.79 Q144.14 1351.37 138.33 1351.37 Q132.519 1351.37 129.441 1346.79 Q126.385 1342.18 126.385 1333.45 Q126.385 1324.7 129.441 1320.12 Q132.519 1315.51 138.33 1315.51 Z" fill="#000000" fill-rule="nonzero" fill-opacity="1" /><path clip-path="url(#clip440)" d="M63.9319 989.904 Q60.3208 989.904 58.4921 993.468 Q56.6865 997.01 56.6865 1004.14 Q56.6865 1011.25 58.4921 1014.81 Q60.3208 1018.35 63.9319 1018.35 Q67.5661 1018.35 69.3717 1014.81 Q71.2004 1011.25 71.2004 1004.14 Q71.2004 997.01 69.3717 993.468 Q67.5661 989.904 63.9319 989.904 M63.9319 986.2 Q69.742 986.2 72.7976 990.806 Q75.8763 995.39 75.8763 1004.14 Q75.8763 1012.87 72.7976 1017.47 Q69.742 1022.06 63.9319 1022.06 Q58.1217 1022.06 55.043 1017.47 Q51.9875 1012.87 51.9875 1004.14 Q51.9875 995.39 55.043 990.806 Q58.1217 986.2 63.9319 986.2 Z" fill="#000000" fill-rule="nonzero" fill-opacity="1" /><path clip-path="url(#clip440)" d="M84.0938 1015.51 L88.978 1015.51 L88.978 1021.38 L84.0938 1021.38 L84.0938 1015.51 Z" fill="#000000" fill-rule="nonzero" fill-opacity="1" /><path clip-path="url(#clip440)" d="M97.9826 986.825 L120.205 986.825 L120.205 988.816 L107.658 1021.38 L102.774 1021.38 L114.58 990.76 L97.9826 990.76 L97.9826 986.825 Z" fill="#000000" fill-rule="nonzero" fill-opacity="1" /><path clip-path="url(#clip440)" d="M129.371 986.825 L147.728 986.825 L147.728 990.76 L133.654 990.76 L133.654 999.232 Q134.672 998.885 135.691 998.723 Q136.709 998.538 137.728 998.538 Q143.515 998.538 146.894 1001.71 Q150.274 1004.88 150.274 1010.3 Q150.274 1015.88 146.802 1018.98 Q143.33 1022.06 137.01 1022.06 Q134.834 1022.06 132.566 1021.69 Q130.32 1021.32 127.913 1020.57 L127.913 1015.88 Q129.996 1017.01 132.219 1017.57 Q134.441 1018.12 136.918 1018.12 Q140.922 1018.12 143.26 1016.01 Q145.598 1013.91 145.598 1010.3 Q145.598 1006.69 143.26 1004.58 Q140.922 1002.47 136.918 1002.47 Q135.043 1002.47 133.168 1002.89 Q131.316 1003.31 129.371 1004.19 L129.371 986.825 Z" fill="#000000" fill-rule="nonzero" fill-opacity="1" /><path clip-path="url(#clip440)" d="M53.7467 688.135 L61.3856 688.135 L61.3856 661.77 L53.0754 663.436 L53.0754 659.177 L61.3393 657.51 L66.0152 657.51 L66.0152 688.135 L73.654 688.135 L73.654 692.07 L53.7467 692.07 L53.7467 688.135 Z" fill="#000000" fill-rule="nonzero" fill-opacity="1" /><path clip-path="url(#clip440)" d="M83.0984 686.191 L87.9827 686.191 L87.9827 692.07 L83.0984 692.07 L83.0984 686.191 Z" fill="#000000" fill-rule="nonzero" fill-opacity="1" /><path clip-path="url(#clip440)" d="M108.168 660.589 Q104.557 660.589 102.728 664.154 Q100.922 667.695 100.922 674.825 Q100.922 681.931 102.728 685.496 Q104.557 689.038 108.168 689.038 Q111.802 689.038 113.608 685.496 Q115.436 681.931 115.436 674.825 Q115.436 667.695 113.608 664.154 Q111.802 660.589 108.168 660.589 M108.168 656.885 Q113.978 656.885 117.033 661.492 Q120.112 666.075 120.112 674.825 Q120.112 683.552 117.033 688.158 Q113.978 692.742 108.168 692.742 Q102.358 692.742 99.2789 688.158 Q96.2234 683.552 96.2234 674.825 Q96.2234 666.075 99.2789 661.492 Q102.358 656.885 108.168 656.885 Z" fill="#000000" fill-rule="nonzero" fill-opacity="1" /><path clip-path="url(#clip440)" d="M138.33 660.589 Q134.719 660.589 132.89 664.154 Q131.084 667.695 131.084 674.825 Q131.084 681.931 132.89 685.496 Q134.719 689.038 138.33 689.038 Q141.964 689.038 143.769 685.496 Q145.598 681.931 145.598 674.825 Q145.598 667.695 143.769 664.154 Q141.964 660.589 138.33 660.589 M138.33 656.885 Q144.14 656.885 147.195 661.492 Q150.274 666.075 150.274 674.825 Q150.274 683.552 147.195 688.158 Q144.14 692.742 138.33 692.742 Q132.519 692.742 129.441 688.158 Q126.385 683.552 126.385 674.825 Q126.385 666.075 129.441 661.492 Q132.519 656.885 138.33 656.885 Z" fill="#000000" fill-rule="nonzero" fill-opacity="1" /><path clip-path="url(#clip440)" d="M54.7421 358.821 L62.381 358.821 L62.381 332.455 L54.0708 334.122 L54.0708 329.862 L62.3347 328.196 L67.0106 328.196 L67.0106 358.821 L74.6494 358.821 L74.6494 362.756 L54.7421 362.756 L54.7421 358.821 Z" fill="#000000" fill-rule="nonzero" fill-opacity="1" /><path clip-path="url(#clip440)" d="M84.0938 356.876 L88.978 356.876 L88.978 362.756 L84.0938 362.756 L84.0938 356.876 Z" fill="#000000" fill-rule="nonzero" fill-opacity="1" /><path clip-path="url(#clip440)" d="M103.191 358.821 L119.51 358.821 L119.51 362.756 L97.566 362.756 L97.566 358.821 Q100.228 356.066 104.811 351.436 Q109.418 346.784 110.598 345.441 Q112.844 342.918 113.723 341.182 Q114.626 339.423 114.626 337.733 Q114.626 334.978 112.682 333.242 Q110.76 331.506 107.658 331.506 Q105.459 331.506 103.006 332.27 Q100.575 333.034 97.7974 334.585 L97.7974 329.862 Q100.621 328.728 103.075 328.149 Q105.529 327.571 107.566 327.571 Q112.936 327.571 116.131 330.256 Q119.325 332.941 119.325 337.432 Q119.325 339.561 118.515 341.483 Q117.728 343.381 115.621 345.973 Q115.043 346.645 111.941 349.862 Q108.839 353.057 103.191 358.821 Z" fill="#000000" fill-rule="nonzero" fill-opacity="1" /><path clip-path="url(#clip440)" d="M129.371 328.196 L147.728 328.196 L147.728 332.131 L133.654 332.131 L133.654 340.603 Q134.672 340.256 135.691 340.094 Q136.709 339.909 137.728 339.909 Q143.515 339.909 146.894 343.08 Q150.274 346.251 150.274 351.668 Q150.274 357.247 146.802 360.348 Q143.33 363.427 137.01 363.427 Q134.834 363.427 132.566 363.057 Q130.32 362.686 127.913 361.946 L127.913 357.247 Q129.996 358.381 132.219 358.936 Q134.441 359.492 136.918 359.492 Q140.922 359.492 143.26 357.385 Q145.598 355.279 145.598 351.668 Q145.598 348.057 143.26 345.95 Q140.922 343.844 136.918 343.844 Q135.043 343.844 133.168 344.26 Q131.316 344.677 129.371 345.557 L129.371 328.196 Z" fill="#000000" fill-rule="nonzero" fill-opacity="1" /><polyline clip-path="url(#clip441)" style="stroke:#009af9; stroke-linecap:round; stroke-linejoin:round; stroke-width:12; stroke-opacity:1; fill:none" points="247.59,1333.42 451.975,1333.78 656.36,1274.09 860.745,1235.76 1065.13,1251.66 1269.51,1185.74 1473.9,1133.84 1678.29,1122.95 1882.67,934.162 2087.06,855.586 2291.44,883.133 "/>
<polyline clip-path="url(#clip441)" style="stroke:#e26f46; stroke-linecap:round; stroke-linejoin:round; stroke-width:12; stroke-opacity:1; fill:none" points="247.59,1333.42 451.975,1308.12 656.36,1338.95 860.745,1339.79 1065.13,1441.58 1269.51,1445.72 1473.9,1422.26 1678.29,1361.14 1882.67,1250.12 2087.06,1033.37 2291.44,929.807 "/>
<polyline clip-path="url(#clip441)" style="stroke:#3da44d; stroke-linecap:round; stroke-linejoin:round; stroke-width:12; stroke-opacity:1; fill:none" points="247.59,1333.42 451.975,1303.59 656.36,1268.18 860.745,1128.53 1065.13,1199.89 1269.51,1205.63 1473.9,1078.33 1678.29,980.374 1882.67,884.805 2087.06,663.742 2291.44,87.9763 "/>
<polyline clip-path="url(#clip441)" style="stroke:#c271d2; stroke-linecap:round; stroke-linejoin:round; stroke-width:12; stroke-opacity:1; fill:none" points="247.59,1333.42 451.975,1252.21 656.36,1117.78 860.745,1062.94 1065.13,1139.06 1269.51,993.795 1473.9,1197.99 1678.29,1065.42 1882.67,1065.54 2087.06,1282.1 2291.44,1292.77 "/>
<polyline clip-path="url(#clip441)" style="stroke:#ac8d18; stroke-linecap:round; stroke-linejoin:round; stroke-width:12; stroke-opacity:1; fill:none" points="247.59,1333.42 451.975,1238.28 656.36,1373.77 860.745,1344.73 1065.13,1333.59 1269.51,1315.3 1473.9,1344.42 1678.29,1303.78 1882.67,1248.92 2087.06,1317.63 2291.44,1217.81 "/>
<polyline clip-path="url(#clip441)" style="stroke:#00a9ad; stroke-linecap:round; stroke-linejoin:round; stroke-width:12; stroke-opacity:1; fill:none" points="247.59,1333.42 451.975,1353.05 656.36,1285.63 860.745,1223.3 1065.13,1156 1269.51,968.419 1473.9,1208.62 1678.29,1196.93 1882.67,1162.15 2087.06,1043.3 2291.44,886.433 "/>
<polyline clip-path="url(#clip441)" style="stroke:#ed5d92; stroke-linecap:round; stroke-linejoin:round; stroke-width:12; stroke-opacity:1; fill:none" points="247.59,1333.42 451.975,1355.29 656.36,1277.05 860.745,1221.75 1065.13,1114.39 1269.51,1217.07 1473.9,946.157 1678.29,861.148 1882.67,907.933 2087.06,1068.71 2291.44,1003.28 "/>
<polyline clip-path="url(#clip441)" style="stroke:#c68125; stroke-linecap:round; stroke-linejoin:round; stroke-width:12; stroke-opacity:1; fill:none" points="247.59,1333.42 451.975,1315.43 656.36,1221.43 860.745,1150.08 1065.13,1131.25 1269.51,1158.26 1473.9,1031.65 1678.29,817.03 1882.67,695.563 2087.06,661.495 2291.44,536.534 "/>
</svg>
