<?xml version="1.0" encoding="utf-8"?>
<svg xmlns="http://www.w3.org/2000/svg" xmlns:xlink="http://www.w3.org/1999/xlink" width="600" height="400" viewBox="0 0 2400 1600">
<defs>
  <clipPath id="clip380">
    <rect x="0" y="0" width="2400" height="1600"/>
  </clipPath>
</defs>
<path clip-path="url(#clip380)" d="M0 1600 L2400 1600 L2400 0 L0 0  Z" fill="#ffffff" fill-rule="evenodd" fill-opacity="1"/>
<defs>
  <clipPath id="clip381">
    <rect x="155" y="47" width="2198" height="1440"/>
  </clipPath>
</defs>
<path clip-path="url(#clip380)" d="M155.765 1486.45 L2352.76 1486.45 L2352.76 47.2441 L155.765 47.2441  Z" fill="#ffffff" fill-rule="evenodd" fill-opacity="1"/>
<polyline clip-path="url(#clip381)" style="stroke:#000000; stroke-linecap:round; stroke-linejoin:round; stroke-width:2; stroke-opacity:0.1; fill:none" points="217.944,1486.45 217.944,47.2441 "/>
<polyline clip-path="url(#clip381)" style="stroke:#000000; stroke-linecap:round; stroke-linejoin:round; stroke-width:2; stroke-opacity:0.1; fill:none" points="736.102,1486.45 736.102,47.2441 "/>
<polyline clip-path="url(#clip381)" style="stroke:#000000; stroke-linecap:round; stroke-linejoin:round; stroke-width:2; stroke-opacity:0.1; fill:none" points="1254.26,1486.45 1254.26,47.2441 "/>
<polyline clip-path="url(#clip381)" style="stroke:#000000; stroke-linecap:round; stroke-linejoin:round; stroke-width:2; stroke-opacity:0.1; fill:none" points="1772.42,1486.45 1772.42,47.2441 "/>
<polyline clip-path="url(#clip381)" style="stroke:#000000; stroke-linecap:round; stroke-linejoin:round; stroke-width:2; stroke-opacity:0.1; fill:none" points="2290.58,1486.45 2290.58,47.2441 "/>
<polyline clip-path="url(#clip381)" style="stroke:#000000; stroke-linecap:round; stroke-linejoin:round; stroke-width:2; stroke-opacity:0.1; fill:none" points="155.765,1340.05 2352.76,1340.05 "/>
<polyline clip-path="url(#clip381)" style="stroke:#000000; stroke-linecap:round; stroke-linejoin:round; stroke-width:2; stroke-opacity:0.1; fill:none" points="155.765,1149.97 2352.76,1149.97 "/>
<polyline clip-path="url(#clip381)" style="stroke:#000000; stroke-linecap:round; stroke-linejoin:round; stroke-width:2; stroke-opacity:0.1; fill:none" points="155.765,959.885 2352.76,959.885 "/>
<polyline clip-path="url(#clip381)" style="stroke:#000000; stroke-linecap:round; stroke-linejoin:round; stroke-width:2; stroke-opacity:0.1; fill:none" points="155.765,769.803 2352.76,769.803 "/>
<polyline clip-path="url(#clip381)" style="stroke:#000000; stroke-linecap:round; stroke-linejoin:round; stroke-width:2; stroke-opacity:0.1; fill:none" points="155.765,579.721 2352.76,579.721 "/>
<polyline clip-path="url(#clip381)" style="stroke:#000000; stroke-linecap:round; stroke-linejoin:round; stroke-width:2; stroke-opacity:0.1; fill:none" points="155.765,389.639 2352.76,389.639 "/>
<polyline clip-path="url(#clip381)" style="stroke:#000000; stroke-linecap:round; stroke-linejoin:round; stroke-width:2; stroke-opacity:0.1; fill:none" points="155.765,199.558 2352.76,199.558 "/>
<polyline clip-path="url(#clip380)" style="stroke:#000000; stroke-linecap:round; stroke-linejoin:round; stroke-width:4; stroke-opacity:1; fill:none" points="155.765,1486.45 2352.76,1486.45 "/>
<polyline clip-path="url(#clip380)" style="stroke:#000000; stroke-linecap:round; stroke-linejoin:round; stroke-width:4; stroke-opacity:1; fill:none" points="217.944,1486.45 217.944,1467.55 "/>
<polyline clip-path="url(#clip380)" style="stroke:#000000; stroke-linecap:round; stroke-linejoin:round; stroke-width:4; stroke-opacity:1; fill:none" points="736.102,1486.45 736.102,1467.55 "/>
<polyline clip-path="url(#clip380)" style="stroke:#000000; stroke-linecap:round; stroke-linejoin:round; stroke-width:4; stroke-opacity:1; fill:none" points="1254.26,1486.45 1254.26,1467.55 "/>
<polyline clip-path="url(#clip380)" style="stroke:#000000; stroke-linecap:round; stroke-linejoin:round; stroke-width:4; stroke-opacity:1; fill:none" points="1772.42,1486.45 1772.42,1467.55 "/>
<polyline clip-path="url(#clip380)" style="stroke:#000000; stroke-linecap:round; stroke-linejoin:round; stroke-width:4; stroke-opacity:1; fill:none" points="2290.58,1486.45 2290.58,1467.55 "/>
<path clip-path="url(#clip380)" d="M180.247 1517.37 Q176.636 1517.37 174.808 1520.93 Q173.002 1524.47 173.002 1531.6 Q173.002 1538.71 174.808 1542.27 Q176.636 1545.82 180.247 1545.82 Q183.882 1545.82 185.687 1542.27 Q187.516 1538.71 187.516 1531.6 Q187.516 1524.47 185.687 1520.93 Q183.882 1517.37 180.247 1517.37 M180.247 1513.66 Q186.057 1513.66 189.113 1518.27 Q192.192 1522.85 192.192 1531.6 Q192.192 1540.33 189.113 1544.94 Q186.057 1549.52 180.247 1549.52 Q174.437 1549.52 171.358 1544.94 Q168.303 1540.33 168.303 1531.6 Q168.303 1522.85 171.358 1518.27 Q174.437 1513.66 180.247 1513.66 Z" fill="#000000" fill-rule="nonzero" fill-opacity="1" /><path clip-path="url(#clip380)" d="M200.409 1542.97 L205.294 1542.97 L205.294 1548.85 L200.409 1548.85 L200.409 1542.97 Z" fill="#000000" fill-rule="nonzero" fill-opacity="1" /><path clip-path="url(#clip380)" d="M225.479 1517.37 Q221.867 1517.37 220.039 1520.93 Q218.233 1524.47 218.233 1531.6 Q218.233 1538.71 220.039 1542.27 Q221.867 1545.82 225.479 1545.82 Q229.113 1545.82 230.918 1542.27 Q232.747 1538.71 232.747 1531.6 Q232.747 1524.47 230.918 1520.93 Q229.113 1517.37 225.479 1517.37 M225.479 1513.66 Q231.289 1513.66 234.344 1518.27 Q237.423 1522.85 237.423 1531.6 Q237.423 1540.33 234.344 1544.94 Q231.289 1549.52 225.479 1549.52 Q219.668 1549.52 216.59 1544.94 Q213.534 1540.33 213.534 1531.6 Q213.534 1522.85 216.59 1518.27 Q219.668 1513.66 225.479 1513.66 Z" fill="#000000" fill-rule="nonzero" fill-opacity="1" /><path clip-path="url(#clip380)" d="M255.64 1517.37 Q252.029 1517.37 250.201 1520.93 Q248.395 1524.47 248.395 1531.6 Q248.395 1538.71 250.201 1542.27 Q252.029 1545.82 255.64 1545.82 Q259.275 1545.82 261.08 1542.27 Q262.909 1538.71 262.909 1531.6 Q262.909 1524.47 261.08 1520.93 Q259.275 1517.37 255.64 1517.37 M255.64 1513.66 Q261.451 1513.66 264.506 1518.27 Q267.585 1522.85 267.585 1531.6 Q267.585 1540.33 264.506 1544.94 Q261.451 1549.52 255.64 1549.52 Q249.83 1549.52 246.752 1544.94 Q243.696 1540.33 243.696 1531.6 Q243.696 1522.85 246.752 1518.27 Q249.83 1513.66 255.64 1513.66 Z" fill="#000000" fill-rule="nonzero" fill-opacity="1" /><path clip-path="url(#clip380)" d="M698.903 1517.37 Q695.292 1517.37 693.463 1520.93 Q691.658 1524.47 691.658 1531.6 Q691.658 1538.71 693.463 1542.27 Q695.292 1545.82 698.903 1545.82 Q702.538 1545.82 704.343 1542.27 Q706.172 1538.71 706.172 1531.6 Q706.172 1524.47 704.343 1520.93 Q702.538 1517.37 698.903 1517.37 M698.903 1513.66 Q704.713 1513.66 707.769 1518.27 Q710.848 1522.85 710.848 1531.6 Q710.848 1540.33 707.769 1544.94 Q704.713 1549.52 698.903 1549.52 Q693.093 1549.52 690.014 1544.94 Q686.959 1540.33 686.959 1531.6 Q686.959 1522.85 690.014 1518.27 Q693.093 1513.66 698.903 1513.66 Z" fill="#000000" fill-rule="nonzero" fill-opacity="1" /><path clip-path="url(#clip380)" d="M719.065 1542.97 L723.949 1542.97 L723.949 1548.85 L719.065 1548.85 L719.065 1542.97 Z" fill="#000000" fill-rule="nonzero" fill-opacity="1" /><path clip-path="url(#clip380)" d="M738.162 1544.91 L754.482 1544.91 L754.482 1548.85 L732.537 1548.85 L732.537 1544.91 Q735.199 1542.16 739.783 1537.53 Q744.389 1532.88 745.57 1531.53 Q747.815 1529.01 748.695 1527.27 Q749.597 1525.51 749.597 1523.82 Q749.597 1521.07 747.653 1519.33 Q745.732 1517.6 742.63 1517.6 Q740.431 1517.6 737.977 1518.36 Q735.547 1519.13 732.769 1520.68 L732.769 1515.95 Q735.593 1514.82 738.047 1514.24 Q740.5 1513.66 742.537 1513.66 Q747.908 1513.66 751.102 1516.35 Q754.296 1519.03 754.296 1523.52 Q754.296 1525.65 753.486 1527.57 Q752.699 1529.47 750.593 1532.07 Q750.014 1532.74 746.912 1535.95 Q743.81 1539.15 738.162 1544.91 Z" fill="#000000" fill-rule="nonzero" fill-opacity="1" /><path clip-path="url(#clip380)" d="M764.343 1514.29 L782.699 1514.29 L782.699 1518.22 L768.625 1518.22 L768.625 1526.7 Q769.644 1526.35 770.662 1526.19 Q771.681 1526 772.699 1526 Q778.486 1526 781.866 1529.17 Q785.245 1532.34 785.245 1537.76 Q785.245 1543.34 781.773 1546.44 Q778.301 1549.52 771.982 1549.52 Q769.806 1549.52 767.537 1549.15 Q765.292 1548.78 762.884 1548.04 L762.884 1543.34 Q764.968 1544.47 767.19 1545.03 Q769.412 1545.58 771.889 1545.58 Q775.894 1545.58 778.232 1543.48 Q780.57 1541.37 780.57 1537.76 Q780.57 1534.15 778.232 1532.04 Q775.894 1529.94 771.889 1529.94 Q770.014 1529.94 768.139 1530.35 Q766.287 1530.77 764.343 1531.65 L764.343 1514.29 Z" fill="#000000" fill-rule="nonzero" fill-opacity="1" /><path clip-path="url(#clip380)" d="M1216.56 1517.37 Q1212.95 1517.37 1211.12 1520.93 Q1209.32 1524.47 1209.32 1531.6 Q1209.32 1538.71 1211.12 1542.27 Q1212.95 1545.82 1216.56 1545.82 Q1220.2 1545.82 1222 1542.27 Q1223.83 1538.71 1223.83 1531.6 Q1223.83 1524.47 1222 1520.93 Q1220.2 1517.37 1216.56 1517.37 M1216.56 1513.66 Q1222.37 1513.66 1225.43 1518.27 Q1228.51 1522.85 1228.51 1531.6 Q1228.51 1540.33 1225.43 1544.94 Q1222.37 1549.52 1216.56 1549.52 Q1210.75 1549.52 1207.68 1544.94 Q1204.62 1540.33 1204.62 1531.6 Q1204.62 1522.85 1207.68 1518.27 Q1210.75 1513.66 1216.56 1513.66 Z" fill="#000000" fill-rule="nonzero" fill-opacity="1" /><path clip-path="url(#clip380)" d="M1236.73 1542.97 L1241.61 1542.97 L1241.61 1548.85 L1236.73 1548.85 L1236.73 1542.97 Z" fill="#000000" fill-rule="nonzero" fill-opacity="1" /><path clip-path="url(#clip380)" d="M1251.84 1514.29 L1270.2 1514.29 L1270.2 1518.22 L1256.12 1518.22 L1256.12 1526.7 Q1257.14 1526.35 1258.16 1526.19 Q1259.18 1526 1260.2 1526 Q1265.98 1526 1269.36 1529.17 Q1272.74 1532.34 1272.74 1537.76 Q1272.74 1543.34 1269.27 1546.44 Q1265.8 1549.52 1259.48 1549.52 Q1257.3 1549.52 1255.04 1549.15 Q1252.79 1548.78 1250.38 1548.04 L1250.38 1543.34 Q1252.47 1544.47 1254.69 1545.03 Q1256.91 1545.58 1259.39 1545.58 Q1263.39 1545.58 1265.73 1543.48 Q1268.07 1541.37 1268.07 1537.76 Q1268.07 1534.15 1265.73 1532.04 Q1263.39 1529.94 1259.39 1529.94 Q1257.51 1529.94 1255.64 1530.35 Q1253.79 1530.77 1251.84 1531.65 L1251.84 1514.29 Z" fill="#000000" fill-rule="nonzero" fill-opacity="1" /><path clip-path="url(#clip380)" d="M1291.96 1517.37 Q1288.35 1517.37 1286.52 1520.93 Q1284.71 1524.47 1284.71 1531.6 Q1284.71 1538.71 1286.52 1542.27 Q1288.35 1545.82 1291.96 1545.82 Q1295.59 1545.82 1297.4 1542.27 Q1299.23 1538.71 1299.23 1531.6 Q1299.23 1524.47 1297.4 1520.93 Q1295.59 1517.37 1291.96 1517.37 M1291.96 1513.66 Q1297.77 1513.66 1300.82 1518.27 Q1303.9 1522.85 1303.9 1531.6 Q1303.9 1540.33 1300.82 1544.94 Q1297.77 1549.52 1291.96 1549.52 Q1286.15 1549.52 1283.07 1544.94 Q1280.01 1540.33 1280.01 1531.6 Q1280.01 1522.85 1283.07 1518.27 Q1286.15 1513.66 1291.96 1513.66 Z" fill="#000000" fill-rule="nonzero" fill-opacity="1" /><path clip-path="url(#clip380)" d="M1735.22 1517.37 Q1731.61 1517.37 1729.78 1520.93 Q1727.97 1524.47 1727.97 1531.6 Q1727.97 1538.71 1729.78 1542.27 Q1731.61 1545.82 1735.22 1545.82 Q1738.85 1545.82 1740.66 1542.27 Q1742.49 1538.71 1742.49 1531.6 Q1742.49 1524.47 1740.66 1520.93 Q1738.85 1517.37 1735.22 1517.37 M1735.22 1513.66 Q1741.03 1513.66 1744.09 1518.27 Q1747.16 1522.85 1747.16 1531.6 Q1747.16 1540.33 1744.09 1544.94 Q1741.03 1549.52 1735.22 1549.52 Q1729.41 1549.52 1726.33 1544.94 Q1723.28 1540.33 1723.28 1531.6 Q1723.28 1522.85 1726.33 1518.27 Q1729.41 1513.66 1735.22 1513.66 Z" fill="#000000" fill-rule="nonzero" fill-opacity="1" /><path clip-path="url(#clip380)" d="M1755.38 1542.97 L1760.27 1542.97 L1760.27 1548.85 L1755.38 1548.85 L1755.38 1542.97 Z" fill="#000000" fill-rule="nonzero" fill-opacity="1" /><path clip-path="url(#clip380)" d="M1769.27 1514.29 L1791.49 1514.29 L1791.49 1516.28 L1778.95 1548.85 L1774.06 1548.85 L1785.87 1518.22 L1769.27 1518.22 L1769.27 1514.29 Z" fill="#000000" fill-rule="nonzero" fill-opacity="1" /><path clip-path="url(#clip380)" d="M1800.66 1514.29 L1819.02 1514.29 L1819.02 1518.22 L1804.94 1518.22 L1804.94 1526.7 Q1805.96 1526.35 1806.98 1526.19 Q1808 1526 1809.02 1526 Q1814.8 1526 1818.18 1529.17 Q1821.56 1532.34 1821.56 1537.76 Q1821.56 1543.34 1818.09 1546.44 Q1814.62 1549.52 1808.3 1549.52 Q1806.12 1549.52 1803.85 1549.15 Q1801.61 1548.78 1799.2 1548.04 L1799.2 1543.34 Q1801.28 1544.47 1803.51 1545.03 Q1805.73 1545.58 1808.21 1545.58 Q1812.21 1545.58 1814.55 1543.48 Q1816.89 1541.37 1816.89 1537.76 Q1816.89 1534.15 1814.55 1532.04 Q1812.21 1529.94 1808.21 1529.94 Q1806.33 1529.94 1804.46 1530.35 Q1802.6 1530.77 1800.66 1531.65 L1800.66 1514.29 Z" fill="#000000" fill-rule="nonzero" fill-opacity="1" /><path clip-path="url(#clip380)" d="M2242.65 1544.91 L2250.29 1544.91 L2250.29 1518.55 L2241.98 1520.21 L2241.98 1515.95 L2250.24 1514.29 L2254.92 1514.29 L2254.92 1544.91 L2262.56 1544.91 L2262.56 1548.85 L2242.65 1548.85 L2242.65 1544.91 Z" fill="#000000" fill-rule="nonzero" fill-opacity="1" /><path clip-path="url(#clip380)" d="M2272 1542.97 L2276.88 1542.97 L2276.88 1548.85 L2272 1548.85 L2272 1542.97 Z" fill="#000000" fill-rule="nonzero" fill-opacity="1" /><path clip-path="url(#clip380)" d="M2297.07 1517.37 Q2293.46 1517.37 2291.63 1520.93 Q2289.82 1524.47 2289.82 1531.6 Q2289.82 1538.71 2291.63 1542.27 Q2293.46 1545.82 2297.07 1545.82 Q2300.7 1545.82 2302.51 1542.27 Q2304.34 1538.71 2304.34 1531.6 Q2304.34 1524.47 2302.51 1520.93 Q2300.7 1517.37 2297.07 1517.37 M2297.07 1513.66 Q2302.88 1513.66 2305.94 1518.27 Q2309.01 1522.85 2309.01 1531.6 Q2309.01 1540.33 2305.94 1544.94 Q2302.88 1549.52 2297.07 1549.52 Q2291.26 1549.52 2288.18 1544.94 Q2285.13 1540.33 2285.13 1531.6 Q2285.13 1522.85 2288.18 1518.27 Q2291.26 1513.66 2297.07 1513.66 Z" fill="#000000" fill-rule="nonzero" fill-opacity="1" /><path clip-path="url(#clip380)" d="M2327.23 1517.37 Q2323.62 1517.37 2321.79 1520.93 Q2319.99 1524.47 2319.99 1531.6 Q2319.99 1538.71 2321.79 1542.27 Q2323.62 1545.82 2327.23 1545.82 Q2330.87 1545.82 2332.67 1542.27 Q2334.5 1538.71 2334.5 1531.6 Q2334.5 1524.47 2332.67 1520.93 Q2330.87 1517.37 2327.23 1517.37 M2327.23 1513.66 Q2333.04 1513.66 2336.1 1518.27 Q2339.18 1522.85 2339.18 1531.6 Q2339.18 1540.33 2336.1 1544.94 Q2333.04 1549.52 2327.23 1549.52 Q2321.42 1549.52 2318.34 1544.94 Q2315.29 1540.33 2315.29 1531.6 Q2315.29 1522.85 2318.34 1518.27 Q2321.42 1513.66 2327.23 1513.66 Z" fill="#000000" fill-rule="nonzero" fill-opacity="1" /><polyline clip-path="url(#clip380)" style="stroke:#000000; stroke-linecap:round; stroke-linejoin:round; stroke-width:4; stroke-opacity:1; fill:none" points="155.765,1486.45 155.765,47.2441 "/>
<polyline clip-path="url(#clip380)" style="stroke:#000000; stroke-linecap:round; stroke-linejoin:round; stroke-width:4; stroke-opacity:1; fill:none" points="155.765,1340.05 174.663,1340.05 "/>
<polyline clip-path="url(#clip380)" style="stroke:#000000; stroke-linecap:round; stroke-linejoin:round; stroke-width:4; stroke-opacity:1; fill:none" points="155.765,1149.97 174.663,1149.97 "/>
<polyline clip-path="url(#clip380)" style="stroke:#000000; stroke-linecap:round; stroke-linejoin:round; stroke-width:4; stroke-opacity:1; fill:none" points="155.765,959.885 174.663,959.885 "/>
<polyline clip-path="url(#clip380)" style="stroke:#000000; stroke-linecap:round; stroke-linejoin:round; stroke-width:4; stroke-opacity:1; fill:none" points="155.765,769.803 174.663,769.803 "/>
<polyline clip-path="url(#clip380)" style="stroke:#000000; stroke-linecap:round; stroke-linejoin:round; stroke-width:4; stroke-opacity:1; fill:none" points="155.765,579.721 174.663,579.721 "/>
<polyline clip-path="url(#clip380)" style="stroke:#000000; stroke-linecap:round; stroke-linejoin:round; stroke-width:4; stroke-opacity:1; fill:none" points="155.765,389.639 174.663,389.639 "/>
<polyline clip-path="url(#clip380)" style="stroke:#000000; stroke-linecap:round; stroke-linejoin:round; stroke-width:4; stroke-opacity:1; fill:none" points="155.765,199.558 174.663,199.558 "/>
<path clip-path="url(#clip380)" d="M63.5847 1325.85 Q59.9736 1325.85 58.1449 1329.41 Q56.3393 1332.95 56.3393 1340.08 Q56.3393 1347.19 58.1449 1350.75 Q59.9736 1354.3 63.5847 1354.3 Q67.2189 1354.3 69.0244 1350.75 Q70.8531 1347.19 70.8531 1340.08 Q70.8531 1332.95 69.0244 1329.41 Q67.2189 1325.85 63.5847 1325.85 M63.5847 1322.14 Q69.3948 1322.14 72.4503 1326.75 Q75.529 1331.33 75.529 1340.08 Q75.529 1348.81 72.4503 1353.42 Q69.3948 1358 63.5847 1358 Q57.7745 1358 54.6958 1353.42 Q51.6403 1348.81 51.6403 1340.08 Q51.6403 1331.33 54.6958 1326.75 Q57.7745 1322.14 63.5847 1322.14 Z" fill="#000000" fill-rule="nonzero" fill-opacity="1" /><path clip-path="url(#clip380)" d="M83.7466 1351.45 L88.6308 1351.45 L88.6308 1357.33 L83.7466 1357.33 L83.7466 1351.45 Z" fill="#000000" fill-rule="nonzero" fill-opacity="1" /><path clip-path="url(#clip380)" d="M98.8622 1322.77 L117.219 1322.77 L117.219 1326.7 L103.145 1326.7 L103.145 1335.18 Q104.163 1334.83 105.182 1334.67 Q106.2 1334.48 107.219 1334.48 Q113.006 1334.48 116.385 1337.65 Q119.765 1340.82 119.765 1346.24 Q119.765 1351.82 116.293 1354.92 Q112.82 1358 106.501 1358 Q104.325 1358 102.057 1357.63 Q99.8113 1357.26 97.4039 1356.52 L97.4039 1351.82 Q99.4872 1352.95 101.709 1353.51 Q103.932 1354.06 106.408 1354.06 Q110.413 1354.06 112.751 1351.96 Q115.089 1349.85 115.089 1346.24 Q115.089 1342.63 112.751 1340.52 Q110.413 1338.42 106.408 1338.42 Q104.534 1338.42 102.659 1338.83 Q100.807 1339.25 98.8622 1340.13 L98.8622 1322.77 Z" fill="#000000" fill-rule="nonzero" fill-opacity="1" /><path clip-path="url(#clip380)" d="M53.3995 1163.31 L61.0384 1163.31 L61.0384 1136.95 L52.7282 1138.61 L52.7282 1134.35 L60.9921 1132.69 L65.668 1132.69 L65.668 1163.31 L73.3068 1163.31 L73.3068 1167.25 L53.3995 1167.25 L53.3995 1163.31 Z" fill="#000000" fill-rule="nonzero" fill-opacity="1" /><path clip-path="url(#clip380)" d="M82.7512 1161.37 L87.6354 1161.37 L87.6354 1167.25 L82.7512 1167.25 L82.7512 1161.37 Z" fill="#000000" fill-rule="nonzero" fill-opacity="1" /><path clip-path="url(#clip380)" d="M107.821 1135.77 Q104.209 1135.77 102.381 1139.33 Q100.575 1142.87 100.575 1150 Q100.575 1157.11 102.381 1160.67 Q104.209 1164.21 107.821 1164.21 Q111.455 1164.21 113.26 1160.67 Q115.089 1157.11 115.089 1150 Q115.089 1142.87 113.26 1139.33 Q111.455 1135.77 107.821 1135.77 M107.821 1132.06 Q113.631 1132.06 116.686 1136.67 Q119.765 1141.25 119.765 1150 Q119.765 1158.73 116.686 1163.33 Q113.631 1167.92 107.821 1167.92 Q102.01 1167.92 98.9317 1163.33 Q95.8761 1158.73 95.8761 1150 Q95.8761 1141.25 98.9317 1136.67 Q102.01 1132.06 107.821 1132.06 Z" fill="#000000" fill-rule="nonzero" fill-opacity="1" /><path clip-path="url(#clip380)" d="M54.3949 973.23 L62.0337 973.23 L62.0337 946.864 L53.7236 948.531 L53.7236 944.272 L61.9874 942.605 L66.6633 942.605 L66.6633 973.23 L74.3022 973.23 L74.3022 977.165 L54.3949 977.165 L54.3949 973.23 Z" fill="#000000" fill-rule="nonzero" fill-opacity="1" /><path clip-path="url(#clip380)" d="M83.7466 971.285 L88.6308 971.285 L88.6308 977.165 L83.7466 977.165 L83.7466 971.285 Z" fill="#000000" fill-rule="nonzero" fill-opacity="1" /><path clip-path="url(#clip380)" d="M98.8622 942.605 L117.219 942.605 L117.219 946.54 L103.145 946.54 L103.145 955.012 Q104.163 954.665 105.182 954.503 Q106.2 954.318 107.219 954.318 Q113.006 954.318 116.385 957.489 Q119.765 960.66 119.765 966.077 Q119.765 971.656 116.293 974.758 Q112.82 977.836 106.501 977.836 Q104.325 977.836 102.057 977.466 Q99.8113 977.096 97.4039 976.355 L97.4039 971.656 Q99.4872 972.79 101.709 973.346 Q103.932 973.901 106.408 973.901 Q110.413 973.901 112.751 971.795 Q115.089 969.688 115.089 966.077 Q115.089 962.466 112.751 960.36 Q110.413 958.253 106.408 958.253 Q104.534 958.253 102.659 958.67 Q100.807 959.086 98.8622 959.966 L98.8622 942.605 Z" fill="#000000" fill-rule="nonzero" fill-opacity="1" /><path clip-path="url(#clip380)" d="M56.6171 783.148 L72.9365 783.148 L72.9365 787.083 L50.9921 787.083 L50.9921 783.148 Q53.6541 780.393 58.2375 775.764 Q62.8439 771.111 64.0245 769.768 Q66.2698 767.245 67.1494 765.509 Q68.0522 763.75 68.0522 762.06 Q68.0522 759.306 66.1078 757.569 Q64.1865 755.833 61.0847 755.833 Q58.8856 755.833 56.4319 756.597 Q54.0014 757.361 51.2236 758.912 L51.2236 754.19 Q54.0477 753.056 56.5014 752.477 Q58.955 751.898 60.9921 751.898 Q66.3624 751.898 69.5568 754.583 Q72.7513 757.269 72.7513 761.759 Q72.7513 763.889 71.9411 765.81 Q71.1541 767.708 69.0476 770.301 Q68.4689 770.972 65.367 774.19 Q62.2652 777.384 56.6171 783.148 Z" fill="#000000" fill-rule="nonzero" fill-opacity="1" /><path clip-path="url(#clip380)" d="M82.7512 781.204 L87.6354 781.204 L87.6354 787.083 L82.7512 787.083 L82.7512 781.204 Z" fill="#000000" fill-rule="nonzero" fill-opacity="1" /><path clip-path="url(#clip380)" d="M107.821 755.602 Q104.209 755.602 102.381 759.167 Q100.575 762.708 100.575 769.838 Q100.575 776.944 102.381 780.509 Q104.209 784.051 107.821 784.051 Q111.455 784.051 113.26 780.509 Q115.089 776.944 115.089 769.838 Q115.089 762.708 113.26 759.167 Q111.455 755.602 107.821 755.602 M107.821 751.898 Q113.631 751.898 116.686 756.505 Q119.765 761.088 119.765 769.838 Q119.765 778.565 116.686 783.171 Q113.631 787.754 107.821 787.754 Q102.01 787.754 98.9317 783.171 Q95.8761 778.565 95.8761 769.838 Q95.8761 761.088 98.9317 756.505 Q102.01 751.898 107.821 751.898 Z" fill="#000000" fill-rule="nonzero" fill-opacity="1" /><path clip-path="url(#clip380)" d="M57.6125 593.066 L73.9318 593.066 L73.9318 597.001 L51.9875 597.001 L51.9875 593.066 Q54.6495 590.312 59.2328 585.682 Q63.8393 581.029 65.0198 579.687 Q67.2652 577.163 68.1448 575.427 Q69.0476 573.668 69.0476 571.978 Q69.0476 569.224 67.1032 567.488 Q65.1819 565.751 62.08 565.751 Q59.881 565.751 57.4273 566.515 Q54.9967 567.279 52.219 568.83 L52.219 564.108 Q55.043 562.974 57.4967 562.395 Q59.9504 561.816 61.9874 561.816 Q67.3578 561.816 70.5522 564.501 Q73.7466 567.187 73.7466 571.677 Q73.7466 573.807 72.9365 575.728 Q72.1494 577.626 70.0429 580.219 Q69.4642 580.89 66.3624 584.108 Q63.2606 587.302 57.6125 593.066 Z" fill="#000000" fill-rule="nonzero" fill-opacity="1" /><path clip-path="url(#clip380)" d="M83.7466 591.122 L88.6308 591.122 L88.6308 597.001 L83.7466 597.001 L83.7466 591.122 Z" fill="#000000" fill-rule="nonzero" fill-opacity="1" /><path clip-path="url(#clip380)" d="M98.8622 562.441 L117.219 562.441 L117.219 566.376 L103.145 566.376 L103.145 574.849 Q104.163 574.501 105.182 574.339 Q106.2 574.154 107.219 574.154 Q113.006 574.154 116.385 577.325 Q119.765 580.497 119.765 585.913 Q119.765 591.492 116.293 594.594 Q112.82 597.673 106.501 597.673 Q104.325 597.673 102.057 597.302 Q99.8113 596.932 97.4039 596.191 L97.4039 591.492 Q99.4872 592.626 101.709 593.182 Q103.932 593.737 106.408 593.737 Q110.413 593.737 112.751 591.631 Q115.089 589.524 115.089 585.913 Q115.089 582.302 112.751 580.196 Q110.413 578.089 106.408 578.089 Q104.534 578.089 102.659 578.506 Q100.807 578.923 98.8622 579.802 L98.8622 562.441 Z" fill="#000000" fill-rule="nonzero" fill-opacity="1" /><path clip-path="url(#clip380)" d="M66.7559 388.285 Q70.1124 389.003 71.9874 391.271 Q73.8855 393.54 73.8855 396.873 Q73.8855 401.989 70.367 404.79 Q66.8485 407.591 60.3671 407.591 Q58.1912 407.591 55.8764 407.151 Q53.5847 406.734 51.131 405.878 L51.131 401.364 Q53.0754 402.498 55.3903 403.077 Q57.7051 403.656 60.2282 403.656 Q64.6263 403.656 66.918 401.919 Q69.2328 400.183 69.2328 396.873 Q69.2328 393.818 67.08 392.105 Q64.9504 390.369 61.131 390.369 L57.1032 390.369 L57.1032 386.526 L61.3161 386.526 Q64.7652 386.526 66.5939 385.16 Q68.4226 383.771 68.4226 381.179 Q68.4226 378.517 66.5245 377.105 Q64.6495 375.67 61.131 375.67 Q59.2097 375.67 57.0106 376.086 Q54.8115 376.503 52.1727 377.383 L52.1727 373.216 Q54.8347 372.475 57.1495 372.105 Q59.4875 371.734 61.5476 371.734 Q66.8717 371.734 69.9735 374.165 Q73.0753 376.572 73.0753 380.693 Q73.0753 383.563 71.4318 385.554 Q69.7883 387.521 66.7559 388.285 Z" fill="#000000" fill-rule="nonzero" fill-opacity="1" /><path clip-path="url(#clip380)" d="M82.7512 401.04 L87.6354 401.04 L87.6354 406.919 L82.7512 406.919 L82.7512 401.04 Z" fill="#000000" fill-rule="nonzero" fill-opacity="1" /><path clip-path="url(#clip380)" d="M107.821 375.438 Q104.209 375.438 102.381 379.003 Q100.575 382.545 100.575 389.674 Q100.575 396.781 102.381 400.345 Q104.209 403.887 107.821 403.887 Q111.455 403.887 113.26 400.345 Q115.089 396.781 115.089 389.674 Q115.089 382.545 113.26 379.003 Q111.455 375.438 107.821 375.438 M107.821 371.734 Q113.631 371.734 116.686 376.341 Q119.765 380.924 119.765 389.674 Q119.765 398.401 116.686 403.007 Q113.631 407.591 107.821 407.591 Q102.01 407.591 98.9317 403.007 Q95.8761 398.401 95.8761 389.674 Q95.8761 380.924 98.9317 376.341 Q102.01 371.734 107.821 371.734 Z" fill="#000000" fill-rule="nonzero" fill-opacity="1" /><path clip-path="url(#clip380)" d="M67.7513 198.203 Q71.1078 198.921 72.9827 201.19 Q74.8809 203.458 74.8809 206.791 Q74.8809 211.907 71.3624 214.708 Q67.8439 217.509 61.3624 217.509 Q59.1865 217.509 56.8717 217.069 Q54.5801 216.652 52.1264 215.796 L52.1264 211.282 Q54.0708 212.416 56.3856 212.995 Q58.7004 213.574 61.2236 213.574 Q65.6217 213.574 67.9133 211.838 Q70.2281 210.101 70.2281 206.791 Q70.2281 203.736 68.0754 202.023 Q65.9457 200.287 62.1263 200.287 L58.0986 200.287 L58.0986 196.444 L62.3115 196.444 Q65.7606 196.444 67.5893 195.078 Q69.418 193.69 69.418 191.097 Q69.418 188.435 67.5198 187.023 Q65.6448 185.588 62.1263 185.588 Q60.205 185.588 58.006 186.004 Q55.8069 186.421 53.168 187.301 L53.168 183.134 Q55.8301 182.393 58.1449 182.023 Q60.4828 181.653 62.543 181.653 Q67.867 181.653 70.9689 184.083 Q74.0707 186.491 74.0707 190.611 Q74.0707 193.481 72.4272 195.472 Q70.7837 197.44 67.7513 198.203 Z" fill="#000000" fill-rule="nonzero" fill-opacity="1" /><path clip-path="url(#clip380)" d="M83.7466 210.958 L88.6308 210.958 L88.6308 216.838 L83.7466 216.838 L83.7466 210.958 Z" fill="#000000" fill-rule="nonzero" fill-opacity="1" /><path clip-path="url(#clip380)" d="M98.8622 182.278 L117.219 182.278 L117.219 186.213 L103.145 186.213 L103.145 194.685 Q104.163 194.338 105.182 194.176 Q106.2 193.99 107.219 193.99 Q113.006 193.99 116.385 197.162 Q119.765 200.333 119.765 205.75 Q119.765 211.328 116.293 214.43 Q112.82 217.509 106.501 217.509 Q104.325 217.509 102.057 217.138 Q99.8113 216.768 97.4039 216.027 L97.4039 211.328 Q99.4872 212.463 101.709 213.018 Q103.932 213.574 106.408 213.574 Q110.413 213.574 112.751 211.467 Q115.089 209.361 115.089 205.75 Q115.089 202.139 112.751 200.032 Q110.413 197.926 106.408 197.926 Q104.534 197.926 102.659 198.342 Q100.807 198.759 98.8622 199.639 L98.8622 182.278 Z" fill="#000000" fill-rule="nonzero" fill-opacity="1" /><path clip-path="url(#clip381)" d="M217.944 1340.05 L425.207 1394.89 L632.47 1414.94 L839.734 1429.31 L1047 1436.13 L1254.26 1445.72 L1461.52 1443.7 L1668.79 1445.44 L1876.05 1441.84 L2083.31 1435.33 L2290.58 1439.86 L2290.58 87.9763 L2083.31 480.108 L1876.05 659.486 L1668.79 786.918 L1461.52 977.11 L1254.26 1110.72 L1047 1101.82 L839.734 1202.45 L632.47 1249.6 L425.207 1279.51 L217.944 1340.05  Z" fill="#009af9" fill-rule="evenodd" fill-opacity="0.2"/>
<polyline clip-path="url(#clip381)" style="stroke:#009af9; stroke-linecap:round; stroke-linejoin:round; stroke-width:12; stroke-opacity:1; fill:none" points="217.944,1340.05 425.207,1331.44 632.47,1321.22 839.734,1280.92 1047,1301.51 1254.26,1303.17 1461.52,1266.43 1668.79,1238.16 1876.05,1210.58 2083.31,1146.78 2290.58,980.611 "/>
</svg>
