<?xml version="1.0" encoding="utf-8"?>
<svg xmlns="http://www.w3.org/2000/svg" xmlns:xlink="http://www.w3.org/1999/xlink" width="600" height="400" viewBox="0 0 2400 1600">
<defs>
  <clipPath id="clip520">
    <rect x="0" y="0" width="2400" height="1600"/>
  </clipPath>
</defs>
<path clip-path="url(#clip520)" d="M0 1600 L2400 1600 L2400 0 L0 0  Z" fill="#ffffff" fill-rule="evenodd" fill-opacity="1"/>
<defs>
  <clipPath id="clip521">
    <rect x="112" y="47" width="2242" height="1440"/>
  </clipPath>
</defs>
<path clip-path="url(#clip520)" d="M112.177 1486.45 L2352.76 1486.45 L2352.76 47.2441 L112.177 47.2441  Z" fill="#ffffff" fill-rule="evenodd" fill-opacity="1"/>
<polyline clip-path="url(#clip521)" style="stroke:#000000; stroke-linecap:round; stroke-linejoin:round; stroke-width:2; stroke-opacity:0.1; fill:none" points="175.59,1486.45 175.59,47.2441 "/>
<polyline clip-path="url(#clip521)" style="stroke:#000000; stroke-linecap:round; stroke-linejoin:round; stroke-width:2; stroke-opacity:0.1; fill:none" points="704.028,1486.45 704.028,47.2441 "/>
<polyline clip-path="url(#clip521)" style="stroke:#000000; stroke-linecap:round; stroke-linejoin:round; stroke-width:2; stroke-opacity:0.1; fill:none" points="1232.47,1486.45 1232.47,47.2441 "/>
<polyline clip-path="url(#clip521)" style="stroke:#000000; stroke-linecap:round; stroke-linejoin:round; stroke-width:2; stroke-opacity:0.1; fill:none" points="1760.9,1486.45 1760.9,47.2441 "/>
<polyline clip-path="url(#clip521)" style="stroke:#000000; stroke-linecap:round; stroke-linejoin:round; stroke-width:2; stroke-opacity:0.1; fill:none" points="2289.34,1486.45 2289.34,47.2441 "/>
<polyline clip-path="url(#clip521)" style="stroke:#000000; stroke-linecap:round; stroke-linejoin:round; stroke-width:2; stroke-opacity:0.1; fill:none" points="112.177,1460.35 2352.76,1460.35 "/>
<polyline clip-path="url(#clip521)" style="stroke:#000000; stroke-linecap:round; stroke-linejoin:round; stroke-width:2; stroke-opacity:0.1; fill:none" points="112.177,1173.23 2352.76,1173.23 "/>
<polyline clip-path="url(#clip521)" style="stroke:#000000; stroke-linecap:round; stroke-linejoin:round; stroke-width:2; stroke-opacity:0.1; fill:none" points="112.177,886.107 2352.76,886.107 "/>
<polyline clip-path="url(#clip521)" style="stroke:#000000; stroke-linecap:round; stroke-linejoin:round; stroke-width:2; stroke-opacity:0.1; fill:none" points="112.177,598.985 2352.76,598.985 "/>
<polyline clip-path="url(#clip521)" style="stroke:#000000; stroke-linecap:round; stroke-linejoin:round; stroke-width:2; stroke-opacity:0.1; fill:none" points="112.177,311.863 2352.76,311.863 "/>
<polyline clip-path="url(#clip520)" style="stroke:#000000; stroke-linecap:round; stroke-linejoin:round; stroke-width:4; stroke-opacity:1; fill:none" points="112.177,1486.45 2352.76,1486.45 "/>
<polyline clip-path="url(#clip520)" style="stroke:#000000; stroke-linecap:round; stroke-linejoin:round; stroke-width:4; stroke-opacity:1; fill:none" points="175.59,1486.45 175.59,1467.55 "/>
<polyline clip-path="url(#clip520)" style="stroke:#000000; stroke-linecap:round; stroke-linejoin:round; stroke-width:4; stroke-opacity:1; fill:none" points="704.028,1486.45 704.028,1467.55 "/>
<polyline clip-path="url(#clip520)" style="stroke:#000000; stroke-linecap:round; stroke-linejoin:round; stroke-width:4; stroke-opacity:1; fill:none" points="1232.47,1486.45 1232.47,1467.55 "/>
<polyline clip-path="url(#clip520)" style="stroke:#000000; stroke-linecap:round; stroke-linejoin:round; stroke-width:4; stroke-opacity:1; fill:none" points="1760.9,1486.45 1760.9,1467.55 "/>
<polyline clip-path="url(#clip520)" style="stroke:#000000; stroke-linecap:round; stroke-linejoin:round; stroke-width:4; stroke-opacity:1; fill:none" points="2289.34,1486.45 2289.34,1467.55 "/>
<path clip-path="url(#clip520)" d="M152.974 1517.37 Q149.363 1517.37 147.534 1520.93 Q145.729 1524.47 145.729 1531.6 Q145.729 1538.71 147.534 1542.27 Q149.363 1545.82 152.974 1545.82 Q156.608 1545.82 158.414 1542.27 Q160.243 1538.71 160.243 1531.6 Q160.243 1524.47 158.414 1520.93 Q156.608 1517.37 152.974 1517.37 M152.974 1513.66 Q158.784 1513.66 161.84 1518.27 Q164.919 1522.85 164.919 1531.6 Q164.919 1540.33 161.84 1544.94 Q158.784 1549.52 152.974 1549.52 Q147.164 1549.52 144.085 1544.94 Q141.03 1540.33 141.03 1531.6 Q141.03 1522.85 144.085 1518.27 Q147.164 1513.66 152.974 1513.66 Z" fill="#000000" fill-rule="nonzero" fill-opacity="1" /><path clip-path="url(#clip520)" d="M173.136 1542.97 L178.02 1542.97 L178.02 1548.85 L173.136 1548.85 L173.136 1542.97 Z" fill="#000000" fill-rule="nonzero" fill-opacity="1" /><path clip-path="url(#clip520)" d="M198.205 1517.37 Q194.594 1517.37 192.766 1520.93 Q190.96 1524.47 190.96 1531.6 Q190.96 1538.71 192.766 1542.27 Q194.594 1545.82 198.205 1545.82 Q201.84 1545.82 203.645 1542.27 Q205.474 1538.71 205.474 1531.6 Q205.474 1524.47 203.645 1520.93 Q201.84 1517.37 198.205 1517.37 M198.205 1513.66 Q204.016 1513.66 207.071 1518.27 Q210.15 1522.85 210.15 1531.6 Q210.15 1540.33 207.071 1544.94 Q204.016 1549.52 198.205 1549.52 Q192.395 1549.52 189.317 1544.94 Q186.261 1540.33 186.261 1531.6 Q186.261 1522.85 189.317 1518.27 Q192.395 1513.66 198.205 1513.66 Z" fill="#000000" fill-rule="nonzero" fill-opacity="1" /><path clip-path="url(#clip520)" d="M675.764 1544.91 L692.084 1544.91 L692.084 1548.85 L670.139 1548.85 L670.139 1544.91 Q672.801 1542.16 677.385 1537.53 Q681.991 1532.88 683.172 1531.53 Q685.417 1529.01 686.297 1527.27 Q687.2 1525.51 687.2 1523.82 Q687.2 1521.07 685.255 1519.33 Q683.334 1517.6 680.232 1517.6 Q678.033 1517.6 675.579 1518.36 Q673.149 1519.13 670.371 1520.68 L670.371 1515.95 Q673.195 1514.82 675.649 1514.24 Q678.102 1513.66 680.139 1513.66 Q685.51 1513.66 688.704 1516.35 Q691.899 1519.03 691.899 1523.52 Q691.899 1525.65 691.088 1527.57 Q690.301 1529.47 688.195 1532.07 Q687.616 1532.74 684.514 1535.95 Q681.413 1539.15 675.764 1544.91 Z" fill="#000000" fill-rule="nonzero" fill-opacity="1" /><path clip-path="url(#clip520)" d="M701.899 1542.97 L706.783 1542.97 L706.783 1548.85 L701.899 1548.85 L701.899 1542.97 Z" fill="#000000" fill-rule="nonzero" fill-opacity="1" /><path clip-path="url(#clip520)" d="M717.014 1514.29 L735.371 1514.29 L735.371 1518.22 L721.297 1518.22 L721.297 1526.7 Q722.315 1526.35 723.334 1526.19 Q724.352 1526 725.371 1526 Q731.158 1526 734.537 1529.17 Q737.917 1532.34 737.917 1537.76 Q737.917 1543.34 734.445 1546.44 Q730.972 1549.52 724.653 1549.52 Q722.477 1549.52 720.209 1549.15 Q717.963 1548.78 715.556 1548.04 L715.556 1543.34 Q717.639 1544.47 719.861 1545.03 Q722.084 1545.58 724.56 1545.58 Q728.565 1545.58 730.903 1543.48 Q733.241 1541.37 733.241 1537.76 Q733.241 1534.15 730.903 1532.04 Q728.565 1529.94 724.56 1529.94 Q722.685 1529.94 720.81 1530.35 Q718.959 1530.77 717.014 1531.65 L717.014 1514.29 Z" fill="#000000" fill-rule="nonzero" fill-opacity="1" /><path clip-path="url(#clip520)" d="M1199.63 1514.29 L1217.99 1514.29 L1217.99 1518.22 L1203.91 1518.22 L1203.91 1526.7 Q1204.93 1526.35 1205.95 1526.19 Q1206.97 1526 1207.99 1526 Q1213.77 1526 1217.15 1529.17 Q1220.53 1532.34 1220.53 1537.76 Q1220.53 1543.34 1217.06 1546.44 Q1213.59 1549.52 1207.27 1549.52 Q1205.09 1549.52 1202.83 1549.15 Q1200.58 1548.78 1198.17 1548.04 L1198.17 1543.34 Q1200.26 1544.47 1202.48 1545.03 Q1204.7 1545.58 1207.18 1545.58 Q1211.18 1545.58 1213.52 1543.48 Q1215.86 1541.37 1215.86 1537.76 Q1215.86 1534.15 1213.52 1532.04 Q1211.18 1529.94 1207.18 1529.94 Q1205.3 1529.94 1203.43 1530.35 Q1201.58 1530.77 1199.63 1531.65 L1199.63 1514.29 Z" fill="#000000" fill-rule="nonzero" fill-opacity="1" /><path clip-path="url(#clip520)" d="M1229.75 1542.97 L1234.63 1542.97 L1234.63 1548.85 L1229.75 1548.85 L1229.75 1542.97 Z" fill="#000000" fill-rule="nonzero" fill-opacity="1" /><path clip-path="url(#clip520)" d="M1254.82 1517.37 Q1251.2 1517.37 1249.38 1520.93 Q1247.57 1524.47 1247.57 1531.6 Q1247.57 1538.71 1249.38 1542.27 Q1251.2 1545.82 1254.82 1545.82 Q1258.45 1545.82 1260.26 1542.27 Q1262.08 1538.71 1262.08 1531.6 Q1262.08 1524.47 1260.26 1520.93 Q1258.45 1517.37 1254.82 1517.37 M1254.82 1513.66 Q1260.63 1513.66 1263.68 1518.27 Q1266.76 1522.85 1266.76 1531.6 Q1266.76 1540.33 1263.68 1544.94 Q1260.63 1549.52 1254.82 1549.52 Q1249.01 1549.52 1245.93 1544.94 Q1242.87 1540.33 1242.87 1531.6 Q1242.87 1522.85 1245.93 1518.27 Q1249.01 1513.66 1254.82 1513.66 Z" fill="#000000" fill-rule="nonzero" fill-opacity="1" /><path clip-path="url(#clip520)" d="M1727.22 1514.29 L1749.45 1514.29 L1749.45 1516.28 L1736.9 1548.85 L1732.02 1548.85 L1743.82 1518.22 L1727.22 1518.22 L1727.22 1514.29 Z" fill="#000000" fill-rule="nonzero" fill-opacity="1" /><path clip-path="url(#clip520)" d="M1758.57 1542.97 L1763.45 1542.97 L1763.45 1548.85 L1758.57 1548.85 L1758.57 1542.97 Z" fill="#000000" fill-rule="nonzero" fill-opacity="1" /><path clip-path="url(#clip520)" d="M1773.68 1514.29 L1792.04 1514.29 L1792.04 1518.22 L1777.97 1518.22 L1777.97 1526.7 Q1778.98 1526.35 1780 1526.19 Q1781.02 1526 1782.04 1526 Q1787.83 1526 1791.21 1529.17 Q1794.59 1532.34 1794.59 1537.76 Q1794.59 1543.34 1791.11 1546.44 Q1787.64 1549.52 1781.32 1549.52 Q1779.15 1549.52 1776.88 1549.15 Q1774.63 1548.78 1772.22 1548.04 L1772.22 1543.34 Q1774.31 1544.47 1776.53 1545.03 Q1778.75 1545.58 1781.23 1545.58 Q1785.23 1545.58 1787.57 1543.48 Q1789.91 1541.37 1789.91 1537.76 Q1789.91 1534.15 1787.57 1532.04 Q1785.23 1529.94 1781.23 1529.94 Q1779.35 1529.94 1777.48 1530.35 Q1775.63 1530.77 1773.68 1531.65 L1773.68 1514.29 Z" fill="#000000" fill-rule="nonzero" fill-opacity="1" /><path clip-path="url(#clip520)" d="M2241.42 1544.91 L2249.05 1544.91 L2249.05 1518.55 L2240.74 1520.21 L2240.74 1515.95 L2249.01 1514.29 L2253.68 1514.29 L2253.68 1544.91 L2261.32 1544.91 L2261.32 1548.85 L2241.42 1548.85 L2241.42 1544.91 Z" fill="#000000" fill-rule="nonzero" fill-opacity="1" /><path clip-path="url(#clip520)" d="M2280.77 1517.37 Q2277.16 1517.37 2275.33 1520.93 Q2273.52 1524.47 2273.52 1531.6 Q2273.52 1538.71 2275.33 1542.27 Q2277.16 1545.82 2280.77 1545.82 Q2284.4 1545.82 2286.21 1542.27 Q2288.04 1538.71 2288.04 1531.6 Q2288.04 1524.47 2286.21 1520.93 Q2284.4 1517.37 2280.77 1517.37 M2280.77 1513.66 Q2286.58 1513.66 2289.63 1518.27 Q2292.71 1522.85 2292.71 1531.6 Q2292.71 1540.33 2289.63 1544.94 Q2286.58 1549.52 2280.77 1549.52 Q2274.96 1549.52 2271.88 1544.94 Q2268.82 1540.33 2268.82 1531.6 Q2268.82 1522.85 2271.88 1518.27 Q2274.96 1513.66 2280.77 1513.66 Z" fill="#000000" fill-rule="nonzero" fill-opacity="1" /><path clip-path="url(#clip520)" d="M2300.93 1542.97 L2305.81 1542.97 L2305.81 1548.85 L2300.93 1548.85 L2300.93 1542.97 Z" fill="#000000" fill-rule="nonzero" fill-opacity="1" /><path clip-path="url(#clip520)" d="M2326 1517.37 Q2322.39 1517.37 2320.56 1520.93 Q2318.75 1524.47 2318.75 1531.6 Q2318.75 1538.71 2320.56 1542.27 Q2322.39 1545.82 2326 1545.82 Q2329.63 1545.82 2331.44 1542.27 Q2333.27 1538.71 2333.27 1531.6 Q2333.27 1524.47 2331.44 1520.93 Q2329.63 1517.37 2326 1517.37 M2326 1513.66 Q2331.81 1513.66 2334.86 1518.27 Q2337.94 1522.85 2337.94 1531.6 Q2337.94 1540.33 2334.86 1544.94 Q2331.81 1549.52 2326 1549.52 Q2320.19 1549.52 2317.11 1544.94 Q2314.05 1540.33 2314.05 1531.6 Q2314.05 1522.85 2317.11 1518.27 Q2320.19 1513.66 2326 1513.66 Z" fill="#000000" fill-rule="nonzero" fill-opacity="1" /><polyline clip-path="url(#clip520)" style="stroke:#000000; stroke-linecap:round; stroke-linejoin:round; stroke-width:4; stroke-opacity:1; fill:none" points="112.177,1486.45 112.177,47.2441 "/>
<polyline clip-path="url(#clip520)" style="stroke:#000000; stroke-linecap:round; stroke-linejoin:round; stroke-width:4; stroke-opacity:1; fill:none" points="112.177,1460.35 131.075,1460.35 "/>
<polyline clip-path="url(#clip520)" style="stroke:#000000; stroke-linecap:round; stroke-linejoin:round; stroke-width:4; stroke-opacity:1; fill:none" points="112.177,1173.23 131.075,1173.23 "/>
<polyline clip-path="url(#clip520)" style="stroke:#000000; stroke-linecap:round; stroke-linejoin:round; stroke-width:4; stroke-opacity:1; fill:none" points="112.177,886.107 131.075,886.107 "/>
<polyline clip-path="url(#clip520)" style="stroke:#000000; stroke-linecap:round; stroke-linejoin:round; stroke-width:4; stroke-opacity:1; fill:none" points="112.177,598.985 131.075,598.985 "/>
<polyline clip-path="url(#clip520)" style="stroke:#000000; stroke-linecap:round; stroke-linejoin:round; stroke-width:4; stroke-opacity:1; fill:none" points="112.177,311.863 131.075,311.863 "/>
<path clip-path="url(#clip520)" d="M64.2328 1446.15 Q60.6217 1446.15 58.793 1449.71 Q56.9875 1453.26 56.9875 1460.39 Q56.9875 1467.49 58.793 1471.06 Q60.6217 1474.6 64.2328 1474.6 Q67.867 1474.6 69.6726 1471.06 Q71.5013 1467.49 71.5013 1460.39 Q71.5013 1453.26 69.6726 1449.71 Q67.867 1446.15 64.2328 1446.15 M64.2328 1442.45 Q70.0429 1442.45 73.0985 1447.05 Q76.1772 1451.64 76.1772 1460.39 Q76.1772 1469.11 73.0985 1473.72 Q70.0429 1478.3 64.2328 1478.3 Q58.4226 1478.3 55.344 1473.72 Q52.2884 1469.11 52.2884 1460.39 Q52.2884 1451.64 55.344 1447.05 Q58.4226 1442.45 64.2328 1442.45 Z" fill="#000000" fill-rule="nonzero" fill-opacity="1" /><path clip-path="url(#clip520)" d="M59.8578 1186.57 L76.1772 1186.57 L76.1772 1190.51 L54.2328 1190.51 L54.2328 1186.57 Q56.8949 1183.82 61.4782 1179.19 Q66.0846 1174.54 67.2652 1173.19 Q69.5105 1170.67 70.3902 1168.93 Q71.2929 1167.18 71.2929 1165.49 Q71.2929 1162.73 69.3485 1160.99 Q67.4272 1159.26 64.3254 1159.26 Q62.1263 1159.26 59.6726 1160.02 Q57.2421 1160.79 54.4643 1162.34 L54.4643 1157.62 Q57.2884 1156.48 59.7421 1155.9 Q62.1958 1155.32 64.2328 1155.32 Q69.6031 1155.32 72.7976 1158.01 Q75.992 1160.69 75.992 1165.18 Q75.992 1167.31 75.1818 1169.24 Q74.3948 1171.13 72.2883 1173.73 Q71.7096 1174.4 68.6078 1177.62 Q65.5059 1180.81 59.8578 1186.57 Z" fill="#000000" fill-rule="nonzero" fill-opacity="1" /><path clip-path="url(#clip520)" d="M66.5939 872.901 L54.7884 891.35 L66.5939 891.35 L66.5939 872.901 M65.367 868.827 L71.2466 868.827 L71.2466 891.35 L76.1772 891.35 L76.1772 895.239 L71.2466 895.239 L71.2466 903.387 L66.5939 903.387 L66.5939 895.239 L50.9921 895.239 L50.9921 890.725 L65.367 868.827 Z" fill="#000000" fill-rule="nonzero" fill-opacity="1" /><path clip-path="url(#clip520)" d="M64.6495 597.121 Q61.5013 597.121 59.6495 599.274 Q57.8208 601.427 57.8208 605.177 Q57.8208 608.904 59.6495 611.079 Q61.5013 613.232 64.6495 613.232 Q67.7976 613.232 69.6263 611.079 Q71.4781 608.904 71.4781 605.177 Q71.4781 601.427 69.6263 599.274 Q67.7976 597.121 64.6495 597.121 M73.9318 582.469 L73.9318 586.728 Q72.1726 585.894 70.367 585.455 Q68.5846 585.015 66.8254 585.015 Q62.1958 585.015 59.7421 588.14 Q57.3115 591.265 56.9643 597.584 Q58.33 595.57 60.3902 594.506 Q62.4504 593.418 64.9272 593.418 Q70.1355 593.418 73.1448 596.589 Q76.1772 599.737 76.1772 605.177 Q76.1772 610.501 73.029 613.718 Q69.8809 616.936 64.6495 616.936 Q58.6541 616.936 55.4828 612.353 Q52.3116 607.746 52.3116 599.019 Q52.3116 590.825 56.2004 585.964 Q60.0893 581.08 66.6402 581.08 Q68.3994 581.08 70.1818 581.427 Q71.9874 581.774 73.9318 582.469 Z" fill="#000000" fill-rule="nonzero" fill-opacity="1" /><path clip-path="url(#clip520)" d="M64.3254 312.731 Q60.9921 312.731 59.0708 314.513 Q57.1726 316.296 57.1726 319.421 Q57.1726 322.545 59.0708 324.328 Q60.9921 326.11 64.3254 326.11 Q67.6587 326.11 69.58 324.328 Q71.5013 322.522 71.5013 319.421 Q71.5013 316.296 69.58 314.513 Q67.6819 312.731 64.3254 312.731 M59.6495 310.74 Q56.6402 309.999 54.9504 307.939 Q53.2838 305.879 53.2838 302.916 Q53.2838 298.772 56.2236 296.365 Q59.1865 293.958 64.3254 293.958 Q69.4874 293.958 72.4272 296.365 Q75.367 298.772 75.367 302.916 Q75.367 305.879 73.6772 307.939 Q72.0105 309.999 69.0244 310.74 Q72.404 311.527 74.279 313.819 Q76.1772 316.11 76.1772 319.421 Q76.1772 324.444 73.0985 327.129 Q70.0429 329.814 64.3254 329.814 Q58.6078 329.814 55.5291 327.129 Q52.4736 324.444 52.4736 319.421 Q52.4736 316.11 54.3717 313.819 Q56.2699 311.527 59.6495 310.74 M57.9365 303.356 Q57.9365 306.041 59.6032 307.546 Q61.293 309.05 64.3254 309.05 Q67.3346 309.05 69.0244 307.546 Q70.7374 306.041 70.7374 303.356 Q70.7374 300.671 69.0244 299.166 Q67.3346 297.661 64.3254 297.661 Q61.293 297.661 59.6032 299.166 Q57.9365 300.671 57.9365 303.356 Z" fill="#000000" fill-rule="nonzero" fill-opacity="1" /><path clip-path="url(#clip521)" d="M175.59 1316.79 L196.727 1312.23 L217.865 1309.32 L239.002 1299.78 L260.14 1293.13 L281.277 1280.42 L302.415 1254.35 L323.553 1231.29 L344.69 1213.44 L365.828 1184.05 L386.965 1161.4 L408.103 1122.11 L429.24 1078.23 L450.378 1041.71 L471.515 1009.52 L492.653 942.317 L513.79 858.92 L534.928 764.456 L556.065 682.13 L577.203 798.616 L598.34 918.414 L619.478 1032.84 L640.616 1150.21 L661.753 1211.91 L682.891 1262.99 L704.028 1289.99 L725.166 1309.69 L746.303 1322.2 L767.441 1329.75 L788.578 1333.83 L809.716 1351.5 L830.853 1356.38 L851.991 1355.2 L873.128 1349.54 L894.266 1346.45 L915.404 1346.29 L936.541 1337.33 L957.679 1325.69 L978.816 1310.74 L999.954 1296.97 L1021.09 1287.33 L1042.23 1259.39 L1063.37 1237.94 L1084.5 1192.29 L1105.64 1157.58 L1126.78 1118.99 L1147.92 1081.96 L1169.05 1037.12 L1190.19 975.46 L1211.33 903.494 L1232.47 801.814 L1253.6 750.119 L1274.74 709.442 L1295.88 753.465 L1317.02 836.932 L1338.15 959.6 L1359.29 1067.81 L1380.43 1144.47 L1401.57 1216.75 L1422.7 1265.46 L1443.84 1296.1 L1464.98 1331.52 L1486.12 1353.23 L1507.25 1362.53 L1528.39 1380.81 L1549.53 1388.79 L1570.67 1391.05 L1591.8 1394.59 L1612.94 1390.72 L1634.08 1382.41 L1655.22 1375.01 L1676.35 1370.13 L1697.49 1358.39 L1718.63 1352.04 L1739.77 1328.42 L1760.9 1305.42 L1782.04 1289.83 L1803.18 1257.71 L1824.32 1222.63 L1845.46 1180.7 L1866.59 1115.65 L1887.73 1050.79 L1908.87 1010.86 L1930.01 947.515 L1951.14 928.362 L1972.28 897.728 L1993.42 909.589 L2014.56 970.178 L2035.69 1071.89 L2056.83 1164.99 L2077.97 1236.59 L2099.11 1266.25 L2120.24 1290.62 L2141.38 1311.3 L2162.52 1332.29 L2183.66 1344.05 L2204.79 1350.79 L2225.93 1361.06 L2247.07 1369.57 L2268.21 1369.39 L2289.34 1371.01 L2289.34 1202.35 L2268.21 1231.25 L2247.07 1203.88 L2225.93 1114.54 L2204.79 911.625 L2183.66 604.863 L2162.52 336.854 L2141.38 227.174 L2120.24 181.611 L2099.11 264.929 L2077.97 384.599 L2056.83 401.996 L2035.69 370.906 L2014.56 368.143 L1993.42 445.312 L1972.28 462.875 L1951.14 507.197 L1930.01 518.636 L1908.87 546.046 L1887.73 609.612 L1866.59 661.257 L1845.46 738.128 L1824.32 798.594 L1803.18 844.437 L1782.04 912.895 L1760.9 955.066 L1739.77 1010.15 L1718.63 1063.97 L1697.49 1133.86 L1676.35 1174.72 L1655.22 1199.07 L1634.08 1222.65 L1612.94 1238.56 L1591.8 1257.34 L1570.67 1268.95 L1549.53 1263.02 L1528.39 1272.16 L1507.25 1263.98 L1486.12 1233.16 L1464.98 1191.26 L1443.84 1081.63 L1422.7 866.011 L1401.57 596.757 L1380.43 354.336 L1359.29 87.9763 L1338.15 92.4521 L1317.02 250.823 L1295.88 332.477 L1274.74 430.47 L1253.6 500.749 L1232.47 526.627 L1211.33 578.711 L1190.19 634.814 L1169.05 700.914 L1147.92 761.017 L1126.78 832.654 L1105.64 883.018 L1084.5 937.139 L1063.37 995.405 L1042.23 1038.52 L1021.09 1066.91 L999.954 1112.5 L978.816 1142.8 L957.679 1167.13 L936.541 1200.23 L915.404 1224.26 L894.266 1251.1 L873.128 1260.09 L851.991 1266 L830.853 1284.36 L809.716 1288.97 L788.578 1279.23 L767.441 1231.11 L746.303 1129.35 L725.166 918.2 L704.028 650.266 L682.891 456.586 L661.753 319.026 L640.616 347.454 L619.478 405.613 L598.34 464.432 L577.203 445.214 L556.065 473.79 L534.928 392.947 L513.79 340.129 L492.653 453.916 L471.515 574.855 L450.378 693.73 L429.24 783.136 L408.103 870.226 L386.965 955.738 L365.828 1028.29 L344.69 1082.52 L323.553 1121.1 L302.415 1173.69 L281.277 1216.52 L260.14 1248.92 L239.002 1273.01 L217.865 1281.36 L196.727 1300.5 L175.59 1316.79  Z" fill="#009af9" fill-rule="evenodd" fill-opacity="0.5"/>
<polyline clip-path="url(#clip521)" style="stroke:#009af9; stroke-linecap:round; stroke-linejoin:round; stroke-width:12; stroke-opacity:1; fill:none" points="175.59,1316.79 196.727,1307.66 217.865,1297.28 239.002,1281.26 260.14,1264.17 281.277,1248.17 302.415,1211.9 323.553,1183.56 344.69,1151.43 365.828,1115.62 386.965,1066.87 408.103,1013.94 429.24,956.397 450.378,912.249 471.515,864.108 492.653,801.061 513.79,748.373 534.928,667.358 556.065,606.831 577.203,541.397 598.34,519.699 619.478,503.181 640.616,621.283 661.753,794.101 682.891,968.078 704.028,1092.74 725.166,1173.7 746.303,1231.8 767.441,1264.44 788.578,1299.67 809.716,1312.97 830.853,1318.68 851.991,1324.73 873.128,1321.87 894.266,1320.54 915.404,1307.47 936.541,1302.99 957.679,1288.57 978.816,1269.23 999.954,1248.47 1021.09,1226.46 1042.23,1201.5 1063.37,1172.78 1084.5,1132.77 1105.64,1080.97 1126.78,1027.91 1147.92,973.856 1169.05,915.815 1190.19,857.748 1211.33,772.237 1232.47,718.063 1253.6,617.687 1274.74,554.302 1295.88,499.767 1317.02,467.462 1338.15,427.392 1359.29,562.703 1380.43,762.427 1401.57,943.462 1422.7,1114.76 1443.84,1193.93 1464.98,1243.74 1486.12,1284.93 1507.25,1309.82 1528.39,1322.25 1549.53,1326.61 1570.67,1327.4 1591.8,1327.38 1612.94,1328.89 1634.08,1322.26 1655.22,1304.61 1676.35,1287.34 1697.49,1267.3 1718.63,1237.66 1739.77,1195.76 1760.9,1170.37 1782.04,1138.55 1803.18,1097.14 1824.32,1044.86 1845.46,984.253 1866.59,916.968 1887.73,841.85 1908.87,760.567 1930.01,691.882 1951.14,626.813 1972.28,586.052 1993.42,587.329 2014.56,611.06 2035.69,640.132 2056.83,695.89 2077.97,882.18 2099.11,1036.42 2120.24,1148.44 2141.38,1223.44 2162.52,1243.66 2183.66,1287.64 2204.79,1316.05 2225.93,1320.99 2247.07,1317.87 2268.21,1320.5 2289.34,1325.39 "/>
<path clip-path="url(#clip521)" d="M175.59 1316.79 L196.727 1347.44 L217.865 1370.77 L239.002 1389.4 L260.14 1401.94 L281.277 1409.76 L302.415 1416.81 L323.553 1422.72 L344.69 1425.24 L365.828 1427.96 L386.965 1428.94 L408.103 1430.51 L429.24 1430.91 L450.378 1429.1 L471.515 1429.41 L492.653 1431.13 L513.79 1429.22 L534.928 1425.44 L556.065 1417.23 L577.203 1402.76 L598.34 1375.95 L619.478 1337.1 L640.616 1269.99 L661.753 1156.59 L682.891 1053.27 L704.028 1078.03 L725.166 1142.39 L746.303 1197.64 L767.441 1240.95 L788.578 1278.53 L809.716 1308.27 L830.853 1337.32 L851.991 1359.35 L873.128 1376.52 L894.266 1392.85 L915.404 1404.62 L936.541 1411.74 L957.679 1417.28 L978.816 1425.13 L999.954 1428.62 L1021.09 1433.03 L1042.23 1439.42 L1063.37 1439.33 L1084.5 1439.19 L1105.64 1440.73 L1126.78 1443.19 L1147.92 1444.82 L1169.05 1443.95 L1190.19 1442.61 L1211.33 1440.02 L1232.47 1435.65 L1253.6 1429.85 L1274.74 1418.08 L1295.88 1392.5 L1317.02 1366.71 L1338.15 1308.84 L1359.29 1205.7 L1380.43 1053.45 L1401.57 1009.63 L1422.7 1061.13 L1443.84 1107.44 L1464.98 1164.44 L1486.12 1221.54 L1507.25 1261.03 L1528.39 1301.12 L1549.53 1320.9 L1570.67 1349.01 L1591.8 1368.78 L1612.94 1378.81 L1634.08 1389.87 L1655.22 1398.85 L1676.35 1406.44 L1697.49 1412.36 L1718.63 1418.97 L1739.77 1427.13 L1760.9 1431.29 L1782.04 1435.09 L1803.18 1437.34 L1824.32 1440.08 L1845.46 1443.07 L1866.59 1444.03 L1887.73 1444.71 L1908.87 1445.72 L1930.01 1444.96 L1951.14 1445.32 L1972.28 1444.35 L1993.42 1441.26 L2014.56 1437.55 L2035.69 1432.53 L2056.83 1420.94 L2077.97 1403.96 L2099.11 1371.13 L2120.24 1305.97 L2141.38 1199.42 L2162.52 1217.44 L2183.66 1255.55 L2204.79 1288.65 L2225.93 1316.95 L2247.07 1334.86 L2268.21 1353.36 L2289.34 1374.64 L2289.34 945.7 L2268.21 785.147 L2247.07 621.589 L2225.93 514.25 L2204.79 542.41 L2183.66 702.704 L2162.52 738.532 L2141.38 670.094 L2120.24 662.788 L2099.11 728.735 L2077.97 800.63 L2056.83 767.63 L2035.69 835.465 L2014.56 876.921 L1993.42 935.097 L1972.28 1030.51 L1951.14 1121.43 L1930.01 1192.51 L1908.87 1250.86 L1887.73 1298.67 L1866.59 1331.58 L1845.46 1354.35 L1824.32 1368.4 L1803.18 1379.35 L1782.04 1385.73 L1760.9 1389.79 L1739.77 1390.32 L1718.63 1382.16 L1697.49 1372.26 L1676.35 1356.8 L1655.22 1337.83 L1634.08 1307.39 L1612.94 1278.6 L1591.8 1242.88 L1570.67 1181.52 L1549.53 1128.36 L1528.39 1048.43 L1507.25 944.518 L1486.12 823.136 L1464.98 707.086 L1443.84 561.18 L1422.7 447.706 L1401.57 509.943 L1380.43 697.663 L1359.29 768.219 L1338.15 826.693 L1317.02 960.424 L1295.88 1034.54 L1274.74 1109.8 L1253.6 1198.04 L1232.47 1254.85 L1211.33 1299.31 L1190.19 1334.76 L1169.05 1360 L1147.92 1378 L1126.78 1389.63 L1105.64 1398.39 L1084.5 1401.29 L1063.37 1401.85 L1042.23 1399.93 L1021.09 1396.54 L999.954 1388.12 L978.816 1372.74 L957.679 1356.57 L936.541 1337.85 L915.404 1305.14 L894.266 1269.58 L873.128 1223.09 L851.991 1160.85 L830.853 1074.92 L809.716 983.806 L788.578 875.434 L767.441 710.617 L746.303 584.955 L725.166 589.244 L704.028 768.259 L682.891 812.669 L661.753 826.04 L640.616 820.373 L619.478 819.265 L598.34 838.316 L577.203 897.003 L556.065 1001.15 L534.928 1136 L513.79 1260.43 L492.653 1330.44 L471.515 1367.46 L450.378 1389.57 L429.24 1402.31 L408.103 1409.02 L386.965 1410.65 L365.828 1409.07 L344.69 1409.22 L323.553 1408.82 L302.415 1403.17 L281.277 1395.77 L260.14 1385.5 L239.002 1374.99 L217.865 1359.7 L196.727 1336.69 L175.59 1316.79  Z" fill="#e26f46" fill-rule="evenodd" fill-opacity="0.5"/>
<polyline clip-path="url(#clip521)" style="stroke:#e26f46; stroke-linecap:round; stroke-linejoin:round; stroke-width:12; stroke-opacity:1; fill:none" points="175.59,1316.79 196.727,1342.45 217.865,1363.44 239.002,1376.7 260.14,1390.24 281.277,1399.84 302.415,1407.91 323.553,1411.75 344.69,1416.75 365.828,1419.58 386.965,1420.49 408.103,1422.98 429.24,1421.66 450.378,1420.12 471.515,1416.28 492.653,1407.64 513.79,1394.58 534.928,1377.66 556.065,1347.2 577.203,1301.05 598.34,1229.28 619.478,1127.96 640.616,1008.23 661.753,950.988 682.891,871.862 704.028,828.563 725.166,863.734 746.303,924.605 767.441,997.675 788.578,1072.81 809.716,1136.73 830.853,1197.68 851.991,1244.15 873.128,1280.93 894.266,1315.1 915.404,1342.72 936.541,1363.69 957.679,1375.81 978.816,1390.14 999.954,1399.31 1021.09,1406.61 1042.23,1413.17 1063.37,1418.15 1084.5,1421.66 1105.64,1422.01 1126.78,1422.82 1147.92,1422.81 1169.05,1421.59 1190.19,1419.08 1211.33,1412.16 1232.47,1402.25 1253.6,1385.76 1274.74,1360.77 1295.88,1314.86 1317.02,1234.45 1338.15,1115.57 1359.29,1001.53 1380.43,885.875 1401.57,825.128 1422.7,818.407 1443.84,806.063 1464.98,883.807 1486.12,976.664 1507.25,1047.64 1528.39,1119.79 1549.53,1189.32 1570.67,1243.87 1591.8,1286.74 1612.94,1323.88 1634.08,1349.85 1655.22,1367.22 1676.35,1383.6 1697.49,1395.02 1718.63,1404.89 1739.77,1413.79 1760.9,1417.6 1782.04,1416.93 1803.18,1420.88 1824.32,1420.23 1845.46,1419.14 1866.59,1416.19 1887.73,1411.75 1908.87,1403.87 1930.01,1390.25 1951.14,1370.11 1972.28,1333.56 1993.42,1274.55 2014.56,1188 2035.69,1064.68 2056.83,966.919 2077.97,920.531 2099.11,906.448 2120.24,961.188 2141.38,1019.25 2162.52,984.618 2183.66,1048.84 2204.79,1126.81 2225.93,1182.6 2247.07,1242.27 2268.21,1285.15 2289.34,1318.64 "/>
</svg>
