<?xml version="1.0" encoding="utf-8"?>
<svg xmlns="http://www.w3.org/2000/svg" xmlns:xlink="http://www.w3.org/1999/xlink" width="600" height="400" viewBox="0 0 2400 1600">
<defs>
  <clipPath id="clip550">
    <rect x="0" y="0" width="2400" height="1600"/>
  </clipPath>
</defs>
<path clip-path="url(#clip550)" d="M0 1600 L2400 1600 L2400 0 L0 0  Z" fill="#ffffff" fill-rule="evenodd" fill-opacity="1"/>
<defs>
  <clipPath id="clip551">
    <rect x="155" y="47" width="2198" height="1440"/>
  </clipPath>
</defs>
<path clip-path="url(#clip550)" d="M155.765 1486.45 L2352.76 1486.45 L2352.76 47.2441 L155.765 47.2441  Z" fill="#ffffff" fill-rule="evenodd" fill-opacity="1"/>
<polyline clip-path="url(#clip551)" style="stroke:#000000; stroke-linecap:round; stroke-linejoin:round; stroke-width:2; stroke-opacity:0.1; fill:none" points="217.944,1486.45 217.944,47.2441 "/>
<polyline clip-path="url(#clip551)" style="stroke:#000000; stroke-linecap:round; stroke-linejoin:round; stroke-width:2; stroke-opacity:0.1; fill:none" points="736.102,1486.45 736.102,47.2441 "/>
<polyline clip-path="url(#clip551)" style="stroke:#000000; stroke-linecap:round; stroke-linejoin:round; stroke-width:2; stroke-opacity:0.1; fill:none" points="1254.26,1486.45 1254.26,47.2441 "/>
<polyline clip-path="url(#clip551)" style="stroke:#000000; stroke-linecap:round; stroke-linejoin:round; stroke-width:2; stroke-opacity:0.1; fill:none" points="1772.42,1486.45 1772.42,47.2441 "/>
<polyline clip-path="url(#clip551)" style="stroke:#000000; stroke-linecap:round; stroke-linejoin:round; stroke-width:2; stroke-opacity:0.1; fill:none" points="2290.58,1486.45 2290.58,47.2441 "/>
<polyline clip-path="url(#clip551)" style="stroke:#000000; stroke-linecap:round; stroke-linejoin:round; stroke-width:2; stroke-opacity:0.1; fill:none" points="155.765,1294.09 2352.76,1294.09 "/>
<polyline clip-path="url(#clip551)" style="stroke:#000000; stroke-linecap:round; stroke-linejoin:round; stroke-width:2; stroke-opacity:0.1; fill:none" points="155.765,1081.23 2352.76,1081.23 "/>
<polyline clip-path="url(#clip551)" style="stroke:#000000; stroke-linecap:round; stroke-linejoin:round; stroke-width:2; stroke-opacity:0.1; fill:none" points="155.765,868.367 2352.76,868.367 "/>
<polyline clip-path="url(#clip551)" style="stroke:#000000; stroke-linecap:round; stroke-linejoin:round; stroke-width:2; stroke-opacity:0.1; fill:none" points="155.765,655.505 2352.76,655.505 "/>
<polyline clip-path="url(#clip551)" style="stroke:#000000; stroke-linecap:round; stroke-linejoin:round; stroke-width:2; stroke-opacity:0.1; fill:none" points="155.765,442.644 2352.76,442.644 "/>
<polyline clip-path="url(#clip551)" style="stroke:#000000; stroke-linecap:round; stroke-linejoin:round; stroke-width:2; stroke-opacity:0.1; fill:none" points="155.765,229.782 2352.76,229.782 "/>
<polyline clip-path="url(#clip550)" style="stroke:#000000; stroke-linecap:round; stroke-linejoin:round; stroke-width:4; stroke-opacity:1; fill:none" points="155.765,1486.45 2352.76,1486.45 "/>
<polyline clip-path="url(#clip550)" style="stroke:#000000; stroke-linecap:round; stroke-linejoin:round; stroke-width:4; stroke-opacity:1; fill:none" points="217.944,1486.45 217.944,1467.55 "/>
<polyline clip-path="url(#clip550)" style="stroke:#000000; stroke-linecap:round; stroke-linejoin:round; stroke-width:4; stroke-opacity:1; fill:none" points="736.102,1486.45 736.102,1467.55 "/>
<polyline clip-path="url(#clip550)" style="stroke:#000000; stroke-linecap:round; stroke-linejoin:round; stroke-width:4; stroke-opacity:1; fill:none" points="1254.26,1486.45 1254.26,1467.55 "/>
<polyline clip-path="url(#clip550)" style="stroke:#000000; stroke-linecap:round; stroke-linejoin:round; stroke-width:4; stroke-opacity:1; fill:none" points="1772.42,1486.45 1772.42,1467.55 "/>
<polyline clip-path="url(#clip550)" style="stroke:#000000; stroke-linecap:round; stroke-linejoin:round; stroke-width:4; stroke-opacity:1; fill:none" points="2290.58,1486.45 2290.58,1467.55 "/>
<path clip-path="url(#clip550)" d="M180.247 1517.37 Q176.636 1517.37 174.808 1520.93 Q173.002 1524.47 173.002 1531.6 Q173.002 1538.71 174.808 1542.27 Q176.636 1545.82 180.247 1545.82 Q183.882 1545.82 185.687 1542.27 Q187.516 1538.71 187.516 1531.6 Q187.516 1524.47 185.687 1520.93 Q183.882 1517.37 180.247 1517.37 M180.247 1513.66 Q186.057 1513.66 189.113 1518.27 Q192.192 1522.85 192.192 1531.6 Q192.192 1540.33 189.113 1544.94 Q186.057 1549.52 180.247 1549.52 Q174.437 1549.52 171.358 1544.94 Q168.303 1540.33 168.303 1531.6 Q168.303 1522.85 171.358 1518.27 Q174.437 1513.66 180.247 1513.66 Z" fill="#000000" fill-rule="nonzero" fill-opacity="1" /><path clip-path="url(#clip550)" d="M200.409 1542.97 L205.294 1542.97 L205.294 1548.85 L200.409 1548.85 L200.409 1542.97 Z" fill="#000000" fill-rule="nonzero" fill-opacity="1" /><path clip-path="url(#clip550)" d="M225.479 1517.37 Q221.867 1517.37 220.039 1520.93 Q218.233 1524.47 218.233 1531.6 Q218.233 1538.71 220.039 1542.27 Q221.867 1545.82 225.479 1545.82 Q229.113 1545.82 230.918 1542.27 Q232.747 1538.71 232.747 1531.6 Q232.747 1524.47 230.918 1520.93 Q229.113 1517.37 225.479 1517.37 M225.479 1513.66 Q231.289 1513.66 234.344 1518.27 Q237.423 1522.85 237.423 1531.6 Q237.423 1540.33 234.344 1544.94 Q231.289 1549.52 225.479 1549.52 Q219.668 1549.52 216.59 1544.94 Q213.534 1540.33 213.534 1531.6 Q213.534 1522.85 216.59 1518.27 Q219.668 1513.66 225.479 1513.66 Z" fill="#000000" fill-rule="nonzero" fill-opacity="1" /><path clip-path="url(#clip550)" d="M255.64 1517.37 Q252.029 1517.37 250.201 1520.93 Q248.395 1524.47 248.395 1531.6 Q248.395 1538.71 250.201 1542.27 Q252.029 1545.82 255.64 1545.82 Q259.275 1545.82 261.08 1542.27 Q262.909 1538.71 262.909 1531.6 Q262.909 1524.47 261.08 1520.93 Q259.275 1517.37 255.64 1517.37 M255.64 1513.66 Q261.451 1513.66 264.506 1518.27 Q267.585 1522.85 267.585 1531.6 Q267.585 1540.33 264.506 1544.94 Q261.451 1549.52 255.64 1549.52 Q249.83 1549.52 246.752 1544.94 Q243.696 1540.33 243.696 1531.6 Q243.696 1522.85 246.752 1518.27 Q249.83 1513.66 255.64 1513.66 Z" fill="#000000" fill-rule="nonzero" fill-opacity="1" /><path clip-path="url(#clip550)" d="M698.903 1517.37 Q695.292 1517.37 693.463 1520.93 Q691.658 1524.47 691.658 1531.6 Q691.658 1538.71 693.463 1542.27 Q695.292 1545.82 698.903 1545.82 Q702.538 1545.82 704.343 1542.27 Q706.172 1538.71 706.172 1531.6 Q706.172 1524.47 704.343 1520.93 Q702.538 1517.37 698.903 1517.37 M698.903 1513.66 Q704.713 1513.66 707.769 1518.27 Q710.848 1522.85 710.848 1531.6 Q710.848 1540.33 707.769 1544.94 Q704.713 1549.52 698.903 1549.52 Q693.093 1549.52 690.014 1544.94 Q686.959 1540.33 686.959 1531.6 Q686.959 1522.85 690.014 1518.27 Q693.093 1513.66 698.903 1513.66 Z" fill="#000000" fill-rule="nonzero" fill-opacity="1" /><path clip-path="url(#clip550)" d="M719.065 1542.97 L723.949 1542.97 L723.949 1548.85 L719.065 1548.85 L719.065 1542.97 Z" fill="#000000" fill-rule="nonzero" fill-opacity="1" /><path clip-path="url(#clip550)" d="M738.162 1544.91 L754.482 1544.91 L754.482 1548.85 L732.537 1548.85 L732.537 1544.91 Q735.199 1542.16 739.783 1537.53 Q744.389 1532.88 745.57 1531.53 Q747.815 1529.01 748.695 1527.27 Q749.597 1525.51 749.597 1523.82 Q749.597 1521.07 747.653 1519.33 Q745.732 1517.6 742.63 1517.6 Q740.431 1517.6 737.977 1518.36 Q735.547 1519.13 732.769 1520.68 L732.769 1515.95 Q735.593 1514.82 738.047 1514.24 Q740.5 1513.66 742.537 1513.66 Q747.908 1513.66 751.102 1516.35 Q754.296 1519.03 754.296 1523.52 Q754.296 1525.65 753.486 1527.57 Q752.699 1529.47 750.593 1532.07 Q750.014 1532.74 746.912 1535.95 Q743.81 1539.15 738.162 1544.91 Z" fill="#000000" fill-rule="nonzero" fill-opacity="1" /><path clip-path="url(#clip550)" d="M764.343 1514.29 L782.699 1514.29 L782.699 1518.22 L768.625 1518.22 L768.625 1526.7 Q769.644 1526.35 770.662 1526.19 Q771.681 1526 772.699 1526 Q778.486 1526 781.866 1529.17 Q785.245 1532.34 785.245 1537.76 Q785.245 1543.34 781.773 1546.44 Q778.301 1549.52 771.982 1549.52 Q769.806 1549.52 767.537 1549.15 Q765.292 1548.78 762.884 1548.04 L762.884 1543.34 Q764.968 1544.47 767.19 1545.03 Q769.412 1545.58 771.889 1545.58 Q775.894 1545.58 778.232 1543.48 Q780.57 1541.37 780.57 1537.76 Q780.57 1534.15 778.232 1532.04 Q775.894 1529.94 771.889 1529.94 Q770.014 1529.94 768.139 1530.35 Q766.287 1530.77 764.343 1531.65 L764.343 1514.29 Z" fill="#000000" fill-rule="nonzero" fill-opacity="1" /><path clip-path="url(#clip550)" d="M1216.56 1517.37 Q1212.95 1517.37 1211.12 1520.93 Q1209.32 1524.47 1209.32 1531.6 Q1209.32 1538.71 1211.12 1542.27 Q1212.95 1545.82 1216.56 1545.82 Q1220.2 1545.82 1222 1542.27 Q1223.83 1538.71 1223.83 1531.6 Q1223.83 1524.47 1222 1520.93 Q1220.2 1517.37 1216.56 1517.37 M1216.56 1513.66 Q1222.37 1513.66 1225.43 1518.27 Q1228.51 1522.85 1228.51 1531.6 Q1228.51 1540.33 1225.43 1544.94 Q1222.37 1549.52 1216.56 1549.52 Q1210.75 1549.52 1207.68 1544.94 Q1204.62 1540.33 1204.62 1531.6 Q1204.62 1522.85 1207.68 1518.27 Q1210.75 1513.66 1216.56 1513.66 Z" fill="#000000" fill-rule="nonzero" fill-opacity="1" /><path clip-path="url(#clip550)" d="M1236.73 1542.97 L1241.61 1542.97 L1241.61 1548.85 L1236.73 1548.85 L1236.73 1542.97 Z" fill="#000000" fill-rule="nonzero" fill-opacity="1" /><path clip-path="url(#clip550)" d="M1251.84 1514.29 L1270.2 1514.29 L1270.2 1518.22 L1256.12 1518.22 L1256.12 1526.7 Q1257.14 1526.35 1258.16 1526.19 Q1259.18 1526 1260.2 1526 Q1265.98 1526 1269.36 1529.17 Q1272.74 1532.34 1272.74 1537.76 Q1272.74 1543.34 1269.27 1546.44 Q1265.8 1549.52 1259.48 1549.52 Q1257.3 1549.52 1255.04 1549.15 Q1252.79 1548.78 1250.38 1548.04 L1250.38 1543.34 Q1252.47 1544.47 1254.69 1545.03 Q1256.91 1545.58 1259.39 1545.58 Q1263.39 1545.58 1265.73 1543.48 Q1268.07 1541.37 1268.07 1537.76 Q1268.07 1534.15 1265.73 1532.04 Q1263.39 1529.94 1259.39 1529.94 Q1257.51 1529.94 1255.64 1530.35 Q1253.79 1530.77 1251.84 1531.65 L1251.84 1514.29 Z" fill="#000000" fill-rule="nonzero" fill-opacity="1" /><path clip-path="url(#clip550)" d="M1291.96 1517.37 Q1288.35 1517.37 1286.52 1520.93 Q1284.71 1524.47 1284.71 1531.6 Q1284.71 1538.71 1286.52 1542.27 Q1288.35 1545.82 1291.96 1545.82 Q1295.59 1545.82 1297.4 1542.27 Q1299.23 1538.71 1299.23 1531.6 Q1299.23 1524.47 1297.4 1520.93 Q1295.59 1517.37 1291.96 1517.37 M1291.96 1513.66 Q1297.77 1513.66 1300.82 1518.27 Q1303.9 1522.85 1303.9 1531.6 Q1303.9 1540.33 1300.82 1544.94 Q1297.77 1549.52 1291.96 1549.52 Q1286.15 1549.52 1283.07 1544.94 Q1280.01 1540.33 1280.01 1531.6 Q1280.01 1522.85 1283.07 1518.27 Q1286.15 1513.66 1291.96 1513.66 Z" fill="#000000" fill-rule="nonzero" fill-opacity="1" /><path clip-path="url(#clip550)" d="M1735.22 1517.37 Q1731.61 1517.37 1729.78 1520.93 Q1727.97 1524.47 1727.97 1531.6 Q1727.97 1538.71 1729.78 1542.27 Q1731.61 1545.82 1735.22 1545.82 Q1738.85 1545.82 1740.66 1542.27 Q1742.49 1538.71 1742.49 1531.6 Q1742.49 1524.47 1740.66 1520.93 Q1738.85 1517.37 1735.22 1517.37 M1735.22 1513.66 Q1741.03 1513.66 1744.09 1518.27 Q1747.16 1522.85 1747.16 1531.6 Q1747.16 1540.33 1744.09 1544.94 Q1741.03 1549.52 1735.22 1549.52 Q1729.41 1549.52 1726.33 1544.94 Q1723.28 1540.33 1723.28 1531.6 Q1723.28 1522.85 1726.33 1518.27 Q1729.41 1513.66 1735.22 1513.66 Z" fill="#000000" fill-rule="nonzero" fill-opacity="1" /><path clip-path="url(#clip550)" d="M1755.38 1542.97 L1760.27 1542.97 L1760.27 1548.85 L1755.38 1548.85 L1755.38 1542.97 Z" fill="#000000" fill-rule="nonzero" fill-opacity="1" /><path clip-path="url(#clip550)" d="M1769.27 1514.29 L1791.49 1514.29 L1791.49 1516.28 L1778.95 1548.85 L1774.06 1548.85 L1785.87 1518.22 L1769.27 1518.22 L1769.27 1514.29 Z" fill="#000000" fill-rule="nonzero" fill-opacity="1" /><path clip-path="url(#clip550)" d="M1800.66 1514.29 L1819.02 1514.29 L1819.02 1518.22 L1804.94 1518.22 L1804.94 1526.7 Q1805.96 1526.35 1806.98 1526.19 Q1808 1526 1809.02 1526 Q1814.8 1526 1818.18 1529.17 Q1821.56 1532.34 1821.56 1537.76 Q1821.56 1543.34 1818.09 1546.44 Q1814.62 1549.52 1808.3 1549.52 Q1806.12 1549.52 1803.85 1549.15 Q1801.61 1548.78 1799.2 1548.04 L1799.2 1543.34 Q1801.28 1544.47 1803.51 1545.03 Q1805.73 1545.58 1808.21 1545.58 Q1812.21 1545.58 1814.55 1543.48 Q1816.89 1541.37 1816.89 1537.76 Q1816.89 1534.15 1814.55 1532.04 Q1812.21 1529.94 1808.21 1529.94 Q1806.33 1529.94 1804.46 1530.35 Q1802.6 1530.77 1800.66 1531.65 L1800.66 1514.29 Z" fill="#000000" fill-rule="nonzero" fill-opacity="1" /><path clip-path="url(#clip550)" d="M2242.65 1544.91 L2250.29 1544.91 L2250.29 1518.55 L2241.98 1520.21 L2241.98 1515.95 L2250.24 1514.29 L2254.92 1514.29 L2254.92 1544.91 L2262.56 1544.91 L2262.56 1548.85 L2242.65 1548.85 L2242.65 1544.91 Z" fill="#000000" fill-rule="nonzero" fill-opacity="1" /><path clip-path="url(#clip550)" d="M2272 1542.97 L2276.88 1542.97 L2276.88 1548.85 L2272 1548.85 L2272 1542.97 Z" fill="#000000" fill-rule="nonzero" fill-opacity="1" /><path clip-path="url(#clip550)" d="M2297.07 1517.37 Q2293.46 1517.37 2291.63 1520.93 Q2289.82 1524.47 2289.82 1531.6 Q2289.82 1538.71 2291.63 1542.27 Q2293.46 1545.82 2297.07 1545.82 Q2300.7 1545.82 2302.51 1542.27 Q2304.34 1538.71 2304.34 1531.6 Q2304.34 1524.47 2302.51 1520.93 Q2300.7 1517.37 2297.07 1517.37 M2297.07 1513.66 Q2302.88 1513.66 2305.94 1518.27 Q2309.01 1522.85 2309.01 1531.6 Q2309.01 1540.33 2305.94 1544.94 Q2302.88 1549.52 2297.07 1549.52 Q2291.26 1549.52 2288.18 1544.94 Q2285.13 1540.33 2285.13 1531.6 Q2285.13 1522.85 2288.18 1518.27 Q2291.26 1513.66 2297.07 1513.66 Z" fill="#000000" fill-rule="nonzero" fill-opacity="1" /><path clip-path="url(#clip550)" d="M2327.23 1517.37 Q2323.62 1517.37 2321.79 1520.93 Q2319.99 1524.47 2319.99 1531.6 Q2319.99 1538.71 2321.79 1542.27 Q2323.62 1545.82 2327.23 1545.82 Q2330.87 1545.82 2332.67 1542.27 Q2334.5 1538.71 2334.5 1531.6 Q2334.5 1524.47 2332.67 1520.93 Q2330.87 1517.37 2327.23 1517.37 M2327.23 1513.66 Q2333.04 1513.66 2336.1 1518.27 Q2339.18 1522.85 2339.18 1531.6 Q2339.18 1540.33 2336.1 1544.94 Q2333.04 1549.52 2327.23 1549.52 Q2321.42 1549.52 2318.34 1544.94 Q2315.29 1540.33 2315.29 1531.6 Q2315.29 1522.85 2318.34 1518.27 Q2321.42 1513.66 2327.23 1513.66 Z" fill="#000000" fill-rule="nonzero" fill-opacity="1" /><polyline clip-path="url(#clip550)" style="stroke:#000000; stroke-linecap:round; stroke-linejoin:round; stroke-width:4; stroke-opacity:1; fill:none" points="155.765,1486.45 155.765,47.2441 "/>
<polyline clip-path="url(#clip550)" style="stroke:#000000; stroke-linecap:round; stroke-linejoin:round; stroke-width:4; stroke-opacity:1; fill:none" points="155.765,1294.09 174.663,1294.09 "/>
<polyline clip-path="url(#clip550)" style="stroke:#000000; stroke-linecap:round; stroke-linejoin:round; stroke-width:4; stroke-opacity:1; fill:none" points="155.765,1081.23 174.663,1081.23 "/>
<polyline clip-path="url(#clip550)" style="stroke:#000000; stroke-linecap:round; stroke-linejoin:round; stroke-width:4; stroke-opacity:1; fill:none" points="155.765,868.367 174.663,868.367 "/>
<polyline clip-path="url(#clip550)" style="stroke:#000000; stroke-linecap:round; stroke-linejoin:round; stroke-width:4; stroke-opacity:1; fill:none" points="155.765,655.505 174.663,655.505 "/>
<polyline clip-path="url(#clip550)" style="stroke:#000000; stroke-linecap:round; stroke-linejoin:round; stroke-width:4; stroke-opacity:1; fill:none" points="155.765,442.644 174.663,442.644 "/>
<polyline clip-path="url(#clip550)" style="stroke:#000000; stroke-linecap:round; stroke-linejoin:round; stroke-width:4; stroke-opacity:1; fill:none" points="155.765,229.782 174.663,229.782 "/>
<path clip-path="url(#clip550)" d="M63.5847 1279.89 Q59.9736 1279.89 58.1449 1283.45 Q56.3393 1287 56.3393 1294.13 Q56.3393 1301.23 58.1449 1304.8 Q59.9736 1308.34 63.5847 1308.34 Q67.2189 1308.34 69.0244 1304.8 Q70.8531 1301.23 70.8531 1294.13 Q70.8531 1287 69.0244 1283.45 Q67.2189 1279.89 63.5847 1279.89 M63.5847 1276.19 Q69.3948 1276.19 72.4503 1280.79 Q75.529 1285.38 75.529 1294.13 Q75.529 1302.85 72.4503 1307.46 Q69.3948 1312.04 63.5847 1312.04 Q57.7745 1312.04 54.6958 1307.46 Q51.6403 1302.85 51.6403 1294.13 Q51.6403 1285.38 54.6958 1280.79 Q57.7745 1276.19 63.5847 1276.19 Z" fill="#000000" fill-rule="nonzero" fill-opacity="1" /><path clip-path="url(#clip550)" d="M83.7466 1305.49 L88.6308 1305.49 L88.6308 1311.37 L83.7466 1311.37 L83.7466 1305.49 Z" fill="#000000" fill-rule="nonzero" fill-opacity="1" /><path clip-path="url(#clip550)" d="M98.8622 1276.81 L117.219 1276.81 L117.219 1280.75 L103.145 1280.75 L103.145 1289.22 Q104.163 1288.87 105.182 1288.71 Q106.2 1288.52 107.219 1288.52 Q113.006 1288.52 116.385 1291.69 Q119.765 1294.87 119.765 1300.28 Q119.765 1305.86 116.293 1308.96 Q112.82 1312.04 106.501 1312.04 Q104.325 1312.04 102.057 1311.67 Q99.8113 1311.3 97.4039 1310.56 L97.4039 1305.86 Q99.4872 1307 101.709 1307.55 Q103.932 1308.11 106.408 1308.11 Q110.413 1308.11 112.751 1306 Q115.089 1303.89 115.089 1300.28 Q115.089 1296.67 112.751 1294.57 Q110.413 1292.46 106.408 1292.46 Q104.534 1292.46 102.659 1292.88 Q100.807 1293.29 98.8622 1294.17 L98.8622 1276.81 Z" fill="#000000" fill-rule="nonzero" fill-opacity="1" /><path clip-path="url(#clip550)" d="M53.3995 1094.57 L61.0384 1094.57 L61.0384 1068.21 L52.7282 1069.87 L52.7282 1065.62 L60.9921 1063.95 L65.668 1063.95 L65.668 1094.57 L73.3068 1094.57 L73.3068 1098.51 L53.3995 1098.51 L53.3995 1094.57 Z" fill="#000000" fill-rule="nonzero" fill-opacity="1" /><path clip-path="url(#clip550)" d="M82.7512 1092.63 L87.6354 1092.63 L87.6354 1098.51 L82.7512 1098.51 L82.7512 1092.63 Z" fill="#000000" fill-rule="nonzero" fill-opacity="1" /><path clip-path="url(#clip550)" d="M107.821 1067.03 Q104.209 1067.03 102.381 1070.59 Q100.575 1074.13 100.575 1081.26 Q100.575 1088.37 102.381 1091.93 Q104.209 1095.48 107.821 1095.48 Q111.455 1095.48 113.26 1091.93 Q115.089 1088.37 115.089 1081.26 Q115.089 1074.13 113.26 1070.59 Q111.455 1067.03 107.821 1067.03 M107.821 1063.32 Q113.631 1063.32 116.686 1067.93 Q119.765 1072.51 119.765 1081.26 Q119.765 1089.99 116.686 1094.6 Q113.631 1099.18 107.821 1099.18 Q102.01 1099.18 98.9317 1094.6 Q95.8761 1089.99 95.8761 1081.26 Q95.8761 1072.51 98.9317 1067.93 Q102.01 1063.32 107.821 1063.32 Z" fill="#000000" fill-rule="nonzero" fill-opacity="1" /><path clip-path="url(#clip550)" d="M54.3949 881.712 L62.0337 881.712 L62.0337 855.346 L53.7236 857.013 L53.7236 852.754 L61.9874 851.087 L66.6633 851.087 L66.6633 881.712 L74.3022 881.712 L74.3022 885.647 L54.3949 885.647 L54.3949 881.712 Z" fill="#000000" fill-rule="nonzero" fill-opacity="1" /><path clip-path="url(#clip550)" d="M83.7466 879.768 L88.6308 879.768 L88.6308 885.647 L83.7466 885.647 L83.7466 879.768 Z" fill="#000000" fill-rule="nonzero" fill-opacity="1" /><path clip-path="url(#clip550)" d="M98.8622 851.087 L117.219 851.087 L117.219 855.022 L103.145 855.022 L103.145 863.494 Q104.163 863.147 105.182 862.985 Q106.2 862.8 107.219 862.8 Q113.006 862.8 116.385 865.971 Q119.765 869.143 119.765 874.559 Q119.765 880.138 116.293 883.24 Q112.82 886.318 106.501 886.318 Q104.325 886.318 102.057 885.948 Q99.8113 885.578 97.4039 884.837 L97.4039 880.138 Q99.4872 881.272 101.709 881.828 Q103.932 882.383 106.408 882.383 Q110.413 882.383 112.751 880.277 Q115.089 878.17 115.089 874.559 Q115.089 870.948 112.751 868.842 Q110.413 866.735 106.408 866.735 Q104.534 866.735 102.659 867.152 Q100.807 867.569 98.8622 868.448 L98.8622 851.087 Z" fill="#000000" fill-rule="nonzero" fill-opacity="1" /><path clip-path="url(#clip550)" d="M56.6171 668.85 L72.9365 668.85 L72.9365 672.785 L50.9921 672.785 L50.9921 668.85 Q53.6541 666.096 58.2375 661.466 Q62.8439 656.813 64.0245 655.471 Q66.2698 652.947 67.1494 651.211 Q68.0522 649.452 68.0522 647.762 Q68.0522 645.008 66.1078 643.272 Q64.1865 641.536 61.0847 641.536 Q58.8856 641.536 56.4319 642.299 Q54.0014 643.063 51.2236 644.614 L51.2236 639.892 Q54.0477 638.758 56.5014 638.179 Q58.955 637.6 60.9921 637.6 Q66.3624 637.6 69.5568 640.286 Q72.7513 642.971 72.7513 647.461 Q72.7513 649.591 71.9411 651.512 Q71.1541 653.41 69.0476 656.003 Q68.4689 656.674 65.367 659.892 Q62.2652 663.086 56.6171 668.85 Z" fill="#000000" fill-rule="nonzero" fill-opacity="1" /><path clip-path="url(#clip550)" d="M82.7512 666.906 L87.6354 666.906 L87.6354 672.785 L82.7512 672.785 L82.7512 666.906 Z" fill="#000000" fill-rule="nonzero" fill-opacity="1" /><path clip-path="url(#clip550)" d="M107.821 641.304 Q104.209 641.304 102.381 644.869 Q100.575 648.41 100.575 655.54 Q100.575 662.647 102.381 666.211 Q104.209 669.753 107.821 669.753 Q111.455 669.753 113.26 666.211 Q115.089 662.647 115.089 655.54 Q115.089 648.41 113.26 644.869 Q111.455 641.304 107.821 641.304 M107.821 637.6 Q113.631 637.6 116.686 642.207 Q119.765 646.79 119.765 655.54 Q119.765 664.267 116.686 668.873 Q113.631 673.457 107.821 673.457 Q102.01 673.457 98.9317 668.873 Q95.8761 664.267 95.8761 655.54 Q95.8761 646.79 98.9317 642.207 Q102.01 637.6 107.821 637.6 Z" fill="#000000" fill-rule="nonzero" fill-opacity="1" /><path clip-path="url(#clip550)" d="M57.6125 455.988 L73.9318 455.988 L73.9318 459.924 L51.9875 459.924 L51.9875 455.988 Q54.6495 453.234 59.2328 448.604 Q63.8393 443.951 65.0198 442.609 Q67.2652 440.086 68.1448 438.35 Q69.0476 436.59 69.0476 434.901 Q69.0476 432.146 67.1032 430.41 Q65.1819 428.674 62.08 428.674 Q59.881 428.674 57.4273 429.438 Q54.9967 430.202 52.219 431.752 L52.219 427.03 Q55.043 425.896 57.4967 425.317 Q59.9504 424.739 61.9874 424.739 Q67.3578 424.739 70.5522 427.424 Q73.7466 430.109 73.7466 434.6 Q73.7466 436.729 72.9365 438.651 Q72.1494 440.549 70.0429 443.141 Q69.4642 443.813 66.3624 447.03 Q63.2606 450.225 57.6125 455.988 Z" fill="#000000" fill-rule="nonzero" fill-opacity="1" /><path clip-path="url(#clip550)" d="M83.7466 454.044 L88.6308 454.044 L88.6308 459.924 L83.7466 459.924 L83.7466 454.044 Z" fill="#000000" fill-rule="nonzero" fill-opacity="1" /><path clip-path="url(#clip550)" d="M98.8622 425.364 L117.219 425.364 L117.219 429.299 L103.145 429.299 L103.145 437.771 Q104.163 437.424 105.182 437.262 Q106.2 437.076 107.219 437.076 Q113.006 437.076 116.385 440.248 Q119.765 443.419 119.765 448.836 Q119.765 454.414 116.293 457.516 Q112.82 460.595 106.501 460.595 Q104.325 460.595 102.057 460.224 Q99.8113 459.854 97.4039 459.113 L97.4039 454.414 Q99.4872 455.549 101.709 456.104 Q103.932 456.66 106.408 456.66 Q110.413 456.66 112.751 454.553 Q115.089 452.447 115.089 448.836 Q115.089 445.225 112.751 443.118 Q110.413 441.012 106.408 441.012 Q104.534 441.012 102.659 441.428 Q100.807 441.845 98.8622 442.725 L98.8622 425.364 Z" fill="#000000" fill-rule="nonzero" fill-opacity="1" /><path clip-path="url(#clip550)" d="M66.7559 228.428 Q70.1124 229.145 71.9874 231.414 Q73.8855 233.682 73.8855 237.016 Q73.8855 242.131 70.367 244.932 Q66.8485 247.733 60.3671 247.733 Q58.1912 247.733 55.8764 247.293 Q53.5847 246.877 51.131 246.02 L51.131 241.506 Q53.0754 242.641 55.3903 243.219 Q57.7051 243.798 60.2282 243.798 Q64.6263 243.798 66.918 242.062 Q69.2328 240.326 69.2328 237.016 Q69.2328 233.96 67.08 232.247 Q64.9504 230.511 61.131 230.511 L57.1032 230.511 L57.1032 226.668 L61.3161 226.668 Q64.7652 226.668 66.5939 225.303 Q68.4226 223.914 68.4226 221.321 Q68.4226 218.659 66.5245 217.247 Q64.6495 215.812 61.131 215.812 Q59.2097 215.812 57.0106 216.229 Q54.8115 216.645 52.1727 217.525 L52.1727 213.358 Q54.8347 212.618 57.1495 212.247 Q59.4875 211.877 61.5476 211.877 Q66.8717 211.877 69.9735 214.307 Q73.0753 216.715 73.0753 220.835 Q73.0753 223.705 71.4318 225.696 Q69.7883 227.664 66.7559 228.428 Z" fill="#000000" fill-rule="nonzero" fill-opacity="1" /><path clip-path="url(#clip550)" d="M82.7512 241.182 L87.6354 241.182 L87.6354 247.062 L82.7512 247.062 L82.7512 241.182 Z" fill="#000000" fill-rule="nonzero" fill-opacity="1" /><path clip-path="url(#clip550)" d="M107.821 215.58 Q104.209 215.58 102.381 219.145 Q100.575 222.687 100.575 229.817 Q100.575 236.923 102.381 240.488 Q104.209 244.029 107.821 244.029 Q111.455 244.029 113.26 240.488 Q115.089 236.923 115.089 229.817 Q115.089 222.687 113.26 219.145 Q111.455 215.58 107.821 215.58 M107.821 211.877 Q113.631 211.877 116.686 216.483 Q119.765 221.067 119.765 229.817 Q119.765 238.543 116.686 243.15 Q113.631 247.733 107.821 247.733 Q102.01 247.733 98.9317 243.15 Q95.8761 238.543 95.8761 229.817 Q95.8761 221.067 98.9317 216.483 Q102.01 211.877 107.821 211.877 Z" fill="#000000" fill-rule="nonzero" fill-opacity="1" /><path clip-path="url(#clip551)" d="M217.944 1294.09 L425.207 1341 L632.47 1394.31 L839.734 1436.03 L1047 1445.72 L1254.26 1440 L1461.52 1443.2 L1668.79 1441.15 L1876.05 1434.6 L2083.31 1419.68 L2290.58 1408.26 L2290.58 87.9763 L2083.31 328.204 L1876.05 350.104 L1668.79 445.026 L1461.52 660.908 L1254.26 802.274 L1047 1016.48 L839.734 1115.61 L632.47 1174.63 L425.207 1230.23 L217.944 1294.09  Z" fill="#009af9" fill-rule="evenodd" fill-opacity="0.2"/>
<polyline clip-path="url(#clip551)" style="stroke:#009af9; stroke-linecap:round; stroke-linejoin:round; stroke-width:12; stroke-opacity:1; fill:none" points="217.944,1294.09 425.207,1289.85 632.47,1291.22 839.734,1282.59 1047,1247.7 1254.26,1215.03 1461.52,1136.92 1668.79,1137.75 1876.05,1191.65 2083.31,1180.3 2290.58,1162.54 "/>
</svg>
