<?xml version="1.0" encoding="utf-8"?>
<svg xmlns="http://www.w3.org/2000/svg" xmlns:xlink="http://www.w3.org/1999/xlink" width="600" height="400" viewBox="0 0 2400 1600">
<defs>
  <clipPath id="clip220">
    <rect x="0" y="0" width="2400" height="1600"/>
  </clipPath>
</defs>
<path clip-path="url(#clip220)" d="M0 1600 L2400 1600 L2400 0 L0 0  Z" fill="#ffffff" fill-rule="evenodd" fill-opacity="1"/>
<defs>
  <clipPath id="clip221">
    <rect x="186" y="47" width="2167" height="1440"/>
  </clipPath>
</defs>
<path clip-path="url(#clip220)" d="M186.274 1486.45 L2352.76 1486.45 L2352.76 47.2441 L186.274 47.2441  Z" fill="#ffffff" fill-rule="evenodd" fill-opacity="1"/>
<polyline clip-path="url(#clip221)" style="stroke:#000000; stroke-linecap:round; stroke-linejoin:round; stroke-width:2; stroke-opacity:0.1; fill:none" points="247.59,1486.45 247.59,47.2441 "/>
<polyline clip-path="url(#clip221)" style="stroke:#000000; stroke-linecap:round; stroke-linejoin:round; stroke-width:2; stroke-opacity:0.1; fill:none" points="758.552,1486.45 758.552,47.2441 "/>
<polyline clip-path="url(#clip221)" style="stroke:#000000; stroke-linecap:round; stroke-linejoin:round; stroke-width:2; stroke-opacity:0.1; fill:none" points="1269.51,1486.45 1269.51,47.2441 "/>
<polyline clip-path="url(#clip221)" style="stroke:#000000; stroke-linecap:round; stroke-linejoin:round; stroke-width:2; stroke-opacity:0.1; fill:none" points="1780.48,1486.45 1780.48,47.2441 "/>
<polyline clip-path="url(#clip221)" style="stroke:#000000; stroke-linecap:round; stroke-linejoin:round; stroke-width:2; stroke-opacity:0.1; fill:none" points="2291.44,1486.45 2291.44,47.2441 "/>
<polyline clip-path="url(#clip221)" style="stroke:#000000; stroke-linecap:round; stroke-linejoin:round; stroke-width:2; stroke-opacity:0.1; fill:none" points="186.274,1367.69 2352.76,1367.69 "/>
<polyline clip-path="url(#clip221)" style="stroke:#000000; stroke-linecap:round; stroke-linejoin:round; stroke-width:2; stroke-opacity:0.1; fill:none" points="186.274,1115.59 2352.76,1115.59 "/>
<polyline clip-path="url(#clip221)" style="stroke:#000000; stroke-linecap:round; stroke-linejoin:round; stroke-width:2; stroke-opacity:0.1; fill:none" points="186.274,863.486 2352.76,863.486 "/>
<polyline clip-path="url(#clip221)" style="stroke:#000000; stroke-linecap:round; stroke-linejoin:round; stroke-width:2; stroke-opacity:0.1; fill:none" points="186.274,611.384 2352.76,611.384 "/>
<polyline clip-path="url(#clip221)" style="stroke:#000000; stroke-linecap:round; stroke-linejoin:round; stroke-width:2; stroke-opacity:0.1; fill:none" points="186.274,359.281 2352.76,359.281 "/>
<polyline clip-path="url(#clip221)" style="stroke:#000000; stroke-linecap:round; stroke-linejoin:round; stroke-width:2; stroke-opacity:0.1; fill:none" points="186.274,107.179 2352.76,107.179 "/>
<polyline clip-path="url(#clip220)" style="stroke:#000000; stroke-linecap:round; stroke-linejoin:round; stroke-width:4; stroke-opacity:1; fill:none" points="186.274,1486.45 2352.76,1486.45 "/>
<polyline clip-path="url(#clip220)" style="stroke:#000000; stroke-linecap:round; stroke-linejoin:round; stroke-width:4; stroke-opacity:1; fill:none" points="247.59,1486.45 247.59,1467.55 "/>
<polyline clip-path="url(#clip220)" style="stroke:#000000; stroke-linecap:round; stroke-linejoin:round; stroke-width:4; stroke-opacity:1; fill:none" points="758.552,1486.45 758.552,1467.55 "/>
<polyline clip-path="url(#clip220)" style="stroke:#000000; stroke-linecap:round; stroke-linejoin:round; stroke-width:4; stroke-opacity:1; fill:none" points="1269.51,1486.45 1269.51,1467.55 "/>
<polyline clip-path="url(#clip220)" style="stroke:#000000; stroke-linecap:round; stroke-linejoin:round; stroke-width:4; stroke-opacity:1; fill:none" points="1780.48,1486.45 1780.48,1467.55 "/>
<polyline clip-path="url(#clip220)" style="stroke:#000000; stroke-linecap:round; stroke-linejoin:round; stroke-width:4; stroke-opacity:1; fill:none" points="2291.44,1486.45 2291.44,1467.55 "/>
<path clip-path="url(#clip220)" d="M209.893 1517.37 Q206.282 1517.37 204.453 1520.93 Q202.648 1524.47 202.648 1531.6 Q202.648 1538.71 204.453 1542.27 Q206.282 1545.82 209.893 1545.82 Q213.527 1545.82 215.333 1542.27 Q217.161 1538.71 217.161 1531.6 Q217.161 1524.47 215.333 1520.93 Q213.527 1517.37 209.893 1517.37 M209.893 1513.66 Q215.703 1513.66 218.759 1518.27 Q221.837 1522.85 221.837 1531.6 Q221.837 1540.33 218.759 1544.94 Q215.703 1549.52 209.893 1549.52 Q204.083 1549.52 201.004 1544.94 Q197.949 1540.33 197.949 1531.6 Q197.949 1522.85 201.004 1518.27 Q204.083 1513.66 209.893 1513.66 Z" fill="#000000" fill-rule="nonzero" fill-opacity="1" /><path clip-path="url(#clip220)" d="M230.055 1542.97 L234.939 1542.97 L234.939 1548.85 L230.055 1548.85 L230.055 1542.97 Z" fill="#000000" fill-rule="nonzero" fill-opacity="1" /><path clip-path="url(#clip220)" d="M255.124 1517.37 Q251.513 1517.37 249.684 1520.93 Q247.879 1524.47 247.879 1531.6 Q247.879 1538.71 249.684 1542.27 Q251.513 1545.82 255.124 1545.82 Q258.758 1545.82 260.564 1542.27 Q262.393 1538.71 262.393 1531.6 Q262.393 1524.47 260.564 1520.93 Q258.758 1517.37 255.124 1517.37 M255.124 1513.66 Q260.934 1513.66 263.99 1518.27 Q267.069 1522.85 267.069 1531.6 Q267.069 1540.33 263.99 1544.94 Q260.934 1549.52 255.124 1549.52 Q249.314 1549.52 246.235 1544.94 Q243.18 1540.33 243.18 1531.6 Q243.18 1522.85 246.235 1518.27 Q249.314 1513.66 255.124 1513.66 Z" fill="#000000" fill-rule="nonzero" fill-opacity="1" /><path clip-path="url(#clip220)" d="M285.286 1517.37 Q281.675 1517.37 279.846 1520.93 Q278.041 1524.47 278.041 1531.6 Q278.041 1538.71 279.846 1542.27 Q281.675 1545.82 285.286 1545.82 Q288.92 1545.82 290.726 1542.27 Q292.555 1538.71 292.555 1531.6 Q292.555 1524.47 290.726 1520.93 Q288.92 1517.37 285.286 1517.37 M285.286 1513.66 Q291.096 1513.66 294.152 1518.27 Q297.23 1522.85 297.23 1531.6 Q297.23 1540.33 294.152 1544.94 Q291.096 1549.52 285.286 1549.52 Q279.476 1549.52 276.397 1544.94 Q273.342 1540.33 273.342 1531.6 Q273.342 1522.85 276.397 1518.27 Q279.476 1513.66 285.286 1513.66 Z" fill="#000000" fill-rule="nonzero" fill-opacity="1" /><path clip-path="url(#clip220)" d="M721.353 1517.37 Q717.742 1517.37 715.914 1520.93 Q714.108 1524.47 714.108 1531.6 Q714.108 1538.71 715.914 1542.27 Q717.742 1545.82 721.353 1545.82 Q724.988 1545.82 726.793 1542.27 Q728.622 1538.71 728.622 1531.6 Q728.622 1524.47 726.793 1520.93 Q724.988 1517.37 721.353 1517.37 M721.353 1513.66 Q727.164 1513.66 730.219 1518.27 Q733.298 1522.85 733.298 1531.6 Q733.298 1540.33 730.219 1544.94 Q727.164 1549.52 721.353 1549.52 Q715.543 1549.52 712.465 1544.94 Q709.409 1540.33 709.409 1531.6 Q709.409 1522.85 712.465 1518.27 Q715.543 1513.66 721.353 1513.66 Z" fill="#000000" fill-rule="nonzero" fill-opacity="1" /><path clip-path="url(#clip220)" d="M741.515 1542.97 L746.4 1542.97 L746.4 1548.85 L741.515 1548.85 L741.515 1542.97 Z" fill="#000000" fill-rule="nonzero" fill-opacity="1" /><path clip-path="url(#clip220)" d="M760.612 1544.91 L776.932 1544.91 L776.932 1548.85 L754.987 1548.85 L754.987 1544.91 Q757.649 1542.16 762.233 1537.53 Q766.839 1532.88 768.02 1531.53 Q770.265 1529.01 771.145 1527.27 Q772.048 1525.51 772.048 1523.82 Q772.048 1521.07 770.103 1519.33 Q768.182 1517.6 765.08 1517.6 Q762.881 1517.6 760.427 1518.36 Q757.997 1519.13 755.219 1520.68 L755.219 1515.95 Q758.043 1514.82 760.497 1514.24 Q762.95 1513.66 764.987 1513.66 Q770.358 1513.66 773.552 1516.35 Q776.747 1519.03 776.747 1523.52 Q776.747 1525.65 775.936 1527.57 Q775.149 1529.47 773.043 1532.07 Q772.464 1532.74 769.362 1535.95 Q766.261 1539.15 760.612 1544.91 Z" fill="#000000" fill-rule="nonzero" fill-opacity="1" /><path clip-path="url(#clip220)" d="M786.793 1514.29 L805.149 1514.29 L805.149 1518.22 L791.075 1518.22 L791.075 1526.7 Q792.094 1526.35 793.112 1526.19 Q794.131 1526 795.149 1526 Q800.936 1526 804.316 1529.17 Q807.695 1532.34 807.695 1537.76 Q807.695 1543.34 804.223 1546.44 Q800.751 1549.52 794.432 1549.52 Q792.256 1549.52 789.987 1549.15 Q787.742 1548.78 785.335 1548.04 L785.335 1543.34 Q787.418 1544.47 789.64 1545.03 Q791.862 1545.58 794.339 1545.58 Q798.344 1545.58 800.682 1543.48 Q803.02 1541.37 803.02 1537.76 Q803.02 1534.15 800.682 1532.04 Q798.344 1529.94 794.339 1529.94 Q792.464 1529.94 790.589 1530.35 Q788.737 1530.77 786.793 1531.65 L786.793 1514.29 Z" fill="#000000" fill-rule="nonzero" fill-opacity="1" /><path clip-path="url(#clip220)" d="M1231.82 1517.37 Q1228.21 1517.37 1226.38 1520.93 Q1224.57 1524.47 1224.57 1531.6 Q1224.57 1538.71 1226.38 1542.27 Q1228.21 1545.82 1231.82 1545.82 Q1235.45 1545.82 1237.26 1542.27 Q1239.09 1538.71 1239.09 1531.6 Q1239.09 1524.47 1237.26 1520.93 Q1235.45 1517.37 1231.82 1517.37 M1231.82 1513.66 Q1237.63 1513.66 1240.68 1518.27 Q1243.76 1522.85 1243.76 1531.6 Q1243.76 1540.33 1240.68 1544.94 Q1237.63 1549.52 1231.82 1549.52 Q1226.01 1549.52 1222.93 1544.94 Q1219.87 1540.33 1219.87 1531.6 Q1219.87 1522.85 1222.93 1518.27 Q1226.01 1513.66 1231.82 1513.66 Z" fill="#000000" fill-rule="nonzero" fill-opacity="1" /><path clip-path="url(#clip220)" d="M1251.98 1542.97 L1256.86 1542.97 L1256.86 1548.85 L1251.98 1548.85 L1251.98 1542.97 Z" fill="#000000" fill-rule="nonzero" fill-opacity="1" /><path clip-path="url(#clip220)" d="M1267.1 1514.29 L1285.45 1514.29 L1285.45 1518.22 L1271.38 1518.22 L1271.38 1526.7 Q1272.4 1526.35 1273.42 1526.19 Q1274.43 1526 1275.45 1526 Q1281.24 1526 1284.62 1529.17 Q1288 1532.34 1288 1537.76 Q1288 1543.34 1284.53 1546.44 Q1281.05 1549.52 1274.73 1549.52 Q1272.56 1549.52 1270.29 1549.15 Q1268.05 1548.78 1265.64 1548.04 L1265.64 1543.34 Q1267.72 1544.47 1269.94 1545.03 Q1272.17 1545.58 1274.64 1545.58 Q1278.65 1545.58 1280.98 1543.48 Q1283.32 1541.37 1283.32 1537.76 Q1283.32 1534.15 1280.98 1532.04 Q1278.65 1529.94 1274.64 1529.94 Q1272.77 1529.94 1270.89 1530.35 Q1269.04 1530.77 1267.1 1531.65 L1267.1 1514.29 Z" fill="#000000" fill-rule="nonzero" fill-opacity="1" /><path clip-path="url(#clip220)" d="M1307.21 1517.37 Q1303.6 1517.37 1301.77 1520.93 Q1299.97 1524.47 1299.97 1531.6 Q1299.97 1538.71 1301.77 1542.27 Q1303.6 1545.82 1307.21 1545.82 Q1310.85 1545.82 1312.65 1542.27 Q1314.48 1538.71 1314.48 1531.6 Q1314.48 1524.47 1312.65 1520.93 Q1310.85 1517.37 1307.21 1517.37 M1307.21 1513.66 Q1313.02 1513.66 1316.08 1518.27 Q1319.16 1522.85 1319.16 1531.6 Q1319.16 1540.33 1316.08 1544.94 Q1313.02 1549.52 1307.21 1549.52 Q1301.4 1549.52 1298.32 1544.94 Q1295.27 1540.33 1295.27 1531.6 Q1295.27 1522.85 1298.32 1518.27 Q1301.4 1513.66 1307.21 1513.66 Z" fill="#000000" fill-rule="nonzero" fill-opacity="1" /><path clip-path="url(#clip220)" d="M1743.28 1517.37 Q1739.67 1517.37 1737.84 1520.93 Q1736.03 1524.47 1736.03 1531.6 Q1736.03 1538.71 1737.84 1542.27 Q1739.67 1545.82 1743.28 1545.82 Q1746.91 1545.82 1748.72 1542.27 Q1750.55 1538.71 1750.55 1531.6 Q1750.55 1524.47 1748.72 1520.93 Q1746.91 1517.37 1743.28 1517.37 M1743.28 1513.66 Q1749.09 1513.66 1752.14 1518.27 Q1755.22 1522.85 1755.22 1531.6 Q1755.22 1540.33 1752.14 1544.94 Q1749.09 1549.52 1743.28 1549.52 Q1737.47 1549.52 1734.39 1544.94 Q1731.33 1540.33 1731.33 1531.6 Q1731.33 1522.85 1734.39 1518.27 Q1737.47 1513.66 1743.28 1513.66 Z" fill="#000000" fill-rule="nonzero" fill-opacity="1" /><path clip-path="url(#clip220)" d="M1763.44 1542.97 L1768.32 1542.97 L1768.32 1548.85 L1763.44 1548.85 L1763.44 1542.97 Z" fill="#000000" fill-rule="nonzero" fill-opacity="1" /><path clip-path="url(#clip220)" d="M1777.33 1514.29 L1799.55 1514.29 L1799.55 1516.28 L1787.01 1548.85 L1782.12 1548.85 L1793.93 1518.22 L1777.33 1518.22 L1777.33 1514.29 Z" fill="#000000" fill-rule="nonzero" fill-opacity="1" /><path clip-path="url(#clip220)" d="M1808.72 1514.29 L1827.07 1514.29 L1827.07 1518.22 L1813 1518.22 L1813 1526.7 Q1814.02 1526.35 1815.04 1526.19 Q1816.06 1526 1817.07 1526 Q1822.86 1526 1826.24 1529.17 Q1829.62 1532.34 1829.62 1537.76 Q1829.62 1543.34 1826.15 1546.44 Q1822.68 1549.52 1816.36 1549.52 Q1814.18 1549.52 1811.91 1549.15 Q1809.67 1548.78 1807.26 1548.04 L1807.26 1543.34 Q1809.34 1544.47 1811.57 1545.03 Q1813.79 1545.58 1816.26 1545.58 Q1820.27 1545.58 1822.61 1543.48 Q1824.95 1541.37 1824.95 1537.76 Q1824.95 1534.15 1822.61 1532.04 Q1820.27 1529.94 1816.26 1529.94 Q1814.39 1529.94 1812.51 1530.35 Q1810.66 1530.77 1808.72 1531.65 L1808.72 1514.29 Z" fill="#000000" fill-rule="nonzero" fill-opacity="1" /><path clip-path="url(#clip220)" d="M2243.51 1544.91 L2251.15 1544.91 L2251.15 1518.55 L2242.84 1520.21 L2242.84 1515.95 L2251.1 1514.29 L2255.78 1514.29 L2255.78 1544.91 L2263.42 1544.91 L2263.42 1548.85 L2243.51 1548.85 L2243.51 1544.91 Z" fill="#000000" fill-rule="nonzero" fill-opacity="1" /><path clip-path="url(#clip220)" d="M2272.86 1542.97 L2277.75 1542.97 L2277.75 1548.85 L2272.86 1548.85 L2272.86 1542.97 Z" fill="#000000" fill-rule="nonzero" fill-opacity="1" /><path clip-path="url(#clip220)" d="M2297.93 1517.37 Q2294.32 1517.37 2292.49 1520.93 Q2290.69 1524.47 2290.69 1531.6 Q2290.69 1538.71 2292.49 1542.27 Q2294.32 1545.82 2297.93 1545.82 Q2301.57 1545.82 2303.37 1542.27 Q2305.2 1538.71 2305.2 1531.6 Q2305.2 1524.47 2303.37 1520.93 Q2301.57 1517.37 2297.93 1517.37 M2297.93 1513.66 Q2303.74 1513.66 2306.8 1518.27 Q2309.88 1522.85 2309.88 1531.6 Q2309.88 1540.33 2306.8 1544.94 Q2303.74 1549.52 2297.93 1549.52 Q2292.12 1549.52 2289.04 1544.94 Q2285.99 1540.33 2285.99 1531.6 Q2285.99 1522.85 2289.04 1518.27 Q2292.12 1513.66 2297.93 1513.66 Z" fill="#000000" fill-rule="nonzero" fill-opacity="1" /><path clip-path="url(#clip220)" d="M2328.1 1517.37 Q2324.48 1517.37 2322.66 1520.93 Q2320.85 1524.47 2320.85 1531.6 Q2320.85 1538.71 2322.66 1542.27 Q2324.48 1545.82 2328.1 1545.82 Q2331.73 1545.82 2333.54 1542.27 Q2335.36 1538.71 2335.36 1531.6 Q2335.36 1524.47 2333.54 1520.93 Q2331.73 1517.37 2328.1 1517.37 M2328.1 1513.66 Q2333.91 1513.66 2336.96 1518.27 Q2340.04 1522.85 2340.04 1531.6 Q2340.04 1540.33 2336.96 1544.94 Q2333.91 1549.52 2328.1 1549.52 Q2322.29 1549.52 2319.21 1544.94 Q2316.15 1540.33 2316.15 1531.6 Q2316.15 1522.85 2319.21 1518.27 Q2322.29 1513.66 2328.1 1513.66 Z" fill="#000000" fill-rule="nonzero" fill-opacity="1" /><polyline clip-path="url(#clip220)" style="stroke:#000000; stroke-linecap:round; stroke-linejoin:round; stroke-width:4; stroke-opacity:1; fill:none" points="186.274,1486.45 186.274,47.2441 "/>
<polyline clip-path="url(#clip220)" style="stroke:#000000; stroke-linecap:round; stroke-linejoin:round; stroke-width:4; stroke-opacity:1; fill:none" points="186.274,1367.69 205.172,1367.69 "/>
<polyline clip-path="url(#clip220)" style="stroke:#000000; stroke-linecap:round; stroke-linejoin:round; stroke-width:4; stroke-opacity:1; fill:none" points="186.274,1115.59 205.172,1115.59 "/>
<polyline clip-path="url(#clip220)" style="stroke:#000000; stroke-linecap:round; stroke-linejoin:round; stroke-width:4; stroke-opacity:1; fill:none" points="186.274,863.486 205.172,863.486 "/>
<polyline clip-path="url(#clip220)" style="stroke:#000000; stroke-linecap:round; stroke-linejoin:round; stroke-width:4; stroke-opacity:1; fill:none" points="186.274,611.384 205.172,611.384 "/>
<polyline clip-path="url(#clip220)" style="stroke:#000000; stroke-linecap:round; stroke-linejoin:round; stroke-width:4; stroke-opacity:1; fill:none" points="186.274,359.281 205.172,359.281 "/>
<polyline clip-path="url(#clip220)" style="stroke:#000000; stroke-linecap:round; stroke-linejoin:round; stroke-width:4; stroke-opacity:1; fill:none" points="186.274,107.179 205.172,107.179 "/>
<path clip-path="url(#clip220)" d="M62.9365 1353.49 Q59.3254 1353.49 57.4967 1357.05 Q55.6912 1360.6 55.6912 1367.73 Q55.6912 1374.83 57.4967 1378.4 Q59.3254 1381.94 62.9365 1381.94 Q66.5707 1381.94 68.3763 1378.4 Q70.205 1374.83 70.205 1367.73 Q70.205 1360.6 68.3763 1357.05 Q66.5707 1353.49 62.9365 1353.49 M62.9365 1349.79 Q68.7467 1349.79 71.8022 1354.39 Q74.8809 1358.98 74.8809 1367.73 Q74.8809 1376.45 71.8022 1381.06 Q68.7467 1385.64 62.9365 1385.64 Q57.1264 1385.64 54.0477 1381.06 Q50.9921 1376.45 50.9921 1367.73 Q50.9921 1358.98 54.0477 1354.39 Q57.1264 1349.79 62.9365 1349.79 Z" fill="#000000" fill-rule="nonzero" fill-opacity="1" /><path clip-path="url(#clip220)" d="M83.0984 1379.09 L87.9827 1379.09 L87.9827 1384.97 L83.0984 1384.97 L83.0984 1379.09 Z" fill="#000000" fill-rule="nonzero" fill-opacity="1" /><path clip-path="url(#clip220)" d="M98.2141 1350.41 L116.57 1350.41 L116.57 1354.35 L102.496 1354.35 L102.496 1362.82 Q103.515 1362.47 104.534 1362.31 Q105.552 1362.12 106.571 1362.12 Q112.358 1362.12 115.737 1365.3 Q119.117 1368.47 119.117 1373.88 Q119.117 1379.46 115.645 1382.56 Q112.172 1385.64 105.853 1385.64 Q103.677 1385.64 101.409 1385.27 Q99.1632 1384.9 96.7558 1384.16 L96.7558 1379.46 Q98.8391 1380.6 101.061 1381.15 Q103.284 1381.71 105.76 1381.71 Q109.765 1381.71 112.103 1379.6 Q114.441 1377.49 114.441 1373.88 Q114.441 1370.27 112.103 1368.17 Q109.765 1366.06 105.76 1366.06 Q103.885 1366.06 102.01 1366.48 Q100.159 1366.89 98.2141 1367.77 L98.2141 1350.41 Z" fill="#000000" fill-rule="nonzero" fill-opacity="1" /><path clip-path="url(#clip220)" d="M138.33 1353.49 Q134.719 1353.49 132.89 1357.05 Q131.084 1360.6 131.084 1367.73 Q131.084 1374.83 132.89 1378.4 Q134.719 1381.94 138.33 1381.94 Q141.964 1381.94 143.769 1378.4 Q145.598 1374.83 145.598 1367.73 Q145.598 1360.6 143.769 1357.05 Q141.964 1353.49 138.33 1353.49 M138.33 1349.79 Q144.14 1349.79 147.195 1354.39 Q150.274 1358.98 150.274 1367.73 Q150.274 1376.45 147.195 1381.06 Q144.14 1385.64 138.33 1385.64 Q132.519 1385.64 129.441 1381.06 Q126.385 1376.45 126.385 1367.73 Q126.385 1358.98 129.441 1354.39 Q132.519 1349.79 138.33 1349.79 Z" fill="#000000" fill-rule="nonzero" fill-opacity="1" /><path clip-path="url(#clip220)" d="M63.9319 1101.39 Q60.3208 1101.39 58.4921 1104.95 Q56.6865 1108.49 56.6865 1115.62 Q56.6865 1122.73 58.4921 1126.29 Q60.3208 1129.84 63.9319 1129.84 Q67.5661 1129.84 69.3717 1126.29 Q71.2004 1122.73 71.2004 1115.62 Q71.2004 1108.49 69.3717 1104.95 Q67.5661 1101.39 63.9319 1101.39 M63.9319 1097.68 Q69.742 1097.68 72.7976 1102.29 Q75.8763 1106.87 75.8763 1115.62 Q75.8763 1124.35 72.7976 1128.96 Q69.742 1133.54 63.9319 1133.54 Q58.1217 1133.54 55.043 1128.96 Q51.9875 1124.35 51.9875 1115.62 Q51.9875 1106.87 55.043 1102.29 Q58.1217 1097.68 63.9319 1097.68 Z" fill="#000000" fill-rule="nonzero" fill-opacity="1" /><path clip-path="url(#clip220)" d="M84.0938 1126.99 L88.978 1126.99 L88.978 1132.87 L84.0938 1132.87 L84.0938 1126.99 Z" fill="#000000" fill-rule="nonzero" fill-opacity="1" /><path clip-path="url(#clip220)" d="M97.9826 1098.31 L120.205 1098.31 L120.205 1100.3 L107.658 1132.87 L102.774 1132.87 L114.58 1102.24 L97.9826 1102.24 L97.9826 1098.31 Z" fill="#000000" fill-rule="nonzero" fill-opacity="1" /><path clip-path="url(#clip220)" d="M129.371 1098.31 L147.728 1098.31 L147.728 1102.24 L133.654 1102.24 L133.654 1110.72 Q134.672 1110.37 135.691 1110.21 Q136.709 1110.02 137.728 1110.02 Q143.515 1110.02 146.894 1113.19 Q150.274 1116.36 150.274 1121.78 Q150.274 1127.36 146.802 1130.46 Q143.33 1133.54 137.01 1133.54 Q134.834 1133.54 132.566 1133.17 Q130.32 1132.8 127.913 1132.06 L127.913 1127.36 Q129.996 1128.49 132.219 1129.05 Q134.441 1129.6 136.918 1129.6 Q140.922 1129.6 143.26 1127.5 Q145.598 1125.39 145.598 1121.78 Q145.598 1118.17 143.26 1116.06 Q140.922 1113.96 136.918 1113.96 Q135.043 1113.96 133.168 1114.37 Q131.316 1114.79 129.371 1115.67 L129.371 1098.31 Z" fill="#000000" fill-rule="nonzero" fill-opacity="1" /><path clip-path="url(#clip220)" d="M53.7467 876.831 L61.3856 876.831 L61.3856 850.465 L53.0754 852.132 L53.0754 847.873 L61.3393 846.206 L66.0152 846.206 L66.0152 876.831 L73.654 876.831 L73.654 880.766 L53.7467 880.766 L53.7467 876.831 Z" fill="#000000" fill-rule="nonzero" fill-opacity="1" /><path clip-path="url(#clip220)" d="M83.0984 874.886 L87.9827 874.886 L87.9827 880.766 L83.0984 880.766 L83.0984 874.886 Z" fill="#000000" fill-rule="nonzero" fill-opacity="1" /><path clip-path="url(#clip220)" d="M108.168 849.285 Q104.557 849.285 102.728 852.85 Q100.922 856.391 100.922 863.521 Q100.922 870.627 102.728 874.192 Q104.557 877.734 108.168 877.734 Q111.802 877.734 113.608 874.192 Q115.436 870.627 115.436 863.521 Q115.436 856.391 113.608 852.85 Q111.802 849.285 108.168 849.285 M108.168 845.581 Q113.978 845.581 117.033 850.188 Q120.112 854.771 120.112 863.521 Q120.112 872.248 117.033 876.854 Q113.978 881.437 108.168 881.437 Q102.358 881.437 99.2789 876.854 Q96.2234 872.248 96.2234 863.521 Q96.2234 854.771 99.2789 850.188 Q102.358 845.581 108.168 845.581 Z" fill="#000000" fill-rule="nonzero" fill-opacity="1" /><path clip-path="url(#clip220)" d="M138.33 849.285 Q134.719 849.285 132.89 852.85 Q131.084 856.391 131.084 863.521 Q131.084 870.627 132.89 874.192 Q134.719 877.734 138.33 877.734 Q141.964 877.734 143.769 874.192 Q145.598 870.627 145.598 863.521 Q145.598 856.391 143.769 852.85 Q141.964 849.285 138.33 849.285 M138.33 845.581 Q144.14 845.581 147.195 850.188 Q150.274 854.771 150.274 863.521 Q150.274 872.248 147.195 876.854 Q144.14 881.437 138.33 881.437 Q132.519 881.437 129.441 876.854 Q126.385 872.248 126.385 863.521 Q126.385 854.771 129.441 850.188 Q132.519 845.581 138.33 845.581 Z" fill="#000000" fill-rule="nonzero" fill-opacity="1" /><path clip-path="url(#clip220)" d="M54.7421 624.729 L62.381 624.729 L62.381 598.363 L54.0708 600.03 L54.0708 595.77 L62.3347 594.104 L67.0106 594.104 L67.0106 624.729 L74.6494 624.729 L74.6494 628.664 L54.7421 628.664 L54.7421 624.729 Z" fill="#000000" fill-rule="nonzero" fill-opacity="1" /><path clip-path="url(#clip220)" d="M84.0938 622.784 L88.978 622.784 L88.978 628.664 L84.0938 628.664 L84.0938 622.784 Z" fill="#000000" fill-rule="nonzero" fill-opacity="1" /><path clip-path="url(#clip220)" d="M103.191 624.729 L119.51 624.729 L119.51 628.664 L97.566 628.664 L97.566 624.729 Q100.228 621.974 104.811 617.344 Q109.418 612.692 110.598 611.349 Q112.844 608.826 113.723 607.09 Q114.626 605.331 114.626 603.641 Q114.626 600.886 112.682 599.15 Q110.76 597.414 107.658 597.414 Q105.459 597.414 103.006 598.178 Q100.575 598.942 97.7974 600.493 L97.7974 595.77 Q100.621 594.636 103.075 594.057 Q105.529 593.479 107.566 593.479 Q112.936 593.479 116.131 596.164 Q119.325 598.849 119.325 603.34 Q119.325 605.469 118.515 607.391 Q117.728 609.289 115.621 611.881 Q115.043 612.553 111.941 615.77 Q108.839 618.965 103.191 624.729 Z" fill="#000000" fill-rule="nonzero" fill-opacity="1" /><path clip-path="url(#clip220)" d="M129.371 594.104 L147.728 594.104 L147.728 598.039 L133.654 598.039 L133.654 606.511 Q134.672 606.164 135.691 606.002 Q136.709 605.817 137.728 605.817 Q143.515 605.817 146.894 608.988 Q150.274 612.159 150.274 617.576 Q150.274 623.154 146.802 626.256 Q143.33 629.335 137.01 629.335 Q134.834 629.335 132.566 628.965 Q130.32 628.594 127.913 627.854 L127.913 623.154 Q129.996 624.289 132.219 624.844 Q134.441 625.4 136.918 625.4 Q140.922 625.4 143.26 623.293 Q145.598 621.187 145.598 617.576 Q145.598 613.965 143.26 611.858 Q140.922 609.752 136.918 609.752 Q135.043 609.752 133.168 610.168 Q131.316 610.585 129.371 611.465 L129.371 594.104 Z" fill="#000000" fill-rule="nonzero" fill-opacity="1" /><path clip-path="url(#clip220)" d="M53.7467 372.626 L61.3856 372.626 L61.3856 346.261 L53.0754 347.927 L53.0754 343.668 L61.3393 342.001 L66.0152 342.001 L66.0152 372.626 L73.654 372.626 L73.654 376.561 L53.7467 376.561 L53.7467 372.626 Z" fill="#000000" fill-rule="nonzero" fill-opacity="1" /><path clip-path="url(#clip220)" d="M83.0984 370.682 L87.9827 370.682 L87.9827 376.561 L83.0984 376.561 L83.0984 370.682 Z" fill="#000000" fill-rule="nonzero" fill-opacity="1" /><path clip-path="url(#clip220)" d="M98.2141 342.001 L116.57 342.001 L116.57 345.937 L102.496 345.937 L102.496 354.409 Q103.515 354.061 104.534 353.899 Q105.552 353.714 106.571 353.714 Q112.358 353.714 115.737 356.886 Q119.117 360.057 119.117 365.473 Q119.117 371.052 115.645 374.154 Q112.172 377.233 105.853 377.233 Q103.677 377.233 101.409 376.862 Q99.1632 376.492 96.7558 375.751 L96.7558 371.052 Q98.8391 372.186 101.061 372.742 Q103.284 373.297 105.76 373.297 Q109.765 373.297 112.103 371.191 Q114.441 369.085 114.441 365.473 Q114.441 361.862 112.103 359.756 Q109.765 357.649 105.76 357.649 Q103.885 357.649 102.01 358.066 Q100.159 358.483 98.2141 359.362 L98.2141 342.001 Z" fill="#000000" fill-rule="nonzero" fill-opacity="1" /><path clip-path="url(#clip220)" d="M138.33 345.08 Q134.719 345.08 132.89 348.645 Q131.084 352.186 131.084 359.316 Q131.084 366.423 132.89 369.987 Q134.719 373.529 138.33 373.529 Q141.964 373.529 143.769 369.987 Q145.598 366.423 145.598 359.316 Q145.598 352.186 143.769 348.645 Q141.964 345.08 138.33 345.08 M138.33 341.376 Q144.14 341.376 147.195 345.983 Q150.274 350.566 150.274 359.316 Q150.274 368.043 147.195 372.649 Q144.14 377.233 138.33 377.233 Q132.519 377.233 129.441 372.649 Q126.385 368.043 126.385 359.316 Q126.385 350.566 129.441 345.983 Q132.519 341.376 138.33 341.376 Z" fill="#000000" fill-rule="nonzero" fill-opacity="1" /><path clip-path="url(#clip220)" d="M54.7421 120.524 L62.381 120.524 L62.381 94.1582 L54.0708 95.8249 L54.0708 91.5656 L62.3347 89.899 L67.0106 89.899 L67.0106 120.524 L74.6494 120.524 L74.6494 124.459 L54.7421 124.459 L54.7421 120.524 Z" fill="#000000" fill-rule="nonzero" fill-opacity="1" /><path clip-path="url(#clip220)" d="M84.0938 118.579 L88.978 118.579 L88.978 124.459 L84.0938 124.459 L84.0938 118.579 Z" fill="#000000" fill-rule="nonzero" fill-opacity="1" /><path clip-path="url(#clip220)" d="M97.9826 89.899 L120.205 89.899 L120.205 91.8897 L107.658 124.459 L102.774 124.459 L114.58 93.8341 L97.9826 93.8341 L97.9826 89.899 Z" fill="#000000" fill-rule="nonzero" fill-opacity="1" /><path clip-path="url(#clip220)" d="M129.371 89.899 L147.728 89.899 L147.728 93.8341 L133.654 93.8341 L133.654 102.306 Q134.672 101.959 135.691 101.797 Q136.709 101.612 137.728 101.612 Q143.515 101.612 146.894 104.783 Q150.274 107.954 150.274 113.371 Q150.274 118.95 146.802 122.052 Q143.33 125.13 137.01 125.13 Q134.834 125.13 132.566 124.76 Q130.32 124.39 127.913 123.649 L127.913 118.95 Q129.996 120.084 132.219 120.64 Q134.441 121.195 136.918 121.195 Q140.922 121.195 143.26 119.089 Q145.598 116.982 145.598 113.371 Q145.598 109.76 143.26 107.654 Q140.922 105.547 136.918 105.547 Q135.043 105.547 133.168 105.964 Q131.316 106.38 129.371 107.26 L129.371 89.899 Z" fill="#000000" fill-rule="nonzero" fill-opacity="1" /><polyline clip-path="url(#clip221)" style="stroke:#009af9; stroke-linecap:round; stroke-linejoin:round; stroke-width:12; stroke-opacity:1; fill:none" points="247.59,1367.69 451.975,1286.29 656.36,1333.26 860.745,1299.62 1065.13,1342.74 1269.51,1445.72 1473.9,1279.04 1678.29,1170.5 1882.67,1098.83 2087.06,967.54 2291.44,965.128 "/>
<polyline clip-path="url(#clip221)" style="stroke:#e26f46; stroke-linecap:round; stroke-linejoin:round; stroke-width:12; stroke-opacity:1; fill:none" points="247.59,1367.69 451.975,1379.76 656.36,1394.42 860.745,1377.66 1065.13,1345.03 1269.51,1405.13 1473.9,1350.55 1678.29,1312.27 1882.67,1294.9 2087.06,1272.34 2291.44,1366.15 "/>
<polyline clip-path="url(#clip221)" style="stroke:#3da44d; stroke-linecap:round; stroke-linejoin:round; stroke-width:12; stroke-opacity:1; fill:none" points="247.59,1367.69 451.975,1265.73 656.36,1184.97 860.745,1117.17 1065.13,1140.45 1269.51,1050.99 1473.9,1080.65 1678.29,976.071 1882.67,953.795 2087.06,906.401 2291.44,658.873 "/>
<polyline clip-path="url(#clip221)" style="stroke:#c271d2; stroke-linecap:round; stroke-linejoin:round; stroke-width:12; stroke-opacity:1; fill:none" points="247.59,1367.69 451.975,1333.32 656.36,1186.33 860.745,1201.73 1065.13,1179.97 1269.51,1053.56 1473.9,1160.27 1678.29,1124.27 1882.67,1042.7 2087.06,965.316 2291.44,836.941 "/>
<polyline clip-path="url(#clip221)" style="stroke:#ac8d18; stroke-linecap:round; stroke-linejoin:round; stroke-width:12; stroke-opacity:1; fill:none" points="247.59,1367.69 451.975,1302.98 656.36,1277.43 860.745,1278.7 1065.13,1238.35 1269.51,1262.53 1473.9,1395.29 1678.29,1389.66 1882.67,1227.68 2087.06,1170.83 2291.44,1245.43 "/>
<polyline clip-path="url(#clip221)" style="stroke:#00a9ad; stroke-linecap:round; stroke-linejoin:round; stroke-width:12; stroke-opacity:1; fill:none" points="247.59,1367.69 451.975,1400.67 656.36,1389.65 860.745,1338.24 1065.13,1348.84 1269.51,1336.32 1473.9,1320.4 1678.29,1179.53 1882.67,1212.9 2087.06,1181.11 2291.44,1148.77 "/>
<polyline clip-path="url(#clip221)" style="stroke:#ed5d92; stroke-linecap:round; stroke-linejoin:round; stroke-width:12; stroke-opacity:1; fill:none" points="247.59,1367.69 451.975,1322.55 656.36,1278.02 860.745,1117.59 1065.13,899.152 1269.51,645.54 1473.9,459.447 1678.29,466.573 1882.67,394.357 2087.06,383.846 2291.44,87.9763 "/>
<polyline clip-path="url(#clip221)" style="stroke:#c68125; stroke-linecap:round; stroke-linejoin:round; stroke-width:12; stroke-opacity:1; fill:none" points="247.59,1367.69 451.975,1322.54 656.36,1242.7 860.745,1209.18 1065.13,1174.87 1269.51,1136.39 1473.9,1106.07 1678.29,1095.2 1882.67,1021.76 2087.06,958.915 2291.44,841.035 "/>
</svg>
