<?xml version="1.0" encoding="utf-8"?>
<svg xmlns="http://www.w3.org/2000/svg" xmlns:xlink="http://www.w3.org/1999/xlink" width="600" height="400" viewBox="0 0 2400 1600">
<defs>
  <clipPath id="clip250">
    <rect x="0" y="0" width="2400" height="1600"/>
  </clipPath>
</defs>
<path clip-path="url(#clip250)" d="M0 1600 L2400 1600 L2400 0 L0 0  Z" fill="#ffffff" fill-rule="evenodd" fill-opacity="1"/>
<defs>
  <clipPath id="clip251">
    <rect x="112" y="47" width="2242" height="1440"/>
  </clipPath>
</defs>
<path clip-path="url(#clip250)" d="M112.177 1486.45 L2352.76 1486.45 L2352.76 47.2441 L112.177 47.2441  Z" fill="#ffffff" fill-rule="evenodd" fill-opacity="1"/>
<polyline clip-path="url(#clip251)" style="stroke:#000000; stroke-linecap:round; stroke-linejoin:round; stroke-width:2; stroke-opacity:0.1; fill:none" points="175.59,1486.45 175.59,47.2441 "/>
<polyline clip-path="url(#clip251)" style="stroke:#000000; stroke-linecap:round; stroke-linejoin:round; stroke-width:2; stroke-opacity:0.1; fill:none" points="704.028,1486.45 704.028,47.2441 "/>
<polyline clip-path="url(#clip251)" style="stroke:#000000; stroke-linecap:round; stroke-linejoin:round; stroke-width:2; stroke-opacity:0.1; fill:none" points="1232.47,1486.45 1232.47,47.2441 "/>
<polyline clip-path="url(#clip251)" style="stroke:#000000; stroke-linecap:round; stroke-linejoin:round; stroke-width:2; stroke-opacity:0.1; fill:none" points="1760.9,1486.45 1760.9,47.2441 "/>
<polyline clip-path="url(#clip251)" style="stroke:#000000; stroke-linecap:round; stroke-linejoin:round; stroke-width:2; stroke-opacity:0.1; fill:none" points="2289.34,1486.45 2289.34,47.2441 "/>
<polyline clip-path="url(#clip251)" style="stroke:#000000; stroke-linecap:round; stroke-linejoin:round; stroke-width:2; stroke-opacity:0.1; fill:none" points="112.177,1151.72 2352.76,1151.72 "/>
<polyline clip-path="url(#clip251)" style="stroke:#000000; stroke-linecap:round; stroke-linejoin:round; stroke-width:2; stroke-opacity:0.1; fill:none" points="112.177,808.34 2352.76,808.34 "/>
<polyline clip-path="url(#clip251)" style="stroke:#000000; stroke-linecap:round; stroke-linejoin:round; stroke-width:2; stroke-opacity:0.1; fill:none" points="112.177,464.96 2352.76,464.96 "/>
<polyline clip-path="url(#clip251)" style="stroke:#000000; stroke-linecap:round; stroke-linejoin:round; stroke-width:2; stroke-opacity:0.1; fill:none" points="112.177,121.58 2352.76,121.58 "/>
<polyline clip-path="url(#clip250)" style="stroke:#000000; stroke-linecap:round; stroke-linejoin:round; stroke-width:4; stroke-opacity:1; fill:none" points="112.177,1486.45 2352.76,1486.45 "/>
<polyline clip-path="url(#clip250)" style="stroke:#000000; stroke-linecap:round; stroke-linejoin:round; stroke-width:4; stroke-opacity:1; fill:none" points="175.59,1486.45 175.59,1467.55 "/>
<polyline clip-path="url(#clip250)" style="stroke:#000000; stroke-linecap:round; stroke-linejoin:round; stroke-width:4; stroke-opacity:1; fill:none" points="704.028,1486.45 704.028,1467.55 "/>
<polyline clip-path="url(#clip250)" style="stroke:#000000; stroke-linecap:round; stroke-linejoin:round; stroke-width:4; stroke-opacity:1; fill:none" points="1232.47,1486.45 1232.47,1467.55 "/>
<polyline clip-path="url(#clip250)" style="stroke:#000000; stroke-linecap:round; stroke-linejoin:round; stroke-width:4; stroke-opacity:1; fill:none" points="1760.9,1486.45 1760.9,1467.55 "/>
<polyline clip-path="url(#clip250)" style="stroke:#000000; stroke-linecap:round; stroke-linejoin:round; stroke-width:4; stroke-opacity:1; fill:none" points="2289.34,1486.45 2289.34,1467.55 "/>
<path clip-path="url(#clip250)" d="M137.893 1517.37 Q134.282 1517.37 132.453 1520.93 Q130.648 1524.47 130.648 1531.6 Q130.648 1538.71 132.453 1542.27 Q134.282 1545.82 137.893 1545.82 Q141.527 1545.82 143.333 1542.27 Q145.162 1538.71 145.162 1531.6 Q145.162 1524.47 143.333 1520.93 Q141.527 1517.37 137.893 1517.37 M137.893 1513.66 Q143.703 1513.66 146.759 1518.27 Q149.838 1522.85 149.838 1531.6 Q149.838 1540.33 146.759 1544.94 Q143.703 1549.52 137.893 1549.52 Q132.083 1549.52 129.004 1544.94 Q125.949 1540.33 125.949 1531.6 Q125.949 1522.85 129.004 1518.27 Q132.083 1513.66 137.893 1513.66 Z" fill="#000000" fill-rule="nonzero" fill-opacity="1" /><path clip-path="url(#clip250)" d="M158.055 1542.97 L162.939 1542.97 L162.939 1548.85 L158.055 1548.85 L158.055 1542.97 Z" fill="#000000" fill-rule="nonzero" fill-opacity="1" /><path clip-path="url(#clip250)" d="M183.124 1517.37 Q179.513 1517.37 177.685 1520.93 Q175.879 1524.47 175.879 1531.6 Q175.879 1538.71 177.685 1542.27 Q179.513 1545.82 183.124 1545.82 Q186.759 1545.82 188.564 1542.27 Q190.393 1538.71 190.393 1531.6 Q190.393 1524.47 188.564 1520.93 Q186.759 1517.37 183.124 1517.37 M183.124 1513.66 Q188.935 1513.66 191.99 1518.27 Q195.069 1522.85 195.069 1531.6 Q195.069 1540.33 191.99 1544.94 Q188.935 1549.52 183.124 1549.52 Q177.314 1549.52 174.236 1544.94 Q171.18 1540.33 171.18 1531.6 Q171.18 1522.85 174.236 1518.27 Q177.314 1513.66 183.124 1513.66 Z" fill="#000000" fill-rule="nonzero" fill-opacity="1" /><path clip-path="url(#clip250)" d="M213.286 1517.37 Q209.675 1517.37 207.847 1520.93 Q206.041 1524.47 206.041 1531.6 Q206.041 1538.71 207.847 1542.27 Q209.675 1545.82 213.286 1545.82 Q216.921 1545.82 218.726 1542.27 Q220.555 1538.71 220.555 1531.6 Q220.555 1524.47 218.726 1520.93 Q216.921 1517.37 213.286 1517.37 M213.286 1513.66 Q219.096 1513.66 222.152 1518.27 Q225.231 1522.85 225.231 1531.6 Q225.231 1540.33 222.152 1544.94 Q219.096 1549.52 213.286 1549.52 Q207.476 1549.52 204.397 1544.94 Q201.342 1540.33 201.342 1531.6 Q201.342 1522.85 204.397 1518.27 Q207.476 1513.66 213.286 1513.66 Z" fill="#000000" fill-rule="nonzero" fill-opacity="1" /><path clip-path="url(#clip250)" d="M666.829 1517.37 Q663.218 1517.37 661.39 1520.93 Q659.584 1524.47 659.584 1531.6 Q659.584 1538.71 661.39 1542.27 Q663.218 1545.82 666.829 1545.82 Q670.464 1545.82 672.269 1542.27 Q674.098 1538.71 674.098 1531.6 Q674.098 1524.47 672.269 1520.93 Q670.464 1517.37 666.829 1517.37 M666.829 1513.66 Q672.639 1513.66 675.695 1518.27 Q678.774 1522.85 678.774 1531.6 Q678.774 1540.33 675.695 1544.94 Q672.639 1549.52 666.829 1549.52 Q661.019 1549.52 657.94 1544.94 Q654.885 1540.33 654.885 1531.6 Q654.885 1522.85 657.94 1518.27 Q661.019 1513.66 666.829 1513.66 Z" fill="#000000" fill-rule="nonzero" fill-opacity="1" /><path clip-path="url(#clip250)" d="M686.991 1542.97 L691.875 1542.97 L691.875 1548.85 L686.991 1548.85 L686.991 1542.97 Z" fill="#000000" fill-rule="nonzero" fill-opacity="1" /><path clip-path="url(#clip250)" d="M706.088 1544.91 L722.408 1544.91 L722.408 1548.85 L700.463 1548.85 L700.463 1544.91 Q703.125 1542.16 707.709 1537.53 Q712.315 1532.88 713.496 1531.53 Q715.741 1529.01 716.621 1527.27 Q717.523 1525.51 717.523 1523.82 Q717.523 1521.07 715.579 1519.33 Q713.658 1517.6 710.556 1517.6 Q708.357 1517.6 705.903 1518.36 Q703.473 1519.13 700.695 1520.68 L700.695 1515.95 Q703.519 1514.82 705.973 1514.24 Q708.426 1513.66 710.463 1513.66 Q715.834 1513.66 719.028 1516.35 Q722.223 1519.03 722.223 1523.52 Q722.223 1525.65 721.412 1527.57 Q720.625 1529.47 718.519 1532.07 Q717.94 1532.74 714.838 1535.95 Q711.736 1539.15 706.088 1544.91 Z" fill="#000000" fill-rule="nonzero" fill-opacity="1" /><path clip-path="url(#clip250)" d="M732.269 1514.29 L750.625 1514.29 L750.625 1518.22 L736.551 1518.22 L736.551 1526.7 Q737.57 1526.35 738.588 1526.19 Q739.607 1526 740.625 1526 Q746.412 1526 749.792 1529.17 Q753.171 1532.34 753.171 1537.76 Q753.171 1543.34 749.699 1546.44 Q746.227 1549.52 739.908 1549.52 Q737.732 1549.52 735.463 1549.15 Q733.218 1548.78 730.81 1548.04 L730.81 1543.34 Q732.894 1544.47 735.116 1545.03 Q737.338 1545.58 739.815 1545.58 Q743.82 1545.58 746.158 1543.48 Q748.496 1541.37 748.496 1537.76 Q748.496 1534.15 746.158 1532.04 Q743.82 1529.94 739.815 1529.94 Q737.94 1529.94 736.065 1530.35 Q734.213 1530.77 732.269 1531.65 L732.269 1514.29 Z" fill="#000000" fill-rule="nonzero" fill-opacity="1" /><path clip-path="url(#clip250)" d="M1194.77 1517.37 Q1191.16 1517.37 1189.33 1520.93 Q1187.52 1524.47 1187.52 1531.6 Q1187.52 1538.71 1189.33 1542.27 Q1191.16 1545.82 1194.77 1545.82 Q1198.4 1545.82 1200.21 1542.27 Q1202.04 1538.71 1202.04 1531.6 Q1202.04 1524.47 1200.21 1520.93 Q1198.4 1517.37 1194.77 1517.37 M1194.77 1513.66 Q1200.58 1513.66 1203.64 1518.27 Q1206.71 1522.85 1206.71 1531.6 Q1206.71 1540.33 1203.64 1544.94 Q1200.58 1549.52 1194.77 1549.52 Q1188.96 1549.52 1185.88 1544.94 Q1182.83 1540.33 1182.83 1531.6 Q1182.83 1522.85 1185.88 1518.27 Q1188.96 1513.66 1194.77 1513.66 Z" fill="#000000" fill-rule="nonzero" fill-opacity="1" /><path clip-path="url(#clip250)" d="M1214.93 1542.97 L1219.82 1542.97 L1219.82 1548.85 L1214.93 1548.85 L1214.93 1542.97 Z" fill="#000000" fill-rule="nonzero" fill-opacity="1" /><path clip-path="url(#clip250)" d="M1230.05 1514.29 L1248.4 1514.29 L1248.4 1518.22 L1234.33 1518.22 L1234.33 1526.7 Q1235.35 1526.35 1236.37 1526.19 Q1237.39 1526 1238.4 1526 Q1244.19 1526 1247.57 1529.17 Q1250.95 1532.34 1250.95 1537.76 Q1250.95 1543.34 1247.48 1546.44 Q1244.01 1549.52 1237.69 1549.52 Q1235.51 1549.52 1233.24 1549.15 Q1231 1548.78 1228.59 1548.04 L1228.59 1543.34 Q1230.67 1544.47 1232.89 1545.03 Q1235.12 1545.58 1237.59 1545.58 Q1241.6 1545.58 1243.94 1543.48 Q1246.27 1541.37 1246.27 1537.76 Q1246.27 1534.15 1243.94 1532.04 Q1241.6 1529.94 1237.59 1529.94 Q1235.72 1529.94 1233.84 1530.35 Q1231.99 1530.77 1230.05 1531.65 L1230.05 1514.29 Z" fill="#000000" fill-rule="nonzero" fill-opacity="1" /><path clip-path="url(#clip250)" d="M1270.16 1517.37 Q1266.55 1517.37 1264.72 1520.93 Q1262.92 1524.47 1262.92 1531.6 Q1262.92 1538.71 1264.72 1542.27 Q1266.55 1545.82 1270.16 1545.82 Q1273.8 1545.82 1275.6 1542.27 Q1277.43 1538.71 1277.43 1531.6 Q1277.43 1524.47 1275.6 1520.93 Q1273.8 1517.37 1270.16 1517.37 M1270.16 1513.66 Q1275.97 1513.66 1279.03 1518.27 Q1282.11 1522.85 1282.11 1531.6 Q1282.11 1540.33 1279.03 1544.94 Q1275.97 1549.52 1270.16 1549.52 Q1264.35 1549.52 1261.27 1544.94 Q1258.22 1540.33 1258.22 1531.6 Q1258.22 1522.85 1261.27 1518.27 Q1264.35 1513.66 1270.16 1513.66 Z" fill="#000000" fill-rule="nonzero" fill-opacity="1" /><path clip-path="url(#clip250)" d="M1723.71 1517.37 Q1720.09 1517.37 1718.27 1520.93 Q1716.46 1524.47 1716.46 1531.6 Q1716.46 1538.71 1718.27 1542.27 Q1720.09 1545.82 1723.71 1545.82 Q1727.34 1545.82 1729.15 1542.27 Q1730.97 1538.71 1730.97 1531.6 Q1730.97 1524.47 1729.15 1520.93 Q1727.34 1517.37 1723.71 1517.37 M1723.71 1513.66 Q1729.52 1513.66 1732.57 1518.27 Q1735.65 1522.85 1735.65 1531.6 Q1735.65 1540.33 1732.57 1544.94 Q1729.52 1549.52 1723.71 1549.52 Q1717.9 1549.52 1714.82 1544.94 Q1711.76 1540.33 1711.76 1531.6 Q1711.76 1522.85 1714.82 1518.27 Q1717.9 1513.66 1723.71 1513.66 Z" fill="#000000" fill-rule="nonzero" fill-opacity="1" /><path clip-path="url(#clip250)" d="M1743.87 1542.97 L1748.75 1542.97 L1748.75 1548.85 L1743.87 1548.85 L1743.87 1542.97 Z" fill="#000000" fill-rule="nonzero" fill-opacity="1" /><path clip-path="url(#clip250)" d="M1757.76 1514.29 L1779.98 1514.29 L1779.98 1516.28 L1767.43 1548.85 L1762.55 1548.85 L1774.35 1518.22 L1757.76 1518.22 L1757.76 1514.29 Z" fill="#000000" fill-rule="nonzero" fill-opacity="1" /><path clip-path="url(#clip250)" d="M1789.15 1514.29 L1807.5 1514.29 L1807.5 1518.22 L1793.43 1518.22 L1793.43 1526.7 Q1794.45 1526.35 1795.46 1526.19 Q1796.48 1526 1797.5 1526 Q1803.29 1526 1806.67 1529.17 Q1810.05 1532.34 1810.05 1537.76 Q1810.05 1543.34 1806.58 1546.44 Q1803.1 1549.52 1796.78 1549.52 Q1794.61 1549.52 1792.34 1549.15 Q1790.09 1548.78 1787.69 1548.04 L1787.69 1543.34 Q1789.77 1544.47 1791.99 1545.03 Q1794.21 1545.58 1796.69 1545.58 Q1800.7 1545.58 1803.03 1543.48 Q1805.37 1541.37 1805.37 1537.76 Q1805.37 1534.15 1803.03 1532.04 Q1800.7 1529.94 1796.69 1529.94 Q1794.82 1529.94 1792.94 1530.35 Q1791.09 1530.77 1789.15 1531.65 L1789.15 1514.29 Z" fill="#000000" fill-rule="nonzero" fill-opacity="1" /><path clip-path="url(#clip250)" d="M2241.42 1544.91 L2249.05 1544.91 L2249.05 1518.55 L2240.74 1520.21 L2240.74 1515.95 L2249.01 1514.29 L2253.68 1514.29 L2253.68 1544.91 L2261.32 1544.91 L2261.32 1548.85 L2241.42 1548.85 L2241.42 1544.91 Z" fill="#000000" fill-rule="nonzero" fill-opacity="1" /><path clip-path="url(#clip250)" d="M2270.77 1542.97 L2275.65 1542.97 L2275.65 1548.85 L2270.77 1548.85 L2270.77 1542.97 Z" fill="#000000" fill-rule="nonzero" fill-opacity="1" /><path clip-path="url(#clip250)" d="M2295.84 1517.37 Q2292.23 1517.37 2290.4 1520.93 Q2288.59 1524.47 2288.59 1531.6 Q2288.59 1538.71 2290.4 1542.27 Q2292.23 1545.82 2295.84 1545.82 Q2299.47 1545.82 2301.28 1542.27 Q2303.1 1538.71 2303.1 1531.6 Q2303.1 1524.47 2301.28 1520.93 Q2299.47 1517.37 2295.84 1517.37 M2295.84 1513.66 Q2301.65 1513.66 2304.7 1518.27 Q2307.78 1522.85 2307.78 1531.6 Q2307.78 1540.33 2304.7 1544.94 Q2301.65 1549.52 2295.84 1549.52 Q2290.03 1549.52 2286.95 1544.94 Q2283.89 1540.33 2283.89 1531.6 Q2283.89 1522.85 2286.95 1518.27 Q2290.03 1513.66 2295.84 1513.66 Z" fill="#000000" fill-rule="nonzero" fill-opacity="1" /><path clip-path="url(#clip250)" d="M2326 1517.37 Q2322.39 1517.37 2320.56 1520.93 Q2318.75 1524.47 2318.75 1531.6 Q2318.75 1538.71 2320.56 1542.27 Q2322.39 1545.82 2326 1545.82 Q2329.63 1545.82 2331.44 1542.27 Q2333.27 1538.71 2333.27 1531.6 Q2333.27 1524.47 2331.44 1520.93 Q2329.63 1517.37 2326 1517.37 M2326 1513.66 Q2331.81 1513.66 2334.86 1518.27 Q2337.94 1522.85 2337.94 1531.6 Q2337.94 1540.33 2334.86 1544.94 Q2331.81 1549.52 2326 1549.52 Q2320.19 1549.52 2317.11 1544.94 Q2314.05 1540.33 2314.05 1531.6 Q2314.05 1522.85 2317.11 1518.27 Q2320.19 1513.66 2326 1513.66 Z" fill="#000000" fill-rule="nonzero" fill-opacity="1" /><polyline clip-path="url(#clip250)" style="stroke:#000000; stroke-linecap:round; stroke-linejoin:round; stroke-width:4; stroke-opacity:1; fill:none" points="112.177,1486.45 112.177,47.2441 "/>
<polyline clip-path="url(#clip250)" style="stroke:#000000; stroke-linecap:round; stroke-linejoin:round; stroke-width:4; stroke-opacity:1; fill:none" points="112.177,1151.72 131.075,1151.72 "/>
<polyline clip-path="url(#clip250)" style="stroke:#000000; stroke-linecap:round; stroke-linejoin:round; stroke-width:4; stroke-opacity:1; fill:none" points="112.177,808.34 131.075,808.34 "/>
<polyline clip-path="url(#clip250)" style="stroke:#000000; stroke-linecap:round; stroke-linejoin:round; stroke-width:4; stroke-opacity:1; fill:none" points="112.177,464.96 131.075,464.96 "/>
<polyline clip-path="url(#clip250)" style="stroke:#000000; stroke-linecap:round; stroke-linejoin:round; stroke-width:4; stroke-opacity:1; fill:none" points="112.177,121.58 131.075,121.58 "/>
<path clip-path="url(#clip250)" d="M56.2699 1165.06 L63.9087 1165.06 L63.9087 1138.7 L55.5986 1140.37 L55.5986 1136.11 L63.8624 1134.44 L68.5383 1134.44 L68.5383 1165.06 L76.1772 1165.06 L76.1772 1169 L56.2699 1169 L56.2699 1165.06 Z" fill="#000000" fill-rule="nonzero" fill-opacity="1" /><path clip-path="url(#clip250)" d="M59.8578 821.685 L76.1772 821.685 L76.1772 825.62 L54.2328 825.62 L54.2328 821.685 Q56.8949 818.93 61.4782 814.3 Q66.0846 809.648 67.2652 808.305 Q69.5105 805.782 70.3902 804.046 Q71.2929 802.286 71.2929 800.597 Q71.2929 797.842 69.3485 796.106 Q67.4272 794.37 64.3254 794.37 Q62.1263 794.37 59.6726 795.134 Q57.2421 795.898 54.4643 797.449 L54.4643 792.726 Q57.2884 791.592 59.7421 791.013 Q62.1958 790.435 64.2328 790.435 Q69.6031 790.435 72.7976 793.12 Q75.992 795.805 75.992 800.296 Q75.992 802.425 75.1818 804.347 Q74.3948 806.245 72.2883 808.837 Q71.7096 809.509 68.6078 812.726 Q65.5059 815.921 59.8578 821.685 Z" fill="#000000" fill-rule="nonzero" fill-opacity="1" /><path clip-path="url(#clip250)" d="M69.0476 463.606 Q72.404 464.324 74.279 466.592 Q76.1772 468.861 76.1772 472.194 Q76.1772 477.31 72.6587 480.11 Q69.1402 482.911 62.6587 482.911 Q60.4828 482.911 58.168 482.472 Q55.8764 482.055 53.4227 481.198 L53.4227 476.685 Q55.3671 477.819 57.6819 478.398 Q59.9967 478.976 62.5198 478.976 Q66.918 478.976 69.2096 477.24 Q71.5244 475.504 71.5244 472.194 Q71.5244 469.138 69.3717 467.425 Q67.242 465.689 63.4226 465.689 L59.3949 465.689 L59.3949 461.847 L63.6078 461.847 Q67.0569 461.847 68.8855 460.481 Q70.7142 459.092 70.7142 456.499 Q70.7142 453.837 68.8161 452.425 Q66.9411 450.99 63.4226 450.99 Q61.5013 450.99 59.3023 451.407 Q57.1032 451.824 54.4643 452.703 L54.4643 448.537 Q57.1264 447.796 59.4412 447.425 Q61.7791 447.055 63.8393 447.055 Q69.1633 447.055 72.2652 449.486 Q75.367 451.893 75.367 456.013 Q75.367 458.884 73.7235 460.874 Q72.08 462.842 69.0476 463.606 Z" fill="#000000" fill-rule="nonzero" fill-opacity="1" /><path clip-path="url(#clip250)" d="M66.5939 108.374 L54.7884 126.823 L66.5939 126.823 L66.5939 108.374 M65.367 104.3 L71.2466 104.3 L71.2466 126.823 L76.1772 126.823 L76.1772 130.712 L71.2466 130.712 L71.2466 138.86 L66.5939 138.86 L66.5939 130.712 L50.9921 130.712 L50.9921 126.198 L65.367 104.3 Z" fill="#000000" fill-rule="nonzero" fill-opacity="1" /><polyline clip-path="url(#clip251)" style="stroke:#009af9; stroke-linecap:round; stroke-linejoin:round; stroke-width:12; stroke-opacity:1; fill:none" points="175.59,1323.41 386.965,1293.07 598.34,1287.36 809.716,1276.56 1021.09,1234.69 1232.47,1210.42 1443.84,1240.43 1655.22,1211.24 1866.59,1139.4 2077.97,1172.17 2289.34,1103.11 "/>
<polyline clip-path="url(#clip251)" style="stroke:#000000; stroke-linecap:round; stroke-linejoin:round; stroke-width:12; stroke-opacity:1; fill:none" points="175.59,1323.41 175.59,1323.41 "/>
<polyline clip-path="url(#clip251)" style="stroke:#000000; stroke-linecap:round; stroke-linejoin:round; stroke-width:12; stroke-opacity:1; fill:none" points="386.965,1343.73 386.965,1230.13 "/>
<polyline clip-path="url(#clip251)" style="stroke:#000000; stroke-linecap:round; stroke-linejoin:round; stroke-width:12; stroke-opacity:1; fill:none" points="598.34,1357.8 598.34,1228.14 "/>
<polyline clip-path="url(#clip251)" style="stroke:#000000; stroke-linecap:round; stroke-linejoin:round; stroke-width:12; stroke-opacity:1; fill:none" points="809.716,1360.24 809.716,1205.46 "/>
<polyline clip-path="url(#clip251)" style="stroke:#000000; stroke-linecap:round; stroke-linejoin:round; stroke-width:12; stroke-opacity:1; fill:none" points="1021.09,1360.41 1021.09,1140.22 "/>
<polyline clip-path="url(#clip251)" style="stroke:#000000; stroke-linecap:round; stroke-linejoin:round; stroke-width:12; stroke-opacity:1; fill:none" points="1232.47,1377.13 1232.47,995.229 "/>
<polyline clip-path="url(#clip251)" style="stroke:#000000; stroke-linecap:round; stroke-linejoin:round; stroke-width:12; stroke-opacity:1; fill:none" points="1443.84,1385.18 1443.84,642.176 "/>
<polyline clip-path="url(#clip251)" style="stroke:#000000; stroke-linecap:round; stroke-linejoin:round; stroke-width:12; stroke-opacity:1; fill:none" points="1655.22,1380.46 1655.22,638.58 "/>
<polyline clip-path="url(#clip251)" style="stroke:#000000; stroke-linecap:round; stroke-linejoin:round; stroke-width:12; stroke-opacity:1; fill:none" points="1866.59,1379.76 1866.59,597.992 "/>
<polyline clip-path="url(#clip251)" style="stroke:#000000; stroke-linecap:round; stroke-linejoin:round; stroke-width:12; stroke-opacity:1; fill:none" points="2077.97,1381.02 2077.97,406.444 "/>
<polyline clip-path="url(#clip251)" style="stroke:#000000; stroke-linecap:round; stroke-linejoin:round; stroke-width:12; stroke-opacity:1; fill:none" points="2289.34,1362.31 2289.34,273.496 "/>
<line clip-path="url(#clip251)" x1="191.59" y1="1323.41" x2="159.59" y2="1323.41" style="stroke:#000000; stroke-width:12; stroke-opacity:1"/>
<line clip-path="url(#clip251)" x1="191.59" y1="1323.41" x2="159.59" y2="1323.41" style="stroke:#000000; stroke-width:12; stroke-opacity:1"/>
<line clip-path="url(#clip251)" x1="402.965" y1="1343.73" x2="370.965" y2="1343.73" style="stroke:#000000; stroke-width:12; stroke-opacity:1"/>
<line clip-path="url(#clip251)" x1="402.965" y1="1230.13" x2="370.965" y2="1230.13" style="stroke:#000000; stroke-width:12; stroke-opacity:1"/>
<line clip-path="url(#clip251)" x1="614.34" y1="1357.8" x2="582.34" y2="1357.8" style="stroke:#000000; stroke-width:12; stroke-opacity:1"/>
<line clip-path="url(#clip251)" x1="614.34" y1="1228.14" x2="582.34" y2="1228.14" style="stroke:#000000; stroke-width:12; stroke-opacity:1"/>
<line clip-path="url(#clip251)" x1="825.716" y1="1360.24" x2="793.716" y2="1360.24" style="stroke:#000000; stroke-width:12; stroke-opacity:1"/>
<line clip-path="url(#clip251)" x1="825.716" y1="1205.46" x2="793.716" y2="1205.46" style="stroke:#000000; stroke-width:12; stroke-opacity:1"/>
<line clip-path="url(#clip251)" x1="1037.09" y1="1360.41" x2="1005.09" y2="1360.41" style="stroke:#000000; stroke-width:12; stroke-opacity:1"/>
<line clip-path="url(#clip251)" x1="1037.09" y1="1140.22" x2="1005.09" y2="1140.22" style="stroke:#000000; stroke-width:12; stroke-opacity:1"/>
<line clip-path="url(#clip251)" x1="1248.47" y1="1377.13" x2="1216.47" y2="1377.13" style="stroke:#000000; stroke-width:12; stroke-opacity:1"/>
<line clip-path="url(#clip251)" x1="1248.47" y1="995.229" x2="1216.47" y2="995.229" style="stroke:#000000; stroke-width:12; stroke-opacity:1"/>
<line clip-path="url(#clip251)" x1="1459.84" y1="1385.18" x2="1427.84" y2="1385.18" style="stroke:#000000; stroke-width:12; stroke-opacity:1"/>
<line clip-path="url(#clip251)" x1="1459.84" y1="642.176" x2="1427.84" y2="642.176" style="stroke:#000000; stroke-width:12; stroke-opacity:1"/>
<line clip-path="url(#clip251)" x1="1671.22" y1="1380.46" x2="1639.22" y2="1380.46" style="stroke:#000000; stroke-width:12; stroke-opacity:1"/>
<line clip-path="url(#clip251)" x1="1671.22" y1="638.58" x2="1639.22" y2="638.58" style="stroke:#000000; stroke-width:12; stroke-opacity:1"/>
<line clip-path="url(#clip251)" x1="1882.59" y1="1379.76" x2="1850.59" y2="1379.76" style="stroke:#000000; stroke-width:12; stroke-opacity:1"/>
<line clip-path="url(#clip251)" x1="1882.59" y1="597.992" x2="1850.59" y2="597.992" style="stroke:#000000; stroke-width:12; stroke-opacity:1"/>
<line clip-path="url(#clip251)" x1="2093.97" y1="1381.02" x2="2061.97" y2="1381.02" style="stroke:#000000; stroke-width:12; stroke-opacity:1"/>
<line clip-path="url(#clip251)" x1="2093.97" y1="406.444" x2="2061.97" y2="406.444" style="stroke:#000000; stroke-width:12; stroke-opacity:1"/>
<line clip-path="url(#clip251)" x1="2305.34" y1="1362.31" x2="2273.34" y2="1362.31" style="stroke:#000000; stroke-width:12; stroke-opacity:1"/>
<line clip-path="url(#clip251)" x1="2305.34" y1="273.496" x2="2273.34" y2="273.496" style="stroke:#000000; stroke-width:12; stroke-opacity:1"/>
<polyline clip-path="url(#clip251)" style="stroke:#e26f46; stroke-linecap:round; stroke-linejoin:round; stroke-width:12; stroke-opacity:1; fill:none" points="175.59,1323.41 386.965,1321.13 598.34,1304.72 809.716,1256.31 1021.09,1193 1232.47,1186.58 1443.84,1137.37 1655.22,996.598 1866.59,968.107 2077.97,1011.8 2289.34,911.284 "/>
<polyline clip-path="url(#clip251)" style="stroke:#000000; stroke-linecap:round; stroke-linejoin:round; stroke-width:12; stroke-opacity:1; fill:none" points="175.59,1323.41 175.59,1323.41 "/>
<polyline clip-path="url(#clip251)" style="stroke:#000000; stroke-linecap:round; stroke-linejoin:round; stroke-width:12; stroke-opacity:1; fill:none" points="386.965,1372.11 386.965,1270.43 "/>
<polyline clip-path="url(#clip251)" style="stroke:#000000; stroke-linecap:round; stroke-linejoin:round; stroke-width:12; stroke-opacity:1; fill:none" points="598.34,1383.25 598.34,1161.63 "/>
<polyline clip-path="url(#clip251)" style="stroke:#000000; stroke-linecap:round; stroke-linejoin:round; stroke-width:12; stroke-opacity:1; fill:none" points="809.716,1389.62 809.716,1061.09 "/>
<polyline clip-path="url(#clip251)" style="stroke:#000000; stroke-linecap:round; stroke-linejoin:round; stroke-width:12; stroke-opacity:1; fill:none" points="1021.09,1411.3 1021.09,931.959 "/>
<polyline clip-path="url(#clip251)" style="stroke:#000000; stroke-linecap:round; stroke-linejoin:round; stroke-width:12; stroke-opacity:1; fill:none" points="1232.47,1431.22 1232.47,688.956 "/>
<polyline clip-path="url(#clip251)" style="stroke:#000000; stroke-linecap:round; stroke-linejoin:round; stroke-width:12; stroke-opacity:1; fill:none" points="1443.84,1434.88 1443.84,740.394 "/>
<polyline clip-path="url(#clip251)" style="stroke:#000000; stroke-linecap:round; stroke-linejoin:round; stroke-width:12; stroke-opacity:1; fill:none" points="1655.22,1442.44 1655.22,514.333 "/>
<polyline clip-path="url(#clip251)" style="stroke:#000000; stroke-linecap:round; stroke-linejoin:round; stroke-width:12; stroke-opacity:1; fill:none" points="1866.59,1445.72 1866.59,308.556 "/>
<polyline clip-path="url(#clip251)" style="stroke:#000000; stroke-linecap:round; stroke-linejoin:round; stroke-width:12; stroke-opacity:1; fill:none" points="2077.97,1442.24 2077.97,138.549 "/>
<polyline clip-path="url(#clip251)" style="stroke:#000000; stroke-linecap:round; stroke-linejoin:round; stroke-width:12; stroke-opacity:1; fill:none" points="2289.34,1435.27 2289.34,87.9763 "/>
<line clip-path="url(#clip251)" x1="191.59" y1="1323.41" x2="159.59" y2="1323.41" style="stroke:#000000; stroke-width:12; stroke-opacity:1"/>
<line clip-path="url(#clip251)" x1="191.59" y1="1323.41" x2="159.59" y2="1323.41" style="stroke:#000000; stroke-width:12; stroke-opacity:1"/>
<line clip-path="url(#clip251)" x1="402.965" y1="1372.11" x2="370.965" y2="1372.11" style="stroke:#000000; stroke-width:12; stroke-opacity:1"/>
<line clip-path="url(#clip251)" x1="402.965" y1="1270.43" x2="370.965" y2="1270.43" style="stroke:#000000; stroke-width:12; stroke-opacity:1"/>
<line clip-path="url(#clip251)" x1="614.34" y1="1383.25" x2="582.34" y2="1383.25" style="stroke:#000000; stroke-width:12; stroke-opacity:1"/>
<line clip-path="url(#clip251)" x1="614.34" y1="1161.63" x2="582.34" y2="1161.63" style="stroke:#000000; stroke-width:12; stroke-opacity:1"/>
<line clip-path="url(#clip251)" x1="825.716" y1="1389.62" x2="793.716" y2="1389.62" style="stroke:#000000; stroke-width:12; stroke-opacity:1"/>
<line clip-path="url(#clip251)" x1="825.716" y1="1061.09" x2="793.716" y2="1061.09" style="stroke:#000000; stroke-width:12; stroke-opacity:1"/>
<line clip-path="url(#clip251)" x1="1037.09" y1="1411.3" x2="1005.09" y2="1411.3" style="stroke:#000000; stroke-width:12; stroke-opacity:1"/>
<line clip-path="url(#clip251)" x1="1037.09" y1="931.959" x2="1005.09" y2="931.959" style="stroke:#000000; stroke-width:12; stroke-opacity:1"/>
<line clip-path="url(#clip251)" x1="1248.47" y1="1431.22" x2="1216.47" y2="1431.22" style="stroke:#000000; stroke-width:12; stroke-opacity:1"/>
<line clip-path="url(#clip251)" x1="1248.47" y1="688.956" x2="1216.47" y2="688.956" style="stroke:#000000; stroke-width:12; stroke-opacity:1"/>
<line clip-path="url(#clip251)" x1="1459.84" y1="1434.88" x2="1427.84" y2="1434.88" style="stroke:#000000; stroke-width:12; stroke-opacity:1"/>
<line clip-path="url(#clip251)" x1="1459.84" y1="740.394" x2="1427.84" y2="740.394" style="stroke:#000000; stroke-width:12; stroke-opacity:1"/>
<line clip-path="url(#clip251)" x1="1671.22" y1="1442.44" x2="1639.22" y2="1442.44" style="stroke:#000000; stroke-width:12; stroke-opacity:1"/>
<line clip-path="url(#clip251)" x1="1671.22" y1="514.333" x2="1639.22" y2="514.333" style="stroke:#000000; stroke-width:12; stroke-opacity:1"/>
<line clip-path="url(#clip251)" x1="1882.59" y1="1445.72" x2="1850.59" y2="1445.72" style="stroke:#000000; stroke-width:12; stroke-opacity:1"/>
<line clip-path="url(#clip251)" x1="1882.59" y1="308.556" x2="1850.59" y2="308.556" style="stroke:#000000; stroke-width:12; stroke-opacity:1"/>
<line clip-path="url(#clip251)" x1="2093.97" y1="1442.24" x2="2061.97" y2="1442.24" style="stroke:#000000; stroke-width:12; stroke-opacity:1"/>
<line clip-path="url(#clip251)" x1="2093.97" y1="138.549" x2="2061.97" y2="138.549" style="stroke:#000000; stroke-width:12; stroke-opacity:1"/>
<line clip-path="url(#clip251)" x1="2305.34" y1="1435.27" x2="2273.34" y2="1435.27" style="stroke:#000000; stroke-width:12; stroke-opacity:1"/>
<line clip-path="url(#clip251)" x1="2305.34" y1="87.9763" x2="2273.34" y2="87.9763" style="stroke:#000000; stroke-width:12; stroke-opacity:1"/>
</svg>
