<?xml version="1.0" encoding="utf-8"?>
<svg xmlns="http://www.w3.org/2000/svg" xmlns:xlink="http://www.w3.org/1999/xlink" width="600" height="400" viewBox="0 0 2400 1600">
<defs>
  <clipPath id="clip220">
    <rect x="0" y="0" width="2400" height="1600"/>
  </clipPath>
</defs>
<path clip-path="url(#clip220)" d="M0 1600 L2400 1600 L2400 0 L0 0  Z" fill="#ffffff" fill-rule="evenodd" fill-opacity="1"/>
<defs>
  <clipPath id="clip221">
    <rect x="155" y="47" width="2198" height="1440"/>
  </clipPath>
</defs>
<path clip-path="url(#clip220)" d="M155.765 1486.45 L2352.76 1486.45 L2352.76 47.2441 L155.765 47.2441  Z" fill="#ffffff" fill-rule="evenodd" fill-opacity="1"/>
<polyline clip-path="url(#clip221)" style="stroke:#000000; stroke-linecap:round; stroke-linejoin:round; stroke-width:2; stroke-opacity:0.1; fill:none" points="217.944,1486.45 217.944,47.2441 "/>
<polyline clip-path="url(#clip221)" style="stroke:#000000; stroke-linecap:round; stroke-linejoin:round; stroke-width:2; stroke-opacity:0.1; fill:none" points="736.102,1486.45 736.102,47.2441 "/>
<polyline clip-path="url(#clip221)" style="stroke:#000000; stroke-linecap:round; stroke-linejoin:round; stroke-width:2; stroke-opacity:0.1; fill:none" points="1254.26,1486.45 1254.26,47.2441 "/>
<polyline clip-path="url(#clip221)" style="stroke:#000000; stroke-linecap:round; stroke-linejoin:round; stroke-width:2; stroke-opacity:0.1; fill:none" points="1772.42,1486.45 1772.42,47.2441 "/>
<polyline clip-path="url(#clip221)" style="stroke:#000000; stroke-linecap:round; stroke-linejoin:round; stroke-width:2; stroke-opacity:0.1; fill:none" points="2290.58,1486.45 2290.58,47.2441 "/>
<polyline clip-path="url(#clip221)" style="stroke:#000000; stroke-linecap:round; stroke-linejoin:round; stroke-width:2; stroke-opacity:0.1; fill:none" points="155.765,1370.28 2352.76,1370.28 "/>
<polyline clip-path="url(#clip221)" style="stroke:#000000; stroke-linecap:round; stroke-linejoin:round; stroke-width:2; stroke-opacity:0.1; fill:none" points="155.765,1160.59 2352.76,1160.59 "/>
<polyline clip-path="url(#clip221)" style="stroke:#000000; stroke-linecap:round; stroke-linejoin:round; stroke-width:2; stroke-opacity:0.1; fill:none" points="155.765,950.895 2352.76,950.895 "/>
<polyline clip-path="url(#clip221)" style="stroke:#000000; stroke-linecap:round; stroke-linejoin:round; stroke-width:2; stroke-opacity:0.1; fill:none" points="155.765,741.203 2352.76,741.203 "/>
<polyline clip-path="url(#clip221)" style="stroke:#000000; stroke-linecap:round; stroke-linejoin:round; stroke-width:2; stroke-opacity:0.1; fill:none" points="155.765,531.511 2352.76,531.511 "/>
<polyline clip-path="url(#clip221)" style="stroke:#000000; stroke-linecap:round; stroke-linejoin:round; stroke-width:2; stroke-opacity:0.1; fill:none" points="155.765,321.819 2352.76,321.819 "/>
<polyline clip-path="url(#clip221)" style="stroke:#000000; stroke-linecap:round; stroke-linejoin:round; stroke-width:2; stroke-opacity:0.1; fill:none" points="155.765,112.127 2352.76,112.127 "/>
<polyline clip-path="url(#clip220)" style="stroke:#000000; stroke-linecap:round; stroke-linejoin:round; stroke-width:4; stroke-opacity:1; fill:none" points="155.765,1486.45 2352.76,1486.45 "/>
<polyline clip-path="url(#clip220)" style="stroke:#000000; stroke-linecap:round; stroke-linejoin:round; stroke-width:4; stroke-opacity:1; fill:none" points="217.944,1486.45 217.944,1467.55 "/>
<polyline clip-path="url(#clip220)" style="stroke:#000000; stroke-linecap:round; stroke-linejoin:round; stroke-width:4; stroke-opacity:1; fill:none" points="736.102,1486.45 736.102,1467.55 "/>
<polyline clip-path="url(#clip220)" style="stroke:#000000; stroke-linecap:round; stroke-linejoin:round; stroke-width:4; stroke-opacity:1; fill:none" points="1254.26,1486.45 1254.26,1467.55 "/>
<polyline clip-path="url(#clip220)" style="stroke:#000000; stroke-linecap:round; stroke-linejoin:round; stroke-width:4; stroke-opacity:1; fill:none" points="1772.42,1486.45 1772.42,1467.55 "/>
<polyline clip-path="url(#clip220)" style="stroke:#000000; stroke-linecap:round; stroke-linejoin:round; stroke-width:4; stroke-opacity:1; fill:none" points="2290.58,1486.45 2290.58,1467.55 "/>
<path clip-path="url(#clip220)" d="M180.247 1517.37 Q176.636 1517.37 174.808 1520.93 Q173.002 1524.47 173.002 1531.6 Q173.002 1538.71 174.808 1542.27 Q176.636 1545.82 180.247 1545.82 Q183.882 1545.82 185.687 1542.27 Q187.516 1538.71 187.516 1531.6 Q187.516 1524.47 185.687 1520.93 Q183.882 1517.37 180.247 1517.37 M180.247 1513.66 Q186.057 1513.66 189.113 1518.27 Q192.192 1522.85 192.192 1531.6 Q192.192 1540.33 189.113 1544.94 Q186.057 1549.52 180.247 1549.52 Q174.437 1549.52 171.358 1544.94 Q168.303 1540.33 168.303 1531.6 Q168.303 1522.85 171.358 1518.27 Q174.437 1513.66 180.247 1513.66 Z" fill="#000000" fill-rule="nonzero" fill-opacity="1" /><path clip-path="url(#clip220)" d="M200.409 1542.97 L205.294 1542.97 L205.294 1548.85 L200.409 1548.85 L200.409 1542.97 Z" fill="#000000" fill-rule="nonzero" fill-opacity="1" /><path clip-path="url(#clip220)" d="M225.479 1517.37 Q221.867 1517.37 220.039 1520.93 Q218.233 1524.47 218.233 1531.6 Q218.233 1538.71 220.039 1542.27 Q221.867 1545.82 225.479 1545.82 Q229.113 1545.82 230.918 1542.27 Q232.747 1538.71 232.747 1531.6 Q232.747 1524.47 230.918 1520.93 Q229.113 1517.37 225.479 1517.37 M225.479 1513.66 Q231.289 1513.66 234.344 1518.27 Q237.423 1522.85 237.423 1531.6 Q237.423 1540.33 234.344 1544.94 Q231.289 1549.52 225.479 1549.52 Q219.668 1549.52 216.59 1544.94 Q213.534 1540.33 213.534 1531.6 Q213.534 1522.85 216.59 1518.27 Q219.668 1513.66 225.479 1513.66 Z" fill="#000000" fill-rule="nonzero" fill-opacity="1" /><path clip-path="url(#clip220)" d="M255.64 1517.37 Q252.029 1517.37 250.201 1520.93 Q248.395 1524.47 248.395 1531.6 Q248.395 1538.71 250.201 1542.27 Q252.029 1545.82 255.64 1545.82 Q259.275 1545.82 261.08 1542.27 Q262.909 1538.71 262.909 1531.6 Q262.909 1524.47 261.08 1520.93 Q259.275 1517.37 255.64 1517.37 M255.64 1513.66 Q261.451 1513.66 264.506 1518.27 Q267.585 1522.85 267.585 1531.6 Q267.585 1540.33 264.506 1544.94 Q261.451 1549.52 255.64 1549.52 Q249.83 1549.52 246.752 1544.94 Q243.696 1540.33 243.696 1531.6 Q243.696 1522.85 246.752 1518.27 Q249.83 1513.66 255.64 1513.66 Z" fill="#000000" fill-rule="nonzero" fill-opacity="1" /><path clip-path="url(#clip220)" d="M698.903 1517.37 Q695.292 1517.37 693.463 1520.93 Q691.658 1524.47 691.658 1531.6 Q691.658 1538.71 693.463 1542.27 Q695.292 1545.82 698.903 1545.82 Q702.538 1545.82 704.343 1542.27 Q706.172 1538.71 706.172 1531.6 Q706.172 1524.47 704.343 1520.93 Q702.538 1517.37 698.903 1517.37 M698.903 1513.66 Q704.713 1513.66 707.769 1518.27 Q710.848 1522.85 710.848 1531.6 Q710.848 1540.33 707.769 1544.94 Q704.713 1549.52 698.903 1549.52 Q693.093 1549.52 690.014 1544.94 Q686.959 1540.33 686.959 1531.6 Q686.959 1522.85 690.014 1518.27 Q693.093 1513.66 698.903 1513.66 Z" fill="#000000" fill-rule="nonzero" fill-opacity="1" /><path clip-path="url(#clip220)" d="M719.065 1542.97 L723.949 1542.97 L723.949 1548.85 L719.065 1548.85 L719.065 1542.97 Z" fill="#000000" fill-rule="nonzero" fill-opacity="1" /><path clip-path="url(#clip220)" d="M738.162 1544.91 L754.482 1544.91 L754.482 1548.85 L732.537 1548.85 L732.537 1544.91 Q735.199 1542.16 739.783 1537.53 Q744.389 1532.88 745.57 1531.53 Q747.815 1529.01 748.695 1527.27 Q749.597 1525.51 749.597 1523.82 Q749.597 1521.07 747.653 1519.33 Q745.732 1517.6 742.63 1517.6 Q740.431 1517.6 737.977 1518.36 Q735.547 1519.13 732.769 1520.68 L732.769 1515.95 Q735.593 1514.82 738.047 1514.24 Q740.5 1513.66 742.537 1513.66 Q747.908 1513.66 751.102 1516.35 Q754.296 1519.03 754.296 1523.52 Q754.296 1525.65 753.486 1527.57 Q752.699 1529.47 750.593 1532.07 Q750.014 1532.74 746.912 1535.95 Q743.81 1539.15 738.162 1544.91 Z" fill="#000000" fill-rule="nonzero" fill-opacity="1" /><path clip-path="url(#clip220)" d="M764.343 1514.29 L782.699 1514.29 L782.699 1518.22 L768.625 1518.22 L768.625 1526.7 Q769.644 1526.35 770.662 1526.19 Q771.681 1526 772.699 1526 Q778.486 1526 781.866 1529.17 Q785.245 1532.34 785.245 1537.76 Q785.245 1543.34 781.773 1546.44 Q778.301 1549.52 771.982 1549.52 Q769.806 1549.52 767.537 1549.15 Q765.292 1548.78 762.884 1548.04 L762.884 1543.34 Q764.968 1544.47 767.19 1545.03 Q769.412 1545.58 771.889 1545.58 Q775.894 1545.58 778.232 1543.48 Q780.57 1541.37 780.57 1537.76 Q780.57 1534.15 778.232 1532.04 Q775.894 1529.94 771.889 1529.94 Q770.014 1529.94 768.139 1530.35 Q766.287 1530.77 764.343 1531.65 L764.343 1514.29 Z" fill="#000000" fill-rule="nonzero" fill-opacity="1" /><path clip-path="url(#clip220)" d="M1216.56 1517.37 Q1212.95 1517.37 1211.12 1520.93 Q1209.32 1524.47 1209.32 1531.6 Q1209.32 1538.71 1211.12 1542.27 Q1212.95 1545.82 1216.56 1545.82 Q1220.2 1545.82 1222 1542.27 Q1223.83 1538.71 1223.83 1531.6 Q1223.83 1524.47 1222 1520.93 Q1220.2 1517.37 1216.56 1517.37 M1216.56 1513.66 Q1222.37 1513.66 1225.43 1518.27 Q1228.51 1522.85 1228.51 1531.6 Q1228.51 1540.33 1225.43 1544.94 Q1222.37 1549.52 1216.56 1549.52 Q1210.75 1549.52 1207.68 1544.94 Q1204.62 1540.33 1204.62 1531.6 Q1204.62 1522.85 1207.68 1518.27 Q1210.75 1513.66 1216.56 1513.66 Z" fill="#000000" fill-rule="nonzero" fill-opacity="1" /><path clip-path="url(#clip220)" d="M1236.73 1542.97 L1241.61 1542.97 L1241.61 1548.85 L1236.73 1548.85 L1236.73 1542.97 Z" fill="#000000" fill-rule="nonzero" fill-opacity="1" /><path clip-path="url(#clip220)" d="M1251.84 1514.29 L1270.2 1514.29 L1270.2 1518.22 L1256.12 1518.22 L1256.12 1526.7 Q1257.14 1526.35 1258.16 1526.19 Q1259.18 1526 1260.2 1526 Q1265.98 1526 1269.36 1529.17 Q1272.74 1532.34 1272.74 1537.76 Q1272.74 1543.34 1269.27 1546.44 Q1265.8 1549.52 1259.48 1549.52 Q1257.3 1549.52 1255.04 1549.15 Q1252.79 1548.78 1250.38 1548.04 L1250.38 1543.34 Q1252.47 1544.47 1254.69 1545.03 Q1256.91 1545.58 1259.39 1545.58 Q1263.39 1545.58 1265.73 1543.48 Q1268.07 1541.37 1268.07 1537.76 Q1268.07 1534.15 1265.73 1532.04 Q1263.39 1529.94 1259.39 1529.94 Q1257.51 1529.94 1255.64 1530.35 Q1253.79 1530.77 1251.84 1531.65 L1251.84 1514.29 Z" fill="#000000" fill-rule="nonzero" fill-opacity="1" /><path clip-path="url(#clip220)" d="M1291.96 1517.37 Q1288.35 1517.37 1286.52 1520.93 Q1284.71 1524.47 1284.71 1531.6 Q1284.71 1538.71 1286.52 1542.27 Q1288.35 1545.82 1291.96 1545.82 Q1295.59 1545.82 1297.4 1542.27 Q1299.23 1538.71 1299.23 1531.6 Q1299.23 1524.47 1297.4 1520.93 Q1295.59 1517.37 1291.96 1517.37 M1291.96 1513.66 Q1297.77 1513.66 1300.82 1518.27 Q1303.9 1522.85 1303.9 1531.6 Q1303.9 1540.33 1300.82 1544.94 Q1297.77 1549.52 1291.96 1549.52 Q1286.15 1549.52 1283.07 1544.94 Q1280.01 1540.33 1280.01 1531.6 Q1280.01 1522.85 1283.07 1518.27 Q1286.15 1513.66 1291.96 1513.66 Z" fill="#000000" fill-rule="nonzero" fill-opacity="1" /><path clip-path="url(#clip220)" d="M1735.22 1517.37 Q1731.61 1517.37 1729.78 1520.93 Q1727.97 1524.47 1727.97 1531.6 Q1727.97 1538.71 1729.78 1542.27 Q1731.61 1545.82 1735.22 1545.82 Q1738.85 1545.82 1740.66 1542.27 Q1742.49 1538.71 1742.49 1531.6 Q1742.49 1524.47 1740.66 1520.93 Q1738.85 1517.37 1735.22 1517.37 M1735.22 1513.66 Q1741.03 1513.66 1744.09 1518.27 Q1747.16 1522.85 1747.16 1531.6 Q1747.16 1540.33 1744.09 1544.94 Q1741.03 1549.52 1735.22 1549.52 Q1729.41 1549.52 1726.33 1544.94 Q1723.28 1540.33 1723.28 1531.6 Q1723.28 1522.85 1726.33 1518.27 Q1729.41 1513.66 1735.22 1513.66 Z" fill="#000000" fill-rule="nonzero" fill-opacity="1" /><path clip-path="url(#clip220)" d="M1755.38 1542.97 L1760.27 1542.97 L1760.27 1548.85 L1755.38 1548.85 L1755.38 1542.97 Z" fill="#000000" fill-rule="nonzero" fill-opacity="1" /><path clip-path="url(#clip220)" d="M1769.27 1514.29 L1791.49 1514.29 L1791.49 1516.28 L1778.95 1548.85 L1774.06 1548.85 L1785.87 1518.22 L1769.27 1518.22 L1769.27 1514.29 Z" fill="#000000" fill-rule="nonzero" fill-opacity="1" /><path clip-path="url(#clip220)" d="M1800.66 1514.29 L1819.02 1514.29 L1819.02 1518.22 L1804.94 1518.22 L1804.94 1526.7 Q1805.96 1526.35 1806.98 1526.19 Q1808 1526 1809.02 1526 Q1814.8 1526 1818.18 1529.17 Q1821.56 1532.34 1821.56 1537.76 Q1821.56 1543.34 1818.09 1546.44 Q1814.62 1549.52 1808.3 1549.52 Q1806.12 1549.52 1803.85 1549.15 Q1801.61 1548.78 1799.2 1548.04 L1799.2 1543.34 Q1801.28 1544.47 1803.51 1545.03 Q1805.73 1545.58 1808.21 1545.58 Q1812.21 1545.58 1814.55 1543.48 Q1816.89 1541.37 1816.89 1537.76 Q1816.89 1534.15 1814.55 1532.04 Q1812.21 1529.94 1808.21 1529.94 Q1806.33 1529.94 1804.46 1530.35 Q1802.6 1530.77 1800.66 1531.65 L1800.66 1514.29 Z" fill="#000000" fill-rule="nonzero" fill-opacity="1" /><path clip-path="url(#clip220)" d="M2242.65 1544.91 L2250.29 1544.91 L2250.29 1518.55 L2241.98 1520.21 L2241.98 1515.95 L2250.24 1514.29 L2254.92 1514.29 L2254.92 1544.91 L2262.56 1544.91 L2262.56 1548.85 L2242.65 1548.85 L2242.65 1544.91 Z" fill="#000000" fill-rule="nonzero" fill-opacity="1" /><path clip-path="url(#clip220)" d="M2272 1542.97 L2276.88 1542.97 L2276.88 1548.85 L2272 1548.85 L2272 1542.97 Z" fill="#000000" fill-rule="nonzero" fill-opacity="1" /><path clip-path="url(#clip220)" d="M2297.07 1517.37 Q2293.46 1517.37 2291.63 1520.93 Q2289.82 1524.47 2289.82 1531.6 Q2289.82 1538.71 2291.63 1542.27 Q2293.46 1545.82 2297.07 1545.82 Q2300.7 1545.82 2302.51 1542.27 Q2304.34 1538.71 2304.34 1531.6 Q2304.34 1524.47 2302.51 1520.93 Q2300.7 1517.37 2297.07 1517.37 M2297.07 1513.66 Q2302.88 1513.66 2305.94 1518.27 Q2309.01 1522.85 2309.01 1531.6 Q2309.01 1540.33 2305.94 1544.94 Q2302.88 1549.52 2297.07 1549.52 Q2291.26 1549.52 2288.18 1544.94 Q2285.13 1540.33 2285.13 1531.6 Q2285.13 1522.85 2288.18 1518.27 Q2291.26 1513.66 2297.07 1513.66 Z" fill="#000000" fill-rule="nonzero" fill-opacity="1" /><path clip-path="url(#clip220)" d="M2327.23 1517.37 Q2323.62 1517.37 2321.79 1520.93 Q2319.99 1524.47 2319.99 1531.6 Q2319.99 1538.71 2321.79 1542.27 Q2323.62 1545.82 2327.23 1545.82 Q2330.87 1545.82 2332.67 1542.27 Q2334.5 1538.71 2334.5 1531.6 Q2334.5 1524.47 2332.67 1520.93 Q2330.87 1517.37 2327.23 1517.37 M2327.23 1513.66 Q2333.04 1513.66 2336.1 1518.27 Q2339.18 1522.85 2339.18 1531.6 Q2339.18 1540.33 2336.1 1544.94 Q2333.04 1549.52 2327.23 1549.52 Q2321.42 1549.52 2318.34 1544.94 Q2315.29 1540.33 2315.29 1531.6 Q2315.29 1522.85 2318.34 1518.27 Q2321.42 1513.66 2327.23 1513.66 Z" fill="#000000" fill-rule="nonzero" fill-opacity="1" /><polyline clip-path="url(#clip220)" style="stroke:#000000; stroke-linecap:round; stroke-linejoin:round; stroke-width:4; stroke-opacity:1; fill:none" points="155.765,1486.45 155.765,47.2441 "/>
<polyline clip-path="url(#clip220)" style="stroke:#000000; stroke-linecap:round; stroke-linejoin:round; stroke-width:4; stroke-opacity:1; fill:none" points="155.765,1370.28 174.663,1370.28 "/>
<polyline clip-path="url(#clip220)" style="stroke:#000000; stroke-linecap:round; stroke-linejoin:round; stroke-width:4; stroke-opacity:1; fill:none" points="155.765,1160.59 174.663,1160.59 "/>
<polyline clip-path="url(#clip220)" style="stroke:#000000; stroke-linecap:round; stroke-linejoin:round; stroke-width:4; stroke-opacity:1; fill:none" points="155.765,950.895 174.663,950.895 "/>
<polyline clip-path="url(#clip220)" style="stroke:#000000; stroke-linecap:round; stroke-linejoin:round; stroke-width:4; stroke-opacity:1; fill:none" points="155.765,741.203 174.663,741.203 "/>
<polyline clip-path="url(#clip220)" style="stroke:#000000; stroke-linecap:round; stroke-linejoin:round; stroke-width:4; stroke-opacity:1; fill:none" points="155.765,531.511 174.663,531.511 "/>
<polyline clip-path="url(#clip220)" style="stroke:#000000; stroke-linecap:round; stroke-linejoin:round; stroke-width:4; stroke-opacity:1; fill:none" points="155.765,321.819 174.663,321.819 "/>
<polyline clip-path="url(#clip220)" style="stroke:#000000; stroke-linecap:round; stroke-linejoin:round; stroke-width:4; stroke-opacity:1; fill:none" points="155.765,112.127 174.663,112.127 "/>
<path clip-path="url(#clip220)" d="M63.5847 1356.08 Q59.9736 1356.08 58.1449 1359.64 Q56.3393 1363.18 56.3393 1370.31 Q56.3393 1377.42 58.1449 1380.98 Q59.9736 1384.53 63.5847 1384.53 Q67.2189 1384.53 69.0244 1380.98 Q70.8531 1377.42 70.8531 1370.31 Q70.8531 1363.18 69.0244 1359.64 Q67.2189 1356.08 63.5847 1356.08 M63.5847 1352.37 Q69.3948 1352.37 72.4503 1356.98 Q75.529 1361.56 75.529 1370.31 Q75.529 1379.04 72.4503 1383.65 Q69.3948 1388.23 63.5847 1388.23 Q57.7745 1388.23 54.6958 1383.65 Q51.6403 1379.04 51.6403 1370.31 Q51.6403 1361.56 54.6958 1356.98 Q57.7745 1352.37 63.5847 1352.37 Z" fill="#000000" fill-rule="nonzero" fill-opacity="1" /><path clip-path="url(#clip220)" d="M83.7466 1381.68 L88.6308 1381.68 L88.6308 1387.56 L83.7466 1387.56 L83.7466 1381.68 Z" fill="#000000" fill-rule="nonzero" fill-opacity="1" /><path clip-path="url(#clip220)" d="M98.8622 1353 L117.219 1353 L117.219 1356.93 L103.145 1356.93 L103.145 1365.41 Q104.163 1365.06 105.182 1364.9 Q106.2 1364.71 107.219 1364.71 Q113.006 1364.71 116.385 1367.88 Q119.765 1371.05 119.765 1376.47 Q119.765 1382.05 116.293 1385.15 Q112.82 1388.23 106.501 1388.23 Q104.325 1388.23 102.057 1387.86 Q99.8113 1387.49 97.4039 1386.75 L97.4039 1382.05 Q99.4872 1383.18 101.709 1383.74 Q103.932 1384.29 106.408 1384.29 Q110.413 1384.29 112.751 1382.19 Q115.089 1380.08 115.089 1376.47 Q115.089 1372.86 112.751 1370.75 Q110.413 1368.65 106.408 1368.65 Q104.534 1368.65 102.659 1369.06 Q100.807 1369.48 98.8622 1370.36 L98.8622 1353 Z" fill="#000000" fill-rule="nonzero" fill-opacity="1" /><path clip-path="url(#clip220)" d="M53.3995 1173.93 L61.0384 1173.93 L61.0384 1147.57 L52.7282 1149.23 L52.7282 1144.97 L60.9921 1143.31 L65.668 1143.31 L65.668 1173.93 L73.3068 1173.93 L73.3068 1177.87 L53.3995 1177.87 L53.3995 1173.93 Z" fill="#000000" fill-rule="nonzero" fill-opacity="1" /><path clip-path="url(#clip220)" d="M82.7512 1171.99 L87.6354 1171.99 L87.6354 1177.87 L82.7512 1177.87 L82.7512 1171.99 Z" fill="#000000" fill-rule="nonzero" fill-opacity="1" /><path clip-path="url(#clip220)" d="M107.821 1146.39 Q104.209 1146.39 102.381 1149.95 Q100.575 1153.49 100.575 1160.62 Q100.575 1167.73 102.381 1171.29 Q104.209 1174.83 107.821 1174.83 Q111.455 1174.83 113.26 1171.29 Q115.089 1167.73 115.089 1160.62 Q115.089 1153.49 113.26 1149.95 Q111.455 1146.39 107.821 1146.39 M107.821 1142.68 Q113.631 1142.68 116.686 1147.29 Q119.765 1151.87 119.765 1160.62 Q119.765 1169.35 116.686 1173.95 Q113.631 1178.54 107.821 1178.54 Q102.01 1178.54 98.9317 1173.95 Q95.8761 1169.35 95.8761 1160.62 Q95.8761 1151.87 98.9317 1147.29 Q102.01 1142.68 107.821 1142.68 Z" fill="#000000" fill-rule="nonzero" fill-opacity="1" /><path clip-path="url(#clip220)" d="M54.3949 964.24 L62.0337 964.24 L62.0337 937.874 L53.7236 939.541 L53.7236 935.281 L61.9874 933.615 L66.6633 933.615 L66.6633 964.24 L74.3022 964.24 L74.3022 968.175 L54.3949 968.175 L54.3949 964.24 Z" fill="#000000" fill-rule="nonzero" fill-opacity="1" /><path clip-path="url(#clip220)" d="M83.7466 962.295 L88.6308 962.295 L88.6308 968.175 L83.7466 968.175 L83.7466 962.295 Z" fill="#000000" fill-rule="nonzero" fill-opacity="1" /><path clip-path="url(#clip220)" d="M98.8622 933.615 L117.219 933.615 L117.219 937.55 L103.145 937.55 L103.145 946.022 Q104.163 945.675 105.182 945.513 Q106.2 945.328 107.219 945.328 Q113.006 945.328 116.385 948.499 Q119.765 951.67 119.765 957.087 Q119.765 962.666 116.293 965.767 Q112.82 968.846 106.501 968.846 Q104.325 968.846 102.057 968.476 Q99.8113 968.105 97.4039 967.365 L97.4039 962.666 Q99.4872 963.8 101.709 964.355 Q103.932 964.911 106.408 964.911 Q110.413 964.911 112.751 962.804 Q115.089 960.698 115.089 957.087 Q115.089 953.476 112.751 951.369 Q110.413 949.263 106.408 949.263 Q104.534 949.263 102.659 949.679 Q100.807 950.096 98.8622 950.976 L98.8622 933.615 Z" fill="#000000" fill-rule="nonzero" fill-opacity="1" /><path clip-path="url(#clip220)" d="M56.6171 754.548 L72.9365 754.548 L72.9365 758.483 L50.9921 758.483 L50.9921 754.548 Q53.6541 751.793 58.2375 747.164 Q62.8439 742.511 64.0245 741.168 Q66.2698 738.645 67.1494 736.909 Q68.0522 735.15 68.0522 733.46 Q68.0522 730.705 66.1078 728.969 Q64.1865 727.233 61.0847 727.233 Q58.8856 727.233 56.4319 727.997 Q54.0014 728.761 51.2236 730.312 L51.2236 725.59 Q54.0477 724.455 56.5014 723.877 Q58.955 723.298 60.9921 723.298 Q66.3624 723.298 69.5568 725.983 Q72.7513 728.668 72.7513 733.159 Q72.7513 735.289 71.9411 737.21 Q71.1541 739.108 69.0476 741.701 Q68.4689 742.372 65.367 745.589 Q62.2652 748.784 56.6171 754.548 Z" fill="#000000" fill-rule="nonzero" fill-opacity="1" /><path clip-path="url(#clip220)" d="M82.7512 752.603 L87.6354 752.603 L87.6354 758.483 L82.7512 758.483 L82.7512 752.603 Z" fill="#000000" fill-rule="nonzero" fill-opacity="1" /><path clip-path="url(#clip220)" d="M107.821 727.002 Q104.209 727.002 102.381 730.566 Q100.575 734.108 100.575 741.238 Q100.575 748.344 102.381 751.909 Q104.209 755.451 107.821 755.451 Q111.455 755.451 113.26 751.909 Q115.089 748.344 115.089 741.238 Q115.089 734.108 113.26 730.566 Q111.455 727.002 107.821 727.002 M107.821 723.298 Q113.631 723.298 116.686 727.904 Q119.765 732.488 119.765 741.238 Q119.765 749.964 116.686 754.571 Q113.631 759.154 107.821 759.154 Q102.01 759.154 98.9317 754.571 Q95.8761 749.964 95.8761 741.238 Q95.8761 732.488 98.9317 727.904 Q102.01 723.298 107.821 723.298 Z" fill="#000000" fill-rule="nonzero" fill-opacity="1" /><path clip-path="url(#clip220)" d="M57.6125 544.856 L73.9318 544.856 L73.9318 548.791 L51.9875 548.791 L51.9875 544.856 Q54.6495 542.101 59.2328 537.472 Q63.8393 532.819 65.0198 531.476 Q67.2652 528.953 68.1448 527.217 Q69.0476 525.458 69.0476 523.768 Q69.0476 521.013 67.1032 519.277 Q65.1819 517.541 62.08 517.541 Q59.881 517.541 57.4273 518.305 Q54.9967 519.069 52.219 520.62 L52.219 515.898 Q55.043 514.764 57.4967 514.185 Q59.9504 513.606 61.9874 513.606 Q67.3578 513.606 70.5522 516.291 Q73.7466 518.976 73.7466 523.467 Q73.7466 525.597 72.9365 527.518 Q72.1494 529.416 70.0429 532.009 Q69.4642 532.68 66.3624 535.898 Q63.2606 539.092 57.6125 544.856 Z" fill="#000000" fill-rule="nonzero" fill-opacity="1" /><path clip-path="url(#clip220)" d="M83.7466 542.912 L88.6308 542.912 L88.6308 548.791 L83.7466 548.791 L83.7466 542.912 Z" fill="#000000" fill-rule="nonzero" fill-opacity="1" /><path clip-path="url(#clip220)" d="M98.8622 514.231 L117.219 514.231 L117.219 518.166 L103.145 518.166 L103.145 526.638 Q104.163 526.291 105.182 526.129 Q106.2 525.944 107.219 525.944 Q113.006 525.944 116.385 529.115 Q119.765 532.287 119.765 537.703 Q119.765 543.282 116.293 546.384 Q112.82 549.462 106.501 549.462 Q104.325 549.462 102.057 549.092 Q99.8113 548.722 97.4039 547.981 L97.4039 543.282 Q99.4872 544.416 101.709 544.972 Q103.932 545.527 106.408 545.527 Q110.413 545.527 112.751 543.421 Q115.089 541.314 115.089 537.703 Q115.089 534.092 112.751 531.986 Q110.413 529.879 106.408 529.879 Q104.534 529.879 102.659 530.296 Q100.807 530.713 98.8622 531.592 L98.8622 514.231 Z" fill="#000000" fill-rule="nonzero" fill-opacity="1" /><path clip-path="url(#clip220)" d="M66.7559 320.465 Q70.1124 321.183 71.9874 323.451 Q73.8855 325.72 73.8855 329.053 Q73.8855 334.169 70.367 336.97 Q66.8485 339.771 60.3671 339.771 Q58.1912 339.771 55.8764 339.331 Q53.5847 338.914 51.131 338.058 L51.131 333.544 Q53.0754 334.678 55.3903 335.257 Q57.7051 335.835 60.2282 335.835 Q64.6263 335.835 66.918 334.099 Q69.2328 332.363 69.2328 329.053 Q69.2328 325.998 67.08 324.285 Q64.9504 322.548 61.131 322.548 L57.1032 322.548 L57.1032 318.706 L61.3161 318.706 Q64.7652 318.706 66.5939 317.34 Q68.4226 315.951 68.4226 313.359 Q68.4226 310.697 66.5245 309.285 Q64.6495 307.849 61.131 307.849 Q59.2097 307.849 57.0106 308.266 Q54.8115 308.683 52.1727 309.562 L52.1727 305.396 Q54.8347 304.655 57.1495 304.285 Q59.4875 303.914 61.5476 303.914 Q66.8717 303.914 69.9735 306.345 Q73.0753 308.752 73.0753 312.873 Q73.0753 315.743 71.4318 317.734 Q69.7883 319.701 66.7559 320.465 Z" fill="#000000" fill-rule="nonzero" fill-opacity="1" /><path clip-path="url(#clip220)" d="M82.7512 333.22 L87.6354 333.22 L87.6354 339.099 L82.7512 339.099 L82.7512 333.22 Z" fill="#000000" fill-rule="nonzero" fill-opacity="1" /><path clip-path="url(#clip220)" d="M107.821 307.618 Q104.209 307.618 102.381 311.183 Q100.575 314.724 100.575 321.854 Q100.575 328.96 102.381 332.525 Q104.209 336.067 107.821 336.067 Q111.455 336.067 113.26 332.525 Q115.089 328.96 115.089 321.854 Q115.089 314.724 113.26 311.183 Q111.455 307.618 107.821 307.618 M107.821 303.914 Q113.631 303.914 116.686 308.521 Q119.765 313.104 119.765 321.854 Q119.765 330.581 116.686 335.187 Q113.631 339.771 107.821 339.771 Q102.01 339.771 98.9317 335.187 Q95.8761 330.581 95.8761 321.854 Q95.8761 313.104 98.9317 308.521 Q102.01 303.914 107.821 303.914 Z" fill="#000000" fill-rule="nonzero" fill-opacity="1" /><path clip-path="url(#clip220)" d="M67.7513 110.773 Q71.1078 111.491 72.9827 113.759 Q74.8809 116.028 74.8809 119.361 Q74.8809 124.477 71.3624 127.278 Q67.8439 130.079 61.3624 130.079 Q59.1865 130.079 56.8717 129.639 Q54.5801 129.222 52.1264 128.366 L52.1264 123.852 Q54.0708 124.986 56.3856 125.565 Q58.7004 126.144 61.2236 126.144 Q65.6217 126.144 67.9133 124.408 Q70.2281 122.671 70.2281 119.361 Q70.2281 116.306 68.0754 114.593 Q65.9457 112.857 62.1263 112.857 L58.0986 112.857 L58.0986 109.014 L62.3115 109.014 Q65.7606 109.014 67.5893 107.648 Q69.418 106.259 69.418 103.667 Q69.418 101.005 67.5198 99.5928 Q65.6448 98.1577 62.1263 98.1577 Q60.205 98.1577 58.006 98.5743 Q55.8069 98.991 53.168 99.8706 L53.168 95.704 Q55.8301 94.9632 58.1449 94.5929 Q60.4828 94.2225 62.543 94.2225 Q67.867 94.2225 70.9689 96.653 Q74.0707 99.0604 74.0707 103.181 Q74.0707 106.051 72.4272 108.042 Q70.7837 110.009 67.7513 110.773 Z" fill="#000000" fill-rule="nonzero" fill-opacity="1" /><path clip-path="url(#clip220)" d="M83.7466 123.528 L88.6308 123.528 L88.6308 129.407 L83.7466 129.407 L83.7466 123.528 Z" fill="#000000" fill-rule="nonzero" fill-opacity="1" /><path clip-path="url(#clip220)" d="M98.8622 94.8475 L117.219 94.8475 L117.219 98.7826 L103.145 98.7826 L103.145 107.255 Q104.163 106.908 105.182 106.746 Q106.2 106.56 107.219 106.56 Q113.006 106.56 116.385 109.732 Q119.765 112.903 119.765 118.32 Q119.765 123.898 116.293 127 Q112.82 130.079 106.501 130.079 Q104.325 130.079 102.057 129.708 Q99.8113 129.338 97.4039 128.597 L97.4039 123.898 Q99.4872 125.033 101.709 125.588 Q103.932 126.144 106.408 126.144 Q110.413 126.144 112.751 124.037 Q115.089 121.931 115.089 118.32 Q115.089 114.708 112.751 112.602 Q110.413 110.496 106.408 110.496 Q104.534 110.496 102.659 110.912 Q100.807 111.329 98.8622 112.209 L98.8622 94.8475 Z" fill="#000000" fill-rule="nonzero" fill-opacity="1" /><path clip-path="url(#clip221)" d="M217.944 1370.28 L425.207 1395.1 L632.47 1412.28 L839.734 1415.26 L1047 1415.48 L1254.26 1435.89 L1461.52 1445.72 L1668.79 1439.95 L1876.05 1439.1 L2083.31 1440.65 L2290.58 1417.79 L2290.58 87.9763 L2083.31 250.351 L1876.05 484.297 L1668.79 533.869 L1461.52 538.261 L1254.26 969.458 L1047 1146.55 L839.734 1226.22 L632.47 1253.92 L425.207 1256.35 L217.944 1370.28  Z" fill="#009af9" fill-rule="evenodd" fill-opacity="0.2"/>
<polyline clip-path="url(#clip221)" style="stroke:#009af9; stroke-linecap:round; stroke-linejoin:round; stroke-width:12; stroke-opacity:1; fill:none" points="217.944,1370.28 425.207,1333.22 632.47,1326.25 839.734,1313.06 1047,1261.93 1254.26,1232.28 1461.52,1268.93 1668.79,1233.28 1876.05,1145.54 2083.31,1185.57 2290.58,1101.21 "/>
</svg>
