<?xml version="1.0" encoding="utf-8"?>
<svg xmlns="http://www.w3.org/2000/svg" xmlns:xlink="http://www.w3.org/1999/xlink" width="600" height="400" viewBox="0 0 2400 1600">
<defs>
  <clipPath id="clip280">
    <rect x="0" y="0" width="2400" height="1600"/>
  </clipPath>
</defs>
<path clip-path="url(#clip280)" d="M0 1600 L2400 1600 L2400 0 L0 0  Z" fill="#ffffff" fill-rule="evenodd" fill-opacity="1"/>
<defs>
  <clipPath id="clip281">
    <rect x="186" y="47" width="2167" height="1440"/>
  </clipPath>
</defs>
<path clip-path="url(#clip280)" d="M186.274 1486.45 L2352.76 1486.45 L2352.76 47.2441 L186.274 47.2441  Z" fill="#ffffff" fill-rule="evenodd" fill-opacity="1"/>
<polyline clip-path="url(#clip281)" style="stroke:#000000; stroke-linecap:round; stroke-linejoin:round; stroke-width:2; stroke-opacity:0.1; fill:none" points="247.59,1486.45 247.59,47.2441 "/>
<polyline clip-path="url(#clip281)" style="stroke:#000000; stroke-linecap:round; stroke-linejoin:round; stroke-width:2; stroke-opacity:0.1; fill:none" points="758.552,1486.45 758.552,47.2441 "/>
<polyline clip-path="url(#clip281)" style="stroke:#000000; stroke-linecap:round; stroke-linejoin:round; stroke-width:2; stroke-opacity:0.1; fill:none" points="1269.51,1486.45 1269.51,47.2441 "/>
<polyline clip-path="url(#clip281)" style="stroke:#000000; stroke-linecap:round; stroke-linejoin:round; stroke-width:2; stroke-opacity:0.1; fill:none" points="1780.48,1486.45 1780.48,47.2441 "/>
<polyline clip-path="url(#clip281)" style="stroke:#000000; stroke-linecap:round; stroke-linejoin:round; stroke-width:2; stroke-opacity:0.1; fill:none" points="2291.44,1486.45 2291.44,47.2441 "/>
<polyline clip-path="url(#clip281)" style="stroke:#000000; stroke-linecap:round; stroke-linejoin:round; stroke-width:2; stroke-opacity:0.1; fill:none" points="186.274,1410.82 2352.76,1410.82 "/>
<polyline clip-path="url(#clip281)" style="stroke:#000000; stroke-linecap:round; stroke-linejoin:round; stroke-width:2; stroke-opacity:0.1; fill:none" points="186.274,1135.28 2352.76,1135.28 "/>
<polyline clip-path="url(#clip281)" style="stroke:#000000; stroke-linecap:round; stroke-linejoin:round; stroke-width:2; stroke-opacity:0.1; fill:none" points="186.274,859.729 2352.76,859.729 "/>
<polyline clip-path="url(#clip281)" style="stroke:#000000; stroke-linecap:round; stroke-linejoin:round; stroke-width:2; stroke-opacity:0.1; fill:none" points="186.274,584.183 2352.76,584.183 "/>
<polyline clip-path="url(#clip281)" style="stroke:#000000; stroke-linecap:round; stroke-linejoin:round; stroke-width:2; stroke-opacity:0.1; fill:none" points="186.274,308.636 2352.76,308.636 "/>
<polyline clip-path="url(#clip280)" style="stroke:#000000; stroke-linecap:round; stroke-linejoin:round; stroke-width:4; stroke-opacity:1; fill:none" points="186.274,1486.45 2352.76,1486.45 "/>
<polyline clip-path="url(#clip280)" style="stroke:#000000; stroke-linecap:round; stroke-linejoin:round; stroke-width:4; stroke-opacity:1; fill:none" points="247.59,1486.45 247.59,1467.55 "/>
<polyline clip-path="url(#clip280)" style="stroke:#000000; stroke-linecap:round; stroke-linejoin:round; stroke-width:4; stroke-opacity:1; fill:none" points="758.552,1486.45 758.552,1467.55 "/>
<polyline clip-path="url(#clip280)" style="stroke:#000000; stroke-linecap:round; stroke-linejoin:round; stroke-width:4; stroke-opacity:1; fill:none" points="1269.51,1486.45 1269.51,1467.55 "/>
<polyline clip-path="url(#clip280)" style="stroke:#000000; stroke-linecap:round; stroke-linejoin:round; stroke-width:4; stroke-opacity:1; fill:none" points="1780.48,1486.45 1780.48,1467.55 "/>
<polyline clip-path="url(#clip280)" style="stroke:#000000; stroke-linecap:round; stroke-linejoin:round; stroke-width:4; stroke-opacity:1; fill:none" points="2291.44,1486.45 2291.44,1467.55 "/>
<path clip-path="url(#clip280)" d="M209.893 1517.37 Q206.282 1517.37 204.453 1520.93 Q202.648 1524.47 202.648 1531.6 Q202.648 1538.71 204.453 1542.27 Q206.282 1545.82 209.893 1545.82 Q213.527 1545.82 215.333 1542.27 Q217.161 1538.71 217.161 1531.6 Q217.161 1524.47 215.333 1520.93 Q213.527 1517.37 209.893 1517.37 M209.893 1513.66 Q215.703 1513.66 218.759 1518.27 Q221.837 1522.85 221.837 1531.6 Q221.837 1540.33 218.759 1544.94 Q215.703 1549.52 209.893 1549.52 Q204.083 1549.52 201.004 1544.94 Q197.949 1540.33 197.949 1531.6 Q197.949 1522.85 201.004 1518.27 Q204.083 1513.66 209.893 1513.66 Z" fill="#000000" fill-rule="nonzero" fill-opacity="1" /><path clip-path="url(#clip280)" d="M230.055 1542.97 L234.939 1542.97 L234.939 1548.85 L230.055 1548.85 L230.055 1542.97 Z" fill="#000000" fill-rule="nonzero" fill-opacity="1" /><path clip-path="url(#clip280)" d="M255.124 1517.37 Q251.513 1517.37 249.684 1520.93 Q247.879 1524.47 247.879 1531.6 Q247.879 1538.71 249.684 1542.27 Q251.513 1545.82 255.124 1545.82 Q258.758 1545.82 260.564 1542.27 Q262.393 1538.71 262.393 1531.6 Q262.393 1524.47 260.564 1520.93 Q258.758 1517.37 255.124 1517.37 M255.124 1513.66 Q260.934 1513.66 263.99 1518.27 Q267.069 1522.85 267.069 1531.6 Q267.069 1540.33 263.99 1544.94 Q260.934 1549.52 255.124 1549.52 Q249.314 1549.52 246.235 1544.94 Q243.18 1540.33 243.18 1531.6 Q243.18 1522.85 246.235 1518.27 Q249.314 1513.66 255.124 1513.66 Z" fill="#000000" fill-rule="nonzero" fill-opacity="1" /><path clip-path="url(#clip280)" d="M285.286 1517.37 Q281.675 1517.37 279.846 1520.93 Q278.041 1524.47 278.041 1531.6 Q278.041 1538.71 279.846 1542.27 Q281.675 1545.82 285.286 1545.82 Q288.92 1545.82 290.726 1542.27 Q292.555 1538.71 292.555 1531.6 Q292.555 1524.47 290.726 1520.93 Q288.92 1517.37 285.286 1517.37 M285.286 1513.66 Q291.096 1513.66 294.152 1518.27 Q297.23 1522.85 297.23 1531.6 Q297.23 1540.33 294.152 1544.94 Q291.096 1549.52 285.286 1549.52 Q279.476 1549.52 276.397 1544.94 Q273.342 1540.33 273.342 1531.6 Q273.342 1522.85 276.397 1518.27 Q279.476 1513.66 285.286 1513.66 Z" fill="#000000" fill-rule="nonzero" fill-opacity="1" /><path clip-path="url(#clip280)" d="M721.353 1517.37 Q717.742 1517.37 715.914 1520.93 Q714.108 1524.47 714.108 1531.6 Q714.108 1538.71 715.914 1542.27 Q717.742 1545.82 721.353 1545.82 Q724.988 1545.82 726.793 1542.27 Q728.622 1538.71 728.622 1531.6 Q728.622 1524.47 726.793 1520.93 Q724.988 1517.37 721.353 1517.37 M721.353 1513.66 Q727.164 1513.66 730.219 1518.27 Q733.298 1522.85 733.298 1531.6 Q733.298 1540.33 730.219 1544.94 Q727.164 1549.52 721.353 1549.52 Q715.543 1549.52 712.465 1544.94 Q709.409 1540.33 709.409 1531.6 Q709.409 1522.85 712.465 1518.27 Q715.543 1513.66 721.353 1513.66 Z" fill="#000000" fill-rule="nonzero" fill-opacity="1" /><path clip-path="url(#clip280)" d="M741.515 1542.97 L746.4 1542.97 L746.4 1548.85 L741.515 1548.85 L741.515 1542.97 Z" fill="#000000" fill-rule="nonzero" fill-opacity="1" /><path clip-path="url(#clip280)" d="M760.612 1544.91 L776.932 1544.91 L776.932 1548.85 L754.987 1548.85 L754.987 1544.91 Q757.649 1542.16 762.233 1537.53 Q766.839 1532.88 768.02 1531.53 Q770.265 1529.01 771.145 1527.27 Q772.048 1525.51 772.048 1523.82 Q772.048 1521.07 770.103 1519.33 Q768.182 1517.6 765.08 1517.6 Q762.881 1517.6 760.427 1518.36 Q757.997 1519.13 755.219 1520.68 L755.219 1515.95 Q758.043 1514.82 760.497 1514.24 Q762.95 1513.66 764.987 1513.66 Q770.358 1513.66 773.552 1516.35 Q776.747 1519.03 776.747 1523.52 Q776.747 1525.65 775.936 1527.57 Q775.149 1529.47 773.043 1532.07 Q772.464 1532.74 769.362 1535.95 Q766.261 1539.15 760.612 1544.91 Z" fill="#000000" fill-rule="nonzero" fill-opacity="1" /><path clip-path="url(#clip280)" d="M786.793 1514.29 L805.149 1514.29 L805.149 1518.22 L791.075 1518.22 L791.075 1526.7 Q792.094 1526.35 793.112 1526.19 Q794.131 1526 795.149 1526 Q800.936 1526 804.316 1529.17 Q807.695 1532.34 807.695 1537.76 Q807.695 1543.34 804.223 1546.44 Q800.751 1549.52 794.432 1549.52 Q792.256 1549.52 789.987 1549.15 Q787.742 1548.78 785.335 1548.04 L785.335 1543.34 Q787.418 1544.47 789.64 1545.03 Q791.862 1545.58 794.339 1545.58 Q798.344 1545.58 800.682 1543.48 Q803.02 1541.37 803.02 1537.76 Q803.02 1534.15 800.682 1532.04 Q798.344 1529.94 794.339 1529.94 Q792.464 1529.94 790.589 1530.35 Q788.737 1530.77 786.793 1531.65 L786.793 1514.29 Z" fill="#000000" fill-rule="nonzero" fill-opacity="1" /><path clip-path="url(#clip280)" d="M1231.82 1517.37 Q1228.21 1517.37 1226.38 1520.93 Q1224.57 1524.47 1224.57 1531.6 Q1224.57 1538.71 1226.38 1542.27 Q1228.21 1545.82 1231.82 1545.82 Q1235.45 1545.82 1237.26 1542.27 Q1239.09 1538.71 1239.09 1531.6 Q1239.09 1524.47 1237.26 1520.93 Q1235.45 1517.37 1231.82 1517.37 M1231.82 1513.66 Q1237.63 1513.66 1240.68 1518.27 Q1243.76 1522.85 1243.76 1531.6 Q1243.76 1540.33 1240.68 1544.94 Q1237.63 1549.52 1231.82 1549.52 Q1226.01 1549.52 1222.93 1544.94 Q1219.87 1540.33 1219.87 1531.6 Q1219.87 1522.85 1222.93 1518.27 Q1226.01 1513.66 1231.82 1513.66 Z" fill="#000000" fill-rule="nonzero" fill-opacity="1" /><path clip-path="url(#clip280)" d="M1251.98 1542.97 L1256.86 1542.97 L1256.86 1548.85 L1251.98 1548.85 L1251.98 1542.97 Z" fill="#000000" fill-rule="nonzero" fill-opacity="1" /><path clip-path="url(#clip280)" d="M1267.1 1514.29 L1285.45 1514.29 L1285.45 1518.22 L1271.38 1518.22 L1271.38 1526.7 Q1272.4 1526.35 1273.42 1526.19 Q1274.43 1526 1275.45 1526 Q1281.24 1526 1284.62 1529.17 Q1288 1532.34 1288 1537.76 Q1288 1543.34 1284.53 1546.44 Q1281.05 1549.52 1274.73 1549.52 Q1272.56 1549.52 1270.29 1549.15 Q1268.05 1548.78 1265.64 1548.04 L1265.64 1543.34 Q1267.72 1544.47 1269.94 1545.03 Q1272.17 1545.58 1274.64 1545.58 Q1278.65 1545.58 1280.98 1543.48 Q1283.32 1541.37 1283.32 1537.76 Q1283.32 1534.15 1280.98 1532.04 Q1278.65 1529.94 1274.64 1529.94 Q1272.77 1529.94 1270.89 1530.35 Q1269.04 1530.77 1267.1 1531.65 L1267.1 1514.29 Z" fill="#000000" fill-rule="nonzero" fill-opacity="1" /><path clip-path="url(#clip280)" d="M1307.21 1517.37 Q1303.6 1517.37 1301.77 1520.93 Q1299.97 1524.47 1299.97 1531.6 Q1299.97 1538.71 1301.77 1542.27 Q1303.6 1545.82 1307.21 1545.82 Q1310.85 1545.82 1312.65 1542.27 Q1314.48 1538.71 1314.48 1531.6 Q1314.48 1524.47 1312.65 1520.93 Q1310.85 1517.37 1307.21 1517.37 M1307.21 1513.66 Q1313.02 1513.66 1316.08 1518.27 Q1319.16 1522.85 1319.16 1531.6 Q1319.16 1540.33 1316.08 1544.94 Q1313.02 1549.52 1307.21 1549.52 Q1301.4 1549.52 1298.32 1544.94 Q1295.27 1540.33 1295.27 1531.6 Q1295.27 1522.85 1298.32 1518.27 Q1301.4 1513.66 1307.21 1513.66 Z" fill="#000000" fill-rule="nonzero" fill-opacity="1" /><path clip-path="url(#clip280)" d="M1743.28 1517.37 Q1739.67 1517.37 1737.84 1520.93 Q1736.03 1524.47 1736.03 1531.6 Q1736.03 1538.71 1737.84 1542.27 Q1739.67 1545.82 1743.28 1545.82 Q1746.91 1545.82 1748.72 1542.27 Q1750.55 1538.71 1750.55 1531.6 Q1750.55 1524.47 1748.72 1520.93 Q1746.91 1517.37 1743.28 1517.37 M1743.28 1513.66 Q1749.09 1513.66 1752.14 1518.27 Q1755.22 1522.85 1755.22 1531.6 Q1755.22 1540.33 1752.14 1544.94 Q1749.09 1549.52 1743.28 1549.52 Q1737.47 1549.52 1734.39 1544.94 Q1731.33 1540.33 1731.33 1531.6 Q1731.33 1522.85 1734.39 1518.27 Q1737.47 1513.66 1743.28 1513.66 Z" fill="#000000" fill-rule="nonzero" fill-opacity="1" /><path clip-path="url(#clip280)" d="M1763.44 1542.97 L1768.32 1542.97 L1768.32 1548.85 L1763.44 1548.85 L1763.44 1542.97 Z" fill="#000000" fill-rule="nonzero" fill-opacity="1" /><path clip-path="url(#clip280)" d="M1777.33 1514.29 L1799.55 1514.29 L1799.55 1516.28 L1787.01 1548.85 L1782.12 1548.85 L1793.93 1518.22 L1777.33 1518.22 L1777.33 1514.29 Z" fill="#000000" fill-rule="nonzero" fill-opacity="1" /><path clip-path="url(#clip280)" d="M1808.72 1514.29 L1827.07 1514.29 L1827.07 1518.22 L1813 1518.22 L1813 1526.7 Q1814.02 1526.35 1815.04 1526.19 Q1816.06 1526 1817.07 1526 Q1822.86 1526 1826.24 1529.17 Q1829.62 1532.34 1829.62 1537.76 Q1829.62 1543.34 1826.15 1546.44 Q1822.68 1549.52 1816.36 1549.52 Q1814.18 1549.52 1811.91 1549.15 Q1809.67 1548.78 1807.26 1548.04 L1807.26 1543.34 Q1809.34 1544.47 1811.57 1545.03 Q1813.79 1545.58 1816.26 1545.58 Q1820.27 1545.58 1822.61 1543.48 Q1824.95 1541.37 1824.95 1537.76 Q1824.95 1534.15 1822.61 1532.04 Q1820.27 1529.94 1816.26 1529.94 Q1814.39 1529.94 1812.51 1530.35 Q1810.66 1530.77 1808.72 1531.65 L1808.72 1514.29 Z" fill="#000000" fill-rule="nonzero" fill-opacity="1" /><path clip-path="url(#clip280)" d="M2243.51 1544.91 L2251.15 1544.91 L2251.15 1518.55 L2242.84 1520.21 L2242.84 1515.95 L2251.1 1514.29 L2255.78 1514.29 L2255.78 1544.91 L2263.42 1544.91 L2263.42 1548.85 L2243.51 1548.85 L2243.51 1544.91 Z" fill="#000000" fill-rule="nonzero" fill-opacity="1" /><path clip-path="url(#clip280)" d="M2272.86 1542.97 L2277.75 1542.97 L2277.75 1548.85 L2272.86 1548.85 L2272.86 1542.97 Z" fill="#000000" fill-rule="nonzero" fill-opacity="1" /><path clip-path="url(#clip280)" d="M2297.93 1517.37 Q2294.32 1517.37 2292.49 1520.93 Q2290.69 1524.47 2290.69 1531.6 Q2290.69 1538.71 2292.49 1542.27 Q2294.32 1545.82 2297.93 1545.82 Q2301.57 1545.82 2303.37 1542.27 Q2305.2 1538.71 2305.2 1531.6 Q2305.2 1524.47 2303.37 1520.93 Q2301.57 1517.37 2297.93 1517.37 M2297.93 1513.66 Q2303.74 1513.66 2306.8 1518.27 Q2309.88 1522.85 2309.88 1531.6 Q2309.88 1540.33 2306.8 1544.94 Q2303.74 1549.52 2297.93 1549.52 Q2292.12 1549.52 2289.04 1544.94 Q2285.99 1540.33 2285.99 1531.6 Q2285.99 1522.85 2289.04 1518.27 Q2292.12 1513.66 2297.93 1513.66 Z" fill="#000000" fill-rule="nonzero" fill-opacity="1" /><path clip-path="url(#clip280)" d="M2328.1 1517.37 Q2324.48 1517.37 2322.66 1520.93 Q2320.85 1524.47 2320.85 1531.6 Q2320.85 1538.71 2322.66 1542.27 Q2324.48 1545.82 2328.1 1545.82 Q2331.73 1545.82 2333.54 1542.27 Q2335.36 1538.71 2335.36 1531.6 Q2335.36 1524.47 2333.54 1520.93 Q2331.73 1517.37 2328.1 1517.37 M2328.1 1513.66 Q2333.91 1513.66 2336.96 1518.27 Q2340.04 1522.85 2340.04 1531.6 Q2340.04 1540.33 2336.96 1544.94 Q2333.91 1549.52 2328.1 1549.52 Q2322.29 1549.52 2319.21 1544.94 Q2316.15 1540.33 2316.15 1531.6 Q2316.15 1522.85 2319.21 1518.27 Q2322.29 1513.66 2328.1 1513.66 Z" fill="#000000" fill-rule="nonzero" fill-opacity="1" /><polyline clip-path="url(#clip280)" style="stroke:#000000; stroke-linecap:round; stroke-linejoin:round; stroke-width:4; stroke-opacity:1; fill:none" points="186.274,1486.45 186.274,47.2441 "/>
<polyline clip-path="url(#clip280)" style="stroke:#000000; stroke-linecap:round; stroke-linejoin:round; stroke-width:4; stroke-opacity:1; fill:none" points="186.274,1410.82 205.172,1410.82 "/>
<polyline clip-path="url(#clip280)" style="stroke:#000000; stroke-linecap:round; stroke-linejoin:round; stroke-width:4; stroke-opacity:1; fill:none" points="186.274,1135.28 205.172,1135.28 "/>
<polyline clip-path="url(#clip280)" style="stroke:#000000; stroke-linecap:round; stroke-linejoin:round; stroke-width:4; stroke-opacity:1; fill:none" points="186.274,859.729 205.172,859.729 "/>
<polyline clip-path="url(#clip280)" style="stroke:#000000; stroke-linecap:round; stroke-linejoin:round; stroke-width:4; stroke-opacity:1; fill:none" points="186.274,584.183 205.172,584.183 "/>
<polyline clip-path="url(#clip280)" style="stroke:#000000; stroke-linecap:round; stroke-linejoin:round; stroke-width:4; stroke-opacity:1; fill:none" points="186.274,308.636 205.172,308.636 "/>
<path clip-path="url(#clip280)" d="M62.9365 1396.62 Q59.3254 1396.62 57.4967 1400.19 Q55.6912 1403.73 55.6912 1410.86 Q55.6912 1417.96 57.4967 1421.53 Q59.3254 1425.07 62.9365 1425.07 Q66.5707 1425.07 68.3763 1421.53 Q70.205 1417.96 70.205 1410.86 Q70.205 1403.73 68.3763 1400.19 Q66.5707 1396.62 62.9365 1396.62 M62.9365 1392.92 Q68.7467 1392.92 71.8022 1397.52 Q74.8809 1402.11 74.8809 1410.86 Q74.8809 1419.58 71.8022 1424.19 Q68.7467 1428.77 62.9365 1428.77 Q57.1264 1428.77 54.0477 1424.19 Q50.9921 1419.58 50.9921 1410.86 Q50.9921 1402.11 54.0477 1397.52 Q57.1264 1392.92 62.9365 1392.92 Z" fill="#000000" fill-rule="nonzero" fill-opacity="1" /><path clip-path="url(#clip280)" d="M83.0984 1422.22 L87.9827 1422.22 L87.9827 1428.1 L83.0984 1428.1 L83.0984 1422.22 Z" fill="#000000" fill-rule="nonzero" fill-opacity="1" /><path clip-path="url(#clip280)" d="M98.2141 1393.54 L116.57 1393.54 L116.57 1397.48 L102.496 1397.48 L102.496 1405.95 Q103.515 1405.6 104.534 1405.44 Q105.552 1405.26 106.571 1405.26 Q112.358 1405.26 115.737 1408.43 Q119.117 1411.6 119.117 1417.01 Q119.117 1422.59 115.645 1425.7 Q112.172 1428.77 105.853 1428.77 Q103.677 1428.77 101.409 1428.4 Q99.1632 1428.03 96.7558 1427.29 L96.7558 1422.59 Q98.8391 1423.73 101.061 1424.28 Q103.284 1424.84 105.76 1424.84 Q109.765 1424.84 112.103 1422.73 Q114.441 1420.63 114.441 1417.01 Q114.441 1413.4 112.103 1411.3 Q109.765 1409.19 105.76 1409.19 Q103.885 1409.19 102.01 1409.61 Q100.159 1410.02 98.2141 1410.9 L98.2141 1393.54 Z" fill="#000000" fill-rule="nonzero" fill-opacity="1" /><path clip-path="url(#clip280)" d="M138.33 1396.62 Q134.719 1396.62 132.89 1400.19 Q131.084 1403.73 131.084 1410.86 Q131.084 1417.96 132.89 1421.53 Q134.719 1425.07 138.33 1425.07 Q141.964 1425.07 143.769 1421.53 Q145.598 1417.96 145.598 1410.86 Q145.598 1403.73 143.769 1400.19 Q141.964 1396.62 138.33 1396.62 M138.33 1392.92 Q144.14 1392.92 147.195 1397.52 Q150.274 1402.11 150.274 1410.86 Q150.274 1419.58 147.195 1424.19 Q144.14 1428.77 138.33 1428.77 Q132.519 1428.77 129.441 1424.19 Q126.385 1419.58 126.385 1410.86 Q126.385 1402.11 129.441 1397.52 Q132.519 1392.92 138.33 1392.92 Z" fill="#000000" fill-rule="nonzero" fill-opacity="1" /><path clip-path="url(#clip280)" d="M63.9319 1121.07 Q60.3208 1121.07 58.4921 1124.64 Q56.6865 1128.18 56.6865 1135.31 Q56.6865 1142.42 58.4921 1145.98 Q60.3208 1149.52 63.9319 1149.52 Q67.5661 1149.52 69.3717 1145.98 Q71.2004 1142.42 71.2004 1135.31 Q71.2004 1128.18 69.3717 1124.64 Q67.5661 1121.07 63.9319 1121.07 M63.9319 1117.37 Q69.742 1117.37 72.7976 1121.98 Q75.8763 1126.56 75.8763 1135.31 Q75.8763 1144.04 72.7976 1148.64 Q69.742 1153.23 63.9319 1153.23 Q58.1217 1153.23 55.043 1148.64 Q51.9875 1144.04 51.9875 1135.31 Q51.9875 1126.56 55.043 1121.98 Q58.1217 1117.37 63.9319 1117.37 Z" fill="#000000" fill-rule="nonzero" fill-opacity="1" /><path clip-path="url(#clip280)" d="M84.0938 1146.68 L88.978 1146.68 L88.978 1152.56 L84.0938 1152.56 L84.0938 1146.68 Z" fill="#000000" fill-rule="nonzero" fill-opacity="1" /><path clip-path="url(#clip280)" d="M97.9826 1118 L120.205 1118 L120.205 1119.99 L107.658 1152.56 L102.774 1152.56 L114.58 1121.93 L97.9826 1121.93 L97.9826 1118 Z" fill="#000000" fill-rule="nonzero" fill-opacity="1" /><path clip-path="url(#clip280)" d="M129.371 1118 L147.728 1118 L147.728 1121.93 L133.654 1121.93 L133.654 1130.4 Q134.672 1130.06 135.691 1129.89 Q136.709 1129.71 137.728 1129.71 Q143.515 1129.71 146.894 1132.88 Q150.274 1136.05 150.274 1141.47 Q150.274 1147.05 146.802 1150.15 Q143.33 1153.23 137.01 1153.23 Q134.834 1153.23 132.566 1152.86 Q130.32 1152.49 127.913 1151.75 L127.913 1147.05 Q129.996 1148.18 132.219 1148.74 Q134.441 1149.29 136.918 1149.29 Q140.922 1149.29 143.26 1147.19 Q145.598 1145.08 145.598 1141.47 Q145.598 1137.86 143.26 1135.75 Q140.922 1133.64 136.918 1133.64 Q135.043 1133.64 133.168 1134.06 Q131.316 1134.48 129.371 1135.36 L129.371 1118 Z" fill="#000000" fill-rule="nonzero" fill-opacity="1" /><path clip-path="url(#clip280)" d="M53.7467 873.074 L61.3856 873.074 L61.3856 846.709 L53.0754 848.375 L53.0754 844.116 L61.3393 842.449 L66.0152 842.449 L66.0152 873.074 L73.654 873.074 L73.654 877.009 L53.7467 877.009 L53.7467 873.074 Z" fill="#000000" fill-rule="nonzero" fill-opacity="1" /><path clip-path="url(#clip280)" d="M83.0984 871.13 L87.9827 871.13 L87.9827 877.009 L83.0984 877.009 L83.0984 871.13 Z" fill="#000000" fill-rule="nonzero" fill-opacity="1" /><path clip-path="url(#clip280)" d="M108.168 845.528 Q104.557 845.528 102.728 849.093 Q100.922 852.634 100.922 859.764 Q100.922 866.871 102.728 870.435 Q104.557 873.977 108.168 873.977 Q111.802 873.977 113.608 870.435 Q115.436 866.871 115.436 859.764 Q115.436 852.634 113.608 849.093 Q111.802 845.528 108.168 845.528 M108.168 841.824 Q113.978 841.824 117.033 846.431 Q120.112 851.014 120.112 859.764 Q120.112 868.491 117.033 873.097 Q113.978 877.681 108.168 877.681 Q102.358 877.681 99.2789 873.097 Q96.2234 868.491 96.2234 859.764 Q96.2234 851.014 99.2789 846.431 Q102.358 841.824 108.168 841.824 Z" fill="#000000" fill-rule="nonzero" fill-opacity="1" /><path clip-path="url(#clip280)" d="M138.33 845.528 Q134.719 845.528 132.89 849.093 Q131.084 852.634 131.084 859.764 Q131.084 866.871 132.89 870.435 Q134.719 873.977 138.33 873.977 Q141.964 873.977 143.769 870.435 Q145.598 866.871 145.598 859.764 Q145.598 852.634 143.769 849.093 Q141.964 845.528 138.33 845.528 M138.33 841.824 Q144.14 841.824 147.195 846.431 Q150.274 851.014 150.274 859.764 Q150.274 868.491 147.195 873.097 Q144.14 877.681 138.33 877.681 Q132.519 877.681 129.441 873.097 Q126.385 868.491 126.385 859.764 Q126.385 851.014 129.441 846.431 Q132.519 841.824 138.33 841.824 Z" fill="#000000" fill-rule="nonzero" fill-opacity="1" /><path clip-path="url(#clip280)" d="M54.7421 597.527 L62.381 597.527 L62.381 571.162 L54.0708 572.829 L54.0708 568.569 L62.3347 566.903 L67.0106 566.903 L67.0106 597.527 L74.6494 597.527 L74.6494 601.463 L54.7421 601.463 L54.7421 597.527 Z" fill="#000000" fill-rule="nonzero" fill-opacity="1" /><path clip-path="url(#clip280)" d="M84.0938 595.583 L88.978 595.583 L88.978 601.463 L84.0938 601.463 L84.0938 595.583 Z" fill="#000000" fill-rule="nonzero" fill-opacity="1" /><path clip-path="url(#clip280)" d="M103.191 597.527 L119.51 597.527 L119.51 601.463 L97.566 601.463 L97.566 597.527 Q100.228 594.773 104.811 590.143 Q109.418 585.49 110.598 584.148 Q112.844 581.625 113.723 579.889 Q114.626 578.129 114.626 576.44 Q114.626 573.685 112.682 571.949 Q110.76 570.213 107.658 570.213 Q105.459 570.213 103.006 570.977 Q100.575 571.741 97.7974 573.291 L97.7974 568.569 Q100.621 567.435 103.075 566.856 Q105.529 566.278 107.566 566.278 Q112.936 566.278 116.131 568.963 Q119.325 571.648 119.325 576.139 Q119.325 578.268 118.515 580.19 Q117.728 582.088 115.621 584.68 Q115.043 585.352 111.941 588.569 Q108.839 591.764 103.191 597.527 Z" fill="#000000" fill-rule="nonzero" fill-opacity="1" /><path clip-path="url(#clip280)" d="M129.371 566.903 L147.728 566.903 L147.728 570.838 L133.654 570.838 L133.654 579.31 Q134.672 578.963 135.691 578.801 Q136.709 578.616 137.728 578.616 Q143.515 578.616 146.894 581.787 Q150.274 584.958 150.274 590.375 Q150.274 595.953 146.802 599.055 Q143.33 602.134 137.01 602.134 Q134.834 602.134 132.566 601.764 Q130.32 601.393 127.913 600.652 L127.913 595.953 Q129.996 597.088 132.219 597.643 Q134.441 598.199 136.918 598.199 Q140.922 598.199 143.26 596.092 Q145.598 593.986 145.598 590.375 Q145.598 586.764 143.26 584.657 Q140.922 582.551 136.918 582.551 Q135.043 582.551 133.168 582.967 Q131.316 583.384 129.371 584.264 L129.371 566.903 Z" fill="#000000" fill-rule="nonzero" fill-opacity="1" /><path clip-path="url(#clip280)" d="M53.7467 321.981 L61.3856 321.981 L61.3856 295.615 L53.0754 297.282 L53.0754 293.023 L61.3393 291.356 L66.0152 291.356 L66.0152 321.981 L73.654 321.981 L73.654 325.916 L53.7467 325.916 L53.7467 321.981 Z" fill="#000000" fill-rule="nonzero" fill-opacity="1" /><path clip-path="url(#clip280)" d="M83.0984 320.036 L87.9827 320.036 L87.9827 325.916 L83.0984 325.916 L83.0984 320.036 Z" fill="#000000" fill-rule="nonzero" fill-opacity="1" /><path clip-path="url(#clip280)" d="M98.2141 291.356 L116.57 291.356 L116.57 295.291 L102.496 295.291 L102.496 303.763 Q103.515 303.416 104.534 303.254 Q105.552 303.069 106.571 303.069 Q112.358 303.069 115.737 306.24 Q119.117 309.411 119.117 314.828 Q119.117 320.407 115.645 323.508 Q112.172 326.587 105.853 326.587 Q103.677 326.587 101.409 326.217 Q99.1632 325.846 96.7558 325.106 L96.7558 320.407 Q98.8391 321.541 101.061 322.096 Q103.284 322.652 105.76 322.652 Q109.765 322.652 112.103 320.546 Q114.441 318.439 114.441 314.828 Q114.441 311.217 112.103 309.11 Q109.765 307.004 105.76 307.004 Q103.885 307.004 102.01 307.421 Q100.159 307.837 98.2141 308.717 L98.2141 291.356 Z" fill="#000000" fill-rule="nonzero" fill-opacity="1" /><path clip-path="url(#clip280)" d="M138.33 294.435 Q134.719 294.435 132.89 297.999 Q131.084 301.541 131.084 308.671 Q131.084 315.777 132.89 319.342 Q134.719 322.883 138.33 322.883 Q141.964 322.883 143.769 319.342 Q145.598 315.777 145.598 308.671 Q145.598 301.541 143.769 297.999 Q141.964 294.435 138.33 294.435 M138.33 290.731 Q144.14 290.731 147.195 295.337 Q150.274 299.921 150.274 308.671 Q150.274 317.397 147.195 322.004 Q144.14 326.587 138.33 326.587 Q132.519 326.587 129.441 322.004 Q126.385 317.397 126.385 308.671 Q126.385 299.921 129.441 295.337 Q132.519 290.731 138.33 290.731 Z" fill="#000000" fill-rule="nonzero" fill-opacity="1" /><polyline clip-path="url(#clip281)" style="stroke:#009af9; stroke-linecap:round; stroke-linejoin:round; stroke-width:12; stroke-opacity:1; fill:none" points="247.59,1410.82 451.975,1371.07 656.36,1305.43 860.745,1231.1 1065.13,1279.72 1269.51,1255.98 1473.9,1205.85 1678.29,1086.88 1882.67,998.601 2087.06,1107.87 2291.44,1073.68 "/>
<polyline clip-path="url(#clip281)" style="stroke:#e26f46; stroke-linecap:round; stroke-linejoin:round; stroke-width:12; stroke-opacity:1; fill:none" points="247.59,1410.82 451.975,1409.95 656.36,1349.78 860.745,1323.17 1065.13,1303.91 1269.51,1262.18 1473.9,909.702 1678.29,1089.08 1882.67,1190.33 2087.06,1097.41 2291.44,999.005 "/>
<polyline clip-path="url(#clip281)" style="stroke:#3da44d; stroke-linecap:round; stroke-linejoin:round; stroke-width:12; stroke-opacity:1; fill:none" points="247.59,1410.82 451.975,1313.42 656.36,1295.12 860.745,1260.45 1065.13,1126.06 1269.51,1048.14 1473.9,1144.46 1678.29,1050.77 1882.67,820.172 2087.06,925.384 2291.44,703.692 "/>
<polyline clip-path="url(#clip281)" style="stroke:#c271d2; stroke-linecap:round; stroke-linejoin:round; stroke-width:12; stroke-opacity:1; fill:none" points="247.59,1410.82 451.975,1378.59 656.36,1282.49 860.745,1235.26 1065.13,1209.19 1269.51,1161.11 1473.9,1121.78 1678.29,1036.31 1882.67,929.642 2087.06,901.694 2291.44,981.339 "/>
<polyline clip-path="url(#clip281)" style="stroke:#ac8d18; stroke-linecap:round; stroke-linejoin:round; stroke-width:12; stroke-opacity:1; fill:none" points="247.59,1410.82 451.975,1403.5 656.36,1350.82 860.745,1195.45 1065.13,992.221 1269.51,971.627 1473.9,813.667 1678.29,361.818 1882.67,270.367 2087.06,410.607 2291.44,87.9763 "/>
<polyline clip-path="url(#clip281)" style="stroke:#00a9ad; stroke-linecap:round; stroke-linejoin:round; stroke-width:12; stroke-opacity:1; fill:none" points="247.59,1410.82 451.975,1444.7 656.36,1445.72 860.745,1444.19 1065.13,1315.58 1269.51,1202.19 1473.9,1194.16 1678.29,1185.78 1882.67,990.986 2087.06,938.459 2291.44,790.825 "/>
<polyline clip-path="url(#clip281)" style="stroke:#ed5d92; stroke-linecap:round; stroke-linejoin:round; stroke-width:12; stroke-opacity:1; fill:none" points="247.59,1410.82 451.975,1365.11 656.36,1332.15 860.745,1330.15 1065.13,1295.03 1269.51,1227.37 1473.9,1218.31 1678.29,1027.28 1882.67,959.602 2087.06,998.094 2291.44,864.209 "/>
<polyline clip-path="url(#clip281)" style="stroke:#c68125; stroke-linecap:round; stroke-linejoin:round; stroke-width:12; stroke-opacity:1; fill:none" points="247.59,1410.82 451.975,1363.01 656.36,1430.24 860.745,1348.7 1065.13,1302.39 1269.51,1139.11 1473.9,1146.43 1678.29,1185.98 1882.67,1273.98 2087.06,1183.39 2291.44,882.698 "/>
</svg>
