<?xml version="1.0" encoding="utf-8"?>
<svg xmlns="http://www.w3.org/2000/svg" xmlns:xlink="http://www.w3.org/1999/xlink" width="600" height="400" viewBox="0 0 2400 1600">
<defs>
  <clipPath id="clip610">
    <rect x="0" y="0" width="2400" height="1600"/>
  </clipPath>
</defs>
<path clip-path="url(#clip610)" d="M0 1600 L2400 1600 L2400 0 L0 0  Z" fill="#ffffff" fill-rule="evenodd" fill-opacity="1"/>
<defs>
  <clipPath id="clip611">
    <rect x="155" y="47" width="2198" height="1440"/>
  </clipPath>
</defs>
<path clip-path="url(#clip610)" d="M155.765 1486.45 L2352.76 1486.45 L2352.76 47.2441 L155.765 47.2441  Z" fill="#ffffff" fill-rule="evenodd" fill-opacity="1"/>
<polyline clip-path="url(#clip611)" style="stroke:#000000; stroke-linecap:round; stroke-linejoin:round; stroke-width:2; stroke-opacity:0.1; fill:none" points="217.944,1486.45 217.944,47.2441 "/>
<polyline clip-path="url(#clip611)" style="stroke:#000000; stroke-linecap:round; stroke-linejoin:round; stroke-width:2; stroke-opacity:0.1; fill:none" points="736.102,1486.45 736.102,47.2441 "/>
<polyline clip-path="url(#clip611)" style="stroke:#000000; stroke-linecap:round; stroke-linejoin:round; stroke-width:2; stroke-opacity:0.1; fill:none" points="1254.26,1486.45 1254.26,47.2441 "/>
<polyline clip-path="url(#clip611)" style="stroke:#000000; stroke-linecap:round; stroke-linejoin:round; stroke-width:2; stroke-opacity:0.1; fill:none" points="1772.42,1486.45 1772.42,47.2441 "/>
<polyline clip-path="url(#clip611)" style="stroke:#000000; stroke-linecap:round; stroke-linejoin:round; stroke-width:2; stroke-opacity:0.1; fill:none" points="2290.58,1486.45 2290.58,47.2441 "/>
<polyline clip-path="url(#clip611)" style="stroke:#000000; stroke-linecap:round; stroke-linejoin:round; stroke-width:2; stroke-opacity:0.1; fill:none" points="155.765,1342.23 2352.76,1342.23 "/>
<polyline clip-path="url(#clip611)" style="stroke:#000000; stroke-linecap:round; stroke-linejoin:round; stroke-width:2; stroke-opacity:0.1; fill:none" points="155.765,1155.43 2352.76,1155.43 "/>
<polyline clip-path="url(#clip611)" style="stroke:#000000; stroke-linecap:round; stroke-linejoin:round; stroke-width:2; stroke-opacity:0.1; fill:none" points="155.765,968.623 2352.76,968.623 "/>
<polyline clip-path="url(#clip611)" style="stroke:#000000; stroke-linecap:round; stroke-linejoin:round; stroke-width:2; stroke-opacity:0.1; fill:none" points="155.765,781.82 2352.76,781.82 "/>
<polyline clip-path="url(#clip611)" style="stroke:#000000; stroke-linecap:round; stroke-linejoin:round; stroke-width:2; stroke-opacity:0.1; fill:none" points="155.765,595.017 2352.76,595.017 "/>
<polyline clip-path="url(#clip611)" style="stroke:#000000; stroke-linecap:round; stroke-linejoin:round; stroke-width:2; stroke-opacity:0.1; fill:none" points="155.765,408.214 2352.76,408.214 "/>
<polyline clip-path="url(#clip611)" style="stroke:#000000; stroke-linecap:round; stroke-linejoin:round; stroke-width:2; stroke-opacity:0.1; fill:none" points="155.765,221.412 2352.76,221.412 "/>
<polyline clip-path="url(#clip610)" style="stroke:#000000; stroke-linecap:round; stroke-linejoin:round; stroke-width:4; stroke-opacity:1; fill:none" points="155.765,1486.45 2352.76,1486.45 "/>
<polyline clip-path="url(#clip610)" style="stroke:#000000; stroke-linecap:round; stroke-linejoin:round; stroke-width:4; stroke-opacity:1; fill:none" points="217.944,1486.45 217.944,1467.55 "/>
<polyline clip-path="url(#clip610)" style="stroke:#000000; stroke-linecap:round; stroke-linejoin:round; stroke-width:4; stroke-opacity:1; fill:none" points="736.102,1486.45 736.102,1467.55 "/>
<polyline clip-path="url(#clip610)" style="stroke:#000000; stroke-linecap:round; stroke-linejoin:round; stroke-width:4; stroke-opacity:1; fill:none" points="1254.26,1486.45 1254.26,1467.55 "/>
<polyline clip-path="url(#clip610)" style="stroke:#000000; stroke-linecap:round; stroke-linejoin:round; stroke-width:4; stroke-opacity:1; fill:none" points="1772.42,1486.45 1772.42,1467.55 "/>
<polyline clip-path="url(#clip610)" style="stroke:#000000; stroke-linecap:round; stroke-linejoin:round; stroke-width:4; stroke-opacity:1; fill:none" points="2290.58,1486.45 2290.58,1467.55 "/>
<path clip-path="url(#clip610)" d="M180.247 1517.37 Q176.636 1517.37 174.808 1520.93 Q173.002 1524.47 173.002 1531.6 Q173.002 1538.71 174.808 1542.27 Q176.636 1545.82 180.247 1545.82 Q183.882 1545.82 185.687 1542.27 Q187.516 1538.71 187.516 1531.6 Q187.516 1524.47 185.687 1520.93 Q183.882 1517.37 180.247 1517.37 M180.247 1513.66 Q186.057 1513.66 189.113 1518.27 Q192.192 1522.85 192.192 1531.6 Q192.192 1540.33 189.113 1544.94 Q186.057 1549.52 180.247 1549.52 Q174.437 1549.52 171.358 1544.94 Q168.303 1540.33 168.303 1531.6 Q168.303 1522.85 171.358 1518.27 Q174.437 1513.66 180.247 1513.66 Z" fill="#000000" fill-rule="nonzero" fill-opacity="1" /><path clip-path="url(#clip610)" d="M200.409 1542.97 L205.294 1542.97 L205.294 1548.85 L200.409 1548.85 L200.409 1542.97 Z" fill="#000000" fill-rule="nonzero" fill-opacity="1" /><path clip-path="url(#clip610)" d="M225.479 1517.37 Q221.867 1517.37 220.039 1520.93 Q218.233 1524.47 218.233 1531.6 Q218.233 1538.71 220.039 1542.27 Q221.867 1545.82 225.479 1545.82 Q229.113 1545.82 230.918 1542.27 Q232.747 1538.71 232.747 1531.6 Q232.747 1524.47 230.918 1520.93 Q229.113 1517.37 225.479 1517.37 M225.479 1513.66 Q231.289 1513.66 234.344 1518.27 Q237.423 1522.85 237.423 1531.6 Q237.423 1540.33 234.344 1544.94 Q231.289 1549.52 225.479 1549.52 Q219.668 1549.52 216.59 1544.94 Q213.534 1540.33 213.534 1531.6 Q213.534 1522.85 216.59 1518.27 Q219.668 1513.66 225.479 1513.66 Z" fill="#000000" fill-rule="nonzero" fill-opacity="1" /><path clip-path="url(#clip610)" d="M255.64 1517.37 Q252.029 1517.37 250.201 1520.93 Q248.395 1524.47 248.395 1531.6 Q248.395 1538.71 250.201 1542.27 Q252.029 1545.82 255.64 1545.82 Q259.275 1545.82 261.08 1542.27 Q262.909 1538.71 262.909 1531.6 Q262.909 1524.47 261.08 1520.93 Q259.275 1517.37 255.64 1517.37 M255.64 1513.66 Q261.451 1513.66 264.506 1518.27 Q267.585 1522.85 267.585 1531.6 Q267.585 1540.33 264.506 1544.94 Q261.451 1549.52 255.64 1549.52 Q249.83 1549.52 246.752 1544.94 Q243.696 1540.33 243.696 1531.6 Q243.696 1522.85 246.752 1518.27 Q249.83 1513.66 255.64 1513.66 Z" fill="#000000" fill-rule="nonzero" fill-opacity="1" /><path clip-path="url(#clip610)" d="M698.903 1517.37 Q695.292 1517.37 693.463 1520.93 Q691.658 1524.47 691.658 1531.6 Q691.658 1538.71 693.463 1542.27 Q695.292 1545.82 698.903 1545.82 Q702.538 1545.82 704.343 1542.27 Q706.172 1538.71 706.172 1531.6 Q706.172 1524.47 704.343 1520.93 Q702.538 1517.37 698.903 1517.37 M698.903 1513.66 Q704.713 1513.66 707.769 1518.27 Q710.848 1522.85 710.848 1531.6 Q710.848 1540.33 707.769 1544.94 Q704.713 1549.52 698.903 1549.52 Q693.093 1549.52 690.014 1544.94 Q686.959 1540.33 686.959 1531.6 Q686.959 1522.85 690.014 1518.27 Q693.093 1513.66 698.903 1513.66 Z" fill="#000000" fill-rule="nonzero" fill-opacity="1" /><path clip-path="url(#clip610)" d="M719.065 1542.97 L723.949 1542.97 L723.949 1548.85 L719.065 1548.85 L719.065 1542.97 Z" fill="#000000" fill-rule="nonzero" fill-opacity="1" /><path clip-path="url(#clip610)" d="M738.162 1544.91 L754.482 1544.91 L754.482 1548.85 L732.537 1548.85 L732.537 1544.91 Q735.199 1542.16 739.783 1537.53 Q744.389 1532.88 745.57 1531.53 Q747.815 1529.01 748.695 1527.27 Q749.597 1525.51 749.597 1523.82 Q749.597 1521.07 747.653 1519.33 Q745.732 1517.6 742.63 1517.6 Q740.431 1517.6 737.977 1518.36 Q735.547 1519.13 732.769 1520.68 L732.769 1515.95 Q735.593 1514.82 738.047 1514.24 Q740.5 1513.66 742.537 1513.66 Q747.908 1513.66 751.102 1516.35 Q754.296 1519.03 754.296 1523.52 Q754.296 1525.65 753.486 1527.57 Q752.699 1529.47 750.593 1532.07 Q750.014 1532.74 746.912 1535.95 Q743.81 1539.15 738.162 1544.91 Z" fill="#000000" fill-rule="nonzero" fill-opacity="1" /><path clip-path="url(#clip610)" d="M764.343 1514.29 L782.699 1514.29 L782.699 1518.22 L768.625 1518.22 L768.625 1526.7 Q769.644 1526.35 770.662 1526.19 Q771.681 1526 772.699 1526 Q778.486 1526 781.866 1529.17 Q785.245 1532.34 785.245 1537.76 Q785.245 1543.34 781.773 1546.44 Q778.301 1549.52 771.982 1549.52 Q769.806 1549.52 767.537 1549.15 Q765.292 1548.78 762.884 1548.04 L762.884 1543.34 Q764.968 1544.47 767.19 1545.03 Q769.412 1545.58 771.889 1545.58 Q775.894 1545.58 778.232 1543.48 Q780.57 1541.37 780.57 1537.76 Q780.57 1534.15 778.232 1532.04 Q775.894 1529.94 771.889 1529.94 Q770.014 1529.94 768.139 1530.35 Q766.287 1530.77 764.343 1531.65 L764.343 1514.29 Z" fill="#000000" fill-rule="nonzero" fill-opacity="1" /><path clip-path="url(#clip610)" d="M1216.56 1517.37 Q1212.95 1517.37 1211.12 1520.93 Q1209.32 1524.47 1209.32 1531.6 Q1209.32 1538.71 1211.12 1542.27 Q1212.95 1545.82 1216.56 1545.82 Q1220.2 1545.82 1222 1542.27 Q1223.83 1538.71 1223.83 1531.6 Q1223.83 1524.47 1222 1520.93 Q1220.2 1517.37 1216.56 1517.37 M1216.56 1513.66 Q1222.37 1513.66 1225.43 1518.27 Q1228.51 1522.85 1228.51 1531.6 Q1228.51 1540.33 1225.43 1544.94 Q1222.37 1549.52 1216.56 1549.52 Q1210.75 1549.52 1207.68 1544.94 Q1204.62 1540.33 1204.62 1531.6 Q1204.62 1522.85 1207.68 1518.27 Q1210.75 1513.66 1216.56 1513.66 Z" fill="#000000" fill-rule="nonzero" fill-opacity="1" /><path clip-path="url(#clip610)" d="M1236.73 1542.97 L1241.61 1542.97 L1241.61 1548.85 L1236.73 1548.85 L1236.73 1542.97 Z" fill="#000000" fill-rule="nonzero" fill-opacity="1" /><path clip-path="url(#clip610)" d="M1251.84 1514.29 L1270.2 1514.29 L1270.2 1518.22 L1256.12 1518.22 L1256.12 1526.7 Q1257.14 1526.35 1258.16 1526.19 Q1259.18 1526 1260.2 1526 Q1265.98 1526 1269.36 1529.17 Q1272.74 1532.34 1272.74 1537.76 Q1272.74 1543.34 1269.27 1546.44 Q1265.8 1549.52 1259.48 1549.52 Q1257.3 1549.52 1255.04 1549.15 Q1252.79 1548.78 1250.38 1548.04 L1250.38 1543.34 Q1252.47 1544.47 1254.69 1545.03 Q1256.91 1545.58 1259.39 1545.58 Q1263.39 1545.58 1265.73 1543.48 Q1268.07 1541.37 1268.07 1537.76 Q1268.07 1534.15 1265.73 1532.04 Q1263.39 1529.94 1259.39 1529.94 Q1257.51 1529.94 1255.64 1530.35 Q1253.79 1530.77 1251.84 1531.65 L1251.84 1514.29 Z" fill="#000000" fill-rule="nonzero" fill-opacity="1" /><path clip-path="url(#clip610)" d="M1291.96 1517.37 Q1288.35 1517.37 1286.52 1520.93 Q1284.71 1524.47 1284.71 1531.6 Q1284.71 1538.71 1286.52 1542.27 Q1288.35 1545.82 1291.96 1545.82 Q1295.59 1545.82 1297.4 1542.27 Q1299.23 1538.71 1299.23 1531.6 Q1299.23 1524.47 1297.4 1520.93 Q1295.59 1517.37 1291.96 1517.37 M1291.96 1513.66 Q1297.77 1513.66 1300.82 1518.27 Q1303.9 1522.85 1303.9 1531.6 Q1303.9 1540.33 1300.82 1544.94 Q1297.77 1549.52 1291.96 1549.52 Q1286.15 1549.52 1283.07 1544.94 Q1280.01 1540.33 1280.01 1531.6 Q1280.01 1522.85 1283.07 1518.27 Q1286.15 1513.66 1291.96 1513.66 Z" fill="#000000" fill-rule="nonzero" fill-opacity="1" /><path clip-path="url(#clip610)" d="M1735.22 1517.37 Q1731.61 1517.37 1729.78 1520.93 Q1727.97 1524.47 1727.97 1531.6 Q1727.97 1538.71 1729.78 1542.27 Q1731.61 1545.82 1735.22 1545.82 Q1738.85 1545.82 1740.66 1542.27 Q1742.49 1538.71 1742.49 1531.6 Q1742.49 1524.47 1740.66 1520.93 Q1738.85 1517.37 1735.22 1517.37 M1735.22 1513.66 Q1741.03 1513.66 1744.09 1518.27 Q1747.16 1522.85 1747.16 1531.6 Q1747.16 1540.33 1744.09 1544.94 Q1741.03 1549.52 1735.22 1549.52 Q1729.41 1549.52 1726.33 1544.94 Q1723.28 1540.33 1723.28 1531.6 Q1723.28 1522.85 1726.33 1518.27 Q1729.41 1513.66 1735.22 1513.66 Z" fill="#000000" fill-rule="nonzero" fill-opacity="1" /><path clip-path="url(#clip610)" d="M1755.38 1542.97 L1760.27 1542.97 L1760.27 1548.85 L1755.38 1548.85 L1755.38 1542.97 Z" fill="#000000" fill-rule="nonzero" fill-opacity="1" /><path clip-path="url(#clip610)" d="M1769.27 1514.29 L1791.49 1514.29 L1791.49 1516.28 L1778.95 1548.85 L1774.06 1548.85 L1785.87 1518.22 L1769.27 1518.22 L1769.27 1514.29 Z" fill="#000000" fill-rule="nonzero" fill-opacity="1" /><path clip-path="url(#clip610)" d="M1800.66 1514.29 L1819.02 1514.29 L1819.02 1518.22 L1804.94 1518.22 L1804.94 1526.7 Q1805.96 1526.35 1806.98 1526.19 Q1808 1526 1809.02 1526 Q1814.8 1526 1818.18 1529.17 Q1821.56 1532.34 1821.56 1537.76 Q1821.56 1543.34 1818.09 1546.44 Q1814.62 1549.52 1808.3 1549.52 Q1806.12 1549.52 1803.85 1549.15 Q1801.61 1548.78 1799.2 1548.04 L1799.2 1543.34 Q1801.28 1544.47 1803.51 1545.03 Q1805.73 1545.58 1808.21 1545.58 Q1812.21 1545.58 1814.55 1543.48 Q1816.89 1541.37 1816.89 1537.76 Q1816.89 1534.15 1814.55 1532.04 Q1812.21 1529.94 1808.21 1529.94 Q1806.33 1529.94 1804.46 1530.35 Q1802.6 1530.77 1800.66 1531.65 L1800.66 1514.29 Z" fill="#000000" fill-rule="nonzero" fill-opacity="1" /><path clip-path="url(#clip610)" d="M2242.65 1544.91 L2250.29 1544.91 L2250.29 1518.55 L2241.98 1520.21 L2241.98 1515.95 L2250.24 1514.29 L2254.92 1514.29 L2254.92 1544.91 L2262.56 1544.91 L2262.56 1548.85 L2242.65 1548.85 L2242.65 1544.91 Z" fill="#000000" fill-rule="nonzero" fill-opacity="1" /><path clip-path="url(#clip610)" d="M2272 1542.97 L2276.88 1542.97 L2276.88 1548.85 L2272 1548.85 L2272 1542.97 Z" fill="#000000" fill-rule="nonzero" fill-opacity="1" /><path clip-path="url(#clip610)" d="M2297.07 1517.37 Q2293.46 1517.37 2291.63 1520.93 Q2289.82 1524.47 2289.82 1531.6 Q2289.82 1538.71 2291.63 1542.27 Q2293.46 1545.82 2297.07 1545.82 Q2300.7 1545.82 2302.51 1542.27 Q2304.34 1538.71 2304.34 1531.6 Q2304.34 1524.47 2302.51 1520.93 Q2300.7 1517.37 2297.07 1517.37 M2297.07 1513.66 Q2302.88 1513.66 2305.94 1518.27 Q2309.01 1522.85 2309.01 1531.6 Q2309.01 1540.33 2305.94 1544.94 Q2302.88 1549.52 2297.07 1549.52 Q2291.26 1549.52 2288.18 1544.94 Q2285.13 1540.33 2285.13 1531.6 Q2285.13 1522.85 2288.18 1518.27 Q2291.26 1513.66 2297.07 1513.66 Z" fill="#000000" fill-rule="nonzero" fill-opacity="1" /><path clip-path="url(#clip610)" d="M2327.23 1517.37 Q2323.62 1517.37 2321.79 1520.93 Q2319.99 1524.47 2319.99 1531.6 Q2319.99 1538.71 2321.79 1542.27 Q2323.62 1545.82 2327.23 1545.82 Q2330.87 1545.82 2332.67 1542.27 Q2334.5 1538.71 2334.5 1531.6 Q2334.5 1524.47 2332.67 1520.93 Q2330.87 1517.37 2327.23 1517.37 M2327.23 1513.66 Q2333.04 1513.66 2336.1 1518.27 Q2339.18 1522.85 2339.18 1531.6 Q2339.18 1540.33 2336.1 1544.94 Q2333.04 1549.52 2327.23 1549.52 Q2321.42 1549.52 2318.34 1544.94 Q2315.29 1540.33 2315.29 1531.6 Q2315.29 1522.85 2318.34 1518.27 Q2321.42 1513.66 2327.23 1513.66 Z" fill="#000000" fill-rule="nonzero" fill-opacity="1" /><polyline clip-path="url(#clip610)" style="stroke:#000000; stroke-linecap:round; stroke-linejoin:round; stroke-width:4; stroke-opacity:1; fill:none" points="155.765,1486.45 155.765,47.2441 "/>
<polyline clip-path="url(#clip610)" style="stroke:#000000; stroke-linecap:round; stroke-linejoin:round; stroke-width:4; stroke-opacity:1; fill:none" points="155.765,1342.23 174.663,1342.23 "/>
<polyline clip-path="url(#clip610)" style="stroke:#000000; stroke-linecap:round; stroke-linejoin:round; stroke-width:4; stroke-opacity:1; fill:none" points="155.765,1155.43 174.663,1155.43 "/>
<polyline clip-path="url(#clip610)" style="stroke:#000000; stroke-linecap:round; stroke-linejoin:round; stroke-width:4; stroke-opacity:1; fill:none" points="155.765,968.623 174.663,968.623 "/>
<polyline clip-path="url(#clip610)" style="stroke:#000000; stroke-linecap:round; stroke-linejoin:round; stroke-width:4; stroke-opacity:1; fill:none" points="155.765,781.82 174.663,781.82 "/>
<polyline clip-path="url(#clip610)" style="stroke:#000000; stroke-linecap:round; stroke-linejoin:round; stroke-width:4; stroke-opacity:1; fill:none" points="155.765,595.017 174.663,595.017 "/>
<polyline clip-path="url(#clip610)" style="stroke:#000000; stroke-linecap:round; stroke-linejoin:round; stroke-width:4; stroke-opacity:1; fill:none" points="155.765,408.214 174.663,408.214 "/>
<polyline clip-path="url(#clip610)" style="stroke:#000000; stroke-linecap:round; stroke-linejoin:round; stroke-width:4; stroke-opacity:1; fill:none" points="155.765,221.412 174.663,221.412 "/>
<path clip-path="url(#clip610)" d="M63.5847 1328.03 Q59.9736 1328.03 58.1449 1331.59 Q56.3393 1335.13 56.3393 1342.26 Q56.3393 1349.37 58.1449 1352.93 Q59.9736 1356.48 63.5847 1356.48 Q67.2189 1356.48 69.0244 1352.93 Q70.8531 1349.37 70.8531 1342.26 Q70.8531 1335.13 69.0244 1331.59 Q67.2189 1328.03 63.5847 1328.03 M63.5847 1324.32 Q69.3948 1324.32 72.4503 1328.93 Q75.529 1333.51 75.529 1342.26 Q75.529 1350.99 72.4503 1355.6 Q69.3948 1360.18 63.5847 1360.18 Q57.7745 1360.18 54.6958 1355.6 Q51.6403 1350.99 51.6403 1342.26 Q51.6403 1333.51 54.6958 1328.93 Q57.7745 1324.32 63.5847 1324.32 Z" fill="#000000" fill-rule="nonzero" fill-opacity="1" /><path clip-path="url(#clip610)" d="M83.7466 1353.63 L88.6308 1353.63 L88.6308 1359.51 L83.7466 1359.51 L83.7466 1353.63 Z" fill="#000000" fill-rule="nonzero" fill-opacity="1" /><path clip-path="url(#clip610)" d="M98.8622 1324.95 L117.219 1324.95 L117.219 1328.88 L103.145 1328.88 L103.145 1337.36 Q104.163 1337.01 105.182 1336.85 Q106.2 1336.66 107.219 1336.66 Q113.006 1336.66 116.385 1339.83 Q119.765 1343 119.765 1348.42 Q119.765 1354 116.293 1357.1 Q112.82 1360.18 106.501 1360.18 Q104.325 1360.18 102.057 1359.81 Q99.8113 1359.44 97.4039 1358.7 L97.4039 1354 Q99.4872 1355.13 101.709 1355.69 Q103.932 1356.24 106.408 1356.24 Q110.413 1356.24 112.751 1354.14 Q115.089 1352.03 115.089 1348.42 Q115.089 1344.81 112.751 1342.7 Q110.413 1340.6 106.408 1340.6 Q104.534 1340.6 102.659 1341.01 Q100.807 1341.43 98.8622 1342.31 L98.8622 1324.95 Z" fill="#000000" fill-rule="nonzero" fill-opacity="1" /><path clip-path="url(#clip610)" d="M53.3995 1168.77 L61.0384 1168.77 L61.0384 1142.41 L52.7282 1144.07 L52.7282 1139.81 L60.9921 1138.15 L65.668 1138.15 L65.668 1168.77 L73.3068 1168.77 L73.3068 1172.71 L53.3995 1172.71 L53.3995 1168.77 Z" fill="#000000" fill-rule="nonzero" fill-opacity="1" /><path clip-path="url(#clip610)" d="M82.7512 1166.83 L87.6354 1166.83 L87.6354 1172.71 L82.7512 1172.71 L82.7512 1166.83 Z" fill="#000000" fill-rule="nonzero" fill-opacity="1" /><path clip-path="url(#clip610)" d="M107.821 1141.22 Q104.209 1141.22 102.381 1144.79 Q100.575 1148.33 100.575 1155.46 Q100.575 1162.57 102.381 1166.13 Q104.209 1169.67 107.821 1169.67 Q111.455 1169.67 113.26 1166.13 Q115.089 1162.57 115.089 1155.46 Q115.089 1148.33 113.26 1144.79 Q111.455 1141.22 107.821 1141.22 M107.821 1137.52 Q113.631 1137.52 116.686 1142.13 Q119.765 1146.71 119.765 1155.46 Q119.765 1164.19 116.686 1168.79 Q113.631 1173.38 107.821 1173.38 Q102.01 1173.38 98.9317 1168.79 Q95.8761 1164.19 95.8761 1155.46 Q95.8761 1146.71 98.9317 1142.13 Q102.01 1137.52 107.821 1137.52 Z" fill="#000000" fill-rule="nonzero" fill-opacity="1" /><path clip-path="url(#clip610)" d="M54.3949 981.968 L62.0337 981.968 L62.0337 955.602 L53.7236 957.269 L53.7236 953.01 L61.9874 951.343 L66.6633 951.343 L66.6633 981.968 L74.3022 981.968 L74.3022 985.903 L54.3949 985.903 L54.3949 981.968 Z" fill="#000000" fill-rule="nonzero" fill-opacity="1" /><path clip-path="url(#clip610)" d="M83.7466 980.023 L88.6308 980.023 L88.6308 985.903 L83.7466 985.903 L83.7466 980.023 Z" fill="#000000" fill-rule="nonzero" fill-opacity="1" /><path clip-path="url(#clip610)" d="M98.8622 951.343 L117.219 951.343 L117.219 955.278 L103.145 955.278 L103.145 963.75 Q104.163 963.403 105.182 963.241 Q106.2 963.056 107.219 963.056 Q113.006 963.056 116.385 966.227 Q119.765 969.398 119.765 974.815 Q119.765 980.394 116.293 983.496 Q112.82 986.574 106.501 986.574 Q104.325 986.574 102.057 986.204 Q99.8113 985.834 97.4039 985.093 L97.4039 980.394 Q99.4872 981.528 101.709 982.084 Q103.932 982.639 106.408 982.639 Q110.413 982.639 112.751 980.533 Q115.089 978.426 115.089 974.815 Q115.089 971.204 112.751 969.098 Q110.413 966.991 106.408 966.991 Q104.534 966.991 102.659 967.408 Q100.807 967.824 98.8622 968.704 L98.8622 951.343 Z" fill="#000000" fill-rule="nonzero" fill-opacity="1" /><path clip-path="url(#clip610)" d="M56.6171 795.165 L72.9365 795.165 L72.9365 799.1 L50.9921 799.1 L50.9921 795.165 Q53.6541 792.41 58.2375 787.781 Q62.8439 783.128 64.0245 781.785 Q66.2698 779.262 67.1494 777.526 Q68.0522 775.767 68.0522 774.077 Q68.0522 771.323 66.1078 769.586 Q64.1865 767.85 61.0847 767.85 Q58.8856 767.85 56.4319 768.614 Q54.0014 769.378 51.2236 770.929 L51.2236 766.207 Q54.0477 765.073 56.5014 764.494 Q58.955 763.915 60.9921 763.915 Q66.3624 763.915 69.5568 766.6 Q72.7513 769.286 72.7513 773.776 Q72.7513 775.906 71.9411 777.827 Q71.1541 779.725 69.0476 782.318 Q68.4689 782.989 65.367 786.207 Q62.2652 789.401 56.6171 795.165 Z" fill="#000000" fill-rule="nonzero" fill-opacity="1" /><path clip-path="url(#clip610)" d="M82.7512 793.221 L87.6354 793.221 L87.6354 799.1 L82.7512 799.1 L82.7512 793.221 Z" fill="#000000" fill-rule="nonzero" fill-opacity="1" /><path clip-path="url(#clip610)" d="M107.821 767.619 Q104.209 767.619 102.381 771.184 Q100.575 774.725 100.575 781.855 Q100.575 788.961 102.381 792.526 Q104.209 796.068 107.821 796.068 Q111.455 796.068 113.26 792.526 Q115.089 788.961 115.089 781.855 Q115.089 774.725 113.26 771.184 Q111.455 767.619 107.821 767.619 M107.821 763.915 Q113.631 763.915 116.686 768.522 Q119.765 773.105 119.765 781.855 Q119.765 790.582 116.686 795.188 Q113.631 799.771 107.821 799.771 Q102.01 799.771 98.9317 795.188 Q95.8761 790.582 95.8761 781.855 Q95.8761 773.105 98.9317 768.522 Q102.01 763.915 107.821 763.915 Z" fill="#000000" fill-rule="nonzero" fill-opacity="1" /><path clip-path="url(#clip610)" d="M57.6125 608.362 L73.9318 608.362 L73.9318 612.297 L51.9875 612.297 L51.9875 608.362 Q54.6495 605.608 59.2328 600.978 Q63.8393 596.325 65.0198 594.983 Q67.2652 592.459 68.1448 590.723 Q69.0476 588.964 69.0476 587.274 Q69.0476 584.52 67.1032 582.784 Q65.1819 581.047 62.08 581.047 Q59.881 581.047 57.4273 581.811 Q54.9967 582.575 52.219 584.126 L52.219 579.404 Q55.043 578.27 57.4967 577.691 Q59.9504 577.112 61.9874 577.112 Q67.3578 577.112 70.5522 579.797 Q73.7466 582.483 73.7466 586.973 Q73.7466 589.103 72.9365 591.024 Q72.1494 592.922 70.0429 595.515 Q69.4642 596.186 66.3624 599.404 Q63.2606 602.598 57.6125 608.362 Z" fill="#000000" fill-rule="nonzero" fill-opacity="1" /><path clip-path="url(#clip610)" d="M83.7466 606.418 L88.6308 606.418 L88.6308 612.297 L83.7466 612.297 L83.7466 606.418 Z" fill="#000000" fill-rule="nonzero" fill-opacity="1" /><path clip-path="url(#clip610)" d="M98.8622 577.737 L117.219 577.737 L117.219 581.672 L103.145 581.672 L103.145 590.145 Q104.163 589.797 105.182 589.635 Q106.2 589.45 107.219 589.45 Q113.006 589.45 116.385 592.622 Q119.765 595.793 119.765 601.209 Q119.765 606.788 116.293 609.89 Q112.82 612.969 106.501 612.969 Q104.325 612.969 102.057 612.598 Q99.8113 612.228 97.4039 611.487 L97.4039 606.788 Q99.4872 607.922 101.709 608.478 Q103.932 609.033 106.408 609.033 Q110.413 609.033 112.751 606.927 Q115.089 604.821 115.089 601.209 Q115.089 597.598 112.751 595.492 Q110.413 593.385 106.408 593.385 Q104.534 593.385 102.659 593.802 Q100.807 594.219 98.8622 595.098 L98.8622 577.737 Z" fill="#000000" fill-rule="nonzero" fill-opacity="1" /><path clip-path="url(#clip610)" d="M66.7559 406.86 Q70.1124 407.578 71.9874 409.846 Q73.8855 412.115 73.8855 415.448 Q73.8855 420.564 70.367 423.365 Q66.8485 426.166 60.3671 426.166 Q58.1912 426.166 55.8764 425.726 Q53.5847 425.309 51.131 424.453 L51.131 419.939 Q53.0754 421.073 55.3903 421.652 Q57.7051 422.231 60.2282 422.231 Q64.6263 422.231 66.918 420.495 Q69.2328 418.758 69.2328 415.448 Q69.2328 412.393 67.08 410.68 Q64.9504 408.944 61.131 408.944 L57.1032 408.944 L57.1032 405.101 L61.3161 405.101 Q64.7652 405.101 66.5939 403.735 Q68.4226 402.346 68.4226 399.754 Q68.4226 397.092 66.5245 395.68 Q64.6495 394.245 61.131 394.245 Q59.2097 394.245 57.0106 394.661 Q54.8115 395.078 52.1727 395.958 L52.1727 391.791 Q54.8347 391.05 57.1495 390.68 Q59.4875 390.309 61.5476 390.309 Q66.8717 390.309 69.9735 392.74 Q73.0753 395.147 73.0753 399.268 Q73.0753 402.138 71.4318 404.129 Q69.7883 406.096 66.7559 406.86 Z" fill="#000000" fill-rule="nonzero" fill-opacity="1" /><path clip-path="url(#clip610)" d="M82.7512 419.615 L87.6354 419.615 L87.6354 425.494 L82.7512 425.494 L82.7512 419.615 Z" fill="#000000" fill-rule="nonzero" fill-opacity="1" /><path clip-path="url(#clip610)" d="M107.821 394.013 Q104.209 394.013 102.381 397.578 Q100.575 401.12 100.575 408.249 Q100.575 415.356 102.381 418.92 Q104.209 422.462 107.821 422.462 Q111.455 422.462 113.26 418.92 Q115.089 415.356 115.089 408.249 Q115.089 401.12 113.26 397.578 Q111.455 394.013 107.821 394.013 M107.821 390.309 Q113.631 390.309 116.686 394.916 Q119.765 399.499 119.765 408.249 Q119.765 416.976 116.686 421.582 Q113.631 426.166 107.821 426.166 Q102.01 426.166 98.9317 421.582 Q95.8761 416.976 95.8761 408.249 Q95.8761 399.499 98.9317 394.916 Q102.01 390.309 107.821 390.309 Z" fill="#000000" fill-rule="nonzero" fill-opacity="1" /><path clip-path="url(#clip610)" d="M67.7513 220.057 Q71.1078 220.775 72.9827 223.044 Q74.8809 225.312 74.8809 228.645 Q74.8809 233.761 71.3624 236.562 Q67.8439 239.363 61.3624 239.363 Q59.1865 239.363 56.8717 238.923 Q54.5801 238.506 52.1264 237.65 L52.1264 233.136 Q54.0708 234.27 56.3856 234.849 Q58.7004 235.428 61.2236 235.428 Q65.6217 235.428 67.9133 233.692 Q70.2281 231.956 70.2281 228.645 Q70.2281 225.59 68.0754 223.877 Q65.9457 222.141 62.1263 222.141 L58.0986 222.141 L58.0986 218.298 L62.3115 218.298 Q65.7606 218.298 67.5893 216.933 Q69.418 215.544 69.418 212.951 Q69.418 210.289 67.5198 208.877 Q65.6448 207.442 62.1263 207.442 Q60.205 207.442 58.006 207.858 Q55.8069 208.275 53.168 209.155 L53.168 204.988 Q55.8301 204.247 58.1449 203.877 Q60.4828 203.507 62.543 203.507 Q67.867 203.507 70.9689 205.937 Q74.0707 208.345 74.0707 212.465 Q74.0707 215.335 72.4272 217.326 Q70.7837 219.294 67.7513 220.057 Z" fill="#000000" fill-rule="nonzero" fill-opacity="1" /><path clip-path="url(#clip610)" d="M83.7466 232.812 L88.6308 232.812 L88.6308 238.692 L83.7466 238.692 L83.7466 232.812 Z" fill="#000000" fill-rule="nonzero" fill-opacity="1" /><path clip-path="url(#clip610)" d="M98.8622 204.132 L117.219 204.132 L117.219 208.067 L103.145 208.067 L103.145 216.539 Q104.163 216.192 105.182 216.03 Q106.2 215.845 107.219 215.845 Q113.006 215.845 116.385 219.016 Q119.765 222.187 119.765 227.604 Q119.765 233.182 116.293 236.284 Q112.82 239.363 106.501 239.363 Q104.325 239.363 102.057 238.993 Q99.8113 238.622 97.4039 237.881 L97.4039 233.182 Q99.4872 234.317 101.709 234.872 Q103.932 235.428 106.408 235.428 Q110.413 235.428 112.751 233.321 Q115.089 231.215 115.089 227.604 Q115.089 223.993 112.751 221.886 Q110.413 219.78 106.408 219.78 Q104.534 219.78 102.659 220.196 Q100.807 220.613 98.8622 221.493 L98.8622 204.132 Z" fill="#000000" fill-rule="nonzero" fill-opacity="1" /><polyline clip-path="url(#clip611)" style="stroke:#009af9; stroke-linecap:round; stroke-linejoin:round; stroke-width:12; stroke-opacity:1; fill:none" points="217.944,1342.23 425.207,1331.42 632.47,1320.88 839.734,1327.08 1047,1333.45 1254.26,1343.65 1461.52,1325.49 1668.79,1238.68 1876.05,1257.24 2083.31,1350.43 2290.58,1341.77 "/>
<polyline clip-path="url(#clip611)" style="stroke:#000000; stroke-linecap:round; stroke-linejoin:round; stroke-width:12; stroke-opacity:1; fill:none" points="217.944,1342.23 217.944,1342.23 "/>
<polyline clip-path="url(#clip611)" style="stroke:#000000; stroke-linecap:round; stroke-linejoin:round; stroke-width:12; stroke-opacity:1; fill:none" points="425.207,1380.12 425.207,1238.62 "/>
<polyline clip-path="url(#clip611)" style="stroke:#000000; stroke-linecap:round; stroke-linejoin:round; stroke-width:12; stroke-opacity:1; fill:none" points="632.47,1401.47 632.47,1192.23 "/>
<polyline clip-path="url(#clip611)" style="stroke:#000000; stroke-linecap:round; stroke-linejoin:round; stroke-width:12; stroke-opacity:1; fill:none" points="839.734,1412.83 839.734,1167.96 "/>
<polyline clip-path="url(#clip611)" style="stroke:#000000; stroke-linecap:round; stroke-linejoin:round; stroke-width:12; stroke-opacity:1; fill:none" points="1047,1418.47 1047,1172.39 "/>
<polyline clip-path="url(#clip611)" style="stroke:#000000; stroke-linecap:round; stroke-linejoin:round; stroke-width:12; stroke-opacity:1; fill:none" points="1254.26,1433.07 1254.26,1129.64 "/>
<polyline clip-path="url(#clip611)" style="stroke:#000000; stroke-linecap:round; stroke-linejoin:round; stroke-width:12; stroke-opacity:1; fill:none" points="1461.52,1424.96 1461.52,1107.07 "/>
<polyline clip-path="url(#clip611)" style="stroke:#000000; stroke-linecap:round; stroke-linejoin:round; stroke-width:12; stroke-opacity:1; fill:none" points="1668.79,1423.64 1668.79,966.981 "/>
<polyline clip-path="url(#clip611)" style="stroke:#000000; stroke-linecap:round; stroke-linejoin:round; stroke-width:12; stroke-opacity:1; fill:none" points="1876.05,1425.01 1876.05,888.711 "/>
<polyline clip-path="url(#clip611)" style="stroke:#000000; stroke-linecap:round; stroke-linejoin:round; stroke-width:12; stroke-opacity:1; fill:none" points="2083.31,1415.29 2083.31,875.931 "/>
<polyline clip-path="url(#clip611)" style="stroke:#000000; stroke-linecap:round; stroke-linejoin:round; stroke-width:12; stroke-opacity:1; fill:none" points="2290.58,1419.93 2290.58,759.3 "/>
<line clip-path="url(#clip611)" x1="233.944" y1="1342.23" x2="201.944" y2="1342.23" style="stroke:#000000; stroke-width:12; stroke-opacity:1"/>
<line clip-path="url(#clip611)" x1="233.944" y1="1342.23" x2="201.944" y2="1342.23" style="stroke:#000000; stroke-width:12; stroke-opacity:1"/>
<line clip-path="url(#clip611)" x1="441.207" y1="1380.12" x2="409.207" y2="1380.12" style="stroke:#000000; stroke-width:12; stroke-opacity:1"/>
<line clip-path="url(#clip611)" x1="441.207" y1="1238.62" x2="409.207" y2="1238.62" style="stroke:#000000; stroke-width:12; stroke-opacity:1"/>
<line clip-path="url(#clip611)" x1="648.47" y1="1401.47" x2="616.47" y2="1401.47" style="stroke:#000000; stroke-width:12; stroke-opacity:1"/>
<line clip-path="url(#clip611)" x1="648.47" y1="1192.23" x2="616.47" y2="1192.23" style="stroke:#000000; stroke-width:12; stroke-opacity:1"/>
<line clip-path="url(#clip611)" x1="855.734" y1="1412.83" x2="823.734" y2="1412.83" style="stroke:#000000; stroke-width:12; stroke-opacity:1"/>
<line clip-path="url(#clip611)" x1="855.734" y1="1167.96" x2="823.734" y2="1167.96" style="stroke:#000000; stroke-width:12; stroke-opacity:1"/>
<line clip-path="url(#clip611)" x1="1063" y1="1418.47" x2="1031" y2="1418.47" style="stroke:#000000; stroke-width:12; stroke-opacity:1"/>
<line clip-path="url(#clip611)" x1="1063" y1="1172.39" x2="1031" y2="1172.39" style="stroke:#000000; stroke-width:12; stroke-opacity:1"/>
<line clip-path="url(#clip611)" x1="1270.26" y1="1433.07" x2="1238.26" y2="1433.07" style="stroke:#000000; stroke-width:12; stroke-opacity:1"/>
<line clip-path="url(#clip611)" x1="1270.26" y1="1129.64" x2="1238.26" y2="1129.64" style="stroke:#000000; stroke-width:12; stroke-opacity:1"/>
<line clip-path="url(#clip611)" x1="1477.52" y1="1424.96" x2="1445.52" y2="1424.96" style="stroke:#000000; stroke-width:12; stroke-opacity:1"/>
<line clip-path="url(#clip611)" x1="1477.52" y1="1107.07" x2="1445.52" y2="1107.07" style="stroke:#000000; stroke-width:12; stroke-opacity:1"/>
<line clip-path="url(#clip611)" x1="1684.79" y1="1423.64" x2="1652.79" y2="1423.64" style="stroke:#000000; stroke-width:12; stroke-opacity:1"/>
<line clip-path="url(#clip611)" x1="1684.79" y1="966.981" x2="1652.79" y2="966.981" style="stroke:#000000; stroke-width:12; stroke-opacity:1"/>
<line clip-path="url(#clip611)" x1="1892.05" y1="1425.01" x2="1860.05" y2="1425.01" style="stroke:#000000; stroke-width:12; stroke-opacity:1"/>
<line clip-path="url(#clip611)" x1="1892.05" y1="888.711" x2="1860.05" y2="888.711" style="stroke:#000000; stroke-width:12; stroke-opacity:1"/>
<line clip-path="url(#clip611)" x1="2099.31" y1="1415.29" x2="2067.31" y2="1415.29" style="stroke:#000000; stroke-width:12; stroke-opacity:1"/>
<line clip-path="url(#clip611)" x1="2099.31" y1="875.931" x2="2067.31" y2="875.931" style="stroke:#000000; stroke-width:12; stroke-opacity:1"/>
<line clip-path="url(#clip611)" x1="2306.58" y1="1419.93" x2="2274.58" y2="1419.93" style="stroke:#000000; stroke-width:12; stroke-opacity:1"/>
<line clip-path="url(#clip611)" x1="2306.58" y1="759.3" x2="2274.58" y2="759.3" style="stroke:#000000; stroke-width:12; stroke-opacity:1"/>
<polyline clip-path="url(#clip611)" style="stroke:#e26f46; stroke-linecap:round; stroke-linejoin:round; stroke-width:12; stroke-opacity:1; fill:none" points="217.944,1342.23 425.207,1333.48 632.47,1319.18 839.734,1306.66 1047,1296.97 1254.26,1266.86 1461.52,1311.51 1668.79,1236.09 1876.05,1237.04 2083.31,1271.08 2290.58,1240.46 "/>
<polyline clip-path="url(#clip611)" style="stroke:#000000; stroke-linecap:round; stroke-linejoin:round; stroke-width:12; stroke-opacity:1; fill:none" points="217.944,1342.23 217.944,1342.23 "/>
<polyline clip-path="url(#clip611)" style="stroke:#000000; stroke-linecap:round; stroke-linejoin:round; stroke-width:12; stroke-opacity:1; fill:none" points="425.207,1377.28 425.207,1291.79 "/>
<polyline clip-path="url(#clip611)" style="stroke:#000000; stroke-linecap:round; stroke-linejoin:round; stroke-width:12; stroke-opacity:1; fill:none" points="632.47,1387.28 632.47,1223.56 "/>
<polyline clip-path="url(#clip611)" style="stroke:#000000; stroke-linecap:round; stroke-linejoin:round; stroke-width:12; stroke-opacity:1; fill:none" points="839.734,1397.41 839.734,1089.99 "/>
<polyline clip-path="url(#clip611)" style="stroke:#000000; stroke-linecap:round; stroke-linejoin:round; stroke-width:12; stroke-opacity:1; fill:none" points="1047,1407.26 1047,927.257 "/>
<polyline clip-path="url(#clip611)" style="stroke:#000000; stroke-linecap:round; stroke-linejoin:round; stroke-width:12; stroke-opacity:1; fill:none" points="1254.26,1407.65 1254.26,851.161 "/>
<polyline clip-path="url(#clip611)" style="stroke:#000000; stroke-linecap:round; stroke-linejoin:round; stroke-width:12; stroke-opacity:1; fill:none" points="1461.52,1438.78 1461.52,548.42 "/>
<polyline clip-path="url(#clip611)" style="stroke:#000000; stroke-linecap:round; stroke-linejoin:round; stroke-width:12; stroke-opacity:1; fill:none" points="1668.79,1445.72 1668.79,489.344 "/>
<polyline clip-path="url(#clip611)" style="stroke:#000000; stroke-linecap:round; stroke-linejoin:round; stroke-width:12; stroke-opacity:1; fill:none" points="1876.05,1441.87 1876.05,452.975 "/>
<polyline clip-path="url(#clip611)" style="stroke:#000000; stroke-linecap:round; stroke-linejoin:round; stroke-width:12; stroke-opacity:1; fill:none" points="2083.31,1438.56 2083.31,324.219 "/>
<polyline clip-path="url(#clip611)" style="stroke:#000000; stroke-linecap:round; stroke-linejoin:round; stroke-width:12; stroke-opacity:1; fill:none" points="2290.58,1442.23 2290.58,87.9763 "/>
<line clip-path="url(#clip611)" x1="233.944" y1="1342.23" x2="201.944" y2="1342.23" style="stroke:#000000; stroke-width:12; stroke-opacity:1"/>
<line clip-path="url(#clip611)" x1="233.944" y1="1342.23" x2="201.944" y2="1342.23" style="stroke:#000000; stroke-width:12; stroke-opacity:1"/>
<line clip-path="url(#clip611)" x1="441.207" y1="1377.28" x2="409.207" y2="1377.28" style="stroke:#000000; stroke-width:12; stroke-opacity:1"/>
<line clip-path="url(#clip611)" x1="441.207" y1="1291.79" x2="409.207" y2="1291.79" style="stroke:#000000; stroke-width:12; stroke-opacity:1"/>
<line clip-path="url(#clip611)" x1="648.47" y1="1387.28" x2="616.47" y2="1387.28" style="stroke:#000000; stroke-width:12; stroke-opacity:1"/>
<line clip-path="url(#clip611)" x1="648.47" y1="1223.56" x2="616.47" y2="1223.56" style="stroke:#000000; stroke-width:12; stroke-opacity:1"/>
<line clip-path="url(#clip611)" x1="855.734" y1="1397.41" x2="823.734" y2="1397.41" style="stroke:#000000; stroke-width:12; stroke-opacity:1"/>
<line clip-path="url(#clip611)" x1="855.734" y1="1089.99" x2="823.734" y2="1089.99" style="stroke:#000000; stroke-width:12; stroke-opacity:1"/>
<line clip-path="url(#clip611)" x1="1063" y1="1407.26" x2="1031" y2="1407.26" style="stroke:#000000; stroke-width:12; stroke-opacity:1"/>
<line clip-path="url(#clip611)" x1="1063" y1="927.257" x2="1031" y2="927.257" style="stroke:#000000; stroke-width:12; stroke-opacity:1"/>
<line clip-path="url(#clip611)" x1="1270.26" y1="1407.65" x2="1238.26" y2="1407.65" style="stroke:#000000; stroke-width:12; stroke-opacity:1"/>
<line clip-path="url(#clip611)" x1="1270.26" y1="851.161" x2="1238.26" y2="851.161" style="stroke:#000000; stroke-width:12; stroke-opacity:1"/>
<line clip-path="url(#clip611)" x1="1477.52" y1="1438.78" x2="1445.52" y2="1438.78" style="stroke:#000000; stroke-width:12; stroke-opacity:1"/>
<line clip-path="url(#clip611)" x1="1477.52" y1="548.42" x2="1445.52" y2="548.42" style="stroke:#000000; stroke-width:12; stroke-opacity:1"/>
<line clip-path="url(#clip611)" x1="1684.79" y1="1445.72" x2="1652.79" y2="1445.72" style="stroke:#000000; stroke-width:12; stroke-opacity:1"/>
<line clip-path="url(#clip611)" x1="1684.79" y1="489.344" x2="1652.79" y2="489.344" style="stroke:#000000; stroke-width:12; stroke-opacity:1"/>
<line clip-path="url(#clip611)" x1="1892.05" y1="1441.87" x2="1860.05" y2="1441.87" style="stroke:#000000; stroke-width:12; stroke-opacity:1"/>
<line clip-path="url(#clip611)" x1="1892.05" y1="452.975" x2="1860.05" y2="452.975" style="stroke:#000000; stroke-width:12; stroke-opacity:1"/>
<line clip-path="url(#clip611)" x1="2099.31" y1="1438.56" x2="2067.31" y2="1438.56" style="stroke:#000000; stroke-width:12; stroke-opacity:1"/>
<line clip-path="url(#clip611)" x1="2099.31" y1="324.219" x2="2067.31" y2="324.219" style="stroke:#000000; stroke-width:12; stroke-opacity:1"/>
<line clip-path="url(#clip611)" x1="2306.58" y1="1442.23" x2="2274.58" y2="1442.23" style="stroke:#000000; stroke-width:12; stroke-opacity:1"/>
<line clip-path="url(#clip611)" x1="2306.58" y1="87.9763" x2="2274.58" y2="87.9763" style="stroke:#000000; stroke-width:12; stroke-opacity:1"/>
</svg>
