<?xml version="1.0" encoding="utf-8"?>
<svg xmlns="http://www.w3.org/2000/svg" xmlns:xlink="http://www.w3.org/1999/xlink" width="600" height="400" viewBox="0 0 2400 1600">
<defs>
  <clipPath id="clip580">
    <rect x="0" y="0" width="2400" height="1600"/>
  </clipPath>
</defs>
<path clip-path="url(#clip580)" d="M0 1600 L2400 1600 L2400 0 L0 0  Z" fill="#ffffff" fill-rule="evenodd" fill-opacity="1"/>
<defs>
  <clipPath id="clip581">
    <rect x="155" y="47" width="2198" height="1440"/>
  </clipPath>
</defs>
<path clip-path="url(#clip580)" d="M155.765 1486.45 L2352.76 1486.45 L2352.76 47.2441 L155.765 47.2441  Z" fill="#ffffff" fill-rule="evenodd" fill-opacity="1"/>
<polyline clip-path="url(#clip581)" style="stroke:#000000; stroke-linecap:round; stroke-linejoin:round; stroke-width:2; stroke-opacity:0.1; fill:none" points="217.944,1486.45 217.944,47.2441 "/>
<polyline clip-path="url(#clip581)" style="stroke:#000000; stroke-linecap:round; stroke-linejoin:round; stroke-width:2; stroke-opacity:0.1; fill:none" points="736.102,1486.45 736.102,47.2441 "/>
<polyline clip-path="url(#clip581)" style="stroke:#000000; stroke-linecap:round; stroke-linejoin:round; stroke-width:2; stroke-opacity:0.1; fill:none" points="1254.26,1486.45 1254.26,47.2441 "/>
<polyline clip-path="url(#clip581)" style="stroke:#000000; stroke-linecap:round; stroke-linejoin:round; stroke-width:2; stroke-opacity:0.1; fill:none" points="1772.42,1486.45 1772.42,47.2441 "/>
<polyline clip-path="url(#clip581)" style="stroke:#000000; stroke-linecap:round; stroke-linejoin:round; stroke-width:2; stroke-opacity:0.1; fill:none" points="2290.58,1486.45 2290.58,47.2441 "/>
<polyline clip-path="url(#clip581)" style="stroke:#000000; stroke-linecap:round; stroke-linejoin:round; stroke-width:2; stroke-opacity:0.1; fill:none" points="155.765,1262.66 2352.76,1262.66 "/>
<polyline clip-path="url(#clip581)" style="stroke:#000000; stroke-linecap:round; stroke-linejoin:round; stroke-width:2; stroke-opacity:0.1; fill:none" points="155.765,886.223 2352.76,886.223 "/>
<polyline clip-path="url(#clip581)" style="stroke:#000000; stroke-linecap:round; stroke-linejoin:round; stroke-width:2; stroke-opacity:0.1; fill:none" points="155.765,509.79 2352.76,509.79 "/>
<polyline clip-path="url(#clip581)" style="stroke:#000000; stroke-linecap:round; stroke-linejoin:round; stroke-width:2; stroke-opacity:0.1; fill:none" points="155.765,133.358 2352.76,133.358 "/>
<polyline clip-path="url(#clip580)" style="stroke:#000000; stroke-linecap:round; stroke-linejoin:round; stroke-width:4; stroke-opacity:1; fill:none" points="155.765,1486.45 2352.76,1486.45 "/>
<polyline clip-path="url(#clip580)" style="stroke:#000000; stroke-linecap:round; stroke-linejoin:round; stroke-width:4; stroke-opacity:1; fill:none" points="217.944,1486.45 217.944,1467.55 "/>
<polyline clip-path="url(#clip580)" style="stroke:#000000; stroke-linecap:round; stroke-linejoin:round; stroke-width:4; stroke-opacity:1; fill:none" points="736.102,1486.45 736.102,1467.55 "/>
<polyline clip-path="url(#clip580)" style="stroke:#000000; stroke-linecap:round; stroke-linejoin:round; stroke-width:4; stroke-opacity:1; fill:none" points="1254.26,1486.45 1254.26,1467.55 "/>
<polyline clip-path="url(#clip580)" style="stroke:#000000; stroke-linecap:round; stroke-linejoin:round; stroke-width:4; stroke-opacity:1; fill:none" points="1772.42,1486.45 1772.42,1467.55 "/>
<polyline clip-path="url(#clip580)" style="stroke:#000000; stroke-linecap:round; stroke-linejoin:round; stroke-width:4; stroke-opacity:1; fill:none" points="2290.58,1486.45 2290.58,1467.55 "/>
<path clip-path="url(#clip580)" d="M180.247 1517.37 Q176.636 1517.37 174.808 1520.93 Q173.002 1524.47 173.002 1531.6 Q173.002 1538.71 174.808 1542.27 Q176.636 1545.82 180.247 1545.82 Q183.882 1545.82 185.687 1542.27 Q187.516 1538.71 187.516 1531.6 Q187.516 1524.47 185.687 1520.93 Q183.882 1517.37 180.247 1517.37 M180.247 1513.66 Q186.057 1513.66 189.113 1518.27 Q192.192 1522.85 192.192 1531.6 Q192.192 1540.33 189.113 1544.94 Q186.057 1549.52 180.247 1549.52 Q174.437 1549.52 171.358 1544.94 Q168.303 1540.33 168.303 1531.6 Q168.303 1522.85 171.358 1518.27 Q174.437 1513.66 180.247 1513.66 Z" fill="#000000" fill-rule="nonzero" fill-opacity="1" /><path clip-path="url(#clip580)" d="M200.409 1542.97 L205.294 1542.97 L205.294 1548.85 L200.409 1548.85 L200.409 1542.97 Z" fill="#000000" fill-rule="nonzero" fill-opacity="1" /><path clip-path="url(#clip580)" d="M225.479 1517.37 Q221.867 1517.37 220.039 1520.93 Q218.233 1524.47 218.233 1531.6 Q218.233 1538.71 220.039 1542.27 Q221.867 1545.82 225.479 1545.82 Q229.113 1545.82 230.918 1542.27 Q232.747 1538.71 232.747 1531.6 Q232.747 1524.47 230.918 1520.93 Q229.113 1517.37 225.479 1517.37 M225.479 1513.66 Q231.289 1513.66 234.344 1518.27 Q237.423 1522.85 237.423 1531.6 Q237.423 1540.33 234.344 1544.94 Q231.289 1549.52 225.479 1549.52 Q219.668 1549.52 216.59 1544.94 Q213.534 1540.33 213.534 1531.6 Q213.534 1522.85 216.59 1518.27 Q219.668 1513.66 225.479 1513.66 Z" fill="#000000" fill-rule="nonzero" fill-opacity="1" /><path clip-path="url(#clip580)" d="M255.64 1517.37 Q252.029 1517.37 250.201 1520.93 Q248.395 1524.47 248.395 1531.6 Q248.395 1538.71 250.201 1542.27 Q252.029 1545.82 255.64 1545.82 Q259.275 1545.82 261.08 1542.27 Q262.909 1538.71 262.909 1531.6 Q262.909 1524.47 261.08 1520.93 Q259.275 1517.37 255.64 1517.37 M255.64 1513.66 Q261.451 1513.66 264.506 1518.27 Q267.585 1522.85 267.585 1531.6 Q267.585 1540.33 264.506 1544.94 Q261.451 1549.52 255.64 1549.52 Q249.83 1549.52 246.752 1544.94 Q243.696 1540.33 243.696 1531.6 Q243.696 1522.85 246.752 1518.27 Q249.83 1513.66 255.64 1513.66 Z" fill="#000000" fill-rule="nonzero" fill-opacity="1" /><path clip-path="url(#clip580)" d="M698.903 1517.37 Q695.292 1517.37 693.463 1520.93 Q691.658 1524.47 691.658 1531.6 Q691.658 1538.71 693.463 1542.27 Q695.292 1545.82 698.903 1545.82 Q702.538 1545.82 704.343 1542.27 Q706.172 1538.71 706.172 1531.6 Q706.172 1524.47 704.343 1520.93 Q702.538 1517.37 698.903 1517.37 M698.903 1513.66 Q704.713 1513.66 707.769 1518.27 Q710.848 1522.85 710.848 1531.6 Q710.848 1540.33 707.769 1544.94 Q704.713 1549.52 698.903 1549.52 Q693.093 1549.52 690.014 1544.94 Q686.959 1540.33 686.959 1531.6 Q686.959 1522.85 690.014 1518.27 Q693.093 1513.66 698.903 1513.66 Z" fill="#000000" fill-rule="nonzero" fill-opacity="1" /><path clip-path="url(#clip580)" d="M719.065 1542.97 L723.949 1542.97 L723.949 1548.85 L719.065 1548.85 L719.065 1542.97 Z" fill="#000000" fill-rule="nonzero" fill-opacity="1" /><path clip-path="url(#clip580)" d="M738.162 1544.91 L754.482 1544.91 L754.482 1548.85 L732.537 1548.85 L732.537 1544.91 Q735.199 1542.16 739.783 1537.53 Q744.389 1532.88 745.57 1531.53 Q747.815 1529.01 748.695 1527.27 Q749.597 1525.51 749.597 1523.82 Q749.597 1521.07 747.653 1519.33 Q745.732 1517.6 742.63 1517.6 Q740.431 1517.6 737.977 1518.36 Q735.547 1519.13 732.769 1520.68 L732.769 1515.95 Q735.593 1514.82 738.047 1514.24 Q740.5 1513.66 742.537 1513.66 Q747.908 1513.66 751.102 1516.35 Q754.296 1519.03 754.296 1523.52 Q754.296 1525.65 753.486 1527.57 Q752.699 1529.47 750.593 1532.07 Q750.014 1532.74 746.912 1535.95 Q743.81 1539.15 738.162 1544.91 Z" fill="#000000" fill-rule="nonzero" fill-opacity="1" /><path clip-path="url(#clip580)" d="M764.343 1514.29 L782.699 1514.29 L782.699 1518.22 L768.625 1518.22 L768.625 1526.7 Q769.644 1526.35 770.662 1526.19 Q771.681 1526 772.699 1526 Q778.486 1526 781.866 1529.17 Q785.245 1532.34 785.245 1537.76 Q785.245 1543.34 781.773 1546.44 Q778.301 1549.52 771.982 1549.52 Q769.806 1549.52 767.537 1549.15 Q765.292 1548.78 762.884 1548.04 L762.884 1543.34 Q764.968 1544.47 767.19 1545.03 Q769.412 1545.58 771.889 1545.58 Q775.894 1545.58 778.232 1543.48 Q780.57 1541.37 780.57 1537.76 Q780.57 1534.15 778.232 1532.04 Q775.894 1529.94 771.889 1529.94 Q770.014 1529.94 768.139 1530.35 Q766.287 1530.77 764.343 1531.65 L764.343 1514.29 Z" fill="#000000" fill-rule="nonzero" fill-opacity="1" /><path clip-path="url(#clip580)" d="M1216.56 1517.37 Q1212.95 1517.37 1211.12 1520.93 Q1209.32 1524.47 1209.32 1531.6 Q1209.32 1538.71 1211.12 1542.27 Q1212.95 1545.82 1216.56 1545.82 Q1220.2 1545.82 1222 1542.27 Q1223.83 1538.71 1223.83 1531.6 Q1223.83 1524.47 1222 1520.93 Q1220.2 1517.37 1216.56 1517.37 M1216.56 1513.66 Q1222.37 1513.66 1225.43 1518.27 Q1228.51 1522.85 1228.51 1531.6 Q1228.51 1540.33 1225.43 1544.94 Q1222.37 1549.52 1216.56 1549.52 Q1210.75 1549.52 1207.68 1544.94 Q1204.62 1540.33 1204.62 1531.6 Q1204.62 1522.85 1207.68 1518.27 Q1210.75 1513.66 1216.56 1513.66 Z" fill="#000000" fill-rule="nonzero" fill-opacity="1" /><path clip-path="url(#clip580)" d="M1236.73 1542.97 L1241.61 1542.97 L1241.61 1548.85 L1236.73 1548.85 L1236.73 1542.97 Z" fill="#000000" fill-rule="nonzero" fill-opacity="1" /><path clip-path="url(#clip580)" d="M1251.84 1514.29 L1270.2 1514.29 L1270.2 1518.22 L1256.12 1518.22 L1256.12 1526.7 Q1257.14 1526.35 1258.16 1526.19 Q1259.18 1526 1260.2 1526 Q1265.98 1526 1269.36 1529.17 Q1272.74 1532.34 1272.74 1537.76 Q1272.74 1543.34 1269.27 1546.44 Q1265.8 1549.52 1259.48 1549.52 Q1257.3 1549.52 1255.04 1549.15 Q1252.79 1548.78 1250.38 1548.04 L1250.38 1543.34 Q1252.47 1544.47 1254.69 1545.03 Q1256.91 1545.58 1259.39 1545.58 Q1263.39 1545.58 1265.73 1543.48 Q1268.07 1541.37 1268.07 1537.76 Q1268.07 1534.15 1265.73 1532.04 Q1263.39 1529.94 1259.39 1529.94 Q1257.51 1529.94 1255.64 1530.35 Q1253.79 1530.77 1251.84 1531.65 L1251.84 1514.29 Z" fill="#000000" fill-rule="nonzero" fill-opacity="1" /><path clip-path="url(#clip580)" d="M1291.96 1517.37 Q1288.35 1517.37 1286.52 1520.93 Q1284.71 1524.47 1284.71 1531.6 Q1284.71 1538.71 1286.52 1542.27 Q1288.35 1545.82 1291.96 1545.82 Q1295.59 1545.82 1297.4 1542.27 Q1299.23 1538.71 1299.23 1531.6 Q1299.23 1524.47 1297.4 1520.93 Q1295.59 1517.37 1291.96 1517.37 M1291.96 1513.66 Q1297.77 1513.66 1300.82 1518.27 Q1303.9 1522.85 1303.9 1531.6 Q1303.9 1540.33 1300.82 1544.94 Q1297.77 1549.52 1291.96 1549.52 Q1286.15 1549.52 1283.07 1544.94 Q1280.01 1540.33 1280.01 1531.6 Q1280.01 1522.85 1283.07 1518.27 Q1286.15 1513.66 1291.96 1513.66 Z" fill="#000000" fill-rule="nonzero" fill-opacity="1" /><path clip-path="url(#clip580)" d="M1735.22 1517.37 Q1731.61 1517.37 1729.78 1520.93 Q1727.97 1524.47 1727.97 1531.6 Q1727.97 1538.71 1729.78 1542.27 Q1731.61 1545.82 1735.22 1545.82 Q1738.85 1545.82 1740.66 1542.27 Q1742.49 1538.71 1742.49 1531.6 Q1742.49 1524.47 1740.66 1520.93 Q1738.85 1517.37 1735.22 1517.37 M1735.22 1513.66 Q1741.03 1513.66 1744.09 1518.27 Q1747.16 1522.85 1747.16 1531.6 Q1747.16 1540.33 1744.09 1544.94 Q1741.03 1549.52 1735.22 1549.52 Q1729.41 1549.52 1726.33 1544.94 Q1723.28 1540.33 1723.28 1531.6 Q1723.28 1522.85 1726.33 1518.27 Q1729.41 1513.66 1735.22 1513.66 Z" fill="#000000" fill-rule="nonzero" fill-opacity="1" /><path clip-path="url(#clip580)" d="M1755.38 1542.97 L1760.27 1542.97 L1760.27 1548.85 L1755.38 1548.85 L1755.38 1542.97 Z" fill="#000000" fill-rule="nonzero" fill-opacity="1" /><path clip-path="url(#clip580)" d="M1769.27 1514.29 L1791.49 1514.29 L1791.49 1516.28 L1778.95 1548.85 L1774.06 1548.85 L1785.87 1518.22 L1769.27 1518.22 L1769.27 1514.29 Z" fill="#000000" fill-rule="nonzero" fill-opacity="1" /><path clip-path="url(#clip580)" d="M1800.66 1514.29 L1819.02 1514.29 L1819.02 1518.22 L1804.94 1518.22 L1804.94 1526.7 Q1805.96 1526.35 1806.98 1526.19 Q1808 1526 1809.02 1526 Q1814.8 1526 1818.18 1529.17 Q1821.56 1532.34 1821.56 1537.76 Q1821.56 1543.34 1818.09 1546.44 Q1814.62 1549.52 1808.3 1549.52 Q1806.12 1549.52 1803.85 1549.15 Q1801.61 1548.78 1799.2 1548.04 L1799.2 1543.34 Q1801.28 1544.47 1803.51 1545.03 Q1805.73 1545.58 1808.21 1545.58 Q1812.21 1545.58 1814.55 1543.48 Q1816.89 1541.37 1816.89 1537.76 Q1816.89 1534.15 1814.55 1532.04 Q1812.21 1529.94 1808.21 1529.94 Q1806.33 1529.94 1804.46 1530.35 Q1802.6 1530.77 1800.66 1531.65 L1800.66 1514.29 Z" fill="#000000" fill-rule="nonzero" fill-opacity="1" /><path clip-path="url(#clip580)" d="M2242.65 1544.91 L2250.29 1544.91 L2250.29 1518.55 L2241.98 1520.21 L2241.98 1515.95 L2250.24 1514.29 L2254.92 1514.29 L2254.92 1544.91 L2262.56 1544.91 L2262.56 1548.85 L2242.65 1548.85 L2242.65 1544.91 Z" fill="#000000" fill-rule="nonzero" fill-opacity="1" /><path clip-path="url(#clip580)" d="M2272 1542.97 L2276.88 1542.97 L2276.88 1548.85 L2272 1548.85 L2272 1542.97 Z" fill="#000000" fill-rule="nonzero" fill-opacity="1" /><path clip-path="url(#clip580)" d="M2297.07 1517.37 Q2293.46 1517.37 2291.63 1520.93 Q2289.82 1524.47 2289.82 1531.6 Q2289.82 1538.71 2291.63 1542.27 Q2293.46 1545.82 2297.07 1545.82 Q2300.7 1545.82 2302.51 1542.27 Q2304.34 1538.71 2304.34 1531.6 Q2304.34 1524.47 2302.51 1520.93 Q2300.7 1517.37 2297.07 1517.37 M2297.07 1513.66 Q2302.88 1513.66 2305.94 1518.27 Q2309.01 1522.85 2309.01 1531.6 Q2309.01 1540.33 2305.94 1544.94 Q2302.88 1549.52 2297.07 1549.52 Q2291.26 1549.52 2288.18 1544.94 Q2285.13 1540.33 2285.13 1531.6 Q2285.13 1522.85 2288.18 1518.27 Q2291.26 1513.66 2297.07 1513.66 Z" fill="#000000" fill-rule="nonzero" fill-opacity="1" /><path clip-path="url(#clip580)" d="M2327.23 1517.37 Q2323.62 1517.37 2321.79 1520.93 Q2319.99 1524.47 2319.99 1531.6 Q2319.99 1538.71 2321.79 1542.27 Q2323.62 1545.82 2327.23 1545.82 Q2330.87 1545.82 2332.67 1542.27 Q2334.5 1538.71 2334.5 1531.6 Q2334.5 1524.47 2332.67 1520.93 Q2330.87 1517.37 2327.23 1517.37 M2327.23 1513.66 Q2333.04 1513.66 2336.1 1518.27 Q2339.18 1522.85 2339.18 1531.6 Q2339.18 1540.33 2336.1 1544.94 Q2333.04 1549.52 2327.23 1549.52 Q2321.42 1549.52 2318.34 1544.94 Q2315.29 1540.33 2315.29 1531.6 Q2315.29 1522.85 2318.34 1518.27 Q2321.42 1513.66 2327.23 1513.66 Z" fill="#000000" fill-rule="nonzero" fill-opacity="1" /><polyline clip-path="url(#clip580)" style="stroke:#000000; stroke-linecap:round; stroke-linejoin:round; stroke-width:4; stroke-opacity:1; fill:none" points="155.765,1486.45 155.765,47.2441 "/>
<polyline clip-path="url(#clip580)" style="stroke:#000000; stroke-linecap:round; stroke-linejoin:round; stroke-width:4; stroke-opacity:1; fill:none" points="155.765,1262.66 174.663,1262.66 "/>
<polyline clip-path="url(#clip580)" style="stroke:#000000; stroke-linecap:round; stroke-linejoin:round; stroke-width:4; stroke-opacity:1; fill:none" points="155.765,886.223 174.663,886.223 "/>
<polyline clip-path="url(#clip580)" style="stroke:#000000; stroke-linecap:round; stroke-linejoin:round; stroke-width:4; stroke-opacity:1; fill:none" points="155.765,509.79 174.663,509.79 "/>
<polyline clip-path="url(#clip580)" style="stroke:#000000; stroke-linecap:round; stroke-linejoin:round; stroke-width:4; stroke-opacity:1; fill:none" points="155.765,133.358 174.663,133.358 "/>
<path clip-path="url(#clip580)" d="M63.5847 1248.45 Q59.9736 1248.45 58.1449 1252.02 Q56.3393 1255.56 56.3393 1262.69 Q56.3393 1269.8 58.1449 1273.36 Q59.9736 1276.9 63.5847 1276.9 Q67.2189 1276.9 69.0244 1273.36 Q70.8531 1269.8 70.8531 1262.69 Q70.8531 1255.56 69.0244 1252.02 Q67.2189 1248.45 63.5847 1248.45 M63.5847 1244.75 Q69.3948 1244.75 72.4503 1249.36 Q75.529 1253.94 75.529 1262.69 Q75.529 1271.42 72.4503 1276.02 Q69.3948 1280.61 63.5847 1280.61 Q57.7745 1280.61 54.6958 1276.02 Q51.6403 1271.42 51.6403 1262.69 Q51.6403 1253.94 54.6958 1249.36 Q57.7745 1244.75 63.5847 1244.75 Z" fill="#000000" fill-rule="nonzero" fill-opacity="1" /><path clip-path="url(#clip580)" d="M83.7466 1274.06 L88.6308 1274.06 L88.6308 1279.94 L83.7466 1279.94 L83.7466 1274.06 Z" fill="#000000" fill-rule="nonzero" fill-opacity="1" /><path clip-path="url(#clip580)" d="M98.8622 1245.38 L117.219 1245.38 L117.219 1249.31 L103.145 1249.31 L103.145 1257.78 Q104.163 1257.44 105.182 1257.27 Q106.2 1257.09 107.219 1257.09 Q113.006 1257.09 116.385 1260.26 Q119.765 1263.43 119.765 1268.85 Q119.765 1274.43 116.293 1277.53 Q112.82 1280.61 106.501 1280.61 Q104.325 1280.61 102.057 1280.24 Q99.8113 1279.87 97.4039 1279.13 L97.4039 1274.43 Q99.4872 1275.56 101.709 1276.12 Q103.932 1276.67 106.408 1276.67 Q110.413 1276.67 112.751 1274.57 Q115.089 1272.46 115.089 1268.85 Q115.089 1265.24 112.751 1263.13 Q110.413 1261.02 106.408 1261.02 Q104.534 1261.02 102.659 1261.44 Q100.807 1261.86 98.8622 1262.74 L98.8622 1245.38 Z" fill="#000000" fill-rule="nonzero" fill-opacity="1" /><path clip-path="url(#clip580)" d="M53.3995 899.568 L61.0384 899.568 L61.0384 873.202 L52.7282 874.869 L52.7282 870.61 L60.9921 868.943 L65.668 868.943 L65.668 899.568 L73.3068 899.568 L73.3068 903.503 L53.3995 903.503 L53.3995 899.568 Z" fill="#000000" fill-rule="nonzero" fill-opacity="1" /><path clip-path="url(#clip580)" d="M82.7512 897.623 L87.6354 897.623 L87.6354 903.503 L82.7512 903.503 L82.7512 897.623 Z" fill="#000000" fill-rule="nonzero" fill-opacity="1" /><path clip-path="url(#clip580)" d="M107.821 872.022 Q104.209 872.022 102.381 875.586 Q100.575 879.128 100.575 886.258 Q100.575 893.364 102.381 896.929 Q104.209 900.471 107.821 900.471 Q111.455 900.471 113.26 896.929 Q115.089 893.364 115.089 886.258 Q115.089 879.128 113.26 875.586 Q111.455 872.022 107.821 872.022 M107.821 868.318 Q113.631 868.318 116.686 872.924 Q119.765 877.508 119.765 886.258 Q119.765 894.984 116.686 899.591 Q113.631 904.174 107.821 904.174 Q102.01 904.174 98.9317 899.591 Q95.8761 894.984 95.8761 886.258 Q95.8761 877.508 98.9317 872.924 Q102.01 868.318 107.821 868.318 Z" fill="#000000" fill-rule="nonzero" fill-opacity="1" /><path clip-path="url(#clip580)" d="M54.3949 523.135 L62.0337 523.135 L62.0337 496.77 L53.7236 498.436 L53.7236 494.177 L61.9874 492.51 L66.6633 492.51 L66.6633 523.135 L74.3022 523.135 L74.3022 527.07 L54.3949 527.07 L54.3949 523.135 Z" fill="#000000" fill-rule="nonzero" fill-opacity="1" /><path clip-path="url(#clip580)" d="M83.7466 521.191 L88.6308 521.191 L88.6308 527.07 L83.7466 527.07 L83.7466 521.191 Z" fill="#000000" fill-rule="nonzero" fill-opacity="1" /><path clip-path="url(#clip580)" d="M98.8622 492.51 L117.219 492.51 L117.219 496.446 L103.145 496.446 L103.145 504.918 Q104.163 504.571 105.182 504.409 Q106.2 504.223 107.219 504.223 Q113.006 504.223 116.385 507.395 Q119.765 510.566 119.765 515.983 Q119.765 521.561 116.293 524.663 Q112.82 527.742 106.501 527.742 Q104.325 527.742 102.057 527.371 Q99.8113 527.001 97.4039 526.26 L97.4039 521.561 Q99.4872 522.695 101.709 523.251 Q103.932 523.807 106.408 523.807 Q110.413 523.807 112.751 521.7 Q115.089 519.594 115.089 515.983 Q115.089 512.371 112.751 510.265 Q110.413 508.158 106.408 508.158 Q104.534 508.158 102.659 508.575 Q100.807 508.992 98.8622 509.871 L98.8622 492.51 Z" fill="#000000" fill-rule="nonzero" fill-opacity="1" /><path clip-path="url(#clip580)" d="M56.6171 146.703 L72.9365 146.703 L72.9365 150.638 L50.9921 150.638 L50.9921 146.703 Q53.6541 143.948 58.2375 139.319 Q62.8439 134.666 64.0245 133.323 Q66.2698 130.8 67.1494 129.064 Q68.0522 127.305 68.0522 125.615 Q68.0522 122.86 66.1078 121.124 Q64.1865 119.388 61.0847 119.388 Q58.8856 119.388 56.4319 120.152 Q54.0014 120.916 51.2236 122.467 L51.2236 117.745 Q54.0477 116.61 56.5014 116.032 Q58.955 115.453 60.9921 115.453 Q66.3624 115.453 69.5568 118.138 Q72.7513 120.823 72.7513 125.314 Q72.7513 127.444 71.9411 129.365 Q71.1541 131.263 69.0476 133.856 Q68.4689 134.527 65.367 137.744 Q62.2652 140.939 56.6171 146.703 Z" fill="#000000" fill-rule="nonzero" fill-opacity="1" /><path clip-path="url(#clip580)" d="M82.7512 144.758 L87.6354 144.758 L87.6354 150.638 L82.7512 150.638 L82.7512 144.758 Z" fill="#000000" fill-rule="nonzero" fill-opacity="1" /><path clip-path="url(#clip580)" d="M107.821 119.157 Q104.209 119.157 102.381 122.721 Q100.575 126.263 100.575 133.393 Q100.575 140.499 102.381 144.064 Q104.209 147.606 107.821 147.606 Q111.455 147.606 113.26 144.064 Q115.089 140.499 115.089 133.393 Q115.089 126.263 113.26 122.721 Q111.455 119.157 107.821 119.157 M107.821 115.453 Q113.631 115.453 116.686 120.059 Q119.765 124.643 119.765 133.393 Q119.765 142.119 116.686 146.726 Q113.631 151.309 107.821 151.309 Q102.01 151.309 98.9317 146.726 Q95.8761 142.119 95.8761 133.393 Q95.8761 124.643 98.9317 120.059 Q102.01 115.453 107.821 115.453 Z" fill="#000000" fill-rule="nonzero" fill-opacity="1" /><path clip-path="url(#clip581)" d="M217.944 1262.66 L425.207 1339.02 L632.47 1382.04 L839.734 1404.93 L1047 1416.29 L1254.26 1445.72 L1461.52 1429.38 L1668.79 1426.71 L1876.05 1429.48 L2083.31 1409.88 L2290.58 1419.24 L2290.58 87.9763 L2083.31 323.004 L1876.05 348.757 L1668.79 506.482 L1461.52 788.778 L1254.26 834.254 L1047 920.404 L839.734 911.484 L632.47 960.384 L425.207 1053.87 L217.944 1262.66  Z" fill="#009af9" fill-rule="evenodd" fill-opacity="0.2"/>
<polyline clip-path="url(#clip581)" style="stroke:#009af9; stroke-linecap:round; stroke-linejoin:round; stroke-width:12; stroke-opacity:1; fill:none" points="217.944,1262.66 425.207,1240.88 632.47,1219.64 839.734,1232.13 1047,1244.97 1254.26,1265.51 1461.52,1228.93 1668.79,1054 1876.05,1091.38 2083.31,1279.18 2290.58,1261.73 "/>
</svg>
