<?xml version="1.0" encoding="utf-8"?>
<svg xmlns="http://www.w3.org/2000/svg" xmlns:xlink="http://www.w3.org/1999/xlink" width="600" height="400" viewBox="0 0 2400 1600">
<defs>
  <clipPath id="clip120">
    <rect x="0" y="0" width="2400" height="1600"/>
  </clipPath>
</defs>
<path clip-path="url(#clip120)" d="M0 1600 L2400 1600 L2400 0 L0 0  Z" fill="#ffffff" fill-rule="evenodd" fill-opacity="1"/>
<defs>
  <clipPath id="clip121">
    <rect x="480" y="0" width="1681" height="1600"/>
  </clipPath>
</defs>
<path clip-path="url(#clip120)" d="M184.191 1486.45 L2352.76 1486.45 L2352.76 47.2441 L184.191 47.2441  Z" fill="#ffffff" fill-rule="evenodd" fill-opacity="1"/>
<defs>
  <clipPath id="clip122">
    <rect x="184" y="47" width="2170" height="1440"/>
  </clipPath>
</defs>
<polyline clip-path="url(#clip122)" style="stroke:#000000; stroke-linecap:round; stroke-linejoin:round; stroke-width:2; stroke-opacity:0.1; fill:none" points="245.565,1486.45 245.565,47.2441 "/>
<polyline clip-path="url(#clip122)" style="stroke:#000000; stroke-linecap:round; stroke-linejoin:round; stroke-width:2; stroke-opacity:0.1; fill:none" points="757.019,1486.45 757.019,47.2441 "/>
<polyline clip-path="url(#clip122)" style="stroke:#000000; stroke-linecap:round; stroke-linejoin:round; stroke-width:2; stroke-opacity:0.1; fill:none" points="1268.47,1486.45 1268.47,47.2441 "/>
<polyline clip-path="url(#clip122)" style="stroke:#000000; stroke-linecap:round; stroke-linejoin:round; stroke-width:2; stroke-opacity:0.1; fill:none" points="1779.93,1486.45 1779.93,47.2441 "/>
<polyline clip-path="url(#clip122)" style="stroke:#000000; stroke-linecap:round; stroke-linejoin:round; stroke-width:2; stroke-opacity:0.1; fill:none" points="2291.38,1486.45 2291.38,47.2441 "/>
<polyline clip-path="url(#clip122)" style="stroke:#000000; stroke-linecap:round; stroke-linejoin:round; stroke-width:2; stroke-opacity:0.1; fill:none" points="184.191,1452.02 2352.76,1452.02 "/>
<polyline clip-path="url(#clip122)" style="stroke:#000000; stroke-linecap:round; stroke-linejoin:round; stroke-width:2; stroke-opacity:0.1; fill:none" points="184.191,1100.93 2352.76,1100.93 "/>
<polyline clip-path="url(#clip122)" style="stroke:#000000; stroke-linecap:round; stroke-linejoin:round; stroke-width:2; stroke-opacity:0.1; fill:none" points="184.191,749.831 2352.76,749.831 "/>
<polyline clip-path="url(#clip122)" style="stroke:#000000; stroke-linecap:round; stroke-linejoin:round; stroke-width:2; stroke-opacity:0.1; fill:none" points="184.191,398.734 2352.76,398.734 "/>
<polyline clip-path="url(#clip122)" style="stroke:#000000; stroke-linecap:round; stroke-linejoin:round; stroke-width:2; stroke-opacity:0.1; fill:none" points="184.191,47.6374 2352.76,47.6374 "/>
<polyline clip-path="url(#clip120)" style="stroke:#000000; stroke-linecap:round; stroke-linejoin:round; stroke-width:4; stroke-opacity:1; fill:none" points="184.191,1486.45 2352.76,1486.45 "/>
<polyline clip-path="url(#clip120)" style="stroke:#000000; stroke-linecap:round; stroke-linejoin:round; stroke-width:4; stroke-opacity:1; fill:none" points="245.565,1486.45 245.565,1467.55 "/>
<polyline clip-path="url(#clip120)" style="stroke:#000000; stroke-linecap:round; stroke-linejoin:round; stroke-width:4; stroke-opacity:1; fill:none" points="757.019,1486.45 757.019,1467.55 "/>
<polyline clip-path="url(#clip120)" style="stroke:#000000; stroke-linecap:round; stroke-linejoin:round; stroke-width:4; stroke-opacity:1; fill:none" points="1268.47,1486.45 1268.47,1467.55 "/>
<polyline clip-path="url(#clip120)" style="stroke:#000000; stroke-linecap:round; stroke-linejoin:round; stroke-width:4; stroke-opacity:1; fill:none" points="1779.93,1486.45 1779.93,1467.55 "/>
<polyline clip-path="url(#clip120)" style="stroke:#000000; stroke-linecap:round; stroke-linejoin:round; stroke-width:4; stroke-opacity:1; fill:none" points="2291.38,1486.45 2291.38,1467.55 "/>
<path clip-path="url(#clip120)" d="M222.95 1517.37 Q219.338 1517.37 217.51 1520.93 Q215.704 1524.47 215.704 1531.6 Q215.704 1538.71 217.51 1542.27 Q219.338 1545.82 222.95 1545.82 Q226.584 1545.82 228.389 1542.27 Q230.218 1538.71 230.218 1531.6 Q230.218 1524.47 228.389 1520.93 Q226.584 1517.37 222.95 1517.37 M222.95 1513.66 Q228.76 1513.66 231.815 1518.27 Q234.894 1522.85 234.894 1531.6 Q234.894 1540.33 231.815 1544.94 Q228.76 1549.52 222.95 1549.52 Q217.139 1549.52 214.061 1544.94 Q211.005 1540.33 211.005 1531.6 Q211.005 1522.85 214.061 1518.27 Q217.139 1513.66 222.95 1513.66 Z" fill="#000000" fill-rule="nonzero" fill-opacity="1" /><path clip-path="url(#clip120)" d="M243.111 1542.97 L247.996 1542.97 L247.996 1548.85 L243.111 1548.85 L243.111 1542.97 Z" fill="#000000" fill-rule="nonzero" fill-opacity="1" /><path clip-path="url(#clip120)" d="M268.181 1517.37 Q264.57 1517.37 262.741 1520.93 Q260.935 1524.47 260.935 1531.6 Q260.935 1538.71 262.741 1542.27 Q264.57 1545.82 268.181 1545.82 Q271.815 1545.82 273.621 1542.27 Q275.449 1538.71 275.449 1531.6 Q275.449 1524.47 273.621 1520.93 Q271.815 1517.37 268.181 1517.37 M268.181 1513.66 Q273.991 1513.66 277.046 1518.27 Q280.125 1522.85 280.125 1531.6 Q280.125 1540.33 277.046 1544.94 Q273.991 1549.52 268.181 1549.52 Q262.371 1549.52 259.292 1544.94 Q256.236 1540.33 256.236 1531.6 Q256.236 1522.85 259.292 1518.27 Q262.371 1513.66 268.181 1513.66 Z" fill="#000000" fill-rule="nonzero" fill-opacity="1" /><path clip-path="url(#clip120)" d="M728.755 1544.91 L745.075 1544.91 L745.075 1548.85 L723.131 1548.85 L723.131 1544.91 Q725.793 1542.16 730.376 1537.53 Q734.982 1532.88 736.163 1531.53 Q738.408 1529.01 739.288 1527.27 Q740.191 1525.51 740.191 1523.82 Q740.191 1521.07 738.246 1519.33 Q736.325 1517.6 733.223 1517.6 Q731.024 1517.6 728.57 1518.36 Q726.14 1519.13 723.362 1520.68 L723.362 1515.95 Q726.186 1514.82 728.64 1514.24 Q731.093 1513.66 733.13 1513.66 Q738.501 1513.66 741.695 1516.35 Q744.89 1519.03 744.89 1523.52 Q744.89 1525.65 744.079 1527.57 Q743.292 1529.47 741.186 1532.07 Q740.607 1532.74 737.505 1535.95 Q734.404 1539.15 728.755 1544.91 Z" fill="#000000" fill-rule="nonzero" fill-opacity="1" /><path clip-path="url(#clip120)" d="M754.89 1542.97 L759.774 1542.97 L759.774 1548.85 L754.89 1548.85 L754.89 1542.97 Z" fill="#000000" fill-rule="nonzero" fill-opacity="1" /><path clip-path="url(#clip120)" d="M770.005 1514.29 L788.362 1514.29 L788.362 1518.22 L774.288 1518.22 L774.288 1526.7 Q775.306 1526.35 776.325 1526.19 Q777.343 1526 778.362 1526 Q784.149 1526 787.528 1529.17 Q790.908 1532.34 790.908 1537.76 Q790.908 1543.34 787.436 1546.44 Q783.964 1549.52 777.644 1549.52 Q775.468 1549.52 773.2 1549.15 Q770.954 1548.78 768.547 1548.04 L768.547 1543.34 Q770.63 1544.47 772.852 1545.03 Q775.075 1545.58 777.552 1545.58 Q781.556 1545.58 783.894 1543.48 Q786.232 1541.37 786.232 1537.76 Q786.232 1534.15 783.894 1532.04 Q781.556 1529.94 777.552 1529.94 Q775.677 1529.94 773.802 1530.35 Q771.95 1530.77 770.005 1531.65 L770.005 1514.29 Z" fill="#000000" fill-rule="nonzero" fill-opacity="1" /><path clip-path="url(#clip120)" d="M1235.64 1514.29 L1253.99 1514.29 L1253.99 1518.22 L1239.92 1518.22 L1239.92 1526.7 Q1240.94 1526.35 1241.96 1526.19 Q1242.98 1526 1243.99 1526 Q1249.78 1526 1253.16 1529.17 Q1256.54 1532.34 1256.54 1537.76 Q1256.54 1543.34 1253.07 1546.44 Q1249.6 1549.52 1243.28 1549.52 Q1241.1 1549.52 1238.83 1549.15 Q1236.59 1548.78 1234.18 1548.04 L1234.18 1543.34 Q1236.26 1544.47 1238.49 1545.03 Q1240.71 1545.58 1243.18 1545.58 Q1247.19 1545.58 1249.53 1543.48 Q1251.86 1541.37 1251.86 1537.76 Q1251.86 1534.15 1249.53 1532.04 Q1247.19 1529.94 1243.18 1529.94 Q1241.31 1529.94 1239.43 1530.35 Q1237.58 1530.77 1235.64 1531.65 L1235.64 1514.29 Z" fill="#000000" fill-rule="nonzero" fill-opacity="1" /><path clip-path="url(#clip120)" d="M1265.75 1542.97 L1270.64 1542.97 L1270.64 1548.85 L1265.75 1548.85 L1265.75 1542.97 Z" fill="#000000" fill-rule="nonzero" fill-opacity="1" /><path clip-path="url(#clip120)" d="M1290.82 1517.37 Q1287.21 1517.37 1285.38 1520.93 Q1283.58 1524.47 1283.58 1531.6 Q1283.58 1538.71 1285.38 1542.27 Q1287.21 1545.82 1290.82 1545.82 Q1294.46 1545.82 1296.26 1542.27 Q1298.09 1538.71 1298.09 1531.6 Q1298.09 1524.47 1296.26 1520.93 Q1294.46 1517.37 1290.82 1517.37 M1290.82 1513.66 Q1296.63 1513.66 1299.69 1518.27 Q1302.77 1522.85 1302.77 1531.6 Q1302.77 1540.33 1299.69 1544.94 Q1296.63 1549.52 1290.82 1549.52 Q1285.01 1549.52 1281.93 1544.94 Q1278.88 1540.33 1278.88 1531.6 Q1278.88 1522.85 1281.93 1518.27 Q1285.01 1513.66 1290.82 1513.66 Z" fill="#000000" fill-rule="nonzero" fill-opacity="1" /><path clip-path="url(#clip120)" d="M1746.25 1514.29 L1768.47 1514.29 L1768.47 1516.28 L1755.92 1548.85 L1751.04 1548.85 L1762.84 1518.22 L1746.25 1518.22 L1746.25 1514.29 Z" fill="#000000" fill-rule="nonzero" fill-opacity="1" /><path clip-path="url(#clip120)" d="M1777.59 1542.97 L1782.47 1542.97 L1782.47 1548.85 L1777.59 1548.85 L1777.59 1542.97 Z" fill="#000000" fill-rule="nonzero" fill-opacity="1" /><path clip-path="url(#clip120)" d="M1792.71 1514.29 L1811.06 1514.29 L1811.06 1518.22 L1796.99 1518.22 L1796.99 1526.7 Q1798.01 1526.35 1799.02 1526.19 Q1800.04 1526 1801.06 1526 Q1806.85 1526 1810.23 1529.17 Q1813.61 1532.34 1813.61 1537.76 Q1813.61 1543.34 1810.14 1546.44 Q1806.66 1549.52 1800.34 1549.52 Q1798.17 1549.52 1795.9 1549.15 Q1793.65 1548.78 1791.25 1548.04 L1791.25 1543.34 Q1793.33 1544.47 1795.55 1545.03 Q1797.77 1545.58 1800.25 1545.58 Q1804.26 1545.58 1806.59 1543.48 Q1808.93 1541.37 1808.93 1537.76 Q1808.93 1534.15 1806.59 1532.04 Q1804.26 1529.94 1800.25 1529.94 Q1798.38 1529.94 1796.5 1530.35 Q1794.65 1530.77 1792.71 1531.65 L1792.71 1514.29 Z" fill="#000000" fill-rule="nonzero" fill-opacity="1" /><path clip-path="url(#clip120)" d="M2243.45 1544.91 L2251.09 1544.91 L2251.09 1518.55 L2242.78 1520.21 L2242.78 1515.95 L2251.05 1514.29 L2255.72 1514.29 L2255.72 1544.91 L2263.36 1544.91 L2263.36 1548.85 L2243.45 1548.85 L2243.45 1544.91 Z" fill="#000000" fill-rule="nonzero" fill-opacity="1" /><path clip-path="url(#clip120)" d="M2282.81 1517.37 Q2279.19 1517.37 2277.37 1520.93 Q2275.56 1524.47 2275.56 1531.6 Q2275.56 1538.71 2277.37 1542.27 Q2279.19 1545.82 2282.81 1545.82 Q2286.44 1545.82 2288.24 1542.27 Q2290.07 1538.71 2290.07 1531.6 Q2290.07 1524.47 2288.24 1520.93 Q2286.44 1517.37 2282.81 1517.37 M2282.81 1513.66 Q2288.62 1513.66 2291.67 1518.27 Q2294.75 1522.85 2294.75 1531.6 Q2294.75 1540.33 2291.67 1544.94 Q2288.62 1549.52 2282.81 1549.52 Q2276.99 1549.52 2273.92 1544.94 Q2270.86 1540.33 2270.86 1531.6 Q2270.86 1522.85 2273.92 1518.27 Q2276.99 1513.66 2282.81 1513.66 Z" fill="#000000" fill-rule="nonzero" fill-opacity="1" /><path clip-path="url(#clip120)" d="M2302.97 1542.97 L2307.85 1542.97 L2307.85 1548.85 L2302.97 1548.85 L2302.97 1542.97 Z" fill="#000000" fill-rule="nonzero" fill-opacity="1" /><path clip-path="url(#clip120)" d="M2328.04 1517.37 Q2324.43 1517.37 2322.6 1520.93 Q2320.79 1524.47 2320.79 1531.6 Q2320.79 1538.71 2322.6 1542.27 Q2324.43 1545.82 2328.04 1545.82 Q2331.67 1545.82 2333.48 1542.27 Q2335.3 1538.71 2335.3 1531.6 Q2335.3 1524.47 2333.48 1520.93 Q2331.67 1517.37 2328.04 1517.37 M2328.04 1513.66 Q2333.85 1513.66 2336.9 1518.27 Q2339.98 1522.85 2339.98 1531.6 Q2339.98 1540.33 2336.9 1544.94 Q2333.85 1549.52 2328.04 1549.52 Q2322.23 1549.52 2319.15 1544.94 Q2316.09 1540.33 2316.09 1531.6 Q2316.09 1522.85 2319.15 1518.27 Q2322.23 1513.66 2328.04 1513.66 Z" fill="#000000" fill-rule="nonzero" fill-opacity="1" /><polyline clip-path="url(#clip120)" style="stroke:#000000; stroke-linecap:round; stroke-linejoin:round; stroke-width:4; stroke-opacity:1; fill:none" points="184.191,1486.45 184.191,47.2441 "/>
<polyline clip-path="url(#clip120)" style="stroke:#000000; stroke-linecap:round; stroke-linejoin:round; stroke-width:4; stroke-opacity:1; fill:none" points="184.191,1452.02 203.088,1452.02 "/>
<polyline clip-path="url(#clip120)" style="stroke:#000000; stroke-linecap:round; stroke-linejoin:round; stroke-width:4; stroke-opacity:1; fill:none" points="184.191,1100.93 203.088,1100.93 "/>
<polyline clip-path="url(#clip120)" style="stroke:#000000; stroke-linecap:round; stroke-linejoin:round; stroke-width:4; stroke-opacity:1; fill:none" points="184.191,749.831 203.088,749.831 "/>
<polyline clip-path="url(#clip120)" style="stroke:#000000; stroke-linecap:round; stroke-linejoin:round; stroke-width:4; stroke-opacity:1; fill:none" points="184.191,398.734 203.088,398.734 "/>
<polyline clip-path="url(#clip120)" style="stroke:#000000; stroke-linecap:round; stroke-linejoin:round; stroke-width:4; stroke-opacity:1; fill:none" points="184.191,47.6374 203.088,47.6374 "/>
<path clip-path="url(#clip120)" d="M91.0151 1437.82 Q87.404 1437.82 85.5753 1441.39 Q83.7697 1444.93 83.7697 1452.06 Q83.7697 1459.17 85.5753 1462.73 Q87.404 1466.27 91.0151 1466.27 Q94.6493 1466.27 96.4548 1462.73 Q98.2835 1459.17 98.2835 1452.06 Q98.2835 1444.93 96.4548 1441.39 Q94.6493 1437.82 91.0151 1437.82 M91.0151 1434.12 Q96.8252 1434.12 99.8808 1438.73 Q102.959 1443.31 102.959 1452.06 Q102.959 1460.79 99.8808 1465.39 Q96.8252 1469.98 91.0151 1469.98 Q85.2049 1469.98 82.1262 1465.39 Q79.0707 1460.79 79.0707 1452.06 Q79.0707 1443.31 82.1262 1438.73 Q85.2049 1434.12 91.0151 1434.12 Z" fill="#000000" fill-rule="nonzero" fill-opacity="1" /><path clip-path="url(#clip120)" d="M111.177 1463.42 L116.061 1463.42 L116.061 1469.3 L111.177 1469.3 L111.177 1463.42 Z" fill="#000000" fill-rule="nonzero" fill-opacity="1" /><path clip-path="url(#clip120)" d="M136.246 1437.82 Q132.635 1437.82 130.807 1441.39 Q129.001 1444.93 129.001 1452.06 Q129.001 1459.17 130.807 1462.73 Q132.635 1466.27 136.246 1466.27 Q139.881 1466.27 141.686 1462.73 Q143.515 1459.17 143.515 1452.06 Q143.515 1444.93 141.686 1441.39 Q139.881 1437.82 136.246 1437.82 M136.246 1434.12 Q142.056 1434.12 145.112 1438.73 Q148.191 1443.31 148.191 1452.06 Q148.191 1460.79 145.112 1465.39 Q142.056 1469.98 136.246 1469.98 Q130.436 1469.98 127.357 1465.39 Q124.302 1460.79 124.302 1452.06 Q124.302 1443.31 127.357 1438.73 Q130.436 1434.12 136.246 1434.12 Z" fill="#000000" fill-rule="nonzero" fill-opacity="1" /><path clip-path="url(#clip120)" d="M86.0382 1114.27 L102.358 1114.27 L102.358 1118.21 L80.4133 1118.21 L80.4133 1114.27 Q83.0753 1111.52 87.6586 1106.89 Q92.2651 1102.24 93.4456 1100.89 Q95.691 1098.37 96.5706 1096.63 Q97.4734 1094.87 97.4734 1093.18 Q97.4734 1090.43 95.5289 1088.69 Q93.6076 1086.96 90.5058 1086.96 Q88.3067 1086.96 85.8531 1087.72 Q83.4225 1088.49 80.6447 1090.04 L80.6447 1085.31 Q83.4688 1084.18 85.9225 1083.6 Q88.3762 1083.02 90.4132 1083.02 Q95.7836 1083.02 98.978 1085.71 Q102.172 1088.39 102.172 1092.88 Q102.172 1095.01 101.362 1096.93 Q100.575 1098.83 98.4687 1101.43 Q97.89 1102.1 94.7882 1105.31 Q91.6864 1108.51 86.0382 1114.27 Z" fill="#000000" fill-rule="nonzero" fill-opacity="1" /><path clip-path="url(#clip120)" d="M112.172 1112.33 L117.057 1112.33 L117.057 1118.21 L112.172 1118.21 L112.172 1112.33 Z" fill="#000000" fill-rule="nonzero" fill-opacity="1" /><path clip-path="url(#clip120)" d="M127.288 1083.65 L145.644 1083.65 L145.644 1087.58 L131.57 1087.58 L131.57 1096.06 Q132.589 1095.71 133.607 1095.55 Q134.626 1095.36 135.644 1095.36 Q141.431 1095.36 144.811 1098.53 Q148.191 1101.7 148.191 1107.12 Q148.191 1112.7 144.718 1115.8 Q141.246 1118.88 134.927 1118.88 Q132.751 1118.88 130.482 1118.51 Q128.237 1118.14 125.83 1117.4 L125.83 1112.7 Q127.913 1113.83 130.135 1114.39 Q132.357 1114.94 134.834 1114.94 Q138.839 1114.94 141.177 1112.84 Q143.515 1110.73 143.515 1107.12 Q143.515 1103.51 141.177 1101.4 Q138.839 1099.3 134.834 1099.3 Q132.959 1099.3 131.084 1099.71 Q129.232 1100.13 127.288 1101.01 L127.288 1083.65 Z" fill="#000000" fill-rule="nonzero" fill-opacity="1" /><path clip-path="url(#clip120)" d="M81.0614 732.551 L99.4178 732.551 L99.4178 736.486 L85.3438 736.486 L85.3438 744.958 Q86.3623 744.611 87.3808 744.449 Q88.3993 744.264 89.4178 744.264 Q95.2049 744.264 98.5845 747.435 Q101.964 750.606 101.964 756.023 Q101.964 761.602 98.4919 764.704 Q95.0197 767.782 88.7003 767.782 Q86.5243 767.782 84.2558 767.412 Q82.0105 767.042 79.6031 766.301 L79.6031 761.602 Q81.6864 762.736 83.9086 763.292 Q86.1308 763.847 88.6077 763.847 Q92.6123 763.847 94.9502 761.741 Q97.2882 759.634 97.2882 756.023 Q97.2882 752.412 94.9502 750.306 Q92.6123 748.199 88.6077 748.199 Q86.7327 748.199 84.8577 748.616 Q83.0058 749.032 81.0614 749.912 L81.0614 732.551 Z" fill="#000000" fill-rule="nonzero" fill-opacity="1" /><path clip-path="url(#clip120)" d="M111.177 761.231 L116.061 761.231 L116.061 767.111 L111.177 767.111 L111.177 761.231 Z" fill="#000000" fill-rule="nonzero" fill-opacity="1" /><path clip-path="url(#clip120)" d="M136.246 735.63 Q132.635 735.63 130.807 739.194 Q129.001 742.736 129.001 749.866 Q129.001 756.972 130.807 760.537 Q132.635 764.079 136.246 764.079 Q139.881 764.079 141.686 760.537 Q143.515 756.972 143.515 749.866 Q143.515 742.736 141.686 739.194 Q139.881 735.63 136.246 735.63 M136.246 731.926 Q142.056 731.926 145.112 736.532 Q148.191 741.116 148.191 749.866 Q148.191 758.593 145.112 763.199 Q142.056 767.782 136.246 767.782 Q130.436 767.782 127.357 763.199 Q124.302 758.593 124.302 749.866 Q124.302 741.116 127.357 736.532 Q130.436 731.926 136.246 731.926 Z" fill="#000000" fill-rule="nonzero" fill-opacity="1" /><path clip-path="url(#clip120)" d="M80.8299 381.454 L103.052 381.454 L103.052 383.445 L90.5058 416.014 L85.6216 416.014 L97.4271 385.389 L80.8299 385.389 L80.8299 381.454 Z" fill="#000000" fill-rule="nonzero" fill-opacity="1" /><path clip-path="url(#clip120)" d="M112.172 410.135 L117.057 410.135 L117.057 416.014 L112.172 416.014 L112.172 410.135 Z" fill="#000000" fill-rule="nonzero" fill-opacity="1" /><path clip-path="url(#clip120)" d="M127.288 381.454 L145.644 381.454 L145.644 385.389 L131.57 385.389 L131.57 393.862 Q132.589 393.514 133.607 393.352 Q134.626 393.167 135.644 393.167 Q141.431 393.167 144.811 396.338 Q148.191 399.51 148.191 404.926 Q148.191 410.505 144.718 413.607 Q141.246 416.685 134.927 416.685 Q132.751 416.685 130.482 416.315 Q128.237 415.945 125.83 415.204 L125.83 410.505 Q127.913 411.639 130.135 412.195 Q132.357 412.75 134.834 412.75 Q138.839 412.75 141.177 410.644 Q143.515 408.537 143.515 404.926 Q143.515 401.315 141.177 399.209 Q138.839 397.102 134.834 397.102 Q132.959 397.102 131.084 397.519 Q129.232 397.936 127.288 398.815 L127.288 381.454 Z" fill="#000000" fill-rule="nonzero" fill-opacity="1" /><path clip-path="url(#clip120)" d="M51.6634 60.9822 L59.3023 60.9822 L59.3023 34.6166 L50.9921 36.2833 L50.9921 32.024 L59.256 30.3574 L63.9319 30.3574 L63.9319 60.9822 L71.5707 60.9822 L71.5707 64.9174 L51.6634 64.9174 L51.6634 60.9822 Z" fill="#000000" fill-rule="nonzero" fill-opacity="1" /><path clip-path="url(#clip120)" d="M91.0151 33.4361 Q87.404 33.4361 85.5753 37.0009 Q83.7697 40.5425 83.7697 47.6721 Q83.7697 54.7785 85.5753 58.3433 Q87.404 61.885 91.0151 61.885 Q94.6493 61.885 96.4548 58.3433 Q98.2835 54.7785 98.2835 47.6721 Q98.2835 40.5425 96.4548 37.0009 Q94.6493 33.4361 91.0151 33.4361 M91.0151 29.7324 Q96.8252 29.7324 99.8808 34.3388 Q102.959 38.9221 102.959 47.6721 Q102.959 56.3989 99.8808 61.0054 Q96.8252 65.5887 91.0151 65.5887 Q85.2049 65.5887 82.1262 61.0054 Q79.0707 56.3989 79.0707 47.6721 Q79.0707 38.9221 82.1262 34.3388 Q85.2049 29.7324 91.0151 29.7324 Z" fill="#000000" fill-rule="nonzero" fill-opacity="1" /><path clip-path="url(#clip120)" d="M111.177 59.0378 L116.061 59.0378 L116.061 64.9174 L111.177 64.9174 L111.177 59.0378 Z" fill="#000000" fill-rule="nonzero" fill-opacity="1" /><path clip-path="url(#clip120)" d="M136.246 33.4361 Q132.635 33.4361 130.807 37.0009 Q129.001 40.5425 129.001 47.6721 Q129.001 54.7785 130.807 58.3433 Q132.635 61.885 136.246 61.885 Q139.881 61.885 141.686 58.3433 Q143.515 54.7785 143.515 47.6721 Q143.515 40.5425 141.686 37.0009 Q139.881 33.4361 136.246 33.4361 M136.246 29.7324 Q142.056 29.7324 145.112 34.3388 Q148.191 38.9221 148.191 47.6721 Q148.191 56.3989 145.112 61.0054 Q142.056 65.5887 136.246 65.5887 Q130.436 65.5887 127.357 61.0054 Q124.302 56.3989 124.302 47.6721 Q124.302 38.9221 127.357 34.3388 Q130.436 29.7324 136.246 29.7324 Z" fill="#000000" fill-rule="nonzero" fill-opacity="1" /><path clip-path="url(#clip122)" d="M245.565 1311.59 L266.023 1314.39 L286.481 1300.56 L306.94 1294.78 L327.398 1273.66 L347.856 1269.47 L368.314 1251.63 L388.772 1211.57 L409.23 1202.42 L429.689 1161.58 L450.147 1136.73 L470.605 1111.6 L491.063 1074.79 L511.521 1033.63 L531.979 995.604 L552.438 931.496 L572.896 868.708 L593.354 863.583 L613.812 819.304 L634.27 764.504 L654.728 781.384 L675.187 893.518 L695.645 991.019 L716.103 1113.98 L736.561 1197.99 L757.019 1251.96 L777.477 1296.19 L797.936 1322.72 L818.394 1343.99 L838.852 1352.38 L859.31 1348.01 L879.768 1347.65 L900.226 1351.44 L920.685 1343.71 L941.143 1337.96 L961.601 1319.66 L982.059 1312.31 L1002.52 1299.5 L1022.98 1281.17 L1043.43 1285.65 L1063.89 1285.46 L1084.35 1269.32 L1104.81 1269.13 L1125.27 1247.05 L1145.72 1227.56 L1166.18 1188.97 L1186.64 1129.25 L1207.1 1066.57 L1227.56 1036.07 L1248.02 942.128 L1268.47 885.793 L1288.93 846.739 L1309.39 781.154 L1329.85 756.946 L1350.31 805.569 L1370.76 937.888 L1391.22 1036.13 L1411.68 1118.48 L1432.14 1201.1 L1452.6 1310.78 L1473.05 1369.19 L1493.51 1393.42 L1513.97 1402.53 L1534.43 1407.91 L1554.89 1412.4 L1575.35 1413.55 L1595.8 1410.1 L1616.26 1404.34 L1636.72 1401.79 L1657.18 1397.76 L1677.64 1392.44 L1698.09 1385.33 L1718.55 1376.93 L1739.01 1364.07 L1759.47 1354.46 L1779.93 1336.32 L1800.39 1318.64 L1820.84 1304.19 L1841.3 1288.04 L1861.76 1269.41 L1882.22 1246.2 L1902.68 1225.01 L1923.13 1187.38 L1943.59 1145.49 L1964.05 1172.32 L1984.51 1169.92 L2004.97 1179.67 L2025.43 1179.56 L2045.88 1159.31 L2066.34 1201.8 L2086.8 1252.76 L2107.26 1284.2 L2127.72 1299.5 L2148.17 1308.12 L2168.63 1313.64 L2189.09 1330.54 L2209.55 1331.66 L2230.01 1349.25 L2250.47 1366.87 L2270.92 1376.07 L2291.38 1375.94 L2291.38 721.136 L2270.92 303.271 L2250.47 295.826 L2230.01 417.154 L2209.55 453.242 L2189.09 531.901 L2168.63 578.892 L2148.17 566.816 L2127.72 382.548 L2107.26 264.979 L2086.8 282.162 L2066.34 351.857 L2045.88 322.794 L2025.43 339.974 L2004.97 479.561 L1984.51 361.436 L1964.05 294.45 L1943.59 444.715 L1923.13 535.17 L1902.68 621.373 L1882.22 664.799 L1861.76 676.323 L1841.3 687.263 L1820.84 791.253 L1800.39 893.656 L1779.93 927.431 L1759.47 997.46 L1739.01 1032.03 L1718.55 1066.88 L1698.09 1120.98 L1677.64 1148.89 L1657.18 1172.65 L1636.72 1196.98 L1616.26 1220.89 L1595.8 1234.52 L1575.35 1247.19 L1554.89 1208.37 L1534.43 1178.51 L1513.97 1136.82 L1493.51 1091.12 L1473.05 1011.6 L1452.6 817.039 L1432.14 692.439 L1411.68 560.404 L1391.22 336.381 L1370.76 107.579 L1350.31 87.9763 L1329.85 189.75 L1309.39 305.658 L1288.93 412.058 L1268.47 472.153 L1248.02 571.136 L1227.56 655.61 L1207.1 776.403 L1186.64 850.079 L1166.18 869.321 L1145.72 885.619 L1125.27 931.198 L1104.81 981.368 L1084.35 1044 L1063.89 1086.86 L1043.43 1129.94 L1022.98 1157.32 L1002.52 1183.26 L982.059 1194.88 L961.601 1181.64 L941.143 1143.66 L920.685 1064.43 L900.226 1016.88 L879.768 952.16 L859.31 922.616 L838.852 913.339 L818.394 899.655 L797.936 858.004 L777.477 824.544 L757.019 765.419 L736.561 671.298 L716.103 505.282 L695.645 329.89 L675.187 278.097 L654.728 322.781 L634.27 352.213 L613.812 408.573 L593.354 428.294 L572.896 498.885 L552.438 593.106 L531.979 717.784 L511.521 812.289 L491.063 892.019 L470.605 939.593 L450.147 982.391 L429.689 1031.82 L409.23 1081.82 L388.772 1110.03 L368.314 1166.64 L347.856 1189.76 L327.398 1219.97 L306.94 1240.93 L286.481 1269.04 L266.023 1285.78 L245.565 1311.59  Z" fill="#009af9" fill-rule="evenodd" fill-opacity="0.5"/>
<polyline clip-path="url(#clip122)" style="stroke:#009af9; stroke-linecap:round; stroke-linejoin:round; stroke-width:12; stroke-opacity:1; fill:none" points="245.565,1311.59 266.023,1300.94 286.481,1289.24 306.94,1273.11 327.398,1258.05 347.856,1235.45 368.314,1218.47 388.772,1194.97 409.23,1155.96 429.689,1105.6 450.147,1052.71 470.605,1002.38 491.063,956.139 511.521,871.229 531.979,821.491 552.438,744.327 572.896,648.217 593.354,586.474 613.812,523.375 634.27,500.123 654.728,554.052 675.187,600.305 695.645,718.389 716.103,866.214 736.561,1040.16 757.019,1149.23 777.477,1226.38 797.936,1268.4 818.394,1289.47 838.852,1306.98 859.31,1313.52 879.768,1319.41 900.226,1319.55 920.685,1314.81 941.143,1304.54 961.601,1294.19 982.059,1280.95 1002.52,1271.54 1022.98,1250.86 1043.43,1218.71 1063.89,1196.51 1084.35,1170.41 1104.81,1146.48 1125.27,1094.81 1145.72,1038.53 1166.18,994.165 1186.64,918.116 1207.1,822.612 1227.56,751.979 1248.02,715.908 1268.47,655.219 1288.93,524.645 1309.39,475.532 1329.85,484.243 1350.31,528.676 1370.76,628.903 1391.22,748.078 1411.68,967.986 1432.14,1127.52 1452.6,1217.71 1473.05,1244.89 1493.51,1267.9 1513.97,1296.52 1534.43,1306.04 1554.89,1321.27 1575.35,1327.14 1595.8,1322 1616.26,1319.25 1636.72,1312.54 1657.18,1314.27 1677.64,1306.44 1698.09,1302.02 1718.55,1278.17 1739.01,1263.87 1759.47,1250.25 1779.93,1225.49 1800.39,1190.38 1820.84,1140.16 1841.3,1092.88 1861.76,1030.31 1882.22,937.166 1902.68,892.546 1923.13,895.831 1943.59,851.929 1964.05,741.648 1984.51,678.506 2004.97,586.734 2025.43,599.559 2045.88,697.214 2066.34,878.659 2086.8,948.373 2107.26,1016.14 2127.72,1095.36 2148.17,1170.82 2168.63,1203.44 2189.09,1258.61 2209.55,1288.04 2230.01,1302.69 2250.47,1304.18 2270.92,1306.4 2291.38,1305.5 "/>
<path clip-path="url(#clip122)" d="M245.565 1311.59 L266.023 1345.34 L286.481 1369.27 L306.94 1385.59 L327.398 1396.6 L347.856 1406.31 L368.314 1411.94 L388.772 1418.98 L409.23 1422.39 L429.689 1427.76 L450.147 1430.59 L470.605 1430.84 L491.063 1430.64 L511.521 1431.49 L531.979 1430.47 L552.438 1425.74 L572.896 1419.19 L593.354 1416.42 L613.812 1411.09 L634.27 1398.89 L654.728 1377.22 L675.187 1348.64 L695.645 1322.38 L716.103 1286.99 L736.561 1237.78 L757.019 1197.57 L777.477 1219.53 L797.936 1234.59 L818.394 1238.97 L838.852 1254.69 L859.31 1290.39 L879.768 1323.94 L900.226 1349.7 L920.685 1370.16 L941.143 1384.27 L961.601 1396.15 L982.059 1407.38 L1002.52 1415.69 L1022.98 1419.54 L1043.43 1423.55 L1063.89 1428.4 L1084.35 1431.57 L1104.81 1434.46 L1125.27 1435.47 L1145.72 1437.75 L1166.18 1438.42 L1186.64 1438.07 L1207.1 1437.25 L1227.56 1433.72 L1248.02 1431.43 L1268.47 1423.66 L1288.93 1410.08 L1309.39 1398.54 L1329.85 1371.35 L1350.31 1319.3 L1370.76 1238.57 L1391.22 1170.54 L1411.68 1123.92 L1432.14 1074.7 L1452.6 1063.59 L1473.05 1103.43 L1493.51 1149.16 L1513.97 1190.68 L1534.43 1242.49 L1554.89 1278.7 L1575.35 1309.26 L1595.8 1330.18 L1616.26 1358.89 L1636.72 1376.54 L1657.18 1395.15 L1677.64 1407.16 L1698.09 1416.79 L1718.55 1422.03 L1739.01 1428.32 L1759.47 1431.58 L1779.93 1434.96 L1800.39 1438.59 L1820.84 1440.23 L1841.3 1442.35 L1861.76 1444.09 L1882.22 1444.84 L1902.68 1444.83 L1923.13 1445.35 L1943.59 1445.68 L1964.05 1445.72 L1984.51 1444.57 L2004.97 1442.26 L2025.43 1437.29 L2045.88 1425.58 L2066.34 1411.12 L2086.8 1392.21 L2107.26 1369.83 L2127.72 1383.94 L2148.17 1391.11 L2168.63 1399.49 L2189.09 1402.67 L2209.55 1401.17 L2230.01 1387.37 L2250.47 1368.21 L2270.92 1388.29 L2291.38 1401.48 L2291.38 597.852 L2270.92 924.698 L2250.47 868.318 L2230.01 701.244 L2209.55 645.527 L2189.09 604.386 L2168.63 617.341 L2148.17 744.003 L2127.72 787.075 L2107.26 755.052 L2086.8 749.361 L2066.34 761.764 L2045.88 810.081 L2025.43 946.555 L2004.97 1031.52 L1984.51 1078.23 L1964.05 1094.51 L1943.59 1075.96 L1923.13 1095.99 L1902.68 1146.28 L1882.22 1216.6 L1861.76 1281.72 L1841.3 1329.46 L1820.84 1358.79 L1800.39 1365.71 L1779.93 1370.02 L1759.47 1372.14 L1739.01 1365.42 L1718.55 1352.58 L1698.09 1335.25 L1677.64 1311.93 L1657.18 1284.35 L1636.72 1245.71 L1616.26 1196.39 L1595.8 1156.32 L1575.35 1087.47 L1554.89 1022.8 L1534.43 976.185 L1513.97 881.309 L1493.51 734.193 L1473.05 536.954 L1452.6 401.161 L1432.14 272.113 L1411.68 320.707 L1391.22 605.305 L1370.76 859.434 L1350.31 972.797 L1329.85 1088.73 L1309.39 1168.64 L1288.93 1240.91 L1268.47 1274.34 L1248.02 1301.05 L1227.56 1330.44 L1207.1 1345.13 L1186.64 1357.64 L1166.18 1357.93 L1145.72 1356.49 L1125.27 1348.75 L1104.81 1340.12 L1084.35 1321.56 L1063.89 1288.94 L1043.43 1247.72 L1022.98 1207.86 L1002.52 1167.12 L982.059 1101.61 L961.601 1076.4 L941.143 1046.2 L920.685 1032.72 L900.226 1041.41 L879.768 1057.73 L859.31 1039.04 L838.852 947.436 L818.394 876.852 L797.936 804.454 L777.477 753.66 L757.019 677.539 L736.561 734.259 L716.103 759.633 L695.645 838.302 L675.187 932.023 L654.728 1026.93 L634.27 1121.24 L613.812 1219.21 L593.354 1293.84 L572.896 1336.76 L552.438 1366.41 L531.979 1382.37 L511.521 1390.78 L491.063 1396.4 L470.605 1401.24 L450.147 1403.46 L429.689 1404.2 L409.23 1402.23 L388.772 1399.24 L368.314 1392.88 L347.856 1381.02 L327.398 1370.56 L306.94 1358.24 L286.481 1341.42 L266.023 1331.65 L245.565 1311.59  Z" fill="#e26f46" fill-rule="evenodd" fill-opacity="0.5"/>
<polyline clip-path="url(#clip122)" style="stroke:#e26f46; stroke-linecap:round; stroke-linejoin:round; stroke-width:12; stroke-opacity:1; fill:none" points="245.565,1311.59 266.023,1335.58 286.481,1355.37 306.94,1370.89 327.398,1383.82 347.856,1391.9 368.314,1400.1 388.772,1407.53 409.23,1413.88 429.689,1417.14 450.147,1418.13 470.605,1418.59 491.063,1417.19 511.521,1413.64 531.979,1409.68 552.438,1402.16 572.896,1391.8 593.354,1376.15 613.812,1336.16 634.27,1270.66 654.728,1183.87 675.187,1044.87 695.645,921.32 716.103,903.931 736.561,883.898 757.019,927.146 777.477,901.958 797.936,967.272 818.394,1060.31 838.852,1141.07 859.31,1171.01 879.768,1232.17 900.226,1278.89 920.685,1317.35 941.143,1342.51 961.601,1362.23 982.059,1377.31 1002.52,1389.33 1022.98,1394.94 1043.43,1405.14 1063.89,1409.89 1084.35,1414.61 1104.81,1417.07 1125.27,1417.95 1145.72,1417.86 1166.18,1416.72 1186.64,1413.05 1207.1,1409.22 1227.56,1403.57 1248.02,1395.36 1268.47,1379.29 1288.93,1361.74 1309.39,1322.04 1329.85,1246.42 1350.31,1101.07 1370.76,964.517 1391.22,873.496 1411.68,881.247 1432.14,837.711 1452.6,860.07 1473.05,928.47 1493.51,980.776 1513.97,1100.93 1534.43,1153.65 1554.89,1227.03 1575.35,1273.42 1595.8,1300.84 1616.26,1330.62 1636.72,1353.86 1657.18,1369.01 1677.64,1382.89 1698.09,1385.79 1718.55,1396.7 1739.01,1403.8 1759.47,1408.41 1779.93,1411.86 1800.39,1413.97 1820.84,1415.55 1841.3,1416.29 1861.76,1416.75 1882.22,1417.95 1902.68,1417.14 1923.13,1408.76 1943.59,1393.11 1964.05,1364.56 1984.51,1330.49 2004.97,1275.33 2025.43,1202.24 2045.88,1179.97 2066.34,1159.48 2086.8,1097.4 2107.26,1026.81 2127.72,958.634 2148.17,991.025 2168.63,1013.54 2189.09,1097.62 2209.55,1151.59 2230.01,1215.7 2250.47,1267.81 2270.92,1247.68 2291.38,1288.66 "/>
</svg>
