<?xml version="1.0" encoding="utf-8"?>
<svg xmlns="http://www.w3.org/2000/svg" xmlns:xlink="http://www.w3.org/1999/xlink" width="600" height="400" viewBox="0 0 2400 1600">
<defs>
  <clipPath id="clip190">
    <rect x="0" y="0" width="2400" height="1600"/>
  </clipPath>
</defs>
<path clip-path="url(#clip190)" d="M0 1600 L2400 1600 L2400 0 L0 0  Z" fill="#ffffff" fill-rule="evenodd" fill-opacity="1"/>
<defs>
  <clipPath id="clip191">
    <rect x="184" y="47" width="2170" height="1440"/>
  </clipPath>
</defs>
<path clip-path="url(#clip190)" d="M184.191 1486.45 L2352.76 1486.45 L2352.76 47.2441 L184.191 47.2441  Z" fill="#ffffff" fill-rule="evenodd" fill-opacity="1"/>
<polyline clip-path="url(#clip191)" style="stroke:#000000; stroke-linecap:round; stroke-linejoin:round; stroke-width:2; stroke-opacity:0.1; fill:none" points="245.565,1486.45 245.565,47.2441 "/>
<polyline clip-path="url(#clip191)" style="stroke:#000000; stroke-linecap:round; stroke-linejoin:round; stroke-width:2; stroke-opacity:0.1; fill:none" points="757.019,1486.45 757.019,47.2441 "/>
<polyline clip-path="url(#clip191)" style="stroke:#000000; stroke-linecap:round; stroke-linejoin:round; stroke-width:2; stroke-opacity:0.1; fill:none" points="1268.47,1486.45 1268.47,47.2441 "/>
<polyline clip-path="url(#clip191)" style="stroke:#000000; stroke-linecap:round; stroke-linejoin:round; stroke-width:2; stroke-opacity:0.1; fill:none" points="1779.93,1486.45 1779.93,47.2441 "/>
<polyline clip-path="url(#clip191)" style="stroke:#000000; stroke-linecap:round; stroke-linejoin:round; stroke-width:2; stroke-opacity:0.1; fill:none" points="2291.38,1486.45 2291.38,47.2441 "/>
<polyline clip-path="url(#clip191)" style="stroke:#000000; stroke-linecap:round; stroke-linejoin:round; stroke-width:2; stroke-opacity:0.1; fill:none" points="184.191,1449.41 2352.76,1449.41 "/>
<polyline clip-path="url(#clip191)" style="stroke:#000000; stroke-linecap:round; stroke-linejoin:round; stroke-width:2; stroke-opacity:0.1; fill:none" points="184.191,1160.7 2352.76,1160.7 "/>
<polyline clip-path="url(#clip191)" style="stroke:#000000; stroke-linecap:round; stroke-linejoin:round; stroke-width:2; stroke-opacity:0.1; fill:none" points="184.191,871.982 2352.76,871.982 "/>
<polyline clip-path="url(#clip191)" style="stroke:#000000; stroke-linecap:round; stroke-linejoin:round; stroke-width:2; stroke-opacity:0.1; fill:none" points="184.191,583.267 2352.76,583.267 "/>
<polyline clip-path="url(#clip191)" style="stroke:#000000; stroke-linecap:round; stroke-linejoin:round; stroke-width:2; stroke-opacity:0.1; fill:none" points="184.191,294.552 2352.76,294.552 "/>
<polyline clip-path="url(#clip190)" style="stroke:#000000; stroke-linecap:round; stroke-linejoin:round; stroke-width:4; stroke-opacity:1; fill:none" points="184.191,1486.45 2352.76,1486.45 "/>
<polyline clip-path="url(#clip190)" style="stroke:#000000; stroke-linecap:round; stroke-linejoin:round; stroke-width:4; stroke-opacity:1; fill:none" points="245.565,1486.45 245.565,1467.55 "/>
<polyline clip-path="url(#clip190)" style="stroke:#000000; stroke-linecap:round; stroke-linejoin:round; stroke-width:4; stroke-opacity:1; fill:none" points="757.019,1486.45 757.019,1467.55 "/>
<polyline clip-path="url(#clip190)" style="stroke:#000000; stroke-linecap:round; stroke-linejoin:round; stroke-width:4; stroke-opacity:1; fill:none" points="1268.47,1486.45 1268.47,1467.55 "/>
<polyline clip-path="url(#clip190)" style="stroke:#000000; stroke-linecap:round; stroke-linejoin:round; stroke-width:4; stroke-opacity:1; fill:none" points="1779.93,1486.45 1779.93,1467.55 "/>
<polyline clip-path="url(#clip190)" style="stroke:#000000; stroke-linecap:round; stroke-linejoin:round; stroke-width:4; stroke-opacity:1; fill:none" points="2291.38,1486.45 2291.38,1467.55 "/>
<path clip-path="url(#clip190)" d="M222.95 1517.37 Q219.338 1517.37 217.51 1520.93 Q215.704 1524.47 215.704 1531.6 Q215.704 1538.71 217.51 1542.27 Q219.338 1545.82 222.95 1545.82 Q226.584 1545.82 228.389 1542.27 Q230.218 1538.71 230.218 1531.6 Q230.218 1524.47 228.389 1520.93 Q226.584 1517.37 222.95 1517.37 M222.95 1513.66 Q228.76 1513.66 231.815 1518.27 Q234.894 1522.85 234.894 1531.6 Q234.894 1540.33 231.815 1544.94 Q228.76 1549.52 222.95 1549.52 Q217.139 1549.52 214.061 1544.94 Q211.005 1540.33 211.005 1531.6 Q211.005 1522.85 214.061 1518.27 Q217.139 1513.66 222.95 1513.66 Z" fill="#000000" fill-rule="nonzero" fill-opacity="1" /><path clip-path="url(#clip190)" d="M243.111 1542.97 L247.996 1542.97 L247.996 1548.85 L243.111 1548.85 L243.111 1542.97 Z" fill="#000000" fill-rule="nonzero" fill-opacity="1" /><path clip-path="url(#clip190)" d="M268.181 1517.37 Q264.57 1517.37 262.741 1520.93 Q260.935 1524.47 260.935 1531.6 Q260.935 1538.71 262.741 1542.27 Q264.57 1545.82 268.181 1545.82 Q271.815 1545.82 273.621 1542.27 Q275.449 1538.71 275.449 1531.6 Q275.449 1524.47 273.621 1520.93 Q271.815 1517.37 268.181 1517.37 M268.181 1513.66 Q273.991 1513.66 277.046 1518.27 Q280.125 1522.85 280.125 1531.6 Q280.125 1540.33 277.046 1544.94 Q273.991 1549.52 268.181 1549.52 Q262.371 1549.52 259.292 1544.94 Q256.236 1540.33 256.236 1531.6 Q256.236 1522.85 259.292 1518.27 Q262.371 1513.66 268.181 1513.66 Z" fill="#000000" fill-rule="nonzero" fill-opacity="1" /><path clip-path="url(#clip190)" d="M728.755 1544.91 L745.075 1544.91 L745.075 1548.85 L723.131 1548.85 L723.131 1544.91 Q725.793 1542.16 730.376 1537.53 Q734.982 1532.88 736.163 1531.53 Q738.408 1529.01 739.288 1527.27 Q740.191 1525.51 740.191 1523.82 Q740.191 1521.07 738.246 1519.33 Q736.325 1517.6 733.223 1517.6 Q731.024 1517.6 728.57 1518.36 Q726.14 1519.13 723.362 1520.68 L723.362 1515.95 Q726.186 1514.82 728.64 1514.24 Q731.093 1513.66 733.13 1513.66 Q738.501 1513.66 741.695 1516.35 Q744.89 1519.03 744.89 1523.52 Q744.89 1525.65 744.079 1527.57 Q743.292 1529.47 741.186 1532.07 Q740.607 1532.74 737.505 1535.95 Q734.404 1539.15 728.755 1544.91 Z" fill="#000000" fill-rule="nonzero" fill-opacity="1" /><path clip-path="url(#clip190)" d="M754.89 1542.97 L759.774 1542.97 L759.774 1548.85 L754.89 1548.85 L754.89 1542.97 Z" fill="#000000" fill-rule="nonzero" fill-opacity="1" /><path clip-path="url(#clip190)" d="M770.005 1514.29 L788.362 1514.29 L788.362 1518.22 L774.288 1518.22 L774.288 1526.7 Q775.306 1526.35 776.325 1526.19 Q777.343 1526 778.362 1526 Q784.149 1526 787.528 1529.17 Q790.908 1532.34 790.908 1537.76 Q790.908 1543.34 787.436 1546.44 Q783.964 1549.52 777.644 1549.52 Q775.468 1549.52 773.2 1549.15 Q770.954 1548.78 768.547 1548.04 L768.547 1543.34 Q770.63 1544.47 772.852 1545.03 Q775.075 1545.58 777.552 1545.58 Q781.556 1545.58 783.894 1543.48 Q786.232 1541.37 786.232 1537.76 Q786.232 1534.15 783.894 1532.04 Q781.556 1529.94 777.552 1529.94 Q775.677 1529.94 773.802 1530.35 Q771.95 1530.77 770.005 1531.65 L770.005 1514.29 Z" fill="#000000" fill-rule="nonzero" fill-opacity="1" /><path clip-path="url(#clip190)" d="M1235.64 1514.29 L1253.99 1514.29 L1253.99 1518.22 L1239.92 1518.22 L1239.92 1526.7 Q1240.94 1526.35 1241.96 1526.19 Q1242.98 1526 1243.99 1526 Q1249.78 1526 1253.16 1529.17 Q1256.54 1532.34 1256.54 1537.76 Q1256.54 1543.34 1253.07 1546.44 Q1249.6 1549.52 1243.28 1549.52 Q1241.1 1549.52 1238.83 1549.15 Q1236.59 1548.78 1234.18 1548.04 L1234.18 1543.34 Q1236.26 1544.47 1238.49 1545.03 Q1240.71 1545.58 1243.18 1545.58 Q1247.19 1545.58 1249.53 1543.48 Q1251.86 1541.37 1251.86 1537.76 Q1251.86 1534.15 1249.53 1532.04 Q1247.19 1529.94 1243.18 1529.94 Q1241.31 1529.94 1239.43 1530.35 Q1237.58 1530.77 1235.64 1531.65 L1235.64 1514.29 Z" fill="#000000" fill-rule="nonzero" fill-opacity="1" /><path clip-path="url(#clip190)" d="M1265.75 1542.97 L1270.64 1542.97 L1270.64 1548.85 L1265.75 1548.85 L1265.75 1542.97 Z" fill="#000000" fill-rule="nonzero" fill-opacity="1" /><path clip-path="url(#clip190)" d="M1290.82 1517.37 Q1287.21 1517.37 1285.38 1520.93 Q1283.58 1524.47 1283.58 1531.6 Q1283.58 1538.71 1285.38 1542.27 Q1287.21 1545.82 1290.82 1545.82 Q1294.46 1545.82 1296.26 1542.27 Q1298.09 1538.71 1298.09 1531.6 Q1298.09 1524.47 1296.26 1520.93 Q1294.46 1517.37 1290.82 1517.37 M1290.82 1513.66 Q1296.63 1513.66 1299.69 1518.27 Q1302.77 1522.85 1302.77 1531.6 Q1302.77 1540.33 1299.69 1544.94 Q1296.63 1549.52 1290.82 1549.52 Q1285.01 1549.52 1281.93 1544.94 Q1278.88 1540.33 1278.88 1531.6 Q1278.88 1522.85 1281.93 1518.27 Q1285.01 1513.66 1290.82 1513.66 Z" fill="#000000" fill-rule="nonzero" fill-opacity="1" /><path clip-path="url(#clip190)" d="M1746.25 1514.29 L1768.47 1514.29 L1768.47 1516.28 L1755.92 1548.85 L1751.04 1548.85 L1762.84 1518.22 L1746.25 1518.22 L1746.25 1514.29 Z" fill="#000000" fill-rule="nonzero" fill-opacity="1" /><path clip-path="url(#clip190)" d="M1777.59 1542.97 L1782.47 1542.97 L1782.47 1548.85 L1777.59 1548.85 L1777.59 1542.97 Z" fill="#000000" fill-rule="nonzero" fill-opacity="1" /><path clip-path="url(#clip190)" d="M1792.71 1514.29 L1811.06 1514.29 L1811.06 1518.22 L1796.99 1518.22 L1796.99 1526.7 Q1798.01 1526.35 1799.02 1526.19 Q1800.04 1526 1801.06 1526 Q1806.85 1526 1810.23 1529.17 Q1813.61 1532.34 1813.61 1537.76 Q1813.61 1543.34 1810.14 1546.44 Q1806.66 1549.52 1800.34 1549.52 Q1798.17 1549.52 1795.9 1549.15 Q1793.65 1548.78 1791.25 1548.04 L1791.25 1543.34 Q1793.33 1544.47 1795.55 1545.03 Q1797.77 1545.58 1800.25 1545.58 Q1804.26 1545.58 1806.59 1543.48 Q1808.93 1541.37 1808.93 1537.76 Q1808.93 1534.15 1806.59 1532.04 Q1804.26 1529.94 1800.25 1529.94 Q1798.38 1529.94 1796.5 1530.35 Q1794.65 1530.77 1792.71 1531.65 L1792.71 1514.29 Z" fill="#000000" fill-rule="nonzero" fill-opacity="1" /><path clip-path="url(#clip190)" d="M2243.45 1544.91 L2251.09 1544.91 L2251.09 1518.55 L2242.78 1520.21 L2242.78 1515.95 L2251.05 1514.29 L2255.72 1514.29 L2255.72 1544.91 L2263.36 1544.91 L2263.36 1548.85 L2243.45 1548.85 L2243.45 1544.91 Z" fill="#000000" fill-rule="nonzero" fill-opacity="1" /><path clip-path="url(#clip190)" d="M2282.81 1517.37 Q2279.19 1517.37 2277.37 1520.93 Q2275.56 1524.47 2275.56 1531.6 Q2275.56 1538.71 2277.37 1542.27 Q2279.19 1545.82 2282.81 1545.82 Q2286.44 1545.82 2288.24 1542.27 Q2290.07 1538.71 2290.07 1531.6 Q2290.07 1524.47 2288.24 1520.93 Q2286.44 1517.37 2282.81 1517.37 M2282.81 1513.66 Q2288.62 1513.66 2291.67 1518.27 Q2294.75 1522.85 2294.75 1531.6 Q2294.75 1540.33 2291.67 1544.94 Q2288.62 1549.52 2282.81 1549.52 Q2276.99 1549.52 2273.92 1544.94 Q2270.86 1540.33 2270.86 1531.6 Q2270.86 1522.85 2273.92 1518.27 Q2276.99 1513.66 2282.81 1513.66 Z" fill="#000000" fill-rule="nonzero" fill-opacity="1" /><path clip-path="url(#clip190)" d="M2302.97 1542.97 L2307.85 1542.97 L2307.85 1548.85 L2302.97 1548.85 L2302.97 1542.97 Z" fill="#000000" fill-rule="nonzero" fill-opacity="1" /><path clip-path="url(#clip190)" d="M2328.04 1517.37 Q2324.43 1517.37 2322.6 1520.93 Q2320.79 1524.47 2320.79 1531.6 Q2320.79 1538.71 2322.6 1542.27 Q2324.43 1545.82 2328.04 1545.82 Q2331.67 1545.82 2333.48 1542.27 Q2335.3 1538.71 2335.3 1531.6 Q2335.3 1524.47 2333.48 1520.93 Q2331.67 1517.37 2328.04 1517.37 M2328.04 1513.66 Q2333.85 1513.66 2336.9 1518.27 Q2339.98 1522.85 2339.98 1531.6 Q2339.98 1540.33 2336.9 1544.94 Q2333.85 1549.52 2328.04 1549.52 Q2322.23 1549.52 2319.15 1544.94 Q2316.09 1540.33 2316.09 1531.6 Q2316.09 1522.85 2319.15 1518.27 Q2322.23 1513.66 2328.04 1513.66 Z" fill="#000000" fill-rule="nonzero" fill-opacity="1" /><polyline clip-path="url(#clip190)" style="stroke:#000000; stroke-linecap:round; stroke-linejoin:round; stroke-width:4; stroke-opacity:1; fill:none" points="184.191,1486.45 184.191,47.2441 "/>
<polyline clip-path="url(#clip190)" style="stroke:#000000; stroke-linecap:round; stroke-linejoin:round; stroke-width:4; stroke-opacity:1; fill:none" points="184.191,1449.41 203.088,1449.41 "/>
<polyline clip-path="url(#clip190)" style="stroke:#000000; stroke-linecap:round; stroke-linejoin:round; stroke-width:4; stroke-opacity:1; fill:none" points="184.191,1160.7 203.088,1160.7 "/>
<polyline clip-path="url(#clip190)" style="stroke:#000000; stroke-linecap:round; stroke-linejoin:round; stroke-width:4; stroke-opacity:1; fill:none" points="184.191,871.982 203.088,871.982 "/>
<polyline clip-path="url(#clip190)" style="stroke:#000000; stroke-linecap:round; stroke-linejoin:round; stroke-width:4; stroke-opacity:1; fill:none" points="184.191,583.267 203.088,583.267 "/>
<polyline clip-path="url(#clip190)" style="stroke:#000000; stroke-linecap:round; stroke-linejoin:round; stroke-width:4; stroke-opacity:1; fill:none" points="184.191,294.552 203.088,294.552 "/>
<path clip-path="url(#clip190)" d="M91.0151 1435.21 Q87.404 1435.21 85.5753 1438.78 Q83.7697 1442.32 83.7697 1449.45 Q83.7697 1456.55 85.5753 1460.12 Q87.404 1463.66 91.0151 1463.66 Q94.6493 1463.66 96.4548 1460.12 Q98.2835 1456.55 98.2835 1449.45 Q98.2835 1442.32 96.4548 1438.78 Q94.6493 1435.21 91.0151 1435.21 M91.0151 1431.51 Q96.8252 1431.51 99.8808 1436.11 Q102.959 1440.7 102.959 1449.45 Q102.959 1458.17 99.8808 1462.78 Q96.8252 1467.36 91.0151 1467.36 Q85.2049 1467.36 82.1262 1462.78 Q79.0707 1458.17 79.0707 1449.45 Q79.0707 1440.7 82.1262 1436.11 Q85.2049 1431.51 91.0151 1431.51 Z" fill="#000000" fill-rule="nonzero" fill-opacity="1" /><path clip-path="url(#clip190)" d="M111.177 1460.81 L116.061 1460.81 L116.061 1466.69 L111.177 1466.69 L111.177 1460.81 Z" fill="#000000" fill-rule="nonzero" fill-opacity="1" /><path clip-path="url(#clip190)" d="M136.246 1435.21 Q132.635 1435.21 130.807 1438.78 Q129.001 1442.32 129.001 1449.45 Q129.001 1456.55 130.807 1460.12 Q132.635 1463.66 136.246 1463.66 Q139.881 1463.66 141.686 1460.12 Q143.515 1456.55 143.515 1449.45 Q143.515 1442.32 141.686 1438.78 Q139.881 1435.21 136.246 1435.21 M136.246 1431.51 Q142.056 1431.51 145.112 1436.11 Q148.191 1440.7 148.191 1449.45 Q148.191 1458.17 145.112 1462.78 Q142.056 1467.36 136.246 1467.36 Q130.436 1467.36 127.357 1462.78 Q124.302 1458.17 124.302 1449.45 Q124.302 1440.7 127.357 1436.11 Q130.436 1431.51 136.246 1431.51 Z" fill="#000000" fill-rule="nonzero" fill-opacity="1" /><path clip-path="url(#clip190)" d="M86.0382 1174.04 L102.358 1174.04 L102.358 1177.98 L80.4133 1177.98 L80.4133 1174.04 Q83.0753 1171.29 87.6586 1166.66 Q92.2651 1162 93.4456 1160.66 Q95.691 1158.14 96.5706 1156.4 Q97.4734 1154.64 97.4734 1152.95 Q97.4734 1150.2 95.5289 1148.46 Q93.6076 1146.73 90.5058 1146.73 Q88.3067 1146.73 85.8531 1147.49 Q83.4225 1148.25 80.6447 1149.81 L80.6447 1145.08 Q83.4688 1143.95 85.9225 1143.37 Q88.3762 1142.79 90.4132 1142.79 Q95.7836 1142.79 98.978 1145.48 Q102.172 1148.16 102.172 1152.65 Q102.172 1154.78 101.362 1156.7 Q100.575 1158.6 98.4687 1161.19 Q97.89 1161.87 94.7882 1165.08 Q91.6864 1168.28 86.0382 1174.04 Z" fill="#000000" fill-rule="nonzero" fill-opacity="1" /><path clip-path="url(#clip190)" d="M112.172 1172.1 L117.057 1172.1 L117.057 1177.98 L112.172 1177.98 L112.172 1172.1 Z" fill="#000000" fill-rule="nonzero" fill-opacity="1" /><path clip-path="url(#clip190)" d="M127.288 1143.42 L145.644 1143.42 L145.644 1147.35 L131.57 1147.35 L131.57 1155.82 Q132.589 1155.48 133.607 1155.31 Q134.626 1155.13 135.644 1155.13 Q141.431 1155.13 144.811 1158.3 Q148.191 1161.47 148.191 1166.89 Q148.191 1172.47 144.718 1175.57 Q141.246 1178.65 134.927 1178.65 Q132.751 1178.65 130.482 1178.28 Q128.237 1177.91 125.83 1177.17 L125.83 1172.47 Q127.913 1173.6 130.135 1174.16 Q132.357 1174.71 134.834 1174.71 Q138.839 1174.71 141.177 1172.61 Q143.515 1170.5 143.515 1166.89 Q143.515 1163.28 141.177 1161.17 Q138.839 1159.06 134.834 1159.06 Q132.959 1159.06 131.084 1159.48 Q129.232 1159.9 127.288 1160.78 L127.288 1143.42 Z" fill="#000000" fill-rule="nonzero" fill-opacity="1" /><path clip-path="url(#clip190)" d="M81.0614 854.702 L99.4178 854.702 L99.4178 858.637 L85.3438 858.637 L85.3438 867.109 Q86.3623 866.762 87.3808 866.6 Q88.3993 866.415 89.4178 866.415 Q95.2049 866.415 98.5845 869.586 Q101.964 872.757 101.964 878.174 Q101.964 883.752 98.4919 886.854 Q95.0197 889.933 88.7003 889.933 Q86.5243 889.933 84.2558 889.563 Q82.0105 889.192 79.6031 888.451 L79.6031 883.752 Q81.6864 884.887 83.9086 885.442 Q86.1308 885.998 88.6077 885.998 Q92.6123 885.998 94.9502 883.891 Q97.2882 881.785 97.2882 878.174 Q97.2882 874.563 94.9502 872.456 Q92.6123 870.35 88.6077 870.35 Q86.7327 870.35 84.8577 870.766 Q83.0058 871.183 81.0614 872.063 L81.0614 854.702 Z" fill="#000000" fill-rule="nonzero" fill-opacity="1" /><path clip-path="url(#clip190)" d="M111.177 883.382 L116.061 883.382 L116.061 889.262 L111.177 889.262 L111.177 883.382 Z" fill="#000000" fill-rule="nonzero" fill-opacity="1" /><path clip-path="url(#clip190)" d="M136.246 857.78 Q132.635 857.78 130.807 861.345 Q129.001 864.887 129.001 872.016 Q129.001 879.123 130.807 882.688 Q132.635 886.229 136.246 886.229 Q139.881 886.229 141.686 882.688 Q143.515 879.123 143.515 872.016 Q143.515 864.887 141.686 861.345 Q139.881 857.78 136.246 857.78 M136.246 854.077 Q142.056 854.077 145.112 858.683 Q148.191 863.266 148.191 872.016 Q148.191 880.743 145.112 885.35 Q142.056 889.933 136.246 889.933 Q130.436 889.933 127.357 885.35 Q124.302 880.743 124.302 872.016 Q124.302 863.266 127.357 858.683 Q130.436 854.077 136.246 854.077 Z" fill="#000000" fill-rule="nonzero" fill-opacity="1" /><path clip-path="url(#clip190)" d="M80.8299 565.987 L103.052 565.987 L103.052 567.977 L90.5058 600.547 L85.6216 600.547 L97.4271 569.922 L80.8299 569.922 L80.8299 565.987 Z" fill="#000000" fill-rule="nonzero" fill-opacity="1" /><path clip-path="url(#clip190)" d="M112.172 594.667 L117.057 594.667 L117.057 600.547 L112.172 600.547 L112.172 594.667 Z" fill="#000000" fill-rule="nonzero" fill-opacity="1" /><path clip-path="url(#clip190)" d="M127.288 565.987 L145.644 565.987 L145.644 569.922 L131.57 569.922 L131.57 578.394 Q132.589 578.047 133.607 577.885 Q134.626 577.7 135.644 577.7 Q141.431 577.7 144.811 580.871 Q148.191 584.042 148.191 589.459 Q148.191 595.037 144.718 598.139 Q141.246 601.218 134.927 601.218 Q132.751 601.218 130.482 600.848 Q128.237 600.477 125.83 599.736 L125.83 595.037 Q127.913 596.172 130.135 596.727 Q132.357 597.283 134.834 597.283 Q138.839 597.283 141.177 595.176 Q143.515 593.07 143.515 589.459 Q143.515 585.848 141.177 583.741 Q138.839 581.635 134.834 581.635 Q132.959 581.635 131.084 582.051 Q129.232 582.468 127.288 583.348 L127.288 565.987 Z" fill="#000000" fill-rule="nonzero" fill-opacity="1" /><path clip-path="url(#clip190)" d="M51.6634 307.896 L59.3023 307.896 L59.3023 281.531 L50.9921 283.198 L50.9921 278.938 L59.256 277.272 L63.9319 277.272 L63.9319 307.896 L71.5707 307.896 L71.5707 311.832 L51.6634 311.832 L51.6634 307.896 Z" fill="#000000" fill-rule="nonzero" fill-opacity="1" /><path clip-path="url(#clip190)" d="M91.0151 280.35 Q87.404 280.35 85.5753 283.915 Q83.7697 287.457 83.7697 294.586 Q83.7697 301.693 85.5753 305.258 Q87.404 308.799 91.0151 308.799 Q94.6493 308.799 96.4548 305.258 Q98.2835 301.693 98.2835 294.586 Q98.2835 287.457 96.4548 283.915 Q94.6493 280.35 91.0151 280.35 M91.0151 276.647 Q96.8252 276.647 99.8808 281.253 Q102.959 285.836 102.959 294.586 Q102.959 303.313 99.8808 307.92 Q96.8252 312.503 91.0151 312.503 Q85.2049 312.503 82.1262 307.92 Q79.0707 303.313 79.0707 294.586 Q79.0707 285.836 82.1262 281.253 Q85.2049 276.647 91.0151 276.647 Z" fill="#000000" fill-rule="nonzero" fill-opacity="1" /><path clip-path="url(#clip190)" d="M111.177 305.952 L116.061 305.952 L116.061 311.832 L111.177 311.832 L111.177 305.952 Z" fill="#000000" fill-rule="nonzero" fill-opacity="1" /><path clip-path="url(#clip190)" d="M136.246 280.35 Q132.635 280.35 130.807 283.915 Q129.001 287.457 129.001 294.586 Q129.001 301.693 130.807 305.258 Q132.635 308.799 136.246 308.799 Q139.881 308.799 141.686 305.258 Q143.515 301.693 143.515 294.586 Q143.515 287.457 141.686 283.915 Q139.881 280.35 136.246 280.35 M136.246 276.647 Q142.056 276.647 145.112 281.253 Q148.191 285.836 148.191 294.586 Q148.191 303.313 145.112 307.92 Q142.056 312.503 136.246 312.503 Q130.436 312.503 127.357 307.92 Q124.302 303.313 124.302 294.586 Q124.302 285.836 127.357 281.253 Q130.436 276.647 136.246 276.647 Z" fill="#000000" fill-rule="nonzero" fill-opacity="1" /><path clip-path="url(#clip191)" d="M245.565 1333.93 L266.023 1334.63 L286.481 1333.29 L306.94 1326.15 L327.398 1321.12 L347.856 1306.4 L368.314 1289.27 L388.772 1260.74 L409.23 1237.96 L429.689 1210.77 L450.147 1178.34 L470.605 1139.69 L491.063 1094.42 L511.521 1031.74 L531.979 969.975 L552.438 885.044 L572.896 847.147 L593.354 827.555 L613.812 758.042 L634.27 717.9 L654.728 721.009 L675.187 846.238 L695.645 971.031 L716.103 1095.5 L736.561 1204.75 L757.019 1284.59 L777.477 1330.78 L797.936 1355.49 L818.394 1370.74 L838.852 1377.95 L859.31 1385.63 L879.768 1382.86 L900.226 1382.58 L920.685 1374.76 L941.143 1371.55 L961.601 1365.08 L982.059 1353.39 L1002.52 1346.92 L1022.98 1333.63 L1043.43 1322.8 L1063.89 1304.98 L1084.35 1280.9 L1104.81 1263 L1125.27 1229.63 L1145.72 1200.59 L1166.18 1190.05 L1186.64 1173.78 L1207.1 1146.15 L1227.56 1132.94 L1248.02 1091.98 L1268.47 1034.38 L1288.93 949.348 L1309.39 864.635 L1329.85 793.292 L1350.31 853.376 L1370.76 960.705 L1391.22 1038.76 L1411.68 1116.18 L1432.14 1181.55 L1452.6 1245.31 L1473.05 1292.29 L1493.51 1342 L1513.97 1373.46 L1534.43 1394.18 L1554.89 1402.45 L1575.35 1409.25 L1595.8 1412.21 L1616.26 1413.76 L1636.72 1410.74 L1657.18 1410.94 L1677.64 1408.64 L1698.09 1402.53 L1718.55 1394.79 L1739.01 1389.58 L1759.47 1382.91 L1779.93 1374.34 L1800.39 1368.53 L1820.84 1354.73 L1841.3 1340.97 L1861.76 1327.5 L1882.22 1302.84 L1902.68 1283.33 L1923.13 1251.12 L1943.59 1221.71 L1964.05 1183.78 L1984.51 1141.12 L2004.97 1080.88 L2025.43 1091.19 L2045.88 1064.71 L2066.34 1026.15 L2086.8 1118.67 L2107.26 1209.09 L2127.72 1257 L2148.17 1286.18 L2168.63 1308.71 L2189.09 1350.38 L2209.55 1371.97 L2230.01 1384.44 L2250.47 1386.81 L2270.92 1393.37 L2291.38 1396.29 L2291.38 1182.39 L2270.92 1093.25 L2250.47 705.806 L2230.01 276.038 L2209.55 160.146 L2189.09 87.9763 L2168.63 184.929 L2148.17 318.579 L2127.72 452.189 L2107.26 500.873 L2086.8 535.488 L2066.34 560.53 L2045.88 584.897 L2025.43 546.978 L2004.97 575.311 L1984.51 612.497 L1964.05 663.804 L1943.59 714.871 L1923.13 807.057 L1902.68 888.859 L1882.22 903.673 L1861.76 950.272 L1841.3 988.047 L1820.84 1035.78 L1800.39 1078.91 L1779.93 1112.02 L1759.47 1144.06 L1739.01 1175.79 L1718.55 1202.13 L1698.09 1227.57 L1677.64 1245.66 L1657.18 1253.6 L1636.72 1265.79 L1616.26 1279.65 L1595.8 1285.03 L1575.35 1290.89 L1554.89 1287.32 L1534.43 1271.65 L1513.97 1199.45 L1493.51 1090.88 L1473.05 865.904 L1452.6 648.111 L1432.14 530.2 L1411.68 384.527 L1391.22 336.427 L1370.76 344.231 L1350.31 463.134 L1329.85 566.427 L1309.39 620.041 L1288.93 675.526 L1268.47 744.381 L1248.02 784.028 L1227.56 854.664 L1207.1 920.739 L1186.64 953.209 L1166.18 1004.52 L1145.72 1053.47 L1125.27 1075.9 L1104.81 1135.69 L1084.35 1172.8 L1063.89 1209.59 L1043.43 1234.5 L1022.98 1260.17 L1002.52 1275.27 L982.059 1284.21 L961.601 1286.23 L941.143 1304.75 L920.685 1315.57 L900.226 1319.68 L879.768 1323.96 L859.31 1322.23 L838.852 1316.19 L818.394 1295.09 L797.936 1259.88 L777.477 1192.48 L757.019 1088.26 L736.561 978.363 L716.103 855.601 L695.645 694.42 L675.187 585.932 L654.728 498.904 L634.27 475.068 L613.812 509.424 L593.354 618.404 L572.896 699.582 L552.438 774.34 L531.979 864.34 L511.521 943.087 L491.063 1003.87 L470.605 1054.16 L450.147 1102.27 L429.689 1143.49 L409.23 1173.79 L388.772 1190.28 L368.314 1218.84 L347.856 1240.87 L327.398 1273.3 L306.94 1286.74 L286.481 1308.45 L266.023 1321.36 L245.565 1333.93  Z" fill="#009af9" fill-rule="evenodd" fill-opacity="0.5"/>
<polyline clip-path="url(#clip191)" style="stroke:#009af9; stroke-linecap:round; stroke-linejoin:round; stroke-width:12; stroke-opacity:1; fill:none" points="245.565,1333.93 266.023,1326.93 286.481,1319.68 306.94,1307.25 327.398,1288.98 347.856,1273.67 368.314,1252.28 388.772,1231.97 409.23,1204.87 429.689,1172.34 450.147,1147.14 470.605,1092.76 491.063,1047.83 511.521,992.689 531.979,905.453 552.438,861.275 572.896,768.148 593.354,708.614 613.812,664.325 634.27,624.62 654.728,638.295 675.187,690.429 695.645,812.898 716.103,982.092 736.561,1109.38 757.019,1205.58 777.477,1267.24 797.936,1305.53 818.394,1324.7 838.852,1337.45 859.31,1351.56 879.768,1359.03 900.226,1358.86 920.685,1355.34 941.143,1350.84 961.601,1341.43 982.059,1329.99 1002.52,1315.34 1022.98,1300.07 1043.43,1282.21 1063.89,1255.14 1084.35,1229.89 1104.81,1193.09 1125.27,1173.1 1145.72,1140.48 1166.18,1102.93 1186.64,1045.99 1207.1,993.982 1227.56,936.578 1248.02,896.873 1268.47,833.723 1288.93,767.037 1309.39,751.193 1329.85,660.969 1350.31,614.602 1370.76,563.441 1391.22,670.828 1411.68,832.412 1432.14,1029.98 1452.6,1161.02 1473.05,1245.49 1493.51,1303.62 1513.97,1328.73 1534.43,1346.25 1554.89,1355.59 1575.35,1357.74 1595.8,1358.23 1616.26,1363.32 1636.72,1362.6 1657.18,1361.83 1677.64,1357.56 1698.09,1351.25 1718.55,1335.16 1739.01,1320.39 1759.47,1304.44 1779.93,1293.23 1800.39,1270.51 1820.84,1248.59 1841.3,1222.05 1861.76,1201.34 1882.22,1153.89 1902.68,1112.77 1923.13,1044.97 1943.59,1006.72 1964.05,973.902 1984.51,971.253 2004.97,918.164 2025.43,827.632 2045.88,728.91 2066.34,741.861 2086.8,722.651 2107.26,706.886 2127.72,754.036 2148.17,891.54 2168.63,1018.18 2189.09,1117.17 2209.55,1180.32 2230.01,1216.88 2250.47,1265.68 2270.92,1313.29 2291.38,1345.14 "/>
<path clip-path="url(#clip191)" d="M245.565 1333.93 L266.023 1359.95 L286.481 1376.83 L306.94 1390.32 L327.398 1399.89 L347.856 1408.78 L368.314 1417.7 L388.772 1421.03 L409.23 1424.96 L429.689 1428.28 L450.147 1428.18 L470.605 1429.23 L491.063 1428.52 L511.521 1426.73 L531.979 1423.73 L552.438 1419.1 L572.896 1411.28 L593.354 1398.1 L613.812 1379.5 L634.27 1345.01 L654.728 1287.74 L675.187 1193.19 L695.645 1081.08 L716.103 990.281 L736.561 961.33 L757.019 1028.08 L777.477 1076.47 L797.936 1119.37 L818.394 1189.65 L838.852 1226.27 L859.31 1252.36 L879.768 1296.01 L900.226 1330.44 L920.685 1356.99 L941.143 1366.18 L961.601 1381.71 L982.059 1393.13 L1002.52 1405.73 L1022.98 1414.28 L1043.43 1416.73 L1063.89 1421.62 L1084.35 1425.91 L1104.81 1428.11 L1125.27 1430.19 L1145.72 1431.61 L1166.18 1432.14 L1186.64 1434.49 L1207.1 1435.07 L1227.56 1436.08 L1248.02 1436.41 L1268.47 1435.18 L1288.93 1434.17 L1309.39 1430.92 L1329.85 1424.06 L1350.31 1412.4 L1370.76 1381.54 L1391.22 1337.92 L1411.68 1272.46 L1432.14 1160.31 L1452.6 1064.33 L1473.05 1117.58 L1493.51 1149.23 L1513.97 1201.93 L1534.43 1252.55 L1554.89 1289.73 L1575.35 1310.88 L1595.8 1333.44 L1616.26 1356.94 L1636.72 1377.72 L1657.18 1390.11 L1677.64 1400.63 L1698.09 1409.05 L1718.55 1415.4 L1739.01 1419.78 L1759.47 1424.05 L1779.93 1429.75 L1800.39 1433.06 L1820.84 1435.91 L1841.3 1438.31 L1861.76 1440.53 L1882.22 1442.67 L1902.68 1443.59 L1923.13 1444.38 L1943.59 1445.35 L1964.05 1445.64 L1984.51 1445.72 L2004.97 1445.23 L2025.43 1444.89 L2045.88 1444.59 L2066.34 1443.47 L2086.8 1442.01 L2107.26 1438.58 L2127.72 1431.88 L2148.17 1420.26 L2168.63 1401.48 L2189.09 1356.15 L2209.55 1298.5 L2230.01 1285.12 L2250.47 1311.49 L2270.92 1333.09 L2291.38 1352.01 L2291.38 221.634 L2270.92 200.159 L2250.47 439.682 L2230.01 687.433 L2209.55 874.435 L2189.09 855.167 L2168.63 781.69 L2148.17 749.599 L2127.72 782.833 L2107.26 791.817 L2086.8 832.523 L2066.34 950.171 L2045.88 1052.3 L2025.43 1142.68 L2004.97 1193.27 L1984.51 1234.88 L1964.05 1279.91 L1943.59 1308.69 L1923.13 1338.05 L1902.68 1356.22 L1882.22 1375.39 L1861.76 1385.51 L1841.3 1393.37 L1820.84 1398.46 L1800.39 1398.48 L1779.93 1397.15 L1759.47 1393.38 L1739.01 1386.69 L1718.55 1373.95 L1698.09 1354.58 L1677.64 1329.66 L1657.18 1297.47 L1636.72 1249.46 L1616.26 1190.15 L1595.8 1119.16 L1575.35 1037.77 L1554.89 960.681 L1534.43 851.733 L1513.97 757.2 L1493.51 714.919 L1473.05 668.729 L1452.6 558.172 L1432.14 652.113 L1411.68 865.849 L1391.22 949.987 L1370.76 1031.69 L1350.31 1120.45 L1329.85 1175.46 L1309.39 1245.95 L1288.93 1300.59 L1268.47 1335.36 L1248.02 1363.88 L1227.56 1385.26 L1207.1 1398.24 L1186.64 1406.1 L1166.18 1411.28 L1145.72 1412.68 L1125.27 1411.21 L1104.81 1406.25 L1084.35 1403.31 L1063.89 1400.33 L1043.43 1391.21 L1022.98 1382.56 L1002.52 1377.13 L982.059 1365.75 L961.601 1355.73 L941.143 1337.2 L920.685 1308.59 L900.226 1271.42 L879.768 1238.41 L859.31 1181.3 L838.852 1125.24 L818.394 1043.16 L797.936 956.004 L777.477 888.719 L757.019 819.866 L736.561 781.859 L716.103 838.931 L695.645 898.565 L675.187 1001.29 L654.728 1140.79 L634.27 1256.18 L613.812 1317.66 L593.354 1355.02 L572.896 1380.68 L552.438 1394.5 L531.979 1402.62 L511.521 1410.27 L491.063 1409.76 L470.605 1414.01 L450.147 1410.59 L429.689 1410.54 L409.23 1407.93 L388.772 1407.02 L368.314 1403.2 L347.856 1399.25 L327.398 1392.38 L306.94 1381.52 L286.481 1365.74 L266.023 1349.69 L245.565 1333.93  Z" fill="#e26f46" fill-rule="evenodd" fill-opacity="0.5"/>
<polyline clip-path="url(#clip191)" style="stroke:#e26f46; stroke-linecap:round; stroke-linejoin:round; stroke-width:12; stroke-opacity:1; fill:none" points="245.565,1333.93 266.023,1356.59 286.481,1374.43 306.94,1386.48 327.398,1395.81 347.856,1406.2 368.314,1412.17 388.772,1416.51 409.23,1420.63 429.689,1422.38 450.147,1423.96 470.605,1424.01 491.063,1423.75 511.521,1422.31 531.979,1417.12 552.438,1409.71 572.896,1396.59 593.354,1378.38 613.812,1352.37 634.27,1292.94 654.728,1220.3 675.187,1112.96 695.645,1007.46 716.103,930.293 736.561,897.561 757.019,878.095 777.477,947.138 797.936,1021.4 818.394,1106.26 838.852,1155.98 859.31,1215.78 879.768,1262.6 900.226,1302.5 920.685,1328.87 941.143,1353.96 961.601,1370.24 982.059,1383.78 1002.52,1394.82 1022.98,1401.7 1043.43,1408.49 1063.89,1415.12 1084.35,1419.39 1104.81,1421.95 1125.27,1424.29 1145.72,1424.48 1166.18,1424.98 1186.64,1425.26 1207.1,1423.75 1227.56,1420.73 1248.02,1416.45 1268.47,1408.68 1288.93,1399.29 1309.39,1379.82 1329.85,1345.07 1350.31,1290.24 1370.76,1198.79 1391.22,1097.16 1411.68,966.914 1432.14,863.088 1452.6,892.475 1473.05,880.908 1493.51,917.294 1513.97,980.563 1534.43,1072.7 1554.89,1158.61 1575.35,1209.78 1595.8,1268.13 1616.26,1301.68 1636.72,1331.63 1657.18,1354.66 1677.64,1369.81 1698.09,1386.36 1718.55,1396.92 1739.01,1406.92 1759.47,1413.45 1779.93,1418.39 1800.39,1422.53 1820.84,1426.17 1841.3,1428.74 1861.76,1428.1 1882.22,1428.59 1902.68,1429.34 1923.13,1429.19 1943.59,1427.45 1964.05,1424.33 1984.51,1419.06 2004.97,1411.1 2025.43,1395.53 2045.88,1370.6 2066.34,1326.49 2086.8,1261.34 2107.26,1238.35 2127.72,1208.16 2148.17,1156.98 2168.63,1031.16 2189.09,1052.9 2209.55,1056.69 2230.01,1056.95 2250.47,1037.49 2270.92,1095.48 2291.38,1164.22 "/>
</svg>
