<?xml version="1.0" encoding="utf-8"?>
<svg xmlns="http://www.w3.org/2000/svg" xmlns:xlink="http://www.w3.org/1999/xlink" width="600" height="400" viewBox="0 0 2400 1600">
<defs>
  <clipPath id="clip870">
    <rect x="0" y="0" width="2400" height="1600"/>
  </clipPath>
</defs>
<path clip-path="url(#clip870)" d="M0 1600 L2400 1600 L2400 0 L0 0  Z" fill="#ffffff" fill-rule="evenodd" fill-opacity="1"/>
<defs>
  <clipPath id="clip871">
    <rect x="155" y="47" width="2198" height="1440"/>
  </clipPath>
</defs>
<path clip-path="url(#clip870)" d="M155.765 1486.45 L2352.76 1486.45 L2352.76 47.2441 L155.765 47.2441  Z" fill="#ffffff" fill-rule="evenodd" fill-opacity="1"/>
<polyline clip-path="url(#clip871)" style="stroke:#000000; stroke-linecap:round; stroke-linejoin:round; stroke-width:2; stroke-opacity:0.1; fill:none" points="217.944,1486.45 217.944,47.2441 "/>
<polyline clip-path="url(#clip871)" style="stroke:#000000; stroke-linecap:round; stroke-linejoin:round; stroke-width:2; stroke-opacity:0.1; fill:none" points="736.102,1486.45 736.102,47.2441 "/>
<polyline clip-path="url(#clip871)" style="stroke:#000000; stroke-linecap:round; stroke-linejoin:round; stroke-width:2; stroke-opacity:0.1; fill:none" points="1254.26,1486.45 1254.26,47.2441 "/>
<polyline clip-path="url(#clip871)" style="stroke:#000000; stroke-linecap:round; stroke-linejoin:round; stroke-width:2; stroke-opacity:0.1; fill:none" points="1772.42,1486.45 1772.42,47.2441 "/>
<polyline clip-path="url(#clip871)" style="stroke:#000000; stroke-linecap:round; stroke-linejoin:round; stroke-width:2; stroke-opacity:0.1; fill:none" points="2290.58,1486.45 2290.58,47.2441 "/>
<polyline clip-path="url(#clip871)" style="stroke:#000000; stroke-linecap:round; stroke-linejoin:round; stroke-width:2; stroke-opacity:0.1; fill:none" points="155.765,1284.48 2352.76,1284.48 "/>
<polyline clip-path="url(#clip871)" style="stroke:#000000; stroke-linecap:round; stroke-linejoin:round; stroke-width:2; stroke-opacity:0.1; fill:none" points="155.765,1015.29 2352.76,1015.29 "/>
<polyline clip-path="url(#clip871)" style="stroke:#000000; stroke-linecap:round; stroke-linejoin:round; stroke-width:2; stroke-opacity:0.1; fill:none" points="155.765,746.093 2352.76,746.093 "/>
<polyline clip-path="url(#clip871)" style="stroke:#000000; stroke-linecap:round; stroke-linejoin:round; stroke-width:2; stroke-opacity:0.1; fill:none" points="155.765,476.899 2352.76,476.899 "/>
<polyline clip-path="url(#clip871)" style="stroke:#000000; stroke-linecap:round; stroke-linejoin:round; stroke-width:2; stroke-opacity:0.1; fill:none" points="155.765,207.705 2352.76,207.705 "/>
<polyline clip-path="url(#clip870)" style="stroke:#000000; stroke-linecap:round; stroke-linejoin:round; stroke-width:4; stroke-opacity:1; fill:none" points="155.765,1486.45 2352.76,1486.45 "/>
<polyline clip-path="url(#clip870)" style="stroke:#000000; stroke-linecap:round; stroke-linejoin:round; stroke-width:4; stroke-opacity:1; fill:none" points="217.944,1486.45 217.944,1467.55 "/>
<polyline clip-path="url(#clip870)" style="stroke:#000000; stroke-linecap:round; stroke-linejoin:round; stroke-width:4; stroke-opacity:1; fill:none" points="736.102,1486.45 736.102,1467.55 "/>
<polyline clip-path="url(#clip870)" style="stroke:#000000; stroke-linecap:round; stroke-linejoin:round; stroke-width:4; stroke-opacity:1; fill:none" points="1254.26,1486.45 1254.26,1467.55 "/>
<polyline clip-path="url(#clip870)" style="stroke:#000000; stroke-linecap:round; stroke-linejoin:round; stroke-width:4; stroke-opacity:1; fill:none" points="1772.42,1486.45 1772.42,1467.55 "/>
<polyline clip-path="url(#clip870)" style="stroke:#000000; stroke-linecap:round; stroke-linejoin:round; stroke-width:4; stroke-opacity:1; fill:none" points="2290.58,1486.45 2290.58,1467.55 "/>
<path clip-path="url(#clip870)" d="M180.247 1517.37 Q176.636 1517.37 174.808 1520.93 Q173.002 1524.47 173.002 1531.6 Q173.002 1538.71 174.808 1542.27 Q176.636 1545.82 180.247 1545.82 Q183.882 1545.82 185.687 1542.27 Q187.516 1538.71 187.516 1531.6 Q187.516 1524.47 185.687 1520.93 Q183.882 1517.37 180.247 1517.37 M180.247 1513.66 Q186.057 1513.66 189.113 1518.27 Q192.192 1522.85 192.192 1531.6 Q192.192 1540.33 189.113 1544.94 Q186.057 1549.52 180.247 1549.52 Q174.437 1549.52 171.358 1544.94 Q168.303 1540.33 168.303 1531.6 Q168.303 1522.85 171.358 1518.27 Q174.437 1513.66 180.247 1513.66 Z" fill="#000000" fill-rule="nonzero" fill-opacity="1" /><path clip-path="url(#clip870)" d="M200.409 1542.97 L205.294 1542.97 L205.294 1548.85 L200.409 1548.85 L200.409 1542.97 Z" fill="#000000" fill-rule="nonzero" fill-opacity="1" /><path clip-path="url(#clip870)" d="M225.479 1517.37 Q221.867 1517.37 220.039 1520.93 Q218.233 1524.47 218.233 1531.6 Q218.233 1538.71 220.039 1542.27 Q221.867 1545.82 225.479 1545.82 Q229.113 1545.82 230.918 1542.27 Q232.747 1538.71 232.747 1531.6 Q232.747 1524.47 230.918 1520.93 Q229.113 1517.37 225.479 1517.37 M225.479 1513.66 Q231.289 1513.66 234.344 1518.27 Q237.423 1522.85 237.423 1531.6 Q237.423 1540.33 234.344 1544.94 Q231.289 1549.52 225.479 1549.52 Q219.668 1549.52 216.59 1544.94 Q213.534 1540.33 213.534 1531.6 Q213.534 1522.85 216.59 1518.27 Q219.668 1513.66 225.479 1513.66 Z" fill="#000000" fill-rule="nonzero" fill-opacity="1" /><path clip-path="url(#clip870)" d="M255.64 1517.37 Q252.029 1517.37 250.201 1520.93 Q248.395 1524.47 248.395 1531.6 Q248.395 1538.71 250.201 1542.27 Q252.029 1545.82 255.64 1545.82 Q259.275 1545.82 261.08 1542.27 Q262.909 1538.71 262.909 1531.6 Q262.909 1524.47 261.08 1520.93 Q259.275 1517.37 255.64 1517.37 M255.64 1513.66 Q261.451 1513.66 264.506 1518.27 Q267.585 1522.85 267.585 1531.6 Q267.585 1540.33 264.506 1544.94 Q261.451 1549.52 255.64 1549.52 Q249.83 1549.52 246.752 1544.94 Q243.696 1540.33 243.696 1531.6 Q243.696 1522.85 246.752 1518.27 Q249.83 1513.66 255.64 1513.66 Z" fill="#000000" fill-rule="nonzero" fill-opacity="1" /><path clip-path="url(#clip870)" d="M698.903 1517.37 Q695.292 1517.37 693.463 1520.93 Q691.658 1524.47 691.658 1531.6 Q691.658 1538.71 693.463 1542.27 Q695.292 1545.82 698.903 1545.82 Q702.538 1545.82 704.343 1542.27 Q706.172 1538.71 706.172 1531.6 Q706.172 1524.47 704.343 1520.93 Q702.538 1517.37 698.903 1517.37 M698.903 1513.66 Q704.713 1513.66 707.769 1518.27 Q710.848 1522.85 710.848 1531.6 Q710.848 1540.33 707.769 1544.94 Q704.713 1549.52 698.903 1549.52 Q693.093 1549.52 690.014 1544.94 Q686.959 1540.33 686.959 1531.6 Q686.959 1522.85 690.014 1518.27 Q693.093 1513.66 698.903 1513.66 Z" fill="#000000" fill-rule="nonzero" fill-opacity="1" /><path clip-path="url(#clip870)" d="M719.065 1542.97 L723.949 1542.97 L723.949 1548.85 L719.065 1548.85 L719.065 1542.97 Z" fill="#000000" fill-rule="nonzero" fill-opacity="1" /><path clip-path="url(#clip870)" d="M738.162 1544.91 L754.482 1544.91 L754.482 1548.85 L732.537 1548.85 L732.537 1544.91 Q735.199 1542.16 739.783 1537.53 Q744.389 1532.88 745.57 1531.53 Q747.815 1529.01 748.695 1527.27 Q749.597 1525.51 749.597 1523.82 Q749.597 1521.07 747.653 1519.33 Q745.732 1517.6 742.63 1517.6 Q740.431 1517.6 737.977 1518.36 Q735.547 1519.13 732.769 1520.68 L732.769 1515.95 Q735.593 1514.82 738.047 1514.24 Q740.5 1513.66 742.537 1513.66 Q747.908 1513.66 751.102 1516.35 Q754.296 1519.03 754.296 1523.52 Q754.296 1525.65 753.486 1527.57 Q752.699 1529.47 750.593 1532.07 Q750.014 1532.74 746.912 1535.95 Q743.81 1539.15 738.162 1544.91 Z" fill="#000000" fill-rule="nonzero" fill-opacity="1" /><path clip-path="url(#clip870)" d="M764.343 1514.29 L782.699 1514.29 L782.699 1518.22 L768.625 1518.22 L768.625 1526.7 Q769.644 1526.35 770.662 1526.19 Q771.681 1526 772.699 1526 Q778.486 1526 781.866 1529.17 Q785.245 1532.34 785.245 1537.76 Q785.245 1543.34 781.773 1546.44 Q778.301 1549.52 771.982 1549.52 Q769.806 1549.52 767.537 1549.15 Q765.292 1548.78 762.884 1548.04 L762.884 1543.34 Q764.968 1544.47 767.19 1545.03 Q769.412 1545.58 771.889 1545.58 Q775.894 1545.58 778.232 1543.48 Q780.57 1541.37 780.57 1537.76 Q780.57 1534.15 778.232 1532.04 Q775.894 1529.94 771.889 1529.94 Q770.014 1529.94 768.139 1530.35 Q766.287 1530.77 764.343 1531.65 L764.343 1514.29 Z" fill="#000000" fill-rule="nonzero" fill-opacity="1" /><path clip-path="url(#clip870)" d="M1216.56 1517.37 Q1212.95 1517.37 1211.12 1520.93 Q1209.32 1524.47 1209.32 1531.6 Q1209.32 1538.71 1211.12 1542.27 Q1212.95 1545.82 1216.56 1545.82 Q1220.2 1545.82 1222 1542.27 Q1223.83 1538.71 1223.83 1531.6 Q1223.83 1524.47 1222 1520.93 Q1220.2 1517.37 1216.56 1517.37 M1216.56 1513.66 Q1222.37 1513.66 1225.43 1518.27 Q1228.51 1522.85 1228.51 1531.6 Q1228.51 1540.33 1225.43 1544.94 Q1222.37 1549.52 1216.56 1549.52 Q1210.75 1549.52 1207.68 1544.94 Q1204.62 1540.33 1204.62 1531.6 Q1204.62 1522.85 1207.68 1518.27 Q1210.75 1513.66 1216.56 1513.66 Z" fill="#000000" fill-rule="nonzero" fill-opacity="1" /><path clip-path="url(#clip870)" d="M1236.73 1542.97 L1241.61 1542.97 L1241.61 1548.85 L1236.73 1548.85 L1236.73 1542.97 Z" fill="#000000" fill-rule="nonzero" fill-opacity="1" /><path clip-path="url(#clip870)" d="M1251.84 1514.29 L1270.2 1514.29 L1270.2 1518.22 L1256.12 1518.22 L1256.12 1526.7 Q1257.14 1526.35 1258.16 1526.19 Q1259.18 1526 1260.2 1526 Q1265.98 1526 1269.36 1529.17 Q1272.74 1532.34 1272.74 1537.76 Q1272.74 1543.34 1269.27 1546.44 Q1265.8 1549.52 1259.48 1549.52 Q1257.3 1549.52 1255.04 1549.15 Q1252.79 1548.78 1250.38 1548.04 L1250.38 1543.34 Q1252.47 1544.47 1254.69 1545.03 Q1256.91 1545.58 1259.39 1545.58 Q1263.39 1545.58 1265.73 1543.48 Q1268.07 1541.37 1268.07 1537.76 Q1268.07 1534.15 1265.73 1532.04 Q1263.39 1529.94 1259.39 1529.94 Q1257.51 1529.94 1255.64 1530.35 Q1253.79 1530.77 1251.84 1531.65 L1251.84 1514.29 Z" fill="#000000" fill-rule="nonzero" fill-opacity="1" /><path clip-path="url(#clip870)" d="M1291.96 1517.37 Q1288.35 1517.37 1286.52 1520.93 Q1284.71 1524.47 1284.71 1531.6 Q1284.71 1538.71 1286.52 1542.27 Q1288.35 1545.82 1291.96 1545.82 Q1295.59 1545.82 1297.4 1542.27 Q1299.23 1538.71 1299.23 1531.6 Q1299.23 1524.47 1297.4 1520.93 Q1295.59 1517.37 1291.96 1517.37 M1291.96 1513.66 Q1297.77 1513.66 1300.82 1518.27 Q1303.9 1522.85 1303.9 1531.6 Q1303.9 1540.33 1300.82 1544.94 Q1297.77 1549.52 1291.96 1549.52 Q1286.15 1549.52 1283.07 1544.94 Q1280.01 1540.33 1280.01 1531.6 Q1280.01 1522.85 1283.07 1518.27 Q1286.15 1513.66 1291.96 1513.66 Z" fill="#000000" fill-rule="nonzero" fill-opacity="1" /><path clip-path="url(#clip870)" d="M1735.22 1517.37 Q1731.61 1517.37 1729.78 1520.93 Q1727.97 1524.47 1727.97 1531.6 Q1727.97 1538.71 1729.78 1542.27 Q1731.61 1545.82 1735.22 1545.82 Q1738.85 1545.82 1740.66 1542.27 Q1742.49 1538.71 1742.49 1531.6 Q1742.49 1524.47 1740.66 1520.93 Q1738.85 1517.37 1735.22 1517.37 M1735.22 1513.66 Q1741.03 1513.66 1744.09 1518.27 Q1747.16 1522.85 1747.16 1531.6 Q1747.16 1540.33 1744.09 1544.94 Q1741.03 1549.52 1735.22 1549.52 Q1729.41 1549.52 1726.33 1544.94 Q1723.28 1540.33 1723.28 1531.6 Q1723.28 1522.85 1726.33 1518.27 Q1729.41 1513.66 1735.22 1513.66 Z" fill="#000000" fill-rule="nonzero" fill-opacity="1" /><path clip-path="url(#clip870)" d="M1755.38 1542.97 L1760.27 1542.97 L1760.27 1548.85 L1755.38 1548.85 L1755.38 1542.97 Z" fill="#000000" fill-rule="nonzero" fill-opacity="1" /><path clip-path="url(#clip870)" d="M1769.27 1514.29 L1791.49 1514.29 L1791.49 1516.28 L1778.95 1548.85 L1774.06 1548.85 L1785.87 1518.22 L1769.27 1518.22 L1769.27 1514.29 Z" fill="#000000" fill-rule="nonzero" fill-opacity="1" /><path clip-path="url(#clip870)" d="M1800.66 1514.29 L1819.02 1514.29 L1819.02 1518.22 L1804.94 1518.22 L1804.94 1526.7 Q1805.96 1526.35 1806.98 1526.19 Q1808 1526 1809.02 1526 Q1814.8 1526 1818.18 1529.17 Q1821.56 1532.34 1821.56 1537.76 Q1821.56 1543.34 1818.09 1546.44 Q1814.62 1549.52 1808.3 1549.52 Q1806.12 1549.52 1803.85 1549.15 Q1801.61 1548.78 1799.2 1548.04 L1799.2 1543.34 Q1801.28 1544.47 1803.51 1545.03 Q1805.73 1545.58 1808.21 1545.58 Q1812.21 1545.58 1814.55 1543.48 Q1816.89 1541.37 1816.89 1537.76 Q1816.89 1534.15 1814.55 1532.04 Q1812.21 1529.94 1808.21 1529.94 Q1806.33 1529.94 1804.46 1530.35 Q1802.6 1530.77 1800.66 1531.65 L1800.66 1514.29 Z" fill="#000000" fill-rule="nonzero" fill-opacity="1" /><path clip-path="url(#clip870)" d="M2242.65 1544.91 L2250.29 1544.91 L2250.29 1518.55 L2241.98 1520.21 L2241.98 1515.95 L2250.24 1514.29 L2254.92 1514.29 L2254.92 1544.91 L2262.56 1544.91 L2262.56 1548.85 L2242.65 1548.85 L2242.65 1544.91 Z" fill="#000000" fill-rule="nonzero" fill-opacity="1" /><path clip-path="url(#clip870)" d="M2272 1542.97 L2276.88 1542.97 L2276.88 1548.85 L2272 1548.85 L2272 1542.97 Z" fill="#000000" fill-rule="nonzero" fill-opacity="1" /><path clip-path="url(#clip870)" d="M2297.07 1517.37 Q2293.46 1517.37 2291.63 1520.93 Q2289.82 1524.47 2289.82 1531.6 Q2289.82 1538.71 2291.63 1542.27 Q2293.46 1545.82 2297.07 1545.82 Q2300.7 1545.82 2302.51 1542.27 Q2304.34 1538.71 2304.34 1531.6 Q2304.34 1524.47 2302.51 1520.93 Q2300.7 1517.37 2297.07 1517.37 M2297.07 1513.66 Q2302.88 1513.66 2305.94 1518.27 Q2309.01 1522.85 2309.01 1531.6 Q2309.01 1540.33 2305.94 1544.94 Q2302.88 1549.52 2297.07 1549.52 Q2291.26 1549.52 2288.18 1544.94 Q2285.13 1540.33 2285.13 1531.6 Q2285.13 1522.85 2288.18 1518.27 Q2291.26 1513.66 2297.07 1513.66 Z" fill="#000000" fill-rule="nonzero" fill-opacity="1" /><path clip-path="url(#clip870)" d="M2327.23 1517.37 Q2323.62 1517.37 2321.79 1520.93 Q2319.99 1524.47 2319.99 1531.6 Q2319.99 1538.71 2321.79 1542.27 Q2323.62 1545.82 2327.23 1545.82 Q2330.87 1545.82 2332.67 1542.27 Q2334.5 1538.71 2334.5 1531.6 Q2334.5 1524.47 2332.67 1520.93 Q2330.87 1517.37 2327.23 1517.37 M2327.23 1513.66 Q2333.04 1513.66 2336.1 1518.27 Q2339.18 1522.85 2339.18 1531.6 Q2339.18 1540.33 2336.1 1544.94 Q2333.04 1549.52 2327.23 1549.52 Q2321.42 1549.52 2318.34 1544.94 Q2315.29 1540.33 2315.29 1531.6 Q2315.29 1522.85 2318.34 1518.27 Q2321.42 1513.66 2327.23 1513.66 Z" fill="#000000" fill-rule="nonzero" fill-opacity="1" /><polyline clip-path="url(#clip870)" style="stroke:#000000; stroke-linecap:round; stroke-linejoin:round; stroke-width:4; stroke-opacity:1; fill:none" points="155.765,1486.45 155.765,47.2441 "/>
<polyline clip-path="url(#clip870)" style="stroke:#000000; stroke-linecap:round; stroke-linejoin:round; stroke-width:4; stroke-opacity:1; fill:none" points="155.765,1284.48 174.663,1284.48 "/>
<polyline clip-path="url(#clip870)" style="stroke:#000000; stroke-linecap:round; stroke-linejoin:round; stroke-width:4; stroke-opacity:1; fill:none" points="155.765,1015.29 174.663,1015.29 "/>
<polyline clip-path="url(#clip870)" style="stroke:#000000; stroke-linecap:round; stroke-linejoin:round; stroke-width:4; stroke-opacity:1; fill:none" points="155.765,746.093 174.663,746.093 "/>
<polyline clip-path="url(#clip870)" style="stroke:#000000; stroke-linecap:round; stroke-linejoin:round; stroke-width:4; stroke-opacity:1; fill:none" points="155.765,476.899 174.663,476.899 "/>
<polyline clip-path="url(#clip870)" style="stroke:#000000; stroke-linecap:round; stroke-linejoin:round; stroke-width:4; stroke-opacity:1; fill:none" points="155.765,207.705 174.663,207.705 "/>
<path clip-path="url(#clip870)" d="M63.5847 1270.28 Q59.9736 1270.28 58.1449 1273.85 Q56.3393 1277.39 56.3393 1284.52 Q56.3393 1291.62 58.1449 1295.19 Q59.9736 1298.73 63.5847 1298.73 Q67.2189 1298.73 69.0244 1295.19 Q70.8531 1291.62 70.8531 1284.52 Q70.8531 1277.39 69.0244 1273.85 Q67.2189 1270.28 63.5847 1270.28 M63.5847 1266.58 Q69.3948 1266.58 72.4503 1271.18 Q75.529 1275.77 75.529 1284.52 Q75.529 1293.24 72.4503 1297.85 Q69.3948 1302.43 63.5847 1302.43 Q57.7745 1302.43 54.6958 1297.85 Q51.6403 1293.24 51.6403 1284.52 Q51.6403 1275.77 54.6958 1271.18 Q57.7745 1266.58 63.5847 1266.58 Z" fill="#000000" fill-rule="nonzero" fill-opacity="1" /><path clip-path="url(#clip870)" d="M83.7466 1295.88 L88.6308 1295.88 L88.6308 1301.76 L83.7466 1301.76 L83.7466 1295.88 Z" fill="#000000" fill-rule="nonzero" fill-opacity="1" /><path clip-path="url(#clip870)" d="M98.8622 1267.2 L117.219 1267.2 L117.219 1271.14 L103.145 1271.14 L103.145 1279.61 Q104.163 1279.26 105.182 1279.1 Q106.2 1278.91 107.219 1278.91 Q113.006 1278.91 116.385 1282.09 Q119.765 1285.26 119.765 1290.67 Q119.765 1296.25 116.293 1299.35 Q112.82 1302.43 106.501 1302.43 Q104.325 1302.43 102.057 1302.06 Q99.8113 1301.69 97.4039 1300.95 L97.4039 1296.25 Q99.4872 1297.39 101.709 1297.94 Q103.932 1298.5 106.408 1298.5 Q110.413 1298.5 112.751 1296.39 Q115.089 1294.29 115.089 1290.67 Q115.089 1287.06 112.751 1284.96 Q110.413 1282.85 106.408 1282.85 Q104.534 1282.85 102.659 1283.27 Q100.807 1283.68 98.8622 1284.56 L98.8622 1267.2 Z" fill="#000000" fill-rule="nonzero" fill-opacity="1" /><path clip-path="url(#clip870)" d="M53.3995 1028.63 L61.0384 1028.63 L61.0384 1002.27 L52.7282 1003.93 L52.7282 999.674 L60.9921 998.008 L65.668 998.008 L65.668 1028.63 L73.3068 1028.63 L73.3068 1032.57 L53.3995 1032.57 L53.3995 1028.63 Z" fill="#000000" fill-rule="nonzero" fill-opacity="1" /><path clip-path="url(#clip870)" d="M82.7512 1026.69 L87.6354 1026.69 L87.6354 1032.57 L82.7512 1032.57 L82.7512 1026.69 Z" fill="#000000" fill-rule="nonzero" fill-opacity="1" /><path clip-path="url(#clip870)" d="M107.821 1001.09 Q104.209 1001.09 102.381 1004.65 Q100.575 1008.19 100.575 1015.32 Q100.575 1022.43 102.381 1025.99 Q104.209 1029.54 107.821 1029.54 Q111.455 1029.54 113.26 1025.99 Q115.089 1022.43 115.089 1015.32 Q115.089 1008.19 113.26 1004.65 Q111.455 1001.09 107.821 1001.09 M107.821 997.383 Q113.631 997.383 116.686 1001.99 Q119.765 1006.57 119.765 1015.32 Q119.765 1024.05 116.686 1028.66 Q113.631 1033.24 107.821 1033.24 Q102.01 1033.24 98.9317 1028.66 Q95.8761 1024.05 95.8761 1015.32 Q95.8761 1006.57 98.9317 1001.99 Q102.01 997.383 107.821 997.383 Z" fill="#000000" fill-rule="nonzero" fill-opacity="1" /><path clip-path="url(#clip870)" d="M54.3949 759.438 L62.0337 759.438 L62.0337 733.073 L53.7236 734.739 L53.7236 730.48 L61.9874 728.813 L66.6633 728.813 L66.6633 759.438 L74.3022 759.438 L74.3022 763.373 L54.3949 763.373 L54.3949 759.438 Z" fill="#000000" fill-rule="nonzero" fill-opacity="1" /><path clip-path="url(#clip870)" d="M83.7466 757.494 L88.6308 757.494 L88.6308 763.373 L83.7466 763.373 L83.7466 757.494 Z" fill="#000000" fill-rule="nonzero" fill-opacity="1" /><path clip-path="url(#clip870)" d="M98.8622 728.813 L117.219 728.813 L117.219 732.749 L103.145 732.749 L103.145 741.221 Q104.163 740.874 105.182 740.712 Q106.2 740.526 107.219 740.526 Q113.006 740.526 116.385 743.698 Q119.765 746.869 119.765 752.286 Q119.765 757.864 116.293 760.966 Q112.82 764.045 106.501 764.045 Q104.325 764.045 102.057 763.674 Q99.8113 763.304 97.4039 762.563 L97.4039 757.864 Q99.4872 758.998 101.709 759.554 Q103.932 760.11 106.408 760.11 Q110.413 760.11 112.751 758.003 Q115.089 755.897 115.089 752.286 Q115.089 748.674 112.751 746.568 Q110.413 744.461 106.408 744.461 Q104.534 744.461 102.659 744.878 Q100.807 745.295 98.8622 746.174 L98.8622 728.813 Z" fill="#000000" fill-rule="nonzero" fill-opacity="1" /><path clip-path="url(#clip870)" d="M56.6171 490.244 L72.9365 490.244 L72.9365 494.179 L50.9921 494.179 L50.9921 490.244 Q53.6541 487.489 58.2375 482.86 Q62.8439 478.207 64.0245 476.864 Q66.2698 474.341 67.1494 472.605 Q68.0522 470.846 68.0522 469.156 Q68.0522 466.402 66.1078 464.665 Q64.1865 462.929 61.0847 462.929 Q58.8856 462.929 56.4319 463.693 Q54.0014 464.457 51.2236 466.008 L51.2236 461.286 Q54.0477 460.152 56.5014 459.573 Q58.955 458.994 60.9921 458.994 Q66.3624 458.994 69.5568 461.679 Q72.7513 464.365 72.7513 468.855 Q72.7513 470.985 71.9411 472.906 Q71.1541 474.804 69.0476 477.397 Q68.4689 478.068 65.367 481.286 Q62.2652 484.48 56.6171 490.244 Z" fill="#000000" fill-rule="nonzero" fill-opacity="1" /><path clip-path="url(#clip870)" d="M82.7512 488.3 L87.6354 488.3 L87.6354 494.179 L82.7512 494.179 L82.7512 488.3 Z" fill="#000000" fill-rule="nonzero" fill-opacity="1" /><path clip-path="url(#clip870)" d="M107.821 462.698 Q104.209 462.698 102.381 466.263 Q100.575 469.804 100.575 476.934 Q100.575 484.04 102.381 487.605 Q104.209 491.147 107.821 491.147 Q111.455 491.147 113.26 487.605 Q115.089 484.04 115.089 476.934 Q115.089 469.804 113.26 466.263 Q111.455 462.698 107.821 462.698 M107.821 458.994 Q113.631 458.994 116.686 463.601 Q119.765 468.184 119.765 476.934 Q119.765 485.661 116.686 490.267 Q113.631 494.85 107.821 494.85 Q102.01 494.85 98.9317 490.267 Q95.8761 485.661 95.8761 476.934 Q95.8761 468.184 98.9317 463.601 Q102.01 458.994 107.821 458.994 Z" fill="#000000" fill-rule="nonzero" fill-opacity="1" /><path clip-path="url(#clip870)" d="M57.6125 221.05 L73.9318 221.05 L73.9318 224.985 L51.9875 224.985 L51.9875 221.05 Q54.6495 218.295 59.2328 213.666 Q63.8393 209.013 65.0198 207.67 Q67.2652 205.147 68.1448 203.411 Q69.0476 201.652 69.0476 199.962 Q69.0476 197.207 67.1032 195.471 Q65.1819 193.735 62.08 193.735 Q59.881 193.735 57.4273 194.499 Q54.9967 195.263 52.219 196.814 L52.219 192.092 Q55.043 190.957 57.4967 190.379 Q59.9504 189.8 61.9874 189.8 Q67.3578 189.8 70.5522 192.485 Q73.7466 195.17 73.7466 199.661 Q73.7466 201.791 72.9365 203.712 Q72.1494 205.61 70.0429 208.203 Q69.4642 208.874 66.3624 212.091 Q63.2606 215.286 57.6125 221.05 Z" fill="#000000" fill-rule="nonzero" fill-opacity="1" /><path clip-path="url(#clip870)" d="M83.7466 219.105 L88.6308 219.105 L88.6308 224.985 L83.7466 224.985 L83.7466 219.105 Z" fill="#000000" fill-rule="nonzero" fill-opacity="1" /><path clip-path="url(#clip870)" d="M98.8622 190.425 L117.219 190.425 L117.219 194.36 L103.145 194.36 L103.145 202.832 Q104.163 202.485 105.182 202.323 Q106.2 202.138 107.219 202.138 Q113.006 202.138 116.385 205.309 Q119.765 208.48 119.765 213.897 Q119.765 219.476 116.293 222.578 Q112.82 225.656 106.501 225.656 Q104.325 225.656 102.057 225.286 Q99.8113 224.915 97.4039 224.175 L97.4039 219.476 Q99.4872 220.61 101.709 221.165 Q103.932 221.721 106.408 221.721 Q110.413 221.721 112.751 219.615 Q115.089 217.508 115.089 213.897 Q115.089 210.286 112.751 208.179 Q110.413 206.073 106.408 206.073 Q104.534 206.073 102.659 206.49 Q100.807 206.906 98.8622 207.786 L98.8622 190.425 Z" fill="#000000" fill-rule="nonzero" fill-opacity="1" /><polyline clip-path="url(#clip871)" style="stroke:#009af9; stroke-linecap:round; stroke-linejoin:round; stroke-width:12; stroke-opacity:1; fill:none" points="217.944,1284.48 425.207,1254.06 632.47,1217.38 839.734,1224 1047,1206.1 1254.26,1165.54 1461.52,1103.46 1668.79,1126.68 1876.05,1125.79 2083.31,1020.14 2290.58,760.803 "/>
<polyline clip-path="url(#clip871)" style="stroke:#000000; stroke-linecap:round; stroke-linejoin:round; stroke-width:12; stroke-opacity:1; fill:none" points="217.944,1284.48 217.944,1284.48 "/>
<polyline clip-path="url(#clip871)" style="stroke:#000000; stroke-linecap:round; stroke-linejoin:round; stroke-width:12; stroke-opacity:1; fill:none" points="425.207,1331.41 425.207,1206.55 "/>
<polyline clip-path="url(#clip871)" style="stroke:#000000; stroke-linecap:round; stroke-linejoin:round; stroke-width:12; stroke-opacity:1; fill:none" points="632.47,1325.74 632.47,1116.64 "/>
<polyline clip-path="url(#clip871)" style="stroke:#000000; stroke-linecap:round; stroke-linejoin:round; stroke-width:12; stroke-opacity:1; fill:none" points="839.734,1343.32 839.734,1027.06 "/>
<polyline clip-path="url(#clip871)" style="stroke:#000000; stroke-linecap:round; stroke-linejoin:round; stroke-width:12; stroke-opacity:1; fill:none" points="1047,1393.95 1047,971.372 "/>
<polyline clip-path="url(#clip871)" style="stroke:#000000; stroke-linecap:round; stroke-linejoin:round; stroke-width:12; stroke-opacity:1; fill:none" points="1254.26,1393.78 1254.26,1056.79 "/>
<polyline clip-path="url(#clip871)" style="stroke:#000000; stroke-linecap:round; stroke-linejoin:round; stroke-width:12; stroke-opacity:1; fill:none" points="1461.52,1421.56 1461.52,819 "/>
<polyline clip-path="url(#clip871)" style="stroke:#000000; stroke-linecap:round; stroke-linejoin:round; stroke-width:12; stroke-opacity:1; fill:none" points="1668.79,1417.69 1668.79,752.431 "/>
<polyline clip-path="url(#clip871)" style="stroke:#000000; stroke-linecap:round; stroke-linejoin:round; stroke-width:12; stroke-opacity:1; fill:none" points="1876.05,1425.08 1876.05,649.088 "/>
<polyline clip-path="url(#clip871)" style="stroke:#000000; stroke-linecap:round; stroke-linejoin:round; stroke-width:12; stroke-opacity:1; fill:none" points="2083.31,1438.58 2083.31,358.847 "/>
<polyline clip-path="url(#clip871)" style="stroke:#000000; stroke-linecap:round; stroke-linejoin:round; stroke-width:12; stroke-opacity:1; fill:none" points="2290.58,1440.67 2290.58,87.9763 "/>
<line clip-path="url(#clip871)" x1="233.944" y1="1284.48" x2="201.944" y2="1284.48" style="stroke:#000000; stroke-width:12; stroke-opacity:1"/>
<line clip-path="url(#clip871)" x1="233.944" y1="1284.48" x2="201.944" y2="1284.48" style="stroke:#000000; stroke-width:12; stroke-opacity:1"/>
<line clip-path="url(#clip871)" x1="441.207" y1="1331.41" x2="409.207" y2="1331.41" style="stroke:#000000; stroke-width:12; stroke-opacity:1"/>
<line clip-path="url(#clip871)" x1="441.207" y1="1206.55" x2="409.207" y2="1206.55" style="stroke:#000000; stroke-width:12; stroke-opacity:1"/>
<line clip-path="url(#clip871)" x1="648.47" y1="1325.74" x2="616.47" y2="1325.74" style="stroke:#000000; stroke-width:12; stroke-opacity:1"/>
<line clip-path="url(#clip871)" x1="648.47" y1="1116.64" x2="616.47" y2="1116.64" style="stroke:#000000; stroke-width:12; stroke-opacity:1"/>
<line clip-path="url(#clip871)" x1="855.734" y1="1343.32" x2="823.734" y2="1343.32" style="stroke:#000000; stroke-width:12; stroke-opacity:1"/>
<line clip-path="url(#clip871)" x1="855.734" y1="1027.06" x2="823.734" y2="1027.06" style="stroke:#000000; stroke-width:12; stroke-opacity:1"/>
<line clip-path="url(#clip871)" x1="1063" y1="1393.95" x2="1031" y2="1393.95" style="stroke:#000000; stroke-width:12; stroke-opacity:1"/>
<line clip-path="url(#clip871)" x1="1063" y1="971.372" x2="1031" y2="971.372" style="stroke:#000000; stroke-width:12; stroke-opacity:1"/>
<line clip-path="url(#clip871)" x1="1270.26" y1="1393.78" x2="1238.26" y2="1393.78" style="stroke:#000000; stroke-width:12; stroke-opacity:1"/>
<line clip-path="url(#clip871)" x1="1270.26" y1="1056.79" x2="1238.26" y2="1056.79" style="stroke:#000000; stroke-width:12; stroke-opacity:1"/>
<line clip-path="url(#clip871)" x1="1477.52" y1="1421.56" x2="1445.52" y2="1421.56" style="stroke:#000000; stroke-width:12; stroke-opacity:1"/>
<line clip-path="url(#clip871)" x1="1477.52" y1="819" x2="1445.52" y2="819" style="stroke:#000000; stroke-width:12; stroke-opacity:1"/>
<line clip-path="url(#clip871)" x1="1684.79" y1="1417.69" x2="1652.79" y2="1417.69" style="stroke:#000000; stroke-width:12; stroke-opacity:1"/>
<line clip-path="url(#clip871)" x1="1684.79" y1="752.431" x2="1652.79" y2="752.431" style="stroke:#000000; stroke-width:12; stroke-opacity:1"/>
<line clip-path="url(#clip871)" x1="1892.05" y1="1425.08" x2="1860.05" y2="1425.08" style="stroke:#000000; stroke-width:12; stroke-opacity:1"/>
<line clip-path="url(#clip871)" x1="1892.05" y1="649.088" x2="1860.05" y2="649.088" style="stroke:#000000; stroke-width:12; stroke-opacity:1"/>
<line clip-path="url(#clip871)" x1="2099.31" y1="1438.58" x2="2067.31" y2="1438.58" style="stroke:#000000; stroke-width:12; stroke-opacity:1"/>
<line clip-path="url(#clip871)" x1="2099.31" y1="358.847" x2="2067.31" y2="358.847" style="stroke:#000000; stroke-width:12; stroke-opacity:1"/>
<line clip-path="url(#clip871)" x1="2306.58" y1="1440.67" x2="2274.58" y2="1440.67" style="stroke:#000000; stroke-width:12; stroke-opacity:1"/>
<line clip-path="url(#clip871)" x1="2306.58" y1="87.9763" x2="2274.58" y2="87.9763" style="stroke:#000000; stroke-width:12; stroke-opacity:1"/>
<polyline clip-path="url(#clip871)" style="stroke:#e26f46; stroke-linecap:round; stroke-linejoin:round; stroke-width:12; stroke-opacity:1; fill:none" points="217.944,1284.48 425.207,1309.81 632.47,1298.97 839.734,1297.01 1047,1248.32 1254.26,1312.07 1461.52,1310.75 1668.79,1295.16 1876.05,1270.97 2083.31,1273.67 2290.58,1238.07 "/>
<polyline clip-path="url(#clip871)" style="stroke:#000000; stroke-linecap:round; stroke-linejoin:round; stroke-width:12; stroke-opacity:1; fill:none" points="217.944,1284.48 217.944,1284.48 "/>
<polyline clip-path="url(#clip871)" style="stroke:#000000; stroke-linecap:round; stroke-linejoin:round; stroke-width:12; stroke-opacity:1; fill:none" points="425.207,1359.92 425.207,1172.59 "/>
<polyline clip-path="url(#clip871)" style="stroke:#000000; stroke-linecap:round; stroke-linejoin:round; stroke-width:12; stroke-opacity:1; fill:none" points="632.47,1386.47 632.47,1083.47 "/>
<polyline clip-path="url(#clip871)" style="stroke:#000000; stroke-linecap:round; stroke-linejoin:round; stroke-width:12; stroke-opacity:1; fill:none" points="839.734,1387.8 839.734,1014.94 "/>
<polyline clip-path="url(#clip871)" style="stroke:#000000; stroke-linecap:round; stroke-linejoin:round; stroke-width:12; stroke-opacity:1; fill:none" points="1047,1381.24 1047,954.829 "/>
<polyline clip-path="url(#clip871)" style="stroke:#000000; stroke-linecap:round; stroke-linejoin:round; stroke-width:12; stroke-opacity:1; fill:none" points="1254.26,1392.19 1254.26,881.337 "/>
<polyline clip-path="url(#clip871)" style="stroke:#000000; stroke-linecap:round; stroke-linejoin:round; stroke-width:12; stroke-opacity:1; fill:none" points="1461.52,1386.12 1461.52,611.91 "/>
<polyline clip-path="url(#clip871)" style="stroke:#000000; stroke-linecap:round; stroke-linejoin:round; stroke-width:12; stroke-opacity:1; fill:none" points="1668.79,1388.13 1668.79,500.97 "/>
<polyline clip-path="url(#clip871)" style="stroke:#000000; stroke-linecap:round; stroke-linejoin:round; stroke-width:12; stroke-opacity:1; fill:none" points="1876.05,1420.06 1876.05,456.633 "/>
<polyline clip-path="url(#clip871)" style="stroke:#000000; stroke-linecap:round; stroke-linejoin:round; stroke-width:12; stroke-opacity:1; fill:none" points="2083.31,1435.99 2083.31,485.606 "/>
<polyline clip-path="url(#clip871)" style="stroke:#000000; stroke-linecap:round; stroke-linejoin:round; stroke-width:12; stroke-opacity:1; fill:none" points="2290.58,1445.72 2290.58,693.192 "/>
<line clip-path="url(#clip871)" x1="233.944" y1="1284.48" x2="201.944" y2="1284.48" style="stroke:#000000; stroke-width:12; stroke-opacity:1"/>
<line clip-path="url(#clip871)" x1="233.944" y1="1284.48" x2="201.944" y2="1284.48" style="stroke:#000000; stroke-width:12; stroke-opacity:1"/>
<line clip-path="url(#clip871)" x1="441.207" y1="1359.92" x2="409.207" y2="1359.92" style="stroke:#000000; stroke-width:12; stroke-opacity:1"/>
<line clip-path="url(#clip871)" x1="441.207" y1="1172.59" x2="409.207" y2="1172.59" style="stroke:#000000; stroke-width:12; stroke-opacity:1"/>
<line clip-path="url(#clip871)" x1="648.47" y1="1386.47" x2="616.47" y2="1386.47" style="stroke:#000000; stroke-width:12; stroke-opacity:1"/>
<line clip-path="url(#clip871)" x1="648.47" y1="1083.47" x2="616.47" y2="1083.47" style="stroke:#000000; stroke-width:12; stroke-opacity:1"/>
<line clip-path="url(#clip871)" x1="855.734" y1="1387.8" x2="823.734" y2="1387.8" style="stroke:#000000; stroke-width:12; stroke-opacity:1"/>
<line clip-path="url(#clip871)" x1="855.734" y1="1014.94" x2="823.734" y2="1014.94" style="stroke:#000000; stroke-width:12; stroke-opacity:1"/>
<line clip-path="url(#clip871)" x1="1063" y1="1381.24" x2="1031" y2="1381.24" style="stroke:#000000; stroke-width:12; stroke-opacity:1"/>
<line clip-path="url(#clip871)" x1="1063" y1="954.829" x2="1031" y2="954.829" style="stroke:#000000; stroke-width:12; stroke-opacity:1"/>
<line clip-path="url(#clip871)" x1="1270.26" y1="1392.19" x2="1238.26" y2="1392.19" style="stroke:#000000; stroke-width:12; stroke-opacity:1"/>
<line clip-path="url(#clip871)" x1="1270.26" y1="881.337" x2="1238.26" y2="881.337" style="stroke:#000000; stroke-width:12; stroke-opacity:1"/>
<line clip-path="url(#clip871)" x1="1477.52" y1="1386.12" x2="1445.52" y2="1386.12" style="stroke:#000000; stroke-width:12; stroke-opacity:1"/>
<line clip-path="url(#clip871)" x1="1477.52" y1="611.91" x2="1445.52" y2="611.91" style="stroke:#000000; stroke-width:12; stroke-opacity:1"/>
<line clip-path="url(#clip871)" x1="1684.79" y1="1388.13" x2="1652.79" y2="1388.13" style="stroke:#000000; stroke-width:12; stroke-opacity:1"/>
<line clip-path="url(#clip871)" x1="1684.79" y1="500.97" x2="1652.79" y2="500.97" style="stroke:#000000; stroke-width:12; stroke-opacity:1"/>
<line clip-path="url(#clip871)" x1="1892.05" y1="1420.06" x2="1860.05" y2="1420.06" style="stroke:#000000; stroke-width:12; stroke-opacity:1"/>
<line clip-path="url(#clip871)" x1="1892.05" y1="456.633" x2="1860.05" y2="456.633" style="stroke:#000000; stroke-width:12; stroke-opacity:1"/>
<line clip-path="url(#clip871)" x1="2099.31" y1="1435.99" x2="2067.31" y2="1435.99" style="stroke:#000000; stroke-width:12; stroke-opacity:1"/>
<line clip-path="url(#clip871)" x1="2099.31" y1="485.606" x2="2067.31" y2="485.606" style="stroke:#000000; stroke-width:12; stroke-opacity:1"/>
<line clip-path="url(#clip871)" x1="2306.58" y1="1445.72" x2="2274.58" y2="1445.72" style="stroke:#000000; stroke-width:12; stroke-opacity:1"/>
<line clip-path="url(#clip871)" x1="2306.58" y1="693.192" x2="2274.58" y2="693.192" style="stroke:#000000; stroke-width:12; stroke-opacity:1"/>
</svg>
