<?xml version="1.0" encoding="utf-8"?>
<svg xmlns="http://www.w3.org/2000/svg" xmlns:xlink="http://www.w3.org/1999/xlink" width="600" height="400" viewBox="0 0 2400 1600">
<defs>
  <clipPath id="clip900">
    <rect x="0" y="0" width="2400" height="1600"/>
  </clipPath>
</defs>
<path clip-path="url(#clip900)" d="M0 1600 L2400 1600 L2400 0 L0 0  Z" fill="#ffffff" fill-rule="evenodd" fill-opacity="1"/>
<defs>
  <clipPath id="clip901">
    <rect x="156" y="47" width="2197" height="1440"/>
  </clipPath>
</defs>
<path clip-path="url(#clip900)" d="M156.274 1486.45 L2352.76 1486.45 L2352.76 47.2441 L156.274 47.2441  Z" fill="#ffffff" fill-rule="evenodd" fill-opacity="1"/>
<polyline clip-path="url(#clip901)" style="stroke:#000000; stroke-linecap:round; stroke-linejoin:round; stroke-width:2; stroke-opacity:0.1; fill:none" points="218.439,1486.45 218.439,47.2441 "/>
<polyline clip-path="url(#clip901)" style="stroke:#000000; stroke-linecap:round; stroke-linejoin:round; stroke-width:2; stroke-opacity:0.1; fill:none" points="736.477,1486.45 736.477,47.2441 "/>
<polyline clip-path="url(#clip901)" style="stroke:#000000; stroke-linecap:round; stroke-linejoin:round; stroke-width:2; stroke-opacity:0.1; fill:none" points="1254.52,1486.45 1254.52,47.2441 "/>
<polyline clip-path="url(#clip901)" style="stroke:#000000; stroke-linecap:round; stroke-linejoin:round; stroke-width:2; stroke-opacity:0.1; fill:none" points="1772.55,1486.45 1772.55,47.2441 "/>
<polyline clip-path="url(#clip901)" style="stroke:#000000; stroke-linecap:round; stroke-linejoin:round; stroke-width:2; stroke-opacity:0.1; fill:none" points="2290.59,1486.45 2290.59,47.2441 "/>
<polyline clip-path="url(#clip901)" style="stroke:#000000; stroke-linecap:round; stroke-linejoin:round; stroke-width:2; stroke-opacity:0.1; fill:none" points="156.274,1227.19 2352.76,1227.19 "/>
<polyline clip-path="url(#clip901)" style="stroke:#000000; stroke-linecap:round; stroke-linejoin:round; stroke-width:2; stroke-opacity:0.1; fill:none" points="156.274,966.103 2352.76,966.103 "/>
<polyline clip-path="url(#clip901)" style="stroke:#000000; stroke-linecap:round; stroke-linejoin:round; stroke-width:2; stroke-opacity:0.1; fill:none" points="156.274,705.019 2352.76,705.019 "/>
<polyline clip-path="url(#clip901)" style="stroke:#000000; stroke-linecap:round; stroke-linejoin:round; stroke-width:2; stroke-opacity:0.1; fill:none" points="156.274,443.936 2352.76,443.936 "/>
<polyline clip-path="url(#clip901)" style="stroke:#000000; stroke-linecap:round; stroke-linejoin:round; stroke-width:2; stroke-opacity:0.1; fill:none" points="156.274,182.852 2352.76,182.852 "/>
<polyline clip-path="url(#clip900)" style="stroke:#000000; stroke-linecap:round; stroke-linejoin:round; stroke-width:4; stroke-opacity:1; fill:none" points="156.274,1486.45 2352.76,1486.45 "/>
<polyline clip-path="url(#clip900)" style="stroke:#000000; stroke-linecap:round; stroke-linejoin:round; stroke-width:4; stroke-opacity:1; fill:none" points="218.439,1486.45 218.439,1467.55 "/>
<polyline clip-path="url(#clip900)" style="stroke:#000000; stroke-linecap:round; stroke-linejoin:round; stroke-width:4; stroke-opacity:1; fill:none" points="736.477,1486.45 736.477,1467.55 "/>
<polyline clip-path="url(#clip900)" style="stroke:#000000; stroke-linecap:round; stroke-linejoin:round; stroke-width:4; stroke-opacity:1; fill:none" points="1254.52,1486.45 1254.52,1467.55 "/>
<polyline clip-path="url(#clip900)" style="stroke:#000000; stroke-linecap:round; stroke-linejoin:round; stroke-width:4; stroke-opacity:1; fill:none" points="1772.55,1486.45 1772.55,1467.55 "/>
<polyline clip-path="url(#clip900)" style="stroke:#000000; stroke-linecap:round; stroke-linejoin:round; stroke-width:4; stroke-opacity:1; fill:none" points="2290.59,1486.45 2290.59,1467.55 "/>
<path clip-path="url(#clip900)" d="M180.742 1517.37 Q177.131 1517.37 175.302 1520.93 Q173.497 1524.47 173.497 1531.6 Q173.497 1538.71 175.302 1542.27 Q177.131 1545.82 180.742 1545.82 Q184.376 1545.82 186.182 1542.27 Q188.011 1538.71 188.011 1531.6 Q188.011 1524.47 186.182 1520.93 Q184.376 1517.37 180.742 1517.37 M180.742 1513.66 Q186.552 1513.66 189.608 1518.27 Q192.687 1522.85 192.687 1531.6 Q192.687 1540.33 189.608 1544.94 Q186.552 1549.52 180.742 1549.52 Q174.932 1549.52 171.853 1544.94 Q168.798 1540.33 168.798 1531.6 Q168.798 1522.85 171.853 1518.27 Q174.932 1513.66 180.742 1513.66 Z" fill="#000000" fill-rule="nonzero" fill-opacity="1" /><path clip-path="url(#clip900)" d="M200.904 1542.97 L205.788 1542.97 L205.788 1548.85 L200.904 1548.85 L200.904 1542.97 Z" fill="#000000" fill-rule="nonzero" fill-opacity="1" /><path clip-path="url(#clip900)" d="M225.973 1517.37 Q222.362 1517.37 220.534 1520.93 Q218.728 1524.47 218.728 1531.6 Q218.728 1538.71 220.534 1542.27 Q222.362 1545.82 225.973 1545.82 Q229.608 1545.82 231.413 1542.27 Q233.242 1538.71 233.242 1531.6 Q233.242 1524.47 231.413 1520.93 Q229.608 1517.37 225.973 1517.37 M225.973 1513.66 Q231.784 1513.66 234.839 1518.27 Q237.918 1522.85 237.918 1531.6 Q237.918 1540.33 234.839 1544.94 Q231.784 1549.52 225.973 1549.52 Q220.163 1549.52 217.085 1544.94 Q214.029 1540.33 214.029 1531.6 Q214.029 1522.85 217.085 1518.27 Q220.163 1513.66 225.973 1513.66 Z" fill="#000000" fill-rule="nonzero" fill-opacity="1" /><path clip-path="url(#clip900)" d="M256.135 1517.37 Q252.524 1517.37 250.696 1520.93 Q248.89 1524.47 248.89 1531.6 Q248.89 1538.71 250.696 1542.27 Q252.524 1545.82 256.135 1545.82 Q259.77 1545.82 261.575 1542.27 Q263.404 1538.71 263.404 1531.6 Q263.404 1524.47 261.575 1520.93 Q259.77 1517.37 256.135 1517.37 M256.135 1513.66 Q261.945 1513.66 265.001 1518.27 Q268.08 1522.85 268.08 1531.6 Q268.08 1540.33 265.001 1544.94 Q261.945 1549.52 256.135 1549.52 Q250.325 1549.52 247.246 1544.94 Q244.191 1540.33 244.191 1531.6 Q244.191 1522.85 247.246 1518.27 Q250.325 1513.66 256.135 1513.66 Z" fill="#000000" fill-rule="nonzero" fill-opacity="1" /><path clip-path="url(#clip900)" d="M699.278 1517.37 Q695.667 1517.37 693.838 1520.93 Q692.033 1524.47 692.033 1531.6 Q692.033 1538.71 693.838 1542.27 Q695.667 1545.82 699.278 1545.82 Q702.912 1545.82 704.718 1542.27 Q706.546 1538.71 706.546 1531.6 Q706.546 1524.47 704.718 1520.93 Q702.912 1517.37 699.278 1517.37 M699.278 1513.66 Q705.088 1513.66 708.144 1518.27 Q711.222 1522.85 711.222 1531.6 Q711.222 1540.33 708.144 1544.94 Q705.088 1549.52 699.278 1549.52 Q693.468 1549.52 690.389 1544.94 Q687.334 1540.33 687.334 1531.6 Q687.334 1522.85 690.389 1518.27 Q693.468 1513.66 699.278 1513.66 Z" fill="#000000" fill-rule="nonzero" fill-opacity="1" /><path clip-path="url(#clip900)" d="M719.44 1542.97 L724.324 1542.97 L724.324 1548.85 L719.44 1548.85 L719.44 1542.97 Z" fill="#000000" fill-rule="nonzero" fill-opacity="1" /><path clip-path="url(#clip900)" d="M738.537 1544.91 L754.856 1544.91 L754.856 1548.85 L732.912 1548.85 L732.912 1544.91 Q735.574 1542.16 740.157 1537.53 Q744.764 1532.88 745.944 1531.53 Q748.19 1529.01 749.069 1527.27 Q749.972 1525.51 749.972 1523.82 Q749.972 1521.07 748.028 1519.33 Q746.106 1517.6 743.005 1517.6 Q740.806 1517.6 738.352 1518.36 Q735.921 1519.13 733.144 1520.68 L733.144 1515.95 Q735.968 1514.82 738.421 1514.24 Q740.875 1513.66 742.912 1513.66 Q748.282 1513.66 751.477 1516.35 Q754.671 1519.03 754.671 1523.52 Q754.671 1525.65 753.861 1527.57 Q753.074 1529.47 750.968 1532.07 Q750.389 1532.74 747.287 1535.95 Q744.185 1539.15 738.537 1544.91 Z" fill="#000000" fill-rule="nonzero" fill-opacity="1" /><path clip-path="url(#clip900)" d="M764.717 1514.29 L783.074 1514.29 L783.074 1518.22 L769 1518.22 L769 1526.7 Q770.018 1526.35 771.037 1526.19 Q772.055 1526 773.074 1526 Q778.861 1526 782.241 1529.17 Q785.62 1532.34 785.62 1537.76 Q785.62 1543.34 782.148 1546.44 Q778.676 1549.52 772.356 1549.52 Q770.18 1549.52 767.912 1549.15 Q765.667 1548.78 763.259 1548.04 L763.259 1543.34 Q765.342 1544.47 767.565 1545.03 Q769.787 1545.58 772.264 1545.58 Q776.268 1545.58 778.606 1543.48 Q780.944 1541.37 780.944 1537.76 Q780.944 1534.15 778.606 1532.04 Q776.268 1529.94 772.264 1529.94 Q770.389 1529.94 768.514 1530.35 Q766.662 1530.77 764.717 1531.65 L764.717 1514.29 Z" fill="#000000" fill-rule="nonzero" fill-opacity="1" /><path clip-path="url(#clip900)" d="M1216.82 1517.37 Q1213.21 1517.37 1211.38 1520.93 Q1209.57 1524.47 1209.57 1531.6 Q1209.57 1538.71 1211.38 1542.27 Q1213.21 1545.82 1216.82 1545.82 Q1220.45 1545.82 1222.26 1542.27 Q1224.09 1538.71 1224.09 1531.6 Q1224.09 1524.47 1222.26 1520.93 Q1220.45 1517.37 1216.82 1517.37 M1216.82 1513.66 Q1222.63 1513.66 1225.68 1518.27 Q1228.76 1522.85 1228.76 1531.6 Q1228.76 1540.33 1225.68 1544.94 Q1222.63 1549.52 1216.82 1549.52 Q1211.01 1549.52 1207.93 1544.94 Q1204.87 1540.33 1204.87 1531.6 Q1204.87 1522.85 1207.93 1518.27 Q1211.01 1513.66 1216.82 1513.66 Z" fill="#000000" fill-rule="nonzero" fill-opacity="1" /><path clip-path="url(#clip900)" d="M1236.98 1542.97 L1241.86 1542.97 L1241.86 1548.85 L1236.98 1548.85 L1236.98 1542.97 Z" fill="#000000" fill-rule="nonzero" fill-opacity="1" /><path clip-path="url(#clip900)" d="M1252.1 1514.29 L1270.45 1514.29 L1270.45 1518.22 L1256.38 1518.22 L1256.38 1526.7 Q1257.4 1526.35 1258.42 1526.19 Q1259.43 1526 1260.45 1526 Q1266.24 1526 1269.62 1529.17 Q1273 1532.34 1273 1537.76 Q1273 1543.34 1269.53 1546.44 Q1266.05 1549.52 1259.73 1549.52 Q1257.56 1549.52 1255.29 1549.15 Q1253.05 1548.78 1250.64 1548.04 L1250.64 1543.34 Q1252.72 1544.47 1254.94 1545.03 Q1257.17 1545.58 1259.64 1545.58 Q1263.65 1545.58 1265.98 1543.48 Q1268.32 1541.37 1268.32 1537.76 Q1268.32 1534.15 1265.98 1532.04 Q1263.65 1529.94 1259.64 1529.94 Q1257.77 1529.94 1255.89 1530.35 Q1254.04 1530.77 1252.1 1531.65 L1252.1 1514.29 Z" fill="#000000" fill-rule="nonzero" fill-opacity="1" /><path clip-path="url(#clip900)" d="M1292.21 1517.37 Q1288.6 1517.37 1286.77 1520.93 Q1284.97 1524.47 1284.97 1531.6 Q1284.97 1538.71 1286.77 1542.27 Q1288.6 1545.82 1292.21 1545.82 Q1295.85 1545.82 1297.65 1542.27 Q1299.48 1538.71 1299.48 1531.6 Q1299.48 1524.47 1297.65 1520.93 Q1295.85 1517.37 1292.21 1517.37 M1292.21 1513.66 Q1298.02 1513.66 1301.08 1518.27 Q1304.16 1522.85 1304.16 1531.6 Q1304.16 1540.33 1301.08 1544.94 Q1298.02 1549.52 1292.21 1549.52 Q1286.4 1549.52 1283.32 1544.94 Q1280.27 1540.33 1280.27 1531.6 Q1280.27 1522.85 1283.32 1518.27 Q1286.4 1513.66 1292.21 1513.66 Z" fill="#000000" fill-rule="nonzero" fill-opacity="1" /><path clip-path="url(#clip900)" d="M1735.35 1517.37 Q1731.74 1517.37 1729.91 1520.93 Q1728.11 1524.47 1728.11 1531.6 Q1728.11 1538.71 1729.91 1542.27 Q1731.74 1545.82 1735.35 1545.82 Q1738.99 1545.82 1740.79 1542.27 Q1742.62 1538.71 1742.62 1531.6 Q1742.62 1524.47 1740.79 1520.93 Q1738.99 1517.37 1735.35 1517.37 M1735.35 1513.66 Q1741.16 1513.66 1744.22 1518.27 Q1747.3 1522.85 1747.3 1531.6 Q1747.3 1540.33 1744.22 1544.94 Q1741.16 1549.52 1735.35 1549.52 Q1729.54 1549.52 1726.47 1544.94 Q1723.41 1540.33 1723.41 1531.6 Q1723.41 1522.85 1726.47 1518.27 Q1729.54 1513.66 1735.35 1513.66 Z" fill="#000000" fill-rule="nonzero" fill-opacity="1" /><path clip-path="url(#clip900)" d="M1755.52 1542.97 L1760.4 1542.97 L1760.4 1548.85 L1755.52 1548.85 L1755.52 1542.97 Z" fill="#000000" fill-rule="nonzero" fill-opacity="1" /><path clip-path="url(#clip900)" d="M1769.41 1514.29 L1791.63 1514.29 L1791.63 1516.28 L1779.08 1548.85 L1774.2 1548.85 L1786 1518.22 L1769.41 1518.22 L1769.41 1514.29 Z" fill="#000000" fill-rule="nonzero" fill-opacity="1" /><path clip-path="url(#clip900)" d="M1800.79 1514.29 L1819.15 1514.29 L1819.15 1518.22 L1805.08 1518.22 L1805.08 1526.7 Q1806.09 1526.35 1807.11 1526.19 Q1808.13 1526 1809.15 1526 Q1814.94 1526 1818.32 1529.17 Q1821.7 1532.34 1821.7 1537.76 Q1821.7 1543.34 1818.22 1546.44 Q1814.75 1549.52 1808.43 1549.52 Q1806.26 1549.52 1803.99 1549.15 Q1801.74 1548.78 1799.34 1548.04 L1799.34 1543.34 Q1801.42 1544.47 1803.64 1545.03 Q1805.86 1545.58 1808.34 1545.58 Q1812.34 1545.58 1814.68 1543.48 Q1817.02 1541.37 1817.02 1537.76 Q1817.02 1534.15 1814.68 1532.04 Q1812.34 1529.94 1808.34 1529.94 Q1806.47 1529.94 1804.59 1530.35 Q1802.74 1530.77 1800.79 1531.65 L1800.79 1514.29 Z" fill="#000000" fill-rule="nonzero" fill-opacity="1" /><path clip-path="url(#clip900)" d="M2242.66 1544.91 L2250.3 1544.91 L2250.3 1518.55 L2241.99 1520.21 L2241.99 1515.95 L2250.26 1514.29 L2254.93 1514.29 L2254.93 1544.91 L2262.57 1544.91 L2262.57 1548.85 L2242.66 1548.85 L2242.66 1544.91 Z" fill="#000000" fill-rule="nonzero" fill-opacity="1" /><path clip-path="url(#clip900)" d="M2272.02 1542.97 L2276.9 1542.97 L2276.9 1548.85 L2272.02 1548.85 L2272.02 1542.97 Z" fill="#000000" fill-rule="nonzero" fill-opacity="1" /><path clip-path="url(#clip900)" d="M2297.08 1517.37 Q2293.47 1517.37 2291.64 1520.93 Q2289.84 1524.47 2289.84 1531.6 Q2289.84 1538.71 2291.64 1542.27 Q2293.47 1545.82 2297.08 1545.82 Q2300.72 1545.82 2302.52 1542.27 Q2304.35 1538.71 2304.35 1531.6 Q2304.35 1524.47 2302.52 1520.93 Q2300.72 1517.37 2297.08 1517.37 M2297.08 1513.66 Q2302.89 1513.66 2305.95 1518.27 Q2309.03 1522.85 2309.03 1531.6 Q2309.03 1540.33 2305.95 1544.94 Q2302.89 1549.52 2297.08 1549.52 Q2291.27 1549.52 2288.2 1544.94 Q2285.14 1540.33 2285.14 1531.6 Q2285.14 1522.85 2288.2 1518.27 Q2291.27 1513.66 2297.08 1513.66 Z" fill="#000000" fill-rule="nonzero" fill-opacity="1" /><path clip-path="url(#clip900)" d="M2327.25 1517.37 Q2323.64 1517.37 2321.81 1520.93 Q2320 1524.47 2320 1531.6 Q2320 1538.71 2321.81 1542.27 Q2323.64 1545.82 2327.25 1545.82 Q2330.88 1545.82 2332.69 1542.27 Q2334.51 1538.71 2334.51 1531.6 Q2334.51 1524.47 2332.69 1520.93 Q2330.88 1517.37 2327.25 1517.37 M2327.25 1513.66 Q2333.06 1513.66 2336.11 1518.27 Q2339.19 1522.85 2339.19 1531.6 Q2339.19 1540.33 2336.11 1544.94 Q2333.06 1549.52 2327.25 1549.52 Q2321.44 1549.52 2318.36 1544.94 Q2315.3 1540.33 2315.3 1531.6 Q2315.3 1522.85 2318.36 1518.27 Q2321.44 1513.66 2327.25 1513.66 Z" fill="#000000" fill-rule="nonzero" fill-opacity="1" /><polyline clip-path="url(#clip900)" style="stroke:#000000; stroke-linecap:round; stroke-linejoin:round; stroke-width:4; stroke-opacity:1; fill:none" points="156.274,1486.45 156.274,47.2441 "/>
<polyline clip-path="url(#clip900)" style="stroke:#000000; stroke-linecap:round; stroke-linejoin:round; stroke-width:4; stroke-opacity:1; fill:none" points="156.274,1227.19 175.172,1227.19 "/>
<polyline clip-path="url(#clip900)" style="stroke:#000000; stroke-linecap:round; stroke-linejoin:round; stroke-width:4; stroke-opacity:1; fill:none" points="156.274,966.103 175.172,966.103 "/>
<polyline clip-path="url(#clip900)" style="stroke:#000000; stroke-linecap:round; stroke-linejoin:round; stroke-width:4; stroke-opacity:1; fill:none" points="156.274,705.019 175.172,705.019 "/>
<polyline clip-path="url(#clip900)" style="stroke:#000000; stroke-linecap:round; stroke-linejoin:round; stroke-width:4; stroke-opacity:1; fill:none" points="156.274,443.936 175.172,443.936 "/>
<polyline clip-path="url(#clip900)" style="stroke:#000000; stroke-linecap:round; stroke-linejoin:round; stroke-width:4; stroke-opacity:1; fill:none" points="156.274,182.852 175.172,182.852 "/>
<path clip-path="url(#clip900)" d="M62.9365 1212.98 Q59.3254 1212.98 57.4967 1216.55 Q55.6912 1220.09 55.6912 1227.22 Q55.6912 1234.33 57.4967 1237.89 Q59.3254 1241.43 62.9365 1241.43 Q66.5707 1241.43 68.3763 1237.89 Q70.205 1234.33 70.205 1227.22 Q70.205 1220.09 68.3763 1216.55 Q66.5707 1212.98 62.9365 1212.98 M62.9365 1209.28 Q68.7467 1209.28 71.8022 1213.89 Q74.8809 1218.47 74.8809 1227.22 Q74.8809 1235.95 71.8022 1240.55 Q68.7467 1245.14 62.9365 1245.14 Q57.1264 1245.14 54.0477 1240.55 Q50.9921 1235.95 50.9921 1227.22 Q50.9921 1218.47 54.0477 1213.89 Q57.1264 1209.28 62.9365 1209.28 Z" fill="#000000" fill-rule="nonzero" fill-opacity="1" /><path clip-path="url(#clip900)" d="M83.0984 1238.59 L87.9827 1238.59 L87.9827 1244.47 L83.0984 1244.47 L83.0984 1238.59 Z" fill="#000000" fill-rule="nonzero" fill-opacity="1" /><path clip-path="url(#clip900)" d="M108.746 1225.32 Q105.598 1225.32 103.746 1227.48 Q101.918 1229.63 101.918 1233.38 Q101.918 1237.1 103.746 1239.28 Q105.598 1241.43 108.746 1241.43 Q111.895 1241.43 113.723 1239.28 Q115.575 1237.1 115.575 1233.38 Q115.575 1229.63 113.723 1227.48 Q111.895 1225.32 108.746 1225.32 M118.029 1210.67 L118.029 1214.93 Q116.27 1214.1 114.464 1213.66 Q112.682 1213.22 110.922 1213.22 Q106.293 1213.22 103.839 1216.34 Q101.409 1219.47 101.061 1225.79 Q102.427 1223.77 104.487 1222.71 Q106.547 1221.62 109.024 1221.62 Q114.233 1221.62 117.242 1224.79 Q120.274 1227.94 120.274 1233.38 Q120.274 1238.7 117.126 1241.92 Q113.978 1245.14 108.746 1245.14 Q102.751 1245.14 99.5798 1240.55 Q96.4085 1235.95 96.4085 1227.22 Q96.4085 1219.03 100.297 1214.17 Q104.186 1209.28 110.737 1209.28 Q112.496 1209.28 114.279 1209.63 Q116.084 1209.98 118.029 1210.67 Z" fill="#000000" fill-rule="nonzero" fill-opacity="1" /><path clip-path="url(#clip900)" d="M63.1911 951.901 Q59.58 951.901 57.7513 955.466 Q55.9458 959.008 55.9458 966.137 Q55.9458 973.244 57.7513 976.809 Q59.58 980.35 63.1911 980.35 Q66.8254 980.35 68.6309 976.809 Q70.4596 973.244 70.4596 966.137 Q70.4596 959.008 68.6309 955.466 Q66.8254 951.901 63.1911 951.901 M63.1911 948.198 Q69.0013 948.198 72.0568 952.804 Q75.1355 957.387 75.1355 966.137 Q75.1355 974.864 72.0568 979.471 Q69.0013 984.054 63.1911 984.054 Q57.381 984.054 54.3023 979.471 Q51.2468 974.864 51.2468 966.137 Q51.2468 957.387 54.3023 952.804 Q57.381 948.198 63.1911 948.198 Z" fill="#000000" fill-rule="nonzero" fill-opacity="1" /><path clip-path="url(#clip900)" d="M83.3531 977.503 L88.2373 977.503 L88.2373 983.383 L83.3531 983.383 L83.3531 977.503 Z" fill="#000000" fill-rule="nonzero" fill-opacity="1" /><path clip-path="url(#clip900)" d="M108.422 966.971 Q105.089 966.971 103.168 968.753 Q101.27 970.535 101.27 973.66 Q101.27 976.785 103.168 978.568 Q105.089 980.35 108.422 980.35 Q111.756 980.35 113.677 978.568 Q115.598 976.762 115.598 973.66 Q115.598 970.535 113.677 968.753 Q111.779 966.971 108.422 966.971 M103.746 964.98 Q100.737 964.239 99.0474 962.179 Q97.3808 960.119 97.3808 957.156 Q97.3808 953.012 100.321 950.605 Q103.284 948.198 108.422 948.198 Q113.584 948.198 116.524 950.605 Q119.464 953.012 119.464 957.156 Q119.464 960.119 117.774 962.179 Q116.108 964.239 113.121 964.98 Q116.501 965.767 118.376 968.059 Q120.274 970.35 120.274 973.66 Q120.274 978.684 117.195 981.369 Q114.14 984.054 108.422 984.054 Q102.705 984.054 99.6261 981.369 Q96.5706 978.684 96.5706 973.66 Q96.5706 970.35 98.4687 968.059 Q100.367 965.767 103.746 964.98 M102.034 957.596 Q102.034 960.281 103.7 961.785 Q105.39 963.29 108.422 963.29 Q111.432 963.29 113.121 961.785 Q114.834 960.281 114.834 957.596 Q114.834 954.911 113.121 953.406 Q111.432 951.901 108.422 951.901 Q105.39 951.901 103.7 953.406 Q102.034 954.911 102.034 957.596 Z" fill="#000000" fill-rule="nonzero" fill-opacity="1" /><path clip-path="url(#clip900)" d="M53.9088 718.364 L61.5476 718.364 L61.5476 691.998 L53.2375 693.665 L53.2375 689.406 L61.5013 687.739 L66.1772 687.739 L66.1772 718.364 L73.8161 718.364 L73.8161 722.299 L53.9088 722.299 L53.9088 718.364 Z" fill="#000000" fill-rule="nonzero" fill-opacity="1" /><path clip-path="url(#clip900)" d="M83.2605 716.42 L88.1447 716.42 L88.1447 722.299 L83.2605 722.299 L83.2605 716.42 Z" fill="#000000" fill-rule="nonzero" fill-opacity="1" /><path clip-path="url(#clip900)" d="M108.33 690.818 Q104.719 690.818 102.89 694.383 Q101.084 697.924 101.084 705.054 Q101.084 712.16 102.89 715.725 Q104.719 719.267 108.33 719.267 Q111.964 719.267 113.77 715.725 Q115.598 712.16 115.598 705.054 Q115.598 697.924 113.77 694.383 Q111.964 690.818 108.33 690.818 M108.33 687.114 Q114.14 687.114 117.195 691.721 Q120.274 696.304 120.274 705.054 Q120.274 713.781 117.195 718.387 Q114.14 722.97 108.33 722.97 Q102.52 722.97 99.4409 718.387 Q96.3854 713.781 96.3854 705.054 Q96.3854 696.304 99.4409 691.721 Q102.52 687.114 108.33 687.114 Z" fill="#000000" fill-rule="nonzero" fill-opacity="1" /><path clip-path="url(#clip900)" d="M55.506 457.281 L63.1448 457.281 L63.1448 430.915 L54.8347 432.582 L54.8347 428.322 L63.0985 426.656 L67.7744 426.656 L67.7744 457.281 L75.4133 457.281 L75.4133 461.216 L55.506 461.216 L55.506 457.281 Z" fill="#000000" fill-rule="nonzero" fill-opacity="1" /><path clip-path="url(#clip900)" d="M84.8577 455.336 L89.7419 455.336 L89.7419 461.216 L84.8577 461.216 L84.8577 455.336 Z" fill="#000000" fill-rule="nonzero" fill-opacity="1" /><path clip-path="url(#clip900)" d="M103.955 457.281 L120.274 457.281 L120.274 461.216 L98.3298 461.216 L98.3298 457.281 Q100.992 454.526 105.575 449.896 Q110.182 445.244 111.362 443.901 Q113.608 441.378 114.487 439.642 Q115.39 437.883 115.39 436.193 Q115.39 433.438 113.445 431.702 Q111.524 429.966 108.422 429.966 Q106.223 429.966 103.77 430.73 Q101.339 431.494 98.5613 433.045 L98.5613 428.322 Q101.385 427.188 103.839 426.609 Q106.293 426.031 108.33 426.031 Q113.7 426.031 116.895 428.716 Q120.089 431.401 120.089 435.892 Q120.089 438.021 119.279 439.943 Q118.492 441.841 116.385 444.433 Q115.807 445.105 112.705 448.322 Q109.603 451.517 103.955 457.281 Z" fill="#000000" fill-rule="nonzero" fill-opacity="1" /><path clip-path="url(#clip900)" d="M53.4227 196.197 L61.0615 196.197 L61.0615 169.832 L52.7514 171.498 L52.7514 167.239 L61.0152 165.572 L65.6911 165.572 L65.6911 196.197 L73.33 196.197 L73.33 200.132 L53.4227 200.132 L53.4227 196.197 Z" fill="#000000" fill-rule="nonzero" fill-opacity="1" /><path clip-path="url(#clip900)" d="M82.7744 194.253 L87.6586 194.253 L87.6586 200.132 L82.7744 200.132 L82.7744 194.253 Z" fill="#000000" fill-rule="nonzero" fill-opacity="1" /><path clip-path="url(#clip900)" d="M110.691 169.646 L98.8854 188.095 L110.691 188.095 L110.691 169.646 M109.464 165.572 L115.344 165.572 L115.344 188.095 L120.274 188.095 L120.274 191.984 L115.344 191.984 L115.344 200.132 L110.691 200.132 L110.691 191.984 L95.0891 191.984 L95.0891 187.47 L109.464 165.572 Z" fill="#000000" fill-rule="nonzero" fill-opacity="1" /><polyline clip-path="url(#clip901)" style="stroke:#009af9; stroke-linecap:round; stroke-linejoin:round; stroke-width:12; stroke-opacity:1; fill:none" points="218.439,1357.73 425.654,1400.12 632.869,1294.72 840.085,1202.82 1047.3,1143.12 1254.52,1111.07 1461.73,880.496 1668.95,681.779 1876.16,461.933 2083.38,364.236 2290.59,553.523 "/>
<polyline clip-path="url(#clip901)" style="stroke:#e26f46; stroke-linecap:round; stroke-linejoin:round; stroke-width:12; stroke-opacity:1; fill:none" points="218.439,1357.73 425.654,1329.95 632.869,1318.39 840.085,1336.22 1047.3,1221.27 1254.52,1078.54 1461.73,1155.47 1668.95,1139.37 1876.16,958 2083.38,679.455 2290.59,703.755 "/>
<polyline clip-path="url(#clip901)" style="stroke:#3da44d; stroke-linecap:round; stroke-linejoin:round; stroke-width:12; stroke-opacity:1; fill:none" points="218.439,1357.73 425.654,1283.97 632.869,1195.03 840.085,1211.09 1047.3,1167.67 1254.52,1069.33 1461.73,918.814 1668.95,975.114 1876.16,972.941 2083.38,716.794 2290.59,87.9763 "/>
<polyline clip-path="url(#clip901)" style="stroke:#c271d2; stroke-linecap:round; stroke-linejoin:round; stroke-width:12; stroke-opacity:1; fill:none" points="218.439,1357.73 425.654,1261.59 632.869,1262.61 840.085,1286.69 1047.3,1372.67 1254.52,1445.72 1461.73,1368.97 1668.95,1243.65 1876.16,1269.56 2083.38,1246.82 2290.59,1213.83 "/>
<polyline clip-path="url(#clip901)" style="stroke:#ac8d18; stroke-linecap:round; stroke-linejoin:round; stroke-width:12; stroke-opacity:1; fill:none" points="218.439,1357.73 425.654,1419.14 632.869,1392.85 840.085,1388.11 1047.3,1270.04 1254.52,1424.63 1461.73,1421.42 1668.95,1383.63 1876.16,1324.97 2083.38,1331.51 2290.59,1245.19 "/>
<polyline clip-path="url(#clip901)" style="stroke:#00a9ad; stroke-linecap:round; stroke-linejoin:round; stroke-width:12; stroke-opacity:1; fill:none" points="218.439,1357.73 425.654,1367.31 632.869,1289.72 840.085,1358.13 1047.3,1376.83 1254.52,1330.71 1461.73,1251.66 1668.95,1240.76 1876.16,1377.4 2083.38,1372.64 2290.59,1155.89 "/>
<polyline clip-path="url(#clip901)" style="stroke:#ed5d92; stroke-linecap:round; stroke-linejoin:round; stroke-width:12; stroke-opacity:1; fill:none" points="218.439,1357.73 425.654,1250.09 632.869,1259.86 840.085,1126.24 1047.3,1085.28 1254.52,1081.2 1461.73,943.03 1668.95,864.759 1876.16,807.855 2083.38,831.228 2290.59,854.67 "/>
<polyline clip-path="url(#clip901)" style="stroke:#c68125; stroke-linecap:round; stroke-linejoin:round; stroke-width:12; stroke-opacity:1; fill:none" points="218.439,1357.73 425.654,1275.57 632.869,1233.91 840.085,1191.42 1047.3,1225.18 1254.52,1183.96 1461.73,1172.9 1668.95,1195.72 1876.16,1176.16 2083.38,1019.16 2290.59,1069.55 "/>
</svg>
