<?xml version="1.0" encoding="utf-8"?>
<svg xmlns="http://www.w3.org/2000/svg" xmlns:xlink="http://www.w3.org/1999/xlink" width="600" height="400" viewBox="0 0 2400 1600">
<defs>
  <clipPath id="clip810">
    <rect x="0" y="0" width="2400" height="1600"/>
  </clipPath>
</defs>
<path clip-path="url(#clip810)" d="M0 1600 L2400 1600 L2400 0 L0 0  Z" fill="#ffffff" fill-rule="evenodd" fill-opacity="1"/>
<defs>
  <clipPath id="clip811">
    <rect x="184" y="47" width="2170" height="1440"/>
  </clipPath>
</defs>
<path clip-path="url(#clip810)" d="M184.191 1486.45 L2352.76 1486.45 L2352.76 47.2441 L184.191 47.2441  Z" fill="#ffffff" fill-rule="evenodd" fill-opacity="1"/>
<polyline clip-path="url(#clip811)" style="stroke:#000000; stroke-linecap:round; stroke-linejoin:round; stroke-width:2; stroke-opacity:0.1; fill:none" points="245.565,1486.45 245.565,47.2441 "/>
<polyline clip-path="url(#clip811)" style="stroke:#000000; stroke-linecap:round; stroke-linejoin:round; stroke-width:2; stroke-opacity:0.1; fill:none" points="757.019,1486.45 757.019,47.2441 "/>
<polyline clip-path="url(#clip811)" style="stroke:#000000; stroke-linecap:round; stroke-linejoin:round; stroke-width:2; stroke-opacity:0.1; fill:none" points="1268.47,1486.45 1268.47,47.2441 "/>
<polyline clip-path="url(#clip811)" style="stroke:#000000; stroke-linecap:round; stroke-linejoin:round; stroke-width:2; stroke-opacity:0.1; fill:none" points="1779.93,1486.45 1779.93,47.2441 "/>
<polyline clip-path="url(#clip811)" style="stroke:#000000; stroke-linecap:round; stroke-linejoin:round; stroke-width:2; stroke-opacity:0.1; fill:none" points="2291.38,1486.45 2291.38,47.2441 "/>
<polyline clip-path="url(#clip811)" style="stroke:#000000; stroke-linecap:round; stroke-linejoin:round; stroke-width:2; stroke-opacity:0.1; fill:none" points="184.191,1449.64 2352.76,1449.64 "/>
<polyline clip-path="url(#clip811)" style="stroke:#000000; stroke-linecap:round; stroke-linejoin:round; stroke-width:2; stroke-opacity:0.1; fill:none" points="184.191,1127.9 2352.76,1127.9 "/>
<polyline clip-path="url(#clip811)" style="stroke:#000000; stroke-linecap:round; stroke-linejoin:round; stroke-width:2; stroke-opacity:0.1; fill:none" points="184.191,806.156 2352.76,806.156 "/>
<polyline clip-path="url(#clip811)" style="stroke:#000000; stroke-linecap:round; stroke-linejoin:round; stroke-width:2; stroke-opacity:0.1; fill:none" points="184.191,484.416 2352.76,484.416 "/>
<polyline clip-path="url(#clip811)" style="stroke:#000000; stroke-linecap:round; stroke-linejoin:round; stroke-width:2; stroke-opacity:0.1; fill:none" points="184.191,162.675 2352.76,162.675 "/>
<polyline clip-path="url(#clip810)" style="stroke:#000000; stroke-linecap:round; stroke-linejoin:round; stroke-width:4; stroke-opacity:1; fill:none" points="184.191,1486.45 2352.76,1486.45 "/>
<polyline clip-path="url(#clip810)" style="stroke:#000000; stroke-linecap:round; stroke-linejoin:round; stroke-width:4; stroke-opacity:1; fill:none" points="245.565,1486.45 245.565,1467.55 "/>
<polyline clip-path="url(#clip810)" style="stroke:#000000; stroke-linecap:round; stroke-linejoin:round; stroke-width:4; stroke-opacity:1; fill:none" points="757.019,1486.45 757.019,1467.55 "/>
<polyline clip-path="url(#clip810)" style="stroke:#000000; stroke-linecap:round; stroke-linejoin:round; stroke-width:4; stroke-opacity:1; fill:none" points="1268.47,1486.45 1268.47,1467.55 "/>
<polyline clip-path="url(#clip810)" style="stroke:#000000; stroke-linecap:round; stroke-linejoin:round; stroke-width:4; stroke-opacity:1; fill:none" points="1779.93,1486.45 1779.93,1467.55 "/>
<polyline clip-path="url(#clip810)" style="stroke:#000000; stroke-linecap:round; stroke-linejoin:round; stroke-width:4; stroke-opacity:1; fill:none" points="2291.38,1486.45 2291.38,1467.55 "/>
<path clip-path="url(#clip810)" d="M222.95 1517.37 Q219.338 1517.37 217.51 1520.93 Q215.704 1524.47 215.704 1531.6 Q215.704 1538.71 217.51 1542.27 Q219.338 1545.82 222.95 1545.82 Q226.584 1545.82 228.389 1542.27 Q230.218 1538.71 230.218 1531.6 Q230.218 1524.47 228.389 1520.93 Q226.584 1517.37 222.95 1517.37 M222.95 1513.66 Q228.76 1513.66 231.815 1518.27 Q234.894 1522.85 234.894 1531.6 Q234.894 1540.33 231.815 1544.94 Q228.76 1549.52 222.95 1549.52 Q217.139 1549.52 214.061 1544.94 Q211.005 1540.33 211.005 1531.6 Q211.005 1522.85 214.061 1518.27 Q217.139 1513.66 222.95 1513.66 Z" fill="#000000" fill-rule="nonzero" fill-opacity="1" /><path clip-path="url(#clip810)" d="M243.111 1542.97 L247.996 1542.97 L247.996 1548.85 L243.111 1548.85 L243.111 1542.97 Z" fill="#000000" fill-rule="nonzero" fill-opacity="1" /><path clip-path="url(#clip810)" d="M268.181 1517.37 Q264.57 1517.37 262.741 1520.93 Q260.935 1524.47 260.935 1531.6 Q260.935 1538.71 262.741 1542.27 Q264.57 1545.82 268.181 1545.82 Q271.815 1545.82 273.621 1542.27 Q275.449 1538.71 275.449 1531.6 Q275.449 1524.47 273.621 1520.93 Q271.815 1517.37 268.181 1517.37 M268.181 1513.66 Q273.991 1513.66 277.046 1518.27 Q280.125 1522.85 280.125 1531.6 Q280.125 1540.33 277.046 1544.94 Q273.991 1549.52 268.181 1549.52 Q262.371 1549.52 259.292 1544.94 Q256.236 1540.33 256.236 1531.6 Q256.236 1522.85 259.292 1518.27 Q262.371 1513.66 268.181 1513.66 Z" fill="#000000" fill-rule="nonzero" fill-opacity="1" /><path clip-path="url(#clip810)" d="M728.755 1544.91 L745.075 1544.91 L745.075 1548.85 L723.131 1548.85 L723.131 1544.91 Q725.793 1542.16 730.376 1537.53 Q734.982 1532.88 736.163 1531.53 Q738.408 1529.01 739.288 1527.27 Q740.191 1525.51 740.191 1523.82 Q740.191 1521.07 738.246 1519.33 Q736.325 1517.6 733.223 1517.6 Q731.024 1517.6 728.57 1518.36 Q726.14 1519.13 723.362 1520.68 L723.362 1515.95 Q726.186 1514.82 728.64 1514.24 Q731.093 1513.66 733.13 1513.66 Q738.501 1513.66 741.695 1516.35 Q744.89 1519.03 744.89 1523.52 Q744.89 1525.65 744.079 1527.57 Q743.292 1529.47 741.186 1532.07 Q740.607 1532.74 737.505 1535.95 Q734.404 1539.15 728.755 1544.91 Z" fill="#000000" fill-rule="nonzero" fill-opacity="1" /><path clip-path="url(#clip810)" d="M754.89 1542.97 L759.774 1542.97 L759.774 1548.85 L754.89 1548.85 L754.89 1542.97 Z" fill="#000000" fill-rule="nonzero" fill-opacity="1" /><path clip-path="url(#clip810)" d="M770.005 1514.29 L788.362 1514.29 L788.362 1518.22 L774.288 1518.22 L774.288 1526.7 Q775.306 1526.35 776.325 1526.19 Q777.343 1526 778.362 1526 Q784.149 1526 787.528 1529.17 Q790.908 1532.34 790.908 1537.76 Q790.908 1543.34 787.436 1546.44 Q783.964 1549.52 777.644 1549.52 Q775.468 1549.52 773.2 1549.15 Q770.954 1548.78 768.547 1548.04 L768.547 1543.34 Q770.63 1544.47 772.852 1545.03 Q775.075 1545.58 777.552 1545.58 Q781.556 1545.58 783.894 1543.48 Q786.232 1541.37 786.232 1537.76 Q786.232 1534.15 783.894 1532.04 Q781.556 1529.94 777.552 1529.94 Q775.677 1529.94 773.802 1530.35 Q771.95 1530.77 770.005 1531.65 L770.005 1514.29 Z" fill="#000000" fill-rule="nonzero" fill-opacity="1" /><path clip-path="url(#clip810)" d="M1235.64 1514.29 L1253.99 1514.29 L1253.99 1518.22 L1239.92 1518.22 L1239.92 1526.7 Q1240.94 1526.35 1241.96 1526.19 Q1242.98 1526 1243.99 1526 Q1249.78 1526 1253.16 1529.17 Q1256.54 1532.34 1256.54 1537.76 Q1256.54 1543.34 1253.07 1546.44 Q1249.6 1549.52 1243.28 1549.52 Q1241.1 1549.52 1238.83 1549.15 Q1236.59 1548.78 1234.18 1548.04 L1234.18 1543.34 Q1236.26 1544.47 1238.49 1545.03 Q1240.71 1545.58 1243.18 1545.58 Q1247.19 1545.58 1249.53 1543.48 Q1251.86 1541.37 1251.86 1537.76 Q1251.86 1534.15 1249.53 1532.04 Q1247.19 1529.94 1243.18 1529.94 Q1241.31 1529.94 1239.43 1530.35 Q1237.58 1530.77 1235.64 1531.65 L1235.64 1514.29 Z" fill="#000000" fill-rule="nonzero" fill-opacity="1" /><path clip-path="url(#clip810)" d="M1265.75 1542.97 L1270.64 1542.97 L1270.64 1548.85 L1265.75 1548.85 L1265.75 1542.97 Z" fill="#000000" fill-rule="nonzero" fill-opacity="1" /><path clip-path="url(#clip810)" d="M1290.82 1517.37 Q1287.21 1517.37 1285.38 1520.93 Q1283.58 1524.47 1283.58 1531.6 Q1283.58 1538.71 1285.38 1542.27 Q1287.21 1545.82 1290.82 1545.82 Q1294.46 1545.82 1296.26 1542.27 Q1298.09 1538.71 1298.09 1531.6 Q1298.09 1524.47 1296.26 1520.93 Q1294.46 1517.37 1290.82 1517.37 M1290.82 1513.66 Q1296.63 1513.66 1299.69 1518.27 Q1302.77 1522.85 1302.77 1531.6 Q1302.77 1540.33 1299.69 1544.94 Q1296.63 1549.52 1290.82 1549.52 Q1285.01 1549.52 1281.93 1544.94 Q1278.88 1540.33 1278.88 1531.6 Q1278.88 1522.85 1281.93 1518.27 Q1285.01 1513.66 1290.82 1513.66 Z" fill="#000000" fill-rule="nonzero" fill-opacity="1" /><path clip-path="url(#clip810)" d="M1746.25 1514.29 L1768.47 1514.29 L1768.47 1516.28 L1755.92 1548.85 L1751.04 1548.85 L1762.84 1518.22 L1746.25 1518.22 L1746.25 1514.29 Z" fill="#000000" fill-rule="nonzero" fill-opacity="1" /><path clip-path="url(#clip810)" d="M1777.59 1542.97 L1782.47 1542.97 L1782.47 1548.85 L1777.59 1548.85 L1777.59 1542.97 Z" fill="#000000" fill-rule="nonzero" fill-opacity="1" /><path clip-path="url(#clip810)" d="M1792.71 1514.29 L1811.06 1514.29 L1811.06 1518.22 L1796.99 1518.22 L1796.99 1526.7 Q1798.01 1526.35 1799.02 1526.19 Q1800.04 1526 1801.06 1526 Q1806.85 1526 1810.23 1529.17 Q1813.61 1532.34 1813.61 1537.76 Q1813.61 1543.34 1810.14 1546.44 Q1806.66 1549.52 1800.34 1549.52 Q1798.17 1549.52 1795.9 1549.15 Q1793.65 1548.78 1791.25 1548.04 L1791.25 1543.34 Q1793.33 1544.47 1795.55 1545.03 Q1797.77 1545.58 1800.25 1545.58 Q1804.26 1545.58 1806.59 1543.48 Q1808.93 1541.37 1808.93 1537.76 Q1808.93 1534.15 1806.59 1532.04 Q1804.26 1529.94 1800.25 1529.94 Q1798.38 1529.94 1796.5 1530.35 Q1794.65 1530.77 1792.71 1531.65 L1792.71 1514.29 Z" fill="#000000" fill-rule="nonzero" fill-opacity="1" /><path clip-path="url(#clip810)" d="M2243.45 1544.91 L2251.09 1544.91 L2251.09 1518.55 L2242.78 1520.21 L2242.78 1515.95 L2251.05 1514.29 L2255.72 1514.29 L2255.72 1544.91 L2263.36 1544.91 L2263.36 1548.85 L2243.45 1548.85 L2243.45 1544.91 Z" fill="#000000" fill-rule="nonzero" fill-opacity="1" /><path clip-path="url(#clip810)" d="M2282.81 1517.37 Q2279.19 1517.37 2277.37 1520.93 Q2275.56 1524.47 2275.56 1531.6 Q2275.56 1538.71 2277.37 1542.27 Q2279.19 1545.82 2282.81 1545.82 Q2286.44 1545.82 2288.24 1542.27 Q2290.07 1538.71 2290.07 1531.6 Q2290.07 1524.47 2288.24 1520.93 Q2286.44 1517.37 2282.81 1517.37 M2282.81 1513.66 Q2288.62 1513.66 2291.67 1518.27 Q2294.75 1522.85 2294.75 1531.6 Q2294.75 1540.33 2291.67 1544.94 Q2288.62 1549.52 2282.81 1549.52 Q2276.99 1549.52 2273.92 1544.94 Q2270.86 1540.33 2270.86 1531.6 Q2270.86 1522.85 2273.92 1518.27 Q2276.99 1513.66 2282.81 1513.66 Z" fill="#000000" fill-rule="nonzero" fill-opacity="1" /><path clip-path="url(#clip810)" d="M2302.97 1542.97 L2307.85 1542.97 L2307.85 1548.85 L2302.97 1548.85 L2302.97 1542.97 Z" fill="#000000" fill-rule="nonzero" fill-opacity="1" /><path clip-path="url(#clip810)" d="M2328.04 1517.37 Q2324.43 1517.37 2322.6 1520.93 Q2320.79 1524.47 2320.79 1531.6 Q2320.79 1538.71 2322.6 1542.27 Q2324.43 1545.82 2328.04 1545.82 Q2331.67 1545.82 2333.48 1542.27 Q2335.3 1538.71 2335.3 1531.6 Q2335.3 1524.47 2333.48 1520.93 Q2331.67 1517.37 2328.04 1517.37 M2328.04 1513.66 Q2333.85 1513.66 2336.9 1518.27 Q2339.98 1522.85 2339.98 1531.6 Q2339.98 1540.33 2336.9 1544.94 Q2333.85 1549.52 2328.04 1549.52 Q2322.23 1549.52 2319.15 1544.94 Q2316.09 1540.33 2316.09 1531.6 Q2316.09 1522.85 2319.15 1518.27 Q2322.23 1513.66 2328.04 1513.66 Z" fill="#000000" fill-rule="nonzero" fill-opacity="1" /><polyline clip-path="url(#clip810)" style="stroke:#000000; stroke-linecap:round; stroke-linejoin:round; stroke-width:4; stroke-opacity:1; fill:none" points="184.191,1486.45 184.191,47.2441 "/>
<polyline clip-path="url(#clip810)" style="stroke:#000000; stroke-linecap:round; stroke-linejoin:round; stroke-width:4; stroke-opacity:1; fill:none" points="184.191,1449.64 203.088,1449.64 "/>
<polyline clip-path="url(#clip810)" style="stroke:#000000; stroke-linecap:round; stroke-linejoin:round; stroke-width:4; stroke-opacity:1; fill:none" points="184.191,1127.9 203.088,1127.9 "/>
<polyline clip-path="url(#clip810)" style="stroke:#000000; stroke-linecap:round; stroke-linejoin:round; stroke-width:4; stroke-opacity:1; fill:none" points="184.191,806.156 203.088,806.156 "/>
<polyline clip-path="url(#clip810)" style="stroke:#000000; stroke-linecap:round; stroke-linejoin:round; stroke-width:4; stroke-opacity:1; fill:none" points="184.191,484.416 203.088,484.416 "/>
<polyline clip-path="url(#clip810)" style="stroke:#000000; stroke-linecap:round; stroke-linejoin:round; stroke-width:4; stroke-opacity:1; fill:none" points="184.191,162.675 203.088,162.675 "/>
<path clip-path="url(#clip810)" d="M91.0151 1435.44 Q87.404 1435.44 85.5753 1439 Q83.7697 1442.54 83.7697 1449.67 Q83.7697 1456.78 85.5753 1460.34 Q87.404 1463.88 91.0151 1463.88 Q94.6493 1463.88 96.4548 1460.34 Q98.2835 1456.78 98.2835 1449.67 Q98.2835 1442.54 96.4548 1439 Q94.6493 1435.44 91.0151 1435.44 M91.0151 1431.73 Q96.8252 1431.73 99.8808 1436.34 Q102.959 1440.92 102.959 1449.67 Q102.959 1458.4 99.8808 1463.01 Q96.8252 1467.59 91.0151 1467.59 Q85.2049 1467.59 82.1262 1463.01 Q79.0707 1458.4 79.0707 1449.67 Q79.0707 1440.92 82.1262 1436.34 Q85.2049 1431.73 91.0151 1431.73 Z" fill="#000000" fill-rule="nonzero" fill-opacity="1" /><path clip-path="url(#clip810)" d="M111.177 1461.04 L116.061 1461.04 L116.061 1466.92 L111.177 1466.92 L111.177 1461.04 Z" fill="#000000" fill-rule="nonzero" fill-opacity="1" /><path clip-path="url(#clip810)" d="M136.246 1435.44 Q132.635 1435.44 130.807 1439 Q129.001 1442.54 129.001 1449.67 Q129.001 1456.78 130.807 1460.34 Q132.635 1463.88 136.246 1463.88 Q139.881 1463.88 141.686 1460.34 Q143.515 1456.78 143.515 1449.67 Q143.515 1442.54 141.686 1439 Q139.881 1435.44 136.246 1435.44 M136.246 1431.73 Q142.056 1431.73 145.112 1436.34 Q148.191 1440.92 148.191 1449.67 Q148.191 1458.4 145.112 1463.01 Q142.056 1467.59 136.246 1467.59 Q130.436 1467.59 127.357 1463.01 Q124.302 1458.4 124.302 1449.67 Q124.302 1440.92 127.357 1436.34 Q130.436 1431.73 136.246 1431.73 Z" fill="#000000" fill-rule="nonzero" fill-opacity="1" /><path clip-path="url(#clip810)" d="M86.0382 1141.24 L102.358 1141.24 L102.358 1145.18 L80.4133 1145.18 L80.4133 1141.24 Q83.0753 1138.49 87.6586 1133.86 Q92.2651 1129.2 93.4456 1127.86 Q95.691 1125.34 96.5706 1123.6 Q97.4734 1121.84 97.4734 1120.15 Q97.4734 1117.4 95.5289 1115.66 Q93.6076 1113.93 90.5058 1113.93 Q88.3067 1113.93 85.8531 1114.69 Q83.4225 1115.45 80.6447 1117.01 L80.6447 1112.28 Q83.4688 1111.15 85.9225 1110.57 Q88.3762 1109.99 90.4132 1109.99 Q95.7836 1109.99 98.978 1112.68 Q102.172 1115.36 102.172 1119.85 Q102.172 1121.98 101.362 1123.9 Q100.575 1125.8 98.4687 1128.39 Q97.89 1129.07 94.7882 1132.28 Q91.6864 1135.48 86.0382 1141.24 Z" fill="#000000" fill-rule="nonzero" fill-opacity="1" /><path clip-path="url(#clip810)" d="M112.172 1139.3 L117.057 1139.3 L117.057 1145.18 L112.172 1145.18 L112.172 1139.3 Z" fill="#000000" fill-rule="nonzero" fill-opacity="1" /><path clip-path="url(#clip810)" d="M127.288 1110.62 L145.644 1110.62 L145.644 1114.55 L131.57 1114.55 L131.57 1123.02 Q132.589 1122.68 133.607 1122.51 Q134.626 1122.33 135.644 1122.33 Q141.431 1122.33 144.811 1125.5 Q148.191 1128.67 148.191 1134.09 Q148.191 1139.67 144.718 1142.77 Q141.246 1145.85 134.927 1145.85 Q132.751 1145.85 130.482 1145.48 Q128.237 1145.11 125.83 1144.37 L125.83 1139.67 Q127.913 1140.8 130.135 1141.36 Q132.357 1141.91 134.834 1141.91 Q138.839 1141.91 141.177 1139.81 Q143.515 1137.7 143.515 1134.09 Q143.515 1130.48 141.177 1128.37 Q138.839 1126.26 134.834 1126.26 Q132.959 1126.26 131.084 1126.68 Q129.232 1127.1 127.288 1127.98 L127.288 1110.62 Z" fill="#000000" fill-rule="nonzero" fill-opacity="1" /><path clip-path="url(#clip810)" d="M81.0614 788.876 L99.4178 788.876 L99.4178 792.811 L85.3438 792.811 L85.3438 801.283 Q86.3623 800.936 87.3808 800.774 Q88.3993 800.589 89.4178 800.589 Q95.2049 800.589 98.5845 803.76 Q101.964 806.932 101.964 812.348 Q101.964 817.927 98.4919 821.029 Q95.0197 824.107 88.7003 824.107 Q86.5243 824.107 84.2558 823.737 Q82.0105 823.367 79.6031 822.626 L79.6031 817.927 Q81.6864 819.061 83.9086 819.617 Q86.1308 820.172 88.6077 820.172 Q92.6123 820.172 94.9502 818.066 Q97.2882 815.959 97.2882 812.348 Q97.2882 808.737 94.9502 806.631 Q92.6123 804.524 88.6077 804.524 Q86.7327 804.524 84.8577 804.941 Q83.0058 805.358 81.0614 806.237 L81.0614 788.876 Z" fill="#000000" fill-rule="nonzero" fill-opacity="1" /><path clip-path="url(#clip810)" d="M111.177 817.557 L116.061 817.557 L116.061 823.436 L111.177 823.436 L111.177 817.557 Z" fill="#000000" fill-rule="nonzero" fill-opacity="1" /><path clip-path="url(#clip810)" d="M136.246 791.955 Q132.635 791.955 130.807 795.52 Q129.001 799.061 129.001 806.191 Q129.001 813.297 130.807 816.862 Q132.635 820.404 136.246 820.404 Q139.881 820.404 141.686 816.862 Q143.515 813.297 143.515 806.191 Q143.515 799.061 141.686 795.52 Q139.881 791.955 136.246 791.955 M136.246 788.251 Q142.056 788.251 145.112 792.858 Q148.191 797.441 148.191 806.191 Q148.191 814.918 145.112 819.524 Q142.056 824.107 136.246 824.107 Q130.436 824.107 127.357 819.524 Q124.302 814.918 124.302 806.191 Q124.302 797.441 127.357 792.858 Q130.436 788.251 136.246 788.251 Z" fill="#000000" fill-rule="nonzero" fill-opacity="1" /><path clip-path="url(#clip810)" d="M80.8299 467.136 L103.052 467.136 L103.052 469.126 L90.5058 501.696 L85.6216 501.696 L97.4271 471.071 L80.8299 471.071 L80.8299 467.136 Z" fill="#000000" fill-rule="nonzero" fill-opacity="1" /><path clip-path="url(#clip810)" d="M112.172 495.816 L117.057 495.816 L117.057 501.696 L112.172 501.696 L112.172 495.816 Z" fill="#000000" fill-rule="nonzero" fill-opacity="1" /><path clip-path="url(#clip810)" d="M127.288 467.136 L145.644 467.136 L145.644 471.071 L131.57 471.071 L131.57 479.543 Q132.589 479.196 133.607 479.034 Q134.626 478.849 135.644 478.849 Q141.431 478.849 144.811 482.02 Q148.191 485.191 148.191 490.608 Q148.191 496.186 144.718 499.288 Q141.246 502.367 134.927 502.367 Q132.751 502.367 130.482 501.997 Q128.237 501.626 125.83 500.885 L125.83 496.186 Q127.913 497.321 130.135 497.876 Q132.357 498.432 134.834 498.432 Q138.839 498.432 141.177 496.325 Q143.515 494.219 143.515 490.608 Q143.515 486.997 141.177 484.89 Q138.839 482.784 134.834 482.784 Q132.959 482.784 131.084 483.2 Q129.232 483.617 127.288 484.497 L127.288 467.136 Z" fill="#000000" fill-rule="nonzero" fill-opacity="1" /><path clip-path="url(#clip810)" d="M51.6634 176.02 L59.3023 176.02 L59.3023 149.654 L50.9921 151.321 L50.9921 147.062 L59.256 145.395 L63.9319 145.395 L63.9319 176.02 L71.5707 176.02 L71.5707 179.955 L51.6634 179.955 L51.6634 176.02 Z" fill="#000000" fill-rule="nonzero" fill-opacity="1" /><path clip-path="url(#clip810)" d="M91.0151 148.474 Q87.404 148.474 85.5753 152.039 Q83.7697 155.58 83.7697 162.71 Q83.7697 169.816 85.5753 173.381 Q87.404 176.923 91.0151 176.923 Q94.6493 176.923 96.4548 173.381 Q98.2835 169.816 98.2835 162.71 Q98.2835 155.58 96.4548 152.039 Q94.6493 148.474 91.0151 148.474 M91.0151 144.77 Q96.8252 144.77 99.8808 149.377 Q102.959 153.96 102.959 162.71 Q102.959 171.437 99.8808 176.043 Q96.8252 180.626 91.0151 180.626 Q85.2049 180.626 82.1262 176.043 Q79.0707 171.437 79.0707 162.71 Q79.0707 153.96 82.1262 149.377 Q85.2049 144.77 91.0151 144.77 Z" fill="#000000" fill-rule="nonzero" fill-opacity="1" /><path clip-path="url(#clip810)" d="M111.177 174.076 L116.061 174.076 L116.061 179.955 L111.177 179.955 L111.177 174.076 Z" fill="#000000" fill-rule="nonzero" fill-opacity="1" /><path clip-path="url(#clip810)" d="M136.246 148.474 Q132.635 148.474 130.807 152.039 Q129.001 155.58 129.001 162.71 Q129.001 169.816 130.807 173.381 Q132.635 176.923 136.246 176.923 Q139.881 176.923 141.686 173.381 Q143.515 169.816 143.515 162.71 Q143.515 155.58 141.686 152.039 Q139.881 148.474 136.246 148.474 M136.246 144.77 Q142.056 144.77 145.112 149.377 Q148.191 153.96 148.191 162.71 Q148.191 171.437 145.112 176.043 Q142.056 180.626 136.246 180.626 Q130.436 180.626 127.357 176.043 Q124.302 171.437 124.302 162.71 Q124.302 153.96 127.357 149.377 Q130.436 144.77 136.246 144.77 Z" fill="#000000" fill-rule="nonzero" fill-opacity="1" /><path clip-path="url(#clip811)" d="M245.565 1320.94 L266.023 1320.84 L286.481 1306.65 L306.94 1295.89 L327.398 1296.69 L347.856 1287.96 L368.314 1276.06 L388.772 1273.59 L409.23 1269.04 L429.689 1261.23 L450.147 1246.14 L470.605 1210.22 L491.063 1197.9 L511.521 1175.71 L531.979 1149.96 L552.438 1109.65 L572.896 1052.4 L593.354 1045.84 L613.812 1020.24 L634.27 965.276 L654.728 895.174 L675.187 938.921 L695.645 1061.52 L716.103 1206.92 L736.561 1300.63 L757.019 1342.16 L777.477 1368.92 L797.936 1377.81 L818.394 1384.13 L838.852 1386.43 L859.31 1384.91 L879.768 1387.44 L900.226 1391.39 L920.685 1390.52 L941.143 1400.51 L961.601 1401.58 L982.059 1399.94 L1002.52 1396.14 L1022.98 1393.92 L1043.43 1388.44 L1063.89 1380.83 L1084.35 1372.03 L1104.81 1359.76 L1125.27 1348.53 L1145.72 1329.27 L1166.18 1317.86 L1186.64 1296.47 L1207.1 1280.51 L1227.56 1264.28 L1248.02 1241.14 L1268.47 1244.35 L1288.93 1229.65 L1309.39 1188.46 L1329.85 1160.36 L1350.31 1134.65 L1370.76 1068.24 L1391.22 1018 L1411.68 1047.99 L1432.14 1136.91 L1452.6 1257.77 L1473.05 1315.1 L1493.51 1343.73 L1513.97 1365.17 L1534.43 1378.79 L1554.89 1382.66 L1575.35 1383.79 L1595.8 1384.51 L1616.26 1383.36 L1636.72 1376.61 L1657.18 1377.49 L1677.64 1390.15 L1698.09 1397.91 L1718.55 1397.87 L1739.01 1397.47 L1759.47 1392.45 L1779.93 1390.7 L1800.39 1388.24 L1820.84 1389.5 L1841.3 1380.52 L1861.76 1381.44 L1882.22 1381.42 L1902.68 1375.23 L1923.13 1367.82 L1943.59 1362.71 L1964.05 1343.5 L1984.51 1314.04 L2004.97 1288.11 L2025.43 1271.54 L2045.88 1225.15 L2066.34 1189.44 L2086.8 1185.08 L2107.26 1213.62 L2127.72 1234.08 L2148.17 1245.49 L2168.63 1264.36 L2189.09 1289.63 L2209.55 1303.17 L2230.01 1312.2 L2250.47 1314.38 L2270.92 1335.62 L2291.38 1351.96 L2291.38 122.89 L2270.92 211.031 L2250.47 388.787 L2230.01 448.921 L2209.55 517.86 L2189.09 653.164 L2168.63 545.09 L2148.17 449.658 L2127.72 487.85 L2107.26 517.872 L2086.8 600.313 L2066.34 636.654 L2045.88 639.613 L2025.43 658.76 L2004.97 676.543 L1984.51 669.6 L1964.05 684.758 L1943.59 721.751 L1923.13 765.02 L1902.68 765.759 L1882.22 801.382 L1861.76 844.859 L1841.3 891.224 L1820.84 937.223 L1800.39 992.409 L1779.93 1036.5 L1759.47 1081.02 L1739.01 1125.8 L1718.55 1161.52 L1698.09 1149.44 L1677.64 965.141 L1657.18 658.319 L1636.72 334.651 L1616.26 87.9763 L1595.8 139.338 L1575.35 375.575 L1554.89 393.648 L1534.43 325.53 L1513.97 402.133 L1493.51 433.621 L1473.05 554.948 L1452.6 606.495 L1432.14 673.965 L1411.68 653.061 L1391.22 384.676 L1370.76 246.873 L1350.31 265.27 L1329.85 313.614 L1309.39 374.122 L1288.93 538.353 L1268.47 670.425 L1248.02 776.373 L1227.56 836.485 L1207.1 891.018 L1186.64 946.684 L1166.18 996.311 L1145.72 1035.52 L1125.27 1074.84 L1104.81 1124.15 L1084.35 1151.11 L1063.89 1168.47 L1043.43 1200.08 L1022.98 1221.47 L1002.52 1235.49 L982.059 1255.36 L961.601 1269.98 L941.143 1279.11 L920.685 1280.6 L900.226 1265.42 L879.768 1229.76 L859.31 1031.14 L838.852 721.414 L818.394 351.191 L797.936 162.182 L777.477 179.133 L757.019 395.013 L736.561 481.604 L716.103 599.864 L695.645 558.1 L675.187 492.618 L654.728 423.551 L634.27 346.743 L613.812 372.264 L593.354 441.695 L572.896 467.092 L552.438 636.149 L531.979 751.733 L511.521 821.309 L491.063 935.219 L470.605 1022.12 L450.147 1070.35 L429.689 1115.22 L409.23 1141.68 L388.772 1181.44 L368.314 1226.1 L347.856 1244.51 L327.398 1259.66 L306.94 1274.68 L286.481 1283.94 L266.023 1293.94 L245.565 1320.94  Z" fill="#009af9" fill-rule="evenodd" fill-opacity="0.5"/>
<polyline clip-path="url(#clip811)" style="stroke:#009af9; stroke-linecap:round; stroke-linejoin:round; stroke-width:12; stroke-opacity:1; fill:none" points="245.565,1320.94 266.023,1312.59 286.481,1301.42 306.94,1292.28 327.398,1275.61 347.856,1260.17 368.314,1242.82 388.772,1213.65 409.23,1197.82 429.689,1151.99 450.147,1111.53 470.605,1061.47 491.063,1006.56 511.521,954.405 531.979,914.106 552.438,850.971 572.896,753.093 593.354,710.638 613.812,637.374 634.27,598.767 654.728,599.02 675.187,619.827 695.645,724.812 716.103,825.622 736.561,915.455 757.019,1058.33 777.477,1183.55 797.936,1262.55 818.394,1289.51 838.852,1302.19 859.31,1311.03 879.768,1325.58 900.226,1345.45 920.685,1342.93 941.143,1335.3 961.601,1330.93 982.059,1318.71 1002.52,1301.03 1022.98,1301.27 1043.43,1286.68 1063.89,1278.33 1084.35,1275.8 1104.81,1252.73 1125.27,1242.95 1145.72,1209.65 1166.18,1176.04 1186.64,1123.53 1207.1,1106.81 1227.56,1079.83 1248.02,1071.1 1268.47,1034.02 1288.93,990.294 1309.39,937.63 1329.85,904.688 1350.31,893.183 1370.76,888.392 1391.22,850.666 1411.68,853.145 1432.14,914.83 1452.6,877.36 1473.05,822.99 1493.51,820.383 1513.97,811.383 1534.43,855.991 1554.89,820.233 1575.35,905.307 1595.8,1018.77 1616.26,1165.7 1636.72,1201.18 1657.18,1238.39 1677.64,1240.56 1698.09,1241.14 1718.55,1280.09 1739.01,1295.77 1759.47,1311.44 1779.93,1320.36 1800.39,1319.38 1820.84,1297.88 1841.3,1285.13 1861.76,1262.98 1882.22,1237.01 1902.68,1217.22 1923.13,1152.44 1943.59,1104.55 1964.05,1085.77 1984.51,1032.8 2004.97,1030.64 2025.43,1015.15 2045.88,1023.86 2066.34,965.903 2086.8,935.355 2107.26,908.049 2127.72,954.452 2148.17,990.658 2168.63,965.439 2189.09,977.961 2209.55,1019.05 2230.01,1148.18 2250.47,1178.56 2270.92,1172.46 2291.38,1164.15 "/>
<path clip-path="url(#clip811)" d="M245.565 1320.94 L266.023 1345.45 L286.481 1363.62 L306.94 1380.75 L327.398 1394.25 L347.856 1404.06 L368.314 1412.22 L388.772 1417.91 L409.23 1423.96 L429.689 1426.86 L450.147 1430.82 L470.605 1432.18 L491.063 1434.18 L511.521 1436.32 L531.979 1436.5 L552.438 1436.74 L572.896 1436.66 L593.354 1436.45 L613.812 1437.17 L634.27 1435.72 L654.728 1434.17 L675.187 1430.22 L695.645 1424.64 L716.103 1414.96 L736.561 1398.92 L757.019 1366.33 L777.477 1307.11 L797.936 1192.5 L818.394 1200.11 L838.852 1251.9 L859.31 1298.46 L879.768 1335.79 L900.226 1362.45 L920.685 1382.76 L941.143 1398.62 L961.601 1411.13 L982.059 1417.21 L1002.52 1421.08 L1022.98 1426.69 L1043.43 1430.31 L1063.89 1434.06 L1084.35 1437.48 L1104.81 1439.54 L1125.27 1440.58 L1145.72 1441.57 L1166.18 1442.26 L1186.64 1443.21 L1207.1 1443.45 L1227.56 1443.45 L1248.02 1443.51 L1268.47 1444.32 L1288.93 1444.87 L1309.39 1445.32 L1329.85 1445.72 L1350.31 1445.55 L1370.76 1445.65 L1391.22 1445.16 L1411.68 1444.14 L1432.14 1443.41 L1452.6 1442.13 L1473.05 1439.41 L1493.51 1434.91 L1513.97 1426.65 L1534.43 1418.07 L1554.89 1403.07 L1575.35 1383.72 L1595.8 1346.79 L1616.26 1337.12 L1636.72 1353.72 L1657.18 1370.18 L1677.64 1384.56 L1698.09 1396.99 L1718.55 1407.55 L1739.01 1414.31 L1759.47 1420.54 L1779.93 1425.28 L1800.39 1428.6 L1820.84 1431.15 L1841.3 1432.87 L1861.76 1433.87 L1882.22 1434.3 L1902.68 1433.99 L1923.13 1432.78 L1943.59 1434.47 L1964.05 1437.51 L1984.51 1439.57 L2004.97 1440.99 L2025.43 1442.14 L2045.88 1442.94 L2066.34 1443.3 L2086.8 1443.28 L2107.26 1443.11 L2127.72 1442.51 L2148.17 1441.68 L2168.63 1440.54 L2189.09 1438.24 L2209.55 1434.67 L2230.01 1427.92 L2250.47 1417.11 L2270.92 1396.92 L2291.38 1375.37 L2291.38 943.154 L2270.92 926.108 L2250.47 813.943 L2230.01 774.814 L2209.55 779.484 L2189.09 852.281 L2168.63 926.315 L2148.17 944.639 L2127.72 941.643 L2107.26 948.175 L2086.8 990.147 L2066.34 1025.16 L2045.88 1030.41 L2025.43 1040.14 L2004.97 1074.8 L1984.51 1124.46 L1964.05 1157.31 L1943.59 1198.31 L1923.13 1240.04 L1902.68 1270.87 L1882.22 1274.55 L1861.76 1275.83 L1841.3 1259.22 L1820.84 1188.77 L1800.39 1127.8 L1779.93 1054.38 L1759.47 953.792 L1739.01 840.029 L1718.55 717.917 L1698.09 592.721 L1677.64 549.966 L1657.18 660.295 L1636.72 610.55 L1616.26 585.144 L1595.8 668.277 L1575.35 877.999 L1554.89 1021.67 L1534.43 1078.68 L1513.97 975.707 L1493.51 851.139 L1473.05 709.775 L1452.6 572.869 L1432.14 499.312 L1411.68 602.464 L1391.22 868.843 L1370.76 1024.45 L1350.31 1104.88 L1329.85 1194.56 L1309.39 1262.58 L1288.93 1324.68 L1268.47 1343.99 L1248.02 1359.51 L1227.56 1373.77 L1207.1 1381.15 L1186.64 1386.53 L1166.18 1386.85 L1145.72 1386.04 L1125.27 1378.38 L1104.81 1370.35 L1084.35 1361.46 L1063.89 1348.72 L1043.43 1331.78 L1022.98 1297.57 L1002.52 1253.02 L982.059 1200 L961.601 1134.6 L941.143 1031 L920.685 895.231 L900.226 695.391 L879.768 521.775 L859.31 427.477 L838.852 603.678 L818.394 792.749 L797.936 753.312 L777.477 778.467 L757.019 717.962 L736.561 729.599 L716.103 684.693 L695.645 643.333 L675.187 664.754 L654.728 850.836 L634.27 1044.86 L613.812 1209.64 L593.354 1305.11 L572.896 1361.92 L552.438 1390.97 L531.979 1404.79 L511.521 1412.73 L491.063 1416.26 L470.605 1417.57 L450.147 1416.29 L429.689 1414.29 L409.23 1408.75 L388.772 1405.2 L368.314 1400.88 L347.856 1393.8 L327.398 1380.23 L306.94 1367.26 L286.481 1350.98 L266.023 1337.14 L245.565 1320.94  Z" fill="#e26f46" fill-rule="evenodd" fill-opacity="0.5"/>
<polyline clip-path="url(#clip811)" style="stroke:#e26f46; stroke-linecap:round; stroke-linejoin:round; stroke-width:12; stroke-opacity:1; fill:none" points="245.565,1320.94 266.023,1342.65 286.481,1360.57 306.94,1373.13 327.398,1386.19 347.856,1396.82 368.314,1405.12 388.772,1411.01 409.23,1415.71 429.689,1419.2 450.147,1420.86 470.605,1420.55 491.063,1419.95 511.521,1415.93 531.979,1415.61 552.438,1410.57 572.896,1400.51 593.354,1387.11 613.812,1357.06 634.27,1321.03 654.728,1270.49 675.187,1195.25 695.645,1095.69 716.103,956.138 736.561,895.275 757.019,907.776 777.477,929.389 797.936,1033.11 818.394,984.589 838.852,1031.01 859.31,1096.36 879.768,1150.18 900.226,1212.09 920.685,1263.39 941.143,1299.62 961.601,1318.93 982.059,1352.51 1002.52,1367.47 1022.98,1382.19 1043.43,1388.18 1063.89,1399.32 1084.35,1404.42 1104.81,1407.45 1125.27,1414.6 1145.72,1418.07 1166.18,1418.23 1186.64,1418.19 1207.1,1419.5 1227.56,1422.46 1248.02,1425.29 1268.47,1428.95 1288.93,1431.42 1309.39,1425.89 1329.85,1410.32 1350.31,1378.52 1370.76,1359.08 1391.22,1347.18 1411.68,1328.68 1432.14,1307.04 1452.6,1283.35 1473.05,1266.93 1493.51,1246.34 1513.97,1242.53 1534.43,1212.14 1554.89,1176.78 1575.35,1221.63 1595.8,1245.76 1616.26,1206.69 1636.72,1111.58 1657.18,1082.42 1677.64,1130.52 1698.09,1172.01 1718.55,1226.18 1739.01,1258.91 1759.47,1290.86 1779.93,1319.26 1800.39,1337.21 1820.84,1353.09 1841.3,1357.79 1861.76,1375.42 1882.22,1385.12 1902.68,1395.38 1923.13,1394.23 1943.59,1398.59 1964.05,1394.21 1984.51,1391.71 2004.97,1393.17 2025.43,1394.95 2045.88,1387.99 2066.34,1375.9 2086.8,1353.37 2107.26,1314.14 2127.72,1278.88 2148.17,1243.45 2168.63,1231.44 2189.09,1261.26 2209.55,1288.07 2230.01,1284.39 2250.47,1257.79 2270.92,1290.06 2291.38,1287.14 "/>
</svg>
