<?xml version="1.0" encoding="utf-8"?>
<svg xmlns="http://www.w3.org/2000/svg" xmlns:xlink="http://www.w3.org/1999/xlink" width="600" height="400" viewBox="0 0 2400 1600">
<defs>
  <clipPath id="clip010">
    <rect x="0" y="0" width="2400" height="1600"/>
  </clipPath>
</defs>
<path clip-path="url(#clip010)" d="M0 1600 L2400 1600 L2400 0 L0 0  Z" fill="#ffffff" fill-rule="evenodd" fill-opacity="1"/>
<defs>
  <clipPath id="clip011">
    <rect x="112" y="47" width="2242" height="1440"/>
  </clipPath>
</defs>
<path clip-path="url(#clip010)" d="M112.177 1486.45 L2352.76 1486.45 L2352.76 47.2441 L112.177 47.2441  Z" fill="#ffffff" fill-rule="evenodd" fill-opacity="1"/>
<polyline clip-path="url(#clip011)" style="stroke:#000000; stroke-linecap:round; stroke-linejoin:round; stroke-width:2; stroke-opacity:0.1; fill:none" points="175.59,1486.45 175.59,47.2441 "/>
<polyline clip-path="url(#clip011)" style="stroke:#000000; stroke-linecap:round; stroke-linejoin:round; stroke-width:2; stroke-opacity:0.1; fill:none" points="704.028,1486.45 704.028,47.2441 "/>
<polyline clip-path="url(#clip011)" style="stroke:#000000; stroke-linecap:round; stroke-linejoin:round; stroke-width:2; stroke-opacity:0.1; fill:none" points="1232.47,1486.45 1232.47,47.2441 "/>
<polyline clip-path="url(#clip011)" style="stroke:#000000; stroke-linecap:round; stroke-linejoin:round; stroke-width:2; stroke-opacity:0.1; fill:none" points="1760.9,1486.45 1760.9,47.2441 "/>
<polyline clip-path="url(#clip011)" style="stroke:#000000; stroke-linecap:round; stroke-linejoin:round; stroke-width:2; stroke-opacity:0.1; fill:none" points="2289.34,1486.45 2289.34,47.2441 "/>
<polyline clip-path="url(#clip011)" style="stroke:#000000; stroke-linecap:round; stroke-linejoin:round; stroke-width:2; stroke-opacity:0.1; fill:none" points="112.177,1461.34 2352.76,1461.34 "/>
<polyline clip-path="url(#clip011)" style="stroke:#000000; stroke-linecap:round; stroke-linejoin:round; stroke-width:2; stroke-opacity:0.1; fill:none" points="112.177,1160.44 2352.76,1160.44 "/>
<polyline clip-path="url(#clip011)" style="stroke:#000000; stroke-linecap:round; stroke-linejoin:round; stroke-width:2; stroke-opacity:0.1; fill:none" points="112.177,859.549 2352.76,859.549 "/>
<polyline clip-path="url(#clip011)" style="stroke:#000000; stroke-linecap:round; stroke-linejoin:round; stroke-width:2; stroke-opacity:0.1; fill:none" points="112.177,558.654 2352.76,558.654 "/>
<polyline clip-path="url(#clip011)" style="stroke:#000000; stroke-linecap:round; stroke-linejoin:round; stroke-width:2; stroke-opacity:0.1; fill:none" points="112.177,257.758 2352.76,257.758 "/>
<polyline clip-path="url(#clip010)" style="stroke:#000000; stroke-linecap:round; stroke-linejoin:round; stroke-width:4; stroke-opacity:1; fill:none" points="112.177,1486.45 2352.76,1486.45 "/>
<polyline clip-path="url(#clip010)" style="stroke:#000000; stroke-linecap:round; stroke-linejoin:round; stroke-width:4; stroke-opacity:1; fill:none" points="175.59,1486.45 175.59,1467.55 "/>
<polyline clip-path="url(#clip010)" style="stroke:#000000; stroke-linecap:round; stroke-linejoin:round; stroke-width:4; stroke-opacity:1; fill:none" points="704.028,1486.45 704.028,1467.55 "/>
<polyline clip-path="url(#clip010)" style="stroke:#000000; stroke-linecap:round; stroke-linejoin:round; stroke-width:4; stroke-opacity:1; fill:none" points="1232.47,1486.45 1232.47,1467.55 "/>
<polyline clip-path="url(#clip010)" style="stroke:#000000; stroke-linecap:round; stroke-linejoin:round; stroke-width:4; stroke-opacity:1; fill:none" points="1760.9,1486.45 1760.9,1467.55 "/>
<polyline clip-path="url(#clip010)" style="stroke:#000000; stroke-linecap:round; stroke-linejoin:round; stroke-width:4; stroke-opacity:1; fill:none" points="2289.34,1486.45 2289.34,1467.55 "/>
<path clip-path="url(#clip010)" d="M152.974 1517.37 Q149.363 1517.37 147.534 1520.93 Q145.729 1524.47 145.729 1531.6 Q145.729 1538.71 147.534 1542.27 Q149.363 1545.82 152.974 1545.82 Q156.608 1545.82 158.414 1542.27 Q160.243 1538.71 160.243 1531.6 Q160.243 1524.47 158.414 1520.93 Q156.608 1517.37 152.974 1517.37 M152.974 1513.66 Q158.784 1513.66 161.84 1518.27 Q164.919 1522.85 164.919 1531.6 Q164.919 1540.33 161.84 1544.94 Q158.784 1549.52 152.974 1549.52 Q147.164 1549.52 144.085 1544.94 Q141.03 1540.33 141.03 1531.6 Q141.03 1522.85 144.085 1518.27 Q147.164 1513.66 152.974 1513.66 Z" fill="#000000" fill-rule="nonzero" fill-opacity="1" /><path clip-path="url(#clip010)" d="M173.136 1542.97 L178.02 1542.97 L178.02 1548.85 L173.136 1548.85 L173.136 1542.97 Z" fill="#000000" fill-rule="nonzero" fill-opacity="1" /><path clip-path="url(#clip010)" d="M198.205 1517.37 Q194.594 1517.37 192.766 1520.93 Q190.96 1524.47 190.96 1531.6 Q190.96 1538.71 192.766 1542.27 Q194.594 1545.82 198.205 1545.82 Q201.84 1545.82 203.645 1542.27 Q205.474 1538.71 205.474 1531.6 Q205.474 1524.47 203.645 1520.93 Q201.84 1517.37 198.205 1517.37 M198.205 1513.66 Q204.016 1513.66 207.071 1518.27 Q210.15 1522.85 210.15 1531.6 Q210.15 1540.33 207.071 1544.94 Q204.016 1549.52 198.205 1549.52 Q192.395 1549.52 189.317 1544.94 Q186.261 1540.33 186.261 1531.6 Q186.261 1522.85 189.317 1518.27 Q192.395 1513.66 198.205 1513.66 Z" fill="#000000" fill-rule="nonzero" fill-opacity="1" /><path clip-path="url(#clip010)" d="M675.764 1544.91 L692.084 1544.91 L692.084 1548.85 L670.139 1548.85 L670.139 1544.91 Q672.801 1542.16 677.385 1537.53 Q681.991 1532.88 683.172 1531.53 Q685.417 1529.01 686.297 1527.27 Q687.2 1525.51 687.2 1523.82 Q687.2 1521.07 685.255 1519.33 Q683.334 1517.6 680.232 1517.6 Q678.033 1517.6 675.579 1518.36 Q673.149 1519.13 670.371 1520.68 L670.371 1515.95 Q673.195 1514.82 675.649 1514.24 Q678.102 1513.66 680.139 1513.66 Q685.51 1513.66 688.704 1516.35 Q691.899 1519.03 691.899 1523.52 Q691.899 1525.65 691.088 1527.57 Q690.301 1529.47 688.195 1532.07 Q687.616 1532.74 684.514 1535.95 Q681.413 1539.15 675.764 1544.91 Z" fill="#000000" fill-rule="nonzero" fill-opacity="1" /><path clip-path="url(#clip010)" d="M701.899 1542.97 L706.783 1542.97 L706.783 1548.85 L701.899 1548.85 L701.899 1542.97 Z" fill="#000000" fill-rule="nonzero" fill-opacity="1" /><path clip-path="url(#clip010)" d="M717.014 1514.29 L735.371 1514.29 L735.371 1518.22 L721.297 1518.22 L721.297 1526.7 Q722.315 1526.35 723.334 1526.19 Q724.352 1526 725.371 1526 Q731.158 1526 734.537 1529.17 Q737.917 1532.34 737.917 1537.76 Q737.917 1543.34 734.445 1546.44 Q730.972 1549.52 724.653 1549.52 Q722.477 1549.52 720.209 1549.15 Q717.963 1548.78 715.556 1548.04 L715.556 1543.34 Q717.639 1544.47 719.861 1545.03 Q722.084 1545.58 724.56 1545.58 Q728.565 1545.58 730.903 1543.48 Q733.241 1541.37 733.241 1537.76 Q733.241 1534.15 730.903 1532.04 Q728.565 1529.94 724.56 1529.94 Q722.685 1529.94 720.81 1530.35 Q718.959 1530.77 717.014 1531.65 L717.014 1514.29 Z" fill="#000000" fill-rule="nonzero" fill-opacity="1" /><path clip-path="url(#clip010)" d="M1199.63 1514.29 L1217.99 1514.29 L1217.99 1518.22 L1203.91 1518.22 L1203.91 1526.7 Q1204.93 1526.35 1205.95 1526.19 Q1206.97 1526 1207.99 1526 Q1213.77 1526 1217.15 1529.17 Q1220.53 1532.34 1220.53 1537.76 Q1220.53 1543.34 1217.06 1546.44 Q1213.59 1549.52 1207.27 1549.52 Q1205.09 1549.52 1202.83 1549.15 Q1200.58 1548.78 1198.17 1548.04 L1198.17 1543.34 Q1200.26 1544.47 1202.48 1545.03 Q1204.7 1545.58 1207.18 1545.58 Q1211.18 1545.58 1213.52 1543.48 Q1215.86 1541.37 1215.86 1537.76 Q1215.86 1534.15 1213.52 1532.04 Q1211.18 1529.94 1207.18 1529.94 Q1205.3 1529.94 1203.43 1530.35 Q1201.58 1530.77 1199.63 1531.65 L1199.63 1514.29 Z" fill="#000000" fill-rule="nonzero" fill-opacity="1" /><path clip-path="url(#clip010)" d="M1229.75 1542.97 L1234.63 1542.97 L1234.63 1548.85 L1229.75 1548.85 L1229.75 1542.97 Z" fill="#000000" fill-rule="nonzero" fill-opacity="1" /><path clip-path="url(#clip010)" d="M1254.82 1517.37 Q1251.2 1517.37 1249.38 1520.93 Q1247.57 1524.47 1247.57 1531.6 Q1247.57 1538.71 1249.38 1542.27 Q1251.2 1545.82 1254.82 1545.82 Q1258.45 1545.82 1260.26 1542.27 Q1262.08 1538.71 1262.08 1531.6 Q1262.08 1524.47 1260.26 1520.93 Q1258.45 1517.37 1254.82 1517.37 M1254.82 1513.66 Q1260.63 1513.66 1263.68 1518.27 Q1266.76 1522.85 1266.76 1531.6 Q1266.76 1540.33 1263.68 1544.94 Q1260.63 1549.52 1254.82 1549.52 Q1249.01 1549.52 1245.93 1544.94 Q1242.87 1540.33 1242.87 1531.6 Q1242.87 1522.85 1245.93 1518.27 Q1249.01 1513.66 1254.82 1513.66 Z" fill="#000000" fill-rule="nonzero" fill-opacity="1" /><path clip-path="url(#clip010)" d="M1727.22 1514.29 L1749.45 1514.29 L1749.45 1516.28 L1736.9 1548.85 L1732.02 1548.85 L1743.82 1518.22 L1727.22 1518.22 L1727.22 1514.29 Z" fill="#000000" fill-rule="nonzero" fill-opacity="1" /><path clip-path="url(#clip010)" d="M1758.57 1542.97 L1763.45 1542.97 L1763.45 1548.85 L1758.57 1548.85 L1758.57 1542.97 Z" fill="#000000" fill-rule="nonzero" fill-opacity="1" /><path clip-path="url(#clip010)" d="M1773.68 1514.29 L1792.04 1514.29 L1792.04 1518.22 L1777.97 1518.22 L1777.97 1526.7 Q1778.98 1526.35 1780 1526.19 Q1781.02 1526 1782.04 1526 Q1787.83 1526 1791.21 1529.17 Q1794.59 1532.34 1794.59 1537.76 Q1794.59 1543.34 1791.11 1546.44 Q1787.64 1549.52 1781.32 1549.52 Q1779.15 1549.52 1776.88 1549.15 Q1774.63 1548.78 1772.22 1548.04 L1772.22 1543.34 Q1774.31 1544.47 1776.53 1545.03 Q1778.75 1545.58 1781.23 1545.58 Q1785.23 1545.58 1787.57 1543.48 Q1789.91 1541.37 1789.91 1537.76 Q1789.91 1534.15 1787.57 1532.04 Q1785.23 1529.94 1781.23 1529.94 Q1779.35 1529.94 1777.48 1530.35 Q1775.63 1530.77 1773.68 1531.65 L1773.68 1514.29 Z" fill="#000000" fill-rule="nonzero" fill-opacity="1" /><path clip-path="url(#clip010)" d="M2241.42 1544.91 L2249.05 1544.91 L2249.05 1518.55 L2240.74 1520.21 L2240.74 1515.95 L2249.01 1514.29 L2253.68 1514.29 L2253.68 1544.91 L2261.32 1544.91 L2261.32 1548.85 L2241.42 1548.85 L2241.42 1544.91 Z" fill="#000000" fill-rule="nonzero" fill-opacity="1" /><path clip-path="url(#clip010)" d="M2280.77 1517.37 Q2277.16 1517.37 2275.33 1520.93 Q2273.52 1524.47 2273.52 1531.6 Q2273.52 1538.71 2275.33 1542.27 Q2277.16 1545.82 2280.77 1545.82 Q2284.4 1545.82 2286.21 1542.27 Q2288.04 1538.71 2288.04 1531.6 Q2288.04 1524.47 2286.21 1520.93 Q2284.4 1517.37 2280.77 1517.37 M2280.77 1513.66 Q2286.58 1513.66 2289.63 1518.27 Q2292.71 1522.85 2292.71 1531.6 Q2292.71 1540.33 2289.63 1544.94 Q2286.58 1549.52 2280.77 1549.52 Q2274.96 1549.52 2271.88 1544.94 Q2268.82 1540.33 2268.82 1531.6 Q2268.82 1522.85 2271.88 1518.27 Q2274.96 1513.66 2280.77 1513.66 Z" fill="#000000" fill-rule="nonzero" fill-opacity="1" /><path clip-path="url(#clip010)" d="M2300.93 1542.97 L2305.81 1542.97 L2305.81 1548.85 L2300.93 1548.85 L2300.93 1542.97 Z" fill="#000000" fill-rule="nonzero" fill-opacity="1" /><path clip-path="url(#clip010)" d="M2326 1517.37 Q2322.39 1517.37 2320.56 1520.93 Q2318.75 1524.47 2318.75 1531.6 Q2318.75 1538.71 2320.56 1542.27 Q2322.39 1545.82 2326 1545.82 Q2329.63 1545.82 2331.44 1542.27 Q2333.27 1538.71 2333.27 1531.6 Q2333.27 1524.47 2331.44 1520.93 Q2329.63 1517.37 2326 1517.37 M2326 1513.66 Q2331.81 1513.66 2334.86 1518.27 Q2337.94 1522.85 2337.94 1531.6 Q2337.94 1540.33 2334.86 1544.94 Q2331.81 1549.52 2326 1549.52 Q2320.19 1549.52 2317.11 1544.94 Q2314.05 1540.33 2314.05 1531.6 Q2314.05 1522.85 2317.11 1518.27 Q2320.19 1513.66 2326 1513.66 Z" fill="#000000" fill-rule="nonzero" fill-opacity="1" /><polyline clip-path="url(#clip010)" style="stroke:#000000; stroke-linecap:round; stroke-linejoin:round; stroke-width:4; stroke-opacity:1; fill:none" points="112.177,1486.45 112.177,47.2441 "/>
<polyline clip-path="url(#clip010)" style="stroke:#000000; stroke-linecap:round; stroke-linejoin:round; stroke-width:4; stroke-opacity:1; fill:none" points="112.177,1461.34 131.075,1461.34 "/>
<polyline clip-path="url(#clip010)" style="stroke:#000000; stroke-linecap:round; stroke-linejoin:round; stroke-width:4; stroke-opacity:1; fill:none" points="112.177,1160.44 131.075,1160.44 "/>
<polyline clip-path="url(#clip010)" style="stroke:#000000; stroke-linecap:round; stroke-linejoin:round; stroke-width:4; stroke-opacity:1; fill:none" points="112.177,859.549 131.075,859.549 "/>
<polyline clip-path="url(#clip010)" style="stroke:#000000; stroke-linecap:round; stroke-linejoin:round; stroke-width:4; stroke-opacity:1; fill:none" points="112.177,558.654 131.075,558.654 "/>
<polyline clip-path="url(#clip010)" style="stroke:#000000; stroke-linecap:round; stroke-linejoin:round; stroke-width:4; stroke-opacity:1; fill:none" points="112.177,257.758 131.075,257.758 "/>
<path clip-path="url(#clip010)" d="M64.2328 1447.14 Q60.6217 1447.14 58.793 1450.7 Q56.9875 1454.24 56.9875 1461.37 Q56.9875 1468.48 58.793 1472.05 Q60.6217 1475.59 64.2328 1475.59 Q67.867 1475.59 69.6726 1472.05 Q71.5013 1468.48 71.5013 1461.37 Q71.5013 1454.24 69.6726 1450.7 Q67.867 1447.14 64.2328 1447.14 M64.2328 1443.43 Q70.0429 1443.43 73.0985 1448.04 Q76.1772 1452.62 76.1772 1461.37 Q76.1772 1470.1 73.0985 1474.71 Q70.0429 1479.29 64.2328 1479.29 Q58.4226 1479.29 55.344 1474.71 Q52.2884 1470.1 52.2884 1461.37 Q52.2884 1452.62 55.344 1448.04 Q58.4226 1443.43 64.2328 1443.43 Z" fill="#000000" fill-rule="nonzero" fill-opacity="1" /><path clip-path="url(#clip010)" d="M59.8578 1173.79 L76.1772 1173.79 L76.1772 1177.72 L54.2328 1177.72 L54.2328 1173.79 Q56.8949 1171.03 61.4782 1166.4 Q66.0846 1161.75 67.2652 1160.41 Q69.5105 1157.89 70.3902 1156.15 Q71.2929 1154.39 71.2929 1152.7 Q71.2929 1149.95 69.3485 1148.21 Q67.4272 1146.47 64.3254 1146.47 Q62.1263 1146.47 59.6726 1147.24 Q57.2421 1148 54.4643 1149.55 L54.4643 1144.83 Q57.2884 1143.7 59.7421 1143.12 Q62.1958 1142.54 64.2328 1142.54 Q69.6031 1142.54 72.7976 1145.22 Q75.992 1147.91 75.992 1152.4 Q75.992 1154.53 75.1818 1156.45 Q74.3948 1158.35 72.2883 1160.94 Q71.7096 1161.61 68.6078 1164.83 Q65.5059 1168.03 59.8578 1173.79 Z" fill="#000000" fill-rule="nonzero" fill-opacity="1" /><path clip-path="url(#clip010)" d="M66.5939 846.343 L54.7884 864.792 L66.5939 864.792 L66.5939 846.343 M65.367 842.269 L71.2466 842.269 L71.2466 864.792 L76.1772 864.792 L76.1772 868.681 L71.2466 868.681 L71.2466 876.829 L66.5939 876.829 L66.5939 868.681 L50.9921 868.681 L50.9921 864.167 L65.367 842.269 Z" fill="#000000" fill-rule="nonzero" fill-opacity="1" /><path clip-path="url(#clip010)" d="M64.6495 556.79 Q61.5013 556.79 59.6495 558.943 Q57.8208 561.096 57.8208 564.846 Q57.8208 568.573 59.6495 570.748 Q61.5013 572.901 64.6495 572.901 Q67.7976 572.901 69.6263 570.748 Q71.4781 568.573 71.4781 564.846 Q71.4781 561.096 69.6263 558.943 Q67.7976 556.79 64.6495 556.79 M73.9318 542.138 L73.9318 546.397 Q72.1726 545.563 70.367 545.124 Q68.5846 544.684 66.8254 544.684 Q62.1958 544.684 59.7421 547.809 Q57.3115 550.934 56.9643 557.253 Q58.33 555.239 60.3902 554.174 Q62.4504 553.087 64.9272 553.087 Q70.1355 553.087 73.1448 556.258 Q76.1772 559.406 76.1772 564.846 Q76.1772 570.17 73.029 573.387 Q69.8809 576.605 64.6495 576.605 Q58.6541 576.605 55.4828 572.022 Q52.3116 567.415 52.3116 558.688 Q52.3116 550.494 56.2004 545.633 Q60.0893 540.749 66.6402 540.749 Q68.3994 540.749 70.1818 541.096 Q71.9874 541.443 73.9318 542.138 Z" fill="#000000" fill-rule="nonzero" fill-opacity="1" /><path clip-path="url(#clip010)" d="M64.3254 258.626 Q60.9921 258.626 59.0708 260.409 Q57.1726 262.191 57.1726 265.316 Q57.1726 268.441 59.0708 270.224 Q60.9921 272.006 64.3254 272.006 Q67.6587 272.006 69.58 270.224 Q71.5013 268.418 71.5013 265.316 Q71.5013 262.191 69.58 260.409 Q67.6819 258.626 64.3254 258.626 M59.6495 256.636 Q56.6402 255.895 54.9504 253.835 Q53.2838 251.775 53.2838 248.812 Q53.2838 244.668 56.2236 242.261 Q59.1865 239.853 64.3254 239.853 Q69.4874 239.853 72.4272 242.261 Q75.367 244.668 75.367 248.812 Q75.367 251.775 73.6772 253.835 Q72.0105 255.895 69.0244 256.636 Q72.404 257.423 74.279 259.714 Q76.1772 262.006 76.1772 265.316 Q76.1772 270.339 73.0985 273.024 Q70.0429 275.71 64.3254 275.71 Q58.6078 275.71 55.5291 273.024 Q52.4736 270.339 52.4736 265.316 Q52.4736 262.006 54.3717 259.714 Q56.2699 257.423 59.6495 256.636 M57.9365 249.251 Q57.9365 251.937 59.6032 253.441 Q61.293 254.946 64.3254 254.946 Q67.3346 254.946 69.0244 253.441 Q70.7374 251.937 70.7374 249.251 Q70.7374 246.566 69.0244 245.062 Q67.3346 243.557 64.3254 243.557 Q61.293 243.557 59.6032 245.062 Q57.9365 246.566 57.9365 249.251 Z" fill="#000000" fill-rule="nonzero" fill-opacity="1" /><path clip-path="url(#clip011)" d="M175.59 1310.89 L196.727 1313.8 L217.865 1307.17 L239.002 1299.65 L260.14 1288.13 L281.277 1282.3 L302.415 1271.11 L323.553 1247.68 L344.69 1197.2 L365.828 1155.49 L386.965 1126.79 L408.103 1105.55 L429.24 1052.66 L450.378 956.749 L471.515 918.619 L492.653 812.057 L513.79 758.035 L534.928 703.356 L556.065 643.082 L577.203 549.265 L598.34 569.885 L619.478 635.402 L640.616 764.019 L661.753 935.852 L682.891 1091.98 L704.028 1195.7 L725.166 1253.27 L746.303 1288.88 L767.441 1316.27 L788.578 1327.75 L809.716 1342.7 L830.853 1347.71 L851.991 1349.94 L873.128 1343.7 L894.266 1338.97 L915.404 1330.43 L936.541 1326.38 L957.679 1313.19 L978.816 1302.88 L999.954 1297.23 L1021.09 1278.96 L1042.23 1246.55 L1063.37 1218.67 L1084.5 1186.24 L1105.64 1134.19 L1126.78 1083.81 L1147.92 1026.17 L1169.05 970.444 L1190.19 905.969 L1211.33 833.41 L1232.47 776.819 L1253.6 675.313 L1274.74 654.082 L1295.88 713.061 L1317.02 815.044 L1338.15 942.321 L1359.29 1043.04 L1380.43 1140.39 L1401.57 1205.5 L1422.7 1239.55 L1443.84 1283.31 L1464.98 1318.95 L1486.12 1337.52 L1507.25 1353.84 L1528.39 1373.9 L1549.53 1378.47 L1570.67 1378.34 L1591.8 1378.04 L1612.94 1374.48 L1634.08 1364.55 L1655.22 1353.26 L1676.35 1345.06 L1697.49 1332.1 L1718.63 1312.86 L1739.77 1289.94 L1760.9 1268.71 L1782.04 1242.02 L1803.18 1202.13 L1824.32 1159.94 L1845.46 1116.3 L1866.59 1081.96 L1887.73 1032.68 L1908.87 979.907 L1930.01 949.403 L1951.14 848.528 L1972.28 783.874 L1993.42 823.119 L2014.56 973.423 L2035.69 1114.78 L2056.83 1210.94 L2077.97 1263.82 L2099.11 1298.71 L2120.24 1313.42 L2141.38 1325.47 L2162.52 1329.67 L2183.66 1335.57 L2204.79 1334.66 L2225.93 1341.5 L2247.07 1365.91 L2268.21 1383.26 L2289.34 1394.41 L2289.34 1245.72 L2268.21 1256.17 L2247.07 1237.97 L2225.93 1194.52 L2204.79 1105.6 L2183.66 982.787 L2162.52 707.747 L2141.38 389.52 L2120.24 226.705 L2099.11 103.093 L2077.97 87.9763 L2056.83 120.879 L2035.69 212.911 L2014.56 358.692 L1993.42 470.975 L1972.28 402.785 L1951.14 423.863 L1930.01 466.776 L1908.87 474.489 L1887.73 508.973 L1866.59 568.465 L1845.46 667.617 L1824.32 749.608 L1803.18 838.653 L1782.04 913.044 L1760.9 983.873 L1739.77 1031.74 L1718.63 1077.99 L1697.49 1122.79 L1676.35 1138.18 L1655.22 1174.36 L1634.08 1183.88 L1612.94 1205.08 L1591.8 1220.71 L1570.67 1236.16 L1549.53 1243.04 L1528.39 1240.61 L1507.25 1229.3 L1486.12 1210.27 L1464.98 1185.62 L1443.84 1081.39 L1422.7 895.663 L1401.57 640.18 L1380.43 396.27 L1359.29 317.679 L1338.15 260.606 L1317.02 259.045 L1295.88 335.162 L1274.74 396.463 L1253.6 490.706 L1232.47 510.579 L1211.33 558.156 L1190.19 597.814 L1169.05 660.772 L1147.92 752.781 L1126.78 836.26 L1105.64 910.065 L1084.5 973.073 L1063.37 1014.04 L1042.23 1074.79 L1021.09 1125.26 L999.954 1166.28 L978.816 1203.55 L957.679 1236.94 L936.541 1258.62 L915.404 1270.4 L894.266 1283.44 L873.128 1291.57 L851.991 1285.19 L830.853 1275.49 L809.716 1253.06 L788.578 1214.7 L767.441 1141.33 L746.303 1062.49 L725.166 945.503 L704.028 788.922 L682.891 525.274 L661.753 425.558 L640.616 428.213 L619.478 380.117 L598.34 368.417 L577.203 353.713 L556.065 412.846 L534.928 463.613 L513.79 560.52 L492.653 652.409 L471.515 741.186 L450.378 815.439 L429.24 881.45 L408.103 899.543 L386.965 966.491 L365.828 1032.37 L344.69 1099.81 L323.553 1142.88 L302.415 1179.39 L281.277 1219.66 L260.14 1249.31 L239.002 1269.9 L217.865 1287.87 L196.727 1299.55 L175.59 1310.89  Z" fill="#009af9" fill-rule="evenodd" fill-opacity="0.5"/>
<polyline clip-path="url(#clip011)" style="stroke:#009af9; stroke-linecap:round; stroke-linejoin:round; stroke-width:12; stroke-opacity:1; fill:none" points="175.59,1310.89 196.727,1302.42 217.865,1292.03 239.002,1282.66 260.14,1255.61 281.277,1236.02 302.415,1204.06 323.553,1175.94 344.69,1139.48 365.828,1097.72 386.965,1048.07 408.103,992.763 429.24,937.69 450.378,877.421 471.515,814.194 492.653,751.482 513.79,668.179 534.928,607.245 556.065,532.554 577.203,451.205 598.34,466.759 619.478,523.314 640.616,640.906 661.753,781.086 682.891,920.771 704.028,1035.94 725.166,1154.38 746.303,1230.11 767.441,1271.46 788.578,1297.25 809.716,1304.04 830.853,1309.36 851.991,1303.95 873.128,1306.68 894.266,1304.39 915.404,1299.13 936.541,1291.53 957.679,1279.68 978.816,1264.67 999.954,1243.02 1021.09,1214.17 1042.23,1181.65 1063.37,1150.48 1084.5,1096.69 1105.64,1009.22 1126.78,974.165 1147.92,899.012 1169.05,853.395 1190.19,768.104 1211.33,717.405 1232.47,642.875 1253.6,551.623 1274.74,530.872 1295.88,485.13 1317.02,493.326 1338.15,606.142 1359.29,757.833 1380.43,902.399 1401.57,1065.83 1422.7,1168.13 1443.84,1185.13 1464.98,1239.69 1486.12,1272.28 1507.25,1296.65 1528.39,1308.44 1549.53,1303.09 1570.67,1302.66 1591.8,1297.21 1612.94,1289.06 1634.08,1278.97 1655.22,1262.92 1676.35,1249.6 1697.49,1224.65 1718.63,1203.61 1739.77,1180.86 1760.9,1145.3 1782.04,1107.01 1803.18,1070.49 1824.32,1034.77 1845.46,988.867 1866.59,933.42 1887.73,876.551 1908.87,795.375 1930.01,717.203 1951.14,675.52 1972.28,626.998 1993.42,574.766 2014.56,588.129 2035.69,627.687 2056.83,638.544 2077.97,684.046 2099.11,825.065 2120.24,951.698 2141.38,1056.63 2162.52,1122.31 2183.66,1189.51 2204.79,1249.35 2225.93,1297.13 2247.07,1308.21 2268.21,1304.64 2289.34,1300.95 "/>
<path clip-path="url(#clip011)" d="M175.59 1310.89 L196.727 1346.79 L217.865 1371.11 L239.002 1388.44 L260.14 1400.64 L281.277 1409.15 L302.415 1419.01 L323.553 1425.87 L344.69 1427.54 L365.828 1431.47 L386.965 1435.06 L408.103 1436.17 L429.24 1436.13 L450.378 1435.26 L471.515 1433.45 L492.653 1429.43 L513.79 1423.17 L534.928 1412.91 L556.065 1400.21 L577.203 1379.15 L598.34 1343.98 L619.478 1287.92 L640.616 1216.76 L661.753 1108.21 L682.891 1006.03 L704.028 919.139 L725.166 940.467 L746.303 1007.94 L767.441 1074.34 L788.578 1130.8 L809.716 1193.42 L830.853 1250.03 L851.991 1285.63 L873.128 1322.24 L894.266 1345.39 L915.404 1365.3 L936.541 1380.57 L957.679 1391.03 L978.816 1398 L999.954 1408.46 L1021.09 1417.02 L1042.23 1422.47 L1063.37 1429.25 L1084.5 1434.18 L1105.64 1436.29 L1126.78 1439.05 L1147.92 1440.1 L1169.05 1438.24 L1190.19 1437.46 L1211.33 1432.98 L1232.47 1427.19 L1253.6 1420.78 L1274.74 1405.61 L1295.88 1376.25 L1317.02 1324.19 L1338.15 1242.95 L1359.29 1125.34 L1380.43 1009.98 L1401.57 1021.69 L1422.7 1082.05 L1443.84 1134.31 L1464.98 1187.84 L1486.12 1230.3 L1507.25 1263.43 L1528.39 1299.89 L1549.53 1321.8 L1570.67 1338.5 L1591.8 1354.66 L1612.94 1373.71 L1634.08 1390.28 L1655.22 1403.88 L1676.35 1414.19 L1697.49 1421.9 L1718.63 1426.53 L1739.77 1433.22 L1760.9 1437.5 L1782.04 1440.52 L1803.18 1442.8 L1824.32 1444.44 L1845.46 1445.44 L1866.59 1445.72 L1887.73 1445.61 L1908.87 1444.55 L1930.01 1444.94 L1951.14 1442.62 L1972.28 1439.18 L1993.42 1433.71 L2014.56 1426.09 L2035.69 1410.44 L2056.83 1375.19 L2077.97 1326.6 L2099.11 1225.17 L2120.24 1120.1 L2141.38 1145.72 L2162.52 1202.29 L2183.66 1248.89 L2204.79 1278.71 L2225.93 1319 L2247.07 1344.88 L2268.21 1372.2 L2289.34 1387.34 L2289.34 1034.29 L2268.21 923.51 L2247.07 799.438 L2225.93 620.159 L2204.79 431.063 L2183.66 457.711 L2162.52 392.424 L2141.38 658.763 L2120.24 825.292 L2099.11 868.622 L2077.97 812.959 L2056.83 718.871 L2035.69 698.585 L2014.56 706.393 L1993.42 810.948 L1972.28 932.87 L1951.14 1088.36 L1930.01 1189.19 L1908.87 1262.3 L1887.73 1324.72 L1866.59 1356.04 L1845.46 1378.7 L1824.32 1393.73 L1803.18 1397.53 L1782.04 1397.83 L1760.9 1392.41 L1739.77 1383.85 L1718.63 1381.64 L1697.49 1368.81 L1676.35 1346.03 L1655.22 1329.83 L1634.08 1306.03 L1612.94 1282.3 L1591.8 1236.27 L1570.67 1177.67 L1549.53 1133.54 L1528.39 1047.55 L1507.25 952.6 L1486.12 857.695 L1464.98 730.688 L1443.84 572.807 L1422.7 558.578 L1401.57 637.539 L1380.43 720.228 L1359.29 800 L1338.15 841.626 L1317.02 919.279 L1295.88 1038.94 L1274.74 1143.4 L1253.6 1227.78 L1232.47 1291.71 L1211.33 1329.82 L1190.19 1353.71 L1169.05 1378.37 L1147.92 1395.25 L1126.78 1398.35 L1105.64 1403.08 L1084.5 1405.07 L1063.37 1403.8 L1042.23 1401.05 L1021.09 1392.85 L999.954 1381.41 L978.816 1363.78 L957.679 1338.12 L936.541 1315.93 L915.404 1279.16 L894.266 1243.62 L873.128 1195.54 L851.991 1134.23 L830.853 1079.27 L809.716 1007.42 L788.578 922.87 L767.441 835.293 L746.303 804.551 L725.166 723.907 L704.028 707.49 L682.891 749.82 L661.753 687.201 L640.616 796.93 L619.478 977.43 L598.34 1114.2 L577.203 1209.09 L556.065 1293.8 L534.928 1339.08 L513.79 1361.73 L492.653 1375.22 L471.515 1391.77 L450.378 1395.84 L429.24 1403.47 L408.103 1402.26 L386.965 1401.47 L365.828 1397.15 L344.69 1397.53 L323.553 1394.03 L302.415 1391.41 L281.277 1383.23 L260.14 1372.89 L239.002 1362.03 L217.865 1347.69 L196.727 1325.67 L175.59 1310.89  Z" fill="#e26f46" fill-rule="evenodd" fill-opacity="0.5"/>
<polyline clip-path="url(#clip011)" style="stroke:#e26f46; stroke-linecap:round; stroke-linejoin:round; stroke-width:12; stroke-opacity:1; fill:none" points="175.59,1310.89 196.727,1339.41 217.865,1361.26 239.002,1379.52 260.14,1394.08 281.277,1403.04 302.415,1410.36 323.553,1415.25 344.69,1421.6 365.828,1422.4 386.965,1423.75 408.103,1423.11 429.24,1421.03 450.378,1418.56 471.515,1412.28 492.653,1402.68 513.79,1387.91 534.928,1365.45 556.065,1329.25 577.203,1269.49 598.34,1179.33 619.478,1098.22 640.616,1013.85 661.753,873.443 682.891,850.156 704.028,827.593 725.166,849.511 746.303,893.087 767.441,1004.51 788.578,1087.84 809.716,1151.05 830.853,1200.21 851.991,1252.25 873.128,1288.59 894.266,1315.57 915.404,1344.42 936.541,1363.73 957.679,1381.6 978.816,1391.83 999.954,1399.18 1021.09,1406.01 1042.23,1412.71 1063.37,1417.24 1084.5,1418.68 1105.64,1419.79 1126.78,1420.49 1147.92,1419.26 1169.05,1414.3 1190.19,1406.69 1211.33,1394.66 1232.47,1373.96 1253.6,1344.29 1274.74,1293.26 1295.88,1228.47 1317.02,1131.11 1338.15,1045.18 1359.29,918.129 1380.43,886.359 1401.57,797.025 1422.7,856.606 1443.84,918.416 1464.98,974.467 1486.12,1054.88 1507.25,1128.02 1528.39,1188.96 1549.53,1254.95 1570.67,1293.17 1591.8,1322.83 1612.94,1343.22 1634.08,1355.04 1655.22,1371.65 1676.35,1379.13 1697.49,1396.87 1718.63,1404.22 1739.77,1412.72 1760.9,1414.79 1782.04,1419.55 1803.18,1420.04 1824.32,1422.05 1845.46,1422.51 1866.59,1419.28 1887.73,1414.3 1908.87,1406.93 1930.01,1393.88 1951.14,1368.24 1972.28,1329.63 1993.42,1284.41 2014.56,1227.39 2035.69,1186.8 2056.83,1132.9 2077.97,1077.93 2099.11,1017.48 2120.24,988.193 2141.38,964.254 2162.52,1000.92 2183.66,1010.21 2204.79,1038.49 2225.93,1073.79 2247.07,1111.17 2268.21,1159.89 2289.34,1215.32 "/>
</svg>
