<?xml version="1.0" encoding="utf-8"?>
<svg xmlns="http://www.w3.org/2000/svg" xmlns:xlink="http://www.w3.org/1999/xlink" width="600" height="400" viewBox="0 0 2400 1600">
<defs>
  <clipPath id="clip250">
    <rect x="0" y="0" width="2400" height="1600"/>
  </clipPath>
</defs>
<path clip-path="url(#clip250)" d="M0 1600 L2400 1600 L2400 0 L0 0  Z" fill="#ffffff" fill-rule="evenodd" fill-opacity="1"/>
<defs>
  <clipPath id="clip251">
    <rect x="480" y="0" width="1681" height="1600"/>
  </clipPath>
</defs>
<path clip-path="url(#clip250)" d="M112.177 1486.45 L2352.76 1486.45 L2352.76 47.2441 L112.177 47.2441  Z" fill="#ffffff" fill-rule="evenodd" fill-opacity="1"/>
<defs>
  <clipPath id="clip252">
    <rect x="112" y="47" width="2242" height="1440"/>
  </clipPath>
</defs>
<polyline clip-path="url(#clip252)" style="stroke:#000000; stroke-linecap:round; stroke-linejoin:round; stroke-width:2; stroke-opacity:0.1; fill:none" points="175.59,1486.45 175.59,47.2441 "/>
<polyline clip-path="url(#clip252)" style="stroke:#000000; stroke-linecap:round; stroke-linejoin:round; stroke-width:2; stroke-opacity:0.1; fill:none" points="704.028,1486.45 704.028,47.2441 "/>
<polyline clip-path="url(#clip252)" style="stroke:#000000; stroke-linecap:round; stroke-linejoin:round; stroke-width:2; stroke-opacity:0.1; fill:none" points="1232.47,1486.45 1232.47,47.2441 "/>
<polyline clip-path="url(#clip252)" style="stroke:#000000; stroke-linecap:round; stroke-linejoin:round; stroke-width:2; stroke-opacity:0.1; fill:none" points="1760.9,1486.45 1760.9,47.2441 "/>
<polyline clip-path="url(#clip252)" style="stroke:#000000; stroke-linecap:round; stroke-linejoin:round; stroke-width:2; stroke-opacity:0.1; fill:none" points="2289.34,1486.45 2289.34,47.2441 "/>
<polyline clip-path="url(#clip252)" style="stroke:#000000; stroke-linecap:round; stroke-linejoin:round; stroke-width:2; stroke-opacity:0.1; fill:none" points="112.177,1458.23 2352.76,1458.23 "/>
<polyline clip-path="url(#clip252)" style="stroke:#000000; stroke-linecap:round; stroke-linejoin:round; stroke-width:2; stroke-opacity:0.1; fill:none" points="112.177,1143.99 2352.76,1143.99 "/>
<polyline clip-path="url(#clip252)" style="stroke:#000000; stroke-linecap:round; stroke-linejoin:round; stroke-width:2; stroke-opacity:0.1; fill:none" points="112.177,829.745 2352.76,829.745 "/>
<polyline clip-path="url(#clip252)" style="stroke:#000000; stroke-linecap:round; stroke-linejoin:round; stroke-width:2; stroke-opacity:0.1; fill:none" points="112.177,515.505 2352.76,515.505 "/>
<polyline clip-path="url(#clip252)" style="stroke:#000000; stroke-linecap:round; stroke-linejoin:round; stroke-width:2; stroke-opacity:0.1; fill:none" points="112.177,201.264 2352.76,201.264 "/>
<polyline clip-path="url(#clip250)" style="stroke:#000000; stroke-linecap:round; stroke-linejoin:round; stroke-width:4; stroke-opacity:1; fill:none" points="112.177,1486.45 2352.76,1486.45 "/>
<polyline clip-path="url(#clip250)" style="stroke:#000000; stroke-linecap:round; stroke-linejoin:round; stroke-width:4; stroke-opacity:1; fill:none" points="175.59,1486.45 175.59,1467.55 "/>
<polyline clip-path="url(#clip250)" style="stroke:#000000; stroke-linecap:round; stroke-linejoin:round; stroke-width:4; stroke-opacity:1; fill:none" points="704.028,1486.45 704.028,1467.55 "/>
<polyline clip-path="url(#clip250)" style="stroke:#000000; stroke-linecap:round; stroke-linejoin:round; stroke-width:4; stroke-opacity:1; fill:none" points="1232.47,1486.45 1232.47,1467.55 "/>
<polyline clip-path="url(#clip250)" style="stroke:#000000; stroke-linecap:round; stroke-linejoin:round; stroke-width:4; stroke-opacity:1; fill:none" points="1760.9,1486.45 1760.9,1467.55 "/>
<polyline clip-path="url(#clip250)" style="stroke:#000000; stroke-linecap:round; stroke-linejoin:round; stroke-width:4; stroke-opacity:1; fill:none" points="2289.34,1486.45 2289.34,1467.55 "/>
<path clip-path="url(#clip250)" d="M152.974 1517.37 Q149.363 1517.37 147.534 1520.93 Q145.729 1524.47 145.729 1531.6 Q145.729 1538.71 147.534 1542.27 Q149.363 1545.82 152.974 1545.82 Q156.608 1545.82 158.414 1542.27 Q160.243 1538.71 160.243 1531.6 Q160.243 1524.47 158.414 1520.93 Q156.608 1517.37 152.974 1517.37 M152.974 1513.66 Q158.784 1513.66 161.84 1518.27 Q164.919 1522.85 164.919 1531.6 Q164.919 1540.33 161.84 1544.94 Q158.784 1549.52 152.974 1549.52 Q147.164 1549.52 144.085 1544.94 Q141.03 1540.33 141.03 1531.6 Q141.03 1522.85 144.085 1518.27 Q147.164 1513.66 152.974 1513.66 Z" fill="#000000" fill-rule="nonzero" fill-opacity="1" /><path clip-path="url(#clip250)" d="M173.136 1542.97 L178.02 1542.97 L178.02 1548.85 L173.136 1548.85 L173.136 1542.97 Z" fill="#000000" fill-rule="nonzero" fill-opacity="1" /><path clip-path="url(#clip250)" d="M198.205 1517.37 Q194.594 1517.37 192.766 1520.93 Q190.96 1524.47 190.96 1531.6 Q190.96 1538.71 192.766 1542.27 Q194.594 1545.82 198.205 1545.82 Q201.84 1545.82 203.645 1542.27 Q205.474 1538.71 205.474 1531.6 Q205.474 1524.47 203.645 1520.93 Q201.84 1517.37 198.205 1517.37 M198.205 1513.66 Q204.016 1513.66 207.071 1518.27 Q210.15 1522.85 210.15 1531.6 Q210.15 1540.33 207.071 1544.94 Q204.016 1549.52 198.205 1549.52 Q192.395 1549.52 189.317 1544.94 Q186.261 1540.33 186.261 1531.6 Q186.261 1522.85 189.317 1518.27 Q192.395 1513.66 198.205 1513.66 Z" fill="#000000" fill-rule="nonzero" fill-opacity="1" /><path clip-path="url(#clip250)" d="M675.764 1544.91 L692.084 1544.91 L692.084 1548.85 L670.139 1548.85 L670.139 1544.91 Q672.801 1542.16 677.385 1537.53 Q681.991 1532.88 683.172 1531.53 Q685.417 1529.01 686.297 1527.27 Q687.2 1525.51 687.2 1523.82 Q687.2 1521.07 685.255 1519.33 Q683.334 1517.6 680.232 1517.6 Q678.033 1517.6 675.579 1518.36 Q673.149 1519.13 670.371 1520.68 L670.371 1515.95 Q673.195 1514.82 675.649 1514.24 Q678.102 1513.66 680.139 1513.66 Q685.51 1513.66 688.704 1516.35 Q691.899 1519.03 691.899 1523.52 Q691.899 1525.65 691.088 1527.57 Q690.301 1529.47 688.195 1532.07 Q687.616 1532.74 684.514 1535.95 Q681.413 1539.15 675.764 1544.91 Z" fill="#000000" fill-rule="nonzero" fill-opacity="1" /><path clip-path="url(#clip250)" d="M701.899 1542.97 L706.783 1542.97 L706.783 1548.85 L701.899 1548.85 L701.899 1542.97 Z" fill="#000000" fill-rule="nonzero" fill-opacity="1" /><path clip-path="url(#clip250)" d="M717.014 1514.29 L735.371 1514.29 L735.371 1518.22 L721.297 1518.22 L721.297 1526.7 Q722.315 1526.35 723.334 1526.19 Q724.352 1526 725.371 1526 Q731.158 1526 734.537 1529.17 Q737.917 1532.34 737.917 1537.76 Q737.917 1543.34 734.445 1546.44 Q730.972 1549.52 724.653 1549.52 Q722.477 1549.52 720.209 1549.15 Q717.963 1548.78 715.556 1548.04 L715.556 1543.34 Q717.639 1544.47 719.861 1545.03 Q722.084 1545.58 724.56 1545.58 Q728.565 1545.58 730.903 1543.48 Q733.241 1541.37 733.241 1537.76 Q733.241 1534.15 730.903 1532.04 Q728.565 1529.94 724.56 1529.94 Q722.685 1529.94 720.81 1530.35 Q718.959 1530.77 717.014 1531.65 L717.014 1514.29 Z" fill="#000000" fill-rule="nonzero" fill-opacity="1" /><path clip-path="url(#clip250)" d="M1199.63 1514.29 L1217.99 1514.29 L1217.99 1518.22 L1203.91 1518.22 L1203.91 1526.7 Q1204.93 1526.35 1205.95 1526.19 Q1206.97 1526 1207.99 1526 Q1213.77 1526 1217.15 1529.17 Q1220.53 1532.34 1220.53 1537.76 Q1220.53 1543.34 1217.06 1546.44 Q1213.59 1549.52 1207.27 1549.52 Q1205.09 1549.52 1202.83 1549.15 Q1200.58 1548.78 1198.17 1548.04 L1198.17 1543.34 Q1200.26 1544.47 1202.48 1545.03 Q1204.7 1545.58 1207.18 1545.58 Q1211.18 1545.58 1213.52 1543.48 Q1215.86 1541.37 1215.86 1537.76 Q1215.86 1534.15 1213.52 1532.04 Q1211.18 1529.94 1207.18 1529.94 Q1205.3 1529.94 1203.43 1530.35 Q1201.58 1530.77 1199.63 1531.65 L1199.63 1514.29 Z" fill="#000000" fill-rule="nonzero" fill-opacity="1" /><path clip-path="url(#clip250)" d="M1229.75 1542.97 L1234.63 1542.97 L1234.63 1548.85 L1229.75 1548.85 L1229.75 1542.97 Z" fill="#000000" fill-rule="nonzero" fill-opacity="1" /><path clip-path="url(#clip250)" d="M1254.82 1517.37 Q1251.2 1517.37 1249.38 1520.93 Q1247.57 1524.47 1247.57 1531.6 Q1247.57 1538.71 1249.38 1542.27 Q1251.2 1545.82 1254.82 1545.82 Q1258.45 1545.82 1260.26 1542.27 Q1262.08 1538.71 1262.08 1531.6 Q1262.08 1524.47 1260.26 1520.93 Q1258.45 1517.37 1254.82 1517.37 M1254.82 1513.66 Q1260.63 1513.66 1263.68 1518.27 Q1266.76 1522.85 1266.76 1531.6 Q1266.76 1540.33 1263.68 1544.94 Q1260.63 1549.52 1254.82 1549.52 Q1249.01 1549.52 1245.93 1544.94 Q1242.87 1540.33 1242.87 1531.6 Q1242.87 1522.85 1245.93 1518.27 Q1249.01 1513.66 1254.82 1513.66 Z" fill="#000000" fill-rule="nonzero" fill-opacity="1" /><path clip-path="url(#clip250)" d="M1727.22 1514.29 L1749.45 1514.29 L1749.45 1516.28 L1736.9 1548.85 L1732.02 1548.85 L1743.82 1518.22 L1727.22 1518.22 L1727.22 1514.29 Z" fill="#000000" fill-rule="nonzero" fill-opacity="1" /><path clip-path="url(#clip250)" d="M1758.57 1542.97 L1763.45 1542.97 L1763.45 1548.85 L1758.57 1548.85 L1758.57 1542.97 Z" fill="#000000" fill-rule="nonzero" fill-opacity="1" /><path clip-path="url(#clip250)" d="M1773.68 1514.29 L1792.04 1514.29 L1792.04 1518.22 L1777.97 1518.22 L1777.97 1526.7 Q1778.98 1526.35 1780 1526.19 Q1781.02 1526 1782.04 1526 Q1787.83 1526 1791.21 1529.17 Q1794.59 1532.34 1794.59 1537.76 Q1794.59 1543.34 1791.11 1546.44 Q1787.64 1549.52 1781.32 1549.52 Q1779.15 1549.52 1776.88 1549.15 Q1774.63 1548.78 1772.22 1548.04 L1772.22 1543.34 Q1774.31 1544.47 1776.53 1545.03 Q1778.75 1545.58 1781.23 1545.58 Q1785.23 1545.58 1787.57 1543.48 Q1789.91 1541.37 1789.91 1537.76 Q1789.91 1534.15 1787.57 1532.04 Q1785.23 1529.94 1781.23 1529.94 Q1779.35 1529.94 1777.48 1530.35 Q1775.63 1530.77 1773.68 1531.65 L1773.68 1514.29 Z" fill="#000000" fill-rule="nonzero" fill-opacity="1" /><path clip-path="url(#clip250)" d="M2241.42 1544.91 L2249.05 1544.91 L2249.05 1518.55 L2240.74 1520.21 L2240.74 1515.95 L2249.01 1514.29 L2253.68 1514.29 L2253.68 1544.91 L2261.32 1544.91 L2261.32 1548.85 L2241.42 1548.85 L2241.42 1544.91 Z" fill="#000000" fill-rule="nonzero" fill-opacity="1" /><path clip-path="url(#clip250)" d="M2280.77 1517.37 Q2277.16 1517.37 2275.33 1520.93 Q2273.52 1524.47 2273.52 1531.6 Q2273.52 1538.71 2275.33 1542.27 Q2277.16 1545.82 2280.77 1545.82 Q2284.4 1545.82 2286.21 1542.27 Q2288.04 1538.71 2288.04 1531.6 Q2288.04 1524.47 2286.21 1520.93 Q2284.4 1517.37 2280.77 1517.37 M2280.77 1513.66 Q2286.58 1513.66 2289.63 1518.27 Q2292.71 1522.85 2292.71 1531.6 Q2292.71 1540.33 2289.63 1544.94 Q2286.58 1549.52 2280.77 1549.52 Q2274.96 1549.52 2271.88 1544.94 Q2268.82 1540.33 2268.82 1531.6 Q2268.82 1522.85 2271.88 1518.27 Q2274.96 1513.66 2280.77 1513.66 Z" fill="#000000" fill-rule="nonzero" fill-opacity="1" /><path clip-path="url(#clip250)" d="M2300.93 1542.97 L2305.81 1542.97 L2305.81 1548.85 L2300.93 1548.85 L2300.93 1542.97 Z" fill="#000000" fill-rule="nonzero" fill-opacity="1" /><path clip-path="url(#clip250)" d="M2326 1517.37 Q2322.39 1517.37 2320.56 1520.93 Q2318.75 1524.47 2318.75 1531.6 Q2318.75 1538.71 2320.56 1542.27 Q2322.39 1545.82 2326 1545.82 Q2329.63 1545.82 2331.44 1542.27 Q2333.27 1538.71 2333.27 1531.6 Q2333.27 1524.47 2331.44 1520.93 Q2329.63 1517.37 2326 1517.37 M2326 1513.66 Q2331.81 1513.66 2334.86 1518.27 Q2337.94 1522.85 2337.94 1531.6 Q2337.94 1540.33 2334.86 1544.94 Q2331.81 1549.52 2326 1549.52 Q2320.19 1549.52 2317.11 1544.94 Q2314.05 1540.33 2314.05 1531.6 Q2314.05 1522.85 2317.11 1518.27 Q2320.19 1513.66 2326 1513.66 Z" fill="#000000" fill-rule="nonzero" fill-opacity="1" /><polyline clip-path="url(#clip250)" style="stroke:#000000; stroke-linecap:round; stroke-linejoin:round; stroke-width:4; stroke-opacity:1; fill:none" points="112.177,1486.45 112.177,47.2441 "/>
<polyline clip-path="url(#clip250)" style="stroke:#000000; stroke-linecap:round; stroke-linejoin:round; stroke-width:4; stroke-opacity:1; fill:none" points="112.177,1458.23 131.075,1458.23 "/>
<polyline clip-path="url(#clip250)" style="stroke:#000000; stroke-linecap:round; stroke-linejoin:round; stroke-width:4; stroke-opacity:1; fill:none" points="112.177,1143.99 131.075,1143.99 "/>
<polyline clip-path="url(#clip250)" style="stroke:#000000; stroke-linecap:round; stroke-linejoin:round; stroke-width:4; stroke-opacity:1; fill:none" points="112.177,829.745 131.075,829.745 "/>
<polyline clip-path="url(#clip250)" style="stroke:#000000; stroke-linecap:round; stroke-linejoin:round; stroke-width:4; stroke-opacity:1; fill:none" points="112.177,515.505 131.075,515.505 "/>
<polyline clip-path="url(#clip250)" style="stroke:#000000; stroke-linecap:round; stroke-linejoin:round; stroke-width:4; stroke-opacity:1; fill:none" points="112.177,201.264 131.075,201.264 "/>
<path clip-path="url(#clip250)" d="M64.2328 1444.03 Q60.6217 1444.03 58.793 1447.59 Q56.9875 1451.13 56.9875 1458.26 Q56.9875 1465.37 58.793 1468.93 Q60.6217 1472.47 64.2328 1472.47 Q67.867 1472.47 69.6726 1468.93 Q71.5013 1465.37 71.5013 1458.26 Q71.5013 1451.13 69.6726 1447.59 Q67.867 1444.03 64.2328 1444.03 M64.2328 1440.32 Q70.0429 1440.32 73.0985 1444.93 Q76.1772 1449.51 76.1772 1458.26 Q76.1772 1466.99 73.0985 1471.6 Q70.0429 1476.18 64.2328 1476.18 Q58.4226 1476.18 55.344 1471.6 Q52.2884 1466.99 52.2884 1458.26 Q52.2884 1449.51 55.344 1444.93 Q58.4226 1440.32 64.2328 1440.32 Z" fill="#000000" fill-rule="nonzero" fill-opacity="1" /><path clip-path="url(#clip250)" d="M59.8578 1157.33 L76.1772 1157.33 L76.1772 1161.27 L54.2328 1161.27 L54.2328 1157.33 Q56.8949 1154.58 61.4782 1149.95 Q66.0846 1145.29 67.2652 1143.95 Q69.5105 1141.43 70.3902 1139.69 Q71.2929 1137.93 71.2929 1136.24 Q71.2929 1133.49 69.3485 1131.75 Q67.4272 1130.02 64.3254 1130.02 Q62.1263 1130.02 59.6726 1130.78 Q57.2421 1131.54 54.4643 1133.1 L54.4643 1128.37 Q57.2884 1127.24 59.7421 1126.66 Q62.1958 1126.08 64.2328 1126.08 Q69.6031 1126.08 72.7976 1128.77 Q75.992 1131.45 75.992 1135.94 Q75.992 1138.07 75.1818 1139.99 Q74.3948 1141.89 72.2883 1144.48 Q71.7096 1145.16 68.6078 1148.37 Q65.5059 1151.57 59.8578 1157.33 Z" fill="#000000" fill-rule="nonzero" fill-opacity="1" /><path clip-path="url(#clip250)" d="M66.5939 816.54 L54.7884 834.988 L66.5939 834.988 L66.5939 816.54 M65.367 812.465 L71.2466 812.465 L71.2466 834.988 L76.1772 834.988 L76.1772 838.877 L71.2466 838.877 L71.2466 847.025 L66.5939 847.025 L66.5939 838.877 L50.9921 838.877 L50.9921 834.363 L65.367 812.465 Z" fill="#000000" fill-rule="nonzero" fill-opacity="1" /><path clip-path="url(#clip250)" d="M64.6495 513.641 Q61.5013 513.641 59.6495 515.794 Q57.8208 517.947 57.8208 521.697 Q57.8208 525.423 59.6495 527.599 Q61.5013 529.752 64.6495 529.752 Q67.7976 529.752 69.6263 527.599 Q71.4781 525.423 71.4781 521.697 Q71.4781 517.947 69.6263 515.794 Q67.7976 513.641 64.6495 513.641 M73.9318 498.988 L73.9318 503.248 Q72.1726 502.414 70.367 501.975 Q68.5846 501.535 66.8254 501.535 Q62.1958 501.535 59.7421 504.66 Q57.3115 507.785 56.9643 514.104 Q58.33 512.09 60.3902 511.025 Q62.4504 509.937 64.9272 509.937 Q70.1355 509.937 73.1448 513.109 Q76.1772 516.257 76.1772 521.697 Q76.1772 527.021 73.029 530.238 Q69.8809 533.456 64.6495 533.456 Q58.6541 533.456 55.4828 528.873 Q52.3116 524.266 52.3116 515.539 Q52.3116 507.345 56.2004 502.484 Q60.0893 497.6 66.6402 497.6 Q68.3994 497.6 70.1818 497.947 Q71.9874 498.294 73.9318 498.988 Z" fill="#000000" fill-rule="nonzero" fill-opacity="1" /><path clip-path="url(#clip250)" d="M64.3254 202.132 Q60.9921 202.132 59.0708 203.914 Q57.1726 205.696 57.1726 208.821 Q57.1726 211.946 59.0708 213.729 Q60.9921 215.511 64.3254 215.511 Q67.6587 215.511 69.58 213.729 Q71.5013 211.923 71.5013 208.821 Q71.5013 205.696 69.58 203.914 Q67.6819 202.132 64.3254 202.132 M59.6495 200.141 Q56.6402 199.4 54.9504 197.34 Q53.2838 195.28 53.2838 192.317 Q53.2838 188.173 56.2236 185.766 Q59.1865 183.359 64.3254 183.359 Q69.4874 183.359 72.4272 185.766 Q75.367 188.173 75.367 192.317 Q75.367 195.28 73.6772 197.34 Q72.0105 199.4 69.0244 200.141 Q72.404 200.928 74.279 203.22 Q76.1772 205.511 76.1772 208.821 Q76.1772 213.845 73.0985 216.53 Q70.0429 219.215 64.3254 219.215 Q58.6078 219.215 55.5291 216.53 Q52.4736 213.845 52.4736 208.821 Q52.4736 205.511 54.3717 203.22 Q56.2699 200.928 59.6495 200.141 M57.9365 192.757 Q57.9365 195.442 59.6032 196.947 Q61.293 198.451 64.3254 198.451 Q67.3346 198.451 69.0244 196.947 Q70.7374 195.442 70.7374 192.757 Q70.7374 190.072 69.0244 188.567 Q67.3346 187.062 64.3254 187.062 Q61.293 187.062 59.6032 188.567 Q57.9365 190.072 57.9365 192.757 Z" fill="#000000" fill-rule="nonzero" fill-opacity="1" /><path clip-path="url(#clip252)" d="M175.59 1301.11 L196.727 1305.56 L217.865 1296.42 L239.002 1286.91 L260.14 1263.67 L281.277 1257.43 L302.415 1221 L323.553 1217.28 L344.69 1171.16 L365.828 1118.07 L386.965 1093.13 L408.103 1011.21 L429.24 934.328 L450.378 869.572 L471.515 821.874 L492.653 715.392 L513.79 614.855 L534.928 561.06 L556.065 675.287 L577.203 774.348 L598.34 913.375 L619.478 1037.47 L640.616 1132.27 L661.753 1185.14 L682.891 1248.83 L704.028 1310.34 L725.166 1339.98 L746.303 1359.9 L767.441 1366.4 L788.578 1368.9 L809.716 1371.07 L830.853 1377.38 L851.991 1379.36 L873.128 1371.82 L894.266 1365 L915.404 1359.25 L936.541 1356.28 L957.679 1354.18 L978.816 1354.03 L999.954 1337.7 L1021.09 1322.08 L1042.23 1306.12 L1063.37 1276.9 L1084.5 1239.91 L1105.64 1219.12 L1126.78 1184.15 L1147.92 1139.72 L1169.05 1082.91 L1190.19 1032.49 L1211.33 1001.4 L1232.47 1001.27 L1253.6 1061.33 L1274.74 1200.34 L1295.88 1267.57 L1317.02 1298.45 L1338.15 1326.02 L1359.29 1340.1 L1380.43 1347.77 L1401.57 1355.42 L1422.7 1355.59 L1443.84 1356.01 L1464.98 1366.17 L1486.12 1369.47 L1507.25 1369.96 L1528.39 1369.92 L1549.53 1365.59 L1570.67 1370.3 L1591.8 1365.19 L1612.94 1359.05 L1634.08 1356.27 L1655.22 1353.67 L1676.35 1354.59 L1697.49 1352.27 L1718.63 1342.33 L1739.77 1337.73 L1760.9 1328.92 L1782.04 1304.24 L1803.18 1292.57 L1824.32 1271.99 L1845.46 1246.22 L1866.59 1235.01 L1887.73 1173.18 L1908.87 1129.17 L1930.01 1089.27 L1951.14 1081.08 L1972.28 1069.63 L1993.42 1072.2 L2014.56 1093.89 L2035.69 1118.05 L2056.83 1213.17 L2077.97 1296.53 L2099.11 1331.36 L2120.24 1344.26 L2141.38 1358.41 L2162.52 1375.52 L2183.66 1381.22 L2204.79 1376.84 L2225.93 1376.06 L2247.07 1379.3 L2268.21 1380.83 L2289.34 1379.29 L2289.34 147.731 L2268.21 411.98 L2247.07 585.826 L2225.93 669.641 L2204.79 772.859 L2183.66 797.197 L2162.52 812.06 L2141.38 634.412 L2120.24 323.579 L2099.11 129.705 L2077.97 87.9763 L2056.83 122.215 L2035.69 240.217 L2014.56 330.217 L1993.42 426.588 L1972.28 257.406 L1951.14 114.65 L1930.01 113.664 L1908.87 229.341 L1887.73 251.499 L1866.59 321.215 L1845.46 450.787 L1824.32 593.863 L1803.18 707.188 L1782.04 777.683 L1760.9 839.135 L1739.77 972.199 L1718.63 983.019 L1697.49 1028.9 L1676.35 1073.57 L1655.22 1111.41 L1634.08 1146.44 L1612.94 1173.69 L1591.8 1183.06 L1570.67 1202.35 L1549.53 1146.44 L1528.39 1020.37 L1507.25 805.499 L1486.12 577.609 L1464.98 409.757 L1443.84 339.576 L1422.7 344.712 L1401.57 323.171 L1380.43 417.98 L1359.29 411.226 L1338.15 456.557 L1317.02 359.51 L1295.88 229.887 L1274.74 256.552 L1253.6 330.478 L1232.47 428.717 L1211.33 343.836 L1190.19 256.49 L1169.05 294.529 L1147.92 259.141 L1126.78 303.988 L1105.64 377.171 L1084.5 474.586 L1063.37 588.671 L1042.23 723.924 L1021.09 843.525 L999.954 940.063 L978.816 1033.71 L957.679 1106.2 L936.541 1157.36 L915.404 1175.68 L894.266 1189.28 L873.128 1219.86 L851.991 1237.14 L830.853 1258.85 L809.716 1256.5 L788.578 1254.57 L767.441 1245.41 L746.303 1200.19 L725.166 1136.17 L704.028 1034.92 L682.891 876.568 L661.753 672.944 L640.616 478.812 L619.478 347.758 L598.34 288.571 L577.203 303.723 L556.065 302.458 L534.928 323.236 L513.79 300.096 L492.653 358.102 L471.515 426.898 L450.378 625.932 L429.24 764.674 L408.103 820.672 L386.965 883.539 L365.828 968.184 L344.69 1044.8 L323.553 1086.03 L302.415 1136.35 L281.277 1194.73 L260.14 1222.85 L239.002 1232.85 L217.865 1251.98 L196.727 1278.25 L175.59 1301.11  Z" fill="#009af9" fill-rule="evenodd" fill-opacity="0.5"/>
<polyline clip-path="url(#clip252)" style="stroke:#009af9; stroke-linecap:round; stroke-linejoin:round; stroke-width:12; stroke-opacity:1; fill:none" points="175.59,1301.11 196.727,1289.5 217.865,1275.51 239.002,1260.41 260.14,1238.74 281.277,1213.07 302.415,1188.43 323.553,1151.07 344.69,1117.04 365.828,1077.74 386.965,1029.14 408.103,968.55 429.24,904.328 450.378,820.617 471.515,740.458 492.653,628.167 513.79,547.302 534.928,472.906 556.065,390.643 577.203,384.928 598.34,424.063 619.478,501.178 640.616,680.093 661.753,843.96 682.891,1019.49 704.028,1125.93 725.166,1202.19 746.303,1241.88 767.441,1275.26 788.578,1292.47 809.716,1300.25 830.853,1297.54 851.991,1298.58 873.128,1288.24 894.266,1279.75 915.404,1261.62 936.541,1240.6 957.679,1224.25 978.816,1208.97 999.954,1190.13 1021.09,1168.76 1042.23,1143.03 1063.37,1094.8 1084.5,1061 1105.64,1031.2 1126.78,975.36 1147.92,890.183 1169.05,825.31 1190.19,741.917 1211.33,714.587 1232.47,671.54 1253.6,589.591 1274.74,590.233 1295.88,571.618 1317.02,628.691 1338.15,590.755 1359.29,716.79 1380.43,903.715 1401.57,1050.87 1422.7,1137.85 1443.84,1185.97 1464.98,1226.44 1486.12,1254.44 1507.25,1269.67 1528.39,1279.97 1549.53,1270.87 1570.67,1272.6 1591.8,1274.1 1612.94,1284.32 1634.08,1271.83 1655.22,1259.35 1676.35,1239.54 1697.49,1220.27 1718.63,1194.56 1739.77,1161.31 1760.9,1131.38 1782.04,1077.11 1803.18,1022.76 1824.32,954.153 1845.46,904.699 1866.59,869.301 1887.73,849.079 1908.87,818.343 1930.01,780.948 1951.14,688.169 1972.28,623.757 1993.42,550.421 2014.56,654.941 2035.69,806.44 2056.83,943.177 2077.97,1053.24 2099.11,1005.66 2120.24,1011.13 2141.38,1076.62 2162.52,1177.73 2183.66,1224.3 2204.79,1271.45 2225.93,1300.85 2247.07,1317.95 2268.21,1318.29 2289.34,1307.25 "/>
<path clip-path="url(#clip252)" d="M175.59 1301.11 L196.727 1337.17 L217.865 1358.79 L239.002 1378.57 L260.14 1391.29 L281.277 1407.24 L302.415 1414.52 L323.553 1420.19 L344.69 1425.63 L365.828 1427.85 L386.965 1430.16 L408.103 1429.52 L429.24 1430.6 L450.378 1428.89 L471.515 1421.7 L492.653 1412.78 L513.79 1397.74 L534.928 1377.01 L556.065 1351.26 L577.203 1310.88 L598.34 1241.04 L619.478 1131.58 L640.616 1004.72 L661.753 1009.14 L682.891 1010.04 L704.028 1051.2 L725.166 1126.36 L746.303 1171.31 L767.441 1202.26 L788.578 1264.56 L809.716 1301.75 L830.853 1329.94 L851.991 1358.81 L873.128 1377.86 L894.266 1390.62 L915.404 1397.92 L936.541 1410.47 L957.679 1418.43 L978.816 1427.56 L999.954 1432.81 L1021.09 1435.92 L1042.23 1437.17 L1063.37 1438.45 L1084.5 1436.34 L1105.64 1438.42 L1126.78 1439.56 L1147.92 1440.01 L1169.05 1439.04 L1190.19 1437.68 L1211.33 1437.02 L1232.47 1433.83 L1253.6 1427.69 L1274.74 1417.14 L1295.88 1400.39 L1317.02 1381.63 L1338.15 1351.17 L1359.29 1309.69 L1380.43 1324.94 L1401.57 1320.69 L1422.7 1322.92 L1443.84 1301.08 L1464.98 1333.06 L1486.12 1357.84 L1507.25 1381.27 L1528.39 1397.8 L1549.53 1412.53 L1570.67 1420.81 L1591.8 1427.96 L1612.94 1432.8 L1634.08 1436.44 L1655.22 1440.33 L1676.35 1441.96 L1697.49 1442.92 L1718.63 1443.92 L1739.77 1445.08 L1760.9 1445.72 L1782.04 1444.83 L1803.18 1444.66 L1824.32 1444.39 L1845.46 1442.45 L1866.59 1440.2 L1887.73 1440.7 L1908.87 1441.26 L1930.01 1442.19 L1951.14 1443.25 L1972.28 1442.26 L1993.42 1440.08 L2014.56 1435.16 L2035.69 1424.94 L2056.83 1403.29 L2077.97 1359.23 L2099.11 1338.75 L2120.24 1357.37 L2141.38 1362.4 L2162.52 1366.26 L2183.66 1371.95 L2204.79 1369.84 L2225.93 1387.02 L2247.07 1396.89 L2268.21 1394.28 L2289.34 1389.72 L2289.34 1104.87 L2268.21 1009.84 L2247.07 884.781 L2225.93 717.105 L2204.79 532.274 L2183.66 490.192 L2162.52 503.379 L2141.38 616.734 L2120.24 733.718 L2099.11 824.035 L2077.97 719.272 L2056.83 459.726 L2035.69 390.561 L2014.56 423.531 L1993.42 692.145 L1972.28 956.52 L1951.14 1152.64 L1930.01 1198.02 L1908.87 1225.71 L1887.73 1270.14 L1866.59 1284.22 L1845.46 1298.46 L1824.32 1312.34 L1803.18 1333 L1782.04 1341.32 L1760.9 1338.1 L1739.77 1330.38 L1718.63 1311.99 L1697.49 1281.69 L1676.35 1227.36 L1655.22 1168.09 L1634.08 1092.13 L1612.94 1016.43 L1591.8 924.103 L1570.67 798.673 L1549.53 659.505 L1528.39 617.534 L1507.25 696.675 L1486.12 798.516 L1464.98 773.637 L1443.84 735.215 L1422.7 683.604 L1401.57 647.847 L1380.43 642.195 L1359.29 678.827 L1338.15 757.154 L1317.02 825.435 L1295.88 764.627 L1274.74 731.615 L1253.6 653.966 L1232.47 688.651 L1211.33 794.493 L1190.19 902.551 L1169.05 1035.11 L1147.92 1195.23 L1126.78 1278.14 L1105.64 1334.43 L1084.5 1367.66 L1063.37 1386.87 L1042.23 1392.47 L1021.09 1394.87 L999.954 1383.57 L978.816 1372.26 L957.679 1355.33 L936.541 1332.81 L915.404 1316.26 L894.266 1290.09 L873.128 1261.04 L851.991 1230.51 L830.853 1177 L809.716 1109.44 L788.578 1026.87 L767.441 916.813 L746.303 806.349 L725.166 695.654 L704.028 613.189 L682.891 521.788 L661.753 615.853 L640.616 783.784 L619.478 807.629 L598.34 786.559 L577.203 817.82 L556.065 871.481 L534.928 994.639 L513.79 1158.25 L492.653 1272.84 L471.515 1333.62 L450.378 1369.89 L429.24 1389.31 L408.103 1396.94 L386.965 1401.38 L365.828 1403.35 L344.69 1401.69 L323.553 1397.67 L302.415 1389.62 L281.277 1382.92 L260.14 1377.91 L239.002 1363.24 L217.865 1343.24 L196.727 1324.95 L175.59 1301.11  Z" fill="#e26f46" fill-rule="evenodd" fill-opacity="0.5"/>
<polyline clip-path="url(#clip252)" style="stroke:#e26f46; stroke-linecap:round; stroke-linejoin:round; stroke-width:12; stroke-opacity:1; fill:none" points="175.59,1301.11 196.727,1330.53 217.865,1351.52 239.002,1370.15 260.14,1382.71 281.277,1393.45 302.415,1402.37 323.553,1407.63 344.69,1412.35 365.828,1415.44 386.965,1416.4 408.103,1416.52 429.24,1415.16 450.378,1413.41 471.515,1408.39 492.653,1399.04 513.79,1381.73 534.928,1341.82 556.065,1288.93 577.203,1211.69 598.34,1118.65 619.478,998.13 640.616,885.738 661.753,797.712 682.891,739.658 704.028,756.803 725.166,825.55 746.303,929.459 767.441,1036.03 788.578,1106.84 809.716,1172.14 830.853,1231.46 851.991,1277.05 873.128,1306.64 894.266,1332.71 915.404,1353.62 936.541,1367.13 957.679,1381.9 978.816,1391.75 999.954,1396.75 1021.09,1399.82 1042.23,1404.28 1063.37,1409.74 1084.5,1414.91 1105.64,1414.97 1126.78,1413.74 1147.92,1408.32 1169.05,1406.45 1190.19,1404.04 1211.33,1393.9 1232.47,1380.44 1253.6,1348.26 1274.74,1289.64 1295.88,1190.33 1317.02,1098.29 1338.15,1060.26 1359.29,979.662 1380.43,963.364 1401.57,970.906 1422.7,955.974 1443.84,993.017 1464.98,1041.84 1486.12,1026.52 1507.25,1113.28 1528.39,1172.83 1549.53,1224.92 1570.67,1267.89 1591.8,1306.09 1612.94,1329.78 1634.08,1345.46 1655.22,1353.65 1676.35,1367.68 1697.49,1376.72 1718.63,1386.14 1739.77,1391.23 1760.9,1397.9 1782.04,1402.03 1803.18,1403.54 1824.32,1407.19 1845.46,1410.91 1866.59,1402.87 1887.73,1398.09 1908.87,1390.49 1930.01,1357.59 1951.14,1322.19 1972.28,1281.2 1993.42,1212.9 2014.56,1185.38 2035.69,1128.39 2056.83,1077.06 2077.97,985.592 2099.11,954.832 2120.24,927 2141.38,1020.09 2162.52,1111.51 2183.66,1182.86 2204.79,1226.19 2225.93,1256.58 2247.07,1276.95 2268.21,1293.36 2289.34,1304.03 "/>
</svg>
