<?xml version="1.0" encoding="utf-8"?>
<svg xmlns="http://www.w3.org/2000/svg" xmlns:xlink="http://www.w3.org/1999/xlink" width="600" height="400" viewBox="0 0 2400 1600">
<defs>
  <clipPath id="clip290">
    <rect x="0" y="0" width="2400" height="1600"/>
  </clipPath>
</defs>
<path clip-path="url(#clip290)" d="M0 1600 L2400 1600 L2400 0 L0 0  Z" fill="#ffffff" fill-rule="evenodd" fill-opacity="1"/>
<defs>
  <clipPath id="clip291">
    <rect x="186" y="47" width="2167" height="1440"/>
  </clipPath>
</defs>
<path clip-path="url(#clip290)" d="M186.274 1486.45 L2352.76 1486.45 L2352.76 47.2441 L186.274 47.2441  Z" fill="#ffffff" fill-rule="evenodd" fill-opacity="1"/>
<polyline clip-path="url(#clip291)" style="stroke:#000000; stroke-linecap:round; stroke-linejoin:round; stroke-width:2; stroke-opacity:0.1; fill:none" points="247.59,1486.45 247.59,47.2441 "/>
<polyline clip-path="url(#clip291)" style="stroke:#000000; stroke-linecap:round; stroke-linejoin:round; stroke-width:2; stroke-opacity:0.1; fill:none" points="758.552,1486.45 758.552,47.2441 "/>
<polyline clip-path="url(#clip291)" style="stroke:#000000; stroke-linecap:round; stroke-linejoin:round; stroke-width:2; stroke-opacity:0.1; fill:none" points="1269.51,1486.45 1269.51,47.2441 "/>
<polyline clip-path="url(#clip291)" style="stroke:#000000; stroke-linecap:round; stroke-linejoin:round; stroke-width:2; stroke-opacity:0.1; fill:none" points="1780.48,1486.45 1780.48,47.2441 "/>
<polyline clip-path="url(#clip291)" style="stroke:#000000; stroke-linecap:round; stroke-linejoin:round; stroke-width:2; stroke-opacity:0.1; fill:none" points="2291.44,1486.45 2291.44,47.2441 "/>
<polyline clip-path="url(#clip291)" style="stroke:#000000; stroke-linecap:round; stroke-linejoin:round; stroke-width:2; stroke-opacity:0.1; fill:none" points="186.274,1288.4 2352.76,1288.4 "/>
<polyline clip-path="url(#clip291)" style="stroke:#000000; stroke-linecap:round; stroke-linejoin:round; stroke-width:2; stroke-opacity:0.1; fill:none" points="186.274,945.267 2352.76,945.267 "/>
<polyline clip-path="url(#clip291)" style="stroke:#000000; stroke-linecap:round; stroke-linejoin:round; stroke-width:2; stroke-opacity:0.1; fill:none" points="186.274,602.133 2352.76,602.133 "/>
<polyline clip-path="url(#clip291)" style="stroke:#000000; stroke-linecap:round; stroke-linejoin:round; stroke-width:2; stroke-opacity:0.1; fill:none" points="186.274,259 2352.76,259 "/>
<polyline clip-path="url(#clip290)" style="stroke:#000000; stroke-linecap:round; stroke-linejoin:round; stroke-width:4; stroke-opacity:1; fill:none" points="186.274,1486.45 2352.76,1486.45 "/>
<polyline clip-path="url(#clip290)" style="stroke:#000000; stroke-linecap:round; stroke-linejoin:round; stroke-width:4; stroke-opacity:1; fill:none" points="247.59,1486.45 247.59,1467.55 "/>
<polyline clip-path="url(#clip290)" style="stroke:#000000; stroke-linecap:round; stroke-linejoin:round; stroke-width:4; stroke-opacity:1; fill:none" points="758.552,1486.45 758.552,1467.55 "/>
<polyline clip-path="url(#clip290)" style="stroke:#000000; stroke-linecap:round; stroke-linejoin:round; stroke-width:4; stroke-opacity:1; fill:none" points="1269.51,1486.45 1269.51,1467.55 "/>
<polyline clip-path="url(#clip290)" style="stroke:#000000; stroke-linecap:round; stroke-linejoin:round; stroke-width:4; stroke-opacity:1; fill:none" points="1780.48,1486.45 1780.48,1467.55 "/>
<polyline clip-path="url(#clip290)" style="stroke:#000000; stroke-linecap:round; stroke-linejoin:round; stroke-width:4; stroke-opacity:1; fill:none" points="2291.44,1486.45 2291.44,1467.55 "/>
<path clip-path="url(#clip290)" d="M209.893 1517.37 Q206.282 1517.37 204.453 1520.93 Q202.648 1524.47 202.648 1531.6 Q202.648 1538.71 204.453 1542.27 Q206.282 1545.82 209.893 1545.82 Q213.527 1545.82 215.333 1542.27 Q217.161 1538.71 217.161 1531.6 Q217.161 1524.47 215.333 1520.93 Q213.527 1517.37 209.893 1517.37 M209.893 1513.66 Q215.703 1513.66 218.759 1518.27 Q221.837 1522.85 221.837 1531.6 Q221.837 1540.33 218.759 1544.94 Q215.703 1549.52 209.893 1549.52 Q204.083 1549.52 201.004 1544.94 Q197.949 1540.33 197.949 1531.6 Q197.949 1522.85 201.004 1518.27 Q204.083 1513.66 209.893 1513.66 Z" fill="#000000" fill-rule="nonzero" fill-opacity="1" /><path clip-path="url(#clip290)" d="M230.055 1542.97 L234.939 1542.97 L234.939 1548.85 L230.055 1548.85 L230.055 1542.97 Z" fill="#000000" fill-rule="nonzero" fill-opacity="1" /><path clip-path="url(#clip290)" d="M255.124 1517.37 Q251.513 1517.37 249.684 1520.93 Q247.879 1524.47 247.879 1531.6 Q247.879 1538.71 249.684 1542.27 Q251.513 1545.82 255.124 1545.82 Q258.758 1545.82 260.564 1542.27 Q262.393 1538.71 262.393 1531.6 Q262.393 1524.47 260.564 1520.93 Q258.758 1517.37 255.124 1517.37 M255.124 1513.66 Q260.934 1513.66 263.99 1518.27 Q267.069 1522.85 267.069 1531.6 Q267.069 1540.33 263.99 1544.94 Q260.934 1549.52 255.124 1549.52 Q249.314 1549.52 246.235 1544.94 Q243.18 1540.33 243.18 1531.6 Q243.18 1522.85 246.235 1518.27 Q249.314 1513.66 255.124 1513.66 Z" fill="#000000" fill-rule="nonzero" fill-opacity="1" /><path clip-path="url(#clip290)" d="M285.286 1517.37 Q281.675 1517.37 279.846 1520.93 Q278.041 1524.47 278.041 1531.6 Q278.041 1538.71 279.846 1542.27 Q281.675 1545.82 285.286 1545.82 Q288.92 1545.82 290.726 1542.27 Q292.555 1538.71 292.555 1531.6 Q292.555 1524.47 290.726 1520.93 Q288.92 1517.37 285.286 1517.37 M285.286 1513.66 Q291.096 1513.66 294.152 1518.27 Q297.23 1522.85 297.23 1531.6 Q297.23 1540.33 294.152 1544.94 Q291.096 1549.52 285.286 1549.52 Q279.476 1549.52 276.397 1544.94 Q273.342 1540.33 273.342 1531.6 Q273.342 1522.85 276.397 1518.27 Q279.476 1513.66 285.286 1513.66 Z" fill="#000000" fill-rule="nonzero" fill-opacity="1" /><path clip-path="url(#clip290)" d="M721.353 1517.37 Q717.742 1517.37 715.914 1520.93 Q714.108 1524.47 714.108 1531.6 Q714.108 1538.71 715.914 1542.27 Q717.742 1545.82 721.353 1545.82 Q724.988 1545.82 726.793 1542.27 Q728.622 1538.71 728.622 1531.6 Q728.622 1524.47 726.793 1520.93 Q724.988 1517.37 721.353 1517.37 M721.353 1513.66 Q727.164 1513.66 730.219 1518.27 Q733.298 1522.85 733.298 1531.6 Q733.298 1540.33 730.219 1544.94 Q727.164 1549.52 721.353 1549.52 Q715.543 1549.52 712.465 1544.94 Q709.409 1540.33 709.409 1531.6 Q709.409 1522.85 712.465 1518.27 Q715.543 1513.66 721.353 1513.66 Z" fill="#000000" fill-rule="nonzero" fill-opacity="1" /><path clip-path="url(#clip290)" d="M741.515 1542.97 L746.4 1542.97 L746.4 1548.85 L741.515 1548.85 L741.515 1542.97 Z" fill="#000000" fill-rule="nonzero" fill-opacity="1" /><path clip-path="url(#clip290)" d="M760.612 1544.91 L776.932 1544.91 L776.932 1548.85 L754.987 1548.85 L754.987 1544.91 Q757.649 1542.16 762.233 1537.53 Q766.839 1532.88 768.02 1531.53 Q770.265 1529.01 771.145 1527.27 Q772.048 1525.51 772.048 1523.82 Q772.048 1521.07 770.103 1519.33 Q768.182 1517.6 765.08 1517.6 Q762.881 1517.6 760.427 1518.36 Q757.997 1519.13 755.219 1520.68 L755.219 1515.95 Q758.043 1514.82 760.497 1514.24 Q762.95 1513.66 764.987 1513.66 Q770.358 1513.66 773.552 1516.35 Q776.747 1519.03 776.747 1523.52 Q776.747 1525.65 775.936 1527.57 Q775.149 1529.47 773.043 1532.07 Q772.464 1532.74 769.362 1535.95 Q766.261 1539.15 760.612 1544.91 Z" fill="#000000" fill-rule="nonzero" fill-opacity="1" /><path clip-path="url(#clip290)" d="M786.793 1514.29 L805.149 1514.29 L805.149 1518.22 L791.075 1518.22 L791.075 1526.7 Q792.094 1526.35 793.112 1526.19 Q794.131 1526 795.149 1526 Q800.936 1526 804.316 1529.17 Q807.695 1532.34 807.695 1537.76 Q807.695 1543.34 804.223 1546.44 Q800.751 1549.52 794.432 1549.52 Q792.256 1549.52 789.987 1549.15 Q787.742 1548.78 785.335 1548.04 L785.335 1543.34 Q787.418 1544.47 789.64 1545.03 Q791.862 1545.58 794.339 1545.58 Q798.344 1545.58 800.682 1543.48 Q803.02 1541.37 803.02 1537.76 Q803.02 1534.15 800.682 1532.04 Q798.344 1529.94 794.339 1529.94 Q792.464 1529.94 790.589 1530.35 Q788.737 1530.77 786.793 1531.65 L786.793 1514.29 Z" fill="#000000" fill-rule="nonzero" fill-opacity="1" /><path clip-path="url(#clip290)" d="M1231.82 1517.37 Q1228.21 1517.37 1226.38 1520.93 Q1224.57 1524.47 1224.57 1531.6 Q1224.57 1538.71 1226.38 1542.27 Q1228.21 1545.82 1231.82 1545.82 Q1235.45 1545.82 1237.26 1542.27 Q1239.09 1538.71 1239.09 1531.6 Q1239.09 1524.47 1237.26 1520.93 Q1235.45 1517.37 1231.82 1517.37 M1231.82 1513.66 Q1237.63 1513.66 1240.68 1518.27 Q1243.76 1522.85 1243.76 1531.6 Q1243.76 1540.33 1240.68 1544.94 Q1237.63 1549.52 1231.82 1549.52 Q1226.01 1549.52 1222.93 1544.94 Q1219.87 1540.33 1219.87 1531.6 Q1219.87 1522.85 1222.93 1518.27 Q1226.01 1513.66 1231.82 1513.66 Z" fill="#000000" fill-rule="nonzero" fill-opacity="1" /><path clip-path="url(#clip290)" d="M1251.98 1542.97 L1256.86 1542.97 L1256.86 1548.85 L1251.98 1548.85 L1251.98 1542.97 Z" fill="#000000" fill-rule="nonzero" fill-opacity="1" /><path clip-path="url(#clip290)" d="M1267.1 1514.29 L1285.45 1514.29 L1285.45 1518.22 L1271.38 1518.22 L1271.38 1526.7 Q1272.4 1526.35 1273.42 1526.19 Q1274.43 1526 1275.45 1526 Q1281.24 1526 1284.62 1529.17 Q1288 1532.34 1288 1537.76 Q1288 1543.34 1284.53 1546.44 Q1281.05 1549.52 1274.73 1549.52 Q1272.56 1549.52 1270.29 1549.15 Q1268.05 1548.78 1265.64 1548.04 L1265.64 1543.34 Q1267.72 1544.47 1269.94 1545.03 Q1272.17 1545.58 1274.64 1545.58 Q1278.65 1545.58 1280.98 1543.48 Q1283.32 1541.37 1283.32 1537.76 Q1283.32 1534.15 1280.98 1532.04 Q1278.65 1529.94 1274.64 1529.94 Q1272.77 1529.94 1270.89 1530.35 Q1269.04 1530.77 1267.1 1531.65 L1267.1 1514.29 Z" fill="#000000" fill-rule="nonzero" fill-opacity="1" /><path clip-path="url(#clip290)" d="M1307.21 1517.37 Q1303.6 1517.37 1301.77 1520.93 Q1299.97 1524.47 1299.97 1531.6 Q1299.97 1538.71 1301.77 1542.27 Q1303.6 1545.82 1307.21 1545.82 Q1310.85 1545.82 1312.65 1542.27 Q1314.48 1538.71 1314.48 1531.6 Q1314.48 1524.47 1312.65 1520.93 Q1310.85 1517.37 1307.21 1517.37 M1307.21 1513.66 Q1313.02 1513.66 1316.08 1518.27 Q1319.16 1522.85 1319.16 1531.6 Q1319.16 1540.33 1316.08 1544.94 Q1313.02 1549.52 1307.21 1549.52 Q1301.4 1549.52 1298.32 1544.94 Q1295.27 1540.33 1295.27 1531.6 Q1295.27 1522.85 1298.32 1518.27 Q1301.4 1513.66 1307.21 1513.66 Z" fill="#000000" fill-rule="nonzero" fill-opacity="1" /><path clip-path="url(#clip290)" d="M1743.28 1517.37 Q1739.67 1517.37 1737.84 1520.93 Q1736.03 1524.47 1736.03 1531.6 Q1736.03 1538.71 1737.84 1542.27 Q1739.67 1545.82 1743.28 1545.82 Q1746.91 1545.82 1748.72 1542.27 Q1750.55 1538.71 1750.55 1531.6 Q1750.55 1524.47 1748.72 1520.93 Q1746.91 1517.37 1743.28 1517.37 M1743.28 1513.66 Q1749.09 1513.66 1752.14 1518.27 Q1755.22 1522.85 1755.22 1531.6 Q1755.22 1540.33 1752.14 1544.94 Q1749.09 1549.52 1743.28 1549.52 Q1737.47 1549.52 1734.39 1544.94 Q1731.33 1540.33 1731.33 1531.6 Q1731.33 1522.85 1734.39 1518.27 Q1737.47 1513.66 1743.28 1513.66 Z" fill="#000000" fill-rule="nonzero" fill-opacity="1" /><path clip-path="url(#clip290)" d="M1763.44 1542.97 L1768.32 1542.97 L1768.32 1548.85 L1763.44 1548.85 L1763.44 1542.97 Z" fill="#000000" fill-rule="nonzero" fill-opacity="1" /><path clip-path="url(#clip290)" d="M1777.33 1514.29 L1799.55 1514.29 L1799.55 1516.28 L1787.01 1548.85 L1782.12 1548.85 L1793.93 1518.22 L1777.33 1518.22 L1777.33 1514.29 Z" fill="#000000" fill-rule="nonzero" fill-opacity="1" /><path clip-path="url(#clip290)" d="M1808.72 1514.29 L1827.07 1514.29 L1827.07 1518.22 L1813 1518.22 L1813 1526.7 Q1814.02 1526.35 1815.04 1526.19 Q1816.06 1526 1817.07 1526 Q1822.86 1526 1826.24 1529.17 Q1829.62 1532.34 1829.62 1537.76 Q1829.62 1543.34 1826.15 1546.44 Q1822.68 1549.52 1816.36 1549.52 Q1814.18 1549.52 1811.91 1549.15 Q1809.67 1548.78 1807.26 1548.04 L1807.26 1543.34 Q1809.34 1544.47 1811.57 1545.03 Q1813.79 1545.58 1816.26 1545.58 Q1820.27 1545.58 1822.61 1543.48 Q1824.95 1541.37 1824.95 1537.76 Q1824.95 1534.15 1822.61 1532.04 Q1820.27 1529.94 1816.26 1529.94 Q1814.39 1529.94 1812.51 1530.35 Q1810.66 1530.77 1808.72 1531.65 L1808.72 1514.29 Z" fill="#000000" fill-rule="nonzero" fill-opacity="1" /><path clip-path="url(#clip290)" d="M2243.51 1544.91 L2251.15 1544.91 L2251.15 1518.55 L2242.84 1520.21 L2242.84 1515.95 L2251.1 1514.29 L2255.78 1514.29 L2255.78 1544.91 L2263.42 1544.91 L2263.42 1548.85 L2243.51 1548.85 L2243.51 1544.91 Z" fill="#000000" fill-rule="nonzero" fill-opacity="1" /><path clip-path="url(#clip290)" d="M2272.86 1542.97 L2277.75 1542.97 L2277.75 1548.85 L2272.86 1548.85 L2272.86 1542.97 Z" fill="#000000" fill-rule="nonzero" fill-opacity="1" /><path clip-path="url(#clip290)" d="M2297.93 1517.37 Q2294.32 1517.37 2292.49 1520.93 Q2290.69 1524.47 2290.69 1531.6 Q2290.69 1538.71 2292.49 1542.27 Q2294.32 1545.82 2297.93 1545.82 Q2301.57 1545.82 2303.37 1542.27 Q2305.2 1538.71 2305.2 1531.6 Q2305.2 1524.47 2303.37 1520.93 Q2301.57 1517.37 2297.93 1517.37 M2297.93 1513.66 Q2303.74 1513.66 2306.8 1518.27 Q2309.88 1522.85 2309.88 1531.6 Q2309.88 1540.33 2306.8 1544.94 Q2303.74 1549.52 2297.93 1549.52 Q2292.12 1549.52 2289.04 1544.94 Q2285.99 1540.33 2285.99 1531.6 Q2285.99 1522.85 2289.04 1518.27 Q2292.12 1513.66 2297.93 1513.66 Z" fill="#000000" fill-rule="nonzero" fill-opacity="1" /><path clip-path="url(#clip290)" d="M2328.1 1517.37 Q2324.48 1517.37 2322.66 1520.93 Q2320.85 1524.47 2320.85 1531.6 Q2320.85 1538.71 2322.66 1542.27 Q2324.48 1545.82 2328.1 1545.82 Q2331.73 1545.82 2333.54 1542.27 Q2335.36 1538.71 2335.36 1531.6 Q2335.36 1524.47 2333.54 1520.93 Q2331.73 1517.37 2328.1 1517.37 M2328.1 1513.66 Q2333.91 1513.66 2336.96 1518.27 Q2340.04 1522.85 2340.04 1531.6 Q2340.04 1540.33 2336.96 1544.94 Q2333.91 1549.52 2328.1 1549.52 Q2322.29 1549.52 2319.21 1544.94 Q2316.15 1540.33 2316.15 1531.6 Q2316.15 1522.85 2319.21 1518.27 Q2322.29 1513.66 2328.1 1513.66 Z" fill="#000000" fill-rule="nonzero" fill-opacity="1" /><polyline clip-path="url(#clip290)" style="stroke:#000000; stroke-linecap:round; stroke-linejoin:round; stroke-width:4; stroke-opacity:1; fill:none" points="186.274,1486.45 186.274,47.2441 "/>
<polyline clip-path="url(#clip290)" style="stroke:#000000; stroke-linecap:round; stroke-linejoin:round; stroke-width:4; stroke-opacity:1; fill:none" points="186.274,1288.4 205.172,1288.4 "/>
<polyline clip-path="url(#clip290)" style="stroke:#000000; stroke-linecap:round; stroke-linejoin:round; stroke-width:4; stroke-opacity:1; fill:none" points="186.274,945.267 205.172,945.267 "/>
<polyline clip-path="url(#clip290)" style="stroke:#000000; stroke-linecap:round; stroke-linejoin:round; stroke-width:4; stroke-opacity:1; fill:none" points="186.274,602.133 205.172,602.133 "/>
<polyline clip-path="url(#clip290)" style="stroke:#000000; stroke-linecap:round; stroke-linejoin:round; stroke-width:4; stroke-opacity:1; fill:none" points="186.274,259 205.172,259 "/>
<path clip-path="url(#clip290)" d="M62.9365 1274.2 Q59.3254 1274.2 57.4967 1277.76 Q55.6912 1281.3 55.6912 1288.43 Q55.6912 1295.54 57.4967 1299.11 Q59.3254 1302.65 62.9365 1302.65 Q66.5707 1302.65 68.3763 1299.11 Q70.205 1295.54 70.205 1288.43 Q70.205 1281.3 68.3763 1277.76 Q66.5707 1274.2 62.9365 1274.2 M62.9365 1270.49 Q68.7467 1270.49 71.8022 1275.1 Q74.8809 1279.68 74.8809 1288.43 Q74.8809 1297.16 71.8022 1301.77 Q68.7467 1306.35 62.9365 1306.35 Q57.1264 1306.35 54.0477 1301.77 Q50.9921 1297.16 50.9921 1288.43 Q50.9921 1279.68 54.0477 1275.1 Q57.1264 1270.49 62.9365 1270.49 Z" fill="#000000" fill-rule="nonzero" fill-opacity="1" /><path clip-path="url(#clip290)" d="M83.0984 1299.8 L87.9827 1299.8 L87.9827 1305.68 L83.0984 1305.68 L83.0984 1299.8 Z" fill="#000000" fill-rule="nonzero" fill-opacity="1" /><path clip-path="url(#clip290)" d="M98.2141 1271.12 L116.57 1271.12 L116.57 1275.05 L102.496 1275.05 L102.496 1283.53 Q103.515 1283.18 104.534 1283.02 Q105.552 1282.83 106.571 1282.83 Q112.358 1282.83 115.737 1286 Q119.117 1289.18 119.117 1294.59 Q119.117 1300.17 115.645 1303.27 Q112.172 1306.35 105.853 1306.35 Q103.677 1306.35 101.409 1305.98 Q99.1632 1305.61 96.7558 1304.87 L96.7558 1300.17 Q98.8391 1301.3 101.061 1301.86 Q103.284 1302.42 105.76 1302.42 Q109.765 1302.42 112.103 1300.31 Q114.441 1298.2 114.441 1294.59 Q114.441 1290.98 112.103 1288.87 Q109.765 1286.77 105.76 1286.77 Q103.885 1286.77 102.01 1287.18 Q100.159 1287.6 98.2141 1288.48 L98.2141 1271.12 Z" fill="#000000" fill-rule="nonzero" fill-opacity="1" /><path clip-path="url(#clip290)" d="M138.33 1274.2 Q134.719 1274.2 132.89 1277.76 Q131.084 1281.3 131.084 1288.43 Q131.084 1295.54 132.89 1299.11 Q134.719 1302.65 138.33 1302.65 Q141.964 1302.65 143.769 1299.11 Q145.598 1295.54 145.598 1288.43 Q145.598 1281.3 143.769 1277.76 Q141.964 1274.2 138.33 1274.2 M138.33 1270.49 Q144.14 1270.49 147.195 1275.1 Q150.274 1279.68 150.274 1288.43 Q150.274 1297.16 147.195 1301.77 Q144.14 1306.35 138.33 1306.35 Q132.519 1306.35 129.441 1301.77 Q126.385 1297.16 126.385 1288.43 Q126.385 1279.68 129.441 1275.1 Q132.519 1270.49 138.33 1270.49 Z" fill="#000000" fill-rule="nonzero" fill-opacity="1" /><path clip-path="url(#clip290)" d="M63.9319 931.065 Q60.3208 931.065 58.4921 934.63 Q56.6865 938.172 56.6865 945.301 Q56.6865 952.408 58.4921 955.973 Q60.3208 959.514 63.9319 959.514 Q67.5661 959.514 69.3717 955.973 Q71.2004 952.408 71.2004 945.301 Q71.2004 938.172 69.3717 934.63 Q67.5661 931.065 63.9319 931.065 M63.9319 927.362 Q69.742 927.362 72.7976 931.968 Q75.8763 936.551 75.8763 945.301 Q75.8763 954.028 72.7976 958.635 Q69.742 963.218 63.9319 963.218 Q58.1217 963.218 55.043 958.635 Q51.9875 954.028 51.9875 945.301 Q51.9875 936.551 55.043 931.968 Q58.1217 927.362 63.9319 927.362 Z" fill="#000000" fill-rule="nonzero" fill-opacity="1" /><path clip-path="url(#clip290)" d="M84.0938 956.667 L88.978 956.667 L88.978 962.547 L84.0938 962.547 L84.0938 956.667 Z" fill="#000000" fill-rule="nonzero" fill-opacity="1" /><path clip-path="url(#clip290)" d="M97.9826 927.987 L120.205 927.987 L120.205 929.977 L107.658 962.547 L102.774 962.547 L114.58 931.922 L97.9826 931.922 L97.9826 927.987 Z" fill="#000000" fill-rule="nonzero" fill-opacity="1" /><path clip-path="url(#clip290)" d="M129.371 927.987 L147.728 927.987 L147.728 931.922 L133.654 931.922 L133.654 940.394 Q134.672 940.047 135.691 939.885 Q136.709 939.699 137.728 939.699 Q143.515 939.699 146.894 942.871 Q150.274 946.042 150.274 951.459 Q150.274 957.037 146.802 960.139 Q143.33 963.218 137.01 963.218 Q134.834 963.218 132.566 962.848 Q130.32 962.477 127.913 961.736 L127.913 957.037 Q129.996 958.172 132.219 958.727 Q134.441 959.283 136.918 959.283 Q140.922 959.283 143.26 957.176 Q145.598 955.07 145.598 951.459 Q145.598 947.848 143.26 945.741 Q140.922 943.635 136.918 943.635 Q135.043 943.635 133.168 944.051 Q131.316 944.468 129.371 945.348 L129.371 927.987 Z" fill="#000000" fill-rule="nonzero" fill-opacity="1" /><path clip-path="url(#clip290)" d="M53.7467 615.478 L61.3856 615.478 L61.3856 589.113 L53.0754 590.779 L53.0754 586.52 L61.3393 584.853 L66.0152 584.853 L66.0152 615.478 L73.654 615.478 L73.654 619.413 L53.7467 619.413 L53.7467 615.478 Z" fill="#000000" fill-rule="nonzero" fill-opacity="1" /><path clip-path="url(#clip290)" d="M83.0984 613.534 L87.9827 613.534 L87.9827 619.413 L83.0984 619.413 L83.0984 613.534 Z" fill="#000000" fill-rule="nonzero" fill-opacity="1" /><path clip-path="url(#clip290)" d="M108.168 587.932 Q104.557 587.932 102.728 591.497 Q100.922 595.039 100.922 602.168 Q100.922 609.275 102.728 612.839 Q104.557 616.381 108.168 616.381 Q111.802 616.381 113.608 612.839 Q115.436 609.275 115.436 602.168 Q115.436 595.039 113.608 591.497 Q111.802 587.932 108.168 587.932 M108.168 584.228 Q113.978 584.228 117.033 588.835 Q120.112 593.418 120.112 602.168 Q120.112 610.895 117.033 615.501 Q113.978 620.085 108.168 620.085 Q102.358 620.085 99.2789 615.501 Q96.2234 610.895 96.2234 602.168 Q96.2234 593.418 99.2789 588.835 Q102.358 584.228 108.168 584.228 Z" fill="#000000" fill-rule="nonzero" fill-opacity="1" /><path clip-path="url(#clip290)" d="M138.33 587.932 Q134.719 587.932 132.89 591.497 Q131.084 595.039 131.084 602.168 Q131.084 609.275 132.89 612.839 Q134.719 616.381 138.33 616.381 Q141.964 616.381 143.769 612.839 Q145.598 609.275 145.598 602.168 Q145.598 595.039 143.769 591.497 Q141.964 587.932 138.33 587.932 M138.33 584.228 Q144.14 584.228 147.195 588.835 Q150.274 593.418 150.274 602.168 Q150.274 610.895 147.195 615.501 Q144.14 620.085 138.33 620.085 Q132.519 620.085 129.441 615.501 Q126.385 610.895 126.385 602.168 Q126.385 593.418 129.441 588.835 Q132.519 584.228 138.33 584.228 Z" fill="#000000" fill-rule="nonzero" fill-opacity="1" /><path clip-path="url(#clip290)" d="M54.7421 272.345 L62.381 272.345 L62.381 245.98 L54.0708 247.646 L54.0708 243.387 L62.3347 241.72 L67.0106 241.72 L67.0106 272.345 L74.6494 272.345 L74.6494 276.28 L54.7421 276.28 L54.7421 272.345 Z" fill="#000000" fill-rule="nonzero" fill-opacity="1" /><path clip-path="url(#clip290)" d="M84.0938 270.401 L88.978 270.401 L88.978 276.28 L84.0938 276.28 L84.0938 270.401 Z" fill="#000000" fill-rule="nonzero" fill-opacity="1" /><path clip-path="url(#clip290)" d="M103.191 272.345 L119.51 272.345 L119.51 276.28 L97.566 276.28 L97.566 272.345 Q100.228 269.591 104.811 264.961 Q109.418 260.308 110.598 258.966 Q112.844 256.442 113.723 254.706 Q114.626 252.947 114.626 251.257 Q114.626 248.503 112.682 246.767 Q110.76 245.03 107.658 245.03 Q105.459 245.03 103.006 245.794 Q100.575 246.558 97.7974 248.109 L97.7974 243.387 Q100.621 242.253 103.075 241.674 Q105.529 241.095 107.566 241.095 Q112.936 241.095 116.131 243.78 Q119.325 246.466 119.325 250.956 Q119.325 253.086 118.515 255.007 Q117.728 256.905 115.621 259.498 Q115.043 260.169 111.941 263.387 Q108.839 266.581 103.191 272.345 Z" fill="#000000" fill-rule="nonzero" fill-opacity="1" /><path clip-path="url(#clip290)" d="M129.371 241.72 L147.728 241.72 L147.728 245.655 L133.654 245.655 L133.654 254.128 Q134.672 253.78 135.691 253.618 Q136.709 253.433 137.728 253.433 Q143.515 253.433 146.894 256.604 Q150.274 259.776 150.274 265.192 Q150.274 270.771 146.802 273.873 Q143.33 276.952 137.01 276.952 Q134.834 276.952 132.566 276.581 Q130.32 276.211 127.913 275.47 L127.913 270.771 Q129.996 271.905 132.219 272.461 Q134.441 273.016 136.918 273.016 Q140.922 273.016 143.26 270.91 Q145.598 268.803 145.598 265.192 Q145.598 261.581 143.26 259.475 Q140.922 257.368 136.918 257.368 Q135.043 257.368 133.168 257.785 Q131.316 258.202 129.371 259.081 L129.371 241.72 Z" fill="#000000" fill-rule="nonzero" fill-opacity="1" /><polyline clip-path="url(#clip291)" style="stroke:#009af9; stroke-linecap:round; stroke-linejoin:round; stroke-width:12; stroke-opacity:1; fill:none" points="247.59,1288.4 451.975,1244.27 656.36,1185.74 860.745,999.3 1065.13,876.786 1269.51,909.761 1473.9,637.477 1678.29,906.255 1882.67,900.054 2087.06,770.075 2291.44,669.524 "/>
<polyline clip-path="url(#clip291)" style="stroke:#e26f46; stroke-linecap:round; stroke-linejoin:round; stroke-width:12; stroke-opacity:1; fill:none" points="247.59,1288.4 451.975,1326.22 656.36,1388.38 860.745,1445.72 1065.13,1350.96 1269.51,1392 1473.9,1245.58 1678.29,1108.14 1882.67,896.572 2087.06,661.279 2291.44,576.729 "/>
<polyline clip-path="url(#clip291)" style="stroke:#3da44d; stroke-linecap:round; stroke-linejoin:round; stroke-width:12; stroke-opacity:1; fill:none" points="247.59,1288.4 451.975,1247.5 656.36,1120.45 860.745,931.726 1065.13,720.602 1269.51,883.528 1473.9,869.886 1678.29,860.794 1882.67,768.197 2087.06,512.232 2291.44,87.9763 "/>
<polyline clip-path="url(#clip291)" style="stroke:#c271d2; stroke-linecap:round; stroke-linejoin:round; stroke-width:12; stroke-opacity:1; fill:none" points="247.59,1288.4 451.975,1079.2 656.36,1033.93 860.745,1009.66 1065.13,993.654 1269.51,1044.04 1473.9,835.529 1678.29,492.329 1882.67,465.324 2087.06,294.634 2291.44,289.528 "/>
<polyline clip-path="url(#clip291)" style="stroke:#ac8d18; stroke-linecap:round; stroke-linejoin:round; stroke-width:12; stroke-opacity:1; fill:none" points="247.59,1288.4 451.975,1181.8 656.36,1207.96 860.745,1125.13 1065.13,976.194 1269.51,1014.71 1473.9,1093.75 1678.29,1051.44 1882.67,866.816 2087.06,690.317 2291.44,713.744 "/>
<polyline clip-path="url(#clip291)" style="stroke:#00a9ad; stroke-linecap:round; stroke-linejoin:round; stroke-width:12; stroke-opacity:1; fill:none" points="247.59,1288.4 451.975,1311.24 656.36,1246.03 860.745,1055.98 1065.13,849.813 1269.51,937.26 1473.9,866.533 1678.29,1126.82 1882.67,1138.48 2087.06,770.454 2291.44,500.227 "/>
<polyline clip-path="url(#clip291)" style="stroke:#ed5d92; stroke-linecap:round; stroke-linejoin:round; stroke-width:12; stroke-opacity:1; fill:none" points="247.59,1288.4 451.975,1235.03 656.36,1111.29 860.745,1006.77 1065.13,888.205 1269.51,820.316 1473.9,800.919 1678.29,833.233 1882.67,840.64 2087.06,823.386 2291.44,553.737 "/>
<polyline clip-path="url(#clip291)" style="stroke:#c68125; stroke-linecap:round; stroke-linejoin:round; stroke-width:12; stroke-opacity:1; fill:none" points="247.59,1288.4 451.975,1191.73 656.36,1150.02 860.745,1021.58 1065.13,838.673 1269.51,807.6 1473.9,694.122 1678.29,555.247 1882.67,420.017 2087.06,320.1 2291.44,185.728 "/>
</svg>
