<?xml version="1.0" encoding="utf-8"?>
<svg xmlns="http://www.w3.org/2000/svg" xmlns:xlink="http://www.w3.org/1999/xlink" width="600" height="400" viewBox="0 0 2400 1600">
<defs>
  <clipPath id="clip370">
    <rect x="0" y="0" width="2400" height="1600"/>
  </clipPath>
</defs>
<path clip-path="url(#clip370)" d="M0 1600 L2400 1600 L2400 0 L0 0  Z" fill="#ffffff" fill-rule="evenodd" fill-opacity="1"/>
<defs>
  <clipPath id="clip371">
    <rect x="112" y="47" width="2242" height="1440"/>
  </clipPath>
</defs>
<path clip-path="url(#clip370)" d="M112.177 1486.45 L2352.76 1486.45 L2352.76 47.2441 L112.177 47.2441  Z" fill="#ffffff" fill-rule="evenodd" fill-opacity="1"/>
<polyline clip-path="url(#clip371)" style="stroke:#000000; stroke-linecap:round; stroke-linejoin:round; stroke-width:2; stroke-opacity:0.1; fill:none" points="175.59,1486.45 175.59,47.2441 "/>
<polyline clip-path="url(#clip371)" style="stroke:#000000; stroke-linecap:round; stroke-linejoin:round; stroke-width:2; stroke-opacity:0.1; fill:none" points="704.028,1486.45 704.028,47.2441 "/>
<polyline clip-path="url(#clip371)" style="stroke:#000000; stroke-linecap:round; stroke-linejoin:round; stroke-width:2; stroke-opacity:0.1; fill:none" points="1232.47,1486.45 1232.47,47.2441 "/>
<polyline clip-path="url(#clip371)" style="stroke:#000000; stroke-linecap:round; stroke-linejoin:round; stroke-width:2; stroke-opacity:0.1; fill:none" points="1760.9,1486.45 1760.9,47.2441 "/>
<polyline clip-path="url(#clip371)" style="stroke:#000000; stroke-linecap:round; stroke-linejoin:round; stroke-width:2; stroke-opacity:0.1; fill:none" points="2289.34,1486.45 2289.34,47.2441 "/>
<polyline clip-path="url(#clip371)" style="stroke:#000000; stroke-linecap:round; stroke-linejoin:round; stroke-width:2; stroke-opacity:0.1; fill:none" points="112.177,1454.67 2352.76,1454.67 "/>
<polyline clip-path="url(#clip371)" style="stroke:#000000; stroke-linecap:round; stroke-linejoin:round; stroke-width:2; stroke-opacity:0.1; fill:none" points="112.177,1166.52 2352.76,1166.52 "/>
<polyline clip-path="url(#clip371)" style="stroke:#000000; stroke-linecap:round; stroke-linejoin:round; stroke-width:2; stroke-opacity:0.1; fill:none" points="112.177,878.365 2352.76,878.365 "/>
<polyline clip-path="url(#clip371)" style="stroke:#000000; stroke-linecap:round; stroke-linejoin:round; stroke-width:2; stroke-opacity:0.1; fill:none" points="112.177,590.213 2352.76,590.213 "/>
<polyline clip-path="url(#clip371)" style="stroke:#000000; stroke-linecap:round; stroke-linejoin:round; stroke-width:2; stroke-opacity:0.1; fill:none" points="112.177,302.062 2352.76,302.062 "/>
<polyline clip-path="url(#clip370)" style="stroke:#000000; stroke-linecap:round; stroke-linejoin:round; stroke-width:4; stroke-opacity:1; fill:none" points="112.177,1486.45 2352.76,1486.45 "/>
<polyline clip-path="url(#clip370)" style="stroke:#000000; stroke-linecap:round; stroke-linejoin:round; stroke-width:4; stroke-opacity:1; fill:none" points="175.59,1486.45 175.59,1467.55 "/>
<polyline clip-path="url(#clip370)" style="stroke:#000000; stroke-linecap:round; stroke-linejoin:round; stroke-width:4; stroke-opacity:1; fill:none" points="704.028,1486.45 704.028,1467.55 "/>
<polyline clip-path="url(#clip370)" style="stroke:#000000; stroke-linecap:round; stroke-linejoin:round; stroke-width:4; stroke-opacity:1; fill:none" points="1232.47,1486.45 1232.47,1467.55 "/>
<polyline clip-path="url(#clip370)" style="stroke:#000000; stroke-linecap:round; stroke-linejoin:round; stroke-width:4; stroke-opacity:1; fill:none" points="1760.9,1486.45 1760.9,1467.55 "/>
<polyline clip-path="url(#clip370)" style="stroke:#000000; stroke-linecap:round; stroke-linejoin:round; stroke-width:4; stroke-opacity:1; fill:none" points="2289.34,1486.45 2289.34,1467.55 "/>
<path clip-path="url(#clip370)" d="M152.974 1517.37 Q149.363 1517.37 147.534 1520.93 Q145.729 1524.47 145.729 1531.6 Q145.729 1538.71 147.534 1542.27 Q149.363 1545.82 152.974 1545.82 Q156.608 1545.82 158.414 1542.27 Q160.243 1538.71 160.243 1531.6 Q160.243 1524.47 158.414 1520.93 Q156.608 1517.37 152.974 1517.37 M152.974 1513.66 Q158.784 1513.66 161.84 1518.27 Q164.919 1522.85 164.919 1531.6 Q164.919 1540.33 161.84 1544.94 Q158.784 1549.52 152.974 1549.52 Q147.164 1549.52 144.085 1544.94 Q141.03 1540.33 141.03 1531.6 Q141.03 1522.85 144.085 1518.27 Q147.164 1513.66 152.974 1513.66 Z" fill="#000000" fill-rule="nonzero" fill-opacity="1" /><path clip-path="url(#clip370)" d="M173.136 1542.97 L178.02 1542.97 L178.02 1548.85 L173.136 1548.85 L173.136 1542.97 Z" fill="#000000" fill-rule="nonzero" fill-opacity="1" /><path clip-path="url(#clip370)" d="M198.205 1517.37 Q194.594 1517.37 192.766 1520.93 Q190.96 1524.47 190.96 1531.6 Q190.96 1538.71 192.766 1542.27 Q194.594 1545.82 198.205 1545.82 Q201.84 1545.82 203.645 1542.27 Q205.474 1538.71 205.474 1531.6 Q205.474 1524.47 203.645 1520.93 Q201.84 1517.37 198.205 1517.37 M198.205 1513.66 Q204.016 1513.66 207.071 1518.27 Q210.15 1522.85 210.15 1531.6 Q210.15 1540.33 207.071 1544.94 Q204.016 1549.52 198.205 1549.52 Q192.395 1549.52 189.317 1544.94 Q186.261 1540.33 186.261 1531.6 Q186.261 1522.85 189.317 1518.27 Q192.395 1513.66 198.205 1513.66 Z" fill="#000000" fill-rule="nonzero" fill-opacity="1" /><path clip-path="url(#clip370)" d="M675.764 1544.91 L692.084 1544.91 L692.084 1548.85 L670.139 1548.85 L670.139 1544.91 Q672.801 1542.16 677.385 1537.53 Q681.991 1532.88 683.172 1531.53 Q685.417 1529.01 686.297 1527.27 Q687.2 1525.51 687.2 1523.82 Q687.2 1521.07 685.255 1519.33 Q683.334 1517.6 680.232 1517.6 Q678.033 1517.6 675.579 1518.36 Q673.149 1519.13 670.371 1520.68 L670.371 1515.95 Q673.195 1514.82 675.649 1514.24 Q678.102 1513.66 680.139 1513.66 Q685.51 1513.66 688.704 1516.35 Q691.899 1519.03 691.899 1523.52 Q691.899 1525.65 691.088 1527.57 Q690.301 1529.47 688.195 1532.07 Q687.616 1532.74 684.514 1535.95 Q681.413 1539.15 675.764 1544.91 Z" fill="#000000" fill-rule="nonzero" fill-opacity="1" /><path clip-path="url(#clip370)" d="M701.899 1542.97 L706.783 1542.97 L706.783 1548.85 L701.899 1548.85 L701.899 1542.97 Z" fill="#000000" fill-rule="nonzero" fill-opacity="1" /><path clip-path="url(#clip370)" d="M717.014 1514.29 L735.371 1514.29 L735.371 1518.22 L721.297 1518.22 L721.297 1526.7 Q722.315 1526.35 723.334 1526.19 Q724.352 1526 725.371 1526 Q731.158 1526 734.537 1529.17 Q737.917 1532.34 737.917 1537.76 Q737.917 1543.34 734.445 1546.44 Q730.972 1549.52 724.653 1549.52 Q722.477 1549.52 720.209 1549.15 Q717.963 1548.78 715.556 1548.04 L715.556 1543.34 Q717.639 1544.47 719.861 1545.03 Q722.084 1545.58 724.56 1545.58 Q728.565 1545.58 730.903 1543.48 Q733.241 1541.37 733.241 1537.76 Q733.241 1534.15 730.903 1532.04 Q728.565 1529.94 724.56 1529.94 Q722.685 1529.94 720.81 1530.35 Q718.959 1530.77 717.014 1531.65 L717.014 1514.29 Z" fill="#000000" fill-rule="nonzero" fill-opacity="1" /><path clip-path="url(#clip370)" d="M1199.63 1514.29 L1217.99 1514.29 L1217.99 1518.22 L1203.91 1518.22 L1203.91 1526.7 Q1204.93 1526.35 1205.95 1526.19 Q1206.97 1526 1207.99 1526 Q1213.77 1526 1217.15 1529.17 Q1220.53 1532.34 1220.53 1537.76 Q1220.53 1543.34 1217.06 1546.44 Q1213.59 1549.52 1207.27 1549.52 Q1205.09 1549.52 1202.83 1549.15 Q1200.58 1548.78 1198.17 1548.04 L1198.17 1543.34 Q1200.26 1544.47 1202.48 1545.03 Q1204.7 1545.58 1207.18 1545.58 Q1211.18 1545.58 1213.52 1543.48 Q1215.86 1541.37 1215.86 1537.76 Q1215.86 1534.15 1213.52 1532.04 Q1211.18 1529.94 1207.18 1529.94 Q1205.3 1529.94 1203.43 1530.35 Q1201.58 1530.77 1199.63 1531.65 L1199.63 1514.29 Z" fill="#000000" fill-rule="nonzero" fill-opacity="1" /><path clip-path="url(#clip370)" d="M1229.75 1542.97 L1234.63 1542.97 L1234.63 1548.85 L1229.75 1548.85 L1229.75 1542.97 Z" fill="#000000" fill-rule="nonzero" fill-opacity="1" /><path clip-path="url(#clip370)" d="M1254.82 1517.37 Q1251.2 1517.37 1249.38 1520.93 Q1247.57 1524.47 1247.57 1531.6 Q1247.57 1538.71 1249.38 1542.27 Q1251.2 1545.82 1254.82 1545.82 Q1258.45 1545.82 1260.26 1542.27 Q1262.08 1538.71 1262.08 1531.6 Q1262.08 1524.47 1260.26 1520.93 Q1258.45 1517.37 1254.82 1517.37 M1254.82 1513.66 Q1260.63 1513.66 1263.68 1518.27 Q1266.76 1522.85 1266.76 1531.6 Q1266.76 1540.33 1263.68 1544.94 Q1260.63 1549.52 1254.82 1549.52 Q1249.01 1549.52 1245.93 1544.94 Q1242.87 1540.33 1242.87 1531.6 Q1242.87 1522.85 1245.93 1518.27 Q1249.01 1513.66 1254.82 1513.66 Z" fill="#000000" fill-rule="nonzero" fill-opacity="1" /><path clip-path="url(#clip370)" d="M1727.22 1514.29 L1749.45 1514.29 L1749.45 1516.28 L1736.9 1548.85 L1732.02 1548.85 L1743.82 1518.22 L1727.22 1518.22 L1727.22 1514.29 Z" fill="#000000" fill-rule="nonzero" fill-opacity="1" /><path clip-path="url(#clip370)" d="M1758.57 1542.97 L1763.45 1542.97 L1763.45 1548.85 L1758.57 1548.85 L1758.57 1542.97 Z" fill="#000000" fill-rule="nonzero" fill-opacity="1" /><path clip-path="url(#clip370)" d="M1773.68 1514.29 L1792.04 1514.29 L1792.04 1518.22 L1777.97 1518.22 L1777.97 1526.7 Q1778.98 1526.35 1780 1526.19 Q1781.02 1526 1782.04 1526 Q1787.83 1526 1791.21 1529.17 Q1794.59 1532.34 1794.59 1537.76 Q1794.59 1543.34 1791.11 1546.44 Q1787.64 1549.52 1781.32 1549.52 Q1779.15 1549.52 1776.88 1549.15 Q1774.63 1548.78 1772.22 1548.04 L1772.22 1543.34 Q1774.31 1544.47 1776.53 1545.03 Q1778.75 1545.58 1781.23 1545.58 Q1785.23 1545.58 1787.57 1543.48 Q1789.91 1541.37 1789.91 1537.76 Q1789.91 1534.15 1787.57 1532.04 Q1785.23 1529.94 1781.23 1529.94 Q1779.35 1529.94 1777.48 1530.35 Q1775.63 1530.77 1773.68 1531.65 L1773.68 1514.29 Z" fill="#000000" fill-rule="nonzero" fill-opacity="1" /><path clip-path="url(#clip370)" d="M2241.42 1544.91 L2249.05 1544.91 L2249.05 1518.55 L2240.74 1520.21 L2240.74 1515.95 L2249.01 1514.29 L2253.68 1514.29 L2253.68 1544.91 L2261.32 1544.91 L2261.32 1548.85 L2241.42 1548.85 L2241.42 1544.91 Z" fill="#000000" fill-rule="nonzero" fill-opacity="1" /><path clip-path="url(#clip370)" d="M2280.77 1517.37 Q2277.16 1517.37 2275.33 1520.93 Q2273.52 1524.47 2273.52 1531.6 Q2273.52 1538.71 2275.33 1542.27 Q2277.16 1545.82 2280.77 1545.82 Q2284.4 1545.82 2286.21 1542.27 Q2288.04 1538.71 2288.04 1531.6 Q2288.04 1524.47 2286.21 1520.93 Q2284.4 1517.37 2280.77 1517.37 M2280.77 1513.66 Q2286.58 1513.66 2289.63 1518.27 Q2292.71 1522.85 2292.71 1531.6 Q2292.71 1540.33 2289.63 1544.94 Q2286.58 1549.52 2280.77 1549.52 Q2274.96 1549.52 2271.88 1544.94 Q2268.82 1540.33 2268.82 1531.6 Q2268.82 1522.85 2271.88 1518.27 Q2274.96 1513.66 2280.77 1513.66 Z" fill="#000000" fill-rule="nonzero" fill-opacity="1" /><path clip-path="url(#clip370)" d="M2300.93 1542.97 L2305.81 1542.97 L2305.81 1548.85 L2300.93 1548.85 L2300.93 1542.97 Z" fill="#000000" fill-rule="nonzero" fill-opacity="1" /><path clip-path="url(#clip370)" d="M2326 1517.37 Q2322.39 1517.37 2320.56 1520.93 Q2318.75 1524.47 2318.75 1531.6 Q2318.75 1538.71 2320.56 1542.27 Q2322.39 1545.82 2326 1545.82 Q2329.63 1545.82 2331.44 1542.27 Q2333.27 1538.71 2333.27 1531.6 Q2333.27 1524.47 2331.44 1520.93 Q2329.63 1517.37 2326 1517.37 M2326 1513.66 Q2331.81 1513.66 2334.86 1518.27 Q2337.94 1522.85 2337.94 1531.6 Q2337.94 1540.33 2334.86 1544.94 Q2331.81 1549.52 2326 1549.52 Q2320.19 1549.52 2317.11 1544.94 Q2314.05 1540.33 2314.05 1531.6 Q2314.05 1522.85 2317.11 1518.27 Q2320.19 1513.66 2326 1513.66 Z" fill="#000000" fill-rule="nonzero" fill-opacity="1" /><polyline clip-path="url(#clip370)" style="stroke:#000000; stroke-linecap:round; stroke-linejoin:round; stroke-width:4; stroke-opacity:1; fill:none" points="112.177,1486.45 112.177,47.2441 "/>
<polyline clip-path="url(#clip370)" style="stroke:#000000; stroke-linecap:round; stroke-linejoin:round; stroke-width:4; stroke-opacity:1; fill:none" points="112.177,1454.67 131.075,1454.67 "/>
<polyline clip-path="url(#clip370)" style="stroke:#000000; stroke-linecap:round; stroke-linejoin:round; stroke-width:4; stroke-opacity:1; fill:none" points="112.177,1166.52 131.075,1166.52 "/>
<polyline clip-path="url(#clip370)" style="stroke:#000000; stroke-linecap:round; stroke-linejoin:round; stroke-width:4; stroke-opacity:1; fill:none" points="112.177,878.365 131.075,878.365 "/>
<polyline clip-path="url(#clip370)" style="stroke:#000000; stroke-linecap:round; stroke-linejoin:round; stroke-width:4; stroke-opacity:1; fill:none" points="112.177,590.213 131.075,590.213 "/>
<polyline clip-path="url(#clip370)" style="stroke:#000000; stroke-linecap:round; stroke-linejoin:round; stroke-width:4; stroke-opacity:1; fill:none" points="112.177,302.062 131.075,302.062 "/>
<path clip-path="url(#clip370)" d="M64.2328 1440.47 Q60.6217 1440.47 58.793 1444.03 Q56.9875 1447.57 56.9875 1454.7 Q56.9875 1461.81 58.793 1465.37 Q60.6217 1468.92 64.2328 1468.92 Q67.867 1468.92 69.6726 1465.37 Q71.5013 1461.81 71.5013 1454.7 Q71.5013 1447.57 69.6726 1444.03 Q67.867 1440.47 64.2328 1440.47 M64.2328 1436.76 Q70.0429 1436.76 73.0985 1441.37 Q76.1772 1445.95 76.1772 1454.7 Q76.1772 1463.43 73.0985 1468.04 Q70.0429 1472.62 64.2328 1472.62 Q58.4226 1472.62 55.344 1468.04 Q52.2884 1463.43 52.2884 1454.7 Q52.2884 1445.95 55.344 1441.37 Q58.4226 1436.76 64.2328 1436.76 Z" fill="#000000" fill-rule="nonzero" fill-opacity="1" /><path clip-path="url(#clip370)" d="M59.8578 1179.86 L76.1772 1179.86 L76.1772 1183.8 L54.2328 1183.8 L54.2328 1179.86 Q56.8949 1177.11 61.4782 1172.48 Q66.0846 1167.82 67.2652 1166.48 Q69.5105 1163.96 70.3902 1162.22 Q71.2929 1160.46 71.2929 1158.77 Q71.2929 1156.02 69.3485 1154.28 Q67.4272 1152.55 64.3254 1152.55 Q62.1263 1152.55 59.6726 1153.31 Q57.2421 1154.07 54.4643 1155.62 L54.4643 1150.9 Q57.2884 1149.77 59.7421 1149.19 Q62.1958 1148.61 64.2328 1148.61 Q69.6031 1148.61 72.7976 1151.3 Q75.992 1153.98 75.992 1158.47 Q75.992 1160.6 75.1818 1162.52 Q74.3948 1164.42 72.2883 1167.01 Q71.7096 1167.68 68.6078 1170.9 Q65.5059 1174.1 59.8578 1179.86 Z" fill="#000000" fill-rule="nonzero" fill-opacity="1" /><path clip-path="url(#clip370)" d="M66.5939 865.159 L54.7884 883.608 L66.5939 883.608 L66.5939 865.159 M65.367 861.085 L71.2466 861.085 L71.2466 883.608 L76.1772 883.608 L76.1772 887.496 L71.2466 887.496 L71.2466 895.645 L66.5939 895.645 L66.5939 887.496 L50.9921 887.496 L50.9921 882.983 L65.367 861.085 Z" fill="#000000" fill-rule="nonzero" fill-opacity="1" /><path clip-path="url(#clip370)" d="M64.6495 588.35 Q61.5013 588.35 59.6495 590.502 Q57.8208 592.655 57.8208 596.405 Q57.8208 600.132 59.6495 602.308 Q61.5013 604.461 64.6495 604.461 Q67.7976 604.461 69.6263 602.308 Q71.4781 600.132 71.4781 596.405 Q71.4781 592.655 69.6263 590.502 Q67.7976 588.35 64.6495 588.35 M73.9318 573.697 L73.9318 577.956 Q72.1726 577.123 70.367 576.683 Q68.5846 576.243 66.8254 576.243 Q62.1958 576.243 59.7421 579.368 Q57.3115 582.493 56.9643 588.813 Q58.33 586.799 60.3902 585.734 Q62.4504 584.646 64.9272 584.646 Q70.1355 584.646 73.1448 587.817 Q76.1772 590.965 76.1772 596.405 Q76.1772 601.729 73.029 604.947 Q69.8809 608.164 64.6495 608.164 Q58.6541 608.164 55.4828 603.581 Q52.3116 598.975 52.3116 590.248 Q52.3116 582.053 56.2004 577.192 Q60.0893 572.308 66.6402 572.308 Q68.3994 572.308 70.1818 572.655 Q71.9874 573.002 73.9318 573.697 Z" fill="#000000" fill-rule="nonzero" fill-opacity="1" /><path clip-path="url(#clip370)" d="M64.3254 302.93 Q60.9921 302.93 59.0708 304.712 Q57.1726 306.494 57.1726 309.619 Q57.1726 312.744 59.0708 314.527 Q60.9921 316.309 64.3254 316.309 Q67.6587 316.309 69.58 314.527 Q71.5013 312.721 71.5013 309.619 Q71.5013 306.494 69.58 304.712 Q67.6819 302.93 64.3254 302.93 M59.6495 300.939 Q56.6402 300.198 54.9504 298.138 Q53.2838 296.078 53.2838 293.115 Q53.2838 288.971 56.2236 286.564 Q59.1865 284.157 64.3254 284.157 Q69.4874 284.157 72.4272 286.564 Q75.367 288.971 75.367 293.115 Q75.367 296.078 73.6772 298.138 Q72.0105 300.198 69.0244 300.939 Q72.404 301.726 74.279 304.018 Q76.1772 306.309 76.1772 309.619 Q76.1772 314.643 73.0985 317.328 Q70.0429 320.013 64.3254 320.013 Q58.6078 320.013 55.5291 317.328 Q52.4736 314.643 52.4736 309.619 Q52.4736 306.309 54.3717 304.018 Q56.2699 301.726 59.6495 300.939 M57.9365 293.555 Q57.9365 296.24 59.6032 297.744 Q61.293 299.249 64.3254 299.249 Q67.3346 299.249 69.0244 297.744 Q70.7374 296.24 70.7374 293.555 Q70.7374 290.869 69.0244 289.365 Q67.3346 287.86 64.3254 287.86 Q61.293 287.86 59.6032 289.365 Q57.9365 290.869 57.9365 293.555 Z" fill="#000000" fill-rule="nonzero" fill-opacity="1" /><path clip-path="url(#clip371)" d="M175.59 1310.59 L196.727 1314.86 L217.865 1317.3 L239.002 1299.45 L260.14 1296.19 L281.277 1278.35 L302.415 1249.79 L323.553 1238.73 L344.69 1235.3 L365.828 1220.26 L386.965 1190.72 L408.103 1176.74 L429.24 1143 L450.378 1080.06 L471.515 981.641 L492.653 913.952 L513.79 852.403 L534.928 745.789 L556.065 676.68 L577.203 744.155 L598.34 832.595 L619.478 976.526 L640.616 1086.4 L661.753 1163.34 L682.891 1234.69 L704.028 1289.1 L725.166 1316.69 L746.303 1333.28 L767.441 1354.89 L788.578 1366.18 L809.716 1373.14 L830.853 1374.51 L851.991 1375.64 L873.128 1372.89 L894.266 1372.25 L915.404 1370.32 L936.541 1377.83 L957.679 1374.52 L978.816 1368.77 L999.954 1362.34 L1021.09 1353.03 L1042.23 1340.6 L1063.37 1328.77 L1084.5 1313.29 L1105.64 1293.41 L1126.78 1269.99 L1147.92 1261.69 L1169.05 1226.16 L1190.19 1179.44 L1211.33 1138.26 L1232.47 1078.04 L1253.6 1067.89 L1274.74 1054.66 L1295.88 1052.11 L1317.02 1133.38 L1338.15 1187.26 L1359.29 1211.22 L1380.43 1215.6 L1401.57 1233.65 L1422.7 1261.65 L1443.84 1287.33 L1464.98 1312.28 L1486.12 1342.07 L1507.25 1358.52 L1528.39 1372.81 L1549.53 1387.77 L1570.67 1395.39 L1591.8 1398.77 L1612.94 1399.74 L1634.08 1398.69 L1655.22 1396.42 L1676.35 1397.34 L1697.49 1395.64 L1718.63 1383.46 L1739.77 1370.09 L1760.9 1357.67 L1782.04 1342.84 L1803.18 1335.23 L1824.32 1322.29 L1845.46 1294.67 L1866.59 1274.84 L1887.73 1247.87 L1908.87 1213.37 L1930.01 1169.52 L1951.14 1126.81 L1972.28 1094.74 L1993.42 1130.87 L2014.56 1168.63 L2035.69 1189.31 L2056.83 1189.85 L2077.97 1227.25 L2099.11 1266.37 L2120.24 1288.52 L2141.38 1311.54 L2162.52 1329.85 L2183.66 1339.23 L2204.79 1344.14 L2225.93 1341.76 L2247.07 1335.4 L2268.21 1336.79 L2289.34 1346.92 L2289.34 903.624 L2268.21 658.741 L2247.07 447.536 L2225.93 346.413 L2204.79 208.116 L2183.66 132.492 L2162.52 134.136 L2141.38 221.412 L2120.24 253.733 L2099.11 368.821 L2077.97 451.592 L2056.83 490.229 L2035.69 430.656 L2014.56 422.844 L1993.42 344.018 L1972.28 385.435 L1951.14 457.639 L1930.01 519.608 L1908.87 476.875 L1887.73 456.761 L1866.59 482.094 L1845.46 614.075 L1824.32 693.946 L1803.18 802.972 L1782.04 851.315 L1760.9 921.177 L1739.77 972.745 L1718.63 1013.88 L1697.49 1065.1 L1676.35 1093.58 L1655.22 1102.11 L1634.08 1109.78 L1612.94 1122.66 L1591.8 1154.51 L1570.67 1156.29 L1549.53 1120.96 L1528.39 1043.36 L1507.25 878.826 L1486.12 522.15 L1464.98 129.356 L1443.84 87.9763 L1422.7 105.896 L1401.57 198.558 L1380.43 193.539 L1359.29 167.565 L1338.15 181.88 L1317.02 264.443 L1295.88 290.369 L1274.74 420.497 L1253.6 474.723 L1232.47 513.557 L1211.33 586.372 L1190.19 653.534 L1169.05 652.492 L1147.92 667.418 L1126.78 724.143 L1105.64 754.197 L1084.5 774.441 L1063.37 854.639 L1042.23 933.381 L1021.09 962.573 L999.954 1017.96 L978.816 1060.96 L957.679 1078.33 L936.541 1135.49 L915.404 1186.24 L894.266 1219.17 L873.128 1225.51 L851.991 1232.66 L830.853 1248.59 L809.716 1225.28 L788.578 1164.08 L767.441 1078.58 L746.303 925.852 L725.166 804.804 L704.028 715.08 L682.891 559.357 L661.753 519.819 L640.616 502.117 L619.478 409.507 L598.34 391.325 L577.203 318.008 L556.065 333.702 L534.928 415.376 L513.79 515.161 L492.653 585.256 L471.515 661.197 L450.378 719.798 L429.24 756.026 L408.103 833.788 L386.965 906.296 L365.828 975.938 L344.69 1046.61 L323.553 1105.02 L302.415 1168.3 L281.277 1197.01 L260.14 1237.75 L239.002 1258.29 L217.865 1275.21 L196.727 1293.59 L175.59 1310.59  Z" fill="#009af9" fill-rule="evenodd" fill-opacity="0.5"/>
<polyline clip-path="url(#clip371)" style="stroke:#009af9; stroke-linecap:round; stroke-linejoin:round; stroke-width:12; stroke-opacity:1; fill:none" points="175.59,1310.59 196.727,1301.09 217.865,1290.16 239.002,1272.97 260.14,1254.21 281.277,1236.67 302.415,1208.03 323.553,1178.3 344.69,1138.76 365.828,1097.46 386.965,1044.86 408.103,990.856 429.24,920.905 450.378,855.618 471.515,778.237 492.653,708.566 513.79,619.496 534.928,588.172 556.065,521.215 577.203,473.239 598.34,450.791 619.478,568.559 640.616,755.838 661.753,919.293 682.891,1046.53 704.028,1140.94 725.166,1209.1 746.303,1249.98 767.441,1278.12 788.578,1292.77 809.716,1302.02 830.853,1304.6 851.991,1305.19 873.128,1314.11 894.266,1308.59 915.404,1296.59 936.541,1282.37 957.679,1258.96 978.816,1237.3 999.954,1208.94 1021.09,1178.28 1042.23,1139.38 1063.37,1096.89 1084.5,1048.05 1105.64,999.061 1126.78,961.763 1147.92,897.821 1169.05,839.153 1190.19,776.66 1211.33,737.403 1232.47,659.694 1253.6,582.051 1274.74,575.62 1295.88,567.323 1317.02,690.54 1338.15,799.892 1359.29,832.829 1380.43,926.608 1401.57,1055.7 1422.7,1123.84 1443.84,1222.72 1464.98,1272.32 1486.12,1292.05 1507.25,1298.43 1528.39,1310.62 1549.53,1313.64 1570.67,1310.82 1591.8,1306.93 1612.94,1290.08 1634.08,1275.25 1655.22,1258.02 1676.35,1235.09 1697.49,1213.42 1718.63,1182.42 1739.77,1159.76 1760.9,1119.49 1782.04,1078.72 1803.18,1028.16 1824.32,966.332 1845.46,908.55 1866.59,876.285 1887.73,857.077 1908.87,818.43 1930.01,743.338 1951.14,802.723 1972.28,816.233 1993.42,776.137 2014.56,753.299 2035.69,825.343 2056.83,877.492 2077.97,939.365 2099.11,1045.97 2120.24,1104.34 2141.38,1123.25 2162.52,1145.79 2183.66,1199.49 2204.79,1253.97 2225.93,1281.45 2247.07,1288.48 2268.21,1276.53 2289.34,1276.54 "/>
<path clip-path="url(#clip371)" d="M175.59 1310.59 L196.727 1349.7 L217.865 1368.27 L239.002 1386.68 L260.14 1404.2 L281.277 1412.05 L302.415 1416.43 L323.553 1421.82 L344.69 1427.5 L365.828 1430.08 L386.965 1433.05 L408.103 1435.01 L429.24 1434.38 L450.378 1434.57 L471.515 1432.37 L492.653 1428.19 L513.79 1422 L534.928 1418.91 L556.065 1408.35 L577.203 1381.52 L598.34 1345.55 L619.478 1281.76 L640.616 1219.13 L661.753 1202.38 L682.891 1185.09 L704.028 1163.39 L725.166 1163.67 L746.303 1207.39 L767.441 1244.13 L788.578 1274.96 L809.716 1304.43 L830.853 1328.83 L851.991 1348.84 L873.128 1368.36 L894.266 1383.93 L915.404 1395.93 L936.541 1404.28 L957.679 1408.56 L978.816 1417.92 L999.954 1425.47 L1021.09 1428.87 L1042.23 1432.4 L1063.37 1435.41 L1084.5 1438.88 L1105.64 1440.11 L1126.78 1441.15 L1147.92 1440.77 L1169.05 1441.26 L1190.19 1442.04 L1211.33 1443.35 L1232.47 1443.63 L1253.6 1443.5 L1274.74 1442.97 L1295.88 1439.08 L1317.02 1432.47 L1338.15 1422.69 L1359.29 1403.84 L1380.43 1364.42 L1401.57 1330.66 L1422.7 1330.38 L1443.84 1303 L1464.98 1270.28 L1486.12 1289.37 L1507.25 1307.61 L1528.39 1321.38 L1549.53 1332.66 L1570.67 1353.28 L1591.8 1371.74 L1612.94 1381.92 L1634.08 1393.82 L1655.22 1402.56 L1676.35 1408.77 L1697.49 1414.17 L1718.63 1420.05 L1739.77 1423.24 L1760.9 1428.64 L1782.04 1432.19 L1803.18 1435.6 L1824.32 1437.82 L1845.46 1439.79 L1866.59 1441.96 L1887.73 1443.48 L1908.87 1443.97 L1930.01 1444.14 L1951.14 1444.63 L1972.28 1445.14 L1993.42 1445.72 L2014.56 1445.59 L2035.69 1444.4 L2056.83 1441.82 L2077.97 1437.17 L2099.11 1429.02 L2120.24 1414.32 L2141.38 1381.99 L2162.52 1373.59 L2183.66 1371.88 L2204.79 1354.05 L2225.93 1322.77 L2247.07 1343.69 L2268.21 1365.04 L2289.34 1375.93 L2289.34 489.595 L2268.21 566.264 L2247.07 663.623 L2225.93 612.025 L2204.79 727.978 L2183.66 912.112 L2162.52 897.1 L2141.38 856.508 L2120.24 768.924 L2099.11 721.739 L2077.97 720.32 L2056.83 806.461 L2035.69 885.268 L2014.56 885.434 L1993.42 893.393 L1972.28 898.76 L1951.14 919.104 L1930.01 1010.59 L1908.87 1115.02 L1887.73 1207.12 L1866.59 1256.13 L1845.46 1295.45 L1824.32 1312.14 L1803.18 1322.24 L1782.04 1322.61 L1760.9 1321.71 L1739.77 1317.89 L1718.63 1308.46 L1697.49 1283.88 L1676.35 1250.24 L1655.22 1217.44 L1634.08 1144.99 L1612.94 1060.65 L1591.8 955.198 L1570.67 823.226 L1549.53 657.832 L1528.39 568.305 L1507.25 561.807 L1486.12 591.02 L1464.98 549.636 L1443.84 551.332 L1422.7 512.514 L1401.57 579.549 L1380.43 768.971 L1359.29 768.226 L1338.15 826.637 L1317.02 923.468 L1295.88 967.485 L1274.74 1000.1 L1253.6 1051.82 L1232.47 1105.19 L1211.33 1163.18 L1190.19 1216.31 L1169.05 1265.96 L1147.92 1305.36 L1126.78 1336.59 L1105.64 1353.14 L1084.5 1369.05 L1063.37 1381.37 L1042.23 1377.63 L1021.09 1367.57 L999.954 1355.09 L978.816 1338.87 L957.679 1307.16 L936.541 1265.96 L915.404 1212 L894.266 1152.02 L873.128 1097.47 L851.991 1038.23 L830.853 971.663 L809.716 892.085 L788.578 809.988 L767.441 811.049 L746.303 805.926 L725.166 732.524 L704.028 707.946 L682.891 669.366 L661.753 666.754 L640.616 752.506 L619.478 908.161 L598.34 1002.83 L577.203 1059.71 L556.065 1149.92 L534.928 1219.65 L513.79 1282.92 L492.653 1330.91 L471.515 1360.21 L450.378 1382.93 L429.24 1394.95 L408.103 1403.35 L386.965 1406.39 L365.828 1406.07 L344.69 1400.86 L323.553 1395.39 L302.415 1393.91 L281.277 1385.59 L260.14 1377.61 L239.002 1364.35 L217.865 1354.89 L196.727 1325.14 L175.59 1310.59  Z" fill="#e26f46" fill-rule="evenodd" fill-opacity="0.5"/>
<polyline clip-path="url(#clip371)" style="stroke:#e26f46; stroke-linecap:round; stroke-linejoin:round; stroke-width:12; stroke-opacity:1; fill:none" points="175.59,1310.59 196.727,1337.68 217.865,1359.19 239.002,1376.26 260.14,1388.94 281.277,1398.8 302.415,1405.93 323.553,1410.29 344.69,1414.35 365.828,1416.37 386.965,1416.07 408.103,1415.21 429.24,1415.22 450.378,1414.76 471.515,1408.39 492.653,1398.09 513.79,1386.05 534.928,1354.54 556.065,1310.29 577.203,1247.49 598.34,1153.29 619.478,1034.68 640.616,949.434 661.753,873.588 682.891,837.597 704.028,859.285 725.166,931.873 746.303,993.598 767.441,1062.21 788.578,1123.43 809.716,1182.88 830.853,1242.32 851.991,1279.2 873.128,1316.35 894.266,1344.93 915.404,1362.68 936.541,1377.48 957.679,1387.62 978.816,1397.3 999.954,1405.03 1021.09,1408.47 1042.23,1409.61 1063.37,1412.47 1084.5,1414 1105.64,1419.5 1126.78,1420.73 1147.92,1415.76 1169.05,1410.28 1190.19,1403.81 1211.33,1388.38 1232.47,1365.54 1253.6,1322.05 1274.74,1264.68 1295.88,1168.81 1317.02,1120.69 1338.15,1102.75 1359.29,1055.09 1380.43,960.24 1401.57,990.594 1422.7,957.002 1443.84,1034.64 1464.98,1104.52 1486.12,1077.43 1507.25,1157.96 1528.39,1216.86 1549.53,1273.8 1570.67,1311.71 1591.8,1324.55 1612.94,1335.07 1634.08,1343.16 1655.22,1367.9 1676.35,1383.54 1697.49,1394.93 1718.63,1404.08 1739.77,1410.03 1760.9,1412.8 1782.04,1412.06 1803.18,1414.26 1824.32,1413.88 1845.46,1416.88 1866.59,1413.96 1887.73,1408.32 1908.87,1401.3 1930.01,1385.7 1951.14,1358.37 1972.28,1307.41 1993.42,1258.03 2014.56,1201.17 2035.69,1120.4 2056.83,1145.29 2077.97,1151.61 2099.11,1130.83 2120.24,1114.97 2141.38,1141.86 2162.52,1152.99 2183.66,1145.31 2204.79,1183.7 2225.93,1203.79 2247.07,1220.7 2268.21,1238.91 2289.34,1252.08 "/>
</svg>
