<?xml version="1.0" encoding="utf-8"?>
<svg xmlns="http://www.w3.org/2000/svg" xmlns:xlink="http://www.w3.org/1999/xlink" width="600" height="400" viewBox="0 0 2400 1600">
<defs>
  <clipPath id="clip430">
    <rect x="0" y="0" width="2400" height="1600"/>
  </clipPath>
</defs>
<path clip-path="url(#clip430)" d="M0 1600 L2400 1600 L2400 0 L0 0  Z" fill="#ffffff" fill-rule="evenodd" fill-opacity="1"/>
<defs>
  <clipPath id="clip431">
    <rect x="155" y="47" width="2198" height="1440"/>
  </clipPath>
</defs>
<path clip-path="url(#clip430)" d="M155.765 1486.45 L2352.76 1486.45 L2352.76 47.2441 L155.765 47.2441  Z" fill="#ffffff" fill-rule="evenodd" fill-opacity="1"/>
<polyline clip-path="url(#clip431)" style="stroke:#000000; stroke-linecap:round; stroke-linejoin:round; stroke-width:2; stroke-opacity:0.1; fill:none" points="217.944,1486.45 217.944,47.2441 "/>
<polyline clip-path="url(#clip431)" style="stroke:#000000; stroke-linecap:round; stroke-linejoin:round; stroke-width:2; stroke-opacity:0.1; fill:none" points="736.102,1486.45 736.102,47.2441 "/>
<polyline clip-path="url(#clip431)" style="stroke:#000000; stroke-linecap:round; stroke-linejoin:round; stroke-width:2; stroke-opacity:0.1; fill:none" points="1254.26,1486.45 1254.26,47.2441 "/>
<polyline clip-path="url(#clip431)" style="stroke:#000000; stroke-linecap:round; stroke-linejoin:round; stroke-width:2; stroke-opacity:0.1; fill:none" points="1772.42,1486.45 1772.42,47.2441 "/>
<polyline clip-path="url(#clip431)" style="stroke:#000000; stroke-linecap:round; stroke-linejoin:round; stroke-width:2; stroke-opacity:0.1; fill:none" points="2290.58,1486.45 2290.58,47.2441 "/>
<polyline clip-path="url(#clip431)" style="stroke:#000000; stroke-linecap:round; stroke-linejoin:round; stroke-width:2; stroke-opacity:0.1; fill:none" points="155.765,1361.02 2352.76,1361.02 "/>
<polyline clip-path="url(#clip431)" style="stroke:#000000; stroke-linecap:round; stroke-linejoin:round; stroke-width:2; stroke-opacity:0.1; fill:none" points="155.765,1157.7 2352.76,1157.7 "/>
<polyline clip-path="url(#clip431)" style="stroke:#000000; stroke-linecap:round; stroke-linejoin:round; stroke-width:2; stroke-opacity:0.1; fill:none" points="155.765,954.378 2352.76,954.378 "/>
<polyline clip-path="url(#clip431)" style="stroke:#000000; stroke-linecap:round; stroke-linejoin:round; stroke-width:2; stroke-opacity:0.1; fill:none" points="155.765,751.056 2352.76,751.056 "/>
<polyline clip-path="url(#clip431)" style="stroke:#000000; stroke-linecap:round; stroke-linejoin:round; stroke-width:2; stroke-opacity:0.1; fill:none" points="155.765,547.735 2352.76,547.735 "/>
<polyline clip-path="url(#clip431)" style="stroke:#000000; stroke-linecap:round; stroke-linejoin:round; stroke-width:2; stroke-opacity:0.1; fill:none" points="155.765,344.413 2352.76,344.413 "/>
<polyline clip-path="url(#clip431)" style="stroke:#000000; stroke-linecap:round; stroke-linejoin:round; stroke-width:2; stroke-opacity:0.1; fill:none" points="155.765,141.092 2352.76,141.092 "/>
<polyline clip-path="url(#clip430)" style="stroke:#000000; stroke-linecap:round; stroke-linejoin:round; stroke-width:4; stroke-opacity:1; fill:none" points="155.765,1486.45 2352.76,1486.45 "/>
<polyline clip-path="url(#clip430)" style="stroke:#000000; stroke-linecap:round; stroke-linejoin:round; stroke-width:4; stroke-opacity:1; fill:none" points="217.944,1486.45 217.944,1467.55 "/>
<polyline clip-path="url(#clip430)" style="stroke:#000000; stroke-linecap:round; stroke-linejoin:round; stroke-width:4; stroke-opacity:1; fill:none" points="736.102,1486.45 736.102,1467.55 "/>
<polyline clip-path="url(#clip430)" style="stroke:#000000; stroke-linecap:round; stroke-linejoin:round; stroke-width:4; stroke-opacity:1; fill:none" points="1254.26,1486.45 1254.26,1467.55 "/>
<polyline clip-path="url(#clip430)" style="stroke:#000000; stroke-linecap:round; stroke-linejoin:round; stroke-width:4; stroke-opacity:1; fill:none" points="1772.42,1486.45 1772.42,1467.55 "/>
<polyline clip-path="url(#clip430)" style="stroke:#000000; stroke-linecap:round; stroke-linejoin:round; stroke-width:4; stroke-opacity:1; fill:none" points="2290.58,1486.45 2290.58,1467.55 "/>
<path clip-path="url(#clip430)" d="M180.247 1517.37 Q176.636 1517.37 174.808 1520.93 Q173.002 1524.47 173.002 1531.6 Q173.002 1538.71 174.808 1542.27 Q176.636 1545.82 180.247 1545.82 Q183.882 1545.82 185.687 1542.27 Q187.516 1538.71 187.516 1531.6 Q187.516 1524.47 185.687 1520.93 Q183.882 1517.37 180.247 1517.37 M180.247 1513.66 Q186.057 1513.66 189.113 1518.27 Q192.192 1522.85 192.192 1531.6 Q192.192 1540.33 189.113 1544.94 Q186.057 1549.52 180.247 1549.52 Q174.437 1549.52 171.358 1544.94 Q168.303 1540.33 168.303 1531.6 Q168.303 1522.85 171.358 1518.27 Q174.437 1513.66 180.247 1513.66 Z" fill="#000000" fill-rule="nonzero" fill-opacity="1" /><path clip-path="url(#clip430)" d="M200.409 1542.97 L205.294 1542.97 L205.294 1548.85 L200.409 1548.85 L200.409 1542.97 Z" fill="#000000" fill-rule="nonzero" fill-opacity="1" /><path clip-path="url(#clip430)" d="M225.479 1517.37 Q221.867 1517.37 220.039 1520.93 Q218.233 1524.47 218.233 1531.6 Q218.233 1538.71 220.039 1542.27 Q221.867 1545.82 225.479 1545.82 Q229.113 1545.82 230.918 1542.27 Q232.747 1538.71 232.747 1531.6 Q232.747 1524.47 230.918 1520.93 Q229.113 1517.37 225.479 1517.37 M225.479 1513.66 Q231.289 1513.66 234.344 1518.27 Q237.423 1522.85 237.423 1531.6 Q237.423 1540.33 234.344 1544.94 Q231.289 1549.52 225.479 1549.52 Q219.668 1549.52 216.59 1544.94 Q213.534 1540.33 213.534 1531.6 Q213.534 1522.85 216.59 1518.27 Q219.668 1513.66 225.479 1513.66 Z" fill="#000000" fill-rule="nonzero" fill-opacity="1" /><path clip-path="url(#clip430)" d="M255.64 1517.37 Q252.029 1517.37 250.201 1520.93 Q248.395 1524.47 248.395 1531.6 Q248.395 1538.71 250.201 1542.27 Q252.029 1545.82 255.64 1545.82 Q259.275 1545.82 261.08 1542.27 Q262.909 1538.71 262.909 1531.6 Q262.909 1524.47 261.08 1520.93 Q259.275 1517.37 255.64 1517.37 M255.64 1513.66 Q261.451 1513.66 264.506 1518.27 Q267.585 1522.85 267.585 1531.6 Q267.585 1540.33 264.506 1544.94 Q261.451 1549.52 255.64 1549.52 Q249.83 1549.52 246.752 1544.94 Q243.696 1540.33 243.696 1531.6 Q243.696 1522.85 246.752 1518.27 Q249.83 1513.66 255.64 1513.66 Z" fill="#000000" fill-rule="nonzero" fill-opacity="1" /><path clip-path="url(#clip430)" d="M698.903 1517.37 Q695.292 1517.37 693.463 1520.93 Q691.658 1524.47 691.658 1531.6 Q691.658 1538.71 693.463 1542.27 Q695.292 1545.82 698.903 1545.82 Q702.538 1545.82 704.343 1542.27 Q706.172 1538.71 706.172 1531.6 Q706.172 1524.47 704.343 1520.93 Q702.538 1517.37 698.903 1517.37 M698.903 1513.66 Q704.713 1513.66 707.769 1518.27 Q710.848 1522.85 710.848 1531.6 Q710.848 1540.33 707.769 1544.94 Q704.713 1549.52 698.903 1549.52 Q693.093 1549.52 690.014 1544.94 Q686.959 1540.33 686.959 1531.6 Q686.959 1522.85 690.014 1518.27 Q693.093 1513.66 698.903 1513.66 Z" fill="#000000" fill-rule="nonzero" fill-opacity="1" /><path clip-path="url(#clip430)" d="M719.065 1542.97 L723.949 1542.97 L723.949 1548.85 L719.065 1548.85 L719.065 1542.97 Z" fill="#000000" fill-rule="nonzero" fill-opacity="1" /><path clip-path="url(#clip430)" d="M738.162 1544.91 L754.482 1544.91 L754.482 1548.85 L732.537 1548.85 L732.537 1544.91 Q735.199 1542.16 739.783 1537.53 Q744.389 1532.88 745.57 1531.53 Q747.815 1529.01 748.695 1527.27 Q749.597 1525.51 749.597 1523.82 Q749.597 1521.07 747.653 1519.33 Q745.732 1517.6 742.63 1517.6 Q740.431 1517.6 737.977 1518.36 Q735.547 1519.13 732.769 1520.68 L732.769 1515.95 Q735.593 1514.82 738.047 1514.24 Q740.5 1513.66 742.537 1513.66 Q747.908 1513.66 751.102 1516.35 Q754.296 1519.03 754.296 1523.52 Q754.296 1525.65 753.486 1527.57 Q752.699 1529.47 750.593 1532.07 Q750.014 1532.74 746.912 1535.95 Q743.81 1539.15 738.162 1544.91 Z" fill="#000000" fill-rule="nonzero" fill-opacity="1" /><path clip-path="url(#clip430)" d="M764.343 1514.29 L782.699 1514.29 L782.699 1518.22 L768.625 1518.22 L768.625 1526.7 Q769.644 1526.35 770.662 1526.19 Q771.681 1526 772.699 1526 Q778.486 1526 781.866 1529.17 Q785.245 1532.34 785.245 1537.76 Q785.245 1543.34 781.773 1546.44 Q778.301 1549.52 771.982 1549.52 Q769.806 1549.52 767.537 1549.15 Q765.292 1548.78 762.884 1548.04 L762.884 1543.34 Q764.968 1544.47 767.19 1545.03 Q769.412 1545.58 771.889 1545.58 Q775.894 1545.58 778.232 1543.48 Q780.57 1541.37 780.57 1537.76 Q780.57 1534.15 778.232 1532.04 Q775.894 1529.94 771.889 1529.94 Q770.014 1529.94 768.139 1530.35 Q766.287 1530.77 764.343 1531.65 L764.343 1514.29 Z" fill="#000000" fill-rule="nonzero" fill-opacity="1" /><path clip-path="url(#clip430)" d="M1216.56 1517.37 Q1212.95 1517.37 1211.12 1520.93 Q1209.32 1524.47 1209.32 1531.6 Q1209.32 1538.71 1211.12 1542.27 Q1212.95 1545.82 1216.56 1545.82 Q1220.2 1545.82 1222 1542.27 Q1223.83 1538.71 1223.83 1531.6 Q1223.83 1524.47 1222 1520.93 Q1220.2 1517.37 1216.56 1517.37 M1216.56 1513.66 Q1222.37 1513.66 1225.43 1518.27 Q1228.51 1522.85 1228.51 1531.6 Q1228.51 1540.33 1225.43 1544.94 Q1222.37 1549.52 1216.56 1549.52 Q1210.75 1549.52 1207.68 1544.94 Q1204.62 1540.33 1204.62 1531.6 Q1204.62 1522.85 1207.68 1518.27 Q1210.75 1513.66 1216.56 1513.66 Z" fill="#000000" fill-rule="nonzero" fill-opacity="1" /><path clip-path="url(#clip430)" d="M1236.73 1542.97 L1241.61 1542.97 L1241.61 1548.85 L1236.73 1548.85 L1236.73 1542.97 Z" fill="#000000" fill-rule="nonzero" fill-opacity="1" /><path clip-path="url(#clip430)" d="M1251.84 1514.29 L1270.2 1514.29 L1270.2 1518.22 L1256.12 1518.22 L1256.12 1526.7 Q1257.14 1526.35 1258.16 1526.19 Q1259.18 1526 1260.2 1526 Q1265.98 1526 1269.36 1529.17 Q1272.74 1532.34 1272.74 1537.76 Q1272.74 1543.34 1269.27 1546.44 Q1265.8 1549.52 1259.48 1549.52 Q1257.3 1549.52 1255.04 1549.15 Q1252.79 1548.78 1250.38 1548.04 L1250.38 1543.34 Q1252.47 1544.47 1254.69 1545.03 Q1256.91 1545.58 1259.39 1545.58 Q1263.39 1545.58 1265.73 1543.48 Q1268.07 1541.37 1268.07 1537.76 Q1268.07 1534.15 1265.73 1532.04 Q1263.39 1529.94 1259.39 1529.94 Q1257.51 1529.94 1255.64 1530.35 Q1253.79 1530.77 1251.84 1531.65 L1251.84 1514.29 Z" fill="#000000" fill-rule="nonzero" fill-opacity="1" /><path clip-path="url(#clip430)" d="M1291.96 1517.37 Q1288.35 1517.37 1286.52 1520.93 Q1284.71 1524.47 1284.71 1531.6 Q1284.71 1538.71 1286.52 1542.27 Q1288.35 1545.82 1291.96 1545.82 Q1295.59 1545.82 1297.4 1542.27 Q1299.23 1538.71 1299.23 1531.6 Q1299.23 1524.47 1297.4 1520.93 Q1295.59 1517.37 1291.96 1517.37 M1291.96 1513.66 Q1297.77 1513.66 1300.82 1518.27 Q1303.9 1522.85 1303.9 1531.6 Q1303.9 1540.33 1300.82 1544.94 Q1297.77 1549.52 1291.96 1549.52 Q1286.15 1549.52 1283.07 1544.94 Q1280.01 1540.33 1280.01 1531.6 Q1280.01 1522.85 1283.07 1518.27 Q1286.15 1513.66 1291.96 1513.66 Z" fill="#000000" fill-rule="nonzero" fill-opacity="1" /><path clip-path="url(#clip430)" d="M1735.22 1517.37 Q1731.61 1517.37 1729.78 1520.93 Q1727.97 1524.47 1727.97 1531.6 Q1727.97 1538.71 1729.78 1542.27 Q1731.61 1545.82 1735.22 1545.82 Q1738.85 1545.82 1740.66 1542.27 Q1742.49 1538.71 1742.49 1531.6 Q1742.49 1524.47 1740.66 1520.93 Q1738.85 1517.37 1735.22 1517.37 M1735.22 1513.66 Q1741.03 1513.66 1744.09 1518.27 Q1747.16 1522.85 1747.16 1531.6 Q1747.16 1540.33 1744.09 1544.94 Q1741.03 1549.52 1735.22 1549.52 Q1729.41 1549.52 1726.33 1544.94 Q1723.28 1540.33 1723.28 1531.6 Q1723.28 1522.85 1726.33 1518.27 Q1729.41 1513.66 1735.22 1513.66 Z" fill="#000000" fill-rule="nonzero" fill-opacity="1" /><path clip-path="url(#clip430)" d="M1755.38 1542.97 L1760.27 1542.97 L1760.27 1548.85 L1755.38 1548.85 L1755.38 1542.97 Z" fill="#000000" fill-rule="nonzero" fill-opacity="1" /><path clip-path="url(#clip430)" d="M1769.27 1514.29 L1791.49 1514.29 L1791.49 1516.28 L1778.95 1548.85 L1774.06 1548.85 L1785.87 1518.22 L1769.27 1518.22 L1769.27 1514.29 Z" fill="#000000" fill-rule="nonzero" fill-opacity="1" /><path clip-path="url(#clip430)" d="M1800.66 1514.29 L1819.02 1514.29 L1819.02 1518.22 L1804.94 1518.22 L1804.94 1526.7 Q1805.96 1526.35 1806.98 1526.19 Q1808 1526 1809.02 1526 Q1814.8 1526 1818.18 1529.17 Q1821.56 1532.34 1821.56 1537.76 Q1821.56 1543.34 1818.09 1546.44 Q1814.62 1549.52 1808.3 1549.52 Q1806.12 1549.52 1803.85 1549.15 Q1801.61 1548.78 1799.2 1548.04 L1799.2 1543.34 Q1801.28 1544.47 1803.51 1545.03 Q1805.73 1545.58 1808.21 1545.58 Q1812.21 1545.58 1814.55 1543.48 Q1816.89 1541.37 1816.89 1537.76 Q1816.89 1534.15 1814.55 1532.04 Q1812.21 1529.94 1808.21 1529.94 Q1806.33 1529.94 1804.46 1530.35 Q1802.6 1530.77 1800.66 1531.65 L1800.66 1514.29 Z" fill="#000000" fill-rule="nonzero" fill-opacity="1" /><path clip-path="url(#clip430)" d="M2242.65 1544.91 L2250.29 1544.91 L2250.29 1518.55 L2241.98 1520.21 L2241.98 1515.95 L2250.24 1514.29 L2254.92 1514.29 L2254.92 1544.91 L2262.56 1544.91 L2262.56 1548.85 L2242.65 1548.85 L2242.65 1544.91 Z" fill="#000000" fill-rule="nonzero" fill-opacity="1" /><path clip-path="url(#clip430)" d="M2272 1542.97 L2276.88 1542.97 L2276.88 1548.85 L2272 1548.85 L2272 1542.97 Z" fill="#000000" fill-rule="nonzero" fill-opacity="1" /><path clip-path="url(#clip430)" d="M2297.07 1517.37 Q2293.46 1517.37 2291.63 1520.93 Q2289.82 1524.47 2289.82 1531.6 Q2289.82 1538.71 2291.63 1542.27 Q2293.46 1545.82 2297.07 1545.82 Q2300.7 1545.82 2302.51 1542.27 Q2304.34 1538.71 2304.34 1531.6 Q2304.34 1524.47 2302.51 1520.93 Q2300.7 1517.37 2297.07 1517.37 M2297.07 1513.66 Q2302.88 1513.66 2305.94 1518.27 Q2309.01 1522.85 2309.01 1531.6 Q2309.01 1540.33 2305.94 1544.94 Q2302.88 1549.52 2297.07 1549.52 Q2291.26 1549.52 2288.18 1544.94 Q2285.13 1540.33 2285.13 1531.6 Q2285.13 1522.85 2288.18 1518.27 Q2291.26 1513.66 2297.07 1513.66 Z" fill="#000000" fill-rule="nonzero" fill-opacity="1" /><path clip-path="url(#clip430)" d="M2327.23 1517.37 Q2323.62 1517.37 2321.79 1520.93 Q2319.99 1524.47 2319.99 1531.6 Q2319.99 1538.71 2321.79 1542.27 Q2323.62 1545.82 2327.23 1545.82 Q2330.87 1545.82 2332.67 1542.27 Q2334.5 1538.71 2334.5 1531.6 Q2334.5 1524.47 2332.67 1520.93 Q2330.87 1517.37 2327.23 1517.37 M2327.23 1513.66 Q2333.04 1513.66 2336.1 1518.27 Q2339.18 1522.85 2339.18 1531.6 Q2339.18 1540.33 2336.1 1544.94 Q2333.04 1549.52 2327.23 1549.52 Q2321.42 1549.52 2318.34 1544.94 Q2315.29 1540.33 2315.29 1531.6 Q2315.29 1522.85 2318.34 1518.27 Q2321.42 1513.66 2327.23 1513.66 Z" fill="#000000" fill-rule="nonzero" fill-opacity="1" /><polyline clip-path="url(#clip430)" style="stroke:#000000; stroke-linecap:round; stroke-linejoin:round; stroke-width:4; stroke-opacity:1; fill:none" points="155.765,1486.45 155.765,47.2441 "/>
<polyline clip-path="url(#clip430)" style="stroke:#000000; stroke-linecap:round; stroke-linejoin:round; stroke-width:4; stroke-opacity:1; fill:none" points="155.765,1361.02 174.663,1361.02 "/>
<polyline clip-path="url(#clip430)" style="stroke:#000000; stroke-linecap:round; stroke-linejoin:round; stroke-width:4; stroke-opacity:1; fill:none" points="155.765,1157.7 174.663,1157.7 "/>
<polyline clip-path="url(#clip430)" style="stroke:#000000; stroke-linecap:round; stroke-linejoin:round; stroke-width:4; stroke-opacity:1; fill:none" points="155.765,954.378 174.663,954.378 "/>
<polyline clip-path="url(#clip430)" style="stroke:#000000; stroke-linecap:round; stroke-linejoin:round; stroke-width:4; stroke-opacity:1; fill:none" points="155.765,751.056 174.663,751.056 "/>
<polyline clip-path="url(#clip430)" style="stroke:#000000; stroke-linecap:round; stroke-linejoin:round; stroke-width:4; stroke-opacity:1; fill:none" points="155.765,547.735 174.663,547.735 "/>
<polyline clip-path="url(#clip430)" style="stroke:#000000; stroke-linecap:round; stroke-linejoin:round; stroke-width:4; stroke-opacity:1; fill:none" points="155.765,344.413 174.663,344.413 "/>
<polyline clip-path="url(#clip430)" style="stroke:#000000; stroke-linecap:round; stroke-linejoin:round; stroke-width:4; stroke-opacity:1; fill:none" points="155.765,141.092 174.663,141.092 "/>
<path clip-path="url(#clip430)" d="M63.5847 1346.82 Q59.9736 1346.82 58.1449 1350.38 Q56.3393 1353.93 56.3393 1361.06 Q56.3393 1368.16 58.1449 1371.73 Q59.9736 1375.27 63.5847 1375.27 Q67.2189 1375.27 69.0244 1371.73 Q70.8531 1368.16 70.8531 1361.06 Q70.8531 1353.93 69.0244 1350.38 Q67.2189 1346.82 63.5847 1346.82 M63.5847 1343.12 Q69.3948 1343.12 72.4503 1347.72 Q75.529 1352.31 75.529 1361.06 Q75.529 1369.78 72.4503 1374.39 Q69.3948 1378.97 63.5847 1378.97 Q57.7745 1378.97 54.6958 1374.39 Q51.6403 1369.78 51.6403 1361.06 Q51.6403 1352.31 54.6958 1347.72 Q57.7745 1343.12 63.5847 1343.12 Z" fill="#000000" fill-rule="nonzero" fill-opacity="1" /><path clip-path="url(#clip430)" d="M83.7466 1372.42 L88.6308 1372.42 L88.6308 1378.3 L83.7466 1378.3 L83.7466 1372.42 Z" fill="#000000" fill-rule="nonzero" fill-opacity="1" /><path clip-path="url(#clip430)" d="M98.8622 1343.74 L117.219 1343.74 L117.219 1347.68 L103.145 1347.68 L103.145 1356.15 Q104.163 1355.8 105.182 1355.64 Q106.2 1355.45 107.219 1355.45 Q113.006 1355.45 116.385 1358.62 Q119.765 1361.8 119.765 1367.21 Q119.765 1372.79 116.293 1375.89 Q112.82 1378.97 106.501 1378.97 Q104.325 1378.97 102.057 1378.6 Q99.8113 1378.23 97.4039 1377.49 L97.4039 1372.79 Q99.4872 1373.93 101.709 1374.48 Q103.932 1375.04 106.408 1375.04 Q110.413 1375.04 112.751 1372.93 Q115.089 1370.82 115.089 1367.21 Q115.089 1363.6 112.751 1361.5 Q110.413 1359.39 106.408 1359.39 Q104.534 1359.39 102.659 1359.81 Q100.807 1360.22 98.8622 1361.1 L98.8622 1343.74 Z" fill="#000000" fill-rule="nonzero" fill-opacity="1" /><path clip-path="url(#clip430)" d="M53.3995 1171.04 L61.0384 1171.04 L61.0384 1144.68 L52.7282 1146.34 L52.7282 1142.09 L60.9921 1140.42 L65.668 1140.42 L65.668 1171.04 L73.3068 1171.04 L73.3068 1174.98 L53.3995 1174.98 L53.3995 1171.04 Z" fill="#000000" fill-rule="nonzero" fill-opacity="1" /><path clip-path="url(#clip430)" d="M82.7512 1169.1 L87.6354 1169.1 L87.6354 1174.98 L82.7512 1174.98 L82.7512 1169.1 Z" fill="#000000" fill-rule="nonzero" fill-opacity="1" /><path clip-path="url(#clip430)" d="M107.821 1143.5 Q104.209 1143.5 102.381 1147.06 Q100.575 1150.6 100.575 1157.73 Q100.575 1164.84 102.381 1168.41 Q104.209 1171.95 107.821 1171.95 Q111.455 1171.95 113.26 1168.41 Q115.089 1164.84 115.089 1157.73 Q115.089 1150.6 113.26 1147.06 Q111.455 1143.5 107.821 1143.5 M107.821 1139.79 Q113.631 1139.79 116.686 1144.4 Q119.765 1148.98 119.765 1157.73 Q119.765 1166.46 116.686 1171.07 Q113.631 1175.65 107.821 1175.65 Q102.01 1175.65 98.9317 1171.07 Q95.8761 1166.46 95.8761 1157.73 Q95.8761 1148.98 98.9317 1144.4 Q102.01 1139.79 107.821 1139.79 Z" fill="#000000" fill-rule="nonzero" fill-opacity="1" /><path clip-path="url(#clip430)" d="M54.3949 967.722 L62.0337 967.722 L62.0337 941.357 L53.7236 943.024 L53.7236 938.764 L61.9874 937.098 L66.6633 937.098 L66.6633 967.722 L74.3022 967.722 L74.3022 971.658 L54.3949 971.658 L54.3949 967.722 Z" fill="#000000" fill-rule="nonzero" fill-opacity="1" /><path clip-path="url(#clip430)" d="M83.7466 965.778 L88.6308 965.778 L88.6308 971.658 L83.7466 971.658 L83.7466 965.778 Z" fill="#000000" fill-rule="nonzero" fill-opacity="1" /><path clip-path="url(#clip430)" d="M98.8622 937.098 L117.219 937.098 L117.219 941.033 L103.145 941.033 L103.145 949.505 Q104.163 949.158 105.182 948.996 Q106.2 948.811 107.219 948.811 Q113.006 948.811 116.385 951.982 Q119.765 955.153 119.765 960.57 Q119.765 966.148 116.293 969.25 Q112.82 972.329 106.501 972.329 Q104.325 972.329 102.057 971.959 Q99.8113 971.588 97.4039 970.847 L97.4039 966.148 Q99.4872 967.283 101.709 967.838 Q103.932 968.394 106.408 968.394 Q110.413 968.394 112.751 966.287 Q115.089 964.181 115.089 960.57 Q115.089 956.959 112.751 954.852 Q110.413 952.746 106.408 952.746 Q104.534 952.746 102.659 953.162 Q100.807 953.579 98.8622 954.459 L98.8622 937.098 Z" fill="#000000" fill-rule="nonzero" fill-opacity="1" /><path clip-path="url(#clip430)" d="M56.6171 764.401 L72.9365 764.401 L72.9365 768.336 L50.9921 768.336 L50.9921 764.401 Q53.6541 761.646 58.2375 757.017 Q62.8439 752.364 64.0245 751.021 Q66.2698 748.498 67.1494 746.762 Q68.0522 745.003 68.0522 743.313 Q68.0522 740.559 66.1078 738.822 Q64.1865 737.086 61.0847 737.086 Q58.8856 737.086 56.4319 737.85 Q54.0014 738.614 51.2236 740.165 L51.2236 735.443 Q54.0477 734.309 56.5014 733.73 Q58.955 733.151 60.9921 733.151 Q66.3624 733.151 69.5568 735.836 Q72.7513 738.522 72.7513 743.012 Q72.7513 745.142 71.9411 747.063 Q71.1541 748.961 69.0476 751.554 Q68.4689 752.225 65.367 755.443 Q62.2652 758.637 56.6171 764.401 Z" fill="#000000" fill-rule="nonzero" fill-opacity="1" /><path clip-path="url(#clip430)" d="M82.7512 762.457 L87.6354 762.457 L87.6354 768.336 L82.7512 768.336 L82.7512 762.457 Z" fill="#000000" fill-rule="nonzero" fill-opacity="1" /><path clip-path="url(#clip430)" d="M107.821 736.855 Q104.209 736.855 102.381 740.42 Q100.575 743.961 100.575 751.091 Q100.575 758.197 102.381 761.762 Q104.209 765.304 107.821 765.304 Q111.455 765.304 113.26 761.762 Q115.089 758.197 115.089 751.091 Q115.089 743.961 113.26 740.42 Q111.455 736.855 107.821 736.855 M107.821 733.151 Q113.631 733.151 116.686 737.758 Q119.765 742.341 119.765 751.091 Q119.765 759.818 116.686 764.424 Q113.631 769.007 107.821 769.007 Q102.01 769.007 98.9317 764.424 Q95.8761 759.818 95.8761 751.091 Q95.8761 742.341 98.9317 737.758 Q102.01 733.151 107.821 733.151 Z" fill="#000000" fill-rule="nonzero" fill-opacity="1" /><path clip-path="url(#clip430)" d="M57.6125 561.08 L73.9318 561.08 L73.9318 565.015 L51.9875 565.015 L51.9875 561.08 Q54.6495 558.325 59.2328 553.695 Q63.8393 549.043 65.0198 547.7 Q67.2652 545.177 68.1448 543.441 Q69.0476 541.682 69.0476 539.992 Q69.0476 537.237 67.1032 535.501 Q65.1819 533.765 62.08 533.765 Q59.881 533.765 57.4273 534.529 Q54.9967 535.293 52.219 536.844 L52.219 532.121 Q55.043 530.987 57.4967 530.408 Q59.9504 529.83 61.9874 529.83 Q67.3578 529.83 70.5522 532.515 Q73.7466 535.2 73.7466 539.691 Q73.7466 541.82 72.9365 543.742 Q72.1494 545.64 70.0429 548.232 Q69.4642 548.904 66.3624 552.121 Q63.2606 555.316 57.6125 561.08 Z" fill="#000000" fill-rule="nonzero" fill-opacity="1" /><path clip-path="url(#clip430)" d="M83.7466 559.135 L88.6308 559.135 L88.6308 565.015 L83.7466 565.015 L83.7466 559.135 Z" fill="#000000" fill-rule="nonzero" fill-opacity="1" /><path clip-path="url(#clip430)" d="M98.8622 530.455 L117.219 530.455 L117.219 534.39 L103.145 534.39 L103.145 542.862 Q104.163 542.515 105.182 542.353 Q106.2 542.168 107.219 542.168 Q113.006 542.168 116.385 545.339 Q119.765 548.51 119.765 553.927 Q119.765 559.506 116.293 562.607 Q112.82 565.686 106.501 565.686 Q104.325 565.686 102.057 565.316 Q99.8113 564.945 97.4039 564.205 L97.4039 559.506 Q99.4872 560.64 101.709 561.195 Q103.932 561.751 106.408 561.751 Q110.413 561.751 112.751 559.644 Q115.089 557.538 115.089 553.927 Q115.089 550.316 112.751 548.209 Q110.413 546.103 106.408 546.103 Q104.534 546.103 102.659 546.519 Q100.807 546.936 98.8622 547.816 L98.8622 530.455 Z" fill="#000000" fill-rule="nonzero" fill-opacity="1" /><path clip-path="url(#clip430)" d="M66.7559 343.059 Q70.1124 343.777 71.9874 346.045 Q73.8855 348.314 73.8855 351.647 Q73.8855 356.763 70.367 359.564 Q66.8485 362.365 60.3671 362.365 Q58.1912 362.365 55.8764 361.925 Q53.5847 361.508 51.131 360.652 L51.131 356.138 Q53.0754 357.272 55.3903 357.851 Q57.7051 358.429 60.2282 358.429 Q64.6263 358.429 66.918 356.693 Q69.2328 354.957 69.2328 351.647 Q69.2328 348.592 67.08 346.879 Q64.9504 345.142 61.131 345.142 L57.1032 345.142 L57.1032 341.3 L61.3161 341.3 Q64.7652 341.3 66.5939 339.934 Q68.4226 338.545 68.4226 335.953 Q68.4226 333.291 66.5245 331.879 Q64.6495 330.443 61.131 330.443 Q59.2097 330.443 57.0106 330.86 Q54.8115 331.277 52.1727 332.156 L52.1727 327.99 Q54.8347 327.249 57.1495 326.879 Q59.4875 326.508 61.5476 326.508 Q66.8717 326.508 69.9735 328.939 Q73.0753 331.346 73.0753 335.467 Q73.0753 338.337 71.4318 340.328 Q69.7883 342.295 66.7559 343.059 Z" fill="#000000" fill-rule="nonzero" fill-opacity="1" /><path clip-path="url(#clip430)" d="M82.7512 355.814 L87.6354 355.814 L87.6354 361.693 L82.7512 361.693 L82.7512 355.814 Z" fill="#000000" fill-rule="nonzero" fill-opacity="1" /><path clip-path="url(#clip430)" d="M107.821 330.212 Q104.209 330.212 102.381 333.777 Q100.575 337.318 100.575 344.448 Q100.575 351.554 102.381 355.119 Q104.209 358.661 107.821 358.661 Q111.455 358.661 113.26 355.119 Q115.089 351.554 115.089 344.448 Q115.089 337.318 113.26 333.777 Q111.455 330.212 107.821 330.212 M107.821 326.508 Q113.631 326.508 116.686 331.115 Q119.765 335.698 119.765 344.448 Q119.765 353.175 116.686 357.781 Q113.631 362.365 107.821 362.365 Q102.01 362.365 98.9317 357.781 Q95.8761 353.175 95.8761 344.448 Q95.8761 335.698 98.9317 331.115 Q102.01 326.508 107.821 326.508 Z" fill="#000000" fill-rule="nonzero" fill-opacity="1" /><path clip-path="url(#clip430)" d="M67.7513 139.738 Q71.1078 140.455 72.9827 142.724 Q74.8809 144.992 74.8809 148.326 Q74.8809 153.441 71.3624 156.242 Q67.8439 159.043 61.3624 159.043 Q59.1865 159.043 56.8717 158.603 Q54.5801 158.187 52.1264 157.33 L52.1264 152.816 Q54.0708 153.951 56.3856 154.529 Q58.7004 155.108 61.2236 155.108 Q65.6217 155.108 67.9133 153.372 Q70.2281 151.636 70.2281 148.326 Q70.2281 145.27 68.0754 143.557 Q65.9457 141.821 62.1263 141.821 L58.0986 141.821 L58.0986 137.978 L62.3115 137.978 Q65.7606 137.978 67.5893 136.613 Q69.418 135.224 69.418 132.631 Q69.418 129.969 67.5198 128.557 Q65.6448 127.122 62.1263 127.122 Q60.205 127.122 58.006 127.539 Q55.8069 127.955 53.168 128.835 L53.168 124.668 Q55.8301 123.928 58.1449 123.557 Q60.4828 123.187 62.543 123.187 Q67.867 123.187 70.9689 125.617 Q74.0707 128.025 74.0707 132.145 Q74.0707 135.016 72.4272 137.006 Q70.7837 138.974 67.7513 139.738 Z" fill="#000000" fill-rule="nonzero" fill-opacity="1" /><path clip-path="url(#clip430)" d="M83.7466 152.492 L88.6308 152.492 L88.6308 158.372 L83.7466 158.372 L83.7466 152.492 Z" fill="#000000" fill-rule="nonzero" fill-opacity="1" /><path clip-path="url(#clip430)" d="M98.8622 123.812 L117.219 123.812 L117.219 127.747 L103.145 127.747 L103.145 136.219 Q104.163 135.872 105.182 135.71 Q106.2 135.525 107.219 135.525 Q113.006 135.525 116.385 138.696 Q119.765 141.867 119.765 147.284 Q119.765 152.863 116.293 155.964 Q112.82 159.043 106.501 159.043 Q104.325 159.043 102.057 158.673 Q99.8113 158.302 97.4039 157.562 L97.4039 152.863 Q99.4872 153.997 101.709 154.552 Q103.932 155.108 106.408 155.108 Q110.413 155.108 112.751 153.002 Q115.089 150.895 115.089 147.284 Q115.089 143.673 112.751 141.566 Q110.413 139.46 106.408 139.46 Q104.534 139.46 102.659 139.877 Q100.807 140.293 98.8622 141.173 L98.8622 123.812 Z" fill="#000000" fill-rule="nonzero" fill-opacity="1" /><polyline clip-path="url(#clip431)" style="stroke:#009af9; stroke-linecap:round; stroke-linejoin:round; stroke-width:12; stroke-opacity:1; fill:none" points="217.944,1361.02 425.207,1348.89 632.47,1301.68 839.734,1274.49 1047,1260.68 1254.26,1177.95 1461.52,1115.83 1668.79,1067.79 1876.05,1069 2083.31,1124.75 2290.58,1131.66 "/>
<polyline clip-path="url(#clip431)" style="stroke:#000000; stroke-linecap:round; stroke-linejoin:round; stroke-width:12; stroke-opacity:1; fill:none" points="217.944,1361.02 217.944,1361.02 "/>
<polyline clip-path="url(#clip431)" style="stroke:#000000; stroke-linecap:round; stroke-linejoin:round; stroke-width:12; stroke-opacity:1; fill:none" points="425.207,1379.22 425.207,1263.05 "/>
<polyline clip-path="url(#clip431)" style="stroke:#000000; stroke-linecap:round; stroke-linejoin:round; stroke-width:12; stroke-opacity:1; fill:none" points="632.47,1388.43 632.47,1196.9 "/>
<polyline clip-path="url(#clip431)" style="stroke:#000000; stroke-linecap:round; stroke-linejoin:round; stroke-width:12; stroke-opacity:1; fill:none" points="839.734,1397.51 839.734,1034.73 "/>
<polyline clip-path="url(#clip431)" style="stroke:#000000; stroke-linecap:round; stroke-linejoin:round; stroke-width:12; stroke-opacity:1; fill:none" points="1047,1422.59 1047,844.612 "/>
<polyline clip-path="url(#clip431)" style="stroke:#000000; stroke-linecap:round; stroke-linejoin:round; stroke-width:12; stroke-opacity:1; fill:none" points="1254.26,1429.73 1254.26,650.672 "/>
<polyline clip-path="url(#clip431)" style="stroke:#000000; stroke-linecap:round; stroke-linejoin:round; stroke-width:12; stroke-opacity:1; fill:none" points="1461.52,1403.9 1461.52,659.288 "/>
<polyline clip-path="url(#clip431)" style="stroke:#000000; stroke-linecap:round; stroke-linejoin:round; stroke-width:12; stroke-opacity:1; fill:none" points="1668.79,1408.2 1668.79,556.974 "/>
<polyline clip-path="url(#clip431)" style="stroke:#000000; stroke-linecap:round; stroke-linejoin:round; stroke-width:12; stroke-opacity:1; fill:none" points="1876.05,1429.1 1876.05,448.21 "/>
<polyline clip-path="url(#clip431)" style="stroke:#000000; stroke-linecap:round; stroke-linejoin:round; stroke-width:12; stroke-opacity:1; fill:none" points="2083.31,1422.16 2083.31,317.108 "/>
<polyline clip-path="url(#clip431)" style="stroke:#000000; stroke-linecap:round; stroke-linejoin:round; stroke-width:12; stroke-opacity:1; fill:none" points="2290.58,1418.69 2290.58,87.9763 "/>
<line clip-path="url(#clip431)" x1="233.944" y1="1361.02" x2="201.944" y2="1361.02" style="stroke:#000000; stroke-width:12; stroke-opacity:1"/>
<line clip-path="url(#clip431)" x1="233.944" y1="1361.02" x2="201.944" y2="1361.02" style="stroke:#000000; stroke-width:12; stroke-opacity:1"/>
<line clip-path="url(#clip431)" x1="441.207" y1="1379.22" x2="409.207" y2="1379.22" style="stroke:#000000; stroke-width:12; stroke-opacity:1"/>
<line clip-path="url(#clip431)" x1="441.207" y1="1263.05" x2="409.207" y2="1263.05" style="stroke:#000000; stroke-width:12; stroke-opacity:1"/>
<line clip-path="url(#clip431)" x1="648.47" y1="1388.43" x2="616.47" y2="1388.43" style="stroke:#000000; stroke-width:12; stroke-opacity:1"/>
<line clip-path="url(#clip431)" x1="648.47" y1="1196.9" x2="616.47" y2="1196.9" style="stroke:#000000; stroke-width:12; stroke-opacity:1"/>
<line clip-path="url(#clip431)" x1="855.734" y1="1397.51" x2="823.734" y2="1397.51" style="stroke:#000000; stroke-width:12; stroke-opacity:1"/>
<line clip-path="url(#clip431)" x1="855.734" y1="1034.73" x2="823.734" y2="1034.73" style="stroke:#000000; stroke-width:12; stroke-opacity:1"/>
<line clip-path="url(#clip431)" x1="1063" y1="1422.59" x2="1031" y2="1422.59" style="stroke:#000000; stroke-width:12; stroke-opacity:1"/>
<line clip-path="url(#clip431)" x1="1063" y1="844.612" x2="1031" y2="844.612" style="stroke:#000000; stroke-width:12; stroke-opacity:1"/>
<line clip-path="url(#clip431)" x1="1270.26" y1="1429.73" x2="1238.26" y2="1429.73" style="stroke:#000000; stroke-width:12; stroke-opacity:1"/>
<line clip-path="url(#clip431)" x1="1270.26" y1="650.672" x2="1238.26" y2="650.672" style="stroke:#000000; stroke-width:12; stroke-opacity:1"/>
<line clip-path="url(#clip431)" x1="1477.52" y1="1403.9" x2="1445.52" y2="1403.9" style="stroke:#000000; stroke-width:12; stroke-opacity:1"/>
<line clip-path="url(#clip431)" x1="1477.52" y1="659.288" x2="1445.52" y2="659.288" style="stroke:#000000; stroke-width:12; stroke-opacity:1"/>
<line clip-path="url(#clip431)" x1="1684.79" y1="1408.2" x2="1652.79" y2="1408.2" style="stroke:#000000; stroke-width:12; stroke-opacity:1"/>
<line clip-path="url(#clip431)" x1="1684.79" y1="556.974" x2="1652.79" y2="556.974" style="stroke:#000000; stroke-width:12; stroke-opacity:1"/>
<line clip-path="url(#clip431)" x1="1892.05" y1="1429.1" x2="1860.05" y2="1429.1" style="stroke:#000000; stroke-width:12; stroke-opacity:1"/>
<line clip-path="url(#clip431)" x1="1892.05" y1="448.21" x2="1860.05" y2="448.21" style="stroke:#000000; stroke-width:12; stroke-opacity:1"/>
<line clip-path="url(#clip431)" x1="2099.31" y1="1422.16" x2="2067.31" y2="1422.16" style="stroke:#000000; stroke-width:12; stroke-opacity:1"/>
<line clip-path="url(#clip431)" x1="2099.31" y1="317.108" x2="2067.31" y2="317.108" style="stroke:#000000; stroke-width:12; stroke-opacity:1"/>
<line clip-path="url(#clip431)" x1="2306.58" y1="1418.69" x2="2274.58" y2="1418.69" style="stroke:#000000; stroke-width:12; stroke-opacity:1"/>
<line clip-path="url(#clip431)" x1="2306.58" y1="87.9763" x2="2274.58" y2="87.9763" style="stroke:#000000; stroke-width:12; stroke-opacity:1"/>
<polyline clip-path="url(#clip431)" style="stroke:#e26f46; stroke-linecap:round; stroke-linejoin:round; stroke-width:12; stroke-opacity:1; fill:none" points="217.944,1361.02 425.207,1294.37 632.47,1276.36 839.734,1257.21 1047,1247.83 1254.26,1267.92 1461.52,1244.4 1668.79,1205.55 1876.05,1228.78 2083.31,1213.29 2290.58,1204.97 "/>
<polyline clip-path="url(#clip431)" style="stroke:#000000; stroke-linecap:round; stroke-linejoin:round; stroke-width:12; stroke-opacity:1; fill:none" points="217.944,1361.02 217.944,1361.02 "/>
<polyline clip-path="url(#clip431)" style="stroke:#000000; stroke-linecap:round; stroke-linejoin:round; stroke-width:12; stroke-opacity:1; fill:none" points="425.207,1398.71 425.207,1192.7 "/>
<polyline clip-path="url(#clip431)" style="stroke:#000000; stroke-linecap:round; stroke-linejoin:round; stroke-width:12; stroke-opacity:1; fill:none" points="632.47,1405.36 632.47,1147.72 "/>
<polyline clip-path="url(#clip431)" style="stroke:#000000; stroke-linecap:round; stroke-linejoin:round; stroke-width:12; stroke-opacity:1; fill:none" points="839.734,1405.5 839.734,1065.39 "/>
<polyline clip-path="url(#clip431)" style="stroke:#000000; stroke-linecap:round; stroke-linejoin:round; stroke-width:12; stroke-opacity:1; fill:none" points="1047,1389.74 1047,930.339 "/>
<polyline clip-path="url(#clip431)" style="stroke:#000000; stroke-linecap:round; stroke-linejoin:round; stroke-width:12; stroke-opacity:1; fill:none" points="1254.26,1403.52 1254.26,875.767 "/>
<polyline clip-path="url(#clip431)" style="stroke:#000000; stroke-linecap:round; stroke-linejoin:round; stroke-width:12; stroke-opacity:1; fill:none" points="1461.52,1408.76 1461.52,851.209 "/>
<polyline clip-path="url(#clip431)" style="stroke:#000000; stroke-linecap:round; stroke-linejoin:round; stroke-width:12; stroke-opacity:1; fill:none" points="1668.79,1425.68 1668.79,815.372 "/>
<polyline clip-path="url(#clip431)" style="stroke:#000000; stroke-linecap:round; stroke-linejoin:round; stroke-width:12; stroke-opacity:1; fill:none" points="1876.05,1444.01 1876.05,703.762 "/>
<polyline clip-path="url(#clip431)" style="stroke:#000000; stroke-linecap:round; stroke-linejoin:round; stroke-width:12; stroke-opacity:1; fill:none" points="2083.31,1438.74 2083.31,558.366 "/>
<polyline clip-path="url(#clip431)" style="stroke:#000000; stroke-linecap:round; stroke-linejoin:round; stroke-width:12; stroke-opacity:1; fill:none" points="2290.58,1445.72 2290.58,484.404 "/>
<line clip-path="url(#clip431)" x1="233.944" y1="1361.02" x2="201.944" y2="1361.02" style="stroke:#000000; stroke-width:12; stroke-opacity:1"/>
<line clip-path="url(#clip431)" x1="233.944" y1="1361.02" x2="201.944" y2="1361.02" style="stroke:#000000; stroke-width:12; stroke-opacity:1"/>
<line clip-path="url(#clip431)" x1="441.207" y1="1398.71" x2="409.207" y2="1398.71" style="stroke:#000000; stroke-width:12; stroke-opacity:1"/>
<line clip-path="url(#clip431)" x1="441.207" y1="1192.7" x2="409.207" y2="1192.7" style="stroke:#000000; stroke-width:12; stroke-opacity:1"/>
<line clip-path="url(#clip431)" x1="648.47" y1="1405.36" x2="616.47" y2="1405.36" style="stroke:#000000; stroke-width:12; stroke-opacity:1"/>
<line clip-path="url(#clip431)" x1="648.47" y1="1147.72" x2="616.47" y2="1147.72" style="stroke:#000000; stroke-width:12; stroke-opacity:1"/>
<line clip-path="url(#clip431)" x1="855.734" y1="1405.5" x2="823.734" y2="1405.5" style="stroke:#000000; stroke-width:12; stroke-opacity:1"/>
<line clip-path="url(#clip431)" x1="855.734" y1="1065.39" x2="823.734" y2="1065.39" style="stroke:#000000; stroke-width:12; stroke-opacity:1"/>
<line clip-path="url(#clip431)" x1="1063" y1="1389.74" x2="1031" y2="1389.74" style="stroke:#000000; stroke-width:12; stroke-opacity:1"/>
<line clip-path="url(#clip431)" x1="1063" y1="930.339" x2="1031" y2="930.339" style="stroke:#000000; stroke-width:12; stroke-opacity:1"/>
<line clip-path="url(#clip431)" x1="1270.26" y1="1403.52" x2="1238.26" y2="1403.52" style="stroke:#000000; stroke-width:12; stroke-opacity:1"/>
<line clip-path="url(#clip431)" x1="1270.26" y1="875.767" x2="1238.26" y2="875.767" style="stroke:#000000; stroke-width:12; stroke-opacity:1"/>
<line clip-path="url(#clip431)" x1="1477.52" y1="1408.76" x2="1445.52" y2="1408.76" style="stroke:#000000; stroke-width:12; stroke-opacity:1"/>
<line clip-path="url(#clip431)" x1="1477.52" y1="851.209" x2="1445.52" y2="851.209" style="stroke:#000000; stroke-width:12; stroke-opacity:1"/>
<line clip-path="url(#clip431)" x1="1684.79" y1="1425.68" x2="1652.79" y2="1425.68" style="stroke:#000000; stroke-width:12; stroke-opacity:1"/>
<line clip-path="url(#clip431)" x1="1684.79" y1="815.372" x2="1652.79" y2="815.372" style="stroke:#000000; stroke-width:12; stroke-opacity:1"/>
<line clip-path="url(#clip431)" x1="1892.05" y1="1444.01" x2="1860.05" y2="1444.01" style="stroke:#000000; stroke-width:12; stroke-opacity:1"/>
<line clip-path="url(#clip431)" x1="1892.05" y1="703.762" x2="1860.05" y2="703.762" style="stroke:#000000; stroke-width:12; stroke-opacity:1"/>
<line clip-path="url(#clip431)" x1="2099.31" y1="1438.74" x2="2067.31" y2="1438.74" style="stroke:#000000; stroke-width:12; stroke-opacity:1"/>
<line clip-path="url(#clip431)" x1="2099.31" y1="558.366" x2="2067.31" y2="558.366" style="stroke:#000000; stroke-width:12; stroke-opacity:1"/>
<line clip-path="url(#clip431)" x1="2306.58" y1="1445.72" x2="2274.58" y2="1445.72" style="stroke:#000000; stroke-width:12; stroke-opacity:1"/>
<line clip-path="url(#clip431)" x1="2306.58" y1="484.404" x2="2274.58" y2="484.404" style="stroke:#000000; stroke-width:12; stroke-opacity:1"/>
</svg>
