<?xml version="1.0" encoding="utf-8"?>
<svg xmlns="http://www.w3.org/2000/svg" xmlns:xlink="http://www.w3.org/1999/xlink" width="600" height="400" viewBox="0 0 2400 1600">
<defs>
  <clipPath id="clip400">
    <rect x="0" y="0" width="2400" height="1600"/>
  </clipPath>
</defs>
<path clip-path="url(#clip400)" d="M0 1600 L2400 1600 L2400 0 L0 0  Z" fill="#ffffff" fill-rule="evenodd" fill-opacity="1"/>
<defs>
  <clipPath id="clip401">
    <rect x="155" y="47" width="2198" height="1440"/>
  </clipPath>
</defs>
<path clip-path="url(#clip400)" d="M155.765 1486.45 L2352.76 1486.45 L2352.76 47.2441 L155.765 47.2441  Z" fill="#ffffff" fill-rule="evenodd" fill-opacity="1"/>
<polyline clip-path="url(#clip401)" style="stroke:#000000; stroke-linecap:round; stroke-linejoin:round; stroke-width:2; stroke-opacity:0.1; fill:none" points="217.944,1486.45 217.944,47.2441 "/>
<polyline clip-path="url(#clip401)" style="stroke:#000000; stroke-linecap:round; stroke-linejoin:round; stroke-width:2; stroke-opacity:0.1; fill:none" points="736.102,1486.45 736.102,47.2441 "/>
<polyline clip-path="url(#clip401)" style="stroke:#000000; stroke-linecap:round; stroke-linejoin:round; stroke-width:2; stroke-opacity:0.1; fill:none" points="1254.26,1486.45 1254.26,47.2441 "/>
<polyline clip-path="url(#clip401)" style="stroke:#000000; stroke-linecap:round; stroke-linejoin:round; stroke-width:2; stroke-opacity:0.1; fill:none" points="1772.42,1486.45 1772.42,47.2441 "/>
<polyline clip-path="url(#clip401)" style="stroke:#000000; stroke-linecap:round; stroke-linejoin:round; stroke-width:2; stroke-opacity:0.1; fill:none" points="2290.58,1486.45 2290.58,47.2441 "/>
<polyline clip-path="url(#clip401)" style="stroke:#000000; stroke-linecap:round; stroke-linejoin:round; stroke-width:2; stroke-opacity:0.1; fill:none" points="155.765,1376.19 2352.76,1376.19 "/>
<polyline clip-path="url(#clip401)" style="stroke:#000000; stroke-linecap:round; stroke-linejoin:round; stroke-width:2; stroke-opacity:0.1; fill:none" points="155.765,1170.44 2352.76,1170.44 "/>
<polyline clip-path="url(#clip401)" style="stroke:#000000; stroke-linecap:round; stroke-linejoin:round; stroke-width:2; stroke-opacity:0.1; fill:none" points="155.765,964.7 2352.76,964.7 "/>
<polyline clip-path="url(#clip401)" style="stroke:#000000; stroke-linecap:round; stroke-linejoin:round; stroke-width:2; stroke-opacity:0.1; fill:none" points="155.765,758.956 2352.76,758.956 "/>
<polyline clip-path="url(#clip401)" style="stroke:#000000; stroke-linecap:round; stroke-linejoin:round; stroke-width:2; stroke-opacity:0.1; fill:none" points="155.765,553.212 2352.76,553.212 "/>
<polyline clip-path="url(#clip401)" style="stroke:#000000; stroke-linecap:round; stroke-linejoin:round; stroke-width:2; stroke-opacity:0.1; fill:none" points="155.765,347.468 2352.76,347.468 "/>
<polyline clip-path="url(#clip401)" style="stroke:#000000; stroke-linecap:round; stroke-linejoin:round; stroke-width:2; stroke-opacity:0.1; fill:none" points="155.765,141.725 2352.76,141.725 "/>
<polyline clip-path="url(#clip400)" style="stroke:#000000; stroke-linecap:round; stroke-linejoin:round; stroke-width:4; stroke-opacity:1; fill:none" points="155.765,1486.45 2352.76,1486.45 "/>
<polyline clip-path="url(#clip400)" style="stroke:#000000; stroke-linecap:round; stroke-linejoin:round; stroke-width:4; stroke-opacity:1; fill:none" points="217.944,1486.45 217.944,1467.55 "/>
<polyline clip-path="url(#clip400)" style="stroke:#000000; stroke-linecap:round; stroke-linejoin:round; stroke-width:4; stroke-opacity:1; fill:none" points="736.102,1486.45 736.102,1467.55 "/>
<polyline clip-path="url(#clip400)" style="stroke:#000000; stroke-linecap:round; stroke-linejoin:round; stroke-width:4; stroke-opacity:1; fill:none" points="1254.26,1486.45 1254.26,1467.55 "/>
<polyline clip-path="url(#clip400)" style="stroke:#000000; stroke-linecap:round; stroke-linejoin:round; stroke-width:4; stroke-opacity:1; fill:none" points="1772.42,1486.45 1772.42,1467.55 "/>
<polyline clip-path="url(#clip400)" style="stroke:#000000; stroke-linecap:round; stroke-linejoin:round; stroke-width:4; stroke-opacity:1; fill:none" points="2290.58,1486.45 2290.58,1467.55 "/>
<path clip-path="url(#clip400)" d="M180.247 1517.37 Q176.636 1517.37 174.808 1520.93 Q173.002 1524.47 173.002 1531.6 Q173.002 1538.71 174.808 1542.27 Q176.636 1545.82 180.247 1545.82 Q183.882 1545.82 185.687 1542.27 Q187.516 1538.71 187.516 1531.6 Q187.516 1524.47 185.687 1520.93 Q183.882 1517.37 180.247 1517.37 M180.247 1513.66 Q186.057 1513.66 189.113 1518.27 Q192.192 1522.85 192.192 1531.6 Q192.192 1540.33 189.113 1544.94 Q186.057 1549.52 180.247 1549.52 Q174.437 1549.52 171.358 1544.94 Q168.303 1540.33 168.303 1531.6 Q168.303 1522.85 171.358 1518.27 Q174.437 1513.66 180.247 1513.66 Z" fill="#000000" fill-rule="nonzero" fill-opacity="1" /><path clip-path="url(#clip400)" d="M200.409 1542.97 L205.294 1542.97 L205.294 1548.85 L200.409 1548.85 L200.409 1542.97 Z" fill="#000000" fill-rule="nonzero" fill-opacity="1" /><path clip-path="url(#clip400)" d="M225.479 1517.37 Q221.867 1517.37 220.039 1520.93 Q218.233 1524.47 218.233 1531.6 Q218.233 1538.71 220.039 1542.27 Q221.867 1545.82 225.479 1545.82 Q229.113 1545.82 230.918 1542.27 Q232.747 1538.71 232.747 1531.6 Q232.747 1524.47 230.918 1520.93 Q229.113 1517.37 225.479 1517.37 M225.479 1513.66 Q231.289 1513.66 234.344 1518.27 Q237.423 1522.85 237.423 1531.6 Q237.423 1540.33 234.344 1544.94 Q231.289 1549.52 225.479 1549.52 Q219.668 1549.52 216.59 1544.94 Q213.534 1540.33 213.534 1531.6 Q213.534 1522.85 216.59 1518.27 Q219.668 1513.66 225.479 1513.66 Z" fill="#000000" fill-rule="nonzero" fill-opacity="1" /><path clip-path="url(#clip400)" d="M255.64 1517.37 Q252.029 1517.37 250.201 1520.93 Q248.395 1524.47 248.395 1531.6 Q248.395 1538.71 250.201 1542.27 Q252.029 1545.82 255.64 1545.82 Q259.275 1545.82 261.08 1542.27 Q262.909 1538.71 262.909 1531.6 Q262.909 1524.47 261.08 1520.93 Q259.275 1517.37 255.64 1517.37 M255.64 1513.66 Q261.451 1513.66 264.506 1518.27 Q267.585 1522.85 267.585 1531.6 Q267.585 1540.33 264.506 1544.94 Q261.451 1549.52 255.64 1549.52 Q249.83 1549.52 246.752 1544.94 Q243.696 1540.33 243.696 1531.6 Q243.696 1522.85 246.752 1518.27 Q249.83 1513.66 255.64 1513.66 Z" fill="#000000" fill-rule="nonzero" fill-opacity="1" /><path clip-path="url(#clip400)" d="M698.903 1517.37 Q695.292 1517.37 693.463 1520.93 Q691.658 1524.47 691.658 1531.6 Q691.658 1538.71 693.463 1542.27 Q695.292 1545.82 698.903 1545.82 Q702.538 1545.82 704.343 1542.27 Q706.172 1538.71 706.172 1531.6 Q706.172 1524.47 704.343 1520.93 Q702.538 1517.37 698.903 1517.37 M698.903 1513.66 Q704.713 1513.66 707.769 1518.27 Q710.848 1522.85 710.848 1531.6 Q710.848 1540.33 707.769 1544.94 Q704.713 1549.52 698.903 1549.52 Q693.093 1549.52 690.014 1544.94 Q686.959 1540.33 686.959 1531.6 Q686.959 1522.85 690.014 1518.27 Q693.093 1513.66 698.903 1513.66 Z" fill="#000000" fill-rule="nonzero" fill-opacity="1" /><path clip-path="url(#clip400)" d="M719.065 1542.97 L723.949 1542.97 L723.949 1548.85 L719.065 1548.85 L719.065 1542.97 Z" fill="#000000" fill-rule="nonzero" fill-opacity="1" /><path clip-path="url(#clip400)" d="M738.162 1544.91 L754.482 1544.91 L754.482 1548.85 L732.537 1548.85 L732.537 1544.91 Q735.199 1542.16 739.783 1537.53 Q744.389 1532.88 745.57 1531.53 Q747.815 1529.01 748.695 1527.27 Q749.597 1525.51 749.597 1523.82 Q749.597 1521.07 747.653 1519.33 Q745.732 1517.6 742.63 1517.6 Q740.431 1517.6 737.977 1518.36 Q735.547 1519.13 732.769 1520.68 L732.769 1515.95 Q735.593 1514.82 738.047 1514.24 Q740.5 1513.66 742.537 1513.66 Q747.908 1513.66 751.102 1516.35 Q754.296 1519.03 754.296 1523.52 Q754.296 1525.65 753.486 1527.57 Q752.699 1529.47 750.593 1532.07 Q750.014 1532.74 746.912 1535.95 Q743.81 1539.15 738.162 1544.91 Z" fill="#000000" fill-rule="nonzero" fill-opacity="1" /><path clip-path="url(#clip400)" d="M764.343 1514.29 L782.699 1514.29 L782.699 1518.22 L768.625 1518.22 L768.625 1526.7 Q769.644 1526.35 770.662 1526.19 Q771.681 1526 772.699 1526 Q778.486 1526 781.866 1529.17 Q785.245 1532.34 785.245 1537.76 Q785.245 1543.34 781.773 1546.44 Q778.301 1549.52 771.982 1549.52 Q769.806 1549.52 767.537 1549.15 Q765.292 1548.78 762.884 1548.04 L762.884 1543.34 Q764.968 1544.47 767.19 1545.03 Q769.412 1545.58 771.889 1545.58 Q775.894 1545.58 778.232 1543.48 Q780.57 1541.37 780.57 1537.76 Q780.57 1534.15 778.232 1532.04 Q775.894 1529.94 771.889 1529.94 Q770.014 1529.94 768.139 1530.35 Q766.287 1530.77 764.343 1531.65 L764.343 1514.29 Z" fill="#000000" fill-rule="nonzero" fill-opacity="1" /><path clip-path="url(#clip400)" d="M1216.56 1517.37 Q1212.95 1517.37 1211.12 1520.93 Q1209.32 1524.47 1209.32 1531.6 Q1209.32 1538.71 1211.12 1542.27 Q1212.95 1545.82 1216.56 1545.82 Q1220.2 1545.82 1222 1542.27 Q1223.83 1538.71 1223.83 1531.6 Q1223.83 1524.47 1222 1520.93 Q1220.2 1517.37 1216.56 1517.37 M1216.56 1513.66 Q1222.37 1513.66 1225.43 1518.27 Q1228.51 1522.85 1228.51 1531.6 Q1228.51 1540.33 1225.43 1544.94 Q1222.37 1549.52 1216.56 1549.52 Q1210.75 1549.52 1207.68 1544.94 Q1204.62 1540.33 1204.62 1531.6 Q1204.62 1522.85 1207.68 1518.27 Q1210.75 1513.66 1216.56 1513.66 Z" fill="#000000" fill-rule="nonzero" fill-opacity="1" /><path clip-path="url(#clip400)" d="M1236.73 1542.97 L1241.61 1542.97 L1241.61 1548.85 L1236.73 1548.85 L1236.73 1542.97 Z" fill="#000000" fill-rule="nonzero" fill-opacity="1" /><path clip-path="url(#clip400)" d="M1251.84 1514.29 L1270.2 1514.29 L1270.2 1518.22 L1256.12 1518.22 L1256.12 1526.7 Q1257.14 1526.35 1258.16 1526.19 Q1259.18 1526 1260.2 1526 Q1265.98 1526 1269.36 1529.17 Q1272.74 1532.34 1272.74 1537.76 Q1272.74 1543.34 1269.27 1546.44 Q1265.8 1549.52 1259.48 1549.52 Q1257.3 1549.52 1255.04 1549.15 Q1252.79 1548.78 1250.38 1548.04 L1250.38 1543.34 Q1252.47 1544.47 1254.69 1545.03 Q1256.91 1545.58 1259.39 1545.58 Q1263.39 1545.58 1265.73 1543.48 Q1268.07 1541.37 1268.07 1537.76 Q1268.07 1534.15 1265.73 1532.04 Q1263.39 1529.94 1259.39 1529.94 Q1257.51 1529.94 1255.64 1530.35 Q1253.79 1530.77 1251.84 1531.65 L1251.84 1514.29 Z" fill="#000000" fill-rule="nonzero" fill-opacity="1" /><path clip-path="url(#clip400)" d="M1291.96 1517.37 Q1288.35 1517.37 1286.52 1520.93 Q1284.71 1524.47 1284.71 1531.6 Q1284.71 1538.71 1286.52 1542.27 Q1288.35 1545.82 1291.96 1545.82 Q1295.59 1545.82 1297.4 1542.27 Q1299.23 1538.71 1299.23 1531.6 Q1299.23 1524.47 1297.4 1520.93 Q1295.59 1517.37 1291.96 1517.37 M1291.96 1513.66 Q1297.77 1513.66 1300.82 1518.27 Q1303.9 1522.85 1303.9 1531.6 Q1303.9 1540.33 1300.82 1544.94 Q1297.77 1549.52 1291.96 1549.52 Q1286.15 1549.52 1283.07 1544.94 Q1280.01 1540.33 1280.01 1531.6 Q1280.01 1522.85 1283.07 1518.27 Q1286.15 1513.66 1291.96 1513.66 Z" fill="#000000" fill-rule="nonzero" fill-opacity="1" /><path clip-path="url(#clip400)" d="M1735.22 1517.37 Q1731.61 1517.37 1729.78 1520.93 Q1727.97 1524.47 1727.97 1531.6 Q1727.97 1538.71 1729.78 1542.27 Q1731.61 1545.82 1735.22 1545.82 Q1738.85 1545.82 1740.66 1542.27 Q1742.49 1538.71 1742.49 1531.6 Q1742.49 1524.47 1740.66 1520.93 Q1738.85 1517.37 1735.22 1517.37 M1735.22 1513.66 Q1741.03 1513.66 1744.09 1518.27 Q1747.16 1522.85 1747.16 1531.6 Q1747.16 1540.33 1744.09 1544.94 Q1741.03 1549.52 1735.22 1549.52 Q1729.41 1549.52 1726.33 1544.94 Q1723.28 1540.33 1723.28 1531.6 Q1723.28 1522.85 1726.33 1518.27 Q1729.41 1513.66 1735.22 1513.66 Z" fill="#000000" fill-rule="nonzero" fill-opacity="1" /><path clip-path="url(#clip400)" d="M1755.38 1542.97 L1760.27 1542.97 L1760.27 1548.85 L1755.38 1548.85 L1755.38 1542.97 Z" fill="#000000" fill-rule="nonzero" fill-opacity="1" /><path clip-path="url(#clip400)" d="M1769.27 1514.29 L1791.49 1514.29 L1791.49 1516.28 L1778.95 1548.85 L1774.06 1548.85 L1785.87 1518.22 L1769.27 1518.22 L1769.27 1514.29 Z" fill="#000000" fill-rule="nonzero" fill-opacity="1" /><path clip-path="url(#clip400)" d="M1800.66 1514.29 L1819.02 1514.29 L1819.02 1518.22 L1804.94 1518.22 L1804.94 1526.7 Q1805.96 1526.35 1806.98 1526.19 Q1808 1526 1809.02 1526 Q1814.8 1526 1818.18 1529.17 Q1821.56 1532.34 1821.56 1537.76 Q1821.56 1543.34 1818.09 1546.44 Q1814.62 1549.52 1808.3 1549.52 Q1806.12 1549.52 1803.85 1549.15 Q1801.61 1548.78 1799.2 1548.04 L1799.2 1543.34 Q1801.28 1544.47 1803.51 1545.03 Q1805.73 1545.58 1808.21 1545.58 Q1812.21 1545.58 1814.55 1543.48 Q1816.89 1541.37 1816.89 1537.76 Q1816.89 1534.15 1814.55 1532.04 Q1812.21 1529.94 1808.21 1529.94 Q1806.33 1529.94 1804.46 1530.35 Q1802.6 1530.77 1800.66 1531.65 L1800.66 1514.29 Z" fill="#000000" fill-rule="nonzero" fill-opacity="1" /><path clip-path="url(#clip400)" d="M2242.65 1544.91 L2250.29 1544.91 L2250.29 1518.55 L2241.98 1520.21 L2241.98 1515.95 L2250.24 1514.29 L2254.92 1514.29 L2254.92 1544.91 L2262.56 1544.91 L2262.56 1548.85 L2242.65 1548.85 L2242.65 1544.91 Z" fill="#000000" fill-rule="nonzero" fill-opacity="1" /><path clip-path="url(#clip400)" d="M2272 1542.97 L2276.88 1542.97 L2276.88 1548.85 L2272 1548.85 L2272 1542.97 Z" fill="#000000" fill-rule="nonzero" fill-opacity="1" /><path clip-path="url(#clip400)" d="M2297.07 1517.37 Q2293.46 1517.37 2291.63 1520.93 Q2289.82 1524.47 2289.82 1531.6 Q2289.82 1538.71 2291.63 1542.27 Q2293.46 1545.82 2297.07 1545.82 Q2300.7 1545.82 2302.51 1542.27 Q2304.34 1538.71 2304.34 1531.6 Q2304.34 1524.47 2302.51 1520.93 Q2300.7 1517.37 2297.07 1517.37 M2297.07 1513.66 Q2302.88 1513.66 2305.94 1518.27 Q2309.01 1522.85 2309.01 1531.6 Q2309.01 1540.33 2305.94 1544.94 Q2302.88 1549.52 2297.07 1549.52 Q2291.26 1549.52 2288.18 1544.94 Q2285.13 1540.33 2285.13 1531.6 Q2285.13 1522.85 2288.18 1518.27 Q2291.26 1513.66 2297.07 1513.66 Z" fill="#000000" fill-rule="nonzero" fill-opacity="1" /><path clip-path="url(#clip400)" d="M2327.23 1517.37 Q2323.62 1517.37 2321.79 1520.93 Q2319.99 1524.47 2319.99 1531.6 Q2319.99 1538.71 2321.79 1542.27 Q2323.62 1545.82 2327.23 1545.82 Q2330.87 1545.82 2332.67 1542.27 Q2334.5 1538.71 2334.5 1531.6 Q2334.5 1524.47 2332.67 1520.93 Q2330.87 1517.37 2327.23 1517.37 M2327.23 1513.66 Q2333.04 1513.66 2336.1 1518.27 Q2339.18 1522.85 2339.18 1531.6 Q2339.18 1540.33 2336.1 1544.94 Q2333.04 1549.52 2327.23 1549.52 Q2321.42 1549.52 2318.34 1544.94 Q2315.29 1540.33 2315.29 1531.6 Q2315.29 1522.85 2318.34 1518.27 Q2321.42 1513.66 2327.23 1513.66 Z" fill="#000000" fill-rule="nonzero" fill-opacity="1" /><polyline clip-path="url(#clip400)" style="stroke:#000000; stroke-linecap:round; stroke-linejoin:round; stroke-width:4; stroke-opacity:1; fill:none" points="155.765,1486.45 155.765,47.2441 "/>
<polyline clip-path="url(#clip400)" style="stroke:#000000; stroke-linecap:round; stroke-linejoin:round; stroke-width:4; stroke-opacity:1; fill:none" points="155.765,1376.19 174.663,1376.19 "/>
<polyline clip-path="url(#clip400)" style="stroke:#000000; stroke-linecap:round; stroke-linejoin:round; stroke-width:4; stroke-opacity:1; fill:none" points="155.765,1170.44 174.663,1170.44 "/>
<polyline clip-path="url(#clip400)" style="stroke:#000000; stroke-linecap:round; stroke-linejoin:round; stroke-width:4; stroke-opacity:1; fill:none" points="155.765,964.7 174.663,964.7 "/>
<polyline clip-path="url(#clip400)" style="stroke:#000000; stroke-linecap:round; stroke-linejoin:round; stroke-width:4; stroke-opacity:1; fill:none" points="155.765,758.956 174.663,758.956 "/>
<polyline clip-path="url(#clip400)" style="stroke:#000000; stroke-linecap:round; stroke-linejoin:round; stroke-width:4; stroke-opacity:1; fill:none" points="155.765,553.212 174.663,553.212 "/>
<polyline clip-path="url(#clip400)" style="stroke:#000000; stroke-linecap:round; stroke-linejoin:round; stroke-width:4; stroke-opacity:1; fill:none" points="155.765,347.468 174.663,347.468 "/>
<polyline clip-path="url(#clip400)" style="stroke:#000000; stroke-linecap:round; stroke-linejoin:round; stroke-width:4; stroke-opacity:1; fill:none" points="155.765,141.725 174.663,141.725 "/>
<path clip-path="url(#clip400)" d="M63.5847 1361.99 Q59.9736 1361.99 58.1449 1365.55 Q56.3393 1369.09 56.3393 1376.22 Q56.3393 1383.33 58.1449 1386.89 Q59.9736 1390.43 63.5847 1390.43 Q67.2189 1390.43 69.0244 1386.89 Q70.8531 1383.33 70.8531 1376.22 Q70.8531 1369.09 69.0244 1365.55 Q67.2189 1361.99 63.5847 1361.99 M63.5847 1358.28 Q69.3948 1358.28 72.4503 1362.89 Q75.529 1367.47 75.529 1376.22 Q75.529 1384.95 72.4503 1389.55 Q69.3948 1394.14 63.5847 1394.14 Q57.7745 1394.14 54.6958 1389.55 Q51.6403 1384.95 51.6403 1376.22 Q51.6403 1367.47 54.6958 1362.89 Q57.7745 1358.28 63.5847 1358.28 Z" fill="#000000" fill-rule="nonzero" fill-opacity="1" /><path clip-path="url(#clip400)" d="M83.7466 1387.59 L88.6308 1387.59 L88.6308 1393.47 L83.7466 1393.47 L83.7466 1387.59 Z" fill="#000000" fill-rule="nonzero" fill-opacity="1" /><path clip-path="url(#clip400)" d="M98.8622 1358.91 L117.219 1358.91 L117.219 1362.84 L103.145 1362.84 L103.145 1371.31 Q104.163 1370.97 105.182 1370.81 Q106.2 1370.62 107.219 1370.62 Q113.006 1370.62 116.385 1373.79 Q119.765 1376.96 119.765 1382.38 Q119.765 1387.96 116.293 1391.06 Q112.82 1394.14 106.501 1394.14 Q104.325 1394.14 102.057 1393.77 Q99.8113 1393.4 97.4039 1392.66 L97.4039 1387.96 Q99.4872 1389.09 101.709 1389.65 Q103.932 1390.2 106.408 1390.2 Q110.413 1390.2 112.751 1388.1 Q115.089 1385.99 115.089 1382.38 Q115.089 1378.77 112.751 1376.66 Q110.413 1374.56 106.408 1374.56 Q104.534 1374.56 102.659 1374.97 Q100.807 1375.39 98.8622 1376.27 L98.8622 1358.91 Z" fill="#000000" fill-rule="nonzero" fill-opacity="1" /><path clip-path="url(#clip400)" d="M53.3995 1183.79 L61.0384 1183.79 L61.0384 1157.42 L52.7282 1159.09 L52.7282 1154.83 L60.9921 1153.16 L65.668 1153.16 L65.668 1183.79 L73.3068 1183.79 L73.3068 1187.72 L53.3995 1187.72 L53.3995 1183.79 Z" fill="#000000" fill-rule="nonzero" fill-opacity="1" /><path clip-path="url(#clip400)" d="M82.7512 1181.84 L87.6354 1181.84 L87.6354 1187.72 L82.7512 1187.72 L82.7512 1181.84 Z" fill="#000000" fill-rule="nonzero" fill-opacity="1" /><path clip-path="url(#clip400)" d="M107.821 1156.24 Q104.209 1156.24 102.381 1159.81 Q100.575 1163.35 100.575 1170.48 Q100.575 1177.58 102.381 1181.15 Q104.209 1184.69 107.821 1184.69 Q111.455 1184.69 113.26 1181.15 Q115.089 1177.58 115.089 1170.48 Q115.089 1163.35 113.26 1159.81 Q111.455 1156.24 107.821 1156.24 M107.821 1152.54 Q113.631 1152.54 116.686 1157.14 Q119.765 1161.73 119.765 1170.48 Q119.765 1179.2 116.686 1183.81 Q113.631 1188.39 107.821 1188.39 Q102.01 1188.39 98.9317 1183.81 Q95.8761 1179.2 95.8761 1170.48 Q95.8761 1161.73 98.9317 1157.14 Q102.01 1152.54 107.821 1152.54 Z" fill="#000000" fill-rule="nonzero" fill-opacity="1" /><path clip-path="url(#clip400)" d="M54.3949 978.044 L62.0337 978.044 L62.0337 951.679 L53.7236 953.345 L53.7236 949.086 L61.9874 947.42 L66.6633 947.42 L66.6633 978.044 L74.3022 978.044 L74.3022 981.98 L54.3949 981.98 L54.3949 978.044 Z" fill="#000000" fill-rule="nonzero" fill-opacity="1" /><path clip-path="url(#clip400)" d="M83.7466 976.1 L88.6308 976.1 L88.6308 981.98 L83.7466 981.98 L83.7466 976.1 Z" fill="#000000" fill-rule="nonzero" fill-opacity="1" /><path clip-path="url(#clip400)" d="M98.8622 947.42 L117.219 947.42 L117.219 951.355 L103.145 951.355 L103.145 959.827 Q104.163 959.48 105.182 959.318 Q106.2 959.132 107.219 959.132 Q113.006 959.132 116.385 962.304 Q119.765 965.475 119.765 970.892 Q119.765 976.47 116.293 979.572 Q112.82 982.651 106.501 982.651 Q104.325 982.651 102.057 982.28 Q99.8113 981.91 97.4039 981.169 L97.4039 976.47 Q99.4872 977.605 101.709 978.16 Q103.932 978.716 106.408 978.716 Q110.413 978.716 112.751 976.609 Q115.089 974.503 115.089 970.892 Q115.089 967.281 112.751 965.174 Q110.413 963.068 106.408 963.068 Q104.534 963.068 102.659 963.484 Q100.807 963.901 98.8622 964.781 L98.8622 947.42 Z" fill="#000000" fill-rule="nonzero" fill-opacity="1" /><path clip-path="url(#clip400)" d="M56.6171 772.301 L72.9365 772.301 L72.9365 776.236 L50.9921 776.236 L50.9921 772.301 Q53.6541 769.546 58.2375 764.916 Q62.8439 760.264 64.0245 758.921 Q66.2698 756.398 67.1494 754.662 Q68.0522 752.903 68.0522 751.213 Q68.0522 748.458 66.1078 746.722 Q64.1865 744.986 61.0847 744.986 Q58.8856 744.986 56.4319 745.75 Q54.0014 746.514 51.2236 748.065 L51.2236 743.342 Q54.0477 742.208 56.5014 741.63 Q58.955 741.051 60.9921 741.051 Q66.3624 741.051 69.5568 743.736 Q72.7513 746.421 72.7513 750.912 Q72.7513 753.042 71.9411 754.963 Q71.1541 756.861 69.0476 759.454 Q68.4689 760.125 65.367 763.342 Q62.2652 766.537 56.6171 772.301 Z" fill="#000000" fill-rule="nonzero" fill-opacity="1" /><path clip-path="url(#clip400)" d="M82.7512 770.356 L87.6354 770.356 L87.6354 776.236 L82.7512 776.236 L82.7512 770.356 Z" fill="#000000" fill-rule="nonzero" fill-opacity="1" /><path clip-path="url(#clip400)" d="M107.821 744.755 Q104.209 744.755 102.381 748.319 Q100.575 751.861 100.575 758.991 Q100.575 766.097 102.381 769.662 Q104.209 773.203 107.821 773.203 Q111.455 773.203 113.26 769.662 Q115.089 766.097 115.089 758.991 Q115.089 751.861 113.26 748.319 Q111.455 744.755 107.821 744.755 M107.821 741.051 Q113.631 741.051 116.686 745.657 Q119.765 750.241 119.765 758.991 Q119.765 767.717 116.686 772.324 Q113.631 776.907 107.821 776.907 Q102.01 776.907 98.9317 772.324 Q95.8761 767.717 95.8761 758.991 Q95.8761 750.241 98.9317 745.657 Q102.01 741.051 107.821 741.051 Z" fill="#000000" fill-rule="nonzero" fill-opacity="1" /><path clip-path="url(#clip400)" d="M57.6125 566.557 L73.9318 566.557 L73.9318 570.492 L51.9875 570.492 L51.9875 566.557 Q54.6495 563.802 59.2328 559.173 Q63.8393 554.52 65.0198 553.177 Q67.2652 550.654 68.1448 548.918 Q69.0476 547.159 69.0476 545.469 Q69.0476 542.714 67.1032 540.978 Q65.1819 539.242 62.08 539.242 Q59.881 539.242 57.4273 540.006 Q54.9967 540.77 52.219 542.321 L52.219 537.599 Q55.043 536.465 57.4967 535.886 Q59.9504 535.307 61.9874 535.307 Q67.3578 535.307 70.5522 537.992 Q73.7466 540.677 73.7466 545.168 Q73.7466 547.298 72.9365 549.219 Q72.1494 551.117 70.0429 553.71 Q69.4642 554.381 66.3624 557.599 Q63.2606 560.793 57.6125 566.557 Z" fill="#000000" fill-rule="nonzero" fill-opacity="1" /><path clip-path="url(#clip400)" d="M83.7466 564.613 L88.6308 564.613 L88.6308 570.492 L83.7466 570.492 L83.7466 564.613 Z" fill="#000000" fill-rule="nonzero" fill-opacity="1" /><path clip-path="url(#clip400)" d="M98.8622 535.932 L117.219 535.932 L117.219 539.867 L103.145 539.867 L103.145 548.339 Q104.163 547.992 105.182 547.83 Q106.2 547.645 107.219 547.645 Q113.006 547.645 116.385 550.816 Q119.765 553.988 119.765 559.404 Q119.765 564.983 116.293 568.085 Q112.82 571.163 106.501 571.163 Q104.325 571.163 102.057 570.793 Q99.8113 570.423 97.4039 569.682 L97.4039 564.983 Q99.4872 566.117 101.709 566.673 Q103.932 567.228 106.408 567.228 Q110.413 567.228 112.751 565.122 Q115.089 563.015 115.089 559.404 Q115.089 555.793 112.751 553.687 Q110.413 551.58 106.408 551.58 Q104.534 551.58 102.659 551.997 Q100.807 552.414 98.8622 553.293 L98.8622 535.932 Z" fill="#000000" fill-rule="nonzero" fill-opacity="1" /><path clip-path="url(#clip400)" d="M66.7559 346.114 Q70.1124 346.832 71.9874 349.1 Q73.8855 351.369 73.8855 354.702 Q73.8855 359.818 70.367 362.619 Q66.8485 365.42 60.3671 365.42 Q58.1912 365.42 55.8764 364.98 Q53.5847 364.563 51.131 363.707 L51.131 359.193 Q53.0754 360.327 55.3903 360.906 Q57.7051 361.485 60.2282 361.485 Q64.6263 361.485 66.918 359.748 Q69.2328 358.012 69.2328 354.702 Q69.2328 351.647 67.08 349.934 Q64.9504 348.198 61.131 348.198 L57.1032 348.198 L57.1032 344.355 L61.3161 344.355 Q64.7652 344.355 66.5939 342.989 Q68.4226 341.6 68.4226 339.008 Q68.4226 336.346 66.5245 334.934 Q64.6495 333.499 61.131 333.499 Q59.2097 333.499 57.0106 333.915 Q54.8115 334.332 52.1727 335.212 L52.1727 331.045 Q54.8347 330.304 57.1495 329.934 Q59.4875 329.563 61.5476 329.563 Q66.8717 329.563 69.9735 331.994 Q73.0753 334.401 73.0753 338.522 Q73.0753 341.392 71.4318 343.383 Q69.7883 345.35 66.7559 346.114 Z" fill="#000000" fill-rule="nonzero" fill-opacity="1" /><path clip-path="url(#clip400)" d="M82.7512 358.869 L87.6354 358.869 L87.6354 364.748 L82.7512 364.748 L82.7512 358.869 Z" fill="#000000" fill-rule="nonzero" fill-opacity="1" /><path clip-path="url(#clip400)" d="M107.821 333.267 Q104.209 333.267 102.381 336.832 Q100.575 340.374 100.575 347.503 Q100.575 354.61 102.381 358.174 Q104.209 361.716 107.821 361.716 Q111.455 361.716 113.26 358.174 Q115.089 354.61 115.089 347.503 Q115.089 340.374 113.26 336.832 Q111.455 333.267 107.821 333.267 M107.821 329.563 Q113.631 329.563 116.686 334.17 Q119.765 338.753 119.765 347.503 Q119.765 356.23 116.686 360.836 Q113.631 365.42 107.821 365.42 Q102.01 365.42 98.9317 360.836 Q95.8761 356.23 95.8761 347.503 Q95.8761 338.753 98.9317 334.17 Q102.01 329.563 107.821 329.563 Z" fill="#000000" fill-rule="nonzero" fill-opacity="1" /><path clip-path="url(#clip400)" d="M67.7513 140.371 Q71.1078 141.088 72.9827 143.357 Q74.8809 145.625 74.8809 148.958 Q74.8809 154.074 71.3624 156.875 Q67.8439 159.676 61.3624 159.676 Q59.1865 159.676 56.8717 159.236 Q54.5801 158.82 52.1264 157.963 L52.1264 153.449 Q54.0708 154.583 56.3856 155.162 Q58.7004 155.741 61.2236 155.741 Q65.6217 155.741 67.9133 154.005 Q70.2281 152.269 70.2281 148.958 Q70.2281 145.903 68.0754 144.19 Q65.9457 142.454 62.1263 142.454 L58.0986 142.454 L58.0986 138.611 L62.3115 138.611 Q65.7606 138.611 67.5893 137.246 Q69.418 135.857 69.418 133.264 Q69.418 130.602 67.5198 129.19 Q65.6448 127.755 62.1263 127.755 Q60.205 127.755 58.006 128.172 Q55.8069 128.588 53.168 129.468 L53.168 125.301 Q55.8301 124.56 58.1449 124.19 Q60.4828 123.82 62.543 123.82 Q67.867 123.82 70.9689 126.25 Q74.0707 128.658 74.0707 132.778 Q74.0707 135.648 72.4272 137.639 Q70.7837 139.607 67.7513 140.371 Z" fill="#000000" fill-rule="nonzero" fill-opacity="1" /><path clip-path="url(#clip400)" d="M83.7466 153.125 L88.6308 153.125 L88.6308 159.005 L83.7466 159.005 L83.7466 153.125 Z" fill="#000000" fill-rule="nonzero" fill-opacity="1" /><path clip-path="url(#clip400)" d="M98.8622 124.445 L117.219 124.445 L117.219 128.38 L103.145 128.38 L103.145 136.852 Q104.163 136.505 105.182 136.343 Q106.2 136.158 107.219 136.158 Q113.006 136.158 116.385 139.329 Q119.765 142.5 119.765 147.917 Q119.765 153.495 116.293 156.597 Q112.82 159.676 106.501 159.676 Q104.325 159.676 102.057 159.306 Q99.8113 158.935 97.4039 158.195 L97.4039 153.495 Q99.4872 154.63 101.709 155.185 Q103.932 155.741 106.408 155.741 Q110.413 155.741 112.751 153.634 Q115.089 151.528 115.089 147.917 Q115.089 144.306 112.751 142.199 Q110.413 140.093 106.408 140.093 Q104.534 140.093 102.659 140.509 Q100.807 140.926 98.8622 141.806 L98.8622 124.445 Z" fill="#000000" fill-rule="nonzero" fill-opacity="1" /><path clip-path="url(#clip401)" d="M217.944 1376.19 L425.207 1394.61 L632.47 1403.93 L839.734 1413.11 L1047 1438.49 L1254.26 1445.72 L1461.52 1419.58 L1668.79 1423.93 L1876.05 1445.07 L2083.31 1438.05 L2290.58 1434.54 L2290.58 87.9763 L2083.31 319.838 L1876.05 452.502 L1668.79 562.561 L1461.52 666.094 L1254.26 657.376 L1047 853.626 L839.734 1046.01 L632.47 1210.11 L425.207 1277.05 L217.944 1376.19  Z" fill="#009af9" fill-rule="evenodd" fill-opacity="0.2"/>
<polyline clip-path="url(#clip401)" style="stroke:#009af9; stroke-linecap:round; stroke-linejoin:round; stroke-width:12; stroke-opacity:1; fill:none" points="217.944,1376.19 425.207,1363.92 632.47,1316.14 839.734,1288.62 1047,1274.65 1254.26,1190.94 1461.52,1128.07 1668.79,1079.47 1876.05,1080.69 2083.31,1137.1 2290.58,1144.09 "/>
</svg>
