<?xml version="1.0" encoding="utf-8"?>
<svg xmlns="http://www.w3.org/2000/svg" xmlns:xlink="http://www.w3.org/1999/xlink" width="600" height="400" viewBox="0 0 2400 1600">
<defs>
  <clipPath id="clip690">
    <rect x="0" y="0" width="2400" height="1600"/>
  </clipPath>
</defs>
<path clip-path="url(#clip690)" d="M0 1600 L2400 1600 L2400 0 L0 0  Z" fill="#ffffff" fill-rule="evenodd" fill-opacity="1"/>
<defs>
  <clipPath id="clip691">
    <rect x="480" y="0" width="1681" height="1600"/>
  </clipPath>
</defs>
<path clip-path="url(#clip690)" d="M112.177 1486.45 L2352.76 1486.45 L2352.76 47.2441 L112.177 47.2441  Z" fill="#ffffff" fill-rule="evenodd" fill-opacity="1"/>
<defs>
  <clipPath id="clip692">
    <rect x="112" y="47" width="2242" height="1440"/>
  </clipPath>
</defs>
<polyline clip-path="url(#clip692)" style="stroke:#000000; stroke-linecap:round; stroke-linejoin:round; stroke-width:2; stroke-opacity:0.1; fill:none" points="175.59,1486.45 175.59,47.2441 "/>
<polyline clip-path="url(#clip692)" style="stroke:#000000; stroke-linecap:round; stroke-linejoin:round; stroke-width:2; stroke-opacity:0.1; fill:none" points="704.028,1486.45 704.028,47.2441 "/>
<polyline clip-path="url(#clip692)" style="stroke:#000000; stroke-linecap:round; stroke-linejoin:round; stroke-width:2; stroke-opacity:0.1; fill:none" points="1232.47,1486.45 1232.47,47.2441 "/>
<polyline clip-path="url(#clip692)" style="stroke:#000000; stroke-linecap:round; stroke-linejoin:round; stroke-width:2; stroke-opacity:0.1; fill:none" points="1760.9,1486.45 1760.9,47.2441 "/>
<polyline clip-path="url(#clip692)" style="stroke:#000000; stroke-linecap:round; stroke-linejoin:round; stroke-width:2; stroke-opacity:0.1; fill:none" points="2289.34,1486.45 2289.34,47.2441 "/>
<polyline clip-path="url(#clip692)" style="stroke:#000000; stroke-linecap:round; stroke-linejoin:round; stroke-width:2; stroke-opacity:0.1; fill:none" points="112.177,1457.32 2352.76,1457.32 "/>
<polyline clip-path="url(#clip692)" style="stroke:#000000; stroke-linecap:round; stroke-linejoin:round; stroke-width:2; stroke-opacity:0.1; fill:none" points="112.177,1162.5 2352.76,1162.5 "/>
<polyline clip-path="url(#clip692)" style="stroke:#000000; stroke-linecap:round; stroke-linejoin:round; stroke-width:2; stroke-opacity:0.1; fill:none" points="112.177,867.682 2352.76,867.682 "/>
<polyline clip-path="url(#clip692)" style="stroke:#000000; stroke-linecap:round; stroke-linejoin:round; stroke-width:2; stroke-opacity:0.1; fill:none" points="112.177,572.862 2352.76,572.862 "/>
<polyline clip-path="url(#clip692)" style="stroke:#000000; stroke-linecap:round; stroke-linejoin:round; stroke-width:2; stroke-opacity:0.1; fill:none" points="112.177,278.042 2352.76,278.042 "/>
<polyline clip-path="url(#clip690)" style="stroke:#000000; stroke-linecap:round; stroke-linejoin:round; stroke-width:4; stroke-opacity:1; fill:none" points="112.177,1486.45 2352.76,1486.45 "/>
<polyline clip-path="url(#clip690)" style="stroke:#000000; stroke-linecap:round; stroke-linejoin:round; stroke-width:4; stroke-opacity:1; fill:none" points="175.59,1486.45 175.59,1467.55 "/>
<polyline clip-path="url(#clip690)" style="stroke:#000000; stroke-linecap:round; stroke-linejoin:round; stroke-width:4; stroke-opacity:1; fill:none" points="704.028,1486.45 704.028,1467.55 "/>
<polyline clip-path="url(#clip690)" style="stroke:#000000; stroke-linecap:round; stroke-linejoin:round; stroke-width:4; stroke-opacity:1; fill:none" points="1232.47,1486.45 1232.47,1467.55 "/>
<polyline clip-path="url(#clip690)" style="stroke:#000000; stroke-linecap:round; stroke-linejoin:round; stroke-width:4; stroke-opacity:1; fill:none" points="1760.9,1486.45 1760.9,1467.55 "/>
<polyline clip-path="url(#clip690)" style="stroke:#000000; stroke-linecap:round; stroke-linejoin:round; stroke-width:4; stroke-opacity:1; fill:none" points="2289.34,1486.45 2289.34,1467.55 "/>
<path clip-path="url(#clip690)" d="M152.974 1517.37 Q149.363 1517.37 147.534 1520.93 Q145.729 1524.47 145.729 1531.6 Q145.729 1538.71 147.534 1542.27 Q149.363 1545.82 152.974 1545.82 Q156.608 1545.82 158.414 1542.27 Q160.243 1538.71 160.243 1531.6 Q160.243 1524.47 158.414 1520.93 Q156.608 1517.37 152.974 1517.37 M152.974 1513.66 Q158.784 1513.66 161.84 1518.27 Q164.919 1522.85 164.919 1531.6 Q164.919 1540.33 161.84 1544.94 Q158.784 1549.52 152.974 1549.52 Q147.164 1549.52 144.085 1544.94 Q141.03 1540.33 141.03 1531.6 Q141.03 1522.85 144.085 1518.27 Q147.164 1513.66 152.974 1513.66 Z" fill="#000000" fill-rule="nonzero" fill-opacity="1" /><path clip-path="url(#clip690)" d="M173.136 1542.97 L178.02 1542.97 L178.02 1548.85 L173.136 1548.85 L173.136 1542.97 Z" fill="#000000" fill-rule="nonzero" fill-opacity="1" /><path clip-path="url(#clip690)" d="M198.205 1517.37 Q194.594 1517.37 192.766 1520.93 Q190.96 1524.47 190.96 1531.6 Q190.96 1538.71 192.766 1542.27 Q194.594 1545.82 198.205 1545.82 Q201.84 1545.82 203.645 1542.27 Q205.474 1538.71 205.474 1531.6 Q205.474 1524.47 203.645 1520.93 Q201.84 1517.37 198.205 1517.37 M198.205 1513.66 Q204.016 1513.66 207.071 1518.27 Q210.15 1522.85 210.15 1531.6 Q210.15 1540.33 207.071 1544.94 Q204.016 1549.52 198.205 1549.52 Q192.395 1549.52 189.317 1544.94 Q186.261 1540.33 186.261 1531.6 Q186.261 1522.85 189.317 1518.27 Q192.395 1513.66 198.205 1513.66 Z" fill="#000000" fill-rule="nonzero" fill-opacity="1" /><path clip-path="url(#clip690)" d="M675.764 1544.91 L692.084 1544.91 L692.084 1548.85 L670.139 1548.85 L670.139 1544.91 Q672.801 1542.16 677.385 1537.53 Q681.991 1532.88 683.172 1531.53 Q685.417 1529.01 686.297 1527.27 Q687.2 1525.51 687.2 1523.82 Q687.2 1521.07 685.255 1519.33 Q683.334 1517.6 680.232 1517.6 Q678.033 1517.6 675.579 1518.36 Q673.149 1519.13 670.371 1520.68 L670.371 1515.95 Q673.195 1514.82 675.649 1514.24 Q678.102 1513.66 680.139 1513.66 Q685.51 1513.66 688.704 1516.35 Q691.899 1519.03 691.899 1523.52 Q691.899 1525.65 691.088 1527.57 Q690.301 1529.47 688.195 1532.07 Q687.616 1532.74 684.514 1535.95 Q681.413 1539.15 675.764 1544.91 Z" fill="#000000" fill-rule="nonzero" fill-opacity="1" /><path clip-path="url(#clip690)" d="M701.899 1542.97 L706.783 1542.97 L706.783 1548.85 L701.899 1548.85 L701.899 1542.97 Z" fill="#000000" fill-rule="nonzero" fill-opacity="1" /><path clip-path="url(#clip690)" d="M717.014 1514.29 L735.371 1514.29 L735.371 1518.22 L721.297 1518.22 L721.297 1526.7 Q722.315 1526.35 723.334 1526.19 Q724.352 1526 725.371 1526 Q731.158 1526 734.537 1529.17 Q737.917 1532.34 737.917 1537.76 Q737.917 1543.34 734.445 1546.44 Q730.972 1549.52 724.653 1549.52 Q722.477 1549.52 720.209 1549.15 Q717.963 1548.78 715.556 1548.04 L715.556 1543.34 Q717.639 1544.47 719.861 1545.03 Q722.084 1545.58 724.56 1545.58 Q728.565 1545.58 730.903 1543.48 Q733.241 1541.37 733.241 1537.76 Q733.241 1534.15 730.903 1532.04 Q728.565 1529.94 724.56 1529.94 Q722.685 1529.94 720.81 1530.35 Q718.959 1530.77 717.014 1531.65 L717.014 1514.29 Z" fill="#000000" fill-rule="nonzero" fill-opacity="1" /><path clip-path="url(#clip690)" d="M1199.63 1514.29 L1217.99 1514.29 L1217.99 1518.22 L1203.91 1518.22 L1203.91 1526.7 Q1204.93 1526.35 1205.95 1526.19 Q1206.97 1526 1207.99 1526 Q1213.77 1526 1217.15 1529.17 Q1220.53 1532.34 1220.53 1537.76 Q1220.53 1543.34 1217.06 1546.44 Q1213.59 1549.52 1207.27 1549.52 Q1205.09 1549.52 1202.83 1549.15 Q1200.58 1548.78 1198.17 1548.04 L1198.17 1543.34 Q1200.26 1544.47 1202.48 1545.03 Q1204.7 1545.58 1207.18 1545.58 Q1211.18 1545.58 1213.52 1543.48 Q1215.86 1541.37 1215.86 1537.76 Q1215.86 1534.15 1213.52 1532.04 Q1211.18 1529.94 1207.18 1529.94 Q1205.3 1529.94 1203.43 1530.35 Q1201.58 1530.77 1199.63 1531.65 L1199.63 1514.29 Z" fill="#000000" fill-rule="nonzero" fill-opacity="1" /><path clip-path="url(#clip690)" d="M1229.75 1542.97 L1234.63 1542.97 L1234.63 1548.85 L1229.75 1548.85 L1229.75 1542.97 Z" fill="#000000" fill-rule="nonzero" fill-opacity="1" /><path clip-path="url(#clip690)" d="M1254.82 1517.37 Q1251.2 1517.37 1249.38 1520.93 Q1247.57 1524.47 1247.57 1531.6 Q1247.57 1538.71 1249.38 1542.27 Q1251.2 1545.82 1254.82 1545.82 Q1258.45 1545.82 1260.26 1542.27 Q1262.08 1538.71 1262.08 1531.6 Q1262.08 1524.47 1260.26 1520.93 Q1258.45 1517.37 1254.82 1517.37 M1254.82 1513.66 Q1260.63 1513.66 1263.68 1518.27 Q1266.76 1522.85 1266.76 1531.6 Q1266.76 1540.33 1263.68 1544.94 Q1260.63 1549.52 1254.82 1549.52 Q1249.01 1549.52 1245.93 1544.94 Q1242.87 1540.33 1242.87 1531.6 Q1242.87 1522.85 1245.93 1518.27 Q1249.01 1513.66 1254.82 1513.66 Z" fill="#000000" fill-rule="nonzero" fill-opacity="1" /><path clip-path="url(#clip690)" d="M1727.22 1514.29 L1749.45 1514.29 L1749.45 1516.28 L1736.9 1548.85 L1732.02 1548.85 L1743.82 1518.22 L1727.22 1518.22 L1727.22 1514.29 Z" fill="#000000" fill-rule="nonzero" fill-opacity="1" /><path clip-path="url(#clip690)" d="M1758.57 1542.97 L1763.45 1542.97 L1763.45 1548.85 L1758.57 1548.85 L1758.57 1542.97 Z" fill="#000000" fill-rule="nonzero" fill-opacity="1" /><path clip-path="url(#clip690)" d="M1773.68 1514.29 L1792.04 1514.29 L1792.04 1518.22 L1777.97 1518.22 L1777.97 1526.7 Q1778.98 1526.35 1780 1526.19 Q1781.02 1526 1782.04 1526 Q1787.83 1526 1791.21 1529.17 Q1794.59 1532.34 1794.59 1537.76 Q1794.59 1543.34 1791.11 1546.44 Q1787.64 1549.52 1781.32 1549.52 Q1779.15 1549.52 1776.88 1549.15 Q1774.63 1548.78 1772.22 1548.04 L1772.22 1543.34 Q1774.31 1544.47 1776.53 1545.03 Q1778.75 1545.58 1781.23 1545.58 Q1785.23 1545.58 1787.57 1543.48 Q1789.91 1541.37 1789.91 1537.76 Q1789.91 1534.15 1787.57 1532.04 Q1785.23 1529.94 1781.23 1529.94 Q1779.35 1529.94 1777.48 1530.35 Q1775.63 1530.77 1773.68 1531.65 L1773.68 1514.29 Z" fill="#000000" fill-rule="nonzero" fill-opacity="1" /><path clip-path="url(#clip690)" d="M2241.42 1544.91 L2249.05 1544.91 L2249.05 1518.55 L2240.74 1520.21 L2240.74 1515.95 L2249.01 1514.29 L2253.68 1514.29 L2253.68 1544.91 L2261.32 1544.91 L2261.32 1548.85 L2241.42 1548.85 L2241.42 1544.91 Z" fill="#000000" fill-rule="nonzero" fill-opacity="1" /><path clip-path="url(#clip690)" d="M2280.77 1517.37 Q2277.16 1517.37 2275.33 1520.93 Q2273.52 1524.47 2273.52 1531.6 Q2273.52 1538.71 2275.33 1542.27 Q2277.16 1545.82 2280.77 1545.82 Q2284.4 1545.82 2286.21 1542.27 Q2288.04 1538.71 2288.04 1531.6 Q2288.04 1524.47 2286.21 1520.93 Q2284.4 1517.37 2280.77 1517.37 M2280.77 1513.66 Q2286.58 1513.66 2289.63 1518.27 Q2292.71 1522.85 2292.71 1531.6 Q2292.71 1540.33 2289.63 1544.94 Q2286.58 1549.52 2280.77 1549.52 Q2274.96 1549.52 2271.88 1544.94 Q2268.82 1540.33 2268.82 1531.6 Q2268.82 1522.85 2271.88 1518.27 Q2274.96 1513.66 2280.77 1513.66 Z" fill="#000000" fill-rule="nonzero" fill-opacity="1" /><path clip-path="url(#clip690)" d="M2300.93 1542.97 L2305.81 1542.97 L2305.81 1548.85 L2300.93 1548.85 L2300.93 1542.97 Z" fill="#000000" fill-rule="nonzero" fill-opacity="1" /><path clip-path="url(#clip690)" d="M2326 1517.37 Q2322.39 1517.37 2320.56 1520.93 Q2318.75 1524.47 2318.75 1531.6 Q2318.75 1538.71 2320.56 1542.27 Q2322.39 1545.82 2326 1545.82 Q2329.63 1545.82 2331.44 1542.27 Q2333.27 1538.71 2333.27 1531.6 Q2333.27 1524.47 2331.44 1520.93 Q2329.63 1517.37 2326 1517.37 M2326 1513.66 Q2331.81 1513.66 2334.86 1518.27 Q2337.94 1522.85 2337.94 1531.6 Q2337.94 1540.33 2334.86 1544.94 Q2331.81 1549.52 2326 1549.52 Q2320.19 1549.52 2317.11 1544.94 Q2314.05 1540.33 2314.05 1531.6 Q2314.05 1522.85 2317.11 1518.27 Q2320.19 1513.66 2326 1513.66 Z" fill="#000000" fill-rule="nonzero" fill-opacity="1" /><polyline clip-path="url(#clip690)" style="stroke:#000000; stroke-linecap:round; stroke-linejoin:round; stroke-width:4; stroke-opacity:1; fill:none" points="112.177,1486.45 112.177,47.2441 "/>
<polyline clip-path="url(#clip690)" style="stroke:#000000; stroke-linecap:round; stroke-linejoin:round; stroke-width:4; stroke-opacity:1; fill:none" points="112.177,1457.32 131.075,1457.32 "/>
<polyline clip-path="url(#clip690)" style="stroke:#000000; stroke-linecap:round; stroke-linejoin:round; stroke-width:4; stroke-opacity:1; fill:none" points="112.177,1162.5 131.075,1162.5 "/>
<polyline clip-path="url(#clip690)" style="stroke:#000000; stroke-linecap:round; stroke-linejoin:round; stroke-width:4; stroke-opacity:1; fill:none" points="112.177,867.682 131.075,867.682 "/>
<polyline clip-path="url(#clip690)" style="stroke:#000000; stroke-linecap:round; stroke-linejoin:round; stroke-width:4; stroke-opacity:1; fill:none" points="112.177,572.862 131.075,572.862 "/>
<polyline clip-path="url(#clip690)" style="stroke:#000000; stroke-linecap:round; stroke-linejoin:round; stroke-width:4; stroke-opacity:1; fill:none" points="112.177,278.042 131.075,278.042 "/>
<path clip-path="url(#clip690)" d="M64.2328 1443.12 Q60.6217 1443.12 58.793 1446.69 Q56.9875 1450.23 56.9875 1457.36 Q56.9875 1464.46 58.793 1468.03 Q60.6217 1471.57 64.2328 1471.57 Q67.867 1471.57 69.6726 1468.03 Q71.5013 1464.46 71.5013 1457.36 Q71.5013 1450.23 69.6726 1446.69 Q67.867 1443.12 64.2328 1443.12 M64.2328 1439.42 Q70.0429 1439.42 73.0985 1444.02 Q76.1772 1448.61 76.1772 1457.36 Q76.1772 1466.08 73.0985 1470.69 Q70.0429 1475.27 64.2328 1475.27 Q58.4226 1475.27 55.344 1470.69 Q52.2884 1466.08 52.2884 1457.36 Q52.2884 1448.61 55.344 1444.02 Q58.4226 1439.42 64.2328 1439.42 Z" fill="#000000" fill-rule="nonzero" fill-opacity="1" /><path clip-path="url(#clip690)" d="M59.8578 1175.85 L76.1772 1175.85 L76.1772 1179.78 L54.2328 1179.78 L54.2328 1175.85 Q56.8949 1173.09 61.4782 1168.46 Q66.0846 1163.81 67.2652 1162.47 Q69.5105 1159.94 70.3902 1158.21 Q71.2929 1156.45 71.2929 1154.76 Q71.2929 1152 69.3485 1150.27 Q67.4272 1148.53 64.3254 1148.53 Q62.1263 1148.53 59.6726 1149.3 Q57.2421 1150.06 54.4643 1151.61 L54.4643 1146.89 Q57.2884 1145.75 59.7421 1145.18 Q62.1958 1144.6 64.2328 1144.6 Q69.6031 1144.6 72.7976 1147.28 Q75.992 1149.97 75.992 1154.46 Q75.992 1156.59 75.1818 1158.51 Q74.3948 1160.41 72.2883 1163 Q71.7096 1163.67 68.6078 1166.89 Q65.5059 1170.08 59.8578 1175.85 Z" fill="#000000" fill-rule="nonzero" fill-opacity="1" /><path clip-path="url(#clip690)" d="M66.5939 854.476 L54.7884 872.925 L66.5939 872.925 L66.5939 854.476 M65.367 850.402 L71.2466 850.402 L71.2466 872.925 L76.1772 872.925 L76.1772 876.814 L71.2466 876.814 L71.2466 884.962 L66.5939 884.962 L66.5939 876.814 L50.9921 876.814 L50.9921 872.3 L65.367 850.402 Z" fill="#000000" fill-rule="nonzero" fill-opacity="1" /><path clip-path="url(#clip690)" d="M64.6495 570.998 Q61.5013 570.998 59.6495 573.151 Q57.8208 575.304 57.8208 579.054 Q57.8208 582.781 59.6495 584.957 Q61.5013 587.109 64.6495 587.109 Q67.7976 587.109 69.6263 584.957 Q71.4781 582.781 71.4781 579.054 Q71.4781 575.304 69.6263 573.151 Q67.7976 570.998 64.6495 570.998 M73.9318 556.346 L73.9318 560.605 Q72.1726 559.772 70.367 559.332 Q68.5846 558.892 66.8254 558.892 Q62.1958 558.892 59.7421 562.017 Q57.3115 565.142 56.9643 571.461 Q58.33 569.448 60.3902 568.383 Q62.4504 567.295 64.9272 567.295 Q70.1355 567.295 73.1448 570.466 Q76.1772 573.614 76.1772 579.054 Q76.1772 584.378 73.029 587.596 Q69.8809 590.813 64.6495 590.813 Q58.6541 590.813 55.4828 586.23 Q52.3116 581.623 52.3116 572.897 Q52.3116 564.702 56.2004 559.841 Q60.0893 554.957 66.6402 554.957 Q68.3994 554.957 70.1818 555.304 Q71.9874 555.651 73.9318 556.346 Z" fill="#000000" fill-rule="nonzero" fill-opacity="1" /><path clip-path="url(#clip690)" d="M64.3254 278.91 Q60.9921 278.91 59.0708 280.692 Q57.1726 282.474 57.1726 285.599 Q57.1726 288.724 59.0708 290.507 Q60.9921 292.289 64.3254 292.289 Q67.6587 292.289 69.58 290.507 Q71.5013 288.701 71.5013 285.599 Q71.5013 282.474 69.58 280.692 Q67.6819 278.91 64.3254 278.91 M59.6495 276.919 Q56.6402 276.178 54.9504 274.118 Q53.2838 272.058 53.2838 269.095 Q53.2838 264.951 56.2236 262.544 Q59.1865 260.137 64.3254 260.137 Q69.4874 260.137 72.4272 262.544 Q75.367 264.951 75.367 269.095 Q75.367 272.058 73.6772 274.118 Q72.0105 276.178 69.0244 276.919 Q72.404 277.706 74.279 279.998 Q76.1772 282.289 76.1772 285.599 Q76.1772 290.623 73.0985 293.308 Q70.0429 295.993 64.3254 295.993 Q58.6078 295.993 55.5291 293.308 Q52.4736 290.623 52.4736 285.599 Q52.4736 282.289 54.3717 279.998 Q56.2699 277.706 59.6495 276.919 M57.9365 269.535 Q57.9365 272.22 59.6032 273.725 Q61.293 275.229 64.3254 275.229 Q67.3346 275.229 69.0244 273.725 Q70.7374 272.22 70.7374 269.535 Q70.7374 266.85 69.0244 265.345 Q67.3346 263.84 64.3254 263.84 Q61.293 263.84 59.6032 265.345 Q57.9365 266.85 57.9365 269.535 Z" fill="#000000" fill-rule="nonzero" fill-opacity="1" /><path clip-path="url(#clip692)" d="M175.59 1309.91 L196.727 1316.63 L217.865 1303.73 L239.002 1292.46 L260.14 1282.17 L281.277 1265.39 L302.415 1223.9 L323.553 1193.77 L344.69 1158.8 L365.828 1128.13 L386.965 1089.19 L408.103 1041.99 L429.24 1010.32 L450.378 970.074 L471.515 913.332 L492.653 853.515 L513.79 800.441 L534.928 713.501 L556.065 669.367 L577.203 679.234 L598.34 730.516 L619.478 932.236 L640.616 1123.96 L661.753 1236.62 L682.891 1300.31 L704.028 1335.19 L725.166 1358.84 L746.303 1363.42 L767.441 1372.34 L788.578 1373.73 L809.716 1366.85 L830.853 1368.68 L851.991 1354.07 L873.128 1350.24 L894.266 1348.07 L915.404 1336.25 L936.541 1337.02 L957.679 1317.78 L978.816 1298.3 L999.954 1275.13 L1021.09 1257.24 L1042.23 1235.57 L1063.37 1213.77 L1084.5 1197.34 L1105.64 1179.14 L1126.78 1162.02 L1147.92 1090.34 L1169.05 1039.73 L1190.19 992.206 L1211.33 883.458 L1232.47 855.865 L1253.6 856.224 L1274.74 911.725 L1295.88 1044.11 L1317.02 1151.72 L1338.15 1220.79 L1359.29 1268.88 L1380.43 1293.77 L1401.57 1296.77 L1422.7 1312.82 L1443.84 1321.14 L1464.98 1338.72 L1486.12 1364.6 L1507.25 1373.39 L1528.39 1377.87 L1549.53 1372.34 L1570.67 1370.67 L1591.8 1371.48 L1612.94 1370.4 L1634.08 1375.84 L1655.22 1363.98 L1676.35 1352.21 L1697.49 1343.61 L1718.63 1337.5 L1739.77 1323.43 L1760.9 1307.76 L1782.04 1284.43 L1803.18 1266.92 L1824.32 1231.43 L1845.46 1173.57 L1866.59 1140.14 L1887.73 1099.96 L1908.87 1039.71 L1930.01 983.047 L1951.14 937.444 L1972.28 913.705 L1993.42 888.884 L2014.56 905.121 L2035.69 994.277 L2056.83 1027.34 L2077.97 1112.51 L2099.11 1148.91 L2120.24 1202.1 L2141.38 1253.88 L2162.52 1264.64 L2183.66 1309.83 L2204.79 1349.13 L2225.93 1372.26 L2247.07 1389.17 L2268.21 1398.39 L2289.34 1406.49 L2289.34 1154.51 L2268.21 1142.01 L2247.07 1111.95 L2225.93 1050.23 L2204.79 865.083 L2183.66 598.559 L2162.52 466.354 L2141.38 259.285 L2120.24 254.662 L2099.11 198.77 L2077.97 162.97 L2056.83 87.9763 L2035.69 154.061 L2014.56 219.565 L1993.42 262.603 L1972.28 416.768 L1951.14 508.402 L1930.01 507.459 L1908.87 588.546 L1887.73 636.249 L1866.59 671.483 L1845.46 767.49 L1824.32 829.557 L1803.18 831.283 L1782.04 893.212 L1760.9 888.905 L1739.77 968.464 L1718.63 973.385 L1697.49 1016.58 L1676.35 1058.5 L1655.22 1127.19 L1634.08 1162.26 L1612.94 1172.83 L1591.8 1194.52 L1570.67 1206.6 L1549.53 1173.26 L1528.39 1091.68 L1507.25 899.073 L1486.12 712.769 L1464.98 532.98 L1443.84 384.687 L1422.7 396.405 L1401.57 325.666 L1380.43 365.534 L1359.29 347.459 L1338.15 368.434 L1317.02 304.732 L1295.88 358.891 L1274.74 350.15 L1253.6 396.326 L1232.47 414.619 L1211.33 420.576 L1190.19 488.5 L1169.05 449.962 L1147.92 506.963 L1126.78 602.593 L1105.64 704.829 L1084.5 812.638 L1063.37 878.155 L1042.23 985.672 L1021.09 1049.69 L999.954 1078.5 L978.816 1119.03 L957.679 1138.71 L936.541 1174.57 L915.404 1211.21 L894.266 1225.77 L873.128 1239.15 L851.991 1239.89 L830.853 1238.54 L809.716 1246.34 L788.578 1237.55 L767.441 1220.51 L746.303 1172.65 L725.166 1129.95 L704.028 996.706 L682.891 820.38 L661.753 657.759 L640.616 510.171 L619.478 398.033 L598.34 272.632 L577.203 314.899 L556.065 210.236 L534.928 202.554 L513.79 350.955 L492.653 482.779 L471.515 656.757 L450.378 751.331 L429.24 777.361 L408.103 837.626 L386.965 957.088 L365.828 1015.51 L344.69 1074.78 L323.553 1123.26 L302.415 1164.86 L281.277 1190.46 L260.14 1211.5 L239.002 1242.49 L217.865 1249.75 L196.727 1290.36 L175.59 1309.91  Z" fill="#009af9" fill-rule="evenodd" fill-opacity="0.5"/>
<polyline clip-path="url(#clip692)" style="stroke:#009af9; stroke-linecap:round; stroke-linejoin:round; stroke-width:12; stroke-opacity:1; fill:none" points="175.59,1309.91 196.727,1307.39 217.865,1288.5 239.002,1270.26 260.14,1254.17 281.277,1233.12 302.415,1205.06 323.553,1172.12 344.69,1125.99 365.828,1084.88 386.965,1037.97 408.103,982.014 429.24,911.463 450.378,867.766 471.515,796.829 492.653,689.797 513.79,598.513 534.928,537.429 556.065,511.99 577.203,487.506 598.34,527.711 619.478,701.469 640.616,844.182 661.753,943.429 682.891,1060.41 704.028,1176.07 725.166,1233.33 746.303,1269.64 767.441,1290.63 788.578,1314.36 809.716,1319.49 830.853,1318.35 851.991,1311.95 873.128,1304.41 894.266,1297.65 915.404,1280.4 936.541,1266.39 957.679,1258.11 978.816,1226.99 999.954,1181.87 1021.09,1139.14 1042.23,1091.73 1063.37,1058.02 1084.5,997.811 1105.64,937.554 1126.78,906.134 1147.92,822.353 1169.05,777.616 1190.19,684.818 1211.33,645.613 1232.47,641.036 1253.6,626.975 1274.74,665.265 1295.88,643.021 1317.02,663.692 1338.15,846.119 1359.29,933.019 1380.43,1043.86 1401.57,1170.19 1422.7,1215.63 1443.84,1277.39 1464.98,1307.27 1486.12,1303.41 1507.25,1312.9 1528.39,1317.89 1549.53,1315.61 1570.67,1316.32 1591.8,1318.51 1612.94,1319.27 1634.08,1301.86 1655.22,1281.29 1676.35,1262.1 1697.49,1236.19 1718.63,1210.12 1739.77,1179.76 1760.9,1148.81 1782.04,1121.54 1803.18,1094.82 1824.32,1048.58 1845.46,996.907 1866.59,932.647 1887.73,891.12 1908.87,807.575 1930.01,749.441 1951.14,698.709 1972.28,631.387 1993.42,642.738 2014.56,702.902 2035.69,762.356 2056.83,723.272 2077.97,782.242 2099.11,847.362 2120.24,896.64 2141.38,1023.49 2162.52,1162.09 2183.66,1219.87 2204.79,1263.66 2225.93,1261.58 2247.07,1285.54 2268.21,1303.32 2289.34,1299.63 "/>
<path clip-path="url(#clip692)" d="M175.59 1309.91 L196.727 1345.26 L217.865 1366.48 L239.002 1384.78 L260.14 1397.98 L281.277 1407.98 L302.415 1413.99 L323.553 1417.29 L344.69 1420.25 L365.828 1421.44 L386.965 1422.78 L408.103 1422.88 L429.24 1421 L450.378 1420.94 L471.515 1418.37 L492.653 1413.19 L513.79 1409.65 L534.928 1397.7 L556.065 1375.01 L577.203 1339.9 L598.34 1280.09 L619.478 1185.5 L640.616 1067.72 L661.753 972.209 L682.891 955.558 L704.028 972.278 L725.166 1023.44 L746.303 1101.59 L767.441 1199.48 L788.578 1248.33 L809.716 1304.58 L830.853 1334.28 L851.991 1356.48 L873.128 1373.83 L894.266 1387.58 L915.404 1401.03 L936.541 1415.59 L957.679 1425.69 L978.816 1431.95 L999.954 1436.48 L1021.09 1438.45 L1042.23 1440.76 L1063.37 1442.55 L1084.5 1443.21 L1105.64 1443.75 L1126.78 1444.79 L1147.92 1444.54 L1169.05 1443.3 L1190.19 1441.68 L1211.33 1440.52 L1232.47 1438.21 L1253.6 1436.33 L1274.74 1433.25 L1295.88 1427.99 L1317.02 1420.54 L1338.15 1401.58 L1359.29 1372.8 L1380.43 1328.66 L1401.57 1278.22 L1422.7 1278.11 L1443.84 1246.78 L1464.98 1278.3 L1486.12 1314.67 L1507.25 1337.59 L1528.39 1360.64 L1549.53 1372.67 L1570.67 1382.85 L1591.8 1398.44 L1612.94 1407.93 L1634.08 1417.02 L1655.22 1422.31 L1676.35 1425.92 L1697.49 1429.16 L1718.63 1431.92 L1739.77 1435.07 L1760.9 1438.08 L1782.04 1440.45 L1803.18 1443.36 L1824.32 1445.2 L1845.46 1445.72 L1866.59 1444.98 L1887.73 1445.47 L1908.87 1443.83 L1930.01 1442.24 L1951.14 1440.28 L1972.28 1436.6 L1993.42 1432.51 L2014.56 1424.76 L2035.69 1411.32 L2056.83 1387.1 L2077.97 1341.42 L2099.11 1303.93 L2120.24 1261.09 L2141.38 1209.56 L2162.52 1221.47 L2183.66 1246.92 L2204.79 1281.25 L2225.93 1306.77 L2247.07 1326.9 L2268.21 1343.63 L2289.34 1355.4 L2289.34 898.301 L2268.21 792.307 L2247.07 630.733 L2225.93 547.684 L2204.79 495.431 L2183.66 460.734 L2162.52 448.775 L2141.38 415.417 L2120.24 577.482 L2099.11 807.376 L2077.97 838.089 L2056.83 881.37 L2035.69 953.658 L2014.56 976.319 L1993.42 1052.41 L1972.28 1113.61 L1951.14 1184.21 L1930.01 1264.65 L1908.87 1305.82 L1887.73 1337.92 L1866.59 1353.7 L1845.46 1359.25 L1824.32 1361.31 L1803.18 1360.91 L1782.04 1358.59 L1760.9 1345.19 L1739.77 1325.29 L1718.63 1296.84 L1697.49 1266.69 L1676.35 1238.76 L1655.22 1192.5 L1634.08 1139.42 L1612.94 1032.95 L1591.8 955.916 L1570.67 893.434 L1549.53 809.981 L1528.39 739.966 L1507.25 701.973 L1486.12 780.388 L1464.98 801.272 L1443.84 737.745 L1422.7 670.41 L1401.57 627.037 L1380.43 626.518 L1359.29 712.655 L1338.15 766.339 L1317.02 803.909 L1295.88 749.335 L1274.74 768.494 L1253.6 847.415 L1232.47 974.937 L1211.33 1101.65 L1190.19 1206.66 L1169.05 1275.46 L1147.92 1326.83 L1126.78 1361.57 L1105.64 1380.49 L1084.5 1387.36 L1063.37 1388.46 L1042.23 1388.21 L1021.09 1383.59 L999.954 1375.41 L978.816 1364.23 L957.679 1348.08 L936.541 1323.45 L915.404 1299.65 L894.266 1264.5 L873.128 1238.56 L851.991 1196.71 L830.853 1142.85 L809.716 1083.42 L788.578 1044.12 L767.441 950.205 L746.303 849.586 L725.166 751.067 L704.028 692.201 L682.891 627.642 L661.753 627.076 L640.616 592.293 L619.478 592.474 L598.34 725.352 L577.203 880.718 L556.065 1092.67 L534.928 1209.13 L513.79 1281.01 L492.653 1319.32 L471.515 1347.77 L450.378 1368.37 L429.24 1389.83 L408.103 1400.97 L386.965 1402.46 L365.828 1401.88 L344.69 1399.82 L323.553 1398.94 L302.415 1394.37 L281.277 1384.02 L260.14 1376.21 L239.002 1363.09 L217.865 1342 L196.727 1323.7 L175.59 1309.91  Z" fill="#e26f46" fill-rule="evenodd" fill-opacity="0.5"/>
<polyline clip-path="url(#clip692)" style="stroke:#e26f46; stroke-linecap:round; stroke-linejoin:round; stroke-width:12; stroke-opacity:1; fill:none" points="175.59,1309.91 196.727,1341 217.865,1359.44 239.002,1374.97 260.14,1387.96 281.277,1396.45 302.415,1404.98 323.553,1411.02 344.69,1415.02 365.828,1417.34 386.965,1418.65 408.103,1418.85 429.24,1416.26 450.378,1412.3 471.515,1405.65 492.653,1393.03 513.79,1369.54 534.928,1329.44 556.065,1278.79 577.203,1227.05 598.34,1153.23 619.478,1018.78 640.616,845.394 661.753,797.95 682.891,801.818 704.028,867.206 725.166,949.783 746.303,1003.67 767.441,1077.05 788.578,1130.81 809.716,1187.85 830.853,1238.63 851.991,1274.93 873.128,1307.89 894.266,1339.68 915.404,1355.76 936.541,1371.59 957.679,1384.38 978.816,1394.92 999.954,1402.61 1021.09,1408.31 1042.23,1412.33 1063.37,1414.06 1084.5,1417.42 1105.64,1420.83 1126.78,1418.33 1147.92,1414.96 1169.05,1404.69 1190.19,1391.74 1211.33,1369.26 1232.47,1324.3 1253.6,1280.15 1274.74,1212.08 1295.88,1111.12 1317.02,1008.98 1338.15,958.811 1359.29,914.853 1380.43,941.797 1401.57,973.31 1422.7,1023.19 1443.84,1030.85 1464.98,1073.67 1486.12,1151.76 1507.25,1209.94 1528.39,1263.01 1549.53,1300.36 1570.67,1327.44 1591.8,1352 1612.94,1362.47 1634.08,1383.13 1655.22,1393.98 1676.35,1405.27 1697.49,1411.5 1718.63,1418.05 1739.77,1422.11 1760.9,1422.69 1782.04,1422.57 1803.18,1421.59 1824.32,1420.1 1845.46,1418.81 1866.59,1419.28 1887.73,1416.86 1908.87,1409.52 1930.01,1396.24 1951.14,1380.48 1972.28,1349.61 1993.42,1303.97 2014.56,1268.22 2035.69,1243.16 2056.83,1175.87 2077.97,1066.16 2099.11,1047.21 2120.24,1002.3 2141.38,1041.7 2162.52,1036.61 2183.66,1054.96 2204.79,1056.19 2225.93,1058.98 2247.07,1093.46 2268.21,1125.72 2289.34,1191.32 "/>
</svg>
