<?xml version="1.0" encoding="utf-8"?>
<svg xmlns="http://www.w3.org/2000/svg" xmlns:xlink="http://www.w3.org/1999/xlink" width="600" height="400" viewBox="0 0 2400 1600">
<defs>
  <clipPath id="clip790">
    <rect x="0" y="0" width="2400" height="1600"/>
  </clipPath>
</defs>
<path clip-path="url(#clip790)" d="M0 1600 L2400 1600 L2400 0 L0 0  Z" fill="#ffffff" fill-rule="evenodd" fill-opacity="1"/>
<defs>
  <clipPath id="clip791">
    <rect x="155" y="47" width="2198" height="1440"/>
  </clipPath>
</defs>
<path clip-path="url(#clip790)" d="M155.765 1486.45 L2352.76 1486.45 L2352.76 47.2441 L155.765 47.2441  Z" fill="#ffffff" fill-rule="evenodd" fill-opacity="1"/>
<polyline clip-path="url(#clip791)" style="stroke:#000000; stroke-linecap:round; stroke-linejoin:round; stroke-width:2; stroke-opacity:0.1; fill:none" points="217.944,1486.45 217.944,47.2441 "/>
<polyline clip-path="url(#clip791)" style="stroke:#000000; stroke-linecap:round; stroke-linejoin:round; stroke-width:2; stroke-opacity:0.1; fill:none" points="736.102,1486.45 736.102,47.2441 "/>
<polyline clip-path="url(#clip791)" style="stroke:#000000; stroke-linecap:round; stroke-linejoin:round; stroke-width:2; stroke-opacity:0.1; fill:none" points="1254.26,1486.45 1254.26,47.2441 "/>
<polyline clip-path="url(#clip791)" style="stroke:#000000; stroke-linecap:round; stroke-linejoin:round; stroke-width:2; stroke-opacity:0.1; fill:none" points="1772.42,1486.45 1772.42,47.2441 "/>
<polyline clip-path="url(#clip791)" style="stroke:#000000; stroke-linecap:round; stroke-linejoin:round; stroke-width:2; stroke-opacity:0.1; fill:none" points="2290.58,1486.45 2290.58,47.2441 "/>
<polyline clip-path="url(#clip791)" style="stroke:#000000; stroke-linecap:round; stroke-linejoin:round; stroke-width:2; stroke-opacity:0.1; fill:none" points="155.765,1326.03 2352.76,1326.03 "/>
<polyline clip-path="url(#clip791)" style="stroke:#000000; stroke-linecap:round; stroke-linejoin:round; stroke-width:2; stroke-opacity:0.1; fill:none" points="155.765,1054.42 2352.76,1054.42 "/>
<polyline clip-path="url(#clip791)" style="stroke:#000000; stroke-linecap:round; stroke-linejoin:round; stroke-width:2; stroke-opacity:0.1; fill:none" points="155.765,782.815 2352.76,782.815 "/>
<polyline clip-path="url(#clip791)" style="stroke:#000000; stroke-linecap:round; stroke-linejoin:round; stroke-width:2; stroke-opacity:0.1; fill:none" points="155.765,511.206 2352.76,511.206 "/>
<polyline clip-path="url(#clip791)" style="stroke:#000000; stroke-linecap:round; stroke-linejoin:round; stroke-width:2; stroke-opacity:0.1; fill:none" points="155.765,239.596 2352.76,239.596 "/>
<polyline clip-path="url(#clip790)" style="stroke:#000000; stroke-linecap:round; stroke-linejoin:round; stroke-width:4; stroke-opacity:1; fill:none" points="155.765,1486.45 2352.76,1486.45 "/>
<polyline clip-path="url(#clip790)" style="stroke:#000000; stroke-linecap:round; stroke-linejoin:round; stroke-width:4; stroke-opacity:1; fill:none" points="217.944,1486.45 217.944,1467.55 "/>
<polyline clip-path="url(#clip790)" style="stroke:#000000; stroke-linecap:round; stroke-linejoin:round; stroke-width:4; stroke-opacity:1; fill:none" points="736.102,1486.45 736.102,1467.55 "/>
<polyline clip-path="url(#clip790)" style="stroke:#000000; stroke-linecap:round; stroke-linejoin:round; stroke-width:4; stroke-opacity:1; fill:none" points="1254.26,1486.45 1254.26,1467.55 "/>
<polyline clip-path="url(#clip790)" style="stroke:#000000; stroke-linecap:round; stroke-linejoin:round; stroke-width:4; stroke-opacity:1; fill:none" points="1772.42,1486.45 1772.42,1467.55 "/>
<polyline clip-path="url(#clip790)" style="stroke:#000000; stroke-linecap:round; stroke-linejoin:round; stroke-width:4; stroke-opacity:1; fill:none" points="2290.58,1486.45 2290.58,1467.55 "/>
<path clip-path="url(#clip790)" d="M180.247 1517.37 Q176.636 1517.37 174.808 1520.93 Q173.002 1524.47 173.002 1531.6 Q173.002 1538.71 174.808 1542.27 Q176.636 1545.82 180.247 1545.82 Q183.882 1545.82 185.687 1542.27 Q187.516 1538.71 187.516 1531.6 Q187.516 1524.47 185.687 1520.93 Q183.882 1517.37 180.247 1517.37 M180.247 1513.66 Q186.057 1513.66 189.113 1518.27 Q192.192 1522.85 192.192 1531.6 Q192.192 1540.33 189.113 1544.94 Q186.057 1549.52 180.247 1549.52 Q174.437 1549.52 171.358 1544.94 Q168.303 1540.33 168.303 1531.6 Q168.303 1522.85 171.358 1518.27 Q174.437 1513.66 180.247 1513.66 Z" fill="#000000" fill-rule="nonzero" fill-opacity="1" /><path clip-path="url(#clip790)" d="M200.409 1542.97 L205.294 1542.97 L205.294 1548.85 L200.409 1548.85 L200.409 1542.97 Z" fill="#000000" fill-rule="nonzero" fill-opacity="1" /><path clip-path="url(#clip790)" d="M225.479 1517.37 Q221.867 1517.37 220.039 1520.93 Q218.233 1524.47 218.233 1531.6 Q218.233 1538.71 220.039 1542.27 Q221.867 1545.82 225.479 1545.82 Q229.113 1545.82 230.918 1542.27 Q232.747 1538.71 232.747 1531.6 Q232.747 1524.47 230.918 1520.93 Q229.113 1517.37 225.479 1517.37 M225.479 1513.66 Q231.289 1513.66 234.344 1518.27 Q237.423 1522.85 237.423 1531.6 Q237.423 1540.33 234.344 1544.94 Q231.289 1549.52 225.479 1549.52 Q219.668 1549.52 216.59 1544.94 Q213.534 1540.33 213.534 1531.6 Q213.534 1522.85 216.59 1518.27 Q219.668 1513.66 225.479 1513.66 Z" fill="#000000" fill-rule="nonzero" fill-opacity="1" /><path clip-path="url(#clip790)" d="M255.64 1517.37 Q252.029 1517.37 250.201 1520.93 Q248.395 1524.47 248.395 1531.6 Q248.395 1538.71 250.201 1542.27 Q252.029 1545.82 255.64 1545.82 Q259.275 1545.82 261.08 1542.27 Q262.909 1538.71 262.909 1531.6 Q262.909 1524.47 261.08 1520.93 Q259.275 1517.37 255.64 1517.37 M255.64 1513.66 Q261.451 1513.66 264.506 1518.27 Q267.585 1522.85 267.585 1531.6 Q267.585 1540.33 264.506 1544.94 Q261.451 1549.52 255.64 1549.52 Q249.83 1549.52 246.752 1544.94 Q243.696 1540.33 243.696 1531.6 Q243.696 1522.85 246.752 1518.27 Q249.83 1513.66 255.64 1513.66 Z" fill="#000000" fill-rule="nonzero" fill-opacity="1" /><path clip-path="url(#clip790)" d="M698.903 1517.37 Q695.292 1517.37 693.463 1520.93 Q691.658 1524.47 691.658 1531.6 Q691.658 1538.71 693.463 1542.27 Q695.292 1545.82 698.903 1545.82 Q702.538 1545.82 704.343 1542.27 Q706.172 1538.71 706.172 1531.6 Q706.172 1524.47 704.343 1520.93 Q702.538 1517.37 698.903 1517.37 M698.903 1513.66 Q704.713 1513.66 707.769 1518.27 Q710.848 1522.85 710.848 1531.6 Q710.848 1540.33 707.769 1544.94 Q704.713 1549.52 698.903 1549.52 Q693.093 1549.52 690.014 1544.94 Q686.959 1540.33 686.959 1531.6 Q686.959 1522.85 690.014 1518.27 Q693.093 1513.66 698.903 1513.66 Z" fill="#000000" fill-rule="nonzero" fill-opacity="1" /><path clip-path="url(#clip790)" d="M719.065 1542.97 L723.949 1542.97 L723.949 1548.85 L719.065 1548.85 L719.065 1542.97 Z" fill="#000000" fill-rule="nonzero" fill-opacity="1" /><path clip-path="url(#clip790)" d="M738.162 1544.91 L754.482 1544.91 L754.482 1548.85 L732.537 1548.85 L732.537 1544.91 Q735.199 1542.16 739.783 1537.53 Q744.389 1532.88 745.57 1531.53 Q747.815 1529.01 748.695 1527.27 Q749.597 1525.51 749.597 1523.82 Q749.597 1521.07 747.653 1519.33 Q745.732 1517.6 742.63 1517.6 Q740.431 1517.6 737.977 1518.36 Q735.547 1519.13 732.769 1520.68 L732.769 1515.95 Q735.593 1514.82 738.047 1514.24 Q740.5 1513.66 742.537 1513.66 Q747.908 1513.66 751.102 1516.35 Q754.296 1519.03 754.296 1523.52 Q754.296 1525.65 753.486 1527.57 Q752.699 1529.47 750.593 1532.07 Q750.014 1532.74 746.912 1535.95 Q743.81 1539.15 738.162 1544.91 Z" fill="#000000" fill-rule="nonzero" fill-opacity="1" /><path clip-path="url(#clip790)" d="M764.343 1514.29 L782.699 1514.29 L782.699 1518.22 L768.625 1518.22 L768.625 1526.7 Q769.644 1526.35 770.662 1526.19 Q771.681 1526 772.699 1526 Q778.486 1526 781.866 1529.17 Q785.245 1532.34 785.245 1537.76 Q785.245 1543.34 781.773 1546.44 Q778.301 1549.52 771.982 1549.52 Q769.806 1549.52 767.537 1549.15 Q765.292 1548.78 762.884 1548.04 L762.884 1543.34 Q764.968 1544.47 767.19 1545.03 Q769.412 1545.58 771.889 1545.58 Q775.894 1545.58 778.232 1543.48 Q780.57 1541.37 780.57 1537.76 Q780.57 1534.15 778.232 1532.04 Q775.894 1529.94 771.889 1529.94 Q770.014 1529.94 768.139 1530.35 Q766.287 1530.77 764.343 1531.65 L764.343 1514.29 Z" fill="#000000" fill-rule="nonzero" fill-opacity="1" /><path clip-path="url(#clip790)" d="M1216.56 1517.37 Q1212.95 1517.37 1211.12 1520.93 Q1209.32 1524.47 1209.32 1531.6 Q1209.32 1538.71 1211.12 1542.27 Q1212.95 1545.82 1216.56 1545.82 Q1220.2 1545.82 1222 1542.27 Q1223.83 1538.71 1223.83 1531.6 Q1223.83 1524.47 1222 1520.93 Q1220.2 1517.37 1216.56 1517.37 M1216.56 1513.66 Q1222.37 1513.66 1225.43 1518.27 Q1228.51 1522.85 1228.51 1531.6 Q1228.51 1540.33 1225.43 1544.94 Q1222.37 1549.52 1216.56 1549.52 Q1210.75 1549.52 1207.68 1544.94 Q1204.62 1540.33 1204.62 1531.6 Q1204.62 1522.85 1207.68 1518.27 Q1210.75 1513.66 1216.56 1513.66 Z" fill="#000000" fill-rule="nonzero" fill-opacity="1" /><path clip-path="url(#clip790)" d="M1236.73 1542.97 L1241.61 1542.97 L1241.61 1548.85 L1236.73 1548.85 L1236.73 1542.97 Z" fill="#000000" fill-rule="nonzero" fill-opacity="1" /><path clip-path="url(#clip790)" d="M1251.84 1514.29 L1270.2 1514.29 L1270.2 1518.22 L1256.12 1518.22 L1256.12 1526.7 Q1257.14 1526.35 1258.16 1526.19 Q1259.18 1526 1260.2 1526 Q1265.98 1526 1269.36 1529.17 Q1272.74 1532.34 1272.74 1537.76 Q1272.74 1543.34 1269.27 1546.44 Q1265.8 1549.52 1259.48 1549.52 Q1257.3 1549.52 1255.04 1549.15 Q1252.79 1548.78 1250.38 1548.04 L1250.38 1543.34 Q1252.47 1544.47 1254.69 1545.03 Q1256.91 1545.58 1259.39 1545.58 Q1263.39 1545.58 1265.73 1543.48 Q1268.07 1541.37 1268.07 1537.76 Q1268.07 1534.15 1265.73 1532.04 Q1263.39 1529.94 1259.39 1529.94 Q1257.51 1529.94 1255.64 1530.35 Q1253.79 1530.77 1251.84 1531.65 L1251.84 1514.29 Z" fill="#000000" fill-rule="nonzero" fill-opacity="1" /><path clip-path="url(#clip790)" d="M1291.96 1517.37 Q1288.35 1517.37 1286.52 1520.93 Q1284.71 1524.47 1284.71 1531.6 Q1284.71 1538.71 1286.52 1542.27 Q1288.35 1545.82 1291.96 1545.82 Q1295.59 1545.82 1297.4 1542.27 Q1299.23 1538.71 1299.23 1531.6 Q1299.23 1524.47 1297.4 1520.93 Q1295.59 1517.37 1291.96 1517.37 M1291.96 1513.66 Q1297.77 1513.66 1300.82 1518.27 Q1303.9 1522.85 1303.9 1531.6 Q1303.9 1540.33 1300.82 1544.94 Q1297.77 1549.52 1291.96 1549.52 Q1286.15 1549.52 1283.07 1544.94 Q1280.01 1540.33 1280.01 1531.6 Q1280.01 1522.85 1283.07 1518.27 Q1286.15 1513.66 1291.96 1513.66 Z" fill="#000000" fill-rule="nonzero" fill-opacity="1" /><path clip-path="url(#clip790)" d="M1735.22 1517.37 Q1731.61 1517.37 1729.78 1520.93 Q1727.97 1524.47 1727.97 1531.6 Q1727.97 1538.71 1729.78 1542.27 Q1731.61 1545.82 1735.22 1545.82 Q1738.85 1545.82 1740.66 1542.27 Q1742.49 1538.71 1742.49 1531.6 Q1742.49 1524.47 1740.66 1520.93 Q1738.85 1517.37 1735.22 1517.37 M1735.22 1513.66 Q1741.03 1513.66 1744.09 1518.27 Q1747.16 1522.85 1747.16 1531.6 Q1747.16 1540.33 1744.09 1544.94 Q1741.03 1549.52 1735.22 1549.52 Q1729.41 1549.52 1726.33 1544.94 Q1723.28 1540.33 1723.28 1531.6 Q1723.28 1522.85 1726.33 1518.27 Q1729.41 1513.66 1735.22 1513.66 Z" fill="#000000" fill-rule="nonzero" fill-opacity="1" /><path clip-path="url(#clip790)" d="M1755.38 1542.97 L1760.27 1542.97 L1760.27 1548.85 L1755.38 1548.85 L1755.38 1542.97 Z" fill="#000000" fill-rule="nonzero" fill-opacity="1" /><path clip-path="url(#clip790)" d="M1769.27 1514.29 L1791.49 1514.29 L1791.49 1516.28 L1778.95 1548.85 L1774.06 1548.85 L1785.87 1518.22 L1769.27 1518.22 L1769.27 1514.29 Z" fill="#000000" fill-rule="nonzero" fill-opacity="1" /><path clip-path="url(#clip790)" d="M1800.66 1514.29 L1819.02 1514.29 L1819.02 1518.22 L1804.94 1518.22 L1804.94 1526.7 Q1805.96 1526.35 1806.98 1526.19 Q1808 1526 1809.02 1526 Q1814.8 1526 1818.18 1529.17 Q1821.56 1532.34 1821.56 1537.76 Q1821.56 1543.34 1818.09 1546.44 Q1814.62 1549.52 1808.3 1549.52 Q1806.12 1549.52 1803.85 1549.15 Q1801.61 1548.78 1799.2 1548.04 L1799.2 1543.34 Q1801.28 1544.47 1803.51 1545.03 Q1805.73 1545.58 1808.21 1545.58 Q1812.21 1545.58 1814.55 1543.48 Q1816.89 1541.37 1816.89 1537.76 Q1816.89 1534.15 1814.55 1532.04 Q1812.21 1529.94 1808.21 1529.94 Q1806.33 1529.94 1804.46 1530.35 Q1802.6 1530.77 1800.66 1531.65 L1800.66 1514.29 Z" fill="#000000" fill-rule="nonzero" fill-opacity="1" /><path clip-path="url(#clip790)" d="M2242.65 1544.91 L2250.29 1544.91 L2250.29 1518.55 L2241.98 1520.21 L2241.98 1515.95 L2250.24 1514.29 L2254.92 1514.29 L2254.92 1544.91 L2262.56 1544.91 L2262.56 1548.85 L2242.65 1548.85 L2242.65 1544.91 Z" fill="#000000" fill-rule="nonzero" fill-opacity="1" /><path clip-path="url(#clip790)" d="M2272 1542.97 L2276.88 1542.97 L2276.88 1548.85 L2272 1548.85 L2272 1542.97 Z" fill="#000000" fill-rule="nonzero" fill-opacity="1" /><path clip-path="url(#clip790)" d="M2297.07 1517.37 Q2293.46 1517.37 2291.63 1520.93 Q2289.82 1524.47 2289.82 1531.6 Q2289.82 1538.71 2291.63 1542.27 Q2293.46 1545.82 2297.07 1545.82 Q2300.7 1545.82 2302.51 1542.27 Q2304.34 1538.71 2304.34 1531.6 Q2304.34 1524.47 2302.51 1520.93 Q2300.7 1517.37 2297.07 1517.37 M2297.07 1513.66 Q2302.88 1513.66 2305.94 1518.27 Q2309.01 1522.85 2309.01 1531.6 Q2309.01 1540.33 2305.94 1544.94 Q2302.88 1549.52 2297.07 1549.52 Q2291.26 1549.52 2288.18 1544.94 Q2285.13 1540.33 2285.13 1531.6 Q2285.13 1522.85 2288.18 1518.27 Q2291.26 1513.66 2297.07 1513.66 Z" fill="#000000" fill-rule="nonzero" fill-opacity="1" /><path clip-path="url(#clip790)" d="M2327.23 1517.37 Q2323.62 1517.37 2321.79 1520.93 Q2319.99 1524.47 2319.99 1531.6 Q2319.99 1538.71 2321.79 1542.27 Q2323.62 1545.82 2327.23 1545.82 Q2330.87 1545.82 2332.67 1542.27 Q2334.5 1538.71 2334.5 1531.6 Q2334.5 1524.47 2332.67 1520.93 Q2330.87 1517.37 2327.23 1517.37 M2327.23 1513.66 Q2333.04 1513.66 2336.1 1518.27 Q2339.18 1522.85 2339.18 1531.6 Q2339.18 1540.33 2336.1 1544.94 Q2333.04 1549.52 2327.23 1549.52 Q2321.42 1549.52 2318.34 1544.94 Q2315.29 1540.33 2315.29 1531.6 Q2315.29 1522.85 2318.34 1518.27 Q2321.42 1513.66 2327.23 1513.66 Z" fill="#000000" fill-rule="nonzero" fill-opacity="1" /><polyline clip-path="url(#clip790)" style="stroke:#000000; stroke-linecap:round; stroke-linejoin:round; stroke-width:4; stroke-opacity:1; fill:none" points="155.765,1486.45 155.765,47.2441 "/>
<polyline clip-path="url(#clip790)" style="stroke:#000000; stroke-linecap:round; stroke-linejoin:round; stroke-width:4; stroke-opacity:1; fill:none" points="155.765,1326.03 174.663,1326.03 "/>
<polyline clip-path="url(#clip790)" style="stroke:#000000; stroke-linecap:round; stroke-linejoin:round; stroke-width:4; stroke-opacity:1; fill:none" points="155.765,1054.42 174.663,1054.42 "/>
<polyline clip-path="url(#clip790)" style="stroke:#000000; stroke-linecap:round; stroke-linejoin:round; stroke-width:4; stroke-opacity:1; fill:none" points="155.765,782.815 174.663,782.815 "/>
<polyline clip-path="url(#clip790)" style="stroke:#000000; stroke-linecap:round; stroke-linejoin:round; stroke-width:4; stroke-opacity:1; fill:none" points="155.765,511.206 174.663,511.206 "/>
<polyline clip-path="url(#clip790)" style="stroke:#000000; stroke-linecap:round; stroke-linejoin:round; stroke-width:4; stroke-opacity:1; fill:none" points="155.765,239.596 174.663,239.596 "/>
<path clip-path="url(#clip790)" d="M63.5847 1311.83 Q59.9736 1311.83 58.1449 1315.4 Q56.3393 1318.94 56.3393 1326.07 Q56.3393 1333.18 58.1449 1336.74 Q59.9736 1340.28 63.5847 1340.28 Q67.2189 1340.28 69.0244 1336.74 Q70.8531 1333.18 70.8531 1326.07 Q70.8531 1318.94 69.0244 1315.4 Q67.2189 1311.83 63.5847 1311.83 M63.5847 1308.13 Q69.3948 1308.13 72.4503 1312.74 Q75.529 1317.32 75.529 1326.07 Q75.529 1334.8 72.4503 1339.4 Q69.3948 1343.99 63.5847 1343.99 Q57.7745 1343.99 54.6958 1339.4 Q51.6403 1334.8 51.6403 1326.07 Q51.6403 1317.32 54.6958 1312.74 Q57.7745 1308.13 63.5847 1308.13 Z" fill="#000000" fill-rule="nonzero" fill-opacity="1" /><path clip-path="url(#clip790)" d="M83.7466 1337.43 L88.6308 1337.43 L88.6308 1343.31 L83.7466 1343.31 L83.7466 1337.43 Z" fill="#000000" fill-rule="nonzero" fill-opacity="1" /><path clip-path="url(#clip790)" d="M98.8622 1308.75 L117.219 1308.75 L117.219 1312.69 L103.145 1312.69 L103.145 1321.16 Q104.163 1320.81 105.182 1320.65 Q106.2 1320.47 107.219 1320.47 Q113.006 1320.47 116.385 1323.64 Q119.765 1326.81 119.765 1332.23 Q119.765 1337.81 116.293 1340.91 Q112.82 1343.99 106.501 1343.99 Q104.325 1343.99 102.057 1343.62 Q99.8113 1343.24 97.4039 1342.5 L97.4039 1337.81 Q99.4872 1338.94 101.709 1339.49 Q103.932 1340.05 106.408 1340.05 Q110.413 1340.05 112.751 1337.94 Q115.089 1335.84 115.089 1332.23 Q115.089 1328.62 112.751 1326.51 Q110.413 1324.4 106.408 1324.4 Q104.534 1324.4 102.659 1324.82 Q100.807 1325.24 98.8622 1326.12 L98.8622 1308.75 Z" fill="#000000" fill-rule="nonzero" fill-opacity="1" /><path clip-path="url(#clip790)" d="M53.3995 1067.77 L61.0384 1067.77 L61.0384 1041.4 L52.7282 1043.07 L52.7282 1038.81 L60.9921 1037.14 L65.668 1037.14 L65.668 1067.77 L73.3068 1067.77 L73.3068 1071.7 L53.3995 1071.7 L53.3995 1067.77 Z" fill="#000000" fill-rule="nonzero" fill-opacity="1" /><path clip-path="url(#clip790)" d="M82.7512 1065.83 L87.6354 1065.83 L87.6354 1071.7 L82.7512 1071.7 L82.7512 1065.83 Z" fill="#000000" fill-rule="nonzero" fill-opacity="1" /><path clip-path="url(#clip790)" d="M107.821 1040.22 Q104.209 1040.22 102.381 1043.79 Q100.575 1047.33 100.575 1054.46 Q100.575 1061.57 102.381 1065.13 Q104.209 1068.67 107.821 1068.67 Q111.455 1068.67 113.26 1065.13 Q115.089 1061.57 115.089 1054.46 Q115.089 1047.33 113.26 1043.79 Q111.455 1040.22 107.821 1040.22 M107.821 1036.52 Q113.631 1036.52 116.686 1041.13 Q119.765 1045.71 119.765 1054.46 Q119.765 1063.19 116.686 1067.79 Q113.631 1072.38 107.821 1072.38 Q102.01 1072.38 98.9317 1067.79 Q95.8761 1063.19 95.8761 1054.46 Q95.8761 1045.71 98.9317 1041.13 Q102.01 1036.52 107.821 1036.52 Z" fill="#000000" fill-rule="nonzero" fill-opacity="1" /><path clip-path="url(#clip790)" d="M54.3949 796.16 L62.0337 796.16 L62.0337 769.795 L53.7236 771.461 L53.7236 767.202 L61.9874 765.535 L66.6633 765.535 L66.6633 796.16 L74.3022 796.16 L74.3022 800.095 L54.3949 800.095 L54.3949 796.16 Z" fill="#000000" fill-rule="nonzero" fill-opacity="1" /><path clip-path="url(#clip790)" d="M83.7466 794.216 L88.6308 794.216 L88.6308 800.095 L83.7466 800.095 L83.7466 794.216 Z" fill="#000000" fill-rule="nonzero" fill-opacity="1" /><path clip-path="url(#clip790)" d="M98.8622 765.535 L117.219 765.535 L117.219 769.471 L103.145 769.471 L103.145 777.943 Q104.163 777.596 105.182 777.433 Q106.2 777.248 107.219 777.248 Q113.006 777.248 116.385 780.42 Q119.765 783.591 119.765 789.007 Q119.765 794.586 116.293 797.688 Q112.82 800.767 106.501 800.767 Q104.325 800.767 102.057 800.396 Q99.8113 800.026 97.4039 799.285 L97.4039 794.586 Q99.4872 795.72 101.709 796.276 Q103.932 796.832 106.408 796.832 Q110.413 796.832 112.751 794.725 Q115.089 792.619 115.089 789.007 Q115.089 785.396 112.751 783.29 Q110.413 781.183 106.408 781.183 Q104.534 781.183 102.659 781.6 Q100.807 782.017 98.8622 782.896 L98.8622 765.535 Z" fill="#000000" fill-rule="nonzero" fill-opacity="1" /><path clip-path="url(#clip790)" d="M56.6171 524.551 L72.9365 524.551 L72.9365 528.486 L50.9921 528.486 L50.9921 524.551 Q53.6541 521.796 58.2375 517.167 Q62.8439 512.514 64.0245 511.171 Q66.2698 508.648 67.1494 506.912 Q68.0522 505.153 68.0522 503.463 Q68.0522 500.708 66.1078 498.972 Q64.1865 497.236 61.0847 497.236 Q58.8856 497.236 56.4319 498 Q54.0014 498.764 51.2236 500.315 L51.2236 495.593 Q54.0477 494.458 56.5014 493.88 Q58.955 493.301 60.9921 493.301 Q66.3624 493.301 69.5568 495.986 Q72.7513 498.671 72.7513 503.162 Q72.7513 505.292 71.9411 507.213 Q71.1541 509.111 69.0476 511.704 Q68.4689 512.375 65.367 515.592 Q62.2652 518.787 56.6171 524.551 Z" fill="#000000" fill-rule="nonzero" fill-opacity="1" /><path clip-path="url(#clip790)" d="M82.7512 522.606 L87.6354 522.606 L87.6354 528.486 L82.7512 528.486 L82.7512 522.606 Z" fill="#000000" fill-rule="nonzero" fill-opacity="1" /><path clip-path="url(#clip790)" d="M107.821 497.005 Q104.209 497.005 102.381 500.569 Q100.575 504.111 100.575 511.241 Q100.575 518.347 102.381 521.912 Q104.209 525.454 107.821 525.454 Q111.455 525.454 113.26 521.912 Q115.089 518.347 115.089 511.241 Q115.089 504.111 113.26 500.569 Q111.455 497.005 107.821 497.005 M107.821 493.301 Q113.631 493.301 116.686 497.907 Q119.765 502.491 119.765 511.241 Q119.765 519.967 116.686 524.574 Q113.631 529.157 107.821 529.157 Q102.01 529.157 98.9317 524.574 Q95.8761 519.967 95.8761 511.241 Q95.8761 502.491 98.9317 497.907 Q102.01 493.301 107.821 493.301 Z" fill="#000000" fill-rule="nonzero" fill-opacity="1" /><path clip-path="url(#clip790)" d="M57.6125 252.941 L73.9318 252.941 L73.9318 256.876 L51.9875 256.876 L51.9875 252.941 Q54.6495 250.187 59.2328 245.557 Q63.8393 240.904 65.0198 239.562 Q67.2652 237.039 68.1448 235.303 Q69.0476 233.543 69.0476 231.853 Q69.0476 229.099 67.1032 227.363 Q65.1819 225.627 62.08 225.627 Q59.881 225.627 57.4273 226.391 Q54.9967 227.154 52.219 228.705 L52.219 223.983 Q55.043 222.849 57.4967 222.27 Q59.9504 221.691 61.9874 221.691 Q67.3578 221.691 70.5522 224.377 Q73.7466 227.062 73.7466 231.553 Q73.7466 233.682 72.9365 235.603 Q72.1494 237.502 70.0429 240.094 Q69.4642 240.765 66.3624 243.983 Q63.2606 247.177 57.6125 252.941 Z" fill="#000000" fill-rule="nonzero" fill-opacity="1" /><path clip-path="url(#clip790)" d="M83.7466 250.997 L88.6308 250.997 L88.6308 256.876 L83.7466 256.876 L83.7466 250.997 Z" fill="#000000" fill-rule="nonzero" fill-opacity="1" /><path clip-path="url(#clip790)" d="M98.8622 222.316 L117.219 222.316 L117.219 226.252 L103.145 226.252 L103.145 234.724 Q104.163 234.377 105.182 234.215 Q106.2 234.029 107.219 234.029 Q113.006 234.029 116.385 237.201 Q119.765 240.372 119.765 245.789 Q119.765 251.367 116.293 254.469 Q112.82 257.548 106.501 257.548 Q104.325 257.548 102.057 257.177 Q99.8113 256.807 97.4039 256.066 L97.4039 251.367 Q99.4872 252.501 101.709 253.057 Q103.932 253.613 106.408 253.613 Q110.413 253.613 112.751 251.506 Q115.089 249.4 115.089 245.789 Q115.089 242.177 112.751 240.071 Q110.413 237.965 106.408 237.965 Q104.534 237.965 102.659 238.381 Q100.807 238.798 98.8622 239.677 L98.8622 222.316 Z" fill="#000000" fill-rule="nonzero" fill-opacity="1" /><path clip-path="url(#clip791)" d="M217.944 1326.03 L425.207 1399.27 L632.47 1415.03 L839.734 1426.88 L1047 1437.71 L1254.26 1424 L1461.52 1429.16 L1668.79 1434.18 L1876.05 1430.71 L2083.31 1445.72 L2290.58 1443.77 L2290.58 370.032 L2083.31 87.9763 L1876.05 96.4223 L1668.79 180.747 L1461.52 293.901 L1254.26 667.483 L1047 855.841 L839.734 985.678 L632.47 1052.63 L425.207 1131.66 L217.944 1326.03  Z" fill="#009af9" fill-rule="evenodd" fill-opacity="0.2"/>
<polyline clip-path="url(#clip791)" style="stroke:#009af9; stroke-linecap:round; stroke-linejoin:round; stroke-width:12; stroke-opacity:1; fill:none" points="217.944,1326.03 425.207,1314.8 632.47,1309.04 839.734,1295.87 1047,1259.81 1254.26,1199.17 1461.52,1250.34 1668.79,1310.6 1876.05,1330.1 2083.31,1316.01 2290.58,1147.19 "/>
</svg>
