<?xml version="1.0" encoding="utf-8"?>
<svg xmlns="http://www.w3.org/2000/svg" xmlns:xlink="http://www.w3.org/1999/xlink" width="600" height="400" viewBox="0 0 2400 1600">
<defs>
  <clipPath id="clip920">
    <rect x="0" y="0" width="2400" height="1600"/>
  </clipPath>
</defs>
<path clip-path="url(#clip920)" d="M0 1600 L2400 1600 L2400 0 L0 0  Z" fill="#ffffff" fill-rule="evenodd" fill-opacity="1"/>
<defs>
  <clipPath id="clip921">
    <rect x="184" y="47" width="2170" height="1440"/>
  </clipPath>
</defs>
<path clip-path="url(#clip920)" d="M184.191 1486.45 L2352.76 1486.45 L2352.76 47.2441 L184.191 47.2441  Z" fill="#ffffff" fill-rule="evenodd" fill-opacity="1"/>
<polyline clip-path="url(#clip921)" style="stroke:#000000; stroke-linecap:round; stroke-linejoin:round; stroke-width:2; stroke-opacity:0.1; fill:none" points="245.565,1486.45 245.565,47.2441 "/>
<polyline clip-path="url(#clip921)" style="stroke:#000000; stroke-linecap:round; stroke-linejoin:round; stroke-width:2; stroke-opacity:0.1; fill:none" points="757.019,1486.45 757.019,47.2441 "/>
<polyline clip-path="url(#clip921)" style="stroke:#000000; stroke-linecap:round; stroke-linejoin:round; stroke-width:2; stroke-opacity:0.1; fill:none" points="1268.47,1486.45 1268.47,47.2441 "/>
<polyline clip-path="url(#clip921)" style="stroke:#000000; stroke-linecap:round; stroke-linejoin:round; stroke-width:2; stroke-opacity:0.1; fill:none" points="1779.93,1486.45 1779.93,47.2441 "/>
<polyline clip-path="url(#clip921)" style="stroke:#000000; stroke-linecap:round; stroke-linejoin:round; stroke-width:2; stroke-opacity:0.1; fill:none" points="2291.38,1486.45 2291.38,47.2441 "/>
<polyline clip-path="url(#clip921)" style="stroke:#000000; stroke-linecap:round; stroke-linejoin:round; stroke-width:2; stroke-opacity:0.1; fill:none" points="184.191,1447.76 2352.76,1447.76 "/>
<polyline clip-path="url(#clip921)" style="stroke:#000000; stroke-linecap:round; stroke-linejoin:round; stroke-width:2; stroke-opacity:0.1; fill:none" points="184.191,1152.97 2352.76,1152.97 "/>
<polyline clip-path="url(#clip921)" style="stroke:#000000; stroke-linecap:round; stroke-linejoin:round; stroke-width:2; stroke-opacity:0.1; fill:none" points="184.191,858.19 2352.76,858.19 "/>
<polyline clip-path="url(#clip921)" style="stroke:#000000; stroke-linecap:round; stroke-linejoin:round; stroke-width:2; stroke-opacity:0.1; fill:none" points="184.191,563.407 2352.76,563.407 "/>
<polyline clip-path="url(#clip921)" style="stroke:#000000; stroke-linecap:round; stroke-linejoin:round; stroke-width:2; stroke-opacity:0.1; fill:none" points="184.191,268.623 2352.76,268.623 "/>
<polyline clip-path="url(#clip920)" style="stroke:#000000; stroke-linecap:round; stroke-linejoin:round; stroke-width:4; stroke-opacity:1; fill:none" points="184.191,1486.45 2352.76,1486.45 "/>
<polyline clip-path="url(#clip920)" style="stroke:#000000; stroke-linecap:round; stroke-linejoin:round; stroke-width:4; stroke-opacity:1; fill:none" points="245.565,1486.45 245.565,1467.55 "/>
<polyline clip-path="url(#clip920)" style="stroke:#000000; stroke-linecap:round; stroke-linejoin:round; stroke-width:4; stroke-opacity:1; fill:none" points="757.019,1486.45 757.019,1467.55 "/>
<polyline clip-path="url(#clip920)" style="stroke:#000000; stroke-linecap:round; stroke-linejoin:round; stroke-width:4; stroke-opacity:1; fill:none" points="1268.47,1486.45 1268.47,1467.55 "/>
<polyline clip-path="url(#clip920)" style="stroke:#000000; stroke-linecap:round; stroke-linejoin:round; stroke-width:4; stroke-opacity:1; fill:none" points="1779.93,1486.45 1779.93,1467.55 "/>
<polyline clip-path="url(#clip920)" style="stroke:#000000; stroke-linecap:round; stroke-linejoin:round; stroke-width:4; stroke-opacity:1; fill:none" points="2291.38,1486.45 2291.38,1467.55 "/>
<path clip-path="url(#clip920)" d="M222.95 1517.37 Q219.338 1517.37 217.51 1520.93 Q215.704 1524.47 215.704 1531.6 Q215.704 1538.71 217.51 1542.27 Q219.338 1545.82 222.95 1545.82 Q226.584 1545.82 228.389 1542.27 Q230.218 1538.71 230.218 1531.6 Q230.218 1524.47 228.389 1520.93 Q226.584 1517.37 222.95 1517.37 M222.95 1513.66 Q228.76 1513.66 231.815 1518.27 Q234.894 1522.85 234.894 1531.6 Q234.894 1540.33 231.815 1544.94 Q228.76 1549.52 222.95 1549.52 Q217.139 1549.52 214.061 1544.94 Q211.005 1540.33 211.005 1531.6 Q211.005 1522.85 214.061 1518.27 Q217.139 1513.66 222.95 1513.66 Z" fill="#000000" fill-rule="nonzero" fill-opacity="1" /><path clip-path="url(#clip920)" d="M243.111 1542.97 L247.996 1542.97 L247.996 1548.85 L243.111 1548.85 L243.111 1542.97 Z" fill="#000000" fill-rule="nonzero" fill-opacity="1" /><path clip-path="url(#clip920)" d="M268.181 1517.37 Q264.57 1517.37 262.741 1520.93 Q260.935 1524.47 260.935 1531.6 Q260.935 1538.71 262.741 1542.27 Q264.57 1545.82 268.181 1545.82 Q271.815 1545.82 273.621 1542.27 Q275.449 1538.71 275.449 1531.6 Q275.449 1524.47 273.621 1520.93 Q271.815 1517.37 268.181 1517.37 M268.181 1513.66 Q273.991 1513.66 277.046 1518.27 Q280.125 1522.85 280.125 1531.6 Q280.125 1540.33 277.046 1544.94 Q273.991 1549.52 268.181 1549.52 Q262.371 1549.52 259.292 1544.94 Q256.236 1540.33 256.236 1531.6 Q256.236 1522.85 259.292 1518.27 Q262.371 1513.66 268.181 1513.66 Z" fill="#000000" fill-rule="nonzero" fill-opacity="1" /><path clip-path="url(#clip920)" d="M728.755 1544.91 L745.075 1544.91 L745.075 1548.85 L723.131 1548.85 L723.131 1544.91 Q725.793 1542.16 730.376 1537.53 Q734.982 1532.88 736.163 1531.53 Q738.408 1529.01 739.288 1527.27 Q740.191 1525.51 740.191 1523.82 Q740.191 1521.07 738.246 1519.33 Q736.325 1517.6 733.223 1517.6 Q731.024 1517.6 728.57 1518.36 Q726.14 1519.13 723.362 1520.68 L723.362 1515.95 Q726.186 1514.82 728.64 1514.24 Q731.093 1513.66 733.13 1513.66 Q738.501 1513.66 741.695 1516.35 Q744.89 1519.03 744.89 1523.52 Q744.89 1525.65 744.079 1527.57 Q743.292 1529.47 741.186 1532.07 Q740.607 1532.74 737.505 1535.95 Q734.404 1539.15 728.755 1544.91 Z" fill="#000000" fill-rule="nonzero" fill-opacity="1" /><path clip-path="url(#clip920)" d="M754.89 1542.97 L759.774 1542.97 L759.774 1548.85 L754.89 1548.85 L754.89 1542.97 Z" fill="#000000" fill-rule="nonzero" fill-opacity="1" /><path clip-path="url(#clip920)" d="M770.005 1514.29 L788.362 1514.29 L788.362 1518.22 L774.288 1518.22 L774.288 1526.7 Q775.306 1526.35 776.325 1526.19 Q777.343 1526 778.362 1526 Q784.149 1526 787.528 1529.17 Q790.908 1532.34 790.908 1537.76 Q790.908 1543.34 787.436 1546.44 Q783.964 1549.52 777.644 1549.52 Q775.468 1549.52 773.2 1549.15 Q770.954 1548.78 768.547 1548.04 L768.547 1543.34 Q770.63 1544.47 772.852 1545.03 Q775.075 1545.58 777.552 1545.58 Q781.556 1545.58 783.894 1543.48 Q786.232 1541.37 786.232 1537.76 Q786.232 1534.15 783.894 1532.04 Q781.556 1529.94 777.552 1529.94 Q775.677 1529.94 773.802 1530.35 Q771.95 1530.77 770.005 1531.65 L770.005 1514.29 Z" fill="#000000" fill-rule="nonzero" fill-opacity="1" /><path clip-path="url(#clip920)" d="M1235.64 1514.29 L1253.99 1514.29 L1253.99 1518.22 L1239.92 1518.22 L1239.92 1526.7 Q1240.94 1526.35 1241.96 1526.19 Q1242.98 1526 1243.99 1526 Q1249.78 1526 1253.16 1529.17 Q1256.54 1532.34 1256.54 1537.76 Q1256.54 1543.34 1253.07 1546.44 Q1249.6 1549.52 1243.28 1549.52 Q1241.1 1549.52 1238.83 1549.15 Q1236.59 1548.78 1234.18 1548.04 L1234.18 1543.34 Q1236.26 1544.47 1238.49 1545.03 Q1240.71 1545.58 1243.18 1545.58 Q1247.19 1545.58 1249.53 1543.48 Q1251.86 1541.37 1251.86 1537.76 Q1251.86 1534.15 1249.53 1532.04 Q1247.19 1529.94 1243.18 1529.94 Q1241.31 1529.94 1239.43 1530.35 Q1237.58 1530.77 1235.64 1531.65 L1235.64 1514.29 Z" fill="#000000" fill-rule="nonzero" fill-opacity="1" /><path clip-path="url(#clip920)" d="M1265.75 1542.97 L1270.64 1542.97 L1270.64 1548.85 L1265.75 1548.85 L1265.75 1542.97 Z" fill="#000000" fill-rule="nonzero" fill-opacity="1" /><path clip-path="url(#clip920)" d="M1290.82 1517.37 Q1287.21 1517.37 1285.38 1520.93 Q1283.58 1524.47 1283.58 1531.6 Q1283.58 1538.71 1285.38 1542.27 Q1287.21 1545.82 1290.82 1545.82 Q1294.46 1545.82 1296.26 1542.27 Q1298.09 1538.71 1298.09 1531.6 Q1298.09 1524.47 1296.26 1520.93 Q1294.46 1517.37 1290.82 1517.37 M1290.82 1513.66 Q1296.63 1513.66 1299.69 1518.27 Q1302.77 1522.85 1302.77 1531.6 Q1302.77 1540.33 1299.69 1544.94 Q1296.63 1549.52 1290.82 1549.52 Q1285.01 1549.52 1281.93 1544.94 Q1278.88 1540.33 1278.88 1531.6 Q1278.88 1522.85 1281.93 1518.27 Q1285.01 1513.66 1290.82 1513.66 Z" fill="#000000" fill-rule="nonzero" fill-opacity="1" /><path clip-path="url(#clip920)" d="M1746.25 1514.29 L1768.47 1514.29 L1768.47 1516.28 L1755.92 1548.85 L1751.04 1548.85 L1762.84 1518.22 L1746.25 1518.22 L1746.25 1514.29 Z" fill="#000000" fill-rule="nonzero" fill-opacity="1" /><path clip-path="url(#clip920)" d="M1777.59 1542.97 L1782.47 1542.97 L1782.47 1548.85 L1777.59 1548.85 L1777.59 1542.97 Z" fill="#000000" fill-rule="nonzero" fill-opacity="1" /><path clip-path="url(#clip920)" d="M1792.71 1514.29 L1811.06 1514.29 L1811.06 1518.22 L1796.99 1518.22 L1796.99 1526.7 Q1798.01 1526.35 1799.02 1526.19 Q1800.04 1526 1801.06 1526 Q1806.85 1526 1810.23 1529.17 Q1813.61 1532.34 1813.61 1537.76 Q1813.61 1543.34 1810.14 1546.44 Q1806.66 1549.52 1800.34 1549.52 Q1798.17 1549.52 1795.9 1549.15 Q1793.65 1548.78 1791.25 1548.04 L1791.25 1543.34 Q1793.33 1544.47 1795.55 1545.03 Q1797.77 1545.58 1800.25 1545.58 Q1804.26 1545.58 1806.59 1543.48 Q1808.93 1541.37 1808.93 1537.76 Q1808.93 1534.15 1806.59 1532.04 Q1804.26 1529.94 1800.25 1529.94 Q1798.38 1529.94 1796.5 1530.35 Q1794.65 1530.77 1792.71 1531.65 L1792.71 1514.29 Z" fill="#000000" fill-rule="nonzero" fill-opacity="1" /><path clip-path="url(#clip920)" d="M2243.45 1544.91 L2251.09 1544.91 L2251.09 1518.55 L2242.78 1520.21 L2242.78 1515.95 L2251.05 1514.29 L2255.72 1514.29 L2255.72 1544.91 L2263.36 1544.91 L2263.36 1548.85 L2243.45 1548.85 L2243.45 1544.91 Z" fill="#000000" fill-rule="nonzero" fill-opacity="1" /><path clip-path="url(#clip920)" d="M2282.81 1517.37 Q2279.19 1517.37 2277.37 1520.93 Q2275.56 1524.47 2275.56 1531.6 Q2275.56 1538.71 2277.37 1542.27 Q2279.19 1545.82 2282.81 1545.82 Q2286.44 1545.82 2288.24 1542.27 Q2290.07 1538.71 2290.07 1531.6 Q2290.07 1524.47 2288.24 1520.93 Q2286.44 1517.37 2282.81 1517.37 M2282.81 1513.66 Q2288.62 1513.66 2291.67 1518.27 Q2294.75 1522.85 2294.75 1531.6 Q2294.75 1540.33 2291.67 1544.94 Q2288.62 1549.52 2282.81 1549.52 Q2276.99 1549.52 2273.92 1544.94 Q2270.86 1540.33 2270.86 1531.6 Q2270.86 1522.85 2273.92 1518.27 Q2276.99 1513.66 2282.81 1513.66 Z" fill="#000000" fill-rule="nonzero" fill-opacity="1" /><path clip-path="url(#clip920)" d="M2302.97 1542.97 L2307.85 1542.97 L2307.85 1548.85 L2302.97 1548.85 L2302.97 1542.97 Z" fill="#000000" fill-rule="nonzero" fill-opacity="1" /><path clip-path="url(#clip920)" d="M2328.04 1517.37 Q2324.43 1517.37 2322.6 1520.93 Q2320.79 1524.47 2320.79 1531.6 Q2320.79 1538.71 2322.6 1542.27 Q2324.43 1545.82 2328.04 1545.82 Q2331.67 1545.82 2333.48 1542.27 Q2335.3 1538.71 2335.3 1531.6 Q2335.3 1524.47 2333.48 1520.93 Q2331.67 1517.37 2328.04 1517.37 M2328.04 1513.66 Q2333.85 1513.66 2336.9 1518.27 Q2339.98 1522.85 2339.98 1531.6 Q2339.98 1540.33 2336.9 1544.94 Q2333.85 1549.52 2328.04 1549.52 Q2322.23 1549.52 2319.15 1544.94 Q2316.09 1540.33 2316.09 1531.6 Q2316.09 1522.85 2319.15 1518.27 Q2322.23 1513.66 2328.04 1513.66 Z" fill="#000000" fill-rule="nonzero" fill-opacity="1" /><polyline clip-path="url(#clip920)" style="stroke:#000000; stroke-linecap:round; stroke-linejoin:round; stroke-width:4; stroke-opacity:1; fill:none" points="184.191,1486.45 184.191,47.2441 "/>
<polyline clip-path="url(#clip920)" style="stroke:#000000; stroke-linecap:round; stroke-linejoin:round; stroke-width:4; stroke-opacity:1; fill:none" points="184.191,1447.76 203.088,1447.76 "/>
<polyline clip-path="url(#clip920)" style="stroke:#000000; stroke-linecap:round; stroke-linejoin:round; stroke-width:4; stroke-opacity:1; fill:none" points="184.191,1152.97 203.088,1152.97 "/>
<polyline clip-path="url(#clip920)" style="stroke:#000000; stroke-linecap:round; stroke-linejoin:round; stroke-width:4; stroke-opacity:1; fill:none" points="184.191,858.19 203.088,858.19 "/>
<polyline clip-path="url(#clip920)" style="stroke:#000000; stroke-linecap:round; stroke-linejoin:round; stroke-width:4; stroke-opacity:1; fill:none" points="184.191,563.407 203.088,563.407 "/>
<polyline clip-path="url(#clip920)" style="stroke:#000000; stroke-linecap:round; stroke-linejoin:round; stroke-width:4; stroke-opacity:1; fill:none" points="184.191,268.623 203.088,268.623 "/>
<path clip-path="url(#clip920)" d="M91.0151 1433.56 Q87.404 1433.56 85.5753 1437.12 Q83.7697 1440.66 83.7697 1447.79 Q83.7697 1454.9 85.5753 1458.46 Q87.404 1462.01 91.0151 1462.01 Q94.6493 1462.01 96.4548 1458.46 Q98.2835 1454.9 98.2835 1447.79 Q98.2835 1440.66 96.4548 1437.12 Q94.6493 1433.56 91.0151 1433.56 M91.0151 1429.85 Q96.8252 1429.85 99.8808 1434.46 Q102.959 1439.04 102.959 1447.79 Q102.959 1456.52 99.8808 1461.13 Q96.8252 1465.71 91.0151 1465.71 Q85.2049 1465.71 82.1262 1461.13 Q79.0707 1456.52 79.0707 1447.79 Q79.0707 1439.04 82.1262 1434.46 Q85.2049 1429.85 91.0151 1429.85 Z" fill="#000000" fill-rule="nonzero" fill-opacity="1" /><path clip-path="url(#clip920)" d="M111.177 1459.16 L116.061 1459.16 L116.061 1465.04 L111.177 1465.04 L111.177 1459.16 Z" fill="#000000" fill-rule="nonzero" fill-opacity="1" /><path clip-path="url(#clip920)" d="M136.246 1433.56 Q132.635 1433.56 130.807 1437.12 Q129.001 1440.66 129.001 1447.79 Q129.001 1454.9 130.807 1458.46 Q132.635 1462.01 136.246 1462.01 Q139.881 1462.01 141.686 1458.46 Q143.515 1454.9 143.515 1447.79 Q143.515 1440.66 141.686 1437.12 Q139.881 1433.56 136.246 1433.56 M136.246 1429.85 Q142.056 1429.85 145.112 1434.46 Q148.191 1439.04 148.191 1447.79 Q148.191 1456.52 145.112 1461.13 Q142.056 1465.71 136.246 1465.71 Q130.436 1465.71 127.357 1461.13 Q124.302 1456.52 124.302 1447.79 Q124.302 1439.04 127.357 1434.46 Q130.436 1429.85 136.246 1429.85 Z" fill="#000000" fill-rule="nonzero" fill-opacity="1" /><path clip-path="url(#clip920)" d="M86.0382 1166.32 L102.358 1166.32 L102.358 1170.25 L80.4133 1170.25 L80.4133 1166.32 Q83.0753 1163.56 87.6586 1158.93 Q92.2651 1154.28 93.4456 1152.94 Q95.691 1150.42 96.5706 1148.68 Q97.4734 1146.92 97.4734 1145.23 Q97.4734 1142.48 95.5289 1140.74 Q93.6076 1139 90.5058 1139 Q88.3067 1139 85.8531 1139.77 Q83.4225 1140.53 80.6447 1142.08 L80.6447 1137.36 Q83.4688 1136.23 85.9225 1135.65 Q88.3762 1135.07 90.4132 1135.07 Q95.7836 1135.07 98.978 1137.75 Q102.172 1140.44 102.172 1144.93 Q102.172 1147.06 101.362 1148.98 Q100.575 1150.88 98.4687 1153.47 Q97.89 1154.14 94.7882 1157.36 Q91.6864 1160.56 86.0382 1166.32 Z" fill="#000000" fill-rule="nonzero" fill-opacity="1" /><path clip-path="url(#clip920)" d="M112.172 1164.37 L117.057 1164.37 L117.057 1170.25 L112.172 1170.25 L112.172 1164.37 Z" fill="#000000" fill-rule="nonzero" fill-opacity="1" /><path clip-path="url(#clip920)" d="M127.288 1135.69 L145.644 1135.69 L145.644 1139.63 L131.57 1139.63 L131.57 1148.1 Q132.589 1147.75 133.607 1147.59 Q134.626 1147.41 135.644 1147.41 Q141.431 1147.41 144.811 1150.58 Q148.191 1153.75 148.191 1159.17 Q148.191 1164.74 144.718 1167.85 Q141.246 1170.93 134.927 1170.93 Q132.751 1170.93 130.482 1170.56 Q128.237 1170.18 125.83 1169.44 L125.83 1164.74 Q127.913 1165.88 130.135 1166.43 Q132.357 1166.99 134.834 1166.99 Q138.839 1166.99 141.177 1164.88 Q143.515 1162.78 143.515 1159.17 Q143.515 1155.56 141.177 1153.45 Q138.839 1151.34 134.834 1151.34 Q132.959 1151.34 131.084 1151.76 Q129.232 1152.18 127.288 1153.06 L127.288 1135.69 Z" fill="#000000" fill-rule="nonzero" fill-opacity="1" /><path clip-path="url(#clip920)" d="M81.0614 840.91 L99.4178 840.91 L99.4178 844.846 L85.3438 844.846 L85.3438 853.318 Q86.3623 852.971 87.3808 852.808 Q88.3993 852.623 89.4178 852.623 Q95.2049 852.623 98.5845 855.795 Q101.964 858.966 101.964 864.383 Q101.964 869.961 98.4919 873.063 Q95.0197 876.142 88.7003 876.142 Q86.5243 876.142 84.2558 875.771 Q82.0105 875.401 79.6031 874.66 L79.6031 869.961 Q81.6864 871.095 83.9086 871.651 Q86.1308 872.207 88.6077 872.207 Q92.6123 872.207 94.9502 870.1 Q97.2882 867.994 97.2882 864.383 Q97.2882 860.771 94.9502 858.665 Q92.6123 856.558 88.6077 856.558 Q86.7327 856.558 84.8577 856.975 Q83.0058 857.392 81.0614 858.271 L81.0614 840.91 Z" fill="#000000" fill-rule="nonzero" fill-opacity="1" /><path clip-path="url(#clip920)" d="M111.177 869.591 L116.061 869.591 L116.061 875.47 L111.177 875.47 L111.177 869.591 Z" fill="#000000" fill-rule="nonzero" fill-opacity="1" /><path clip-path="url(#clip920)" d="M136.246 843.989 Q132.635 843.989 130.807 847.554 Q129.001 851.096 129.001 858.225 Q129.001 865.332 130.807 868.896 Q132.635 872.438 136.246 872.438 Q139.881 872.438 141.686 868.896 Q143.515 865.332 143.515 858.225 Q143.515 851.096 141.686 847.554 Q139.881 843.989 136.246 843.989 M136.246 840.285 Q142.056 840.285 145.112 844.892 Q148.191 849.475 148.191 858.225 Q148.191 866.952 145.112 871.558 Q142.056 876.142 136.246 876.142 Q130.436 876.142 127.357 871.558 Q124.302 866.952 124.302 858.225 Q124.302 849.475 127.357 844.892 Q130.436 840.285 136.246 840.285 Z" fill="#000000" fill-rule="nonzero" fill-opacity="1" /><path clip-path="url(#clip920)" d="M80.8299 546.127 L103.052 546.127 L103.052 548.117 L90.5058 580.687 L85.6216 580.687 L97.4271 550.062 L80.8299 550.062 L80.8299 546.127 Z" fill="#000000" fill-rule="nonzero" fill-opacity="1" /><path clip-path="url(#clip920)" d="M112.172 574.807 L117.057 574.807 L117.057 580.687 L112.172 580.687 L112.172 574.807 Z" fill="#000000" fill-rule="nonzero" fill-opacity="1" /><path clip-path="url(#clip920)" d="M127.288 546.127 L145.644 546.127 L145.644 550.062 L131.57 550.062 L131.57 558.534 Q132.589 558.187 133.607 558.025 Q134.626 557.84 135.644 557.84 Q141.431 557.84 144.811 561.011 Q148.191 564.182 148.191 569.599 Q148.191 575.177 144.718 578.279 Q141.246 581.358 134.927 581.358 Q132.751 581.358 130.482 580.988 Q128.237 580.617 125.83 579.876 L125.83 575.177 Q127.913 576.312 130.135 576.867 Q132.357 577.423 134.834 577.423 Q138.839 577.423 141.177 575.316 Q143.515 573.21 143.515 569.599 Q143.515 565.988 141.177 563.881 Q138.839 561.775 134.834 561.775 Q132.959 561.775 131.084 562.191 Q129.232 562.608 127.288 563.488 L127.288 546.127 Z" fill="#000000" fill-rule="nonzero" fill-opacity="1" /><path clip-path="url(#clip920)" d="M51.6634 281.968 L59.3023 281.968 L59.3023 255.602 L50.9921 257.269 L50.9921 253.01 L59.256 251.343 L63.9319 251.343 L63.9319 281.968 L71.5707 281.968 L71.5707 285.903 L51.6634 285.903 L51.6634 281.968 Z" fill="#000000" fill-rule="nonzero" fill-opacity="1" /><path clip-path="url(#clip920)" d="M91.0151 254.422 Q87.404 254.422 85.5753 257.986 Q83.7697 261.528 83.7697 268.658 Q83.7697 275.764 85.5753 279.329 Q87.404 282.87 91.0151 282.87 Q94.6493 282.87 96.4548 279.329 Q98.2835 275.764 98.2835 268.658 Q98.2835 261.528 96.4548 257.986 Q94.6493 254.422 91.0151 254.422 M91.0151 250.718 Q96.8252 250.718 99.8808 255.324 Q102.959 259.908 102.959 268.658 Q102.959 277.384 99.8808 281.991 Q96.8252 286.574 91.0151 286.574 Q85.2049 286.574 82.1262 281.991 Q79.0707 277.384 79.0707 268.658 Q79.0707 259.908 82.1262 255.324 Q85.2049 250.718 91.0151 250.718 Z" fill="#000000" fill-rule="nonzero" fill-opacity="1" /><path clip-path="url(#clip920)" d="M111.177 280.023 L116.061 280.023 L116.061 285.903 L111.177 285.903 L111.177 280.023 Z" fill="#000000" fill-rule="nonzero" fill-opacity="1" /><path clip-path="url(#clip920)" d="M136.246 254.422 Q132.635 254.422 130.807 257.986 Q129.001 261.528 129.001 268.658 Q129.001 275.764 130.807 279.329 Q132.635 282.87 136.246 282.87 Q139.881 282.87 141.686 279.329 Q143.515 275.764 143.515 268.658 Q143.515 261.528 141.686 257.986 Q139.881 254.422 136.246 254.422 M136.246 250.718 Q142.056 250.718 145.112 255.324 Q148.191 259.908 148.191 268.658 Q148.191 277.384 145.112 281.991 Q142.056 286.574 136.246 286.574 Q130.436 286.574 127.357 281.991 Q124.302 277.384 124.302 268.658 Q124.302 259.908 127.357 255.324 Q130.436 250.718 136.246 250.718 Z" fill="#000000" fill-rule="nonzero" fill-opacity="1" /><path clip-path="url(#clip921)" d="M245.565 1329.84 L266.023 1336.61 L286.481 1329.11 L306.94 1322.84 L327.398 1317.28 L347.856 1302.04 L368.314 1289.56 L388.772 1264.21 L409.23 1237.5 L429.689 1227.16 L450.147 1175.81 L470.605 1162.64 L491.063 1124.23 L511.521 1103.97 L531.979 1055.33 L552.438 1024.63 L572.896 947.6 L593.354 881.385 L613.812 795.614 L634.27 813.242 L654.728 881.641 L675.187 1005.13 L695.645 1107.35 L716.103 1214.74 L736.561 1256.49 L757.019 1295.32 L777.477 1328.42 L797.936 1348.07 L818.394 1367.57 L838.852 1375.71 L859.31 1383.42 L879.768 1387.9 L900.226 1390.83 L920.685 1386.94 L941.143 1383.17 L961.601 1371.94 L982.059 1365.27 L1002.52 1355.03 L1022.98 1352.53 L1043.43 1332.73 L1063.89 1329.92 L1084.35 1320.88 L1104.81 1310.21 L1125.27 1296.77 L1145.72 1271.2 L1166.18 1253.16 L1186.64 1227.37 L1207.1 1194.05 L1227.56 1188.41 L1248.02 1164.07 L1268.47 1133.48 L1288.93 1105.66 L1309.39 1120.9 L1329.85 1129.3 L1350.31 1143.9 L1370.76 1194.91 L1391.22 1235.31 L1411.68 1273.68 L1432.14 1290.72 L1452.6 1306.87 L1473.05 1325.95 L1493.51 1362.01 L1513.97 1379.49 L1534.43 1396.83 L1554.89 1407.11 L1575.35 1411.68 L1595.8 1413.25 L1616.26 1413.93 L1636.72 1414.2 L1657.18 1412.34 L1677.64 1412.05 L1698.09 1408.68 L1718.55 1402.24 L1739.01 1399.16 L1759.47 1393.36 L1779.93 1386.52 L1800.39 1373.45 L1820.84 1364.41 L1841.3 1351.2 L1861.76 1344.54 L1882.22 1336.67 L1902.68 1331.2 L1923.13 1320.46 L1943.59 1311.38 L1964.05 1294.61 L1984.51 1268.88 L2004.97 1238.42 L2025.43 1233.68 L2045.88 1217.76 L2066.34 1231.17 L2086.8 1240.32 L2107.26 1249.34 L2127.72 1261.77 L2148.17 1275.05 L2168.63 1300.71 L2189.09 1316.99 L2209.55 1325.46 L2230.01 1333.88 L2250.47 1335.81 L2270.92 1330.27 L2291.38 1337.46 L2291.38 87.9763 L2270.92 102.925 L2250.47 128.618 L2230.01 323.958 L2209.55 470.195 L2189.09 568.866 L2168.63 610.956 L2148.17 726.951 L2127.72 782.529 L2107.26 643.307 L2086.8 567.597 L2066.34 571.335 L2045.88 544.093 L2025.43 542.606 L2004.97 577.032 L1984.51 632.152 L1964.05 598.297 L1943.59 647.975 L1923.13 716.467 L1902.68 796.403 L1882.22 850.821 L1861.76 870.061 L1841.3 881.963 L1820.84 898.222 L1800.39 918.701 L1779.93 948.186 L1759.47 985.532 L1739.01 1022.16 L1718.55 1061.32 L1698.09 1088.37 L1677.64 1124.95 L1657.18 1151.61 L1636.72 1175.38 L1616.26 1192.93 L1595.8 1167.83 L1575.35 1092.21 L1554.89 1035.21 L1534.43 879.295 L1513.97 681.385 L1493.51 543.122 L1473.05 276.088 L1452.6 392.847 L1432.14 462.081 L1411.68 327.377 L1391.22 348.211 L1370.76 226.273 L1350.31 377.276 L1329.85 510.661 L1309.39 561.122 L1288.93 586.764 L1268.47 689.237 L1248.02 697.944 L1227.56 754.588 L1207.1 755.318 L1186.64 798.73 L1166.18 852.718 L1145.72 901.584 L1125.27 938.285 L1104.81 969.216 L1084.35 1045.55 L1063.89 1083.49 L1043.43 1118.77 L1022.98 1159.07 L1002.52 1182.14 L982.059 1205.48 L961.601 1222.94 L941.143 1245.51 L920.685 1262.32 L900.226 1274.43 L879.768 1258.86 L859.31 1247.36 L838.852 1201.48 L818.394 1166.69 L797.936 1074.16 L777.477 997.238 L757.019 841.874 L736.561 677.663 L716.103 598.777 L695.645 539.992 L675.187 551.781 L654.728 557.032 L634.27 491.061 L613.812 458.682 L593.354 490.528 L572.896 616.038 L552.438 669.299 L531.979 780.002 L511.521 836.76 L491.063 930.066 L470.605 1021.82 L450.147 1077.73 L429.689 1129.38 L409.23 1178.56 L388.772 1206.48 L368.314 1227.27 L347.856 1243.67 L327.398 1273.61 L306.94 1289.45 L286.481 1297.41 L266.023 1314.57 L245.565 1329.84  Z" fill="#009af9" fill-rule="evenodd" fill-opacity="0.5"/>
<polyline clip-path="url(#clip921)" style="stroke:#009af9; stroke-linecap:round; stroke-linejoin:round; stroke-width:12; stroke-opacity:1; fill:none" points="245.565,1329.84 266.023,1324.2 286.481,1319.35 306.94,1301.62 327.398,1287.94 347.856,1280.79 368.314,1255.93 388.772,1231.06 409.23,1193.09 429.689,1164.66 450.147,1114.38 470.605,1069.09 491.063,1023.89 511.521,967.874 531.979,890.845 552.438,803.359 572.896,736.158 593.354,660.217 613.812,651.12 634.27,648.175 654.728,646.414 675.187,704.165 695.645,816.7 716.103,977.186 736.561,1099.75 757.019,1190.44 777.477,1248.95 797.936,1290.72 818.394,1305.87 838.852,1310.52 859.31,1317 879.768,1324.91 900.226,1321.62 920.685,1333.31 941.143,1330.38 961.601,1322.17 982.059,1312.45 1002.52,1292.38 1022.98,1269.18 1043.43,1242.45 1063.89,1207.43 1084.35,1183.06 1104.81,1167.67 1125.27,1138.55 1145.72,1114.61 1166.18,1053.88 1186.64,1005.91 1207.1,951.015 1227.56,888.042 1248.02,810.207 1268.47,797.319 1288.93,768.847 1309.39,774.325 1329.85,813.591 1350.31,874.677 1370.76,935.239 1391.22,1006.64 1411.68,1148.19 1432.14,1217.74 1452.6,1253.86 1473.05,1286.57 1493.51,1313.55 1513.97,1318.05 1534.43,1313.01 1554.89,1326.32 1575.35,1336.58 1595.8,1333.69 1616.26,1333.44 1636.72,1319.53 1657.18,1317.67 1677.64,1313.5 1698.09,1314.82 1718.55,1294.58 1739.01,1292.86 1759.47,1281.34 1779.93,1258.49 1800.39,1228.39 1820.84,1202.82 1841.3,1169.72 1861.76,1136.72 1882.22,1088.14 1902.68,1059.27 1923.13,1049.04 1943.59,1036.89 1964.05,1021.44 1984.51,1026.77 2004.97,1002.23 2025.43,980.998 2045.88,1020 2066.34,1042.9 2086.8,1007.97 2107.26,993.683 2127.72,974.992 2148.17,1018.57 2168.63,1115.43 2189.09,1158.58 2209.55,1194.4 2230.01,1189.7 2250.47,1215.73 2270.92,1221.25 2291.38,1211.57 "/>
<path clip-path="url(#clip921)" d="M245.565 1329.84 L266.023 1355.5 L286.481 1378.01 L306.94 1391.57 L327.398 1403.79 L347.856 1412.62 L368.314 1415.31 L388.772 1418.21 L409.23 1422.3 L429.689 1424.7 L450.147 1427.29 L470.605 1428.2 L491.063 1428.04 L511.521 1428.22 L531.979 1428.01 L552.438 1427.23 L572.896 1426.02 L593.354 1422.69 L613.812 1416.53 L634.27 1404.98 L654.728 1385.27 L675.187 1353.61 L695.645 1296.26 L716.103 1222.31 L736.561 1177.4 L757.019 1147.86 L777.477 1146.57 L797.936 1197.31 L818.394 1256.96 L838.852 1288.9 L859.31 1320.45 L879.768 1338.01 L900.226 1352.66 L920.685 1367.38 L941.143 1380.51 L961.601 1389.18 L982.059 1399.31 L1002.52 1409.8 L1022.98 1416.1 L1043.43 1421.93 L1063.89 1424.55 L1084.35 1428.22 L1104.81 1431.9 L1125.27 1434.85 L1145.72 1436.31 L1166.18 1437.52 L1186.64 1438.71 L1207.1 1439.41 L1227.56 1439.63 L1248.02 1439.4 L1268.47 1438.25 L1288.93 1436.73 L1309.39 1435.05 L1329.85 1432.76 L1350.31 1430.96 L1370.76 1428.34 L1391.22 1423.11 L1411.68 1413.86 L1432.14 1391.87 L1452.6 1347.76 L1473.05 1338.97 L1493.51 1311.33 L1513.97 1296.18 L1534.43 1319.29 L1554.89 1343.95 L1575.35 1364.77 L1595.8 1380.53 L1616.26 1385.72 L1636.72 1391.65 L1657.18 1403.98 L1677.64 1409.04 L1698.09 1416.54 L1718.55 1424.02 L1739.01 1426.69 L1759.47 1429.3 L1779.93 1431.9 L1800.39 1434.02 L1820.84 1436.67 L1841.3 1439.17 L1861.76 1439.82 L1882.22 1440.55 L1902.68 1441.3 L1923.13 1442.74 L1943.59 1443.7 L1964.05 1444.27 L1984.51 1444.98 L2004.97 1445.23 L2025.43 1445.36 L2045.88 1445.63 L2066.34 1445.67 L2086.8 1445.72 L2107.26 1445.24 L2127.72 1444.7 L2148.17 1443.82 L2168.63 1442.11 L2189.09 1439.57 L2209.55 1434.88 L2230.01 1424.75 L2250.47 1403.81 L2270.92 1393.05 L2291.38 1381.81 L2291.38 1054.35 L2270.92 1143.36 L2250.47 1089.55 L2230.01 1051.39 L2209.55 1002.63 L2189.09 991.736 L2168.63 939.057 L2148.17 914.908 L2127.72 931.701 L2107.26 918.815 L2086.8 951.535 L2066.34 987.871 L2045.88 1029.08 L2025.43 1026.41 L2004.97 1071.1 L1984.51 1115.41 L1964.05 1139.5 L1943.59 1146.77 L1923.13 1168.18 L1902.68 1190.74 L1882.22 1195.27 L1861.76 1239.75 L1841.3 1282.38 L1820.84 1310.13 L1800.39 1331.44 L1779.93 1341.72 L1759.47 1344.13 L1739.01 1334.67 L1718.55 1308.59 L1698.09 1271.58 L1677.64 1225.56 L1657.18 1164.06 L1636.72 1092.11 L1616.26 965.097 L1595.8 872.343 L1575.35 823.374 L1554.89 763.938 L1534.43 698.287 L1513.97 670.757 L1493.51 680.279 L1473.05 538.45 L1452.6 517.973 L1432.14 644.086 L1411.68 793.494 L1391.22 839.855 L1370.76 920.481 L1350.31 1012.59 L1329.85 1057.56 L1309.39 1026.75 L1288.93 1069.21 L1268.47 1131.83 L1248.02 1170.35 L1227.56 1253.77 L1207.1 1296 L1186.64 1330.21 L1166.18 1353.08 L1145.72 1370.96 L1125.27 1381.87 L1104.81 1388.47 L1084.35 1387.71 L1063.89 1378.29 L1043.43 1368.43 L1022.98 1352.71 L1002.52 1335.82 L982.059 1315.39 L961.601 1286.92 L941.143 1256.09 L920.685 1209.72 L900.226 1151.39 L879.768 1093.23 L859.31 1034.96 L838.852 985.323 L818.394 940.414 L797.936 850.22 L777.477 809.247 L757.019 785.222 L736.561 760.61 L716.103 796.007 L695.645 864.758 L675.187 973.709 L654.728 1026.44 L634.27 1111.9 L613.812 1215.23 L593.354 1287.48 L572.896 1342.37 L552.438 1370.05 L531.979 1389.83 L511.521 1400.89 L491.063 1407.09 L470.605 1412.03 L450.147 1414.54 L429.689 1414.05 L409.23 1411.16 L388.772 1407.14 L368.314 1402.88 L347.856 1394.14 L327.398 1385.93 L306.94 1375.11 L286.481 1361.18 L266.023 1346.4 L245.565 1329.84  Z" fill="#e26f46" fill-rule="evenodd" fill-opacity="0.5"/>
<polyline clip-path="url(#clip921)" style="stroke:#e26f46; stroke-linecap:round; stroke-linejoin:round; stroke-width:12; stroke-opacity:1; fill:none" points="245.565,1329.84 266.023,1349.65 286.481,1367.1 306.94,1382.97 327.398,1393.57 347.856,1402.34 368.314,1408.83 388.772,1414.67 409.23,1417.26 429.689,1419.13 450.147,1420.49 470.605,1421.52 491.063,1421.35 511.521,1419.63 531.979,1414.71 552.438,1408.44 572.896,1397.82 593.354,1372.63 613.812,1345.68 634.27,1299.24 654.728,1199.9 675.187,1104.84 695.645,1002.87 716.103,923.912 736.561,915.762 757.019,937.986 777.477,998.687 797.936,1060.25 818.394,1115.08 838.852,1164.91 859.31,1216.39 879.768,1253.61 900.226,1286.88 920.685,1318.75 941.143,1344.19 961.601,1368.4 982.059,1383.72 1002.52,1394.12 1022.98,1400.16 1043.43,1407.56 1063.89,1408.59 1084.35,1409.94 1104.81,1411.58 1125.27,1411.82 1145.72,1415.14 1166.18,1417.21 1186.64,1414.48 1207.1,1410.44 1227.56,1403.8 1248.02,1390.76 1268.47,1365.43 1288.93,1327.26 1309.39,1270.3 1329.85,1197.44 1350.31,1088.55 1370.76,1086.75 1391.22,1012.84 1411.68,1009.69 1432.14,1029.21 1452.6,1079.07 1473.05,1112.49 1493.51,1169.76 1513.97,1190.83 1534.43,1221.81 1554.89,1257.77 1575.35,1292.61 1595.8,1328.53 1616.26,1344.41 1636.72,1367.73 1657.18,1380.49 1677.64,1387.37 1698.09,1388.87 1718.55,1394.22 1739.01,1405.85 1759.47,1411.31 1779.93,1416.75 1800.39,1418.1 1820.84,1417.99 1841.3,1422.52 1861.76,1425.73 1882.22,1424.99 1902.68,1422.57 1923.13,1418.05 1943.59,1411.09 1964.05,1408.53 1984.51,1401.33 2004.97,1389.17 2025.43,1368.25 2045.88,1342.96 2066.34,1293.66 2086.8,1271.79 2107.26,1219.43 2127.72,1204 2148.17,1203.4 2168.63,1234.86 2189.09,1279.21 2209.55,1305.67 2230.01,1322.95 2250.47,1343.42 2270.92,1278.6 2291.38,1294.71 "/>
</svg>
