<?xml version="1.0" encoding="utf-8"?>
<svg xmlns="http://www.w3.org/2000/svg" xmlns:xlink="http://www.w3.org/1999/xlink" width="600" height="400" viewBox="0 0 2400 1600">
<defs>
  <clipPath id="clip390">
    <rect x="0" y="0" width="2400" height="1600"/>
  </clipPath>
</defs>
<path clip-path="url(#clip390)" d="M0 1600 L2400 1600 L2400 0 L0 0  Z" fill="#ffffff" fill-rule="evenodd" fill-opacity="1"/>
<defs>
  <clipPath id="clip391">
    <rect x="186" y="47" width="2167" height="1440"/>
  </clipPath>
</defs>
<path clip-path="url(#clip390)" d="M186.274 1486.45 L2352.76 1486.45 L2352.76 47.2441 L186.274 47.2441  Z" fill="#ffffff" fill-rule="evenodd" fill-opacity="1"/>
<polyline clip-path="url(#clip391)" style="stroke:#000000; stroke-linecap:round; stroke-linejoin:round; stroke-width:2; stroke-opacity:0.1; fill:none" points="247.59,1486.45 247.59,47.2441 "/>
<polyline clip-path="url(#clip391)" style="stroke:#000000; stroke-linecap:round; stroke-linejoin:round; stroke-width:2; stroke-opacity:0.1; fill:none" points="758.552,1486.45 758.552,47.2441 "/>
<polyline clip-path="url(#clip391)" style="stroke:#000000; stroke-linecap:round; stroke-linejoin:round; stroke-width:2; stroke-opacity:0.1; fill:none" points="1269.51,1486.45 1269.51,47.2441 "/>
<polyline clip-path="url(#clip391)" style="stroke:#000000; stroke-linecap:round; stroke-linejoin:round; stroke-width:2; stroke-opacity:0.1; fill:none" points="1780.48,1486.45 1780.48,47.2441 "/>
<polyline clip-path="url(#clip391)" style="stroke:#000000; stroke-linecap:round; stroke-linejoin:round; stroke-width:2; stroke-opacity:0.1; fill:none" points="2291.44,1486.45 2291.44,47.2441 "/>
<polyline clip-path="url(#clip391)" style="stroke:#000000; stroke-linecap:round; stroke-linejoin:round; stroke-width:2; stroke-opacity:0.1; fill:none" points="186.274,1247.42 2352.76,1247.42 "/>
<polyline clip-path="url(#clip391)" style="stroke:#000000; stroke-linecap:round; stroke-linejoin:round; stroke-width:2; stroke-opacity:0.1; fill:none" points="186.274,929.448 2352.76,929.448 "/>
<polyline clip-path="url(#clip391)" style="stroke:#000000; stroke-linecap:round; stroke-linejoin:round; stroke-width:2; stroke-opacity:0.1; fill:none" points="186.274,611.473 2352.76,611.473 "/>
<polyline clip-path="url(#clip391)" style="stroke:#000000; stroke-linecap:round; stroke-linejoin:round; stroke-width:2; stroke-opacity:0.1; fill:none" points="186.274,293.497 2352.76,293.497 "/>
<polyline clip-path="url(#clip390)" style="stroke:#000000; stroke-linecap:round; stroke-linejoin:round; stroke-width:4; stroke-opacity:1; fill:none" points="186.274,1486.45 2352.76,1486.45 "/>
<polyline clip-path="url(#clip390)" style="stroke:#000000; stroke-linecap:round; stroke-linejoin:round; stroke-width:4; stroke-opacity:1; fill:none" points="247.59,1486.45 247.59,1467.55 "/>
<polyline clip-path="url(#clip390)" style="stroke:#000000; stroke-linecap:round; stroke-linejoin:round; stroke-width:4; stroke-opacity:1; fill:none" points="758.552,1486.45 758.552,1467.55 "/>
<polyline clip-path="url(#clip390)" style="stroke:#000000; stroke-linecap:round; stroke-linejoin:round; stroke-width:4; stroke-opacity:1; fill:none" points="1269.51,1486.45 1269.51,1467.55 "/>
<polyline clip-path="url(#clip390)" style="stroke:#000000; stroke-linecap:round; stroke-linejoin:round; stroke-width:4; stroke-opacity:1; fill:none" points="1780.48,1486.45 1780.48,1467.55 "/>
<polyline clip-path="url(#clip390)" style="stroke:#000000; stroke-linecap:round; stroke-linejoin:round; stroke-width:4; stroke-opacity:1; fill:none" points="2291.44,1486.45 2291.44,1467.55 "/>
<path clip-path="url(#clip390)" d="M209.893 1517.37 Q206.282 1517.37 204.453 1520.93 Q202.648 1524.47 202.648 1531.6 Q202.648 1538.71 204.453 1542.27 Q206.282 1545.82 209.893 1545.82 Q213.527 1545.82 215.333 1542.27 Q217.161 1538.71 217.161 1531.6 Q217.161 1524.47 215.333 1520.93 Q213.527 1517.37 209.893 1517.37 M209.893 1513.66 Q215.703 1513.66 218.759 1518.27 Q221.837 1522.85 221.837 1531.6 Q221.837 1540.33 218.759 1544.94 Q215.703 1549.52 209.893 1549.52 Q204.083 1549.52 201.004 1544.94 Q197.949 1540.33 197.949 1531.6 Q197.949 1522.85 201.004 1518.27 Q204.083 1513.66 209.893 1513.66 Z" fill="#000000" fill-rule="nonzero" fill-opacity="1" /><path clip-path="url(#clip390)" d="M230.055 1542.97 L234.939 1542.97 L234.939 1548.85 L230.055 1548.85 L230.055 1542.97 Z" fill="#000000" fill-rule="nonzero" fill-opacity="1" /><path clip-path="url(#clip390)" d="M255.124 1517.37 Q251.513 1517.37 249.684 1520.93 Q247.879 1524.47 247.879 1531.6 Q247.879 1538.71 249.684 1542.27 Q251.513 1545.82 255.124 1545.82 Q258.758 1545.82 260.564 1542.27 Q262.393 1538.71 262.393 1531.6 Q262.393 1524.47 260.564 1520.93 Q258.758 1517.37 255.124 1517.37 M255.124 1513.66 Q260.934 1513.66 263.99 1518.27 Q267.069 1522.85 267.069 1531.6 Q267.069 1540.33 263.99 1544.94 Q260.934 1549.52 255.124 1549.52 Q249.314 1549.52 246.235 1544.94 Q243.18 1540.33 243.18 1531.6 Q243.18 1522.85 246.235 1518.27 Q249.314 1513.66 255.124 1513.66 Z" fill="#000000" fill-rule="nonzero" fill-opacity="1" /><path clip-path="url(#clip390)" d="M285.286 1517.37 Q281.675 1517.37 279.846 1520.93 Q278.041 1524.47 278.041 1531.6 Q278.041 1538.71 279.846 1542.27 Q281.675 1545.82 285.286 1545.82 Q288.92 1545.82 290.726 1542.27 Q292.555 1538.71 292.555 1531.6 Q292.555 1524.47 290.726 1520.93 Q288.92 1517.37 285.286 1517.37 M285.286 1513.66 Q291.096 1513.66 294.152 1518.27 Q297.23 1522.85 297.23 1531.6 Q297.23 1540.33 294.152 1544.94 Q291.096 1549.52 285.286 1549.52 Q279.476 1549.52 276.397 1544.94 Q273.342 1540.33 273.342 1531.6 Q273.342 1522.85 276.397 1518.27 Q279.476 1513.66 285.286 1513.66 Z" fill="#000000" fill-rule="nonzero" fill-opacity="1" /><path clip-path="url(#clip390)" d="M721.353 1517.37 Q717.742 1517.37 715.914 1520.93 Q714.108 1524.47 714.108 1531.6 Q714.108 1538.71 715.914 1542.27 Q717.742 1545.82 721.353 1545.82 Q724.988 1545.82 726.793 1542.27 Q728.622 1538.71 728.622 1531.6 Q728.622 1524.47 726.793 1520.93 Q724.988 1517.37 721.353 1517.37 M721.353 1513.66 Q727.164 1513.66 730.219 1518.27 Q733.298 1522.85 733.298 1531.6 Q733.298 1540.33 730.219 1544.94 Q727.164 1549.52 721.353 1549.52 Q715.543 1549.52 712.465 1544.94 Q709.409 1540.33 709.409 1531.6 Q709.409 1522.85 712.465 1518.27 Q715.543 1513.66 721.353 1513.66 Z" fill="#000000" fill-rule="nonzero" fill-opacity="1" /><path clip-path="url(#clip390)" d="M741.515 1542.97 L746.4 1542.97 L746.4 1548.85 L741.515 1548.85 L741.515 1542.97 Z" fill="#000000" fill-rule="nonzero" fill-opacity="1" /><path clip-path="url(#clip390)" d="M760.612 1544.91 L776.932 1544.91 L776.932 1548.85 L754.987 1548.85 L754.987 1544.91 Q757.649 1542.16 762.233 1537.53 Q766.839 1532.88 768.02 1531.53 Q770.265 1529.01 771.145 1527.27 Q772.048 1525.51 772.048 1523.82 Q772.048 1521.07 770.103 1519.33 Q768.182 1517.6 765.08 1517.6 Q762.881 1517.6 760.427 1518.36 Q757.997 1519.13 755.219 1520.68 L755.219 1515.95 Q758.043 1514.82 760.497 1514.24 Q762.95 1513.66 764.987 1513.66 Q770.358 1513.66 773.552 1516.35 Q776.747 1519.03 776.747 1523.52 Q776.747 1525.65 775.936 1527.57 Q775.149 1529.47 773.043 1532.07 Q772.464 1532.74 769.362 1535.95 Q766.261 1539.15 760.612 1544.91 Z" fill="#000000" fill-rule="nonzero" fill-opacity="1" /><path clip-path="url(#clip390)" d="M786.793 1514.29 L805.149 1514.29 L805.149 1518.22 L791.075 1518.22 L791.075 1526.7 Q792.094 1526.35 793.112 1526.19 Q794.131 1526 795.149 1526 Q800.936 1526 804.316 1529.17 Q807.695 1532.34 807.695 1537.76 Q807.695 1543.34 804.223 1546.44 Q800.751 1549.52 794.432 1549.52 Q792.256 1549.52 789.987 1549.15 Q787.742 1548.78 785.335 1548.04 L785.335 1543.34 Q787.418 1544.47 789.64 1545.03 Q791.862 1545.58 794.339 1545.58 Q798.344 1545.58 800.682 1543.48 Q803.02 1541.37 803.02 1537.76 Q803.02 1534.15 800.682 1532.04 Q798.344 1529.94 794.339 1529.94 Q792.464 1529.94 790.589 1530.35 Q788.737 1530.77 786.793 1531.65 L786.793 1514.29 Z" fill="#000000" fill-rule="nonzero" fill-opacity="1" /><path clip-path="url(#clip390)" d="M1231.82 1517.37 Q1228.21 1517.37 1226.38 1520.93 Q1224.57 1524.47 1224.57 1531.6 Q1224.57 1538.71 1226.38 1542.27 Q1228.21 1545.82 1231.82 1545.82 Q1235.45 1545.82 1237.26 1542.27 Q1239.09 1538.71 1239.09 1531.6 Q1239.09 1524.47 1237.26 1520.93 Q1235.45 1517.37 1231.82 1517.37 M1231.82 1513.66 Q1237.63 1513.66 1240.68 1518.27 Q1243.76 1522.85 1243.76 1531.6 Q1243.76 1540.33 1240.68 1544.94 Q1237.63 1549.52 1231.82 1549.52 Q1226.01 1549.52 1222.93 1544.94 Q1219.87 1540.33 1219.87 1531.6 Q1219.87 1522.85 1222.93 1518.27 Q1226.01 1513.66 1231.82 1513.66 Z" fill="#000000" fill-rule="nonzero" fill-opacity="1" /><path clip-path="url(#clip390)" d="M1251.98 1542.97 L1256.86 1542.97 L1256.86 1548.85 L1251.98 1548.85 L1251.98 1542.97 Z" fill="#000000" fill-rule="nonzero" fill-opacity="1" /><path clip-path="url(#clip390)" d="M1267.1 1514.29 L1285.45 1514.29 L1285.45 1518.22 L1271.38 1518.22 L1271.38 1526.7 Q1272.4 1526.35 1273.42 1526.19 Q1274.43 1526 1275.45 1526 Q1281.24 1526 1284.62 1529.17 Q1288 1532.34 1288 1537.76 Q1288 1543.34 1284.53 1546.44 Q1281.05 1549.52 1274.73 1549.52 Q1272.56 1549.52 1270.29 1549.15 Q1268.05 1548.78 1265.64 1548.04 L1265.64 1543.34 Q1267.72 1544.47 1269.94 1545.03 Q1272.17 1545.58 1274.64 1545.58 Q1278.65 1545.58 1280.98 1543.48 Q1283.32 1541.37 1283.32 1537.76 Q1283.32 1534.15 1280.98 1532.04 Q1278.65 1529.94 1274.64 1529.94 Q1272.77 1529.94 1270.89 1530.35 Q1269.04 1530.77 1267.1 1531.65 L1267.1 1514.29 Z" fill="#000000" fill-rule="nonzero" fill-opacity="1" /><path clip-path="url(#clip390)" d="M1307.21 1517.37 Q1303.6 1517.37 1301.77 1520.93 Q1299.97 1524.47 1299.97 1531.6 Q1299.97 1538.71 1301.77 1542.27 Q1303.6 1545.82 1307.21 1545.82 Q1310.85 1545.82 1312.65 1542.27 Q1314.48 1538.71 1314.48 1531.6 Q1314.48 1524.47 1312.65 1520.93 Q1310.85 1517.37 1307.21 1517.37 M1307.21 1513.66 Q1313.02 1513.66 1316.08 1518.27 Q1319.16 1522.85 1319.16 1531.6 Q1319.16 1540.33 1316.08 1544.94 Q1313.02 1549.52 1307.21 1549.52 Q1301.4 1549.52 1298.32 1544.94 Q1295.27 1540.33 1295.27 1531.6 Q1295.27 1522.85 1298.32 1518.27 Q1301.4 1513.66 1307.21 1513.66 Z" fill="#000000" fill-rule="nonzero" fill-opacity="1" /><path clip-path="url(#clip390)" d="M1743.28 1517.37 Q1739.67 1517.37 1737.84 1520.93 Q1736.03 1524.47 1736.03 1531.6 Q1736.03 1538.71 1737.84 1542.27 Q1739.67 1545.82 1743.28 1545.82 Q1746.91 1545.82 1748.72 1542.27 Q1750.55 1538.71 1750.55 1531.6 Q1750.55 1524.47 1748.72 1520.93 Q1746.91 1517.37 1743.28 1517.37 M1743.28 1513.66 Q1749.09 1513.66 1752.14 1518.27 Q1755.22 1522.85 1755.22 1531.6 Q1755.22 1540.33 1752.14 1544.94 Q1749.09 1549.52 1743.28 1549.52 Q1737.47 1549.52 1734.39 1544.94 Q1731.33 1540.33 1731.33 1531.6 Q1731.33 1522.85 1734.39 1518.27 Q1737.47 1513.66 1743.28 1513.66 Z" fill="#000000" fill-rule="nonzero" fill-opacity="1" /><path clip-path="url(#clip390)" d="M1763.44 1542.97 L1768.32 1542.97 L1768.32 1548.85 L1763.44 1548.85 L1763.44 1542.97 Z" fill="#000000" fill-rule="nonzero" fill-opacity="1" /><path clip-path="url(#clip390)" d="M1777.33 1514.29 L1799.55 1514.29 L1799.55 1516.28 L1787.01 1548.85 L1782.12 1548.85 L1793.93 1518.22 L1777.33 1518.22 L1777.33 1514.29 Z" fill="#000000" fill-rule="nonzero" fill-opacity="1" /><path clip-path="url(#clip390)" d="M1808.72 1514.29 L1827.07 1514.29 L1827.07 1518.22 L1813 1518.22 L1813 1526.7 Q1814.02 1526.35 1815.04 1526.19 Q1816.06 1526 1817.07 1526 Q1822.86 1526 1826.24 1529.17 Q1829.62 1532.34 1829.62 1537.76 Q1829.62 1543.34 1826.15 1546.44 Q1822.68 1549.52 1816.36 1549.52 Q1814.18 1549.52 1811.91 1549.15 Q1809.67 1548.78 1807.26 1548.04 L1807.26 1543.34 Q1809.34 1544.47 1811.57 1545.03 Q1813.79 1545.58 1816.26 1545.58 Q1820.27 1545.58 1822.61 1543.48 Q1824.95 1541.37 1824.95 1537.76 Q1824.95 1534.15 1822.61 1532.04 Q1820.27 1529.94 1816.26 1529.94 Q1814.39 1529.94 1812.51 1530.35 Q1810.66 1530.77 1808.72 1531.65 L1808.72 1514.29 Z" fill="#000000" fill-rule="nonzero" fill-opacity="1" /><path clip-path="url(#clip390)" d="M2243.51 1544.91 L2251.15 1544.91 L2251.15 1518.55 L2242.84 1520.21 L2242.84 1515.95 L2251.1 1514.29 L2255.78 1514.29 L2255.78 1544.91 L2263.42 1544.91 L2263.42 1548.85 L2243.51 1548.85 L2243.51 1544.91 Z" fill="#000000" fill-rule="nonzero" fill-opacity="1" /><path clip-path="url(#clip390)" d="M2272.86 1542.97 L2277.75 1542.97 L2277.75 1548.85 L2272.86 1548.85 L2272.86 1542.97 Z" fill="#000000" fill-rule="nonzero" fill-opacity="1" /><path clip-path="url(#clip390)" d="M2297.93 1517.37 Q2294.32 1517.37 2292.49 1520.93 Q2290.69 1524.47 2290.69 1531.6 Q2290.69 1538.71 2292.49 1542.27 Q2294.32 1545.82 2297.93 1545.82 Q2301.57 1545.82 2303.37 1542.27 Q2305.2 1538.71 2305.2 1531.6 Q2305.2 1524.47 2303.37 1520.93 Q2301.57 1517.37 2297.93 1517.37 M2297.93 1513.66 Q2303.74 1513.66 2306.8 1518.27 Q2309.88 1522.85 2309.88 1531.6 Q2309.88 1540.33 2306.8 1544.94 Q2303.74 1549.52 2297.93 1549.52 Q2292.12 1549.52 2289.04 1544.94 Q2285.99 1540.33 2285.99 1531.6 Q2285.99 1522.85 2289.04 1518.27 Q2292.12 1513.66 2297.93 1513.66 Z" fill="#000000" fill-rule="nonzero" fill-opacity="1" /><path clip-path="url(#clip390)" d="M2328.1 1517.37 Q2324.48 1517.37 2322.66 1520.93 Q2320.85 1524.47 2320.85 1531.6 Q2320.85 1538.71 2322.66 1542.27 Q2324.48 1545.82 2328.1 1545.82 Q2331.73 1545.82 2333.54 1542.27 Q2335.36 1538.71 2335.36 1531.6 Q2335.36 1524.47 2333.54 1520.93 Q2331.73 1517.37 2328.1 1517.37 M2328.1 1513.66 Q2333.91 1513.66 2336.96 1518.27 Q2340.04 1522.85 2340.04 1531.6 Q2340.04 1540.33 2336.96 1544.94 Q2333.91 1549.52 2328.1 1549.52 Q2322.29 1549.52 2319.21 1544.94 Q2316.15 1540.33 2316.15 1531.6 Q2316.15 1522.85 2319.21 1518.27 Q2322.29 1513.66 2328.1 1513.66 Z" fill="#000000" fill-rule="nonzero" fill-opacity="1" /><polyline clip-path="url(#clip390)" style="stroke:#000000; stroke-linecap:round; stroke-linejoin:round; stroke-width:4; stroke-opacity:1; fill:none" points="186.274,1486.45 186.274,47.2441 "/>
<polyline clip-path="url(#clip390)" style="stroke:#000000; stroke-linecap:round; stroke-linejoin:round; stroke-width:4; stroke-opacity:1; fill:none" points="186.274,1247.42 205.172,1247.42 "/>
<polyline clip-path="url(#clip390)" style="stroke:#000000; stroke-linecap:round; stroke-linejoin:round; stroke-width:4; stroke-opacity:1; fill:none" points="186.274,929.448 205.172,929.448 "/>
<polyline clip-path="url(#clip390)" style="stroke:#000000; stroke-linecap:round; stroke-linejoin:round; stroke-width:4; stroke-opacity:1; fill:none" points="186.274,611.473 205.172,611.473 "/>
<polyline clip-path="url(#clip390)" style="stroke:#000000; stroke-linecap:round; stroke-linejoin:round; stroke-width:4; stroke-opacity:1; fill:none" points="186.274,293.497 205.172,293.497 "/>
<path clip-path="url(#clip390)" d="M62.9365 1233.22 Q59.3254 1233.22 57.4967 1236.79 Q55.6912 1240.33 55.6912 1247.46 Q55.6912 1254.56 57.4967 1258.13 Q59.3254 1261.67 62.9365 1261.67 Q66.5707 1261.67 68.3763 1258.13 Q70.205 1254.56 70.205 1247.46 Q70.205 1240.33 68.3763 1236.79 Q66.5707 1233.22 62.9365 1233.22 M62.9365 1229.52 Q68.7467 1229.52 71.8022 1234.12 Q74.8809 1238.71 74.8809 1247.46 Q74.8809 1256.18 71.8022 1260.79 Q68.7467 1265.37 62.9365 1265.37 Q57.1264 1265.37 54.0477 1260.79 Q50.9921 1256.18 50.9921 1247.46 Q50.9921 1238.71 54.0477 1234.12 Q57.1264 1229.52 62.9365 1229.52 Z" fill="#000000" fill-rule="nonzero" fill-opacity="1" /><path clip-path="url(#clip390)" d="M83.0984 1258.82 L87.9827 1258.82 L87.9827 1264.7 L83.0984 1264.7 L83.0984 1258.82 Z" fill="#000000" fill-rule="nonzero" fill-opacity="1" /><path clip-path="url(#clip390)" d="M98.2141 1230.14 L116.57 1230.14 L116.57 1234.08 L102.496 1234.08 L102.496 1242.55 Q103.515 1242.2 104.534 1242.04 Q105.552 1241.86 106.571 1241.86 Q112.358 1241.86 115.737 1245.03 Q119.117 1248.2 119.117 1253.62 Q119.117 1259.19 115.645 1262.3 Q112.172 1265.37 105.853 1265.37 Q103.677 1265.37 101.409 1265 Q99.1632 1264.63 96.7558 1263.89 L96.7558 1259.19 Q98.8391 1260.33 101.061 1260.88 Q103.284 1261.44 105.76 1261.44 Q109.765 1261.44 112.103 1259.33 Q114.441 1257.23 114.441 1253.62 Q114.441 1250 112.103 1247.9 Q109.765 1245.79 105.76 1245.79 Q103.885 1245.79 102.01 1246.21 Q100.159 1246.62 98.2141 1247.5 L98.2141 1230.14 Z" fill="#000000" fill-rule="nonzero" fill-opacity="1" /><path clip-path="url(#clip390)" d="M138.33 1233.22 Q134.719 1233.22 132.89 1236.79 Q131.084 1240.33 131.084 1247.46 Q131.084 1254.56 132.89 1258.13 Q134.719 1261.67 138.33 1261.67 Q141.964 1261.67 143.769 1258.13 Q145.598 1254.56 145.598 1247.46 Q145.598 1240.33 143.769 1236.79 Q141.964 1233.22 138.33 1233.22 M138.33 1229.52 Q144.14 1229.52 147.195 1234.12 Q150.274 1238.71 150.274 1247.46 Q150.274 1256.18 147.195 1260.79 Q144.14 1265.37 138.33 1265.37 Q132.519 1265.37 129.441 1260.79 Q126.385 1256.18 126.385 1247.46 Q126.385 1238.71 129.441 1234.12 Q132.519 1229.52 138.33 1229.52 Z" fill="#000000" fill-rule="nonzero" fill-opacity="1" /><path clip-path="url(#clip390)" d="M63.9319 915.247 Q60.3208 915.247 58.4921 918.811 Q56.6865 922.353 56.6865 929.483 Q56.6865 936.589 58.4921 940.154 Q60.3208 943.695 63.9319 943.695 Q67.5661 943.695 69.3717 940.154 Q71.2004 936.589 71.2004 929.483 Q71.2004 922.353 69.3717 918.811 Q67.5661 915.247 63.9319 915.247 M63.9319 911.543 Q69.742 911.543 72.7976 916.149 Q75.8763 920.733 75.8763 929.483 Q75.8763 938.209 72.7976 942.816 Q69.742 947.399 63.9319 947.399 Q58.1217 947.399 55.043 942.816 Q51.9875 938.209 51.9875 929.483 Q51.9875 920.733 55.043 916.149 Q58.1217 911.543 63.9319 911.543 Z" fill="#000000" fill-rule="nonzero" fill-opacity="1" /><path clip-path="url(#clip390)" d="M84.0938 940.848 L88.978 940.848 L88.978 946.728 L84.0938 946.728 L84.0938 940.848 Z" fill="#000000" fill-rule="nonzero" fill-opacity="1" /><path clip-path="url(#clip390)" d="M97.9826 912.168 L120.205 912.168 L120.205 914.159 L107.658 946.728 L102.774 946.728 L114.58 916.103 L97.9826 916.103 L97.9826 912.168 Z" fill="#000000" fill-rule="nonzero" fill-opacity="1" /><path clip-path="url(#clip390)" d="M129.371 912.168 L147.728 912.168 L147.728 916.103 L133.654 916.103 L133.654 924.575 Q134.672 924.228 135.691 924.066 Q136.709 923.881 137.728 923.881 Q143.515 923.881 146.894 927.052 Q150.274 930.223 150.274 935.64 Q150.274 941.219 146.802 944.32 Q143.33 947.399 137.01 947.399 Q134.834 947.399 132.566 947.029 Q130.32 946.658 127.913 945.918 L127.913 941.219 Q129.996 942.353 132.219 942.908 Q134.441 943.464 136.918 943.464 Q140.922 943.464 143.26 941.358 Q145.598 939.251 145.598 935.64 Q145.598 932.029 143.26 929.922 Q140.922 927.816 136.918 927.816 Q135.043 927.816 133.168 928.233 Q131.316 928.649 129.371 929.529 L129.371 912.168 Z" fill="#000000" fill-rule="nonzero" fill-opacity="1" /><path clip-path="url(#clip390)" d="M53.7467 624.817 L61.3856 624.817 L61.3856 598.452 L53.0754 600.118 L53.0754 595.859 L61.3393 594.193 L66.0152 594.193 L66.0152 624.817 L73.654 624.817 L73.654 628.753 L53.7467 628.753 L53.7467 624.817 Z" fill="#000000" fill-rule="nonzero" fill-opacity="1" /><path clip-path="url(#clip390)" d="M83.0984 622.873 L87.9827 622.873 L87.9827 628.753 L83.0984 628.753 L83.0984 622.873 Z" fill="#000000" fill-rule="nonzero" fill-opacity="1" /><path clip-path="url(#clip390)" d="M108.168 597.271 Q104.557 597.271 102.728 600.836 Q100.922 604.378 100.922 611.507 Q100.922 618.614 102.728 622.179 Q104.557 625.72 108.168 625.72 Q111.802 625.72 113.608 622.179 Q115.436 618.614 115.436 611.507 Q115.436 604.378 113.608 600.836 Q111.802 597.271 108.168 597.271 M108.168 593.568 Q113.978 593.568 117.033 598.174 Q120.112 602.757 120.112 611.507 Q120.112 620.234 117.033 624.841 Q113.978 629.424 108.168 629.424 Q102.358 629.424 99.2789 624.841 Q96.2234 620.234 96.2234 611.507 Q96.2234 602.757 99.2789 598.174 Q102.358 593.568 108.168 593.568 Z" fill="#000000" fill-rule="nonzero" fill-opacity="1" /><path clip-path="url(#clip390)" d="M138.33 597.271 Q134.719 597.271 132.89 600.836 Q131.084 604.378 131.084 611.507 Q131.084 618.614 132.89 622.179 Q134.719 625.72 138.33 625.72 Q141.964 625.72 143.769 622.179 Q145.598 618.614 145.598 611.507 Q145.598 604.378 143.769 600.836 Q141.964 597.271 138.33 597.271 M138.33 593.568 Q144.14 593.568 147.195 598.174 Q150.274 602.757 150.274 611.507 Q150.274 620.234 147.195 624.841 Q144.14 629.424 138.33 629.424 Q132.519 629.424 129.441 624.841 Q126.385 620.234 126.385 611.507 Q126.385 602.757 129.441 598.174 Q132.519 593.568 138.33 593.568 Z" fill="#000000" fill-rule="nonzero" fill-opacity="1" /><path clip-path="url(#clip390)" d="M54.7421 306.842 L62.381 306.842 L62.381 280.477 L54.0708 282.143 L54.0708 277.884 L62.3347 276.217 L67.0106 276.217 L67.0106 306.842 L74.6494 306.842 L74.6494 310.777 L54.7421 310.777 L54.7421 306.842 Z" fill="#000000" fill-rule="nonzero" fill-opacity="1" /><path clip-path="url(#clip390)" d="M84.0938 304.898 L88.978 304.898 L88.978 310.777 L84.0938 310.777 L84.0938 304.898 Z" fill="#000000" fill-rule="nonzero" fill-opacity="1" /><path clip-path="url(#clip390)" d="M103.191 306.842 L119.51 306.842 L119.51 310.777 L97.566 310.777 L97.566 306.842 Q100.228 304.088 104.811 299.458 Q109.418 294.805 110.598 293.463 Q112.844 290.939 113.723 289.203 Q114.626 287.444 114.626 285.754 Q114.626 283 112.682 281.264 Q110.76 279.527 107.658 279.527 Q105.459 279.527 103.006 280.291 Q100.575 281.055 97.7974 282.606 L97.7974 277.884 Q100.621 276.75 103.075 276.171 Q105.529 275.592 107.566 275.592 Q112.936 275.592 116.131 278.277 Q119.325 280.963 119.325 285.453 Q119.325 287.583 118.515 289.504 Q117.728 291.402 115.621 293.995 Q115.043 294.666 111.941 297.884 Q108.839 301.078 103.191 306.842 Z" fill="#000000" fill-rule="nonzero" fill-opacity="1" /><path clip-path="url(#clip390)" d="M129.371 276.217 L147.728 276.217 L147.728 280.152 L133.654 280.152 L133.654 288.625 Q134.672 288.277 135.691 288.115 Q136.709 287.93 137.728 287.93 Q143.515 287.93 146.894 291.101 Q150.274 294.273 150.274 299.689 Q150.274 305.268 146.802 308.37 Q143.33 311.449 137.01 311.449 Q134.834 311.449 132.566 311.078 Q130.32 310.708 127.913 309.967 L127.913 305.268 Q129.996 306.402 132.219 306.958 Q134.441 307.513 136.918 307.513 Q140.922 307.513 143.26 305.407 Q145.598 303.3 145.598 299.689 Q145.598 296.078 143.26 293.972 Q140.922 291.865 136.918 291.865 Q135.043 291.865 133.168 292.282 Q131.316 292.699 129.371 293.578 L129.371 276.217 Z" fill="#000000" fill-rule="nonzero" fill-opacity="1" /><polyline clip-path="url(#clip391)" style="stroke:#009af9; stroke-linecap:round; stroke-linejoin:round; stroke-width:12; stroke-opacity:1; fill:none" points="247.59,1247.42 451.975,1132.27 656.36,1050.15 860.745,1100.58 1065.13,1090.99 1269.51,1060.64 1473.9,1046.18 1678.29,980.754 1882.67,902.89 2087.06,802.927 2291.44,419.673 "/>
<polyline clip-path="url(#clip391)" style="stroke:#e26f46; stroke-linecap:round; stroke-linejoin:round; stroke-width:12; stroke-opacity:1; fill:none" points="247.59,1247.42 451.975,1232.24 656.36,1188.39 860.745,1191.53 1065.13,1127.3 1269.51,1066.1 1473.9,1112.38 1678.29,838.591 1882.67,766.783 2087.06,667.818 2291.44,537.754 "/>
<polyline clip-path="url(#clip391)" style="stroke:#3da44d; stroke-linecap:round; stroke-linejoin:round; stroke-width:12; stroke-opacity:1; fill:none" points="247.59,1247.42 451.975,1253.78 656.36,1241.94 860.745,1249.79 1065.13,1124.11 1269.51,1087.87 1473.9,956.778 1678.29,825.95 1882.67,675.13 2087.06,625.408 2291.44,923.895 "/>
<polyline clip-path="url(#clip391)" style="stroke:#c271d2; stroke-linecap:round; stroke-linejoin:round; stroke-width:12; stroke-opacity:1; fill:none" points="247.59,1247.42 451.975,1247.74 656.36,1131.77 860.745,1061.69 1065.13,1021.57 1269.51,920.087 1473.9,925.661 1678.29,861.581 1882.67,708.814 2087.06,675.163 2291.44,884.679 "/>
<polyline clip-path="url(#clip391)" style="stroke:#ac8d18; stroke-linecap:round; stroke-linejoin:round; stroke-width:12; stroke-opacity:1; fill:none" points="247.59,1247.42 451.975,1150.09 656.36,1069.11 860.745,1062.74 1065.13,968.027 1269.51,820.447 1473.9,767.324 1678.29,847.095 1882.67,777.603 2087.06,590.21 2291.44,652.984 "/>
<polyline clip-path="url(#clip391)" style="stroke:#00a9ad; stroke-linecap:round; stroke-linejoin:round; stroke-width:12; stroke-opacity:1; fill:none" points="247.59,1247.42 451.975,1210.22 656.36,1177.51 860.745,1079.88 1065.13,942.321 1269.51,753.813 1473.9,242.361 1678.29,87.9763 1882.67,208.862 2087.06,759.298 2291.44,590.803 "/>
<polyline clip-path="url(#clip391)" style="stroke:#ed5d92; stroke-linecap:round; stroke-linejoin:round; stroke-width:12; stroke-opacity:1; fill:none" points="247.59,1247.42 451.975,1216.52 656.36,1106.13 860.745,896.714 1065.13,711.373 1269.51,501.732 1473.9,531.188 1678.29,406.953 1882.67,357.203 2087.06,192.118 2291.44,143.97 "/>
<polyline clip-path="url(#clip391)" style="stroke:#c68125; stroke-linecap:round; stroke-linejoin:round; stroke-width:12; stroke-opacity:1; fill:none" points="247.59,1247.42 451.975,1286.76 656.36,1271.96 860.745,1284.53 1065.13,1307.01 1269.51,1227.12 1473.9,1304.32 1678.29,1369.89 1882.67,1445.72 2087.06,1435.86 2291.44,1364.16 "/>
</svg>
