<?xml version="1.0" encoding="utf-8"?>
<svg xmlns="http://www.w3.org/2000/svg" xmlns:xlink="http://www.w3.org/1999/xlink" width="600" height="400" viewBox="0 0 2400 1600">
<defs>
  <clipPath id="clip300">
    <rect x="0" y="0" width="2400" height="1600"/>
  </clipPath>
</defs>
<path clip-path="url(#clip300)" d="M0 1600 L2400 1600 L2400 0 L0 0  Z" fill="#ffffff" fill-rule="evenodd" fill-opacity="1"/>
<defs>
  <clipPath id="clip301">
    <rect x="184" y="47" width="2170" height="1440"/>
  </clipPath>
</defs>
<path clip-path="url(#clip300)" d="M184.191 1486.45 L2352.76 1486.45 L2352.76 47.2441 L184.191 47.2441  Z" fill="#ffffff" fill-rule="evenodd" fill-opacity="1"/>
<polyline clip-path="url(#clip301)" style="stroke:#000000; stroke-linecap:round; stroke-linejoin:round; stroke-width:2; stroke-opacity:0.1; fill:none" points="245.565,1486.45 245.565,47.2441 "/>
<polyline clip-path="url(#clip301)" style="stroke:#000000; stroke-linecap:round; stroke-linejoin:round; stroke-width:2; stroke-opacity:0.1; fill:none" points="757.019,1486.45 757.019,47.2441 "/>
<polyline clip-path="url(#clip301)" style="stroke:#000000; stroke-linecap:round; stroke-linejoin:round; stroke-width:2; stroke-opacity:0.1; fill:none" points="1268.47,1486.45 1268.47,47.2441 "/>
<polyline clip-path="url(#clip301)" style="stroke:#000000; stroke-linecap:round; stroke-linejoin:round; stroke-width:2; stroke-opacity:0.1; fill:none" points="1779.93,1486.45 1779.93,47.2441 "/>
<polyline clip-path="url(#clip301)" style="stroke:#000000; stroke-linecap:round; stroke-linejoin:round; stroke-width:2; stroke-opacity:0.1; fill:none" points="2291.38,1486.45 2291.38,47.2441 "/>
<polyline clip-path="url(#clip301)" style="stroke:#000000; stroke-linecap:round; stroke-linejoin:round; stroke-width:2; stroke-opacity:0.1; fill:none" points="184.191,1453.07 2352.76,1453.07 "/>
<polyline clip-path="url(#clip301)" style="stroke:#000000; stroke-linecap:round; stroke-linejoin:round; stroke-width:2; stroke-opacity:0.1; fill:none" points="184.191,1119.81 2352.76,1119.81 "/>
<polyline clip-path="url(#clip301)" style="stroke:#000000; stroke-linecap:round; stroke-linejoin:round; stroke-width:2; stroke-opacity:0.1; fill:none" points="184.191,786.552 2352.76,786.552 "/>
<polyline clip-path="url(#clip301)" style="stroke:#000000; stroke-linecap:round; stroke-linejoin:round; stroke-width:2; stroke-opacity:0.1; fill:none" points="184.191,453.291 2352.76,453.291 "/>
<polyline clip-path="url(#clip301)" style="stroke:#000000; stroke-linecap:round; stroke-linejoin:round; stroke-width:2; stroke-opacity:0.1; fill:none" points="184.191,120.03 2352.76,120.03 "/>
<polyline clip-path="url(#clip300)" style="stroke:#000000; stroke-linecap:round; stroke-linejoin:round; stroke-width:4; stroke-opacity:1; fill:none" points="184.191,1486.45 2352.76,1486.45 "/>
<polyline clip-path="url(#clip300)" style="stroke:#000000; stroke-linecap:round; stroke-linejoin:round; stroke-width:4; stroke-opacity:1; fill:none" points="245.565,1486.45 245.565,1467.55 "/>
<polyline clip-path="url(#clip300)" style="stroke:#000000; stroke-linecap:round; stroke-linejoin:round; stroke-width:4; stroke-opacity:1; fill:none" points="757.019,1486.45 757.019,1467.55 "/>
<polyline clip-path="url(#clip300)" style="stroke:#000000; stroke-linecap:round; stroke-linejoin:round; stroke-width:4; stroke-opacity:1; fill:none" points="1268.47,1486.45 1268.47,1467.55 "/>
<polyline clip-path="url(#clip300)" style="stroke:#000000; stroke-linecap:round; stroke-linejoin:round; stroke-width:4; stroke-opacity:1; fill:none" points="1779.93,1486.45 1779.93,1467.55 "/>
<polyline clip-path="url(#clip300)" style="stroke:#000000; stroke-linecap:round; stroke-linejoin:round; stroke-width:4; stroke-opacity:1; fill:none" points="2291.38,1486.45 2291.38,1467.55 "/>
<path clip-path="url(#clip300)" d="M222.95 1517.37 Q219.338 1517.37 217.51 1520.93 Q215.704 1524.47 215.704 1531.6 Q215.704 1538.71 217.51 1542.27 Q219.338 1545.82 222.95 1545.82 Q226.584 1545.82 228.389 1542.27 Q230.218 1538.71 230.218 1531.6 Q230.218 1524.47 228.389 1520.93 Q226.584 1517.37 222.95 1517.37 M222.95 1513.66 Q228.76 1513.66 231.815 1518.27 Q234.894 1522.85 234.894 1531.6 Q234.894 1540.33 231.815 1544.94 Q228.76 1549.52 222.95 1549.52 Q217.139 1549.52 214.061 1544.94 Q211.005 1540.33 211.005 1531.6 Q211.005 1522.85 214.061 1518.27 Q217.139 1513.66 222.95 1513.66 Z" fill="#000000" fill-rule="nonzero" fill-opacity="1" /><path clip-path="url(#clip300)" d="M243.111 1542.97 L247.996 1542.97 L247.996 1548.85 L243.111 1548.85 L243.111 1542.97 Z" fill="#000000" fill-rule="nonzero" fill-opacity="1" /><path clip-path="url(#clip300)" d="M268.181 1517.37 Q264.57 1517.37 262.741 1520.93 Q260.935 1524.47 260.935 1531.6 Q260.935 1538.71 262.741 1542.27 Q264.57 1545.82 268.181 1545.82 Q271.815 1545.82 273.621 1542.27 Q275.449 1538.71 275.449 1531.6 Q275.449 1524.47 273.621 1520.93 Q271.815 1517.37 268.181 1517.37 M268.181 1513.66 Q273.991 1513.66 277.046 1518.27 Q280.125 1522.85 280.125 1531.6 Q280.125 1540.33 277.046 1544.94 Q273.991 1549.52 268.181 1549.52 Q262.371 1549.52 259.292 1544.94 Q256.236 1540.33 256.236 1531.6 Q256.236 1522.85 259.292 1518.27 Q262.371 1513.66 268.181 1513.66 Z" fill="#000000" fill-rule="nonzero" fill-opacity="1" /><path clip-path="url(#clip300)" d="M728.755 1544.91 L745.075 1544.91 L745.075 1548.85 L723.131 1548.85 L723.131 1544.91 Q725.793 1542.16 730.376 1537.53 Q734.982 1532.88 736.163 1531.53 Q738.408 1529.01 739.288 1527.27 Q740.191 1525.51 740.191 1523.82 Q740.191 1521.07 738.246 1519.33 Q736.325 1517.6 733.223 1517.6 Q731.024 1517.6 728.57 1518.36 Q726.14 1519.13 723.362 1520.68 L723.362 1515.95 Q726.186 1514.82 728.64 1514.24 Q731.093 1513.66 733.13 1513.66 Q738.501 1513.66 741.695 1516.35 Q744.89 1519.03 744.89 1523.52 Q744.89 1525.65 744.079 1527.57 Q743.292 1529.47 741.186 1532.07 Q740.607 1532.74 737.505 1535.95 Q734.404 1539.15 728.755 1544.91 Z" fill="#000000" fill-rule="nonzero" fill-opacity="1" /><path clip-path="url(#clip300)" d="M754.89 1542.97 L759.774 1542.97 L759.774 1548.85 L754.89 1548.85 L754.89 1542.97 Z" fill="#000000" fill-rule="nonzero" fill-opacity="1" /><path clip-path="url(#clip300)" d="M770.005 1514.29 L788.362 1514.29 L788.362 1518.22 L774.288 1518.22 L774.288 1526.7 Q775.306 1526.35 776.325 1526.19 Q777.343 1526 778.362 1526 Q784.149 1526 787.528 1529.17 Q790.908 1532.34 790.908 1537.76 Q790.908 1543.34 787.436 1546.44 Q783.964 1549.52 777.644 1549.52 Q775.468 1549.52 773.2 1549.15 Q770.954 1548.78 768.547 1548.04 L768.547 1543.34 Q770.63 1544.47 772.852 1545.03 Q775.075 1545.58 777.552 1545.58 Q781.556 1545.58 783.894 1543.48 Q786.232 1541.37 786.232 1537.76 Q786.232 1534.15 783.894 1532.04 Q781.556 1529.94 777.552 1529.94 Q775.677 1529.94 773.802 1530.35 Q771.95 1530.77 770.005 1531.65 L770.005 1514.29 Z" fill="#000000" fill-rule="nonzero" fill-opacity="1" /><path clip-path="url(#clip300)" d="M1235.64 1514.29 L1253.99 1514.29 L1253.99 1518.22 L1239.92 1518.22 L1239.92 1526.7 Q1240.94 1526.35 1241.96 1526.19 Q1242.98 1526 1243.99 1526 Q1249.78 1526 1253.16 1529.17 Q1256.54 1532.34 1256.54 1537.76 Q1256.54 1543.34 1253.07 1546.44 Q1249.6 1549.52 1243.28 1549.52 Q1241.1 1549.52 1238.83 1549.15 Q1236.59 1548.78 1234.18 1548.04 L1234.18 1543.34 Q1236.26 1544.47 1238.49 1545.03 Q1240.71 1545.58 1243.18 1545.58 Q1247.19 1545.58 1249.53 1543.48 Q1251.86 1541.37 1251.86 1537.76 Q1251.86 1534.15 1249.53 1532.04 Q1247.19 1529.94 1243.18 1529.94 Q1241.31 1529.94 1239.43 1530.35 Q1237.58 1530.77 1235.64 1531.65 L1235.64 1514.29 Z" fill="#000000" fill-rule="nonzero" fill-opacity="1" /><path clip-path="url(#clip300)" d="M1265.75 1542.97 L1270.64 1542.97 L1270.64 1548.85 L1265.75 1548.85 L1265.75 1542.97 Z" fill="#000000" fill-rule="nonzero" fill-opacity="1" /><path clip-path="url(#clip300)" d="M1290.82 1517.37 Q1287.21 1517.37 1285.38 1520.93 Q1283.58 1524.47 1283.58 1531.6 Q1283.58 1538.71 1285.38 1542.27 Q1287.21 1545.82 1290.82 1545.82 Q1294.46 1545.82 1296.26 1542.27 Q1298.09 1538.71 1298.09 1531.6 Q1298.09 1524.47 1296.26 1520.93 Q1294.46 1517.37 1290.82 1517.37 M1290.82 1513.66 Q1296.63 1513.66 1299.69 1518.27 Q1302.77 1522.85 1302.77 1531.6 Q1302.77 1540.33 1299.69 1544.94 Q1296.63 1549.52 1290.82 1549.52 Q1285.01 1549.52 1281.93 1544.94 Q1278.88 1540.33 1278.88 1531.6 Q1278.88 1522.85 1281.93 1518.27 Q1285.01 1513.66 1290.82 1513.66 Z" fill="#000000" fill-rule="nonzero" fill-opacity="1" /><path clip-path="url(#clip300)" d="M1746.25 1514.29 L1768.47 1514.29 L1768.47 1516.28 L1755.92 1548.85 L1751.04 1548.85 L1762.84 1518.22 L1746.25 1518.22 L1746.25 1514.29 Z" fill="#000000" fill-rule="nonzero" fill-opacity="1" /><path clip-path="url(#clip300)" d="M1777.59 1542.97 L1782.47 1542.97 L1782.47 1548.85 L1777.59 1548.85 L1777.59 1542.97 Z" fill="#000000" fill-rule="nonzero" fill-opacity="1" /><path clip-path="url(#clip300)" d="M1792.71 1514.29 L1811.06 1514.29 L1811.06 1518.22 L1796.99 1518.22 L1796.99 1526.7 Q1798.01 1526.35 1799.02 1526.19 Q1800.04 1526 1801.06 1526 Q1806.85 1526 1810.23 1529.17 Q1813.61 1532.34 1813.61 1537.76 Q1813.61 1543.34 1810.14 1546.44 Q1806.66 1549.52 1800.34 1549.52 Q1798.17 1549.52 1795.9 1549.15 Q1793.65 1548.78 1791.25 1548.04 L1791.25 1543.34 Q1793.33 1544.47 1795.55 1545.03 Q1797.77 1545.58 1800.25 1545.58 Q1804.26 1545.58 1806.59 1543.48 Q1808.93 1541.37 1808.93 1537.76 Q1808.93 1534.15 1806.59 1532.04 Q1804.26 1529.94 1800.25 1529.94 Q1798.38 1529.94 1796.5 1530.35 Q1794.65 1530.77 1792.71 1531.65 L1792.71 1514.29 Z" fill="#000000" fill-rule="nonzero" fill-opacity="1" /><path clip-path="url(#clip300)" d="M2243.45 1544.91 L2251.09 1544.91 L2251.09 1518.55 L2242.78 1520.21 L2242.78 1515.95 L2251.05 1514.29 L2255.72 1514.29 L2255.72 1544.91 L2263.36 1544.91 L2263.36 1548.85 L2243.45 1548.85 L2243.45 1544.91 Z" fill="#000000" fill-rule="nonzero" fill-opacity="1" /><path clip-path="url(#clip300)" d="M2282.81 1517.37 Q2279.19 1517.37 2277.37 1520.93 Q2275.56 1524.47 2275.56 1531.6 Q2275.56 1538.71 2277.37 1542.27 Q2279.19 1545.82 2282.81 1545.82 Q2286.44 1545.82 2288.24 1542.27 Q2290.07 1538.71 2290.07 1531.6 Q2290.07 1524.47 2288.24 1520.93 Q2286.44 1517.37 2282.81 1517.37 M2282.81 1513.66 Q2288.62 1513.66 2291.67 1518.27 Q2294.75 1522.85 2294.75 1531.6 Q2294.75 1540.33 2291.67 1544.94 Q2288.62 1549.52 2282.81 1549.52 Q2276.99 1549.52 2273.92 1544.94 Q2270.86 1540.33 2270.86 1531.6 Q2270.86 1522.85 2273.92 1518.27 Q2276.99 1513.66 2282.81 1513.66 Z" fill="#000000" fill-rule="nonzero" fill-opacity="1" /><path clip-path="url(#clip300)" d="M2302.97 1542.97 L2307.85 1542.97 L2307.85 1548.85 L2302.97 1548.85 L2302.97 1542.97 Z" fill="#000000" fill-rule="nonzero" fill-opacity="1" /><path clip-path="url(#clip300)" d="M2328.04 1517.37 Q2324.43 1517.37 2322.6 1520.93 Q2320.79 1524.47 2320.79 1531.6 Q2320.79 1538.71 2322.6 1542.27 Q2324.43 1545.82 2328.04 1545.82 Q2331.67 1545.82 2333.48 1542.27 Q2335.3 1538.71 2335.3 1531.6 Q2335.3 1524.47 2333.48 1520.93 Q2331.67 1517.37 2328.04 1517.37 M2328.04 1513.66 Q2333.85 1513.66 2336.9 1518.27 Q2339.98 1522.85 2339.98 1531.6 Q2339.98 1540.33 2336.9 1544.94 Q2333.85 1549.52 2328.04 1549.52 Q2322.23 1549.52 2319.15 1544.94 Q2316.09 1540.33 2316.09 1531.6 Q2316.09 1522.85 2319.15 1518.27 Q2322.23 1513.66 2328.04 1513.66 Z" fill="#000000" fill-rule="nonzero" fill-opacity="1" /><polyline clip-path="url(#clip300)" style="stroke:#000000; stroke-linecap:round; stroke-linejoin:round; stroke-width:4; stroke-opacity:1; fill:none" points="184.191,1486.45 184.191,47.2441 "/>
<polyline clip-path="url(#clip300)" style="stroke:#000000; stroke-linecap:round; stroke-linejoin:round; stroke-width:4; stroke-opacity:1; fill:none" points="184.191,1453.07 203.088,1453.07 "/>
<polyline clip-path="url(#clip300)" style="stroke:#000000; stroke-linecap:round; stroke-linejoin:round; stroke-width:4; stroke-opacity:1; fill:none" points="184.191,1119.81 203.088,1119.81 "/>
<polyline clip-path="url(#clip300)" style="stroke:#000000; stroke-linecap:round; stroke-linejoin:round; stroke-width:4; stroke-opacity:1; fill:none" points="184.191,786.552 203.088,786.552 "/>
<polyline clip-path="url(#clip300)" style="stroke:#000000; stroke-linecap:round; stroke-linejoin:round; stroke-width:4; stroke-opacity:1; fill:none" points="184.191,453.291 203.088,453.291 "/>
<polyline clip-path="url(#clip300)" style="stroke:#000000; stroke-linecap:round; stroke-linejoin:round; stroke-width:4; stroke-opacity:1; fill:none" points="184.191,120.03 203.088,120.03 "/>
<path clip-path="url(#clip300)" d="M91.0151 1438.87 Q87.404 1438.87 85.5753 1442.44 Q83.7697 1445.98 83.7697 1453.11 Q83.7697 1460.21 85.5753 1463.78 Q87.404 1467.32 91.0151 1467.32 Q94.6493 1467.32 96.4548 1463.78 Q98.2835 1460.21 98.2835 1453.11 Q98.2835 1445.98 96.4548 1442.44 Q94.6493 1438.87 91.0151 1438.87 M91.0151 1435.17 Q96.8252 1435.17 99.8808 1439.77 Q102.959 1444.36 102.959 1453.11 Q102.959 1461.83 99.8808 1466.44 Q96.8252 1471.02 91.0151 1471.02 Q85.2049 1471.02 82.1262 1466.44 Q79.0707 1461.83 79.0707 1453.11 Q79.0707 1444.36 82.1262 1439.77 Q85.2049 1435.17 91.0151 1435.17 Z" fill="#000000" fill-rule="nonzero" fill-opacity="1" /><path clip-path="url(#clip300)" d="M111.177 1464.47 L116.061 1464.47 L116.061 1470.35 L111.177 1470.35 L111.177 1464.47 Z" fill="#000000" fill-rule="nonzero" fill-opacity="1" /><path clip-path="url(#clip300)" d="M136.246 1438.87 Q132.635 1438.87 130.807 1442.44 Q129.001 1445.98 129.001 1453.11 Q129.001 1460.21 130.807 1463.78 Q132.635 1467.32 136.246 1467.32 Q139.881 1467.32 141.686 1463.78 Q143.515 1460.21 143.515 1453.11 Q143.515 1445.98 141.686 1442.44 Q139.881 1438.87 136.246 1438.87 M136.246 1435.17 Q142.056 1435.17 145.112 1439.77 Q148.191 1444.36 148.191 1453.11 Q148.191 1461.83 145.112 1466.44 Q142.056 1471.02 136.246 1471.02 Q130.436 1471.02 127.357 1466.44 Q124.302 1461.83 124.302 1453.11 Q124.302 1444.36 127.357 1439.77 Q130.436 1435.17 136.246 1435.17 Z" fill="#000000" fill-rule="nonzero" fill-opacity="1" /><path clip-path="url(#clip300)" d="M86.0382 1133.16 L102.358 1133.16 L102.358 1137.09 L80.4133 1137.09 L80.4133 1133.16 Q83.0753 1130.4 87.6586 1125.77 Q92.2651 1121.12 93.4456 1119.78 Q95.691 1117.25 96.5706 1115.52 Q97.4734 1113.76 97.4734 1112.07 Q97.4734 1109.31 95.5289 1107.58 Q93.6076 1105.84 90.5058 1105.84 Q88.3067 1105.84 85.8531 1106.61 Q83.4225 1107.37 80.6447 1108.92 L80.6447 1104.2 Q83.4688 1103.06 85.9225 1102.49 Q88.3762 1101.91 90.4132 1101.91 Q95.7836 1101.91 98.978 1104.59 Q102.172 1107.28 102.172 1111.77 Q102.172 1113.9 101.362 1115.82 Q100.575 1117.72 98.4687 1120.31 Q97.89 1120.98 94.7882 1124.2 Q91.6864 1127.39 86.0382 1133.16 Z" fill="#000000" fill-rule="nonzero" fill-opacity="1" /><path clip-path="url(#clip300)" d="M112.172 1131.21 L117.057 1131.21 L117.057 1137.09 L112.172 1137.09 L112.172 1131.21 Z" fill="#000000" fill-rule="nonzero" fill-opacity="1" /><path clip-path="url(#clip300)" d="M127.288 1102.53 L145.644 1102.53 L145.644 1106.47 L131.57 1106.47 L131.57 1114.94 Q132.589 1114.59 133.607 1114.43 Q134.626 1114.25 135.644 1114.25 Q141.431 1114.25 144.811 1117.42 Q148.191 1120.59 148.191 1126 Q148.191 1131.58 144.718 1134.68 Q141.246 1137.76 134.927 1137.76 Q132.751 1137.76 130.482 1137.39 Q128.237 1137.02 125.83 1136.28 L125.83 1131.58 Q127.913 1132.72 130.135 1133.27 Q132.357 1133.83 134.834 1133.83 Q138.839 1133.83 141.177 1131.72 Q143.515 1129.62 143.515 1126 Q143.515 1122.39 141.177 1120.29 Q138.839 1118.18 134.834 1118.18 Q132.959 1118.18 131.084 1118.6 Q129.232 1119.01 127.288 1119.89 L127.288 1102.53 Z" fill="#000000" fill-rule="nonzero" fill-opacity="1" /><path clip-path="url(#clip300)" d="M81.0614 769.272 L99.4178 769.272 L99.4178 773.207 L85.3438 773.207 L85.3438 781.679 Q86.3623 781.332 87.3808 781.17 Q88.3993 780.984 89.4178 780.984 Q95.2049 780.984 98.5845 784.156 Q101.964 787.327 101.964 792.744 Q101.964 798.322 98.4919 801.424 Q95.0197 804.503 88.7003 804.503 Q86.5243 804.503 84.2558 804.132 Q82.0105 803.762 79.6031 803.021 L79.6031 798.322 Q81.6864 799.457 83.9086 800.012 Q86.1308 800.568 88.6077 800.568 Q92.6123 800.568 94.9502 798.461 Q97.2882 796.355 97.2882 792.744 Q97.2882 789.133 94.9502 787.026 Q92.6123 784.92 88.6077 784.92 Q86.7327 784.92 84.8577 785.336 Q83.0058 785.753 81.0614 786.633 L81.0614 769.272 Z" fill="#000000" fill-rule="nonzero" fill-opacity="1" /><path clip-path="url(#clip300)" d="M111.177 797.952 L116.061 797.952 L116.061 803.832 L111.177 803.832 L111.177 797.952 Z" fill="#000000" fill-rule="nonzero" fill-opacity="1" /><path clip-path="url(#clip300)" d="M136.246 772.35 Q132.635 772.35 130.807 775.915 Q129.001 779.457 129.001 786.586 Q129.001 793.693 130.807 797.257 Q132.635 800.799 136.246 800.799 Q139.881 800.799 141.686 797.257 Q143.515 793.693 143.515 786.586 Q143.515 779.457 141.686 775.915 Q139.881 772.35 136.246 772.35 M136.246 768.647 Q142.056 768.647 145.112 773.253 Q148.191 777.836 148.191 786.586 Q148.191 795.313 145.112 799.92 Q142.056 804.503 136.246 804.503 Q130.436 804.503 127.357 799.92 Q124.302 795.313 124.302 786.586 Q124.302 777.836 127.357 773.253 Q130.436 768.647 136.246 768.647 Z" fill="#000000" fill-rule="nonzero" fill-opacity="1" /><path clip-path="url(#clip300)" d="M80.8299 436.011 L103.052 436.011 L103.052 438.002 L90.5058 470.571 L85.6216 470.571 L97.4271 439.946 L80.8299 439.946 L80.8299 436.011 Z" fill="#000000" fill-rule="nonzero" fill-opacity="1" /><path clip-path="url(#clip300)" d="M112.172 464.691 L117.057 464.691 L117.057 470.571 L112.172 470.571 L112.172 464.691 Z" fill="#000000" fill-rule="nonzero" fill-opacity="1" /><path clip-path="url(#clip300)" d="M127.288 436.011 L145.644 436.011 L145.644 439.946 L131.57 439.946 L131.57 448.418 Q132.589 448.071 133.607 447.909 Q134.626 447.724 135.644 447.724 Q141.431 447.724 144.811 450.895 Q148.191 454.066 148.191 459.483 Q148.191 465.062 144.718 468.163 Q141.246 471.242 134.927 471.242 Q132.751 471.242 130.482 470.872 Q128.237 470.501 125.83 469.761 L125.83 465.062 Q127.913 466.196 130.135 466.751 Q132.357 467.307 134.834 467.307 Q138.839 467.307 141.177 465.201 Q143.515 463.094 143.515 459.483 Q143.515 455.872 141.177 453.765 Q138.839 451.659 134.834 451.659 Q132.959 451.659 131.084 452.076 Q129.232 452.492 127.288 453.372 L127.288 436.011 Z" fill="#000000" fill-rule="nonzero" fill-opacity="1" /><path clip-path="url(#clip300)" d="M51.6634 133.375 L59.3023 133.375 L59.3023 107.009 L50.9921 108.676 L50.9921 104.417 L59.256 102.75 L63.9319 102.75 L63.9319 133.375 L71.5707 133.375 L71.5707 137.31 L51.6634 137.31 L51.6634 133.375 Z" fill="#000000" fill-rule="nonzero" fill-opacity="1" /><path clip-path="url(#clip300)" d="M91.0151 105.829 Q87.404 105.829 85.5753 109.394 Q83.7697 112.935 83.7697 120.065 Q83.7697 127.171 85.5753 130.736 Q87.404 134.278 91.0151 134.278 Q94.6493 134.278 96.4548 130.736 Q98.2835 127.171 98.2835 120.065 Q98.2835 112.935 96.4548 109.394 Q94.6493 105.829 91.0151 105.829 M91.0151 102.125 Q96.8252 102.125 99.8808 106.732 Q102.959 111.315 102.959 120.065 Q102.959 128.792 99.8808 133.398 Q96.8252 137.982 91.0151 137.982 Q85.2049 137.982 82.1262 133.398 Q79.0707 128.792 79.0707 120.065 Q79.0707 111.315 82.1262 106.732 Q85.2049 102.125 91.0151 102.125 Z" fill="#000000" fill-rule="nonzero" fill-opacity="1" /><path clip-path="url(#clip300)" d="M111.177 131.431 L116.061 131.431 L116.061 137.31 L111.177 137.31 L111.177 131.431 Z" fill="#000000" fill-rule="nonzero" fill-opacity="1" /><path clip-path="url(#clip300)" d="M136.246 105.829 Q132.635 105.829 130.807 109.394 Q129.001 112.935 129.001 120.065 Q129.001 127.171 130.807 130.736 Q132.635 134.278 136.246 134.278 Q139.881 134.278 141.686 130.736 Q143.515 127.171 143.515 120.065 Q143.515 112.935 141.686 109.394 Q139.881 105.829 136.246 105.829 M136.246 102.125 Q142.056 102.125 145.112 106.732 Q148.191 111.315 148.191 120.065 Q148.191 128.792 145.112 133.398 Q142.056 137.982 136.246 137.982 Q130.436 137.982 127.357 133.398 Q124.302 128.792 124.302 120.065 Q124.302 111.315 127.357 106.732 Q130.436 102.125 136.246 102.125 Z" fill="#000000" fill-rule="nonzero" fill-opacity="1" /><path clip-path="url(#clip301)" d="M245.565 1319.77 L266.023 1322.69 L286.481 1313 L306.94 1306.96 L327.398 1300.12 L347.856 1284.4 L368.314 1262.33 L388.772 1236.61 L409.23 1218.24 L429.689 1179.12 L450.147 1150.33 L470.605 1113.36 L491.063 1071.03 L511.521 1027.72 L531.979 943.372 L552.438 887.868 L572.896 841.03 L593.354 724.452 L613.812 652.919 L634.27 661.101 L654.728 676.336 L675.187 752.482 L695.645 956.109 L716.103 1133.33 L736.561 1234.79 L757.019 1285.59 L777.477 1322.38 L797.936 1350.15 L818.394 1368.24 L838.852 1376.55 L859.31 1379.96 L879.768 1383.68 L900.226 1383.52 L920.685 1380.59 L941.143 1378.62 L961.601 1374.44 L982.059 1362.57 L1002.52 1354.68 L1022.98 1343.24 L1043.43 1325.44 L1063.89 1298.59 L1084.35 1289.26 L1104.81 1255.42 L1125.27 1222.31 L1145.72 1198.86 L1166.18 1151.28 L1186.64 1088.33 L1207.1 1032.95 L1227.56 991.508 L1248.02 890.182 L1268.47 860.901 L1288.93 841.071 L1309.39 848.746 L1329.85 852.477 L1350.31 928.117 L1370.76 1060.43 L1391.22 1144.33 L1411.68 1235.42 L1432.14 1298.35 L1452.6 1334.38 L1473.05 1355.47 L1493.51 1373.71 L1513.97 1389.08 L1534.43 1393.36 L1554.89 1399.44 L1575.35 1403.37 L1595.8 1413.57 L1616.26 1414.81 L1636.72 1414.86 L1657.18 1412.47 L1677.64 1411.9 L1698.09 1407.86 L1718.55 1398.35 L1739.01 1388.8 L1759.47 1376.31 L1779.93 1363.84 L1800.39 1351.63 L1820.84 1336.88 L1841.3 1322.07 L1861.76 1302.24 L1882.22 1286.49 L1902.68 1276.48 L1923.13 1248.19 L1943.59 1255.72 L1964.05 1261.98 L1984.51 1262.07 L2004.97 1263.91 L2025.43 1257.75 L2045.88 1238.13 L2066.34 1206.45 L2086.8 1198.73 L2107.26 1177.35 L2127.72 1189.78 L2148.17 1226.92 L2168.63 1265.35 L2189.09 1293.92 L2209.55 1316.27 L2230.01 1334.19 L2250.47 1344.84 L2270.92 1350.59 L2291.38 1357.88 L2291.38 763.988 L2270.92 891.478 L2250.47 908.685 L2230.01 945.064 L2209.55 894.059 L2189.09 851.709 L2168.63 662.427 L2148.17 414.597 L2127.72 280.309 L2107.26 224.961 L2086.8 216.097 L2066.34 333.341 L2045.88 405.388 L2025.43 466.783 L2004.97 488.441 L1984.51 534.764 L1964.05 654.425 L1943.59 737.699 L1923.13 807.463 L1902.68 860.018 L1882.22 890.575 L1861.76 851.158 L1841.3 861.902 L1820.84 874.403 L1800.39 863.014 L1779.93 888.455 L1759.47 946.983 L1739.01 972.646 L1718.55 1025.38 L1698.09 1064.02 L1677.64 1095.49 L1657.18 1135.17 L1636.72 1174.73 L1616.26 1194.26 L1595.8 1213.77 L1575.35 1224.7 L1554.89 1239.82 L1534.43 1241.58 L1513.97 1171.64 L1493.51 963.614 L1473.05 680.854 L1452.6 468.046 L1432.14 472.171 L1411.68 323.014 L1391.22 251.287 L1370.76 87.9763 L1350.31 91.8759 L1329.85 248.042 L1309.39 364.513 L1288.93 509.645 L1268.47 596.468 L1248.02 658.784 L1227.56 694.763 L1207.1 746.914 L1186.64 781.808 L1166.18 862.693 L1145.72 937.088 L1125.27 1003.93 L1104.81 1035.68 L1084.35 1082.5 L1063.89 1101.29 L1043.43 1123.56 L1022.98 1152.36 L1002.52 1170.54 L982.059 1195.04 L961.601 1210.22 L941.143 1218.78 L920.685 1222.73 L900.226 1226.84 L879.768 1222.58 L859.31 1206.89 L838.852 1187.8 L818.394 1159.1 L797.936 1129.94 L777.477 1081.21 L757.019 1013.99 L736.561 863.347 L716.103 738.052 L695.645 593.484 L675.187 485.278 L654.728 400.332 L634.27 283.866 L613.812 381.801 L593.354 440.771 L572.896 576.536 L552.438 705.232 L531.979 808.361 L511.521 858.667 L491.063 938.518 L470.605 1004.41 L450.147 1044.77 L429.689 1093.83 L409.23 1131.45 L388.772 1139.77 L368.314 1182.63 L347.856 1202.32 L327.398 1225.8 L306.94 1258.61 L286.481 1280.74 L266.023 1302.84 L245.565 1319.77  Z" fill="#009af9" fill-rule="evenodd" fill-opacity="0.5"/>
<polyline clip-path="url(#clip301)" style="stroke:#009af9; stroke-linecap:round; stroke-linejoin:round; stroke-width:12; stroke-opacity:1; fill:none" points="245.565,1319.77 266.023,1312.41 286.481,1303.04 306.94,1287.08 327.398,1271.27 347.856,1249.79 368.314,1226.65 388.772,1196.09 409.23,1166.58 429.689,1130.55 450.147,1083.66 470.605,1022.83 491.063,980.389 511.521,909.263 531.979,851.276 552.438,769.663 572.896,709.041 593.354,632.398 613.812,591.703 634.27,555.733 654.728,523.165 675.187,643.694 695.645,791.108 716.103,932.086 736.561,1075.15 757.019,1178.51 777.477,1243.4 797.936,1294.09 818.394,1311.23 838.852,1320.86 859.31,1327.48 879.768,1332.4 900.226,1330.99 920.685,1328.24 941.143,1320.63 961.601,1304.9 982.059,1292.71 1002.52,1281.35 1022.98,1259.45 1043.43,1230.15 1063.89,1216.25 1084.35,1178.12 1104.81,1146.51 1125.27,1100.21 1145.72,1058.69 1166.18,1014.58 1186.64,960.907 1207.1,900.224 1227.56,818.23 1248.02,766.709 1268.47,674.787 1288.93,576.374 1309.39,525.448 1329.85,514.297 1350.31,542.652 1370.76,618.943 1391.22,801.959 1411.68,959.242 1432.14,1094.19 1452.6,1185.77 1473.05,1239.52 1493.51,1291.1 1513.97,1321.2 1534.43,1334.91 1554.89,1347.09 1575.35,1346.68 1595.8,1344.78 1616.26,1340.8 1636.72,1336.42 1657.18,1326.78 1677.64,1316.45 1698.09,1302.8 1718.55,1283.87 1739.01,1264.93 1759.47,1235.8 1779.93,1206.08 1800.39,1170.44 1820.84,1135.47 1841.3,1096.89 1861.76,1048.87 1882.22,991.216 1902.68,962.505 1923.13,913.708 1943.59,842.868 1964.05,808.889 1984.51,730.574 2004.97,642.22 2025.43,602.033 2045.88,648.657 2066.34,670.747 2086.8,829.429 2107.26,984.172 2127.72,1091.89 2148.17,1140.77 2168.63,1206.1 2189.09,1214.99 2209.55,1245.87 2230.01,1280.98 2250.47,1309.96 2270.92,1322.15 2291.38,1328.46 "/>
<path clip-path="url(#clip301)" d="M245.565 1319.77 L266.023 1355.43 L286.481 1372.83 L306.94 1385.52 L327.398 1397.91 L347.856 1405.57 L368.314 1410.39 L388.772 1415.49 L409.23 1419.71 L429.689 1422.5 L450.147 1425.74 L470.605 1427.6 L491.063 1426.9 L511.521 1425.14 L531.979 1423.77 L552.438 1418.93 L572.896 1408.67 L593.354 1390.76 L613.812 1369.49 L634.27 1330.85 L654.728 1281.1 L675.187 1185.83 L695.645 1098.41 L716.103 1045.6 L736.561 1001.41 L757.019 1031.71 L777.477 1076.17 L797.936 1116.06 L818.394 1161.32 L838.852 1223.26 L859.31 1269.33 L879.768 1313.17 L900.226 1338.8 L920.685 1361.93 L941.143 1378.73 L961.601 1394.41 L982.059 1402.98 L1002.52 1414.18 L1022.98 1421.74 L1043.43 1426.93 L1063.89 1432.13 L1084.35 1435.38 L1104.81 1437.83 L1125.27 1439.73 L1145.72 1441.33 L1166.18 1442.28 L1186.64 1442.51 L1207.1 1442.07 L1227.56 1442.27 L1248.02 1441.65 L1268.47 1440.26 L1288.93 1436.32 L1309.39 1428.96 L1329.85 1414.84 L1350.31 1379.02 L1370.76 1337.71 L1391.22 1250.62 L1411.68 1224.4 L1432.14 1189.99 L1452.6 1116.56 L1473.05 1149.04 L1493.51 1212.02 L1513.97 1250.18 L1534.43 1292.86 L1554.89 1330.35 L1575.35 1349.77 L1595.8 1362.53 L1616.26 1373.64 L1636.72 1388.52 L1657.18 1401.5 L1677.64 1410.27 L1698.09 1417.08 L1718.55 1422.38 L1739.01 1425.78 L1759.47 1428.48 L1779.93 1432.32 L1800.39 1436.25 L1820.84 1438.55 L1841.3 1440.12 L1861.76 1440.74 L1882.22 1441.54 L1902.68 1443.52 L1923.13 1444.45 L1943.59 1444.84 L1964.05 1445.23 L1984.51 1445.72 L2004.97 1445.21 L2025.43 1444.38 L2045.88 1441.96 L2066.34 1438.43 L2086.8 1429.48 L2107.26 1411.85 L2127.72 1373.42 L2148.17 1372.05 L2168.63 1383.52 L2189.09 1392.86 L2209.55 1391.58 L2230.01 1396.57 L2250.47 1398.98 L2270.92 1403.51 L2291.38 1401.41 L2291.38 1015.93 L2270.92 923.717 L2250.47 826.359 L2230.01 730.628 L2209.55 655.357 L2189.09 692.115 L2168.63 703.441 L2148.17 750.627 L2127.72 799.875 L2107.26 811.566 L2086.8 887.507 L2066.34 955.057 L2045.88 1058.2 L2025.43 1147.91 L2004.97 1173.01 L1984.51 1181.06 L1964.05 1165.11 L1943.59 1185.33 L1923.13 1169.7 L1902.68 1174.41 L1882.22 1176.19 L1861.76 1202.16 L1841.3 1245.37 L1820.84 1267.1 L1800.39 1307.56 L1779.93 1334.17 L1759.47 1355.21 L1739.01 1358.51 L1718.55 1360.21 L1698.09 1332.77 L1677.64 1316.06 L1657.18 1275.78 L1636.72 1235.15 L1616.26 1174.28 L1595.8 1090.15 L1575.35 957.041 L1554.89 819.788 L1534.43 656.555 L1513.97 563.619 L1493.51 529.727 L1473.05 667.695 L1452.6 548.986 L1432.14 460.511 L1411.68 527.09 L1391.22 701.692 L1370.76 754.317 L1350.31 850.06 L1329.85 1006.82 L1309.39 1091.4 L1288.93 1170.54 L1268.47 1240.55 L1248.02 1288.4 L1227.56 1316.36 L1207.1 1336.2 L1186.64 1353.04 L1166.18 1363.35 L1145.72 1360.03 L1125.27 1357.87 L1104.81 1356.18 L1084.35 1353.68 L1063.89 1343.57 L1043.43 1343.1 L1022.98 1347.05 L1002.52 1343.57 L982.059 1339.82 L961.601 1320.27 L941.143 1305.02 L920.685 1271.47 L900.226 1237.13 L879.768 1180.02 L859.31 1116.68 L838.852 1048.61 L818.394 931.724 L797.936 803.098 L777.477 748.219 L757.019 714.106 L736.561 676.53 L716.103 682.618 L695.645 706.335 L675.187 826.746 L654.728 993.803 L634.27 1165.34 L613.812 1273.33 L593.354 1332.1 L572.896 1362.92 L552.438 1383.89 L531.979 1391.6 L511.521 1399.28 L491.063 1404.74 L470.605 1406.68 L450.147 1408.39 L429.689 1406.31 L409.23 1406.43 L388.772 1403.08 L368.314 1399.23 L347.856 1393.09 L327.398 1381.5 L306.94 1367.87 L286.481 1357.12 L266.023 1339.06 L245.565 1319.77  Z" fill="#e26f46" fill-rule="evenodd" fill-opacity="0.5"/>
<polyline clip-path="url(#clip301)" style="stroke:#e26f46; stroke-linecap:round; stroke-linejoin:round; stroke-width:12; stroke-opacity:1; fill:none" points="245.565,1319.77 266.023,1342.1 286.481,1361.07 306.94,1377.61 327.398,1390.25 347.856,1396.74 368.314,1404.57 388.772,1409.01 409.23,1413.36 429.689,1416.89 450.147,1419.45 470.605,1418.65 491.063,1417.25 511.521,1413.46 531.979,1410.77 552.438,1403.53 572.896,1388.76 593.354,1364.24 613.812,1325.54 634.27,1275.08 654.728,1178.25 675.187,1024.42 695.645,895.143 716.103,820.506 736.561,856.894 757.019,887.451 777.477,944.163 797.936,1017.28 818.394,1087.62 838.852,1139.77 859.31,1190.86 879.768,1238.39 900.226,1279.12 920.685,1311.7 941.143,1340.69 961.601,1366.87 982.059,1386.69 1002.52,1394.89 1022.98,1405.36 1043.43,1415.22 1063.89,1419.74 1084.35,1422.69 1104.81,1424.38 1125.27,1426.24 1145.72,1427.2 1166.18,1427.23 1186.64,1425.63 1207.1,1421.35 1227.56,1416.21 1248.02,1408.88 1268.47,1392.9 1288.93,1367.73 1309.39,1317.09 1329.85,1245.87 1350.31,1168.94 1370.76,1052.17 1391.22,893.701 1411.68,852.218 1432.14,798.107 1452.6,859.463 1473.05,916.185 1493.51,1005.03 1513.97,1091.89 1534.43,1153.81 1554.89,1207.76 1575.35,1250.21 1595.8,1284.08 1616.26,1320.64 1636.72,1349.11 1657.18,1367.11 1677.64,1369.14 1698.09,1385.67 1718.55,1396.36 1739.01,1403.28 1759.47,1411.24 1779.93,1414.9 1800.39,1421.67 1820.84,1426.33 1841.3,1427.19 1861.76,1427.18 1882.22,1425.54 1902.68,1423.21 1923.13,1418.26 1943.59,1411.92 1964.05,1400.44 1984.51,1381.16 2004.97,1346.61 2025.43,1295.3 2045.88,1254.88 2066.34,1193.29 2086.8,1138.88 2107.26,1068.34 2127.72,1039.65 2148.17,965.607 2168.63,962.431 2189.09,1034.24 2209.55,1100.29 2230.01,1157.43 2250.47,1204.22 2270.92,1254.96 2291.38,1293.32 "/>
</svg>
