<?xml version="1.0" encoding="utf-8"?>
<svg xmlns="http://www.w3.org/2000/svg" xmlns:xlink="http://www.w3.org/1999/xlink" width="600" height="400" viewBox="0 0 2400 1600">
<defs>
  <clipPath id="clip220">
    <rect x="0" y="0" width="2400" height="1600"/>
  </clipPath>
</defs>
<path clip-path="url(#clip220)" d="M0 1600 L2400 1600 L2400 0 L0 0  Z" fill="#ffffff" fill-rule="evenodd" fill-opacity="1"/>
<defs>
  <clipPath id="clip221">
    <rect x="480" y="0" width="1681" height="1600"/>
  </clipPath>
</defs>
<path clip-path="url(#clip220)" d="M155.765 1486.45 L2352.76 1486.45 L2352.76 47.2441 L155.765 47.2441  Z" fill="#ffffff" fill-rule="evenodd" fill-opacity="1"/>
<defs>
  <clipPath id="clip222">
    <rect x="155" y="47" width="2198" height="1440"/>
  </clipPath>
</defs>
<polyline clip-path="url(#clip222)" style="stroke:#000000; stroke-linecap:round; stroke-linejoin:round; stroke-width:2; stroke-opacity:0.1; fill:none" points="217.944,1486.45 217.944,47.2441 "/>
<polyline clip-path="url(#clip222)" style="stroke:#000000; stroke-linecap:round; stroke-linejoin:round; stroke-width:2; stroke-opacity:0.1; fill:none" points="736.102,1486.45 736.102,47.2441 "/>
<polyline clip-path="url(#clip222)" style="stroke:#000000; stroke-linecap:round; stroke-linejoin:round; stroke-width:2; stroke-opacity:0.1; fill:none" points="1254.26,1486.45 1254.26,47.2441 "/>
<polyline clip-path="url(#clip222)" style="stroke:#000000; stroke-linecap:round; stroke-linejoin:round; stroke-width:2; stroke-opacity:0.1; fill:none" points="1772.42,1486.45 1772.42,47.2441 "/>
<polyline clip-path="url(#clip222)" style="stroke:#000000; stroke-linecap:round; stroke-linejoin:round; stroke-width:2; stroke-opacity:0.1; fill:none" points="2290.58,1486.45 2290.58,47.2441 "/>
<polyline clip-path="url(#clip222)" style="stroke:#000000; stroke-linecap:round; stroke-linejoin:round; stroke-width:2; stroke-opacity:0.1; fill:none" points="155.765,1327.95 2352.76,1327.95 "/>
<polyline clip-path="url(#clip222)" style="stroke:#000000; stroke-linecap:round; stroke-linejoin:round; stroke-width:2; stroke-opacity:0.1; fill:none" points="155.765,1113.24 2352.76,1113.24 "/>
<polyline clip-path="url(#clip222)" style="stroke:#000000; stroke-linecap:round; stroke-linejoin:round; stroke-width:2; stroke-opacity:0.1; fill:none" points="155.765,898.521 2352.76,898.521 "/>
<polyline clip-path="url(#clip222)" style="stroke:#000000; stroke-linecap:round; stroke-linejoin:round; stroke-width:2; stroke-opacity:0.1; fill:none" points="155.765,683.806 2352.76,683.806 "/>
<polyline clip-path="url(#clip222)" style="stroke:#000000; stroke-linecap:round; stroke-linejoin:round; stroke-width:2; stroke-opacity:0.1; fill:none" points="155.765,469.091 2352.76,469.091 "/>
<polyline clip-path="url(#clip222)" style="stroke:#000000; stroke-linecap:round; stroke-linejoin:round; stroke-width:2; stroke-opacity:0.1; fill:none" points="155.765,254.376 2352.76,254.376 "/>
<polyline clip-path="url(#clip220)" style="stroke:#000000; stroke-linecap:round; stroke-linejoin:round; stroke-width:4; stroke-opacity:1; fill:none" points="155.765,1486.45 2352.76,1486.45 "/>
<polyline clip-path="url(#clip220)" style="stroke:#000000; stroke-linecap:round; stroke-linejoin:round; stroke-width:4; stroke-opacity:1; fill:none" points="217.944,1486.45 217.944,1467.55 "/>
<polyline clip-path="url(#clip220)" style="stroke:#000000; stroke-linecap:round; stroke-linejoin:round; stroke-width:4; stroke-opacity:1; fill:none" points="736.102,1486.45 736.102,1467.55 "/>
<polyline clip-path="url(#clip220)" style="stroke:#000000; stroke-linecap:round; stroke-linejoin:round; stroke-width:4; stroke-opacity:1; fill:none" points="1254.26,1486.45 1254.26,1467.55 "/>
<polyline clip-path="url(#clip220)" style="stroke:#000000; stroke-linecap:round; stroke-linejoin:round; stroke-width:4; stroke-opacity:1; fill:none" points="1772.42,1486.45 1772.42,1467.55 "/>
<polyline clip-path="url(#clip220)" style="stroke:#000000; stroke-linecap:round; stroke-linejoin:round; stroke-width:4; stroke-opacity:1; fill:none" points="2290.58,1486.45 2290.58,1467.55 "/>
<path clip-path="url(#clip220)" d="M180.247 1517.37 Q176.636 1517.37 174.808 1520.93 Q173.002 1524.47 173.002 1531.6 Q173.002 1538.71 174.808 1542.27 Q176.636 1545.82 180.247 1545.82 Q183.882 1545.82 185.687 1542.27 Q187.516 1538.71 187.516 1531.6 Q187.516 1524.47 185.687 1520.93 Q183.882 1517.37 180.247 1517.37 M180.247 1513.66 Q186.057 1513.66 189.113 1518.27 Q192.192 1522.85 192.192 1531.6 Q192.192 1540.33 189.113 1544.94 Q186.057 1549.52 180.247 1549.52 Q174.437 1549.52 171.358 1544.94 Q168.303 1540.33 168.303 1531.6 Q168.303 1522.85 171.358 1518.27 Q174.437 1513.66 180.247 1513.66 Z" fill="#000000" fill-rule="nonzero" fill-opacity="1" /><path clip-path="url(#clip220)" d="M200.409 1542.97 L205.294 1542.97 L205.294 1548.85 L200.409 1548.85 L200.409 1542.97 Z" fill="#000000" fill-rule="nonzero" fill-opacity="1" /><path clip-path="url(#clip220)" d="M225.479 1517.37 Q221.867 1517.37 220.039 1520.93 Q218.233 1524.47 218.233 1531.6 Q218.233 1538.71 220.039 1542.27 Q221.867 1545.82 225.479 1545.82 Q229.113 1545.82 230.918 1542.27 Q232.747 1538.71 232.747 1531.6 Q232.747 1524.47 230.918 1520.93 Q229.113 1517.37 225.479 1517.37 M225.479 1513.66 Q231.289 1513.66 234.344 1518.27 Q237.423 1522.85 237.423 1531.6 Q237.423 1540.33 234.344 1544.94 Q231.289 1549.52 225.479 1549.52 Q219.668 1549.52 216.59 1544.94 Q213.534 1540.33 213.534 1531.6 Q213.534 1522.85 216.59 1518.27 Q219.668 1513.66 225.479 1513.66 Z" fill="#000000" fill-rule="nonzero" fill-opacity="1" /><path clip-path="url(#clip220)" d="M255.64 1517.37 Q252.029 1517.37 250.201 1520.93 Q248.395 1524.47 248.395 1531.6 Q248.395 1538.71 250.201 1542.27 Q252.029 1545.82 255.64 1545.82 Q259.275 1545.82 261.08 1542.27 Q262.909 1538.71 262.909 1531.6 Q262.909 1524.47 261.08 1520.93 Q259.275 1517.37 255.64 1517.37 M255.64 1513.66 Q261.451 1513.66 264.506 1518.27 Q267.585 1522.85 267.585 1531.6 Q267.585 1540.33 264.506 1544.94 Q261.451 1549.52 255.64 1549.52 Q249.83 1549.52 246.752 1544.94 Q243.696 1540.33 243.696 1531.6 Q243.696 1522.85 246.752 1518.27 Q249.83 1513.66 255.64 1513.66 Z" fill="#000000" fill-rule="nonzero" fill-opacity="1" /><path clip-path="url(#clip220)" d="M698.903 1517.37 Q695.292 1517.37 693.463 1520.93 Q691.658 1524.47 691.658 1531.6 Q691.658 1538.71 693.463 1542.27 Q695.292 1545.82 698.903 1545.82 Q702.538 1545.82 704.343 1542.27 Q706.172 1538.71 706.172 1531.6 Q706.172 1524.47 704.343 1520.93 Q702.538 1517.37 698.903 1517.37 M698.903 1513.66 Q704.713 1513.66 707.769 1518.27 Q710.848 1522.85 710.848 1531.6 Q710.848 1540.33 707.769 1544.94 Q704.713 1549.52 698.903 1549.52 Q693.093 1549.52 690.014 1544.94 Q686.959 1540.33 686.959 1531.6 Q686.959 1522.85 690.014 1518.27 Q693.093 1513.66 698.903 1513.66 Z" fill="#000000" fill-rule="nonzero" fill-opacity="1" /><path clip-path="url(#clip220)" d="M719.065 1542.97 L723.949 1542.97 L723.949 1548.85 L719.065 1548.85 L719.065 1542.97 Z" fill="#000000" fill-rule="nonzero" fill-opacity="1" /><path clip-path="url(#clip220)" d="M738.162 1544.91 L754.482 1544.91 L754.482 1548.85 L732.537 1548.85 L732.537 1544.91 Q735.199 1542.16 739.783 1537.53 Q744.389 1532.88 745.57 1531.53 Q747.815 1529.01 748.695 1527.27 Q749.597 1525.51 749.597 1523.82 Q749.597 1521.07 747.653 1519.33 Q745.732 1517.6 742.63 1517.6 Q740.431 1517.6 737.977 1518.36 Q735.547 1519.13 732.769 1520.68 L732.769 1515.95 Q735.593 1514.82 738.047 1514.24 Q740.5 1513.66 742.537 1513.66 Q747.908 1513.66 751.102 1516.35 Q754.296 1519.03 754.296 1523.52 Q754.296 1525.65 753.486 1527.57 Q752.699 1529.47 750.593 1532.07 Q750.014 1532.74 746.912 1535.95 Q743.81 1539.15 738.162 1544.91 Z" fill="#000000" fill-rule="nonzero" fill-opacity="1" /><path clip-path="url(#clip220)" d="M764.343 1514.29 L782.699 1514.29 L782.699 1518.22 L768.625 1518.22 L768.625 1526.7 Q769.644 1526.35 770.662 1526.19 Q771.681 1526 772.699 1526 Q778.486 1526 781.866 1529.17 Q785.245 1532.34 785.245 1537.76 Q785.245 1543.34 781.773 1546.44 Q778.301 1549.52 771.982 1549.52 Q769.806 1549.52 767.537 1549.15 Q765.292 1548.78 762.884 1548.04 L762.884 1543.34 Q764.968 1544.47 767.19 1545.03 Q769.412 1545.58 771.889 1545.58 Q775.894 1545.58 778.232 1543.48 Q780.57 1541.37 780.57 1537.76 Q780.57 1534.15 778.232 1532.04 Q775.894 1529.94 771.889 1529.94 Q770.014 1529.94 768.139 1530.35 Q766.287 1530.77 764.343 1531.65 L764.343 1514.29 Z" fill="#000000" fill-rule="nonzero" fill-opacity="1" /><path clip-path="url(#clip220)" d="M1216.56 1517.37 Q1212.95 1517.37 1211.12 1520.93 Q1209.32 1524.47 1209.32 1531.6 Q1209.32 1538.71 1211.12 1542.27 Q1212.95 1545.82 1216.56 1545.82 Q1220.2 1545.82 1222 1542.27 Q1223.83 1538.71 1223.83 1531.6 Q1223.83 1524.47 1222 1520.93 Q1220.2 1517.37 1216.56 1517.37 M1216.56 1513.66 Q1222.37 1513.66 1225.43 1518.27 Q1228.51 1522.85 1228.51 1531.6 Q1228.51 1540.33 1225.43 1544.94 Q1222.37 1549.52 1216.56 1549.52 Q1210.75 1549.52 1207.68 1544.94 Q1204.62 1540.33 1204.62 1531.6 Q1204.62 1522.85 1207.68 1518.27 Q1210.75 1513.66 1216.56 1513.66 Z" fill="#000000" fill-rule="nonzero" fill-opacity="1" /><path clip-path="url(#clip220)" d="M1236.73 1542.97 L1241.61 1542.97 L1241.61 1548.85 L1236.73 1548.85 L1236.73 1542.97 Z" fill="#000000" fill-rule="nonzero" fill-opacity="1" /><path clip-path="url(#clip220)" d="M1251.84 1514.29 L1270.2 1514.29 L1270.2 1518.22 L1256.12 1518.22 L1256.12 1526.7 Q1257.14 1526.35 1258.16 1526.19 Q1259.18 1526 1260.2 1526 Q1265.98 1526 1269.36 1529.17 Q1272.74 1532.34 1272.74 1537.76 Q1272.74 1543.34 1269.27 1546.44 Q1265.8 1549.52 1259.48 1549.52 Q1257.3 1549.52 1255.04 1549.15 Q1252.79 1548.78 1250.38 1548.04 L1250.38 1543.34 Q1252.47 1544.47 1254.69 1545.03 Q1256.91 1545.58 1259.39 1545.58 Q1263.39 1545.58 1265.73 1543.48 Q1268.07 1541.37 1268.07 1537.76 Q1268.07 1534.15 1265.73 1532.04 Q1263.39 1529.94 1259.39 1529.94 Q1257.51 1529.94 1255.64 1530.35 Q1253.79 1530.77 1251.84 1531.65 L1251.84 1514.29 Z" fill="#000000" fill-rule="nonzero" fill-opacity="1" /><path clip-path="url(#clip220)" d="M1291.96 1517.37 Q1288.35 1517.37 1286.52 1520.93 Q1284.71 1524.47 1284.71 1531.6 Q1284.71 1538.71 1286.52 1542.27 Q1288.35 1545.82 1291.96 1545.82 Q1295.59 1545.82 1297.4 1542.27 Q1299.23 1538.71 1299.23 1531.6 Q1299.23 1524.47 1297.4 1520.93 Q1295.59 1517.37 1291.96 1517.37 M1291.96 1513.66 Q1297.77 1513.66 1300.82 1518.27 Q1303.9 1522.85 1303.9 1531.6 Q1303.9 1540.33 1300.82 1544.94 Q1297.77 1549.52 1291.96 1549.52 Q1286.15 1549.52 1283.07 1544.94 Q1280.01 1540.33 1280.01 1531.6 Q1280.01 1522.85 1283.07 1518.27 Q1286.15 1513.66 1291.96 1513.66 Z" fill="#000000" fill-rule="nonzero" fill-opacity="1" /><path clip-path="url(#clip220)" d="M1735.22 1517.37 Q1731.61 1517.37 1729.78 1520.93 Q1727.97 1524.47 1727.97 1531.6 Q1727.97 1538.71 1729.78 1542.27 Q1731.61 1545.82 1735.22 1545.82 Q1738.85 1545.82 1740.66 1542.27 Q1742.49 1538.71 1742.49 1531.6 Q1742.49 1524.47 1740.66 1520.93 Q1738.85 1517.37 1735.22 1517.37 M1735.22 1513.66 Q1741.03 1513.66 1744.09 1518.27 Q1747.16 1522.85 1747.16 1531.6 Q1747.16 1540.33 1744.09 1544.94 Q1741.03 1549.52 1735.22 1549.52 Q1729.41 1549.52 1726.33 1544.94 Q1723.28 1540.33 1723.28 1531.6 Q1723.28 1522.85 1726.33 1518.27 Q1729.41 1513.66 1735.22 1513.66 Z" fill="#000000" fill-rule="nonzero" fill-opacity="1" /><path clip-path="url(#clip220)" d="M1755.38 1542.97 L1760.27 1542.97 L1760.27 1548.85 L1755.38 1548.85 L1755.38 1542.97 Z" fill="#000000" fill-rule="nonzero" fill-opacity="1" /><path clip-path="url(#clip220)" d="M1769.27 1514.29 L1791.49 1514.29 L1791.49 1516.28 L1778.95 1548.85 L1774.06 1548.85 L1785.87 1518.22 L1769.27 1518.22 L1769.27 1514.29 Z" fill="#000000" fill-rule="nonzero" fill-opacity="1" /><path clip-path="url(#clip220)" d="M1800.66 1514.29 L1819.02 1514.29 L1819.02 1518.22 L1804.94 1518.22 L1804.94 1526.7 Q1805.96 1526.35 1806.98 1526.19 Q1808 1526 1809.02 1526 Q1814.8 1526 1818.18 1529.17 Q1821.56 1532.34 1821.56 1537.76 Q1821.56 1543.34 1818.09 1546.44 Q1814.62 1549.52 1808.3 1549.52 Q1806.12 1549.52 1803.85 1549.15 Q1801.61 1548.78 1799.2 1548.04 L1799.2 1543.34 Q1801.28 1544.47 1803.51 1545.03 Q1805.73 1545.58 1808.21 1545.58 Q1812.21 1545.58 1814.55 1543.48 Q1816.89 1541.37 1816.89 1537.76 Q1816.89 1534.15 1814.55 1532.04 Q1812.21 1529.94 1808.21 1529.94 Q1806.33 1529.94 1804.46 1530.35 Q1802.6 1530.77 1800.66 1531.65 L1800.66 1514.29 Z" fill="#000000" fill-rule="nonzero" fill-opacity="1" /><path clip-path="url(#clip220)" d="M2242.65 1544.91 L2250.29 1544.91 L2250.29 1518.55 L2241.98 1520.21 L2241.98 1515.95 L2250.24 1514.29 L2254.92 1514.29 L2254.92 1544.91 L2262.56 1544.91 L2262.56 1548.85 L2242.65 1548.85 L2242.65 1544.91 Z" fill="#000000" fill-rule="nonzero" fill-opacity="1" /><path clip-path="url(#clip220)" d="M2272 1542.97 L2276.88 1542.97 L2276.88 1548.85 L2272 1548.85 L2272 1542.97 Z" fill="#000000" fill-rule="nonzero" fill-opacity="1" /><path clip-path="url(#clip220)" d="M2297.07 1517.37 Q2293.46 1517.37 2291.63 1520.93 Q2289.82 1524.47 2289.82 1531.6 Q2289.82 1538.71 2291.63 1542.27 Q2293.46 1545.82 2297.07 1545.82 Q2300.7 1545.82 2302.51 1542.27 Q2304.34 1538.71 2304.34 1531.6 Q2304.34 1524.47 2302.51 1520.93 Q2300.7 1517.37 2297.07 1517.37 M2297.07 1513.66 Q2302.88 1513.66 2305.94 1518.27 Q2309.01 1522.85 2309.01 1531.6 Q2309.01 1540.33 2305.94 1544.94 Q2302.88 1549.52 2297.07 1549.52 Q2291.26 1549.52 2288.18 1544.94 Q2285.13 1540.33 2285.13 1531.6 Q2285.13 1522.85 2288.18 1518.27 Q2291.26 1513.66 2297.07 1513.66 Z" fill="#000000" fill-rule="nonzero" fill-opacity="1" /><path clip-path="url(#clip220)" d="M2327.23 1517.37 Q2323.62 1517.37 2321.79 1520.93 Q2319.99 1524.47 2319.99 1531.6 Q2319.99 1538.71 2321.79 1542.27 Q2323.62 1545.82 2327.23 1545.82 Q2330.87 1545.82 2332.67 1542.27 Q2334.5 1538.71 2334.5 1531.6 Q2334.5 1524.47 2332.67 1520.93 Q2330.87 1517.37 2327.23 1517.37 M2327.23 1513.66 Q2333.04 1513.66 2336.1 1518.27 Q2339.18 1522.85 2339.18 1531.6 Q2339.18 1540.33 2336.1 1544.94 Q2333.04 1549.52 2327.23 1549.52 Q2321.42 1549.52 2318.34 1544.94 Q2315.29 1540.33 2315.29 1531.6 Q2315.29 1522.85 2318.34 1518.27 Q2321.42 1513.66 2327.23 1513.66 Z" fill="#000000" fill-rule="nonzero" fill-opacity="1" /><polyline clip-path="url(#clip220)" style="stroke:#000000; stroke-linecap:round; stroke-linejoin:round; stroke-width:4; stroke-opacity:1; fill:none" points="155.765,1486.45 155.765,47.2441 "/>
<polyline clip-path="url(#clip220)" style="stroke:#000000; stroke-linecap:round; stroke-linejoin:round; stroke-width:4; stroke-opacity:1; fill:none" points="155.765,1327.95 174.663,1327.95 "/>
<polyline clip-path="url(#clip220)" style="stroke:#000000; stroke-linecap:round; stroke-linejoin:round; stroke-width:4; stroke-opacity:1; fill:none" points="155.765,1113.24 174.663,1113.24 "/>
<polyline clip-path="url(#clip220)" style="stroke:#000000; stroke-linecap:round; stroke-linejoin:round; stroke-width:4; stroke-opacity:1; fill:none" points="155.765,898.521 174.663,898.521 "/>
<polyline clip-path="url(#clip220)" style="stroke:#000000; stroke-linecap:round; stroke-linejoin:round; stroke-width:4; stroke-opacity:1; fill:none" points="155.765,683.806 174.663,683.806 "/>
<polyline clip-path="url(#clip220)" style="stroke:#000000; stroke-linecap:round; stroke-linejoin:round; stroke-width:4; stroke-opacity:1; fill:none" points="155.765,469.091 174.663,469.091 "/>
<polyline clip-path="url(#clip220)" style="stroke:#000000; stroke-linecap:round; stroke-linejoin:round; stroke-width:4; stroke-opacity:1; fill:none" points="155.765,254.376 174.663,254.376 "/>
<path clip-path="url(#clip220)" d="M63.5847 1313.75 Q59.9736 1313.75 58.1449 1317.32 Q56.3393 1320.86 56.3393 1327.99 Q56.3393 1335.09 58.1449 1338.66 Q59.9736 1342.2 63.5847 1342.2 Q67.2189 1342.2 69.0244 1338.66 Q70.8531 1335.09 70.8531 1327.99 Q70.8531 1320.86 69.0244 1317.32 Q67.2189 1313.75 63.5847 1313.75 M63.5847 1310.05 Q69.3948 1310.05 72.4503 1314.65 Q75.529 1319.24 75.529 1327.99 Q75.529 1336.71 72.4503 1341.32 Q69.3948 1345.9 63.5847 1345.9 Q57.7745 1345.9 54.6958 1341.32 Q51.6403 1336.71 51.6403 1327.99 Q51.6403 1319.24 54.6958 1314.65 Q57.7745 1310.05 63.5847 1310.05 Z" fill="#000000" fill-rule="nonzero" fill-opacity="1" /><path clip-path="url(#clip220)" d="M83.7466 1339.35 L88.6308 1339.35 L88.6308 1345.23 L83.7466 1345.23 L83.7466 1339.35 Z" fill="#000000" fill-rule="nonzero" fill-opacity="1" /><path clip-path="url(#clip220)" d="M98.8622 1310.67 L117.219 1310.67 L117.219 1314.61 L103.145 1314.61 L103.145 1323.08 Q104.163 1322.73 105.182 1322.57 Q106.2 1322.38 107.219 1322.38 Q113.006 1322.38 116.385 1325.56 Q119.765 1328.73 119.765 1334.14 Q119.765 1339.72 116.293 1342.82 Q112.82 1345.9 106.501 1345.9 Q104.325 1345.9 102.057 1345.53 Q99.8113 1345.16 97.4039 1344.42 L97.4039 1339.72 Q99.4872 1340.86 101.709 1341.41 Q103.932 1341.97 106.408 1341.97 Q110.413 1341.97 112.751 1339.86 Q115.089 1337.76 115.089 1334.14 Q115.089 1330.53 112.751 1328.43 Q110.413 1326.32 106.408 1326.32 Q104.534 1326.32 102.659 1326.74 Q100.807 1327.15 98.8622 1328.03 L98.8622 1310.67 Z" fill="#000000" fill-rule="nonzero" fill-opacity="1" /><path clip-path="url(#clip220)" d="M53.3995 1126.58 L61.0384 1126.58 L61.0384 1100.22 L52.7282 1101.88 L52.7282 1097.62 L60.9921 1095.96 L65.668 1095.96 L65.668 1126.58 L73.3068 1126.58 L73.3068 1130.52 L53.3995 1130.52 L53.3995 1126.58 Z" fill="#000000" fill-rule="nonzero" fill-opacity="1" /><path clip-path="url(#clip220)" d="M82.7512 1124.64 L87.6354 1124.64 L87.6354 1130.52 L82.7512 1130.52 L82.7512 1124.64 Z" fill="#000000" fill-rule="nonzero" fill-opacity="1" /><path clip-path="url(#clip220)" d="M107.821 1099.04 Q104.209 1099.04 102.381 1102.6 Q100.575 1106.14 100.575 1113.27 Q100.575 1120.38 102.381 1123.94 Q104.209 1127.48 107.821 1127.48 Q111.455 1127.48 113.26 1123.94 Q115.089 1120.38 115.089 1113.27 Q115.089 1106.14 113.26 1102.6 Q111.455 1099.04 107.821 1099.04 M107.821 1095.33 Q113.631 1095.33 116.686 1099.94 Q119.765 1104.52 119.765 1113.27 Q119.765 1122 116.686 1126.6 Q113.631 1131.19 107.821 1131.19 Q102.01 1131.19 98.9317 1126.6 Q95.8761 1122 95.8761 1113.27 Q95.8761 1104.52 98.9317 1099.94 Q102.01 1095.33 107.821 1095.33 Z" fill="#000000" fill-rule="nonzero" fill-opacity="1" /><path clip-path="url(#clip220)" d="M54.3949 911.866 L62.0337 911.866 L62.0337 885.501 L53.7236 887.167 L53.7236 882.908 L61.9874 881.241 L66.6633 881.241 L66.6633 911.866 L74.3022 911.866 L74.3022 915.801 L54.3949 915.801 L54.3949 911.866 Z" fill="#000000" fill-rule="nonzero" fill-opacity="1" /><path clip-path="url(#clip220)" d="M83.7466 909.922 L88.6308 909.922 L88.6308 915.801 L83.7466 915.801 L83.7466 909.922 Z" fill="#000000" fill-rule="nonzero" fill-opacity="1" /><path clip-path="url(#clip220)" d="M98.8622 881.241 L117.219 881.241 L117.219 885.177 L103.145 885.177 L103.145 893.649 Q104.163 893.302 105.182 893.14 Q106.2 892.954 107.219 892.954 Q113.006 892.954 116.385 896.126 Q119.765 899.297 119.765 904.714 Q119.765 910.292 116.293 913.394 Q112.82 916.473 106.501 916.473 Q104.325 916.473 102.057 916.102 Q99.8113 915.732 97.4039 914.991 L97.4039 910.292 Q99.4872 911.426 101.709 911.982 Q103.932 912.538 106.408 912.538 Q110.413 912.538 112.751 910.431 Q115.089 908.325 115.089 904.714 Q115.089 901.102 112.751 898.996 Q110.413 896.889 106.408 896.889 Q104.534 896.889 102.659 897.306 Q100.807 897.723 98.8622 898.602 L98.8622 881.241 Z" fill="#000000" fill-rule="nonzero" fill-opacity="1" /><path clip-path="url(#clip220)" d="M56.6171 697.151 L72.9365 697.151 L72.9365 701.086 L50.9921 701.086 L50.9921 697.151 Q53.6541 694.396 58.2375 689.767 Q62.8439 685.114 64.0245 683.772 Q66.2698 681.248 67.1494 679.512 Q68.0522 677.753 68.0522 676.063 Q68.0522 673.309 66.1078 671.572 Q64.1865 669.836 61.0847 669.836 Q58.8856 669.836 56.4319 670.6 Q54.0014 671.364 51.2236 672.915 L51.2236 668.193 Q54.0477 667.059 56.5014 666.48 Q58.955 665.901 60.9921 665.901 Q66.3624 665.901 69.5568 668.586 Q72.7513 671.272 72.7513 675.762 Q72.7513 677.892 71.9411 679.813 Q71.1541 681.711 69.0476 684.304 Q68.4689 684.975 65.367 688.193 Q62.2652 691.387 56.6171 697.151 Z" fill="#000000" fill-rule="nonzero" fill-opacity="1" /><path clip-path="url(#clip220)" d="M82.7512 695.207 L87.6354 695.207 L87.6354 701.086 L82.7512 701.086 L82.7512 695.207 Z" fill="#000000" fill-rule="nonzero" fill-opacity="1" /><path clip-path="url(#clip220)" d="M107.821 669.605 Q104.209 669.605 102.381 673.17 Q100.575 676.711 100.575 683.841 Q100.575 690.947 102.381 694.512 Q104.209 698.054 107.821 698.054 Q111.455 698.054 113.26 694.512 Q115.089 690.947 115.089 683.841 Q115.089 676.711 113.26 673.17 Q111.455 669.605 107.821 669.605 M107.821 665.901 Q113.631 665.901 116.686 670.508 Q119.765 675.091 119.765 683.841 Q119.765 692.568 116.686 697.174 Q113.631 701.758 107.821 701.758 Q102.01 701.758 98.9317 697.174 Q95.8761 692.568 95.8761 683.841 Q95.8761 675.091 98.9317 670.508 Q102.01 665.901 107.821 665.901 Z" fill="#000000" fill-rule="nonzero" fill-opacity="1" /><path clip-path="url(#clip220)" d="M57.6125 482.436 L73.9318 482.436 L73.9318 486.371 L51.9875 486.371 L51.9875 482.436 Q54.6495 479.681 59.2328 475.052 Q63.8393 470.399 65.0198 469.056 Q67.2652 466.533 68.1448 464.797 Q69.0476 463.038 69.0476 461.348 Q69.0476 458.593 67.1032 456.857 Q65.1819 455.121 62.08 455.121 Q59.881 455.121 57.4273 455.885 Q54.9967 456.649 52.219 458.2 L52.219 453.478 Q55.043 452.343 57.4967 451.765 Q59.9504 451.186 61.9874 451.186 Q67.3578 451.186 70.5522 453.871 Q73.7466 456.556 73.7466 461.047 Q73.7466 463.177 72.9365 465.098 Q72.1494 466.996 70.0429 469.589 Q69.4642 470.26 66.3624 473.478 Q63.2606 476.672 57.6125 482.436 Z" fill="#000000" fill-rule="nonzero" fill-opacity="1" /><path clip-path="url(#clip220)" d="M83.7466 480.491 L88.6308 480.491 L88.6308 486.371 L83.7466 486.371 L83.7466 480.491 Z" fill="#000000" fill-rule="nonzero" fill-opacity="1" /><path clip-path="url(#clip220)" d="M98.8622 451.811 L117.219 451.811 L117.219 455.746 L103.145 455.746 L103.145 464.218 Q104.163 463.871 105.182 463.709 Q106.2 463.524 107.219 463.524 Q113.006 463.524 116.385 466.695 Q119.765 469.866 119.765 475.283 Q119.765 480.862 116.293 483.964 Q112.82 487.042 106.501 487.042 Q104.325 487.042 102.057 486.672 Q99.8113 486.302 97.4039 485.561 L97.4039 480.862 Q99.4872 481.996 101.709 482.552 Q103.932 483.107 106.408 483.107 Q110.413 483.107 112.751 481.001 Q115.089 478.894 115.089 475.283 Q115.089 471.672 112.751 469.566 Q110.413 467.459 106.408 467.459 Q104.534 467.459 102.659 467.876 Q100.807 468.292 98.8622 469.172 L98.8622 451.811 Z" fill="#000000" fill-rule="nonzero" fill-opacity="1" /><path clip-path="url(#clip220)" d="M66.7559 253.022 Q70.1124 253.739 71.9874 256.008 Q73.8855 258.276 73.8855 261.61 Q73.8855 266.725 70.367 269.526 Q66.8485 272.327 60.3671 272.327 Q58.1912 272.327 55.8764 271.887 Q53.5847 271.471 51.131 270.614 L51.131 266.1 Q53.0754 267.235 55.3903 267.813 Q57.7051 268.392 60.2282 268.392 Q64.6263 268.392 66.918 266.656 Q69.2328 264.92 69.2328 261.61 Q69.2328 258.554 67.08 256.841 Q64.9504 255.105 61.131 255.105 L57.1032 255.105 L57.1032 251.262 L61.3161 251.262 Q64.7652 251.262 66.5939 249.897 Q68.4226 248.508 68.4226 245.915 Q68.4226 243.253 66.5245 241.841 Q64.6495 240.406 61.131 240.406 Q59.2097 240.406 57.0106 240.823 Q54.8115 241.239 52.1727 242.119 L52.1727 237.952 Q54.8347 237.212 57.1495 236.841 Q59.4875 236.471 61.5476 236.471 Q66.8717 236.471 69.9735 238.901 Q73.0753 241.309 73.0753 245.429 Q73.0753 248.299 71.4318 250.29 Q69.7883 252.258 66.7559 253.022 Z" fill="#000000" fill-rule="nonzero" fill-opacity="1" /><path clip-path="url(#clip220)" d="M82.7512 265.776 L87.6354 265.776 L87.6354 271.656 L82.7512 271.656 L82.7512 265.776 Z" fill="#000000" fill-rule="nonzero" fill-opacity="1" /><path clip-path="url(#clip220)" d="M107.821 240.175 Q104.209 240.175 102.381 243.739 Q100.575 247.281 100.575 254.411 Q100.575 261.517 102.381 265.082 Q104.209 268.623 107.821 268.623 Q111.455 268.623 113.26 265.082 Q115.089 261.517 115.089 254.411 Q115.089 247.281 113.26 243.739 Q111.455 240.175 107.821 240.175 M107.821 236.471 Q113.631 236.471 116.686 241.077 Q119.765 245.661 119.765 254.411 Q119.765 263.137 116.686 267.744 Q113.631 272.327 107.821 272.327 Q102.01 272.327 98.9317 267.744 Q95.8761 263.137 95.8761 254.411 Q95.8761 245.661 98.9317 241.077 Q102.01 236.471 107.821 236.471 Z" fill="#000000" fill-rule="nonzero" fill-opacity="1" /><polyline clip-path="url(#clip222)" style="stroke:#009af9; stroke-linecap:round; stroke-linejoin:round; stroke-width:12; stroke-opacity:1; fill:none" points="217.944,1327.95 425.207,1293.2 632.47,1262.7 839.734,1257.31 1047,1232.6 1254.26,1195.08 1461.52,1151.52 1668.79,1218.66 1876.05,1270.24 2083.31,1259.87 2290.58,1212.81 "/>
<polyline clip-path="url(#clip222)" style="stroke:#000000; stroke-linecap:round; stroke-linejoin:round; stroke-width:12; stroke-opacity:1; fill:none" points="217.944,1327.95 217.944,1327.95 "/>
<polyline clip-path="url(#clip222)" style="stroke:#000000; stroke-linecap:round; stroke-linejoin:round; stroke-width:12; stroke-opacity:1; fill:none" points="425.207,1347.22 425.207,1149.13 "/>
<polyline clip-path="url(#clip222)" style="stroke:#000000; stroke-linecap:round; stroke-linejoin:round; stroke-width:12; stroke-opacity:1; fill:none" points="632.47,1372.73 632.47,1066.32 "/>
<polyline clip-path="url(#clip222)" style="stroke:#000000; stroke-linecap:round; stroke-linejoin:round; stroke-width:12; stroke-opacity:1; fill:none" points="839.734,1399.67 839.734,921.587 "/>
<polyline clip-path="url(#clip222)" style="stroke:#000000; stroke-linecap:round; stroke-linejoin:round; stroke-width:12; stroke-opacity:1; fill:none" points="1047,1434.08 1047,776.034 "/>
<polyline clip-path="url(#clip222)" style="stroke:#000000; stroke-linecap:round; stroke-linejoin:round; stroke-width:12; stroke-opacity:1; fill:none" points="1254.26,1437.94 1254.26,692.807 "/>
<polyline clip-path="url(#clip222)" style="stroke:#000000; stroke-linecap:round; stroke-linejoin:round; stroke-width:12; stroke-opacity:1; fill:none" points="1461.52,1434.8 1461.52,521.133 "/>
<polyline clip-path="url(#clip222)" style="stroke:#000000; stroke-linecap:round; stroke-linejoin:round; stroke-width:12; stroke-opacity:1; fill:none" points="1668.79,1445.72 1668.79,275.786 "/>
<polyline clip-path="url(#clip222)" style="stroke:#000000; stroke-linecap:round; stroke-linejoin:round; stroke-width:12; stroke-opacity:1; fill:none" points="1876.05,1438.18 1876.05,258.809 "/>
<polyline clip-path="url(#clip222)" style="stroke:#000000; stroke-linecap:round; stroke-linejoin:round; stroke-width:12; stroke-opacity:1; fill:none" points="2083.31,1424.99 2083.31,426.337 "/>
<polyline clip-path="url(#clip222)" style="stroke:#000000; stroke-linecap:round; stroke-linejoin:round; stroke-width:12; stroke-opacity:1; fill:none" points="2290.58,1442.42 2290.58,388.589 "/>
<line clip-path="url(#clip222)" x1="233.944" y1="1327.95" x2="201.944" y2="1327.95" style="stroke:#000000; stroke-width:12; stroke-opacity:1"/>
<line clip-path="url(#clip222)" x1="233.944" y1="1327.95" x2="201.944" y2="1327.95" style="stroke:#000000; stroke-width:12; stroke-opacity:1"/>
<line clip-path="url(#clip222)" x1="441.207" y1="1347.22" x2="409.207" y2="1347.22" style="stroke:#000000; stroke-width:12; stroke-opacity:1"/>
<line clip-path="url(#clip222)" x1="441.207" y1="1149.13" x2="409.207" y2="1149.13" style="stroke:#000000; stroke-width:12; stroke-opacity:1"/>
<line clip-path="url(#clip222)" x1="648.47" y1="1372.73" x2="616.47" y2="1372.73" style="stroke:#000000; stroke-width:12; stroke-opacity:1"/>
<line clip-path="url(#clip222)" x1="648.47" y1="1066.32" x2="616.47" y2="1066.32" style="stroke:#000000; stroke-width:12; stroke-opacity:1"/>
<line clip-path="url(#clip222)" x1="855.734" y1="1399.67" x2="823.734" y2="1399.67" style="stroke:#000000; stroke-width:12; stroke-opacity:1"/>
<line clip-path="url(#clip222)" x1="855.734" y1="921.587" x2="823.734" y2="921.587" style="stroke:#000000; stroke-width:12; stroke-opacity:1"/>
<line clip-path="url(#clip222)" x1="1063" y1="1434.08" x2="1031" y2="1434.08" style="stroke:#000000; stroke-width:12; stroke-opacity:1"/>
<line clip-path="url(#clip222)" x1="1063" y1="776.034" x2="1031" y2="776.034" style="stroke:#000000; stroke-width:12; stroke-opacity:1"/>
<line clip-path="url(#clip222)" x1="1270.26" y1="1437.94" x2="1238.26" y2="1437.94" style="stroke:#000000; stroke-width:12; stroke-opacity:1"/>
<line clip-path="url(#clip222)" x1="1270.26" y1="692.807" x2="1238.26" y2="692.807" style="stroke:#000000; stroke-width:12; stroke-opacity:1"/>
<line clip-path="url(#clip222)" x1="1477.52" y1="1434.8" x2="1445.52" y2="1434.8" style="stroke:#000000; stroke-width:12; stroke-opacity:1"/>
<line clip-path="url(#clip222)" x1="1477.52" y1="521.133" x2="1445.52" y2="521.133" style="stroke:#000000; stroke-width:12; stroke-opacity:1"/>
<line clip-path="url(#clip222)" x1="1684.79" y1="1445.72" x2="1652.79" y2="1445.72" style="stroke:#000000; stroke-width:12; stroke-opacity:1"/>
<line clip-path="url(#clip222)" x1="1684.79" y1="275.786" x2="1652.79" y2="275.786" style="stroke:#000000; stroke-width:12; stroke-opacity:1"/>
<line clip-path="url(#clip222)" x1="1892.05" y1="1438.18" x2="1860.05" y2="1438.18" style="stroke:#000000; stroke-width:12; stroke-opacity:1"/>
<line clip-path="url(#clip222)" x1="1892.05" y1="258.809" x2="1860.05" y2="258.809" style="stroke:#000000; stroke-width:12; stroke-opacity:1"/>
<line clip-path="url(#clip222)" x1="2099.31" y1="1424.99" x2="2067.31" y2="1424.99" style="stroke:#000000; stroke-width:12; stroke-opacity:1"/>
<line clip-path="url(#clip222)" x1="2099.31" y1="426.337" x2="2067.31" y2="426.337" style="stroke:#000000; stroke-width:12; stroke-opacity:1"/>
<line clip-path="url(#clip222)" x1="2306.58" y1="1442.42" x2="2274.58" y2="1442.42" style="stroke:#000000; stroke-width:12; stroke-opacity:1"/>
<line clip-path="url(#clip222)" x1="2306.58" y1="388.589" x2="2274.58" y2="388.589" style="stroke:#000000; stroke-width:12; stroke-opacity:1"/>
<polyline clip-path="url(#clip222)" style="stroke:#e26f46; stroke-linecap:round; stroke-linejoin:round; stroke-width:12; stroke-opacity:1; fill:none" points="217.944,1327.95 425.207,1310.68 632.47,1213.38 839.734,1167.18 1047,1172.23 1254.26,1201.87 1461.52,1146.66 1668.79,1156.81 1876.05,1198.79 2083.31,1241.1 2290.58,1209.87 "/>
<polyline clip-path="url(#clip222)" style="stroke:#000000; stroke-linecap:round; stroke-linejoin:round; stroke-width:12; stroke-opacity:1; fill:none" points="217.944,1327.95 217.944,1327.95 "/>
<polyline clip-path="url(#clip222)" style="stroke:#000000; stroke-linecap:round; stroke-linejoin:round; stroke-width:12; stroke-opacity:1; fill:none" points="425.207,1365.21 425.207,1201.09 "/>
<polyline clip-path="url(#clip222)" style="stroke:#000000; stroke-linecap:round; stroke-linejoin:round; stroke-width:12; stroke-opacity:1; fill:none" points="632.47,1366.53 632.47,1044.83 "/>
<polyline clip-path="url(#clip222)" style="stroke:#000000; stroke-linecap:round; stroke-linejoin:round; stroke-width:12; stroke-opacity:1; fill:none" points="839.734,1379.02 839.734,837.041 "/>
<polyline clip-path="url(#clip222)" style="stroke:#000000; stroke-linecap:round; stroke-linejoin:round; stroke-width:12; stroke-opacity:1; fill:none" points="1047,1399.47 1047,730.309 "/>
<polyline clip-path="url(#clip222)" style="stroke:#000000; stroke-linecap:round; stroke-linejoin:round; stroke-width:12; stroke-opacity:1; fill:none" points="1254.26,1408.06 1254.26,727.93 "/>
<polyline clip-path="url(#clip222)" style="stroke:#000000; stroke-linecap:round; stroke-linejoin:round; stroke-width:12; stroke-opacity:1; fill:none" points="1461.52,1396.72 1461.52,544.881 "/>
<polyline clip-path="url(#clip222)" style="stroke:#000000; stroke-linecap:round; stroke-linejoin:round; stroke-width:12; stroke-opacity:1; fill:none" points="1668.79,1393.05 1668.79,284.668 "/>
<polyline clip-path="url(#clip222)" style="stroke:#000000; stroke-linecap:round; stroke-linejoin:round; stroke-width:12; stroke-opacity:1; fill:none" points="1876.05,1377.13 1876.05,90.0951 "/>
<polyline clip-path="url(#clip222)" style="stroke:#000000; stroke-linecap:round; stroke-linejoin:round; stroke-width:12; stroke-opacity:1; fill:none" points="2083.31,1366.44 2083.31,87.9763 "/>
<polyline clip-path="url(#clip222)" style="stroke:#000000; stroke-linecap:round; stroke-linejoin:round; stroke-width:12; stroke-opacity:1; fill:none" points="2290.58,1387.61 2290.58,392.759 "/>
<line clip-path="url(#clip222)" x1="233.944" y1="1327.95" x2="201.944" y2="1327.95" style="stroke:#000000; stroke-width:12; stroke-opacity:1"/>
<line clip-path="url(#clip222)" x1="233.944" y1="1327.95" x2="201.944" y2="1327.95" style="stroke:#000000; stroke-width:12; stroke-opacity:1"/>
<line clip-path="url(#clip222)" x1="441.207" y1="1365.21" x2="409.207" y2="1365.21" style="stroke:#000000; stroke-width:12; stroke-opacity:1"/>
<line clip-path="url(#clip222)" x1="441.207" y1="1201.09" x2="409.207" y2="1201.09" style="stroke:#000000; stroke-width:12; stroke-opacity:1"/>
<line clip-path="url(#clip222)" x1="648.47" y1="1366.53" x2="616.47" y2="1366.53" style="stroke:#000000; stroke-width:12; stroke-opacity:1"/>
<line clip-path="url(#clip222)" x1="648.47" y1="1044.83" x2="616.47" y2="1044.83" style="stroke:#000000; stroke-width:12; stroke-opacity:1"/>
<line clip-path="url(#clip222)" x1="855.734" y1="1379.02" x2="823.734" y2="1379.02" style="stroke:#000000; stroke-width:12; stroke-opacity:1"/>
<line clip-path="url(#clip222)" x1="855.734" y1="837.041" x2="823.734" y2="837.041" style="stroke:#000000; stroke-width:12; stroke-opacity:1"/>
<line clip-path="url(#clip222)" x1="1063" y1="1399.47" x2="1031" y2="1399.47" style="stroke:#000000; stroke-width:12; stroke-opacity:1"/>
<line clip-path="url(#clip222)" x1="1063" y1="730.309" x2="1031" y2="730.309" style="stroke:#000000; stroke-width:12; stroke-opacity:1"/>
<line clip-path="url(#clip222)" x1="1270.26" y1="1408.06" x2="1238.26" y2="1408.06" style="stroke:#000000; stroke-width:12; stroke-opacity:1"/>
<line clip-path="url(#clip222)" x1="1270.26" y1="727.93" x2="1238.26" y2="727.93" style="stroke:#000000; stroke-width:12; stroke-opacity:1"/>
<line clip-path="url(#clip222)" x1="1477.52" y1="1396.72" x2="1445.52" y2="1396.72" style="stroke:#000000; stroke-width:12; stroke-opacity:1"/>
<line clip-path="url(#clip222)" x1="1477.52" y1="544.881" x2="1445.52" y2="544.881" style="stroke:#000000; stroke-width:12; stroke-opacity:1"/>
<line clip-path="url(#clip222)" x1="1684.79" y1="1393.05" x2="1652.79" y2="1393.05" style="stroke:#000000; stroke-width:12; stroke-opacity:1"/>
<line clip-path="url(#clip222)" x1="1684.79" y1="284.668" x2="1652.79" y2="284.668" style="stroke:#000000; stroke-width:12; stroke-opacity:1"/>
<line clip-path="url(#clip222)" x1="1892.05" y1="1377.13" x2="1860.05" y2="1377.13" style="stroke:#000000; stroke-width:12; stroke-opacity:1"/>
<line clip-path="url(#clip222)" x1="1892.05" y1="90.0951" x2="1860.05" y2="90.0951" style="stroke:#000000; stroke-width:12; stroke-opacity:1"/>
<line clip-path="url(#clip222)" x1="2099.31" y1="1366.44" x2="2067.31" y2="1366.44" style="stroke:#000000; stroke-width:12; stroke-opacity:1"/>
<line clip-path="url(#clip222)" x1="2099.31" y1="87.9763" x2="2067.31" y2="87.9763" style="stroke:#000000; stroke-width:12; stroke-opacity:1"/>
<line clip-path="url(#clip222)" x1="2306.58" y1="1387.61" x2="2274.58" y2="1387.61" style="stroke:#000000; stroke-width:12; stroke-opacity:1"/>
<line clip-path="url(#clip222)" x1="2306.58" y1="392.759" x2="2274.58" y2="392.759" style="stroke:#000000; stroke-width:12; stroke-opacity:1"/>
</svg>
