<?xml version="1.0" encoding="utf-8"?>
<svg xmlns="http://www.w3.org/2000/svg" xmlns:xlink="http://www.w3.org/1999/xlink" width="600" height="400" viewBox="0 0 2400 1600">
<defs>
  <clipPath id="clip250">
    <rect x="0" y="0" width="2400" height="1600"/>
  </clipPath>
</defs>
<path clip-path="url(#clip250)" d="M0 1600 L2400 1600 L2400 0 L0 0  Z" fill="#ffffff" fill-rule="evenodd" fill-opacity="1"/>
<defs>
  <clipPath id="clip251">
    <rect x="480" y="0" width="1681" height="1600"/>
  </clipPath>
</defs>
<path clip-path="url(#clip250)" d="M186.274 1486.45 L2352.76 1486.45 L2352.76 47.2441 L186.274 47.2441  Z" fill="#ffffff" fill-rule="evenodd" fill-opacity="1"/>
<defs>
  <clipPath id="clip252">
    <rect x="186" y="47" width="2167" height="1440"/>
  </clipPath>
</defs>
<polyline clip-path="url(#clip252)" style="stroke:#000000; stroke-linecap:round; stroke-linejoin:round; stroke-width:2; stroke-opacity:0.1; fill:none" points="247.59,1486.45 247.59,47.2441 "/>
<polyline clip-path="url(#clip252)" style="stroke:#000000; stroke-linecap:round; stroke-linejoin:round; stroke-width:2; stroke-opacity:0.1; fill:none" points="758.552,1486.45 758.552,47.2441 "/>
<polyline clip-path="url(#clip252)" style="stroke:#000000; stroke-linecap:round; stroke-linejoin:round; stroke-width:2; stroke-opacity:0.1; fill:none" points="1269.51,1486.45 1269.51,47.2441 "/>
<polyline clip-path="url(#clip252)" style="stroke:#000000; stroke-linecap:round; stroke-linejoin:round; stroke-width:2; stroke-opacity:0.1; fill:none" points="1780.48,1486.45 1780.48,47.2441 "/>
<polyline clip-path="url(#clip252)" style="stroke:#000000; stroke-linecap:round; stroke-linejoin:round; stroke-width:2; stroke-opacity:0.1; fill:none" points="2291.44,1486.45 2291.44,47.2441 "/>
<polyline clip-path="url(#clip252)" style="stroke:#000000; stroke-linecap:round; stroke-linejoin:round; stroke-width:2; stroke-opacity:0.1; fill:none" points="186.274,1428.39 2352.76,1428.39 "/>
<polyline clip-path="url(#clip252)" style="stroke:#000000; stroke-linecap:round; stroke-linejoin:round; stroke-width:2; stroke-opacity:0.1; fill:none" points="186.274,1132.77 2352.76,1132.77 "/>
<polyline clip-path="url(#clip252)" style="stroke:#000000; stroke-linecap:round; stroke-linejoin:round; stroke-width:2; stroke-opacity:0.1; fill:none" points="186.274,837.148 2352.76,837.148 "/>
<polyline clip-path="url(#clip252)" style="stroke:#000000; stroke-linecap:round; stroke-linejoin:round; stroke-width:2; stroke-opacity:0.1; fill:none" points="186.274,541.53 2352.76,541.53 "/>
<polyline clip-path="url(#clip252)" style="stroke:#000000; stroke-linecap:round; stroke-linejoin:round; stroke-width:2; stroke-opacity:0.1; fill:none" points="186.274,245.911 2352.76,245.911 "/>
<polyline clip-path="url(#clip250)" style="stroke:#000000; stroke-linecap:round; stroke-linejoin:round; stroke-width:4; stroke-opacity:1; fill:none" points="186.274,1486.45 2352.76,1486.45 "/>
<polyline clip-path="url(#clip250)" style="stroke:#000000; stroke-linecap:round; stroke-linejoin:round; stroke-width:4; stroke-opacity:1; fill:none" points="247.59,1486.45 247.59,1467.55 "/>
<polyline clip-path="url(#clip250)" style="stroke:#000000; stroke-linecap:round; stroke-linejoin:round; stroke-width:4; stroke-opacity:1; fill:none" points="758.552,1486.45 758.552,1467.55 "/>
<polyline clip-path="url(#clip250)" style="stroke:#000000; stroke-linecap:round; stroke-linejoin:round; stroke-width:4; stroke-opacity:1; fill:none" points="1269.51,1486.45 1269.51,1467.55 "/>
<polyline clip-path="url(#clip250)" style="stroke:#000000; stroke-linecap:round; stroke-linejoin:round; stroke-width:4; stroke-opacity:1; fill:none" points="1780.48,1486.45 1780.48,1467.55 "/>
<polyline clip-path="url(#clip250)" style="stroke:#000000; stroke-linecap:round; stroke-linejoin:round; stroke-width:4; stroke-opacity:1; fill:none" points="2291.44,1486.45 2291.44,1467.55 "/>
<path clip-path="url(#clip250)" d="M209.893 1517.37 Q206.282 1517.37 204.453 1520.93 Q202.648 1524.47 202.648 1531.6 Q202.648 1538.71 204.453 1542.27 Q206.282 1545.82 209.893 1545.82 Q213.527 1545.82 215.333 1542.27 Q217.161 1538.71 217.161 1531.6 Q217.161 1524.47 215.333 1520.93 Q213.527 1517.37 209.893 1517.37 M209.893 1513.66 Q215.703 1513.66 218.759 1518.27 Q221.837 1522.85 221.837 1531.6 Q221.837 1540.33 218.759 1544.94 Q215.703 1549.52 209.893 1549.52 Q204.083 1549.52 201.004 1544.94 Q197.949 1540.33 197.949 1531.6 Q197.949 1522.85 201.004 1518.27 Q204.083 1513.66 209.893 1513.66 Z" fill="#000000" fill-rule="nonzero" fill-opacity="1" /><path clip-path="url(#clip250)" d="M230.055 1542.97 L234.939 1542.97 L234.939 1548.85 L230.055 1548.85 L230.055 1542.97 Z" fill="#000000" fill-rule="nonzero" fill-opacity="1" /><path clip-path="url(#clip250)" d="M255.124 1517.37 Q251.513 1517.37 249.684 1520.93 Q247.879 1524.47 247.879 1531.6 Q247.879 1538.71 249.684 1542.27 Q251.513 1545.82 255.124 1545.82 Q258.758 1545.82 260.564 1542.27 Q262.393 1538.71 262.393 1531.6 Q262.393 1524.47 260.564 1520.93 Q258.758 1517.37 255.124 1517.37 M255.124 1513.66 Q260.934 1513.66 263.99 1518.27 Q267.069 1522.85 267.069 1531.6 Q267.069 1540.33 263.99 1544.94 Q260.934 1549.52 255.124 1549.52 Q249.314 1549.52 246.235 1544.94 Q243.18 1540.33 243.18 1531.6 Q243.18 1522.85 246.235 1518.27 Q249.314 1513.66 255.124 1513.66 Z" fill="#000000" fill-rule="nonzero" fill-opacity="1" /><path clip-path="url(#clip250)" d="M285.286 1517.37 Q281.675 1517.37 279.846 1520.93 Q278.041 1524.47 278.041 1531.6 Q278.041 1538.71 279.846 1542.27 Q281.675 1545.82 285.286 1545.82 Q288.92 1545.82 290.726 1542.27 Q292.555 1538.71 292.555 1531.6 Q292.555 1524.47 290.726 1520.93 Q288.92 1517.37 285.286 1517.37 M285.286 1513.66 Q291.096 1513.66 294.152 1518.27 Q297.23 1522.85 297.23 1531.6 Q297.23 1540.33 294.152 1544.94 Q291.096 1549.52 285.286 1549.52 Q279.476 1549.52 276.397 1544.94 Q273.342 1540.33 273.342 1531.6 Q273.342 1522.85 276.397 1518.27 Q279.476 1513.66 285.286 1513.66 Z" fill="#000000" fill-rule="nonzero" fill-opacity="1" /><path clip-path="url(#clip250)" d="M721.353 1517.37 Q717.742 1517.37 715.914 1520.93 Q714.108 1524.47 714.108 1531.6 Q714.108 1538.71 715.914 1542.27 Q717.742 1545.82 721.353 1545.82 Q724.988 1545.82 726.793 1542.27 Q728.622 1538.71 728.622 1531.6 Q728.622 1524.47 726.793 1520.93 Q724.988 1517.37 721.353 1517.37 M721.353 1513.66 Q727.164 1513.66 730.219 1518.27 Q733.298 1522.85 733.298 1531.6 Q733.298 1540.33 730.219 1544.94 Q727.164 1549.52 721.353 1549.52 Q715.543 1549.52 712.465 1544.94 Q709.409 1540.33 709.409 1531.6 Q709.409 1522.85 712.465 1518.27 Q715.543 1513.66 721.353 1513.66 Z" fill="#000000" fill-rule="nonzero" fill-opacity="1" /><path clip-path="url(#clip250)" d="M741.515 1542.97 L746.4 1542.97 L746.4 1548.85 L741.515 1548.85 L741.515 1542.97 Z" fill="#000000" fill-rule="nonzero" fill-opacity="1" /><path clip-path="url(#clip250)" d="M760.612 1544.91 L776.932 1544.91 L776.932 1548.85 L754.987 1548.85 L754.987 1544.91 Q757.649 1542.16 762.233 1537.53 Q766.839 1532.88 768.02 1531.53 Q770.265 1529.01 771.145 1527.27 Q772.048 1525.51 772.048 1523.82 Q772.048 1521.07 770.103 1519.33 Q768.182 1517.6 765.08 1517.6 Q762.881 1517.6 760.427 1518.36 Q757.997 1519.13 755.219 1520.68 L755.219 1515.95 Q758.043 1514.82 760.497 1514.24 Q762.95 1513.66 764.987 1513.66 Q770.358 1513.66 773.552 1516.35 Q776.747 1519.03 776.747 1523.52 Q776.747 1525.65 775.936 1527.57 Q775.149 1529.47 773.043 1532.07 Q772.464 1532.74 769.362 1535.95 Q766.261 1539.15 760.612 1544.91 Z" fill="#000000" fill-rule="nonzero" fill-opacity="1" /><path clip-path="url(#clip250)" d="M786.793 1514.29 L805.149 1514.29 L805.149 1518.22 L791.075 1518.22 L791.075 1526.7 Q792.094 1526.35 793.112 1526.19 Q794.131 1526 795.149 1526 Q800.936 1526 804.316 1529.17 Q807.695 1532.34 807.695 1537.76 Q807.695 1543.34 804.223 1546.44 Q800.751 1549.52 794.432 1549.52 Q792.256 1549.52 789.987 1549.15 Q787.742 1548.78 785.335 1548.04 L785.335 1543.34 Q787.418 1544.47 789.64 1545.03 Q791.862 1545.58 794.339 1545.58 Q798.344 1545.58 800.682 1543.48 Q803.02 1541.37 803.02 1537.76 Q803.02 1534.15 800.682 1532.04 Q798.344 1529.94 794.339 1529.94 Q792.464 1529.94 790.589 1530.35 Q788.737 1530.77 786.793 1531.65 L786.793 1514.29 Z" fill="#000000" fill-rule="nonzero" fill-opacity="1" /><path clip-path="url(#clip250)" d="M1231.82 1517.37 Q1228.21 1517.37 1226.38 1520.93 Q1224.57 1524.47 1224.57 1531.6 Q1224.57 1538.71 1226.38 1542.27 Q1228.21 1545.82 1231.82 1545.82 Q1235.45 1545.82 1237.26 1542.27 Q1239.09 1538.71 1239.09 1531.6 Q1239.09 1524.47 1237.26 1520.93 Q1235.45 1517.37 1231.82 1517.37 M1231.82 1513.66 Q1237.63 1513.66 1240.68 1518.27 Q1243.76 1522.85 1243.76 1531.6 Q1243.76 1540.33 1240.68 1544.94 Q1237.63 1549.52 1231.82 1549.52 Q1226.01 1549.52 1222.93 1544.94 Q1219.87 1540.33 1219.87 1531.6 Q1219.87 1522.85 1222.93 1518.27 Q1226.01 1513.66 1231.82 1513.66 Z" fill="#000000" fill-rule="nonzero" fill-opacity="1" /><path clip-path="url(#clip250)" d="M1251.98 1542.97 L1256.86 1542.97 L1256.86 1548.85 L1251.98 1548.85 L1251.98 1542.97 Z" fill="#000000" fill-rule="nonzero" fill-opacity="1" /><path clip-path="url(#clip250)" d="M1267.1 1514.29 L1285.45 1514.29 L1285.45 1518.22 L1271.38 1518.22 L1271.38 1526.7 Q1272.4 1526.35 1273.42 1526.19 Q1274.43 1526 1275.45 1526 Q1281.24 1526 1284.62 1529.17 Q1288 1532.34 1288 1537.76 Q1288 1543.34 1284.53 1546.44 Q1281.05 1549.52 1274.73 1549.52 Q1272.56 1549.52 1270.29 1549.15 Q1268.05 1548.78 1265.64 1548.04 L1265.64 1543.34 Q1267.72 1544.47 1269.94 1545.03 Q1272.17 1545.58 1274.64 1545.58 Q1278.65 1545.58 1280.98 1543.48 Q1283.32 1541.37 1283.32 1537.76 Q1283.32 1534.15 1280.98 1532.04 Q1278.65 1529.94 1274.64 1529.94 Q1272.77 1529.94 1270.89 1530.35 Q1269.04 1530.77 1267.1 1531.65 L1267.1 1514.29 Z" fill="#000000" fill-rule="nonzero" fill-opacity="1" /><path clip-path="url(#clip250)" d="M1307.21 1517.37 Q1303.6 1517.37 1301.77 1520.93 Q1299.97 1524.47 1299.97 1531.6 Q1299.97 1538.71 1301.77 1542.27 Q1303.6 1545.82 1307.21 1545.82 Q1310.85 1545.82 1312.65 1542.27 Q1314.48 1538.71 1314.48 1531.6 Q1314.48 1524.47 1312.65 1520.93 Q1310.85 1517.37 1307.21 1517.37 M1307.21 1513.66 Q1313.02 1513.66 1316.08 1518.27 Q1319.16 1522.85 1319.16 1531.6 Q1319.16 1540.33 1316.08 1544.94 Q1313.02 1549.52 1307.21 1549.52 Q1301.4 1549.52 1298.32 1544.94 Q1295.27 1540.33 1295.27 1531.6 Q1295.27 1522.85 1298.32 1518.27 Q1301.4 1513.66 1307.21 1513.66 Z" fill="#000000" fill-rule="nonzero" fill-opacity="1" /><path clip-path="url(#clip250)" d="M1743.28 1517.37 Q1739.67 1517.37 1737.84 1520.93 Q1736.03 1524.47 1736.03 1531.6 Q1736.03 1538.71 1737.84 1542.27 Q1739.67 1545.82 1743.28 1545.82 Q1746.91 1545.82 1748.72 1542.27 Q1750.55 1538.71 1750.55 1531.6 Q1750.55 1524.47 1748.72 1520.93 Q1746.91 1517.37 1743.28 1517.37 M1743.28 1513.66 Q1749.09 1513.66 1752.14 1518.27 Q1755.22 1522.85 1755.22 1531.6 Q1755.22 1540.33 1752.14 1544.94 Q1749.09 1549.52 1743.28 1549.52 Q1737.47 1549.52 1734.39 1544.94 Q1731.33 1540.33 1731.33 1531.6 Q1731.33 1522.85 1734.39 1518.27 Q1737.47 1513.66 1743.28 1513.66 Z" fill="#000000" fill-rule="nonzero" fill-opacity="1" /><path clip-path="url(#clip250)" d="M1763.44 1542.97 L1768.32 1542.97 L1768.32 1548.85 L1763.44 1548.85 L1763.44 1542.97 Z" fill="#000000" fill-rule="nonzero" fill-opacity="1" /><path clip-path="url(#clip250)" d="M1777.33 1514.29 L1799.55 1514.29 L1799.55 1516.28 L1787.01 1548.85 L1782.12 1548.85 L1793.93 1518.22 L1777.33 1518.22 L1777.33 1514.29 Z" fill="#000000" fill-rule="nonzero" fill-opacity="1" /><path clip-path="url(#clip250)" d="M1808.72 1514.29 L1827.07 1514.29 L1827.07 1518.22 L1813 1518.22 L1813 1526.7 Q1814.02 1526.35 1815.04 1526.19 Q1816.06 1526 1817.07 1526 Q1822.86 1526 1826.24 1529.17 Q1829.62 1532.34 1829.62 1537.76 Q1829.62 1543.34 1826.15 1546.44 Q1822.68 1549.52 1816.36 1549.52 Q1814.18 1549.52 1811.91 1549.15 Q1809.67 1548.78 1807.26 1548.04 L1807.26 1543.34 Q1809.34 1544.47 1811.57 1545.03 Q1813.79 1545.58 1816.26 1545.58 Q1820.27 1545.58 1822.61 1543.48 Q1824.95 1541.37 1824.95 1537.76 Q1824.95 1534.15 1822.61 1532.04 Q1820.27 1529.94 1816.26 1529.94 Q1814.39 1529.94 1812.51 1530.35 Q1810.66 1530.77 1808.72 1531.65 L1808.72 1514.29 Z" fill="#000000" fill-rule="nonzero" fill-opacity="1" /><path clip-path="url(#clip250)" d="M2243.51 1544.91 L2251.15 1544.91 L2251.15 1518.55 L2242.84 1520.21 L2242.84 1515.95 L2251.1 1514.29 L2255.78 1514.29 L2255.78 1544.91 L2263.42 1544.91 L2263.42 1548.85 L2243.51 1548.85 L2243.51 1544.91 Z" fill="#000000" fill-rule="nonzero" fill-opacity="1" /><path clip-path="url(#clip250)" d="M2272.86 1542.97 L2277.75 1542.97 L2277.75 1548.85 L2272.86 1548.85 L2272.86 1542.97 Z" fill="#000000" fill-rule="nonzero" fill-opacity="1" /><path clip-path="url(#clip250)" d="M2297.93 1517.37 Q2294.32 1517.37 2292.49 1520.93 Q2290.69 1524.47 2290.69 1531.6 Q2290.69 1538.71 2292.49 1542.27 Q2294.32 1545.82 2297.93 1545.82 Q2301.57 1545.82 2303.37 1542.27 Q2305.2 1538.71 2305.2 1531.6 Q2305.2 1524.47 2303.37 1520.93 Q2301.57 1517.37 2297.93 1517.37 M2297.93 1513.66 Q2303.74 1513.66 2306.8 1518.27 Q2309.88 1522.85 2309.88 1531.6 Q2309.88 1540.33 2306.8 1544.94 Q2303.74 1549.52 2297.93 1549.52 Q2292.12 1549.52 2289.04 1544.94 Q2285.99 1540.33 2285.99 1531.6 Q2285.99 1522.85 2289.04 1518.27 Q2292.12 1513.66 2297.93 1513.66 Z" fill="#000000" fill-rule="nonzero" fill-opacity="1" /><path clip-path="url(#clip250)" d="M2328.1 1517.37 Q2324.48 1517.37 2322.66 1520.93 Q2320.85 1524.47 2320.85 1531.6 Q2320.85 1538.71 2322.66 1542.27 Q2324.48 1545.82 2328.1 1545.82 Q2331.73 1545.82 2333.54 1542.27 Q2335.36 1538.71 2335.36 1531.6 Q2335.36 1524.47 2333.54 1520.93 Q2331.73 1517.37 2328.1 1517.37 M2328.1 1513.66 Q2333.91 1513.66 2336.96 1518.27 Q2340.04 1522.85 2340.04 1531.6 Q2340.04 1540.33 2336.96 1544.94 Q2333.91 1549.52 2328.1 1549.52 Q2322.29 1549.52 2319.21 1544.94 Q2316.15 1540.33 2316.15 1531.6 Q2316.15 1522.85 2319.21 1518.27 Q2322.29 1513.66 2328.1 1513.66 Z" fill="#000000" fill-rule="nonzero" fill-opacity="1" /><polyline clip-path="url(#clip250)" style="stroke:#000000; stroke-linecap:round; stroke-linejoin:round; stroke-width:4; stroke-opacity:1; fill:none" points="186.274,1486.45 186.274,47.2441 "/>
<polyline clip-path="url(#clip250)" style="stroke:#000000; stroke-linecap:round; stroke-linejoin:round; stroke-width:4; stroke-opacity:1; fill:none" points="186.274,1428.39 205.172,1428.39 "/>
<polyline clip-path="url(#clip250)" style="stroke:#000000; stroke-linecap:round; stroke-linejoin:round; stroke-width:4; stroke-opacity:1; fill:none" points="186.274,1132.77 205.172,1132.77 "/>
<polyline clip-path="url(#clip250)" style="stroke:#000000; stroke-linecap:round; stroke-linejoin:round; stroke-width:4; stroke-opacity:1; fill:none" points="186.274,837.148 205.172,837.148 "/>
<polyline clip-path="url(#clip250)" style="stroke:#000000; stroke-linecap:round; stroke-linejoin:round; stroke-width:4; stroke-opacity:1; fill:none" points="186.274,541.53 205.172,541.53 "/>
<polyline clip-path="url(#clip250)" style="stroke:#000000; stroke-linecap:round; stroke-linejoin:round; stroke-width:4; stroke-opacity:1; fill:none" points="186.274,245.911 205.172,245.911 "/>
<path clip-path="url(#clip250)" d="M62.9365 1414.18 Q59.3254 1414.18 57.4967 1417.75 Q55.6912 1421.29 55.6912 1428.42 Q55.6912 1435.53 57.4967 1439.09 Q59.3254 1442.63 62.9365 1442.63 Q66.5707 1442.63 68.3763 1439.09 Q70.205 1435.53 70.205 1428.42 Q70.205 1421.29 68.3763 1417.75 Q66.5707 1414.18 62.9365 1414.18 M62.9365 1410.48 Q68.7467 1410.48 71.8022 1415.09 Q74.8809 1419.67 74.8809 1428.42 Q74.8809 1437.15 71.8022 1441.75 Q68.7467 1446.34 62.9365 1446.34 Q57.1264 1446.34 54.0477 1441.75 Q50.9921 1437.15 50.9921 1428.42 Q50.9921 1419.67 54.0477 1415.09 Q57.1264 1410.48 62.9365 1410.48 Z" fill="#000000" fill-rule="nonzero" fill-opacity="1" /><path clip-path="url(#clip250)" d="M83.0984 1439.79 L87.9827 1439.79 L87.9827 1445.67 L83.0984 1445.67 L83.0984 1439.79 Z" fill="#000000" fill-rule="nonzero" fill-opacity="1" /><path clip-path="url(#clip250)" d="M98.2141 1411.11 L116.57 1411.11 L116.57 1415.04 L102.496 1415.04 L102.496 1423.51 Q103.515 1423.17 104.534 1423 Q105.552 1422.82 106.571 1422.82 Q112.358 1422.82 115.737 1425.99 Q119.117 1429.16 119.117 1434.58 Q119.117 1440.16 115.645 1443.26 Q112.172 1446.34 105.853 1446.34 Q103.677 1446.34 101.409 1445.97 Q99.1632 1445.6 96.7558 1444.86 L96.7558 1440.16 Q98.8391 1441.29 101.061 1441.85 Q103.284 1442.4 105.76 1442.4 Q109.765 1442.4 112.103 1440.29 Q114.441 1438.19 114.441 1434.58 Q114.441 1430.97 112.103 1428.86 Q109.765 1426.75 105.76 1426.75 Q103.885 1426.75 102.01 1427.17 Q100.159 1427.59 98.2141 1428.47 L98.2141 1411.11 Z" fill="#000000" fill-rule="nonzero" fill-opacity="1" /><path clip-path="url(#clip250)" d="M138.33 1414.18 Q134.719 1414.18 132.89 1417.75 Q131.084 1421.29 131.084 1428.42 Q131.084 1435.53 132.89 1439.09 Q134.719 1442.63 138.33 1442.63 Q141.964 1442.63 143.769 1439.09 Q145.598 1435.53 145.598 1428.42 Q145.598 1421.29 143.769 1417.75 Q141.964 1414.18 138.33 1414.18 M138.33 1410.48 Q144.14 1410.48 147.195 1415.09 Q150.274 1419.67 150.274 1428.42 Q150.274 1437.15 147.195 1441.75 Q144.14 1446.34 138.33 1446.34 Q132.519 1446.34 129.441 1441.75 Q126.385 1437.15 126.385 1428.42 Q126.385 1419.67 129.441 1415.09 Q132.519 1410.48 138.33 1410.48 Z" fill="#000000" fill-rule="nonzero" fill-opacity="1" /><path clip-path="url(#clip250)" d="M63.9319 1118.57 Q60.3208 1118.57 58.4921 1122.13 Q56.6865 1125.67 56.6865 1132.8 Q56.6865 1139.91 58.4921 1143.47 Q60.3208 1147.01 63.9319 1147.01 Q67.5661 1147.01 69.3717 1143.47 Q71.2004 1139.91 71.2004 1132.8 Q71.2004 1125.67 69.3717 1122.13 Q67.5661 1118.57 63.9319 1118.57 M63.9319 1114.86 Q69.742 1114.86 72.7976 1119.47 Q75.8763 1124.05 75.8763 1132.8 Q75.8763 1141.53 72.7976 1146.13 Q69.742 1150.72 63.9319 1150.72 Q58.1217 1150.72 55.043 1146.13 Q51.9875 1141.53 51.9875 1132.8 Q51.9875 1124.05 55.043 1119.47 Q58.1217 1114.86 63.9319 1114.86 Z" fill="#000000" fill-rule="nonzero" fill-opacity="1" /><path clip-path="url(#clip250)" d="M84.0938 1144.17 L88.978 1144.17 L88.978 1150.05 L84.0938 1150.05 L84.0938 1144.17 Z" fill="#000000" fill-rule="nonzero" fill-opacity="1" /><path clip-path="url(#clip250)" d="M97.9826 1115.49 L120.205 1115.49 L120.205 1117.48 L107.658 1150.05 L102.774 1150.05 L114.58 1119.42 L97.9826 1119.42 L97.9826 1115.49 Z" fill="#000000" fill-rule="nonzero" fill-opacity="1" /><path clip-path="url(#clip250)" d="M129.371 1115.49 L147.728 1115.49 L147.728 1119.42 L133.654 1119.42 L133.654 1127.89 Q134.672 1127.55 135.691 1127.38 Q136.709 1127.2 137.728 1127.2 Q143.515 1127.2 146.894 1130.37 Q150.274 1133.54 150.274 1138.96 Q150.274 1144.54 146.802 1147.64 Q143.33 1150.72 137.01 1150.72 Q134.834 1150.72 132.566 1150.35 Q130.32 1149.98 127.913 1149.24 L127.913 1144.54 Q129.996 1145.67 132.219 1146.23 Q134.441 1146.78 136.918 1146.78 Q140.922 1146.78 143.26 1144.68 Q145.598 1142.57 145.598 1138.96 Q145.598 1135.35 143.26 1133.24 Q140.922 1131.13 136.918 1131.13 Q135.043 1131.13 133.168 1131.55 Q131.316 1131.97 129.371 1132.85 L129.371 1115.49 Z" fill="#000000" fill-rule="nonzero" fill-opacity="1" /><path clip-path="url(#clip250)" d="M53.7467 850.493 L61.3856 850.493 L61.3856 824.127 L53.0754 825.794 L53.0754 821.535 L61.3393 819.868 L66.0152 819.868 L66.0152 850.493 L73.654 850.493 L73.654 854.428 L53.7467 854.428 L53.7467 850.493 Z" fill="#000000" fill-rule="nonzero" fill-opacity="1" /><path clip-path="url(#clip250)" d="M83.0984 848.549 L87.9827 848.549 L87.9827 854.428 L83.0984 854.428 L83.0984 848.549 Z" fill="#000000" fill-rule="nonzero" fill-opacity="1" /><path clip-path="url(#clip250)" d="M108.168 822.947 Q104.557 822.947 102.728 826.512 Q100.922 830.053 100.922 837.183 Q100.922 844.289 102.728 847.854 Q104.557 851.396 108.168 851.396 Q111.802 851.396 113.608 847.854 Q115.436 844.289 115.436 837.183 Q115.436 830.053 113.608 826.512 Q111.802 822.947 108.168 822.947 M108.168 819.243 Q113.978 819.243 117.033 823.85 Q120.112 828.433 120.112 837.183 Q120.112 845.91 117.033 850.516 Q113.978 855.1 108.168 855.1 Q102.358 855.1 99.2789 850.516 Q96.2234 845.91 96.2234 837.183 Q96.2234 828.433 99.2789 823.85 Q102.358 819.243 108.168 819.243 Z" fill="#000000" fill-rule="nonzero" fill-opacity="1" /><path clip-path="url(#clip250)" d="M138.33 822.947 Q134.719 822.947 132.89 826.512 Q131.084 830.053 131.084 837.183 Q131.084 844.289 132.89 847.854 Q134.719 851.396 138.33 851.396 Q141.964 851.396 143.769 847.854 Q145.598 844.289 145.598 837.183 Q145.598 830.053 143.769 826.512 Q141.964 822.947 138.33 822.947 M138.33 819.243 Q144.14 819.243 147.195 823.85 Q150.274 828.433 150.274 837.183 Q150.274 845.91 147.195 850.516 Q144.14 855.1 138.33 855.1 Q132.519 855.1 129.441 850.516 Q126.385 845.91 126.385 837.183 Q126.385 828.433 129.441 823.85 Q132.519 819.243 138.33 819.243 Z" fill="#000000" fill-rule="nonzero" fill-opacity="1" /><path clip-path="url(#clip250)" d="M54.7421 554.875 L62.381 554.875 L62.381 528.509 L54.0708 530.176 L54.0708 525.916 L62.3347 524.25 L67.0106 524.25 L67.0106 554.875 L74.6494 554.875 L74.6494 558.81 L54.7421 558.81 L54.7421 554.875 Z" fill="#000000" fill-rule="nonzero" fill-opacity="1" /><path clip-path="url(#clip250)" d="M84.0938 552.93 L88.978 552.93 L88.978 558.81 L84.0938 558.81 L84.0938 552.93 Z" fill="#000000" fill-rule="nonzero" fill-opacity="1" /><path clip-path="url(#clip250)" d="M103.191 554.875 L119.51 554.875 L119.51 558.81 L97.566 558.81 L97.566 554.875 Q100.228 552.12 104.811 547.49 Q109.418 542.838 110.598 541.495 Q112.844 538.972 113.723 537.236 Q114.626 535.477 114.626 533.787 Q114.626 531.032 112.682 529.296 Q110.76 527.56 107.658 527.56 Q105.459 527.56 103.006 528.324 Q100.575 529.088 97.7974 530.639 L97.7974 525.916 Q100.621 524.782 103.075 524.203 Q105.529 523.625 107.566 523.625 Q112.936 523.625 116.131 526.31 Q119.325 528.995 119.325 533.486 Q119.325 535.615 118.515 537.537 Q117.728 539.435 115.621 542.027 Q115.043 542.699 111.941 545.916 Q108.839 549.111 103.191 554.875 Z" fill="#000000" fill-rule="nonzero" fill-opacity="1" /><path clip-path="url(#clip250)" d="M129.371 524.25 L147.728 524.25 L147.728 528.185 L133.654 528.185 L133.654 536.657 Q134.672 536.31 135.691 536.148 Q136.709 535.963 137.728 535.963 Q143.515 535.963 146.894 539.134 Q150.274 542.305 150.274 547.722 Q150.274 553.3 146.802 556.402 Q143.33 559.481 137.01 559.481 Q134.834 559.481 132.566 559.111 Q130.32 558.74 127.913 558 L127.913 553.3 Q129.996 554.435 132.219 554.99 Q134.441 555.546 136.918 555.546 Q140.922 555.546 143.26 553.439 Q145.598 551.333 145.598 547.722 Q145.598 544.111 143.26 542.004 Q140.922 539.898 136.918 539.898 Q135.043 539.898 133.168 540.314 Q131.316 540.731 129.371 541.611 L129.371 524.25 Z" fill="#000000" fill-rule="nonzero" fill-opacity="1" /><path clip-path="url(#clip250)" d="M53.7467 259.256 L61.3856 259.256 L61.3856 232.89 L53.0754 234.557 L53.0754 230.298 L61.3393 228.631 L66.0152 228.631 L66.0152 259.256 L73.654 259.256 L73.654 263.191 L53.7467 263.191 L53.7467 259.256 Z" fill="#000000" fill-rule="nonzero" fill-opacity="1" /><path clip-path="url(#clip250)" d="M83.0984 257.312 L87.9827 257.312 L87.9827 263.191 L83.0984 263.191 L83.0984 257.312 Z" fill="#000000" fill-rule="nonzero" fill-opacity="1" /><path clip-path="url(#clip250)" d="M98.2141 228.631 L116.57 228.631 L116.57 232.566 L102.496 232.566 L102.496 241.039 Q103.515 240.691 104.534 240.529 Q105.552 240.344 106.571 240.344 Q112.358 240.344 115.737 243.515 Q119.117 246.687 119.117 252.103 Q119.117 257.682 115.645 260.784 Q112.172 263.863 105.853 263.863 Q103.677 263.863 101.409 263.492 Q99.1632 263.122 96.7558 262.381 L96.7558 257.682 Q98.8391 258.816 101.061 259.372 Q103.284 259.927 105.76 259.927 Q109.765 259.927 112.103 257.821 Q114.441 255.714 114.441 252.103 Q114.441 248.492 112.103 246.386 Q109.765 244.279 105.76 244.279 Q103.885 244.279 102.01 244.696 Q100.159 245.113 98.2141 245.992 L98.2141 228.631 Z" fill="#000000" fill-rule="nonzero" fill-opacity="1" /><path clip-path="url(#clip250)" d="M138.33 231.71 Q134.719 231.71 132.89 235.275 Q131.084 238.816 131.084 245.946 Q131.084 253.052 132.89 256.617 Q134.719 260.159 138.33 260.159 Q141.964 260.159 143.769 256.617 Q145.598 253.052 145.598 245.946 Q145.598 238.816 143.769 235.275 Q141.964 231.71 138.33 231.71 M138.33 228.006 Q144.14 228.006 147.195 232.613 Q150.274 237.196 150.274 245.946 Q150.274 254.673 147.195 259.279 Q144.14 263.863 138.33 263.863 Q132.519 263.863 129.441 259.279 Q126.385 254.673 126.385 245.946 Q126.385 237.196 129.441 232.613 Q132.519 228.006 138.33 228.006 Z" fill="#000000" fill-rule="nonzero" fill-opacity="1" /><polyline clip-path="url(#clip252)" style="stroke:#009af9; stroke-linecap:round; stroke-linejoin:round; stroke-width:12; stroke-opacity:1; fill:none" points="247.59,1428.39 451.975,1404.61 656.36,1314.85 860.745,1334.93 1065.13,1262.01 1269.51,1094.22 1473.9,888.872 1678.29,714.412 1882.67,619.663 2087.06,800.571 2291.44,1027.25 "/>
<polyline clip-path="url(#clip252)" style="stroke:#e26f46; stroke-linecap:round; stroke-linejoin:round; stroke-width:12; stroke-opacity:1; fill:none" points="247.59,1428.39 451.975,1328.93 656.36,1358.5 860.745,1364.75 1065.13,1291.84 1269.51,1310.73 1473.9,1030.99 1678.29,926.52 1882.67,795.731 2087.06,878.032 2291.44,593.928 "/>
<polyline clip-path="url(#clip252)" style="stroke:#3da44d; stroke-linecap:round; stroke-linejoin:round; stroke-width:12; stroke-opacity:1; fill:none" points="247.59,1428.39 451.975,1332.7 656.36,1248.72 860.745,1233.86 1065.13,1165.83 1269.51,1062.5 1473.9,942.558 1678.29,1127.43 1882.67,1269.48 2087.06,1240.92 2291.44,1111.34 "/>
<polyline clip-path="url(#clip252)" style="stroke:#c271d2; stroke-linecap:round; stroke-linejoin:round; stroke-width:12; stroke-opacity:1; fill:none" points="247.59,1428.39 451.975,1321.3 656.36,1281.92 860.745,1313.26 1065.13,1248.59 1269.51,1161.91 1473.9,1188.58 1678.29,1267.48 1882.67,1284.97 2087.06,1235.04 2291.44,1307.56 "/>
<polyline clip-path="url(#clip252)" style="stroke:#ac8d18; stroke-linecap:round; stroke-linejoin:round; stroke-width:12; stroke-opacity:1; fill:none" points="247.59,1428.39 451.975,1380.82 656.36,1112.9 860.745,985.674 1065.13,999.6 1269.51,1081.22 1473.9,929.182 1678.29,957.119 1882.67,1072.73 2087.06,1189.23 2291.44,1103.23 "/>
<polyline clip-path="url(#clip252)" style="stroke:#00a9ad; stroke-linecap:round; stroke-linejoin:round; stroke-width:12; stroke-opacity:1; fill:none" points="247.59,1428.39 451.975,1299.93 656.36,1169.07 860.745,1037.01 1065.13,941.908 1269.51,974.512 1473.9,848.945 1678.29,858.168 1882.67,662.397 2087.06,316.102 2291.44,169.682 "/>
<polyline clip-path="url(#clip252)" style="stroke:#ed5d92; stroke-linecap:round; stroke-linejoin:round; stroke-width:12; stroke-opacity:1; fill:none" points="247.59,1428.39 451.975,1445.72 656.36,1379.5 860.745,1346.39 1065.13,1200.92 1269.51,1097.49 1473.9,852.776 1678.29,491.893 1882.67,223.596 2087.06,87.9763 2291.44,289.886 "/>
<polyline clip-path="url(#clip252)" style="stroke:#c68125; stroke-linecap:round; stroke-linejoin:round; stroke-width:12; stroke-opacity:1; fill:none" points="247.59,1428.39 451.975,1362.1 656.36,1375.61 860.745,1386.62 1065.13,1335.82 1269.51,1249.44 1473.9,1252.62 1678.29,1379.54 1882.67,1211.02 2087.06,983.287 2291.44,942.395 "/>
</svg>
