<?xml version="1.0" encoding="utf-8"?>
<svg xmlns="http://www.w3.org/2000/svg" xmlns:xlink="http://www.w3.org/1999/xlink" width="600" height="400" viewBox="0 0 2400 1600">
<defs>
  <clipPath id="clip120">
    <rect x="0" y="0" width="2400" height="1600"/>
  </clipPath>
</defs>
<path clip-path="url(#clip120)" d="M0 1600 L2400 1600 L2400 0 L0 0  Z" fill="#ffffff" fill-rule="evenodd" fill-opacity="1"/>
<defs>
  <clipPath id="clip121">
    <rect x="112" y="47" width="2242" height="1440"/>
  </clipPath>
</defs>
<path clip-path="url(#clip120)" d="M112.177 1486.45 L2352.76 1486.45 L2352.76 47.2441 L112.177 47.2441  Z" fill="#ffffff" fill-rule="evenodd" fill-opacity="1"/>
<polyline clip-path="url(#clip121)" style="stroke:#000000; stroke-linecap:round; stroke-linejoin:round; stroke-width:2; stroke-opacity:0.1; fill:none" points="175.59,1486.45 175.59,47.2441 "/>
<polyline clip-path="url(#clip121)" style="stroke:#000000; stroke-linecap:round; stroke-linejoin:round; stroke-width:2; stroke-opacity:0.1; fill:none" points="704.028,1486.45 704.028,47.2441 "/>
<polyline clip-path="url(#clip121)" style="stroke:#000000; stroke-linecap:round; stroke-linejoin:round; stroke-width:2; stroke-opacity:0.1; fill:none" points="1232.47,1486.45 1232.47,47.2441 "/>
<polyline clip-path="url(#clip121)" style="stroke:#000000; stroke-linecap:round; stroke-linejoin:round; stroke-width:2; stroke-opacity:0.1; fill:none" points="1760.9,1486.45 1760.9,47.2441 "/>
<polyline clip-path="url(#clip121)" style="stroke:#000000; stroke-linecap:round; stroke-linejoin:round; stroke-width:2; stroke-opacity:0.1; fill:none" points="2289.34,1486.45 2289.34,47.2441 "/>
<polyline clip-path="url(#clip121)" style="stroke:#000000; stroke-linecap:round; stroke-linejoin:round; stroke-width:2; stroke-opacity:0.1; fill:none" points="112.177,1458.27 2352.76,1458.27 "/>
<polyline clip-path="url(#clip121)" style="stroke:#000000; stroke-linecap:round; stroke-linejoin:round; stroke-width:2; stroke-opacity:0.1; fill:none" points="112.177,1160.29 2352.76,1160.29 "/>
<polyline clip-path="url(#clip121)" style="stroke:#000000; stroke-linecap:round; stroke-linejoin:round; stroke-width:2; stroke-opacity:0.1; fill:none" points="112.177,862.315 2352.76,862.315 "/>
<polyline clip-path="url(#clip121)" style="stroke:#000000; stroke-linecap:round; stroke-linejoin:round; stroke-width:2; stroke-opacity:0.1; fill:none" points="112.177,564.338 2352.76,564.338 "/>
<polyline clip-path="url(#clip121)" style="stroke:#000000; stroke-linecap:round; stroke-linejoin:round; stroke-width:2; stroke-opacity:0.1; fill:none" points="112.177,266.36 2352.76,266.36 "/>
<polyline clip-path="url(#clip120)" style="stroke:#000000; stroke-linecap:round; stroke-linejoin:round; stroke-width:4; stroke-opacity:1; fill:none" points="112.177,1486.45 2352.76,1486.45 "/>
<polyline clip-path="url(#clip120)" style="stroke:#000000; stroke-linecap:round; stroke-linejoin:round; stroke-width:4; stroke-opacity:1; fill:none" points="175.59,1486.45 175.59,1467.55 "/>
<polyline clip-path="url(#clip120)" style="stroke:#000000; stroke-linecap:round; stroke-linejoin:round; stroke-width:4; stroke-opacity:1; fill:none" points="704.028,1486.45 704.028,1467.55 "/>
<polyline clip-path="url(#clip120)" style="stroke:#000000; stroke-linecap:round; stroke-linejoin:round; stroke-width:4; stroke-opacity:1; fill:none" points="1232.47,1486.45 1232.47,1467.55 "/>
<polyline clip-path="url(#clip120)" style="stroke:#000000; stroke-linecap:round; stroke-linejoin:round; stroke-width:4; stroke-opacity:1; fill:none" points="1760.9,1486.45 1760.9,1467.55 "/>
<polyline clip-path="url(#clip120)" style="stroke:#000000; stroke-linecap:round; stroke-linejoin:round; stroke-width:4; stroke-opacity:1; fill:none" points="2289.34,1486.45 2289.34,1467.55 "/>
<path clip-path="url(#clip120)" d="M152.974 1517.37 Q149.363 1517.37 147.534 1520.93 Q145.729 1524.47 145.729 1531.6 Q145.729 1538.71 147.534 1542.27 Q149.363 1545.82 152.974 1545.82 Q156.608 1545.82 158.414 1542.27 Q160.243 1538.71 160.243 1531.6 Q160.243 1524.47 158.414 1520.93 Q156.608 1517.37 152.974 1517.37 M152.974 1513.66 Q158.784 1513.66 161.84 1518.27 Q164.919 1522.85 164.919 1531.6 Q164.919 1540.33 161.84 1544.94 Q158.784 1549.52 152.974 1549.52 Q147.164 1549.52 144.085 1544.94 Q141.03 1540.33 141.03 1531.6 Q141.03 1522.85 144.085 1518.27 Q147.164 1513.66 152.974 1513.66 Z" fill="#000000" fill-rule="nonzero" fill-opacity="1" /><path clip-path="url(#clip120)" d="M173.136 1542.97 L178.02 1542.97 L178.02 1548.85 L173.136 1548.85 L173.136 1542.97 Z" fill="#000000" fill-rule="nonzero" fill-opacity="1" /><path clip-path="url(#clip120)" d="M198.205 1517.37 Q194.594 1517.37 192.766 1520.93 Q190.96 1524.47 190.96 1531.6 Q190.96 1538.71 192.766 1542.27 Q194.594 1545.82 198.205 1545.82 Q201.84 1545.82 203.645 1542.27 Q205.474 1538.71 205.474 1531.6 Q205.474 1524.47 203.645 1520.93 Q201.84 1517.37 198.205 1517.37 M198.205 1513.66 Q204.016 1513.66 207.071 1518.27 Q210.15 1522.85 210.15 1531.6 Q210.15 1540.33 207.071 1544.94 Q204.016 1549.52 198.205 1549.52 Q192.395 1549.52 189.317 1544.94 Q186.261 1540.33 186.261 1531.6 Q186.261 1522.85 189.317 1518.27 Q192.395 1513.66 198.205 1513.66 Z" fill="#000000" fill-rule="nonzero" fill-opacity="1" /><path clip-path="url(#clip120)" d="M675.764 1544.91 L692.084 1544.91 L692.084 1548.85 L670.139 1548.85 L670.139 1544.91 Q672.801 1542.16 677.385 1537.53 Q681.991 1532.88 683.172 1531.53 Q685.417 1529.01 686.297 1527.27 Q687.2 1525.51 687.2 1523.82 Q687.2 1521.07 685.255 1519.33 Q683.334 1517.6 680.232 1517.6 Q678.033 1517.6 675.579 1518.36 Q673.149 1519.13 670.371 1520.68 L670.371 1515.95 Q673.195 1514.82 675.649 1514.24 Q678.102 1513.66 680.139 1513.66 Q685.51 1513.66 688.704 1516.35 Q691.899 1519.03 691.899 1523.52 Q691.899 1525.65 691.088 1527.57 Q690.301 1529.47 688.195 1532.07 Q687.616 1532.74 684.514 1535.95 Q681.413 1539.15 675.764 1544.91 Z" fill="#000000" fill-rule="nonzero" fill-opacity="1" /><path clip-path="url(#clip120)" d="M701.899 1542.97 L706.783 1542.97 L706.783 1548.85 L701.899 1548.85 L701.899 1542.97 Z" fill="#000000" fill-rule="nonzero" fill-opacity="1" /><path clip-path="url(#clip120)" d="M717.014 1514.29 L735.371 1514.29 L735.371 1518.22 L721.297 1518.22 L721.297 1526.7 Q722.315 1526.35 723.334 1526.19 Q724.352 1526 725.371 1526 Q731.158 1526 734.537 1529.17 Q737.917 1532.34 737.917 1537.76 Q737.917 1543.34 734.445 1546.44 Q730.972 1549.52 724.653 1549.52 Q722.477 1549.52 720.209 1549.15 Q717.963 1548.78 715.556 1548.04 L715.556 1543.34 Q717.639 1544.47 719.861 1545.03 Q722.084 1545.58 724.56 1545.58 Q728.565 1545.58 730.903 1543.48 Q733.241 1541.37 733.241 1537.76 Q733.241 1534.15 730.903 1532.04 Q728.565 1529.94 724.56 1529.94 Q722.685 1529.94 720.81 1530.35 Q718.959 1530.77 717.014 1531.65 L717.014 1514.29 Z" fill="#000000" fill-rule="nonzero" fill-opacity="1" /><path clip-path="url(#clip120)" d="M1199.63 1514.29 L1217.99 1514.29 L1217.99 1518.22 L1203.91 1518.22 L1203.91 1526.7 Q1204.93 1526.35 1205.95 1526.19 Q1206.97 1526 1207.99 1526 Q1213.77 1526 1217.15 1529.17 Q1220.53 1532.34 1220.53 1537.76 Q1220.53 1543.34 1217.06 1546.44 Q1213.59 1549.52 1207.27 1549.52 Q1205.09 1549.52 1202.83 1549.15 Q1200.58 1548.78 1198.17 1548.04 L1198.17 1543.34 Q1200.26 1544.47 1202.48 1545.03 Q1204.7 1545.58 1207.18 1545.58 Q1211.18 1545.58 1213.52 1543.48 Q1215.86 1541.37 1215.86 1537.76 Q1215.86 1534.15 1213.52 1532.04 Q1211.18 1529.94 1207.18 1529.94 Q1205.3 1529.94 1203.43 1530.35 Q1201.58 1530.77 1199.63 1531.65 L1199.63 1514.29 Z" fill="#000000" fill-rule="nonzero" fill-opacity="1" /><path clip-path="url(#clip120)" d="M1229.75 1542.97 L1234.63 1542.97 L1234.63 1548.85 L1229.75 1548.85 L1229.75 1542.97 Z" fill="#000000" fill-rule="nonzero" fill-opacity="1" /><path clip-path="url(#clip120)" d="M1254.82 1517.37 Q1251.2 1517.37 1249.38 1520.93 Q1247.57 1524.47 1247.57 1531.6 Q1247.57 1538.71 1249.38 1542.27 Q1251.2 1545.82 1254.82 1545.82 Q1258.45 1545.82 1260.26 1542.27 Q1262.08 1538.71 1262.08 1531.6 Q1262.08 1524.47 1260.26 1520.93 Q1258.45 1517.37 1254.82 1517.37 M1254.82 1513.66 Q1260.63 1513.66 1263.68 1518.27 Q1266.76 1522.85 1266.76 1531.6 Q1266.76 1540.33 1263.68 1544.94 Q1260.63 1549.52 1254.82 1549.52 Q1249.01 1549.52 1245.93 1544.94 Q1242.87 1540.33 1242.87 1531.6 Q1242.87 1522.85 1245.93 1518.27 Q1249.01 1513.66 1254.82 1513.66 Z" fill="#000000" fill-rule="nonzero" fill-opacity="1" /><path clip-path="url(#clip120)" d="M1727.22 1514.29 L1749.45 1514.29 L1749.45 1516.28 L1736.9 1548.85 L1732.02 1548.85 L1743.82 1518.22 L1727.22 1518.22 L1727.22 1514.29 Z" fill="#000000" fill-rule="nonzero" fill-opacity="1" /><path clip-path="url(#clip120)" d="M1758.57 1542.97 L1763.45 1542.97 L1763.45 1548.85 L1758.57 1548.85 L1758.57 1542.97 Z" fill="#000000" fill-rule="nonzero" fill-opacity="1" /><path clip-path="url(#clip120)" d="M1773.68 1514.29 L1792.04 1514.29 L1792.04 1518.22 L1777.97 1518.22 L1777.97 1526.7 Q1778.98 1526.35 1780 1526.19 Q1781.02 1526 1782.04 1526 Q1787.83 1526 1791.21 1529.17 Q1794.59 1532.34 1794.59 1537.76 Q1794.59 1543.34 1791.11 1546.44 Q1787.64 1549.52 1781.32 1549.52 Q1779.15 1549.52 1776.88 1549.15 Q1774.63 1548.78 1772.22 1548.04 L1772.22 1543.34 Q1774.31 1544.47 1776.53 1545.03 Q1778.75 1545.58 1781.23 1545.58 Q1785.23 1545.58 1787.57 1543.48 Q1789.91 1541.37 1789.91 1537.76 Q1789.91 1534.15 1787.57 1532.04 Q1785.23 1529.94 1781.23 1529.94 Q1779.35 1529.94 1777.48 1530.35 Q1775.63 1530.77 1773.68 1531.65 L1773.68 1514.29 Z" fill="#000000" fill-rule="nonzero" fill-opacity="1" /><path clip-path="url(#clip120)" d="M2241.42 1544.91 L2249.05 1544.91 L2249.05 1518.55 L2240.74 1520.21 L2240.74 1515.95 L2249.01 1514.29 L2253.68 1514.29 L2253.68 1544.91 L2261.32 1544.91 L2261.32 1548.85 L2241.42 1548.85 L2241.42 1544.91 Z" fill="#000000" fill-rule="nonzero" fill-opacity="1" /><path clip-path="url(#clip120)" d="M2280.77 1517.37 Q2277.16 1517.37 2275.33 1520.93 Q2273.52 1524.47 2273.52 1531.6 Q2273.52 1538.71 2275.33 1542.27 Q2277.16 1545.82 2280.77 1545.82 Q2284.4 1545.82 2286.21 1542.27 Q2288.04 1538.71 2288.04 1531.6 Q2288.04 1524.47 2286.21 1520.93 Q2284.4 1517.37 2280.77 1517.37 M2280.77 1513.66 Q2286.58 1513.66 2289.63 1518.27 Q2292.71 1522.85 2292.71 1531.6 Q2292.71 1540.33 2289.63 1544.94 Q2286.58 1549.52 2280.77 1549.52 Q2274.96 1549.52 2271.88 1544.94 Q2268.82 1540.33 2268.82 1531.6 Q2268.82 1522.85 2271.88 1518.27 Q2274.96 1513.66 2280.77 1513.66 Z" fill="#000000" fill-rule="nonzero" fill-opacity="1" /><path clip-path="url(#clip120)" d="M2300.93 1542.97 L2305.81 1542.97 L2305.81 1548.85 L2300.93 1548.85 L2300.93 1542.97 Z" fill="#000000" fill-rule="nonzero" fill-opacity="1" /><path clip-path="url(#clip120)" d="M2326 1517.37 Q2322.39 1517.37 2320.56 1520.93 Q2318.75 1524.47 2318.75 1531.6 Q2318.75 1538.71 2320.56 1542.27 Q2322.39 1545.82 2326 1545.82 Q2329.63 1545.82 2331.44 1542.27 Q2333.27 1538.71 2333.27 1531.6 Q2333.27 1524.47 2331.44 1520.93 Q2329.63 1517.37 2326 1517.37 M2326 1513.66 Q2331.81 1513.66 2334.86 1518.27 Q2337.94 1522.85 2337.94 1531.6 Q2337.94 1540.33 2334.86 1544.94 Q2331.81 1549.52 2326 1549.52 Q2320.19 1549.52 2317.11 1544.94 Q2314.05 1540.33 2314.05 1531.6 Q2314.05 1522.85 2317.11 1518.27 Q2320.19 1513.66 2326 1513.66 Z" fill="#000000" fill-rule="nonzero" fill-opacity="1" /><polyline clip-path="url(#clip120)" style="stroke:#000000; stroke-linecap:round; stroke-linejoin:round; stroke-width:4; stroke-opacity:1; fill:none" points="112.177,1486.45 112.177,47.2441 "/>
<polyline clip-path="url(#clip120)" style="stroke:#000000; stroke-linecap:round; stroke-linejoin:round; stroke-width:4; stroke-opacity:1; fill:none" points="112.177,1458.27 131.075,1458.27 "/>
<polyline clip-path="url(#clip120)" style="stroke:#000000; stroke-linecap:round; stroke-linejoin:round; stroke-width:4; stroke-opacity:1; fill:none" points="112.177,1160.29 131.075,1160.29 "/>
<polyline clip-path="url(#clip120)" style="stroke:#000000; stroke-linecap:round; stroke-linejoin:round; stroke-width:4; stroke-opacity:1; fill:none" points="112.177,862.315 131.075,862.315 "/>
<polyline clip-path="url(#clip120)" style="stroke:#000000; stroke-linecap:round; stroke-linejoin:round; stroke-width:4; stroke-opacity:1; fill:none" points="112.177,564.338 131.075,564.338 "/>
<polyline clip-path="url(#clip120)" style="stroke:#000000; stroke-linecap:round; stroke-linejoin:round; stroke-width:4; stroke-opacity:1; fill:none" points="112.177,266.36 131.075,266.36 "/>
<path clip-path="url(#clip120)" d="M64.2328 1444.07 Q60.6217 1444.07 58.793 1447.63 Q56.9875 1451.17 56.9875 1458.3 Q56.9875 1465.41 58.793 1468.98 Q60.6217 1472.52 64.2328 1472.52 Q67.867 1472.52 69.6726 1468.98 Q71.5013 1465.41 71.5013 1458.3 Q71.5013 1451.17 69.6726 1447.63 Q67.867 1444.07 64.2328 1444.07 M64.2328 1440.36 Q70.0429 1440.36 73.0985 1444.97 Q76.1772 1449.55 76.1772 1458.3 Q76.1772 1467.03 73.0985 1471.64 Q70.0429 1476.22 64.2328 1476.22 Q58.4226 1476.22 55.344 1471.64 Q52.2884 1467.03 52.2884 1458.3 Q52.2884 1449.55 55.344 1444.97 Q58.4226 1440.36 64.2328 1440.36 Z" fill="#000000" fill-rule="nonzero" fill-opacity="1" /><path clip-path="url(#clip120)" d="M59.8578 1173.64 L76.1772 1173.64 L76.1772 1177.57 L54.2328 1177.57 L54.2328 1173.64 Q56.8949 1170.88 61.4782 1166.25 Q66.0846 1161.6 67.2652 1160.26 Q69.5105 1157.73 70.3902 1156 Q71.2929 1154.24 71.2929 1152.55 Q71.2929 1149.79 69.3485 1148.06 Q67.4272 1146.32 64.3254 1146.32 Q62.1263 1146.32 59.6726 1147.09 Q57.2421 1147.85 54.4643 1149.4 L54.4643 1144.68 Q57.2884 1143.54 59.7421 1142.97 Q62.1958 1142.39 64.2328 1142.39 Q69.6031 1142.39 72.7976 1145.07 Q75.992 1147.76 75.992 1152.25 Q75.992 1154.38 75.1818 1156.3 Q74.3948 1158.2 72.2883 1160.79 Q71.7096 1161.46 68.6078 1164.68 Q65.5059 1167.87 59.8578 1173.64 Z" fill="#000000" fill-rule="nonzero" fill-opacity="1" /><path clip-path="url(#clip120)" d="M66.5939 849.109 L54.7884 867.558 L66.5939 867.558 L66.5939 849.109 M65.367 845.035 L71.2466 845.035 L71.2466 867.558 L76.1772 867.558 L76.1772 871.447 L71.2466 871.447 L71.2466 879.595 L66.5939 879.595 L66.5939 871.447 L50.9921 871.447 L50.9921 866.933 L65.367 845.035 Z" fill="#000000" fill-rule="nonzero" fill-opacity="1" /><path clip-path="url(#clip120)" d="M64.6495 562.474 Q61.5013 562.474 59.6495 564.627 Q57.8208 566.78 57.8208 570.53 Q57.8208 574.257 59.6495 576.432 Q61.5013 578.585 64.6495 578.585 Q67.7976 578.585 69.6263 576.432 Q71.4781 574.257 71.4781 570.53 Q71.4781 566.78 69.6263 564.627 Q67.7976 562.474 64.6495 562.474 M73.9318 547.822 L73.9318 552.081 Q72.1726 551.247 70.367 550.808 Q68.5846 550.368 66.8254 550.368 Q62.1958 550.368 59.7421 553.493 Q57.3115 556.618 56.9643 562.937 Q58.33 560.923 60.3902 559.859 Q62.4504 558.771 64.9272 558.771 Q70.1355 558.771 73.1448 561.942 Q76.1772 565.09 76.1772 570.53 Q76.1772 575.854 73.029 579.071 Q69.8809 582.289 64.6495 582.289 Q58.6541 582.289 55.4828 577.706 Q52.3116 573.099 52.3116 564.372 Q52.3116 556.178 56.2004 551.317 Q60.0893 546.433 66.6402 546.433 Q68.3994 546.433 70.1818 546.78 Q71.9874 547.127 73.9318 547.822 Z" fill="#000000" fill-rule="nonzero" fill-opacity="1" /><path clip-path="url(#clip120)" d="M64.3254 267.229 Q60.9921 267.229 59.0708 269.011 Q57.1726 270.793 57.1726 273.918 Q57.1726 277.043 59.0708 278.826 Q60.9921 280.608 64.3254 280.608 Q67.6587 280.608 69.58 278.826 Q71.5013 277.02 71.5013 273.918 Q71.5013 270.793 69.58 269.011 Q67.6819 267.229 64.3254 267.229 M59.6495 265.238 Q56.6402 264.497 54.9504 262.437 Q53.2838 260.377 53.2838 257.414 Q53.2838 253.27 56.2236 250.863 Q59.1865 248.455 64.3254 248.455 Q69.4874 248.455 72.4272 250.863 Q75.367 253.27 75.367 257.414 Q75.367 260.377 73.6772 262.437 Q72.0105 264.497 69.0244 265.238 Q72.404 266.025 74.279 268.316 Q76.1772 270.608 76.1772 273.918 Q76.1772 278.941 73.0985 281.627 Q70.0429 284.312 64.3254 284.312 Q58.6078 284.312 55.5291 281.627 Q52.4736 278.941 52.4736 273.918 Q52.4736 270.608 54.3717 268.316 Q56.2699 266.025 59.6495 265.238 M57.9365 257.854 Q57.9365 260.539 59.6032 262.043 Q61.293 263.548 64.3254 263.548 Q67.3346 263.548 69.0244 262.043 Q70.7374 260.539 70.7374 257.854 Q70.7374 255.168 69.0244 253.664 Q67.3346 252.159 64.3254 252.159 Q61.293 252.159 59.6032 253.664 Q57.9365 255.168 57.9365 257.854 Z" fill="#000000" fill-rule="nonzero" fill-opacity="1" /><path clip-path="url(#clip121)" d="M175.59 1309.28 L196.727 1313.74 L217.865 1311.85 L239.002 1297.41 L260.14 1287.67 L281.277 1268.65 L302.415 1245.13 L323.553 1213.92 L344.69 1170.68 L365.828 1151.02 L386.965 1103.32 L408.103 1036.58 L429.24 994.273 L450.378 945.168 L471.515 850.269 L492.653 798.745 L513.79 701.151 L534.928 607.35 L556.065 553.877 L577.203 598.952 L598.34 675.385 L619.478 884.468 L640.616 1059.46 L661.753 1214.77 L682.891 1284.85 L704.028 1330.8 L725.166 1355 L746.303 1372.5 L767.441 1382.05 L788.578 1386.07 L809.716 1380.63 L830.853 1379.41 L851.991 1372.16 L873.128 1370.02 L894.266 1364.81 L915.404 1349.56 L936.541 1335.72 L957.679 1327.68 L978.816 1300.38 L999.954 1265.41 L1021.09 1248.6 L1042.23 1224.7 L1063.37 1207.41 L1084.5 1154.04 L1105.64 1141.38 L1126.78 1091.14 L1147.92 1005.09 L1169.05 923.237 L1190.19 865.487 L1211.33 856.603 L1232.47 846.441 L1253.6 816.48 L1274.74 862.453 L1295.88 877.789 L1317.02 948.452 L1338.15 1009.75 L1359.29 1048.57 L1380.43 1123.52 L1401.57 1187 L1422.7 1235.55 L1443.84 1266.79 L1464.98 1300.06 L1486.12 1340.96 L1507.25 1364.11 L1528.39 1374.08 L1549.53 1376.48 L1570.67 1386.1 L1591.8 1386.3 L1612.94 1384.38 L1634.08 1378.41 L1655.22 1373.58 L1676.35 1367.64 L1697.49 1358.54 L1718.63 1345.02 L1739.77 1329.92 L1760.9 1314.83 L1782.04 1292.61 L1803.18 1273.44 L1824.32 1252.74 L1845.46 1229.5 L1866.59 1173.27 L1887.73 1116.6 L1908.87 1065.63 L1930.01 1061.96 L1951.14 1058.19 L1972.28 1067.5 L1993.42 1087.8 L2014.56 1134.84 L2035.69 1170.86 L2056.83 1208.31 L2077.97 1259.28 L2099.11 1291.86 L2120.24 1308.38 L2141.38 1314.52 L2162.52 1315.76 L2183.66 1324.89 L2204.79 1335.53 L2225.93 1342.51 L2247.07 1362.11 L2268.21 1381.86 L2289.34 1384.6 L2289.34 1132.31 L2268.21 1128.8 L2247.07 1013.2 L2225.93 838.767 L2204.79 612.524 L2183.66 427.466 L2162.52 340.294 L2141.38 273.036 L2120.24 265.615 L2099.11 322.795 L2077.97 261.629 L2056.83 309.804 L2035.69 354.112 L2014.56 420.667 L1993.42 460.083 L1972.28 376.166 L1951.14 391.913 L1930.01 474.283 L1908.87 501.444 L1887.73 543.51 L1866.59 596.875 L1845.46 653.091 L1824.32 727.219 L1803.18 765.742 L1782.04 795.674 L1760.9 844.824 L1739.77 873.647 L1718.63 944.23 L1697.49 991.269 L1676.35 1017.17 L1655.22 1050.44 L1634.08 1084.19 L1612.94 1123.13 L1591.8 1136.51 L1570.67 1163.61 L1549.53 1178.83 L1528.39 1182.58 L1507.25 1175.43 L1486.12 1158.06 L1464.98 1125.35 L1443.84 1068.46 L1422.7 939.53 L1401.57 776.129 L1380.43 514.44 L1359.29 292.261 L1338.15 158.679 L1317.02 87.9763 L1295.88 132.645 L1274.74 295.244 L1253.6 373.295 L1232.47 540.302 L1211.33 598.408 L1190.19 637.951 L1169.05 692.727 L1147.92 757.747 L1126.78 836.982 L1105.64 866.218 L1084.5 897.641 L1063.37 966.057 L1042.23 1031.81 L1021.09 1046.4 L999.954 1062.4 L978.816 1082 L957.679 1095.37 L936.541 1116.95 L915.404 1148.82 L894.266 1186.96 L873.128 1195.02 L851.991 1216.44 L830.853 1225.83 L809.716 1238.93 L788.578 1240.49 L767.441 1235.05 L746.303 1194.92 L725.166 1150.55 L704.028 1004.34 L682.891 841.829 L661.753 627.077 L640.616 444.276 L619.478 308.11 L598.34 255.499 L577.203 224.059 L556.065 235.554 L534.928 266.99 L513.79 340.709 L492.653 506.792 L471.515 620.748 L450.378 707.346 L429.24 822.983 L408.103 905.795 L386.965 963.796 L365.828 1028.81 L344.69 1076.32 L323.553 1133.25 L302.415 1175.04 L281.277 1206.02 L260.14 1240.4 L239.002 1254.92 L217.865 1268.47 L196.727 1278.84 L175.59 1309.28  Z" fill="#009af9" fill-rule="evenodd" fill-opacity="0.5"/>
<polyline clip-path="url(#clip121)" style="stroke:#009af9; stroke-linecap:round; stroke-linejoin:round; stroke-width:12; stroke-opacity:1; fill:none" points="175.59,1309.28 196.727,1299.23 217.865,1284.97 239.002,1269.69 260.14,1256.12 281.277,1226.06 302.415,1200.32 323.553,1172.49 344.69,1139.3 365.828,1078.46 386.965,1014.98 408.103,945.935 429.24,869.026 450.378,824.505 471.515,743.516 492.653,683.353 513.79,609.108 534.928,551.208 556.065,411.62 577.203,381.136 598.34,459.17 619.478,573.46 640.616,720.16 661.753,915.705 682.891,1082.46 704.028,1166.95 725.166,1229.29 746.303,1274.17 767.441,1299.29 788.578,1322.45 809.716,1333.92 830.853,1336.74 851.991,1333.54 873.128,1324.92 894.266,1319.07 915.404,1304.05 936.541,1298.38 957.679,1280.71 978.816,1257.05 999.954,1238.26 1021.09,1210.82 1042.23,1183.52 1063.37,1152.22 1084.5,1119.92 1105.64,1070.3 1126.78,1022.61 1147.92,951.762 1169.05,891.38 1190.19,804.078 1211.33,703.608 1232.47,610.83 1253.6,554.121 1274.74,482.194 1295.88,413.287 1317.02,408.052 1338.15,474.487 1359.29,562.793 1380.43,760.609 1401.57,905.708 1422.7,1093.56 1443.84,1167.92 1464.98,1231.58 1486.12,1287.03 1507.25,1316.77 1528.39,1320.19 1549.53,1318.91 1570.67,1313.81 1591.8,1307.07 1612.94,1296.11 1634.08,1277.92 1655.22,1265.29 1676.35,1250.03 1697.49,1223.62 1718.63,1199.58 1739.77,1181.45 1760.9,1154.31 1782.04,1144.89 1803.18,1100.59 1824.32,1065.09 1845.46,1038.31 1866.59,985.445 1887.73,959.361 1908.87,906.458 1930.01,806.433 1951.14,770.189 1972.28,705.512 1993.42,685.885 2014.56,696.09 2035.69,667.03 2056.83,600.669 2077.97,535.149 2099.11,675.369 2120.24,857.127 2141.38,1014.62 2162.52,1116.94 2183.66,1183.44 2204.79,1186.16 2225.93,1244.9 2247.07,1271.95 2268.21,1300.4 2289.34,1313.19 "/>
<path clip-path="url(#clip121)" d="M175.59 1309.28 L196.727 1343.24 L217.865 1366.65 L239.002 1388.16 L260.14 1401.47 L281.277 1405.91 L302.415 1416.65 L323.553 1421.85 L344.69 1421.34 L365.828 1425.62 L386.965 1427.97 L408.103 1428.55 L429.24 1430.23 L450.378 1429.68 L471.515 1427.12 L492.653 1422.68 L513.79 1417.39 L534.928 1402.15 L556.065 1375.73 L577.203 1336.58 L598.34 1276.58 L619.478 1166.2 L640.616 1026.9 L661.753 923.206 L682.891 892.986 L704.028 1006.59 L725.166 1078.54 L746.303 1149.78 L767.441 1165.82 L788.578 1226.57 L809.716 1269.74 L830.853 1314.99 L851.991 1338.42 L873.128 1352.81 L894.266 1379.62 L915.404 1395.19 L936.541 1406.79 L957.679 1415.5 L978.816 1423.85 L999.954 1428.52 L1021.09 1434.99 L1042.23 1439.6 L1063.37 1440.32 L1084.5 1441.9 L1105.64 1442.65 L1126.78 1443.18 L1147.92 1443.12 L1169.05 1442.53 L1190.19 1441.1 L1211.33 1437.91 L1232.47 1431.54 L1253.6 1420.35 L1274.74 1401.16 L1295.88 1360.97 L1317.02 1294.66 L1338.15 1219.38 L1359.29 1170.93 L1380.43 1124.47 L1401.57 1101.56 L1422.7 1096.44 L1443.84 1158.88 L1464.98 1188.21 L1486.12 1205.72 L1507.25 1264.26 L1528.39 1308.34 L1549.53 1337.72 L1570.67 1358.84 L1591.8 1375.69 L1612.94 1384.75 L1634.08 1394.96 L1655.22 1399.98 L1676.35 1408.09 L1697.49 1413.86 L1718.63 1419.35 L1739.77 1424.8 L1760.9 1429.18 L1782.04 1433.07 L1803.18 1437.22 L1824.32 1441.33 L1845.46 1443.3 L1866.59 1444.76 L1887.73 1445.44 L1908.87 1445.72 L1930.01 1445.57 L1951.14 1443.93 L1972.28 1441.35 L1993.42 1437.85 L2014.56 1433.08 L2035.69 1425.49 L2056.83 1411.53 L2077.97 1387.09 L2099.11 1344.5 L2120.24 1345.63 L2141.38 1333.09 L2162.52 1295.55 L2183.66 1301.15 L2204.79 1310.39 L2225.93 1331.04 L2247.07 1350.81 L2268.21 1372.19 L2289.34 1386.4 L2289.34 822.549 L2268.21 690.172 L2247.07 632.4 L2225.93 677.06 L2204.79 705.93 L2183.66 680.461 L2162.52 647.229 L2141.38 669.626 L2120.24 687.636 L2099.11 736.423 L2077.97 801.885 L2056.83 781.249 L2035.69 708.298 L2014.56 724.476 L1993.42 859.217 L1972.28 999.451 L1951.14 999.997 L1930.01 1066.82 L1908.87 1084.21 L1887.73 1101.39 L1866.59 1143.89 L1845.46 1218.68 L1824.32 1271.68 L1803.18 1298.11 L1782.04 1326.18 L1760.9 1332.75 L1739.77 1345.87 L1718.63 1347.25 L1697.49 1348.51 L1676.35 1338.5 L1655.22 1319.43 L1634.08 1298.34 L1612.94 1258.74 L1591.8 1240.15 L1570.67 1195.15 L1549.53 1142.86 L1528.39 1073.74 L1507.25 997.924 L1486.12 835.44 L1464.98 770.875 L1443.84 707.46 L1422.7 626.206 L1401.57 639.202 L1380.43 745.939 L1359.29 809.322 L1338.15 867.103 L1317.02 955.848 L1295.88 1044.07 L1274.74 1135.45 L1253.6 1163.04 L1232.47 1194.27 L1211.33 1247.44 L1190.19 1285.15 L1169.05 1305.97 L1147.92 1328.48 L1126.78 1342.67 L1105.64 1352.97 L1084.5 1373.86 L1063.37 1381.03 L1042.23 1378.29 L1021.09 1369.84 L999.954 1367.34 L978.816 1358.26 L957.679 1357.27 L936.541 1342.52 L915.404 1328.77 L894.266 1296.99 L873.128 1256.17 L851.991 1196.92 L830.853 1132.73 L809.716 1068.94 L788.578 975.137 L767.441 904.837 L746.303 807.806 L725.166 754.06 L704.028 665.082 L682.891 612.238 L661.753 578.165 L640.616 496.88 L619.478 557.946 L598.34 715.974 L577.203 1000.39 L556.065 1147.97 L534.928 1248.31 L513.79 1319.87 L492.653 1355.63 L471.515 1381.07 L450.378 1395.23 L429.24 1402.98 L408.103 1409.74 L386.965 1409.79 L365.828 1411.82 L344.69 1410.06 L323.553 1405.15 L302.415 1397.19 L281.277 1387.25 L260.14 1376.16 L239.002 1362.29 L217.865 1351.2 L196.727 1329.79 L175.59 1309.28  Z" fill="#e26f46" fill-rule="evenodd" fill-opacity="0.5"/>
<polyline clip-path="url(#clip121)" style="stroke:#e26f46; stroke-linecap:round; stroke-linejoin:round; stroke-width:12; stroke-opacity:1; fill:none" points="175.59,1309.28 196.727,1335.12 217.865,1357.92 239.002,1375.7 260.14,1385.52 281.277,1395.27 302.415,1404.37 323.553,1412.77 344.69,1418.42 365.828,1419.28 386.965,1420.23 408.103,1417.89 429.24,1415.55 450.378,1409.69 471.515,1403.64 492.653,1391.5 513.79,1375.61 534.928,1345.2 556.065,1296.82 577.203,1207.86 598.34,1097.56 619.478,972.404 640.616,861.159 661.753,765.356 682.891,761.578 704.028,814.407 725.166,894.451 746.303,946.205 767.441,1047.72 788.578,1124.98 809.716,1211.7 830.853,1251.24 851.991,1288.89 873.128,1316.86 894.266,1344.23 915.404,1363.7 936.541,1380.69 957.679,1397.68 978.816,1405.36 999.954,1411.42 1021.09,1416.65 1042.23,1419.76 1063.37,1421.36 1084.5,1424.89 1105.64,1427.28 1126.78,1427.22 1147.92,1425.09 1169.05,1421.89 1190.19,1419.27 1211.33,1414.85 1232.47,1405.69 1253.6,1387.55 1274.74,1364.15 1295.88,1321.52 1317.02,1244.41 1338.15,1138.83 1359.29,972.684 1380.43,878.81 1401.57,823.095 1422.7,814.797 1443.84,841 1464.98,897.342 1486.12,972.631 1507.25,1079.46 1528.39,1150.14 1549.53,1208.48 1570.67,1259.02 1591.8,1288.08 1612.94,1311.2 1634.08,1344.13 1655.22,1364.25 1676.35,1386.58 1697.49,1391.22 1718.63,1398.23 1739.77,1407.7 1760.9,1415.04 1782.04,1419.31 1803.18,1422.17 1824.32,1422.64 1845.46,1420.49 1866.59,1418.76 1887.73,1420.73 1908.87,1419.49 1930.01,1416.5 1951.14,1407.07 1972.28,1391.52 1993.42,1374.02 2014.56,1338.04 2035.69,1274.51 2056.83,1219.27 2077.97,1202.41 2099.11,1070.8 2120.24,1052.04 2141.38,990.784 2162.52,955.133 2183.66,1006.54 2204.79,897.549 2225.93,954.607 2247.07,1035.92 2268.21,1111 2289.34,1184.57 "/>
</svg>
