<?xml version="1.0" encoding="utf-8"?>
<svg xmlns="http://www.w3.org/2000/svg" xmlns:xlink="http://www.w3.org/1999/xlink" width="600" height="400" viewBox="0 0 2400 1600">
<defs>
  <clipPath id="clip180">
    <rect x="0" y="0" width="2400" height="1600"/>
  </clipPath>
</defs>
<path clip-path="url(#clip180)" d="M0 1600 L2400 1600 L2400 0 L0 0  Z" fill="#ffffff" fill-rule="evenodd" fill-opacity="1"/>
<defs>
  <clipPath id="clip181">
    <rect x="156" y="47" width="2197" height="1440"/>
  </clipPath>
</defs>
<path clip-path="url(#clip180)" d="M156.274 1486.45 L2352.76 1486.45 L2352.76 47.2441 L156.274 47.2441  Z" fill="#ffffff" fill-rule="evenodd" fill-opacity="1"/>
<polyline clip-path="url(#clip181)" style="stroke:#000000; stroke-linecap:round; stroke-linejoin:round; stroke-width:2; stroke-opacity:0.1; fill:none" points="218.439,1486.45 218.439,47.2441 "/>
<polyline clip-path="url(#clip181)" style="stroke:#000000; stroke-linecap:round; stroke-linejoin:round; stroke-width:2; stroke-opacity:0.1; fill:none" points="736.477,1486.45 736.477,47.2441 "/>
<polyline clip-path="url(#clip181)" style="stroke:#000000; stroke-linecap:round; stroke-linejoin:round; stroke-width:2; stroke-opacity:0.1; fill:none" points="1254.52,1486.45 1254.52,47.2441 "/>
<polyline clip-path="url(#clip181)" style="stroke:#000000; stroke-linecap:round; stroke-linejoin:round; stroke-width:2; stroke-opacity:0.1; fill:none" points="1772.55,1486.45 1772.55,47.2441 "/>
<polyline clip-path="url(#clip181)" style="stroke:#000000; stroke-linecap:round; stroke-linejoin:round; stroke-width:2; stroke-opacity:0.1; fill:none" points="2290.59,1486.45 2290.59,47.2441 "/>
<polyline clip-path="url(#clip181)" style="stroke:#000000; stroke-linecap:round; stroke-linejoin:round; stroke-width:2; stroke-opacity:0.1; fill:none" points="156.274,1346.93 2352.76,1346.93 "/>
<polyline clip-path="url(#clip181)" style="stroke:#000000; stroke-linecap:round; stroke-linejoin:round; stroke-width:2; stroke-opacity:0.1; fill:none" points="156.274,1083.22 2352.76,1083.22 "/>
<polyline clip-path="url(#clip181)" style="stroke:#000000; stroke-linecap:round; stroke-linejoin:round; stroke-width:2; stroke-opacity:0.1; fill:none" points="156.274,819.516 2352.76,819.516 "/>
<polyline clip-path="url(#clip181)" style="stroke:#000000; stroke-linecap:round; stroke-linejoin:round; stroke-width:2; stroke-opacity:0.1; fill:none" points="156.274,555.81 2352.76,555.81 "/>
<polyline clip-path="url(#clip181)" style="stroke:#000000; stroke-linecap:round; stroke-linejoin:round; stroke-width:2; stroke-opacity:0.1; fill:none" points="156.274,292.105 2352.76,292.105 "/>
<polyline clip-path="url(#clip180)" style="stroke:#000000; stroke-linecap:round; stroke-linejoin:round; stroke-width:4; stroke-opacity:1; fill:none" points="156.274,1486.45 2352.76,1486.45 "/>
<polyline clip-path="url(#clip180)" style="stroke:#000000; stroke-linecap:round; stroke-linejoin:round; stroke-width:4; stroke-opacity:1; fill:none" points="218.439,1486.45 218.439,1467.55 "/>
<polyline clip-path="url(#clip180)" style="stroke:#000000; stroke-linecap:round; stroke-linejoin:round; stroke-width:4; stroke-opacity:1; fill:none" points="736.477,1486.45 736.477,1467.55 "/>
<polyline clip-path="url(#clip180)" style="stroke:#000000; stroke-linecap:round; stroke-linejoin:round; stroke-width:4; stroke-opacity:1; fill:none" points="1254.52,1486.45 1254.52,1467.55 "/>
<polyline clip-path="url(#clip180)" style="stroke:#000000; stroke-linecap:round; stroke-linejoin:round; stroke-width:4; stroke-opacity:1; fill:none" points="1772.55,1486.45 1772.55,1467.55 "/>
<polyline clip-path="url(#clip180)" style="stroke:#000000; stroke-linecap:round; stroke-linejoin:round; stroke-width:4; stroke-opacity:1; fill:none" points="2290.59,1486.45 2290.59,1467.55 "/>
<path clip-path="url(#clip180)" d="M180.742 1517.37 Q177.131 1517.37 175.302 1520.93 Q173.497 1524.47 173.497 1531.6 Q173.497 1538.71 175.302 1542.27 Q177.131 1545.82 180.742 1545.82 Q184.376 1545.82 186.182 1542.27 Q188.011 1538.71 188.011 1531.6 Q188.011 1524.47 186.182 1520.93 Q184.376 1517.37 180.742 1517.37 M180.742 1513.66 Q186.552 1513.66 189.608 1518.27 Q192.687 1522.85 192.687 1531.6 Q192.687 1540.33 189.608 1544.94 Q186.552 1549.52 180.742 1549.52 Q174.932 1549.52 171.853 1544.94 Q168.798 1540.33 168.798 1531.6 Q168.798 1522.85 171.853 1518.27 Q174.932 1513.66 180.742 1513.66 Z" fill="#000000" fill-rule="nonzero" fill-opacity="1" /><path clip-path="url(#clip180)" d="M200.904 1542.97 L205.788 1542.97 L205.788 1548.85 L200.904 1548.85 L200.904 1542.97 Z" fill="#000000" fill-rule="nonzero" fill-opacity="1" /><path clip-path="url(#clip180)" d="M225.973 1517.37 Q222.362 1517.37 220.534 1520.93 Q218.728 1524.47 218.728 1531.6 Q218.728 1538.71 220.534 1542.27 Q222.362 1545.82 225.973 1545.82 Q229.608 1545.82 231.413 1542.27 Q233.242 1538.71 233.242 1531.6 Q233.242 1524.47 231.413 1520.93 Q229.608 1517.37 225.973 1517.37 M225.973 1513.66 Q231.784 1513.66 234.839 1518.27 Q237.918 1522.85 237.918 1531.6 Q237.918 1540.33 234.839 1544.94 Q231.784 1549.52 225.973 1549.52 Q220.163 1549.52 217.085 1544.94 Q214.029 1540.33 214.029 1531.6 Q214.029 1522.85 217.085 1518.27 Q220.163 1513.66 225.973 1513.66 Z" fill="#000000" fill-rule="nonzero" fill-opacity="1" /><path clip-path="url(#clip180)" d="M256.135 1517.37 Q252.524 1517.37 250.696 1520.93 Q248.89 1524.47 248.89 1531.6 Q248.89 1538.71 250.696 1542.27 Q252.524 1545.82 256.135 1545.82 Q259.77 1545.82 261.575 1542.27 Q263.404 1538.71 263.404 1531.6 Q263.404 1524.47 261.575 1520.93 Q259.77 1517.37 256.135 1517.37 M256.135 1513.66 Q261.945 1513.66 265.001 1518.27 Q268.08 1522.85 268.08 1531.6 Q268.08 1540.33 265.001 1544.94 Q261.945 1549.52 256.135 1549.52 Q250.325 1549.52 247.246 1544.94 Q244.191 1540.33 244.191 1531.6 Q244.191 1522.85 247.246 1518.27 Q250.325 1513.66 256.135 1513.66 Z" fill="#000000" fill-rule="nonzero" fill-opacity="1" /><path clip-path="url(#clip180)" d="M699.278 1517.37 Q695.667 1517.37 693.838 1520.93 Q692.033 1524.47 692.033 1531.6 Q692.033 1538.71 693.838 1542.27 Q695.667 1545.82 699.278 1545.82 Q702.912 1545.82 704.718 1542.27 Q706.546 1538.71 706.546 1531.6 Q706.546 1524.47 704.718 1520.93 Q702.912 1517.37 699.278 1517.37 M699.278 1513.66 Q705.088 1513.66 708.144 1518.27 Q711.222 1522.85 711.222 1531.6 Q711.222 1540.33 708.144 1544.94 Q705.088 1549.52 699.278 1549.52 Q693.468 1549.52 690.389 1544.94 Q687.334 1540.33 687.334 1531.6 Q687.334 1522.85 690.389 1518.27 Q693.468 1513.66 699.278 1513.66 Z" fill="#000000" fill-rule="nonzero" fill-opacity="1" /><path clip-path="url(#clip180)" d="M719.44 1542.97 L724.324 1542.97 L724.324 1548.85 L719.44 1548.85 L719.44 1542.97 Z" fill="#000000" fill-rule="nonzero" fill-opacity="1" /><path clip-path="url(#clip180)" d="M738.537 1544.91 L754.856 1544.91 L754.856 1548.85 L732.912 1548.85 L732.912 1544.91 Q735.574 1542.16 740.157 1537.53 Q744.764 1532.88 745.944 1531.53 Q748.19 1529.01 749.069 1527.27 Q749.972 1525.51 749.972 1523.82 Q749.972 1521.07 748.028 1519.33 Q746.106 1517.6 743.005 1517.6 Q740.806 1517.6 738.352 1518.36 Q735.921 1519.13 733.144 1520.68 L733.144 1515.95 Q735.968 1514.82 738.421 1514.24 Q740.875 1513.66 742.912 1513.66 Q748.282 1513.66 751.477 1516.35 Q754.671 1519.03 754.671 1523.52 Q754.671 1525.65 753.861 1527.57 Q753.074 1529.47 750.968 1532.07 Q750.389 1532.74 747.287 1535.95 Q744.185 1539.15 738.537 1544.91 Z" fill="#000000" fill-rule="nonzero" fill-opacity="1" /><path clip-path="url(#clip180)" d="M764.717 1514.29 L783.074 1514.29 L783.074 1518.22 L769 1518.22 L769 1526.7 Q770.018 1526.35 771.037 1526.19 Q772.055 1526 773.074 1526 Q778.861 1526 782.241 1529.17 Q785.62 1532.34 785.62 1537.76 Q785.62 1543.34 782.148 1546.44 Q778.676 1549.52 772.356 1549.52 Q770.18 1549.52 767.912 1549.15 Q765.667 1548.78 763.259 1548.04 L763.259 1543.34 Q765.342 1544.47 767.565 1545.03 Q769.787 1545.58 772.264 1545.58 Q776.268 1545.58 778.606 1543.48 Q780.944 1541.37 780.944 1537.76 Q780.944 1534.15 778.606 1532.04 Q776.268 1529.94 772.264 1529.94 Q770.389 1529.94 768.514 1530.35 Q766.662 1530.77 764.717 1531.65 L764.717 1514.29 Z" fill="#000000" fill-rule="nonzero" fill-opacity="1" /><path clip-path="url(#clip180)" d="M1216.82 1517.37 Q1213.21 1517.37 1211.38 1520.93 Q1209.57 1524.47 1209.57 1531.6 Q1209.57 1538.71 1211.38 1542.27 Q1213.21 1545.82 1216.82 1545.82 Q1220.45 1545.82 1222.26 1542.27 Q1224.09 1538.71 1224.09 1531.6 Q1224.09 1524.47 1222.26 1520.93 Q1220.45 1517.37 1216.82 1517.37 M1216.82 1513.66 Q1222.63 1513.66 1225.68 1518.27 Q1228.76 1522.85 1228.76 1531.6 Q1228.76 1540.33 1225.68 1544.94 Q1222.63 1549.52 1216.82 1549.52 Q1211.01 1549.52 1207.93 1544.94 Q1204.87 1540.33 1204.87 1531.6 Q1204.87 1522.85 1207.93 1518.27 Q1211.01 1513.66 1216.82 1513.66 Z" fill="#000000" fill-rule="nonzero" fill-opacity="1" /><path clip-path="url(#clip180)" d="M1236.98 1542.97 L1241.86 1542.97 L1241.86 1548.85 L1236.98 1548.85 L1236.98 1542.97 Z" fill="#000000" fill-rule="nonzero" fill-opacity="1" /><path clip-path="url(#clip180)" d="M1252.1 1514.29 L1270.45 1514.29 L1270.45 1518.22 L1256.38 1518.22 L1256.38 1526.7 Q1257.4 1526.35 1258.42 1526.19 Q1259.43 1526 1260.45 1526 Q1266.24 1526 1269.62 1529.17 Q1273 1532.34 1273 1537.76 Q1273 1543.34 1269.53 1546.44 Q1266.05 1549.52 1259.73 1549.52 Q1257.56 1549.52 1255.29 1549.15 Q1253.05 1548.78 1250.64 1548.04 L1250.64 1543.34 Q1252.72 1544.47 1254.94 1545.03 Q1257.17 1545.58 1259.64 1545.58 Q1263.65 1545.58 1265.98 1543.48 Q1268.32 1541.37 1268.32 1537.76 Q1268.32 1534.15 1265.98 1532.04 Q1263.65 1529.94 1259.64 1529.94 Q1257.77 1529.94 1255.89 1530.35 Q1254.04 1530.77 1252.1 1531.65 L1252.1 1514.29 Z" fill="#000000" fill-rule="nonzero" fill-opacity="1" /><path clip-path="url(#clip180)" d="M1292.21 1517.37 Q1288.6 1517.37 1286.77 1520.93 Q1284.97 1524.47 1284.97 1531.6 Q1284.97 1538.71 1286.77 1542.27 Q1288.6 1545.82 1292.21 1545.82 Q1295.85 1545.82 1297.65 1542.27 Q1299.48 1538.71 1299.48 1531.6 Q1299.48 1524.47 1297.65 1520.93 Q1295.85 1517.37 1292.21 1517.37 M1292.21 1513.66 Q1298.02 1513.66 1301.08 1518.27 Q1304.16 1522.85 1304.16 1531.6 Q1304.16 1540.33 1301.08 1544.94 Q1298.02 1549.52 1292.21 1549.52 Q1286.4 1549.52 1283.32 1544.94 Q1280.27 1540.33 1280.27 1531.6 Q1280.27 1522.85 1283.32 1518.27 Q1286.4 1513.66 1292.21 1513.66 Z" fill="#000000" fill-rule="nonzero" fill-opacity="1" /><path clip-path="url(#clip180)" d="M1735.35 1517.37 Q1731.74 1517.37 1729.91 1520.93 Q1728.11 1524.47 1728.11 1531.6 Q1728.11 1538.71 1729.91 1542.27 Q1731.74 1545.82 1735.35 1545.82 Q1738.99 1545.82 1740.79 1542.27 Q1742.62 1538.71 1742.62 1531.6 Q1742.62 1524.47 1740.79 1520.93 Q1738.99 1517.37 1735.35 1517.37 M1735.35 1513.66 Q1741.16 1513.66 1744.22 1518.27 Q1747.3 1522.85 1747.3 1531.6 Q1747.3 1540.33 1744.22 1544.94 Q1741.16 1549.52 1735.35 1549.52 Q1729.54 1549.52 1726.47 1544.94 Q1723.41 1540.33 1723.41 1531.6 Q1723.41 1522.85 1726.47 1518.27 Q1729.54 1513.66 1735.35 1513.66 Z" fill="#000000" fill-rule="nonzero" fill-opacity="1" /><path clip-path="url(#clip180)" d="M1755.52 1542.97 L1760.4 1542.97 L1760.4 1548.85 L1755.52 1548.85 L1755.52 1542.97 Z" fill="#000000" fill-rule="nonzero" fill-opacity="1" /><path clip-path="url(#clip180)" d="M1769.41 1514.29 L1791.63 1514.29 L1791.63 1516.28 L1779.08 1548.85 L1774.2 1548.85 L1786 1518.22 L1769.41 1518.22 L1769.41 1514.29 Z" fill="#000000" fill-rule="nonzero" fill-opacity="1" /><path clip-path="url(#clip180)" d="M1800.79 1514.29 L1819.15 1514.29 L1819.15 1518.22 L1805.08 1518.22 L1805.08 1526.7 Q1806.09 1526.35 1807.11 1526.19 Q1808.13 1526 1809.15 1526 Q1814.94 1526 1818.32 1529.17 Q1821.7 1532.34 1821.7 1537.76 Q1821.7 1543.34 1818.22 1546.44 Q1814.75 1549.52 1808.43 1549.52 Q1806.26 1549.52 1803.99 1549.15 Q1801.74 1548.78 1799.34 1548.04 L1799.34 1543.34 Q1801.42 1544.47 1803.64 1545.03 Q1805.86 1545.58 1808.34 1545.58 Q1812.34 1545.58 1814.68 1543.48 Q1817.02 1541.37 1817.02 1537.76 Q1817.02 1534.15 1814.68 1532.04 Q1812.34 1529.94 1808.34 1529.94 Q1806.47 1529.94 1804.59 1530.35 Q1802.74 1530.77 1800.79 1531.65 L1800.79 1514.29 Z" fill="#000000" fill-rule="nonzero" fill-opacity="1" /><path clip-path="url(#clip180)" d="M2242.66 1544.91 L2250.3 1544.91 L2250.3 1518.55 L2241.99 1520.21 L2241.99 1515.95 L2250.26 1514.29 L2254.93 1514.29 L2254.93 1544.91 L2262.57 1544.91 L2262.57 1548.85 L2242.66 1548.85 L2242.66 1544.91 Z" fill="#000000" fill-rule="nonzero" fill-opacity="1" /><path clip-path="url(#clip180)" d="M2272.02 1542.97 L2276.9 1542.97 L2276.9 1548.85 L2272.02 1548.85 L2272.02 1542.97 Z" fill="#000000" fill-rule="nonzero" fill-opacity="1" /><path clip-path="url(#clip180)" d="M2297.08 1517.37 Q2293.47 1517.37 2291.64 1520.93 Q2289.84 1524.47 2289.84 1531.6 Q2289.84 1538.71 2291.64 1542.27 Q2293.47 1545.82 2297.08 1545.82 Q2300.72 1545.82 2302.52 1542.27 Q2304.35 1538.71 2304.35 1531.6 Q2304.35 1524.47 2302.52 1520.93 Q2300.72 1517.37 2297.08 1517.37 M2297.08 1513.66 Q2302.89 1513.66 2305.95 1518.27 Q2309.03 1522.85 2309.03 1531.6 Q2309.03 1540.33 2305.95 1544.94 Q2302.89 1549.52 2297.08 1549.52 Q2291.27 1549.52 2288.2 1544.94 Q2285.14 1540.33 2285.14 1531.6 Q2285.14 1522.85 2288.2 1518.27 Q2291.27 1513.66 2297.08 1513.66 Z" fill="#000000" fill-rule="nonzero" fill-opacity="1" /><path clip-path="url(#clip180)" d="M2327.25 1517.37 Q2323.64 1517.37 2321.81 1520.93 Q2320 1524.47 2320 1531.6 Q2320 1538.71 2321.81 1542.27 Q2323.64 1545.82 2327.25 1545.82 Q2330.88 1545.82 2332.69 1542.27 Q2334.51 1538.71 2334.51 1531.6 Q2334.51 1524.47 2332.69 1520.93 Q2330.88 1517.37 2327.25 1517.37 M2327.25 1513.66 Q2333.06 1513.66 2336.11 1518.27 Q2339.19 1522.85 2339.19 1531.6 Q2339.19 1540.33 2336.11 1544.94 Q2333.06 1549.52 2327.25 1549.52 Q2321.44 1549.52 2318.36 1544.94 Q2315.3 1540.33 2315.3 1531.6 Q2315.3 1522.85 2318.36 1518.27 Q2321.44 1513.66 2327.25 1513.66 Z" fill="#000000" fill-rule="nonzero" fill-opacity="1" /><polyline clip-path="url(#clip180)" style="stroke:#000000; stroke-linecap:round; stroke-linejoin:round; stroke-width:4; stroke-opacity:1; fill:none" points="156.274,1486.45 156.274,47.2441 "/>
<polyline clip-path="url(#clip180)" style="stroke:#000000; stroke-linecap:round; stroke-linejoin:round; stroke-width:4; stroke-opacity:1; fill:none" points="156.274,1346.93 175.172,1346.93 "/>
<polyline clip-path="url(#clip180)" style="stroke:#000000; stroke-linecap:round; stroke-linejoin:round; stroke-width:4; stroke-opacity:1; fill:none" points="156.274,1083.22 175.172,1083.22 "/>
<polyline clip-path="url(#clip180)" style="stroke:#000000; stroke-linecap:round; stroke-linejoin:round; stroke-width:4; stroke-opacity:1; fill:none" points="156.274,819.516 175.172,819.516 "/>
<polyline clip-path="url(#clip180)" style="stroke:#000000; stroke-linecap:round; stroke-linejoin:round; stroke-width:4; stroke-opacity:1; fill:none" points="156.274,555.81 175.172,555.81 "/>
<polyline clip-path="url(#clip180)" style="stroke:#000000; stroke-linecap:round; stroke-linejoin:round; stroke-width:4; stroke-opacity:1; fill:none" points="156.274,292.105 175.172,292.105 "/>
<path clip-path="url(#clip180)" d="M63.7467 1332.73 Q60.1356 1332.73 58.3069 1336.29 Q56.5014 1339.83 56.5014 1346.96 Q56.5014 1354.07 58.3069 1357.63 Q60.1356 1361.17 63.7467 1361.17 Q67.3809 1361.17 69.1865 1357.63 Q71.0152 1354.07 71.0152 1346.96 Q71.0152 1339.83 69.1865 1336.29 Q67.3809 1332.73 63.7467 1332.73 M63.7467 1329.02 Q69.5568 1329.02 72.6124 1333.63 Q75.6911 1338.21 75.6911 1346.96 Q75.6911 1355.69 72.6124 1360.29 Q69.5568 1364.88 63.7467 1364.88 Q57.9365 1364.88 54.8578 1360.29 Q51.8023 1355.69 51.8023 1346.96 Q51.8023 1338.21 54.8578 1333.63 Q57.9365 1329.02 63.7467 1329.02 Z" fill="#000000" fill-rule="nonzero" fill-opacity="1" /><path clip-path="url(#clip180)" d="M83.9086 1358.33 L88.7928 1358.33 L88.7928 1364.21 L83.9086 1364.21 L83.9086 1358.33 Z" fill="#000000" fill-rule="nonzero" fill-opacity="1" /><path clip-path="url(#clip180)" d="M113.145 1345.57 Q116.501 1346.29 118.376 1348.56 Q120.274 1350.83 120.274 1354.16 Q120.274 1359.28 116.756 1362.08 Q113.237 1364.88 106.756 1364.88 Q104.58 1364.88 102.265 1364.44 Q99.9733 1364.02 97.5197 1363.16 L97.5197 1358.65 Q99.4641 1359.79 101.779 1360.36 Q104.094 1360.94 106.617 1360.94 Q111.015 1360.94 113.307 1359.21 Q115.621 1357.47 115.621 1354.16 Q115.621 1351.1 113.469 1349.39 Q111.339 1347.66 107.52 1347.66 L103.492 1347.66 L103.492 1343.81 L107.705 1343.81 Q111.154 1343.81 112.983 1342.45 Q114.811 1341.06 114.811 1338.47 Q114.811 1335.8 112.913 1334.39 Q111.038 1332.96 107.52 1332.96 Q105.598 1332.96 103.399 1333.37 Q101.2 1333.79 98.5613 1334.67 L98.5613 1330.5 Q101.223 1329.76 103.538 1329.39 Q105.876 1329.02 107.936 1329.02 Q113.26 1329.02 116.362 1331.45 Q119.464 1333.86 119.464 1337.98 Q119.464 1340.85 117.82 1342.84 Q116.177 1344.81 113.145 1345.57 Z" fill="#000000" fill-rule="nonzero" fill-opacity="1" /><path clip-path="url(#clip180)" d="M62.9365 1069.02 Q59.3254 1069.02 57.4967 1072.58 Q55.6912 1076.13 55.6912 1083.26 Q55.6912 1090.36 57.4967 1093.93 Q59.3254 1097.47 62.9365 1097.47 Q66.5707 1097.47 68.3763 1093.93 Q70.205 1090.36 70.205 1083.26 Q70.205 1076.13 68.3763 1072.58 Q66.5707 1069.02 62.9365 1069.02 M62.9365 1065.32 Q68.7467 1065.32 71.8022 1069.92 Q74.8809 1074.51 74.8809 1083.26 Q74.8809 1091.98 71.8022 1096.59 Q68.7467 1101.17 62.9365 1101.17 Q57.1264 1101.17 54.0477 1096.59 Q50.9921 1091.98 50.9921 1083.26 Q50.9921 1074.51 54.0477 1069.92 Q57.1264 1065.32 62.9365 1065.32 Z" fill="#000000" fill-rule="nonzero" fill-opacity="1" /><path clip-path="url(#clip180)" d="M83.0984 1094.62 L87.9827 1094.62 L87.9827 1100.5 L83.0984 1100.5 L83.0984 1094.62 Z" fill="#000000" fill-rule="nonzero" fill-opacity="1" /><path clip-path="url(#clip180)" d="M108.746 1081.36 Q105.598 1081.36 103.746 1083.51 Q101.918 1085.66 101.918 1089.41 Q101.918 1093.14 103.746 1095.32 Q105.598 1097.47 108.746 1097.47 Q111.895 1097.47 113.723 1095.32 Q115.575 1093.14 115.575 1089.41 Q115.575 1085.66 113.723 1083.51 Q111.895 1081.36 108.746 1081.36 M118.029 1066.71 L118.029 1070.96 Q116.27 1070.13 114.464 1069.69 Q112.682 1069.25 110.922 1069.25 Q106.293 1069.25 103.839 1072.38 Q101.409 1075.5 101.061 1081.82 Q102.427 1079.81 104.487 1078.74 Q106.547 1077.65 109.024 1077.65 Q114.233 1077.65 117.242 1080.83 Q120.274 1083.97 120.274 1089.41 Q120.274 1094.74 117.126 1097.95 Q113.978 1101.17 108.746 1101.17 Q102.751 1101.17 99.5798 1096.59 Q96.4085 1091.98 96.4085 1083.26 Q96.4085 1075.06 100.297 1070.2 Q104.186 1065.32 110.737 1065.32 Q112.496 1065.32 114.279 1065.66 Q116.084 1066.01 118.029 1066.71 Z" fill="#000000" fill-rule="nonzero" fill-opacity="1" /><path clip-path="url(#clip180)" d="M63.2837 805.314 Q59.6726 805.314 57.8439 808.879 Q56.0384 812.421 56.0384 819.55 Q56.0384 826.657 57.8439 830.222 Q59.6726 833.763 63.2837 833.763 Q66.918 833.763 68.7235 830.222 Q70.5522 826.657 70.5522 819.55 Q70.5522 812.421 68.7235 808.879 Q66.918 805.314 63.2837 805.314 M63.2837 801.611 Q69.0939 801.611 72.1494 806.217 Q75.2281 810.8 75.2281 819.55 Q75.2281 828.277 72.1494 832.884 Q69.0939 837.467 63.2837 837.467 Q57.4736 837.467 54.3949 832.884 Q51.3393 828.277 51.3393 819.55 Q51.3393 810.8 54.3949 806.217 Q57.4736 801.611 63.2837 801.611 Z" fill="#000000" fill-rule="nonzero" fill-opacity="1" /><path clip-path="url(#clip180)" d="M83.4457 830.916 L88.3299 830.916 L88.3299 836.796 L83.4457 836.796 L83.4457 830.916 Z" fill="#000000" fill-rule="nonzero" fill-opacity="1" /><path clip-path="url(#clip180)" d="M98.6539 836.078 L98.6539 831.819 Q100.413 832.652 102.219 833.092 Q104.024 833.532 105.76 833.532 Q110.39 833.532 112.82 830.43 Q115.274 827.305 115.621 820.962 Q114.279 822.953 112.219 824.018 Q110.158 825.083 107.658 825.083 Q102.473 825.083 99.4409 821.958 Q96.4317 818.81 96.4317 813.37 Q96.4317 808.046 99.5798 804.828 Q102.728 801.611 107.959 801.611 Q113.955 801.611 117.103 806.217 Q120.274 810.8 120.274 819.55 Q120.274 827.722 116.385 832.606 Q112.52 837.467 105.969 837.467 Q104.209 837.467 102.404 837.12 Q100.598 836.773 98.6539 836.078 M107.959 821.425 Q111.108 821.425 112.936 819.273 Q114.788 817.12 114.788 813.37 Q114.788 809.643 112.936 807.49 Q111.108 805.314 107.959 805.314 Q104.811 805.314 102.959 807.49 Q101.131 809.643 101.131 813.37 Q101.131 817.12 102.959 819.273 Q104.811 821.425 107.959 821.425 Z" fill="#000000" fill-rule="nonzero" fill-opacity="1" /><path clip-path="url(#clip180)" d="M55.506 569.155 L63.1448 569.155 L63.1448 542.79 L54.8347 544.456 L54.8347 540.197 L63.0985 538.53 L67.7744 538.53 L67.7744 569.155 L75.4133 569.155 L75.4133 573.09 L55.506 573.09 L55.506 569.155 Z" fill="#000000" fill-rule="nonzero" fill-opacity="1" /><path clip-path="url(#clip180)" d="M84.8577 567.211 L89.7419 567.211 L89.7419 573.09 L84.8577 573.09 L84.8577 567.211 Z" fill="#000000" fill-rule="nonzero" fill-opacity="1" /><path clip-path="url(#clip180)" d="M103.955 569.155 L120.274 569.155 L120.274 573.09 L98.3298 573.09 L98.3298 569.155 Q100.992 566.401 105.575 561.771 Q110.182 557.118 111.362 555.776 Q113.608 553.252 114.487 551.516 Q115.39 549.757 115.39 548.067 Q115.39 545.313 113.445 543.577 Q111.524 541.84 108.422 541.84 Q106.223 541.84 103.77 542.604 Q101.339 543.368 98.5613 544.919 L98.5613 540.197 Q101.385 539.063 103.839 538.484 Q106.293 537.905 108.33 537.905 Q113.7 537.905 116.895 540.591 Q120.089 543.276 120.089 547.766 Q120.089 549.896 119.279 551.817 Q118.492 553.715 116.385 556.308 Q115.807 556.979 112.705 560.197 Q109.603 563.391 103.955 569.155 Z" fill="#000000" fill-rule="nonzero" fill-opacity="1" /><path clip-path="url(#clip180)" d="M54.9041 305.45 L62.543 305.45 L62.543 279.084 L54.2328 280.751 L54.2328 276.492 L62.4967 274.825 L67.1726 274.825 L67.1726 305.45 L74.8114 305.45 L74.8114 309.385 L54.9041 309.385 L54.9041 305.45 Z" fill="#000000" fill-rule="nonzero" fill-opacity="1" /><path clip-path="url(#clip180)" d="M84.2558 303.505 L89.1401 303.505 L89.1401 309.385 L84.2558 309.385 L84.2558 303.505 Z" fill="#000000" fill-rule="nonzero" fill-opacity="1" /><path clip-path="url(#clip180)" d="M99.3715 274.825 L117.728 274.825 L117.728 278.76 L103.654 278.76 L103.654 287.232 Q104.672 286.885 105.691 286.723 Q106.709 286.538 107.728 286.538 Q113.515 286.538 116.895 289.709 Q120.274 292.88 120.274 298.297 Q120.274 303.876 116.802 306.978 Q113.33 310.056 107.01 310.056 Q104.834 310.056 102.566 309.686 Q100.321 309.315 97.9132 308.575 L97.9132 303.876 Q99.9965 305.01 102.219 305.566 Q104.441 306.121 106.918 306.121 Q110.922 306.121 113.26 304.015 Q115.598 301.908 115.598 298.297 Q115.598 294.686 113.26 292.579 Q110.922 290.473 106.918 290.473 Q105.043 290.473 103.168 290.89 Q101.316 291.306 99.3715 292.186 L99.3715 274.825 Z" fill="#000000" fill-rule="nonzero" fill-opacity="1" /><polyline clip-path="url(#clip181)" style="stroke:#009af9; stroke-linecap:round; stroke-linejoin:round; stroke-width:12; stroke-opacity:1; fill:none" points="218.439,1171.12 425.654,1123.59 632.869,1146.95 840.085,1160.55 1047.3,1237.96 1254.52,1108.2 1461.73,1166.87 1668.95,1234.91 1876.16,1251.13 2083.38,1278.89 2290.59,1305.54 "/>
<polyline clip-path="url(#clip181)" style="stroke:#000000; stroke-linecap:round; stroke-linejoin:round; stroke-width:12; stroke-opacity:1; fill:none" points="218.439,1171.12 218.439,1171.12 "/>
<polyline clip-path="url(#clip181)" style="stroke:#000000; stroke-linecap:round; stroke-linejoin:round; stroke-width:12; stroke-opacity:1; fill:none" points="425.654,1202.38 425.654,1019.19 "/>
<polyline clip-path="url(#clip181)" style="stroke:#000000; stroke-linecap:round; stroke-linejoin:round; stroke-width:12; stroke-opacity:1; fill:none" points="632.869,1233.12 632.869,858.257 "/>
<polyline clip-path="url(#clip181)" style="stroke:#000000; stroke-linecap:round; stroke-linejoin:round; stroke-width:12; stroke-opacity:1; fill:none" points="840.085,1318.16 840.085,922.903 "/>
<polyline clip-path="url(#clip181)" style="stroke:#000000; stroke-linecap:round; stroke-linejoin:round; stroke-width:12; stroke-opacity:1; fill:none" points="1047.3,1384.84 1047.3,872.658 "/>
<polyline clip-path="url(#clip181)" style="stroke:#000000; stroke-linecap:round; stroke-linejoin:round; stroke-width:12; stroke-opacity:1; fill:none" points="1254.52,1434.5 1254.52,698.464 "/>
<polyline clip-path="url(#clip181)" style="stroke:#000000; stroke-linecap:round; stroke-linejoin:round; stroke-width:12; stroke-opacity:1; fill:none" points="1461.73,1419.5 1461.73,373.721 "/>
<polyline clip-path="url(#clip181)" style="stroke:#000000; stroke-linecap:round; stroke-linejoin:round; stroke-width:12; stroke-opacity:1; fill:none" points="1668.95,1431.38 1668.95,214.569 "/>
<polyline clip-path="url(#clip181)" style="stroke:#000000; stroke-linecap:round; stroke-linejoin:round; stroke-width:12; stroke-opacity:1; fill:none" points="1876.16,1440.04 1876.16,281.527 "/>
<polyline clip-path="url(#clip181)" style="stroke:#000000; stroke-linecap:round; stroke-linejoin:round; stroke-width:12; stroke-opacity:1; fill:none" points="2083.38,1445.31 2083.38,388.786 "/>
<polyline clip-path="url(#clip181)" style="stroke:#000000; stroke-linecap:round; stroke-linejoin:round; stroke-width:12; stroke-opacity:1; fill:none" points="2290.59,1445.72 2290.59,104.212 "/>
<line clip-path="url(#clip181)" x1="234.439" y1="1171.12" x2="202.439" y2="1171.12" style="stroke:#000000; stroke-width:12; stroke-opacity:1"/>
<line clip-path="url(#clip181)" x1="234.439" y1="1171.12" x2="202.439" y2="1171.12" style="stroke:#000000; stroke-width:12; stroke-opacity:1"/>
<line clip-path="url(#clip181)" x1="441.654" y1="1202.38" x2="409.654" y2="1202.38" style="stroke:#000000; stroke-width:12; stroke-opacity:1"/>
<line clip-path="url(#clip181)" x1="441.654" y1="1019.19" x2="409.654" y2="1019.19" style="stroke:#000000; stroke-width:12; stroke-opacity:1"/>
<line clip-path="url(#clip181)" x1="648.869" y1="1233.12" x2="616.869" y2="1233.12" style="stroke:#000000; stroke-width:12; stroke-opacity:1"/>
<line clip-path="url(#clip181)" x1="648.869" y1="858.257" x2="616.869" y2="858.257" style="stroke:#000000; stroke-width:12; stroke-opacity:1"/>
<line clip-path="url(#clip181)" x1="856.085" y1="1318.16" x2="824.085" y2="1318.16" style="stroke:#000000; stroke-width:12; stroke-opacity:1"/>
<line clip-path="url(#clip181)" x1="856.085" y1="922.903" x2="824.085" y2="922.903" style="stroke:#000000; stroke-width:12; stroke-opacity:1"/>
<line clip-path="url(#clip181)" x1="1063.3" y1="1384.84" x2="1031.3" y2="1384.84" style="stroke:#000000; stroke-width:12; stroke-opacity:1"/>
<line clip-path="url(#clip181)" x1="1063.3" y1="872.658" x2="1031.3" y2="872.658" style="stroke:#000000; stroke-width:12; stroke-opacity:1"/>
<line clip-path="url(#clip181)" x1="1270.52" y1="1434.5" x2="1238.52" y2="1434.5" style="stroke:#000000; stroke-width:12; stroke-opacity:1"/>
<line clip-path="url(#clip181)" x1="1270.52" y1="698.464" x2="1238.52" y2="698.464" style="stroke:#000000; stroke-width:12; stroke-opacity:1"/>
<line clip-path="url(#clip181)" x1="1477.73" y1="1419.5" x2="1445.73" y2="1419.5" style="stroke:#000000; stroke-width:12; stroke-opacity:1"/>
<line clip-path="url(#clip181)" x1="1477.73" y1="373.721" x2="1445.73" y2="373.721" style="stroke:#000000; stroke-width:12; stroke-opacity:1"/>
<line clip-path="url(#clip181)" x1="1684.95" y1="1431.38" x2="1652.95" y2="1431.38" style="stroke:#000000; stroke-width:12; stroke-opacity:1"/>
<line clip-path="url(#clip181)" x1="1684.95" y1="214.569" x2="1652.95" y2="214.569" style="stroke:#000000; stroke-width:12; stroke-opacity:1"/>
<line clip-path="url(#clip181)" x1="1892.16" y1="1440.04" x2="1860.16" y2="1440.04" style="stroke:#000000; stroke-width:12; stroke-opacity:1"/>
<line clip-path="url(#clip181)" x1="1892.16" y1="281.527" x2="1860.16" y2="281.527" style="stroke:#000000; stroke-width:12; stroke-opacity:1"/>
<line clip-path="url(#clip181)" x1="2099.38" y1="1445.31" x2="2067.38" y2="1445.31" style="stroke:#000000; stroke-width:12; stroke-opacity:1"/>
<line clip-path="url(#clip181)" x1="2099.38" y1="388.786" x2="2067.38" y2="388.786" style="stroke:#000000; stroke-width:12; stroke-opacity:1"/>
<line clip-path="url(#clip181)" x1="2306.59" y1="1445.72" x2="2274.59" y2="1445.72" style="stroke:#000000; stroke-width:12; stroke-opacity:1"/>
<line clip-path="url(#clip181)" x1="2306.59" y1="104.212" x2="2274.59" y2="104.212" style="stroke:#000000; stroke-width:12; stroke-opacity:1"/>
<polyline clip-path="url(#clip181)" style="stroke:#e26f46; stroke-linecap:round; stroke-linejoin:round; stroke-width:12; stroke-opacity:1; fill:none" points="218.439,1171.12 425.654,1158.83 632.869,1193.95 840.085,1226.52 1047.3,1226.34 1254.52,1239.2 1461.73,1222.66 1668.95,1120.76 1876.16,1043.89 2083.38,1023.67 2290.59,1044.58 "/>
<polyline clip-path="url(#clip181)" style="stroke:#000000; stroke-linecap:round; stroke-linejoin:round; stroke-width:12; stroke-opacity:1; fill:none" points="218.439,1171.12 218.439,1171.12 "/>
<polyline clip-path="url(#clip181)" style="stroke:#000000; stroke-linecap:round; stroke-linejoin:round; stroke-width:12; stroke-opacity:1; fill:none" points="425.654,1293.02 425.654,887.902 "/>
<polyline clip-path="url(#clip181)" style="stroke:#000000; stroke-linecap:round; stroke-linejoin:round; stroke-width:12; stroke-opacity:1; fill:none" points="632.869,1298.16 632.869,708.242 "/>
<polyline clip-path="url(#clip181)" style="stroke:#000000; stroke-linecap:round; stroke-linejoin:round; stroke-width:12; stroke-opacity:1; fill:none" points="840.085,1332.68 840.085,651.455 "/>
<polyline clip-path="url(#clip181)" style="stroke:#000000; stroke-linecap:round; stroke-linejoin:round; stroke-width:12; stroke-opacity:1; fill:none" points="1047.3,1337.92 1047.3,680.175 "/>
<polyline clip-path="url(#clip181)" style="stroke:#000000; stroke-linecap:round; stroke-linejoin:round; stroke-width:12; stroke-opacity:1; fill:none" points="1254.52,1349.5 1254.52,649.226 "/>
<polyline clip-path="url(#clip181)" style="stroke:#000000; stroke-linecap:round; stroke-linejoin:round; stroke-width:12; stroke-opacity:1; fill:none" points="1461.73,1382.89 1461.73,458.999 "/>
<polyline clip-path="url(#clip181)" style="stroke:#000000; stroke-linecap:round; stroke-linejoin:round; stroke-width:12; stroke-opacity:1; fill:none" points="1668.95,1428.39 1668.95,389.791 "/>
<polyline clip-path="url(#clip181)" style="stroke:#000000; stroke-linecap:round; stroke-linejoin:round; stroke-width:12; stroke-opacity:1; fill:none" points="1876.16,1437.63 1876.16,313.271 "/>
<polyline clip-path="url(#clip181)" style="stroke:#000000; stroke-linecap:round; stroke-linejoin:round; stroke-width:12; stroke-opacity:1; fill:none" points="2083.38,1399.16 2083.38,198.139 "/>
<polyline clip-path="url(#clip181)" style="stroke:#000000; stroke-linecap:round; stroke-linejoin:round; stroke-width:12; stroke-opacity:1; fill:none" points="2290.59,1382.79 2290.59,87.9763 "/>
<line clip-path="url(#clip181)" x1="234.439" y1="1171.12" x2="202.439" y2="1171.12" style="stroke:#000000; stroke-width:12; stroke-opacity:1"/>
<line clip-path="url(#clip181)" x1="234.439" y1="1171.12" x2="202.439" y2="1171.12" style="stroke:#000000; stroke-width:12; stroke-opacity:1"/>
<line clip-path="url(#clip181)" x1="441.654" y1="1293.02" x2="409.654" y2="1293.02" style="stroke:#000000; stroke-width:12; stroke-opacity:1"/>
<line clip-path="url(#clip181)" x1="441.654" y1="887.902" x2="409.654" y2="887.902" style="stroke:#000000; stroke-width:12; stroke-opacity:1"/>
<line clip-path="url(#clip181)" x1="648.869" y1="1298.16" x2="616.869" y2="1298.16" style="stroke:#000000; stroke-width:12; stroke-opacity:1"/>
<line clip-path="url(#clip181)" x1="648.869" y1="708.242" x2="616.869" y2="708.242" style="stroke:#000000; stroke-width:12; stroke-opacity:1"/>
<line clip-path="url(#clip181)" x1="856.085" y1="1332.68" x2="824.085" y2="1332.68" style="stroke:#000000; stroke-width:12; stroke-opacity:1"/>
<line clip-path="url(#clip181)" x1="856.085" y1="651.455" x2="824.085" y2="651.455" style="stroke:#000000; stroke-width:12; stroke-opacity:1"/>
<line clip-path="url(#clip181)" x1="1063.3" y1="1337.92" x2="1031.3" y2="1337.92" style="stroke:#000000; stroke-width:12; stroke-opacity:1"/>
<line clip-path="url(#clip181)" x1="1063.3" y1="680.175" x2="1031.3" y2="680.175" style="stroke:#000000; stroke-width:12; stroke-opacity:1"/>
<line clip-path="url(#clip181)" x1="1270.52" y1="1349.5" x2="1238.52" y2="1349.5" style="stroke:#000000; stroke-width:12; stroke-opacity:1"/>
<line clip-path="url(#clip181)" x1="1270.52" y1="649.226" x2="1238.52" y2="649.226" style="stroke:#000000; stroke-width:12; stroke-opacity:1"/>
<line clip-path="url(#clip181)" x1="1477.73" y1="1382.89" x2="1445.73" y2="1382.89" style="stroke:#000000; stroke-width:12; stroke-opacity:1"/>
<line clip-path="url(#clip181)" x1="1477.73" y1="458.999" x2="1445.73" y2="458.999" style="stroke:#000000; stroke-width:12; stroke-opacity:1"/>
<line clip-path="url(#clip181)" x1="1684.95" y1="1428.39" x2="1652.95" y2="1428.39" style="stroke:#000000; stroke-width:12; stroke-opacity:1"/>
<line clip-path="url(#clip181)" x1="1684.95" y1="389.791" x2="1652.95" y2="389.791" style="stroke:#000000; stroke-width:12; stroke-opacity:1"/>
<line clip-path="url(#clip181)" x1="1892.16" y1="1437.63" x2="1860.16" y2="1437.63" style="stroke:#000000; stroke-width:12; stroke-opacity:1"/>
<line clip-path="url(#clip181)" x1="1892.16" y1="313.271" x2="1860.16" y2="313.271" style="stroke:#000000; stroke-width:12; stroke-opacity:1"/>
<line clip-path="url(#clip181)" x1="2099.38" y1="1399.16" x2="2067.38" y2="1399.16" style="stroke:#000000; stroke-width:12; stroke-opacity:1"/>
<line clip-path="url(#clip181)" x1="2099.38" y1="198.139" x2="2067.38" y2="198.139" style="stroke:#000000; stroke-width:12; stroke-opacity:1"/>
<line clip-path="url(#clip181)" x1="2306.59" y1="1382.79" x2="2274.59" y2="1382.79" style="stroke:#000000; stroke-width:12; stroke-opacity:1"/>
<line clip-path="url(#clip181)" x1="2306.59" y1="87.9763" x2="2274.59" y2="87.9763" style="stroke:#000000; stroke-width:12; stroke-opacity:1"/>
</svg>
