<?xml version="1.0" encoding="utf-8"?>
<svg xmlns="http://www.w3.org/2000/svg" xmlns:xlink="http://www.w3.org/1999/xlink" width="600" height="400" viewBox="0 0 2400 1600">
<defs>
  <clipPath id="clip180">
    <rect x="0" y="0" width="2400" height="1600"/>
  </clipPath>
</defs>
<path clip-path="url(#clip180)" d="M0 1600 L2400 1600 L2400 0 L0 0  Z" fill="#ffffff" fill-rule="evenodd" fill-opacity="1"/>
<defs>
  <clipPath id="clip181">
    <rect x="155" y="47" width="2198" height="1440"/>
  </clipPath>
</defs>
<path clip-path="url(#clip180)" d="M155.765 1486.45 L2352.76 1486.45 L2352.76 47.2441 L155.765 47.2441  Z" fill="#ffffff" fill-rule="evenodd" fill-opacity="1"/>
<polyline clip-path="url(#clip181)" style="stroke:#000000; stroke-linecap:round; stroke-linejoin:round; stroke-width:2; stroke-opacity:0.1; fill:none" points="217.944,1486.45 217.944,47.2441 "/>
<polyline clip-path="url(#clip181)" style="stroke:#000000; stroke-linecap:round; stroke-linejoin:round; stroke-width:2; stroke-opacity:0.1; fill:none" points="736.102,1486.45 736.102,47.2441 "/>
<polyline clip-path="url(#clip181)" style="stroke:#000000; stroke-linecap:round; stroke-linejoin:round; stroke-width:2; stroke-opacity:0.1; fill:none" points="1254.26,1486.45 1254.26,47.2441 "/>
<polyline clip-path="url(#clip181)" style="stroke:#000000; stroke-linecap:round; stroke-linejoin:round; stroke-width:2; stroke-opacity:0.1; fill:none" points="1772.42,1486.45 1772.42,47.2441 "/>
<polyline clip-path="url(#clip181)" style="stroke:#000000; stroke-linecap:round; stroke-linejoin:round; stroke-width:2; stroke-opacity:0.1; fill:none" points="2290.58,1486.45 2290.58,47.2441 "/>
<polyline clip-path="url(#clip181)" style="stroke:#000000; stroke-linecap:round; stroke-linejoin:round; stroke-width:2; stroke-opacity:0.1; fill:none" points="155.765,1301.97 2352.76,1301.97 "/>
<polyline clip-path="url(#clip181)" style="stroke:#000000; stroke-linecap:round; stroke-linejoin:round; stroke-width:2; stroke-opacity:0.1; fill:none" points="155.765,1069.58 2352.76,1069.58 "/>
<polyline clip-path="url(#clip181)" style="stroke:#000000; stroke-linecap:round; stroke-linejoin:round; stroke-width:2; stroke-opacity:0.1; fill:none" points="155.765,837.182 2352.76,837.182 "/>
<polyline clip-path="url(#clip181)" style="stroke:#000000; stroke-linecap:round; stroke-linejoin:round; stroke-width:2; stroke-opacity:0.1; fill:none" points="155.765,604.789 2352.76,604.789 "/>
<polyline clip-path="url(#clip181)" style="stroke:#000000; stroke-linecap:round; stroke-linejoin:round; stroke-width:2; stroke-opacity:0.1; fill:none" points="155.765,372.396 2352.76,372.396 "/>
<polyline clip-path="url(#clip181)" style="stroke:#000000; stroke-linecap:round; stroke-linejoin:round; stroke-width:2; stroke-opacity:0.1; fill:none" points="155.765,140.002 2352.76,140.002 "/>
<polyline clip-path="url(#clip180)" style="stroke:#000000; stroke-linecap:round; stroke-linejoin:round; stroke-width:4; stroke-opacity:1; fill:none" points="155.765,1486.45 2352.76,1486.45 "/>
<polyline clip-path="url(#clip180)" style="stroke:#000000; stroke-linecap:round; stroke-linejoin:round; stroke-width:4; stroke-opacity:1; fill:none" points="217.944,1486.45 217.944,1467.55 "/>
<polyline clip-path="url(#clip180)" style="stroke:#000000; stroke-linecap:round; stroke-linejoin:round; stroke-width:4; stroke-opacity:1; fill:none" points="736.102,1486.45 736.102,1467.55 "/>
<polyline clip-path="url(#clip180)" style="stroke:#000000; stroke-linecap:round; stroke-linejoin:round; stroke-width:4; stroke-opacity:1; fill:none" points="1254.26,1486.45 1254.26,1467.55 "/>
<polyline clip-path="url(#clip180)" style="stroke:#000000; stroke-linecap:round; stroke-linejoin:round; stroke-width:4; stroke-opacity:1; fill:none" points="1772.42,1486.45 1772.42,1467.55 "/>
<polyline clip-path="url(#clip180)" style="stroke:#000000; stroke-linecap:round; stroke-linejoin:round; stroke-width:4; stroke-opacity:1; fill:none" points="2290.58,1486.45 2290.58,1467.55 "/>
<path clip-path="url(#clip180)" d="M180.247 1517.37 Q176.636 1517.37 174.808 1520.93 Q173.002 1524.47 173.002 1531.6 Q173.002 1538.71 174.808 1542.27 Q176.636 1545.82 180.247 1545.82 Q183.882 1545.82 185.687 1542.27 Q187.516 1538.71 187.516 1531.6 Q187.516 1524.47 185.687 1520.93 Q183.882 1517.37 180.247 1517.37 M180.247 1513.66 Q186.057 1513.66 189.113 1518.27 Q192.192 1522.85 192.192 1531.6 Q192.192 1540.33 189.113 1544.94 Q186.057 1549.52 180.247 1549.52 Q174.437 1549.52 171.358 1544.94 Q168.303 1540.33 168.303 1531.6 Q168.303 1522.85 171.358 1518.27 Q174.437 1513.66 180.247 1513.66 Z" fill="#000000" fill-rule="nonzero" fill-opacity="1" /><path clip-path="url(#clip180)" d="M200.409 1542.97 L205.294 1542.97 L205.294 1548.85 L200.409 1548.85 L200.409 1542.97 Z" fill="#000000" fill-rule="nonzero" fill-opacity="1" /><path clip-path="url(#clip180)" d="M225.479 1517.37 Q221.867 1517.37 220.039 1520.93 Q218.233 1524.47 218.233 1531.6 Q218.233 1538.71 220.039 1542.27 Q221.867 1545.82 225.479 1545.82 Q229.113 1545.82 230.918 1542.27 Q232.747 1538.71 232.747 1531.6 Q232.747 1524.47 230.918 1520.93 Q229.113 1517.37 225.479 1517.37 M225.479 1513.66 Q231.289 1513.66 234.344 1518.27 Q237.423 1522.85 237.423 1531.6 Q237.423 1540.33 234.344 1544.94 Q231.289 1549.52 225.479 1549.52 Q219.668 1549.52 216.59 1544.94 Q213.534 1540.33 213.534 1531.6 Q213.534 1522.85 216.59 1518.27 Q219.668 1513.66 225.479 1513.66 Z" fill="#000000" fill-rule="nonzero" fill-opacity="1" /><path clip-path="url(#clip180)" d="M255.64 1517.37 Q252.029 1517.37 250.201 1520.93 Q248.395 1524.47 248.395 1531.6 Q248.395 1538.71 250.201 1542.27 Q252.029 1545.82 255.64 1545.82 Q259.275 1545.82 261.08 1542.27 Q262.909 1538.71 262.909 1531.6 Q262.909 1524.47 261.08 1520.93 Q259.275 1517.37 255.64 1517.37 M255.64 1513.66 Q261.451 1513.66 264.506 1518.27 Q267.585 1522.85 267.585 1531.6 Q267.585 1540.33 264.506 1544.94 Q261.451 1549.52 255.64 1549.52 Q249.83 1549.52 246.752 1544.94 Q243.696 1540.33 243.696 1531.6 Q243.696 1522.85 246.752 1518.27 Q249.83 1513.66 255.64 1513.66 Z" fill="#000000" fill-rule="nonzero" fill-opacity="1" /><path clip-path="url(#clip180)" d="M698.903 1517.37 Q695.292 1517.37 693.463 1520.93 Q691.658 1524.47 691.658 1531.6 Q691.658 1538.71 693.463 1542.27 Q695.292 1545.82 698.903 1545.82 Q702.538 1545.82 704.343 1542.27 Q706.172 1538.71 706.172 1531.6 Q706.172 1524.47 704.343 1520.93 Q702.538 1517.37 698.903 1517.37 M698.903 1513.66 Q704.713 1513.66 707.769 1518.27 Q710.848 1522.85 710.848 1531.6 Q710.848 1540.33 707.769 1544.94 Q704.713 1549.52 698.903 1549.52 Q693.093 1549.52 690.014 1544.94 Q686.959 1540.33 686.959 1531.6 Q686.959 1522.85 690.014 1518.27 Q693.093 1513.66 698.903 1513.66 Z" fill="#000000" fill-rule="nonzero" fill-opacity="1" /><path clip-path="url(#clip180)" d="M719.065 1542.97 L723.949 1542.97 L723.949 1548.85 L719.065 1548.85 L719.065 1542.97 Z" fill="#000000" fill-rule="nonzero" fill-opacity="1" /><path clip-path="url(#clip180)" d="M738.162 1544.91 L754.482 1544.91 L754.482 1548.85 L732.537 1548.85 L732.537 1544.91 Q735.199 1542.16 739.783 1537.53 Q744.389 1532.88 745.57 1531.53 Q747.815 1529.01 748.695 1527.27 Q749.597 1525.51 749.597 1523.82 Q749.597 1521.07 747.653 1519.33 Q745.732 1517.6 742.63 1517.6 Q740.431 1517.6 737.977 1518.36 Q735.547 1519.13 732.769 1520.68 L732.769 1515.95 Q735.593 1514.82 738.047 1514.24 Q740.5 1513.66 742.537 1513.66 Q747.908 1513.66 751.102 1516.35 Q754.296 1519.03 754.296 1523.52 Q754.296 1525.65 753.486 1527.57 Q752.699 1529.47 750.593 1532.07 Q750.014 1532.74 746.912 1535.95 Q743.81 1539.15 738.162 1544.91 Z" fill="#000000" fill-rule="nonzero" fill-opacity="1" /><path clip-path="url(#clip180)" d="M764.343 1514.29 L782.699 1514.29 L782.699 1518.22 L768.625 1518.22 L768.625 1526.7 Q769.644 1526.35 770.662 1526.19 Q771.681 1526 772.699 1526 Q778.486 1526 781.866 1529.17 Q785.245 1532.34 785.245 1537.76 Q785.245 1543.34 781.773 1546.44 Q778.301 1549.52 771.982 1549.52 Q769.806 1549.52 767.537 1549.15 Q765.292 1548.78 762.884 1548.04 L762.884 1543.34 Q764.968 1544.47 767.19 1545.03 Q769.412 1545.58 771.889 1545.58 Q775.894 1545.58 778.232 1543.48 Q780.57 1541.37 780.57 1537.76 Q780.57 1534.15 778.232 1532.04 Q775.894 1529.94 771.889 1529.94 Q770.014 1529.94 768.139 1530.35 Q766.287 1530.77 764.343 1531.65 L764.343 1514.29 Z" fill="#000000" fill-rule="nonzero" fill-opacity="1" /><path clip-path="url(#clip180)" d="M1216.56 1517.37 Q1212.95 1517.37 1211.12 1520.93 Q1209.32 1524.47 1209.32 1531.6 Q1209.32 1538.71 1211.12 1542.27 Q1212.95 1545.82 1216.56 1545.82 Q1220.2 1545.82 1222 1542.27 Q1223.83 1538.71 1223.83 1531.6 Q1223.83 1524.47 1222 1520.93 Q1220.2 1517.37 1216.56 1517.37 M1216.56 1513.66 Q1222.37 1513.66 1225.43 1518.27 Q1228.51 1522.85 1228.51 1531.6 Q1228.51 1540.33 1225.43 1544.94 Q1222.37 1549.52 1216.56 1549.52 Q1210.75 1549.52 1207.68 1544.94 Q1204.62 1540.33 1204.62 1531.6 Q1204.62 1522.85 1207.68 1518.27 Q1210.75 1513.66 1216.56 1513.66 Z" fill="#000000" fill-rule="nonzero" fill-opacity="1" /><path clip-path="url(#clip180)" d="M1236.73 1542.97 L1241.61 1542.97 L1241.61 1548.85 L1236.73 1548.85 L1236.73 1542.97 Z" fill="#000000" fill-rule="nonzero" fill-opacity="1" /><path clip-path="url(#clip180)" d="M1251.84 1514.29 L1270.2 1514.29 L1270.2 1518.22 L1256.12 1518.22 L1256.12 1526.7 Q1257.14 1526.35 1258.16 1526.19 Q1259.18 1526 1260.2 1526 Q1265.98 1526 1269.36 1529.17 Q1272.74 1532.34 1272.74 1537.76 Q1272.74 1543.34 1269.27 1546.44 Q1265.8 1549.52 1259.48 1549.52 Q1257.3 1549.52 1255.04 1549.15 Q1252.79 1548.78 1250.38 1548.04 L1250.38 1543.34 Q1252.47 1544.47 1254.69 1545.03 Q1256.91 1545.58 1259.39 1545.58 Q1263.39 1545.58 1265.73 1543.48 Q1268.07 1541.37 1268.07 1537.76 Q1268.07 1534.15 1265.73 1532.04 Q1263.39 1529.94 1259.39 1529.94 Q1257.51 1529.94 1255.64 1530.35 Q1253.79 1530.77 1251.84 1531.65 L1251.84 1514.29 Z" fill="#000000" fill-rule="nonzero" fill-opacity="1" /><path clip-path="url(#clip180)" d="M1291.96 1517.37 Q1288.35 1517.37 1286.52 1520.93 Q1284.71 1524.47 1284.71 1531.6 Q1284.71 1538.71 1286.52 1542.27 Q1288.35 1545.82 1291.96 1545.82 Q1295.59 1545.82 1297.4 1542.27 Q1299.23 1538.71 1299.23 1531.6 Q1299.23 1524.47 1297.4 1520.93 Q1295.59 1517.37 1291.96 1517.37 M1291.96 1513.66 Q1297.77 1513.66 1300.82 1518.27 Q1303.9 1522.85 1303.9 1531.6 Q1303.9 1540.33 1300.82 1544.94 Q1297.77 1549.52 1291.96 1549.52 Q1286.15 1549.52 1283.07 1544.94 Q1280.01 1540.33 1280.01 1531.6 Q1280.01 1522.85 1283.07 1518.27 Q1286.15 1513.66 1291.96 1513.66 Z" fill="#000000" fill-rule="nonzero" fill-opacity="1" /><path clip-path="url(#clip180)" d="M1735.22 1517.37 Q1731.61 1517.37 1729.78 1520.93 Q1727.97 1524.47 1727.97 1531.6 Q1727.97 1538.71 1729.78 1542.27 Q1731.61 1545.82 1735.22 1545.82 Q1738.85 1545.82 1740.66 1542.27 Q1742.49 1538.71 1742.49 1531.6 Q1742.49 1524.47 1740.66 1520.93 Q1738.85 1517.37 1735.22 1517.37 M1735.22 1513.66 Q1741.03 1513.66 1744.09 1518.27 Q1747.16 1522.85 1747.16 1531.6 Q1747.16 1540.33 1744.09 1544.94 Q1741.03 1549.52 1735.22 1549.52 Q1729.41 1549.52 1726.33 1544.94 Q1723.28 1540.33 1723.28 1531.6 Q1723.28 1522.85 1726.33 1518.27 Q1729.41 1513.66 1735.22 1513.66 Z" fill="#000000" fill-rule="nonzero" fill-opacity="1" /><path clip-path="url(#clip180)" d="M1755.38 1542.97 L1760.27 1542.97 L1760.27 1548.85 L1755.38 1548.85 L1755.38 1542.97 Z" fill="#000000" fill-rule="nonzero" fill-opacity="1" /><path clip-path="url(#clip180)" d="M1769.27 1514.29 L1791.49 1514.29 L1791.49 1516.28 L1778.95 1548.85 L1774.06 1548.85 L1785.87 1518.22 L1769.27 1518.22 L1769.27 1514.29 Z" fill="#000000" fill-rule="nonzero" fill-opacity="1" /><path clip-path="url(#clip180)" d="M1800.66 1514.29 L1819.02 1514.29 L1819.02 1518.22 L1804.94 1518.22 L1804.94 1526.7 Q1805.96 1526.35 1806.98 1526.19 Q1808 1526 1809.02 1526 Q1814.8 1526 1818.18 1529.17 Q1821.56 1532.34 1821.56 1537.76 Q1821.56 1543.34 1818.09 1546.44 Q1814.62 1549.52 1808.3 1549.52 Q1806.12 1549.52 1803.85 1549.15 Q1801.61 1548.78 1799.2 1548.04 L1799.2 1543.34 Q1801.28 1544.47 1803.51 1545.03 Q1805.73 1545.58 1808.21 1545.58 Q1812.21 1545.58 1814.55 1543.48 Q1816.89 1541.37 1816.89 1537.76 Q1816.89 1534.15 1814.55 1532.04 Q1812.21 1529.94 1808.21 1529.94 Q1806.33 1529.94 1804.46 1530.35 Q1802.6 1530.77 1800.66 1531.65 L1800.66 1514.29 Z" fill="#000000" fill-rule="nonzero" fill-opacity="1" /><path clip-path="url(#clip180)" d="M2242.65 1544.91 L2250.29 1544.91 L2250.29 1518.55 L2241.98 1520.21 L2241.98 1515.95 L2250.24 1514.29 L2254.92 1514.29 L2254.92 1544.91 L2262.56 1544.91 L2262.56 1548.85 L2242.65 1548.85 L2242.65 1544.91 Z" fill="#000000" fill-rule="nonzero" fill-opacity="1" /><path clip-path="url(#clip180)" d="M2272 1542.97 L2276.88 1542.97 L2276.88 1548.85 L2272 1548.85 L2272 1542.97 Z" fill="#000000" fill-rule="nonzero" fill-opacity="1" /><path clip-path="url(#clip180)" d="M2297.07 1517.37 Q2293.46 1517.37 2291.63 1520.93 Q2289.82 1524.47 2289.82 1531.6 Q2289.82 1538.71 2291.63 1542.27 Q2293.46 1545.82 2297.07 1545.82 Q2300.7 1545.82 2302.51 1542.27 Q2304.34 1538.71 2304.34 1531.6 Q2304.34 1524.47 2302.51 1520.93 Q2300.7 1517.37 2297.07 1517.37 M2297.07 1513.66 Q2302.88 1513.66 2305.94 1518.27 Q2309.01 1522.85 2309.01 1531.6 Q2309.01 1540.33 2305.94 1544.94 Q2302.88 1549.52 2297.07 1549.52 Q2291.26 1549.52 2288.18 1544.94 Q2285.13 1540.33 2285.13 1531.6 Q2285.13 1522.85 2288.18 1518.27 Q2291.26 1513.66 2297.07 1513.66 Z" fill="#000000" fill-rule="nonzero" fill-opacity="1" /><path clip-path="url(#clip180)" d="M2327.23 1517.37 Q2323.62 1517.37 2321.79 1520.93 Q2319.99 1524.47 2319.99 1531.6 Q2319.99 1538.71 2321.79 1542.27 Q2323.62 1545.82 2327.23 1545.82 Q2330.87 1545.82 2332.67 1542.27 Q2334.5 1538.71 2334.5 1531.6 Q2334.5 1524.47 2332.67 1520.93 Q2330.87 1517.37 2327.23 1517.37 M2327.23 1513.66 Q2333.04 1513.66 2336.1 1518.27 Q2339.18 1522.85 2339.18 1531.6 Q2339.18 1540.33 2336.1 1544.94 Q2333.04 1549.52 2327.23 1549.52 Q2321.42 1549.52 2318.34 1544.94 Q2315.29 1540.33 2315.29 1531.6 Q2315.29 1522.85 2318.34 1518.27 Q2321.42 1513.66 2327.23 1513.66 Z" fill="#000000" fill-rule="nonzero" fill-opacity="1" /><polyline clip-path="url(#clip180)" style="stroke:#000000; stroke-linecap:round; stroke-linejoin:round; stroke-width:4; stroke-opacity:1; fill:none" points="155.765,1486.45 155.765,47.2441 "/>
<polyline clip-path="url(#clip180)" style="stroke:#000000; stroke-linecap:round; stroke-linejoin:round; stroke-width:4; stroke-opacity:1; fill:none" points="155.765,1301.97 174.663,1301.97 "/>
<polyline clip-path="url(#clip180)" style="stroke:#000000; stroke-linecap:round; stroke-linejoin:round; stroke-width:4; stroke-opacity:1; fill:none" points="155.765,1069.58 174.663,1069.58 "/>
<polyline clip-path="url(#clip180)" style="stroke:#000000; stroke-linecap:round; stroke-linejoin:round; stroke-width:4; stroke-opacity:1; fill:none" points="155.765,837.182 174.663,837.182 "/>
<polyline clip-path="url(#clip180)" style="stroke:#000000; stroke-linecap:round; stroke-linejoin:round; stroke-width:4; stroke-opacity:1; fill:none" points="155.765,604.789 174.663,604.789 "/>
<polyline clip-path="url(#clip180)" style="stroke:#000000; stroke-linecap:round; stroke-linejoin:round; stroke-width:4; stroke-opacity:1; fill:none" points="155.765,372.396 174.663,372.396 "/>
<polyline clip-path="url(#clip180)" style="stroke:#000000; stroke-linecap:round; stroke-linejoin:round; stroke-width:4; stroke-opacity:1; fill:none" points="155.765,140.002 174.663,140.002 "/>
<path clip-path="url(#clip180)" d="M63.5847 1287.77 Q59.9736 1287.77 58.1449 1291.33 Q56.3393 1294.87 56.3393 1302 Q56.3393 1309.11 58.1449 1312.67 Q59.9736 1316.22 63.5847 1316.22 Q67.2189 1316.22 69.0244 1312.67 Q70.8531 1309.11 70.8531 1302 Q70.8531 1294.87 69.0244 1291.33 Q67.2189 1287.77 63.5847 1287.77 M63.5847 1284.06 Q69.3948 1284.06 72.4503 1288.67 Q75.529 1293.25 75.529 1302 Q75.529 1310.73 72.4503 1315.34 Q69.3948 1319.92 63.5847 1319.92 Q57.7745 1319.92 54.6958 1315.34 Q51.6403 1310.73 51.6403 1302 Q51.6403 1293.25 54.6958 1288.67 Q57.7745 1284.06 63.5847 1284.06 Z" fill="#000000" fill-rule="nonzero" fill-opacity="1" /><path clip-path="url(#clip180)" d="M83.7466 1313.37 L88.6308 1313.37 L88.6308 1319.25 L83.7466 1319.25 L83.7466 1313.37 Z" fill="#000000" fill-rule="nonzero" fill-opacity="1" /><path clip-path="url(#clip180)" d="M98.8622 1284.69 L117.219 1284.69 L117.219 1288.62 L103.145 1288.62 L103.145 1297.1 Q104.163 1296.75 105.182 1296.59 Q106.2 1296.4 107.219 1296.4 Q113.006 1296.4 116.385 1299.57 Q119.765 1302.74 119.765 1308.16 Q119.765 1313.74 116.293 1316.84 Q112.82 1319.92 106.501 1319.92 Q104.325 1319.92 102.057 1319.55 Q99.8113 1319.18 97.4039 1318.44 L97.4039 1313.74 Q99.4872 1314.87 101.709 1315.43 Q103.932 1315.98 106.408 1315.98 Q110.413 1315.98 112.751 1313.88 Q115.089 1311.77 115.089 1308.16 Q115.089 1304.55 112.751 1302.44 Q110.413 1300.34 106.408 1300.34 Q104.534 1300.34 102.659 1300.75 Q100.807 1301.17 98.8622 1302.05 L98.8622 1284.69 Z" fill="#000000" fill-rule="nonzero" fill-opacity="1" /><path clip-path="url(#clip180)" d="M53.3995 1082.92 L61.0384 1082.92 L61.0384 1056.55 L52.7282 1058.22 L52.7282 1053.96 L60.9921 1052.3 L65.668 1052.3 L65.668 1082.92 L73.3068 1082.92 L73.3068 1086.86 L53.3995 1086.86 L53.3995 1082.92 Z" fill="#000000" fill-rule="nonzero" fill-opacity="1" /><path clip-path="url(#clip180)" d="M82.7512 1080.98 L87.6354 1080.98 L87.6354 1086.86 L82.7512 1086.86 L82.7512 1080.98 Z" fill="#000000" fill-rule="nonzero" fill-opacity="1" /><path clip-path="url(#clip180)" d="M107.821 1055.37 Q104.209 1055.37 102.381 1058.94 Q100.575 1062.48 100.575 1069.61 Q100.575 1076.72 102.381 1080.28 Q104.209 1083.82 107.821 1083.82 Q111.455 1083.82 113.26 1080.28 Q115.089 1076.72 115.089 1069.61 Q115.089 1062.48 113.26 1058.94 Q111.455 1055.37 107.821 1055.37 M107.821 1051.67 Q113.631 1051.67 116.686 1056.28 Q119.765 1060.86 119.765 1069.61 Q119.765 1078.34 116.686 1082.94 Q113.631 1087.53 107.821 1087.53 Q102.01 1087.53 98.9317 1082.94 Q95.8761 1078.34 95.8761 1069.61 Q95.8761 1060.86 98.9317 1056.28 Q102.01 1051.67 107.821 1051.67 Z" fill="#000000" fill-rule="nonzero" fill-opacity="1" /><path clip-path="url(#clip180)" d="M54.3949 850.527 L62.0337 850.527 L62.0337 824.162 L53.7236 825.828 L53.7236 821.569 L61.9874 819.902 L66.6633 819.902 L66.6633 850.527 L74.3022 850.527 L74.3022 854.462 L54.3949 854.462 L54.3949 850.527 Z" fill="#000000" fill-rule="nonzero" fill-opacity="1" /><path clip-path="url(#clip180)" d="M83.7466 848.583 L88.6308 848.583 L88.6308 854.462 L83.7466 854.462 L83.7466 848.583 Z" fill="#000000" fill-rule="nonzero" fill-opacity="1" /><path clip-path="url(#clip180)" d="M98.8622 819.902 L117.219 819.902 L117.219 823.837 L103.145 823.837 L103.145 832.31 Q104.163 831.962 105.182 831.8 Q106.2 831.615 107.219 831.615 Q113.006 831.615 116.385 834.786 Q119.765 837.958 119.765 843.374 Q119.765 848.953 116.293 852.055 Q112.82 855.134 106.501 855.134 Q104.325 855.134 102.057 854.763 Q99.8113 854.393 97.4039 853.652 L97.4039 848.953 Q99.4872 850.087 101.709 850.643 Q103.932 851.198 106.408 851.198 Q110.413 851.198 112.751 849.092 Q115.089 846.985 115.089 843.374 Q115.089 839.763 112.751 837.657 Q110.413 835.55 106.408 835.55 Q104.534 835.55 102.659 835.967 Q100.807 836.384 98.8622 837.263 L98.8622 819.902 Z" fill="#000000" fill-rule="nonzero" fill-opacity="1" /><path clip-path="url(#clip180)" d="M56.6171 618.134 L72.9365 618.134 L72.9365 622.069 L50.9921 622.069 L50.9921 618.134 Q53.6541 615.379 58.2375 610.75 Q62.8439 606.097 64.0245 604.754 Q66.2698 602.231 67.1494 600.495 Q68.0522 598.736 68.0522 597.046 Q68.0522 594.291 66.1078 592.555 Q64.1865 590.819 61.0847 590.819 Q58.8856 590.819 56.4319 591.583 Q54.0014 592.347 51.2236 593.898 L51.2236 589.176 Q54.0477 588.041 56.5014 587.463 Q58.955 586.884 60.9921 586.884 Q66.3624 586.884 69.5568 589.569 Q72.7513 592.254 72.7513 596.745 Q72.7513 598.875 71.9411 600.796 Q71.1541 602.694 69.0476 605.287 Q68.4689 605.958 65.367 609.176 Q62.2652 612.37 56.6171 618.134 Z" fill="#000000" fill-rule="nonzero" fill-opacity="1" /><path clip-path="url(#clip180)" d="M82.7512 616.189 L87.6354 616.189 L87.6354 622.069 L82.7512 622.069 L82.7512 616.189 Z" fill="#000000" fill-rule="nonzero" fill-opacity="1" /><path clip-path="url(#clip180)" d="M107.821 590.588 Q104.209 590.588 102.381 594.153 Q100.575 597.694 100.575 604.824 Q100.575 611.93 102.381 615.495 Q104.209 619.037 107.821 619.037 Q111.455 619.037 113.26 615.495 Q115.089 611.93 115.089 604.824 Q115.089 597.694 113.26 594.153 Q111.455 590.588 107.821 590.588 M107.821 586.884 Q113.631 586.884 116.686 591.49 Q119.765 596.074 119.765 604.824 Q119.765 613.551 116.686 618.157 Q113.631 622.74 107.821 622.74 Q102.01 622.74 98.9317 618.157 Q95.8761 613.551 95.8761 604.824 Q95.8761 596.074 98.9317 591.49 Q102.01 586.884 107.821 586.884 Z" fill="#000000" fill-rule="nonzero" fill-opacity="1" /><path clip-path="url(#clip180)" d="M57.6125 385.741 L73.9318 385.741 L73.9318 389.676 L51.9875 389.676 L51.9875 385.741 Q54.6495 382.986 59.2328 378.356 Q63.8393 373.704 65.0198 372.361 Q67.2652 369.838 68.1448 368.102 Q69.0476 366.343 69.0476 364.653 Q69.0476 361.898 67.1032 360.162 Q65.1819 358.426 62.08 358.426 Q59.881 358.426 57.4273 359.19 Q54.9967 359.954 52.219 361.505 L52.219 356.782 Q55.043 355.648 57.4967 355.069 Q59.9504 354.491 61.9874 354.491 Q67.3578 354.491 70.5522 357.176 Q73.7466 359.861 73.7466 364.352 Q73.7466 366.481 72.9365 368.403 Q72.1494 370.301 70.0429 372.893 Q69.4642 373.565 66.3624 376.782 Q63.2606 379.977 57.6125 385.741 Z" fill="#000000" fill-rule="nonzero" fill-opacity="1" /><path clip-path="url(#clip180)" d="M83.7466 383.796 L88.6308 383.796 L88.6308 389.676 L83.7466 389.676 L83.7466 383.796 Z" fill="#000000" fill-rule="nonzero" fill-opacity="1" /><path clip-path="url(#clip180)" d="M98.8622 355.116 L117.219 355.116 L117.219 359.051 L103.145 359.051 L103.145 367.523 Q104.163 367.176 105.182 367.014 Q106.2 366.829 107.219 366.829 Q113.006 366.829 116.385 370 Q119.765 373.171 119.765 378.588 Q119.765 384.167 116.293 387.268 Q112.82 390.347 106.501 390.347 Q104.325 390.347 102.057 389.977 Q99.8113 389.606 97.4039 388.866 L97.4039 384.167 Q99.4872 385.301 101.709 385.856 Q103.932 386.412 106.408 386.412 Q110.413 386.412 112.751 384.305 Q115.089 382.199 115.089 378.588 Q115.089 374.977 112.751 372.87 Q110.413 370.764 106.408 370.764 Q104.534 370.764 102.659 371.18 Q100.807 371.597 98.8622 372.477 L98.8622 355.116 Z" fill="#000000" fill-rule="nonzero" fill-opacity="1" /><path clip-path="url(#clip180)" d="M66.7559 138.648 Q70.1124 139.366 71.9874 141.634 Q73.8855 143.903 73.8855 147.236 Q73.8855 152.352 70.367 155.153 Q66.8485 157.954 60.3671 157.954 Q58.1912 157.954 55.8764 157.514 Q53.5847 157.097 51.131 156.241 L51.131 151.727 Q53.0754 152.861 55.3903 153.44 Q57.7051 154.019 60.2282 154.019 Q64.6263 154.019 66.918 152.283 Q69.2328 150.546 69.2328 147.236 Q69.2328 144.181 67.08 142.468 Q64.9504 140.732 61.131 140.732 L57.1032 140.732 L57.1032 136.889 L61.3161 136.889 Q64.7652 136.889 66.5939 135.523 Q68.4226 134.134 68.4226 131.542 Q68.4226 128.88 66.5245 127.468 Q64.6495 126.033 61.131 126.033 Q59.2097 126.033 57.0106 126.449 Q54.8115 126.866 52.1727 127.746 L52.1727 123.579 Q54.8347 122.838 57.1495 122.468 Q59.4875 122.097 61.5476 122.097 Q66.8717 122.097 69.9735 124.528 Q73.0753 126.935 73.0753 131.056 Q73.0753 133.926 71.4318 135.917 Q69.7883 137.884 66.7559 138.648 Z" fill="#000000" fill-rule="nonzero" fill-opacity="1" /><path clip-path="url(#clip180)" d="M82.7512 151.403 L87.6354 151.403 L87.6354 157.282 L82.7512 157.282 L82.7512 151.403 Z" fill="#000000" fill-rule="nonzero" fill-opacity="1" /><path clip-path="url(#clip180)" d="M107.821 125.801 Q104.209 125.801 102.381 129.366 Q100.575 132.908 100.575 140.037 Q100.575 147.144 102.381 150.708 Q104.209 154.25 107.821 154.25 Q111.455 154.25 113.26 150.708 Q115.089 147.144 115.089 140.037 Q115.089 132.908 113.26 129.366 Q111.455 125.801 107.821 125.801 M107.821 122.097 Q113.631 122.097 116.686 126.704 Q119.765 131.287 119.765 140.037 Q119.765 148.764 116.686 153.37 Q113.631 157.954 107.821 157.954 Q102.01 157.954 98.9317 153.37 Q95.8761 148.764 95.8761 140.037 Q95.8761 131.287 98.9317 126.704 Q102.01 122.097 107.821 122.097 Z" fill="#000000" fill-rule="nonzero" fill-opacity="1" /><polyline clip-path="url(#clip181)" style="stroke:#009af9; stroke-linecap:round; stroke-linejoin:round; stroke-width:12; stroke-opacity:1; fill:none" points="217.944,1301.97 425.207,1282.23 632.47,1254.42 839.734,1233.19 1047,1194.32 1254.26,1147.98 1461.52,1153.52 1668.79,1101.32 1876.05,1004.15 2083.31,1021.44 2290.58,937.678 "/>
<polyline clip-path="url(#clip181)" style="stroke:#000000; stroke-linecap:round; stroke-linejoin:round; stroke-width:12; stroke-opacity:1; fill:none" points="217.944,1301.97 217.944,1301.97 "/>
<polyline clip-path="url(#clip181)" style="stroke:#000000; stroke-linecap:round; stroke-linejoin:round; stroke-width:12; stroke-opacity:1; fill:none" points="425.207,1343.82 425.207,1089.74 "/>
<polyline clip-path="url(#clip181)" style="stroke:#000000; stroke-linecap:round; stroke-linejoin:round; stroke-width:12; stroke-opacity:1; fill:none" points="632.47,1336.1 632.47,980.81 "/>
<polyline clip-path="url(#clip181)" style="stroke:#000000; stroke-linecap:round; stroke-linejoin:round; stroke-width:12; stroke-opacity:1; fill:none" points="839.734,1340.72 839.734,746.959 "/>
<polyline clip-path="url(#clip181)" style="stroke:#000000; stroke-linecap:round; stroke-linejoin:round; stroke-width:12; stroke-opacity:1; fill:none" points="1047,1358.99 1047,414.423 "/>
<polyline clip-path="url(#clip181)" style="stroke:#000000; stroke-linecap:round; stroke-linejoin:round; stroke-width:12; stroke-opacity:1; fill:none" points="1254.26,1390.36 1254.26,263.872 "/>
<polyline clip-path="url(#clip181)" style="stroke:#000000; stroke-linecap:round; stroke-linejoin:round; stroke-width:12; stroke-opacity:1; fill:none" points="1461.52,1345.81 1461.52,708.7 "/>
<polyline clip-path="url(#clip181)" style="stroke:#000000; stroke-linecap:round; stroke-linejoin:round; stroke-width:12; stroke-opacity:1; fill:none" points="1668.79,1334.53 1668.79,777.094 "/>
<polyline clip-path="url(#clip181)" style="stroke:#000000; stroke-linecap:round; stroke-linejoin:round; stroke-width:12; stroke-opacity:1; fill:none" points="1876.05,1330.07 1876.05,654.534 "/>
<polyline clip-path="url(#clip181)" style="stroke:#000000; stroke-linecap:round; stroke-linejoin:round; stroke-width:12; stroke-opacity:1; fill:none" points="2083.31,1347.7 2083.31,417.289 "/>
<polyline clip-path="url(#clip181)" style="stroke:#000000; stroke-linecap:round; stroke-linejoin:round; stroke-width:12; stroke-opacity:1; fill:none" points="2290.58,1425.05 2290.58,351.249 "/>
<line clip-path="url(#clip181)" x1="233.944" y1="1301.97" x2="201.944" y2="1301.97" style="stroke:#000000; stroke-width:12; stroke-opacity:1"/>
<line clip-path="url(#clip181)" x1="233.944" y1="1301.97" x2="201.944" y2="1301.97" style="stroke:#000000; stroke-width:12; stroke-opacity:1"/>
<line clip-path="url(#clip181)" x1="441.207" y1="1343.82" x2="409.207" y2="1343.82" style="stroke:#000000; stroke-width:12; stroke-opacity:1"/>
<line clip-path="url(#clip181)" x1="441.207" y1="1089.74" x2="409.207" y2="1089.74" style="stroke:#000000; stroke-width:12; stroke-opacity:1"/>
<line clip-path="url(#clip181)" x1="648.47" y1="1336.1" x2="616.47" y2="1336.1" style="stroke:#000000; stroke-width:12; stroke-opacity:1"/>
<line clip-path="url(#clip181)" x1="648.47" y1="980.81" x2="616.47" y2="980.81" style="stroke:#000000; stroke-width:12; stroke-opacity:1"/>
<line clip-path="url(#clip181)" x1="855.734" y1="1340.72" x2="823.734" y2="1340.72" style="stroke:#000000; stroke-width:12; stroke-opacity:1"/>
<line clip-path="url(#clip181)" x1="855.734" y1="746.959" x2="823.734" y2="746.959" style="stroke:#000000; stroke-width:12; stroke-opacity:1"/>
<line clip-path="url(#clip181)" x1="1063" y1="1358.99" x2="1031" y2="1358.99" style="stroke:#000000; stroke-width:12; stroke-opacity:1"/>
<line clip-path="url(#clip181)" x1="1063" y1="414.423" x2="1031" y2="414.423" style="stroke:#000000; stroke-width:12; stroke-opacity:1"/>
<line clip-path="url(#clip181)" x1="1270.26" y1="1390.36" x2="1238.26" y2="1390.36" style="stroke:#000000; stroke-width:12; stroke-opacity:1"/>
<line clip-path="url(#clip181)" x1="1270.26" y1="263.872" x2="1238.26" y2="263.872" style="stroke:#000000; stroke-width:12; stroke-opacity:1"/>
<line clip-path="url(#clip181)" x1="1477.52" y1="1345.81" x2="1445.52" y2="1345.81" style="stroke:#000000; stroke-width:12; stroke-opacity:1"/>
<line clip-path="url(#clip181)" x1="1477.52" y1="708.7" x2="1445.52" y2="708.7" style="stroke:#000000; stroke-width:12; stroke-opacity:1"/>
<line clip-path="url(#clip181)" x1="1684.79" y1="1334.53" x2="1652.79" y2="1334.53" style="stroke:#000000; stroke-width:12; stroke-opacity:1"/>
<line clip-path="url(#clip181)" x1="1684.79" y1="777.094" x2="1652.79" y2="777.094" style="stroke:#000000; stroke-width:12; stroke-opacity:1"/>
<line clip-path="url(#clip181)" x1="1892.05" y1="1330.07" x2="1860.05" y2="1330.07" style="stroke:#000000; stroke-width:12; stroke-opacity:1"/>
<line clip-path="url(#clip181)" x1="1892.05" y1="654.534" x2="1860.05" y2="654.534" style="stroke:#000000; stroke-width:12; stroke-opacity:1"/>
<line clip-path="url(#clip181)" x1="2099.31" y1="1347.7" x2="2067.31" y2="1347.7" style="stroke:#000000; stroke-width:12; stroke-opacity:1"/>
<line clip-path="url(#clip181)" x1="2099.31" y1="417.289" x2="2067.31" y2="417.289" style="stroke:#000000; stroke-width:12; stroke-opacity:1"/>
<line clip-path="url(#clip181)" x1="2306.58" y1="1425.05" x2="2274.58" y2="1425.05" style="stroke:#000000; stroke-width:12; stroke-opacity:1"/>
<line clip-path="url(#clip181)" x1="2306.58" y1="351.249" x2="2274.58" y2="351.249" style="stroke:#000000; stroke-width:12; stroke-opacity:1"/>
<polyline clip-path="url(#clip181)" style="stroke:#e26f46; stroke-linecap:round; stroke-linejoin:round; stroke-width:12; stroke-opacity:1; fill:none" points="217.944,1301.97 425.207,1316.17 632.47,1301.15 839.734,1287.3 1047,1265.52 1254.26,1284.67 1461.52,1302.58 1668.79,1321.62 1876.05,1283.34 2083.31,1223.61 2290.58,1264.01 "/>
<polyline clip-path="url(#clip181)" style="stroke:#000000; stroke-linecap:round; stroke-linejoin:round; stroke-width:12; stroke-opacity:1; fill:none" points="217.944,1301.97 217.944,1301.97 "/>
<polyline clip-path="url(#clip181)" style="stroke:#000000; stroke-linecap:round; stroke-linejoin:round; stroke-width:12; stroke-opacity:1; fill:none" points="425.207,1348.83 425.207,1191.96 "/>
<polyline clip-path="url(#clip181)" style="stroke:#000000; stroke-linecap:round; stroke-linejoin:round; stroke-width:12; stroke-opacity:1; fill:none" points="632.47,1377.34 632.47,1060.25 "/>
<polyline clip-path="url(#clip181)" style="stroke:#000000; stroke-linecap:round; stroke-linejoin:round; stroke-width:12; stroke-opacity:1; fill:none" points="839.734,1393.56 839.734,1012.38 "/>
<polyline clip-path="url(#clip181)" style="stroke:#000000; stroke-linecap:round; stroke-linejoin:round; stroke-width:12; stroke-opacity:1; fill:none" points="1047,1394.07 1047,1028.82 "/>
<polyline clip-path="url(#clip181)" style="stroke:#000000; stroke-linecap:round; stroke-linejoin:round; stroke-width:12; stroke-opacity:1; fill:none" points="1254.26,1392.94 1254.26,968.576 "/>
<polyline clip-path="url(#clip181)" style="stroke:#000000; stroke-linecap:round; stroke-linejoin:round; stroke-width:12; stroke-opacity:1; fill:none" points="1461.52,1410.46 1461.52,906.002 "/>
<polyline clip-path="url(#clip181)" style="stroke:#000000; stroke-linecap:round; stroke-linejoin:round; stroke-width:12; stroke-opacity:1; fill:none" points="1668.79,1433.1 1668.79,789.026 "/>
<polyline clip-path="url(#clip181)" style="stroke:#000000; stroke-linecap:round; stroke-linejoin:round; stroke-width:12; stroke-opacity:1; fill:none" points="1876.05,1443.85 1876.05,482.795 "/>
<polyline clip-path="url(#clip181)" style="stroke:#000000; stroke-linecap:round; stroke-linejoin:round; stroke-width:12; stroke-opacity:1; fill:none" points="2083.31,1441.01 2083.31,117.42 "/>
<polyline clip-path="url(#clip181)" style="stroke:#000000; stroke-linecap:round; stroke-linejoin:round; stroke-width:12; stroke-opacity:1; fill:none" points="2290.58,1445.72 2290.58,87.9763 "/>
<line clip-path="url(#clip181)" x1="233.944" y1="1301.97" x2="201.944" y2="1301.97" style="stroke:#000000; stroke-width:12; stroke-opacity:1"/>
<line clip-path="url(#clip181)" x1="233.944" y1="1301.97" x2="201.944" y2="1301.97" style="stroke:#000000; stroke-width:12; stroke-opacity:1"/>
<line clip-path="url(#clip181)" x1="441.207" y1="1348.83" x2="409.207" y2="1348.83" style="stroke:#000000; stroke-width:12; stroke-opacity:1"/>
<line clip-path="url(#clip181)" x1="441.207" y1="1191.96" x2="409.207" y2="1191.96" style="stroke:#000000; stroke-width:12; stroke-opacity:1"/>
<line clip-path="url(#clip181)" x1="648.47" y1="1377.34" x2="616.47" y2="1377.34" style="stroke:#000000; stroke-width:12; stroke-opacity:1"/>
<line clip-path="url(#clip181)" x1="648.47" y1="1060.25" x2="616.47" y2="1060.25" style="stroke:#000000; stroke-width:12; stroke-opacity:1"/>
<line clip-path="url(#clip181)" x1="855.734" y1="1393.56" x2="823.734" y2="1393.56" style="stroke:#000000; stroke-width:12; stroke-opacity:1"/>
<line clip-path="url(#clip181)" x1="855.734" y1="1012.38" x2="823.734" y2="1012.38" style="stroke:#000000; stroke-width:12; stroke-opacity:1"/>
<line clip-path="url(#clip181)" x1="1063" y1="1394.07" x2="1031" y2="1394.07" style="stroke:#000000; stroke-width:12; stroke-opacity:1"/>
<line clip-path="url(#clip181)" x1="1063" y1="1028.82" x2="1031" y2="1028.82" style="stroke:#000000; stroke-width:12; stroke-opacity:1"/>
<line clip-path="url(#clip181)" x1="1270.26" y1="1392.94" x2="1238.26" y2="1392.94" style="stroke:#000000; stroke-width:12; stroke-opacity:1"/>
<line clip-path="url(#clip181)" x1="1270.26" y1="968.576" x2="1238.26" y2="968.576" style="stroke:#000000; stroke-width:12; stroke-opacity:1"/>
<line clip-path="url(#clip181)" x1="1477.52" y1="1410.46" x2="1445.52" y2="1410.46" style="stroke:#000000; stroke-width:12; stroke-opacity:1"/>
<line clip-path="url(#clip181)" x1="1477.52" y1="906.002" x2="1445.52" y2="906.002" style="stroke:#000000; stroke-width:12; stroke-opacity:1"/>
<line clip-path="url(#clip181)" x1="1684.79" y1="1433.1" x2="1652.79" y2="1433.1" style="stroke:#000000; stroke-width:12; stroke-opacity:1"/>
<line clip-path="url(#clip181)" x1="1684.79" y1="789.026" x2="1652.79" y2="789.026" style="stroke:#000000; stroke-width:12; stroke-opacity:1"/>
<line clip-path="url(#clip181)" x1="1892.05" y1="1443.85" x2="1860.05" y2="1443.85" style="stroke:#000000; stroke-width:12; stroke-opacity:1"/>
<line clip-path="url(#clip181)" x1="1892.05" y1="482.795" x2="1860.05" y2="482.795" style="stroke:#000000; stroke-width:12; stroke-opacity:1"/>
<line clip-path="url(#clip181)" x1="2099.31" y1="1441.01" x2="2067.31" y2="1441.01" style="stroke:#000000; stroke-width:12; stroke-opacity:1"/>
<line clip-path="url(#clip181)" x1="2099.31" y1="117.42" x2="2067.31" y2="117.42" style="stroke:#000000; stroke-width:12; stroke-opacity:1"/>
<line clip-path="url(#clip181)" x1="2306.58" y1="1445.72" x2="2274.58" y2="1445.72" style="stroke:#000000; stroke-width:12; stroke-opacity:1"/>
<line clip-path="url(#clip181)" x1="2306.58" y1="87.9763" x2="2274.58" y2="87.9763" style="stroke:#000000; stroke-width:12; stroke-opacity:1"/>
</svg>
