<?xml version="1.0" encoding="utf-8"?>
<svg xmlns="http://www.w3.org/2000/svg" xmlns:xlink="http://www.w3.org/1999/xlink" width="600" height="400" viewBox="0 0 2400 1600">
<defs>
  <clipPath id="clip210">
    <rect x="0" y="0" width="2400" height="1600"/>
  </clipPath>
</defs>
<path clip-path="url(#clip210)" d="M0 1600 L2400 1600 L2400 0 L0 0  Z" fill="#ffffff" fill-rule="evenodd" fill-opacity="1"/>
<defs>
  <clipPath id="clip211">
    <rect x="186" y="47" width="2167" height="1440"/>
  </clipPath>
</defs>
<path clip-path="url(#clip210)" d="M186.274 1486.45 L2352.76 1486.45 L2352.76 47.2441 L186.274 47.2441  Z" fill="#ffffff" fill-rule="evenodd" fill-opacity="1"/>
<polyline clip-path="url(#clip211)" style="stroke:#000000; stroke-linecap:round; stroke-linejoin:round; stroke-width:2; stroke-opacity:0.1; fill:none" points="247.59,1486.45 247.59,47.2441 "/>
<polyline clip-path="url(#clip211)" style="stroke:#000000; stroke-linecap:round; stroke-linejoin:round; stroke-width:2; stroke-opacity:0.1; fill:none" points="758.552,1486.45 758.552,47.2441 "/>
<polyline clip-path="url(#clip211)" style="stroke:#000000; stroke-linecap:round; stroke-linejoin:round; stroke-width:2; stroke-opacity:0.1; fill:none" points="1269.51,1486.45 1269.51,47.2441 "/>
<polyline clip-path="url(#clip211)" style="stroke:#000000; stroke-linecap:round; stroke-linejoin:round; stroke-width:2; stroke-opacity:0.1; fill:none" points="1780.48,1486.45 1780.48,47.2441 "/>
<polyline clip-path="url(#clip211)" style="stroke:#000000; stroke-linecap:round; stroke-linejoin:round; stroke-width:2; stroke-opacity:0.1; fill:none" points="2291.44,1486.45 2291.44,47.2441 "/>
<polyline clip-path="url(#clip211)" style="stroke:#000000; stroke-linecap:round; stroke-linejoin:round; stroke-width:2; stroke-opacity:0.1; fill:none" points="186.274,1352.55 2352.76,1352.55 "/>
<polyline clip-path="url(#clip211)" style="stroke:#000000; stroke-linecap:round; stroke-linejoin:round; stroke-width:2; stroke-opacity:0.1; fill:none" points="186.274,1037.89 2352.76,1037.89 "/>
<polyline clip-path="url(#clip211)" style="stroke:#000000; stroke-linecap:round; stroke-linejoin:round; stroke-width:2; stroke-opacity:0.1; fill:none" points="186.274,723.235 2352.76,723.235 "/>
<polyline clip-path="url(#clip211)" style="stroke:#000000; stroke-linecap:round; stroke-linejoin:round; stroke-width:2; stroke-opacity:0.1; fill:none" points="186.274,408.577 2352.76,408.577 "/>
<polyline clip-path="url(#clip211)" style="stroke:#000000; stroke-linecap:round; stroke-linejoin:round; stroke-width:2; stroke-opacity:0.1; fill:none" points="186.274,93.9179 2352.76,93.9179 "/>
<polyline clip-path="url(#clip210)" style="stroke:#000000; stroke-linecap:round; stroke-linejoin:round; stroke-width:4; stroke-opacity:1; fill:none" points="186.274,1486.45 2352.76,1486.45 "/>
<polyline clip-path="url(#clip210)" style="stroke:#000000; stroke-linecap:round; stroke-linejoin:round; stroke-width:4; stroke-opacity:1; fill:none" points="247.59,1486.45 247.59,1467.55 "/>
<polyline clip-path="url(#clip210)" style="stroke:#000000; stroke-linecap:round; stroke-linejoin:round; stroke-width:4; stroke-opacity:1; fill:none" points="758.552,1486.45 758.552,1467.55 "/>
<polyline clip-path="url(#clip210)" style="stroke:#000000; stroke-linecap:round; stroke-linejoin:round; stroke-width:4; stroke-opacity:1; fill:none" points="1269.51,1486.45 1269.51,1467.55 "/>
<polyline clip-path="url(#clip210)" style="stroke:#000000; stroke-linecap:round; stroke-linejoin:round; stroke-width:4; stroke-opacity:1; fill:none" points="1780.48,1486.45 1780.48,1467.55 "/>
<polyline clip-path="url(#clip210)" style="stroke:#000000; stroke-linecap:round; stroke-linejoin:round; stroke-width:4; stroke-opacity:1; fill:none" points="2291.44,1486.45 2291.44,1467.55 "/>
<path clip-path="url(#clip210)" d="M209.893 1517.37 Q206.282 1517.37 204.453 1520.93 Q202.648 1524.47 202.648 1531.6 Q202.648 1538.71 204.453 1542.27 Q206.282 1545.82 209.893 1545.82 Q213.527 1545.82 215.333 1542.27 Q217.161 1538.71 217.161 1531.6 Q217.161 1524.47 215.333 1520.93 Q213.527 1517.37 209.893 1517.37 M209.893 1513.66 Q215.703 1513.66 218.759 1518.27 Q221.837 1522.85 221.837 1531.6 Q221.837 1540.33 218.759 1544.94 Q215.703 1549.52 209.893 1549.52 Q204.083 1549.52 201.004 1544.94 Q197.949 1540.33 197.949 1531.6 Q197.949 1522.85 201.004 1518.27 Q204.083 1513.66 209.893 1513.66 Z" fill="#000000" fill-rule="nonzero" fill-opacity="1" /><path clip-path="url(#clip210)" d="M230.055 1542.97 L234.939 1542.97 L234.939 1548.85 L230.055 1548.85 L230.055 1542.97 Z" fill="#000000" fill-rule="nonzero" fill-opacity="1" /><path clip-path="url(#clip210)" d="M255.124 1517.37 Q251.513 1517.37 249.684 1520.93 Q247.879 1524.47 247.879 1531.6 Q247.879 1538.71 249.684 1542.27 Q251.513 1545.82 255.124 1545.82 Q258.758 1545.82 260.564 1542.27 Q262.393 1538.71 262.393 1531.6 Q262.393 1524.47 260.564 1520.93 Q258.758 1517.37 255.124 1517.37 M255.124 1513.66 Q260.934 1513.66 263.99 1518.27 Q267.069 1522.85 267.069 1531.6 Q267.069 1540.33 263.99 1544.94 Q260.934 1549.52 255.124 1549.52 Q249.314 1549.52 246.235 1544.94 Q243.18 1540.33 243.18 1531.6 Q243.18 1522.85 246.235 1518.27 Q249.314 1513.66 255.124 1513.66 Z" fill="#000000" fill-rule="nonzero" fill-opacity="1" /><path clip-path="url(#clip210)" d="M285.286 1517.37 Q281.675 1517.37 279.846 1520.93 Q278.041 1524.47 278.041 1531.6 Q278.041 1538.71 279.846 1542.27 Q281.675 1545.82 285.286 1545.82 Q288.92 1545.82 290.726 1542.27 Q292.555 1538.71 292.555 1531.6 Q292.555 1524.47 290.726 1520.93 Q288.92 1517.37 285.286 1517.37 M285.286 1513.66 Q291.096 1513.66 294.152 1518.27 Q297.23 1522.85 297.23 1531.6 Q297.23 1540.33 294.152 1544.94 Q291.096 1549.52 285.286 1549.52 Q279.476 1549.52 276.397 1544.94 Q273.342 1540.33 273.342 1531.6 Q273.342 1522.85 276.397 1518.27 Q279.476 1513.66 285.286 1513.66 Z" fill="#000000" fill-rule="nonzero" fill-opacity="1" /><path clip-path="url(#clip210)" d="M721.353 1517.37 Q717.742 1517.37 715.914 1520.93 Q714.108 1524.47 714.108 1531.6 Q714.108 1538.71 715.914 1542.27 Q717.742 1545.82 721.353 1545.82 Q724.988 1545.82 726.793 1542.27 Q728.622 1538.71 728.622 1531.6 Q728.622 1524.47 726.793 1520.93 Q724.988 1517.37 721.353 1517.37 M721.353 1513.66 Q727.164 1513.66 730.219 1518.27 Q733.298 1522.85 733.298 1531.6 Q733.298 1540.33 730.219 1544.94 Q727.164 1549.52 721.353 1549.52 Q715.543 1549.52 712.465 1544.94 Q709.409 1540.33 709.409 1531.6 Q709.409 1522.85 712.465 1518.27 Q715.543 1513.66 721.353 1513.66 Z" fill="#000000" fill-rule="nonzero" fill-opacity="1" /><path clip-path="url(#clip210)" d="M741.515 1542.97 L746.4 1542.97 L746.4 1548.85 L741.515 1548.85 L741.515 1542.97 Z" fill="#000000" fill-rule="nonzero" fill-opacity="1" /><path clip-path="url(#clip210)" d="M760.612 1544.91 L776.932 1544.91 L776.932 1548.85 L754.987 1548.85 L754.987 1544.91 Q757.649 1542.16 762.233 1537.53 Q766.839 1532.88 768.02 1531.53 Q770.265 1529.01 771.145 1527.27 Q772.048 1525.51 772.048 1523.82 Q772.048 1521.07 770.103 1519.33 Q768.182 1517.6 765.08 1517.6 Q762.881 1517.6 760.427 1518.36 Q757.997 1519.13 755.219 1520.68 L755.219 1515.95 Q758.043 1514.82 760.497 1514.24 Q762.95 1513.66 764.987 1513.66 Q770.358 1513.66 773.552 1516.35 Q776.747 1519.03 776.747 1523.52 Q776.747 1525.65 775.936 1527.57 Q775.149 1529.47 773.043 1532.07 Q772.464 1532.74 769.362 1535.95 Q766.261 1539.15 760.612 1544.91 Z" fill="#000000" fill-rule="nonzero" fill-opacity="1" /><path clip-path="url(#clip210)" d="M786.793 1514.29 L805.149 1514.29 L805.149 1518.22 L791.075 1518.22 L791.075 1526.7 Q792.094 1526.35 793.112 1526.19 Q794.131 1526 795.149 1526 Q800.936 1526 804.316 1529.17 Q807.695 1532.34 807.695 1537.76 Q807.695 1543.34 804.223 1546.44 Q800.751 1549.52 794.432 1549.52 Q792.256 1549.52 789.987 1549.15 Q787.742 1548.78 785.335 1548.04 L785.335 1543.34 Q787.418 1544.47 789.64 1545.03 Q791.862 1545.58 794.339 1545.58 Q798.344 1545.58 800.682 1543.48 Q803.02 1541.37 803.02 1537.76 Q803.02 1534.15 800.682 1532.04 Q798.344 1529.94 794.339 1529.94 Q792.464 1529.94 790.589 1530.35 Q788.737 1530.77 786.793 1531.65 L786.793 1514.29 Z" fill="#000000" fill-rule="nonzero" fill-opacity="1" /><path clip-path="url(#clip210)" d="M1231.82 1517.37 Q1228.21 1517.37 1226.38 1520.93 Q1224.57 1524.47 1224.57 1531.6 Q1224.57 1538.71 1226.38 1542.27 Q1228.21 1545.82 1231.82 1545.82 Q1235.45 1545.82 1237.26 1542.27 Q1239.09 1538.71 1239.09 1531.6 Q1239.09 1524.47 1237.26 1520.93 Q1235.45 1517.37 1231.82 1517.37 M1231.82 1513.66 Q1237.63 1513.66 1240.68 1518.27 Q1243.76 1522.85 1243.76 1531.6 Q1243.76 1540.33 1240.68 1544.94 Q1237.63 1549.52 1231.82 1549.52 Q1226.01 1549.52 1222.93 1544.94 Q1219.87 1540.33 1219.87 1531.6 Q1219.87 1522.85 1222.93 1518.27 Q1226.01 1513.66 1231.82 1513.66 Z" fill="#000000" fill-rule="nonzero" fill-opacity="1" /><path clip-path="url(#clip210)" d="M1251.98 1542.97 L1256.86 1542.97 L1256.86 1548.85 L1251.98 1548.85 L1251.98 1542.97 Z" fill="#000000" fill-rule="nonzero" fill-opacity="1" /><path clip-path="url(#clip210)" d="M1267.1 1514.29 L1285.45 1514.29 L1285.45 1518.22 L1271.38 1518.22 L1271.38 1526.7 Q1272.4 1526.35 1273.42 1526.19 Q1274.43 1526 1275.45 1526 Q1281.24 1526 1284.62 1529.17 Q1288 1532.34 1288 1537.76 Q1288 1543.34 1284.53 1546.44 Q1281.05 1549.52 1274.73 1549.52 Q1272.56 1549.52 1270.29 1549.15 Q1268.05 1548.78 1265.64 1548.04 L1265.64 1543.34 Q1267.72 1544.47 1269.94 1545.03 Q1272.17 1545.58 1274.64 1545.58 Q1278.65 1545.58 1280.98 1543.48 Q1283.32 1541.37 1283.32 1537.76 Q1283.32 1534.15 1280.98 1532.04 Q1278.65 1529.94 1274.64 1529.94 Q1272.77 1529.94 1270.89 1530.35 Q1269.04 1530.77 1267.1 1531.65 L1267.1 1514.29 Z" fill="#000000" fill-rule="nonzero" fill-opacity="1" /><path clip-path="url(#clip210)" d="M1307.21 1517.37 Q1303.6 1517.37 1301.77 1520.93 Q1299.97 1524.47 1299.97 1531.6 Q1299.97 1538.71 1301.77 1542.27 Q1303.6 1545.82 1307.21 1545.82 Q1310.85 1545.82 1312.65 1542.27 Q1314.48 1538.71 1314.48 1531.6 Q1314.48 1524.47 1312.65 1520.93 Q1310.85 1517.37 1307.21 1517.37 M1307.21 1513.66 Q1313.02 1513.66 1316.08 1518.27 Q1319.16 1522.85 1319.16 1531.6 Q1319.16 1540.33 1316.08 1544.94 Q1313.02 1549.52 1307.21 1549.52 Q1301.4 1549.52 1298.32 1544.94 Q1295.27 1540.33 1295.27 1531.6 Q1295.27 1522.85 1298.32 1518.27 Q1301.4 1513.66 1307.21 1513.66 Z" fill="#000000" fill-rule="nonzero" fill-opacity="1" /><path clip-path="url(#clip210)" d="M1743.28 1517.37 Q1739.67 1517.37 1737.84 1520.93 Q1736.03 1524.47 1736.03 1531.6 Q1736.03 1538.71 1737.84 1542.27 Q1739.67 1545.82 1743.28 1545.82 Q1746.91 1545.82 1748.72 1542.27 Q1750.55 1538.71 1750.55 1531.6 Q1750.55 1524.47 1748.72 1520.93 Q1746.91 1517.37 1743.28 1517.37 M1743.28 1513.66 Q1749.09 1513.66 1752.14 1518.27 Q1755.22 1522.85 1755.22 1531.6 Q1755.22 1540.33 1752.14 1544.94 Q1749.09 1549.52 1743.28 1549.52 Q1737.47 1549.52 1734.39 1544.94 Q1731.33 1540.33 1731.33 1531.6 Q1731.33 1522.85 1734.39 1518.27 Q1737.47 1513.66 1743.28 1513.66 Z" fill="#000000" fill-rule="nonzero" fill-opacity="1" /><path clip-path="url(#clip210)" d="M1763.44 1542.97 L1768.32 1542.97 L1768.32 1548.85 L1763.44 1548.85 L1763.44 1542.97 Z" fill="#000000" fill-rule="nonzero" fill-opacity="1" /><path clip-path="url(#clip210)" d="M1777.33 1514.29 L1799.55 1514.29 L1799.55 1516.28 L1787.01 1548.85 L1782.12 1548.85 L1793.93 1518.22 L1777.33 1518.22 L1777.33 1514.29 Z" fill="#000000" fill-rule="nonzero" fill-opacity="1" /><path clip-path="url(#clip210)" d="M1808.72 1514.29 L1827.07 1514.29 L1827.07 1518.22 L1813 1518.22 L1813 1526.7 Q1814.02 1526.35 1815.04 1526.19 Q1816.06 1526 1817.07 1526 Q1822.86 1526 1826.24 1529.17 Q1829.62 1532.34 1829.62 1537.76 Q1829.62 1543.34 1826.15 1546.44 Q1822.68 1549.52 1816.36 1549.52 Q1814.18 1549.52 1811.91 1549.15 Q1809.67 1548.78 1807.26 1548.04 L1807.26 1543.34 Q1809.34 1544.47 1811.57 1545.03 Q1813.79 1545.58 1816.26 1545.58 Q1820.27 1545.58 1822.61 1543.48 Q1824.95 1541.37 1824.95 1537.76 Q1824.95 1534.15 1822.61 1532.04 Q1820.27 1529.94 1816.26 1529.94 Q1814.39 1529.94 1812.51 1530.35 Q1810.66 1530.77 1808.72 1531.65 L1808.72 1514.29 Z" fill="#000000" fill-rule="nonzero" fill-opacity="1" /><path clip-path="url(#clip210)" d="M2243.51 1544.91 L2251.15 1544.91 L2251.15 1518.55 L2242.84 1520.21 L2242.84 1515.95 L2251.1 1514.29 L2255.78 1514.29 L2255.78 1544.91 L2263.42 1544.91 L2263.42 1548.85 L2243.51 1548.85 L2243.51 1544.91 Z" fill="#000000" fill-rule="nonzero" fill-opacity="1" /><path clip-path="url(#clip210)" d="M2272.86 1542.97 L2277.75 1542.97 L2277.75 1548.85 L2272.86 1548.85 L2272.86 1542.97 Z" fill="#000000" fill-rule="nonzero" fill-opacity="1" /><path clip-path="url(#clip210)" d="M2297.93 1517.37 Q2294.32 1517.37 2292.49 1520.93 Q2290.69 1524.47 2290.69 1531.6 Q2290.69 1538.71 2292.49 1542.27 Q2294.32 1545.82 2297.93 1545.82 Q2301.57 1545.82 2303.37 1542.27 Q2305.2 1538.71 2305.2 1531.6 Q2305.2 1524.47 2303.37 1520.93 Q2301.57 1517.37 2297.93 1517.37 M2297.93 1513.66 Q2303.74 1513.66 2306.8 1518.27 Q2309.88 1522.85 2309.88 1531.6 Q2309.88 1540.33 2306.8 1544.94 Q2303.74 1549.52 2297.93 1549.52 Q2292.12 1549.52 2289.04 1544.94 Q2285.99 1540.33 2285.99 1531.6 Q2285.99 1522.85 2289.04 1518.27 Q2292.12 1513.66 2297.93 1513.66 Z" fill="#000000" fill-rule="nonzero" fill-opacity="1" /><path clip-path="url(#clip210)" d="M2328.1 1517.37 Q2324.48 1517.37 2322.66 1520.93 Q2320.85 1524.47 2320.85 1531.6 Q2320.85 1538.71 2322.66 1542.27 Q2324.48 1545.82 2328.1 1545.82 Q2331.73 1545.82 2333.54 1542.27 Q2335.36 1538.71 2335.36 1531.6 Q2335.36 1524.47 2333.54 1520.93 Q2331.73 1517.37 2328.1 1517.37 M2328.1 1513.66 Q2333.91 1513.66 2336.96 1518.27 Q2340.04 1522.85 2340.04 1531.6 Q2340.04 1540.33 2336.96 1544.94 Q2333.91 1549.52 2328.1 1549.52 Q2322.29 1549.52 2319.21 1544.94 Q2316.15 1540.33 2316.15 1531.6 Q2316.15 1522.85 2319.21 1518.27 Q2322.29 1513.66 2328.1 1513.66 Z" fill="#000000" fill-rule="nonzero" fill-opacity="1" /><polyline clip-path="url(#clip210)" style="stroke:#000000; stroke-linecap:round; stroke-linejoin:round; stroke-width:4; stroke-opacity:1; fill:none" points="186.274,1486.45 186.274,47.2441 "/>
<polyline clip-path="url(#clip210)" style="stroke:#000000; stroke-linecap:round; stroke-linejoin:round; stroke-width:4; stroke-opacity:1; fill:none" points="186.274,1352.55 205.172,1352.55 "/>
<polyline clip-path="url(#clip210)" style="stroke:#000000; stroke-linecap:round; stroke-linejoin:round; stroke-width:4; stroke-opacity:1; fill:none" points="186.274,1037.89 205.172,1037.89 "/>
<polyline clip-path="url(#clip210)" style="stroke:#000000; stroke-linecap:round; stroke-linejoin:round; stroke-width:4; stroke-opacity:1; fill:none" points="186.274,723.235 205.172,723.235 "/>
<polyline clip-path="url(#clip210)" style="stroke:#000000; stroke-linecap:round; stroke-linejoin:round; stroke-width:4; stroke-opacity:1; fill:none" points="186.274,408.577 205.172,408.577 "/>
<polyline clip-path="url(#clip210)" style="stroke:#000000; stroke-linecap:round; stroke-linejoin:round; stroke-width:4; stroke-opacity:1; fill:none" points="186.274,93.9179 205.172,93.9179 "/>
<path clip-path="url(#clip210)" d="M62.9365 1338.35 Q59.3254 1338.35 57.4967 1341.92 Q55.6912 1345.46 55.6912 1352.59 Q55.6912 1359.69 57.4967 1363.26 Q59.3254 1366.8 62.9365 1366.8 Q66.5707 1366.8 68.3763 1363.26 Q70.205 1359.69 70.205 1352.59 Q70.205 1345.46 68.3763 1341.92 Q66.5707 1338.35 62.9365 1338.35 M62.9365 1334.65 Q68.7467 1334.65 71.8022 1339.25 Q74.8809 1343.84 74.8809 1352.59 Q74.8809 1361.31 71.8022 1365.92 Q68.7467 1370.5 62.9365 1370.5 Q57.1264 1370.5 54.0477 1365.92 Q50.9921 1361.31 50.9921 1352.59 Q50.9921 1343.84 54.0477 1339.25 Q57.1264 1334.65 62.9365 1334.65 Z" fill="#000000" fill-rule="nonzero" fill-opacity="1" /><path clip-path="url(#clip210)" d="M83.0984 1363.95 L87.9827 1363.95 L87.9827 1369.83 L83.0984 1369.83 L83.0984 1363.95 Z" fill="#000000" fill-rule="nonzero" fill-opacity="1" /><path clip-path="url(#clip210)" d="M98.2141 1335.27 L116.57 1335.27 L116.57 1339.21 L102.496 1339.21 L102.496 1347.68 Q103.515 1347.33 104.534 1347.17 Q105.552 1346.99 106.571 1346.99 Q112.358 1346.99 115.737 1350.16 Q119.117 1353.33 119.117 1358.74 Q119.117 1364.32 115.645 1367.43 Q112.172 1370.5 105.853 1370.5 Q103.677 1370.5 101.409 1370.13 Q99.1632 1369.76 96.7558 1369.02 L96.7558 1364.32 Q98.8391 1365.46 101.061 1366.01 Q103.284 1366.57 105.76 1366.57 Q109.765 1366.57 112.103 1364.46 Q114.441 1362.36 114.441 1358.74 Q114.441 1355.13 112.103 1353.03 Q109.765 1350.92 105.76 1350.92 Q103.885 1350.92 102.01 1351.34 Q100.159 1351.75 98.2141 1352.63 L98.2141 1335.27 Z" fill="#000000" fill-rule="nonzero" fill-opacity="1" /><path clip-path="url(#clip210)" d="M138.33 1338.35 Q134.719 1338.35 132.89 1341.92 Q131.084 1345.46 131.084 1352.59 Q131.084 1359.69 132.89 1363.26 Q134.719 1366.8 138.33 1366.8 Q141.964 1366.8 143.769 1363.26 Q145.598 1359.69 145.598 1352.59 Q145.598 1345.46 143.769 1341.92 Q141.964 1338.35 138.33 1338.35 M138.33 1334.65 Q144.14 1334.65 147.195 1339.25 Q150.274 1343.84 150.274 1352.59 Q150.274 1361.31 147.195 1365.92 Q144.14 1370.5 138.33 1370.5 Q132.519 1370.5 129.441 1365.92 Q126.385 1361.31 126.385 1352.59 Q126.385 1343.84 129.441 1339.25 Q132.519 1334.65 138.33 1334.65 Z" fill="#000000" fill-rule="nonzero" fill-opacity="1" /><path clip-path="url(#clip210)" d="M63.9319 1023.69 Q60.3208 1023.69 58.4921 1027.26 Q56.6865 1030.8 56.6865 1037.93 Q56.6865 1045.04 58.4921 1048.6 Q60.3208 1052.14 63.9319 1052.14 Q67.5661 1052.14 69.3717 1048.6 Q71.2004 1045.04 71.2004 1037.93 Q71.2004 1030.8 69.3717 1027.26 Q67.5661 1023.69 63.9319 1023.69 M63.9319 1019.99 Q69.742 1019.99 72.7976 1024.6 Q75.8763 1029.18 75.8763 1037.93 Q75.8763 1046.66 72.7976 1051.26 Q69.742 1055.85 63.9319 1055.85 Q58.1217 1055.85 55.043 1051.26 Q51.9875 1046.66 51.9875 1037.93 Q51.9875 1029.18 55.043 1024.6 Q58.1217 1019.99 63.9319 1019.99 Z" fill="#000000" fill-rule="nonzero" fill-opacity="1" /><path clip-path="url(#clip210)" d="M84.0938 1049.29 L88.978 1049.29 L88.978 1055.17 L84.0938 1055.17 L84.0938 1049.29 Z" fill="#000000" fill-rule="nonzero" fill-opacity="1" /><path clip-path="url(#clip210)" d="M97.9826 1020.61 L120.205 1020.61 L120.205 1022.6 L107.658 1055.17 L102.774 1055.17 L114.58 1024.55 L97.9826 1024.55 L97.9826 1020.61 Z" fill="#000000" fill-rule="nonzero" fill-opacity="1" /><path clip-path="url(#clip210)" d="M129.371 1020.61 L147.728 1020.61 L147.728 1024.55 L133.654 1024.55 L133.654 1033.02 Q134.672 1032.67 135.691 1032.51 Q136.709 1032.33 137.728 1032.33 Q143.515 1032.33 146.894 1035.5 Q150.274 1038.67 150.274 1044.09 Q150.274 1049.66 146.802 1052.77 Q143.33 1055.85 137.01 1055.85 Q134.834 1055.85 132.566 1055.48 Q130.32 1055.1 127.913 1054.36 L127.913 1049.66 Q129.996 1050.8 132.219 1051.35 Q134.441 1051.91 136.918 1051.91 Q140.922 1051.91 143.26 1049.8 Q145.598 1047.7 145.598 1044.09 Q145.598 1040.48 143.26 1038.37 Q140.922 1036.26 136.918 1036.26 Q135.043 1036.26 133.168 1036.68 Q131.316 1037.1 129.371 1037.98 L129.371 1020.61 Z" fill="#000000" fill-rule="nonzero" fill-opacity="1" /><path clip-path="url(#clip210)" d="M53.7467 736.58 L61.3856 736.58 L61.3856 710.215 L53.0754 711.881 L53.0754 707.622 L61.3393 705.955 L66.0152 705.955 L66.0152 736.58 L73.654 736.58 L73.654 740.515 L53.7467 740.515 L53.7467 736.58 Z" fill="#000000" fill-rule="nonzero" fill-opacity="1" /><path clip-path="url(#clip210)" d="M83.0984 734.636 L87.9827 734.636 L87.9827 740.515 L83.0984 740.515 L83.0984 734.636 Z" fill="#000000" fill-rule="nonzero" fill-opacity="1" /><path clip-path="url(#clip210)" d="M108.168 709.034 Q104.557 709.034 102.728 712.599 Q100.922 716.141 100.922 723.27 Q100.922 730.377 102.728 733.941 Q104.557 737.483 108.168 737.483 Q111.802 737.483 113.608 733.941 Q115.436 730.377 115.436 723.27 Q115.436 716.141 113.608 712.599 Q111.802 709.034 108.168 709.034 M108.168 705.33 Q113.978 705.33 117.033 709.937 Q120.112 714.52 120.112 723.27 Q120.112 731.997 117.033 736.603 Q113.978 741.187 108.168 741.187 Q102.358 741.187 99.2789 736.603 Q96.2234 731.997 96.2234 723.27 Q96.2234 714.52 99.2789 709.937 Q102.358 705.33 108.168 705.33 Z" fill="#000000" fill-rule="nonzero" fill-opacity="1" /><path clip-path="url(#clip210)" d="M138.33 709.034 Q134.719 709.034 132.89 712.599 Q131.084 716.141 131.084 723.27 Q131.084 730.377 132.89 733.941 Q134.719 737.483 138.33 737.483 Q141.964 737.483 143.769 733.941 Q145.598 730.377 145.598 723.27 Q145.598 716.141 143.769 712.599 Q141.964 709.034 138.33 709.034 M138.33 705.33 Q144.14 705.33 147.195 709.937 Q150.274 714.52 150.274 723.27 Q150.274 731.997 147.195 736.603 Q144.14 741.187 138.33 741.187 Q132.519 741.187 129.441 736.603 Q126.385 731.997 126.385 723.27 Q126.385 714.52 129.441 709.937 Q132.519 705.33 138.33 705.33 Z" fill="#000000" fill-rule="nonzero" fill-opacity="1" /><path clip-path="url(#clip210)" d="M54.7421 421.921 L62.381 421.921 L62.381 395.556 L54.0708 397.223 L54.0708 392.963 L62.3347 391.297 L67.0106 391.297 L67.0106 421.921 L74.6494 421.921 L74.6494 425.857 L54.7421 425.857 L54.7421 421.921 Z" fill="#000000" fill-rule="nonzero" fill-opacity="1" /><path clip-path="url(#clip210)" d="M84.0938 419.977 L88.978 419.977 L88.978 425.857 L84.0938 425.857 L84.0938 419.977 Z" fill="#000000" fill-rule="nonzero" fill-opacity="1" /><path clip-path="url(#clip210)" d="M103.191 421.921 L119.51 421.921 L119.51 425.857 L97.566 425.857 L97.566 421.921 Q100.228 419.167 104.811 414.537 Q109.418 409.885 110.598 408.542 Q112.844 406.019 113.723 404.283 Q114.626 402.523 114.626 400.834 Q114.626 398.079 112.682 396.343 Q110.76 394.607 107.658 394.607 Q105.459 394.607 103.006 395.371 Q100.575 396.135 97.7974 397.686 L97.7974 392.963 Q100.621 391.829 103.075 391.25 Q105.529 390.672 107.566 390.672 Q112.936 390.672 116.131 393.357 Q119.325 396.042 119.325 400.533 Q119.325 402.662 118.515 404.584 Q117.728 406.482 115.621 409.074 Q115.043 409.746 111.941 412.963 Q108.839 416.158 103.191 421.921 Z" fill="#000000" fill-rule="nonzero" fill-opacity="1" /><path clip-path="url(#clip210)" d="M129.371 391.297 L147.728 391.297 L147.728 395.232 L133.654 395.232 L133.654 403.704 Q134.672 403.357 135.691 403.195 Q136.709 403.01 137.728 403.01 Q143.515 403.01 146.894 406.181 Q150.274 409.352 150.274 414.769 Q150.274 420.347 146.802 423.449 Q143.33 426.528 137.01 426.528 Q134.834 426.528 132.566 426.158 Q130.32 425.787 127.913 425.046 L127.913 420.347 Q129.996 421.482 132.219 422.037 Q134.441 422.593 136.918 422.593 Q140.922 422.593 143.26 420.486 Q145.598 418.38 145.598 414.769 Q145.598 411.158 143.26 409.051 Q140.922 406.945 136.918 406.945 Q135.043 406.945 133.168 407.361 Q131.316 407.778 129.371 408.658 L129.371 391.297 Z" fill="#000000" fill-rule="nonzero" fill-opacity="1" /><path clip-path="url(#clip210)" d="M53.7467 107.263 L61.3856 107.263 L61.3856 80.8972 L53.0754 82.5638 L53.0754 78.3046 L61.3393 76.6379 L66.0152 76.6379 L66.0152 107.263 L73.654 107.263 L73.654 111.198 L53.7467 111.198 L53.7467 107.263 Z" fill="#000000" fill-rule="nonzero" fill-opacity="1" /><path clip-path="url(#clip210)" d="M83.0984 105.318 L87.9827 105.318 L87.9827 111.198 L83.0984 111.198 L83.0984 105.318 Z" fill="#000000" fill-rule="nonzero" fill-opacity="1" /><path clip-path="url(#clip210)" d="M98.2141 76.6379 L116.57 76.6379 L116.57 80.5731 L102.496 80.5731 L102.496 89.0453 Q103.515 88.6981 104.534 88.536 Q105.552 88.3508 106.571 88.3508 Q112.358 88.3508 115.737 91.5221 Q119.117 94.6934 119.117 100.11 Q119.117 105.689 115.645 108.791 Q112.172 111.869 105.853 111.869 Q103.677 111.869 101.409 111.499 Q99.1632 111.128 96.7558 110.388 L96.7558 105.689 Q98.8391 106.823 101.061 107.379 Q103.284 107.934 105.76 107.934 Q109.765 107.934 112.103 105.828 Q114.441 103.721 114.441 100.11 Q114.441 96.4989 112.103 94.3925 Q109.765 92.286 105.76 92.286 Q103.885 92.286 102.01 92.7027 Q100.159 93.1193 98.2141 93.999 L98.2141 76.6379 Z" fill="#000000" fill-rule="nonzero" fill-opacity="1" /><path clip-path="url(#clip210)" d="M138.33 79.7166 Q134.719 79.7166 132.89 83.2814 Q131.084 86.8231 131.084 93.9527 Q131.084 101.059 132.89 104.624 Q134.719 108.166 138.33 108.166 Q141.964 108.166 143.769 104.624 Q145.598 101.059 145.598 93.9527 Q145.598 86.8231 143.769 83.2814 Q141.964 79.7166 138.33 79.7166 M138.33 76.0129 Q144.14 76.0129 147.195 80.6194 Q150.274 85.2027 150.274 93.9527 Q150.274 102.679 147.195 107.286 Q144.14 111.869 138.33 111.869 Q132.519 111.869 129.441 107.286 Q126.385 102.679 126.385 93.9527 Q126.385 85.2027 129.441 80.6194 Q132.519 76.0129 138.33 76.0129 Z" fill="#000000" fill-rule="nonzero" fill-opacity="1" /><polyline clip-path="url(#clip211)" style="stroke:#009af9; stroke-linecap:round; stroke-linejoin:round; stroke-width:12; stroke-opacity:1; fill:none" points="247.59,1352.55 451.975,1374.81 656.36,1345.01 860.745,1308.54 1065.13,1376.45 1269.51,1445.72 1473.9,1221.62 1678.29,1061.51 1882.67,1025.08 2087.06,1191.86 2291.44,1173.15 "/>
<polyline clip-path="url(#clip211)" style="stroke:#e26f46; stroke-linecap:round; stroke-linejoin:round; stroke-width:12; stroke-opacity:1; fill:none" points="247.59,1352.55 451.975,1200.03 656.36,1083.82 860.745,990.238 1065.13,995.717 1269.51,990.119 1473.9,735.999 1678.29,596.112 1882.67,766.643 2087.06,988.181 2291.44,838.906 "/>
<polyline clip-path="url(#clip211)" style="stroke:#3da44d; stroke-linecap:round; stroke-linejoin:round; stroke-width:12; stroke-opacity:1; fill:none" points="247.59,1352.55 451.975,1299.11 656.36,1223.79 860.745,1166.31 1065.13,1061.04 1269.51,935.55 1473.9,950.543 1678.29,809.199 1882.67,546.059 2087.06,592.877 2291.44,366.06 "/>
<polyline clip-path="url(#clip211)" style="stroke:#c271d2; stroke-linecap:round; stroke-linejoin:round; stroke-width:12; stroke-opacity:1; fill:none" points="247.59,1352.55 451.975,1301.44 656.36,1206.73 860.745,1134.4 1065.13,1010.05 1269.51,928.027 1473.9,632.022 1678.29,227.068 1882.67,87.9763 2087.06,321.805 2291.44,388.059 "/>
<polyline clip-path="url(#clip211)" style="stroke:#ac8d18; stroke-linecap:round; stroke-linejoin:round; stroke-width:12; stroke-opacity:1; fill:none" points="247.59,1352.55 451.975,1391 656.36,1350.34 860.745,1312.83 1065.13,1253.85 1269.51,1305.7 1473.9,1354.21 1678.29,1405.78 1882.67,1302.1 2087.06,1140.37 2291.44,1249.77 "/>
<polyline clip-path="url(#clip211)" style="stroke:#00a9ad; stroke-linecap:round; stroke-linejoin:round; stroke-width:12; stroke-opacity:1; fill:none" points="247.59,1352.55 451.975,1393.73 656.36,1391.07 860.745,1320.66 1065.13,1279.33 1269.51,1166.49 1473.9,1029.33 1678.29,1067.9 1882.67,981.872 2087.06,809.56 2291.44,429.509 "/>
<polyline clip-path="url(#clip211)" style="stroke:#ed5d92; stroke-linecap:round; stroke-linejoin:round; stroke-width:12; stroke-opacity:1; fill:none" points="247.59,1352.55 451.975,1263.62 656.36,1096.68 860.745,972.08 1065.13,966.253 1269.51,986.735 1473.9,865.204 1678.29,979.208 1882.67,1041.02 2087.06,1054.24 2291.44,985.618 "/>
<polyline clip-path="url(#clip211)" style="stroke:#c68125; stroke-linecap:round; stroke-linejoin:round; stroke-width:12; stroke-opacity:1; fill:none" points="247.59,1352.55 451.975,1313.9 656.36,1291.27 860.745,1167.32 1065.13,1112.98 1269.51,1170.21 1473.9,1012.9 1678.29,875.712 1882.67,997.488 2087.06,961.515 2291.44,940.114 "/>
</svg>
