<?xml version="1.0" encoding="utf-8"?>
<svg xmlns="http://www.w3.org/2000/svg" xmlns:xlink="http://www.w3.org/1999/xlink" width="600" height="400" viewBox="0 0 2400 1600">
<defs>
  <clipPath id="clip120">
    <rect x="0" y="0" width="2400" height="1600"/>
  </clipPath>
</defs>
<path clip-path="url(#clip120)" d="M0 1600 L2400 1600 L2400 0 L0 0  Z" fill="#ffffff" fill-rule="evenodd" fill-opacity="1"/>
<defs>
  <clipPath id="clip121">
    <rect x="184" y="47" width="2170" height="1440"/>
  </clipPath>
</defs>
<path clip-path="url(#clip120)" d="M184.191 1486.45 L2352.76 1486.45 L2352.76 47.2441 L184.191 47.2441  Z" fill="#ffffff" fill-rule="evenodd" fill-opacity="1"/>
<polyline clip-path="url(#clip121)" style="stroke:#000000; stroke-linecap:round; stroke-linejoin:round; stroke-width:2; stroke-opacity:0.1; fill:none" points="245.565,1486.45 245.565,47.2441 "/>
<polyline clip-path="url(#clip121)" style="stroke:#000000; stroke-linecap:round; stroke-linejoin:round; stroke-width:2; stroke-opacity:0.1; fill:none" points="757.019,1486.45 757.019,47.2441 "/>
<polyline clip-path="url(#clip121)" style="stroke:#000000; stroke-linecap:round; stroke-linejoin:round; stroke-width:2; stroke-opacity:0.1; fill:none" points="1268.47,1486.45 1268.47,47.2441 "/>
<polyline clip-path="url(#clip121)" style="stroke:#000000; stroke-linecap:round; stroke-linejoin:round; stroke-width:2; stroke-opacity:0.1; fill:none" points="1779.93,1486.45 1779.93,47.2441 "/>
<polyline clip-path="url(#clip121)" style="stroke:#000000; stroke-linecap:round; stroke-linejoin:round; stroke-width:2; stroke-opacity:0.1; fill:none" points="2291.38,1486.45 2291.38,47.2441 "/>
<polyline clip-path="url(#clip121)" style="stroke:#000000; stroke-linecap:round; stroke-linejoin:round; stroke-width:2; stroke-opacity:0.1; fill:none" points="184.191,1455.76 2352.76,1455.76 "/>
<polyline clip-path="url(#clip121)" style="stroke:#000000; stroke-linecap:round; stroke-linejoin:round; stroke-width:2; stroke-opacity:0.1; fill:none" points="184.191,1114.65 2352.76,1114.65 "/>
<polyline clip-path="url(#clip121)" style="stroke:#000000; stroke-linecap:round; stroke-linejoin:round; stroke-width:2; stroke-opacity:0.1; fill:none" points="184.191,773.529 2352.76,773.529 "/>
<polyline clip-path="url(#clip121)" style="stroke:#000000; stroke-linecap:round; stroke-linejoin:round; stroke-width:2; stroke-opacity:0.1; fill:none" points="184.191,432.412 2352.76,432.412 "/>
<polyline clip-path="url(#clip121)" style="stroke:#000000; stroke-linecap:round; stroke-linejoin:round; stroke-width:2; stroke-opacity:0.1; fill:none" points="184.191,91.2944 2352.76,91.2944 "/>
<polyline clip-path="url(#clip120)" style="stroke:#000000; stroke-linecap:round; stroke-linejoin:round; stroke-width:4; stroke-opacity:1; fill:none" points="184.191,1486.45 2352.76,1486.45 "/>
<polyline clip-path="url(#clip120)" style="stroke:#000000; stroke-linecap:round; stroke-linejoin:round; stroke-width:4; stroke-opacity:1; fill:none" points="245.565,1486.45 245.565,1467.55 "/>
<polyline clip-path="url(#clip120)" style="stroke:#000000; stroke-linecap:round; stroke-linejoin:round; stroke-width:4; stroke-opacity:1; fill:none" points="757.019,1486.45 757.019,1467.55 "/>
<polyline clip-path="url(#clip120)" style="stroke:#000000; stroke-linecap:round; stroke-linejoin:round; stroke-width:4; stroke-opacity:1; fill:none" points="1268.47,1486.45 1268.47,1467.55 "/>
<polyline clip-path="url(#clip120)" style="stroke:#000000; stroke-linecap:round; stroke-linejoin:round; stroke-width:4; stroke-opacity:1; fill:none" points="1779.93,1486.45 1779.93,1467.55 "/>
<polyline clip-path="url(#clip120)" style="stroke:#000000; stroke-linecap:round; stroke-linejoin:round; stroke-width:4; stroke-opacity:1; fill:none" points="2291.38,1486.45 2291.38,1467.55 "/>
<path clip-path="url(#clip120)" d="M222.95 1517.37 Q219.338 1517.37 217.51 1520.93 Q215.704 1524.47 215.704 1531.6 Q215.704 1538.71 217.51 1542.27 Q219.338 1545.82 222.95 1545.82 Q226.584 1545.82 228.389 1542.27 Q230.218 1538.71 230.218 1531.6 Q230.218 1524.47 228.389 1520.93 Q226.584 1517.37 222.95 1517.37 M222.95 1513.66 Q228.76 1513.66 231.815 1518.27 Q234.894 1522.85 234.894 1531.6 Q234.894 1540.33 231.815 1544.94 Q228.76 1549.52 222.95 1549.52 Q217.139 1549.52 214.061 1544.94 Q211.005 1540.33 211.005 1531.6 Q211.005 1522.85 214.061 1518.27 Q217.139 1513.66 222.95 1513.66 Z" fill="#000000" fill-rule="nonzero" fill-opacity="1" /><path clip-path="url(#clip120)" d="M243.111 1542.97 L247.996 1542.97 L247.996 1548.85 L243.111 1548.85 L243.111 1542.97 Z" fill="#000000" fill-rule="nonzero" fill-opacity="1" /><path clip-path="url(#clip120)" d="M268.181 1517.37 Q264.57 1517.37 262.741 1520.93 Q260.935 1524.47 260.935 1531.6 Q260.935 1538.71 262.741 1542.27 Q264.57 1545.82 268.181 1545.82 Q271.815 1545.82 273.621 1542.27 Q275.449 1538.71 275.449 1531.6 Q275.449 1524.47 273.621 1520.93 Q271.815 1517.37 268.181 1517.37 M268.181 1513.66 Q273.991 1513.66 277.046 1518.27 Q280.125 1522.85 280.125 1531.6 Q280.125 1540.33 277.046 1544.94 Q273.991 1549.52 268.181 1549.52 Q262.371 1549.52 259.292 1544.94 Q256.236 1540.33 256.236 1531.6 Q256.236 1522.85 259.292 1518.27 Q262.371 1513.66 268.181 1513.66 Z" fill="#000000" fill-rule="nonzero" fill-opacity="1" /><path clip-path="url(#clip120)" d="M728.755 1544.91 L745.075 1544.91 L745.075 1548.85 L723.131 1548.85 L723.131 1544.91 Q725.793 1542.16 730.376 1537.53 Q734.982 1532.88 736.163 1531.53 Q738.408 1529.01 739.288 1527.27 Q740.191 1525.51 740.191 1523.82 Q740.191 1521.07 738.246 1519.33 Q736.325 1517.6 733.223 1517.6 Q731.024 1517.6 728.57 1518.36 Q726.14 1519.13 723.362 1520.68 L723.362 1515.95 Q726.186 1514.82 728.64 1514.24 Q731.093 1513.66 733.13 1513.66 Q738.501 1513.66 741.695 1516.35 Q744.89 1519.03 744.89 1523.52 Q744.89 1525.65 744.079 1527.57 Q743.292 1529.47 741.186 1532.07 Q740.607 1532.74 737.505 1535.95 Q734.404 1539.15 728.755 1544.91 Z" fill="#000000" fill-rule="nonzero" fill-opacity="1" /><path clip-path="url(#clip120)" d="M754.89 1542.97 L759.774 1542.97 L759.774 1548.85 L754.89 1548.85 L754.89 1542.97 Z" fill="#000000" fill-rule="nonzero" fill-opacity="1" /><path clip-path="url(#clip120)" d="M770.005 1514.29 L788.362 1514.29 L788.362 1518.22 L774.288 1518.22 L774.288 1526.7 Q775.306 1526.35 776.325 1526.19 Q777.343 1526 778.362 1526 Q784.149 1526 787.528 1529.17 Q790.908 1532.34 790.908 1537.76 Q790.908 1543.34 787.436 1546.44 Q783.964 1549.52 777.644 1549.52 Q775.468 1549.52 773.2 1549.15 Q770.954 1548.78 768.547 1548.04 L768.547 1543.34 Q770.63 1544.47 772.852 1545.03 Q775.075 1545.58 777.552 1545.58 Q781.556 1545.58 783.894 1543.48 Q786.232 1541.37 786.232 1537.76 Q786.232 1534.15 783.894 1532.04 Q781.556 1529.94 777.552 1529.94 Q775.677 1529.94 773.802 1530.35 Q771.95 1530.77 770.005 1531.65 L770.005 1514.29 Z" fill="#000000" fill-rule="nonzero" fill-opacity="1" /><path clip-path="url(#clip120)" d="M1235.64 1514.29 L1253.99 1514.29 L1253.99 1518.22 L1239.92 1518.22 L1239.92 1526.7 Q1240.94 1526.35 1241.96 1526.19 Q1242.98 1526 1243.99 1526 Q1249.78 1526 1253.16 1529.17 Q1256.54 1532.34 1256.54 1537.76 Q1256.54 1543.34 1253.07 1546.44 Q1249.6 1549.52 1243.28 1549.52 Q1241.1 1549.52 1238.83 1549.15 Q1236.59 1548.78 1234.18 1548.04 L1234.18 1543.34 Q1236.26 1544.47 1238.49 1545.03 Q1240.71 1545.58 1243.18 1545.58 Q1247.19 1545.58 1249.53 1543.48 Q1251.86 1541.37 1251.86 1537.76 Q1251.86 1534.15 1249.53 1532.04 Q1247.19 1529.94 1243.18 1529.94 Q1241.31 1529.94 1239.43 1530.35 Q1237.58 1530.77 1235.64 1531.65 L1235.64 1514.29 Z" fill="#000000" fill-rule="nonzero" fill-opacity="1" /><path clip-path="url(#clip120)" d="M1265.75 1542.97 L1270.64 1542.97 L1270.64 1548.85 L1265.75 1548.85 L1265.75 1542.97 Z" fill="#000000" fill-rule="nonzero" fill-opacity="1" /><path clip-path="url(#clip120)" d="M1290.82 1517.37 Q1287.21 1517.37 1285.38 1520.93 Q1283.58 1524.47 1283.58 1531.6 Q1283.58 1538.71 1285.38 1542.27 Q1287.21 1545.82 1290.82 1545.82 Q1294.46 1545.82 1296.26 1542.27 Q1298.09 1538.71 1298.09 1531.6 Q1298.09 1524.47 1296.26 1520.93 Q1294.46 1517.37 1290.82 1517.37 M1290.82 1513.66 Q1296.63 1513.66 1299.69 1518.27 Q1302.77 1522.85 1302.77 1531.6 Q1302.77 1540.33 1299.69 1544.94 Q1296.63 1549.52 1290.82 1549.52 Q1285.01 1549.52 1281.93 1544.94 Q1278.88 1540.33 1278.88 1531.6 Q1278.88 1522.85 1281.93 1518.27 Q1285.01 1513.66 1290.82 1513.66 Z" fill="#000000" fill-rule="nonzero" fill-opacity="1" /><path clip-path="url(#clip120)" d="M1746.25 1514.29 L1768.47 1514.29 L1768.47 1516.28 L1755.92 1548.85 L1751.04 1548.85 L1762.84 1518.22 L1746.25 1518.22 L1746.25 1514.29 Z" fill="#000000" fill-rule="nonzero" fill-opacity="1" /><path clip-path="url(#clip120)" d="M1777.59 1542.97 L1782.47 1542.97 L1782.47 1548.85 L1777.59 1548.85 L1777.59 1542.97 Z" fill="#000000" fill-rule="nonzero" fill-opacity="1" /><path clip-path="url(#clip120)" d="M1792.71 1514.29 L1811.06 1514.29 L1811.06 1518.22 L1796.99 1518.22 L1796.99 1526.7 Q1798.01 1526.35 1799.02 1526.19 Q1800.04 1526 1801.06 1526 Q1806.85 1526 1810.23 1529.17 Q1813.61 1532.34 1813.61 1537.76 Q1813.61 1543.34 1810.14 1546.44 Q1806.66 1549.52 1800.34 1549.52 Q1798.17 1549.52 1795.9 1549.15 Q1793.65 1548.78 1791.25 1548.04 L1791.25 1543.34 Q1793.33 1544.47 1795.55 1545.03 Q1797.77 1545.58 1800.25 1545.58 Q1804.26 1545.58 1806.59 1543.48 Q1808.93 1541.37 1808.93 1537.76 Q1808.93 1534.15 1806.59 1532.04 Q1804.26 1529.94 1800.25 1529.94 Q1798.38 1529.94 1796.5 1530.35 Q1794.65 1530.77 1792.71 1531.65 L1792.71 1514.29 Z" fill="#000000" fill-rule="nonzero" fill-opacity="1" /><path clip-path="url(#clip120)" d="M2243.45 1544.91 L2251.09 1544.91 L2251.09 1518.55 L2242.78 1520.21 L2242.78 1515.95 L2251.05 1514.29 L2255.72 1514.29 L2255.72 1544.91 L2263.36 1544.91 L2263.36 1548.85 L2243.45 1548.85 L2243.45 1544.91 Z" fill="#000000" fill-rule="nonzero" fill-opacity="1" /><path clip-path="url(#clip120)" d="M2282.81 1517.37 Q2279.19 1517.37 2277.37 1520.93 Q2275.56 1524.47 2275.56 1531.6 Q2275.56 1538.71 2277.37 1542.27 Q2279.19 1545.82 2282.81 1545.82 Q2286.44 1545.82 2288.24 1542.27 Q2290.07 1538.71 2290.07 1531.6 Q2290.07 1524.47 2288.24 1520.93 Q2286.44 1517.37 2282.81 1517.37 M2282.81 1513.66 Q2288.62 1513.66 2291.67 1518.27 Q2294.75 1522.85 2294.75 1531.6 Q2294.75 1540.33 2291.67 1544.94 Q2288.62 1549.52 2282.81 1549.52 Q2276.99 1549.52 2273.92 1544.94 Q2270.86 1540.33 2270.86 1531.6 Q2270.86 1522.85 2273.92 1518.27 Q2276.99 1513.66 2282.81 1513.66 Z" fill="#000000" fill-rule="nonzero" fill-opacity="1" /><path clip-path="url(#clip120)" d="M2302.97 1542.97 L2307.85 1542.97 L2307.85 1548.85 L2302.97 1548.85 L2302.97 1542.97 Z" fill="#000000" fill-rule="nonzero" fill-opacity="1" /><path clip-path="url(#clip120)" d="M2328.04 1517.37 Q2324.43 1517.37 2322.6 1520.93 Q2320.79 1524.47 2320.79 1531.6 Q2320.79 1538.71 2322.6 1542.27 Q2324.43 1545.82 2328.04 1545.82 Q2331.67 1545.82 2333.48 1542.27 Q2335.3 1538.71 2335.3 1531.6 Q2335.3 1524.47 2333.48 1520.93 Q2331.67 1517.37 2328.04 1517.37 M2328.04 1513.66 Q2333.85 1513.66 2336.9 1518.27 Q2339.98 1522.85 2339.98 1531.6 Q2339.98 1540.33 2336.9 1544.94 Q2333.85 1549.52 2328.04 1549.52 Q2322.23 1549.52 2319.15 1544.94 Q2316.09 1540.33 2316.09 1531.6 Q2316.09 1522.85 2319.15 1518.27 Q2322.23 1513.66 2328.04 1513.66 Z" fill="#000000" fill-rule="nonzero" fill-opacity="1" /><polyline clip-path="url(#clip120)" style="stroke:#000000; stroke-linecap:round; stroke-linejoin:round; stroke-width:4; stroke-opacity:1; fill:none" points="184.191,1486.45 184.191,47.2441 "/>
<polyline clip-path="url(#clip120)" style="stroke:#000000; stroke-linecap:round; stroke-linejoin:round; stroke-width:4; stroke-opacity:1; fill:none" points="184.191,1455.76 203.088,1455.76 "/>
<polyline clip-path="url(#clip120)" style="stroke:#000000; stroke-linecap:round; stroke-linejoin:round; stroke-width:4; stroke-opacity:1; fill:none" points="184.191,1114.65 203.088,1114.65 "/>
<polyline clip-path="url(#clip120)" style="stroke:#000000; stroke-linecap:round; stroke-linejoin:round; stroke-width:4; stroke-opacity:1; fill:none" points="184.191,773.529 203.088,773.529 "/>
<polyline clip-path="url(#clip120)" style="stroke:#000000; stroke-linecap:round; stroke-linejoin:round; stroke-width:4; stroke-opacity:1; fill:none" points="184.191,432.412 203.088,432.412 "/>
<polyline clip-path="url(#clip120)" style="stroke:#000000; stroke-linecap:round; stroke-linejoin:round; stroke-width:4; stroke-opacity:1; fill:none" points="184.191,91.2944 203.088,91.2944 "/>
<path clip-path="url(#clip120)" d="M91.0151 1441.56 Q87.404 1441.56 85.5753 1445.13 Q83.7697 1448.67 83.7697 1455.8 Q83.7697 1462.9 85.5753 1466.47 Q87.404 1470.01 91.0151 1470.01 Q94.6493 1470.01 96.4548 1466.47 Q98.2835 1462.9 98.2835 1455.8 Q98.2835 1448.67 96.4548 1445.13 Q94.6493 1441.56 91.0151 1441.56 M91.0151 1437.86 Q96.8252 1437.86 99.8808 1442.46 Q102.959 1447.05 102.959 1455.8 Q102.959 1464.52 99.8808 1469.13 Q96.8252 1473.71 91.0151 1473.71 Q85.2049 1473.71 82.1262 1469.13 Q79.0707 1464.52 79.0707 1455.8 Q79.0707 1447.05 82.1262 1442.46 Q85.2049 1437.86 91.0151 1437.86 Z" fill="#000000" fill-rule="nonzero" fill-opacity="1" /><path clip-path="url(#clip120)" d="M111.177 1467.16 L116.061 1467.16 L116.061 1473.04 L111.177 1473.04 L111.177 1467.16 Z" fill="#000000" fill-rule="nonzero" fill-opacity="1" /><path clip-path="url(#clip120)" d="M136.246 1441.56 Q132.635 1441.56 130.807 1445.13 Q129.001 1448.67 129.001 1455.8 Q129.001 1462.9 130.807 1466.47 Q132.635 1470.01 136.246 1470.01 Q139.881 1470.01 141.686 1466.47 Q143.515 1462.9 143.515 1455.8 Q143.515 1448.67 141.686 1445.13 Q139.881 1441.56 136.246 1441.56 M136.246 1437.86 Q142.056 1437.86 145.112 1442.46 Q148.191 1447.05 148.191 1455.8 Q148.191 1464.52 145.112 1469.13 Q142.056 1473.71 136.246 1473.71 Q130.436 1473.71 127.357 1469.13 Q124.302 1464.52 124.302 1455.8 Q124.302 1447.05 127.357 1442.46 Q130.436 1437.86 136.246 1437.86 Z" fill="#000000" fill-rule="nonzero" fill-opacity="1" /><path clip-path="url(#clip120)" d="M86.0382 1127.99 L102.358 1127.99 L102.358 1131.93 L80.4133 1131.93 L80.4133 1127.99 Q83.0753 1125.24 87.6586 1120.61 Q92.2651 1115.95 93.4456 1114.61 Q95.691 1112.09 96.5706 1110.35 Q97.4734 1108.59 97.4734 1106.9 Q97.4734 1104.15 95.5289 1102.41 Q93.6076 1100.68 90.5058 1100.68 Q88.3067 1100.68 85.8531 1101.44 Q83.4225 1102.2 80.6447 1103.75 L80.6447 1099.03 Q83.4688 1097.9 85.9225 1097.32 Q88.3762 1096.74 90.4132 1096.74 Q95.7836 1096.74 98.978 1099.43 Q102.172 1102.11 102.172 1106.6 Q102.172 1108.73 101.362 1110.65 Q100.575 1112.55 98.4687 1115.14 Q97.89 1115.81 94.7882 1119.03 Q91.6864 1122.23 86.0382 1127.99 Z" fill="#000000" fill-rule="nonzero" fill-opacity="1" /><path clip-path="url(#clip120)" d="M112.172 1126.05 L117.057 1126.05 L117.057 1131.93 L112.172 1131.93 L112.172 1126.05 Z" fill="#000000" fill-rule="nonzero" fill-opacity="1" /><path clip-path="url(#clip120)" d="M127.288 1097.37 L145.644 1097.37 L145.644 1101.3 L131.57 1101.3 L131.57 1109.77 Q132.589 1109.43 133.607 1109.26 Q134.626 1109.08 135.644 1109.08 Q141.431 1109.08 144.811 1112.25 Q148.191 1115.42 148.191 1120.84 Q148.191 1126.42 144.718 1129.52 Q141.246 1132.6 134.927 1132.6 Q132.751 1132.6 130.482 1132.23 Q128.237 1131.86 125.83 1131.12 L125.83 1126.42 Q127.913 1127.55 130.135 1128.11 Q132.357 1128.66 134.834 1128.66 Q138.839 1128.66 141.177 1126.56 Q143.515 1124.45 143.515 1120.84 Q143.515 1117.23 141.177 1115.12 Q138.839 1113.01 134.834 1113.01 Q132.959 1113.01 131.084 1113.43 Q129.232 1113.85 127.288 1114.73 L127.288 1097.37 Z" fill="#000000" fill-rule="nonzero" fill-opacity="1" /><path clip-path="url(#clip120)" d="M81.0614 756.249 L99.4178 756.249 L99.4178 760.184 L85.3438 760.184 L85.3438 768.656 Q86.3623 768.309 87.3808 768.147 Q88.3993 767.962 89.4178 767.962 Q95.2049 767.962 98.5845 771.133 Q101.964 774.304 101.964 779.721 Q101.964 785.299 98.4919 788.401 Q95.0197 791.48 88.7003 791.48 Q86.5243 791.48 84.2558 791.11 Q82.0105 790.739 79.6031 789.998 L79.6031 785.299 Q81.6864 786.434 83.9086 786.989 Q86.1308 787.545 88.6077 787.545 Q92.6123 787.545 94.9502 785.438 Q97.2882 783.332 97.2882 779.721 Q97.2882 776.11 94.9502 774.003 Q92.6123 771.897 88.6077 771.897 Q86.7327 771.897 84.8577 772.313 Q83.0058 772.73 81.0614 773.61 L81.0614 756.249 Z" fill="#000000" fill-rule="nonzero" fill-opacity="1" /><path clip-path="url(#clip120)" d="M111.177 784.929 L116.061 784.929 L116.061 790.809 L111.177 790.809 L111.177 784.929 Z" fill="#000000" fill-rule="nonzero" fill-opacity="1" /><path clip-path="url(#clip120)" d="M136.246 759.327 Q132.635 759.327 130.807 762.892 Q129.001 766.434 129.001 773.563 Q129.001 780.67 130.807 784.235 Q132.635 787.776 136.246 787.776 Q139.881 787.776 141.686 784.235 Q143.515 780.67 143.515 773.563 Q143.515 766.434 141.686 762.892 Q139.881 759.327 136.246 759.327 M136.246 755.624 Q142.056 755.624 145.112 760.23 Q148.191 764.813 148.191 773.563 Q148.191 782.29 145.112 786.897 Q142.056 791.48 136.246 791.48 Q130.436 791.48 127.357 786.897 Q124.302 782.29 124.302 773.563 Q124.302 764.813 127.357 760.23 Q130.436 755.624 136.246 755.624 Z" fill="#000000" fill-rule="nonzero" fill-opacity="1" /><path clip-path="url(#clip120)" d="M80.8299 415.132 L103.052 415.132 L103.052 417.122 L90.5058 449.692 L85.6216 449.692 L97.4271 419.067 L80.8299 419.067 L80.8299 415.132 Z" fill="#000000" fill-rule="nonzero" fill-opacity="1" /><path clip-path="url(#clip120)" d="M112.172 443.812 L117.057 443.812 L117.057 449.692 L112.172 449.692 L112.172 443.812 Z" fill="#000000" fill-rule="nonzero" fill-opacity="1" /><path clip-path="url(#clip120)" d="M127.288 415.132 L145.644 415.132 L145.644 419.067 L131.57 419.067 L131.57 427.539 Q132.589 427.192 133.607 427.03 Q134.626 426.844 135.644 426.844 Q141.431 426.844 144.811 430.016 Q148.191 433.187 148.191 438.604 Q148.191 444.182 144.718 447.284 Q141.246 450.363 134.927 450.363 Q132.751 450.363 130.482 449.992 Q128.237 449.622 125.83 448.881 L125.83 444.182 Q127.913 445.317 130.135 445.872 Q132.357 446.428 134.834 446.428 Q138.839 446.428 141.177 444.321 Q143.515 442.215 143.515 438.604 Q143.515 434.993 141.177 432.886 Q138.839 430.78 134.834 430.78 Q132.959 430.78 131.084 431.196 Q129.232 431.613 127.288 432.493 L127.288 415.132 Z" fill="#000000" fill-rule="nonzero" fill-opacity="1" /><path clip-path="url(#clip120)" d="M51.6634 104.639 L59.3023 104.639 L59.3023 78.2737 L50.9921 79.9403 L50.9921 75.6811 L59.256 74.0144 L63.9319 74.0144 L63.9319 104.639 L71.5707 104.639 L71.5707 108.574 L51.6634 108.574 L51.6634 104.639 Z" fill="#000000" fill-rule="nonzero" fill-opacity="1" /><path clip-path="url(#clip120)" d="M91.0151 77.0931 Q87.404 77.0931 85.5753 80.6579 Q83.7697 84.1996 83.7697 91.3292 Q83.7697 98.4356 85.5753 102 Q87.404 105.542 91.0151 105.542 Q94.6493 105.542 96.4548 102 Q98.2835 98.4356 98.2835 91.3292 Q98.2835 84.1996 96.4548 80.6579 Q94.6493 77.0931 91.0151 77.0931 M91.0151 73.3894 Q96.8252 73.3894 99.8808 77.9959 Q102.959 82.5792 102.959 91.3292 Q102.959 100.056 99.8808 104.662 Q96.8252 109.246 91.0151 109.246 Q85.2049 109.246 82.1262 104.662 Q79.0707 100.056 79.0707 91.3292 Q79.0707 82.5792 82.1262 77.9959 Q85.2049 73.3894 91.0151 73.3894 Z" fill="#000000" fill-rule="nonzero" fill-opacity="1" /><path clip-path="url(#clip120)" d="M111.177 102.695 L116.061 102.695 L116.061 108.574 L111.177 108.574 L111.177 102.695 Z" fill="#000000" fill-rule="nonzero" fill-opacity="1" /><path clip-path="url(#clip120)" d="M136.246 77.0931 Q132.635 77.0931 130.807 80.6579 Q129.001 84.1996 129.001 91.3292 Q129.001 98.4356 130.807 102 Q132.635 105.542 136.246 105.542 Q139.881 105.542 141.686 102 Q143.515 98.4356 143.515 91.3292 Q143.515 84.1996 141.686 80.6579 Q139.881 77.0931 136.246 77.0931 M136.246 73.3894 Q142.056 73.3894 145.112 77.9959 Q148.191 82.5792 148.191 91.3292 Q148.191 100.056 145.112 104.662 Q142.056 109.246 136.246 109.246 Q130.436 109.246 127.357 104.662 Q124.302 100.056 124.302 91.3292 Q124.302 82.5792 127.357 77.9959 Q130.436 73.3894 136.246 73.3894 Z" fill="#000000" fill-rule="nonzero" fill-opacity="1" /><path clip-path="url(#clip121)" d="M245.565 1319.32 L266.023 1330.67 L286.481 1333.9 L306.94 1320.17 L327.398 1309.02 L347.856 1300.52 L368.314 1292.48 L388.772 1282.67 L409.23 1247.64 L429.689 1210.82 L450.147 1206.59 L470.605 1179.89 L491.063 1144.19 L511.521 1101.89 L531.979 1069.47 L552.438 1005.26 L572.896 972.133 L593.354 914.282 L613.812 885.941 L634.27 863.778 L654.728 789.319 L675.187 761.825 L695.645 895.202 L716.103 1066.46 L736.561 1193.1 L757.019 1268.61 L777.477 1309.16 L797.936 1337.53 L818.394 1356.31 L838.852 1376.03 L859.31 1384.5 L879.768 1389.35 L900.226 1399.69 L920.685 1399.56 L941.143 1398.27 L961.601 1395.58 L982.059 1390.25 L1002.52 1385.2 L1022.98 1382.03 L1043.43 1378.28 L1063.89 1369.23 L1084.35 1356.42 L1104.81 1344.69 L1125.27 1325.38 L1145.72 1313.61 L1166.18 1301.24 L1186.64 1277.54 L1207.1 1246.13 L1227.56 1233.51 L1248.02 1190.09 L1268.47 1149.28 L1288.93 1104.35 L1309.39 1037.68 L1329.85 986.801 L1350.31 1007.77 L1370.76 1059.04 L1391.22 1120.14 L1411.68 1212.72 L1432.14 1270.16 L1452.6 1322 L1473.05 1349.07 L1493.51 1364.28 L1513.97 1357.39 L1534.43 1359.34 L1554.89 1362.73 L1575.35 1377.44 L1595.8 1384.51 L1616.26 1388.48 L1636.72 1387.16 L1657.18 1384.8 L1677.64 1386.03 L1698.09 1387.36 L1718.55 1383.61 L1739.01 1391 L1759.47 1386.51 L1779.93 1384.59 L1800.39 1378.64 L1820.84 1373.53 L1841.3 1362.26 L1861.76 1361.87 L1882.22 1344.98 L1902.68 1340.24 L1923.13 1324.01 L1943.59 1299.74 L1964.05 1279.83 L1984.51 1239.51 L2004.97 1223.41 L2025.43 1171.42 L2045.88 1137.35 L2066.34 1144.83 L2086.8 1145.47 L2107.26 1207.73 L2127.72 1245.36 L2148.17 1269.63 L2168.63 1309.55 L2189.09 1349.05 L2209.55 1368.99 L2230.01 1380.08 L2250.47 1384.54 L2270.92 1382.86 L2291.38 1381.85 L2291.38 344.562 L2270.92 415.195 L2250.47 439.026 L2230.01 465.762 L2209.55 485.289 L2189.09 435.86 L2168.63 397.972 L2148.17 402.438 L2127.72 513.885 L2107.26 544.349 L2086.8 495.898 L2066.34 380.214 L2045.88 362.939 L2025.43 393.224 L2004.97 435.463 L1984.51 482.268 L1964.05 573.593 L1943.59 599.413 L1923.13 659.596 L1902.68 724.488 L1882.22 785.015 L1861.76 820.779 L1841.3 834.618 L1820.84 872.782 L1800.39 929.133 L1779.93 982.079 L1759.47 1035.72 L1739.01 1114.33 L1718.55 1150.67 L1698.09 1152.57 L1677.64 1204.95 L1657.18 1182.18 L1636.72 1091.86 L1616.26 907.068 L1595.8 671.449 L1575.35 560.922 L1554.89 483.215 L1534.43 635.277 L1513.97 660.302 L1493.51 513.987 L1473.05 197.394 L1452.6 87.9763 L1432.14 95.057 L1411.68 260.04 L1391.22 308.317 L1370.76 339.805 L1350.31 338.594 L1329.85 377.495 L1309.39 436.533 L1288.93 469.838 L1268.47 569.884 L1248.02 663.269 L1227.56 722.9 L1207.1 808.339 L1186.64 869.654 L1166.18 932.152 L1145.72 960.346 L1125.27 987.546 L1104.81 1050.3 L1084.35 1107.93 L1063.89 1152.22 L1043.43 1183.44 L1022.98 1199.03 L1002.52 1230.19 L982.059 1239.31 L961.601 1265.95 L941.143 1275.22 L920.685 1282.15 L900.226 1260.38 L879.768 1207.6 L859.31 1117.94 L838.852 967.304 L818.394 825.317 L797.936 720.533 L777.477 573.296 L757.019 561.399 L736.561 473.743 L716.103 263.305 L695.645 151.793 L675.187 288.312 L654.728 390.269 L634.27 436.597 L613.812 444.164 L593.354 509.624 L572.896 610.017 L552.438 681.024 L531.979 774.928 L511.521 863.008 L491.063 935.988 L470.605 973.249 L450.147 987.13 L429.689 1035.63 L409.23 1099.5 L388.772 1140.94 L368.314 1179 L347.856 1230.23 L327.398 1257.54 L306.94 1278.32 L286.481 1296.76 L266.023 1308.39 L245.565 1319.32  Z" fill="#009af9" fill-rule="evenodd" fill-opacity="0.5"/>
<polyline clip-path="url(#clip121)" style="stroke:#009af9; stroke-linecap:round; stroke-linejoin:round; stroke-width:12; stroke-opacity:1; fill:none" points="245.565,1319.32 266.023,1312.84 286.481,1301.75 306.94,1286.87 327.398,1268.93 347.856,1247.34 368.314,1221.69 388.772,1188.64 409.23,1152.52 429.689,1117.19 450.147,1074.89 470.605,1027.96 491.063,975.977 511.521,915.622 531.979,847.537 552.438,771.425 572.896,695.9 593.354,635.255 613.812,577.895 634.27,524.147 654.728,523.233 675.187,661.268 695.645,762.949 716.103,906.61 736.561,1030.67 757.019,1126.38 777.477,1195.24 797.936,1263.13 818.394,1286.43 838.852,1314.32 859.31,1333.12 879.768,1336.15 900.226,1332.66 920.685,1325.64 941.143,1337.18 961.601,1331.81 982.059,1319.38 1002.52,1303.74 1022.98,1283.35 1043.43,1259.99 1063.89,1235.01 1084.35,1196.77 1104.81,1167.21 1125.27,1137.26 1145.72,1094.75 1166.18,1044.77 1186.64,986.966 1207.1,916.709 1227.56,833.557 1248.02,757.662 1268.47,707.155 1288.93,646.413 1309.39,610.599 1329.85,671.769 1350.31,692.481 1370.76,741.865 1391.22,924.239 1411.68,1005.67 1432.14,1117.11 1452.6,1212.09 1473.05,1263.08 1493.51,1282.95 1513.97,1294.03 1534.43,1309.36 1554.89,1328.75 1575.35,1329.01 1595.8,1321.52 1616.26,1310.61 1636.72,1301.54 1657.18,1302.79 1677.64,1287.43 1698.09,1298.26 1718.55,1283.28 1739.01,1264.78 1759.47,1239.93 1779.93,1212.11 1800.39,1171.88 1820.84,1128.86 1841.3,1080.82 1861.76,1024.22 1882.22,952.493 1902.68,884.889 1923.13,839.05 1943.59,744.962 1964.05,717.048 1984.51,713.875 2004.97,652.018 2025.43,720.194 2045.88,795.53 2066.34,905.198 2086.8,932.254 2107.26,1036.43 2127.72,1075.23 2148.17,1227.75 2168.63,1265.09 2189.09,1279.69 2209.55,1285.53 2230.01,1283.61 2250.47,1281.82 2270.92,1281.05 2291.38,1288.87 "/>
<path clip-path="url(#clip121)" d="M245.565 1319.32 L266.023 1354.5 L286.481 1372.54 L306.94 1386.78 L327.398 1399.68 L347.856 1409.1 L368.314 1415.98 L388.772 1421.21 L409.23 1426.7 L429.689 1430.11 L450.147 1432.69 L470.605 1434.83 L491.063 1436.46 L511.521 1437.39 L531.979 1437.73 L552.438 1437.61 L572.896 1436.43 L593.354 1433.71 L613.812 1429.72 L634.27 1423.16 L654.728 1411.12 L675.187 1387.76 L695.645 1331.48 L716.103 1247.21 L736.561 1212.83 L757.019 1182.73 L777.477 1146.73 L797.936 1078.02 L818.394 1136.5 L838.852 1195.67 L859.31 1248.32 L879.768 1285.7 L900.226 1323.39 L920.685 1345.25 L941.143 1364.91 L961.601 1379.95 L982.059 1392.39 L1002.52 1401.81 L1022.98 1408.11 L1043.43 1417.54 L1063.89 1423.66 L1084.35 1427.7 L1104.81 1432.01 L1125.27 1435.88 L1145.72 1438.79 L1166.18 1440.87 L1186.64 1442.95 L1207.1 1444.38 L1227.56 1445.24 L1248.02 1445.72 L1268.47 1445.7 L1288.93 1445.24 L1309.39 1444.51 L1329.85 1444.11 L1350.31 1442.98 L1370.76 1440.61 L1391.22 1435.16 L1411.68 1425.89 L1432.14 1407.03 L1452.6 1369.14 L1473.05 1301.37 L1493.51 1326.54 L1513.97 1345.46 L1534.43 1349.3 L1554.89 1331.6 L1575.35 1333.14 L1595.8 1348.21 L1616.26 1374.68 L1636.72 1391.94 L1657.18 1398.8 L1677.64 1408.85 L1698.09 1415.06 L1718.55 1417.74 L1739.01 1423.04 L1759.47 1426.3 L1779.93 1429.89 L1800.39 1434.13 L1820.84 1434.37 L1841.3 1435.72 L1861.76 1439.31 L1882.22 1442.89 L1902.68 1443.03 L1923.13 1444.08 L1943.59 1444.55 L1964.05 1443.05 L1984.51 1439.82 L2004.97 1439.25 L2025.43 1437.96 L2045.88 1437.44 L2066.34 1437.36 L2086.8 1434.67 L2107.26 1428.89 L2127.72 1417.37 L2148.17 1395.81 L2168.63 1350.08 L2189.09 1360.99 L2209.55 1375.06 L2230.01 1384.17 L2250.47 1380.5 L2270.92 1371.03 L2291.38 1352.66 L2291.38 805.46 L2270.92 717.263 L2250.47 662.452 L2230.01 703.775 L2209.55 802.119 L2189.09 820.079 L2168.63 688.996 L2148.17 574.835 L2127.72 538.696 L2107.26 730.914 L2086.8 830.249 L2066.34 889.342 L2045.88 937.221 L2025.43 1006.51 L2004.97 1079.31 L1984.51 1161.23 L1964.05 1219.59 L1943.59 1275.14 L1923.13 1310.13 L1902.68 1337.99 L1882.22 1351.96 L1861.76 1345.99 L1841.3 1334.91 L1820.84 1320.36 L1800.39 1293.76 L1779.93 1261.11 L1759.47 1211 L1739.01 1145.44 L1718.55 1074.24 L1698.09 970.622 L1677.64 877.382 L1657.18 770.197 L1636.72 723.014 L1616.26 747.204 L1595.8 872.159 L1575.35 781.73 L1554.89 640.958 L1534.43 509.963 L1513.97 470.746 L1493.51 595.75 L1473.05 760.008 L1452.6 690.015 L1432.14 668.491 L1411.68 629.316 L1391.22 760.049 L1370.76 819.546 L1350.31 880.209 L1329.85 1010.09 L1309.39 1132.73 L1288.93 1236.41 L1268.47 1302.48 L1248.02 1333.07 L1227.56 1363.03 L1207.1 1372.99 L1186.64 1382.83 L1166.18 1391.94 L1145.72 1395.18 L1125.27 1395.44 L1104.81 1386.83 L1084.35 1372.19 L1063.89 1357.84 L1043.43 1334.87 L1022.98 1306.03 L1002.52 1273.34 L982.059 1236.35 L961.601 1180.98 L941.143 1113.14 L920.685 1047 L900.226 942.974 L879.768 845.678 L859.31 780.734 L838.852 766.983 L818.394 712.91 L797.936 569.061 L777.477 472.477 L757.019 515.533 L736.561 673.944 L716.103 703.859 L695.645 738.316 L675.187 877.466 L654.728 1058.75 L634.27 1181.94 L613.812 1286.46 L593.354 1336.7 L572.896 1363.42 L552.438 1380.84 L531.979 1394.83 L511.521 1400.22 L491.063 1403.66 L470.605 1406.03 L450.147 1408.36 L429.689 1412.47 L409.23 1414.63 L388.772 1408.97 L368.314 1401.11 L347.856 1391.6 L327.398 1385.71 L306.94 1371.52 L286.481 1359.32 L266.023 1343.05 L245.565 1319.32  Z" fill="#e26f46" fill-rule="evenodd" fill-opacity="0.5"/>
<polyline clip-path="url(#clip121)" style="stroke:#e26f46; stroke-linecap:round; stroke-linejoin:round; stroke-width:12; stroke-opacity:1; fill:none" points="245.565,1319.32 266.023,1346.96 286.481,1367.75 306.94,1382.58 327.398,1394.96 347.856,1404.58 368.314,1410.64 388.772,1415.71 409.23,1420.08 429.689,1421.46 450.147,1423.6 470.605,1424.53 491.063,1423.43 511.521,1420.76 531.979,1414.57 552.438,1407.73 572.896,1395.24 593.354,1370.96 613.812,1324.81 634.27,1268.02 654.728,1169.02 675.187,1068.9 695.645,970.36 716.103,894.029 736.561,832.307 757.019,881.649 777.477,959.876 797.936,1029.95 818.394,1096.92 838.852,1153.21 859.31,1199.46 879.768,1244.69 900.226,1283.89 920.685,1312.76 941.143,1333.44 961.601,1353.63 982.059,1369.69 1002.52,1381.35 1022.98,1393.84 1043.43,1405.19 1063.89,1412.47 1084.35,1417.37 1104.81,1420.38 1125.27,1422.28 1145.72,1421.54 1166.18,1423.59 1186.64,1426.67 1207.1,1427.38 1227.56,1422.64 1248.02,1415.25 1268.47,1404.16 1288.93,1376.45 1309.39,1339.49 1329.85,1255.9 1350.31,1160 1370.76,1014.58 1391.22,909.83 1411.68,929.406 1432.14,980.787 1452.6,1039.86 1473.05,1044.96 1493.51,1062.17 1513.97,1124.76 1534.43,1192.85 1554.89,1244.03 1575.35,1271.8 1595.8,1303.22 1616.26,1332.98 1636.72,1355.73 1657.18,1369.42 1677.64,1379.22 1698.09,1387.32 1718.55,1393.16 1739.01,1405.96 1759.47,1413.2 1779.93,1416.98 1800.39,1417.49 1820.84,1421.81 1841.3,1418.86 1861.76,1418.11 1882.22,1417.63 1902.68,1413.52 1923.13,1407.81 1943.59,1410.98 1964.05,1409.79 1984.51,1396.32 2004.97,1357.61 2025.43,1301.9 2045.88,1190.38 2066.34,1106.96 2086.8,992.095 2107.26,988.777 2127.72,1011.57 2148.17,1085.35 2168.63,1137.96 2189.09,1093.58 2209.55,1134.16 2230.01,1193.01 2250.47,1246.54 2270.92,1285.1 2291.38,1311.68 "/>
</svg>
