<?xml version="1.0" encoding="utf-8"?>
<svg xmlns="http://www.w3.org/2000/svg" xmlns:xlink="http://www.w3.org/1999/xlink" width="600" height="400" viewBox="0 0 2400 1600">
<defs>
  <clipPath id="clip340">
    <rect x="0" y="0" width="2400" height="1600"/>
  </clipPath>
</defs>
<path clip-path="url(#clip340)" d="M0 1600 L2400 1600 L2400 0 L0 0  Z" fill="#ffffff" fill-rule="evenodd" fill-opacity="1"/>
<defs>
  <clipPath id="clip341">
    <rect x="480" y="0" width="1681" height="1600"/>
  </clipPath>
</defs>
<path clip-path="url(#clip340)" d="M155.765 1486.45 L2352.76 1486.45 L2352.76 47.2441 L155.765 47.2441  Z" fill="#ffffff" fill-rule="evenodd" fill-opacity="1"/>
<defs>
  <clipPath id="clip342">
    <rect x="155" y="47" width="2198" height="1440"/>
  </clipPath>
</defs>
<polyline clip-path="url(#clip342)" style="stroke:#000000; stroke-linecap:round; stroke-linejoin:round; stroke-width:2; stroke-opacity:0.1; fill:none" points="217.944,1486.45 217.944,47.2441 "/>
<polyline clip-path="url(#clip342)" style="stroke:#000000; stroke-linecap:round; stroke-linejoin:round; stroke-width:2; stroke-opacity:0.1; fill:none" points="736.102,1486.45 736.102,47.2441 "/>
<polyline clip-path="url(#clip342)" style="stroke:#000000; stroke-linecap:round; stroke-linejoin:round; stroke-width:2; stroke-opacity:0.1; fill:none" points="1254.26,1486.45 1254.26,47.2441 "/>
<polyline clip-path="url(#clip342)" style="stroke:#000000; stroke-linecap:round; stroke-linejoin:round; stroke-width:2; stroke-opacity:0.1; fill:none" points="1772.42,1486.45 1772.42,47.2441 "/>
<polyline clip-path="url(#clip342)" style="stroke:#000000; stroke-linecap:round; stroke-linejoin:round; stroke-width:2; stroke-opacity:0.1; fill:none" points="2290.58,1486.45 2290.58,47.2441 "/>
<polyline clip-path="url(#clip342)" style="stroke:#000000; stroke-linecap:round; stroke-linejoin:round; stroke-width:2; stroke-opacity:0.1; fill:none" points="155.765,1368.91 2352.76,1368.91 "/>
<polyline clip-path="url(#clip342)" style="stroke:#000000; stroke-linecap:round; stroke-linejoin:round; stroke-width:2; stroke-opacity:0.1; fill:none" points="155.765,1108.04 2352.76,1108.04 "/>
<polyline clip-path="url(#clip342)" style="stroke:#000000; stroke-linecap:round; stroke-linejoin:round; stroke-width:2; stroke-opacity:0.1; fill:none" points="155.765,847.172 2352.76,847.172 "/>
<polyline clip-path="url(#clip342)" style="stroke:#000000; stroke-linecap:round; stroke-linejoin:round; stroke-width:2; stroke-opacity:0.1; fill:none" points="155.765,586.306 2352.76,586.306 "/>
<polyline clip-path="url(#clip342)" style="stroke:#000000; stroke-linecap:round; stroke-linejoin:round; stroke-width:2; stroke-opacity:0.1; fill:none" points="155.765,325.439 2352.76,325.439 "/>
<polyline clip-path="url(#clip342)" style="stroke:#000000; stroke-linecap:round; stroke-linejoin:round; stroke-width:2; stroke-opacity:0.1; fill:none" points="155.765,64.5722 2352.76,64.5722 "/>
<polyline clip-path="url(#clip340)" style="stroke:#000000; stroke-linecap:round; stroke-linejoin:round; stroke-width:4; stroke-opacity:1; fill:none" points="155.765,1486.45 2352.76,1486.45 "/>
<polyline clip-path="url(#clip340)" style="stroke:#000000; stroke-linecap:round; stroke-linejoin:round; stroke-width:4; stroke-opacity:1; fill:none" points="217.944,1486.45 217.944,1467.55 "/>
<polyline clip-path="url(#clip340)" style="stroke:#000000; stroke-linecap:round; stroke-linejoin:round; stroke-width:4; stroke-opacity:1; fill:none" points="736.102,1486.45 736.102,1467.55 "/>
<polyline clip-path="url(#clip340)" style="stroke:#000000; stroke-linecap:round; stroke-linejoin:round; stroke-width:4; stroke-opacity:1; fill:none" points="1254.26,1486.45 1254.26,1467.55 "/>
<polyline clip-path="url(#clip340)" style="stroke:#000000; stroke-linecap:round; stroke-linejoin:round; stroke-width:4; stroke-opacity:1; fill:none" points="1772.42,1486.45 1772.42,1467.55 "/>
<polyline clip-path="url(#clip340)" style="stroke:#000000; stroke-linecap:round; stroke-linejoin:round; stroke-width:4; stroke-opacity:1; fill:none" points="2290.58,1486.45 2290.58,1467.55 "/>
<path clip-path="url(#clip340)" d="M180.247 1517.37 Q176.636 1517.37 174.808 1520.93 Q173.002 1524.47 173.002 1531.6 Q173.002 1538.71 174.808 1542.27 Q176.636 1545.82 180.247 1545.82 Q183.882 1545.82 185.687 1542.27 Q187.516 1538.71 187.516 1531.6 Q187.516 1524.47 185.687 1520.93 Q183.882 1517.37 180.247 1517.37 M180.247 1513.66 Q186.057 1513.66 189.113 1518.27 Q192.192 1522.85 192.192 1531.6 Q192.192 1540.33 189.113 1544.94 Q186.057 1549.52 180.247 1549.52 Q174.437 1549.52 171.358 1544.94 Q168.303 1540.33 168.303 1531.6 Q168.303 1522.85 171.358 1518.27 Q174.437 1513.66 180.247 1513.66 Z" fill="#000000" fill-rule="nonzero" fill-opacity="1" /><path clip-path="url(#clip340)" d="M200.409 1542.97 L205.294 1542.97 L205.294 1548.85 L200.409 1548.85 L200.409 1542.97 Z" fill="#000000" fill-rule="nonzero" fill-opacity="1" /><path clip-path="url(#clip340)" d="M225.479 1517.37 Q221.867 1517.37 220.039 1520.93 Q218.233 1524.47 218.233 1531.6 Q218.233 1538.71 220.039 1542.27 Q221.867 1545.82 225.479 1545.82 Q229.113 1545.82 230.918 1542.27 Q232.747 1538.71 232.747 1531.6 Q232.747 1524.47 230.918 1520.93 Q229.113 1517.37 225.479 1517.37 M225.479 1513.66 Q231.289 1513.66 234.344 1518.27 Q237.423 1522.85 237.423 1531.6 Q237.423 1540.33 234.344 1544.94 Q231.289 1549.52 225.479 1549.52 Q219.668 1549.52 216.59 1544.94 Q213.534 1540.33 213.534 1531.6 Q213.534 1522.85 216.59 1518.27 Q219.668 1513.66 225.479 1513.66 Z" fill="#000000" fill-rule="nonzero" fill-opacity="1" /><path clip-path="url(#clip340)" d="M255.64 1517.37 Q252.029 1517.37 250.201 1520.93 Q248.395 1524.47 248.395 1531.6 Q248.395 1538.71 250.201 1542.27 Q252.029 1545.82 255.64 1545.82 Q259.275 1545.82 261.08 1542.27 Q262.909 1538.71 262.909 1531.6 Q262.909 1524.47 261.08 1520.93 Q259.275 1517.37 255.64 1517.37 M255.64 1513.66 Q261.451 1513.66 264.506 1518.27 Q267.585 1522.85 267.585 1531.6 Q267.585 1540.33 264.506 1544.94 Q261.451 1549.52 255.64 1549.52 Q249.83 1549.52 246.752 1544.94 Q243.696 1540.33 243.696 1531.6 Q243.696 1522.85 246.752 1518.27 Q249.83 1513.66 255.64 1513.66 Z" fill="#000000" fill-rule="nonzero" fill-opacity="1" /><path clip-path="url(#clip340)" d="M698.903 1517.37 Q695.292 1517.37 693.463 1520.93 Q691.658 1524.47 691.658 1531.6 Q691.658 1538.71 693.463 1542.27 Q695.292 1545.82 698.903 1545.82 Q702.538 1545.82 704.343 1542.27 Q706.172 1538.71 706.172 1531.6 Q706.172 1524.47 704.343 1520.93 Q702.538 1517.37 698.903 1517.37 M698.903 1513.66 Q704.713 1513.66 707.769 1518.27 Q710.848 1522.85 710.848 1531.6 Q710.848 1540.33 707.769 1544.94 Q704.713 1549.52 698.903 1549.52 Q693.093 1549.52 690.014 1544.94 Q686.959 1540.33 686.959 1531.6 Q686.959 1522.85 690.014 1518.27 Q693.093 1513.66 698.903 1513.66 Z" fill="#000000" fill-rule="nonzero" fill-opacity="1" /><path clip-path="url(#clip340)" d="M719.065 1542.97 L723.949 1542.97 L723.949 1548.85 L719.065 1548.85 L719.065 1542.97 Z" fill="#000000" fill-rule="nonzero" fill-opacity="1" /><path clip-path="url(#clip340)" d="M738.162 1544.91 L754.482 1544.91 L754.482 1548.85 L732.537 1548.85 L732.537 1544.91 Q735.199 1542.16 739.783 1537.53 Q744.389 1532.88 745.57 1531.53 Q747.815 1529.01 748.695 1527.27 Q749.597 1525.51 749.597 1523.82 Q749.597 1521.07 747.653 1519.33 Q745.732 1517.6 742.63 1517.6 Q740.431 1517.6 737.977 1518.36 Q735.547 1519.13 732.769 1520.68 L732.769 1515.95 Q735.593 1514.82 738.047 1514.24 Q740.5 1513.66 742.537 1513.66 Q747.908 1513.66 751.102 1516.35 Q754.296 1519.03 754.296 1523.52 Q754.296 1525.65 753.486 1527.57 Q752.699 1529.47 750.593 1532.07 Q750.014 1532.74 746.912 1535.95 Q743.81 1539.15 738.162 1544.91 Z" fill="#000000" fill-rule="nonzero" fill-opacity="1" /><path clip-path="url(#clip340)" d="M764.343 1514.29 L782.699 1514.29 L782.699 1518.22 L768.625 1518.22 L768.625 1526.7 Q769.644 1526.35 770.662 1526.19 Q771.681 1526 772.699 1526 Q778.486 1526 781.866 1529.17 Q785.245 1532.34 785.245 1537.76 Q785.245 1543.34 781.773 1546.44 Q778.301 1549.52 771.982 1549.52 Q769.806 1549.52 767.537 1549.15 Q765.292 1548.78 762.884 1548.04 L762.884 1543.34 Q764.968 1544.47 767.19 1545.03 Q769.412 1545.58 771.889 1545.58 Q775.894 1545.58 778.232 1543.48 Q780.57 1541.37 780.57 1537.76 Q780.57 1534.15 778.232 1532.04 Q775.894 1529.94 771.889 1529.94 Q770.014 1529.94 768.139 1530.35 Q766.287 1530.77 764.343 1531.65 L764.343 1514.29 Z" fill="#000000" fill-rule="nonzero" fill-opacity="1" /><path clip-path="url(#clip340)" d="M1216.56 1517.37 Q1212.95 1517.37 1211.12 1520.93 Q1209.32 1524.47 1209.32 1531.6 Q1209.32 1538.71 1211.12 1542.27 Q1212.95 1545.82 1216.56 1545.82 Q1220.2 1545.82 1222 1542.27 Q1223.83 1538.71 1223.83 1531.6 Q1223.83 1524.47 1222 1520.93 Q1220.2 1517.37 1216.56 1517.37 M1216.56 1513.66 Q1222.37 1513.66 1225.43 1518.27 Q1228.51 1522.85 1228.51 1531.6 Q1228.51 1540.33 1225.43 1544.94 Q1222.37 1549.52 1216.56 1549.52 Q1210.75 1549.52 1207.68 1544.94 Q1204.62 1540.33 1204.62 1531.6 Q1204.62 1522.85 1207.68 1518.27 Q1210.75 1513.66 1216.56 1513.66 Z" fill="#000000" fill-rule="nonzero" fill-opacity="1" /><path clip-path="url(#clip340)" d="M1236.73 1542.97 L1241.61 1542.97 L1241.61 1548.85 L1236.73 1548.85 L1236.73 1542.97 Z" fill="#000000" fill-rule="nonzero" fill-opacity="1" /><path clip-path="url(#clip340)" d="M1251.84 1514.29 L1270.2 1514.29 L1270.2 1518.22 L1256.12 1518.22 L1256.12 1526.7 Q1257.14 1526.35 1258.16 1526.19 Q1259.18 1526 1260.2 1526 Q1265.98 1526 1269.36 1529.17 Q1272.74 1532.34 1272.74 1537.76 Q1272.74 1543.34 1269.27 1546.44 Q1265.8 1549.52 1259.48 1549.52 Q1257.3 1549.52 1255.04 1549.15 Q1252.79 1548.78 1250.38 1548.04 L1250.38 1543.34 Q1252.47 1544.47 1254.69 1545.03 Q1256.91 1545.58 1259.39 1545.58 Q1263.39 1545.58 1265.73 1543.48 Q1268.07 1541.37 1268.07 1537.76 Q1268.07 1534.15 1265.73 1532.04 Q1263.39 1529.94 1259.39 1529.94 Q1257.51 1529.94 1255.64 1530.35 Q1253.79 1530.77 1251.84 1531.65 L1251.84 1514.29 Z" fill="#000000" fill-rule="nonzero" fill-opacity="1" /><path clip-path="url(#clip340)" d="M1291.96 1517.37 Q1288.35 1517.37 1286.52 1520.93 Q1284.71 1524.47 1284.71 1531.6 Q1284.71 1538.71 1286.52 1542.27 Q1288.35 1545.82 1291.96 1545.82 Q1295.59 1545.82 1297.4 1542.27 Q1299.23 1538.71 1299.23 1531.6 Q1299.23 1524.47 1297.4 1520.93 Q1295.59 1517.37 1291.96 1517.37 M1291.96 1513.66 Q1297.77 1513.66 1300.82 1518.27 Q1303.9 1522.85 1303.9 1531.6 Q1303.9 1540.33 1300.82 1544.94 Q1297.77 1549.52 1291.96 1549.52 Q1286.15 1549.52 1283.07 1544.94 Q1280.01 1540.33 1280.01 1531.6 Q1280.01 1522.85 1283.07 1518.27 Q1286.15 1513.66 1291.96 1513.66 Z" fill="#000000" fill-rule="nonzero" fill-opacity="1" /><path clip-path="url(#clip340)" d="M1735.22 1517.37 Q1731.61 1517.37 1729.78 1520.93 Q1727.97 1524.47 1727.97 1531.6 Q1727.97 1538.71 1729.78 1542.27 Q1731.61 1545.82 1735.22 1545.82 Q1738.85 1545.82 1740.66 1542.27 Q1742.49 1538.71 1742.49 1531.6 Q1742.49 1524.47 1740.66 1520.93 Q1738.85 1517.37 1735.22 1517.37 M1735.22 1513.66 Q1741.03 1513.66 1744.09 1518.27 Q1747.16 1522.85 1747.16 1531.6 Q1747.16 1540.33 1744.09 1544.94 Q1741.03 1549.52 1735.22 1549.52 Q1729.41 1549.52 1726.33 1544.94 Q1723.28 1540.33 1723.28 1531.6 Q1723.28 1522.85 1726.33 1518.27 Q1729.41 1513.66 1735.22 1513.66 Z" fill="#000000" fill-rule="nonzero" fill-opacity="1" /><path clip-path="url(#clip340)" d="M1755.38 1542.97 L1760.27 1542.97 L1760.27 1548.85 L1755.38 1548.85 L1755.38 1542.97 Z" fill="#000000" fill-rule="nonzero" fill-opacity="1" /><path clip-path="url(#clip340)" d="M1769.27 1514.29 L1791.49 1514.29 L1791.49 1516.28 L1778.95 1548.85 L1774.06 1548.85 L1785.87 1518.22 L1769.27 1518.22 L1769.27 1514.29 Z" fill="#000000" fill-rule="nonzero" fill-opacity="1" /><path clip-path="url(#clip340)" d="M1800.66 1514.29 L1819.02 1514.29 L1819.02 1518.22 L1804.94 1518.22 L1804.94 1526.7 Q1805.96 1526.35 1806.98 1526.19 Q1808 1526 1809.02 1526 Q1814.8 1526 1818.18 1529.17 Q1821.56 1532.34 1821.56 1537.76 Q1821.56 1543.34 1818.09 1546.44 Q1814.62 1549.52 1808.3 1549.52 Q1806.12 1549.52 1803.85 1549.15 Q1801.61 1548.78 1799.2 1548.04 L1799.2 1543.34 Q1801.28 1544.47 1803.51 1545.03 Q1805.73 1545.58 1808.21 1545.58 Q1812.21 1545.58 1814.55 1543.48 Q1816.89 1541.37 1816.89 1537.76 Q1816.89 1534.15 1814.55 1532.04 Q1812.21 1529.94 1808.21 1529.94 Q1806.33 1529.94 1804.46 1530.35 Q1802.6 1530.77 1800.66 1531.65 L1800.66 1514.29 Z" fill="#000000" fill-rule="nonzero" fill-opacity="1" /><path clip-path="url(#clip340)" d="M2242.65 1544.91 L2250.29 1544.91 L2250.29 1518.55 L2241.98 1520.21 L2241.98 1515.95 L2250.24 1514.29 L2254.92 1514.29 L2254.92 1544.91 L2262.56 1544.91 L2262.56 1548.85 L2242.65 1548.85 L2242.65 1544.91 Z" fill="#000000" fill-rule="nonzero" fill-opacity="1" /><path clip-path="url(#clip340)" d="M2272 1542.97 L2276.88 1542.97 L2276.88 1548.85 L2272 1548.85 L2272 1542.97 Z" fill="#000000" fill-rule="nonzero" fill-opacity="1" /><path clip-path="url(#clip340)" d="M2297.07 1517.37 Q2293.46 1517.37 2291.63 1520.93 Q2289.82 1524.47 2289.82 1531.6 Q2289.82 1538.71 2291.63 1542.27 Q2293.46 1545.82 2297.07 1545.82 Q2300.7 1545.82 2302.51 1542.27 Q2304.34 1538.71 2304.34 1531.6 Q2304.34 1524.47 2302.51 1520.93 Q2300.7 1517.37 2297.07 1517.37 M2297.07 1513.66 Q2302.88 1513.66 2305.94 1518.27 Q2309.01 1522.85 2309.01 1531.6 Q2309.01 1540.33 2305.94 1544.94 Q2302.88 1549.52 2297.07 1549.52 Q2291.26 1549.52 2288.18 1544.94 Q2285.13 1540.33 2285.13 1531.6 Q2285.13 1522.85 2288.18 1518.27 Q2291.26 1513.66 2297.07 1513.66 Z" fill="#000000" fill-rule="nonzero" fill-opacity="1" /><path clip-path="url(#clip340)" d="M2327.23 1517.37 Q2323.62 1517.37 2321.79 1520.93 Q2319.99 1524.47 2319.99 1531.6 Q2319.99 1538.71 2321.79 1542.27 Q2323.62 1545.82 2327.23 1545.82 Q2330.87 1545.82 2332.67 1542.27 Q2334.5 1538.71 2334.5 1531.6 Q2334.5 1524.47 2332.67 1520.93 Q2330.87 1517.37 2327.23 1517.37 M2327.23 1513.66 Q2333.04 1513.66 2336.1 1518.27 Q2339.18 1522.85 2339.18 1531.6 Q2339.18 1540.33 2336.1 1544.94 Q2333.04 1549.52 2327.23 1549.52 Q2321.42 1549.52 2318.34 1544.94 Q2315.29 1540.33 2315.29 1531.6 Q2315.29 1522.85 2318.34 1518.27 Q2321.42 1513.66 2327.23 1513.66 Z" fill="#000000" fill-rule="nonzero" fill-opacity="1" /><polyline clip-path="url(#clip340)" style="stroke:#000000; stroke-linecap:round; stroke-linejoin:round; stroke-width:4; stroke-opacity:1; fill:none" points="155.765,1486.45 155.765,47.2441 "/>
<polyline clip-path="url(#clip340)" style="stroke:#000000; stroke-linecap:round; stroke-linejoin:round; stroke-width:4; stroke-opacity:1; fill:none" points="155.765,1368.91 174.663,1368.91 "/>
<polyline clip-path="url(#clip340)" style="stroke:#000000; stroke-linecap:round; stroke-linejoin:round; stroke-width:4; stroke-opacity:1; fill:none" points="155.765,1108.04 174.663,1108.04 "/>
<polyline clip-path="url(#clip340)" style="stroke:#000000; stroke-linecap:round; stroke-linejoin:round; stroke-width:4; stroke-opacity:1; fill:none" points="155.765,847.172 174.663,847.172 "/>
<polyline clip-path="url(#clip340)" style="stroke:#000000; stroke-linecap:round; stroke-linejoin:round; stroke-width:4; stroke-opacity:1; fill:none" points="155.765,586.306 174.663,586.306 "/>
<polyline clip-path="url(#clip340)" style="stroke:#000000; stroke-linecap:round; stroke-linejoin:round; stroke-width:4; stroke-opacity:1; fill:none" points="155.765,325.439 174.663,325.439 "/>
<polyline clip-path="url(#clip340)" style="stroke:#000000; stroke-linecap:round; stroke-linejoin:round; stroke-width:4; stroke-opacity:1; fill:none" points="155.765,64.5722 174.663,64.5722 "/>
<path clip-path="url(#clip340)" d="M63.5847 1354.7 Q59.9736 1354.7 58.1449 1358.27 Q56.3393 1361.81 56.3393 1368.94 Q56.3393 1376.05 58.1449 1379.61 Q59.9736 1383.15 63.5847 1383.15 Q67.2189 1383.15 69.0244 1379.61 Q70.8531 1376.05 70.8531 1368.94 Q70.8531 1361.81 69.0244 1358.27 Q67.2189 1354.7 63.5847 1354.7 M63.5847 1351 Q69.3948 1351 72.4503 1355.61 Q75.529 1360.19 75.529 1368.94 Q75.529 1377.67 72.4503 1382.27 Q69.3948 1386.86 63.5847 1386.86 Q57.7745 1386.86 54.6958 1382.27 Q51.6403 1377.67 51.6403 1368.94 Q51.6403 1360.19 54.6958 1355.61 Q57.7745 1351 63.5847 1351 Z" fill="#000000" fill-rule="nonzero" fill-opacity="1" /><path clip-path="url(#clip340)" d="M83.7466 1380.31 L88.6308 1380.31 L88.6308 1386.19 L83.7466 1386.19 L83.7466 1380.31 Z" fill="#000000" fill-rule="nonzero" fill-opacity="1" /><path clip-path="url(#clip340)" d="M98.8622 1351.63 L117.219 1351.63 L117.219 1355.56 L103.145 1355.56 L103.145 1364.03 Q104.163 1363.69 105.182 1363.52 Q106.2 1363.34 107.219 1363.34 Q113.006 1363.34 116.385 1366.51 Q119.765 1369.68 119.765 1375.1 Q119.765 1380.68 116.293 1383.78 Q112.82 1386.86 106.501 1386.86 Q104.325 1386.86 102.057 1386.49 Q99.8113 1386.12 97.4039 1385.38 L97.4039 1380.68 Q99.4872 1381.81 101.709 1382.37 Q103.932 1382.92 106.408 1382.92 Q110.413 1382.92 112.751 1380.82 Q115.089 1378.71 115.089 1375.1 Q115.089 1371.49 112.751 1369.38 Q110.413 1367.27 106.408 1367.27 Q104.534 1367.27 102.659 1367.69 Q100.807 1368.11 98.8622 1368.99 L98.8622 1351.63 Z" fill="#000000" fill-rule="nonzero" fill-opacity="1" /><path clip-path="url(#clip340)" d="M53.3995 1121.38 L61.0384 1121.38 L61.0384 1095.02 L52.7282 1096.69 L52.7282 1092.43 L60.9921 1090.76 L65.668 1090.76 L65.668 1121.38 L73.3068 1121.38 L73.3068 1125.32 L53.3995 1125.32 L53.3995 1121.38 Z" fill="#000000" fill-rule="nonzero" fill-opacity="1" /><path clip-path="url(#clip340)" d="M82.7512 1119.44 L87.6354 1119.44 L87.6354 1125.32 L82.7512 1125.32 L82.7512 1119.44 Z" fill="#000000" fill-rule="nonzero" fill-opacity="1" /><path clip-path="url(#clip340)" d="M107.821 1093.84 Q104.209 1093.84 102.381 1097.4 Q100.575 1100.94 100.575 1108.07 Q100.575 1115.18 102.381 1118.75 Q104.209 1122.29 107.821 1122.29 Q111.455 1122.29 113.26 1118.75 Q115.089 1115.18 115.089 1108.07 Q115.089 1100.94 113.26 1097.4 Q111.455 1093.84 107.821 1093.84 M107.821 1090.13 Q113.631 1090.13 116.686 1094.74 Q119.765 1099.32 119.765 1108.07 Q119.765 1116.8 116.686 1121.41 Q113.631 1125.99 107.821 1125.99 Q102.01 1125.99 98.9317 1121.41 Q95.8761 1116.8 95.8761 1108.07 Q95.8761 1099.32 98.9317 1094.74 Q102.01 1090.13 107.821 1090.13 Z" fill="#000000" fill-rule="nonzero" fill-opacity="1" /><path clip-path="url(#clip340)" d="M54.3949 860.517 L62.0337 860.517 L62.0337 834.152 L53.7236 835.818 L53.7236 831.559 L61.9874 829.892 L66.6633 829.892 L66.6633 860.517 L74.3022 860.517 L74.3022 864.452 L54.3949 864.452 L54.3949 860.517 Z" fill="#000000" fill-rule="nonzero" fill-opacity="1" /><path clip-path="url(#clip340)" d="M83.7466 858.573 L88.6308 858.573 L88.6308 864.452 L83.7466 864.452 L83.7466 858.573 Z" fill="#000000" fill-rule="nonzero" fill-opacity="1" /><path clip-path="url(#clip340)" d="M98.8622 829.892 L117.219 829.892 L117.219 833.828 L103.145 833.828 L103.145 842.3 Q104.163 841.953 105.182 841.791 Q106.2 841.605 107.219 841.605 Q113.006 841.605 116.385 844.777 Q119.765 847.948 119.765 853.365 Q119.765 858.943 116.293 862.045 Q112.82 865.124 106.501 865.124 Q104.325 865.124 102.057 864.753 Q99.8113 864.383 97.4039 863.642 L97.4039 858.943 Q99.4872 860.077 101.709 860.633 Q103.932 861.189 106.408 861.189 Q110.413 861.189 112.751 859.082 Q115.089 856.976 115.089 853.365 Q115.089 849.753 112.751 847.647 Q110.413 845.54 106.408 845.54 Q104.534 845.54 102.659 845.957 Q100.807 846.374 98.8622 847.253 L98.8622 829.892 Z" fill="#000000" fill-rule="nonzero" fill-opacity="1" /><path clip-path="url(#clip340)" d="M56.6171 599.651 L72.9365 599.651 L72.9365 603.586 L50.9921 603.586 L50.9921 599.651 Q53.6541 596.896 58.2375 592.266 Q62.8439 587.614 64.0245 586.271 Q66.2698 583.748 67.1494 582.012 Q68.0522 580.252 68.0522 578.563 Q68.0522 575.808 66.1078 574.072 Q64.1865 572.336 61.0847 572.336 Q58.8856 572.336 56.4319 573.1 Q54.0014 573.864 51.2236 575.415 L51.2236 570.692 Q54.0477 569.558 56.5014 568.979 Q58.955 568.401 60.9921 568.401 Q66.3624 568.401 69.5568 571.086 Q72.7513 573.771 72.7513 578.262 Q72.7513 580.391 71.9411 582.313 Q71.1541 584.211 69.0476 586.803 Q68.4689 587.475 65.367 590.692 Q62.2652 593.887 56.6171 599.651 Z" fill="#000000" fill-rule="nonzero" fill-opacity="1" /><path clip-path="url(#clip340)" d="M82.7512 597.706 L87.6354 597.706 L87.6354 603.586 L82.7512 603.586 L82.7512 597.706 Z" fill="#000000" fill-rule="nonzero" fill-opacity="1" /><path clip-path="url(#clip340)" d="M107.821 572.104 Q104.209 572.104 102.381 575.669 Q100.575 579.211 100.575 586.34 Q100.575 593.447 102.381 597.012 Q104.209 600.553 107.821 600.553 Q111.455 600.553 113.26 597.012 Q115.089 593.447 115.089 586.34 Q115.089 579.211 113.26 575.669 Q111.455 572.104 107.821 572.104 M107.821 568.401 Q113.631 568.401 116.686 573.007 Q119.765 577.59 119.765 586.34 Q119.765 595.067 116.686 599.674 Q113.631 604.257 107.821 604.257 Q102.01 604.257 98.9317 599.674 Q95.8761 595.067 95.8761 586.34 Q95.8761 577.59 98.9317 573.007 Q102.01 568.401 107.821 568.401 Z" fill="#000000" fill-rule="nonzero" fill-opacity="1" /><path clip-path="url(#clip340)" d="M57.6125 338.784 L73.9318 338.784 L73.9318 342.719 L51.9875 342.719 L51.9875 338.784 Q54.6495 336.029 59.2328 331.4 Q63.8393 326.747 65.0198 325.404 Q67.2652 322.881 68.1448 321.145 Q69.0476 319.386 69.0476 317.696 Q69.0476 314.941 67.1032 313.205 Q65.1819 311.469 62.08 311.469 Q59.881 311.469 57.4273 312.233 Q54.9967 312.997 52.219 314.548 L52.219 309.826 Q55.043 308.691 57.4967 308.113 Q59.9504 307.534 61.9874 307.534 Q67.3578 307.534 70.5522 310.219 Q73.7466 312.904 73.7466 317.395 Q73.7466 319.525 72.9365 321.446 Q72.1494 323.344 70.0429 325.937 Q69.4642 326.608 66.3624 329.826 Q63.2606 333.02 57.6125 338.784 Z" fill="#000000" fill-rule="nonzero" fill-opacity="1" /><path clip-path="url(#clip340)" d="M83.7466 336.839 L88.6308 336.839 L88.6308 342.719 L83.7466 342.719 L83.7466 336.839 Z" fill="#000000" fill-rule="nonzero" fill-opacity="1" /><path clip-path="url(#clip340)" d="M98.8622 308.159 L117.219 308.159 L117.219 312.094 L103.145 312.094 L103.145 320.566 Q104.163 320.219 105.182 320.057 Q106.2 319.872 107.219 319.872 Q113.006 319.872 116.385 323.043 Q119.765 326.214 119.765 331.631 Q119.765 337.21 116.293 340.312 Q112.82 343.39 106.501 343.39 Q104.325 343.39 102.057 343.02 Q99.8113 342.65 97.4039 341.909 L97.4039 337.21 Q99.4872 338.344 101.709 338.9 Q103.932 339.455 106.408 339.455 Q110.413 339.455 112.751 337.349 Q115.089 335.242 115.089 331.631 Q115.089 328.02 112.751 325.913 Q110.413 323.807 106.408 323.807 Q104.534 323.807 102.659 324.224 Q100.807 324.64 98.8622 325.52 L98.8622 308.159 Z" fill="#000000" fill-rule="nonzero" fill-opacity="1" /><path clip-path="url(#clip340)" d="M66.7559 63.2181 Q70.1124 63.9357 71.9874 66.2042 Q73.8855 68.4727 73.8855 71.806 Q73.8855 76.9217 70.367 79.7226 Q66.8485 82.5235 60.3671 82.5235 Q58.1912 82.5235 55.8764 82.0837 Q53.5847 81.667 51.131 80.8106 L51.131 76.2967 Q53.0754 77.4309 55.3903 78.0097 Q57.7051 78.5884 60.2282 78.5884 Q64.6263 78.5884 66.918 76.8522 Q69.2328 75.1161 69.2328 71.806 Q69.2328 68.7504 67.08 67.0375 Q64.9504 65.3014 61.131 65.3014 L57.1032 65.3014 L57.1032 61.4588 L61.3161 61.4588 Q64.7652 61.4588 66.5939 60.0931 Q68.4226 58.7042 68.4226 56.1116 Q68.4226 53.4496 66.5245 52.0376 Q64.6495 50.6024 61.131 50.6024 Q59.2097 50.6024 57.0106 51.0191 Q54.8115 51.4357 52.1727 52.3153 L52.1727 48.1487 Q54.8347 47.408 57.1495 47.0376 Q59.4875 46.6672 61.5476 46.6672 Q66.8717 46.6672 69.9735 49.0978 Q73.0753 51.5052 73.0753 55.6255 Q73.0753 58.4959 71.4318 60.4866 Q69.7883 62.4542 66.7559 63.2181 Z" fill="#000000" fill-rule="nonzero" fill-opacity="1" /><path clip-path="url(#clip340)" d="M82.7512 75.9726 L87.6354 75.9726 L87.6354 81.8522 L82.7512 81.8522 L82.7512 75.9726 Z" fill="#000000" fill-rule="nonzero" fill-opacity="1" /><path clip-path="url(#clip340)" d="M107.821 50.3709 Q104.209 50.3709 102.381 53.9357 Q100.575 57.4774 100.575 64.6069 Q100.575 71.7134 102.381 75.2782 Q104.209 78.8198 107.821 78.8198 Q111.455 78.8198 113.26 75.2782 Q115.089 71.7134 115.089 64.6069 Q115.089 57.4774 113.26 53.9357 Q111.455 50.3709 107.821 50.3709 M107.821 46.6672 Q113.631 46.6672 116.686 51.2737 Q119.765 55.857 119.765 64.6069 Q119.765 73.3337 116.686 77.9402 Q113.631 82.5235 107.821 82.5235 Q102.01 82.5235 98.9317 77.9402 Q95.8761 73.3337 95.8761 64.6069 Q95.8761 55.857 98.9317 51.2737 Q102.01 46.6672 107.821 46.6672 Z" fill="#000000" fill-rule="nonzero" fill-opacity="1" /><path clip-path="url(#clip342)" d="M217.944 1368.91 L425.207 1390.5 L632.47 1385.75 L839.734 1407.79 L1047 1400.69 L1254.26 1440.77 L1461.52 1432.3 L1668.79 1445.72 L1876.05 1438.73 L2083.31 1392.93 L2290.58 1321.34 L2290.58 87.9763 L2083.31 291.06 L1876.05 276.866 L1668.79 296.261 L1461.52 481.578 L1254.26 576.95 L1047 521.294 L839.734 853.364 L632.47 1123.87 L425.207 1206.96 L217.944 1368.91  Z" fill="#009af9" fill-rule="evenodd" fill-opacity="0.2"/>
<polyline clip-path="url(#clip342)" style="stroke:#009af9; stroke-linecap:round; stroke-linejoin:round; stroke-width:12; stroke-opacity:1; fill:none" points="217.944,1368.91 425.207,1315.7 632.47,1255.24 839.734,1217.77 1047,1148.05 1254.26,1151.14 1461.52,1136.74 1668.79,1051.67 1876.05,867.751 2083.31,777 2290.58,1102.3 "/>
</svg>
